<?xml version="1.0" standalone="no"?>
 <!DOCTYPE svg PUBLIC "-//W3C//DTD SVG 1.1//EN" 
 "http://www.w3.org/Graphics/SVG/1.1/DTD/svg11.dtd"> 
<svg
  xmlns:svg="http://www.w3.org/2000/svg"
  xmlns="http://www.w3.org/2000/svg"
  xmlns:xlink="http://www.w3.org/1999/xlink"
  version="1.1"
  width="95.3770mm" height="18.2880mm" viewBox="0.0000 0.0000 95.3770 18.2880">
<title>SVG Image created as working.svg date 2023/07/31 16:04:20 </title>
  <desc>Image generated by Eeschema-SVG </desc>
<g style="fill:#000000; fill-opacity:1.0000;stroke:#000000; stroke-opacity:1.0000;
stroke-linecap:round; stroke-linejoin:round;"
 transform="translate(0 0) scale(1 1)">
</g>
<g style="fill:#840000; fill-opacity:0.0; 
stroke:#840000; stroke-width:0.0000; stroke-opacity:1; 
stroke-linecap:round; stroke-linejoin:round;">
</g>
<g style="fill:#FFFFC2; fill-opacity:0.0; 
stroke:#FFFFC2; stroke-width:0.0000; stroke-opacity:1; 
stroke-linecap:round; stroke-linejoin:round;">
</g>
<g style="fill:#FFFFC2; fill-opacity:1.0000; 
stroke:#FFFFC2; stroke-width:0.0000; stroke-opacity:1; 
stroke-linecap:round; stroke-linejoin:round;">
<path style="fill:#FFFFC2; fill-opacity:1.0000; 
stroke:#FFFFC2; stroke-width:0.0000; stroke-opacity:1; 
stroke-linecap:round; stroke-linejoin:round;fill-rule:evenodd;"
d="M 42.5289,4.0641
52.6889,9.1441
42.5289,14.2241
Z" /> 
</g>
<g style="fill:#840084; fill-opacity:1.0000; 
stroke:#840084; stroke-width:0.0000; stroke-opacity:1; 
stroke-linecap:round; stroke-linejoin:round;">
</g>
<g style="fill:#840000; fill-opacity:1.0000; 
stroke:#840000; stroke-width:0.0000; stroke-opacity:1; 
stroke-linecap:round; stroke-linejoin:round;">
</g>
<g style="fill:#840000; fill-opacity:0.0; 
stroke:#840000; stroke-width:0.2540; stroke-opacity:1; 
stroke-linecap:round; stroke-linejoin:round;">
<path style="fill:#840000; fill-opacity:0.0; 
stroke:#840000; stroke-width:0.2540; stroke-opacity:1; 
stroke-linecap:round; stroke-linejoin:round;fill:none"
d="M 42.5289,4.0641
52.6889,9.1441
42.5289,14.2241
Z" /> 
</g>
<g style="fill:#840000; fill-opacity:0.0; 
stroke:#840000; stroke-width:0.1524; stroke-opacity:1; 
stroke-linecap:round; stroke-linejoin:round;">
<path d="M45.0689 5.3341
L45.0689 1.5241
" />
</g>
<g style="fill:#006464; fill-opacity:0.0; 
stroke:#006464; stroke-width:0.1524; stroke-opacity:1; 
stroke-linecap:round; stroke-linejoin:round;">
<g transform="rotate(-90.000000 45.0689 5.4611)">
<text x="45.0689" y="6.0961"
textLength="2.7880" font-size="1.6933" lengthAdjust="spacingAndGlyphs"
text-anchor="end" opacity="0">V+</text>
</g>
<g class="stroked-text"><desc>V+</desc>
<path d="M44.3864 8.0011
L45.6564 7.5778
" />
<path d="M45.6564 7.5778
L44.3864 7.1544
" />
<path d="M45.1726 6.7311
L45.1726 5.7635
" />
<path d="M45.6564 6.2473
L44.6888 6.2473
" />
</g></g>
<g style="fill:#A90000; fill-opacity:0.0; 
stroke:#A90000; stroke-width:0.1524; stroke-opacity:1; 
stroke-linecap:round; stroke-linejoin:round;">
<g transform="rotate(-90.000000 44.8149 3.4291)">
<text x="44.8149" y="3.4291"
textLength="1.3365" font-size="1.6933" lengthAdjust="spacingAndGlyphs"
text-anchor="middle" opacity="0">2</text>
</g>
<g class="stroked-text"><desc>2</desc>
<path d="M43.5104 3.7918
L43.4499 3.7314
" />
<path d="M43.4499 3.7314
L43.3894 3.6104
" />
<path d="M43.3894 3.6104
L43.3894 3.3080
" />
<path d="M43.3894 3.3080
L43.4499 3.1871
" />
<path d="M43.4499 3.1871
L43.5104 3.1266
" />
<path d="M43.5104 3.1266
L43.6313 3.0661
" />
<path d="M43.6313 3.0661
L43.7523 3.0661
" />
<path d="M43.7523 3.0661
L43.9337 3.1266
" />
<path d="M43.9337 3.1266
L44.6594 3.8523
" />
<path d="M44.6594 3.8523
L44.6594 3.0661
" />
</g></g>
<g style="fill:#840000; fill-opacity:0.0; 
stroke:#840000; stroke-width:0.1524; stroke-opacity:1; 
stroke-linecap:round; stroke-linejoin:round;">
<path d="M52.6889 9.1441
L55.2289 9.1441
" />
</g>
<g style="fill:#A90000; fill-opacity:0.0; 
stroke:#A90000; stroke-width:0.1524; stroke-opacity:1; 
stroke-linecap:round; stroke-linejoin:round;">
<text x="53.9589" y="8.8901"
textLength="1.3365" font-size="1.6933" lengthAdjust="spacingAndGlyphs"
text-anchor="middle" opacity="0">3</text>
<g class="stroked-text"><desc>3</desc>
<path d="M53.5356 7.4646
L54.3218 7.4646
" />
<path d="M54.3218 7.4646
L53.8984 7.9484
" />
<path d="M53.8984 7.9484
L54.0799 7.9484
" />
<path d="M54.0799 7.9484
L54.2008 8.0089
" />
<path d="M54.2008 8.0089
L54.2613 8.0694
" />
<path d="M54.2613 8.0694
L54.3218 8.1903
" />
<path d="M54.3218 8.1903
L54.3218 8.4927
" />
<path d="M54.3218 8.4927
L54.2613 8.6137
" />
<path d="M54.2613 8.6137
L54.2008 8.6742
" />
<path d="M54.2008 8.6742
L54.0799 8.7346
" />
<path d="M54.0799 8.7346
L53.7170 8.7346
" />
<path d="M53.7170 8.7346
L53.5961 8.6742
" />
<path d="M53.5961 8.6742
L53.5356 8.6137
" />
</g></g>
<g style="fill:#840000; fill-opacity:0.0; 
stroke:#840000; stroke-width:0.1524; stroke-opacity:1; 
stroke-linecap:round; stroke-linejoin:round;">
<path d="M45.0689 12.9541
L45.0689 16.7641
" />
</g>
<g style="fill:#006464; fill-opacity:0.0; 
stroke:#006464; stroke-width:0.1524; stroke-opacity:1; 
stroke-linecap:round; stroke-linejoin:round;">
<g transform="rotate(-90.000000 45.0689 12.8271)">
<text x="45.0689" y="13.4621"
textLength="2.7880" font-size="1.6933" lengthAdjust="spacingAndGlyphs"
text-anchor="start" opacity="0">V-</text>
</g>
<g class="stroked-text"><desc>V-</desc>
<path d="M44.3864 12.7061
L45.6564 12.2828
" />
<path d="M45.6564 12.2828
L44.3864 11.8594
" />
<path d="M45.1726 11.4361
L45.1726 10.4685
" />
</g></g>
<g style="fill:#A90000; fill-opacity:0.0; 
stroke:#A90000; stroke-width:0.1524; stroke-opacity:1; 
stroke-linecap:round; stroke-linejoin:round;">
<g transform="rotate(-90.000000 44.8149 14.8591)">
<text x="44.8149" y="14.8591"
textLength="1.3365" font-size="1.6933" lengthAdjust="spacingAndGlyphs"
text-anchor="middle" opacity="0">4</text>
</g>
<g class="stroked-text"><desc>4</desc>
<path d="M43.8128 14.6171
L44.6594 14.6171
" />
<path d="M43.3290 14.9195
L44.2361 15.2218
" />
<path d="M44.2361 15.2218
L44.2361 14.4357
" />
</g></g>
<g style="fill:#840000; fill-opacity:0.0; 
stroke:#840000; stroke-width:0.1524; stroke-opacity:1; 
stroke-linecap:round; stroke-linejoin:round;">
<path d="M47.6089 11.6841
L47.6089 16.7641
" />
</g>
<g style="fill:#006464; fill-opacity:0.0; 
stroke:#006464; stroke-width:0.1524; stroke-opacity:1; 
stroke-linecap:round; stroke-linejoin:round;">
</g>
<g style="fill:#006464; fill-opacity:0.0; 
stroke:#006464; stroke-width:0.1016; stroke-opacity:1; 
stroke-linecap:round; stroke-linejoin:round;">
<g transform="rotate(-90.000000 47.6089 11.5571)">
<text x="47.6089" y="11.8111"
textLength="1.7006" font-size="0.6773" lengthAdjust="spacingAndGlyphs"
text-anchor="start" opacity="0">GND</text>
</g>
<g class="stroked-text"><desc>GND</desc>
<path d="M47.3601 11.1700
L47.3359 11.2184
" />
<path d="M47.3359 11.2184
L47.3359 11.2910
" />
<path d="M47.3359 11.2910
L47.3601 11.3635
" />
<path d="M47.3601 11.3635
L47.4085 11.4119
" />
<path d="M47.4085 11.4119
L47.4569 11.4361
" />
<path d="M47.4569 11.4361
L47.5537 11.4603
" />
<path d="M47.5537 11.4603
L47.6262 11.4603
" />
<path d="M47.6262 11.4603
L47.7230 11.4361
" />
<path d="M47.7230 11.4361
L47.7714 11.4119
" />
<path d="M47.7714 11.4119
L47.8198 11.3635
" />
<path d="M47.8198 11.3635
L47.8439 11.2910
" />
<path d="M47.8439 11.2910
L47.8439 11.2426
" />
<path d="M47.8439 11.2426
L47.8198 11.1700
" />
<path d="M47.8198 11.1700
L47.7956 11.1458
" />
<path d="M47.7956 11.1458
L47.6262 11.1458
" />
<path d="M47.6262 11.1458
L47.6262 11.2426
" />
<path d="M47.8439 10.9281
L47.3359 10.9281
" />
<path d="M47.3359 10.9281
L47.8439 10.6378
" />
<path d="M47.8439 10.6378
L47.3359 10.6378
" />
<path d="M47.8439 10.3959
L47.3359 10.3959
" />
<path d="M47.3359 10.3959
L47.3359 10.2749
" />
<path d="M47.3359 10.2749
L47.3601 10.2024
" />
<path d="M47.3601 10.2024
L47.4085 10.1540
" />
<path d="M47.4085 10.1540
L47.4569 10.1298
" />
<path d="M47.4569 10.1298
L47.5537 10.1056
" />
<path d="M47.5537 10.1056
L47.6262 10.1056
" />
<path d="M47.6262 10.1056
L47.7230 10.1298
" />
<path d="M47.7230 10.1298
L47.7714 10.1540
" />
<path d="M47.7714 10.1540
L47.8198 10.2024
" />
<path d="M47.8198 10.2024
L47.8439 10.2749
" />
<path d="M47.8439 10.2749
L47.8439 10.3959
" />
</g></g>
<g style="fill:#A90000; fill-opacity:0.0; 
stroke:#A90000; stroke-width:0.1016; stroke-opacity:1; 
stroke-linecap:round; stroke-linejoin:round;">
</g>
<g style="fill:#A90000; fill-opacity:0.0; 
stroke:#A90000; stroke-width:0.1524; stroke-opacity:1; 
stroke-linecap:round; stroke-linejoin:round;">
<g transform="rotate(-90.000000 47.3549 14.2241)">
<text x="47.3549" y="14.2241"
textLength="1.3365" font-size="1.6933" lengthAdjust="spacingAndGlyphs"
text-anchor="middle" opacity="0">5</text>
</g>
<g class="stroked-text"><desc>5</desc>
<path d="M45.9294 13.9216
L45.9294 14.5264
" />
<path d="M45.9294 14.5264
L46.5342 14.5868
" />
<path d="M46.5342 14.5868
L46.4737 14.5264
" />
<path d="M46.4737 14.5264
L46.4132 14.4054
" />
<path d="M46.4132 14.4054
L46.4132 14.1030
" />
<path d="M46.4132 14.1030
L46.4737 13.9821
" />
<path d="M46.4737 13.9821
L46.5342 13.9216
" />
<path d="M46.5342 13.9216
L46.6551 13.8611
" />
<path d="M46.6551 13.8611
L46.9575 13.8611
" />
<path d="M46.9575 13.8611
L47.0785 13.9216
" />
<path d="M47.0785 13.9216
L47.1390 13.9821
" />
<path d="M47.1390 13.9821
L47.1994 14.1030
" />
<path d="M47.1994 14.1030
L47.1994 14.4054
" />
<path d="M47.1994 14.4054
L47.1390 14.5264
" />
<path d="M47.1390 14.5264
L47.0785 14.5868
" />
</g></g>
<g style="fill:#840000; fill-opacity:0.0; 
stroke:#840000; stroke-width:0.1524; stroke-opacity:1; 
stroke-linecap:round; stroke-linejoin:round;">
<path d="M50.1489 7.8741
L50.1489 1.5241
" />
</g>
<g style="fill:#006464; fill-opacity:0.0; 
stroke:#006464; stroke-width:0.1524; stroke-opacity:1; 
stroke-linecap:round; stroke-linejoin:round;">
</g>
<g style="fill:#006464; fill-opacity:0.0; 
stroke:#006464; stroke-width:0.1016; stroke-opacity:1; 
stroke-linecap:round; stroke-linejoin:round;">
<g transform="rotate(-90.000000 50.1489 8.0011)">
<text x="50.1489" y="8.2551"
textLength="2.1118" font-size="0.6773" lengthAdjust="spacingAndGlyphs"
text-anchor="end" opacity="0">MUTE</text>
</g>
<g class="stroked-text"><desc>MUTE</desc>
<path d="M50.3839 9.8395
L49.8759 9.8395
" />
<path d="M49.8759 9.8395
L50.2388 9.6702
" />
<path d="M50.2388 9.6702
L49.8759 9.5008
" />
<path d="M49.8759 9.5008
L50.3839 9.5008
" />
<path d="M49.8759 9.2589
L50.2872 9.2589
" />
<path d="M50.2872 9.2589
L50.3356 9.2347
" />
<path d="M50.3356 9.2347
L50.3598 9.2105
" />
<path d="M50.3598 9.2105
L50.3839 9.1621
" />
<path d="M50.3839 9.1621
L50.3839 9.0654
" />
<path d="M50.3839 9.0654
L50.3598 9.0170
" />
<path d="M50.3598 9.0170
L50.3356 8.9928
" />
<path d="M50.3356 8.9928
L50.2872 8.9686
" />
<path d="M50.2872 8.9686
L49.8759 8.9686
" />
<path d="M49.8759 8.7993
L49.8759 8.5090
" />
<path d="M50.3839 8.6541
L49.8759 8.6541
" />
<path d="M50.1178 8.3397
L50.1178 8.1704
" />
<path d="M50.3839 8.0978
L50.3839 8.3397
" />
<path d="M50.3839 8.3397
L49.8759 8.3397
" />
<path d="M49.8759 8.3397
L49.8759 8.0978
" />
</g></g>
<g style="fill:#A90000; fill-opacity:0.0; 
stroke:#A90000; stroke-width:0.1016; stroke-opacity:1; 
stroke-linecap:round; stroke-linejoin:round;">
</g>
<g style="fill:#A90000; fill-opacity:0.0; 
stroke:#A90000; stroke-width:0.1524; stroke-opacity:1; 
stroke-linecap:round; stroke-linejoin:round;">
<g transform="rotate(-90.000000 49.8949 4.6991)">
<text x="49.8949" y="4.6991"
textLength="1.3365" font-size="1.6933" lengthAdjust="spacingAndGlyphs"
text-anchor="middle" opacity="0">6</text>
</g>
<g class="stroked-text"><desc>6</desc>
<path d="M48.4694 4.4571
L48.4694 4.6990
" />
<path d="M48.4694 4.6990
L48.5299 4.8199
" />
<path d="M48.5299 4.8199
L48.5904 4.8804
" />
<path d="M48.5904 4.8804
L48.7718 5.0014
" />
<path d="M48.7718 5.0014
L49.0137 5.0618
" />
<path d="M49.0137 5.0618
L49.4975 5.0618
" />
<path d="M49.4975 5.0618
L49.6185 5.0014
" />
<path d="M49.6185 5.0014
L49.6790 4.9409
" />
<path d="M49.6790 4.9409
L49.7394 4.8199
" />
<path d="M49.7394 4.8199
L49.7394 4.5780
" />
<path d="M49.7394 4.5780
L49.6790 4.4571
" />
<path d="M49.6790 4.4571
L49.6185 4.3966
" />
<path d="M49.6185 4.3966
L49.4975 4.3361
" />
<path d="M49.4975 4.3361
L49.1951 4.3361
" />
<path d="M49.1951 4.3361
L49.0742 4.3966
" />
<path d="M49.0742 4.3966
L49.0137 4.4571
" />
<path d="M49.0137 4.4571
L48.9532 4.5780
" />
<path d="M48.9532 4.5780
L48.9532 4.8199
" />
<path d="M48.9532 4.8199
L49.0137 4.9409
" />
<path d="M49.0137 4.9409
L49.0742 5.0014
" />
<path d="M49.0742 5.0014
L49.1951 5.0618
" />
</g></g>
<g style="fill:#840000; fill-opacity:0.0; 
stroke:#840000; stroke-width:0.1524; stroke-opacity:1; 
stroke-linecap:round; stroke-linejoin:round;">
<path d="M42.5289 11.6841
L39.9889 11.6841
" />
</g>
<g style="fill:#006464; fill-opacity:0.0; 
stroke:#006464; stroke-width:0.1524; stroke-opacity:1; 
stroke-linecap:round; stroke-linejoin:round;">
<text x="42.6559" y="12.3191"
textLength="1.6994" font-size="1.6933" lengthAdjust="spacingAndGlyphs"
text-anchor="start" opacity="0">-</text>
<g class="stroked-text"><desc>-</desc>
<path d="M42.9582 11.7878
L43.9259 11.7878
" />
</g></g>
<g style="fill:#A90000; fill-opacity:0.0; 
stroke:#A90000; stroke-width:0.1524; stroke-opacity:1; 
stroke-linecap:round; stroke-linejoin:round;">
<text x="41.2589" y="11.4301"
textLength="1.3365" font-size="1.6933" lengthAdjust="spacingAndGlyphs"
text-anchor="middle" opacity="0">7</text>
<g class="stroked-text"><desc>7</desc>
<path d="M40.8356 10.0046
L41.6822 10.0046
" />
<path d="M41.6822 10.0046
L41.1380 11.2746
" />
</g></g>
<g style="fill:#840000; fill-opacity:0.0; 
stroke:#840000; stroke-width:0.1524; stroke-opacity:1; 
stroke-linecap:round; stroke-linejoin:round;">
<path d="M42.5289 6.6041
L39.9889 6.6041
" />
</g>
<g style="fill:#006464; fill-opacity:0.0; 
stroke:#006464; stroke-width:0.1524; stroke-opacity:1; 
stroke-linecap:round; stroke-linejoin:round;">
<text x="42.6559" y="7.2391"
textLength="1.6994" font-size="1.6933" lengthAdjust="spacingAndGlyphs"
text-anchor="start" opacity="0">+</text>
<g class="stroked-text"><desc>+</desc>
<path d="M42.9582 6.7078
L43.9259 6.7078
" />
<path d="M43.4420 7.1916
L43.4420 6.2240
" />
</g></g>
<g style="fill:#A90000; fill-opacity:0.0; 
stroke:#A90000; stroke-width:0.1524; stroke-opacity:1; 
stroke-linecap:round; stroke-linejoin:round;">
<text x="41.2589" y="6.3501"
textLength="1.3365" font-size="1.6933" lengthAdjust="spacingAndGlyphs"
text-anchor="middle" opacity="0">8</text>
<g class="stroked-text"><desc>8</desc>
<path d="M41.1380 5.4689
L41.0170 5.4084
" />
<path d="M41.0170 5.4084
L40.9565 5.3480
" />
<path d="M40.9565 5.3480
L40.8961 5.2270
" />
<path d="M40.8961 5.2270
L40.8961 5.1665
" />
<path d="M40.8961 5.1665
L40.9565 5.0456
" />
<path d="M40.9565 5.0456
L41.0170 4.9851
" />
<path d="M41.0170 4.9851
L41.1380 4.9246
" />
<path d="M41.1380 4.9246
L41.3799 4.9246
" />
<path d="M41.3799 4.9246
L41.5008 4.9851
" />
<path d="M41.5008 4.9851
L41.5613 5.0456
" />
<path d="M41.5613 5.0456
L41.6218 5.1665
" />
<path d="M41.6218 5.1665
L41.6218 5.2270
" />
<path d="M41.6218 5.2270
L41.5613 5.3480
" />
<path d="M41.5613 5.3480
L41.5008 5.4084
" />
<path d="M41.5008 5.4084
L41.3799 5.4689
" />
<path d="M41.3799 5.4689
L41.1380 5.4689
" />
<path d="M41.1380 5.4689
L41.0170 5.5294
" />
<path d="M41.0170 5.5294
L40.9565 5.5899
" />
<path d="M40.9565 5.5899
L40.8961 5.7108
" />
<path d="M40.8961 5.7108
L40.8961 5.9527
" />
<path d="M40.8961 5.9527
L40.9565 6.0737
" />
<path d="M40.9565 6.0737
L41.0170 6.1342
" />
<path d="M41.0170 6.1342
L41.1380 6.1946
" />
<path d="M41.1380 6.1946
L41.3799 6.1946
" />
<path d="M41.3799 6.1946
L41.5008 6.1342
" />
<path d="M41.5008 6.1342
L41.5613 6.0737
" />
<path d="M41.5613 6.0737
L41.6218 5.9527
" />
<path d="M41.6218 5.9527
L41.6218 5.7108
" />
<path d="M41.6218 5.7108
L41.5613 5.5899
" />
<path d="M41.5613 5.5899
L41.5008 5.5294
" />
<path d="M41.5008 5.5294
L41.3799 5.4689
" />
</g></g>
<g style="fill:#840000; fill-opacity:0.0; 
stroke:#840000; stroke-width:0.1524; stroke-opacity:1; 
stroke-linecap:round; stroke-linejoin:round;">
<path d="M47.6089 6.6041
L47.6089 1.5241
" />
</g>
<g style="fill:#006464; fill-opacity:0.0; 
stroke:#006464; stroke-width:0.1524; stroke-opacity:1; 
stroke-linecap:round; stroke-linejoin:round;">
</g>
<g style="fill:#006464; fill-opacity:0.0; 
stroke:#006464; stroke-width:0.1016; stroke-opacity:1; 
stroke-linecap:round; stroke-linejoin:round;">
<g transform="rotate(-90.000000 47.6089 6.7311)">
<text x="47.6089" y="6.9851"
textLength="1.9666" font-size="0.6773" lengthAdjust="spacingAndGlyphs"
text-anchor="end" opacity="0">STBY</text>
</g>
<g class="stroked-text"><desc>STBY</desc>
<path d="M47.8198 8.4485
L47.8439 8.3759
" />
<path d="M47.8439 8.3759
L47.8439 8.2550
" />
<path d="M47.8439 8.2550
L47.8198 8.2066
" />
<path d="M47.8198 8.2066
L47.7956 8.1824
" />
<path d="M47.7956 8.1824
L47.7472 8.1582
" />
<path d="M47.7472 8.1582
L47.6988 8.1582
" />
<path d="M47.6988 8.1582
L47.6504 8.1824
" />
<path d="M47.6504 8.1824
L47.6262 8.2066
" />
<path d="M47.6262 8.2066
L47.6020 8.2550
" />
<path d="M47.6020 8.2550
L47.5778 8.3517
" />
<path d="M47.5778 8.3517
L47.5537 8.4001
" />
<path d="M47.5537 8.4001
L47.5295 8.4243
" />
<path d="M47.5295 8.4243
L47.4811 8.4485
" />
<path d="M47.4811 8.4485
L47.4327 8.4485
" />
<path d="M47.4327 8.4485
L47.3843 8.4243
" />
<path d="M47.3843 8.4243
L47.3601 8.4001
" />
<path d="M47.3601 8.4001
L47.3359 8.3517
" />
<path d="M47.3359 8.3517
L47.3359 8.2308
" />
<path d="M47.3359 8.2308
L47.3601 8.1582
" />
<path d="M47.3359 8.0131
L47.3359 7.7228
" />
<path d="M47.8439 7.8679
L47.3359 7.8679
" />
<path d="M47.5778 7.3842
L47.6020 7.3116
" />
<path d="M47.6020 7.3116
L47.6262 7.2874
" />
<path d="M47.6262 7.2874
L47.6746 7.2632
" />
<path d="M47.6746 7.2632
L47.7472 7.2632
" />
<path d="M47.7472 7.2632
L47.7956 7.2874
" />
<path d="M47.7956 7.2874
L47.8198 7.3116
" />
<path d="M47.8198 7.3116
L47.8439 7.3600
" />
<path d="M47.8439 7.3600
L47.8439 7.5535
" />
<path d="M47.8439 7.5535
L47.3359 7.5535
" />
<path d="M47.3359 7.5535
L47.3359 7.3842
" />
<path d="M47.3359 7.3842
L47.3601 7.3358
" />
<path d="M47.3601 7.3358
L47.3843 7.3116
" />
<path d="M47.3843 7.3116
L47.4327 7.2874
" />
<path d="M47.4327 7.2874
L47.4811 7.2874
" />
<path d="M47.4811 7.2874
L47.5295 7.3116
" />
<path d="M47.5295 7.3116
L47.5537 7.3358
" />
<path d="M47.5537 7.3358
L47.5778 7.3842
" />
<path d="M47.5778 7.3842
L47.5778 7.5535
" />
<path d="M47.6020 6.9487
L47.8439 6.9487
" />
<path d="M47.3359 7.1181
L47.6020 6.9487
" />
<path d="M47.6020 6.9487
L47.3359 6.7794
" />
</g></g>
<g style="fill:#A90000; fill-opacity:0.0; 
stroke:#A90000; stroke-width:0.1016; stroke-opacity:1; 
stroke-linecap:round; stroke-linejoin:round;">
</g>
<g style="fill:#A90000; fill-opacity:0.0; 
stroke:#A90000; stroke-width:0.1524; stroke-opacity:1; 
stroke-linecap:round; stroke-linejoin:round;">
<g transform="rotate(-90.000000 47.3549 4.0641)">
<text x="47.3549" y="4.0641"
textLength="1.3365" font-size="1.6933" lengthAdjust="spacingAndGlyphs"
text-anchor="middle" opacity="0">9</text>
</g>
<g class="stroked-text"><desc>9</desc>
<path d="M47.1994 4.3059
L47.1994 4.0640
" />
<path d="M47.1994 4.0640
L47.1390 3.9430
" />
<path d="M47.1390 3.9430
L47.0785 3.8826
" />
<path d="M47.0785 3.8826
L46.8970 3.7616
" />
<path d="M46.8970 3.7616
L46.6551 3.7011
" />
<path d="M46.6551 3.7011
L46.1713 3.7011
" />
<path d="M46.1713 3.7011
L46.0504 3.7616
" />
<path d="M46.0504 3.7616
L45.9899 3.8221
" />
<path d="M45.9899 3.8221
L45.9294 3.9430
" />
<path d="M45.9294 3.9430
L45.9294 4.1849
" />
<path d="M45.9294 4.1849
L45.9899 4.3059
" />
<path d="M45.9899 4.3059
L46.0504 4.3664
" />
<path d="M46.0504 4.3664
L46.1713 4.4268
" />
<path d="M46.1713 4.4268
L46.4737 4.4268
" />
<path d="M46.4737 4.4268
L46.5947 4.3664
" />
<path d="M46.5947 4.3664
L46.6551 4.3059
" />
<path d="M46.6551 4.3059
L46.7156 4.1849
" />
<path d="M46.7156 4.1849
L46.7156 3.9430
" />
<path d="M46.7156 3.9430
L46.6551 3.8221
" />
<path d="M46.6551 3.8221
L46.5947 3.7616
" />
<path d="M46.5947 3.7616
L46.4737 3.7011
" />
</g></g>
<g style="fill:#840084; fill-opacity:0.0; 
stroke:#840084; stroke-width:0.1524; stroke-opacity:1; 
stroke-linecap:round; stroke-linejoin:round;">
</g>
<g style="fill:#006464; fill-opacity:0.0; 
stroke:#006464; stroke-width:0.1524; stroke-opacity:1; 
stroke-linecap:round; stroke-linejoin:round;">
</g>
<g style="fill:#006464; fill-opacity:0.0; 
stroke:#006464; stroke-width:0.1588; stroke-opacity:1; 
stroke-linecap:round; stroke-linejoin:round;">
<text x="55.2289" y="3.4291"
textLength="3.6507" font-size="1.6933" lengthAdjust="spacingAndGlyphs"
text-anchor="middle" opacity="0">U?A</text>
<g class="stroked-text"><desc>U?A</desc>
<path d="M53.7774 2.1116
L53.7774 3.1397
" />
<path d="M53.7774 3.1397
L53.8379 3.2607
" />
<path d="M53.8379 3.2607
L53.8984 3.3212
" />
<path d="M53.8984 3.3212
L54.0193 3.3816
" />
<path d="M54.0193 3.3816
L54.2612 3.3816
" />
<path d="M54.2612 3.3816
L54.3822 3.3212
" />
<path d="M54.3822 3.3212
L54.4427 3.2607
" />
<path d="M54.4427 3.2607
L54.5031 3.1397
" />
<path d="M54.5031 3.1397
L54.5031 2.1116
" />
<path d="M55.2894 3.2607
L55.3498 3.3212
" />
<path d="M55.3498 3.3212
L55.2894 3.3816
" />
<path d="M55.2894 3.3816
L55.2289 3.3212
" />
<path d="M55.2289 3.3212
L55.2894 3.2607
" />
<path d="M55.2894 3.2607
L55.2894 3.3816
" />
<path d="M55.0475 2.1721
L55.1684 2.1116
" />
<path d="M55.1684 2.1116
L55.4708 2.1116
" />
<path d="M55.4708 2.1116
L55.5917 2.1721
" />
<path d="M55.5917 2.1721
L55.6522 2.2931
" />
<path d="M55.6522 2.2931
L55.6522 2.4140
" />
<path d="M55.6522 2.4140
L55.5917 2.5350
" />
<path d="M55.5917 2.5350
L55.5313 2.5954
" />
<path d="M55.5313 2.5954
L55.4103 2.6559
" />
<path d="M55.4103 2.6559
L55.3498 2.7164
" />
<path d="M55.3498 2.7164
L55.2894 2.8373
" />
<path d="M55.2894 2.8373
L55.2894 2.8978
" />
<path d="M56.1361 3.0188
L56.7408 3.0188
" />
<path d="M56.0151 3.3816
L56.4384 2.1116
" />
<path d="M56.4384 2.1116
L56.8618 3.3816
" />
</g><text x="55.2289" y="5.9691"
textLength="7.4605" font-size="1.6933" lengthAdjust="spacingAndGlyphs"
text-anchor="middle" opacity="0">LM1876</text>
<g class="stroked-text"><desc>LM1876</desc>
<path d="M52.4773 5.9216
L51.8725 5.9216
" />
<path d="M51.8725 5.9216
L51.8725 4.6516
" />
<path d="M52.9006 5.9216
L52.9006 4.6516
" />
<path d="M52.9006 4.6516
L53.3240 5.5588
" />
<path d="M53.3240 5.5588
L53.7473 4.6516
" />
<path d="M53.7473 4.6516
L53.7473 5.9216
" />
<path d="M55.0173 5.9216
L54.2916 5.9216
" />
<path d="M54.6544 5.9216
L54.6544 4.6516
" />
<path d="M54.6544 4.6516
L54.5335 4.8331
" />
<path d="M54.5335 4.8331
L54.4125 4.9540
" />
<path d="M54.4125 4.9540
L54.2916 5.0145
" />
<path d="M55.7430 5.1959
L55.6220 5.1354
" />
<path d="M55.6220 5.1354
L55.5615 5.0750
" />
<path d="M55.5615 5.0750
L55.5011 4.9540
" />
<path d="M55.5011 4.9540
L55.5011 4.8935
" />
<path d="M55.5011 4.8935
L55.5615 4.7726
" />
<path d="M55.5615 4.7726
L55.6220 4.7121
" />
<path d="M55.6220 4.7121
L55.7430 4.6516
" />
<path d="M55.7430 4.6516
L55.9849 4.6516
" />
<path d="M55.9849 4.6516
L56.1058 4.7121
" />
<path d="M56.1058 4.7121
L56.1663 4.7726
" />
<path d="M56.1663 4.7726
L56.2268 4.8935
" />
<path d="M56.2268 4.8935
L56.2268 4.9540
" />
<path d="M56.2268 4.9540
L56.1663 5.0750
" />
<path d="M56.1663 5.0750
L56.1058 5.1354
" />
<path d="M56.1058 5.1354
L55.9849 5.1959
" />
<path d="M55.9849 5.1959
L55.7430 5.1959
" />
<path d="M55.7430 5.1959
L55.6220 5.2564
" />
<path d="M55.6220 5.2564
L55.5615 5.3169
" />
<path d="M55.5615 5.3169
L55.5011 5.4378
" />
<path d="M55.5011 5.4378
L55.5011 5.6797
" />
<path d="M55.5011 5.6797
L55.5615 5.8007
" />
<path d="M55.5615 5.8007
L55.6220 5.8612
" />
<path d="M55.6220 5.8612
L55.7430 5.9216
" />
<path d="M55.7430 5.9216
L55.9849 5.9216
" />
<path d="M55.9849 5.9216
L56.1058 5.8612
" />
<path d="M56.1058 5.8612
L56.1663 5.8007
" />
<path d="M56.1663 5.8007
L56.2268 5.6797
" />
<path d="M56.2268 5.6797
L56.2268 5.4378
" />
<path d="M56.2268 5.4378
L56.1663 5.3169
" />
<path d="M56.1663 5.3169
L56.1058 5.2564
" />
<path d="M56.1058 5.2564
L55.9849 5.1959
" />
<path d="M56.6501 4.6516
L57.4967 4.6516
" />
<path d="M57.4967 4.6516
L56.9525 5.9216
" />
<path d="M58.5248 4.6516
L58.2829 4.6516
" />
<path d="M58.2829 4.6516
L58.1620 4.7121
" />
<path d="M58.1620 4.7121
L58.1015 4.7726
" />
<path d="M58.1015 4.7726
L57.9805 4.9540
" />
<path d="M57.9805 4.9540
L57.9201 5.1959
" />
<path d="M57.9201 5.1959
L57.9201 5.6797
" />
<path d="M57.9201 5.6797
L57.9805 5.8007
" />
<path d="M57.9805 5.8007
L58.0410 5.8612
" />
<path d="M58.0410 5.8612
L58.1620 5.9216
" />
<path d="M58.1620 5.9216
L58.4039 5.9216
" />
<path d="M58.4039 5.9216
L58.5248 5.8612
" />
<path d="M58.5248 5.8612
L58.5853 5.8007
" />
<path d="M58.5853 5.8007
L58.6458 5.6797
" />
<path d="M58.6458 5.6797
L58.6458 5.3773
" />
<path d="M58.6458 5.3773
L58.5853 5.2564
" />
<path d="M58.5853 5.2564
L58.5248 5.1959
" />
<path d="M58.5248 5.1959
L58.4039 5.1354
" />
<path d="M58.4039 5.1354
L58.1620 5.1354
" />
<path d="M58.1620 5.1354
L58.0410 5.1959
" />
<path d="M58.0410 5.1959
L57.9805 5.2564
" />
<path d="M57.9805 5.2564
L57.9201 5.3773
" />
</g></g>
<g style="fill:#840084; fill-opacity:0.0; 
stroke:#840084; stroke-width:0.1588; stroke-opacity:1; 
stroke-linecap:round; stroke-linejoin:round;">
<text x="47.6883" y="9.7791"
textLength="79.4807" font-size="1.6933" lengthAdjust="spacingAndGlyphs"
text-anchor="middle" opacity="0">Package_TO_SOT_THT:TO-220-15_P2.54x2.54mm_StaggerOdd_Lead4.58mm_Vertical</text>
<g class="stroked-text"><desc>Package_TO_SOT_THT:TO-220-15_P2.54x2.54mm_StaggerOdd_Lead4.58mm_Vertical</desc>
<path d="M8.3143 9.7316
L8.4730 8.4616
" />
<path d="M8.4730 8.4616
L8.9568 8.4616
" />
<path d="M8.9568 8.4616
L9.0702 8.5221
" />
<path d="M9.0702 8.5221
L9.1231 8.5826
" />
<path d="M9.1231 8.5826
L9.1685 8.7035
" />
<path d="M9.1685 8.7035
L9.1458 8.8850
" />
<path d="M9.1458 8.8850
L9.0702 9.0059
" />
<path d="M9.0702 9.0059
L9.0022 9.0664
" />
<path d="M9.0022 9.0664
L8.8737 9.1269
" />
<path d="M8.8737 9.1269
L8.3899 9.1269
" />
<path d="M10.1210 9.7316
L10.2041 9.0664
" />
<path d="M10.2041 9.0664
L10.1588 8.9454
" />
<path d="M10.1588 8.9454
L10.0454 8.8850
" />
<path d="M10.0454 8.8850
L9.8035 8.8850
" />
<path d="M9.8035 8.8850
L9.6749 8.9454
" />
<path d="M10.1285 9.6712
L10.0000 9.7316
" />
<path d="M10.0000 9.7316
L9.6976 9.7316
" />
<path d="M9.6976 9.7316
L9.5842 9.6712
" />
<path d="M9.5842 9.6712
L9.5389 9.5502
" />
<path d="M9.5389 9.5502
L9.5540 9.4292
" />
<path d="M9.5540 9.4292
L9.6296 9.3083
" />
<path d="M9.6296 9.3083
L9.7581 9.2478
" />
<path d="M9.7581 9.2478
L10.0605 9.2478
" />
<path d="M10.0605 9.2478
L10.1890 9.1873
" />
<path d="M11.2700 9.6712
L11.1415 9.7316
" />
<path d="M11.1415 9.7316
L10.8996 9.7316
" />
<path d="M10.8996 9.7316
L10.7862 9.6712
" />
<path d="M10.7862 9.6712
L10.7333 9.6107
" />
<path d="M10.7333 9.6107
L10.6879 9.4897
" />
<path d="M10.6879 9.4897
L10.7333 9.1269
" />
<path d="M10.7333 9.1269
L10.8089 9.0059
" />
<path d="M10.8089 9.0059
L10.8769 8.9454
" />
<path d="M10.8769 8.9454
L11.0054 8.8850
" />
<path d="M11.0054 8.8850
L11.2473 8.8850
" />
<path d="M11.2473 8.8850
L11.3607 8.9454
" />
<path d="M11.7992 9.7316
L11.9579 8.4616
" />
<path d="M11.9806 9.2478
L12.2830 9.7316
" />
<path d="M12.3888 8.8850
L11.8445 9.3688
" />
<path d="M13.3640 9.7316
L13.4471 9.0664
" />
<path d="M13.4471 9.0664
L13.4018 8.9454
" />
<path d="M13.4018 8.9454
L13.2884 8.8850
" />
<path d="M13.2884 8.8850
L13.0465 8.8850
" />
<path d="M13.0465 8.8850
L12.9179 8.9454
" />
<path d="M13.3715 9.6712
L13.2430 9.7316
" />
<path d="M13.2430 9.7316
L12.9406 9.7316
" />
<path d="M12.9406 9.7316
L12.8272 9.6712
" />
<path d="M12.8272 9.6712
L12.7819 9.5502
" />
<path d="M12.7819 9.5502
L12.7970 9.4292
" />
<path d="M12.7970 9.4292
L12.8726 9.3083
" />
<path d="M12.8726 9.3083
L13.0011 9.2478
" />
<path d="M13.0011 9.2478
L13.3035 9.2478
" />
<path d="M13.3035 9.2478
L13.4320 9.1873
" />
<path d="M14.6113 8.8850
L14.4828 9.9131
" />
<path d="M14.4828 9.9131
L14.4072 10.0340
" />
<path d="M14.4072 10.0340
L14.3391 10.0945
" />
<path d="M14.3391 10.0945
L14.2106 10.1550
" />
<path d="M14.2106 10.1550
L14.0292 10.1550
" />
<path d="M14.0292 10.1550
L13.9158 10.0945
" />
<path d="M14.5130 9.6712
L14.3845 9.7316
" />
<path d="M14.3845 9.7316
L14.1426 9.7316
" />
<path d="M14.1426 9.7316
L14.0292 9.6712
" />
<path d="M14.0292 9.6712
L13.9763 9.6107
" />
<path d="M13.9763 9.6107
L13.9309 9.4897
" />
<path d="M13.9309 9.4897
L13.9763 9.1269
" />
<path d="M13.9763 9.1269
L14.0519 9.0059
" />
<path d="M14.0519 9.0059
L14.1199 8.9454
" />
<path d="M14.1199 8.9454
L14.2484 8.8850
" />
<path d="M14.2484 8.8850
L14.4903 8.8850
" />
<path d="M14.4903 8.8850
L14.6037 8.9454
" />
<path d="M15.5411 9.6712
L15.4126 9.7316
" />
<path d="M15.4126 9.7316
L15.1707 9.7316
" />
<path d="M15.1707 9.7316
L15.0573 9.6712
" />
<path d="M15.0573 9.6712
L15.0120 9.5502
" />
<path d="M15.0120 9.5502
L15.0725 9.0664
" />
<path d="M15.0725 9.0664
L15.1480 8.9454
" />
<path d="M15.1480 8.9454
L15.2766 8.8850
" />
<path d="M15.2766 8.8850
L15.5185 8.8850
" />
<path d="M15.5185 8.8850
L15.6319 8.9454
" />
<path d="M15.6319 8.9454
L15.6772 9.0664
" />
<path d="M15.6772 9.0664
L15.6621 9.1873
" />
<path d="M15.6621 9.1873
L15.0422 9.3083
" />
<path d="M15.8133 9.8526
L16.7809 9.8526
" />
<path d="M17.0530 8.4616
L17.7787 8.4616
" />
<path d="M17.2571 9.7316
L17.4159 8.4616
" />
<path d="M18.4364 8.4616
L18.6783 8.4616
" />
<path d="M18.6783 8.4616
L18.7917 8.5221
" />
<path d="M18.7917 8.5221
L18.8976 8.6431
" />
<path d="M18.8976 8.6431
L18.9278 8.8850
" />
<path d="M18.9278 8.8850
L18.8749 9.3083
" />
<path d="M18.8749 9.3083
L18.7842 9.5502
" />
<path d="M18.7842 9.5502
L18.6481 9.6712
" />
<path d="M18.6481 9.6712
L18.5196 9.7316
" />
<path d="M18.5196 9.7316
L18.2777 9.7316
" />
<path d="M18.2777 9.7316
L18.1643 9.6712
" />
<path d="M18.1643 9.6712
L18.0585 9.5502
" />
<path d="M18.0585 9.5502
L18.0282 9.3083
" />
<path d="M18.0282 9.3083
L18.0811 8.8850
" />
<path d="M18.0811 8.8850
L18.1718 8.6431
" />
<path d="M18.1718 8.6431
L18.3079 8.5221
" />
<path d="M18.3079 8.5221
L18.4364 8.4616
" />
<path d="M19.0412 9.8526
L20.0088 9.8526
" />
<path d="M20.2507 9.6712
L20.4245 9.7316
" />
<path d="M20.4245 9.7316
L20.7269 9.7316
" />
<path d="M20.7269 9.7316
L20.8554 9.6712
" />
<path d="M20.8554 9.6712
L20.9235 9.6107
" />
<path d="M20.9235 9.6107
L20.9990 9.4897
" />
<path d="M20.9990 9.4897
L21.0142 9.3688
" />
<path d="M21.0142 9.3688
L20.9688 9.2478
" />
<path d="M20.9688 9.2478
L20.9159 9.1873
" />
<path d="M20.9159 9.1873
L20.8025 9.1269
" />
<path d="M20.8025 9.1269
L20.5682 9.0664
" />
<path d="M20.5682 9.0664
L20.4548 9.0059
" />
<path d="M20.4548 9.0059
L20.4018 8.9454
" />
<path d="M20.4018 8.9454
L20.3565 8.8245
" />
<path d="M20.3565 8.8245
L20.3716 8.7035
" />
<path d="M20.3716 8.7035
L20.4472 8.5826
" />
<path d="M20.4472 8.5826
L20.5152 8.5221
" />
<path d="M20.5152 8.5221
L20.6438 8.4616
" />
<path d="M20.6438 8.4616
L20.9461 8.4616
" />
<path d="M20.9461 8.4616
L21.1200 8.5221
" />
<path d="M21.9062 8.4616
L22.1481 8.4616
" />
<path d="M22.1481 8.4616
L22.2615 8.5221
" />
<path d="M22.2615 8.5221
L22.3674 8.6431
" />
<path d="M22.3674 8.6431
L22.3976 8.8850
" />
<path d="M22.3976 8.8850
L22.3447 9.3083
" />
<path d="M22.3447 9.3083
L22.2540 9.5502
" />
<path d="M22.2540 9.5502
L22.1179 9.6712
" />
<path d="M22.1179 9.6712
L21.9894 9.7316
" />
<path d="M21.9894 9.7316
L21.7475 9.7316
" />
<path d="M21.7475 9.7316
L21.6341 9.6712
" />
<path d="M21.6341 9.6712
L21.5283 9.5502
" />
<path d="M21.5283 9.5502
L21.4980 9.3083
" />
<path d="M21.4980 9.3083
L21.5509 8.8850
" />
<path d="M21.5509 8.8850
L21.6416 8.6431
" />
<path d="M21.6416 8.6431
L21.7777 8.5221
" />
<path d="M21.7777 8.5221
L21.9062 8.4616
" />
<path d="M22.8058 8.4616
L23.5315 8.4616
" />
<path d="M23.0099 9.7316
L23.1687 8.4616
" />
<path d="M23.4711 9.8526
L24.4387 9.8526
" />
<path d="M24.7108 8.4616
L25.4365 8.4616
" />
<path d="M24.9149 9.7316
L25.0737 8.4616
" />
<path d="M25.6936 9.7316
L25.8523 8.4616
" />
<path d="M25.7767 9.0664
L26.5024 9.0664
" />
<path d="M26.4193 9.7316
L26.5780 8.4616
" />
<path d="M26.9938 8.4616
L27.7195 8.4616
" />
<path d="M27.1979 9.7316
L27.3567 8.4616
" />
<path d="M27.9917 9.6107
L28.0446 9.6712
" />
<path d="M28.0446 9.6712
L27.9766 9.7316
" />
<path d="M27.9766 9.7316
L27.9237 9.6712
" />
<path d="M27.9237 9.6712
L27.9917 9.6107
" />
<path d="M27.9917 9.6107
L27.9766 9.7316
" />
<path d="M28.0748 8.9454
L28.1278 9.0059
" />
<path d="M28.1278 9.0059
L28.0597 9.0664
" />
<path d="M28.0597 9.0664
L28.0068 9.0059
" />
<path d="M28.0068 9.0059
L28.0748 8.9454
" />
<path d="M28.0748 8.9454
L28.0597 9.0664
" />
<path d="M28.5511 8.4616
L29.2768 8.4616
" />
<path d="M28.7552 9.7316
L28.9140 8.4616
" />
<path d="M29.9345 8.4616
L30.1764 8.4616
" />
<path d="M30.1764 8.4616
L30.2898 8.5221
" />
<path d="M30.2898 8.5221
L30.3957 8.6431
" />
<path d="M30.3957 8.6431
L30.4259 8.8850
" />
<path d="M30.4259 8.8850
L30.3730 9.3083
" />
<path d="M30.3730 9.3083
L30.2823 9.5502
" />
<path d="M30.2823 9.5502
L30.1462 9.6712
" />
<path d="M30.1462 9.6712
L30.0177 9.7316
" />
<path d="M30.0177 9.7316
L29.7758 9.7316
" />
<path d="M29.7758 9.7316
L29.6624 9.6712
" />
<path d="M29.6624 9.6712
L29.5566 9.5502
" />
<path d="M29.5566 9.5502
L29.5263 9.3083
" />
<path d="M29.5263 9.3083
L29.5792 8.8850
" />
<path d="M29.5792 8.8850
L29.6699 8.6431
" />
<path d="M29.6699 8.6431
L29.8060 8.5221
" />
<path d="M29.8060 8.5221
L29.9345 8.4616
" />
<path d="M30.9172 9.2478
L31.8849 9.2478
" />
<path d="M32.5123 8.5826
L32.5804 8.5221
" />
<path d="M32.5804 8.5221
L32.7089 8.4616
" />
<path d="M32.7089 8.4616
L33.0113 8.4616
" />
<path d="M33.0113 8.4616
L33.1246 8.5221
" />
<path d="M33.1246 8.5221
L33.1776 8.5826
" />
<path d="M33.1776 8.5826
L33.2229 8.7035
" />
<path d="M33.2229 8.7035
L33.2078 8.8245
" />
<path d="M33.2078 8.8245
L33.1246 9.0059
" />
<path d="M33.1246 9.0059
L32.3082 9.7316
" />
<path d="M32.3082 9.7316
L33.0944 9.7316
" />
<path d="M33.7143 8.5826
L33.7824 8.5221
" />
<path d="M33.7824 8.5221
L33.9109 8.4616
" />
<path d="M33.9109 8.4616
L34.2133 8.4616
" />
<path d="M34.2133 8.4616
L34.3266 8.5221
" />
<path d="M34.3266 8.5221
L34.3796 8.5826
" />
<path d="M34.3796 8.5826
L34.4249 8.7035
" />
<path d="M34.4249 8.7035
L34.4098 8.8245
" />
<path d="M34.4098 8.8245
L34.3266 9.0059
" />
<path d="M34.3266 9.0059
L33.5102 9.7316
" />
<path d="M33.5102 9.7316
L34.2964 9.7316
" />
<path d="M35.2338 8.4616
L35.3548 8.4616
" />
<path d="M35.3548 8.4616
L35.4682 8.5221
" />
<path d="M35.4682 8.5221
L35.5211 8.5826
" />
<path d="M35.5211 8.5826
L35.5664 8.7035
" />
<path d="M35.5664 8.7035
L35.5967 8.9454
" />
<path d="M35.5967 8.9454
L35.5589 9.2478
" />
<path d="M35.5589 9.2478
L35.4682 9.4897
" />
<path d="M35.4682 9.4897
L35.3926 9.6107
" />
<path d="M35.3926 9.6107
L35.3245 9.6712
" />
<path d="M35.3245 9.6712
L35.1960 9.7316
" />
<path d="M35.1960 9.7316
L35.0751 9.7316
" />
<path d="M35.0751 9.7316
L34.9617 9.6712
" />
<path d="M34.9617 9.6712
L34.9088 9.6107
" />
<path d="M34.9088 9.6107
L34.8634 9.4897
" />
<path d="M34.8634 9.4897
L34.8332 9.2478
" />
<path d="M34.8332 9.2478
L34.8710 8.9454
" />
<path d="M34.8710 8.9454
L34.9617 8.7035
" />
<path d="M34.9617 8.7035
L35.0373 8.5826
" />
<path d="M35.0373 8.5826
L35.1053 8.5221
" />
<path d="M35.1053 8.5221
L35.2338 8.4616
" />
<path d="M36.0956 9.2478
L37.0633 9.2478
" />
<path d="M38.2728 9.7316
L37.5471 9.7316
" />
<path d="M37.9100 9.7316
L38.0687 8.4616
" />
<path d="M38.0687 8.4616
L37.9251 8.6431
" />
<path d="M37.9251 8.6431
L37.7890 8.7640
" />
<path d="M37.7890 8.7640
L37.6605 8.8245
" />
<path d="M39.5731 8.4616
L38.9683 8.4616
" />
<path d="M38.9683 8.4616
L38.8323 9.0664
" />
<path d="M38.8323 9.0664
L38.9003 9.0059
" />
<path d="M38.9003 9.0059
L39.0288 8.9454
" />
<path d="M39.0288 8.9454
L39.3312 8.9454
" />
<path d="M39.3312 8.9454
L39.4446 9.0059
" />
<path d="M39.4446 9.0059
L39.4975 9.0664
" />
<path d="M39.4975 9.0664
L39.5428 9.1873
" />
<path d="M39.5428 9.1873
L39.5050 9.4897
" />
<path d="M39.5050 9.4897
L39.4295 9.6107
" />
<path d="M39.4295 9.6107
L39.3614 9.6712
" />
<path d="M39.3614 9.6712
L39.2329 9.7316
" />
<path d="M39.2329 9.7316
L38.9305 9.7316
" />
<path d="M38.9305 9.7316
L38.8171 9.6712
" />
<path d="M38.8171 9.6712
L38.7642 9.6107
" />
<path d="M39.6941 9.8526
L40.6617 9.8526
" />
<path d="M40.9565 9.7316
L41.1152 8.4616
" />
<path d="M41.1152 8.4616
L41.5990 8.4616
" />
<path d="M41.5990 8.4616
L41.7124 8.5221
" />
<path d="M41.7124 8.5221
L41.7653 8.5826
" />
<path d="M41.7653 8.5826
L41.8107 8.7035
" />
<path d="M41.8107 8.7035
L41.7880 8.8850
" />
<path d="M41.7880 8.8850
L41.7124 9.0059
" />
<path d="M41.7124 9.0059
L41.6444 9.0664
" />
<path d="M41.6444 9.0664
L41.5159 9.1269
" />
<path d="M41.5159 9.1269
L41.0321 9.1269
" />
<path d="M42.3020 8.5826
L42.3701 8.5221
" />
<path d="M42.3701 8.5221
L42.4986 8.4616
" />
<path d="M42.4986 8.4616
L42.8010 8.4616
" />
<path d="M42.8010 8.4616
L42.9143 8.5221
" />
<path d="M42.9143 8.5221
L42.9673 8.5826
" />
<path d="M42.9673 8.5826
L43.0126 8.7035
" />
<path d="M43.0126 8.7035
L42.9975 8.8245
" />
<path d="M42.9975 8.8245
L42.9143 9.0059
" />
<path d="M42.9143 9.0059
L42.0979 9.7316
" />
<path d="M42.0979 9.7316
L42.8841 9.7316
" />
<path d="M43.4360 9.6107
L43.4889 9.6712
" />
<path d="M43.4889 9.6712
L43.4209 9.7316
" />
<path d="M43.4209 9.7316
L43.3680 9.6712
" />
<path d="M43.3680 9.6712
L43.4360 9.6107
" />
<path d="M43.4360 9.6107
L43.4209 9.7316
" />
<path d="M44.7816 8.4616
L44.1768 8.4616
" />
<path d="M44.1768 8.4616
L44.0408 9.0664
" />
<path d="M44.0408 9.0664
L44.1088 9.0059
" />
<path d="M44.1088 9.0059
L44.2373 8.9454
" />
<path d="M44.2373 8.9454
L44.5397 8.9454
" />
<path d="M44.5397 8.9454
L44.6531 9.0059
" />
<path d="M44.6531 9.0059
L44.7060 9.0664
" />
<path d="M44.7060 9.0664
L44.7513 9.1873
" />
<path d="M44.7513 9.1873
L44.7135 9.4897
" />
<path d="M44.7135 9.4897
L44.6380 9.6107
" />
<path d="M44.6380 9.6107
L44.5699 9.6712
" />
<path d="M44.5699 9.6712
L44.4414 9.7316
" />
<path d="M44.4414 9.7316
L44.1390 9.7316
" />
<path d="M44.1390 9.7316
L44.0256 9.6712
" />
<path d="M44.0256 9.6712
L43.9727 9.6107
" />
<path d="M45.8702 8.8850
L45.7644 9.7316
" />
<path d="M45.6283 8.4012
L45.2125 9.3083
" />
<path d="M45.2125 9.3083
L45.9987 9.3083
" />
<path d="M46.3011 9.7316
L47.0722 8.8850
" />
<path d="M46.4070 8.8850
L46.9664 9.7316
" />
<path d="M47.5257 8.5826
L47.5938 8.5221
" />
<path d="M47.5938 8.5221
L47.7223 8.4616
" />
<path d="M47.7223 8.4616
L48.0247 8.4616
" />
<path d="M48.0247 8.4616
L48.1380 8.5221
" />
<path d="M48.1380 8.5221
L48.1910 8.5826
" />
<path d="M48.1910 8.5826
L48.2363 8.7035
" />
<path d="M48.2363 8.7035
L48.2212 8.8245
" />
<path d="M48.2212 8.8245
L48.1380 9.0059
" />
<path d="M48.1380 9.0059
L47.3216 9.7316
" />
<path d="M47.3216 9.7316
L48.1078 9.7316
" />
<path d="M48.6597 9.6107
L48.7126 9.6712
" />
<path d="M48.7126 9.6712
L48.6446 9.7316
" />
<path d="M48.6446 9.7316
L48.5917 9.6712
" />
<path d="M48.5917 9.6712
L48.6597 9.6107
" />
<path d="M48.6597 9.6107
L48.6446 9.7316
" />
<path d="M50.0053 8.4616
L49.4005 8.4616
" />
<path d="M49.4005 8.4616
L49.2645 9.0664
" />
<path d="M49.2645 9.0664
L49.3325 9.0059
" />
<path d="M49.3325 9.0059
L49.4610 8.9454
" />
<path d="M49.4610 8.9454
L49.7634 8.9454
" />
<path d="M49.7634 8.9454
L49.8768 9.0059
" />
<path d="M49.8768 9.0059
L49.9297 9.0664
" />
<path d="M49.9297 9.0664
L49.9750 9.1873
" />
<path d="M49.9750 9.1873
L49.9372 9.4897
" />
<path d="M49.9372 9.4897
L49.8617 9.6107
" />
<path d="M49.8617 9.6107
L49.7936 9.6712
" />
<path d="M49.7936 9.6712
L49.6651 9.7316
" />
<path d="M49.6651 9.7316
L49.3627 9.7316
" />
<path d="M49.3627 9.7316
L49.2493 9.6712
" />
<path d="M49.2493 9.6712
L49.1964 9.6107
" />
<path d="M51.0939 8.8850
L50.9881 9.7316
" />
<path d="M50.8520 8.4012
L50.4362 9.3083
" />
<path d="M50.4362 9.3083
L51.2224 9.3083
" />
<path d="M51.6458 9.7316
L51.7516 8.8850
" />
<path d="M51.7365 9.0059
L51.8045 8.9454
" />
<path d="M51.8045 8.9454
L51.9330 8.8850
" />
<path d="M51.9330 8.8850
L52.1145 8.8850
" />
<path d="M52.1145 8.8850
L52.2279 8.9454
" />
<path d="M52.2279 8.9454
L52.2732 9.0664
" />
<path d="M52.2732 9.0664
L52.1901 9.7316
" />
<path d="M52.2732 9.0664
L52.3488 8.9454
" />
<path d="M52.3488 8.9454
L52.4773 8.8850
" />
<path d="M52.4773 8.8850
L52.6587 8.8850
" />
<path d="M52.6587 8.8850
L52.7721 8.9454
" />
<path d="M52.7721 8.9454
L52.8175 9.0664
" />
<path d="M52.8175 9.0664
L52.7343 9.7316
" />
<path d="M53.3316 9.7316
L53.4374 8.8850
" />
<path d="M53.4223 9.0059
L53.4903 8.9454
" />
<path d="M53.4903 8.9454
L53.6188 8.8850
" />
<path d="M53.6188 8.8850
L53.8003 8.8850
" />
<path d="M53.8003 8.8850
L53.9137 8.9454
" />
<path d="M53.9137 8.9454
L53.9590 9.0664
" />
<path d="M53.9590 9.0664
L53.8759 9.7316
" />
<path d="M53.9590 9.0664
L54.0346 8.9454
" />
<path d="M54.0346 8.9454
L54.1631 8.8850
" />
<path d="M54.1631 8.8850
L54.3445 8.8850
" />
<path d="M54.3445 8.8850
L54.4579 8.9454
" />
<path d="M54.4579 8.9454
L54.5033 9.0664
" />
<path d="M54.5033 9.0664
L54.4201 9.7316
" />
<path d="M54.6999 9.8526
L55.6675 9.8526
" />
<path d="M55.9094 9.6712
L56.0832 9.7316
" />
<path d="M56.0832 9.7316
L56.3856 9.7316
" />
<path d="M56.3856 9.7316
L56.5141 9.6712
" />
<path d="M56.5141 9.6712
L56.5822 9.6107
" />
<path d="M56.5822 9.6107
L56.6577 9.4897
" />
<path d="M56.6577 9.4897
L56.6729 9.3688
" />
<path d="M56.6729 9.3688
L56.6275 9.2478
" />
<path d="M56.6275 9.2478
L56.5746 9.1873
" />
<path d="M56.5746 9.1873
L56.4612 9.1269
" />
<path d="M56.4612 9.1269
L56.2269 9.0664
" />
<path d="M56.2269 9.0664
L56.1135 9.0059
" />
<path d="M56.1135 9.0059
L56.0605 8.9454
" />
<path d="M56.0605 8.9454
L56.0152 8.8245
" />
<path d="M56.0152 8.8245
L56.0303 8.7035
" />
<path d="M56.0303 8.7035
L56.1059 8.5826
" />
<path d="M56.1059 8.5826
L56.1739 8.5221
" />
<path d="M56.1739 8.5221
L56.3025 8.4616
" />
<path d="M56.3025 8.4616
L56.6048 8.4616
" />
<path d="M56.6048 8.4616
L56.7787 8.5221
" />
<path d="M57.0887 8.8850
L57.5725 8.8850
" />
<path d="M57.3230 8.4616
L57.1870 9.5502
" />
<path d="M57.1870 9.5502
L57.2323 9.6712
" />
<path d="M57.2323 9.6712
L57.3457 9.7316
" />
<path d="M57.3457 9.7316
L57.4667 9.7316
" />
<path d="M58.4268 9.7316
L58.5099 9.0664
" />
<path d="M58.5099 9.0664
L58.4646 8.9454
" />
<path d="M58.4646 8.9454
L58.3512 8.8850
" />
<path d="M58.3512 8.8850
L58.1093 8.8850
" />
<path d="M58.1093 8.8850
L57.9807 8.9454
" />
<path d="M58.4343 9.6712
L58.3058 9.7316
" />
<path d="M58.3058 9.7316
L58.0034 9.7316
" />
<path d="M58.0034 9.7316
L57.8900 9.6712
" />
<path d="M57.8900 9.6712
L57.8447 9.5502
" />
<path d="M57.8447 9.5502
L57.8598 9.4292
" />
<path d="M57.8598 9.4292
L57.9354 9.3083
" />
<path d="M57.9354 9.3083
L58.0639 9.2478
" />
<path d="M58.0639 9.2478
L58.3663 9.2478
" />
<path d="M58.3663 9.2478
L58.4948 9.1873
" />
<path d="M59.6741 8.8850
L59.5456 9.9131
" />
<path d="M59.5456 9.9131
L59.4700 10.0340
" />
<path d="M59.4700 10.0340
L59.4019 10.0945
" />
<path d="M59.4019 10.0945
L59.2734 10.1550
" />
<path d="M59.2734 10.1550
L59.0920 10.1550
" />
<path d="M59.0920 10.1550
L58.9786 10.0945
" />
<path d="M59.5758 9.6712
L59.4473 9.7316
" />
<path d="M59.4473 9.7316
L59.2054 9.7316
" />
<path d="M59.2054 9.7316
L59.0920 9.6712
" />
<path d="M59.0920 9.6712
L59.0391 9.6107
" />
<path d="M59.0391 9.6107
L58.9937 9.4897
" />
<path d="M58.9937 9.4897
L59.0391 9.1269
" />
<path d="M59.0391 9.1269
L59.1147 9.0059
" />
<path d="M59.1147 9.0059
L59.1827 8.9454
" />
<path d="M59.1827 8.9454
L59.3112 8.8850
" />
<path d="M59.3112 8.8850
L59.5531 8.8850
" />
<path d="M59.5531 8.8850
L59.6665 8.9454
" />
<path d="M60.7627 8.8850
L60.6342 9.9131
" />
<path d="M60.6342 9.9131
L60.5586 10.0340
" />
<path d="M60.5586 10.0340
L60.4905 10.0945
" />
<path d="M60.4905 10.0945
L60.3620 10.1550
" />
<path d="M60.3620 10.1550
L60.1806 10.1550
" />
<path d="M60.1806 10.1550
L60.0672 10.0945
" />
<path d="M60.6644 9.6712
L60.5359 9.7316
" />
<path d="M60.5359 9.7316
L60.2940 9.7316
" />
<path d="M60.2940 9.7316
L60.1806 9.6712
" />
<path d="M60.1806 9.6712
L60.1277 9.6107
" />
<path d="M60.1277 9.6107
L60.0823 9.4897
" />
<path d="M60.0823 9.4897
L60.1277 9.1269
" />
<path d="M60.1277 9.1269
L60.2033 9.0059
" />
<path d="M60.2033 9.0059
L60.2713 8.9454
" />
<path d="M60.2713 8.9454
L60.3998 8.8850
" />
<path d="M60.3998 8.8850
L60.6417 8.8850
" />
<path d="M60.6417 8.8850
L60.7551 8.9454
" />
<path d="M61.6925 9.6712
L61.5640 9.7316
" />
<path d="M61.5640 9.7316
L61.3221 9.7316
" />
<path d="M61.3221 9.7316
L61.2087 9.6712
" />
<path d="M61.2087 9.6712
L61.1634 9.5502
" />
<path d="M61.1634 9.5502
L61.2239 9.0664
" />
<path d="M61.2239 9.0664
L61.2994 8.9454
" />
<path d="M61.2994 8.9454
L61.4280 8.8850
" />
<path d="M61.4280 8.8850
L61.6699 8.8850
" />
<path d="M61.6699 8.8850
L61.7833 8.9454
" />
<path d="M61.7833 8.9454
L61.8286 9.0664
" />
<path d="M61.8286 9.0664
L61.8135 9.1873
" />
<path d="M61.8135 9.1873
L61.1936 9.3083
" />
<path d="M62.2822 9.7316
L62.3880 8.8850
" />
<path d="M62.3578 9.1269
L62.4334 9.0059
" />
<path d="M62.4334 9.0059
L62.5014 8.9454
" />
<path d="M62.5014 8.9454
L62.6299 8.8850
" />
<path d="M62.6299 8.8850
L62.7509 8.8850
" />
<path d="M63.4614 8.4616
L63.7033 8.4616
" />
<path d="M63.7033 8.4616
L63.8167 8.5221
" />
<path d="M63.8167 8.5221
L63.9226 8.6431
" />
<path d="M63.9226 8.6431
L63.9528 8.8850
" />
<path d="M63.9528 8.8850
L63.8999 9.3083
" />
<path d="M63.8999 9.3083
L63.8092 9.5502
" />
<path d="M63.8092 9.5502
L63.6731 9.6712
" />
<path d="M63.6731 9.6712
L63.5446 9.7316
" />
<path d="M63.5446 9.7316
L63.3027 9.7316
" />
<path d="M63.3027 9.7316
L63.1893 9.6712
" />
<path d="M63.1893 9.6712
L63.0835 9.5502
" />
<path d="M63.0835 9.5502
L63.0532 9.3083
" />
<path d="M63.0532 9.3083
L63.1061 8.8850
" />
<path d="M63.1061 8.8850
L63.1968 8.6431
" />
<path d="M63.1968 8.6431
L63.3329 8.5221
" />
<path d="M63.3329 8.5221
L63.4614 8.4616
" />
<path d="M64.9280 9.7316
L65.0867 8.4616
" />
<path d="M64.9355 9.6712
L64.8070 9.7316
" />
<path d="M64.8070 9.7316
L64.5651 9.7316
" />
<path d="M64.5651 9.7316
L64.4517 9.6712
" />
<path d="M64.4517 9.6712
L64.3988 9.6107
" />
<path d="M64.3988 9.6107
L64.3534 9.4897
" />
<path d="M64.3534 9.4897
L64.3988 9.1269
" />
<path d="M64.3988 9.1269
L64.4744 9.0059
" />
<path d="M64.4744 9.0059
L64.5424 8.9454
" />
<path d="M64.5424 8.9454
L64.6709 8.8850
" />
<path d="M64.6709 8.8850
L64.9128 8.8850
" />
<path d="M64.9128 8.8850
L65.0262 8.9454
" />
<path d="M66.0695 9.7316
L66.2282 8.4616
" />
<path d="M66.0770 9.6712
L65.9485 9.7316
" />
<path d="M65.9485 9.7316
L65.7066 9.7316
" />
<path d="M65.7066 9.7316
L65.5932 9.6712
" />
<path d="M65.5932 9.6712
L65.5403 9.6107
" />
<path d="M65.5403 9.6107
L65.4949 9.4897
" />
<path d="M65.4949 9.4897
L65.5403 9.1269
" />
<path d="M65.5403 9.1269
L65.6159 9.0059
" />
<path d="M65.6159 9.0059
L65.6839 8.9454
" />
<path d="M65.6839 8.9454
L65.8124 8.8850
" />
<path d="M65.8124 8.8850
L66.0543 8.8850
" />
<path d="M66.0543 8.8850
L66.1677 8.9454
" />
<path d="M66.3492 9.8526
L67.3168 9.8526
" />
<path d="M68.2163 9.7316
L67.6116 9.7316
" />
<path d="M67.6116 9.7316
L67.7703 8.4616
" />
<path d="M69.1234 9.6712
L68.9949 9.7316
" />
<path d="M68.9949 9.7316
L68.7530 9.7316
" />
<path d="M68.7530 9.7316
L68.6396 9.6712
" />
<path d="M68.6396 9.6712
L68.5943 9.5502
" />
<path d="M68.5943 9.5502
L68.6548 9.0664
" />
<path d="M68.6548 9.0664
L68.7303 8.9454
" />
<path d="M68.7303 8.9454
L68.8589 8.8850
" />
<path d="M68.8589 8.8850
L69.1008 8.8850
" />
<path d="M69.1008 8.8850
L69.2142 8.9454
" />
<path d="M69.2142 8.9454
L69.2595 9.0664
" />
<path d="M69.2595 9.0664
L69.2444 9.1873
" />
<path d="M69.2444 9.1873
L68.6245 9.3083
" />
<path d="M70.2574 9.7316
L70.3405 9.0664
" />
<path d="M70.3405 9.0664
L70.2952 8.9454
" />
<path d="M70.2952 8.9454
L70.1818 8.8850
" />
<path d="M70.1818 8.8850
L69.9399 8.8850
" />
<path d="M69.9399 8.8850
L69.8113 8.9454
" />
<path d="M70.2649 9.6712
L70.1364 9.7316
" />
<path d="M70.1364 9.7316
L69.8340 9.7316
" />
<path d="M69.8340 9.7316
L69.7206 9.6712
" />
<path d="M69.7206 9.6712
L69.6753 9.5502
" />
<path d="M69.6753 9.5502
L69.6904 9.4292
" />
<path d="M69.6904 9.4292
L69.7660 9.3083
" />
<path d="M69.7660 9.3083
L69.8945 9.2478
" />
<path d="M69.8945 9.2478
L70.1969 9.2478
" />
<path d="M70.1969 9.2478
L70.3254 9.1873
" />
<path d="M71.3989 9.7316
L71.5576 8.4616
" />
<path d="M71.4064 9.6712
L71.2779 9.7316
" />
<path d="M71.2779 9.7316
L71.0360 9.7316
" />
<path d="M71.0360 9.7316
L70.9226 9.6712
" />
<path d="M70.9226 9.6712
L70.8697 9.6107
" />
<path d="M70.8697 9.6107
L70.8243 9.4897
" />
<path d="M70.8243 9.4897
L70.8697 9.1269
" />
<path d="M70.8697 9.1269
L70.9453 9.0059
" />
<path d="M70.9453 9.0059
L71.0133 8.9454
" />
<path d="M71.0133 8.9454
L71.1418 8.8850
" />
<path d="M71.1418 8.8850
L71.3837 8.8850
" />
<path d="M71.3837 8.8850
L71.4971 8.9454
" />
<path d="M72.6462 8.8850
L72.5404 9.7316
" />
<path d="M72.4043 8.4012
L71.9885 9.3083
" />
<path d="M71.9885 9.3083
L72.7747 9.3083
" />
<path d="M73.2132 9.6107
L73.2661 9.6712
" />
<path d="M73.2661 9.6712
L73.1981 9.7316
" />
<path d="M73.1981 9.7316
L73.1452 9.6712
" />
<path d="M73.1452 9.6712
L73.2132 9.6107
" />
<path d="M73.2132 9.6107
L73.1981 9.7316
" />
<path d="M74.5588 8.4616
L73.9540 8.4616
" />
<path d="M73.9540 8.4616
L73.8180 9.0664
" />
<path d="M73.8180 9.0664
L73.8860 9.0059
" />
<path d="M73.8860 9.0059
L74.0145 8.9454
" />
<path d="M74.0145 8.9454
L74.3169 8.9454
" />
<path d="M74.3169 8.9454
L74.4303 9.0059
" />
<path d="M74.4303 9.0059
L74.4832 9.0664
" />
<path d="M74.4832 9.0664
L74.5285 9.1873
" />
<path d="M74.5285 9.1873
L74.4907 9.4897
" />
<path d="M74.4907 9.4897
L74.4152 9.6107
" />
<path d="M74.4152 9.6107
L74.3471 9.6712
" />
<path d="M74.3471 9.6712
L74.2186 9.7316
" />
<path d="M74.2186 9.7316
L73.9162 9.7316
" />
<path d="M73.9162 9.7316
L73.8028 9.6712
" />
<path d="M73.8028 9.6712
L73.7499 9.6107
" />
<path d="M75.2694 9.0059
L75.1560 8.9454
" />
<path d="M75.1560 8.9454
L75.1031 8.8850
" />
<path d="M75.1031 8.8850
L75.0577 8.7640
" />
<path d="M75.0577 8.7640
L75.0653 8.7035
" />
<path d="M75.0653 8.7035
L75.1409 8.5826
" />
<path d="M75.1409 8.5826
L75.2089 8.5221
" />
<path d="M75.2089 8.5221
L75.3375 8.4616
" />
<path d="M75.3375 8.4616
L75.5794 8.4616
" />
<path d="M75.5794 8.4616
L75.6927 8.5221
" />
<path d="M75.6927 8.5221
L75.7457 8.5826
" />
<path d="M75.7457 8.5826
L75.7910 8.7035
" />
<path d="M75.7910 8.7035
L75.7835 8.7640
" />
<path d="M75.7835 8.7640
L75.7079 8.8850
" />
<path d="M75.7079 8.8850
L75.6398 8.9454
" />
<path d="M75.6398 8.9454
L75.5113 9.0059
" />
<path d="M75.5113 9.0059
L75.2694 9.0059
" />
<path d="M75.2694 9.0059
L75.1409 9.0664
" />
<path d="M75.1409 9.0664
L75.0729 9.1269
" />
<path d="M75.0729 9.1269
L74.9973 9.2478
" />
<path d="M74.9973 9.2478
L74.9670 9.4897
" />
<path d="M74.9670 9.4897
L75.0124 9.6107
" />
<path d="M75.0124 9.6107
L75.0653 9.6712
" />
<path d="M75.0653 9.6712
L75.1787 9.7316
" />
<path d="M75.1787 9.7316
L75.4206 9.7316
" />
<path d="M75.4206 9.7316
L75.5491 9.6712
" />
<path d="M75.5491 9.6712
L75.6172 9.6107
" />
<path d="M75.6172 9.6107
L75.6927 9.4897
" />
<path d="M75.6927 9.4897
L75.7230 9.2478
" />
<path d="M75.7230 9.2478
L75.6776 9.1269
" />
<path d="M75.6776 9.1269
L75.6247 9.0664
" />
<path d="M75.6247 9.0664
L75.5113 9.0059
" />
<path d="M76.1993 9.7316
L76.3051 8.8850
" />
<path d="M76.2900 9.0059
L76.3580 8.9454
" />
<path d="M76.3580 8.9454
L76.4865 8.8850
" />
<path d="M76.4865 8.8850
L76.6680 8.8850
" />
<path d="M76.6680 8.8850
L76.7814 8.9454
" />
<path d="M76.7814 8.9454
L76.8267 9.0664
" />
<path d="M76.8267 9.0664
L76.7436 9.7316
" />
<path d="M76.8267 9.0664
L76.9023 8.9454
" />
<path d="M76.9023 8.9454
L77.0308 8.8850
" />
<path d="M77.0308 8.8850
L77.2122 8.8850
" />
<path d="M77.2122 8.8850
L77.3256 8.9454
" />
<path d="M77.3256 8.9454
L77.3710 9.0664
" />
<path d="M77.3710 9.0664
L77.2878 9.7316
" />
<path d="M77.8851 9.7316
L77.9909 8.8850
" />
<path d="M77.9758 9.0059
L78.0438 8.9454
" />
<path d="M78.0438 8.9454
L78.1723 8.8850
" />
<path d="M78.1723 8.8850
L78.3538 8.8850
" />
<path d="M78.3538 8.8850
L78.4672 8.9454
" />
<path d="M78.4672 8.9454
L78.5125 9.0664
" />
<path d="M78.5125 9.0664
L78.4294 9.7316
" />
<path d="M78.5125 9.0664
L78.5881 8.9454
" />
<path d="M78.5881 8.9454
L78.7166 8.8850
" />
<path d="M78.7166 8.8850
L78.8980 8.8850
" />
<path d="M78.8980 8.8850
L79.0114 8.9454
" />
<path d="M79.0114 8.9454
L79.0568 9.0664
" />
<path d="M79.0568 9.0664
L78.9736 9.7316
" />
<path d="M79.2534 9.8526
L80.2210 9.8526
" />
<path d="M80.4931 8.4616
L80.7577 9.7316
" />
<path d="M80.7577 9.7316
L81.3398 8.4616
" />
<path d="M82.0881 9.6712
L81.9596 9.7316
" />
<path d="M81.9596 9.7316
L81.7177 9.7316
" />
<path d="M81.7177 9.7316
L81.6043 9.6712
" />
<path d="M81.6043 9.6712
L81.5590 9.5502
" />
<path d="M81.5590 9.5502
L81.6195 9.0664
" />
<path d="M81.6195 9.0664
L81.6950 8.9454
" />
<path d="M81.6950 8.9454
L81.8236 8.8850
" />
<path d="M81.8236 8.8850
L82.0655 8.8850
" />
<path d="M82.0655 8.8850
L82.1789 8.9454
" />
<path d="M82.1789 8.9454
L82.2242 9.0664
" />
<path d="M82.2242 9.0664
L82.2091 9.1873
" />
<path d="M82.2091 9.1873
L81.5892 9.3083
" />
<path d="M82.6778 9.7316
L82.7836 8.8850
" />
<path d="M82.7534 9.1269
L82.8290 9.0059
" />
<path d="M82.8290 9.0059
L82.8970 8.9454
" />
<path d="M82.8970 8.9454
L83.0255 8.8850
" />
<path d="M83.0255 8.8850
L83.1465 8.8850
" />
<path d="M83.3808 8.8850
L83.8646 8.8850
" />
<path d="M83.6151 8.4616
L83.4791 9.5502
" />
<path d="M83.4791 9.5502
L83.5244 9.6712
" />
<path d="M83.5244 9.6712
L83.6378 9.7316
" />
<path d="M83.6378 9.7316
L83.7588 9.7316
" />
<path d="M84.1746 9.7316
L84.2804 8.8850
" />
<path d="M84.3333 8.4616
L84.2653 8.5221
" />
<path d="M84.2653 8.5221
L84.3182 8.5826
" />
<path d="M84.3182 8.5826
L84.3862 8.5221
" />
<path d="M84.3862 8.5221
L84.3333 8.4616
" />
<path d="M84.3333 8.4616
L84.3182 8.5826
" />
<path d="M85.3236 9.6712
L85.1951 9.7316
" />
<path d="M85.1951 9.7316
L84.9532 9.7316
" />
<path d="M84.9532 9.7316
L84.8398 9.6712
" />
<path d="M84.8398 9.6712
L84.7869 9.6107
" />
<path d="M84.7869 9.6107
L84.7415 9.4897
" />
<path d="M84.7415 9.4897
L84.7869 9.1269
" />
<path d="M84.7869 9.1269
L84.8625 9.0059
" />
<path d="M84.8625 9.0059
L84.9305 8.9454
" />
<path d="M84.9305 8.9454
L85.0590 8.8850
" />
<path d="M85.0590 8.8850
L85.3009 8.8850
" />
<path d="M85.3009 8.8850
L85.4143 8.9454
" />
<path d="M86.3971 9.7316
L86.4802 9.0664
" />
<path d="M86.4802 9.0664
L86.4349 8.9454
" />
<path d="M86.4349 8.9454
L86.3215 8.8850
" />
<path d="M86.3215 8.8850
L86.0796 8.8850
" />
<path d="M86.0796 8.8850
L85.9510 8.9454
" />
<path d="M86.4046 9.6712
L86.2761 9.7316
" />
<path d="M86.2761 9.7316
L85.9737 9.7316
" />
<path d="M85.9737 9.7316
L85.8603 9.6712
" />
<path d="M85.8603 9.6712
L85.8150 9.5502
" />
<path d="M85.8150 9.5502
L85.8301 9.4292
" />
<path d="M85.8301 9.4292
L85.9057 9.3083
" />
<path d="M85.9057 9.3083
L86.0342 9.2478
" />
<path d="M86.0342 9.2478
L86.3366 9.2478
" />
<path d="M86.3366 9.2478
L86.4651 9.1873
" />
<path d="M87.1757 9.7316
L87.0623 9.6712
" />
<path d="M87.0623 9.6712
L87.0170 9.5502
" />
<path d="M87.0170 9.5502
L87.1530 8.4616
" />
</g><text x="47.6089" y="9.7791"
textLength="45.0766" font-size="1.6933" lengthAdjust="spacingAndGlyphs"
text-anchor="middle" opacity="0">http://www.ti.com/lit/ds/symlink/lm1876.pdf</text>
<g class="stroked-text"><desc>http://www.ti.com/lit/ds/symlink/lm1876.pdf</desc>
<path d="M25.4444 9.7316
L25.4444 8.4616
" />
<path d="M25.9887 9.7316
L25.9887 9.0664
" />
<path d="M25.9887 9.0664
L25.9282 8.9454
" />
<path d="M25.9282 8.9454
L25.8073 8.8850
" />
<path d="M25.8073 8.8850
L25.6259 8.8850
" />
<path d="M25.6259 8.8850
L25.5049 8.9454
" />
<path d="M25.5049 8.9454
L25.4444 9.0059
" />
<path d="M26.4120 8.8850
L26.8958 8.8850
" />
<path d="M26.5934 8.4616
L26.5934 9.5502
" />
<path d="M26.5934 9.5502
L26.6539 9.6712
" />
<path d="M26.6539 9.6712
L26.7749 9.7316
" />
<path d="M26.7749 9.7316
L26.8958 9.7316
" />
<path d="M27.1377 8.8850
L27.6215 8.8850
" />
<path d="M27.3191 8.4616
L27.3191 9.5502
" />
<path d="M27.3191 9.5502
L27.3796 9.6712
" />
<path d="M27.3796 9.6712
L27.5006 9.7316
" />
<path d="M27.5006 9.7316
L27.6215 9.7316
" />
<path d="M28.0448 8.8850
L28.0448 10.1550
" />
<path d="M28.0448 8.9454
L28.1658 8.8850
" />
<path d="M28.1658 8.8850
L28.4077 8.8850
" />
<path d="M28.4077 8.8850
L28.5286 8.9454
" />
<path d="M28.5286 8.9454
L28.5891 9.0059
" />
<path d="M28.5891 9.0059
L28.6496 9.1269
" />
<path d="M28.6496 9.1269
L28.6496 9.4897
" />
<path d="M28.6496 9.4897
L28.5891 9.6107
" />
<path d="M28.5891 9.6107
L28.5286 9.6712
" />
<path d="M28.5286 9.6712
L28.4077 9.7316
" />
<path d="M28.4077 9.7316
L28.1658 9.7316
" />
<path d="M28.1658 9.7316
L28.0448 9.6712
" />
<path d="M29.1938 9.6107
L29.2543 9.6712
" />
<path d="M29.2543 9.6712
L29.1938 9.7316
" />
<path d="M29.1938 9.7316
L29.1334 9.6712
" />
<path d="M29.1334 9.6712
L29.1938 9.6107
" />
<path d="M29.1938 9.6107
L29.1938 9.7316
" />
<path d="M29.1938 8.9454
L29.2543 9.0059
" />
<path d="M29.2543 9.0059
L29.1938 9.0664
" />
<path d="M29.1938 9.0664
L29.1334 9.0059
" />
<path d="M29.1334 9.0059
L29.1938 8.9454
" />
<path d="M29.1938 8.9454
L29.1938 9.0664
" />
<path d="M30.7058 8.4012
L29.6172 10.0340
" />
<path d="M32.0363 8.4012
L30.9477 10.0340
" />
<path d="M32.3387 8.8850
L32.5806 9.7316
" />
<path d="M32.5806 9.7316
L32.8225 9.1269
" />
<path d="M32.8225 9.1269
L33.0644 9.7316
" />
<path d="M33.0644 9.7316
L33.3063 8.8850
" />
<path d="M33.6692 8.8850
L33.9111 9.7316
" />
<path d="M33.9111 9.7316
L34.1530 9.1269
" />
<path d="M34.1530 9.1269
L34.3949 9.7316
" />
<path d="M34.3949 9.7316
L34.6368 8.8850
" />
<path d="M34.9997 8.8850
L35.2416 9.7316
" />
<path d="M35.2416 9.7316
L35.4835 9.1269
" />
<path d="M35.4835 9.1269
L35.7254 9.7316
" />
<path d="M35.7254 9.7316
L35.9673 8.8850
" />
<path d="M36.4511 9.6107
L36.5116 9.6712
" />
<path d="M36.5116 9.6712
L36.4511 9.7316
" />
<path d="M36.4511 9.7316
L36.3907 9.6712
" />
<path d="M36.3907 9.6712
L36.4511 9.6107
" />
<path d="M36.4511 9.6107
L36.4511 9.7316
" />
<path d="M36.8745 8.8850
L37.3583 8.8850
" />
<path d="M37.0559 8.4616
L37.0559 9.5502
" />
<path d="M37.0559 9.5502
L37.1164 9.6712
" />
<path d="M37.1164 9.6712
L37.2374 9.7316
" />
<path d="M37.2374 9.7316
L37.3583 9.7316
" />
<path d="M37.7816 9.7316
L37.7816 8.8850
" />
<path d="M37.7816 8.4616
L37.7212 8.5221
" />
<path d="M37.7212 8.5221
L37.7816 8.5826
" />
<path d="M37.7816 8.5826
L37.8421 8.5221
" />
<path d="M37.8421 8.5221
L37.7816 8.4616
" />
<path d="M37.7816 8.4616
L37.7816 8.5826
" />
<path d="M38.3864 9.6107
L38.4469 9.6712
" />
<path d="M38.4469 9.6712
L38.3864 9.7316
" />
<path d="M38.3864 9.7316
L38.3260 9.6712
" />
<path d="M38.3260 9.6712
L38.3864 9.6107
" />
<path d="M38.3864 9.6107
L38.3864 9.7316
" />
<path d="M39.5355 9.6712
L39.4146 9.7316
" />
<path d="M39.4146 9.7316
L39.1727 9.7316
" />
<path d="M39.1727 9.7316
L39.0517 9.6712
" />
<path d="M39.0517 9.6712
L38.9912 9.6107
" />
<path d="M38.9912 9.6107
L38.9308 9.4897
" />
<path d="M38.9308 9.4897
L38.9308 9.1269
" />
<path d="M38.9308 9.1269
L38.9912 9.0059
" />
<path d="M38.9912 9.0059
L39.0517 8.9454
" />
<path d="M39.0517 8.9454
L39.1727 8.8850
" />
<path d="M39.1727 8.8850
L39.4146 8.8850
" />
<path d="M39.4146 8.8850
L39.5355 8.9454
" />
<path d="M40.2613 9.7316
L40.1403 9.6712
" />
<path d="M40.1403 9.6712
L40.0798 9.6107
" />
<path d="M40.0798 9.6107
L40.0194 9.4897
" />
<path d="M40.0194 9.4897
L40.0194 9.1269
" />
<path d="M40.0194 9.1269
L40.0798 9.0059
" />
<path d="M40.0798 9.0059
L40.1403 8.9454
" />
<path d="M40.1403 8.9454
L40.2613 8.8850
" />
<path d="M40.2613 8.8850
L40.4427 8.8850
" />
<path d="M40.4427 8.8850
L40.5636 8.9454
" />
<path d="M40.5636 8.9454
L40.6241 9.0059
" />
<path d="M40.6241 9.0059
L40.6846 9.1269
" />
<path d="M40.6846 9.1269
L40.6846 9.4897
" />
<path d="M40.6846 9.4897
L40.6241 9.6107
" />
<path d="M40.6241 9.6107
L40.5636 9.6712
" />
<path d="M40.5636 9.6712
L40.4427 9.7316
" />
<path d="M40.4427 9.7316
L40.2613 9.7316
" />
<path d="M41.2288 9.7316
L41.2288 8.8850
" />
<path d="M41.2288 9.0059
L41.2893 8.9454
" />
<path d="M41.2893 8.9454
L41.4103 8.8850
" />
<path d="M41.4103 8.8850
L41.5917 8.8850
" />
<path d="M41.5917 8.8850
L41.7126 8.9454
" />
<path d="M41.7126 8.9454
L41.7731 9.0664
" />
<path d="M41.7731 9.0664
L41.7731 9.7316
" />
<path d="M41.7731 9.0664
L41.8336 8.9454
" />
<path d="M41.8336 8.9454
L41.9545 8.8850
" />
<path d="M41.9545 8.8850
L42.1360 8.8850
" />
<path d="M42.1360 8.8850
L42.2569 8.9454
" />
<path d="M42.2569 8.9454
L42.3174 9.0664
" />
<path d="M42.3174 9.0664
L42.3174 9.7316
" />
<path d="M43.8293 8.4012
L42.7407 10.0340
" />
<path d="M44.4341 9.7316
L44.3131 9.6712
" />
<path d="M44.3131 9.6712
L44.2526 9.5502
" />
<path d="M44.2526 9.5502
L44.2526 8.4616
" />
<path d="M44.9178 9.7316
L44.9178 8.8850
" />
<path d="M44.9178 8.4616
L44.8574 8.5221
" />
<path d="M44.8574 8.5221
L44.9178 8.5826
" />
<path d="M44.9178 8.5826
L44.9783 8.5221
" />
<path d="M44.9783 8.5221
L44.9178 8.4616
" />
<path d="M44.9178 8.4616
L44.9178 8.5826
" />
<path d="M45.3412 8.8850
L45.8250 8.8850
" />
<path d="M45.5226 8.4616
L45.5226 9.5502
" />
<path d="M45.5226 9.5502
L45.5831 9.6712
" />
<path d="M45.5831 9.6712
L45.7041 9.7316
" />
<path d="M45.7041 9.7316
L45.8250 9.7316
" />
<path d="M47.1555 8.4012
L46.0669 10.0340
" />
<path d="M48.1231 9.7316
L48.1231 8.4616
" />
<path d="M48.1231 9.6712
L48.0022 9.7316
" />
<path d="M48.0022 9.7316
L47.7603 9.7316
" />
<path d="M47.7603 9.7316
L47.6393 9.6712
" />
<path d="M47.6393 9.6712
L47.5788 9.6107
" />
<path d="M47.5788 9.6107
L47.5184 9.4897
" />
<path d="M47.5184 9.4897
L47.5184 9.1269
" />
<path d="M47.5184 9.1269
L47.5788 9.0059
" />
<path d="M47.5788 9.0059
L47.6393 8.9454
" />
<path d="M47.6393 8.9454
L47.7603 8.8850
" />
<path d="M47.7603 8.8850
L48.0022 8.8850
" />
<path d="M48.0022 8.8850
L48.1231 8.9454
" />
<path d="M48.6674 9.6712
L48.7883 9.7316
" />
<path d="M48.7883 9.7316
L49.0302 9.7316
" />
<path d="M49.0302 9.7316
L49.1512 9.6712
" />
<path d="M49.1512 9.6712
L49.2116 9.5502
" />
<path d="M49.2116 9.5502
L49.2116 9.4897
" />
<path d="M49.2116 9.4897
L49.1512 9.3688
" />
<path d="M49.1512 9.3688
L49.0302 9.3083
" />
<path d="M49.0302 9.3083
L48.8488 9.3083
" />
<path d="M48.8488 9.3083
L48.7278 9.2478
" />
<path d="M48.7278 9.2478
L48.6674 9.1269
" />
<path d="M48.6674 9.1269
L48.6674 9.0664
" />
<path d="M48.6674 9.0664
L48.7278 8.9454
" />
<path d="M48.7278 8.9454
L48.8488 8.8850
" />
<path d="M48.8488 8.8850
L49.0302 8.8850
" />
<path d="M49.0302 8.8850
L49.1512 8.9454
" />
<path d="M50.6631 8.4012
L49.5745 10.0340
" />
<path d="M51.0260 9.6712
L51.1469 9.7316
" />
<path d="M51.1469 9.7316
L51.3888 9.7316
" />
<path d="M51.3888 9.7316
L51.5098 9.6712
" />
<path d="M51.5098 9.6712
L51.5702 9.5502
" />
<path d="M51.5702 9.5502
L51.5702 9.4897
" />
<path d="M51.5702 9.4897
L51.5098 9.3688
" />
<path d="M51.5098 9.3688
L51.3888 9.3083
" />
<path d="M51.3888 9.3083
L51.2074 9.3083
" />
<path d="M51.2074 9.3083
L51.0864 9.2478
" />
<path d="M51.0864 9.2478
L51.0260 9.1269
" />
<path d="M51.0260 9.1269
L51.0260 9.0664
" />
<path d="M51.0260 9.0664
L51.0864 8.9454
" />
<path d="M51.0864 8.9454
L51.2074 8.8850
" />
<path d="M51.2074 8.8850
L51.3888 8.8850
" />
<path d="M51.3888 8.8850
L51.5098 8.9454
" />
<path d="M51.9936 8.8850
L52.2960 9.7316
" />
<path d="M52.5983 8.8850
L52.2960 9.7316
" />
<path d="M52.2960 9.7316
L52.1750 10.0340
" />
<path d="M52.1750 10.0340
L52.1145 10.0945
" />
<path d="M52.1145 10.0945
L51.9936 10.1550
" />
<path d="M53.0821 9.7316
L53.0821 8.8850
" />
<path d="M53.0821 9.0059
L53.1426 8.9454
" />
<path d="M53.1426 8.9454
L53.2636 8.8850
" />
<path d="M53.2636 8.8850
L53.4450 8.8850
" />
<path d="M53.4450 8.8850
L53.5659 8.9454
" />
<path d="M53.5659 8.9454
L53.6264 9.0664
" />
<path d="M53.6264 9.0664
L53.6264 9.7316
" />
<path d="M53.6264 9.0664
L53.6869 8.9454
" />
<path d="M53.6869 8.9454
L53.8078 8.8850
" />
<path d="M53.8078 8.8850
L53.9893 8.8850
" />
<path d="M53.9893 8.8850
L54.1102 8.9454
" />
<path d="M54.1102 8.9454
L54.1707 9.0664
" />
<path d="M54.1707 9.0664
L54.1707 9.7316
" />
<path d="M54.9569 9.7316
L54.8359 9.6712
" />
<path d="M54.8359 9.6712
L54.7754 9.5502
" />
<path d="M54.7754 9.5502
L54.7754 8.4616
" />
<path d="M55.4406 9.7316
L55.4406 8.8850
" />
<path d="M55.4406 8.4616
L55.3802 8.5221
" />
<path d="M55.3802 8.5221
L55.4406 8.5826
" />
<path d="M55.4406 8.5826
L55.5011 8.5221
" />
<path d="M55.5011 8.5221
L55.4406 8.4616
" />
<path d="M55.4406 8.4616
L55.4406 8.5826
" />
<path d="M56.0454 8.8850
L56.0454 9.7316
" />
<path d="M56.0454 9.0059
L56.1059 8.9454
" />
<path d="M56.1059 8.9454
L56.2269 8.8850
" />
<path d="M56.2269 8.8850
L56.4083 8.8850
" />
<path d="M56.4083 8.8850
L56.5292 8.9454
" />
<path d="M56.5292 8.9454
L56.5897 9.0664
" />
<path d="M56.5897 9.0664
L56.5897 9.7316
" />
<path d="M57.1944 9.7316
L57.1944 8.4616
" />
<path d="M57.3154 9.2478
L57.6782 9.7316
" />
<path d="M57.6782 8.8850
L57.1944 9.3688
" />
<path d="M59.1297 8.4012
L58.0411 10.0340
" />
<path d="M59.7345 9.7316
L59.6135 9.6712
" />
<path d="M59.6135 9.6712
L59.5530 9.5502
" />
<path d="M59.5530 9.5502
L59.5530 8.4616
" />
<path d="M60.2182 9.7316
L60.2182 8.8850
" />
<path d="M60.2182 9.0059
L60.2787 8.9454
" />
<path d="M60.2787 8.9454
L60.3997 8.8850
" />
<path d="M60.3997 8.8850
L60.5811 8.8850
" />
<path d="M60.5811 8.8850
L60.7020 8.9454
" />
<path d="M60.7020 8.9454
L60.7625 9.0664
" />
<path d="M60.7625 9.0664
L60.7625 9.7316
" />
<path d="M60.7625 9.0664
L60.8230 8.9454
" />
<path d="M60.8230 8.9454
L60.9439 8.8850
" />
<path d="M60.9439 8.8850
L61.1254 8.8850
" />
<path d="M61.1254 8.8850
L61.2463 8.9454
" />
<path d="M61.2463 8.9454
L61.3068 9.0664
" />
<path d="M61.3068 9.0664
L61.3068 9.7316
" />
<path d="M62.5768 9.7316
L61.8511 9.7316
" />
<path d="M62.2139 9.7316
L62.2139 8.4616
" />
<path d="M62.2139 8.4616
L62.0930 8.6431
" />
<path d="M62.0930 8.6431
L61.9720 8.7640
" />
<path d="M61.9720 8.7640
L61.8511 8.8245
" />
<path d="M63.3025 9.0059
L63.1815 8.9454
" />
<path d="M63.1815 8.9454
L63.1210 8.8850
" />
<path d="M63.1210 8.8850
L63.0606 8.7640
" />
<path d="M63.0606 8.7640
L63.0606 8.7035
" />
<path d="M63.0606 8.7035
L63.1210 8.5826
" />
<path d="M63.1210 8.5826
L63.1815 8.5221
" />
<path d="M63.1815 8.5221
L63.3025 8.4616
" />
<path d="M63.3025 8.4616
L63.5444 8.4616
" />
<path d="M63.5444 8.4616
L63.6653 8.5221
" />
<path d="M63.6653 8.5221
L63.7258 8.5826
" />
<path d="M63.7258 8.5826
L63.7863 8.7035
" />
<path d="M63.7863 8.7035
L63.7863 8.7640
" />
<path d="M63.7863 8.7640
L63.7258 8.8850
" />
<path d="M63.7258 8.8850
L63.6653 8.9454
" />
<path d="M63.6653 8.9454
L63.5444 9.0059
" />
<path d="M63.5444 9.0059
L63.3025 9.0059
" />
<path d="M63.3025 9.0059
L63.1815 9.0664
" />
<path d="M63.1815 9.0664
L63.1210 9.1269
" />
<path d="M63.1210 9.1269
L63.0606 9.2478
" />
<path d="M63.0606 9.2478
L63.0606 9.4897
" />
<path d="M63.0606 9.4897
L63.1210 9.6107
" />
<path d="M63.1210 9.6107
L63.1815 9.6712
" />
<path d="M63.1815 9.6712
L63.3025 9.7316
" />
<path d="M63.3025 9.7316
L63.5444 9.7316
" />
<path d="M63.5444 9.7316
L63.6653 9.6712
" />
<path d="M63.6653 9.6712
L63.7258 9.6107
" />
<path d="M63.7258 9.6107
L63.7863 9.4897
" />
<path d="M63.7863 9.4897
L63.7863 9.2478
" />
<path d="M63.7863 9.2478
L63.7258 9.1269
" />
<path d="M63.7258 9.1269
L63.6653 9.0664
" />
<path d="M63.6653 9.0664
L63.5444 9.0059
" />
<path d="M64.2096 8.4616
L65.0562 8.4616
" />
<path d="M65.0562 8.4616
L64.5120 9.7316
" />
<path d="M66.0843 8.4616
L65.8424 8.4616
" />
<path d="M65.8424 8.4616
L65.7215 8.5221
" />
<path d="M65.7215 8.5221
L65.6610 8.5826
" />
<path d="M65.6610 8.5826
L65.5400 8.7640
" />
<path d="M65.5400 8.7640
L65.4796 9.0059
" />
<path d="M65.4796 9.0059
L65.4796 9.4897
" />
<path d="M65.4796 9.4897
L65.5400 9.6107
" />
<path d="M65.5400 9.6107
L65.6005 9.6712
" />
<path d="M65.6005 9.6712
L65.7215 9.7316
" />
<path d="M65.7215 9.7316
L65.9634 9.7316
" />
<path d="M65.9634 9.7316
L66.0843 9.6712
" />
<path d="M66.0843 9.6712
L66.1448 9.6107
" />
<path d="M66.1448 9.6107
L66.2053 9.4897
" />
<path d="M66.2053 9.4897
L66.2053 9.1873
" />
<path d="M66.2053 9.1873
L66.1448 9.0664
" />
<path d="M66.1448 9.0664
L66.0843 9.0059
" />
<path d="M66.0843 9.0059
L65.9634 8.9454
" />
<path d="M65.9634 8.9454
L65.7215 8.9454
" />
<path d="M65.7215 8.9454
L65.6005 9.0059
" />
<path d="M65.6005 9.0059
L65.5400 9.0664
" />
<path d="M65.5400 9.0664
L65.4796 9.1873
" />
<path d="M66.7495 9.6107
L66.8100 9.6712
" />
<path d="M66.8100 9.6712
L66.7495 9.7316
" />
<path d="M66.7495 9.7316
L66.6891 9.6712
" />
<path d="M66.6891 9.6712
L66.7495 9.6107
" />
<path d="M66.7495 9.6107
L66.7495 9.7316
" />
<path d="M67.3543 8.8850
L67.3543 10.1550
" />
<path d="M67.3543 8.9454
L67.4753 8.8850
" />
<path d="M67.4753 8.8850
L67.7172 8.8850
" />
<path d="M67.7172 8.8850
L67.8381 8.9454
" />
<path d="M67.8381 8.9454
L67.8986 9.0059
" />
<path d="M67.8986 9.0059
L67.9591 9.1269
" />
<path d="M67.9591 9.1269
L67.9591 9.4897
" />
<path d="M67.9591 9.4897
L67.8986 9.6107
" />
<path d="M67.8986 9.6107
L67.8381 9.6712
" />
<path d="M67.8381 9.6712
L67.7172 9.7316
" />
<path d="M67.7172 9.7316
L67.4753 9.7316
" />
<path d="M67.4753 9.7316
L67.3543 9.6712
" />
<path d="M69.0476 9.7316
L69.0476 8.4616
" />
<path d="M69.0476 9.6712
L68.9267 9.7316
" />
<path d="M68.9267 9.7316
L68.6848 9.7316
" />
<path d="M68.6848 9.7316
L68.5638 9.6712
" />
<path d="M68.5638 9.6712
L68.5033 9.6107
" />
<path d="M68.5033 9.6107
L68.4429 9.4897
" />
<path d="M68.4429 9.4897
L68.4429 9.1269
" />
<path d="M68.4429 9.1269
L68.5033 9.0059
" />
<path d="M68.5033 9.0059
L68.5638 8.9454
" />
<path d="M68.5638 8.9454
L68.6848 8.8850
" />
<path d="M68.6848 8.8850
L68.9267 8.8850
" />
<path d="M68.9267 8.8850
L69.0476 8.9454
" />
<path d="M69.4709 8.8850
L69.9547 8.8850
" />
<path d="M69.6523 9.7316
L69.6523 8.6431
" />
<path d="M69.6523 8.6431
L69.7128 8.5221
" />
<path d="M69.7128 8.5221
L69.8338 8.4616
" />
<path d="M69.8338 8.4616
L69.9547 8.4616
" />
</g></g> 
</svg>
