<?xml version="1.0" standalone="no"?>
 <!DOCTYPE svg PUBLIC "-//W3C//DTD SVG 1.1//EN" 
 "http://www.w3.org/Graphics/SVG/1.1/DTD/svg11.dtd"> 
<svg
  xmlns:svg="http://www.w3.org/2000/svg"
  xmlns="http://www.w3.org/2000/svg"
  xmlns:xlink="http://www.w3.org/1999/xlink"
  version="1.1"
  width="80.6704mm" height="18.2880mm" viewBox="0.0000 0.0000 80.6704 18.2880">
<title>SVG Image created as working.svg date 2023/08/08 16:26:07 </title>
  <desc>Image generated by Eeschema-SVG </desc>
<g style="fill:#000000; fill-opacity:1.0000;stroke:#000000; stroke-opacity:1.0000;
stroke-linecap:round; stroke-linejoin:round;"
 transform="translate(0 0) scale(1 1)">
</g>
<g style="fill:#840000; fill-opacity:0.0; 
stroke:#840000; stroke-width:0.0000; stroke-opacity:1; 
stroke-linecap:round; stroke-linejoin:round;">
</g>
<g style="fill:#FFFFC2; fill-opacity:0.0; 
stroke:#FFFFC2; stroke-width:0.0000; stroke-opacity:1; 
stroke-linecap:round; stroke-linejoin:round;">
</g>
<g style="fill:#FFFFC2; fill-opacity:1.0000; 
stroke:#FFFFC2; stroke-width:0.0000; stroke-opacity:1; 
stroke-linecap:round; stroke-linejoin:round;">
<rect x="35.257500" y="4.064100" width="10.160000" height="10.160000" rx="0.000000" />
</g>
<g style="fill:#840084; fill-opacity:1.0000; 
stroke:#840084; stroke-width:0.0000; stroke-opacity:1; 
stroke-linecap:round; stroke-linejoin:round;">
</g>
<g style="fill:#840000; fill-opacity:1.0000; 
stroke:#840000; stroke-width:0.0000; stroke-opacity:1; 
stroke-linecap:round; stroke-linejoin:round;">
</g>
<g style="fill:#840000; fill-opacity:0.0; 
stroke:#840000; stroke-width:0.2540; stroke-opacity:1; 
stroke-linecap:round; stroke-linejoin:round;">
<rect x="35.257500" y="4.064100" width="10.160000" height="10.160000" rx="0.000000" />
</g>
<g style="fill:#840000; fill-opacity:0.0; 
stroke:#840000; stroke-width:0.1524; stroke-opacity:1; 
stroke-linecap:round; stroke-linejoin:round;">
<path style="fill:#840000; fill-opacity:0.0; 
stroke:#840000; stroke-width:0.1524; stroke-opacity:1; 
stroke-linecap:round; stroke-linejoin:round;fill:none"
d="M 35.7655,9.6521
36.5275,9.6521
36.5275,8.3821
37.2895,8.3821
37.2895,9.6521
38.0515,9.6521
38.0515,8.3821
38.8135,8.3821
38.8135,9.6521
" /> 
<path d="M40.3375 14.2241
L40.3375 16.7641
" />
</g>
<g style="fill:#006464; fill-opacity:0.0; 
stroke:#006464; stroke-width:0.1524; stroke-opacity:1; 
stroke-linecap:round; stroke-linejoin:round;">
<g transform="rotate(-90.000000 40.3375 13.7161)">
<text x="40.3375" y="14.3511"
textLength="4.0737" font-size="1.6933" lengthAdjust="spacingAndGlyphs"
text-anchor="start" opacity="0">GND</text>
</g>
<g class="stroked-text"><desc>GND</desc>
<path d="M39.7075 12.6482
L39.6470 12.7692
" />
<path d="M39.6470 12.7692
L39.6470 12.9506
" />
<path d="M39.6470 12.9506
L39.7075 13.1320
" />
<path d="M39.7075 13.1320
L39.8285 13.2530
" />
<path d="M39.8285 13.2530
L39.9494 13.3135
" />
<path d="M39.9494 13.3135
L40.1913 13.3739
" />
<path d="M40.1913 13.3739
L40.3727 13.3739
" />
<path d="M40.3727 13.3739
L40.6146 13.3135
" />
<path d="M40.6146 13.3135
L40.7356 13.2530
" />
<path d="M40.7356 13.2530
L40.8566 13.1320
" />
<path d="M40.8566 13.1320
L40.9170 12.9506
" />
<path d="M40.9170 12.9506
L40.9170 12.8297
" />
<path d="M40.9170 12.8297
L40.8566 12.6482
" />
<path d="M40.8566 12.6482
L40.7961 12.5878
" />
<path d="M40.7961 12.5878
L40.3727 12.5878
" />
<path d="M40.3727 12.5878
L40.3727 12.8297
" />
<path d="M40.9170 12.0435
L39.6470 12.0435
" />
<path d="M39.6470 12.0435
L40.9170 11.3178
" />
<path d="M40.9170 11.3178
L39.6470 11.3178
" />
<path d="M40.9170 10.7130
L39.6470 10.7130
" />
<path d="M39.6470 10.7130
L39.6470 10.4106
" />
<path d="M39.6470 10.4106
L39.7075 10.2292
" />
<path d="M39.7075 10.2292
L39.8285 10.1082
" />
<path d="M39.8285 10.1082
L39.9494 10.0477
" />
<path d="M39.9494 10.0477
L40.1913 9.9873
" />
<path d="M40.1913 9.9873
L40.3727 9.9873
" />
<path d="M40.3727 9.9873
L40.6146 10.0477
" />
<path d="M40.6146 10.0477
L40.7356 10.1082
" />
<path d="M40.7356 10.1082
L40.8566 10.2292
" />
<path d="M40.8566 10.2292
L40.9170 10.4106
" />
<path d="M40.9170 10.4106
L40.9170 10.7130
" />
</g></g>
<g style="fill:#A90000; fill-opacity:0.0; 
stroke:#A90000; stroke-width:0.1524; stroke-opacity:1; 
stroke-linecap:round; stroke-linejoin:round;">
<g transform="rotate(-90.000000 40.0835 15.4941)">
<text x="40.0835" y="15.4941"
textLength="1.4127" font-size="1.6933" lengthAdjust="spacingAndGlyphs"
text-anchor="middle" opacity="0">1</text>
</g>
<g class="stroked-text"><desc>1</desc>
<path d="M39.9200 15.1311
L39.9200 15.8568
" />
<path d="M39.9200 15.4940
L38.6500 15.4940
" />
<path d="M38.6500 15.4940
L38.8315 15.6149
" />
<path d="M38.8315 15.6149
L38.9524 15.7359
" />
<path d="M38.9524 15.7359
L39.0129 15.8568
" />
</g></g>
<g style="fill:#840000; fill-opacity:0.0; 
stroke:#840000; stroke-width:0.1524; stroke-opacity:1; 
stroke-linecap:round; stroke-linejoin:round;">
<path d="M45.4175 9.1441
L47.9575 9.1441
" />
</g>
<g style="fill:#006464; fill-opacity:0.0; 
stroke:#006464; stroke-width:0.1524; stroke-opacity:1; 
stroke-linecap:round; stroke-linejoin:round;">
<text x="44.9095" y="9.7791"
textLength="3.8318" font-size="1.6933" lengthAdjust="spacingAndGlyphs"
text-anchor="end" opacity="0">OUT</text>
<g class="stroked-text"><desc>OUT</desc>
<path d="M41.7249 8.4536
L41.9668 8.4536
" />
<path d="M41.9668 8.4536
L42.0878 8.5141
" />
<path d="M42.0878 8.5141
L42.2087 8.6351
" />
<path d="M42.2087 8.6351
L42.2692 8.8770
" />
<path d="M42.2692 8.8770
L42.2692 9.3003
" />
<path d="M42.2692 9.3003
L42.2087 9.5422
" />
<path d="M42.2087 9.5422
L42.0878 9.6632
" />
<path d="M42.0878 9.6632
L41.9668 9.7236
" />
<path d="M41.9668 9.7236
L41.7249 9.7236
" />
<path d="M41.7249 9.7236
L41.6040 9.6632
" />
<path d="M41.6040 9.6632
L41.4830 9.5422
" />
<path d="M41.4830 9.5422
L41.4226 9.3003
" />
<path d="M41.4226 9.3003
L41.4226 8.8770
" />
<path d="M41.4226 8.8770
L41.4830 8.6351
" />
<path d="M41.4830 8.6351
L41.6040 8.5141
" />
<path d="M41.6040 8.5141
L41.7249 8.4536
" />
<path d="M42.8135 8.4536
L42.8135 9.4817
" />
<path d="M42.8135 9.4817
L42.8740 9.6027
" />
<path d="M42.8740 9.6027
L42.9345 9.6632
" />
<path d="M42.9345 9.6632
L43.0554 9.7236
" />
<path d="M43.0554 9.7236
L43.2973 9.7236
" />
<path d="M43.2973 9.7236
L43.4183 9.6632
" />
<path d="M43.4183 9.6632
L43.4788 9.6027
" />
<path d="M43.4788 9.6027
L43.5392 9.4817
" />
<path d="M43.5392 9.4817
L43.5392 8.4536
" />
<path d="M43.9626 8.4536
L44.6883 8.4536
" />
<path d="M44.3255 9.7236
L44.3255 8.4536
" />
</g></g>
<g style="fill:#A90000; fill-opacity:0.0; 
stroke:#A90000; stroke-width:0.1524; stroke-opacity:1; 
stroke-linecap:round; stroke-linejoin:round;">
<text x="46.6875" y="8.8901"
textLength="1.4127" font-size="1.6933" lengthAdjust="spacingAndGlyphs"
text-anchor="middle" opacity="0">4</text>
<g class="stroked-text"><desc>4</desc>
<path d="M46.9294 7.8800
L46.9294 8.7266
" />
<path d="M46.6270 7.3962
L46.3247 8.3033
" />
<path d="M46.3247 8.3033
L47.1108 8.3033
" />
</g></g>
<g style="fill:#840000; fill-opacity:0.0; 
stroke:#840000; stroke-width:0.1524; stroke-opacity:1; 
stroke-linecap:round; stroke-linejoin:round;">
<path d="M40.3375 4.0641
L40.3375 1.5241
" />
</g>
<g style="fill:#006464; fill-opacity:0.0; 
stroke:#006464; stroke-width:0.1524; stroke-opacity:1; 
stroke-linecap:round; stroke-linejoin:round;">
<g transform="rotate(-90.000000 40.3375 4.5721)">
<text x="40.3375" y="5.2071"
textLength="3.8318" font-size="1.6933" lengthAdjust="spacingAndGlyphs"
text-anchor="end" opacity="0">VCC</text>
</g>
<g class="stroked-text"><desc>VCC</desc>
<path d="M39.6470 8.1799
L40.9170 7.7566
" />
<path d="M40.9170 7.7566
L39.6470 7.3332
" />
<path d="M40.7961 6.1842
L40.8566 6.2446
" />
<path d="M40.8566 6.2446
L40.9170 6.4261
" />
<path d="M40.9170 6.4261
L40.9170 6.5470
" />
<path d="M40.9170 6.5470
L40.8566 6.7284
" />
<path d="M40.8566 6.7284
L40.7356 6.8494
" />
<path d="M40.7356 6.8494
L40.6146 6.9099
" />
<path d="M40.6146 6.9099
L40.3727 6.9703
" />
<path d="M40.3727 6.9703
L40.1913 6.9703
" />
<path d="M40.1913 6.9703
L39.9494 6.9099
" />
<path d="M39.9494 6.9099
L39.8285 6.8494
" />
<path d="M39.8285 6.8494
L39.7075 6.7284
" />
<path d="M39.7075 6.7284
L39.6470 6.5470
" />
<path d="M39.6470 6.5470
L39.6470 6.4261
" />
<path d="M39.6470 6.4261
L39.7075 6.2446
" />
<path d="M39.7075 6.2446
L39.7680 6.1842
" />
<path d="M40.7961 4.9142
L40.8566 4.9746
" />
<path d="M40.8566 4.9746
L40.9170 5.1561
" />
<path d="M40.9170 5.1561
L40.9170 5.2770
" />
<path d="M40.9170 5.2770
L40.8566 5.4584
" />
<path d="M40.8566 5.4584
L40.7356 5.5794
" />
<path d="M40.7356 5.5794
L40.6146 5.6399
" />
<path d="M40.6146 5.6399
L40.3727 5.7003
" />
<path d="M40.3727 5.7003
L40.1913 5.7003
" />
<path d="M40.1913 5.7003
L39.9494 5.6399
" />
<path d="M39.9494 5.6399
L39.8285 5.5794
" />
<path d="M39.8285 5.5794
L39.7075 5.4584
" />
<path d="M39.7075 5.4584
L39.6470 5.2770
" />
<path d="M39.6470 5.2770
L39.6470 5.1561
" />
<path d="M39.6470 5.1561
L39.7075 4.9746
" />
<path d="M39.7075 4.9746
L39.7680 4.9142
" />
</g></g>
<g style="fill:#A90000; fill-opacity:0.0; 
stroke:#A90000; stroke-width:0.1524; stroke-opacity:1; 
stroke-linecap:round; stroke-linejoin:round;">
<g transform="rotate(-90.000000 40.0835 2.7941)">
<text x="40.0835" y="2.7941"
textLength="1.4127" font-size="1.6933" lengthAdjust="spacingAndGlyphs"
text-anchor="middle" opacity="0">6</text>
</g>
<g class="stroked-text"><desc>6</desc>
<path d="M38.6500 2.5521
L38.6500 2.7940
" />
<path d="M38.6500 2.7940
L38.7105 2.9149
" />
<path d="M38.7105 2.9149
L38.7710 2.9754
" />
<path d="M38.7710 2.9754
L38.9524 3.0964
" />
<path d="M38.9524 3.0964
L39.1943 3.1568
" />
<path d="M39.1943 3.1568
L39.6781 3.1568
" />
<path d="M39.6781 3.1568
L39.7991 3.0964
" />
<path d="M39.7991 3.0964
L39.8596 3.0359
" />
<path d="M39.8596 3.0359
L39.9200 2.9149
" />
<path d="M39.9200 2.9149
L39.9200 2.6730
" />
<path d="M39.9200 2.6730
L39.8596 2.5521
" />
<path d="M39.8596 2.5521
L39.7991 2.4916
" />
<path d="M39.7991 2.4916
L39.6781 2.4311
" />
<path d="M39.6781 2.4311
L39.3757 2.4311
" />
<path d="M39.3757 2.4311
L39.2548 2.4916
" />
<path d="M39.2548 2.4916
L39.1943 2.5521
" />
<path d="M39.1943 2.5521
L39.1338 2.6730
" />
<path d="M39.1338 2.6730
L39.1338 2.9149
" />
<path d="M39.1338 2.9149
L39.1943 3.0359
" />
<path d="M39.1943 3.0359
L39.2548 3.0964
" />
<path d="M39.2548 3.0964
L39.3757 3.1568
" />
</g></g>
<g style="fill:#840084; fill-opacity:0.0; 
stroke:#840084; stroke-width:0.1524; stroke-opacity:1; 
stroke-linecap:round; stroke-linejoin:round;">
</g>
<g style="fill:#006464; fill-opacity:0.0; 
stroke:#006464; stroke-width:0.1524; stroke-opacity:1; 
stroke-linecap:round; stroke-linejoin:round;">
</g>
<g style="fill:#006464; fill-opacity:0.0; 
stroke:#006464; stroke-width:0.1588; stroke-opacity:1; 
stroke-linecap:round; stroke-linejoin:round;">
<text x="36.2735" y="3.6831"
textLength="2.6415" font-size="1.6933" lengthAdjust="spacingAndGlyphs"
text-anchor="middle" opacity="0">U?</text>
<g class="stroked-text"><desc>U?</desc>
<path d="M35.3663 2.3573
L35.3663 3.3854
" />
<path d="M35.3663 3.3854
L35.4268 3.5064
" />
<path d="M35.4268 3.5064
L35.4873 3.5669
" />
<path d="M35.4873 3.5669
L35.6082 3.6273
" />
<path d="M35.6082 3.6273
L35.8501 3.6273
" />
<path d="M35.8501 3.6273
L35.9711 3.5669
" />
<path d="M35.9711 3.5669
L36.0316 3.5064
" />
<path d="M36.0316 3.5064
L36.0920 3.3854
" />
<path d="M36.0920 3.3854
L36.0920 2.3573
" />
<path d="M36.8783 3.5064
L36.9387 3.5669
" />
<path d="M36.9387 3.5669
L36.8783 3.6273
" />
<path d="M36.8783 3.6273
L36.8178 3.5669
" />
<path d="M36.8178 3.5669
L36.8783 3.5064
" />
<path d="M36.8783 3.5064
L36.8783 3.6273
" />
<path d="M36.6364 2.4178
L36.7573 2.3573
" />
<path d="M36.7573 2.3573
L37.0597 2.3573
" />
<path d="M37.0597 2.3573
L37.1806 2.4178
" />
<path d="M37.1806 2.4178
L37.2411 2.5388
" />
<path d="M37.2411 2.5388
L37.2411 2.6597
" />
<path d="M37.2411 2.6597
L37.1806 2.7807
" />
<path d="M37.1806 2.7807
L37.1202 2.8411
" />
<path d="M37.1202 2.8411
L36.9992 2.9016
" />
<path d="M36.9992 2.9016
L36.9387 2.9621
" />
<path d="M36.9387 2.9621
L36.8783 3.0830
" />
<path d="M36.8783 3.0830
L36.8783 3.1435
" />
</g><text x="44.6555" y="3.6831"
textLength="11.1080" font-size="1.6933" lengthAdjust="spacingAndGlyphs"
text-anchor="middle" opacity="0">KT2520K-T</text>
<g class="stroked-text"><desc>KT2520K-T</desc>
<path d="M39.5150 3.6273
L39.5150 2.3573
" />
<path d="M40.2407 3.6273
L39.6965 2.9016
" />
<path d="M40.2407 2.3573
L39.5150 3.0830
" />
<path d="M40.6036 2.3573
L41.3293 2.3573
" />
<path d="M40.9665 3.6273
L40.9665 2.3573
" />
<path d="M41.6922 2.4783
L41.7526 2.4178
" />
<path d="M41.7526 2.4178
L41.8736 2.3573
" />
<path d="M41.8736 2.3573
L42.1760 2.3573
" />
<path d="M42.1760 2.3573
L42.2969 2.4178
" />
<path d="M42.2969 2.4178
L42.3574 2.4783
" />
<path d="M42.3574 2.4783
L42.4179 2.5992
" />
<path d="M42.4179 2.5992
L42.4179 2.7202
" />
<path d="M42.4179 2.7202
L42.3574 2.9016
" />
<path d="M42.3574 2.9016
L41.6317 3.6273
" />
<path d="M41.6317 3.6273
L42.4179 3.6273
" />
<path d="M43.5669 2.3573
L42.9621 2.3573
" />
<path d="M42.9621 2.3573
L42.9017 2.9621
" />
<path d="M42.9017 2.9621
L42.9621 2.9016
" />
<path d="M42.9621 2.9016
L43.0831 2.8411
" />
<path d="M43.0831 2.8411
L43.3855 2.8411
" />
<path d="M43.3855 2.8411
L43.5064 2.9016
" />
<path d="M43.5064 2.9016
L43.5669 2.9621
" />
<path d="M43.5669 2.9621
L43.6274 3.0830
" />
<path d="M43.6274 3.0830
L43.6274 3.3854
" />
<path d="M43.6274 3.3854
L43.5669 3.5064
" />
<path d="M43.5669 3.5064
L43.5064 3.5669
" />
<path d="M43.5064 3.5669
L43.3855 3.6273
" />
<path d="M43.3855 3.6273
L43.0831 3.6273
" />
<path d="M43.0831 3.6273
L42.9621 3.5669
" />
<path d="M42.9621 3.5669
L42.9017 3.5064
" />
<path d="M44.1112 2.4783
L44.1716 2.4178
" />
<path d="M44.1716 2.4178
L44.2926 2.3573
" />
<path d="M44.2926 2.3573
L44.5950 2.3573
" />
<path d="M44.5950 2.3573
L44.7159 2.4178
" />
<path d="M44.7159 2.4178
L44.7764 2.4783
" />
<path d="M44.7764 2.4783
L44.8369 2.5992
" />
<path d="M44.8369 2.5992
L44.8369 2.7202
" />
<path d="M44.8369 2.7202
L44.7764 2.9016
" />
<path d="M44.7764 2.9016
L44.0507 3.6273
" />
<path d="M44.0507 3.6273
L44.8369 3.6273
" />
<path d="M45.6230 2.3573
L45.7440 2.3573
" />
<path d="M45.7440 2.3573
L45.8649 2.4178
" />
<path d="M45.8649 2.4178
L45.9254 2.4783
" />
<path d="M45.9254 2.4783
L45.9859 2.5992
" />
<path d="M45.9859 2.5992
L46.0464 2.8411
" />
<path d="M46.0464 2.8411
L46.0464 3.1435
" />
<path d="M46.0464 3.1435
L45.9859 3.3854
" />
<path d="M45.9859 3.3854
L45.9254 3.5064
" />
<path d="M45.9254 3.5064
L45.8649 3.5669
" />
<path d="M45.8649 3.5669
L45.7440 3.6273
" />
<path d="M45.7440 3.6273
L45.6230 3.6273
" />
<path d="M45.6230 3.6273
L45.5021 3.5669
" />
<path d="M45.5021 3.5669
L45.4416 3.5064
" />
<path d="M45.4416 3.5064
L45.3811 3.3854
" />
<path d="M45.3811 3.3854
L45.3207 3.1435
" />
<path d="M45.3207 3.1435
L45.3207 2.8411
" />
<path d="M45.3207 2.8411
L45.3811 2.5992
" />
<path d="M45.3811 2.5992
L45.4416 2.4783
" />
<path d="M45.4416 2.4783
L45.5021 2.4178
" />
<path d="M45.5021 2.4178
L45.6230 2.3573
" />
<path d="M46.5906 3.6273
L46.5906 2.3573
" />
<path d="M47.3163 3.6273
L46.7721 2.9016
" />
<path d="M47.3163 2.3573
L46.5906 3.0830
" />
<path d="M47.8606 3.1435
L48.8283 3.1435
" />
<path d="M49.2516 2.3573
L49.9773 2.3573
" />
<path d="M49.6145 3.6273
L49.6145 2.3573
" />
</g></g>
<g style="fill:#840084; fill-opacity:0.0; 
stroke:#840084; stroke-width:0.1588; stroke-opacity:1; 
stroke-linecap:round; stroke-linejoin:round;">
<text x="37.7975" y="12.3191"
textLength="55.6181" font-size="1.6933" lengthAdjust="spacingAndGlyphs"
text-anchor="middle" opacity="0">Oscillator:Oscillator_SMD_Kyocera_2520-6Pin_2.5x2.0mm</text>
<g class="stroked-text"><desc>Oscillator:Oscillator_SMD_Kyocera_2520-6Pin_2.5x2.0mm</desc>
<path d="M10.6439 10.9933
L10.8858 10.9933
" />
<path d="M10.8858 10.9933
L11.0068 11.0538
" />
<path d="M11.0068 11.0538
L11.1277 11.1748
" />
<path d="M11.1277 11.1748
L11.1882 11.4167
" />
<path d="M11.1882 11.4167
L11.1882 11.8400
" />
<path d="M11.1882 11.8400
L11.1277 12.0819
" />
<path d="M11.1277 12.0819
L11.0068 12.2029
" />
<path d="M11.0068 12.2029
L10.8858 12.2633
" />
<path d="M10.8858 12.2633
L10.6439 12.2633
" />
<path d="M10.6439 12.2633
L10.5230 12.2029
" />
<path d="M10.5230 12.2029
L10.4020 12.0819
" />
<path d="M10.4020 12.0819
L10.3416 11.8400
" />
<path d="M10.3416 11.8400
L10.3416 11.4167
" />
<path d="M10.3416 11.4167
L10.4020 11.1748
" />
<path d="M10.4020 11.1748
L10.5230 11.0538
" />
<path d="M10.5230 11.0538
L10.6439 10.9933
" />
<path d="M11.6721 12.2029
L11.7930 12.2633
" />
<path d="M11.7930 12.2633
L12.0349 12.2633
" />
<path d="M12.0349 12.2633
L12.1559 12.2029
" />
<path d="M12.1559 12.2029
L12.2163 12.0819
" />
<path d="M12.2163 12.0819
L12.2163 12.0214
" />
<path d="M12.2163 12.0214
L12.1559 11.9005
" />
<path d="M12.1559 11.9005
L12.0349 11.8400
" />
<path d="M12.0349 11.8400
L11.8535 11.8400
" />
<path d="M11.8535 11.8400
L11.7325 11.7795
" />
<path d="M11.7325 11.7795
L11.6721 11.6586
" />
<path d="M11.6721 11.6586
L11.6721 11.5981
" />
<path d="M11.6721 11.5981
L11.7325 11.4771
" />
<path d="M11.7325 11.4771
L11.8535 11.4167
" />
<path d="M11.8535 11.4167
L12.0349 11.4167
" />
<path d="M12.0349 11.4167
L12.1559 11.4771
" />
<path d="M13.3049 12.2029
L13.1840 12.2633
" />
<path d="M13.1840 12.2633
L12.9421 12.2633
" />
<path d="M12.9421 12.2633
L12.8211 12.2029
" />
<path d="M12.8211 12.2029
L12.7606 12.1424
" />
<path d="M12.7606 12.1424
L12.7002 12.0214
" />
<path d="M12.7002 12.0214
L12.7002 11.6586
" />
<path d="M12.7002 11.6586
L12.7606 11.5376
" />
<path d="M12.7606 11.5376
L12.8211 11.4771
" />
<path d="M12.8211 11.4771
L12.9421 11.4167
" />
<path d="M12.9421 11.4167
L13.1840 11.4167
" />
<path d="M13.1840 11.4167
L13.3049 11.4771
" />
<path d="M13.8492 12.2633
L13.8492 11.4167
" />
<path d="M13.8492 10.9933
L13.7888 11.0538
" />
<path d="M13.7888 11.0538
L13.8492 11.1143
" />
<path d="M13.8492 11.1143
L13.9097 11.0538
" />
<path d="M13.9097 11.0538
L13.8492 10.9933
" />
<path d="M13.8492 10.9933
L13.8492 11.1143
" />
<path d="M14.6355 12.2633
L14.5145 12.2029
" />
<path d="M14.5145 12.2029
L14.4540 12.0819
" />
<path d="M14.4540 12.0819
L14.4540 10.9933
" />
<path d="M15.3007 12.2633
L15.1797 12.2029
" />
<path d="M15.1797 12.2029
L15.1192 12.0819
" />
<path d="M15.1192 12.0819
L15.1192 10.9933
" />
<path d="M16.3287 12.2633
L16.3287 11.5981
" />
<path d="M16.3287 11.5981
L16.2682 11.4771
" />
<path d="M16.2682 11.4771
L16.1473 11.4167
" />
<path d="M16.1473 11.4167
L15.9054 11.4167
" />
<path d="M15.9054 11.4167
L15.7844 11.4771
" />
<path d="M16.3287 12.2029
L16.2078 12.2633
" />
<path d="M16.2078 12.2633
L15.9054 12.2633
" />
<path d="M15.9054 12.2633
L15.7844 12.2029
" />
<path d="M15.7844 12.2029
L15.7240 12.0819
" />
<path d="M15.7240 12.0819
L15.7240 11.9609
" />
<path d="M15.7240 11.9609
L15.7844 11.8400
" />
<path d="M15.7844 11.8400
L15.9054 11.7795
" />
<path d="M15.9054 11.7795
L16.2078 11.7795
" />
<path d="M16.2078 11.7795
L16.3287 11.7190
" />
<path d="M16.7520 11.4167
L17.2358 11.4167
" />
<path d="M16.9334 10.9933
L16.9334 12.0819
" />
<path d="M16.9334 12.0819
L16.9939 12.2029
" />
<path d="M16.9939 12.2029
L17.1149 12.2633
" />
<path d="M17.1149 12.2633
L17.2358 12.2633
" />
<path d="M17.8406 12.2633
L17.7196 12.2029
" />
<path d="M17.7196 12.2029
L17.6591 12.1424
" />
<path d="M17.6591 12.1424
L17.5987 12.0214
" />
<path d="M17.5987 12.0214
L17.5987 11.6586
" />
<path d="M17.5987 11.6586
L17.6591 11.5376
" />
<path d="M17.6591 11.5376
L17.7196 11.4771
" />
<path d="M17.7196 11.4771
L17.8406 11.4167
" />
<path d="M17.8406 11.4167
L18.0220 11.4167
" />
<path d="M18.0220 11.4167
L18.1429 11.4771
" />
<path d="M18.1429 11.4771
L18.2034 11.5376
" />
<path d="M18.2034 11.5376
L18.2639 11.6586
" />
<path d="M18.2639 11.6586
L18.2639 12.0214
" />
<path d="M18.2639 12.0214
L18.2034 12.1424
" />
<path d="M18.2034 12.1424
L18.1429 12.2029
" />
<path d="M18.1429 12.2029
L18.0220 12.2633
" />
<path d="M18.0220 12.2633
L17.8406 12.2633
" />
<path d="M18.8081 12.2633
L18.8081 11.4167
" />
<path d="M18.8081 11.6586
L18.8686 11.5376
" />
<path d="M18.8686 11.5376
L18.9291 11.4771
" />
<path d="M18.9291 11.4771
L19.0500 11.4167
" />
<path d="M19.0500 11.4167
L19.1710 11.4167
" />
<path d="M19.5943 12.1424
L19.6548 12.2029
" />
<path d="M19.6548 12.2029
L19.5943 12.2633
" />
<path d="M19.5943 12.2633
L19.5339 12.2029
" />
<path d="M19.5339 12.2029
L19.5943 12.1424
" />
<path d="M19.5943 12.1424
L19.5943 12.2633
" />
<path d="M19.5943 11.4771
L19.6548 11.5376
" />
<path d="M19.6548 11.5376
L19.5943 11.5981
" />
<path d="M19.5943 11.5981
L19.5339 11.5376
" />
<path d="M19.5339 11.5376
L19.5943 11.4771
" />
<path d="M19.5943 11.4771
L19.5943 11.5981
" />
<path d="M20.4410 10.9933
L20.6829 10.9933
" />
<path d="M20.6829 10.9933
L20.8039 11.0538
" />
<path d="M20.8039 11.0538
L20.9248 11.1748
" />
<path d="M20.9248 11.1748
L20.9853 11.4167
" />
<path d="M20.9853 11.4167
L20.9853 11.8400
" />
<path d="M20.9853 11.8400
L20.9248 12.0819
" />
<path d="M20.9248 12.0819
L20.8039 12.2029
" />
<path d="M20.8039 12.2029
L20.6829 12.2633
" />
<path d="M20.6829 12.2633
L20.4410 12.2633
" />
<path d="M20.4410 12.2633
L20.3201 12.2029
" />
<path d="M20.3201 12.2029
L20.1991 12.0819
" />
<path d="M20.1991 12.0819
L20.1387 11.8400
" />
<path d="M20.1387 11.8400
L20.1387 11.4167
" />
<path d="M20.1387 11.4167
L20.1991 11.1748
" />
<path d="M20.1991 11.1748
L20.3201 11.0538
" />
<path d="M20.3201 11.0538
L20.4410 10.9933
" />
<path d="M21.4692 12.2029
L21.5901 12.2633
" />
<path d="M21.5901 12.2633
L21.8320 12.2633
" />
<path d="M21.8320 12.2633
L21.9530 12.2029
" />
<path d="M21.9530 12.2029
L22.0134 12.0819
" />
<path d="M22.0134 12.0819
L22.0134 12.0214
" />
<path d="M22.0134 12.0214
L21.9530 11.9005
" />
<path d="M21.9530 11.9005
L21.8320 11.8400
" />
<path d="M21.8320 11.8400
L21.6506 11.8400
" />
<path d="M21.6506 11.8400
L21.5296 11.7795
" />
<path d="M21.5296 11.7795
L21.4692 11.6586
" />
<path d="M21.4692 11.6586
L21.4692 11.5981
" />
<path d="M21.4692 11.5981
L21.5296 11.4771
" />
<path d="M21.5296 11.4771
L21.6506 11.4167
" />
<path d="M21.6506 11.4167
L21.8320 11.4167
" />
<path d="M21.8320 11.4167
L21.9530 11.4771
" />
<path d="M23.1020 12.2029
L22.9811 12.2633
" />
<path d="M22.9811 12.2633
L22.7392 12.2633
" />
<path d="M22.7392 12.2633
L22.6182 12.2029
" />
<path d="M22.6182 12.2029
L22.5577 12.1424
" />
<path d="M22.5577 12.1424
L22.4973 12.0214
" />
<path d="M22.4973 12.0214
L22.4973 11.6586
" />
<path d="M22.4973 11.6586
L22.5577 11.5376
" />
<path d="M22.5577 11.5376
L22.6182 11.4771
" />
<path d="M22.6182 11.4771
L22.7392 11.4167
" />
<path d="M22.7392 11.4167
L22.9811 11.4167
" />
<path d="M22.9811 11.4167
L23.1020 11.4771
" />
<path d="M23.6463 12.2633
L23.6463 11.4167
" />
<path d="M23.6463 10.9933
L23.5859 11.0538
" />
<path d="M23.5859 11.0538
L23.6463 11.1143
" />
<path d="M23.6463 11.1143
L23.7068 11.0538
" />
<path d="M23.7068 11.0538
L23.6463 10.9933
" />
<path d="M23.6463 10.9933
L23.6463 11.1143
" />
<path d="M24.4326 12.2633
L24.3116 12.2029
" />
<path d="M24.3116 12.2029
L24.2511 12.0819
" />
<path d="M24.2511 12.0819
L24.2511 10.9933
" />
<path d="M25.0978 12.2633
L24.9768 12.2029
" />
<path d="M24.9768 12.2029
L24.9163 12.0819
" />
<path d="M24.9163 12.0819
L24.9163 10.9933
" />
<path d="M26.1258 12.2633
L26.1258 11.5981
" />
<path d="M26.1258 11.5981
L26.0653 11.4771
" />
<path d="M26.0653 11.4771
L25.9444 11.4167
" />
<path d="M25.9444 11.4167
L25.7025 11.4167
" />
<path d="M25.7025 11.4167
L25.5815 11.4771
" />
<path d="M26.1258 12.2029
L26.0049 12.2633
" />
<path d="M26.0049 12.2633
L25.7025 12.2633
" />
<path d="M25.7025 12.2633
L25.5815 12.2029
" />
<path d="M25.5815 12.2029
L25.5211 12.0819
" />
<path d="M25.5211 12.0819
L25.5211 11.9609
" />
<path d="M25.5211 11.9609
L25.5815 11.8400
" />
<path d="M25.5815 11.8400
L25.7025 11.7795
" />
<path d="M25.7025 11.7795
L26.0049 11.7795
" />
<path d="M26.0049 11.7795
L26.1258 11.7190
" />
<path d="M26.5491 11.4167
L27.0329 11.4167
" />
<path d="M26.7305 10.9933
L26.7305 12.0819
" />
<path d="M26.7305 12.0819
L26.7910 12.2029
" />
<path d="M26.7910 12.2029
L26.9120 12.2633
" />
<path d="M26.9120 12.2633
L27.0329 12.2633
" />
<path d="M27.6377 12.2633
L27.5167 12.2029
" />
<path d="M27.5167 12.2029
L27.4562 12.1424
" />
<path d="M27.4562 12.1424
L27.3958 12.0214
" />
<path d="M27.3958 12.0214
L27.3958 11.6586
" />
<path d="M27.3958 11.6586
L27.4562 11.5376
" />
<path d="M27.4562 11.5376
L27.5167 11.4771
" />
<path d="M27.5167 11.4771
L27.6377 11.4167
" />
<path d="M27.6377 11.4167
L27.8191 11.4167
" />
<path d="M27.8191 11.4167
L27.9400 11.4771
" />
<path d="M27.9400 11.4771
L28.0005 11.5376
" />
<path d="M28.0005 11.5376
L28.0610 11.6586
" />
<path d="M28.0610 11.6586
L28.0610 12.0214
" />
<path d="M28.0610 12.0214
L28.0005 12.1424
" />
<path d="M28.0005 12.1424
L27.9400 12.2029
" />
<path d="M27.9400 12.2029
L27.8191 12.2633
" />
<path d="M27.8191 12.2633
L27.6377 12.2633
" />
<path d="M28.6052 12.2633
L28.6052 11.4167
" />
<path d="M28.6052 11.6586
L28.6657 11.5376
" />
<path d="M28.6657 11.5376
L28.7262 11.4771
" />
<path d="M28.7262 11.4771
L28.8471 11.4167
" />
<path d="M28.8471 11.4167
L28.9681 11.4167
" />
<path d="M29.0891 12.3843
L30.0567 12.3843
" />
<path d="M30.2986 12.2029
L30.4800 12.2633
" />
<path d="M30.4800 12.2633
L30.7824 12.2633
" />
<path d="M30.7824 12.2633
L30.9033 12.2029
" />
<path d="M30.9033 12.2029
L30.9638 12.1424
" />
<path d="M30.9638 12.1424
L31.0243 12.0214
" />
<path d="M31.0243 12.0214
L31.0243 11.9005
" />
<path d="M31.0243 11.9005
L30.9638 11.7795
" />
<path d="M30.9638 11.7795
L30.9033 11.7190
" />
<path d="M30.9033 11.7190
L30.7824 11.6586
" />
<path d="M30.7824 11.6586
L30.5405 11.5981
" />
<path d="M30.5405 11.5981
L30.4195 11.5376
" />
<path d="M30.4195 11.5376
L30.3590 11.4771
" />
<path d="M30.3590 11.4771
L30.2986 11.3562
" />
<path d="M30.2986 11.3562
L30.2986 11.2352
" />
<path d="M30.2986 11.2352
L30.3590 11.1143
" />
<path d="M30.3590 11.1143
L30.4195 11.0538
" />
<path d="M30.4195 11.0538
L30.5405 10.9933
" />
<path d="M30.5405 10.9933
L30.8428 10.9933
" />
<path d="M30.8428 10.9933
L31.0243 11.0538
" />
<path d="M31.5685 12.2633
L31.5685 10.9933
" />
<path d="M31.5685 10.9933
L31.9919 11.9005
" />
<path d="M31.9919 11.9005
L32.4152 10.9933
" />
<path d="M32.4152 10.9933
L32.4152 12.2633
" />
<path d="M33.0199 12.2633
L33.0199 10.9933
" />
<path d="M33.0199 10.9933
L33.3223 10.9933
" />
<path d="M33.3223 10.9933
L33.5037 11.0538
" />
<path d="M33.5037 11.0538
L33.6247 11.1748
" />
<path d="M33.6247 11.1748
L33.6852 11.2957
" />
<path d="M33.6852 11.2957
L33.7456 11.5376
" />
<path d="M33.7456 11.5376
L33.7456 11.7190
" />
<path d="M33.7456 11.7190
L33.6852 11.9609
" />
<path d="M33.6852 11.9609
L33.6247 12.0819
" />
<path d="M33.6247 12.0819
L33.5037 12.2029
" />
<path d="M33.5037 12.2029
L33.3223 12.2633
" />
<path d="M33.3223 12.2633
L33.0199 12.2633
" />
<path d="M33.9876 12.3843
L34.9552 12.3843
" />
<path d="M35.2575 12.2633
L35.2575 10.9933
" />
<path d="M35.9832 12.2633
L35.4390 11.5376
" />
<path d="M35.9832 10.9933
L35.2575 11.7190
" />
<path d="M36.4066 11.4167
L36.7090 12.2633
" />
<path d="M37.0113 11.4167
L36.7090 12.2633
" />
<path d="M36.7090 12.2633
L36.5880 12.5657
" />
<path d="M36.5880 12.5657
L36.5275 12.6262
" />
<path d="M36.5275 12.6262
L36.4066 12.6867
" />
<path d="M37.6766 12.2633
L37.5556 12.2029
" />
<path d="M37.5556 12.2029
L37.4951 12.1424
" />
<path d="M37.4951 12.1424
L37.4347 12.0214
" />
<path d="M37.4347 12.0214
L37.4347 11.6586
" />
<path d="M37.4347 11.6586
L37.4951 11.5376
" />
<path d="M37.4951 11.5376
L37.5556 11.4771
" />
<path d="M37.5556 11.4771
L37.6766 11.4167
" />
<path d="M37.6766 11.4167
L37.8580 11.4167
" />
<path d="M37.8580 11.4167
L37.9789 11.4771
" />
<path d="M37.9789 11.4771
L38.0394 11.5376
" />
<path d="M38.0394 11.5376
L38.0999 11.6586
" />
<path d="M38.0999 11.6586
L38.0999 12.0214
" />
<path d="M38.0999 12.0214
L38.0394 12.1424
" />
<path d="M38.0394 12.1424
L37.9789 12.2029
" />
<path d="M37.9789 12.2029
L37.8580 12.2633
" />
<path d="M37.8580 12.2633
L37.6766 12.2633
" />
<path d="M39.1884 12.2029
L39.0675 12.2633
" />
<path d="M39.0675 12.2633
L38.8256 12.2633
" />
<path d="M38.8256 12.2633
L38.7046 12.2029
" />
<path d="M38.7046 12.2029
L38.6441 12.1424
" />
<path d="M38.6441 12.1424
L38.5837 12.0214
" />
<path d="M38.5837 12.0214
L38.5837 11.6586
" />
<path d="M38.5837 11.6586
L38.6441 11.5376
" />
<path d="M38.6441 11.5376
L38.7046 11.4771
" />
<path d="M38.7046 11.4771
L38.8256 11.4167
" />
<path d="M38.8256 11.4167
L39.0675 11.4167
" />
<path d="M39.0675 11.4167
L39.1884 11.4771
" />
<path d="M40.2165 12.2029
L40.0956 12.2633
" />
<path d="M40.0956 12.2633
L39.8537 12.2633
" />
<path d="M39.8537 12.2633
L39.7327 12.2029
" />
<path d="M39.7327 12.2029
L39.6723 12.0819
" />
<path d="M39.6723 12.0819
L39.6723 11.5981
" />
<path d="M39.6723 11.5981
L39.7327 11.4771
" />
<path d="M39.7327 11.4771
L39.8537 11.4167
" />
<path d="M39.8537 11.4167
L40.0956 11.4167
" />
<path d="M40.0956 11.4167
L40.2165 11.4771
" />
<path d="M40.2165 11.4771
L40.2770 11.5981
" />
<path d="M40.2770 11.5981
L40.2770 11.7190
" />
<path d="M40.2770 11.7190
L39.6723 11.8400
" />
<path d="M40.8213 12.2633
L40.8213 11.4167
" />
<path d="M40.8213 11.6586
L40.8818 11.5376
" />
<path d="M40.8818 11.5376
L40.9423 11.4771
" />
<path d="M40.9423 11.4771
L41.0632 11.4167
" />
<path d="M41.0632 11.4167
L41.1842 11.4167
" />
<path d="M42.1518 12.2633
L42.1518 11.5981
" />
<path d="M42.1518 11.5981
L42.0913 11.4771
" />
<path d="M42.0913 11.4771
L41.9704 11.4167
" />
<path d="M41.9704 11.4167
L41.7285 11.4167
" />
<path d="M41.7285 11.4167
L41.6075 11.4771
" />
<path d="M42.1518 12.2029
L42.0309 12.2633
" />
<path d="M42.0309 12.2633
L41.7285 12.2633
" />
<path d="M41.7285 12.2633
L41.6075 12.2029
" />
<path d="M41.6075 12.2029
L41.5471 12.0819
" />
<path d="M41.5471 12.0819
L41.5471 11.9609
" />
<path d="M41.5471 11.9609
L41.6075 11.8400
" />
<path d="M41.6075 11.8400
L41.7285 11.7795
" />
<path d="M41.7285 11.7795
L42.0309 11.7795
" />
<path d="M42.0309 11.7795
L42.1518 11.7190
" />
<path d="M42.4542 12.3843
L43.4218 12.3843
" />
<path d="M43.6637 11.1143
L43.7241 11.0538
" />
<path d="M43.7241 11.0538
L43.8451 10.9933
" />
<path d="M43.8451 10.9933
L44.1475 10.9933
" />
<path d="M44.1475 10.9933
L44.2684 11.0538
" />
<path d="M44.2684 11.0538
L44.3289 11.1143
" />
<path d="M44.3289 11.1143
L44.3894 11.2352
" />
<path d="M44.3894 11.2352
L44.3894 11.3562
" />
<path d="M44.3894 11.3562
L44.3289 11.5376
" />
<path d="M44.3289 11.5376
L43.6032 12.2633
" />
<path d="M43.6032 12.2633
L44.3894 12.2633
" />
<path d="M45.5384 10.9933
L44.9336 10.9933
" />
<path d="M44.9336 10.9933
L44.8732 11.5981
" />
<path d="M44.8732 11.5981
L44.9336 11.5376
" />
<path d="M44.9336 11.5376
L45.0546 11.4771
" />
<path d="M45.0546 11.4771
L45.3570 11.4771
" />
<path d="M45.3570 11.4771
L45.4779 11.5376
" />
<path d="M45.4779 11.5376
L45.5384 11.5981
" />
<path d="M45.5384 11.5981
L45.5989 11.7190
" />
<path d="M45.5989 11.7190
L45.5989 12.0214
" />
<path d="M45.5989 12.0214
L45.5384 12.1424
" />
<path d="M45.5384 12.1424
L45.4779 12.2029
" />
<path d="M45.4779 12.2029
L45.3570 12.2633
" />
<path d="M45.3570 12.2633
L45.0546 12.2633
" />
<path d="M45.0546 12.2633
L44.9336 12.2029
" />
<path d="M44.9336 12.2029
L44.8732 12.1424
" />
<path d="M46.0827 11.1143
L46.1431 11.0538
" />
<path d="M46.1431 11.0538
L46.2641 10.9933
" />
<path d="M46.2641 10.9933
L46.5665 10.9933
" />
<path d="M46.5665 10.9933
L46.6874 11.0538
" />
<path d="M46.6874 11.0538
L46.7479 11.1143
" />
<path d="M46.7479 11.1143
L46.8084 11.2352
" />
<path d="M46.8084 11.2352
L46.8084 11.3562
" />
<path d="M46.8084 11.3562
L46.7479 11.5376
" />
<path d="M46.7479 11.5376
L46.0222 12.2633
" />
<path d="M46.0222 12.2633
L46.8084 12.2633
" />
<path d="M47.5945 10.9933
L47.7155 10.9933
" />
<path d="M47.7155 10.9933
L47.8364 11.0538
" />
<path d="M47.8364 11.0538
L47.8969 11.1143
" />
<path d="M47.8969 11.1143
L47.9574 11.2352
" />
<path d="M47.9574 11.2352
L48.0179 11.4771
" />
<path d="M48.0179 11.4771
L48.0179 11.7795
" />
<path d="M48.0179 11.7795
L47.9574 12.0214
" />
<path d="M47.9574 12.0214
L47.8969 12.1424
" />
<path d="M47.8969 12.1424
L47.8364 12.2029
" />
<path d="M47.8364 12.2029
L47.7155 12.2633
" />
<path d="M47.7155 12.2633
L47.5945 12.2633
" />
<path d="M47.5945 12.2633
L47.4736 12.2029
" />
<path d="M47.4736 12.2029
L47.4131 12.1424
" />
<path d="M47.4131 12.1424
L47.3526 12.0214
" />
<path d="M47.3526 12.0214
L47.2922 11.7795
" />
<path d="M47.2922 11.7795
L47.2922 11.4771
" />
<path d="M47.2922 11.4771
L47.3526 11.2352
" />
<path d="M47.3526 11.2352
L47.4131 11.1143
" />
<path d="M47.4131 11.1143
L47.4736 11.0538
" />
<path d="M47.4736 11.0538
L47.5945 10.9933
" />
<path d="M48.5621 11.7795
L49.5298 11.7795
" />
<path d="M50.6788 10.9933
L50.4369 10.9933
" />
<path d="M50.4369 10.9933
L50.3160 11.0538
" />
<path d="M50.3160 11.0538
L50.2555 11.1143
" />
<path d="M50.2555 11.1143
L50.1345 11.2957
" />
<path d="M50.1345 11.2957
L50.0741 11.5376
" />
<path d="M50.0741 11.5376
L50.0741 12.0214
" />
<path d="M50.0741 12.0214
L50.1345 12.1424
" />
<path d="M50.1345 12.1424
L50.1950 12.2029
" />
<path d="M50.1950 12.2029
L50.3160 12.2633
" />
<path d="M50.3160 12.2633
L50.5579 12.2633
" />
<path d="M50.5579 12.2633
L50.6788 12.2029
" />
<path d="M50.6788 12.2029
L50.7393 12.1424
" />
<path d="M50.7393 12.1424
L50.7998 12.0214
" />
<path d="M50.7998 12.0214
L50.7998 11.7190
" />
<path d="M50.7998 11.7190
L50.7393 11.5981
" />
<path d="M50.7393 11.5981
L50.6788 11.5376
" />
<path d="M50.6788 11.5376
L50.5579 11.4771
" />
<path d="M50.5579 11.4771
L50.3160 11.4771
" />
<path d="M50.3160 11.4771
L50.1950 11.5376
" />
<path d="M50.1950 11.5376
L50.1345 11.5981
" />
<path d="M50.1345 11.5981
L50.0741 11.7190
" />
<path d="M51.3440 12.2633
L51.3440 10.9933
" />
<path d="M51.3440 10.9933
L51.8278 10.9933
" />
<path d="M51.8278 10.9933
L51.9488 11.0538
" />
<path d="M51.9488 11.0538
L52.0093 11.1143
" />
<path d="M52.0093 11.1143
L52.0697 11.2352
" />
<path d="M52.0697 11.2352
L52.0697 11.4167
" />
<path d="M52.0697 11.4167
L52.0093 11.5376
" />
<path d="M52.0093 11.5376
L51.9488 11.5981
" />
<path d="M51.9488 11.5981
L51.8278 11.6586
" />
<path d="M51.8278 11.6586
L51.3440 11.6586
" />
<path d="M52.6140 12.2633
L52.6140 11.4167
" />
<path d="M52.6140 10.9933
L52.5536 11.0538
" />
<path d="M52.5536 11.0538
L52.6140 11.1143
" />
<path d="M52.6140 11.1143
L52.6745 11.0538
" />
<path d="M52.6745 11.0538
L52.6140 10.9933
" />
<path d="M52.6140 10.9933
L52.6140 11.1143
" />
<path d="M53.2188 11.4167
L53.2188 12.2633
" />
<path d="M53.2188 11.5376
L53.2793 11.4771
" />
<path d="M53.2793 11.4771
L53.4003 11.4167
" />
<path d="M53.4003 11.4167
L53.5817 11.4167
" />
<path d="M53.5817 11.4167
L53.7026 11.4771
" />
<path d="M53.7026 11.4771
L53.7631 11.5981
" />
<path d="M53.7631 11.5981
L53.7631 12.2633
" />
<path d="M54.0655 12.3843
L55.0331 12.3843
" />
<path d="M55.2750 11.1143
L55.3354 11.0538
" />
<path d="M55.3354 11.0538
L55.4564 10.9933
" />
<path d="M55.4564 10.9933
L55.7588 10.9933
" />
<path d="M55.7588 10.9933
L55.8797 11.0538
" />
<path d="M55.8797 11.0538
L55.9402 11.1143
" />
<path d="M55.9402 11.1143
L56.0007 11.2352
" />
<path d="M56.0007 11.2352
L56.0007 11.3562
" />
<path d="M56.0007 11.3562
L55.9402 11.5376
" />
<path d="M55.9402 11.5376
L55.2145 12.2633
" />
<path d="M55.2145 12.2633
L56.0007 12.2633
" />
<path d="M56.5449 12.1424
L56.6054 12.2029
" />
<path d="M56.6054 12.2029
L56.5449 12.2633
" />
<path d="M56.5449 12.2633
L56.4845 12.2029
" />
<path d="M56.4845 12.2029
L56.5449 12.1424
" />
<path d="M56.5449 12.1424
L56.5449 12.2633
" />
<path d="M57.7545 10.9933
L57.1497 10.9933
" />
<path d="M57.1497 10.9933
L57.0893 11.5981
" />
<path d="M57.0893 11.5981
L57.1497 11.5376
" />
<path d="M57.1497 11.5376
L57.2707 11.4771
" />
<path d="M57.2707 11.4771
L57.5731 11.4771
" />
<path d="M57.5731 11.4771
L57.6940 11.5376
" />
<path d="M57.6940 11.5376
L57.7545 11.5981
" />
<path d="M57.7545 11.5981
L57.8150 11.7190
" />
<path d="M57.8150 11.7190
L57.8150 12.0214
" />
<path d="M57.8150 12.0214
L57.7545 12.1424
" />
<path d="M57.7545 12.1424
L57.6940 12.2029
" />
<path d="M57.6940 12.2029
L57.5731 12.2633
" />
<path d="M57.5731 12.2633
L57.2707 12.2633
" />
<path d="M57.2707 12.2633
L57.1497 12.2029
" />
<path d="M57.1497 12.2029
L57.0893 12.1424
" />
<path d="M58.2383 12.2633
L58.9035 11.4167
" />
<path d="M58.2383 11.4167
L58.9035 12.2633
" />
<path d="M59.3269 11.1143
L59.3873 11.0538
" />
<path d="M59.3873 11.0538
L59.5083 10.9933
" />
<path d="M59.5083 10.9933
L59.8107 10.9933
" />
<path d="M59.8107 10.9933
L59.9316 11.0538
" />
<path d="M59.9316 11.0538
L59.9921 11.1143
" />
<path d="M59.9921 11.1143
L60.0526 11.2352
" />
<path d="M60.0526 11.2352
L60.0526 11.3562
" />
<path d="M60.0526 11.3562
L59.9921 11.5376
" />
<path d="M59.9921 11.5376
L59.2664 12.2633
" />
<path d="M59.2664 12.2633
L60.0526 12.2633
" />
<path d="M60.5968 12.1424
L60.6573 12.2029
" />
<path d="M60.6573 12.2029
L60.5968 12.2633
" />
<path d="M60.5968 12.2633
L60.5364 12.2029
" />
<path d="M60.5364 12.2029
L60.5968 12.1424
" />
<path d="M60.5968 12.1424
L60.5968 12.2633
" />
<path d="M61.4435 10.9933
L61.5645 10.9933
" />
<path d="M61.5645 10.9933
L61.6854 11.0538
" />
<path d="M61.6854 11.0538
L61.7459 11.1143
" />
<path d="M61.7459 11.1143
L61.8064 11.2352
" />
<path d="M61.8064 11.2352
L61.8669 11.4771
" />
<path d="M61.8669 11.4771
L61.8669 11.7795
" />
<path d="M61.8669 11.7795
L61.8064 12.0214
" />
<path d="M61.8064 12.0214
L61.7459 12.1424
" />
<path d="M61.7459 12.1424
L61.6854 12.2029
" />
<path d="M61.6854 12.2029
L61.5645 12.2633
" />
<path d="M61.5645 12.2633
L61.4435 12.2633
" />
<path d="M61.4435 12.2633
L61.3226 12.2029
" />
<path d="M61.3226 12.2029
L61.2621 12.1424
" />
<path d="M61.2621 12.1424
L61.2016 12.0214
" />
<path d="M61.2016 12.0214
L61.1412 11.7795
" />
<path d="M61.1412 11.7795
L61.1412 11.4771
" />
<path d="M61.1412 11.4771
L61.2016 11.2352
" />
<path d="M61.2016 11.2352
L61.2621 11.1143
" />
<path d="M61.2621 11.1143
L61.3226 11.0538
" />
<path d="M61.3226 11.0538
L61.4435 10.9933
" />
<path d="M62.4111 12.2633
L62.4111 11.4167
" />
<path d="M62.4111 11.5376
L62.4716 11.4771
" />
<path d="M62.4716 11.4771
L62.5926 11.4167
" />
<path d="M62.5926 11.4167
L62.7740 11.4167
" />
<path d="M62.7740 11.4167
L62.8949 11.4771
" />
<path d="M62.8949 11.4771
L62.9554 11.5981
" />
<path d="M62.9554 11.5981
L62.9554 12.2633
" />
<path d="M62.9554 11.5981
L63.0159 11.4771
" />
<path d="M63.0159 11.4771
L63.1368 11.4167
" />
<path d="M63.1368 11.4167
L63.3183 11.4167
" />
<path d="M63.3183 11.4167
L63.4392 11.4771
" />
<path d="M63.4392 11.4771
L63.4997 11.5981
" />
<path d="M63.4997 11.5981
L63.4997 12.2633
" />
<path d="M64.1044 12.2633
L64.1044 11.4167
" />
<path d="M64.1044 11.5376
L64.1649 11.4771
" />
<path d="M64.1649 11.4771
L64.2859 11.4167
" />
<path d="M64.2859 11.4167
L64.4673 11.4167
" />
<path d="M64.4673 11.4167
L64.5882 11.4771
" />
<path d="M64.5882 11.4771
L64.6487 11.5981
" />
<path d="M64.6487 11.5981
L64.6487 12.2633
" />
<path d="M64.6487 11.5981
L64.7092 11.4771
" />
<path d="M64.7092 11.4771
L64.8301 11.4167
" />
<path d="M64.8301 11.4167
L65.0116 11.4167
" />
<path d="M65.0116 11.4167
L65.1325 11.4771
" />
<path d="M65.1325 11.4771
L65.1930 11.5981
" />
<path d="M65.1930 11.5981
L65.1930 12.2633
" />
</g><text x="40.3375" y="9.7791"
textLength="67.2293" font-size="1.6933" lengthAdjust="spacingAndGlyphs"
text-anchor="middle" opacity="0">https://global.kyocera.com/prdct/electro/product/pdf/kt2520_e.pdf</text>
<g class="stroked-text"><desc>https://global.kyocera.com/prdct/electro/product/pdf/kt2520_e.pdf</desc>
<path d="M7.1364 9.7233
L7.1364 8.4533
" />
<path d="M7.6807 9.7233
L7.6807 9.0581
" />
<path d="M7.6807 9.0581
L7.6202 8.9371
" />
<path d="M7.6202 8.9371
L7.4993 8.8767
" />
<path d="M7.4993 8.8767
L7.3179 8.8767
" />
<path d="M7.3179 8.8767
L7.1969 8.9371
" />
<path d="M7.1969 8.9371
L7.1364 8.9976
" />
<path d="M8.1040 8.8767
L8.5878 8.8767
" />
<path d="M8.2854 8.4533
L8.2854 9.5419
" />
<path d="M8.2854 9.5419
L8.3459 9.6629
" />
<path d="M8.3459 9.6629
L8.4669 9.7233
" />
<path d="M8.4669 9.7233
L8.5878 9.7233
" />
<path d="M8.8297 8.8767
L9.3135 8.8767
" />
<path d="M9.0111 8.4533
L9.0111 9.5419
" />
<path d="M9.0111 9.5419
L9.0716 9.6629
" />
<path d="M9.0716 9.6629
L9.1926 9.7233
" />
<path d="M9.1926 9.7233
L9.3135 9.7233
" />
<path d="M9.7368 8.8767
L9.7368 10.1467
" />
<path d="M9.7368 8.9371
L9.8578 8.8767
" />
<path d="M9.8578 8.8767
L10.0997 8.8767
" />
<path d="M10.0997 8.8767
L10.2206 8.9371
" />
<path d="M10.2206 8.9371
L10.2811 8.9976
" />
<path d="M10.2811 8.9976
L10.3416 9.1186
" />
<path d="M10.3416 9.1186
L10.3416 9.4814
" />
<path d="M10.3416 9.4814
L10.2811 9.6024
" />
<path d="M10.2811 9.6024
L10.2206 9.6629
" />
<path d="M10.2206 9.6629
L10.0997 9.7233
" />
<path d="M10.0997 9.7233
L9.8578 9.7233
" />
<path d="M9.8578 9.7233
L9.7368 9.6629
" />
<path d="M10.8254 9.6629
L10.9463 9.7233
" />
<path d="M10.9463 9.7233
L11.1882 9.7233
" />
<path d="M11.1882 9.7233
L11.3092 9.6629
" />
<path d="M11.3092 9.6629
L11.3696 9.5419
" />
<path d="M11.3696 9.5419
L11.3696 9.4814
" />
<path d="M11.3696 9.4814
L11.3092 9.3605
" />
<path d="M11.3092 9.3605
L11.1882 9.3000
" />
<path d="M11.1882 9.3000
L11.0068 9.3000
" />
<path d="M11.0068 9.3000
L10.8858 9.2395
" />
<path d="M10.8858 9.2395
L10.8254 9.1186
" />
<path d="M10.8254 9.1186
L10.8254 9.0581
" />
<path d="M10.8254 9.0581
L10.8858 8.9371
" />
<path d="M10.8858 8.9371
L11.0068 8.8767
" />
<path d="M11.0068 8.8767
L11.1882 8.8767
" />
<path d="M11.1882 8.8767
L11.3092 8.9371
" />
<path d="M11.9139 9.6024
L11.9744 9.6629
" />
<path d="M11.9744 9.6629
L11.9139 9.7233
" />
<path d="M11.9139 9.7233
L11.8535 9.6629
" />
<path d="M11.8535 9.6629
L11.9139 9.6024
" />
<path d="M11.9139 9.6024
L11.9139 9.7233
" />
<path d="M11.9139 8.9371
L11.9744 8.9976
" />
<path d="M11.9744 8.9976
L11.9139 9.0581
" />
<path d="M11.9139 9.0581
L11.8535 8.9976
" />
<path d="M11.8535 8.9976
L11.9139 8.9371
" />
<path d="M11.9139 8.9371
L11.9139 9.0581
" />
<path d="M13.4259 8.3929
L12.3373 10.0257
" />
<path d="M14.7564 8.3929
L13.6678 10.0257
" />
<path d="M15.7240 8.8767
L15.7240 9.9048
" />
<path d="M15.7240 9.9048
L15.6635 10.0257
" />
<path d="M15.6635 10.0257
L15.6031 10.0862
" />
<path d="M15.6031 10.0862
L15.4821 10.1467
" />
<path d="M15.4821 10.1467
L15.3007 10.1467
" />
<path d="M15.3007 10.1467
L15.1797 10.0862
" />
<path d="M15.7240 9.6629
L15.6031 9.7233
" />
<path d="M15.6031 9.7233
L15.3612 9.7233
" />
<path d="M15.3612 9.7233
L15.2402 9.6629
" />
<path d="M15.2402 9.6629
L15.1797 9.6024
" />
<path d="M15.1797 9.6024
L15.1193 9.4814
" />
<path d="M15.1193 9.4814
L15.1193 9.1186
" />
<path d="M15.1193 9.1186
L15.1797 8.9976
" />
<path d="M15.1797 8.9976
L15.2402 8.9371
" />
<path d="M15.2402 8.9371
L15.3612 8.8767
" />
<path d="M15.3612 8.8767
L15.6031 8.8767
" />
<path d="M15.6031 8.8767
L15.7240 8.9371
" />
<path d="M16.5102 9.7233
L16.3892 9.6629
" />
<path d="M16.3892 9.6629
L16.3287 9.5419
" />
<path d="M16.3287 9.5419
L16.3287 8.4533
" />
<path d="M17.1754 9.7233
L17.0544 9.6629
" />
<path d="M17.0544 9.6629
L16.9939 9.6024
" />
<path d="M16.9939 9.6024
L16.9335 9.4814
" />
<path d="M16.9335 9.4814
L16.9335 9.1186
" />
<path d="M16.9335 9.1186
L16.9939 8.9976
" />
<path d="M16.9939 8.9976
L17.0544 8.9371
" />
<path d="M17.0544 8.9371
L17.1754 8.8767
" />
<path d="M17.1754 8.8767
L17.3568 8.8767
" />
<path d="M17.3568 8.8767
L17.4777 8.9371
" />
<path d="M17.4777 8.9371
L17.5382 8.9976
" />
<path d="M17.5382 8.9976
L17.5987 9.1186
" />
<path d="M17.5987 9.1186
L17.5987 9.4814
" />
<path d="M17.5987 9.4814
L17.5382 9.6024
" />
<path d="M17.5382 9.6024
L17.4777 9.6629
" />
<path d="M17.4777 9.6629
L17.3568 9.7233
" />
<path d="M17.3568 9.7233
L17.1754 9.7233
" />
<path d="M18.1429 9.7233
L18.1429 8.4533
" />
<path d="M18.1429 8.9371
L18.2639 8.8767
" />
<path d="M18.2639 8.8767
L18.5058 8.8767
" />
<path d="M18.5058 8.8767
L18.6267 8.9371
" />
<path d="M18.6267 8.9371
L18.6872 8.9976
" />
<path d="M18.6872 8.9976
L18.7477 9.1186
" />
<path d="M18.7477 9.1186
L18.7477 9.4814
" />
<path d="M18.7477 9.4814
L18.6872 9.6024
" />
<path d="M18.6872 9.6024
L18.6267 9.6629
" />
<path d="M18.6267 9.6629
L18.5058 9.7233
" />
<path d="M18.5058 9.7233
L18.2639 9.7233
" />
<path d="M18.2639 9.7233
L18.1429 9.6629
" />
<path d="M19.8362 9.7233
L19.8362 9.0581
" />
<path d="M19.8362 9.0581
L19.7757 8.9371
" />
<path d="M19.7757 8.9371
L19.6548 8.8767
" />
<path d="M19.6548 8.8767
L19.4129 8.8767
" />
<path d="M19.4129 8.8767
L19.2919 8.9371
" />
<path d="M19.8362 9.6629
L19.7153 9.7233
" />
<path d="M19.7153 9.7233
L19.4129 9.7233
" />
<path d="M19.4129 9.7233
L19.2919 9.6629
" />
<path d="M19.2919 9.6629
L19.2315 9.5419
" />
<path d="M19.2315 9.5419
L19.2315 9.4209
" />
<path d="M19.2315 9.4209
L19.2919 9.3000
" />
<path d="M19.2919 9.3000
L19.4129 9.2395
" />
<path d="M19.4129 9.2395
L19.7153 9.2395
" />
<path d="M19.7153 9.2395
L19.8362 9.1790
" />
<path d="M20.6224 9.7233
L20.5014 9.6629
" />
<path d="M20.5014 9.6629
L20.4409 9.5419
" />
<path d="M20.4409 9.5419
L20.4409 8.4533
" />
<path d="M21.1061 9.6024
L21.1666 9.6629
" />
<path d="M21.1666 9.6629
L21.1061 9.7233
" />
<path d="M21.1061 9.7233
L21.0457 9.6629
" />
<path d="M21.0457 9.6629
L21.1061 9.6024
" />
<path d="M21.1061 9.6024
L21.1061 9.7233
" />
<path d="M21.7109 9.7233
L21.7109 8.4533
" />
<path d="M21.8319 9.2395
L22.1947 9.7233
" />
<path d="M22.1947 8.8767
L21.7109 9.3605
" />
<path d="M22.6181 8.8767
L22.9205 9.7233
" />
<path d="M23.2228 8.8767
L22.9205 9.7233
" />
<path d="M22.9205 9.7233
L22.7995 10.0257
" />
<path d="M22.7995 10.0257
L22.7390 10.0862
" />
<path d="M22.7390 10.0862
L22.6181 10.1467
" />
<path d="M23.8881 9.7233
L23.7671 9.6629
" />
<path d="M23.7671 9.6629
L23.7066 9.6024
" />
<path d="M23.7066 9.6024
L23.6462 9.4814
" />
<path d="M23.6462 9.4814
L23.6462 9.1186
" />
<path d="M23.6462 9.1186
L23.7066 8.9976
" />
<path d="M23.7066 8.9976
L23.7671 8.9371
" />
<path d="M23.7671 8.9371
L23.8881 8.8767
" />
<path d="M23.8881 8.8767
L24.0695 8.8767
" />
<path d="M24.0695 8.8767
L24.1904 8.9371
" />
<path d="M24.1904 8.9371
L24.2509 8.9976
" />
<path d="M24.2509 8.9976
L24.3114 9.1186
" />
<path d="M24.3114 9.1186
L24.3114 9.4814
" />
<path d="M24.3114 9.4814
L24.2509 9.6024
" />
<path d="M24.2509 9.6024
L24.1904 9.6629
" />
<path d="M24.1904 9.6629
L24.0695 9.7233
" />
<path d="M24.0695 9.7233
L23.8881 9.7233
" />
<path d="M25.3999 9.6629
L25.2790 9.7233
" />
<path d="M25.2790 9.7233
L25.0371 9.7233
" />
<path d="M25.0371 9.7233
L24.9161 9.6629
" />
<path d="M24.9161 9.6629
L24.8556 9.6024
" />
<path d="M24.8556 9.6024
L24.7952 9.4814
" />
<path d="M24.7952 9.4814
L24.7952 9.1186
" />
<path d="M24.7952 9.1186
L24.8556 8.9976
" />
<path d="M24.8556 8.9976
L24.9161 8.9371
" />
<path d="M24.9161 8.9371
L25.0371 8.8767
" />
<path d="M25.0371 8.8767
L25.2790 8.8767
" />
<path d="M25.2790 8.8767
L25.3999 8.9371
" />
<path d="M26.4280 9.6629
L26.3071 9.7233
" />
<path d="M26.3071 9.7233
L26.0652 9.7233
" />
<path d="M26.0652 9.7233
L25.9442 9.6629
" />
<path d="M25.9442 9.6629
L25.8838 9.5419
" />
<path d="M25.8838 9.5419
L25.8838 9.0581
" />
<path d="M25.8838 9.0581
L25.9442 8.9371
" />
<path d="M25.9442 8.9371
L26.0652 8.8767
" />
<path d="M26.0652 8.8767
L26.3071 8.8767
" />
<path d="M26.3071 8.8767
L26.4280 8.9371
" />
<path d="M26.4280 8.9371
L26.4885 9.0581
" />
<path d="M26.4885 9.0581
L26.4885 9.1790
" />
<path d="M26.4885 9.1790
L25.8838 9.3000
" />
<path d="M27.0328 9.7233
L27.0328 8.8767
" />
<path d="M27.0328 9.1186
L27.0933 8.9976
" />
<path d="M27.0933 8.9976
L27.1538 8.9371
" />
<path d="M27.1538 8.9371
L27.2747 8.8767
" />
<path d="M27.2747 8.8767
L27.3957 8.8767
" />
<path d="M28.3633 9.7233
L28.3633 9.0581
" />
<path d="M28.3633 9.0581
L28.3028 8.9371
" />
<path d="M28.3028 8.9371
L28.1819 8.8767
" />
<path d="M28.1819 8.8767
L27.9400 8.8767
" />
<path d="M27.9400 8.8767
L27.8190 8.9371
" />
<path d="M28.3633 9.6629
L28.2424 9.7233
" />
<path d="M28.2424 9.7233
L27.9400 9.7233
" />
<path d="M27.9400 9.7233
L27.8190 9.6629
" />
<path d="M27.8190 9.6629
L27.7586 9.5419
" />
<path d="M27.7586 9.5419
L27.7586 9.4209
" />
<path d="M27.7586 9.4209
L27.8190 9.3000
" />
<path d="M27.8190 9.3000
L27.9400 9.2395
" />
<path d="M27.9400 9.2395
L28.2424 9.2395
" />
<path d="M28.2424 9.2395
L28.3633 9.1790
" />
<path d="M28.9680 9.6024
L29.0285 9.6629
" />
<path d="M29.0285 9.6629
L28.9680 9.7233
" />
<path d="M28.9680 9.7233
L28.9076 9.6629
" />
<path d="M28.9076 9.6629
L28.9680 9.6024
" />
<path d="M28.9680 9.6024
L28.9680 9.7233
" />
<path d="M30.1171 9.6629
L29.9962 9.7233
" />
<path d="M29.9962 9.7233
L29.7543 9.7233
" />
<path d="M29.7543 9.7233
L29.6333 9.6629
" />
<path d="M29.6333 9.6629
L29.5728 9.6024
" />
<path d="M29.5728 9.6024
L29.5124 9.4814
" />
<path d="M29.5124 9.4814
L29.5124 9.1186
" />
<path d="M29.5124 9.1186
L29.5728 8.9976
" />
<path d="M29.5728 8.9976
L29.6333 8.9371
" />
<path d="M29.6333 8.9371
L29.7543 8.8767
" />
<path d="M29.7543 8.8767
L29.9962 8.8767
" />
<path d="M29.9962 8.8767
L30.1171 8.9371
" />
<path d="M30.8429 9.7233
L30.7219 9.6629
" />
<path d="M30.7219 9.6629
L30.6614 9.6024
" />
<path d="M30.6614 9.6024
L30.6010 9.4814
" />
<path d="M30.6010 9.4814
L30.6010 9.1186
" />
<path d="M30.6010 9.1186
L30.6614 8.9976
" />
<path d="M30.6614 8.9976
L30.7219 8.9371
" />
<path d="M30.7219 8.9371
L30.8429 8.8767
" />
<path d="M30.8429 8.8767
L31.0243 8.8767
" />
<path d="M31.0243 8.8767
L31.1452 8.9371
" />
<path d="M31.1452 8.9371
L31.2057 8.9976
" />
<path d="M31.2057 8.9976
L31.2662 9.1186
" />
<path d="M31.2662 9.1186
L31.2662 9.4814
" />
<path d="M31.2662 9.4814
L31.2057 9.6024
" />
<path d="M31.2057 9.6024
L31.1452 9.6629
" />
<path d="M31.1452 9.6629
L31.0243 9.7233
" />
<path d="M31.0243 9.7233
L30.8429 9.7233
" />
<path d="M31.8104 9.7233
L31.8104 8.8767
" />
<path d="M31.8104 8.9976
L31.8709 8.9371
" />
<path d="M31.8709 8.9371
L31.9919 8.8767
" />
<path d="M31.9919 8.8767
L32.1733 8.8767
" />
<path d="M32.1733 8.8767
L32.2942 8.9371
" />
<path d="M32.2942 8.9371
L32.3547 9.0581
" />
<path d="M32.3547 9.0581
L32.3547 9.7233
" />
<path d="M32.3547 9.0581
L32.4152 8.9371
" />
<path d="M32.4152 8.9371
L32.5361 8.8767
" />
<path d="M32.5361 8.8767
L32.7176 8.8767
" />
<path d="M32.7176 8.8767
L32.8385 8.9371
" />
<path d="M32.8385 8.9371
L32.8990 9.0581
" />
<path d="M32.8990 9.0581
L32.8990 9.7233
" />
<path d="M34.4109 8.3929
L33.3223 10.0257
" />
<path d="M34.8342 8.8767
L34.8342 10.1467
" />
<path d="M34.8342 8.9371
L34.9552 8.8767
" />
<path d="M34.9552 8.8767
L35.1971 8.8767
" />
<path d="M35.1971 8.8767
L35.3180 8.9371
" />
<path d="M35.3180 8.9371
L35.3785 8.9976
" />
<path d="M35.3785 8.9976
L35.4390 9.1186
" />
<path d="M35.4390 9.1186
L35.4390 9.4814
" />
<path d="M35.4390 9.4814
L35.3785 9.6024
" />
<path d="M35.3785 9.6024
L35.3180 9.6629
" />
<path d="M35.3180 9.6629
L35.1971 9.7233
" />
<path d="M35.1971 9.7233
L34.9552 9.7233
" />
<path d="M34.9552 9.7233
L34.8342 9.6629
" />
<path d="M35.9832 9.7233
L35.9832 8.8767
" />
<path d="M35.9832 9.1186
L36.0437 8.9976
" />
<path d="M36.0437 8.9976
L36.1042 8.9371
" />
<path d="M36.1042 8.9371
L36.2251 8.8767
" />
<path d="M36.2251 8.8767
L36.3461 8.8767
" />
<path d="M37.3137 9.7233
L37.3137 8.4533
" />
<path d="M37.3137 9.6629
L37.1928 9.7233
" />
<path d="M37.1928 9.7233
L36.9509 9.7233
" />
<path d="M36.9509 9.7233
L36.8299 9.6629
" />
<path d="M36.8299 9.6629
L36.7694 9.6024
" />
<path d="M36.7694 9.6024
L36.7090 9.4814
" />
<path d="M36.7090 9.4814
L36.7090 9.1186
" />
<path d="M36.7090 9.1186
L36.7694 8.9976
" />
<path d="M36.7694 8.9976
L36.8299 8.9371
" />
<path d="M36.8299 8.9371
L36.9509 8.8767
" />
<path d="M36.9509 8.8767
L37.1928 8.8767
" />
<path d="M37.1928 8.8767
L37.3137 8.9371
" />
<path d="M38.4627 9.6629
L38.3418 9.7233
" />
<path d="M38.3418 9.7233
L38.0999 9.7233
" />
<path d="M38.0999 9.7233
L37.9789 9.6629
" />
<path d="M37.9789 9.6629
L37.9184 9.6024
" />
<path d="M37.9184 9.6024
L37.8580 9.4814
" />
<path d="M37.8580 9.4814
L37.8580 9.1186
" />
<path d="M37.8580 9.1186
L37.9184 8.9976
" />
<path d="M37.9184 8.9976
L37.9789 8.9371
" />
<path d="M37.9789 8.9371
L38.0999 8.8767
" />
<path d="M38.0999 8.8767
L38.3418 8.8767
" />
<path d="M38.3418 8.8767
L38.4627 8.9371
" />
<path d="M38.8256 8.8767
L39.3094 8.8767
" />
<path d="M39.0070 8.4533
L39.0070 9.5419
" />
<path d="M39.0070 9.5419
L39.0675 9.6629
" />
<path d="M39.0675 9.6629
L39.1885 9.7233
" />
<path d="M39.1885 9.7233
L39.3094 9.7233
" />
<path d="M40.6399 8.3929
L39.5513 10.0257
" />
<path d="M41.5470 9.6629
L41.4261 9.7233
" />
<path d="M41.4261 9.7233
L41.1842 9.7233
" />
<path d="M41.1842 9.7233
L41.0632 9.6629
" />
<path d="M41.0632 9.6629
L41.0028 9.5419
" />
<path d="M41.0028 9.5419
L41.0028 9.0581
" />
<path d="M41.0028 9.0581
L41.0632 8.9371
" />
<path d="M41.0632 8.9371
L41.1842 8.8767
" />
<path d="M41.1842 8.8767
L41.4261 8.8767
" />
<path d="M41.4261 8.8767
L41.5470 8.9371
" />
<path d="M41.5470 8.9371
L41.6075 9.0581
" />
<path d="M41.6075 9.0581
L41.6075 9.1790
" />
<path d="M41.6075 9.1790
L41.0028 9.3000
" />
<path d="M42.3333 9.7233
L42.2123 9.6629
" />
<path d="M42.2123 9.6629
L42.1518 9.5419
" />
<path d="M42.1518 9.5419
L42.1518 8.4533
" />
<path d="M43.3008 9.6629
L43.1799 9.7233
" />
<path d="M43.1799 9.7233
L42.9380 9.7233
" />
<path d="M42.9380 9.7233
L42.8170 9.6629
" />
<path d="M42.8170 9.6629
L42.7566 9.5419
" />
<path d="M42.7566 9.5419
L42.7566 9.0581
" />
<path d="M42.7566 9.0581
L42.8170 8.9371
" />
<path d="M42.8170 8.9371
L42.9380 8.8767
" />
<path d="M42.9380 8.8767
L43.1799 8.8767
" />
<path d="M43.1799 8.8767
L43.3008 8.9371
" />
<path d="M43.3008 8.9371
L43.3613 9.0581
" />
<path d="M43.3613 9.0581
L43.3613 9.1790
" />
<path d="M43.3613 9.1790
L42.7566 9.3000
" />
<path d="M44.4499 9.6629
L44.3290 9.7233
" />
<path d="M44.3290 9.7233
L44.0871 9.7233
" />
<path d="M44.0871 9.7233
L43.9661 9.6629
" />
<path d="M43.9661 9.6629
L43.9056 9.6024
" />
<path d="M43.9056 9.6024
L43.8452 9.4814
" />
<path d="M43.8452 9.4814
L43.8452 9.1186
" />
<path d="M43.8452 9.1186
L43.9056 8.9976
" />
<path d="M43.9056 8.9976
L43.9661 8.9371
" />
<path d="M43.9661 8.9371
L44.0871 8.8767
" />
<path d="M44.0871 8.8767
L44.3290 8.8767
" />
<path d="M44.3290 8.8767
L44.4499 8.9371
" />
<path d="M44.8128 8.8767
L45.2966 8.8767
" />
<path d="M44.9942 8.4533
L44.9942 9.5419
" />
<path d="M44.9942 9.5419
L45.0547 9.6629
" />
<path d="M45.0547 9.6629
L45.1757 9.7233
" />
<path d="M45.1757 9.7233
L45.2966 9.7233
" />
<path d="M45.7199 9.7233
L45.7199 8.8767
" />
<path d="M45.7199 9.1186
L45.7804 8.9976
" />
<path d="M45.7804 8.9976
L45.8409 8.9371
" />
<path d="M45.8409 8.9371
L45.9618 8.8767
" />
<path d="M45.9618 8.8767
L46.0828 8.8767
" />
<path d="M46.6876 9.7233
L46.5666 9.6629
" />
<path d="M46.5666 9.6629
L46.5061 9.6024
" />
<path d="M46.5061 9.6024
L46.4457 9.4814
" />
<path d="M46.4457 9.4814
L46.4457 9.1186
" />
<path d="M46.4457 9.1186
L46.5061 8.9976
" />
<path d="M46.5061 8.9976
L46.5666 8.9371
" />
<path d="M46.5666 8.9371
L46.6876 8.8767
" />
<path d="M46.6876 8.8767
L46.8690 8.8767
" />
<path d="M46.8690 8.8767
L46.9899 8.9371
" />
<path d="M46.9899 8.9371
L47.0504 8.9976
" />
<path d="M47.0504 8.9976
L47.1109 9.1186
" />
<path d="M47.1109 9.1186
L47.1109 9.4814
" />
<path d="M47.1109 9.4814
L47.0504 9.6024
" />
<path d="M47.0504 9.6024
L46.9899 9.6629
" />
<path d="M46.9899 9.6629
L46.8690 9.7233
" />
<path d="M46.8690 9.7233
L46.6876 9.7233
" />
<path d="M48.5623 8.3929
L47.4737 10.0257
" />
<path d="M48.9856 8.8767
L48.9856 10.1467
" />
<path d="M48.9856 8.9371
L49.1066 8.8767
" />
<path d="M49.1066 8.8767
L49.3485 8.8767
" />
<path d="M49.3485 8.8767
L49.4694 8.9371
" />
<path d="M49.4694 8.9371
L49.5299 8.9976
" />
<path d="M49.5299 8.9976
L49.5904 9.1186
" />
<path d="M49.5904 9.1186
L49.5904 9.4814
" />
<path d="M49.5904 9.4814
L49.5299 9.6024
" />
<path d="M49.5299 9.6024
L49.4694 9.6629
" />
<path d="M49.4694 9.6629
L49.3485 9.7233
" />
<path d="M49.3485 9.7233
L49.1066 9.7233
" />
<path d="M49.1066 9.7233
L48.9856 9.6629
" />
<path d="M50.1346 9.7233
L50.1346 8.8767
" />
<path d="M50.1346 9.1186
L50.1951 8.9976
" />
<path d="M50.1951 8.9976
L50.2556 8.9371
" />
<path d="M50.2556 8.9371
L50.3765 8.8767
" />
<path d="M50.3765 8.8767
L50.4975 8.8767
" />
<path d="M51.1023 9.7233
L50.9813 9.6629
" />
<path d="M50.9813 9.6629
L50.9208 9.6024
" />
<path d="M50.9208 9.6024
L50.8604 9.4814
" />
<path d="M50.8604 9.4814
L50.8604 9.1186
" />
<path d="M50.8604 9.1186
L50.9208 8.9976
" />
<path d="M50.9208 8.9976
L50.9813 8.9371
" />
<path d="M50.9813 8.9371
L51.1023 8.8767
" />
<path d="M51.1023 8.8767
L51.2837 8.8767
" />
<path d="M51.2837 8.8767
L51.4046 8.9371
" />
<path d="M51.4046 8.9371
L51.4651 8.9976
" />
<path d="M51.4651 8.9976
L51.5256 9.1186
" />
<path d="M51.5256 9.1186
L51.5256 9.4814
" />
<path d="M51.5256 9.4814
L51.4651 9.6024
" />
<path d="M51.4651 9.6024
L51.4046 9.6629
" />
<path d="M51.4046 9.6629
L51.2837 9.7233
" />
<path d="M51.2837 9.7233
L51.1023 9.7233
" />
<path d="M52.6141 9.7233
L52.6141 8.4533
" />
<path d="M52.6141 9.6629
L52.4932 9.7233
" />
<path d="M52.4932 9.7233
L52.2513 9.7233
" />
<path d="M52.2513 9.7233
L52.1303 9.6629
" />
<path d="M52.1303 9.6629
L52.0698 9.6024
" />
<path d="M52.0698 9.6024
L52.0094 9.4814
" />
<path d="M52.0094 9.4814
L52.0094 9.1186
" />
<path d="M52.0094 9.1186
L52.0698 8.9976
" />
<path d="M52.0698 8.9976
L52.1303 8.9371
" />
<path d="M52.1303 8.9371
L52.2513 8.8767
" />
<path d="M52.2513 8.8767
L52.4932 8.8767
" />
<path d="M52.4932 8.8767
L52.6141 8.9371
" />
<path d="M53.7631 8.8767
L53.7631 9.7233
" />
<path d="M53.2188 8.8767
L53.2188 9.5419
" />
<path d="M53.2188 9.5419
L53.2793 9.6629
" />
<path d="M53.2793 9.6629
L53.4003 9.7233
" />
<path d="M53.4003 9.7233
L53.5817 9.7233
" />
<path d="M53.5817 9.7233
L53.7026 9.6629
" />
<path d="M53.7026 9.6629
L53.7631 9.6024
" />
<path d="M54.9121 9.6629
L54.7912 9.7233
" />
<path d="M54.7912 9.7233
L54.5493 9.7233
" />
<path d="M54.5493 9.7233
L54.4283 9.6629
" />
<path d="M54.4283 9.6629
L54.3678 9.6024
" />
<path d="M54.3678 9.6024
L54.3074 9.4814
" />
<path d="M54.3074 9.4814
L54.3074 9.1186
" />
<path d="M54.3074 9.1186
L54.3678 8.9976
" />
<path d="M54.3678 8.9976
L54.4283 8.9371
" />
<path d="M54.4283 8.9371
L54.5493 8.8767
" />
<path d="M54.5493 8.8767
L54.7912 8.8767
" />
<path d="M54.7912 8.8767
L54.9121 8.9371
" />
<path d="M55.2750 8.8767
L55.7588 8.8767
" />
<path d="M55.4564 8.4533
L55.4564 9.5419
" />
<path d="M55.4564 9.5419
L55.5169 9.6629
" />
<path d="M55.5169 9.6629
L55.6379 9.7233
" />
<path d="M55.6379 9.7233
L55.7588 9.7233
" />
<path d="M57.0893 8.3929
L56.0007 10.0257
" />
<path d="M57.5126 8.8767
L57.5126 10.1467
" />
<path d="M57.5126 8.9371
L57.6336 8.8767
" />
<path d="M57.6336 8.8767
L57.8755 8.8767
" />
<path d="M57.8755 8.8767
L57.9964 8.9371
" />
<path d="M57.9964 8.9371
L58.0569 8.9976
" />
<path d="M58.0569 8.9976
L58.1174 9.1186
" />
<path d="M58.1174 9.1186
L58.1174 9.4814
" />
<path d="M58.1174 9.4814
L58.0569 9.6024
" />
<path d="M58.0569 9.6024
L57.9964 9.6629
" />
<path d="M57.9964 9.6629
L57.8755 9.7233
" />
<path d="M57.8755 9.7233
L57.6336 9.7233
" />
<path d="M57.6336 9.7233
L57.5126 9.6629
" />
<path d="M59.2059 9.7233
L59.2059 8.4533
" />
<path d="M59.2059 9.6629
L59.0850 9.7233
" />
<path d="M59.0850 9.7233
L58.8431 9.7233
" />
<path d="M58.8431 9.7233
L58.7221 9.6629
" />
<path d="M58.7221 9.6629
L58.6616 9.6024
" />
<path d="M58.6616 9.6024
L58.6012 9.4814
" />
<path d="M58.6012 9.4814
L58.6012 9.1186
" />
<path d="M58.6012 9.1186
L58.6616 8.9976
" />
<path d="M58.6616 8.9976
L58.7221 8.9371
" />
<path d="M58.7221 8.9371
L58.8431 8.8767
" />
<path d="M58.8431 8.8767
L59.0850 8.8767
" />
<path d="M59.0850 8.8767
L59.2059 8.9371
" />
<path d="M59.6292 8.8767
L60.1130 8.8767
" />
<path d="M59.8106 9.7233
L59.8106 8.6348
" />
<path d="M59.8106 8.6348
L59.8711 8.5138
" />
<path d="M59.8711 8.5138
L59.9921 8.4533
" />
<path d="M59.9921 8.4533
L60.1130 8.4533
" />
<path d="M61.4435 8.3929
L60.3549 10.0257
" />
<path d="M61.8668 9.7233
L61.8668 8.4533
" />
<path d="M61.9878 9.2395
L62.3506 9.7233
" />
<path d="M62.3506 8.8767
L61.8668 9.3605
" />
<path d="M62.7135 8.8767
L63.1973 8.8767
" />
<path d="M62.8949 8.4533
L62.8949 9.5419
" />
<path d="M62.8949 9.5419
L62.9554 9.6629
" />
<path d="M62.9554 9.6629
L63.0764 9.7233
" />
<path d="M63.0764 9.7233
L63.1973 9.7233
" />
<path d="M63.5602 8.5743
L63.6206 8.5138
" />
<path d="M63.6206 8.5138
L63.7416 8.4533
" />
<path d="M63.7416 8.4533
L64.0440 8.4533
" />
<path d="M64.0440 8.4533
L64.1649 8.5138
" />
<path d="M64.1649 8.5138
L64.2254 8.5743
" />
<path d="M64.2254 8.5743
L64.2859 8.6952
" />
<path d="M64.2859 8.6952
L64.2859 8.8162
" />
<path d="M64.2859 8.8162
L64.2254 8.9976
" />
<path d="M64.2254 8.9976
L63.4997 9.7233
" />
<path d="M63.4997 9.7233
L64.2859 9.7233
" />
<path d="M65.4349 8.4533
L64.8301 8.4533
" />
<path d="M64.8301 8.4533
L64.7697 9.0581
" />
<path d="M64.7697 9.0581
L64.8301 8.9976
" />
<path d="M64.8301 8.9976
L64.9511 8.9371
" />
<path d="M64.9511 8.9371
L65.2535 8.9371
" />
<path d="M65.2535 8.9371
L65.3744 8.9976
" />
<path d="M65.3744 8.9976
L65.4349 9.0581
" />
<path d="M65.4349 9.0581
L65.4954 9.1790
" />
<path d="M65.4954 9.1790
L65.4954 9.4814
" />
<path d="M65.4954 9.4814
L65.4349 9.6024
" />
<path d="M65.4349 9.6024
L65.3744 9.6629
" />
<path d="M65.3744 9.6629
L65.2535 9.7233
" />
<path d="M65.2535 9.7233
L64.9511 9.7233
" />
<path d="M64.9511 9.7233
L64.8301 9.6629
" />
<path d="M64.8301 9.6629
L64.7697 9.6024
" />
<path d="M65.9792 8.5743
L66.0396 8.5138
" />
<path d="M66.0396 8.5138
L66.1606 8.4533
" />
<path d="M66.1606 8.4533
L66.4630 8.4533
" />
<path d="M66.4630 8.4533
L66.5839 8.5138
" />
<path d="M66.5839 8.5138
L66.6444 8.5743
" />
<path d="M66.6444 8.5743
L66.7049 8.6952
" />
<path d="M66.7049 8.6952
L66.7049 8.8162
" />
<path d="M66.7049 8.8162
L66.6444 8.9976
" />
<path d="M66.6444 8.9976
L65.9187 9.7233
" />
<path d="M65.9187 9.7233
L66.7049 9.7233
" />
<path d="M67.4910 8.4533
L67.6120 8.4533
" />
<path d="M67.6120 8.4533
L67.7329 8.5138
" />
<path d="M67.7329 8.5138
L67.7934 8.5743
" />
<path d="M67.7934 8.5743
L67.8539 8.6952
" />
<path d="M67.8539 8.6952
L67.9144 8.9371
" />
<path d="M67.9144 8.9371
L67.9144 9.2395
" />
<path d="M67.9144 9.2395
L67.8539 9.4814
" />
<path d="M67.8539 9.4814
L67.7934 9.6024
" />
<path d="M67.7934 9.6024
L67.7329 9.6629
" />
<path d="M67.7329 9.6629
L67.6120 9.7233
" />
<path d="M67.6120 9.7233
L67.4910 9.7233
" />
<path d="M67.4910 9.7233
L67.3701 9.6629
" />
<path d="M67.3701 9.6629
L67.3096 9.6024
" />
<path d="M67.3096 9.6024
L67.2491 9.4814
" />
<path d="M67.2491 9.4814
L67.1887 9.2395
" />
<path d="M67.1887 9.2395
L67.1887 8.9371
" />
<path d="M67.1887 8.9371
L67.2491 8.6952
" />
<path d="M67.2491 8.6952
L67.3096 8.5743
" />
<path d="M67.3096 8.5743
L67.3701 8.5138
" />
<path d="M67.3701 8.5138
L67.4910 8.4533
" />
<path d="M68.1563 9.8443
L69.1239 9.8443
" />
<path d="M69.9100 9.6629
L69.7891 9.7233
" />
<path d="M69.7891 9.7233
L69.5472 9.7233
" />
<path d="M69.5472 9.7233
L69.4262 9.6629
" />
<path d="M69.4262 9.6629
L69.3658 9.5419
" />
<path d="M69.3658 9.5419
L69.3658 9.0581
" />
<path d="M69.3658 9.0581
L69.4262 8.9371
" />
<path d="M69.4262 8.9371
L69.5472 8.8767
" />
<path d="M69.5472 8.8767
L69.7891 8.8767
" />
<path d="M69.7891 8.8767
L69.9100 8.9371
" />
<path d="M69.9100 8.9371
L69.9705 9.0581
" />
<path d="M69.9705 9.0581
L69.9705 9.1790
" />
<path d="M69.9705 9.1790
L69.3658 9.3000
" />
<path d="M70.5148 9.6024
L70.5753 9.6629
" />
<path d="M70.5753 9.6629
L70.5148 9.7233
" />
<path d="M70.5148 9.7233
L70.4544 9.6629
" />
<path d="M70.4544 9.6629
L70.5148 9.6024
" />
<path d="M70.5148 9.6024
L70.5148 9.7233
" />
<path d="M71.1196 8.8767
L71.1196 10.1467
" />
<path d="M71.1196 8.9371
L71.2406 8.8767
" />
<path d="M71.2406 8.8767
L71.4825 8.8767
" />
<path d="M71.4825 8.8767
L71.6034 8.9371
" />
<path d="M71.6034 8.9371
L71.6639 8.9976
" />
<path d="M71.6639 8.9976
L71.7244 9.1186
" />
<path d="M71.7244 9.1186
L71.7244 9.4814
" />
<path d="M71.7244 9.4814
L71.6639 9.6024
" />
<path d="M71.6639 9.6024
L71.6034 9.6629
" />
<path d="M71.6034 9.6629
L71.4825 9.7233
" />
<path d="M71.4825 9.7233
L71.2406 9.7233
" />
<path d="M71.2406 9.7233
L71.1196 9.6629
" />
<path d="M72.8129 9.7233
L72.8129 8.4533
" />
<path d="M72.8129 9.6629
L72.6920 9.7233
" />
<path d="M72.6920 9.7233
L72.4501 9.7233
" />
<path d="M72.4501 9.7233
L72.3291 9.6629
" />
<path d="M72.3291 9.6629
L72.2686 9.6024
" />
<path d="M72.2686 9.6024
L72.2082 9.4814
" />
<path d="M72.2082 9.4814
L72.2082 9.1186
" />
<path d="M72.2082 9.1186
L72.2686 8.9976
" />
<path d="M72.2686 8.9976
L72.3291 8.9371
" />
<path d="M72.3291 8.9371
L72.4501 8.8767
" />
<path d="M72.4501 8.8767
L72.6920 8.8767
" />
<path d="M72.6920 8.8767
L72.8129 8.9371
" />
<path d="M73.2362 8.8767
L73.7200 8.8767
" />
<path d="M73.4176 9.7233
L73.4176 8.6348
" />
<path d="M73.4176 8.6348
L73.4781 8.5138
" />
<path d="M73.4781 8.5138
L73.5991 8.4533
" />
<path d="M73.5991 8.4533
L73.7200 8.4533
" />
</g></g> 
</svg>
