<?xml version="1.0" standalone="no"?>
 <!DOCTYPE svg PUBLIC "-//W3C//DTD SVG 1.1//EN" 
 "http://www.w3.org/Graphics/SVG/1.1/DTD/svg11.dtd"> 
<svg
  xmlns:svg="http://www.w3.org/2000/svg"
  xmlns="http://www.w3.org/2000/svg"
  xmlns:xlink="http://www.w3.org/1999/xlink"
  version="1.1"
  width="10.9474mm" height="29.8958mm" viewBox="0.0000 0.0000 10.9474 29.8958">
<title>SVG Image created as working.svg date 2023/08/09 03:41:47 </title>
  <desc>Image generated by Eeschema-SVG </desc>
<g style="fill:#000000; fill-opacity:1.0000;stroke:#000000; stroke-opacity:1.0000;
stroke-linecap:round; stroke-linejoin:round;"
 transform="translate(0 0) scale(1 1)">
</g>
<g style="fill:#840000; fill-opacity:0.0; 
stroke:#840000; stroke-width:0.0000; stroke-opacity:1; 
stroke-linecap:round; stroke-linejoin:round;">
</g>
<g style="fill:#840084; fill-opacity:0.0; 
stroke:#840084; stroke-width:0.0000; stroke-opacity:1; 
stroke-linecap:round; stroke-linejoin:round;">
</g>
<g style="fill:#840000; fill-opacity:0.0; 
stroke:#840000; stroke-width:0.0000; stroke-opacity:1; 
stroke-linecap:round; stroke-linejoin:round;">
</g>
<g style="fill:#840084; fill-opacity:0.0; 
stroke:#840084; stroke-width:0.0000; stroke-opacity:1; 
stroke-linecap:round; stroke-linejoin:round;">
</g>
<g style="fill:#006464; fill-opacity:0.0; 
stroke:#006464; stroke-width:0.0000; stroke-opacity:1; 
stroke-linecap:round; stroke-linejoin:round;">
</g>
<g style="fill:#006464; fill-opacity:0.0; 
stroke:#006464; stroke-width:0.1588; stroke-opacity:1; 
stroke-linecap:round; stroke-linejoin:round;">
<text x="4.9600" y="4.1469"
textLength="2.6415" font-size="1.6933" lengthAdjust="spacingAndGlyphs"
text-anchor="middle" opacity="0">U?</text>
<g class="stroked-text"><desc>U?</desc>
<path d="M4.0528 2.8211
L4.0528 3.8492
" />
<path d="M4.0528 3.8492
L4.1133 3.9702
" />
<path d="M4.1133 3.9702
L4.1738 4.0307
" />
<path d="M4.1738 4.0307
L4.2947 4.0911
" />
<path d="M4.2947 4.0911
L4.5366 4.0911
" />
<path d="M4.5366 4.0911
L4.6576 4.0307
" />
<path d="M4.6576 4.0307
L4.7181 3.9702
" />
<path d="M4.7181 3.9702
L4.7785 3.8492
" />
<path d="M4.7785 3.8492
L4.7785 2.8211
" />
<path d="M5.5648 3.9702
L5.6252 4.0307
" />
<path d="M5.6252 4.0307
L5.5648 4.0911
" />
<path d="M5.5648 4.0911
L5.5043 4.0307
" />
<path d="M5.5043 4.0307
L5.5648 3.9702
" />
<path d="M5.5648 3.9702
L5.5648 4.0911
" />
<path d="M5.3229 2.8816
L5.4438 2.8211
" />
<path d="M5.4438 2.8211
L5.7462 2.8211
" />
<path d="M5.7462 2.8211
L5.8671 2.8816
" />
<path d="M5.8671 2.8816
L5.9276 3.0026
" />
<path d="M5.9276 3.0026
L5.9276 3.1235
" />
<path d="M5.9276 3.1235
L5.8671 3.2445
" />
<path d="M5.8671 3.2445
L5.8067 3.3049
" />
<path d="M5.8067 3.3049
L5.6857 3.3654
" />
<path d="M5.6857 3.3654
L5.6252 3.4259
" />
<path d="M5.6252 3.4259
L5.5648 3.5468
" />
<path d="M5.5648 3.5468
L5.5648 3.6073
" />
</g><text x="7.5000" y="27.0069"
textLength="5.0604" font-size="1.6933" lengthAdjust="spacingAndGlyphs"
text-anchor="middle" opacity="0">7447</text>
<g class="stroked-text"><desc>7447</desc>
<path d="M5.2624 25.6811
L6.1090 25.6811
" />
<path d="M6.1090 25.6811
L5.5648 26.9511
" />
<path d="M7.1371 26.1045
L7.1371 26.9511
" />
<path d="M6.8347 25.6207
L6.5324 26.5278
" />
<path d="M6.5324 26.5278
L7.3185 26.5278
" />
<path d="M8.3466 26.1045
L8.3466 26.9511
" />
<path d="M8.0442 25.6207
L7.7419 26.5278
" />
<path d="M7.7419 26.5278
L8.5280 26.5278
" />
<path d="M8.8909 25.6811
L9.7375 25.6811
" />
<path d="M9.7375 25.6811
L9.1933 26.9511
" />
</g></g> 
</svg>
