<?xml version="1.0" standalone="no"?>
 <!DOCTYPE svg PUBLIC "-//W3C//DTD SVG 1.1//EN" 
 "http://www.w3.org/Graphics/SVG/1.1/DTD/svg11.dtd"> 
<svg
  xmlns:svg="http://www.w3.org/2000/svg"
  xmlns="http://www.w3.org/2000/svg"
  xmlns:xlink="http://www.w3.org/1999/xlink"
  version="1.1"
  width="21.4884mm" height="38.3286mm" viewBox="0.0000 0.0000 21.4884 38.3286">
<title>SVG Image created as working.svg date 2023/08/02 19:39:25 </title>
  <desc>Image generated by Eeschema-SVG </desc>
<g style="fill:#000000; fill-opacity:1.0000;stroke:#000000; stroke-opacity:1.0000;
stroke-linecap:round; stroke-linejoin:round;"
 transform="translate(0 0) scale(1 1)">
</g>
<g style="fill:#840000; fill-opacity:0.0; 
stroke:#840000; stroke-width:0.0000; stroke-opacity:1; 
stroke-linecap:round; stroke-linejoin:round;">
</g>
<g style="fill:#FFFFC2; fill-opacity:0.0; 
stroke:#FFFFC2; stroke-width:0.0000; stroke-opacity:1; 
stroke-linecap:round; stroke-linejoin:round;">
</g>
<g style="fill:#FFFFC2; fill-opacity:1.0000; 
stroke:#FFFFC2; stroke-width:0.0000; stroke-opacity:1; 
stroke-linecap:round; stroke-linejoin:round;">
<rect x="1.917700" y="7.203300" width="15.240000" height="25.400000" rx="0.000000" />
</g>
<g style="fill:#840084; fill-opacity:1.0000; 
stroke:#840084; stroke-width:0.0000; stroke-opacity:1; 
stroke-linecap:round; stroke-linejoin:round;">
</g>
<g style="fill:#840000; fill-opacity:1.0000; 
stroke:#840000; stroke-width:0.0000; stroke-opacity:1; 
stroke-linecap:round; stroke-linejoin:round;">
</g>
<g style="fill:#840000; fill-opacity:0.0; 
stroke:#840000; stroke-width:0.2540; stroke-opacity:1; 
stroke-linecap:round; stroke-linejoin:round;">
<rect x="1.917700" y="7.203300" width="15.240000" height="25.400000" rx="0.000000" />
</g>
<g style="fill:#840000; fill-opacity:1.0000; 
stroke:#840000; stroke-width:0.2540; stroke-opacity:1; 
stroke-linecap:round; stroke-linejoin:round;">
<circle cx="7.3787" cy="17.9983" r="0.3810" /> 
<circle cx="8.6487" cy="21.1733" r="0.6350" /> 
</g>
<g style="fill:#840000; fill-opacity:1.0000; 
stroke:#840000; stroke-width:0.1524; stroke-opacity:1; 
stroke-linecap:round; stroke-linejoin:round;">
<rect x="6.489700" y="12.029300" width="2.794000" height="0.508000" rx="0.000000" />
<rect x="6.489700" y="9.489300" width="2.794000" height="0.508000" rx="0.000000" />
</g>
<g style="fill:#840000; fill-opacity:0.0; 
stroke:#840000; stroke-width:0.1524; stroke-opacity:1; 
stroke-linecap:round; stroke-linejoin:round;">
<rect x="9.410700" y="31.841300" width="0.254000" height="0.762000" rx="0.000000" />
</g>
<g style="fill:#840000; fill-opacity:1.0000; 
stroke:#840000; stroke-width:0.2540; stroke-opacity:1; 
stroke-linecap:round; stroke-linejoin:round;">
<path style="fill:#840000; fill-opacity:1.0000; 
stroke:#840000; stroke-width:0.2540; stroke-opacity:1; 
stroke-linecap:round; stroke-linejoin:round;fill-rule:evenodd;"
d="M 8.0137,16.7283
9.2837,16.7283
8.6487,15.4583
Z" /> 
</g>
<g style="fill:#840000; fill-opacity:0.0; 
stroke:#840000; stroke-width:0.2540; stroke-opacity:1; 
stroke-linecap:round; stroke-linejoin:round;">
<path style="fill:#840000; fill-opacity:0.0; 
stroke:#840000; stroke-width:0.2540; stroke-opacity:1; 
stroke-linecap:round; stroke-linejoin:round;fill:none"
d="M 8.6487,20.5383
8.6487,19.9033
7.3787,18.6333
7.3787,17.9983
" /> 
<path style="fill:#840000; fill-opacity:0.0; 
stroke:#840000; stroke-width:0.2540; stroke-opacity:1; 
stroke-linecap:round; stroke-linejoin:round;fill:none"
d="M 8.6487,19.9033
8.6487,19.2683
9.9187,18.6333
9.9187,17.3633
" /> 
</g>
<g style="fill:#840000; fill-opacity:1.0000; 
stroke:#840000; stroke-width:0.2540; stroke-opacity:1; 
stroke-linecap:round; stroke-linejoin:round;">
<rect x="9.537700" y="17.109300" width="0.762000" height="0.762000" rx="0.000000" />
</g>
<g style="fill:#840000; fill-opacity:0.0; 
stroke:#840000; stroke-width:0.1524; stroke-opacity:1; 
stroke-linecap:round; stroke-linejoin:round;">
<rect x="6.235700" y="11.521300" width="3.302000" height="1.270000" rx="0.000000" />
<rect x="6.235700" y="8.981300" width="3.302000" height="1.270000" rx="0.000000" />
<rect x="11.950700" y="31.841300" width="0.254000" height="0.762000" rx="0.000000" />
<rect x="16.395700" y="24.856300" width="0.762000" height="0.254000" rx="0.000000" />
<rect x="16.395700" y="22.316300" width="0.762000" height="0.254000" rx="0.000000" />
<rect x="16.395700" y="19.776300" width="0.762000" height="0.254000" rx="0.000000" />
<rect x="16.395700" y="17.236300" width="0.762000" height="0.254000" rx="0.000000" />
<rect x="16.395700" y="12.156300" width="0.762000" height="0.254000" rx="0.000000" />
<rect x="16.395700" y="9.616300" width="0.762000" height="0.254000" rx="0.000000" />
</g>
<g style="fill:#840000; fill-opacity:0.0; 
stroke:#840000; stroke-width:0.2540; stroke-opacity:1; 
stroke-linecap:round; stroke-linejoin:round;">
<path style="fill:#840000; fill-opacity:0.0; 
stroke:#840000; stroke-width:0.2540; stroke-opacity:1; 
stroke-linecap:round; stroke-linejoin:round;fill:none"
d="M 8.6487,19.2683
8.6487,16.7283
" /> 
</g>
<g style="fill:#840000; fill-opacity:0.0; 
stroke:#840000; stroke-width:0.1524; stroke-opacity:1; 
stroke-linecap:round; stroke-linejoin:round;">
<path d="M17.1577 9.7433
L19.6977 9.7433
" />
</g>
<g style="fill:#006464; fill-opacity:0.0; 
stroke:#006464; stroke-width:0.1524; stroke-opacity:1; 
stroke-linecap:round; stroke-linejoin:round;">
<text x="16.1417" y="10.3783"
textLength="6.2351" font-size="1.6933" lengthAdjust="spacingAndGlyphs"
text-anchor="end" opacity="0">VBUS1</text>
<g class="stroked-text"><desc>VBUS1</desc>
<path d="M10.1545 9.0608
L10.5778 10.3308
" />
<path d="M10.5778 10.3308
L11.0012 9.0608
" />
<path d="M11.8479 9.6656
L12.0293 9.7261
" />
<path d="M12.0293 9.7261
L12.0898 9.7865
" />
<path d="M12.0898 9.7865
L12.1502 9.9075
" />
<path d="M12.1502 9.9075
L12.1502 10.0889
" />
<path d="M12.1502 10.0889
L12.0898 10.2099
" />
<path d="M12.0898 10.2099
L12.0293 10.2704
" />
<path d="M12.0293 10.2704
L11.9083 10.3308
" />
<path d="M11.9083 10.3308
L11.4245 10.3308
" />
<path d="M11.4245 10.3308
L11.4245 9.0608
" />
<path d="M11.4245 9.0608
L11.8479 9.0608
" />
<path d="M11.8479 9.0608
L11.9688 9.1213
" />
<path d="M11.9688 9.1213
L12.0293 9.1818
" />
<path d="M12.0293 9.1818
L12.0898 9.3027
" />
<path d="M12.0898 9.3027
L12.0898 9.4237
" />
<path d="M12.0898 9.4237
L12.0293 9.5446
" />
<path d="M12.0293 9.5446
L11.9688 9.6051
" />
<path d="M11.9688 9.6051
L11.8479 9.6656
" />
<path d="M11.8479 9.6656
L11.4245 9.6656
" />
<path d="M12.6945 9.0608
L12.6945 10.0889
" />
<path d="M12.6945 10.0889
L12.7550 10.2099
" />
<path d="M12.7550 10.2099
L12.8155 10.2704
" />
<path d="M12.8155 10.2704
L12.9364 10.3308
" />
<path d="M12.9364 10.3308
L13.1783 10.3308
" />
<path d="M13.1783 10.3308
L13.2993 10.2704
" />
<path d="M13.2993 10.2704
L13.3598 10.2099
" />
<path d="M13.3598 10.2099
L13.4202 10.0889
" />
<path d="M13.4202 10.0889
L13.4202 9.0608
" />
<path d="M13.9646 10.2704
L14.1460 10.3308
" />
<path d="M14.1460 10.3308
L14.4484 10.3308
" />
<path d="M14.4484 10.3308
L14.5693 10.2704
" />
<path d="M14.5693 10.2704
L14.6298 10.2099
" />
<path d="M14.6298 10.2099
L14.6903 10.0889
" />
<path d="M14.6903 10.0889
L14.6903 9.9680
" />
<path d="M14.6903 9.9680
L14.6298 9.8470
" />
<path d="M14.6298 9.8470
L14.5693 9.7865
" />
<path d="M14.5693 9.7865
L14.4484 9.7261
" />
<path d="M14.4484 9.7261
L14.2065 9.6656
" />
<path d="M14.2065 9.6656
L14.0855 9.6051
" />
<path d="M14.0855 9.6051
L14.0250 9.5446
" />
<path d="M14.0250 9.5446
L13.9646 9.4237
" />
<path d="M13.9646 9.4237
L13.9646 9.3027
" />
<path d="M13.9646 9.3027
L14.0250 9.1818
" />
<path d="M14.0250 9.1818
L14.0855 9.1213
" />
<path d="M14.0855 9.1213
L14.2065 9.0608
" />
<path d="M14.2065 9.0608
L14.5088 9.0608
" />
<path d="M14.5088 9.0608
L14.6903 9.1213
" />
<path d="M15.8998 10.3308
L15.1741 10.3308
" />
<path d="M15.5369 10.3308
L15.5369 9.0608
" />
<path d="M15.5369 9.0608
L15.4160 9.2423
" />
<path d="M15.4160 9.2423
L15.2950 9.3632
" />
<path d="M15.2950 9.3632
L15.1741 9.4237
" />
</g></g>
<g style="fill:#A90000; fill-opacity:0.0; 
stroke:#A90000; stroke-width:0.1524; stroke-opacity:1; 
stroke-linecap:round; stroke-linejoin:round;">
<text x="18.4277" y="9.4893"
textLength="1.3365" font-size="1.6933" lengthAdjust="spacingAndGlyphs"
text-anchor="middle" opacity="0">1</text>
<g class="stroked-text"><desc>1</desc>
<path d="M18.7906 9.3338
L18.0649 9.3338
" />
<path d="M18.4277 9.3338
L18.4277 8.0638
" />
<path d="M18.4277 8.0638
L18.3068 8.2453
" />
<path d="M18.3068 8.2453
L18.1858 8.3662
" />
<path d="M18.1858 8.3662
L18.0649 8.4267
" />
</g></g>
<g style="fill:#840000; fill-opacity:0.0; 
stroke:#840000; stroke-width:0.1524; stroke-opacity:1; 
stroke-linecap:round; stroke-linejoin:round;">
<path d="M17.1577 19.9033
L19.6977 19.9033
" />
</g>
<g style="fill:#006464; fill-opacity:0.0; 
stroke:#006464; stroke-width:0.1524; stroke-opacity:1; 
stroke-linecap:round; stroke-linejoin:round;">
<text x="16.1417" y="20.5383"
textLength="4.1789" font-size="1.6933" lengthAdjust="spacingAndGlyphs"
text-anchor="end" opacity="0">D1-</text>
<g class="stroked-text"><desc>D1-</desc>
<path d="M12.3921 20.4908
L12.3921 19.2208
" />
<path d="M12.3921 19.2208
L12.6945 19.2208
" />
<path d="M12.6945 19.2208
L12.8759 19.2813
" />
<path d="M12.8759 19.2813
L12.9969 19.4023
" />
<path d="M12.9969 19.4023
L13.0574 19.5232
" />
<path d="M13.0574 19.5232
L13.1178 19.7651
" />
<path d="M13.1178 19.7651
L13.1178 19.9465
" />
<path d="M13.1178 19.9465
L13.0574 20.1884
" />
<path d="M13.0574 20.1884
L12.9969 20.3094
" />
<path d="M12.9969 20.3094
L12.8759 20.4304
" />
<path d="M12.8759 20.4304
L12.6945 20.4908
" />
<path d="M12.6945 20.4908
L12.3921 20.4908
" />
<path d="M14.3274 20.4908
L13.6017 20.4908
" />
<path d="M13.9645 20.4908
L13.9645 19.2208
" />
<path d="M13.9645 19.2208
L13.8436 19.4023
" />
<path d="M13.8436 19.4023
L13.7226 19.5232
" />
<path d="M13.7226 19.5232
L13.6017 19.5837
" />
<path d="M14.8716 20.0070
L15.8393 20.0070
" />
</g></g>
<g style="fill:#A90000; fill-opacity:0.0; 
stroke:#A90000; stroke-width:0.1524; stroke-opacity:1; 
stroke-linecap:round; stroke-linejoin:round;">
<text x="18.4277" y="19.6493"
textLength="1.3365" font-size="1.6933" lengthAdjust="spacingAndGlyphs"
text-anchor="middle" opacity="0">2</text>
<g class="stroked-text"><desc>2</desc>
<path d="M18.0649 18.3448
L18.1253 18.2843
" />
<path d="M18.1253 18.2843
L18.2463 18.2238
" />
<path d="M18.2463 18.2238
L18.5487 18.2238
" />
<path d="M18.5487 18.2238
L18.6696 18.2843
" />
<path d="M18.6696 18.2843
L18.7301 18.3448
" />
<path d="M18.7301 18.3448
L18.7906 18.4657
" />
<path d="M18.7906 18.4657
L18.7906 18.5867
" />
<path d="M18.7906 18.5867
L18.7301 18.7681
" />
<path d="M18.7301 18.7681
L18.0044 19.4938
" />
<path d="M18.0044 19.4938
L18.7906 19.4938
" />
</g></g>
<g style="fill:#840000; fill-opacity:0.0; 
stroke:#840000; stroke-width:0.1524; stroke-opacity:1; 
stroke-linecap:round; stroke-linejoin:round;">
<path d="M17.1577 17.3633
L19.6977 17.3633
" />
</g>
<g style="fill:#006464; fill-opacity:0.0; 
stroke:#006464; stroke-width:0.1524; stroke-opacity:1; 
stroke-linecap:round; stroke-linejoin:round;">
<text x="16.1417" y="17.9983"
textLength="4.1789" font-size="1.6933" lengthAdjust="spacingAndGlyphs"
text-anchor="end" opacity="0">D1+</text>
<g class="stroked-text"><desc>D1+</desc>
<path d="M12.3921 17.9508
L12.3921 16.6808
" />
<path d="M12.3921 16.6808
L12.6945 16.6808
" />
<path d="M12.6945 16.6808
L12.8759 16.7413
" />
<path d="M12.8759 16.7413
L12.9969 16.8623
" />
<path d="M12.9969 16.8623
L13.0574 16.9832
" />
<path d="M13.0574 16.9832
L13.1178 17.2251
" />
<path d="M13.1178 17.2251
L13.1178 17.4065
" />
<path d="M13.1178 17.4065
L13.0574 17.6484
" />
<path d="M13.0574 17.6484
L12.9969 17.7694
" />
<path d="M12.9969 17.7694
L12.8759 17.8904
" />
<path d="M12.8759 17.8904
L12.6945 17.9508
" />
<path d="M12.6945 17.9508
L12.3921 17.9508
" />
<path d="M14.3274 17.9508
L13.6017 17.9508
" />
<path d="M13.9645 17.9508
L13.9645 16.6808
" />
<path d="M13.9645 16.6808
L13.8436 16.8623
" />
<path d="M13.8436 16.8623
L13.7226 16.9832
" />
<path d="M13.7226 16.9832
L13.6017 17.0437
" />
<path d="M14.8716 17.4670
L15.8393 17.4670
" />
<path d="M15.3554 17.9508
L15.3554 16.9832
" />
</g></g>
<g style="fill:#A90000; fill-opacity:0.0; 
stroke:#A90000; stroke-width:0.1524; stroke-opacity:1; 
stroke-linecap:round; stroke-linejoin:round;">
<text x="18.4277" y="17.1093"
textLength="1.3365" font-size="1.6933" lengthAdjust="spacingAndGlyphs"
text-anchor="middle" opacity="0">3</text>
<g class="stroked-text"><desc>3</desc>
<path d="M18.0044 15.6838
L18.7906 15.6838
" />
<path d="M18.7906 15.6838
L18.3672 16.1676
" />
<path d="M18.3672 16.1676
L18.5487 16.1676
" />
<path d="M18.5487 16.1676
L18.6696 16.2281
" />
<path d="M18.6696 16.2281
L18.7301 16.2886
" />
<path d="M18.7301 16.2886
L18.7906 16.4095
" />
<path d="M18.7906 16.4095
L18.7906 16.7119
" />
<path d="M18.7906 16.7119
L18.7301 16.8329
" />
<path d="M18.7301 16.8329
L18.6696 16.8934
" />
<path d="M18.6696 16.8934
L18.5487 16.9538
" />
<path d="M18.5487 16.9538
L18.1858 16.9538
" />
<path d="M18.1858 16.9538
L18.0649 16.8934
" />
<path d="M18.0649 16.8934
L18.0044 16.8329
" />
</g></g>
<g style="fill:#840000; fill-opacity:0.0; 
stroke:#840000; stroke-width:0.1524; stroke-opacity:1; 
stroke-linecap:round; stroke-linejoin:round;">
<path d="M9.5377 32.6033
L9.5377 35.1433
" />
</g>
<g style="fill:#006464; fill-opacity:0.0; 
stroke:#006464; stroke-width:0.1524; stroke-opacity:1; 
stroke-linecap:round; stroke-linejoin:round;">
<g transform="rotate(-90.000000 9.5377 31.5873)">
<text x="9.5377" y="32.2223"
textLength="5.2070" font-size="1.6933" lengthAdjust="spacingAndGlyphs"
text-anchor="start" opacity="0">GND1</text>
</g>
<g class="stroked-text"><desc>GND1</desc>
<path d="M8.9157 30.6196
L8.8552 30.7406
" />
<path d="M8.8552 30.7406
L8.8552 30.9220
" />
<path d="M8.8552 30.9220
L8.9157 31.1034
" />
<path d="M8.9157 31.1034
L9.0367 31.2244
" />
<path d="M9.0367 31.2244
L9.1576 31.2849
" />
<path d="M9.1576 31.2849
L9.3995 31.3453
" />
<path d="M9.3995 31.3453
L9.5809 31.3453
" />
<path d="M9.5809 31.3453
L9.8228 31.2849
" />
<path d="M9.8228 31.2849
L9.9438 31.2244
" />
<path d="M9.9438 31.2244
L10.0648 31.1034
" />
<path d="M10.0648 31.1034
L10.1252 30.9220
" />
<path d="M10.1252 30.9220
L10.1252 30.8011
" />
<path d="M10.1252 30.8011
L10.0648 30.6196
" />
<path d="M10.0648 30.6196
L10.0043 30.5592
" />
<path d="M10.0043 30.5592
L9.5809 30.5592
" />
<path d="M9.5809 30.5592
L9.5809 30.8011
" />
<path d="M10.1252 30.0149
L8.8552 30.0149
" />
<path d="M8.8552 30.0149
L10.1252 29.2892
" />
<path d="M10.1252 29.2892
L8.8552 29.2892
" />
<path d="M10.1252 28.6844
L8.8552 28.6844
" />
<path d="M8.8552 28.6844
L8.8552 28.3820
" />
<path d="M8.8552 28.3820
L8.9157 28.2006
" />
<path d="M8.9157 28.2006
L9.0367 28.0796
" />
<path d="M9.0367 28.0796
L9.1576 28.0191
" />
<path d="M9.1576 28.0191
L9.3995 27.9587
" />
<path d="M9.3995 27.9587
L9.5809 27.9587
" />
<path d="M9.5809 27.9587
L9.8228 28.0191
" />
<path d="M9.8228 28.0191
L9.9438 28.0796
" />
<path d="M9.9438 28.0796
L10.0648 28.2006
" />
<path d="M10.0648 28.2006
L10.1252 28.3820
" />
<path d="M10.1252 28.3820
L10.1252 28.6844
" />
<path d="M10.1252 26.7491
L10.1252 27.4748
" />
<path d="M10.1252 27.1120
L8.8552 27.1120
" />
<path d="M8.8552 27.1120
L9.0367 27.2329
" />
<path d="M9.0367 27.2329
L9.1576 27.3539
" />
<path d="M9.1576 27.3539
L9.2181 27.4748
" />
</g></g>
<g style="fill:#A90000; fill-opacity:0.0; 
stroke:#A90000; stroke-width:0.1524; stroke-opacity:1; 
stroke-linecap:round; stroke-linejoin:round;">
<g transform="rotate(-90.000000 9.2837 33.8733)">
<text x="9.2837" y="33.8733"
textLength="1.3365" font-size="1.6933" lengthAdjust="spacingAndGlyphs"
text-anchor="middle" opacity="0">4</text>
</g>
<g class="stroked-text"><desc>4</desc>
<path d="M8.2816 33.6313
L9.1282 33.6313
" />
<path d="M7.7978 33.9337
L8.7049 34.2360
" />
<path d="M8.7049 34.2360
L8.7049 33.4499
" />
</g></g>
<g style="fill:#840000; fill-opacity:0.0; 
stroke:#840000; stroke-width:0.1524; stroke-opacity:1; 
stroke-linecap:round; stroke-linejoin:round;">
<path d="M17.1577 12.2833
L19.6977 12.2833
" />
</g>
<g style="fill:#006464; fill-opacity:0.0; 
stroke:#006464; stroke-width:0.1524; stroke-opacity:1; 
stroke-linecap:round; stroke-linejoin:round;">
<text x="16.1417" y="12.9183"
textLength="6.2351" font-size="1.6933" lengthAdjust="spacingAndGlyphs"
text-anchor="end" opacity="0">VBUS2</text>
<g class="stroked-text"><desc>VBUS2</desc>
<path d="M10.1545 11.6008
L10.5778 12.8708
" />
<path d="M10.5778 12.8708
L11.0012 11.6008
" />
<path d="M11.8479 12.2056
L12.0293 12.2661
" />
<path d="M12.0293 12.2661
L12.0898 12.3265
" />
<path d="M12.0898 12.3265
L12.1502 12.4475
" />
<path d="M12.1502 12.4475
L12.1502 12.6289
" />
<path d="M12.1502 12.6289
L12.0898 12.7499
" />
<path d="M12.0898 12.7499
L12.0293 12.8104
" />
<path d="M12.0293 12.8104
L11.9083 12.8708
" />
<path d="M11.9083 12.8708
L11.4245 12.8708
" />
<path d="M11.4245 12.8708
L11.4245 11.6008
" />
<path d="M11.4245 11.6008
L11.8479 11.6008
" />
<path d="M11.8479 11.6008
L11.9688 11.6613
" />
<path d="M11.9688 11.6613
L12.0293 11.7218
" />
<path d="M12.0293 11.7218
L12.0898 11.8427
" />
<path d="M12.0898 11.8427
L12.0898 11.9637
" />
<path d="M12.0898 11.9637
L12.0293 12.0846
" />
<path d="M12.0293 12.0846
L11.9688 12.1451
" />
<path d="M11.9688 12.1451
L11.8479 12.2056
" />
<path d="M11.8479 12.2056
L11.4245 12.2056
" />
<path d="M12.6945 11.6008
L12.6945 12.6289
" />
<path d="M12.6945 12.6289
L12.7550 12.7499
" />
<path d="M12.7550 12.7499
L12.8155 12.8104
" />
<path d="M12.8155 12.8104
L12.9364 12.8708
" />
<path d="M12.9364 12.8708
L13.1783 12.8708
" />
<path d="M13.1783 12.8708
L13.2993 12.8104
" />
<path d="M13.2993 12.8104
L13.3598 12.7499
" />
<path d="M13.3598 12.7499
L13.4202 12.6289
" />
<path d="M13.4202 12.6289
L13.4202 11.6008
" />
<path d="M13.9646 12.8104
L14.1460 12.8708
" />
<path d="M14.1460 12.8708
L14.4484 12.8708
" />
<path d="M14.4484 12.8708
L14.5693 12.8104
" />
<path d="M14.5693 12.8104
L14.6298 12.7499
" />
<path d="M14.6298 12.7499
L14.6903 12.6289
" />
<path d="M14.6903 12.6289
L14.6903 12.5080
" />
<path d="M14.6903 12.5080
L14.6298 12.3870
" />
<path d="M14.6298 12.3870
L14.5693 12.3265
" />
<path d="M14.5693 12.3265
L14.4484 12.2661
" />
<path d="M14.4484 12.2661
L14.2065 12.2056
" />
<path d="M14.2065 12.2056
L14.0855 12.1451
" />
<path d="M14.0855 12.1451
L14.0250 12.0846
" />
<path d="M14.0250 12.0846
L13.9646 11.9637
" />
<path d="M13.9646 11.9637
L13.9646 11.8427
" />
<path d="M13.9646 11.8427
L14.0250 11.7218
" />
<path d="M14.0250 11.7218
L14.0855 11.6613
" />
<path d="M14.0855 11.6613
L14.2065 11.6008
" />
<path d="M14.2065 11.6008
L14.5088 11.6008
" />
<path d="M14.5088 11.6008
L14.6903 11.6613
" />
<path d="M15.1741 11.7218
L15.2345 11.6613
" />
<path d="M15.2345 11.6613
L15.3555 11.6008
" />
<path d="M15.3555 11.6008
L15.6579 11.6008
" />
<path d="M15.6579 11.6008
L15.7788 11.6613
" />
<path d="M15.7788 11.6613
L15.8393 11.7218
" />
<path d="M15.8393 11.7218
L15.8998 11.8427
" />
<path d="M15.8998 11.8427
L15.8998 11.9637
" />
<path d="M15.8998 11.9637
L15.8393 12.1451
" />
<path d="M15.8393 12.1451
L15.1136 12.8708
" />
<path d="M15.1136 12.8708
L15.8998 12.8708
" />
</g></g>
<g style="fill:#A90000; fill-opacity:0.0; 
stroke:#A90000; stroke-width:0.1524; stroke-opacity:1; 
stroke-linecap:round; stroke-linejoin:round;">
<text x="18.4277" y="12.0293"
textLength="1.3365" font-size="1.6933" lengthAdjust="spacingAndGlyphs"
text-anchor="middle" opacity="0">5</text>
<g class="stroked-text"><desc>5</desc>
<path d="M18.7301 10.6038
L18.1253 10.6038
" />
<path d="M18.1253 10.6038
L18.0649 11.2086
" />
<path d="M18.0649 11.2086
L18.1253 11.1481
" />
<path d="M18.1253 11.1481
L18.2463 11.0876
" />
<path d="M18.2463 11.0876
L18.5487 11.0876
" />
<path d="M18.5487 11.0876
L18.6696 11.1481
" />
<path d="M18.6696 11.1481
L18.7301 11.2086
" />
<path d="M18.7301 11.2086
L18.7906 11.3295
" />
<path d="M18.7906 11.3295
L18.7906 11.6319
" />
<path d="M18.7906 11.6319
L18.7301 11.7529
" />
<path d="M18.7301 11.7529
L18.6696 11.8134
" />
<path d="M18.6696 11.8134
L18.5487 11.8738
" />
<path d="M18.5487 11.8738
L18.2463 11.8738
" />
<path d="M18.2463 11.8738
L18.1253 11.8134
" />
<path d="M18.1253 11.8134
L18.0649 11.7529
" />
</g></g>
<g style="fill:#840000; fill-opacity:0.0; 
stroke:#840000; stroke-width:0.1524; stroke-opacity:1; 
stroke-linecap:round; stroke-linejoin:round;">
<path d="M17.1577 24.9833
L19.6977 24.9833
" />
</g>
<g style="fill:#006464; fill-opacity:0.0; 
stroke:#006464; stroke-width:0.1524; stroke-opacity:1; 
stroke-linecap:round; stroke-linejoin:round;">
<text x="16.1417" y="25.6183"
textLength="4.1789" font-size="1.6933" lengthAdjust="spacingAndGlyphs"
text-anchor="end" opacity="0">D2-</text>
<g class="stroked-text"><desc>D2-</desc>
<path d="M12.3921 25.5708
L12.3921 24.3008
" />
<path d="M12.3921 24.3008
L12.6945 24.3008
" />
<path d="M12.6945 24.3008
L12.8759 24.3613
" />
<path d="M12.8759 24.3613
L12.9969 24.4823
" />
<path d="M12.9969 24.4823
L13.0574 24.6032
" />
<path d="M13.0574 24.6032
L13.1178 24.8451
" />
<path d="M13.1178 24.8451
L13.1178 25.0265
" />
<path d="M13.1178 25.0265
L13.0574 25.2684
" />
<path d="M13.0574 25.2684
L12.9969 25.3894
" />
<path d="M12.9969 25.3894
L12.8759 25.5104
" />
<path d="M12.8759 25.5104
L12.6945 25.5708
" />
<path d="M12.6945 25.5708
L12.3921 25.5708
" />
<path d="M13.6017 24.4218
L13.6621 24.3613
" />
<path d="M13.6621 24.3613
L13.7831 24.3008
" />
<path d="M13.7831 24.3008
L14.0855 24.3008
" />
<path d="M14.0855 24.3008
L14.2064 24.3613
" />
<path d="M14.2064 24.3613
L14.2669 24.4218
" />
<path d="M14.2669 24.4218
L14.3274 24.5427
" />
<path d="M14.3274 24.5427
L14.3274 24.6637
" />
<path d="M14.3274 24.6637
L14.2669 24.8451
" />
<path d="M14.2669 24.8451
L13.5412 25.5708
" />
<path d="M13.5412 25.5708
L14.3274 25.5708
" />
<path d="M14.8716 25.0870
L15.8393 25.0870
" />
</g></g>
<g style="fill:#A90000; fill-opacity:0.0; 
stroke:#A90000; stroke-width:0.1524; stroke-opacity:1; 
stroke-linecap:round; stroke-linejoin:round;">
<text x="18.4277" y="24.7293"
textLength="1.3365" font-size="1.6933" lengthAdjust="spacingAndGlyphs"
text-anchor="middle" opacity="0">6</text>
<g class="stroked-text"><desc>6</desc>
<path d="M18.6696 23.3038
L18.4277 23.3038
" />
<path d="M18.4277 23.3038
L18.3068 23.3643
" />
<path d="M18.3068 23.3643
L18.2463 23.4248
" />
<path d="M18.2463 23.4248
L18.1253 23.6062
" />
<path d="M18.1253 23.6062
L18.0649 23.8481
" />
<path d="M18.0649 23.8481
L18.0649 24.3319
" />
<path d="M18.0649 24.3319
L18.1253 24.4529
" />
<path d="M18.1253 24.4529
L18.1858 24.5134
" />
<path d="M18.1858 24.5134
L18.3068 24.5738
" />
<path d="M18.3068 24.5738
L18.5487 24.5738
" />
<path d="M18.5487 24.5738
L18.6696 24.5134
" />
<path d="M18.6696 24.5134
L18.7301 24.4529
" />
<path d="M18.7301 24.4529
L18.7906 24.3319
" />
<path d="M18.7906 24.3319
L18.7906 24.0295
" />
<path d="M18.7906 24.0295
L18.7301 23.9086
" />
<path d="M18.7301 23.9086
L18.6696 23.8481
" />
<path d="M18.6696 23.8481
L18.5487 23.7876
" />
<path d="M18.5487 23.7876
L18.3068 23.7876
" />
<path d="M18.3068 23.7876
L18.1858 23.8481
" />
<path d="M18.1858 23.8481
L18.1253 23.9086
" />
<path d="M18.1253 23.9086
L18.0649 24.0295
" />
</g></g>
<g style="fill:#840000; fill-opacity:0.0; 
stroke:#840000; stroke-width:0.1524; stroke-opacity:1; 
stroke-linecap:round; stroke-linejoin:round;">
<path d="M17.1577 22.4433
L19.6977 22.4433
" />
</g>
<g style="fill:#006464; fill-opacity:0.0; 
stroke:#006464; stroke-width:0.1524; stroke-opacity:1; 
stroke-linecap:round; stroke-linejoin:round;">
<text x="16.1417" y="23.0783"
textLength="4.1789" font-size="1.6933" lengthAdjust="spacingAndGlyphs"
text-anchor="end" opacity="0">D2+</text>
<g class="stroked-text"><desc>D2+</desc>
<path d="M12.3921 23.0308
L12.3921 21.7608
" />
<path d="M12.3921 21.7608
L12.6945 21.7608
" />
<path d="M12.6945 21.7608
L12.8759 21.8213
" />
<path d="M12.8759 21.8213
L12.9969 21.9423
" />
<path d="M12.9969 21.9423
L13.0574 22.0632
" />
<path d="M13.0574 22.0632
L13.1178 22.3051
" />
<path d="M13.1178 22.3051
L13.1178 22.4865
" />
<path d="M13.1178 22.4865
L13.0574 22.7284
" />
<path d="M13.0574 22.7284
L12.9969 22.8494
" />
<path d="M12.9969 22.8494
L12.8759 22.9704
" />
<path d="M12.8759 22.9704
L12.6945 23.0308
" />
<path d="M12.6945 23.0308
L12.3921 23.0308
" />
<path d="M13.6017 21.8818
L13.6621 21.8213
" />
<path d="M13.6621 21.8213
L13.7831 21.7608
" />
<path d="M13.7831 21.7608
L14.0855 21.7608
" />
<path d="M14.0855 21.7608
L14.2064 21.8213
" />
<path d="M14.2064 21.8213
L14.2669 21.8818
" />
<path d="M14.2669 21.8818
L14.3274 22.0027
" />
<path d="M14.3274 22.0027
L14.3274 22.1237
" />
<path d="M14.3274 22.1237
L14.2669 22.3051
" />
<path d="M14.2669 22.3051
L13.5412 23.0308
" />
<path d="M13.5412 23.0308
L14.3274 23.0308
" />
<path d="M14.8716 22.5470
L15.8393 22.5470
" />
<path d="M15.3554 23.0308
L15.3554 22.0632
" />
</g></g>
<g style="fill:#A90000; fill-opacity:0.0; 
stroke:#A90000; stroke-width:0.1524; stroke-opacity:1; 
stroke-linecap:round; stroke-linejoin:round;">
<text x="18.4277" y="22.1893"
textLength="1.3365" font-size="1.6933" lengthAdjust="spacingAndGlyphs"
text-anchor="middle" opacity="0">7</text>
<g class="stroked-text"><desc>7</desc>
<path d="M18.0044 20.7638
L18.8510 20.7638
" />
<path d="M18.8510 20.7638
L18.3068 22.0338
" />
</g></g>
<g style="fill:#840000; fill-opacity:0.0; 
stroke:#840000; stroke-width:0.1524; stroke-opacity:1; 
stroke-linecap:round; stroke-linejoin:round;">
<path d="M12.0777 32.6033
L12.0777 35.1433
" />
</g>
<g style="fill:#006464; fill-opacity:0.0; 
stroke:#006464; stroke-width:0.1524; stroke-opacity:1; 
stroke-linecap:round; stroke-linejoin:round;">
<g transform="rotate(-90.000000 12.0777 31.5873)">
<text x="12.0777" y="32.2223"
textLength="5.2070" font-size="1.6933" lengthAdjust="spacingAndGlyphs"
text-anchor="start" opacity="0">GND2</text>
</g>
<g class="stroked-text"><desc>GND2</desc>
<path d="M11.4557 30.6196
L11.3952 30.7406
" />
<path d="M11.3952 30.7406
L11.3952 30.9220
" />
<path d="M11.3952 30.9220
L11.4557 31.1034
" />
<path d="M11.4557 31.1034
L11.5767 31.2244
" />
<path d="M11.5767 31.2244
L11.6976 31.2849
" />
<path d="M11.6976 31.2849
L11.9395 31.3453
" />
<path d="M11.9395 31.3453
L12.1209 31.3453
" />
<path d="M12.1209 31.3453
L12.3628 31.2849
" />
<path d="M12.3628 31.2849
L12.4838 31.2244
" />
<path d="M12.4838 31.2244
L12.6048 31.1034
" />
<path d="M12.6048 31.1034
L12.6652 30.9220
" />
<path d="M12.6652 30.9220
L12.6652 30.8011
" />
<path d="M12.6652 30.8011
L12.6048 30.6196
" />
<path d="M12.6048 30.6196
L12.5443 30.5592
" />
<path d="M12.5443 30.5592
L12.1209 30.5592
" />
<path d="M12.1209 30.5592
L12.1209 30.8011
" />
<path d="M12.6652 30.0149
L11.3952 30.0149
" />
<path d="M11.3952 30.0149
L12.6652 29.2892
" />
<path d="M12.6652 29.2892
L11.3952 29.2892
" />
<path d="M12.6652 28.6844
L11.3952 28.6844
" />
<path d="M11.3952 28.6844
L11.3952 28.3820
" />
<path d="M11.3952 28.3820
L11.4557 28.2006
" />
<path d="M11.4557 28.2006
L11.5767 28.0796
" />
<path d="M11.5767 28.0796
L11.6976 28.0191
" />
<path d="M11.6976 28.0191
L11.9395 27.9587
" />
<path d="M11.9395 27.9587
L12.1209 27.9587
" />
<path d="M12.1209 27.9587
L12.3628 28.0191
" />
<path d="M12.3628 28.0191
L12.4838 28.0796
" />
<path d="M12.4838 28.0796
L12.6048 28.2006
" />
<path d="M12.6048 28.2006
L12.6652 28.3820
" />
<path d="M12.6652 28.3820
L12.6652 28.6844
" />
<path d="M11.5162 27.4748
L11.4557 27.4144
" />
<path d="M11.4557 27.4144
L11.3952 27.2934
" />
<path d="M11.3952 27.2934
L11.3952 26.9910
" />
<path d="M11.3952 26.9910
L11.4557 26.8701
" />
<path d="M11.4557 26.8701
L11.5162 26.8096
" />
<path d="M11.5162 26.8096
L11.6371 26.7491
" />
<path d="M11.6371 26.7491
L11.7581 26.7491
" />
<path d="M11.7581 26.7491
L11.9395 26.8096
" />
<path d="M11.9395 26.8096
L12.6652 27.5353
" />
<path d="M12.6652 27.5353
L12.6652 26.7491
" />
</g></g>
<g style="fill:#A90000; fill-opacity:0.0; 
stroke:#A90000; stroke-width:0.1524; stroke-opacity:1; 
stroke-linecap:round; stroke-linejoin:round;">
<g transform="rotate(-90.000000 11.8237 33.8733)">
<text x="11.8237" y="33.8733"
textLength="1.3365" font-size="1.6933" lengthAdjust="spacingAndGlyphs"
text-anchor="middle" opacity="0">8</text>
</g>
<g class="stroked-text"><desc>8</desc>
<path d="M10.9425 33.9941
L10.8820 34.1151
" />
<path d="M10.8820 34.1151
L10.8216 34.1756
" />
<path d="M10.8216 34.1756
L10.7006 34.2360
" />
<path d="M10.7006 34.2360
L10.6401 34.2360
" />
<path d="M10.6401 34.2360
L10.5192 34.1756
" />
<path d="M10.5192 34.1756
L10.4587 34.1151
" />
<path d="M10.4587 34.1151
L10.3982 33.9941
" />
<path d="M10.3982 33.9941
L10.3982 33.7522
" />
<path d="M10.3982 33.7522
L10.4587 33.6313
" />
<path d="M10.4587 33.6313
L10.5192 33.5708
" />
<path d="M10.5192 33.5708
L10.6401 33.5103
" />
<path d="M10.6401 33.5103
L10.7006 33.5103
" />
<path d="M10.7006 33.5103
L10.8216 33.5708
" />
<path d="M10.8216 33.5708
L10.8820 33.6313
" />
<path d="M10.8820 33.6313
L10.9425 33.7522
" />
<path d="M10.9425 33.7522
L10.9425 33.9941
" />
<path d="M10.9425 33.9941
L11.0030 34.1151
" />
<path d="M11.0030 34.1151
L11.0635 34.1756
" />
<path d="M11.0635 34.1756
L11.1844 34.2360
" />
<path d="M11.1844 34.2360
L11.4263 34.2360
" />
<path d="M11.4263 34.2360
L11.5473 34.1756
" />
<path d="M11.5473 34.1756
L11.6078 34.1151
" />
<path d="M11.6078 34.1151
L11.6682 33.9941
" />
<path d="M11.6682 33.9941
L11.6682 33.7522
" />
<path d="M11.6682 33.7522
L11.6078 33.6313
" />
<path d="M11.6078 33.6313
L11.5473 33.5708
" />
<path d="M11.5473 33.5708
L11.4263 33.5103
" />
<path d="M11.4263 33.5103
L11.1844 33.5103
" />
<path d="M11.1844 33.5103
L11.0635 33.5708
" />
<path d="M11.0635 33.5708
L11.0030 33.6313
" />
<path d="M11.0030 33.6313
L10.9425 33.7522
" />
</g></g>
<g style="fill:#840000; fill-opacity:0.0; 
stroke:#840000; stroke-width:0.1524; stroke-opacity:1; 
stroke-linecap:round; stroke-linejoin:round;">
<path d="M6.9977 32.6033
L6.9977 35.1433
" />
</g>
<g style="fill:#006464; fill-opacity:0.0; 
stroke:#006464; stroke-width:0.1524; stroke-opacity:1; 
stroke-linecap:round; stroke-linejoin:round;">
<g transform="rotate(-90.000000 6.9977 31.5873)">
<text x="6.9977" y="32.2223"
textLength="5.9931" font-size="1.6933" lengthAdjust="spacingAndGlyphs"
text-anchor="start" opacity="0">Shield</text>
</g>
<g class="stroked-text"><desc>Shield</desc>
<path d="M7.5248 31.3453
L7.5852 31.1639
" />
<path d="M7.5852 31.1639
L7.5852 30.8615
" />
<path d="M7.5852 30.8615
L7.5248 30.7406
" />
<path d="M7.5248 30.7406
L7.4643 30.6801
" />
<path d="M7.4643 30.6801
L7.3433 30.6196
" />
<path d="M7.3433 30.6196
L7.2224 30.6196
" />
<path d="M7.2224 30.6196
L7.1014 30.6801
" />
<path d="M7.1014 30.6801
L7.0409 30.7406
" />
<path d="M7.0409 30.7406
L6.9805 30.8615
" />
<path d="M6.9805 30.8615
L6.9200 31.1034
" />
<path d="M6.9200 31.1034
L6.8595 31.2244
" />
<path d="M6.8595 31.2244
L6.7990 31.2849
" />
<path d="M6.7990 31.2849
L6.6781 31.3453
" />
<path d="M6.6781 31.3453
L6.5571 31.3453
" />
<path d="M6.5571 31.3453
L6.4362 31.2849
" />
<path d="M6.4362 31.2849
L6.3757 31.2244
" />
<path d="M6.3757 31.2244
L6.3152 31.1034
" />
<path d="M6.3152 31.1034
L6.3152 30.8011
" />
<path d="M6.3152 30.8011
L6.3757 30.6196
" />
<path d="M7.5852 30.0754
L6.3152 30.0754
" />
<path d="M7.5852 29.5311
L6.9200 29.5311
" />
<path d="M6.9200 29.5311
L6.7990 29.5916
" />
<path d="M6.7990 29.5916
L6.7386 29.7125
" />
<path d="M6.7386 29.7125
L6.7386 29.8939
" />
<path d="M6.7386 29.8939
L6.7990 30.0149
" />
<path d="M6.7990 30.0149
L6.8595 30.0754
" />
<path d="M7.5852 28.9264
L6.7386 28.9264
" />
<path d="M6.3152 28.9264
L6.3757 28.9868
" />
<path d="M6.3757 28.9868
L6.4362 28.9264
" />
<path d="M6.4362 28.9264
L6.3757 28.8659
" />
<path d="M6.3757 28.8659
L6.3152 28.9264
" />
<path d="M6.3152 28.9264
L6.4362 28.9264
" />
<path d="M7.5248 27.8378
L7.5852 27.9587
" />
<path d="M7.5852 27.9587
L7.5852 28.2006
" />
<path d="M7.5852 28.2006
L7.5248 28.3216
" />
<path d="M7.5248 28.3216
L7.4038 28.3820
" />
<path d="M7.4038 28.3820
L6.9200 28.3820
" />
<path d="M6.9200 28.3820
L6.7990 28.3216
" />
<path d="M6.7990 28.3216
L6.7386 28.2006
" />
<path d="M6.7386 28.2006
L6.7386 27.9587
" />
<path d="M6.7386 27.9587
L6.7990 27.8378
" />
<path d="M6.7990 27.8378
L6.9200 27.7773
" />
<path d="M6.9200 27.7773
L7.0409 27.7773
" />
<path d="M7.0409 27.7773
L7.1619 28.3820
" />
<path d="M7.5852 27.0515
L7.5248 27.1725
" />
<path d="M7.5248 27.1725
L7.4038 27.2330
" />
<path d="M7.4038 27.2330
L6.3152 27.2330
" />
<path d="M7.5852 26.0235
L6.3152 26.0235
" />
<path d="M7.5248 26.0235
L7.5852 26.1444
" />
<path d="M7.5852 26.1444
L7.5852 26.3863
" />
<path d="M7.5852 26.3863
L7.5248 26.5073
" />
<path d="M7.5248 26.5073
L7.4643 26.5678
" />
<path d="M7.4643 26.5678
L7.3433 26.6282
" />
<path d="M7.3433 26.6282
L6.9805 26.6282
" />
<path d="M6.9805 26.6282
L6.8595 26.5678
" />
<path d="M6.8595 26.5678
L6.7990 26.5073
" />
<path d="M6.7990 26.5073
L6.7386 26.3863
" />
<path d="M6.7386 26.3863
L6.7386 26.1444
" />
<path d="M6.7386 26.1444
L6.7990 26.0235
" />
</g></g>
<g style="fill:#A90000; fill-opacity:0.0; 
stroke:#A90000; stroke-width:0.1524; stroke-opacity:1; 
stroke-linecap:round; stroke-linejoin:round;">
<g transform="rotate(-90.000000 6.7437 33.8733)">
<text x="6.7437" y="33.8733"
textLength="1.3365" font-size="1.6933" lengthAdjust="spacingAndGlyphs"
text-anchor="middle" opacity="0">9</text>
</g>
<g class="stroked-text"><desc>9</desc>
<path d="M6.5882 34.1151
L6.5882 33.8732
" />
<path d="M6.5882 33.8732
L6.5278 33.7522
" />
<path d="M6.5278 33.7522
L6.4673 33.6918
" />
<path d="M6.4673 33.6918
L6.2858 33.5708
" />
<path d="M6.2858 33.5708
L6.0439 33.5103
" />
<path d="M6.0439 33.5103
L5.5601 33.5103
" />
<path d="M5.5601 33.5103
L5.4392 33.5708
" />
<path d="M5.4392 33.5708
L5.3787 33.6313
" />
<path d="M5.3787 33.6313
L5.3182 33.7522
" />
<path d="M5.3182 33.7522
L5.3182 33.9941
" />
<path d="M5.3182 33.9941
L5.3787 34.1151
" />
<path d="M5.3787 34.1151
L5.4392 34.1756
" />
<path d="M5.4392 34.1756
L5.5601 34.2360
" />
<path d="M5.5601 34.2360
L5.8625 34.2360
" />
<path d="M5.8625 34.2360
L5.9835 34.1756
" />
<path d="M5.9835 34.1756
L6.0439 34.1151
" />
<path d="M6.0439 34.1151
L6.1044 33.9941
" />
<path d="M6.1044 33.9941
L6.1044 33.7522
" />
<path d="M6.1044 33.7522
L6.0439 33.6313
" />
<path d="M6.0439 33.6313
L5.9835 33.5708
" />
<path d="M5.9835 33.5708
L5.8625 33.5103
" />
</g></g>
<g style="fill:#840084; fill-opacity:0.0; 
stroke:#840084; stroke-width:0.1524; stroke-opacity:1; 
stroke-linecap:round; stroke-linejoin:round;">
</g>
<g style="fill:#006464; fill-opacity:0.0; 
stroke:#006464; stroke-width:0.1524; stroke-opacity:1; 
stroke-linecap:round; stroke-linejoin:round;">
</g>
<g style="fill:#006464; fill-opacity:0.0; 
stroke:#006464; stroke-width:0.1588; stroke-opacity:1; 
stroke-linecap:round; stroke-linejoin:round;">
<text x="9.5377" y="4.6633"
textLength="2.1992" font-size="1.6933" lengthAdjust="spacingAndGlyphs"
text-anchor="middle" opacity="0">J?</text>
<g class="stroked-text"><desc>J?</desc>
<path d="M9.1748 3.3458
L9.1748 4.2530
" />
<path d="M9.1748 4.2530
L9.1143 4.4344
" />
<path d="M9.1143 4.4344
L8.9934 4.5554
" />
<path d="M8.9934 4.5554
L8.8119 4.6158
" />
<path d="M8.8119 4.6158
L8.6910 4.6158
" />
<path d="M9.9610 4.4949
L10.0214 4.5554
" />
<path d="M10.0214 4.5554
L9.9610 4.6158
" />
<path d="M9.9610 4.6158
L9.9005 4.5554
" />
<path d="M9.9005 4.5554
L9.9610 4.4949
" />
<path d="M9.9610 4.4949
L9.9610 4.6158
" />
<path d="M9.7191 3.4063
L9.8400 3.3458
" />
<path d="M9.8400 3.3458
L10.1424 3.3458
" />
<path d="M10.1424 3.3458
L10.2633 3.4063
" />
<path d="M10.2633 3.4063
L10.3238 3.5273
" />
<path d="M10.3238 3.5273
L10.3238 3.6482
" />
<path d="M10.3238 3.6482
L10.2633 3.7692
" />
<path d="M10.2633 3.7692
L10.2029 3.8296
" />
<path d="M10.2029 3.8296
L10.0819 3.8901
" />
<path d="M10.0819 3.8901
L10.0214 3.9506
" />
<path d="M10.0214 3.9506
L9.9610 4.0715
" />
<path d="M9.9610 4.0715
L9.9610 4.1320
" />
</g><text x="9.5377" y="6.5683"
textLength="14.4153" font-size="1.6933" lengthAdjust="spacingAndGlyphs"
text-anchor="middle" opacity="0">USB_A_Stacked</text>
<g class="stroked-text"><desc>USB_A_Stacked</desc>
<path d="M2.7039 5.2508
L2.7039 6.2789
" />
<path d="M2.7039 6.2789
L2.7644 6.3999
" />
<path d="M2.7644 6.3999
L2.8249 6.4604
" />
<path d="M2.8249 6.4604
L2.9458 6.5208
" />
<path d="M2.9458 6.5208
L3.1877 6.5208
" />
<path d="M3.1877 6.5208
L3.3087 6.4604
" />
<path d="M3.3087 6.4604
L3.3692 6.3999
" />
<path d="M3.3692 6.3999
L3.4296 6.2789
" />
<path d="M3.4296 6.2789
L3.4296 5.2508
" />
<path d="M3.9740 6.4604
L4.1554 6.5208
" />
<path d="M4.1554 6.5208
L4.4578 6.5208
" />
<path d="M4.4578 6.5208
L4.5787 6.4604
" />
<path d="M4.5787 6.4604
L4.6392 6.3999
" />
<path d="M4.6392 6.3999
L4.6997 6.2789
" />
<path d="M4.6997 6.2789
L4.6997 6.1580
" />
<path d="M4.6997 6.1580
L4.6392 6.0370
" />
<path d="M4.6392 6.0370
L4.5787 5.9765
" />
<path d="M4.5787 5.9765
L4.4578 5.9161
" />
<path d="M4.4578 5.9161
L4.2159 5.8556
" />
<path d="M4.2159 5.8556
L4.0949 5.7951
" />
<path d="M4.0949 5.7951
L4.0344 5.7346
" />
<path d="M4.0344 5.7346
L3.9740 5.6137
" />
<path d="M3.9740 5.6137
L3.9740 5.4927
" />
<path d="M3.9740 5.4927
L4.0344 5.3718
" />
<path d="M4.0344 5.3718
L4.0949 5.3113
" />
<path d="M4.0949 5.3113
L4.2159 5.2508
" />
<path d="M4.2159 5.2508
L4.5182 5.2508
" />
<path d="M4.5182 5.2508
L4.6997 5.3113
" />
<path d="M5.6673 5.8556
L5.8487 5.9161
" />
<path d="M5.8487 5.9161
L5.9092 5.9765
" />
<path d="M5.9092 5.9765
L5.9696 6.0975
" />
<path d="M5.9696 6.0975
L5.9696 6.2789
" />
<path d="M5.9696 6.2789
L5.9092 6.3999
" />
<path d="M5.9092 6.3999
L5.8487 6.4604
" />
<path d="M5.8487 6.4604
L5.7277 6.5208
" />
<path d="M5.7277 6.5208
L5.2439 6.5208
" />
<path d="M5.2439 6.5208
L5.2439 5.2508
" />
<path d="M5.2439 5.2508
L5.6673 5.2508
" />
<path d="M5.6673 5.2508
L5.7882 5.3113
" />
<path d="M5.7882 5.3113
L5.8487 5.3718
" />
<path d="M5.8487 5.3718
L5.9092 5.4927
" />
<path d="M5.9092 5.4927
L5.9092 5.6137
" />
<path d="M5.9092 5.6137
L5.8487 5.7346
" />
<path d="M5.8487 5.7346
L5.7882 5.7951
" />
<path d="M5.7882 5.7951
L5.6673 5.8556
" />
<path d="M5.6673 5.8556
L5.2439 5.8556
" />
<path d="M6.2116 6.6418
L7.1792 6.6418
" />
<path d="M7.4211 6.1580
L8.0258 6.1580
" />
<path d="M7.3001 6.5208
L7.7234 5.2508
" />
<path d="M7.7234 5.2508
L8.1468 6.5208
" />
<path d="M8.2678 6.6418
L9.2354 6.6418
" />
<path d="M9.4773 6.4604
L9.6587 6.5208
" />
<path d="M9.6587 6.5208
L9.9611 6.5208
" />
<path d="M9.9611 6.5208
L10.0820 6.4604
" />
<path d="M10.0820 6.4604
L10.1425 6.3999
" />
<path d="M10.1425 6.3999
L10.2030 6.2789
" />
<path d="M10.2030 6.2789
L10.2030 6.1580
" />
<path d="M10.2030 6.1580
L10.1425 6.0370
" />
<path d="M10.1425 6.0370
L10.0820 5.9765
" />
<path d="M10.0820 5.9765
L9.9611 5.9161
" />
<path d="M9.9611 5.9161
L9.7192 5.8556
" />
<path d="M9.7192 5.8556
L9.5982 5.7951
" />
<path d="M9.5982 5.7951
L9.5377 5.7346
" />
<path d="M9.5377 5.7346
L9.4773 5.6137
" />
<path d="M9.4773 5.6137
L9.4773 5.4927
" />
<path d="M9.4773 5.4927
L9.5377 5.3718
" />
<path d="M9.5377 5.3718
L9.5982 5.3113
" />
<path d="M9.5982 5.3113
L9.7192 5.2508
" />
<path d="M9.7192 5.2508
L10.0215 5.2508
" />
<path d="M10.0215 5.2508
L10.2030 5.3113
" />
<path d="M10.5658 5.6742
L11.0496 5.6742
" />
<path d="M10.7472 5.2508
L10.7472 6.3394
" />
<path d="M10.7472 6.3394
L10.8077 6.4604
" />
<path d="M10.8077 6.4604
L10.9287 6.5208
" />
<path d="M10.9287 6.5208
L11.0496 6.5208
" />
<path d="M12.0172 6.5208
L12.0172 5.8556
" />
<path d="M12.0172 5.8556
L11.9567 5.7346
" />
<path d="M11.9567 5.7346
L11.8358 5.6742
" />
<path d="M11.8358 5.6742
L11.5939 5.6742
" />
<path d="M11.5939 5.6742
L11.4729 5.7346
" />
<path d="M12.0172 6.4604
L11.8963 6.5208
" />
<path d="M11.8963 6.5208
L11.5939 6.5208
" />
<path d="M11.5939 6.5208
L11.4729 6.4604
" />
<path d="M11.4729 6.4604
L11.4125 6.3394
" />
<path d="M11.4125 6.3394
L11.4125 6.2184
" />
<path d="M11.4125 6.2184
L11.4729 6.0975
" />
<path d="M11.4729 6.0975
L11.5939 6.0370
" />
<path d="M11.5939 6.0370
L11.8963 6.0370
" />
<path d="M11.8963 6.0370
L12.0172 5.9765
" />
<path d="M13.1662 6.4604
L13.0453 6.5208
" />
<path d="M13.0453 6.5208
L12.8034 6.5208
" />
<path d="M12.8034 6.5208
L12.6824 6.4604
" />
<path d="M12.6824 6.4604
L12.6219 6.3999
" />
<path d="M12.6219 6.3999
L12.5615 6.2789
" />
<path d="M12.5615 6.2789
L12.5615 5.9161
" />
<path d="M12.5615 5.9161
L12.6219 5.7951
" />
<path d="M12.6219 5.7951
L12.6824 5.7346
" />
<path d="M12.6824 5.7346
L12.8034 5.6742
" />
<path d="M12.8034 5.6742
L13.0453 5.6742
" />
<path d="M13.0453 5.6742
L13.1662 5.7346
" />
<path d="M13.7105 6.5208
L13.7105 5.2508
" />
<path d="M13.8315 6.0370
L14.1943 6.5208
" />
<path d="M14.1943 5.6742
L13.7105 6.1580
" />
<path d="M15.2224 6.4604
L15.1015 6.5208
" />
<path d="M15.1015 6.5208
L14.8596 6.5208
" />
<path d="M14.8596 6.5208
L14.7386 6.4604
" />
<path d="M14.7386 6.4604
L14.6782 6.3394
" />
<path d="M14.6782 6.3394
L14.6782 5.8556
" />
<path d="M14.6782 5.8556
L14.7386 5.7346
" />
<path d="M14.7386 5.7346
L14.8596 5.6742
" />
<path d="M14.8596 5.6742
L15.1015 5.6742
" />
<path d="M15.1015 5.6742
L15.2224 5.7346
" />
<path d="M15.2224 5.7346
L15.2829 5.8556
" />
<path d="M15.2829 5.8556
L15.2829 5.9765
" />
<path d="M15.2829 5.9765
L14.6782 6.0975
" />
<path d="M16.3715 6.5208
L16.3715 5.2508
" />
<path d="M16.3715 6.4604
L16.2506 6.5208
" />
<path d="M16.2506 6.5208
L16.0087 6.5208
" />
<path d="M16.0087 6.5208
L15.8877 6.4604
" />
<path d="M15.8877 6.4604
L15.8272 6.3999
" />
<path d="M15.8272 6.3999
L15.7668 6.2789
" />
<path d="M15.7668 6.2789
L15.7668 5.9161
" />
<path d="M15.7668 5.9161
L15.8272 5.7951
" />
<path d="M15.8272 5.7951
L15.8877 5.7346
" />
<path d="M15.8877 5.7346
L16.0087 5.6742
" />
<path d="M16.0087 5.6742
L16.2506 5.6742
" />
<path d="M16.2506 5.6742
L16.3715 5.7346
" />
</g></g>
<g style="fill:#840084; fill-opacity:0.0; 
stroke:#840084; stroke-width:0.1588; stroke-opacity:1; 
stroke-linecap:round; stroke-linejoin:round;">
<text x="14.6177" y="19.2683"
textLength="2.0177" font-size="1.6933" lengthAdjust="spacingAndGlyphs"
text-anchor="middle" opacity="0"> ~</text>
<g class="stroked-text"><desc> ~</desc>
<path d="M14.7689 18.7370
L14.8294 18.6765
" />
<path d="M14.8294 18.6765
L14.9503 18.6161
" />
<path d="M14.9503 18.6161
L15.1922 18.7370
" />
<path d="M15.1922 18.7370
L15.3132 18.6765
" />
<path d="M15.3132 18.6765
L15.3737 18.6161
" />
</g></g> 
</svg>
