<?xml version="1.0" standalone="no"?>
 <!DOCTYPE svg PUBLIC "-//W3C//DTD SVG 1.1//EN" 
 "http://www.w3.org/Graphics/SVG/1.1/DTD/svg11.dtd"> 
<svg
  xmlns:svg="http://www.w3.org/2000/svg"
  xmlns="http://www.w3.org/2000/svg"
  xmlns:xlink="http://www.w3.org/1999/xlink"
  version="1.1"
  width="53.3400mm" height="64.6938mm" viewBox="0.0000 0.0000 53.3400 64.6938">
<title>SVG Image created as working.svg date 2023/08/02 12:19:42 </title>
  <desc>Image generated by Eeschema-SVG </desc>
<g style="fill:#000000; fill-opacity:1.0000;stroke:#000000; stroke-opacity:1.0000;
stroke-linecap:round; stroke-linejoin:round;"
 transform="translate(0 0) scale(1 1)">
</g>
<g style="fill:#840000; fill-opacity:0.0; 
stroke:#840000; stroke-width:0.0000; stroke-opacity:1; 
stroke-linecap:round; stroke-linejoin:round;">
</g>
<g style="fill:#FFFFC2; fill-opacity:0.0; 
stroke:#FFFFC2; stroke-width:0.0000; stroke-opacity:1; 
stroke-linecap:round; stroke-linejoin:round;">
</g>
<g style="fill:#FFFFC2; fill-opacity:1.0000; 
stroke:#FFFFC2; stroke-width:0.0000; stroke-opacity:1; 
stroke-linecap:round; stroke-linejoin:round;">
<rect x="8.510000" y="7.495400" width="4.572000" height="47.752000" rx="0.000000" />
</g>
<g style="fill:#840084; fill-opacity:1.0000; 
stroke:#840084; stroke-width:0.0000; stroke-opacity:1; 
stroke-linecap:round; stroke-linejoin:round;">
</g>
<g style="fill:#840000; fill-opacity:1.0000; 
stroke:#840000; stroke-width:0.0000; stroke-opacity:1; 
stroke-linecap:round; stroke-linejoin:round;">
</g>
<g style="fill:#840000; fill-opacity:0.0; 
stroke:#840000; stroke-width:0.1524; stroke-opacity:1; 
stroke-linecap:round; stroke-linejoin:round;">
<rect x="8.256000" y="7.241400" width="5.080000" height="48.260000" rx="0.000000" />
<rect x="8.510000" y="54.104400" width="1.270000" height="0.254000" rx="0.000000" />
<rect x="8.510000" y="51.564400" width="1.270000" height="0.254000" rx="0.000000" />
<rect x="8.510000" y="49.024400" width="1.270000" height="0.254000" rx="0.000000" />
<rect x="8.510000" y="46.484400" width="1.270000" height="0.254000" rx="0.000000" />
<rect x="8.510000" y="43.944400" width="1.270000" height="0.254000" rx="0.000000" />
<rect x="8.510000" y="41.404400" width="1.270000" height="0.254000" rx="0.000000" />
<rect x="8.510000" y="38.864400" width="1.270000" height="0.254000" rx="0.000000" />
<rect x="8.510000" y="36.324400" width="1.270000" height="0.254000" rx="0.000000" />
<rect x="8.510000" y="33.784400" width="1.270000" height="0.254000" rx="0.000000" />
<rect x="8.510000" y="31.244400" width="1.270000" height="0.254000" rx="0.000000" />
<rect x="8.510000" y="28.704400" width="1.270000" height="0.254000" rx="0.000000" />
<rect x="8.510000" y="26.164400" width="1.270000" height="0.254000" rx="0.000000" />
<rect x="8.510000" y="23.624400" width="1.270000" height="0.254000" rx="0.000000" />
<rect x="8.510000" y="21.084400" width="1.270000" height="0.254000" rx="0.000000" />
<rect x="8.510000" y="18.544400" width="1.270000" height="0.254000" rx="0.000000" />
<rect x="8.510000" y="16.004400" width="1.270000" height="0.254000" rx="0.000000" />
<rect x="8.510000" y="13.464400" width="1.270000" height="0.254000" rx="0.000000" />
<rect x="8.510000" y="10.924400" width="1.270000" height="0.254000" rx="0.000000" />
<rect x="8.510000" y="8.384400" width="1.270000" height="0.254000" rx="0.000000" />
</g>
<g style="fill:#840000; fill-opacity:0.0; 
stroke:#840000; stroke-width:0.2540; stroke-opacity:1; 
stroke-linecap:round; stroke-linejoin:round;">
<rect x="8.510000" y="7.495400" width="4.572000" height="47.752000" rx="0.000000" />
</g>
<g style="fill:#840000; fill-opacity:0.0; 
stroke:#840000; stroke-width:0.1524; stroke-opacity:1; 
stroke-linecap:round; stroke-linejoin:round;">
<rect x="11.812000" y="54.104400" width="1.270000" height="0.254000" rx="0.000000" />
<rect x="11.812000" y="51.564400" width="1.270000" height="0.254000" rx="0.000000" />
<rect x="11.812000" y="49.024400" width="1.270000" height="0.254000" rx="0.000000" />
<rect x="11.812000" y="46.484400" width="1.270000" height="0.254000" rx="0.000000" />
<rect x="11.812000" y="43.944400" width="1.270000" height="0.254000" rx="0.000000" />
<rect x="11.812000" y="41.404400" width="1.270000" height="0.254000" rx="0.000000" />
<rect x="11.812000" y="38.864400" width="1.270000" height="0.254000" rx="0.000000" />
<rect x="11.812000" y="36.324400" width="1.270000" height="0.254000" rx="0.000000" />
<rect x="11.812000" y="33.784400" width="1.270000" height="0.254000" rx="0.000000" />
<rect x="11.812000" y="31.244400" width="1.270000" height="0.254000" rx="0.000000" />
<rect x="11.812000" y="28.704400" width="1.270000" height="0.254000" rx="0.000000" />
<rect x="11.812000" y="26.164400" width="1.270000" height="0.254000" rx="0.000000" />
<rect x="11.812000" y="23.624400" width="1.270000" height="0.254000" rx="0.000000" />
<rect x="11.812000" y="21.084400" width="1.270000" height="0.254000" rx="0.000000" />
<rect x="11.812000" y="18.544400" width="1.270000" height="0.254000" rx="0.000000" />
<rect x="11.812000" y="16.004400" width="1.270000" height="0.254000" rx="0.000000" />
<rect x="11.812000" y="13.464400" width="1.270000" height="0.254000" rx="0.000000" />
<rect x="11.812000" y="10.924400" width="1.270000" height="0.254000" rx="0.000000" />
<rect x="11.812000" y="8.384400" width="1.270000" height="0.254000" rx="0.000000" />
<path d="M10.7960 55.5014
L10.7960 59.3114
" />
</g>
<g style="fill:#A90000; fill-opacity:0.0; 
stroke:#A90000; stroke-width:0.1524; stroke-opacity:1; 
stroke-linecap:round; stroke-linejoin:round;">
<g transform="rotate(-90.000000 10.5420 57.4064)">
<text x="10.5420" y="57.4064"
textLength="2.6670" font-size="1.6933" lengthAdjust="spacingAndGlyphs"
text-anchor="middle" opacity="0">SH</text>
</g>
<g class="stroked-text"><desc>SH</desc>
<path d="M10.3261 58.4344
L10.3865 58.2530
" />
<path d="M10.3865 58.2530
L10.3865 57.9506
" />
<path d="M10.3865 57.9506
L10.3261 57.8297
" />
<path d="M10.3261 57.8297
L10.2656 57.7692
" />
<path d="M10.2656 57.7692
L10.1446 57.7087
" />
<path d="M10.1446 57.7087
L10.0237 57.7087
" />
<path d="M10.0237 57.7087
L9.9027 57.7692
" />
<path d="M9.9027 57.7692
L9.8422 57.8297
" />
<path d="M9.8422 57.8297
L9.7818 57.9506
" />
<path d="M9.7818 57.9506
L9.7213 58.1925
" />
<path d="M9.7213 58.1925
L9.6608 58.3135
" />
<path d="M9.6608 58.3135
L9.6003 58.3740
" />
<path d="M9.6003 58.3740
L9.4794 58.4344
" />
<path d="M9.4794 58.4344
L9.3584 58.4344
" />
<path d="M9.3584 58.4344
L9.2375 58.3740
" />
<path d="M9.2375 58.3740
L9.1770 58.3135
" />
<path d="M9.1770 58.3135
L9.1165 58.1925
" />
<path d="M9.1165 58.1925
L9.1165 57.8902
" />
<path d="M9.1165 57.8902
L9.1770 57.7087
" />
<path d="M10.3865 57.1645
L9.1165 57.1645
" />
<path d="M9.7213 57.1645
L9.7213 56.4388
" />
<path d="M10.3865 56.4388
L9.1165 56.4388
" />
</g></g>
<g style="fill:#840000; fill-opacity:0.0; 
stroke:#840000; stroke-width:0.1524; stroke-opacity:1; 
stroke-linecap:round; stroke-linejoin:round;">
<path d="M8.5100 8.5114
L4.4460 8.5114
" />
</g>
<g style="fill:#A90000; fill-opacity:0.0; 
stroke:#A90000; stroke-width:0.1524; stroke-opacity:1; 
stroke-linecap:round; stroke-linejoin:round;">
<text x="6.4780" y="8.2574"
textLength="2.4855" font-size="1.6933" lengthAdjust="spacingAndGlyphs"
text-anchor="middle" opacity="0">a1</text>
<g class="stroked-text"><desc>a1</desc>
<path d="M6.1454 8.1019
L6.1454 7.4367
" />
<path d="M6.1454 7.4367
L6.0849 7.3157
" />
<path d="M6.0849 7.3157
L5.9640 7.2553
" />
<path d="M5.9640 7.2553
L5.7221 7.2553
" />
<path d="M5.7221 7.2553
L5.6011 7.3157
" />
<path d="M6.1454 8.0415
L6.0245 8.1019
" />
<path d="M6.0245 8.1019
L5.7221 8.1019
" />
<path d="M5.7221 8.1019
L5.6011 8.0415
" />
<path d="M5.6011 8.0415
L5.5407 7.9205
" />
<path d="M5.5407 7.9205
L5.5407 7.7995
" />
<path d="M5.5407 7.7995
L5.6011 7.6786
" />
<path d="M5.6011 7.6786
L5.7221 7.6181
" />
<path d="M5.7221 7.6181
L6.0245 7.6181
" />
<path d="M6.0245 7.6181
L6.1454 7.5576
" />
<path d="M7.4154 8.1019
L6.6897 8.1019
" />
<path d="M7.0525 8.1019
L7.0525 6.8319
" />
<path d="M7.0525 6.8319
L6.9316 7.0134
" />
<path d="M6.9316 7.0134
L6.8106 7.1343
" />
<path d="M6.8106 7.1343
L6.6897 7.1948
" />
</g></g>
<g style="fill:#840000; fill-opacity:0.0; 
stroke:#840000; stroke-width:0.1524; stroke-opacity:1; 
stroke-linecap:round; stroke-linejoin:round;">
<path d="M8.5100 31.3714
L4.4460 31.3714
" />
</g>
<g style="fill:#A90000; fill-opacity:0.0; 
stroke:#A90000; stroke-width:0.1524; stroke-opacity:1; 
stroke-linecap:round; stroke-linejoin:round;">
<text x="6.4780" y="31.1174"
textLength="3.6950" font-size="1.6933" lengthAdjust="spacingAndGlyphs"
text-anchor="middle" opacity="0">a10</text>
<g class="stroked-text"><desc>a10</desc>
<path d="M5.5406 30.9619
L5.5406 30.2967
" />
<path d="M5.5406 30.2967
L5.4801 30.1757
" />
<path d="M5.4801 30.1757
L5.3592 30.1153
" />
<path d="M5.3592 30.1153
L5.1173 30.1153
" />
<path d="M5.1173 30.1153
L4.9963 30.1757
" />
<path d="M5.5406 30.9015
L5.4197 30.9619
" />
<path d="M5.4197 30.9619
L5.1173 30.9619
" />
<path d="M5.1173 30.9619
L4.9963 30.9015
" />
<path d="M4.9963 30.9015
L4.9359 30.7805
" />
<path d="M4.9359 30.7805
L4.9359 30.6595
" />
<path d="M4.9359 30.6595
L4.9963 30.5386
" />
<path d="M4.9963 30.5386
L5.1173 30.4781
" />
<path d="M5.1173 30.4781
L5.4197 30.4781
" />
<path d="M5.4197 30.4781
L5.5406 30.4176
" />
<path d="M6.8106 30.9619
L6.0849 30.9619
" />
<path d="M6.4477 30.9619
L6.4477 29.6919
" />
<path d="M6.4477 29.6919
L6.3268 29.8734
" />
<path d="M6.3268 29.8734
L6.2058 29.9943
" />
<path d="M6.2058 29.9943
L6.0849 30.0548
" />
<path d="M7.5967 29.6919
L7.7177 29.6919
" />
<path d="M7.7177 29.6919
L7.8386 29.7524
" />
<path d="M7.8386 29.7524
L7.8991 29.8129
" />
<path d="M7.8991 29.8129
L7.9596 29.9338
" />
<path d="M7.9596 29.9338
L8.0201 30.1757
" />
<path d="M8.0201 30.1757
L8.0201 30.4781
" />
<path d="M8.0201 30.4781
L7.9596 30.7200
" />
<path d="M7.9596 30.7200
L7.8991 30.8410
" />
<path d="M7.8991 30.8410
L7.8386 30.9015
" />
<path d="M7.8386 30.9015
L7.7177 30.9619
" />
<path d="M7.7177 30.9619
L7.5967 30.9619
" />
<path d="M7.5967 30.9619
L7.4758 30.9015
" />
<path d="M7.4758 30.9015
L7.4153 30.8410
" />
<path d="M7.4153 30.8410
L7.3548 30.7200
" />
<path d="M7.3548 30.7200
L7.2944 30.4781
" />
<path d="M7.2944 30.4781
L7.2944 30.1757
" />
<path d="M7.2944 30.1757
L7.3548 29.9338
" />
<path d="M7.3548 29.9338
L7.4153 29.8129
" />
<path d="M7.4153 29.8129
L7.4758 29.7524
" />
<path d="M7.4758 29.7524
L7.5967 29.6919
" />
</g></g>
<g style="fill:#840000; fill-opacity:0.0; 
stroke:#840000; stroke-width:0.1524; stroke-opacity:1; 
stroke-linecap:round; stroke-linejoin:round;">
<path d="M8.5100 33.9114
L4.4460 33.9114
" />
</g>
<g style="fill:#A90000; fill-opacity:0.0; 
stroke:#A90000; stroke-width:0.1524; stroke-opacity:1; 
stroke-linecap:round; stroke-linejoin:round;">
<text x="6.4780" y="33.6574"
textLength="3.6950" font-size="1.6933" lengthAdjust="spacingAndGlyphs"
text-anchor="middle" opacity="0">a11</text>
<g class="stroked-text"><desc>a11</desc>
<path d="M5.5406 33.5019
L5.5406 32.8367
" />
<path d="M5.5406 32.8367
L5.4801 32.7157
" />
<path d="M5.4801 32.7157
L5.3592 32.6553
" />
<path d="M5.3592 32.6553
L5.1173 32.6553
" />
<path d="M5.1173 32.6553
L4.9963 32.7157
" />
<path d="M5.5406 33.4415
L5.4197 33.5019
" />
<path d="M5.4197 33.5019
L5.1173 33.5019
" />
<path d="M5.1173 33.5019
L4.9963 33.4415
" />
<path d="M4.9963 33.4415
L4.9359 33.3205
" />
<path d="M4.9359 33.3205
L4.9359 33.1995
" />
<path d="M4.9359 33.1995
L4.9963 33.0786
" />
<path d="M4.9963 33.0786
L5.1173 33.0181
" />
<path d="M5.1173 33.0181
L5.4197 33.0181
" />
<path d="M5.4197 33.0181
L5.5406 32.9576
" />
<path d="M6.8106 33.5019
L6.0849 33.5019
" />
<path d="M6.4477 33.5019
L6.4477 32.2319
" />
<path d="M6.4477 32.2319
L6.3268 32.4134
" />
<path d="M6.3268 32.4134
L6.2058 32.5343
" />
<path d="M6.2058 32.5343
L6.0849 32.5948
" />
<path d="M8.0201 33.5019
L7.2944 33.5019
" />
<path d="M7.6572 33.5019
L7.6572 32.2319
" />
<path d="M7.6572 32.2319
L7.5363 32.4134
" />
<path d="M7.5363 32.4134
L7.4153 32.5343
" />
<path d="M7.4153 32.5343
L7.2944 32.5948
" />
</g></g>
<g style="fill:#840000; fill-opacity:0.0; 
stroke:#840000; stroke-width:0.1524; stroke-opacity:1; 
stroke-linecap:round; stroke-linejoin:round;">
<path d="M8.5100 36.4514
L4.4460 36.4514
" />
</g>
<g style="fill:#A90000; fill-opacity:0.0; 
stroke:#A90000; stroke-width:0.1524; stroke-opacity:1; 
stroke-linecap:round; stroke-linejoin:round;">
<text x="6.4780" y="36.1974"
textLength="3.6950" font-size="1.6933" lengthAdjust="spacingAndGlyphs"
text-anchor="middle" opacity="0">a12</text>
<g class="stroked-text"><desc>a12</desc>
<path d="M5.5406 36.0419
L5.5406 35.3767
" />
<path d="M5.5406 35.3767
L5.4801 35.2557
" />
<path d="M5.4801 35.2557
L5.3592 35.1953
" />
<path d="M5.3592 35.1953
L5.1173 35.1953
" />
<path d="M5.1173 35.1953
L4.9963 35.2557
" />
<path d="M5.5406 35.9815
L5.4197 36.0419
" />
<path d="M5.4197 36.0419
L5.1173 36.0419
" />
<path d="M5.1173 36.0419
L4.9963 35.9815
" />
<path d="M4.9963 35.9815
L4.9359 35.8605
" />
<path d="M4.9359 35.8605
L4.9359 35.7395
" />
<path d="M4.9359 35.7395
L4.9963 35.6186
" />
<path d="M4.9963 35.6186
L5.1173 35.5581
" />
<path d="M5.1173 35.5581
L5.4197 35.5581
" />
<path d="M5.4197 35.5581
L5.5406 35.4976
" />
<path d="M6.8106 36.0419
L6.0849 36.0419
" />
<path d="M6.4477 36.0419
L6.4477 34.7719
" />
<path d="M6.4477 34.7719
L6.3268 34.9534
" />
<path d="M6.3268 34.9534
L6.2058 35.0743
" />
<path d="M6.2058 35.0743
L6.0849 35.1348
" />
<path d="M7.2944 34.8929
L7.3548 34.8324
" />
<path d="M7.3548 34.8324
L7.4758 34.7719
" />
<path d="M7.4758 34.7719
L7.7782 34.7719
" />
<path d="M7.7782 34.7719
L7.8991 34.8324
" />
<path d="M7.8991 34.8324
L7.9596 34.8929
" />
<path d="M7.9596 34.8929
L8.0201 35.0138
" />
<path d="M8.0201 35.0138
L8.0201 35.1348
" />
<path d="M8.0201 35.1348
L7.9596 35.3162
" />
<path d="M7.9596 35.3162
L7.2339 36.0419
" />
<path d="M7.2339 36.0419
L8.0201 36.0419
" />
</g></g>
<g style="fill:#840000; fill-opacity:0.0; 
stroke:#840000; stroke-width:0.1524; stroke-opacity:1; 
stroke-linecap:round; stroke-linejoin:round;">
<path d="M8.5100 38.9914
L4.4460 38.9914
" />
</g>
<g style="fill:#A90000; fill-opacity:0.0; 
stroke:#A90000; stroke-width:0.1524; stroke-opacity:1; 
stroke-linecap:round; stroke-linejoin:round;">
<text x="6.4780" y="38.7374"
textLength="3.6950" font-size="1.6933" lengthAdjust="spacingAndGlyphs"
text-anchor="middle" opacity="0">a13</text>
<g class="stroked-text"><desc>a13</desc>
<path d="M5.5406 38.5819
L5.5406 37.9167
" />
<path d="M5.5406 37.9167
L5.4801 37.7957
" />
<path d="M5.4801 37.7957
L5.3592 37.7353
" />
<path d="M5.3592 37.7353
L5.1173 37.7353
" />
<path d="M5.1173 37.7353
L4.9963 37.7957
" />
<path d="M5.5406 38.5215
L5.4197 38.5819
" />
<path d="M5.4197 38.5819
L5.1173 38.5819
" />
<path d="M5.1173 38.5819
L4.9963 38.5215
" />
<path d="M4.9963 38.5215
L4.9359 38.4005
" />
<path d="M4.9359 38.4005
L4.9359 38.2795
" />
<path d="M4.9359 38.2795
L4.9963 38.1586
" />
<path d="M4.9963 38.1586
L5.1173 38.0981
" />
<path d="M5.1173 38.0981
L5.4197 38.0981
" />
<path d="M5.4197 38.0981
L5.5406 38.0376
" />
<path d="M6.8106 38.5819
L6.0849 38.5819
" />
<path d="M6.4477 38.5819
L6.4477 37.3119
" />
<path d="M6.4477 37.3119
L6.3268 37.4934
" />
<path d="M6.3268 37.4934
L6.2058 37.6143
" />
<path d="M6.2058 37.6143
L6.0849 37.6748
" />
<path d="M7.2339 37.3119
L8.0201 37.3119
" />
<path d="M8.0201 37.3119
L7.5967 37.7957
" />
<path d="M7.5967 37.7957
L7.7782 37.7957
" />
<path d="M7.7782 37.7957
L7.8991 37.8562
" />
<path d="M7.8991 37.8562
L7.9596 37.9167
" />
<path d="M7.9596 37.9167
L8.0201 38.0376
" />
<path d="M8.0201 38.0376
L8.0201 38.3400
" />
<path d="M8.0201 38.3400
L7.9596 38.4610
" />
<path d="M7.9596 38.4610
L7.8991 38.5215
" />
<path d="M7.8991 38.5215
L7.7782 38.5819
" />
<path d="M7.7782 38.5819
L7.4153 38.5819
" />
<path d="M7.4153 38.5819
L7.2944 38.5215
" />
<path d="M7.2944 38.5215
L7.2339 38.4610
" />
</g></g>
<g style="fill:#840000; fill-opacity:0.0; 
stroke:#840000; stroke-width:0.1524; stroke-opacity:1; 
stroke-linecap:round; stroke-linejoin:round;">
<path d="M8.5100 41.5314
L4.4460 41.5314
" />
</g>
<g style="fill:#A90000; fill-opacity:0.0; 
stroke:#A90000; stroke-width:0.1524; stroke-opacity:1; 
stroke-linecap:round; stroke-linejoin:round;">
<text x="6.4780" y="41.2774"
textLength="3.6950" font-size="1.6933" lengthAdjust="spacingAndGlyphs"
text-anchor="middle" opacity="0">a14</text>
<g class="stroked-text"><desc>a14</desc>
<path d="M5.5406 41.1219
L5.5406 40.4567
" />
<path d="M5.5406 40.4567
L5.4801 40.3357
" />
<path d="M5.4801 40.3357
L5.3592 40.2753
" />
<path d="M5.3592 40.2753
L5.1173 40.2753
" />
<path d="M5.1173 40.2753
L4.9963 40.3357
" />
<path d="M5.5406 41.0615
L5.4197 41.1219
" />
<path d="M5.4197 41.1219
L5.1173 41.1219
" />
<path d="M5.1173 41.1219
L4.9963 41.0615
" />
<path d="M4.9963 41.0615
L4.9359 40.9405
" />
<path d="M4.9359 40.9405
L4.9359 40.8195
" />
<path d="M4.9359 40.8195
L4.9963 40.6986
" />
<path d="M4.9963 40.6986
L5.1173 40.6381
" />
<path d="M5.1173 40.6381
L5.4197 40.6381
" />
<path d="M5.4197 40.6381
L5.5406 40.5776
" />
<path d="M6.8106 41.1219
L6.0849 41.1219
" />
<path d="M6.4477 41.1219
L6.4477 39.8519
" />
<path d="M6.4477 39.8519
L6.3268 40.0334
" />
<path d="M6.3268 40.0334
L6.2058 40.1543
" />
<path d="M6.2058 40.1543
L6.0849 40.2148
" />
<path d="M7.8991 40.2753
L7.8991 41.1219
" />
<path d="M7.5967 39.7915
L7.2944 40.6986
" />
<path d="M7.2944 40.6986
L8.0805 40.6986
" />
</g></g>
<g style="fill:#840000; fill-opacity:0.0; 
stroke:#840000; stroke-width:0.1524; stroke-opacity:1; 
stroke-linecap:round; stroke-linejoin:round;">
<path d="M8.5100 44.0714
L4.4460 44.0714
" />
</g>
<g style="fill:#A90000; fill-opacity:0.0; 
stroke:#A90000; stroke-width:0.1524; stroke-opacity:1; 
stroke-linecap:round; stroke-linejoin:round;">
<text x="6.4780" y="43.8174"
textLength="3.6950" font-size="1.6933" lengthAdjust="spacingAndGlyphs"
text-anchor="middle" opacity="0">a15</text>
<g class="stroked-text"><desc>a15</desc>
<path d="M5.5406 43.6619
L5.5406 42.9967
" />
<path d="M5.5406 42.9967
L5.4801 42.8757
" />
<path d="M5.4801 42.8757
L5.3592 42.8153
" />
<path d="M5.3592 42.8153
L5.1173 42.8153
" />
<path d="M5.1173 42.8153
L4.9963 42.8757
" />
<path d="M5.5406 43.6015
L5.4197 43.6619
" />
<path d="M5.4197 43.6619
L5.1173 43.6619
" />
<path d="M5.1173 43.6619
L4.9963 43.6015
" />
<path d="M4.9963 43.6015
L4.9359 43.4805
" />
<path d="M4.9359 43.4805
L4.9359 43.3595
" />
<path d="M4.9359 43.3595
L4.9963 43.2386
" />
<path d="M4.9963 43.2386
L5.1173 43.1781
" />
<path d="M5.1173 43.1781
L5.4197 43.1781
" />
<path d="M5.4197 43.1781
L5.5406 43.1176
" />
<path d="M6.8106 43.6619
L6.0849 43.6619
" />
<path d="M6.4477 43.6619
L6.4477 42.3919
" />
<path d="M6.4477 42.3919
L6.3268 42.5734
" />
<path d="M6.3268 42.5734
L6.2058 42.6943
" />
<path d="M6.2058 42.6943
L6.0849 42.7548
" />
<path d="M7.9596 42.3919
L7.3548 42.3919
" />
<path d="M7.3548 42.3919
L7.2944 42.9967
" />
<path d="M7.2944 42.9967
L7.3548 42.9362
" />
<path d="M7.3548 42.9362
L7.4758 42.8757
" />
<path d="M7.4758 42.8757
L7.7782 42.8757
" />
<path d="M7.7782 42.8757
L7.8991 42.9362
" />
<path d="M7.8991 42.9362
L7.9596 42.9967
" />
<path d="M7.9596 42.9967
L8.0201 43.1176
" />
<path d="M8.0201 43.1176
L8.0201 43.4200
" />
<path d="M8.0201 43.4200
L7.9596 43.5410
" />
<path d="M7.9596 43.5410
L7.8991 43.6015
" />
<path d="M7.8991 43.6015
L7.7782 43.6619
" />
<path d="M7.7782 43.6619
L7.4758 43.6619
" />
<path d="M7.4758 43.6619
L7.3548 43.6015
" />
<path d="M7.3548 43.6015
L7.2944 43.5410
" />
</g></g>
<g style="fill:#840000; fill-opacity:0.0; 
stroke:#840000; stroke-width:0.1524; stroke-opacity:1; 
stroke-linecap:round; stroke-linejoin:round;">
<path d="M8.5100 46.6114
L4.4460 46.6114
" />
</g>
<g style="fill:#A90000; fill-opacity:0.0; 
stroke:#A90000; stroke-width:0.1524; stroke-opacity:1; 
stroke-linecap:round; stroke-linejoin:round;">
<text x="6.4780" y="46.3574"
textLength="3.6950" font-size="1.6933" lengthAdjust="spacingAndGlyphs"
text-anchor="middle" opacity="0">a16</text>
<g class="stroked-text"><desc>a16</desc>
<path d="M5.5406 46.2019
L5.5406 45.5367
" />
<path d="M5.5406 45.5367
L5.4801 45.4157
" />
<path d="M5.4801 45.4157
L5.3592 45.3553
" />
<path d="M5.3592 45.3553
L5.1173 45.3553
" />
<path d="M5.1173 45.3553
L4.9963 45.4157
" />
<path d="M5.5406 46.1415
L5.4197 46.2019
" />
<path d="M5.4197 46.2019
L5.1173 46.2019
" />
<path d="M5.1173 46.2019
L4.9963 46.1415
" />
<path d="M4.9963 46.1415
L4.9359 46.0205
" />
<path d="M4.9359 46.0205
L4.9359 45.8995
" />
<path d="M4.9359 45.8995
L4.9963 45.7786
" />
<path d="M4.9963 45.7786
L5.1173 45.7181
" />
<path d="M5.1173 45.7181
L5.4197 45.7181
" />
<path d="M5.4197 45.7181
L5.5406 45.6576
" />
<path d="M6.8106 46.2019
L6.0849 46.2019
" />
<path d="M6.4477 46.2019
L6.4477 44.9319
" />
<path d="M6.4477 44.9319
L6.3268 45.1134
" />
<path d="M6.3268 45.1134
L6.2058 45.2343
" />
<path d="M6.2058 45.2343
L6.0849 45.2948
" />
<path d="M7.8991 44.9319
L7.6572 44.9319
" />
<path d="M7.6572 44.9319
L7.5363 44.9924
" />
<path d="M7.5363 44.9924
L7.4758 45.0529
" />
<path d="M7.4758 45.0529
L7.3548 45.2343
" />
<path d="M7.3548 45.2343
L7.2944 45.4762
" />
<path d="M7.2944 45.4762
L7.2944 45.9600
" />
<path d="M7.2944 45.9600
L7.3548 46.0810
" />
<path d="M7.3548 46.0810
L7.4153 46.1415
" />
<path d="M7.4153 46.1415
L7.5363 46.2019
" />
<path d="M7.5363 46.2019
L7.7782 46.2019
" />
<path d="M7.7782 46.2019
L7.8991 46.1415
" />
<path d="M7.8991 46.1415
L7.9596 46.0810
" />
<path d="M7.9596 46.0810
L8.0201 45.9600
" />
<path d="M8.0201 45.9600
L8.0201 45.6576
" />
<path d="M8.0201 45.6576
L7.9596 45.5367
" />
<path d="M7.9596 45.5367
L7.8991 45.4762
" />
<path d="M7.8991 45.4762
L7.7782 45.4157
" />
<path d="M7.7782 45.4157
L7.5363 45.4157
" />
<path d="M7.5363 45.4157
L7.4153 45.4762
" />
<path d="M7.4153 45.4762
L7.3548 45.5367
" />
<path d="M7.3548 45.5367
L7.2944 45.6576
" />
</g></g>
<g style="fill:#840000; fill-opacity:0.0; 
stroke:#840000; stroke-width:0.1524; stroke-opacity:1; 
stroke-linecap:round; stroke-linejoin:round;">
<path d="M8.5100 49.1514
L4.4460 49.1514
" />
</g>
<g style="fill:#A90000; fill-opacity:0.0; 
stroke:#A90000; stroke-width:0.1524; stroke-opacity:1; 
stroke-linecap:round; stroke-linejoin:round;">
<text x="6.4780" y="48.8974"
textLength="3.6950" font-size="1.6933" lengthAdjust="spacingAndGlyphs"
text-anchor="middle" opacity="0">a17</text>
<g class="stroked-text"><desc>a17</desc>
<path d="M5.5406 48.7419
L5.5406 48.0767
" />
<path d="M5.5406 48.0767
L5.4801 47.9557
" />
<path d="M5.4801 47.9557
L5.3592 47.8953
" />
<path d="M5.3592 47.8953
L5.1173 47.8953
" />
<path d="M5.1173 47.8953
L4.9963 47.9557
" />
<path d="M5.5406 48.6815
L5.4197 48.7419
" />
<path d="M5.4197 48.7419
L5.1173 48.7419
" />
<path d="M5.1173 48.7419
L4.9963 48.6815
" />
<path d="M4.9963 48.6815
L4.9359 48.5605
" />
<path d="M4.9359 48.5605
L4.9359 48.4395
" />
<path d="M4.9359 48.4395
L4.9963 48.3186
" />
<path d="M4.9963 48.3186
L5.1173 48.2581
" />
<path d="M5.1173 48.2581
L5.4197 48.2581
" />
<path d="M5.4197 48.2581
L5.5406 48.1976
" />
<path d="M6.8106 48.7419
L6.0849 48.7419
" />
<path d="M6.4477 48.7419
L6.4477 47.4719
" />
<path d="M6.4477 47.4719
L6.3268 47.6534
" />
<path d="M6.3268 47.6534
L6.2058 47.7743
" />
<path d="M6.2058 47.7743
L6.0849 47.8348
" />
<path d="M7.2339 47.4719
L8.0805 47.4719
" />
<path d="M8.0805 47.4719
L7.5363 48.7419
" />
</g></g>
<g style="fill:#840000; fill-opacity:0.0; 
stroke:#840000; stroke-width:0.1524; stroke-opacity:1; 
stroke-linecap:round; stroke-linejoin:round;">
<path d="M8.5100 51.6914
L4.4460 51.6914
" />
</g>
<g style="fill:#A90000; fill-opacity:0.0; 
stroke:#A90000; stroke-width:0.1524; stroke-opacity:1; 
stroke-linecap:round; stroke-linejoin:round;">
<text x="6.4780" y="51.4374"
textLength="3.6950" font-size="1.6933" lengthAdjust="spacingAndGlyphs"
text-anchor="middle" opacity="0">a18</text>
<g class="stroked-text"><desc>a18</desc>
<path d="M5.5406 51.2819
L5.5406 50.6167
" />
<path d="M5.5406 50.6167
L5.4801 50.4957
" />
<path d="M5.4801 50.4957
L5.3592 50.4353
" />
<path d="M5.3592 50.4353
L5.1173 50.4353
" />
<path d="M5.1173 50.4353
L4.9963 50.4957
" />
<path d="M5.5406 51.2215
L5.4197 51.2819
" />
<path d="M5.4197 51.2819
L5.1173 51.2819
" />
<path d="M5.1173 51.2819
L4.9963 51.2215
" />
<path d="M4.9963 51.2215
L4.9359 51.1005
" />
<path d="M4.9359 51.1005
L4.9359 50.9795
" />
<path d="M4.9359 50.9795
L4.9963 50.8586
" />
<path d="M4.9963 50.8586
L5.1173 50.7981
" />
<path d="M5.1173 50.7981
L5.4197 50.7981
" />
<path d="M5.4197 50.7981
L5.5406 50.7376
" />
<path d="M6.8106 51.2819
L6.0849 51.2819
" />
<path d="M6.4477 51.2819
L6.4477 50.0119
" />
<path d="M6.4477 50.0119
L6.3268 50.1934
" />
<path d="M6.3268 50.1934
L6.2058 50.3143
" />
<path d="M6.2058 50.3143
L6.0849 50.3748
" />
<path d="M7.5363 50.5562
L7.4153 50.4957
" />
<path d="M7.4153 50.4957
L7.3548 50.4353
" />
<path d="M7.3548 50.4353
L7.2944 50.3143
" />
<path d="M7.2944 50.3143
L7.2944 50.2538
" />
<path d="M7.2944 50.2538
L7.3548 50.1329
" />
<path d="M7.3548 50.1329
L7.4153 50.0724
" />
<path d="M7.4153 50.0724
L7.5363 50.0119
" />
<path d="M7.5363 50.0119
L7.7782 50.0119
" />
<path d="M7.7782 50.0119
L7.8991 50.0724
" />
<path d="M7.8991 50.0724
L7.9596 50.1329
" />
<path d="M7.9596 50.1329
L8.0201 50.2538
" />
<path d="M8.0201 50.2538
L8.0201 50.3143
" />
<path d="M8.0201 50.3143
L7.9596 50.4353
" />
<path d="M7.9596 50.4353
L7.8991 50.4957
" />
<path d="M7.8991 50.4957
L7.7782 50.5562
" />
<path d="M7.7782 50.5562
L7.5363 50.5562
" />
<path d="M7.5363 50.5562
L7.4153 50.6167
" />
<path d="M7.4153 50.6167
L7.3548 50.6772
" />
<path d="M7.3548 50.6772
L7.2944 50.7981
" />
<path d="M7.2944 50.7981
L7.2944 51.0400
" />
<path d="M7.2944 51.0400
L7.3548 51.1610
" />
<path d="M7.3548 51.1610
L7.4153 51.2215
" />
<path d="M7.4153 51.2215
L7.5363 51.2819
" />
<path d="M7.5363 51.2819
L7.7782 51.2819
" />
<path d="M7.7782 51.2819
L7.8991 51.2215
" />
<path d="M7.8991 51.2215
L7.9596 51.1610
" />
<path d="M7.9596 51.1610
L8.0201 51.0400
" />
<path d="M8.0201 51.0400
L8.0201 50.7981
" />
<path d="M8.0201 50.7981
L7.9596 50.6772
" />
<path d="M7.9596 50.6772
L7.8991 50.6167
" />
<path d="M7.8991 50.6167
L7.7782 50.5562
" />
</g></g>
<g style="fill:#840000; fill-opacity:0.0; 
stroke:#840000; stroke-width:0.1524; stroke-opacity:1; 
stroke-linecap:round; stroke-linejoin:round;">
<path d="M8.5100 54.2314
L4.4460 54.2314
" />
</g>
<g style="fill:#A90000; fill-opacity:0.0; 
stroke:#A90000; stroke-width:0.1524; stroke-opacity:1; 
stroke-linecap:round; stroke-linejoin:round;">
<text x="6.4780" y="53.9774"
textLength="3.6950" font-size="1.6933" lengthAdjust="spacingAndGlyphs"
text-anchor="middle" opacity="0">a19</text>
<g class="stroked-text"><desc>a19</desc>
<path d="M5.5406 53.8219
L5.5406 53.1567
" />
<path d="M5.5406 53.1567
L5.4801 53.0357
" />
<path d="M5.4801 53.0357
L5.3592 52.9753
" />
<path d="M5.3592 52.9753
L5.1173 52.9753
" />
<path d="M5.1173 52.9753
L4.9963 53.0357
" />
<path d="M5.5406 53.7615
L5.4197 53.8219
" />
<path d="M5.4197 53.8219
L5.1173 53.8219
" />
<path d="M5.1173 53.8219
L4.9963 53.7615
" />
<path d="M4.9963 53.7615
L4.9359 53.6405
" />
<path d="M4.9359 53.6405
L4.9359 53.5195
" />
<path d="M4.9359 53.5195
L4.9963 53.3986
" />
<path d="M4.9963 53.3986
L5.1173 53.3381
" />
<path d="M5.1173 53.3381
L5.4197 53.3381
" />
<path d="M5.4197 53.3381
L5.5406 53.2776
" />
<path d="M6.8106 53.8219
L6.0849 53.8219
" />
<path d="M6.4477 53.8219
L6.4477 52.5519
" />
<path d="M6.4477 52.5519
L6.3268 52.7334
" />
<path d="M6.3268 52.7334
L6.2058 52.8543
" />
<path d="M6.2058 52.8543
L6.0849 52.9148
" />
<path d="M7.4153 53.8219
L7.6572 53.8219
" />
<path d="M7.6572 53.8219
L7.7782 53.7615
" />
<path d="M7.7782 53.7615
L7.8386 53.7010
" />
<path d="M7.8386 53.7010
L7.9596 53.5195
" />
<path d="M7.9596 53.5195
L8.0201 53.2776
" />
<path d="M8.0201 53.2776
L8.0201 52.7938
" />
<path d="M8.0201 52.7938
L7.9596 52.6729
" />
<path d="M7.9596 52.6729
L7.8991 52.6124
" />
<path d="M7.8991 52.6124
L7.7782 52.5519
" />
<path d="M7.7782 52.5519
L7.5363 52.5519
" />
<path d="M7.5363 52.5519
L7.4153 52.6124
" />
<path d="M7.4153 52.6124
L7.3548 52.6729
" />
<path d="M7.3548 52.6729
L7.2944 52.7938
" />
<path d="M7.2944 52.7938
L7.2944 53.0962
" />
<path d="M7.2944 53.0962
L7.3548 53.2172
" />
<path d="M7.3548 53.2172
L7.4153 53.2776
" />
<path d="M7.4153 53.2776
L7.5363 53.3381
" />
<path d="M7.5363 53.3381
L7.7782 53.3381
" />
<path d="M7.7782 53.3381
L7.8991 53.2776
" />
<path d="M7.8991 53.2776
L7.9596 53.2172
" />
<path d="M7.9596 53.2172
L8.0201 53.0962
" />
</g></g>
<g style="fill:#840000; fill-opacity:0.0; 
stroke:#840000; stroke-width:0.1524; stroke-opacity:1; 
stroke-linecap:round; stroke-linejoin:round;">
<path d="M8.5100 11.0514
L4.4460 11.0514
" />
</g>
<g style="fill:#A90000; fill-opacity:0.0; 
stroke:#A90000; stroke-width:0.1524; stroke-opacity:1; 
stroke-linecap:round; stroke-linejoin:round;">
<text x="6.4780" y="10.7974"
textLength="2.4855" font-size="1.6933" lengthAdjust="spacingAndGlyphs"
text-anchor="middle" opacity="0">a2</text>
<g class="stroked-text"><desc>a2</desc>
<path d="M6.1454 10.6419
L6.1454 9.9767
" />
<path d="M6.1454 9.9767
L6.0849 9.8557
" />
<path d="M6.0849 9.8557
L5.9640 9.7953
" />
<path d="M5.9640 9.7953
L5.7221 9.7953
" />
<path d="M5.7221 9.7953
L5.6011 9.8557
" />
<path d="M6.1454 10.5815
L6.0245 10.6419
" />
<path d="M6.0245 10.6419
L5.7221 10.6419
" />
<path d="M5.7221 10.6419
L5.6011 10.5815
" />
<path d="M5.6011 10.5815
L5.5407 10.4605
" />
<path d="M5.5407 10.4605
L5.5407 10.3395
" />
<path d="M5.5407 10.3395
L5.6011 10.2186
" />
<path d="M5.6011 10.2186
L5.7221 10.1581
" />
<path d="M5.7221 10.1581
L6.0245 10.1581
" />
<path d="M6.0245 10.1581
L6.1454 10.0976
" />
<path d="M6.6897 9.4929
L6.7501 9.4324
" />
<path d="M6.7501 9.4324
L6.8711 9.3719
" />
<path d="M6.8711 9.3719
L7.1735 9.3719
" />
<path d="M7.1735 9.3719
L7.2944 9.4324
" />
<path d="M7.2944 9.4324
L7.3549 9.4929
" />
<path d="M7.3549 9.4929
L7.4154 9.6138
" />
<path d="M7.4154 9.6138
L7.4154 9.7348
" />
<path d="M7.4154 9.7348
L7.3549 9.9162
" />
<path d="M7.3549 9.9162
L6.6292 10.6419
" />
<path d="M6.6292 10.6419
L7.4154 10.6419
" />
</g></g>
<g style="fill:#840000; fill-opacity:0.0; 
stroke:#840000; stroke-width:0.1524; stroke-opacity:1; 
stroke-linecap:round; stroke-linejoin:round;">
<path d="M8.5100 13.5914
L4.4460 13.5914
" />
</g>
<g style="fill:#A90000; fill-opacity:0.0; 
stroke:#A90000; stroke-width:0.1524; stroke-opacity:1; 
stroke-linecap:round; stroke-linejoin:round;">
<text x="6.4780" y="13.3374"
textLength="2.4855" font-size="1.6933" lengthAdjust="spacingAndGlyphs"
text-anchor="middle" opacity="0">a3</text>
<g class="stroked-text"><desc>a3</desc>
<path d="M6.1454 13.1819
L6.1454 12.5167
" />
<path d="M6.1454 12.5167
L6.0849 12.3957
" />
<path d="M6.0849 12.3957
L5.9640 12.3353
" />
<path d="M5.9640 12.3353
L5.7221 12.3353
" />
<path d="M5.7221 12.3353
L5.6011 12.3957
" />
<path d="M6.1454 13.1215
L6.0245 13.1819
" />
<path d="M6.0245 13.1819
L5.7221 13.1819
" />
<path d="M5.7221 13.1819
L5.6011 13.1215
" />
<path d="M5.6011 13.1215
L5.5407 13.0005
" />
<path d="M5.5407 13.0005
L5.5407 12.8795
" />
<path d="M5.5407 12.8795
L5.6011 12.7586
" />
<path d="M5.6011 12.7586
L5.7221 12.6981
" />
<path d="M5.7221 12.6981
L6.0245 12.6981
" />
<path d="M6.0245 12.6981
L6.1454 12.6376
" />
<path d="M6.6292 11.9119
L7.4154 11.9119
" />
<path d="M7.4154 11.9119
L6.9920 12.3957
" />
<path d="M6.9920 12.3957
L7.1735 12.3957
" />
<path d="M7.1735 12.3957
L7.2944 12.4562
" />
<path d="M7.2944 12.4562
L7.3549 12.5167
" />
<path d="M7.3549 12.5167
L7.4154 12.6376
" />
<path d="M7.4154 12.6376
L7.4154 12.9400
" />
<path d="M7.4154 12.9400
L7.3549 13.0610
" />
<path d="M7.3549 13.0610
L7.2944 13.1215
" />
<path d="M7.2944 13.1215
L7.1735 13.1819
" />
<path d="M7.1735 13.1819
L6.8106 13.1819
" />
<path d="M6.8106 13.1819
L6.6897 13.1215
" />
<path d="M6.6897 13.1215
L6.6292 13.0610
" />
</g></g>
<g style="fill:#840000; fill-opacity:0.0; 
stroke:#840000; stroke-width:0.1524; stroke-opacity:1; 
stroke-linecap:round; stroke-linejoin:round;">
<path d="M8.5100 16.1314
L4.4460 16.1314
" />
</g>
<g style="fill:#A90000; fill-opacity:0.0; 
stroke:#A90000; stroke-width:0.1524; stroke-opacity:1; 
stroke-linecap:round; stroke-linejoin:round;">
<text x="6.4780" y="15.8774"
textLength="2.4855" font-size="1.6933" lengthAdjust="spacingAndGlyphs"
text-anchor="middle" opacity="0">a4</text>
<g class="stroked-text"><desc>a4</desc>
<path d="M6.1454 15.7219
L6.1454 15.0567
" />
<path d="M6.1454 15.0567
L6.0849 14.9357
" />
<path d="M6.0849 14.9357
L5.9640 14.8753
" />
<path d="M5.9640 14.8753
L5.7221 14.8753
" />
<path d="M5.7221 14.8753
L5.6011 14.9357
" />
<path d="M6.1454 15.6615
L6.0245 15.7219
" />
<path d="M6.0245 15.7219
L5.7221 15.7219
" />
<path d="M5.7221 15.7219
L5.6011 15.6615
" />
<path d="M5.6011 15.6615
L5.5407 15.5405
" />
<path d="M5.5407 15.5405
L5.5407 15.4195
" />
<path d="M5.5407 15.4195
L5.6011 15.2986
" />
<path d="M5.6011 15.2986
L5.7221 15.2381
" />
<path d="M5.7221 15.2381
L6.0245 15.2381
" />
<path d="M6.0245 15.2381
L6.1454 15.1776
" />
<path d="M7.2944 14.8753
L7.2944 15.7219
" />
<path d="M6.9920 14.3915
L6.6897 15.2986
" />
<path d="M6.6897 15.2986
L7.4758 15.2986
" />
</g></g>
<g style="fill:#840000; fill-opacity:0.0; 
stroke:#840000; stroke-width:0.1524; stroke-opacity:1; 
stroke-linecap:round; stroke-linejoin:round;">
<path d="M8.5100 18.6714
L4.4460 18.6714
" />
</g>
<g style="fill:#A90000; fill-opacity:0.0; 
stroke:#A90000; stroke-width:0.1524; stroke-opacity:1; 
stroke-linecap:round; stroke-linejoin:round;">
<text x="6.4780" y="18.4174"
textLength="2.4855" font-size="1.6933" lengthAdjust="spacingAndGlyphs"
text-anchor="middle" opacity="0">a5</text>
<g class="stroked-text"><desc>a5</desc>
<path d="M6.1454 18.2619
L6.1454 17.5967
" />
<path d="M6.1454 17.5967
L6.0849 17.4757
" />
<path d="M6.0849 17.4757
L5.9640 17.4153
" />
<path d="M5.9640 17.4153
L5.7221 17.4153
" />
<path d="M5.7221 17.4153
L5.6011 17.4757
" />
<path d="M6.1454 18.2015
L6.0245 18.2619
" />
<path d="M6.0245 18.2619
L5.7221 18.2619
" />
<path d="M5.7221 18.2619
L5.6011 18.2015
" />
<path d="M5.6011 18.2015
L5.5407 18.0805
" />
<path d="M5.5407 18.0805
L5.5407 17.9595
" />
<path d="M5.5407 17.9595
L5.6011 17.8386
" />
<path d="M5.6011 17.8386
L5.7221 17.7781
" />
<path d="M5.7221 17.7781
L6.0245 17.7781
" />
<path d="M6.0245 17.7781
L6.1454 17.7176
" />
<path d="M7.3549 16.9919
L6.7501 16.9919
" />
<path d="M6.7501 16.9919
L6.6897 17.5967
" />
<path d="M6.6897 17.5967
L6.7501 17.5362
" />
<path d="M6.7501 17.5362
L6.8711 17.4757
" />
<path d="M6.8711 17.4757
L7.1735 17.4757
" />
<path d="M7.1735 17.4757
L7.2944 17.5362
" />
<path d="M7.2944 17.5362
L7.3549 17.5967
" />
<path d="M7.3549 17.5967
L7.4154 17.7176
" />
<path d="M7.4154 17.7176
L7.4154 18.0200
" />
<path d="M7.4154 18.0200
L7.3549 18.1410
" />
<path d="M7.3549 18.1410
L7.2944 18.2015
" />
<path d="M7.2944 18.2015
L7.1735 18.2619
" />
<path d="M7.1735 18.2619
L6.8711 18.2619
" />
<path d="M6.8711 18.2619
L6.7501 18.2015
" />
<path d="M6.7501 18.2015
L6.6897 18.1410
" />
</g></g>
<g style="fill:#840000; fill-opacity:0.0; 
stroke:#840000; stroke-width:0.1524; stroke-opacity:1; 
stroke-linecap:round; stroke-linejoin:round;">
<path d="M8.5100 21.2114
L4.4460 21.2114
" />
</g>
<g style="fill:#A90000; fill-opacity:0.0; 
stroke:#A90000; stroke-width:0.1524; stroke-opacity:1; 
stroke-linecap:round; stroke-linejoin:round;">
<text x="6.4780" y="20.9574"
textLength="2.4855" font-size="1.6933" lengthAdjust="spacingAndGlyphs"
text-anchor="middle" opacity="0">a6</text>
<g class="stroked-text"><desc>a6</desc>
<path d="M6.1454 20.8019
L6.1454 20.1367
" />
<path d="M6.1454 20.1367
L6.0849 20.0157
" />
<path d="M6.0849 20.0157
L5.9640 19.9553
" />
<path d="M5.9640 19.9553
L5.7221 19.9553
" />
<path d="M5.7221 19.9553
L5.6011 20.0157
" />
<path d="M6.1454 20.7415
L6.0245 20.8019
" />
<path d="M6.0245 20.8019
L5.7221 20.8019
" />
<path d="M5.7221 20.8019
L5.6011 20.7415
" />
<path d="M5.6011 20.7415
L5.5407 20.6205
" />
<path d="M5.5407 20.6205
L5.5407 20.4995
" />
<path d="M5.5407 20.4995
L5.6011 20.3786
" />
<path d="M5.6011 20.3786
L5.7221 20.3181
" />
<path d="M5.7221 20.3181
L6.0245 20.3181
" />
<path d="M6.0245 20.3181
L6.1454 20.2576
" />
<path d="M7.2944 19.5319
L7.0525 19.5319
" />
<path d="M7.0525 19.5319
L6.9316 19.5924
" />
<path d="M6.9316 19.5924
L6.8711 19.6529
" />
<path d="M6.8711 19.6529
L6.7501 19.8343
" />
<path d="M6.7501 19.8343
L6.6897 20.0762
" />
<path d="M6.6897 20.0762
L6.6897 20.5600
" />
<path d="M6.6897 20.5600
L6.7501 20.6810
" />
<path d="M6.7501 20.6810
L6.8106 20.7415
" />
<path d="M6.8106 20.7415
L6.9316 20.8019
" />
<path d="M6.9316 20.8019
L7.1735 20.8019
" />
<path d="M7.1735 20.8019
L7.2944 20.7415
" />
<path d="M7.2944 20.7415
L7.3549 20.6810
" />
<path d="M7.3549 20.6810
L7.4154 20.5600
" />
<path d="M7.4154 20.5600
L7.4154 20.2576
" />
<path d="M7.4154 20.2576
L7.3549 20.1367
" />
<path d="M7.3549 20.1367
L7.2944 20.0762
" />
<path d="M7.2944 20.0762
L7.1735 20.0157
" />
<path d="M7.1735 20.0157
L6.9316 20.0157
" />
<path d="M6.9316 20.0157
L6.8106 20.0762
" />
<path d="M6.8106 20.0762
L6.7501 20.1367
" />
<path d="M6.7501 20.1367
L6.6897 20.2576
" />
</g></g>
<g style="fill:#840000; fill-opacity:0.0; 
stroke:#840000; stroke-width:0.1524; stroke-opacity:1; 
stroke-linecap:round; stroke-linejoin:round;">
<path d="M8.5100 23.7514
L4.4460 23.7514
" />
</g>
<g style="fill:#A90000; fill-opacity:0.0; 
stroke:#A90000; stroke-width:0.1524; stroke-opacity:1; 
stroke-linecap:round; stroke-linejoin:round;">
<text x="6.4780" y="23.4974"
textLength="2.4855" font-size="1.6933" lengthAdjust="spacingAndGlyphs"
text-anchor="middle" opacity="0">a7</text>
<g class="stroked-text"><desc>a7</desc>
<path d="M6.1454 23.3419
L6.1454 22.6767
" />
<path d="M6.1454 22.6767
L6.0849 22.5557
" />
<path d="M6.0849 22.5557
L5.9640 22.4953
" />
<path d="M5.9640 22.4953
L5.7221 22.4953
" />
<path d="M5.7221 22.4953
L5.6011 22.5557
" />
<path d="M6.1454 23.2815
L6.0245 23.3419
" />
<path d="M6.0245 23.3419
L5.7221 23.3419
" />
<path d="M5.7221 23.3419
L5.6011 23.2815
" />
<path d="M5.6011 23.2815
L5.5407 23.1605
" />
<path d="M5.5407 23.1605
L5.5407 23.0395
" />
<path d="M5.5407 23.0395
L5.6011 22.9186
" />
<path d="M5.6011 22.9186
L5.7221 22.8581
" />
<path d="M5.7221 22.8581
L6.0245 22.8581
" />
<path d="M6.0245 22.8581
L6.1454 22.7976
" />
<path d="M6.6292 22.0719
L7.4758 22.0719
" />
<path d="M7.4758 22.0719
L6.9316 23.3419
" />
</g></g>
<g style="fill:#840000; fill-opacity:0.0; 
stroke:#840000; stroke-width:0.1524; stroke-opacity:1; 
stroke-linecap:round; stroke-linejoin:round;">
<path d="M8.5100 26.2914
L4.4460 26.2914
" />
</g>
<g style="fill:#A90000; fill-opacity:0.0; 
stroke:#A90000; stroke-width:0.1524; stroke-opacity:1; 
stroke-linecap:round; stroke-linejoin:round;">
<text x="6.4780" y="26.0374"
textLength="2.4855" font-size="1.6933" lengthAdjust="spacingAndGlyphs"
text-anchor="middle" opacity="0">a8</text>
<g class="stroked-text"><desc>a8</desc>
<path d="M6.1454 25.8819
L6.1454 25.2167
" />
<path d="M6.1454 25.2167
L6.0849 25.0957
" />
<path d="M6.0849 25.0957
L5.9640 25.0353
" />
<path d="M5.9640 25.0353
L5.7221 25.0353
" />
<path d="M5.7221 25.0353
L5.6011 25.0957
" />
<path d="M6.1454 25.8215
L6.0245 25.8819
" />
<path d="M6.0245 25.8819
L5.7221 25.8819
" />
<path d="M5.7221 25.8819
L5.6011 25.8215
" />
<path d="M5.6011 25.8215
L5.5407 25.7005
" />
<path d="M5.5407 25.7005
L5.5407 25.5795
" />
<path d="M5.5407 25.5795
L5.6011 25.4586
" />
<path d="M5.6011 25.4586
L5.7221 25.3981
" />
<path d="M5.7221 25.3981
L6.0245 25.3981
" />
<path d="M6.0245 25.3981
L6.1454 25.3376
" />
<path d="M6.9316 25.1562
L6.8106 25.0957
" />
<path d="M6.8106 25.0957
L6.7501 25.0353
" />
<path d="M6.7501 25.0353
L6.6897 24.9143
" />
<path d="M6.6897 24.9143
L6.6897 24.8538
" />
<path d="M6.6897 24.8538
L6.7501 24.7329
" />
<path d="M6.7501 24.7329
L6.8106 24.6724
" />
<path d="M6.8106 24.6724
L6.9316 24.6119
" />
<path d="M6.9316 24.6119
L7.1735 24.6119
" />
<path d="M7.1735 24.6119
L7.2944 24.6724
" />
<path d="M7.2944 24.6724
L7.3549 24.7329
" />
<path d="M7.3549 24.7329
L7.4154 24.8538
" />
<path d="M7.4154 24.8538
L7.4154 24.9143
" />
<path d="M7.4154 24.9143
L7.3549 25.0353
" />
<path d="M7.3549 25.0353
L7.2944 25.0957
" />
<path d="M7.2944 25.0957
L7.1735 25.1562
" />
<path d="M7.1735 25.1562
L6.9316 25.1562
" />
<path d="M6.9316 25.1562
L6.8106 25.2167
" />
<path d="M6.8106 25.2167
L6.7501 25.2772
" />
<path d="M6.7501 25.2772
L6.6897 25.3981
" />
<path d="M6.6897 25.3981
L6.6897 25.6400
" />
<path d="M6.6897 25.6400
L6.7501 25.7610
" />
<path d="M6.7501 25.7610
L6.8106 25.8215
" />
<path d="M6.8106 25.8215
L6.9316 25.8819
" />
<path d="M6.9316 25.8819
L7.1735 25.8819
" />
<path d="M7.1735 25.8819
L7.2944 25.8215
" />
<path d="M7.2944 25.8215
L7.3549 25.7610
" />
<path d="M7.3549 25.7610
L7.4154 25.6400
" />
<path d="M7.4154 25.6400
L7.4154 25.3981
" />
<path d="M7.4154 25.3981
L7.3549 25.2772
" />
<path d="M7.3549 25.2772
L7.2944 25.2167
" />
<path d="M7.2944 25.2167
L7.1735 25.1562
" />
</g></g>
<g style="fill:#840000; fill-opacity:0.0; 
stroke:#840000; stroke-width:0.1524; stroke-opacity:1; 
stroke-linecap:round; stroke-linejoin:round;">
<path d="M8.5100 28.8314
L4.4460 28.8314
" />
</g>
<g style="fill:#A90000; fill-opacity:0.0; 
stroke:#A90000; stroke-width:0.1524; stroke-opacity:1; 
stroke-linecap:round; stroke-linejoin:round;">
<text x="6.4780" y="28.5774"
textLength="2.4855" font-size="1.6933" lengthAdjust="spacingAndGlyphs"
text-anchor="middle" opacity="0">a9</text>
<g class="stroked-text"><desc>a9</desc>
<path d="M6.1454 28.4219
L6.1454 27.7567
" />
<path d="M6.1454 27.7567
L6.0849 27.6357
" />
<path d="M6.0849 27.6357
L5.9640 27.5753
" />
<path d="M5.9640 27.5753
L5.7221 27.5753
" />
<path d="M5.7221 27.5753
L5.6011 27.6357
" />
<path d="M6.1454 28.3615
L6.0245 28.4219
" />
<path d="M6.0245 28.4219
L5.7221 28.4219
" />
<path d="M5.7221 28.4219
L5.6011 28.3615
" />
<path d="M5.6011 28.3615
L5.5407 28.2405
" />
<path d="M5.5407 28.2405
L5.5407 28.1195
" />
<path d="M5.5407 28.1195
L5.6011 27.9986
" />
<path d="M5.6011 27.9986
L5.7221 27.9381
" />
<path d="M5.7221 27.9381
L6.0245 27.9381
" />
<path d="M6.0245 27.9381
L6.1454 27.8776
" />
<path d="M6.8106 28.4219
L7.0525 28.4219
" />
<path d="M7.0525 28.4219
L7.1735 28.3615
" />
<path d="M7.1735 28.3615
L7.2339 28.3010
" />
<path d="M7.2339 28.3010
L7.3549 28.1195
" />
<path d="M7.3549 28.1195
L7.4154 27.8776
" />
<path d="M7.4154 27.8776
L7.4154 27.3938
" />
<path d="M7.4154 27.3938
L7.3549 27.2729
" />
<path d="M7.3549 27.2729
L7.2944 27.2124
" />
<path d="M7.2944 27.2124
L7.1735 27.1519
" />
<path d="M7.1735 27.1519
L6.9316 27.1519
" />
<path d="M6.9316 27.1519
L6.8106 27.2124
" />
<path d="M6.8106 27.2124
L6.7501 27.2729
" />
<path d="M6.7501 27.2729
L6.6897 27.3938
" />
<path d="M6.6897 27.3938
L6.6897 27.6962
" />
<path d="M6.6897 27.6962
L6.7501 27.8172
" />
<path d="M6.7501 27.8172
L6.8106 27.8776
" />
<path d="M6.8106 27.8776
L6.9316 27.9381
" />
<path d="M6.9316 27.9381
L7.1735 27.9381
" />
<path d="M7.1735 27.9381
L7.2944 27.8776
" />
<path d="M7.2944 27.8776
L7.3549 27.8172
" />
<path d="M7.3549 27.8172
L7.4154 27.6962
" />
</g></g>
<g style="fill:#840000; fill-opacity:0.0; 
stroke:#840000; stroke-width:0.1524; stroke-opacity:1; 
stroke-linecap:round; stroke-linejoin:round;">
<path d="M13.0820 8.5114
L17.1460 8.5114
" />
</g>
<g style="fill:#A90000; fill-opacity:0.0; 
stroke:#A90000; stroke-width:0.1524; stroke-opacity:1; 
stroke-linecap:round; stroke-linejoin:round;">
<text x="15.1140" y="8.2574"
textLength="2.4855" font-size="1.6933" lengthAdjust="spacingAndGlyphs"
text-anchor="middle" opacity="0">b1</text>
<g class="stroked-text"><desc>b1</desc>
<path d="M14.2371 8.1019
L14.2371 6.8319
" />
<path d="M14.2371 7.3157
L14.3581 7.2553
" />
<path d="M14.3581 7.2553
L14.6000 7.2553
" />
<path d="M14.6000 7.2553
L14.7209 7.3157
" />
<path d="M14.7209 7.3157
L14.7814 7.3762
" />
<path d="M14.7814 7.3762
L14.8419 7.4972
" />
<path d="M14.8419 7.4972
L14.8419 7.8600
" />
<path d="M14.8419 7.8600
L14.7814 7.9810
" />
<path d="M14.7814 7.9810
L14.7209 8.0415
" />
<path d="M14.7209 8.0415
L14.6000 8.1019
" />
<path d="M14.6000 8.1019
L14.3581 8.1019
" />
<path d="M14.3581 8.1019
L14.2371 8.0415
" />
<path d="M16.0514 8.1019
L15.3257 8.1019
" />
<path d="M15.6885 8.1019
L15.6885 6.8319
" />
<path d="M15.6885 6.8319
L15.5676 7.0134
" />
<path d="M15.5676 7.0134
L15.4466 7.1343
" />
<path d="M15.4466 7.1343
L15.3257 7.1948
" />
</g></g>
<g style="fill:#840000; fill-opacity:0.0; 
stroke:#840000; stroke-width:0.1524; stroke-opacity:1; 
stroke-linecap:round; stroke-linejoin:round;">
<path d="M13.0820 31.3714
L17.1460 31.3714
" />
</g>
<g style="fill:#A90000; fill-opacity:0.0; 
stroke:#A90000; stroke-width:0.1524; stroke-opacity:1; 
stroke-linecap:round; stroke-linejoin:round;">
<text x="15.1140" y="31.1174"
textLength="3.6950" font-size="1.6933" lengthAdjust="spacingAndGlyphs"
text-anchor="middle" opacity="0">b10</text>
<g class="stroked-text"><desc>b10</desc>
<path d="M13.6323 30.9619
L13.6323 29.6919
" />
<path d="M13.6323 30.1757
L13.7533 30.1153
" />
<path d="M13.7533 30.1153
L13.9952 30.1153
" />
<path d="M13.9952 30.1153
L14.1161 30.1757
" />
<path d="M14.1161 30.1757
L14.1766 30.2362
" />
<path d="M14.1766 30.2362
L14.2371 30.3572
" />
<path d="M14.2371 30.3572
L14.2371 30.7200
" />
<path d="M14.2371 30.7200
L14.1766 30.8410
" />
<path d="M14.1766 30.8410
L14.1161 30.9015
" />
<path d="M14.1161 30.9015
L13.9952 30.9619
" />
<path d="M13.9952 30.9619
L13.7533 30.9619
" />
<path d="M13.7533 30.9619
L13.6323 30.9015
" />
<path d="M15.4466 30.9619
L14.7209 30.9619
" />
<path d="M15.0837 30.9619
L15.0837 29.6919
" />
<path d="M15.0837 29.6919
L14.9628 29.8734
" />
<path d="M14.9628 29.8734
L14.8418 29.9943
" />
<path d="M14.8418 29.9943
L14.7209 30.0548
" />
<path d="M16.2327 29.6919
L16.3537 29.6919
" />
<path d="M16.3537 29.6919
L16.4746 29.7524
" />
<path d="M16.4746 29.7524
L16.5351 29.8129
" />
<path d="M16.5351 29.8129
L16.5956 29.9338
" />
<path d="M16.5956 29.9338
L16.6561 30.1757
" />
<path d="M16.6561 30.1757
L16.6561 30.4781
" />
<path d="M16.6561 30.4781
L16.5956 30.7200
" />
<path d="M16.5956 30.7200
L16.5351 30.8410
" />
<path d="M16.5351 30.8410
L16.4746 30.9015
" />
<path d="M16.4746 30.9015
L16.3537 30.9619
" />
<path d="M16.3537 30.9619
L16.2327 30.9619
" />
<path d="M16.2327 30.9619
L16.1118 30.9015
" />
<path d="M16.1118 30.9015
L16.0513 30.8410
" />
<path d="M16.0513 30.8410
L15.9908 30.7200
" />
<path d="M15.9908 30.7200
L15.9304 30.4781
" />
<path d="M15.9304 30.4781
L15.9304 30.1757
" />
<path d="M15.9304 30.1757
L15.9908 29.9338
" />
<path d="M15.9908 29.9338
L16.0513 29.8129
" />
<path d="M16.0513 29.8129
L16.1118 29.7524
" />
<path d="M16.1118 29.7524
L16.2327 29.6919
" />
</g></g>
<g style="fill:#840000; fill-opacity:0.0; 
stroke:#840000; stroke-width:0.1524; stroke-opacity:1; 
stroke-linecap:round; stroke-linejoin:round;">
<path d="M13.0820 33.9114
L17.1460 33.9114
" />
</g>
<g style="fill:#A90000; fill-opacity:0.0; 
stroke:#A90000; stroke-width:0.1524; stroke-opacity:1; 
stroke-linecap:round; stroke-linejoin:round;">
<text x="15.1140" y="33.6574"
textLength="3.6950" font-size="1.6933" lengthAdjust="spacingAndGlyphs"
text-anchor="middle" opacity="0">b11</text>
<g class="stroked-text"><desc>b11</desc>
<path d="M13.6323 33.5019
L13.6323 32.2319
" />
<path d="M13.6323 32.7157
L13.7533 32.6553
" />
<path d="M13.7533 32.6553
L13.9952 32.6553
" />
<path d="M13.9952 32.6553
L14.1161 32.7157
" />
<path d="M14.1161 32.7157
L14.1766 32.7762
" />
<path d="M14.1766 32.7762
L14.2371 32.8972
" />
<path d="M14.2371 32.8972
L14.2371 33.2600
" />
<path d="M14.2371 33.2600
L14.1766 33.3810
" />
<path d="M14.1766 33.3810
L14.1161 33.4415
" />
<path d="M14.1161 33.4415
L13.9952 33.5019
" />
<path d="M13.9952 33.5019
L13.7533 33.5019
" />
<path d="M13.7533 33.5019
L13.6323 33.4415
" />
<path d="M15.4466 33.5019
L14.7209 33.5019
" />
<path d="M15.0837 33.5019
L15.0837 32.2319
" />
<path d="M15.0837 32.2319
L14.9628 32.4134
" />
<path d="M14.9628 32.4134
L14.8418 32.5343
" />
<path d="M14.8418 32.5343
L14.7209 32.5948
" />
<path d="M16.6561 33.5019
L15.9304 33.5019
" />
<path d="M16.2932 33.5019
L16.2932 32.2319
" />
<path d="M16.2932 32.2319
L16.1723 32.4134
" />
<path d="M16.1723 32.4134
L16.0513 32.5343
" />
<path d="M16.0513 32.5343
L15.9304 32.5948
" />
</g></g>
<g style="fill:#840000; fill-opacity:0.0; 
stroke:#840000; stroke-width:0.1524; stroke-opacity:1; 
stroke-linecap:round; stroke-linejoin:round;">
<path d="M13.0820 36.4514
L17.1460 36.4514
" />
</g>
<g style="fill:#A90000; fill-opacity:0.0; 
stroke:#A90000; stroke-width:0.1524; stroke-opacity:1; 
stroke-linecap:round; stroke-linejoin:round;">
<text x="15.1140" y="36.1974"
textLength="3.6950" font-size="1.6933" lengthAdjust="spacingAndGlyphs"
text-anchor="middle" opacity="0">b12</text>
<g class="stroked-text"><desc>b12</desc>
<path d="M13.6323 36.0419
L13.6323 34.7719
" />
<path d="M13.6323 35.2557
L13.7533 35.1953
" />
<path d="M13.7533 35.1953
L13.9952 35.1953
" />
<path d="M13.9952 35.1953
L14.1161 35.2557
" />
<path d="M14.1161 35.2557
L14.1766 35.3162
" />
<path d="M14.1766 35.3162
L14.2371 35.4372
" />
<path d="M14.2371 35.4372
L14.2371 35.8000
" />
<path d="M14.2371 35.8000
L14.1766 35.9210
" />
<path d="M14.1766 35.9210
L14.1161 35.9815
" />
<path d="M14.1161 35.9815
L13.9952 36.0419
" />
<path d="M13.9952 36.0419
L13.7533 36.0419
" />
<path d="M13.7533 36.0419
L13.6323 35.9815
" />
<path d="M15.4466 36.0419
L14.7209 36.0419
" />
<path d="M15.0837 36.0419
L15.0837 34.7719
" />
<path d="M15.0837 34.7719
L14.9628 34.9534
" />
<path d="M14.9628 34.9534
L14.8418 35.0743
" />
<path d="M14.8418 35.0743
L14.7209 35.1348
" />
<path d="M15.9304 34.8929
L15.9908 34.8324
" />
<path d="M15.9908 34.8324
L16.1118 34.7719
" />
<path d="M16.1118 34.7719
L16.4142 34.7719
" />
<path d="M16.4142 34.7719
L16.5351 34.8324
" />
<path d="M16.5351 34.8324
L16.5956 34.8929
" />
<path d="M16.5956 34.8929
L16.6561 35.0138
" />
<path d="M16.6561 35.0138
L16.6561 35.1348
" />
<path d="M16.6561 35.1348
L16.5956 35.3162
" />
<path d="M16.5956 35.3162
L15.8699 36.0419
" />
<path d="M15.8699 36.0419
L16.6561 36.0419
" />
</g></g>
<g style="fill:#840000; fill-opacity:0.0; 
stroke:#840000; stroke-width:0.1524; stroke-opacity:1; 
stroke-linecap:round; stroke-linejoin:round;">
<path d="M13.0820 38.9914
L17.1460 38.9914
" />
</g>
<g style="fill:#A90000; fill-opacity:0.0; 
stroke:#A90000; stroke-width:0.1524; stroke-opacity:1; 
stroke-linecap:round; stroke-linejoin:round;">
<text x="15.1140" y="38.7374"
textLength="3.6950" font-size="1.6933" lengthAdjust="spacingAndGlyphs"
text-anchor="middle" opacity="0">b13</text>
<g class="stroked-text"><desc>b13</desc>
<path d="M13.6323 38.5819
L13.6323 37.3119
" />
<path d="M13.6323 37.7957
L13.7533 37.7353
" />
<path d="M13.7533 37.7353
L13.9952 37.7353
" />
<path d="M13.9952 37.7353
L14.1161 37.7957
" />
<path d="M14.1161 37.7957
L14.1766 37.8562
" />
<path d="M14.1766 37.8562
L14.2371 37.9772
" />
<path d="M14.2371 37.9772
L14.2371 38.3400
" />
<path d="M14.2371 38.3400
L14.1766 38.4610
" />
<path d="M14.1766 38.4610
L14.1161 38.5215
" />
<path d="M14.1161 38.5215
L13.9952 38.5819
" />
<path d="M13.9952 38.5819
L13.7533 38.5819
" />
<path d="M13.7533 38.5819
L13.6323 38.5215
" />
<path d="M15.4466 38.5819
L14.7209 38.5819
" />
<path d="M15.0837 38.5819
L15.0837 37.3119
" />
<path d="M15.0837 37.3119
L14.9628 37.4934
" />
<path d="M14.9628 37.4934
L14.8418 37.6143
" />
<path d="M14.8418 37.6143
L14.7209 37.6748
" />
<path d="M15.8699 37.3119
L16.6561 37.3119
" />
<path d="M16.6561 37.3119
L16.2327 37.7957
" />
<path d="M16.2327 37.7957
L16.4142 37.7957
" />
<path d="M16.4142 37.7957
L16.5351 37.8562
" />
<path d="M16.5351 37.8562
L16.5956 37.9167
" />
<path d="M16.5956 37.9167
L16.6561 38.0376
" />
<path d="M16.6561 38.0376
L16.6561 38.3400
" />
<path d="M16.6561 38.3400
L16.5956 38.4610
" />
<path d="M16.5956 38.4610
L16.5351 38.5215
" />
<path d="M16.5351 38.5215
L16.4142 38.5819
" />
<path d="M16.4142 38.5819
L16.0513 38.5819
" />
<path d="M16.0513 38.5819
L15.9304 38.5215
" />
<path d="M15.9304 38.5215
L15.8699 38.4610
" />
</g></g>
<g style="fill:#840000; fill-opacity:0.0; 
stroke:#840000; stroke-width:0.1524; stroke-opacity:1; 
stroke-linecap:round; stroke-linejoin:round;">
<path d="M13.0820 41.5314
L17.1460 41.5314
" />
</g>
<g style="fill:#A90000; fill-opacity:0.0; 
stroke:#A90000; stroke-width:0.1524; stroke-opacity:1; 
stroke-linecap:round; stroke-linejoin:round;">
<text x="15.1140" y="41.2774"
textLength="3.6950" font-size="1.6933" lengthAdjust="spacingAndGlyphs"
text-anchor="middle" opacity="0">b14</text>
<g class="stroked-text"><desc>b14</desc>
<path d="M13.6323 41.1219
L13.6323 39.8519
" />
<path d="M13.6323 40.3357
L13.7533 40.2753
" />
<path d="M13.7533 40.2753
L13.9952 40.2753
" />
<path d="M13.9952 40.2753
L14.1161 40.3357
" />
<path d="M14.1161 40.3357
L14.1766 40.3962
" />
<path d="M14.1766 40.3962
L14.2371 40.5172
" />
<path d="M14.2371 40.5172
L14.2371 40.8800
" />
<path d="M14.2371 40.8800
L14.1766 41.0010
" />
<path d="M14.1766 41.0010
L14.1161 41.0615
" />
<path d="M14.1161 41.0615
L13.9952 41.1219
" />
<path d="M13.9952 41.1219
L13.7533 41.1219
" />
<path d="M13.7533 41.1219
L13.6323 41.0615
" />
<path d="M15.4466 41.1219
L14.7209 41.1219
" />
<path d="M15.0837 41.1219
L15.0837 39.8519
" />
<path d="M15.0837 39.8519
L14.9628 40.0334
" />
<path d="M14.9628 40.0334
L14.8418 40.1543
" />
<path d="M14.8418 40.1543
L14.7209 40.2148
" />
<path d="M16.5351 40.2753
L16.5351 41.1219
" />
<path d="M16.2327 39.7915
L15.9304 40.6986
" />
<path d="M15.9304 40.6986
L16.7165 40.6986
" />
</g></g>
<g style="fill:#840000; fill-opacity:0.0; 
stroke:#840000; stroke-width:0.1524; stroke-opacity:1; 
stroke-linecap:round; stroke-linejoin:round;">
<path d="M13.0820 44.0714
L17.1460 44.0714
" />
</g>
<g style="fill:#A90000; fill-opacity:0.0; 
stroke:#A90000; stroke-width:0.1524; stroke-opacity:1; 
stroke-linecap:round; stroke-linejoin:round;">
<text x="15.1140" y="43.8174"
textLength="3.6950" font-size="1.6933" lengthAdjust="spacingAndGlyphs"
text-anchor="middle" opacity="0">b15</text>
<g class="stroked-text"><desc>b15</desc>
<path d="M13.6323 43.6619
L13.6323 42.3919
" />
<path d="M13.6323 42.8757
L13.7533 42.8153
" />
<path d="M13.7533 42.8153
L13.9952 42.8153
" />
<path d="M13.9952 42.8153
L14.1161 42.8757
" />
<path d="M14.1161 42.8757
L14.1766 42.9362
" />
<path d="M14.1766 42.9362
L14.2371 43.0572
" />
<path d="M14.2371 43.0572
L14.2371 43.4200
" />
<path d="M14.2371 43.4200
L14.1766 43.5410
" />
<path d="M14.1766 43.5410
L14.1161 43.6015
" />
<path d="M14.1161 43.6015
L13.9952 43.6619
" />
<path d="M13.9952 43.6619
L13.7533 43.6619
" />
<path d="M13.7533 43.6619
L13.6323 43.6015
" />
<path d="M15.4466 43.6619
L14.7209 43.6619
" />
<path d="M15.0837 43.6619
L15.0837 42.3919
" />
<path d="M15.0837 42.3919
L14.9628 42.5734
" />
<path d="M14.9628 42.5734
L14.8418 42.6943
" />
<path d="M14.8418 42.6943
L14.7209 42.7548
" />
<path d="M16.5956 42.3919
L15.9908 42.3919
" />
<path d="M15.9908 42.3919
L15.9304 42.9967
" />
<path d="M15.9304 42.9967
L15.9908 42.9362
" />
<path d="M15.9908 42.9362
L16.1118 42.8757
" />
<path d="M16.1118 42.8757
L16.4142 42.8757
" />
<path d="M16.4142 42.8757
L16.5351 42.9362
" />
<path d="M16.5351 42.9362
L16.5956 42.9967
" />
<path d="M16.5956 42.9967
L16.6561 43.1176
" />
<path d="M16.6561 43.1176
L16.6561 43.4200
" />
<path d="M16.6561 43.4200
L16.5956 43.5410
" />
<path d="M16.5956 43.5410
L16.5351 43.6015
" />
<path d="M16.5351 43.6015
L16.4142 43.6619
" />
<path d="M16.4142 43.6619
L16.1118 43.6619
" />
<path d="M16.1118 43.6619
L15.9908 43.6015
" />
<path d="M15.9908 43.6015
L15.9304 43.5410
" />
</g></g>
<g style="fill:#840000; fill-opacity:0.0; 
stroke:#840000; stroke-width:0.1524; stroke-opacity:1; 
stroke-linecap:round; stroke-linejoin:round;">
<path d="M13.0820 46.6114
L17.1460 46.6114
" />
</g>
<g style="fill:#A90000; fill-opacity:0.0; 
stroke:#A90000; stroke-width:0.1524; stroke-opacity:1; 
stroke-linecap:round; stroke-linejoin:round;">
<text x="15.1140" y="46.3574"
textLength="3.6950" font-size="1.6933" lengthAdjust="spacingAndGlyphs"
text-anchor="middle" opacity="0">b16</text>
<g class="stroked-text"><desc>b16</desc>
<path d="M13.6323 46.2019
L13.6323 44.9319
" />
<path d="M13.6323 45.4157
L13.7533 45.3553
" />
<path d="M13.7533 45.3553
L13.9952 45.3553
" />
<path d="M13.9952 45.3553
L14.1161 45.4157
" />
<path d="M14.1161 45.4157
L14.1766 45.4762
" />
<path d="M14.1766 45.4762
L14.2371 45.5972
" />
<path d="M14.2371 45.5972
L14.2371 45.9600
" />
<path d="M14.2371 45.9600
L14.1766 46.0810
" />
<path d="M14.1766 46.0810
L14.1161 46.1415
" />
<path d="M14.1161 46.1415
L13.9952 46.2019
" />
<path d="M13.9952 46.2019
L13.7533 46.2019
" />
<path d="M13.7533 46.2019
L13.6323 46.1415
" />
<path d="M15.4466 46.2019
L14.7209 46.2019
" />
<path d="M15.0837 46.2019
L15.0837 44.9319
" />
<path d="M15.0837 44.9319
L14.9628 45.1134
" />
<path d="M14.9628 45.1134
L14.8418 45.2343
" />
<path d="M14.8418 45.2343
L14.7209 45.2948
" />
<path d="M16.5351 44.9319
L16.2932 44.9319
" />
<path d="M16.2932 44.9319
L16.1723 44.9924
" />
<path d="M16.1723 44.9924
L16.1118 45.0529
" />
<path d="M16.1118 45.0529
L15.9908 45.2343
" />
<path d="M15.9908 45.2343
L15.9304 45.4762
" />
<path d="M15.9304 45.4762
L15.9304 45.9600
" />
<path d="M15.9304 45.9600
L15.9908 46.0810
" />
<path d="M15.9908 46.0810
L16.0513 46.1415
" />
<path d="M16.0513 46.1415
L16.1723 46.2019
" />
<path d="M16.1723 46.2019
L16.4142 46.2019
" />
<path d="M16.4142 46.2019
L16.5351 46.1415
" />
<path d="M16.5351 46.1415
L16.5956 46.0810
" />
<path d="M16.5956 46.0810
L16.6561 45.9600
" />
<path d="M16.6561 45.9600
L16.6561 45.6576
" />
<path d="M16.6561 45.6576
L16.5956 45.5367
" />
<path d="M16.5956 45.5367
L16.5351 45.4762
" />
<path d="M16.5351 45.4762
L16.4142 45.4157
" />
<path d="M16.4142 45.4157
L16.1723 45.4157
" />
<path d="M16.1723 45.4157
L16.0513 45.4762
" />
<path d="M16.0513 45.4762
L15.9908 45.5367
" />
<path d="M15.9908 45.5367
L15.9304 45.6576
" />
</g></g>
<g style="fill:#840000; fill-opacity:0.0; 
stroke:#840000; stroke-width:0.1524; stroke-opacity:1; 
stroke-linecap:round; stroke-linejoin:round;">
<path d="M13.0820 49.1514
L17.1460 49.1514
" />
</g>
<g style="fill:#A90000; fill-opacity:0.0; 
stroke:#A90000; stroke-width:0.1524; stroke-opacity:1; 
stroke-linecap:round; stroke-linejoin:round;">
<text x="15.1140" y="48.8974"
textLength="3.6950" font-size="1.6933" lengthAdjust="spacingAndGlyphs"
text-anchor="middle" opacity="0">b17</text>
<g class="stroked-text"><desc>b17</desc>
<path d="M13.6323 48.7419
L13.6323 47.4719
" />
<path d="M13.6323 47.9557
L13.7533 47.8953
" />
<path d="M13.7533 47.8953
L13.9952 47.8953
" />
<path d="M13.9952 47.8953
L14.1161 47.9557
" />
<path d="M14.1161 47.9557
L14.1766 48.0162
" />
<path d="M14.1766 48.0162
L14.2371 48.1372
" />
<path d="M14.2371 48.1372
L14.2371 48.5000
" />
<path d="M14.2371 48.5000
L14.1766 48.6210
" />
<path d="M14.1766 48.6210
L14.1161 48.6815
" />
<path d="M14.1161 48.6815
L13.9952 48.7419
" />
<path d="M13.9952 48.7419
L13.7533 48.7419
" />
<path d="M13.7533 48.7419
L13.6323 48.6815
" />
<path d="M15.4466 48.7419
L14.7209 48.7419
" />
<path d="M15.0837 48.7419
L15.0837 47.4719
" />
<path d="M15.0837 47.4719
L14.9628 47.6534
" />
<path d="M14.9628 47.6534
L14.8418 47.7743
" />
<path d="M14.8418 47.7743
L14.7209 47.8348
" />
<path d="M15.8699 47.4719
L16.7165 47.4719
" />
<path d="M16.7165 47.4719
L16.1723 48.7419
" />
</g></g>
<g style="fill:#840000; fill-opacity:0.0; 
stroke:#840000; stroke-width:0.1524; stroke-opacity:1; 
stroke-linecap:round; stroke-linejoin:round;">
<path d="M13.0820 51.6914
L17.1460 51.6914
" />
</g>
<g style="fill:#A90000; fill-opacity:0.0; 
stroke:#A90000; stroke-width:0.1524; stroke-opacity:1; 
stroke-linecap:round; stroke-linejoin:round;">
<text x="15.1140" y="51.4374"
textLength="3.6950" font-size="1.6933" lengthAdjust="spacingAndGlyphs"
text-anchor="middle" opacity="0">b18</text>
<g class="stroked-text"><desc>b18</desc>
<path d="M13.6323 51.2819
L13.6323 50.0119
" />
<path d="M13.6323 50.4957
L13.7533 50.4353
" />
<path d="M13.7533 50.4353
L13.9952 50.4353
" />
<path d="M13.9952 50.4353
L14.1161 50.4957
" />
<path d="M14.1161 50.4957
L14.1766 50.5562
" />
<path d="M14.1766 50.5562
L14.2371 50.6772
" />
<path d="M14.2371 50.6772
L14.2371 51.0400
" />
<path d="M14.2371 51.0400
L14.1766 51.1610
" />
<path d="M14.1766 51.1610
L14.1161 51.2215
" />
<path d="M14.1161 51.2215
L13.9952 51.2819
" />
<path d="M13.9952 51.2819
L13.7533 51.2819
" />
<path d="M13.7533 51.2819
L13.6323 51.2215
" />
<path d="M15.4466 51.2819
L14.7209 51.2819
" />
<path d="M15.0837 51.2819
L15.0837 50.0119
" />
<path d="M15.0837 50.0119
L14.9628 50.1934
" />
<path d="M14.9628 50.1934
L14.8418 50.3143
" />
<path d="M14.8418 50.3143
L14.7209 50.3748
" />
<path d="M16.1723 50.5562
L16.0513 50.4957
" />
<path d="M16.0513 50.4957
L15.9908 50.4353
" />
<path d="M15.9908 50.4353
L15.9304 50.3143
" />
<path d="M15.9304 50.3143
L15.9304 50.2538
" />
<path d="M15.9304 50.2538
L15.9908 50.1329
" />
<path d="M15.9908 50.1329
L16.0513 50.0724
" />
<path d="M16.0513 50.0724
L16.1723 50.0119
" />
<path d="M16.1723 50.0119
L16.4142 50.0119
" />
<path d="M16.4142 50.0119
L16.5351 50.0724
" />
<path d="M16.5351 50.0724
L16.5956 50.1329
" />
<path d="M16.5956 50.1329
L16.6561 50.2538
" />
<path d="M16.6561 50.2538
L16.6561 50.3143
" />
<path d="M16.6561 50.3143
L16.5956 50.4353
" />
<path d="M16.5956 50.4353
L16.5351 50.4957
" />
<path d="M16.5351 50.4957
L16.4142 50.5562
" />
<path d="M16.4142 50.5562
L16.1723 50.5562
" />
<path d="M16.1723 50.5562
L16.0513 50.6167
" />
<path d="M16.0513 50.6167
L15.9908 50.6772
" />
<path d="M15.9908 50.6772
L15.9304 50.7981
" />
<path d="M15.9304 50.7981
L15.9304 51.0400
" />
<path d="M15.9304 51.0400
L15.9908 51.1610
" />
<path d="M15.9908 51.1610
L16.0513 51.2215
" />
<path d="M16.0513 51.2215
L16.1723 51.2819
" />
<path d="M16.1723 51.2819
L16.4142 51.2819
" />
<path d="M16.4142 51.2819
L16.5351 51.2215
" />
<path d="M16.5351 51.2215
L16.5956 51.1610
" />
<path d="M16.5956 51.1610
L16.6561 51.0400
" />
<path d="M16.6561 51.0400
L16.6561 50.7981
" />
<path d="M16.6561 50.7981
L16.5956 50.6772
" />
<path d="M16.5956 50.6772
L16.5351 50.6167
" />
<path d="M16.5351 50.6167
L16.4142 50.5562
" />
</g></g>
<g style="fill:#840000; fill-opacity:0.0; 
stroke:#840000; stroke-width:0.1524; stroke-opacity:1; 
stroke-linecap:round; stroke-linejoin:round;">
<path d="M13.0820 54.2314
L17.1460 54.2314
" />
</g>
<g style="fill:#A90000; fill-opacity:0.0; 
stroke:#A90000; stroke-width:0.1524; stroke-opacity:1; 
stroke-linecap:round; stroke-linejoin:round;">
<text x="15.1140" y="53.9774"
textLength="3.6950" font-size="1.6933" lengthAdjust="spacingAndGlyphs"
text-anchor="middle" opacity="0">b19</text>
<g class="stroked-text"><desc>b19</desc>
<path d="M13.6323 53.8219
L13.6323 52.5519
" />
<path d="M13.6323 53.0357
L13.7533 52.9753
" />
<path d="M13.7533 52.9753
L13.9952 52.9753
" />
<path d="M13.9952 52.9753
L14.1161 53.0357
" />
<path d="M14.1161 53.0357
L14.1766 53.0962
" />
<path d="M14.1766 53.0962
L14.2371 53.2172
" />
<path d="M14.2371 53.2172
L14.2371 53.5800
" />
<path d="M14.2371 53.5800
L14.1766 53.7010
" />
<path d="M14.1766 53.7010
L14.1161 53.7615
" />
<path d="M14.1161 53.7615
L13.9952 53.8219
" />
<path d="M13.9952 53.8219
L13.7533 53.8219
" />
<path d="M13.7533 53.8219
L13.6323 53.7615
" />
<path d="M15.4466 53.8219
L14.7209 53.8219
" />
<path d="M15.0837 53.8219
L15.0837 52.5519
" />
<path d="M15.0837 52.5519
L14.9628 52.7334
" />
<path d="M14.9628 52.7334
L14.8418 52.8543
" />
<path d="M14.8418 52.8543
L14.7209 52.9148
" />
<path d="M16.0513 53.8219
L16.2932 53.8219
" />
<path d="M16.2932 53.8219
L16.4142 53.7615
" />
<path d="M16.4142 53.7615
L16.4746 53.7010
" />
<path d="M16.4746 53.7010
L16.5956 53.5195
" />
<path d="M16.5956 53.5195
L16.6561 53.2776
" />
<path d="M16.6561 53.2776
L16.6561 52.7938
" />
<path d="M16.6561 52.7938
L16.5956 52.6729
" />
<path d="M16.5956 52.6729
L16.5351 52.6124
" />
<path d="M16.5351 52.6124
L16.4142 52.5519
" />
<path d="M16.4142 52.5519
L16.1723 52.5519
" />
<path d="M16.1723 52.5519
L16.0513 52.6124
" />
<path d="M16.0513 52.6124
L15.9908 52.6729
" />
<path d="M15.9908 52.6729
L15.9304 52.7938
" />
<path d="M15.9304 52.7938
L15.9304 53.0962
" />
<path d="M15.9304 53.0962
L15.9908 53.2172
" />
<path d="M15.9908 53.2172
L16.0513 53.2776
" />
<path d="M16.0513 53.2776
L16.1723 53.3381
" />
<path d="M16.1723 53.3381
L16.4142 53.3381
" />
<path d="M16.4142 53.3381
L16.5351 53.2776
" />
<path d="M16.5351 53.2776
L16.5956 53.2172
" />
<path d="M16.5956 53.2172
L16.6561 53.0962
" />
</g></g>
<g style="fill:#840000; fill-opacity:0.0; 
stroke:#840000; stroke-width:0.1524; stroke-opacity:1; 
stroke-linecap:round; stroke-linejoin:round;">
<path d="M13.0820 11.0514
L17.1460 11.0514
" />
</g>
<g style="fill:#A90000; fill-opacity:0.0; 
stroke:#A90000; stroke-width:0.1524; stroke-opacity:1; 
stroke-linecap:round; stroke-linejoin:round;">
<text x="15.1140" y="10.7974"
textLength="2.4855" font-size="1.6933" lengthAdjust="spacingAndGlyphs"
text-anchor="middle" opacity="0">b2</text>
<g class="stroked-text"><desc>b2</desc>
<path d="M14.2371 10.6419
L14.2371 9.3719
" />
<path d="M14.2371 9.8557
L14.3581 9.7953
" />
<path d="M14.3581 9.7953
L14.6000 9.7953
" />
<path d="M14.6000 9.7953
L14.7209 9.8557
" />
<path d="M14.7209 9.8557
L14.7814 9.9162
" />
<path d="M14.7814 9.9162
L14.8419 10.0372
" />
<path d="M14.8419 10.0372
L14.8419 10.4000
" />
<path d="M14.8419 10.4000
L14.7814 10.5210
" />
<path d="M14.7814 10.5210
L14.7209 10.5815
" />
<path d="M14.7209 10.5815
L14.6000 10.6419
" />
<path d="M14.6000 10.6419
L14.3581 10.6419
" />
<path d="M14.3581 10.6419
L14.2371 10.5815
" />
<path d="M15.3257 9.4929
L15.3861 9.4324
" />
<path d="M15.3861 9.4324
L15.5071 9.3719
" />
<path d="M15.5071 9.3719
L15.8095 9.3719
" />
<path d="M15.8095 9.3719
L15.9304 9.4324
" />
<path d="M15.9304 9.4324
L15.9909 9.4929
" />
<path d="M15.9909 9.4929
L16.0514 9.6138
" />
<path d="M16.0514 9.6138
L16.0514 9.7348
" />
<path d="M16.0514 9.7348
L15.9909 9.9162
" />
<path d="M15.9909 9.9162
L15.2652 10.6419
" />
<path d="M15.2652 10.6419
L16.0514 10.6419
" />
</g></g>
<g style="fill:#840000; fill-opacity:0.0; 
stroke:#840000; stroke-width:0.1524; stroke-opacity:1; 
stroke-linecap:round; stroke-linejoin:round;">
<path d="M13.0820 13.5914
L17.1460 13.5914
" />
</g>
<g style="fill:#A90000; fill-opacity:0.0; 
stroke:#A90000; stroke-width:0.1524; stroke-opacity:1; 
stroke-linecap:round; stroke-linejoin:round;">
<text x="15.1140" y="13.3374"
textLength="2.4855" font-size="1.6933" lengthAdjust="spacingAndGlyphs"
text-anchor="middle" opacity="0">b3</text>
<g class="stroked-text"><desc>b3</desc>
<path d="M14.2371 13.1819
L14.2371 11.9119
" />
<path d="M14.2371 12.3957
L14.3581 12.3353
" />
<path d="M14.3581 12.3353
L14.6000 12.3353
" />
<path d="M14.6000 12.3353
L14.7209 12.3957
" />
<path d="M14.7209 12.3957
L14.7814 12.4562
" />
<path d="M14.7814 12.4562
L14.8419 12.5772
" />
<path d="M14.8419 12.5772
L14.8419 12.9400
" />
<path d="M14.8419 12.9400
L14.7814 13.0610
" />
<path d="M14.7814 13.0610
L14.7209 13.1215
" />
<path d="M14.7209 13.1215
L14.6000 13.1819
" />
<path d="M14.6000 13.1819
L14.3581 13.1819
" />
<path d="M14.3581 13.1819
L14.2371 13.1215
" />
<path d="M15.2652 11.9119
L16.0514 11.9119
" />
<path d="M16.0514 11.9119
L15.6280 12.3957
" />
<path d="M15.6280 12.3957
L15.8095 12.3957
" />
<path d="M15.8095 12.3957
L15.9304 12.4562
" />
<path d="M15.9304 12.4562
L15.9909 12.5167
" />
<path d="M15.9909 12.5167
L16.0514 12.6376
" />
<path d="M16.0514 12.6376
L16.0514 12.9400
" />
<path d="M16.0514 12.9400
L15.9909 13.0610
" />
<path d="M15.9909 13.0610
L15.9304 13.1215
" />
<path d="M15.9304 13.1215
L15.8095 13.1819
" />
<path d="M15.8095 13.1819
L15.4466 13.1819
" />
<path d="M15.4466 13.1819
L15.3257 13.1215
" />
<path d="M15.3257 13.1215
L15.2652 13.0610
" />
</g></g>
<g style="fill:#840000; fill-opacity:0.0; 
stroke:#840000; stroke-width:0.1524; stroke-opacity:1; 
stroke-linecap:round; stroke-linejoin:round;">
<path d="M13.0820 16.1314
L17.1460 16.1314
" />
</g>
<g style="fill:#A90000; fill-opacity:0.0; 
stroke:#A90000; stroke-width:0.1524; stroke-opacity:1; 
stroke-linecap:round; stroke-linejoin:round;">
<text x="15.1140" y="15.8774"
textLength="2.4855" font-size="1.6933" lengthAdjust="spacingAndGlyphs"
text-anchor="middle" opacity="0">b4</text>
<g class="stroked-text"><desc>b4</desc>
<path d="M14.2371 15.7219
L14.2371 14.4519
" />
<path d="M14.2371 14.9357
L14.3581 14.8753
" />
<path d="M14.3581 14.8753
L14.6000 14.8753
" />
<path d="M14.6000 14.8753
L14.7209 14.9357
" />
<path d="M14.7209 14.9357
L14.7814 14.9962
" />
<path d="M14.7814 14.9962
L14.8419 15.1172
" />
<path d="M14.8419 15.1172
L14.8419 15.4800
" />
<path d="M14.8419 15.4800
L14.7814 15.6010
" />
<path d="M14.7814 15.6010
L14.7209 15.6615
" />
<path d="M14.7209 15.6615
L14.6000 15.7219
" />
<path d="M14.6000 15.7219
L14.3581 15.7219
" />
<path d="M14.3581 15.7219
L14.2371 15.6615
" />
<path d="M15.9304 14.8753
L15.9304 15.7219
" />
<path d="M15.6280 14.3915
L15.3257 15.2986
" />
<path d="M15.3257 15.2986
L16.1118 15.2986
" />
</g></g>
<g style="fill:#840000; fill-opacity:0.0; 
stroke:#840000; stroke-width:0.1524; stroke-opacity:1; 
stroke-linecap:round; stroke-linejoin:round;">
<path d="M13.0820 18.6714
L17.1460 18.6714
" />
</g>
<g style="fill:#A90000; fill-opacity:0.0; 
stroke:#A90000; stroke-width:0.1524; stroke-opacity:1; 
stroke-linecap:round; stroke-linejoin:round;">
<text x="15.1140" y="18.4174"
textLength="2.4855" font-size="1.6933" lengthAdjust="spacingAndGlyphs"
text-anchor="middle" opacity="0">b5</text>
<g class="stroked-text"><desc>b5</desc>
<path d="M14.2371 18.2619
L14.2371 16.9919
" />
<path d="M14.2371 17.4757
L14.3581 17.4153
" />
<path d="M14.3581 17.4153
L14.6000 17.4153
" />
<path d="M14.6000 17.4153
L14.7209 17.4757
" />
<path d="M14.7209 17.4757
L14.7814 17.5362
" />
<path d="M14.7814 17.5362
L14.8419 17.6572
" />
<path d="M14.8419 17.6572
L14.8419 18.0200
" />
<path d="M14.8419 18.0200
L14.7814 18.1410
" />
<path d="M14.7814 18.1410
L14.7209 18.2015
" />
<path d="M14.7209 18.2015
L14.6000 18.2619
" />
<path d="M14.6000 18.2619
L14.3581 18.2619
" />
<path d="M14.3581 18.2619
L14.2371 18.2015
" />
<path d="M15.9909 16.9919
L15.3861 16.9919
" />
<path d="M15.3861 16.9919
L15.3257 17.5967
" />
<path d="M15.3257 17.5967
L15.3861 17.5362
" />
<path d="M15.3861 17.5362
L15.5071 17.4757
" />
<path d="M15.5071 17.4757
L15.8095 17.4757
" />
<path d="M15.8095 17.4757
L15.9304 17.5362
" />
<path d="M15.9304 17.5362
L15.9909 17.5967
" />
<path d="M15.9909 17.5967
L16.0514 17.7176
" />
<path d="M16.0514 17.7176
L16.0514 18.0200
" />
<path d="M16.0514 18.0200
L15.9909 18.1410
" />
<path d="M15.9909 18.1410
L15.9304 18.2015
" />
<path d="M15.9304 18.2015
L15.8095 18.2619
" />
<path d="M15.8095 18.2619
L15.5071 18.2619
" />
<path d="M15.5071 18.2619
L15.3861 18.2015
" />
<path d="M15.3861 18.2015
L15.3257 18.1410
" />
</g></g>
<g style="fill:#840000; fill-opacity:0.0; 
stroke:#840000; stroke-width:0.1524; stroke-opacity:1; 
stroke-linecap:round; stroke-linejoin:round;">
<path d="M13.0820 21.2114
L17.1460 21.2114
" />
</g>
<g style="fill:#A90000; fill-opacity:0.0; 
stroke:#A90000; stroke-width:0.1524; stroke-opacity:1; 
stroke-linecap:round; stroke-linejoin:round;">
<text x="15.1140" y="20.9574"
textLength="2.4855" font-size="1.6933" lengthAdjust="spacingAndGlyphs"
text-anchor="middle" opacity="0">b6</text>
<g class="stroked-text"><desc>b6</desc>
<path d="M14.2371 20.8019
L14.2371 19.5319
" />
<path d="M14.2371 20.0157
L14.3581 19.9553
" />
<path d="M14.3581 19.9553
L14.6000 19.9553
" />
<path d="M14.6000 19.9553
L14.7209 20.0157
" />
<path d="M14.7209 20.0157
L14.7814 20.0762
" />
<path d="M14.7814 20.0762
L14.8419 20.1972
" />
<path d="M14.8419 20.1972
L14.8419 20.5600
" />
<path d="M14.8419 20.5600
L14.7814 20.6810
" />
<path d="M14.7814 20.6810
L14.7209 20.7415
" />
<path d="M14.7209 20.7415
L14.6000 20.8019
" />
<path d="M14.6000 20.8019
L14.3581 20.8019
" />
<path d="M14.3581 20.8019
L14.2371 20.7415
" />
<path d="M15.9304 19.5319
L15.6885 19.5319
" />
<path d="M15.6885 19.5319
L15.5676 19.5924
" />
<path d="M15.5676 19.5924
L15.5071 19.6529
" />
<path d="M15.5071 19.6529
L15.3861 19.8343
" />
<path d="M15.3861 19.8343
L15.3257 20.0762
" />
<path d="M15.3257 20.0762
L15.3257 20.5600
" />
<path d="M15.3257 20.5600
L15.3861 20.6810
" />
<path d="M15.3861 20.6810
L15.4466 20.7415
" />
<path d="M15.4466 20.7415
L15.5676 20.8019
" />
<path d="M15.5676 20.8019
L15.8095 20.8019
" />
<path d="M15.8095 20.8019
L15.9304 20.7415
" />
<path d="M15.9304 20.7415
L15.9909 20.6810
" />
<path d="M15.9909 20.6810
L16.0514 20.5600
" />
<path d="M16.0514 20.5600
L16.0514 20.2576
" />
<path d="M16.0514 20.2576
L15.9909 20.1367
" />
<path d="M15.9909 20.1367
L15.9304 20.0762
" />
<path d="M15.9304 20.0762
L15.8095 20.0157
" />
<path d="M15.8095 20.0157
L15.5676 20.0157
" />
<path d="M15.5676 20.0157
L15.4466 20.0762
" />
<path d="M15.4466 20.0762
L15.3861 20.1367
" />
<path d="M15.3861 20.1367
L15.3257 20.2576
" />
</g></g>
<g style="fill:#840000; fill-opacity:0.0; 
stroke:#840000; stroke-width:0.1524; stroke-opacity:1; 
stroke-linecap:round; stroke-linejoin:round;">
<path d="M13.0820 23.7514
L17.1460 23.7514
" />
</g>
<g style="fill:#A90000; fill-opacity:0.0; 
stroke:#A90000; stroke-width:0.1524; stroke-opacity:1; 
stroke-linecap:round; stroke-linejoin:round;">
<text x="15.1140" y="23.4974"
textLength="2.4855" font-size="1.6933" lengthAdjust="spacingAndGlyphs"
text-anchor="middle" opacity="0">b7</text>
<g class="stroked-text"><desc>b7</desc>
<path d="M14.2371 23.3419
L14.2371 22.0719
" />
<path d="M14.2371 22.5557
L14.3581 22.4953
" />
<path d="M14.3581 22.4953
L14.6000 22.4953
" />
<path d="M14.6000 22.4953
L14.7209 22.5557
" />
<path d="M14.7209 22.5557
L14.7814 22.6162
" />
<path d="M14.7814 22.6162
L14.8419 22.7372
" />
<path d="M14.8419 22.7372
L14.8419 23.1000
" />
<path d="M14.8419 23.1000
L14.7814 23.2210
" />
<path d="M14.7814 23.2210
L14.7209 23.2815
" />
<path d="M14.7209 23.2815
L14.6000 23.3419
" />
<path d="M14.6000 23.3419
L14.3581 23.3419
" />
<path d="M14.3581 23.3419
L14.2371 23.2815
" />
<path d="M15.2652 22.0719
L16.1118 22.0719
" />
<path d="M16.1118 22.0719
L15.5676 23.3419
" />
</g></g>
<g style="fill:#840000; fill-opacity:0.0; 
stroke:#840000; stroke-width:0.1524; stroke-opacity:1; 
stroke-linecap:round; stroke-linejoin:round;">
<path d="M13.0820 26.2914
L17.1460 26.2914
" />
</g>
<g style="fill:#A90000; fill-opacity:0.0; 
stroke:#A90000; stroke-width:0.1524; stroke-opacity:1; 
stroke-linecap:round; stroke-linejoin:round;">
<text x="15.1140" y="26.0374"
textLength="2.4855" font-size="1.6933" lengthAdjust="spacingAndGlyphs"
text-anchor="middle" opacity="0">b8</text>
<g class="stroked-text"><desc>b8</desc>
<path d="M14.2371 25.8819
L14.2371 24.6119
" />
<path d="M14.2371 25.0957
L14.3581 25.0353
" />
<path d="M14.3581 25.0353
L14.6000 25.0353
" />
<path d="M14.6000 25.0353
L14.7209 25.0957
" />
<path d="M14.7209 25.0957
L14.7814 25.1562
" />
<path d="M14.7814 25.1562
L14.8419 25.2772
" />
<path d="M14.8419 25.2772
L14.8419 25.6400
" />
<path d="M14.8419 25.6400
L14.7814 25.7610
" />
<path d="M14.7814 25.7610
L14.7209 25.8215
" />
<path d="M14.7209 25.8215
L14.6000 25.8819
" />
<path d="M14.6000 25.8819
L14.3581 25.8819
" />
<path d="M14.3581 25.8819
L14.2371 25.8215
" />
<path d="M15.5676 25.1562
L15.4466 25.0957
" />
<path d="M15.4466 25.0957
L15.3861 25.0353
" />
<path d="M15.3861 25.0353
L15.3257 24.9143
" />
<path d="M15.3257 24.9143
L15.3257 24.8538
" />
<path d="M15.3257 24.8538
L15.3861 24.7329
" />
<path d="M15.3861 24.7329
L15.4466 24.6724
" />
<path d="M15.4466 24.6724
L15.5676 24.6119
" />
<path d="M15.5676 24.6119
L15.8095 24.6119
" />
<path d="M15.8095 24.6119
L15.9304 24.6724
" />
<path d="M15.9304 24.6724
L15.9909 24.7329
" />
<path d="M15.9909 24.7329
L16.0514 24.8538
" />
<path d="M16.0514 24.8538
L16.0514 24.9143
" />
<path d="M16.0514 24.9143
L15.9909 25.0353
" />
<path d="M15.9909 25.0353
L15.9304 25.0957
" />
<path d="M15.9304 25.0957
L15.8095 25.1562
" />
<path d="M15.8095 25.1562
L15.5676 25.1562
" />
<path d="M15.5676 25.1562
L15.4466 25.2167
" />
<path d="M15.4466 25.2167
L15.3861 25.2772
" />
<path d="M15.3861 25.2772
L15.3257 25.3981
" />
<path d="M15.3257 25.3981
L15.3257 25.6400
" />
<path d="M15.3257 25.6400
L15.3861 25.7610
" />
<path d="M15.3861 25.7610
L15.4466 25.8215
" />
<path d="M15.4466 25.8215
L15.5676 25.8819
" />
<path d="M15.5676 25.8819
L15.8095 25.8819
" />
<path d="M15.8095 25.8819
L15.9304 25.8215
" />
<path d="M15.9304 25.8215
L15.9909 25.7610
" />
<path d="M15.9909 25.7610
L16.0514 25.6400
" />
<path d="M16.0514 25.6400
L16.0514 25.3981
" />
<path d="M16.0514 25.3981
L15.9909 25.2772
" />
<path d="M15.9909 25.2772
L15.9304 25.2167
" />
<path d="M15.9304 25.2167
L15.8095 25.1562
" />
</g></g>
<g style="fill:#840000; fill-opacity:0.0; 
stroke:#840000; stroke-width:0.1524; stroke-opacity:1; 
stroke-linecap:round; stroke-linejoin:round;">
<path d="M13.0820 28.8314
L17.1460 28.8314
" />
</g>
<g style="fill:#A90000; fill-opacity:0.0; 
stroke:#A90000; stroke-width:0.1524; stroke-opacity:1; 
stroke-linecap:round; stroke-linejoin:round;">
<text x="15.1140" y="28.5774"
textLength="2.4855" font-size="1.6933" lengthAdjust="spacingAndGlyphs"
text-anchor="middle" opacity="0">b9</text>
<g class="stroked-text"><desc>b9</desc>
<path d="M14.2371 28.4219
L14.2371 27.1519
" />
<path d="M14.2371 27.6357
L14.3581 27.5753
" />
<path d="M14.3581 27.5753
L14.6000 27.5753
" />
<path d="M14.6000 27.5753
L14.7209 27.6357
" />
<path d="M14.7209 27.6357
L14.7814 27.6962
" />
<path d="M14.7814 27.6962
L14.8419 27.8172
" />
<path d="M14.8419 27.8172
L14.8419 28.1800
" />
<path d="M14.8419 28.1800
L14.7814 28.3010
" />
<path d="M14.7814 28.3010
L14.7209 28.3615
" />
<path d="M14.7209 28.3615
L14.6000 28.4219
" />
<path d="M14.6000 28.4219
L14.3581 28.4219
" />
<path d="M14.3581 28.4219
L14.2371 28.3615
" />
<path d="M15.4466 28.4219
L15.6885 28.4219
" />
<path d="M15.6885 28.4219
L15.8095 28.3615
" />
<path d="M15.8095 28.3615
L15.8699 28.3010
" />
<path d="M15.8699 28.3010
L15.9909 28.1195
" />
<path d="M15.9909 28.1195
L16.0514 27.8776
" />
<path d="M16.0514 27.8776
L16.0514 27.3938
" />
<path d="M16.0514 27.3938
L15.9909 27.2729
" />
<path d="M15.9909 27.2729
L15.9304 27.2124
" />
<path d="M15.9304 27.2124
L15.8095 27.1519
" />
<path d="M15.8095 27.1519
L15.5676 27.1519
" />
<path d="M15.5676 27.1519
L15.4466 27.2124
" />
<path d="M15.4466 27.2124
L15.3861 27.2729
" />
<path d="M15.3861 27.2729
L15.3257 27.3938
" />
<path d="M15.3257 27.3938
L15.3257 27.6962
" />
<path d="M15.3257 27.6962
L15.3861 27.8172
" />
<path d="M15.3861 27.8172
L15.4466 27.8776
" />
<path d="M15.4466 27.8776
L15.5676 27.9381
" />
<path d="M15.5676 27.9381
L15.8095 27.9381
" />
<path d="M15.8095 27.9381
L15.9304 27.8776
" />
<path d="M15.9304 27.8776
L15.9909 27.8172
" />
<path d="M15.9909 27.8172
L16.0514 27.6962
" />
</g></g>
<g style="fill:#840084; fill-opacity:0.0; 
stroke:#840084; stroke-width:0.1524; stroke-opacity:1; 
stroke-linecap:round; stroke-linejoin:round;">
</g>
<g style="fill:#006464; fill-opacity:0.0; 
stroke:#006464; stroke-width:0.1524; stroke-opacity:1; 
stroke-linecap:round; stroke-linejoin:round;">
</g>
<g style="fill:#006464; fill-opacity:0.0; 
stroke:#006464; stroke-width:0.1588; stroke-opacity:1; 
stroke-linecap:round; stroke-linejoin:round;">
<text x="11.0500" y="6.8604"
textLength="2.1992" font-size="1.6933" lengthAdjust="spacingAndGlyphs"
text-anchor="middle" opacity="0">J?</text>
<g class="stroked-text"><desc>J?</desc>
<path d="M10.6871 5.5429
L10.6871 6.4501
" />
<path d="M10.6871 6.4501
L10.6266 6.6315
" />
<path d="M10.6266 6.6315
L10.5057 6.7525
" />
<path d="M10.5057 6.7525
L10.3242 6.8129
" />
<path d="M10.3242 6.8129
L10.2033 6.8129
" />
<path d="M11.4733 6.6920
L11.5337 6.7525
" />
<path d="M11.5337 6.7525
L11.4733 6.8129
" />
<path d="M11.4733 6.8129
L11.4128 6.7525
" />
<path d="M11.4128 6.7525
L11.4733 6.6920
" />
<path d="M11.4733 6.6920
L11.4733 6.8129
" />
<path d="M11.2314 5.6034
L11.3523 5.5429
" />
<path d="M11.3523 5.5429
L11.6547 5.5429
" />
<path d="M11.6547 5.5429
L11.7756 5.6034
" />
<path d="M11.7756 5.6034
L11.8361 5.7244
" />
<path d="M11.8361 5.7244
L11.8361 5.8453
" />
<path d="M11.8361 5.8453
L11.7756 5.9663
" />
<path d="M11.7756 5.9663
L11.7152 6.0267
" />
<path d="M11.7152 6.0267
L11.5942 6.0872
" />
<path d="M11.5942 6.0872
L11.5337 6.1477
" />
<path d="M11.5337 6.1477
L11.4733 6.2686
" />
<path d="M11.4733 6.2686
L11.4733 6.3291
" />
</g><text x="30.3588" y="57.1524"
textLength="37.0936" font-size="1.6933" lengthAdjust="spacingAndGlyphs"
text-anchor="middle" opacity="0">Conn_02x19_Row_Letter_First_Shielded</text>
<g class="stroked-text"><desc>Conn_02x19_Row_Letter_First_Shielded</desc>
<path d="M12.9115 56.9840
L12.8511 57.0445
" />
<path d="M12.8511 57.0445
L12.6696 57.1049
" />
<path d="M12.6696 57.1049
L12.5487 57.1049
" />
<path d="M12.5487 57.1049
L12.3673 57.0445
" />
<path d="M12.3673 57.0445
L12.2463 56.9235
" />
<path d="M12.2463 56.9235
L12.1858 56.8025
" />
<path d="M12.1858 56.8025
L12.1254 56.5606
" />
<path d="M12.1254 56.5606
L12.1254 56.3792
" />
<path d="M12.1254 56.3792
L12.1858 56.1373
" />
<path d="M12.1858 56.1373
L12.2463 56.0164
" />
<path d="M12.2463 56.0164
L12.3673 55.8954
" />
<path d="M12.3673 55.8954
L12.5487 55.8349
" />
<path d="M12.5487 55.8349
L12.6696 55.8349
" />
<path d="M12.6696 55.8349
L12.8511 55.8954
" />
<path d="M12.8511 55.8954
L12.9115 55.9559
" />
<path d="M13.6373 57.1049
L13.5163 57.0445
" />
<path d="M13.5163 57.0445
L13.4558 56.9840
" />
<path d="M13.4558 56.9840
L13.3954 56.8630
" />
<path d="M13.3954 56.8630
L13.3954 56.5002
" />
<path d="M13.3954 56.5002
L13.4558 56.3792
" />
<path d="M13.4558 56.3792
L13.5163 56.3187
" />
<path d="M13.5163 56.3187
L13.6373 56.2583
" />
<path d="M13.6373 56.2583
L13.8187 56.2583
" />
<path d="M13.8187 56.2583
L13.9396 56.3187
" />
<path d="M13.9396 56.3187
L14.0001 56.3792
" />
<path d="M14.0001 56.3792
L14.0606 56.5002
" />
<path d="M14.0606 56.5002
L14.0606 56.8630
" />
<path d="M14.0606 56.8630
L14.0001 56.9840
" />
<path d="M14.0001 56.9840
L13.9396 57.0445
" />
<path d="M13.9396 57.0445
L13.8187 57.1049
" />
<path d="M13.8187 57.1049
L13.6373 57.1049
" />
<path d="M14.6048 56.2583
L14.6048 57.1049
" />
<path d="M14.6048 56.3792
L14.6653 56.3187
" />
<path d="M14.6653 56.3187
L14.7863 56.2583
" />
<path d="M14.7863 56.2583
L14.9677 56.2583
" />
<path d="M14.9677 56.2583
L15.0886 56.3187
" />
<path d="M15.0886 56.3187
L15.1491 56.4397
" />
<path d="M15.1491 56.4397
L15.1491 57.1049
" />
<path d="M15.7538 56.2583
L15.7538 57.1049
" />
<path d="M15.7538 56.3792
L15.8143 56.3187
" />
<path d="M15.8143 56.3187
L15.9353 56.2583
" />
<path d="M15.9353 56.2583
L16.1167 56.2583
" />
<path d="M16.1167 56.2583
L16.2376 56.3187
" />
<path d="M16.2376 56.3187
L16.2981 56.4397
" />
<path d="M16.2981 56.4397
L16.2981 57.1049
" />
<path d="M16.6005 57.2259
L17.5681 57.2259
" />
<path d="M18.1123 55.8349
L18.2333 55.8349
" />
<path d="M18.2333 55.8349
L18.3542 55.8954
" />
<path d="M18.3542 55.8954
L18.4147 55.9559
" />
<path d="M18.4147 55.9559
L18.4752 56.0768
" />
<path d="M18.4752 56.0768
L18.5357 56.3187
" />
<path d="M18.5357 56.3187
L18.5357 56.6211
" />
<path d="M18.5357 56.6211
L18.4752 56.8630
" />
<path d="M18.4752 56.8630
L18.4147 56.9840
" />
<path d="M18.4147 56.9840
L18.3542 57.0445
" />
<path d="M18.3542 57.0445
L18.2333 57.1049
" />
<path d="M18.2333 57.1049
L18.1123 57.1049
" />
<path d="M18.1123 57.1049
L17.9914 57.0445
" />
<path d="M17.9914 57.0445
L17.9309 56.9840
" />
<path d="M17.9309 56.9840
L17.8704 56.8630
" />
<path d="M17.8704 56.8630
L17.8100 56.6211
" />
<path d="M17.8100 56.6211
L17.8100 56.3187
" />
<path d="M17.8100 56.3187
L17.8704 56.0768
" />
<path d="M17.8704 56.0768
L17.9309 55.9559
" />
<path d="M17.9309 55.9559
L17.9914 55.8954
" />
<path d="M17.9914 55.8954
L18.1123 55.8349
" />
<path d="M19.0195 55.9559
L19.0799 55.8954
" />
<path d="M19.0799 55.8954
L19.2009 55.8349
" />
<path d="M19.2009 55.8349
L19.5033 55.8349
" />
<path d="M19.5033 55.8349
L19.6242 55.8954
" />
<path d="M19.6242 55.8954
L19.6847 55.9559
" />
<path d="M19.6847 55.9559
L19.7452 56.0768
" />
<path d="M19.7452 56.0768
L19.7452 56.1978
" />
<path d="M19.7452 56.1978
L19.6847 56.3792
" />
<path d="M19.6847 56.3792
L18.9590 57.1049
" />
<path d="M18.9590 57.1049
L19.7452 57.1049
" />
<path d="M20.1685 57.1049
L20.8337 56.2583
" />
<path d="M20.1685 56.2583
L20.8337 57.1049
" />
<path d="M21.9828 57.1049
L21.2571 57.1049
" />
<path d="M21.6199 57.1049
L21.6199 55.8349
" />
<path d="M21.6199 55.8349
L21.4990 56.0164
" />
<path d="M21.4990 56.0164
L21.3780 56.1373
" />
<path d="M21.3780 56.1373
L21.2571 56.1978
" />
<path d="M22.5875 57.1049
L22.8294 57.1049
" />
<path d="M22.8294 57.1049
L22.9504 57.0445
" />
<path d="M22.9504 57.0445
L23.0108 56.9840
" />
<path d="M23.0108 56.9840
L23.1318 56.8025
" />
<path d="M23.1318 56.8025
L23.1923 56.5606
" />
<path d="M23.1923 56.5606
L23.1923 56.0768
" />
<path d="M23.1923 56.0768
L23.1318 55.9559
" />
<path d="M23.1318 55.9559
L23.0713 55.8954
" />
<path d="M23.0713 55.8954
L22.9504 55.8349
" />
<path d="M22.9504 55.8349
L22.7085 55.8349
" />
<path d="M22.7085 55.8349
L22.5875 55.8954
" />
<path d="M22.5875 55.8954
L22.5270 55.9559
" />
<path d="M22.5270 55.9559
L22.4666 56.0768
" />
<path d="M22.4666 56.0768
L22.4666 56.3792
" />
<path d="M22.4666 56.3792
L22.5270 56.5002
" />
<path d="M22.5270 56.5002
L22.5875 56.5606
" />
<path d="M22.5875 56.5606
L22.7085 56.6211
" />
<path d="M22.7085 56.6211
L22.9504 56.6211
" />
<path d="M22.9504 56.6211
L23.0713 56.5606
" />
<path d="M23.0713 56.5606
L23.1318 56.5002
" />
<path d="M23.1318 56.5002
L23.1923 56.3792
" />
<path d="M23.4342 57.2259
L24.4018 57.2259
" />
<path d="M25.4298 57.1049
L25.0065 56.5002
" />
<path d="M24.7041 57.1049
L24.7041 55.8349
" />
<path d="M24.7041 55.8349
L25.1879 55.8349
" />
<path d="M25.1879 55.8349
L25.3089 55.8954
" />
<path d="M25.3089 55.8954
L25.3694 55.9559
" />
<path d="M25.3694 55.9559
L25.4298 56.0768
" />
<path d="M25.4298 56.0768
L25.4298 56.2583
" />
<path d="M25.4298 56.2583
L25.3694 56.3792
" />
<path d="M25.3694 56.3792
L25.3089 56.4397
" />
<path d="M25.3089 56.4397
L25.1879 56.5002
" />
<path d="M25.1879 56.5002
L24.7041 56.5002
" />
<path d="M26.1556 57.1049
L26.0346 57.0445
" />
<path d="M26.0346 57.0445
L25.9741 56.9840
" />
<path d="M25.9741 56.9840
L25.9137 56.8630
" />
<path d="M25.9137 56.8630
L25.9137 56.5002
" />
<path d="M25.9137 56.5002
L25.9741 56.3792
" />
<path d="M25.9741 56.3792
L26.0346 56.3187
" />
<path d="M26.0346 56.3187
L26.1556 56.2583
" />
<path d="M26.1556 56.2583
L26.3370 56.2583
" />
<path d="M26.3370 56.2583
L26.4579 56.3187
" />
<path d="M26.4579 56.3187
L26.5184 56.3792
" />
<path d="M26.5184 56.3792
L26.5789 56.5002
" />
<path d="M26.5789 56.5002
L26.5789 56.8630
" />
<path d="M26.5789 56.8630
L26.5184 56.9840
" />
<path d="M26.5184 56.9840
L26.4579 57.0445
" />
<path d="M26.4579 57.0445
L26.3370 57.1049
" />
<path d="M26.3370 57.1049
L26.1556 57.1049
" />
<path d="M27.0022 56.2583
L27.2441 57.1049
" />
<path d="M27.2441 57.1049
L27.4860 56.5002
" />
<path d="M27.4860 56.5002
L27.7279 57.1049
" />
<path d="M27.7279 57.1049
L27.9698 56.2583
" />
<path d="M28.1513 57.2259
L29.1189 57.2259
" />
<path d="M30.0260 57.1049
L29.4212 57.1049
" />
<path d="M29.4212 57.1049
L29.4212 55.8349
" />
<path d="M30.9331 57.0445
L30.8122 57.1049
" />
<path d="M30.8122 57.1049
L30.5703 57.1049
" />
<path d="M30.5703 57.1049
L30.4493 57.0445
" />
<path d="M30.4493 57.0445
L30.3889 56.9235
" />
<path d="M30.3889 56.9235
L30.3889 56.4397
" />
<path d="M30.3889 56.4397
L30.4493 56.3187
" />
<path d="M30.4493 56.3187
L30.5703 56.2583
" />
<path d="M30.5703 56.2583
L30.8122 56.2583
" />
<path d="M30.8122 56.2583
L30.9331 56.3187
" />
<path d="M30.9331 56.3187
L30.9936 56.4397
" />
<path d="M30.9936 56.4397
L30.9936 56.5606
" />
<path d="M30.9936 56.5606
L30.3889 56.6816
" />
<path d="M31.3565 56.2583
L31.8403 56.2583
" />
<path d="M31.5379 55.8349
L31.5379 56.9235
" />
<path d="M31.5379 56.9235
L31.5984 57.0445
" />
<path d="M31.5984 57.0445
L31.7194 57.1049
" />
<path d="M31.7194 57.1049
L31.8403 57.1049
" />
<path d="M32.0822 56.2583
L32.5660 56.2583
" />
<path d="M32.2636 55.8349
L32.2636 56.9235
" />
<path d="M32.2636 56.9235
L32.3241 57.0445
" />
<path d="M32.3241 57.0445
L32.4451 57.1049
" />
<path d="M32.4451 57.1049
L32.5660 57.1049
" />
<path d="M33.4731 57.0445
L33.3522 57.1049
" />
<path d="M33.3522 57.1049
L33.1103 57.1049
" />
<path d="M33.1103 57.1049
L32.9893 57.0445
" />
<path d="M32.9893 57.0445
L32.9289 56.9235
" />
<path d="M32.9289 56.9235
L32.9289 56.4397
" />
<path d="M32.9289 56.4397
L32.9893 56.3187
" />
<path d="M32.9893 56.3187
L33.1103 56.2583
" />
<path d="M33.1103 56.2583
L33.3522 56.2583
" />
<path d="M33.3522 56.2583
L33.4731 56.3187
" />
<path d="M33.4731 56.3187
L33.5336 56.4397
" />
<path d="M33.5336 56.4397
L33.5336 56.5606
" />
<path d="M33.5336 56.5606
L32.9289 56.6816
" />
<path d="M34.0779 57.1049
L34.0779 56.2583
" />
<path d="M34.0779 56.5002
L34.1384 56.3792
" />
<path d="M34.1384 56.3792
L34.1989 56.3187
" />
<path d="M34.1989 56.3187
L34.3198 56.2583
" />
<path d="M34.3198 56.2583
L34.4408 56.2583
" />
<path d="M34.5618 57.2259
L35.5294 57.2259
" />
<path d="M36.2551 56.4397
L35.8317 56.4397
" />
<path d="M35.8317 57.1049
L35.8317 55.8349
" />
<path d="M35.8317 55.8349
L36.4365 55.8349
" />
<path d="M36.9203 57.1049
L36.9203 56.2583
" />
<path d="M36.9203 55.8349
L36.8599 55.8954
" />
<path d="M36.8599 55.8954
L36.9203 55.9559
" />
<path d="M36.9203 55.9559
L36.9808 55.8954
" />
<path d="M36.9808 55.8954
L36.9203 55.8349
" />
<path d="M36.9203 55.8349
L36.9203 55.9559
" />
<path d="M37.5251 57.1049
L37.5251 56.2583
" />
<path d="M37.5251 56.5002
L37.5856 56.3792
" />
<path d="M37.5856 56.3792
L37.6461 56.3187
" />
<path d="M37.6461 56.3187
L37.7670 56.2583
" />
<path d="M37.7670 56.2583
L37.8880 56.2583
" />
<path d="M38.2509 57.0445
L38.3718 57.1049
" />
<path d="M38.3718 57.1049
L38.6137 57.1049
" />
<path d="M38.6137 57.1049
L38.7347 57.0445
" />
<path d="M38.7347 57.0445
L38.7951 56.9235
" />
<path d="M38.7951 56.9235
L38.7951 56.8630
" />
<path d="M38.7951 56.8630
L38.7347 56.7421
" />
<path d="M38.7347 56.7421
L38.6137 56.6816
" />
<path d="M38.6137 56.6816
L38.4323 56.6816
" />
<path d="M38.4323 56.6816
L38.3113 56.6211
" />
<path d="M38.3113 56.6211
L38.2509 56.5002
" />
<path d="M38.2509 56.5002
L38.2509 56.4397
" />
<path d="M38.2509 56.4397
L38.3113 56.3187
" />
<path d="M38.3113 56.3187
L38.4323 56.2583
" />
<path d="M38.4323 56.2583
L38.6137 56.2583
" />
<path d="M38.6137 56.2583
L38.7347 56.3187
" />
<path d="M39.1580 56.2583
L39.6418 56.2583
" />
<path d="M39.3394 55.8349
L39.3394 56.9235
" />
<path d="M39.3394 56.9235
L39.3999 57.0445
" />
<path d="M39.3999 57.0445
L39.5209 57.1049
" />
<path d="M39.5209 57.1049
L39.6418 57.1049
" />
<path d="M39.7628 57.2259
L40.7304 57.2259
" />
<path d="M40.9723 57.0445
L41.1537 57.1049
" />
<path d="M41.1537 57.1049
L41.4561 57.1049
" />
<path d="M41.4561 57.1049
L41.5770 57.0445
" />
<path d="M41.5770 57.0445
L41.6375 56.9840
" />
<path d="M41.6375 56.9840
L41.6980 56.8630
" />
<path d="M41.6980 56.8630
L41.6980 56.7421
" />
<path d="M41.6980 56.7421
L41.6375 56.6211
" />
<path d="M41.6375 56.6211
L41.5770 56.5606
" />
<path d="M41.5770 56.5606
L41.4561 56.5002
" />
<path d="M41.4561 56.5002
L41.2142 56.4397
" />
<path d="M41.2142 56.4397
L41.0932 56.3792
" />
<path d="M41.0932 56.3792
L41.0327 56.3187
" />
<path d="M41.0327 56.3187
L40.9723 56.1978
" />
<path d="M40.9723 56.1978
L40.9723 56.0768
" />
<path d="M40.9723 56.0768
L41.0327 55.9559
" />
<path d="M41.0327 55.9559
L41.0932 55.8954
" />
<path d="M41.0932 55.8954
L41.2142 55.8349
" />
<path d="M41.2142 55.8349
L41.5165 55.8349
" />
<path d="M41.5165 55.8349
L41.6980 55.8954
" />
<path d="M42.2422 57.1049
L42.2422 55.8349
" />
<path d="M42.7865 57.1049
L42.7865 56.4397
" />
<path d="M42.7865 56.4397
L42.7260 56.3187
" />
<path d="M42.7260 56.3187
L42.6051 56.2583
" />
<path d="M42.6051 56.2583
L42.4237 56.2583
" />
<path d="M42.4237 56.2583
L42.3027 56.3187
" />
<path d="M42.3027 56.3187
L42.2422 56.3792
" />
<path d="M43.3912 57.1049
L43.3912 56.2583
" />
<path d="M43.3912 55.8349
L43.3308 55.8954
" />
<path d="M43.3308 55.8954
L43.3912 55.9559
" />
<path d="M43.3912 55.9559
L43.4517 55.8954
" />
<path d="M43.4517 55.8954
L43.3912 55.8349
" />
<path d="M43.3912 55.8349
L43.3912 55.9559
" />
<path d="M44.4798 57.0445
L44.3589 57.1049
" />
<path d="M44.3589 57.1049
L44.1170 57.1049
" />
<path d="M44.1170 57.1049
L43.9960 57.0445
" />
<path d="M43.9960 57.0445
L43.9356 56.9235
" />
<path d="M43.9356 56.9235
L43.9356 56.4397
" />
<path d="M43.9356 56.4397
L43.9960 56.3187
" />
<path d="M43.9960 56.3187
L44.1170 56.2583
" />
<path d="M44.1170 56.2583
L44.3589 56.2583
" />
<path d="M44.3589 56.2583
L44.4798 56.3187
" />
<path d="M44.4798 56.3187
L44.5403 56.4397
" />
<path d="M44.5403 56.4397
L44.5403 56.5606
" />
<path d="M44.5403 56.5606
L43.9356 56.6816
" />
<path d="M45.2661 57.1049
L45.1451 57.0445
" />
<path d="M45.1451 57.0445
L45.0846 56.9235
" />
<path d="M45.0846 56.9235
L45.0846 55.8349
" />
<path d="M46.2941 57.1049
L46.2941 55.8349
" />
<path d="M46.2941 57.0445
L46.1732 57.1049
" />
<path d="M46.1732 57.1049
L45.9313 57.1049
" />
<path d="M45.9313 57.1049
L45.8103 57.0445
" />
<path d="M45.8103 57.0445
L45.7498 56.9840
" />
<path d="M45.7498 56.9840
L45.6894 56.8630
" />
<path d="M45.6894 56.8630
L45.6894 56.5002
" />
<path d="M45.6894 56.5002
L45.7498 56.3792
" />
<path d="M45.7498 56.3792
L45.8103 56.3187
" />
<path d="M45.8103 56.3187
L45.9313 56.2583
" />
<path d="M45.9313 56.2583
L46.1732 56.2583
" />
<path d="M46.1732 56.2583
L46.2941 56.3187
" />
<path d="M47.3826 57.0445
L47.2617 57.1049
" />
<path d="M47.2617 57.1049
L47.0198 57.1049
" />
<path d="M47.0198 57.1049
L46.8988 57.0445
" />
<path d="M46.8988 57.0445
L46.8384 56.9235
" />
<path d="M46.8384 56.9235
L46.8384 56.4397
" />
<path d="M46.8384 56.4397
L46.8988 56.3187
" />
<path d="M46.8988 56.3187
L47.0198 56.2583
" />
<path d="M47.0198 56.2583
L47.2617 56.2583
" />
<path d="M47.2617 56.2583
L47.3826 56.3187
" />
<path d="M47.3826 56.3187
L47.4431 56.4397
" />
<path d="M47.4431 56.4397
L47.4431 56.5606
" />
<path d="M47.4431 56.5606
L46.8384 56.6816
" />
<path d="M48.5317 57.1049
L48.5317 55.8349
" />
<path d="M48.5317 57.0445
L48.4108 57.1049
" />
<path d="M48.4108 57.1049
L48.1689 57.1049
" />
<path d="M48.1689 57.1049
L48.0479 57.0445
" />
<path d="M48.0479 57.0445
L47.9874 56.9840
" />
<path d="M47.9874 56.9840
L47.9270 56.8630
" />
<path d="M47.9270 56.8630
L47.9270 56.5002
" />
<path d="M47.9270 56.5002
L47.9874 56.3792
" />
<path d="M47.9874 56.3792
L48.0479 56.3187
" />
<path d="M48.0479 56.3187
L48.1689 56.2583
" />
<path d="M48.1689 56.2583
L48.4108 56.2583
" />
<path d="M48.4108 56.2583
L48.5317 56.3187
" />
</g></g>
<g style="fill:#840084; fill-opacity:0.0; 
stroke:#840084; stroke-width:0.1588; stroke-opacity:1; 
stroke-linecap:round; stroke-linejoin:round;">
<text x="9.5260" y="32.0064"
textLength="1.0501" font-size="1.6933" lengthAdjust="spacingAndGlyphs"
text-anchor="middle" opacity="0">~</text>
<g class="stroked-text"><desc>~</desc>
<path d="M9.1934 31.4751
L9.2539 31.4146
" />
<path d="M9.2539 31.4146
L9.3748 31.3542
" />
<path d="M9.3748 31.3542
L9.6167 31.4751
" />
<path d="M9.6167 31.4751
L9.7377 31.4146
" />
<path d="M9.7377 31.4146
L9.7982 31.3542
" />
</g></g> 
</svg>
