<?xml version="1.0" standalone="no"?>
 <!DOCTYPE svg PUBLIC "-//W3C//DTD SVG 1.1//EN" 
 "http://www.w3.org/Graphics/SVG/1.1/DTD/svg11.dtd"> 
<svg
  xmlns:svg="http://www.w3.org/2000/svg"
  xmlns="http://www.w3.org/2000/svg"
  xmlns:xlink="http://www.w3.org/1999/xlink"
  version="1.1"
  width="64.4906mm" height="14.6558mm" viewBox="0.0000 0.0000 64.4906 14.6558">
<title>SVG Image created as working.svg date 2023/08/04 21:10:55 </title>
  <desc>Image generated by Eeschema-SVG </desc>
<g style="fill:#000000; fill-opacity:1.0000;stroke:#000000; stroke-opacity:1.0000;
stroke-linecap:round; stroke-linejoin:round;"
 transform="translate(0 0) scale(1 1)">
</g>
<g style="fill:#840000; fill-opacity:0.0; 
stroke:#840000; stroke-width:0.0000; stroke-opacity:1; 
stroke-linecap:round; stroke-linejoin:round;">
</g>
<g style="fill:#FFFFC2; fill-opacity:0.0; 
stroke:#FFFFC2; stroke-width:0.0000; stroke-opacity:1; 
stroke-linecap:round; stroke-linejoin:round;">
</g>
<g style="fill:#FFFFC2; fill-opacity:1.0000; 
stroke:#FFFFC2; stroke-width:0.0000; stroke-opacity:1; 
stroke-linecap:round; stroke-linejoin:round;">
<rect x="7.914400" y="3.511900" width="10.160000" height="7.620000" rx="0.000000" />
</g>
<g style="fill:#840084; fill-opacity:1.0000; 
stroke:#840084; stroke-width:0.0000; stroke-opacity:1; 
stroke-linecap:round; stroke-linejoin:round;">
</g>
<g style="fill:#840000; fill-opacity:1.0000; 
stroke:#840000; stroke-width:0.0000; stroke-opacity:1; 
stroke-linecap:round; stroke-linejoin:round;">
</g>
<g style="fill:#840000; fill-opacity:0.0; 
stroke:#840000; stroke-width:0.2540; stroke-opacity:1; 
stroke-linecap:round; stroke-linejoin:round;">
<rect x="7.914400" y="3.511900" width="10.160000" height="7.620000" rx="0.000000" />
<path style="fill:#840000; fill-opacity:0.0; 
stroke:#840000; stroke-width:0.2540; stroke-opacity:1; 
stroke-linecap:round; stroke-linejoin:round;fill:none"
d="M 9.1844,7.9569
10.4544,7.9569
" /> 
</g>
<g style="fill:#840000; fill-opacity:0.0; 
stroke:#840000; stroke-width:0.1524; stroke-opacity:1; 
stroke-linecap:round; stroke-linejoin:round;">
<path style="fill:#840000; fill-opacity:0.0; 
stroke:#840000; stroke-width:0.1524; stroke-opacity:1; 
stroke-linecap:round; stroke-linejoin:round;fill:none"
d="M 15.6614,8.7189
16.8044,9.8619
" /> 
<path style="fill:#840000; fill-opacity:0.0; 
stroke:#840000; stroke-width:0.1524; stroke-opacity:1; 
stroke-linecap:round; stroke-linejoin:round;fill:none"
d="M 15.6614,8.4649
16.8044,7.3219
" /> 
<path style="fill:#840000; fill-opacity:0.0; 
stroke:#840000; stroke-width:0.1524; stroke-opacity:1; 
stroke-linecap:round; stroke-linejoin:round;fill:none"
d="M 16.8044,9.8619
18.0744,9.8619
" /> 
<path style="fill:#840000; fill-opacity:0.0; 
stroke:#840000; stroke-width:0.1524; stroke-opacity:1; 
stroke-linecap:round; stroke-linejoin:round;fill:none"
d="M 16.8044,7.3219
18.0744,7.3219
" /> 
</g>
<g style="fill:#840000; fill-opacity:0.0; 
stroke:#840000; stroke-width:0.3556; stroke-opacity:1; 
stroke-linecap:round; stroke-linejoin:round;">
<path style="fill:#840000; fill-opacity:0.0; 
stroke:#840000; stroke-width:0.3556; stroke-opacity:1; 
stroke-linecap:round; stroke-linejoin:round;fill:none"
d="M 15.6614,7.5759
15.6614,9.6079
15.6614,9.6079
" /> 
</g>
<g style="fill:#840000; fill-opacity:0.0; 
stroke:#840000; stroke-width:0.1524; stroke-opacity:1; 
stroke-linecap:round; stroke-linejoin:round;">
<path style="fill:#840000; fill-opacity:0.0; 
stroke:#840000; stroke-width:0.1524; stroke-opacity:1; 
stroke-linecap:round; stroke-linejoin:round;fill:none"
d="M 7.9144,9.8619
9.8194,9.8619
9.8194,4.7819
7.9144,4.7819
" /> 
</g>
<g style="fill:#840000; fill-opacity:0.0; 
stroke:#840000; stroke-width:0.2540; stroke-opacity:1; 
stroke-linecap:round; stroke-linejoin:round;">
<path style="fill:#840000; fill-opacity:0.0; 
stroke:#840000; stroke-width:0.2540; stroke-opacity:1; 
stroke-linecap:round; stroke-linejoin:round;fill:none"
d="M 9.8194,7.9569
9.1844,6.6869
10.4544,6.6869
Z" /> 
</g>
<g style="fill:#840000; fill-opacity:0.0; 
stroke:#840000; stroke-width:0.1524; stroke-opacity:1; 
stroke-linecap:round; stroke-linejoin:round;">
<path style="fill:#840000; fill-opacity:0.0; 
stroke:#840000; stroke-width:0.1524; stroke-opacity:1; 
stroke-linecap:round; stroke-linejoin:round;fill:none"
d="M 16.6774,9.7349
16.4234,9.2269
16.1694,9.4809
Z" /> 
<path style="fill:#840000; fill-opacity:0.0; 
stroke:#840000; stroke-width:0.1524; stroke-opacity:1; 
stroke-linecap:round; stroke-linejoin:round;fill:none"
d="M 18.0744,4.7819
14.8994,4.7819
14.8994,8.5919
15.5344,8.5919
" /> 
<path style="fill:#840000; fill-opacity:0.0; 
stroke:#840000; stroke-width:0.1524; stroke-opacity:1; 
stroke-linecap:round; stroke-linejoin:round;fill:none"
d="M 12.3594,7.8299
13.6294,7.8299
13.2484,7.9569
13.2484,7.7029
13.6294,7.8299
" /> 
<path style="fill:#840000; fill-opacity:0.0; 
stroke:#840000; stroke-width:0.1524; stroke-opacity:1; 
stroke-linecap:round; stroke-linejoin:round;fill:none"
d="M 12.3594,6.8139
13.6294,6.8139
13.2484,6.9409
13.2484,6.6869
13.6294,6.8139
" /> 
<path d="M7.9144 4.7819
L5.3744 4.7819
" />
</g>
<g style="fill:#A90000; fill-opacity:0.0; 
stroke:#A90000; stroke-width:0.1524; stroke-opacity:1; 
stroke-linecap:round; stroke-linejoin:round;">
<text x="6.6444" y="4.5279"
textLength="1.4127" font-size="1.6933" lengthAdjust="spacingAndGlyphs"
text-anchor="middle" opacity="0">1</text>
<g class="stroked-text"><desc>1</desc>
<path d="M7.0073 4.3644
L6.2816 4.3644
" />
<path d="M6.6444 4.3644
L6.6444 3.0944
" />
<path d="M6.6444 3.0944
L6.5235 3.2759
" />
<path d="M6.5235 3.2759
L6.4025 3.3968
" />
<path d="M6.4025 3.3968
L6.2816 3.4573
" />
</g></g>
<g style="fill:#840000; fill-opacity:0.0; 
stroke:#840000; stroke-width:0.1524; stroke-opacity:1; 
stroke-linecap:round; stroke-linejoin:round;">
<path d="M7.9144 9.8619
L5.3744 9.8619
" />
</g>
<g style="fill:#A90000; fill-opacity:0.0; 
stroke:#A90000; stroke-width:0.1524; stroke-opacity:1; 
stroke-linecap:round; stroke-linejoin:round;">
<text x="6.6444" y="9.6079"
textLength="1.4127" font-size="1.6933" lengthAdjust="spacingAndGlyphs"
text-anchor="middle" opacity="0">2</text>
<g class="stroked-text"><desc>2</desc>
<path d="M6.2816 8.2954
L6.3420 8.2349
" />
<path d="M6.3420 8.2349
L6.4630 8.1744
" />
<path d="M6.4630 8.1744
L6.7654 8.1744
" />
<path d="M6.7654 8.1744
L6.8863 8.2349
" />
<path d="M6.8863 8.2349
L6.9468 8.2954
" />
<path d="M6.9468 8.2954
L7.0073 8.4163
" />
<path d="M7.0073 8.4163
L7.0073 8.5373
" />
<path d="M7.0073 8.5373
L6.9468 8.7187
" />
<path d="M6.9468 8.7187
L6.2211 9.4444
" />
<path d="M6.2211 9.4444
L7.0073 9.4444
" />
</g></g>
<g style="fill:#840000; fill-opacity:0.0; 
stroke:#840000; stroke-width:0.1524; stroke-opacity:1; 
stroke-linecap:round; stroke-linejoin:round;">
<path d="M18.0744 9.8619
L20.6144 9.8619
" />
</g>
<g style="fill:#A90000; fill-opacity:0.0; 
stroke:#A90000; stroke-width:0.1524; stroke-opacity:1; 
stroke-linecap:round; stroke-linejoin:round;">
<text x="19.3444" y="9.6079"
textLength="1.4127" font-size="1.6933" lengthAdjust="spacingAndGlyphs"
text-anchor="middle" opacity="0">4</text>
<g class="stroked-text"><desc>4</desc>
<path d="M19.5863 8.5978
L19.5863 9.4444
" />
<path d="M19.2839 8.1140
L18.9816 9.0211
" />
<path d="M18.9816 9.0211
L19.7677 9.0211
" />
</g></g>
<g style="fill:#840000; fill-opacity:0.0; 
stroke:#840000; stroke-width:0.1524; stroke-opacity:1; 
stroke-linecap:round; stroke-linejoin:round;">
<path d="M18.0744 7.3219
L20.6144 7.3219
" />
</g>
<g style="fill:#A90000; fill-opacity:0.0; 
stroke:#A90000; stroke-width:0.1524; stroke-opacity:1; 
stroke-linecap:round; stroke-linejoin:round;">
<text x="19.3444" y="7.0679"
textLength="1.4127" font-size="1.6933" lengthAdjust="spacingAndGlyphs"
text-anchor="middle" opacity="0">5</text>
<g class="stroked-text"><desc>5</desc>
<path d="M19.6468 5.6344
L19.0420 5.6344
" />
<path d="M19.0420 5.6344
L18.9816 6.2392
" />
<path d="M18.9816 6.2392
L19.0420 6.1787
" />
<path d="M19.0420 6.1787
L19.1630 6.1182
" />
<path d="M19.1630 6.1182
L19.4654 6.1182
" />
<path d="M19.4654 6.1182
L19.5863 6.1787
" />
<path d="M19.5863 6.1787
L19.6468 6.2392
" />
<path d="M19.6468 6.2392
L19.7073 6.3601
" />
<path d="M19.7073 6.3601
L19.7073 6.6625
" />
<path d="M19.7073 6.6625
L19.6468 6.7835
" />
<path d="M19.6468 6.7835
L19.5863 6.8440
" />
<path d="M19.5863 6.8440
L19.4654 6.9044
" />
<path d="M19.4654 6.9044
L19.1630 6.9044
" />
<path d="M19.1630 6.9044
L19.0420 6.8440
" />
<path d="M19.0420 6.8440
L18.9816 6.7835
" />
</g></g>
<g style="fill:#840000; fill-opacity:0.0; 
stroke:#840000; stroke-width:0.1524; stroke-opacity:1; 
stroke-linecap:round; stroke-linejoin:round;">
<path d="M18.0744 4.7819
L20.6144 4.7819
" />
</g>
<g style="fill:#A90000; fill-opacity:0.0; 
stroke:#A90000; stroke-width:0.1524; stroke-opacity:1; 
stroke-linecap:round; stroke-linejoin:round;">
<text x="19.3444" y="4.5279"
textLength="1.4127" font-size="1.6933" lengthAdjust="spacingAndGlyphs"
text-anchor="middle" opacity="0">6</text>
<g class="stroked-text"><desc>6</desc>
<path d="M19.5863 3.0944
L19.3444 3.0944
" />
<path d="M19.3444 3.0944
L19.2235 3.1549
" />
<path d="M19.2235 3.1549
L19.1630 3.2154
" />
<path d="M19.1630 3.2154
L19.0420 3.3968
" />
<path d="M19.0420 3.3968
L18.9816 3.6387
" />
<path d="M18.9816 3.6387
L18.9816 4.1225
" />
<path d="M18.9816 4.1225
L19.0420 4.2435
" />
<path d="M19.0420 4.2435
L19.1025 4.3040
" />
<path d="M19.1025 4.3040
L19.2235 4.3644
" />
<path d="M19.2235 4.3644
L19.4654 4.3644
" />
<path d="M19.4654 4.3644
L19.5863 4.3040
" />
<path d="M19.5863 4.3040
L19.6468 4.2435
" />
<path d="M19.6468 4.2435
L19.7073 4.1225
" />
<path d="M19.7073 4.1225
L19.7073 3.8201
" />
<path d="M19.7073 3.8201
L19.6468 3.6992
" />
<path d="M19.6468 3.6992
L19.5863 3.6387
" />
<path d="M19.5863 3.6387
L19.4654 3.5782
" />
<path d="M19.4654 3.5782
L19.2235 3.5782
" />
<path d="M19.2235 3.5782
L19.1025 3.6387
" />
<path d="M19.1025 3.6387
L19.0420 3.6992
" />
<path d="M19.0420 3.6992
L18.9816 3.8201
" />
</g></g>
<g style="fill:#840084; fill-opacity:0.0; 
stroke:#840084; stroke-width:0.1524; stroke-opacity:1; 
stroke-linecap:round; stroke-linejoin:round;">
</g>
<g style="fill:#006464; fill-opacity:0.0; 
stroke:#006464; stroke-width:0.1524; stroke-opacity:1; 
stroke-linecap:round; stroke-linejoin:round;">
</g>
<g style="fill:#006464; fill-opacity:0.0; 
stroke:#006464; stroke-width:0.1588; stroke-opacity:1; 
stroke-linecap:round; stroke-linejoin:round;">
<text x="9.2351" y="2.8769"
textLength="2.6415" font-size="1.6933" lengthAdjust="spacingAndGlyphs"
text-anchor="middle" opacity="0">U?</text>
<g class="stroked-text"><desc>U?</desc>
<path d="M8.3279 1.5511
L8.3279 2.5792
" />
<path d="M8.3279 2.5792
L8.3884 2.7002
" />
<path d="M8.3884 2.7002
L8.4489 2.7607
" />
<path d="M8.4489 2.7607
L8.5698 2.8211
" />
<path d="M8.5698 2.8211
L8.8117 2.8211
" />
<path d="M8.8117 2.8211
L8.9327 2.7607
" />
<path d="M8.9327 2.7607
L8.9932 2.7002
" />
<path d="M8.9932 2.7002
L9.0536 2.5792
" />
<path d="M9.0536 2.5792
L9.0536 1.5511
" />
<path d="M9.8399 2.7002
L9.9003 2.7607
" />
<path d="M9.9003 2.7607
L9.8399 2.8211
" />
<path d="M9.8399 2.8211
L9.7794 2.7607
" />
<path d="M9.7794 2.7607
L9.8399 2.7002
" />
<path d="M9.8399 2.7002
L9.8399 2.8211
" />
<path d="M9.5980 1.6116
L9.7189 1.5511
" />
<path d="M9.7189 1.5511
L10.0213 1.5511
" />
<path d="M10.0213 1.5511
L10.1422 1.6116
" />
<path d="M10.1422 1.6116
L10.2027 1.7326
" />
<path d="M10.2027 1.7326
L10.2027 1.8535
" />
<path d="M10.2027 1.8535
L10.1422 1.9745
" />
<path d="M10.1422 1.9745
L10.0818 2.0349
" />
<path d="M10.0818 2.0349
L9.9608 2.0954
" />
<path d="M9.9608 2.0954
L9.9003 2.1559
" />
<path d="M9.9003 2.1559
L9.8399 2.2768
" />
<path d="M9.8399 2.2768
L9.8399 2.3373
" />
</g><text x="15.5851" y="2.8769"
textLength="5.1814" font-size="1.6933" lengthAdjust="spacingAndGlyphs"
text-anchor="middle" opacity="0">4N25</text>
<g class="stroked-text"><desc>4N25</desc>
<path d="M13.9522 1.9745
L13.9522 2.8211
" />
<path d="M13.6498 1.4907
L13.3475 2.3978
" />
<path d="M13.3475 2.3978
L14.1336 2.3978
" />
<path d="M14.6174 2.8211
L14.6174 1.5511
" />
<path d="M14.6174 1.5511
L15.3431 2.8211
" />
<path d="M15.3431 2.8211
L15.3431 1.5511
" />
<path d="M15.8875 1.6721
L15.9479 1.6116
" />
<path d="M15.9479 1.6116
L16.0689 1.5511
" />
<path d="M16.0689 1.5511
L16.3713 1.5511
" />
<path d="M16.3713 1.5511
L16.4922 1.6116
" />
<path d="M16.4922 1.6116
L16.5527 1.6721
" />
<path d="M16.5527 1.6721
L16.6132 1.7930
" />
<path d="M16.6132 1.7930
L16.6132 1.9140
" />
<path d="M16.6132 1.9140
L16.5527 2.0954
" />
<path d="M16.5527 2.0954
L15.8270 2.8211
" />
<path d="M15.8270 2.8211
L16.6132 2.8211
" />
<path d="M17.7622 1.5511
L17.1574 1.5511
" />
<path d="M17.1574 1.5511
L17.0970 2.1559
" />
<path d="M17.0970 2.1559
L17.1574 2.0954
" />
<path d="M17.1574 2.0954
L17.2784 2.0349
" />
<path d="M17.2784 2.0349
L17.5808 2.0349
" />
<path d="M17.5808 2.0349
L17.7017 2.0954
" />
<path d="M17.7017 2.0954
L17.7622 2.1559
" />
<path d="M17.7622 2.1559
L17.8227 2.2768
" />
<path d="M17.8227 2.2768
L17.8227 2.5792
" />
<path d="M17.8227 2.5792
L17.7622 2.7002
" />
<path d="M17.7622 2.7002
L17.7017 2.7607
" />
<path d="M17.7017 2.7607
L17.5808 2.8211
" />
<path d="M17.5808 2.8211
L17.2784 2.8211
" />
<path d="M17.2784 2.8211
L17.1574 2.7607
" />
<path d="M17.1574 2.7607
L17.0970 2.7002
" />
</g></g>
<g style="fill:#840084; fill-opacity:0.0; 
stroke:#840084; stroke-width:0.1588; stroke-opacity:1; 
stroke-linecap:round; stroke-linejoin:round;">
<text x="22.3281" y="13.0369"
textLength="28.8275" font-size="1.6933" lengthAdjust="spacingAndGlyphs"
text-anchor="middle" opacity="0">Package_DIP:DIP-6_W7.62mm</text>
<g class="stroked-text"><desc>Package_DIP:DIP-6_W7.62mm</desc>
<path d="M8.3204 12.9811
L8.4791 11.7111
" />
<path d="M8.4791 11.7111
L8.9629 11.7111
" />
<path d="M8.9629 11.7111
L9.0763 11.7716
" />
<path d="M9.0763 11.7716
L9.1292 11.8321
" />
<path d="M9.1292 11.8321
L9.1746 11.9530
" />
<path d="M9.1746 11.9530
L9.1519 12.1345
" />
<path d="M9.1519 12.1345
L9.0763 12.2554
" />
<path d="M9.0763 12.2554
L9.0083 12.3159
" />
<path d="M9.0083 12.3159
L8.8798 12.3764
" />
<path d="M8.8798 12.3764
L8.3960 12.3764
" />
<path d="M10.1347 12.9811
L10.2178 12.3159
" />
<path d="M10.2178 12.3159
L10.1725 12.1949
" />
<path d="M10.1725 12.1949
L10.0591 12.1345
" />
<path d="M10.0591 12.1345
L9.8172 12.1345
" />
<path d="M9.8172 12.1345
L9.6886 12.1949
" />
<path d="M10.1422 12.9207
L10.0137 12.9811
" />
<path d="M10.0137 12.9811
L9.7113 12.9811
" />
<path d="M9.7113 12.9811
L9.5979 12.9207
" />
<path d="M9.5979 12.9207
L9.5526 12.7997
" />
<path d="M9.5526 12.7997
L9.5677 12.6787
" />
<path d="M9.5677 12.6787
L9.6433 12.5578
" />
<path d="M9.6433 12.5578
L9.7718 12.4973
" />
<path d="M9.7718 12.4973
L10.0742 12.4973
" />
<path d="M10.0742 12.4973
L10.2027 12.4368
" />
<path d="M11.2912 12.9207
L11.1627 12.9811
" />
<path d="M11.1627 12.9811
L10.9208 12.9811
" />
<path d="M10.9208 12.9811
L10.8074 12.9207
" />
<path d="M10.8074 12.9207
L10.7545 12.8602
" />
<path d="M10.7545 12.8602
L10.7091 12.7392
" />
<path d="M10.7091 12.7392
L10.7545 12.3764
" />
<path d="M10.7545 12.3764
L10.8301 12.2554
" />
<path d="M10.8301 12.2554
L10.8981 12.1949
" />
<path d="M10.8981 12.1949
L11.0266 12.1345
" />
<path d="M11.0266 12.1345
L11.2685 12.1345
" />
<path d="M11.2685 12.1345
L11.3819 12.1949
" />
<path d="M11.8280 12.9811
L11.9867 11.7111
" />
<path d="M12.0094 12.4973
L12.3118 12.9811
" />
<path d="M12.4176 12.1345
L11.8733 12.6183
" />
<path d="M13.4004 12.9811
L13.4835 12.3159
" />
<path d="M13.4835 12.3159
L13.4382 12.1949
" />
<path d="M13.4382 12.1949
L13.3248 12.1345
" />
<path d="M13.3248 12.1345
L13.0829 12.1345
" />
<path d="M13.0829 12.1345
L12.9543 12.1949
" />
<path d="M13.4079 12.9207
L13.2794 12.9811
" />
<path d="M13.2794 12.9811
L12.9770 12.9811
" />
<path d="M12.9770 12.9811
L12.8636 12.9207
" />
<path d="M12.8636 12.9207
L12.8183 12.7997
" />
<path d="M12.8183 12.7997
L12.8334 12.6787
" />
<path d="M12.8334 12.6787
L12.9090 12.5578
" />
<path d="M12.9090 12.5578
L13.0375 12.4973
" />
<path d="M13.0375 12.4973
L13.3399 12.4973
" />
<path d="M13.3399 12.4973
L13.4684 12.4368
" />
<path d="M14.6552 12.1345
L14.5267 13.1626
" />
<path d="M14.5267 13.1626
L14.4511 13.2835
" />
<path d="M14.4511 13.2835
L14.3830 13.3440
" />
<path d="M14.3830 13.3440
L14.2545 13.4045
" />
<path d="M14.2545 13.4045
L14.0731 13.4045
" />
<path d="M14.0731 13.4045
L13.9597 13.3440
" />
<path d="M14.5569 12.9207
L14.4284 12.9811
" />
<path d="M14.4284 12.9811
L14.1865 12.9811
" />
<path d="M14.1865 12.9811
L14.0731 12.9207
" />
<path d="M14.0731 12.9207
L14.0202 12.8602
" />
<path d="M14.0202 12.8602
L13.9748 12.7392
" />
<path d="M13.9748 12.7392
L14.0202 12.3764
" />
<path d="M14.0202 12.3764
L14.0958 12.2554
" />
<path d="M14.0958 12.2554
L14.1638 12.1949
" />
<path d="M14.1638 12.1949
L14.2923 12.1345
" />
<path d="M14.2923 12.1345
L14.5342 12.1345
" />
<path d="M14.5342 12.1345
L14.6476 12.1949
" />
<path d="M15.6454 12.9207
L15.5169 12.9811
" />
<path d="M15.5169 12.9811
L15.2750 12.9811
" />
<path d="M15.2750 12.9811
L15.1616 12.9207
" />
<path d="M15.1616 12.9207
L15.1163 12.7997
" />
<path d="M15.1163 12.7997
L15.1768 12.3159
" />
<path d="M15.1768 12.3159
L15.2523 12.1949
" />
<path d="M15.2523 12.1949
L15.3809 12.1345
" />
<path d="M15.3809 12.1345
L15.6228 12.1345
" />
<path d="M15.6228 12.1345
L15.7362 12.1949
" />
<path d="M15.7362 12.1949
L15.7815 12.3159
" />
<path d="M15.7815 12.3159
L15.7664 12.4368
" />
<path d="M15.7664 12.4368
L15.1465 12.5578
" />
<path d="M15.9252 13.1021
L16.8928 13.1021
" />
<path d="M17.2103 12.9811
L17.3690 11.7111
" />
<path d="M17.3690 11.7111
L17.6714 11.7111
" />
<path d="M17.6714 11.7111
L17.8453 11.7716
" />
<path d="M17.8453 11.7716
L17.9511 11.8926
" />
<path d="M17.9511 11.8926
L17.9965 12.0135
" />
<path d="M17.9965 12.0135
L18.0267 12.2554
" />
<path d="M18.0267 12.2554
L18.0040 12.4368
" />
<path d="M18.0040 12.4368
L17.9133 12.6787
" />
<path d="M17.9133 12.6787
L17.8377 12.7997
" />
<path d="M17.8377 12.7997
L17.7016 12.9207
" />
<path d="M17.7016 12.9207
L17.5127 12.9811
" />
<path d="M17.5127 12.9811
L17.2103 12.9811
" />
<path d="M18.4803 12.9811
L18.6390 11.7111
" />
<path d="M19.0851 12.9811
L19.2438 11.7111
" />
<path d="M19.2438 11.7111
L19.7276 11.7111
" />
<path d="M19.7276 11.7111
L19.8410 11.7716
" />
<path d="M19.8410 11.7716
L19.8939 11.8321
" />
<path d="M19.8939 11.8321
L19.9393 11.9530
" />
<path d="M19.9393 11.9530
L19.9166 12.1345
" />
<path d="M19.9166 12.1345
L19.8410 12.2554
" />
<path d="M19.8410 12.2554
L19.7730 12.3159
" />
<path d="M19.7730 12.3159
L19.6445 12.3764
" />
<path d="M19.6445 12.3764
L19.1607 12.3764
" />
<path d="M20.3702 12.8602
L20.4231 12.9207
" />
<path d="M20.4231 12.9207
L20.3551 12.9811
" />
<path d="M20.3551 12.9811
L20.3022 12.9207
" />
<path d="M20.3022 12.9207
L20.3702 12.8602
" />
<path d="M20.3702 12.8602
L20.3551 12.9811
" />
<path d="M20.4533 12.1949
L20.5063 12.2554
" />
<path d="M20.5063 12.2554
L20.4382 12.3159
" />
<path d="M20.4382 12.3159
L20.3853 12.2554
" />
<path d="M20.3853 12.2554
L20.4533 12.1949
" />
<path d="M20.4533 12.1949
L20.4382 12.3159
" />
<path d="M20.9599 12.9811
L21.1186 11.7111
" />
<path d="M21.1186 11.7111
L21.4210 11.7111
" />
<path d="M21.4210 11.7111
L21.5949 11.7716
" />
<path d="M21.5949 11.7716
L21.7007 11.8926
" />
<path d="M21.7007 11.8926
L21.7461 12.0135
" />
<path d="M21.7461 12.0135
L21.7763 12.2554
" />
<path d="M21.7763 12.2554
L21.7536 12.4368
" />
<path d="M21.7536 12.4368
L21.6629 12.6787
" />
<path d="M21.6629 12.6787
L21.5873 12.7997
" />
<path d="M21.5873 12.7997
L21.4512 12.9207
" />
<path d="M21.4512 12.9207
L21.2623 12.9811
" />
<path d="M21.2623 12.9811
L20.9599 12.9811
" />
<path d="M22.2299 12.9811
L22.3886 11.7111
" />
<path d="M22.8347 12.9811
L22.9934 11.7111
" />
<path d="M22.9934 11.7111
L23.4772 11.7111
" />
<path d="M23.4772 11.7111
L23.5906 11.7716
" />
<path d="M23.5906 11.7716
L23.6435 11.8321
" />
<path d="M23.6435 11.8321
L23.6889 11.9530
" />
<path d="M23.6889 11.9530
L23.6662 12.1345
" />
<path d="M23.6662 12.1345
L23.5906 12.2554
" />
<path d="M23.5906 12.2554
L23.5226 12.3159
" />
<path d="M23.5226 12.3159
L23.3941 12.3764
" />
<path d="M23.3941 12.3764
L22.9103 12.3764
" />
<path d="M24.1651 12.4973
L25.1328 12.4973
" />
<path d="M26.3801 11.7111
L26.1382 11.7111
" />
<path d="M26.1382 11.7111
L26.0097 11.7716
" />
<path d="M26.0097 11.7716
L25.9417 11.8321
" />
<path d="M25.9417 11.8321
L25.7980 12.0135
" />
<path d="M25.7980 12.0135
L25.7073 12.2554
" />
<path d="M25.7073 12.2554
L25.6468 12.7392
" />
<path d="M25.6468 12.7392
L25.6922 12.8602
" />
<path d="M25.6922 12.8602
L25.7451 12.9207
" />
<path d="M25.7451 12.9207
L25.8585 12.9811
" />
<path d="M25.8585 12.9811
L26.1004 12.9811
" />
<path d="M26.1004 12.9811
L26.2289 12.9207
" />
<path d="M26.2289 12.9207
L26.2970 12.8602
" />
<path d="M26.2970 12.8602
L26.3725 12.7392
" />
<path d="M26.3725 12.7392
L26.4103 12.4368
" />
<path d="M26.4103 12.4368
L26.3650 12.3159
" />
<path d="M26.3650 12.3159
L26.3121 12.2554
" />
<path d="M26.3121 12.2554
L26.1987 12.1949
" />
<path d="M26.1987 12.1949
L25.9568 12.1949
" />
<path d="M25.9568 12.1949
L25.8283 12.2554
" />
<path d="M25.8283 12.2554
L25.7602 12.3159
" />
<path d="M25.7602 12.3159
L25.6846 12.4368
" />
<path d="M26.5691 13.1021
L27.5367 13.1021
" />
<path d="M27.8920 11.7111
L28.0356 12.9811
" />
<path d="M28.0356 12.9811
L28.3909 12.0740
" />
<path d="M28.3909 12.0740
L28.5194 12.9811
" />
<path d="M28.5194 12.9811
L28.9805 11.7111
" />
<path d="M29.3434 11.7111
L30.1900 11.7111
" />
<path d="M30.1900 11.7111
L29.4870 12.9811
" />
<path d="M30.5302 12.8602
L30.5831 12.9207
" />
<path d="M30.5831 12.9207
L30.5151 12.9811
" />
<path d="M30.5151 12.9811
L30.4622 12.9207
" />
<path d="M30.4622 12.9207
L30.5302 12.8602
" />
<path d="M30.5302 12.8602
L30.5151 12.9811
" />
<path d="M31.8229 11.7111
L31.5810 11.7111
" />
<path d="M31.5810 11.7111
L31.4525 11.7716
" />
<path d="M31.4525 11.7716
L31.3845 11.8321
" />
<path d="M31.3845 11.8321
L31.2408 12.0135
" />
<path d="M31.2408 12.0135
L31.1501 12.2554
" />
<path d="M31.1501 12.2554
L31.0896 12.7392
" />
<path d="M31.0896 12.7392
L31.1350 12.8602
" />
<path d="M31.1350 12.8602
L31.1879 12.9207
" />
<path d="M31.1879 12.9207
L31.3013 12.9811
" />
<path d="M31.3013 12.9811
L31.5432 12.9811
" />
<path d="M31.5432 12.9811
L31.6717 12.9207
" />
<path d="M31.6717 12.9207
L31.7398 12.8602
" />
<path d="M31.7398 12.8602
L31.8153 12.7392
" />
<path d="M31.8153 12.7392
L31.8531 12.4368
" />
<path d="M31.8531 12.4368
L31.8078 12.3159
" />
<path d="M31.8078 12.3159
L31.7549 12.2554
" />
<path d="M31.7549 12.2554
L31.6415 12.1949
" />
<path d="M31.6415 12.1949
L31.3996 12.1949
" />
<path d="M31.3996 12.1949
L31.2711 12.2554
" />
<path d="M31.2711 12.2554
L31.2030 12.3159
" />
<path d="M31.2030 12.3159
L31.1274 12.4368
" />
<path d="M32.4125 11.8321
L32.4806 11.7716
" />
<path d="M32.4806 11.7716
L32.6091 11.7111
" />
<path d="M32.6091 11.7111
L32.9115 11.7111
" />
<path d="M32.9115 11.7111
L33.0248 11.7716
" />
<path d="M33.0248 11.7716
L33.0778 11.8321
" />
<path d="M33.0778 11.8321
L33.1231 11.9530
" />
<path d="M33.1231 11.9530
L33.1080 12.0740
" />
<path d="M33.1080 12.0740
L33.0248 12.2554
" />
<path d="M33.0248 12.2554
L32.2084 12.9811
" />
<path d="M32.2084 12.9811
L32.9946 12.9811
" />
<path d="M33.5389 12.9811
L33.6447 12.1345
" />
<path d="M33.6296 12.2554
L33.6976 12.1949
" />
<path d="M33.6976 12.1949
L33.8261 12.1345
" />
<path d="M33.8261 12.1345
L34.0076 12.1345
" />
<path d="M34.0076 12.1345
L34.1210 12.1949
" />
<path d="M34.1210 12.1949
L34.1663 12.3159
" />
<path d="M34.1663 12.3159
L34.0832 12.9811
" />
<path d="M34.1663 12.3159
L34.2419 12.1949
" />
<path d="M34.2419 12.1949
L34.3704 12.1345
" />
<path d="M34.3704 12.1345
L34.5518 12.1345
" />
<path d="M34.5518 12.1345
L34.6652 12.1949
" />
<path d="M34.6652 12.1949
L34.7106 12.3159
" />
<path d="M34.7106 12.3159
L34.6274 12.9811
" />
<path d="M35.2322 12.9811
L35.3380 12.1345
" />
<path d="M35.3229 12.2554
L35.3909 12.1949
" />
<path d="M35.3909 12.1949
L35.5194 12.1345
" />
<path d="M35.5194 12.1345
L35.7009 12.1345
" />
<path d="M35.7009 12.1345
L35.8143 12.1949
" />
<path d="M35.8143 12.1949
L35.8596 12.3159
" />
<path d="M35.8596 12.3159
L35.7765 12.9811
" />
<path d="M35.8596 12.3159
L35.9352 12.1949
" />
<path d="M35.9352 12.1949
L36.0637 12.1345
" />
<path d="M36.0637 12.1345
L36.2451 12.1345
" />
<path d="M36.2451 12.1345
L36.3585 12.1949
" />
<path d="M36.3585 12.1949
L36.4039 12.3159
" />
<path d="M36.4039 12.3159
L36.3207 12.9811
" />
</g><text x="36.0561" y="7.9569"
textLength="46.1235" font-size="1.6933" lengthAdjust="spacingAndGlyphs"
text-anchor="middle" opacity="0">https://www.vishay.com/docs/83725/4n25.pdf</text>
<g class="stroked-text"><desc>https://www.vishay.com/docs/83725/4n25.pdf</desc>
<path d="M13.4079 7.9011
L13.4079 6.6311
" />
<path d="M13.9522 7.9011
L13.9522 7.2359
" />
<path d="M13.9522 7.2359
L13.8917 7.1149
" />
<path d="M13.8917 7.1149
L13.7708 7.0545
" />
<path d="M13.7708 7.0545
L13.5894 7.0545
" />
<path d="M13.5894 7.0545
L13.4684 7.1149
" />
<path d="M13.4684 7.1149
L13.4079 7.1754
" />
<path d="M14.3755 7.0545
L14.8593 7.0545
" />
<path d="M14.5569 6.6311
L14.5569 7.7197
" />
<path d="M14.5569 7.7197
L14.6174 7.8407
" />
<path d="M14.6174 7.8407
L14.7384 7.9011
" />
<path d="M14.7384 7.9011
L14.8593 7.9011
" />
<path d="M15.1012 7.0545
L15.5850 7.0545
" />
<path d="M15.2826 6.6311
L15.2826 7.7197
" />
<path d="M15.2826 7.7197
L15.3431 7.8407
" />
<path d="M15.3431 7.8407
L15.4641 7.9011
" />
<path d="M15.4641 7.9011
L15.5850 7.9011
" />
<path d="M16.0083 7.0545
L16.0083 8.3245
" />
<path d="M16.0083 7.1149
L16.1293 7.0545
" />
<path d="M16.1293 7.0545
L16.3712 7.0545
" />
<path d="M16.3712 7.0545
L16.4921 7.1149
" />
<path d="M16.4921 7.1149
L16.5526 7.1754
" />
<path d="M16.5526 7.1754
L16.6131 7.2964
" />
<path d="M16.6131 7.2964
L16.6131 7.6592
" />
<path d="M16.6131 7.6592
L16.5526 7.7802
" />
<path d="M16.5526 7.7802
L16.4921 7.8407
" />
<path d="M16.4921 7.8407
L16.3712 7.9011
" />
<path d="M16.3712 7.9011
L16.1293 7.9011
" />
<path d="M16.1293 7.9011
L16.0083 7.8407
" />
<path d="M17.0969 7.8407
L17.2178 7.9011
" />
<path d="M17.2178 7.9011
L17.4597 7.9011
" />
<path d="M17.4597 7.9011
L17.5807 7.8407
" />
<path d="M17.5807 7.8407
L17.6411 7.7197
" />
<path d="M17.6411 7.7197
L17.6411 7.6592
" />
<path d="M17.6411 7.6592
L17.5807 7.5383
" />
<path d="M17.5807 7.5383
L17.4597 7.4778
" />
<path d="M17.4597 7.4778
L17.2783 7.4778
" />
<path d="M17.2783 7.4778
L17.1573 7.4173
" />
<path d="M17.1573 7.4173
L17.0969 7.2964
" />
<path d="M17.0969 7.2964
L17.0969 7.2359
" />
<path d="M17.0969 7.2359
L17.1573 7.1149
" />
<path d="M17.1573 7.1149
L17.2783 7.0545
" />
<path d="M17.2783 7.0545
L17.4597 7.0545
" />
<path d="M17.4597 7.0545
L17.5807 7.1149
" />
<path d="M18.1854 7.7802
L18.2459 7.8407
" />
<path d="M18.2459 7.8407
L18.1854 7.9011
" />
<path d="M18.1854 7.9011
L18.1250 7.8407
" />
<path d="M18.1250 7.8407
L18.1854 7.7802
" />
<path d="M18.1854 7.7802
L18.1854 7.9011
" />
<path d="M18.1854 7.1149
L18.2459 7.1754
" />
<path d="M18.2459 7.1754
L18.1854 7.2359
" />
<path d="M18.1854 7.2359
L18.1250 7.1754
" />
<path d="M18.1250 7.1754
L18.1854 7.1149
" />
<path d="M18.1854 7.1149
L18.1854 7.2359
" />
<path d="M19.6974 6.5707
L18.6088 8.2035
" />
<path d="M21.0279 6.5707
L19.9393 8.2035
" />
<path d="M21.3303 7.0545
L21.5722 7.9011
" />
<path d="M21.5722 7.9011
L21.8141 7.2964
" />
<path d="M21.8141 7.2964
L22.0560 7.9011
" />
<path d="M22.0560 7.9011
L22.2979 7.0545
" />
<path d="M22.6608 7.0545
L22.9027 7.9011
" />
<path d="M22.9027 7.9011
L23.1446 7.2964
" />
<path d="M23.1446 7.2964
L23.3865 7.9011
" />
<path d="M23.3865 7.9011
L23.6284 7.0545
" />
<path d="M23.9913 7.0545
L24.2332 7.9011
" />
<path d="M24.2332 7.9011
L24.4751 7.2964
" />
<path d="M24.4751 7.2964
L24.7170 7.9011
" />
<path d="M24.7170 7.9011
L24.9589 7.0545
" />
<path d="M25.4427 7.7802
L25.5032 7.8407
" />
<path d="M25.5032 7.8407
L25.4427 7.9011
" />
<path d="M25.4427 7.9011
L25.3823 7.8407
" />
<path d="M25.3823 7.8407
L25.4427 7.7802
" />
<path d="M25.4427 7.7802
L25.4427 7.9011
" />
<path d="M25.9266 7.0545
L26.2290 7.9011
" />
<path d="M26.2290 7.9011
L26.5313 7.0545
" />
<path d="M27.0151 7.9011
L27.0151 7.0545
" />
<path d="M27.0151 6.6311
L26.9547 6.6916
" />
<path d="M26.9547 6.6916
L27.0151 6.7521
" />
<path d="M27.0151 6.7521
L27.0756 6.6916
" />
<path d="M27.0756 6.6916
L27.0151 6.6311
" />
<path d="M27.0151 6.6311
L27.0151 6.7521
" />
<path d="M27.5595 7.8407
L27.6804 7.9011
" />
<path d="M27.6804 7.9011
L27.9223 7.9011
" />
<path d="M27.9223 7.9011
L28.0433 7.8407
" />
<path d="M28.0433 7.8407
L28.1037 7.7197
" />
<path d="M28.1037 7.7197
L28.1037 7.6592
" />
<path d="M28.1037 7.6592
L28.0433 7.5383
" />
<path d="M28.0433 7.5383
L27.9223 7.4778
" />
<path d="M27.9223 7.4778
L27.7409 7.4778
" />
<path d="M27.7409 7.4778
L27.6199 7.4173
" />
<path d="M27.6199 7.4173
L27.5595 7.2964
" />
<path d="M27.5595 7.2964
L27.5595 7.2359
" />
<path d="M27.5595 7.2359
L27.6199 7.1149
" />
<path d="M27.6199 7.1149
L27.7409 7.0545
" />
<path d="M27.7409 7.0545
L27.9223 7.0545
" />
<path d="M27.9223 7.0545
L28.0433 7.1149
" />
<path d="M28.6480 7.9011
L28.6480 6.6311
" />
<path d="M29.1923 7.9011
L29.1923 7.2359
" />
<path d="M29.1923 7.2359
L29.1318 7.1149
" />
<path d="M29.1318 7.1149
L29.0109 7.0545
" />
<path d="M29.0109 7.0545
L28.8295 7.0545
" />
<path d="M28.8295 7.0545
L28.7085 7.1149
" />
<path d="M28.7085 7.1149
L28.6480 7.1754
" />
<path d="M30.3413 7.9011
L30.3413 7.2359
" />
<path d="M30.3413 7.2359
L30.2808 7.1149
" />
<path d="M30.2808 7.1149
L30.1599 7.0545
" />
<path d="M30.1599 7.0545
L29.9180 7.0545
" />
<path d="M29.9180 7.0545
L29.7970 7.1149
" />
<path d="M30.3413 7.8407
L30.2204 7.9011
" />
<path d="M30.2204 7.9011
L29.9180 7.9011
" />
<path d="M29.9180 7.9011
L29.7970 7.8407
" />
<path d="M29.7970 7.8407
L29.7366 7.7197
" />
<path d="M29.7366 7.7197
L29.7366 7.5987
" />
<path d="M29.7366 7.5987
L29.7970 7.4778
" />
<path d="M29.7970 7.4778
L29.9180 7.4173
" />
<path d="M29.9180 7.4173
L30.2204 7.4173
" />
<path d="M30.2204 7.4173
L30.3413 7.3568
" />
<path d="M30.8251 7.0545
L31.1275 7.9011
" />
<path d="M31.4298 7.0545
L31.1275 7.9011
" />
<path d="M31.1275 7.9011
L31.0065 8.2035
" />
<path d="M31.0065 8.2035
L30.9460 8.2640
" />
<path d="M30.9460 8.2640
L30.8251 8.3245
" />
<path d="M31.9136 7.7802
L31.9741 7.8407
" />
<path d="M31.9741 7.8407
L31.9136 7.9011
" />
<path d="M31.9136 7.9011
L31.8532 7.8407
" />
<path d="M31.8532 7.8407
L31.9136 7.7802
" />
<path d="M31.9136 7.7802
L31.9136 7.9011
" />
<path d="M33.0627 7.8407
L32.9418 7.9011
" />
<path d="M32.9418 7.9011
L32.6999 7.9011
" />
<path d="M32.6999 7.9011
L32.5789 7.8407
" />
<path d="M32.5789 7.8407
L32.5184 7.7802
" />
<path d="M32.5184 7.7802
L32.4580 7.6592
" />
<path d="M32.4580 7.6592
L32.4580 7.2964
" />
<path d="M32.4580 7.2964
L32.5184 7.1754
" />
<path d="M32.5184 7.1754
L32.5789 7.1149
" />
<path d="M32.5789 7.1149
L32.6999 7.0545
" />
<path d="M32.6999 7.0545
L32.9418 7.0545
" />
<path d="M32.9418 7.0545
L33.0627 7.1149
" />
<path d="M33.7885 7.9011
L33.6675 7.8407
" />
<path d="M33.6675 7.8407
L33.6070 7.7802
" />
<path d="M33.6070 7.7802
L33.5466 7.6592
" />
<path d="M33.5466 7.6592
L33.5466 7.2964
" />
<path d="M33.5466 7.2964
L33.6070 7.1754
" />
<path d="M33.6070 7.1754
L33.6675 7.1149
" />
<path d="M33.6675 7.1149
L33.7885 7.0545
" />
<path d="M33.7885 7.0545
L33.9699 7.0545
" />
<path d="M33.9699 7.0545
L34.0908 7.1149
" />
<path d="M34.0908 7.1149
L34.1513 7.1754
" />
<path d="M34.1513 7.1754
L34.2118 7.2964
" />
<path d="M34.2118 7.2964
L34.2118 7.6592
" />
<path d="M34.2118 7.6592
L34.1513 7.7802
" />
<path d="M34.1513 7.7802
L34.0908 7.8407
" />
<path d="M34.0908 7.8407
L33.9699 7.9011
" />
<path d="M33.9699 7.9011
L33.7885 7.9011
" />
<path d="M34.7560 7.9011
L34.7560 7.0545
" />
<path d="M34.7560 7.1754
L34.8165 7.1149
" />
<path d="M34.8165 7.1149
L34.9375 7.0545
" />
<path d="M34.9375 7.0545
L35.1189 7.0545
" />
<path d="M35.1189 7.0545
L35.2398 7.1149
" />
<path d="M35.2398 7.1149
L35.3003 7.2359
" />
<path d="M35.3003 7.2359
L35.3003 7.9011
" />
<path d="M35.3003 7.2359
L35.3608 7.1149
" />
<path d="M35.3608 7.1149
L35.4817 7.0545
" />
<path d="M35.4817 7.0545
L35.6632 7.0545
" />
<path d="M35.6632 7.0545
L35.7841 7.1149
" />
<path d="M35.7841 7.1149
L35.8446 7.2359
" />
<path d="M35.8446 7.2359
L35.8446 7.9011
" />
<path d="M37.3565 6.5707
L36.2679 8.2035
" />
<path d="M38.3241 7.9011
L38.3241 6.6311
" />
<path d="M38.3241 7.8407
L38.2032 7.9011
" />
<path d="M38.2032 7.9011
L37.9613 7.9011
" />
<path d="M37.9613 7.9011
L37.8403 7.8407
" />
<path d="M37.8403 7.8407
L37.7798 7.7802
" />
<path d="M37.7798 7.7802
L37.7194 7.6592
" />
<path d="M37.7194 7.6592
L37.7194 7.2964
" />
<path d="M37.7194 7.2964
L37.7798 7.1754
" />
<path d="M37.7798 7.1754
L37.8403 7.1149
" />
<path d="M37.8403 7.1149
L37.9613 7.0545
" />
<path d="M37.9613 7.0545
L38.2032 7.0545
" />
<path d="M38.2032 7.0545
L38.3241 7.1149
" />
<path d="M39.1103 7.9011
L38.9893 7.8407
" />
<path d="M38.9893 7.8407
L38.9288 7.7802
" />
<path d="M38.9288 7.7802
L38.8684 7.6592
" />
<path d="M38.8684 7.6592
L38.8684 7.2964
" />
<path d="M38.8684 7.2964
L38.9288 7.1754
" />
<path d="M38.9288 7.1754
L38.9893 7.1149
" />
<path d="M38.9893 7.1149
L39.1103 7.0545
" />
<path d="M39.1103 7.0545
L39.2917 7.0545
" />
<path d="M39.2917 7.0545
L39.4126 7.1149
" />
<path d="M39.4126 7.1149
L39.4731 7.1754
" />
<path d="M39.4731 7.1754
L39.5336 7.2964
" />
<path d="M39.5336 7.2964
L39.5336 7.6592
" />
<path d="M39.5336 7.6592
L39.4731 7.7802
" />
<path d="M39.4731 7.7802
L39.4126 7.8407
" />
<path d="M39.4126 7.8407
L39.2917 7.9011
" />
<path d="M39.2917 7.9011
L39.1103 7.9011
" />
<path d="M40.6221 7.8407
L40.5012 7.9011
" />
<path d="M40.5012 7.9011
L40.2593 7.9011
" />
<path d="M40.2593 7.9011
L40.1383 7.8407
" />
<path d="M40.1383 7.8407
L40.0778 7.7802
" />
<path d="M40.0778 7.7802
L40.0174 7.6592
" />
<path d="M40.0174 7.6592
L40.0174 7.2964
" />
<path d="M40.0174 7.2964
L40.0778 7.1754
" />
<path d="M40.0778 7.1754
L40.1383 7.1149
" />
<path d="M40.1383 7.1149
L40.2593 7.0545
" />
<path d="M40.2593 7.0545
L40.5012 7.0545
" />
<path d="M40.5012 7.0545
L40.6221 7.1149
" />
<path d="M41.1060 7.8407
L41.2269 7.9011
" />
<path d="M41.2269 7.9011
L41.4688 7.9011
" />
<path d="M41.4688 7.9011
L41.5898 7.8407
" />
<path d="M41.5898 7.8407
L41.6502 7.7197
" />
<path d="M41.6502 7.7197
L41.6502 7.6592
" />
<path d="M41.6502 7.6592
L41.5898 7.5383
" />
<path d="M41.5898 7.5383
L41.4688 7.4778
" />
<path d="M41.4688 7.4778
L41.2874 7.4778
" />
<path d="M41.2874 7.4778
L41.1664 7.4173
" />
<path d="M41.1664 7.4173
L41.1060 7.2964
" />
<path d="M41.1060 7.2964
L41.1060 7.2359
" />
<path d="M41.1060 7.2359
L41.1664 7.1149
" />
<path d="M41.1664 7.1149
L41.2874 7.0545
" />
<path d="M41.2874 7.0545
L41.4688 7.0545
" />
<path d="M41.4688 7.0545
L41.5898 7.1149
" />
<path d="M43.1017 6.5707
L42.0131 8.2035
" />
<path d="M43.7065 7.1754
L43.5855 7.1149
" />
<path d="M43.5855 7.1149
L43.5250 7.0545
" />
<path d="M43.5250 7.0545
L43.4646 6.9335
" />
<path d="M43.4646 6.9335
L43.4646 6.8730
" />
<path d="M43.4646 6.8730
L43.5250 6.7521
" />
<path d="M43.5250 6.7521
L43.5855 6.6916
" />
<path d="M43.5855 6.6916
L43.7065 6.6311
" />
<path d="M43.7065 6.6311
L43.9484 6.6311
" />
<path d="M43.9484 6.6311
L44.0693 6.6916
" />
<path d="M44.0693 6.6916
L44.1298 6.7521
" />
<path d="M44.1298 6.7521
L44.1903 6.8730
" />
<path d="M44.1903 6.8730
L44.1903 6.9335
" />
<path d="M44.1903 6.9335
L44.1298 7.0545
" />
<path d="M44.1298 7.0545
L44.0693 7.1149
" />
<path d="M44.0693 7.1149
L43.9484 7.1754
" />
<path d="M43.9484 7.1754
L43.7065 7.1754
" />
<path d="M43.7065 7.1754
L43.5855 7.2359
" />
<path d="M43.5855 7.2359
L43.5250 7.2964
" />
<path d="M43.5250 7.2964
L43.4646 7.4173
" />
<path d="M43.4646 7.4173
L43.4646 7.6592
" />
<path d="M43.4646 7.6592
L43.5250 7.7802
" />
<path d="M43.5250 7.7802
L43.5855 7.8407
" />
<path d="M43.5855 7.8407
L43.7065 7.9011
" />
<path d="M43.7065 7.9011
L43.9484 7.9011
" />
<path d="M43.9484 7.9011
L44.0693 7.8407
" />
<path d="M44.0693 7.8407
L44.1298 7.7802
" />
<path d="M44.1298 7.7802
L44.1903 7.6592
" />
<path d="M44.1903 7.6592
L44.1903 7.4173
" />
<path d="M44.1903 7.4173
L44.1298 7.2964
" />
<path d="M44.1298 7.2964
L44.0693 7.2359
" />
<path d="M44.0693 7.2359
L43.9484 7.1754
" />
<path d="M44.6136 6.6311
L45.3998 6.6311
" />
<path d="M45.3998 6.6311
L44.9764 7.1149
" />
<path d="M44.9764 7.1149
L45.1579 7.1149
" />
<path d="M45.1579 7.1149
L45.2788 7.1754
" />
<path d="M45.2788 7.1754
L45.3393 7.2359
" />
<path d="M45.3393 7.2359
L45.3998 7.3568
" />
<path d="M45.3998 7.3568
L45.3998 7.6592
" />
<path d="M45.3998 7.6592
L45.3393 7.7802
" />
<path d="M45.3393 7.7802
L45.2788 7.8407
" />
<path d="M45.2788 7.8407
L45.1579 7.9011
" />
<path d="M45.1579 7.9011
L44.7950 7.9011
" />
<path d="M44.7950 7.9011
L44.6741 7.8407
" />
<path d="M44.6741 7.8407
L44.6136 7.7802
" />
<path d="M45.8231 6.6311
L46.6697 6.6311
" />
<path d="M46.6697 6.6311
L46.1255 7.9011
" />
<path d="M47.0931 6.7521
L47.1535 6.6916
" />
<path d="M47.1535 6.6916
L47.2745 6.6311
" />
<path d="M47.2745 6.6311
L47.5769 6.6311
" />
<path d="M47.5769 6.6311
L47.6978 6.6916
" />
<path d="M47.6978 6.6916
L47.7583 6.7521
" />
<path d="M47.7583 6.7521
L47.8188 6.8730
" />
<path d="M47.8188 6.8730
L47.8188 6.9940
" />
<path d="M47.8188 6.9940
L47.7583 7.1754
" />
<path d="M47.7583 7.1754
L47.0326 7.9011
" />
<path d="M47.0326 7.9011
L47.8188 7.9011
" />
<path d="M48.9678 6.6311
L48.3630 6.6311
" />
<path d="M48.3630 6.6311
L48.3026 7.2359
" />
<path d="M48.3026 7.2359
L48.3630 7.1754
" />
<path d="M48.3630 7.1754
L48.4840 7.1149
" />
<path d="M48.4840 7.1149
L48.7864 7.1149
" />
<path d="M48.7864 7.1149
L48.9073 7.1754
" />
<path d="M48.9073 7.1754
L48.9678 7.2359
" />
<path d="M48.9678 7.2359
L49.0283 7.3568
" />
<path d="M49.0283 7.3568
L49.0283 7.6592
" />
<path d="M49.0283 7.6592
L48.9678 7.7802
" />
<path d="M48.9678 7.7802
L48.9073 7.8407
" />
<path d="M48.9073 7.8407
L48.7864 7.9011
" />
<path d="M48.7864 7.9011
L48.4840 7.9011
" />
<path d="M48.4840 7.9011
L48.3630 7.8407
" />
<path d="M48.3630 7.8407
L48.3026 7.7802
" />
<path d="M50.4797 6.5707
L49.3911 8.2035
" />
<path d="M51.4473 7.0545
L51.4473 7.9011
" />
<path d="M51.1449 6.5707
L50.8426 7.4778
" />
<path d="M50.8426 7.4778
L51.6287 7.4778
" />
<path d="M52.1125 7.0545
L52.1125 7.9011
" />
<path d="M52.1125 7.1754
L52.1730 7.1149
" />
<path d="M52.1730 7.1149
L52.2940 7.0545
" />
<path d="M52.2940 7.0545
L52.4754 7.0545
" />
<path d="M52.4754 7.0545
L52.5963 7.1149
" />
<path d="M52.5963 7.1149
L52.6568 7.2359
" />
<path d="M52.6568 7.2359
L52.6568 7.9011
" />
<path d="M53.2011 6.7521
L53.2615 6.6916
" />
<path d="M53.2615 6.6916
L53.3825 6.6311
" />
<path d="M53.3825 6.6311
L53.6849 6.6311
" />
<path d="M53.6849 6.6311
L53.8058 6.6916
" />
<path d="M53.8058 6.6916
L53.8663 6.7521
" />
<path d="M53.8663 6.7521
L53.9268 6.8730
" />
<path d="M53.9268 6.8730
L53.9268 6.9940
" />
<path d="M53.9268 6.9940
L53.8663 7.1754
" />
<path d="M53.8663 7.1754
L53.1406 7.9011
" />
<path d="M53.1406 7.9011
L53.9268 7.9011
" />
<path d="M55.0758 6.6311
L54.4710 6.6311
" />
<path d="M54.4710 6.6311
L54.4106 7.2359
" />
<path d="M54.4106 7.2359
L54.4710 7.1754
" />
<path d="M54.4710 7.1754
L54.5920 7.1149
" />
<path d="M54.5920 7.1149
L54.8944 7.1149
" />
<path d="M54.8944 7.1149
L55.0153 7.1754
" />
<path d="M55.0153 7.1754
L55.0758 7.2359
" />
<path d="M55.0758 7.2359
L55.1363 7.3568
" />
<path d="M55.1363 7.3568
L55.1363 7.6592
" />
<path d="M55.1363 7.6592
L55.0758 7.7802
" />
<path d="M55.0758 7.7802
L55.0153 7.8407
" />
<path d="M55.0153 7.8407
L54.8944 7.9011
" />
<path d="M54.8944 7.9011
L54.5920 7.9011
" />
<path d="M54.5920 7.9011
L54.4710 7.8407
" />
<path d="M54.4710 7.8407
L54.4106 7.7802
" />
<path d="M55.6805 7.7802
L55.7410 7.8407
" />
<path d="M55.7410 7.8407
L55.6805 7.9011
" />
<path d="M55.6805 7.9011
L55.6201 7.8407
" />
<path d="M55.6201 7.8407
L55.6805 7.7802
" />
<path d="M55.6805 7.7802
L55.6805 7.9011
" />
<path d="M56.2853 7.0545
L56.2853 8.3245
" />
<path d="M56.2853 7.1149
L56.4063 7.0545
" />
<path d="M56.4063 7.0545
L56.6482 7.0545
" />
<path d="M56.6482 7.0545
L56.7691 7.1149
" />
<path d="M56.7691 7.1149
L56.8296 7.1754
" />
<path d="M56.8296 7.1754
L56.8901 7.2964
" />
<path d="M56.8901 7.2964
L56.8901 7.6592
" />
<path d="M56.8901 7.6592
L56.8296 7.7802
" />
<path d="M56.8296 7.7802
L56.7691 7.8407
" />
<path d="M56.7691 7.8407
L56.6482 7.9011
" />
<path d="M56.6482 7.9011
L56.4063 7.9011
" />
<path d="M56.4063 7.9011
L56.2853 7.8407
" />
<path d="M57.9786 7.9011
L57.9786 6.6311
" />
<path d="M57.9786 7.8407
L57.8577 7.9011
" />
<path d="M57.8577 7.9011
L57.6158 7.9011
" />
<path d="M57.6158 7.9011
L57.4948 7.8407
" />
<path d="M57.4948 7.8407
L57.4343 7.7802
" />
<path d="M57.4343 7.7802
L57.3739 7.6592
" />
<path d="M57.3739 7.6592
L57.3739 7.2964
" />
<path d="M57.3739 7.2964
L57.4343 7.1754
" />
<path d="M57.4343 7.1754
L57.4948 7.1149
" />
<path d="M57.4948 7.1149
L57.6158 7.0545
" />
<path d="M57.6158 7.0545
L57.8577 7.0545
" />
<path d="M57.8577 7.0545
L57.9786 7.1149
" />
<path d="M58.4019 7.0545
L58.8857 7.0545
" />
<path d="M58.5833 7.9011
L58.5833 6.8126
" />
<path d="M58.5833 6.8126
L58.6438 6.6916
" />
<path d="M58.6438 6.6916
L58.7648 6.6311
" />
<path d="M58.7648 6.6311
L58.8857 6.6311
" />
</g></g> 
</svg>
