<?xml version="1.0" standalone="no"?>
 <!DOCTYPE svg PUBLIC "-//W3C//DTD SVG 1.1//EN" 
 "http://www.w3.org/Graphics/SVG/1.1/DTD/svg11.dtd"> 
<svg
  xmlns:svg="http://www.w3.org/2000/svg"
  xmlns="http://www.w3.org/2000/svg"
  xmlns:xlink="http://www.w3.org/1999/xlink"
  version="1.1"
  width="83.6930mm" height="27.1272mm" viewBox="0.0000 0.0000 83.6930 27.1272">
<title>SVG Image created as working.svg date 2023/08/08 16:59:05 </title>
  <desc>Image generated by Eeschema-SVG </desc>
<g style="fill:#000000; fill-opacity:1.0000;stroke:#000000; stroke-opacity:1.0000;
stroke-linecap:round; stroke-linejoin:round;"
 transform="translate(0 0) scale(1 1)">
</g>
<g style="fill:#840000; fill-opacity:0.0; 
stroke:#840000; stroke-width:0.0000; stroke-opacity:1; 
stroke-linecap:round; stroke-linejoin:round;">
</g>
<g style="fill:#FFFFC2; fill-opacity:0.0; 
stroke:#FFFFC2; stroke-width:0.0000; stroke-opacity:1; 
stroke-linecap:round; stroke-linejoin:round;">
</g>
<g style="fill:#FFFFC2; fill-opacity:1.0000; 
stroke:#FFFFC2; stroke-width:0.0000; stroke-opacity:1; 
stroke-linecap:round; stroke-linejoin:round;">
<rect x="36.446000" y="4.801200" width="15.240000" height="15.240000" rx="0.000000" />
</g>
<g style="fill:#840084; fill-opacity:1.0000; 
stroke:#840084; stroke-width:0.0000; stroke-opacity:1; 
stroke-linecap:round; stroke-linejoin:round;">
</g>
<g style="fill:#840000; fill-opacity:1.0000; 
stroke:#840000; stroke-width:0.0000; stroke-opacity:1; 
stroke-linecap:round; stroke-linejoin:round;">
</g>
<g style="fill:#840000; fill-opacity:0.0; 
stroke:#840000; stroke-width:0.2540; stroke-opacity:1; 
stroke-linecap:round; stroke-linejoin:round;">
<rect x="36.446000" y="4.801200" width="15.240000" height="15.240000" rx="0.000000" />
</g>
<g style="fill:#840000; fill-opacity:0.0; 
stroke:#840000; stroke-width:0.1524; stroke-opacity:1; 
stroke-linecap:round; stroke-linejoin:round;">
<path style="fill:#840000; fill-opacity:0.0; 
stroke:#840000; stroke-width:0.1524; stroke-opacity:1; 
stroke-linecap:round; stroke-linejoin:round;fill:none"
d="M 42.7960,13.1832
43.0500,13.1832
43.0500,11.6592
43.5580,11.6592
43.5580,13.1832
44.0660,13.1832
44.0660,11.6592
44.5740,11.6592
44.5740,13.1832
44.8280,13.1832
" /> 
<path d="M36.4460 9.8812
L33.9060 9.8812
" />
</g>
<g style="fill:#006464; fill-opacity:0.0; 
stroke:#006464; stroke-width:0.1524; stroke-opacity:1; 
stroke-linecap:round; stroke-linejoin:round;">
<text x="36.9540" y="10.5162"
textLength="2.6827" font-size="1.6933" lengthAdjust="spacingAndGlyphs"
text-anchor="start" opacity="0">OE</text>
<g class="stroked-text"><desc>OE</desc>
<path d="M37.5984 9.1907
L37.8403 9.1907
" />
<path d="M37.8403 9.1907
L37.9613 9.2512
" />
<path d="M37.9613 9.2512
L38.0822 9.3722
" />
<path d="M38.0822 9.3722
L38.1427 9.6141
" />
<path d="M38.1427 9.6141
L38.1427 10.0374
" />
<path d="M38.1427 10.0374
L38.0822 10.2793
" />
<path d="M38.0822 10.2793
L37.9613 10.4003
" />
<path d="M37.9613 10.4003
L37.8403 10.4607
" />
<path d="M37.8403 10.4607
L37.5984 10.4607
" />
<path d="M37.5984 10.4607
L37.4775 10.4003
" />
<path d="M37.4775 10.4003
L37.3565 10.2793
" />
<path d="M37.3565 10.2793
L37.2961 10.0374
" />
<path d="M37.2961 10.0374
L37.2961 9.6141
" />
<path d="M37.2961 9.6141
L37.3565 9.3722
" />
<path d="M37.3565 9.3722
L37.4775 9.2512
" />
<path d="M37.4775 9.2512
L37.5984 9.1907
" />
<path d="M38.6870 9.7955
L39.1104 9.7955
" />
<path d="M39.2918 10.4607
L38.6870 10.4607
" />
<path d="M38.6870 10.4607
L38.6870 9.1907
" />
<path d="M38.6870 9.1907
L39.2918 9.1907
" />
</g></g>
<g style="fill:#A90000; fill-opacity:0.0; 
stroke:#A90000; stroke-width:0.1524; stroke-opacity:1; 
stroke-linecap:round; stroke-linejoin:round;">
<text x="35.1760" y="9.6272"
textLength="1.4127" font-size="1.6933" lengthAdjust="spacingAndGlyphs"
text-anchor="middle" opacity="0">1</text>
<g class="stroked-text"><desc>1</desc>
<path d="M35.5389 9.4637
L34.8132 9.4637
" />
<path d="M35.1760 9.4637
L35.1760 8.1937
" />
<path d="M35.1760 8.1937
L35.0551 8.3752
" />
<path d="M35.0551 8.3752
L34.9341 8.4961
" />
<path d="M34.9341 8.4961
L34.8132 8.5566
" />
</g></g>
<g style="fill:#840000; fill-opacity:0.0; 
stroke:#840000; stroke-width:0.1524; stroke-opacity:1; 
stroke-linecap:round; stroke-linejoin:round;">
<path d="M36.4460 14.9612
L33.9060 14.9612
" />
</g>
<g style="fill:#006464; fill-opacity:0.0; 
stroke:#006464; stroke-width:0.1524; stroke-opacity:1; 
stroke-linecap:round; stroke-linejoin:round;">
<text x="36.9540" y="15.5962"
textLength="2.5013" font-size="1.6933" lengthAdjust="spacingAndGlyphs"
text-anchor="start" opacity="0">FS</text>
<g class="stroked-text"><desc>FS</desc>
<path d="M37.7799 14.8755
L37.3565 14.8755
" />
<path d="M37.3565 15.5407
L37.3565 14.2707
" />
<path d="M37.3565 14.2707
L37.9613 14.2707
" />
<path d="M38.3847 15.4803
L38.5661 15.5407
" />
<path d="M38.5661 15.5407
L38.8685 15.5407
" />
<path d="M38.8685 15.5407
L38.9894 15.4803
" />
<path d="M38.9894 15.4803
L39.0499 15.4198
" />
<path d="M39.0499 15.4198
L39.1104 15.2988
" />
<path d="M39.1104 15.2988
L39.1104 15.1779
" />
<path d="M39.1104 15.1779
L39.0499 15.0569
" />
<path d="M39.0499 15.0569
L38.9894 14.9964
" />
<path d="M38.9894 14.9964
L38.8685 14.9360
" />
<path d="M38.8685 14.9360
L38.6266 14.8755
" />
<path d="M38.6266 14.8755
L38.5056 14.8150
" />
<path d="M38.5056 14.8150
L38.4451 14.7545
" />
<path d="M38.4451 14.7545
L38.3847 14.6336
" />
<path d="M38.3847 14.6336
L38.3847 14.5126
" />
<path d="M38.3847 14.5126
L38.4451 14.3917
" />
<path d="M38.4451 14.3917
L38.5056 14.3312
" />
<path d="M38.5056 14.3312
L38.6266 14.2707
" />
<path d="M38.6266 14.2707
L38.9289 14.2707
" />
<path d="M38.9289 14.2707
L39.1104 14.3312
" />
</g></g>
<g style="fill:#A90000; fill-opacity:0.0; 
stroke:#A90000; stroke-width:0.1524; stroke-opacity:1; 
stroke-linecap:round; stroke-linejoin:round;">
<text x="35.1760" y="14.7072"
textLength="1.4127" font-size="1.6933" lengthAdjust="spacingAndGlyphs"
text-anchor="middle" opacity="0">2</text>
<g class="stroked-text"><desc>2</desc>
<path d="M34.8132 13.3947
L34.8736 13.3342
" />
<path d="M34.8736 13.3342
L34.9946 13.2737
" />
<path d="M34.9946 13.2737
L35.2970 13.2737
" />
<path d="M35.2970 13.2737
L35.4179 13.3342
" />
<path d="M35.4179 13.3342
L35.4784 13.3947
" />
<path d="M35.4784 13.3947
L35.5389 13.5156
" />
<path d="M35.5389 13.5156
L35.5389 13.6366
" />
<path d="M35.5389 13.6366
L35.4784 13.8180
" />
<path d="M35.4784 13.8180
L34.7527 14.5437
" />
<path d="M34.7527 14.5437
L35.5389 14.5437
" />
</g></g>
<g style="fill:#840000; fill-opacity:0.0; 
stroke:#840000; stroke-width:0.1524; stroke-opacity:1; 
stroke-linecap:round; stroke-linejoin:round;">
<path d="M44.0660 20.0412
L44.0660 22.5812
" />
</g>
<g style="fill:#006464; fill-opacity:0.0; 
stroke:#006464; stroke-width:0.1524; stroke-opacity:1; 
stroke-linecap:round; stroke-linejoin:round;">
<g transform="rotate(-90.000000 44.0660 19.5332)">
<text x="44.0660" y="20.1682"
textLength="4.0737" font-size="1.6933" lengthAdjust="spacingAndGlyphs"
text-anchor="start" opacity="0">GND</text>
</g>
<g class="stroked-text"><desc>GND</desc>
<path d="M43.4360 18.4653
L43.3755 18.5863
" />
<path d="M43.3755 18.5863
L43.3755 18.7677
" />
<path d="M43.3755 18.7677
L43.4360 18.9491
" />
<path d="M43.4360 18.9491
L43.5570 19.0701
" />
<path d="M43.5570 19.0701
L43.6779 19.1306
" />
<path d="M43.6779 19.1306
L43.9198 19.1910
" />
<path d="M43.9198 19.1910
L44.1012 19.1910
" />
<path d="M44.1012 19.1910
L44.3431 19.1306
" />
<path d="M44.3431 19.1306
L44.4641 19.0701
" />
<path d="M44.4641 19.0701
L44.5851 18.9491
" />
<path d="M44.5851 18.9491
L44.6455 18.7677
" />
<path d="M44.6455 18.7677
L44.6455 18.6468
" />
<path d="M44.6455 18.6468
L44.5851 18.4653
" />
<path d="M44.5851 18.4653
L44.5246 18.4049
" />
<path d="M44.5246 18.4049
L44.1012 18.4049
" />
<path d="M44.1012 18.4049
L44.1012 18.6468
" />
<path d="M44.6455 17.8606
L43.3755 17.8606
" />
<path d="M43.3755 17.8606
L44.6455 17.1349
" />
<path d="M44.6455 17.1349
L43.3755 17.1349
" />
<path d="M44.6455 16.5301
L43.3755 16.5301
" />
<path d="M43.3755 16.5301
L43.3755 16.2277
" />
<path d="M43.3755 16.2277
L43.4360 16.0463
" />
<path d="M43.4360 16.0463
L43.5570 15.9253
" />
<path d="M43.5570 15.9253
L43.6779 15.8648
" />
<path d="M43.6779 15.8648
L43.9198 15.8044
" />
<path d="M43.9198 15.8044
L44.1012 15.8044
" />
<path d="M44.1012 15.8044
L44.3431 15.8648
" />
<path d="M44.3431 15.8648
L44.4641 15.9253
" />
<path d="M44.4641 15.9253
L44.5851 16.0463
" />
<path d="M44.5851 16.0463
L44.6455 16.2277
" />
<path d="M44.6455 16.2277
L44.6455 16.5301
" />
</g></g>
<g style="fill:#A90000; fill-opacity:0.0; 
stroke:#A90000; stroke-width:0.1524; stroke-opacity:1; 
stroke-linecap:round; stroke-linejoin:round;">
<g transform="rotate(-90.000000 43.8120 21.3112)">
<text x="43.8120" y="21.3112"
textLength="1.4127" font-size="1.6933" lengthAdjust="spacingAndGlyphs"
text-anchor="middle" opacity="0">3</text>
</g>
<g class="stroked-text"><desc>3</desc>
<path d="M42.3785 21.7344
L42.3785 20.9482
" />
<path d="M42.3785 20.9482
L42.8623 21.3716
" />
<path d="M42.8623 21.3716
L42.8623 21.1901
" />
<path d="M42.8623 21.1901
L42.9228 21.0692
" />
<path d="M42.9228 21.0692
L42.9833 21.0087
" />
<path d="M42.9833 21.0087
L43.1042 20.9482
" />
<path d="M43.1042 20.9482
L43.4066 20.9482
" />
<path d="M43.4066 20.9482
L43.5276 21.0087
" />
<path d="M43.5276 21.0087
L43.5881 21.0692
" />
<path d="M43.5881 21.0692
L43.6485 21.1901
" />
<path d="M43.6485 21.1901
L43.6485 21.5530
" />
<path d="M43.6485 21.5530
L43.5881 21.6739
" />
<path d="M43.5881 21.6739
L43.5276 21.7344
" />
</g></g>
<g style="fill:#840000; fill-opacity:0.0; 
stroke:#840000; stroke-width:0.1524; stroke-opacity:1; 
stroke-linecap:round; stroke-linejoin:round;">
<path d="M51.6860 14.9612
L54.2260 14.9612
" />
</g>
<g style="fill:#006464; fill-opacity:0.0; 
stroke:#006464; stroke-width:0.1524; stroke-opacity:1; 
stroke-linecap:round; stroke-linejoin:round;">
<text x="51.1780" y="15.5962"
textLength="3.7713" font-size="1.6933" lengthAdjust="spacingAndGlyphs"
text-anchor="end" opacity="0">CLK</text>
<g class="stroked-text"><desc>CLK</desc>
<path d="M48.5377 15.4198
L48.4773 15.4803
" />
<path d="M48.4773 15.4803
L48.2958 15.5407
" />
<path d="M48.2958 15.5407
L48.1749 15.5407
" />
<path d="M48.1749 15.5407
L47.9935 15.4803
" />
<path d="M47.9935 15.4803
L47.8725 15.3593
" />
<path d="M47.8725 15.3593
L47.8120 15.2383
" />
<path d="M47.8120 15.2383
L47.7516 14.9964
" />
<path d="M47.7516 14.9964
L47.7516 14.8150
" />
<path d="M47.7516 14.8150
L47.8120 14.5731
" />
<path d="M47.8120 14.5731
L47.8725 14.4522
" />
<path d="M47.8725 14.4522
L47.9935 14.3312
" />
<path d="M47.9935 14.3312
L48.1749 14.2707
" />
<path d="M48.1749 14.2707
L48.2958 14.2707
" />
<path d="M48.2958 14.2707
L48.4773 14.3312
" />
<path d="M48.4773 14.3312
L48.5377 14.3917
" />
<path d="M49.6868 15.5407
L49.0820 15.5407
" />
<path d="M49.0820 15.5407
L49.0820 14.2707
" />
<path d="M50.1101 15.5407
L50.1101 14.2707
" />
<path d="M50.8358 15.5407
L50.2916 14.8150
" />
<path d="M50.8358 14.2707
L50.1101 14.9964
" />
</g></g>
<g style="fill:#A90000; fill-opacity:0.0; 
stroke:#A90000; stroke-width:0.1524; stroke-opacity:1; 
stroke-linecap:round; stroke-linejoin:round;">
<text x="52.9560" y="14.7072"
textLength="1.4127" font-size="1.6933" lengthAdjust="spacingAndGlyphs"
text-anchor="middle" opacity="0">4</text>
<g class="stroked-text"><desc>4</desc>
<path d="M53.1979 13.6971
L53.1979 14.5437
" />
<path d="M52.8955 13.2133
L52.5932 14.1204
" />
<path d="M52.5932 14.1204
L53.3793 14.1204
" />
</g></g>
<g style="fill:#840000; fill-opacity:0.0; 
stroke:#840000; stroke-width:0.1524; stroke-opacity:1; 
stroke-linecap:round; stroke-linejoin:round;">
<path d="M44.0660 4.8012
L44.0660 2.2612
" />
</g>
<g style="fill:#006464; fill-opacity:0.0; 
stroke:#006464; stroke-width:0.1524; stroke-opacity:1; 
stroke-linecap:round; stroke-linejoin:round;">
<g transform="rotate(-90.000000 44.0660 5.3092)">
<text x="44.0660" y="5.9442"
textLength="3.8318" font-size="1.6933" lengthAdjust="spacingAndGlyphs"
text-anchor="end" opacity="0">VDD</text>
</g>
<g class="stroked-text"><desc>VDD</desc>
<path d="M43.3755 8.9170
L44.6455 8.4937
" />
<path d="M44.6455 8.4937
L43.3755 8.0703
" />
<path d="M44.6455 7.6470
L43.3755 7.6470
" />
<path d="M43.3755 7.6470
L43.3755 7.3446
" />
<path d="M43.3755 7.3446
L43.4360 7.1632
" />
<path d="M43.4360 7.1632
L43.5570 7.0422
" />
<path d="M43.5570 7.0422
L43.6779 6.9817
" />
<path d="M43.6779 6.9817
L43.9198 6.9213
" />
<path d="M43.9198 6.9213
L44.1012 6.9213
" />
<path d="M44.1012 6.9213
L44.3431 6.9817
" />
<path d="M44.3431 6.9817
L44.4641 7.0422
" />
<path d="M44.4641 7.0422
L44.5851 7.1632
" />
<path d="M44.5851 7.1632
L44.6455 7.3446
" />
<path d="M44.6455 7.3446
L44.6455 7.6470
" />
<path d="M44.6455 6.3770
L43.3755 6.3770
" />
<path d="M43.3755 6.3770
L43.3755 6.0746
" />
<path d="M43.3755 6.0746
L43.4360 5.8932
" />
<path d="M43.4360 5.8932
L43.5570 5.7722
" />
<path d="M43.5570 5.7722
L43.6779 5.7117
" />
<path d="M43.6779 5.7117
L43.9198 5.6513
" />
<path d="M43.9198 5.6513
L44.1012 5.6513
" />
<path d="M44.1012 5.6513
L44.3431 5.7117
" />
<path d="M44.3431 5.7117
L44.4641 5.7722
" />
<path d="M44.4641 5.7722
L44.5851 5.8932
" />
<path d="M44.5851 5.8932
L44.6455 6.0746
" />
<path d="M44.6455 6.0746
L44.6455 6.3770
" />
</g></g>
<g style="fill:#A90000; fill-opacity:0.0; 
stroke:#A90000; stroke-width:0.1524; stroke-opacity:1; 
stroke-linecap:round; stroke-linejoin:round;">
<g transform="rotate(-90.000000 43.8120 3.5312)">
<text x="43.8120" y="3.5312"
textLength="1.4127" font-size="1.6933" lengthAdjust="spacingAndGlyphs"
text-anchor="middle" opacity="0">6</text>
</g>
<g class="stroked-text"><desc>6</desc>
<path d="M42.3785 3.2892
L42.3785 3.5311
" />
<path d="M42.3785 3.5311
L42.4390 3.6520
" />
<path d="M42.4390 3.6520
L42.4995 3.7125
" />
<path d="M42.4995 3.7125
L42.6809 3.8335
" />
<path d="M42.6809 3.8335
L42.9228 3.8939
" />
<path d="M42.9228 3.8939
L43.4066 3.8939
" />
<path d="M43.4066 3.8939
L43.5276 3.8335
" />
<path d="M43.5276 3.8335
L43.5881 3.7730
" />
<path d="M43.5881 3.7730
L43.6485 3.6520
" />
<path d="M43.6485 3.6520
L43.6485 3.4101
" />
<path d="M43.6485 3.4101
L43.5881 3.2892
" />
<path d="M43.5881 3.2892
L43.5276 3.2287
" />
<path d="M43.5276 3.2287
L43.4066 3.1682
" />
<path d="M43.4066 3.1682
L43.1042 3.1682
" />
<path d="M43.1042 3.1682
L42.9833 3.2287
" />
<path d="M42.9833 3.2287
L42.9228 3.2892
" />
<path d="M42.9228 3.2892
L42.8623 3.4101
" />
<path d="M42.8623 3.4101
L42.8623 3.6520
" />
<path d="M42.8623 3.6520
L42.9228 3.7730
" />
<path d="M42.9228 3.7730
L42.9833 3.8335
" />
<path d="M42.9833 3.8335
L43.1042 3.8939
" />
</g></g>
<g style="fill:#840084; fill-opacity:0.0; 
stroke:#840084; stroke-width:0.1524; stroke-opacity:1; 
stroke-linecap:round; stroke-linejoin:round;">
</g>
<g style="fill:#006464; fill-opacity:0.0; 
stroke:#006464; stroke-width:0.1524; stroke-opacity:1; 
stroke-linecap:round; stroke-linejoin:round;">
</g>
<g style="fill:#006464; fill-opacity:0.0; 
stroke:#006464; stroke-width:0.1588; stroke-opacity:1; 
stroke-linecap:round; stroke-linejoin:round;">
<text x="39.0367" y="4.1662"
textLength="2.6415" font-size="1.6933" lengthAdjust="spacingAndGlyphs"
text-anchor="middle" opacity="0">U?</text>
<g class="stroked-text"><desc>U?</desc>
<path d="M38.1295 2.8404
L38.1295 3.8685
" />
<path d="M38.1295 3.8685
L38.1900 3.9895
" />
<path d="M38.1900 3.9895
L38.2505 4.0500
" />
<path d="M38.2505 4.0500
L38.3714 4.1104
" />
<path d="M38.3714 4.1104
L38.6133 4.1104
" />
<path d="M38.6133 4.1104
L38.7343 4.0500
" />
<path d="M38.7343 4.0500
L38.7948 3.9895
" />
<path d="M38.7948 3.9895
L38.8552 3.8685
" />
<path d="M38.8552 3.8685
L38.8552 2.8404
" />
<path d="M39.6415 3.9895
L39.7019 4.0500
" />
<path d="M39.7019 4.0500
L39.6415 4.1104
" />
<path d="M39.6415 4.1104
L39.5810 4.0500
" />
<path d="M39.5810 4.0500
L39.6415 3.9895
" />
<path d="M39.6415 3.9895
L39.6415 4.1104
" />
<path d="M39.3996 2.9009
L39.5205 2.8404
" />
<path d="M39.5205 2.8404
L39.8229 2.8404
" />
<path d="M39.8229 2.8404
L39.9438 2.9009
" />
<path d="M39.9438 2.9009
L40.0043 3.0219
" />
<path d="M40.0043 3.0219
L40.0043 3.1428
" />
<path d="M40.0043 3.1428
L39.9438 3.2638
" />
<path d="M39.9438 3.2638
L39.8834 3.3242
" />
<path d="M39.8834 3.3242
L39.7624 3.3847
" />
<path d="M39.7624 3.3847
L39.7019 3.4452
" />
<path d="M39.7019 3.4452
L39.6415 3.5661
" />
<path d="M39.6415 3.5661
L39.6415 3.6266
" />
</g><text x="55.6978" y="21.9462"
textLength="18.1837" font-size="1.6933" lengthAdjust="spacingAndGlyphs"
text-anchor="middle" opacity="0">Si513A_2.5x3.2mm</text>
<g class="stroked-text"><desc>Si513A_2.5x3.2mm</desc>
<path d="M46.9591 21.8300
L47.1405 21.8904
" />
<path d="M47.1405 21.8904
L47.4429 21.8904
" />
<path d="M47.4429 21.8904
L47.5638 21.8300
" />
<path d="M47.5638 21.8300
L47.6243 21.7695
" />
<path d="M47.6243 21.7695
L47.6848 21.6485
" />
<path d="M47.6848 21.6485
L47.6848 21.5276
" />
<path d="M47.6848 21.5276
L47.6243 21.4066
" />
<path d="M47.6243 21.4066
L47.5638 21.3461
" />
<path d="M47.5638 21.3461
L47.4429 21.2857
" />
<path d="M47.4429 21.2857
L47.2010 21.2252
" />
<path d="M47.2010 21.2252
L47.0800 21.1647
" />
<path d="M47.0800 21.1647
L47.0195 21.1042
" />
<path d="M47.0195 21.1042
L46.9591 20.9833
" />
<path d="M46.9591 20.9833
L46.9591 20.8623
" />
<path d="M46.9591 20.8623
L47.0195 20.7414
" />
<path d="M47.0195 20.7414
L47.0800 20.6809
" />
<path d="M47.0800 20.6809
L47.2010 20.6204
" />
<path d="M47.2010 20.6204
L47.5033 20.6204
" />
<path d="M47.5033 20.6204
L47.6848 20.6809
" />
<path d="M48.2290 21.8904
L48.2290 21.0438
" />
<path d="M48.2290 20.6204
L48.1686 20.6809
" />
<path d="M48.1686 20.6809
L48.2290 20.7414
" />
<path d="M48.2290 20.7414
L48.2895 20.6809
" />
<path d="M48.2895 20.6809
L48.2290 20.6204
" />
<path d="M48.2290 20.6204
L48.2290 20.7414
" />
<path d="M49.4386 20.6204
L48.8338 20.6204
" />
<path d="M48.8338 20.6204
L48.7734 21.2252
" />
<path d="M48.7734 21.2252
L48.8338 21.1647
" />
<path d="M48.8338 21.1647
L48.9548 21.1042
" />
<path d="M48.9548 21.1042
L49.2572 21.1042
" />
<path d="M49.2572 21.1042
L49.3781 21.1647
" />
<path d="M49.3781 21.1647
L49.4386 21.2252
" />
<path d="M49.4386 21.2252
L49.4991 21.3461
" />
<path d="M49.4991 21.3461
L49.4991 21.6485
" />
<path d="M49.4991 21.6485
L49.4386 21.7695
" />
<path d="M49.4386 21.7695
L49.3781 21.8300
" />
<path d="M49.3781 21.8300
L49.2572 21.8904
" />
<path d="M49.2572 21.8904
L48.9548 21.8904
" />
<path d="M48.9548 21.8904
L48.8338 21.8300
" />
<path d="M48.8338 21.8300
L48.7734 21.7695
" />
<path d="M50.7086 21.8904
L49.9829 21.8904
" />
<path d="M50.3457 21.8904
L50.3457 20.6204
" />
<path d="M50.3457 20.6204
L50.2248 20.8019
" />
<path d="M50.2248 20.8019
L50.1038 20.9228
" />
<path d="M50.1038 20.9228
L49.9829 20.9833
" />
<path d="M51.1319 20.6204
L51.9181 20.6204
" />
<path d="M51.9181 20.6204
L51.4947 21.1042
" />
<path d="M51.4947 21.1042
L51.6762 21.1042
" />
<path d="M51.6762 21.1042
L51.7971 21.1647
" />
<path d="M51.7971 21.1647
L51.8576 21.2252
" />
<path d="M51.8576 21.2252
L51.9181 21.3461
" />
<path d="M51.9181 21.3461
L51.9181 21.6485
" />
<path d="M51.9181 21.6485
L51.8576 21.7695
" />
<path d="M51.8576 21.7695
L51.7971 21.8300
" />
<path d="M51.7971 21.8300
L51.6762 21.8904
" />
<path d="M51.6762 21.8904
L51.3133 21.8904
" />
<path d="M51.3133 21.8904
L51.1924 21.8300
" />
<path d="M51.1924 21.8300
L51.1319 21.7695
" />
<path d="M52.4019 21.5276
L53.0066 21.5276
" />
<path d="M52.2809 21.8904
L52.7042 20.6204
" />
<path d="M52.7042 20.6204
L53.1276 21.8904
" />
<path d="M53.2486 22.0114
L54.2162 22.0114
" />
<path d="M54.4581 20.7414
L54.5185 20.6809
" />
<path d="M54.5185 20.6809
L54.6395 20.6204
" />
<path d="M54.6395 20.6204
L54.9419 20.6204
" />
<path d="M54.9419 20.6204
L55.0628 20.6809
" />
<path d="M55.0628 20.6809
L55.1233 20.7414
" />
<path d="M55.1233 20.7414
L55.1838 20.8623
" />
<path d="M55.1838 20.8623
L55.1838 20.9833
" />
<path d="M55.1838 20.9833
L55.1233 21.1647
" />
<path d="M55.1233 21.1647
L54.3976 21.8904
" />
<path d="M54.3976 21.8904
L55.1838 21.8904
" />
<path d="M55.7280 21.7695
L55.7885 21.8300
" />
<path d="M55.7885 21.8300
L55.7280 21.8904
" />
<path d="M55.7280 21.8904
L55.6676 21.8300
" />
<path d="M55.6676 21.8300
L55.7280 21.7695
" />
<path d="M55.7280 21.7695
L55.7280 21.8904
" />
<path d="M56.9376 20.6204
L56.3328 20.6204
" />
<path d="M56.3328 20.6204
L56.2724 21.2252
" />
<path d="M56.2724 21.2252
L56.3328 21.1647
" />
<path d="M56.3328 21.1647
L56.4538 21.1042
" />
<path d="M56.4538 21.1042
L56.7562 21.1042
" />
<path d="M56.7562 21.1042
L56.8771 21.1647
" />
<path d="M56.8771 21.1647
L56.9376 21.2252
" />
<path d="M56.9376 21.2252
L56.9981 21.3461
" />
<path d="M56.9981 21.3461
L56.9981 21.6485
" />
<path d="M56.9981 21.6485
L56.9376 21.7695
" />
<path d="M56.9376 21.7695
L56.8771 21.8300
" />
<path d="M56.8771 21.8300
L56.7562 21.8904
" />
<path d="M56.7562 21.8904
L56.4538 21.8904
" />
<path d="M56.4538 21.8904
L56.3328 21.8300
" />
<path d="M56.3328 21.8300
L56.2724 21.7695
" />
<path d="M57.4214 21.8904
L58.0866 21.0438
" />
<path d="M57.4214 21.0438
L58.0866 21.8904
" />
<path d="M58.4495 20.6204
L59.2357 20.6204
" />
<path d="M59.2357 20.6204
L58.8123 21.1042
" />
<path d="M58.8123 21.1042
L58.9938 21.1042
" />
<path d="M58.9938 21.1042
L59.1147 21.1647
" />
<path d="M59.1147 21.1647
L59.1752 21.2252
" />
<path d="M59.1752 21.2252
L59.2357 21.3461
" />
<path d="M59.2357 21.3461
L59.2357 21.6485
" />
<path d="M59.2357 21.6485
L59.1752 21.7695
" />
<path d="M59.1752 21.7695
L59.1147 21.8300
" />
<path d="M59.1147 21.8300
L58.9938 21.8904
" />
<path d="M58.9938 21.8904
L58.6309 21.8904
" />
<path d="M58.6309 21.8904
L58.5100 21.8300
" />
<path d="M58.5100 21.8300
L58.4495 21.7695
" />
<path d="M59.7799 21.7695
L59.8404 21.8300
" />
<path d="M59.8404 21.8300
L59.7799 21.8904
" />
<path d="M59.7799 21.8904
L59.7195 21.8300
" />
<path d="M59.7195 21.8300
L59.7799 21.7695
" />
<path d="M59.7799 21.7695
L59.7799 21.8904
" />
<path d="M60.3243 20.7414
L60.3847 20.6809
" />
<path d="M60.3847 20.6809
L60.5057 20.6204
" />
<path d="M60.5057 20.6204
L60.8081 20.6204
" />
<path d="M60.8081 20.6204
L60.9290 20.6809
" />
<path d="M60.9290 20.6809
L60.9895 20.7414
" />
<path d="M60.9895 20.7414
L61.0500 20.8623
" />
<path d="M61.0500 20.8623
L61.0500 20.9833
" />
<path d="M61.0500 20.9833
L60.9895 21.1647
" />
<path d="M60.9895 21.1647
L60.2638 21.8904
" />
<path d="M60.2638 21.8904
L61.0500 21.8904
" />
<path d="M61.5942 21.8904
L61.5942 21.0438
" />
<path d="M61.5942 21.1647
L61.6547 21.1042
" />
<path d="M61.6547 21.1042
L61.7757 21.0438
" />
<path d="M61.7757 21.0438
L61.9571 21.0438
" />
<path d="M61.9571 21.0438
L62.0780 21.1042
" />
<path d="M62.0780 21.1042
L62.1385 21.2252
" />
<path d="M62.1385 21.2252
L62.1385 21.8904
" />
<path d="M62.1385 21.2252
L62.1990 21.1042
" />
<path d="M62.1990 21.1042
L62.3199 21.0438
" />
<path d="M62.3199 21.0438
L62.5014 21.0438
" />
<path d="M62.5014 21.0438
L62.6223 21.1042
" />
<path d="M62.6223 21.1042
L62.6828 21.2252
" />
<path d="M62.6828 21.2252
L62.6828 21.8904
" />
<path d="M63.2875 21.8904
L63.2875 21.0438
" />
<path d="M63.2875 21.1647
L63.3480 21.1042
" />
<path d="M63.3480 21.1042
L63.4690 21.0438
" />
<path d="M63.4690 21.0438
L63.6504 21.0438
" />
<path d="M63.6504 21.0438
L63.7713 21.1042
" />
<path d="M63.7713 21.1042
L63.8318 21.2252
" />
<path d="M63.8318 21.2252
L63.8318 21.8904
" />
<path d="M63.8318 21.2252
L63.8923 21.1042
" />
<path d="M63.8923 21.1042
L64.0132 21.0438
" />
<path d="M64.0132 21.0438
L64.1947 21.0438
" />
<path d="M64.1947 21.0438
L64.3156 21.1042
" />
<path d="M64.3156 21.1042
L64.3761 21.2252
" />
<path d="M64.3761 21.2252
L64.3761 21.8904
" />
</g></g>
<g style="fill:#840084; fill-opacity:0.0; 
stroke:#840084; stroke-width:0.1588; stroke-opacity:1; 
stroke-linecap:round; stroke-linejoin:round;">
<text x="44.0660" y="24.4862"
textLength="65.2942" font-size="1.6933" lengthAdjust="spacingAndGlyphs"
text-anchor="middle" opacity="0">Oscillator:Oscillator_SMD_Silicon_Labs_LGA-6_2.5x3.2mm_P1.25mm</text>
<g class="stroked-text"><desc>Oscillator:Oscillator_SMD_Silicon_Labs_LGA-6_2.5x3.2mm_P1.25mm</desc>
<path d="M12.0743 23.1604
L12.3162 23.1604
" />
<path d="M12.3162 23.1604
L12.4372 23.2209
" />
<path d="M12.4372 23.2209
L12.5581 23.3419
" />
<path d="M12.5581 23.3419
L12.6186 23.5838
" />
<path d="M12.6186 23.5838
L12.6186 24.0071
" />
<path d="M12.6186 24.0071
L12.5581 24.2490
" />
<path d="M12.5581 24.2490
L12.4372 24.3700
" />
<path d="M12.4372 24.3700
L12.3162 24.4304
" />
<path d="M12.3162 24.4304
L12.0743 24.4304
" />
<path d="M12.0743 24.4304
L11.9534 24.3700
" />
<path d="M11.9534 24.3700
L11.8324 24.2490
" />
<path d="M11.8324 24.2490
L11.7720 24.0071
" />
<path d="M11.7720 24.0071
L11.7720 23.5838
" />
<path d="M11.7720 23.5838
L11.8324 23.3419
" />
<path d="M11.8324 23.3419
L11.9534 23.2209
" />
<path d="M11.9534 23.2209
L12.0743 23.1604
" />
<path d="M13.1025 24.3700
L13.2234 24.4304
" />
<path d="M13.2234 24.4304
L13.4653 24.4304
" />
<path d="M13.4653 24.4304
L13.5863 24.3700
" />
<path d="M13.5863 24.3700
L13.6467 24.2490
" />
<path d="M13.6467 24.2490
L13.6467 24.1885
" />
<path d="M13.6467 24.1885
L13.5863 24.0676
" />
<path d="M13.5863 24.0676
L13.4653 24.0071
" />
<path d="M13.4653 24.0071
L13.2839 24.0071
" />
<path d="M13.2839 24.0071
L13.1629 23.9466
" />
<path d="M13.1629 23.9466
L13.1025 23.8257
" />
<path d="M13.1025 23.8257
L13.1025 23.7652
" />
<path d="M13.1025 23.7652
L13.1629 23.6442
" />
<path d="M13.1629 23.6442
L13.2839 23.5838
" />
<path d="M13.2839 23.5838
L13.4653 23.5838
" />
<path d="M13.4653 23.5838
L13.5863 23.6442
" />
<path d="M14.7353 24.3700
L14.6144 24.4304
" />
<path d="M14.6144 24.4304
L14.3725 24.4304
" />
<path d="M14.3725 24.4304
L14.2515 24.3700
" />
<path d="M14.2515 24.3700
L14.1910 24.3095
" />
<path d="M14.1910 24.3095
L14.1306 24.1885
" />
<path d="M14.1306 24.1885
L14.1306 23.8257
" />
<path d="M14.1306 23.8257
L14.1910 23.7047
" />
<path d="M14.1910 23.7047
L14.2515 23.6442
" />
<path d="M14.2515 23.6442
L14.3725 23.5838
" />
<path d="M14.3725 23.5838
L14.6144 23.5838
" />
<path d="M14.6144 23.5838
L14.7353 23.6442
" />
<path d="M15.2796 24.4304
L15.2796 23.5838
" />
<path d="M15.2796 23.1604
L15.2192 23.2209
" />
<path d="M15.2192 23.2209
L15.2796 23.2814
" />
<path d="M15.2796 23.2814
L15.3401 23.2209
" />
<path d="M15.3401 23.2209
L15.2796 23.1604
" />
<path d="M15.2796 23.1604
L15.2796 23.2814
" />
<path d="M16.0659 24.4304
L15.9449 24.3700
" />
<path d="M15.9449 24.3700
L15.8844 24.2490
" />
<path d="M15.8844 24.2490
L15.8844 23.1604
" />
<path d="M16.7311 24.4304
L16.6101 24.3700
" />
<path d="M16.6101 24.3700
L16.5496 24.2490
" />
<path d="M16.5496 24.2490
L16.5496 23.1604
" />
<path d="M17.7591 24.4304
L17.7591 23.7652
" />
<path d="M17.7591 23.7652
L17.6986 23.6442
" />
<path d="M17.6986 23.6442
L17.5777 23.5838
" />
<path d="M17.5777 23.5838
L17.3358 23.5838
" />
<path d="M17.3358 23.5838
L17.2148 23.6442
" />
<path d="M17.7591 24.3700
L17.6382 24.4304
" />
<path d="M17.6382 24.4304
L17.3358 24.4304
" />
<path d="M17.3358 24.4304
L17.2148 24.3700
" />
<path d="M17.2148 24.3700
L17.1544 24.2490
" />
<path d="M17.1544 24.2490
L17.1544 24.1280
" />
<path d="M17.1544 24.1280
L17.2148 24.0071
" />
<path d="M17.2148 24.0071
L17.3358 23.9466
" />
<path d="M17.3358 23.9466
L17.6382 23.9466
" />
<path d="M17.6382 23.9466
L17.7591 23.8861
" />
<path d="M18.1824 23.5838
L18.6662 23.5838
" />
<path d="M18.3638 23.1604
L18.3638 24.2490
" />
<path d="M18.3638 24.2490
L18.4243 24.3700
" />
<path d="M18.4243 24.3700
L18.5453 24.4304
" />
<path d="M18.5453 24.4304
L18.6662 24.4304
" />
<path d="M19.2710 24.4304
L19.1500 24.3700
" />
<path d="M19.1500 24.3700
L19.0895 24.3095
" />
<path d="M19.0895 24.3095
L19.0291 24.1885
" />
<path d="M19.0291 24.1885
L19.0291 23.8257
" />
<path d="M19.0291 23.8257
L19.0895 23.7047
" />
<path d="M19.0895 23.7047
L19.1500 23.6442
" />
<path d="M19.1500 23.6442
L19.2710 23.5838
" />
<path d="M19.2710 23.5838
L19.4524 23.5838
" />
<path d="M19.4524 23.5838
L19.5733 23.6442
" />
<path d="M19.5733 23.6442
L19.6338 23.7047
" />
<path d="M19.6338 23.7047
L19.6943 23.8257
" />
<path d="M19.6943 23.8257
L19.6943 24.1885
" />
<path d="M19.6943 24.1885
L19.6338 24.3095
" />
<path d="M19.6338 24.3095
L19.5733 24.3700
" />
<path d="M19.5733 24.3700
L19.4524 24.4304
" />
<path d="M19.4524 24.4304
L19.2710 24.4304
" />
<path d="M20.2385 24.4304
L20.2385 23.5838
" />
<path d="M20.2385 23.8257
L20.2990 23.7047
" />
<path d="M20.2990 23.7047
L20.3595 23.6442
" />
<path d="M20.3595 23.6442
L20.4804 23.5838
" />
<path d="M20.4804 23.5838
L20.6014 23.5838
" />
<path d="M21.0247 24.3095
L21.0852 24.3700
" />
<path d="M21.0852 24.3700
L21.0247 24.4304
" />
<path d="M21.0247 24.4304
L20.9643 24.3700
" />
<path d="M20.9643 24.3700
L21.0247 24.3095
" />
<path d="M21.0247 24.3095
L21.0247 24.4304
" />
<path d="M21.0247 23.6442
L21.0852 23.7047
" />
<path d="M21.0852 23.7047
L21.0247 23.7652
" />
<path d="M21.0247 23.7652
L20.9643 23.7047
" />
<path d="M20.9643 23.7047
L21.0247 23.6442
" />
<path d="M21.0247 23.6442
L21.0247 23.7652
" />
<path d="M21.8714 23.1604
L22.1133 23.1604
" />
<path d="M22.1133 23.1604
L22.2343 23.2209
" />
<path d="M22.2343 23.2209
L22.3552 23.3419
" />
<path d="M22.3552 23.3419
L22.4157 23.5838
" />
<path d="M22.4157 23.5838
L22.4157 24.0071
" />
<path d="M22.4157 24.0071
L22.3552 24.2490
" />
<path d="M22.3552 24.2490
L22.2343 24.3700
" />
<path d="M22.2343 24.3700
L22.1133 24.4304
" />
<path d="M22.1133 24.4304
L21.8714 24.4304
" />
<path d="M21.8714 24.4304
L21.7505 24.3700
" />
<path d="M21.7505 24.3700
L21.6295 24.2490
" />
<path d="M21.6295 24.2490
L21.5691 24.0071
" />
<path d="M21.5691 24.0071
L21.5691 23.5838
" />
<path d="M21.5691 23.5838
L21.6295 23.3419
" />
<path d="M21.6295 23.3419
L21.7505 23.2209
" />
<path d="M21.7505 23.2209
L21.8714 23.1604
" />
<path d="M22.8996 24.3700
L23.0205 24.4304
" />
<path d="M23.0205 24.4304
L23.2624 24.4304
" />
<path d="M23.2624 24.4304
L23.3834 24.3700
" />
<path d="M23.3834 24.3700
L23.4438 24.2490
" />
<path d="M23.4438 24.2490
L23.4438 24.1885
" />
<path d="M23.4438 24.1885
L23.3834 24.0676
" />
<path d="M23.3834 24.0676
L23.2624 24.0071
" />
<path d="M23.2624 24.0071
L23.0810 24.0071
" />
<path d="M23.0810 24.0071
L22.9600 23.9466
" />
<path d="M22.9600 23.9466
L22.8996 23.8257
" />
<path d="M22.8996 23.8257
L22.8996 23.7652
" />
<path d="M22.8996 23.7652
L22.9600 23.6442
" />
<path d="M22.9600 23.6442
L23.0810 23.5838
" />
<path d="M23.0810 23.5838
L23.2624 23.5838
" />
<path d="M23.2624 23.5838
L23.3834 23.6442
" />
<path d="M24.5324 24.3700
L24.4115 24.4304
" />
<path d="M24.4115 24.4304
L24.1696 24.4304
" />
<path d="M24.1696 24.4304
L24.0486 24.3700
" />
<path d="M24.0486 24.3700
L23.9881 24.3095
" />
<path d="M23.9881 24.3095
L23.9277 24.1885
" />
<path d="M23.9277 24.1885
L23.9277 23.8257
" />
<path d="M23.9277 23.8257
L23.9881 23.7047
" />
<path d="M23.9881 23.7047
L24.0486 23.6442
" />
<path d="M24.0486 23.6442
L24.1696 23.5838
" />
<path d="M24.1696 23.5838
L24.4115 23.5838
" />
<path d="M24.4115 23.5838
L24.5324 23.6442
" />
<path d="M25.0767 24.4304
L25.0767 23.5838
" />
<path d="M25.0767 23.1604
L25.0163 23.2209
" />
<path d="M25.0163 23.2209
L25.0767 23.2814
" />
<path d="M25.0767 23.2814
L25.1372 23.2209
" />
<path d="M25.1372 23.2209
L25.0767 23.1604
" />
<path d="M25.0767 23.1604
L25.0767 23.2814
" />
<path d="M25.8630 24.4304
L25.7420 24.3700
" />
<path d="M25.7420 24.3700
L25.6815 24.2490
" />
<path d="M25.6815 24.2490
L25.6815 23.1604
" />
<path d="M26.5282 24.4304
L26.4072 24.3700
" />
<path d="M26.4072 24.3700
L26.3467 24.2490
" />
<path d="M26.3467 24.2490
L26.3467 23.1604
" />
<path d="M27.5562 24.4304
L27.5562 23.7652
" />
<path d="M27.5562 23.7652
L27.4957 23.6442
" />
<path d="M27.4957 23.6442
L27.3748 23.5838
" />
<path d="M27.3748 23.5838
L27.1329 23.5838
" />
<path d="M27.1329 23.5838
L27.0119 23.6442
" />
<path d="M27.5562 24.3700
L27.4353 24.4304
" />
<path d="M27.4353 24.4304
L27.1329 24.4304
" />
<path d="M27.1329 24.4304
L27.0119 24.3700
" />
<path d="M27.0119 24.3700
L26.9515 24.2490
" />
<path d="M26.9515 24.2490
L26.9515 24.1280
" />
<path d="M26.9515 24.1280
L27.0119 24.0071
" />
<path d="M27.0119 24.0071
L27.1329 23.9466
" />
<path d="M27.1329 23.9466
L27.4353 23.9466
" />
<path d="M27.4353 23.9466
L27.5562 23.8861
" />
<path d="M27.9795 23.5838
L28.4633 23.5838
" />
<path d="M28.1609 23.1604
L28.1609 24.2490
" />
<path d="M28.1609 24.2490
L28.2214 24.3700
" />
<path d="M28.2214 24.3700
L28.3424 24.4304
" />
<path d="M28.3424 24.4304
L28.4633 24.4304
" />
<path d="M29.0681 24.4304
L28.9471 24.3700
" />
<path d="M28.9471 24.3700
L28.8866 24.3095
" />
<path d="M28.8866 24.3095
L28.8262 24.1885
" />
<path d="M28.8262 24.1885
L28.8262 23.8257
" />
<path d="M28.8262 23.8257
L28.8866 23.7047
" />
<path d="M28.8866 23.7047
L28.9471 23.6442
" />
<path d="M28.9471 23.6442
L29.0681 23.5838
" />
<path d="M29.0681 23.5838
L29.2495 23.5838
" />
<path d="M29.2495 23.5838
L29.3704 23.6442
" />
<path d="M29.3704 23.6442
L29.4309 23.7047
" />
<path d="M29.4309 23.7047
L29.4914 23.8257
" />
<path d="M29.4914 23.8257
L29.4914 24.1885
" />
<path d="M29.4914 24.1885
L29.4309 24.3095
" />
<path d="M29.4309 24.3095
L29.3704 24.3700
" />
<path d="M29.3704 24.3700
L29.2495 24.4304
" />
<path d="M29.2495 24.4304
L29.0681 24.4304
" />
<path d="M30.0356 24.4304
L30.0356 23.5838
" />
<path d="M30.0356 23.8257
L30.0961 23.7047
" />
<path d="M30.0961 23.7047
L30.1566 23.6442
" />
<path d="M30.1566 23.6442
L30.2775 23.5838
" />
<path d="M30.2775 23.5838
L30.3985 23.5838
" />
<path d="M30.5195 24.5514
L31.4871 24.5514
" />
<path d="M31.7290 24.3700
L31.9104 24.4304
" />
<path d="M31.9104 24.4304
L32.2128 24.4304
" />
<path d="M32.2128 24.4304
L32.3337 24.3700
" />
<path d="M32.3337 24.3700
L32.3942 24.3095
" />
<path d="M32.3942 24.3095
L32.4547 24.1885
" />
<path d="M32.4547 24.1885
L32.4547 24.0676
" />
<path d="M32.4547 24.0676
L32.3942 23.9466
" />
<path d="M32.3942 23.9466
L32.3337 23.8861
" />
<path d="M32.3337 23.8861
L32.2128 23.8257
" />
<path d="M32.2128 23.8257
L31.9709 23.7652
" />
<path d="M31.9709 23.7652
L31.8499 23.7047
" />
<path d="M31.8499 23.7047
L31.7894 23.6442
" />
<path d="M31.7894 23.6442
L31.7290 23.5233
" />
<path d="M31.7290 23.5233
L31.7290 23.4023
" />
<path d="M31.7290 23.4023
L31.7894 23.2814
" />
<path d="M31.7894 23.2814
L31.8499 23.2209
" />
<path d="M31.8499 23.2209
L31.9709 23.1604
" />
<path d="M31.9709 23.1604
L32.2732 23.1604
" />
<path d="M32.2732 23.1604
L32.4547 23.2209
" />
<path d="M32.9989 24.4304
L32.9989 23.1604
" />
<path d="M32.9989 23.1604
L33.4223 24.0676
" />
<path d="M33.4223 24.0676
L33.8456 23.1604
" />
<path d="M33.8456 23.1604
L33.8456 24.4304
" />
<path d="M34.4503 24.4304
L34.4503 23.1604
" />
<path d="M34.4503 23.1604
L34.7527 23.1604
" />
<path d="M34.7527 23.1604
L34.9341 23.2209
" />
<path d="M34.9341 23.2209
L35.0551 23.3419
" />
<path d="M35.0551 23.3419
L35.1156 23.4628
" />
<path d="M35.1156 23.4628
L35.1760 23.7047
" />
<path d="M35.1760 23.7047
L35.1760 23.8861
" />
<path d="M35.1760 23.8861
L35.1156 24.1280
" />
<path d="M35.1156 24.1280
L35.0551 24.2490
" />
<path d="M35.0551 24.2490
L34.9341 24.3700
" />
<path d="M34.9341 24.3700
L34.7527 24.4304
" />
<path d="M34.7527 24.4304
L34.4503 24.4304
" />
<path d="M35.4180 24.5514
L36.3856 24.5514
" />
<path d="M36.6275 24.3700
L36.8089 24.4304
" />
<path d="M36.8089 24.4304
L37.1113 24.4304
" />
<path d="M37.1113 24.4304
L37.2322 24.3700
" />
<path d="M37.2322 24.3700
L37.2927 24.3095
" />
<path d="M37.2927 24.3095
L37.3532 24.1885
" />
<path d="M37.3532 24.1885
L37.3532 24.0676
" />
<path d="M37.3532 24.0676
L37.2927 23.9466
" />
<path d="M37.2927 23.9466
L37.2322 23.8861
" />
<path d="M37.2322 23.8861
L37.1113 23.8257
" />
<path d="M37.1113 23.8257
L36.8694 23.7652
" />
<path d="M36.8694 23.7652
L36.7484 23.7047
" />
<path d="M36.7484 23.7047
L36.6879 23.6442
" />
<path d="M36.6879 23.6442
L36.6275 23.5233
" />
<path d="M36.6275 23.5233
L36.6275 23.4023
" />
<path d="M36.6275 23.4023
L36.6879 23.2814
" />
<path d="M36.6879 23.2814
L36.7484 23.2209
" />
<path d="M36.7484 23.2209
L36.8694 23.1604
" />
<path d="M36.8694 23.1604
L37.1717 23.1604
" />
<path d="M37.1717 23.1604
L37.3532 23.2209
" />
<path d="M37.8974 24.4304
L37.8974 23.5838
" />
<path d="M37.8974 23.1604
L37.8370 23.2209
" />
<path d="M37.8370 23.2209
L37.8974 23.2814
" />
<path d="M37.8974 23.2814
L37.9579 23.2209
" />
<path d="M37.9579 23.2209
L37.8974 23.1604
" />
<path d="M37.8974 23.1604
L37.8974 23.2814
" />
<path d="M38.6837 24.4304
L38.5627 24.3700
" />
<path d="M38.5627 24.3700
L38.5022 24.2490
" />
<path d="M38.5022 24.2490
L38.5022 23.1604
" />
<path d="M39.1674 24.4304
L39.1674 23.5838
" />
<path d="M39.1674 23.1604
L39.1070 23.2209
" />
<path d="M39.1070 23.2209
L39.1674 23.2814
" />
<path d="M39.1674 23.2814
L39.2279 23.2209
" />
<path d="M39.2279 23.2209
L39.1674 23.1604
" />
<path d="M39.1674 23.1604
L39.1674 23.2814
" />
<path d="M40.3165 24.3700
L40.1956 24.4304
" />
<path d="M40.1956 24.4304
L39.9537 24.4304
" />
<path d="M39.9537 24.4304
L39.8327 24.3700
" />
<path d="M39.8327 24.3700
L39.7722 24.3095
" />
<path d="M39.7722 24.3095
L39.7118 24.1885
" />
<path d="M39.7118 24.1885
L39.7118 23.8257
" />
<path d="M39.7118 23.8257
L39.7722 23.7047
" />
<path d="M39.7722 23.7047
L39.8327 23.6442
" />
<path d="M39.8327 23.6442
L39.9537 23.5838
" />
<path d="M39.9537 23.5838
L40.1956 23.5838
" />
<path d="M40.1956 23.5838
L40.3165 23.6442
" />
<path d="M41.0423 24.4304
L40.9213 24.3700
" />
<path d="M40.9213 24.3700
L40.8608 24.3095
" />
<path d="M40.8608 24.3095
L40.8004 24.1885
" />
<path d="M40.8004 24.1885
L40.8004 23.8257
" />
<path d="M40.8004 23.8257
L40.8608 23.7047
" />
<path d="M40.8608 23.7047
L40.9213 23.6442
" />
<path d="M40.9213 23.6442
L41.0423 23.5838
" />
<path d="M41.0423 23.5838
L41.2237 23.5838
" />
<path d="M41.2237 23.5838
L41.3446 23.6442
" />
<path d="M41.3446 23.6442
L41.4051 23.7047
" />
<path d="M41.4051 23.7047
L41.4656 23.8257
" />
<path d="M41.4656 23.8257
L41.4656 24.1885
" />
<path d="M41.4656 24.1885
L41.4051 24.3095
" />
<path d="M41.4051 24.3095
L41.3446 24.3700
" />
<path d="M41.3446 24.3700
L41.2237 24.4304
" />
<path d="M41.2237 24.4304
L41.0423 24.4304
" />
<path d="M42.0098 23.5838
L42.0098 24.4304
" />
<path d="M42.0098 23.7047
L42.0703 23.6442
" />
<path d="M42.0703 23.6442
L42.1913 23.5838
" />
<path d="M42.1913 23.5838
L42.3727 23.5838
" />
<path d="M42.3727 23.5838
L42.4936 23.6442
" />
<path d="M42.4936 23.6442
L42.5541 23.7652
" />
<path d="M42.5541 23.7652
L42.5541 24.4304
" />
<path d="M42.8565 24.5514
L43.8241 24.5514
" />
<path d="M44.7312 24.4304
L44.1264 24.4304
" />
<path d="M44.1264 24.4304
L44.1264 23.1604
" />
<path d="M45.6988 24.4304
L45.6988 23.7652
" />
<path d="M45.6988 23.7652
L45.6383 23.6442
" />
<path d="M45.6383 23.6442
L45.5174 23.5838
" />
<path d="M45.5174 23.5838
L45.2755 23.5838
" />
<path d="M45.2755 23.5838
L45.1545 23.6442
" />
<path d="M45.6988 24.3700
L45.5779 24.4304
" />
<path d="M45.5779 24.4304
L45.2755 24.4304
" />
<path d="M45.2755 24.4304
L45.1545 24.3700
" />
<path d="M45.1545 24.3700
L45.0941 24.2490
" />
<path d="M45.0941 24.2490
L45.0941 24.1280
" />
<path d="M45.0941 24.1280
L45.1545 24.0071
" />
<path d="M45.1545 24.0071
L45.2755 23.9466
" />
<path d="M45.2755 23.9466
L45.5779 23.9466
" />
<path d="M45.5779 23.9466
L45.6988 23.8861
" />
<path d="M46.3035 24.4304
L46.3035 23.1604
" />
<path d="M46.3035 23.6442
L46.4245 23.5838
" />
<path d="M46.4245 23.5838
L46.6664 23.5838
" />
<path d="M46.6664 23.5838
L46.7873 23.6442
" />
<path d="M46.7873 23.6442
L46.8478 23.7047
" />
<path d="M46.8478 23.7047
L46.9083 23.8257
" />
<path d="M46.9083 23.8257
L46.9083 24.1885
" />
<path d="M46.9083 24.1885
L46.8478 24.3095
" />
<path d="M46.8478 24.3095
L46.7873 24.3700
" />
<path d="M46.7873 24.3700
L46.6664 24.4304
" />
<path d="M46.6664 24.4304
L46.4245 24.4304
" />
<path d="M46.4245 24.4304
L46.3035 24.3700
" />
<path d="M47.3921 24.3700
L47.5130 24.4304
" />
<path d="M47.5130 24.4304
L47.7549 24.4304
" />
<path d="M47.7549 24.4304
L47.8759 24.3700
" />
<path d="M47.8759 24.3700
L47.9363 24.2490
" />
<path d="M47.9363 24.2490
L47.9363 24.1885
" />
<path d="M47.9363 24.1885
L47.8759 24.0676
" />
<path d="M47.8759 24.0676
L47.7549 24.0071
" />
<path d="M47.7549 24.0071
L47.5735 24.0071
" />
<path d="M47.5735 24.0071
L47.4525 23.9466
" />
<path d="M47.4525 23.9466
L47.3921 23.8257
" />
<path d="M47.3921 23.8257
L47.3921 23.7652
" />
<path d="M47.3921 23.7652
L47.4525 23.6442
" />
<path d="M47.4525 23.6442
L47.5735 23.5838
" />
<path d="M47.5735 23.5838
L47.7549 23.5838
" />
<path d="M47.7549 23.5838
L47.8759 23.6442
" />
<path d="M48.1783 24.5514
L49.1459 24.5514
" />
<path d="M50.0530 24.4304
L49.4482 24.4304
" />
<path d="M49.4482 24.4304
L49.4482 23.1604
" />
<path d="M51.1416 23.2209
L51.0206 23.1604
" />
<path d="M51.0206 23.1604
L50.8392 23.1604
" />
<path d="M50.8392 23.1604
L50.6578 23.2209
" />
<path d="M50.6578 23.2209
L50.5368 23.3419
" />
<path d="M50.5368 23.3419
L50.4763 23.4628
" />
<path d="M50.4763 23.4628
L50.4159 23.7047
" />
<path d="M50.4159 23.7047
L50.4159 23.8861
" />
<path d="M50.4159 23.8861
L50.4763 24.1280
" />
<path d="M50.4763 24.1280
L50.5368 24.2490
" />
<path d="M50.5368 24.2490
L50.6578 24.3700
" />
<path d="M50.6578 24.3700
L50.8392 24.4304
" />
<path d="M50.8392 24.4304
L50.9601 24.4304
" />
<path d="M50.9601 24.4304
L51.1416 24.3700
" />
<path d="M51.1416 24.3700
L51.2020 24.3095
" />
<path d="M51.2020 24.3095
L51.2020 23.8861
" />
<path d="M51.2020 23.8861
L50.9601 23.8861
" />
<path d="M51.6859 24.0676
L52.2906 24.0676
" />
<path d="M51.5649 24.4304
L51.9882 23.1604
" />
<path d="M51.9882 23.1604
L52.4116 24.4304
" />
<path d="M52.8349 23.9466
L53.8026 23.9466
" />
<path d="M54.9516 23.1604
L54.7097 23.1604
" />
<path d="M54.7097 23.1604
L54.5888 23.2209
" />
<path d="M54.5888 23.2209
L54.5283 23.2814
" />
<path d="M54.5283 23.2814
L54.4073 23.4628
" />
<path d="M54.4073 23.4628
L54.3469 23.7047
" />
<path d="M54.3469 23.7047
L54.3469 24.1885
" />
<path d="M54.3469 24.1885
L54.4073 24.3095
" />
<path d="M54.4073 24.3095
L54.4678 24.3700
" />
<path d="M54.4678 24.3700
L54.5888 24.4304
" />
<path d="M54.5888 24.4304
L54.8307 24.4304
" />
<path d="M54.8307 24.4304
L54.9516 24.3700
" />
<path d="M54.9516 24.3700
L55.0121 24.3095
" />
<path d="M55.0121 24.3095
L55.0726 24.1885
" />
<path d="M55.0726 24.1885
L55.0726 23.8861
" />
<path d="M55.0726 23.8861
L55.0121 23.7652
" />
<path d="M55.0121 23.7652
L54.9516 23.7047
" />
<path d="M54.9516 23.7047
L54.8307 23.6442
" />
<path d="M54.8307 23.6442
L54.5888 23.6442
" />
<path d="M54.5888 23.6442
L54.4678 23.7047
" />
<path d="M54.4678 23.7047
L54.4073 23.7652
" />
<path d="M54.4073 23.7652
L54.3469 23.8861
" />
<path d="M55.3145 24.5514
L56.2821 24.5514
" />
<path d="M56.5240 23.2814
L56.5844 23.2209
" />
<path d="M56.5844 23.2209
L56.7054 23.1604
" />
<path d="M56.7054 23.1604
L57.0078 23.1604
" />
<path d="M57.0078 23.1604
L57.1287 23.2209
" />
<path d="M57.1287 23.2209
L57.1892 23.2814
" />
<path d="M57.1892 23.2814
L57.2497 23.4023
" />
<path d="M57.2497 23.4023
L57.2497 23.5233
" />
<path d="M57.2497 23.5233
L57.1892 23.7047
" />
<path d="M57.1892 23.7047
L56.4635 24.4304
" />
<path d="M56.4635 24.4304
L57.2497 24.4304
" />
<path d="M57.7939 24.3095
L57.8544 24.3700
" />
<path d="M57.8544 24.3700
L57.7939 24.4304
" />
<path d="M57.7939 24.4304
L57.7335 24.3700
" />
<path d="M57.7335 24.3700
L57.7939 24.3095
" />
<path d="M57.7939 24.3095
L57.7939 24.4304
" />
<path d="M59.0035 23.1604
L58.3987 23.1604
" />
<path d="M58.3987 23.1604
L58.3383 23.7652
" />
<path d="M58.3383 23.7652
L58.3987 23.7047
" />
<path d="M58.3987 23.7047
L58.5197 23.6442
" />
<path d="M58.5197 23.6442
L58.8221 23.6442
" />
<path d="M58.8221 23.6442
L58.9430 23.7047
" />
<path d="M58.9430 23.7047
L59.0035 23.7652
" />
<path d="M59.0035 23.7652
L59.0640 23.8861
" />
<path d="M59.0640 23.8861
L59.0640 24.1885
" />
<path d="M59.0640 24.1885
L59.0035 24.3095
" />
<path d="M59.0035 24.3095
L58.9430 24.3700
" />
<path d="M58.9430 24.3700
L58.8221 24.4304
" />
<path d="M58.8221 24.4304
L58.5197 24.4304
" />
<path d="M58.5197 24.4304
L58.3987 24.3700
" />
<path d="M58.3987 24.3700
L58.3383 24.3095
" />
<path d="M59.4873 24.4304
L60.1525 23.5838
" />
<path d="M59.4873 23.5838
L60.1525 24.4304
" />
<path d="M60.5154 23.1604
L61.3016 23.1604
" />
<path d="M61.3016 23.1604
L60.8782 23.6442
" />
<path d="M60.8782 23.6442
L61.0597 23.6442
" />
<path d="M61.0597 23.6442
L61.1806 23.7047
" />
<path d="M61.1806 23.7047
L61.2411 23.7652
" />
<path d="M61.2411 23.7652
L61.3016 23.8861
" />
<path d="M61.3016 23.8861
L61.3016 24.1885
" />
<path d="M61.3016 24.1885
L61.2411 24.3095
" />
<path d="M61.2411 24.3095
L61.1806 24.3700
" />
<path d="M61.1806 24.3700
L61.0597 24.4304
" />
<path d="M61.0597 24.4304
L60.6968 24.4304
" />
<path d="M60.6968 24.4304
L60.5759 24.3700
" />
<path d="M60.5759 24.3700
L60.5154 24.3095
" />
<path d="M61.8458 24.3095
L61.9063 24.3700
" />
<path d="M61.9063 24.3700
L61.8458 24.4304
" />
<path d="M61.8458 24.4304
L61.7854 24.3700
" />
<path d="M61.7854 24.3700
L61.8458 24.3095
" />
<path d="M61.8458 24.3095
L61.8458 24.4304
" />
<path d="M62.3902 23.2814
L62.4506 23.2209
" />
<path d="M62.4506 23.2209
L62.5716 23.1604
" />
<path d="M62.5716 23.1604
L62.8740 23.1604
" />
<path d="M62.8740 23.1604
L62.9949 23.2209
" />
<path d="M62.9949 23.2209
L63.0554 23.2814
" />
<path d="M63.0554 23.2814
L63.1159 23.4023
" />
<path d="M63.1159 23.4023
L63.1159 23.5233
" />
<path d="M63.1159 23.5233
L63.0554 23.7047
" />
<path d="M63.0554 23.7047
L62.3297 24.4304
" />
<path d="M62.3297 24.4304
L63.1159 24.4304
" />
<path d="M63.6601 24.4304
L63.6601 23.5838
" />
<path d="M63.6601 23.7047
L63.7206 23.6442
" />
<path d="M63.7206 23.6442
L63.8416 23.5838
" />
<path d="M63.8416 23.5838
L64.0230 23.5838
" />
<path d="M64.0230 23.5838
L64.1439 23.6442
" />
<path d="M64.1439 23.6442
L64.2044 23.7652
" />
<path d="M64.2044 23.7652
L64.2044 24.4304
" />
<path d="M64.2044 23.7652
L64.2649 23.6442
" />
<path d="M64.2649 23.6442
L64.3858 23.5838
" />
<path d="M64.3858 23.5838
L64.5673 23.5838
" />
<path d="M64.5673 23.5838
L64.6882 23.6442
" />
<path d="M64.6882 23.6442
L64.7487 23.7652
" />
<path d="M64.7487 23.7652
L64.7487 24.4304
" />
<path d="M65.3534 24.4304
L65.3534 23.5838
" />
<path d="M65.3534 23.7047
L65.4139 23.6442
" />
<path d="M65.4139 23.6442
L65.5349 23.5838
" />
<path d="M65.5349 23.5838
L65.7163 23.5838
" />
<path d="M65.7163 23.5838
L65.8372 23.6442
" />
<path d="M65.8372 23.6442
L65.8977 23.7652
" />
<path d="M65.8977 23.7652
L65.8977 24.4304
" />
<path d="M65.8977 23.7652
L65.9582 23.6442
" />
<path d="M65.9582 23.6442
L66.0791 23.5838
" />
<path d="M66.0791 23.5838
L66.2606 23.5838
" />
<path d="M66.2606 23.5838
L66.3815 23.6442
" />
<path d="M66.3815 23.6442
L66.4420 23.7652
" />
<path d="M66.4420 23.7652
L66.4420 24.4304
" />
<path d="M66.7444 24.5514
L67.7120 24.5514
" />
<path d="M68.0143 24.4304
L68.0143 23.1604
" />
<path d="M68.0143 23.1604
L68.4981 23.1604
" />
<path d="M68.4981 23.1604
L68.6191 23.2209
" />
<path d="M68.6191 23.2209
L68.6796 23.2814
" />
<path d="M68.6796 23.2814
L68.7400 23.4023
" />
<path d="M68.7400 23.4023
L68.7400 23.5838
" />
<path d="M68.7400 23.5838
L68.6796 23.7047
" />
<path d="M68.6796 23.7047
L68.6191 23.7652
" />
<path d="M68.6191 23.7652
L68.4981 23.8257
" />
<path d="M68.4981 23.8257
L68.0143 23.8257
" />
<path d="M69.9496 24.4304
L69.2239 24.4304
" />
<path d="M69.5867 24.4304
L69.5867 23.1604
" />
<path d="M69.5867 23.1604
L69.4658 23.3419
" />
<path d="M69.4658 23.3419
L69.3448 23.4628
" />
<path d="M69.3448 23.4628
L69.2239 23.5233
" />
<path d="M70.4938 24.3095
L70.5543 24.3700
" />
<path d="M70.5543 24.3700
L70.4938 24.4304
" />
<path d="M70.4938 24.4304
L70.4334 24.3700
" />
<path d="M70.4334 24.3700
L70.4938 24.3095
" />
<path d="M70.4938 24.3095
L70.4938 24.4304
" />
<path d="M71.0382 23.2814
L71.0986 23.2209
" />
<path d="M71.0986 23.2209
L71.2196 23.1604
" />
<path d="M71.2196 23.1604
L71.5220 23.1604
" />
<path d="M71.5220 23.1604
L71.6429 23.2209
" />
<path d="M71.6429 23.2209
L71.7034 23.2814
" />
<path d="M71.7034 23.2814
L71.7639 23.4023
" />
<path d="M71.7639 23.4023
L71.7639 23.5233
" />
<path d="M71.7639 23.5233
L71.7034 23.7047
" />
<path d="M71.7034 23.7047
L70.9777 24.4304
" />
<path d="M70.9777 24.4304
L71.7639 24.4304
" />
<path d="M72.9129 23.1604
L72.3081 23.1604
" />
<path d="M72.3081 23.1604
L72.2477 23.7652
" />
<path d="M72.2477 23.7652
L72.3081 23.7047
" />
<path d="M72.3081 23.7047
L72.4291 23.6442
" />
<path d="M72.4291 23.6442
L72.7315 23.6442
" />
<path d="M72.7315 23.6442
L72.8524 23.7047
" />
<path d="M72.8524 23.7047
L72.9129 23.7652
" />
<path d="M72.9129 23.7652
L72.9734 23.8861
" />
<path d="M72.9734 23.8861
L72.9734 24.1885
" />
<path d="M72.9734 24.1885
L72.9129 24.3095
" />
<path d="M72.9129 24.3095
L72.8524 24.3700
" />
<path d="M72.8524 24.3700
L72.7315 24.4304
" />
<path d="M72.7315 24.4304
L72.4291 24.4304
" />
<path d="M72.4291 24.4304
L72.3081 24.3700
" />
<path d="M72.3081 24.3700
L72.2477 24.3095
" />
<path d="M73.5176 24.4304
L73.5176 23.5838
" />
<path d="M73.5176 23.7047
L73.5781 23.6442
" />
<path d="M73.5781 23.6442
L73.6991 23.5838
" />
<path d="M73.6991 23.5838
L73.8805 23.5838
" />
<path d="M73.8805 23.5838
L74.0014 23.6442
" />
<path d="M74.0014 23.6442
L74.0619 23.7652
" />
<path d="M74.0619 23.7652
L74.0619 24.4304
" />
<path d="M74.0619 23.7652
L74.1224 23.6442
" />
<path d="M74.1224 23.6442
L74.2433 23.5838
" />
<path d="M74.2433 23.5838
L74.4248 23.5838
" />
<path d="M74.4248 23.5838
L74.5457 23.6442
" />
<path d="M74.5457 23.6442
L74.6062 23.7652
" />
<path d="M74.6062 23.7652
L74.6062 24.4304
" />
<path d="M75.2109 24.4304
L75.2109 23.5838
" />
<path d="M75.2109 23.7047
L75.2714 23.6442
" />
<path d="M75.2714 23.6442
L75.3924 23.5838
" />
<path d="M75.3924 23.5838
L75.5738 23.5838
" />
<path d="M75.5738 23.5838
L75.6947 23.6442
" />
<path d="M75.6947 23.6442
L75.7552 23.7652
" />
<path d="M75.7552 23.7652
L75.7552 24.4304
" />
<path d="M75.7552 23.7652
L75.8157 23.6442
" />
<path d="M75.8157 23.6442
L75.9366 23.5838
" />
<path d="M75.9366 23.5838
L76.1181 23.5838
" />
<path d="M76.1181 23.5838
L76.2390 23.6442
" />
<path d="M76.2390 23.6442
L76.2995 23.7652
" />
<path d="M76.2995 23.7652
L76.2995 24.4304
" />
</g><text x="41.5260" y="13.0562"
textLength="69.1043" font-size="1.6933" lengthAdjust="spacingAndGlyphs"
text-anchor="middle" opacity="0">https://www.silabs.com/documents/public/data-sheets/si512-13.pdf</text>
<g class="stroked-text"><desc>https://www.silabs.com/documents/public/data-sheets/si512-13.pdf</desc>
<path d="M7.3874 13.0004
L7.3874 11.7304
" />
<path d="M7.9317 13.0004
L7.9317 12.3352
" />
<path d="M7.9317 12.3352
L7.8712 12.2142
" />
<path d="M7.8712 12.2142
L7.7503 12.1538
" />
<path d="M7.7503 12.1538
L7.5689 12.1538
" />
<path d="M7.5689 12.1538
L7.4479 12.2142
" />
<path d="M7.4479 12.2142
L7.3874 12.2747
" />
<path d="M8.3550 12.1538
L8.8388 12.1538
" />
<path d="M8.5364 11.7304
L8.5364 12.8190
" />
<path d="M8.5364 12.8190
L8.5969 12.9400
" />
<path d="M8.5969 12.9400
L8.7179 13.0004
" />
<path d="M8.7179 13.0004
L8.8388 13.0004
" />
<path d="M9.0807 12.1538
L9.5645 12.1538
" />
<path d="M9.2621 11.7304
L9.2621 12.8190
" />
<path d="M9.2621 12.8190
L9.3226 12.9400
" />
<path d="M9.3226 12.9400
L9.4436 13.0004
" />
<path d="M9.4436 13.0004
L9.5645 13.0004
" />
<path d="M9.9878 12.1538
L9.9878 13.4238
" />
<path d="M9.9878 12.2142
L10.1088 12.1538
" />
<path d="M10.1088 12.1538
L10.3507 12.1538
" />
<path d="M10.3507 12.1538
L10.4716 12.2142
" />
<path d="M10.4716 12.2142
L10.5321 12.2747
" />
<path d="M10.5321 12.2747
L10.5926 12.3957
" />
<path d="M10.5926 12.3957
L10.5926 12.7585
" />
<path d="M10.5926 12.7585
L10.5321 12.8795
" />
<path d="M10.5321 12.8795
L10.4716 12.9400
" />
<path d="M10.4716 12.9400
L10.3507 13.0004
" />
<path d="M10.3507 13.0004
L10.1088 13.0004
" />
<path d="M10.1088 13.0004
L9.9878 12.9400
" />
<path d="M11.0764 12.9400
L11.1973 13.0004
" />
<path d="M11.1973 13.0004
L11.4392 13.0004
" />
<path d="M11.4392 13.0004
L11.5602 12.9400
" />
<path d="M11.5602 12.9400
L11.6206 12.8190
" />
<path d="M11.6206 12.8190
L11.6206 12.7585
" />
<path d="M11.6206 12.7585
L11.5602 12.6376
" />
<path d="M11.5602 12.6376
L11.4392 12.5771
" />
<path d="M11.4392 12.5771
L11.2578 12.5771
" />
<path d="M11.2578 12.5771
L11.1368 12.5166
" />
<path d="M11.1368 12.5166
L11.0764 12.3957
" />
<path d="M11.0764 12.3957
L11.0764 12.3352
" />
<path d="M11.0764 12.3352
L11.1368 12.2142
" />
<path d="M11.1368 12.2142
L11.2578 12.1538
" />
<path d="M11.2578 12.1538
L11.4392 12.1538
" />
<path d="M11.4392 12.1538
L11.5602 12.2142
" />
<path d="M12.1649 12.8795
L12.2254 12.9400
" />
<path d="M12.2254 12.9400
L12.1649 13.0004
" />
<path d="M12.1649 13.0004
L12.1045 12.9400
" />
<path d="M12.1045 12.9400
L12.1649 12.8795
" />
<path d="M12.1649 12.8795
L12.1649 13.0004
" />
<path d="M12.1649 12.2142
L12.2254 12.2747
" />
<path d="M12.2254 12.2747
L12.1649 12.3352
" />
<path d="M12.1649 12.3352
L12.1045 12.2747
" />
<path d="M12.1045 12.2747
L12.1649 12.2142
" />
<path d="M12.1649 12.2142
L12.1649 12.3352
" />
<path d="M13.6769 11.6700
L12.5883 13.3028
" />
<path d="M15.0074 11.6700
L13.9188 13.3028
" />
<path d="M15.3098 12.1538
L15.5517 13.0004
" />
<path d="M15.5517 13.0004
L15.7936 12.3957
" />
<path d="M15.7936 12.3957
L16.0355 13.0004
" />
<path d="M16.0355 13.0004
L16.2774 12.1538
" />
<path d="M16.6403 12.1538
L16.8822 13.0004
" />
<path d="M16.8822 13.0004
L17.1241 12.3957
" />
<path d="M17.1241 12.3957
L17.3660 13.0004
" />
<path d="M17.3660 13.0004
L17.6079 12.1538
" />
<path d="M17.9708 12.1538
L18.2127 13.0004
" />
<path d="M18.2127 13.0004
L18.4546 12.3957
" />
<path d="M18.4546 12.3957
L18.6965 13.0004
" />
<path d="M18.6965 13.0004
L18.9384 12.1538
" />
<path d="M19.4222 12.8795
L19.4827 12.9400
" />
<path d="M19.4827 12.9400
L19.4222 13.0004
" />
<path d="M19.4222 13.0004
L19.3618 12.9400
" />
<path d="M19.3618 12.9400
L19.4222 12.8795
" />
<path d="M19.4222 12.8795
L19.4222 13.0004
" />
<path d="M19.9666 12.9400
L20.0875 13.0004
" />
<path d="M20.0875 13.0004
L20.3294 13.0004
" />
<path d="M20.3294 13.0004
L20.4504 12.9400
" />
<path d="M20.4504 12.9400
L20.5108 12.8190
" />
<path d="M20.5108 12.8190
L20.5108 12.7585
" />
<path d="M20.5108 12.7585
L20.4504 12.6376
" />
<path d="M20.4504 12.6376
L20.3294 12.5771
" />
<path d="M20.3294 12.5771
L20.1480 12.5771
" />
<path d="M20.1480 12.5771
L20.0270 12.5166
" />
<path d="M20.0270 12.5166
L19.9666 12.3957
" />
<path d="M19.9666 12.3957
L19.9666 12.3352
" />
<path d="M19.9666 12.3352
L20.0270 12.2142
" />
<path d="M20.0270 12.2142
L20.1480 12.1538
" />
<path d="M20.1480 12.1538
L20.3294 12.1538
" />
<path d="M20.3294 12.1538
L20.4504 12.2142
" />
<path d="M21.0551 13.0004
L21.0551 12.1538
" />
<path d="M21.0551 11.7304
L20.9947 11.7909
" />
<path d="M20.9947 11.7909
L21.0551 11.8514
" />
<path d="M21.0551 11.8514
L21.1156 11.7909
" />
<path d="M21.1156 11.7909
L21.0551 11.7304
" />
<path d="M21.0551 11.7304
L21.0551 11.8514
" />
<path d="M21.8414 13.0004
L21.7204 12.9400
" />
<path d="M21.7204 12.9400
L21.6599 12.8190
" />
<path d="M21.6599 12.8190
L21.6599 11.7304
" />
<path d="M22.8694 13.0004
L22.8694 12.3352
" />
<path d="M22.8694 12.3352
L22.8089 12.2142
" />
<path d="M22.8089 12.2142
L22.6880 12.1538
" />
<path d="M22.6880 12.1538
L22.4461 12.1538
" />
<path d="M22.4461 12.1538
L22.3251 12.2142
" />
<path d="M22.8694 12.9400
L22.7485 13.0004
" />
<path d="M22.7485 13.0004
L22.4461 13.0004
" />
<path d="M22.4461 13.0004
L22.3251 12.9400
" />
<path d="M22.3251 12.9400
L22.2647 12.8190
" />
<path d="M22.2647 12.8190
L22.2647 12.6980
" />
<path d="M22.2647 12.6980
L22.3251 12.5771
" />
<path d="M22.3251 12.5771
L22.4461 12.5166
" />
<path d="M22.4461 12.5166
L22.7485 12.5166
" />
<path d="M22.7485 12.5166
L22.8694 12.4561
" />
<path d="M23.4741 13.0004
L23.4741 11.7304
" />
<path d="M23.4741 12.2142
L23.5951 12.1538
" />
<path d="M23.5951 12.1538
L23.8370 12.1538
" />
<path d="M23.8370 12.1538
L23.9579 12.2142
" />
<path d="M23.9579 12.2142
L24.0184 12.2747
" />
<path d="M24.0184 12.2747
L24.0789 12.3957
" />
<path d="M24.0789 12.3957
L24.0789 12.7585
" />
<path d="M24.0789 12.7585
L24.0184 12.8795
" />
<path d="M24.0184 12.8795
L23.9579 12.9400
" />
<path d="M23.9579 12.9400
L23.8370 13.0004
" />
<path d="M23.8370 13.0004
L23.5951 13.0004
" />
<path d="M23.5951 13.0004
L23.4741 12.9400
" />
<path d="M24.5627 12.9400
L24.6836 13.0004
" />
<path d="M24.6836 13.0004
L24.9255 13.0004
" />
<path d="M24.9255 13.0004
L25.0465 12.9400
" />
<path d="M25.0465 12.9400
L25.1069 12.8190
" />
<path d="M25.1069 12.8190
L25.1069 12.7585
" />
<path d="M25.1069 12.7585
L25.0465 12.6376
" />
<path d="M25.0465 12.6376
L24.9255 12.5771
" />
<path d="M24.9255 12.5771
L24.7441 12.5771
" />
<path d="M24.7441 12.5771
L24.6231 12.5166
" />
<path d="M24.6231 12.5166
L24.5627 12.3957
" />
<path d="M24.5627 12.3957
L24.5627 12.3352
" />
<path d="M24.5627 12.3352
L24.6231 12.2142
" />
<path d="M24.6231 12.2142
L24.7441 12.1538
" />
<path d="M24.7441 12.1538
L24.9255 12.1538
" />
<path d="M24.9255 12.1538
L25.0465 12.2142
" />
<path d="M25.6512 12.8795
L25.7117 12.9400
" />
<path d="M25.7117 12.9400
L25.6512 13.0004
" />
<path d="M25.6512 13.0004
L25.5908 12.9400
" />
<path d="M25.5908 12.9400
L25.6512 12.8795
" />
<path d="M25.6512 12.8795
L25.6512 13.0004
" />
<path d="M26.8003 12.9400
L26.6794 13.0004
" />
<path d="M26.6794 13.0004
L26.4375 13.0004
" />
<path d="M26.4375 13.0004
L26.3165 12.9400
" />
<path d="M26.3165 12.9400
L26.2560 12.8795
" />
<path d="M26.2560 12.8795
L26.1956 12.7585
" />
<path d="M26.1956 12.7585
L26.1956 12.3957
" />
<path d="M26.1956 12.3957
L26.2560 12.2747
" />
<path d="M26.2560 12.2747
L26.3165 12.2142
" />
<path d="M26.3165 12.2142
L26.4375 12.1538
" />
<path d="M26.4375 12.1538
L26.6794 12.1538
" />
<path d="M26.6794 12.1538
L26.8003 12.2142
" />
<path d="M27.5261 13.0004
L27.4051 12.9400
" />
<path d="M27.4051 12.9400
L27.3446 12.8795
" />
<path d="M27.3446 12.8795
L27.2842 12.7585
" />
<path d="M27.2842 12.7585
L27.2842 12.3957
" />
<path d="M27.2842 12.3957
L27.3446 12.2747
" />
<path d="M27.3446 12.2747
L27.4051 12.2142
" />
<path d="M27.4051 12.2142
L27.5261 12.1538
" />
<path d="M27.5261 12.1538
L27.7075 12.1538
" />
<path d="M27.7075 12.1538
L27.8284 12.2142
" />
<path d="M27.8284 12.2142
L27.8889 12.2747
" />
<path d="M27.8889 12.2747
L27.9494 12.3957
" />
<path d="M27.9494 12.3957
L27.9494 12.7585
" />
<path d="M27.9494 12.7585
L27.8889 12.8795
" />
<path d="M27.8889 12.8795
L27.8284 12.9400
" />
<path d="M27.8284 12.9400
L27.7075 13.0004
" />
<path d="M27.7075 13.0004
L27.5261 13.0004
" />
<path d="M28.4936 13.0004
L28.4936 12.1538
" />
<path d="M28.4936 12.2747
L28.5541 12.2142
" />
<path d="M28.5541 12.2142
L28.6751 12.1538
" />
<path d="M28.6751 12.1538
L28.8565 12.1538
" />
<path d="M28.8565 12.1538
L28.9774 12.2142
" />
<path d="M28.9774 12.2142
L29.0379 12.3352
" />
<path d="M29.0379 12.3352
L29.0379 13.0004
" />
<path d="M29.0379 12.3352
L29.0984 12.2142
" />
<path d="M29.0984 12.2142
L29.2193 12.1538
" />
<path d="M29.2193 12.1538
L29.4008 12.1538
" />
<path d="M29.4008 12.1538
L29.5217 12.2142
" />
<path d="M29.5217 12.2142
L29.5822 12.3352
" />
<path d="M29.5822 12.3352
L29.5822 13.0004
" />
<path d="M31.0941 11.6700
L30.0055 13.3028
" />
<path d="M32.0617 13.0004
L32.0617 11.7304
" />
<path d="M32.0617 12.9400
L31.9408 13.0004
" />
<path d="M31.9408 13.0004
L31.6989 13.0004
" />
<path d="M31.6989 13.0004
L31.5779 12.9400
" />
<path d="M31.5779 12.9400
L31.5174 12.8795
" />
<path d="M31.5174 12.8795
L31.4570 12.7585
" />
<path d="M31.4570 12.7585
L31.4570 12.3957
" />
<path d="M31.4570 12.3957
L31.5174 12.2747
" />
<path d="M31.5174 12.2747
L31.5779 12.2142
" />
<path d="M31.5779 12.2142
L31.6989 12.1538
" />
<path d="M31.6989 12.1538
L31.9408 12.1538
" />
<path d="M31.9408 12.1538
L32.0617 12.2142
" />
<path d="M32.8479 13.0004
L32.7269 12.9400
" />
<path d="M32.7269 12.9400
L32.6664 12.8795
" />
<path d="M32.6664 12.8795
L32.6060 12.7585
" />
<path d="M32.6060 12.7585
L32.6060 12.3957
" />
<path d="M32.6060 12.3957
L32.6664 12.2747
" />
<path d="M32.6664 12.2747
L32.7269 12.2142
" />
<path d="M32.7269 12.2142
L32.8479 12.1538
" />
<path d="M32.8479 12.1538
L33.0293 12.1538
" />
<path d="M33.0293 12.1538
L33.1502 12.2142
" />
<path d="M33.1502 12.2142
L33.2107 12.2747
" />
<path d="M33.2107 12.2747
L33.2712 12.3957
" />
<path d="M33.2712 12.3957
L33.2712 12.7585
" />
<path d="M33.2712 12.7585
L33.2107 12.8795
" />
<path d="M33.2107 12.8795
L33.1502 12.9400
" />
<path d="M33.1502 12.9400
L33.0293 13.0004
" />
<path d="M33.0293 13.0004
L32.8479 13.0004
" />
<path d="M34.3597 12.9400
L34.2388 13.0004
" />
<path d="M34.2388 13.0004
L33.9969 13.0004
" />
<path d="M33.9969 13.0004
L33.8759 12.9400
" />
<path d="M33.8759 12.9400
L33.8154 12.8795
" />
<path d="M33.8154 12.8795
L33.7550 12.7585
" />
<path d="M33.7550 12.7585
L33.7550 12.3957
" />
<path d="M33.7550 12.3957
L33.8154 12.2747
" />
<path d="M33.8154 12.2747
L33.8759 12.2142
" />
<path d="M33.8759 12.2142
L33.9969 12.1538
" />
<path d="M33.9969 12.1538
L34.2388 12.1538
" />
<path d="M34.2388 12.1538
L34.3597 12.2142
" />
<path d="M35.4483 12.1538
L35.4483 13.0004
" />
<path d="M34.9040 12.1538
L34.9040 12.8190
" />
<path d="M34.9040 12.8190
L34.9645 12.9400
" />
<path d="M34.9645 12.9400
L35.0855 13.0004
" />
<path d="M35.0855 13.0004
L35.2669 13.0004
" />
<path d="M35.2669 13.0004
L35.3878 12.9400
" />
<path d="M35.3878 12.9400
L35.4483 12.8795
" />
<path d="M36.0530 13.0004
L36.0530 12.1538
" />
<path d="M36.0530 12.2747
L36.1135 12.2142
" />
<path d="M36.1135 12.2142
L36.2345 12.1538
" />
<path d="M36.2345 12.1538
L36.4159 12.1538
" />
<path d="M36.4159 12.1538
L36.5368 12.2142
" />
<path d="M36.5368 12.2142
L36.5973 12.3352
" />
<path d="M36.5973 12.3352
L36.5973 13.0004
" />
<path d="M36.5973 12.3352
L36.6578 12.2142
" />
<path d="M36.6578 12.2142
L36.7787 12.1538
" />
<path d="M36.7787 12.1538
L36.9602 12.1538
" />
<path d="M36.9602 12.1538
L37.0811 12.2142
" />
<path d="M37.0811 12.2142
L37.1416 12.3352
" />
<path d="M37.1416 12.3352
L37.1416 13.0004
" />
<path d="M38.2301 12.9400
L38.1092 13.0004
" />
<path d="M38.1092 13.0004
L37.8673 13.0004
" />
<path d="M37.8673 13.0004
L37.7463 12.9400
" />
<path d="M37.7463 12.9400
L37.6859 12.8190
" />
<path d="M37.6859 12.8190
L37.6859 12.3352
" />
<path d="M37.6859 12.3352
L37.7463 12.2142
" />
<path d="M37.7463 12.2142
L37.8673 12.1538
" />
<path d="M37.8673 12.1538
L38.1092 12.1538
" />
<path d="M38.1092 12.1538
L38.2301 12.2142
" />
<path d="M38.2301 12.2142
L38.2906 12.3352
" />
<path d="M38.2906 12.3352
L38.2906 12.4561
" />
<path d="M38.2906 12.4561
L37.6859 12.5771
" />
<path d="M38.8349 12.1538
L38.8349 13.0004
" />
<path d="M38.8349 12.2747
L38.8954 12.2142
" />
<path d="M38.8954 12.2142
L39.0164 12.1538
" />
<path d="M39.0164 12.1538
L39.1978 12.1538
" />
<path d="M39.1978 12.1538
L39.3187 12.2142
" />
<path d="M39.3187 12.2142
L39.3792 12.3352
" />
<path d="M39.3792 12.3352
L39.3792 13.0004
" />
<path d="M39.8025 12.1538
L40.2863 12.1538
" />
<path d="M39.9839 11.7304
L39.9839 12.8190
" />
<path d="M39.9839 12.8190
L40.0444 12.9400
" />
<path d="M40.0444 12.9400
L40.1654 13.0004
" />
<path d="M40.1654 13.0004
L40.2863 13.0004
" />
<path d="M40.6492 12.9400
L40.7701 13.0004
" />
<path d="M40.7701 13.0004
L41.0120 13.0004
" />
<path d="M41.0120 13.0004
L41.1330 12.9400
" />
<path d="M41.1330 12.9400
L41.1934 12.8190
" />
<path d="M41.1934 12.8190
L41.1934 12.7585
" />
<path d="M41.1934 12.7585
L41.1330 12.6376
" />
<path d="M41.1330 12.6376
L41.0120 12.5771
" />
<path d="M41.0120 12.5771
L40.8306 12.5771
" />
<path d="M40.8306 12.5771
L40.7096 12.5166
" />
<path d="M40.7096 12.5166
L40.6492 12.3957
" />
<path d="M40.6492 12.3957
L40.6492 12.3352
" />
<path d="M40.6492 12.3352
L40.7096 12.2142
" />
<path d="M40.7096 12.2142
L40.8306 12.1538
" />
<path d="M40.8306 12.1538
L41.0120 12.1538
" />
<path d="M41.0120 12.1538
L41.1330 12.2142
" />
<path d="M42.6449 11.6700
L41.5563 13.3028
" />
<path d="M43.0682 12.1538
L43.0682 13.4238
" />
<path d="M43.0682 12.2142
L43.1892 12.1538
" />
<path d="M43.1892 12.1538
L43.4311 12.1538
" />
<path d="M43.4311 12.1538
L43.5520 12.2142
" />
<path d="M43.5520 12.2142
L43.6125 12.2747
" />
<path d="M43.6125 12.2747
L43.6730 12.3957
" />
<path d="M43.6730 12.3957
L43.6730 12.7585
" />
<path d="M43.6730 12.7585
L43.6125 12.8795
" />
<path d="M43.6125 12.8795
L43.5520 12.9400
" />
<path d="M43.5520 12.9400
L43.4311 13.0004
" />
<path d="M43.4311 13.0004
L43.1892 13.0004
" />
<path d="M43.1892 13.0004
L43.0682 12.9400
" />
<path d="M44.7615 12.1538
L44.7615 13.0004
" />
<path d="M44.2172 12.1538
L44.2172 12.8190
" />
<path d="M44.2172 12.8190
L44.2777 12.9400
" />
<path d="M44.2777 12.9400
L44.3987 13.0004
" />
<path d="M44.3987 13.0004
L44.5801 13.0004
" />
<path d="M44.5801 13.0004
L44.7010 12.9400
" />
<path d="M44.7010 12.9400
L44.7615 12.8795
" />
<path d="M45.3662 13.0004
L45.3662 11.7304
" />
<path d="M45.3662 12.2142
L45.4872 12.1538
" />
<path d="M45.4872 12.1538
L45.7291 12.1538
" />
<path d="M45.7291 12.1538
L45.8500 12.2142
" />
<path d="M45.8500 12.2142
L45.9105 12.2747
" />
<path d="M45.9105 12.2747
L45.9710 12.3957
" />
<path d="M45.9710 12.3957
L45.9710 12.7585
" />
<path d="M45.9710 12.7585
L45.9105 12.8795
" />
<path d="M45.9105 12.8795
L45.8500 12.9400
" />
<path d="M45.8500 12.9400
L45.7291 13.0004
" />
<path d="M45.7291 13.0004
L45.4872 13.0004
" />
<path d="M45.4872 13.0004
L45.3662 12.9400
" />
<path d="M46.6967 13.0004
L46.5757 12.9400
" />
<path d="M46.5757 12.9400
L46.5152 12.8190
" />
<path d="M46.5152 12.8190
L46.5152 11.7304
" />
<path d="M47.1804 13.0004
L47.1804 12.1538
" />
<path d="M47.1804 11.7304
L47.1200 11.7909
" />
<path d="M47.1200 11.7909
L47.1804 11.8514
" />
<path d="M47.1804 11.8514
L47.2409 11.7909
" />
<path d="M47.2409 11.7909
L47.1804 11.7304
" />
<path d="M47.1804 11.7304
L47.1804 11.8514
" />
<path d="M48.3295 12.9400
L48.2086 13.0004
" />
<path d="M48.2086 13.0004
L47.9667 13.0004
" />
<path d="M47.9667 13.0004
L47.8457 12.9400
" />
<path d="M47.8457 12.9400
L47.7852 12.8795
" />
<path d="M47.7852 12.8795
L47.7248 12.7585
" />
<path d="M47.7248 12.7585
L47.7248 12.3957
" />
<path d="M47.7248 12.3957
L47.7852 12.2747
" />
<path d="M47.7852 12.2747
L47.8457 12.2142
" />
<path d="M47.8457 12.2142
L47.9667 12.1538
" />
<path d="M47.9667 12.1538
L48.2086 12.1538
" />
<path d="M48.2086 12.1538
L48.3295 12.2142
" />
<path d="M49.7810 11.6700
L48.6924 13.3028
" />
<path d="M50.7486 13.0004
L50.7486 11.7304
" />
<path d="M50.7486 12.9400
L50.6277 13.0004
" />
<path d="M50.6277 13.0004
L50.3858 13.0004
" />
<path d="M50.3858 13.0004
L50.2648 12.9400
" />
<path d="M50.2648 12.9400
L50.2043 12.8795
" />
<path d="M50.2043 12.8795
L50.1439 12.7585
" />
<path d="M50.1439 12.7585
L50.1439 12.3957
" />
<path d="M50.1439 12.3957
L50.2043 12.2747
" />
<path d="M50.2043 12.2747
L50.2648 12.2142
" />
<path d="M50.2648 12.2142
L50.3858 12.1538
" />
<path d="M50.3858 12.1538
L50.6277 12.1538
" />
<path d="M50.6277 12.1538
L50.7486 12.2142
" />
<path d="M51.8976 13.0004
L51.8976 12.3352
" />
<path d="M51.8976 12.3352
L51.8371 12.2142
" />
<path d="M51.8371 12.2142
L51.7162 12.1538
" />
<path d="M51.7162 12.1538
L51.4743 12.1538
" />
<path d="M51.4743 12.1538
L51.3533 12.2142
" />
<path d="M51.8976 12.9400
L51.7767 13.0004
" />
<path d="M51.7767 13.0004
L51.4743 13.0004
" />
<path d="M51.4743 13.0004
L51.3533 12.9400
" />
<path d="M51.3533 12.9400
L51.2929 12.8190
" />
<path d="M51.2929 12.8190
L51.2929 12.6980
" />
<path d="M51.2929 12.6980
L51.3533 12.5771
" />
<path d="M51.3533 12.5771
L51.4743 12.5166
" />
<path d="M51.4743 12.5166
L51.7767 12.5166
" />
<path d="M51.7767 12.5166
L51.8976 12.4561
" />
<path d="M52.3209 12.1538
L52.8047 12.1538
" />
<path d="M52.5023 11.7304
L52.5023 12.8190
" />
<path d="M52.5023 12.8190
L52.5628 12.9400
" />
<path d="M52.5628 12.9400
L52.6838 13.0004
" />
<path d="M52.6838 13.0004
L52.8047 13.0004
" />
<path d="M53.7723 13.0004
L53.7723 12.3352
" />
<path d="M53.7723 12.3352
L53.7118 12.2142
" />
<path d="M53.7118 12.2142
L53.5909 12.1538
" />
<path d="M53.5909 12.1538
L53.3490 12.1538
" />
<path d="M53.3490 12.1538
L53.2280 12.2142
" />
<path d="M53.7723 12.9400
L53.6514 13.0004
" />
<path d="M53.6514 13.0004
L53.3490 13.0004
" />
<path d="M53.3490 13.0004
L53.2280 12.9400
" />
<path d="M53.2280 12.9400
L53.1676 12.8190
" />
<path d="M53.1676 12.8190
L53.1676 12.6980
" />
<path d="M53.1676 12.6980
L53.2280 12.5771
" />
<path d="M53.2280 12.5771
L53.3490 12.5166
" />
<path d="M53.3490 12.5166
L53.6514 12.5166
" />
<path d="M53.6514 12.5166
L53.7723 12.4561
" />
<path d="M54.3770 12.5166
L55.3447 12.5166
" />
<path d="M55.8890 12.9400
L56.0099 13.0004
" />
<path d="M56.0099 13.0004
L56.2518 13.0004
" />
<path d="M56.2518 13.0004
L56.3728 12.9400
" />
<path d="M56.3728 12.9400
L56.4332 12.8190
" />
<path d="M56.4332 12.8190
L56.4332 12.7585
" />
<path d="M56.4332 12.7585
L56.3728 12.6376
" />
<path d="M56.3728 12.6376
L56.2518 12.5771
" />
<path d="M56.2518 12.5771
L56.0704 12.5771
" />
<path d="M56.0704 12.5771
L55.9494 12.5166
" />
<path d="M55.9494 12.5166
L55.8890 12.3957
" />
<path d="M55.8890 12.3957
L55.8890 12.3352
" />
<path d="M55.8890 12.3352
L55.9494 12.2142
" />
<path d="M55.9494 12.2142
L56.0704 12.1538
" />
<path d="M56.0704 12.1538
L56.2518 12.1538
" />
<path d="M56.2518 12.1538
L56.3728 12.2142
" />
<path d="M56.9775 13.0004
L56.9775 11.7304
" />
<path d="M57.5218 13.0004
L57.5218 12.3352
" />
<path d="M57.5218 12.3352
L57.4613 12.2142
" />
<path d="M57.4613 12.2142
L57.3404 12.1538
" />
<path d="M57.3404 12.1538
L57.1590 12.1538
" />
<path d="M57.1590 12.1538
L57.0380 12.2142
" />
<path d="M57.0380 12.2142
L56.9775 12.2747
" />
<path d="M58.6103 12.9400
L58.4894 13.0004
" />
<path d="M58.4894 13.0004
L58.2475 13.0004
" />
<path d="M58.2475 13.0004
L58.1265 12.9400
" />
<path d="M58.1265 12.9400
L58.0661 12.8190
" />
<path d="M58.0661 12.8190
L58.0661 12.3352
" />
<path d="M58.0661 12.3352
L58.1265 12.2142
" />
<path d="M58.1265 12.2142
L58.2475 12.1538
" />
<path d="M58.2475 12.1538
L58.4894 12.1538
" />
<path d="M58.4894 12.1538
L58.6103 12.2142
" />
<path d="M58.6103 12.2142
L58.6708 12.3352
" />
<path d="M58.6708 12.3352
L58.6708 12.4561
" />
<path d="M58.6708 12.4561
L58.0661 12.5771
" />
<path d="M59.6989 12.9400
L59.5780 13.0004
" />
<path d="M59.5780 13.0004
L59.3361 13.0004
" />
<path d="M59.3361 13.0004
L59.2151 12.9400
" />
<path d="M59.2151 12.9400
L59.1547 12.8190
" />
<path d="M59.1547 12.8190
L59.1547 12.3352
" />
<path d="M59.1547 12.3352
L59.2151 12.2142
" />
<path d="M59.2151 12.2142
L59.3361 12.1538
" />
<path d="M59.3361 12.1538
L59.5780 12.1538
" />
<path d="M59.5780 12.1538
L59.6989 12.2142
" />
<path d="M59.6989 12.2142
L59.7594 12.3352
" />
<path d="M59.7594 12.3352
L59.7594 12.4561
" />
<path d="M59.7594 12.4561
L59.1547 12.5771
" />
<path d="M60.1223 12.1538
L60.6061 12.1538
" />
<path d="M60.3037 11.7304
L60.3037 12.8190
" />
<path d="M60.3037 12.8190
L60.3642 12.9400
" />
<path d="M60.3642 12.9400
L60.4852 13.0004
" />
<path d="M60.4852 13.0004
L60.6061 13.0004
" />
<path d="M60.9690 12.9400
L61.0899 13.0004
" />
<path d="M61.0899 13.0004
L61.3318 13.0004
" />
<path d="M61.3318 13.0004
L61.4528 12.9400
" />
<path d="M61.4528 12.9400
L61.5132 12.8190
" />
<path d="M61.5132 12.8190
L61.5132 12.7585
" />
<path d="M61.5132 12.7585
L61.4528 12.6376
" />
<path d="M61.4528 12.6376
L61.3318 12.5771
" />
<path d="M61.3318 12.5771
L61.1504 12.5771
" />
<path d="M61.1504 12.5771
L61.0294 12.5166
" />
<path d="M61.0294 12.5166
L60.9690 12.3957
" />
<path d="M60.9690 12.3957
L60.9690 12.3352
" />
<path d="M60.9690 12.3352
L61.0294 12.2142
" />
<path d="M61.0294 12.2142
L61.1504 12.1538
" />
<path d="M61.1504 12.1538
L61.3318 12.1538
" />
<path d="M61.3318 12.1538
L61.4528 12.2142
" />
<path d="M62.9647 11.6700
L61.8761 13.3028
" />
<path d="M63.3276 12.9400
L63.4485 13.0004
" />
<path d="M63.4485 13.0004
L63.6904 13.0004
" />
<path d="M63.6904 13.0004
L63.8114 12.9400
" />
<path d="M63.8114 12.9400
L63.8718 12.8190
" />
<path d="M63.8718 12.8190
L63.8718 12.7585
" />
<path d="M63.8718 12.7585
L63.8114 12.6376
" />
<path d="M63.8114 12.6376
L63.6904 12.5771
" />
<path d="M63.6904 12.5771
L63.5090 12.5771
" />
<path d="M63.5090 12.5771
L63.3880 12.5166
" />
<path d="M63.3880 12.5166
L63.3276 12.3957
" />
<path d="M63.3276 12.3957
L63.3276 12.3352
" />
<path d="M63.3276 12.3352
L63.3880 12.2142
" />
<path d="M63.3880 12.2142
L63.5090 12.1538
" />
<path d="M63.5090 12.1538
L63.6904 12.1538
" />
<path d="M63.6904 12.1538
L63.8114 12.2142
" />
<path d="M64.4161 13.0004
L64.4161 12.1538
" />
<path d="M64.4161 11.7304
L64.3557 11.7909
" />
<path d="M64.3557 11.7909
L64.4161 11.8514
" />
<path d="M64.4161 11.8514
L64.4766 11.7909
" />
<path d="M64.4766 11.7909
L64.4161 11.7304
" />
<path d="M64.4161 11.7304
L64.4161 11.8514
" />
<path d="M65.6257 11.7304
L65.0209 11.7304
" />
<path d="M65.0209 11.7304
L64.9605 12.3352
" />
<path d="M64.9605 12.3352
L65.0209 12.2747
" />
<path d="M65.0209 12.2747
L65.1419 12.2142
" />
<path d="M65.1419 12.2142
L65.4443 12.2142
" />
<path d="M65.4443 12.2142
L65.5652 12.2747
" />
<path d="M65.5652 12.2747
L65.6257 12.3352
" />
<path d="M65.6257 12.3352
L65.6862 12.4561
" />
<path d="M65.6862 12.4561
L65.6862 12.7585
" />
<path d="M65.6862 12.7585
L65.6257 12.8795
" />
<path d="M65.6257 12.8795
L65.5652 12.9400
" />
<path d="M65.5652 12.9400
L65.4443 13.0004
" />
<path d="M65.4443 13.0004
L65.1419 13.0004
" />
<path d="M65.1419 13.0004
L65.0209 12.9400
" />
<path d="M65.0209 12.9400
L64.9605 12.8795
" />
<path d="M66.8957 13.0004
L66.1700 13.0004
" />
<path d="M66.5328 13.0004
L66.5328 11.7304
" />
<path d="M66.5328 11.7304
L66.4119 11.9119
" />
<path d="M66.4119 11.9119
L66.2909 12.0328
" />
<path d="M66.2909 12.0328
L66.1700 12.0933
" />
<path d="M67.3795 11.8514
L67.4399 11.7909
" />
<path d="M67.4399 11.7909
L67.5609 11.7304
" />
<path d="M67.5609 11.7304
L67.8633 11.7304
" />
<path d="M67.8633 11.7304
L67.9842 11.7909
" />
<path d="M67.9842 11.7909
L68.0447 11.8514
" />
<path d="M68.0447 11.8514
L68.1052 11.9723
" />
<path d="M68.1052 11.9723
L68.1052 12.0933
" />
<path d="M68.1052 12.0933
L68.0447 12.2747
" />
<path d="M68.0447 12.2747
L67.3190 13.0004
" />
<path d="M67.3190 13.0004
L68.1052 13.0004
" />
<path d="M68.6494 12.5166
L69.6171 12.5166
" />
<path d="M70.8871 13.0004
L70.1614 13.0004
" />
<path d="M70.5242 13.0004
L70.5242 11.7304
" />
<path d="M70.5242 11.7304
L70.4033 11.9119
" />
<path d="M70.4033 11.9119
L70.2823 12.0328
" />
<path d="M70.2823 12.0328
L70.1614 12.0933
" />
<path d="M71.3104 11.7304
L72.0966 11.7304
" />
<path d="M72.0966 11.7304
L71.6732 12.2142
" />
<path d="M71.6732 12.2142
L71.8547 12.2142
" />
<path d="M71.8547 12.2142
L71.9756 12.2747
" />
<path d="M71.9756 12.2747
L72.0361 12.3352
" />
<path d="M72.0361 12.3352
L72.0966 12.4561
" />
<path d="M72.0966 12.4561
L72.0966 12.7585
" />
<path d="M72.0966 12.7585
L72.0361 12.8795
" />
<path d="M72.0361 12.8795
L71.9756 12.9400
" />
<path d="M71.9756 12.9400
L71.8547 13.0004
" />
<path d="M71.8547 13.0004
L71.4918 13.0004
" />
<path d="M71.4918 13.0004
L71.3709 12.9400
" />
<path d="M71.3709 12.9400
L71.3104 12.8795
" />
<path d="M72.6408 12.8795
L72.7013 12.9400
" />
<path d="M72.7013 12.9400
L72.6408 13.0004
" />
<path d="M72.6408 13.0004
L72.5804 12.9400
" />
<path d="M72.5804 12.9400
L72.6408 12.8795
" />
<path d="M72.6408 12.8795
L72.6408 13.0004
" />
<path d="M73.2456 12.1538
L73.2456 13.4238
" />
<path d="M73.2456 12.2142
L73.3666 12.1538
" />
<path d="M73.3666 12.1538
L73.6085 12.1538
" />
<path d="M73.6085 12.1538
L73.7294 12.2142
" />
<path d="M73.7294 12.2142
L73.7899 12.2747
" />
<path d="M73.7899 12.2747
L73.8504 12.3957
" />
<path d="M73.8504 12.3957
L73.8504 12.7585
" />
<path d="M73.8504 12.7585
L73.7899 12.8795
" />
<path d="M73.7899 12.8795
L73.7294 12.9400
" />
<path d="M73.7294 12.9400
L73.6085 13.0004
" />
<path d="M73.6085 13.0004
L73.3666 13.0004
" />
<path d="M73.3666 13.0004
L73.2456 12.9400
" />
<path d="M74.9389 13.0004
L74.9389 11.7304
" />
<path d="M74.9389 12.9400
L74.8180 13.0004
" />
<path d="M74.8180 13.0004
L74.5761 13.0004
" />
<path d="M74.5761 13.0004
L74.4551 12.9400
" />
<path d="M74.4551 12.9400
L74.3946 12.8795
" />
<path d="M74.3946 12.8795
L74.3342 12.7585
" />
<path d="M74.3342 12.7585
L74.3342 12.3957
" />
<path d="M74.3342 12.3957
L74.3946 12.2747
" />
<path d="M74.3946 12.2747
L74.4551 12.2142
" />
<path d="M74.4551 12.2142
L74.5761 12.1538
" />
<path d="M74.5761 12.1538
L74.8180 12.1538
" />
<path d="M74.8180 12.1538
L74.9389 12.2142
" />
<path d="M75.3622 12.1538
L75.8460 12.1538
" />
<path d="M75.5436 13.0004
L75.5436 11.9119
" />
<path d="M75.5436 11.9119
L75.6041 11.7909
" />
<path d="M75.6041 11.7909
L75.7251 11.7304
" />
<path d="M75.7251 11.7304
L75.8460 11.7304
" />
</g></g> 
</svg>
