<?xml version="1.0" standalone="no"?>
 <!DOCTYPE svg PUBLIC "-//W3C//DTD SVG 1.1//EN" 
 "http://www.w3.org/Graphics/SVG/1.1/DTD/svg11.dtd"> 
<svg
  xmlns:svg="http://www.w3.org/2000/svg"
  xmlns="http://www.w3.org/2000/svg"
  xmlns:xlink="http://www.w3.org/1999/xlink"
  version="1.1"
  width="81.4070mm" height="34.4678mm" viewBox="0.0000 0.0000 81.4070 34.4678">
<title>SVG Image created as working.svg date 2023/08/08 17:24:05 </title>
  <desc>Image generated by Eeschema-SVG </desc>
<g style="fill:#000000; fill-opacity:1.0000;stroke:#000000; stroke-opacity:1.0000;
stroke-linecap:round; stroke-linejoin:round;"
 transform="translate(0 0) scale(1 1)">
</g>
<g style="fill:#840000; fill-opacity:0.0; 
stroke:#840000; stroke-width:0.0000; stroke-opacity:1; 
stroke-linecap:round; stroke-linejoin:round;">
</g>
<g style="fill:#FFFFC2; fill-opacity:0.0; 
stroke:#FFFFC2; stroke-width:0.0000; stroke-opacity:1; 
stroke-linecap:round; stroke-linejoin:round;">
</g>
<g style="fill:#FFFFC2; fill-opacity:1.0000; 
stroke:#FFFFC2; stroke-width:0.0000; stroke-opacity:1; 
stroke-linecap:round; stroke-linejoin:round;">
<rect x="37.495300" y="16.592900" width="15.240000" height="10.160000" rx="0.000000" />
</g>
<g style="fill:#840084; fill-opacity:1.0000; 
stroke:#840084; stroke-width:0.0000; stroke-opacity:1; 
stroke-linecap:round; stroke-linejoin:round;">
</g>
<g style="fill:#840000; fill-opacity:1.0000; 
stroke:#840000; stroke-width:0.0000; stroke-opacity:1; 
stroke-linecap:round; stroke-linejoin:round;">
</g>
<g style="fill:#840000; fill-opacity:0.0; 
stroke:#840000; stroke-width:0.2540; stroke-opacity:1; 
stroke-linecap:round; stroke-linejoin:round;">
<rect x="37.495300" y="16.592900" width="15.240000" height="10.160000" rx="0.000000" />
</g>
<g style="fill:#840000; fill-opacity:0.0; 
stroke:#840000; stroke-width:0.1524; stroke-opacity:1; 
stroke-linecap:round; stroke-linejoin:round;">
<path style="fill:#840000; fill-opacity:0.0; 
stroke:#840000; stroke-width:0.1524; stroke-opacity:1; 
stroke-linecap:round; stroke-linejoin:round;fill:none"
d="M 40.0353,19.1329
40.6703,19.1329
40.6703,17.8629
41.3053,17.8629
41.3053,19.1329
41.9403,19.1329
41.9403,17.8629
42.5753,17.8629
42.5753,19.1329
" /> 
<path d="M37.4953 21.6729
L34.9553 21.6729
" />
</g>
<g style="fill:#006464; fill-opacity:0.0; 
stroke:#006464; stroke-width:0.1524; stroke-opacity:1; 
stroke-linecap:round; stroke-linejoin:round;">
<text x="38.0033" y="22.3079"
textLength="3.9527" font-size="1.6933" lengthAdjust="spacingAndGlyphs"
text-anchor="start" opacity="0">E/D</text>
<g class="stroked-text"><desc>E/D</desc>
<path d="M38.4058 21.5872
L38.8292 21.5872
" />
<path d="M39.0106 22.2524
L38.4058 22.2524
" />
<path d="M38.4058 22.2524
L38.4058 20.9824
" />
<path d="M38.4058 20.9824
L39.0106 20.9824
" />
<path d="M40.4620 20.9220
L39.3734 22.5548
" />
<path d="M40.8853 22.2524
L40.8853 20.9824
" />
<path d="M40.8853 20.9824
L41.1877 20.9824
" />
<path d="M41.1877 20.9824
L41.3691 21.0429
" />
<path d="M41.3691 21.0429
L41.4901 21.1639
" />
<path d="M41.4901 21.1639
L41.5506 21.2848
" />
<path d="M41.5506 21.2848
L41.6110 21.5267
" />
<path d="M41.6110 21.5267
L41.6110 21.7081
" />
<path d="M41.6110 21.7081
L41.5506 21.9500
" />
<path d="M41.5506 21.9500
L41.4901 22.0710
" />
<path d="M41.4901 22.0710
L41.3691 22.1920
" />
<path d="M41.3691 22.1920
L41.1877 22.2524
" />
<path d="M41.1877 22.2524
L40.8853 22.2524
" />
</g></g>
<g style="fill:#A90000; fill-opacity:0.0; 
stroke:#A90000; stroke-width:0.1524; stroke-opacity:1; 
stroke-linecap:round; stroke-linejoin:round;">
<text x="36.2253" y="21.4189"
textLength="1.4127" font-size="1.6933" lengthAdjust="spacingAndGlyphs"
text-anchor="middle" opacity="0">1</text>
<g class="stroked-text"><desc>1</desc>
<path d="M36.5882 21.2554
L35.8625 21.2554
" />
<path d="M36.2253 21.2554
L36.2253 19.9854
" />
<path d="M36.2253 19.9854
L36.1044 20.1669
" />
<path d="M36.1044 20.1669
L35.9834 20.2878
" />
<path d="M35.9834 20.2878
L35.8625 20.3483
" />
</g></g>
<g style="fill:#840000; fill-opacity:0.0; 
stroke:#840000; stroke-width:0.1524; stroke-opacity:1; 
stroke-linecap:round; stroke-linejoin:round;">
<path d="M45.1153 26.7529
L45.1153 29.2929
" />
</g>
<g style="fill:#006464; fill-opacity:0.0; 
stroke:#006464; stroke-width:0.1524; stroke-opacity:1; 
stroke-linecap:round; stroke-linejoin:round;">
<g transform="rotate(-90.000000 45.1153 26.2449)">
<text x="45.1153" y="26.8799"
textLength="4.0737" font-size="1.6933" lengthAdjust="spacingAndGlyphs"
text-anchor="start" opacity="0">GND</text>
</g>
<g class="stroked-text"><desc>GND</desc>
<path d="M44.4853 25.1770
L44.4248 25.2980
" />
<path d="M44.4248 25.2980
L44.4248 25.4794
" />
<path d="M44.4248 25.4794
L44.4853 25.6608
" />
<path d="M44.4853 25.6608
L44.6063 25.7818
" />
<path d="M44.6063 25.7818
L44.7272 25.8423
" />
<path d="M44.7272 25.8423
L44.9691 25.9027
" />
<path d="M44.9691 25.9027
L45.1505 25.9027
" />
<path d="M45.1505 25.9027
L45.3924 25.8423
" />
<path d="M45.3924 25.8423
L45.5134 25.7818
" />
<path d="M45.5134 25.7818
L45.6344 25.6608
" />
<path d="M45.6344 25.6608
L45.6948 25.4794
" />
<path d="M45.6948 25.4794
L45.6948 25.3585
" />
<path d="M45.6948 25.3585
L45.6344 25.1770
" />
<path d="M45.6344 25.1770
L45.5739 25.1166
" />
<path d="M45.5739 25.1166
L45.1505 25.1166
" />
<path d="M45.1505 25.1166
L45.1505 25.3585
" />
<path d="M45.6948 24.5723
L44.4248 24.5723
" />
<path d="M44.4248 24.5723
L45.6948 23.8466
" />
<path d="M45.6948 23.8466
L44.4248 23.8466
" />
<path d="M45.6948 23.2418
L44.4248 23.2418
" />
<path d="M44.4248 23.2418
L44.4248 22.9394
" />
<path d="M44.4248 22.9394
L44.4853 22.7580
" />
<path d="M44.4853 22.7580
L44.6063 22.6370
" />
<path d="M44.6063 22.6370
L44.7272 22.5765
" />
<path d="M44.7272 22.5765
L44.9691 22.5161
" />
<path d="M44.9691 22.5161
L45.1505 22.5161
" />
<path d="M45.1505 22.5161
L45.3924 22.5765
" />
<path d="M45.3924 22.5765
L45.5134 22.6370
" />
<path d="M45.5134 22.6370
L45.6344 22.7580
" />
<path d="M45.6344 22.7580
L45.6948 22.9394
" />
<path d="M45.6948 22.9394
L45.6948 23.2418
" />
</g></g>
<g style="fill:#A90000; fill-opacity:0.0; 
stroke:#A90000; stroke-width:0.1524; stroke-opacity:1; 
stroke-linecap:round; stroke-linejoin:round;">
<g transform="rotate(-90.000000 44.8613 28.0229)">
<text x="44.8613" y="28.0229"
textLength="1.4127" font-size="1.6933" lengthAdjust="spacingAndGlyphs"
text-anchor="middle" opacity="0">3</text>
</g>
<g class="stroked-text"><desc>3</desc>
<path d="M43.4278 28.4461
L43.4278 27.6599
" />
<path d="M43.4278 27.6599
L43.9116 28.0833
" />
<path d="M43.9116 28.0833
L43.9116 27.9018
" />
<path d="M43.9116 27.9018
L43.9721 27.7809
" />
<path d="M43.9721 27.7809
L44.0326 27.7204
" />
<path d="M44.0326 27.7204
L44.1535 27.6599
" />
<path d="M44.1535 27.6599
L44.4559 27.6599
" />
<path d="M44.4559 27.6599
L44.5769 27.7204
" />
<path d="M44.5769 27.7204
L44.6374 27.7809
" />
<path d="M44.6374 27.7809
L44.6978 27.9018
" />
<path d="M44.6978 27.9018
L44.6978 28.2647
" />
<path d="M44.6978 28.2647
L44.6374 28.3856
" />
<path d="M44.6374 28.3856
L44.5769 28.4461
" />
</g></g>
<g style="fill:#840000; fill-opacity:0.0; 
stroke:#840000; stroke-width:0.1524; stroke-opacity:1; 
stroke-linecap:round; stroke-linejoin:round;">
<path d="M52.7353 21.6729
L55.2753 21.6729
" />
</g>
<g style="fill:#006464; fill-opacity:0.0; 
stroke:#006464; stroke-width:0.1524; stroke-opacity:1; 
stroke-linecap:round; stroke-linejoin:round;">
<text x="52.2273" y="22.3079"
textLength="3.8318" font-size="1.6933" lengthAdjust="spacingAndGlyphs"
text-anchor="end" opacity="0">OUT</text>
<g class="stroked-text"><desc>OUT</desc>
<path d="M49.0427 20.9824
L49.2846 20.9824
" />
<path d="M49.2846 20.9824
L49.4056 21.0429
" />
<path d="M49.4056 21.0429
L49.5265 21.1639
" />
<path d="M49.5265 21.1639
L49.5870 21.4058
" />
<path d="M49.5870 21.4058
L49.5870 21.8291
" />
<path d="M49.5870 21.8291
L49.5265 22.0710
" />
<path d="M49.5265 22.0710
L49.4056 22.1920
" />
<path d="M49.4056 22.1920
L49.2846 22.2524
" />
<path d="M49.2846 22.2524
L49.0427 22.2524
" />
<path d="M49.0427 22.2524
L48.9218 22.1920
" />
<path d="M48.9218 22.1920
L48.8008 22.0710
" />
<path d="M48.8008 22.0710
L48.7404 21.8291
" />
<path d="M48.7404 21.8291
L48.7404 21.4058
" />
<path d="M48.7404 21.4058
L48.8008 21.1639
" />
<path d="M48.8008 21.1639
L48.9218 21.0429
" />
<path d="M48.9218 21.0429
L49.0427 20.9824
" />
<path d="M50.1313 20.9824
L50.1313 22.0105
" />
<path d="M50.1313 22.0105
L50.1918 22.1315
" />
<path d="M50.1918 22.1315
L50.2523 22.1920
" />
<path d="M50.2523 22.1920
L50.3732 22.2524
" />
<path d="M50.3732 22.2524
L50.6151 22.2524
" />
<path d="M50.6151 22.2524
L50.7361 22.1920
" />
<path d="M50.7361 22.1920
L50.7966 22.1315
" />
<path d="M50.7966 22.1315
L50.8570 22.0105
" />
<path d="M50.8570 22.0105
L50.8570 20.9824
" />
<path d="M51.2804 20.9824
L52.0061 20.9824
" />
<path d="M51.6433 22.2524
L51.6433 20.9824
" />
</g></g>
<g style="fill:#A90000; fill-opacity:0.0; 
stroke:#A90000; stroke-width:0.1524; stroke-opacity:1; 
stroke-linecap:round; stroke-linejoin:round;">
<text x="54.0053" y="21.4189"
textLength="1.4127" font-size="1.6933" lengthAdjust="spacingAndGlyphs"
text-anchor="middle" opacity="0">4</text>
<g class="stroked-text"><desc>4</desc>
<path d="M54.2472 20.4088
L54.2472 21.2554
" />
<path d="M53.9448 19.9250
L53.6425 20.8321
" />
<path d="M53.6425 20.8321
L54.4286 20.8321
" />
</g></g>
<g style="fill:#840000; fill-opacity:0.0; 
stroke:#840000; stroke-width:0.1524; stroke-opacity:1; 
stroke-linecap:round; stroke-linejoin:round;">
<path d="M52.7353 24.2129
L55.2753 24.2129
" />
</g>
<g style="fill:#006464; fill-opacity:0.0; 
stroke:#006464; stroke-width:0.1524; stroke-opacity:1; 
stroke-linecap:round; stroke-linejoin:round;">
<text x="52.2273" y="24.8479"
textLength="5.0413" font-size="1.6933" lengthAdjust="spacingAndGlyphs"
text-anchor="end" opacity="0">OUT2</text>
<g class="stroked-text"><desc>OUT2</desc>
<path d="M47.8332 23.5224
L48.0751 23.5224
" />
<path d="M48.0751 23.5224
L48.1961 23.5829
" />
<path d="M48.1961 23.5829
L48.3170 23.7039
" />
<path d="M48.3170 23.7039
L48.3775 23.9458
" />
<path d="M48.3775 23.9458
L48.3775 24.3691
" />
<path d="M48.3775 24.3691
L48.3170 24.6110
" />
<path d="M48.3170 24.6110
L48.1961 24.7320
" />
<path d="M48.1961 24.7320
L48.0751 24.7924
" />
<path d="M48.0751 24.7924
L47.8332 24.7924
" />
<path d="M47.8332 24.7924
L47.7123 24.7320
" />
<path d="M47.7123 24.7320
L47.5913 24.6110
" />
<path d="M47.5913 24.6110
L47.5309 24.3691
" />
<path d="M47.5309 24.3691
L47.5309 23.9458
" />
<path d="M47.5309 23.9458
L47.5913 23.7039
" />
<path d="M47.5913 23.7039
L47.7123 23.5829
" />
<path d="M47.7123 23.5829
L47.8332 23.5224
" />
<path d="M48.9218 23.5224
L48.9218 24.5505
" />
<path d="M48.9218 24.5505
L48.9823 24.6715
" />
<path d="M48.9823 24.6715
L49.0428 24.7320
" />
<path d="M49.0428 24.7320
L49.1637 24.7924
" />
<path d="M49.1637 24.7924
L49.4056 24.7924
" />
<path d="M49.4056 24.7924
L49.5266 24.7320
" />
<path d="M49.5266 24.7320
L49.5871 24.6715
" />
<path d="M49.5871 24.6715
L49.6475 24.5505
" />
<path d="M49.6475 24.5505
L49.6475 23.5224
" />
<path d="M50.0709 23.5224
L50.7966 23.5224
" />
<path d="M50.4338 24.7924
L50.4338 23.5224
" />
<path d="M51.1595 23.6434
L51.2199 23.5829
" />
<path d="M51.2199 23.5829
L51.3409 23.5224
" />
<path d="M51.3409 23.5224
L51.6433 23.5224
" />
<path d="M51.6433 23.5224
L51.7642 23.5829
" />
<path d="M51.7642 23.5829
L51.8247 23.6434
" />
<path d="M51.8247 23.6434
L51.8852 23.7643
" />
<path d="M51.8852 23.7643
L51.8852 23.8853
" />
<path d="M51.8852 23.8853
L51.8247 24.0667
" />
<path d="M51.8247 24.0667
L51.0990 24.7924
" />
<path d="M51.0990 24.7924
L51.8852 24.7924
" />
</g></g>
<g style="fill:#A90000; fill-opacity:0.0; 
stroke:#A90000; stroke-width:0.1524; stroke-opacity:1; 
stroke-linecap:round; stroke-linejoin:round;">
<text x="54.0053" y="23.9589"
textLength="1.4127" font-size="1.6933" lengthAdjust="spacingAndGlyphs"
text-anchor="middle" opacity="0">5</text>
<g class="stroked-text"><desc>5</desc>
<path d="M54.3077 22.5254
L53.7029 22.5254
" />
<path d="M53.7029 22.5254
L53.6425 23.1302
" />
<path d="M53.6425 23.1302
L53.7029 23.0697
" />
<path d="M53.7029 23.0697
L53.8239 23.0092
" />
<path d="M53.8239 23.0092
L54.1263 23.0092
" />
<path d="M54.1263 23.0092
L54.2472 23.0697
" />
<path d="M54.2472 23.0697
L54.3077 23.1302
" />
<path d="M54.3077 23.1302
L54.3682 23.2511
" />
<path d="M54.3682 23.2511
L54.3682 23.5535
" />
<path d="M54.3682 23.5535
L54.3077 23.6745
" />
<path d="M54.3077 23.6745
L54.2472 23.7350
" />
<path d="M54.2472 23.7350
L54.1263 23.7954
" />
<path d="M54.1263 23.7954
L53.8239 23.7954
" />
<path d="M53.8239 23.7954
L53.7029 23.7350
" />
<path d="M53.7029 23.7350
L53.6425 23.6745
" />
</g></g>
<g style="fill:#840000; fill-opacity:0.0; 
stroke:#840000; stroke-width:0.1524; stroke-opacity:1; 
stroke-linecap:round; stroke-linejoin:round;">
<path d="M45.1153 16.5929
L45.1153 14.0529
" />
</g>
<g style="fill:#006464; fill-opacity:0.0; 
stroke:#006464; stroke-width:0.1524; stroke-opacity:1; 
stroke-linecap:round; stroke-linejoin:round;">
<g transform="rotate(-90.000000 45.1153 17.1009)">
<text x="45.1153" y="17.7359"
textLength="3.8318" font-size="1.6933" lengthAdjust="spacingAndGlyphs"
text-anchor="end" opacity="0">VDD</text>
</g>
<g class="stroked-text"><desc>VDD</desc>
<path d="M44.4248 20.7087
L45.6948 20.2854
" />
<path d="M45.6948 20.2854
L44.4248 19.8620
" />
<path d="M45.6948 19.4387
L44.4248 19.4387
" />
<path d="M44.4248 19.4387
L44.4248 19.1363
" />
<path d="M44.4248 19.1363
L44.4853 18.9549
" />
<path d="M44.4853 18.9549
L44.6063 18.8339
" />
<path d="M44.6063 18.8339
L44.7272 18.7734
" />
<path d="M44.7272 18.7734
L44.9691 18.7130
" />
<path d="M44.9691 18.7130
L45.1505 18.7130
" />
<path d="M45.1505 18.7130
L45.3924 18.7734
" />
<path d="M45.3924 18.7734
L45.5134 18.8339
" />
<path d="M45.5134 18.8339
L45.6344 18.9549
" />
<path d="M45.6344 18.9549
L45.6948 19.1363
" />
<path d="M45.6948 19.1363
L45.6948 19.4387
" />
<path d="M45.6948 18.1687
L44.4248 18.1687
" />
<path d="M44.4248 18.1687
L44.4248 17.8663
" />
<path d="M44.4248 17.8663
L44.4853 17.6849
" />
<path d="M44.4853 17.6849
L44.6063 17.5639
" />
<path d="M44.6063 17.5639
L44.7272 17.5034
" />
<path d="M44.7272 17.5034
L44.9691 17.4430
" />
<path d="M44.9691 17.4430
L45.1505 17.4430
" />
<path d="M45.1505 17.4430
L45.3924 17.5034
" />
<path d="M45.3924 17.5034
L45.5134 17.5639
" />
<path d="M45.5134 17.5639
L45.6344 17.6849
" />
<path d="M45.6344 17.6849
L45.6948 17.8663
" />
<path d="M45.6948 17.8663
L45.6948 18.1687
" />
</g></g>
<g style="fill:#A90000; fill-opacity:0.0; 
stroke:#A90000; stroke-width:0.1524; stroke-opacity:1; 
stroke-linecap:round; stroke-linejoin:round;">
<g transform="rotate(-90.000000 44.8613 15.3229)">
<text x="44.8613" y="15.3229"
textLength="1.4127" font-size="1.6933" lengthAdjust="spacingAndGlyphs"
text-anchor="middle" opacity="0">6</text>
</g>
<g class="stroked-text"><desc>6</desc>
<path d="M43.4278 15.0809
L43.4278 15.3228
" />
<path d="M43.4278 15.3228
L43.4883 15.4437
" />
<path d="M43.4883 15.4437
L43.5488 15.5042
" />
<path d="M43.5488 15.5042
L43.7302 15.6252
" />
<path d="M43.7302 15.6252
L43.9721 15.6856
" />
<path d="M43.9721 15.6856
L44.4559 15.6856
" />
<path d="M44.4559 15.6856
L44.5769 15.6252
" />
<path d="M44.5769 15.6252
L44.6374 15.5647
" />
<path d="M44.6374 15.5647
L44.6978 15.4437
" />
<path d="M44.6978 15.4437
L44.6978 15.2018
" />
<path d="M44.6978 15.2018
L44.6374 15.0809
" />
<path d="M44.6374 15.0809
L44.5769 15.0204
" />
<path d="M44.5769 15.0204
L44.4559 14.9599
" />
<path d="M44.4559 14.9599
L44.1535 14.9599
" />
<path d="M44.1535 14.9599
L44.0326 15.0204
" />
<path d="M44.0326 15.0204
L43.9721 15.0809
" />
<path d="M43.9721 15.0809
L43.9116 15.2018
" />
<path d="M43.9116 15.2018
L43.9116 15.4437
" />
<path d="M43.9116 15.4437
L43.9721 15.5647
" />
<path d="M43.9721 15.5647
L44.0326 15.6252
" />
<path d="M44.0326 15.6252
L44.1535 15.6856
" />
</g></g>
<g style="fill:#840084; fill-opacity:0.0; 
stroke:#840084; stroke-width:0.1524; stroke-opacity:1; 
stroke-linecap:round; stroke-linejoin:round;">
</g>
<g style="fill:#006464; fill-opacity:0.0; 
stroke:#006464; stroke-width:0.1524; stroke-opacity:1; 
stroke-linecap:round; stroke-linejoin:round;">
</g>
<g style="fill:#006464; fill-opacity:0.0; 
stroke:#006464; stroke-width:0.1588; stroke-opacity:1; 
stroke-linecap:round; stroke-linejoin:round;">
<text x="38.7653" y="15.9579"
textLength="2.6415" font-size="1.6933" lengthAdjust="spacingAndGlyphs"
text-anchor="middle" opacity="0">U?</text>
<g class="stroked-text"><desc>U?</desc>
<path d="M37.8581 14.6321
L37.8581 15.6602
" />
<path d="M37.8581 15.6602
L37.9186 15.7812
" />
<path d="M37.9186 15.7812
L37.9791 15.8417
" />
<path d="M37.9791 15.8417
L38.1000 15.9021
" />
<path d="M38.1000 15.9021
L38.3419 15.9021
" />
<path d="M38.3419 15.9021
L38.4629 15.8417
" />
<path d="M38.4629 15.8417
L38.5234 15.7812
" />
<path d="M38.5234 15.7812
L38.5838 15.6602
" />
<path d="M38.5838 15.6602
L38.5838 14.6321
" />
<path d="M39.3701 15.7812
L39.4305 15.8417
" />
<path d="M39.4305 15.8417
L39.3701 15.9021
" />
<path d="M39.3701 15.9021
L39.3096 15.8417
" />
<path d="M39.3096 15.8417
L39.3701 15.7812
" />
<path d="M39.3701 15.7812
L39.3701 15.9021
" />
<path d="M39.1282 14.6926
L39.2491 14.6321
" />
<path d="M39.2491 14.6321
L39.5515 14.6321
" />
<path d="M39.5515 14.6321
L39.6724 14.6926
" />
<path d="M39.6724 14.6926
L39.7329 14.8136
" />
<path d="M39.7329 14.8136
L39.7329 14.9345
" />
<path d="M39.7329 14.9345
L39.6724 15.0555
" />
<path d="M39.6724 15.0555
L39.6120 15.1159
" />
<path d="M39.6120 15.1159
L39.4910 15.1764
" />
<path d="M39.4910 15.1764
L39.4305 15.2369
" />
<path d="M39.4305 15.2369
L39.3701 15.3578
" />
<path d="M39.3701 15.3578
L39.3701 15.4183
" />
</g><text x="50.1953" y="15.9579"
textLength="6.3909" font-size="1.6933" lengthAdjust="spacingAndGlyphs"
text-anchor="middle" opacity="0">XUX71</text>
<g class="stroked-text"><desc>XUX71</desc>
<path d="M47.2925 14.6321
L48.1391 15.9021
" />
<path d="M48.1391 14.6321
L47.2925 15.9021
" />
<path d="M48.6229 14.6321
L48.6229 15.6602
" />
<path d="M48.6229 15.6602
L48.6834 15.7812
" />
<path d="M48.6834 15.7812
L48.7439 15.8417
" />
<path d="M48.7439 15.8417
L48.8648 15.9021
" />
<path d="M48.8648 15.9021
L49.1067 15.9021
" />
<path d="M49.1067 15.9021
L49.2277 15.8417
" />
<path d="M49.2277 15.8417
L49.2882 15.7812
" />
<path d="M49.2882 15.7812
L49.3486 15.6602
" />
<path d="M49.3486 15.6602
L49.3486 14.6321
" />
<path d="M49.8325 14.6321
L50.6791 15.9021
" />
<path d="M50.6791 14.6321
L49.8325 15.9021
" />
<path d="M51.0420 14.6321
L51.8886 14.6321
" />
<path d="M51.8886 14.6321
L51.3444 15.9021
" />
<path d="M53.0377 15.9021
L52.3120 15.9021
" />
<path d="M52.6748 15.9021
L52.6748 14.6321
" />
<path d="M52.6748 14.6321
L52.5539 14.8136
" />
<path d="M52.5539 14.8136
L52.4329 14.9345
" />
<path d="M52.4329 14.9345
L52.3120 14.9950
" />
</g></g>
<g style="fill:#840084; fill-opacity:0.0; 
stroke:#840084; stroke-width:0.1588; stroke-opacity:1; 
stroke-linecap:round; stroke-linejoin:round;">
<text x="46.3853" y="31.1979"
textLength="56.4648" font-size="1.6933" lengthAdjust="spacingAndGlyphs"
text-anchor="middle" opacity="0">Oscillator:Oscillator_SMD_IDT_JU6-6_7.0x5.0mm_P2.54mm</text>
<g class="stroked-text"><desc>Oscillator:Oscillator_SMD_IDT_JU6-6_7.0x5.0mm_P2.54mm</desc>
<path d="M18.8083 29.8721
L19.0502 29.8721
" />
<path d="M19.0502 29.8721
L19.1712 29.9326
" />
<path d="M19.1712 29.9326
L19.2921 30.0536
" />
<path d="M19.2921 30.0536
L19.3526 30.2955
" />
<path d="M19.3526 30.2955
L19.3526 30.7188
" />
<path d="M19.3526 30.7188
L19.2921 30.9607
" />
<path d="M19.2921 30.9607
L19.1712 31.0817
" />
<path d="M19.1712 31.0817
L19.0502 31.1421
" />
<path d="M19.0502 31.1421
L18.8083 31.1421
" />
<path d="M18.8083 31.1421
L18.6874 31.0817
" />
<path d="M18.6874 31.0817
L18.5664 30.9607
" />
<path d="M18.5664 30.9607
L18.5060 30.7188
" />
<path d="M18.5060 30.7188
L18.5060 30.2955
" />
<path d="M18.5060 30.2955
L18.5664 30.0536
" />
<path d="M18.5664 30.0536
L18.6874 29.9326
" />
<path d="M18.6874 29.9326
L18.8083 29.8721
" />
<path d="M19.8365 31.0817
L19.9574 31.1421
" />
<path d="M19.9574 31.1421
L20.1993 31.1421
" />
<path d="M20.1993 31.1421
L20.3203 31.0817
" />
<path d="M20.3203 31.0817
L20.3807 30.9607
" />
<path d="M20.3807 30.9607
L20.3807 30.9002
" />
<path d="M20.3807 30.9002
L20.3203 30.7793
" />
<path d="M20.3203 30.7793
L20.1993 30.7188
" />
<path d="M20.1993 30.7188
L20.0179 30.7188
" />
<path d="M20.0179 30.7188
L19.8969 30.6583
" />
<path d="M19.8969 30.6583
L19.8365 30.5374
" />
<path d="M19.8365 30.5374
L19.8365 30.4769
" />
<path d="M19.8365 30.4769
L19.8969 30.3559
" />
<path d="M19.8969 30.3559
L20.0179 30.2955
" />
<path d="M20.0179 30.2955
L20.1993 30.2955
" />
<path d="M20.1993 30.2955
L20.3203 30.3559
" />
<path d="M21.4693 31.0817
L21.3484 31.1421
" />
<path d="M21.3484 31.1421
L21.1065 31.1421
" />
<path d="M21.1065 31.1421
L20.9855 31.0817
" />
<path d="M20.9855 31.0817
L20.9250 31.0212
" />
<path d="M20.9250 31.0212
L20.8646 30.9002
" />
<path d="M20.8646 30.9002
L20.8646 30.5374
" />
<path d="M20.8646 30.5374
L20.9250 30.4164
" />
<path d="M20.9250 30.4164
L20.9855 30.3559
" />
<path d="M20.9855 30.3559
L21.1065 30.2955
" />
<path d="M21.1065 30.2955
L21.3484 30.2955
" />
<path d="M21.3484 30.2955
L21.4693 30.3559
" />
<path d="M22.0136 31.1421
L22.0136 30.2955
" />
<path d="M22.0136 29.8721
L21.9532 29.9326
" />
<path d="M21.9532 29.9326
L22.0136 29.9931
" />
<path d="M22.0136 29.9931
L22.0741 29.9326
" />
<path d="M22.0741 29.9326
L22.0136 29.8721
" />
<path d="M22.0136 29.8721
L22.0136 29.9931
" />
<path d="M22.7999 31.1421
L22.6789 31.0817
" />
<path d="M22.6789 31.0817
L22.6184 30.9607
" />
<path d="M22.6184 30.9607
L22.6184 29.8721
" />
<path d="M23.4651 31.1421
L23.3441 31.0817
" />
<path d="M23.3441 31.0817
L23.2836 30.9607
" />
<path d="M23.2836 30.9607
L23.2836 29.8721
" />
<path d="M24.4931 31.1421
L24.4931 30.4769
" />
<path d="M24.4931 30.4769
L24.4326 30.3559
" />
<path d="M24.4326 30.3559
L24.3117 30.2955
" />
<path d="M24.3117 30.2955
L24.0698 30.2955
" />
<path d="M24.0698 30.2955
L23.9488 30.3559
" />
<path d="M24.4931 31.0817
L24.3722 31.1421
" />
<path d="M24.3722 31.1421
L24.0698 31.1421
" />
<path d="M24.0698 31.1421
L23.9488 31.0817
" />
<path d="M23.9488 31.0817
L23.8884 30.9607
" />
<path d="M23.8884 30.9607
L23.8884 30.8397
" />
<path d="M23.8884 30.8397
L23.9488 30.7188
" />
<path d="M23.9488 30.7188
L24.0698 30.6583
" />
<path d="M24.0698 30.6583
L24.3722 30.6583
" />
<path d="M24.3722 30.6583
L24.4931 30.5978
" />
<path d="M24.9164 30.2955
L25.4002 30.2955
" />
<path d="M25.0978 29.8721
L25.0978 30.9607
" />
<path d="M25.0978 30.9607
L25.1583 31.0817
" />
<path d="M25.1583 31.0817
L25.2793 31.1421
" />
<path d="M25.2793 31.1421
L25.4002 31.1421
" />
<path d="M26.0050 31.1421
L25.8840 31.0817
" />
<path d="M25.8840 31.0817
L25.8235 31.0212
" />
<path d="M25.8235 31.0212
L25.7631 30.9002
" />
<path d="M25.7631 30.9002
L25.7631 30.5374
" />
<path d="M25.7631 30.5374
L25.8235 30.4164
" />
<path d="M25.8235 30.4164
L25.8840 30.3559
" />
<path d="M25.8840 30.3559
L26.0050 30.2955
" />
<path d="M26.0050 30.2955
L26.1864 30.2955
" />
<path d="M26.1864 30.2955
L26.3073 30.3559
" />
<path d="M26.3073 30.3559
L26.3678 30.4164
" />
<path d="M26.3678 30.4164
L26.4283 30.5374
" />
<path d="M26.4283 30.5374
L26.4283 30.9002
" />
<path d="M26.4283 30.9002
L26.3678 31.0212
" />
<path d="M26.3678 31.0212
L26.3073 31.0817
" />
<path d="M26.3073 31.0817
L26.1864 31.1421
" />
<path d="M26.1864 31.1421
L26.0050 31.1421
" />
<path d="M26.9725 31.1421
L26.9725 30.2955
" />
<path d="M26.9725 30.5374
L27.0330 30.4164
" />
<path d="M27.0330 30.4164
L27.0935 30.3559
" />
<path d="M27.0935 30.3559
L27.2144 30.2955
" />
<path d="M27.2144 30.2955
L27.3354 30.2955
" />
<path d="M27.7587 31.0212
L27.8192 31.0817
" />
<path d="M27.8192 31.0817
L27.7587 31.1421
" />
<path d="M27.7587 31.1421
L27.6983 31.0817
" />
<path d="M27.6983 31.0817
L27.7587 31.0212
" />
<path d="M27.7587 31.0212
L27.7587 31.1421
" />
<path d="M27.7587 30.3559
L27.8192 30.4164
" />
<path d="M27.8192 30.4164
L27.7587 30.4769
" />
<path d="M27.7587 30.4769
L27.6983 30.4164
" />
<path d="M27.6983 30.4164
L27.7587 30.3559
" />
<path d="M27.7587 30.3559
L27.7587 30.4769
" />
<path d="M28.6054 29.8721
L28.8473 29.8721
" />
<path d="M28.8473 29.8721
L28.9683 29.9326
" />
<path d="M28.9683 29.9326
L29.0892 30.0536
" />
<path d="M29.0892 30.0536
L29.1497 30.2955
" />
<path d="M29.1497 30.2955
L29.1497 30.7188
" />
<path d="M29.1497 30.7188
L29.0892 30.9607
" />
<path d="M29.0892 30.9607
L28.9683 31.0817
" />
<path d="M28.9683 31.0817
L28.8473 31.1421
" />
<path d="M28.8473 31.1421
L28.6054 31.1421
" />
<path d="M28.6054 31.1421
L28.4845 31.0817
" />
<path d="M28.4845 31.0817
L28.3635 30.9607
" />
<path d="M28.3635 30.9607
L28.3031 30.7188
" />
<path d="M28.3031 30.7188
L28.3031 30.2955
" />
<path d="M28.3031 30.2955
L28.3635 30.0536
" />
<path d="M28.3635 30.0536
L28.4845 29.9326
" />
<path d="M28.4845 29.9326
L28.6054 29.8721
" />
<path d="M29.6336 31.0817
L29.7545 31.1421
" />
<path d="M29.7545 31.1421
L29.9964 31.1421
" />
<path d="M29.9964 31.1421
L30.1174 31.0817
" />
<path d="M30.1174 31.0817
L30.1778 30.9607
" />
<path d="M30.1778 30.9607
L30.1778 30.9002
" />
<path d="M30.1778 30.9002
L30.1174 30.7793
" />
<path d="M30.1174 30.7793
L29.9964 30.7188
" />
<path d="M29.9964 30.7188
L29.8150 30.7188
" />
<path d="M29.8150 30.7188
L29.6940 30.6583
" />
<path d="M29.6940 30.6583
L29.6336 30.5374
" />
<path d="M29.6336 30.5374
L29.6336 30.4769
" />
<path d="M29.6336 30.4769
L29.6940 30.3559
" />
<path d="M29.6940 30.3559
L29.8150 30.2955
" />
<path d="M29.8150 30.2955
L29.9964 30.2955
" />
<path d="M29.9964 30.2955
L30.1174 30.3559
" />
<path d="M31.2664 31.0817
L31.1455 31.1421
" />
<path d="M31.1455 31.1421
L30.9036 31.1421
" />
<path d="M30.9036 31.1421
L30.7826 31.0817
" />
<path d="M30.7826 31.0817
L30.7221 31.0212
" />
<path d="M30.7221 31.0212
L30.6617 30.9002
" />
<path d="M30.6617 30.9002
L30.6617 30.5374
" />
<path d="M30.6617 30.5374
L30.7221 30.4164
" />
<path d="M30.7221 30.4164
L30.7826 30.3559
" />
<path d="M30.7826 30.3559
L30.9036 30.2955
" />
<path d="M30.9036 30.2955
L31.1455 30.2955
" />
<path d="M31.1455 30.2955
L31.2664 30.3559
" />
<path d="M31.8107 31.1421
L31.8107 30.2955
" />
<path d="M31.8107 29.8721
L31.7503 29.9326
" />
<path d="M31.7503 29.9326
L31.8107 29.9931
" />
<path d="M31.8107 29.9931
L31.8712 29.9326
" />
<path d="M31.8712 29.9326
L31.8107 29.8721
" />
<path d="M31.8107 29.8721
L31.8107 29.9931
" />
<path d="M32.5970 31.1421
L32.4760 31.0817
" />
<path d="M32.4760 31.0817
L32.4155 30.9607
" />
<path d="M32.4155 30.9607
L32.4155 29.8721
" />
<path d="M33.2622 31.1421
L33.1412 31.0817
" />
<path d="M33.1412 31.0817
L33.0807 30.9607
" />
<path d="M33.0807 30.9607
L33.0807 29.8721
" />
<path d="M34.2902 31.1421
L34.2902 30.4769
" />
<path d="M34.2902 30.4769
L34.2297 30.3559
" />
<path d="M34.2297 30.3559
L34.1088 30.2955
" />
<path d="M34.1088 30.2955
L33.8669 30.2955
" />
<path d="M33.8669 30.2955
L33.7459 30.3559
" />
<path d="M34.2902 31.0817
L34.1693 31.1421
" />
<path d="M34.1693 31.1421
L33.8669 31.1421
" />
<path d="M33.8669 31.1421
L33.7459 31.0817
" />
<path d="M33.7459 31.0817
L33.6855 30.9607
" />
<path d="M33.6855 30.9607
L33.6855 30.8397
" />
<path d="M33.6855 30.8397
L33.7459 30.7188
" />
<path d="M33.7459 30.7188
L33.8669 30.6583
" />
<path d="M33.8669 30.6583
L34.1693 30.6583
" />
<path d="M34.1693 30.6583
L34.2902 30.5978
" />
<path d="M34.7135 30.2955
L35.1973 30.2955
" />
<path d="M34.8949 29.8721
L34.8949 30.9607
" />
<path d="M34.8949 30.9607
L34.9554 31.0817
" />
<path d="M34.9554 31.0817
L35.0764 31.1421
" />
<path d="M35.0764 31.1421
L35.1973 31.1421
" />
<path d="M35.8021 31.1421
L35.6811 31.0817
" />
<path d="M35.6811 31.0817
L35.6206 31.0212
" />
<path d="M35.6206 31.0212
L35.5602 30.9002
" />
<path d="M35.5602 30.9002
L35.5602 30.5374
" />
<path d="M35.5602 30.5374
L35.6206 30.4164
" />
<path d="M35.6206 30.4164
L35.6811 30.3559
" />
<path d="M35.6811 30.3559
L35.8021 30.2955
" />
<path d="M35.8021 30.2955
L35.9835 30.2955
" />
<path d="M35.9835 30.2955
L36.1044 30.3559
" />
<path d="M36.1044 30.3559
L36.1649 30.4164
" />
<path d="M36.1649 30.4164
L36.2254 30.5374
" />
<path d="M36.2254 30.5374
L36.2254 30.9002
" />
<path d="M36.2254 30.9002
L36.1649 31.0212
" />
<path d="M36.1649 31.0212
L36.1044 31.0817
" />
<path d="M36.1044 31.0817
L35.9835 31.1421
" />
<path d="M35.9835 31.1421
L35.8021 31.1421
" />
<path d="M36.7696 31.1421
L36.7696 30.2955
" />
<path d="M36.7696 30.5374
L36.8301 30.4164
" />
<path d="M36.8301 30.4164
L36.8906 30.3559
" />
<path d="M36.8906 30.3559
L37.0115 30.2955
" />
<path d="M37.0115 30.2955
L37.1325 30.2955
" />
<path d="M37.2535 31.2631
L38.2211 31.2631
" />
<path d="M38.4630 31.0817
L38.6444 31.1421
" />
<path d="M38.6444 31.1421
L38.9468 31.1421
" />
<path d="M38.9468 31.1421
L39.0677 31.0817
" />
<path d="M39.0677 31.0817
L39.1282 31.0212
" />
<path d="M39.1282 31.0212
L39.1887 30.9002
" />
<path d="M39.1887 30.9002
L39.1887 30.7793
" />
<path d="M39.1887 30.7793
L39.1282 30.6583
" />
<path d="M39.1282 30.6583
L39.0677 30.5978
" />
<path d="M39.0677 30.5978
L38.9468 30.5374
" />
<path d="M38.9468 30.5374
L38.7049 30.4769
" />
<path d="M38.7049 30.4769
L38.5839 30.4164
" />
<path d="M38.5839 30.4164
L38.5234 30.3559
" />
<path d="M38.5234 30.3559
L38.4630 30.2350
" />
<path d="M38.4630 30.2350
L38.4630 30.1140
" />
<path d="M38.4630 30.1140
L38.5234 29.9931
" />
<path d="M38.5234 29.9931
L38.5839 29.9326
" />
<path d="M38.5839 29.9326
L38.7049 29.8721
" />
<path d="M38.7049 29.8721
L39.0072 29.8721
" />
<path d="M39.0072 29.8721
L39.1887 29.9326
" />
<path d="M39.7329 31.1421
L39.7329 29.8721
" />
<path d="M39.7329 29.8721
L40.1563 30.7793
" />
<path d="M40.1563 30.7793
L40.5796 29.8721
" />
<path d="M40.5796 29.8721
L40.5796 31.1421
" />
<path d="M41.1843 31.1421
L41.1843 29.8721
" />
<path d="M41.1843 29.8721
L41.4867 29.8721
" />
<path d="M41.4867 29.8721
L41.6681 29.9326
" />
<path d="M41.6681 29.9326
L41.7891 30.0536
" />
<path d="M41.7891 30.0536
L41.8496 30.1745
" />
<path d="M41.8496 30.1745
L41.9100 30.4164
" />
<path d="M41.9100 30.4164
L41.9100 30.5978
" />
<path d="M41.9100 30.5978
L41.8496 30.8397
" />
<path d="M41.8496 30.8397
L41.7891 30.9607
" />
<path d="M41.7891 30.9607
L41.6681 31.0817
" />
<path d="M41.6681 31.0817
L41.4867 31.1421
" />
<path d="M41.4867 31.1421
L41.1843 31.1421
" />
<path d="M42.1520 31.2631
L43.1196 31.2631
" />
<path d="M43.4219 31.1421
L43.4219 29.8721
" />
<path d="M44.0267 31.1421
L44.0267 29.8721
" />
<path d="M44.0267 29.8721
L44.3291 29.8721
" />
<path d="M44.3291 29.8721
L44.5105 29.9326
" />
<path d="M44.5105 29.9326
L44.6315 30.0536
" />
<path d="M44.6315 30.0536
L44.6920 30.1745
" />
<path d="M44.6920 30.1745
L44.7524 30.4164
" />
<path d="M44.7524 30.4164
L44.7524 30.5978
" />
<path d="M44.7524 30.5978
L44.6920 30.8397
" />
<path d="M44.6920 30.8397
L44.6315 30.9607
" />
<path d="M44.6315 30.9607
L44.5105 31.0817
" />
<path d="M44.5105 31.0817
L44.3291 31.1421
" />
<path d="M44.3291 31.1421
L44.0267 31.1421
" />
<path d="M45.1153 29.8721
L45.8410 29.8721
" />
<path d="M45.4782 31.1421
L45.4782 29.8721
" />
<path d="M45.9620 31.2631
L46.9296 31.2631
" />
<path d="M47.5948 29.8721
L47.5948 30.7793
" />
<path d="M47.5948 30.7793
L47.5343 30.9607
" />
<path d="M47.5343 30.9607
L47.4134 31.0817
" />
<path d="M47.4134 31.0817
L47.2319 31.1421
" />
<path d="M47.2319 31.1421
L47.1110 31.1421
" />
<path d="M48.1995 29.8721
L48.1995 30.9002
" />
<path d="M48.1995 30.9002
L48.2600 31.0212
" />
<path d="M48.2600 31.0212
L48.3205 31.0817
" />
<path d="M48.3205 31.0817
L48.4414 31.1421
" />
<path d="M48.4414 31.1421
L48.6833 31.1421
" />
<path d="M48.6833 31.1421
L48.8043 31.0817
" />
<path d="M48.8043 31.0817
L48.8648 31.0212
" />
<path d="M48.8648 31.0212
L48.9252 30.9002
" />
<path d="M48.9252 30.9002
L48.9252 29.8721
" />
<path d="M50.0743 29.8721
L49.8324 29.8721
" />
<path d="M49.8324 29.8721
L49.7115 29.9326
" />
<path d="M49.7115 29.9326
L49.6510 29.9931
" />
<path d="M49.6510 29.9931
L49.5300 30.1745
" />
<path d="M49.5300 30.1745
L49.4696 30.4164
" />
<path d="M49.4696 30.4164
L49.4696 30.9002
" />
<path d="M49.4696 30.9002
L49.5300 31.0212
" />
<path d="M49.5300 31.0212
L49.5905 31.0817
" />
<path d="M49.5905 31.0817
L49.7115 31.1421
" />
<path d="M49.7115 31.1421
L49.9534 31.1421
" />
<path d="M49.9534 31.1421
L50.0743 31.0817
" />
<path d="M50.0743 31.0817
L50.1348 31.0212
" />
<path d="M50.1348 31.0212
L50.1953 30.9002
" />
<path d="M50.1953 30.9002
L50.1953 30.5978
" />
<path d="M50.1953 30.5978
L50.1348 30.4769
" />
<path d="M50.1348 30.4769
L50.0743 30.4164
" />
<path d="M50.0743 30.4164
L49.9534 30.3559
" />
<path d="M49.9534 30.3559
L49.7115 30.3559
" />
<path d="M49.7115 30.3559
L49.5905 30.4164
" />
<path d="M49.5905 30.4164
L49.5300 30.4769
" />
<path d="M49.5300 30.4769
L49.4696 30.5978
" />
<path d="M50.7395 30.6583
L51.7072 30.6583
" />
<path d="M52.8562 29.8721
L52.6143 29.8721
" />
<path d="M52.6143 29.8721
L52.4934 29.9326
" />
<path d="M52.4934 29.9326
L52.4329 29.9931
" />
<path d="M52.4329 29.9931
L52.3119 30.1745
" />
<path d="M52.3119 30.1745
L52.2515 30.4164
" />
<path d="M52.2515 30.4164
L52.2515 30.9002
" />
<path d="M52.2515 30.9002
L52.3119 31.0212
" />
<path d="M52.3119 31.0212
L52.3724 31.0817
" />
<path d="M52.3724 31.0817
L52.4934 31.1421
" />
<path d="M52.4934 31.1421
L52.7353 31.1421
" />
<path d="M52.7353 31.1421
L52.8562 31.0817
" />
<path d="M52.8562 31.0817
L52.9167 31.0212
" />
<path d="M52.9167 31.0212
L52.9772 30.9002
" />
<path d="M52.9772 30.9002
L52.9772 30.5978
" />
<path d="M52.9772 30.5978
L52.9167 30.4769
" />
<path d="M52.9167 30.4769
L52.8562 30.4164
" />
<path d="M52.8562 30.4164
L52.7353 30.3559
" />
<path d="M52.7353 30.3559
L52.4934 30.3559
" />
<path d="M52.4934 30.3559
L52.3724 30.4164
" />
<path d="M52.3724 30.4164
L52.3119 30.4769
" />
<path d="M52.3119 30.4769
L52.2515 30.5978
" />
<path d="M53.2191 31.2631
L54.1867 31.2631
" />
<path d="M54.3681 29.8721
L55.2147 29.8721
" />
<path d="M55.2147 29.8721
L54.6705 31.1421
" />
<path d="M55.6985 31.0212
L55.7590 31.0817
" />
<path d="M55.7590 31.0817
L55.6985 31.1421
" />
<path d="M55.6985 31.1421
L55.6381 31.0817
" />
<path d="M55.6381 31.0817
L55.6985 31.0212
" />
<path d="M55.6985 31.0212
L55.6985 31.1421
" />
<path d="M56.5452 29.8721
L56.6662 29.8721
" />
<path d="M56.6662 29.8721
L56.7871 29.9326
" />
<path d="M56.7871 29.9326
L56.8476 29.9931
" />
<path d="M56.8476 29.9931
L56.9081 30.1140
" />
<path d="M56.9081 30.1140
L56.9686 30.3559
" />
<path d="M56.9686 30.3559
L56.9686 30.6583
" />
<path d="M56.9686 30.6583
L56.9081 30.9002
" />
<path d="M56.9081 30.9002
L56.8476 31.0212
" />
<path d="M56.8476 31.0212
L56.7871 31.0817
" />
<path d="M56.7871 31.0817
L56.6662 31.1421
" />
<path d="M56.6662 31.1421
L56.5452 31.1421
" />
<path d="M56.5452 31.1421
L56.4243 31.0817
" />
<path d="M56.4243 31.0817
L56.3638 31.0212
" />
<path d="M56.3638 31.0212
L56.3033 30.9002
" />
<path d="M56.3033 30.9002
L56.2429 30.6583
" />
<path d="M56.2429 30.6583
L56.2429 30.3559
" />
<path d="M56.2429 30.3559
L56.3033 30.1140
" />
<path d="M56.3033 30.1140
L56.3638 29.9931
" />
<path d="M56.3638 29.9931
L56.4243 29.9326
" />
<path d="M56.4243 29.9326
L56.5452 29.8721
" />
<path d="M57.3919 31.1421
L58.0571 30.2955
" />
<path d="M57.3919 30.2955
L58.0571 31.1421
" />
<path d="M59.1457 29.8721
L58.5409 29.8721
" />
<path d="M58.5409 29.8721
L58.4805 30.4769
" />
<path d="M58.4805 30.4769
L58.5409 30.4164
" />
<path d="M58.5409 30.4164
L58.6619 30.3559
" />
<path d="M58.6619 30.3559
L58.9643 30.3559
" />
<path d="M58.9643 30.3559
L59.0852 30.4164
" />
<path d="M59.0852 30.4164
L59.1457 30.4769
" />
<path d="M59.1457 30.4769
L59.2062 30.5978
" />
<path d="M59.2062 30.5978
L59.2062 30.9002
" />
<path d="M59.2062 30.9002
L59.1457 31.0212
" />
<path d="M59.1457 31.0212
L59.0852 31.0817
" />
<path d="M59.0852 31.0817
L58.9643 31.1421
" />
<path d="M58.9643 31.1421
L58.6619 31.1421
" />
<path d="M58.6619 31.1421
L58.5409 31.0817
" />
<path d="M58.5409 31.0817
L58.4805 31.0212
" />
<path d="M59.7504 31.0212
L59.8109 31.0817
" />
<path d="M59.8109 31.0817
L59.7504 31.1421
" />
<path d="M59.7504 31.1421
L59.6900 31.0817
" />
<path d="M59.6900 31.0817
L59.7504 31.0212
" />
<path d="M59.7504 31.0212
L59.7504 31.1421
" />
<path d="M60.5971 29.8721
L60.7181 29.8721
" />
<path d="M60.7181 29.8721
L60.8390 29.9326
" />
<path d="M60.8390 29.9326
L60.8995 29.9931
" />
<path d="M60.8995 29.9931
L60.9600 30.1140
" />
<path d="M60.9600 30.1140
L61.0205 30.3559
" />
<path d="M61.0205 30.3559
L61.0205 30.6583
" />
<path d="M61.0205 30.6583
L60.9600 30.9002
" />
<path d="M60.9600 30.9002
L60.8995 31.0212
" />
<path d="M60.8995 31.0212
L60.8390 31.0817
" />
<path d="M60.8390 31.0817
L60.7181 31.1421
" />
<path d="M60.7181 31.1421
L60.5971 31.1421
" />
<path d="M60.5971 31.1421
L60.4762 31.0817
" />
<path d="M60.4762 31.0817
L60.4157 31.0212
" />
<path d="M60.4157 31.0212
L60.3552 30.9002
" />
<path d="M60.3552 30.9002
L60.2948 30.6583
" />
<path d="M60.2948 30.6583
L60.2948 30.3559
" />
<path d="M60.2948 30.3559
L60.3552 30.1140
" />
<path d="M60.3552 30.1140
L60.4157 29.9931
" />
<path d="M60.4157 29.9931
L60.4762 29.9326
" />
<path d="M60.4762 29.9326
L60.5971 29.8721
" />
<path d="M61.5647 31.1421
L61.5647 30.2955
" />
<path d="M61.5647 30.4164
L61.6252 30.3559
" />
<path d="M61.6252 30.3559
L61.7462 30.2955
" />
<path d="M61.7462 30.2955
L61.9276 30.2955
" />
<path d="M61.9276 30.2955
L62.0485 30.3559
" />
<path d="M62.0485 30.3559
L62.1090 30.4769
" />
<path d="M62.1090 30.4769
L62.1090 31.1421
" />
<path d="M62.1090 30.4769
L62.1695 30.3559
" />
<path d="M62.1695 30.3559
L62.2904 30.2955
" />
<path d="M62.2904 30.2955
L62.4719 30.2955
" />
<path d="M62.4719 30.2955
L62.5928 30.3559
" />
<path d="M62.5928 30.3559
L62.6533 30.4769
" />
<path d="M62.6533 30.4769
L62.6533 31.1421
" />
<path d="M63.2580 31.1421
L63.2580 30.2955
" />
<path d="M63.2580 30.4164
L63.3185 30.3559
" />
<path d="M63.3185 30.3559
L63.4395 30.2955
" />
<path d="M63.4395 30.2955
L63.6209 30.2955
" />
<path d="M63.6209 30.2955
L63.7418 30.3559
" />
<path d="M63.7418 30.3559
L63.8023 30.4769
" />
<path d="M63.8023 30.4769
L63.8023 31.1421
" />
<path d="M63.8023 30.4769
L63.8628 30.3559
" />
<path d="M63.8628 30.3559
L63.9837 30.2955
" />
<path d="M63.9837 30.2955
L64.1652 30.2955
" />
<path d="M64.1652 30.2955
L64.2861 30.3559
" />
<path d="M64.2861 30.3559
L64.3466 30.4769
" />
<path d="M64.3466 30.4769
L64.3466 31.1421
" />
<path d="M64.6490 31.2631
L65.6166 31.2631
" />
<path d="M65.9189 31.1421
L65.9189 29.8721
" />
<path d="M65.9189 29.8721
L66.4027 29.8721
" />
<path d="M66.4027 29.8721
L66.5237 29.9326
" />
<path d="M66.5237 29.9326
L66.5842 29.9931
" />
<path d="M66.5842 29.9931
L66.6446 30.1140
" />
<path d="M66.6446 30.1140
L66.6446 30.2955
" />
<path d="M66.6446 30.2955
L66.5842 30.4164
" />
<path d="M66.5842 30.4164
L66.5237 30.4769
" />
<path d="M66.5237 30.4769
L66.4027 30.5374
" />
<path d="M66.4027 30.5374
L65.9189 30.5374
" />
<path d="M67.1285 29.9931
L67.1889 29.9326
" />
<path d="M67.1889 29.9326
L67.3099 29.8721
" />
<path d="M67.3099 29.8721
L67.6123 29.8721
" />
<path d="M67.6123 29.8721
L67.7332 29.9326
" />
<path d="M67.7332 29.9326
L67.7937 29.9931
" />
<path d="M67.7937 29.9931
L67.8542 30.1140
" />
<path d="M67.8542 30.1140
L67.8542 30.2350
" />
<path d="M67.8542 30.2350
L67.7937 30.4164
" />
<path d="M67.7937 30.4164
L67.0680 31.1421
" />
<path d="M67.0680 31.1421
L67.8542 31.1421
" />
<path d="M68.3984 31.0212
L68.4589 31.0817
" />
<path d="M68.4589 31.0817
L68.3984 31.1421
" />
<path d="M68.3984 31.1421
L68.3380 31.0817
" />
<path d="M68.3380 31.0817
L68.3984 31.0212
" />
<path d="M68.3984 31.0212
L68.3984 31.1421
" />
<path d="M69.6080 29.8721
L69.0032 29.8721
" />
<path d="M69.0032 29.8721
L68.9428 30.4769
" />
<path d="M68.9428 30.4769
L69.0032 30.4164
" />
<path d="M69.0032 30.4164
L69.1242 30.3559
" />
<path d="M69.1242 30.3559
L69.4266 30.3559
" />
<path d="M69.4266 30.3559
L69.5475 30.4164
" />
<path d="M69.5475 30.4164
L69.6080 30.4769
" />
<path d="M69.6080 30.4769
L69.6685 30.5978
" />
<path d="M69.6685 30.5978
L69.6685 30.9002
" />
<path d="M69.6685 30.9002
L69.6080 31.0212
" />
<path d="M69.6080 31.0212
L69.5475 31.0817
" />
<path d="M69.5475 31.0817
L69.4266 31.1421
" />
<path d="M69.4266 31.1421
L69.1242 31.1421
" />
<path d="M69.1242 31.1421
L69.0032 31.0817
" />
<path d="M69.0032 31.0817
L68.9428 31.0212
" />
<path d="M70.7570 30.2955
L70.7570 31.1421
" />
<path d="M70.4546 29.8117
L70.1523 30.7188
" />
<path d="M70.1523 30.7188
L70.9384 30.7188
" />
<path d="M71.4222 31.1421
L71.4222 30.2955
" />
<path d="M71.4222 30.4164
L71.4827 30.3559
" />
<path d="M71.4827 30.3559
L71.6037 30.2955
" />
<path d="M71.6037 30.2955
L71.7851 30.2955
" />
<path d="M71.7851 30.2955
L71.9060 30.3559
" />
<path d="M71.9060 30.3559
L71.9665 30.4769
" />
<path d="M71.9665 30.4769
L71.9665 31.1421
" />
<path d="M71.9665 30.4769
L72.0270 30.3559
" />
<path d="M72.0270 30.3559
L72.1479 30.2955
" />
<path d="M72.1479 30.2955
L72.3294 30.2955
" />
<path d="M72.3294 30.2955
L72.4503 30.3559
" />
<path d="M72.4503 30.3559
L72.5108 30.4769
" />
<path d="M72.5108 30.4769
L72.5108 31.1421
" />
<path d="M73.1155 31.1421
L73.1155 30.2955
" />
<path d="M73.1155 30.4164
L73.1760 30.3559
" />
<path d="M73.1760 30.3559
L73.2970 30.2955
" />
<path d="M73.2970 30.2955
L73.4784 30.2955
" />
<path d="M73.4784 30.2955
L73.5993 30.3559
" />
<path d="M73.5993 30.3559
L73.6598 30.4769
" />
<path d="M73.6598 30.4769
L73.6598 31.1421
" />
<path d="M73.6598 30.4769
L73.7203 30.3559
" />
<path d="M73.7203 30.3559
L73.8412 30.2955
" />
<path d="M73.8412 30.2955
L74.0227 30.2955
" />
<path d="M74.0227 30.2955
L74.1436 30.3559
" />
<path d="M74.1436 30.3559
L74.2041 30.4769
" />
<path d="M74.2041 30.4769
L74.2041 31.1421
" />
</g><text x="34.9553" y="4.5279"
textLength="56.3439" font-size="1.6933" lengthAdjust="spacingAndGlyphs"
text-anchor="middle" opacity="0">https://www.idt.com/document/dst/xu-family-datasheet</text>
<g class="stroked-text"><desc>https://www.idt.com/document/dst/xu-family-datasheet</desc>
<path d="M7.1969 4.4721
L7.1969 3.2021
" />
<path d="M7.7412 4.4721
L7.7412 3.8069
" />
<path d="M7.7412 3.8069
L7.6807 3.6859
" />
<path d="M7.6807 3.6859
L7.5598 3.6255
" />
<path d="M7.5598 3.6255
L7.3784 3.6255
" />
<path d="M7.3784 3.6255
L7.2574 3.6859
" />
<path d="M7.2574 3.6859
L7.1969 3.7464
" />
<path d="M8.1645 3.6255
L8.6483 3.6255
" />
<path d="M8.3459 3.2021
L8.3459 4.2907
" />
<path d="M8.3459 4.2907
L8.4064 4.4117
" />
<path d="M8.4064 4.4117
L8.5274 4.4721
" />
<path d="M8.5274 4.4721
L8.6483 4.4721
" />
<path d="M8.8902 3.6255
L9.3740 3.6255
" />
<path d="M9.0716 3.2021
L9.0716 4.2907
" />
<path d="M9.0716 4.2907
L9.1321 4.4117
" />
<path d="M9.1321 4.4117
L9.2531 4.4721
" />
<path d="M9.2531 4.4721
L9.3740 4.4721
" />
<path d="M9.7973 3.6255
L9.7973 4.8955
" />
<path d="M9.7973 3.6859
L9.9183 3.6255
" />
<path d="M9.9183 3.6255
L10.1602 3.6255
" />
<path d="M10.1602 3.6255
L10.2811 3.6859
" />
<path d="M10.2811 3.6859
L10.3416 3.7464
" />
<path d="M10.3416 3.7464
L10.4021 3.8674
" />
<path d="M10.4021 3.8674
L10.4021 4.2302
" />
<path d="M10.4021 4.2302
L10.3416 4.3512
" />
<path d="M10.3416 4.3512
L10.2811 4.4117
" />
<path d="M10.2811 4.4117
L10.1602 4.4721
" />
<path d="M10.1602 4.4721
L9.9183 4.4721
" />
<path d="M9.9183 4.4721
L9.7973 4.4117
" />
<path d="M10.8859 4.4117
L11.0068 4.4721
" />
<path d="M11.0068 4.4721
L11.2487 4.4721
" />
<path d="M11.2487 4.4721
L11.3697 4.4117
" />
<path d="M11.3697 4.4117
L11.4301 4.2907
" />
<path d="M11.4301 4.2907
L11.4301 4.2302
" />
<path d="M11.4301 4.2302
L11.3697 4.1093
" />
<path d="M11.3697 4.1093
L11.2487 4.0488
" />
<path d="M11.2487 4.0488
L11.0673 4.0488
" />
<path d="M11.0673 4.0488
L10.9463 3.9883
" />
<path d="M10.9463 3.9883
L10.8859 3.8674
" />
<path d="M10.8859 3.8674
L10.8859 3.8069
" />
<path d="M10.8859 3.8069
L10.9463 3.6859
" />
<path d="M10.9463 3.6859
L11.0673 3.6255
" />
<path d="M11.0673 3.6255
L11.2487 3.6255
" />
<path d="M11.2487 3.6255
L11.3697 3.6859
" />
<path d="M11.9744 4.3512
L12.0349 4.4117
" />
<path d="M12.0349 4.4117
L11.9744 4.4721
" />
<path d="M11.9744 4.4721
L11.9140 4.4117
" />
<path d="M11.9140 4.4117
L11.9744 4.3512
" />
<path d="M11.9744 4.3512
L11.9744 4.4721
" />
<path d="M11.9744 3.6859
L12.0349 3.7464
" />
<path d="M12.0349 3.7464
L11.9744 3.8069
" />
<path d="M11.9744 3.8069
L11.9140 3.7464
" />
<path d="M11.9140 3.7464
L11.9744 3.6859
" />
<path d="M11.9744 3.6859
L11.9744 3.8069
" />
<path d="M13.4864 3.1417
L12.3978 4.7745
" />
<path d="M14.8169 3.1417
L13.7283 4.7745
" />
<path d="M15.1193 3.6255
L15.3612 4.4721
" />
<path d="M15.3612 4.4721
L15.6031 3.8674
" />
<path d="M15.6031 3.8674
L15.8450 4.4721
" />
<path d="M15.8450 4.4721
L16.0869 3.6255
" />
<path d="M16.4498 3.6255
L16.6917 4.4721
" />
<path d="M16.6917 4.4721
L16.9336 3.8674
" />
<path d="M16.9336 3.8674
L17.1755 4.4721
" />
<path d="M17.1755 4.4721
L17.4174 3.6255
" />
<path d="M17.7803 3.6255
L18.0222 4.4721
" />
<path d="M18.0222 4.4721
L18.2641 3.8674
" />
<path d="M18.2641 3.8674
L18.5060 4.4721
" />
<path d="M18.5060 4.4721
L18.7479 3.6255
" />
<path d="M19.2317 4.3512
L19.2922 4.4117
" />
<path d="M19.2922 4.4117
L19.2317 4.4721
" />
<path d="M19.2317 4.4721
L19.1713 4.4117
" />
<path d="M19.1713 4.4117
L19.2317 4.3512
" />
<path d="M19.2317 4.3512
L19.2317 4.4721
" />
<path d="M19.8365 4.4721
L19.8365 3.6255
" />
<path d="M19.8365 3.2021
L19.7761 3.2626
" />
<path d="M19.7761 3.2626
L19.8365 3.3231
" />
<path d="M19.8365 3.3231
L19.8970 3.2626
" />
<path d="M19.8970 3.2626
L19.8365 3.2021
" />
<path d="M19.8365 3.2021
L19.8365 3.3231
" />
<path d="M20.9856 4.4721
L20.9856 3.2021
" />
<path d="M20.9856 4.4117
L20.8647 4.4721
" />
<path d="M20.8647 4.4721
L20.6228 4.4721
" />
<path d="M20.6228 4.4721
L20.5018 4.4117
" />
<path d="M20.5018 4.4117
L20.4413 4.3512
" />
<path d="M20.4413 4.3512
L20.3809 4.2302
" />
<path d="M20.3809 4.2302
L20.3809 3.8674
" />
<path d="M20.3809 3.8674
L20.4413 3.7464
" />
<path d="M20.4413 3.7464
L20.5018 3.6859
" />
<path d="M20.5018 3.6859
L20.6228 3.6255
" />
<path d="M20.6228 3.6255
L20.8647 3.6255
" />
<path d="M20.8647 3.6255
L20.9856 3.6859
" />
<path d="M21.4089 3.6255
L21.8927 3.6255
" />
<path d="M21.5903 3.2021
L21.5903 4.2907
" />
<path d="M21.5903 4.2907
L21.6508 4.4117
" />
<path d="M21.6508 4.4117
L21.7718 4.4721
" />
<path d="M21.7718 4.4721
L21.8927 4.4721
" />
<path d="M22.3160 4.3512
L22.3765 4.4117
" />
<path d="M22.3765 4.4117
L22.3160 4.4721
" />
<path d="M22.3160 4.4721
L22.2556 4.4117
" />
<path d="M22.2556 4.4117
L22.3160 4.3512
" />
<path d="M22.3160 4.3512
L22.3160 4.4721
" />
<path d="M23.4651 4.4117
L23.3442 4.4721
" />
<path d="M23.3442 4.4721
L23.1023 4.4721
" />
<path d="M23.1023 4.4721
L22.9813 4.4117
" />
<path d="M22.9813 4.4117
L22.9208 4.3512
" />
<path d="M22.9208 4.3512
L22.8604 4.2302
" />
<path d="M22.8604 4.2302
L22.8604 3.8674
" />
<path d="M22.8604 3.8674
L22.9208 3.7464
" />
<path d="M22.9208 3.7464
L22.9813 3.6859
" />
<path d="M22.9813 3.6859
L23.1023 3.6255
" />
<path d="M23.1023 3.6255
L23.3442 3.6255
" />
<path d="M23.3442 3.6255
L23.4651 3.6859
" />
<path d="M24.1909 4.4721
L24.0699 4.4117
" />
<path d="M24.0699 4.4117
L24.0094 4.3512
" />
<path d="M24.0094 4.3512
L23.9490 4.2302
" />
<path d="M23.9490 4.2302
L23.9490 3.8674
" />
<path d="M23.9490 3.8674
L24.0094 3.7464
" />
<path d="M24.0094 3.7464
L24.0699 3.6859
" />
<path d="M24.0699 3.6859
L24.1909 3.6255
" />
<path d="M24.1909 3.6255
L24.3723 3.6255
" />
<path d="M24.3723 3.6255
L24.4932 3.6859
" />
<path d="M24.4932 3.6859
L24.5537 3.7464
" />
<path d="M24.5537 3.7464
L24.6142 3.8674
" />
<path d="M24.6142 3.8674
L24.6142 4.2302
" />
<path d="M24.6142 4.2302
L24.5537 4.3512
" />
<path d="M24.5537 4.3512
L24.4932 4.4117
" />
<path d="M24.4932 4.4117
L24.3723 4.4721
" />
<path d="M24.3723 4.4721
L24.1909 4.4721
" />
<path d="M25.1584 4.4721
L25.1584 3.6255
" />
<path d="M25.1584 3.7464
L25.2189 3.6859
" />
<path d="M25.2189 3.6859
L25.3399 3.6255
" />
<path d="M25.3399 3.6255
L25.5213 3.6255
" />
<path d="M25.5213 3.6255
L25.6422 3.6859
" />
<path d="M25.6422 3.6859
L25.7027 3.8069
" />
<path d="M25.7027 3.8069
L25.7027 4.4721
" />
<path d="M25.7027 3.8069
L25.7632 3.6859
" />
<path d="M25.7632 3.6859
L25.8841 3.6255
" />
<path d="M25.8841 3.6255
L26.0656 3.6255
" />
<path d="M26.0656 3.6255
L26.1865 3.6859
" />
<path d="M26.1865 3.6859
L26.2470 3.8069
" />
<path d="M26.2470 3.8069
L26.2470 4.4721
" />
<path d="M27.7589 3.1417
L26.6703 4.7745
" />
<path d="M28.7265 4.4721
L28.7265 3.2021
" />
<path d="M28.7265 4.4117
L28.6056 4.4721
" />
<path d="M28.6056 4.4721
L28.3637 4.4721
" />
<path d="M28.3637 4.4721
L28.2427 4.4117
" />
<path d="M28.2427 4.4117
L28.1822 4.3512
" />
<path d="M28.1822 4.3512
L28.1218 4.2302
" />
<path d="M28.1218 4.2302
L28.1218 3.8674
" />
<path d="M28.1218 3.8674
L28.1822 3.7464
" />
<path d="M28.1822 3.7464
L28.2427 3.6859
" />
<path d="M28.2427 3.6859
L28.3637 3.6255
" />
<path d="M28.3637 3.6255
L28.6056 3.6255
" />
<path d="M28.6056 3.6255
L28.7265 3.6859
" />
<path d="M29.5127 4.4721
L29.3917 4.4117
" />
<path d="M29.3917 4.4117
L29.3312 4.3512
" />
<path d="M29.3312 4.3512
L29.2708 4.2302
" />
<path d="M29.2708 4.2302
L29.2708 3.8674
" />
<path d="M29.2708 3.8674
L29.3312 3.7464
" />
<path d="M29.3312 3.7464
L29.3917 3.6859
" />
<path d="M29.3917 3.6859
L29.5127 3.6255
" />
<path d="M29.5127 3.6255
L29.6941 3.6255
" />
<path d="M29.6941 3.6255
L29.8150 3.6859
" />
<path d="M29.8150 3.6859
L29.8755 3.7464
" />
<path d="M29.8755 3.7464
L29.9360 3.8674
" />
<path d="M29.9360 3.8674
L29.9360 4.2302
" />
<path d="M29.9360 4.2302
L29.8755 4.3512
" />
<path d="M29.8755 4.3512
L29.8150 4.4117
" />
<path d="M29.8150 4.4117
L29.6941 4.4721
" />
<path d="M29.6941 4.4721
L29.5127 4.4721
" />
<path d="M31.0245 4.4117
L30.9036 4.4721
" />
<path d="M30.9036 4.4721
L30.6617 4.4721
" />
<path d="M30.6617 4.4721
L30.5407 4.4117
" />
<path d="M30.5407 4.4117
L30.4802 4.3512
" />
<path d="M30.4802 4.3512
L30.4198 4.2302
" />
<path d="M30.4198 4.2302
L30.4198 3.8674
" />
<path d="M30.4198 3.8674
L30.4802 3.7464
" />
<path d="M30.4802 3.7464
L30.5407 3.6859
" />
<path d="M30.5407 3.6859
L30.6617 3.6255
" />
<path d="M30.6617 3.6255
L30.9036 3.6255
" />
<path d="M30.9036 3.6255
L31.0245 3.6859
" />
<path d="M32.1131 3.6255
L32.1131 4.4721
" />
<path d="M31.5688 3.6255
L31.5688 4.2907
" />
<path d="M31.5688 4.2907
L31.6293 4.4117
" />
<path d="M31.6293 4.4117
L31.7503 4.4721
" />
<path d="M31.7503 4.4721
L31.9317 4.4721
" />
<path d="M31.9317 4.4721
L32.0526 4.4117
" />
<path d="M32.0526 4.4117
L32.1131 4.3512
" />
<path d="M32.7178 4.4721
L32.7178 3.6255
" />
<path d="M32.7178 3.7464
L32.7783 3.6859
" />
<path d="M32.7783 3.6859
L32.8993 3.6255
" />
<path d="M32.8993 3.6255
L33.0807 3.6255
" />
<path d="M33.0807 3.6255
L33.2016 3.6859
" />
<path d="M33.2016 3.6859
L33.2621 3.8069
" />
<path d="M33.2621 3.8069
L33.2621 4.4721
" />
<path d="M33.2621 3.8069
L33.3226 3.6859
" />
<path d="M33.3226 3.6859
L33.4435 3.6255
" />
<path d="M33.4435 3.6255
L33.6250 3.6255
" />
<path d="M33.6250 3.6255
L33.7459 3.6859
" />
<path d="M33.7459 3.6859
L33.8064 3.8069
" />
<path d="M33.8064 3.8069
L33.8064 4.4721
" />
<path d="M34.8949 4.4117
L34.7740 4.4721
" />
<path d="M34.7740 4.4721
L34.5321 4.4721
" />
<path d="M34.5321 4.4721
L34.4111 4.4117
" />
<path d="M34.4111 4.4117
L34.3507 4.2907
" />
<path d="M34.3507 4.2907
L34.3507 3.8069
" />
<path d="M34.3507 3.8069
L34.4111 3.6859
" />
<path d="M34.4111 3.6859
L34.5321 3.6255
" />
<path d="M34.5321 3.6255
L34.7740 3.6255
" />
<path d="M34.7740 3.6255
L34.8949 3.6859
" />
<path d="M34.8949 3.6859
L34.9554 3.8069
" />
<path d="M34.9554 3.8069
L34.9554 3.9278
" />
<path d="M34.9554 3.9278
L34.3507 4.0488
" />
<path d="M35.4997 3.6255
L35.4997 4.4721
" />
<path d="M35.4997 3.7464
L35.5602 3.6859
" />
<path d="M35.5602 3.6859
L35.6812 3.6255
" />
<path d="M35.6812 3.6255
L35.8626 3.6255
" />
<path d="M35.8626 3.6255
L35.9835 3.6859
" />
<path d="M35.9835 3.6859
L36.0440 3.8069
" />
<path d="M36.0440 3.8069
L36.0440 4.4721
" />
<path d="M36.4673 3.6255
L36.9511 3.6255
" />
<path d="M36.6487 3.2021
L36.6487 4.2907
" />
<path d="M36.6487 4.2907
L36.7092 4.4117
" />
<path d="M36.7092 4.4117
L36.8302 4.4721
" />
<path d="M36.8302 4.4721
L36.9511 4.4721
" />
<path d="M38.2816 3.1417
L37.1930 4.7745
" />
<path d="M39.2492 4.4721
L39.2492 3.2021
" />
<path d="M39.2492 4.4117
L39.1283 4.4721
" />
<path d="M39.1283 4.4721
L38.8864 4.4721
" />
<path d="M38.8864 4.4721
L38.7654 4.4117
" />
<path d="M38.7654 4.4117
L38.7049 4.3512
" />
<path d="M38.7049 4.3512
L38.6445 4.2302
" />
<path d="M38.6445 4.2302
L38.6445 3.8674
" />
<path d="M38.6445 3.8674
L38.7049 3.7464
" />
<path d="M38.7049 3.7464
L38.7654 3.6859
" />
<path d="M38.7654 3.6859
L38.8864 3.6255
" />
<path d="M38.8864 3.6255
L39.1283 3.6255
" />
<path d="M39.1283 3.6255
L39.2492 3.6859
" />
<path d="M39.7935 4.4117
L39.9144 4.4721
" />
<path d="M39.9144 4.4721
L40.1563 4.4721
" />
<path d="M40.1563 4.4721
L40.2773 4.4117
" />
<path d="M40.2773 4.4117
L40.3377 4.2907
" />
<path d="M40.3377 4.2907
L40.3377 4.2302
" />
<path d="M40.3377 4.2302
L40.2773 4.1093
" />
<path d="M40.2773 4.1093
L40.1563 4.0488
" />
<path d="M40.1563 4.0488
L39.9749 4.0488
" />
<path d="M39.9749 4.0488
L39.8539 3.9883
" />
<path d="M39.8539 3.9883
L39.7935 3.8674
" />
<path d="M39.7935 3.8674
L39.7935 3.8069
" />
<path d="M39.7935 3.8069
L39.8539 3.6859
" />
<path d="M39.8539 3.6859
L39.9749 3.6255
" />
<path d="M39.9749 3.6255
L40.1563 3.6255
" />
<path d="M40.1563 3.6255
L40.2773 3.6859
" />
<path d="M40.7006 3.6255
L41.1844 3.6255
" />
<path d="M40.8820 3.2021
L40.8820 4.2907
" />
<path d="M40.8820 4.2907
L40.9425 4.4117
" />
<path d="M40.9425 4.4117
L41.0635 4.4721
" />
<path d="M41.0635 4.4721
L41.1844 4.4721
" />
<path d="M42.5149 3.1417
L41.4263 4.7745
" />
<path d="M42.8173 4.4721
L43.4825 3.6255
" />
<path d="M42.8173 3.6255
L43.4825 4.4721
" />
<path d="M44.5106 3.6255
L44.5106 4.4721
" />
<path d="M43.9663 3.6255
L43.9663 4.2907
" />
<path d="M43.9663 4.2907
L44.0268 4.4117
" />
<path d="M44.0268 4.4117
L44.1478 4.4721
" />
<path d="M44.1478 4.4721
L44.3292 4.4721
" />
<path d="M44.3292 4.4721
L44.4501 4.4117
" />
<path d="M44.4501 4.4117
L44.5106 4.3512
" />
<path d="M45.1153 3.9883
L46.0830 3.9883
" />
<path d="M46.5063 3.6255
L46.9901 3.6255
" />
<path d="M46.6877 4.4721
L46.6877 3.3836
" />
<path d="M46.6877 3.3836
L46.7482 3.2626
" />
<path d="M46.7482 3.2626
L46.8692 3.2021
" />
<path d="M46.8692 3.2021
L46.9901 3.2021
" />
<path d="M47.9577 4.4721
L47.9577 3.8069
" />
<path d="M47.9577 3.8069
L47.8972 3.6859
" />
<path d="M47.8972 3.6859
L47.7763 3.6255
" />
<path d="M47.7763 3.6255
L47.5344 3.6255
" />
<path d="M47.5344 3.6255
L47.4134 3.6859
" />
<path d="M47.9577 4.4117
L47.8368 4.4721
" />
<path d="M47.8368 4.4721
L47.5344 4.4721
" />
<path d="M47.5344 4.4721
L47.4134 4.4117
" />
<path d="M47.4134 4.4117
L47.3530 4.2907
" />
<path d="M47.3530 4.2907
L47.3530 4.1697
" />
<path d="M47.3530 4.1697
L47.4134 4.0488
" />
<path d="M47.4134 4.0488
L47.5344 3.9883
" />
<path d="M47.5344 3.9883
L47.8368 3.9883
" />
<path d="M47.8368 3.9883
L47.9577 3.9278
" />
<path d="M48.5624 4.4721
L48.5624 3.6255
" />
<path d="M48.5624 3.7464
L48.6229 3.6859
" />
<path d="M48.6229 3.6859
L48.7439 3.6255
" />
<path d="M48.7439 3.6255
L48.9253 3.6255
" />
<path d="M48.9253 3.6255
L49.0462 3.6859
" />
<path d="M49.0462 3.6859
L49.1067 3.8069
" />
<path d="M49.1067 3.8069
L49.1067 4.4721
" />
<path d="M49.1067 3.8069
L49.1672 3.6859
" />
<path d="M49.1672 3.6859
L49.2881 3.6255
" />
<path d="M49.2881 3.6255
L49.4696 3.6255
" />
<path d="M49.4696 3.6255
L49.5905 3.6859
" />
<path d="M49.5905 3.6859
L49.6510 3.8069
" />
<path d="M49.6510 3.8069
L49.6510 4.4721
" />
<path d="M50.2557 4.4721
L50.2557 3.6255
" />
<path d="M50.2557 3.2021
L50.1953 3.2626
" />
<path d="M50.1953 3.2626
L50.2557 3.3231
" />
<path d="M50.2557 3.3231
L50.3162 3.2626
" />
<path d="M50.3162 3.2626
L50.2557 3.2021
" />
<path d="M50.2557 3.2021
L50.2557 3.3231
" />
<path d="M51.0420 4.4721
L50.9210 4.4117
" />
<path d="M50.9210 4.4117
L50.8605 4.2907
" />
<path d="M50.8605 4.2907
L50.8605 3.2021
" />
<path d="M51.4048 3.6255
L51.7072 4.4721
" />
<path d="M52.0095 3.6255
L51.7072 4.4721
" />
<path d="M51.7072 4.4721
L51.5862 4.7745
" />
<path d="M51.5862 4.7745
L51.5257 4.8350
" />
<path d="M51.5257 4.8350
L51.4048 4.8955
" />
<path d="M52.4933 3.9883
L53.4610 3.9883
" />
<path d="M54.6100 4.4721
L54.6100 3.2021
" />
<path d="M54.6100 4.4117
L54.4891 4.4721
" />
<path d="M54.4891 4.4721
L54.2472 4.4721
" />
<path d="M54.2472 4.4721
L54.1262 4.4117
" />
<path d="M54.1262 4.4117
L54.0657 4.3512
" />
<path d="M54.0657 4.3512
L54.0053 4.2302
" />
<path d="M54.0053 4.2302
L54.0053 3.8674
" />
<path d="M54.0053 3.8674
L54.0657 3.7464
" />
<path d="M54.0657 3.7464
L54.1262 3.6859
" />
<path d="M54.1262 3.6859
L54.2472 3.6255
" />
<path d="M54.2472 3.6255
L54.4891 3.6255
" />
<path d="M54.4891 3.6255
L54.6100 3.6859
" />
<path d="M55.7590 4.4721
L55.7590 3.8069
" />
<path d="M55.7590 3.8069
L55.6985 3.6859
" />
<path d="M55.6985 3.6859
L55.5776 3.6255
" />
<path d="M55.5776 3.6255
L55.3357 3.6255
" />
<path d="M55.3357 3.6255
L55.2147 3.6859
" />
<path d="M55.7590 4.4117
L55.6381 4.4721
" />
<path d="M55.6381 4.4721
L55.3357 4.4721
" />
<path d="M55.3357 4.4721
L55.2147 4.4117
" />
<path d="M55.2147 4.4117
L55.1543 4.2907
" />
<path d="M55.1543 4.2907
L55.1543 4.1697
" />
<path d="M55.1543 4.1697
L55.2147 4.0488
" />
<path d="M55.2147 4.0488
L55.3357 3.9883
" />
<path d="M55.3357 3.9883
L55.6381 3.9883
" />
<path d="M55.6381 3.9883
L55.7590 3.9278
" />
<path d="M56.1823 3.6255
L56.6661 3.6255
" />
<path d="M56.3637 3.2021
L56.3637 4.2907
" />
<path d="M56.3637 4.2907
L56.4242 4.4117
" />
<path d="M56.4242 4.4117
L56.5452 4.4721
" />
<path d="M56.5452 4.4721
L56.6661 4.4721
" />
<path d="M57.6337 4.4721
L57.6337 3.8069
" />
<path d="M57.6337 3.8069
L57.5732 3.6859
" />
<path d="M57.5732 3.6859
L57.4523 3.6255
" />
<path d="M57.4523 3.6255
L57.2104 3.6255
" />
<path d="M57.2104 3.6255
L57.0894 3.6859
" />
<path d="M57.6337 4.4117
L57.5128 4.4721
" />
<path d="M57.5128 4.4721
L57.2104 4.4721
" />
<path d="M57.2104 4.4721
L57.0894 4.4117
" />
<path d="M57.0894 4.4117
L57.0290 4.2907
" />
<path d="M57.0290 4.2907
L57.0290 4.1697
" />
<path d="M57.0290 4.1697
L57.0894 4.0488
" />
<path d="M57.0894 4.0488
L57.2104 3.9883
" />
<path d="M57.2104 3.9883
L57.5128 3.9883
" />
<path d="M57.5128 3.9883
L57.6337 3.9278
" />
<path d="M58.1780 4.4117
L58.2989 4.4721
" />
<path d="M58.2989 4.4721
L58.5408 4.4721
" />
<path d="M58.5408 4.4721
L58.6618 4.4117
" />
<path d="M58.6618 4.4117
L58.7222 4.2907
" />
<path d="M58.7222 4.2907
L58.7222 4.2302
" />
<path d="M58.7222 4.2302
L58.6618 4.1093
" />
<path d="M58.6618 4.1093
L58.5408 4.0488
" />
<path d="M58.5408 4.0488
L58.3594 4.0488
" />
<path d="M58.3594 4.0488
L58.2384 3.9883
" />
<path d="M58.2384 3.9883
L58.1780 3.8674
" />
<path d="M58.1780 3.8674
L58.1780 3.8069
" />
<path d="M58.1780 3.8069
L58.2384 3.6859
" />
<path d="M58.2384 3.6859
L58.3594 3.6255
" />
<path d="M58.3594 3.6255
L58.5408 3.6255
" />
<path d="M58.5408 3.6255
L58.6618 3.6859
" />
<path d="M59.2665 4.4721
L59.2665 3.2021
" />
<path d="M59.8108 4.4721
L59.8108 3.8069
" />
<path d="M59.8108 3.8069
L59.7503 3.6859
" />
<path d="M59.7503 3.6859
L59.6294 3.6255
" />
<path d="M59.6294 3.6255
L59.4480 3.6255
" />
<path d="M59.4480 3.6255
L59.3270 3.6859
" />
<path d="M59.3270 3.6859
L59.2665 3.7464
" />
<path d="M60.8993 4.4117
L60.7784 4.4721
" />
<path d="M60.7784 4.4721
L60.5365 4.4721
" />
<path d="M60.5365 4.4721
L60.4155 4.4117
" />
<path d="M60.4155 4.4117
L60.3551 4.2907
" />
<path d="M60.3551 4.2907
L60.3551 3.8069
" />
<path d="M60.3551 3.8069
L60.4155 3.6859
" />
<path d="M60.4155 3.6859
L60.5365 3.6255
" />
<path d="M60.5365 3.6255
L60.7784 3.6255
" />
<path d="M60.7784 3.6255
L60.8993 3.6859
" />
<path d="M60.8993 3.6859
L60.9598 3.8069
" />
<path d="M60.9598 3.8069
L60.9598 3.9278
" />
<path d="M60.9598 3.9278
L60.3551 4.0488
" />
<path d="M61.9879 4.4117
L61.8670 4.4721
" />
<path d="M61.8670 4.4721
L61.6251 4.4721
" />
<path d="M61.6251 4.4721
L61.5041 4.4117
" />
<path d="M61.5041 4.4117
L61.4437 4.2907
" />
<path d="M61.4437 4.2907
L61.4437 3.8069
" />
<path d="M61.4437 3.8069
L61.5041 3.6859
" />
<path d="M61.5041 3.6859
L61.6251 3.6255
" />
<path d="M61.6251 3.6255
L61.8670 3.6255
" />
<path d="M61.8670 3.6255
L61.9879 3.6859
" />
<path d="M61.9879 3.6859
L62.0484 3.8069
" />
<path d="M62.0484 3.8069
L62.0484 3.9278
" />
<path d="M62.0484 3.9278
L61.4437 4.0488
" />
<path d="M62.4113 3.6255
L62.8951 3.6255
" />
<path d="M62.5927 3.2021
L62.5927 4.2907
" />
<path d="M62.5927 4.2907
L62.6532 4.4117
" />
<path d="M62.6532 4.4117
L62.7742 4.4721
" />
<path d="M62.7742 4.4721
L62.8951 4.4721
" />
</g></g> 
</svg>
