<?xml version="1.0" standalone="no"?>
 <!DOCTYPE svg PUBLIC "-//W3C//DTD SVG 1.1//EN" 
 "http://www.w3.org/Graphics/SVG/1.1/DTD/svg11.dtd"> 
<svg
  xmlns:svg="http://www.w3.org/2000/svg"
  xmlns="http://www.w3.org/2000/svg"
  xmlns:xlink="http://www.w3.org/1999/xlink"
  version="1.1"
  width="29.3624mm" height="20.8026mm" viewBox="0.0000 0.0000 29.3624 20.8026">
<title>SVG Image created as working.svg date 2023/08/01 11:39:00 </title>
  <desc>Image generated by Eeschema-SVG </desc>
<g style="fill:#000000; fill-opacity:1.0000;stroke:#000000; stroke-opacity:1.0000;
stroke-linecap:round; stroke-linejoin:round;"
 transform="translate(0 0) scale(1 1)">
</g>
<g style="fill:#840000; fill-opacity:0.0; 
stroke:#840000; stroke-width:0.0000; stroke-opacity:1; 
stroke-linecap:round; stroke-linejoin:round;">
</g>
<g style="fill:#FFFFC2; fill-opacity:0.0; 
stroke:#FFFFC2; stroke-width:0.0000; stroke-opacity:1; 
stroke-linecap:round; stroke-linejoin:round;">
</g>
<g style="fill:#FFFFC2; fill-opacity:1.0000; 
stroke:#FFFFC2; stroke-width:0.0000; stroke-opacity:1; 
stroke-linecap:round; stroke-linejoin:round;">
<rect x="2.573000" y="3.837800" width="15.240000" height="12.700000" rx="0.000000" />
</g>
<g style="fill:#840084; fill-opacity:1.0000; 
stroke:#840084; stroke-width:0.0000; stroke-opacity:1; 
stroke-linecap:round; stroke-linejoin:round;">
</g>
<g style="fill:#840000; fill-opacity:1.0000; 
stroke:#840000; stroke-width:0.0000; stroke-opacity:1; 
stroke-linecap:round; stroke-linejoin:round;">
</g>
<g style="fill:#840000; fill-opacity:0.0; 
stroke:#840000; stroke-width:0.1524; stroke-opacity:1; 
stroke-linecap:round; stroke-linejoin:round;">
<path style="fill:#840000; fill-opacity:0.0; 
stroke:#840000; stroke-width:0.1524; stroke-opacity:1; 
stroke-linecap:round; stroke-linejoin:round;fill:none"
d="M 3.8430,12.0928
5.1130,12.0928
5.1130,12.0928
" /> 
<path style="fill:#840000; fill-opacity:0.0; 
stroke:#840000; stroke-width:0.1524; stroke-opacity:1; 
stroke-linecap:round; stroke-linejoin:round;fill:none"
d="M 3.8430,10.8228
5.1130,10.8228
5.1130,10.8228
" /> 
<path style="fill:#840000; fill-opacity:0.0; 
stroke:#840000; stroke-width:0.1524; stroke-opacity:1; 
stroke-linecap:round; stroke-linejoin:round;fill:none"
d="M 3.8430,9.5528
5.1130,9.5528
5.1130,9.5528
" /> 
<path style="fill:#840000; fill-opacity:0.0; 
stroke:#840000; stroke-width:0.1524; stroke-opacity:1; 
stroke-linecap:round; stroke-linejoin:round;fill:none"
d="M 3.8430,8.2828
5.1130,8.2828
5.1130,8.2828
" /> 
<path style="fill:#840000; fill-opacity:0.0; 
stroke:#840000; stroke-width:0.1524; stroke-opacity:1; 
stroke-linecap:round; stroke-linejoin:round;fill:none"
d="M 3.8430,14.6328
3.8430,5.7428
8.9230,5.7428
14.0030,5.7428
14.0030,7.0128
15.2730,7.0128
15.2730,8.2828
16.5430,8.2828
16.5430,12.0928
15.2730,12.0928
15.2730,13.3628
14.0030,13.3628
14.0030,14.6328
3.8430,14.6328
Z" /> 
</g>
<g style="fill:#840000; fill-opacity:0.0; 
stroke:#840000; stroke-width:0.2540; stroke-opacity:1; 
stroke-linecap:round; stroke-linejoin:round;">
<rect x="2.573000" y="3.837800" width="15.240000" height="12.700000" rx="0.000000" />
</g>
<g style="fill:#840000; fill-opacity:0.0; 
stroke:#840000; stroke-width:0.1524; stroke-opacity:1; 
stroke-linecap:round; stroke-linejoin:round;">
<path d="M17.8130 11.4578
L20.3530 11.4578
" />
</g>
<g style="fill:#A90000; fill-opacity:0.0; 
stroke:#A90000; stroke-width:0.1524; stroke-opacity:1; 
stroke-linecap:round; stroke-linejoin:round;">
<text x="19.0830" y="11.2038"
textLength="1.3365" font-size="1.6933" lengthAdjust="spacingAndGlyphs"
text-anchor="middle" opacity="0">1</text>
<g class="stroked-text"><desc>1</desc>
<path d="M19.4459 11.0483
L18.7202 11.0483
" />
<path d="M19.0830 11.0483
L19.0830 9.7783
" />
<path d="M19.0830 9.7783
L18.9621 9.9598
" />
<path d="M18.9621 9.9598
L18.8411 10.0807
" />
<path d="M18.8411 10.0807
L18.7202 10.1412
" />
</g></g>
<g style="fill:#840000; fill-opacity:0.0; 
stroke:#840000; stroke-width:0.1524; stroke-opacity:1; 
stroke-linecap:round; stroke-linejoin:round;">
<path d="M17.8130 8.9178
L20.3530 8.9178
" />
</g>
<g style="fill:#A90000; fill-opacity:0.0; 
stroke:#A90000; stroke-width:0.1524; stroke-opacity:1; 
stroke-linecap:round; stroke-linejoin:round;">
<text x="19.0830" y="8.6638"
textLength="1.3365" font-size="1.6933" lengthAdjust="spacingAndGlyphs"
text-anchor="middle" opacity="0">2</text>
<g class="stroked-text"><desc>2</desc>
<path d="M18.7202 7.3593
L18.7806 7.2988
" />
<path d="M18.7806 7.2988
L18.9016 7.2383
" />
<path d="M18.9016 7.2383
L19.2040 7.2383
" />
<path d="M19.2040 7.2383
L19.3249 7.2988
" />
<path d="M19.3249 7.2988
L19.3854 7.3593
" />
<path d="M19.3854 7.3593
L19.4459 7.4802
" />
<path d="M19.4459 7.4802
L19.4459 7.6012
" />
<path d="M19.4459 7.6012
L19.3854 7.7826
" />
<path d="M19.3854 7.7826
L18.6597 8.5083
" />
<path d="M18.6597 8.5083
L19.4459 8.5083
" />
</g></g>
<g style="fill:#840000; fill-opacity:0.0; 
stroke:#840000; stroke-width:0.1524; stroke-opacity:1; 
stroke-linecap:round; stroke-linejoin:round;">
<path d="M10.1930 16.5378
L10.1930 19.0778
" />
</g>
<g style="fill:#A90000; fill-opacity:0.0; 
stroke:#A90000; stroke-width:0.1524; stroke-opacity:1; 
stroke-linecap:round; stroke-linejoin:round;">
<g transform="rotate(-90.000000 9.9390 17.8078)">
<text x="9.9390" y="17.8078"
textLength="2.6670" font-size="1.6933" lengthAdjust="spacingAndGlyphs"
text-anchor="middle" opacity="0">SH</text>
</g>
<g class="stroked-text"><desc>SH</desc>
<path d="M9.7231 18.8358
L9.7835 18.6544
" />
<path d="M9.7835 18.6544
L9.7835 18.3520
" />
<path d="M9.7835 18.3520
L9.7231 18.2311
" />
<path d="M9.7231 18.2311
L9.6626 18.1706
" />
<path d="M9.6626 18.1706
L9.5416 18.1101
" />
<path d="M9.5416 18.1101
L9.4207 18.1101
" />
<path d="M9.4207 18.1101
L9.2997 18.1706
" />
<path d="M9.2997 18.1706
L9.2392 18.2311
" />
<path d="M9.2392 18.2311
L9.1788 18.3520
" />
<path d="M9.1788 18.3520
L9.1183 18.5939
" />
<path d="M9.1183 18.5939
L9.0578 18.7149
" />
<path d="M9.0578 18.7149
L8.9973 18.7754
" />
<path d="M8.9973 18.7754
L8.8764 18.8358
" />
<path d="M8.8764 18.8358
L8.7554 18.8358
" />
<path d="M8.7554 18.8358
L8.6345 18.7754
" />
<path d="M8.6345 18.7754
L8.5740 18.7149
" />
<path d="M8.5740 18.7149
L8.5135 18.5939
" />
<path d="M8.5135 18.5939
L8.5135 18.2916
" />
<path d="M8.5135 18.2916
L8.5740 18.1101
" />
<path d="M9.7835 17.5659
L8.5135 17.5659
" />
<path d="M9.1183 17.5659
L9.1183 16.8402
" />
<path d="M9.7835 16.8402
L8.5135 16.8402
" />
</g></g>
<g style="fill:#840084; fill-opacity:0.0; 
stroke:#840084; stroke-width:0.1524; stroke-opacity:1; 
stroke-linecap:round; stroke-linejoin:round;">
</g>
<g style="fill:#006464; fill-opacity:0.0; 
stroke:#006464; stroke-width:0.1524; stroke-opacity:1; 
stroke-linecap:round; stroke-linejoin:round;">
</g>
<g style="fill:#006464; fill-opacity:0.0; 
stroke:#006464; stroke-width:0.1588; stroke-opacity:1; 
stroke-linecap:round; stroke-linejoin:round;">
<text x="4.0134" y="3.2028"
textLength="2.1992" font-size="1.6933" lengthAdjust="spacingAndGlyphs"
text-anchor="middle" opacity="0">J?</text>
<g class="stroked-text"><desc>J?</desc>
<path d="M3.6505 1.8853
L3.6505 2.7925
" />
<path d="M3.6505 2.7925
L3.5900 2.9739
" />
<path d="M3.5900 2.9739
L3.4691 3.0949
" />
<path d="M3.4691 3.0949
L3.2876 3.1553
" />
<path d="M3.2876 3.1553
L3.1667 3.1553
" />
<path d="M4.4367 3.0344
L4.4971 3.0949
" />
<path d="M4.4971 3.0949
L4.4367 3.1553
" />
<path d="M4.4367 3.1553
L4.3762 3.0949
" />
<path d="M4.3762 3.0949
L4.4367 3.0344
" />
<path d="M4.4367 3.0344
L4.4367 3.1553
" />
<path d="M4.1948 1.9458
L4.3157 1.8853
" />
<path d="M4.3157 1.8853
L4.6181 1.8853
" />
<path d="M4.6181 1.8853
L4.7390 1.9458
" />
<path d="M4.7390 1.9458
L4.7995 2.0668
" />
<path d="M4.7995 2.0668
L4.7995 2.1877
" />
<path d="M4.7995 2.1877
L4.7390 2.3087
" />
<path d="M4.7390 2.3087
L4.6786 2.3691
" />
<path d="M4.6786 2.3691
L4.5576 2.4296
" />
<path d="M4.5576 2.4296
L4.4971 2.4901
" />
<path d="M4.4971 2.4901
L4.4367 2.6110
" />
<path d="M4.4367 2.6110
L4.4367 2.6715
" />
</g><text x="19.8196" y="3.2028"
textLength="14.1733" font-size="1.6933" lengthAdjust="spacingAndGlyphs"
text-anchor="middle" opacity="0">4P2C_Shielded</text>
<g class="stroked-text"><desc>4P2C_Shielded</desc>
<path d="M13.6511 2.3087
L13.6511 3.1553
" />
<path d="M13.3487 1.8249
L13.0464 2.7320
" />
<path d="M13.0464 2.7320
L13.8325 2.7320
" />
<path d="M14.3163 3.1553
L14.3163 1.8853
" />
<path d="M14.3163 1.8853
L14.8001 1.8853
" />
<path d="M14.8001 1.8853
L14.9211 1.9458
" />
<path d="M14.9211 1.9458
L14.9816 2.0063
" />
<path d="M14.9816 2.0063
L15.0420 2.1272
" />
<path d="M15.0420 2.1272
L15.0420 2.3087
" />
<path d="M15.0420 2.3087
L14.9816 2.4296
" />
<path d="M14.9816 2.4296
L14.9211 2.4901
" />
<path d="M14.9211 2.4901
L14.8001 2.5506
" />
<path d="M14.8001 2.5506
L14.3163 2.5506
" />
<path d="M15.5259 2.0063
L15.5863 1.9458
" />
<path d="M15.5863 1.9458
L15.7073 1.8853
" />
<path d="M15.7073 1.8853
L16.0097 1.8853
" />
<path d="M16.0097 1.8853
L16.1306 1.9458
" />
<path d="M16.1306 1.9458
L16.1911 2.0063
" />
<path d="M16.1911 2.0063
L16.2516 2.1272
" />
<path d="M16.2516 2.1272
L16.2516 2.2482
" />
<path d="M16.2516 2.2482
L16.1911 2.4296
" />
<path d="M16.1911 2.4296
L15.4654 3.1553
" />
<path d="M15.4654 3.1553
L16.2516 3.1553
" />
<path d="M17.5215 3.0344
L17.4611 3.0949
" />
<path d="M17.4611 3.0949
L17.2796 3.1553
" />
<path d="M17.2796 3.1553
L17.1587 3.1553
" />
<path d="M17.1587 3.1553
L16.9773 3.0949
" />
<path d="M16.9773 3.0949
L16.8563 2.9739
" />
<path d="M16.8563 2.9739
L16.7958 2.8529
" />
<path d="M16.7958 2.8529
L16.7354 2.6110
" />
<path d="M16.7354 2.6110
L16.7354 2.4296
" />
<path d="M16.7354 2.4296
L16.7958 2.1877
" />
<path d="M16.7958 2.1877
L16.8563 2.0668
" />
<path d="M16.8563 2.0668
L16.9773 1.9458
" />
<path d="M16.9773 1.9458
L17.1587 1.8853
" />
<path d="M17.1587 1.8853
L17.2796 1.8853
" />
<path d="M17.2796 1.8853
L17.4611 1.9458
" />
<path d="M17.4611 1.9458
L17.5215 2.0063
" />
<path d="M17.7635 3.2763
L18.7311 3.2763
" />
<path d="M18.9730 3.0949
L19.1544 3.1553
" />
<path d="M19.1544 3.1553
L19.4568 3.1553
" />
<path d="M19.4568 3.1553
L19.5777 3.0949
" />
<path d="M19.5777 3.0949
L19.6382 3.0344
" />
<path d="M19.6382 3.0344
L19.6987 2.9134
" />
<path d="M19.6987 2.9134
L19.6987 2.7925
" />
<path d="M19.6987 2.7925
L19.6382 2.6715
" />
<path d="M19.6382 2.6715
L19.5777 2.6110
" />
<path d="M19.5777 2.6110
L19.4568 2.5506
" />
<path d="M19.4568 2.5506
L19.2149 2.4901
" />
<path d="M19.2149 2.4901
L19.0939 2.4296
" />
<path d="M19.0939 2.4296
L19.0334 2.3691
" />
<path d="M19.0334 2.3691
L18.9730 2.2482
" />
<path d="M18.9730 2.2482
L18.9730 2.1272
" />
<path d="M18.9730 2.1272
L19.0334 2.0063
" />
<path d="M19.0334 2.0063
L19.0939 1.9458
" />
<path d="M19.0939 1.9458
L19.2149 1.8853
" />
<path d="M19.2149 1.8853
L19.5172 1.8853
" />
<path d="M19.5172 1.8853
L19.6987 1.9458
" />
<path d="M20.2429 3.1553
L20.2429 1.8853
" />
<path d="M20.7872 3.1553
L20.7872 2.4901
" />
<path d="M20.7872 2.4901
L20.7267 2.3691
" />
<path d="M20.7267 2.3691
L20.6058 2.3087
" />
<path d="M20.6058 2.3087
L20.4244 2.3087
" />
<path d="M20.4244 2.3087
L20.3034 2.3691
" />
<path d="M20.3034 2.3691
L20.2429 2.4296
" />
<path d="M21.3919 3.1553
L21.3919 2.3087
" />
<path d="M21.3919 1.8853
L21.3315 1.9458
" />
<path d="M21.3315 1.9458
L21.3919 2.0063
" />
<path d="M21.3919 2.0063
L21.4524 1.9458
" />
<path d="M21.4524 1.9458
L21.3919 1.8853
" />
<path d="M21.3919 1.8853
L21.3919 2.0063
" />
<path d="M22.4805 3.0949
L22.3596 3.1553
" />
<path d="M22.3596 3.1553
L22.1177 3.1553
" />
<path d="M22.1177 3.1553
L21.9967 3.0949
" />
<path d="M21.9967 3.0949
L21.9363 2.9739
" />
<path d="M21.9363 2.9739
L21.9363 2.4901
" />
<path d="M21.9363 2.4901
L21.9967 2.3691
" />
<path d="M21.9967 2.3691
L22.1177 2.3087
" />
<path d="M22.1177 2.3087
L22.3596 2.3087
" />
<path d="M22.3596 2.3087
L22.4805 2.3691
" />
<path d="M22.4805 2.3691
L22.5410 2.4901
" />
<path d="M22.5410 2.4901
L22.5410 2.6110
" />
<path d="M22.5410 2.6110
L21.9363 2.7320
" />
<path d="M23.2668 3.1553
L23.1458 3.0949
" />
<path d="M23.1458 3.0949
L23.0853 2.9739
" />
<path d="M23.0853 2.9739
L23.0853 1.8853
" />
<path d="M24.2948 3.1553
L24.2948 1.8853
" />
<path d="M24.2948 3.0949
L24.1739 3.1553
" />
<path d="M24.1739 3.1553
L23.9320 3.1553
" />
<path d="M23.9320 3.1553
L23.8110 3.0949
" />
<path d="M23.8110 3.0949
L23.7505 3.0344
" />
<path d="M23.7505 3.0344
L23.6901 2.9134
" />
<path d="M23.6901 2.9134
L23.6901 2.5506
" />
<path d="M23.6901 2.5506
L23.7505 2.4296
" />
<path d="M23.7505 2.4296
L23.8110 2.3691
" />
<path d="M23.8110 2.3691
L23.9320 2.3087
" />
<path d="M23.9320 2.3087
L24.1739 2.3087
" />
<path d="M24.1739 2.3087
L24.2948 2.3691
" />
<path d="M25.3833 3.0949
L25.2624 3.1553
" />
<path d="M25.2624 3.1553
L25.0205 3.1553
" />
<path d="M25.0205 3.1553
L24.8995 3.0949
" />
<path d="M24.8995 3.0949
L24.8391 2.9739
" />
<path d="M24.8391 2.9739
L24.8391 2.4901
" />
<path d="M24.8391 2.4901
L24.8995 2.3691
" />
<path d="M24.8995 2.3691
L25.0205 2.3087
" />
<path d="M25.0205 2.3087
L25.2624 2.3087
" />
<path d="M25.2624 2.3087
L25.3833 2.3691
" />
<path d="M25.3833 2.3691
L25.4438 2.4901
" />
<path d="M25.4438 2.4901
L25.4438 2.6110
" />
<path d="M25.4438 2.6110
L24.8391 2.7320
" />
<path d="M26.5324 3.1553
L26.5324 1.8853
" />
<path d="M26.5324 3.0949
L26.4115 3.1553
" />
<path d="M26.4115 3.1553
L26.1696 3.1553
" />
<path d="M26.1696 3.1553
L26.0486 3.0949
" />
<path d="M26.0486 3.0949
L25.9881 3.0344
" />
<path d="M25.9881 3.0344
L25.9277 2.9134
" />
<path d="M25.9277 2.9134
L25.9277 2.5506
" />
<path d="M25.9277 2.5506
L25.9881 2.4296
" />
<path d="M25.9881 2.4296
L26.0486 2.3691
" />
<path d="M26.0486 2.3691
L26.1696 2.3087
" />
<path d="M26.1696 2.3087
L26.4115 2.3087
" />
<path d="M26.4115 2.3087
L26.5324 2.3691
" />
</g></g>
<g style="fill:#840084; fill-opacity:0.0; 
stroke:#840084; stroke-width:0.1588; stroke-opacity:1; 
stroke-linecap:round; stroke-linejoin:round;">
<g transform="rotate(-90.000000 10.1930 10.1878)">
<text x="10.1930" y="10.8228"
textLength="1.0501" font-size="1.6933" lengthAdjust="spacingAndGlyphs"
text-anchor="middle" opacity="0">~</text>
</g>
<g class="stroked-text"><desc>~</desc>
<path d="M10.2967 10.5203
L10.2362 10.4598
" />
<path d="M10.2362 10.4598
L10.1758 10.3389
" />
<path d="M10.1758 10.3389
L10.2967 10.0970
" />
<path d="M10.2967 10.0970
L10.2362 9.9760
" />
<path d="M10.2362 9.9760
L10.1758 9.9155
" />
</g></g> 
</svg>
