<?xml version="1.0" standalone="no"?>
 <!DOCTYPE svg PUBLIC "-//W3C//DTD SVG 1.1//EN" 
 "http://www.w3.org/Graphics/SVG/1.1/DTD/svg11.dtd"> 
<svg
  xmlns:svg="http://www.w3.org/2000/svg"
  xmlns="http://www.w3.org/2000/svg"
  xmlns:xlink="http://www.w3.org/1999/xlink"
  version="1.1"
  width="37.8968mm" height="23.3426mm" viewBox="0.0000 0.0000 37.8968 23.3426">
<title>SVG Image created as working.svg date 2023/07/31 00:33:26 </title>
  <desc>Image generated by Eeschema-SVG </desc>
<g style="fill:#000000; fill-opacity:1.0000;stroke:#000000; stroke-opacity:1.0000;
stroke-linecap:round; stroke-linejoin:round;"
 transform="translate(0 0) scale(1 1)">
</g>
<g style="fill:#840000; fill-opacity:0.0; 
stroke:#840000; stroke-width:0.0000; stroke-opacity:1; 
stroke-linecap:round; stroke-linejoin:round;">
</g>
<g style="fill:#FFFFC2; fill-opacity:0.0; 
stroke:#FFFFC2; stroke-width:0.0000; stroke-opacity:1; 
stroke-linecap:round; stroke-linejoin:round;">
</g>
<g style="fill:#FFFFC2; fill-opacity:1.0000; 
stroke:#FFFFC2; stroke-width:0.0000; stroke-opacity:1; 
stroke-linecap:round; stroke-linejoin:round;">
<rect x="12.604200" y="4.048200" width="12.700000" height="12.700000" rx="0.000000" />
</g>
<g style="fill:#840084; fill-opacity:1.0000; 
stroke:#840084; stroke-width:0.0000; stroke-opacity:1; 
stroke-linecap:round; stroke-linejoin:round;">
</g>
<g style="fill:#840000; fill-opacity:1.0000; 
stroke:#840000; stroke-width:0.0000; stroke-opacity:1; 
stroke-linecap:round; stroke-linejoin:round;">
</g>
<g style="fill:#840000; fill-opacity:0.0; 
stroke:#840000; stroke-width:0.1524; stroke-opacity:1; 
stroke-linecap:round; stroke-linejoin:round;">
<rect x="12.604200" y="4.048200" width="12.700000" height="12.700000" rx="0.000000" />
<path d="M25.3042 9.1282
L27.8442 9.1282
" />
</g>
<g style="fill:#006464; fill-opacity:0.0; 
stroke:#006464; stroke-width:0.1524; stroke-opacity:1; 
stroke-linecap:round; stroke-linejoin:round;">
<text x="24.2882" y="9.7632"
textLength="2.7275" font-size="1.6933" lengthAdjust="spacingAndGlyphs"
text-anchor="end" opacity="0">OD</text>
<g class="stroked-text"><desc>OD</desc>
<path d="M22.2319 8.4457
L22.4738 8.4457
" />
<path d="M22.4738 8.4457
L22.5948 8.5062
" />
<path d="M22.5948 8.5062
L22.7157 8.6272
" />
<path d="M22.7157 8.6272
L22.7762 8.8691
" />
<path d="M22.7762 8.8691
L22.7762 9.2924
" />
<path d="M22.7762 9.2924
L22.7157 9.5343
" />
<path d="M22.7157 9.5343
L22.5948 9.6553
" />
<path d="M22.5948 9.6553
L22.4738 9.7157
" />
<path d="M22.4738 9.7157
L22.2319 9.7157
" />
<path d="M22.2319 9.7157
L22.1110 9.6553
" />
<path d="M22.1110 9.6553
L21.9900 9.5343
" />
<path d="M21.9900 9.5343
L21.9296 9.2924
" />
<path d="M21.9296 9.2924
L21.9296 8.8691
" />
<path d="M21.9296 8.8691
L21.9900 8.6272
" />
<path d="M21.9900 8.6272
L22.1110 8.5062
" />
<path d="M22.1110 8.5062
L22.2319 8.4457
" />
<path d="M23.3205 9.7157
L23.3205 8.4457
" />
<path d="M23.3205 8.4457
L23.6229 8.4457
" />
<path d="M23.6229 8.4457
L23.8043 8.5062
" />
<path d="M23.8043 8.5062
L23.9253 8.6272
" />
<path d="M23.9253 8.6272
L23.9858 8.7481
" />
<path d="M23.9858 8.7481
L24.0462 8.9900
" />
<path d="M24.0462 8.9900
L24.0462 9.1714
" />
<path d="M24.0462 9.1714
L23.9858 9.4133
" />
<path d="M23.9858 9.4133
L23.9253 9.5343
" />
<path d="M23.9253 9.5343
L23.8043 9.6553
" />
<path d="M23.8043 9.6553
L23.6229 9.7157
" />
<path d="M23.6229 9.7157
L23.3205 9.7157
" />
</g></g>
<g style="fill:#A90000; fill-opacity:0.0; 
stroke:#A90000; stroke-width:0.1524; stroke-opacity:1; 
stroke-linecap:round; stroke-linejoin:round;">
<text x="26.5742" y="8.8742"
textLength="1.3365" font-size="1.6933" lengthAdjust="spacingAndGlyphs"
text-anchor="middle" opacity="0">1</text>
<g class="stroked-text"><desc>1</desc>
<path d="M26.9371 8.7187
L26.2114 8.7187
" />
<path d="M26.5742 8.7187
L26.5742 7.4487
" />
<path d="M26.5742 7.4487
L26.4533 7.6302
" />
<path d="M26.4533 7.6302
L26.3323 7.7511
" />
<path d="M26.3323 7.7511
L26.2114 7.8116
" />
</g></g>
<g style="fill:#840000; fill-opacity:0.0; 
stroke:#840000; stroke-width:0.1524; stroke-opacity:1; 
stroke-linecap:round; stroke-linejoin:round;">
<path d="M25.3042 11.6682
L27.8442 11.6682
" />
</g>
<g style="fill:#006464; fill-opacity:0.0; 
stroke:#006464; stroke-width:0.1524; stroke-opacity:1; 
stroke-linecap:round; stroke-linejoin:round;">
<text x="24.2882" y="12.3032"
textLength="2.6670" font-size="1.6933" lengthAdjust="spacingAndGlyphs"
text-anchor="end" opacity="0">VM</text>
<g class="stroked-text"><desc>VM</desc>
<path d="M21.8691 10.9857
L22.2924 12.2557
" />
<path d="M22.2924 12.2557
L22.7158 10.9857
" />
<path d="M23.1391 12.2557
L23.1391 10.9857
" />
<path d="M23.1391 10.9857
L23.5625 11.8929
" />
<path d="M23.5625 11.8929
L23.9858 10.9857
" />
<path d="M23.9858 10.9857
L23.9858 12.2557
" />
</g></g>
<g style="fill:#A90000; fill-opacity:0.0; 
stroke:#A90000; stroke-width:0.1524; stroke-opacity:1; 
stroke-linecap:round; stroke-linejoin:round;">
<text x="26.5742" y="11.4142"
textLength="1.3365" font-size="1.6933" lengthAdjust="spacingAndGlyphs"
text-anchor="middle" opacity="0">2</text>
<g class="stroked-text"><desc>2</desc>
<path d="M26.2114 10.1097
L26.2718 10.0492
" />
<path d="M26.2718 10.0492
L26.3928 9.9887
" />
<path d="M26.3928 9.9887
L26.6952 9.9887
" />
<path d="M26.6952 9.9887
L26.8161 10.0492
" />
<path d="M26.8161 10.0492
L26.8766 10.1097
" />
<path d="M26.8766 10.1097
L26.9371 10.2306
" />
<path d="M26.9371 10.2306
L26.9371 10.3516
" />
<path d="M26.9371 10.3516
L26.8766 10.5330
" />
<path d="M26.8766 10.5330
L26.1509 11.2587
" />
<path d="M26.1509 11.2587
L26.9371 11.2587
" />
</g></g>
<g style="fill:#840000; fill-opacity:0.0; 
stroke:#840000; stroke-width:0.1524; stroke-opacity:1; 
stroke-linecap:round; stroke-linejoin:round;">
<path d="M25.3042 6.5882
L27.8442 6.5882
" />
</g>
<g style="fill:#006464; fill-opacity:0.0; 
stroke:#006464; stroke-width:0.1524; stroke-opacity:1; 
stroke-linecap:round; stroke-linejoin:round;">
<text x="24.2882" y="7.2232"
textLength="2.7275" font-size="1.6933" lengthAdjust="spacingAndGlyphs"
text-anchor="end" opacity="0">OC</text>
<g class="stroked-text"><desc>OC</desc>
<path d="M22.2319 5.9057
L22.4738 5.9057
" />
<path d="M22.4738 5.9057
L22.5948 5.9662
" />
<path d="M22.5948 5.9662
L22.7157 6.0872
" />
<path d="M22.7157 6.0872
L22.7762 6.3291
" />
<path d="M22.7762 6.3291
L22.7762 6.7524
" />
<path d="M22.7762 6.7524
L22.7157 6.9943
" />
<path d="M22.7157 6.9943
L22.5948 7.1153
" />
<path d="M22.5948 7.1153
L22.4738 7.1757
" />
<path d="M22.4738 7.1757
L22.2319 7.1757
" />
<path d="M22.2319 7.1757
L22.1110 7.1153
" />
<path d="M22.1110 7.1153
L21.9900 6.9943
" />
<path d="M21.9900 6.9943
L21.9296 6.7524
" />
<path d="M21.9296 6.7524
L21.9296 6.3291
" />
<path d="M21.9296 6.3291
L21.9900 6.0872
" />
<path d="M21.9900 6.0872
L22.1110 5.9662
" />
<path d="M22.1110 5.9662
L22.2319 5.9057
" />
<path d="M24.0462 7.0548
L23.9858 7.1153
" />
<path d="M23.9858 7.1153
L23.8043 7.1757
" />
<path d="M23.8043 7.1757
L23.6834 7.1757
" />
<path d="M23.6834 7.1757
L23.5020 7.1153
" />
<path d="M23.5020 7.1153
L23.3810 6.9943
" />
<path d="M23.3810 6.9943
L23.3205 6.8733
" />
<path d="M23.3205 6.8733
L23.2601 6.6314
" />
<path d="M23.2601 6.6314
L23.2601 6.4500
" />
<path d="M23.2601 6.4500
L23.3205 6.2081
" />
<path d="M23.3205 6.2081
L23.3810 6.0872
" />
<path d="M23.3810 6.0872
L23.5020 5.9662
" />
<path d="M23.5020 5.9662
L23.6834 5.9057
" />
<path d="M23.6834 5.9057
L23.8043 5.9057
" />
<path d="M23.8043 5.9057
L23.9858 5.9662
" />
<path d="M23.9858 5.9662
L24.0462 6.0267
" />
</g></g>
<g style="fill:#A90000; fill-opacity:0.0; 
stroke:#A90000; stroke-width:0.1524; stroke-opacity:1; 
stroke-linecap:round; stroke-linejoin:round;">
<text x="26.5742" y="6.3342"
textLength="1.3365" font-size="1.6933" lengthAdjust="spacingAndGlyphs"
text-anchor="middle" opacity="0">3</text>
<g class="stroked-text"><desc>3</desc>
<path d="M26.1509 4.9087
L26.9371 4.9087
" />
<path d="M26.9371 4.9087
L26.5137 5.3925
" />
<path d="M26.5137 5.3925
L26.6952 5.3925
" />
<path d="M26.6952 5.3925
L26.8161 5.4530
" />
<path d="M26.8161 5.4530
L26.8766 5.5135
" />
<path d="M26.8766 5.5135
L26.9371 5.6344
" />
<path d="M26.9371 5.6344
L26.9371 5.9368
" />
<path d="M26.9371 5.9368
L26.8766 6.0578
" />
<path d="M26.8766 6.0578
L26.8161 6.1183
" />
<path d="M26.8161 6.1183
L26.6952 6.1787
" />
<path d="M26.6952 6.1787
L26.3323 6.1787
" />
<path d="M26.3323 6.1787
L26.2114 6.1183
" />
<path d="M26.2114 6.1183
L26.1509 6.0578
" />
</g></g>
<g style="fill:#840000; fill-opacity:0.0; 
stroke:#840000; stroke-width:0.1524; stroke-opacity:1; 
stroke-linecap:round; stroke-linejoin:round;">
<path d="M25.3042 14.2082
L27.8442 14.2082
" />
</g>
<g style="fill:#006464; fill-opacity:0.0; 
stroke:#006464; stroke-width:0.1524; stroke-opacity:1; 
stroke-linecap:round; stroke-linejoin:round;">
<text x="24.2882" y="14.8432"
textLength="2.3646" font-size="1.6933" lengthAdjust="spacingAndGlyphs"
text-anchor="end" opacity="0">TD</text>
<g class="stroked-text"><desc>TD</desc>
<path d="M22.1715 13.5257
L22.8972 13.5257
" />
<path d="M22.5344 14.7957
L22.5344 13.5257
" />
<path d="M23.3205 14.7957
L23.3205 13.5257
" />
<path d="M23.3205 13.5257
L23.6229 13.5257
" />
<path d="M23.6229 13.5257
L23.8043 13.5862
" />
<path d="M23.8043 13.5862
L23.9253 13.7072
" />
<path d="M23.9253 13.7072
L23.9858 13.8281
" />
<path d="M23.9858 13.8281
L24.0462 14.0700
" />
<path d="M24.0462 14.0700
L24.0462 14.2514
" />
<path d="M24.0462 14.2514
L23.9858 14.4933
" />
<path d="M23.9858 14.4933
L23.9253 14.6143
" />
<path d="M23.9253 14.6143
L23.8043 14.7353
" />
<path d="M23.8043 14.7353
L23.6229 14.7957
" />
<path d="M23.6229 14.7957
L23.3205 14.7957
" />
</g></g>
<g style="fill:#A90000; fill-opacity:0.0; 
stroke:#A90000; stroke-width:0.1524; stroke-opacity:1; 
stroke-linecap:round; stroke-linejoin:round;">
<text x="26.5742" y="13.9542"
textLength="1.3365" font-size="1.6933" lengthAdjust="spacingAndGlyphs"
text-anchor="middle" opacity="0">4</text>
<g class="stroked-text"><desc>4</desc>
<path d="M26.8161 12.9521
L26.8161 13.7987
" />
<path d="M26.5137 12.4683
L26.2114 13.3754
" />
<path d="M26.2114 13.3754
L26.9975 13.3754
" />
</g></g>
<g style="fill:#840000; fill-opacity:0.0; 
stroke:#840000; stroke-width:0.1524; stroke-opacity:1; 
stroke-linecap:round; stroke-linejoin:round;">
<path d="M12.6042 6.5882
L10.0642 6.5882
" />
</g>
<g style="fill:#006464; fill-opacity:0.0; 
stroke:#006464; stroke-width:0.1524; stroke-opacity:1; 
stroke-linecap:round; stroke-linejoin:round;">
<text x="13.6202" y="7.2232"
textLength="3.7556" font-size="1.6933" lengthAdjust="spacingAndGlyphs"
text-anchor="start" opacity="0">VDD</text>
<g class="stroked-text"><desc>VDD</desc>
<path d="M13.7411 5.9057
L14.1644 7.1757
" />
<path d="M14.1644 7.1757
L14.5878 5.9057
" />
<path d="M15.0111 7.1757
L15.0111 5.9057
" />
<path d="M15.0111 5.9057
L15.3135 5.9057
" />
<path d="M15.3135 5.9057
L15.4949 5.9662
" />
<path d="M15.4949 5.9662
L15.6159 6.0872
" />
<path d="M15.6159 6.0872
L15.6764 6.2081
" />
<path d="M15.6764 6.2081
L15.7368 6.4500
" />
<path d="M15.7368 6.4500
L15.7368 6.6314
" />
<path d="M15.7368 6.6314
L15.6764 6.8733
" />
<path d="M15.6764 6.8733
L15.6159 6.9943
" />
<path d="M15.6159 6.9943
L15.4949 7.1153
" />
<path d="M15.4949 7.1153
L15.3135 7.1757
" />
<path d="M15.3135 7.1757
L15.0111 7.1757
" />
<path d="M16.2811 7.1757
L16.2811 5.9057
" />
<path d="M16.2811 5.9057
L16.5835 5.9057
" />
<path d="M16.5835 5.9057
L16.7649 5.9662
" />
<path d="M16.7649 5.9662
L16.8859 6.0872
" />
<path d="M16.8859 6.0872
L16.9464 6.2081
" />
<path d="M16.9464 6.2081
L17.0068 6.4500
" />
<path d="M17.0068 6.4500
L17.0068 6.6314
" />
<path d="M17.0068 6.6314
L16.9464 6.8733
" />
<path d="M16.9464 6.8733
L16.8859 6.9943
" />
<path d="M16.8859 6.9943
L16.7649 7.1153
" />
<path d="M16.7649 7.1153
L16.5835 7.1757
" />
<path d="M16.5835 7.1757
L16.2811 7.1757
" />
</g></g>
<g style="fill:#A90000; fill-opacity:0.0; 
stroke:#A90000; stroke-width:0.1524; stroke-opacity:1; 
stroke-linecap:round; stroke-linejoin:round;">
<text x="11.3342" y="6.3342"
textLength="1.3365" font-size="1.6933" lengthAdjust="spacingAndGlyphs"
text-anchor="middle" opacity="0">5</text>
<g class="stroked-text"><desc>5</desc>
<path d="M11.6366 4.9087
L11.0318 4.9087
" />
<path d="M11.0318 4.9087
L10.9714 5.5135
" />
<path d="M10.9714 5.5135
L11.0318 5.4530
" />
<path d="M11.0318 5.4530
L11.1528 5.3925
" />
<path d="M11.1528 5.3925
L11.4552 5.3925
" />
<path d="M11.4552 5.3925
L11.5761 5.4530
" />
<path d="M11.5761 5.4530
L11.6366 5.5135
" />
<path d="M11.6366 5.5135
L11.6971 5.6344
" />
<path d="M11.6971 5.6344
L11.6971 5.9368
" />
<path d="M11.6971 5.9368
L11.6366 6.0578
" />
<path d="M11.6366 6.0578
L11.5761 6.1183
" />
<path d="M11.5761 6.1183
L11.4552 6.1787
" />
<path d="M11.4552 6.1787
L11.1528 6.1787
" />
<path d="M11.1528 6.1787
L11.0318 6.1183
" />
<path d="M11.0318 6.1183
L10.9714 6.0578
" />
</g></g>
<g style="fill:#840000; fill-opacity:0.0; 
stroke:#840000; stroke-width:0.1524; stroke-opacity:1; 
stroke-linecap:round; stroke-linejoin:round;">
<path d="M12.6042 14.2082
L10.0642 14.2082
" />
</g>
<g style="fill:#006464; fill-opacity:0.0; 
stroke:#006464; stroke-width:0.1524; stroke-opacity:1; 
stroke-linecap:round; stroke-linejoin:round;">
<text x="13.6202" y="14.8432"
textLength="3.9975" font-size="1.6933" lengthAdjust="spacingAndGlyphs"
text-anchor="start" opacity="0">GND</text>
<g class="stroked-text"><desc>GND</desc>
<path d="M14.5878 13.5862
L14.4668 13.5257
" />
<path d="M14.4668 13.5257
L14.2854 13.5257
" />
<path d="M14.2854 13.5257
L14.1040 13.5862
" />
<path d="M14.1040 13.5862
L13.9830 13.7072
" />
<path d="M13.9830 13.7072
L13.9225 13.8281
" />
<path d="M13.9225 13.8281
L13.8621 14.0700
" />
<path d="M13.8621 14.0700
L13.8621 14.2514
" />
<path d="M13.8621 14.2514
L13.9225 14.4933
" />
<path d="M13.9225 14.4933
L13.9830 14.6143
" />
<path d="M13.9830 14.6143
L14.1040 14.7353
" />
<path d="M14.1040 14.7353
L14.2854 14.7957
" />
<path d="M14.2854 14.7957
L14.4063 14.7957
" />
<path d="M14.4063 14.7957
L14.5878 14.7353
" />
<path d="M14.5878 14.7353
L14.6482 14.6748
" />
<path d="M14.6482 14.6748
L14.6482 14.2514
" />
<path d="M14.6482 14.2514
L14.4063 14.2514
" />
<path d="M15.1925 14.7957
L15.1925 13.5257
" />
<path d="M15.1925 13.5257
L15.9182 14.7957
" />
<path d="M15.9182 14.7957
L15.9182 13.5257
" />
<path d="M16.5230 14.7957
L16.5230 13.5257
" />
<path d="M16.5230 13.5257
L16.8254 13.5257
" />
<path d="M16.8254 13.5257
L17.0068 13.5862
" />
<path d="M17.0068 13.5862
L17.1278 13.7072
" />
<path d="M17.1278 13.7072
L17.1883 13.8281
" />
<path d="M17.1883 13.8281
L17.2487 14.0700
" />
<path d="M17.2487 14.0700
L17.2487 14.2514
" />
<path d="M17.2487 14.2514
L17.1883 14.4933
" />
<path d="M17.1883 14.4933
L17.1278 14.6143
" />
<path d="M17.1278 14.6143
L17.0068 14.7353
" />
<path d="M17.0068 14.7353
L16.8254 14.7957
" />
<path d="M16.8254 14.7957
L16.5230 14.7957
" />
</g></g>
<g style="fill:#A90000; fill-opacity:0.0; 
stroke:#A90000; stroke-width:0.1524; stroke-opacity:1; 
stroke-linecap:round; stroke-linejoin:round;">
<text x="11.3342" y="13.9542"
textLength="1.3365" font-size="1.6933" lengthAdjust="spacingAndGlyphs"
text-anchor="middle" opacity="0">6</text>
<g class="stroked-text"><desc>6</desc>
<path d="M11.5761 12.5287
L11.3342 12.5287
" />
<path d="M11.3342 12.5287
L11.2133 12.5892
" />
<path d="M11.2133 12.5892
L11.1528 12.6497
" />
<path d="M11.1528 12.6497
L11.0318 12.8311
" />
<path d="M11.0318 12.8311
L10.9714 13.0730
" />
<path d="M10.9714 13.0730
L10.9714 13.5568
" />
<path d="M10.9714 13.5568
L11.0318 13.6778
" />
<path d="M11.0318 13.6778
L11.0923 13.7383
" />
<path d="M11.0923 13.7383
L11.2133 13.7987
" />
<path d="M11.2133 13.7987
L11.4552 13.7987
" />
<path d="M11.4552 13.7987
L11.5761 13.7383
" />
<path d="M11.5761 13.7383
L11.6366 13.6778
" />
<path d="M11.6366 13.6778
L11.6971 13.5568
" />
<path d="M11.6971 13.5568
L11.6971 13.2544
" />
<path d="M11.6971 13.2544
L11.6366 13.1335
" />
<path d="M11.6366 13.1335
L11.5761 13.0730
" />
<path d="M11.5761 13.0730
L11.4552 13.0125
" />
<path d="M11.4552 13.0125
L11.2133 13.0125
" />
<path d="M11.2133 13.0125
L11.0923 13.0730
" />
<path d="M11.0923 13.0730
L11.0318 13.1335
" />
<path d="M11.0318 13.1335
L10.9714 13.2544
" />
</g></g>
<g style="fill:#840084; fill-opacity:0.0; 
stroke:#840084; stroke-width:0.1524; stroke-opacity:1; 
stroke-linecap:round; stroke-linejoin:round;">
</g>
<g style="fill:#006464; fill-opacity:0.0; 
stroke:#006464; stroke-width:0.1524; stroke-opacity:1; 
stroke-linecap:round; stroke-linejoin:round;">
</g>
<g style="fill:#006464; fill-opacity:0.0; 
stroke:#006464; stroke-width:0.1588; stroke-opacity:1; 
stroke-linecap:round; stroke-linejoin:round;">
<text x="22.7531" y="3.4132"
textLength="2.5621" font-size="1.6933" lengthAdjust="spacingAndGlyphs"
text-anchor="middle" opacity="0">U?</text>
<g class="stroked-text"><desc>U?</desc>
<path d="M21.8459 2.0957
L21.8459 3.1238
" />
<path d="M21.8459 3.1238
L21.9064 3.2448
" />
<path d="M21.9064 3.2448
L21.9669 3.3053
" />
<path d="M21.9669 3.3053
L22.0878 3.3657
" />
<path d="M22.0878 3.3657
L22.3297 3.3657
" />
<path d="M22.3297 3.3657
L22.4507 3.3053
" />
<path d="M22.4507 3.3053
L22.5112 3.2448
" />
<path d="M22.5112 3.2448
L22.5716 3.1238
" />
<path d="M22.5716 3.1238
L22.5716 2.0957
" />
<path d="M23.3579 3.2448
L23.4183 3.3053
" />
<path d="M23.4183 3.3053
L23.3579 3.3657
" />
<path d="M23.3579 3.3657
L23.2974 3.3053
" />
<path d="M23.2974 3.3053
L23.3579 3.2448
" />
<path d="M23.3579 3.2448
L23.3579 3.3657
" />
<path d="M23.1160 2.1562
L23.2369 2.0957
" />
<path d="M23.2369 2.0957
L23.5393 2.0957
" />
<path d="M23.5393 2.0957
L23.6602 2.1562
" />
<path d="M23.6602 2.1562
L23.7207 2.2772
" />
<path d="M23.7207 2.2772
L23.7207 2.3981
" />
<path d="M23.7207 2.3981
L23.6602 2.5191
" />
<path d="M23.6602 2.5191
L23.5998 2.5795
" />
<path d="M23.5998 2.5795
L23.4788 2.6400
" />
<path d="M23.4788 2.6400
L23.4183 2.7005
" />
<path d="M23.4183 2.7005
L23.3579 2.8214
" />
<path d="M23.3579 2.8214
L23.3579 2.8819
" />
</g><text x="18.9542" y="18.6532"
textLength="6.3720" font-size="1.6933" lengthAdjust="spacingAndGlyphs"
text-anchor="middle" opacity="0">DW01A</text>
<g class="stroked-text"><desc>DW01A</desc>
<path d="M16.1420 18.6057
L16.1420 17.3357
" />
<path d="M16.1420 17.3357
L16.4444 17.3357
" />
<path d="M16.4444 17.3357
L16.6258 17.3962
" />
<path d="M16.6258 17.3962
L16.7468 17.5172
" />
<path d="M16.7468 17.5172
L16.8073 17.6381
" />
<path d="M16.8073 17.6381
L16.8677 17.8800
" />
<path d="M16.8677 17.8800
L16.8677 18.0614
" />
<path d="M16.8677 18.0614
L16.8073 18.3033
" />
<path d="M16.8073 18.3033
L16.7468 18.4243
" />
<path d="M16.7468 18.4243
L16.6258 18.5453
" />
<path d="M16.6258 18.5453
L16.4444 18.6057
" />
<path d="M16.4444 18.6057
L16.1420 18.6057
" />
<path d="M17.2911 17.3357
L17.5935 18.6057
" />
<path d="M17.5935 18.6057
L17.8354 17.6986
" />
<path d="M17.8354 17.6986
L18.0773 18.6057
" />
<path d="M18.0773 18.6057
L18.3797 17.3357
" />
<path d="M19.1053 17.3357
L19.2263 17.3357
" />
<path d="M19.2263 17.3357
L19.3472 17.3962
" />
<path d="M19.3472 17.3962
L19.4077 17.4567
" />
<path d="M19.4077 17.4567
L19.4682 17.5776
" />
<path d="M19.4682 17.5776
L19.5287 17.8195
" />
<path d="M19.5287 17.8195
L19.5287 18.1219
" />
<path d="M19.5287 18.1219
L19.4682 18.3638
" />
<path d="M19.4682 18.3638
L19.4077 18.4848
" />
<path d="M19.4077 18.4848
L19.3472 18.5453
" />
<path d="M19.3472 18.5453
L19.2263 18.6057
" />
<path d="M19.2263 18.6057
L19.1053 18.6057
" />
<path d="M19.1053 18.6057
L18.9844 18.5453
" />
<path d="M18.9844 18.5453
L18.9239 18.4848
" />
<path d="M18.9239 18.4848
L18.8634 18.3638
" />
<path d="M18.8634 18.3638
L18.8030 18.1219
" />
<path d="M18.8030 18.1219
L18.8030 17.8195
" />
<path d="M18.8030 17.8195
L18.8634 17.5776
" />
<path d="M18.8634 17.5776
L18.9239 17.4567
" />
<path d="M18.9239 17.4567
L18.9844 17.3962
" />
<path d="M18.9844 17.3962
L19.1053 17.3357
" />
<path d="M20.7382 18.6057
L20.0125 18.6057
" />
<path d="M20.3753 18.6057
L20.3753 17.3357
" />
<path d="M20.3753 17.3357
L20.2544 17.5172
" />
<path d="M20.2544 17.5172
L20.1334 17.6381
" />
<path d="M20.1334 17.6381
L20.0125 17.6986
" />
<path d="M21.2220 18.2429
L21.8267 18.2429
" />
<path d="M21.1010 18.6057
L21.5243 17.3357
" />
<path d="M21.5243 17.3357
L21.9477 18.6057
" />
</g></g>
<g style="fill:#840084; fill-opacity:0.0; 
stroke:#840084; stroke-width:0.1588; stroke-opacity:1; 
stroke-linecap:round; stroke-linejoin:round;">
<text x="18.9542" y="21.1932"
textLength="31.5904" font-size="1.6933" lengthAdjust="spacingAndGlyphs"
text-anchor="middle" opacity="0">Package_TO_SOT_SMD:SOT-23-6</text>
<g class="stroked-text"><desc>Package_TO_SOT_SMD:SOT-23-6</desc>
<path d="M3.5328 21.1457
L3.5328 19.8757
" />
<path d="M3.5328 19.8757
L4.0166 19.8757
" />
<path d="M4.0166 19.8757
L4.1376 19.9362
" />
<path d="M4.1376 19.9362
L4.1981 19.9967
" />
<path d="M4.1981 19.9967
L4.2585 20.1176
" />
<path d="M4.2585 20.1176
L4.2585 20.2991
" />
<path d="M4.2585 20.2991
L4.1981 20.4200
" />
<path d="M4.1981 20.4200
L4.1376 20.4805
" />
<path d="M4.1376 20.4805
L4.0166 20.5410
" />
<path d="M4.0166 20.5410
L3.5328 20.5410
" />
<path d="M5.3471 21.1457
L5.3471 20.4805
" />
<path d="M5.3471 20.4805
L5.2866 20.3595
" />
<path d="M5.2866 20.3595
L5.1657 20.2991
" />
<path d="M5.1657 20.2991
L4.9238 20.2991
" />
<path d="M4.9238 20.2991
L4.8028 20.3595
" />
<path d="M5.3471 21.0853
L5.2262 21.1457
" />
<path d="M5.2262 21.1457
L4.9238 21.1457
" />
<path d="M4.9238 21.1457
L4.8028 21.0853
" />
<path d="M4.8028 21.0853
L4.7424 20.9643
" />
<path d="M4.7424 20.9643
L4.7424 20.8433
" />
<path d="M4.7424 20.8433
L4.8028 20.7224
" />
<path d="M4.8028 20.7224
L4.9238 20.6619
" />
<path d="M4.9238 20.6619
L5.2262 20.6619
" />
<path d="M5.2262 20.6619
L5.3471 20.6014
" />
<path d="M6.4961 21.0853
L6.3752 21.1457
" />
<path d="M6.3752 21.1457
L6.1333 21.1457
" />
<path d="M6.1333 21.1457
L6.0123 21.0853
" />
<path d="M6.0123 21.0853
L5.9518 21.0248
" />
<path d="M5.9518 21.0248
L5.8914 20.9038
" />
<path d="M5.8914 20.9038
L5.8914 20.5410
" />
<path d="M5.8914 20.5410
L5.9518 20.4200
" />
<path d="M5.9518 20.4200
L6.0123 20.3595
" />
<path d="M6.0123 20.3595
L6.1333 20.2991
" />
<path d="M6.1333 20.2991
L6.3752 20.2991
" />
<path d="M6.3752 20.2991
L6.4961 20.3595
" />
<path d="M7.0404 21.1457
L7.0404 19.8757
" />
<path d="M7.1614 20.6619
L7.5242 21.1457
" />
<path d="M7.5242 20.2991
L7.0404 20.7829
" />
<path d="M8.6128 21.1457
L8.6128 20.4805
" />
<path d="M8.6128 20.4805
L8.5523 20.3595
" />
<path d="M8.5523 20.3595
L8.4314 20.2991
" />
<path d="M8.4314 20.2991
L8.1895 20.2991
" />
<path d="M8.1895 20.2991
L8.0685 20.3595
" />
<path d="M8.6128 21.0853
L8.4919 21.1457
" />
<path d="M8.4919 21.1457
L8.1895 21.1457
" />
<path d="M8.1895 21.1457
L8.0685 21.0853
" />
<path d="M8.0685 21.0853
L8.0081 20.9643
" />
<path d="M8.0081 20.9643
L8.0081 20.8433
" />
<path d="M8.0081 20.8433
L8.0685 20.7224
" />
<path d="M8.0685 20.7224
L8.1895 20.6619
" />
<path d="M8.1895 20.6619
L8.4919 20.6619
" />
<path d="M8.4919 20.6619
L8.6128 20.6014
" />
<path d="M9.7618 20.2991
L9.7618 21.3272
" />
<path d="M9.7618 21.3272
L9.7013 21.4481
" />
<path d="M9.7013 21.4481
L9.6409 21.5086
" />
<path d="M9.6409 21.5086
L9.5199 21.5691
" />
<path d="M9.5199 21.5691
L9.3385 21.5691
" />
<path d="M9.3385 21.5691
L9.2175 21.5086
" />
<path d="M9.7618 21.0853
L9.6409 21.1457
" />
<path d="M9.6409 21.1457
L9.3990 21.1457
" />
<path d="M9.3990 21.1457
L9.2780 21.0853
" />
<path d="M9.2780 21.0853
L9.2175 21.0248
" />
<path d="M9.2175 21.0248
L9.1571 20.9038
" />
<path d="M9.1571 20.9038
L9.1571 20.5410
" />
<path d="M9.1571 20.5410
L9.2175 20.4200
" />
<path d="M9.2175 20.4200
L9.2780 20.3595
" />
<path d="M9.2780 20.3595
L9.3990 20.2991
" />
<path d="M9.3990 20.2991
L9.6409 20.2991
" />
<path d="M9.6409 20.2991
L9.7618 20.3595
" />
<path d="M10.8503 21.0853
L10.7294 21.1457
" />
<path d="M10.7294 21.1457
L10.4875 21.1457
" />
<path d="M10.4875 21.1457
L10.3665 21.0853
" />
<path d="M10.3665 21.0853
L10.3061 20.9643
" />
<path d="M10.3061 20.9643
L10.3061 20.4805
" />
<path d="M10.3061 20.4805
L10.3665 20.3595
" />
<path d="M10.3665 20.3595
L10.4875 20.2991
" />
<path d="M10.4875 20.2991
L10.7294 20.2991
" />
<path d="M10.7294 20.2991
L10.8503 20.3595
" />
<path d="M10.8503 20.3595
L10.9108 20.4805
" />
<path d="M10.9108 20.4805
L10.9108 20.6014
" />
<path d="M10.9108 20.6014
L10.3061 20.7224
" />
<path d="M11.1528 21.2667
L12.1204 21.2667
" />
<path d="M12.2413 19.8757
L12.9670 19.8757
" />
<path d="M12.6042 21.1457
L12.6042 19.8757
" />
<path d="M13.6322 19.8757
L13.8741 19.8757
" />
<path d="M13.8741 19.8757
L13.9951 19.9362
" />
<path d="M13.9951 19.9362
L14.1160 20.0572
" />
<path d="M14.1160 20.0572
L14.1765 20.2991
" />
<path d="M14.1765 20.2991
L14.1765 20.7224
" />
<path d="M14.1765 20.7224
L14.1160 20.9643
" />
<path d="M14.1160 20.9643
L13.9951 21.0853
" />
<path d="M13.9951 21.0853
L13.8741 21.1457
" />
<path d="M13.8741 21.1457
L13.6322 21.1457
" />
<path d="M13.6322 21.1457
L13.5113 21.0853
" />
<path d="M13.5113 21.0853
L13.3903 20.9643
" />
<path d="M13.3903 20.9643
L13.3299 20.7224
" />
<path d="M13.3299 20.7224
L13.3299 20.2991
" />
<path d="M13.3299 20.2991
L13.3903 20.0572
" />
<path d="M13.3903 20.0572
L13.5113 19.9362
" />
<path d="M13.5113 19.9362
L13.6322 19.8757
" />
<path d="M14.4185 21.2667
L15.3861 21.2667
" />
<path d="M15.6280 21.0853
L15.8094 21.1457
" />
<path d="M15.8094 21.1457
L16.1118 21.1457
" />
<path d="M16.1118 21.1457
L16.2327 21.0853
" />
<path d="M16.2327 21.0853
L16.2932 21.0248
" />
<path d="M16.2932 21.0248
L16.3537 20.9038
" />
<path d="M16.3537 20.9038
L16.3537 20.7829
" />
<path d="M16.3537 20.7829
L16.2932 20.6619
" />
<path d="M16.2932 20.6619
L16.2327 20.6014
" />
<path d="M16.2327 20.6014
L16.1118 20.5410
" />
<path d="M16.1118 20.5410
L15.8699 20.4805
" />
<path d="M15.8699 20.4805
L15.7489 20.4200
" />
<path d="M15.7489 20.4200
L15.6884 20.3595
" />
<path d="M15.6884 20.3595
L15.6280 20.2386
" />
<path d="M15.6280 20.2386
L15.6280 20.1176
" />
<path d="M15.6280 20.1176
L15.6884 19.9967
" />
<path d="M15.6884 19.9967
L15.7489 19.9362
" />
<path d="M15.7489 19.9362
L15.8699 19.8757
" />
<path d="M15.8699 19.8757
L16.1722 19.8757
" />
<path d="M16.1722 19.8757
L16.3537 19.9362
" />
<path d="M17.1398 19.8757
L17.3817 19.8757
" />
<path d="M17.3817 19.8757
L17.5027 19.9362
" />
<path d="M17.5027 19.9362
L17.6236 20.0572
" />
<path d="M17.6236 20.0572
L17.6841 20.2991
" />
<path d="M17.6841 20.2991
L17.6841 20.7224
" />
<path d="M17.6841 20.7224
L17.6236 20.9643
" />
<path d="M17.6236 20.9643
L17.5027 21.0853
" />
<path d="M17.5027 21.0853
L17.3817 21.1457
" />
<path d="M17.3817 21.1457
L17.1398 21.1457
" />
<path d="M17.1398 21.1457
L17.0189 21.0853
" />
<path d="M17.0189 21.0853
L16.8979 20.9643
" />
<path d="M16.8979 20.9643
L16.8375 20.7224
" />
<path d="M16.8375 20.7224
L16.8375 20.2991
" />
<path d="M16.8375 20.2991
L16.8979 20.0572
" />
<path d="M16.8979 20.0572
L17.0189 19.9362
" />
<path d="M17.0189 19.9362
L17.1398 19.8757
" />
<path d="M18.0470 19.8757
L18.7727 19.8757
" />
<path d="M18.4099 21.1457
L18.4099 19.8757
" />
<path d="M18.8937 21.2667
L19.8613 21.2667
" />
<path d="M20.1032 21.0853
L20.2846 21.1457
" />
<path d="M20.2846 21.1457
L20.5870 21.1457
" />
<path d="M20.5870 21.1457
L20.7079 21.0853
" />
<path d="M20.7079 21.0853
L20.7684 21.0248
" />
<path d="M20.7684 21.0248
L20.8289 20.9038
" />
<path d="M20.8289 20.9038
L20.8289 20.7829
" />
<path d="M20.8289 20.7829
L20.7684 20.6619
" />
<path d="M20.7684 20.6619
L20.7079 20.6014
" />
<path d="M20.7079 20.6014
L20.5870 20.5410
" />
<path d="M20.5870 20.5410
L20.3451 20.4805
" />
<path d="M20.3451 20.4805
L20.2241 20.4200
" />
<path d="M20.2241 20.4200
L20.1636 20.3595
" />
<path d="M20.1636 20.3595
L20.1032 20.2386
" />
<path d="M20.1032 20.2386
L20.1032 20.1176
" />
<path d="M20.1032 20.1176
L20.1636 19.9967
" />
<path d="M20.1636 19.9967
L20.2241 19.9362
" />
<path d="M20.2241 19.9362
L20.3451 19.8757
" />
<path d="M20.3451 19.8757
L20.6474 19.8757
" />
<path d="M20.6474 19.8757
L20.8289 19.9362
" />
<path d="M21.3731 21.1457
L21.3731 19.8757
" />
<path d="M21.3731 19.8757
L21.7965 20.7829
" />
<path d="M21.7965 20.7829
L22.2198 19.8757
" />
<path d="M22.2198 19.8757
L22.2198 21.1457
" />
<path d="M22.8245 21.1457
L22.8245 19.8757
" />
<path d="M22.8245 19.8757
L23.1269 19.8757
" />
<path d="M23.1269 19.8757
L23.3083 19.9362
" />
<path d="M23.3083 19.9362
L23.4293 20.0572
" />
<path d="M23.4293 20.0572
L23.4898 20.1781
" />
<path d="M23.4898 20.1781
L23.5502 20.4200
" />
<path d="M23.5502 20.4200
L23.5502 20.6014
" />
<path d="M23.5502 20.6014
L23.4898 20.8433
" />
<path d="M23.4898 20.8433
L23.4293 20.9643
" />
<path d="M23.4293 20.9643
L23.3083 21.0853
" />
<path d="M23.3083 21.0853
L23.1269 21.1457
" />
<path d="M23.1269 21.1457
L22.8245 21.1457
" />
<path d="M24.0945 21.0248
L24.1550 21.0853
" />
<path d="M24.1550 21.0853
L24.0945 21.1457
" />
<path d="M24.0945 21.1457
L24.0341 21.0853
" />
<path d="M24.0341 21.0853
L24.0945 21.0248
" />
<path d="M24.0945 21.0248
L24.0945 21.1457
" />
<path d="M24.0945 20.3595
L24.1550 20.4200
" />
<path d="M24.1550 20.4200
L24.0945 20.4805
" />
<path d="M24.0945 20.4805
L24.0341 20.4200
" />
<path d="M24.0341 20.4200
L24.0945 20.3595
" />
<path d="M24.0945 20.3595
L24.0945 20.4805
" />
<path d="M24.6389 21.0853
L24.8203 21.1457
" />
<path d="M24.8203 21.1457
L25.1227 21.1457
" />
<path d="M25.1227 21.1457
L25.2436 21.0853
" />
<path d="M25.2436 21.0853
L25.3041 21.0248
" />
<path d="M25.3041 21.0248
L25.3646 20.9038
" />
<path d="M25.3646 20.9038
L25.3646 20.7829
" />
<path d="M25.3646 20.7829
L25.3041 20.6619
" />
<path d="M25.3041 20.6619
L25.2436 20.6014
" />
<path d="M25.2436 20.6014
L25.1227 20.5410
" />
<path d="M25.1227 20.5410
L24.8808 20.4805
" />
<path d="M24.8808 20.4805
L24.7598 20.4200
" />
<path d="M24.7598 20.4200
L24.6993 20.3595
" />
<path d="M24.6993 20.3595
L24.6389 20.2386
" />
<path d="M24.6389 20.2386
L24.6389 20.1176
" />
<path d="M24.6389 20.1176
L24.6993 19.9967
" />
<path d="M24.6993 19.9967
L24.7598 19.9362
" />
<path d="M24.7598 19.9362
L24.8808 19.8757
" />
<path d="M24.8808 19.8757
L25.1831 19.8757
" />
<path d="M25.1831 19.8757
L25.3646 19.9362
" />
<path d="M26.1507 19.8757
L26.3926 19.8757
" />
<path d="M26.3926 19.8757
L26.5136 19.9362
" />
<path d="M26.5136 19.9362
L26.6345 20.0572
" />
<path d="M26.6345 20.0572
L26.6950 20.2991
" />
<path d="M26.6950 20.2991
L26.6950 20.7224
" />
<path d="M26.6950 20.7224
L26.6345 20.9643
" />
<path d="M26.6345 20.9643
L26.5136 21.0853
" />
<path d="M26.5136 21.0853
L26.3926 21.1457
" />
<path d="M26.3926 21.1457
L26.1507 21.1457
" />
<path d="M26.1507 21.1457
L26.0298 21.0853
" />
<path d="M26.0298 21.0853
L25.9088 20.9643
" />
<path d="M25.9088 20.9643
L25.8484 20.7224
" />
<path d="M25.8484 20.7224
L25.8484 20.2991
" />
<path d="M25.8484 20.2991
L25.9088 20.0572
" />
<path d="M25.9088 20.0572
L26.0298 19.9362
" />
<path d="M26.0298 19.9362
L26.1507 19.8757
" />
<path d="M27.0579 19.8757
L27.7836 19.8757
" />
<path d="M27.4208 21.1457
L27.4208 19.8757
" />
<path d="M28.2069 20.6619
L29.1746 20.6619
" />
<path d="M29.7189 19.9967
L29.7793 19.9362
" />
<path d="M29.7793 19.9362
L29.9003 19.8757
" />
<path d="M29.9003 19.8757
L30.2027 19.8757
" />
<path d="M30.2027 19.8757
L30.3236 19.9362
" />
<path d="M30.3236 19.9362
L30.3841 19.9967
" />
<path d="M30.3841 19.9967
L30.4446 20.1176
" />
<path d="M30.4446 20.1176
L30.4446 20.2386
" />
<path d="M30.4446 20.2386
L30.3841 20.4200
" />
<path d="M30.3841 20.4200
L29.6584 21.1457
" />
<path d="M29.6584 21.1457
L30.4446 21.1457
" />
<path d="M30.8679 19.8757
L31.6541 19.8757
" />
<path d="M31.6541 19.8757
L31.2307 20.3595
" />
<path d="M31.2307 20.3595
L31.4122 20.3595
" />
<path d="M31.4122 20.3595
L31.5331 20.4200
" />
<path d="M31.5331 20.4200
L31.5936 20.4805
" />
<path d="M31.5936 20.4805
L31.6541 20.6014
" />
<path d="M31.6541 20.6014
L31.6541 20.9038
" />
<path d="M31.6541 20.9038
L31.5936 21.0248
" />
<path d="M31.5936 21.0248
L31.5331 21.0853
" />
<path d="M31.5331 21.0853
L31.4122 21.1457
" />
<path d="M31.4122 21.1457
L31.0493 21.1457
" />
<path d="M31.0493 21.1457
L30.9284 21.0853
" />
<path d="M30.9284 21.0853
L30.8679 21.0248
" />
<path d="M32.1983 20.6619
L33.1660 20.6619
" />
<path d="M34.3150 19.8757
L34.0731 19.8757
" />
<path d="M34.0731 19.8757
L33.9522 19.9362
" />
<path d="M33.9522 19.9362
L33.8917 19.9967
" />
<path d="M33.8917 19.9967
L33.7707 20.1781
" />
<path d="M33.7707 20.1781
L33.7103 20.4200
" />
<path d="M33.7103 20.4200
L33.7103 20.9038
" />
<path d="M33.7103 20.9038
L33.7707 21.0248
" />
<path d="M33.7707 21.0248
L33.8312 21.0853
" />
<path d="M33.8312 21.0853
L33.9522 21.1457
" />
<path d="M33.9522 21.1457
L34.1941 21.1457
" />
<path d="M34.1941 21.1457
L34.3150 21.0853
" />
<path d="M34.3150 21.0853
L34.3755 21.0248
" />
<path d="M34.3755 21.0248
L34.4360 20.9038
" />
<path d="M34.4360 20.9038
L34.4360 20.6014
" />
<path d="M34.4360 20.6014
L34.3755 20.4805
" />
<path d="M34.3755 20.4805
L34.3150 20.4200
" />
<path d="M34.3150 20.4200
L34.1941 20.3595
" />
<path d="M34.1941 20.3595
L33.9522 20.3595
" />
<path d="M33.9522 20.3595
L33.8312 20.4200
" />
<path d="M33.8312 20.4200
L33.7707 20.4805
" />
<path d="M33.7707 20.4805
L33.7103 20.6014
" />
</g></g> 
</svg>
