<?xml version="1.0" standalone="no"?>
 <!DOCTYPE svg PUBLIC "-//W3C//DTD SVG 1.1//EN" 
 "http://www.w3.org/Graphics/SVG/1.1/DTD/svg11.dtd"> 
<svg
  xmlns:svg="http://www.w3.org/2000/svg"
  xmlns="http://www.w3.org/2000/svg"
  xmlns:xlink="http://www.w3.org/1999/xlink"
  version="1.1"
  width="75.8952mm" height="14.6558mm" viewBox="0.0000 0.0000 75.8952 14.6558">
<title>SVG Image created as working.svg date 2023/08/09 10:41:38 </title>
  <desc>Image generated by Eeschema-SVG </desc>
<g style="fill:#000000; fill-opacity:1.0000;stroke:#000000; stroke-opacity:1.0000;
stroke-linecap:round; stroke-linejoin:round;"
 transform="translate(0 0) scale(1 1)">
</g>
<g style="fill:#840000; fill-opacity:0.0; 
stroke:#840000; stroke-width:0.0000; stroke-opacity:1; 
stroke-linecap:round; stroke-linejoin:round;">
</g>
<g style="fill:#840084; fill-opacity:0.0; 
stroke:#840084; stroke-width:0.0000; stroke-opacity:1; 
stroke-linecap:round; stroke-linejoin:round;">
</g>
<g style="fill:#840000; fill-opacity:0.0; 
stroke:#840000; stroke-width:0.0000; stroke-opacity:1; 
stroke-linecap:round; stroke-linejoin:round;">
</g>
<g style="fill:#840084; fill-opacity:0.0; 
stroke:#840084; stroke-width:0.0000; stroke-opacity:1; 
stroke-linecap:round; stroke-linejoin:round;">
</g>
<g style="fill:#006464; fill-opacity:0.0; 
stroke:#006464; stroke-width:0.0000; stroke-opacity:1; 
stroke-linecap:round; stroke-linejoin:round;">
</g>
<g style="fill:#006464; fill-opacity:0.0; 
stroke:#006464; stroke-width:0.1588; stroke-opacity:1; 
stroke-linecap:round; stroke-linejoin:round;">
<text x="39.2635" y="2.8769"
textLength="2.6415" font-size="1.6933" lengthAdjust="spacingAndGlyphs"
text-anchor="middle" opacity="0">U?</text>
<g class="stroked-text"><desc>U?</desc>
<path d="M38.3563 1.5511
L38.3563 2.5792
" />
<path d="M38.3563 2.5792
L38.4168 2.7002
" />
<path d="M38.4168 2.7002
L38.4773 2.7607
" />
<path d="M38.4773 2.7607
L38.5982 2.8211
" />
<path d="M38.5982 2.8211
L38.8401 2.8211
" />
<path d="M38.8401 2.8211
L38.9611 2.7607
" />
<path d="M38.9611 2.7607
L39.0216 2.7002
" />
<path d="M39.0216 2.7002
L39.0820 2.5792
" />
<path d="M39.0820 2.5792
L39.0820 1.5511
" />
<path d="M39.8683 2.7002
L39.9287 2.7607
" />
<path d="M39.9287 2.7607
L39.8683 2.8211
" />
<path d="M39.8683 2.8211
L39.8078 2.7607
" />
<path d="M39.8078 2.7607
L39.8683 2.7002
" />
<path d="M39.8683 2.7002
L39.8683 2.8211
" />
<path d="M39.6264 1.6116
L39.7473 1.5511
" />
<path d="M39.7473 1.5511
L40.0497 1.5511
" />
<path d="M40.0497 1.5511
L40.1706 1.6116
" />
<path d="M40.1706 1.6116
L40.2311 1.7326
" />
<path d="M40.2311 1.7326
L40.2311 1.8535
" />
<path d="M40.2311 1.8535
L40.1706 1.9745
" />
<path d="M40.1706 1.9745
L40.1102 2.0349
" />
<path d="M40.1102 2.0349
L39.9892 2.0954
" />
<path d="M39.9892 2.0954
L39.9287 2.1559
" />
<path d="M39.9287 2.1559
L39.8683 2.2768
" />
<path d="M39.8683 2.2768
L39.8683 2.3373
" />
</g><text x="46.0670" y="13.0369"
textLength="16.2485" font-size="1.6933" lengthAdjust="spacingAndGlyphs"
text-anchor="middle" opacity="0">MCP6401UT-xOT</text>
<g class="stroked-text"><desc>MCP6401UT-xOT</desc>
<path d="M38.3563 12.9811
L38.3563 11.7111
" />
<path d="M38.3563 11.7111
L38.7797 12.6183
" />
<path d="M38.7797 12.6183
L39.2030 11.7111
" />
<path d="M39.2030 11.7111
L39.2030 12.9811
" />
<path d="M40.5334 12.8602
L40.4730 12.9207
" />
<path d="M40.4730 12.9207
L40.2915 12.9811
" />
<path d="M40.2915 12.9811
L40.1706 12.9811
" />
<path d="M40.1706 12.9811
L39.9892 12.9207
" />
<path d="M39.9892 12.9207
L39.8682 12.7997
" />
<path d="M39.8682 12.7997
L39.8077 12.6787
" />
<path d="M39.8077 12.6787
L39.7473 12.4368
" />
<path d="M39.7473 12.4368
L39.7473 12.2554
" />
<path d="M39.7473 12.2554
L39.8077 12.0135
" />
<path d="M39.8077 12.0135
L39.8682 11.8926
" />
<path d="M39.8682 11.8926
L39.9892 11.7716
" />
<path d="M39.9892 11.7716
L40.1706 11.7111
" />
<path d="M40.1706 11.7111
L40.2915 11.7111
" />
<path d="M40.2915 11.7111
L40.4730 11.7716
" />
<path d="M40.4730 11.7716
L40.5334 11.8321
" />
<path d="M41.0777 12.9811
L41.0777 11.7111
" />
<path d="M41.0777 11.7111
L41.5615 11.7111
" />
<path d="M41.5615 11.7111
L41.6825 11.7716
" />
<path d="M41.6825 11.7716
L41.7430 11.8321
" />
<path d="M41.7430 11.8321
L41.8034 11.9530
" />
<path d="M41.8034 11.9530
L41.8034 12.1345
" />
<path d="M41.8034 12.1345
L41.7430 12.2554
" />
<path d="M41.7430 12.2554
L41.6825 12.3159
" />
<path d="M41.6825 12.3159
L41.5615 12.3764
" />
<path d="M41.5615 12.3764
L41.0777 12.3764
" />
<path d="M42.8920 11.7111
L42.6501 11.7111
" />
<path d="M42.6501 11.7111
L42.5292 11.7716
" />
<path d="M42.5292 11.7716
L42.4687 11.8321
" />
<path d="M42.4687 11.8321
L42.3477 12.0135
" />
<path d="M42.3477 12.0135
L42.2873 12.2554
" />
<path d="M42.2873 12.2554
L42.2873 12.7392
" />
<path d="M42.2873 12.7392
L42.3477 12.8602
" />
<path d="M42.3477 12.8602
L42.4082 12.9207
" />
<path d="M42.4082 12.9207
L42.5292 12.9811
" />
<path d="M42.5292 12.9811
L42.7711 12.9811
" />
<path d="M42.7711 12.9811
L42.8920 12.9207
" />
<path d="M42.8920 12.9207
L42.9525 12.8602
" />
<path d="M42.9525 12.8602
L43.0130 12.7392
" />
<path d="M43.0130 12.7392
L43.0130 12.4368
" />
<path d="M43.0130 12.4368
L42.9525 12.3159
" />
<path d="M42.9525 12.3159
L42.8920 12.2554
" />
<path d="M42.8920 12.2554
L42.7711 12.1949
" />
<path d="M42.7711 12.1949
L42.5292 12.1949
" />
<path d="M42.5292 12.1949
L42.4082 12.2554
" />
<path d="M42.4082 12.2554
L42.3477 12.3159
" />
<path d="M42.3477 12.3159
L42.2873 12.4368
" />
<path d="M44.1015 12.1345
L44.1015 12.9811
" />
<path d="M43.7991 11.6507
L43.4968 12.5578
" />
<path d="M43.4968 12.5578
L44.2829 12.5578
" />
<path d="M45.0086 11.7111
L45.1296 11.7111
" />
<path d="M45.1296 11.7111
L45.2505 11.7716
" />
<path d="M45.2505 11.7716
L45.3110 11.8321
" />
<path d="M45.3110 11.8321
L45.3715 11.9530
" />
<path d="M45.3715 11.9530
L45.4320 12.1949
" />
<path d="M45.4320 12.1949
L45.4320 12.4973
" />
<path d="M45.4320 12.4973
L45.3715 12.7392
" />
<path d="M45.3715 12.7392
L45.3110 12.8602
" />
<path d="M45.3110 12.8602
L45.2505 12.9207
" />
<path d="M45.2505 12.9207
L45.1296 12.9811
" />
<path d="M45.1296 12.9811
L45.0086 12.9811
" />
<path d="M45.0086 12.9811
L44.8877 12.9207
" />
<path d="M44.8877 12.9207
L44.8272 12.8602
" />
<path d="M44.8272 12.8602
L44.7667 12.7392
" />
<path d="M44.7667 12.7392
L44.7063 12.4973
" />
<path d="M44.7063 12.4973
L44.7063 12.1949
" />
<path d="M44.7063 12.1949
L44.7667 11.9530
" />
<path d="M44.7667 11.9530
L44.8272 11.8321
" />
<path d="M44.8272 11.8321
L44.8877 11.7716
" />
<path d="M44.8877 11.7716
L45.0086 11.7111
" />
<path d="M46.6415 12.9811
L45.9158 12.9811
" />
<path d="M46.2786 12.9811
L46.2786 11.7111
" />
<path d="M46.2786 11.7111
L46.1577 11.8926
" />
<path d="M46.1577 11.8926
L46.0367 12.0135
" />
<path d="M46.0367 12.0135
L45.9158 12.0740
" />
<path d="M47.1857 11.7111
L47.1857 12.7392
" />
<path d="M47.1857 12.7392
L47.2462 12.8602
" />
<path d="M47.2462 12.8602
L47.3067 12.9207
" />
<path d="M47.3067 12.9207
L47.4276 12.9811
" />
<path d="M47.4276 12.9811
L47.6695 12.9811
" />
<path d="M47.6695 12.9811
L47.7905 12.9207
" />
<path d="M47.7905 12.9207
L47.8510 12.8602
" />
<path d="M47.8510 12.8602
L47.9114 12.7392
" />
<path d="M47.9114 12.7392
L47.9114 11.7111
" />
<path d="M48.3348 11.7111
L49.0605 11.7111
" />
<path d="M48.6977 12.9811
L48.6977 11.7111
" />
<path d="M49.4838 12.4973
L50.4515 12.4973
" />
<path d="M50.9353 12.9811
L51.6005 12.1345
" />
<path d="M50.9353 12.1345
L51.6005 12.9811
" />
<path d="M52.3262 11.7111
L52.5681 11.7111
" />
<path d="M52.5681 11.7111
L52.6891 11.7716
" />
<path d="M52.6891 11.7716
L52.8100 11.8926
" />
<path d="M52.8100 11.8926
L52.8705 12.1345
" />
<path d="M52.8705 12.1345
L52.8705 12.5578
" />
<path d="M52.8705 12.5578
L52.8100 12.7997
" />
<path d="M52.8100 12.7997
L52.6891 12.9207
" />
<path d="M52.6891 12.9207
L52.5681 12.9811
" />
<path d="M52.5681 12.9811
L52.3262 12.9811
" />
<path d="M52.3262 12.9811
L52.2053 12.9207
" />
<path d="M52.2053 12.9207
L52.0843 12.7997
" />
<path d="M52.0843 12.7997
L52.0239 12.5578
" />
<path d="M52.0239 12.5578
L52.0239 12.1345
" />
<path d="M52.0239 12.1345
L52.0843 11.8926
" />
<path d="M52.0843 11.8926
L52.2053 11.7716
" />
<path d="M52.2053 11.7716
L52.3262 11.7111
" />
<path d="M53.2334 11.7111
L53.9591 11.7111
" />
<path d="M53.5963 12.9811
L53.5963 11.7111
" />
</g></g>
<g style="fill:#840084; fill-opacity:0.0; 
stroke:#840084; stroke-width:0.1588; stroke-opacity:1; 
stroke-linecap:round; stroke-linejoin:round;">
<text x="37.9428" y="7.9569"
textLength="63.2381" font-size="1.6933" lengthAdjust="spacingAndGlyphs"
text-anchor="middle" opacity="0">http://ww1.microchip.com/downloads/en/devicedoc/22229d.pdf</text>
<g class="stroked-text"><desc>http://ww1.microchip.com/downloads/en/devicedoc/22229d.pdf</desc>
<path d="M6.7373 7.9011
L6.7373 6.6311
" />
<path d="M7.2816 7.9011
L7.2816 7.2359
" />
<path d="M7.2816 7.2359
L7.2211 7.1149
" />
<path d="M7.2211 7.1149
L7.1002 7.0545
" />
<path d="M7.1002 7.0545
L6.9188 7.0545
" />
<path d="M6.9188 7.0545
L6.7978 7.1149
" />
<path d="M6.7978 7.1149
L6.7373 7.1754
" />
<path d="M7.7049 7.0545
L8.1887 7.0545
" />
<path d="M7.8863 6.6311
L7.8863 7.7197
" />
<path d="M7.8863 7.7197
L7.9468 7.8407
" />
<path d="M7.9468 7.8407
L8.0678 7.9011
" />
<path d="M8.0678 7.9011
L8.1887 7.9011
" />
<path d="M8.4306 7.0545
L8.9144 7.0545
" />
<path d="M8.6120 6.6311
L8.6120 7.7197
" />
<path d="M8.6120 7.7197
L8.6725 7.8407
" />
<path d="M8.6725 7.8407
L8.7935 7.9011
" />
<path d="M8.7935 7.9011
L8.9144 7.9011
" />
<path d="M9.3377 7.0545
L9.3377 8.3245
" />
<path d="M9.3377 7.1149
L9.4587 7.0545
" />
<path d="M9.4587 7.0545
L9.7006 7.0545
" />
<path d="M9.7006 7.0545
L9.8215 7.1149
" />
<path d="M9.8215 7.1149
L9.8820 7.1754
" />
<path d="M9.8820 7.1754
L9.9425 7.2964
" />
<path d="M9.9425 7.2964
L9.9425 7.6592
" />
<path d="M9.9425 7.6592
L9.8820 7.7802
" />
<path d="M9.8820 7.7802
L9.8215 7.8407
" />
<path d="M9.8215 7.8407
L9.7006 7.9011
" />
<path d="M9.7006 7.9011
L9.4587 7.9011
" />
<path d="M9.4587 7.9011
L9.3377 7.8407
" />
<path d="M10.4867 7.7802
L10.5472 7.8407
" />
<path d="M10.5472 7.8407
L10.4867 7.9011
" />
<path d="M10.4867 7.9011
L10.4263 7.8407
" />
<path d="M10.4263 7.8407
L10.4867 7.7802
" />
<path d="M10.4867 7.7802
L10.4867 7.9011
" />
<path d="M10.4867 7.1149
L10.5472 7.1754
" />
<path d="M10.5472 7.1754
L10.4867 7.2359
" />
<path d="M10.4867 7.2359
L10.4263 7.1754
" />
<path d="M10.4263 7.1754
L10.4867 7.1149
" />
<path d="M10.4867 7.1149
L10.4867 7.2359
" />
<path d="M11.9987 6.5707
L10.9101 8.2035
" />
<path d="M13.3292 6.5707
L12.2406 8.2035
" />
<path d="M13.6316 7.0545
L13.8735 7.9011
" />
<path d="M13.8735 7.9011
L14.1154 7.2964
" />
<path d="M14.1154 7.2964
L14.3573 7.9011
" />
<path d="M14.3573 7.9011
L14.5992 7.0545
" />
<path d="M14.9621 7.0545
L15.2040 7.9011
" />
<path d="M15.2040 7.9011
L15.4459 7.2964
" />
<path d="M15.4459 7.2964
L15.6878 7.9011
" />
<path d="M15.6878 7.9011
L15.9297 7.0545
" />
<path d="M17.0788 7.9011
L16.3531 7.9011
" />
<path d="M16.7159 7.9011
L16.7159 6.6311
" />
<path d="M16.7159 6.6311
L16.5950 6.8126
" />
<path d="M16.5950 6.8126
L16.4740 6.9335
" />
<path d="M16.4740 6.9335
L16.3531 6.9940
" />
<path d="M17.6230 7.7802
L17.6835 7.8407
" />
<path d="M17.6835 7.8407
L17.6230 7.9011
" />
<path d="M17.6230 7.9011
L17.5626 7.8407
" />
<path d="M17.5626 7.8407
L17.6230 7.7802
" />
<path d="M17.6230 7.7802
L17.6230 7.9011
" />
<path d="M18.2278 7.9011
L18.2278 7.0545
" />
<path d="M18.2278 7.1754
L18.2883 7.1149
" />
<path d="M18.2883 7.1149
L18.4093 7.0545
" />
<path d="M18.4093 7.0545
L18.5907 7.0545
" />
<path d="M18.5907 7.0545
L18.7116 7.1149
" />
<path d="M18.7116 7.1149
L18.7721 7.2359
" />
<path d="M18.7721 7.2359
L18.7721 7.9011
" />
<path d="M18.7721 7.2359
L18.8326 7.1149
" />
<path d="M18.8326 7.1149
L18.9535 7.0545
" />
<path d="M18.9535 7.0545
L19.1350 7.0545
" />
<path d="M19.1350 7.0545
L19.2559 7.1149
" />
<path d="M19.2559 7.1149
L19.3164 7.2359
" />
<path d="M19.3164 7.2359
L19.3164 7.9011
" />
<path d="M19.9211 7.9011
L19.9211 7.0545
" />
<path d="M19.9211 6.6311
L19.8607 6.6916
" />
<path d="M19.8607 6.6916
L19.9211 6.7521
" />
<path d="M19.9211 6.7521
L19.9816 6.6916
" />
<path d="M19.9816 6.6916
L19.9211 6.6311
" />
<path d="M19.9211 6.6311
L19.9211 6.7521
" />
<path d="M21.0702 7.8407
L20.9493 7.9011
" />
<path d="M20.9493 7.9011
L20.7074 7.9011
" />
<path d="M20.7074 7.9011
L20.5864 7.8407
" />
<path d="M20.5864 7.8407
L20.5259 7.7802
" />
<path d="M20.5259 7.7802
L20.4655 7.6592
" />
<path d="M20.4655 7.6592
L20.4655 7.2964
" />
<path d="M20.4655 7.2964
L20.5259 7.1754
" />
<path d="M20.5259 7.1754
L20.5864 7.1149
" />
<path d="M20.5864 7.1149
L20.7074 7.0545
" />
<path d="M20.7074 7.0545
L20.9493 7.0545
" />
<path d="M20.9493 7.0545
L21.0702 7.1149
" />
<path d="M21.6145 7.9011
L21.6145 7.0545
" />
<path d="M21.6145 7.2964
L21.6750 7.1754
" />
<path d="M21.6750 7.1754
L21.7355 7.1149
" />
<path d="M21.7355 7.1149
L21.8564 7.0545
" />
<path d="M21.8564 7.0545
L21.9774 7.0545
" />
<path d="M22.5822 7.9011
L22.4612 7.8407
" />
<path d="M22.4612 7.8407
L22.4007 7.7802
" />
<path d="M22.4007 7.7802
L22.3403 7.6592
" />
<path d="M22.3403 7.6592
L22.3403 7.2964
" />
<path d="M22.3403 7.2964
L22.4007 7.1754
" />
<path d="M22.4007 7.1754
L22.4612 7.1149
" />
<path d="M22.4612 7.1149
L22.5822 7.0545
" />
<path d="M22.5822 7.0545
L22.7636 7.0545
" />
<path d="M22.7636 7.0545
L22.8845 7.1149
" />
<path d="M22.8845 7.1149
L22.9450 7.1754
" />
<path d="M22.9450 7.1754
L23.0055 7.2964
" />
<path d="M23.0055 7.2964
L23.0055 7.6592
" />
<path d="M23.0055 7.6592
L22.9450 7.7802
" />
<path d="M22.9450 7.7802
L22.8845 7.8407
" />
<path d="M22.8845 7.8407
L22.7636 7.9011
" />
<path d="M22.7636 7.9011
L22.5822 7.9011
" />
<path d="M24.0940 7.8407
L23.9731 7.9011
" />
<path d="M23.9731 7.9011
L23.7312 7.9011
" />
<path d="M23.7312 7.9011
L23.6102 7.8407
" />
<path d="M23.6102 7.8407
L23.5497 7.7802
" />
<path d="M23.5497 7.7802
L23.4893 7.6592
" />
<path d="M23.4893 7.6592
L23.4893 7.2964
" />
<path d="M23.4893 7.2964
L23.5497 7.1754
" />
<path d="M23.5497 7.1754
L23.6102 7.1149
" />
<path d="M23.6102 7.1149
L23.7312 7.0545
" />
<path d="M23.7312 7.0545
L23.9731 7.0545
" />
<path d="M23.9731 7.0545
L24.0940 7.1149
" />
<path d="M24.6383 7.9011
L24.6383 6.6311
" />
<path d="M25.1826 7.9011
L25.1826 7.2359
" />
<path d="M25.1826 7.2359
L25.1221 7.1149
" />
<path d="M25.1221 7.1149
L25.0012 7.0545
" />
<path d="M25.0012 7.0545
L24.8198 7.0545
" />
<path d="M24.8198 7.0545
L24.6988 7.1149
" />
<path d="M24.6988 7.1149
L24.6383 7.1754
" />
<path d="M25.7873 7.9011
L25.7873 7.0545
" />
<path d="M25.7873 6.6311
L25.7269 6.6916
" />
<path d="M25.7269 6.6916
L25.7873 6.7521
" />
<path d="M25.7873 6.7521
L25.8478 6.6916
" />
<path d="M25.8478 6.6916
L25.7873 6.6311
" />
<path d="M25.7873 6.6311
L25.7873 6.7521
" />
<path d="M26.3921 7.0545
L26.3921 8.3245
" />
<path d="M26.3921 7.1149
L26.5131 7.0545
" />
<path d="M26.5131 7.0545
L26.7550 7.0545
" />
<path d="M26.7550 7.0545
L26.8759 7.1149
" />
<path d="M26.8759 7.1149
L26.9364 7.1754
" />
<path d="M26.9364 7.1754
L26.9969 7.2964
" />
<path d="M26.9969 7.2964
L26.9969 7.6592
" />
<path d="M26.9969 7.6592
L26.9364 7.7802
" />
<path d="M26.9364 7.7802
L26.8759 7.8407
" />
<path d="M26.8759 7.8407
L26.7550 7.9011
" />
<path d="M26.7550 7.9011
L26.5131 7.9011
" />
<path d="M26.5131 7.9011
L26.3921 7.8407
" />
<path d="M27.5411 7.7802
L27.6016 7.8407
" />
<path d="M27.6016 7.8407
L27.5411 7.9011
" />
<path d="M27.5411 7.9011
L27.4807 7.8407
" />
<path d="M27.4807 7.8407
L27.5411 7.7802
" />
<path d="M27.5411 7.7802
L27.5411 7.9011
" />
<path d="M28.6902 7.8407
L28.5693 7.9011
" />
<path d="M28.5693 7.9011
L28.3274 7.9011
" />
<path d="M28.3274 7.9011
L28.2064 7.8407
" />
<path d="M28.2064 7.8407
L28.1459 7.7802
" />
<path d="M28.1459 7.7802
L28.0855 7.6592
" />
<path d="M28.0855 7.6592
L28.0855 7.2964
" />
<path d="M28.0855 7.2964
L28.1459 7.1754
" />
<path d="M28.1459 7.1754
L28.2064 7.1149
" />
<path d="M28.2064 7.1149
L28.3274 7.0545
" />
<path d="M28.3274 7.0545
L28.5693 7.0545
" />
<path d="M28.5693 7.0545
L28.6902 7.1149
" />
<path d="M29.4160 7.9011
L29.2950 7.8407
" />
<path d="M29.2950 7.8407
L29.2345 7.7802
" />
<path d="M29.2345 7.7802
L29.1741 7.6592
" />
<path d="M29.1741 7.6592
L29.1741 7.2964
" />
<path d="M29.1741 7.2964
L29.2345 7.1754
" />
<path d="M29.2345 7.1754
L29.2950 7.1149
" />
<path d="M29.2950 7.1149
L29.4160 7.0545
" />
<path d="M29.4160 7.0545
L29.5974 7.0545
" />
<path d="M29.5974 7.0545
L29.7183 7.1149
" />
<path d="M29.7183 7.1149
L29.7788 7.1754
" />
<path d="M29.7788 7.1754
L29.8393 7.2964
" />
<path d="M29.8393 7.2964
L29.8393 7.6592
" />
<path d="M29.8393 7.6592
L29.7788 7.7802
" />
<path d="M29.7788 7.7802
L29.7183 7.8407
" />
<path d="M29.7183 7.8407
L29.5974 7.9011
" />
<path d="M29.5974 7.9011
L29.4160 7.9011
" />
<path d="M30.3835 7.9011
L30.3835 7.0545
" />
<path d="M30.3835 7.1754
L30.4440 7.1149
" />
<path d="M30.4440 7.1149
L30.5650 7.0545
" />
<path d="M30.5650 7.0545
L30.7464 7.0545
" />
<path d="M30.7464 7.0545
L30.8673 7.1149
" />
<path d="M30.8673 7.1149
L30.9278 7.2359
" />
<path d="M30.9278 7.2359
L30.9278 7.9011
" />
<path d="M30.9278 7.2359
L30.9883 7.1149
" />
<path d="M30.9883 7.1149
L31.1092 7.0545
" />
<path d="M31.1092 7.0545
L31.2907 7.0545
" />
<path d="M31.2907 7.0545
L31.4116 7.1149
" />
<path d="M31.4116 7.1149
L31.4721 7.2359
" />
<path d="M31.4721 7.2359
L31.4721 7.9011
" />
<path d="M32.9840 6.5707
L31.8954 8.2035
" />
<path d="M33.9516 7.9011
L33.9516 6.6311
" />
<path d="M33.9516 7.8407
L33.8307 7.9011
" />
<path d="M33.8307 7.9011
L33.5888 7.9011
" />
<path d="M33.5888 7.9011
L33.4678 7.8407
" />
<path d="M33.4678 7.8407
L33.4073 7.7802
" />
<path d="M33.4073 7.7802
L33.3469 7.6592
" />
<path d="M33.3469 7.6592
L33.3469 7.2964
" />
<path d="M33.3469 7.2964
L33.4073 7.1754
" />
<path d="M33.4073 7.1754
L33.4678 7.1149
" />
<path d="M33.4678 7.1149
L33.5888 7.0545
" />
<path d="M33.5888 7.0545
L33.8307 7.0545
" />
<path d="M33.8307 7.0545
L33.9516 7.1149
" />
<path d="M34.7378 7.9011
L34.6168 7.8407
" />
<path d="M34.6168 7.8407
L34.5563 7.7802
" />
<path d="M34.5563 7.7802
L34.4959 7.6592
" />
<path d="M34.4959 7.6592
L34.4959 7.2964
" />
<path d="M34.4959 7.2964
L34.5563 7.1754
" />
<path d="M34.5563 7.1754
L34.6168 7.1149
" />
<path d="M34.6168 7.1149
L34.7378 7.0545
" />
<path d="M34.7378 7.0545
L34.9192 7.0545
" />
<path d="M34.9192 7.0545
L35.0401 7.1149
" />
<path d="M35.0401 7.1149
L35.1006 7.1754
" />
<path d="M35.1006 7.1754
L35.1611 7.2964
" />
<path d="M35.1611 7.2964
L35.1611 7.6592
" />
<path d="M35.1611 7.6592
L35.1006 7.7802
" />
<path d="M35.1006 7.7802
L35.0401 7.8407
" />
<path d="M35.0401 7.8407
L34.9192 7.9011
" />
<path d="M34.9192 7.9011
L34.7378 7.9011
" />
<path d="M35.5844 7.0545
L35.8263 7.9011
" />
<path d="M35.8263 7.9011
L36.0682 7.2964
" />
<path d="M36.0682 7.2964
L36.3101 7.9011
" />
<path d="M36.3101 7.9011
L36.5520 7.0545
" />
<path d="M37.0358 7.0545
L37.0358 7.9011
" />
<path d="M37.0358 7.1754
L37.0963 7.1149
" />
<path d="M37.0963 7.1149
L37.2173 7.0545
" />
<path d="M37.2173 7.0545
L37.3987 7.0545
" />
<path d="M37.3987 7.0545
L37.5196 7.1149
" />
<path d="M37.5196 7.1149
L37.5801 7.2359
" />
<path d="M37.5801 7.2359
L37.5801 7.9011
" />
<path d="M38.3663 7.9011
L38.2453 7.8407
" />
<path d="M38.2453 7.8407
L38.1848 7.7197
" />
<path d="M38.1848 7.7197
L38.1848 6.6311
" />
<path d="M39.0315 7.9011
L38.9105 7.8407
" />
<path d="M38.9105 7.8407
L38.8500 7.7802
" />
<path d="M38.8500 7.7802
L38.7896 7.6592
" />
<path d="M38.7896 7.6592
L38.7896 7.2964
" />
<path d="M38.7896 7.2964
L38.8500 7.1754
" />
<path d="M38.8500 7.1754
L38.9105 7.1149
" />
<path d="M38.9105 7.1149
L39.0315 7.0545
" />
<path d="M39.0315 7.0545
L39.2129 7.0545
" />
<path d="M39.2129 7.0545
L39.3338 7.1149
" />
<path d="M39.3338 7.1149
L39.3943 7.1754
" />
<path d="M39.3943 7.1754
L39.4548 7.2964
" />
<path d="M39.4548 7.2964
L39.4548 7.6592
" />
<path d="M39.4548 7.6592
L39.3943 7.7802
" />
<path d="M39.3943 7.7802
L39.3338 7.8407
" />
<path d="M39.3338 7.8407
L39.2129 7.9011
" />
<path d="M39.2129 7.9011
L39.0315 7.9011
" />
<path d="M40.5433 7.9011
L40.5433 7.2359
" />
<path d="M40.5433 7.2359
L40.4828 7.1149
" />
<path d="M40.4828 7.1149
L40.3619 7.0545
" />
<path d="M40.3619 7.0545
L40.1200 7.0545
" />
<path d="M40.1200 7.0545
L39.9990 7.1149
" />
<path d="M40.5433 7.8407
L40.4224 7.9011
" />
<path d="M40.4224 7.9011
L40.1200 7.9011
" />
<path d="M40.1200 7.9011
L39.9990 7.8407
" />
<path d="M39.9990 7.8407
L39.9386 7.7197
" />
<path d="M39.9386 7.7197
L39.9386 7.5987
" />
<path d="M39.9386 7.5987
L39.9990 7.4778
" />
<path d="M39.9990 7.4778
L40.1200 7.4173
" />
<path d="M40.1200 7.4173
L40.4224 7.4173
" />
<path d="M40.4224 7.4173
L40.5433 7.3568
" />
<path d="M41.6923 7.9011
L41.6923 6.6311
" />
<path d="M41.6923 7.8407
L41.5714 7.9011
" />
<path d="M41.5714 7.9011
L41.3295 7.9011
" />
<path d="M41.3295 7.9011
L41.2085 7.8407
" />
<path d="M41.2085 7.8407
L41.1480 7.7802
" />
<path d="M41.1480 7.7802
L41.0876 7.6592
" />
<path d="M41.0876 7.6592
L41.0876 7.2964
" />
<path d="M41.0876 7.2964
L41.1480 7.1754
" />
<path d="M41.1480 7.1754
L41.2085 7.1149
" />
<path d="M41.2085 7.1149
L41.3295 7.0545
" />
<path d="M41.3295 7.0545
L41.5714 7.0545
" />
<path d="M41.5714 7.0545
L41.6923 7.1149
" />
<path d="M42.2366 7.8407
L42.3575 7.9011
" />
<path d="M42.3575 7.9011
L42.5994 7.9011
" />
<path d="M42.5994 7.9011
L42.7204 7.8407
" />
<path d="M42.7204 7.8407
L42.7808 7.7197
" />
<path d="M42.7808 7.7197
L42.7808 7.6592
" />
<path d="M42.7808 7.6592
L42.7204 7.5383
" />
<path d="M42.7204 7.5383
L42.5994 7.4778
" />
<path d="M42.5994 7.4778
L42.4180 7.4778
" />
<path d="M42.4180 7.4778
L42.2970 7.4173
" />
<path d="M42.2970 7.4173
L42.2366 7.2964
" />
<path d="M42.2366 7.2964
L42.2366 7.2359
" />
<path d="M42.2366 7.2359
L42.2970 7.1149
" />
<path d="M42.2970 7.1149
L42.4180 7.0545
" />
<path d="M42.4180 7.0545
L42.5994 7.0545
" />
<path d="M42.5994 7.0545
L42.7204 7.1149
" />
<path d="M44.2323 6.5707
L43.1437 8.2035
" />
<path d="M45.1394 7.8407
L45.0185 7.9011
" />
<path d="M45.0185 7.9011
L44.7766 7.9011
" />
<path d="M44.7766 7.9011
L44.6556 7.8407
" />
<path d="M44.6556 7.8407
L44.5952 7.7197
" />
<path d="M44.5952 7.7197
L44.5952 7.2359
" />
<path d="M44.5952 7.2359
L44.6556 7.1149
" />
<path d="M44.6556 7.1149
L44.7766 7.0545
" />
<path d="M44.7766 7.0545
L45.0185 7.0545
" />
<path d="M45.0185 7.0545
L45.1394 7.1149
" />
<path d="M45.1394 7.1149
L45.1999 7.2359
" />
<path d="M45.1999 7.2359
L45.1999 7.3568
" />
<path d="M45.1999 7.3568
L44.5952 7.4778
" />
<path d="M45.7442 7.0545
L45.7442 7.9011
" />
<path d="M45.7442 7.1754
L45.8047 7.1149
" />
<path d="M45.8047 7.1149
L45.9257 7.0545
" />
<path d="M45.9257 7.0545
L46.1071 7.0545
" />
<path d="M46.1071 7.0545
L46.2280 7.1149
" />
<path d="M46.2280 7.1149
L46.2885 7.2359
" />
<path d="M46.2885 7.2359
L46.2885 7.9011
" />
<path d="M47.8004 6.5707
L46.7118 8.2035
" />
<path d="M48.7680 7.9011
L48.7680 6.6311
" />
<path d="M48.7680 7.8407
L48.6471 7.9011
" />
<path d="M48.6471 7.9011
L48.4052 7.9011
" />
<path d="M48.4052 7.9011
L48.2842 7.8407
" />
<path d="M48.2842 7.8407
L48.2237 7.7802
" />
<path d="M48.2237 7.7802
L48.1633 7.6592
" />
<path d="M48.1633 7.6592
L48.1633 7.2964
" />
<path d="M48.1633 7.2964
L48.2237 7.1754
" />
<path d="M48.2237 7.1754
L48.2842 7.1149
" />
<path d="M48.2842 7.1149
L48.4052 7.0545
" />
<path d="M48.4052 7.0545
L48.6471 7.0545
" />
<path d="M48.6471 7.0545
L48.7680 7.1149
" />
<path d="M49.8565 7.8407
L49.7356 7.9011
" />
<path d="M49.7356 7.9011
L49.4937 7.9011
" />
<path d="M49.4937 7.9011
L49.3727 7.8407
" />
<path d="M49.3727 7.8407
L49.3123 7.7197
" />
<path d="M49.3123 7.7197
L49.3123 7.2359
" />
<path d="M49.3123 7.2359
L49.3727 7.1149
" />
<path d="M49.3727 7.1149
L49.4937 7.0545
" />
<path d="M49.4937 7.0545
L49.7356 7.0545
" />
<path d="M49.7356 7.0545
L49.8565 7.1149
" />
<path d="M49.8565 7.1149
L49.9170 7.2359
" />
<path d="M49.9170 7.2359
L49.9170 7.3568
" />
<path d="M49.9170 7.3568
L49.3123 7.4778
" />
<path d="M50.3404 7.0545
L50.6428 7.9011
" />
<path d="M50.6428 7.9011
L50.9451 7.0545
" />
<path d="M51.4289 7.9011
L51.4289 7.0545
" />
<path d="M51.4289 6.6311
L51.3685 6.6916
" />
<path d="M51.3685 6.6916
L51.4289 6.7521
" />
<path d="M51.4289 6.7521
L51.4894 6.6916
" />
<path d="M51.4894 6.6916
L51.4289 6.6311
" />
<path d="M51.4289 6.6311
L51.4289 6.7521
" />
<path d="M52.5780 7.8407
L52.4571 7.9011
" />
<path d="M52.4571 7.9011
L52.2152 7.9011
" />
<path d="M52.2152 7.9011
L52.0942 7.8407
" />
<path d="M52.0942 7.8407
L52.0337 7.7802
" />
<path d="M52.0337 7.7802
L51.9733 7.6592
" />
<path d="M51.9733 7.6592
L51.9733 7.2964
" />
<path d="M51.9733 7.2964
L52.0337 7.1754
" />
<path d="M52.0337 7.1754
L52.0942 7.1149
" />
<path d="M52.0942 7.1149
L52.2152 7.0545
" />
<path d="M52.2152 7.0545
L52.4571 7.0545
" />
<path d="M52.4571 7.0545
L52.5780 7.1149
" />
<path d="M53.6061 7.8407
L53.4852 7.9011
" />
<path d="M53.4852 7.9011
L53.2433 7.9011
" />
<path d="M53.2433 7.9011
L53.1223 7.8407
" />
<path d="M53.1223 7.8407
L53.0619 7.7197
" />
<path d="M53.0619 7.7197
L53.0619 7.2359
" />
<path d="M53.0619 7.2359
L53.1223 7.1149
" />
<path d="M53.1223 7.1149
L53.2433 7.0545
" />
<path d="M53.2433 7.0545
L53.4852 7.0545
" />
<path d="M53.4852 7.0545
L53.6061 7.1149
" />
<path d="M53.6061 7.1149
L53.6666 7.2359
" />
<path d="M53.6666 7.2359
L53.6666 7.3568
" />
<path d="M53.6666 7.3568
L53.0619 7.4778
" />
<path d="M54.7552 7.9011
L54.7552 6.6311
" />
<path d="M54.7552 7.8407
L54.6343 7.9011
" />
<path d="M54.6343 7.9011
L54.3924 7.9011
" />
<path d="M54.3924 7.9011
L54.2714 7.8407
" />
<path d="M54.2714 7.8407
L54.2109 7.7802
" />
<path d="M54.2109 7.7802
L54.1505 7.6592
" />
<path d="M54.1505 7.6592
L54.1505 7.2964
" />
<path d="M54.1505 7.2964
L54.2109 7.1754
" />
<path d="M54.2109 7.1754
L54.2714 7.1149
" />
<path d="M54.2714 7.1149
L54.3924 7.0545
" />
<path d="M54.3924 7.0545
L54.6343 7.0545
" />
<path d="M54.6343 7.0545
L54.7552 7.1149
" />
<path d="M55.5414 7.9011
L55.4204 7.8407
" />
<path d="M55.4204 7.8407
L55.3599 7.7802
" />
<path d="M55.3599 7.7802
L55.2995 7.6592
" />
<path d="M55.2995 7.6592
L55.2995 7.2964
" />
<path d="M55.2995 7.2964
L55.3599 7.1754
" />
<path d="M55.3599 7.1754
L55.4204 7.1149
" />
<path d="M55.4204 7.1149
L55.5414 7.0545
" />
<path d="M55.5414 7.0545
L55.7228 7.0545
" />
<path d="M55.7228 7.0545
L55.8437 7.1149
" />
<path d="M55.8437 7.1149
L55.9042 7.1754
" />
<path d="M55.9042 7.1754
L55.9647 7.2964
" />
<path d="M55.9647 7.2964
L55.9647 7.6592
" />
<path d="M55.9647 7.6592
L55.9042 7.7802
" />
<path d="M55.9042 7.7802
L55.8437 7.8407
" />
<path d="M55.8437 7.8407
L55.7228 7.9011
" />
<path d="M55.7228 7.9011
L55.5414 7.9011
" />
<path d="M57.0532 7.8407
L56.9323 7.9011
" />
<path d="M56.9323 7.9011
L56.6904 7.9011
" />
<path d="M56.6904 7.9011
L56.5694 7.8407
" />
<path d="M56.5694 7.8407
L56.5089 7.7802
" />
<path d="M56.5089 7.7802
L56.4485 7.6592
" />
<path d="M56.4485 7.6592
L56.4485 7.2964
" />
<path d="M56.4485 7.2964
L56.5089 7.1754
" />
<path d="M56.5089 7.1754
L56.5694 7.1149
" />
<path d="M56.5694 7.1149
L56.6904 7.0545
" />
<path d="M56.6904 7.0545
L56.9323 7.0545
" />
<path d="M56.9323 7.0545
L57.0532 7.1149
" />
<path d="M58.5047 6.5707
L57.4161 8.2035
" />
<path d="M58.8676 6.7521
L58.9280 6.6916
" />
<path d="M58.9280 6.6916
L59.0490 6.6311
" />
<path d="M59.0490 6.6311
L59.3514 6.6311
" />
<path d="M59.3514 6.6311
L59.4723 6.6916
" />
<path d="M59.4723 6.6916
L59.5328 6.7521
" />
<path d="M59.5328 6.7521
L59.5933 6.8730
" />
<path d="M59.5933 6.8730
L59.5933 6.9940
" />
<path d="M59.5933 6.9940
L59.5328 7.1754
" />
<path d="M59.5328 7.1754
L58.8071 7.9011
" />
<path d="M58.8071 7.9011
L59.5933 7.9011
" />
<path d="M60.0771 6.7521
L60.1375 6.6916
" />
<path d="M60.1375 6.6916
L60.2585 6.6311
" />
<path d="M60.2585 6.6311
L60.5609 6.6311
" />
<path d="M60.5609 6.6311
L60.6818 6.6916
" />
<path d="M60.6818 6.6916
L60.7423 6.7521
" />
<path d="M60.7423 6.7521
L60.8028 6.8730
" />
<path d="M60.8028 6.8730
L60.8028 6.9940
" />
<path d="M60.8028 6.9940
L60.7423 7.1754
" />
<path d="M60.7423 7.1754
L60.0166 7.9011
" />
<path d="M60.0166 7.9011
L60.8028 7.9011
" />
<path d="M61.2866 6.7521
L61.3470 6.6916
" />
<path d="M61.3470 6.6916
L61.4680 6.6311
" />
<path d="M61.4680 6.6311
L61.7704 6.6311
" />
<path d="M61.7704 6.6311
L61.8913 6.6916
" />
<path d="M61.8913 6.6916
L61.9518 6.7521
" />
<path d="M61.9518 6.7521
L62.0123 6.8730
" />
<path d="M62.0123 6.8730
L62.0123 6.9940
" />
<path d="M62.0123 6.9940
L61.9518 7.1754
" />
<path d="M61.9518 7.1754
L61.2261 7.9011
" />
<path d="M61.2261 7.9011
L62.0123 7.9011
" />
<path d="M62.4961 6.7521
L62.5565 6.6916
" />
<path d="M62.5565 6.6916
L62.6775 6.6311
" />
<path d="M62.6775 6.6311
L62.9799 6.6311
" />
<path d="M62.9799 6.6311
L63.1008 6.6916
" />
<path d="M63.1008 6.6916
L63.1613 6.7521
" />
<path d="M63.1613 6.7521
L63.2218 6.8730
" />
<path d="M63.2218 6.8730
L63.2218 6.9940
" />
<path d="M63.2218 6.9940
L63.1613 7.1754
" />
<path d="M63.1613 7.1754
L62.4356 7.9011
" />
<path d="M62.4356 7.9011
L63.2218 7.9011
" />
<path d="M63.8265 7.9011
L64.0684 7.9011
" />
<path d="M64.0684 7.9011
L64.1894 7.8407
" />
<path d="M64.1894 7.8407
L64.2498 7.7802
" />
<path d="M64.2498 7.7802
L64.3708 7.5987
" />
<path d="M64.3708 7.5987
L64.4313 7.3568
" />
<path d="M64.4313 7.3568
L64.4313 6.8730
" />
<path d="M64.4313 6.8730
L64.3708 6.7521
" />
<path d="M64.3708 6.7521
L64.3103 6.6916
" />
<path d="M64.3103 6.6916
L64.1894 6.6311
" />
<path d="M64.1894 6.6311
L63.9475 6.6311
" />
<path d="M63.9475 6.6311
L63.8265 6.6916
" />
<path d="M63.8265 6.6916
L63.7660 6.7521
" />
<path d="M63.7660 6.7521
L63.7056 6.8730
" />
<path d="M63.7056 6.8730
L63.7056 7.1754
" />
<path d="M63.7056 7.1754
L63.7660 7.2964
" />
<path d="M63.7660 7.2964
L63.8265 7.3568
" />
<path d="M63.8265 7.3568
L63.9475 7.4173
" />
<path d="M63.9475 7.4173
L64.1894 7.4173
" />
<path d="M64.1894 7.4173
L64.3103 7.3568
" />
<path d="M64.3103 7.3568
L64.3708 7.2964
" />
<path d="M64.3708 7.2964
L64.4313 7.1754
" />
<path d="M65.5198 7.9011
L65.5198 6.6311
" />
<path d="M65.5198 7.8407
L65.3989 7.9011
" />
<path d="M65.3989 7.9011
L65.1570 7.9011
" />
<path d="M65.1570 7.9011
L65.0360 7.8407
" />
<path d="M65.0360 7.8407
L64.9755 7.7802
" />
<path d="M64.9755 7.7802
L64.9151 7.6592
" />
<path d="M64.9151 7.6592
L64.9151 7.2964
" />
<path d="M64.9151 7.2964
L64.9755 7.1754
" />
<path d="M64.9755 7.1754
L65.0360 7.1149
" />
<path d="M65.0360 7.1149
L65.1570 7.0545
" />
<path d="M65.1570 7.0545
L65.3989 7.0545
" />
<path d="M65.3989 7.0545
L65.5198 7.1149
" />
<path d="M66.1245 7.7802
L66.1850 7.8407
" />
<path d="M66.1850 7.8407
L66.1245 7.9011
" />
<path d="M66.1245 7.9011
L66.0641 7.8407
" />
<path d="M66.0641 7.8407
L66.1245 7.7802
" />
<path d="M66.1245 7.7802
L66.1245 7.9011
" />
<path d="M66.7293 7.0545
L66.7293 8.3245
" />
<path d="M66.7293 7.1149
L66.8503 7.0545
" />
<path d="M66.8503 7.0545
L67.0922 7.0545
" />
<path d="M67.0922 7.0545
L67.2131 7.1149
" />
<path d="M67.2131 7.1149
L67.2736 7.1754
" />
<path d="M67.2736 7.1754
L67.3341 7.2964
" />
<path d="M67.3341 7.2964
L67.3341 7.6592
" />
<path d="M67.3341 7.6592
L67.2736 7.7802
" />
<path d="M67.2736 7.7802
L67.2131 7.8407
" />
<path d="M67.2131 7.8407
L67.0922 7.9011
" />
<path d="M67.0922 7.9011
L66.8503 7.9011
" />
<path d="M66.8503 7.9011
L66.7293 7.8407
" />
<path d="M68.4226 7.9011
L68.4226 6.6311
" />
<path d="M68.4226 7.8407
L68.3017 7.9011
" />
<path d="M68.3017 7.9011
L68.0598 7.9011
" />
<path d="M68.0598 7.9011
L67.9388 7.8407
" />
<path d="M67.9388 7.8407
L67.8783 7.7802
" />
<path d="M67.8783 7.7802
L67.8179 7.6592
" />
<path d="M67.8179 7.6592
L67.8179 7.2964
" />
<path d="M67.8179 7.2964
L67.8783 7.1754
" />
<path d="M67.8783 7.1754
L67.9388 7.1149
" />
<path d="M67.9388 7.1149
L68.0598 7.0545
" />
<path d="M68.0598 7.0545
L68.3017 7.0545
" />
<path d="M68.3017 7.0545
L68.4226 7.1149
" />
<path d="M68.8459 7.0545
L69.3297 7.0545
" />
<path d="M69.0273 7.9011
L69.0273 6.8126
" />
<path d="M69.0273 6.8126
L69.0878 6.6916
" />
<path d="M69.0878 6.6916
L69.2088 6.6311
" />
<path d="M69.2088 6.6311
L69.3297 6.6311
" />
</g></g> 
</svg>
