<?xml version="1.0" standalone="no"?>
 <!DOCTYPE svg PUBLIC "-//W3C//DTD SVG 1.1//EN" 
 "http://www.w3.org/Graphics/SVG/1.1/DTD/svg11.dtd"> 
<svg
  xmlns:svg="http://www.w3.org/2000/svg"
  xmlns="http://www.w3.org/2000/svg"
  xmlns:xlink="http://www.w3.org/1999/xlink"
  version="1.1"
  width="119.4054mm" height="38.5826mm" viewBox="0.0000 0.0000 119.4054 38.5826">
<title>SVG Image created as working.svg date 2023/07/31 01:57:08 </title>
  <desc>Image generated by Eeschema-SVG </desc>
<g style="fill:#000000; fill-opacity:1.0000;stroke:#000000; stroke-opacity:1.0000;
stroke-linecap:round; stroke-linejoin:round;"
 transform="translate(0 0) scale(1 1)">
</g>
<g style="fill:#840000; fill-opacity:0.0; 
stroke:#840000; stroke-width:0.0000; stroke-opacity:1; 
stroke-linecap:round; stroke-linejoin:round;">
</g>
<g style="fill:#FFFFC2; fill-opacity:0.0; 
stroke:#FFFFC2; stroke-width:0.0000; stroke-opacity:1; 
stroke-linecap:round; stroke-linejoin:round;">
</g>
<g style="fill:#FFFFC2; fill-opacity:1.0000; 
stroke:#FFFFC2; stroke-width:0.0000; stroke-opacity:1; 
stroke-linecap:round; stroke-linejoin:round;">
<rect x="52.082700" y="5.318200" width="15.240000" height="20.320000" rx="0.000000" />
</g>
<g style="fill:#840084; fill-opacity:1.0000; 
stroke:#840084; stroke-width:0.0000; stroke-opacity:1; 
stroke-linecap:round; stroke-linejoin:round;">
</g>
<g style="fill:#840000; fill-opacity:1.0000; 
stroke:#840000; stroke-width:0.0000; stroke-opacity:1; 
stroke-linecap:round; stroke-linejoin:round;">
</g>
<g style="fill:#840000; fill-opacity:0.0; 
stroke:#840000; stroke-width:0.0212; stroke-opacity:1; 
stroke-linecap:round; stroke-linejoin:round;">
<rect x="52.082700" y="5.318200" width="15.240000" height="20.320000" rx="0.000000" />
</g>
<g style="fill:#840000; fill-opacity:0.0; 
stroke:#840000; stroke-width:0.1524; stroke-opacity:1; 
stroke-linecap:round; stroke-linejoin:round;">
<path d="M67.3227 10.3982
L69.8627 10.3982
" />
</g>
<g style="fill:#006464; fill-opacity:0.0; 
stroke:#006464; stroke-width:0.1524; stroke-opacity:1; 
stroke-linecap:round; stroke-linejoin:round;">
<text x="66.8147" y="11.0332"
textLength="1.5784" font-size="1.6933" lengthAdjust="spacingAndGlyphs"
text-anchor="end" opacity="0">W</text>
<g class="stroked-text"><desc>W</desc>
<path d="M65.5447 9.7157
L65.8471 10.9857
" />
<path d="M65.8471 10.9857
L66.0890 10.0786
" />
<path d="M66.0890 10.0786
L66.3309 10.9857
" />
<path d="M66.3309 10.9857
L66.6333 9.7157
" />
</g></g>
<g style="fill:#A90000; fill-opacity:0.0; 
stroke:#A90000; stroke-width:0.1524; stroke-opacity:1; 
stroke-linecap:round; stroke-linejoin:round;">
<text x="68.5927" y="10.1442"
textLength="1.3365" font-size="1.6933" lengthAdjust="spacingAndGlyphs"
text-anchor="middle" opacity="0">1</text>
<g class="stroked-text"><desc>1</desc>
<path d="M68.9556 9.9887
L68.2299 9.9887
" />
<path d="M68.5927 9.9887
L68.5927 8.7187
" />
<path d="M68.5927 8.7187
L68.4718 8.9002
" />
<path d="M68.4718 8.9002
L68.3508 9.0211
" />
<path d="M68.3508 9.0211
L68.2299 9.0816
" />
</g></g>
<g style="fill:#840000; fill-opacity:0.0; 
stroke:#840000; stroke-width:0.1524; stroke-opacity:1; 
stroke-linecap:round; stroke-linejoin:round;">
<path d="M52.0827 7.8582
L49.5427 7.8582
" />
</g>
<g style="fill:#006464; fill-opacity:0.0; 
stroke:#006464; stroke-width:0.1524; stroke-opacity:1; 
stroke-linecap:round; stroke-linejoin:round;">
<text x="52.5907" y="8.4932"
textLength="3.7556" font-size="1.6933" lengthAdjust="spacingAndGlyphs"
text-anchor="start" opacity="0">VDD</text>
<g class="stroked-text"><desc>VDD</desc>
<path d="M52.7116 7.1757
L53.1349 8.4457
" />
<path d="M53.1349 8.4457
L53.5583 7.1757
" />
<path d="M53.9816 8.4457
L53.9816 7.1757
" />
<path d="M53.9816 7.1757
L54.2840 7.1757
" />
<path d="M54.2840 7.1757
L54.4654 7.2362
" />
<path d="M54.4654 7.2362
L54.5864 7.3572
" />
<path d="M54.5864 7.3572
L54.6469 7.4781
" />
<path d="M54.6469 7.4781
L54.7073 7.7200
" />
<path d="M54.7073 7.7200
L54.7073 7.9014
" />
<path d="M54.7073 7.9014
L54.6469 8.1433
" />
<path d="M54.6469 8.1433
L54.5864 8.2643
" />
<path d="M54.5864 8.2643
L54.4654 8.3853
" />
<path d="M54.4654 8.3853
L54.2840 8.4457
" />
<path d="M54.2840 8.4457
L53.9816 8.4457
" />
<path d="M55.2516 8.4457
L55.2516 7.1757
" />
<path d="M55.2516 7.1757
L55.5540 7.1757
" />
<path d="M55.5540 7.1757
L55.7354 7.2362
" />
<path d="M55.7354 7.2362
L55.8564 7.3572
" />
<path d="M55.8564 7.3572
L55.9169 7.4781
" />
<path d="M55.9169 7.4781
L55.9773 7.7200
" />
<path d="M55.9773 7.7200
L55.9773 7.9014
" />
<path d="M55.9773 7.9014
L55.9169 8.1433
" />
<path d="M55.9169 8.1433
L55.8564 8.2643
" />
<path d="M55.8564 8.2643
L55.7354 8.3853
" />
<path d="M55.7354 8.3853
L55.5540 8.4457
" />
<path d="M55.5540 8.4457
L55.2516 8.4457
" />
</g></g>
<g style="fill:#A90000; fill-opacity:0.0; 
stroke:#A90000; stroke-width:0.1524; stroke-opacity:1; 
stroke-linecap:round; stroke-linejoin:round;">
<text x="50.8127" y="7.6042"
textLength="1.3365" font-size="1.6933" lengthAdjust="spacingAndGlyphs"
text-anchor="middle" opacity="0">2</text>
<g class="stroked-text"><desc>2</desc>
<path d="M50.4499 6.2997
L50.5103 6.2392
" />
<path d="M50.5103 6.2392
L50.6313 6.1787
" />
<path d="M50.6313 6.1787
L50.9337 6.1787
" />
<path d="M50.9337 6.1787
L51.0546 6.2392
" />
<path d="M51.0546 6.2392
L51.1151 6.2997
" />
<path d="M51.1151 6.2997
L51.1756 6.4206
" />
<path d="M51.1756 6.4206
L51.1756 6.5416
" />
<path d="M51.1756 6.5416
L51.1151 6.7230
" />
<path d="M51.1151 6.7230
L50.3894 7.4487
" />
<path d="M50.3894 7.4487
L51.1756 7.4487
" />
</g></g>
<g style="fill:#840000; fill-opacity:0.0; 
stroke:#840000; stroke-width:0.1524; stroke-opacity:1; 
stroke-linecap:round; stroke-linejoin:round;">
<path d="M52.0827 23.0982
L49.5427 23.0982
" />
</g>
<g style="fill:#006464; fill-opacity:0.0; 
stroke:#006464; stroke-width:0.1524; stroke-opacity:1; 
stroke-linecap:round; stroke-linejoin:round;">
<text x="52.5907" y="23.7332"
textLength="3.9975" font-size="1.6933" lengthAdjust="spacingAndGlyphs"
text-anchor="start" opacity="0">GND</text>
<g class="stroked-text"><desc>GND</desc>
<path d="M53.5583 22.4762
L53.4373 22.4157
" />
<path d="M53.4373 22.4157
L53.2559 22.4157
" />
<path d="M53.2559 22.4157
L53.0745 22.4762
" />
<path d="M53.0745 22.4762
L52.9535 22.5972
" />
<path d="M52.9535 22.5972
L52.8930 22.7181
" />
<path d="M52.8930 22.7181
L52.8326 22.9600
" />
<path d="M52.8326 22.9600
L52.8326 23.1414
" />
<path d="M52.8326 23.1414
L52.8930 23.3833
" />
<path d="M52.8930 23.3833
L52.9535 23.5043
" />
<path d="M52.9535 23.5043
L53.0745 23.6253
" />
<path d="M53.0745 23.6253
L53.2559 23.6857
" />
<path d="M53.2559 23.6857
L53.3768 23.6857
" />
<path d="M53.3768 23.6857
L53.5583 23.6253
" />
<path d="M53.5583 23.6253
L53.6187 23.5648
" />
<path d="M53.6187 23.5648
L53.6187 23.1414
" />
<path d="M53.6187 23.1414
L53.3768 23.1414
" />
<path d="M54.1630 23.6857
L54.1630 22.4157
" />
<path d="M54.1630 22.4157
L54.8887 23.6857
" />
<path d="M54.8887 23.6857
L54.8887 22.4157
" />
<path d="M55.4935 23.6857
L55.4935 22.4157
" />
<path d="M55.4935 22.4157
L55.7959 22.4157
" />
<path d="M55.7959 22.4157
L55.9773 22.4762
" />
<path d="M55.9773 22.4762
L56.0983 22.5972
" />
<path d="M56.0983 22.5972
L56.1588 22.7181
" />
<path d="M56.1588 22.7181
L56.2192 22.9600
" />
<path d="M56.2192 22.9600
L56.2192 23.1414
" />
<path d="M56.2192 23.1414
L56.1588 23.3833
" />
<path d="M56.1588 23.3833
L56.0983 23.5043
" />
<path d="M56.0983 23.5043
L55.9773 23.6253
" />
<path d="M55.9773 23.6253
L55.7959 23.6857
" />
<path d="M55.7959 23.6857
L55.4935 23.6857
" />
</g></g>
<g style="fill:#A90000; fill-opacity:0.0; 
stroke:#A90000; stroke-width:0.1524; stroke-opacity:1; 
stroke-linecap:round; stroke-linejoin:round;">
<text x="50.8127" y="22.8442"
textLength="1.3365" font-size="1.6933" lengthAdjust="spacingAndGlyphs"
text-anchor="middle" opacity="0">3</text>
<g class="stroked-text"><desc>3</desc>
<path d="M50.3894 21.4187
L51.1756 21.4187
" />
<path d="M51.1756 21.4187
L50.7522 21.9025
" />
<path d="M50.7522 21.9025
L50.9337 21.9025
" />
<path d="M50.9337 21.9025
L51.0546 21.9630
" />
<path d="M51.0546 21.9630
L51.1151 22.0235
" />
<path d="M51.1151 22.0235
L51.1756 22.1444
" />
<path d="M51.1756 22.1444
L51.1756 22.4468
" />
<path d="M51.1756 22.4468
L51.1151 22.5678
" />
<path d="M51.1151 22.5678
L51.0546 22.6283
" />
<path d="M51.0546 22.6283
L50.9337 22.6887
" />
<path d="M50.9337 22.6887
L50.5708 22.6887
" />
<path d="M50.5708 22.6887
L50.4499 22.6283
" />
<path d="M50.4499 22.6283
L50.3894 22.5678
" />
</g></g>
<g style="fill:#840000; fill-opacity:0.0; 
stroke:#840000; stroke-width:0.1524; stroke-opacity:1; 
stroke-linecap:round; stroke-linejoin:round;">
<path d="M52.0827 15.4782
L49.5427 15.4782
" />
</g>
<g style="fill:#006464; fill-opacity:0.0; 
stroke:#006464; stroke-width:0.1524; stroke-opacity:1; 
stroke-linecap:round; stroke-linejoin:round;">
<text x="52.5907" y="16.1132"
textLength="3.6346" font-size="1.6933" lengthAdjust="spacingAndGlyphs"
text-anchor="start" opacity="0">SCL</text>
<g class="stroked-text"><desc>SCL</desc>
<path d="M52.8326 16.0053
L53.0140 16.0657
" />
<path d="M53.0140 16.0657
L53.3164 16.0657
" />
<path d="M53.3164 16.0657
L53.4373 16.0053
" />
<path d="M53.4373 16.0053
L53.4978 15.9448
" />
<path d="M53.4978 15.9448
L53.5583 15.8238
" />
<path d="M53.5583 15.8238
L53.5583 15.7029
" />
<path d="M53.5583 15.7029
L53.4978 15.5819
" />
<path d="M53.4978 15.5819
L53.4373 15.5214
" />
<path d="M53.4373 15.5214
L53.3164 15.4610
" />
<path d="M53.3164 15.4610
L53.0745 15.4005
" />
<path d="M53.0745 15.4005
L52.9535 15.3400
" />
<path d="M52.9535 15.3400
L52.8930 15.2795
" />
<path d="M52.8930 15.2795
L52.8326 15.1586
" />
<path d="M52.8326 15.1586
L52.8326 15.0376
" />
<path d="M52.8326 15.0376
L52.8930 14.9167
" />
<path d="M52.8930 14.9167
L52.9535 14.8562
" />
<path d="M52.9535 14.8562
L53.0745 14.7957
" />
<path d="M53.0745 14.7957
L53.3768 14.7957
" />
<path d="M53.3768 14.7957
L53.5583 14.8562
" />
<path d="M54.8282 15.9448
L54.7678 16.0053
" />
<path d="M54.7678 16.0053
L54.5863 16.0657
" />
<path d="M54.5863 16.0657
L54.4654 16.0657
" />
<path d="M54.4654 16.0657
L54.2840 16.0053
" />
<path d="M54.2840 16.0053
L54.1630 15.8843
" />
<path d="M54.1630 15.8843
L54.1025 15.7633
" />
<path d="M54.1025 15.7633
L54.0421 15.5214
" />
<path d="M54.0421 15.5214
L54.0421 15.3400
" />
<path d="M54.0421 15.3400
L54.1025 15.0981
" />
<path d="M54.1025 15.0981
L54.1630 14.9772
" />
<path d="M54.1630 14.9772
L54.2840 14.8562
" />
<path d="M54.2840 14.8562
L54.4654 14.7957
" />
<path d="M54.4654 14.7957
L54.5863 14.7957
" />
<path d="M54.5863 14.7957
L54.7678 14.8562
" />
<path d="M54.7678 14.8562
L54.8282 14.9167
" />
<path d="M55.9773 16.0657
L55.3725 16.0657
" />
<path d="M55.3725 16.0657
L55.3725 14.7957
" />
</g></g>
<g style="fill:#A90000; fill-opacity:0.0; 
stroke:#A90000; stroke-width:0.1524; stroke-opacity:1; 
stroke-linecap:round; stroke-linejoin:round;">
<text x="50.8127" y="15.2242"
textLength="1.3365" font-size="1.6933" lengthAdjust="spacingAndGlyphs"
text-anchor="middle" opacity="0">4</text>
<g class="stroked-text"><desc>4</desc>
<path d="M51.0546 14.2221
L51.0546 15.0687
" />
<path d="M50.7522 13.7383
L50.4499 14.6454
" />
<path d="M50.4499 14.6454
L51.2360 14.6454
" />
</g></g>
<g style="fill:#840000; fill-opacity:0.0; 
stroke:#840000; stroke-width:0.1524; stroke-opacity:1; 
stroke-linecap:round; stroke-linejoin:round;">
<path d="M52.0827 12.9382
L49.5427 12.9382
" />
</g>
<g style="fill:#006464; fill-opacity:0.0; 
stroke:#006464; stroke-width:0.1524; stroke-opacity:1; 
stroke-linecap:round; stroke-linejoin:round;">
<text x="52.5907" y="13.5732"
textLength="3.6951" font-size="1.6933" lengthAdjust="spacingAndGlyphs"
text-anchor="start" opacity="0">SDA</text>
<g class="stroked-text"><desc>SDA</desc>
<path d="M52.8326 13.4653
L53.0140 13.5257
" />
<path d="M53.0140 13.5257
L53.3164 13.5257
" />
<path d="M53.3164 13.5257
L53.4373 13.4653
" />
<path d="M53.4373 13.4653
L53.4978 13.4048
" />
<path d="M53.4978 13.4048
L53.5583 13.2838
" />
<path d="M53.5583 13.2838
L53.5583 13.1629
" />
<path d="M53.5583 13.1629
L53.4978 13.0419
" />
<path d="M53.4978 13.0419
L53.4373 12.9814
" />
<path d="M53.4373 12.9814
L53.3164 12.9210
" />
<path d="M53.3164 12.9210
L53.0745 12.8605
" />
<path d="M53.0745 12.8605
L52.9535 12.8000
" />
<path d="M52.9535 12.8000
L52.8930 12.7395
" />
<path d="M52.8930 12.7395
L52.8326 12.6186
" />
<path d="M52.8326 12.6186
L52.8326 12.4976
" />
<path d="M52.8326 12.4976
L52.8930 12.3767
" />
<path d="M52.8930 12.3767
L52.9535 12.3162
" />
<path d="M52.9535 12.3162
L53.0745 12.2557
" />
<path d="M53.0745 12.2557
L53.3768 12.2557
" />
<path d="M53.3768 12.2557
L53.5583 12.3162
" />
<path d="M54.1025 13.5257
L54.1025 12.2557
" />
<path d="M54.1025 12.2557
L54.4049 12.2557
" />
<path d="M54.4049 12.2557
L54.5863 12.3162
" />
<path d="M54.5863 12.3162
L54.7073 12.4372
" />
<path d="M54.7073 12.4372
L54.7678 12.5581
" />
<path d="M54.7678 12.5581
L54.8282 12.8000
" />
<path d="M54.8282 12.8000
L54.8282 12.9814
" />
<path d="M54.8282 12.9814
L54.7678 13.2233
" />
<path d="M54.7678 13.2233
L54.7073 13.3443
" />
<path d="M54.7073 13.3443
L54.5863 13.4653
" />
<path d="M54.5863 13.4653
L54.4049 13.5257
" />
<path d="M54.4049 13.5257
L54.1025 13.5257
" />
<path d="M55.3121 13.1629
L55.9168 13.1629
" />
<path d="M55.1911 13.5257
L55.6144 12.2557
" />
<path d="M55.6144 12.2557
L56.0378 13.5257
" />
</g></g>
<g style="fill:#A90000; fill-opacity:0.0; 
stroke:#A90000; stroke-width:0.1524; stroke-opacity:1; 
stroke-linecap:round; stroke-linejoin:round;">
<text x="50.8127" y="12.6842"
textLength="1.3365" font-size="1.6933" lengthAdjust="spacingAndGlyphs"
text-anchor="middle" opacity="0">5</text>
<g class="stroked-text"><desc>5</desc>
<path d="M51.1151 11.2587
L50.5103 11.2587
" />
<path d="M50.5103 11.2587
L50.4499 11.8635
" />
<path d="M50.4499 11.8635
L50.5103 11.8030
" />
<path d="M50.5103 11.8030
L50.6313 11.7425
" />
<path d="M50.6313 11.7425
L50.9337 11.7425
" />
<path d="M50.9337 11.7425
L51.0546 11.8030
" />
<path d="M51.0546 11.8030
L51.1151 11.8635
" />
<path d="M51.1151 11.8635
L51.1756 11.9844
" />
<path d="M51.1756 11.9844
L51.1756 12.2868
" />
<path d="M51.1756 12.2868
L51.1151 12.4078
" />
<path d="M51.1151 12.4078
L51.0546 12.4683
" />
<path d="M51.0546 12.4683
L50.9337 12.5287
" />
<path d="M50.9337 12.5287
L50.6313 12.5287
" />
<path d="M50.6313 12.5287
L50.5103 12.4683
" />
<path d="M50.5103 12.4683
L50.4499 12.4078
" />
</g></g>
<g style="fill:#840000; fill-opacity:0.0; 
stroke:#840000; stroke-width:0.1524; stroke-opacity:1; 
stroke-linecap:round; stroke-linejoin:round;">
<path d="M52.0827 18.0182
L49.5427 18.0182
" />
</g>
<g style="fill:#006464; fill-opacity:0.0; 
stroke:#006464; stroke-width:0.1524; stroke-opacity:1; 
stroke-linecap:round; stroke-linejoin:round;">
<text x="52.5907" y="18.6532"
textLength="3.6951" font-size="1.6933" lengthAdjust="spacingAndGlyphs"
text-anchor="start" opacity="0">AD0</text>
<g class="stroked-text"><desc>AD0</desc>
<path d="M52.8326 18.2429
L53.4373 18.2429
" />
<path d="M52.7116 18.6057
L53.1349 17.3357
" />
<path d="M53.1349 17.3357
L53.5583 18.6057
" />
<path d="M53.9816 18.6057
L53.9816 17.3357
" />
<path d="M53.9816 17.3357
L54.2840 17.3357
" />
<path d="M54.2840 17.3357
L54.4654 17.3962
" />
<path d="M54.4654 17.3962
L54.5864 17.5172
" />
<path d="M54.5864 17.5172
L54.6469 17.6381
" />
<path d="M54.6469 17.6381
L54.7073 17.8800
" />
<path d="M54.7073 17.8800
L54.7073 18.0614
" />
<path d="M54.7073 18.0614
L54.6469 18.3033
" />
<path d="M54.6469 18.3033
L54.5864 18.4243
" />
<path d="M54.5864 18.4243
L54.4654 18.5453
" />
<path d="M54.4654 18.5453
L54.2840 18.6057
" />
<path d="M54.2840 18.6057
L53.9816 18.6057
" />
<path d="M55.4935 17.3357
L55.6145 17.3357
" />
<path d="M55.6145 17.3357
L55.7354 17.3962
" />
<path d="M55.7354 17.3962
L55.7959 17.4567
" />
<path d="M55.7959 17.4567
L55.8564 17.5776
" />
<path d="M55.8564 17.5776
L55.9169 17.8195
" />
<path d="M55.9169 17.8195
L55.9169 18.1219
" />
<path d="M55.9169 18.1219
L55.8564 18.3638
" />
<path d="M55.8564 18.3638
L55.7959 18.4848
" />
<path d="M55.7959 18.4848
L55.7354 18.5453
" />
<path d="M55.7354 18.5453
L55.6145 18.6057
" />
<path d="M55.6145 18.6057
L55.4935 18.6057
" />
<path d="M55.4935 18.6057
L55.3726 18.5453
" />
<path d="M55.3726 18.5453
L55.3121 18.4848
" />
<path d="M55.3121 18.4848
L55.2516 18.3638
" />
<path d="M55.2516 18.3638
L55.1912 18.1219
" />
<path d="M55.1912 18.1219
L55.1912 17.8195
" />
<path d="M55.1912 17.8195
L55.2516 17.5776
" />
<path d="M55.2516 17.5776
L55.3121 17.4567
" />
<path d="M55.3121 17.4567
L55.3726 17.3962
" />
<path d="M55.3726 17.3962
L55.4935 17.3357
" />
</g></g>
<g style="fill:#A90000; fill-opacity:0.0; 
stroke:#A90000; stroke-width:0.1524; stroke-opacity:1; 
stroke-linecap:round; stroke-linejoin:round;">
<text x="50.8127" y="17.7642"
textLength="1.3365" font-size="1.6933" lengthAdjust="spacingAndGlyphs"
text-anchor="middle" opacity="0">6</text>
<g class="stroked-text"><desc>6</desc>
<path d="M51.0546 16.3387
L50.8127 16.3387
" />
<path d="M50.8127 16.3387
L50.6918 16.3992
" />
<path d="M50.6918 16.3992
L50.6313 16.4597
" />
<path d="M50.6313 16.4597
L50.5103 16.6411
" />
<path d="M50.5103 16.6411
L50.4499 16.8830
" />
<path d="M50.4499 16.8830
L50.4499 17.3668
" />
<path d="M50.4499 17.3668
L50.5103 17.4878
" />
<path d="M50.5103 17.4878
L50.5708 17.5483
" />
<path d="M50.5708 17.5483
L50.6918 17.6087
" />
<path d="M50.6918 17.6087
L50.9337 17.6087
" />
<path d="M50.9337 17.6087
L51.0546 17.5483
" />
<path d="M51.0546 17.5483
L51.1151 17.4878
" />
<path d="M51.1151 17.4878
L51.1756 17.3668
" />
<path d="M51.1756 17.3668
L51.1756 17.0644
" />
<path d="M51.1756 17.0644
L51.1151 16.9435
" />
<path d="M51.1151 16.9435
L51.0546 16.8830
" />
<path d="M51.0546 16.8830
L50.9337 16.8225
" />
<path d="M50.9337 16.8225
L50.6918 16.8225
" />
<path d="M50.6918 16.8225
L50.5708 16.8830
" />
<path d="M50.5708 16.8830
L50.5103 16.9435
" />
<path d="M50.5103 16.9435
L50.4499 17.0644
" />
</g></g>
<g style="fill:#840000; fill-opacity:0.0; 
stroke:#840000; stroke-width:0.1524; stroke-opacity:1; 
stroke-linecap:round; stroke-linejoin:round;">
<path d="M67.3227 12.9382
L69.8627 12.9382
" />
</g>
<g style="fill:#006464; fill-opacity:0.0; 
stroke:#006464; stroke-width:0.1524; stroke-opacity:1; 
stroke-linecap:round; stroke-linejoin:round;">
<text x="66.8147" y="13.5732"
textLength="1.3970" font-size="1.6933" lengthAdjust="spacingAndGlyphs"
text-anchor="end" opacity="0">B</text>
<g class="stroked-text"><desc>B</desc>
<path d="M66.2704 12.8605
L66.4518 12.9210
" />
<path d="M66.4518 12.9210
L66.5123 12.9814
" />
<path d="M66.5123 12.9814
L66.5727 13.1024
" />
<path d="M66.5727 13.1024
L66.5727 13.2838
" />
<path d="M66.5727 13.2838
L66.5123 13.4048
" />
<path d="M66.5123 13.4048
L66.4518 13.4653
" />
<path d="M66.4518 13.4653
L66.3308 13.5257
" />
<path d="M66.3308 13.5257
L65.8470 13.5257
" />
<path d="M65.8470 13.5257
L65.8470 12.2557
" />
<path d="M65.8470 12.2557
L66.2704 12.2557
" />
<path d="M66.2704 12.2557
L66.3913 12.3162
" />
<path d="M66.3913 12.3162
L66.4518 12.3767
" />
<path d="M66.4518 12.3767
L66.5123 12.4976
" />
<path d="M66.5123 12.4976
L66.5123 12.6186
" />
<path d="M66.5123 12.6186
L66.4518 12.7395
" />
<path d="M66.4518 12.7395
L66.3913 12.8000
" />
<path d="M66.3913 12.8000
L66.2704 12.8605
" />
<path d="M66.2704 12.8605
L65.8470 12.8605
" />
</g></g>
<g style="fill:#A90000; fill-opacity:0.0; 
stroke:#A90000; stroke-width:0.1524; stroke-opacity:1; 
stroke-linecap:round; stroke-linejoin:round;">
<text x="68.5927" y="12.6842"
textLength="1.3365" font-size="1.6933" lengthAdjust="spacingAndGlyphs"
text-anchor="middle" opacity="0">7</text>
<g class="stroked-text"><desc>7</desc>
<path d="M68.1694 11.2587
L69.0160 11.2587
" />
<path d="M69.0160 11.2587
L68.4718 12.5287
" />
</g></g>
<g style="fill:#840000; fill-opacity:0.0; 
stroke:#840000; stroke-width:0.1524; stroke-opacity:1; 
stroke-linecap:round; stroke-linejoin:round;">
<path d="M67.3227 7.8582
L69.8627 7.8582
" />
</g>
<g style="fill:#006464; fill-opacity:0.0; 
stroke:#006464; stroke-width:0.1524; stroke-opacity:1; 
stroke-linecap:round; stroke-linejoin:round;">
<text x="66.8147" y="8.4932"
textLength="1.2156" font-size="1.6933" lengthAdjust="spacingAndGlyphs"
text-anchor="end" opacity="0">A</text>
<g class="stroked-text"><desc>A</desc>
<path d="M65.9680 8.0829
L66.5727 8.0829
" />
<path d="M65.8470 8.4457
L66.2703 7.1757
" />
<path d="M66.2703 7.1757
L66.6937 8.4457
" />
</g></g>
<g style="fill:#A90000; fill-opacity:0.0; 
stroke:#A90000; stroke-width:0.1524; stroke-opacity:1; 
stroke-linecap:round; stroke-linejoin:round;">
<text x="68.5927" y="7.6042"
textLength="1.3365" font-size="1.6933" lengthAdjust="spacingAndGlyphs"
text-anchor="middle" opacity="0">8</text>
<g class="stroked-text"><desc>8</desc>
<path d="M68.4718 6.7230
L68.3508 6.6625
" />
<path d="M68.3508 6.6625
L68.2903 6.6021
" />
<path d="M68.2903 6.6021
L68.2299 6.4811
" />
<path d="M68.2299 6.4811
L68.2299 6.4206
" />
<path d="M68.2299 6.4206
L68.2903 6.2997
" />
<path d="M68.2903 6.2997
L68.3508 6.2392
" />
<path d="M68.3508 6.2392
L68.4718 6.1787
" />
<path d="M68.4718 6.1787
L68.7137 6.1787
" />
<path d="M68.7137 6.1787
L68.8346 6.2392
" />
<path d="M68.8346 6.2392
L68.8951 6.2997
" />
<path d="M68.8951 6.2997
L68.9556 6.4206
" />
<path d="M68.9556 6.4206
L68.9556 6.4811
" />
<path d="M68.9556 6.4811
L68.8951 6.6021
" />
<path d="M68.8951 6.6021
L68.8346 6.6625
" />
<path d="M68.8346 6.6625
L68.7137 6.7230
" />
<path d="M68.7137 6.7230
L68.4718 6.7230
" />
<path d="M68.4718 6.7230
L68.3508 6.7835
" />
<path d="M68.3508 6.7835
L68.2903 6.8440
" />
<path d="M68.2903 6.8440
L68.2299 6.9649
" />
<path d="M68.2299 6.9649
L68.2299 7.2068
" />
<path d="M68.2299 7.2068
L68.2903 7.3278
" />
<path d="M68.2903 7.3278
L68.3508 7.3883
" />
<path d="M68.3508 7.3883
L68.4718 7.4487
" />
<path d="M68.4718 7.4487
L68.7137 7.4487
" />
<path d="M68.7137 7.4487
L68.8346 7.3883
" />
<path d="M68.8346 7.3883
L68.8951 7.3278
" />
<path d="M68.8951 7.3278
L68.9556 7.2068
" />
<path d="M68.9556 7.2068
L68.9556 6.9649
" />
<path d="M68.9556 6.9649
L68.8951 6.8440
" />
<path d="M68.8951 6.8440
L68.8346 6.7835
" />
<path d="M68.8346 6.7835
L68.7137 6.7230
" />
</g></g>
<g style="fill:#840084; fill-opacity:0.0; 
stroke:#840084; stroke-width:0.1524; stroke-opacity:1; 
stroke-linecap:round; stroke-linejoin:round;">
</g>
<g style="fill:#006464; fill-opacity:0.0; 
stroke:#006464; stroke-width:0.1524; stroke-opacity:1; 
stroke-linecap:round; stroke-linejoin:round;">
</g>
<g style="fill:#006464; fill-opacity:0.0; 
stroke:#006464; stroke-width:0.1588; stroke-opacity:1; 
stroke-linecap:round; stroke-linejoin:round;">
<text x="67.3227" y="4.6832"
textLength="2.5621" font-size="1.6933" lengthAdjust="spacingAndGlyphs"
text-anchor="middle" opacity="0">U?</text>
<g class="stroked-text"><desc>U?</desc>
<path d="M66.4155 3.3657
L66.4155 4.3938
" />
<path d="M66.4155 4.3938
L66.4760 4.5148
" />
<path d="M66.4760 4.5148
L66.5365 4.5753
" />
<path d="M66.5365 4.5753
L66.6574 4.6357
" />
<path d="M66.6574 4.6357
L66.8993 4.6357
" />
<path d="M66.8993 4.6357
L67.0203 4.5753
" />
<path d="M67.0203 4.5753
L67.0808 4.5148
" />
<path d="M67.0808 4.5148
L67.1412 4.3938
" />
<path d="M67.1412 4.3938
L67.1412 3.3657
" />
<path d="M67.9275 4.5148
L67.9879 4.5753
" />
<path d="M67.9879 4.5753
L67.9275 4.6357
" />
<path d="M67.9275 4.6357
L67.8670 4.5753
" />
<path d="M67.8670 4.5753
L67.9275 4.5148
" />
<path d="M67.9275 4.5148
L67.9275 4.6357
" />
<path d="M67.6856 3.4262
L67.8065 3.3657
" />
<path d="M67.8065 3.3657
L68.1089 3.3657
" />
<path d="M68.1089 3.3657
L68.2298 3.4262
" />
<path d="M68.2298 3.4262
L68.2903 3.5472
" />
<path d="M68.2903 3.5472
L68.2903 3.6681
" />
<path d="M68.2903 3.6681
L68.2298 3.7891
" />
<path d="M68.2298 3.7891
L68.1694 3.8495
" />
<path d="M68.1694 3.8495
L68.0484 3.9100
" />
<path d="M68.0484 3.9100
L67.9879 3.9705
" />
<path d="M67.9879 3.9705
L67.9275 4.0914
" />
<path d="M67.9275 4.0914
L67.9275 4.1519
" />
</g><text x="59.7027" y="27.5432"
textLength="8.3072" font-size="1.6933" lengthAdjust="spacingAndGlyphs"
text-anchor="middle" opacity="0">CAT5171</text>
<g class="stroked-text"><desc>CAT5171</desc>
<path d="M56.6486 27.3748
L56.5882 27.4353
" />
<path d="M56.5882 27.4353
L56.4067 27.4957
" />
<path d="M56.4067 27.4957
L56.2858 27.4957
" />
<path d="M56.2858 27.4957
L56.1044 27.4353
" />
<path d="M56.1044 27.4353
L55.9834 27.3143
" />
<path d="M55.9834 27.3143
L55.9229 27.1933
" />
<path d="M55.9229 27.1933
L55.8625 26.9514
" />
<path d="M55.8625 26.9514
L55.8625 26.7700
" />
<path d="M55.8625 26.7700
L55.9229 26.5281
" />
<path d="M55.9229 26.5281
L55.9834 26.4072
" />
<path d="M55.9834 26.4072
L56.1044 26.2862
" />
<path d="M56.1044 26.2862
L56.2858 26.2257
" />
<path d="M56.2858 26.2257
L56.4067 26.2257
" />
<path d="M56.4067 26.2257
L56.5882 26.2862
" />
<path d="M56.5882 26.2862
L56.6486 26.3467
" />
<path d="M57.1325 27.1329
L57.7372 27.1329
" />
<path d="M57.0115 27.4957
L57.4348 26.2257
" />
<path d="M57.4348 26.2257
L57.8582 27.4957
" />
<path d="M58.1001 26.2257
L58.8258 26.2257
" />
<path d="M58.4630 27.4957
L58.4630 26.2257
" />
<path d="M59.8539 26.2257
L59.2491 26.2257
" />
<path d="M59.2491 26.2257
L59.1887 26.8305
" />
<path d="M59.1887 26.8305
L59.2491 26.7700
" />
<path d="M59.2491 26.7700
L59.3701 26.7095
" />
<path d="M59.3701 26.7095
L59.6725 26.7095
" />
<path d="M59.6725 26.7095
L59.7934 26.7700
" />
<path d="M59.7934 26.7700
L59.8539 26.8305
" />
<path d="M59.8539 26.8305
L59.9144 26.9514
" />
<path d="M59.9144 26.9514
L59.9144 27.2538
" />
<path d="M59.9144 27.2538
L59.8539 27.3748
" />
<path d="M59.8539 27.3748
L59.7934 27.4353
" />
<path d="M59.7934 27.4353
L59.6725 27.4957
" />
<path d="M59.6725 27.4957
L59.3701 27.4957
" />
<path d="M59.3701 27.4957
L59.2491 27.4353
" />
<path d="M59.2491 27.4353
L59.1887 27.3748
" />
<path d="M61.1239 27.4957
L60.3982 27.4957
" />
<path d="M60.7610 27.4957
L60.7610 26.2257
" />
<path d="M60.7610 26.2257
L60.6401 26.4072
" />
<path d="M60.6401 26.4072
L60.5191 26.5281
" />
<path d="M60.5191 26.5281
L60.3982 26.5886
" />
<path d="M61.5472 26.2257
L62.3938 26.2257
" />
<path d="M62.3938 26.2257
L61.8496 27.4957
" />
<path d="M63.5429 27.4957
L62.8172 27.4957
" />
<path d="M63.1800 27.4957
L63.1800 26.2257
" />
<path d="M63.1800 26.2257
L63.0591 26.4072
" />
<path d="M63.0591 26.4072
L62.9381 26.5281
" />
<path d="M62.9381 26.5281
L62.8172 26.5886
" />
</g></g>
<g style="fill:#840084; fill-opacity:0.0; 
stroke:#840084; stroke-width:0.1588; stroke-opacity:1; 
stroke-linecap:round; stroke-linejoin:round;">
<text x="59.7027" y="32.6232"
textLength="31.5904" font-size="1.6933" lengthAdjust="spacingAndGlyphs"
text-anchor="middle" opacity="0">Package_TO_SOT_SMD:SOT-23-8</text>
<g class="stroked-text"><desc>Package_TO_SOT_SMD:SOT-23-8</desc>
<path d="M44.2813 32.5757
L44.2813 31.3057
" />
<path d="M44.2813 31.3057
L44.7651 31.3057
" />
<path d="M44.7651 31.3057
L44.8861 31.3662
" />
<path d="M44.8861 31.3662
L44.9466 31.4267
" />
<path d="M44.9466 31.4267
L45.0070 31.5476
" />
<path d="M45.0070 31.5476
L45.0070 31.7291
" />
<path d="M45.0070 31.7291
L44.9466 31.8500
" />
<path d="M44.9466 31.8500
L44.8861 31.9105
" />
<path d="M44.8861 31.9105
L44.7651 31.9710
" />
<path d="M44.7651 31.9710
L44.2813 31.9710
" />
<path d="M46.0956 32.5757
L46.0956 31.9105
" />
<path d="M46.0956 31.9105
L46.0351 31.7895
" />
<path d="M46.0351 31.7895
L45.9142 31.7291
" />
<path d="M45.9142 31.7291
L45.6723 31.7291
" />
<path d="M45.6723 31.7291
L45.5513 31.7895
" />
<path d="M46.0956 32.5153
L45.9747 32.5757
" />
<path d="M45.9747 32.5757
L45.6723 32.5757
" />
<path d="M45.6723 32.5757
L45.5513 32.5153
" />
<path d="M45.5513 32.5153
L45.4909 32.3943
" />
<path d="M45.4909 32.3943
L45.4909 32.2733
" />
<path d="M45.4909 32.2733
L45.5513 32.1524
" />
<path d="M45.5513 32.1524
L45.6723 32.0919
" />
<path d="M45.6723 32.0919
L45.9747 32.0919
" />
<path d="M45.9747 32.0919
L46.0956 32.0314
" />
<path d="M47.2446 32.5153
L47.1237 32.5757
" />
<path d="M47.1237 32.5757
L46.8818 32.5757
" />
<path d="M46.8818 32.5757
L46.7608 32.5153
" />
<path d="M46.7608 32.5153
L46.7003 32.4548
" />
<path d="M46.7003 32.4548
L46.6399 32.3338
" />
<path d="M46.6399 32.3338
L46.6399 31.9710
" />
<path d="M46.6399 31.9710
L46.7003 31.8500
" />
<path d="M46.7003 31.8500
L46.7608 31.7895
" />
<path d="M46.7608 31.7895
L46.8818 31.7291
" />
<path d="M46.8818 31.7291
L47.1237 31.7291
" />
<path d="M47.1237 31.7291
L47.2446 31.7895
" />
<path d="M47.7889 32.5757
L47.7889 31.3057
" />
<path d="M47.9099 32.0919
L48.2727 32.5757
" />
<path d="M48.2727 31.7291
L47.7889 32.2129
" />
<path d="M49.3613 32.5757
L49.3613 31.9105
" />
<path d="M49.3613 31.9105
L49.3008 31.7895
" />
<path d="M49.3008 31.7895
L49.1799 31.7291
" />
<path d="M49.1799 31.7291
L48.9380 31.7291
" />
<path d="M48.9380 31.7291
L48.8170 31.7895
" />
<path d="M49.3613 32.5153
L49.2404 32.5757
" />
<path d="M49.2404 32.5757
L48.9380 32.5757
" />
<path d="M48.9380 32.5757
L48.8170 32.5153
" />
<path d="M48.8170 32.5153
L48.7566 32.3943
" />
<path d="M48.7566 32.3943
L48.7566 32.2733
" />
<path d="M48.7566 32.2733
L48.8170 32.1524
" />
<path d="M48.8170 32.1524
L48.9380 32.0919
" />
<path d="M48.9380 32.0919
L49.2404 32.0919
" />
<path d="M49.2404 32.0919
L49.3613 32.0314
" />
<path d="M50.5103 31.7291
L50.5103 32.7572
" />
<path d="M50.5103 32.7572
L50.4498 32.8781
" />
<path d="M50.4498 32.8781
L50.3894 32.9386
" />
<path d="M50.3894 32.9386
L50.2684 32.9991
" />
<path d="M50.2684 32.9991
L50.0870 32.9991
" />
<path d="M50.0870 32.9991
L49.9660 32.9386
" />
<path d="M50.5103 32.5153
L50.3894 32.5757
" />
<path d="M50.3894 32.5757
L50.1475 32.5757
" />
<path d="M50.1475 32.5757
L50.0265 32.5153
" />
<path d="M50.0265 32.5153
L49.9660 32.4548
" />
<path d="M49.9660 32.4548
L49.9056 32.3338
" />
<path d="M49.9056 32.3338
L49.9056 31.9710
" />
<path d="M49.9056 31.9710
L49.9660 31.8500
" />
<path d="M49.9660 31.8500
L50.0265 31.7895
" />
<path d="M50.0265 31.7895
L50.1475 31.7291
" />
<path d="M50.1475 31.7291
L50.3894 31.7291
" />
<path d="M50.3894 31.7291
L50.5103 31.7895
" />
<path d="M51.5988 32.5153
L51.4779 32.5757
" />
<path d="M51.4779 32.5757
L51.2360 32.5757
" />
<path d="M51.2360 32.5757
L51.1150 32.5153
" />
<path d="M51.1150 32.5153
L51.0546 32.3943
" />
<path d="M51.0546 32.3943
L51.0546 31.9105
" />
<path d="M51.0546 31.9105
L51.1150 31.7895
" />
<path d="M51.1150 31.7895
L51.2360 31.7291
" />
<path d="M51.2360 31.7291
L51.4779 31.7291
" />
<path d="M51.4779 31.7291
L51.5988 31.7895
" />
<path d="M51.5988 31.7895
L51.6593 31.9105
" />
<path d="M51.6593 31.9105
L51.6593 32.0314
" />
<path d="M51.6593 32.0314
L51.0546 32.1524
" />
<path d="M51.9013 32.6967
L52.8689 32.6967
" />
<path d="M52.9898 31.3057
L53.7155 31.3057
" />
<path d="M53.3527 32.5757
L53.3527 31.3057
" />
<path d="M54.3807 31.3057
L54.6226 31.3057
" />
<path d="M54.6226 31.3057
L54.7436 31.3662
" />
<path d="M54.7436 31.3662
L54.8645 31.4872
" />
<path d="M54.8645 31.4872
L54.9250 31.7291
" />
<path d="M54.9250 31.7291
L54.9250 32.1524
" />
<path d="M54.9250 32.1524
L54.8645 32.3943
" />
<path d="M54.8645 32.3943
L54.7436 32.5153
" />
<path d="M54.7436 32.5153
L54.6226 32.5757
" />
<path d="M54.6226 32.5757
L54.3807 32.5757
" />
<path d="M54.3807 32.5757
L54.2598 32.5153
" />
<path d="M54.2598 32.5153
L54.1388 32.3943
" />
<path d="M54.1388 32.3943
L54.0784 32.1524
" />
<path d="M54.0784 32.1524
L54.0784 31.7291
" />
<path d="M54.0784 31.7291
L54.1388 31.4872
" />
<path d="M54.1388 31.4872
L54.2598 31.3662
" />
<path d="M54.2598 31.3662
L54.3807 31.3057
" />
<path d="M55.1670 32.6967
L56.1346 32.6967
" />
<path d="M56.3765 32.5153
L56.5579 32.5757
" />
<path d="M56.5579 32.5757
L56.8603 32.5757
" />
<path d="M56.8603 32.5757
L56.9812 32.5153
" />
<path d="M56.9812 32.5153
L57.0417 32.4548
" />
<path d="M57.0417 32.4548
L57.1022 32.3338
" />
<path d="M57.1022 32.3338
L57.1022 32.2129
" />
<path d="M57.1022 32.2129
L57.0417 32.0919
" />
<path d="M57.0417 32.0919
L56.9812 32.0314
" />
<path d="M56.9812 32.0314
L56.8603 31.9710
" />
<path d="M56.8603 31.9710
L56.6184 31.9105
" />
<path d="M56.6184 31.9105
L56.4974 31.8500
" />
<path d="M56.4974 31.8500
L56.4369 31.7895
" />
<path d="M56.4369 31.7895
L56.3765 31.6686
" />
<path d="M56.3765 31.6686
L56.3765 31.5476
" />
<path d="M56.3765 31.5476
L56.4369 31.4267
" />
<path d="M56.4369 31.4267
L56.4974 31.3662
" />
<path d="M56.4974 31.3662
L56.6184 31.3057
" />
<path d="M56.6184 31.3057
L56.9207 31.3057
" />
<path d="M56.9207 31.3057
L57.1022 31.3662
" />
<path d="M57.8883 31.3057
L58.1302 31.3057
" />
<path d="M58.1302 31.3057
L58.2512 31.3662
" />
<path d="M58.2512 31.3662
L58.3721 31.4872
" />
<path d="M58.3721 31.4872
L58.4326 31.7291
" />
<path d="M58.4326 31.7291
L58.4326 32.1524
" />
<path d="M58.4326 32.1524
L58.3721 32.3943
" />
<path d="M58.3721 32.3943
L58.2512 32.5153
" />
<path d="M58.2512 32.5153
L58.1302 32.5757
" />
<path d="M58.1302 32.5757
L57.8883 32.5757
" />
<path d="M57.8883 32.5757
L57.7674 32.5153
" />
<path d="M57.7674 32.5153
L57.6464 32.3943
" />
<path d="M57.6464 32.3943
L57.5860 32.1524
" />
<path d="M57.5860 32.1524
L57.5860 31.7291
" />
<path d="M57.5860 31.7291
L57.6464 31.4872
" />
<path d="M57.6464 31.4872
L57.7674 31.3662
" />
<path d="M57.7674 31.3662
L57.8883 31.3057
" />
<path d="M58.7955 31.3057
L59.5212 31.3057
" />
<path d="M59.1584 32.5757
L59.1584 31.3057
" />
<path d="M59.6422 32.6967
L60.6098 32.6967
" />
<path d="M60.8517 32.5153
L61.0331 32.5757
" />
<path d="M61.0331 32.5757
L61.3355 32.5757
" />
<path d="M61.3355 32.5757
L61.4564 32.5153
" />
<path d="M61.4564 32.5153
L61.5169 32.4548
" />
<path d="M61.5169 32.4548
L61.5774 32.3338
" />
<path d="M61.5774 32.3338
L61.5774 32.2129
" />
<path d="M61.5774 32.2129
L61.5169 32.0919
" />
<path d="M61.5169 32.0919
L61.4564 32.0314
" />
<path d="M61.4564 32.0314
L61.3355 31.9710
" />
<path d="M61.3355 31.9710
L61.0936 31.9105
" />
<path d="M61.0936 31.9105
L60.9726 31.8500
" />
<path d="M60.9726 31.8500
L60.9121 31.7895
" />
<path d="M60.9121 31.7895
L60.8517 31.6686
" />
<path d="M60.8517 31.6686
L60.8517 31.5476
" />
<path d="M60.8517 31.5476
L60.9121 31.4267
" />
<path d="M60.9121 31.4267
L60.9726 31.3662
" />
<path d="M60.9726 31.3662
L61.0936 31.3057
" />
<path d="M61.0936 31.3057
L61.3959 31.3057
" />
<path d="M61.3959 31.3057
L61.5774 31.3662
" />
<path d="M62.1216 32.5757
L62.1216 31.3057
" />
<path d="M62.1216 31.3057
L62.5450 32.2129
" />
<path d="M62.5450 32.2129
L62.9683 31.3057
" />
<path d="M62.9683 31.3057
L62.9683 32.5757
" />
<path d="M63.5730 32.5757
L63.5730 31.3057
" />
<path d="M63.5730 31.3057
L63.8754 31.3057
" />
<path d="M63.8754 31.3057
L64.0568 31.3662
" />
<path d="M64.0568 31.3662
L64.1778 31.4872
" />
<path d="M64.1778 31.4872
L64.2383 31.6081
" />
<path d="M64.2383 31.6081
L64.2987 31.8500
" />
<path d="M64.2987 31.8500
L64.2987 32.0314
" />
<path d="M64.2987 32.0314
L64.2383 32.2733
" />
<path d="M64.2383 32.2733
L64.1778 32.3943
" />
<path d="M64.1778 32.3943
L64.0568 32.5153
" />
<path d="M64.0568 32.5153
L63.8754 32.5757
" />
<path d="M63.8754 32.5757
L63.5730 32.5757
" />
<path d="M64.8430 32.4548
L64.9035 32.5153
" />
<path d="M64.9035 32.5153
L64.8430 32.5757
" />
<path d="M64.8430 32.5757
L64.7826 32.5153
" />
<path d="M64.7826 32.5153
L64.8430 32.4548
" />
<path d="M64.8430 32.4548
L64.8430 32.5757
" />
<path d="M64.8430 31.7895
L64.9035 31.8500
" />
<path d="M64.9035 31.8500
L64.8430 31.9105
" />
<path d="M64.8430 31.9105
L64.7826 31.8500
" />
<path d="M64.7826 31.8500
L64.8430 31.7895
" />
<path d="M64.8430 31.7895
L64.8430 31.9105
" />
<path d="M65.3874 32.5153
L65.5688 32.5757
" />
<path d="M65.5688 32.5757
L65.8712 32.5757
" />
<path d="M65.8712 32.5757
L65.9921 32.5153
" />
<path d="M65.9921 32.5153
L66.0526 32.4548
" />
<path d="M66.0526 32.4548
L66.1131 32.3338
" />
<path d="M66.1131 32.3338
L66.1131 32.2129
" />
<path d="M66.1131 32.2129
L66.0526 32.0919
" />
<path d="M66.0526 32.0919
L65.9921 32.0314
" />
<path d="M65.9921 32.0314
L65.8712 31.9710
" />
<path d="M65.8712 31.9710
L65.6293 31.9105
" />
<path d="M65.6293 31.9105
L65.5083 31.8500
" />
<path d="M65.5083 31.8500
L65.4478 31.7895
" />
<path d="M65.4478 31.7895
L65.3874 31.6686
" />
<path d="M65.3874 31.6686
L65.3874 31.5476
" />
<path d="M65.3874 31.5476
L65.4478 31.4267
" />
<path d="M65.4478 31.4267
L65.5083 31.3662
" />
<path d="M65.5083 31.3662
L65.6293 31.3057
" />
<path d="M65.6293 31.3057
L65.9316 31.3057
" />
<path d="M65.9316 31.3057
L66.1131 31.3662
" />
<path d="M66.8992 31.3057
L67.1411 31.3057
" />
<path d="M67.1411 31.3057
L67.2621 31.3662
" />
<path d="M67.2621 31.3662
L67.3830 31.4872
" />
<path d="M67.3830 31.4872
L67.4435 31.7291
" />
<path d="M67.4435 31.7291
L67.4435 32.1524
" />
<path d="M67.4435 32.1524
L67.3830 32.3943
" />
<path d="M67.3830 32.3943
L67.2621 32.5153
" />
<path d="M67.2621 32.5153
L67.1411 32.5757
" />
<path d="M67.1411 32.5757
L66.8992 32.5757
" />
<path d="M66.8992 32.5757
L66.7783 32.5153
" />
<path d="M66.7783 32.5153
L66.6573 32.3943
" />
<path d="M66.6573 32.3943
L66.5969 32.1524
" />
<path d="M66.5969 32.1524
L66.5969 31.7291
" />
<path d="M66.5969 31.7291
L66.6573 31.4872
" />
<path d="M66.6573 31.4872
L66.7783 31.3662
" />
<path d="M66.7783 31.3662
L66.8992 31.3057
" />
<path d="M67.8064 31.3057
L68.5321 31.3057
" />
<path d="M68.1693 32.5757
L68.1693 31.3057
" />
<path d="M68.9554 32.0919
L69.9231 32.0919
" />
<path d="M70.4674 31.4267
L70.5278 31.3662
" />
<path d="M70.5278 31.3662
L70.6488 31.3057
" />
<path d="M70.6488 31.3057
L70.9512 31.3057
" />
<path d="M70.9512 31.3057
L71.0721 31.3662
" />
<path d="M71.0721 31.3662
L71.1326 31.4267
" />
<path d="M71.1326 31.4267
L71.1931 31.5476
" />
<path d="M71.1931 31.5476
L71.1931 31.6686
" />
<path d="M71.1931 31.6686
L71.1326 31.8500
" />
<path d="M71.1326 31.8500
L70.4069 32.5757
" />
<path d="M70.4069 32.5757
L71.1931 32.5757
" />
<path d="M71.6164 31.3057
L72.4026 31.3057
" />
<path d="M72.4026 31.3057
L71.9792 31.7895
" />
<path d="M71.9792 31.7895
L72.1607 31.7895
" />
<path d="M72.1607 31.7895
L72.2816 31.8500
" />
<path d="M72.2816 31.8500
L72.3421 31.9105
" />
<path d="M72.3421 31.9105
L72.4026 32.0314
" />
<path d="M72.4026 32.0314
L72.4026 32.3338
" />
<path d="M72.4026 32.3338
L72.3421 32.4548
" />
<path d="M72.3421 32.4548
L72.2816 32.5153
" />
<path d="M72.2816 32.5153
L72.1607 32.5757
" />
<path d="M72.1607 32.5757
L71.7978 32.5757
" />
<path d="M71.7978 32.5757
L71.6769 32.5153
" />
<path d="M71.6769 32.5153
L71.6164 32.4548
" />
<path d="M72.9468 32.0919
L73.9145 32.0919
" />
<path d="M74.7007 31.8500
L74.5797 31.7895
" />
<path d="M74.5797 31.7895
L74.5192 31.7291
" />
<path d="M74.5192 31.7291
L74.4588 31.6081
" />
<path d="M74.4588 31.6081
L74.4588 31.5476
" />
<path d="M74.4588 31.5476
L74.5192 31.4267
" />
<path d="M74.5192 31.4267
L74.5797 31.3662
" />
<path d="M74.5797 31.3662
L74.7007 31.3057
" />
<path d="M74.7007 31.3057
L74.9426 31.3057
" />
<path d="M74.9426 31.3057
L75.0635 31.3662
" />
<path d="M75.0635 31.3662
L75.1240 31.4267
" />
<path d="M75.1240 31.4267
L75.1845 31.5476
" />
<path d="M75.1845 31.5476
L75.1845 31.6081
" />
<path d="M75.1845 31.6081
L75.1240 31.7291
" />
<path d="M75.1240 31.7291
L75.0635 31.7895
" />
<path d="M75.0635 31.7895
L74.9426 31.8500
" />
<path d="M74.9426 31.8500
L74.7007 31.8500
" />
<path d="M74.7007 31.8500
L74.5797 31.9105
" />
<path d="M74.5797 31.9105
L74.5192 31.9710
" />
<path d="M74.5192 31.9710
L74.4588 32.0919
" />
<path d="M74.4588 32.0919
L74.4588 32.3338
" />
<path d="M74.4588 32.3338
L74.5192 32.4548
" />
<path d="M74.5192 32.4548
L74.5797 32.5153
" />
<path d="M74.5797 32.5153
L74.7007 32.5757
" />
<path d="M74.7007 32.5757
L74.9426 32.5757
" />
<path d="M74.9426 32.5757
L75.0635 32.5153
" />
<path d="M75.0635 32.5153
L75.1240 32.4548
" />
<path d="M75.1240 32.4548
L75.1845 32.3338
" />
<path d="M75.1845 32.3338
L75.1845 32.0919
" />
<path d="M75.1845 32.0919
L75.1240 31.9710
" />
<path d="M75.1240 31.9710
L75.0635 31.9105
" />
<path d="M75.0635 31.9105
L74.9426 31.8500
" />
</g><text x="59.7027" y="35.1632"
textLength="99.5046" font-size="1.6933" lengthAdjust="spacingAndGlyphs"
text-anchor="middle" opacity="0">https://datasheet.lcsc.com/szlcsc/1809111712_ON-Semiconductor-CAT5171TBI-50GT3_C154777.pdf</text>
<g class="stroked-text"><desc>https://datasheet.lcsc.com/szlcsc/1809111712_ON-Semiconductor-CAT5171TBI-50GT3_C154777.pdf</desc>
<path d="M10.3242 35.1157
L10.3242 33.8457
" />
<path d="M10.8685 35.1157
L10.8685 34.4505
" />
<path d="M10.8685 34.4505
L10.8080 34.3295
" />
<path d="M10.8080 34.3295
L10.6871 34.2691
" />
<path d="M10.6871 34.2691
L10.5057 34.2691
" />
<path d="M10.5057 34.2691
L10.3847 34.3295
" />
<path d="M10.3847 34.3295
L10.3242 34.3900
" />
<path d="M11.2918 34.2691
L11.7756 34.2691
" />
<path d="M11.4732 33.8457
L11.4732 34.9343
" />
<path d="M11.4732 34.9343
L11.5337 35.0553
" />
<path d="M11.5337 35.0553
L11.6547 35.1157
" />
<path d="M11.6547 35.1157
L11.7756 35.1157
" />
<path d="M12.0175 34.2691
L12.5013 34.2691
" />
<path d="M12.1989 33.8457
L12.1989 34.9343
" />
<path d="M12.1989 34.9343
L12.2594 35.0553
" />
<path d="M12.2594 35.0553
L12.3804 35.1157
" />
<path d="M12.3804 35.1157
L12.5013 35.1157
" />
<path d="M12.9246 34.2691
L12.9246 35.5391
" />
<path d="M12.9246 34.3295
L13.0456 34.2691
" />
<path d="M13.0456 34.2691
L13.2875 34.2691
" />
<path d="M13.2875 34.2691
L13.4084 34.3295
" />
<path d="M13.4084 34.3295
L13.4689 34.3900
" />
<path d="M13.4689 34.3900
L13.5294 34.5110
" />
<path d="M13.5294 34.5110
L13.5294 34.8738
" />
<path d="M13.5294 34.8738
L13.4689 34.9948
" />
<path d="M13.4689 34.9948
L13.4084 35.0553
" />
<path d="M13.4084 35.0553
L13.2875 35.1157
" />
<path d="M13.2875 35.1157
L13.0456 35.1157
" />
<path d="M13.0456 35.1157
L12.9246 35.0553
" />
<path d="M14.0132 35.0553
L14.1341 35.1157
" />
<path d="M14.1341 35.1157
L14.3760 35.1157
" />
<path d="M14.3760 35.1157
L14.4970 35.0553
" />
<path d="M14.4970 35.0553
L14.5574 34.9343
" />
<path d="M14.5574 34.9343
L14.5574 34.8738
" />
<path d="M14.5574 34.8738
L14.4970 34.7529
" />
<path d="M14.4970 34.7529
L14.3760 34.6924
" />
<path d="M14.3760 34.6924
L14.1946 34.6924
" />
<path d="M14.1946 34.6924
L14.0736 34.6319
" />
<path d="M14.0736 34.6319
L14.0132 34.5110
" />
<path d="M14.0132 34.5110
L14.0132 34.4505
" />
<path d="M14.0132 34.4505
L14.0736 34.3295
" />
<path d="M14.0736 34.3295
L14.1946 34.2691
" />
<path d="M14.1946 34.2691
L14.3760 34.2691
" />
<path d="M14.3760 34.2691
L14.4970 34.3295
" />
<path d="M15.1017 34.9948
L15.1622 35.0553
" />
<path d="M15.1622 35.0553
L15.1017 35.1157
" />
<path d="M15.1017 35.1157
L15.0413 35.0553
" />
<path d="M15.0413 35.0553
L15.1017 34.9948
" />
<path d="M15.1017 34.9948
L15.1017 35.1157
" />
<path d="M15.1017 34.3295
L15.1622 34.3900
" />
<path d="M15.1622 34.3900
L15.1017 34.4505
" />
<path d="M15.1017 34.4505
L15.0413 34.3900
" />
<path d="M15.0413 34.3900
L15.1017 34.3295
" />
<path d="M15.1017 34.3295
L15.1017 34.4505
" />
<path d="M16.6137 33.7853
L15.5251 35.4181
" />
<path d="M17.9442 33.7853
L16.8556 35.4181
" />
<path d="M18.9118 35.1157
L18.9118 33.8457
" />
<path d="M18.9118 35.0553
L18.7909 35.1157
" />
<path d="M18.7909 35.1157
L18.5490 35.1157
" />
<path d="M18.5490 35.1157
L18.4280 35.0553
" />
<path d="M18.4280 35.0553
L18.3675 34.9948
" />
<path d="M18.3675 34.9948
L18.3071 34.8738
" />
<path d="M18.3071 34.8738
L18.3071 34.5110
" />
<path d="M18.3071 34.5110
L18.3675 34.3900
" />
<path d="M18.3675 34.3900
L18.4280 34.3295
" />
<path d="M18.4280 34.3295
L18.5490 34.2691
" />
<path d="M18.5490 34.2691
L18.7909 34.2691
" />
<path d="M18.7909 34.2691
L18.9118 34.3295
" />
<path d="M20.0608 35.1157
L20.0608 34.4505
" />
<path d="M20.0608 34.4505
L20.0003 34.3295
" />
<path d="M20.0003 34.3295
L19.8794 34.2691
" />
<path d="M19.8794 34.2691
L19.6375 34.2691
" />
<path d="M19.6375 34.2691
L19.5165 34.3295
" />
<path d="M20.0608 35.0553
L19.9399 35.1157
" />
<path d="M19.9399 35.1157
L19.6375 35.1157
" />
<path d="M19.6375 35.1157
L19.5165 35.0553
" />
<path d="M19.5165 35.0553
L19.4561 34.9343
" />
<path d="M19.4561 34.9343
L19.4561 34.8133
" />
<path d="M19.4561 34.8133
L19.5165 34.6924
" />
<path d="M19.5165 34.6924
L19.6375 34.6319
" />
<path d="M19.6375 34.6319
L19.9399 34.6319
" />
<path d="M19.9399 34.6319
L20.0608 34.5714
" />
<path d="M20.4841 34.2691
L20.9679 34.2691
" />
<path d="M20.6655 33.8457
L20.6655 34.9343
" />
<path d="M20.6655 34.9343
L20.7260 35.0553
" />
<path d="M20.7260 35.0553
L20.8470 35.1157
" />
<path d="M20.8470 35.1157
L20.9679 35.1157
" />
<path d="M21.9355 35.1157
L21.9355 34.4505
" />
<path d="M21.9355 34.4505
L21.8750 34.3295
" />
<path d="M21.8750 34.3295
L21.7541 34.2691
" />
<path d="M21.7541 34.2691
L21.5122 34.2691
" />
<path d="M21.5122 34.2691
L21.3912 34.3295
" />
<path d="M21.9355 35.0553
L21.8146 35.1157
" />
<path d="M21.8146 35.1157
L21.5122 35.1157
" />
<path d="M21.5122 35.1157
L21.3912 35.0553
" />
<path d="M21.3912 35.0553
L21.3308 34.9343
" />
<path d="M21.3308 34.9343
L21.3308 34.8133
" />
<path d="M21.3308 34.8133
L21.3912 34.6924
" />
<path d="M21.3912 34.6924
L21.5122 34.6319
" />
<path d="M21.5122 34.6319
L21.8146 34.6319
" />
<path d="M21.8146 34.6319
L21.9355 34.5714
" />
<path d="M22.4798 35.0553
L22.6007 35.1157
" />
<path d="M22.6007 35.1157
L22.8426 35.1157
" />
<path d="M22.8426 35.1157
L22.9636 35.0553
" />
<path d="M22.9636 35.0553
L23.0240 34.9343
" />
<path d="M23.0240 34.9343
L23.0240 34.8738
" />
<path d="M23.0240 34.8738
L22.9636 34.7529
" />
<path d="M22.9636 34.7529
L22.8426 34.6924
" />
<path d="M22.8426 34.6924
L22.6612 34.6924
" />
<path d="M22.6612 34.6924
L22.5402 34.6319
" />
<path d="M22.5402 34.6319
L22.4798 34.5110
" />
<path d="M22.4798 34.5110
L22.4798 34.4505
" />
<path d="M22.4798 34.4505
L22.5402 34.3295
" />
<path d="M22.5402 34.3295
L22.6612 34.2691
" />
<path d="M22.6612 34.2691
L22.8426 34.2691
" />
<path d="M22.8426 34.2691
L22.9636 34.3295
" />
<path d="M23.5683 35.1157
L23.5683 33.8457
" />
<path d="M24.1126 35.1157
L24.1126 34.4505
" />
<path d="M24.1126 34.4505
L24.0521 34.3295
" />
<path d="M24.0521 34.3295
L23.9312 34.2691
" />
<path d="M23.9312 34.2691
L23.7498 34.2691
" />
<path d="M23.7498 34.2691
L23.6288 34.3295
" />
<path d="M23.6288 34.3295
L23.5683 34.3900
" />
<path d="M25.2011 35.0553
L25.0802 35.1157
" />
<path d="M25.0802 35.1157
L24.8383 35.1157
" />
<path d="M24.8383 35.1157
L24.7173 35.0553
" />
<path d="M24.7173 35.0553
L24.6569 34.9343
" />
<path d="M24.6569 34.9343
L24.6569 34.4505
" />
<path d="M24.6569 34.4505
L24.7173 34.3295
" />
<path d="M24.7173 34.3295
L24.8383 34.2691
" />
<path d="M24.8383 34.2691
L25.0802 34.2691
" />
<path d="M25.0802 34.2691
L25.2011 34.3295
" />
<path d="M25.2011 34.3295
L25.2616 34.4505
" />
<path d="M25.2616 34.4505
L25.2616 34.5714
" />
<path d="M25.2616 34.5714
L24.6569 34.6924
" />
<path d="M26.2897 35.0553
L26.1688 35.1157
" />
<path d="M26.1688 35.1157
L25.9269 35.1157
" />
<path d="M25.9269 35.1157
L25.8059 35.0553
" />
<path d="M25.8059 35.0553
L25.7455 34.9343
" />
<path d="M25.7455 34.9343
L25.7455 34.4505
" />
<path d="M25.7455 34.4505
L25.8059 34.3295
" />
<path d="M25.8059 34.3295
L25.9269 34.2691
" />
<path d="M25.9269 34.2691
L26.1688 34.2691
" />
<path d="M26.1688 34.2691
L26.2897 34.3295
" />
<path d="M26.2897 34.3295
L26.3502 34.4505
" />
<path d="M26.3502 34.4505
L26.3502 34.5714
" />
<path d="M26.3502 34.5714
L25.7455 34.6924
" />
<path d="M26.7131 34.2691
L27.1969 34.2691
" />
<path d="M26.8945 33.8457
L26.8945 34.9343
" />
<path d="M26.8945 34.9343
L26.9550 35.0553
" />
<path d="M26.9550 35.0553
L27.0760 35.1157
" />
<path d="M27.0760 35.1157
L27.1969 35.1157
" />
<path d="M27.6202 34.9948
L27.6807 35.0553
" />
<path d="M27.6807 35.0553
L27.6202 35.1157
" />
<path d="M27.6202 35.1157
L27.5598 35.0553
" />
<path d="M27.5598 35.0553
L27.6202 34.9948
" />
<path d="M27.6202 34.9948
L27.6202 35.1157
" />
<path d="M28.4065 35.1157
L28.2855 35.0553
" />
<path d="M28.2855 35.0553
L28.2250 34.9343
" />
<path d="M28.2250 34.9343
L28.2250 33.8457
" />
<path d="M29.4345 35.0553
L29.3136 35.1157
" />
<path d="M29.3136 35.1157
L29.0717 35.1157
" />
<path d="M29.0717 35.1157
L28.9507 35.0553
" />
<path d="M28.9507 35.0553
L28.8902 34.9948
" />
<path d="M28.8902 34.9948
L28.8298 34.8738
" />
<path d="M28.8298 34.8738
L28.8298 34.5110
" />
<path d="M28.8298 34.5110
L28.8902 34.3900
" />
<path d="M28.8902 34.3900
L28.9507 34.3295
" />
<path d="M28.9507 34.3295
L29.0717 34.2691
" />
<path d="M29.0717 34.2691
L29.3136 34.2691
" />
<path d="M29.3136 34.2691
L29.4345 34.3295
" />
<path d="M29.9184 35.0553
L30.0393 35.1157
" />
<path d="M30.0393 35.1157
L30.2812 35.1157
" />
<path d="M30.2812 35.1157
L30.4022 35.0553
" />
<path d="M30.4022 35.0553
L30.4626 34.9343
" />
<path d="M30.4626 34.9343
L30.4626 34.8738
" />
<path d="M30.4626 34.8738
L30.4022 34.7529
" />
<path d="M30.4022 34.7529
L30.2812 34.6924
" />
<path d="M30.2812 34.6924
L30.0998 34.6924
" />
<path d="M30.0998 34.6924
L29.9788 34.6319
" />
<path d="M29.9788 34.6319
L29.9184 34.5110
" />
<path d="M29.9184 34.5110
L29.9184 34.4505
" />
<path d="M29.9184 34.4505
L29.9788 34.3295
" />
<path d="M29.9788 34.3295
L30.0998 34.2691
" />
<path d="M30.0998 34.2691
L30.2812 34.2691
" />
<path d="M30.2812 34.2691
L30.4022 34.3295
" />
<path d="M31.5512 35.0553
L31.4303 35.1157
" />
<path d="M31.4303 35.1157
L31.1884 35.1157
" />
<path d="M31.1884 35.1157
L31.0674 35.0553
" />
<path d="M31.0674 35.0553
L31.0069 34.9948
" />
<path d="M31.0069 34.9948
L30.9465 34.8738
" />
<path d="M30.9465 34.8738
L30.9465 34.5110
" />
<path d="M30.9465 34.5110
L31.0069 34.3900
" />
<path d="M31.0069 34.3900
L31.0674 34.3295
" />
<path d="M31.0674 34.3295
L31.1884 34.2691
" />
<path d="M31.1884 34.2691
L31.4303 34.2691
" />
<path d="M31.4303 34.2691
L31.5512 34.3295
" />
<path d="M32.0955 34.9948
L32.1560 35.0553
" />
<path d="M32.1560 35.0553
L32.0955 35.1157
" />
<path d="M32.0955 35.1157
L32.0351 35.0553
" />
<path d="M32.0351 35.0553
L32.0955 34.9948
" />
<path d="M32.0955 34.9948
L32.0955 35.1157
" />
<path d="M33.2446 35.0553
L33.1237 35.1157
" />
<path d="M33.1237 35.1157
L32.8818 35.1157
" />
<path d="M32.8818 35.1157
L32.7608 35.0553
" />
<path d="M32.7608 35.0553
L32.7003 34.9948
" />
<path d="M32.7003 34.9948
L32.6399 34.8738
" />
<path d="M32.6399 34.8738
L32.6399 34.5110
" />
<path d="M32.6399 34.5110
L32.7003 34.3900
" />
<path d="M32.7003 34.3900
L32.7608 34.3295
" />
<path d="M32.7608 34.3295
L32.8818 34.2691
" />
<path d="M32.8818 34.2691
L33.1237 34.2691
" />
<path d="M33.1237 34.2691
L33.2446 34.3295
" />
<path d="M33.9704 35.1157
L33.8494 35.0553
" />
<path d="M33.8494 35.0553
L33.7889 34.9948
" />
<path d="M33.7889 34.9948
L33.7285 34.8738
" />
<path d="M33.7285 34.8738
L33.7285 34.5110
" />
<path d="M33.7285 34.5110
L33.7889 34.3900
" />
<path d="M33.7889 34.3900
L33.8494 34.3295
" />
<path d="M33.8494 34.3295
L33.9704 34.2691
" />
<path d="M33.9704 34.2691
L34.1518 34.2691
" />
<path d="M34.1518 34.2691
L34.2727 34.3295
" />
<path d="M34.2727 34.3295
L34.3332 34.3900
" />
<path d="M34.3332 34.3900
L34.3937 34.5110
" />
<path d="M34.3937 34.5110
L34.3937 34.8738
" />
<path d="M34.3937 34.8738
L34.3332 34.9948
" />
<path d="M34.3332 34.9948
L34.2727 35.0553
" />
<path d="M34.2727 35.0553
L34.1518 35.1157
" />
<path d="M34.1518 35.1157
L33.9704 35.1157
" />
<path d="M34.9379 35.1157
L34.9379 34.2691
" />
<path d="M34.9379 34.3900
L34.9984 34.3295
" />
<path d="M34.9984 34.3295
L35.1194 34.2691
" />
<path d="M35.1194 34.2691
L35.3008 34.2691
" />
<path d="M35.3008 34.2691
L35.4217 34.3295
" />
<path d="M35.4217 34.3295
L35.4822 34.4505
" />
<path d="M35.4822 34.4505
L35.4822 35.1157
" />
<path d="M35.4822 34.4505
L35.5427 34.3295
" />
<path d="M35.5427 34.3295
L35.6636 34.2691
" />
<path d="M35.6636 34.2691
L35.8451 34.2691
" />
<path d="M35.8451 34.2691
L35.9660 34.3295
" />
<path d="M35.9660 34.3295
L36.0265 34.4505
" />
<path d="M36.0265 34.4505
L36.0265 35.1157
" />
<path d="M37.5384 33.7853
L36.4498 35.4181
" />
<path d="M37.9013 35.0553
L38.0222 35.1157
" />
<path d="M38.0222 35.1157
L38.2641 35.1157
" />
<path d="M38.2641 35.1157
L38.3851 35.0553
" />
<path d="M38.3851 35.0553
L38.4455 34.9343
" />
<path d="M38.4455 34.9343
L38.4455 34.8738
" />
<path d="M38.4455 34.8738
L38.3851 34.7529
" />
<path d="M38.3851 34.7529
L38.2641 34.6924
" />
<path d="M38.2641 34.6924
L38.0827 34.6924
" />
<path d="M38.0827 34.6924
L37.9617 34.6319
" />
<path d="M37.9617 34.6319
L37.9013 34.5110
" />
<path d="M37.9013 34.5110
L37.9013 34.4505
" />
<path d="M37.9013 34.4505
L37.9617 34.3295
" />
<path d="M37.9617 34.3295
L38.0827 34.2691
" />
<path d="M38.0827 34.2691
L38.2641 34.2691
" />
<path d="M38.2641 34.2691
L38.3851 34.3295
" />
<path d="M38.8689 34.2691
L39.5341 34.2691
" />
<path d="M39.5341 34.2691
L38.8689 35.1157
" />
<path d="M38.8689 35.1157
L39.5341 35.1157
" />
<path d="M40.1994 35.1157
L40.0784 35.0553
" />
<path d="M40.0784 35.0553
L40.0179 34.9343
" />
<path d="M40.0179 34.9343
L40.0179 33.8457
" />
<path d="M41.2274 35.0553
L41.1065 35.1157
" />
<path d="M41.1065 35.1157
L40.8646 35.1157
" />
<path d="M40.8646 35.1157
L40.7436 35.0553
" />
<path d="M40.7436 35.0553
L40.6831 34.9948
" />
<path d="M40.6831 34.9948
L40.6227 34.8738
" />
<path d="M40.6227 34.8738
L40.6227 34.5110
" />
<path d="M40.6227 34.5110
L40.6831 34.3900
" />
<path d="M40.6831 34.3900
L40.7436 34.3295
" />
<path d="M40.7436 34.3295
L40.8646 34.2691
" />
<path d="M40.8646 34.2691
L41.1065 34.2691
" />
<path d="M41.1065 34.2691
L41.2274 34.3295
" />
<path d="M41.7113 35.0553
L41.8322 35.1157
" />
<path d="M41.8322 35.1157
L42.0741 35.1157
" />
<path d="M42.0741 35.1157
L42.1951 35.0553
" />
<path d="M42.1951 35.0553
L42.2555 34.9343
" />
<path d="M42.2555 34.9343
L42.2555 34.8738
" />
<path d="M42.2555 34.8738
L42.1951 34.7529
" />
<path d="M42.1951 34.7529
L42.0741 34.6924
" />
<path d="M42.0741 34.6924
L41.8927 34.6924
" />
<path d="M41.8927 34.6924
L41.7717 34.6319
" />
<path d="M41.7717 34.6319
L41.7113 34.5110
" />
<path d="M41.7113 34.5110
L41.7113 34.4505
" />
<path d="M41.7113 34.4505
L41.7717 34.3295
" />
<path d="M41.7717 34.3295
L41.8927 34.2691
" />
<path d="M41.8927 34.2691
L42.0741 34.2691
" />
<path d="M42.0741 34.2691
L42.1951 34.3295
" />
<path d="M43.3441 35.0553
L43.2232 35.1157
" />
<path d="M43.2232 35.1157
L42.9813 35.1157
" />
<path d="M42.9813 35.1157
L42.8603 35.0553
" />
<path d="M42.8603 35.0553
L42.7998 34.9948
" />
<path d="M42.7998 34.9948
L42.7394 34.8738
" />
<path d="M42.7394 34.8738
L42.7394 34.5110
" />
<path d="M42.7394 34.5110
L42.7998 34.3900
" />
<path d="M42.7998 34.3900
L42.8603 34.3295
" />
<path d="M42.8603 34.3295
L42.9813 34.2691
" />
<path d="M42.9813 34.2691
L43.2232 34.2691
" />
<path d="M43.2232 34.2691
L43.3441 34.3295
" />
<path d="M44.7956 33.7853
L43.7070 35.4181
" />
<path d="M45.8842 35.1157
L45.1585 35.1157
" />
<path d="M45.5213 35.1157
L45.5213 33.8457
" />
<path d="M45.5213 33.8457
L45.4004 34.0272
" />
<path d="M45.4004 34.0272
L45.2794 34.1481
" />
<path d="M45.2794 34.1481
L45.1585 34.2086
" />
<path d="M46.6099 34.3900
L46.4889 34.3295
" />
<path d="M46.4889 34.3295
L46.4284 34.2691
" />
<path d="M46.4284 34.2691
L46.3680 34.1481
" />
<path d="M46.3680 34.1481
L46.3680 34.0876
" />
<path d="M46.3680 34.0876
L46.4284 33.9667
" />
<path d="M46.4284 33.9667
L46.4889 33.9062
" />
<path d="M46.4889 33.9062
L46.6099 33.8457
" />
<path d="M46.6099 33.8457
L46.8518 33.8457
" />
<path d="M46.8518 33.8457
L46.9727 33.9062
" />
<path d="M46.9727 33.9062
L47.0332 33.9667
" />
<path d="M47.0332 33.9667
L47.0937 34.0876
" />
<path d="M47.0937 34.0876
L47.0937 34.1481
" />
<path d="M47.0937 34.1481
L47.0332 34.2691
" />
<path d="M47.0332 34.2691
L46.9727 34.3295
" />
<path d="M46.9727 34.3295
L46.8518 34.3900
" />
<path d="M46.8518 34.3900
L46.6099 34.3900
" />
<path d="M46.6099 34.3900
L46.4889 34.4505
" />
<path d="M46.4889 34.4505
L46.4284 34.5110
" />
<path d="M46.4284 34.5110
L46.3680 34.6319
" />
<path d="M46.3680 34.6319
L46.3680 34.8738
" />
<path d="M46.3680 34.8738
L46.4284 34.9948
" />
<path d="M46.4284 34.9948
L46.4889 35.0553
" />
<path d="M46.4889 35.0553
L46.6099 35.1157
" />
<path d="M46.6099 35.1157
L46.8518 35.1157
" />
<path d="M46.8518 35.1157
L46.9727 35.0553
" />
<path d="M46.9727 35.0553
L47.0332 34.9948
" />
<path d="M47.0332 34.9948
L47.0937 34.8738
" />
<path d="M47.0937 34.8738
L47.0937 34.6319
" />
<path d="M47.0937 34.6319
L47.0332 34.5110
" />
<path d="M47.0332 34.5110
L46.9727 34.4505
" />
<path d="M46.9727 34.4505
L46.8518 34.3900
" />
<path d="M47.8798 33.8457
L48.0008 33.8457
" />
<path d="M48.0008 33.8457
L48.1217 33.9062
" />
<path d="M48.1217 33.9062
L48.1822 33.9667
" />
<path d="M48.1822 33.9667
L48.2427 34.0876
" />
<path d="M48.2427 34.0876
L48.3032 34.3295
" />
<path d="M48.3032 34.3295
L48.3032 34.6319
" />
<path d="M48.3032 34.6319
L48.2427 34.8738
" />
<path d="M48.2427 34.8738
L48.1822 34.9948
" />
<path d="M48.1822 34.9948
L48.1217 35.0553
" />
<path d="M48.1217 35.0553
L48.0008 35.1157
" />
<path d="M48.0008 35.1157
L47.8798 35.1157
" />
<path d="M47.8798 35.1157
L47.7589 35.0553
" />
<path d="M47.7589 35.0553
L47.6984 34.9948
" />
<path d="M47.6984 34.9948
L47.6379 34.8738
" />
<path d="M47.6379 34.8738
L47.5775 34.6319
" />
<path d="M47.5775 34.6319
L47.5775 34.3295
" />
<path d="M47.5775 34.3295
L47.6379 34.0876
" />
<path d="M47.6379 34.0876
L47.6984 33.9667
" />
<path d="M47.6984 33.9667
L47.7589 33.9062
" />
<path d="M47.7589 33.9062
L47.8798 33.8457
" />
<path d="M48.9079 35.1157
L49.1498 35.1157
" />
<path d="M49.1498 35.1157
L49.2708 35.0553
" />
<path d="M49.2708 35.0553
L49.3312 34.9948
" />
<path d="M49.3312 34.9948
L49.4522 34.8133
" />
<path d="M49.4522 34.8133
L49.5127 34.5714
" />
<path d="M49.5127 34.5714
L49.5127 34.0876
" />
<path d="M49.5127 34.0876
L49.4522 33.9667
" />
<path d="M49.4522 33.9667
L49.3917 33.9062
" />
<path d="M49.3917 33.9062
L49.2708 33.8457
" />
<path d="M49.2708 33.8457
L49.0289 33.8457
" />
<path d="M49.0289 33.8457
L48.9079 33.9062
" />
<path d="M48.9079 33.9062
L48.8474 33.9667
" />
<path d="M48.8474 33.9667
L48.7870 34.0876
" />
<path d="M48.7870 34.0876
L48.7870 34.3900
" />
<path d="M48.7870 34.3900
L48.8474 34.5110
" />
<path d="M48.8474 34.5110
L48.9079 34.5714
" />
<path d="M48.9079 34.5714
L49.0289 34.6319
" />
<path d="M49.0289 34.6319
L49.2708 34.6319
" />
<path d="M49.2708 34.6319
L49.3917 34.5714
" />
<path d="M49.3917 34.5714
L49.4522 34.5110
" />
<path d="M49.4522 34.5110
L49.5127 34.3900
" />
<path d="M50.7222 35.1157
L49.9965 35.1157
" />
<path d="M50.3593 35.1157
L50.3593 33.8457
" />
<path d="M50.3593 33.8457
L50.2384 34.0272
" />
<path d="M50.2384 34.0272
L50.1174 34.1481
" />
<path d="M50.1174 34.1481
L49.9965 34.2086
" />
<path d="M51.9317 35.1157
L51.2060 35.1157
" />
<path d="M51.5688 35.1157
L51.5688 33.8457
" />
<path d="M51.5688 33.8457
L51.4479 34.0272
" />
<path d="M51.4479 34.0272
L51.3269 34.1481
" />
<path d="M51.3269 34.1481
L51.2060 34.2086
" />
<path d="M53.1412 35.1157
L52.4155 35.1157
" />
<path d="M52.7783 35.1157
L52.7783 33.8457
" />
<path d="M52.7783 33.8457
L52.6574 34.0272
" />
<path d="M52.6574 34.0272
L52.5364 34.1481
" />
<path d="M52.5364 34.1481
L52.4155 34.2086
" />
<path d="M53.5645 33.8457
L54.4111 33.8457
" />
<path d="M54.4111 33.8457
L53.8669 35.1157
" />
<path d="M55.5602 35.1157
L54.8345 35.1157
" />
<path d="M55.1973 35.1157
L55.1973 33.8457
" />
<path d="M55.1973 33.8457
L55.0764 34.0272
" />
<path d="M55.0764 34.0272
L54.9554 34.1481
" />
<path d="M54.9554 34.1481
L54.8345 34.2086
" />
<path d="M56.0440 33.9667
L56.1044 33.9062
" />
<path d="M56.1044 33.9062
L56.2254 33.8457
" />
<path d="M56.2254 33.8457
L56.5278 33.8457
" />
<path d="M56.5278 33.8457
L56.6487 33.9062
" />
<path d="M56.6487 33.9062
L56.7092 33.9667
" />
<path d="M56.7092 33.9667
L56.7697 34.0876
" />
<path d="M56.7697 34.0876
L56.7697 34.2086
" />
<path d="M56.7697 34.2086
L56.7092 34.3900
" />
<path d="M56.7092 34.3900
L55.9835 35.1157
" />
<path d="M55.9835 35.1157
L56.7697 35.1157
" />
<path d="M57.0116 35.2367
L57.9792 35.2367
" />
<path d="M58.5234 33.8457
L58.7653 33.8457
" />
<path d="M58.7653 33.8457
L58.8863 33.9062
" />
<path d="M58.8863 33.9062
L59.0072 34.0272
" />
<path d="M59.0072 34.0272
L59.0677 34.2691
" />
<path d="M59.0677 34.2691
L59.0677 34.6924
" />
<path d="M59.0677 34.6924
L59.0072 34.9343
" />
<path d="M59.0072 34.9343
L58.8863 35.0553
" />
<path d="M58.8863 35.0553
L58.7653 35.1157
" />
<path d="M58.7653 35.1157
L58.5234 35.1157
" />
<path d="M58.5234 35.1157
L58.4025 35.0553
" />
<path d="M58.4025 35.0553
L58.2815 34.9343
" />
<path d="M58.2815 34.9343
L58.2211 34.6924
" />
<path d="M58.2211 34.6924
L58.2211 34.2691
" />
<path d="M58.2211 34.2691
L58.2815 34.0272
" />
<path d="M58.2815 34.0272
L58.4025 33.9062
" />
<path d="M58.4025 33.9062
L58.5234 33.8457
" />
<path d="M59.6120 35.1157
L59.6120 33.8457
" />
<path d="M59.6120 33.8457
L60.3377 35.1157
" />
<path d="M60.3377 35.1157
L60.3377 33.8457
" />
<path d="M60.9425 34.6319
L61.9102 34.6319
" />
<path d="M62.4545 35.0553
L62.6359 35.1157
" />
<path d="M62.6359 35.1157
L62.9383 35.1157
" />
<path d="M62.9383 35.1157
L63.0592 35.0553
" />
<path d="M63.0592 35.0553
L63.1197 34.9948
" />
<path d="M63.1197 34.9948
L63.1802 34.8738
" />
<path d="M63.1802 34.8738
L63.1802 34.7529
" />
<path d="M63.1802 34.7529
L63.1197 34.6319
" />
<path d="M63.1197 34.6319
L63.0592 34.5714
" />
<path d="M63.0592 34.5714
L62.9383 34.5110
" />
<path d="M62.9383 34.5110
L62.6964 34.4505
" />
<path d="M62.6964 34.4505
L62.5754 34.3900
" />
<path d="M62.5754 34.3900
L62.5149 34.3295
" />
<path d="M62.5149 34.3295
L62.4545 34.2086
" />
<path d="M62.4545 34.2086
L62.4545 34.0876
" />
<path d="M62.4545 34.0876
L62.5149 33.9667
" />
<path d="M62.5149 33.9667
L62.5754 33.9062
" />
<path d="M62.5754 33.9062
L62.6964 33.8457
" />
<path d="M62.6964 33.8457
L62.9987 33.8457
" />
<path d="M62.9987 33.8457
L63.1802 33.9062
" />
<path d="M64.2082 35.0553
L64.0873 35.1157
" />
<path d="M64.0873 35.1157
L63.8454 35.1157
" />
<path d="M63.8454 35.1157
L63.7244 35.0553
" />
<path d="M63.7244 35.0553
L63.6640 34.9343
" />
<path d="M63.6640 34.9343
L63.6640 34.4505
" />
<path d="M63.6640 34.4505
L63.7244 34.3295
" />
<path d="M63.7244 34.3295
L63.8454 34.2691
" />
<path d="M63.8454 34.2691
L64.0873 34.2691
" />
<path d="M64.0873 34.2691
L64.2082 34.3295
" />
<path d="M64.2082 34.3295
L64.2687 34.4505
" />
<path d="M64.2687 34.4505
L64.2687 34.5714
" />
<path d="M64.2687 34.5714
L63.6640 34.6924
" />
<path d="M64.8130 35.1157
L64.8130 34.2691
" />
<path d="M64.8130 34.3900
L64.8735 34.3295
" />
<path d="M64.8735 34.3295
L64.9945 34.2691
" />
<path d="M64.9945 34.2691
L65.1759 34.2691
" />
<path d="M65.1759 34.2691
L65.2968 34.3295
" />
<path d="M65.2968 34.3295
L65.3573 34.4505
" />
<path d="M65.3573 34.4505
L65.3573 35.1157
" />
<path d="M65.3573 34.4505
L65.4178 34.3295
" />
<path d="M65.4178 34.3295
L65.5387 34.2691
" />
<path d="M65.5387 34.2691
L65.7202 34.2691
" />
<path d="M65.7202 34.2691
L65.8411 34.3295
" />
<path d="M65.8411 34.3295
L65.9016 34.4505
" />
<path d="M65.9016 34.4505
L65.9016 35.1157
" />
<path d="M66.5063 35.1157
L66.5063 34.2691
" />
<path d="M66.5063 33.8457
L66.4459 33.9062
" />
<path d="M66.4459 33.9062
L66.5063 33.9667
" />
<path d="M66.5063 33.9667
L66.5668 33.9062
" />
<path d="M66.5668 33.9062
L66.5063 33.8457
" />
<path d="M66.5063 33.8457
L66.5063 33.9667
" />
<path d="M67.6554 35.0553
L67.5345 35.1157
" />
<path d="M67.5345 35.1157
L67.2926 35.1157
" />
<path d="M67.2926 35.1157
L67.1716 35.0553
" />
<path d="M67.1716 35.0553
L67.1111 34.9948
" />
<path d="M67.1111 34.9948
L67.0507 34.8738
" />
<path d="M67.0507 34.8738
L67.0507 34.5110
" />
<path d="M67.0507 34.5110
L67.1111 34.3900
" />
<path d="M67.1111 34.3900
L67.1716 34.3295
" />
<path d="M67.1716 34.3295
L67.2926 34.2691
" />
<path d="M67.2926 34.2691
L67.5345 34.2691
" />
<path d="M67.5345 34.2691
L67.6554 34.3295
" />
<path d="M68.3812 35.1157
L68.2602 35.0553
" />
<path d="M68.2602 35.0553
L68.1997 34.9948
" />
<path d="M68.1997 34.9948
L68.1393 34.8738
" />
<path d="M68.1393 34.8738
L68.1393 34.5110
" />
<path d="M68.1393 34.5110
L68.1997 34.3900
" />
<path d="M68.1997 34.3900
L68.2602 34.3295
" />
<path d="M68.2602 34.3295
L68.3812 34.2691
" />
<path d="M68.3812 34.2691
L68.5626 34.2691
" />
<path d="M68.5626 34.2691
L68.6835 34.3295
" />
<path d="M68.6835 34.3295
L68.7440 34.3900
" />
<path d="M68.7440 34.3900
L68.8045 34.5110
" />
<path d="M68.8045 34.5110
L68.8045 34.8738
" />
<path d="M68.8045 34.8738
L68.7440 34.9948
" />
<path d="M68.7440 34.9948
L68.6835 35.0553
" />
<path d="M68.6835 35.0553
L68.5626 35.1157
" />
<path d="M68.5626 35.1157
L68.3812 35.1157
" />
<path d="M69.3487 34.2691
L69.3487 35.1157
" />
<path d="M69.3487 34.3900
L69.4092 34.3295
" />
<path d="M69.4092 34.3295
L69.5302 34.2691
" />
<path d="M69.5302 34.2691
L69.7116 34.2691
" />
<path d="M69.7116 34.2691
L69.8325 34.3295
" />
<path d="M69.8325 34.3295
L69.8930 34.4505
" />
<path d="M69.8930 34.4505
L69.8930 35.1157
" />
<path d="M71.0420 35.1157
L71.0420 33.8457
" />
<path d="M71.0420 35.0553
L70.9211 35.1157
" />
<path d="M70.9211 35.1157
L70.6792 35.1157
" />
<path d="M70.6792 35.1157
L70.5582 35.0553
" />
<path d="M70.5582 35.0553
L70.4977 34.9948
" />
<path d="M70.4977 34.9948
L70.4373 34.8738
" />
<path d="M70.4373 34.8738
L70.4373 34.5110
" />
<path d="M70.4373 34.5110
L70.4977 34.3900
" />
<path d="M70.4977 34.3900
L70.5582 34.3295
" />
<path d="M70.5582 34.3295
L70.6792 34.2691
" />
<path d="M70.6792 34.2691
L70.9211 34.2691
" />
<path d="M70.9211 34.2691
L71.0420 34.3295
" />
<path d="M72.1910 34.2691
L72.1910 35.1157
" />
<path d="M71.6467 34.2691
L71.6467 34.9343
" />
<path d="M71.6467 34.9343
L71.7072 35.0553
" />
<path d="M71.7072 35.0553
L71.8282 35.1157
" />
<path d="M71.8282 35.1157
L72.0096 35.1157
" />
<path d="M72.0096 35.1157
L72.1305 35.0553
" />
<path d="M72.1305 35.0553
L72.1910 34.9948
" />
<path d="M73.3400 35.0553
L73.2191 35.1157
" />
<path d="M73.2191 35.1157
L72.9772 35.1157
" />
<path d="M72.9772 35.1157
L72.8562 35.0553
" />
<path d="M72.8562 35.0553
L72.7957 34.9948
" />
<path d="M72.7957 34.9948
L72.7353 34.8738
" />
<path d="M72.7353 34.8738
L72.7353 34.5110
" />
<path d="M72.7353 34.5110
L72.7957 34.3900
" />
<path d="M72.7957 34.3900
L72.8562 34.3295
" />
<path d="M72.8562 34.3295
L72.9772 34.2691
" />
<path d="M72.9772 34.2691
L73.2191 34.2691
" />
<path d="M73.2191 34.2691
L73.3400 34.3295
" />
<path d="M73.7029 34.2691
L74.1867 34.2691
" />
<path d="M73.8843 33.8457
L73.8843 34.9343
" />
<path d="M73.8843 34.9343
L73.9448 35.0553
" />
<path d="M73.9448 35.0553
L74.0658 35.1157
" />
<path d="M74.0658 35.1157
L74.1867 35.1157
" />
<path d="M74.7915 35.1157
L74.6705 35.0553
" />
<path d="M74.6705 35.0553
L74.6100 34.9948
" />
<path d="M74.6100 34.9948
L74.5496 34.8738
" />
<path d="M74.5496 34.8738
L74.5496 34.5110
" />
<path d="M74.5496 34.5110
L74.6100 34.3900
" />
<path d="M74.6100 34.3900
L74.6705 34.3295
" />
<path d="M74.6705 34.3295
L74.7915 34.2691
" />
<path d="M74.7915 34.2691
L74.9729 34.2691
" />
<path d="M74.9729 34.2691
L75.0938 34.3295
" />
<path d="M75.0938 34.3295
L75.1543 34.3900
" />
<path d="M75.1543 34.3900
L75.2148 34.5110
" />
<path d="M75.2148 34.5110
L75.2148 34.8738
" />
<path d="M75.2148 34.8738
L75.1543 34.9948
" />
<path d="M75.1543 34.9948
L75.0938 35.0553
" />
<path d="M75.0938 35.0553
L74.9729 35.1157
" />
<path d="M74.9729 35.1157
L74.7915 35.1157
" />
<path d="M75.7590 35.1157
L75.7590 34.2691
" />
<path d="M75.7590 34.5110
L75.8195 34.3900
" />
<path d="M75.8195 34.3900
L75.8800 34.3295
" />
<path d="M75.8800 34.3295
L76.0009 34.2691
" />
<path d="M76.0009 34.2691
L76.1219 34.2691
" />
<path d="M76.5452 34.6319
L77.5129 34.6319
" />
<path d="M78.8433 34.9948
L78.7829 35.0553
" />
<path d="M78.7829 35.0553
L78.6014 35.1157
" />
<path d="M78.6014 35.1157
L78.4805 35.1157
" />
<path d="M78.4805 35.1157
L78.2991 35.0553
" />
<path d="M78.2991 35.0553
L78.1781 34.9343
" />
<path d="M78.1781 34.9343
L78.1176 34.8133
" />
<path d="M78.1176 34.8133
L78.0572 34.5714
" />
<path d="M78.0572 34.5714
L78.0572 34.3900
" />
<path d="M78.0572 34.3900
L78.1176 34.1481
" />
<path d="M78.1176 34.1481
L78.1781 34.0272
" />
<path d="M78.1781 34.0272
L78.2991 33.9062
" />
<path d="M78.2991 33.9062
L78.4805 33.8457
" />
<path d="M78.4805 33.8457
L78.6014 33.8457
" />
<path d="M78.6014 33.8457
L78.7829 33.9062
" />
<path d="M78.7829 33.9062
L78.8433 33.9667
" />
<path d="M79.3272 34.7529
L79.9319 34.7529
" />
<path d="M79.2062 35.1157
L79.6295 33.8457
" />
<path d="M79.6295 33.8457
L80.0529 35.1157
" />
<path d="M80.2948 33.8457
L81.0205 33.8457
" />
<path d="M80.6577 35.1157
L80.6577 33.8457
" />
<path d="M82.0486 33.8457
L81.4438 33.8457
" />
<path d="M81.4438 33.8457
L81.3834 34.4505
" />
<path d="M81.3834 34.4505
L81.4438 34.3900
" />
<path d="M81.4438 34.3900
L81.5648 34.3295
" />
<path d="M81.5648 34.3295
L81.8672 34.3295
" />
<path d="M81.8672 34.3295
L81.9881 34.3900
" />
<path d="M81.9881 34.3900
L82.0486 34.4505
" />
<path d="M82.0486 34.4505
L82.1091 34.5714
" />
<path d="M82.1091 34.5714
L82.1091 34.8738
" />
<path d="M82.1091 34.8738
L82.0486 34.9948
" />
<path d="M82.0486 34.9948
L81.9881 35.0553
" />
<path d="M81.9881 35.0553
L81.8672 35.1157
" />
<path d="M81.8672 35.1157
L81.5648 35.1157
" />
<path d="M81.5648 35.1157
L81.4438 35.0553
" />
<path d="M81.4438 35.0553
L81.3834 34.9948
" />
<path d="M83.3186 35.1157
L82.5929 35.1157
" />
<path d="M82.9557 35.1157
L82.9557 33.8457
" />
<path d="M82.9557 33.8457
L82.8348 34.0272
" />
<path d="M82.8348 34.0272
L82.7138 34.1481
" />
<path d="M82.7138 34.1481
L82.5929 34.2086
" />
<path d="M83.7419 33.8457
L84.5885 33.8457
" />
<path d="M84.5885 33.8457
L84.0443 35.1157
" />
<path d="M85.7376 35.1157
L85.0119 35.1157
" />
<path d="M85.3747 35.1157
L85.3747 33.8457
" />
<path d="M85.3747 33.8457
L85.2538 34.0272
" />
<path d="M85.2538 34.0272
L85.1328 34.1481
" />
<path d="M85.1328 34.1481
L85.0119 34.2086
" />
<path d="M86.1004 33.8457
L86.8261 33.8457
" />
<path d="M86.4633 35.1157
L86.4633 33.8457
" />
<path d="M87.6728 34.4505
L87.8542 34.5110
" />
<path d="M87.8542 34.5110
L87.9147 34.5714
" />
<path d="M87.9147 34.5714
L87.9751 34.6924
" />
<path d="M87.9751 34.6924
L87.9751 34.8738
" />
<path d="M87.9751 34.8738
L87.9147 34.9948
" />
<path d="M87.9147 34.9948
L87.8542 35.0553
" />
<path d="M87.8542 35.0553
L87.7332 35.1157
" />
<path d="M87.7332 35.1157
L87.2494 35.1157
" />
<path d="M87.2494 35.1157
L87.2494 33.8457
" />
<path d="M87.2494 33.8457
L87.6728 33.8457
" />
<path d="M87.6728 33.8457
L87.7937 33.9062
" />
<path d="M87.7937 33.9062
L87.8542 33.9667
" />
<path d="M87.8542 33.9667
L87.9147 34.0876
" />
<path d="M87.9147 34.0876
L87.9147 34.2086
" />
<path d="M87.9147 34.2086
L87.8542 34.3295
" />
<path d="M87.8542 34.3295
L87.7937 34.3900
" />
<path d="M87.7937 34.3900
L87.6728 34.4505
" />
<path d="M87.6728 34.4505
L87.2494 34.4505
" />
<path d="M88.5194 35.1157
L88.5194 33.8457
" />
<path d="M89.1242 34.6319
L90.0919 34.6319
" />
<path d="M91.3014 33.8457
L90.6966 33.8457
" />
<path d="M90.6966 33.8457
L90.6362 34.4505
" />
<path d="M90.6362 34.4505
L90.6966 34.3900
" />
<path d="M90.6966 34.3900
L90.8176 34.3295
" />
<path d="M90.8176 34.3295
L91.1200 34.3295
" />
<path d="M91.1200 34.3295
L91.2409 34.3900
" />
<path d="M91.2409 34.3900
L91.3014 34.4505
" />
<path d="M91.3014 34.4505
L91.3619 34.5714
" />
<path d="M91.3619 34.5714
L91.3619 34.8738
" />
<path d="M91.3619 34.8738
L91.3014 34.9948
" />
<path d="M91.3014 34.9948
L91.2409 35.0553
" />
<path d="M91.2409 35.0553
L91.1200 35.1157
" />
<path d="M91.1200 35.1157
L90.8176 35.1157
" />
<path d="M90.8176 35.1157
L90.6966 35.0553
" />
<path d="M90.6966 35.0553
L90.6362 34.9948
" />
<path d="M92.1480 33.8457
L92.2690 33.8457
" />
<path d="M92.2690 33.8457
L92.3899 33.9062
" />
<path d="M92.3899 33.9062
L92.4504 33.9667
" />
<path d="M92.4504 33.9667
L92.5109 34.0876
" />
<path d="M92.5109 34.0876
L92.5714 34.3295
" />
<path d="M92.5714 34.3295
L92.5714 34.6319
" />
<path d="M92.5714 34.6319
L92.5109 34.8738
" />
<path d="M92.5109 34.8738
L92.4504 34.9948
" />
<path d="M92.4504 34.9948
L92.3899 35.0553
" />
<path d="M92.3899 35.0553
L92.2690 35.1157
" />
<path d="M92.2690 35.1157
L92.1480 35.1157
" />
<path d="M92.1480 35.1157
L92.0271 35.0553
" />
<path d="M92.0271 35.0553
L91.9666 34.9948
" />
<path d="M91.9666 34.9948
L91.9061 34.8738
" />
<path d="M91.9061 34.8738
L91.8457 34.6319
" />
<path d="M91.8457 34.6319
L91.8457 34.3295
" />
<path d="M91.8457 34.3295
L91.9061 34.0876
" />
<path d="M91.9061 34.0876
L91.9666 33.9667
" />
<path d="M91.9666 33.9667
L92.0271 33.9062
" />
<path d="M92.0271 33.9062
L92.1480 33.8457
" />
<path d="M93.7809 33.9062
L93.6599 33.8457
" />
<path d="M93.6599 33.8457
L93.4785 33.8457
" />
<path d="M93.4785 33.8457
L93.2971 33.9062
" />
<path d="M93.2971 33.9062
L93.1761 34.0272
" />
<path d="M93.1761 34.0272
L93.1156 34.1481
" />
<path d="M93.1156 34.1481
L93.0552 34.3900
" />
<path d="M93.0552 34.3900
L93.0552 34.5714
" />
<path d="M93.0552 34.5714
L93.1156 34.8133
" />
<path d="M93.1156 34.8133
L93.1761 34.9343
" />
<path d="M93.1761 34.9343
L93.2971 35.0553
" />
<path d="M93.2971 35.0553
L93.4785 35.1157
" />
<path d="M93.4785 35.1157
L93.5994 35.1157
" />
<path d="M93.5994 35.1157
L93.7809 35.0553
" />
<path d="M93.7809 35.0553
L93.8413 34.9948
" />
<path d="M93.8413 34.9948
L93.8413 34.5714
" />
<path d="M93.8413 34.5714
L93.5994 34.5714
" />
<path d="M94.2042 33.8457
L94.9299 33.8457
" />
<path d="M94.5671 35.1157
L94.5671 33.8457
" />
<path d="M95.2323 33.8457
L96.0185 33.8457
" />
<path d="M96.0185 33.8457
L95.5951 34.3295
" />
<path d="M95.5951 34.3295
L95.7766 34.3295
" />
<path d="M95.7766 34.3295
L95.8975 34.3900
" />
<path d="M95.8975 34.3900
L95.9580 34.4505
" />
<path d="M95.9580 34.4505
L96.0185 34.5714
" />
<path d="M96.0185 34.5714
L96.0185 34.8738
" />
<path d="M96.0185 34.8738
L95.9580 34.9948
" />
<path d="M95.9580 34.9948
L95.8975 35.0553
" />
<path d="M95.8975 35.0553
L95.7766 35.1157
" />
<path d="M95.7766 35.1157
L95.4137 35.1157
" />
<path d="M95.4137 35.1157
L95.2928 35.0553
" />
<path d="M95.2928 35.0553
L95.2323 34.9948
" />
<path d="M96.2604 35.2367
L97.2280 35.2367
" />
<path d="M98.2560 34.9948
L98.1956 35.0553
" />
<path d="M98.1956 35.0553
L98.0141 35.1157
" />
<path d="M98.0141 35.1157
L97.8932 35.1157
" />
<path d="M97.8932 35.1157
L97.7118 35.0553
" />
<path d="M97.7118 35.0553
L97.5908 34.9343
" />
<path d="M97.5908 34.9343
L97.5303 34.8133
" />
<path d="M97.5303 34.8133
L97.4699 34.5714
" />
<path d="M97.4699 34.5714
L97.4699 34.3900
" />
<path d="M97.4699 34.3900
L97.5303 34.1481
" />
<path d="M97.5303 34.1481
L97.5908 34.0272
" />
<path d="M97.5908 34.0272
L97.7118 33.9062
" />
<path d="M97.7118 33.9062
L97.8932 33.8457
" />
<path d="M97.8932 33.8457
L98.0141 33.8457
" />
<path d="M98.0141 33.8457
L98.1956 33.9062
" />
<path d="M98.1956 33.9062
L98.2560 33.9667
" />
<path d="M99.4656 35.1157
L98.7399 35.1157
" />
<path d="M99.1027 35.1157
L99.1027 33.8457
" />
<path d="M99.1027 33.8457
L98.9818 34.0272
" />
<path d="M98.9818 34.0272
L98.8608 34.1481
" />
<path d="M98.8608 34.1481
L98.7399 34.2086
" />
<path d="M100.6146 33.8457
L100.0098 33.8457
" />
<path d="M100.0098 33.8457
L99.9494 34.4505
" />
<path d="M99.9494 34.4505
L100.0098 34.3900
" />
<path d="M100.0098 34.3900
L100.1308 34.3295
" />
<path d="M100.1308 34.3295
L100.4332 34.3295
" />
<path d="M100.4332 34.3295
L100.5541 34.3900
" />
<path d="M100.5541 34.3900
L100.6146 34.4505
" />
<path d="M100.6146 34.4505
L100.6751 34.5714
" />
<path d="M100.6751 34.5714
L100.6751 34.8738
" />
<path d="M100.6751 34.8738
L100.6146 34.9948
" />
<path d="M100.6146 34.9948
L100.5541 35.0553
" />
<path d="M100.5541 35.0553
L100.4332 35.1157
" />
<path d="M100.4332 35.1157
L100.1308 35.1157
" />
<path d="M100.1308 35.1157
L100.0098 35.0553
" />
<path d="M100.0098 35.0553
L99.9494 34.9948
" />
<path d="M101.7636 34.2691
L101.7636 35.1157
" />
<path d="M101.4612 33.7853
L101.1589 34.6924
" />
<path d="M101.1589 34.6924
L101.9450 34.6924
" />
<path d="M102.3079 33.8457
L103.1545 33.8457
" />
<path d="M103.1545 33.8457
L102.6103 35.1157
" />
<path d="M103.5174 33.8457
L104.3640 33.8457
" />
<path d="M104.3640 33.8457
L103.8198 35.1157
" />
<path d="M104.7269 33.8457
L105.5735 33.8457
" />
<path d="M105.5735 33.8457
L105.0293 35.1157
" />
<path d="M106.0573 34.9948
L106.1178 35.0553
" />
<path d="M106.1178 35.0553
L106.0573 35.1157
" />
<path d="M106.0573 35.1157
L105.9969 35.0553
" />
<path d="M105.9969 35.0553
L106.0573 34.9948
" />
<path d="M106.0573 34.9948
L106.0573 35.1157
" />
<path d="M106.6621 34.2691
L106.6621 35.5391
" />
<path d="M106.6621 34.3295
L106.7831 34.2691
" />
<path d="M106.7831 34.2691
L107.0250 34.2691
" />
<path d="M107.0250 34.2691
L107.1459 34.3295
" />
<path d="M107.1459 34.3295
L107.2064 34.3900
" />
<path d="M107.2064 34.3900
L107.2669 34.5110
" />
<path d="M107.2669 34.5110
L107.2669 34.8738
" />
<path d="M107.2669 34.8738
L107.2064 34.9948
" />
<path d="M107.2064 34.9948
L107.1459 35.0553
" />
<path d="M107.1459 35.0553
L107.0250 35.1157
" />
<path d="M107.0250 35.1157
L106.7831 35.1157
" />
<path d="M106.7831 35.1157
L106.6621 35.0553
" />
<path d="M108.3554 35.1157
L108.3554 33.8457
" />
<path d="M108.3554 35.0553
L108.2345 35.1157
" />
<path d="M108.2345 35.1157
L107.9926 35.1157
" />
<path d="M107.9926 35.1157
L107.8716 35.0553
" />
<path d="M107.8716 35.0553
L107.8111 34.9948
" />
<path d="M107.8111 34.9948
L107.7507 34.8738
" />
<path d="M107.7507 34.8738
L107.7507 34.5110
" />
<path d="M107.7507 34.5110
L107.8111 34.3900
" />
<path d="M107.8111 34.3900
L107.8716 34.3295
" />
<path d="M107.8716 34.3295
L107.9926 34.2691
" />
<path d="M107.9926 34.2691
L108.2345 34.2691
" />
<path d="M108.2345 34.2691
L108.3554 34.3295
" />
<path d="M108.7787 34.2691
L109.2625 34.2691
" />
<path d="M108.9601 35.1157
L108.9601 34.0272
" />
<path d="M108.9601 34.0272
L109.0206 33.9062
" />
<path d="M109.0206 33.9062
L109.1416 33.8457
" />
<path d="M109.1416 33.8457
L109.2625 33.8457
" />
</g><text x="59.7027" y="30.0832"
textLength="8.6700" font-size="1.6933" lengthAdjust="spacingAndGlyphs"
text-anchor="middle" opacity="0">C154777</text>
<g class="stroked-text"><desc>C154777</desc>
<path d="M56.4672 29.9148
L56.4068 29.9753
" />
<path d="M56.4068 29.9753
L56.2253 30.0357
" />
<path d="M56.2253 30.0357
L56.1044 30.0357
" />
<path d="M56.1044 30.0357
L55.9230 29.9753
" />
<path d="M55.9230 29.9753
L55.8020 29.8543
" />
<path d="M55.8020 29.8543
L55.7415 29.7333
" />
<path d="M55.7415 29.7333
L55.6811 29.4914
" />
<path d="M55.6811 29.4914
L55.6811 29.3100
" />
<path d="M55.6811 29.3100
L55.7415 29.0681
" />
<path d="M55.7415 29.0681
L55.8020 28.9472
" />
<path d="M55.8020 28.9472
L55.9230 28.8262
" />
<path d="M55.9230 28.8262
L56.1044 28.7657
" />
<path d="M56.1044 28.7657
L56.2253 28.7657
" />
<path d="M56.2253 28.7657
L56.4068 28.8262
" />
<path d="M56.4068 28.8262
L56.4672 28.8867
" />
<path d="M57.6768 30.0357
L56.9511 30.0357
" />
<path d="M57.3139 30.0357
L57.3139 28.7657
" />
<path d="M57.3139 28.7657
L57.1930 28.9472
" />
<path d="M57.1930 28.9472
L57.0720 29.0681
" />
<path d="M57.0720 29.0681
L56.9511 29.1286
" />
<path d="M58.8258 28.7657
L58.2210 28.7657
" />
<path d="M58.2210 28.7657
L58.1606 29.3705
" />
<path d="M58.1606 29.3705
L58.2210 29.3100
" />
<path d="M58.2210 29.3100
L58.3420 29.2495
" />
<path d="M58.3420 29.2495
L58.6444 29.2495
" />
<path d="M58.6444 29.2495
L58.7653 29.3100
" />
<path d="M58.7653 29.3100
L58.8258 29.3705
" />
<path d="M58.8258 29.3705
L58.8863 29.4914
" />
<path d="M58.8863 29.4914
L58.8863 29.7938
" />
<path d="M58.8863 29.7938
L58.8258 29.9148
" />
<path d="M58.8258 29.9148
L58.7653 29.9753
" />
<path d="M58.7653 29.9753
L58.6444 30.0357
" />
<path d="M58.6444 30.0357
L58.3420 30.0357
" />
<path d="M58.3420 30.0357
L58.2210 29.9753
" />
<path d="M58.2210 29.9753
L58.1606 29.9148
" />
<path d="M59.9748 29.1891
L59.9748 30.0357
" />
<path d="M59.6724 28.7053
L59.3701 29.6124
" />
<path d="M59.3701 29.6124
L60.1562 29.6124
" />
<path d="M60.5191 28.7657
L61.3657 28.7657
" />
<path d="M61.3657 28.7657
L60.8215 30.0357
" />
<path d="M61.7286 28.7657
L62.5752 28.7657
" />
<path d="M62.5752 28.7657
L62.0310 30.0357
" />
<path d="M62.9381 28.7657
L63.7847 28.7657
" />
<path d="M63.7847 28.7657
L63.2405 30.0357
" />
</g></g> 
</svg>
