<?xml version="1.0" standalone="no"?>
 <!DOCTYPE svg PUBLIC "-//W3C//DTD SVG 1.1//EN" 
 "http://www.w3.org/Graphics/SVG/1.1/DTD/svg11.dtd"> 
<svg
  xmlns:svg="http://www.w3.org/2000/svg"
  xmlns="http://www.w3.org/2000/svg"
  xmlns:xlink="http://www.w3.org/1999/xlink"
  version="1.1"
  width="81.3054mm" height="24.3840mm" viewBox="0.0000 0.0000 81.3054 24.3840">
<title>SVG Image created as working.svg date 2023/08/01 00:03:15 </title>
  <desc>Image generated by Eeschema-SVG </desc>
<g style="fill:#000000; fill-opacity:1.0000;stroke:#000000; stroke-opacity:1.0000;
stroke-linecap:round; stroke-linejoin:round;"
 transform="translate(0 0) scale(1 1)">
</g>
<g style="fill:#840000; fill-opacity:0.0; 
stroke:#840000; stroke-width:0.0000; stroke-opacity:1; 
stroke-linecap:round; stroke-linejoin:round;">
</g>
<g style="fill:#FFFFC2; fill-opacity:0.0; 
stroke:#FFFFC2; stroke-width:0.0000; stroke-opacity:1; 
stroke-linecap:round; stroke-linejoin:round;">
</g>
<g style="fill:#FFFFC2; fill-opacity:1.0000; 
stroke:#FFFFC2; stroke-width:0.0000; stroke-opacity:1; 
stroke-linecap:round; stroke-linejoin:round;">
<rect x="31.762800" y="4.572100" width="25.400000" height="15.240000" rx="0.000000" />
</g>
<g style="fill:#840084; fill-opacity:1.0000; 
stroke:#840084; stroke-width:0.0000; stroke-opacity:1; 
stroke-linecap:round; stroke-linejoin:round;">
</g>
<g style="fill:#840000; fill-opacity:1.0000; 
stroke:#840000; stroke-width:0.0000; stroke-opacity:1; 
stroke-linecap:round; stroke-linejoin:round;">
</g>
<g style="fill:#840000; fill-opacity:0.0; 
stroke:#840000; stroke-width:0.2540; stroke-opacity:1; 
stroke-linecap:round; stroke-linejoin:round;">
<rect x="31.762800" y="4.572100" width="25.400000" height="15.240000" rx="0.000000" />
</g>
<g style="fill:#840000; fill-opacity:0.0; 
stroke:#840000; stroke-width:0.1524; stroke-opacity:1; 
stroke-linecap:round; stroke-linejoin:round;">
<rect x="38.112800" y="6.350100" width="5.080000" height="4.572000" rx="0.000000" />
<path style="fill:#840000; fill-opacity:0.0; 
stroke:#840000; stroke-width:0.1524; stroke-opacity:1; 
stroke-linecap:round; stroke-linejoin:round;fill:none"
d="M 38.1128,9.6521
37.3508,9.6521
" /> 
<path style="fill:#840000; fill-opacity:0.0; 
stroke:#840000; stroke-width:0.1524; stroke-opacity:1; 
stroke-linecap:round; stroke-linejoin:round;fill:none"
d="M 38.1128,7.1121
37.3508,7.1121
" /> 
<path style="fill:#840000; fill-opacity:0.0; 
stroke:#840000; stroke-width:0.1524; stroke-opacity:1; 
stroke-linecap:round; stroke-linejoin:round;fill:none"
d="M 43.1928,8.6361
44.2088,8.6361
" /> 
<path style="fill:#840000; fill-opacity:0.0; 
stroke:#840000; stroke-width:0.1524; stroke-opacity:1; 
stroke-linecap:round; stroke-linejoin:round;fill:none"
d="M 40.6528,10.9221
40.6528,12.1921
37.3508,12.1921
" /> 
<path style="fill:#840000; fill-opacity:0.0; 
stroke:#840000; stroke-width:0.1524; stroke-opacity:1; 
stroke-linecap:round; stroke-linejoin:round;fill:none"
d="M 46.4948,10.9221
44.9708,10.9221
44.9708,8.6361
44.2088,8.6361
" /> 
<path style="fill:#840000; fill-opacity:0.0; 
stroke:#840000; stroke-width:0.1524; stroke-opacity:1; 
stroke-linecap:round; stroke-linejoin:round;fill:none"
d="M 50.3048,12.1921
46.4948,9.6521
46.4948,14.7321
Z" /> 
<path style="fill:#840000; fill-opacity:0.0; 
stroke:#840000; stroke-width:0.1524; stroke-opacity:1; 
stroke-linecap:round; stroke-linejoin:round;fill:none"
d="M 46.4948,13.4621
44.9708,13.4621
40.6528,13.4621
40.6528,17.2721
37.8588,17.2721
" /> 
<path style="fill:#840000; fill-opacity:0.0; 
stroke:#840000; stroke-width:0.1524; stroke-opacity:1; 
stroke-linecap:round; stroke-linejoin:round;fill:none"
d="M 36.3348,9.6521
37.3508,9.6521
" /> 
<path style="fill:#840000; fill-opacity:0.0; 
stroke:#840000; stroke-width:0.1524; stroke-opacity:1; 
stroke-linecap:round; stroke-linejoin:round;fill:none"
d="M 37.3508,12.1921
36.3348,12.1921
" /> 
<path style="fill:#840000; fill-opacity:0.0; 
stroke:#840000; stroke-width:0.1524; stroke-opacity:1; 
stroke-linecap:round; stroke-linejoin:round;fill:none"
d="M 37.3508,7.1121
36.3348,7.1121
" /> 
<path style="fill:#840000; fill-opacity:0.0; 
stroke:#840000; stroke-width:0.1524; stroke-opacity:1; 
stroke-linecap:round; stroke-linejoin:round;fill:none"
d="M 37.8588,17.2721
36.3348,17.2721
" /> 
<path style="fill:#840000; fill-opacity:0.0; 
stroke:#840000; stroke-width:0.1524; stroke-opacity:1; 
stroke-linecap:round; stroke-linejoin:round;fill:none"
d="M 50.3048,12.1921
51.0668,12.1921
" /> 
</g>
<g style="fill:#840000; fill-opacity:0.0; 
stroke:#840000; stroke-width:0.1270; stroke-opacity:1; 
stroke-linecap:round; stroke-linejoin:round;">
<text x="47.2568" y="11.4301"
textLength="1.3723" font-size="1.3546" lengthAdjust="spacingAndGlyphs"
text-anchor="middle" opacity="0">+</text>
<g class="stroked-text"><desc>+</desc>
<path d="M46.8698 11.0051
L47.6439 11.0051
" />
<path d="M47.2568 11.3921
L47.2568 10.6180
" />
</g><text x="47.2568" y="13.7161"
textLength="1.3723" font-size="1.3546" lengthAdjust="spacingAndGlyphs"
text-anchor="middle" opacity="0">-</text>
<g class="stroked-text"><desc>-</desc>
<path d="M46.8698 13.2911
L47.6439 13.2911
" />
</g></g>
<g style="fill:#840000; fill-opacity:0.0; 
stroke:#840000; stroke-width:0.1588; stroke-opacity:1; 
stroke-linecap:round; stroke-linejoin:round;">
<text x="40.6528" y="9.2711"
textLength="4.1344" font-size="1.6933" lengthAdjust="spacingAndGlyphs"
text-anchor="middle" opacity="0">MUX</text>
<g class="stroked-text"><desc>MUX</desc>
<path d="M38.9594 9.2236
L38.9594 7.9536
" />
<path d="M38.9594 7.9536
L39.3828 8.8608
" />
<path d="M39.3828 8.8608
L39.8061 7.9536
" />
<path d="M39.8061 7.9536
L39.8061 9.2236
" />
<path d="M40.4108 7.9536
L40.4108 8.9817
" />
<path d="M40.4108 8.9817
L40.4713 9.1027
" />
<path d="M40.4713 9.1027
L40.5318 9.1632
" />
<path d="M40.5318 9.1632
L40.6527 9.2236
" />
<path d="M40.6527 9.2236
L40.8946 9.2236
" />
<path d="M40.8946 9.2236
L41.0156 9.1632
" />
<path d="M41.0156 9.1632
L41.0761 9.1027
" />
<path d="M41.0761 9.1027
L41.1365 8.9817
" />
<path d="M41.1365 8.9817
L41.1365 7.9536
" />
<path d="M41.6204 7.9536
L42.4670 9.2236
" />
<path d="M42.4670 7.9536
L41.6204 9.2236
" />
</g></g>
<g style="fill:#840000; fill-opacity:0.0; 
stroke:#840000; stroke-width:0.1524; stroke-opacity:1; 
stroke-linecap:round; stroke-linejoin:round;">
<path d="M31.7628 12.1921
L29.2228 12.1921
" />
</g>
<g style="fill:#006464; fill-opacity:0.0; 
stroke:#006464; stroke-width:0.1524; stroke-opacity:1; 
stroke-linecap:round; stroke-linejoin:round;">
<text x="32.2708" y="12.8271"
textLength="2.4251" font-size="1.6933" lengthAdjust="spacingAndGlyphs"
text-anchor="start" opacity="0">A0</text>
<g class="stroked-text"><desc>A0</desc>
<path d="M32.5127 12.4168
L33.1174 12.4168
" />
<path d="M32.3917 12.7796
L32.8150 11.5096
" />
<path d="M32.8150 11.5096
L33.2384 12.7796
" />
<path d="M33.9036 11.5096
L34.0246 11.5096
" />
<path d="M34.0246 11.5096
L34.1455 11.5701
" />
<path d="M34.1455 11.5701
L34.2060 11.6306
" />
<path d="M34.2060 11.6306
L34.2665 11.7515
" />
<path d="M34.2665 11.7515
L34.3270 11.9934
" />
<path d="M34.3270 11.9934
L34.3270 12.2958
" />
<path d="M34.3270 12.2958
L34.2665 12.5377
" />
<path d="M34.2665 12.5377
L34.2060 12.6587
" />
<path d="M34.2060 12.6587
L34.1455 12.7192
" />
<path d="M34.1455 12.7192
L34.0246 12.7796
" />
<path d="M34.0246 12.7796
L33.9036 12.7796
" />
<path d="M33.9036 12.7796
L33.7827 12.7192
" />
<path d="M33.7827 12.7192
L33.7222 12.6587
" />
<path d="M33.7222 12.6587
L33.6617 12.5377
" />
<path d="M33.6617 12.5377
L33.6013 12.2958
" />
<path d="M33.6013 12.2958
L33.6013 11.9934
" />
<path d="M33.6013 11.9934
L33.6617 11.7515
" />
<path d="M33.6617 11.7515
L33.7222 11.6306
" />
<path d="M33.7222 11.6306
L33.7827 11.5701
" />
<path d="M33.7827 11.5701
L33.9036 11.5096
" />
</g></g>
<g style="fill:#A90000; fill-opacity:0.0; 
stroke:#A90000; stroke-width:0.1524; stroke-opacity:1; 
stroke-linecap:round; stroke-linejoin:round;">
<text x="30.4928" y="11.9381"
textLength="1.3365" font-size="1.6933" lengthAdjust="spacingAndGlyphs"
text-anchor="middle" opacity="0">1</text>
<g class="stroked-text"><desc>1</desc>
<path d="M30.8557 11.7826
L30.1300 11.7826
" />
<path d="M30.4928 11.7826
L30.4928 10.5126
" />
<path d="M30.4928 10.5126
L30.3719 10.6941
" />
<path d="M30.3719 10.6941
L30.2509 10.8150
" />
<path d="M30.2509 10.8150
L30.1300 10.8755
" />
</g></g>
<g style="fill:#840000; fill-opacity:0.0; 
stroke:#840000; stroke-width:0.1524; stroke-opacity:1; 
stroke-linecap:round; stroke-linejoin:round;">
<path d="M52.0828 19.8121
L52.0828 22.3521
" />
</g>
<g style="fill:#006464; fill-opacity:0.0; 
stroke:#006464; stroke-width:0.1524; stroke-opacity:1; 
stroke-linecap:round; stroke-linejoin:round;">
<g transform="rotate(-90.000000 52.0828 19.3041)">
<text x="52.0828" y="19.9391"
textLength="3.9975" font-size="1.6933" lengthAdjust="spacingAndGlyphs"
text-anchor="start" opacity="0">GND</text>
</g>
<g class="stroked-text"><desc>GND</desc>
<path d="M51.4608 18.3364
L51.4003 18.4574
" />
<path d="M51.4003 18.4574
L51.4003 18.6388
" />
<path d="M51.4003 18.6388
L51.4608 18.8202
" />
<path d="M51.4608 18.8202
L51.5818 18.9412
" />
<path d="M51.5818 18.9412
L51.7027 19.0017
" />
<path d="M51.7027 19.0017
L51.9446 19.0621
" />
<path d="M51.9446 19.0621
L52.1260 19.0621
" />
<path d="M52.1260 19.0621
L52.3679 19.0017
" />
<path d="M52.3679 19.0017
L52.4889 18.9412
" />
<path d="M52.4889 18.9412
L52.6099 18.8202
" />
<path d="M52.6099 18.8202
L52.6703 18.6388
" />
<path d="M52.6703 18.6388
L52.6703 18.5179
" />
<path d="M52.6703 18.5179
L52.6099 18.3364
" />
<path d="M52.6099 18.3364
L52.5494 18.2760
" />
<path d="M52.5494 18.2760
L52.1260 18.2760
" />
<path d="M52.1260 18.2760
L52.1260 18.5179
" />
<path d="M52.6703 17.7317
L51.4003 17.7317
" />
<path d="M51.4003 17.7317
L52.6703 17.0060
" />
<path d="M52.6703 17.0060
L51.4003 17.0060
" />
<path d="M52.6703 16.4012
L51.4003 16.4012
" />
<path d="M51.4003 16.4012
L51.4003 16.0988
" />
<path d="M51.4003 16.0988
L51.4608 15.9174
" />
<path d="M51.4608 15.9174
L51.5818 15.7964
" />
<path d="M51.5818 15.7964
L51.7027 15.7359
" />
<path d="M51.7027 15.7359
L51.9446 15.6755
" />
<path d="M51.9446 15.6755
L52.1260 15.6755
" />
<path d="M52.1260 15.6755
L52.3679 15.7359
" />
<path d="M52.3679 15.7359
L52.4889 15.7964
" />
<path d="M52.4889 15.7964
L52.6099 15.9174
" />
<path d="M52.6099 15.9174
L52.6703 16.0988
" />
<path d="M52.6703 16.0988
L52.6703 16.4012
" />
</g></g>
<g style="fill:#A90000; fill-opacity:0.0; 
stroke:#A90000; stroke-width:0.1524; stroke-opacity:1; 
stroke-linecap:round; stroke-linejoin:round;">
<g transform="rotate(-90.000000 51.8288 21.0821)">
<text x="51.8288" y="21.0821"
textLength="1.3365" font-size="1.6933" lengthAdjust="spacingAndGlyphs"
text-anchor="middle" opacity="0">2</text>
</g>
<g class="stroked-text"><desc>2</desc>
<path d="M50.5243 21.4448
L50.4638 21.3844
" />
<path d="M50.4638 21.3844
L50.4033 21.2634
" />
<path d="M50.4033 21.2634
L50.4033 20.9610
" />
<path d="M50.4033 20.9610
L50.4638 20.8401
" />
<path d="M50.4638 20.8401
L50.5243 20.7796
" />
<path d="M50.5243 20.7796
L50.6452 20.7191
" />
<path d="M50.6452 20.7191
L50.7662 20.7191
" />
<path d="M50.7662 20.7191
L50.9476 20.7796
" />
<path d="M50.9476 20.7796
L51.6733 21.5053
" />
<path d="M51.6733 21.5053
L51.6733 20.7191
" />
</g></g>
<g style="fill:#840000; fill-opacity:0.0; 
stroke:#840000; stroke-width:0.1524; stroke-opacity:1; 
stroke-linecap:round; stroke-linejoin:round;">
<path d="M47.0028 19.8121
L47.0028 22.3521
" />
</g>
<g style="fill:#006464; fill-opacity:0.0; 
stroke:#006464; stroke-width:0.1524; stroke-opacity:1; 
stroke-linecap:round; stroke-linejoin:round;">
<g transform="rotate(-90.000000 47.0028 19.3041)">
<text x="47.0028" y="19.9391"
textLength="2.7880" font-size="1.6933" lengthAdjust="spacingAndGlyphs"
text-anchor="start" opacity="0">V-</text>
</g>
<g class="stroked-text"><desc>V-</desc>
<path d="M46.3203 19.1831
L47.5903 18.7598
" />
<path d="M47.5903 18.7598
L46.3203 18.3364
" />
<path d="M47.1065 17.9131
L47.1065 16.9455
" />
</g></g>
<g style="fill:#A90000; fill-opacity:0.0; 
stroke:#A90000; stroke-width:0.1524; stroke-opacity:1; 
stroke-linecap:round; stroke-linejoin:round;">
<g transform="rotate(-90.000000 46.7488 21.0821)">
<text x="46.7488" y="21.0821"
textLength="1.3365" font-size="1.6933" lengthAdjust="spacingAndGlyphs"
text-anchor="middle" opacity="0">3</text>
</g>
<g class="stroked-text"><desc>3</desc>
<path d="M45.3233 21.5053
L45.3233 20.7191
" />
<path d="M45.3233 20.7191
L45.8071 21.1425
" />
<path d="M45.8071 21.1425
L45.8071 20.9610
" />
<path d="M45.8071 20.9610
L45.8676 20.8401
" />
<path d="M45.8676 20.8401
L45.9281 20.7796
" />
<path d="M45.9281 20.7796
L46.0490 20.7191
" />
<path d="M46.0490 20.7191
L46.3514 20.7191
" />
<path d="M46.3514 20.7191
L46.4724 20.7796
" />
<path d="M46.4724 20.7796
L46.5329 20.8401
" />
<path d="M46.5329 20.8401
L46.5933 20.9610
" />
<path d="M46.5933 20.9610
L46.5933 21.3239
" />
<path d="M46.5933 21.3239
L46.5329 21.4448
" />
<path d="M46.5329 21.4448
L46.4724 21.5053
" />
</g></g>
<g style="fill:#840000; fill-opacity:0.0; 
stroke:#840000; stroke-width:0.1524; stroke-opacity:1; 
stroke-linecap:round; stroke-linejoin:round;">
<path d="M31.7628 7.1121
L29.2228 7.1121
" />
</g>
<g style="fill:#006464; fill-opacity:0.0; 
stroke:#006464; stroke-width:0.1524; stroke-opacity:1; 
stroke-linecap:round; stroke-linejoin:round;">
<text x="32.2708" y="7.7471"
textLength="3.2718" font-size="1.6933" lengthAdjust="spacingAndGlyphs"
text-anchor="start" opacity="0">IN0</text>
<g class="stroked-text"><desc>IN0</desc>
<path d="M32.5731 7.6996
L32.5731 6.4296
" />
<path d="M33.1779 7.6996
L33.1779 6.4296
" />
<path d="M33.1779 6.4296
L33.9036 7.6996
" />
<path d="M33.9036 7.6996
L33.9036 6.4296
" />
<path d="M34.7503 6.4296
L34.8713 6.4296
" />
<path d="M34.8713 6.4296
L34.9922 6.4901
" />
<path d="M34.9922 6.4901
L35.0527 6.5506
" />
<path d="M35.0527 6.5506
L35.1132 6.6715
" />
<path d="M35.1132 6.6715
L35.1737 6.9134
" />
<path d="M35.1737 6.9134
L35.1737 7.2158
" />
<path d="M35.1737 7.2158
L35.1132 7.4577
" />
<path d="M35.1132 7.4577
L35.0527 7.5787
" />
<path d="M35.0527 7.5787
L34.9922 7.6392
" />
<path d="M34.9922 7.6392
L34.8713 7.6996
" />
<path d="M34.8713 7.6996
L34.7503 7.6996
" />
<path d="M34.7503 7.6996
L34.6294 7.6392
" />
<path d="M34.6294 7.6392
L34.5689 7.5787
" />
<path d="M34.5689 7.5787
L34.5084 7.4577
" />
<path d="M34.5084 7.4577
L34.4480 7.2158
" />
<path d="M34.4480 7.2158
L34.4480 6.9134
" />
<path d="M34.4480 6.9134
L34.5084 6.6715
" />
<path d="M34.5084 6.6715
L34.5689 6.5506
" />
<path d="M34.5689 6.5506
L34.6294 6.4901
" />
<path d="M34.6294 6.4901
L34.7503 6.4296
" />
</g></g>
<g style="fill:#A90000; fill-opacity:0.0; 
stroke:#A90000; stroke-width:0.1524; stroke-opacity:1; 
stroke-linecap:round; stroke-linejoin:round;">
<text x="30.4928" y="6.8581"
textLength="1.3365" font-size="1.6933" lengthAdjust="spacingAndGlyphs"
text-anchor="middle" opacity="0">4</text>
<g class="stroked-text"><desc>4</desc>
<path d="M30.7347 5.8560
L30.7347 6.7026
" />
<path d="M30.4323 5.3722
L30.1300 6.2793
" />
<path d="M30.1300 6.2793
L30.9161 6.2793
" />
</g></g>
<g style="fill:#840000; fill-opacity:0.0; 
stroke:#840000; stroke-width:0.1524; stroke-opacity:1; 
stroke-linecap:round; stroke-linejoin:round;">
<path d="M31.7628 9.6521
L29.2228 9.6521
" />
</g>
<g style="fill:#006464; fill-opacity:0.0; 
stroke:#006464; stroke-width:0.1524; stroke-opacity:1; 
stroke-linecap:round; stroke-linejoin:round;">
<text x="32.2708" y="10.2871"
textLength="3.2718" font-size="1.6933" lengthAdjust="spacingAndGlyphs"
text-anchor="start" opacity="0">IN1</text>
<g class="stroked-text"><desc>IN1</desc>
<path d="M32.5731 10.2396
L32.5731 8.9696
" />
<path d="M33.1779 10.2396
L33.1779 8.9696
" />
<path d="M33.1779 8.9696
L33.9036 10.2396
" />
<path d="M33.9036 10.2396
L33.9036 8.9696
" />
<path d="M35.1737 10.2396
L34.4480 10.2396
" />
<path d="M34.8108 10.2396
L34.8108 8.9696
" />
<path d="M34.8108 8.9696
L34.6899 9.1511
" />
<path d="M34.6899 9.1511
L34.5689 9.2720
" />
<path d="M34.5689 9.2720
L34.4480 9.3325
" />
</g></g>
<g style="fill:#A90000; fill-opacity:0.0; 
stroke:#A90000; stroke-width:0.1524; stroke-opacity:1; 
stroke-linecap:round; stroke-linejoin:round;">
<text x="30.4928" y="9.3981"
textLength="1.3365" font-size="1.6933" lengthAdjust="spacingAndGlyphs"
text-anchor="middle" opacity="0">5</text>
<g class="stroked-text"><desc>5</desc>
<path d="M30.7952 7.9726
L30.1904 7.9726
" />
<path d="M30.1904 7.9726
L30.1300 8.5774
" />
<path d="M30.1300 8.5774
L30.1904 8.5169
" />
<path d="M30.1904 8.5169
L30.3114 8.4564
" />
<path d="M30.3114 8.4564
L30.6138 8.4564
" />
<path d="M30.6138 8.4564
L30.7347 8.5169
" />
<path d="M30.7347 8.5169
L30.7952 8.5774
" />
<path d="M30.7952 8.5774
L30.8557 8.6983
" />
<path d="M30.8557 8.6983
L30.8557 9.0007
" />
<path d="M30.8557 9.0007
L30.7952 9.1217
" />
<path d="M30.7952 9.1217
L30.7347 9.1822
" />
<path d="M30.7347 9.1822
L30.6138 9.2426
" />
<path d="M30.6138 9.2426
L30.3114 9.2426
" />
<path d="M30.3114 9.2426
L30.1904 9.1822
" />
<path d="M30.1904 9.1822
L30.1300 9.1217
" />
</g></g>
<g style="fill:#840000; fill-opacity:0.0; 
stroke:#840000; stroke-width:0.1524; stroke-opacity:1; 
stroke-linecap:round; stroke-linejoin:round;">
<path d="M47.0028 4.5721
L47.0028 2.0321
" />
</g>
<g style="fill:#006464; fill-opacity:0.0; 
stroke:#006464; stroke-width:0.1524; stroke-opacity:1; 
stroke-linecap:round; stroke-linejoin:round;">
<g transform="rotate(-90.000000 47.0028 5.0801)">
<text x="47.0028" y="5.7151"
textLength="2.7880" font-size="1.6933" lengthAdjust="spacingAndGlyphs"
text-anchor="end" opacity="0">V+</text>
</g>
<g class="stroked-text"><desc>V+</desc>
<path d="M46.3203 7.6201
L47.5903 7.1968
" />
<path d="M47.5903 7.1968
L46.3203 6.7734
" />
<path d="M47.1065 6.3501
L47.1065 5.3825
" />
<path d="M47.5903 5.8663
L46.6227 5.8663
" />
</g></g>
<g style="fill:#A90000; fill-opacity:0.0; 
stroke:#A90000; stroke-width:0.1524; stroke-opacity:1; 
stroke-linecap:round; stroke-linejoin:round;">
<g transform="rotate(-90.000000 46.7488 3.3021)">
<text x="46.7488" y="3.3021"
textLength="1.3365" font-size="1.6933" lengthAdjust="spacingAndGlyphs"
text-anchor="middle" opacity="0">6</text>
</g>
<g class="stroked-text"><desc>6</desc>
<path d="M45.3233 3.0601
L45.3233 3.3020
" />
<path d="M45.3233 3.3020
L45.3838 3.4229
" />
<path d="M45.3838 3.4229
L45.4443 3.4834
" />
<path d="M45.4443 3.4834
L45.6257 3.6044
" />
<path d="M45.6257 3.6044
L45.8676 3.6648
" />
<path d="M45.8676 3.6648
L46.3514 3.6648
" />
<path d="M46.3514 3.6648
L46.4724 3.6044
" />
<path d="M46.4724 3.6044
L46.5329 3.5439
" />
<path d="M46.5329 3.5439
L46.5933 3.4229
" />
<path d="M46.5933 3.4229
L46.5933 3.1810
" />
<path d="M46.5933 3.1810
L46.5329 3.0601
" />
<path d="M46.5329 3.0601
L46.4724 2.9996
" />
<path d="M46.4724 2.9996
L46.3514 2.9391
" />
<path d="M46.3514 2.9391
L46.0490 2.9391
" />
<path d="M46.0490 2.9391
L45.9281 2.9996
" />
<path d="M45.9281 2.9996
L45.8676 3.0601
" />
<path d="M45.8676 3.0601
L45.8071 3.1810
" />
<path d="M45.8071 3.1810
L45.8071 3.4229
" />
<path d="M45.8071 3.4229
L45.8676 3.5439
" />
<path d="M45.8676 3.5439
L45.9281 3.6044
" />
<path d="M45.9281 3.6044
L46.0490 3.6648
" />
</g></g>
<g style="fill:#840000; fill-opacity:0.0; 
stroke:#840000; stroke-width:0.1524; stroke-opacity:1; 
stroke-linecap:round; stroke-linejoin:round;">
<path d="M31.7628 17.2721
L29.2228 17.2721
" />
</g>
<g style="fill:#006464; fill-opacity:0.0; 
stroke:#006464; stroke-width:0.1524; stroke-opacity:1; 
stroke-linecap:round; stroke-linejoin:round;">
<text x="32.2708" y="17.9071"
textLength="3.6347" font-size="1.6933" lengthAdjust="spacingAndGlyphs"
text-anchor="start" opacity="0">IN-</text>
<g class="stroked-text"><desc>IN-</desc>
<path d="M32.5731 17.8596
L32.5731 16.5896
" />
<path d="M33.1779 17.8596
L33.1779 16.5896
" />
<path d="M33.1779 16.5896
L33.9036 17.8596
" />
<path d="M33.9036 17.8596
L33.9036 16.5896
" />
<path d="M34.5084 17.3758
L35.4761 17.3758
" />
</g></g>
<g style="fill:#A90000; fill-opacity:0.0; 
stroke:#A90000; stroke-width:0.1524; stroke-opacity:1; 
stroke-linecap:round; stroke-linejoin:round;">
<text x="30.4928" y="17.0181"
textLength="1.3365" font-size="1.6933" lengthAdjust="spacingAndGlyphs"
text-anchor="middle" opacity="0">7</text>
<g class="stroked-text"><desc>7</desc>
<path d="M30.0695 15.5926
L30.9161 15.5926
" />
<path d="M30.9161 15.5926
L30.3719 16.8626
" />
</g></g>
<g style="fill:#840000; fill-opacity:0.0; 
stroke:#840000; stroke-width:0.1524; stroke-opacity:1; 
stroke-linecap:round; stroke-linejoin:round;">
<path d="M57.1628 12.1921
L59.7028 12.1921
" />
</g>
<g style="fill:#006464; fill-opacity:0.0; 
stroke:#006464; stroke-width:0.1524; stroke-opacity:1; 
stroke-linecap:round; stroke-linejoin:round;">
<text x="56.6548" y="12.8271"
textLength="4.8442" font-size="1.6933" lengthAdjust="spacingAndGlyphs"
text-anchor="end" opacity="0">VOUT</text>
<g class="stroked-text"><desc>VOUT</desc>
<path d="M52.0585 11.5096
L52.4818 12.7796
" />
<path d="M52.4818 12.7796
L52.9052 11.5096
" />
<path d="M53.5704 11.5096
L53.8123 11.5096
" />
<path d="M53.8123 11.5096
L53.9333 11.5701
" />
<path d="M53.9333 11.5701
L54.0542 11.6911
" />
<path d="M54.0542 11.6911
L54.1147 11.9330
" />
<path d="M54.1147 11.9330
L54.1147 12.3563
" />
<path d="M54.1147 12.3563
L54.0542 12.5982
" />
<path d="M54.0542 12.5982
L53.9333 12.7192
" />
<path d="M53.9333 12.7192
L53.8123 12.7796
" />
<path d="M53.8123 12.7796
L53.5704 12.7796
" />
<path d="M53.5704 12.7796
L53.4495 12.7192
" />
<path d="M53.4495 12.7192
L53.3285 12.5982
" />
<path d="M53.3285 12.5982
L53.2681 12.3563
" />
<path d="M53.2681 12.3563
L53.2681 11.9330
" />
<path d="M53.2681 11.9330
L53.3285 11.6911
" />
<path d="M53.3285 11.6911
L53.4495 11.5701
" />
<path d="M53.4495 11.5701
L53.5704 11.5096
" />
<path d="M54.6590 11.5096
L54.6590 12.5377
" />
<path d="M54.6590 12.5377
L54.7195 12.6587
" />
<path d="M54.7195 12.6587
L54.7800 12.7192
" />
<path d="M54.7800 12.7192
L54.9009 12.7796
" />
<path d="M54.9009 12.7796
L55.1428 12.7796
" />
<path d="M55.1428 12.7796
L55.2638 12.7192
" />
<path d="M55.2638 12.7192
L55.3243 12.6587
" />
<path d="M55.3243 12.6587
L55.3847 12.5377
" />
<path d="M55.3847 12.5377
L55.3847 11.5096
" />
<path d="M55.8081 11.5096
L56.5338 11.5096
" />
<path d="M56.1710 12.7796
L56.1710 11.5096
" />
</g></g>
<g style="fill:#A90000; fill-opacity:0.0; 
stroke:#A90000; stroke-width:0.1524; stroke-opacity:1; 
stroke-linecap:round; stroke-linejoin:round;">
<text x="58.4328" y="11.9381"
textLength="1.3365" font-size="1.6933" lengthAdjust="spacingAndGlyphs"
text-anchor="middle" opacity="0">8</text>
<g class="stroked-text"><desc>8</desc>
<path d="M58.3119 11.0569
L58.1909 10.9964
" />
<path d="M58.1909 10.9964
L58.1304 10.9360
" />
<path d="M58.1304 10.9360
L58.0700 10.8150
" />
<path d="M58.0700 10.8150
L58.0700 10.7545
" />
<path d="M58.0700 10.7545
L58.1304 10.6336
" />
<path d="M58.1304 10.6336
L58.1909 10.5731
" />
<path d="M58.1909 10.5731
L58.3119 10.5126
" />
<path d="M58.3119 10.5126
L58.5538 10.5126
" />
<path d="M58.5538 10.5126
L58.6747 10.5731
" />
<path d="M58.6747 10.5731
L58.7352 10.6336
" />
<path d="M58.7352 10.6336
L58.7957 10.7545
" />
<path d="M58.7957 10.7545
L58.7957 10.8150
" />
<path d="M58.7957 10.8150
L58.7352 10.9360
" />
<path d="M58.7352 10.9360
L58.6747 10.9964
" />
<path d="M58.6747 10.9964
L58.5538 11.0569
" />
<path d="M58.5538 11.0569
L58.3119 11.0569
" />
<path d="M58.3119 11.0569
L58.1909 11.1174
" />
<path d="M58.1909 11.1174
L58.1304 11.1779
" />
<path d="M58.1304 11.1779
L58.0700 11.2988
" />
<path d="M58.0700 11.2988
L58.0700 11.5407
" />
<path d="M58.0700 11.5407
L58.1304 11.6617
" />
<path d="M58.1304 11.6617
L58.1909 11.7222
" />
<path d="M58.1909 11.7222
L58.3119 11.7826
" />
<path d="M58.3119 11.7826
L58.5538 11.7826
" />
<path d="M58.5538 11.7826
L58.6747 11.7222
" />
<path d="M58.6747 11.7222
L58.7352 11.6617
" />
<path d="M58.7352 11.6617
L58.7957 11.5407
" />
<path d="M58.7957 11.5407
L58.7957 11.2988
" />
<path d="M58.7957 11.2988
L58.7352 11.1779
" />
<path d="M58.7352 11.1779
L58.6747 11.1174
" />
<path d="M58.6747 11.1174
L58.5538 11.0569
" />
</g></g>
<g style="fill:#840084; fill-opacity:0.0; 
stroke:#840084; stroke-width:0.1524; stroke-opacity:1; 
stroke-linecap:round; stroke-linejoin:round;">
</g>
<g style="fill:#006464; fill-opacity:0.0; 
stroke:#006464; stroke-width:0.1524; stroke-opacity:1; 
stroke-linecap:round; stroke-linejoin:round;">
</g>
<g style="fill:#006464; fill-opacity:0.0; 
stroke:#006464; stroke-width:0.1588; stroke-opacity:1; 
stroke-linecap:round; stroke-linejoin:round;">
<text x="52.0828" y="3.9371"
textLength="2.5621" font-size="1.6933" lengthAdjust="spacingAndGlyphs"
text-anchor="middle" opacity="0">U?</text>
<g class="stroked-text"><desc>U?</desc>
<path d="M51.1756 2.6196
L51.1756 3.6477
" />
<path d="M51.1756 3.6477
L51.2361 3.7687
" />
<path d="M51.2361 3.7687
L51.2966 3.8292
" />
<path d="M51.2966 3.8292
L51.4175 3.8896
" />
<path d="M51.4175 3.8896
L51.6594 3.8896
" />
<path d="M51.6594 3.8896
L51.7804 3.8292
" />
<path d="M51.7804 3.8292
L51.8409 3.7687
" />
<path d="M51.8409 3.7687
L51.9013 3.6477
" />
<path d="M51.9013 3.6477
L51.9013 2.6196
" />
<path d="M52.6876 3.7687
L52.7480 3.8292
" />
<path d="M52.7480 3.8292
L52.6876 3.8896
" />
<path d="M52.6876 3.8896
L52.6271 3.8292
" />
<path d="M52.6271 3.8292
L52.6876 3.7687
" />
<path d="M52.6876 3.7687
L52.6876 3.8896
" />
<path d="M52.4457 2.6801
L52.5666 2.6196
" />
<path d="M52.5666 2.6196
L52.8690 2.6196
" />
<path d="M52.8690 2.6196
L52.9899 2.6801
" />
<path d="M52.9899 2.6801
L53.0504 2.8011
" />
<path d="M53.0504 2.8011
L53.0504 2.9220
" />
<path d="M53.0504 2.9220
L52.9899 3.0430
" />
<path d="M52.9899 3.0430
L52.9295 3.1034
" />
<path d="M52.9295 3.1034
L52.8085 3.1639
" />
<path d="M52.8085 3.1639
L52.7480 3.2244
" />
<path d="M52.7480 3.2244
L52.6876 3.3453
" />
<path d="M52.6876 3.3453
L52.6876 3.4058
" />
</g><text x="38.1128" y="3.9371"
textLength="7.5210" font-size="1.6933" lengthAdjust="spacingAndGlyphs"
text-anchor="middle" opacity="0">MAX453</text>
<g class="stroked-text"><desc>MAX453</desc>
<path d="M34.7261 3.8896
L34.7261 2.6196
" />
<path d="M34.7261 2.6196
L35.1495 3.5268
" />
<path d="M35.1495 3.5268
L35.5728 2.6196
" />
<path d="M35.5728 2.6196
L35.5728 3.8896
" />
<path d="M36.1171 3.5268
L36.7218 3.5268
" />
<path d="M35.9961 3.8896
L36.4194 2.6196
" />
<path d="M36.4194 2.6196
L36.8428 3.8896
" />
<path d="M37.1452 2.6196
L37.9918 3.8896
" />
<path d="M37.9918 2.6196
L37.1452 3.8896
" />
<path d="M39.0199 3.0430
L39.0199 3.8896
" />
<path d="M38.7175 2.5592
L38.4152 3.4663
" />
<path d="M38.4152 3.4663
L39.2013 3.4663
" />
<path d="M40.2899 2.6196
L39.6851 2.6196
" />
<path d="M39.6851 2.6196
L39.6247 3.2244
" />
<path d="M39.6247 3.2244
L39.6851 3.1639
" />
<path d="M39.6851 3.1639
L39.8061 3.1034
" />
<path d="M39.8061 3.1034
L40.1085 3.1034
" />
<path d="M40.1085 3.1034
L40.2294 3.1639
" />
<path d="M40.2294 3.1639
L40.2899 3.2244
" />
<path d="M40.2899 3.2244
L40.3504 3.3453
" />
<path d="M40.3504 3.3453
L40.3504 3.6477
" />
<path d="M40.3504 3.6477
L40.2899 3.7687
" />
<path d="M40.2899 3.7687
L40.2294 3.8292
" />
<path d="M40.2294 3.8292
L40.1085 3.8896
" />
<path d="M40.1085 3.8896
L39.8061 3.8896
" />
<path d="M39.8061 3.8896
L39.6851 3.8292
" />
<path d="M39.6851 3.8292
L39.6247 3.7687
" />
<path d="M40.7737 2.6196
L41.5599 2.6196
" />
<path d="M41.5599 2.6196
L41.1365 3.1034
" />
<path d="M41.1365 3.1034
L41.3180 3.1034
" />
<path d="M41.3180 3.1034
L41.4389 3.1639
" />
<path d="M41.4389 3.1639
L41.4994 3.2244
" />
<path d="M41.4994 3.2244
L41.5599 3.3453
" />
<path d="M41.5599 3.3453
L41.5599 3.6477
" />
<path d="M41.5599 3.6477
L41.4994 3.7687
" />
<path d="M41.4994 3.7687
L41.4389 3.8292
" />
<path d="M41.4389 3.8292
L41.3180 3.8896
" />
<path d="M41.3180 3.8896
L40.9551 3.8896
" />
<path d="M40.9551 3.8896
L40.8342 3.8292
" />
<path d="M40.8342 3.8292
L40.7737 3.7687
" />
</g></g>
<g style="fill:#840084; fill-opacity:0.0; 
stroke:#840084; stroke-width:0.1588; stroke-opacity:1; 
stroke-linecap:round; stroke-linejoin:round;">
<text x="40.6528" y="12.8271"
textLength="67.7548" font-size="1.6933" lengthAdjust="spacingAndGlyphs"
text-anchor="middle" opacity="0">https://datasheets.maximintegrated.com/en/ds/MAX452-MAX455.pdf</text>
<g class="stroked-text"><desc>https://datasheets.maximintegrated.com/en/ds/MAX452-MAX455.pdf</desc>
<path d="M7.1492 12.7796
L7.1492 11.5096
" />
<path d="M7.6935 12.7796
L7.6935 12.1144
" />
<path d="M7.6935 12.1144
L7.6330 11.9934
" />
<path d="M7.6330 11.9934
L7.5121 11.9330
" />
<path d="M7.5121 11.9330
L7.3307 11.9330
" />
<path d="M7.3307 11.9330
L7.2097 11.9934
" />
<path d="M7.2097 11.9934
L7.1492 12.0539
" />
<path d="M8.1168 11.9330
L8.6006 11.9330
" />
<path d="M8.2982 11.5096
L8.2982 12.5982
" />
<path d="M8.2982 12.5982
L8.3587 12.7192
" />
<path d="M8.3587 12.7192
L8.4797 12.7796
" />
<path d="M8.4797 12.7796
L8.6006 12.7796
" />
<path d="M8.8425 11.9330
L9.3263 11.9330
" />
<path d="M9.0239 11.5096
L9.0239 12.5982
" />
<path d="M9.0239 12.5982
L9.0844 12.7192
" />
<path d="M9.0844 12.7192
L9.2054 12.7796
" />
<path d="M9.2054 12.7796
L9.3263 12.7796
" />
<path d="M9.7496 11.9330
L9.7496 13.2030
" />
<path d="M9.7496 11.9934
L9.8706 11.9330
" />
<path d="M9.8706 11.9330
L10.1125 11.9330
" />
<path d="M10.1125 11.9330
L10.2334 11.9934
" />
<path d="M10.2334 11.9934
L10.2939 12.0539
" />
<path d="M10.2939 12.0539
L10.3544 12.1749
" />
<path d="M10.3544 12.1749
L10.3544 12.5377
" />
<path d="M10.3544 12.5377
L10.2939 12.6587
" />
<path d="M10.2939 12.6587
L10.2334 12.7192
" />
<path d="M10.2334 12.7192
L10.1125 12.7796
" />
<path d="M10.1125 12.7796
L9.8706 12.7796
" />
<path d="M9.8706 12.7796
L9.7496 12.7192
" />
<path d="M10.8382 12.7192
L10.9591 12.7796
" />
<path d="M10.9591 12.7796
L11.2010 12.7796
" />
<path d="M11.2010 12.7796
L11.3220 12.7192
" />
<path d="M11.3220 12.7192
L11.3824 12.5982
" />
<path d="M11.3824 12.5982
L11.3824 12.5377
" />
<path d="M11.3824 12.5377
L11.3220 12.4168
" />
<path d="M11.3220 12.4168
L11.2010 12.3563
" />
<path d="M11.2010 12.3563
L11.0196 12.3563
" />
<path d="M11.0196 12.3563
L10.8986 12.2958
" />
<path d="M10.8986 12.2958
L10.8382 12.1749
" />
<path d="M10.8382 12.1749
L10.8382 12.1144
" />
<path d="M10.8382 12.1144
L10.8986 11.9934
" />
<path d="M10.8986 11.9934
L11.0196 11.9330
" />
<path d="M11.0196 11.9330
L11.2010 11.9330
" />
<path d="M11.2010 11.9330
L11.3220 11.9934
" />
<path d="M11.9267 12.6587
L11.9872 12.7192
" />
<path d="M11.9872 12.7192
L11.9267 12.7796
" />
<path d="M11.9267 12.7796
L11.8663 12.7192
" />
<path d="M11.8663 12.7192
L11.9267 12.6587
" />
<path d="M11.9267 12.6587
L11.9267 12.7796
" />
<path d="M11.9267 11.9934
L11.9872 12.0539
" />
<path d="M11.9872 12.0539
L11.9267 12.1144
" />
<path d="M11.9267 12.1144
L11.8663 12.0539
" />
<path d="M11.8663 12.0539
L11.9267 11.9934
" />
<path d="M11.9267 11.9934
L11.9267 12.1144
" />
<path d="M13.4387 11.4492
L12.3501 13.0820
" />
<path d="M14.7692 11.4492
L13.6806 13.0820
" />
<path d="M15.7368 12.7796
L15.7368 11.5096
" />
<path d="M15.7368 12.7192
L15.6159 12.7796
" />
<path d="M15.6159 12.7796
L15.3740 12.7796
" />
<path d="M15.3740 12.7796
L15.2530 12.7192
" />
<path d="M15.2530 12.7192
L15.1925 12.6587
" />
<path d="M15.1925 12.6587
L15.1321 12.5377
" />
<path d="M15.1321 12.5377
L15.1321 12.1749
" />
<path d="M15.1321 12.1749
L15.1925 12.0539
" />
<path d="M15.1925 12.0539
L15.2530 11.9934
" />
<path d="M15.2530 11.9934
L15.3740 11.9330
" />
<path d="M15.3740 11.9330
L15.6159 11.9330
" />
<path d="M15.6159 11.9330
L15.7368 11.9934
" />
<path d="M16.8858 12.7796
L16.8858 12.1144
" />
<path d="M16.8858 12.1144
L16.8253 11.9934
" />
<path d="M16.8253 11.9934
L16.7044 11.9330
" />
<path d="M16.7044 11.9330
L16.4625 11.9330
" />
<path d="M16.4625 11.9330
L16.3415 11.9934
" />
<path d="M16.8858 12.7192
L16.7649 12.7796
" />
<path d="M16.7649 12.7796
L16.4625 12.7796
" />
<path d="M16.4625 12.7796
L16.3415 12.7192
" />
<path d="M16.3415 12.7192
L16.2811 12.5982
" />
<path d="M16.2811 12.5982
L16.2811 12.4772
" />
<path d="M16.2811 12.4772
L16.3415 12.3563
" />
<path d="M16.3415 12.3563
L16.4625 12.2958
" />
<path d="M16.4625 12.2958
L16.7649 12.2958
" />
<path d="M16.7649 12.2958
L16.8858 12.2353
" />
<path d="M17.3091 11.9330
L17.7929 11.9330
" />
<path d="M17.4905 11.5096
L17.4905 12.5982
" />
<path d="M17.4905 12.5982
L17.5510 12.7192
" />
<path d="M17.5510 12.7192
L17.6720 12.7796
" />
<path d="M17.6720 12.7796
L17.7929 12.7796
" />
<path d="M18.7605 12.7796
L18.7605 12.1144
" />
<path d="M18.7605 12.1144
L18.7000 11.9934
" />
<path d="M18.7000 11.9934
L18.5791 11.9330
" />
<path d="M18.5791 11.9330
L18.3372 11.9330
" />
<path d="M18.3372 11.9330
L18.2162 11.9934
" />
<path d="M18.7605 12.7192
L18.6396 12.7796
" />
<path d="M18.6396 12.7796
L18.3372 12.7796
" />
<path d="M18.3372 12.7796
L18.2162 12.7192
" />
<path d="M18.2162 12.7192
L18.1558 12.5982
" />
<path d="M18.1558 12.5982
L18.1558 12.4772
" />
<path d="M18.1558 12.4772
L18.2162 12.3563
" />
<path d="M18.2162 12.3563
L18.3372 12.2958
" />
<path d="M18.3372 12.2958
L18.6396 12.2958
" />
<path d="M18.6396 12.2958
L18.7605 12.2353
" />
<path d="M19.3048 12.7192
L19.4257 12.7796
" />
<path d="M19.4257 12.7796
L19.6676 12.7796
" />
<path d="M19.6676 12.7796
L19.7886 12.7192
" />
<path d="M19.7886 12.7192
L19.8490 12.5982
" />
<path d="M19.8490 12.5982
L19.8490 12.5377
" />
<path d="M19.8490 12.5377
L19.7886 12.4168
" />
<path d="M19.7886 12.4168
L19.6676 12.3563
" />
<path d="M19.6676 12.3563
L19.4862 12.3563
" />
<path d="M19.4862 12.3563
L19.3652 12.2958
" />
<path d="M19.3652 12.2958
L19.3048 12.1749
" />
<path d="M19.3048 12.1749
L19.3048 12.1144
" />
<path d="M19.3048 12.1144
L19.3652 11.9934
" />
<path d="M19.3652 11.9934
L19.4862 11.9330
" />
<path d="M19.4862 11.9330
L19.6676 11.9330
" />
<path d="M19.6676 11.9330
L19.7886 11.9934
" />
<path d="M20.3933 12.7796
L20.3933 11.5096
" />
<path d="M20.9376 12.7796
L20.9376 12.1144
" />
<path d="M20.9376 12.1144
L20.8771 11.9934
" />
<path d="M20.8771 11.9934
L20.7562 11.9330
" />
<path d="M20.7562 11.9330
L20.5748 11.9330
" />
<path d="M20.5748 11.9330
L20.4538 11.9934
" />
<path d="M20.4538 11.9934
L20.3933 12.0539
" />
<path d="M22.0261 12.7192
L21.9052 12.7796
" />
<path d="M21.9052 12.7796
L21.6633 12.7796
" />
<path d="M21.6633 12.7796
L21.5423 12.7192
" />
<path d="M21.5423 12.7192
L21.4819 12.5982
" />
<path d="M21.4819 12.5982
L21.4819 12.1144
" />
<path d="M21.4819 12.1144
L21.5423 11.9934
" />
<path d="M21.5423 11.9934
L21.6633 11.9330
" />
<path d="M21.6633 11.9330
L21.9052 11.9330
" />
<path d="M21.9052 11.9330
L22.0261 11.9934
" />
<path d="M22.0261 11.9934
L22.0866 12.1144
" />
<path d="M22.0866 12.1144
L22.0866 12.2353
" />
<path d="M22.0866 12.2353
L21.4819 12.3563
" />
<path d="M23.1147 12.7192
L22.9938 12.7796
" />
<path d="M22.9938 12.7796
L22.7519 12.7796
" />
<path d="M22.7519 12.7796
L22.6309 12.7192
" />
<path d="M22.6309 12.7192
L22.5705 12.5982
" />
<path d="M22.5705 12.5982
L22.5705 12.1144
" />
<path d="M22.5705 12.1144
L22.6309 11.9934
" />
<path d="M22.6309 11.9934
L22.7519 11.9330
" />
<path d="M22.7519 11.9330
L22.9938 11.9330
" />
<path d="M22.9938 11.9330
L23.1147 11.9934
" />
<path d="M23.1147 11.9934
L23.1752 12.1144
" />
<path d="M23.1752 12.1144
L23.1752 12.2353
" />
<path d="M23.1752 12.2353
L22.5705 12.3563
" />
<path d="M23.5381 11.9330
L24.0219 11.9330
" />
<path d="M23.7195 11.5096
L23.7195 12.5982
" />
<path d="M23.7195 12.5982
L23.7800 12.7192
" />
<path d="M23.7800 12.7192
L23.9010 12.7796
" />
<path d="M23.9010 12.7796
L24.0219 12.7796
" />
<path d="M24.3848 12.7192
L24.5057 12.7796
" />
<path d="M24.5057 12.7796
L24.7476 12.7796
" />
<path d="M24.7476 12.7796
L24.8686 12.7192
" />
<path d="M24.8686 12.7192
L24.9290 12.5982
" />
<path d="M24.9290 12.5982
L24.9290 12.5377
" />
<path d="M24.9290 12.5377
L24.8686 12.4168
" />
<path d="M24.8686 12.4168
L24.7476 12.3563
" />
<path d="M24.7476 12.3563
L24.5662 12.3563
" />
<path d="M24.5662 12.3563
L24.4452 12.2958
" />
<path d="M24.4452 12.2958
L24.3848 12.1749
" />
<path d="M24.3848 12.1749
L24.3848 12.1144
" />
<path d="M24.3848 12.1144
L24.4452 11.9934
" />
<path d="M24.4452 11.9934
L24.5662 11.9330
" />
<path d="M24.5662 11.9330
L24.7476 11.9330
" />
<path d="M24.7476 11.9330
L24.8686 11.9934
" />
<path d="M25.4733 12.6587
L25.5338 12.7192
" />
<path d="M25.5338 12.7192
L25.4733 12.7796
" />
<path d="M25.4733 12.7796
L25.4129 12.7192
" />
<path d="M25.4129 12.7192
L25.4733 12.6587
" />
<path d="M25.4733 12.6587
L25.4733 12.7796
" />
<path d="M26.0781 12.7796
L26.0781 11.9330
" />
<path d="M26.0781 12.0539
L26.1386 11.9934
" />
<path d="M26.1386 11.9934
L26.2596 11.9330
" />
<path d="M26.2596 11.9330
L26.4410 11.9330
" />
<path d="M26.4410 11.9330
L26.5619 11.9934
" />
<path d="M26.5619 11.9934
L26.6224 12.1144
" />
<path d="M26.6224 12.1144
L26.6224 12.7796
" />
<path d="M26.6224 12.1144
L26.6829 11.9934
" />
<path d="M26.6829 11.9934
L26.8038 11.9330
" />
<path d="M26.8038 11.9330
L26.9853 11.9330
" />
<path d="M26.9853 11.9330
L27.1062 11.9934
" />
<path d="M27.1062 11.9934
L27.1667 12.1144
" />
<path d="M27.1667 12.1144
L27.1667 12.7796
" />
<path d="M28.3157 12.7796
L28.3157 12.1144
" />
<path d="M28.3157 12.1144
L28.2552 11.9934
" />
<path d="M28.2552 11.9934
L28.1343 11.9330
" />
<path d="M28.1343 11.9330
L27.8924 11.9330
" />
<path d="M27.8924 11.9330
L27.7714 11.9934
" />
<path d="M28.3157 12.7192
L28.1948 12.7796
" />
<path d="M28.1948 12.7796
L27.8924 12.7796
" />
<path d="M27.8924 12.7796
L27.7714 12.7192
" />
<path d="M27.7714 12.7192
L27.7110 12.5982
" />
<path d="M27.7110 12.5982
L27.7110 12.4772
" />
<path d="M27.7110 12.4772
L27.7714 12.3563
" />
<path d="M27.7714 12.3563
L27.8924 12.2958
" />
<path d="M27.8924 12.2958
L28.1948 12.2958
" />
<path d="M28.1948 12.2958
L28.3157 12.2353
" />
<path d="M28.7995 12.7796
L29.4647 11.9330
" />
<path d="M28.7995 11.9330
L29.4647 12.7796
" />
<path d="M29.9485 12.7796
L29.9485 11.9330
" />
<path d="M29.9485 11.5096
L29.8881 11.5701
" />
<path d="M29.8881 11.5701
L29.9485 11.6306
" />
<path d="M29.9485 11.6306
L30.0090 11.5701
" />
<path d="M30.0090 11.5701
L29.9485 11.5096
" />
<path d="M29.9485 11.5096
L29.9485 11.6306
" />
<path d="M30.5533 12.7796
L30.5533 11.9330
" />
<path d="M30.5533 12.0539
L30.6138 11.9934
" />
<path d="M30.6138 11.9934
L30.7348 11.9330
" />
<path d="M30.7348 11.9330
L30.9162 11.9330
" />
<path d="M30.9162 11.9330
L31.0371 11.9934
" />
<path d="M31.0371 11.9934
L31.0976 12.1144
" />
<path d="M31.0976 12.1144
L31.0976 12.7796
" />
<path d="M31.0976 12.1144
L31.1581 11.9934
" />
<path d="M31.1581 11.9934
L31.2790 11.9330
" />
<path d="M31.2790 11.9330
L31.4605 11.9330
" />
<path d="M31.4605 11.9330
L31.5814 11.9934
" />
<path d="M31.5814 11.9934
L31.6419 12.1144
" />
<path d="M31.6419 12.1144
L31.6419 12.7796
" />
<path d="M32.2466 12.7796
L32.2466 11.9330
" />
<path d="M32.2466 11.5096
L32.1862 11.5701
" />
<path d="M32.1862 11.5701
L32.2466 11.6306
" />
<path d="M32.2466 11.6306
L32.3071 11.5701
" />
<path d="M32.3071 11.5701
L32.2466 11.5096
" />
<path d="M32.2466 11.5096
L32.2466 11.6306
" />
<path d="M32.8514 11.9330
L32.8514 12.7796
" />
<path d="M32.8514 12.0539
L32.9119 11.9934
" />
<path d="M32.9119 11.9934
L33.0329 11.9330
" />
<path d="M33.0329 11.9330
L33.2143 11.9330
" />
<path d="M33.2143 11.9330
L33.3352 11.9934
" />
<path d="M33.3352 11.9934
L33.3957 12.1144
" />
<path d="M33.3957 12.1144
L33.3957 12.7796
" />
<path d="M33.8190 11.9330
L34.3028 11.9330
" />
<path d="M34.0004 11.5096
L34.0004 12.5982
" />
<path d="M34.0004 12.5982
L34.0609 12.7192
" />
<path d="M34.0609 12.7192
L34.1819 12.7796
" />
<path d="M34.1819 12.7796
L34.3028 12.7796
" />
<path d="M35.2099 12.7192
L35.0890 12.7796
" />
<path d="M35.0890 12.7796
L34.8471 12.7796
" />
<path d="M34.8471 12.7796
L34.7261 12.7192
" />
<path d="M34.7261 12.7192
L34.6657 12.5982
" />
<path d="M34.6657 12.5982
L34.6657 12.1144
" />
<path d="M34.6657 12.1144
L34.7261 11.9934
" />
<path d="M34.7261 11.9934
L34.8471 11.9330
" />
<path d="M34.8471 11.9330
L35.0890 11.9330
" />
<path d="M35.0890 11.9330
L35.2099 11.9934
" />
<path d="M35.2099 11.9934
L35.2704 12.1144
" />
<path d="M35.2704 12.1144
L35.2704 12.2353
" />
<path d="M35.2704 12.2353
L34.6657 12.3563
" />
<path d="M36.3590 11.9330
L36.3590 12.9611
" />
<path d="M36.3590 12.9611
L36.2985 13.0820
" />
<path d="M36.2985 13.0820
L36.2381 13.1425
" />
<path d="M36.2381 13.1425
L36.1171 13.2030
" />
<path d="M36.1171 13.2030
L35.9357 13.2030
" />
<path d="M35.9357 13.2030
L35.8147 13.1425
" />
<path d="M36.3590 12.7192
L36.2381 12.7796
" />
<path d="M36.2381 12.7796
L35.9962 12.7796
" />
<path d="M35.9962 12.7796
L35.8752 12.7192
" />
<path d="M35.8752 12.7192
L35.8147 12.6587
" />
<path d="M35.8147 12.6587
L35.7543 12.5377
" />
<path d="M35.7543 12.5377
L35.7543 12.1749
" />
<path d="M35.7543 12.1749
L35.8147 12.0539
" />
<path d="M35.8147 12.0539
L35.8752 11.9934
" />
<path d="M35.8752 11.9934
L35.9962 11.9330
" />
<path d="M35.9962 11.9330
L36.2381 11.9330
" />
<path d="M36.2381 11.9330
L36.3590 11.9934
" />
<path d="M36.9637 12.7796
L36.9637 11.9330
" />
<path d="M36.9637 12.1749
L37.0242 12.0539
" />
<path d="M37.0242 12.0539
L37.0847 11.9934
" />
<path d="M37.0847 11.9934
L37.2056 11.9330
" />
<path d="M37.2056 11.9330
L37.3266 11.9330
" />
<path d="M38.2942 12.7796
L38.2942 12.1144
" />
<path d="M38.2942 12.1144
L38.2337 11.9934
" />
<path d="M38.2337 11.9934
L38.1128 11.9330
" />
<path d="M38.1128 11.9330
L37.8709 11.9330
" />
<path d="M37.8709 11.9330
L37.7499 11.9934
" />
<path d="M38.2942 12.7192
L38.1733 12.7796
" />
<path d="M38.1733 12.7796
L37.8709 12.7796
" />
<path d="M37.8709 12.7796
L37.7499 12.7192
" />
<path d="M37.7499 12.7192
L37.6895 12.5982
" />
<path d="M37.6895 12.5982
L37.6895 12.4772
" />
<path d="M37.6895 12.4772
L37.7499 12.3563
" />
<path d="M37.7499 12.3563
L37.8709 12.2958
" />
<path d="M37.8709 12.2958
L38.1733 12.2958
" />
<path d="M38.1733 12.2958
L38.2942 12.2353
" />
<path d="M38.7175 11.9330
L39.2013 11.9330
" />
<path d="M38.8989 11.5096
L38.8989 12.5982
" />
<path d="M38.8989 12.5982
L38.9594 12.7192
" />
<path d="M38.9594 12.7192
L39.0804 12.7796
" />
<path d="M39.0804 12.7796
L39.2013 12.7796
" />
<path d="M40.1084 12.7192
L39.9875 12.7796
" />
<path d="M39.9875 12.7796
L39.7456 12.7796
" />
<path d="M39.7456 12.7796
L39.6246 12.7192
" />
<path d="M39.6246 12.7192
L39.5642 12.5982
" />
<path d="M39.5642 12.5982
L39.5642 12.1144
" />
<path d="M39.5642 12.1144
L39.6246 11.9934
" />
<path d="M39.6246 11.9934
L39.7456 11.9330
" />
<path d="M39.7456 11.9330
L39.9875 11.9330
" />
<path d="M39.9875 11.9330
L40.1084 11.9934
" />
<path d="M40.1084 11.9934
L40.1689 12.1144
" />
<path d="M40.1689 12.1144
L40.1689 12.2353
" />
<path d="M40.1689 12.2353
L39.5642 12.3563
" />
<path d="M41.2575 12.7796
L41.2575 11.5096
" />
<path d="M41.2575 12.7192
L41.1366 12.7796
" />
<path d="M41.1366 12.7796
L40.8947 12.7796
" />
<path d="M40.8947 12.7796
L40.7737 12.7192
" />
<path d="M40.7737 12.7192
L40.7132 12.6587
" />
<path d="M40.7132 12.6587
L40.6528 12.5377
" />
<path d="M40.6528 12.5377
L40.6528 12.1749
" />
<path d="M40.6528 12.1749
L40.7132 12.0539
" />
<path d="M40.7132 12.0539
L40.7737 11.9934
" />
<path d="M40.7737 11.9934
L40.8947 11.9330
" />
<path d="M40.8947 11.9330
L41.1366 11.9330
" />
<path d="M41.1366 11.9330
L41.2575 11.9934
" />
<path d="M41.8622 12.6587
L41.9227 12.7192
" />
<path d="M41.9227 12.7192
L41.8622 12.7796
" />
<path d="M41.8622 12.7796
L41.8018 12.7192
" />
<path d="M41.8018 12.7192
L41.8622 12.6587
" />
<path d="M41.8622 12.6587
L41.8622 12.7796
" />
<path d="M43.0113 12.7192
L42.8904 12.7796
" />
<path d="M42.8904 12.7796
L42.6485 12.7796
" />
<path d="M42.6485 12.7796
L42.5275 12.7192
" />
<path d="M42.5275 12.7192
L42.4670 12.6587
" />
<path d="M42.4670 12.6587
L42.4066 12.5377
" />
<path d="M42.4066 12.5377
L42.4066 12.1749
" />
<path d="M42.4066 12.1749
L42.4670 12.0539
" />
<path d="M42.4670 12.0539
L42.5275 11.9934
" />
<path d="M42.5275 11.9934
L42.6485 11.9330
" />
<path d="M42.6485 11.9330
L42.8904 11.9330
" />
<path d="M42.8904 11.9330
L43.0113 11.9934
" />
<path d="M43.7371 12.7796
L43.6161 12.7192
" />
<path d="M43.6161 12.7192
L43.5556 12.6587
" />
<path d="M43.5556 12.6587
L43.4952 12.5377
" />
<path d="M43.4952 12.5377
L43.4952 12.1749
" />
<path d="M43.4952 12.1749
L43.5556 12.0539
" />
<path d="M43.5556 12.0539
L43.6161 11.9934
" />
<path d="M43.6161 11.9934
L43.7371 11.9330
" />
<path d="M43.7371 11.9330
L43.9185 11.9330
" />
<path d="M43.9185 11.9330
L44.0394 11.9934
" />
<path d="M44.0394 11.9934
L44.0999 12.0539
" />
<path d="M44.0999 12.0539
L44.1604 12.1749
" />
<path d="M44.1604 12.1749
L44.1604 12.5377
" />
<path d="M44.1604 12.5377
L44.0999 12.6587
" />
<path d="M44.0999 12.6587
L44.0394 12.7192
" />
<path d="M44.0394 12.7192
L43.9185 12.7796
" />
<path d="M43.9185 12.7796
L43.7371 12.7796
" />
<path d="M44.7046 12.7796
L44.7046 11.9330
" />
<path d="M44.7046 12.0539
L44.7651 11.9934
" />
<path d="M44.7651 11.9934
L44.8861 11.9330
" />
<path d="M44.8861 11.9330
L45.0675 11.9330
" />
<path d="M45.0675 11.9330
L45.1884 11.9934
" />
<path d="M45.1884 11.9934
L45.2489 12.1144
" />
<path d="M45.2489 12.1144
L45.2489 12.7796
" />
<path d="M45.2489 12.1144
L45.3094 11.9934
" />
<path d="M45.3094 11.9934
L45.4303 11.9330
" />
<path d="M45.4303 11.9330
L45.6118 11.9330
" />
<path d="M45.6118 11.9330
L45.7327 11.9934
" />
<path d="M45.7327 11.9934
L45.7932 12.1144
" />
<path d="M45.7932 12.1144
L45.7932 12.7796
" />
<path d="M47.3051 11.4492
L46.2165 13.0820
" />
<path d="M48.2122 12.7192
L48.0913 12.7796
" />
<path d="M48.0913 12.7796
L47.8494 12.7796
" />
<path d="M47.8494 12.7796
L47.7284 12.7192
" />
<path d="M47.7284 12.7192
L47.6680 12.5982
" />
<path d="M47.6680 12.5982
L47.6680 12.1144
" />
<path d="M47.6680 12.1144
L47.7284 11.9934
" />
<path d="M47.7284 11.9934
L47.8494 11.9330
" />
<path d="M47.8494 11.9330
L48.0913 11.9330
" />
<path d="M48.0913 11.9330
L48.2122 11.9934
" />
<path d="M48.2122 11.9934
L48.2727 12.1144
" />
<path d="M48.2727 12.1144
L48.2727 12.2353
" />
<path d="M48.2727 12.2353
L47.6680 12.3563
" />
<path d="M48.8170 11.9330
L48.8170 12.7796
" />
<path d="M48.8170 12.0539
L48.8775 11.9934
" />
<path d="M48.8775 11.9934
L48.9985 11.9330
" />
<path d="M48.9985 11.9330
L49.1799 11.9330
" />
<path d="M49.1799 11.9330
L49.3008 11.9934
" />
<path d="M49.3008 11.9934
L49.3613 12.1144
" />
<path d="M49.3613 12.1144
L49.3613 12.7796
" />
<path d="M50.8732 11.4492
L49.7846 13.0820
" />
<path d="M51.8408 12.7796
L51.8408 11.5096
" />
<path d="M51.8408 12.7192
L51.7199 12.7796
" />
<path d="M51.7199 12.7796
L51.4780 12.7796
" />
<path d="M51.4780 12.7796
L51.3570 12.7192
" />
<path d="M51.3570 12.7192
L51.2965 12.6587
" />
<path d="M51.2965 12.6587
L51.2361 12.5377
" />
<path d="M51.2361 12.5377
L51.2361 12.1749
" />
<path d="M51.2361 12.1749
L51.2965 12.0539
" />
<path d="M51.2965 12.0539
L51.3570 11.9934
" />
<path d="M51.3570 11.9934
L51.4780 11.9330
" />
<path d="M51.4780 11.9330
L51.7199 11.9330
" />
<path d="M51.7199 11.9330
L51.8408 11.9934
" />
<path d="M52.3851 12.7192
L52.5060 12.7796
" />
<path d="M52.5060 12.7796
L52.7479 12.7796
" />
<path d="M52.7479 12.7796
L52.8689 12.7192
" />
<path d="M52.8689 12.7192
L52.9293 12.5982
" />
<path d="M52.9293 12.5982
L52.9293 12.5377
" />
<path d="M52.9293 12.5377
L52.8689 12.4168
" />
<path d="M52.8689 12.4168
L52.7479 12.3563
" />
<path d="M52.7479 12.3563
L52.5665 12.3563
" />
<path d="M52.5665 12.3563
L52.4455 12.2958
" />
<path d="M52.4455 12.2958
L52.3851 12.1749
" />
<path d="M52.3851 12.1749
L52.3851 12.1144
" />
<path d="M52.3851 12.1144
L52.4455 11.9934
" />
<path d="M52.4455 11.9934
L52.5665 11.9330
" />
<path d="M52.5665 11.9330
L52.7479 11.9330
" />
<path d="M52.7479 11.9330
L52.8689 11.9934
" />
<path d="M54.3808 11.4492
L53.2922 13.0820
" />
<path d="M54.8041 12.7796
L54.8041 11.5096
" />
<path d="M54.8041 11.5096
L55.2275 12.4168
" />
<path d="M55.2275 12.4168
L55.6508 11.5096
" />
<path d="M55.6508 11.5096
L55.6508 12.7796
" />
<path d="M56.1951 12.4168
L56.7998 12.4168
" />
<path d="M56.0741 12.7796
L56.4974 11.5096
" />
<path d="M56.4974 11.5096
L56.9208 12.7796
" />
<path d="M57.2232 11.5096
L58.0698 12.7796
" />
<path d="M58.0698 11.5096
L57.2232 12.7796
" />
<path d="M59.0979 11.9330
L59.0979 12.7796
" />
<path d="M58.7955 11.4492
L58.4932 12.3563
" />
<path d="M58.4932 12.3563
L59.2793 12.3563
" />
<path d="M60.3679 11.5096
L59.7631 11.5096
" />
<path d="M59.7631 11.5096
L59.7027 12.1144
" />
<path d="M59.7027 12.1144
L59.7631 12.0539
" />
<path d="M59.7631 12.0539
L59.8841 11.9934
" />
<path d="M59.8841 11.9934
L60.1865 11.9934
" />
<path d="M60.1865 11.9934
L60.3074 12.0539
" />
<path d="M60.3074 12.0539
L60.3679 12.1144
" />
<path d="M60.3679 12.1144
L60.4284 12.2353
" />
<path d="M60.4284 12.2353
L60.4284 12.5377
" />
<path d="M60.4284 12.5377
L60.3679 12.6587
" />
<path d="M60.3679 12.6587
L60.3074 12.7192
" />
<path d="M60.3074 12.7192
L60.1865 12.7796
" />
<path d="M60.1865 12.7796
L59.8841 12.7796
" />
<path d="M59.8841 12.7796
L59.7631 12.7192
" />
<path d="M59.7631 12.7192
L59.7027 12.6587
" />
<path d="M60.9122 11.6306
L60.9726 11.5701
" />
<path d="M60.9726 11.5701
L61.0936 11.5096
" />
<path d="M61.0936 11.5096
L61.3960 11.5096
" />
<path d="M61.3960 11.5096
L61.5169 11.5701
" />
<path d="M61.5169 11.5701
L61.5774 11.6306
" />
<path d="M61.5774 11.6306
L61.6379 11.7515
" />
<path d="M61.6379 11.7515
L61.6379 11.8725
" />
<path d="M61.6379 11.8725
L61.5774 12.0539
" />
<path d="M61.5774 12.0539
L60.8517 12.7796
" />
<path d="M60.8517 12.7796
L61.6379 12.7796
" />
<path d="M62.1821 12.2958
L63.1498 12.2958
" />
<path d="M63.7545 12.7796
L63.7545 11.5096
" />
<path d="M63.7545 11.5096
L64.1779 12.4168
" />
<path d="M64.1779 12.4168
L64.6012 11.5096
" />
<path d="M64.6012 11.5096
L64.6012 12.7796
" />
<path d="M65.1455 12.4168
L65.7502 12.4168
" />
<path d="M65.0245 12.7796
L65.4478 11.5096
" />
<path d="M65.4478 11.5096
L65.8712 12.7796
" />
<path d="M66.1736 11.5096
L67.0202 12.7796
" />
<path d="M67.0202 11.5096
L66.1736 12.7796
" />
<path d="M68.0483 11.9330
L68.0483 12.7796
" />
<path d="M67.7459 11.4492
L67.4436 12.3563
" />
<path d="M67.4436 12.3563
L68.2297 12.3563
" />
<path d="M69.3183 11.5096
L68.7135 11.5096
" />
<path d="M68.7135 11.5096
L68.6531 12.1144
" />
<path d="M68.6531 12.1144
L68.7135 12.0539
" />
<path d="M68.7135 12.0539
L68.8345 11.9934
" />
<path d="M68.8345 11.9934
L69.1369 11.9934
" />
<path d="M69.1369 11.9934
L69.2578 12.0539
" />
<path d="M69.2578 12.0539
L69.3183 12.1144
" />
<path d="M69.3183 12.1144
L69.3788 12.2353
" />
<path d="M69.3788 12.2353
L69.3788 12.5377
" />
<path d="M69.3788 12.5377
L69.3183 12.6587
" />
<path d="M69.3183 12.6587
L69.2578 12.7192
" />
<path d="M69.2578 12.7192
L69.1369 12.7796
" />
<path d="M69.1369 12.7796
L68.8345 12.7796
" />
<path d="M68.8345 12.7796
L68.7135 12.7192
" />
<path d="M68.7135 12.7192
L68.6531 12.6587
" />
<path d="M70.5278 11.5096
L69.9230 11.5096
" />
<path d="M69.9230 11.5096
L69.8626 12.1144
" />
<path d="M69.8626 12.1144
L69.9230 12.0539
" />
<path d="M69.9230 12.0539
L70.0440 11.9934
" />
<path d="M70.0440 11.9934
L70.3464 11.9934
" />
<path d="M70.3464 11.9934
L70.4673 12.0539
" />
<path d="M70.4673 12.0539
L70.5278 12.1144
" />
<path d="M70.5278 12.1144
L70.5883 12.2353
" />
<path d="M70.5883 12.2353
L70.5883 12.5377
" />
<path d="M70.5883 12.5377
L70.5278 12.6587
" />
<path d="M70.5278 12.6587
L70.4673 12.7192
" />
<path d="M70.4673 12.7192
L70.3464 12.7796
" />
<path d="M70.3464 12.7796
L70.0440 12.7796
" />
<path d="M70.0440 12.7796
L69.9230 12.7192
" />
<path d="M69.9230 12.7192
L69.8626 12.6587
" />
<path d="M71.1325 12.6587
L71.1930 12.7192
" />
<path d="M71.1930 12.7192
L71.1325 12.7796
" />
<path d="M71.1325 12.7796
L71.0721 12.7192
" />
<path d="M71.0721 12.7192
L71.1325 12.6587
" />
<path d="M71.1325 12.6587
L71.1325 12.7796
" />
<path d="M71.7373 11.9330
L71.7373 13.2030
" />
<path d="M71.7373 11.9934
L71.8583 11.9330
" />
<path d="M71.8583 11.9330
L72.1002 11.9330
" />
<path d="M72.1002 11.9330
L72.2211 11.9934
" />
<path d="M72.2211 11.9934
L72.2816 12.0539
" />
<path d="M72.2816 12.0539
L72.3421 12.1749
" />
<path d="M72.3421 12.1749
L72.3421 12.5377
" />
<path d="M72.3421 12.5377
L72.2816 12.6587
" />
<path d="M72.2816 12.6587
L72.2211 12.7192
" />
<path d="M72.2211 12.7192
L72.1002 12.7796
" />
<path d="M72.1002 12.7796
L71.8583 12.7796
" />
<path d="M71.8583 12.7796
L71.7373 12.7192
" />
<path d="M73.4306 12.7796
L73.4306 11.5096
" />
<path d="M73.4306 12.7192
L73.3097 12.7796
" />
<path d="M73.3097 12.7796
L73.0678 12.7796
" />
<path d="M73.0678 12.7796
L72.9468 12.7192
" />
<path d="M72.9468 12.7192
L72.8863 12.6587
" />
<path d="M72.8863 12.6587
L72.8259 12.5377
" />
<path d="M72.8259 12.5377
L72.8259 12.1749
" />
<path d="M72.8259 12.1749
L72.8863 12.0539
" />
<path d="M72.8863 12.0539
L72.9468 11.9934
" />
<path d="M72.9468 11.9934
L73.0678 11.9330
" />
<path d="M73.0678 11.9330
L73.3097 11.9330
" />
<path d="M73.3097 11.9330
L73.4306 11.9934
" />
<path d="M73.8539 11.9330
L74.3377 11.9330
" />
<path d="M74.0353 12.7796
L74.0353 11.6911
" />
<path d="M74.0353 11.6911
L74.0958 11.5701
" />
<path d="M74.0958 11.5701
L74.2168 11.5096
" />
<path d="M74.2168 11.5096
L74.3377 11.5096
" />
</g></g> 
</svg>
