<?xml version="1.0" standalone="no"?>
 <!DOCTYPE svg PUBLIC "-//W3C//DTD SVG 1.1//EN" 
 "http://www.w3.org/Graphics/SVG/1.1/DTD/svg11.dtd"> 
<svg
  xmlns:svg="http://www.w3.org/2000/svg"
  xmlns="http://www.w3.org/2000/svg"
  xmlns:xlink="http://www.w3.org/1999/xlink"
  version="1.1"
  width="19.8120mm" height="9.1440mm" viewBox="0.0000 0.0000 19.8120 9.1440">
<title>SVG Image created as working.svg date 2023/08/03 09:56:15 </title>
  <desc>Image generated by Eeschema-SVG </desc>
<g style="fill:#000000; fill-opacity:1.0000;stroke:#000000; stroke-opacity:1.0000;
stroke-linecap:round; stroke-linejoin:round;"
 transform="translate(0 0) scale(1 1)">
</g>
<g style="fill:#840000; fill-opacity:0.0; 
stroke:#840000; stroke-width:0.0000; stroke-opacity:1; 
stroke-linecap:round; stroke-linejoin:round;">
</g>
<g style="fill:#840084; fill-opacity:0.0; 
stroke:#840084; stroke-width:0.0000; stroke-opacity:1; 
stroke-linecap:round; stroke-linejoin:round;">
</g>
<g style="fill:#840000; fill-opacity:0.0; 
stroke:#840000; stroke-width:0.0000; stroke-opacity:1; 
stroke-linecap:round; stroke-linejoin:round;">
</g>
<g style="fill:#840000; fill-opacity:0.0; 
stroke:#840000; stroke-width:0.1524; stroke-opacity:1; 
stroke-linecap:round; stroke-linejoin:round;">
<path style="fill:#840000; fill-opacity:0.0; 
stroke:#840000; stroke-width:0.1524; stroke-opacity:1; 
stroke-linecap:round; stroke-linejoin:round;fill:none"
d="M 4.1902,7.1121
4.8252,5.8421
" /> 
</g>
<g style="fill:#840000; fill-opacity:0.0; 
stroke:#840000; stroke-width:0.2032; stroke-opacity:1; 
stroke-linecap:round; stroke-linejoin:round;">
<path style="fill:#840000; fill-opacity:0.0; 
stroke:#840000; stroke-width:0.2032; stroke-opacity:1; 
stroke-linecap:round; stroke-linejoin:round;fill:none"
d="M 4.1902,5.8421
6.7302,5.8421
" /> 
</g>
<g style="fill:#840000; fill-opacity:0.0; 
stroke:#840000; stroke-width:0.1524; stroke-opacity:1; 
stroke-linecap:round; stroke-linejoin:round;">
<path style="fill:#840000; fill-opacity:0.0; 
stroke:#840000; stroke-width:0.1524; stroke-opacity:1; 
stroke-linecap:round; stroke-linejoin:round;fill:none"
d="M 5.4602,7.1121
5.4602,2.0321
" /> 
</g>
<g style="fill:#840000; fill-opacity:0.0; 
stroke:#840000; stroke-width:0.2032; stroke-opacity:1; 
stroke-linecap:round; stroke-linejoin:round;">
<path style="fill:#840000; fill-opacity:0.0; 
stroke:#840000; stroke-width:0.2032; stroke-opacity:1; 
stroke-linecap:round; stroke-linejoin:round;fill:none"
d="M 4.1902,3.3021
6.7302,3.3021
5.4602,5.8421
Z" /> 
</g>
<g style="fill:#840000; fill-opacity:0.0; 
stroke:#840000; stroke-width:0.1524; stroke-opacity:1; 
stroke-linecap:round; stroke-linejoin:round;">
<path d="M5.4602 3.3021
L5.4602 0.7621
" />
</g>
<g style="fill:#A90000; fill-opacity:0.0; 
stroke:#A90000; stroke-width:0.1524; stroke-opacity:1; 
stroke-linecap:round; stroke-linejoin:round;">
<g transform="rotate(-90.000000 5.7142 2.0321)">
<text x="5.7142" y="3.3021"
textLength="1.3365" font-size="1.6933" lengthAdjust="spacingAndGlyphs"
text-anchor="middle" opacity="0">1</text>
</g>
<g class="stroked-text"><desc>1</desc>
<path d="M7.0446 1.6691
L7.0446 2.3948
" />
<path d="M7.0446 2.0320
L5.7746 2.0320
" />
<path d="M5.7746 2.0320
L5.9561 2.1529
" />
<path d="M5.9561 2.1529
L6.0770 2.2739
" />
<path d="M6.0770 2.2739
L6.1375 2.3948
" />
</g></g>
<g style="fill:#840000; fill-opacity:0.0; 
stroke:#840000; stroke-width:0.1524; stroke-opacity:1; 
stroke-linecap:round; stroke-linejoin:round;">
<path d="M4.1902 7.1121
L1.6502 7.1121
" />
</g>
<g style="fill:#A90000; fill-opacity:0.0; 
stroke:#A90000; stroke-width:0.1524; stroke-opacity:1; 
stroke-linecap:round; stroke-linejoin:round;">
<text x="2.9202" y="8.6361"
textLength="1.3365" font-size="1.6933" lengthAdjust="spacingAndGlyphs"
text-anchor="middle" opacity="0">2</text>
<g class="stroked-text"><desc>2</desc>
<path d="M2.5574 7.5475
L2.6178 7.4870
" />
<path d="M2.6178 7.4870
L2.7388 7.4265
" />
<path d="M2.7388 7.4265
L3.0412 7.4265
" />
<path d="M3.0412 7.4265
L3.1621 7.4870
" />
<path d="M3.1621 7.4870
L3.2226 7.5475
" />
<path d="M3.2226 7.5475
L3.2831 7.6684
" />
<path d="M3.2831 7.6684
L3.2831 7.7894
" />
<path d="M3.2831 7.7894
L3.2226 7.9708
" />
<path d="M3.2226 7.9708
L2.4969 8.6965
" />
<path d="M2.4969 8.6965
L3.2831 8.6965
" />
</g></g>
<g style="fill:#840000; fill-opacity:0.0; 
stroke:#840000; stroke-width:0.1524; stroke-opacity:1; 
stroke-linecap:round; stroke-linejoin:round;">
<path d="M5.4602 5.8421
L5.4602 8.3821
" />
</g>
<g style="fill:#A90000; fill-opacity:0.0; 
stroke:#A90000; stroke-width:0.1524; stroke-opacity:1; 
stroke-linecap:round; stroke-linejoin:round;">
<g transform="rotate(-90.000000 5.7142 7.1121)">
<text x="5.7142" y="8.3821"
textLength="1.3365" font-size="1.6933" lengthAdjust="spacingAndGlyphs"
text-anchor="middle" opacity="0">3</text>
</g>
<g class="stroked-text"><desc>3</desc>
<path d="M5.7746 7.5353
L5.7746 6.7491
" />
<path d="M5.7746 6.7491
L6.2584 7.1725
" />
<path d="M6.2584 7.1725
L6.2584 6.9910
" />
<path d="M6.2584 6.9910
L6.3189 6.8701
" />
<path d="M6.3189 6.8701
L6.3794 6.8096
" />
<path d="M6.3794 6.8096
L6.5003 6.7491
" />
<path d="M6.5003 6.7491
L6.8027 6.7491
" />
<path d="M6.8027 6.7491
L6.9237 6.8096
" />
<path d="M6.9237 6.8096
L6.9842 6.8701
" />
<path d="M6.9842 6.8701
L7.0446 6.9910
" />
<path d="M7.0446 6.9910
L7.0446 7.3539
" />
<path d="M7.0446 7.3539
L6.9842 7.4748
" />
<path d="M6.9842 7.4748
L6.9237 7.5353
" />
</g></g>
<g style="fill:#840084; fill-opacity:0.0; 
stroke:#840084; stroke-width:0.1524; stroke-opacity:1; 
stroke-linecap:round; stroke-linejoin:round;">
</g>
<g style="fill:#006464; fill-opacity:0.0; 
stroke:#006464; stroke-width:0.1524; stroke-opacity:1; 
stroke-linecap:round; stroke-linejoin:round;">
</g>
<g style="fill:#006464; fill-opacity:0.0; 
stroke:#006464; stroke-width:0.1588; stroke-opacity:1; 
stroke-linecap:round; stroke-linejoin:round;">
<text x="8.6160" y="4.5721"
textLength="2.5016" font-size="1.6933" lengthAdjust="spacingAndGlyphs"
text-anchor="middle" opacity="0">D?</text>
<g class="stroked-text"><desc>D?</desc>
<path d="M7.7390 4.5246
L7.7390 3.2546
" />
<path d="M7.7390 3.2546
L8.0414 3.2546
" />
<path d="M8.0414 3.2546
L8.2228 3.3151
" />
<path d="M8.2228 3.3151
L8.3438 3.4361
" />
<path d="M8.3438 3.4361
L8.4043 3.5570
" />
<path d="M8.4043 3.5570
L8.4647 3.7989
" />
<path d="M8.4647 3.7989
L8.4647 3.9803
" />
<path d="M8.4647 3.9803
L8.4043 4.2222
" />
<path d="M8.4043 4.2222
L8.3438 4.3432
" />
<path d="M8.3438 4.3432
L8.2228 4.4642
" />
<path d="M8.2228 4.4642
L8.0414 4.5246
" />
<path d="M8.0414 4.5246
L7.7390 4.5246
" />
<path d="M9.1905 4.4037
L9.2509 4.4642
" />
<path d="M9.2509 4.4642
L9.1905 4.5246
" />
<path d="M9.1905 4.5246
L9.1300 4.4642
" />
<path d="M9.1300 4.4642
L9.1905 4.4037
" />
<path d="M9.1905 4.4037
L9.1905 4.5246
" />
<path d="M8.9486 3.3151
L9.0695 3.2546
" />
<path d="M9.0695 3.2546
L9.3719 3.2546
" />
<path d="M9.3719 3.2546
L9.4928 3.3151
" />
<path d="M9.4928 3.3151
L9.5533 3.4361
" />
<path d="M9.5533 3.4361
L9.5533 3.5570
" />
<path d="M9.5533 3.5570
L9.4928 3.6780
" />
<path d="M9.4928 3.6780
L9.4324 3.7384
" />
<path d="M9.4324 3.7384
L9.3114 3.7989
" />
<path d="M9.3114 3.7989
L9.2509 3.8594
" />
<path d="M9.2509 3.8594
L9.1905 3.9803
" />
<path d="M9.1905 3.9803
L9.1905 4.0408
" />
</g><text x="12.7586" y="6.4771"
textLength="10.7868" font-size="1.6933" lengthAdjust="spacingAndGlyphs"
text-anchor="middle" opacity="0">Q_SCR_AGK</text>
<g class="stroked-text"><desc>Q_SCR_AGK</desc>
<path d="M8.5857 6.5506
L8.4647 6.4901
" />
<path d="M8.4647 6.4901
L8.3438 6.3692
" />
<path d="M8.3438 6.3692
L8.1624 6.1877
" />
<path d="M8.1624 6.1877
L8.0414 6.1272
" />
<path d="M8.0414 6.1272
L7.9205 6.1272
" />
<path d="M7.9809 6.4296
L7.8600 6.3692
" />
<path d="M7.8600 6.3692
L7.7390 6.2482
" />
<path d="M7.7390 6.2482
L7.6786 6.0063
" />
<path d="M7.6786 6.0063
L7.6786 5.5830
" />
<path d="M7.6786 5.5830
L7.7390 5.3411
" />
<path d="M7.7390 5.3411
L7.8600 5.2201
" />
<path d="M7.8600 5.2201
L7.9809 5.1596
" />
<path d="M7.9809 5.1596
L8.2228 5.1596
" />
<path d="M8.2228 5.1596
L8.3438 5.2201
" />
<path d="M8.3438 5.2201
L8.4647 5.3411
" />
<path d="M8.4647 5.3411
L8.5252 5.5830
" />
<path d="M8.5252 5.5830
L8.5252 6.0063
" />
<path d="M8.5252 6.0063
L8.4647 6.2482
" />
<path d="M8.4647 6.2482
L8.3438 6.3692
" />
<path d="M8.3438 6.3692
L8.2228 6.4296
" />
<path d="M8.2228 6.4296
L7.9809 6.4296
" />
<path d="M8.7672 6.5506
L9.7348 6.5506
" />
<path d="M9.9767 6.3692
L10.1581 6.4296
" />
<path d="M10.1581 6.4296
L10.4605 6.4296
" />
<path d="M10.4605 6.4296
L10.5814 6.3692
" />
<path d="M10.5814 6.3692
L10.6419 6.3087
" />
<path d="M10.6419 6.3087
L10.7024 6.1877
" />
<path d="M10.7024 6.1877
L10.7024 6.0668
" />
<path d="M10.7024 6.0668
L10.6419 5.9458
" />
<path d="M10.6419 5.9458
L10.5814 5.8853
" />
<path d="M10.5814 5.8853
L10.4605 5.8249
" />
<path d="M10.4605 5.8249
L10.2186 5.7644
" />
<path d="M10.2186 5.7644
L10.0976 5.7039
" />
<path d="M10.0976 5.7039
L10.0371 5.6434
" />
<path d="M10.0371 5.6434
L9.9767 5.5225
" />
<path d="M9.9767 5.5225
L9.9767 5.4015
" />
<path d="M9.9767 5.4015
L10.0371 5.2806
" />
<path d="M10.0371 5.2806
L10.0976 5.2201
" />
<path d="M10.0976 5.2201
L10.2186 5.1596
" />
<path d="M10.2186 5.1596
L10.5209 5.1596
" />
<path d="M10.5209 5.1596
L10.7024 5.2201
" />
<path d="M11.9723 6.3087
L11.9119 6.3692
" />
<path d="M11.9119 6.3692
L11.7304 6.4296
" />
<path d="M11.7304 6.4296
L11.6095 6.4296
" />
<path d="M11.6095 6.4296
L11.4281 6.3692
" />
<path d="M11.4281 6.3692
L11.3071 6.2482
" />
<path d="M11.3071 6.2482
L11.2466 6.1272
" />
<path d="M11.2466 6.1272
L11.1862 5.8853
" />
<path d="M11.1862 5.8853
L11.1862 5.7039
" />
<path d="M11.1862 5.7039
L11.2466 5.4620
" />
<path d="M11.2466 5.4620
L11.3071 5.3411
" />
<path d="M11.3071 5.3411
L11.4281 5.2201
" />
<path d="M11.4281 5.2201
L11.6095 5.1596
" />
<path d="M11.6095 5.1596
L11.7304 5.1596
" />
<path d="M11.7304 5.1596
L11.9119 5.2201
" />
<path d="M11.9119 5.2201
L11.9723 5.2806
" />
<path d="M13.2423 6.4296
L12.8190 5.8249
" />
<path d="M12.5166 6.4296
L12.5166 5.1596
" />
<path d="M12.5166 5.1596
L13.0004 5.1596
" />
<path d="M13.0004 5.1596
L13.1214 5.2201
" />
<path d="M13.1214 5.2201
L13.1819 5.2806
" />
<path d="M13.1819 5.2806
L13.2423 5.4015
" />
<path d="M13.2423 5.4015
L13.2423 5.5830
" />
<path d="M13.2423 5.5830
L13.1819 5.7039
" />
<path d="M13.1819 5.7039
L13.1214 5.7644
" />
<path d="M13.1214 5.7644
L13.0004 5.8249
" />
<path d="M13.0004 5.8249
L12.5166 5.8249
" />
<path d="M13.4843 6.5506
L14.4519 6.5506
" />
<path d="M14.6938 6.0668
L15.2985 6.0668
" />
<path d="M14.5728 6.4296
L14.9961 5.1596
" />
<path d="M14.9961 5.1596
L15.4195 6.4296
" />
<path d="M16.5081 5.2201
L16.3871 5.1596
" />
<path d="M16.3871 5.1596
L16.2057 5.1596
" />
<path d="M16.2057 5.1596
L16.0243 5.2201
" />
<path d="M16.0243 5.2201
L15.9033 5.3411
" />
<path d="M15.9033 5.3411
L15.8428 5.4620
" />
<path d="M15.8428 5.4620
L15.7824 5.7039
" />
<path d="M15.7824 5.7039
L15.7824 5.8853
" />
<path d="M15.7824 5.8853
L15.8428 6.1272
" />
<path d="M15.8428 6.1272
L15.9033 6.2482
" />
<path d="M15.9033 6.2482
L16.0243 6.3692
" />
<path d="M16.0243 6.3692
L16.2057 6.4296
" />
<path d="M16.2057 6.4296
L16.3266 6.4296
" />
<path d="M16.3266 6.4296
L16.5081 6.3692
" />
<path d="M16.5081 6.3692
L16.5685 6.3087
" />
<path d="M16.5685 6.3087
L16.5685 5.8853
" />
<path d="M16.5685 5.8853
L16.3266 5.8853
" />
<path d="M17.1128 6.4296
L17.1128 5.1596
" />
<path d="M17.8385 6.4296
L17.2943 5.7039
" />
<path d="M17.8385 5.1596
L17.1128 5.8853
" />
</g></g>
<g style="fill:#840084; fill-opacity:0.0; 
stroke:#840084; stroke-width:0.1588; stroke-opacity:1; 
stroke-linecap:round; stroke-linejoin:round;">
<g transform="rotate(-90.000000 5.4602 4.5721)">
<text x="5.4602" y="5.2071"
textLength="1.0501" font-size="1.6933" lengthAdjust="spacingAndGlyphs"
text-anchor="middle" opacity="0">~</text>
</g>
<g class="stroked-text"><desc>~</desc>
<path d="M5.5639 4.9046
L5.5034 4.8441
" />
<path d="M5.5034 4.8441
L5.4430 4.7232
" />
<path d="M5.4430 4.7232
L5.5639 4.4813
" />
<path d="M5.5639 4.4813
L5.5034 4.3603
" />
<path d="M5.5034 4.3603
L5.4430 4.2998
" />
</g></g> 
</svg>
