<?xml version="1.0" standalone="no"?>
 <!DOCTYPE svg PUBLIC "-//W3C//DTD SVG 1.1//EN" 
 "http://www.w3.org/Graphics/SVG/1.1/DTD/svg11.dtd"> 
<svg
  xmlns:svg="http://www.w3.org/2000/svg"
  xmlns="http://www.w3.org/2000/svg"
  xmlns:xlink="http://www.w3.org/1999/xlink"
  version="1.1"
  width="36.6776mm" height="101.5746mm" viewBox="0.0000 0.0000 36.6776 101.5746">
<title>SVG Image created as working.svg date 2023/08/02 02:50:32 </title>
  <desc>Image generated by Eeschema-SVG </desc>
<g style="fill:#000000; fill-opacity:1.0000;stroke:#000000; stroke-opacity:1.0000;
stroke-linecap:round; stroke-linejoin:round;"
 transform="translate(0 0) scale(1 1)">
</g>
<g style="fill:#840000; fill-opacity:0.0; 
stroke:#840000; stroke-width:0.0000; stroke-opacity:1; 
stroke-linecap:round; stroke-linejoin:round;">
</g>
<g style="fill:#FFFFC2; fill-opacity:0.0; 
stroke:#FFFFC2; stroke-width:0.0000; stroke-opacity:1; 
stroke-linecap:round; stroke-linejoin:round;">
</g>
<g style="fill:#FFFFC2; fill-opacity:1.0000; 
stroke:#FFFFC2; stroke-width:0.0000; stroke-opacity:1; 
stroke-linecap:round; stroke-linejoin:round;">
<rect x="6.866300" y="10.568800" width="2.540000" height="78.740000" rx="0.000000" />
</g>
<g style="fill:#840084; fill-opacity:1.0000; 
stroke:#840084; stroke-width:0.0000; stroke-opacity:1; 
stroke-linecap:round; stroke-linejoin:round;">
</g>
<g style="fill:#840000; fill-opacity:1.0000; 
stroke:#840000; stroke-width:0.0000; stroke-opacity:1; 
stroke-linecap:round; stroke-linejoin:round;">
</g>
<g style="fill:#840000; fill-opacity:0.0; 
stroke:#840000; stroke-width:0.1524; stroke-opacity:1; 
stroke-linecap:round; stroke-linejoin:round;">
<rect x="6.866300" y="87.911800" width="1.270000" height="0.254000" rx="0.000000" />
<rect x="6.866300" y="85.371800" width="1.270000" height="0.254000" rx="0.000000" />
<rect x="6.866300" y="82.831800" width="1.270000" height="0.254000" rx="0.000000" />
<rect x="6.866300" y="80.291800" width="1.270000" height="0.254000" rx="0.000000" />
<rect x="6.866300" y="77.751800" width="1.270000" height="0.254000" rx="0.000000" />
<rect x="6.866300" y="75.211800" width="1.270000" height="0.254000" rx="0.000000" />
<rect x="6.866300" y="72.671800" width="1.270000" height="0.254000" rx="0.000000" />
<rect x="6.866300" y="70.131800" width="1.270000" height="0.254000" rx="0.000000" />
<rect x="6.866300" y="67.591800" width="1.270000" height="0.254000" rx="0.000000" />
<rect x="6.866300" y="65.051800" width="1.270000" height="0.254000" rx="0.000000" />
<rect x="6.866300" y="62.511800" width="1.270000" height="0.254000" rx="0.000000" />
<rect x="6.866300" y="59.971800" width="1.270000" height="0.254000" rx="0.000000" />
<rect x="6.866300" y="57.431800" width="1.270000" height="0.254000" rx="0.000000" />
<rect x="6.866300" y="54.891800" width="1.270000" height="0.254000" rx="0.000000" />
<rect x="6.866300" y="52.351800" width="1.270000" height="0.254000" rx="0.000000" />
<rect x="6.866300" y="49.811800" width="1.270000" height="0.254000" rx="0.000000" />
<rect x="6.866300" y="47.271800" width="1.270000" height="0.254000" rx="0.000000" />
<rect x="6.866300" y="44.731800" width="1.270000" height="0.254000" rx="0.000000" />
<rect x="6.866300" y="42.191800" width="1.270000" height="0.254000" rx="0.000000" />
<rect x="6.866300" y="39.651800" width="1.270000" height="0.254000" rx="0.000000" />
<rect x="6.866300" y="37.111800" width="1.270000" height="0.254000" rx="0.000000" />
<rect x="6.866300" y="34.571800" width="1.270000" height="0.254000" rx="0.000000" />
<rect x="6.866300" y="32.031800" width="1.270000" height="0.254000" rx="0.000000" />
<rect x="6.866300" y="29.491800" width="1.270000" height="0.254000" rx="0.000000" />
<rect x="6.866300" y="26.951800" width="1.270000" height="0.254000" rx="0.000000" />
<rect x="6.866300" y="24.411800" width="1.270000" height="0.254000" rx="0.000000" />
<rect x="6.866300" y="21.871800" width="1.270000" height="0.254000" rx="0.000000" />
<rect x="6.866300" y="19.331800" width="1.270000" height="0.254000" rx="0.000000" />
<rect x="6.866300" y="16.791800" width="1.270000" height="0.254000" rx="0.000000" />
<rect x="6.866300" y="14.251800" width="1.270000" height="0.254000" rx="0.000000" />
<rect x="6.866300" y="11.711800" width="1.270000" height="0.254000" rx="0.000000" />
</g>
<g style="fill:#840000; fill-opacity:0.0; 
stroke:#840000; stroke-width:0.2540; stroke-opacity:1; 
stroke-linecap:round; stroke-linejoin:round;">
<rect x="6.866300" y="10.568800" width="2.540000" height="78.740000" rx="0.000000" />
</g>
<g style="fill:#840000; fill-opacity:0.0; 
stroke:#840000; stroke-width:0.1524; stroke-opacity:1; 
stroke-linecap:round; stroke-linejoin:round;">
<path style="fill:#840000; fill-opacity:0.0; 
stroke:#840000; stroke-width:0.1524; stroke-opacity:1; 
stroke-linecap:round; stroke-linejoin:round;fill:none"
d="M 7.1203,90.0708
9.1523,90.0708
" /> 
</g>
<g style="fill:#840000; fill-opacity:0.0; 
stroke:#840000; stroke-width:0.0476; stroke-opacity:1; 
stroke-linecap:round; stroke-linejoin:round;">
<text x="8.1363" y="89.8803"
textLength="2.6008" font-size="0.5080" lengthAdjust="spacingAndGlyphs"
text-anchor="middle" opacity="0">Mounting</text>
<g class="stroked-text"><desc>Mounting</desc>
<path d="M6.9480 89.8661
L6.9480 89.4851
" />
<path d="M6.9480 89.4851
L7.0750 89.7572
" />
<path d="M7.0750 89.7572
L7.2020 89.4851
" />
<path d="M7.2020 89.4851
L7.2020 89.8661
" />
<path d="M7.4378 89.8661
L7.4015 89.8480
" />
<path d="M7.4015 89.8480
L7.3834 89.8298
" />
<path d="M7.3834 89.8298
L7.3652 89.7935
" />
<path d="M7.3652 89.7935
L7.3652 89.6847
" />
<path d="M7.3652 89.6847
L7.3834 89.6484
" />
<path d="M7.3834 89.6484
L7.4015 89.6302
" />
<path d="M7.4015 89.6302
L7.4378 89.6121
" />
<path d="M7.4378 89.6121
L7.4922 89.6121
" />
<path d="M7.4922 89.6121
L7.5285 89.6302
" />
<path d="M7.5285 89.6302
L7.5467 89.6484
" />
<path d="M7.5467 89.6484
L7.5648 89.6847
" />
<path d="M7.5648 89.6847
L7.5648 89.7935
" />
<path d="M7.5648 89.7935
L7.5467 89.8298
" />
<path d="M7.5467 89.8298
L7.5285 89.8480
" />
<path d="M7.5285 89.8480
L7.4922 89.8661
" />
<path d="M7.4922 89.8661
L7.4378 89.8661
" />
<path d="M7.8914 89.6121
L7.8914 89.8661
" />
<path d="M7.7281 89.6121
L7.7281 89.8117
" />
<path d="M7.7281 89.8117
L7.7462 89.8480
" />
<path d="M7.7462 89.8480
L7.7825 89.8661
" />
<path d="M7.7825 89.8661
L7.8369 89.8661
" />
<path d="M7.8369 89.8661
L7.8732 89.8480
" />
<path d="M7.8732 89.8480
L7.8914 89.8298
" />
<path d="M8.0728 89.6121
L8.0728 89.8661
" />
<path d="M8.0728 89.6484
L8.0909 89.6302
" />
<path d="M8.0909 89.6302
L8.1272 89.6121
" />
<path d="M8.1272 89.6121
L8.1816 89.6121
" />
<path d="M8.1816 89.6121
L8.2179 89.6302
" />
<path d="M8.2179 89.6302
L8.2361 89.6665
" />
<path d="M8.2361 89.6665
L8.2361 89.8661
" />
<path d="M8.3630 89.6121
L8.5082 89.6121
" />
<path d="M8.4175 89.4851
L8.4175 89.8117
" />
<path d="M8.4175 89.8117
L8.4356 89.8480
" />
<path d="M8.4356 89.8480
L8.4719 89.8661
" />
<path d="M8.4719 89.8661
L8.5082 89.8661
" />
<path d="M8.6352 89.8661
L8.6352 89.6121
" />
<path d="M8.6352 89.4851
L8.6170 89.5032
" />
<path d="M8.6170 89.5032
L8.6352 89.5214
" />
<path d="M8.6352 89.5214
L8.6533 89.5032
" />
<path d="M8.6533 89.5032
L8.6352 89.4851
" />
<path d="M8.6352 89.4851
L8.6352 89.5214
" />
<path d="M8.8166 89.6121
L8.8166 89.8661
" />
<path d="M8.8166 89.6484
L8.8347 89.6302
" />
<path d="M8.8347 89.6302
L8.8710 89.6121
" />
<path d="M8.8710 89.6121
L8.9254 89.6121
" />
<path d="M8.9254 89.6121
L8.9617 89.6302
" />
<path d="M8.9617 89.6302
L8.9799 89.6665
" />
<path d="M8.9799 89.6665
L8.9799 89.8661
" />
<path d="M9.3246 89.6121
L9.3246 89.9205
" />
<path d="M9.3246 89.9205
L9.3064 89.9568
" />
<path d="M9.3064 89.9568
L9.2883 89.9750
" />
<path d="M9.2883 89.9750
L9.2520 89.9931
" />
<path d="M9.2520 89.9931
L9.1976 89.9931
" />
<path d="M9.1976 89.9931
L9.1613 89.9750
" />
<path d="M9.3246 89.8480
L9.2883 89.8661
" />
<path d="M9.2883 89.8661
L9.2157 89.8661
" />
<path d="M9.2157 89.8661
L9.1794 89.8480
" />
<path d="M9.1794 89.8480
L9.1613 89.8298
" />
<path d="M9.1613 89.8298
L9.1431 89.7935
" />
<path d="M9.1431 89.7935
L9.1431 89.6847
" />
<path d="M9.1431 89.6847
L9.1613 89.6484
" />
<path d="M9.1613 89.6484
L9.1794 89.6302
" />
<path d="M9.1794 89.6302
L9.2157 89.6121
" />
<path d="M9.2157 89.6121
L9.2883 89.6121
" />
<path d="M9.2883 89.6121
L9.3246 89.6302
" />
</g></g>
<g style="fill:#840000; fill-opacity:0.0; 
stroke:#840000; stroke-width:0.1524; stroke-opacity:1; 
stroke-linecap:round; stroke-linejoin:round;">
<path d="M6.8663 11.8388
L3.0563 11.8388
" />
</g>
<g style="fill:#A90000; fill-opacity:0.0; 
stroke:#A90000; stroke-width:0.1524; stroke-opacity:1; 
stroke-linecap:round; stroke-linejoin:round;">
<text x="4.9613" y="11.5848"
textLength="1.3365" font-size="1.6933" lengthAdjust="spacingAndGlyphs"
text-anchor="middle" opacity="0">1</text>
<g class="stroked-text"><desc>1</desc>
<path d="M5.3242 11.4293
L4.5985 11.4293
" />
<path d="M4.9613 11.4293
L4.9613 10.1593
" />
<path d="M4.9613 10.1593
L4.8404 10.3408
" />
<path d="M4.8404 10.3408
L4.7194 10.4617
" />
<path d="M4.7194 10.4617
L4.5985 10.5222
" />
</g></g>
<g style="fill:#840000; fill-opacity:0.0; 
stroke:#840000; stroke-width:0.1524; stroke-opacity:1; 
stroke-linecap:round; stroke-linejoin:round;">
<path d="M6.8663 34.6988
L3.0563 34.6988
" />
</g>
<g style="fill:#A90000; fill-opacity:0.0; 
stroke:#A90000; stroke-width:0.1524; stroke-opacity:1; 
stroke-linecap:round; stroke-linejoin:round;">
<text x="4.9613" y="34.4448"
textLength="2.5460" font-size="1.6933" lengthAdjust="spacingAndGlyphs"
text-anchor="middle" opacity="0">10</text>
<g class="stroked-text"><desc>10</desc>
<path d="M4.7194 34.2893
L3.9937 34.2893
" />
<path d="M4.3565 34.2893
L4.3565 33.0193
" />
<path d="M4.3565 33.0193
L4.2356 33.2008
" />
<path d="M4.2356 33.2008
L4.1146 33.3217
" />
<path d="M4.1146 33.3217
L3.9937 33.3822
" />
<path d="M5.5055 33.0193
L5.6265 33.0193
" />
<path d="M5.6265 33.0193
L5.7474 33.0798
" />
<path d="M5.7474 33.0798
L5.8079 33.1403
" />
<path d="M5.8079 33.1403
L5.8684 33.2612
" />
<path d="M5.8684 33.2612
L5.9289 33.5031
" />
<path d="M5.9289 33.5031
L5.9289 33.8055
" />
<path d="M5.9289 33.8055
L5.8684 34.0474
" />
<path d="M5.8684 34.0474
L5.8079 34.1684
" />
<path d="M5.8079 34.1684
L5.7474 34.2289
" />
<path d="M5.7474 34.2289
L5.6265 34.2893
" />
<path d="M5.6265 34.2893
L5.5055 34.2893
" />
<path d="M5.5055 34.2893
L5.3846 34.2289
" />
<path d="M5.3846 34.2289
L5.3241 34.1684
" />
<path d="M5.3241 34.1684
L5.2636 34.0474
" />
<path d="M5.2636 34.0474
L5.2032 33.8055
" />
<path d="M5.2032 33.8055
L5.2032 33.5031
" />
<path d="M5.2032 33.5031
L5.2636 33.2612
" />
<path d="M5.2636 33.2612
L5.3241 33.1403
" />
<path d="M5.3241 33.1403
L5.3846 33.0798
" />
<path d="M5.3846 33.0798
L5.5055 33.0193
" />
</g></g>
<g style="fill:#840000; fill-opacity:0.0; 
stroke:#840000; stroke-width:0.1524; stroke-opacity:1; 
stroke-linecap:round; stroke-linejoin:round;">
<path d="M6.8663 37.2388
L3.0563 37.2388
" />
</g>
<g style="fill:#A90000; fill-opacity:0.0; 
stroke:#A90000; stroke-width:0.1524; stroke-opacity:1; 
stroke-linecap:round; stroke-linejoin:round;">
<text x="4.9613" y="36.9848"
textLength="2.5460" font-size="1.6933" lengthAdjust="spacingAndGlyphs"
text-anchor="middle" opacity="0">11</text>
<g class="stroked-text"><desc>11</desc>
<path d="M4.7194 36.8293
L3.9937 36.8293
" />
<path d="M4.3565 36.8293
L4.3565 35.5593
" />
<path d="M4.3565 35.5593
L4.2356 35.7408
" />
<path d="M4.2356 35.7408
L4.1146 35.8617
" />
<path d="M4.1146 35.8617
L3.9937 35.9222
" />
<path d="M5.9289 36.8293
L5.2032 36.8293
" />
<path d="M5.5660 36.8293
L5.5660 35.5593
" />
<path d="M5.5660 35.5593
L5.4451 35.7408
" />
<path d="M5.4451 35.7408
L5.3241 35.8617
" />
<path d="M5.3241 35.8617
L5.2032 35.9222
" />
</g></g>
<g style="fill:#840000; fill-opacity:0.0; 
stroke:#840000; stroke-width:0.1524; stroke-opacity:1; 
stroke-linecap:round; stroke-linejoin:round;">
<path d="M6.8663 39.7788
L3.0563 39.7788
" />
</g>
<g style="fill:#A90000; fill-opacity:0.0; 
stroke:#A90000; stroke-width:0.1524; stroke-opacity:1; 
stroke-linecap:round; stroke-linejoin:round;">
<text x="4.9613" y="39.5248"
textLength="2.5460" font-size="1.6933" lengthAdjust="spacingAndGlyphs"
text-anchor="middle" opacity="0">12</text>
<g class="stroked-text"><desc>12</desc>
<path d="M4.7194 39.3693
L3.9937 39.3693
" />
<path d="M4.3565 39.3693
L4.3565 38.0993
" />
<path d="M4.3565 38.0993
L4.2356 38.2808
" />
<path d="M4.2356 38.2808
L4.1146 38.4017
" />
<path d="M4.1146 38.4017
L3.9937 38.4622
" />
<path d="M5.2032 38.2203
L5.2636 38.1598
" />
<path d="M5.2636 38.1598
L5.3846 38.0993
" />
<path d="M5.3846 38.0993
L5.6870 38.0993
" />
<path d="M5.6870 38.0993
L5.8079 38.1598
" />
<path d="M5.8079 38.1598
L5.8684 38.2203
" />
<path d="M5.8684 38.2203
L5.9289 38.3412
" />
<path d="M5.9289 38.3412
L5.9289 38.4622
" />
<path d="M5.9289 38.4622
L5.8684 38.6436
" />
<path d="M5.8684 38.6436
L5.1427 39.3693
" />
<path d="M5.1427 39.3693
L5.9289 39.3693
" />
</g></g>
<g style="fill:#840000; fill-opacity:0.0; 
stroke:#840000; stroke-width:0.1524; stroke-opacity:1; 
stroke-linecap:round; stroke-linejoin:round;">
<path d="M6.8663 42.3188
L3.0563 42.3188
" />
</g>
<g style="fill:#A90000; fill-opacity:0.0; 
stroke:#A90000; stroke-width:0.1524; stroke-opacity:1; 
stroke-linecap:round; stroke-linejoin:round;">
<text x="4.9613" y="42.0648"
textLength="2.5460" font-size="1.6933" lengthAdjust="spacingAndGlyphs"
text-anchor="middle" opacity="0">13</text>
<g class="stroked-text"><desc>13</desc>
<path d="M4.7194 41.9093
L3.9937 41.9093
" />
<path d="M4.3565 41.9093
L4.3565 40.6393
" />
<path d="M4.3565 40.6393
L4.2356 40.8208
" />
<path d="M4.2356 40.8208
L4.1146 40.9417
" />
<path d="M4.1146 40.9417
L3.9937 41.0022
" />
<path d="M5.1427 40.6393
L5.9289 40.6393
" />
<path d="M5.9289 40.6393
L5.5055 41.1231
" />
<path d="M5.5055 41.1231
L5.6870 41.1231
" />
<path d="M5.6870 41.1231
L5.8079 41.1836
" />
<path d="M5.8079 41.1836
L5.8684 41.2441
" />
<path d="M5.8684 41.2441
L5.9289 41.3650
" />
<path d="M5.9289 41.3650
L5.9289 41.6674
" />
<path d="M5.9289 41.6674
L5.8684 41.7884
" />
<path d="M5.8684 41.7884
L5.8079 41.8489
" />
<path d="M5.8079 41.8489
L5.6870 41.9093
" />
<path d="M5.6870 41.9093
L5.3241 41.9093
" />
<path d="M5.3241 41.9093
L5.2032 41.8489
" />
<path d="M5.2032 41.8489
L5.1427 41.7884
" />
</g></g>
<g style="fill:#840000; fill-opacity:0.0; 
stroke:#840000; stroke-width:0.1524; stroke-opacity:1; 
stroke-linecap:round; stroke-linejoin:round;">
<path d="M6.8663 44.8588
L3.0563 44.8588
" />
</g>
<g style="fill:#A90000; fill-opacity:0.0; 
stroke:#A90000; stroke-width:0.1524; stroke-opacity:1; 
stroke-linecap:round; stroke-linejoin:round;">
<text x="4.9613" y="44.6048"
textLength="2.5460" font-size="1.6933" lengthAdjust="spacingAndGlyphs"
text-anchor="middle" opacity="0">14</text>
<g class="stroked-text"><desc>14</desc>
<path d="M4.7194 44.4493
L3.9937 44.4493
" />
<path d="M4.3565 44.4493
L4.3565 43.1793
" />
<path d="M4.3565 43.1793
L4.2356 43.3608
" />
<path d="M4.2356 43.3608
L4.1146 43.4817
" />
<path d="M4.1146 43.4817
L3.9937 43.5422
" />
<path d="M5.8079 43.6027
L5.8079 44.4493
" />
<path d="M5.5055 43.1189
L5.2032 44.0260
" />
<path d="M5.2032 44.0260
L5.9893 44.0260
" />
</g></g>
<g style="fill:#840000; fill-opacity:0.0; 
stroke:#840000; stroke-width:0.1524; stroke-opacity:1; 
stroke-linecap:round; stroke-linejoin:round;">
<path d="M6.8663 47.3988
L3.0563 47.3988
" />
</g>
<g style="fill:#A90000; fill-opacity:0.0; 
stroke:#A90000; stroke-width:0.1524; stroke-opacity:1; 
stroke-linecap:round; stroke-linejoin:round;">
<text x="4.9613" y="47.1448"
textLength="2.5460" font-size="1.6933" lengthAdjust="spacingAndGlyphs"
text-anchor="middle" opacity="0">15</text>
<g class="stroked-text"><desc>15</desc>
<path d="M4.7194 46.9893
L3.9937 46.9893
" />
<path d="M4.3565 46.9893
L4.3565 45.7193
" />
<path d="M4.3565 45.7193
L4.2356 45.9008
" />
<path d="M4.2356 45.9008
L4.1146 46.0217
" />
<path d="M4.1146 46.0217
L3.9937 46.0822
" />
<path d="M5.8684 45.7193
L5.2636 45.7193
" />
<path d="M5.2636 45.7193
L5.2032 46.3241
" />
<path d="M5.2032 46.3241
L5.2636 46.2636
" />
<path d="M5.2636 46.2636
L5.3846 46.2031
" />
<path d="M5.3846 46.2031
L5.6870 46.2031
" />
<path d="M5.6870 46.2031
L5.8079 46.2636
" />
<path d="M5.8079 46.2636
L5.8684 46.3241
" />
<path d="M5.8684 46.3241
L5.9289 46.4450
" />
<path d="M5.9289 46.4450
L5.9289 46.7474
" />
<path d="M5.9289 46.7474
L5.8684 46.8684
" />
<path d="M5.8684 46.8684
L5.8079 46.9289
" />
<path d="M5.8079 46.9289
L5.6870 46.9893
" />
<path d="M5.6870 46.9893
L5.3846 46.9893
" />
<path d="M5.3846 46.9893
L5.2636 46.9289
" />
<path d="M5.2636 46.9289
L5.2032 46.8684
" />
</g></g>
<g style="fill:#840000; fill-opacity:0.0; 
stroke:#840000; stroke-width:0.1524; stroke-opacity:1; 
stroke-linecap:round; stroke-linejoin:round;">
<path d="M6.8663 49.9388
L3.0563 49.9388
" />
</g>
<g style="fill:#A90000; fill-opacity:0.0; 
stroke:#A90000; stroke-width:0.1524; stroke-opacity:1; 
stroke-linecap:round; stroke-linejoin:round;">
<text x="4.9613" y="49.6848"
textLength="2.5460" font-size="1.6933" lengthAdjust="spacingAndGlyphs"
text-anchor="middle" opacity="0">16</text>
<g class="stroked-text"><desc>16</desc>
<path d="M4.7194 49.5293
L3.9937 49.5293
" />
<path d="M4.3565 49.5293
L4.3565 48.2593
" />
<path d="M4.3565 48.2593
L4.2356 48.4408
" />
<path d="M4.2356 48.4408
L4.1146 48.5617
" />
<path d="M4.1146 48.5617
L3.9937 48.6222
" />
<path d="M5.8079 48.2593
L5.5660 48.2593
" />
<path d="M5.5660 48.2593
L5.4451 48.3198
" />
<path d="M5.4451 48.3198
L5.3846 48.3803
" />
<path d="M5.3846 48.3803
L5.2636 48.5617
" />
<path d="M5.2636 48.5617
L5.2032 48.8036
" />
<path d="M5.2032 48.8036
L5.2032 49.2874
" />
<path d="M5.2032 49.2874
L5.2636 49.4084
" />
<path d="M5.2636 49.4084
L5.3241 49.4689
" />
<path d="M5.3241 49.4689
L5.4451 49.5293
" />
<path d="M5.4451 49.5293
L5.6870 49.5293
" />
<path d="M5.6870 49.5293
L5.8079 49.4689
" />
<path d="M5.8079 49.4689
L5.8684 49.4084
" />
<path d="M5.8684 49.4084
L5.9289 49.2874
" />
<path d="M5.9289 49.2874
L5.9289 48.9850
" />
<path d="M5.9289 48.9850
L5.8684 48.8641
" />
<path d="M5.8684 48.8641
L5.8079 48.8036
" />
<path d="M5.8079 48.8036
L5.6870 48.7431
" />
<path d="M5.6870 48.7431
L5.4451 48.7431
" />
<path d="M5.4451 48.7431
L5.3241 48.8036
" />
<path d="M5.3241 48.8036
L5.2636 48.8641
" />
<path d="M5.2636 48.8641
L5.2032 48.9850
" />
</g></g>
<g style="fill:#840000; fill-opacity:0.0; 
stroke:#840000; stroke-width:0.1524; stroke-opacity:1; 
stroke-linecap:round; stroke-linejoin:round;">
<path d="M6.8663 52.4788
L3.0563 52.4788
" />
</g>
<g style="fill:#A90000; fill-opacity:0.0; 
stroke:#A90000; stroke-width:0.1524; stroke-opacity:1; 
stroke-linecap:round; stroke-linejoin:round;">
<text x="4.9613" y="52.2248"
textLength="2.5460" font-size="1.6933" lengthAdjust="spacingAndGlyphs"
text-anchor="middle" opacity="0">17</text>
<g class="stroked-text"><desc>17</desc>
<path d="M4.7194 52.0693
L3.9937 52.0693
" />
<path d="M4.3565 52.0693
L4.3565 50.7993
" />
<path d="M4.3565 50.7993
L4.2356 50.9808
" />
<path d="M4.2356 50.9808
L4.1146 51.1017
" />
<path d="M4.1146 51.1017
L3.9937 51.1622
" />
<path d="M5.1427 50.7993
L5.9893 50.7993
" />
<path d="M5.9893 50.7993
L5.4451 52.0693
" />
</g></g>
<g style="fill:#840000; fill-opacity:0.0; 
stroke:#840000; stroke-width:0.1524; stroke-opacity:1; 
stroke-linecap:round; stroke-linejoin:round;">
<path d="M6.8663 55.0188
L3.0563 55.0188
" />
</g>
<g style="fill:#A90000; fill-opacity:0.0; 
stroke:#A90000; stroke-width:0.1524; stroke-opacity:1; 
stroke-linecap:round; stroke-linejoin:round;">
<text x="4.9613" y="54.7648"
textLength="2.5460" font-size="1.6933" lengthAdjust="spacingAndGlyphs"
text-anchor="middle" opacity="0">18</text>
<g class="stroked-text"><desc>18</desc>
<path d="M4.7194 54.6093
L3.9937 54.6093
" />
<path d="M4.3565 54.6093
L4.3565 53.3393
" />
<path d="M4.3565 53.3393
L4.2356 53.5208
" />
<path d="M4.2356 53.5208
L4.1146 53.6417
" />
<path d="M4.1146 53.6417
L3.9937 53.7022
" />
<path d="M5.4451 53.8836
L5.3241 53.8231
" />
<path d="M5.3241 53.8231
L5.2636 53.7627
" />
<path d="M5.2636 53.7627
L5.2032 53.6417
" />
<path d="M5.2032 53.6417
L5.2032 53.5812
" />
<path d="M5.2032 53.5812
L5.2636 53.4603
" />
<path d="M5.2636 53.4603
L5.3241 53.3998
" />
<path d="M5.3241 53.3998
L5.4451 53.3393
" />
<path d="M5.4451 53.3393
L5.6870 53.3393
" />
<path d="M5.6870 53.3393
L5.8079 53.3998
" />
<path d="M5.8079 53.3998
L5.8684 53.4603
" />
<path d="M5.8684 53.4603
L5.9289 53.5812
" />
<path d="M5.9289 53.5812
L5.9289 53.6417
" />
<path d="M5.9289 53.6417
L5.8684 53.7627
" />
<path d="M5.8684 53.7627
L5.8079 53.8231
" />
<path d="M5.8079 53.8231
L5.6870 53.8836
" />
<path d="M5.6870 53.8836
L5.4451 53.8836
" />
<path d="M5.4451 53.8836
L5.3241 53.9441
" />
<path d="M5.3241 53.9441
L5.2636 54.0046
" />
<path d="M5.2636 54.0046
L5.2032 54.1255
" />
<path d="M5.2032 54.1255
L5.2032 54.3674
" />
<path d="M5.2032 54.3674
L5.2636 54.4884
" />
<path d="M5.2636 54.4884
L5.3241 54.5489
" />
<path d="M5.3241 54.5489
L5.4451 54.6093
" />
<path d="M5.4451 54.6093
L5.6870 54.6093
" />
<path d="M5.6870 54.6093
L5.8079 54.5489
" />
<path d="M5.8079 54.5489
L5.8684 54.4884
" />
<path d="M5.8684 54.4884
L5.9289 54.3674
" />
<path d="M5.9289 54.3674
L5.9289 54.1255
" />
<path d="M5.9289 54.1255
L5.8684 54.0046
" />
<path d="M5.8684 54.0046
L5.8079 53.9441
" />
<path d="M5.8079 53.9441
L5.6870 53.8836
" />
</g></g>
<g style="fill:#840000; fill-opacity:0.0; 
stroke:#840000; stroke-width:0.1524; stroke-opacity:1; 
stroke-linecap:round; stroke-linejoin:round;">
<path d="M6.8663 57.5588
L3.0563 57.5588
" />
</g>
<g style="fill:#A90000; fill-opacity:0.0; 
stroke:#A90000; stroke-width:0.1524; stroke-opacity:1; 
stroke-linecap:round; stroke-linejoin:round;">
<text x="4.9613" y="57.3048"
textLength="2.5460" font-size="1.6933" lengthAdjust="spacingAndGlyphs"
text-anchor="middle" opacity="0">19</text>
<g class="stroked-text"><desc>19</desc>
<path d="M4.7194 57.1493
L3.9937 57.1493
" />
<path d="M4.3565 57.1493
L4.3565 55.8793
" />
<path d="M4.3565 55.8793
L4.2356 56.0608
" />
<path d="M4.2356 56.0608
L4.1146 56.1817
" />
<path d="M4.1146 56.1817
L3.9937 56.2422
" />
<path d="M5.3241 57.1493
L5.5660 57.1493
" />
<path d="M5.5660 57.1493
L5.6870 57.0889
" />
<path d="M5.6870 57.0889
L5.7474 57.0284
" />
<path d="M5.7474 57.0284
L5.8684 56.8469
" />
<path d="M5.8684 56.8469
L5.9289 56.6050
" />
<path d="M5.9289 56.6050
L5.9289 56.1212
" />
<path d="M5.9289 56.1212
L5.8684 56.0003
" />
<path d="M5.8684 56.0003
L5.8079 55.9398
" />
<path d="M5.8079 55.9398
L5.6870 55.8793
" />
<path d="M5.6870 55.8793
L5.4451 55.8793
" />
<path d="M5.4451 55.8793
L5.3241 55.9398
" />
<path d="M5.3241 55.9398
L5.2636 56.0003
" />
<path d="M5.2636 56.0003
L5.2032 56.1212
" />
<path d="M5.2032 56.1212
L5.2032 56.4236
" />
<path d="M5.2032 56.4236
L5.2636 56.5446
" />
<path d="M5.2636 56.5446
L5.3241 56.6050
" />
<path d="M5.3241 56.6050
L5.4451 56.6655
" />
<path d="M5.4451 56.6655
L5.6870 56.6655
" />
<path d="M5.6870 56.6655
L5.8079 56.6050
" />
<path d="M5.8079 56.6050
L5.8684 56.5446
" />
<path d="M5.8684 56.5446
L5.9289 56.4236
" />
</g></g>
<g style="fill:#840000; fill-opacity:0.0; 
stroke:#840000; stroke-width:0.1524; stroke-opacity:1; 
stroke-linecap:round; stroke-linejoin:round;">
<path d="M6.8663 14.3788
L3.0563 14.3788
" />
</g>
<g style="fill:#A90000; fill-opacity:0.0; 
stroke:#A90000; stroke-width:0.1524; stroke-opacity:1; 
stroke-linecap:round; stroke-linejoin:round;">
<text x="4.9613" y="14.1248"
textLength="1.3365" font-size="1.6933" lengthAdjust="spacingAndGlyphs"
text-anchor="middle" opacity="0">2</text>
<g class="stroked-text"><desc>2</desc>
<path d="M4.5985 12.8203
L4.6589 12.7598
" />
<path d="M4.6589 12.7598
L4.7799 12.6993
" />
<path d="M4.7799 12.6993
L5.0823 12.6993
" />
<path d="M5.0823 12.6993
L5.2032 12.7598
" />
<path d="M5.2032 12.7598
L5.2637 12.8203
" />
<path d="M5.2637 12.8203
L5.3242 12.9412
" />
<path d="M5.3242 12.9412
L5.3242 13.0622
" />
<path d="M5.3242 13.0622
L5.2637 13.2436
" />
<path d="M5.2637 13.2436
L4.5380 13.9693
" />
<path d="M4.5380 13.9693
L5.3242 13.9693
" />
</g></g>
<g style="fill:#840000; fill-opacity:0.0; 
stroke:#840000; stroke-width:0.1524; stroke-opacity:1; 
stroke-linecap:round; stroke-linejoin:round;">
<path d="M6.8663 60.0988
L3.0563 60.0988
" />
</g>
<g style="fill:#A90000; fill-opacity:0.0; 
stroke:#A90000; stroke-width:0.1524; stroke-opacity:1; 
stroke-linecap:round; stroke-linejoin:round;">
<text x="4.9613" y="59.8448"
textLength="2.5460" font-size="1.6933" lengthAdjust="spacingAndGlyphs"
text-anchor="middle" opacity="0">20</text>
<g class="stroked-text"><desc>20</desc>
<path d="M3.9937 58.5403
L4.0541 58.4798
" />
<path d="M4.0541 58.4798
L4.1751 58.4193
" />
<path d="M4.1751 58.4193
L4.4775 58.4193
" />
<path d="M4.4775 58.4193
L4.5984 58.4798
" />
<path d="M4.5984 58.4798
L4.6589 58.5403
" />
<path d="M4.6589 58.5403
L4.7194 58.6612
" />
<path d="M4.7194 58.6612
L4.7194 58.7822
" />
<path d="M4.7194 58.7822
L4.6589 58.9636
" />
<path d="M4.6589 58.9636
L3.9332 59.6893
" />
<path d="M3.9332 59.6893
L4.7194 59.6893
" />
<path d="M5.5055 58.4193
L5.6265 58.4193
" />
<path d="M5.6265 58.4193
L5.7474 58.4798
" />
<path d="M5.7474 58.4798
L5.8079 58.5403
" />
<path d="M5.8079 58.5403
L5.8684 58.6612
" />
<path d="M5.8684 58.6612
L5.9289 58.9031
" />
<path d="M5.9289 58.9031
L5.9289 59.2055
" />
<path d="M5.9289 59.2055
L5.8684 59.4474
" />
<path d="M5.8684 59.4474
L5.8079 59.5684
" />
<path d="M5.8079 59.5684
L5.7474 59.6289
" />
<path d="M5.7474 59.6289
L5.6265 59.6893
" />
<path d="M5.6265 59.6893
L5.5055 59.6893
" />
<path d="M5.5055 59.6893
L5.3846 59.6289
" />
<path d="M5.3846 59.6289
L5.3241 59.5684
" />
<path d="M5.3241 59.5684
L5.2636 59.4474
" />
<path d="M5.2636 59.4474
L5.2032 59.2055
" />
<path d="M5.2032 59.2055
L5.2032 58.9031
" />
<path d="M5.2032 58.9031
L5.2636 58.6612
" />
<path d="M5.2636 58.6612
L5.3241 58.5403
" />
<path d="M5.3241 58.5403
L5.3846 58.4798
" />
<path d="M5.3846 58.4798
L5.5055 58.4193
" />
</g></g>
<g style="fill:#840000; fill-opacity:0.0; 
stroke:#840000; stroke-width:0.1524; stroke-opacity:1; 
stroke-linecap:round; stroke-linejoin:round;">
<path d="M6.8663 62.6388
L3.0563 62.6388
" />
</g>
<g style="fill:#A90000; fill-opacity:0.0; 
stroke:#A90000; stroke-width:0.1524; stroke-opacity:1; 
stroke-linecap:round; stroke-linejoin:round;">
<text x="4.9613" y="62.3848"
textLength="2.5460" font-size="1.6933" lengthAdjust="spacingAndGlyphs"
text-anchor="middle" opacity="0">21</text>
<g class="stroked-text"><desc>21</desc>
<path d="M3.9937 61.0803
L4.0541 61.0198
" />
<path d="M4.0541 61.0198
L4.1751 60.9593
" />
<path d="M4.1751 60.9593
L4.4775 60.9593
" />
<path d="M4.4775 60.9593
L4.5984 61.0198
" />
<path d="M4.5984 61.0198
L4.6589 61.0803
" />
<path d="M4.6589 61.0803
L4.7194 61.2012
" />
<path d="M4.7194 61.2012
L4.7194 61.3222
" />
<path d="M4.7194 61.3222
L4.6589 61.5036
" />
<path d="M4.6589 61.5036
L3.9332 62.2293
" />
<path d="M3.9332 62.2293
L4.7194 62.2293
" />
<path d="M5.9289 62.2293
L5.2032 62.2293
" />
<path d="M5.5660 62.2293
L5.5660 60.9593
" />
<path d="M5.5660 60.9593
L5.4451 61.1408
" />
<path d="M5.4451 61.1408
L5.3241 61.2617
" />
<path d="M5.3241 61.2617
L5.2032 61.3222
" />
</g></g>
<g style="fill:#840000; fill-opacity:0.0; 
stroke:#840000; stroke-width:0.1524; stroke-opacity:1; 
stroke-linecap:round; stroke-linejoin:round;">
<path d="M6.8663 65.1788
L3.0563 65.1788
" />
</g>
<g style="fill:#A90000; fill-opacity:0.0; 
stroke:#A90000; stroke-width:0.1524; stroke-opacity:1; 
stroke-linecap:round; stroke-linejoin:round;">
<text x="4.9613" y="64.9248"
textLength="2.5460" font-size="1.6933" lengthAdjust="spacingAndGlyphs"
text-anchor="middle" opacity="0">22</text>
<g class="stroked-text"><desc>22</desc>
<path d="M3.9937 63.6203
L4.0541 63.5598
" />
<path d="M4.0541 63.5598
L4.1751 63.4993
" />
<path d="M4.1751 63.4993
L4.4775 63.4993
" />
<path d="M4.4775 63.4993
L4.5984 63.5598
" />
<path d="M4.5984 63.5598
L4.6589 63.6203
" />
<path d="M4.6589 63.6203
L4.7194 63.7412
" />
<path d="M4.7194 63.7412
L4.7194 63.8622
" />
<path d="M4.7194 63.8622
L4.6589 64.0436
" />
<path d="M4.6589 64.0436
L3.9332 64.7693
" />
<path d="M3.9332 64.7693
L4.7194 64.7693
" />
<path d="M5.2032 63.6203
L5.2636 63.5598
" />
<path d="M5.2636 63.5598
L5.3846 63.4993
" />
<path d="M5.3846 63.4993
L5.6870 63.4993
" />
<path d="M5.6870 63.4993
L5.8079 63.5598
" />
<path d="M5.8079 63.5598
L5.8684 63.6203
" />
<path d="M5.8684 63.6203
L5.9289 63.7412
" />
<path d="M5.9289 63.7412
L5.9289 63.8622
" />
<path d="M5.9289 63.8622
L5.8684 64.0436
" />
<path d="M5.8684 64.0436
L5.1427 64.7693
" />
<path d="M5.1427 64.7693
L5.9289 64.7693
" />
</g></g>
<g style="fill:#840000; fill-opacity:0.0; 
stroke:#840000; stroke-width:0.1524; stroke-opacity:1; 
stroke-linecap:round; stroke-linejoin:round;">
<path d="M6.8663 67.7188
L3.0563 67.7188
" />
</g>
<g style="fill:#A90000; fill-opacity:0.0; 
stroke:#A90000; stroke-width:0.1524; stroke-opacity:1; 
stroke-linecap:round; stroke-linejoin:round;">
<text x="4.9613" y="67.4648"
textLength="2.5460" font-size="1.6933" lengthAdjust="spacingAndGlyphs"
text-anchor="middle" opacity="0">23</text>
<g class="stroked-text"><desc>23</desc>
<path d="M3.9937 66.1603
L4.0541 66.0998
" />
<path d="M4.0541 66.0998
L4.1751 66.0393
" />
<path d="M4.1751 66.0393
L4.4775 66.0393
" />
<path d="M4.4775 66.0393
L4.5984 66.0998
" />
<path d="M4.5984 66.0998
L4.6589 66.1603
" />
<path d="M4.6589 66.1603
L4.7194 66.2812
" />
<path d="M4.7194 66.2812
L4.7194 66.4022
" />
<path d="M4.7194 66.4022
L4.6589 66.5836
" />
<path d="M4.6589 66.5836
L3.9332 67.3093
" />
<path d="M3.9332 67.3093
L4.7194 67.3093
" />
<path d="M5.1427 66.0393
L5.9289 66.0393
" />
<path d="M5.9289 66.0393
L5.5055 66.5231
" />
<path d="M5.5055 66.5231
L5.6870 66.5231
" />
<path d="M5.6870 66.5231
L5.8079 66.5836
" />
<path d="M5.8079 66.5836
L5.8684 66.6441
" />
<path d="M5.8684 66.6441
L5.9289 66.7650
" />
<path d="M5.9289 66.7650
L5.9289 67.0674
" />
<path d="M5.9289 67.0674
L5.8684 67.1884
" />
<path d="M5.8684 67.1884
L5.8079 67.2489
" />
<path d="M5.8079 67.2489
L5.6870 67.3093
" />
<path d="M5.6870 67.3093
L5.3241 67.3093
" />
<path d="M5.3241 67.3093
L5.2032 67.2489
" />
<path d="M5.2032 67.2489
L5.1427 67.1884
" />
</g></g>
<g style="fill:#840000; fill-opacity:0.0; 
stroke:#840000; stroke-width:0.1524; stroke-opacity:1; 
stroke-linecap:round; stroke-linejoin:round;">
<path d="M6.8663 70.2588
L3.0563 70.2588
" />
</g>
<g style="fill:#A90000; fill-opacity:0.0; 
stroke:#A90000; stroke-width:0.1524; stroke-opacity:1; 
stroke-linecap:round; stroke-linejoin:round;">
<text x="4.9613" y="70.0048"
textLength="2.5460" font-size="1.6933" lengthAdjust="spacingAndGlyphs"
text-anchor="middle" opacity="0">24</text>
<g class="stroked-text"><desc>24</desc>
<path d="M3.9937 68.7003
L4.0541 68.6398
" />
<path d="M4.0541 68.6398
L4.1751 68.5793
" />
<path d="M4.1751 68.5793
L4.4775 68.5793
" />
<path d="M4.4775 68.5793
L4.5984 68.6398
" />
<path d="M4.5984 68.6398
L4.6589 68.7003
" />
<path d="M4.6589 68.7003
L4.7194 68.8212
" />
<path d="M4.7194 68.8212
L4.7194 68.9422
" />
<path d="M4.7194 68.9422
L4.6589 69.1236
" />
<path d="M4.6589 69.1236
L3.9332 69.8493
" />
<path d="M3.9332 69.8493
L4.7194 69.8493
" />
<path d="M5.8079 69.0027
L5.8079 69.8493
" />
<path d="M5.5055 68.5189
L5.2032 69.4260
" />
<path d="M5.2032 69.4260
L5.9893 69.4260
" />
</g></g>
<g style="fill:#840000; fill-opacity:0.0; 
stroke:#840000; stroke-width:0.1524; stroke-opacity:1; 
stroke-linecap:round; stroke-linejoin:round;">
<path d="M6.8663 72.7988
L3.0563 72.7988
" />
</g>
<g style="fill:#A90000; fill-opacity:0.0; 
stroke:#A90000; stroke-width:0.1524; stroke-opacity:1; 
stroke-linecap:round; stroke-linejoin:round;">
<text x="4.9613" y="72.5448"
textLength="2.5460" font-size="1.6933" lengthAdjust="spacingAndGlyphs"
text-anchor="middle" opacity="0">25</text>
<g class="stroked-text"><desc>25</desc>
<path d="M3.9937 71.2403
L4.0541 71.1798
" />
<path d="M4.0541 71.1798
L4.1751 71.1193
" />
<path d="M4.1751 71.1193
L4.4775 71.1193
" />
<path d="M4.4775 71.1193
L4.5984 71.1798
" />
<path d="M4.5984 71.1798
L4.6589 71.2403
" />
<path d="M4.6589 71.2403
L4.7194 71.3612
" />
<path d="M4.7194 71.3612
L4.7194 71.4822
" />
<path d="M4.7194 71.4822
L4.6589 71.6636
" />
<path d="M4.6589 71.6636
L3.9332 72.3893
" />
<path d="M3.9332 72.3893
L4.7194 72.3893
" />
<path d="M5.8684 71.1193
L5.2636 71.1193
" />
<path d="M5.2636 71.1193
L5.2032 71.7241
" />
<path d="M5.2032 71.7241
L5.2636 71.6636
" />
<path d="M5.2636 71.6636
L5.3846 71.6031
" />
<path d="M5.3846 71.6031
L5.6870 71.6031
" />
<path d="M5.6870 71.6031
L5.8079 71.6636
" />
<path d="M5.8079 71.6636
L5.8684 71.7241
" />
<path d="M5.8684 71.7241
L5.9289 71.8450
" />
<path d="M5.9289 71.8450
L5.9289 72.1474
" />
<path d="M5.9289 72.1474
L5.8684 72.2684
" />
<path d="M5.8684 72.2684
L5.8079 72.3289
" />
<path d="M5.8079 72.3289
L5.6870 72.3893
" />
<path d="M5.6870 72.3893
L5.3846 72.3893
" />
<path d="M5.3846 72.3893
L5.2636 72.3289
" />
<path d="M5.2636 72.3289
L5.2032 72.2684
" />
</g></g>
<g style="fill:#840000; fill-opacity:0.0; 
stroke:#840000; stroke-width:0.1524; stroke-opacity:1; 
stroke-linecap:round; stroke-linejoin:round;">
<path d="M6.8663 75.3388
L3.0563 75.3388
" />
</g>
<g style="fill:#A90000; fill-opacity:0.0; 
stroke:#A90000; stroke-width:0.1524; stroke-opacity:1; 
stroke-linecap:round; stroke-linejoin:round;">
<text x="4.9613" y="75.0848"
textLength="2.5460" font-size="1.6933" lengthAdjust="spacingAndGlyphs"
text-anchor="middle" opacity="0">26</text>
<g class="stroked-text"><desc>26</desc>
<path d="M3.9937 73.7803
L4.0541 73.7198
" />
<path d="M4.0541 73.7198
L4.1751 73.6593
" />
<path d="M4.1751 73.6593
L4.4775 73.6593
" />
<path d="M4.4775 73.6593
L4.5984 73.7198
" />
<path d="M4.5984 73.7198
L4.6589 73.7803
" />
<path d="M4.6589 73.7803
L4.7194 73.9012
" />
<path d="M4.7194 73.9012
L4.7194 74.0222
" />
<path d="M4.7194 74.0222
L4.6589 74.2036
" />
<path d="M4.6589 74.2036
L3.9332 74.9293
" />
<path d="M3.9332 74.9293
L4.7194 74.9293
" />
<path d="M5.8079 73.6593
L5.5660 73.6593
" />
<path d="M5.5660 73.6593
L5.4451 73.7198
" />
<path d="M5.4451 73.7198
L5.3846 73.7803
" />
<path d="M5.3846 73.7803
L5.2636 73.9617
" />
<path d="M5.2636 73.9617
L5.2032 74.2036
" />
<path d="M5.2032 74.2036
L5.2032 74.6874
" />
<path d="M5.2032 74.6874
L5.2636 74.8084
" />
<path d="M5.2636 74.8084
L5.3241 74.8689
" />
<path d="M5.3241 74.8689
L5.4451 74.9293
" />
<path d="M5.4451 74.9293
L5.6870 74.9293
" />
<path d="M5.6870 74.9293
L5.8079 74.8689
" />
<path d="M5.8079 74.8689
L5.8684 74.8084
" />
<path d="M5.8684 74.8084
L5.9289 74.6874
" />
<path d="M5.9289 74.6874
L5.9289 74.3850
" />
<path d="M5.9289 74.3850
L5.8684 74.2641
" />
<path d="M5.8684 74.2641
L5.8079 74.2036
" />
<path d="M5.8079 74.2036
L5.6870 74.1431
" />
<path d="M5.6870 74.1431
L5.4451 74.1431
" />
<path d="M5.4451 74.1431
L5.3241 74.2036
" />
<path d="M5.3241 74.2036
L5.2636 74.2641
" />
<path d="M5.2636 74.2641
L5.2032 74.3850
" />
</g></g>
<g style="fill:#840000; fill-opacity:0.0; 
stroke:#840000; stroke-width:0.1524; stroke-opacity:1; 
stroke-linecap:round; stroke-linejoin:round;">
<path d="M6.8663 77.8788
L3.0563 77.8788
" />
</g>
<g style="fill:#A90000; fill-opacity:0.0; 
stroke:#A90000; stroke-width:0.1524; stroke-opacity:1; 
stroke-linecap:round; stroke-linejoin:round;">
<text x="4.9613" y="77.6248"
textLength="2.5460" font-size="1.6933" lengthAdjust="spacingAndGlyphs"
text-anchor="middle" opacity="0">27</text>
<g class="stroked-text"><desc>27</desc>
<path d="M3.9937 76.3203
L4.0541 76.2598
" />
<path d="M4.0541 76.2598
L4.1751 76.1993
" />
<path d="M4.1751 76.1993
L4.4775 76.1993
" />
<path d="M4.4775 76.1993
L4.5984 76.2598
" />
<path d="M4.5984 76.2598
L4.6589 76.3203
" />
<path d="M4.6589 76.3203
L4.7194 76.4412
" />
<path d="M4.7194 76.4412
L4.7194 76.5622
" />
<path d="M4.7194 76.5622
L4.6589 76.7436
" />
<path d="M4.6589 76.7436
L3.9332 77.4693
" />
<path d="M3.9332 77.4693
L4.7194 77.4693
" />
<path d="M5.1427 76.1993
L5.9893 76.1993
" />
<path d="M5.9893 76.1993
L5.4451 77.4693
" />
</g></g>
<g style="fill:#840000; fill-opacity:0.0; 
stroke:#840000; stroke-width:0.1524; stroke-opacity:1; 
stroke-linecap:round; stroke-linejoin:round;">
<path d="M6.8663 80.4188
L3.0563 80.4188
" />
</g>
<g style="fill:#A90000; fill-opacity:0.0; 
stroke:#A90000; stroke-width:0.1524; stroke-opacity:1; 
stroke-linecap:round; stroke-linejoin:round;">
<text x="4.9613" y="80.1648"
textLength="2.5460" font-size="1.6933" lengthAdjust="spacingAndGlyphs"
text-anchor="middle" opacity="0">28</text>
<g class="stroked-text"><desc>28</desc>
<path d="M3.9937 78.8603
L4.0541 78.7998
" />
<path d="M4.0541 78.7998
L4.1751 78.7393
" />
<path d="M4.1751 78.7393
L4.4775 78.7393
" />
<path d="M4.4775 78.7393
L4.5984 78.7998
" />
<path d="M4.5984 78.7998
L4.6589 78.8603
" />
<path d="M4.6589 78.8603
L4.7194 78.9812
" />
<path d="M4.7194 78.9812
L4.7194 79.1022
" />
<path d="M4.7194 79.1022
L4.6589 79.2836
" />
<path d="M4.6589 79.2836
L3.9332 80.0093
" />
<path d="M3.9332 80.0093
L4.7194 80.0093
" />
<path d="M5.4451 79.2836
L5.3241 79.2231
" />
<path d="M5.3241 79.2231
L5.2636 79.1627
" />
<path d="M5.2636 79.1627
L5.2032 79.0417
" />
<path d="M5.2032 79.0417
L5.2032 78.9812
" />
<path d="M5.2032 78.9812
L5.2636 78.8603
" />
<path d="M5.2636 78.8603
L5.3241 78.7998
" />
<path d="M5.3241 78.7998
L5.4451 78.7393
" />
<path d="M5.4451 78.7393
L5.6870 78.7393
" />
<path d="M5.6870 78.7393
L5.8079 78.7998
" />
<path d="M5.8079 78.7998
L5.8684 78.8603
" />
<path d="M5.8684 78.8603
L5.9289 78.9812
" />
<path d="M5.9289 78.9812
L5.9289 79.0417
" />
<path d="M5.9289 79.0417
L5.8684 79.1627
" />
<path d="M5.8684 79.1627
L5.8079 79.2231
" />
<path d="M5.8079 79.2231
L5.6870 79.2836
" />
<path d="M5.6870 79.2836
L5.4451 79.2836
" />
<path d="M5.4451 79.2836
L5.3241 79.3441
" />
<path d="M5.3241 79.3441
L5.2636 79.4046
" />
<path d="M5.2636 79.4046
L5.2032 79.5255
" />
<path d="M5.2032 79.5255
L5.2032 79.7674
" />
<path d="M5.2032 79.7674
L5.2636 79.8884
" />
<path d="M5.2636 79.8884
L5.3241 79.9489
" />
<path d="M5.3241 79.9489
L5.4451 80.0093
" />
<path d="M5.4451 80.0093
L5.6870 80.0093
" />
<path d="M5.6870 80.0093
L5.8079 79.9489
" />
<path d="M5.8079 79.9489
L5.8684 79.8884
" />
<path d="M5.8684 79.8884
L5.9289 79.7674
" />
<path d="M5.9289 79.7674
L5.9289 79.5255
" />
<path d="M5.9289 79.5255
L5.8684 79.4046
" />
<path d="M5.8684 79.4046
L5.8079 79.3441
" />
<path d="M5.8079 79.3441
L5.6870 79.2836
" />
</g></g>
<g style="fill:#840000; fill-opacity:0.0; 
stroke:#840000; stroke-width:0.1524; stroke-opacity:1; 
stroke-linecap:round; stroke-linejoin:round;">
<path d="M6.8663 82.9588
L3.0563 82.9588
" />
</g>
<g style="fill:#A90000; fill-opacity:0.0; 
stroke:#A90000; stroke-width:0.1524; stroke-opacity:1; 
stroke-linecap:round; stroke-linejoin:round;">
<text x="4.9613" y="82.7048"
textLength="2.5460" font-size="1.6933" lengthAdjust="spacingAndGlyphs"
text-anchor="middle" opacity="0">29</text>
<g class="stroked-text"><desc>29</desc>
<path d="M3.9937 81.4003
L4.0541 81.3398
" />
<path d="M4.0541 81.3398
L4.1751 81.2793
" />
<path d="M4.1751 81.2793
L4.4775 81.2793
" />
<path d="M4.4775 81.2793
L4.5984 81.3398
" />
<path d="M4.5984 81.3398
L4.6589 81.4003
" />
<path d="M4.6589 81.4003
L4.7194 81.5212
" />
<path d="M4.7194 81.5212
L4.7194 81.6422
" />
<path d="M4.7194 81.6422
L4.6589 81.8236
" />
<path d="M4.6589 81.8236
L3.9332 82.5493
" />
<path d="M3.9332 82.5493
L4.7194 82.5493
" />
<path d="M5.3241 82.5493
L5.5660 82.5493
" />
<path d="M5.5660 82.5493
L5.6870 82.4889
" />
<path d="M5.6870 82.4889
L5.7474 82.4284
" />
<path d="M5.7474 82.4284
L5.8684 82.2469
" />
<path d="M5.8684 82.2469
L5.9289 82.0050
" />
<path d="M5.9289 82.0050
L5.9289 81.5212
" />
<path d="M5.9289 81.5212
L5.8684 81.4003
" />
<path d="M5.8684 81.4003
L5.8079 81.3398
" />
<path d="M5.8079 81.3398
L5.6870 81.2793
" />
<path d="M5.6870 81.2793
L5.4451 81.2793
" />
<path d="M5.4451 81.2793
L5.3241 81.3398
" />
<path d="M5.3241 81.3398
L5.2636 81.4003
" />
<path d="M5.2636 81.4003
L5.2032 81.5212
" />
<path d="M5.2032 81.5212
L5.2032 81.8236
" />
<path d="M5.2032 81.8236
L5.2636 81.9446
" />
<path d="M5.2636 81.9446
L5.3241 82.0050
" />
<path d="M5.3241 82.0050
L5.4451 82.0655
" />
<path d="M5.4451 82.0655
L5.6870 82.0655
" />
<path d="M5.6870 82.0655
L5.8079 82.0050
" />
<path d="M5.8079 82.0050
L5.8684 81.9446
" />
<path d="M5.8684 81.9446
L5.9289 81.8236
" />
</g></g>
<g style="fill:#840000; fill-opacity:0.0; 
stroke:#840000; stroke-width:0.1524; stroke-opacity:1; 
stroke-linecap:round; stroke-linejoin:round;">
<path d="M6.8663 16.9188
L3.0563 16.9188
" />
</g>
<g style="fill:#A90000; fill-opacity:0.0; 
stroke:#A90000; stroke-width:0.1524; stroke-opacity:1; 
stroke-linecap:round; stroke-linejoin:round;">
<text x="4.9613" y="16.6648"
textLength="1.3365" font-size="1.6933" lengthAdjust="spacingAndGlyphs"
text-anchor="middle" opacity="0">3</text>
<g class="stroked-text"><desc>3</desc>
<path d="M4.5380 15.2393
L5.3242 15.2393
" />
<path d="M5.3242 15.2393
L4.9008 15.7231
" />
<path d="M4.9008 15.7231
L5.0823 15.7231
" />
<path d="M5.0823 15.7231
L5.2032 15.7836
" />
<path d="M5.2032 15.7836
L5.2637 15.8441
" />
<path d="M5.2637 15.8441
L5.3242 15.9650
" />
<path d="M5.3242 15.9650
L5.3242 16.2674
" />
<path d="M5.3242 16.2674
L5.2637 16.3884
" />
<path d="M5.2637 16.3884
L5.2032 16.4489
" />
<path d="M5.2032 16.4489
L5.0823 16.5093
" />
<path d="M5.0823 16.5093
L4.7194 16.5093
" />
<path d="M4.7194 16.5093
L4.5985 16.4489
" />
<path d="M4.5985 16.4489
L4.5380 16.3884
" />
</g></g>
<g style="fill:#840000; fill-opacity:0.0; 
stroke:#840000; stroke-width:0.1524; stroke-opacity:1; 
stroke-linecap:round; stroke-linejoin:round;">
<path d="M6.8663 85.4988
L3.0563 85.4988
" />
</g>
<g style="fill:#A90000; fill-opacity:0.0; 
stroke:#A90000; stroke-width:0.1524; stroke-opacity:1; 
stroke-linecap:round; stroke-linejoin:round;">
<text x="4.9613" y="85.2448"
textLength="2.5460" font-size="1.6933" lengthAdjust="spacingAndGlyphs"
text-anchor="middle" opacity="0">30</text>
<g class="stroked-text"><desc>30</desc>
<path d="M3.9332 83.8193
L4.7194 83.8193
" />
<path d="M4.7194 83.8193
L4.2960 84.3031
" />
<path d="M4.2960 84.3031
L4.4775 84.3031
" />
<path d="M4.4775 84.3031
L4.5984 84.3636
" />
<path d="M4.5984 84.3636
L4.6589 84.4241
" />
<path d="M4.6589 84.4241
L4.7194 84.5450
" />
<path d="M4.7194 84.5450
L4.7194 84.8474
" />
<path d="M4.7194 84.8474
L4.6589 84.9684
" />
<path d="M4.6589 84.9684
L4.5984 85.0289
" />
<path d="M4.5984 85.0289
L4.4775 85.0893
" />
<path d="M4.4775 85.0893
L4.1146 85.0893
" />
<path d="M4.1146 85.0893
L3.9937 85.0289
" />
<path d="M3.9937 85.0289
L3.9332 84.9684
" />
<path d="M5.5055 83.8193
L5.6265 83.8193
" />
<path d="M5.6265 83.8193
L5.7474 83.8798
" />
<path d="M5.7474 83.8798
L5.8079 83.9403
" />
<path d="M5.8079 83.9403
L5.8684 84.0612
" />
<path d="M5.8684 84.0612
L5.9289 84.3031
" />
<path d="M5.9289 84.3031
L5.9289 84.6055
" />
<path d="M5.9289 84.6055
L5.8684 84.8474
" />
<path d="M5.8684 84.8474
L5.8079 84.9684
" />
<path d="M5.8079 84.9684
L5.7474 85.0289
" />
<path d="M5.7474 85.0289
L5.6265 85.0893
" />
<path d="M5.6265 85.0893
L5.5055 85.0893
" />
<path d="M5.5055 85.0893
L5.3846 85.0289
" />
<path d="M5.3846 85.0289
L5.3241 84.9684
" />
<path d="M5.3241 84.9684
L5.2636 84.8474
" />
<path d="M5.2636 84.8474
L5.2032 84.6055
" />
<path d="M5.2032 84.6055
L5.2032 84.3031
" />
<path d="M5.2032 84.3031
L5.2636 84.0612
" />
<path d="M5.2636 84.0612
L5.3241 83.9403
" />
<path d="M5.3241 83.9403
L5.3846 83.8798
" />
<path d="M5.3846 83.8798
L5.5055 83.8193
" />
</g></g>
<g style="fill:#840000; fill-opacity:0.0; 
stroke:#840000; stroke-width:0.1524; stroke-opacity:1; 
stroke-linecap:round; stroke-linejoin:round;">
<path d="M6.8663 88.0388
L3.0563 88.0388
" />
</g>
<g style="fill:#A90000; fill-opacity:0.0; 
stroke:#A90000; stroke-width:0.1524; stroke-opacity:1; 
stroke-linecap:round; stroke-linejoin:round;">
<text x="4.9613" y="87.7848"
textLength="2.5460" font-size="1.6933" lengthAdjust="spacingAndGlyphs"
text-anchor="middle" opacity="0">31</text>
<g class="stroked-text"><desc>31</desc>
<path d="M3.9332 86.3593
L4.7194 86.3593
" />
<path d="M4.7194 86.3593
L4.2960 86.8431
" />
<path d="M4.2960 86.8431
L4.4775 86.8431
" />
<path d="M4.4775 86.8431
L4.5984 86.9036
" />
<path d="M4.5984 86.9036
L4.6589 86.9641
" />
<path d="M4.6589 86.9641
L4.7194 87.0850
" />
<path d="M4.7194 87.0850
L4.7194 87.3874
" />
<path d="M4.7194 87.3874
L4.6589 87.5084
" />
<path d="M4.6589 87.5084
L4.5984 87.5689
" />
<path d="M4.5984 87.5689
L4.4775 87.6293
" />
<path d="M4.4775 87.6293
L4.1146 87.6293
" />
<path d="M4.1146 87.6293
L3.9937 87.5689
" />
<path d="M3.9937 87.5689
L3.9332 87.5084
" />
<path d="M5.9289 87.6293
L5.2032 87.6293
" />
<path d="M5.5660 87.6293
L5.5660 86.3593
" />
<path d="M5.5660 86.3593
L5.4451 86.5408
" />
<path d="M5.4451 86.5408
L5.3241 86.6617
" />
<path d="M5.3241 86.6617
L5.2032 86.7222
" />
</g></g>
<g style="fill:#840000; fill-opacity:0.0; 
stroke:#840000; stroke-width:0.1524; stroke-opacity:1; 
stroke-linecap:round; stroke-linejoin:round;">
<path d="M6.8663 19.4588
L3.0563 19.4588
" />
</g>
<g style="fill:#A90000; fill-opacity:0.0; 
stroke:#A90000; stroke-width:0.1524; stroke-opacity:1; 
stroke-linecap:round; stroke-linejoin:round;">
<text x="4.9613" y="19.2048"
textLength="1.3365" font-size="1.6933" lengthAdjust="spacingAndGlyphs"
text-anchor="middle" opacity="0">4</text>
<g class="stroked-text"><desc>4</desc>
<path d="M5.2032 18.2027
L5.2032 19.0493
" />
<path d="M4.9008 17.7189
L4.5985 18.6260
" />
<path d="M4.5985 18.6260
L5.3846 18.6260
" />
</g></g>
<g style="fill:#840000; fill-opacity:0.0; 
stroke:#840000; stroke-width:0.1524; stroke-opacity:1; 
stroke-linecap:round; stroke-linejoin:round;">
<path d="M6.8663 21.9988
L3.0563 21.9988
" />
</g>
<g style="fill:#A90000; fill-opacity:0.0; 
stroke:#A90000; stroke-width:0.1524; stroke-opacity:1; 
stroke-linecap:round; stroke-linejoin:round;">
<text x="4.9613" y="21.7448"
textLength="1.3365" font-size="1.6933" lengthAdjust="spacingAndGlyphs"
text-anchor="middle" opacity="0">5</text>
<g class="stroked-text"><desc>5</desc>
<path d="M5.2637 20.3193
L4.6589 20.3193
" />
<path d="M4.6589 20.3193
L4.5985 20.9241
" />
<path d="M4.5985 20.9241
L4.6589 20.8636
" />
<path d="M4.6589 20.8636
L4.7799 20.8031
" />
<path d="M4.7799 20.8031
L5.0823 20.8031
" />
<path d="M5.0823 20.8031
L5.2032 20.8636
" />
<path d="M5.2032 20.8636
L5.2637 20.9241
" />
<path d="M5.2637 20.9241
L5.3242 21.0450
" />
<path d="M5.3242 21.0450
L5.3242 21.3474
" />
<path d="M5.3242 21.3474
L5.2637 21.4684
" />
<path d="M5.2637 21.4684
L5.2032 21.5289
" />
<path d="M5.2032 21.5289
L5.0823 21.5893
" />
<path d="M5.0823 21.5893
L4.7799 21.5893
" />
<path d="M4.7799 21.5893
L4.6589 21.5289
" />
<path d="M4.6589 21.5289
L4.5985 21.4684
" />
</g></g>
<g style="fill:#840000; fill-opacity:0.0; 
stroke:#840000; stroke-width:0.1524; stroke-opacity:1; 
stroke-linecap:round; stroke-linejoin:round;">
<path d="M6.8663 24.5388
L3.0563 24.5388
" />
</g>
<g style="fill:#A90000; fill-opacity:0.0; 
stroke:#A90000; stroke-width:0.1524; stroke-opacity:1; 
stroke-linecap:round; stroke-linejoin:round;">
<text x="4.9613" y="24.2848"
textLength="1.3365" font-size="1.6933" lengthAdjust="spacingAndGlyphs"
text-anchor="middle" opacity="0">6</text>
<g class="stroked-text"><desc>6</desc>
<path d="M5.2032 22.8593
L4.9613 22.8593
" />
<path d="M4.9613 22.8593
L4.8404 22.9198
" />
<path d="M4.8404 22.9198
L4.7799 22.9803
" />
<path d="M4.7799 22.9803
L4.6589 23.1617
" />
<path d="M4.6589 23.1617
L4.5985 23.4036
" />
<path d="M4.5985 23.4036
L4.5985 23.8874
" />
<path d="M4.5985 23.8874
L4.6589 24.0084
" />
<path d="M4.6589 24.0084
L4.7194 24.0689
" />
<path d="M4.7194 24.0689
L4.8404 24.1293
" />
<path d="M4.8404 24.1293
L5.0823 24.1293
" />
<path d="M5.0823 24.1293
L5.2032 24.0689
" />
<path d="M5.2032 24.0689
L5.2637 24.0084
" />
<path d="M5.2637 24.0084
L5.3242 23.8874
" />
<path d="M5.3242 23.8874
L5.3242 23.5850
" />
<path d="M5.3242 23.5850
L5.2637 23.4641
" />
<path d="M5.2637 23.4641
L5.2032 23.4036
" />
<path d="M5.2032 23.4036
L5.0823 23.3431
" />
<path d="M5.0823 23.3431
L4.8404 23.3431
" />
<path d="M4.8404 23.3431
L4.7194 23.4036
" />
<path d="M4.7194 23.4036
L4.6589 23.4641
" />
<path d="M4.6589 23.4641
L4.5985 23.5850
" />
</g></g>
<g style="fill:#840000; fill-opacity:0.0; 
stroke:#840000; stroke-width:0.1524; stroke-opacity:1; 
stroke-linecap:round; stroke-linejoin:round;">
<path d="M6.8663 27.0788
L3.0563 27.0788
" />
</g>
<g style="fill:#A90000; fill-opacity:0.0; 
stroke:#A90000; stroke-width:0.1524; stroke-opacity:1; 
stroke-linecap:round; stroke-linejoin:round;">
<text x="4.9613" y="26.8248"
textLength="1.3365" font-size="1.6933" lengthAdjust="spacingAndGlyphs"
text-anchor="middle" opacity="0">7</text>
<g class="stroked-text"><desc>7</desc>
<path d="M4.5380 25.3993
L5.3846 25.3993
" />
<path d="M5.3846 25.3993
L4.8404 26.6693
" />
</g></g>
<g style="fill:#840000; fill-opacity:0.0; 
stroke:#840000; stroke-width:0.1524; stroke-opacity:1; 
stroke-linecap:round; stroke-linejoin:round;">
<path d="M6.8663 29.6188
L3.0563 29.6188
" />
</g>
<g style="fill:#A90000; fill-opacity:0.0; 
stroke:#A90000; stroke-width:0.1524; stroke-opacity:1; 
stroke-linecap:round; stroke-linejoin:round;">
<text x="4.9613" y="29.3648"
textLength="1.3365" font-size="1.6933" lengthAdjust="spacingAndGlyphs"
text-anchor="middle" opacity="0">8</text>
<g class="stroked-text"><desc>8</desc>
<path d="M4.8404 28.4836
L4.7194 28.4231
" />
<path d="M4.7194 28.4231
L4.6589 28.3627
" />
<path d="M4.6589 28.3627
L4.5985 28.2417
" />
<path d="M4.5985 28.2417
L4.5985 28.1812
" />
<path d="M4.5985 28.1812
L4.6589 28.0603
" />
<path d="M4.6589 28.0603
L4.7194 27.9998
" />
<path d="M4.7194 27.9998
L4.8404 27.9393
" />
<path d="M4.8404 27.9393
L5.0823 27.9393
" />
<path d="M5.0823 27.9393
L5.2032 27.9998
" />
<path d="M5.2032 27.9998
L5.2637 28.0603
" />
<path d="M5.2637 28.0603
L5.3242 28.1812
" />
<path d="M5.3242 28.1812
L5.3242 28.2417
" />
<path d="M5.3242 28.2417
L5.2637 28.3627
" />
<path d="M5.2637 28.3627
L5.2032 28.4231
" />
<path d="M5.2032 28.4231
L5.0823 28.4836
" />
<path d="M5.0823 28.4836
L4.8404 28.4836
" />
<path d="M4.8404 28.4836
L4.7194 28.5441
" />
<path d="M4.7194 28.5441
L4.6589 28.6046
" />
<path d="M4.6589 28.6046
L4.5985 28.7255
" />
<path d="M4.5985 28.7255
L4.5985 28.9674
" />
<path d="M4.5985 28.9674
L4.6589 29.0884
" />
<path d="M4.6589 29.0884
L4.7194 29.1489
" />
<path d="M4.7194 29.1489
L4.8404 29.2093
" />
<path d="M4.8404 29.2093
L5.0823 29.2093
" />
<path d="M5.0823 29.2093
L5.2032 29.1489
" />
<path d="M5.2032 29.1489
L5.2637 29.0884
" />
<path d="M5.2637 29.0884
L5.3242 28.9674
" />
<path d="M5.3242 28.9674
L5.3242 28.7255
" />
<path d="M5.3242 28.7255
L5.2637 28.6046
" />
<path d="M5.2637 28.6046
L5.2032 28.5441
" />
<path d="M5.2032 28.5441
L5.0823 28.4836
" />
</g></g>
<g style="fill:#840000; fill-opacity:0.0; 
stroke:#840000; stroke-width:0.1524; stroke-opacity:1; 
stroke-linecap:round; stroke-linejoin:round;">
<path d="M6.8663 32.1588
L3.0563 32.1588
" />
</g>
<g style="fill:#A90000; fill-opacity:0.0; 
stroke:#A90000; stroke-width:0.1524; stroke-opacity:1; 
stroke-linecap:round; stroke-linejoin:round;">
<text x="4.9613" y="31.9048"
textLength="1.3365" font-size="1.6933" lengthAdjust="spacingAndGlyphs"
text-anchor="middle" opacity="0">9</text>
<g class="stroked-text"><desc>9</desc>
<path d="M4.7194 31.7493
L4.9613 31.7493
" />
<path d="M4.9613 31.7493
L5.0823 31.6889
" />
<path d="M5.0823 31.6889
L5.1427 31.6284
" />
<path d="M5.1427 31.6284
L5.2637 31.4469
" />
<path d="M5.2637 31.4469
L5.3242 31.2050
" />
<path d="M5.3242 31.2050
L5.3242 30.7212
" />
<path d="M5.3242 30.7212
L5.2637 30.6003
" />
<path d="M5.2637 30.6003
L5.2032 30.5398
" />
<path d="M5.2032 30.5398
L5.0823 30.4793
" />
<path d="M5.0823 30.4793
L4.8404 30.4793
" />
<path d="M4.8404 30.4793
L4.7194 30.5398
" />
<path d="M4.7194 30.5398
L4.6589 30.6003
" />
<path d="M4.6589 30.6003
L4.5985 30.7212
" />
<path d="M4.5985 30.7212
L4.5985 31.0236
" />
<path d="M4.5985 31.0236
L4.6589 31.1446
" />
<path d="M4.6589 31.1446
L4.7194 31.2050
" />
<path d="M4.7194 31.2050
L4.8404 31.2655
" />
<path d="M4.8404 31.2655
L5.0823 31.2655
" />
<path d="M5.0823 31.2655
L5.2032 31.2050
" />
<path d="M5.2032 31.2050
L5.2637 31.1446
" />
<path d="M5.2637 31.1446
L5.3242 31.0236
" />
</g></g>
<g style="fill:#840000; fill-opacity:0.0; 
stroke:#840000; stroke-width:0.1524; stroke-opacity:1; 
stroke-linecap:round; stroke-linejoin:round;">
<path d="M8.1363 90.0708
L8.1363 93.1188
" />
</g>
<g style="fill:#A90000; fill-opacity:0.0; 
stroke:#A90000; stroke-width:0.1524; stroke-opacity:1; 
stroke-linecap:round; stroke-linejoin:round;">
<g transform="rotate(-90.000000 7.8823 91.5948)">
<text x="7.8823" y="91.5948"
textLength="2.8484" font-size="1.6933" lengthAdjust="spacingAndGlyphs"
text-anchor="middle" opacity="0">MP</text>
</g>
<g class="stroked-text"><desc>MP</desc>
<path d="M7.7268 92.6531
L6.4568 92.6531
" />
<path d="M6.4568 92.6531
L7.3640 92.2297
" />
<path d="M7.3640 92.2297
L6.4568 91.8064
" />
<path d="M6.4568 91.8064
L7.7268 91.8064
" />
<path d="M7.7268 91.2017
L6.4568 91.2017
" />
<path d="M6.4568 91.2017
L6.4568 90.7179
" />
<path d="M6.4568 90.7179
L6.5173 90.5969
" />
<path d="M6.5173 90.5969
L6.5778 90.5364
" />
<path d="M6.5778 90.5364
L6.6987 90.4760
" />
<path d="M6.6987 90.4760
L6.8802 90.4760
" />
<path d="M6.8802 90.4760
L7.0011 90.5364
" />
<path d="M7.0011 90.5364
L7.0616 90.5969
" />
<path d="M7.0616 90.5969
L7.1221 90.7179
" />
<path d="M7.1221 90.7179
L7.1221 91.2017
" />
</g></g>
<g style="fill:#840084; fill-opacity:0.0; 
stroke:#840084; stroke-width:0.1524; stroke-opacity:1; 
stroke-linecap:round; stroke-linejoin:round;">
</g>
<g style="fill:#006464; fill-opacity:0.0; 
stroke:#006464; stroke-width:0.1524; stroke-opacity:1; 
stroke-linecap:round; stroke-linejoin:round;">
</g>
<g style="fill:#006464; fill-opacity:0.0; 
stroke:#006464; stroke-width:0.1588; stroke-opacity:1; 
stroke-linecap:round; stroke-linejoin:round;">
<text x="8.1363" y="9.9338"
textLength="2.1992" font-size="1.6933" lengthAdjust="spacingAndGlyphs"
text-anchor="middle" opacity="0">J?</text>
<g class="stroked-text"><desc>J?</desc>
<path d="M7.7734 8.6163
L7.7734 9.5235
" />
<path d="M7.7734 9.5235
L7.7129 9.7049
" />
<path d="M7.7129 9.7049
L7.5920 9.8259
" />
<path d="M7.5920 9.8259
L7.4105 9.8863
" />
<path d="M7.4105 9.8863
L7.2896 9.8863
" />
<path d="M8.5596 9.7654
L8.6200 9.8259
" />
<path d="M8.6200 9.8259
L8.5596 9.8863
" />
<path d="M8.5596 9.8863
L8.4991 9.8259
" />
<path d="M8.4991 9.8259
L8.5596 9.7654
" />
<path d="M8.5596 9.7654
L8.5596 9.8863
" />
<path d="M8.3177 8.6768
L8.4386 8.6163
" />
<path d="M8.4386 8.6163
L8.7410 8.6163
" />
<path d="M8.7410 8.6163
L8.8619 8.6768
" />
<path d="M8.8619 8.6768
L8.9224 8.7978
" />
<path d="M8.9224 8.7978
L8.9224 8.9187
" />
<path d="M8.9224 8.9187
L8.8619 9.0397
" />
<path d="M8.8619 9.0397
L8.8015 9.1001
" />
<path d="M8.8015 9.1001
L8.6805 9.1606
" />
<path d="M8.6805 9.1606
L8.6200 9.2211
" />
<path d="M8.6200 9.2211
L8.5596 9.3420
" />
<path d="M8.5596 9.3420
L8.5596 9.4025
" />
</g><text x="21.5123" y="91.2138"
textLength="24.2120" font-size="1.6933" lengthAdjust="spacingAndGlyphs"
text-anchor="middle" opacity="0">Conn_01x31_MountingPin</text>
<g class="stroked-text"><desc>Conn_01x31_MountingPin</desc>
<path d="M10.5058 91.0454
L10.4454 91.1059
" />
<path d="M10.4454 91.1059
L10.2639 91.1663
" />
<path d="M10.2639 91.1663
L10.1430 91.1663
" />
<path d="M10.1430 91.1663
L9.9616 91.1059
" />
<path d="M9.9616 91.1059
L9.8406 90.9849
" />
<path d="M9.8406 90.9849
L9.7801 90.8639
" />
<path d="M9.7801 90.8639
L9.7197 90.6220
" />
<path d="M9.7197 90.6220
L9.7197 90.4406
" />
<path d="M9.7197 90.4406
L9.7801 90.1987
" />
<path d="M9.7801 90.1987
L9.8406 90.0778
" />
<path d="M9.8406 90.0778
L9.9616 89.9568
" />
<path d="M9.9616 89.9568
L10.1430 89.8963
" />
<path d="M10.1430 89.8963
L10.2639 89.8963
" />
<path d="M10.2639 89.8963
L10.4454 89.9568
" />
<path d="M10.4454 89.9568
L10.5058 90.0173
" />
<path d="M11.2316 91.1663
L11.1106 91.1059
" />
<path d="M11.1106 91.1059
L11.0501 91.0454
" />
<path d="M11.0501 91.0454
L10.9897 90.9244
" />
<path d="M10.9897 90.9244
L10.9897 90.5616
" />
<path d="M10.9897 90.5616
L11.0501 90.4406
" />
<path d="M11.0501 90.4406
L11.1106 90.3801
" />
<path d="M11.1106 90.3801
L11.2316 90.3197
" />
<path d="M11.2316 90.3197
L11.4130 90.3197
" />
<path d="M11.4130 90.3197
L11.5339 90.3801
" />
<path d="M11.5339 90.3801
L11.5944 90.4406
" />
<path d="M11.5944 90.4406
L11.6549 90.5616
" />
<path d="M11.6549 90.5616
L11.6549 90.9244
" />
<path d="M11.6549 90.9244
L11.5944 91.0454
" />
<path d="M11.5944 91.0454
L11.5339 91.1059
" />
<path d="M11.5339 91.1059
L11.4130 91.1663
" />
<path d="M11.4130 91.1663
L11.2316 91.1663
" />
<path d="M12.1991 90.3197
L12.1991 91.1663
" />
<path d="M12.1991 90.4406
L12.2596 90.3801
" />
<path d="M12.2596 90.3801
L12.3806 90.3197
" />
<path d="M12.3806 90.3197
L12.5620 90.3197
" />
<path d="M12.5620 90.3197
L12.6829 90.3801
" />
<path d="M12.6829 90.3801
L12.7434 90.5011
" />
<path d="M12.7434 90.5011
L12.7434 91.1663
" />
<path d="M13.3481 90.3197
L13.3481 91.1663
" />
<path d="M13.3481 90.4406
L13.4086 90.3801
" />
<path d="M13.4086 90.3801
L13.5296 90.3197
" />
<path d="M13.5296 90.3197
L13.7110 90.3197
" />
<path d="M13.7110 90.3197
L13.8319 90.3801
" />
<path d="M13.8319 90.3801
L13.8924 90.5011
" />
<path d="M13.8924 90.5011
L13.8924 91.1663
" />
<path d="M14.1948 91.2873
L15.1624 91.2873
" />
<path d="M15.7066 89.8963
L15.8276 89.8963
" />
<path d="M15.8276 89.8963
L15.9485 89.9568
" />
<path d="M15.9485 89.9568
L16.0090 90.0173
" />
<path d="M16.0090 90.0173
L16.0695 90.1382
" />
<path d="M16.0695 90.1382
L16.1300 90.3801
" />
<path d="M16.1300 90.3801
L16.1300 90.6825
" />
<path d="M16.1300 90.6825
L16.0695 90.9244
" />
<path d="M16.0695 90.9244
L16.0090 91.0454
" />
<path d="M16.0090 91.0454
L15.9485 91.1059
" />
<path d="M15.9485 91.1059
L15.8276 91.1663
" />
<path d="M15.8276 91.1663
L15.7066 91.1663
" />
<path d="M15.7066 91.1663
L15.5857 91.1059
" />
<path d="M15.5857 91.1059
L15.5252 91.0454
" />
<path d="M15.5252 91.0454
L15.4647 90.9244
" />
<path d="M15.4647 90.9244
L15.4043 90.6825
" />
<path d="M15.4043 90.6825
L15.4043 90.3801
" />
<path d="M15.4043 90.3801
L15.4647 90.1382
" />
<path d="M15.4647 90.1382
L15.5252 90.0173
" />
<path d="M15.5252 90.0173
L15.5857 89.9568
" />
<path d="M15.5857 89.9568
L15.7066 89.8963
" />
<path d="M17.3395 91.1663
L16.6138 91.1663
" />
<path d="M16.9766 91.1663
L16.9766 89.8963
" />
<path d="M16.9766 89.8963
L16.8557 90.0778
" />
<path d="M16.8557 90.0778
L16.7347 90.1987
" />
<path d="M16.7347 90.1987
L16.6138 90.2592
" />
<path d="M17.7628 91.1663
L18.4280 90.3197
" />
<path d="M17.7628 90.3197
L18.4280 91.1663
" />
<path d="M18.7909 89.8963
L19.5771 89.8963
" />
<path d="M19.5771 89.8963
L19.1537 90.3801
" />
<path d="M19.1537 90.3801
L19.3352 90.3801
" />
<path d="M19.3352 90.3801
L19.4561 90.4406
" />
<path d="M19.4561 90.4406
L19.5166 90.5011
" />
<path d="M19.5166 90.5011
L19.5771 90.6220
" />
<path d="M19.5771 90.6220
L19.5771 90.9244
" />
<path d="M19.5771 90.9244
L19.5166 91.0454
" />
<path d="M19.5166 91.0454
L19.4561 91.1059
" />
<path d="M19.4561 91.1059
L19.3352 91.1663
" />
<path d="M19.3352 91.1663
L18.9723 91.1663
" />
<path d="M18.9723 91.1663
L18.8514 91.1059
" />
<path d="M18.8514 91.1059
L18.7909 91.0454
" />
<path d="M20.7866 91.1663
L20.0609 91.1663
" />
<path d="M20.4237 91.1663
L20.4237 89.8963
" />
<path d="M20.4237 89.8963
L20.3028 90.0778
" />
<path d="M20.3028 90.0778
L20.1818 90.1987
" />
<path d="M20.1818 90.1987
L20.0609 90.2592
" />
<path d="M21.0285 91.2873
L21.9961 91.2873
" />
<path d="M22.2984 91.1663
L22.2984 89.8963
" />
<path d="M22.2984 89.8963
L22.7218 90.8035
" />
<path d="M22.7218 90.8035
L23.1451 89.8963
" />
<path d="M23.1451 89.8963
L23.1451 91.1663
" />
<path d="M23.9313 91.1663
L23.8103 91.1059
" />
<path d="M23.8103 91.1059
L23.7498 91.0454
" />
<path d="M23.7498 91.0454
L23.6894 90.9244
" />
<path d="M23.6894 90.9244
L23.6894 90.5616
" />
<path d="M23.6894 90.5616
L23.7498 90.4406
" />
<path d="M23.7498 90.4406
L23.8103 90.3801
" />
<path d="M23.8103 90.3801
L23.9313 90.3197
" />
<path d="M23.9313 90.3197
L24.1127 90.3197
" />
<path d="M24.1127 90.3197
L24.2336 90.3801
" />
<path d="M24.2336 90.3801
L24.2941 90.4406
" />
<path d="M24.2941 90.4406
L24.3546 90.5616
" />
<path d="M24.3546 90.5616
L24.3546 90.9244
" />
<path d="M24.3546 90.9244
L24.2941 91.0454
" />
<path d="M24.2941 91.0454
L24.2336 91.1059
" />
<path d="M24.2336 91.1059
L24.1127 91.1663
" />
<path d="M24.1127 91.1663
L23.9313 91.1663
" />
<path d="M25.4431 90.3197
L25.4431 91.1663
" />
<path d="M24.8988 90.3197
L24.8988 90.9849
" />
<path d="M24.8988 90.9849
L24.9593 91.1059
" />
<path d="M24.9593 91.1059
L25.0803 91.1663
" />
<path d="M25.0803 91.1663
L25.2617 91.1663
" />
<path d="M25.2617 91.1663
L25.3826 91.1059
" />
<path d="M25.3826 91.1059
L25.4431 91.0454
" />
<path d="M26.0478 90.3197
L26.0478 91.1663
" />
<path d="M26.0478 90.4406
L26.1083 90.3801
" />
<path d="M26.1083 90.3801
L26.2293 90.3197
" />
<path d="M26.2293 90.3197
L26.4107 90.3197
" />
<path d="M26.4107 90.3197
L26.5316 90.3801
" />
<path d="M26.5316 90.3801
L26.5921 90.5011
" />
<path d="M26.5921 90.5011
L26.5921 91.1663
" />
<path d="M27.0154 90.3197
L27.4992 90.3197
" />
<path d="M27.1968 89.8963
L27.1968 90.9849
" />
<path d="M27.1968 90.9849
L27.2573 91.1059
" />
<path d="M27.2573 91.1059
L27.3783 91.1663
" />
<path d="M27.3783 91.1663
L27.4992 91.1663
" />
<path d="M27.9225 91.1663
L27.9225 90.3197
" />
<path d="M27.9225 89.8963
L27.8621 89.9568
" />
<path d="M27.8621 89.9568
L27.9225 90.0173
" />
<path d="M27.9225 90.0173
L27.9830 89.9568
" />
<path d="M27.9830 89.9568
L27.9225 89.8963
" />
<path d="M27.9225 89.8963
L27.9225 90.0173
" />
<path d="M28.5273 90.3197
L28.5273 91.1663
" />
<path d="M28.5273 90.4406
L28.5878 90.3801
" />
<path d="M28.5878 90.3801
L28.7088 90.3197
" />
<path d="M28.7088 90.3197
L28.8902 90.3197
" />
<path d="M28.8902 90.3197
L29.0111 90.3801
" />
<path d="M29.0111 90.3801
L29.0716 90.5011
" />
<path d="M29.0716 90.5011
L29.0716 91.1663
" />
<path d="M30.2206 90.3197
L30.2206 91.3478
" />
<path d="M30.2206 91.3478
L30.1601 91.4687
" />
<path d="M30.1601 91.4687
L30.0997 91.5292
" />
<path d="M30.0997 91.5292
L29.9787 91.5897
" />
<path d="M29.9787 91.5897
L29.7973 91.5897
" />
<path d="M29.7973 91.5897
L29.6763 91.5292
" />
<path d="M30.2206 91.1059
L30.0997 91.1663
" />
<path d="M30.0997 91.1663
L29.8578 91.1663
" />
<path d="M29.8578 91.1663
L29.7368 91.1059
" />
<path d="M29.7368 91.1059
L29.6763 91.0454
" />
<path d="M29.6763 91.0454
L29.6159 90.9244
" />
<path d="M29.6159 90.9244
L29.6159 90.5616
" />
<path d="M29.6159 90.5616
L29.6763 90.4406
" />
<path d="M29.6763 90.4406
L29.7368 90.3801
" />
<path d="M29.7368 90.3801
L29.8578 90.3197
" />
<path d="M29.8578 90.3197
L30.0997 90.3197
" />
<path d="M30.0997 90.3197
L30.2206 90.3801
" />
<path d="M30.8253 91.1663
L30.8253 89.8963
" />
<path d="M30.8253 89.8963
L31.3091 89.8963
" />
<path d="M31.3091 89.8963
L31.4301 89.9568
" />
<path d="M31.4301 89.9568
L31.4906 90.0173
" />
<path d="M31.4906 90.0173
L31.5510 90.1382
" />
<path d="M31.5510 90.1382
L31.5510 90.3197
" />
<path d="M31.5510 90.3197
L31.4906 90.4406
" />
<path d="M31.4906 90.4406
L31.4301 90.5011
" />
<path d="M31.4301 90.5011
L31.3091 90.5616
" />
<path d="M31.3091 90.5616
L30.8253 90.5616
" />
<path d="M32.0953 91.1663
L32.0953 90.3197
" />
<path d="M32.0953 89.8963
L32.0349 89.9568
" />
<path d="M32.0349 89.9568
L32.0953 90.0173
" />
<path d="M32.0953 90.0173
L32.1558 89.9568
" />
<path d="M32.1558 89.9568
L32.0953 89.8963
" />
<path d="M32.0953 89.8963
L32.0953 90.0173
" />
<path d="M32.7001 90.3197
L32.7001 91.1663
" />
<path d="M32.7001 90.4406
L32.7606 90.3801
" />
<path d="M32.7606 90.3801
L32.8816 90.3197
" />
<path d="M32.8816 90.3197
L33.0630 90.3197
" />
<path d="M33.0630 90.3197
L33.1839 90.3801
" />
<path d="M33.1839 90.3801
L33.2444 90.5011
" />
<path d="M33.2444 90.5011
L33.2444 91.1663
" />
</g></g>
<g style="fill:#840084; fill-opacity:0.0; 
stroke:#840084; stroke-width:0.1588; stroke-opacity:1; 
stroke-linecap:round; stroke-linejoin:round;">
<text x="8.1363" y="50.5738"
textLength="1.0501" font-size="1.6933" lengthAdjust="spacingAndGlyphs"
text-anchor="middle" opacity="0">~</text>
<g class="stroked-text"><desc>~</desc>
<path d="M7.8037 50.0425
L7.8642 49.9820
" />
<path d="M7.8642 49.9820
L7.9851 49.9216
" />
<path d="M7.9851 49.9216
L8.2270 50.0425
" />
<path d="M8.2270 50.0425
L8.3480 49.9820
" />
<path d="M8.3480 49.9820
L8.4085 49.9216
" />
</g></g> 
</svg>
