<?xml version="1.0" standalone="no"?>
 <!DOCTYPE svg PUBLIC "-//W3C//DTD SVG 1.1//EN" 
 "http://www.w3.org/Graphics/SVG/1.1/DTD/svg11.dtd"> 
<svg
  xmlns:svg="http://www.w3.org/2000/svg"
  xmlns="http://www.w3.org/2000/svg"
  xmlns:xlink="http://www.w3.org/1999/xlink"
  version="1.1"
  width="64.2112mm" height="30.3276mm" viewBox="0.0000 0.0000 64.2112 30.3276">
<title>SVG Image created as working.svg date 2023/08/04 13:39:21 </title>
  <desc>Image generated by Eeschema-SVG </desc>
<g style="fill:#000000; fill-opacity:1.0000;stroke:#000000; stroke-opacity:1.0000;
stroke-linecap:round; stroke-linejoin:round;"
 transform="translate(0 0) scale(1 1)">
</g>
<g style="fill:#840000; fill-opacity:0.0; 
stroke:#840000; stroke-width:0.0000; stroke-opacity:1; 
stroke-linecap:round; stroke-linejoin:round;">
</g>
<g style="fill:#FFFFC2; fill-opacity:0.0; 
stroke:#FFFFC2; stroke-width:0.0000; stroke-opacity:1; 
stroke-linecap:round; stroke-linejoin:round;">
</g>
<g style="fill:#FFFFC2; fill-opacity:1.0000; 
stroke:#FFFFC2; stroke-width:0.0000; stroke-opacity:1; 
stroke-linecap:round; stroke-linejoin:round;">
<rect x="19.400900" y="4.819400" width="25.400000" height="22.860000" rx="0.000000" />
</g>
<g style="fill:#840084; fill-opacity:1.0000; 
stroke:#840084; stroke-width:0.0000; stroke-opacity:1; 
stroke-linecap:round; stroke-linejoin:round;">
</g>
<g style="fill:#840000; fill-opacity:1.0000; 
stroke:#840000; stroke-width:0.0000; stroke-opacity:1; 
stroke-linecap:round; stroke-linejoin:round;">
</g>
<g style="fill:#840000; fill-opacity:0.0; 
stroke:#840000; stroke-width:0.2540; stroke-opacity:1; 
stroke-linecap:round; stroke-linejoin:round;">
<rect x="19.400900" y="4.819400" width="25.400000" height="22.860000" rx="0.000000" />
</g>
<g style="fill:#840000; fill-opacity:0.0; 
stroke:#840000; stroke-width:0.1524; stroke-opacity:1; 
stroke-linecap:round; stroke-linejoin:round;">
<circle cx="25.7509" cy="18.7894" r="0.1270" /> 
<circle cx="25.7509" cy="18.7894" r="0.2540" /> 
<circle cx="25.7509" cy="13.7094" r="0.1270" /> 
<circle cx="25.7509" cy="13.7094" r="0.2540" /> 
<path style="fill:#840000; fill-opacity:0.0; 
stroke:#840000; stroke-width:0.1524; stroke-opacity:1; 
stroke-linecap:round; stroke-linejoin:round;fill:none"
d="M 27.0209,18.7894
24.4809,18.7894
" /> 
<path style="fill:#840000; fill-opacity:0.0; 
stroke:#840000; stroke-width:0.1524; stroke-opacity:1; 
stroke-linecap:round; stroke-linejoin:round;fill:none"
d="M 32.1009,23.8694
34.6409,23.8694
" /> 
<path style="fill:#840000; fill-opacity:0.0; 
stroke:#840000; stroke-width:0.1524; stroke-opacity:1; 
stroke-linecap:round; stroke-linejoin:round;fill:none"
d="M 32.1009,18.7894
34.6409,18.7894
" /> 
<path style="fill:#840000; fill-opacity:0.0; 
stroke:#840000; stroke-width:0.1524; stroke-opacity:1; 
stroke-linecap:round; stroke-linejoin:round;fill:none"
d="M 27.0209,23.8694
25.7509,23.8694
25.7509,18.7894
" /> 
<path style="fill:#840000; fill-opacity:0.0; 
stroke:#840000; stroke-width:0.1524; stroke-opacity:1; 
stroke-linecap:round; stroke-linejoin:round;fill:none"
d="M 27.0209,13.7094
24.4809,13.7094
24.4809,13.7094
" /> 
<path style="fill:#840000; fill-opacity:0.0; 
stroke:#840000; stroke-width:0.1524; stroke-opacity:1; 
stroke-linecap:round; stroke-linejoin:round;fill:none"
d="M 32.1009,8.6294
34.6409,8.6294
34.6409,8.6294
" /> 
<path style="fill:#840000; fill-opacity:0.0; 
stroke:#840000; stroke-width:0.1524; stroke-opacity:1; 
stroke-linecap:round; stroke-linejoin:round;fill:none"
d="M 34.6409,13.7094
32.1009,13.7094
32.1009,13.7094
" /> 
<path style="fill:#840000; fill-opacity:0.0; 
stroke:#840000; stroke-width:0.1524; stroke-opacity:1; 
stroke-linecap:round; stroke-linejoin:round;fill:none"
d="M 25.7509,13.7094
25.7509,8.6294
27.0209,8.6294
27.0209,8.6294
" /> 
<path style="fill:#840000; fill-opacity:0.0; 
stroke:#840000; stroke-width:0.1524; stroke-opacity:1; 
stroke-linecap:round; stroke-linejoin:round;fill:none"
d="M 27.0209,16.2494
27.0209,21.3294
32.1009,18.7894
27.0209,16.2494
Z" /> 
<path style="fill:#840000; fill-opacity:0.0; 
stroke:#840000; stroke-width:0.1524; stroke-opacity:1; 
stroke-linecap:round; stroke-linejoin:round;fill:none"
d="M 27.0209,6.0894
27.0209,11.1694
32.1009,8.6294
27.0209,6.0894
Z" /> 
<path style="fill:#840000; fill-opacity:0.0; 
stroke:#840000; stroke-width:0.1524; stroke-opacity:1; 
stroke-linecap:round; stroke-linejoin:round;fill:none"
d="M 32.1009,21.3294
27.0209,23.8694
32.1009,26.4094
32.1009,21.3294
Z" /> 
<path style="fill:#840000; fill-opacity:0.0; 
stroke:#840000; stroke-width:0.1524; stroke-opacity:1; 
stroke-linecap:round; stroke-linejoin:round;fill:none"
d="M 32.1009,11.1694
27.0209,13.7094
32.1009,16.2494
32.1009,11.1694
Z" /> 
<path d="M19.4009 13.7094
L16.8609 13.7094
" />
</g>
<g style="fill:#006464; fill-opacity:0.0; 
stroke:#006464; stroke-width:0.1524; stroke-opacity:1; 
stroke-linecap:round; stroke-linejoin:round;">
<text x="20.4169" y="14.3444"
textLength="3.7713" font-size="1.6933" lengthAdjust="spacingAndGlyphs"
text-anchor="start" opacity="0">SDA</text>
<g class="stroked-text"><desc>SDA</desc>
<path d="M20.7590 14.2285
L20.9404 14.2889
" />
<path d="M20.9404 14.2889
L21.2428 14.2889
" />
<path d="M21.2428 14.2889
L21.3637 14.2285
" />
<path d="M21.3637 14.2285
L21.4242 14.1680
" />
<path d="M21.4242 14.1680
L21.4847 14.0470
" />
<path d="M21.4847 14.0470
L21.4847 13.9261
" />
<path d="M21.4847 13.9261
L21.4242 13.8051
" />
<path d="M21.4242 13.8051
L21.3637 13.7446
" />
<path d="M21.3637 13.7446
L21.2428 13.6842
" />
<path d="M21.2428 13.6842
L21.0009 13.6237
" />
<path d="M21.0009 13.6237
L20.8799 13.5632
" />
<path d="M20.8799 13.5632
L20.8194 13.5027
" />
<path d="M20.8194 13.5027
L20.7590 13.3818
" />
<path d="M20.7590 13.3818
L20.7590 13.2608
" />
<path d="M20.7590 13.2608
L20.8194 13.1399
" />
<path d="M20.8194 13.1399
L20.8799 13.0794
" />
<path d="M20.8799 13.0794
L21.0009 13.0189
" />
<path d="M21.0009 13.0189
L21.3032 13.0189
" />
<path d="M21.3032 13.0189
L21.4847 13.0794
" />
<path d="M22.0289 14.2889
L22.0289 13.0189
" />
<path d="M22.0289 13.0189
L22.3313 13.0189
" />
<path d="M22.3313 13.0189
L22.5127 13.0794
" />
<path d="M22.5127 13.0794
L22.6337 13.2004
" />
<path d="M22.6337 13.2004
L22.6942 13.3213
" />
<path d="M22.6942 13.3213
L22.7546 13.5632
" />
<path d="M22.7546 13.5632
L22.7546 13.7446
" />
<path d="M22.7546 13.7446
L22.6942 13.9865
" />
<path d="M22.6942 13.9865
L22.6337 14.1075
" />
<path d="M22.6337 14.1075
L22.5127 14.2285
" />
<path d="M22.5127 14.2285
L22.3313 14.2889
" />
<path d="M22.3313 14.2889
L22.0289 14.2889
" />
<path d="M23.2385 13.9261
L23.8432 13.9261
" />
<path d="M23.1175 14.2889
L23.5408 13.0189
" />
<path d="M23.5408 13.0189
L23.9642 14.2889
" />
</g></g>
<g style="fill:#A90000; fill-opacity:0.0; 
stroke:#A90000; stroke-width:0.1524; stroke-opacity:1; 
stroke-linecap:round; stroke-linejoin:round;">
<text x="18.1309" y="13.4554"
textLength="1.4127" font-size="1.6933" lengthAdjust="spacingAndGlyphs"
text-anchor="middle" opacity="0">1</text>
<g class="stroked-text"><desc>1</desc>
<path d="M18.4938 13.2919
L17.7681 13.2919
" />
<path d="M18.1309 13.2919
L18.1309 12.0219
" />
<path d="M18.1309 12.0219
L18.0100 12.2034
" />
<path d="M18.0100 12.2034
L17.8890 12.3243
" />
<path d="M17.8890 12.3243
L17.7681 12.3848
" />
</g></g>
<g style="fill:#840000; fill-opacity:0.0; 
stroke:#840000; stroke-width:0.1524; stroke-opacity:1; 
stroke-linecap:round; stroke-linejoin:round;">
<path d="M44.8009 13.7094
L47.3409 13.7094
" />
</g>
<g style="fill:#006464; fill-opacity:0.0; 
stroke:#006464; stroke-width:0.1524; stroke-opacity:1; 
stroke-linecap:round; stroke-linejoin:round;">
<text x="43.7849" y="14.3444"
textLength="9.0932" font-size="1.6933" lengthAdjust="spacingAndGlyphs"
text-anchor="end" opacity="0">RXD-SDA</text>
<g class="stroked-text"><desc>RXD-SDA</desc>
<path d="M35.8227 14.2889
L35.3994 13.6842
" />
<path d="M35.0970 14.2889
L35.0970 13.0189
" />
<path d="M35.0970 13.0189
L35.5808 13.0189
" />
<path d="M35.5808 13.0189
L35.7018 13.0794
" />
<path d="M35.7018 13.0794
L35.7623 13.1399
" />
<path d="M35.7623 13.1399
L35.8227 13.2608
" />
<path d="M35.8227 13.2608
L35.8227 13.4423
" />
<path d="M35.8227 13.4423
L35.7623 13.5632
" />
<path d="M35.7623 13.5632
L35.7018 13.6237
" />
<path d="M35.7018 13.6237
L35.5808 13.6842
" />
<path d="M35.5808 13.6842
L35.0970 13.6842
" />
<path d="M36.2461 13.0189
L37.0927 14.2889
" />
<path d="M37.0927 13.0189
L36.2461 14.2889
" />
<path d="M37.5765 14.2889
L37.5765 13.0189
" />
<path d="M37.5765 13.0189
L37.8789 13.0189
" />
<path d="M37.8789 13.0189
L38.0603 13.0794
" />
<path d="M38.0603 13.0794
L38.1813 13.2004
" />
<path d="M38.1813 13.2004
L38.2418 13.3213
" />
<path d="M38.2418 13.3213
L38.3022 13.5632
" />
<path d="M38.3022 13.5632
L38.3022 13.7446
" />
<path d="M38.3022 13.7446
L38.2418 13.9865
" />
<path d="M38.2418 13.9865
L38.1813 14.1075
" />
<path d="M38.1813 14.1075
L38.0603 14.2285
" />
<path d="M38.0603 14.2285
L37.8789 14.2889
" />
<path d="M37.8789 14.2889
L37.5765 14.2889
" />
<path d="M38.8465 13.8051
L39.8142 13.8051
" />
<path d="M40.3585 14.2285
L40.5399 14.2889
" />
<path d="M40.5399 14.2889
L40.8423 14.2889
" />
<path d="M40.8423 14.2889
L40.9632 14.2285
" />
<path d="M40.9632 14.2285
L41.0237 14.1680
" />
<path d="M41.0237 14.1680
L41.0842 14.0470
" />
<path d="M41.0842 14.0470
L41.0842 13.9261
" />
<path d="M41.0842 13.9261
L41.0237 13.8051
" />
<path d="M41.0237 13.8051
L40.9632 13.7446
" />
<path d="M40.9632 13.7446
L40.8423 13.6842
" />
<path d="M40.8423 13.6842
L40.6004 13.6237
" />
<path d="M40.6004 13.6237
L40.4794 13.5632
" />
<path d="M40.4794 13.5632
L40.4189 13.5027
" />
<path d="M40.4189 13.5027
L40.3585 13.3818
" />
<path d="M40.3585 13.3818
L40.3585 13.2608
" />
<path d="M40.3585 13.2608
L40.4189 13.1399
" />
<path d="M40.4189 13.1399
L40.4794 13.0794
" />
<path d="M40.4794 13.0794
L40.6004 13.0189
" />
<path d="M40.6004 13.0189
L40.9027 13.0189
" />
<path d="M40.9027 13.0189
L41.0842 13.0794
" />
<path d="M41.6284 14.2889
L41.6284 13.0189
" />
<path d="M41.6284 13.0189
L41.9308 13.0189
" />
<path d="M41.9308 13.0189
L42.1122 13.0794
" />
<path d="M42.1122 13.0794
L42.2332 13.2004
" />
<path d="M42.2332 13.2004
L42.2937 13.3213
" />
<path d="M42.2937 13.3213
L42.3541 13.5632
" />
<path d="M42.3541 13.5632
L42.3541 13.7446
" />
<path d="M42.3541 13.7446
L42.2937 13.9865
" />
<path d="M42.2937 13.9865
L42.2332 14.1075
" />
<path d="M42.2332 14.1075
L42.1122 14.2285
" />
<path d="M42.1122 14.2285
L41.9308 14.2889
" />
<path d="M41.9308 14.2889
L41.6284 14.2889
" />
<path d="M42.8380 13.9261
L43.4427 13.9261
" />
<path d="M42.7170 14.2889
L43.1403 13.0189
" />
<path d="M43.1403 13.0189
L43.5637 14.2889
" />
</g></g>
<g style="fill:#A90000; fill-opacity:0.0; 
stroke:#A90000; stroke-width:0.1524; stroke-opacity:1; 
stroke-linecap:round; stroke-linejoin:round;">
<text x="46.0709" y="13.4554"
textLength="1.4127" font-size="1.6933" lengthAdjust="spacingAndGlyphs"
text-anchor="middle" opacity="0">2</text>
<g class="stroked-text"><desc>2</desc>
<path d="M45.7081 12.1429
L45.7685 12.0824
" />
<path d="M45.7685 12.0824
L45.8895 12.0219
" />
<path d="M45.8895 12.0219
L46.1919 12.0219
" />
<path d="M46.1919 12.0219
L46.3128 12.0824
" />
<path d="M46.3128 12.0824
L46.3733 12.1429
" />
<path d="M46.3733 12.1429
L46.4338 12.2638
" />
<path d="M46.4338 12.2638
L46.4338 12.3848
" />
<path d="M46.4338 12.3848
L46.3733 12.5662
" />
<path d="M46.3733 12.5662
L45.6476 13.2919
" />
<path d="M45.6476 13.2919
L46.4338 13.2919
" />
</g></g>
<g style="fill:#840000; fill-opacity:0.0; 
stroke:#840000; stroke-width:0.1524; stroke-opacity:1; 
stroke-linecap:round; stroke-linejoin:round;">
<path d="M44.8009 8.6294
L47.3409 8.6294
" />
</g>
<g style="fill:#006464; fill-opacity:0.0; 
stroke:#006464; stroke-width:0.1524; stroke-opacity:1; 
stroke-linecap:round; stroke-linejoin:round;">
<text x="43.7849" y="9.2644"
textLength="8.7908" font-size="1.6933" lengthAdjust="spacingAndGlyphs"
text-anchor="end" opacity="0">TXD-SDA</text>
<g class="stroked-text"><desc>TXD-SDA</desc>
<path d="M35.2180 7.9389
L35.9437 7.9389
" />
<path d="M35.5809 9.2089
L35.5809 7.9389
" />
<path d="M36.2461 7.9389
L37.0927 9.2089
" />
<path d="M37.0927 7.9389
L36.2461 9.2089
" />
<path d="M37.5765 9.2089
L37.5765 7.9389
" />
<path d="M37.5765 7.9389
L37.8789 7.9389
" />
<path d="M37.8789 7.9389
L38.0603 7.9994
" />
<path d="M38.0603 7.9994
L38.1813 8.1204
" />
<path d="M38.1813 8.1204
L38.2418 8.2413
" />
<path d="M38.2418 8.2413
L38.3022 8.4832
" />
<path d="M38.3022 8.4832
L38.3022 8.6646
" />
<path d="M38.3022 8.6646
L38.2418 8.9065
" />
<path d="M38.2418 8.9065
L38.1813 9.0275
" />
<path d="M38.1813 9.0275
L38.0603 9.1485
" />
<path d="M38.0603 9.1485
L37.8789 9.2089
" />
<path d="M37.8789 9.2089
L37.5765 9.2089
" />
<path d="M38.8465 8.7251
L39.8142 8.7251
" />
<path d="M40.3585 9.1485
L40.5399 9.2089
" />
<path d="M40.5399 9.2089
L40.8423 9.2089
" />
<path d="M40.8423 9.2089
L40.9632 9.1485
" />
<path d="M40.9632 9.1485
L41.0237 9.0880
" />
<path d="M41.0237 9.0880
L41.0842 8.9670
" />
<path d="M41.0842 8.9670
L41.0842 8.8461
" />
<path d="M41.0842 8.8461
L41.0237 8.7251
" />
<path d="M41.0237 8.7251
L40.9632 8.6646
" />
<path d="M40.9632 8.6646
L40.8423 8.6042
" />
<path d="M40.8423 8.6042
L40.6004 8.5437
" />
<path d="M40.6004 8.5437
L40.4794 8.4832
" />
<path d="M40.4794 8.4832
L40.4189 8.4227
" />
<path d="M40.4189 8.4227
L40.3585 8.3018
" />
<path d="M40.3585 8.3018
L40.3585 8.1808
" />
<path d="M40.3585 8.1808
L40.4189 8.0599
" />
<path d="M40.4189 8.0599
L40.4794 7.9994
" />
<path d="M40.4794 7.9994
L40.6004 7.9389
" />
<path d="M40.6004 7.9389
L40.9027 7.9389
" />
<path d="M40.9027 7.9389
L41.0842 7.9994
" />
<path d="M41.6284 9.2089
L41.6284 7.9389
" />
<path d="M41.6284 7.9389
L41.9308 7.9389
" />
<path d="M41.9308 7.9389
L42.1122 7.9994
" />
<path d="M42.1122 7.9994
L42.2332 8.1204
" />
<path d="M42.2332 8.1204
L42.2937 8.2413
" />
<path d="M42.2937 8.2413
L42.3541 8.4832
" />
<path d="M42.3541 8.4832
L42.3541 8.6646
" />
<path d="M42.3541 8.6646
L42.2937 8.9065
" />
<path d="M42.2937 8.9065
L42.2332 9.0275
" />
<path d="M42.2332 9.0275
L42.1122 9.1485
" />
<path d="M42.1122 9.1485
L41.9308 9.2089
" />
<path d="M41.9308 9.2089
L41.6284 9.2089
" />
<path d="M42.8380 8.8461
L43.4427 8.8461
" />
<path d="M42.7170 9.2089
L43.1403 7.9389
" />
<path d="M43.1403 7.9389
L43.5637 9.2089
" />
</g></g>
<g style="fill:#A90000; fill-opacity:0.0; 
stroke:#A90000; stroke-width:0.1524; stroke-opacity:1; 
stroke-linecap:round; stroke-linejoin:round;">
<text x="46.0709" y="8.3754"
textLength="1.4127" font-size="1.6933" lengthAdjust="spacingAndGlyphs"
text-anchor="middle" opacity="0">3</text>
<g class="stroked-text"><desc>3</desc>
<path d="M45.6476 6.9419
L46.4338 6.9419
" />
<path d="M46.4338 6.9419
L46.0104 7.4257
" />
<path d="M46.0104 7.4257
L46.1919 7.4257
" />
<path d="M46.1919 7.4257
L46.3128 7.4862
" />
<path d="M46.3128 7.4862
L46.3733 7.5467
" />
<path d="M46.3733 7.5467
L46.4338 7.6676
" />
<path d="M46.4338 7.6676
L46.4338 7.9700
" />
<path d="M46.4338 7.9700
L46.3733 8.0910
" />
<path d="M46.3733 8.0910
L46.3128 8.1515
" />
<path d="M46.3128 8.1515
L46.1919 8.2119
" />
<path d="M46.1919 8.2119
L45.8290 8.2119
" />
<path d="M45.8290 8.2119
L45.7081 8.1515
" />
<path d="M45.7081 8.1515
L45.6476 8.0910
" />
</g></g>
<g style="fill:#840000; fill-opacity:0.0; 
stroke:#840000; stroke-width:0.1524; stroke-opacity:1; 
stroke-linecap:round; stroke-linejoin:round;">
<path d="M19.4009 23.8694
L16.8609 23.8694
" />
</g>
<g style="fill:#006464; fill-opacity:0.0; 
stroke:#006464; stroke-width:0.1524; stroke-opacity:1; 
stroke-linecap:round; stroke-linejoin:round;">
<text x="20.4169" y="24.5044"
textLength="4.0737" font-size="1.6933" lengthAdjust="spacingAndGlyphs"
text-anchor="start" opacity="0">GND</text>
<g class="stroked-text"><desc>GND</desc>
<path d="M21.4847 23.2394
L21.3637 23.1789
" />
<path d="M21.3637 23.1789
L21.1823 23.1789
" />
<path d="M21.1823 23.1789
L21.0009 23.2394
" />
<path d="M21.0009 23.2394
L20.8799 23.3604
" />
<path d="M20.8799 23.3604
L20.8194 23.4813
" />
<path d="M20.8194 23.4813
L20.7590 23.7232
" />
<path d="M20.7590 23.7232
L20.7590 23.9046
" />
<path d="M20.7590 23.9046
L20.8194 24.1465
" />
<path d="M20.8194 24.1465
L20.8799 24.2675
" />
<path d="M20.8799 24.2675
L21.0009 24.3885
" />
<path d="M21.0009 24.3885
L21.1823 24.4489
" />
<path d="M21.1823 24.4489
L21.3032 24.4489
" />
<path d="M21.3032 24.4489
L21.4847 24.3885
" />
<path d="M21.4847 24.3885
L21.5451 24.3280
" />
<path d="M21.5451 24.3280
L21.5451 23.9046
" />
<path d="M21.5451 23.9046
L21.3032 23.9046
" />
<path d="M22.0894 24.4489
L22.0894 23.1789
" />
<path d="M22.0894 23.1789
L22.8151 24.4489
" />
<path d="M22.8151 24.4489
L22.8151 23.1789
" />
<path d="M23.4199 24.4489
L23.4199 23.1789
" />
<path d="M23.4199 23.1789
L23.7223 23.1789
" />
<path d="M23.7223 23.1789
L23.9037 23.2394
" />
<path d="M23.9037 23.2394
L24.0247 23.3604
" />
<path d="M24.0247 23.3604
L24.0852 23.4813
" />
<path d="M24.0852 23.4813
L24.1456 23.7232
" />
<path d="M24.1456 23.7232
L24.1456 23.9046
" />
<path d="M24.1456 23.9046
L24.0852 24.1465
" />
<path d="M24.0852 24.1465
L24.0247 24.2675
" />
<path d="M24.0247 24.2675
L23.9037 24.3885
" />
<path d="M23.9037 24.3885
L23.7223 24.4489
" />
<path d="M23.7223 24.4489
L23.4199 24.4489
" />
</g></g>
<g style="fill:#A90000; fill-opacity:0.0; 
stroke:#A90000; stroke-width:0.1524; stroke-opacity:1; 
stroke-linecap:round; stroke-linejoin:round;">
<text x="18.1309" y="23.6154"
textLength="1.4127" font-size="1.6933" lengthAdjust="spacingAndGlyphs"
text-anchor="middle" opacity="0">4</text>
<g class="stroked-text"><desc>4</desc>
<path d="M18.3728 22.6053
L18.3728 23.4519
" />
<path d="M18.0704 22.1215
L17.7681 23.0286
" />
<path d="M17.7681 23.0286
L18.5542 23.0286
" />
</g></g>
<g style="fill:#840000; fill-opacity:0.0; 
stroke:#840000; stroke-width:0.1524; stroke-opacity:1; 
stroke-linecap:round; stroke-linejoin:round;">
<path d="M44.8009 18.7894
L47.3409 18.7894
" />
</g>
<g style="fill:#006464; fill-opacity:0.0; 
stroke:#006464; stroke-width:0.1524; stroke-opacity:1; 
stroke-linecap:round; stroke-linejoin:round;">
<text x="43.7849" y="19.4244"
textLength="8.7303" font-size="1.6933" lengthAdjust="spacingAndGlyphs"
text-anchor="end" opacity="0">TXD-SCL</text>
<g class="stroked-text"><desc>TXD-SCL</desc>
<path d="M35.2785 18.0989
L36.0042 18.0989
" />
<path d="M35.6414 19.3689
L35.6414 18.0989
" />
<path d="M36.3066 18.0989
L37.1532 19.3689
" />
<path d="M37.1532 18.0989
L36.3066 19.3689
" />
<path d="M37.6370 19.3689
L37.6370 18.0989
" />
<path d="M37.6370 18.0989
L37.9394 18.0989
" />
<path d="M37.9394 18.0989
L38.1208 18.1594
" />
<path d="M38.1208 18.1594
L38.2418 18.2804
" />
<path d="M38.2418 18.2804
L38.3023 18.4013
" />
<path d="M38.3023 18.4013
L38.3627 18.6432
" />
<path d="M38.3627 18.6432
L38.3627 18.8246
" />
<path d="M38.3627 18.8246
L38.3023 19.0665
" />
<path d="M38.3023 19.0665
L38.2418 19.1875
" />
<path d="M38.2418 19.1875
L38.1208 19.3085
" />
<path d="M38.1208 19.3085
L37.9394 19.3689
" />
<path d="M37.9394 19.3689
L37.6370 19.3689
" />
<path d="M38.9070 18.8851
L39.8747 18.8851
" />
<path d="M40.4190 19.3085
L40.6004 19.3689
" />
<path d="M40.6004 19.3689
L40.9028 19.3689
" />
<path d="M40.9028 19.3689
L41.0237 19.3085
" />
<path d="M41.0237 19.3085
L41.0842 19.2480
" />
<path d="M41.0842 19.2480
L41.1447 19.1270
" />
<path d="M41.1447 19.1270
L41.1447 19.0061
" />
<path d="M41.1447 19.0061
L41.0842 18.8851
" />
<path d="M41.0842 18.8851
L41.0237 18.8246
" />
<path d="M41.0237 18.8246
L40.9028 18.7642
" />
<path d="M40.9028 18.7642
L40.6609 18.7037
" />
<path d="M40.6609 18.7037
L40.5399 18.6432
" />
<path d="M40.5399 18.6432
L40.4794 18.5827
" />
<path d="M40.4794 18.5827
L40.4190 18.4618
" />
<path d="M40.4190 18.4618
L40.4190 18.3408
" />
<path d="M40.4190 18.3408
L40.4794 18.2199
" />
<path d="M40.4794 18.2199
L40.5399 18.1594
" />
<path d="M40.5399 18.1594
L40.6609 18.0989
" />
<path d="M40.6609 18.0989
L40.9632 18.0989
" />
<path d="M40.9632 18.0989
L41.1447 18.1594
" />
<path d="M42.4146 19.2480
L42.3542 19.3085
" />
<path d="M42.3542 19.3085
L42.1727 19.3689
" />
<path d="M42.1727 19.3689
L42.0518 19.3689
" />
<path d="M42.0518 19.3689
L41.8704 19.3085
" />
<path d="M41.8704 19.3085
L41.7494 19.1875
" />
<path d="M41.7494 19.1875
L41.6889 19.0665
" />
<path d="M41.6889 19.0665
L41.6285 18.8246
" />
<path d="M41.6285 18.8246
L41.6285 18.6432
" />
<path d="M41.6285 18.6432
L41.6889 18.4013
" />
<path d="M41.6889 18.4013
L41.7494 18.2804
" />
<path d="M41.7494 18.2804
L41.8704 18.1594
" />
<path d="M41.8704 18.1594
L42.0518 18.0989
" />
<path d="M42.0518 18.0989
L42.1727 18.0989
" />
<path d="M42.1727 18.0989
L42.3542 18.1594
" />
<path d="M42.3542 18.1594
L42.4146 18.2199
" />
<path d="M43.5637 19.3689
L42.9589 19.3689
" />
<path d="M42.9589 19.3689
L42.9589 18.0989
" />
</g></g>
<g style="fill:#A90000; fill-opacity:0.0; 
stroke:#A90000; stroke-width:0.1524; stroke-opacity:1; 
stroke-linecap:round; stroke-linejoin:round;">
<text x="46.0709" y="18.5354"
textLength="1.4127" font-size="1.6933" lengthAdjust="spacingAndGlyphs"
text-anchor="middle" opacity="0">5</text>
<g class="stroked-text"><desc>5</desc>
<path d="M46.3733 17.1019
L45.7685 17.1019
" />
<path d="M45.7685 17.1019
L45.7081 17.7067
" />
<path d="M45.7081 17.7067
L45.7685 17.6462
" />
<path d="M45.7685 17.6462
L45.8895 17.5857
" />
<path d="M45.8895 17.5857
L46.1919 17.5857
" />
<path d="M46.1919 17.5857
L46.3128 17.6462
" />
<path d="M46.3128 17.6462
L46.3733 17.7067
" />
<path d="M46.3733 17.7067
L46.4338 17.8276
" />
<path d="M46.4338 17.8276
L46.4338 18.1300
" />
<path d="M46.4338 18.1300
L46.3733 18.2510
" />
<path d="M46.3733 18.2510
L46.3128 18.3115
" />
<path d="M46.3128 18.3115
L46.1919 18.3719
" />
<path d="M46.1919 18.3719
L45.8895 18.3719
" />
<path d="M45.8895 18.3719
L45.7685 18.3115
" />
<path d="M45.7685 18.3115
L45.7081 18.2510
" />
</g></g>
<g style="fill:#840000; fill-opacity:0.0; 
stroke:#840000; stroke-width:0.1524; stroke-opacity:1; 
stroke-linecap:round; stroke-linejoin:round;">
<path d="M44.8009 23.8694
L47.3409 23.8694
" />
</g>
<g style="fill:#006464; fill-opacity:0.0; 
stroke:#006464; stroke-width:0.1524; stroke-opacity:1; 
stroke-linecap:round; stroke-linejoin:round;">
<text x="43.7849" y="24.5044"
textLength="9.0327" font-size="1.6933" lengthAdjust="spacingAndGlyphs"
text-anchor="end" opacity="0">RXD-SCL</text>
<g class="stroked-text"><desc>RXD-SCL</desc>
<path d="M35.8832 24.4489
L35.4599 23.8442
" />
<path d="M35.1575 24.4489
L35.1575 23.1789
" />
<path d="M35.1575 23.1789
L35.6413 23.1789
" />
<path d="M35.6413 23.1789
L35.7623 23.2394
" />
<path d="M35.7623 23.2394
L35.8228 23.2999
" />
<path d="M35.8228 23.2999
L35.8832 23.4208
" />
<path d="M35.8832 23.4208
L35.8832 23.6023
" />
<path d="M35.8832 23.6023
L35.8228 23.7232
" />
<path d="M35.8228 23.7232
L35.7623 23.7837
" />
<path d="M35.7623 23.7837
L35.6413 23.8442
" />
<path d="M35.6413 23.8442
L35.1575 23.8442
" />
<path d="M36.3066 23.1789
L37.1532 24.4489
" />
<path d="M37.1532 23.1789
L36.3066 24.4489
" />
<path d="M37.6370 24.4489
L37.6370 23.1789
" />
<path d="M37.6370 23.1789
L37.9394 23.1789
" />
<path d="M37.9394 23.1789
L38.1208 23.2394
" />
<path d="M38.1208 23.2394
L38.2418 23.3604
" />
<path d="M38.2418 23.3604
L38.3023 23.4813
" />
<path d="M38.3023 23.4813
L38.3627 23.7232
" />
<path d="M38.3627 23.7232
L38.3627 23.9046
" />
<path d="M38.3627 23.9046
L38.3023 24.1465
" />
<path d="M38.3023 24.1465
L38.2418 24.2675
" />
<path d="M38.2418 24.2675
L38.1208 24.3885
" />
<path d="M38.1208 24.3885
L37.9394 24.4489
" />
<path d="M37.9394 24.4489
L37.6370 24.4489
" />
<path d="M38.9070 23.9651
L39.8747 23.9651
" />
<path d="M40.4190 24.3885
L40.6004 24.4489
" />
<path d="M40.6004 24.4489
L40.9028 24.4489
" />
<path d="M40.9028 24.4489
L41.0237 24.3885
" />
<path d="M41.0237 24.3885
L41.0842 24.3280
" />
<path d="M41.0842 24.3280
L41.1447 24.2070
" />
<path d="M41.1447 24.2070
L41.1447 24.0861
" />
<path d="M41.1447 24.0861
L41.0842 23.9651
" />
<path d="M41.0842 23.9651
L41.0237 23.9046
" />
<path d="M41.0237 23.9046
L40.9028 23.8442
" />
<path d="M40.9028 23.8442
L40.6609 23.7837
" />
<path d="M40.6609 23.7837
L40.5399 23.7232
" />
<path d="M40.5399 23.7232
L40.4794 23.6627
" />
<path d="M40.4794 23.6627
L40.4190 23.5418
" />
<path d="M40.4190 23.5418
L40.4190 23.4208
" />
<path d="M40.4190 23.4208
L40.4794 23.2999
" />
<path d="M40.4794 23.2999
L40.5399 23.2394
" />
<path d="M40.5399 23.2394
L40.6609 23.1789
" />
<path d="M40.6609 23.1789
L40.9632 23.1789
" />
<path d="M40.9632 23.1789
L41.1447 23.2394
" />
<path d="M42.4146 24.3280
L42.3542 24.3885
" />
<path d="M42.3542 24.3885
L42.1727 24.4489
" />
<path d="M42.1727 24.4489
L42.0518 24.4489
" />
<path d="M42.0518 24.4489
L41.8704 24.3885
" />
<path d="M41.8704 24.3885
L41.7494 24.2675
" />
<path d="M41.7494 24.2675
L41.6889 24.1465
" />
<path d="M41.6889 24.1465
L41.6285 23.9046
" />
<path d="M41.6285 23.9046
L41.6285 23.7232
" />
<path d="M41.6285 23.7232
L41.6889 23.4813
" />
<path d="M41.6889 23.4813
L41.7494 23.3604
" />
<path d="M41.7494 23.3604
L41.8704 23.2394
" />
<path d="M41.8704 23.2394
L42.0518 23.1789
" />
<path d="M42.0518 23.1789
L42.1727 23.1789
" />
<path d="M42.1727 23.1789
L42.3542 23.2394
" />
<path d="M42.3542 23.2394
L42.4146 23.2999
" />
<path d="M43.5637 24.4489
L42.9589 24.4489
" />
<path d="M42.9589 24.4489
L42.9589 23.1789
" />
</g></g>
<g style="fill:#A90000; fill-opacity:0.0; 
stroke:#A90000; stroke-width:0.1524; stroke-opacity:1; 
stroke-linecap:round; stroke-linejoin:round;">
<text x="46.0709" y="23.6154"
textLength="1.4127" font-size="1.6933" lengthAdjust="spacingAndGlyphs"
text-anchor="middle" opacity="0">6</text>
<g class="stroked-text"><desc>6</desc>
<path d="M46.3128 22.1819
L46.0709 22.1819
" />
<path d="M46.0709 22.1819
L45.9500 22.2424
" />
<path d="M45.9500 22.2424
L45.8895 22.3029
" />
<path d="M45.8895 22.3029
L45.7685 22.4843
" />
<path d="M45.7685 22.4843
L45.7081 22.7262
" />
<path d="M45.7081 22.7262
L45.7081 23.2100
" />
<path d="M45.7081 23.2100
L45.7685 23.3310
" />
<path d="M45.7685 23.3310
L45.8290 23.3915
" />
<path d="M45.8290 23.3915
L45.9500 23.4519
" />
<path d="M45.9500 23.4519
L46.1919 23.4519
" />
<path d="M46.1919 23.4519
L46.3128 23.3915
" />
<path d="M46.3128 23.3915
L46.3733 23.3310
" />
<path d="M46.3733 23.3310
L46.4338 23.2100
" />
<path d="M46.4338 23.2100
L46.4338 22.9076
" />
<path d="M46.4338 22.9076
L46.3733 22.7867
" />
<path d="M46.3733 22.7867
L46.3128 22.7262
" />
<path d="M46.3128 22.7262
L46.1919 22.6657
" />
<path d="M46.1919 22.6657
L45.9500 22.6657
" />
<path d="M45.9500 22.6657
L45.8290 22.7262
" />
<path d="M45.8290 22.7262
L45.7685 22.7867
" />
<path d="M45.7685 22.7867
L45.7081 22.9076
" />
</g></g>
<g style="fill:#840000; fill-opacity:0.0; 
stroke:#840000; stroke-width:0.1524; stroke-opacity:1; 
stroke-linecap:round; stroke-linejoin:round;">
<path d="M19.4009 18.7894
L16.8609 18.7894
" />
</g>
<g style="fill:#006464; fill-opacity:0.0; 
stroke:#006464; stroke-width:0.1524; stroke-opacity:1; 
stroke-linecap:round; stroke-linejoin:round;">
<text x="20.4169" y="19.4244"
textLength="3.7108" font-size="1.6933" lengthAdjust="spacingAndGlyphs"
text-anchor="start" opacity="0">SCL</text>
<g class="stroked-text"><desc>SCL</desc>
<path d="M20.7590 19.3085
L20.9404 19.3689
" />
<path d="M20.9404 19.3689
L21.2428 19.3689
" />
<path d="M21.2428 19.3689
L21.3637 19.3085
" />
<path d="M21.3637 19.3085
L21.4242 19.2480
" />
<path d="M21.4242 19.2480
L21.4847 19.1270
" />
<path d="M21.4847 19.1270
L21.4847 19.0061
" />
<path d="M21.4847 19.0061
L21.4242 18.8851
" />
<path d="M21.4242 18.8851
L21.3637 18.8246
" />
<path d="M21.3637 18.8246
L21.2428 18.7642
" />
<path d="M21.2428 18.7642
L21.0009 18.7037
" />
<path d="M21.0009 18.7037
L20.8799 18.6432
" />
<path d="M20.8799 18.6432
L20.8194 18.5827
" />
<path d="M20.8194 18.5827
L20.7590 18.4618
" />
<path d="M20.7590 18.4618
L20.7590 18.3408
" />
<path d="M20.7590 18.3408
L20.8194 18.2199
" />
<path d="M20.8194 18.2199
L20.8799 18.1594
" />
<path d="M20.8799 18.1594
L21.0009 18.0989
" />
<path d="M21.0009 18.0989
L21.3032 18.0989
" />
<path d="M21.3032 18.0989
L21.4847 18.1594
" />
<path d="M22.7546 19.2480
L22.6942 19.3085
" />
<path d="M22.6942 19.3085
L22.5127 19.3689
" />
<path d="M22.5127 19.3689
L22.3918 19.3689
" />
<path d="M22.3918 19.3689
L22.2104 19.3085
" />
<path d="M22.2104 19.3085
L22.0894 19.1875
" />
<path d="M22.0894 19.1875
L22.0289 19.0665
" />
<path d="M22.0289 19.0665
L21.9685 18.8246
" />
<path d="M21.9685 18.8246
L21.9685 18.6432
" />
<path d="M21.9685 18.6432
L22.0289 18.4013
" />
<path d="M22.0289 18.4013
L22.0894 18.2804
" />
<path d="M22.0894 18.2804
L22.2104 18.1594
" />
<path d="M22.2104 18.1594
L22.3918 18.0989
" />
<path d="M22.3918 18.0989
L22.5127 18.0989
" />
<path d="M22.5127 18.0989
L22.6942 18.1594
" />
<path d="M22.6942 18.1594
L22.7546 18.2199
" />
<path d="M23.9037 19.3689
L23.2989 19.3689
" />
<path d="M23.2989 19.3689
L23.2989 18.0989
" />
</g></g>
<g style="fill:#A90000; fill-opacity:0.0; 
stroke:#A90000; stroke-width:0.1524; stroke-opacity:1; 
stroke-linecap:round; stroke-linejoin:round;">
<text x="18.1309" y="18.5354"
textLength="1.4127" font-size="1.6933" lengthAdjust="spacingAndGlyphs"
text-anchor="middle" opacity="0">7</text>
<g class="stroked-text"><desc>7</desc>
<path d="M17.7076 17.1019
L18.5542 17.1019
" />
<path d="M18.5542 17.1019
L18.0100 18.3719
" />
</g></g>
<g style="fill:#840000; fill-opacity:0.0; 
stroke:#840000; stroke-width:0.1524; stroke-opacity:1; 
stroke-linecap:round; stroke-linejoin:round;">
<path d="M19.4009 8.6294
L16.8609 8.6294
" />
</g>
<g style="fill:#006464; fill-opacity:0.0; 
stroke:#006464; stroke-width:0.1524; stroke-opacity:1; 
stroke-linecap:round; stroke-linejoin:round;">
<text x="20.4169" y="9.2644"
textLength="3.8318" font-size="1.6933" lengthAdjust="spacingAndGlyphs"
text-anchor="start" opacity="0">VCC</text>
<g class="stroked-text"><desc>VCC</desc>
<path d="M20.6380 7.9389
L21.0613 9.2089
" />
<path d="M21.0613 9.2089
L21.4847 7.9389
" />
<path d="M22.6337 9.0880
L22.5733 9.1485
" />
<path d="M22.5733 9.1485
L22.3918 9.2089
" />
<path d="M22.3918 9.2089
L22.2709 9.2089
" />
<path d="M22.2709 9.2089
L22.0895 9.1485
" />
<path d="M22.0895 9.1485
L21.9685 9.0275
" />
<path d="M21.9685 9.0275
L21.9080 8.9065
" />
<path d="M21.9080 8.9065
L21.8476 8.6646
" />
<path d="M21.8476 8.6646
L21.8476 8.4832
" />
<path d="M21.8476 8.4832
L21.9080 8.2413
" />
<path d="M21.9080 8.2413
L21.9685 8.1204
" />
<path d="M21.9685 8.1204
L22.0895 7.9994
" />
<path d="M22.0895 7.9994
L22.2709 7.9389
" />
<path d="M22.2709 7.9389
L22.3918 7.9389
" />
<path d="M22.3918 7.9389
L22.5733 7.9994
" />
<path d="M22.5733 7.9994
L22.6337 8.0599
" />
<path d="M23.9037 9.0880
L23.8433 9.1485
" />
<path d="M23.8433 9.1485
L23.6618 9.2089
" />
<path d="M23.6618 9.2089
L23.5409 9.2089
" />
<path d="M23.5409 9.2089
L23.3595 9.1485
" />
<path d="M23.3595 9.1485
L23.2385 9.0275
" />
<path d="M23.2385 9.0275
L23.1780 8.9065
" />
<path d="M23.1780 8.9065
L23.1176 8.6646
" />
<path d="M23.1176 8.6646
L23.1176 8.4832
" />
<path d="M23.1176 8.4832
L23.1780 8.2413
" />
<path d="M23.1780 8.2413
L23.2385 8.1204
" />
<path d="M23.2385 8.1204
L23.3595 7.9994
" />
<path d="M23.3595 7.9994
L23.5409 7.9389
" />
<path d="M23.5409 7.9389
L23.6618 7.9389
" />
<path d="M23.6618 7.9389
L23.8433 7.9994
" />
<path d="M23.8433 7.9994
L23.9037 8.0599
" />
</g></g>
<g style="fill:#A90000; fill-opacity:0.0; 
stroke:#A90000; stroke-width:0.1524; stroke-opacity:1; 
stroke-linecap:round; stroke-linejoin:round;">
<text x="18.1309" y="8.3754"
textLength="1.4127" font-size="1.6933" lengthAdjust="spacingAndGlyphs"
text-anchor="middle" opacity="0">8</text>
<g class="stroked-text"><desc>8</desc>
<path d="M18.0100 7.4862
L17.8890 7.4257
" />
<path d="M17.8890 7.4257
L17.8285 7.3653
" />
<path d="M17.8285 7.3653
L17.7681 7.2443
" />
<path d="M17.7681 7.2443
L17.7681 7.1838
" />
<path d="M17.7681 7.1838
L17.8285 7.0629
" />
<path d="M17.8285 7.0629
L17.8890 7.0024
" />
<path d="M17.8890 7.0024
L18.0100 6.9419
" />
<path d="M18.0100 6.9419
L18.2519 6.9419
" />
<path d="M18.2519 6.9419
L18.3728 7.0024
" />
<path d="M18.3728 7.0024
L18.4333 7.0629
" />
<path d="M18.4333 7.0629
L18.4938 7.1838
" />
<path d="M18.4938 7.1838
L18.4938 7.2443
" />
<path d="M18.4938 7.2443
L18.4333 7.3653
" />
<path d="M18.4333 7.3653
L18.3728 7.4257
" />
<path d="M18.3728 7.4257
L18.2519 7.4862
" />
<path d="M18.2519 7.4862
L18.0100 7.4862
" />
<path d="M18.0100 7.4862
L17.8890 7.5467
" />
<path d="M17.8890 7.5467
L17.8285 7.6072
" />
<path d="M17.8285 7.6072
L17.7681 7.7281
" />
<path d="M17.7681 7.7281
L17.7681 7.9700
" />
<path d="M17.7681 7.9700
L17.8285 8.0910
" />
<path d="M17.8285 8.0910
L17.8890 8.1515
" />
<path d="M17.8890 8.1515
L18.0100 8.2119
" />
<path d="M18.0100 8.2119
L18.2519 8.2119
" />
<path d="M18.2519 8.2119
L18.3728 8.1515
" />
<path d="M18.3728 8.1515
L18.4333 8.0910
" />
<path d="M18.4333 8.0910
L18.4938 7.9700
" />
<path d="M18.4938 7.9700
L18.4938 7.7281
" />
<path d="M18.4938 7.7281
L18.4333 7.6072
" />
<path d="M18.4333 7.6072
L18.3728 7.5467
" />
<path d="M18.3728 7.5467
L18.2519 7.4862
" />
</g></g>
<g style="fill:#840084; fill-opacity:0.0; 
stroke:#840084; stroke-width:0.1524; stroke-opacity:1; 
stroke-linecap:round; stroke-linejoin:round;">
</g>
<g style="fill:#006464; fill-opacity:0.0; 
stroke:#006464; stroke-width:0.1524; stroke-opacity:1; 
stroke-linecap:round; stroke-linejoin:round;">
</g>
<g style="fill:#006464; fill-opacity:0.0; 
stroke:#006464; stroke-width:0.1588; stroke-opacity:1; 
stroke-linecap:round; stroke-linejoin:round;">
<text x="20.7216" y="4.1844"
textLength="2.6415" font-size="1.6933" lengthAdjust="spacingAndGlyphs"
text-anchor="middle" opacity="0">U?</text>
<g class="stroked-text"><desc>U?</desc>
<path d="M19.8144 2.8586
L19.8144 3.8867
" />
<path d="M19.8144 3.8867
L19.8749 4.0077
" />
<path d="M19.8749 4.0077
L19.9354 4.0682
" />
<path d="M19.9354 4.0682
L20.0563 4.1286
" />
<path d="M20.0563 4.1286
L20.2982 4.1286
" />
<path d="M20.2982 4.1286
L20.4192 4.0682
" />
<path d="M20.4192 4.0682
L20.4797 4.0077
" />
<path d="M20.4797 4.0077
L20.5401 3.8867
" />
<path d="M20.5401 3.8867
L20.5401 2.8586
" />
<path d="M21.3264 4.0077
L21.3868 4.0682
" />
<path d="M21.3868 4.0682
L21.3264 4.1286
" />
<path d="M21.3264 4.1286
L21.2659 4.0682
" />
<path d="M21.2659 4.0682
L21.3264 4.0077
" />
<path d="M21.3264 4.0077
L21.3264 4.1286
" />
<path d="M21.0845 2.9191
L21.2054 2.8586
" />
<path d="M21.2054 2.8586
L21.5078 2.8586
" />
<path d="M21.5078 2.8586
L21.6287 2.9191
" />
<path d="M21.6287 2.9191
L21.6892 3.0401
" />
<path d="M21.6892 3.0401
L21.6892 3.1610
" />
<path d="M21.6892 3.1610
L21.6287 3.2820
" />
<path d="M21.6287 3.2820
L21.5683 3.3424
" />
<path d="M21.5683 3.3424
L21.4473 3.4029
" />
<path d="M21.4473 3.4029
L21.3868 3.4634
" />
<path d="M21.3868 3.4634
L21.3264 3.5843
" />
<path d="M21.3264 3.5843
L21.3264 3.6448
" />
</g><text x="40.9811" y="4.1844"
textLength="7.6004" font-size="1.6933" lengthAdjust="spacingAndGlyphs"
text-anchor="middle" opacity="0">P82B96</text>
<g class="stroked-text"><desc>P82B96</desc>
<path d="M37.5944 4.1286
L37.5944 2.8586
" />
<path d="M37.5944 2.8586
L38.0782 2.8586
" />
<path d="M38.0782 2.8586
L38.1992 2.9191
" />
<path d="M38.1992 2.9191
L38.2597 2.9796
" />
<path d="M38.2597 2.9796
L38.3201 3.1005
" />
<path d="M38.3201 3.1005
L38.3201 3.2820
" />
<path d="M38.3201 3.2820
L38.2597 3.4029
" />
<path d="M38.2597 3.4029
L38.1992 3.4634
" />
<path d="M38.1992 3.4634
L38.0782 3.5239
" />
<path d="M38.0782 3.5239
L37.5944 3.5239
" />
<path d="M39.0459 3.4029
L38.9249 3.3424
" />
<path d="M38.9249 3.3424
L38.8644 3.2820
" />
<path d="M38.8644 3.2820
L38.8040 3.1610
" />
<path d="M38.8040 3.1610
L38.8040 3.1005
" />
<path d="M38.8040 3.1005
L38.8644 2.9796
" />
<path d="M38.8644 2.9796
L38.9249 2.9191
" />
<path d="M38.9249 2.9191
L39.0459 2.8586
" />
<path d="M39.0459 2.8586
L39.2878 2.8586
" />
<path d="M39.2878 2.8586
L39.4087 2.9191
" />
<path d="M39.4087 2.9191
L39.4692 2.9796
" />
<path d="M39.4692 2.9796
L39.5297 3.1005
" />
<path d="M39.5297 3.1005
L39.5297 3.1610
" />
<path d="M39.5297 3.1610
L39.4692 3.2820
" />
<path d="M39.4692 3.2820
L39.4087 3.3424
" />
<path d="M39.4087 3.3424
L39.2878 3.4029
" />
<path d="M39.2878 3.4029
L39.0459 3.4029
" />
<path d="M39.0459 3.4029
L38.9249 3.4634
" />
<path d="M38.9249 3.4634
L38.8644 3.5239
" />
<path d="M38.8644 3.5239
L38.8040 3.6448
" />
<path d="M38.8040 3.6448
L38.8040 3.8867
" />
<path d="M38.8040 3.8867
L38.8644 4.0077
" />
<path d="M38.8644 4.0077
L38.9249 4.0682
" />
<path d="M38.9249 4.0682
L39.0459 4.1286
" />
<path d="M39.0459 4.1286
L39.2878 4.1286
" />
<path d="M39.2878 4.1286
L39.4087 4.0682
" />
<path d="M39.4087 4.0682
L39.4692 4.0077
" />
<path d="M39.4692 4.0077
L39.5297 3.8867
" />
<path d="M39.5297 3.8867
L39.5297 3.6448
" />
<path d="M39.5297 3.6448
L39.4692 3.5239
" />
<path d="M39.4692 3.5239
L39.4087 3.4634
" />
<path d="M39.4087 3.4634
L39.2878 3.4029
" />
<path d="M40.0135 2.9796
L40.0739 2.9191
" />
<path d="M40.0739 2.9191
L40.1949 2.8586
" />
<path d="M40.1949 2.8586
L40.4973 2.8586
" />
<path d="M40.4973 2.8586
L40.6182 2.9191
" />
<path d="M40.6182 2.9191
L40.6787 2.9796
" />
<path d="M40.6787 2.9796
L40.7392 3.1005
" />
<path d="M40.7392 3.1005
L40.7392 3.2215
" />
<path d="M40.7392 3.2215
L40.6787 3.4029
" />
<path d="M40.6787 3.4029
L39.9530 4.1286
" />
<path d="M39.9530 4.1286
L40.7392 4.1286
" />
<path d="M41.7068 3.4634
L41.8882 3.5239
" />
<path d="M41.8882 3.5239
L41.9487 3.5843
" />
<path d="M41.9487 3.5843
L42.0091 3.7053
" />
<path d="M42.0091 3.7053
L42.0091 3.8867
" />
<path d="M42.0091 3.8867
L41.9487 4.0077
" />
<path d="M41.9487 4.0077
L41.8882 4.0682
" />
<path d="M41.8882 4.0682
L41.7672 4.1286
" />
<path d="M41.7672 4.1286
L41.2834 4.1286
" />
<path d="M41.2834 4.1286
L41.2834 2.8586
" />
<path d="M41.2834 2.8586
L41.7068 2.8586
" />
<path d="M41.7068 2.8586
L41.8277 2.9191
" />
<path d="M41.8277 2.9191
L41.8882 2.9796
" />
<path d="M41.8882 2.9796
L41.9487 3.1005
" />
<path d="M41.9487 3.1005
L41.9487 3.2215
" />
<path d="M41.9487 3.2215
L41.8882 3.3424
" />
<path d="M41.8882 3.3424
L41.8277 3.4029
" />
<path d="M41.8277 3.4029
L41.7068 3.4634
" />
<path d="M41.7068 3.4634
L41.2834 3.4634
" />
<path d="M42.6139 4.1286
L42.8558 4.1286
" />
<path d="M42.8558 4.1286
L42.9768 4.0682
" />
<path d="M42.9768 4.0682
L43.0372 4.0077
" />
<path d="M43.0372 4.0077
L43.1582 3.8262
" />
<path d="M43.1582 3.8262
L43.2187 3.5843
" />
<path d="M43.2187 3.5843
L43.2187 3.1005
" />
<path d="M43.2187 3.1005
L43.1582 2.9796
" />
<path d="M43.1582 2.9796
L43.0977 2.9191
" />
<path d="M43.0977 2.9191
L42.9768 2.8586
" />
<path d="M42.9768 2.8586
L42.7349 2.8586
" />
<path d="M42.7349 2.8586
L42.6139 2.9191
" />
<path d="M42.6139 2.9191
L42.5534 2.9796
" />
<path d="M42.5534 2.9796
L42.4930 3.1005
" />
<path d="M42.4930 3.1005
L42.4930 3.4029
" />
<path d="M42.4930 3.4029
L42.5534 3.5239
" />
<path d="M42.5534 3.5239
L42.6139 3.5843
" />
<path d="M42.6139 3.5843
L42.7349 3.6448
" />
<path d="M42.7349 3.6448
L42.9768 3.6448
" />
<path d="M42.9768 3.6448
L43.0977 3.5843
" />
<path d="M43.0977 3.5843
L43.1582 3.5239
" />
<path d="M43.1582 3.5239
L43.2187 3.4029
" />
<path d="M44.3072 2.8586
L44.0653 2.8586
" />
<path d="M44.0653 2.8586
L43.9444 2.9191
" />
<path d="M43.9444 2.9191
L43.8839 2.9796
" />
<path d="M43.8839 2.9796
L43.7629 3.1610
" />
<path d="M43.7629 3.1610
L43.7025 3.4029
" />
<path d="M43.7025 3.4029
L43.7025 3.8867
" />
<path d="M43.7025 3.8867
L43.7629 4.0077
" />
<path d="M43.7629 4.0077
L43.8234 4.0682
" />
<path d="M43.8234 4.0682
L43.9444 4.1286
" />
<path d="M43.9444 4.1286
L44.1863 4.1286
" />
<path d="M44.1863 4.1286
L44.3072 4.0682
" />
<path d="M44.3072 4.0682
L44.3677 4.0077
" />
<path d="M44.3677 4.0077
L44.4282 3.8867
" />
<path d="M44.4282 3.8867
L44.4282 3.5843
" />
<path d="M44.4282 3.5843
L44.3677 3.4634
" />
<path d="M44.3677 3.4634
L44.3072 3.4029
" />
<path d="M44.3072 3.4029
L44.1863 3.3424
" />
<path d="M44.1863 3.3424
L43.9444 3.3424
" />
<path d="M43.9444 3.3424
L43.8234 3.4029
" />
<path d="M43.8234 3.4029
L43.7629 3.4634
" />
<path d="M43.7629 3.4634
L43.7025 3.5843
" />
</g></g>
<g style="fill:#840084; fill-opacity:0.0; 
stroke:#840084; stroke-width:0.1588; stroke-opacity:1; 
stroke-linecap:round; stroke-linejoin:round;">
<text x="32.1009" y="16.8844"
textLength="53.5016" font-size="1.6933" lengthAdjust="spacingAndGlyphs"
text-anchor="middle" opacity="0">http://www.nxp.com/docs/en/data-sheet/P82B96.pdf</text>
<g class="stroked-text"><desc>http://www.nxp.com/docs/en/data-sheet/P82B96.pdf</desc>
<path d="M5.7636 16.8286
L5.7636 15.5586
" />
<path d="M6.3079 16.8286
L6.3079 16.1634
" />
<path d="M6.3079 16.1634
L6.2474 16.0424
" />
<path d="M6.2474 16.0424
L6.1265 15.9820
" />
<path d="M6.1265 15.9820
L5.9451 15.9820
" />
<path d="M5.9451 15.9820
L5.8241 16.0424
" />
<path d="M5.8241 16.0424
L5.7636 16.1029
" />
<path d="M6.7312 15.9820
L7.2150 15.9820
" />
<path d="M6.9126 15.5586
L6.9126 16.6472
" />
<path d="M6.9126 16.6472
L6.9731 16.7682
" />
<path d="M6.9731 16.7682
L7.0941 16.8286
" />
<path d="M7.0941 16.8286
L7.2150 16.8286
" />
<path d="M7.4569 15.9820
L7.9407 15.9820
" />
<path d="M7.6383 15.5586
L7.6383 16.6472
" />
<path d="M7.6383 16.6472
L7.6988 16.7682
" />
<path d="M7.6988 16.7682
L7.8198 16.8286
" />
<path d="M7.8198 16.8286
L7.9407 16.8286
" />
<path d="M8.3640 15.9820
L8.3640 17.2520
" />
<path d="M8.3640 16.0424
L8.4850 15.9820
" />
<path d="M8.4850 15.9820
L8.7269 15.9820
" />
<path d="M8.7269 15.9820
L8.8478 16.0424
" />
<path d="M8.8478 16.0424
L8.9083 16.1029
" />
<path d="M8.9083 16.1029
L8.9688 16.2239
" />
<path d="M8.9688 16.2239
L8.9688 16.5867
" />
<path d="M8.9688 16.5867
L8.9083 16.7077
" />
<path d="M8.9083 16.7077
L8.8478 16.7682
" />
<path d="M8.8478 16.7682
L8.7269 16.8286
" />
<path d="M8.7269 16.8286
L8.4850 16.8286
" />
<path d="M8.4850 16.8286
L8.3640 16.7682
" />
<path d="M9.5130 16.7077
L9.5735 16.7682
" />
<path d="M9.5735 16.7682
L9.5130 16.8286
" />
<path d="M9.5130 16.8286
L9.4526 16.7682
" />
<path d="M9.4526 16.7682
L9.5130 16.7077
" />
<path d="M9.5130 16.7077
L9.5130 16.8286
" />
<path d="M9.5130 16.0424
L9.5735 16.1029
" />
<path d="M9.5735 16.1029
L9.5130 16.1634
" />
<path d="M9.5130 16.1634
L9.4526 16.1029
" />
<path d="M9.4526 16.1029
L9.5130 16.0424
" />
<path d="M9.5130 16.0424
L9.5130 16.1634
" />
<path d="M11.0250 15.4982
L9.9364 17.1310
" />
<path d="M12.3555 15.4982
L11.2669 17.1310
" />
<path d="M12.6579 15.9820
L12.8998 16.8286
" />
<path d="M12.8998 16.8286
L13.1417 16.2239
" />
<path d="M13.1417 16.2239
L13.3836 16.8286
" />
<path d="M13.3836 16.8286
L13.6255 15.9820
" />
<path d="M13.9884 15.9820
L14.2303 16.8286
" />
<path d="M14.2303 16.8286
L14.4722 16.2239
" />
<path d="M14.4722 16.2239
L14.7141 16.8286
" />
<path d="M14.7141 16.8286
L14.9560 15.9820
" />
<path d="M15.3189 15.9820
L15.5608 16.8286
" />
<path d="M15.5608 16.8286
L15.8027 16.2239
" />
<path d="M15.8027 16.2239
L16.0446 16.8286
" />
<path d="M16.0446 16.8286
L16.2865 15.9820
" />
<path d="M16.7703 16.7077
L16.8308 16.7682
" />
<path d="M16.8308 16.7682
L16.7703 16.8286
" />
<path d="M16.7703 16.8286
L16.7099 16.7682
" />
<path d="M16.7099 16.7682
L16.7703 16.7077
" />
<path d="M16.7703 16.7077
L16.7703 16.8286
" />
<path d="M17.3751 15.9820
L17.3751 16.8286
" />
<path d="M17.3751 16.1029
L17.4356 16.0424
" />
<path d="M17.4356 16.0424
L17.5566 15.9820
" />
<path d="M17.5566 15.9820
L17.7380 15.9820
" />
<path d="M17.7380 15.9820
L17.8589 16.0424
" />
<path d="M17.8589 16.0424
L17.9194 16.1634
" />
<path d="M17.9194 16.1634
L17.9194 16.8286
" />
<path d="M18.4032 16.8286
L19.0684 15.9820
" />
<path d="M18.4032 15.9820
L19.0684 16.8286
" />
<path d="M19.5522 15.9820
L19.5522 17.2520
" />
<path d="M19.5522 16.0424
L19.6732 15.9820
" />
<path d="M19.6732 15.9820
L19.9151 15.9820
" />
<path d="M19.9151 15.9820
L20.0360 16.0424
" />
<path d="M20.0360 16.0424
L20.0965 16.1029
" />
<path d="M20.0965 16.1029
L20.1570 16.2239
" />
<path d="M20.1570 16.2239
L20.1570 16.5867
" />
<path d="M20.1570 16.5867
L20.0965 16.7077
" />
<path d="M20.0965 16.7077
L20.0360 16.7682
" />
<path d="M20.0360 16.7682
L19.9151 16.8286
" />
<path d="M19.9151 16.8286
L19.6732 16.8286
" />
<path d="M19.6732 16.8286
L19.5522 16.7682
" />
<path d="M20.7012 16.7077
L20.7617 16.7682
" />
<path d="M20.7617 16.7682
L20.7012 16.8286
" />
<path d="M20.7012 16.8286
L20.6408 16.7682
" />
<path d="M20.6408 16.7682
L20.7012 16.7077
" />
<path d="M20.7012 16.7077
L20.7012 16.8286
" />
<path d="M21.8503 16.7682
L21.7294 16.8286
" />
<path d="M21.7294 16.8286
L21.4875 16.8286
" />
<path d="M21.4875 16.8286
L21.3665 16.7682
" />
<path d="M21.3665 16.7682
L21.3060 16.7077
" />
<path d="M21.3060 16.7077
L21.2456 16.5867
" />
<path d="M21.2456 16.5867
L21.2456 16.2239
" />
<path d="M21.2456 16.2239
L21.3060 16.1029
" />
<path d="M21.3060 16.1029
L21.3665 16.0424
" />
<path d="M21.3665 16.0424
L21.4875 15.9820
" />
<path d="M21.4875 15.9820
L21.7294 15.9820
" />
<path d="M21.7294 15.9820
L21.8503 16.0424
" />
<path d="M22.5761 16.8286
L22.4551 16.7682
" />
<path d="M22.4551 16.7682
L22.3946 16.7077
" />
<path d="M22.3946 16.7077
L22.3342 16.5867
" />
<path d="M22.3342 16.5867
L22.3342 16.2239
" />
<path d="M22.3342 16.2239
L22.3946 16.1029
" />
<path d="M22.3946 16.1029
L22.4551 16.0424
" />
<path d="M22.4551 16.0424
L22.5761 15.9820
" />
<path d="M22.5761 15.9820
L22.7575 15.9820
" />
<path d="M22.7575 15.9820
L22.8784 16.0424
" />
<path d="M22.8784 16.0424
L22.9389 16.1029
" />
<path d="M22.9389 16.1029
L22.9994 16.2239
" />
<path d="M22.9994 16.2239
L22.9994 16.5867
" />
<path d="M22.9994 16.5867
L22.9389 16.7077
" />
<path d="M22.9389 16.7077
L22.8784 16.7682
" />
<path d="M22.8784 16.7682
L22.7575 16.8286
" />
<path d="M22.7575 16.8286
L22.5761 16.8286
" />
<path d="M23.5436 16.8286
L23.5436 15.9820
" />
<path d="M23.5436 16.1029
L23.6041 16.0424
" />
<path d="M23.6041 16.0424
L23.7251 15.9820
" />
<path d="M23.7251 15.9820
L23.9065 15.9820
" />
<path d="M23.9065 15.9820
L24.0274 16.0424
" />
<path d="M24.0274 16.0424
L24.0879 16.1634
" />
<path d="M24.0879 16.1634
L24.0879 16.8286
" />
<path d="M24.0879 16.1634
L24.1484 16.0424
" />
<path d="M24.1484 16.0424
L24.2693 15.9820
" />
<path d="M24.2693 15.9820
L24.4508 15.9820
" />
<path d="M24.4508 15.9820
L24.5717 16.0424
" />
<path d="M24.5717 16.0424
L24.6322 16.1634
" />
<path d="M24.6322 16.1634
L24.6322 16.8286
" />
<path d="M26.1441 15.4982
L25.0555 17.1310
" />
<path d="M27.1117 16.8286
L27.1117 15.5586
" />
<path d="M27.1117 16.7682
L26.9908 16.8286
" />
<path d="M26.9908 16.8286
L26.7489 16.8286
" />
<path d="M26.7489 16.8286
L26.6279 16.7682
" />
<path d="M26.6279 16.7682
L26.5674 16.7077
" />
<path d="M26.5674 16.7077
L26.5070 16.5867
" />
<path d="M26.5070 16.5867
L26.5070 16.2239
" />
<path d="M26.5070 16.2239
L26.5674 16.1029
" />
<path d="M26.5674 16.1029
L26.6279 16.0424
" />
<path d="M26.6279 16.0424
L26.7489 15.9820
" />
<path d="M26.7489 15.9820
L26.9908 15.9820
" />
<path d="M26.9908 15.9820
L27.1117 16.0424
" />
<path d="M27.8979 16.8286
L27.7769 16.7682
" />
<path d="M27.7769 16.7682
L27.7164 16.7077
" />
<path d="M27.7164 16.7077
L27.6560 16.5867
" />
<path d="M27.6560 16.5867
L27.6560 16.2239
" />
<path d="M27.6560 16.2239
L27.7164 16.1029
" />
<path d="M27.7164 16.1029
L27.7769 16.0424
" />
<path d="M27.7769 16.0424
L27.8979 15.9820
" />
<path d="M27.8979 15.9820
L28.0793 15.9820
" />
<path d="M28.0793 15.9820
L28.2002 16.0424
" />
<path d="M28.2002 16.0424
L28.2607 16.1029
" />
<path d="M28.2607 16.1029
L28.3212 16.2239
" />
<path d="M28.3212 16.2239
L28.3212 16.5867
" />
<path d="M28.3212 16.5867
L28.2607 16.7077
" />
<path d="M28.2607 16.7077
L28.2002 16.7682
" />
<path d="M28.2002 16.7682
L28.0793 16.8286
" />
<path d="M28.0793 16.8286
L27.8979 16.8286
" />
<path d="M29.4097 16.7682
L29.2888 16.8286
" />
<path d="M29.2888 16.8286
L29.0469 16.8286
" />
<path d="M29.0469 16.8286
L28.9259 16.7682
" />
<path d="M28.9259 16.7682
L28.8654 16.7077
" />
<path d="M28.8654 16.7077
L28.8050 16.5867
" />
<path d="M28.8050 16.5867
L28.8050 16.2239
" />
<path d="M28.8050 16.2239
L28.8654 16.1029
" />
<path d="M28.8654 16.1029
L28.9259 16.0424
" />
<path d="M28.9259 16.0424
L29.0469 15.9820
" />
<path d="M29.0469 15.9820
L29.2888 15.9820
" />
<path d="M29.2888 15.9820
L29.4097 16.0424
" />
<path d="M29.8936 16.7682
L30.0145 16.8286
" />
<path d="M30.0145 16.8286
L30.2564 16.8286
" />
<path d="M30.2564 16.8286
L30.3774 16.7682
" />
<path d="M30.3774 16.7682
L30.4378 16.6472
" />
<path d="M30.4378 16.6472
L30.4378 16.5867
" />
<path d="M30.4378 16.5867
L30.3774 16.4658
" />
<path d="M30.3774 16.4658
L30.2564 16.4053
" />
<path d="M30.2564 16.4053
L30.0750 16.4053
" />
<path d="M30.0750 16.4053
L29.9540 16.3448
" />
<path d="M29.9540 16.3448
L29.8936 16.2239
" />
<path d="M29.8936 16.2239
L29.8936 16.1634
" />
<path d="M29.8936 16.1634
L29.9540 16.0424
" />
<path d="M29.9540 16.0424
L30.0750 15.9820
" />
<path d="M30.0750 15.9820
L30.2564 15.9820
" />
<path d="M30.2564 15.9820
L30.3774 16.0424
" />
<path d="M31.8893 15.4982
L30.8007 17.1310
" />
<path d="M32.7964 16.7682
L32.6755 16.8286
" />
<path d="M32.6755 16.8286
L32.4336 16.8286
" />
<path d="M32.4336 16.8286
L32.3126 16.7682
" />
<path d="M32.3126 16.7682
L32.2522 16.6472
" />
<path d="M32.2522 16.6472
L32.2522 16.1634
" />
<path d="M32.2522 16.1634
L32.3126 16.0424
" />
<path d="M32.3126 16.0424
L32.4336 15.9820
" />
<path d="M32.4336 15.9820
L32.6755 15.9820
" />
<path d="M32.6755 15.9820
L32.7964 16.0424
" />
<path d="M32.7964 16.0424
L32.8569 16.1634
" />
<path d="M32.8569 16.1634
L32.8569 16.2843
" />
<path d="M32.8569 16.2843
L32.2522 16.4053
" />
<path d="M33.4012 15.9820
L33.4012 16.8286
" />
<path d="M33.4012 16.1029
L33.4617 16.0424
" />
<path d="M33.4617 16.0424
L33.5827 15.9820
" />
<path d="M33.5827 15.9820
L33.7641 15.9820
" />
<path d="M33.7641 15.9820
L33.8850 16.0424
" />
<path d="M33.8850 16.0424
L33.9455 16.1634
" />
<path d="M33.9455 16.1634
L33.9455 16.8286
" />
<path d="M35.4574 15.4982
L34.3688 17.1310
" />
<path d="M36.4250 16.8286
L36.4250 15.5586
" />
<path d="M36.4250 16.7682
L36.3041 16.8286
" />
<path d="M36.3041 16.8286
L36.0622 16.8286
" />
<path d="M36.0622 16.8286
L35.9412 16.7682
" />
<path d="M35.9412 16.7682
L35.8807 16.7077
" />
<path d="M35.8807 16.7077
L35.8203 16.5867
" />
<path d="M35.8203 16.5867
L35.8203 16.2239
" />
<path d="M35.8203 16.2239
L35.8807 16.1029
" />
<path d="M35.8807 16.1029
L35.9412 16.0424
" />
<path d="M35.9412 16.0424
L36.0622 15.9820
" />
<path d="M36.0622 15.9820
L36.3041 15.9820
" />
<path d="M36.3041 15.9820
L36.4250 16.0424
" />
<path d="M37.5740 16.8286
L37.5740 16.1634
" />
<path d="M37.5740 16.1634
L37.5135 16.0424
" />
<path d="M37.5135 16.0424
L37.3926 15.9820
" />
<path d="M37.3926 15.9820
L37.1507 15.9820
" />
<path d="M37.1507 15.9820
L37.0297 16.0424
" />
<path d="M37.5740 16.7682
L37.4531 16.8286
" />
<path d="M37.4531 16.8286
L37.1507 16.8286
" />
<path d="M37.1507 16.8286
L37.0297 16.7682
" />
<path d="M37.0297 16.7682
L36.9693 16.6472
" />
<path d="M36.9693 16.6472
L36.9693 16.5262
" />
<path d="M36.9693 16.5262
L37.0297 16.4053
" />
<path d="M37.0297 16.4053
L37.1507 16.3448
" />
<path d="M37.1507 16.3448
L37.4531 16.3448
" />
<path d="M37.4531 16.3448
L37.5740 16.2843
" />
<path d="M37.9973 15.9820
L38.4811 15.9820
" />
<path d="M38.1787 15.5586
L38.1787 16.6472
" />
<path d="M38.1787 16.6472
L38.2392 16.7682
" />
<path d="M38.2392 16.7682
L38.3602 16.8286
" />
<path d="M38.3602 16.8286
L38.4811 16.8286
" />
<path d="M39.4487 16.8286
L39.4487 16.1634
" />
<path d="M39.4487 16.1634
L39.3882 16.0424
" />
<path d="M39.3882 16.0424
L39.2673 15.9820
" />
<path d="M39.2673 15.9820
L39.0254 15.9820
" />
<path d="M39.0254 15.9820
L38.9044 16.0424
" />
<path d="M39.4487 16.7682
L39.3278 16.8286
" />
<path d="M39.3278 16.8286
L39.0254 16.8286
" />
<path d="M39.0254 16.8286
L38.9044 16.7682
" />
<path d="M38.9044 16.7682
L38.8440 16.6472
" />
<path d="M38.8440 16.6472
L38.8440 16.5262
" />
<path d="M38.8440 16.5262
L38.9044 16.4053
" />
<path d="M38.9044 16.4053
L39.0254 16.3448
" />
<path d="M39.0254 16.3448
L39.3278 16.3448
" />
<path d="M39.3278 16.3448
L39.4487 16.2843
" />
<path d="M40.0534 16.3448
L41.0211 16.3448
" />
<path d="M41.5654 16.7682
L41.6863 16.8286
" />
<path d="M41.6863 16.8286
L41.9282 16.8286
" />
<path d="M41.9282 16.8286
L42.0492 16.7682
" />
<path d="M42.0492 16.7682
L42.1096 16.6472
" />
<path d="M42.1096 16.6472
L42.1096 16.5867
" />
<path d="M42.1096 16.5867
L42.0492 16.4658
" />
<path d="M42.0492 16.4658
L41.9282 16.4053
" />
<path d="M41.9282 16.4053
L41.7468 16.4053
" />
<path d="M41.7468 16.4053
L41.6258 16.3448
" />
<path d="M41.6258 16.3448
L41.5654 16.2239
" />
<path d="M41.5654 16.2239
L41.5654 16.1634
" />
<path d="M41.5654 16.1634
L41.6258 16.0424
" />
<path d="M41.6258 16.0424
L41.7468 15.9820
" />
<path d="M41.7468 15.9820
L41.9282 15.9820
" />
<path d="M41.9282 15.9820
L42.0492 16.0424
" />
<path d="M42.6539 16.8286
L42.6539 15.5586
" />
<path d="M43.1982 16.8286
L43.1982 16.1634
" />
<path d="M43.1982 16.1634
L43.1377 16.0424
" />
<path d="M43.1377 16.0424
L43.0168 15.9820
" />
<path d="M43.0168 15.9820
L42.8354 15.9820
" />
<path d="M42.8354 15.9820
L42.7144 16.0424
" />
<path d="M42.7144 16.0424
L42.6539 16.1029
" />
<path d="M44.2867 16.7682
L44.1658 16.8286
" />
<path d="M44.1658 16.8286
L43.9239 16.8286
" />
<path d="M43.9239 16.8286
L43.8029 16.7682
" />
<path d="M43.8029 16.7682
L43.7425 16.6472
" />
<path d="M43.7425 16.6472
L43.7425 16.1634
" />
<path d="M43.7425 16.1634
L43.8029 16.0424
" />
<path d="M43.8029 16.0424
L43.9239 15.9820
" />
<path d="M43.9239 15.9820
L44.1658 15.9820
" />
<path d="M44.1658 15.9820
L44.2867 16.0424
" />
<path d="M44.2867 16.0424
L44.3472 16.1634
" />
<path d="M44.3472 16.1634
L44.3472 16.2843
" />
<path d="M44.3472 16.2843
L43.7425 16.4053
" />
<path d="M45.3753 16.7682
L45.2544 16.8286
" />
<path d="M45.2544 16.8286
L45.0125 16.8286
" />
<path d="M45.0125 16.8286
L44.8915 16.7682
" />
<path d="M44.8915 16.7682
L44.8311 16.6472
" />
<path d="M44.8311 16.6472
L44.8311 16.1634
" />
<path d="M44.8311 16.1634
L44.8915 16.0424
" />
<path d="M44.8915 16.0424
L45.0125 15.9820
" />
<path d="M45.0125 15.9820
L45.2544 15.9820
" />
<path d="M45.2544 15.9820
L45.3753 16.0424
" />
<path d="M45.3753 16.0424
L45.4358 16.1634
" />
<path d="M45.4358 16.1634
L45.4358 16.2843
" />
<path d="M45.4358 16.2843
L44.8311 16.4053
" />
<path d="M45.7987 15.9820
L46.2825 15.9820
" />
<path d="M45.9801 15.5586
L45.9801 16.6472
" />
<path d="M45.9801 16.6472
L46.0406 16.7682
" />
<path d="M46.0406 16.7682
L46.1616 16.8286
" />
<path d="M46.1616 16.8286
L46.2825 16.8286
" />
<path d="M47.6130 15.4982
L46.5244 17.1310
" />
<path d="M48.0363 16.8286
L48.0363 15.5586
" />
<path d="M48.0363 15.5586
L48.5201 15.5586
" />
<path d="M48.5201 15.5586
L48.6411 15.6191
" />
<path d="M48.6411 15.6191
L48.7016 15.6796
" />
<path d="M48.7016 15.6796
L48.7620 15.8005
" />
<path d="M48.7620 15.8005
L48.7620 15.9820
" />
<path d="M48.7620 15.9820
L48.7016 16.1029
" />
<path d="M48.7016 16.1029
L48.6411 16.1634
" />
<path d="M48.6411 16.1634
L48.5201 16.2239
" />
<path d="M48.5201 16.2239
L48.0363 16.2239
" />
<path d="M49.4878 16.1029
L49.3668 16.0424
" />
<path d="M49.3668 16.0424
L49.3063 15.9820
" />
<path d="M49.3063 15.9820
L49.2459 15.8610
" />
<path d="M49.2459 15.8610
L49.2459 15.8005
" />
<path d="M49.2459 15.8005
L49.3063 15.6796
" />
<path d="M49.3063 15.6796
L49.3668 15.6191
" />
<path d="M49.3668 15.6191
L49.4878 15.5586
" />
<path d="M49.4878 15.5586
L49.7297 15.5586
" />
<path d="M49.7297 15.5586
L49.8506 15.6191
" />
<path d="M49.8506 15.6191
L49.9111 15.6796
" />
<path d="M49.9111 15.6796
L49.9716 15.8005
" />
<path d="M49.9716 15.8005
L49.9716 15.8610
" />
<path d="M49.9716 15.8610
L49.9111 15.9820
" />
<path d="M49.9111 15.9820
L49.8506 16.0424
" />
<path d="M49.8506 16.0424
L49.7297 16.1029
" />
<path d="M49.7297 16.1029
L49.4878 16.1029
" />
<path d="M49.4878 16.1029
L49.3668 16.1634
" />
<path d="M49.3668 16.1634
L49.3063 16.2239
" />
<path d="M49.3063 16.2239
L49.2459 16.3448
" />
<path d="M49.2459 16.3448
L49.2459 16.5867
" />
<path d="M49.2459 16.5867
L49.3063 16.7077
" />
<path d="M49.3063 16.7077
L49.3668 16.7682
" />
<path d="M49.3668 16.7682
L49.4878 16.8286
" />
<path d="M49.4878 16.8286
L49.7297 16.8286
" />
<path d="M49.7297 16.8286
L49.8506 16.7682
" />
<path d="M49.8506 16.7682
L49.9111 16.7077
" />
<path d="M49.9111 16.7077
L49.9716 16.5867
" />
<path d="M49.9716 16.5867
L49.9716 16.3448
" />
<path d="M49.9716 16.3448
L49.9111 16.2239
" />
<path d="M49.9111 16.2239
L49.8506 16.1634
" />
<path d="M49.8506 16.1634
L49.7297 16.1029
" />
<path d="M50.4554 15.6796
L50.5158 15.6191
" />
<path d="M50.5158 15.6191
L50.6368 15.5586
" />
<path d="M50.6368 15.5586
L50.9392 15.5586
" />
<path d="M50.9392 15.5586
L51.0601 15.6191
" />
<path d="M51.0601 15.6191
L51.1206 15.6796
" />
<path d="M51.1206 15.6796
L51.1811 15.8005
" />
<path d="M51.1811 15.8005
L51.1811 15.9215
" />
<path d="M51.1811 15.9215
L51.1206 16.1029
" />
<path d="M51.1206 16.1029
L50.3949 16.8286
" />
<path d="M50.3949 16.8286
L51.1811 16.8286
" />
<path d="M52.1487 16.1634
L52.3301 16.2239
" />
<path d="M52.3301 16.2239
L52.3906 16.2843
" />
<path d="M52.3906 16.2843
L52.4510 16.4053
" />
<path d="M52.4510 16.4053
L52.4510 16.5867
" />
<path d="M52.4510 16.5867
L52.3906 16.7077
" />
<path d="M52.3906 16.7077
L52.3301 16.7682
" />
<path d="M52.3301 16.7682
L52.2091 16.8286
" />
<path d="M52.2091 16.8286
L51.7253 16.8286
" />
<path d="M51.7253 16.8286
L51.7253 15.5586
" />
<path d="M51.7253 15.5586
L52.1487 15.5586
" />
<path d="M52.1487 15.5586
L52.2696 15.6191
" />
<path d="M52.2696 15.6191
L52.3301 15.6796
" />
<path d="M52.3301 15.6796
L52.3906 15.8005
" />
<path d="M52.3906 15.8005
L52.3906 15.9215
" />
<path d="M52.3906 15.9215
L52.3301 16.0424
" />
<path d="M52.3301 16.0424
L52.2696 16.1029
" />
<path d="M52.2696 16.1029
L52.1487 16.1634
" />
<path d="M52.1487 16.1634
L51.7253 16.1634
" />
<path d="M53.0558 16.8286
L53.2977 16.8286
" />
<path d="M53.2977 16.8286
L53.4187 16.7682
" />
<path d="M53.4187 16.7682
L53.4791 16.7077
" />
<path d="M53.4791 16.7077
L53.6001 16.5262
" />
<path d="M53.6001 16.5262
L53.6606 16.2843
" />
<path d="M53.6606 16.2843
L53.6606 15.8005
" />
<path d="M53.6606 15.8005
L53.6001 15.6796
" />
<path d="M53.6001 15.6796
L53.5396 15.6191
" />
<path d="M53.5396 15.6191
L53.4187 15.5586
" />
<path d="M53.4187 15.5586
L53.1768 15.5586
" />
<path d="M53.1768 15.5586
L53.0558 15.6191
" />
<path d="M53.0558 15.6191
L52.9953 15.6796
" />
<path d="M52.9953 15.6796
L52.9349 15.8005
" />
<path d="M52.9349 15.8005
L52.9349 16.1029
" />
<path d="M52.9349 16.1029
L52.9953 16.2239
" />
<path d="M52.9953 16.2239
L53.0558 16.2843
" />
<path d="M53.0558 16.2843
L53.1768 16.3448
" />
<path d="M53.1768 16.3448
L53.4187 16.3448
" />
<path d="M53.4187 16.3448
L53.5396 16.2843
" />
<path d="M53.5396 16.2843
L53.6001 16.2239
" />
<path d="M53.6001 16.2239
L53.6606 16.1029
" />
<path d="M54.7491 15.5586
L54.5072 15.5586
" />
<path d="M54.5072 15.5586
L54.3863 15.6191
" />
<path d="M54.3863 15.6191
L54.3258 15.6796
" />
<path d="M54.3258 15.6796
L54.2048 15.8610
" />
<path d="M54.2048 15.8610
L54.1444 16.1029
" />
<path d="M54.1444 16.1029
L54.1444 16.5867
" />
<path d="M54.1444 16.5867
L54.2048 16.7077
" />
<path d="M54.2048 16.7077
L54.2653 16.7682
" />
<path d="M54.2653 16.7682
L54.3863 16.8286
" />
<path d="M54.3863 16.8286
L54.6282 16.8286
" />
<path d="M54.6282 16.8286
L54.7491 16.7682
" />
<path d="M54.7491 16.7682
L54.8096 16.7077
" />
<path d="M54.8096 16.7077
L54.8701 16.5867
" />
<path d="M54.8701 16.5867
L54.8701 16.2843
" />
<path d="M54.8701 16.2843
L54.8096 16.1634
" />
<path d="M54.8096 16.1634
L54.7491 16.1029
" />
<path d="M54.7491 16.1029
L54.6282 16.0424
" />
<path d="M54.6282 16.0424
L54.3863 16.0424
" />
<path d="M54.3863 16.0424
L54.2653 16.1029
" />
<path d="M54.2653 16.1029
L54.2048 16.1634
" />
<path d="M54.2048 16.1634
L54.1444 16.2843
" />
<path d="M55.4143 16.7077
L55.4748 16.7682
" />
<path d="M55.4748 16.7682
L55.4143 16.8286
" />
<path d="M55.4143 16.8286
L55.3539 16.7682
" />
<path d="M55.3539 16.7682
L55.4143 16.7077
" />
<path d="M55.4143 16.7077
L55.4143 16.8286
" />
<path d="M56.0191 15.9820
L56.0191 17.2520
" />
<path d="M56.0191 16.0424
L56.1401 15.9820
" />
<path d="M56.1401 15.9820
L56.3820 15.9820
" />
<path d="M56.3820 15.9820
L56.5029 16.0424
" />
<path d="M56.5029 16.0424
L56.5634 16.1029
" />
<path d="M56.5634 16.1029
L56.6239 16.2239
" />
<path d="M56.6239 16.2239
L56.6239 16.5867
" />
<path d="M56.6239 16.5867
L56.5634 16.7077
" />
<path d="M56.5634 16.7077
L56.5029 16.7682
" />
<path d="M56.5029 16.7682
L56.3820 16.8286
" />
<path d="M56.3820 16.8286
L56.1401 16.8286
" />
<path d="M56.1401 16.8286
L56.0191 16.7682
" />
<path d="M57.7124 16.8286
L57.7124 15.5586
" />
<path d="M57.7124 16.7682
L57.5915 16.8286
" />
<path d="M57.5915 16.8286
L57.3496 16.8286
" />
<path d="M57.3496 16.8286
L57.2286 16.7682
" />
<path d="M57.2286 16.7682
L57.1681 16.7077
" />
<path d="M57.1681 16.7077
L57.1077 16.5867
" />
<path d="M57.1077 16.5867
L57.1077 16.2239
" />
<path d="M57.1077 16.2239
L57.1681 16.1029
" />
<path d="M57.1681 16.1029
L57.2286 16.0424
" />
<path d="M57.2286 16.0424
L57.3496 15.9820
" />
<path d="M57.3496 15.9820
L57.5915 15.9820
" />
<path d="M57.5915 15.9820
L57.7124 16.0424
" />
<path d="M58.1357 15.9820
L58.6195 15.9820
" />
<path d="M58.3171 16.8286
L58.3171 15.7401
" />
<path d="M58.3171 15.7401
L58.3776 15.6191
" />
<path d="M58.3776 15.6191
L58.4986 15.5586
" />
<path d="M58.4986 15.5586
L58.6195 15.5586
" />
</g></g> 
</svg>
