<?xml version="1.0" standalone="no"?>
 <!DOCTYPE svg PUBLIC "-//W3C//DTD SVG 1.1//EN" 
 "http://www.w3.org/Graphics/SVG/1.1/DTD/svg11.dtd"> 
<svg
  xmlns:svg="http://www.w3.org/2000/svg"
  xmlns="http://www.w3.org/2000/svg"
  xmlns:xlink="http://www.w3.org/1999/xlink"
  version="1.1"
  width="61.7728mm" height="20.2946mm" viewBox="0.0000 0.0000 61.7728 20.2946">
<title>SVG Image created as working.svg date 2023/08/02 20:58:31 </title>
  <desc>Image generated by Eeschema-SVG </desc>
<g style="fill:#000000; fill-opacity:1.0000;stroke:#000000; stroke-opacity:1.0000;
stroke-linecap:round; stroke-linejoin:round;"
 transform="translate(0 0) scale(1 1)">
</g>
<g style="fill:#840000; fill-opacity:0.0; 
stroke:#840000; stroke-width:0.0000; stroke-opacity:1; 
stroke-linecap:round; stroke-linejoin:round;">
</g>
<g style="fill:#FFFFC2; fill-opacity:0.0; 
stroke:#FFFFC2; stroke-width:0.0000; stroke-opacity:1; 
stroke-linecap:round; stroke-linejoin:round;">
</g>
<g style="fill:#FFFFC2; fill-opacity:1.0000; 
stroke:#FFFFC2; stroke-width:0.0000; stroke-opacity:1; 
stroke-linecap:round; stroke-linejoin:round;">
<rect x="23.272200" y="3.794200" width="15.240000" height="10.160000" rx="0.000000" />
</g>
<g style="fill:#840084; fill-opacity:1.0000; 
stroke:#840084; stroke-width:0.0000; stroke-opacity:1; 
stroke-linecap:round; stroke-linejoin:round;">
</g>
<g style="fill:#840000; fill-opacity:1.0000; 
stroke:#840000; stroke-width:0.0000; stroke-opacity:1; 
stroke-linecap:round; stroke-linejoin:round;">
</g>
<g style="fill:#840000; fill-opacity:0.0; 
stroke:#840000; stroke-width:0.2540; stroke-opacity:1; 
stroke-linecap:round; stroke-linejoin:round;">
<rect x="23.272200" y="3.794200" width="15.240000" height="10.160000" rx="0.000000" />
</g>
<g style="fill:#840000; fill-opacity:0.0; 
stroke:#840000; stroke-width:0.1524; stroke-opacity:1; 
stroke-linecap:round; stroke-linejoin:round;">
<path d="M25.5582 8.2392 A0.7157 0.7157 0.0 0 0 26.8282 8.2392" />
<path d="M28.0981 8.2392 A0.7277 0.7277 0.0 0 0 26.8283 8.2392" />
<path style="fill:#840000; fill-opacity:0.0; 
stroke:#840000; stroke-width:0.1524; stroke-opacity:1; 
stroke-linecap:round; stroke-linejoin:round;fill:none"
d="M 25.5582,9.5092
28.0982,9.5092
" /> 
<path style="fill:#840000; fill-opacity:0.0; 
stroke:#840000; stroke-width:0.1524; stroke-opacity:1; 
stroke-linecap:round; stroke-linejoin:round;fill:none"
d="M 30.8922,11.4142
30.8922,12.6842
" /> 
<path style="fill:#840000; fill-opacity:0.0; 
stroke:#840000; stroke-width:0.1524; stroke-opacity:1; 
stroke-linecap:round; stroke-linejoin:round;fill:none"
d="M 30.8922,8.8742
30.8922,10.1442
" /> 
<path style="fill:#840000; fill-opacity:0.0; 
stroke:#840000; stroke-width:0.1524; stroke-opacity:1; 
stroke-linecap:round; stroke-linejoin:round;fill:none"
d="M 30.8922,6.3342
30.8922,7.6042
" /> 
<path style="fill:#840000; fill-opacity:0.0; 
stroke:#840000; stroke-width:0.1524; stroke-opacity:1; 
stroke-linecap:round; stroke-linejoin:round;fill:none"
d="M 30.8922,3.7942
30.8922,5.0642
" /> 
<path style="fill:#840000; fill-opacity:0.0; 
stroke:#840000; stroke-width:0.1524; stroke-opacity:1; 
stroke-linecap:round; stroke-linejoin:round;fill:none"
d="M 33.6862,9.5092
36.2262,9.5092
" /> 
<path style="fill:#840000; fill-opacity:0.0; 
stroke:#840000; stroke-width:0.1524; stroke-opacity:1; 
stroke-linecap:round; stroke-linejoin:round;fill:none"
d="M 33.6862,8.2392
34.1942,8.2392
" /> 
<path style="fill:#840000; fill-opacity:0.0; 
stroke:#840000; stroke-width:0.1524; stroke-opacity:1; 
stroke-linecap:round; stroke-linejoin:round;fill:none"
d="M 34.7022,8.2392
35.2102,8.2392
" /> 
<path style="fill:#840000; fill-opacity:0.0; 
stroke:#840000; stroke-width:0.1524; stroke-opacity:1; 
stroke-linecap:round; stroke-linejoin:round;fill:none"
d="M 35.7182,8.2392
36.2262,8.2392
" /> 
<path d="M38.5122 11.4142
L41.0522 11.4142
" />
</g>
<g style="fill:#006464; fill-opacity:0.0; 
stroke:#006464; stroke-width:0.1524; stroke-opacity:1; 
stroke-linecap:round; stroke-linejoin:round;">
<text x="38.0042" y="12.0492"
textLength="5.8117" font-size="1.6933" lengthAdjust="spacingAndGlyphs"
text-anchor="end" opacity="0">Vout-</text>
<g class="stroked-text"><desc>Vout-</desc>
<path d="M32.4404 10.7317
L32.8637 12.0017
" />
<path d="M32.8637 12.0017
L33.2871 10.7317
" />
<path d="M33.8919 12.0017
L33.7709 11.9413
" />
<path d="M33.7709 11.9413
L33.7104 11.8808
" />
<path d="M33.7104 11.8808
L33.6500 11.7598
" />
<path d="M33.6500 11.7598
L33.6500 11.3970
" />
<path d="M33.6500 11.3970
L33.7104 11.2760
" />
<path d="M33.7104 11.2760
L33.7709 11.2155
" />
<path d="M33.7709 11.2155
L33.8919 11.1551
" />
<path d="M33.8919 11.1551
L34.0733 11.1551
" />
<path d="M34.0733 11.1551
L34.1942 11.2155
" />
<path d="M34.1942 11.2155
L34.2547 11.2760
" />
<path d="M34.2547 11.2760
L34.3152 11.3970
" />
<path d="M34.3152 11.3970
L34.3152 11.7598
" />
<path d="M34.3152 11.7598
L34.2547 11.8808
" />
<path d="M34.2547 11.8808
L34.1942 11.9413
" />
<path d="M34.1942 11.9413
L34.0733 12.0017
" />
<path d="M34.0733 12.0017
L33.8919 12.0017
" />
<path d="M35.4037 11.1551
L35.4037 12.0017
" />
<path d="M34.8594 11.1551
L34.8594 11.8203
" />
<path d="M34.8594 11.8203
L34.9199 11.9413
" />
<path d="M34.9199 11.9413
L35.0409 12.0017
" />
<path d="M35.0409 12.0017
L35.2223 12.0017
" />
<path d="M35.2223 12.0017
L35.3432 11.9413
" />
<path d="M35.3432 11.9413
L35.4037 11.8808
" />
<path d="M35.8270 11.1551
L36.3108 11.1551
" />
<path d="M36.0084 10.7317
L36.0084 11.8203
" />
<path d="M36.0084 11.8203
L36.0689 11.9413
" />
<path d="M36.0689 11.9413
L36.1899 12.0017
" />
<path d="M36.1899 12.0017
L36.3108 12.0017
" />
<path d="M36.7341 11.5179
L37.7018 11.5179
" />
</g></g>
<g style="fill:#A90000; fill-opacity:0.0; 
stroke:#A90000; stroke-width:0.1524; stroke-opacity:1; 
stroke-linecap:round; stroke-linejoin:round;">
<text x="39.7822" y="11.1602"
textLength="1.3365" font-size="1.6933" lengthAdjust="spacingAndGlyphs"
text-anchor="middle" opacity="0">1</text>
<g class="stroked-text"><desc>1</desc>
<path d="M40.1451 11.0047
L39.4194 11.0047
" />
<path d="M39.7822 11.0047
L39.7822 9.7347
" />
<path d="M39.7822 9.7347
L39.6613 9.9162
" />
<path d="M39.6613 9.9162
L39.5403 10.0371
" />
<path d="M39.5403 10.0371
L39.4194 10.0976
" />
</g></g>
<g style="fill:#840000; fill-opacity:0.0; 
stroke:#840000; stroke-width:0.1524; stroke-opacity:1; 
stroke-linecap:round; stroke-linejoin:round;">
<path d="M38.5122 6.3342
L41.0522 6.3342
" />
</g>
<g style="fill:#006464; fill-opacity:0.0; 
stroke:#006464; stroke-width:0.1524; stroke-opacity:1; 
stroke-linecap:round; stroke-linejoin:round;">
<text x="38.0042" y="6.9692"
textLength="5.8117" font-size="1.6933" lengthAdjust="spacingAndGlyphs"
text-anchor="end" opacity="0">Vout+</text>
<g class="stroked-text"><desc>Vout+</desc>
<path d="M32.4404 5.6517
L32.8637 6.9217
" />
<path d="M32.8637 6.9217
L33.2871 5.6517
" />
<path d="M33.8919 6.9217
L33.7709 6.8613
" />
<path d="M33.7709 6.8613
L33.7104 6.8008
" />
<path d="M33.7104 6.8008
L33.6500 6.6798
" />
<path d="M33.6500 6.6798
L33.6500 6.3170
" />
<path d="M33.6500 6.3170
L33.7104 6.1960
" />
<path d="M33.7104 6.1960
L33.7709 6.1355
" />
<path d="M33.7709 6.1355
L33.8919 6.0751
" />
<path d="M33.8919 6.0751
L34.0733 6.0751
" />
<path d="M34.0733 6.0751
L34.1942 6.1355
" />
<path d="M34.1942 6.1355
L34.2547 6.1960
" />
<path d="M34.2547 6.1960
L34.3152 6.3170
" />
<path d="M34.3152 6.3170
L34.3152 6.6798
" />
<path d="M34.3152 6.6798
L34.2547 6.8008
" />
<path d="M34.2547 6.8008
L34.1942 6.8613
" />
<path d="M34.1942 6.8613
L34.0733 6.9217
" />
<path d="M34.0733 6.9217
L33.8919 6.9217
" />
<path d="M35.4037 6.0751
L35.4037 6.9217
" />
<path d="M34.8594 6.0751
L34.8594 6.7403
" />
<path d="M34.8594 6.7403
L34.9199 6.8613
" />
<path d="M34.9199 6.8613
L35.0409 6.9217
" />
<path d="M35.0409 6.9217
L35.2223 6.9217
" />
<path d="M35.2223 6.9217
L35.3432 6.8613
" />
<path d="M35.3432 6.8613
L35.4037 6.8008
" />
<path d="M35.8270 6.0751
L36.3108 6.0751
" />
<path d="M36.0084 5.6517
L36.0084 6.7403
" />
<path d="M36.0084 6.7403
L36.0689 6.8613
" />
<path d="M36.0689 6.8613
L36.1899 6.9217
" />
<path d="M36.1899 6.9217
L36.3108 6.9217
" />
<path d="M36.7341 6.4379
L37.7018 6.4379
" />
<path d="M37.2179 6.9217
L37.2179 5.9541
" />
</g></g>
<g style="fill:#A90000; fill-opacity:0.0; 
stroke:#A90000; stroke-width:0.1524; stroke-opacity:1; 
stroke-linecap:round; stroke-linejoin:round;">
<text x="39.7822" y="6.0802"
textLength="1.3365" font-size="1.6933" lengthAdjust="spacingAndGlyphs"
text-anchor="middle" opacity="0">2</text>
<g class="stroked-text"><desc>2</desc>
<path d="M39.4194 4.7757
L39.4798 4.7152
" />
<path d="M39.4798 4.7152
L39.6008 4.6547
" />
<path d="M39.6008 4.6547
L39.9032 4.6547
" />
<path d="M39.9032 4.6547
L40.0241 4.7152
" />
<path d="M40.0241 4.7152
L40.0846 4.7757
" />
<path d="M40.0846 4.7757
L40.1451 4.8966
" />
<path d="M40.1451 4.8966
L40.1451 5.0176
" />
<path d="M40.1451 5.0176
L40.0846 5.1990
" />
<path d="M40.0846 5.1990
L39.3589 5.9247
" />
<path d="M39.3589 5.9247
L40.1451 5.9247
" />
</g></g>
<g style="fill:#840000; fill-opacity:0.0; 
stroke:#840000; stroke-width:0.1524; stroke-opacity:1; 
stroke-linecap:round; stroke-linejoin:round;">
<path d="M23.2722 6.3342
L20.7322 6.3342
" />
</g>
<g style="fill:#006464; fill-opacity:0.0; 
stroke:#006464; stroke-width:0.1524; stroke-opacity:1; 
stroke-linecap:round; stroke-linejoin:round;">
<text x="23.7802" y="6.9692"
textLength="2.4856" font-size="1.6933" lengthAdjust="spacingAndGlyphs"
text-anchor="start" opacity="0">AC</text>
<g class="stroked-text"><desc>AC</desc>
<path d="M24.0221 6.5589
L24.6268 6.5589
" />
<path d="M23.9011 6.9217
L24.3244 5.6517
" />
<path d="M24.3244 5.6517
L24.7478 6.9217
" />
<path d="M25.8968 6.8008
L25.8364 6.8613
" />
<path d="M25.8364 6.8613
L25.6549 6.9217
" />
<path d="M25.6549 6.9217
L25.5340 6.9217
" />
<path d="M25.5340 6.9217
L25.3526 6.8613
" />
<path d="M25.3526 6.8613
L25.2316 6.7403
" />
<path d="M25.2316 6.7403
L25.1711 6.6193
" />
<path d="M25.1711 6.6193
L25.1107 6.3774
" />
<path d="M25.1107 6.3774
L25.1107 6.1960
" />
<path d="M25.1107 6.1960
L25.1711 5.9541
" />
<path d="M25.1711 5.9541
L25.2316 5.8332
" />
<path d="M25.2316 5.8332
L25.3526 5.7122
" />
<path d="M25.3526 5.7122
L25.5340 5.6517
" />
<path d="M25.5340 5.6517
L25.6549 5.6517
" />
<path d="M25.6549 5.6517
L25.8364 5.7122
" />
<path d="M25.8364 5.7122
L25.8968 5.7727
" />
</g></g>
<g style="fill:#A90000; fill-opacity:0.0; 
stroke:#A90000; stroke-width:0.1524; stroke-opacity:1; 
stroke-linecap:round; stroke-linejoin:round;">
<text x="22.0022" y="6.0802"
textLength="1.3365" font-size="1.6933" lengthAdjust="spacingAndGlyphs"
text-anchor="middle" opacity="0">3</text>
<g class="stroked-text"><desc>3</desc>
<path d="M21.5789 4.6547
L22.3651 4.6547
" />
<path d="M22.3651 4.6547
L21.9417 5.1385
" />
<path d="M21.9417 5.1385
L22.1232 5.1385
" />
<path d="M22.1232 5.1385
L22.2441 5.1990
" />
<path d="M22.2441 5.1990
L22.3046 5.2595
" />
<path d="M22.3046 5.2595
L22.3651 5.3804
" />
<path d="M22.3651 5.3804
L22.3651 5.6828
" />
<path d="M22.3651 5.6828
L22.3046 5.8038
" />
<path d="M22.3046 5.8038
L22.2441 5.8643
" />
<path d="M22.2441 5.8643
L22.1232 5.9247
" />
<path d="M22.1232 5.9247
L21.7603 5.9247
" />
<path d="M21.7603 5.9247
L21.6394 5.8643
" />
<path d="M21.6394 5.8643
L21.5789 5.8038
" />
</g></g>
<g style="fill:#840000; fill-opacity:0.0; 
stroke:#840000; stroke-width:0.1524; stroke-opacity:1; 
stroke-linecap:round; stroke-linejoin:round;">
<path d="M23.2722 11.4142
L20.7322 11.4142
" />
</g>
<g style="fill:#006464; fill-opacity:0.0; 
stroke:#006464; stroke-width:0.1524; stroke-opacity:1; 
stroke-linecap:round; stroke-linejoin:round;">
<text x="23.7802" y="12.0492"
textLength="2.4856" font-size="1.6933" lengthAdjust="spacingAndGlyphs"
text-anchor="start" opacity="0">AC</text>
<g class="stroked-text"><desc>AC</desc>
<path d="M24.0221 11.6389
L24.6268 11.6389
" />
<path d="M23.9011 12.0017
L24.3244 10.7317
" />
<path d="M24.3244 10.7317
L24.7478 12.0017
" />
<path d="M25.8968 11.8808
L25.8364 11.9413
" />
<path d="M25.8364 11.9413
L25.6549 12.0017
" />
<path d="M25.6549 12.0017
L25.5340 12.0017
" />
<path d="M25.5340 12.0017
L25.3526 11.9413
" />
<path d="M25.3526 11.9413
L25.2316 11.8203
" />
<path d="M25.2316 11.8203
L25.1711 11.6993
" />
<path d="M25.1711 11.6993
L25.1107 11.4574
" />
<path d="M25.1107 11.4574
L25.1107 11.2760
" />
<path d="M25.1107 11.2760
L25.1711 11.0341
" />
<path d="M25.1711 11.0341
L25.2316 10.9132
" />
<path d="M25.2316 10.9132
L25.3526 10.7922
" />
<path d="M25.3526 10.7922
L25.5340 10.7317
" />
<path d="M25.5340 10.7317
L25.6549 10.7317
" />
<path d="M25.6549 10.7317
L25.8364 10.7922
" />
<path d="M25.8364 10.7922
L25.8968 10.8527
" />
</g></g>
<g style="fill:#A90000; fill-opacity:0.0; 
stroke:#A90000; stroke-width:0.1524; stroke-opacity:1; 
stroke-linecap:round; stroke-linejoin:round;">
<text x="22.0022" y="11.1602"
textLength="1.3365" font-size="1.6933" lengthAdjust="spacingAndGlyphs"
text-anchor="middle" opacity="0">4</text>
<g class="stroked-text"><desc>4</desc>
<path d="M22.2441 10.1581
L22.2441 11.0047
" />
<path d="M21.9417 9.6743
L21.6394 10.5814
" />
<path d="M21.6394 10.5814
L22.4255 10.5814
" />
</g></g>
<g style="fill:#840084; fill-opacity:0.0; 
stroke:#840084; stroke-width:0.1524; stroke-opacity:1; 
stroke-linecap:round; stroke-linejoin:round;">
</g>
<g style="fill:#006464; fill-opacity:0.0; 
stroke:#006464; stroke-width:0.1524; stroke-opacity:1; 
stroke-linecap:round; stroke-linejoin:round;">
</g>
<g style="fill:#006464; fill-opacity:0.0; 
stroke:#006464; stroke-width:0.1588; stroke-opacity:1; 
stroke-linecap:round; stroke-linejoin:round;">
<text x="30.8922" y="3.1592"
textLength="3.7111" font-size="1.6933" lengthAdjust="spacingAndGlyphs"
text-anchor="middle" opacity="0">PS?</text>
<g class="stroked-text"><desc>PS?</desc>
<path d="M29.4105 3.1117
L29.4105 1.8417
" />
<path d="M29.4105 1.8417
L29.8943 1.8417
" />
<path d="M29.8943 1.8417
L30.0153 1.9022
" />
<path d="M30.0153 1.9022
L30.0758 1.9627
" />
<path d="M30.0758 1.9627
L30.1362 2.0836
" />
<path d="M30.1362 2.0836
L30.1362 2.2651
" />
<path d="M30.1362 2.2651
L30.0758 2.3860
" />
<path d="M30.0758 2.3860
L30.0153 2.4465
" />
<path d="M30.0153 2.4465
L29.8943 2.5070
" />
<path d="M29.8943 2.5070
L29.4105 2.5070
" />
<path d="M30.6201 3.0513
L30.8015 3.1117
" />
<path d="M30.8015 3.1117
L31.1039 3.1117
" />
<path d="M31.1039 3.1117
L31.2248 3.0513
" />
<path d="M31.2248 3.0513
L31.2853 2.9908
" />
<path d="M31.2853 2.9908
L31.3458 2.8698
" />
<path d="M31.3458 2.8698
L31.3458 2.7489
" />
<path d="M31.3458 2.7489
L31.2853 2.6279
" />
<path d="M31.2853 2.6279
L31.2248 2.5674
" />
<path d="M31.2248 2.5674
L31.1039 2.5070
" />
<path d="M31.1039 2.5070
L30.8620 2.4465
" />
<path d="M30.8620 2.4465
L30.7410 2.3860
" />
<path d="M30.7410 2.3860
L30.6805 2.3255
" />
<path d="M30.6805 2.3255
L30.6201 2.2046
" />
<path d="M30.6201 2.2046
L30.6201 2.0836
" />
<path d="M30.6201 2.0836
L30.6805 1.9627
" />
<path d="M30.6805 1.9627
L30.7410 1.9022
" />
<path d="M30.7410 1.9022
L30.8620 1.8417
" />
<path d="M30.8620 1.8417
L31.1643 1.8417
" />
<path d="M31.1643 1.8417
L31.3458 1.9022
" />
<path d="M32.0715 2.9908
L32.1319 3.0513
" />
<path d="M32.1319 3.0513
L32.0715 3.1117
" />
<path d="M32.0715 3.1117
L32.0110 3.0513
" />
<path d="M32.0110 3.0513
L32.0715 2.9908
" />
<path d="M32.0715 2.9908
L32.0715 3.1117
" />
<path d="M31.8296 1.9022
L31.9505 1.8417
" />
<path d="M31.9505 1.8417
L32.2529 1.8417
" />
<path d="M32.2529 1.8417
L32.3738 1.9022
" />
<path d="M32.3738 1.9022
L32.4343 2.0232
" />
<path d="M32.4343 2.0232
L32.4343 2.1441
" />
<path d="M32.4343 2.1441
L32.3738 2.2651
" />
<path d="M32.3738 2.2651
L32.3134 2.3255
" />
<path d="M32.3134 2.3255
L32.1924 2.3860
" />
<path d="M32.1924 2.3860
L32.1319 2.4465
" />
<path d="M32.1319 2.4465
L32.0715 2.5674
" />
<path d="M32.0715 2.5674
L32.0715 2.6279
" />
</g><text x="30.8922" y="15.8592"
textLength="11.0890" font-size="1.6933" lengthAdjust="spacingAndGlyphs"
text-anchor="middle" opacity="0">TMLM05103</text>
<g class="stroked-text"><desc>TMLM05103</desc>
<path d="M25.5401 14.5417
L26.2658 14.5417
" />
<path d="M25.9030 15.8117
L25.9030 14.5417
" />
<path d="M26.6891 15.8117
L26.6891 14.5417
" />
<path d="M26.6891 14.5417
L27.1125 15.4489
" />
<path d="M27.1125 15.4489
L27.5358 14.5417
" />
<path d="M27.5358 14.5417
L27.5358 15.8117
" />
<path d="M28.7453 15.8117
L28.1405 15.8117
" />
<path d="M28.1405 15.8117
L28.1405 14.5417
" />
<path d="M29.1686 15.8117
L29.1686 14.5417
" />
<path d="M29.1686 14.5417
L29.5920 15.4489
" />
<path d="M29.5920 15.4489
L30.0153 14.5417
" />
<path d="M30.0153 14.5417
L30.0153 15.8117
" />
<path d="M30.8619 14.5417
L30.9829 14.5417
" />
<path d="M30.9829 14.5417
L31.1038 14.6022
" />
<path d="M31.1038 14.6022
L31.1643 14.6627
" />
<path d="M31.1643 14.6627
L31.2248 14.7836
" />
<path d="M31.2248 14.7836
L31.2853 15.0255
" />
<path d="M31.2853 15.0255
L31.2853 15.3279
" />
<path d="M31.2853 15.3279
L31.2248 15.5698
" />
<path d="M31.2248 15.5698
L31.1643 15.6908
" />
<path d="M31.1643 15.6908
L31.1038 15.7513
" />
<path d="M31.1038 15.7513
L30.9829 15.8117
" />
<path d="M30.9829 15.8117
L30.8619 15.8117
" />
<path d="M30.8619 15.8117
L30.7410 15.7513
" />
<path d="M30.7410 15.7513
L30.6805 15.6908
" />
<path d="M30.6805 15.6908
L30.6200 15.5698
" />
<path d="M30.6200 15.5698
L30.5596 15.3279
" />
<path d="M30.5596 15.3279
L30.5596 15.0255
" />
<path d="M30.5596 15.0255
L30.6200 14.7836
" />
<path d="M30.6200 14.7836
L30.6805 14.6627
" />
<path d="M30.6805 14.6627
L30.7410 14.6022
" />
<path d="M30.7410 14.6022
L30.8619 14.5417
" />
<path d="M32.4343 14.5417
L31.8295 14.5417
" />
<path d="M31.8295 14.5417
L31.7691 15.1465
" />
<path d="M31.7691 15.1465
L31.8295 15.0860
" />
<path d="M31.8295 15.0860
L31.9505 15.0255
" />
<path d="M31.9505 15.0255
L32.2529 15.0255
" />
<path d="M32.2529 15.0255
L32.3738 15.0860
" />
<path d="M32.3738 15.0860
L32.4343 15.1465
" />
<path d="M32.4343 15.1465
L32.4948 15.2674
" />
<path d="M32.4948 15.2674
L32.4948 15.5698
" />
<path d="M32.4948 15.5698
L32.4343 15.6908
" />
<path d="M32.4343 15.6908
L32.3738 15.7513
" />
<path d="M32.3738 15.7513
L32.2529 15.8117
" />
<path d="M32.2529 15.8117
L31.9505 15.8117
" />
<path d="M31.9505 15.8117
L31.8295 15.7513
" />
<path d="M31.8295 15.7513
L31.7691 15.6908
" />
<path d="M33.7043 15.8117
L32.9786 15.8117
" />
<path d="M33.3414 15.8117
L33.3414 14.5417
" />
<path d="M33.3414 14.5417
L33.2205 14.7232
" />
<path d="M33.2205 14.7232
L33.0995 14.8441
" />
<path d="M33.0995 14.8441
L32.9786 14.9046
" />
<path d="M34.4904 14.5417
L34.6114 14.5417
" />
<path d="M34.6114 14.5417
L34.7323 14.6022
" />
<path d="M34.7323 14.6022
L34.7928 14.6627
" />
<path d="M34.7928 14.6627
L34.8533 14.7836
" />
<path d="M34.8533 14.7836
L34.9138 15.0255
" />
<path d="M34.9138 15.0255
L34.9138 15.3279
" />
<path d="M34.9138 15.3279
L34.8533 15.5698
" />
<path d="M34.8533 15.5698
L34.7928 15.6908
" />
<path d="M34.7928 15.6908
L34.7323 15.7513
" />
<path d="M34.7323 15.7513
L34.6114 15.8117
" />
<path d="M34.6114 15.8117
L34.4904 15.8117
" />
<path d="M34.4904 15.8117
L34.3695 15.7513
" />
<path d="M34.3695 15.7513
L34.3090 15.6908
" />
<path d="M34.3090 15.6908
L34.2485 15.5698
" />
<path d="M34.2485 15.5698
L34.1881 15.3279
" />
<path d="M34.1881 15.3279
L34.1881 15.0255
" />
<path d="M34.1881 15.0255
L34.2485 14.7836
" />
<path d="M34.2485 14.7836
L34.3090 14.6627
" />
<path d="M34.3090 14.6627
L34.3695 14.6022
" />
<path d="M34.3695 14.6022
L34.4904 14.5417
" />
<path d="M35.3371 14.5417
L36.1233 14.5417
" />
<path d="M36.1233 14.5417
L35.6999 15.0255
" />
<path d="M35.6999 15.0255
L35.8814 15.0255
" />
<path d="M35.8814 15.0255
L36.0023 15.0860
" />
<path d="M36.0023 15.0860
L36.0628 15.1465
" />
<path d="M36.0628 15.1465
L36.1233 15.2674
" />
<path d="M36.1233 15.2674
L36.1233 15.5698
" />
<path d="M36.1233 15.5698
L36.0628 15.6908
" />
<path d="M36.0628 15.6908
L36.0023 15.7513
" />
<path d="M36.0023 15.7513
L35.8814 15.8117
" />
<path d="M35.8814 15.8117
L35.5185 15.8117
" />
<path d="M35.5185 15.8117
L35.3976 15.7513
" />
<path d="M35.3976 15.7513
L35.3371 15.6908
" />
</g></g>
<g style="fill:#840084; fill-opacity:0.0; 
stroke:#840084; stroke-width:0.1588; stroke-opacity:1; 
stroke-linecap:round; stroke-linejoin:round;">
<text x="30.8922" y="18.3992"
textLength="51.4871" font-size="1.6933" lengthAdjust="spacingAndGlyphs"
text-anchor="middle" opacity="0">Converter_ACDC:Converter_ACDC_TRACO_TMLM-05_THT</text>
<g class="stroked-text"><desc>Converter_ACDC:Converter_ACDC_TRACO_TMLM-05_THT</desc>
<path d="M6.2482 18.2308
L6.1878 18.2913
" />
<path d="M6.1878 18.2913
L6.0063 18.3517
" />
<path d="M6.0063 18.3517
L5.8854 18.3517
" />
<path d="M5.8854 18.3517
L5.7040 18.2913
" />
<path d="M5.7040 18.2913
L5.5830 18.1703
" />
<path d="M5.5830 18.1703
L5.5225 18.0493
" />
<path d="M5.5225 18.0493
L5.4621 17.8074
" />
<path d="M5.4621 17.8074
L5.4621 17.6260
" />
<path d="M5.4621 17.6260
L5.5225 17.3841
" />
<path d="M5.5225 17.3841
L5.5830 17.2632
" />
<path d="M5.5830 17.2632
L5.7040 17.1422
" />
<path d="M5.7040 17.1422
L5.8854 17.0817
" />
<path d="M5.8854 17.0817
L6.0063 17.0817
" />
<path d="M6.0063 17.0817
L6.1878 17.1422
" />
<path d="M6.1878 17.1422
L6.2482 17.2027
" />
<path d="M6.9740 18.3517
L6.8530 18.2913
" />
<path d="M6.8530 18.2913
L6.7925 18.2308
" />
<path d="M6.7925 18.2308
L6.7321 18.1098
" />
<path d="M6.7321 18.1098
L6.7321 17.7470
" />
<path d="M6.7321 17.7470
L6.7925 17.6260
" />
<path d="M6.7925 17.6260
L6.8530 17.5655
" />
<path d="M6.8530 17.5655
L6.9740 17.5051
" />
<path d="M6.9740 17.5051
L7.1554 17.5051
" />
<path d="M7.1554 17.5051
L7.2763 17.5655
" />
<path d="M7.2763 17.5655
L7.3368 17.6260
" />
<path d="M7.3368 17.6260
L7.3973 17.7470
" />
<path d="M7.3973 17.7470
L7.3973 18.1098
" />
<path d="M7.3973 18.1098
L7.3368 18.2308
" />
<path d="M7.3368 18.2308
L7.2763 18.2913
" />
<path d="M7.2763 18.2913
L7.1554 18.3517
" />
<path d="M7.1554 18.3517
L6.9740 18.3517
" />
<path d="M7.9415 17.5051
L7.9415 18.3517
" />
<path d="M7.9415 17.6260
L8.0020 17.5655
" />
<path d="M8.0020 17.5655
L8.1230 17.5051
" />
<path d="M8.1230 17.5051
L8.3044 17.5051
" />
<path d="M8.3044 17.5051
L8.4253 17.5655
" />
<path d="M8.4253 17.5655
L8.4858 17.6865
" />
<path d="M8.4858 17.6865
L8.4858 18.3517
" />
<path d="M8.9696 17.5051
L9.2720 18.3517
" />
<path d="M9.2720 18.3517
L9.5743 17.5051
" />
<path d="M10.5419 18.2913
L10.4210 18.3517
" />
<path d="M10.4210 18.3517
L10.1791 18.3517
" />
<path d="M10.1791 18.3517
L10.0581 18.2913
" />
<path d="M10.0581 18.2913
L9.9977 18.1703
" />
<path d="M9.9977 18.1703
L9.9977 17.6865
" />
<path d="M9.9977 17.6865
L10.0581 17.5655
" />
<path d="M10.0581 17.5655
L10.1791 17.5051
" />
<path d="M10.1791 17.5051
L10.4210 17.5051
" />
<path d="M10.4210 17.5051
L10.5419 17.5655
" />
<path d="M10.5419 17.5655
L10.6024 17.6865
" />
<path d="M10.6024 17.6865
L10.6024 17.8074
" />
<path d="M10.6024 17.8074
L9.9977 17.9284
" />
<path d="M11.1467 18.3517
L11.1467 17.5051
" />
<path d="M11.1467 17.7470
L11.2072 17.6260
" />
<path d="M11.2072 17.6260
L11.2677 17.5655
" />
<path d="M11.2677 17.5655
L11.3886 17.5051
" />
<path d="M11.3886 17.5051
L11.5096 17.5051
" />
<path d="M11.7515 17.5051
L12.2353 17.5051
" />
<path d="M11.9329 17.0817
L11.9329 18.1703
" />
<path d="M11.9329 18.1703
L11.9934 18.2913
" />
<path d="M11.9934 18.2913
L12.1144 18.3517
" />
<path d="M12.1144 18.3517
L12.2353 18.3517
" />
<path d="M13.1424 18.2913
L13.0215 18.3517
" />
<path d="M13.0215 18.3517
L12.7796 18.3517
" />
<path d="M12.7796 18.3517
L12.6586 18.2913
" />
<path d="M12.6586 18.2913
L12.5982 18.1703
" />
<path d="M12.5982 18.1703
L12.5982 17.6865
" />
<path d="M12.5982 17.6865
L12.6586 17.5655
" />
<path d="M12.6586 17.5655
L12.7796 17.5051
" />
<path d="M12.7796 17.5051
L13.0215 17.5051
" />
<path d="M13.0215 17.5051
L13.1424 17.5655
" />
<path d="M13.1424 17.5655
L13.2029 17.6865
" />
<path d="M13.2029 17.6865
L13.2029 17.8074
" />
<path d="M13.2029 17.8074
L12.5982 17.9284
" />
<path d="M13.7472 18.3517
L13.7472 17.5051
" />
<path d="M13.7472 17.7470
L13.8077 17.6260
" />
<path d="M13.8077 17.6260
L13.8682 17.5655
" />
<path d="M13.8682 17.5655
L13.9891 17.5051
" />
<path d="M13.9891 17.5051
L14.1101 17.5051
" />
<path d="M14.2311 18.4727
L15.1987 18.4727
" />
<path d="M15.4406 17.9889
L16.0453 17.9889
" />
<path d="M15.3196 18.3517
L15.7429 17.0817
" />
<path d="M15.7429 17.0817
L16.1663 18.3517
" />
<path d="M17.3153 18.2308
L17.2549 18.2913
" />
<path d="M17.2549 18.2913
L17.0734 18.3517
" />
<path d="M17.0734 18.3517
L16.9525 18.3517
" />
<path d="M16.9525 18.3517
L16.7711 18.2913
" />
<path d="M16.7711 18.2913
L16.6501 18.1703
" />
<path d="M16.6501 18.1703
L16.5896 18.0493
" />
<path d="M16.5896 18.0493
L16.5292 17.8074
" />
<path d="M16.5292 17.8074
L16.5292 17.6260
" />
<path d="M16.5292 17.6260
L16.5896 17.3841
" />
<path d="M16.5896 17.3841
L16.6501 17.2632
" />
<path d="M16.6501 17.2632
L16.7711 17.1422
" />
<path d="M16.7711 17.1422
L16.9525 17.0817
" />
<path d="M16.9525 17.0817
L17.0734 17.0817
" />
<path d="M17.0734 17.0817
L17.2549 17.1422
" />
<path d="M17.2549 17.1422
L17.3153 17.2027
" />
<path d="M17.8596 18.3517
L17.8596 17.0817
" />
<path d="M17.8596 17.0817
L18.1620 17.0817
" />
<path d="M18.1620 17.0817
L18.3434 17.1422
" />
<path d="M18.3434 17.1422
L18.4644 17.2632
" />
<path d="M18.4644 17.2632
L18.5249 17.3841
" />
<path d="M18.5249 17.3841
L18.5853 17.6260
" />
<path d="M18.5853 17.6260
L18.5853 17.8074
" />
<path d="M18.5853 17.8074
L18.5249 18.0493
" />
<path d="M18.5249 18.0493
L18.4644 18.1703
" />
<path d="M18.4644 18.1703
L18.3434 18.2913
" />
<path d="M18.3434 18.2913
L18.1620 18.3517
" />
<path d="M18.1620 18.3517
L17.8596 18.3517
" />
<path d="M19.8553 18.2308
L19.7949 18.2913
" />
<path d="M19.7949 18.2913
L19.6134 18.3517
" />
<path d="M19.6134 18.3517
L19.4925 18.3517
" />
<path d="M19.4925 18.3517
L19.3111 18.2913
" />
<path d="M19.3111 18.2913
L19.1901 18.1703
" />
<path d="M19.1901 18.1703
L19.1296 18.0493
" />
<path d="M19.1296 18.0493
L19.0692 17.8074
" />
<path d="M19.0692 17.8074
L19.0692 17.6260
" />
<path d="M19.0692 17.6260
L19.1296 17.3841
" />
<path d="M19.1296 17.3841
L19.1901 17.2632
" />
<path d="M19.1901 17.2632
L19.3111 17.1422
" />
<path d="M19.3111 17.1422
L19.4925 17.0817
" />
<path d="M19.4925 17.0817
L19.6134 17.0817
" />
<path d="M19.6134 17.0817
L19.7949 17.1422
" />
<path d="M19.7949 17.1422
L19.8553 17.2027
" />
<path d="M20.3996 18.2308
L20.4601 18.2913
" />
<path d="M20.4601 18.2913
L20.3996 18.3517
" />
<path d="M20.3996 18.3517
L20.3392 18.2913
" />
<path d="M20.3392 18.2913
L20.3996 18.2308
" />
<path d="M20.3996 18.2308
L20.3996 18.3517
" />
<path d="M20.3996 17.5655
L20.4601 17.6260
" />
<path d="M20.4601 17.6260
L20.3996 17.6865
" />
<path d="M20.3996 17.6865
L20.3392 17.6260
" />
<path d="M20.3392 17.6260
L20.3996 17.5655
" />
<path d="M20.3996 17.5655
L20.3996 17.6865
" />
<path d="M21.7301 18.2308
L21.6697 18.2913
" />
<path d="M21.6697 18.2913
L21.4882 18.3517
" />
<path d="M21.4882 18.3517
L21.3673 18.3517
" />
<path d="M21.3673 18.3517
L21.1859 18.2913
" />
<path d="M21.1859 18.2913
L21.0649 18.1703
" />
<path d="M21.0649 18.1703
L21.0044 18.0493
" />
<path d="M21.0044 18.0493
L20.9440 17.8074
" />
<path d="M20.9440 17.8074
L20.9440 17.6260
" />
<path d="M20.9440 17.6260
L21.0044 17.3841
" />
<path d="M21.0044 17.3841
L21.0649 17.2632
" />
<path d="M21.0649 17.2632
L21.1859 17.1422
" />
<path d="M21.1859 17.1422
L21.3673 17.0817
" />
<path d="M21.3673 17.0817
L21.4882 17.0817
" />
<path d="M21.4882 17.0817
L21.6697 17.1422
" />
<path d="M21.6697 17.1422
L21.7301 17.2027
" />
<path d="M22.4559 18.3517
L22.3349 18.2913
" />
<path d="M22.3349 18.2913
L22.2744 18.2308
" />
<path d="M22.2744 18.2308
L22.2140 18.1098
" />
<path d="M22.2140 18.1098
L22.2140 17.7470
" />
<path d="M22.2140 17.7470
L22.2744 17.6260
" />
<path d="M22.2744 17.6260
L22.3349 17.5655
" />
<path d="M22.3349 17.5655
L22.4559 17.5051
" />
<path d="M22.4559 17.5051
L22.6373 17.5051
" />
<path d="M22.6373 17.5051
L22.7582 17.5655
" />
<path d="M22.7582 17.5655
L22.8187 17.6260
" />
<path d="M22.8187 17.6260
L22.8792 17.7470
" />
<path d="M22.8792 17.7470
L22.8792 18.1098
" />
<path d="M22.8792 18.1098
L22.8187 18.2308
" />
<path d="M22.8187 18.2308
L22.7582 18.2913
" />
<path d="M22.7582 18.2913
L22.6373 18.3517
" />
<path d="M22.6373 18.3517
L22.4559 18.3517
" />
<path d="M23.4234 17.5051
L23.4234 18.3517
" />
<path d="M23.4234 17.6260
L23.4839 17.5655
" />
<path d="M23.4839 17.5655
L23.6049 17.5051
" />
<path d="M23.6049 17.5051
L23.7863 17.5051
" />
<path d="M23.7863 17.5051
L23.9072 17.5655
" />
<path d="M23.9072 17.5655
L23.9677 17.6865
" />
<path d="M23.9677 17.6865
L23.9677 18.3517
" />
<path d="M24.4515 17.5051
L24.7539 18.3517
" />
<path d="M24.7539 18.3517
L25.0562 17.5051
" />
<path d="M26.0238 18.2913
L25.9029 18.3517
" />
<path d="M25.9029 18.3517
L25.6610 18.3517
" />
<path d="M25.6610 18.3517
L25.5400 18.2913
" />
<path d="M25.5400 18.2913
L25.4796 18.1703
" />
<path d="M25.4796 18.1703
L25.4796 17.6865
" />
<path d="M25.4796 17.6865
L25.5400 17.5655
" />
<path d="M25.5400 17.5655
L25.6610 17.5051
" />
<path d="M25.6610 17.5051
L25.9029 17.5051
" />
<path d="M25.9029 17.5051
L26.0238 17.5655
" />
<path d="M26.0238 17.5655
L26.0843 17.6865
" />
<path d="M26.0843 17.6865
L26.0843 17.8074
" />
<path d="M26.0843 17.8074
L25.4796 17.9284
" />
<path d="M26.6286 18.3517
L26.6286 17.5051
" />
<path d="M26.6286 17.7470
L26.6891 17.6260
" />
<path d="M26.6891 17.6260
L26.7496 17.5655
" />
<path d="M26.7496 17.5655
L26.8705 17.5051
" />
<path d="M26.8705 17.5051
L26.9915 17.5051
" />
<path d="M27.2334 17.5051
L27.7172 17.5051
" />
<path d="M27.4148 17.0817
L27.4148 18.1703
" />
<path d="M27.4148 18.1703
L27.4753 18.2913
" />
<path d="M27.4753 18.2913
L27.5963 18.3517
" />
<path d="M27.5963 18.3517
L27.7172 18.3517
" />
<path d="M28.6243 18.2913
L28.5034 18.3517
" />
<path d="M28.5034 18.3517
L28.2615 18.3517
" />
<path d="M28.2615 18.3517
L28.1405 18.2913
" />
<path d="M28.1405 18.2913
L28.0801 18.1703
" />
<path d="M28.0801 18.1703
L28.0801 17.6865
" />
<path d="M28.0801 17.6865
L28.1405 17.5655
" />
<path d="M28.1405 17.5655
L28.2615 17.5051
" />
<path d="M28.2615 17.5051
L28.5034 17.5051
" />
<path d="M28.5034 17.5051
L28.6243 17.5655
" />
<path d="M28.6243 17.5655
L28.6848 17.6865
" />
<path d="M28.6848 17.6865
L28.6848 17.8074
" />
<path d="M28.6848 17.8074
L28.0801 17.9284
" />
<path d="M29.2291 18.3517
L29.2291 17.5051
" />
<path d="M29.2291 17.7470
L29.2896 17.6260
" />
<path d="M29.2896 17.6260
L29.3501 17.5655
" />
<path d="M29.3501 17.5655
L29.4710 17.5051
" />
<path d="M29.4710 17.5051
L29.5920 17.5051
" />
<path d="M29.7130 18.4727
L30.6806 18.4727
" />
<path d="M30.9225 17.9889
L31.5272 17.9889
" />
<path d="M30.8015 18.3517
L31.2248 17.0817
" />
<path d="M31.2248 17.0817
L31.6482 18.3517
" />
<path d="M32.7972 18.2308
L32.7368 18.2913
" />
<path d="M32.7368 18.2913
L32.5553 18.3517
" />
<path d="M32.5553 18.3517
L32.4344 18.3517
" />
<path d="M32.4344 18.3517
L32.2530 18.2913
" />
<path d="M32.2530 18.2913
L32.1320 18.1703
" />
<path d="M32.1320 18.1703
L32.0715 18.0493
" />
<path d="M32.0715 18.0493
L32.0111 17.8074
" />
<path d="M32.0111 17.8074
L32.0111 17.6260
" />
<path d="M32.0111 17.6260
L32.0715 17.3841
" />
<path d="M32.0715 17.3841
L32.1320 17.2632
" />
<path d="M32.1320 17.2632
L32.2530 17.1422
" />
<path d="M32.2530 17.1422
L32.4344 17.0817
" />
<path d="M32.4344 17.0817
L32.5553 17.0817
" />
<path d="M32.5553 17.0817
L32.7368 17.1422
" />
<path d="M32.7368 17.1422
L32.7972 17.2027
" />
<path d="M33.3415 18.3517
L33.3415 17.0817
" />
<path d="M33.3415 17.0817
L33.6439 17.0817
" />
<path d="M33.6439 17.0817
L33.8253 17.1422
" />
<path d="M33.8253 17.1422
L33.9463 17.2632
" />
<path d="M33.9463 17.2632
L34.0068 17.3841
" />
<path d="M34.0068 17.3841
L34.0672 17.6260
" />
<path d="M34.0672 17.6260
L34.0672 17.8074
" />
<path d="M34.0672 17.8074
L34.0068 18.0493
" />
<path d="M34.0068 18.0493
L33.9463 18.1703
" />
<path d="M33.9463 18.1703
L33.8253 18.2913
" />
<path d="M33.8253 18.2913
L33.6439 18.3517
" />
<path d="M33.6439 18.3517
L33.3415 18.3517
" />
<path d="M35.3372 18.2308
L35.2768 18.2913
" />
<path d="M35.2768 18.2913
L35.0953 18.3517
" />
<path d="M35.0953 18.3517
L34.9744 18.3517
" />
<path d="M34.9744 18.3517
L34.7930 18.2913
" />
<path d="M34.7930 18.2913
L34.6720 18.1703
" />
<path d="M34.6720 18.1703
L34.6115 18.0493
" />
<path d="M34.6115 18.0493
L34.5511 17.8074
" />
<path d="M34.5511 17.8074
L34.5511 17.6260
" />
<path d="M34.5511 17.6260
L34.6115 17.3841
" />
<path d="M34.6115 17.3841
L34.6720 17.2632
" />
<path d="M34.6720 17.2632
L34.7930 17.1422
" />
<path d="M34.7930 17.1422
L34.9744 17.0817
" />
<path d="M34.9744 17.0817
L35.0953 17.0817
" />
<path d="M35.0953 17.0817
L35.2768 17.1422
" />
<path d="M35.2768 17.1422
L35.3372 17.2027
" />
<path d="M35.5792 18.4727
L36.5468 18.4727
" />
<path d="M36.6677 17.0817
L37.3934 17.0817
" />
<path d="M37.0306 18.3517
L37.0306 17.0817
" />
<path d="M38.5424 18.3517
L38.1191 17.7470
" />
<path d="M37.8167 18.3517
L37.8167 17.0817
" />
<path d="M37.8167 17.0817
L38.3005 17.0817
" />
<path d="M38.3005 17.0817
L38.4215 17.1422
" />
<path d="M38.4215 17.1422
L38.4820 17.2027
" />
<path d="M38.4820 17.2027
L38.5424 17.3236
" />
<path d="M38.5424 17.3236
L38.5424 17.5051
" />
<path d="M38.5424 17.5051
L38.4820 17.6260
" />
<path d="M38.4820 17.6260
L38.4215 17.6865
" />
<path d="M38.4215 17.6865
L38.3005 17.7470
" />
<path d="M38.3005 17.7470
L37.8167 17.7470
" />
<path d="M39.0263 17.9889
L39.6310 17.9889
" />
<path d="M38.9053 18.3517
L39.3286 17.0817
" />
<path d="M39.3286 17.0817
L39.7520 18.3517
" />
<path d="M40.9010 18.2308
L40.8406 18.2913
" />
<path d="M40.8406 18.2913
L40.6591 18.3517
" />
<path d="M40.6591 18.3517
L40.5382 18.3517
" />
<path d="M40.5382 18.3517
L40.3568 18.2913
" />
<path d="M40.3568 18.2913
L40.2358 18.1703
" />
<path d="M40.2358 18.1703
L40.1753 18.0493
" />
<path d="M40.1753 18.0493
L40.1149 17.8074
" />
<path d="M40.1149 17.8074
L40.1149 17.6260
" />
<path d="M40.1149 17.6260
L40.1753 17.3841
" />
<path d="M40.1753 17.3841
L40.2358 17.2632
" />
<path d="M40.2358 17.2632
L40.3568 17.1422
" />
<path d="M40.3568 17.1422
L40.5382 17.0817
" />
<path d="M40.5382 17.0817
L40.6591 17.0817
" />
<path d="M40.6591 17.0817
L40.8406 17.1422
" />
<path d="M40.8406 17.1422
L40.9010 17.2027
" />
<path d="M41.6872 17.0817
L41.9291 17.0817
" />
<path d="M41.9291 17.0817
L42.0501 17.1422
" />
<path d="M42.0501 17.1422
L42.1710 17.2632
" />
<path d="M42.1710 17.2632
L42.2315 17.5051
" />
<path d="M42.2315 17.5051
L42.2315 17.9284
" />
<path d="M42.2315 17.9284
L42.1710 18.1703
" />
<path d="M42.1710 18.1703
L42.0501 18.2913
" />
<path d="M42.0501 18.2913
L41.9291 18.3517
" />
<path d="M41.9291 18.3517
L41.6872 18.3517
" />
<path d="M41.6872 18.3517
L41.5663 18.2913
" />
<path d="M41.5663 18.2913
L41.4453 18.1703
" />
<path d="M41.4453 18.1703
L41.3849 17.9284
" />
<path d="M41.3849 17.9284
L41.3849 17.5051
" />
<path d="M41.3849 17.5051
L41.4453 17.2632
" />
<path d="M41.4453 17.2632
L41.5663 17.1422
" />
<path d="M41.5663 17.1422
L41.6872 17.0817
" />
<path d="M42.4735 18.4727
L43.4411 18.4727
" />
<path d="M43.5620 17.0817
L44.2877 17.0817
" />
<path d="M43.9249 18.3517
L43.9249 17.0817
" />
<path d="M44.7110 18.3517
L44.7110 17.0817
" />
<path d="M44.7110 17.0817
L45.1344 17.9889
" />
<path d="M45.1344 17.9889
L45.5577 17.0817
" />
<path d="M45.5577 17.0817
L45.5577 18.3517
" />
<path d="M46.7672 18.3517
L46.1624 18.3517
" />
<path d="M46.1624 18.3517
L46.1624 17.0817
" />
<path d="M47.1905 18.3517
L47.1905 17.0817
" />
<path d="M47.1905 17.0817
L47.6139 17.9889
" />
<path d="M47.6139 17.9889
L48.0372 17.0817
" />
<path d="M48.0372 17.0817
L48.0372 18.3517
" />
<path d="M48.6419 17.8679
L49.6096 17.8679
" />
<path d="M50.4562 17.0817
L50.5772 17.0817
" />
<path d="M50.5772 17.0817
L50.6981 17.1422
" />
<path d="M50.6981 17.1422
L50.7586 17.2027
" />
<path d="M50.7586 17.2027
L50.8191 17.3236
" />
<path d="M50.8191 17.3236
L50.8796 17.5655
" />
<path d="M50.8796 17.5655
L50.8796 17.8679
" />
<path d="M50.8796 17.8679
L50.8191 18.1098
" />
<path d="M50.8191 18.1098
L50.7586 18.2308
" />
<path d="M50.7586 18.2308
L50.6981 18.2913
" />
<path d="M50.6981 18.2913
L50.5772 18.3517
" />
<path d="M50.5772 18.3517
L50.4562 18.3517
" />
<path d="M50.4562 18.3517
L50.3353 18.2913
" />
<path d="M50.3353 18.2913
L50.2748 18.2308
" />
<path d="M50.2748 18.2308
L50.2143 18.1098
" />
<path d="M50.2143 18.1098
L50.1539 17.8679
" />
<path d="M50.1539 17.8679
L50.1539 17.5655
" />
<path d="M50.1539 17.5655
L50.2143 17.3236
" />
<path d="M50.2143 17.3236
L50.2748 17.2027
" />
<path d="M50.2748 17.2027
L50.3353 17.1422
" />
<path d="M50.3353 17.1422
L50.4562 17.0817
" />
<path d="M52.0286 17.0817
L51.4238 17.0817
" />
<path d="M51.4238 17.0817
L51.3634 17.6865
" />
<path d="M51.3634 17.6865
L51.4238 17.6260
" />
<path d="M51.4238 17.6260
L51.5448 17.5655
" />
<path d="M51.5448 17.5655
L51.8472 17.5655
" />
<path d="M51.8472 17.5655
L51.9681 17.6260
" />
<path d="M51.9681 17.6260
L52.0286 17.6865
" />
<path d="M52.0286 17.6865
L52.0891 17.8074
" />
<path d="M52.0891 17.8074
L52.0891 18.1098
" />
<path d="M52.0891 18.1098
L52.0286 18.2308
" />
<path d="M52.0286 18.2308
L51.9681 18.2913
" />
<path d="M51.9681 18.2913
L51.8472 18.3517
" />
<path d="M51.8472 18.3517
L51.5448 18.3517
" />
<path d="M51.5448 18.3517
L51.4238 18.2913
" />
<path d="M51.4238 18.2913
L51.3634 18.2308
" />
<path d="M52.3310 18.4727
L53.2986 18.4727
" />
<path d="M53.4195 17.0817
L54.1452 17.0817
" />
<path d="M53.7824 18.3517
L53.7824 17.0817
" />
<path d="M54.5685 18.3517
L54.5685 17.0817
" />
<path d="M54.5685 17.6865
L55.2942 17.6865
" />
<path d="M55.2942 18.3517
L55.2942 17.0817
" />
<path d="M55.7176 17.0817
L56.4433 17.0817
" />
<path d="M56.0805 18.3517
L56.0805 17.0817
" />
</g><text x="30.8922" y="9.5092"
textLength="47.0117" font-size="1.6933" lengthAdjust="spacingAndGlyphs"
text-anchor="middle" opacity="0">https://www.tracopower.com/products/tmlm.pdf</text>
<g class="stroked-text"><desc>https://www.tracopower.com/products/tmlm.pdf</desc>
<path d="M7.7602 9.4617
L7.7602 8.1917
" />
<path d="M8.3045 9.4617
L8.3045 8.7965
" />
<path d="M8.3045 8.7965
L8.2440 8.6755
" />
<path d="M8.2440 8.6755
L8.1231 8.6151
" />
<path d="M8.1231 8.6151
L7.9417 8.6151
" />
<path d="M7.9417 8.6151
L7.8207 8.6755
" />
<path d="M7.8207 8.6755
L7.7602 8.7360
" />
<path d="M8.7278 8.6151
L9.2116 8.6151
" />
<path d="M8.9092 8.1917
L8.9092 9.2803
" />
<path d="M8.9092 9.2803
L8.9697 9.4013
" />
<path d="M8.9697 9.4013
L9.0907 9.4617
" />
<path d="M9.0907 9.4617
L9.2116 9.4617
" />
<path d="M9.4535 8.6151
L9.9373 8.6151
" />
<path d="M9.6349 8.1917
L9.6349 9.2803
" />
<path d="M9.6349 9.2803
L9.6954 9.4013
" />
<path d="M9.6954 9.4013
L9.8164 9.4617
" />
<path d="M9.8164 9.4617
L9.9373 9.4617
" />
<path d="M10.3606 8.6151
L10.3606 9.8851
" />
<path d="M10.3606 8.6755
L10.4816 8.6151
" />
<path d="M10.4816 8.6151
L10.7235 8.6151
" />
<path d="M10.7235 8.6151
L10.8444 8.6755
" />
<path d="M10.8444 8.6755
L10.9049 8.7360
" />
<path d="M10.9049 8.7360
L10.9654 8.8570
" />
<path d="M10.9654 8.8570
L10.9654 9.2198
" />
<path d="M10.9654 9.2198
L10.9049 9.3408
" />
<path d="M10.9049 9.3408
L10.8444 9.4013
" />
<path d="M10.8444 9.4013
L10.7235 9.4617
" />
<path d="M10.7235 9.4617
L10.4816 9.4617
" />
<path d="M10.4816 9.4617
L10.3606 9.4013
" />
<path d="M11.4492 9.4013
L11.5701 9.4617
" />
<path d="M11.5701 9.4617
L11.8120 9.4617
" />
<path d="M11.8120 9.4617
L11.9330 9.4013
" />
<path d="M11.9330 9.4013
L11.9934 9.2803
" />
<path d="M11.9934 9.2803
L11.9934 9.2198
" />
<path d="M11.9934 9.2198
L11.9330 9.0989
" />
<path d="M11.9330 9.0989
L11.8120 9.0384
" />
<path d="M11.8120 9.0384
L11.6306 9.0384
" />
<path d="M11.6306 9.0384
L11.5096 8.9779
" />
<path d="M11.5096 8.9779
L11.4492 8.8570
" />
<path d="M11.4492 8.8570
L11.4492 8.7965
" />
<path d="M11.4492 8.7965
L11.5096 8.6755
" />
<path d="M11.5096 8.6755
L11.6306 8.6151
" />
<path d="M11.6306 8.6151
L11.8120 8.6151
" />
<path d="M11.8120 8.6151
L11.9330 8.6755
" />
<path d="M12.5377 9.3408
L12.5982 9.4013
" />
<path d="M12.5982 9.4013
L12.5377 9.4617
" />
<path d="M12.5377 9.4617
L12.4773 9.4013
" />
<path d="M12.4773 9.4013
L12.5377 9.3408
" />
<path d="M12.5377 9.3408
L12.5377 9.4617
" />
<path d="M12.5377 8.6755
L12.5982 8.7360
" />
<path d="M12.5982 8.7360
L12.5377 8.7965
" />
<path d="M12.5377 8.7965
L12.4773 8.7360
" />
<path d="M12.4773 8.7360
L12.5377 8.6755
" />
<path d="M12.5377 8.6755
L12.5377 8.7965
" />
<path d="M14.0497 8.1313
L12.9611 9.7641
" />
<path d="M15.3802 8.1313
L14.2916 9.7641
" />
<path d="M15.6826 8.6151
L15.9245 9.4617
" />
<path d="M15.9245 9.4617
L16.1664 8.8570
" />
<path d="M16.1664 8.8570
L16.4083 9.4617
" />
<path d="M16.4083 9.4617
L16.6502 8.6151
" />
<path d="M17.0131 8.6151
L17.2550 9.4617
" />
<path d="M17.2550 9.4617
L17.4969 8.8570
" />
<path d="M17.4969 8.8570
L17.7388 9.4617
" />
<path d="M17.7388 9.4617
L17.9807 8.6151
" />
<path d="M18.3436 8.6151
L18.5855 9.4617
" />
<path d="M18.5855 9.4617
L18.8274 8.8570
" />
<path d="M18.8274 8.8570
L19.0693 9.4617
" />
<path d="M19.0693 9.4617
L19.3112 8.6151
" />
<path d="M19.7950 9.3408
L19.8555 9.4013
" />
<path d="M19.8555 9.4013
L19.7950 9.4617
" />
<path d="M19.7950 9.4617
L19.7346 9.4013
" />
<path d="M19.7346 9.4013
L19.7950 9.3408
" />
<path d="M19.7950 9.3408
L19.7950 9.4617
" />
<path d="M20.2184 8.6151
L20.7022 8.6151
" />
<path d="M20.3998 8.1917
L20.3998 9.2803
" />
<path d="M20.3998 9.2803
L20.4603 9.4013
" />
<path d="M20.4603 9.4013
L20.5813 9.4617
" />
<path d="M20.5813 9.4617
L20.7022 9.4617
" />
<path d="M21.1255 9.4617
L21.1255 8.6151
" />
<path d="M21.1255 8.8570
L21.1860 8.7360
" />
<path d="M21.1860 8.7360
L21.2465 8.6755
" />
<path d="M21.2465 8.6755
L21.3674 8.6151
" />
<path d="M21.3674 8.6151
L21.4884 8.6151
" />
<path d="M22.4560 9.4617
L22.4560 8.7965
" />
<path d="M22.4560 8.7965
L22.3955 8.6755
" />
<path d="M22.3955 8.6755
L22.2746 8.6151
" />
<path d="M22.2746 8.6151
L22.0327 8.6151
" />
<path d="M22.0327 8.6151
L21.9117 8.6755
" />
<path d="M22.4560 9.4013
L22.3351 9.4617
" />
<path d="M22.3351 9.4617
L22.0327 9.4617
" />
<path d="M22.0327 9.4617
L21.9117 9.4013
" />
<path d="M21.9117 9.4013
L21.8513 9.2803
" />
<path d="M21.8513 9.2803
L21.8513 9.1593
" />
<path d="M21.8513 9.1593
L21.9117 9.0384
" />
<path d="M21.9117 9.0384
L22.0327 8.9779
" />
<path d="M22.0327 8.9779
L22.3351 8.9779
" />
<path d="M22.3351 8.9779
L22.4560 8.9174
" />
<path d="M23.6050 9.4013
L23.4841 9.4617
" />
<path d="M23.4841 9.4617
L23.2422 9.4617
" />
<path d="M23.2422 9.4617
L23.1212 9.4013
" />
<path d="M23.1212 9.4013
L23.0607 9.3408
" />
<path d="M23.0607 9.3408
L23.0003 9.2198
" />
<path d="M23.0003 9.2198
L23.0003 8.8570
" />
<path d="M23.0003 8.8570
L23.0607 8.7360
" />
<path d="M23.0607 8.7360
L23.1212 8.6755
" />
<path d="M23.1212 8.6755
L23.2422 8.6151
" />
<path d="M23.2422 8.6151
L23.4841 8.6151
" />
<path d="M23.4841 8.6151
L23.6050 8.6755
" />
<path d="M24.3308 9.4617
L24.2098 9.4013
" />
<path d="M24.2098 9.4013
L24.1493 9.3408
" />
<path d="M24.1493 9.3408
L24.0889 9.2198
" />
<path d="M24.0889 9.2198
L24.0889 8.8570
" />
<path d="M24.0889 8.8570
L24.1493 8.7360
" />
<path d="M24.1493 8.7360
L24.2098 8.6755
" />
<path d="M24.2098 8.6755
L24.3308 8.6151
" />
<path d="M24.3308 8.6151
L24.5122 8.6151
" />
<path d="M24.5122 8.6151
L24.6331 8.6755
" />
<path d="M24.6331 8.6755
L24.6936 8.7360
" />
<path d="M24.6936 8.7360
L24.7541 8.8570
" />
<path d="M24.7541 8.8570
L24.7541 9.2198
" />
<path d="M24.7541 9.2198
L24.6936 9.3408
" />
<path d="M24.6936 9.3408
L24.6331 9.4013
" />
<path d="M24.6331 9.4013
L24.5122 9.4617
" />
<path d="M24.5122 9.4617
L24.3308 9.4617
" />
<path d="M25.2983 8.6151
L25.2983 9.8851
" />
<path d="M25.2983 8.6755
L25.4193 8.6151
" />
<path d="M25.4193 8.6151
L25.6612 8.6151
" />
<path d="M25.6612 8.6151
L25.7821 8.6755
" />
<path d="M25.7821 8.6755
L25.8426 8.7360
" />
<path d="M25.8426 8.7360
L25.9031 8.8570
" />
<path d="M25.9031 8.8570
L25.9031 9.2198
" />
<path d="M25.9031 9.2198
L25.8426 9.3408
" />
<path d="M25.8426 9.3408
L25.7821 9.4013
" />
<path d="M25.7821 9.4013
L25.6612 9.4617
" />
<path d="M25.6612 9.4617
L25.4193 9.4617
" />
<path d="M25.4193 9.4617
L25.2983 9.4013
" />
<path d="M26.6288 9.4617
L26.5078 9.4013
" />
<path d="M26.5078 9.4013
L26.4473 9.3408
" />
<path d="M26.4473 9.3408
L26.3869 9.2198
" />
<path d="M26.3869 9.2198
L26.3869 8.8570
" />
<path d="M26.3869 8.8570
L26.4473 8.7360
" />
<path d="M26.4473 8.7360
L26.5078 8.6755
" />
<path d="M26.5078 8.6755
L26.6288 8.6151
" />
<path d="M26.6288 8.6151
L26.8102 8.6151
" />
<path d="M26.8102 8.6151
L26.9311 8.6755
" />
<path d="M26.9311 8.6755
L26.9916 8.7360
" />
<path d="M26.9916 8.7360
L27.0521 8.8570
" />
<path d="M27.0521 8.8570
L27.0521 9.2198
" />
<path d="M27.0521 9.2198
L26.9916 9.3408
" />
<path d="M26.9916 9.3408
L26.9311 9.4013
" />
<path d="M26.9311 9.4013
L26.8102 9.4617
" />
<path d="M26.8102 9.4617
L26.6288 9.4617
" />
<path d="M27.4754 8.6151
L27.7173 9.4617
" />
<path d="M27.7173 9.4617
L27.9592 8.8570
" />
<path d="M27.9592 8.8570
L28.2011 9.4617
" />
<path d="M28.2011 9.4617
L28.4430 8.6151
" />
<path d="M29.4106 9.4013
L29.2897 9.4617
" />
<path d="M29.2897 9.4617
L29.0478 9.4617
" />
<path d="M29.0478 9.4617
L28.9268 9.4013
" />
<path d="M28.9268 9.4013
L28.8664 9.2803
" />
<path d="M28.8664 9.2803
L28.8664 8.7965
" />
<path d="M28.8664 8.7965
L28.9268 8.6755
" />
<path d="M28.9268 8.6755
L29.0478 8.6151
" />
<path d="M29.0478 8.6151
L29.2897 8.6151
" />
<path d="M29.2897 8.6151
L29.4106 8.6755
" />
<path d="M29.4106 8.6755
L29.4711 8.7965
" />
<path d="M29.4711 8.7965
L29.4711 8.9174
" />
<path d="M29.4711 8.9174
L28.8664 9.0384
" />
<path d="M30.0154 9.4617
L30.0154 8.6151
" />
<path d="M30.0154 8.8570
L30.0759 8.7360
" />
<path d="M30.0759 8.7360
L30.1364 8.6755
" />
<path d="M30.1364 8.6755
L30.2573 8.6151
" />
<path d="M30.2573 8.6151
L30.3783 8.6151
" />
<path d="M30.8016 9.3408
L30.8621 9.4013
" />
<path d="M30.8621 9.4013
L30.8016 9.4617
" />
<path d="M30.8016 9.4617
L30.7412 9.4013
" />
<path d="M30.7412 9.4013
L30.8016 9.3408
" />
<path d="M30.8016 9.3408
L30.8016 9.4617
" />
<path d="M31.9507 9.4013
L31.8298 9.4617
" />
<path d="M31.8298 9.4617
L31.5879 9.4617
" />
<path d="M31.5879 9.4617
L31.4669 9.4013
" />
<path d="M31.4669 9.4013
L31.4064 9.3408
" />
<path d="M31.4064 9.3408
L31.3460 9.2198
" />
<path d="M31.3460 9.2198
L31.3460 8.8570
" />
<path d="M31.3460 8.8570
L31.4064 8.7360
" />
<path d="M31.4064 8.7360
L31.4669 8.6755
" />
<path d="M31.4669 8.6755
L31.5879 8.6151
" />
<path d="M31.5879 8.6151
L31.8298 8.6151
" />
<path d="M31.8298 8.6151
L31.9507 8.6755
" />
<path d="M32.6765 9.4617
L32.5555 9.4013
" />
<path d="M32.5555 9.4013
L32.4950 9.3408
" />
<path d="M32.4950 9.3408
L32.4346 9.2198
" />
<path d="M32.4346 9.2198
L32.4346 8.8570
" />
<path d="M32.4346 8.8570
L32.4950 8.7360
" />
<path d="M32.4950 8.7360
L32.5555 8.6755
" />
<path d="M32.5555 8.6755
L32.6765 8.6151
" />
<path d="M32.6765 8.6151
L32.8579 8.6151
" />
<path d="M32.8579 8.6151
L32.9788 8.6755
" />
<path d="M32.9788 8.6755
L33.0393 8.7360
" />
<path d="M33.0393 8.7360
L33.0998 8.8570
" />
<path d="M33.0998 8.8570
L33.0998 9.2198
" />
<path d="M33.0998 9.2198
L33.0393 9.3408
" />
<path d="M33.0393 9.3408
L32.9788 9.4013
" />
<path d="M32.9788 9.4013
L32.8579 9.4617
" />
<path d="M32.8579 9.4617
L32.6765 9.4617
" />
<path d="M33.6440 9.4617
L33.6440 8.6151
" />
<path d="M33.6440 8.7360
L33.7045 8.6755
" />
<path d="M33.7045 8.6755
L33.8255 8.6151
" />
<path d="M33.8255 8.6151
L34.0069 8.6151
" />
<path d="M34.0069 8.6151
L34.1278 8.6755
" />
<path d="M34.1278 8.6755
L34.1883 8.7965
" />
<path d="M34.1883 8.7965
L34.1883 9.4617
" />
<path d="M34.1883 8.7965
L34.2488 8.6755
" />
<path d="M34.2488 8.6755
L34.3697 8.6151
" />
<path d="M34.3697 8.6151
L34.5512 8.6151
" />
<path d="M34.5512 8.6151
L34.6721 8.6755
" />
<path d="M34.6721 8.6755
L34.7326 8.7965
" />
<path d="M34.7326 8.7965
L34.7326 9.4617
" />
<path d="M36.2445 8.1313
L35.1559 9.7641
" />
<path d="M36.6678 8.6151
L36.6678 9.8851
" />
<path d="M36.6678 8.6755
L36.7888 8.6151
" />
<path d="M36.7888 8.6151
L37.0307 8.6151
" />
<path d="M37.0307 8.6151
L37.1516 8.6755
" />
<path d="M37.1516 8.6755
L37.2121 8.7360
" />
<path d="M37.2121 8.7360
L37.2726 8.8570
" />
<path d="M37.2726 8.8570
L37.2726 9.2198
" />
<path d="M37.2726 9.2198
L37.2121 9.3408
" />
<path d="M37.2121 9.3408
L37.1516 9.4013
" />
<path d="M37.1516 9.4013
L37.0307 9.4617
" />
<path d="M37.0307 9.4617
L36.7888 9.4617
" />
<path d="M36.7888 9.4617
L36.6678 9.4013
" />
<path d="M37.8168 9.4617
L37.8168 8.6151
" />
<path d="M37.8168 8.8570
L37.8773 8.7360
" />
<path d="M37.8773 8.7360
L37.9378 8.6755
" />
<path d="M37.9378 8.6755
L38.0587 8.6151
" />
<path d="M38.0587 8.6151
L38.1797 8.6151
" />
<path d="M38.7845 9.4617
L38.6635 9.4013
" />
<path d="M38.6635 9.4013
L38.6030 9.3408
" />
<path d="M38.6030 9.3408
L38.5426 9.2198
" />
<path d="M38.5426 9.2198
L38.5426 8.8570
" />
<path d="M38.5426 8.8570
L38.6030 8.7360
" />
<path d="M38.6030 8.7360
L38.6635 8.6755
" />
<path d="M38.6635 8.6755
L38.7845 8.6151
" />
<path d="M38.7845 8.6151
L38.9659 8.6151
" />
<path d="M38.9659 8.6151
L39.0868 8.6755
" />
<path d="M39.0868 8.6755
L39.1473 8.7360
" />
<path d="M39.1473 8.7360
L39.2078 8.8570
" />
<path d="M39.2078 8.8570
L39.2078 9.2198
" />
<path d="M39.2078 9.2198
L39.1473 9.3408
" />
<path d="M39.1473 9.3408
L39.0868 9.4013
" />
<path d="M39.0868 9.4013
L38.9659 9.4617
" />
<path d="M38.9659 9.4617
L38.7845 9.4617
" />
<path d="M40.2963 9.4617
L40.2963 8.1917
" />
<path d="M40.2963 9.4013
L40.1754 9.4617
" />
<path d="M40.1754 9.4617
L39.9335 9.4617
" />
<path d="M39.9335 9.4617
L39.8125 9.4013
" />
<path d="M39.8125 9.4013
L39.7520 9.3408
" />
<path d="M39.7520 9.3408
L39.6916 9.2198
" />
<path d="M39.6916 9.2198
L39.6916 8.8570
" />
<path d="M39.6916 8.8570
L39.7520 8.7360
" />
<path d="M39.7520 8.7360
L39.8125 8.6755
" />
<path d="M39.8125 8.6755
L39.9335 8.6151
" />
<path d="M39.9335 8.6151
L40.1754 8.6151
" />
<path d="M40.1754 8.6151
L40.2963 8.6755
" />
<path d="M41.4453 8.6151
L41.4453 9.4617
" />
<path d="M40.9010 8.6151
L40.9010 9.2803
" />
<path d="M40.9010 9.2803
L40.9615 9.4013
" />
<path d="M40.9615 9.4013
L41.0825 9.4617
" />
<path d="M41.0825 9.4617
L41.2639 9.4617
" />
<path d="M41.2639 9.4617
L41.3848 9.4013
" />
<path d="M41.3848 9.4013
L41.4453 9.3408
" />
<path d="M42.5943 9.4013
L42.4734 9.4617
" />
<path d="M42.4734 9.4617
L42.2315 9.4617
" />
<path d="M42.2315 9.4617
L42.1105 9.4013
" />
<path d="M42.1105 9.4013
L42.0500 9.3408
" />
<path d="M42.0500 9.3408
L41.9896 9.2198
" />
<path d="M41.9896 9.2198
L41.9896 8.8570
" />
<path d="M41.9896 8.8570
L42.0500 8.7360
" />
<path d="M42.0500 8.7360
L42.1105 8.6755
" />
<path d="M42.1105 8.6755
L42.2315 8.6151
" />
<path d="M42.2315 8.6151
L42.4734 8.6151
" />
<path d="M42.4734 8.6151
L42.5943 8.6755
" />
<path d="M42.9572 8.6151
L43.4410 8.6151
" />
<path d="M43.1386 8.1917
L43.1386 9.2803
" />
<path d="M43.1386 9.2803
L43.1991 9.4013
" />
<path d="M43.1991 9.4013
L43.3201 9.4617
" />
<path d="M43.3201 9.4617
L43.4410 9.4617
" />
<path d="M43.8039 9.4013
L43.9248 9.4617
" />
<path d="M43.9248 9.4617
L44.1667 9.4617
" />
<path d="M44.1667 9.4617
L44.2877 9.4013
" />
<path d="M44.2877 9.4013
L44.3481 9.2803
" />
<path d="M44.3481 9.2803
L44.3481 9.2198
" />
<path d="M44.3481 9.2198
L44.2877 9.0989
" />
<path d="M44.2877 9.0989
L44.1667 9.0384
" />
<path d="M44.1667 9.0384
L43.9853 9.0384
" />
<path d="M43.9853 9.0384
L43.8643 8.9779
" />
<path d="M43.8643 8.9779
L43.8039 8.8570
" />
<path d="M43.8039 8.8570
L43.8039 8.7965
" />
<path d="M43.8039 8.7965
L43.8643 8.6755
" />
<path d="M43.8643 8.6755
L43.9853 8.6151
" />
<path d="M43.9853 8.6151
L44.1667 8.6151
" />
<path d="M44.1667 8.6151
L44.2877 8.6755
" />
<path d="M45.7996 8.1313
L44.7110 9.7641
" />
<path d="M46.0415 8.6151
L46.5253 8.6151
" />
<path d="M46.2229 8.1917
L46.2229 9.2803
" />
<path d="M46.2229 9.2803
L46.2834 9.4013
" />
<path d="M46.2834 9.4013
L46.4044 9.4617
" />
<path d="M46.4044 9.4617
L46.5253 9.4617
" />
<path d="M46.9486 9.4617
L46.9486 8.6151
" />
<path d="M46.9486 8.7360
L47.0091 8.6755
" />
<path d="M47.0091 8.6755
L47.1301 8.6151
" />
<path d="M47.1301 8.6151
L47.3115 8.6151
" />
<path d="M47.3115 8.6151
L47.4324 8.6755
" />
<path d="M47.4324 8.6755
L47.4929 8.7965
" />
<path d="M47.4929 8.7965
L47.4929 9.4617
" />
<path d="M47.4929 8.7965
L47.5534 8.6755
" />
<path d="M47.5534 8.6755
L47.6743 8.6151
" />
<path d="M47.6743 8.6151
L47.8558 8.6151
" />
<path d="M47.8558 8.6151
L47.9767 8.6755
" />
<path d="M47.9767 8.6755
L48.0372 8.7965
" />
<path d="M48.0372 8.7965
L48.0372 9.4617
" />
<path d="M48.8234 9.4617
L48.7024 9.4013
" />
<path d="M48.7024 9.4013
L48.6419 9.2803
" />
<path d="M48.6419 9.2803
L48.6419 8.1917
" />
<path d="M49.3071 9.4617
L49.3071 8.6151
" />
<path d="M49.3071 8.7360
L49.3676 8.6755
" />
<path d="M49.3676 8.6755
L49.4886 8.6151
" />
<path d="M49.4886 8.6151
L49.6700 8.6151
" />
<path d="M49.6700 8.6151
L49.7909 8.6755
" />
<path d="M49.7909 8.6755
L49.8514 8.7965
" />
<path d="M49.8514 8.7965
L49.8514 9.4617
" />
<path d="M49.8514 8.7965
L49.9119 8.6755
" />
<path d="M49.9119 8.6755
L50.0328 8.6151
" />
<path d="M50.0328 8.6151
L50.2143 8.6151
" />
<path d="M50.2143 8.6151
L50.3352 8.6755
" />
<path d="M50.3352 8.6755
L50.3957 8.7965
" />
<path d="M50.3957 8.7965
L50.3957 9.4617
" />
<path d="M51.0004 9.3408
L51.0609 9.4013
" />
<path d="M51.0609 9.4013
L51.0004 9.4617
" />
<path d="M51.0004 9.4617
L50.9400 9.4013
" />
<path d="M50.9400 9.4013
L51.0004 9.3408
" />
<path d="M51.0004 9.3408
L51.0004 9.4617
" />
<path d="M51.6052 8.6151
L51.6052 9.8851
" />
<path d="M51.6052 8.6755
L51.7262 8.6151
" />
<path d="M51.7262 8.6151
L51.9681 8.6151
" />
<path d="M51.9681 8.6151
L52.0890 8.6755
" />
<path d="M52.0890 8.6755
L52.1495 8.7360
" />
<path d="M52.1495 8.7360
L52.2100 8.8570
" />
<path d="M52.2100 8.8570
L52.2100 9.2198
" />
<path d="M52.2100 9.2198
L52.1495 9.3408
" />
<path d="M52.1495 9.3408
L52.0890 9.4013
" />
<path d="M52.0890 9.4013
L51.9681 9.4617
" />
<path d="M51.9681 9.4617
L51.7262 9.4617
" />
<path d="M51.7262 9.4617
L51.6052 9.4013
" />
<path d="M53.2985 9.4617
L53.2985 8.1917
" />
<path d="M53.2985 9.4013
L53.1776 9.4617
" />
<path d="M53.1776 9.4617
L52.9357 9.4617
" />
<path d="M52.9357 9.4617
L52.8147 9.4013
" />
<path d="M52.8147 9.4013
L52.7542 9.3408
" />
<path d="M52.7542 9.3408
L52.6938 9.2198
" />
<path d="M52.6938 9.2198
L52.6938 8.8570
" />
<path d="M52.6938 8.8570
L52.7542 8.7360
" />
<path d="M52.7542 8.7360
L52.8147 8.6755
" />
<path d="M52.8147 8.6755
L52.9357 8.6151
" />
<path d="M52.9357 8.6151
L53.1776 8.6151
" />
<path d="M53.1776 8.6151
L53.2985 8.6755
" />
<path d="M53.7218 8.6151
L54.2056 8.6151
" />
<path d="M53.9032 9.4617
L53.9032 8.3732
" />
<path d="M53.9032 8.3732
L53.9637 8.2522
" />
<path d="M53.9637 8.2522
L54.0847 8.1917
" />
<path d="M54.0847 8.1917
L54.2056 8.1917
" />
</g></g> 
</svg>
