<?xml version="1.0" standalone="no"?>
 <!DOCTYPE svg PUBLIC "-//W3C//DTD SVG 1.1//EN" 
 "http://www.w3.org/Graphics/SVG/1.1/DTD/svg11.dtd"> 
<svg
  xmlns:svg="http://www.w3.org/2000/svg"
  xmlns="http://www.w3.org/2000/svg"
  xmlns:xlink="http://www.w3.org/1999/xlink"
  version="1.1"
  width="38.4302mm" height="12.1920mm" viewBox="0.0000 0.0000 38.4302 12.1920">
<title>SVG Image created as working.svg date 2023/08/03 00:16:14 </title>
  <desc>Image generated by Eeschema-SVG </desc>
<g style="fill:#000000; fill-opacity:1.0000;stroke:#000000; stroke-opacity:1.0000;
stroke-linecap:round; stroke-linejoin:round;"
 transform="translate(0 0) scale(1 1)">
</g>
<g style="fill:#840000; fill-opacity:0.0; 
stroke:#840000; stroke-width:0.0000; stroke-opacity:1; 
stroke-linecap:round; stroke-linejoin:round;">
</g>
<g style="fill:#FFFFC2; fill-opacity:0.0; 
stroke:#FFFFC2; stroke-width:0.0000; stroke-opacity:1; 
stroke-linecap:round; stroke-linejoin:round;">
</g>
<g style="fill:#FFFFC2; fill-opacity:1.0000; 
stroke:#FFFFC2; stroke-width:0.0000; stroke-opacity:1; 
stroke-linecap:round; stroke-linejoin:round;">
<rect x="3.330100" y="7.137500" width="3.048000" height="0.381000" rx="0.000000" />
<rect x="3.330100" y="3.632300" width="3.048000" height="0.381000" rx="0.000000" />
</g>
<g style="fill:#840084; fill-opacity:1.0000; 
stroke:#840084; stroke-width:0.0000; stroke-opacity:1; 
stroke-linecap:round; stroke-linejoin:round;">
</g>
<g style="fill:#840000; fill-opacity:1.0000; 
stroke:#840000; stroke-width:0.0000; stroke-opacity:1; 
stroke-linecap:round; stroke-linejoin:round;">
</g>
<g style="fill:#840000; fill-opacity:1.0000; 
stroke:#840000; stroke-width:0.1524; stroke-opacity:1; 
stroke-linecap:round; stroke-linejoin:round;">
<rect x="3.330100" y="8.128100" width="3.048000" height="0.381000" rx="0.000000" />
</g>
<g style="fill:#840000; fill-opacity:0.0; 
stroke:#840000; stroke-width:0.2540; stroke-opacity:1; 
stroke-linecap:round; stroke-linejoin:round;">
<rect x="3.330100" y="7.137500" width="3.048000" height="0.381000" rx="0.000000" />
</g>
<g style="fill:#840000; fill-opacity:1.0000; 
stroke:#840000; stroke-width:0.1524; stroke-opacity:1; 
stroke-linecap:round; stroke-linejoin:round;">
<rect x="3.330100" y="4.622900" width="3.048000" height="0.381000" rx="0.000000" />
</g>
<g style="fill:#840000; fill-opacity:0.0; 
stroke:#840000; stroke-width:0.2540; stroke-opacity:1; 
stroke-linecap:round; stroke-linejoin:round;">
<rect x="3.330100" y="3.632300" width="3.048000" height="0.381000" rx="0.000000" />
</g>
<g style="fill:#840000; fill-opacity:0.0; 
stroke:#840000; stroke-width:0.1524; stroke-opacity:1; 
stroke-linecap:round; stroke-linejoin:round;">
<path style="fill:#840000; fill-opacity:0.0; 
stroke:#840000; stroke-width:0.1524; stroke-opacity:1; 
stroke-linecap:round; stroke-linejoin:round;fill:none"
d="M 3.5841,6.2993
4.0921,6.2993
" /> 
<path style="fill:#840000; fill-opacity:0.0; 
stroke:#840000; stroke-width:0.1524; stroke-opacity:1; 
stroke-linecap:round; stroke-linejoin:round;fill:none"
d="M 3.5841,2.7941
4.0921,2.7941
" /> 
<path style="fill:#840000; fill-opacity:0.0; 
stroke:#840000; stroke-width:0.1524; stroke-opacity:1; 
stroke-linecap:round; stroke-linejoin:round;fill:none"
d="M 3.8381,6.5533
3.8381,6.0453
" /> 
<path style="fill:#840000; fill-opacity:0.0; 
stroke:#840000; stroke-width:0.1524; stroke-opacity:1; 
stroke-linecap:round; stroke-linejoin:round;fill:none"
d="M 3.8381,3.0481
3.8381,2.5401
" /> 
<path style="fill:#840000; fill-opacity:0.0; 
stroke:#840000; stroke-width:0.1524; stroke-opacity:1; 
stroke-linecap:round; stroke-linejoin:round;fill:none"
d="M 4.8541,5.0801
4.8541,7.1121
" /> 
</g>
<g style="fill:#840000; fill-opacity:1.0000; 
stroke:#840000; stroke-width:0.1524; stroke-opacity:1; 
stroke-linecap:round; stroke-linejoin:round;">
<circle cx="4.8541" cy="6.0961" r="0.2540" /> 
</g>
<g style="fill:#840000; fill-opacity:0.0; 
stroke:#840000; stroke-width:0.1524; stroke-opacity:1; 
stroke-linecap:round; stroke-linejoin:round;">
<path d="M4.8541 3.5561
L4.8541 1.0161
" />
<path d="M4.8541 6.0961
L7.3941 6.0961
" />
<path d="M4.8541 8.6361
L4.8541 11.1761
" />
</g>
<g style="fill:#840084; fill-opacity:0.0; 
stroke:#840084; stroke-width:0.1524; stroke-opacity:1; 
stroke-linecap:round; stroke-linejoin:round;">
</g>
<g style="fill:#006464; fill-opacity:0.0; 
stroke:#006464; stroke-width:0.1524; stroke-opacity:1; 
stroke-linecap:round; stroke-linejoin:round;">
</g>
<g style="fill:#006464; fill-opacity:0.0; 
stroke:#006464; stroke-width:0.1588; stroke-opacity:1; 
stroke-linecap:round; stroke-linejoin:round;">
<text x="8.6449" y="4.1911"
textLength="2.5016" font-size="1.6933" lengthAdjust="spacingAndGlyphs"
text-anchor="middle" opacity="0">C?</text>
<g class="stroked-text"><desc>C?</desc>
<path d="M8.4936 4.0227
L8.4332 4.0832
" />
<path d="M8.4332 4.0832
L8.2517 4.1436
" />
<path d="M8.2517 4.1436
L8.1308 4.1436
" />
<path d="M8.1308 4.1436
L7.9494 4.0832
" />
<path d="M7.9494 4.0832
L7.8284 3.9622
" />
<path d="M7.8284 3.9622
L7.7679 3.8412
" />
<path d="M7.7679 3.8412
L7.7075 3.5993
" />
<path d="M7.7075 3.5993
L7.7075 3.4179
" />
<path d="M7.7075 3.4179
L7.7679 3.1760
" />
<path d="M7.7679 3.1760
L7.8284 3.0551
" />
<path d="M7.8284 3.0551
L7.9494 2.9341
" />
<path d="M7.9494 2.9341
L8.1308 2.8736
" />
<path d="M8.1308 2.8736
L8.2517 2.8736
" />
<path d="M8.2517 2.8736
L8.4332 2.9341
" />
<path d="M8.4332 2.9341
L8.4936 2.9946
" />
<path d="M9.2194 4.0227
L9.2798 4.0832
" />
<path d="M9.2798 4.0832
L9.2194 4.1436
" />
<path d="M9.2194 4.1436
L9.1589 4.0832
" />
<path d="M9.1589 4.0832
L9.2194 4.0227
" />
<path d="M9.2194 4.0227
L9.2194 4.1436
" />
<path d="M8.9775 2.9341
L9.0984 2.8736
" />
<path d="M9.0984 2.8736
L9.4008 2.8736
" />
<path d="M9.4008 2.8736
L9.5217 2.9341
" />
<path d="M9.5217 2.9341
L9.5822 3.0551
" />
<path d="M9.5822 3.0551
L9.5822 3.1760
" />
<path d="M9.5822 3.1760
L9.5217 3.2970
" />
<path d="M9.5217 3.2970
L9.4613 3.3574
" />
<path d="M9.4613 3.3574
L9.3403 3.4179
" />
<path d="M9.3403 3.4179
L9.2798 3.4784
" />
<path d="M9.2798 3.4784
L9.2194 3.5993
" />
<path d="M9.2194 3.5993
L9.2194 3.6598
" />
</g><text x="21.3145" y="9.2711"
textLength="27.8408" font-size="1.6933" lengthAdjust="spacingAndGlyphs"
text-anchor="middle" opacity="0">C_Polarized_Small_Series_2C</text>
<g class="stroked-text"><desc>C_Polarized_Small_Series_2C</desc>
<path d="M8.4936 9.1027
L8.4332 9.1632
" />
<path d="M8.4332 9.1632
L8.2517 9.2236
" />
<path d="M8.2517 9.2236
L8.1308 9.2236
" />
<path d="M8.1308 9.2236
L7.9494 9.1632
" />
<path d="M7.9494 9.1632
L7.8284 9.0422
" />
<path d="M7.8284 9.0422
L7.7679 8.9212
" />
<path d="M7.7679 8.9212
L7.7075 8.6793
" />
<path d="M7.7075 8.6793
L7.7075 8.4979
" />
<path d="M7.7075 8.4979
L7.7679 8.2560
" />
<path d="M7.7679 8.2560
L7.8284 8.1351
" />
<path d="M7.8284 8.1351
L7.9494 8.0141
" />
<path d="M7.9494 8.0141
L8.1308 7.9536
" />
<path d="M8.1308 7.9536
L8.2517 7.9536
" />
<path d="M8.2517 7.9536
L8.4332 8.0141
" />
<path d="M8.4332 8.0141
L8.4936 8.0746
" />
<path d="M8.7356 9.3446
L9.7032 9.3446
" />
<path d="M10.0055 9.2236
L10.0055 7.9536
" />
<path d="M10.0055 7.9536
L10.4893 7.9536
" />
<path d="M10.4893 7.9536
L10.6103 8.0141
" />
<path d="M10.6103 8.0141
L10.6708 8.0746
" />
<path d="M10.6708 8.0746
L10.7312 8.1955
" />
<path d="M10.7312 8.1955
L10.7312 8.3770
" />
<path d="M10.7312 8.3770
L10.6708 8.4979
" />
<path d="M10.6708 8.4979
L10.6103 8.5584
" />
<path d="M10.6103 8.5584
L10.4893 8.6189
" />
<path d="M10.4893 8.6189
L10.0055 8.6189
" />
<path d="M11.4570 9.2236
L11.3360 9.1632
" />
<path d="M11.3360 9.1632
L11.2755 9.1027
" />
<path d="M11.2755 9.1027
L11.2151 8.9817
" />
<path d="M11.2151 8.9817
L11.2151 8.6189
" />
<path d="M11.2151 8.6189
L11.2755 8.4979
" />
<path d="M11.2755 8.4979
L11.3360 8.4374
" />
<path d="M11.3360 8.4374
L11.4570 8.3770
" />
<path d="M11.4570 8.3770
L11.6384 8.3770
" />
<path d="M11.6384 8.3770
L11.7593 8.4374
" />
<path d="M11.7593 8.4374
L11.8198 8.4979
" />
<path d="M11.8198 8.4979
L11.8803 8.6189
" />
<path d="M11.8803 8.6189
L11.8803 8.9817
" />
<path d="M11.8803 8.9817
L11.8198 9.1027
" />
<path d="M11.8198 9.1027
L11.7593 9.1632
" />
<path d="M11.7593 9.1632
L11.6384 9.2236
" />
<path d="M11.6384 9.2236
L11.4570 9.2236
" />
<path d="M12.6060 9.2236
L12.4850 9.1632
" />
<path d="M12.4850 9.1632
L12.4245 9.0422
" />
<path d="M12.4245 9.0422
L12.4245 7.9536
" />
<path d="M13.6340 9.2236
L13.6340 8.5584
" />
<path d="M13.6340 8.5584
L13.5735 8.4374
" />
<path d="M13.5735 8.4374
L13.4526 8.3770
" />
<path d="M13.4526 8.3770
L13.2107 8.3770
" />
<path d="M13.2107 8.3770
L13.0897 8.4374
" />
<path d="M13.6340 9.1632
L13.5131 9.2236
" />
<path d="M13.5131 9.2236
L13.2107 9.2236
" />
<path d="M13.2107 9.2236
L13.0897 9.1632
" />
<path d="M13.0897 9.1632
L13.0293 9.0422
" />
<path d="M13.0293 9.0422
L13.0293 8.9212
" />
<path d="M13.0293 8.9212
L13.0897 8.8003
" />
<path d="M13.0897 8.8003
L13.2107 8.7398
" />
<path d="M13.2107 8.7398
L13.5131 8.7398
" />
<path d="M13.5131 8.7398
L13.6340 8.6793
" />
<path d="M14.2387 9.2236
L14.2387 8.3770
" />
<path d="M14.2387 8.6189
L14.2992 8.4979
" />
<path d="M14.2992 8.4979
L14.3597 8.4374
" />
<path d="M14.3597 8.4374
L14.4806 8.3770
" />
<path d="M14.4806 8.3770
L14.6016 8.3770
" />
<path d="M15.0249 9.2236
L15.0249 8.3770
" />
<path d="M15.0249 7.9536
L14.9645 8.0141
" />
<path d="M14.9645 8.0141
L15.0249 8.0746
" />
<path d="M15.0249 8.0746
L15.0854 8.0141
" />
<path d="M15.0854 8.0141
L15.0249 7.9536
" />
<path d="M15.0249 7.9536
L15.0249 8.0746
" />
<path d="M15.5088 8.3770
L16.1740 8.3770
" />
<path d="M16.1740 8.3770
L15.5088 9.2236
" />
<path d="M15.5088 9.2236
L16.1740 9.2236
" />
<path d="M17.1416 9.1632
L17.0207 9.2236
" />
<path d="M17.0207 9.2236
L16.7788 9.2236
" />
<path d="M16.7788 9.2236
L16.6578 9.1632
" />
<path d="M16.6578 9.1632
L16.5974 9.0422
" />
<path d="M16.5974 9.0422
L16.5974 8.5584
" />
<path d="M16.5974 8.5584
L16.6578 8.4374
" />
<path d="M16.6578 8.4374
L16.7788 8.3770
" />
<path d="M16.7788 8.3770
L17.0207 8.3770
" />
<path d="M17.0207 8.3770
L17.1416 8.4374
" />
<path d="M17.1416 8.4374
L17.2021 8.5584
" />
<path d="M17.2021 8.5584
L17.2021 8.6793
" />
<path d="M17.2021 8.6793
L16.5974 8.8003
" />
<path d="M18.2907 9.2236
L18.2907 7.9536
" />
<path d="M18.2907 9.1632
L18.1698 9.2236
" />
<path d="M18.1698 9.2236
L17.9279 9.2236
" />
<path d="M17.9279 9.2236
L17.8069 9.1632
" />
<path d="M17.8069 9.1632
L17.7464 9.1027
" />
<path d="M17.7464 9.1027
L17.6860 8.9817
" />
<path d="M17.6860 8.9817
L17.6860 8.6189
" />
<path d="M17.6860 8.6189
L17.7464 8.4979
" />
<path d="M17.7464 8.4979
L17.8069 8.4374
" />
<path d="M17.8069 8.4374
L17.9279 8.3770
" />
<path d="M17.9279 8.3770
L18.1698 8.3770
" />
<path d="M18.1698 8.3770
L18.2907 8.4374
" />
<path d="M18.5931 9.3446
L19.5607 9.3446
" />
<path d="M19.8026 9.1632
L19.9840 9.2236
" />
<path d="M19.9840 9.2236
L20.2864 9.2236
" />
<path d="M20.2864 9.2236
L20.4073 9.1632
" />
<path d="M20.4073 9.1632
L20.4678 9.1027
" />
<path d="M20.4678 9.1027
L20.5283 8.9817
" />
<path d="M20.5283 8.9817
L20.5283 8.8608
" />
<path d="M20.5283 8.8608
L20.4678 8.7398
" />
<path d="M20.4678 8.7398
L20.4073 8.6793
" />
<path d="M20.4073 8.6793
L20.2864 8.6189
" />
<path d="M20.2864 8.6189
L20.0445 8.5584
" />
<path d="M20.0445 8.5584
L19.9235 8.4979
" />
<path d="M19.9235 8.4979
L19.8630 8.4374
" />
<path d="M19.8630 8.4374
L19.8026 8.3165
" />
<path d="M19.8026 8.3165
L19.8026 8.1955
" />
<path d="M19.8026 8.1955
L19.8630 8.0746
" />
<path d="M19.8630 8.0746
L19.9235 8.0141
" />
<path d="M19.9235 8.0141
L20.0445 7.9536
" />
<path d="M20.0445 7.9536
L20.3468 7.9536
" />
<path d="M20.3468 7.9536
L20.5283 8.0141
" />
<path d="M21.0725 9.2236
L21.0725 8.3770
" />
<path d="M21.0725 8.4979
L21.1330 8.4374
" />
<path d="M21.1330 8.4374
L21.2540 8.3770
" />
<path d="M21.2540 8.3770
L21.4354 8.3770
" />
<path d="M21.4354 8.3770
L21.5563 8.4374
" />
<path d="M21.5563 8.4374
L21.6168 8.5584
" />
<path d="M21.6168 8.5584
L21.6168 9.2236
" />
<path d="M21.6168 8.5584
L21.6773 8.4374
" />
<path d="M21.6773 8.4374
L21.7982 8.3770
" />
<path d="M21.7982 8.3770
L21.9797 8.3770
" />
<path d="M21.9797 8.3770
L22.1006 8.4374
" />
<path d="M22.1006 8.4374
L22.1611 8.5584
" />
<path d="M22.1611 8.5584
L22.1611 9.2236
" />
<path d="M23.3101 9.2236
L23.3101 8.5584
" />
<path d="M23.3101 8.5584
L23.2496 8.4374
" />
<path d="M23.2496 8.4374
L23.1287 8.3770
" />
<path d="M23.1287 8.3770
L22.8868 8.3770
" />
<path d="M22.8868 8.3770
L22.7658 8.4374
" />
<path d="M23.3101 9.1632
L23.1892 9.2236
" />
<path d="M23.1892 9.2236
L22.8868 9.2236
" />
<path d="M22.8868 9.2236
L22.7658 9.1632
" />
<path d="M22.7658 9.1632
L22.7054 9.0422
" />
<path d="M22.7054 9.0422
L22.7054 8.9212
" />
<path d="M22.7054 8.9212
L22.7658 8.8003
" />
<path d="M22.7658 8.8003
L22.8868 8.7398
" />
<path d="M22.8868 8.7398
L23.1892 8.7398
" />
<path d="M23.1892 8.7398
L23.3101 8.6793
" />
<path d="M24.0963 9.2236
L23.9753 9.1632
" />
<path d="M23.9753 9.1632
L23.9148 9.0422
" />
<path d="M23.9148 9.0422
L23.9148 7.9536
" />
<path d="M24.7615 9.2236
L24.6405 9.1632
" />
<path d="M24.6405 9.1632
L24.5800 9.0422
" />
<path d="M24.5800 9.0422
L24.5800 7.9536
" />
<path d="M24.9429 9.3446
L25.9105 9.3446
" />
<path d="M26.1524 9.1632
L26.3338 9.2236
" />
<path d="M26.3338 9.2236
L26.6362 9.2236
" />
<path d="M26.6362 9.2236
L26.7571 9.1632
" />
<path d="M26.7571 9.1632
L26.8176 9.1027
" />
<path d="M26.8176 9.1027
L26.8781 8.9817
" />
<path d="M26.8781 8.9817
L26.8781 8.8608
" />
<path d="M26.8781 8.8608
L26.8176 8.7398
" />
<path d="M26.8176 8.7398
L26.7571 8.6793
" />
<path d="M26.7571 8.6793
L26.6362 8.6189
" />
<path d="M26.6362 8.6189
L26.3943 8.5584
" />
<path d="M26.3943 8.5584
L26.2733 8.4979
" />
<path d="M26.2733 8.4979
L26.2128 8.4374
" />
<path d="M26.2128 8.4374
L26.1524 8.3165
" />
<path d="M26.1524 8.3165
L26.1524 8.1955
" />
<path d="M26.1524 8.1955
L26.2128 8.0746
" />
<path d="M26.2128 8.0746
L26.2733 8.0141
" />
<path d="M26.2733 8.0141
L26.3943 7.9536
" />
<path d="M26.3943 7.9536
L26.6966 7.9536
" />
<path d="M26.6966 7.9536
L26.8781 8.0141
" />
<path d="M27.9061 9.1632
L27.7852 9.2236
" />
<path d="M27.7852 9.2236
L27.5433 9.2236
" />
<path d="M27.5433 9.2236
L27.4223 9.1632
" />
<path d="M27.4223 9.1632
L27.3619 9.0422
" />
<path d="M27.3619 9.0422
L27.3619 8.5584
" />
<path d="M27.3619 8.5584
L27.4223 8.4374
" />
<path d="M27.4223 8.4374
L27.5433 8.3770
" />
<path d="M27.5433 8.3770
L27.7852 8.3770
" />
<path d="M27.7852 8.3770
L27.9061 8.4374
" />
<path d="M27.9061 8.4374
L27.9666 8.5584
" />
<path d="M27.9666 8.5584
L27.9666 8.6793
" />
<path d="M27.9666 8.6793
L27.3619 8.8003
" />
<path d="M28.5109 9.2236
L28.5109 8.3770
" />
<path d="M28.5109 8.6189
L28.5714 8.4979
" />
<path d="M28.5714 8.4979
L28.6319 8.4374
" />
<path d="M28.6319 8.4374
L28.7528 8.3770
" />
<path d="M28.7528 8.3770
L28.8738 8.3770
" />
<path d="M29.2971 9.2236
L29.2971 8.3770
" />
<path d="M29.2971 7.9536
L29.2367 8.0141
" />
<path d="M29.2367 8.0141
L29.2971 8.0746
" />
<path d="M29.2971 8.0746
L29.3576 8.0141
" />
<path d="M29.3576 8.0141
L29.2971 7.9536
" />
<path d="M29.2971 7.9536
L29.2971 8.0746
" />
<path d="M30.3857 9.1632
L30.2648 9.2236
" />
<path d="M30.2648 9.2236
L30.0229 9.2236
" />
<path d="M30.0229 9.2236
L29.9019 9.1632
" />
<path d="M29.9019 9.1632
L29.8415 9.0422
" />
<path d="M29.8415 9.0422
L29.8415 8.5584
" />
<path d="M29.8415 8.5584
L29.9019 8.4374
" />
<path d="M29.9019 8.4374
L30.0229 8.3770
" />
<path d="M30.0229 8.3770
L30.2648 8.3770
" />
<path d="M30.2648 8.3770
L30.3857 8.4374
" />
<path d="M30.3857 8.4374
L30.4462 8.5584
" />
<path d="M30.4462 8.5584
L30.4462 8.6793
" />
<path d="M30.4462 8.6793
L29.8415 8.8003
" />
<path d="M30.9301 9.1632
L31.0510 9.2236
" />
<path d="M31.0510 9.2236
L31.2929 9.2236
" />
<path d="M31.2929 9.2236
L31.4139 9.1632
" />
<path d="M31.4139 9.1632
L31.4743 9.0422
" />
<path d="M31.4743 9.0422
L31.4743 8.9817
" />
<path d="M31.4743 8.9817
L31.4139 8.8608
" />
<path d="M31.4139 8.8608
L31.2929 8.8003
" />
<path d="M31.2929 8.8003
L31.1115 8.8003
" />
<path d="M31.1115 8.8003
L30.9905 8.7398
" />
<path d="M30.9905 8.7398
L30.9301 8.6189
" />
<path d="M30.9301 8.6189
L30.9301 8.5584
" />
<path d="M30.9301 8.5584
L30.9905 8.4374
" />
<path d="M30.9905 8.4374
L31.1115 8.3770
" />
<path d="M31.1115 8.3770
L31.2929 8.3770
" />
<path d="M31.2929 8.3770
L31.4139 8.4374
" />
<path d="M31.7163 9.3446
L32.6839 9.3446
" />
<path d="M32.9258 8.0746
L32.9862 8.0141
" />
<path d="M32.9862 8.0141
L33.1072 7.9536
" />
<path d="M33.1072 7.9536
L33.4096 7.9536
" />
<path d="M33.4096 7.9536
L33.5305 8.0141
" />
<path d="M33.5305 8.0141
L33.5910 8.0746
" />
<path d="M33.5910 8.0746
L33.6515 8.1955
" />
<path d="M33.6515 8.1955
L33.6515 8.3165
" />
<path d="M33.6515 8.3165
L33.5910 8.4979
" />
<path d="M33.5910 8.4979
L32.8653 9.2236
" />
<path d="M32.8653 9.2236
L33.6515 9.2236
" />
<path d="M34.9214 9.1027
L34.8610 9.1632
" />
<path d="M34.8610 9.1632
L34.6795 9.2236
" />
<path d="M34.6795 9.2236
L34.5586 9.2236
" />
<path d="M34.5586 9.2236
L34.3772 9.1632
" />
<path d="M34.3772 9.1632
L34.2562 9.0422
" />
<path d="M34.2562 9.0422
L34.1957 8.9212
" />
<path d="M34.1957 8.9212
L34.1353 8.6793
" />
<path d="M34.1353 8.6793
L34.1353 8.4979
" />
<path d="M34.1353 8.4979
L34.1957 8.2560
" />
<path d="M34.1957 8.2560
L34.2562 8.1351
" />
<path d="M34.2562 8.1351
L34.3772 8.0141
" />
<path d="M34.3772 8.0141
L34.5586 7.9536
" />
<path d="M34.5586 7.9536
L34.6795 7.9536
" />
<path d="M34.6795 7.9536
L34.8610 8.0141
" />
<path d="M34.8610 8.0141
L34.9214 8.0746
" />
</g></g>
<g style="fill:#840084; fill-opacity:0.0; 
stroke:#840084; stroke-width:0.1588; stroke-opacity:1; 
stroke-linecap:round; stroke-linejoin:round;">
<text x="4.8541" y="6.7311"
textLength="1.0501" font-size="1.6933" lengthAdjust="spacingAndGlyphs"
text-anchor="middle" opacity="0">~</text>
<g class="stroked-text"><desc>~</desc>
<path d="M4.5215 6.1998
L4.5820 6.1393
" />
<path d="M4.5820 6.1393
L4.7029 6.0789
" />
<path d="M4.7029 6.0789
L4.9448 6.1998
" />
<path d="M4.9448 6.1998
L5.0658 6.1393
" />
<path d="M5.0658 6.1393
L5.1263 6.0789
" />
</g></g> 
</svg>
