<?xml version="1.0" standalone="no"?>
 <!DOCTYPE svg PUBLIC "-//W3C//DTD SVG 1.1//EN" 
 "http://www.w3.org/Graphics/SVG/1.1/DTD/svg11.dtd"> 
<svg
  xmlns:svg="http://www.w3.org/2000/svg"
  xmlns="http://www.w3.org/2000/svg"
  xmlns:xlink="http://www.w3.org/1999/xlink"
  version="1.1"
  width="52.1208mm" height="29.9212mm" viewBox="0.0000 0.0000 52.1208 29.9212">
<title>SVG Image created as working.svg date 2023/08/03 10:37:52 </title>
  <desc>Image generated by Eeschema-SVG </desc>
<g style="fill:#000000; fill-opacity:1.0000;stroke:#000000; stroke-opacity:1.0000;
stroke-linecap:round; stroke-linejoin:round;"
 transform="translate(0 0) scale(1 1)">
</g>
<g style="fill:#840000; fill-opacity:0.0; 
stroke:#840000; stroke-width:0.0000; stroke-opacity:1; 
stroke-linecap:round; stroke-linejoin:round;">
</g>
<g style="fill:#FFFFC2; fill-opacity:0.0; 
stroke:#FFFFC2; stroke-width:0.0000; stroke-opacity:1; 
stroke-linecap:round; stroke-linejoin:round;">
</g>
<g style="fill:#FFFFC2; fill-opacity:1.0000; 
stroke:#FFFFC2; stroke-width:0.0000; stroke-opacity:1; 
stroke-linecap:round; stroke-linejoin:round;">
<rect x="17.176200" y="11.787900" width="15.240000" height="6.350000" rx="0.000000" />
</g>
<g style="fill:#840084; fill-opacity:1.0000; 
stroke:#840084; stroke-width:0.0000; stroke-opacity:1; 
stroke-linecap:round; stroke-linejoin:round;">
</g>
<g style="fill:#840000; fill-opacity:1.0000; 
stroke:#840000; stroke-width:0.0000; stroke-opacity:1; 
stroke-linecap:round; stroke-linejoin:round;">
</g>
<g style="fill:#840000; fill-opacity:0.0; 
stroke:#840000; stroke-width:0.2540; stroke-opacity:1; 
stroke-linecap:round; stroke-linejoin:round;">
<rect x="17.176200" y="11.787900" width="15.240000" height="6.350000" rx="0.000000" />
<rect x="17.684200" y="13.438900" width="1.524000" height="4.064000" rx="0.000000" />
</g>
<g style="fill:#840000; fill-opacity:1.0000; 
stroke:#840000; stroke-width:0.1524; stroke-opacity:1; 
stroke-linecap:round; stroke-linejoin:round;">
<circle cx="18.4462" cy="12.6769" r="0.2540" /> 
</g>
<g style="fill:#840000; fill-opacity:0.0; 
stroke:#840000; stroke-width:0.2540; stroke-opacity:1; 
stroke-linecap:round; stroke-linejoin:round;">
<rect x="20.224200" y="13.438900" width="1.524000" height="4.064000" rx="0.000000" />
</g>
<g style="fill:#840000; fill-opacity:1.0000; 
stroke:#840000; stroke-width:0.1524; stroke-opacity:1; 
stroke-linecap:round; stroke-linejoin:round;">
<circle cx="20.9862" cy="12.6769" r="0.2540" /> 
</g>
<g style="fill:#840000; fill-opacity:0.0; 
stroke:#840000; stroke-width:0.2540; stroke-opacity:1; 
stroke-linecap:round; stroke-linejoin:round;">
<rect x="22.764200" y="13.438900" width="1.524000" height="4.064000" rx="0.000000" />
</g>
<g style="fill:#840000; fill-opacity:1.0000; 
stroke:#840000; stroke-width:0.1524; stroke-opacity:1; 
stroke-linecap:round; stroke-linejoin:round;">
<circle cx="23.5262" cy="12.6769" r="0.2540" /> 
</g>
<g style="fill:#840000; fill-opacity:0.0; 
stroke:#840000; stroke-width:0.2540; stroke-opacity:1; 
stroke-linecap:round; stroke-linejoin:round;">
<rect x="25.304200" y="13.438900" width="1.524000" height="4.064000" rx="0.000000" />
</g>
<g style="fill:#840000; fill-opacity:0.0; 
stroke:#840000; stroke-width:0.1524; stroke-opacity:1; 
stroke-linecap:round; stroke-linejoin:round;">
<path style="fill:#840000; fill-opacity:0.0; 
stroke:#840000; stroke-width:0.1524; stroke-opacity:1; 
stroke-linecap:round; stroke-linejoin:round;fill:none"
d="M 18.4462,17.5029
18.4462,18.7729
" /> 
<path style="fill:#840000; fill-opacity:0.0; 
stroke:#840000; stroke-width:0.1524; stroke-opacity:1; 
stroke-linecap:round; stroke-linejoin:round;fill:none"
d="M 20.9862,17.5029
20.9862,18.7729
" /> 
<path style="fill:#840000; fill-opacity:0.0; 
stroke:#840000; stroke-width:0.1524; stroke-opacity:1; 
stroke-linecap:round; stroke-linejoin:round;fill:none"
d="M 23.5262,17.5029
23.5262,18.7729
" /> 
<path style="fill:#840000; fill-opacity:0.0; 
stroke:#840000; stroke-width:0.1524; stroke-opacity:1; 
stroke-linecap:round; stroke-linejoin:round;fill:none"
d="M 26.0662,17.5029
26.0662,18.7729
" /> 
<path style="fill:#840000; fill-opacity:0.0; 
stroke:#840000; stroke-width:0.1524; stroke-opacity:1; 
stroke-linecap:round; stroke-linejoin:round;fill:none"
d="M 28.6062,17.5029
28.6062,18.7729
" /> 
<path style="fill:#840000; fill-opacity:0.0; 
stroke:#840000; stroke-width:0.1524; stroke-opacity:1; 
stroke-linecap:round; stroke-linejoin:round;fill:none"
d="M 31.1462,17.5029
31.1462,18.7729
" /> 
<path style="fill:#840000; fill-opacity:0.0; 
stroke:#840000; stroke-width:0.1524; stroke-opacity:1; 
stroke-linecap:round; stroke-linejoin:round;fill:none"
d="M 18.4462,13.4389
18.4462,12.6769
20.9862,12.6769
20.9862,13.4389
" /> 
<path style="fill:#840000; fill-opacity:0.0; 
stroke:#840000; stroke-width:0.1524; stroke-opacity:1; 
stroke-linecap:round; stroke-linejoin:round;fill:none"
d="M 20.9862,13.4389
20.9862,12.6769
23.5262,12.6769
23.5262,13.4389
" /> 
<path style="fill:#840000; fill-opacity:0.0; 
stroke:#840000; stroke-width:0.1524; stroke-opacity:1; 
stroke-linecap:round; stroke-linejoin:round;fill:none"
d="M 23.5262,13.4389
23.5262,12.6769
26.0662,12.6769
26.0662,13.4389
" /> 
<path style="fill:#840000; fill-opacity:0.0; 
stroke:#840000; stroke-width:0.1524; stroke-opacity:1; 
stroke-linecap:round; stroke-linejoin:round;fill:none"
d="M 26.0662,13.4389
26.0662,12.6769
28.6062,12.6769
28.6062,13.4389
" /> 
<path style="fill:#840000; fill-opacity:0.0; 
stroke:#840000; stroke-width:0.1524; stroke-opacity:1; 
stroke-linecap:round; stroke-linejoin:round;fill:none"
d="M 28.6062,13.4389
28.6062,12.6769
31.1462,12.6769
31.1462,13.4389
" /> 
</g>
<g style="fill:#840000; fill-opacity:1.0000; 
stroke:#840000; stroke-width:0.1524; stroke-opacity:1; 
stroke-linecap:round; stroke-linejoin:round;">
<circle cx="26.0662" cy="12.6769" r="0.2540" /> 
</g>
<g style="fill:#840000; fill-opacity:0.0; 
stroke:#840000; stroke-width:0.2540; stroke-opacity:1; 
stroke-linecap:round; stroke-linejoin:round;">
<rect x="27.844200" y="13.438900" width="1.524000" height="4.064000" rx="0.000000" />
</g>
<g style="fill:#840000; fill-opacity:1.0000; 
stroke:#840000; stroke-width:0.1524; stroke-opacity:1; 
stroke-linecap:round; stroke-linejoin:round;">
<circle cx="28.6062" cy="12.6769" r="0.2540" /> 
</g>
<g style="fill:#840000; fill-opacity:0.0; 
stroke:#840000; stroke-width:0.2540; stroke-opacity:1; 
stroke-linecap:round; stroke-linejoin:round;">
<rect x="30.384200" y="13.438900" width="1.524000" height="4.064000" rx="0.000000" />
</g>
<g style="fill:#840000; fill-opacity:0.0; 
stroke:#840000; stroke-width:0.1524; stroke-opacity:1; 
stroke-linecap:round; stroke-linejoin:round;">
<path d="M18.4462 12.4229
L18.4462 9.8829
" />
</g>
<g style="fill:#A90000; fill-opacity:0.0; 
stroke:#A90000; stroke-width:0.1524; stroke-opacity:1; 
stroke-linecap:round; stroke-linejoin:round;">
<g transform="rotate(-90.000000 18.7002 11.1529)">
<text x="18.7002" y="12.4229"
textLength="1.3365" font-size="1.6933" lengthAdjust="spacingAndGlyphs"
text-anchor="middle" opacity="0">1</text>
</g>
<g class="stroked-text"><desc>1</desc>
<path d="M20.0306 10.7899
L20.0306 11.5156
" />
<path d="M20.0306 11.1528
L18.7606 11.1528
" />
<path d="M18.7606 11.1528
L18.9421 11.2737
" />
<path d="M18.9421 11.2737
L19.0630 11.3947
" />
<path d="M19.0630 11.3947
L19.1235 11.5156
" />
</g></g>
<g style="fill:#840000; fill-opacity:0.0; 
stroke:#840000; stroke-width:0.1524; stroke-opacity:1; 
stroke-linecap:round; stroke-linejoin:round;">
<path d="M18.4462 18.7729
L18.4462 20.0429
" />
</g>
<g style="fill:#A90000; fill-opacity:0.0; 
stroke:#A90000; stroke-width:0.1524; stroke-opacity:1; 
stroke-linecap:round; stroke-linejoin:round;">
<g transform="rotate(-90.000000 18.7002 19.4079)">
<text x="18.7002" y="20.6779"
textLength="1.3365" font-size="1.6933" lengthAdjust="spacingAndGlyphs"
text-anchor="middle" opacity="0">2</text>
</g>
<g class="stroked-text"><desc>2</desc>
<path d="M18.8816 19.7706
L18.8211 19.7102
" />
<path d="M18.8211 19.7102
L18.7606 19.5892
" />
<path d="M18.7606 19.5892
L18.7606 19.2868
" />
<path d="M18.7606 19.2868
L18.8211 19.1659
" />
<path d="M18.8211 19.1659
L18.8816 19.1054
" />
<path d="M18.8816 19.1054
L19.0025 19.0449
" />
<path d="M19.0025 19.0449
L19.1235 19.0449
" />
<path d="M19.1235 19.0449
L19.3049 19.1054
" />
<path d="M19.3049 19.1054
L20.0306 19.8311
" />
<path d="M20.0306 19.8311
L20.0306 19.0449
" />
</g></g>
<g style="fill:#840000; fill-opacity:0.0; 
stroke:#840000; stroke-width:0.1524; stroke-opacity:1; 
stroke-linecap:round; stroke-linejoin:round;">
<path d="M20.9862 18.7729
L20.9862 20.0429
" />
</g>
<g style="fill:#A90000; fill-opacity:0.0; 
stroke:#A90000; stroke-width:0.1524; stroke-opacity:1; 
stroke-linecap:round; stroke-linejoin:round;">
<g transform="rotate(-90.000000 21.2402 19.4079)">
<text x="21.2402" y="20.6779"
textLength="1.3365" font-size="1.6933" lengthAdjust="spacingAndGlyphs"
text-anchor="middle" opacity="0">3</text>
</g>
<g class="stroked-text"><desc>3</desc>
<path d="M21.3006 19.8311
L21.3006 19.0449
" />
<path d="M21.3006 19.0449
L21.7844 19.4683
" />
<path d="M21.7844 19.4683
L21.7844 19.2868
" />
<path d="M21.7844 19.2868
L21.8449 19.1659
" />
<path d="M21.8449 19.1659
L21.9054 19.1054
" />
<path d="M21.9054 19.1054
L22.0263 19.0449
" />
<path d="M22.0263 19.0449
L22.3287 19.0449
" />
<path d="M22.3287 19.0449
L22.4497 19.1054
" />
<path d="M22.4497 19.1054
L22.5102 19.1659
" />
<path d="M22.5102 19.1659
L22.5706 19.2868
" />
<path d="M22.5706 19.2868
L22.5706 19.6497
" />
<path d="M22.5706 19.6497
L22.5102 19.7706
" />
<path d="M22.5102 19.7706
L22.4497 19.8311
" />
</g></g>
<g style="fill:#840000; fill-opacity:0.0; 
stroke:#840000; stroke-width:0.1524; stroke-opacity:1; 
stroke-linecap:round; stroke-linejoin:round;">
<path d="M23.5262 18.7729
L23.5262 20.0429
" />
</g>
<g style="fill:#A90000; fill-opacity:0.0; 
stroke:#A90000; stroke-width:0.1524; stroke-opacity:1; 
stroke-linecap:round; stroke-linejoin:round;">
<g transform="rotate(-90.000000 23.7802 19.4079)">
<text x="23.7802" y="20.6779"
textLength="1.3365" font-size="1.6933" lengthAdjust="spacingAndGlyphs"
text-anchor="middle" opacity="0">4</text>
</g>
<g class="stroked-text"><desc>4</desc>
<path d="M24.2640 19.1659
L25.1106 19.1659
" />
<path d="M23.7802 19.4683
L24.6873 19.7706
" />
<path d="M24.6873 19.7706
L24.6873 18.9845
" />
</g></g>
<g style="fill:#840000; fill-opacity:0.0; 
stroke:#840000; stroke-width:0.1524; stroke-opacity:1; 
stroke-linecap:round; stroke-linejoin:round;">
<path d="M26.0662 18.7729
L26.0662 20.0429
" />
</g>
<g style="fill:#A90000; fill-opacity:0.0; 
stroke:#A90000; stroke-width:0.1524; stroke-opacity:1; 
stroke-linecap:round; stroke-linejoin:round;">
<g transform="rotate(-90.000000 26.3202 19.4079)">
<text x="26.3202" y="20.6779"
textLength="1.3365" font-size="1.6933" lengthAdjust="spacingAndGlyphs"
text-anchor="middle" opacity="0">5</text>
</g>
<g class="stroked-text"><desc>5</desc>
<path d="M26.3806 19.1054
L26.3806 19.7102
" />
<path d="M26.3806 19.7102
L26.9854 19.7706
" />
<path d="M26.9854 19.7706
L26.9249 19.7102
" />
<path d="M26.9249 19.7102
L26.8644 19.5892
" />
<path d="M26.8644 19.5892
L26.8644 19.2868
" />
<path d="M26.8644 19.2868
L26.9249 19.1659
" />
<path d="M26.9249 19.1659
L26.9854 19.1054
" />
<path d="M26.9854 19.1054
L27.1063 19.0449
" />
<path d="M27.1063 19.0449
L27.4087 19.0449
" />
<path d="M27.4087 19.0449
L27.5297 19.1054
" />
<path d="M27.5297 19.1054
L27.5902 19.1659
" />
<path d="M27.5902 19.1659
L27.6506 19.2868
" />
<path d="M27.6506 19.2868
L27.6506 19.5892
" />
<path d="M27.6506 19.5892
L27.5902 19.7102
" />
<path d="M27.5902 19.7102
L27.5297 19.7706
" />
</g></g>
<g style="fill:#840000; fill-opacity:0.0; 
stroke:#840000; stroke-width:0.1524; stroke-opacity:1; 
stroke-linecap:round; stroke-linejoin:round;">
<path d="M28.6062 18.7729
L28.6062 20.0429
" />
</g>
<g style="fill:#A90000; fill-opacity:0.0; 
stroke:#A90000; stroke-width:0.1524; stroke-opacity:1; 
stroke-linecap:round; stroke-linejoin:round;">
<g transform="rotate(-90.000000 28.8602 19.4079)">
<text x="28.8602" y="20.6779"
textLength="1.3365" font-size="1.6933" lengthAdjust="spacingAndGlyphs"
text-anchor="middle" opacity="0">6</text>
</g>
<g class="stroked-text"><desc>6</desc>
<path d="M28.9206 19.1659
L28.9206 19.4078
" />
<path d="M28.9206 19.4078
L28.9811 19.5287
" />
<path d="M28.9811 19.5287
L29.0416 19.5892
" />
<path d="M29.0416 19.5892
L29.2230 19.7102
" />
<path d="M29.2230 19.7102
L29.4649 19.7706
" />
<path d="M29.4649 19.7706
L29.9487 19.7706
" />
<path d="M29.9487 19.7706
L30.0697 19.7102
" />
<path d="M30.0697 19.7102
L30.1302 19.6497
" />
<path d="M30.1302 19.6497
L30.1906 19.5287
" />
<path d="M30.1906 19.5287
L30.1906 19.2868
" />
<path d="M30.1906 19.2868
L30.1302 19.1659
" />
<path d="M30.1302 19.1659
L30.0697 19.1054
" />
<path d="M30.0697 19.1054
L29.9487 19.0449
" />
<path d="M29.9487 19.0449
L29.6463 19.0449
" />
<path d="M29.6463 19.0449
L29.5254 19.1054
" />
<path d="M29.5254 19.1054
L29.4649 19.1659
" />
<path d="M29.4649 19.1659
L29.4044 19.2868
" />
<path d="M29.4044 19.2868
L29.4044 19.5287
" />
<path d="M29.4044 19.5287
L29.4649 19.6497
" />
<path d="M29.4649 19.6497
L29.5254 19.7102
" />
<path d="M29.5254 19.7102
L29.6463 19.7706
" />
</g></g>
<g style="fill:#840000; fill-opacity:0.0; 
stroke:#840000; stroke-width:0.1524; stroke-opacity:1; 
stroke-linecap:round; stroke-linejoin:round;">
<path d="M31.1462 18.7729
L31.1462 20.0429
" />
</g>
<g style="fill:#A90000; fill-opacity:0.0; 
stroke:#A90000; stroke-width:0.1524; stroke-opacity:1; 
stroke-linecap:round; stroke-linejoin:round;">
<g transform="rotate(-90.000000 31.4002 19.4079)">
<text x="31.4002" y="20.6779"
textLength="1.3365" font-size="1.6933" lengthAdjust="spacingAndGlyphs"
text-anchor="middle" opacity="0">7</text>
</g>
<g class="stroked-text"><desc>7</desc>
<path d="M31.4606 19.8311
L31.4606 18.9845
" />
<path d="M31.4606 18.9845
L32.7306 19.5287
" />
</g></g>
<g style="fill:#840084; fill-opacity:0.0; 
stroke:#840084; stroke-width:0.1524; stroke-opacity:1; 
stroke-linecap:round; stroke-linejoin:round;">
</g>
<g style="fill:#006464; fill-opacity:0.0; 
stroke:#006464; stroke-width:0.1524; stroke-opacity:1; 
stroke-linecap:round; stroke-linejoin:round;">
</g>
<g style="fill:#006464; fill-opacity:0.0; 
stroke:#006464; stroke-width:0.1588; stroke-opacity:1; 
stroke-linecap:round; stroke-linejoin:round;">
<g transform="rotate(-90.000000 15.9062 14.9629)">
<text x="15.9062" y="15.5979"
textLength="3.8321" font-size="1.6933" lengthAdjust="spacingAndGlyphs"
text-anchor="middle" opacity="0">RN?</text>
</g>
<g class="stroked-text"><desc>RN?</desc>
<path d="M16.4937 15.7793
L15.8890 16.2026
" />
<path d="M16.4937 16.5050
L15.2237 16.5050
" />
<path d="M15.2237 16.5050
L15.2237 16.0212
" />
<path d="M15.2237 16.0212
L15.2842 15.9002
" />
<path d="M15.2842 15.9002
L15.3447 15.8397
" />
<path d="M15.3447 15.8397
L15.4656 15.7793
" />
<path d="M15.4656 15.7793
L15.6471 15.7793
" />
<path d="M15.6471 15.7793
L15.7680 15.8397
" />
<path d="M15.7680 15.8397
L15.8285 15.9002
" />
<path d="M15.8285 15.9002
L15.8890 16.0212
" />
<path d="M15.8890 16.0212
L15.8890 16.5050
" />
<path d="M16.4937 15.2350
L15.2237 15.2350
" />
<path d="M15.2237 15.2350
L16.4937 14.5093
" />
<path d="M16.4937 14.5093
L15.2237 14.5093
" />
<path d="M16.3728 13.7230
L16.4333 13.6626
" />
<path d="M16.4333 13.6626
L16.4937 13.7230
" />
<path d="M16.4937 13.7230
L16.4333 13.7835
" />
<path d="M16.4333 13.7835
L16.3728 13.7230
" />
<path d="M16.3728 13.7230
L16.4937 13.7230
" />
<path d="M15.2842 13.9649
L15.2237 13.8440
" />
<path d="M15.2237 13.8440
L15.2237 13.5416
" />
<path d="M15.2237 13.5416
L15.2842 13.4207
" />
<path d="M15.2842 13.4207
L15.4052 13.3602
" />
<path d="M15.4052 13.3602
L15.5261 13.3602
" />
<path d="M15.5261 13.3602
L15.6471 13.4207
" />
<path d="M15.6471 13.4207
L15.7075 13.4811
" />
<path d="M15.7075 13.4811
L15.7680 13.6021
" />
<path d="M15.7680 13.6021
L15.8285 13.6626
" />
<path d="M15.8285 13.6626
L15.9494 13.7230
" />
<path d="M15.9494 13.7230
L16.0099 13.7230
" />
</g><g transform="rotate(-90.000000 33.6862 14.9629)">
<text x="33.6862" y="15.5979"
textLength="12.2382" font-size="1.6933" lengthAdjust="spacingAndGlyphs"
text-anchor="middle" opacity="0">R_Network06</text>
</g>
<g class="stroked-text"><desc>R_Network06</desc>
<path d="M34.2737 19.9824
L33.6690 20.4057
" />
<path d="M34.2737 20.7081
L33.0037 20.7081
" />
<path d="M33.0037 20.7081
L33.0037 20.2243
" />
<path d="M33.0037 20.2243
L33.0642 20.1033
" />
<path d="M33.0642 20.1033
L33.1247 20.0428
" />
<path d="M33.1247 20.0428
L33.2456 19.9824
" />
<path d="M33.2456 19.9824
L33.4271 19.9824
" />
<path d="M33.4271 19.9824
L33.5480 20.0428
" />
<path d="M33.5480 20.0428
L33.6085 20.1033
" />
<path d="M33.6085 20.1033
L33.6690 20.2243
" />
<path d="M33.6690 20.2243
L33.6690 20.7081
" />
<path d="M34.3947 19.7405
L34.3947 18.7728
" />
<path d="M34.2737 18.4705
L33.0037 18.4705
" />
<path d="M33.0037 18.4705
L34.2737 17.7448
" />
<path d="M34.2737 17.7448
L33.0037 17.7448
" />
<path d="M34.2133 16.6562
L34.2737 16.7771
" />
<path d="M34.2737 16.7771
L34.2737 17.0190
" />
<path d="M34.2737 17.0190
L34.2133 17.1400
" />
<path d="M34.2133 17.1400
L34.0923 17.2004
" />
<path d="M34.0923 17.2004
L33.6085 17.2004
" />
<path d="M33.6085 17.2004
L33.4875 17.1400
" />
<path d="M33.4875 17.1400
L33.4271 17.0190
" />
<path d="M33.4271 17.0190
L33.4271 16.7771
" />
<path d="M33.4271 16.7771
L33.4875 16.6562
" />
<path d="M33.4875 16.6562
L33.6085 16.5957
" />
<path d="M33.6085 16.5957
L33.7294 16.5957
" />
<path d="M33.7294 16.5957
L33.8504 17.2004
" />
<path d="M33.4271 16.2328
L33.4271 15.7490
" />
<path d="M33.0037 16.0514
L34.0923 16.0514
" />
<path d="M34.0923 16.0514
L34.2133 15.9909
" />
<path d="M34.2133 15.9909
L34.2737 15.8699
" />
<path d="M34.2737 15.8699
L34.2737 15.7490
" />
<path d="M33.4271 15.4466
L34.2737 15.2047
" />
<path d="M34.2737 15.2047
L33.6690 14.9628
" />
<path d="M33.6690 14.9628
L34.2737 14.7209
" />
<path d="M34.2737 14.7209
L33.4271 14.4790
" />
<path d="M34.2737 13.8137
L34.2133 13.9347
" />
<path d="M34.2133 13.9347
L34.1528 13.9952
" />
<path d="M34.1528 13.9952
L34.0318 14.0556
" />
<path d="M34.0318 14.0556
L33.6690 14.0556
" />
<path d="M33.6690 14.0556
L33.5480 13.9952
" />
<path d="M33.5480 13.9952
L33.4875 13.9347
" />
<path d="M33.4875 13.9347
L33.4271 13.8137
" />
<path d="M33.4271 13.8137
L33.4271 13.6323
" />
<path d="M33.4271 13.6323
L33.4875 13.5114
" />
<path d="M33.4875 13.5114
L33.5480 13.4509
" />
<path d="M33.5480 13.4509
L33.6690 13.3904
" />
<path d="M33.6690 13.3904
L34.0318 13.3904
" />
<path d="M34.0318 13.3904
L34.1528 13.4509
" />
<path d="M34.1528 13.4509
L34.2133 13.5114
" />
<path d="M34.2133 13.5114
L34.2737 13.6323
" />
<path d="M34.2737 13.6323
L34.2737 13.8137
" />
<path d="M34.2737 12.8462
L33.4271 12.8462
" />
<path d="M33.6690 12.8462
L33.5480 12.7857
" />
<path d="M33.5480 12.7857
L33.4875 12.7252
" />
<path d="M33.4875 12.7252
L33.4271 12.6043
" />
<path d="M33.4271 12.6043
L33.4271 12.4833
" />
<path d="M34.2737 12.0600
L33.0037 12.0600
" />
<path d="M33.7899 11.9390
L34.2737 11.5762
" />
<path d="M33.4271 11.5762
L33.9109 12.0600
" />
<path d="M33.0037 10.7900
L33.0037 10.6690
" />
<path d="M33.0037 10.6690
L33.0642 10.5481
" />
<path d="M33.0642 10.5481
L33.1247 10.4876
" />
<path d="M33.1247 10.4876
L33.2456 10.4271
" />
<path d="M33.2456 10.4271
L33.4875 10.3666
" />
<path d="M33.4875 10.3666
L33.7899 10.3666
" />
<path d="M33.7899 10.3666
L34.0318 10.4271
" />
<path d="M34.0318 10.4271
L34.1528 10.4876
" />
<path d="M34.1528 10.4876
L34.2133 10.5481
" />
<path d="M34.2133 10.5481
L34.2737 10.6690
" />
<path d="M34.2737 10.6690
L34.2737 10.7900
" />
<path d="M34.2737 10.7900
L34.2133 10.9109
" />
<path d="M34.2133 10.9109
L34.1528 10.9714
" />
<path d="M34.1528 10.9714
L34.0318 11.0319
" />
<path d="M34.0318 11.0319
L33.7899 11.0923
" />
<path d="M33.7899 11.0923
L33.4875 11.0923
" />
<path d="M33.4875 11.0923
L33.2456 11.0319
" />
<path d="M33.2456 11.0319
L33.1247 10.9714
" />
<path d="M33.1247 10.9714
L33.0642 10.9109
" />
<path d="M33.0642 10.9109
L33.0037 10.7900
" />
<path d="M33.0037 9.2781
L33.0037 9.5200
" />
<path d="M33.0037 9.5200
L33.0642 9.6409
" />
<path d="M33.0642 9.6409
L33.1247 9.7014
" />
<path d="M33.1247 9.7014
L33.3061 9.8224
" />
<path d="M33.3061 9.8224
L33.5480 9.8828
" />
<path d="M33.5480 9.8828
L34.0318 9.8828
" />
<path d="M34.0318 9.8828
L34.1528 9.8224
" />
<path d="M34.1528 9.8224
L34.2133 9.7619
" />
<path d="M34.2133 9.7619
L34.2737 9.6409
" />
<path d="M34.2737 9.6409
L34.2737 9.3990
" />
<path d="M34.2737 9.3990
L34.2133 9.2781
" />
<path d="M34.2133 9.2781
L34.1528 9.2176
" />
<path d="M34.1528 9.2176
L34.0318 9.1571
" />
<path d="M34.0318 9.1571
L33.7294 9.1571
" />
<path d="M33.7294 9.1571
L33.6085 9.2176
" />
<path d="M33.6085 9.2176
L33.5480 9.2781
" />
<path d="M33.5480 9.2781
L33.4875 9.3990
" />
<path d="M33.4875 9.3990
L33.4875 9.6409
" />
<path d="M33.4875 9.6409
L33.5480 9.7619
" />
<path d="M33.5480 9.7619
L33.6085 9.8224
" />
<path d="M33.6085 9.8224
L33.7294 9.8828
" />
</g></g>
<g style="fill:#840084; fill-opacity:0.0; 
stroke:#840084; stroke-width:0.1588; stroke-opacity:1; 
stroke-linecap:round; stroke-linejoin:round;">
<g transform="rotate(-90.000000 35.5912 14.9629)">
<text x="35.5912" y="15.5979"
textLength="24.9382" font-size="1.6933" lengthAdjust="spacingAndGlyphs"
text-anchor="middle" opacity="0">Resistor_THT:R_Array_SIP7</text>
</g>
<g class="stroked-text"><desc>Resistor_THT:R_Array_SIP7</desc>
<path d="M36.1787 26.3324
L35.5740 26.7557
" />
<path d="M36.1787 27.0581
L34.9087 27.0581
" />
<path d="M34.9087 27.0581
L34.9087 26.5743
" />
<path d="M34.9087 26.5743
L34.9692 26.4533
" />
<path d="M34.9692 26.4533
L35.0297 26.3928
" />
<path d="M35.0297 26.3928
L35.1506 26.3324
" />
<path d="M35.1506 26.3324
L35.3321 26.3324
" />
<path d="M35.3321 26.3324
L35.4530 26.3928
" />
<path d="M35.4530 26.3928
L35.5135 26.4533
" />
<path d="M35.5135 26.4533
L35.5740 26.5743
" />
<path d="M35.5740 26.5743
L35.5740 27.0581
" />
<path d="M36.1183 25.3043
L36.1787 25.4252
" />
<path d="M36.1787 25.4252
L36.1787 25.6671
" />
<path d="M36.1787 25.6671
L36.1183 25.7881
" />
<path d="M36.1183 25.7881
L35.9973 25.8485
" />
<path d="M35.9973 25.8485
L35.5135 25.8485
" />
<path d="M35.5135 25.8485
L35.3925 25.7881
" />
<path d="M35.3925 25.7881
L35.3321 25.6671
" />
<path d="M35.3321 25.6671
L35.3321 25.4252
" />
<path d="M35.3321 25.4252
L35.3925 25.3043
" />
<path d="M35.3925 25.3043
L35.5135 25.2438
" />
<path d="M35.5135 25.2438
L35.6344 25.2438
" />
<path d="M35.6344 25.2438
L35.7554 25.8485
" />
<path d="M36.1183 24.7599
L36.1787 24.6390
" />
<path d="M36.1787 24.6390
L36.1787 24.3971
" />
<path d="M36.1787 24.3971
L36.1183 24.2761
" />
<path d="M36.1183 24.2761
L35.9973 24.2157
" />
<path d="M35.9973 24.2157
L35.9368 24.2157
" />
<path d="M35.9368 24.2157
L35.8159 24.2761
" />
<path d="M35.8159 24.2761
L35.7554 24.3971
" />
<path d="M35.7554 24.3971
L35.7554 24.5785
" />
<path d="M35.7554 24.5785
L35.6949 24.6995
" />
<path d="M35.6949 24.6995
L35.5740 24.7599
" />
<path d="M35.5740 24.7599
L35.5135 24.7599
" />
<path d="M35.5135 24.7599
L35.3925 24.6995
" />
<path d="M35.3925 24.6995
L35.3321 24.5785
" />
<path d="M35.3321 24.5785
L35.3321 24.3971
" />
<path d="M35.3321 24.3971
L35.3925 24.2761
" />
<path d="M36.1787 23.6714
L35.3321 23.6714
" />
<path d="M34.9087 23.6714
L34.9692 23.7318
" />
<path d="M34.9692 23.7318
L35.0297 23.6714
" />
<path d="M35.0297 23.6714
L34.9692 23.6109
" />
<path d="M34.9692 23.6109
L34.9087 23.6714
" />
<path d="M34.9087 23.6714
L35.0297 23.6714
" />
<path d="M36.1183 23.1270
L36.1787 23.0061
" />
<path d="M36.1787 23.0061
L36.1787 22.7642
" />
<path d="M36.1787 22.7642
L36.1183 22.6432
" />
<path d="M36.1183 22.6432
L35.9973 22.5828
" />
<path d="M35.9973 22.5828
L35.9368 22.5828
" />
<path d="M35.9368 22.5828
L35.8159 22.6432
" />
<path d="M35.8159 22.6432
L35.7554 22.7642
" />
<path d="M35.7554 22.7642
L35.7554 22.9456
" />
<path d="M35.7554 22.9456
L35.6949 23.0666
" />
<path d="M35.6949 23.0666
L35.5740 23.1270
" />
<path d="M35.5740 23.1270
L35.5135 23.1270
" />
<path d="M35.5135 23.1270
L35.3925 23.0666
" />
<path d="M35.3925 23.0666
L35.3321 22.9456
" />
<path d="M35.3321 22.9456
L35.3321 22.7642
" />
<path d="M35.3321 22.7642
L35.3925 22.6432
" />
<path d="M35.3321 22.2199
L35.3321 21.7361
" />
<path d="M34.9087 22.0385
L35.9973 22.0385
" />
<path d="M35.9973 22.0385
L36.1183 21.9780
" />
<path d="M36.1183 21.9780
L36.1787 21.8570
" />
<path d="M36.1787 21.8570
L36.1787 21.7361
" />
<path d="M36.1787 21.1313
L36.1183 21.2523
" />
<path d="M36.1183 21.2523
L36.0578 21.3128
" />
<path d="M36.0578 21.3128
L35.9368 21.3732
" />
<path d="M35.9368 21.3732
L35.5740 21.3732
" />
<path d="M35.5740 21.3732
L35.4530 21.3128
" />
<path d="M35.4530 21.3128
L35.3925 21.2523
" />
<path d="M35.3925 21.2523
L35.3321 21.1313
" />
<path d="M35.3321 21.1313
L35.3321 20.9499
" />
<path d="M35.3321 20.9499
L35.3925 20.8290
" />
<path d="M35.3925 20.8290
L35.4530 20.7685
" />
<path d="M35.4530 20.7685
L35.5740 20.7080
" />
<path d="M35.5740 20.7080
L35.9368 20.7080
" />
<path d="M35.9368 20.7080
L36.0578 20.7685
" />
<path d="M36.0578 20.7685
L36.1183 20.8290
" />
<path d="M36.1183 20.8290
L36.1787 20.9499
" />
<path d="M36.1787 20.9499
L36.1787 21.1313
" />
<path d="M36.1787 20.1638
L35.3321 20.1638
" />
<path d="M35.5740 20.1638
L35.4530 20.1033
" />
<path d="M35.4530 20.1033
L35.3925 20.0428
" />
<path d="M35.3925 20.0428
L35.3321 19.9219
" />
<path d="M35.3321 19.9219
L35.3321 19.8009
" />
<path d="M36.2997 19.6800
L36.2997 18.7123
" />
<path d="M34.9087 18.5914
L34.9087 17.8657
" />
<path d="M36.1787 18.2285
L34.9087 18.2285
" />
<path d="M36.1787 17.4424
L34.9087 17.4424
" />
<path d="M35.5135 17.4424
L35.5135 16.7167
" />
<path d="M36.1787 16.7167
L34.9087 16.7167
" />
<path d="M34.9087 16.2933
L34.9087 15.5676
" />
<path d="M36.1787 15.9304
L34.9087 15.9304
" />
<path d="M36.0578 15.1443
L36.1183 15.0838
" />
<path d="M36.1183 15.0838
L36.1787 15.1443
" />
<path d="M36.1787 15.1443
L36.1183 15.2047
" />
<path d="M36.1183 15.2047
L36.0578 15.1443
" />
<path d="M36.0578 15.1443
L36.1787 15.1443
" />
<path d="M35.3925 15.1443
L35.4530 15.0838
" />
<path d="M35.4530 15.0838
L35.5135 15.1443
" />
<path d="M35.5135 15.1443
L35.4530 15.2047
" />
<path d="M35.4530 15.2047
L35.3925 15.1443
" />
<path d="M35.3925 15.1443
L35.5135 15.1443
" />
<path d="M36.1787 13.8138
L35.5740 14.2371
" />
<path d="M36.1787 14.5395
L34.9087 14.5395
" />
<path d="M34.9087 14.5395
L34.9087 14.0557
" />
<path d="M34.9087 14.0557
L34.9692 13.9347
" />
<path d="M34.9692 13.9347
L35.0297 13.8742
" />
<path d="M35.0297 13.8742
L35.1506 13.8138
" />
<path d="M35.1506 13.8138
L35.3321 13.8138
" />
<path d="M35.3321 13.8138
L35.4530 13.8742
" />
<path d="M35.4530 13.8742
L35.5135 13.9347
" />
<path d="M35.5135 13.9347
L35.5740 14.0557
" />
<path d="M35.5740 14.0557
L35.5740 14.5395
" />
<path d="M36.2997 13.5719
L36.2997 12.6042
" />
<path d="M35.8159 12.3623
L35.8159 11.7576
" />
<path d="M36.1787 12.4833
L34.9087 12.0600
" />
<path d="M34.9087 12.0600
L36.1787 11.6366
" />
<path d="M36.1787 11.2133
L35.3321 11.2133
" />
<path d="M35.5740 11.2133
L35.4530 11.1528
" />
<path d="M35.4530 11.1528
L35.3925 11.0923
" />
<path d="M35.3925 11.0923
L35.3321 10.9714
" />
<path d="M35.3321 10.9714
L35.3321 10.8504
" />
<path d="M36.1787 10.4271
L35.3321 10.4271
" />
<path d="M35.5740 10.4271
L35.4530 10.3666
" />
<path d="M35.4530 10.3666
L35.3925 10.3061
" />
<path d="M35.3925 10.3061
L35.3321 10.1852
" />
<path d="M35.3321 10.1852
L35.3321 10.0642
" />
<path d="M36.1787 9.0966
L35.5135 9.0966
" />
<path d="M35.5135 9.0966
L35.3925 9.1571
" />
<path d="M35.3925 9.1571
L35.3321 9.2780
" />
<path d="M35.3321 9.2780
L35.3321 9.5199
" />
<path d="M35.3321 9.5199
L35.3925 9.6409
" />
<path d="M36.1183 9.0966
L36.1787 9.2175
" />
<path d="M36.1787 9.2175
L36.1787 9.5199
" />
<path d="M36.1787 9.5199
L36.1183 9.6409
" />
<path d="M36.1183 9.6409
L35.9973 9.7013
" />
<path d="M35.9973 9.7013
L35.8763 9.7013
" />
<path d="M35.8763 9.7013
L35.7554 9.6409
" />
<path d="M35.7554 9.6409
L35.6949 9.5199
" />
<path d="M35.6949 9.5199
L35.6949 9.2175
" />
<path d="M35.6949 9.2175
L35.6344 9.0966
" />
<path d="M35.3321 8.6128
L36.1787 8.3104
" />
<path d="M35.3321 8.0081
L36.1787 8.3104
" />
<path d="M36.1787 8.3104
L36.4811 8.4314
" />
<path d="M36.4811 8.4314
L36.5416 8.4919
" />
<path d="M36.5416 8.4919
L36.6021 8.6128
" />
<path d="M36.2997 7.8267
L36.2997 6.8590
" />
<path d="M36.1183 6.6171
L36.1787 6.4357
" />
<path d="M36.1787 6.4357
L36.1787 6.1333
" />
<path d="M36.1787 6.1333
L36.1183 6.0124
" />
<path d="M36.1183 6.0124
L36.0578 5.9519
" />
<path d="M36.0578 5.9519
L35.9368 5.8914
" />
<path d="M35.9368 5.8914
L35.8159 5.8914
" />
<path d="M35.8159 5.8914
L35.6949 5.9519
" />
<path d="M35.6949 5.9519
L35.6344 6.0124
" />
<path d="M35.6344 6.0124
L35.5740 6.1333
" />
<path d="M35.5740 6.1333
L35.5135 6.3752
" />
<path d="M35.5135 6.3752
L35.4530 6.4962
" />
<path d="M35.4530 6.4962
L35.3925 6.5567
" />
<path d="M35.3925 6.5567
L35.2716 6.6171
" />
<path d="M35.2716 6.6171
L35.1506 6.6171
" />
<path d="M35.1506 6.6171
L35.0297 6.5567
" />
<path d="M35.0297 6.5567
L34.9692 6.4962
" />
<path d="M34.9692 6.4962
L34.9087 6.3752
" />
<path d="M34.9087 6.3752
L34.9087 6.0729
" />
<path d="M34.9087 6.0729
L34.9692 5.8914
" />
<path d="M36.1787 5.3472
L34.9087 5.3472
" />
<path d="M36.1787 4.7424
L34.9087 4.7424
" />
<path d="M34.9087 4.7424
L34.9087 4.2586
" />
<path d="M34.9087 4.2586
L34.9692 4.1376
" />
<path d="M34.9692 4.1376
L35.0297 4.0771
" />
<path d="M35.0297 4.0771
L35.1506 4.0167
" />
<path d="M35.1506 4.0167
L35.3321 4.0167
" />
<path d="M35.3321 4.0167
L35.4530 4.0771
" />
<path d="M35.4530 4.0771
L35.5135 4.1376
" />
<path d="M35.5135 4.1376
L35.5740 4.2586
" />
<path d="M35.5740 4.2586
L35.5740 4.7424
" />
<path d="M34.9087 3.5933
L34.9087 2.7467
" />
<path d="M34.9087 2.7467
L36.1787 3.2909
" />
</g><text x="26.0662" y="15.5979"
textLength="43.4438" font-size="1.6933" lengthAdjust="spacingAndGlyphs"
text-anchor="middle" opacity="0">http://www.vishay.com/docs/31509/csc.pdf</text>
<g class="stroked-text"><desc>http://www.vishay.com/docs/31509/csc.pdf</desc>
<path d="M4.7181 15.5504
L4.7181 14.2804
" />
<path d="M5.2624 15.5504
L5.2624 14.8852
" />
<path d="M5.2624 14.8852
L5.2019 14.7642
" />
<path d="M5.2019 14.7642
L5.0810 14.7038
" />
<path d="M5.0810 14.7038
L4.8996 14.7038
" />
<path d="M4.8996 14.7038
L4.7786 14.7642
" />
<path d="M4.7786 14.7642
L4.7181 14.8247
" />
<path d="M5.6857 14.7038
L6.1695 14.7038
" />
<path d="M5.8671 14.2804
L5.8671 15.3690
" />
<path d="M5.8671 15.3690
L5.9276 15.4900
" />
<path d="M5.9276 15.4900
L6.0486 15.5504
" />
<path d="M6.0486 15.5504
L6.1695 15.5504
" />
<path d="M6.4114 14.7038
L6.8952 14.7038
" />
<path d="M6.5928 14.2804
L6.5928 15.3690
" />
<path d="M6.5928 15.3690
L6.6533 15.4900
" />
<path d="M6.6533 15.4900
L6.7743 15.5504
" />
<path d="M6.7743 15.5504
L6.8952 15.5504
" />
<path d="M7.3185 14.7038
L7.3185 15.9738
" />
<path d="M7.3185 14.7642
L7.4395 14.7038
" />
<path d="M7.4395 14.7038
L7.6814 14.7038
" />
<path d="M7.6814 14.7038
L7.8023 14.7642
" />
<path d="M7.8023 14.7642
L7.8628 14.8247
" />
<path d="M7.8628 14.8247
L7.9233 14.9457
" />
<path d="M7.9233 14.9457
L7.9233 15.3085
" />
<path d="M7.9233 15.3085
L7.8628 15.4295
" />
<path d="M7.8628 15.4295
L7.8023 15.4900
" />
<path d="M7.8023 15.4900
L7.6814 15.5504
" />
<path d="M7.6814 15.5504
L7.4395 15.5504
" />
<path d="M7.4395 15.5504
L7.3185 15.4900
" />
<path d="M8.4675 15.4295
L8.5280 15.4900
" />
<path d="M8.5280 15.4900
L8.4675 15.5504
" />
<path d="M8.4675 15.5504
L8.4071 15.4900
" />
<path d="M8.4071 15.4900
L8.4675 15.4295
" />
<path d="M8.4675 15.4295
L8.4675 15.5504
" />
<path d="M8.4675 14.7642
L8.5280 14.8247
" />
<path d="M8.5280 14.8247
L8.4675 14.8852
" />
<path d="M8.4675 14.8852
L8.4071 14.8247
" />
<path d="M8.4071 14.8247
L8.4675 14.7642
" />
<path d="M8.4675 14.7642
L8.4675 14.8852
" />
<path d="M9.9795 14.2200
L8.8909 15.8528
" />
<path d="M11.3100 14.2200
L10.2214 15.8528
" />
<path d="M11.6124 14.7038
L11.8543 15.5504
" />
<path d="M11.8543 15.5504
L12.0962 14.9457
" />
<path d="M12.0962 14.9457
L12.3381 15.5504
" />
<path d="M12.3381 15.5504
L12.5800 14.7038
" />
<path d="M12.9429 14.7038
L13.1848 15.5504
" />
<path d="M13.1848 15.5504
L13.4267 14.9457
" />
<path d="M13.4267 14.9457
L13.6686 15.5504
" />
<path d="M13.6686 15.5504
L13.9105 14.7038
" />
<path d="M14.2734 14.7038
L14.5153 15.5504
" />
<path d="M14.5153 15.5504
L14.7572 14.9457
" />
<path d="M14.7572 14.9457
L14.9991 15.5504
" />
<path d="M14.9991 15.5504
L15.2410 14.7038
" />
<path d="M15.7248 15.4295
L15.7853 15.4900
" />
<path d="M15.7853 15.4900
L15.7248 15.5504
" />
<path d="M15.7248 15.5504
L15.6644 15.4900
" />
<path d="M15.6644 15.4900
L15.7248 15.4295
" />
<path d="M15.7248 15.4295
L15.7248 15.5504
" />
<path d="M16.2087 14.7038
L16.5111 15.5504
" />
<path d="M16.5111 15.5504
L16.8134 14.7038
" />
<path d="M17.2972 15.5504
L17.2972 14.7038
" />
<path d="M17.2972 14.2804
L17.2368 14.3409
" />
<path d="M17.2368 14.3409
L17.2972 14.4014
" />
<path d="M17.2972 14.4014
L17.3577 14.3409
" />
<path d="M17.3577 14.3409
L17.2972 14.2804
" />
<path d="M17.2972 14.2804
L17.2972 14.4014
" />
<path d="M17.8416 15.4900
L17.9625 15.5504
" />
<path d="M17.9625 15.5504
L18.2044 15.5504
" />
<path d="M18.2044 15.5504
L18.3254 15.4900
" />
<path d="M18.3254 15.4900
L18.3858 15.3690
" />
<path d="M18.3858 15.3690
L18.3858 15.3085
" />
<path d="M18.3858 15.3085
L18.3254 15.1876
" />
<path d="M18.3254 15.1876
L18.2044 15.1271
" />
<path d="M18.2044 15.1271
L18.0230 15.1271
" />
<path d="M18.0230 15.1271
L17.9020 15.0666
" />
<path d="M17.9020 15.0666
L17.8416 14.9457
" />
<path d="M17.8416 14.9457
L17.8416 14.8852
" />
<path d="M17.8416 14.8852
L17.9020 14.7642
" />
<path d="M17.9020 14.7642
L18.0230 14.7038
" />
<path d="M18.0230 14.7038
L18.2044 14.7038
" />
<path d="M18.2044 14.7038
L18.3254 14.7642
" />
<path d="M18.9301 15.5504
L18.9301 14.2804
" />
<path d="M19.4744 15.5504
L19.4744 14.8852
" />
<path d="M19.4744 14.8852
L19.4139 14.7642
" />
<path d="M19.4139 14.7642
L19.2930 14.7038
" />
<path d="M19.2930 14.7038
L19.1116 14.7038
" />
<path d="M19.1116 14.7038
L18.9906 14.7642
" />
<path d="M18.9906 14.7642
L18.9301 14.8247
" />
<path d="M20.6234 15.5504
L20.6234 14.8852
" />
<path d="M20.6234 14.8852
L20.5629 14.7642
" />
<path d="M20.5629 14.7642
L20.4420 14.7038
" />
<path d="M20.4420 14.7038
L20.2001 14.7038
" />
<path d="M20.2001 14.7038
L20.0791 14.7642
" />
<path d="M20.6234 15.4900
L20.5025 15.5504
" />
<path d="M20.5025 15.5504
L20.2001 15.5504
" />
<path d="M20.2001 15.5504
L20.0791 15.4900
" />
<path d="M20.0791 15.4900
L20.0187 15.3690
" />
<path d="M20.0187 15.3690
L20.0187 15.2480
" />
<path d="M20.0187 15.2480
L20.0791 15.1271
" />
<path d="M20.0791 15.1271
L20.2001 15.0666
" />
<path d="M20.2001 15.0666
L20.5025 15.0666
" />
<path d="M20.5025 15.0666
L20.6234 15.0061
" />
<path d="M21.1072 14.7038
L21.4096 15.5504
" />
<path d="M21.7119 14.7038
L21.4096 15.5504
" />
<path d="M21.4096 15.5504
L21.2886 15.8528
" />
<path d="M21.2886 15.8528
L21.2281 15.9133
" />
<path d="M21.2281 15.9133
L21.1072 15.9738
" />
<path d="M22.1957 15.4295
L22.2562 15.4900
" />
<path d="M22.2562 15.4900
L22.1957 15.5504
" />
<path d="M22.1957 15.5504
L22.1353 15.4900
" />
<path d="M22.1353 15.4900
L22.1957 15.4295
" />
<path d="M22.1957 15.4295
L22.1957 15.5504
" />
<path d="M23.3448 15.4900
L23.2239 15.5504
" />
<path d="M23.2239 15.5504
L22.9820 15.5504
" />
<path d="M22.9820 15.5504
L22.8610 15.4900
" />
<path d="M22.8610 15.4900
L22.8005 15.4295
" />
<path d="M22.8005 15.4295
L22.7401 15.3085
" />
<path d="M22.7401 15.3085
L22.7401 14.9457
" />
<path d="M22.7401 14.9457
L22.8005 14.8247
" />
<path d="M22.8005 14.8247
L22.8610 14.7642
" />
<path d="M22.8610 14.7642
L22.9820 14.7038
" />
<path d="M22.9820 14.7038
L23.2239 14.7038
" />
<path d="M23.2239 14.7038
L23.3448 14.7642
" />
<path d="M24.0706 15.5504
L23.9496 15.4900
" />
<path d="M23.9496 15.4900
L23.8891 15.4295
" />
<path d="M23.8891 15.4295
L23.8287 15.3085
" />
<path d="M23.8287 15.3085
L23.8287 14.9457
" />
<path d="M23.8287 14.9457
L23.8891 14.8247
" />
<path d="M23.8891 14.8247
L23.9496 14.7642
" />
<path d="M23.9496 14.7642
L24.0706 14.7038
" />
<path d="M24.0706 14.7038
L24.2520 14.7038
" />
<path d="M24.2520 14.7038
L24.3729 14.7642
" />
<path d="M24.3729 14.7642
L24.4334 14.8247
" />
<path d="M24.4334 14.8247
L24.4939 14.9457
" />
<path d="M24.4939 14.9457
L24.4939 15.3085
" />
<path d="M24.4939 15.3085
L24.4334 15.4295
" />
<path d="M24.4334 15.4295
L24.3729 15.4900
" />
<path d="M24.3729 15.4900
L24.2520 15.5504
" />
<path d="M24.2520 15.5504
L24.0706 15.5504
" />
<path d="M25.0381 15.5504
L25.0381 14.7038
" />
<path d="M25.0381 14.8247
L25.0986 14.7642
" />
<path d="M25.0986 14.7642
L25.2196 14.7038
" />
<path d="M25.2196 14.7038
L25.4010 14.7038
" />
<path d="M25.4010 14.7038
L25.5219 14.7642
" />
<path d="M25.5219 14.7642
L25.5824 14.8852
" />
<path d="M25.5824 14.8852
L25.5824 15.5504
" />
<path d="M25.5824 14.8852
L25.6429 14.7642
" />
<path d="M25.6429 14.7642
L25.7638 14.7038
" />
<path d="M25.7638 14.7038
L25.9453 14.7038
" />
<path d="M25.9453 14.7038
L26.0662 14.7642
" />
<path d="M26.0662 14.7642
L26.1267 14.8852
" />
<path d="M26.1267 14.8852
L26.1267 15.5504
" />
<path d="M27.6386 14.2200
L26.5500 15.8528
" />
<path d="M28.6062 15.5504
L28.6062 14.2804
" />
<path d="M28.6062 15.4900
L28.4853 15.5504
" />
<path d="M28.4853 15.5504
L28.2434 15.5504
" />
<path d="M28.2434 15.5504
L28.1224 15.4900
" />
<path d="M28.1224 15.4900
L28.0619 15.4295
" />
<path d="M28.0619 15.4295
L28.0015 15.3085
" />
<path d="M28.0015 15.3085
L28.0015 14.9457
" />
<path d="M28.0015 14.9457
L28.0619 14.8247
" />
<path d="M28.0619 14.8247
L28.1224 14.7642
" />
<path d="M28.1224 14.7642
L28.2434 14.7038
" />
<path d="M28.2434 14.7038
L28.4853 14.7038
" />
<path d="M28.4853 14.7038
L28.6062 14.7642
" />
<path d="M29.3924 15.5504
L29.2714 15.4900
" />
<path d="M29.2714 15.4900
L29.2109 15.4295
" />
<path d="M29.2109 15.4295
L29.1505 15.3085
" />
<path d="M29.1505 15.3085
L29.1505 14.9457
" />
<path d="M29.1505 14.9457
L29.2109 14.8247
" />
<path d="M29.2109 14.8247
L29.2714 14.7642
" />
<path d="M29.2714 14.7642
L29.3924 14.7038
" />
<path d="M29.3924 14.7038
L29.5738 14.7038
" />
<path d="M29.5738 14.7038
L29.6947 14.7642
" />
<path d="M29.6947 14.7642
L29.7552 14.8247
" />
<path d="M29.7552 14.8247
L29.8157 14.9457
" />
<path d="M29.8157 14.9457
L29.8157 15.3085
" />
<path d="M29.8157 15.3085
L29.7552 15.4295
" />
<path d="M29.7552 15.4295
L29.6947 15.4900
" />
<path d="M29.6947 15.4900
L29.5738 15.5504
" />
<path d="M29.5738 15.5504
L29.3924 15.5504
" />
<path d="M30.9042 15.4900
L30.7833 15.5504
" />
<path d="M30.7833 15.5504
L30.5414 15.5504
" />
<path d="M30.5414 15.5504
L30.4204 15.4900
" />
<path d="M30.4204 15.4900
L30.3599 15.4295
" />
<path d="M30.3599 15.4295
L30.2995 15.3085
" />
<path d="M30.2995 15.3085
L30.2995 14.9457
" />
<path d="M30.2995 14.9457
L30.3599 14.8247
" />
<path d="M30.3599 14.8247
L30.4204 14.7642
" />
<path d="M30.4204 14.7642
L30.5414 14.7038
" />
<path d="M30.5414 14.7038
L30.7833 14.7038
" />
<path d="M30.7833 14.7038
L30.9042 14.7642
" />
<path d="M31.3881 15.4900
L31.5090 15.5504
" />
<path d="M31.5090 15.5504
L31.7509 15.5504
" />
<path d="M31.7509 15.5504
L31.8719 15.4900
" />
<path d="M31.8719 15.4900
L31.9323 15.3690
" />
<path d="M31.9323 15.3690
L31.9323 15.3085
" />
<path d="M31.9323 15.3085
L31.8719 15.1876
" />
<path d="M31.8719 15.1876
L31.7509 15.1271
" />
<path d="M31.7509 15.1271
L31.5695 15.1271
" />
<path d="M31.5695 15.1271
L31.4485 15.0666
" />
<path d="M31.4485 15.0666
L31.3881 14.9457
" />
<path d="M31.3881 14.9457
L31.3881 14.8852
" />
<path d="M31.3881 14.8852
L31.4485 14.7642
" />
<path d="M31.4485 14.7642
L31.5695 14.7038
" />
<path d="M31.5695 14.7038
L31.7509 14.7038
" />
<path d="M31.7509 14.7038
L31.8719 14.7642
" />
<path d="M33.3838 14.2200
L32.2952 15.8528
" />
<path d="M33.6862 14.2804
L34.4724 14.2804
" />
<path d="M34.4724 14.2804
L34.0490 14.7642
" />
<path d="M34.0490 14.7642
L34.2305 14.7642
" />
<path d="M34.2305 14.7642
L34.3514 14.8247
" />
<path d="M34.3514 14.8247
L34.4119 14.8852
" />
<path d="M34.4119 14.8852
L34.4724 15.0061
" />
<path d="M34.4724 15.0061
L34.4724 15.3085
" />
<path d="M34.4724 15.3085
L34.4119 15.4295
" />
<path d="M34.4119 15.4295
L34.3514 15.4900
" />
<path d="M34.3514 15.4900
L34.2305 15.5504
" />
<path d="M34.2305 15.5504
L33.8676 15.5504
" />
<path d="M33.8676 15.5504
L33.7467 15.4900
" />
<path d="M33.7467 15.4900
L33.6862 15.4295
" />
<path d="M35.6819 15.5504
L34.9562 15.5504
" />
<path d="M35.3190 15.5504
L35.3190 14.2804
" />
<path d="M35.3190 14.2804
L35.1981 14.4619
" />
<path d="M35.1981 14.4619
L35.0771 14.5828
" />
<path d="M35.0771 14.5828
L34.9562 14.6433
" />
<path d="M36.8309 14.2804
L36.2261 14.2804
" />
<path d="M36.2261 14.2804
L36.1657 14.8852
" />
<path d="M36.1657 14.8852
L36.2261 14.8247
" />
<path d="M36.2261 14.8247
L36.3471 14.7642
" />
<path d="M36.3471 14.7642
L36.6495 14.7642
" />
<path d="M36.6495 14.7642
L36.7704 14.8247
" />
<path d="M36.7704 14.8247
L36.8309 14.8852
" />
<path d="M36.8309 14.8852
L36.8914 15.0061
" />
<path d="M36.8914 15.0061
L36.8914 15.3085
" />
<path d="M36.8914 15.3085
L36.8309 15.4295
" />
<path d="M36.8309 15.4295
L36.7704 15.4900
" />
<path d="M36.7704 15.4900
L36.6495 15.5504
" />
<path d="M36.6495 15.5504
L36.3471 15.5504
" />
<path d="M36.3471 15.5504
L36.2261 15.4900
" />
<path d="M36.2261 15.4900
L36.1657 15.4295
" />
<path d="M37.6775 14.2804
L37.7985 14.2804
" />
<path d="M37.7985 14.2804
L37.9194 14.3409
" />
<path d="M37.9194 14.3409
L37.9799 14.4014
" />
<path d="M37.9799 14.4014
L38.0404 14.5223
" />
<path d="M38.0404 14.5223
L38.1009 14.7642
" />
<path d="M38.1009 14.7642
L38.1009 15.0666
" />
<path d="M38.1009 15.0666
L38.0404 15.3085
" />
<path d="M38.0404 15.3085
L37.9799 15.4295
" />
<path d="M37.9799 15.4295
L37.9194 15.4900
" />
<path d="M37.9194 15.4900
L37.7985 15.5504
" />
<path d="M37.7985 15.5504
L37.6775 15.5504
" />
<path d="M37.6775 15.5504
L37.5566 15.4900
" />
<path d="M37.5566 15.4900
L37.4961 15.4295
" />
<path d="M37.4961 15.4295
L37.4356 15.3085
" />
<path d="M37.4356 15.3085
L37.3752 15.0666
" />
<path d="M37.3752 15.0666
L37.3752 14.7642
" />
<path d="M37.3752 14.7642
L37.4356 14.5223
" />
<path d="M37.4356 14.5223
L37.4961 14.4014
" />
<path d="M37.4961 14.4014
L37.5566 14.3409
" />
<path d="M37.5566 14.3409
L37.6775 14.2804
" />
<path d="M38.7056 15.5504
L38.9475 15.5504
" />
<path d="M38.9475 15.5504
L39.0685 15.4900
" />
<path d="M39.0685 15.4900
L39.1289 15.4295
" />
<path d="M39.1289 15.4295
L39.2499 15.2480
" />
<path d="M39.2499 15.2480
L39.3104 15.0061
" />
<path d="M39.3104 15.0061
L39.3104 14.5223
" />
<path d="M39.3104 14.5223
L39.2499 14.4014
" />
<path d="M39.2499 14.4014
L39.1894 14.3409
" />
<path d="M39.1894 14.3409
L39.0685 14.2804
" />
<path d="M39.0685 14.2804
L38.8266 14.2804
" />
<path d="M38.8266 14.2804
L38.7056 14.3409
" />
<path d="M38.7056 14.3409
L38.6451 14.4014
" />
<path d="M38.6451 14.4014
L38.5847 14.5223
" />
<path d="M38.5847 14.5223
L38.5847 14.8247
" />
<path d="M38.5847 14.8247
L38.6451 14.9457
" />
<path d="M38.6451 14.9457
L38.7056 15.0061
" />
<path d="M38.7056 15.0061
L38.8266 15.0666
" />
<path d="M38.8266 15.0666
L39.0685 15.0666
" />
<path d="M39.0685 15.0666
L39.1894 15.0061
" />
<path d="M39.1894 15.0061
L39.2499 14.9457
" />
<path d="M39.2499 14.9457
L39.3104 14.8247
" />
<path d="M40.7618 14.2200
L39.6732 15.8528
" />
<path d="M41.7294 15.4900
L41.6085 15.5504
" />
<path d="M41.6085 15.5504
L41.3666 15.5504
" />
<path d="M41.3666 15.5504
L41.2456 15.4900
" />
<path d="M41.2456 15.4900
L41.1851 15.4295
" />
<path d="M41.1851 15.4295
L41.1247 15.3085
" />
<path d="M41.1247 15.3085
L41.1247 14.9457
" />
<path d="M41.1247 14.9457
L41.1851 14.8247
" />
<path d="M41.1851 14.8247
L41.2456 14.7642
" />
<path d="M41.2456 14.7642
L41.3666 14.7038
" />
<path d="M41.3666 14.7038
L41.6085 14.7038
" />
<path d="M41.6085 14.7038
L41.7294 14.7642
" />
<path d="M42.2133 15.4900
L42.3342 15.5504
" />
<path d="M42.3342 15.5504
L42.5761 15.5504
" />
<path d="M42.5761 15.5504
L42.6971 15.4900
" />
<path d="M42.6971 15.4900
L42.7575 15.3690
" />
<path d="M42.7575 15.3690
L42.7575 15.3085
" />
<path d="M42.7575 15.3085
L42.6971 15.1876
" />
<path d="M42.6971 15.1876
L42.5761 15.1271
" />
<path d="M42.5761 15.1271
L42.3947 15.1271
" />
<path d="M42.3947 15.1271
L42.2737 15.0666
" />
<path d="M42.2737 15.0666
L42.2133 14.9457
" />
<path d="M42.2133 14.9457
L42.2133 14.8852
" />
<path d="M42.2133 14.8852
L42.2737 14.7642
" />
<path d="M42.2737 14.7642
L42.3947 14.7038
" />
<path d="M42.3947 14.7038
L42.5761 14.7038
" />
<path d="M42.5761 14.7038
L42.6971 14.7642
" />
<path d="M43.8461 15.4900
L43.7252 15.5504
" />
<path d="M43.7252 15.5504
L43.4833 15.5504
" />
<path d="M43.4833 15.5504
L43.3623 15.4900
" />
<path d="M43.3623 15.4900
L43.3018 15.4295
" />
<path d="M43.3018 15.4295
L43.2414 15.3085
" />
<path d="M43.2414 15.3085
L43.2414 14.9457
" />
<path d="M43.2414 14.9457
L43.3018 14.8247
" />
<path d="M43.3018 14.8247
L43.3623 14.7642
" />
<path d="M43.3623 14.7642
L43.4833 14.7038
" />
<path d="M43.4833 14.7038
L43.7252 14.7038
" />
<path d="M43.7252 14.7038
L43.8461 14.7642
" />
<path d="M44.3904 15.4295
L44.4509 15.4900
" />
<path d="M44.4509 15.4900
L44.3904 15.5504
" />
<path d="M44.3904 15.5504
L44.3300 15.4900
" />
<path d="M44.3300 15.4900
L44.3904 15.4295
" />
<path d="M44.3904 15.4295
L44.3904 15.5504
" />
<path d="M44.9952 14.7038
L44.9952 15.9738
" />
<path d="M44.9952 14.7642
L45.1162 14.7038
" />
<path d="M45.1162 14.7038
L45.3581 14.7038
" />
<path d="M45.3581 14.7038
L45.4790 14.7642
" />
<path d="M45.4790 14.7642
L45.5395 14.8247
" />
<path d="M45.5395 14.8247
L45.6000 14.9457
" />
<path d="M45.6000 14.9457
L45.6000 15.3085
" />
<path d="M45.6000 15.3085
L45.5395 15.4295
" />
<path d="M45.5395 15.4295
L45.4790 15.4900
" />
<path d="M45.4790 15.4900
L45.3581 15.5504
" />
<path d="M45.3581 15.5504
L45.1162 15.5504
" />
<path d="M45.1162 15.5504
L44.9952 15.4900
" />
<path d="M46.6885 15.5504
L46.6885 14.2804
" />
<path d="M46.6885 15.4900
L46.5676 15.5504
" />
<path d="M46.5676 15.5504
L46.3257 15.5504
" />
<path d="M46.3257 15.5504
L46.2047 15.4900
" />
<path d="M46.2047 15.4900
L46.1442 15.4295
" />
<path d="M46.1442 15.4295
L46.0838 15.3085
" />
<path d="M46.0838 15.3085
L46.0838 14.9457
" />
<path d="M46.0838 14.9457
L46.1442 14.8247
" />
<path d="M46.1442 14.8247
L46.2047 14.7642
" />
<path d="M46.2047 14.7642
L46.3257 14.7038
" />
<path d="M46.3257 14.7038
L46.5676 14.7038
" />
<path d="M46.5676 14.7038
L46.6885 14.7642
" />
<path d="M47.1118 14.7038
L47.5956 14.7038
" />
<path d="M47.2932 15.5504
L47.2932 14.4619
" />
<path d="M47.2932 14.4619
L47.3537 14.3409
" />
<path d="M47.3537 14.3409
L47.4747 14.2804
" />
<path d="M47.4747 14.2804
L47.5956 14.2804
" />
</g></g> 
</svg>
