<?xml version="1.0" standalone="no"?>
 <!DOCTYPE svg PUBLIC "-//W3C//DTD SVG 1.1//EN" 
 "http://www.w3.org/Graphics/SVG/1.1/DTD/svg11.dtd"> 
<svg
  xmlns:svg="http://www.w3.org/2000/svg"
  xmlns="http://www.w3.org/2000/svg"
  xmlns:xlink="http://www.w3.org/1999/xlink"
  version="1.1"
  width="14.0208mm" height="123.9266mm" viewBox="0.0000 0.0000 14.0208 123.9266">
<title>SVG Image created as working.svg date 2023/08/01 19:42:31 </title>
  <desc>Image generated by Eeschema-SVG </desc>
<g style="fill:#000000; fill-opacity:1.0000;stroke:#000000; stroke-opacity:1.0000;
stroke-linecap:round; stroke-linejoin:round;"
 transform="translate(0 0) scale(1 1)">
</g>
<g style="fill:#840000; fill-opacity:0.0; 
stroke:#840000; stroke-width:0.0000; stroke-opacity:1; 
stroke-linecap:round; stroke-linejoin:round;">
</g>
<g style="fill:#FFFFC2; fill-opacity:0.0; 
stroke:#FFFFC2; stroke-width:0.0000; stroke-opacity:1; 
stroke-linecap:round; stroke-linejoin:round;">
</g>
<g style="fill:#FFFFC2; fill-opacity:1.0000; 
stroke:#FFFFC2; stroke-width:0.0000; stroke-opacity:1; 
stroke-linecap:round; stroke-linejoin:round;">
<rect x="5.746100" y="12.430200" width="2.540000" height="99.060000" rx="0.000000" />
</g>
<g style="fill:#840084; fill-opacity:1.0000; 
stroke:#840084; stroke-width:0.0000; stroke-opacity:1; 
stroke-linecap:round; stroke-linejoin:round;">
</g>
<g style="fill:#840000; fill-opacity:1.0000; 
stroke:#840000; stroke-width:0.0000; stroke-opacity:1; 
stroke-linecap:round; stroke-linejoin:round;">
</g>
<g style="fill:#840000; fill-opacity:0.0; 
stroke:#840000; stroke-width:0.1524; stroke-opacity:1; 
stroke-linecap:round; stroke-linejoin:round;">
<rect x="5.746100" y="110.093200" width="1.270000" height="0.254000" rx="0.000000" />
<rect x="5.746100" y="107.553200" width="1.270000" height="0.254000" rx="0.000000" />
<rect x="5.746100" y="105.013200" width="1.270000" height="0.254000" rx="0.000000" />
<rect x="5.746100" y="102.473200" width="1.270000" height="0.254000" rx="0.000000" />
<rect x="5.746100" y="99.933200" width="1.270000" height="0.254000" rx="0.000000" />
<rect x="5.746100" y="97.393200" width="1.270000" height="0.254000" rx="0.000000" />
<rect x="5.746100" y="94.853200" width="1.270000" height="0.254000" rx="0.000000" />
<rect x="5.746100" y="92.313200" width="1.270000" height="0.254000" rx="0.000000" />
<rect x="5.746100" y="89.773200" width="1.270000" height="0.254000" rx="0.000000" />
<rect x="5.746100" y="87.233200" width="1.270000" height="0.254000" rx="0.000000" />
<rect x="5.746100" y="84.693200" width="1.270000" height="0.254000" rx="0.000000" />
<rect x="5.746100" y="82.153200" width="1.270000" height="0.254000" rx="0.000000" />
<rect x="5.746100" y="79.613200" width="1.270000" height="0.254000" rx="0.000000" />
<rect x="5.746100" y="77.073200" width="1.270000" height="0.254000" rx="0.000000" />
<rect x="5.746100" y="74.533200" width="1.270000" height="0.254000" rx="0.000000" />
<rect x="5.746100" y="71.993200" width="1.270000" height="0.254000" rx="0.000000" />
<rect x="5.746100" y="69.453200" width="1.270000" height="0.254000" rx="0.000000" />
<rect x="5.746100" y="66.913200" width="1.270000" height="0.254000" rx="0.000000" />
<rect x="5.746100" y="64.373200" width="1.270000" height="0.254000" rx="0.000000" />
<rect x="5.746100" y="61.833200" width="1.270000" height="0.254000" rx="0.000000" />
<rect x="5.746100" y="59.293200" width="1.270000" height="0.254000" rx="0.000000" />
<rect x="5.746100" y="56.753200" width="1.270000" height="0.254000" rx="0.000000" />
<rect x="5.746100" y="54.213200" width="1.270000" height="0.254000" rx="0.000000" />
<rect x="5.746100" y="51.673200" width="1.270000" height="0.254000" rx="0.000000" />
<rect x="5.746100" y="49.133200" width="1.270000" height="0.254000" rx="0.000000" />
<rect x="5.746100" y="46.593200" width="1.270000" height="0.254000" rx="0.000000" />
<rect x="5.746100" y="44.053200" width="1.270000" height="0.254000" rx="0.000000" />
<rect x="5.746100" y="41.513200" width="1.270000" height="0.254000" rx="0.000000" />
<rect x="5.746100" y="38.973200" width="1.270000" height="0.254000" rx="0.000000" />
<rect x="5.746100" y="36.433200" width="1.270000" height="0.254000" rx="0.000000" />
<rect x="5.746100" y="33.893200" width="1.270000" height="0.254000" rx="0.000000" />
<rect x="5.746100" y="31.353200" width="1.270000" height="0.254000" rx="0.000000" />
<rect x="5.746100" y="28.813200" width="1.270000" height="0.254000" rx="0.000000" />
<rect x="5.746100" y="26.273200" width="1.270000" height="0.254000" rx="0.000000" />
<rect x="5.746100" y="23.733200" width="1.270000" height="0.254000" rx="0.000000" />
<rect x="5.746100" y="21.193200" width="1.270000" height="0.254000" rx="0.000000" />
<rect x="5.746100" y="18.653200" width="1.270000" height="0.254000" rx="0.000000" />
<rect x="5.746100" y="16.113200" width="1.270000" height="0.254000" rx="0.000000" />
<rect x="5.746100" y="13.573200" width="1.270000" height="0.254000" rx="0.000000" />
</g>
<g style="fill:#840000; fill-opacity:0.0; 
stroke:#840000; stroke-width:0.2540; stroke-opacity:1; 
stroke-linecap:round; stroke-linejoin:round;">
<rect x="5.746100" y="12.430200" width="2.540000" height="99.060000" rx="0.000000" />
</g>
<g style="fill:#840000; fill-opacity:0.0; 
stroke:#840000; stroke-width:0.1524; stroke-opacity:1; 
stroke-linecap:round; stroke-linejoin:round;">
<path d="M5.7461 13.7002
L1.9361 13.7002
" />
</g>
<g style="fill:#A90000; fill-opacity:0.0; 
stroke:#A90000; stroke-width:0.1524; stroke-opacity:1; 
stroke-linecap:round; stroke-linejoin:round;">
<text x="3.8411" y="13.4462"
textLength="1.3365" font-size="1.6933" lengthAdjust="spacingAndGlyphs"
text-anchor="middle" opacity="0">1</text>
<g class="stroked-text"><desc>1</desc>
<path d="M4.2040 13.2907
L3.4783 13.2907
" />
<path d="M3.8411 13.2907
L3.8411 12.0207
" />
<path d="M3.8411 12.0207
L3.7202 12.2022
" />
<path d="M3.7202 12.2022
L3.5992 12.3231
" />
<path d="M3.5992 12.3231
L3.4783 12.3836
" />
</g></g>
<g style="fill:#840000; fill-opacity:0.0; 
stroke:#840000; stroke-width:0.1524; stroke-opacity:1; 
stroke-linecap:round; stroke-linejoin:round;">
<path d="M5.7461 36.5602
L1.9361 36.5602
" />
</g>
<g style="fill:#A90000; fill-opacity:0.0; 
stroke:#A90000; stroke-width:0.1524; stroke-opacity:1; 
stroke-linecap:round; stroke-linejoin:round;">
<text x="3.8411" y="36.3062"
textLength="2.5460" font-size="1.6933" lengthAdjust="spacingAndGlyphs"
text-anchor="middle" opacity="0">10</text>
<g class="stroked-text"><desc>10</desc>
<path d="M3.5992 36.1507
L2.8735 36.1507
" />
<path d="M3.2363 36.1507
L3.2363 34.8807
" />
<path d="M3.2363 34.8807
L3.1154 35.0622
" />
<path d="M3.1154 35.0622
L2.9944 35.1831
" />
<path d="M2.9944 35.1831
L2.8735 35.2436
" />
<path d="M4.3853 34.8807
L4.5063 34.8807
" />
<path d="M4.5063 34.8807
L4.6272 34.9412
" />
<path d="M4.6272 34.9412
L4.6877 35.0017
" />
<path d="M4.6877 35.0017
L4.7482 35.1226
" />
<path d="M4.7482 35.1226
L4.8087 35.3645
" />
<path d="M4.8087 35.3645
L4.8087 35.6669
" />
<path d="M4.8087 35.6669
L4.7482 35.9088
" />
<path d="M4.7482 35.9088
L4.6877 36.0298
" />
<path d="M4.6877 36.0298
L4.6272 36.0903
" />
<path d="M4.6272 36.0903
L4.5063 36.1507
" />
<path d="M4.5063 36.1507
L4.3853 36.1507
" />
<path d="M4.3853 36.1507
L4.2644 36.0903
" />
<path d="M4.2644 36.0903
L4.2039 36.0298
" />
<path d="M4.2039 36.0298
L4.1434 35.9088
" />
<path d="M4.1434 35.9088
L4.0830 35.6669
" />
<path d="M4.0830 35.6669
L4.0830 35.3645
" />
<path d="M4.0830 35.3645
L4.1434 35.1226
" />
<path d="M4.1434 35.1226
L4.2039 35.0017
" />
<path d="M4.2039 35.0017
L4.2644 34.9412
" />
<path d="M4.2644 34.9412
L4.3853 34.8807
" />
</g></g>
<g style="fill:#840000; fill-opacity:0.0; 
stroke:#840000; stroke-width:0.1524; stroke-opacity:1; 
stroke-linecap:round; stroke-linejoin:round;">
<path d="M5.7461 39.1002
L1.9361 39.1002
" />
</g>
<g style="fill:#A90000; fill-opacity:0.0; 
stroke:#A90000; stroke-width:0.1524; stroke-opacity:1; 
stroke-linecap:round; stroke-linejoin:round;">
<text x="3.8411" y="38.8462"
textLength="2.5460" font-size="1.6933" lengthAdjust="spacingAndGlyphs"
text-anchor="middle" opacity="0">11</text>
<g class="stroked-text"><desc>11</desc>
<path d="M3.5992 38.6907
L2.8735 38.6907
" />
<path d="M3.2363 38.6907
L3.2363 37.4207
" />
<path d="M3.2363 37.4207
L3.1154 37.6022
" />
<path d="M3.1154 37.6022
L2.9944 37.7231
" />
<path d="M2.9944 37.7231
L2.8735 37.7836
" />
<path d="M4.8087 38.6907
L4.0830 38.6907
" />
<path d="M4.4458 38.6907
L4.4458 37.4207
" />
<path d="M4.4458 37.4207
L4.3249 37.6022
" />
<path d="M4.3249 37.6022
L4.2039 37.7231
" />
<path d="M4.2039 37.7231
L4.0830 37.7836
" />
</g></g>
<g style="fill:#840000; fill-opacity:0.0; 
stroke:#840000; stroke-width:0.1524; stroke-opacity:1; 
stroke-linecap:round; stroke-linejoin:round;">
<path d="M5.7461 41.6402
L1.9361 41.6402
" />
</g>
<g style="fill:#A90000; fill-opacity:0.0; 
stroke:#A90000; stroke-width:0.1524; stroke-opacity:1; 
stroke-linecap:round; stroke-linejoin:round;">
<text x="3.8411" y="41.3862"
textLength="2.5460" font-size="1.6933" lengthAdjust="spacingAndGlyphs"
text-anchor="middle" opacity="0">12</text>
<g class="stroked-text"><desc>12</desc>
<path d="M3.5992 41.2307
L2.8735 41.2307
" />
<path d="M3.2363 41.2307
L3.2363 39.9607
" />
<path d="M3.2363 39.9607
L3.1154 40.1422
" />
<path d="M3.1154 40.1422
L2.9944 40.2631
" />
<path d="M2.9944 40.2631
L2.8735 40.3236
" />
<path d="M4.0830 40.0817
L4.1434 40.0212
" />
<path d="M4.1434 40.0212
L4.2644 39.9607
" />
<path d="M4.2644 39.9607
L4.5668 39.9607
" />
<path d="M4.5668 39.9607
L4.6877 40.0212
" />
<path d="M4.6877 40.0212
L4.7482 40.0817
" />
<path d="M4.7482 40.0817
L4.8087 40.2026
" />
<path d="M4.8087 40.2026
L4.8087 40.3236
" />
<path d="M4.8087 40.3236
L4.7482 40.5050
" />
<path d="M4.7482 40.5050
L4.0225 41.2307
" />
<path d="M4.0225 41.2307
L4.8087 41.2307
" />
</g></g>
<g style="fill:#840000; fill-opacity:0.0; 
stroke:#840000; stroke-width:0.1524; stroke-opacity:1; 
stroke-linecap:round; stroke-linejoin:round;">
<path d="M5.7461 44.1802
L1.9361 44.1802
" />
</g>
<g style="fill:#A90000; fill-opacity:0.0; 
stroke:#A90000; stroke-width:0.1524; stroke-opacity:1; 
stroke-linecap:round; stroke-linejoin:round;">
<text x="3.8411" y="43.9262"
textLength="2.5460" font-size="1.6933" lengthAdjust="spacingAndGlyphs"
text-anchor="middle" opacity="0">13</text>
<g class="stroked-text"><desc>13</desc>
<path d="M3.5992 43.7707
L2.8735 43.7707
" />
<path d="M3.2363 43.7707
L3.2363 42.5007
" />
<path d="M3.2363 42.5007
L3.1154 42.6822
" />
<path d="M3.1154 42.6822
L2.9944 42.8031
" />
<path d="M2.9944 42.8031
L2.8735 42.8636
" />
<path d="M4.0225 42.5007
L4.8087 42.5007
" />
<path d="M4.8087 42.5007
L4.3853 42.9845
" />
<path d="M4.3853 42.9845
L4.5668 42.9845
" />
<path d="M4.5668 42.9845
L4.6877 43.0450
" />
<path d="M4.6877 43.0450
L4.7482 43.1055
" />
<path d="M4.7482 43.1055
L4.8087 43.2264
" />
<path d="M4.8087 43.2264
L4.8087 43.5288
" />
<path d="M4.8087 43.5288
L4.7482 43.6498
" />
<path d="M4.7482 43.6498
L4.6877 43.7103
" />
<path d="M4.6877 43.7103
L4.5668 43.7707
" />
<path d="M4.5668 43.7707
L4.2039 43.7707
" />
<path d="M4.2039 43.7707
L4.0830 43.7103
" />
<path d="M4.0830 43.7103
L4.0225 43.6498
" />
</g></g>
<g style="fill:#840000; fill-opacity:0.0; 
stroke:#840000; stroke-width:0.1524; stroke-opacity:1; 
stroke-linecap:round; stroke-linejoin:round;">
<path d="M5.7461 46.7202
L1.9361 46.7202
" />
</g>
<g style="fill:#A90000; fill-opacity:0.0; 
stroke:#A90000; stroke-width:0.1524; stroke-opacity:1; 
stroke-linecap:round; stroke-linejoin:round;">
<text x="3.8411" y="46.4662"
textLength="2.5460" font-size="1.6933" lengthAdjust="spacingAndGlyphs"
text-anchor="middle" opacity="0">14</text>
<g class="stroked-text"><desc>14</desc>
<path d="M3.5992 46.3107
L2.8735 46.3107
" />
<path d="M3.2363 46.3107
L3.2363 45.0407
" />
<path d="M3.2363 45.0407
L3.1154 45.2222
" />
<path d="M3.1154 45.2222
L2.9944 45.3431
" />
<path d="M2.9944 45.3431
L2.8735 45.4036
" />
<path d="M4.6877 45.4641
L4.6877 46.3107
" />
<path d="M4.3853 44.9803
L4.0830 45.8874
" />
<path d="M4.0830 45.8874
L4.8691 45.8874
" />
</g></g>
<g style="fill:#840000; fill-opacity:0.0; 
stroke:#840000; stroke-width:0.1524; stroke-opacity:1; 
stroke-linecap:round; stroke-linejoin:round;">
<path d="M5.7461 49.2602
L1.9361 49.2602
" />
</g>
<g style="fill:#A90000; fill-opacity:0.0; 
stroke:#A90000; stroke-width:0.1524; stroke-opacity:1; 
stroke-linecap:round; stroke-linejoin:round;">
<text x="3.8411" y="49.0062"
textLength="2.5460" font-size="1.6933" lengthAdjust="spacingAndGlyphs"
text-anchor="middle" opacity="0">15</text>
<g class="stroked-text"><desc>15</desc>
<path d="M3.5992 48.8507
L2.8735 48.8507
" />
<path d="M3.2363 48.8507
L3.2363 47.5807
" />
<path d="M3.2363 47.5807
L3.1154 47.7622
" />
<path d="M3.1154 47.7622
L2.9944 47.8831
" />
<path d="M2.9944 47.8831
L2.8735 47.9436
" />
<path d="M4.7482 47.5807
L4.1434 47.5807
" />
<path d="M4.1434 47.5807
L4.0830 48.1855
" />
<path d="M4.0830 48.1855
L4.1434 48.1250
" />
<path d="M4.1434 48.1250
L4.2644 48.0645
" />
<path d="M4.2644 48.0645
L4.5668 48.0645
" />
<path d="M4.5668 48.0645
L4.6877 48.1250
" />
<path d="M4.6877 48.1250
L4.7482 48.1855
" />
<path d="M4.7482 48.1855
L4.8087 48.3064
" />
<path d="M4.8087 48.3064
L4.8087 48.6088
" />
<path d="M4.8087 48.6088
L4.7482 48.7298
" />
<path d="M4.7482 48.7298
L4.6877 48.7903
" />
<path d="M4.6877 48.7903
L4.5668 48.8507
" />
<path d="M4.5668 48.8507
L4.2644 48.8507
" />
<path d="M4.2644 48.8507
L4.1434 48.7903
" />
<path d="M4.1434 48.7903
L4.0830 48.7298
" />
</g></g>
<g style="fill:#840000; fill-opacity:0.0; 
stroke:#840000; stroke-width:0.1524; stroke-opacity:1; 
stroke-linecap:round; stroke-linejoin:round;">
<path d="M5.7461 51.8002
L1.9361 51.8002
" />
</g>
<g style="fill:#A90000; fill-opacity:0.0; 
stroke:#A90000; stroke-width:0.1524; stroke-opacity:1; 
stroke-linecap:round; stroke-linejoin:round;">
<text x="3.8411" y="51.5462"
textLength="2.5460" font-size="1.6933" lengthAdjust="spacingAndGlyphs"
text-anchor="middle" opacity="0">16</text>
<g class="stroked-text"><desc>16</desc>
<path d="M3.5992 51.3907
L2.8735 51.3907
" />
<path d="M3.2363 51.3907
L3.2363 50.1207
" />
<path d="M3.2363 50.1207
L3.1154 50.3022
" />
<path d="M3.1154 50.3022
L2.9944 50.4231
" />
<path d="M2.9944 50.4231
L2.8735 50.4836
" />
<path d="M4.6877 50.1207
L4.4458 50.1207
" />
<path d="M4.4458 50.1207
L4.3249 50.1812
" />
<path d="M4.3249 50.1812
L4.2644 50.2417
" />
<path d="M4.2644 50.2417
L4.1434 50.4231
" />
<path d="M4.1434 50.4231
L4.0830 50.6650
" />
<path d="M4.0830 50.6650
L4.0830 51.1488
" />
<path d="M4.0830 51.1488
L4.1434 51.2698
" />
<path d="M4.1434 51.2698
L4.2039 51.3303
" />
<path d="M4.2039 51.3303
L4.3249 51.3907
" />
<path d="M4.3249 51.3907
L4.5668 51.3907
" />
<path d="M4.5668 51.3907
L4.6877 51.3303
" />
<path d="M4.6877 51.3303
L4.7482 51.2698
" />
<path d="M4.7482 51.2698
L4.8087 51.1488
" />
<path d="M4.8087 51.1488
L4.8087 50.8464
" />
<path d="M4.8087 50.8464
L4.7482 50.7255
" />
<path d="M4.7482 50.7255
L4.6877 50.6650
" />
<path d="M4.6877 50.6650
L4.5668 50.6045
" />
<path d="M4.5668 50.6045
L4.3249 50.6045
" />
<path d="M4.3249 50.6045
L4.2039 50.6650
" />
<path d="M4.2039 50.6650
L4.1434 50.7255
" />
<path d="M4.1434 50.7255
L4.0830 50.8464
" />
</g></g>
<g style="fill:#840000; fill-opacity:0.0; 
stroke:#840000; stroke-width:0.1524; stroke-opacity:1; 
stroke-linecap:round; stroke-linejoin:round;">
<path d="M5.7461 54.3402
L1.9361 54.3402
" />
</g>
<g style="fill:#A90000; fill-opacity:0.0; 
stroke:#A90000; stroke-width:0.1524; stroke-opacity:1; 
stroke-linecap:round; stroke-linejoin:round;">
<text x="3.8411" y="54.0862"
textLength="2.5460" font-size="1.6933" lengthAdjust="spacingAndGlyphs"
text-anchor="middle" opacity="0">17</text>
<g class="stroked-text"><desc>17</desc>
<path d="M3.5992 53.9307
L2.8735 53.9307
" />
<path d="M3.2363 53.9307
L3.2363 52.6607
" />
<path d="M3.2363 52.6607
L3.1154 52.8422
" />
<path d="M3.1154 52.8422
L2.9944 52.9631
" />
<path d="M2.9944 52.9631
L2.8735 53.0236
" />
<path d="M4.0225 52.6607
L4.8691 52.6607
" />
<path d="M4.8691 52.6607
L4.3249 53.9307
" />
</g></g>
<g style="fill:#840000; fill-opacity:0.0; 
stroke:#840000; stroke-width:0.1524; stroke-opacity:1; 
stroke-linecap:round; stroke-linejoin:round;">
<path d="M5.7461 56.8802
L1.9361 56.8802
" />
</g>
<g style="fill:#A90000; fill-opacity:0.0; 
stroke:#A90000; stroke-width:0.1524; stroke-opacity:1; 
stroke-linecap:round; stroke-linejoin:round;">
<text x="3.8411" y="56.6262"
textLength="2.5460" font-size="1.6933" lengthAdjust="spacingAndGlyphs"
text-anchor="middle" opacity="0">18</text>
<g class="stroked-text"><desc>18</desc>
<path d="M3.5992 56.4707
L2.8735 56.4707
" />
<path d="M3.2363 56.4707
L3.2363 55.2007
" />
<path d="M3.2363 55.2007
L3.1154 55.3822
" />
<path d="M3.1154 55.3822
L2.9944 55.5031
" />
<path d="M2.9944 55.5031
L2.8735 55.5636
" />
<path d="M4.3249 55.7450
L4.2039 55.6845
" />
<path d="M4.2039 55.6845
L4.1434 55.6241
" />
<path d="M4.1434 55.6241
L4.0830 55.5031
" />
<path d="M4.0830 55.5031
L4.0830 55.4426
" />
<path d="M4.0830 55.4426
L4.1434 55.3217
" />
<path d="M4.1434 55.3217
L4.2039 55.2612
" />
<path d="M4.2039 55.2612
L4.3249 55.2007
" />
<path d="M4.3249 55.2007
L4.5668 55.2007
" />
<path d="M4.5668 55.2007
L4.6877 55.2612
" />
<path d="M4.6877 55.2612
L4.7482 55.3217
" />
<path d="M4.7482 55.3217
L4.8087 55.4426
" />
<path d="M4.8087 55.4426
L4.8087 55.5031
" />
<path d="M4.8087 55.5031
L4.7482 55.6241
" />
<path d="M4.7482 55.6241
L4.6877 55.6845
" />
<path d="M4.6877 55.6845
L4.5668 55.7450
" />
<path d="M4.5668 55.7450
L4.3249 55.7450
" />
<path d="M4.3249 55.7450
L4.2039 55.8055
" />
<path d="M4.2039 55.8055
L4.1434 55.8660
" />
<path d="M4.1434 55.8660
L4.0830 55.9869
" />
<path d="M4.0830 55.9869
L4.0830 56.2288
" />
<path d="M4.0830 56.2288
L4.1434 56.3498
" />
<path d="M4.1434 56.3498
L4.2039 56.4103
" />
<path d="M4.2039 56.4103
L4.3249 56.4707
" />
<path d="M4.3249 56.4707
L4.5668 56.4707
" />
<path d="M4.5668 56.4707
L4.6877 56.4103
" />
<path d="M4.6877 56.4103
L4.7482 56.3498
" />
<path d="M4.7482 56.3498
L4.8087 56.2288
" />
<path d="M4.8087 56.2288
L4.8087 55.9869
" />
<path d="M4.8087 55.9869
L4.7482 55.8660
" />
<path d="M4.7482 55.8660
L4.6877 55.8055
" />
<path d="M4.6877 55.8055
L4.5668 55.7450
" />
</g></g>
<g style="fill:#840000; fill-opacity:0.0; 
stroke:#840000; stroke-width:0.1524; stroke-opacity:1; 
stroke-linecap:round; stroke-linejoin:round;">
<path d="M5.7461 59.4202
L1.9361 59.4202
" />
</g>
<g style="fill:#A90000; fill-opacity:0.0; 
stroke:#A90000; stroke-width:0.1524; stroke-opacity:1; 
stroke-linecap:round; stroke-linejoin:round;">
<text x="3.8411" y="59.1662"
textLength="2.5460" font-size="1.6933" lengthAdjust="spacingAndGlyphs"
text-anchor="middle" opacity="0">19</text>
<g class="stroked-text"><desc>19</desc>
<path d="M3.5992 59.0107
L2.8735 59.0107
" />
<path d="M3.2363 59.0107
L3.2363 57.7407
" />
<path d="M3.2363 57.7407
L3.1154 57.9222
" />
<path d="M3.1154 57.9222
L2.9944 58.0431
" />
<path d="M2.9944 58.0431
L2.8735 58.1036
" />
<path d="M4.2039 59.0107
L4.4458 59.0107
" />
<path d="M4.4458 59.0107
L4.5668 58.9503
" />
<path d="M4.5668 58.9503
L4.6272 58.8898
" />
<path d="M4.6272 58.8898
L4.7482 58.7083
" />
<path d="M4.7482 58.7083
L4.8087 58.4664
" />
<path d="M4.8087 58.4664
L4.8087 57.9826
" />
<path d="M4.8087 57.9826
L4.7482 57.8617
" />
<path d="M4.7482 57.8617
L4.6877 57.8012
" />
<path d="M4.6877 57.8012
L4.5668 57.7407
" />
<path d="M4.5668 57.7407
L4.3249 57.7407
" />
<path d="M4.3249 57.7407
L4.2039 57.8012
" />
<path d="M4.2039 57.8012
L4.1434 57.8617
" />
<path d="M4.1434 57.8617
L4.0830 57.9826
" />
<path d="M4.0830 57.9826
L4.0830 58.2850
" />
<path d="M4.0830 58.2850
L4.1434 58.4060
" />
<path d="M4.1434 58.4060
L4.2039 58.4664
" />
<path d="M4.2039 58.4664
L4.3249 58.5269
" />
<path d="M4.3249 58.5269
L4.5668 58.5269
" />
<path d="M4.5668 58.5269
L4.6877 58.4664
" />
<path d="M4.6877 58.4664
L4.7482 58.4060
" />
<path d="M4.7482 58.4060
L4.8087 58.2850
" />
</g></g>
<g style="fill:#840000; fill-opacity:0.0; 
stroke:#840000; stroke-width:0.1524; stroke-opacity:1; 
stroke-linecap:round; stroke-linejoin:round;">
<path d="M5.7461 16.2402
L1.9361 16.2402
" />
</g>
<g style="fill:#A90000; fill-opacity:0.0; 
stroke:#A90000; stroke-width:0.1524; stroke-opacity:1; 
stroke-linecap:round; stroke-linejoin:round;">
<text x="3.8411" y="15.9862"
textLength="1.3365" font-size="1.6933" lengthAdjust="spacingAndGlyphs"
text-anchor="middle" opacity="0">2</text>
<g class="stroked-text"><desc>2</desc>
<path d="M3.4783 14.6817
L3.5387 14.6212
" />
<path d="M3.5387 14.6212
L3.6597 14.5607
" />
<path d="M3.6597 14.5607
L3.9621 14.5607
" />
<path d="M3.9621 14.5607
L4.0830 14.6212
" />
<path d="M4.0830 14.6212
L4.1435 14.6817
" />
<path d="M4.1435 14.6817
L4.2040 14.8026
" />
<path d="M4.2040 14.8026
L4.2040 14.9236
" />
<path d="M4.2040 14.9236
L4.1435 15.1050
" />
<path d="M4.1435 15.1050
L3.4178 15.8307
" />
<path d="M3.4178 15.8307
L4.2040 15.8307
" />
</g></g>
<g style="fill:#840000; fill-opacity:0.0; 
stroke:#840000; stroke-width:0.1524; stroke-opacity:1; 
stroke-linecap:round; stroke-linejoin:round;">
<path d="M5.7461 61.9602
L1.9361 61.9602
" />
</g>
<g style="fill:#A90000; fill-opacity:0.0; 
stroke:#A90000; stroke-width:0.1524; stroke-opacity:1; 
stroke-linecap:round; stroke-linejoin:round;">
<text x="3.8411" y="61.7062"
textLength="2.5460" font-size="1.6933" lengthAdjust="spacingAndGlyphs"
text-anchor="middle" opacity="0">20</text>
<g class="stroked-text"><desc>20</desc>
<path d="M2.8735 60.4017
L2.9339 60.3412
" />
<path d="M2.9339 60.3412
L3.0549 60.2807
" />
<path d="M3.0549 60.2807
L3.3573 60.2807
" />
<path d="M3.3573 60.2807
L3.4782 60.3412
" />
<path d="M3.4782 60.3412
L3.5387 60.4017
" />
<path d="M3.5387 60.4017
L3.5992 60.5226
" />
<path d="M3.5992 60.5226
L3.5992 60.6436
" />
<path d="M3.5992 60.6436
L3.5387 60.8250
" />
<path d="M3.5387 60.8250
L2.8130 61.5507
" />
<path d="M2.8130 61.5507
L3.5992 61.5507
" />
<path d="M4.3853 60.2807
L4.5063 60.2807
" />
<path d="M4.5063 60.2807
L4.6272 60.3412
" />
<path d="M4.6272 60.3412
L4.6877 60.4017
" />
<path d="M4.6877 60.4017
L4.7482 60.5226
" />
<path d="M4.7482 60.5226
L4.8087 60.7645
" />
<path d="M4.8087 60.7645
L4.8087 61.0669
" />
<path d="M4.8087 61.0669
L4.7482 61.3088
" />
<path d="M4.7482 61.3088
L4.6877 61.4298
" />
<path d="M4.6877 61.4298
L4.6272 61.4903
" />
<path d="M4.6272 61.4903
L4.5063 61.5507
" />
<path d="M4.5063 61.5507
L4.3853 61.5507
" />
<path d="M4.3853 61.5507
L4.2644 61.4903
" />
<path d="M4.2644 61.4903
L4.2039 61.4298
" />
<path d="M4.2039 61.4298
L4.1434 61.3088
" />
<path d="M4.1434 61.3088
L4.0830 61.0669
" />
<path d="M4.0830 61.0669
L4.0830 60.7645
" />
<path d="M4.0830 60.7645
L4.1434 60.5226
" />
<path d="M4.1434 60.5226
L4.2039 60.4017
" />
<path d="M4.2039 60.4017
L4.2644 60.3412
" />
<path d="M4.2644 60.3412
L4.3853 60.2807
" />
</g></g>
<g style="fill:#840000; fill-opacity:0.0; 
stroke:#840000; stroke-width:0.1524; stroke-opacity:1; 
stroke-linecap:round; stroke-linejoin:round;">
<path d="M5.7461 64.5002
L1.9361 64.5002
" />
</g>
<g style="fill:#A90000; fill-opacity:0.0; 
stroke:#A90000; stroke-width:0.1524; stroke-opacity:1; 
stroke-linecap:round; stroke-linejoin:round;">
<text x="3.8411" y="64.2462"
textLength="2.5460" font-size="1.6933" lengthAdjust="spacingAndGlyphs"
text-anchor="middle" opacity="0">21</text>
<g class="stroked-text"><desc>21</desc>
<path d="M2.8735 62.9417
L2.9339 62.8812
" />
<path d="M2.9339 62.8812
L3.0549 62.8207
" />
<path d="M3.0549 62.8207
L3.3573 62.8207
" />
<path d="M3.3573 62.8207
L3.4782 62.8812
" />
<path d="M3.4782 62.8812
L3.5387 62.9417
" />
<path d="M3.5387 62.9417
L3.5992 63.0626
" />
<path d="M3.5992 63.0626
L3.5992 63.1836
" />
<path d="M3.5992 63.1836
L3.5387 63.3650
" />
<path d="M3.5387 63.3650
L2.8130 64.0907
" />
<path d="M2.8130 64.0907
L3.5992 64.0907
" />
<path d="M4.8087 64.0907
L4.0830 64.0907
" />
<path d="M4.4458 64.0907
L4.4458 62.8207
" />
<path d="M4.4458 62.8207
L4.3249 63.0022
" />
<path d="M4.3249 63.0022
L4.2039 63.1231
" />
<path d="M4.2039 63.1231
L4.0830 63.1836
" />
</g></g>
<g style="fill:#840000; fill-opacity:0.0; 
stroke:#840000; stroke-width:0.1524; stroke-opacity:1; 
stroke-linecap:round; stroke-linejoin:round;">
<path d="M5.7461 67.0402
L1.9361 67.0402
" />
</g>
<g style="fill:#A90000; fill-opacity:0.0; 
stroke:#A90000; stroke-width:0.1524; stroke-opacity:1; 
stroke-linecap:round; stroke-linejoin:round;">
<text x="3.8411" y="66.7862"
textLength="2.5460" font-size="1.6933" lengthAdjust="spacingAndGlyphs"
text-anchor="middle" opacity="0">22</text>
<g class="stroked-text"><desc>22</desc>
<path d="M2.8735 65.4817
L2.9339 65.4212
" />
<path d="M2.9339 65.4212
L3.0549 65.3607
" />
<path d="M3.0549 65.3607
L3.3573 65.3607
" />
<path d="M3.3573 65.3607
L3.4782 65.4212
" />
<path d="M3.4782 65.4212
L3.5387 65.4817
" />
<path d="M3.5387 65.4817
L3.5992 65.6026
" />
<path d="M3.5992 65.6026
L3.5992 65.7236
" />
<path d="M3.5992 65.7236
L3.5387 65.9050
" />
<path d="M3.5387 65.9050
L2.8130 66.6307
" />
<path d="M2.8130 66.6307
L3.5992 66.6307
" />
<path d="M4.0830 65.4817
L4.1434 65.4212
" />
<path d="M4.1434 65.4212
L4.2644 65.3607
" />
<path d="M4.2644 65.3607
L4.5668 65.3607
" />
<path d="M4.5668 65.3607
L4.6877 65.4212
" />
<path d="M4.6877 65.4212
L4.7482 65.4817
" />
<path d="M4.7482 65.4817
L4.8087 65.6026
" />
<path d="M4.8087 65.6026
L4.8087 65.7236
" />
<path d="M4.8087 65.7236
L4.7482 65.9050
" />
<path d="M4.7482 65.9050
L4.0225 66.6307
" />
<path d="M4.0225 66.6307
L4.8087 66.6307
" />
</g></g>
<g style="fill:#840000; fill-opacity:0.0; 
stroke:#840000; stroke-width:0.1524; stroke-opacity:1; 
stroke-linecap:round; stroke-linejoin:round;">
<path d="M5.7461 69.5802
L1.9361 69.5802
" />
</g>
<g style="fill:#A90000; fill-opacity:0.0; 
stroke:#A90000; stroke-width:0.1524; stroke-opacity:1; 
stroke-linecap:round; stroke-linejoin:round;">
<text x="3.8411" y="69.3262"
textLength="2.5460" font-size="1.6933" lengthAdjust="spacingAndGlyphs"
text-anchor="middle" opacity="0">23</text>
<g class="stroked-text"><desc>23</desc>
<path d="M2.8735 68.0217
L2.9339 67.9612
" />
<path d="M2.9339 67.9612
L3.0549 67.9007
" />
<path d="M3.0549 67.9007
L3.3573 67.9007
" />
<path d="M3.3573 67.9007
L3.4782 67.9612
" />
<path d="M3.4782 67.9612
L3.5387 68.0217
" />
<path d="M3.5387 68.0217
L3.5992 68.1426
" />
<path d="M3.5992 68.1426
L3.5992 68.2636
" />
<path d="M3.5992 68.2636
L3.5387 68.4450
" />
<path d="M3.5387 68.4450
L2.8130 69.1707
" />
<path d="M2.8130 69.1707
L3.5992 69.1707
" />
<path d="M4.0225 67.9007
L4.8087 67.9007
" />
<path d="M4.8087 67.9007
L4.3853 68.3845
" />
<path d="M4.3853 68.3845
L4.5668 68.3845
" />
<path d="M4.5668 68.3845
L4.6877 68.4450
" />
<path d="M4.6877 68.4450
L4.7482 68.5055
" />
<path d="M4.7482 68.5055
L4.8087 68.6264
" />
<path d="M4.8087 68.6264
L4.8087 68.9288
" />
<path d="M4.8087 68.9288
L4.7482 69.0498
" />
<path d="M4.7482 69.0498
L4.6877 69.1103
" />
<path d="M4.6877 69.1103
L4.5668 69.1707
" />
<path d="M4.5668 69.1707
L4.2039 69.1707
" />
<path d="M4.2039 69.1707
L4.0830 69.1103
" />
<path d="M4.0830 69.1103
L4.0225 69.0498
" />
</g></g>
<g style="fill:#840000; fill-opacity:0.0; 
stroke:#840000; stroke-width:0.1524; stroke-opacity:1; 
stroke-linecap:round; stroke-linejoin:round;">
<path d="M5.7461 72.1202
L1.9361 72.1202
" />
</g>
<g style="fill:#A90000; fill-opacity:0.0; 
stroke:#A90000; stroke-width:0.1524; stroke-opacity:1; 
stroke-linecap:round; stroke-linejoin:round;">
<text x="3.8411" y="71.8662"
textLength="2.5460" font-size="1.6933" lengthAdjust="spacingAndGlyphs"
text-anchor="middle" opacity="0">24</text>
<g class="stroked-text"><desc>24</desc>
<path d="M2.8735 70.5617
L2.9339 70.5012
" />
<path d="M2.9339 70.5012
L3.0549 70.4407
" />
<path d="M3.0549 70.4407
L3.3573 70.4407
" />
<path d="M3.3573 70.4407
L3.4782 70.5012
" />
<path d="M3.4782 70.5012
L3.5387 70.5617
" />
<path d="M3.5387 70.5617
L3.5992 70.6826
" />
<path d="M3.5992 70.6826
L3.5992 70.8036
" />
<path d="M3.5992 70.8036
L3.5387 70.9850
" />
<path d="M3.5387 70.9850
L2.8130 71.7107
" />
<path d="M2.8130 71.7107
L3.5992 71.7107
" />
<path d="M4.6877 70.8641
L4.6877 71.7107
" />
<path d="M4.3853 70.3803
L4.0830 71.2874
" />
<path d="M4.0830 71.2874
L4.8691 71.2874
" />
</g></g>
<g style="fill:#840000; fill-opacity:0.0; 
stroke:#840000; stroke-width:0.1524; stroke-opacity:1; 
stroke-linecap:round; stroke-linejoin:round;">
<path d="M5.7461 74.6602
L1.9361 74.6602
" />
</g>
<g style="fill:#A90000; fill-opacity:0.0; 
stroke:#A90000; stroke-width:0.1524; stroke-opacity:1; 
stroke-linecap:round; stroke-linejoin:round;">
<text x="3.8411" y="74.4062"
textLength="2.5460" font-size="1.6933" lengthAdjust="spacingAndGlyphs"
text-anchor="middle" opacity="0">25</text>
<g class="stroked-text"><desc>25</desc>
<path d="M2.8735 73.1017
L2.9339 73.0412
" />
<path d="M2.9339 73.0412
L3.0549 72.9807
" />
<path d="M3.0549 72.9807
L3.3573 72.9807
" />
<path d="M3.3573 72.9807
L3.4782 73.0412
" />
<path d="M3.4782 73.0412
L3.5387 73.1017
" />
<path d="M3.5387 73.1017
L3.5992 73.2226
" />
<path d="M3.5992 73.2226
L3.5992 73.3436
" />
<path d="M3.5992 73.3436
L3.5387 73.5250
" />
<path d="M3.5387 73.5250
L2.8130 74.2507
" />
<path d="M2.8130 74.2507
L3.5992 74.2507
" />
<path d="M4.7482 72.9807
L4.1434 72.9807
" />
<path d="M4.1434 72.9807
L4.0830 73.5855
" />
<path d="M4.0830 73.5855
L4.1434 73.5250
" />
<path d="M4.1434 73.5250
L4.2644 73.4645
" />
<path d="M4.2644 73.4645
L4.5668 73.4645
" />
<path d="M4.5668 73.4645
L4.6877 73.5250
" />
<path d="M4.6877 73.5250
L4.7482 73.5855
" />
<path d="M4.7482 73.5855
L4.8087 73.7064
" />
<path d="M4.8087 73.7064
L4.8087 74.0088
" />
<path d="M4.8087 74.0088
L4.7482 74.1298
" />
<path d="M4.7482 74.1298
L4.6877 74.1903
" />
<path d="M4.6877 74.1903
L4.5668 74.2507
" />
<path d="M4.5668 74.2507
L4.2644 74.2507
" />
<path d="M4.2644 74.2507
L4.1434 74.1903
" />
<path d="M4.1434 74.1903
L4.0830 74.1298
" />
</g></g>
<g style="fill:#840000; fill-opacity:0.0; 
stroke:#840000; stroke-width:0.1524; stroke-opacity:1; 
stroke-linecap:round; stroke-linejoin:round;">
<path d="M5.7461 77.2002
L1.9361 77.2002
" />
</g>
<g style="fill:#A90000; fill-opacity:0.0; 
stroke:#A90000; stroke-width:0.1524; stroke-opacity:1; 
stroke-linecap:round; stroke-linejoin:round;">
<text x="3.8411" y="76.9462"
textLength="2.5460" font-size="1.6933" lengthAdjust="spacingAndGlyphs"
text-anchor="middle" opacity="0">26</text>
<g class="stroked-text"><desc>26</desc>
<path d="M2.8735 75.6417
L2.9339 75.5812
" />
<path d="M2.9339 75.5812
L3.0549 75.5207
" />
<path d="M3.0549 75.5207
L3.3573 75.5207
" />
<path d="M3.3573 75.5207
L3.4782 75.5812
" />
<path d="M3.4782 75.5812
L3.5387 75.6417
" />
<path d="M3.5387 75.6417
L3.5992 75.7626
" />
<path d="M3.5992 75.7626
L3.5992 75.8836
" />
<path d="M3.5992 75.8836
L3.5387 76.0650
" />
<path d="M3.5387 76.0650
L2.8130 76.7907
" />
<path d="M2.8130 76.7907
L3.5992 76.7907
" />
<path d="M4.6877 75.5207
L4.4458 75.5207
" />
<path d="M4.4458 75.5207
L4.3249 75.5812
" />
<path d="M4.3249 75.5812
L4.2644 75.6417
" />
<path d="M4.2644 75.6417
L4.1434 75.8231
" />
<path d="M4.1434 75.8231
L4.0830 76.0650
" />
<path d="M4.0830 76.0650
L4.0830 76.5488
" />
<path d="M4.0830 76.5488
L4.1434 76.6698
" />
<path d="M4.1434 76.6698
L4.2039 76.7303
" />
<path d="M4.2039 76.7303
L4.3249 76.7907
" />
<path d="M4.3249 76.7907
L4.5668 76.7907
" />
<path d="M4.5668 76.7907
L4.6877 76.7303
" />
<path d="M4.6877 76.7303
L4.7482 76.6698
" />
<path d="M4.7482 76.6698
L4.8087 76.5488
" />
<path d="M4.8087 76.5488
L4.8087 76.2464
" />
<path d="M4.8087 76.2464
L4.7482 76.1255
" />
<path d="M4.7482 76.1255
L4.6877 76.0650
" />
<path d="M4.6877 76.0650
L4.5668 76.0045
" />
<path d="M4.5668 76.0045
L4.3249 76.0045
" />
<path d="M4.3249 76.0045
L4.2039 76.0650
" />
<path d="M4.2039 76.0650
L4.1434 76.1255
" />
<path d="M4.1434 76.1255
L4.0830 76.2464
" />
</g></g>
<g style="fill:#840000; fill-opacity:0.0; 
stroke:#840000; stroke-width:0.1524; stroke-opacity:1; 
stroke-linecap:round; stroke-linejoin:round;">
<path d="M5.7461 79.7402
L1.9361 79.7402
" />
</g>
<g style="fill:#A90000; fill-opacity:0.0; 
stroke:#A90000; stroke-width:0.1524; stroke-opacity:1; 
stroke-linecap:round; stroke-linejoin:round;">
<text x="3.8411" y="79.4862"
textLength="2.5460" font-size="1.6933" lengthAdjust="spacingAndGlyphs"
text-anchor="middle" opacity="0">27</text>
<g class="stroked-text"><desc>27</desc>
<path d="M2.8735 78.1817
L2.9339 78.1212
" />
<path d="M2.9339 78.1212
L3.0549 78.0607
" />
<path d="M3.0549 78.0607
L3.3573 78.0607
" />
<path d="M3.3573 78.0607
L3.4782 78.1212
" />
<path d="M3.4782 78.1212
L3.5387 78.1817
" />
<path d="M3.5387 78.1817
L3.5992 78.3026
" />
<path d="M3.5992 78.3026
L3.5992 78.4236
" />
<path d="M3.5992 78.4236
L3.5387 78.6050
" />
<path d="M3.5387 78.6050
L2.8130 79.3307
" />
<path d="M2.8130 79.3307
L3.5992 79.3307
" />
<path d="M4.0225 78.0607
L4.8691 78.0607
" />
<path d="M4.8691 78.0607
L4.3249 79.3307
" />
</g></g>
<g style="fill:#840000; fill-opacity:0.0; 
stroke:#840000; stroke-width:0.1524; stroke-opacity:1; 
stroke-linecap:round; stroke-linejoin:round;">
<path d="M5.7461 82.2802
L1.9361 82.2802
" />
</g>
<g style="fill:#A90000; fill-opacity:0.0; 
stroke:#A90000; stroke-width:0.1524; stroke-opacity:1; 
stroke-linecap:round; stroke-linejoin:round;">
<text x="3.8411" y="82.0262"
textLength="2.5460" font-size="1.6933" lengthAdjust="spacingAndGlyphs"
text-anchor="middle" opacity="0">28</text>
<g class="stroked-text"><desc>28</desc>
<path d="M2.8735 80.7217
L2.9339 80.6612
" />
<path d="M2.9339 80.6612
L3.0549 80.6007
" />
<path d="M3.0549 80.6007
L3.3573 80.6007
" />
<path d="M3.3573 80.6007
L3.4782 80.6612
" />
<path d="M3.4782 80.6612
L3.5387 80.7217
" />
<path d="M3.5387 80.7217
L3.5992 80.8426
" />
<path d="M3.5992 80.8426
L3.5992 80.9636
" />
<path d="M3.5992 80.9636
L3.5387 81.1450
" />
<path d="M3.5387 81.1450
L2.8130 81.8707
" />
<path d="M2.8130 81.8707
L3.5992 81.8707
" />
<path d="M4.3249 81.1450
L4.2039 81.0845
" />
<path d="M4.2039 81.0845
L4.1434 81.0241
" />
<path d="M4.1434 81.0241
L4.0830 80.9031
" />
<path d="M4.0830 80.9031
L4.0830 80.8426
" />
<path d="M4.0830 80.8426
L4.1434 80.7217
" />
<path d="M4.1434 80.7217
L4.2039 80.6612
" />
<path d="M4.2039 80.6612
L4.3249 80.6007
" />
<path d="M4.3249 80.6007
L4.5668 80.6007
" />
<path d="M4.5668 80.6007
L4.6877 80.6612
" />
<path d="M4.6877 80.6612
L4.7482 80.7217
" />
<path d="M4.7482 80.7217
L4.8087 80.8426
" />
<path d="M4.8087 80.8426
L4.8087 80.9031
" />
<path d="M4.8087 80.9031
L4.7482 81.0241
" />
<path d="M4.7482 81.0241
L4.6877 81.0845
" />
<path d="M4.6877 81.0845
L4.5668 81.1450
" />
<path d="M4.5668 81.1450
L4.3249 81.1450
" />
<path d="M4.3249 81.1450
L4.2039 81.2055
" />
<path d="M4.2039 81.2055
L4.1434 81.2660
" />
<path d="M4.1434 81.2660
L4.0830 81.3869
" />
<path d="M4.0830 81.3869
L4.0830 81.6288
" />
<path d="M4.0830 81.6288
L4.1434 81.7498
" />
<path d="M4.1434 81.7498
L4.2039 81.8103
" />
<path d="M4.2039 81.8103
L4.3249 81.8707
" />
<path d="M4.3249 81.8707
L4.5668 81.8707
" />
<path d="M4.5668 81.8707
L4.6877 81.8103
" />
<path d="M4.6877 81.8103
L4.7482 81.7498
" />
<path d="M4.7482 81.7498
L4.8087 81.6288
" />
<path d="M4.8087 81.6288
L4.8087 81.3869
" />
<path d="M4.8087 81.3869
L4.7482 81.2660
" />
<path d="M4.7482 81.2660
L4.6877 81.2055
" />
<path d="M4.6877 81.2055
L4.5668 81.1450
" />
</g></g>
<g style="fill:#840000; fill-opacity:0.0; 
stroke:#840000; stroke-width:0.1524; stroke-opacity:1; 
stroke-linecap:round; stroke-linejoin:round;">
<path d="M5.7461 84.8202
L1.9361 84.8202
" />
</g>
<g style="fill:#A90000; fill-opacity:0.0; 
stroke:#A90000; stroke-width:0.1524; stroke-opacity:1; 
stroke-linecap:round; stroke-linejoin:round;">
<text x="3.8411" y="84.5662"
textLength="2.5460" font-size="1.6933" lengthAdjust="spacingAndGlyphs"
text-anchor="middle" opacity="0">29</text>
<g class="stroked-text"><desc>29</desc>
<path d="M2.8735 83.2617
L2.9339 83.2012
" />
<path d="M2.9339 83.2012
L3.0549 83.1407
" />
<path d="M3.0549 83.1407
L3.3573 83.1407
" />
<path d="M3.3573 83.1407
L3.4782 83.2012
" />
<path d="M3.4782 83.2012
L3.5387 83.2617
" />
<path d="M3.5387 83.2617
L3.5992 83.3826
" />
<path d="M3.5992 83.3826
L3.5992 83.5036
" />
<path d="M3.5992 83.5036
L3.5387 83.6850
" />
<path d="M3.5387 83.6850
L2.8130 84.4107
" />
<path d="M2.8130 84.4107
L3.5992 84.4107
" />
<path d="M4.2039 84.4107
L4.4458 84.4107
" />
<path d="M4.4458 84.4107
L4.5668 84.3503
" />
<path d="M4.5668 84.3503
L4.6272 84.2898
" />
<path d="M4.6272 84.2898
L4.7482 84.1083
" />
<path d="M4.7482 84.1083
L4.8087 83.8664
" />
<path d="M4.8087 83.8664
L4.8087 83.3826
" />
<path d="M4.8087 83.3826
L4.7482 83.2617
" />
<path d="M4.7482 83.2617
L4.6877 83.2012
" />
<path d="M4.6877 83.2012
L4.5668 83.1407
" />
<path d="M4.5668 83.1407
L4.3249 83.1407
" />
<path d="M4.3249 83.1407
L4.2039 83.2012
" />
<path d="M4.2039 83.2012
L4.1434 83.2617
" />
<path d="M4.1434 83.2617
L4.0830 83.3826
" />
<path d="M4.0830 83.3826
L4.0830 83.6850
" />
<path d="M4.0830 83.6850
L4.1434 83.8060
" />
<path d="M4.1434 83.8060
L4.2039 83.8664
" />
<path d="M4.2039 83.8664
L4.3249 83.9269
" />
<path d="M4.3249 83.9269
L4.5668 83.9269
" />
<path d="M4.5668 83.9269
L4.6877 83.8664
" />
<path d="M4.6877 83.8664
L4.7482 83.8060
" />
<path d="M4.7482 83.8060
L4.8087 83.6850
" />
</g></g>
<g style="fill:#840000; fill-opacity:0.0; 
stroke:#840000; stroke-width:0.1524; stroke-opacity:1; 
stroke-linecap:round; stroke-linejoin:round;">
<path d="M5.7461 18.7802
L1.9361 18.7802
" />
</g>
<g style="fill:#A90000; fill-opacity:0.0; 
stroke:#A90000; stroke-width:0.1524; stroke-opacity:1; 
stroke-linecap:round; stroke-linejoin:round;">
<text x="3.8411" y="18.5262"
textLength="1.3365" font-size="1.6933" lengthAdjust="spacingAndGlyphs"
text-anchor="middle" opacity="0">3</text>
<g class="stroked-text"><desc>3</desc>
<path d="M3.4178 17.1007
L4.2040 17.1007
" />
<path d="M4.2040 17.1007
L3.7806 17.5845
" />
<path d="M3.7806 17.5845
L3.9621 17.5845
" />
<path d="M3.9621 17.5845
L4.0830 17.6450
" />
<path d="M4.0830 17.6450
L4.1435 17.7055
" />
<path d="M4.1435 17.7055
L4.2040 17.8264
" />
<path d="M4.2040 17.8264
L4.2040 18.1288
" />
<path d="M4.2040 18.1288
L4.1435 18.2498
" />
<path d="M4.1435 18.2498
L4.0830 18.3103
" />
<path d="M4.0830 18.3103
L3.9621 18.3707
" />
<path d="M3.9621 18.3707
L3.5992 18.3707
" />
<path d="M3.5992 18.3707
L3.4783 18.3103
" />
<path d="M3.4783 18.3103
L3.4178 18.2498
" />
</g></g>
<g style="fill:#840000; fill-opacity:0.0; 
stroke:#840000; stroke-width:0.1524; stroke-opacity:1; 
stroke-linecap:round; stroke-linejoin:round;">
<path d="M5.7461 87.3602
L1.9361 87.3602
" />
</g>
<g style="fill:#A90000; fill-opacity:0.0; 
stroke:#A90000; stroke-width:0.1524; stroke-opacity:1; 
stroke-linecap:round; stroke-linejoin:round;">
<text x="3.8411" y="87.1062"
textLength="2.5460" font-size="1.6933" lengthAdjust="spacingAndGlyphs"
text-anchor="middle" opacity="0">30</text>
<g class="stroked-text"><desc>30</desc>
<path d="M2.8130 85.6807
L3.5992 85.6807
" />
<path d="M3.5992 85.6807
L3.1758 86.1645
" />
<path d="M3.1758 86.1645
L3.3573 86.1645
" />
<path d="M3.3573 86.1645
L3.4782 86.2250
" />
<path d="M3.4782 86.2250
L3.5387 86.2855
" />
<path d="M3.5387 86.2855
L3.5992 86.4064
" />
<path d="M3.5992 86.4064
L3.5992 86.7088
" />
<path d="M3.5992 86.7088
L3.5387 86.8298
" />
<path d="M3.5387 86.8298
L3.4782 86.8903
" />
<path d="M3.4782 86.8903
L3.3573 86.9507
" />
<path d="M3.3573 86.9507
L2.9944 86.9507
" />
<path d="M2.9944 86.9507
L2.8735 86.8903
" />
<path d="M2.8735 86.8903
L2.8130 86.8298
" />
<path d="M4.3853 85.6807
L4.5063 85.6807
" />
<path d="M4.5063 85.6807
L4.6272 85.7412
" />
<path d="M4.6272 85.7412
L4.6877 85.8017
" />
<path d="M4.6877 85.8017
L4.7482 85.9226
" />
<path d="M4.7482 85.9226
L4.8087 86.1645
" />
<path d="M4.8087 86.1645
L4.8087 86.4669
" />
<path d="M4.8087 86.4669
L4.7482 86.7088
" />
<path d="M4.7482 86.7088
L4.6877 86.8298
" />
<path d="M4.6877 86.8298
L4.6272 86.8903
" />
<path d="M4.6272 86.8903
L4.5063 86.9507
" />
<path d="M4.5063 86.9507
L4.3853 86.9507
" />
<path d="M4.3853 86.9507
L4.2644 86.8903
" />
<path d="M4.2644 86.8903
L4.2039 86.8298
" />
<path d="M4.2039 86.8298
L4.1434 86.7088
" />
<path d="M4.1434 86.7088
L4.0830 86.4669
" />
<path d="M4.0830 86.4669
L4.0830 86.1645
" />
<path d="M4.0830 86.1645
L4.1434 85.9226
" />
<path d="M4.1434 85.9226
L4.2039 85.8017
" />
<path d="M4.2039 85.8017
L4.2644 85.7412
" />
<path d="M4.2644 85.7412
L4.3853 85.6807
" />
</g></g>
<g style="fill:#840000; fill-opacity:0.0; 
stroke:#840000; stroke-width:0.1524; stroke-opacity:1; 
stroke-linecap:round; stroke-linejoin:round;">
<path d="M5.7461 89.9002
L1.9361 89.9002
" />
</g>
<g style="fill:#A90000; fill-opacity:0.0; 
stroke:#A90000; stroke-width:0.1524; stroke-opacity:1; 
stroke-linecap:round; stroke-linejoin:round;">
<text x="3.8411" y="89.6462"
textLength="2.5460" font-size="1.6933" lengthAdjust="spacingAndGlyphs"
text-anchor="middle" opacity="0">31</text>
<g class="stroked-text"><desc>31</desc>
<path d="M2.8130 88.2207
L3.5992 88.2207
" />
<path d="M3.5992 88.2207
L3.1758 88.7045
" />
<path d="M3.1758 88.7045
L3.3573 88.7045
" />
<path d="M3.3573 88.7045
L3.4782 88.7650
" />
<path d="M3.4782 88.7650
L3.5387 88.8255
" />
<path d="M3.5387 88.8255
L3.5992 88.9464
" />
<path d="M3.5992 88.9464
L3.5992 89.2488
" />
<path d="M3.5992 89.2488
L3.5387 89.3698
" />
<path d="M3.5387 89.3698
L3.4782 89.4303
" />
<path d="M3.4782 89.4303
L3.3573 89.4907
" />
<path d="M3.3573 89.4907
L2.9944 89.4907
" />
<path d="M2.9944 89.4907
L2.8735 89.4303
" />
<path d="M2.8735 89.4303
L2.8130 89.3698
" />
<path d="M4.8087 89.4907
L4.0830 89.4907
" />
<path d="M4.4458 89.4907
L4.4458 88.2207
" />
<path d="M4.4458 88.2207
L4.3249 88.4022
" />
<path d="M4.3249 88.4022
L4.2039 88.5231
" />
<path d="M4.2039 88.5231
L4.0830 88.5836
" />
</g></g>
<g style="fill:#840000; fill-opacity:0.0; 
stroke:#840000; stroke-width:0.1524; stroke-opacity:1; 
stroke-linecap:round; stroke-linejoin:round;">
<path d="M5.7461 92.4402
L1.9361 92.4402
" />
</g>
<g style="fill:#A90000; fill-opacity:0.0; 
stroke:#A90000; stroke-width:0.1524; stroke-opacity:1; 
stroke-linecap:round; stroke-linejoin:round;">
<text x="3.8411" y="92.1862"
textLength="2.5460" font-size="1.6933" lengthAdjust="spacingAndGlyphs"
text-anchor="middle" opacity="0">32</text>
<g class="stroked-text"><desc>32</desc>
<path d="M2.8130 90.7607
L3.5992 90.7607
" />
<path d="M3.5992 90.7607
L3.1758 91.2445
" />
<path d="M3.1758 91.2445
L3.3573 91.2445
" />
<path d="M3.3573 91.2445
L3.4782 91.3050
" />
<path d="M3.4782 91.3050
L3.5387 91.3655
" />
<path d="M3.5387 91.3655
L3.5992 91.4864
" />
<path d="M3.5992 91.4864
L3.5992 91.7888
" />
<path d="M3.5992 91.7888
L3.5387 91.9098
" />
<path d="M3.5387 91.9098
L3.4782 91.9703
" />
<path d="M3.4782 91.9703
L3.3573 92.0307
" />
<path d="M3.3573 92.0307
L2.9944 92.0307
" />
<path d="M2.9944 92.0307
L2.8735 91.9703
" />
<path d="M2.8735 91.9703
L2.8130 91.9098
" />
<path d="M4.0830 90.8817
L4.1434 90.8212
" />
<path d="M4.1434 90.8212
L4.2644 90.7607
" />
<path d="M4.2644 90.7607
L4.5668 90.7607
" />
<path d="M4.5668 90.7607
L4.6877 90.8212
" />
<path d="M4.6877 90.8212
L4.7482 90.8817
" />
<path d="M4.7482 90.8817
L4.8087 91.0026
" />
<path d="M4.8087 91.0026
L4.8087 91.1236
" />
<path d="M4.8087 91.1236
L4.7482 91.3050
" />
<path d="M4.7482 91.3050
L4.0225 92.0307
" />
<path d="M4.0225 92.0307
L4.8087 92.0307
" />
</g></g>
<g style="fill:#840000; fill-opacity:0.0; 
stroke:#840000; stroke-width:0.1524; stroke-opacity:1; 
stroke-linecap:round; stroke-linejoin:round;">
<path d="M5.7461 94.9802
L1.9361 94.9802
" />
</g>
<g style="fill:#A90000; fill-opacity:0.0; 
stroke:#A90000; stroke-width:0.1524; stroke-opacity:1; 
stroke-linecap:round; stroke-linejoin:round;">
<text x="3.8411" y="94.7262"
textLength="2.5460" font-size="1.6933" lengthAdjust="spacingAndGlyphs"
text-anchor="middle" opacity="0">33</text>
<g class="stroked-text"><desc>33</desc>
<path d="M2.8130 93.3007
L3.5992 93.3007
" />
<path d="M3.5992 93.3007
L3.1758 93.7845
" />
<path d="M3.1758 93.7845
L3.3573 93.7845
" />
<path d="M3.3573 93.7845
L3.4782 93.8450
" />
<path d="M3.4782 93.8450
L3.5387 93.9055
" />
<path d="M3.5387 93.9055
L3.5992 94.0264
" />
<path d="M3.5992 94.0264
L3.5992 94.3288
" />
<path d="M3.5992 94.3288
L3.5387 94.4498
" />
<path d="M3.5387 94.4498
L3.4782 94.5103
" />
<path d="M3.4782 94.5103
L3.3573 94.5707
" />
<path d="M3.3573 94.5707
L2.9944 94.5707
" />
<path d="M2.9944 94.5707
L2.8735 94.5103
" />
<path d="M2.8735 94.5103
L2.8130 94.4498
" />
<path d="M4.0225 93.3007
L4.8087 93.3007
" />
<path d="M4.8087 93.3007
L4.3853 93.7845
" />
<path d="M4.3853 93.7845
L4.5668 93.7845
" />
<path d="M4.5668 93.7845
L4.6877 93.8450
" />
<path d="M4.6877 93.8450
L4.7482 93.9055
" />
<path d="M4.7482 93.9055
L4.8087 94.0264
" />
<path d="M4.8087 94.0264
L4.8087 94.3288
" />
<path d="M4.8087 94.3288
L4.7482 94.4498
" />
<path d="M4.7482 94.4498
L4.6877 94.5103
" />
<path d="M4.6877 94.5103
L4.5668 94.5707
" />
<path d="M4.5668 94.5707
L4.2039 94.5707
" />
<path d="M4.2039 94.5707
L4.0830 94.5103
" />
<path d="M4.0830 94.5103
L4.0225 94.4498
" />
</g></g>
<g style="fill:#840000; fill-opacity:0.0; 
stroke:#840000; stroke-width:0.1524; stroke-opacity:1; 
stroke-linecap:round; stroke-linejoin:round;">
<path d="M5.7461 97.5202
L1.9361 97.5202
" />
</g>
<g style="fill:#A90000; fill-opacity:0.0; 
stroke:#A90000; stroke-width:0.1524; stroke-opacity:1; 
stroke-linecap:round; stroke-linejoin:round;">
<text x="3.8411" y="97.2662"
textLength="2.5460" font-size="1.6933" lengthAdjust="spacingAndGlyphs"
text-anchor="middle" opacity="0">34</text>
<g class="stroked-text"><desc>34</desc>
<path d="M2.8130 95.8407
L3.5992 95.8407
" />
<path d="M3.5992 95.8407
L3.1758 96.3245
" />
<path d="M3.1758 96.3245
L3.3573 96.3245
" />
<path d="M3.3573 96.3245
L3.4782 96.3850
" />
<path d="M3.4782 96.3850
L3.5387 96.4455
" />
<path d="M3.5387 96.4455
L3.5992 96.5664
" />
<path d="M3.5992 96.5664
L3.5992 96.8688
" />
<path d="M3.5992 96.8688
L3.5387 96.9898
" />
<path d="M3.5387 96.9898
L3.4782 97.0503
" />
<path d="M3.4782 97.0503
L3.3573 97.1107
" />
<path d="M3.3573 97.1107
L2.9944 97.1107
" />
<path d="M2.9944 97.1107
L2.8735 97.0503
" />
<path d="M2.8735 97.0503
L2.8130 96.9898
" />
<path d="M4.6877 96.2641
L4.6877 97.1107
" />
<path d="M4.3853 95.7803
L4.0830 96.6874
" />
<path d="M4.0830 96.6874
L4.8691 96.6874
" />
</g></g>
<g style="fill:#840000; fill-opacity:0.0; 
stroke:#840000; stroke-width:0.1524; stroke-opacity:1; 
stroke-linecap:round; stroke-linejoin:round;">
<path d="M5.7461 100.0602
L1.9361 100.0602
" />
</g>
<g style="fill:#A90000; fill-opacity:0.0; 
stroke:#A90000; stroke-width:0.1524; stroke-opacity:1; 
stroke-linecap:round; stroke-linejoin:round;">
<text x="3.8411" y="99.8062"
textLength="2.5460" font-size="1.6933" lengthAdjust="spacingAndGlyphs"
text-anchor="middle" opacity="0">35</text>
<g class="stroked-text"><desc>35</desc>
<path d="M2.8130 98.3807
L3.5992 98.3807
" />
<path d="M3.5992 98.3807
L3.1758 98.8645
" />
<path d="M3.1758 98.8645
L3.3573 98.8645
" />
<path d="M3.3573 98.8645
L3.4782 98.9250
" />
<path d="M3.4782 98.9250
L3.5387 98.9855
" />
<path d="M3.5387 98.9855
L3.5992 99.1064
" />
<path d="M3.5992 99.1064
L3.5992 99.4088
" />
<path d="M3.5992 99.4088
L3.5387 99.5298
" />
<path d="M3.5387 99.5298
L3.4782 99.5903
" />
<path d="M3.4782 99.5903
L3.3573 99.6507
" />
<path d="M3.3573 99.6507
L2.9944 99.6507
" />
<path d="M2.9944 99.6507
L2.8735 99.5903
" />
<path d="M2.8735 99.5903
L2.8130 99.5298
" />
<path d="M4.7482 98.3807
L4.1434 98.3807
" />
<path d="M4.1434 98.3807
L4.0830 98.9855
" />
<path d="M4.0830 98.9855
L4.1434 98.9250
" />
<path d="M4.1434 98.9250
L4.2644 98.8645
" />
<path d="M4.2644 98.8645
L4.5668 98.8645
" />
<path d="M4.5668 98.8645
L4.6877 98.9250
" />
<path d="M4.6877 98.9250
L4.7482 98.9855
" />
<path d="M4.7482 98.9855
L4.8087 99.1064
" />
<path d="M4.8087 99.1064
L4.8087 99.4088
" />
<path d="M4.8087 99.4088
L4.7482 99.5298
" />
<path d="M4.7482 99.5298
L4.6877 99.5903
" />
<path d="M4.6877 99.5903
L4.5668 99.6507
" />
<path d="M4.5668 99.6507
L4.2644 99.6507
" />
<path d="M4.2644 99.6507
L4.1434 99.5903
" />
<path d="M4.1434 99.5903
L4.0830 99.5298
" />
</g></g>
<g style="fill:#840000; fill-opacity:0.0; 
stroke:#840000; stroke-width:0.1524; stroke-opacity:1; 
stroke-linecap:round; stroke-linejoin:round;">
<path d="M5.7461 102.6002
L1.9361 102.6002
" />
</g>
<g style="fill:#A90000; fill-opacity:0.0; 
stroke:#A90000; stroke-width:0.1524; stroke-opacity:1; 
stroke-linecap:round; stroke-linejoin:round;">
<text x="3.8411" y="102.3462"
textLength="2.5460" font-size="1.6933" lengthAdjust="spacingAndGlyphs"
text-anchor="middle" opacity="0">36</text>
<g class="stroked-text"><desc>36</desc>
<path d="M2.8130 100.9207
L3.5992 100.9207
" />
<path d="M3.5992 100.9207
L3.1758 101.4045
" />
<path d="M3.1758 101.4045
L3.3573 101.4045
" />
<path d="M3.3573 101.4045
L3.4782 101.4650
" />
<path d="M3.4782 101.4650
L3.5387 101.5255
" />
<path d="M3.5387 101.5255
L3.5992 101.6464
" />
<path d="M3.5992 101.6464
L3.5992 101.9488
" />
<path d="M3.5992 101.9488
L3.5387 102.0698
" />
<path d="M3.5387 102.0698
L3.4782 102.1303
" />
<path d="M3.4782 102.1303
L3.3573 102.1907
" />
<path d="M3.3573 102.1907
L2.9944 102.1907
" />
<path d="M2.9944 102.1907
L2.8735 102.1303
" />
<path d="M2.8735 102.1303
L2.8130 102.0698
" />
<path d="M4.6877 100.9207
L4.4458 100.9207
" />
<path d="M4.4458 100.9207
L4.3249 100.9812
" />
<path d="M4.3249 100.9812
L4.2644 101.0417
" />
<path d="M4.2644 101.0417
L4.1434 101.2231
" />
<path d="M4.1434 101.2231
L4.0830 101.4650
" />
<path d="M4.0830 101.4650
L4.0830 101.9488
" />
<path d="M4.0830 101.9488
L4.1434 102.0698
" />
<path d="M4.1434 102.0698
L4.2039 102.1303
" />
<path d="M4.2039 102.1303
L4.3249 102.1907
" />
<path d="M4.3249 102.1907
L4.5668 102.1907
" />
<path d="M4.5668 102.1907
L4.6877 102.1303
" />
<path d="M4.6877 102.1303
L4.7482 102.0698
" />
<path d="M4.7482 102.0698
L4.8087 101.9488
" />
<path d="M4.8087 101.9488
L4.8087 101.6464
" />
<path d="M4.8087 101.6464
L4.7482 101.5255
" />
<path d="M4.7482 101.5255
L4.6877 101.4650
" />
<path d="M4.6877 101.4650
L4.5668 101.4045
" />
<path d="M4.5668 101.4045
L4.3249 101.4045
" />
<path d="M4.3249 101.4045
L4.2039 101.4650
" />
<path d="M4.2039 101.4650
L4.1434 101.5255
" />
<path d="M4.1434 101.5255
L4.0830 101.6464
" />
</g></g>
<g style="fill:#840000; fill-opacity:0.0; 
stroke:#840000; stroke-width:0.1524; stroke-opacity:1; 
stroke-linecap:round; stroke-linejoin:round;">
<path d="M5.7461 105.1402
L1.9361 105.1402
" />
</g>
<g style="fill:#A90000; fill-opacity:0.0; 
stroke:#A90000; stroke-width:0.1524; stroke-opacity:1; 
stroke-linecap:round; stroke-linejoin:round;">
<text x="3.8411" y="104.8862"
textLength="2.5460" font-size="1.6933" lengthAdjust="spacingAndGlyphs"
text-anchor="middle" opacity="0">37</text>
<g class="stroked-text"><desc>37</desc>
<path d="M2.8130 103.4607
L3.5992 103.4607
" />
<path d="M3.5992 103.4607
L3.1758 103.9445
" />
<path d="M3.1758 103.9445
L3.3573 103.9445
" />
<path d="M3.3573 103.9445
L3.4782 104.0050
" />
<path d="M3.4782 104.0050
L3.5387 104.0655
" />
<path d="M3.5387 104.0655
L3.5992 104.1864
" />
<path d="M3.5992 104.1864
L3.5992 104.4888
" />
<path d="M3.5992 104.4888
L3.5387 104.6098
" />
<path d="M3.5387 104.6098
L3.4782 104.6703
" />
<path d="M3.4782 104.6703
L3.3573 104.7307
" />
<path d="M3.3573 104.7307
L2.9944 104.7307
" />
<path d="M2.9944 104.7307
L2.8735 104.6703
" />
<path d="M2.8735 104.6703
L2.8130 104.6098
" />
<path d="M4.0225 103.4607
L4.8691 103.4607
" />
<path d="M4.8691 103.4607
L4.3249 104.7307
" />
</g></g>
<g style="fill:#840000; fill-opacity:0.0; 
stroke:#840000; stroke-width:0.1524; stroke-opacity:1; 
stroke-linecap:round; stroke-linejoin:round;">
<path d="M5.7461 107.6802
L1.9361 107.6802
" />
</g>
<g style="fill:#A90000; fill-opacity:0.0; 
stroke:#A90000; stroke-width:0.1524; stroke-opacity:1; 
stroke-linecap:round; stroke-linejoin:round;">
<text x="3.8411" y="107.4262"
textLength="2.5460" font-size="1.6933" lengthAdjust="spacingAndGlyphs"
text-anchor="middle" opacity="0">38</text>
<g class="stroked-text"><desc>38</desc>
<path d="M2.8130 106.0007
L3.5992 106.0007
" />
<path d="M3.5992 106.0007
L3.1758 106.4845
" />
<path d="M3.1758 106.4845
L3.3573 106.4845
" />
<path d="M3.3573 106.4845
L3.4782 106.5450
" />
<path d="M3.4782 106.5450
L3.5387 106.6055
" />
<path d="M3.5387 106.6055
L3.5992 106.7264
" />
<path d="M3.5992 106.7264
L3.5992 107.0288
" />
<path d="M3.5992 107.0288
L3.5387 107.1498
" />
<path d="M3.5387 107.1498
L3.4782 107.2103
" />
<path d="M3.4782 107.2103
L3.3573 107.2707
" />
<path d="M3.3573 107.2707
L2.9944 107.2707
" />
<path d="M2.9944 107.2707
L2.8735 107.2103
" />
<path d="M2.8735 107.2103
L2.8130 107.1498
" />
<path d="M4.3249 106.5450
L4.2039 106.4845
" />
<path d="M4.2039 106.4845
L4.1434 106.4241
" />
<path d="M4.1434 106.4241
L4.0830 106.3031
" />
<path d="M4.0830 106.3031
L4.0830 106.2426
" />
<path d="M4.0830 106.2426
L4.1434 106.1217
" />
<path d="M4.1434 106.1217
L4.2039 106.0612
" />
<path d="M4.2039 106.0612
L4.3249 106.0007
" />
<path d="M4.3249 106.0007
L4.5668 106.0007
" />
<path d="M4.5668 106.0007
L4.6877 106.0612
" />
<path d="M4.6877 106.0612
L4.7482 106.1217
" />
<path d="M4.7482 106.1217
L4.8087 106.2426
" />
<path d="M4.8087 106.2426
L4.8087 106.3031
" />
<path d="M4.8087 106.3031
L4.7482 106.4241
" />
<path d="M4.7482 106.4241
L4.6877 106.4845
" />
<path d="M4.6877 106.4845
L4.5668 106.5450
" />
<path d="M4.5668 106.5450
L4.3249 106.5450
" />
<path d="M4.3249 106.5450
L4.2039 106.6055
" />
<path d="M4.2039 106.6055
L4.1434 106.6660
" />
<path d="M4.1434 106.6660
L4.0830 106.7869
" />
<path d="M4.0830 106.7869
L4.0830 107.0288
" />
<path d="M4.0830 107.0288
L4.1434 107.1498
" />
<path d="M4.1434 107.1498
L4.2039 107.2103
" />
<path d="M4.2039 107.2103
L4.3249 107.2707
" />
<path d="M4.3249 107.2707
L4.5668 107.2707
" />
<path d="M4.5668 107.2707
L4.6877 107.2103
" />
<path d="M4.6877 107.2103
L4.7482 107.1498
" />
<path d="M4.7482 107.1498
L4.8087 107.0288
" />
<path d="M4.8087 107.0288
L4.8087 106.7869
" />
<path d="M4.8087 106.7869
L4.7482 106.6660
" />
<path d="M4.7482 106.6660
L4.6877 106.6055
" />
<path d="M4.6877 106.6055
L4.5668 106.5450
" />
</g></g>
<g style="fill:#840000; fill-opacity:0.0; 
stroke:#840000; stroke-width:0.1524; stroke-opacity:1; 
stroke-linecap:round; stroke-linejoin:round;">
<path d="M5.7461 110.2202
L1.9361 110.2202
" />
</g>
<g style="fill:#A90000; fill-opacity:0.0; 
stroke:#A90000; stroke-width:0.1524; stroke-opacity:1; 
stroke-linecap:round; stroke-linejoin:round;">
<text x="3.8411" y="109.9662"
textLength="2.5460" font-size="1.6933" lengthAdjust="spacingAndGlyphs"
text-anchor="middle" opacity="0">39</text>
<g class="stroked-text"><desc>39</desc>
<path d="M2.8130 108.5407
L3.5992 108.5407
" />
<path d="M3.5992 108.5407
L3.1758 109.0245
" />
<path d="M3.1758 109.0245
L3.3573 109.0245
" />
<path d="M3.3573 109.0245
L3.4782 109.0850
" />
<path d="M3.4782 109.0850
L3.5387 109.1455
" />
<path d="M3.5387 109.1455
L3.5992 109.2664
" />
<path d="M3.5992 109.2664
L3.5992 109.5688
" />
<path d="M3.5992 109.5688
L3.5387 109.6898
" />
<path d="M3.5387 109.6898
L3.4782 109.7503
" />
<path d="M3.4782 109.7503
L3.3573 109.8107
" />
<path d="M3.3573 109.8107
L2.9944 109.8107
" />
<path d="M2.9944 109.8107
L2.8735 109.7503
" />
<path d="M2.8735 109.7503
L2.8130 109.6898
" />
<path d="M4.2039 109.8107
L4.4458 109.8107
" />
<path d="M4.4458 109.8107
L4.5668 109.7503
" />
<path d="M4.5668 109.7503
L4.6272 109.6898
" />
<path d="M4.6272 109.6898
L4.7482 109.5083
" />
<path d="M4.7482 109.5083
L4.8087 109.2664
" />
<path d="M4.8087 109.2664
L4.8087 108.7826
" />
<path d="M4.8087 108.7826
L4.7482 108.6617
" />
<path d="M4.7482 108.6617
L4.6877 108.6012
" />
<path d="M4.6877 108.6012
L4.5668 108.5407
" />
<path d="M4.5668 108.5407
L4.3249 108.5407
" />
<path d="M4.3249 108.5407
L4.2039 108.6012
" />
<path d="M4.2039 108.6012
L4.1434 108.6617
" />
<path d="M4.1434 108.6617
L4.0830 108.7826
" />
<path d="M4.0830 108.7826
L4.0830 109.0850
" />
<path d="M4.0830 109.0850
L4.1434 109.2060
" />
<path d="M4.1434 109.2060
L4.2039 109.2664
" />
<path d="M4.2039 109.2664
L4.3249 109.3269
" />
<path d="M4.3249 109.3269
L4.5668 109.3269
" />
<path d="M4.5668 109.3269
L4.6877 109.2664
" />
<path d="M4.6877 109.2664
L4.7482 109.2060
" />
<path d="M4.7482 109.2060
L4.8087 109.0850
" />
</g></g>
<g style="fill:#840000; fill-opacity:0.0; 
stroke:#840000; stroke-width:0.1524; stroke-opacity:1; 
stroke-linecap:round; stroke-linejoin:round;">
<path d="M5.7461 21.3202
L1.9361 21.3202
" />
</g>
<g style="fill:#A90000; fill-opacity:0.0; 
stroke:#A90000; stroke-width:0.1524; stroke-opacity:1; 
stroke-linecap:round; stroke-linejoin:round;">
<text x="3.8411" y="21.0662"
textLength="1.3365" font-size="1.6933" lengthAdjust="spacingAndGlyphs"
text-anchor="middle" opacity="0">4</text>
<g class="stroked-text"><desc>4</desc>
<path d="M4.0830 20.0641
L4.0830 20.9107
" />
<path d="M3.7806 19.5803
L3.4783 20.4874
" />
<path d="M3.4783 20.4874
L4.2644 20.4874
" />
</g></g>
<g style="fill:#840000; fill-opacity:0.0; 
stroke:#840000; stroke-width:0.1524; stroke-opacity:1; 
stroke-linecap:round; stroke-linejoin:round;">
<path d="M5.7461 23.8602
L1.9361 23.8602
" />
</g>
<g style="fill:#A90000; fill-opacity:0.0; 
stroke:#A90000; stroke-width:0.1524; stroke-opacity:1; 
stroke-linecap:round; stroke-linejoin:round;">
<text x="3.8411" y="23.6062"
textLength="1.3365" font-size="1.6933" lengthAdjust="spacingAndGlyphs"
text-anchor="middle" opacity="0">5</text>
<g class="stroked-text"><desc>5</desc>
<path d="M4.1435 22.1807
L3.5387 22.1807
" />
<path d="M3.5387 22.1807
L3.4783 22.7855
" />
<path d="M3.4783 22.7855
L3.5387 22.7250
" />
<path d="M3.5387 22.7250
L3.6597 22.6645
" />
<path d="M3.6597 22.6645
L3.9621 22.6645
" />
<path d="M3.9621 22.6645
L4.0830 22.7250
" />
<path d="M4.0830 22.7250
L4.1435 22.7855
" />
<path d="M4.1435 22.7855
L4.2040 22.9064
" />
<path d="M4.2040 22.9064
L4.2040 23.2088
" />
<path d="M4.2040 23.2088
L4.1435 23.3298
" />
<path d="M4.1435 23.3298
L4.0830 23.3903
" />
<path d="M4.0830 23.3903
L3.9621 23.4507
" />
<path d="M3.9621 23.4507
L3.6597 23.4507
" />
<path d="M3.6597 23.4507
L3.5387 23.3903
" />
<path d="M3.5387 23.3903
L3.4783 23.3298
" />
</g></g>
<g style="fill:#840000; fill-opacity:0.0; 
stroke:#840000; stroke-width:0.1524; stroke-opacity:1; 
stroke-linecap:round; stroke-linejoin:round;">
<path d="M5.7461 26.4002
L1.9361 26.4002
" />
</g>
<g style="fill:#A90000; fill-opacity:0.0; 
stroke:#A90000; stroke-width:0.1524; stroke-opacity:1; 
stroke-linecap:round; stroke-linejoin:round;">
<text x="3.8411" y="26.1462"
textLength="1.3365" font-size="1.6933" lengthAdjust="spacingAndGlyphs"
text-anchor="middle" opacity="0">6</text>
<g class="stroked-text"><desc>6</desc>
<path d="M4.0830 24.7207
L3.8411 24.7207
" />
<path d="M3.8411 24.7207
L3.7202 24.7812
" />
<path d="M3.7202 24.7812
L3.6597 24.8417
" />
<path d="M3.6597 24.8417
L3.5387 25.0231
" />
<path d="M3.5387 25.0231
L3.4783 25.2650
" />
<path d="M3.4783 25.2650
L3.4783 25.7488
" />
<path d="M3.4783 25.7488
L3.5387 25.8698
" />
<path d="M3.5387 25.8698
L3.5992 25.9303
" />
<path d="M3.5992 25.9303
L3.7202 25.9907
" />
<path d="M3.7202 25.9907
L3.9621 25.9907
" />
<path d="M3.9621 25.9907
L4.0830 25.9303
" />
<path d="M4.0830 25.9303
L4.1435 25.8698
" />
<path d="M4.1435 25.8698
L4.2040 25.7488
" />
<path d="M4.2040 25.7488
L4.2040 25.4464
" />
<path d="M4.2040 25.4464
L4.1435 25.3255
" />
<path d="M4.1435 25.3255
L4.0830 25.2650
" />
<path d="M4.0830 25.2650
L3.9621 25.2045
" />
<path d="M3.9621 25.2045
L3.7202 25.2045
" />
<path d="M3.7202 25.2045
L3.5992 25.2650
" />
<path d="M3.5992 25.2650
L3.5387 25.3255
" />
<path d="M3.5387 25.3255
L3.4783 25.4464
" />
</g></g>
<g style="fill:#840000; fill-opacity:0.0; 
stroke:#840000; stroke-width:0.1524; stroke-opacity:1; 
stroke-linecap:round; stroke-linejoin:round;">
<path d="M5.7461 28.9402
L1.9361 28.9402
" />
</g>
<g style="fill:#A90000; fill-opacity:0.0; 
stroke:#A90000; stroke-width:0.1524; stroke-opacity:1; 
stroke-linecap:round; stroke-linejoin:round;">
<text x="3.8411" y="28.6862"
textLength="1.3365" font-size="1.6933" lengthAdjust="spacingAndGlyphs"
text-anchor="middle" opacity="0">7</text>
<g class="stroked-text"><desc>7</desc>
<path d="M3.4178 27.2607
L4.2644 27.2607
" />
<path d="M4.2644 27.2607
L3.7202 28.5307
" />
</g></g>
<g style="fill:#840000; fill-opacity:0.0; 
stroke:#840000; stroke-width:0.1524; stroke-opacity:1; 
stroke-linecap:round; stroke-linejoin:round;">
<path d="M5.7461 31.4802
L1.9361 31.4802
" />
</g>
<g style="fill:#A90000; fill-opacity:0.0; 
stroke:#A90000; stroke-width:0.1524; stroke-opacity:1; 
stroke-linecap:round; stroke-linejoin:round;">
<text x="3.8411" y="31.2262"
textLength="1.3365" font-size="1.6933" lengthAdjust="spacingAndGlyphs"
text-anchor="middle" opacity="0">8</text>
<g class="stroked-text"><desc>8</desc>
<path d="M3.7202 30.3450
L3.5992 30.2845
" />
<path d="M3.5992 30.2845
L3.5387 30.2241
" />
<path d="M3.5387 30.2241
L3.4783 30.1031
" />
<path d="M3.4783 30.1031
L3.4783 30.0426
" />
<path d="M3.4783 30.0426
L3.5387 29.9217
" />
<path d="M3.5387 29.9217
L3.5992 29.8612
" />
<path d="M3.5992 29.8612
L3.7202 29.8007
" />
<path d="M3.7202 29.8007
L3.9621 29.8007
" />
<path d="M3.9621 29.8007
L4.0830 29.8612
" />
<path d="M4.0830 29.8612
L4.1435 29.9217
" />
<path d="M4.1435 29.9217
L4.2040 30.0426
" />
<path d="M4.2040 30.0426
L4.2040 30.1031
" />
<path d="M4.2040 30.1031
L4.1435 30.2241
" />
<path d="M4.1435 30.2241
L4.0830 30.2845
" />
<path d="M4.0830 30.2845
L3.9621 30.3450
" />
<path d="M3.9621 30.3450
L3.7202 30.3450
" />
<path d="M3.7202 30.3450
L3.5992 30.4055
" />
<path d="M3.5992 30.4055
L3.5387 30.4660
" />
<path d="M3.5387 30.4660
L3.4783 30.5869
" />
<path d="M3.4783 30.5869
L3.4783 30.8288
" />
<path d="M3.4783 30.8288
L3.5387 30.9498
" />
<path d="M3.5387 30.9498
L3.5992 31.0103
" />
<path d="M3.5992 31.0103
L3.7202 31.0707
" />
<path d="M3.7202 31.0707
L3.9621 31.0707
" />
<path d="M3.9621 31.0707
L4.0830 31.0103
" />
<path d="M4.0830 31.0103
L4.1435 30.9498
" />
<path d="M4.1435 30.9498
L4.2040 30.8288
" />
<path d="M4.2040 30.8288
L4.2040 30.5869
" />
<path d="M4.2040 30.5869
L4.1435 30.4660
" />
<path d="M4.1435 30.4660
L4.0830 30.4055
" />
<path d="M4.0830 30.4055
L3.9621 30.3450
" />
</g></g>
<g style="fill:#840000; fill-opacity:0.0; 
stroke:#840000; stroke-width:0.1524; stroke-opacity:1; 
stroke-linecap:round; stroke-linejoin:round;">
<path d="M5.7461 34.0202
L1.9361 34.0202
" />
</g>
<g style="fill:#A90000; fill-opacity:0.0; 
stroke:#A90000; stroke-width:0.1524; stroke-opacity:1; 
stroke-linecap:round; stroke-linejoin:round;">
<text x="3.8411" y="33.7662"
textLength="1.3365" font-size="1.6933" lengthAdjust="spacingAndGlyphs"
text-anchor="middle" opacity="0">9</text>
<g class="stroked-text"><desc>9</desc>
<path d="M3.5992 33.6107
L3.8411 33.6107
" />
<path d="M3.8411 33.6107
L3.9621 33.5503
" />
<path d="M3.9621 33.5503
L4.0225 33.4898
" />
<path d="M4.0225 33.4898
L4.1435 33.3083
" />
<path d="M4.1435 33.3083
L4.2040 33.0664
" />
<path d="M4.2040 33.0664
L4.2040 32.5826
" />
<path d="M4.2040 32.5826
L4.1435 32.4617
" />
<path d="M4.1435 32.4617
L4.0830 32.4012
" />
<path d="M4.0830 32.4012
L3.9621 32.3407
" />
<path d="M3.9621 32.3407
L3.7202 32.3407
" />
<path d="M3.7202 32.3407
L3.5992 32.4012
" />
<path d="M3.5992 32.4012
L3.5387 32.4617
" />
<path d="M3.5387 32.4617
L3.4783 32.5826
" />
<path d="M3.4783 32.5826
L3.4783 32.8850
" />
<path d="M3.4783 32.8850
L3.5387 33.0060
" />
<path d="M3.5387 33.0060
L3.5992 33.0664
" />
<path d="M3.5992 33.0664
L3.7202 33.1269
" />
<path d="M3.7202 33.1269
L3.9621 33.1269
" />
<path d="M3.9621 33.1269
L4.0830 33.0664
" />
<path d="M4.0830 33.0664
L4.1435 33.0060
" />
<path d="M4.1435 33.0060
L4.2040 32.8850
" />
</g></g>
<g style="fill:#840084; fill-opacity:0.0; 
stroke:#840084; stroke-width:0.1524; stroke-opacity:1; 
stroke-linecap:round; stroke-linejoin:round;">
</g>
<g style="fill:#006464; fill-opacity:0.0; 
stroke:#006464; stroke-width:0.1524; stroke-opacity:1; 
stroke-linecap:round; stroke-linejoin:round;">
</g>
<g style="fill:#006464; fill-opacity:0.0; 
stroke:#006464; stroke-width:0.1588; stroke-opacity:1; 
stroke-linecap:round; stroke-linejoin:round;">
<text x="7.0161" y="11.7952"
textLength="2.1992" font-size="1.6933" lengthAdjust="spacingAndGlyphs"
text-anchor="middle" opacity="0">J?</text>
<g class="stroked-text"><desc>J?</desc>
<path d="M6.6532 10.4777
L6.6532 11.3849
" />
<path d="M6.6532 11.3849
L6.5927 11.5663
" />
<path d="M6.5927 11.5663
L6.4718 11.6873
" />
<path d="M6.4718 11.6873
L6.2903 11.7477
" />
<path d="M6.2903 11.7477
L6.1694 11.7477
" />
<path d="M7.4394 11.6268
L7.4998 11.6873
" />
<path d="M7.4998 11.6873
L7.4394 11.7477
" />
<path d="M7.4394 11.7477
L7.3789 11.6873
" />
<path d="M7.3789 11.6873
L7.4394 11.6268
" />
<path d="M7.4394 11.6268
L7.4394 11.7477
" />
<path d="M7.1975 10.5382
L7.3184 10.4777
" />
<path d="M7.3184 10.4777
L7.6208 10.4777
" />
<path d="M7.6208 10.4777
L7.7417 10.5382
" />
<path d="M7.7417 10.5382
L7.8022 10.6592
" />
<path d="M7.8022 10.6592
L7.8022 10.7801
" />
<path d="M7.8022 10.7801
L7.7417 10.9011
" />
<path d="M7.7417 10.9011
L7.6813 10.9615
" />
<path d="M7.6813 10.9615
L7.5603 11.0220
" />
<path d="M7.5603 11.0220
L7.4998 11.0825
" />
<path d="M7.4998 11.0825
L7.4394 11.2034
" />
<path d="M7.4394 11.2034
L7.4394 11.2639
" />
</g><text x="7.0161" y="113.3952"
textLength="11.6937" font-size="1.6933" lengthAdjust="spacingAndGlyphs"
text-anchor="middle" opacity="0">Conn_01x39</text>
<g class="stroked-text"><desc>Conn_01x39</desc>
<path d="M2.2688 113.2268
L2.2084 113.2873
" />
<path d="M2.2084 113.2873
L2.0269 113.3477
" />
<path d="M2.0269 113.3477
L1.9060 113.3477
" />
<path d="M1.9060 113.3477
L1.7246 113.2873
" />
<path d="M1.7246 113.2873
L1.6036 113.1663
" />
<path d="M1.6036 113.1663
L1.5431 113.0453
" />
<path d="M1.5431 113.0453
L1.4827 112.8034
" />
<path d="M1.4827 112.8034
L1.4827 112.6220
" />
<path d="M1.4827 112.6220
L1.5431 112.3801
" />
<path d="M1.5431 112.3801
L1.6036 112.2592
" />
<path d="M1.6036 112.2592
L1.7246 112.1382
" />
<path d="M1.7246 112.1382
L1.9060 112.0777
" />
<path d="M1.9060 112.0777
L2.0269 112.0777
" />
<path d="M2.0269 112.0777
L2.2084 112.1382
" />
<path d="M2.2084 112.1382
L2.2688 112.1987
" />
<path d="M2.9946 113.3477
L2.8736 113.2873
" />
<path d="M2.8736 113.2873
L2.8131 113.2268
" />
<path d="M2.8131 113.2268
L2.7527 113.1058
" />
<path d="M2.7527 113.1058
L2.7527 112.7430
" />
<path d="M2.7527 112.7430
L2.8131 112.6220
" />
<path d="M2.8131 112.6220
L2.8736 112.5615
" />
<path d="M2.8736 112.5615
L2.9946 112.5011
" />
<path d="M2.9946 112.5011
L3.1760 112.5011
" />
<path d="M3.1760 112.5011
L3.2969 112.5615
" />
<path d="M3.2969 112.5615
L3.3574 112.6220
" />
<path d="M3.3574 112.6220
L3.4179 112.7430
" />
<path d="M3.4179 112.7430
L3.4179 113.1058
" />
<path d="M3.4179 113.1058
L3.3574 113.2268
" />
<path d="M3.3574 113.2268
L3.2969 113.2873
" />
<path d="M3.2969 113.2873
L3.1760 113.3477
" />
<path d="M3.1760 113.3477
L2.9946 113.3477
" />
<path d="M3.9621 112.5011
L3.9621 113.3477
" />
<path d="M3.9621 112.6220
L4.0226 112.5615
" />
<path d="M4.0226 112.5615
L4.1436 112.5011
" />
<path d="M4.1436 112.5011
L4.3250 112.5011
" />
<path d="M4.3250 112.5011
L4.4459 112.5615
" />
<path d="M4.4459 112.5615
L4.5064 112.6825
" />
<path d="M4.5064 112.6825
L4.5064 113.3477
" />
<path d="M5.1111 112.5011
L5.1111 113.3477
" />
<path d="M5.1111 112.6220
L5.1716 112.5615
" />
<path d="M5.1716 112.5615
L5.2926 112.5011
" />
<path d="M5.2926 112.5011
L5.4740 112.5011
" />
<path d="M5.4740 112.5011
L5.5949 112.5615
" />
<path d="M5.5949 112.5615
L5.6554 112.6825
" />
<path d="M5.6554 112.6825
L5.6554 113.3477
" />
<path d="M5.9578 113.4687
L6.9254 113.4687
" />
<path d="M7.4696 112.0777
L7.5906 112.0777
" />
<path d="M7.5906 112.0777
L7.7115 112.1382
" />
<path d="M7.7115 112.1382
L7.7720 112.1987
" />
<path d="M7.7720 112.1987
L7.8325 112.3196
" />
<path d="M7.8325 112.3196
L7.8930 112.5615
" />
<path d="M7.8930 112.5615
L7.8930 112.8639
" />
<path d="M7.8930 112.8639
L7.8325 113.1058
" />
<path d="M7.8325 113.1058
L7.7720 113.2268
" />
<path d="M7.7720 113.2268
L7.7115 113.2873
" />
<path d="M7.7115 113.2873
L7.5906 113.3477
" />
<path d="M7.5906 113.3477
L7.4696 113.3477
" />
<path d="M7.4696 113.3477
L7.3487 113.2873
" />
<path d="M7.3487 113.2873
L7.2882 113.2268
" />
<path d="M7.2882 113.2268
L7.2277 113.1058
" />
<path d="M7.2277 113.1058
L7.1673 112.8639
" />
<path d="M7.1673 112.8639
L7.1673 112.5615
" />
<path d="M7.1673 112.5615
L7.2277 112.3196
" />
<path d="M7.2277 112.3196
L7.2882 112.1987
" />
<path d="M7.2882 112.1987
L7.3487 112.1382
" />
<path d="M7.3487 112.1382
L7.4696 112.0777
" />
<path d="M9.1025 113.3477
L8.3768 113.3477
" />
<path d="M8.7396 113.3477
L8.7396 112.0777
" />
<path d="M8.7396 112.0777
L8.6187 112.2592
" />
<path d="M8.6187 112.2592
L8.4977 112.3801
" />
<path d="M8.4977 112.3801
L8.3768 112.4406
" />
<path d="M9.5258 113.3477
L10.1910 112.5011
" />
<path d="M9.5258 112.5011
L10.1910 113.3477
" />
<path d="M10.5539 112.0777
L11.3401 112.0777
" />
<path d="M11.3401 112.0777
L10.9167 112.5615
" />
<path d="M10.9167 112.5615
L11.0982 112.5615
" />
<path d="M11.0982 112.5615
L11.2191 112.6220
" />
<path d="M11.2191 112.6220
L11.2796 112.6825
" />
<path d="M11.2796 112.6825
L11.3401 112.8034
" />
<path d="M11.3401 112.8034
L11.3401 113.1058
" />
<path d="M11.3401 113.1058
L11.2796 113.2268
" />
<path d="M11.2796 113.2268
L11.2191 113.2873
" />
<path d="M11.2191 113.2873
L11.0982 113.3477
" />
<path d="M11.0982 113.3477
L10.7353 113.3477
" />
<path d="M10.7353 113.3477
L10.6144 113.2873
" />
<path d="M10.6144 113.2873
L10.5539 113.2268
" />
<path d="M11.9448 113.3477
L12.1867 113.3477
" />
<path d="M12.1867 113.3477
L12.3077 113.2873
" />
<path d="M12.3077 113.2873
L12.3681 113.2268
" />
<path d="M12.3681 113.2268
L12.4891 113.0453
" />
<path d="M12.4891 113.0453
L12.5496 112.8034
" />
<path d="M12.5496 112.8034
L12.5496 112.3196
" />
<path d="M12.5496 112.3196
L12.4891 112.1987
" />
<path d="M12.4891 112.1987
L12.4286 112.1382
" />
<path d="M12.4286 112.1382
L12.3077 112.0777
" />
<path d="M12.3077 112.0777
L12.0658 112.0777
" />
<path d="M12.0658 112.0777
L11.9448 112.1382
" />
<path d="M11.9448 112.1382
L11.8843 112.1987
" />
<path d="M11.8843 112.1987
L11.8239 112.3196
" />
<path d="M11.8239 112.3196
L11.8239 112.6220
" />
<path d="M11.8239 112.6220
L11.8843 112.7430
" />
<path d="M11.8843 112.7430
L11.9448 112.8034
" />
<path d="M11.9448 112.8034
L12.0658 112.8639
" />
<path d="M12.0658 112.8639
L12.3077 112.8639
" />
<path d="M12.3077 112.8639
L12.4286 112.8034
" />
<path d="M12.4286 112.8034
L12.4891 112.7430
" />
<path d="M12.4891 112.7430
L12.5496 112.6220
" />
</g></g>
<g style="fill:#840084; fill-opacity:0.0; 
stroke:#840084; stroke-width:0.1588; stroke-opacity:1; 
stroke-linecap:round; stroke-linejoin:round;">
<text x="7.0161" y="62.5952"
textLength="1.0501" font-size="1.6933" lengthAdjust="spacingAndGlyphs"
text-anchor="middle" opacity="0">~</text>
<g class="stroked-text"><desc>~</desc>
<path d="M6.6835 62.0639
L6.7440 62.0034
" />
<path d="M6.7440 62.0034
L6.8649 61.9430
" />
<path d="M6.8649 61.9430
L7.1068 62.0639
" />
<path d="M7.1068 62.0639
L7.2278 62.0034
" />
<path d="M7.2278 62.0034
L7.2883 61.9430
" />
</g></g> 
</svg>
