<?xml version="1.0" standalone="no"?>
 <!DOCTYPE svg PUBLIC "-//W3C//DTD SVG 1.1//EN" 
 "http://www.w3.org/Graphics/SVG/1.1/DTD/svg11.dtd"> 
<svg
  xmlns:svg="http://www.w3.org/2000/svg"
  xmlns="http://www.w3.org/2000/svg"
  xmlns:xlink="http://www.w3.org/1999/xlink"
  version="1.1"
  width="95.3770mm" height="24.3840mm" viewBox="0.0000 0.0000 95.3770 24.3840">
<title>SVG Image created as working.svg date 2023/07/31 17:25:09 </title>
  <desc>Image generated by Eeschema-SVG </desc>
<g style="fill:#000000; fill-opacity:1.0000;stroke:#000000; stroke-opacity:1.0000;
stroke-linecap:round; stroke-linejoin:round;"
 transform="translate(0 0) scale(1 1)">
</g>
<g style="fill:#840000; fill-opacity:0.0; 
stroke:#840000; stroke-width:0.0000; stroke-opacity:1; 
stroke-linecap:round; stroke-linejoin:round;">
</g>
<g style="fill:#FFFFC2; fill-opacity:0.0; 
stroke:#FFFFC2; stroke-width:0.0000; stroke-opacity:1; 
stroke-linecap:round; stroke-linejoin:round;">
</g>
<g style="fill:#FFFFC2; fill-opacity:1.0000; 
stroke:#FFFFC2; stroke-width:0.0000; stroke-opacity:1; 
stroke-linecap:round; stroke-linejoin:round;">
<path style="fill:#FFFFC2; fill-opacity:1.0000; 
stroke:#FFFFC2; stroke-width:0.0000; stroke-opacity:1; 
stroke-linecap:round; stroke-linejoin:round;fill-rule:evenodd;"
d="M 39.9889,4.5721
55.2289,12.1921
39.9889,19.8121
Z" /> 
</g>
<g style="fill:#840084; fill-opacity:1.0000; 
stroke:#840084; stroke-width:0.0000; stroke-opacity:1; 
stroke-linecap:round; stroke-linejoin:round;">
</g>
<g style="fill:#840000; fill-opacity:1.0000; 
stroke:#840000; stroke-width:0.0000; stroke-opacity:1; 
stroke-linecap:round; stroke-linejoin:round;">
</g>
<g style="fill:#840000; fill-opacity:0.0; 
stroke:#840000; stroke-width:0.2540; stroke-opacity:1; 
stroke-linecap:round; stroke-linejoin:round;">
<path style="fill:#840000; fill-opacity:0.0; 
stroke:#840000; stroke-width:0.2540; stroke-opacity:1; 
stroke-linecap:round; stroke-linejoin:round;fill:none"
d="M 39.9889,4.5721
55.2289,12.1921
39.9889,19.8121
Z" /> 
</g>
<g style="fill:#840000; fill-opacity:0.0; 
stroke:#840000; stroke-width:0.1524; stroke-opacity:1; 
stroke-linecap:round; stroke-linejoin:round;">
<path d="M50.1489 14.7321
L50.1489 17.2721
" />
</g>
<g style="fill:#006464; fill-opacity:0.0; 
stroke:#006464; stroke-width:0.1524; stroke-opacity:1; 
stroke-linecap:round; stroke-linejoin:round;">
</g>
<g style="fill:#006464; fill-opacity:0.0; 
stroke:#006464; stroke-width:0.1016; stroke-opacity:1; 
stroke-linecap:round; stroke-linejoin:round;">
<g transform="rotate(-90.000000 50.1489 14.6051)">
<text x="50.1489" y="14.8591"
textLength="2.1844" font-size="0.6773" lengthAdjust="spacingAndGlyphs"
text-anchor="start" opacity="0">SGND</text>
</g>
<g class="stroked-text"><desc>SGND</desc>
<path d="M50.3598 14.5083
L50.3839 14.4357
" />
<path d="M50.3839 14.4357
L50.3839 14.3148
" />
<path d="M50.3839 14.3148
L50.3598 14.2664
" />
<path d="M50.3598 14.2664
L50.3356 14.2422
" />
<path d="M50.3356 14.2422
L50.2872 14.2180
" />
<path d="M50.2872 14.2180
L50.2388 14.2180
" />
<path d="M50.2388 14.2180
L50.1904 14.2422
" />
<path d="M50.1904 14.2422
L50.1662 14.2664
" />
<path d="M50.1662 14.2664
L50.1420 14.3148
" />
<path d="M50.1420 14.3148
L50.1178 14.4115
" />
<path d="M50.1178 14.4115
L50.0937 14.4599
" />
<path d="M50.0937 14.4599
L50.0695 14.4841
" />
<path d="M50.0695 14.4841
L50.0211 14.5083
" />
<path d="M50.0211 14.5083
L49.9727 14.5083
" />
<path d="M49.9727 14.5083
L49.9243 14.4841
" />
<path d="M49.9243 14.4841
L49.9001 14.4599
" />
<path d="M49.9001 14.4599
L49.8759 14.4115
" />
<path d="M49.8759 14.4115
L49.8759 14.2906
" />
<path d="M49.8759 14.2906
L49.9001 14.2180
" />
<path d="M49.9001 13.7342
L49.8759 13.7826
" />
<path d="M49.8759 13.7826
L49.8759 13.8552
" />
<path d="M49.8759 13.8552
L49.9001 13.9277
" />
<path d="M49.9001 13.9277
L49.9485 13.9761
" />
<path d="M49.9485 13.9761
L49.9969 14.0003
" />
<path d="M49.9969 14.0003
L50.0937 14.0245
" />
<path d="M50.0937 14.0245
L50.1662 14.0245
" />
<path d="M50.1662 14.0245
L50.2630 14.0003
" />
<path d="M50.2630 14.0003
L50.3114 13.9761
" />
<path d="M50.3114 13.9761
L50.3598 13.9277
" />
<path d="M50.3598 13.9277
L50.3839 13.8552
" />
<path d="M50.3839 13.8552
L50.3839 13.8068
" />
<path d="M50.3839 13.8068
L50.3598 13.7342
" />
<path d="M50.3598 13.7342
L50.3356 13.7100
" />
<path d="M50.3356 13.7100
L50.1662 13.7100
" />
<path d="M50.1662 13.7100
L50.1662 13.8068
" />
<path d="M50.3839 13.4923
L49.8759 13.4923
" />
<path d="M49.8759 13.4923
L50.3839 13.2020
" />
<path d="M50.3839 13.2020
L49.8759 13.2020
" />
<path d="M50.3839 12.9601
L49.8759 12.9601
" />
<path d="M49.8759 12.9601
L49.8759 12.8391
" />
<path d="M49.8759 12.8391
L49.9001 12.7666
" />
<path d="M49.9001 12.7666
L49.9485 12.7182
" />
<path d="M49.9485 12.7182
L49.9969 12.6940
" />
<path d="M49.9969 12.6940
L50.0937 12.6698
" />
<path d="M50.0937 12.6698
L50.1662 12.6698
" />
<path d="M50.1662 12.6698
L50.2630 12.6940
" />
<path d="M50.2630 12.6940
L50.3114 12.7182
" />
<path d="M50.3114 12.7182
L50.3598 12.7666
" />
<path d="M50.3598 12.7666
L50.3839 12.8391
" />
<path d="M50.3839 12.8391
L50.3839 12.9601
" />
</g></g>
<g style="fill:#A90000; fill-opacity:0.0; 
stroke:#A90000; stroke-width:0.1016; stroke-opacity:1; 
stroke-linecap:round; stroke-linejoin:round;">
</g>
<g style="fill:#A90000; fill-opacity:0.0; 
stroke:#A90000; stroke-width:0.1524; stroke-opacity:1; 
stroke-linecap:round; stroke-linejoin:round;">
<g transform="rotate(-90.000000 49.8949 16.0021)">
<text x="49.8949" y="16.0021"
textLength="1.3365" font-size="1.6933" lengthAdjust="spacingAndGlyphs"
text-anchor="middle" opacity="0">1</text>
</g>
<g class="stroked-text"><desc>1</desc>
<path d="M49.7394 15.6391
L49.7394 16.3648
" />
<path d="M49.7394 16.0020
L48.4694 16.0020
" />
<path d="M48.4694 16.0020
L48.6509 16.1229
" />
<path d="M48.6509 16.1229
L48.7718 16.2439
" />
<path d="M48.7718 16.2439
L48.8323 16.3648
" />
</g></g>
<g style="fill:#840000; fill-opacity:0.0; 
stroke:#840000; stroke-width:0.1524; stroke-opacity:1; 
stroke-linecap:round; stroke-linejoin:round;">
<path d="M47.6089 8.3821
L47.6089 4.5721
" />
</g>
<g style="fill:#006464; fill-opacity:0.0; 
stroke:#006464; stroke-width:0.1524; stroke-opacity:1; 
stroke-linecap:round; stroke-linejoin:round;">
</g>
<g style="fill:#006464; fill-opacity:0.0; 
stroke:#006464; stroke-width:0.1016; stroke-opacity:1; 
stroke-linecap:round; stroke-linejoin:round;">
<g transform="rotate(-90.000000 47.6089 8.5091)">
<text x="47.6089" y="8.7631"
textLength="2.1118" font-size="0.6773" lengthAdjust="spacingAndGlyphs"
text-anchor="end" opacity="0">MUTE</text>
</g>
<g class="stroked-text"><desc>MUTE</desc>
<path d="M47.8439 10.3475
L47.3359 10.3475
" />
<path d="M47.3359 10.3475
L47.6988 10.1782
" />
<path d="M47.6988 10.1782
L47.3359 10.0088
" />
<path d="M47.3359 10.0088
L47.8439 10.0088
" />
<path d="M47.3359 9.7669
L47.7472 9.7669
" />
<path d="M47.7472 9.7669
L47.7956 9.7427
" />
<path d="M47.7956 9.7427
L47.8198 9.7185
" />
<path d="M47.8198 9.7185
L47.8439 9.6701
" />
<path d="M47.8439 9.6701
L47.8439 9.5734
" />
<path d="M47.8439 9.5734
L47.8198 9.5250
" />
<path d="M47.8198 9.5250
L47.7956 9.5008
" />
<path d="M47.7956 9.5008
L47.7472 9.4766
" />
<path d="M47.7472 9.4766
L47.3359 9.4766
" />
<path d="M47.3359 9.3073
L47.3359 9.0170
" />
<path d="M47.8439 9.1621
L47.3359 9.1621
" />
<path d="M47.5778 8.8477
L47.5778 8.6784
" />
<path d="M47.8439 8.6058
L47.8439 8.8477
" />
<path d="M47.8439 8.8477
L47.3359 8.8477
" />
<path d="M47.3359 8.8477
L47.3359 8.6058
" />
</g></g>
<g style="fill:#A90000; fill-opacity:0.0; 
stroke:#A90000; stroke-width:0.1016; stroke-opacity:1; 
stroke-linecap:round; stroke-linejoin:round;">
</g>
<g style="fill:#A90000; fill-opacity:0.0; 
stroke:#A90000; stroke-width:0.1524; stroke-opacity:1; 
stroke-linecap:round; stroke-linejoin:round;">
<g transform="rotate(-90.000000 47.3549 6.4771)">
<text x="47.3549" y="6.4771"
textLength="2.5460" font-size="1.6933" lengthAdjust="spacingAndGlyphs"
text-anchor="middle" opacity="0">10</text>
</g>
<g class="stroked-text"><desc>10</desc>
<path d="M47.1994 6.7189
L47.1994 7.4446
" />
<path d="M47.1994 7.0818
L45.9294 7.0818
" />
<path d="M45.9294 7.0818
L46.1109 7.2027
" />
<path d="M46.1109 7.2027
L46.2318 7.3237
" />
<path d="M46.2318 7.3237
L46.2923 7.4446
" />
<path d="M45.9294 5.9328
L45.9294 5.8118
" />
<path d="M45.9294 5.8118
L45.9899 5.6909
" />
<path d="M45.9899 5.6909
L46.0504 5.6304
" />
<path d="M46.0504 5.6304
L46.1713 5.5699
" />
<path d="M46.1713 5.5699
L46.4132 5.5094
" />
<path d="M46.4132 5.5094
L46.7156 5.5094
" />
<path d="M46.7156 5.5094
L46.9575 5.5699
" />
<path d="M46.9575 5.5699
L47.0785 5.6304
" />
<path d="M47.0785 5.6304
L47.1390 5.6909
" />
<path d="M47.1390 5.6909
L47.1994 5.8118
" />
<path d="M47.1994 5.8118
L47.1994 5.9328
" />
<path d="M47.1994 5.9328
L47.1390 6.0537
" />
<path d="M47.1390 6.0537
L47.0785 6.1142
" />
<path d="M47.0785 6.1142
L46.9575 6.1747
" />
<path d="M46.9575 6.1747
L46.7156 6.2351
" />
<path d="M46.7156 6.2351
L46.4132 6.2351
" />
<path d="M46.4132 6.2351
L46.1713 6.1747
" />
<path d="M46.1713 6.1747
L46.0504 6.1142
" />
<path d="M46.0504 6.1142
L45.9899 6.0537
" />
<path d="M45.9899 6.0537
L45.9294 5.9328
" />
</g></g>
<g style="fill:#840000; fill-opacity:0.0; 
stroke:#840000; stroke-width:0.1524; stroke-opacity:1; 
stroke-linecap:round; stroke-linejoin:round;">
<path d="M45.0689 7.1121
L45.0689 2.0321
" />
</g>
<g style="fill:#006464; fill-opacity:0.0; 
stroke:#006464; stroke-width:0.1524; stroke-opacity:1; 
stroke-linecap:round; stroke-linejoin:round;">
<g transform="rotate(-90.000000 45.0689 7.2391)">
<text x="45.0689" y="7.8741"
textLength="3.8161" font-size="1.6933" lengthAdjust="spacingAndGlyphs"
text-anchor="end" opacity="0">+Vs</text>
</g>
<g class="stroked-text"><desc>+Vs</desc>
<path d="M45.1726 10.6258
L45.1726 9.6582
" />
<path d="M45.6564 10.1420
L44.6888 10.1420
" />
<path d="M44.3864 9.2348
L45.6564 8.8115
" />
<path d="M45.6564 8.8115
L44.3864 8.3881
" />
<path d="M45.5960 8.0252
L45.6564 7.9043
" />
<path d="M45.6564 7.9043
L45.6564 7.6624
" />
<path d="M45.6564 7.6624
L45.5960 7.5414
" />
<path d="M45.5960 7.5414
L45.4750 7.4810
" />
<path d="M45.4750 7.4810
L45.4145 7.4810
" />
<path d="M45.4145 7.4810
L45.2936 7.5414
" />
<path d="M45.2936 7.5414
L45.2331 7.6624
" />
<path d="M45.2331 7.6624
L45.2331 7.8438
" />
<path d="M45.2331 7.8438
L45.1726 7.9648
" />
<path d="M45.1726 7.9648
L45.0517 8.0252
" />
<path d="M45.0517 8.0252
L44.9912 8.0252
" />
<path d="M44.9912 8.0252
L44.8702 7.9648
" />
<path d="M44.8702 7.9648
L44.8098 7.8438
" />
<path d="M44.8098 7.8438
L44.8098 7.6624
" />
<path d="M44.8098 7.6624
L44.8702 7.5414
" />
</g></g>
<g style="fill:#A90000; fill-opacity:0.0; 
stroke:#A90000; stroke-width:0.1524; stroke-opacity:1; 
stroke-linecap:round; stroke-linejoin:round;">
<g transform="rotate(-90.000000 44.8149 4.5721)">
<text x="44.8149" y="4.5721"
textLength="2.5460" font-size="1.6933" lengthAdjust="spacingAndGlyphs"
text-anchor="middle" opacity="0">13</text>
</g>
<g class="stroked-text"><desc>13</desc>
<path d="M44.6594 4.8139
L44.6594 5.5396
" />
<path d="M44.6594 5.1768
L43.3894 5.1768
" />
<path d="M43.3894 5.1768
L43.5709 5.2977
" />
<path d="M43.5709 5.2977
L43.6918 5.4187
" />
<path d="M43.6918 5.4187
L43.7523 5.5396
" />
<path d="M43.3894 4.3906
L43.3894 3.6044
" />
<path d="M43.3894 3.6044
L43.8732 4.0278
" />
<path d="M43.8732 4.0278
L43.8732 3.8463
" />
<path d="M43.8732 3.8463
L43.9337 3.7254
" />
<path d="M43.9337 3.7254
L43.9942 3.6649
" />
<path d="M43.9942 3.6649
L44.1151 3.6044
" />
<path d="M44.1151 3.6044
L44.4175 3.6044
" />
<path d="M44.4175 3.6044
L44.5385 3.6649
" />
<path d="M44.5385 3.6649
L44.5990 3.7254
" />
<path d="M44.5990 3.7254
L44.6594 3.8463
" />
<path d="M44.6594 3.8463
L44.6594 4.2092
" />
<path d="M44.6594 4.2092
L44.5990 4.3301
" />
<path d="M44.5990 4.3301
L44.5385 4.3906
" />
</g></g>
<g style="fill:#840000; fill-opacity:0.0; 
stroke:#840000; stroke-width:0.1524; stroke-opacity:1; 
stroke-linecap:round; stroke-linejoin:round;">
<path d="M55.2289 12.1921
L57.7689 12.1921
" />
</g>
<g style="fill:#A90000; fill-opacity:0.0; 
stroke:#A90000; stroke-width:0.1524; stroke-opacity:1; 
stroke-linecap:round; stroke-linejoin:round;">
<text x="56.4989" y="11.9381"
textLength="2.5460" font-size="1.6933" lengthAdjust="spacingAndGlyphs"
text-anchor="middle" opacity="0">14</text>
<g class="stroked-text"><desc>14</desc>
<path d="M56.2570 11.7826
L55.5313 11.7826
" />
<path d="M55.8941 11.7826
L55.8941 10.5126
" />
<path d="M55.8941 10.5126
L55.7732 10.6941
" />
<path d="M55.7732 10.6941
L55.6522 10.8150
" />
<path d="M55.6522 10.8150
L55.5313 10.8755
" />
<path d="M57.3455 10.9360
L57.3455 11.7826
" />
<path d="M57.0431 10.4522
L56.7408 11.3593
" />
<path d="M56.7408 11.3593
L57.5269 11.3593
" />
</g></g>
<g style="fill:#840000; fill-opacity:0.0; 
stroke:#840000; stroke-width:0.1524; stroke-opacity:1; 
stroke-linecap:round; stroke-linejoin:round;">
<path d="M45.0689 17.2721
L45.0689 22.3521
" />
</g>
<g style="fill:#006464; fill-opacity:0.0; 
stroke:#006464; stroke-width:0.1524; stroke-opacity:1; 
stroke-linecap:round; stroke-linejoin:round;">
<g transform="rotate(-90.000000 45.0689 17.1451)">
<text x="45.0689" y="17.7801"
textLength="3.8161" font-size="1.6933" lengthAdjust="spacingAndGlyphs"
text-anchor="start" opacity="0">-Vs</text>
</g>
<g class="stroked-text"><desc>-Vs</desc>
<path d="M45.1726 16.8427
L45.1726 15.8751
" />
<path d="M44.3864 15.4517
L45.6564 15.0284
" />
<path d="M45.6564 15.0284
L44.3864 14.6050
" />
<path d="M45.5960 14.2421
L45.6564 14.1212
" />
<path d="M45.6564 14.1212
L45.6564 13.8793
" />
<path d="M45.6564 13.8793
L45.5960 13.7583
" />
<path d="M45.5960 13.7583
L45.4750 13.6979
" />
<path d="M45.4750 13.6979
L45.4145 13.6979
" />
<path d="M45.4145 13.6979
L45.2936 13.7583
" />
<path d="M45.2936 13.7583
L45.2331 13.8793
" />
<path d="M45.2331 13.8793
L45.2331 14.0607
" />
<path d="M45.2331 14.0607
L45.1726 14.1817
" />
<path d="M45.1726 14.1817
L45.0517 14.2421
" />
<path d="M45.0517 14.2421
L44.9912 14.2421
" />
<path d="M44.9912 14.2421
L44.8702 14.1817
" />
<path d="M44.8702 14.1817
L44.8098 14.0607
" />
<path d="M44.8098 14.0607
L44.8098 13.8793
" />
<path d="M44.8098 13.8793
L44.8702 13.7583
" />
</g></g>
<g style="fill:#A90000; fill-opacity:0.0; 
stroke:#A90000; stroke-width:0.1524; stroke-opacity:1; 
stroke-linecap:round; stroke-linejoin:round;">
<g transform="rotate(-90.000000 44.8149 19.8121)">
<text x="44.8149" y="19.8121"
textLength="2.5460" font-size="1.6933" lengthAdjust="spacingAndGlyphs"
text-anchor="middle" opacity="0">15</text>
</g>
<g class="stroked-text"><desc>15</desc>
<path d="M44.6594 20.0539
L44.6594 20.7796
" />
<path d="M44.6594 20.4168
L43.3894 20.4168
" />
<path d="M43.3894 20.4168
L43.5709 20.5377
" />
<path d="M43.5709 20.5377
L43.6918 20.6587
" />
<path d="M43.6918 20.6587
L43.7523 20.7796
" />
<path d="M43.3894 18.9049
L43.3894 19.5097
" />
<path d="M43.3894 19.5097
L43.9942 19.5701
" />
<path d="M43.9942 19.5701
L43.9337 19.5097
" />
<path d="M43.9337 19.5097
L43.8732 19.3887
" />
<path d="M43.8732 19.3887
L43.8732 19.0863
" />
<path d="M43.8732 19.0863
L43.9337 18.9654
" />
<path d="M43.9337 18.9654
L43.9942 18.9049
" />
<path d="M43.9942 18.9049
L44.1151 18.8444
" />
<path d="M44.1151 18.8444
L44.4175 18.8444
" />
<path d="M44.4175 18.8444
L44.5385 18.9049
" />
<path d="M44.5385 18.9049
L44.5990 18.9654
" />
<path d="M44.5990 18.9654
L44.6594 19.0863
" />
<path d="M44.6594 19.0863
L44.6594 19.3887
" />
<path d="M44.6594 19.3887
L44.5990 19.5097
" />
<path d="M44.5990 19.5097
L44.5385 19.5701
" />
</g></g>
<g style="fill:#840000; fill-opacity:0.0; 
stroke:#840000; stroke-width:0.1524; stroke-opacity:1; 
stroke-linecap:round; stroke-linejoin:round;">
<path d="M39.9889 14.7321
L37.4489 14.7321
" />
</g>
<g style="fill:#006464; fill-opacity:0.0; 
stroke:#006464; stroke-width:0.1524; stroke-opacity:1; 
stroke-linecap:round; stroke-linejoin:round;">
<text x="40.1159" y="15.3671"
textLength="1.6994" font-size="1.6933" lengthAdjust="spacingAndGlyphs"
text-anchor="start" opacity="0">-</text>
<g class="stroked-text"><desc>-</desc>
<path d="M40.4182 14.8358
L41.3859 14.8358
" />
</g></g>
<g style="fill:#A90000; fill-opacity:0.0; 
stroke:#A90000; stroke-width:0.1524; stroke-opacity:1; 
stroke-linecap:round; stroke-linejoin:round;">
<text x="38.7189" y="14.4781"
textLength="1.3365" font-size="1.6933" lengthAdjust="spacingAndGlyphs"
text-anchor="middle" opacity="0">2</text>
<g class="stroked-text"><desc>2</desc>
<path d="M38.3561 13.1736
L38.4165 13.1131
" />
<path d="M38.4165 13.1131
L38.5375 13.0526
" />
<path d="M38.5375 13.0526
L38.8399 13.0526
" />
<path d="M38.8399 13.0526
L38.9608 13.1131
" />
<path d="M38.9608 13.1131
L39.0213 13.1736
" />
<path d="M39.0213 13.1736
L39.0818 13.2945
" />
<path d="M39.0818 13.2945
L39.0818 13.4155
" />
<path d="M39.0818 13.4155
L39.0213 13.5969
" />
<path d="M39.0213 13.5969
L38.2956 14.3226
" />
<path d="M38.2956 14.3226
L39.0818 14.3226
" />
</g></g>
<g style="fill:#840000; fill-opacity:0.0; 
stroke:#840000; stroke-width:0.1524; stroke-opacity:1; 
stroke-linecap:round; stroke-linejoin:round;">
<path d="M39.9889 9.6521
L37.4489 9.6521
" />
</g>
<g style="fill:#006464; fill-opacity:0.0; 
stroke:#006464; stroke-width:0.1524; stroke-opacity:1; 
stroke-linecap:round; stroke-linejoin:round;">
<text x="40.1159" y="10.2871"
textLength="1.6994" font-size="1.6933" lengthAdjust="spacingAndGlyphs"
text-anchor="start" opacity="0">+</text>
<g class="stroked-text"><desc>+</desc>
<path d="M40.4182 9.7558
L41.3859 9.7558
" />
<path d="M40.9020 10.2396
L40.9020 9.2720
" />
</g></g>
<g style="fill:#A90000; fill-opacity:0.0; 
stroke:#A90000; stroke-width:0.1524; stroke-opacity:1; 
stroke-linecap:round; stroke-linejoin:round;">
<text x="38.7189" y="9.3981"
textLength="1.3365" font-size="1.6933" lengthAdjust="spacingAndGlyphs"
text-anchor="middle" opacity="0">3</text>
<g class="stroked-text"><desc>3</desc>
<path d="M38.2956 7.9726
L39.0818 7.9726
" />
<path d="M39.0818 7.9726
L38.6584 8.4564
" />
<path d="M38.6584 8.4564
L38.8399 8.4564
" />
<path d="M38.8399 8.4564
L38.9608 8.5169
" />
<path d="M38.9608 8.5169
L39.0213 8.5774
" />
<path d="M39.0213 8.5774
L39.0818 8.6983
" />
<path d="M39.0818 8.6983
L39.0818 9.0007
" />
<path d="M39.0818 9.0007
L39.0213 9.1217
" />
<path d="M39.0213 9.1217
L38.9608 9.1822
" />
<path d="M38.9608 9.1822
L38.8399 9.2426
" />
<path d="M38.8399 9.2426
L38.4770 9.2426
" />
<path d="M38.4770 9.2426
L38.3561 9.1822
" />
<path d="M38.3561 9.1822
L38.2956 9.1217
" />
</g></g>
<g style="fill:#840000; fill-opacity:0.0; 
stroke:#840000; stroke-width:0.1524; stroke-opacity:1; 
stroke-linecap:round; stroke-linejoin:round;">
<path d="M47.6089 16.0021
L47.6089 19.8121
" />
</g>
<g style="fill:#006464; fill-opacity:0.0; 
stroke:#006464; stroke-width:0.1524; stroke-opacity:1; 
stroke-linecap:round; stroke-linejoin:round;">
</g>
<g style="fill:#006464; fill-opacity:0.0; 
stroke:#006464; stroke-width:0.1016; stroke-opacity:1; 
stroke-linecap:round; stroke-linejoin:round;">
<g transform="rotate(-90.000000 47.6089 15.8751)">
<text x="47.6089" y="16.1291"
textLength="3.3213" font-size="0.6773" lengthAdjust="spacingAndGlyphs"
text-anchor="start" opacity="0">SIG_GND</text>
</g>
<g class="stroked-text"><desc>SIG_GND</desc>
<path d="M47.8198 15.7783
L47.8439 15.7057
" />
<path d="M47.8439 15.7057
L47.8439 15.5848
" />
<path d="M47.8439 15.5848
L47.8198 15.5364
" />
<path d="M47.8198 15.5364
L47.7956 15.5122
" />
<path d="M47.7956 15.5122
L47.7472 15.4880
" />
<path d="M47.7472 15.4880
L47.6988 15.4880
" />
<path d="M47.6988 15.4880
L47.6504 15.5122
" />
<path d="M47.6504 15.5122
L47.6262 15.5364
" />
<path d="M47.6262 15.5364
L47.6020 15.5848
" />
<path d="M47.6020 15.5848
L47.5778 15.6815
" />
<path d="M47.5778 15.6815
L47.5537 15.7299
" />
<path d="M47.5537 15.7299
L47.5295 15.7541
" />
<path d="M47.5295 15.7541
L47.4811 15.7783
" />
<path d="M47.4811 15.7783
L47.4327 15.7783
" />
<path d="M47.4327 15.7783
L47.3843 15.7541
" />
<path d="M47.3843 15.7541
L47.3601 15.7299
" />
<path d="M47.3601 15.7299
L47.3359 15.6815
" />
<path d="M47.3359 15.6815
L47.3359 15.5606
" />
<path d="M47.3359 15.5606
L47.3601 15.4880
" />
<path d="M47.8439 15.2703
L47.3359 15.2703
" />
<path d="M47.3601 14.7623
L47.3359 14.8107
" />
<path d="M47.3359 14.8107
L47.3359 14.8833
" />
<path d="M47.3359 14.8833
L47.3601 14.9558
" />
<path d="M47.3601 14.9558
L47.4085 15.0042
" />
<path d="M47.4085 15.0042
L47.4569 15.0284
" />
<path d="M47.4569 15.0284
L47.5537 15.0526
" />
<path d="M47.5537 15.0526
L47.6262 15.0526
" />
<path d="M47.6262 15.0526
L47.7230 15.0284
" />
<path d="M47.7230 15.0284
L47.7714 15.0042
" />
<path d="M47.7714 15.0042
L47.8198 14.9558
" />
<path d="M47.8198 14.9558
L47.8439 14.8833
" />
<path d="M47.8439 14.8833
L47.8439 14.8349
" />
<path d="M47.8439 14.8349
L47.8198 14.7623
" />
<path d="M47.8198 14.7623
L47.7956 14.7381
" />
<path d="M47.7956 14.7381
L47.6262 14.7381
" />
<path d="M47.6262 14.7381
L47.6262 14.8349
" />
<path d="M47.8923 14.6414
L47.8923 14.2543
" />
<path d="M47.3601 13.8673
L47.3359 13.9157
" />
<path d="M47.3359 13.9157
L47.3359 13.9883
" />
<path d="M47.3359 13.9883
L47.3601 14.0608
" />
<path d="M47.3601 14.0608
L47.4085 14.1092
" />
<path d="M47.4085 14.1092
L47.4569 14.1334
" />
<path d="M47.4569 14.1334
L47.5537 14.1576
" />
<path d="M47.5537 14.1576
L47.6262 14.1576
" />
<path d="M47.6262 14.1576
L47.7230 14.1334
" />
<path d="M47.7230 14.1334
L47.7714 14.1092
" />
<path d="M47.7714 14.1092
L47.8198 14.0608
" />
<path d="M47.8198 14.0608
L47.8439 13.9883
" />
<path d="M47.8439 13.9883
L47.8439 13.9399
" />
<path d="M47.8439 13.9399
L47.8198 13.8673
" />
<path d="M47.8198 13.8673
L47.7956 13.8431
" />
<path d="M47.7956 13.8431
L47.6262 13.8431
" />
<path d="M47.6262 13.8431
L47.6262 13.9399
" />
<path d="M47.8439 13.6254
L47.3359 13.6254
" />
<path d="M47.3359 13.6254
L47.8439 13.3351
" />
<path d="M47.8439 13.3351
L47.3359 13.3351
" />
<path d="M47.8439 13.0932
L47.3359 13.0932
" />
<path d="M47.3359 13.0932
L47.3359 12.9722
" />
<path d="M47.3359 12.9722
L47.3601 12.8997
" />
<path d="M47.3601 12.8997
L47.4085 12.8513
" />
<path d="M47.4085 12.8513
L47.4569 12.8271
" />
<path d="M47.4569 12.8271
L47.5537 12.8029
" />
<path d="M47.5537 12.8029
L47.6262 12.8029
" />
<path d="M47.6262 12.8029
L47.7230 12.8271
" />
<path d="M47.7230 12.8271
L47.7714 12.8513
" />
<path d="M47.7714 12.8513
L47.8198 12.8997
" />
<path d="M47.8198 12.8997
L47.8439 12.9722
" />
<path d="M47.8439 12.9722
L47.8439 13.0932
" />
</g></g>
<g style="fill:#A90000; fill-opacity:0.0; 
stroke:#A90000; stroke-width:0.1016; stroke-opacity:1; 
stroke-linecap:round; stroke-linejoin:round;">
</g>
<g style="fill:#A90000; fill-opacity:0.0; 
stroke:#A90000; stroke-width:0.1524; stroke-opacity:1; 
stroke-linecap:round; stroke-linejoin:round;">
<g transform="rotate(-90.000000 47.3549 17.9071)">
<text x="47.3549" y="17.9071"
textLength="1.3365" font-size="1.6933" lengthAdjust="spacingAndGlyphs"
text-anchor="middle" opacity="0">4</text>
</g>
<g class="stroked-text"><desc>4</desc>
<path d="M46.3528 17.6651
L47.1994 17.6651
" />
<path d="M45.8690 17.9675
L46.7761 18.2698
" />
<path d="M46.7761 18.2698
L46.7761 17.4837
" />
</g></g>
<g style="fill:#840000; fill-opacity:0.0; 
stroke:#840000; stroke-width:0.1524; stroke-opacity:1; 
stroke-linecap:round; stroke-linejoin:round;">
<path d="M52.6889 10.9221
L52.6889 7.1121
" />
</g>
<g style="fill:#006464; fill-opacity:0.0; 
stroke:#006464; stroke-width:0.1524; stroke-opacity:1; 
stroke-linecap:round; stroke-linejoin:round;">
</g>
<g style="fill:#006464; fill-opacity:0.0; 
stroke:#006464; stroke-width:0.1016; stroke-opacity:1; 
stroke-linecap:round; stroke-linejoin:round;">
<g transform="rotate(-90.000000 52.6889 11.0491)">
<text x="52.6889" y="11.3031"
textLength="2.1118" font-size="0.6773" lengthAdjust="spacingAndGlyphs"
text-anchor="end" opacity="0">BOOT</text>
</g>
<g class="stroked-text"><desc>BOOT</desc>
<path d="M52.6578 12.7182
L52.6820 12.6456
" />
<path d="M52.6820 12.6456
L52.7062 12.6214
" />
<path d="M52.7062 12.6214
L52.7546 12.5972
" />
<path d="M52.7546 12.5972
L52.8272 12.5972
" />
<path d="M52.8272 12.5972
L52.8756 12.6214
" />
<path d="M52.8756 12.6214
L52.8998 12.6456
" />
<path d="M52.8998 12.6456
L52.9239 12.6940
" />
<path d="M52.9239 12.6940
L52.9239 12.8875
" />
<path d="M52.9239 12.8875
L52.4159 12.8875
" />
<path d="M52.4159 12.8875
L52.4159 12.7182
" />
<path d="M52.4159 12.7182
L52.4401 12.6698
" />
<path d="M52.4401 12.6698
L52.4643 12.6456
" />
<path d="M52.4643 12.6456
L52.5127 12.6214
" />
<path d="M52.5127 12.6214
L52.5611 12.6214
" />
<path d="M52.5611 12.6214
L52.6095 12.6456
" />
<path d="M52.6095 12.6456
L52.6337 12.6698
" />
<path d="M52.6337 12.6698
L52.6578 12.7182
" />
<path d="M52.6578 12.7182
L52.6578 12.8875
" />
<path d="M52.4159 12.2827
L52.4159 12.1860
" />
<path d="M52.4159 12.1860
L52.4401 12.1376
" />
<path d="M52.4401 12.1376
L52.4885 12.0892
" />
<path d="M52.4885 12.0892
L52.5853 12.0650
" />
<path d="M52.5853 12.0650
L52.7546 12.0650
" />
<path d="M52.7546 12.0650
L52.8514 12.0892
" />
<path d="M52.8514 12.0892
L52.8998 12.1376
" />
<path d="M52.8998 12.1376
L52.9239 12.1860
" />
<path d="M52.9239 12.1860
L52.9239 12.2827
" />
<path d="M52.9239 12.2827
L52.8998 12.3311
" />
<path d="M52.8998 12.3311
L52.8514 12.3795
" />
<path d="M52.8514 12.3795
L52.7546 12.4037
" />
<path d="M52.7546 12.4037
L52.5853 12.4037
" />
<path d="M52.5853 12.4037
L52.4885 12.3795
" />
<path d="M52.4885 12.3795
L52.4401 12.3311
" />
<path d="M52.4401 12.3311
L52.4159 12.2827
" />
<path d="M52.4159 11.7505
L52.4159 11.6538
" />
<path d="M52.4159 11.6538
L52.4401 11.6054
" />
<path d="M52.4401 11.6054
L52.4885 11.5570
" />
<path d="M52.4885 11.5570
L52.5853 11.5328
" />
<path d="M52.5853 11.5328
L52.7546 11.5328
" />
<path d="M52.7546 11.5328
L52.8514 11.5570
" />
<path d="M52.8514 11.5570
L52.8998 11.6054
" />
<path d="M52.8998 11.6054
L52.9239 11.6538
" />
<path d="M52.9239 11.6538
L52.9239 11.7505
" />
<path d="M52.9239 11.7505
L52.8998 11.7989
" />
<path d="M52.8998 11.7989
L52.8514 11.8473
" />
<path d="M52.8514 11.8473
L52.7546 11.8715
" />
<path d="M52.7546 11.8715
L52.5853 11.8715
" />
<path d="M52.5853 11.8715
L52.4885 11.8473
" />
<path d="M52.4885 11.8473
L52.4401 11.7989
" />
<path d="M52.4401 11.7989
L52.4159 11.7505
" />
<path d="M52.4159 11.3877
L52.4159 11.0974
" />
<path d="M52.9239 11.2425
L52.4159 11.2425
" />
</g></g>
<g style="fill:#A90000; fill-opacity:0.0; 
stroke:#A90000; stroke-width:0.1016; stroke-opacity:1; 
stroke-linecap:round; stroke-linejoin:round;">
</g>
<g style="fill:#A90000; fill-opacity:0.0; 
stroke:#A90000; stroke-width:0.1524; stroke-opacity:1; 
stroke-linecap:round; stroke-linejoin:round;">
<g transform="rotate(-90.000000 52.4349 9.0171)">
<text x="52.4349" y="9.0171"
textLength="1.3365" font-size="1.6933" lengthAdjust="spacingAndGlyphs"
text-anchor="middle" opacity="0">6</text>
</g>
<g class="stroked-text"><desc>6</desc>
<path d="M51.0094 8.7751
L51.0094 9.0170
" />
<path d="M51.0094 9.0170
L51.0699 9.1379
" />
<path d="M51.0699 9.1379
L51.1304 9.1984
" />
<path d="M51.1304 9.1984
L51.3118 9.3194
" />
<path d="M51.3118 9.3194
L51.5537 9.3798
" />
<path d="M51.5537 9.3798
L52.0375 9.3798
" />
<path d="M52.0375 9.3798
L52.1585 9.3194
" />
<path d="M52.1585 9.3194
L52.2190 9.2589
" />
<path d="M52.2190 9.2589
L52.2794 9.1379
" />
<path d="M52.2794 9.1379
L52.2794 8.8960
" />
<path d="M52.2794 8.8960
L52.2190 8.7751
" />
<path d="M52.2190 8.7751
L52.1585 8.7146
" />
<path d="M52.1585 8.7146
L52.0375 8.6541
" />
<path d="M52.0375 8.6541
L51.7351 8.6541
" />
<path d="M51.7351 8.6541
L51.6142 8.7146
" />
<path d="M51.6142 8.7146
L51.5537 8.7751
" />
<path d="M51.5537 8.7751
L51.4932 8.8960
" />
<path d="M51.4932 8.8960
L51.4932 9.1379
" />
<path d="M51.4932 9.1379
L51.5537 9.2589
" />
<path d="M51.5537 9.2589
L51.6142 9.3194
" />
<path d="M51.6142 9.3194
L51.7351 9.3798
" />
</g></g>
<g style="fill:#840000; fill-opacity:0.0; 
stroke:#840000; stroke-width:0.1524; stroke-opacity:1; 
stroke-linecap:round; stroke-linejoin:round;">
<path d="M42.5289 5.8421
L42.5289 2.0321
" />
</g>
<g style="fill:#006464; fill-opacity:0.0; 
stroke:#006464; stroke-width:0.1524; stroke-opacity:1; 
stroke-linecap:round; stroke-linejoin:round;">
<g transform="rotate(-90.000000 42.5289 5.9691)">
<text x="42.5289" y="6.6041"
textLength="3.8161" font-size="1.6933" lengthAdjust="spacingAndGlyphs"
text-anchor="end" opacity="0">+Vs</text>
</g>
<g class="stroked-text"><desc>+Vs</desc>
<path d="M42.6326 9.3558
L42.6326 8.3882
" />
<path d="M43.1164 8.8720
L42.1488 8.8720
" />
<path d="M41.8464 7.9648
L43.1164 7.5415
" />
<path d="M43.1164 7.5415
L41.8464 7.1181
" />
<path d="M43.0560 6.7552
L43.1164 6.6343
" />
<path d="M43.1164 6.6343
L43.1164 6.3924
" />
<path d="M43.1164 6.3924
L43.0560 6.2714
" />
<path d="M43.0560 6.2714
L42.9350 6.2110
" />
<path d="M42.9350 6.2110
L42.8745 6.2110
" />
<path d="M42.8745 6.2110
L42.7536 6.2714
" />
<path d="M42.7536 6.2714
L42.6931 6.3924
" />
<path d="M42.6931 6.3924
L42.6931 6.5738
" />
<path d="M42.6931 6.5738
L42.6326 6.6948
" />
<path d="M42.6326 6.6948
L42.5117 6.7552
" />
<path d="M42.5117 6.7552
L42.4512 6.7552
" />
<path d="M42.4512 6.7552
L42.3302 6.6948
" />
<path d="M42.3302 6.6948
L42.2698 6.5738
" />
<path d="M42.2698 6.5738
L42.2698 6.3924
" />
<path d="M42.2698 6.3924
L42.3302 6.2714
" />
</g></g>
<g style="fill:#A90000; fill-opacity:0.0; 
stroke:#A90000; stroke-width:0.1524; stroke-opacity:1; 
stroke-linecap:round; stroke-linejoin:round;">
<g transform="rotate(-90.000000 42.2749 3.9371)">
<text x="42.2749" y="3.9371"
textLength="1.3365" font-size="1.6933" lengthAdjust="spacingAndGlyphs"
text-anchor="middle" opacity="0">7</text>
</g>
<g class="stroked-text"><desc>7</desc>
<path d="M40.8494 4.3603
L40.8494 3.5137
" />
<path d="M40.8494 3.5137
L42.1194 4.0579
" />
</g></g>
<g style="fill:#840000; fill-opacity:0.0; 
stroke:#840000; stroke-width:0.1524; stroke-opacity:1; 
stroke-linecap:round; stroke-linejoin:round;">
<path d="M42.5289 18.5421
L42.5289 22.3521
" />
</g>
<g style="fill:#006464; fill-opacity:0.0; 
stroke:#006464; stroke-width:0.1524; stroke-opacity:1; 
stroke-linecap:round; stroke-linejoin:round;">
<g transform="rotate(-90.000000 42.5289 18.4151)">
<text x="42.5289" y="19.0501"
textLength="3.8161" font-size="1.6933" lengthAdjust="spacingAndGlyphs"
text-anchor="start" opacity="0">-Vs</text>
</g>
<g class="stroked-text"><desc>-Vs</desc>
<path d="M42.6326 18.1127
L42.6326 17.1451
" />
<path d="M41.8464 16.7217
L43.1164 16.2984
" />
<path d="M43.1164 16.2984
L41.8464 15.8750
" />
<path d="M43.0560 15.5121
L43.1164 15.3912
" />
<path d="M43.1164 15.3912
L43.1164 15.1493
" />
<path d="M43.1164 15.1493
L43.0560 15.0283
" />
<path d="M43.0560 15.0283
L42.9350 14.9679
" />
<path d="M42.9350 14.9679
L42.8745 14.9679
" />
<path d="M42.8745 14.9679
L42.7536 15.0283
" />
<path d="M42.7536 15.0283
L42.6931 15.1493
" />
<path d="M42.6931 15.1493
L42.6931 15.3307
" />
<path d="M42.6931 15.3307
L42.6326 15.4517
" />
<path d="M42.6326 15.4517
L42.5117 15.5121
" />
<path d="M42.5117 15.5121
L42.4512 15.5121
" />
<path d="M42.4512 15.5121
L42.3302 15.4517
" />
<path d="M42.3302 15.4517
L42.2698 15.3307
" />
<path d="M42.2698 15.3307
L42.2698 15.1493
" />
<path d="M42.2698 15.1493
L42.3302 15.0283
" />
</g></g>
<g style="fill:#A90000; fill-opacity:0.0; 
stroke:#A90000; stroke-width:0.1524; stroke-opacity:1; 
stroke-linecap:round; stroke-linejoin:round;">
<g transform="rotate(-90.000000 42.2749 20.4471)">
<text x="42.2749" y="20.4471"
textLength="1.3365" font-size="1.6933" lengthAdjust="spacingAndGlyphs"
text-anchor="middle" opacity="0">8</text>
</g>
<g class="stroked-text"><desc>8</desc>
<path d="M41.3937 20.5679
L41.3332 20.6889
" />
<path d="M41.3332 20.6889
L41.2728 20.7494
" />
<path d="M41.2728 20.7494
L41.1518 20.8098
" />
<path d="M41.1518 20.8098
L41.0913 20.8098
" />
<path d="M41.0913 20.8098
L40.9704 20.7494
" />
<path d="M40.9704 20.7494
L40.9099 20.6889
" />
<path d="M40.9099 20.6889
L40.8494 20.5679
" />
<path d="M40.8494 20.5679
L40.8494 20.3260
" />
<path d="M40.8494 20.3260
L40.9099 20.2051
" />
<path d="M40.9099 20.2051
L40.9704 20.1446
" />
<path d="M40.9704 20.1446
L41.0913 20.0841
" />
<path d="M41.0913 20.0841
L41.1518 20.0841
" />
<path d="M41.1518 20.0841
L41.2728 20.1446
" />
<path d="M41.2728 20.1446
L41.3332 20.2051
" />
<path d="M41.3332 20.2051
L41.3937 20.3260
" />
<path d="M41.3937 20.3260
L41.3937 20.5679
" />
<path d="M41.3937 20.5679
L41.4542 20.6889
" />
<path d="M41.4542 20.6889
L41.5147 20.7494
" />
<path d="M41.5147 20.7494
L41.6356 20.8098
" />
<path d="M41.6356 20.8098
L41.8775 20.8098
" />
<path d="M41.8775 20.8098
L41.9985 20.7494
" />
<path d="M41.9985 20.7494
L42.0590 20.6889
" />
<path d="M42.0590 20.6889
L42.1194 20.5679
" />
<path d="M42.1194 20.5679
L42.1194 20.3260
" />
<path d="M42.1194 20.3260
L42.0590 20.2051
" />
<path d="M42.0590 20.2051
L41.9985 20.1446
" />
<path d="M41.9985 20.1446
L41.8775 20.0841
" />
<path d="M41.8775 20.0841
L41.6356 20.0841
" />
<path d="M41.6356 20.0841
L41.5147 20.1446
" />
<path d="M41.5147 20.1446
L41.4542 20.2051
" />
<path d="M41.4542 20.2051
L41.3937 20.3260
" />
</g></g>
<g style="fill:#840000; fill-opacity:0.0; 
stroke:#840000; stroke-width:0.1524; stroke-opacity:1; 
stroke-linecap:round; stroke-linejoin:round;">
<path d="M50.1489 9.6521
L50.1489 7.1121
" />
</g>
<g style="fill:#006464; fill-opacity:0.0; 
stroke:#006464; stroke-width:0.1524; stroke-opacity:1; 
stroke-linecap:round; stroke-linejoin:round;">
</g>
<g style="fill:#006464; fill-opacity:0.0; 
stroke:#006464; stroke-width:0.1016; stroke-opacity:1; 
stroke-linecap:round; stroke-linejoin:round;">
<g transform="rotate(-90.000000 50.1489 9.7791)">
<text x="50.1489" y="10.0331"
textLength="1.9666" font-size="0.6773" lengthAdjust="spacingAndGlyphs"
text-anchor="end" opacity="0">STBY</text>
</g>
<g class="stroked-text"><desc>STBY</desc>
<path d="M50.3598 11.4965
L50.3839 11.4239
" />
<path d="M50.3839 11.4239
L50.3839 11.3030
" />
<path d="M50.3839 11.3030
L50.3598 11.2546
" />
<path d="M50.3598 11.2546
L50.3356 11.2304
" />
<path d="M50.3356 11.2304
L50.2872 11.2062
" />
<path d="M50.2872 11.2062
L50.2388 11.2062
" />
<path d="M50.2388 11.2062
L50.1904 11.2304
" />
<path d="M50.1904 11.2304
L50.1662 11.2546
" />
<path d="M50.1662 11.2546
L50.1420 11.3030
" />
<path d="M50.1420 11.3030
L50.1178 11.3997
" />
<path d="M50.1178 11.3997
L50.0937 11.4481
" />
<path d="M50.0937 11.4481
L50.0695 11.4723
" />
<path d="M50.0695 11.4723
L50.0211 11.4965
" />
<path d="M50.0211 11.4965
L49.9727 11.4965
" />
<path d="M49.9727 11.4965
L49.9243 11.4723
" />
<path d="M49.9243 11.4723
L49.9001 11.4481
" />
<path d="M49.9001 11.4481
L49.8759 11.3997
" />
<path d="M49.8759 11.3997
L49.8759 11.2788
" />
<path d="M49.8759 11.2788
L49.9001 11.2062
" />
<path d="M49.8759 11.0611
L49.8759 10.7708
" />
<path d="M50.3839 10.9159
L49.8759 10.9159
" />
<path d="M50.1178 10.4322
L50.1420 10.3596
" />
<path d="M50.1420 10.3596
L50.1662 10.3354
" />
<path d="M50.1662 10.3354
L50.2146 10.3112
" />
<path d="M50.2146 10.3112
L50.2872 10.3112
" />
<path d="M50.2872 10.3112
L50.3356 10.3354
" />
<path d="M50.3356 10.3354
L50.3598 10.3596
" />
<path d="M50.3598 10.3596
L50.3839 10.4080
" />
<path d="M50.3839 10.4080
L50.3839 10.6015
" />
<path d="M50.3839 10.6015
L49.8759 10.6015
" />
<path d="M49.8759 10.6015
L49.8759 10.4322
" />
<path d="M49.8759 10.4322
L49.9001 10.3838
" />
<path d="M49.9001 10.3838
L49.9243 10.3596
" />
<path d="M49.9243 10.3596
L49.9727 10.3354
" />
<path d="M49.9727 10.3354
L50.0211 10.3354
" />
<path d="M50.0211 10.3354
L50.0695 10.3596
" />
<path d="M50.0695 10.3596
L50.0937 10.3838
" />
<path d="M50.0937 10.3838
L50.1178 10.4322
" />
<path d="M50.1178 10.4322
L50.1178 10.6015
" />
<path d="M50.1420 9.9967
L50.3839 9.9967
" />
<path d="M49.8759 10.1661
L50.1420 9.9967
" />
<path d="M50.1420 9.9967
L49.8759 9.8274
" />
</g></g>
<g style="fill:#A90000; fill-opacity:0.0; 
stroke:#A90000; stroke-width:0.1016; stroke-opacity:1; 
stroke-linecap:round; stroke-linejoin:round;">
</g>
<g style="fill:#A90000; fill-opacity:0.0; 
stroke:#A90000; stroke-width:0.1524; stroke-opacity:1; 
stroke-linecap:round; stroke-linejoin:round;">
<g transform="rotate(-90.000000 49.8949 8.3821)">
<text x="49.8949" y="8.3821"
textLength="1.3365" font-size="1.6933" lengthAdjust="spacingAndGlyphs"
text-anchor="middle" opacity="0">9</text>
</g>
<g class="stroked-text"><desc>9</desc>
<path d="M49.7394 8.6239
L49.7394 8.3820
" />
<path d="M49.7394 8.3820
L49.6790 8.2610
" />
<path d="M49.6790 8.2610
L49.6185 8.2006
" />
<path d="M49.6185 8.2006
L49.4370 8.0796
" />
<path d="M49.4370 8.0796
L49.1951 8.0191
" />
<path d="M49.1951 8.0191
L48.7113 8.0191
" />
<path d="M48.7113 8.0191
L48.5904 8.0796
" />
<path d="M48.5904 8.0796
L48.5299 8.1401
" />
<path d="M48.5299 8.1401
L48.4694 8.2610
" />
<path d="M48.4694 8.2610
L48.4694 8.5029
" />
<path d="M48.4694 8.5029
L48.5299 8.6239
" />
<path d="M48.5299 8.6239
L48.5904 8.6844
" />
<path d="M48.5904 8.6844
L48.7113 8.7448
" />
<path d="M48.7113 8.7448
L49.0137 8.7448
" />
<path d="M49.0137 8.7448
L49.1347 8.6844
" />
<path d="M49.1347 8.6844
L49.1951 8.6239
" />
<path d="M49.1951 8.6239
L49.2556 8.5029
" />
<path d="M49.2556 8.5029
L49.2556 8.2610
" />
<path d="M49.2556 8.2610
L49.1951 8.1401
" />
<path d="M49.1951 8.1401
L49.1347 8.0796
" />
<path d="M49.1347 8.0796
L49.0137 8.0191
" />
</g></g>
<g style="fill:#840084; fill-opacity:0.0; 
stroke:#840084; stroke-width:0.1524; stroke-opacity:1; 
stroke-linecap:round; stroke-linejoin:round;">
</g>
<g style="fill:#006464; fill-opacity:0.0; 
stroke:#006464; stroke-width:0.1524; stroke-opacity:1; 
stroke-linecap:round; stroke-linejoin:round;">
</g>
<g style="fill:#006464; fill-opacity:0.0; 
stroke:#006464; stroke-width:0.1588; stroke-opacity:1; 
stroke-linecap:round; stroke-linejoin:round;">
<text x="57.7689" y="6.4771"
textLength="2.5621" font-size="1.6933" lengthAdjust="spacingAndGlyphs"
text-anchor="middle" opacity="0">U?</text>
<g class="stroked-text"><desc>U?</desc>
<path d="M56.8617 5.1596
L56.8617 6.1877
" />
<path d="M56.8617 6.1877
L56.9222 6.3087
" />
<path d="M56.9222 6.3087
L56.9827 6.3692
" />
<path d="M56.9827 6.3692
L57.1036 6.4296
" />
<path d="M57.1036 6.4296
L57.3455 6.4296
" />
<path d="M57.3455 6.4296
L57.4665 6.3692
" />
<path d="M57.4665 6.3692
L57.5270 6.3087
" />
<path d="M57.5270 6.3087
L57.5874 6.1877
" />
<path d="M57.5874 6.1877
L57.5874 5.1596
" />
<path d="M58.3737 6.3087
L58.4341 6.3692
" />
<path d="M58.4341 6.3692
L58.3737 6.4296
" />
<path d="M58.3737 6.4296
L58.3132 6.3692
" />
<path d="M58.3132 6.3692
L58.3737 6.3087
" />
<path d="M58.3737 6.3087
L58.3737 6.4296
" />
<path d="M58.1318 5.2201
L58.2527 5.1596
" />
<path d="M58.2527 5.1596
L58.5551 5.1596
" />
<path d="M58.5551 5.1596
L58.6760 5.2201
" />
<path d="M58.6760 5.2201
L58.7365 5.3411
" />
<path d="M58.7365 5.3411
L58.7365 5.4620
" />
<path d="M58.7365 5.4620
L58.6760 5.5830
" />
<path d="M58.6760 5.5830
L58.6156 5.6434
" />
<path d="M58.6156 5.6434
L58.4946 5.7039
" />
<path d="M58.4946 5.7039
L58.4341 5.7644
" />
<path d="M58.4341 5.7644
L58.3737 5.8853
" />
<path d="M58.3737 5.8853
L58.3737 5.9458
" />
</g><text x="57.7689" y="9.0171"
textLength="8.3072" font-size="1.6933" lengthAdjust="spacingAndGlyphs"
text-anchor="middle" opacity="0">TDA7293</text>
<g class="stroked-text"><desc>TDA7293</desc>
<path d="M53.8077 7.6996
L54.5334 7.6996
" />
<path d="M54.1706 8.9696
L54.1706 7.6996
" />
<path d="M54.9567 8.9696
L54.9567 7.6996
" />
<path d="M54.9567 7.6996
L55.2591 7.6996
" />
<path d="M55.2591 7.6996
L55.4405 7.7601
" />
<path d="M55.4405 7.7601
L55.5615 7.8811
" />
<path d="M55.5615 7.8811
L55.6220 8.0020
" />
<path d="M55.6220 8.0020
L55.6824 8.2439
" />
<path d="M55.6824 8.2439
L55.6824 8.4253
" />
<path d="M55.6824 8.4253
L55.6220 8.6672
" />
<path d="M55.6220 8.6672
L55.5615 8.7882
" />
<path d="M55.5615 8.7882
L55.4405 8.9092
" />
<path d="M55.4405 8.9092
L55.2591 8.9696
" />
<path d="M55.2591 8.9696
L54.9567 8.9696
" />
<path d="M56.1663 8.6068
L56.7710 8.6068
" />
<path d="M56.0453 8.9696
L56.4686 7.6996
" />
<path d="M56.4686 7.6996
L56.8920 8.9696
" />
<path d="M57.1944 7.6996
L58.0410 7.6996
" />
<path d="M58.0410 7.6996
L57.4968 8.9696
" />
<path d="M58.4644 7.8206
L58.5248 7.7601
" />
<path d="M58.5248 7.7601
L58.6458 7.6996
" />
<path d="M58.6458 7.6996
L58.9482 7.6996
" />
<path d="M58.9482 7.6996
L59.0691 7.7601
" />
<path d="M59.0691 7.7601
L59.1296 7.8206
" />
<path d="M59.1296 7.8206
L59.1901 7.9415
" />
<path d="M59.1901 7.9415
L59.1901 8.0625
" />
<path d="M59.1901 8.0625
L59.1296 8.2439
" />
<path d="M59.1296 8.2439
L58.4039 8.9696
" />
<path d="M58.4039 8.9696
L59.1901 8.9696
" />
<path d="M59.7948 8.9696
L60.0367 8.9696
" />
<path d="M60.0367 8.9696
L60.1577 8.9092
" />
<path d="M60.1577 8.9092
L60.2181 8.8487
" />
<path d="M60.2181 8.8487
L60.3391 8.6672
" />
<path d="M60.3391 8.6672
L60.3996 8.4253
" />
<path d="M60.3996 8.4253
L60.3996 7.9415
" />
<path d="M60.3996 7.9415
L60.3391 7.8206
" />
<path d="M60.3391 7.8206
L60.2786 7.7601
" />
<path d="M60.2786 7.7601
L60.1577 7.6996
" />
<path d="M60.1577 7.6996
L59.9158 7.6996
" />
<path d="M59.9158 7.6996
L59.7948 7.7601
" />
<path d="M59.7948 7.7601
L59.7343 7.8206
" />
<path d="M59.7343 7.8206
L59.6739 7.9415
" />
<path d="M59.6739 7.9415
L59.6739 8.2439
" />
<path d="M59.6739 8.2439
L59.7343 8.3649
" />
<path d="M59.7343 8.3649
L59.7948 8.4253
" />
<path d="M59.7948 8.4253
L59.9158 8.4858
" />
<path d="M59.9158 8.4858
L60.1577 8.4858
" />
<path d="M60.1577 8.4858
L60.2786 8.4253
" />
<path d="M60.2786 8.4253
L60.3391 8.3649
" />
<path d="M60.3391 8.3649
L60.3996 8.2439
" />
<path d="M60.8229 7.6996
L61.6091 7.6996
" />
<path d="M61.6091 7.6996
L61.1857 8.1834
" />
<path d="M61.1857 8.1834
L61.3672 8.1834
" />
<path d="M61.3672 8.1834
L61.4881 8.2439
" />
<path d="M61.4881 8.2439
L61.5486 8.3044
" />
<path d="M61.5486 8.3044
L61.6091 8.4253
" />
<path d="M61.6091 8.4253
L61.6091 8.7277
" />
<path d="M61.6091 8.7277
L61.5486 8.8487
" />
<path d="M61.5486 8.8487
L61.4881 8.9092
" />
<path d="M61.4881 8.9092
L61.3672 8.9696
" />
<path d="M61.3672 8.9696
L61.0043 8.9696
" />
<path d="M61.0043 8.9696
L60.8834 8.9092
" />
<path d="M60.8834 8.9092
L60.8229 8.8487
" />
</g></g>
<g style="fill:#840084; fill-opacity:0.0; 
stroke:#840084; stroke-width:0.1588; stroke-opacity:1; 
stroke-linecap:round; stroke-linejoin:round;">
<text x="47.6883" y="12.8271"
textLength="79.4807" font-size="1.6933" lengthAdjust="spacingAndGlyphs"
text-anchor="middle" opacity="0">Package_TO_SOT_THT:TO-220-15_P2.54x2.54mm_StaggerOdd_Lead4.58mm_Vertical</text>
<g class="stroked-text"><desc>Package_TO_SOT_THT:TO-220-15_P2.54x2.54mm_StaggerOdd_Lead4.58mm_Vertical</desc>
<path d="M8.3143 12.7796
L8.4730 11.5096
" />
<path d="M8.4730 11.5096
L8.9568 11.5096
" />
<path d="M8.9568 11.5096
L9.0702 11.5701
" />
<path d="M9.0702 11.5701
L9.1231 11.6306
" />
<path d="M9.1231 11.6306
L9.1685 11.7515
" />
<path d="M9.1685 11.7515
L9.1458 11.9330
" />
<path d="M9.1458 11.9330
L9.0702 12.0539
" />
<path d="M9.0702 12.0539
L9.0022 12.1144
" />
<path d="M9.0022 12.1144
L8.8737 12.1749
" />
<path d="M8.8737 12.1749
L8.3899 12.1749
" />
<path d="M10.1210 12.7796
L10.2041 12.1144
" />
<path d="M10.2041 12.1144
L10.1588 11.9934
" />
<path d="M10.1588 11.9934
L10.0454 11.9330
" />
<path d="M10.0454 11.9330
L9.8035 11.9330
" />
<path d="M9.8035 11.9330
L9.6749 11.9934
" />
<path d="M10.1285 12.7192
L10.0000 12.7796
" />
<path d="M10.0000 12.7796
L9.6976 12.7796
" />
<path d="M9.6976 12.7796
L9.5842 12.7192
" />
<path d="M9.5842 12.7192
L9.5389 12.5982
" />
<path d="M9.5389 12.5982
L9.5540 12.4772
" />
<path d="M9.5540 12.4772
L9.6296 12.3563
" />
<path d="M9.6296 12.3563
L9.7581 12.2958
" />
<path d="M9.7581 12.2958
L10.0605 12.2958
" />
<path d="M10.0605 12.2958
L10.1890 12.2353
" />
<path d="M11.2700 12.7192
L11.1415 12.7796
" />
<path d="M11.1415 12.7796
L10.8996 12.7796
" />
<path d="M10.8996 12.7796
L10.7862 12.7192
" />
<path d="M10.7862 12.7192
L10.7333 12.6587
" />
<path d="M10.7333 12.6587
L10.6879 12.5377
" />
<path d="M10.6879 12.5377
L10.7333 12.1749
" />
<path d="M10.7333 12.1749
L10.8089 12.0539
" />
<path d="M10.8089 12.0539
L10.8769 11.9934
" />
<path d="M10.8769 11.9934
L11.0054 11.9330
" />
<path d="M11.0054 11.9330
L11.2473 11.9330
" />
<path d="M11.2473 11.9330
L11.3607 11.9934
" />
<path d="M11.7992 12.7796
L11.9579 11.5096
" />
<path d="M11.9806 12.2958
L12.2830 12.7796
" />
<path d="M12.3888 11.9330
L11.8445 12.4168
" />
<path d="M13.3640 12.7796
L13.4471 12.1144
" />
<path d="M13.4471 12.1144
L13.4018 11.9934
" />
<path d="M13.4018 11.9934
L13.2884 11.9330
" />
<path d="M13.2884 11.9330
L13.0465 11.9330
" />
<path d="M13.0465 11.9330
L12.9179 11.9934
" />
<path d="M13.3715 12.7192
L13.2430 12.7796
" />
<path d="M13.2430 12.7796
L12.9406 12.7796
" />
<path d="M12.9406 12.7796
L12.8272 12.7192
" />
<path d="M12.8272 12.7192
L12.7819 12.5982
" />
<path d="M12.7819 12.5982
L12.7970 12.4772
" />
<path d="M12.7970 12.4772
L12.8726 12.3563
" />
<path d="M12.8726 12.3563
L13.0011 12.2958
" />
<path d="M13.0011 12.2958
L13.3035 12.2958
" />
<path d="M13.3035 12.2958
L13.4320 12.2353
" />
<path d="M14.6113 11.9330
L14.4828 12.9611
" />
<path d="M14.4828 12.9611
L14.4072 13.0820
" />
<path d="M14.4072 13.0820
L14.3391 13.1425
" />
<path d="M14.3391 13.1425
L14.2106 13.2030
" />
<path d="M14.2106 13.2030
L14.0292 13.2030
" />
<path d="M14.0292 13.2030
L13.9158 13.1425
" />
<path d="M14.5130 12.7192
L14.3845 12.7796
" />
<path d="M14.3845 12.7796
L14.1426 12.7796
" />
<path d="M14.1426 12.7796
L14.0292 12.7192
" />
<path d="M14.0292 12.7192
L13.9763 12.6587
" />
<path d="M13.9763 12.6587
L13.9309 12.5377
" />
<path d="M13.9309 12.5377
L13.9763 12.1749
" />
<path d="M13.9763 12.1749
L14.0519 12.0539
" />
<path d="M14.0519 12.0539
L14.1199 11.9934
" />
<path d="M14.1199 11.9934
L14.2484 11.9330
" />
<path d="M14.2484 11.9330
L14.4903 11.9330
" />
<path d="M14.4903 11.9330
L14.6037 11.9934
" />
<path d="M15.5411 12.7192
L15.4126 12.7796
" />
<path d="M15.4126 12.7796
L15.1707 12.7796
" />
<path d="M15.1707 12.7796
L15.0573 12.7192
" />
<path d="M15.0573 12.7192
L15.0120 12.5982
" />
<path d="M15.0120 12.5982
L15.0725 12.1144
" />
<path d="M15.0725 12.1144
L15.1480 11.9934
" />
<path d="M15.1480 11.9934
L15.2766 11.9330
" />
<path d="M15.2766 11.9330
L15.5185 11.9330
" />
<path d="M15.5185 11.9330
L15.6319 11.9934
" />
<path d="M15.6319 11.9934
L15.6772 12.1144
" />
<path d="M15.6772 12.1144
L15.6621 12.2353
" />
<path d="M15.6621 12.2353
L15.0422 12.3563
" />
<path d="M15.8133 12.9006
L16.7809 12.9006
" />
<path d="M17.0530 11.5096
L17.7787 11.5096
" />
<path d="M17.2571 12.7796
L17.4159 11.5096
" />
<path d="M18.4364 11.5096
L18.6783 11.5096
" />
<path d="M18.6783 11.5096
L18.7917 11.5701
" />
<path d="M18.7917 11.5701
L18.8976 11.6911
" />
<path d="M18.8976 11.6911
L18.9278 11.9330
" />
<path d="M18.9278 11.9330
L18.8749 12.3563
" />
<path d="M18.8749 12.3563
L18.7842 12.5982
" />
<path d="M18.7842 12.5982
L18.6481 12.7192
" />
<path d="M18.6481 12.7192
L18.5196 12.7796
" />
<path d="M18.5196 12.7796
L18.2777 12.7796
" />
<path d="M18.2777 12.7796
L18.1643 12.7192
" />
<path d="M18.1643 12.7192
L18.0585 12.5982
" />
<path d="M18.0585 12.5982
L18.0282 12.3563
" />
<path d="M18.0282 12.3563
L18.0811 11.9330
" />
<path d="M18.0811 11.9330
L18.1718 11.6911
" />
<path d="M18.1718 11.6911
L18.3079 11.5701
" />
<path d="M18.3079 11.5701
L18.4364 11.5096
" />
<path d="M19.0412 12.9006
L20.0088 12.9006
" />
<path d="M20.2507 12.7192
L20.4245 12.7796
" />
<path d="M20.4245 12.7796
L20.7269 12.7796
" />
<path d="M20.7269 12.7796
L20.8554 12.7192
" />
<path d="M20.8554 12.7192
L20.9235 12.6587
" />
<path d="M20.9235 12.6587
L20.9990 12.5377
" />
<path d="M20.9990 12.5377
L21.0142 12.4168
" />
<path d="M21.0142 12.4168
L20.9688 12.2958
" />
<path d="M20.9688 12.2958
L20.9159 12.2353
" />
<path d="M20.9159 12.2353
L20.8025 12.1749
" />
<path d="M20.8025 12.1749
L20.5682 12.1144
" />
<path d="M20.5682 12.1144
L20.4548 12.0539
" />
<path d="M20.4548 12.0539
L20.4018 11.9934
" />
<path d="M20.4018 11.9934
L20.3565 11.8725
" />
<path d="M20.3565 11.8725
L20.3716 11.7515
" />
<path d="M20.3716 11.7515
L20.4472 11.6306
" />
<path d="M20.4472 11.6306
L20.5152 11.5701
" />
<path d="M20.5152 11.5701
L20.6438 11.5096
" />
<path d="M20.6438 11.5096
L20.9461 11.5096
" />
<path d="M20.9461 11.5096
L21.1200 11.5701
" />
<path d="M21.9062 11.5096
L22.1481 11.5096
" />
<path d="M22.1481 11.5096
L22.2615 11.5701
" />
<path d="M22.2615 11.5701
L22.3674 11.6911
" />
<path d="M22.3674 11.6911
L22.3976 11.9330
" />
<path d="M22.3976 11.9330
L22.3447 12.3563
" />
<path d="M22.3447 12.3563
L22.2540 12.5982
" />
<path d="M22.2540 12.5982
L22.1179 12.7192
" />
<path d="M22.1179 12.7192
L21.9894 12.7796
" />
<path d="M21.9894 12.7796
L21.7475 12.7796
" />
<path d="M21.7475 12.7796
L21.6341 12.7192
" />
<path d="M21.6341 12.7192
L21.5283 12.5982
" />
<path d="M21.5283 12.5982
L21.4980 12.3563
" />
<path d="M21.4980 12.3563
L21.5509 11.9330
" />
<path d="M21.5509 11.9330
L21.6416 11.6911
" />
<path d="M21.6416 11.6911
L21.7777 11.5701
" />
<path d="M21.7777 11.5701
L21.9062 11.5096
" />
<path d="M22.8058 11.5096
L23.5315 11.5096
" />
<path d="M23.0099 12.7796
L23.1687 11.5096
" />
<path d="M23.4711 12.9006
L24.4387 12.9006
" />
<path d="M24.7108 11.5096
L25.4365 11.5096
" />
<path d="M24.9149 12.7796
L25.0737 11.5096
" />
<path d="M25.6936 12.7796
L25.8523 11.5096
" />
<path d="M25.7767 12.1144
L26.5024 12.1144
" />
<path d="M26.4193 12.7796
L26.5780 11.5096
" />
<path d="M26.9938 11.5096
L27.7195 11.5096
" />
<path d="M27.1979 12.7796
L27.3567 11.5096
" />
<path d="M27.9917 12.6587
L28.0446 12.7192
" />
<path d="M28.0446 12.7192
L27.9766 12.7796
" />
<path d="M27.9766 12.7796
L27.9237 12.7192
" />
<path d="M27.9237 12.7192
L27.9917 12.6587
" />
<path d="M27.9917 12.6587
L27.9766 12.7796
" />
<path d="M28.0748 11.9934
L28.1278 12.0539
" />
<path d="M28.1278 12.0539
L28.0597 12.1144
" />
<path d="M28.0597 12.1144
L28.0068 12.0539
" />
<path d="M28.0068 12.0539
L28.0748 11.9934
" />
<path d="M28.0748 11.9934
L28.0597 12.1144
" />
<path d="M28.5511 11.5096
L29.2768 11.5096
" />
<path d="M28.7552 12.7796
L28.9140 11.5096
" />
<path d="M29.9345 11.5096
L30.1764 11.5096
" />
<path d="M30.1764 11.5096
L30.2898 11.5701
" />
<path d="M30.2898 11.5701
L30.3957 11.6911
" />
<path d="M30.3957 11.6911
L30.4259 11.9330
" />
<path d="M30.4259 11.9330
L30.3730 12.3563
" />
<path d="M30.3730 12.3563
L30.2823 12.5982
" />
<path d="M30.2823 12.5982
L30.1462 12.7192
" />
<path d="M30.1462 12.7192
L30.0177 12.7796
" />
<path d="M30.0177 12.7796
L29.7758 12.7796
" />
<path d="M29.7758 12.7796
L29.6624 12.7192
" />
<path d="M29.6624 12.7192
L29.5566 12.5982
" />
<path d="M29.5566 12.5982
L29.5263 12.3563
" />
<path d="M29.5263 12.3563
L29.5792 11.9330
" />
<path d="M29.5792 11.9330
L29.6699 11.6911
" />
<path d="M29.6699 11.6911
L29.8060 11.5701
" />
<path d="M29.8060 11.5701
L29.9345 11.5096
" />
<path d="M30.9172 12.2958
L31.8849 12.2958
" />
<path d="M32.5123 11.6306
L32.5804 11.5701
" />
<path d="M32.5804 11.5701
L32.7089 11.5096
" />
<path d="M32.7089 11.5096
L33.0113 11.5096
" />
<path d="M33.0113 11.5096
L33.1246 11.5701
" />
<path d="M33.1246 11.5701
L33.1776 11.6306
" />
<path d="M33.1776 11.6306
L33.2229 11.7515
" />
<path d="M33.2229 11.7515
L33.2078 11.8725
" />
<path d="M33.2078 11.8725
L33.1246 12.0539
" />
<path d="M33.1246 12.0539
L32.3082 12.7796
" />
<path d="M32.3082 12.7796
L33.0944 12.7796
" />
<path d="M33.7143 11.6306
L33.7824 11.5701
" />
<path d="M33.7824 11.5701
L33.9109 11.5096
" />
<path d="M33.9109 11.5096
L34.2133 11.5096
" />
<path d="M34.2133 11.5096
L34.3266 11.5701
" />
<path d="M34.3266 11.5701
L34.3796 11.6306
" />
<path d="M34.3796 11.6306
L34.4249 11.7515
" />
<path d="M34.4249 11.7515
L34.4098 11.8725
" />
<path d="M34.4098 11.8725
L34.3266 12.0539
" />
<path d="M34.3266 12.0539
L33.5102 12.7796
" />
<path d="M33.5102 12.7796
L34.2964 12.7796
" />
<path d="M35.2338 11.5096
L35.3548 11.5096
" />
<path d="M35.3548 11.5096
L35.4682 11.5701
" />
<path d="M35.4682 11.5701
L35.5211 11.6306
" />
<path d="M35.5211 11.6306
L35.5664 11.7515
" />
<path d="M35.5664 11.7515
L35.5967 11.9934
" />
<path d="M35.5967 11.9934
L35.5589 12.2958
" />
<path d="M35.5589 12.2958
L35.4682 12.5377
" />
<path d="M35.4682 12.5377
L35.3926 12.6587
" />
<path d="M35.3926 12.6587
L35.3245 12.7192
" />
<path d="M35.3245 12.7192
L35.1960 12.7796
" />
<path d="M35.1960 12.7796
L35.0751 12.7796
" />
<path d="M35.0751 12.7796
L34.9617 12.7192
" />
<path d="M34.9617 12.7192
L34.9088 12.6587
" />
<path d="M34.9088 12.6587
L34.8634 12.5377
" />
<path d="M34.8634 12.5377
L34.8332 12.2958
" />
<path d="M34.8332 12.2958
L34.8710 11.9934
" />
<path d="M34.8710 11.9934
L34.9617 11.7515
" />
<path d="M34.9617 11.7515
L35.0373 11.6306
" />
<path d="M35.0373 11.6306
L35.1053 11.5701
" />
<path d="M35.1053 11.5701
L35.2338 11.5096
" />
<path d="M36.0956 12.2958
L37.0633 12.2958
" />
<path d="M38.2728 12.7796
L37.5471 12.7796
" />
<path d="M37.9100 12.7796
L38.0687 11.5096
" />
<path d="M38.0687 11.5096
L37.9251 11.6911
" />
<path d="M37.9251 11.6911
L37.7890 11.8120
" />
<path d="M37.7890 11.8120
L37.6605 11.8725
" />
<path d="M39.5731 11.5096
L38.9683 11.5096
" />
<path d="M38.9683 11.5096
L38.8323 12.1144
" />
<path d="M38.8323 12.1144
L38.9003 12.0539
" />
<path d="M38.9003 12.0539
L39.0288 11.9934
" />
<path d="M39.0288 11.9934
L39.3312 11.9934
" />
<path d="M39.3312 11.9934
L39.4446 12.0539
" />
<path d="M39.4446 12.0539
L39.4975 12.1144
" />
<path d="M39.4975 12.1144
L39.5428 12.2353
" />
<path d="M39.5428 12.2353
L39.5050 12.5377
" />
<path d="M39.5050 12.5377
L39.4295 12.6587
" />
<path d="M39.4295 12.6587
L39.3614 12.7192
" />
<path d="M39.3614 12.7192
L39.2329 12.7796
" />
<path d="M39.2329 12.7796
L38.9305 12.7796
" />
<path d="M38.9305 12.7796
L38.8171 12.7192
" />
<path d="M38.8171 12.7192
L38.7642 12.6587
" />
<path d="M39.6941 12.9006
L40.6617 12.9006
" />
<path d="M40.9565 12.7796
L41.1152 11.5096
" />
<path d="M41.1152 11.5096
L41.5990 11.5096
" />
<path d="M41.5990 11.5096
L41.7124 11.5701
" />
<path d="M41.7124 11.5701
L41.7653 11.6306
" />
<path d="M41.7653 11.6306
L41.8107 11.7515
" />
<path d="M41.8107 11.7515
L41.7880 11.9330
" />
<path d="M41.7880 11.9330
L41.7124 12.0539
" />
<path d="M41.7124 12.0539
L41.6444 12.1144
" />
<path d="M41.6444 12.1144
L41.5159 12.1749
" />
<path d="M41.5159 12.1749
L41.0321 12.1749
" />
<path d="M42.3020 11.6306
L42.3701 11.5701
" />
<path d="M42.3701 11.5701
L42.4986 11.5096
" />
<path d="M42.4986 11.5096
L42.8010 11.5096
" />
<path d="M42.8010 11.5096
L42.9143 11.5701
" />
<path d="M42.9143 11.5701
L42.9673 11.6306
" />
<path d="M42.9673 11.6306
L43.0126 11.7515
" />
<path d="M43.0126 11.7515
L42.9975 11.8725
" />
<path d="M42.9975 11.8725
L42.9143 12.0539
" />
<path d="M42.9143 12.0539
L42.0979 12.7796
" />
<path d="M42.0979 12.7796
L42.8841 12.7796
" />
<path d="M43.4360 12.6587
L43.4889 12.7192
" />
<path d="M43.4889 12.7192
L43.4209 12.7796
" />
<path d="M43.4209 12.7796
L43.3680 12.7192
" />
<path d="M43.3680 12.7192
L43.4360 12.6587
" />
<path d="M43.4360 12.6587
L43.4209 12.7796
" />
<path d="M44.7816 11.5096
L44.1768 11.5096
" />
<path d="M44.1768 11.5096
L44.0408 12.1144
" />
<path d="M44.0408 12.1144
L44.1088 12.0539
" />
<path d="M44.1088 12.0539
L44.2373 11.9934
" />
<path d="M44.2373 11.9934
L44.5397 11.9934
" />
<path d="M44.5397 11.9934
L44.6531 12.0539
" />
<path d="M44.6531 12.0539
L44.7060 12.1144
" />
<path d="M44.7060 12.1144
L44.7513 12.2353
" />
<path d="M44.7513 12.2353
L44.7135 12.5377
" />
<path d="M44.7135 12.5377
L44.6380 12.6587
" />
<path d="M44.6380 12.6587
L44.5699 12.7192
" />
<path d="M44.5699 12.7192
L44.4414 12.7796
" />
<path d="M44.4414 12.7796
L44.1390 12.7796
" />
<path d="M44.1390 12.7796
L44.0256 12.7192
" />
<path d="M44.0256 12.7192
L43.9727 12.6587
" />
<path d="M45.8702 11.9330
L45.7644 12.7796
" />
<path d="M45.6283 11.4492
L45.2125 12.3563
" />
<path d="M45.2125 12.3563
L45.9987 12.3563
" />
<path d="M46.3011 12.7796
L47.0722 11.9330
" />
<path d="M46.4070 11.9330
L46.9664 12.7796
" />
<path d="M47.5257 11.6306
L47.5938 11.5701
" />
<path d="M47.5938 11.5701
L47.7223 11.5096
" />
<path d="M47.7223 11.5096
L48.0247 11.5096
" />
<path d="M48.0247 11.5096
L48.1380 11.5701
" />
<path d="M48.1380 11.5701
L48.1910 11.6306
" />
<path d="M48.1910 11.6306
L48.2363 11.7515
" />
<path d="M48.2363 11.7515
L48.2212 11.8725
" />
<path d="M48.2212 11.8725
L48.1380 12.0539
" />
<path d="M48.1380 12.0539
L47.3216 12.7796
" />
<path d="M47.3216 12.7796
L48.1078 12.7796
" />
<path d="M48.6597 12.6587
L48.7126 12.7192
" />
<path d="M48.7126 12.7192
L48.6446 12.7796
" />
<path d="M48.6446 12.7796
L48.5917 12.7192
" />
<path d="M48.5917 12.7192
L48.6597 12.6587
" />
<path d="M48.6597 12.6587
L48.6446 12.7796
" />
<path d="M50.0053 11.5096
L49.4005 11.5096
" />
<path d="M49.4005 11.5096
L49.2645 12.1144
" />
<path d="M49.2645 12.1144
L49.3325 12.0539
" />
<path d="M49.3325 12.0539
L49.4610 11.9934
" />
<path d="M49.4610 11.9934
L49.7634 11.9934
" />
<path d="M49.7634 11.9934
L49.8768 12.0539
" />
<path d="M49.8768 12.0539
L49.9297 12.1144
" />
<path d="M49.9297 12.1144
L49.9750 12.2353
" />
<path d="M49.9750 12.2353
L49.9372 12.5377
" />
<path d="M49.9372 12.5377
L49.8617 12.6587
" />
<path d="M49.8617 12.6587
L49.7936 12.7192
" />
<path d="M49.7936 12.7192
L49.6651 12.7796
" />
<path d="M49.6651 12.7796
L49.3627 12.7796
" />
<path d="M49.3627 12.7796
L49.2493 12.7192
" />
<path d="M49.2493 12.7192
L49.1964 12.6587
" />
<path d="M51.0939 11.9330
L50.9881 12.7796
" />
<path d="M50.8520 11.4492
L50.4362 12.3563
" />
<path d="M50.4362 12.3563
L51.2224 12.3563
" />
<path d="M51.6458 12.7796
L51.7516 11.9330
" />
<path d="M51.7365 12.0539
L51.8045 11.9934
" />
<path d="M51.8045 11.9934
L51.9330 11.9330
" />
<path d="M51.9330 11.9330
L52.1145 11.9330
" />
<path d="M52.1145 11.9330
L52.2279 11.9934
" />
<path d="M52.2279 11.9934
L52.2732 12.1144
" />
<path d="M52.2732 12.1144
L52.1901 12.7796
" />
<path d="M52.2732 12.1144
L52.3488 11.9934
" />
<path d="M52.3488 11.9934
L52.4773 11.9330
" />
<path d="M52.4773 11.9330
L52.6587 11.9330
" />
<path d="M52.6587 11.9330
L52.7721 11.9934
" />
<path d="M52.7721 11.9934
L52.8175 12.1144
" />
<path d="M52.8175 12.1144
L52.7343 12.7796
" />
<path d="M53.3316 12.7796
L53.4374 11.9330
" />
<path d="M53.4223 12.0539
L53.4903 11.9934
" />
<path d="M53.4903 11.9934
L53.6188 11.9330
" />
<path d="M53.6188 11.9330
L53.8003 11.9330
" />
<path d="M53.8003 11.9330
L53.9137 11.9934
" />
<path d="M53.9137 11.9934
L53.9590 12.1144
" />
<path d="M53.9590 12.1144
L53.8759 12.7796
" />
<path d="M53.9590 12.1144
L54.0346 11.9934
" />
<path d="M54.0346 11.9934
L54.1631 11.9330
" />
<path d="M54.1631 11.9330
L54.3445 11.9330
" />
<path d="M54.3445 11.9330
L54.4579 11.9934
" />
<path d="M54.4579 11.9934
L54.5033 12.1144
" />
<path d="M54.5033 12.1144
L54.4201 12.7796
" />
<path d="M54.6999 12.9006
L55.6675 12.9006
" />
<path d="M55.9094 12.7192
L56.0832 12.7796
" />
<path d="M56.0832 12.7796
L56.3856 12.7796
" />
<path d="M56.3856 12.7796
L56.5141 12.7192
" />
<path d="M56.5141 12.7192
L56.5822 12.6587
" />
<path d="M56.5822 12.6587
L56.6577 12.5377
" />
<path d="M56.6577 12.5377
L56.6729 12.4168
" />
<path d="M56.6729 12.4168
L56.6275 12.2958
" />
<path d="M56.6275 12.2958
L56.5746 12.2353
" />
<path d="M56.5746 12.2353
L56.4612 12.1749
" />
<path d="M56.4612 12.1749
L56.2269 12.1144
" />
<path d="M56.2269 12.1144
L56.1135 12.0539
" />
<path d="M56.1135 12.0539
L56.0605 11.9934
" />
<path d="M56.0605 11.9934
L56.0152 11.8725
" />
<path d="M56.0152 11.8725
L56.0303 11.7515
" />
<path d="M56.0303 11.7515
L56.1059 11.6306
" />
<path d="M56.1059 11.6306
L56.1739 11.5701
" />
<path d="M56.1739 11.5701
L56.3025 11.5096
" />
<path d="M56.3025 11.5096
L56.6048 11.5096
" />
<path d="M56.6048 11.5096
L56.7787 11.5701
" />
<path d="M57.0887 11.9330
L57.5725 11.9330
" />
<path d="M57.3230 11.5096
L57.1870 12.5982
" />
<path d="M57.1870 12.5982
L57.2323 12.7192
" />
<path d="M57.2323 12.7192
L57.3457 12.7796
" />
<path d="M57.3457 12.7796
L57.4667 12.7796
" />
<path d="M58.4268 12.7796
L58.5099 12.1144
" />
<path d="M58.5099 12.1144
L58.4646 11.9934
" />
<path d="M58.4646 11.9934
L58.3512 11.9330
" />
<path d="M58.3512 11.9330
L58.1093 11.9330
" />
<path d="M58.1093 11.9330
L57.9807 11.9934
" />
<path d="M58.4343 12.7192
L58.3058 12.7796
" />
<path d="M58.3058 12.7796
L58.0034 12.7796
" />
<path d="M58.0034 12.7796
L57.8900 12.7192
" />
<path d="M57.8900 12.7192
L57.8447 12.5982
" />
<path d="M57.8447 12.5982
L57.8598 12.4772
" />
<path d="M57.8598 12.4772
L57.9354 12.3563
" />
<path d="M57.9354 12.3563
L58.0639 12.2958
" />
<path d="M58.0639 12.2958
L58.3663 12.2958
" />
<path d="M58.3663 12.2958
L58.4948 12.2353
" />
<path d="M59.6741 11.9330
L59.5456 12.9611
" />
<path d="M59.5456 12.9611
L59.4700 13.0820
" />
<path d="M59.4700 13.0820
L59.4019 13.1425
" />
<path d="M59.4019 13.1425
L59.2734 13.2030
" />
<path d="M59.2734 13.2030
L59.0920 13.2030
" />
<path d="M59.0920 13.2030
L58.9786 13.1425
" />
<path d="M59.5758 12.7192
L59.4473 12.7796
" />
<path d="M59.4473 12.7796
L59.2054 12.7796
" />
<path d="M59.2054 12.7796
L59.0920 12.7192
" />
<path d="M59.0920 12.7192
L59.0391 12.6587
" />
<path d="M59.0391 12.6587
L58.9937 12.5377
" />
<path d="M58.9937 12.5377
L59.0391 12.1749
" />
<path d="M59.0391 12.1749
L59.1147 12.0539
" />
<path d="M59.1147 12.0539
L59.1827 11.9934
" />
<path d="M59.1827 11.9934
L59.3112 11.9330
" />
<path d="M59.3112 11.9330
L59.5531 11.9330
" />
<path d="M59.5531 11.9330
L59.6665 11.9934
" />
<path d="M60.7627 11.9330
L60.6342 12.9611
" />
<path d="M60.6342 12.9611
L60.5586 13.0820
" />
<path d="M60.5586 13.0820
L60.4905 13.1425
" />
<path d="M60.4905 13.1425
L60.3620 13.2030
" />
<path d="M60.3620 13.2030
L60.1806 13.2030
" />
<path d="M60.1806 13.2030
L60.0672 13.1425
" />
<path d="M60.6644 12.7192
L60.5359 12.7796
" />
<path d="M60.5359 12.7796
L60.2940 12.7796
" />
<path d="M60.2940 12.7796
L60.1806 12.7192
" />
<path d="M60.1806 12.7192
L60.1277 12.6587
" />
<path d="M60.1277 12.6587
L60.0823 12.5377
" />
<path d="M60.0823 12.5377
L60.1277 12.1749
" />
<path d="M60.1277 12.1749
L60.2033 12.0539
" />
<path d="M60.2033 12.0539
L60.2713 11.9934
" />
<path d="M60.2713 11.9934
L60.3998 11.9330
" />
<path d="M60.3998 11.9330
L60.6417 11.9330
" />
<path d="M60.6417 11.9330
L60.7551 11.9934
" />
<path d="M61.6925 12.7192
L61.5640 12.7796
" />
<path d="M61.5640 12.7796
L61.3221 12.7796
" />
<path d="M61.3221 12.7796
L61.2087 12.7192
" />
<path d="M61.2087 12.7192
L61.1634 12.5982
" />
<path d="M61.1634 12.5982
L61.2239 12.1144
" />
<path d="M61.2239 12.1144
L61.2994 11.9934
" />
<path d="M61.2994 11.9934
L61.4280 11.9330
" />
<path d="M61.4280 11.9330
L61.6699 11.9330
" />
<path d="M61.6699 11.9330
L61.7833 11.9934
" />
<path d="M61.7833 11.9934
L61.8286 12.1144
" />
<path d="M61.8286 12.1144
L61.8135 12.2353
" />
<path d="M61.8135 12.2353
L61.1936 12.3563
" />
<path d="M62.2822 12.7796
L62.3880 11.9330
" />
<path d="M62.3578 12.1749
L62.4334 12.0539
" />
<path d="M62.4334 12.0539
L62.5014 11.9934
" />
<path d="M62.5014 11.9934
L62.6299 11.9330
" />
<path d="M62.6299 11.9330
L62.7509 11.9330
" />
<path d="M63.4614 11.5096
L63.7033 11.5096
" />
<path d="M63.7033 11.5096
L63.8167 11.5701
" />
<path d="M63.8167 11.5701
L63.9226 11.6911
" />
<path d="M63.9226 11.6911
L63.9528 11.9330
" />
<path d="M63.9528 11.9330
L63.8999 12.3563
" />
<path d="M63.8999 12.3563
L63.8092 12.5982
" />
<path d="M63.8092 12.5982
L63.6731 12.7192
" />
<path d="M63.6731 12.7192
L63.5446 12.7796
" />
<path d="M63.5446 12.7796
L63.3027 12.7796
" />
<path d="M63.3027 12.7796
L63.1893 12.7192
" />
<path d="M63.1893 12.7192
L63.0835 12.5982
" />
<path d="M63.0835 12.5982
L63.0532 12.3563
" />
<path d="M63.0532 12.3563
L63.1061 11.9330
" />
<path d="M63.1061 11.9330
L63.1968 11.6911
" />
<path d="M63.1968 11.6911
L63.3329 11.5701
" />
<path d="M63.3329 11.5701
L63.4614 11.5096
" />
<path d="M64.9280 12.7796
L65.0867 11.5096
" />
<path d="M64.9355 12.7192
L64.8070 12.7796
" />
<path d="M64.8070 12.7796
L64.5651 12.7796
" />
<path d="M64.5651 12.7796
L64.4517 12.7192
" />
<path d="M64.4517 12.7192
L64.3988 12.6587
" />
<path d="M64.3988 12.6587
L64.3534 12.5377
" />
<path d="M64.3534 12.5377
L64.3988 12.1749
" />
<path d="M64.3988 12.1749
L64.4744 12.0539
" />
<path d="M64.4744 12.0539
L64.5424 11.9934
" />
<path d="M64.5424 11.9934
L64.6709 11.9330
" />
<path d="M64.6709 11.9330
L64.9128 11.9330
" />
<path d="M64.9128 11.9330
L65.0262 11.9934
" />
<path d="M66.0695 12.7796
L66.2282 11.5096
" />
<path d="M66.0770 12.7192
L65.9485 12.7796
" />
<path d="M65.9485 12.7796
L65.7066 12.7796
" />
<path d="M65.7066 12.7796
L65.5932 12.7192
" />
<path d="M65.5932 12.7192
L65.5403 12.6587
" />
<path d="M65.5403 12.6587
L65.4949 12.5377
" />
<path d="M65.4949 12.5377
L65.5403 12.1749
" />
<path d="M65.5403 12.1749
L65.6159 12.0539
" />
<path d="M65.6159 12.0539
L65.6839 11.9934
" />
<path d="M65.6839 11.9934
L65.8124 11.9330
" />
<path d="M65.8124 11.9330
L66.0543 11.9330
" />
<path d="M66.0543 11.9330
L66.1677 11.9934
" />
<path d="M66.3492 12.9006
L67.3168 12.9006
" />
<path d="M68.2163 12.7796
L67.6116 12.7796
" />
<path d="M67.6116 12.7796
L67.7703 11.5096
" />
<path d="M69.1234 12.7192
L68.9949 12.7796
" />
<path d="M68.9949 12.7796
L68.7530 12.7796
" />
<path d="M68.7530 12.7796
L68.6396 12.7192
" />
<path d="M68.6396 12.7192
L68.5943 12.5982
" />
<path d="M68.5943 12.5982
L68.6548 12.1144
" />
<path d="M68.6548 12.1144
L68.7303 11.9934
" />
<path d="M68.7303 11.9934
L68.8589 11.9330
" />
<path d="M68.8589 11.9330
L69.1008 11.9330
" />
<path d="M69.1008 11.9330
L69.2142 11.9934
" />
<path d="M69.2142 11.9934
L69.2595 12.1144
" />
<path d="M69.2595 12.1144
L69.2444 12.2353
" />
<path d="M69.2444 12.2353
L68.6245 12.3563
" />
<path d="M70.2574 12.7796
L70.3405 12.1144
" />
<path d="M70.3405 12.1144
L70.2952 11.9934
" />
<path d="M70.2952 11.9934
L70.1818 11.9330
" />
<path d="M70.1818 11.9330
L69.9399 11.9330
" />
<path d="M69.9399 11.9330
L69.8113 11.9934
" />
<path d="M70.2649 12.7192
L70.1364 12.7796
" />
<path d="M70.1364 12.7796
L69.8340 12.7796
" />
<path d="M69.8340 12.7796
L69.7206 12.7192
" />
<path d="M69.7206 12.7192
L69.6753 12.5982
" />
<path d="M69.6753 12.5982
L69.6904 12.4772
" />
<path d="M69.6904 12.4772
L69.7660 12.3563
" />
<path d="M69.7660 12.3563
L69.8945 12.2958
" />
<path d="M69.8945 12.2958
L70.1969 12.2958
" />
<path d="M70.1969 12.2958
L70.3254 12.2353
" />
<path d="M71.3989 12.7796
L71.5576 11.5096
" />
<path d="M71.4064 12.7192
L71.2779 12.7796
" />
<path d="M71.2779 12.7796
L71.0360 12.7796
" />
<path d="M71.0360 12.7796
L70.9226 12.7192
" />
<path d="M70.9226 12.7192
L70.8697 12.6587
" />
<path d="M70.8697 12.6587
L70.8243 12.5377
" />
<path d="M70.8243 12.5377
L70.8697 12.1749
" />
<path d="M70.8697 12.1749
L70.9453 12.0539
" />
<path d="M70.9453 12.0539
L71.0133 11.9934
" />
<path d="M71.0133 11.9934
L71.1418 11.9330
" />
<path d="M71.1418 11.9330
L71.3837 11.9330
" />
<path d="M71.3837 11.9330
L71.4971 11.9934
" />
<path d="M72.6462 11.9330
L72.5404 12.7796
" />
<path d="M72.4043 11.4492
L71.9885 12.3563
" />
<path d="M71.9885 12.3563
L72.7747 12.3563
" />
<path d="M73.2132 12.6587
L73.2661 12.7192
" />
<path d="M73.2661 12.7192
L73.1981 12.7796
" />
<path d="M73.1981 12.7796
L73.1452 12.7192
" />
<path d="M73.1452 12.7192
L73.2132 12.6587
" />
<path d="M73.2132 12.6587
L73.1981 12.7796
" />
<path d="M74.5588 11.5096
L73.9540 11.5096
" />
<path d="M73.9540 11.5096
L73.8180 12.1144
" />
<path d="M73.8180 12.1144
L73.8860 12.0539
" />
<path d="M73.8860 12.0539
L74.0145 11.9934
" />
<path d="M74.0145 11.9934
L74.3169 11.9934
" />
<path d="M74.3169 11.9934
L74.4303 12.0539
" />
<path d="M74.4303 12.0539
L74.4832 12.1144
" />
<path d="M74.4832 12.1144
L74.5285 12.2353
" />
<path d="M74.5285 12.2353
L74.4907 12.5377
" />
<path d="M74.4907 12.5377
L74.4152 12.6587
" />
<path d="M74.4152 12.6587
L74.3471 12.7192
" />
<path d="M74.3471 12.7192
L74.2186 12.7796
" />
<path d="M74.2186 12.7796
L73.9162 12.7796
" />
<path d="M73.9162 12.7796
L73.8028 12.7192
" />
<path d="M73.8028 12.7192
L73.7499 12.6587
" />
<path d="M75.2694 12.0539
L75.1560 11.9934
" />
<path d="M75.1560 11.9934
L75.1031 11.9330
" />
<path d="M75.1031 11.9330
L75.0577 11.8120
" />
<path d="M75.0577 11.8120
L75.0653 11.7515
" />
<path d="M75.0653 11.7515
L75.1409 11.6306
" />
<path d="M75.1409 11.6306
L75.2089 11.5701
" />
<path d="M75.2089 11.5701
L75.3375 11.5096
" />
<path d="M75.3375 11.5096
L75.5794 11.5096
" />
<path d="M75.5794 11.5096
L75.6927 11.5701
" />
<path d="M75.6927 11.5701
L75.7457 11.6306
" />
<path d="M75.7457 11.6306
L75.7910 11.7515
" />
<path d="M75.7910 11.7515
L75.7835 11.8120
" />
<path d="M75.7835 11.8120
L75.7079 11.9330
" />
<path d="M75.7079 11.9330
L75.6398 11.9934
" />
<path d="M75.6398 11.9934
L75.5113 12.0539
" />
<path d="M75.5113 12.0539
L75.2694 12.0539
" />
<path d="M75.2694 12.0539
L75.1409 12.1144
" />
<path d="M75.1409 12.1144
L75.0729 12.1749
" />
<path d="M75.0729 12.1749
L74.9973 12.2958
" />
<path d="M74.9973 12.2958
L74.9670 12.5377
" />
<path d="M74.9670 12.5377
L75.0124 12.6587
" />
<path d="M75.0124 12.6587
L75.0653 12.7192
" />
<path d="M75.0653 12.7192
L75.1787 12.7796
" />
<path d="M75.1787 12.7796
L75.4206 12.7796
" />
<path d="M75.4206 12.7796
L75.5491 12.7192
" />
<path d="M75.5491 12.7192
L75.6172 12.6587
" />
<path d="M75.6172 12.6587
L75.6927 12.5377
" />
<path d="M75.6927 12.5377
L75.7230 12.2958
" />
<path d="M75.7230 12.2958
L75.6776 12.1749
" />
<path d="M75.6776 12.1749
L75.6247 12.1144
" />
<path d="M75.6247 12.1144
L75.5113 12.0539
" />
<path d="M76.1993 12.7796
L76.3051 11.9330
" />
<path d="M76.2900 12.0539
L76.3580 11.9934
" />
<path d="M76.3580 11.9934
L76.4865 11.9330
" />
<path d="M76.4865 11.9330
L76.6680 11.9330
" />
<path d="M76.6680 11.9330
L76.7814 11.9934
" />
<path d="M76.7814 11.9934
L76.8267 12.1144
" />
<path d="M76.8267 12.1144
L76.7436 12.7796
" />
<path d="M76.8267 12.1144
L76.9023 11.9934
" />
<path d="M76.9023 11.9934
L77.0308 11.9330
" />
<path d="M77.0308 11.9330
L77.2122 11.9330
" />
<path d="M77.2122 11.9330
L77.3256 11.9934
" />
<path d="M77.3256 11.9934
L77.3710 12.1144
" />
<path d="M77.3710 12.1144
L77.2878 12.7796
" />
<path d="M77.8851 12.7796
L77.9909 11.9330
" />
<path d="M77.9758 12.0539
L78.0438 11.9934
" />
<path d="M78.0438 11.9934
L78.1723 11.9330
" />
<path d="M78.1723 11.9330
L78.3538 11.9330
" />
<path d="M78.3538 11.9330
L78.4672 11.9934
" />
<path d="M78.4672 11.9934
L78.5125 12.1144
" />
<path d="M78.5125 12.1144
L78.4294 12.7796
" />
<path d="M78.5125 12.1144
L78.5881 11.9934
" />
<path d="M78.5881 11.9934
L78.7166 11.9330
" />
<path d="M78.7166 11.9330
L78.8980 11.9330
" />
<path d="M78.8980 11.9330
L79.0114 11.9934
" />
<path d="M79.0114 11.9934
L79.0568 12.1144
" />
<path d="M79.0568 12.1144
L78.9736 12.7796
" />
<path d="M79.2534 12.9006
L80.2210 12.9006
" />
<path d="M80.4931 11.5096
L80.7577 12.7796
" />
<path d="M80.7577 12.7796
L81.3398 11.5096
" />
<path d="M82.0881 12.7192
L81.9596 12.7796
" />
<path d="M81.9596 12.7796
L81.7177 12.7796
" />
<path d="M81.7177 12.7796
L81.6043 12.7192
" />
<path d="M81.6043 12.7192
L81.5590 12.5982
" />
<path d="M81.5590 12.5982
L81.6195 12.1144
" />
<path d="M81.6195 12.1144
L81.6950 11.9934
" />
<path d="M81.6950 11.9934
L81.8236 11.9330
" />
<path d="M81.8236 11.9330
L82.0655 11.9330
" />
<path d="M82.0655 11.9330
L82.1789 11.9934
" />
<path d="M82.1789 11.9934
L82.2242 12.1144
" />
<path d="M82.2242 12.1144
L82.2091 12.2353
" />
<path d="M82.2091 12.2353
L81.5892 12.3563
" />
<path d="M82.6778 12.7796
L82.7836 11.9330
" />
<path d="M82.7534 12.1749
L82.8290 12.0539
" />
<path d="M82.8290 12.0539
L82.8970 11.9934
" />
<path d="M82.8970 11.9934
L83.0255 11.9330
" />
<path d="M83.0255 11.9330
L83.1465 11.9330
" />
<path d="M83.3808 11.9330
L83.8646 11.9330
" />
<path d="M83.6151 11.5096
L83.4791 12.5982
" />
<path d="M83.4791 12.5982
L83.5244 12.7192
" />
<path d="M83.5244 12.7192
L83.6378 12.7796
" />
<path d="M83.6378 12.7796
L83.7588 12.7796
" />
<path d="M84.1746 12.7796
L84.2804 11.9330
" />
<path d="M84.3333 11.5096
L84.2653 11.5701
" />
<path d="M84.2653 11.5701
L84.3182 11.6306
" />
<path d="M84.3182 11.6306
L84.3862 11.5701
" />
<path d="M84.3862 11.5701
L84.3333 11.5096
" />
<path d="M84.3333 11.5096
L84.3182 11.6306
" />
<path d="M85.3236 12.7192
L85.1951 12.7796
" />
<path d="M85.1951 12.7796
L84.9532 12.7796
" />
<path d="M84.9532 12.7796
L84.8398 12.7192
" />
<path d="M84.8398 12.7192
L84.7869 12.6587
" />
<path d="M84.7869 12.6587
L84.7415 12.5377
" />
<path d="M84.7415 12.5377
L84.7869 12.1749
" />
<path d="M84.7869 12.1749
L84.8625 12.0539
" />
<path d="M84.8625 12.0539
L84.9305 11.9934
" />
<path d="M84.9305 11.9934
L85.0590 11.9330
" />
<path d="M85.0590 11.9330
L85.3009 11.9330
" />
<path d="M85.3009 11.9330
L85.4143 11.9934
" />
<path d="M86.3971 12.7796
L86.4802 12.1144
" />
<path d="M86.4802 12.1144
L86.4349 11.9934
" />
<path d="M86.4349 11.9934
L86.3215 11.9330
" />
<path d="M86.3215 11.9330
L86.0796 11.9330
" />
<path d="M86.0796 11.9330
L85.9510 11.9934
" />
<path d="M86.4046 12.7192
L86.2761 12.7796
" />
<path d="M86.2761 12.7796
L85.9737 12.7796
" />
<path d="M85.9737 12.7796
L85.8603 12.7192
" />
<path d="M85.8603 12.7192
L85.8150 12.5982
" />
<path d="M85.8150 12.5982
L85.8301 12.4772
" />
<path d="M85.8301 12.4772
L85.9057 12.3563
" />
<path d="M85.9057 12.3563
L86.0342 12.2958
" />
<path d="M86.0342 12.2958
L86.3366 12.2958
" />
<path d="M86.3366 12.2958
L86.4651 12.2353
" />
<path d="M87.1757 12.7796
L87.0623 12.7192
" />
<path d="M87.0623 12.7192
L87.0170 12.5982
" />
<path d="M87.0170 12.5982
L87.1530 11.5096
" />
</g><text x="47.6089" y="12.8271"
textLength="54.5108" font-size="1.6933" lengthAdjust="spacingAndGlyphs"
text-anchor="middle" opacity="0">http://www.st.com/resource/en/datasheet/tda7293.pdf</text>
<g class="stroked-text"><desc>http://www.st.com/resource/en/datasheet/tda7293.pdf</desc>
<path d="M20.7273 12.7796
L20.7273 11.5096
" />
<path d="M21.2716 12.7796
L21.2716 12.1144
" />
<path d="M21.2716 12.1144
L21.2111 11.9934
" />
<path d="M21.2111 11.9934
L21.0902 11.9330
" />
<path d="M21.0902 11.9330
L20.9088 11.9330
" />
<path d="M20.9088 11.9330
L20.7878 11.9934
" />
<path d="M20.7878 11.9934
L20.7273 12.0539
" />
<path d="M21.6949 11.9330
L22.1787 11.9330
" />
<path d="M21.8763 11.5096
L21.8763 12.5982
" />
<path d="M21.8763 12.5982
L21.9368 12.7192
" />
<path d="M21.9368 12.7192
L22.0578 12.7796
" />
<path d="M22.0578 12.7796
L22.1787 12.7796
" />
<path d="M22.4206 11.9330
L22.9044 11.9330
" />
<path d="M22.6020 11.5096
L22.6020 12.5982
" />
<path d="M22.6020 12.5982
L22.6625 12.7192
" />
<path d="M22.6625 12.7192
L22.7835 12.7796
" />
<path d="M22.7835 12.7796
L22.9044 12.7796
" />
<path d="M23.3277 11.9330
L23.3277 13.2030
" />
<path d="M23.3277 11.9934
L23.4487 11.9330
" />
<path d="M23.4487 11.9330
L23.6906 11.9330
" />
<path d="M23.6906 11.9330
L23.8115 11.9934
" />
<path d="M23.8115 11.9934
L23.8720 12.0539
" />
<path d="M23.8720 12.0539
L23.9325 12.1749
" />
<path d="M23.9325 12.1749
L23.9325 12.5377
" />
<path d="M23.9325 12.5377
L23.8720 12.6587
" />
<path d="M23.8720 12.6587
L23.8115 12.7192
" />
<path d="M23.8115 12.7192
L23.6906 12.7796
" />
<path d="M23.6906 12.7796
L23.4487 12.7796
" />
<path d="M23.4487 12.7796
L23.3277 12.7192
" />
<path d="M24.4767 12.6587
L24.5372 12.7192
" />
<path d="M24.5372 12.7192
L24.4767 12.7796
" />
<path d="M24.4767 12.7796
L24.4163 12.7192
" />
<path d="M24.4163 12.7192
L24.4767 12.6587
" />
<path d="M24.4767 12.6587
L24.4767 12.7796
" />
<path d="M24.4767 11.9934
L24.5372 12.0539
" />
<path d="M24.5372 12.0539
L24.4767 12.1144
" />
<path d="M24.4767 12.1144
L24.4163 12.0539
" />
<path d="M24.4163 12.0539
L24.4767 11.9934
" />
<path d="M24.4767 11.9934
L24.4767 12.1144
" />
<path d="M25.9887 11.4492
L24.9001 13.0820
" />
<path d="M27.3192 11.4492
L26.2306 13.0820
" />
<path d="M27.6216 11.9330
L27.8635 12.7796
" />
<path d="M27.8635 12.7796
L28.1054 12.1749
" />
<path d="M28.1054 12.1749
L28.3473 12.7796
" />
<path d="M28.3473 12.7796
L28.5892 11.9330
" />
<path d="M28.9521 11.9330
L29.1940 12.7796
" />
<path d="M29.1940 12.7796
L29.4359 12.1749
" />
<path d="M29.4359 12.1749
L29.6778 12.7796
" />
<path d="M29.6778 12.7796
L29.9197 11.9330
" />
<path d="M30.2826 11.9330
L30.5245 12.7796
" />
<path d="M30.5245 12.7796
L30.7664 12.1749
" />
<path d="M30.7664 12.1749
L31.0083 12.7796
" />
<path d="M31.0083 12.7796
L31.2502 11.9330
" />
<path d="M31.7340 12.6587
L31.7945 12.7192
" />
<path d="M31.7945 12.7192
L31.7340 12.7796
" />
<path d="M31.7340 12.7796
L31.6736 12.7192
" />
<path d="M31.6736 12.7192
L31.7340 12.6587
" />
<path d="M31.7340 12.6587
L31.7340 12.7796
" />
<path d="M32.2784 12.7192
L32.3993 12.7796
" />
<path d="M32.3993 12.7796
L32.6412 12.7796
" />
<path d="M32.6412 12.7796
L32.7622 12.7192
" />
<path d="M32.7622 12.7192
L32.8226 12.5982
" />
<path d="M32.8226 12.5982
L32.8226 12.5377
" />
<path d="M32.8226 12.5377
L32.7622 12.4168
" />
<path d="M32.7622 12.4168
L32.6412 12.3563
" />
<path d="M32.6412 12.3563
L32.4598 12.3563
" />
<path d="M32.4598 12.3563
L32.3388 12.2958
" />
<path d="M32.3388 12.2958
L32.2784 12.1749
" />
<path d="M32.2784 12.1749
L32.2784 12.1144
" />
<path d="M32.2784 12.1144
L32.3388 11.9934
" />
<path d="M32.3388 11.9934
L32.4598 11.9330
" />
<path d="M32.4598 11.9330
L32.6412 11.9330
" />
<path d="M32.6412 11.9330
L32.7622 11.9934
" />
<path d="M33.1855 11.9330
L33.6693 11.9330
" />
<path d="M33.3669 11.5096
L33.3669 12.5982
" />
<path d="M33.3669 12.5982
L33.4274 12.7192
" />
<path d="M33.4274 12.7192
L33.5484 12.7796
" />
<path d="M33.5484 12.7796
L33.6693 12.7796
" />
<path d="M34.0926 12.6587
L34.1531 12.7192
" />
<path d="M34.1531 12.7192
L34.0926 12.7796
" />
<path d="M34.0926 12.7796
L34.0322 12.7192
" />
<path d="M34.0322 12.7192
L34.0926 12.6587
" />
<path d="M34.0926 12.6587
L34.0926 12.7796
" />
<path d="M35.2417 12.7192
L35.1208 12.7796
" />
<path d="M35.1208 12.7796
L34.8789 12.7796
" />
<path d="M34.8789 12.7796
L34.7579 12.7192
" />
<path d="M34.7579 12.7192
L34.6974 12.6587
" />
<path d="M34.6974 12.6587
L34.6370 12.5377
" />
<path d="M34.6370 12.5377
L34.6370 12.1749
" />
<path d="M34.6370 12.1749
L34.6974 12.0539
" />
<path d="M34.6974 12.0539
L34.7579 11.9934
" />
<path d="M34.7579 11.9934
L34.8789 11.9330
" />
<path d="M34.8789 11.9330
L35.1208 11.9330
" />
<path d="M35.1208 11.9330
L35.2417 11.9934
" />
<path d="M35.9675 12.7796
L35.8465 12.7192
" />
<path d="M35.8465 12.7192
L35.7860 12.6587
" />
<path d="M35.7860 12.6587
L35.7256 12.5377
" />
<path d="M35.7256 12.5377
L35.7256 12.1749
" />
<path d="M35.7256 12.1749
L35.7860 12.0539
" />
<path d="M35.7860 12.0539
L35.8465 11.9934
" />
<path d="M35.8465 11.9934
L35.9675 11.9330
" />
<path d="M35.9675 11.9330
L36.1489 11.9330
" />
<path d="M36.1489 11.9330
L36.2698 11.9934
" />
<path d="M36.2698 11.9934
L36.3303 12.0539
" />
<path d="M36.3303 12.0539
L36.3908 12.1749
" />
<path d="M36.3908 12.1749
L36.3908 12.5377
" />
<path d="M36.3908 12.5377
L36.3303 12.6587
" />
<path d="M36.3303 12.6587
L36.2698 12.7192
" />
<path d="M36.2698 12.7192
L36.1489 12.7796
" />
<path d="M36.1489 12.7796
L35.9675 12.7796
" />
<path d="M36.9350 12.7796
L36.9350 11.9330
" />
<path d="M36.9350 12.0539
L36.9955 11.9934
" />
<path d="M36.9955 11.9934
L37.1165 11.9330
" />
<path d="M37.1165 11.9330
L37.2979 11.9330
" />
<path d="M37.2979 11.9330
L37.4188 11.9934
" />
<path d="M37.4188 11.9934
L37.4793 12.1144
" />
<path d="M37.4793 12.1144
L37.4793 12.7796
" />
<path d="M37.4793 12.1144
L37.5398 11.9934
" />
<path d="M37.5398 11.9934
L37.6607 11.9330
" />
<path d="M37.6607 11.9330
L37.8422 11.9330
" />
<path d="M37.8422 11.9330
L37.9631 11.9934
" />
<path d="M37.9631 11.9934
L38.0236 12.1144
" />
<path d="M38.0236 12.1144
L38.0236 12.7796
" />
<path d="M39.5355 11.4492
L38.4469 13.0820
" />
<path d="M39.9588 12.7796
L39.9588 11.9330
" />
<path d="M39.9588 12.1749
L40.0193 12.0539
" />
<path d="M40.0193 12.0539
L40.0798 11.9934
" />
<path d="M40.0798 11.9934
L40.2007 11.9330
" />
<path d="M40.2007 11.9330
L40.3217 11.9330
" />
<path d="M41.2288 12.7192
L41.1079 12.7796
" />
<path d="M41.1079 12.7796
L40.8660 12.7796
" />
<path d="M40.8660 12.7796
L40.7450 12.7192
" />
<path d="M40.7450 12.7192
L40.6846 12.5982
" />
<path d="M40.6846 12.5982
L40.6846 12.1144
" />
<path d="M40.6846 12.1144
L40.7450 11.9934
" />
<path d="M40.7450 11.9934
L40.8660 11.9330
" />
<path d="M40.8660 11.9330
L41.1079 11.9330
" />
<path d="M41.1079 11.9330
L41.2288 11.9934
" />
<path d="M41.2288 11.9934
L41.2893 12.1144
" />
<path d="M41.2893 12.1144
L41.2893 12.2353
" />
<path d="M41.2893 12.2353
L40.6846 12.3563
" />
<path d="M41.7732 12.7192
L41.8941 12.7796
" />
<path d="M41.8941 12.7796
L42.1360 12.7796
" />
<path d="M42.1360 12.7796
L42.2570 12.7192
" />
<path d="M42.2570 12.7192
L42.3174 12.5982
" />
<path d="M42.3174 12.5982
L42.3174 12.5377
" />
<path d="M42.3174 12.5377
L42.2570 12.4168
" />
<path d="M42.2570 12.4168
L42.1360 12.3563
" />
<path d="M42.1360 12.3563
L41.9546 12.3563
" />
<path d="M41.9546 12.3563
L41.8336 12.2958
" />
<path d="M41.8336 12.2958
L41.7732 12.1749
" />
<path d="M41.7732 12.1749
L41.7732 12.1144
" />
<path d="M41.7732 12.1144
L41.8336 11.9934
" />
<path d="M41.8336 11.9934
L41.9546 11.9330
" />
<path d="M41.9546 11.9330
L42.1360 11.9330
" />
<path d="M42.1360 11.9330
L42.2570 11.9934
" />
<path d="M43.0432 12.7796
L42.9222 12.7192
" />
<path d="M42.9222 12.7192
L42.8617 12.6587
" />
<path d="M42.8617 12.6587
L42.8013 12.5377
" />
<path d="M42.8013 12.5377
L42.8013 12.1749
" />
<path d="M42.8013 12.1749
L42.8617 12.0539
" />
<path d="M42.8617 12.0539
L42.9222 11.9934
" />
<path d="M42.9222 11.9934
L43.0432 11.9330
" />
<path d="M43.0432 11.9330
L43.2246 11.9330
" />
<path d="M43.2246 11.9330
L43.3455 11.9934
" />
<path d="M43.3455 11.9934
L43.4060 12.0539
" />
<path d="M43.4060 12.0539
L43.4665 12.1749
" />
<path d="M43.4665 12.1749
L43.4665 12.5377
" />
<path d="M43.4665 12.5377
L43.4060 12.6587
" />
<path d="M43.4060 12.6587
L43.3455 12.7192
" />
<path d="M43.3455 12.7192
L43.2246 12.7796
" />
<path d="M43.2246 12.7796
L43.0432 12.7796
" />
<path d="M44.5550 11.9330
L44.5550 12.7796
" />
<path d="M44.0107 11.9330
L44.0107 12.5982
" />
<path d="M44.0107 12.5982
L44.0712 12.7192
" />
<path d="M44.0712 12.7192
L44.1922 12.7796
" />
<path d="M44.1922 12.7796
L44.3736 12.7796
" />
<path d="M44.3736 12.7796
L44.4945 12.7192
" />
<path d="M44.4945 12.7192
L44.5550 12.6587
" />
<path d="M45.1597 12.7796
L45.1597 11.9330
" />
<path d="M45.1597 12.1749
L45.2202 12.0539
" />
<path d="M45.2202 12.0539
L45.2807 11.9934
" />
<path d="M45.2807 11.9934
L45.4016 11.9330
" />
<path d="M45.4016 11.9330
L45.5226 11.9330
" />
<path d="M46.4902 12.7192
L46.3693 12.7796
" />
<path d="M46.3693 12.7796
L46.1274 12.7796
" />
<path d="M46.1274 12.7796
L46.0064 12.7192
" />
<path d="M46.0064 12.7192
L45.9459 12.6587
" />
<path d="M45.9459 12.6587
L45.8855 12.5377
" />
<path d="M45.8855 12.5377
L45.8855 12.1749
" />
<path d="M45.8855 12.1749
L45.9459 12.0539
" />
<path d="M45.9459 12.0539
L46.0064 11.9934
" />
<path d="M46.0064 11.9934
L46.1274 11.9330
" />
<path d="M46.1274 11.9330
L46.3693 11.9330
" />
<path d="M46.3693 11.9330
L46.4902 11.9934
" />
<path d="M47.5183 12.7192
L47.3974 12.7796
" />
<path d="M47.3974 12.7796
L47.1555 12.7796
" />
<path d="M47.1555 12.7796
L47.0345 12.7192
" />
<path d="M47.0345 12.7192
L46.9741 12.5982
" />
<path d="M46.9741 12.5982
L46.9741 12.1144
" />
<path d="M46.9741 12.1144
L47.0345 11.9934
" />
<path d="M47.0345 11.9934
L47.1555 11.9330
" />
<path d="M47.1555 11.9330
L47.3974 11.9330
" />
<path d="M47.3974 11.9330
L47.5183 11.9934
" />
<path d="M47.5183 11.9934
L47.5788 12.1144
" />
<path d="M47.5788 12.1144
L47.5788 12.2353
" />
<path d="M47.5788 12.2353
L46.9741 12.3563
" />
<path d="M49.0303 11.4492
L47.9417 13.0820
" />
<path d="M49.9374 12.7192
L49.8165 12.7796
" />
<path d="M49.8165 12.7796
L49.5746 12.7796
" />
<path d="M49.5746 12.7796
L49.4536 12.7192
" />
<path d="M49.4536 12.7192
L49.3932 12.5982
" />
<path d="M49.3932 12.5982
L49.3932 12.1144
" />
<path d="M49.3932 12.1144
L49.4536 11.9934
" />
<path d="M49.4536 11.9934
L49.5746 11.9330
" />
<path d="M49.5746 11.9330
L49.8165 11.9330
" />
<path d="M49.8165 11.9330
L49.9374 11.9934
" />
<path d="M49.9374 11.9934
L49.9979 12.1144
" />
<path d="M49.9979 12.1144
L49.9979 12.2353
" />
<path d="M49.9979 12.2353
L49.3932 12.3563
" />
<path d="M50.5422 11.9330
L50.5422 12.7796
" />
<path d="M50.5422 12.0539
L50.6027 11.9934
" />
<path d="M50.6027 11.9934
L50.7237 11.9330
" />
<path d="M50.7237 11.9330
L50.9051 11.9330
" />
<path d="M50.9051 11.9330
L51.0260 11.9934
" />
<path d="M51.0260 11.9934
L51.0865 12.1144
" />
<path d="M51.0865 12.1144
L51.0865 12.7796
" />
<path d="M52.5984 11.4492
L51.5098 13.0820
" />
<path d="M53.5660 12.7796
L53.5660 11.5096
" />
<path d="M53.5660 12.7192
L53.4451 12.7796
" />
<path d="M53.4451 12.7796
L53.2032 12.7796
" />
<path d="M53.2032 12.7796
L53.0822 12.7192
" />
<path d="M53.0822 12.7192
L53.0217 12.6587
" />
<path d="M53.0217 12.6587
L52.9613 12.5377
" />
<path d="M52.9613 12.5377
L52.9613 12.1749
" />
<path d="M52.9613 12.1749
L53.0217 12.0539
" />
<path d="M53.0217 12.0539
L53.0822 11.9934
" />
<path d="M53.0822 11.9934
L53.2032 11.9330
" />
<path d="M53.2032 11.9330
L53.4451 11.9330
" />
<path d="M53.4451 11.9330
L53.5660 11.9934
" />
<path d="M54.7150 12.7796
L54.7150 12.1144
" />
<path d="M54.7150 12.1144
L54.6545 11.9934
" />
<path d="M54.6545 11.9934
L54.5336 11.9330
" />
<path d="M54.5336 11.9330
L54.2917 11.9330
" />
<path d="M54.2917 11.9330
L54.1707 11.9934
" />
<path d="M54.7150 12.7192
L54.5941 12.7796
" />
<path d="M54.5941 12.7796
L54.2917 12.7796
" />
<path d="M54.2917 12.7796
L54.1707 12.7192
" />
<path d="M54.1707 12.7192
L54.1103 12.5982
" />
<path d="M54.1103 12.5982
L54.1103 12.4772
" />
<path d="M54.1103 12.4772
L54.1707 12.3563
" />
<path d="M54.1707 12.3563
L54.2917 12.2958
" />
<path d="M54.2917 12.2958
L54.5941 12.2958
" />
<path d="M54.5941 12.2958
L54.7150 12.2353
" />
<path d="M55.1383 11.9330
L55.6221 11.9330
" />
<path d="M55.3197 11.5096
L55.3197 12.5982
" />
<path d="M55.3197 12.5982
L55.3802 12.7192
" />
<path d="M55.3802 12.7192
L55.5012 12.7796
" />
<path d="M55.5012 12.7796
L55.6221 12.7796
" />
<path d="M56.5897 12.7796
L56.5897 12.1144
" />
<path d="M56.5897 12.1144
L56.5292 11.9934
" />
<path d="M56.5292 11.9934
L56.4083 11.9330
" />
<path d="M56.4083 11.9330
L56.1664 11.9330
" />
<path d="M56.1664 11.9330
L56.0454 11.9934
" />
<path d="M56.5897 12.7192
L56.4688 12.7796
" />
<path d="M56.4688 12.7796
L56.1664 12.7796
" />
<path d="M56.1664 12.7796
L56.0454 12.7192
" />
<path d="M56.0454 12.7192
L55.9850 12.5982
" />
<path d="M55.9850 12.5982
L55.9850 12.4772
" />
<path d="M55.9850 12.4772
L56.0454 12.3563
" />
<path d="M56.0454 12.3563
L56.1664 12.2958
" />
<path d="M56.1664 12.2958
L56.4688 12.2958
" />
<path d="M56.4688 12.2958
L56.5897 12.2353
" />
<path d="M57.1340 12.7192
L57.2549 12.7796
" />
<path d="M57.2549 12.7796
L57.4968 12.7796
" />
<path d="M57.4968 12.7796
L57.6178 12.7192
" />
<path d="M57.6178 12.7192
L57.6782 12.5982
" />
<path d="M57.6782 12.5982
L57.6782 12.5377
" />
<path d="M57.6782 12.5377
L57.6178 12.4168
" />
<path d="M57.6178 12.4168
L57.4968 12.3563
" />
<path d="M57.4968 12.3563
L57.3154 12.3563
" />
<path d="M57.3154 12.3563
L57.1944 12.2958
" />
<path d="M57.1944 12.2958
L57.1340 12.1749
" />
<path d="M57.1340 12.1749
L57.1340 12.1144
" />
<path d="M57.1340 12.1144
L57.1944 11.9934
" />
<path d="M57.1944 11.9934
L57.3154 11.9330
" />
<path d="M57.3154 11.9330
L57.4968 11.9330
" />
<path d="M57.4968 11.9330
L57.6178 11.9934
" />
<path d="M58.2225 12.7796
L58.2225 11.5096
" />
<path d="M58.7668 12.7796
L58.7668 12.1144
" />
<path d="M58.7668 12.1144
L58.7063 11.9934
" />
<path d="M58.7063 11.9934
L58.5854 11.9330
" />
<path d="M58.5854 11.9330
L58.4040 11.9330
" />
<path d="M58.4040 11.9330
L58.2830 11.9934
" />
<path d="M58.2830 11.9934
L58.2225 12.0539
" />
<path d="M59.8553 12.7192
L59.7344 12.7796
" />
<path d="M59.7344 12.7796
L59.4925 12.7796
" />
<path d="M59.4925 12.7796
L59.3715 12.7192
" />
<path d="M59.3715 12.7192
L59.3111 12.5982
" />
<path d="M59.3111 12.5982
L59.3111 12.1144
" />
<path d="M59.3111 12.1144
L59.3715 11.9934
" />
<path d="M59.3715 11.9934
L59.4925 11.9330
" />
<path d="M59.4925 11.9330
L59.7344 11.9330
" />
<path d="M59.7344 11.9330
L59.8553 11.9934
" />
<path d="M59.8553 11.9934
L59.9158 12.1144
" />
<path d="M59.9158 12.1144
L59.9158 12.2353
" />
<path d="M59.9158 12.2353
L59.3111 12.3563
" />
<path d="M60.9439 12.7192
L60.8230 12.7796
" />
<path d="M60.8230 12.7796
L60.5811 12.7796
" />
<path d="M60.5811 12.7796
L60.4601 12.7192
" />
<path d="M60.4601 12.7192
L60.3997 12.5982
" />
<path d="M60.3997 12.5982
L60.3997 12.1144
" />
<path d="M60.3997 12.1144
L60.4601 11.9934
" />
<path d="M60.4601 11.9934
L60.5811 11.9330
" />
<path d="M60.5811 11.9330
L60.8230 11.9330
" />
<path d="M60.8230 11.9330
L60.9439 11.9934
" />
<path d="M60.9439 11.9934
L61.0044 12.1144
" />
<path d="M61.0044 12.1144
L61.0044 12.2353
" />
<path d="M61.0044 12.2353
L60.3997 12.3563
" />
<path d="M61.3673 11.9330
L61.8511 11.9330
" />
<path d="M61.5487 11.5096
L61.5487 12.5982
" />
<path d="M61.5487 12.5982
L61.6092 12.7192
" />
<path d="M61.6092 12.7192
L61.7302 12.7796
" />
<path d="M61.7302 12.7796
L61.8511 12.7796
" />
<path d="M63.1816 11.4492
L62.0930 13.0820
" />
<path d="M63.4235 11.9330
L63.9073 11.9330
" />
<path d="M63.6049 11.5096
L63.6049 12.5982
" />
<path d="M63.6049 12.5982
L63.6654 12.7192
" />
<path d="M63.6654 12.7192
L63.7864 12.7796
" />
<path d="M63.7864 12.7796
L63.9073 12.7796
" />
<path d="M64.8749 12.7796
L64.8749 11.5096
" />
<path d="M64.8749 12.7192
L64.7540 12.7796
" />
<path d="M64.7540 12.7796
L64.5121 12.7796
" />
<path d="M64.5121 12.7796
L64.3911 12.7192
" />
<path d="M64.3911 12.7192
L64.3306 12.6587
" />
<path d="M64.3306 12.6587
L64.2702 12.5377
" />
<path d="M64.2702 12.5377
L64.2702 12.1749
" />
<path d="M64.2702 12.1749
L64.3306 12.0539
" />
<path d="M64.3306 12.0539
L64.3911 11.9934
" />
<path d="M64.3911 11.9934
L64.5121 11.9330
" />
<path d="M64.5121 11.9330
L64.7540 11.9330
" />
<path d="M64.7540 11.9330
L64.8749 11.9934
" />
<path d="M66.0239 12.7796
L66.0239 12.1144
" />
<path d="M66.0239 12.1144
L65.9634 11.9934
" />
<path d="M65.9634 11.9934
L65.8425 11.9330
" />
<path d="M65.8425 11.9330
L65.6006 11.9330
" />
<path d="M65.6006 11.9330
L65.4796 11.9934
" />
<path d="M66.0239 12.7192
L65.9030 12.7796
" />
<path d="M65.9030 12.7796
L65.6006 12.7796
" />
<path d="M65.6006 12.7796
L65.4796 12.7192
" />
<path d="M65.4796 12.7192
L65.4192 12.5982
" />
<path d="M65.4192 12.5982
L65.4192 12.4772
" />
<path d="M65.4192 12.4772
L65.4796 12.3563
" />
<path d="M65.4796 12.3563
L65.6006 12.2958
" />
<path d="M65.6006 12.2958
L65.9030 12.2958
" />
<path d="M65.9030 12.2958
L66.0239 12.2353
" />
<path d="M66.5077 11.5096
L67.3543 11.5096
" />
<path d="M67.3543 11.5096
L66.8101 12.7796
" />
<path d="M67.7777 11.6306
L67.8381 11.5701
" />
<path d="M67.8381 11.5701
L67.9591 11.5096
" />
<path d="M67.9591 11.5096
L68.2615 11.5096
" />
<path d="M68.2615 11.5096
L68.3824 11.5701
" />
<path d="M68.3824 11.5701
L68.4429 11.6306
" />
<path d="M68.4429 11.6306
L68.5034 11.7515
" />
<path d="M68.5034 11.7515
L68.5034 11.8725
" />
<path d="M68.5034 11.8725
L68.4429 12.0539
" />
<path d="M68.4429 12.0539
L67.7172 12.7796
" />
<path d="M67.7172 12.7796
L68.5034 12.7796
" />
<path d="M69.1081 12.7796
L69.3500 12.7796
" />
<path d="M69.3500 12.7796
L69.4710 12.7192
" />
<path d="M69.4710 12.7192
L69.5314 12.6587
" />
<path d="M69.5314 12.6587
L69.6524 12.4772
" />
<path d="M69.6524 12.4772
L69.7129 12.2353
" />
<path d="M69.7129 12.2353
L69.7129 11.7515
" />
<path d="M69.7129 11.7515
L69.6524 11.6306
" />
<path d="M69.6524 11.6306
L69.5919 11.5701
" />
<path d="M69.5919 11.5701
L69.4710 11.5096
" />
<path d="M69.4710 11.5096
L69.2291 11.5096
" />
<path d="M69.2291 11.5096
L69.1081 11.5701
" />
<path d="M69.1081 11.5701
L69.0476 11.6306
" />
<path d="M69.0476 11.6306
L68.9872 11.7515
" />
<path d="M68.9872 11.7515
L68.9872 12.0539
" />
<path d="M68.9872 12.0539
L69.0476 12.1749
" />
<path d="M69.0476 12.1749
L69.1081 12.2353
" />
<path d="M69.1081 12.2353
L69.2291 12.2958
" />
<path d="M69.2291 12.2958
L69.4710 12.2958
" />
<path d="M69.4710 12.2958
L69.5919 12.2353
" />
<path d="M69.5919 12.2353
L69.6524 12.1749
" />
<path d="M69.6524 12.1749
L69.7129 12.0539
" />
<path d="M70.1362 11.5096
L70.9224 11.5096
" />
<path d="M70.9224 11.5096
L70.4990 11.9934
" />
<path d="M70.4990 11.9934
L70.6805 11.9934
" />
<path d="M70.6805 11.9934
L70.8014 12.0539
" />
<path d="M70.8014 12.0539
L70.8619 12.1144
" />
<path d="M70.8619 12.1144
L70.9224 12.2353
" />
<path d="M70.9224 12.2353
L70.9224 12.5377
" />
<path d="M70.9224 12.5377
L70.8619 12.6587
" />
<path d="M70.8619 12.6587
L70.8014 12.7192
" />
<path d="M70.8014 12.7192
L70.6805 12.7796
" />
<path d="M70.6805 12.7796
L70.3176 12.7796
" />
<path d="M70.3176 12.7796
L70.1967 12.7192
" />
<path d="M70.1967 12.7192
L70.1362 12.6587
" />
<path d="M71.4666 12.6587
L71.5271 12.7192
" />
<path d="M71.5271 12.7192
L71.4666 12.7796
" />
<path d="M71.4666 12.7796
L71.4062 12.7192
" />
<path d="M71.4062 12.7192
L71.4666 12.6587
" />
<path d="M71.4666 12.6587
L71.4666 12.7796
" />
<path d="M72.0714 11.9330
L72.0714 13.2030
" />
<path d="M72.0714 11.9934
L72.1924 11.9330
" />
<path d="M72.1924 11.9330
L72.4343 11.9330
" />
<path d="M72.4343 11.9330
L72.5552 11.9934
" />
<path d="M72.5552 11.9934
L72.6157 12.0539
" />
<path d="M72.6157 12.0539
L72.6762 12.1749
" />
<path d="M72.6762 12.1749
L72.6762 12.5377
" />
<path d="M72.6762 12.5377
L72.6157 12.6587
" />
<path d="M72.6157 12.6587
L72.5552 12.7192
" />
<path d="M72.5552 12.7192
L72.4343 12.7796
" />
<path d="M72.4343 12.7796
L72.1924 12.7796
" />
<path d="M72.1924 12.7796
L72.0714 12.7192
" />
<path d="M73.7647 12.7796
L73.7647 11.5096
" />
<path d="M73.7647 12.7192
L73.6438 12.7796
" />
<path d="M73.6438 12.7796
L73.4019 12.7796
" />
<path d="M73.4019 12.7796
L73.2809 12.7192
" />
<path d="M73.2809 12.7192
L73.2204 12.6587
" />
<path d="M73.2204 12.6587
L73.1600 12.5377
" />
<path d="M73.1600 12.5377
L73.1600 12.1749
" />
<path d="M73.1600 12.1749
L73.2204 12.0539
" />
<path d="M73.2204 12.0539
L73.2809 11.9934
" />
<path d="M73.2809 11.9934
L73.4019 11.9330
" />
<path d="M73.4019 11.9330
L73.6438 11.9330
" />
<path d="M73.6438 11.9330
L73.7647 11.9934
" />
<path d="M74.1880 11.9330
L74.6718 11.9330
" />
<path d="M74.3694 12.7796
L74.3694 11.6911
" />
<path d="M74.3694 11.6911
L74.4299 11.5701
" />
<path d="M74.4299 11.5701
L74.5509 11.5096
" />
<path d="M74.5509 11.5096
L74.6718 11.5096
" />
</g></g> 
</svg>
