<?xml version="1.0" standalone="no"?>
 <!DOCTYPE svg PUBLIC "-//W3C//DTD SVG 1.1//EN" 
 "http://www.w3.org/Graphics/SVG/1.1/DTD/svg11.dtd"> 
<svg
  xmlns:svg="http://www.w3.org/2000/svg"
  xmlns="http://www.w3.org/2000/svg"
  xmlns:xlink="http://www.w3.org/1999/xlink"
  version="1.1"
  width="55.9562mm" height="64.6938mm" viewBox="0.0000 0.0000 55.9562 64.6938">
<title>SVG Image created as working.svg date 2023/08/02 12:16:43 </title>
  <desc>Image generated by Eeschema-SVG </desc>
<g style="fill:#000000; fill-opacity:1.0000;stroke:#000000; stroke-opacity:1.0000;
stroke-linecap:round; stroke-linejoin:round;"
 transform="translate(0 0) scale(1 1)">
</g>
<g style="fill:#840000; fill-opacity:0.0; 
stroke:#840000; stroke-width:0.0000; stroke-opacity:1; 
stroke-linecap:round; stroke-linejoin:round;">
</g>
<g style="fill:#FFFFC2; fill-opacity:0.0; 
stroke:#FFFFC2; stroke-width:0.0000; stroke-opacity:1; 
stroke-linecap:round; stroke-linejoin:round;">
</g>
<g style="fill:#FFFFC2; fill-opacity:1.0000; 
stroke:#FFFFC2; stroke-width:0.0000; stroke-opacity:1; 
stroke-linecap:round; stroke-linejoin:round;">
<rect x="8.727700" y="7.495400" width="4.572000" height="47.752000" rx="0.000000" />
</g>
<g style="fill:#840084; fill-opacity:1.0000; 
stroke:#840084; stroke-width:0.0000; stroke-opacity:1; 
stroke-linecap:round; stroke-linejoin:round;">
</g>
<g style="fill:#840000; fill-opacity:1.0000; 
stroke:#840000; stroke-width:0.0000; stroke-opacity:1; 
stroke-linecap:round; stroke-linejoin:round;">
</g>
<g style="fill:#840000; fill-opacity:0.0; 
stroke:#840000; stroke-width:0.1524; stroke-opacity:1; 
stroke-linecap:round; stroke-linejoin:round;">
<rect x="8.473700" y="7.241400" width="5.080000" height="48.260000" rx="0.000000" />
<rect x="8.727700" y="54.104400" width="1.270000" height="0.254000" rx="0.000000" />
<rect x="8.727700" y="51.564400" width="1.270000" height="0.254000" rx="0.000000" />
<rect x="8.727700" y="49.024400" width="1.270000" height="0.254000" rx="0.000000" />
<rect x="8.727700" y="46.484400" width="1.270000" height="0.254000" rx="0.000000" />
<rect x="8.727700" y="43.944400" width="1.270000" height="0.254000" rx="0.000000" />
<rect x="8.727700" y="41.404400" width="1.270000" height="0.254000" rx="0.000000" />
<rect x="8.727700" y="38.864400" width="1.270000" height="0.254000" rx="0.000000" />
<rect x="8.727700" y="36.324400" width="1.270000" height="0.254000" rx="0.000000" />
<rect x="8.727700" y="33.784400" width="1.270000" height="0.254000" rx="0.000000" />
<rect x="8.727700" y="31.244400" width="1.270000" height="0.254000" rx="0.000000" />
<rect x="8.727700" y="28.704400" width="1.270000" height="0.254000" rx="0.000000" />
<rect x="8.727700" y="26.164400" width="1.270000" height="0.254000" rx="0.000000" />
<rect x="8.727700" y="23.624400" width="1.270000" height="0.254000" rx="0.000000" />
<rect x="8.727700" y="21.084400" width="1.270000" height="0.254000" rx="0.000000" />
<rect x="8.727700" y="18.544400" width="1.270000" height="0.254000" rx="0.000000" />
<rect x="8.727700" y="16.004400" width="1.270000" height="0.254000" rx="0.000000" />
<rect x="8.727700" y="13.464400" width="1.270000" height="0.254000" rx="0.000000" />
<rect x="8.727700" y="10.924400" width="1.270000" height="0.254000" rx="0.000000" />
<rect x="8.727700" y="8.384400" width="1.270000" height="0.254000" rx="0.000000" />
</g>
<g style="fill:#840000; fill-opacity:0.0; 
stroke:#840000; stroke-width:0.2540; stroke-opacity:1; 
stroke-linecap:round; stroke-linejoin:round;">
<rect x="8.727700" y="7.495400" width="4.572000" height="47.752000" rx="0.000000" />
</g>
<g style="fill:#840000; fill-opacity:0.0; 
stroke:#840000; stroke-width:0.1524; stroke-opacity:1; 
stroke-linecap:round; stroke-linejoin:round;">
<rect x="12.029700" y="54.104400" width="1.270000" height="0.254000" rx="0.000000" />
<rect x="12.029700" y="51.564400" width="1.270000" height="0.254000" rx="0.000000" />
<rect x="12.029700" y="49.024400" width="1.270000" height="0.254000" rx="0.000000" />
<rect x="12.029700" y="46.484400" width="1.270000" height="0.254000" rx="0.000000" />
<rect x="12.029700" y="43.944400" width="1.270000" height="0.254000" rx="0.000000" />
<rect x="12.029700" y="41.404400" width="1.270000" height="0.254000" rx="0.000000" />
<rect x="12.029700" y="38.864400" width="1.270000" height="0.254000" rx="0.000000" />
<rect x="12.029700" y="36.324400" width="1.270000" height="0.254000" rx="0.000000" />
<rect x="12.029700" y="33.784400" width="1.270000" height="0.254000" rx="0.000000" />
<rect x="12.029700" y="31.244400" width="1.270000" height="0.254000" rx="0.000000" />
<rect x="12.029700" y="28.704400" width="1.270000" height="0.254000" rx="0.000000" />
<rect x="12.029700" y="26.164400" width="1.270000" height="0.254000" rx="0.000000" />
<rect x="12.029700" y="23.624400" width="1.270000" height="0.254000" rx="0.000000" />
<rect x="12.029700" y="21.084400" width="1.270000" height="0.254000" rx="0.000000" />
<rect x="12.029700" y="18.544400" width="1.270000" height="0.254000" rx="0.000000" />
<rect x="12.029700" y="16.004400" width="1.270000" height="0.254000" rx="0.000000" />
<rect x="12.029700" y="13.464400" width="1.270000" height="0.254000" rx="0.000000" />
<rect x="12.029700" y="10.924400" width="1.270000" height="0.254000" rx="0.000000" />
<rect x="12.029700" y="8.384400" width="1.270000" height="0.254000" rx="0.000000" />
<path d="M8.7277 8.5114
L4.6637 8.5114
" />
</g>
<g style="fill:#A90000; fill-opacity:0.0; 
stroke:#A90000; stroke-width:0.1524; stroke-opacity:1; 
stroke-linecap:round; stroke-linejoin:round;">
<text x="6.6957" y="8.2574"
textLength="1.3365" font-size="1.6933" lengthAdjust="spacingAndGlyphs"
text-anchor="middle" opacity="0">1</text>
<g class="stroked-text"><desc>1</desc>
<path d="M7.0586 8.1019
L6.3329 8.1019
" />
<path d="M6.6957 8.1019
L6.6957 6.8319
" />
<path d="M6.6957 6.8319
L6.5748 7.0134
" />
<path d="M6.5748 7.0134
L6.4538 7.1343
" />
<path d="M6.4538 7.1343
L6.3329 7.1948
" />
</g></g>
<g style="fill:#840000; fill-opacity:0.0; 
stroke:#840000; stroke-width:0.1524; stroke-opacity:1; 
stroke-linecap:round; stroke-linejoin:round;">
<path d="M8.7277 31.3714
L4.6637 31.3714
" />
</g>
<g style="fill:#A90000; fill-opacity:0.0; 
stroke:#A90000; stroke-width:0.1524; stroke-opacity:1; 
stroke-linecap:round; stroke-linejoin:round;">
<text x="6.6957" y="31.1174"
textLength="2.5460" font-size="1.6933" lengthAdjust="spacingAndGlyphs"
text-anchor="middle" opacity="0">10</text>
<g class="stroked-text"><desc>10</desc>
<path d="M6.4538 30.9619
L5.7281 30.9619
" />
<path d="M6.0909 30.9619
L6.0909 29.6919
" />
<path d="M6.0909 29.6919
L5.9700 29.8734
" />
<path d="M5.9700 29.8734
L5.8490 29.9943
" />
<path d="M5.8490 29.9943
L5.7281 30.0548
" />
<path d="M7.2399 29.6919
L7.3609 29.6919
" />
<path d="M7.3609 29.6919
L7.4818 29.7524
" />
<path d="M7.4818 29.7524
L7.5423 29.8129
" />
<path d="M7.5423 29.8129
L7.6028 29.9338
" />
<path d="M7.6028 29.9338
L7.6633 30.1757
" />
<path d="M7.6633 30.1757
L7.6633 30.4781
" />
<path d="M7.6633 30.4781
L7.6028 30.7200
" />
<path d="M7.6028 30.7200
L7.5423 30.8410
" />
<path d="M7.5423 30.8410
L7.4818 30.9015
" />
<path d="M7.4818 30.9015
L7.3609 30.9619
" />
<path d="M7.3609 30.9619
L7.2399 30.9619
" />
<path d="M7.2399 30.9619
L7.1190 30.9015
" />
<path d="M7.1190 30.9015
L7.0585 30.8410
" />
<path d="M7.0585 30.8410
L6.9980 30.7200
" />
<path d="M6.9980 30.7200
L6.9376 30.4781
" />
<path d="M6.9376 30.4781
L6.9376 30.1757
" />
<path d="M6.9376 30.1757
L6.9980 29.9338
" />
<path d="M6.9980 29.9338
L7.0585 29.8129
" />
<path d="M7.0585 29.8129
L7.1190 29.7524
" />
<path d="M7.1190 29.7524
L7.2399 29.6919
" />
</g></g>
<g style="fill:#840000; fill-opacity:0.0; 
stroke:#840000; stroke-width:0.1524; stroke-opacity:1; 
stroke-linecap:round; stroke-linejoin:round;">
<path d="M8.7277 33.9114
L4.6637 33.9114
" />
</g>
<g style="fill:#A90000; fill-opacity:0.0; 
stroke:#A90000; stroke-width:0.1524; stroke-opacity:1; 
stroke-linecap:round; stroke-linejoin:round;">
<text x="6.6957" y="33.6574"
textLength="2.5460" font-size="1.6933" lengthAdjust="spacingAndGlyphs"
text-anchor="middle" opacity="0">11</text>
<g class="stroked-text"><desc>11</desc>
<path d="M6.4538 33.5019
L5.7281 33.5019
" />
<path d="M6.0909 33.5019
L6.0909 32.2319
" />
<path d="M6.0909 32.2319
L5.9700 32.4134
" />
<path d="M5.9700 32.4134
L5.8490 32.5343
" />
<path d="M5.8490 32.5343
L5.7281 32.5948
" />
<path d="M7.6633 33.5019
L6.9376 33.5019
" />
<path d="M7.3004 33.5019
L7.3004 32.2319
" />
<path d="M7.3004 32.2319
L7.1795 32.4134
" />
<path d="M7.1795 32.4134
L7.0585 32.5343
" />
<path d="M7.0585 32.5343
L6.9376 32.5948
" />
</g></g>
<g style="fill:#840000; fill-opacity:0.0; 
stroke:#840000; stroke-width:0.1524; stroke-opacity:1; 
stroke-linecap:round; stroke-linejoin:round;">
<path d="M8.7277 36.4514
L4.6637 36.4514
" />
</g>
<g style="fill:#A90000; fill-opacity:0.0; 
stroke:#A90000; stroke-width:0.1524; stroke-opacity:1; 
stroke-linecap:round; stroke-linejoin:round;">
<text x="6.6957" y="36.1974"
textLength="2.5460" font-size="1.6933" lengthAdjust="spacingAndGlyphs"
text-anchor="middle" opacity="0">12</text>
<g class="stroked-text"><desc>12</desc>
<path d="M6.4538 36.0419
L5.7281 36.0419
" />
<path d="M6.0909 36.0419
L6.0909 34.7719
" />
<path d="M6.0909 34.7719
L5.9700 34.9534
" />
<path d="M5.9700 34.9534
L5.8490 35.0743
" />
<path d="M5.8490 35.0743
L5.7281 35.1348
" />
<path d="M6.9376 34.8929
L6.9980 34.8324
" />
<path d="M6.9980 34.8324
L7.1190 34.7719
" />
<path d="M7.1190 34.7719
L7.4214 34.7719
" />
<path d="M7.4214 34.7719
L7.5423 34.8324
" />
<path d="M7.5423 34.8324
L7.6028 34.8929
" />
<path d="M7.6028 34.8929
L7.6633 35.0138
" />
<path d="M7.6633 35.0138
L7.6633 35.1348
" />
<path d="M7.6633 35.1348
L7.6028 35.3162
" />
<path d="M7.6028 35.3162
L6.8771 36.0419
" />
<path d="M6.8771 36.0419
L7.6633 36.0419
" />
</g></g>
<g style="fill:#840000; fill-opacity:0.0; 
stroke:#840000; stroke-width:0.1524; stroke-opacity:1; 
stroke-linecap:round; stroke-linejoin:round;">
<path d="M8.7277 38.9914
L4.6637 38.9914
" />
</g>
<g style="fill:#A90000; fill-opacity:0.0; 
stroke:#A90000; stroke-width:0.1524; stroke-opacity:1; 
stroke-linecap:round; stroke-linejoin:round;">
<text x="6.6957" y="38.7374"
textLength="2.5460" font-size="1.6933" lengthAdjust="spacingAndGlyphs"
text-anchor="middle" opacity="0">13</text>
<g class="stroked-text"><desc>13</desc>
<path d="M6.4538 38.5819
L5.7281 38.5819
" />
<path d="M6.0909 38.5819
L6.0909 37.3119
" />
<path d="M6.0909 37.3119
L5.9700 37.4934
" />
<path d="M5.9700 37.4934
L5.8490 37.6143
" />
<path d="M5.8490 37.6143
L5.7281 37.6748
" />
<path d="M6.8771 37.3119
L7.6633 37.3119
" />
<path d="M7.6633 37.3119
L7.2399 37.7957
" />
<path d="M7.2399 37.7957
L7.4214 37.7957
" />
<path d="M7.4214 37.7957
L7.5423 37.8562
" />
<path d="M7.5423 37.8562
L7.6028 37.9167
" />
<path d="M7.6028 37.9167
L7.6633 38.0376
" />
<path d="M7.6633 38.0376
L7.6633 38.3400
" />
<path d="M7.6633 38.3400
L7.6028 38.4610
" />
<path d="M7.6028 38.4610
L7.5423 38.5215
" />
<path d="M7.5423 38.5215
L7.4214 38.5819
" />
<path d="M7.4214 38.5819
L7.0585 38.5819
" />
<path d="M7.0585 38.5819
L6.9376 38.5215
" />
<path d="M6.9376 38.5215
L6.8771 38.4610
" />
</g></g>
<g style="fill:#840000; fill-opacity:0.0; 
stroke:#840000; stroke-width:0.1524; stroke-opacity:1; 
stroke-linecap:round; stroke-linejoin:round;">
<path d="M8.7277 41.5314
L4.6637 41.5314
" />
</g>
<g style="fill:#A90000; fill-opacity:0.0; 
stroke:#A90000; stroke-width:0.1524; stroke-opacity:1; 
stroke-linecap:round; stroke-linejoin:round;">
<text x="6.6957" y="41.2774"
textLength="2.5460" font-size="1.6933" lengthAdjust="spacingAndGlyphs"
text-anchor="middle" opacity="0">14</text>
<g class="stroked-text"><desc>14</desc>
<path d="M6.4538 41.1219
L5.7281 41.1219
" />
<path d="M6.0909 41.1219
L6.0909 39.8519
" />
<path d="M6.0909 39.8519
L5.9700 40.0334
" />
<path d="M5.9700 40.0334
L5.8490 40.1543
" />
<path d="M5.8490 40.1543
L5.7281 40.2148
" />
<path d="M7.5423 40.2753
L7.5423 41.1219
" />
<path d="M7.2399 39.7915
L6.9376 40.6986
" />
<path d="M6.9376 40.6986
L7.7237 40.6986
" />
</g></g>
<g style="fill:#840000; fill-opacity:0.0; 
stroke:#840000; stroke-width:0.1524; stroke-opacity:1; 
stroke-linecap:round; stroke-linejoin:round;">
<path d="M8.7277 44.0714
L4.6637 44.0714
" />
</g>
<g style="fill:#A90000; fill-opacity:0.0; 
stroke:#A90000; stroke-width:0.1524; stroke-opacity:1; 
stroke-linecap:round; stroke-linejoin:round;">
<text x="6.6957" y="43.8174"
textLength="2.5460" font-size="1.6933" lengthAdjust="spacingAndGlyphs"
text-anchor="middle" opacity="0">15</text>
<g class="stroked-text"><desc>15</desc>
<path d="M6.4538 43.6619
L5.7281 43.6619
" />
<path d="M6.0909 43.6619
L6.0909 42.3919
" />
<path d="M6.0909 42.3919
L5.9700 42.5734
" />
<path d="M5.9700 42.5734
L5.8490 42.6943
" />
<path d="M5.8490 42.6943
L5.7281 42.7548
" />
<path d="M7.6028 42.3919
L6.9980 42.3919
" />
<path d="M6.9980 42.3919
L6.9376 42.9967
" />
<path d="M6.9376 42.9967
L6.9980 42.9362
" />
<path d="M6.9980 42.9362
L7.1190 42.8757
" />
<path d="M7.1190 42.8757
L7.4214 42.8757
" />
<path d="M7.4214 42.8757
L7.5423 42.9362
" />
<path d="M7.5423 42.9362
L7.6028 42.9967
" />
<path d="M7.6028 42.9967
L7.6633 43.1176
" />
<path d="M7.6633 43.1176
L7.6633 43.4200
" />
<path d="M7.6633 43.4200
L7.6028 43.5410
" />
<path d="M7.6028 43.5410
L7.5423 43.6015
" />
<path d="M7.5423 43.6015
L7.4214 43.6619
" />
<path d="M7.4214 43.6619
L7.1190 43.6619
" />
<path d="M7.1190 43.6619
L6.9980 43.6015
" />
<path d="M6.9980 43.6015
L6.9376 43.5410
" />
</g></g>
<g style="fill:#840000; fill-opacity:0.0; 
stroke:#840000; stroke-width:0.1524; stroke-opacity:1; 
stroke-linecap:round; stroke-linejoin:round;">
<path d="M8.7277 46.6114
L4.6637 46.6114
" />
</g>
<g style="fill:#A90000; fill-opacity:0.0; 
stroke:#A90000; stroke-width:0.1524; stroke-opacity:1; 
stroke-linecap:round; stroke-linejoin:round;">
<text x="6.6957" y="46.3574"
textLength="2.5460" font-size="1.6933" lengthAdjust="spacingAndGlyphs"
text-anchor="middle" opacity="0">16</text>
<g class="stroked-text"><desc>16</desc>
<path d="M6.4538 46.2019
L5.7281 46.2019
" />
<path d="M6.0909 46.2019
L6.0909 44.9319
" />
<path d="M6.0909 44.9319
L5.9700 45.1134
" />
<path d="M5.9700 45.1134
L5.8490 45.2343
" />
<path d="M5.8490 45.2343
L5.7281 45.2948
" />
<path d="M7.5423 44.9319
L7.3004 44.9319
" />
<path d="M7.3004 44.9319
L7.1795 44.9924
" />
<path d="M7.1795 44.9924
L7.1190 45.0529
" />
<path d="M7.1190 45.0529
L6.9980 45.2343
" />
<path d="M6.9980 45.2343
L6.9376 45.4762
" />
<path d="M6.9376 45.4762
L6.9376 45.9600
" />
<path d="M6.9376 45.9600
L6.9980 46.0810
" />
<path d="M6.9980 46.0810
L7.0585 46.1415
" />
<path d="M7.0585 46.1415
L7.1795 46.2019
" />
<path d="M7.1795 46.2019
L7.4214 46.2019
" />
<path d="M7.4214 46.2019
L7.5423 46.1415
" />
<path d="M7.5423 46.1415
L7.6028 46.0810
" />
<path d="M7.6028 46.0810
L7.6633 45.9600
" />
<path d="M7.6633 45.9600
L7.6633 45.6576
" />
<path d="M7.6633 45.6576
L7.6028 45.5367
" />
<path d="M7.6028 45.5367
L7.5423 45.4762
" />
<path d="M7.5423 45.4762
L7.4214 45.4157
" />
<path d="M7.4214 45.4157
L7.1795 45.4157
" />
<path d="M7.1795 45.4157
L7.0585 45.4762
" />
<path d="M7.0585 45.4762
L6.9980 45.5367
" />
<path d="M6.9980 45.5367
L6.9376 45.6576
" />
</g></g>
<g style="fill:#840000; fill-opacity:0.0; 
stroke:#840000; stroke-width:0.1524; stroke-opacity:1; 
stroke-linecap:round; stroke-linejoin:round;">
<path d="M8.7277 49.1514
L4.6637 49.1514
" />
</g>
<g style="fill:#A90000; fill-opacity:0.0; 
stroke:#A90000; stroke-width:0.1524; stroke-opacity:1; 
stroke-linecap:round; stroke-linejoin:round;">
<text x="6.6957" y="48.8974"
textLength="2.5460" font-size="1.6933" lengthAdjust="spacingAndGlyphs"
text-anchor="middle" opacity="0">17</text>
<g class="stroked-text"><desc>17</desc>
<path d="M6.4538 48.7419
L5.7281 48.7419
" />
<path d="M6.0909 48.7419
L6.0909 47.4719
" />
<path d="M6.0909 47.4719
L5.9700 47.6534
" />
<path d="M5.9700 47.6534
L5.8490 47.7743
" />
<path d="M5.8490 47.7743
L5.7281 47.8348
" />
<path d="M6.8771 47.4719
L7.7237 47.4719
" />
<path d="M7.7237 47.4719
L7.1795 48.7419
" />
</g></g>
<g style="fill:#840000; fill-opacity:0.0; 
stroke:#840000; stroke-width:0.1524; stroke-opacity:1; 
stroke-linecap:round; stroke-linejoin:round;">
<path d="M8.7277 51.6914
L4.6637 51.6914
" />
</g>
<g style="fill:#A90000; fill-opacity:0.0; 
stroke:#A90000; stroke-width:0.1524; stroke-opacity:1; 
stroke-linecap:round; stroke-linejoin:round;">
<text x="6.6957" y="51.4374"
textLength="2.5460" font-size="1.6933" lengthAdjust="spacingAndGlyphs"
text-anchor="middle" opacity="0">18</text>
<g class="stroked-text"><desc>18</desc>
<path d="M6.4538 51.2819
L5.7281 51.2819
" />
<path d="M6.0909 51.2819
L6.0909 50.0119
" />
<path d="M6.0909 50.0119
L5.9700 50.1934
" />
<path d="M5.9700 50.1934
L5.8490 50.3143
" />
<path d="M5.8490 50.3143
L5.7281 50.3748
" />
<path d="M7.1795 50.5562
L7.0585 50.4957
" />
<path d="M7.0585 50.4957
L6.9980 50.4353
" />
<path d="M6.9980 50.4353
L6.9376 50.3143
" />
<path d="M6.9376 50.3143
L6.9376 50.2538
" />
<path d="M6.9376 50.2538
L6.9980 50.1329
" />
<path d="M6.9980 50.1329
L7.0585 50.0724
" />
<path d="M7.0585 50.0724
L7.1795 50.0119
" />
<path d="M7.1795 50.0119
L7.4214 50.0119
" />
<path d="M7.4214 50.0119
L7.5423 50.0724
" />
<path d="M7.5423 50.0724
L7.6028 50.1329
" />
<path d="M7.6028 50.1329
L7.6633 50.2538
" />
<path d="M7.6633 50.2538
L7.6633 50.3143
" />
<path d="M7.6633 50.3143
L7.6028 50.4353
" />
<path d="M7.6028 50.4353
L7.5423 50.4957
" />
<path d="M7.5423 50.4957
L7.4214 50.5562
" />
<path d="M7.4214 50.5562
L7.1795 50.5562
" />
<path d="M7.1795 50.5562
L7.0585 50.6167
" />
<path d="M7.0585 50.6167
L6.9980 50.6772
" />
<path d="M6.9980 50.6772
L6.9376 50.7981
" />
<path d="M6.9376 50.7981
L6.9376 51.0400
" />
<path d="M6.9376 51.0400
L6.9980 51.1610
" />
<path d="M6.9980 51.1610
L7.0585 51.2215
" />
<path d="M7.0585 51.2215
L7.1795 51.2819
" />
<path d="M7.1795 51.2819
L7.4214 51.2819
" />
<path d="M7.4214 51.2819
L7.5423 51.2215
" />
<path d="M7.5423 51.2215
L7.6028 51.1610
" />
<path d="M7.6028 51.1610
L7.6633 51.0400
" />
<path d="M7.6633 51.0400
L7.6633 50.7981
" />
<path d="M7.6633 50.7981
L7.6028 50.6772
" />
<path d="M7.6028 50.6772
L7.5423 50.6167
" />
<path d="M7.5423 50.6167
L7.4214 50.5562
" />
</g></g>
<g style="fill:#840000; fill-opacity:0.0; 
stroke:#840000; stroke-width:0.1524; stroke-opacity:1; 
stroke-linecap:round; stroke-linejoin:round;">
<path d="M8.7277 54.2314
L4.6637 54.2314
" />
</g>
<g style="fill:#A90000; fill-opacity:0.0; 
stroke:#A90000; stroke-width:0.1524; stroke-opacity:1; 
stroke-linecap:round; stroke-linejoin:round;">
<text x="6.6957" y="53.9774"
textLength="2.5460" font-size="1.6933" lengthAdjust="spacingAndGlyphs"
text-anchor="middle" opacity="0">19</text>
<g class="stroked-text"><desc>19</desc>
<path d="M6.4538 53.8219
L5.7281 53.8219
" />
<path d="M6.0909 53.8219
L6.0909 52.5519
" />
<path d="M6.0909 52.5519
L5.9700 52.7334
" />
<path d="M5.9700 52.7334
L5.8490 52.8543
" />
<path d="M5.8490 52.8543
L5.7281 52.9148
" />
<path d="M7.0585 53.8219
L7.3004 53.8219
" />
<path d="M7.3004 53.8219
L7.4214 53.7615
" />
<path d="M7.4214 53.7615
L7.4818 53.7010
" />
<path d="M7.4818 53.7010
L7.6028 53.5195
" />
<path d="M7.6028 53.5195
L7.6633 53.2776
" />
<path d="M7.6633 53.2776
L7.6633 52.7938
" />
<path d="M7.6633 52.7938
L7.6028 52.6729
" />
<path d="M7.6028 52.6729
L7.5423 52.6124
" />
<path d="M7.5423 52.6124
L7.4214 52.5519
" />
<path d="M7.4214 52.5519
L7.1795 52.5519
" />
<path d="M7.1795 52.5519
L7.0585 52.6124
" />
<path d="M7.0585 52.6124
L6.9980 52.6729
" />
<path d="M6.9980 52.6729
L6.9376 52.7938
" />
<path d="M6.9376 52.7938
L6.9376 53.0962
" />
<path d="M6.9376 53.0962
L6.9980 53.2172
" />
<path d="M6.9980 53.2172
L7.0585 53.2776
" />
<path d="M7.0585 53.2776
L7.1795 53.3381
" />
<path d="M7.1795 53.3381
L7.4214 53.3381
" />
<path d="M7.4214 53.3381
L7.5423 53.2776
" />
<path d="M7.5423 53.2776
L7.6028 53.2172
" />
<path d="M7.6028 53.2172
L7.6633 53.0962
" />
</g></g>
<g style="fill:#840000; fill-opacity:0.0; 
stroke:#840000; stroke-width:0.1524; stroke-opacity:1; 
stroke-linecap:round; stroke-linejoin:round;">
<path d="M8.7277 11.0514
L4.6637 11.0514
" />
</g>
<g style="fill:#A90000; fill-opacity:0.0; 
stroke:#A90000; stroke-width:0.1524; stroke-opacity:1; 
stroke-linecap:round; stroke-linejoin:round;">
<text x="6.6957" y="10.7974"
textLength="1.3365" font-size="1.6933" lengthAdjust="spacingAndGlyphs"
text-anchor="middle" opacity="0">2</text>
<g class="stroked-text"><desc>2</desc>
<path d="M6.3329 9.4929
L6.3933 9.4324
" />
<path d="M6.3933 9.4324
L6.5143 9.3719
" />
<path d="M6.5143 9.3719
L6.8167 9.3719
" />
<path d="M6.8167 9.3719
L6.9376 9.4324
" />
<path d="M6.9376 9.4324
L6.9981 9.4929
" />
<path d="M6.9981 9.4929
L7.0586 9.6138
" />
<path d="M7.0586 9.6138
L7.0586 9.7348
" />
<path d="M7.0586 9.7348
L6.9981 9.9162
" />
<path d="M6.9981 9.9162
L6.2724 10.6419
" />
<path d="M6.2724 10.6419
L7.0586 10.6419
" />
</g></g>
<g style="fill:#840000; fill-opacity:0.0; 
stroke:#840000; stroke-width:0.1524; stroke-opacity:1; 
stroke-linecap:round; stroke-linejoin:round;">
<path d="M13.2997 54.2314
L17.3637 54.2314
" />
</g>
<g style="fill:#A90000; fill-opacity:0.0; 
stroke:#A90000; stroke-width:0.1524; stroke-opacity:1; 
stroke-linecap:round; stroke-linejoin:round;">
<text x="15.3317" y="53.9774"
textLength="2.5460" font-size="1.6933" lengthAdjust="spacingAndGlyphs"
text-anchor="middle" opacity="0">20</text>
<g class="stroked-text"><desc>20</desc>
<path d="M14.3641 52.6729
L14.4245 52.6124
" />
<path d="M14.4245 52.6124
L14.5455 52.5519
" />
<path d="M14.5455 52.5519
L14.8479 52.5519
" />
<path d="M14.8479 52.5519
L14.9688 52.6124
" />
<path d="M14.9688 52.6124
L15.0293 52.6729
" />
<path d="M15.0293 52.6729
L15.0898 52.7938
" />
<path d="M15.0898 52.7938
L15.0898 52.9148
" />
<path d="M15.0898 52.9148
L15.0293 53.0962
" />
<path d="M15.0293 53.0962
L14.3036 53.8219
" />
<path d="M14.3036 53.8219
L15.0898 53.8219
" />
<path d="M15.8759 52.5519
L15.9969 52.5519
" />
<path d="M15.9969 52.5519
L16.1178 52.6124
" />
<path d="M16.1178 52.6124
L16.1783 52.6729
" />
<path d="M16.1783 52.6729
L16.2388 52.7938
" />
<path d="M16.2388 52.7938
L16.2993 53.0357
" />
<path d="M16.2993 53.0357
L16.2993 53.3381
" />
<path d="M16.2993 53.3381
L16.2388 53.5800
" />
<path d="M16.2388 53.5800
L16.1783 53.7010
" />
<path d="M16.1783 53.7010
L16.1178 53.7615
" />
<path d="M16.1178 53.7615
L15.9969 53.8219
" />
<path d="M15.9969 53.8219
L15.8759 53.8219
" />
<path d="M15.8759 53.8219
L15.7550 53.7615
" />
<path d="M15.7550 53.7615
L15.6945 53.7010
" />
<path d="M15.6945 53.7010
L15.6340 53.5800
" />
<path d="M15.6340 53.5800
L15.5736 53.3381
" />
<path d="M15.5736 53.3381
L15.5736 53.0357
" />
<path d="M15.5736 53.0357
L15.6340 52.7938
" />
<path d="M15.6340 52.7938
L15.6945 52.6729
" />
<path d="M15.6945 52.6729
L15.7550 52.6124
" />
<path d="M15.7550 52.6124
L15.8759 52.5519
" />
</g></g>
<g style="fill:#840000; fill-opacity:0.0; 
stroke:#840000; stroke-width:0.1524; stroke-opacity:1; 
stroke-linecap:round; stroke-linejoin:round;">
<path d="M13.2997 51.6914
L17.3637 51.6914
" />
</g>
<g style="fill:#A90000; fill-opacity:0.0; 
stroke:#A90000; stroke-width:0.1524; stroke-opacity:1; 
stroke-linecap:round; stroke-linejoin:round;">
<text x="15.3317" y="51.4374"
textLength="2.5460" font-size="1.6933" lengthAdjust="spacingAndGlyphs"
text-anchor="middle" opacity="0">21</text>
<g class="stroked-text"><desc>21</desc>
<path d="M14.3641 50.1329
L14.4245 50.0724
" />
<path d="M14.4245 50.0724
L14.5455 50.0119
" />
<path d="M14.5455 50.0119
L14.8479 50.0119
" />
<path d="M14.8479 50.0119
L14.9688 50.0724
" />
<path d="M14.9688 50.0724
L15.0293 50.1329
" />
<path d="M15.0293 50.1329
L15.0898 50.2538
" />
<path d="M15.0898 50.2538
L15.0898 50.3748
" />
<path d="M15.0898 50.3748
L15.0293 50.5562
" />
<path d="M15.0293 50.5562
L14.3036 51.2819
" />
<path d="M14.3036 51.2819
L15.0898 51.2819
" />
<path d="M16.2993 51.2819
L15.5736 51.2819
" />
<path d="M15.9364 51.2819
L15.9364 50.0119
" />
<path d="M15.9364 50.0119
L15.8155 50.1934
" />
<path d="M15.8155 50.1934
L15.6945 50.3143
" />
<path d="M15.6945 50.3143
L15.5736 50.3748
" />
</g></g>
<g style="fill:#840000; fill-opacity:0.0; 
stroke:#840000; stroke-width:0.1524; stroke-opacity:1; 
stroke-linecap:round; stroke-linejoin:round;">
<path d="M13.2997 49.1514
L17.3637 49.1514
" />
</g>
<g style="fill:#A90000; fill-opacity:0.0; 
stroke:#A90000; stroke-width:0.1524; stroke-opacity:1; 
stroke-linecap:round; stroke-linejoin:round;">
<text x="15.3317" y="48.8974"
textLength="2.5460" font-size="1.6933" lengthAdjust="spacingAndGlyphs"
text-anchor="middle" opacity="0">22</text>
<g class="stroked-text"><desc>22</desc>
<path d="M14.3641 47.5929
L14.4245 47.5324
" />
<path d="M14.4245 47.5324
L14.5455 47.4719
" />
<path d="M14.5455 47.4719
L14.8479 47.4719
" />
<path d="M14.8479 47.4719
L14.9688 47.5324
" />
<path d="M14.9688 47.5324
L15.0293 47.5929
" />
<path d="M15.0293 47.5929
L15.0898 47.7138
" />
<path d="M15.0898 47.7138
L15.0898 47.8348
" />
<path d="M15.0898 47.8348
L15.0293 48.0162
" />
<path d="M15.0293 48.0162
L14.3036 48.7419
" />
<path d="M14.3036 48.7419
L15.0898 48.7419
" />
<path d="M15.5736 47.5929
L15.6340 47.5324
" />
<path d="M15.6340 47.5324
L15.7550 47.4719
" />
<path d="M15.7550 47.4719
L16.0574 47.4719
" />
<path d="M16.0574 47.4719
L16.1783 47.5324
" />
<path d="M16.1783 47.5324
L16.2388 47.5929
" />
<path d="M16.2388 47.5929
L16.2993 47.7138
" />
<path d="M16.2993 47.7138
L16.2993 47.8348
" />
<path d="M16.2993 47.8348
L16.2388 48.0162
" />
<path d="M16.2388 48.0162
L15.5131 48.7419
" />
<path d="M15.5131 48.7419
L16.2993 48.7419
" />
</g></g>
<g style="fill:#840000; fill-opacity:0.0; 
stroke:#840000; stroke-width:0.1524; stroke-opacity:1; 
stroke-linecap:round; stroke-linejoin:round;">
<path d="M13.2997 46.6114
L17.3637 46.6114
" />
</g>
<g style="fill:#A90000; fill-opacity:0.0; 
stroke:#A90000; stroke-width:0.1524; stroke-opacity:1; 
stroke-linecap:round; stroke-linejoin:round;">
<text x="15.3317" y="46.3574"
textLength="2.5460" font-size="1.6933" lengthAdjust="spacingAndGlyphs"
text-anchor="middle" opacity="0">23</text>
<g class="stroked-text"><desc>23</desc>
<path d="M14.3641 45.0529
L14.4245 44.9924
" />
<path d="M14.4245 44.9924
L14.5455 44.9319
" />
<path d="M14.5455 44.9319
L14.8479 44.9319
" />
<path d="M14.8479 44.9319
L14.9688 44.9924
" />
<path d="M14.9688 44.9924
L15.0293 45.0529
" />
<path d="M15.0293 45.0529
L15.0898 45.1738
" />
<path d="M15.0898 45.1738
L15.0898 45.2948
" />
<path d="M15.0898 45.2948
L15.0293 45.4762
" />
<path d="M15.0293 45.4762
L14.3036 46.2019
" />
<path d="M14.3036 46.2019
L15.0898 46.2019
" />
<path d="M15.5131 44.9319
L16.2993 44.9319
" />
<path d="M16.2993 44.9319
L15.8759 45.4157
" />
<path d="M15.8759 45.4157
L16.0574 45.4157
" />
<path d="M16.0574 45.4157
L16.1783 45.4762
" />
<path d="M16.1783 45.4762
L16.2388 45.5367
" />
<path d="M16.2388 45.5367
L16.2993 45.6576
" />
<path d="M16.2993 45.6576
L16.2993 45.9600
" />
<path d="M16.2993 45.9600
L16.2388 46.0810
" />
<path d="M16.2388 46.0810
L16.1783 46.1415
" />
<path d="M16.1783 46.1415
L16.0574 46.2019
" />
<path d="M16.0574 46.2019
L15.6945 46.2019
" />
<path d="M15.6945 46.2019
L15.5736 46.1415
" />
<path d="M15.5736 46.1415
L15.5131 46.0810
" />
</g></g>
<g style="fill:#840000; fill-opacity:0.0; 
stroke:#840000; stroke-width:0.1524; stroke-opacity:1; 
stroke-linecap:round; stroke-linejoin:round;">
<path d="M13.2997 44.0714
L17.3637 44.0714
" />
</g>
<g style="fill:#A90000; fill-opacity:0.0; 
stroke:#A90000; stroke-width:0.1524; stroke-opacity:1; 
stroke-linecap:round; stroke-linejoin:round;">
<text x="15.3317" y="43.8174"
textLength="2.5460" font-size="1.6933" lengthAdjust="spacingAndGlyphs"
text-anchor="middle" opacity="0">24</text>
<g class="stroked-text"><desc>24</desc>
<path d="M14.3641 42.5129
L14.4245 42.4524
" />
<path d="M14.4245 42.4524
L14.5455 42.3919
" />
<path d="M14.5455 42.3919
L14.8479 42.3919
" />
<path d="M14.8479 42.3919
L14.9688 42.4524
" />
<path d="M14.9688 42.4524
L15.0293 42.5129
" />
<path d="M15.0293 42.5129
L15.0898 42.6338
" />
<path d="M15.0898 42.6338
L15.0898 42.7548
" />
<path d="M15.0898 42.7548
L15.0293 42.9362
" />
<path d="M15.0293 42.9362
L14.3036 43.6619
" />
<path d="M14.3036 43.6619
L15.0898 43.6619
" />
<path d="M16.1783 42.8153
L16.1783 43.6619
" />
<path d="M15.8759 42.3315
L15.5736 43.2386
" />
<path d="M15.5736 43.2386
L16.3597 43.2386
" />
</g></g>
<g style="fill:#840000; fill-opacity:0.0; 
stroke:#840000; stroke-width:0.1524; stroke-opacity:1; 
stroke-linecap:round; stroke-linejoin:round;">
<path d="M13.2997 41.5314
L17.3637 41.5314
" />
</g>
<g style="fill:#A90000; fill-opacity:0.0; 
stroke:#A90000; stroke-width:0.1524; stroke-opacity:1; 
stroke-linecap:round; stroke-linejoin:round;">
<text x="15.3317" y="41.2774"
textLength="2.5460" font-size="1.6933" lengthAdjust="spacingAndGlyphs"
text-anchor="middle" opacity="0">25</text>
<g class="stroked-text"><desc>25</desc>
<path d="M14.3641 39.9729
L14.4245 39.9124
" />
<path d="M14.4245 39.9124
L14.5455 39.8519
" />
<path d="M14.5455 39.8519
L14.8479 39.8519
" />
<path d="M14.8479 39.8519
L14.9688 39.9124
" />
<path d="M14.9688 39.9124
L15.0293 39.9729
" />
<path d="M15.0293 39.9729
L15.0898 40.0938
" />
<path d="M15.0898 40.0938
L15.0898 40.2148
" />
<path d="M15.0898 40.2148
L15.0293 40.3962
" />
<path d="M15.0293 40.3962
L14.3036 41.1219
" />
<path d="M14.3036 41.1219
L15.0898 41.1219
" />
<path d="M16.2388 39.8519
L15.6340 39.8519
" />
<path d="M15.6340 39.8519
L15.5736 40.4567
" />
<path d="M15.5736 40.4567
L15.6340 40.3962
" />
<path d="M15.6340 40.3962
L15.7550 40.3357
" />
<path d="M15.7550 40.3357
L16.0574 40.3357
" />
<path d="M16.0574 40.3357
L16.1783 40.3962
" />
<path d="M16.1783 40.3962
L16.2388 40.4567
" />
<path d="M16.2388 40.4567
L16.2993 40.5776
" />
<path d="M16.2993 40.5776
L16.2993 40.8800
" />
<path d="M16.2993 40.8800
L16.2388 41.0010
" />
<path d="M16.2388 41.0010
L16.1783 41.0615
" />
<path d="M16.1783 41.0615
L16.0574 41.1219
" />
<path d="M16.0574 41.1219
L15.7550 41.1219
" />
<path d="M15.7550 41.1219
L15.6340 41.0615
" />
<path d="M15.6340 41.0615
L15.5736 41.0010
" />
</g></g>
<g style="fill:#840000; fill-opacity:0.0; 
stroke:#840000; stroke-width:0.1524; stroke-opacity:1; 
stroke-linecap:round; stroke-linejoin:round;">
<path d="M13.2997 38.9914
L17.3637 38.9914
" />
</g>
<g style="fill:#A90000; fill-opacity:0.0; 
stroke:#A90000; stroke-width:0.1524; stroke-opacity:1; 
stroke-linecap:round; stroke-linejoin:round;">
<text x="15.3317" y="38.7374"
textLength="2.5460" font-size="1.6933" lengthAdjust="spacingAndGlyphs"
text-anchor="middle" opacity="0">26</text>
<g class="stroked-text"><desc>26</desc>
<path d="M14.3641 37.4329
L14.4245 37.3724
" />
<path d="M14.4245 37.3724
L14.5455 37.3119
" />
<path d="M14.5455 37.3119
L14.8479 37.3119
" />
<path d="M14.8479 37.3119
L14.9688 37.3724
" />
<path d="M14.9688 37.3724
L15.0293 37.4329
" />
<path d="M15.0293 37.4329
L15.0898 37.5538
" />
<path d="M15.0898 37.5538
L15.0898 37.6748
" />
<path d="M15.0898 37.6748
L15.0293 37.8562
" />
<path d="M15.0293 37.8562
L14.3036 38.5819
" />
<path d="M14.3036 38.5819
L15.0898 38.5819
" />
<path d="M16.1783 37.3119
L15.9364 37.3119
" />
<path d="M15.9364 37.3119
L15.8155 37.3724
" />
<path d="M15.8155 37.3724
L15.7550 37.4329
" />
<path d="M15.7550 37.4329
L15.6340 37.6143
" />
<path d="M15.6340 37.6143
L15.5736 37.8562
" />
<path d="M15.5736 37.8562
L15.5736 38.3400
" />
<path d="M15.5736 38.3400
L15.6340 38.4610
" />
<path d="M15.6340 38.4610
L15.6945 38.5215
" />
<path d="M15.6945 38.5215
L15.8155 38.5819
" />
<path d="M15.8155 38.5819
L16.0574 38.5819
" />
<path d="M16.0574 38.5819
L16.1783 38.5215
" />
<path d="M16.1783 38.5215
L16.2388 38.4610
" />
<path d="M16.2388 38.4610
L16.2993 38.3400
" />
<path d="M16.2993 38.3400
L16.2993 38.0376
" />
<path d="M16.2993 38.0376
L16.2388 37.9167
" />
<path d="M16.2388 37.9167
L16.1783 37.8562
" />
<path d="M16.1783 37.8562
L16.0574 37.7957
" />
<path d="M16.0574 37.7957
L15.8155 37.7957
" />
<path d="M15.8155 37.7957
L15.6945 37.8562
" />
<path d="M15.6945 37.8562
L15.6340 37.9167
" />
<path d="M15.6340 37.9167
L15.5736 38.0376
" />
</g></g>
<g style="fill:#840000; fill-opacity:0.0; 
stroke:#840000; stroke-width:0.1524; stroke-opacity:1; 
stroke-linecap:round; stroke-linejoin:round;">
<path d="M13.2997 36.4514
L17.3637 36.4514
" />
</g>
<g style="fill:#A90000; fill-opacity:0.0; 
stroke:#A90000; stroke-width:0.1524; stroke-opacity:1; 
stroke-linecap:round; stroke-linejoin:round;">
<text x="15.3317" y="36.1974"
textLength="2.5460" font-size="1.6933" lengthAdjust="spacingAndGlyphs"
text-anchor="middle" opacity="0">27</text>
<g class="stroked-text"><desc>27</desc>
<path d="M14.3641 34.8929
L14.4245 34.8324
" />
<path d="M14.4245 34.8324
L14.5455 34.7719
" />
<path d="M14.5455 34.7719
L14.8479 34.7719
" />
<path d="M14.8479 34.7719
L14.9688 34.8324
" />
<path d="M14.9688 34.8324
L15.0293 34.8929
" />
<path d="M15.0293 34.8929
L15.0898 35.0138
" />
<path d="M15.0898 35.0138
L15.0898 35.1348
" />
<path d="M15.0898 35.1348
L15.0293 35.3162
" />
<path d="M15.0293 35.3162
L14.3036 36.0419
" />
<path d="M14.3036 36.0419
L15.0898 36.0419
" />
<path d="M15.5131 34.7719
L16.3597 34.7719
" />
<path d="M16.3597 34.7719
L15.8155 36.0419
" />
</g></g>
<g style="fill:#840000; fill-opacity:0.0; 
stroke:#840000; stroke-width:0.1524; stroke-opacity:1; 
stroke-linecap:round; stroke-linejoin:round;">
<path d="M13.2997 33.9114
L17.3637 33.9114
" />
</g>
<g style="fill:#A90000; fill-opacity:0.0; 
stroke:#A90000; stroke-width:0.1524; stroke-opacity:1; 
stroke-linecap:round; stroke-linejoin:round;">
<text x="15.3317" y="33.6574"
textLength="2.5460" font-size="1.6933" lengthAdjust="spacingAndGlyphs"
text-anchor="middle" opacity="0">28</text>
<g class="stroked-text"><desc>28</desc>
<path d="M14.3641 32.3529
L14.4245 32.2924
" />
<path d="M14.4245 32.2924
L14.5455 32.2319
" />
<path d="M14.5455 32.2319
L14.8479 32.2319
" />
<path d="M14.8479 32.2319
L14.9688 32.2924
" />
<path d="M14.9688 32.2924
L15.0293 32.3529
" />
<path d="M15.0293 32.3529
L15.0898 32.4738
" />
<path d="M15.0898 32.4738
L15.0898 32.5948
" />
<path d="M15.0898 32.5948
L15.0293 32.7762
" />
<path d="M15.0293 32.7762
L14.3036 33.5019
" />
<path d="M14.3036 33.5019
L15.0898 33.5019
" />
<path d="M15.8155 32.7762
L15.6945 32.7157
" />
<path d="M15.6945 32.7157
L15.6340 32.6553
" />
<path d="M15.6340 32.6553
L15.5736 32.5343
" />
<path d="M15.5736 32.5343
L15.5736 32.4738
" />
<path d="M15.5736 32.4738
L15.6340 32.3529
" />
<path d="M15.6340 32.3529
L15.6945 32.2924
" />
<path d="M15.6945 32.2924
L15.8155 32.2319
" />
<path d="M15.8155 32.2319
L16.0574 32.2319
" />
<path d="M16.0574 32.2319
L16.1783 32.2924
" />
<path d="M16.1783 32.2924
L16.2388 32.3529
" />
<path d="M16.2388 32.3529
L16.2993 32.4738
" />
<path d="M16.2993 32.4738
L16.2993 32.5343
" />
<path d="M16.2993 32.5343
L16.2388 32.6553
" />
<path d="M16.2388 32.6553
L16.1783 32.7157
" />
<path d="M16.1783 32.7157
L16.0574 32.7762
" />
<path d="M16.0574 32.7762
L15.8155 32.7762
" />
<path d="M15.8155 32.7762
L15.6945 32.8367
" />
<path d="M15.6945 32.8367
L15.6340 32.8972
" />
<path d="M15.6340 32.8972
L15.5736 33.0181
" />
<path d="M15.5736 33.0181
L15.5736 33.2600
" />
<path d="M15.5736 33.2600
L15.6340 33.3810
" />
<path d="M15.6340 33.3810
L15.6945 33.4415
" />
<path d="M15.6945 33.4415
L15.8155 33.5019
" />
<path d="M15.8155 33.5019
L16.0574 33.5019
" />
<path d="M16.0574 33.5019
L16.1783 33.4415
" />
<path d="M16.1783 33.4415
L16.2388 33.3810
" />
<path d="M16.2388 33.3810
L16.2993 33.2600
" />
<path d="M16.2993 33.2600
L16.2993 33.0181
" />
<path d="M16.2993 33.0181
L16.2388 32.8972
" />
<path d="M16.2388 32.8972
L16.1783 32.8367
" />
<path d="M16.1783 32.8367
L16.0574 32.7762
" />
</g></g>
<g style="fill:#840000; fill-opacity:0.0; 
stroke:#840000; stroke-width:0.1524; stroke-opacity:1; 
stroke-linecap:round; stroke-linejoin:round;">
<path d="M13.2997 31.3714
L17.3637 31.3714
" />
</g>
<g style="fill:#A90000; fill-opacity:0.0; 
stroke:#A90000; stroke-width:0.1524; stroke-opacity:1; 
stroke-linecap:round; stroke-linejoin:round;">
<text x="15.3317" y="31.1174"
textLength="2.5460" font-size="1.6933" lengthAdjust="spacingAndGlyphs"
text-anchor="middle" opacity="0">29</text>
<g class="stroked-text"><desc>29</desc>
<path d="M14.3641 29.8129
L14.4245 29.7524
" />
<path d="M14.4245 29.7524
L14.5455 29.6919
" />
<path d="M14.5455 29.6919
L14.8479 29.6919
" />
<path d="M14.8479 29.6919
L14.9688 29.7524
" />
<path d="M14.9688 29.7524
L15.0293 29.8129
" />
<path d="M15.0293 29.8129
L15.0898 29.9338
" />
<path d="M15.0898 29.9338
L15.0898 30.0548
" />
<path d="M15.0898 30.0548
L15.0293 30.2362
" />
<path d="M15.0293 30.2362
L14.3036 30.9619
" />
<path d="M14.3036 30.9619
L15.0898 30.9619
" />
<path d="M15.6945 30.9619
L15.9364 30.9619
" />
<path d="M15.9364 30.9619
L16.0574 30.9015
" />
<path d="M16.0574 30.9015
L16.1178 30.8410
" />
<path d="M16.1178 30.8410
L16.2388 30.6595
" />
<path d="M16.2388 30.6595
L16.2993 30.4176
" />
<path d="M16.2993 30.4176
L16.2993 29.9338
" />
<path d="M16.2993 29.9338
L16.2388 29.8129
" />
<path d="M16.2388 29.8129
L16.1783 29.7524
" />
<path d="M16.1783 29.7524
L16.0574 29.6919
" />
<path d="M16.0574 29.6919
L15.8155 29.6919
" />
<path d="M15.8155 29.6919
L15.6945 29.7524
" />
<path d="M15.6945 29.7524
L15.6340 29.8129
" />
<path d="M15.6340 29.8129
L15.5736 29.9338
" />
<path d="M15.5736 29.9338
L15.5736 30.2362
" />
<path d="M15.5736 30.2362
L15.6340 30.3572
" />
<path d="M15.6340 30.3572
L15.6945 30.4176
" />
<path d="M15.6945 30.4176
L15.8155 30.4781
" />
<path d="M15.8155 30.4781
L16.0574 30.4781
" />
<path d="M16.0574 30.4781
L16.1783 30.4176
" />
<path d="M16.1783 30.4176
L16.2388 30.3572
" />
<path d="M16.2388 30.3572
L16.2993 30.2362
" />
</g></g>
<g style="fill:#840000; fill-opacity:0.0; 
stroke:#840000; stroke-width:0.1524; stroke-opacity:1; 
stroke-linecap:round; stroke-linejoin:round;">
<path d="M8.7277 13.5914
L4.6637 13.5914
" />
</g>
<g style="fill:#A90000; fill-opacity:0.0; 
stroke:#A90000; stroke-width:0.1524; stroke-opacity:1; 
stroke-linecap:round; stroke-linejoin:round;">
<text x="6.6957" y="13.3374"
textLength="1.3365" font-size="1.6933" lengthAdjust="spacingAndGlyphs"
text-anchor="middle" opacity="0">3</text>
<g class="stroked-text"><desc>3</desc>
<path d="M6.2724 11.9119
L7.0586 11.9119
" />
<path d="M7.0586 11.9119
L6.6352 12.3957
" />
<path d="M6.6352 12.3957
L6.8167 12.3957
" />
<path d="M6.8167 12.3957
L6.9376 12.4562
" />
<path d="M6.9376 12.4562
L6.9981 12.5167
" />
<path d="M6.9981 12.5167
L7.0586 12.6376
" />
<path d="M7.0586 12.6376
L7.0586 12.9400
" />
<path d="M7.0586 12.9400
L6.9981 13.0610
" />
<path d="M6.9981 13.0610
L6.9376 13.1215
" />
<path d="M6.9376 13.1215
L6.8167 13.1819
" />
<path d="M6.8167 13.1819
L6.4538 13.1819
" />
<path d="M6.4538 13.1819
L6.3329 13.1215
" />
<path d="M6.3329 13.1215
L6.2724 13.0610
" />
</g></g>
<g style="fill:#840000; fill-opacity:0.0; 
stroke:#840000; stroke-width:0.1524; stroke-opacity:1; 
stroke-linecap:round; stroke-linejoin:round;">
<path d="M13.2997 28.8314
L17.3637 28.8314
" />
</g>
<g style="fill:#A90000; fill-opacity:0.0; 
stroke:#A90000; stroke-width:0.1524; stroke-opacity:1; 
stroke-linecap:round; stroke-linejoin:round;">
<text x="15.3317" y="28.5774"
textLength="2.5460" font-size="1.6933" lengthAdjust="spacingAndGlyphs"
text-anchor="middle" opacity="0">30</text>
<g class="stroked-text"><desc>30</desc>
<path d="M14.3036 27.1519
L15.0898 27.1519
" />
<path d="M15.0898 27.1519
L14.6664 27.6357
" />
<path d="M14.6664 27.6357
L14.8479 27.6357
" />
<path d="M14.8479 27.6357
L14.9688 27.6962
" />
<path d="M14.9688 27.6962
L15.0293 27.7567
" />
<path d="M15.0293 27.7567
L15.0898 27.8776
" />
<path d="M15.0898 27.8776
L15.0898 28.1800
" />
<path d="M15.0898 28.1800
L15.0293 28.3010
" />
<path d="M15.0293 28.3010
L14.9688 28.3615
" />
<path d="M14.9688 28.3615
L14.8479 28.4219
" />
<path d="M14.8479 28.4219
L14.4850 28.4219
" />
<path d="M14.4850 28.4219
L14.3641 28.3615
" />
<path d="M14.3641 28.3615
L14.3036 28.3010
" />
<path d="M15.8759 27.1519
L15.9969 27.1519
" />
<path d="M15.9969 27.1519
L16.1178 27.2124
" />
<path d="M16.1178 27.2124
L16.1783 27.2729
" />
<path d="M16.1783 27.2729
L16.2388 27.3938
" />
<path d="M16.2388 27.3938
L16.2993 27.6357
" />
<path d="M16.2993 27.6357
L16.2993 27.9381
" />
<path d="M16.2993 27.9381
L16.2388 28.1800
" />
<path d="M16.2388 28.1800
L16.1783 28.3010
" />
<path d="M16.1783 28.3010
L16.1178 28.3615
" />
<path d="M16.1178 28.3615
L15.9969 28.4219
" />
<path d="M15.9969 28.4219
L15.8759 28.4219
" />
<path d="M15.8759 28.4219
L15.7550 28.3615
" />
<path d="M15.7550 28.3615
L15.6945 28.3010
" />
<path d="M15.6945 28.3010
L15.6340 28.1800
" />
<path d="M15.6340 28.1800
L15.5736 27.9381
" />
<path d="M15.5736 27.9381
L15.5736 27.6357
" />
<path d="M15.5736 27.6357
L15.6340 27.3938
" />
<path d="M15.6340 27.3938
L15.6945 27.2729
" />
<path d="M15.6945 27.2729
L15.7550 27.2124
" />
<path d="M15.7550 27.2124
L15.8759 27.1519
" />
</g></g>
<g style="fill:#840000; fill-opacity:0.0; 
stroke:#840000; stroke-width:0.1524; stroke-opacity:1; 
stroke-linecap:round; stroke-linejoin:round;">
<path d="M13.2997 26.2914
L17.3637 26.2914
" />
</g>
<g style="fill:#A90000; fill-opacity:0.0; 
stroke:#A90000; stroke-width:0.1524; stroke-opacity:1; 
stroke-linecap:round; stroke-linejoin:round;">
<text x="15.3317" y="26.0374"
textLength="2.5460" font-size="1.6933" lengthAdjust="spacingAndGlyphs"
text-anchor="middle" opacity="0">31</text>
<g class="stroked-text"><desc>31</desc>
<path d="M14.3036 24.6119
L15.0898 24.6119
" />
<path d="M15.0898 24.6119
L14.6664 25.0957
" />
<path d="M14.6664 25.0957
L14.8479 25.0957
" />
<path d="M14.8479 25.0957
L14.9688 25.1562
" />
<path d="M14.9688 25.1562
L15.0293 25.2167
" />
<path d="M15.0293 25.2167
L15.0898 25.3376
" />
<path d="M15.0898 25.3376
L15.0898 25.6400
" />
<path d="M15.0898 25.6400
L15.0293 25.7610
" />
<path d="M15.0293 25.7610
L14.9688 25.8215
" />
<path d="M14.9688 25.8215
L14.8479 25.8819
" />
<path d="M14.8479 25.8819
L14.4850 25.8819
" />
<path d="M14.4850 25.8819
L14.3641 25.8215
" />
<path d="M14.3641 25.8215
L14.3036 25.7610
" />
<path d="M16.2993 25.8819
L15.5736 25.8819
" />
<path d="M15.9364 25.8819
L15.9364 24.6119
" />
<path d="M15.9364 24.6119
L15.8155 24.7934
" />
<path d="M15.8155 24.7934
L15.6945 24.9143
" />
<path d="M15.6945 24.9143
L15.5736 24.9748
" />
</g></g>
<g style="fill:#840000; fill-opacity:0.0; 
stroke:#840000; stroke-width:0.1524; stroke-opacity:1; 
stroke-linecap:round; stroke-linejoin:round;">
<path d="M13.2997 23.7514
L17.3637 23.7514
" />
</g>
<g style="fill:#A90000; fill-opacity:0.0; 
stroke:#A90000; stroke-width:0.1524; stroke-opacity:1; 
stroke-linecap:round; stroke-linejoin:round;">
<text x="15.3317" y="23.4974"
textLength="2.5460" font-size="1.6933" lengthAdjust="spacingAndGlyphs"
text-anchor="middle" opacity="0">32</text>
<g class="stroked-text"><desc>32</desc>
<path d="M14.3036 22.0719
L15.0898 22.0719
" />
<path d="M15.0898 22.0719
L14.6664 22.5557
" />
<path d="M14.6664 22.5557
L14.8479 22.5557
" />
<path d="M14.8479 22.5557
L14.9688 22.6162
" />
<path d="M14.9688 22.6162
L15.0293 22.6767
" />
<path d="M15.0293 22.6767
L15.0898 22.7976
" />
<path d="M15.0898 22.7976
L15.0898 23.1000
" />
<path d="M15.0898 23.1000
L15.0293 23.2210
" />
<path d="M15.0293 23.2210
L14.9688 23.2815
" />
<path d="M14.9688 23.2815
L14.8479 23.3419
" />
<path d="M14.8479 23.3419
L14.4850 23.3419
" />
<path d="M14.4850 23.3419
L14.3641 23.2815
" />
<path d="M14.3641 23.2815
L14.3036 23.2210
" />
<path d="M15.5736 22.1929
L15.6340 22.1324
" />
<path d="M15.6340 22.1324
L15.7550 22.0719
" />
<path d="M15.7550 22.0719
L16.0574 22.0719
" />
<path d="M16.0574 22.0719
L16.1783 22.1324
" />
<path d="M16.1783 22.1324
L16.2388 22.1929
" />
<path d="M16.2388 22.1929
L16.2993 22.3138
" />
<path d="M16.2993 22.3138
L16.2993 22.4348
" />
<path d="M16.2993 22.4348
L16.2388 22.6162
" />
<path d="M16.2388 22.6162
L15.5131 23.3419
" />
<path d="M15.5131 23.3419
L16.2993 23.3419
" />
</g></g>
<g style="fill:#840000; fill-opacity:0.0; 
stroke:#840000; stroke-width:0.1524; stroke-opacity:1; 
stroke-linecap:round; stroke-linejoin:round;">
<path d="M13.2997 21.2114
L17.3637 21.2114
" />
</g>
<g style="fill:#A90000; fill-opacity:0.0; 
stroke:#A90000; stroke-width:0.1524; stroke-opacity:1; 
stroke-linecap:round; stroke-linejoin:round;">
<text x="15.3317" y="20.9574"
textLength="2.5460" font-size="1.6933" lengthAdjust="spacingAndGlyphs"
text-anchor="middle" opacity="0">33</text>
<g class="stroked-text"><desc>33</desc>
<path d="M14.3036 19.5319
L15.0898 19.5319
" />
<path d="M15.0898 19.5319
L14.6664 20.0157
" />
<path d="M14.6664 20.0157
L14.8479 20.0157
" />
<path d="M14.8479 20.0157
L14.9688 20.0762
" />
<path d="M14.9688 20.0762
L15.0293 20.1367
" />
<path d="M15.0293 20.1367
L15.0898 20.2576
" />
<path d="M15.0898 20.2576
L15.0898 20.5600
" />
<path d="M15.0898 20.5600
L15.0293 20.6810
" />
<path d="M15.0293 20.6810
L14.9688 20.7415
" />
<path d="M14.9688 20.7415
L14.8479 20.8019
" />
<path d="M14.8479 20.8019
L14.4850 20.8019
" />
<path d="M14.4850 20.8019
L14.3641 20.7415
" />
<path d="M14.3641 20.7415
L14.3036 20.6810
" />
<path d="M15.5131 19.5319
L16.2993 19.5319
" />
<path d="M16.2993 19.5319
L15.8759 20.0157
" />
<path d="M15.8759 20.0157
L16.0574 20.0157
" />
<path d="M16.0574 20.0157
L16.1783 20.0762
" />
<path d="M16.1783 20.0762
L16.2388 20.1367
" />
<path d="M16.2388 20.1367
L16.2993 20.2576
" />
<path d="M16.2993 20.2576
L16.2993 20.5600
" />
<path d="M16.2993 20.5600
L16.2388 20.6810
" />
<path d="M16.2388 20.6810
L16.1783 20.7415
" />
<path d="M16.1783 20.7415
L16.0574 20.8019
" />
<path d="M16.0574 20.8019
L15.6945 20.8019
" />
<path d="M15.6945 20.8019
L15.5736 20.7415
" />
<path d="M15.5736 20.7415
L15.5131 20.6810
" />
</g></g>
<g style="fill:#840000; fill-opacity:0.0; 
stroke:#840000; stroke-width:0.1524; stroke-opacity:1; 
stroke-linecap:round; stroke-linejoin:round;">
<path d="M13.2997 18.6714
L17.3637 18.6714
" />
</g>
<g style="fill:#A90000; fill-opacity:0.0; 
stroke:#A90000; stroke-width:0.1524; stroke-opacity:1; 
stroke-linecap:round; stroke-linejoin:round;">
<text x="15.3317" y="18.4174"
textLength="2.5460" font-size="1.6933" lengthAdjust="spacingAndGlyphs"
text-anchor="middle" opacity="0">34</text>
<g class="stroked-text"><desc>34</desc>
<path d="M14.3036 16.9919
L15.0898 16.9919
" />
<path d="M15.0898 16.9919
L14.6664 17.4757
" />
<path d="M14.6664 17.4757
L14.8479 17.4757
" />
<path d="M14.8479 17.4757
L14.9688 17.5362
" />
<path d="M14.9688 17.5362
L15.0293 17.5967
" />
<path d="M15.0293 17.5967
L15.0898 17.7176
" />
<path d="M15.0898 17.7176
L15.0898 18.0200
" />
<path d="M15.0898 18.0200
L15.0293 18.1410
" />
<path d="M15.0293 18.1410
L14.9688 18.2015
" />
<path d="M14.9688 18.2015
L14.8479 18.2619
" />
<path d="M14.8479 18.2619
L14.4850 18.2619
" />
<path d="M14.4850 18.2619
L14.3641 18.2015
" />
<path d="M14.3641 18.2015
L14.3036 18.1410
" />
<path d="M16.1783 17.4153
L16.1783 18.2619
" />
<path d="M15.8759 16.9315
L15.5736 17.8386
" />
<path d="M15.5736 17.8386
L16.3597 17.8386
" />
</g></g>
<g style="fill:#840000; fill-opacity:0.0; 
stroke:#840000; stroke-width:0.1524; stroke-opacity:1; 
stroke-linecap:round; stroke-linejoin:round;">
<path d="M13.2997 16.1314
L17.3637 16.1314
" />
</g>
<g style="fill:#A90000; fill-opacity:0.0; 
stroke:#A90000; stroke-width:0.1524; stroke-opacity:1; 
stroke-linecap:round; stroke-linejoin:round;">
<text x="15.3317" y="15.8774"
textLength="2.5460" font-size="1.6933" lengthAdjust="spacingAndGlyphs"
text-anchor="middle" opacity="0">35</text>
<g class="stroked-text"><desc>35</desc>
<path d="M14.3036 14.4519
L15.0898 14.4519
" />
<path d="M15.0898 14.4519
L14.6664 14.9357
" />
<path d="M14.6664 14.9357
L14.8479 14.9357
" />
<path d="M14.8479 14.9357
L14.9688 14.9962
" />
<path d="M14.9688 14.9962
L15.0293 15.0567
" />
<path d="M15.0293 15.0567
L15.0898 15.1776
" />
<path d="M15.0898 15.1776
L15.0898 15.4800
" />
<path d="M15.0898 15.4800
L15.0293 15.6010
" />
<path d="M15.0293 15.6010
L14.9688 15.6615
" />
<path d="M14.9688 15.6615
L14.8479 15.7219
" />
<path d="M14.8479 15.7219
L14.4850 15.7219
" />
<path d="M14.4850 15.7219
L14.3641 15.6615
" />
<path d="M14.3641 15.6615
L14.3036 15.6010
" />
<path d="M16.2388 14.4519
L15.6340 14.4519
" />
<path d="M15.6340 14.4519
L15.5736 15.0567
" />
<path d="M15.5736 15.0567
L15.6340 14.9962
" />
<path d="M15.6340 14.9962
L15.7550 14.9357
" />
<path d="M15.7550 14.9357
L16.0574 14.9357
" />
<path d="M16.0574 14.9357
L16.1783 14.9962
" />
<path d="M16.1783 14.9962
L16.2388 15.0567
" />
<path d="M16.2388 15.0567
L16.2993 15.1776
" />
<path d="M16.2993 15.1776
L16.2993 15.4800
" />
<path d="M16.2993 15.4800
L16.2388 15.6010
" />
<path d="M16.2388 15.6010
L16.1783 15.6615
" />
<path d="M16.1783 15.6615
L16.0574 15.7219
" />
<path d="M16.0574 15.7219
L15.7550 15.7219
" />
<path d="M15.7550 15.7219
L15.6340 15.6615
" />
<path d="M15.6340 15.6615
L15.5736 15.6010
" />
</g></g>
<g style="fill:#840000; fill-opacity:0.0; 
stroke:#840000; stroke-width:0.1524; stroke-opacity:1; 
stroke-linecap:round; stroke-linejoin:round;">
<path d="M13.2997 13.5914
L17.3637 13.5914
" />
</g>
<g style="fill:#A90000; fill-opacity:0.0; 
stroke:#A90000; stroke-width:0.1524; stroke-opacity:1; 
stroke-linecap:round; stroke-linejoin:round;">
<text x="15.3317" y="13.3374"
textLength="2.5460" font-size="1.6933" lengthAdjust="spacingAndGlyphs"
text-anchor="middle" opacity="0">36</text>
<g class="stroked-text"><desc>36</desc>
<path d="M14.3036 11.9119
L15.0898 11.9119
" />
<path d="M15.0898 11.9119
L14.6664 12.3957
" />
<path d="M14.6664 12.3957
L14.8479 12.3957
" />
<path d="M14.8479 12.3957
L14.9688 12.4562
" />
<path d="M14.9688 12.4562
L15.0293 12.5167
" />
<path d="M15.0293 12.5167
L15.0898 12.6376
" />
<path d="M15.0898 12.6376
L15.0898 12.9400
" />
<path d="M15.0898 12.9400
L15.0293 13.0610
" />
<path d="M15.0293 13.0610
L14.9688 13.1215
" />
<path d="M14.9688 13.1215
L14.8479 13.1819
" />
<path d="M14.8479 13.1819
L14.4850 13.1819
" />
<path d="M14.4850 13.1819
L14.3641 13.1215
" />
<path d="M14.3641 13.1215
L14.3036 13.0610
" />
<path d="M16.1783 11.9119
L15.9364 11.9119
" />
<path d="M15.9364 11.9119
L15.8155 11.9724
" />
<path d="M15.8155 11.9724
L15.7550 12.0329
" />
<path d="M15.7550 12.0329
L15.6340 12.2143
" />
<path d="M15.6340 12.2143
L15.5736 12.4562
" />
<path d="M15.5736 12.4562
L15.5736 12.9400
" />
<path d="M15.5736 12.9400
L15.6340 13.0610
" />
<path d="M15.6340 13.0610
L15.6945 13.1215
" />
<path d="M15.6945 13.1215
L15.8155 13.1819
" />
<path d="M15.8155 13.1819
L16.0574 13.1819
" />
<path d="M16.0574 13.1819
L16.1783 13.1215
" />
<path d="M16.1783 13.1215
L16.2388 13.0610
" />
<path d="M16.2388 13.0610
L16.2993 12.9400
" />
<path d="M16.2993 12.9400
L16.2993 12.6376
" />
<path d="M16.2993 12.6376
L16.2388 12.5167
" />
<path d="M16.2388 12.5167
L16.1783 12.4562
" />
<path d="M16.1783 12.4562
L16.0574 12.3957
" />
<path d="M16.0574 12.3957
L15.8155 12.3957
" />
<path d="M15.8155 12.3957
L15.6945 12.4562
" />
<path d="M15.6945 12.4562
L15.6340 12.5167
" />
<path d="M15.6340 12.5167
L15.5736 12.6376
" />
</g></g>
<g style="fill:#840000; fill-opacity:0.0; 
stroke:#840000; stroke-width:0.1524; stroke-opacity:1; 
stroke-linecap:round; stroke-linejoin:round;">
<path d="M13.2997 11.0514
L17.3637 11.0514
" />
</g>
<g style="fill:#A90000; fill-opacity:0.0; 
stroke:#A90000; stroke-width:0.1524; stroke-opacity:1; 
stroke-linecap:round; stroke-linejoin:round;">
<text x="15.3317" y="10.7974"
textLength="2.5460" font-size="1.6933" lengthAdjust="spacingAndGlyphs"
text-anchor="middle" opacity="0">37</text>
<g class="stroked-text"><desc>37</desc>
<path d="M14.3036 9.3719
L15.0898 9.3719
" />
<path d="M15.0898 9.3719
L14.6664 9.8557
" />
<path d="M14.6664 9.8557
L14.8479 9.8557
" />
<path d="M14.8479 9.8557
L14.9688 9.9162
" />
<path d="M14.9688 9.9162
L15.0293 9.9767
" />
<path d="M15.0293 9.9767
L15.0898 10.0976
" />
<path d="M15.0898 10.0976
L15.0898 10.4000
" />
<path d="M15.0898 10.4000
L15.0293 10.5210
" />
<path d="M15.0293 10.5210
L14.9688 10.5815
" />
<path d="M14.9688 10.5815
L14.8479 10.6419
" />
<path d="M14.8479 10.6419
L14.4850 10.6419
" />
<path d="M14.4850 10.6419
L14.3641 10.5815
" />
<path d="M14.3641 10.5815
L14.3036 10.5210
" />
<path d="M15.5131 9.3719
L16.3597 9.3719
" />
<path d="M16.3597 9.3719
L15.8155 10.6419
" />
</g></g>
<g style="fill:#840000; fill-opacity:0.0; 
stroke:#840000; stroke-width:0.1524; stroke-opacity:1; 
stroke-linecap:round; stroke-linejoin:round;">
<path d="M13.2997 8.5114
L17.3637 8.5114
" />
</g>
<g style="fill:#A90000; fill-opacity:0.0; 
stroke:#A90000; stroke-width:0.1524; stroke-opacity:1; 
stroke-linecap:round; stroke-linejoin:round;">
<text x="15.3317" y="8.2574"
textLength="2.5460" font-size="1.6933" lengthAdjust="spacingAndGlyphs"
text-anchor="middle" opacity="0">38</text>
<g class="stroked-text"><desc>38</desc>
<path d="M14.3036 6.8319
L15.0898 6.8319
" />
<path d="M15.0898 6.8319
L14.6664 7.3157
" />
<path d="M14.6664 7.3157
L14.8479 7.3157
" />
<path d="M14.8479 7.3157
L14.9688 7.3762
" />
<path d="M14.9688 7.3762
L15.0293 7.4367
" />
<path d="M15.0293 7.4367
L15.0898 7.5576
" />
<path d="M15.0898 7.5576
L15.0898 7.8600
" />
<path d="M15.0898 7.8600
L15.0293 7.9810
" />
<path d="M15.0293 7.9810
L14.9688 8.0415
" />
<path d="M14.9688 8.0415
L14.8479 8.1019
" />
<path d="M14.8479 8.1019
L14.4850 8.1019
" />
<path d="M14.4850 8.1019
L14.3641 8.0415
" />
<path d="M14.3641 8.0415
L14.3036 7.9810
" />
<path d="M15.8155 7.3762
L15.6945 7.3157
" />
<path d="M15.6945 7.3157
L15.6340 7.2553
" />
<path d="M15.6340 7.2553
L15.5736 7.1343
" />
<path d="M15.5736 7.1343
L15.5736 7.0738
" />
<path d="M15.5736 7.0738
L15.6340 6.9529
" />
<path d="M15.6340 6.9529
L15.6945 6.8924
" />
<path d="M15.6945 6.8924
L15.8155 6.8319
" />
<path d="M15.8155 6.8319
L16.0574 6.8319
" />
<path d="M16.0574 6.8319
L16.1783 6.8924
" />
<path d="M16.1783 6.8924
L16.2388 6.9529
" />
<path d="M16.2388 6.9529
L16.2993 7.0738
" />
<path d="M16.2993 7.0738
L16.2993 7.1343
" />
<path d="M16.2993 7.1343
L16.2388 7.2553
" />
<path d="M16.2388 7.2553
L16.1783 7.3157
" />
<path d="M16.1783 7.3157
L16.0574 7.3762
" />
<path d="M16.0574 7.3762
L15.8155 7.3762
" />
<path d="M15.8155 7.3762
L15.6945 7.4367
" />
<path d="M15.6945 7.4367
L15.6340 7.4972
" />
<path d="M15.6340 7.4972
L15.5736 7.6181
" />
<path d="M15.5736 7.6181
L15.5736 7.8600
" />
<path d="M15.5736 7.8600
L15.6340 7.9810
" />
<path d="M15.6340 7.9810
L15.6945 8.0415
" />
<path d="M15.6945 8.0415
L15.8155 8.1019
" />
<path d="M15.8155 8.1019
L16.0574 8.1019
" />
<path d="M16.0574 8.1019
L16.1783 8.0415
" />
<path d="M16.1783 8.0415
L16.2388 7.9810
" />
<path d="M16.2388 7.9810
L16.2993 7.8600
" />
<path d="M16.2993 7.8600
L16.2993 7.6181
" />
<path d="M16.2993 7.6181
L16.2388 7.4972
" />
<path d="M16.2388 7.4972
L16.1783 7.4367
" />
<path d="M16.1783 7.4367
L16.0574 7.3762
" />
</g></g>
<g style="fill:#840000; fill-opacity:0.0; 
stroke:#840000; stroke-width:0.1524; stroke-opacity:1; 
stroke-linecap:round; stroke-linejoin:round;">
<path d="M8.7277 16.1314
L4.6637 16.1314
" />
</g>
<g style="fill:#A90000; fill-opacity:0.0; 
stroke:#A90000; stroke-width:0.1524; stroke-opacity:1; 
stroke-linecap:round; stroke-linejoin:round;">
<text x="6.6957" y="15.8774"
textLength="1.3365" font-size="1.6933" lengthAdjust="spacingAndGlyphs"
text-anchor="middle" opacity="0">4</text>
<g class="stroked-text"><desc>4</desc>
<path d="M6.9376 14.8753
L6.9376 15.7219
" />
<path d="M6.6352 14.3915
L6.3329 15.2986
" />
<path d="M6.3329 15.2986
L7.1190 15.2986
" />
</g></g>
<g style="fill:#840000; fill-opacity:0.0; 
stroke:#840000; stroke-width:0.1524; stroke-opacity:1; 
stroke-linecap:round; stroke-linejoin:round;">
<path d="M8.7277 18.6714
L4.6637 18.6714
" />
</g>
<g style="fill:#A90000; fill-opacity:0.0; 
stroke:#A90000; stroke-width:0.1524; stroke-opacity:1; 
stroke-linecap:round; stroke-linejoin:round;">
<text x="6.6957" y="18.4174"
textLength="1.3365" font-size="1.6933" lengthAdjust="spacingAndGlyphs"
text-anchor="middle" opacity="0">5</text>
<g class="stroked-text"><desc>5</desc>
<path d="M6.9981 16.9919
L6.3933 16.9919
" />
<path d="M6.3933 16.9919
L6.3329 17.5967
" />
<path d="M6.3329 17.5967
L6.3933 17.5362
" />
<path d="M6.3933 17.5362
L6.5143 17.4757
" />
<path d="M6.5143 17.4757
L6.8167 17.4757
" />
<path d="M6.8167 17.4757
L6.9376 17.5362
" />
<path d="M6.9376 17.5362
L6.9981 17.5967
" />
<path d="M6.9981 17.5967
L7.0586 17.7176
" />
<path d="M7.0586 17.7176
L7.0586 18.0200
" />
<path d="M7.0586 18.0200
L6.9981 18.1410
" />
<path d="M6.9981 18.1410
L6.9376 18.2015
" />
<path d="M6.9376 18.2015
L6.8167 18.2619
" />
<path d="M6.8167 18.2619
L6.5143 18.2619
" />
<path d="M6.5143 18.2619
L6.3933 18.2015
" />
<path d="M6.3933 18.2015
L6.3329 18.1410
" />
</g></g>
<g style="fill:#840000; fill-opacity:0.0; 
stroke:#840000; stroke-width:0.1524; stroke-opacity:1; 
stroke-linecap:round; stroke-linejoin:round;">
<path d="M8.7277 21.2114
L4.6637 21.2114
" />
</g>
<g style="fill:#A90000; fill-opacity:0.0; 
stroke:#A90000; stroke-width:0.1524; stroke-opacity:1; 
stroke-linecap:round; stroke-linejoin:round;">
<text x="6.6957" y="20.9574"
textLength="1.3365" font-size="1.6933" lengthAdjust="spacingAndGlyphs"
text-anchor="middle" opacity="0">6</text>
<g class="stroked-text"><desc>6</desc>
<path d="M6.9376 19.5319
L6.6957 19.5319
" />
<path d="M6.6957 19.5319
L6.5748 19.5924
" />
<path d="M6.5748 19.5924
L6.5143 19.6529
" />
<path d="M6.5143 19.6529
L6.3933 19.8343
" />
<path d="M6.3933 19.8343
L6.3329 20.0762
" />
<path d="M6.3329 20.0762
L6.3329 20.5600
" />
<path d="M6.3329 20.5600
L6.3933 20.6810
" />
<path d="M6.3933 20.6810
L6.4538 20.7415
" />
<path d="M6.4538 20.7415
L6.5748 20.8019
" />
<path d="M6.5748 20.8019
L6.8167 20.8019
" />
<path d="M6.8167 20.8019
L6.9376 20.7415
" />
<path d="M6.9376 20.7415
L6.9981 20.6810
" />
<path d="M6.9981 20.6810
L7.0586 20.5600
" />
<path d="M7.0586 20.5600
L7.0586 20.2576
" />
<path d="M7.0586 20.2576
L6.9981 20.1367
" />
<path d="M6.9981 20.1367
L6.9376 20.0762
" />
<path d="M6.9376 20.0762
L6.8167 20.0157
" />
<path d="M6.8167 20.0157
L6.5748 20.0157
" />
<path d="M6.5748 20.0157
L6.4538 20.0762
" />
<path d="M6.4538 20.0762
L6.3933 20.1367
" />
<path d="M6.3933 20.1367
L6.3329 20.2576
" />
</g></g>
<g style="fill:#840000; fill-opacity:0.0; 
stroke:#840000; stroke-width:0.1524; stroke-opacity:1; 
stroke-linecap:round; stroke-linejoin:round;">
<path d="M8.7277 23.7514
L4.6637 23.7514
" />
</g>
<g style="fill:#A90000; fill-opacity:0.0; 
stroke:#A90000; stroke-width:0.1524; stroke-opacity:1; 
stroke-linecap:round; stroke-linejoin:round;">
<text x="6.6957" y="23.4974"
textLength="1.3365" font-size="1.6933" lengthAdjust="spacingAndGlyphs"
text-anchor="middle" opacity="0">7</text>
<g class="stroked-text"><desc>7</desc>
<path d="M6.2724 22.0719
L7.1190 22.0719
" />
<path d="M7.1190 22.0719
L6.5748 23.3419
" />
</g></g>
<g style="fill:#840000; fill-opacity:0.0; 
stroke:#840000; stroke-width:0.1524; stroke-opacity:1; 
stroke-linecap:round; stroke-linejoin:round;">
<path d="M8.7277 26.2914
L4.6637 26.2914
" />
</g>
<g style="fill:#A90000; fill-opacity:0.0; 
stroke:#A90000; stroke-width:0.1524; stroke-opacity:1; 
stroke-linecap:round; stroke-linejoin:round;">
<text x="6.6957" y="26.0374"
textLength="1.3365" font-size="1.6933" lengthAdjust="spacingAndGlyphs"
text-anchor="middle" opacity="0">8</text>
<g class="stroked-text"><desc>8</desc>
<path d="M6.5748 25.1562
L6.4538 25.0957
" />
<path d="M6.4538 25.0957
L6.3933 25.0353
" />
<path d="M6.3933 25.0353
L6.3329 24.9143
" />
<path d="M6.3329 24.9143
L6.3329 24.8538
" />
<path d="M6.3329 24.8538
L6.3933 24.7329
" />
<path d="M6.3933 24.7329
L6.4538 24.6724
" />
<path d="M6.4538 24.6724
L6.5748 24.6119
" />
<path d="M6.5748 24.6119
L6.8167 24.6119
" />
<path d="M6.8167 24.6119
L6.9376 24.6724
" />
<path d="M6.9376 24.6724
L6.9981 24.7329
" />
<path d="M6.9981 24.7329
L7.0586 24.8538
" />
<path d="M7.0586 24.8538
L7.0586 24.9143
" />
<path d="M7.0586 24.9143
L6.9981 25.0353
" />
<path d="M6.9981 25.0353
L6.9376 25.0957
" />
<path d="M6.9376 25.0957
L6.8167 25.1562
" />
<path d="M6.8167 25.1562
L6.5748 25.1562
" />
<path d="M6.5748 25.1562
L6.4538 25.2167
" />
<path d="M6.4538 25.2167
L6.3933 25.2772
" />
<path d="M6.3933 25.2772
L6.3329 25.3981
" />
<path d="M6.3329 25.3981
L6.3329 25.6400
" />
<path d="M6.3329 25.6400
L6.3933 25.7610
" />
<path d="M6.3933 25.7610
L6.4538 25.8215
" />
<path d="M6.4538 25.8215
L6.5748 25.8819
" />
<path d="M6.5748 25.8819
L6.8167 25.8819
" />
<path d="M6.8167 25.8819
L6.9376 25.8215
" />
<path d="M6.9376 25.8215
L6.9981 25.7610
" />
<path d="M6.9981 25.7610
L7.0586 25.6400
" />
<path d="M7.0586 25.6400
L7.0586 25.3981
" />
<path d="M7.0586 25.3981
L6.9981 25.2772
" />
<path d="M6.9981 25.2772
L6.9376 25.2167
" />
<path d="M6.9376 25.2167
L6.8167 25.1562
" />
</g></g>
<g style="fill:#840000; fill-opacity:0.0; 
stroke:#840000; stroke-width:0.1524; stroke-opacity:1; 
stroke-linecap:round; stroke-linejoin:round;">
<path d="M8.7277 28.8314
L4.6637 28.8314
" />
</g>
<g style="fill:#A90000; fill-opacity:0.0; 
stroke:#A90000; stroke-width:0.1524; stroke-opacity:1; 
stroke-linecap:round; stroke-linejoin:round;">
<text x="6.6957" y="28.5774"
textLength="1.3365" font-size="1.6933" lengthAdjust="spacingAndGlyphs"
text-anchor="middle" opacity="0">9</text>
<g class="stroked-text"><desc>9</desc>
<path d="M6.4538 28.4219
L6.6957 28.4219
" />
<path d="M6.6957 28.4219
L6.8167 28.3615
" />
<path d="M6.8167 28.3615
L6.8771 28.3010
" />
<path d="M6.8771 28.3010
L6.9981 28.1195
" />
<path d="M6.9981 28.1195
L7.0586 27.8776
" />
<path d="M7.0586 27.8776
L7.0586 27.3938
" />
<path d="M7.0586 27.3938
L6.9981 27.2729
" />
<path d="M6.9981 27.2729
L6.9376 27.2124
" />
<path d="M6.9376 27.2124
L6.8167 27.1519
" />
<path d="M6.8167 27.1519
L6.5748 27.1519
" />
<path d="M6.5748 27.1519
L6.4538 27.2124
" />
<path d="M6.4538 27.2124
L6.3933 27.2729
" />
<path d="M6.3933 27.2729
L6.3329 27.3938
" />
<path d="M6.3329 27.3938
L6.3329 27.6962
" />
<path d="M6.3329 27.6962
L6.3933 27.8172
" />
<path d="M6.3933 27.8172
L6.4538 27.8776
" />
<path d="M6.4538 27.8776
L6.5748 27.9381
" />
<path d="M6.5748 27.9381
L6.8167 27.9381
" />
<path d="M6.8167 27.9381
L6.9376 27.8776
" />
<path d="M6.9376 27.8776
L6.9981 27.8172
" />
<path d="M6.9981 27.8172
L7.0586 27.6962
" />
</g></g>
<g style="fill:#840000; fill-opacity:0.0; 
stroke:#840000; stroke-width:0.1524; stroke-opacity:1; 
stroke-linecap:round; stroke-linejoin:round;">
<path d="M11.0137 55.5014
L11.0137 59.3114
" />
</g>
<g style="fill:#A90000; fill-opacity:0.0; 
stroke:#A90000; stroke-width:0.1524; stroke-opacity:1; 
stroke-linecap:round; stroke-linejoin:round;">
<g transform="rotate(-90.000000 10.7597 57.4064)">
<text x="10.7597" y="57.4064"
textLength="2.6670" font-size="1.6933" lengthAdjust="spacingAndGlyphs"
text-anchor="middle" opacity="0">SH</text>
</g>
<g class="stroked-text"><desc>SH</desc>
<path d="M10.5438 58.4344
L10.6042 58.2530
" />
<path d="M10.6042 58.2530
L10.6042 57.9506
" />
<path d="M10.6042 57.9506
L10.5438 57.8297
" />
<path d="M10.5438 57.8297
L10.4833 57.7692
" />
<path d="M10.4833 57.7692
L10.3623 57.7087
" />
<path d="M10.3623 57.7087
L10.2414 57.7087
" />
<path d="M10.2414 57.7087
L10.1204 57.7692
" />
<path d="M10.1204 57.7692
L10.0599 57.8297
" />
<path d="M10.0599 57.8297
L9.9995 57.9506
" />
<path d="M9.9995 57.9506
L9.9390 58.1925
" />
<path d="M9.9390 58.1925
L9.8785 58.3135
" />
<path d="M9.8785 58.3135
L9.8180 58.3740
" />
<path d="M9.8180 58.3740
L9.6971 58.4344
" />
<path d="M9.6971 58.4344
L9.5761 58.4344
" />
<path d="M9.5761 58.4344
L9.4552 58.3740
" />
<path d="M9.4552 58.3740
L9.3947 58.3135
" />
<path d="M9.3947 58.3135
L9.3342 58.1925
" />
<path d="M9.3342 58.1925
L9.3342 57.8902
" />
<path d="M9.3342 57.8902
L9.3947 57.7087
" />
<path d="M10.6042 57.1645
L9.3342 57.1645
" />
<path d="M9.9390 57.1645
L9.9390 56.4388
" />
<path d="M10.6042 56.4388
L9.3342 56.4388
" />
</g></g>
<g style="fill:#840084; fill-opacity:0.0; 
stroke:#840084; stroke-width:0.1524; stroke-opacity:1; 
stroke-linecap:round; stroke-linejoin:round;">
</g>
<g style="fill:#006464; fill-opacity:0.0; 
stroke:#006464; stroke-width:0.1524; stroke-opacity:1; 
stroke-linecap:round; stroke-linejoin:round;">
</g>
<g style="fill:#006464; fill-opacity:0.0; 
stroke:#006464; stroke-width:0.1588; stroke-opacity:1; 
stroke-linecap:round; stroke-linejoin:round;">
<text x="11.2677" y="6.8604"
textLength="2.1992" font-size="1.6933" lengthAdjust="spacingAndGlyphs"
text-anchor="middle" opacity="0">J?</text>
<g class="stroked-text"><desc>J?</desc>
<path d="M10.9048 5.5429
L10.9048 6.4501
" />
<path d="M10.9048 6.4501
L10.8443 6.6315
" />
<path d="M10.8443 6.6315
L10.7234 6.7525
" />
<path d="M10.7234 6.7525
L10.5419 6.8129
" />
<path d="M10.5419 6.8129
L10.4210 6.8129
" />
<path d="M11.6910 6.6920
L11.7514 6.7525
" />
<path d="M11.7514 6.7525
L11.6910 6.8129
" />
<path d="M11.6910 6.8129
L11.6305 6.7525
" />
<path d="M11.6305 6.7525
L11.6910 6.6920
" />
<path d="M11.6910 6.6920
L11.6910 6.8129
" />
<path d="M11.4491 5.6034
L11.5700 5.5429
" />
<path d="M11.5700 5.5429
L11.8724 5.5429
" />
<path d="M11.8724 5.5429
L11.9933 5.6034
" />
<path d="M11.9933 5.6034
L12.0538 5.7244
" />
<path d="M12.0538 5.7244
L12.0538 5.8453
" />
<path d="M12.0538 5.8453
L11.9933 5.9663
" />
<path d="M11.9933 5.9663
L11.9329 6.0267
" />
<path d="M11.9329 6.0267
L11.8119 6.0872
" />
<path d="M11.8119 6.0872
L11.7514 6.1477
" />
<path d="M11.7514 6.1477
L11.6910 6.2686
" />
<path d="M11.6910 6.2686
L11.6910 6.3291
" />
</g><text x="31.6650" y="57.1524"
textLength="39.2706" font-size="1.6933" lengthAdjust="spacingAndGlyphs"
text-anchor="middle" opacity="0">Conn_02x19_Counter_Clockwise_Shielded</text>
<g class="stroked-text"><desc>Conn_02x19_Counter_Clockwise_Shielded</desc>
<path d="M13.1292 56.9840
L13.0688 57.0445
" />
<path d="M13.0688 57.0445
L12.8873 57.1049
" />
<path d="M12.8873 57.1049
L12.7664 57.1049
" />
<path d="M12.7664 57.1049
L12.5850 57.0445
" />
<path d="M12.5850 57.0445
L12.4640 56.9235
" />
<path d="M12.4640 56.9235
L12.4035 56.8025
" />
<path d="M12.4035 56.8025
L12.3431 56.5606
" />
<path d="M12.3431 56.5606
L12.3431 56.3792
" />
<path d="M12.3431 56.3792
L12.4035 56.1373
" />
<path d="M12.4035 56.1373
L12.4640 56.0164
" />
<path d="M12.4640 56.0164
L12.5850 55.8954
" />
<path d="M12.5850 55.8954
L12.7664 55.8349
" />
<path d="M12.7664 55.8349
L12.8873 55.8349
" />
<path d="M12.8873 55.8349
L13.0688 55.8954
" />
<path d="M13.0688 55.8954
L13.1292 55.9559
" />
<path d="M13.8550 57.1049
L13.7340 57.0445
" />
<path d="M13.7340 57.0445
L13.6735 56.9840
" />
<path d="M13.6735 56.9840
L13.6131 56.8630
" />
<path d="M13.6131 56.8630
L13.6131 56.5002
" />
<path d="M13.6131 56.5002
L13.6735 56.3792
" />
<path d="M13.6735 56.3792
L13.7340 56.3187
" />
<path d="M13.7340 56.3187
L13.8550 56.2583
" />
<path d="M13.8550 56.2583
L14.0364 56.2583
" />
<path d="M14.0364 56.2583
L14.1573 56.3187
" />
<path d="M14.1573 56.3187
L14.2178 56.3792
" />
<path d="M14.2178 56.3792
L14.2783 56.5002
" />
<path d="M14.2783 56.5002
L14.2783 56.8630
" />
<path d="M14.2783 56.8630
L14.2178 56.9840
" />
<path d="M14.2178 56.9840
L14.1573 57.0445
" />
<path d="M14.1573 57.0445
L14.0364 57.1049
" />
<path d="M14.0364 57.1049
L13.8550 57.1049
" />
<path d="M14.8225 56.2583
L14.8225 57.1049
" />
<path d="M14.8225 56.3792
L14.8830 56.3187
" />
<path d="M14.8830 56.3187
L15.0040 56.2583
" />
<path d="M15.0040 56.2583
L15.1854 56.2583
" />
<path d="M15.1854 56.2583
L15.3063 56.3187
" />
<path d="M15.3063 56.3187
L15.3668 56.4397
" />
<path d="M15.3668 56.4397
L15.3668 57.1049
" />
<path d="M15.9715 56.2583
L15.9715 57.1049
" />
<path d="M15.9715 56.3792
L16.0320 56.3187
" />
<path d="M16.0320 56.3187
L16.1530 56.2583
" />
<path d="M16.1530 56.2583
L16.3344 56.2583
" />
<path d="M16.3344 56.2583
L16.4553 56.3187
" />
<path d="M16.4553 56.3187
L16.5158 56.4397
" />
<path d="M16.5158 56.4397
L16.5158 57.1049
" />
<path d="M16.8182 57.2259
L17.7858 57.2259
" />
<path d="M18.3300 55.8349
L18.4510 55.8349
" />
<path d="M18.4510 55.8349
L18.5719 55.8954
" />
<path d="M18.5719 55.8954
L18.6324 55.9559
" />
<path d="M18.6324 55.9559
L18.6929 56.0768
" />
<path d="M18.6929 56.0768
L18.7534 56.3187
" />
<path d="M18.7534 56.3187
L18.7534 56.6211
" />
<path d="M18.7534 56.6211
L18.6929 56.8630
" />
<path d="M18.6929 56.8630
L18.6324 56.9840
" />
<path d="M18.6324 56.9840
L18.5719 57.0445
" />
<path d="M18.5719 57.0445
L18.4510 57.1049
" />
<path d="M18.4510 57.1049
L18.3300 57.1049
" />
<path d="M18.3300 57.1049
L18.2091 57.0445
" />
<path d="M18.2091 57.0445
L18.1486 56.9840
" />
<path d="M18.1486 56.9840
L18.0881 56.8630
" />
<path d="M18.0881 56.8630
L18.0277 56.6211
" />
<path d="M18.0277 56.6211
L18.0277 56.3187
" />
<path d="M18.0277 56.3187
L18.0881 56.0768
" />
<path d="M18.0881 56.0768
L18.1486 55.9559
" />
<path d="M18.1486 55.9559
L18.2091 55.8954
" />
<path d="M18.2091 55.8954
L18.3300 55.8349
" />
<path d="M19.2372 55.9559
L19.2976 55.8954
" />
<path d="M19.2976 55.8954
L19.4186 55.8349
" />
<path d="M19.4186 55.8349
L19.7210 55.8349
" />
<path d="M19.7210 55.8349
L19.8419 55.8954
" />
<path d="M19.8419 55.8954
L19.9024 55.9559
" />
<path d="M19.9024 55.9559
L19.9629 56.0768
" />
<path d="M19.9629 56.0768
L19.9629 56.1978
" />
<path d="M19.9629 56.1978
L19.9024 56.3792
" />
<path d="M19.9024 56.3792
L19.1767 57.1049
" />
<path d="M19.1767 57.1049
L19.9629 57.1049
" />
<path d="M20.3862 57.1049
L21.0514 56.2583
" />
<path d="M20.3862 56.2583
L21.0514 57.1049
" />
<path d="M22.2005 57.1049
L21.4748 57.1049
" />
<path d="M21.8376 57.1049
L21.8376 55.8349
" />
<path d="M21.8376 55.8349
L21.7167 56.0164
" />
<path d="M21.7167 56.0164
L21.5957 56.1373
" />
<path d="M21.5957 56.1373
L21.4748 56.1978
" />
<path d="M22.8052 57.1049
L23.0471 57.1049
" />
<path d="M23.0471 57.1049
L23.1681 57.0445
" />
<path d="M23.1681 57.0445
L23.2285 56.9840
" />
<path d="M23.2285 56.9840
L23.3495 56.8025
" />
<path d="M23.3495 56.8025
L23.4100 56.5606
" />
<path d="M23.4100 56.5606
L23.4100 56.0768
" />
<path d="M23.4100 56.0768
L23.3495 55.9559
" />
<path d="M23.3495 55.9559
L23.2890 55.8954
" />
<path d="M23.2890 55.8954
L23.1681 55.8349
" />
<path d="M23.1681 55.8349
L22.9262 55.8349
" />
<path d="M22.9262 55.8349
L22.8052 55.8954
" />
<path d="M22.8052 55.8954
L22.7447 55.9559
" />
<path d="M22.7447 55.9559
L22.6843 56.0768
" />
<path d="M22.6843 56.0768
L22.6843 56.3792
" />
<path d="M22.6843 56.3792
L22.7447 56.5002
" />
<path d="M22.7447 56.5002
L22.8052 56.5606
" />
<path d="M22.8052 56.5606
L22.9262 56.6211
" />
<path d="M22.9262 56.6211
L23.1681 56.6211
" />
<path d="M23.1681 56.6211
L23.2890 56.5606
" />
<path d="M23.2890 56.5606
L23.3495 56.5002
" />
<path d="M23.3495 56.5002
L23.4100 56.3792
" />
<path d="M23.6519 57.2259
L24.6195 57.2259
" />
<path d="M25.6475 56.9840
L25.5871 57.0445
" />
<path d="M25.5871 57.0445
L25.4056 57.1049
" />
<path d="M25.4056 57.1049
L25.2847 57.1049
" />
<path d="M25.2847 57.1049
L25.1033 57.0445
" />
<path d="M25.1033 57.0445
L24.9823 56.9235
" />
<path d="M24.9823 56.9235
L24.9218 56.8025
" />
<path d="M24.9218 56.8025
L24.8614 56.5606
" />
<path d="M24.8614 56.5606
L24.8614 56.3792
" />
<path d="M24.8614 56.3792
L24.9218 56.1373
" />
<path d="M24.9218 56.1373
L24.9823 56.0164
" />
<path d="M24.9823 56.0164
L25.1033 55.8954
" />
<path d="M25.1033 55.8954
L25.2847 55.8349
" />
<path d="M25.2847 55.8349
L25.4056 55.8349
" />
<path d="M25.4056 55.8349
L25.5871 55.8954
" />
<path d="M25.5871 55.8954
L25.6475 55.9559
" />
<path d="M26.3733 57.1049
L26.2523 57.0445
" />
<path d="M26.2523 57.0445
L26.1918 56.9840
" />
<path d="M26.1918 56.9840
L26.1314 56.8630
" />
<path d="M26.1314 56.8630
L26.1314 56.5002
" />
<path d="M26.1314 56.5002
L26.1918 56.3792
" />
<path d="M26.1918 56.3792
L26.2523 56.3187
" />
<path d="M26.2523 56.3187
L26.3733 56.2583
" />
<path d="M26.3733 56.2583
L26.5547 56.2583
" />
<path d="M26.5547 56.2583
L26.6756 56.3187
" />
<path d="M26.6756 56.3187
L26.7361 56.3792
" />
<path d="M26.7361 56.3792
L26.7966 56.5002
" />
<path d="M26.7966 56.5002
L26.7966 56.8630
" />
<path d="M26.7966 56.8630
L26.7361 56.9840
" />
<path d="M26.7361 56.9840
L26.6756 57.0445
" />
<path d="M26.6756 57.0445
L26.5547 57.1049
" />
<path d="M26.5547 57.1049
L26.3733 57.1049
" />
<path d="M27.8851 56.2583
L27.8851 57.1049
" />
<path d="M27.3408 56.2583
L27.3408 56.9235
" />
<path d="M27.3408 56.9235
L27.4013 57.0445
" />
<path d="M27.4013 57.0445
L27.5223 57.1049
" />
<path d="M27.5223 57.1049
L27.7037 57.1049
" />
<path d="M27.7037 57.1049
L27.8246 57.0445
" />
<path d="M27.8246 57.0445
L27.8851 56.9840
" />
<path d="M28.4898 56.2583
L28.4898 57.1049
" />
<path d="M28.4898 56.3792
L28.5503 56.3187
" />
<path d="M28.5503 56.3187
L28.6713 56.2583
" />
<path d="M28.6713 56.2583
L28.8527 56.2583
" />
<path d="M28.8527 56.2583
L28.9736 56.3187
" />
<path d="M28.9736 56.3187
L29.0341 56.4397
" />
<path d="M29.0341 56.4397
L29.0341 57.1049
" />
<path d="M29.4574 56.2583
L29.9412 56.2583
" />
<path d="M29.6388 55.8349
L29.6388 56.9235
" />
<path d="M29.6388 56.9235
L29.6993 57.0445
" />
<path d="M29.6993 57.0445
L29.8203 57.1049
" />
<path d="M29.8203 57.1049
L29.9412 57.1049
" />
<path d="M30.8483 57.0445
L30.7274 57.1049
" />
<path d="M30.7274 57.1049
L30.4855 57.1049
" />
<path d="M30.4855 57.1049
L30.3645 57.0445
" />
<path d="M30.3645 57.0445
L30.3041 56.9235
" />
<path d="M30.3041 56.9235
L30.3041 56.4397
" />
<path d="M30.3041 56.4397
L30.3645 56.3187
" />
<path d="M30.3645 56.3187
L30.4855 56.2583
" />
<path d="M30.4855 56.2583
L30.7274 56.2583
" />
<path d="M30.7274 56.2583
L30.8483 56.3187
" />
<path d="M30.8483 56.3187
L30.9088 56.4397
" />
<path d="M30.9088 56.4397
L30.9088 56.5606
" />
<path d="M30.9088 56.5606
L30.3041 56.6816
" />
<path d="M31.4531 57.1049
L31.4531 56.2583
" />
<path d="M31.4531 56.5002
L31.5136 56.3792
" />
<path d="M31.5136 56.3792
L31.5741 56.3187
" />
<path d="M31.5741 56.3187
L31.6950 56.2583
" />
<path d="M31.6950 56.2583
L31.8160 56.2583
" />
<path d="M31.9370 57.2259
L32.9046 57.2259
" />
<path d="M33.9326 56.9840
L33.8722 57.0445
" />
<path d="M33.8722 57.0445
L33.6907 57.1049
" />
<path d="M33.6907 57.1049
L33.5698 57.1049
" />
<path d="M33.5698 57.1049
L33.3884 57.0445
" />
<path d="M33.3884 57.0445
L33.2674 56.9235
" />
<path d="M33.2674 56.9235
L33.2069 56.8025
" />
<path d="M33.2069 56.8025
L33.1465 56.5606
" />
<path d="M33.1465 56.5606
L33.1465 56.3792
" />
<path d="M33.1465 56.3792
L33.2069 56.1373
" />
<path d="M33.2069 56.1373
L33.2674 56.0164
" />
<path d="M33.2674 56.0164
L33.3884 55.8954
" />
<path d="M33.3884 55.8954
L33.5698 55.8349
" />
<path d="M33.5698 55.8349
L33.6907 55.8349
" />
<path d="M33.6907 55.8349
L33.8722 55.8954
" />
<path d="M33.8722 55.8954
L33.9326 55.9559
" />
<path d="M34.6584 57.1049
L34.5374 57.0445
" />
<path d="M34.5374 57.0445
L34.4769 56.9235
" />
<path d="M34.4769 56.9235
L34.4769 55.8349
" />
<path d="M35.3236 57.1049
L35.2026 57.0445
" />
<path d="M35.2026 57.0445
L35.1421 56.9840
" />
<path d="M35.1421 56.9840
L35.0817 56.8630
" />
<path d="M35.0817 56.8630
L35.0817 56.5002
" />
<path d="M35.0817 56.5002
L35.1421 56.3792
" />
<path d="M35.1421 56.3792
L35.2026 56.3187
" />
<path d="M35.2026 56.3187
L35.3236 56.2583
" />
<path d="M35.3236 56.2583
L35.5050 56.2583
" />
<path d="M35.5050 56.2583
L35.6259 56.3187
" />
<path d="M35.6259 56.3187
L35.6864 56.3792
" />
<path d="M35.6864 56.3792
L35.7469 56.5002
" />
<path d="M35.7469 56.5002
L35.7469 56.8630
" />
<path d="M35.7469 56.8630
L35.6864 56.9840
" />
<path d="M35.6864 56.9840
L35.6259 57.0445
" />
<path d="M35.6259 57.0445
L35.5050 57.1049
" />
<path d="M35.5050 57.1049
L35.3236 57.1049
" />
<path d="M36.8354 57.0445
L36.7145 57.1049
" />
<path d="M36.7145 57.1049
L36.4726 57.1049
" />
<path d="M36.4726 57.1049
L36.3516 57.0445
" />
<path d="M36.3516 57.0445
L36.2911 56.9840
" />
<path d="M36.2911 56.9840
L36.2307 56.8630
" />
<path d="M36.2307 56.8630
L36.2307 56.5002
" />
<path d="M36.2307 56.5002
L36.2911 56.3792
" />
<path d="M36.2911 56.3792
L36.3516 56.3187
" />
<path d="M36.3516 56.3187
L36.4726 56.2583
" />
<path d="M36.4726 56.2583
L36.7145 56.2583
" />
<path d="M36.7145 56.2583
L36.8354 56.3187
" />
<path d="M37.3797 57.1049
L37.3797 55.8349
" />
<path d="M37.5007 56.6211
L37.8635 57.1049
" />
<path d="M37.8635 56.2583
L37.3797 56.7421
" />
<path d="M38.2869 56.2583
L38.5288 57.1049
" />
<path d="M38.5288 57.1049
L38.7707 56.5002
" />
<path d="M38.7707 56.5002
L39.0126 57.1049
" />
<path d="M39.0126 57.1049
L39.2545 56.2583
" />
<path d="M39.7383 57.1049
L39.7383 56.2583
" />
<path d="M39.7383 55.8349
L39.6779 55.8954
" />
<path d="M39.6779 55.8954
L39.7383 55.9559
" />
<path d="M39.7383 55.9559
L39.7988 55.8954
" />
<path d="M39.7988 55.8954
L39.7383 55.8349
" />
<path d="M39.7383 55.8349
L39.7383 55.9559
" />
<path d="M40.2827 57.0445
L40.4036 57.1049
" />
<path d="M40.4036 57.1049
L40.6455 57.1049
" />
<path d="M40.6455 57.1049
L40.7665 57.0445
" />
<path d="M40.7665 57.0445
L40.8269 56.9235
" />
<path d="M40.8269 56.9235
L40.8269 56.8630
" />
<path d="M40.8269 56.8630
L40.7665 56.7421
" />
<path d="M40.7665 56.7421
L40.6455 56.6816
" />
<path d="M40.6455 56.6816
L40.4641 56.6816
" />
<path d="M40.4641 56.6816
L40.3431 56.6211
" />
<path d="M40.3431 56.6211
L40.2827 56.5002
" />
<path d="M40.2827 56.5002
L40.2827 56.4397
" />
<path d="M40.2827 56.4397
L40.3431 56.3187
" />
<path d="M40.3431 56.3187
L40.4641 56.2583
" />
<path d="M40.4641 56.2583
L40.6455 56.2583
" />
<path d="M40.6455 56.2583
L40.7665 56.3187
" />
<path d="M41.8550 57.0445
L41.7341 57.1049
" />
<path d="M41.7341 57.1049
L41.4922 57.1049
" />
<path d="M41.4922 57.1049
L41.3712 57.0445
" />
<path d="M41.3712 57.0445
L41.3108 56.9235
" />
<path d="M41.3108 56.9235
L41.3108 56.4397
" />
<path d="M41.3108 56.4397
L41.3712 56.3187
" />
<path d="M41.3712 56.3187
L41.4922 56.2583
" />
<path d="M41.4922 56.2583
L41.7341 56.2583
" />
<path d="M41.7341 56.2583
L41.8550 56.3187
" />
<path d="M41.8550 56.3187
L41.9155 56.4397
" />
<path d="M41.9155 56.4397
L41.9155 56.5606
" />
<path d="M41.9155 56.5606
L41.3108 56.6816
" />
<path d="M42.1575 57.2259
L43.1251 57.2259
" />
<path d="M43.3670 57.0445
L43.5484 57.1049
" />
<path d="M43.5484 57.1049
L43.8508 57.1049
" />
<path d="M43.8508 57.1049
L43.9717 57.0445
" />
<path d="M43.9717 57.0445
L44.0322 56.9840
" />
<path d="M44.0322 56.9840
L44.0927 56.8630
" />
<path d="M44.0927 56.8630
L44.0927 56.7421
" />
<path d="M44.0927 56.7421
L44.0322 56.6211
" />
<path d="M44.0322 56.6211
L43.9717 56.5606
" />
<path d="M43.9717 56.5606
L43.8508 56.5002
" />
<path d="M43.8508 56.5002
L43.6089 56.4397
" />
<path d="M43.6089 56.4397
L43.4879 56.3792
" />
<path d="M43.4879 56.3792
L43.4274 56.3187
" />
<path d="M43.4274 56.3187
L43.3670 56.1978
" />
<path d="M43.3670 56.1978
L43.3670 56.0768
" />
<path d="M43.3670 56.0768
L43.4274 55.9559
" />
<path d="M43.4274 55.9559
L43.4879 55.8954
" />
<path d="M43.4879 55.8954
L43.6089 55.8349
" />
<path d="M43.6089 55.8349
L43.9112 55.8349
" />
<path d="M43.9112 55.8349
L44.0927 55.8954
" />
<path d="M44.6369 57.1049
L44.6369 55.8349
" />
<path d="M45.1812 57.1049
L45.1812 56.4397
" />
<path d="M45.1812 56.4397
L45.1207 56.3187
" />
<path d="M45.1207 56.3187
L44.9998 56.2583
" />
<path d="M44.9998 56.2583
L44.8184 56.2583
" />
<path d="M44.8184 56.2583
L44.6974 56.3187
" />
<path d="M44.6974 56.3187
L44.6369 56.3792
" />
<path d="M45.7859 57.1049
L45.7859 56.2583
" />
<path d="M45.7859 55.8349
L45.7255 55.8954
" />
<path d="M45.7255 55.8954
L45.7859 55.9559
" />
<path d="M45.7859 55.9559
L45.8464 55.8954
" />
<path d="M45.8464 55.8954
L45.7859 55.8349
" />
<path d="M45.7859 55.8349
L45.7859 55.9559
" />
<path d="M46.8745 57.0445
L46.7536 57.1049
" />
<path d="M46.7536 57.1049
L46.5117 57.1049
" />
<path d="M46.5117 57.1049
L46.3907 57.0445
" />
<path d="M46.3907 57.0445
L46.3303 56.9235
" />
<path d="M46.3303 56.9235
L46.3303 56.4397
" />
<path d="M46.3303 56.4397
L46.3907 56.3187
" />
<path d="M46.3907 56.3187
L46.5117 56.2583
" />
<path d="M46.5117 56.2583
L46.7536 56.2583
" />
<path d="M46.7536 56.2583
L46.8745 56.3187
" />
<path d="M46.8745 56.3187
L46.9350 56.4397
" />
<path d="M46.9350 56.4397
L46.9350 56.5606
" />
<path d="M46.9350 56.5606
L46.3303 56.6816
" />
<path d="M47.6608 57.1049
L47.5398 57.0445
" />
<path d="M47.5398 57.0445
L47.4793 56.9235
" />
<path d="M47.4793 56.9235
L47.4793 55.8349
" />
<path d="M48.6888 57.1049
L48.6888 55.8349
" />
<path d="M48.6888 57.0445
L48.5679 57.1049
" />
<path d="M48.5679 57.1049
L48.3260 57.1049
" />
<path d="M48.3260 57.1049
L48.2050 57.0445
" />
<path d="M48.2050 57.0445
L48.1445 56.9840
" />
<path d="M48.1445 56.9840
L48.0841 56.8630
" />
<path d="M48.0841 56.8630
L48.0841 56.5002
" />
<path d="M48.0841 56.5002
L48.1445 56.3792
" />
<path d="M48.1445 56.3792
L48.2050 56.3187
" />
<path d="M48.2050 56.3187
L48.3260 56.2583
" />
<path d="M48.3260 56.2583
L48.5679 56.2583
" />
<path d="M48.5679 56.2583
L48.6888 56.3187
" />
<path d="M49.7773 57.0445
L49.6564 57.1049
" />
<path d="M49.6564 57.1049
L49.4145 57.1049
" />
<path d="M49.4145 57.1049
L49.2935 57.0445
" />
<path d="M49.2935 57.0445
L49.2331 56.9235
" />
<path d="M49.2331 56.9235
L49.2331 56.4397
" />
<path d="M49.2331 56.4397
L49.2935 56.3187
" />
<path d="M49.2935 56.3187
L49.4145 56.2583
" />
<path d="M49.4145 56.2583
L49.6564 56.2583
" />
<path d="M49.6564 56.2583
L49.7773 56.3187
" />
<path d="M49.7773 56.3187
L49.8378 56.4397
" />
<path d="M49.8378 56.4397
L49.8378 56.5606
" />
<path d="M49.8378 56.5606
L49.2331 56.6816
" />
<path d="M50.9264 57.1049
L50.9264 55.8349
" />
<path d="M50.9264 57.0445
L50.8055 57.1049
" />
<path d="M50.8055 57.1049
L50.5636 57.1049
" />
<path d="M50.5636 57.1049
L50.4426 57.0445
" />
<path d="M50.4426 57.0445
L50.3821 56.9840
" />
<path d="M50.3821 56.9840
L50.3217 56.8630
" />
<path d="M50.3217 56.8630
L50.3217 56.5002
" />
<path d="M50.3217 56.5002
L50.3821 56.3792
" />
<path d="M50.3821 56.3792
L50.4426 56.3187
" />
<path d="M50.4426 56.3187
L50.5636 56.2583
" />
<path d="M50.5636 56.2583
L50.8055 56.2583
" />
<path d="M50.8055 56.2583
L50.9264 56.3187
" />
</g></g>
<g style="fill:#840084; fill-opacity:0.0; 
stroke:#840084; stroke-width:0.1588; stroke-opacity:1; 
stroke-linecap:round; stroke-linejoin:round;">
<text x="9.7437" y="32.0064"
textLength="1.0501" font-size="1.6933" lengthAdjust="spacingAndGlyphs"
text-anchor="middle" opacity="0">~</text>
<g class="stroked-text"><desc>~</desc>
<path d="M9.4111 31.4751
L9.4716 31.4146
" />
<path d="M9.4716 31.4146
L9.5925 31.3542
" />
<path d="M9.5925 31.3542
L9.8344 31.4751
" />
<path d="M9.8344 31.4751
L9.9554 31.4146
" />
<path d="M9.9554 31.4146
L10.0159 31.3542
" />
</g></g> 
</svg>
