<?xml version="1.0" standalone="no"?>
 <!DOCTYPE svg PUBLIC "-//W3C//DTD SVG 1.1//EN" 
 "http://www.w3.org/Graphics/SVG/1.1/DTD/svg11.dtd"> 
<svg
  xmlns:svg="http://www.w3.org/2000/svg"
  xmlns="http://www.w3.org/2000/svg"
  xmlns:xlink="http://www.w3.org/1999/xlink"
  version="1.1"
  width="48.7680mm" height="67.0560mm" viewBox="0.0000 0.0000 48.7680 67.0560">
<title>SVG Image created as working.svg date 2023/07/31 14:06:51 </title>
  <desc>Image generated by Eeschema-SVG </desc>
<g style="fill:#000000; fill-opacity:1.0000;stroke:#000000; stroke-opacity:1.0000;
stroke-linecap:round; stroke-linejoin:round;"
 transform="translate(0 0) scale(1 1)">
</g>
<g style="fill:#840000; fill-opacity:0.0; 
stroke:#840000; stroke-width:0.0000; stroke-opacity:1; 
stroke-linecap:round; stroke-linejoin:round;">
</g>
<g style="fill:#FFFFC2; fill-opacity:0.0; 
stroke:#FFFFC2; stroke-width:0.0000; stroke-opacity:1; 
stroke-linecap:round; stroke-linejoin:round;">
</g>
<g style="fill:#FFFFC2; fill-opacity:1.0000; 
stroke:#FFFFC2; stroke-width:0.0000; stroke-opacity:1; 
stroke-linecap:round; stroke-linejoin:round;">
<rect x="11.684100" y="36.068100" width="25.400000" height="20.320000" rx="0.000000" />
<rect x="11.684100" y="25.908100" width="25.400000" height="10.160000" rx="0.000000" />
<path style="fill:#FFFFC2; fill-opacity:1.0000; 
stroke:#FFFFC2; stroke-width:0.0000; stroke-opacity:1; 
stroke-linecap:round; stroke-linejoin:round;fill-rule:evenodd;"
d="M 14.2241,25.9081
14.2241,23.3681
11.6841,23.3681
11.6841,10.6681
37.0841,10.6681
37.0841,23.3681
34.5441,23.3681
34.5441,25.9081
34.5441,25.9081
" /> 
</g>
<g style="fill:#840084; fill-opacity:1.0000; 
stroke:#840084; stroke-width:0.0000; stroke-opacity:1; 
stroke-linecap:round; stroke-linejoin:round;">
</g>
<g style="fill:#840000; fill-opacity:1.0000; 
stroke:#840000; stroke-width:0.0000; stroke-opacity:1; 
stroke-linecap:round; stroke-linejoin:round;">
</g>
<g style="fill:#840000; fill-opacity:0.0; 
stroke:#840000; stroke-width:0.2540; stroke-opacity:1; 
stroke-linecap:round; stroke-linejoin:round;">
<rect x="11.684100" y="36.068100" width="25.400000" height="20.320000" rx="0.000000" />
<rect x="11.684100" y="25.908100" width="25.400000" height="10.160000" rx="0.000000" />
<path style="fill:#840000; fill-opacity:0.0; 
stroke:#840000; stroke-width:0.2540; stroke-opacity:1; 
stroke-linecap:round; stroke-linejoin:round;fill:none"
d="M 14.2241,25.9081
14.2241,23.3681
11.6841,23.3681
11.6841,10.6681
37.0841,10.6681
37.0841,23.3681
34.5441,23.3681
34.5441,25.9081
34.5441,25.9081
" /> 
</g>
<g style="fill:#840000; fill-opacity:0.0; 
stroke:#840000; stroke-width:0.1270; stroke-opacity:1; 
stroke-linecap:round; stroke-linejoin:round;">
<text x="24.3841" y="31.4961"
textLength="3.4527" font-size="1.3546" lengthAdjust="spacingAndGlyphs"
text-anchor="middle" opacity="0">DIV2</text>
<g class="stroked-text"><desc>DIV2</desc>
<path d="M22.9569 31.4581
L22.9569 30.4421
" />
<path d="M22.9569 30.4421
L23.1988 30.4421
" />
<path d="M23.1988 30.4421
L23.3439 30.4905
" />
<path d="M23.3439 30.4905
L23.4407 30.5873
" />
<path d="M23.4407 30.5873
L23.4890 30.6840
" />
<path d="M23.4890 30.6840
L23.5374 30.8776
" />
<path d="M23.5374 30.8776
L23.5374 31.0227
" />
<path d="M23.5374 31.0227
L23.4890 31.2162
" />
<path d="M23.4890 31.2162
L23.4407 31.3130
" />
<path d="M23.4407 31.3130
L23.3439 31.4098
" />
<path d="M23.3439 31.4098
L23.1988 31.4581
" />
<path d="M23.1988 31.4581
L22.9569 31.4581
" />
<path d="M23.9729 31.4581
L23.9729 30.4421
" />
<path d="M24.3115 30.4421
L24.6502 31.4581
" />
<path d="M24.6502 31.4581
L24.9888 30.4421
" />
<path d="M25.2792 30.5389
L25.3276 30.4905
" />
<path d="M25.3276 30.4905
L25.4243 30.4421
" />
<path d="M25.4243 30.4421
L25.6662 30.4421
" />
<path d="M25.6662 30.4421
L25.7630 30.4905
" />
<path d="M25.7630 30.4905
L25.8114 30.5389
" />
<path d="M25.8114 30.5389
L25.8597 30.6357
" />
<path d="M25.8597 30.6357
L25.8597 30.7324
" />
<path d="M25.8597 30.7324
L25.8114 30.8776
" />
<path d="M25.8114 30.8776
L25.2308 31.4581
" />
<path d="M25.2308 31.4581
L25.8597 31.4581
" />
</g><text x="24.3841" y="46.7361"
textLength="3.4527" font-size="1.3546" lengthAdjust="spacingAndGlyphs"
text-anchor="middle" opacity="0">DIV8</text>
<g class="stroked-text"><desc>DIV8</desc>
<path d="M22.9569 46.6981
L22.9569 45.6821
" />
<path d="M22.9569 45.6821
L23.1988 45.6821
" />
<path d="M23.1988 45.6821
L23.3439 45.7305
" />
<path d="M23.3439 45.7305
L23.4407 45.8273
" />
<path d="M23.4407 45.8273
L23.4890 45.9240
" />
<path d="M23.4890 45.9240
L23.5374 46.1176
" />
<path d="M23.5374 46.1176
L23.5374 46.2627
" />
<path d="M23.5374 46.2627
L23.4890 46.4562
" />
<path d="M23.4890 46.4562
L23.4407 46.5530
" />
<path d="M23.4407 46.5530
L23.3439 46.6498
" />
<path d="M23.3439 46.6498
L23.1988 46.6981
" />
<path d="M23.1988 46.6981
L22.9569 46.6981
" />
<path d="M23.9729 46.6981
L23.9729 45.6821
" />
<path d="M24.3115 45.6821
L24.6502 46.6981
" />
<path d="M24.6502 46.6981
L24.9888 45.6821
" />
<path d="M25.4727 46.1176
L25.3759 46.0692
" />
<path d="M25.3759 46.0692
L25.3276 46.0208
" />
<path d="M25.3276 46.0208
L25.2792 45.9240
" />
<path d="M25.2792 45.9240
L25.2792 45.8757
" />
<path d="M25.2792 45.8757
L25.3276 45.7789
" />
<path d="M25.3276 45.7789
L25.3759 45.7305
" />
<path d="M25.3759 45.7305
L25.4727 45.6821
" />
<path d="M25.4727 45.6821
L25.6662 45.6821
" />
<path d="M25.6662 45.6821
L25.7630 45.7305
" />
<path d="M25.7630 45.7305
L25.8114 45.7789
" />
<path d="M25.8114 45.7789
L25.8597 45.8757
" />
<path d="M25.8597 45.8757
L25.8597 45.9240
" />
<path d="M25.8597 45.9240
L25.8114 46.0208
" />
<path d="M25.8114 46.0208
L25.7630 46.0692
" />
<path d="M25.7630 46.0692
L25.6662 46.1176
" />
<path d="M25.6662 46.1176
L25.4727 46.1176
" />
<path d="M25.4727 46.1176
L25.3759 46.1659
" />
<path d="M25.3759 46.1659
L25.3276 46.2143
" />
<path d="M25.3276 46.2143
L25.2792 46.3111
" />
<path d="M25.2792 46.3111
L25.2792 46.5046
" />
<path d="M25.2792 46.5046
L25.3276 46.6014
" />
<path d="M25.3276 46.6014
L25.3759 46.6498
" />
<path d="M25.3759 46.6498
L25.4727 46.6981
" />
<path d="M25.4727 46.6981
L25.6662 46.6981
" />
<path d="M25.6662 46.6981
L25.7630 46.6498
" />
<path d="M25.7630 46.6498
L25.8114 46.6014
" />
<path d="M25.8114 46.6014
L25.8597 46.5046
" />
<path d="M25.8597 46.5046
L25.8597 46.3111
" />
<path d="M25.8597 46.3111
L25.8114 46.2143
" />
<path d="M25.8114 46.2143
L25.7630 46.1659
" />
<path d="M25.7630 46.1659
L25.6662 46.1176
" />
</g></g>
<g style="fill:#840000; fill-opacity:0.0; 
stroke:#840000; stroke-width:0.1524; stroke-opacity:1; 
stroke-linecap:round; stroke-linejoin:round;">
<path d="M24.3841 10.6681
L24.3841 5.5881
" />
</g>
<g style="fill:#006464; fill-opacity:0.0; 
stroke:#006464; stroke-width:0.1524; stroke-opacity:1; 
stroke-linecap:round; stroke-linejoin:round;">
<g transform="rotate(-90.000000 24.3841 11.6841)">
<text x="24.3841" y="12.3191"
textLength="3.7556" font-size="1.6933" lengthAdjust="spacingAndGlyphs"
text-anchor="end" opacity="0">VCC</text>
</g>
<g class="stroked-text"><desc>VCC</desc>
<path d="M23.7016 15.1917
L24.9716 14.7684
" />
<path d="M24.9716 14.7684
L23.7016 14.3450
" />
<path d="M24.8507 13.1960
L24.9112 13.2564
" />
<path d="M24.9112 13.2564
L24.9716 13.4379
" />
<path d="M24.9716 13.4379
L24.9716 13.5588
" />
<path d="M24.9716 13.5588
L24.9112 13.7402
" />
<path d="M24.9112 13.7402
L24.7902 13.8612
" />
<path d="M24.7902 13.8612
L24.6692 13.9217
" />
<path d="M24.6692 13.9217
L24.4273 13.9821
" />
<path d="M24.4273 13.9821
L24.2459 13.9821
" />
<path d="M24.2459 13.9821
L24.0040 13.9217
" />
<path d="M24.0040 13.9217
L23.8831 13.8612
" />
<path d="M23.8831 13.8612
L23.7621 13.7402
" />
<path d="M23.7621 13.7402
L23.7016 13.5588
" />
<path d="M23.7016 13.5588
L23.7016 13.4379
" />
<path d="M23.7016 13.4379
L23.7621 13.2564
" />
<path d="M23.7621 13.2564
L23.8226 13.1960
" />
<path d="M24.8507 11.9260
L24.9112 11.9864
" />
<path d="M24.9112 11.9864
L24.9716 12.1679
" />
<path d="M24.9716 12.1679
L24.9716 12.2888
" />
<path d="M24.9716 12.2888
L24.9112 12.4702
" />
<path d="M24.9112 12.4702
L24.7902 12.5912
" />
<path d="M24.7902 12.5912
L24.6692 12.6517
" />
<path d="M24.6692 12.6517
L24.4273 12.7121
" />
<path d="M24.4273 12.7121
L24.2459 12.7121
" />
<path d="M24.2459 12.7121
L24.0040 12.6517
" />
<path d="M24.0040 12.6517
L23.8831 12.5912
" />
<path d="M23.8831 12.5912
L23.7621 12.4702
" />
<path d="M23.7621 12.4702
L23.7016 12.2888
" />
<path d="M23.7016 12.2888
L23.7016 12.1679
" />
<path d="M23.7016 12.1679
L23.7621 11.9864
" />
<path d="M23.7621 11.9864
L23.8226 11.9260
" />
</g></g>
<g style="fill:#A90000; fill-opacity:0.0; 
stroke:#A90000; stroke-width:0.1524; stroke-opacity:1; 
stroke-linecap:round; stroke-linejoin:round;">
<g transform="rotate(-90.000000 24.1301 8.1281)">
<text x="24.1301" y="8.1281"
textLength="2.5460" font-size="1.6933" lengthAdjust="spacingAndGlyphs"
text-anchor="middle" opacity="0">14</text>
</g>
<g class="stroked-text"><desc>14</desc>
<path d="M23.9746 8.3699
L23.9746 9.0956
" />
<path d="M23.9746 8.7328
L22.7046 8.7328
" />
<path d="M22.7046 8.7328
L22.8861 8.8537
" />
<path d="M22.8861 8.8537
L23.0070 8.9747
" />
<path d="M23.0070 8.9747
L23.0675 9.0956
" />
<path d="M23.1280 7.2814
L23.9746 7.2814
" />
<path d="M22.6442 7.5838
L23.5513 7.8861
" />
<path d="M23.5513 7.8861
L23.5513 7.1000
" />
</g></g>
<g style="fill:#840000; fill-opacity:0.0; 
stroke:#840000; stroke-width:0.1524; stroke-opacity:1; 
stroke-linecap:round; stroke-linejoin:round;">
<path d="M24.3841 56.3881
L24.3841 61.4681
" />
</g>
<g style="fill:#006464; fill-opacity:0.0; 
stroke:#006464; stroke-width:0.1524; stroke-opacity:1; 
stroke-linecap:round; stroke-linejoin:round;">
<g transform="rotate(-90.000000 24.3841 55.3721)">
<text x="24.3841" y="56.0071"
textLength="3.9975" font-size="1.6933" lengthAdjust="spacingAndGlyphs"
text-anchor="start" opacity="0">GND</text>
</g>
<g class="stroked-text"><desc>GND</desc>
<path d="M23.7621 54.4044
L23.7016 54.5254
" />
<path d="M23.7016 54.5254
L23.7016 54.7068
" />
<path d="M23.7016 54.7068
L23.7621 54.8882
" />
<path d="M23.7621 54.8882
L23.8831 55.0092
" />
<path d="M23.8831 55.0092
L24.0040 55.0697
" />
<path d="M24.0040 55.0697
L24.2459 55.1301
" />
<path d="M24.2459 55.1301
L24.4273 55.1301
" />
<path d="M24.4273 55.1301
L24.6692 55.0697
" />
<path d="M24.6692 55.0697
L24.7902 55.0092
" />
<path d="M24.7902 55.0092
L24.9112 54.8882
" />
<path d="M24.9112 54.8882
L24.9716 54.7068
" />
<path d="M24.9716 54.7068
L24.9716 54.5859
" />
<path d="M24.9716 54.5859
L24.9112 54.4044
" />
<path d="M24.9112 54.4044
L24.8507 54.3440
" />
<path d="M24.8507 54.3440
L24.4273 54.3440
" />
<path d="M24.4273 54.3440
L24.4273 54.5859
" />
<path d="M24.9716 53.7997
L23.7016 53.7997
" />
<path d="M23.7016 53.7997
L24.9716 53.0740
" />
<path d="M24.9716 53.0740
L23.7016 53.0740
" />
<path d="M24.9716 52.4692
L23.7016 52.4692
" />
<path d="M23.7016 52.4692
L23.7016 52.1668
" />
<path d="M23.7016 52.1668
L23.7621 51.9854
" />
<path d="M23.7621 51.9854
L23.8831 51.8644
" />
<path d="M23.8831 51.8644
L24.0040 51.8039
" />
<path d="M24.0040 51.8039
L24.2459 51.7435
" />
<path d="M24.2459 51.7435
L24.4273 51.7435
" />
<path d="M24.4273 51.7435
L24.6692 51.8039
" />
<path d="M24.6692 51.8039
L24.7902 51.8644
" />
<path d="M24.7902 51.8644
L24.9112 51.9854
" />
<path d="M24.9112 51.9854
L24.9716 52.1668
" />
<path d="M24.9716 52.1668
L24.9716 52.4692
" />
</g></g>
<g style="fill:#A90000; fill-opacity:0.0; 
stroke:#A90000; stroke-width:0.1524; stroke-opacity:1; 
stroke-linecap:round; stroke-linejoin:round;">
<g transform="rotate(-90.000000 24.1301 58.9281)">
<text x="24.1301" y="58.9281"
textLength="1.3365" font-size="1.6933" lengthAdjust="spacingAndGlyphs"
text-anchor="middle" opacity="0">7</text>
</g>
<g class="stroked-text"><desc>7</desc>
<path d="M22.7046 59.3513
L22.7046 58.5047
" />
<path d="M22.7046 58.5047
L23.9746 59.0489
" />
</g></g>
<g style="fill:#840000; fill-opacity:0.0; 
stroke:#840000; stroke-width:0.1524; stroke-opacity:1; 
stroke-linecap:round; stroke-linejoin:round;">
<path d="M11.6841 20.8281
L4.0641 20.8281
" />
</g>
<g style="fill:#006464; fill-opacity:0.0; 
stroke:#006464; stroke-width:0.1524; stroke-opacity:1; 
stroke-linecap:round; stroke-linejoin:round;">
<text x="12.7001" y="21.4631"
textLength="2.3041" font-size="1.6933" lengthAdjust="spacingAndGlyphs"
text-anchor="start" opacity="0">~{Ld}</text>
<g class="stroked-text"><desc>~{Ld}</desc>
<path d="M13.6072 21.4156
L13.0024 21.4156
" />
<path d="M13.0024 21.4156
L13.0024 20.1456
" />
<path d="M14.5748 21.4156
L14.5748 20.1456
" />
<path d="M14.5748 21.3552
L14.4539 21.4156
" />
<path d="M14.4539 21.4156
L14.2120 21.4156
" />
<path d="M14.2120 21.4156
L14.0910 21.3552
" />
<path d="M14.0910 21.3552
L14.0305 21.2947
" />
<path d="M14.0305 21.2947
L13.9701 21.1737
" />
<path d="M13.9701 21.1737
L13.9701 20.8109
" />
<path d="M13.9701 20.8109
L14.0305 20.6899
" />
<path d="M14.0305 20.6899
L14.0910 20.6294
" />
<path d="M14.0910 20.6294
L14.2120 20.5690
" />
<path d="M14.2120 20.5690
L14.4539 20.5690
" />
<path d="M14.4539 20.5690
L14.5748 20.6294
" />
<path d="M12.8271 19.5772
L14.7502 19.5772
" />
</g></g>
<g style="fill:#A90000; fill-opacity:0.0; 
stroke:#A90000; stroke-width:0.1524; stroke-opacity:1; 
stroke-linecap:round; stroke-linejoin:round;">
<text x="7.8741" y="20.5741"
textLength="1.3365" font-size="1.6933" lengthAdjust="spacingAndGlyphs"
text-anchor="middle" opacity="0">1</text>
<g class="stroked-text"><desc>1</desc>
<path d="M8.2370 20.4186
L7.5113 20.4186
" />
<path d="M7.8741 20.4186
L7.8741 19.1486
" />
<path d="M7.8741 19.1486
L7.7532 19.3301
" />
<path d="M7.7532 19.3301
L7.6322 19.4510
" />
<path d="M7.6322 19.4510
L7.5113 19.5115
" />
</g></g>
<g style="fill:#840000; fill-opacity:0.0; 
stroke:#840000; stroke-width:0.1524; stroke-opacity:1; 
stroke-linecap:round; stroke-linejoin:round;">
<path d="M11.6841 43.6881
L4.0641 43.6881
" />
</g>
<g style="fill:#006464; fill-opacity:0.0; 
stroke:#006464; stroke-width:0.1524; stroke-opacity:1; 
stroke-linecap:round; stroke-linejoin:round;">
<text x="12.7001" y="44.3231"
textLength="2.6065" font-size="1.6933" lengthAdjust="spacingAndGlyphs"
text-anchor="start" opacity="0">P1</text>
<g class="stroked-text"><desc>P1</desc>
<path d="M13.0024 44.2756
L13.0024 43.0056
" />
<path d="M13.0024 43.0056
L13.4862 43.0056
" />
<path d="M13.4862 43.0056
L13.6072 43.0661
" />
<path d="M13.6072 43.0661
L13.6677 43.1266
" />
<path d="M13.6677 43.1266
L13.7281 43.2475
" />
<path d="M13.7281 43.2475
L13.7281 43.4290
" />
<path d="M13.7281 43.4290
L13.6677 43.5499
" />
<path d="M13.6677 43.5499
L13.6072 43.6104
" />
<path d="M13.6072 43.6104
L13.4862 43.6709
" />
<path d="M13.4862 43.6709
L13.0024 43.6709
" />
<path d="M14.9377 44.2756
L14.2120 44.2756
" />
<path d="M14.5748 44.2756
L14.5748 43.0056
" />
<path d="M14.5748 43.0056
L14.4539 43.1871
" />
<path d="M14.4539 43.1871
L14.3329 43.3080
" />
<path d="M14.3329 43.3080
L14.2120 43.3685
" />
</g></g>
<g style="fill:#A90000; fill-opacity:0.0; 
stroke:#A90000; stroke-width:0.1524; stroke-opacity:1; 
stroke-linecap:round; stroke-linejoin:round;">
<text x="7.8741" y="43.4341"
textLength="2.5460" font-size="1.6933" lengthAdjust="spacingAndGlyphs"
text-anchor="middle" opacity="0">10</text>
<g class="stroked-text"><desc>10</desc>
<path d="M7.6322 43.2786
L6.9065 43.2786
" />
<path d="M7.2693 43.2786
L7.2693 42.0086
" />
<path d="M7.2693 42.0086
L7.1484 42.1901
" />
<path d="M7.1484 42.1901
L7.0274 42.3110
" />
<path d="M7.0274 42.3110
L6.9065 42.3715
" />
<path d="M8.4183 42.0086
L8.5393 42.0086
" />
<path d="M8.5393 42.0086
L8.6602 42.0691
" />
<path d="M8.6602 42.0691
L8.7207 42.1296
" />
<path d="M8.7207 42.1296
L8.7812 42.2505
" />
<path d="M8.7812 42.2505
L8.8417 42.4924
" />
<path d="M8.8417 42.4924
L8.8417 42.7948
" />
<path d="M8.8417 42.7948
L8.7812 43.0367
" />
<path d="M8.7812 43.0367
L8.7207 43.1577
" />
<path d="M8.7207 43.1577
L8.6602 43.2182
" />
<path d="M8.6602 43.2182
L8.5393 43.2786
" />
<path d="M8.5393 43.2786
L8.4183 43.2786
" />
<path d="M8.4183 43.2786
L8.2974 43.2182
" />
<path d="M8.2974 43.2182
L8.2369 43.1577
" />
<path d="M8.2369 43.1577
L8.1764 43.0367
" />
<path d="M8.1764 43.0367
L8.1160 42.7948
" />
<path d="M8.1160 42.7948
L8.1160 42.4924
" />
<path d="M8.1160 42.4924
L8.1764 42.2505
" />
<path d="M8.1764 42.2505
L8.2369 42.1296
" />
<path d="M8.2369 42.1296
L8.2974 42.0691
" />
<path d="M8.2974 42.0691
L8.4183 42.0086
" />
</g></g>
<g style="fill:#840000; fill-opacity:0.0; 
stroke:#840000; stroke-width:0.1524; stroke-opacity:1; 
stroke-linecap:round; stroke-linejoin:round;">
<path d="M11.6841 53.8481
L4.0641 53.8481
" />
</g>
<g style="fill:#006464; fill-opacity:0.0; 
stroke:#006464; stroke-width:0.1524; stroke-opacity:1; 
stroke-linecap:round; stroke-linejoin:round;">
<text x="12.7001" y="54.4831"
textLength="2.6065" font-size="1.6933" lengthAdjust="spacingAndGlyphs"
text-anchor="start" opacity="0">P3</text>
<g class="stroked-text"><desc>P3</desc>
<path d="M13.0024 54.4356
L13.0024 53.1656
" />
<path d="M13.0024 53.1656
L13.4862 53.1656
" />
<path d="M13.4862 53.1656
L13.6072 53.2261
" />
<path d="M13.6072 53.2261
L13.6677 53.2866
" />
<path d="M13.6677 53.2866
L13.7281 53.4075
" />
<path d="M13.7281 53.4075
L13.7281 53.5890
" />
<path d="M13.7281 53.5890
L13.6677 53.7099
" />
<path d="M13.6677 53.7099
L13.6072 53.7704
" />
<path d="M13.6072 53.7704
L13.4862 53.8309
" />
<path d="M13.4862 53.8309
L13.0024 53.8309
" />
<path d="M14.1515 53.1656
L14.9377 53.1656
" />
<path d="M14.9377 53.1656
L14.5143 53.6494
" />
<path d="M14.5143 53.6494
L14.6958 53.6494
" />
<path d="M14.6958 53.6494
L14.8167 53.7099
" />
<path d="M14.8167 53.7099
L14.8772 53.7704
" />
<path d="M14.8772 53.7704
L14.9377 53.8913
" />
<path d="M14.9377 53.8913
L14.9377 54.1937
" />
<path d="M14.9377 54.1937
L14.8772 54.3147
" />
<path d="M14.8772 54.3147
L14.8167 54.3752
" />
<path d="M14.8167 54.3752
L14.6958 54.4356
" />
<path d="M14.6958 54.4356
L14.3329 54.4356
" />
<path d="M14.3329 54.4356
L14.2120 54.3752
" />
<path d="M14.2120 54.3752
L14.1515 54.3147
" />
</g></g>
<g style="fill:#A90000; fill-opacity:0.0; 
stroke:#A90000; stroke-width:0.1524; stroke-opacity:1; 
stroke-linecap:round; stroke-linejoin:round;">
<text x="7.8741" y="53.5941"
textLength="2.5460" font-size="1.6933" lengthAdjust="spacingAndGlyphs"
text-anchor="middle" opacity="0">11</text>
<g class="stroked-text"><desc>11</desc>
<path d="M7.6322 53.4386
L6.9065 53.4386
" />
<path d="M7.2693 53.4386
L7.2693 52.1686
" />
<path d="M7.2693 52.1686
L7.1484 52.3501
" />
<path d="M7.1484 52.3501
L7.0274 52.4710
" />
<path d="M7.0274 52.4710
L6.9065 52.5315
" />
<path d="M8.8417 53.4386
L8.1160 53.4386
" />
<path d="M8.4788 53.4386
L8.4788 52.1686
" />
<path d="M8.4788 52.1686
L8.3579 52.3501
" />
<path d="M8.3579 52.3501
L8.2369 52.4710
" />
<path d="M8.2369 52.4710
L8.1160 52.5315
" />
</g></g>
<g style="fill:#840000; fill-opacity:0.0; 
stroke:#840000; stroke-width:0.1524; stroke-opacity:1; 
stroke-linecap:round; stroke-linejoin:round;">
<path d="M37.0841 51.3081
L44.7041 51.3081
" />
</g>
<g style="fill:#006464; fill-opacity:0.0; 
stroke:#006464; stroke-width:0.1524; stroke-opacity:1; 
stroke-linecap:round; stroke-linejoin:round;">
<text x="36.0681" y="51.9431"
textLength="2.6670" font-size="1.6933" lengthAdjust="spacingAndGlyphs"
text-anchor="end" opacity="0">Q3</text>
<g class="stroked-text"><desc>Q3</desc>
<path d="M34.6771 52.0166
L34.5561 51.9561
" />
<path d="M34.5561 51.9561
L34.4352 51.8352
" />
<path d="M34.4352 51.8352
L34.2538 51.6537
" />
<path d="M34.2538 51.6537
L34.1328 51.5932
" />
<path d="M34.1328 51.5932
L34.0119 51.5932
" />
<path d="M34.0723 51.8956
L33.9514 51.8352
" />
<path d="M33.9514 51.8352
L33.8304 51.7142
" />
<path d="M33.8304 51.7142
L33.7700 51.4723
" />
<path d="M33.7700 51.4723
L33.7700 51.0490
" />
<path d="M33.7700 51.0490
L33.8304 50.8071
" />
<path d="M33.8304 50.8071
L33.9514 50.6861
" />
<path d="M33.9514 50.6861
L34.0723 50.6256
" />
<path d="M34.0723 50.6256
L34.3142 50.6256
" />
<path d="M34.3142 50.6256
L34.4352 50.6861
" />
<path d="M34.4352 50.6861
L34.5561 50.8071
" />
<path d="M34.5561 50.8071
L34.6166 51.0490
" />
<path d="M34.6166 51.0490
L34.6166 51.4723
" />
<path d="M34.6166 51.4723
L34.5561 51.7142
" />
<path d="M34.5561 51.7142
L34.4352 51.8352
" />
<path d="M34.4352 51.8352
L34.3142 51.8956
" />
<path d="M34.3142 51.8956
L34.0723 51.8956
" />
<path d="M35.0400 50.6256
L35.8262 50.6256
" />
<path d="M35.8262 50.6256
L35.4028 51.1094
" />
<path d="M35.4028 51.1094
L35.5843 51.1094
" />
<path d="M35.5843 51.1094
L35.7052 51.1699
" />
<path d="M35.7052 51.1699
L35.7657 51.2304
" />
<path d="M35.7657 51.2304
L35.8262 51.3513
" />
<path d="M35.8262 51.3513
L35.8262 51.6537
" />
<path d="M35.8262 51.6537
L35.7657 51.7747
" />
<path d="M35.7657 51.7747
L35.7052 51.8352
" />
<path d="M35.7052 51.8352
L35.5843 51.8956
" />
<path d="M35.5843 51.8956
L35.2214 51.8956
" />
<path d="M35.2214 51.8956
L35.1005 51.8352
" />
<path d="M35.1005 51.8352
L35.0400 51.7747
" />
</g></g>
<g style="fill:#A90000; fill-opacity:0.0; 
stroke:#A90000; stroke-width:0.1524; stroke-opacity:1; 
stroke-linecap:round; stroke-linejoin:round;">
<text x="40.8941" y="51.0541"
textLength="2.5460" font-size="1.6933" lengthAdjust="spacingAndGlyphs"
text-anchor="middle" opacity="0">12</text>
<g class="stroked-text"><desc>12</desc>
<path d="M40.6522 50.8986
L39.9265 50.8986
" />
<path d="M40.2893 50.8986
L40.2893 49.6286
" />
<path d="M40.2893 49.6286
L40.1684 49.8101
" />
<path d="M40.1684 49.8101
L40.0474 49.9310
" />
<path d="M40.0474 49.9310
L39.9265 49.9915
" />
<path d="M41.1360 49.7496
L41.1964 49.6891
" />
<path d="M41.1964 49.6891
L41.3174 49.6286
" />
<path d="M41.3174 49.6286
L41.6198 49.6286
" />
<path d="M41.6198 49.6286
L41.7407 49.6891
" />
<path d="M41.7407 49.6891
L41.8012 49.7496
" />
<path d="M41.8012 49.7496
L41.8617 49.8705
" />
<path d="M41.8617 49.8705
L41.8617 49.9915
" />
<path d="M41.8617 49.9915
L41.8012 50.1729
" />
<path d="M41.8012 50.1729
L41.0755 50.8986
" />
<path d="M41.0755 50.8986
L41.8617 50.8986
" />
</g></g>
<g style="fill:#840000; fill-opacity:0.0; 
stroke:#840000; stroke-width:0.1524; stroke-opacity:1; 
stroke-linecap:round; stroke-linejoin:round;">
<path d="M11.6841 15.7481
L4.0641 15.7481
" />
</g>
<g style="fill:#006464; fill-opacity:0.0; 
stroke:#006464; stroke-width:0.1524; stroke-opacity:1; 
stroke-linecap:round; stroke-linejoin:round;">
<text x="12.7001" y="16.3831"
textLength="3.6951" font-size="1.6933" lengthAdjust="spacingAndGlyphs"
text-anchor="start" opacity="0">~{CLR}</text>
<g class="stroked-text"><desc>~{CLR}</desc>
<path d="M13.7281 16.2147
L13.6677 16.2752
" />
<path d="M13.6677 16.2752
L13.4862 16.3356
" />
<path d="M13.4862 16.3356
L13.3653 16.3356
" />
<path d="M13.3653 16.3356
L13.1839 16.2752
" />
<path d="M13.1839 16.2752
L13.0629 16.1542
" />
<path d="M13.0629 16.1542
L13.0024 16.0332
" />
<path d="M13.0024 16.0332
L12.9420 15.7913
" />
<path d="M12.9420 15.7913
L12.9420 15.6099
" />
<path d="M12.9420 15.6099
L13.0024 15.3680
" />
<path d="M13.0024 15.3680
L13.0629 15.2471
" />
<path d="M13.0629 15.2471
L13.1839 15.1261
" />
<path d="M13.1839 15.1261
L13.3653 15.0656
" />
<path d="M13.3653 15.0656
L13.4862 15.0656
" />
<path d="M13.4862 15.0656
L13.6677 15.1261
" />
<path d="M13.6677 15.1261
L13.7281 15.1866
" />
<path d="M14.8772 16.3356
L14.2724 16.3356
" />
<path d="M14.2724 16.3356
L14.2724 15.0656
" />
<path d="M16.0262 16.3356
L15.6029 15.7309
" />
<path d="M15.3005 16.3356
L15.3005 15.0656
" />
<path d="M15.3005 15.0656
L15.7843 15.0656
" />
<path d="M15.7843 15.0656
L15.9053 15.1261
" />
<path d="M15.9053 15.1261
L15.9658 15.1866
" />
<path d="M15.9658 15.1866
L16.0262 15.3075
" />
<path d="M16.0262 15.3075
L16.0262 15.4890
" />
<path d="M16.0262 15.4890
L15.9658 15.6099
" />
<path d="M15.9658 15.6099
L15.9053 15.6704
" />
<path d="M15.9053 15.6704
L15.7843 15.7309
" />
<path d="M15.7843 15.7309
L15.3005 15.7309
" />
<path d="M12.8271 14.4972
L16.1412 14.4972
" />
</g></g>
<g style="fill:#A90000; fill-opacity:0.0; 
stroke:#A90000; stroke-width:0.1524; stroke-opacity:1; 
stroke-linecap:round; stroke-linejoin:round;">
<text x="7.8741" y="15.4941"
textLength="2.5460" font-size="1.6933" lengthAdjust="spacingAndGlyphs"
text-anchor="middle" opacity="0">13</text>
<g class="stroked-text"><desc>13</desc>
<path d="M7.6322 15.3386
L6.9065 15.3386
" />
<path d="M7.2693 15.3386
L7.2693 14.0686
" />
<path d="M7.2693 14.0686
L7.1484 14.2501
" />
<path d="M7.1484 14.2501
L7.0274 14.3710
" />
<path d="M7.0274 14.3710
L6.9065 14.4315
" />
<path d="M8.0555 14.0686
L8.8417 14.0686
" />
<path d="M8.8417 14.0686
L8.4183 14.5524
" />
<path d="M8.4183 14.5524
L8.5998 14.5524
" />
<path d="M8.5998 14.5524
L8.7207 14.6129
" />
<path d="M8.7207 14.6129
L8.7812 14.6734
" />
<path d="M8.7812 14.6734
L8.8417 14.7943
" />
<path d="M8.8417 14.7943
L8.8417 15.0967
" />
<path d="M8.8417 15.0967
L8.7812 15.2177
" />
<path d="M8.7812 15.2177
L8.7207 15.2782
" />
<path d="M8.7207 15.2782
L8.5998 15.3386
" />
<path d="M8.5998 15.3386
L8.2369 15.3386
" />
<path d="M8.2369 15.3386
L8.1160 15.2782
" />
<path d="M8.1160 15.2782
L8.0555 15.2177
" />
</g></g>
<g style="fill:#840000; fill-opacity:0.0; 
stroke:#840000; stroke-width:0.1524; stroke-opacity:1; 
stroke-linecap:round; stroke-linejoin:round;">
<path d="M37.0841 46.2281
L44.7041 46.2281
" />
</g>
<g style="fill:#006464; fill-opacity:0.0; 
stroke:#006464; stroke-width:0.1524; stroke-opacity:1; 
stroke-linecap:round; stroke-linejoin:round;">
<text x="36.0681" y="46.8631"
textLength="2.6670" font-size="1.6933" lengthAdjust="spacingAndGlyphs"
text-anchor="end" opacity="0">Q2</text>
<g class="stroked-text"><desc>Q2</desc>
<path d="M34.6771 46.9366
L34.5561 46.8761
" />
<path d="M34.5561 46.8761
L34.4352 46.7552
" />
<path d="M34.4352 46.7552
L34.2538 46.5737
" />
<path d="M34.2538 46.5737
L34.1328 46.5132
" />
<path d="M34.1328 46.5132
L34.0119 46.5132
" />
<path d="M34.0723 46.8156
L33.9514 46.7552
" />
<path d="M33.9514 46.7552
L33.8304 46.6342
" />
<path d="M33.8304 46.6342
L33.7700 46.3923
" />
<path d="M33.7700 46.3923
L33.7700 45.9690
" />
<path d="M33.7700 45.9690
L33.8304 45.7271
" />
<path d="M33.8304 45.7271
L33.9514 45.6061
" />
<path d="M33.9514 45.6061
L34.0723 45.5456
" />
<path d="M34.0723 45.5456
L34.3142 45.5456
" />
<path d="M34.3142 45.5456
L34.4352 45.6061
" />
<path d="M34.4352 45.6061
L34.5561 45.7271
" />
<path d="M34.5561 45.7271
L34.6166 45.9690
" />
<path d="M34.6166 45.9690
L34.6166 46.3923
" />
<path d="M34.6166 46.3923
L34.5561 46.6342
" />
<path d="M34.5561 46.6342
L34.4352 46.7552
" />
<path d="M34.4352 46.7552
L34.3142 46.8156
" />
<path d="M34.3142 46.8156
L34.0723 46.8156
" />
<path d="M35.1005 45.6666
L35.1609 45.6061
" />
<path d="M35.1609 45.6061
L35.2819 45.5456
" />
<path d="M35.2819 45.5456
L35.5843 45.5456
" />
<path d="M35.5843 45.5456
L35.7052 45.6061
" />
<path d="M35.7052 45.6061
L35.7657 45.6666
" />
<path d="M35.7657 45.6666
L35.8262 45.7875
" />
<path d="M35.8262 45.7875
L35.8262 45.9085
" />
<path d="M35.8262 45.9085
L35.7657 46.0899
" />
<path d="M35.7657 46.0899
L35.0400 46.8156
" />
<path d="M35.0400 46.8156
L35.8262 46.8156
" />
</g></g>
<g style="fill:#A90000; fill-opacity:0.0; 
stroke:#A90000; stroke-width:0.1524; stroke-opacity:1; 
stroke-linecap:round; stroke-linejoin:round;">
<text x="40.8941" y="45.9741"
textLength="1.3365" font-size="1.6933" lengthAdjust="spacingAndGlyphs"
text-anchor="middle" opacity="0">2</text>
<g class="stroked-text"><desc>2</desc>
<path d="M40.5313 44.6696
L40.5917 44.6091
" />
<path d="M40.5917 44.6091
L40.7127 44.5486
" />
<path d="M40.7127 44.5486
L41.0151 44.5486
" />
<path d="M41.0151 44.5486
L41.1360 44.6091
" />
<path d="M41.1360 44.6091
L41.1965 44.6696
" />
<path d="M41.1965 44.6696
L41.2570 44.7905
" />
<path d="M41.2570 44.7905
L41.2570 44.9115
" />
<path d="M41.2570 44.9115
L41.1965 45.0929
" />
<path d="M41.1965 45.0929
L40.4708 45.8186
" />
<path d="M40.4708 45.8186
L41.2570 45.8186
" />
</g></g>
<g style="fill:#840000; fill-opacity:0.0; 
stroke:#840000; stroke-width:0.1524; stroke-opacity:1; 
stroke-linecap:round; stroke-linejoin:round;">
<path d="M11.6841 48.7681
L4.0641 48.7681
" />
</g>
<g style="fill:#006464; fill-opacity:0.0; 
stroke:#006464; stroke-width:0.1524; stroke-opacity:1; 
stroke-linecap:round; stroke-linejoin:round;">
<text x="12.7001" y="49.4031"
textLength="2.6065" font-size="1.6933" lengthAdjust="spacingAndGlyphs"
text-anchor="start" opacity="0">P2</text>
<g class="stroked-text"><desc>P2</desc>
<path d="M13.0024 49.3556
L13.0024 48.0856
" />
<path d="M13.0024 48.0856
L13.4862 48.0856
" />
<path d="M13.4862 48.0856
L13.6072 48.1461
" />
<path d="M13.6072 48.1461
L13.6677 48.2066
" />
<path d="M13.6677 48.2066
L13.7281 48.3275
" />
<path d="M13.7281 48.3275
L13.7281 48.5090
" />
<path d="M13.7281 48.5090
L13.6677 48.6299
" />
<path d="M13.6677 48.6299
L13.6072 48.6904
" />
<path d="M13.6072 48.6904
L13.4862 48.7509
" />
<path d="M13.4862 48.7509
L13.0024 48.7509
" />
<path d="M14.2120 48.2066
L14.2724 48.1461
" />
<path d="M14.2724 48.1461
L14.3934 48.0856
" />
<path d="M14.3934 48.0856
L14.6958 48.0856
" />
<path d="M14.6958 48.0856
L14.8167 48.1461
" />
<path d="M14.8167 48.1461
L14.8772 48.2066
" />
<path d="M14.8772 48.2066
L14.9377 48.3275
" />
<path d="M14.9377 48.3275
L14.9377 48.4485
" />
<path d="M14.9377 48.4485
L14.8772 48.6299
" />
<path d="M14.8772 48.6299
L14.1515 49.3556
" />
<path d="M14.1515 49.3556
L14.9377 49.3556
" />
</g></g>
<g style="fill:#A90000; fill-opacity:0.0; 
stroke:#A90000; stroke-width:0.1524; stroke-opacity:1; 
stroke-linecap:round; stroke-linejoin:round;">
<text x="7.8741" y="48.5141"
textLength="1.3365" font-size="1.6933" lengthAdjust="spacingAndGlyphs"
text-anchor="middle" opacity="0">3</text>
<g class="stroked-text"><desc>3</desc>
<path d="M7.4508 47.0886
L8.2370 47.0886
" />
<path d="M8.2370 47.0886
L7.8136 47.5724
" />
<path d="M7.8136 47.5724
L7.9951 47.5724
" />
<path d="M7.9951 47.5724
L8.1160 47.6329
" />
<path d="M8.1160 47.6329
L8.1765 47.6934
" />
<path d="M8.1765 47.6934
L8.2370 47.8143
" />
<path d="M8.2370 47.8143
L8.2370 48.1167
" />
<path d="M8.2370 48.1167
L8.1765 48.2377
" />
<path d="M8.1765 48.2377
L8.1160 48.2982
" />
<path d="M8.1160 48.2982
L7.9951 48.3586
" />
<path d="M7.9951 48.3586
L7.6322 48.3586
" />
<path d="M7.6322 48.3586
L7.5113 48.2982
" />
<path d="M7.5113 48.2982
L7.4508 48.2377
" />
</g></g>
<g style="fill:#840000; fill-opacity:0.0; 
stroke:#840000; stroke-width:0.1524; stroke-opacity:1; 
stroke-linecap:round; stroke-linejoin:round;">
<path d="M11.6841 33.5281
L4.0641 33.5281
" />
</g>
<g style="fill:#006464; fill-opacity:0.0; 
stroke:#006464; stroke-width:0.1524; stroke-opacity:1; 
stroke-linecap:round; stroke-linejoin:round;">
<text x="12.7001" y="34.1631"
textLength="2.6065" font-size="1.6933" lengthAdjust="spacingAndGlyphs"
text-anchor="start" opacity="0">P0</text>
<g class="stroked-text"><desc>P0</desc>
<path d="M13.0024 34.1156
L13.0024 32.8456
" />
<path d="M13.0024 32.8456
L13.4862 32.8456
" />
<path d="M13.4862 32.8456
L13.6072 32.9061
" />
<path d="M13.6072 32.9061
L13.6677 32.9666
" />
<path d="M13.6677 32.9666
L13.7281 33.0875
" />
<path d="M13.7281 33.0875
L13.7281 33.2690
" />
<path d="M13.7281 33.2690
L13.6677 33.3899
" />
<path d="M13.6677 33.3899
L13.6072 33.4504
" />
<path d="M13.6072 33.4504
L13.4862 33.5109
" />
<path d="M13.4862 33.5109
L13.0024 33.5109
" />
<path d="M14.5143 32.8456
L14.6353 32.8456
" />
<path d="M14.6353 32.8456
L14.7562 32.9061
" />
<path d="M14.7562 32.9061
L14.8167 32.9666
" />
<path d="M14.8167 32.9666
L14.8772 33.0875
" />
<path d="M14.8772 33.0875
L14.9377 33.3294
" />
<path d="M14.9377 33.3294
L14.9377 33.6318
" />
<path d="M14.9377 33.6318
L14.8772 33.8737
" />
<path d="M14.8772 33.8737
L14.8167 33.9947
" />
<path d="M14.8167 33.9947
L14.7562 34.0552
" />
<path d="M14.7562 34.0552
L14.6353 34.1156
" />
<path d="M14.6353 34.1156
L14.5143 34.1156
" />
<path d="M14.5143 34.1156
L14.3934 34.0552
" />
<path d="M14.3934 34.0552
L14.3329 33.9947
" />
<path d="M14.3329 33.9947
L14.2724 33.8737
" />
<path d="M14.2724 33.8737
L14.2120 33.6318
" />
<path d="M14.2120 33.6318
L14.2120 33.3294
" />
<path d="M14.2120 33.3294
L14.2724 33.0875
" />
<path d="M14.2724 33.0875
L14.3329 32.9666
" />
<path d="M14.3329 32.9666
L14.3934 32.9061
" />
<path d="M14.3934 32.9061
L14.5143 32.8456
" />
</g></g>
<g style="fill:#A90000; fill-opacity:0.0; 
stroke:#A90000; stroke-width:0.1524; stroke-opacity:1; 
stroke-linecap:round; stroke-linejoin:round;">
<text x="7.8741" y="33.2741"
textLength="1.3365" font-size="1.6933" lengthAdjust="spacingAndGlyphs"
text-anchor="middle" opacity="0">4</text>
<g class="stroked-text"><desc>4</desc>
<path d="M8.1160 32.2720
L8.1160 33.1186
" />
<path d="M7.8136 31.7882
L7.5113 32.6953
" />
<path d="M7.5113 32.6953
L8.2974 32.6953
" />
</g></g>
<g style="fill:#840000; fill-opacity:0.0; 
stroke:#840000; stroke-width:0.1524; stroke-opacity:1; 
stroke-linecap:round; stroke-linejoin:round;">
<path d="M37.0841 30.9881
L44.7041 30.9881
" />
</g>
<g style="fill:#006464; fill-opacity:0.0; 
stroke:#006464; stroke-width:0.1524; stroke-opacity:1; 
stroke-linecap:round; stroke-linejoin:round;">
<text x="36.0681" y="31.6231"
textLength="2.6670" font-size="1.6933" lengthAdjust="spacingAndGlyphs"
text-anchor="end" opacity="0">Q0</text>
<g class="stroked-text"><desc>Q0</desc>
<path d="M34.6771 31.6966
L34.5561 31.6361
" />
<path d="M34.5561 31.6361
L34.4352 31.5152
" />
<path d="M34.4352 31.5152
L34.2538 31.3337
" />
<path d="M34.2538 31.3337
L34.1328 31.2732
" />
<path d="M34.1328 31.2732
L34.0119 31.2732
" />
<path d="M34.0723 31.5756
L33.9514 31.5152
" />
<path d="M33.9514 31.5152
L33.8304 31.3942
" />
<path d="M33.8304 31.3942
L33.7700 31.1523
" />
<path d="M33.7700 31.1523
L33.7700 30.7290
" />
<path d="M33.7700 30.7290
L33.8304 30.4871
" />
<path d="M33.8304 30.4871
L33.9514 30.3661
" />
<path d="M33.9514 30.3661
L34.0723 30.3056
" />
<path d="M34.0723 30.3056
L34.3142 30.3056
" />
<path d="M34.3142 30.3056
L34.4352 30.3661
" />
<path d="M34.4352 30.3661
L34.5561 30.4871
" />
<path d="M34.5561 30.4871
L34.6166 30.7290
" />
<path d="M34.6166 30.7290
L34.6166 31.1523
" />
<path d="M34.6166 31.1523
L34.5561 31.3942
" />
<path d="M34.5561 31.3942
L34.4352 31.5152
" />
<path d="M34.4352 31.5152
L34.3142 31.5756
" />
<path d="M34.3142 31.5756
L34.0723 31.5756
" />
<path d="M35.4028 30.3056
L35.5238 30.3056
" />
<path d="M35.5238 30.3056
L35.6447 30.3661
" />
<path d="M35.6447 30.3661
L35.7052 30.4266
" />
<path d="M35.7052 30.4266
L35.7657 30.5475
" />
<path d="M35.7657 30.5475
L35.8262 30.7894
" />
<path d="M35.8262 30.7894
L35.8262 31.0918
" />
<path d="M35.8262 31.0918
L35.7657 31.3337
" />
<path d="M35.7657 31.3337
L35.7052 31.4547
" />
<path d="M35.7052 31.4547
L35.6447 31.5152
" />
<path d="M35.6447 31.5152
L35.5238 31.5756
" />
<path d="M35.5238 31.5756
L35.4028 31.5756
" />
<path d="M35.4028 31.5756
L35.2819 31.5152
" />
<path d="M35.2819 31.5152
L35.2214 31.4547
" />
<path d="M35.2214 31.4547
L35.1609 31.3337
" />
<path d="M35.1609 31.3337
L35.1005 31.0918
" />
<path d="M35.1005 31.0918
L35.1005 30.7894
" />
<path d="M35.1005 30.7894
L35.1609 30.5475
" />
<path d="M35.1609 30.5475
L35.2214 30.4266
" />
<path d="M35.2214 30.4266
L35.2819 30.3661
" />
<path d="M35.2819 30.3661
L35.4028 30.3056
" />
</g></g>
<g style="fill:#A90000; fill-opacity:0.0; 
stroke:#A90000; stroke-width:0.1524; stroke-opacity:1; 
stroke-linecap:round; stroke-linejoin:round;">
<text x="40.8941" y="30.7341"
textLength="1.3365" font-size="1.6933" lengthAdjust="spacingAndGlyphs"
text-anchor="middle" opacity="0">5</text>
<g class="stroked-text"><desc>5</desc>
<path d="M41.1965 29.3086
L40.5917 29.3086
" />
<path d="M40.5917 29.3086
L40.5313 29.9134
" />
<path d="M40.5313 29.9134
L40.5917 29.8529
" />
<path d="M40.5917 29.8529
L40.7127 29.7924
" />
<path d="M40.7127 29.7924
L41.0151 29.7924
" />
<path d="M41.0151 29.7924
L41.1360 29.8529
" />
<path d="M41.1360 29.8529
L41.1965 29.9134
" />
<path d="M41.1965 29.9134
L41.2570 30.0343
" />
<path d="M41.2570 30.0343
L41.2570 30.3367
" />
<path d="M41.2570 30.3367
L41.1965 30.4577
" />
<path d="M41.1965 30.4577
L41.1360 30.5182
" />
<path d="M41.1360 30.5182
L41.0151 30.5786
" />
<path d="M41.0151 30.5786
L40.7127 30.5786
" />
<path d="M40.7127 30.5786
L40.5917 30.5182
" />
<path d="M40.5917 30.5182
L40.5313 30.4577
" />
</g></g>
<g style="fill:#840000; fill-opacity:0.0; 
stroke:#840000; stroke-width:0.1524; stroke-opacity:1; 
stroke-linecap:round; stroke-linejoin:round;">
<path d="M11.6841 38.6081
L4.0641 38.6081
" />
<path d="M11.6841 39.2431
L12.9541 38.6081
L11.6841 37.9731
" />
</g>
<g style="fill:#006464; fill-opacity:0.0; 
stroke:#006464; stroke-width:0.1524; stroke-opacity:1; 
stroke-linecap:round; stroke-linejoin:round;">
<text x="12.7001" y="39.2431"
textLength="3.8765" font-size="1.6933" lengthAdjust="spacingAndGlyphs"
text-anchor="start" opacity="0">~{CK2}</text>
<g class="stroked-text"><desc>~{CK2}</desc>
<path d="M13.7281 39.0747
L13.6677 39.1352
" />
<path d="M13.6677 39.1352
L13.4862 39.1956
" />
<path d="M13.4862 39.1956
L13.3653 39.1956
" />
<path d="M13.3653 39.1956
L13.1839 39.1352
" />
<path d="M13.1839 39.1352
L13.0629 39.0142
" />
<path d="M13.0629 39.0142
L13.0024 38.8932
" />
<path d="M13.0024 38.8932
L12.9420 38.6513
" />
<path d="M12.9420 38.6513
L12.9420 38.4699
" />
<path d="M12.9420 38.4699
L13.0024 38.2280
" />
<path d="M13.0024 38.2280
L13.0629 38.1071
" />
<path d="M13.0629 38.1071
L13.1839 37.9861
" />
<path d="M13.1839 37.9861
L13.3653 37.9256
" />
<path d="M13.3653 37.9256
L13.4862 37.9256
" />
<path d="M13.4862 37.9256
L13.6677 37.9861
" />
<path d="M13.6677 37.9861
L13.7281 38.0466
" />
<path d="M14.2724 39.1956
L14.2724 37.9256
" />
<path d="M14.9981 39.1956
L14.4539 38.4699
" />
<path d="M14.9981 37.9256
L14.2724 38.6513
" />
<path d="M15.4820 38.0466
L15.5424 37.9861
" />
<path d="M15.5424 37.9861
L15.6634 37.9256
" />
<path d="M15.6634 37.9256
L15.9658 37.9256
" />
<path d="M15.9658 37.9256
L16.0867 37.9861
" />
<path d="M16.0867 37.9861
L16.1472 38.0466
" />
<path d="M16.1472 38.0466
L16.2077 38.1675
" />
<path d="M16.2077 38.1675
L16.2077 38.2885
" />
<path d="M16.2077 38.2885
L16.1472 38.4699
" />
<path d="M16.1472 38.4699
L15.4215 39.1956
" />
<path d="M15.4215 39.1956
L16.2077 39.1956
" />
<path d="M12.8271 37.3572
L16.3226 37.3572
" />
</g></g>
<g style="fill:#A90000; fill-opacity:0.0; 
stroke:#A90000; stroke-width:0.1524; stroke-opacity:1; 
stroke-linecap:round; stroke-linejoin:round;">
<text x="7.8741" y="38.3541"
textLength="1.3365" font-size="1.6933" lengthAdjust="spacingAndGlyphs"
text-anchor="middle" opacity="0">6</text>
<g class="stroked-text"><desc>6</desc>
<path d="M8.1160 36.9286
L7.8741 36.9286
" />
<path d="M7.8741 36.9286
L7.7532 36.9891
" />
<path d="M7.7532 36.9891
L7.6927 37.0496
" />
<path d="M7.6927 37.0496
L7.5717 37.2310
" />
<path d="M7.5717 37.2310
L7.5113 37.4729
" />
<path d="M7.5113 37.4729
L7.5113 37.9567
" />
<path d="M7.5113 37.9567
L7.5717 38.0777
" />
<path d="M7.5717 38.0777
L7.6322 38.1382
" />
<path d="M7.6322 38.1382
L7.7532 38.1986
" />
<path d="M7.7532 38.1986
L7.9951 38.1986
" />
<path d="M7.9951 38.1986
L8.1160 38.1382
" />
<path d="M8.1160 38.1382
L8.1765 38.0777
" />
<path d="M8.1765 38.0777
L8.2370 37.9567
" />
<path d="M8.2370 37.9567
L8.2370 37.6543
" />
<path d="M8.2370 37.6543
L8.1765 37.5334
" />
<path d="M8.1765 37.5334
L8.1160 37.4729
" />
<path d="M8.1160 37.4729
L7.9951 37.4124
" />
<path d="M7.9951 37.4124
L7.7532 37.4124
" />
<path d="M7.7532 37.4124
L7.6322 37.4729
" />
<path d="M7.6322 37.4729
L7.5717 37.5334
" />
<path d="M7.5717 37.5334
L7.5113 37.6543
" />
</g></g>
<g style="fill:#840000; fill-opacity:0.0; 
stroke:#840000; stroke-width:0.1524; stroke-opacity:1; 
stroke-linecap:round; stroke-linejoin:round;">
<path d="M11.6841 28.4481
L4.0641 28.4481
" />
<path d="M11.6841 29.0831
L12.9541 28.4481
L11.6841 27.8131
" />
</g>
<g style="fill:#006464; fill-opacity:0.0; 
stroke:#006464; stroke-width:0.1524; stroke-opacity:1; 
stroke-linecap:round; stroke-linejoin:round;">
<text x="12.7001" y="29.0831"
textLength="3.8765" font-size="1.6933" lengthAdjust="spacingAndGlyphs"
text-anchor="start" opacity="0">~{CK1}</text>
<g class="stroked-text"><desc>~{CK1}</desc>
<path d="M13.7281 28.9147
L13.6677 28.9752
" />
<path d="M13.6677 28.9752
L13.4862 29.0356
" />
<path d="M13.4862 29.0356
L13.3653 29.0356
" />
<path d="M13.3653 29.0356
L13.1839 28.9752
" />
<path d="M13.1839 28.9752
L13.0629 28.8542
" />
<path d="M13.0629 28.8542
L13.0024 28.7332
" />
<path d="M13.0024 28.7332
L12.9420 28.4913
" />
<path d="M12.9420 28.4913
L12.9420 28.3099
" />
<path d="M12.9420 28.3099
L13.0024 28.0680
" />
<path d="M13.0024 28.0680
L13.0629 27.9471
" />
<path d="M13.0629 27.9471
L13.1839 27.8261
" />
<path d="M13.1839 27.8261
L13.3653 27.7656
" />
<path d="M13.3653 27.7656
L13.4862 27.7656
" />
<path d="M13.4862 27.7656
L13.6677 27.8261
" />
<path d="M13.6677 27.8261
L13.7281 27.8866
" />
<path d="M14.2724 29.0356
L14.2724 27.7656
" />
<path d="M14.9981 29.0356
L14.4539 28.3099
" />
<path d="M14.9981 27.7656
L14.2724 28.4913
" />
<path d="M16.2077 29.0356
L15.4820 29.0356
" />
<path d="M15.8448 29.0356
L15.8448 27.7656
" />
<path d="M15.8448 27.7656
L15.7239 27.9471
" />
<path d="M15.7239 27.9471
L15.6029 28.0680
" />
<path d="M15.6029 28.0680
L15.4820 28.1285
" />
<path d="M12.8271 27.1972
L16.3226 27.1972
" />
</g></g>
<g style="fill:#A90000; fill-opacity:0.0; 
stroke:#A90000; stroke-width:0.1524; stroke-opacity:1; 
stroke-linecap:round; stroke-linejoin:round;">
<text x="7.8741" y="28.1941"
textLength="1.3365" font-size="1.6933" lengthAdjust="spacingAndGlyphs"
text-anchor="middle" opacity="0">8</text>
<g class="stroked-text"><desc>8</desc>
<path d="M7.7532 27.3129
L7.6322 27.2524
" />
<path d="M7.6322 27.2524
L7.5717 27.1920
" />
<path d="M7.5717 27.1920
L7.5113 27.0710
" />
<path d="M7.5113 27.0710
L7.5113 27.0105
" />
<path d="M7.5113 27.0105
L7.5717 26.8896
" />
<path d="M7.5717 26.8896
L7.6322 26.8291
" />
<path d="M7.6322 26.8291
L7.7532 26.7686
" />
<path d="M7.7532 26.7686
L7.9951 26.7686
" />
<path d="M7.9951 26.7686
L8.1160 26.8291
" />
<path d="M8.1160 26.8291
L8.1765 26.8896
" />
<path d="M8.1765 26.8896
L8.2370 27.0105
" />
<path d="M8.2370 27.0105
L8.2370 27.0710
" />
<path d="M8.2370 27.0710
L8.1765 27.1920
" />
<path d="M8.1765 27.1920
L8.1160 27.2524
" />
<path d="M8.1160 27.2524
L7.9951 27.3129
" />
<path d="M7.9951 27.3129
L7.7532 27.3129
" />
<path d="M7.7532 27.3129
L7.6322 27.3734
" />
<path d="M7.6322 27.3734
L7.5717 27.4339
" />
<path d="M7.5717 27.4339
L7.5113 27.5548
" />
<path d="M7.5113 27.5548
L7.5113 27.7967
" />
<path d="M7.5113 27.7967
L7.5717 27.9177
" />
<path d="M7.5717 27.9177
L7.6322 27.9782
" />
<path d="M7.6322 27.9782
L7.7532 28.0386
" />
<path d="M7.7532 28.0386
L7.9951 28.0386
" />
<path d="M7.9951 28.0386
L8.1160 27.9782
" />
<path d="M8.1160 27.9782
L8.1765 27.9177
" />
<path d="M8.1765 27.9177
L8.2370 27.7967
" />
<path d="M8.2370 27.7967
L8.2370 27.5548
" />
<path d="M8.2370 27.5548
L8.1765 27.4339
" />
<path d="M8.1765 27.4339
L8.1160 27.3734
" />
<path d="M8.1160 27.3734
L7.9951 27.3129
" />
</g></g>
<g style="fill:#840000; fill-opacity:0.0; 
stroke:#840000; stroke-width:0.1524; stroke-opacity:1; 
stroke-linecap:round; stroke-linejoin:round;">
<path d="M37.0841 41.1481
L44.7041 41.1481
" />
</g>
<g style="fill:#006464; fill-opacity:0.0; 
stroke:#006464; stroke-width:0.1524; stroke-opacity:1; 
stroke-linecap:round; stroke-linejoin:round;">
<text x="36.0681" y="41.7831"
textLength="2.6670" font-size="1.6933" lengthAdjust="spacingAndGlyphs"
text-anchor="end" opacity="0">Q1</text>
<g class="stroked-text"><desc>Q1</desc>
<path d="M34.6771 41.8566
L34.5561 41.7961
" />
<path d="M34.5561 41.7961
L34.4352 41.6752
" />
<path d="M34.4352 41.6752
L34.2538 41.4937
" />
<path d="M34.2538 41.4937
L34.1328 41.4332
" />
<path d="M34.1328 41.4332
L34.0119 41.4332
" />
<path d="M34.0723 41.7356
L33.9514 41.6752
" />
<path d="M33.9514 41.6752
L33.8304 41.5542
" />
<path d="M33.8304 41.5542
L33.7700 41.3123
" />
<path d="M33.7700 41.3123
L33.7700 40.8890
" />
<path d="M33.7700 40.8890
L33.8304 40.6471
" />
<path d="M33.8304 40.6471
L33.9514 40.5261
" />
<path d="M33.9514 40.5261
L34.0723 40.4656
" />
<path d="M34.0723 40.4656
L34.3142 40.4656
" />
<path d="M34.3142 40.4656
L34.4352 40.5261
" />
<path d="M34.4352 40.5261
L34.5561 40.6471
" />
<path d="M34.5561 40.6471
L34.6166 40.8890
" />
<path d="M34.6166 40.8890
L34.6166 41.3123
" />
<path d="M34.6166 41.3123
L34.5561 41.5542
" />
<path d="M34.5561 41.5542
L34.4352 41.6752
" />
<path d="M34.4352 41.6752
L34.3142 41.7356
" />
<path d="M34.3142 41.7356
L34.0723 41.7356
" />
<path d="M35.8262 41.7356
L35.1005 41.7356
" />
<path d="M35.4633 41.7356
L35.4633 40.4656
" />
<path d="M35.4633 40.4656
L35.3424 40.6471
" />
<path d="M35.3424 40.6471
L35.2214 40.7680
" />
<path d="M35.2214 40.7680
L35.1005 40.8285
" />
</g></g>
<g style="fill:#A90000; fill-opacity:0.0; 
stroke:#A90000; stroke-width:0.1524; stroke-opacity:1; 
stroke-linecap:round; stroke-linejoin:round;">
<text x="40.8941" y="40.8941"
textLength="1.3365" font-size="1.6933" lengthAdjust="spacingAndGlyphs"
text-anchor="middle" opacity="0">9</text>
<g class="stroked-text"><desc>9</desc>
<path d="M40.6522 40.7386
L40.8941 40.7386
" />
<path d="M40.8941 40.7386
L41.0151 40.6782
" />
<path d="M41.0151 40.6782
L41.0755 40.6177
" />
<path d="M41.0755 40.6177
L41.1965 40.4362
" />
<path d="M41.1965 40.4362
L41.2570 40.1943
" />
<path d="M41.2570 40.1943
L41.2570 39.7105
" />
<path d="M41.2570 39.7105
L41.1965 39.5896
" />
<path d="M41.1965 39.5896
L41.1360 39.5291
" />
<path d="M41.1360 39.5291
L41.0151 39.4686
" />
<path d="M41.0151 39.4686
L40.7732 39.4686
" />
<path d="M40.7732 39.4686
L40.6522 39.5291
" />
<path d="M40.6522 39.5291
L40.5917 39.5896
" />
<path d="M40.5917 39.5896
L40.5313 39.7105
" />
<path d="M40.5313 39.7105
L40.5313 40.0129
" />
<path d="M40.5313 40.0129
L40.5917 40.1339
" />
<path d="M40.5917 40.1339
L40.6522 40.1943
" />
<path d="M40.6522 40.1943
L40.7732 40.2548
" />
<path d="M40.7732 40.2548
L41.0151 40.2548
" />
<path d="M41.0151 40.2548
L41.1360 40.1943
" />
<path d="M41.1360 40.1943
L41.1965 40.1339
" />
<path d="M41.1965 40.1339
L41.2570 40.0129
" />
</g></g>
<g style="fill:#840084; fill-opacity:0.0; 
stroke:#840084; stroke-width:0.1524; stroke-opacity:1; 
stroke-linecap:round; stroke-linejoin:round;">
</g>
<g style="fill:#006464; fill-opacity:0.0; 
stroke:#006464; stroke-width:0.1524; stroke-opacity:1; 
stroke-linecap:round; stroke-linejoin:round;">
</g>
<g style="fill:#006464; fill-opacity:0.0; 
stroke:#006464; stroke-width:0.1588; stroke-opacity:1; 
stroke-linecap:round; stroke-linejoin:round;">
<text x="39.6241" y="8.7631"
textLength="2.5621" font-size="1.6933" lengthAdjust="spacingAndGlyphs"
text-anchor="middle" opacity="0">U?</text>
<g class="stroked-text"><desc>U?</desc>
<path d="M38.7169 7.4456
L38.7169 8.4737
" />
<path d="M38.7169 8.4737
L38.7774 8.5947
" />
<path d="M38.7774 8.5947
L38.8379 8.6552
" />
<path d="M38.8379 8.6552
L38.9588 8.7156
" />
<path d="M38.9588 8.7156
L39.2007 8.7156
" />
<path d="M39.2007 8.7156
L39.3217 8.6552
" />
<path d="M39.3217 8.6552
L39.3822 8.5947
" />
<path d="M39.3822 8.5947
L39.4426 8.4737
" />
<path d="M39.4426 8.4737
L39.4426 7.4456
" />
<path d="M40.2289 8.5947
L40.2893 8.6552
" />
<path d="M40.2893 8.6552
L40.2289 8.7156
" />
<path d="M40.2289 8.7156
L40.1684 8.6552
" />
<path d="M40.1684 8.6552
L40.2289 8.5947
" />
<path d="M40.2289 8.5947
L40.2289 8.7156
" />
<path d="M39.9870 7.5061
L40.1079 7.4456
" />
<path d="M40.1079 7.4456
L40.4103 7.4456
" />
<path d="M40.4103 7.4456
L40.5312 7.5061
" />
<path d="M40.5312 7.5061
L40.5917 7.6271
" />
<path d="M40.5917 7.6271
L40.5917 7.7480
" />
<path d="M40.5917 7.7480
L40.5312 7.8690
" />
<path d="M40.5312 7.8690
L40.4708 7.9294
" />
<path d="M40.4708 7.9294
L40.3498 7.9899
" />
<path d="M40.3498 7.9899
L40.2893 8.0504
" />
<path d="M40.2893 8.0504
L40.2289 8.1713
" />
<path d="M40.2289 8.1713
L40.2289 8.2318
" />
</g><text x="37.0841" y="59.5631"
textLength="8.4281" font-size="1.6933" lengthAdjust="spacingAndGlyphs"
text-anchor="middle" opacity="0">74LS177</text>
<g class="stroked-text"><desc>74LS177</desc>
<path d="M33.1230 58.2456
L33.9696 58.2456
" />
<path d="M33.9696 58.2456
L33.4254 59.5156
" />
<path d="M34.9977 58.6690
L34.9977 59.5156
" />
<path d="M34.6953 58.1852
L34.3930 59.0923
" />
<path d="M34.3930 59.0923
L35.1791 59.0923
" />
<path d="M36.2677 59.5156
L35.6629 59.5156
" />
<path d="M35.6629 59.5156
L35.6629 58.2456
" />
<path d="M36.6306 59.4552
L36.8120 59.5156
" />
<path d="M36.8120 59.5156
L37.1144 59.5156
" />
<path d="M37.1144 59.5156
L37.2353 59.4552
" />
<path d="M37.2353 59.4552
L37.2958 59.3947
" />
<path d="M37.2958 59.3947
L37.3563 59.2737
" />
<path d="M37.3563 59.2737
L37.3563 59.1528
" />
<path d="M37.3563 59.1528
L37.2958 59.0318
" />
<path d="M37.2958 59.0318
L37.2353 58.9713
" />
<path d="M37.2353 58.9713
L37.1144 58.9109
" />
<path d="M37.1144 58.9109
L36.8725 58.8504
" />
<path d="M36.8725 58.8504
L36.7515 58.7899
" />
<path d="M36.7515 58.7899
L36.6910 58.7294
" />
<path d="M36.6910 58.7294
L36.6306 58.6085
" />
<path d="M36.6306 58.6085
L36.6306 58.4875
" />
<path d="M36.6306 58.4875
L36.6910 58.3666
" />
<path d="M36.6910 58.3666
L36.7515 58.3061
" />
<path d="M36.7515 58.3061
L36.8725 58.2456
" />
<path d="M36.8725 58.2456
L37.1748 58.2456
" />
<path d="M37.1748 58.2456
L37.3563 58.3061
" />
<path d="M38.5658 59.5156
L37.8401 59.5156
" />
<path d="M38.2029 59.5156
L38.2029 58.2456
" />
<path d="M38.2029 58.2456
L38.0820 58.4271
" />
<path d="M38.0820 58.4271
L37.9610 58.5480
" />
<path d="M37.9610 58.5480
L37.8401 58.6085
" />
<path d="M38.9891 58.2456
L39.8357 58.2456
" />
<path d="M39.8357 58.2456
L39.2915 59.5156
" />
<path d="M40.1986 58.2456
L41.0452 58.2456
" />
<path d="M41.0452 58.2456
L40.5010 59.5156
" />
</g></g> 
</svg>
