<?xml version="1.0" standalone="no"?>
 <!DOCTYPE svg PUBLIC "-//W3C//DTD SVG 1.1//EN" 
 "http://www.w3.org/Graphics/SVG/1.1/DTD/svg11.dtd"> 
<svg
  xmlns:svg="http://www.w3.org/2000/svg"
  xmlns="http://www.w3.org/2000/svg"
  xmlns:xlink="http://www.w3.org/1999/xlink"
  version="1.1"
  width="18.8214mm" height="47.7266mm" viewBox="0.0000 0.0000 18.8214 47.7266">
<title>SVG Image created as working.svg date 2023/08/01 14:35:49 </title>
  <desc>Image generated by Eeschema-SVG </desc>
<g style="fill:#000000; fill-opacity:1.0000;stroke:#000000; stroke-opacity:1.0000;
stroke-linecap:round; stroke-linejoin:round;"
 transform="translate(0 0) scale(1 1)">
</g>
<g style="fill:#840000; fill-opacity:0.0; 
stroke:#840000; stroke-width:0.0000; stroke-opacity:1; 
stroke-linecap:round; stroke-linejoin:round;">
</g>
<g style="fill:#840084; fill-opacity:0.0; 
stroke:#840084; stroke-width:0.0000; stroke-opacity:1; 
stroke-linecap:round; stroke-linejoin:round;">
</g>
<g style="fill:#840000; fill-opacity:0.0; 
stroke:#840000; stroke-width:0.0000; stroke-opacity:1; 
stroke-linecap:round; stroke-linejoin:round;">
</g>
<g style="fill:#840000; fill-opacity:0.0; 
stroke:#840000; stroke-width:0.1524; stroke-opacity:1; 
stroke-linecap:round; stroke-linejoin:round;">
<path style="fill:#840000; fill-opacity:0.0; 
stroke:#840000; stroke-width:0.1524; stroke-opacity:1; 
stroke-linecap:round; stroke-linejoin:round;fill:none"
d="M 10.6810,40.3702
10.2746,40.3702
" /> 
<path style="fill:#840000; fill-opacity:0.0; 
stroke:#840000; stroke-width:0.1524; stroke-opacity:1; 
stroke-linecap:round; stroke-linejoin:round;fill:none"
d="M 10.6810,37.8302
10.2746,37.8302
" /> 
<path style="fill:#840000; fill-opacity:0.0; 
stroke:#840000; stroke-width:0.1524; stroke-opacity:1; 
stroke-linecap:round; stroke-linejoin:round;fill:none"
d="M 10.6810,35.2902
10.2746,35.2902
" /> 
<path style="fill:#840000; fill-opacity:0.0; 
stroke:#840000; stroke-width:0.1524; stroke-opacity:1; 
stroke-linecap:round; stroke-linejoin:round;fill:none"
d="M 10.6810,32.7502
10.2746,32.7502
" /> 
<path style="fill:#840000; fill-opacity:0.0; 
stroke:#840000; stroke-width:0.1524; stroke-opacity:1; 
stroke-linecap:round; stroke-linejoin:round;fill:none"
d="M 10.6810,30.2102
10.2746,30.2102
" /> 
<path style="fill:#840000; fill-opacity:0.0; 
stroke:#840000; stroke-width:0.1524; stroke-opacity:1; 
stroke-linecap:round; stroke-linejoin:round;fill:none"
d="M 10.6810,27.6702
10.2746,27.6702
" /> 
<path style="fill:#840000; fill-opacity:0.0; 
stroke:#840000; stroke-width:0.1524; stroke-opacity:1; 
stroke-linecap:round; stroke-linejoin:round;fill:none"
d="M 10.6810,25.1302
10.2746,25.1302
" /> 
<path style="fill:#840000; fill-opacity:0.0; 
stroke:#840000; stroke-width:0.1524; stroke-opacity:1; 
stroke-linecap:round; stroke-linejoin:round;fill:none"
d="M 10.6810,22.5902
10.2746,22.5902
" /> 
<path style="fill:#840000; fill-opacity:0.0; 
stroke:#840000; stroke-width:0.1524; stroke-opacity:1; 
stroke-linecap:round; stroke-linejoin:round;fill:none"
d="M 10.6810,20.0502
10.2746,20.0502
" /> 
<path style="fill:#840000; fill-opacity:0.0; 
stroke:#840000; stroke-width:0.1524; stroke-opacity:1; 
stroke-linecap:round; stroke-linejoin:round;fill:none"
d="M 10.6810,17.5102
10.2746,17.5102
" /> 
<path style="fill:#840000; fill-opacity:0.0; 
stroke:#840000; stroke-width:0.1524; stroke-opacity:1; 
stroke-linecap:round; stroke-linejoin:round;fill:none"
d="M 10.6810,14.9702
10.2746,14.9702
" /> 
<path style="fill:#840000; fill-opacity:0.0; 
stroke:#840000; stroke-width:0.1524; stroke-opacity:1; 
stroke-linecap:round; stroke-linejoin:round;fill:none"
d="M 10.6810,12.4302
10.2746,12.4302
" /> 
<path style="fill:#840000; fill-opacity:0.0; 
stroke:#840000; stroke-width:0.1524; stroke-opacity:1; 
stroke-linecap:round; stroke-linejoin:round;fill:none"
d="M 10.6810,9.8902
10.2746,9.8902
" /> 
<path style="fill:#840000; fill-opacity:0.0; 
stroke:#840000; stroke-width:0.1524; stroke-opacity:1; 
stroke-linecap:round; stroke-linejoin:round;fill:none"
d="M 10.6810,7.3502
10.2746,7.3502
" /> 
</g>
<g style="fill:#840000; fill-opacity:1.0000; 
stroke:#840000; stroke-width:0.1524; stroke-opacity:1; 
stroke-linecap:round; stroke-linejoin:round;">
<rect x="9.411000" y="40.243200" width="0.863600" height="0.254000" rx="0.000000" />
<rect x="9.411000" y="37.703200" width="0.863600" height="0.254000" rx="0.000000" />
<rect x="9.411000" y="35.163200" width="0.863600" height="0.254000" rx="0.000000" />
<rect x="9.411000" y="32.623200" width="0.863600" height="0.254000" rx="0.000000" />
<rect x="9.411000" y="30.083200" width="0.863600" height="0.254000" rx="0.000000" />
<rect x="9.411000" y="27.543200" width="0.863600" height="0.254000" rx="0.000000" />
<rect x="9.411000" y="25.003200" width="0.863600" height="0.254000" rx="0.000000" />
<rect x="9.411000" y="22.463200" width="0.863600" height="0.254000" rx="0.000000" />
<rect x="9.411000" y="19.923200" width="0.863600" height="0.254000" rx="0.000000" />
<rect x="9.411000" y="17.383200" width="0.863600" height="0.254000" rx="0.000000" />
<rect x="9.411000" y="14.843200" width="0.863600" height="0.254000" rx="0.000000" />
<rect x="9.411000" y="12.303200" width="0.863600" height="0.254000" rx="0.000000" />
<rect x="9.411000" y="9.763200" width="0.863600" height="0.254000" rx="0.000000" />
<rect x="9.411000" y="7.223200" width="0.863600" height="0.254000" rx="0.000000" />
</g>
<g style="fill:#840000; fill-opacity:0.0; 
stroke:#840000; stroke-width:0.1524; stroke-opacity:1; 
stroke-linecap:round; stroke-linejoin:round;">
<path d="M10.6810 7.3502
L14.4910 7.3502
" />
</g>
<g style="fill:#A90000; fill-opacity:0.0; 
stroke:#A90000; stroke-width:0.1524; stroke-opacity:1; 
stroke-linecap:round; stroke-linejoin:round;">
<text x="12.5860" y="7.0962"
textLength="1.3365" font-size="1.6933" lengthAdjust="spacingAndGlyphs"
text-anchor="middle" opacity="0">1</text>
<g class="stroked-text"><desc>1</desc>
<path d="M12.9489 6.9407
L12.2232 6.9407
" />
<path d="M12.5860 6.9407
L12.5860 5.6707
" />
<path d="M12.5860 5.6707
L12.4651 5.8522
" />
<path d="M12.4651 5.8522
L12.3441 5.9731
" />
<path d="M12.3441 5.9731
L12.2232 6.0336
" />
</g></g>
<g style="fill:#840000; fill-opacity:0.0; 
stroke:#840000; stroke-width:0.1524; stroke-opacity:1; 
stroke-linecap:round; stroke-linejoin:round;">
<path d="M10.6810 30.2102
L14.4910 30.2102
" />
</g>
<g style="fill:#A90000; fill-opacity:0.0; 
stroke:#A90000; stroke-width:0.1524; stroke-opacity:1; 
stroke-linecap:round; stroke-linejoin:round;">
<text x="12.5860" y="29.9562"
textLength="2.5460" font-size="1.6933" lengthAdjust="spacingAndGlyphs"
text-anchor="middle" opacity="0">10</text>
<g class="stroked-text"><desc>10</desc>
<path d="M12.3441 29.8007
L11.6184 29.8007
" />
<path d="M11.9812 29.8007
L11.9812 28.5307
" />
<path d="M11.9812 28.5307
L11.8603 28.7122
" />
<path d="M11.8603 28.7122
L11.7393 28.8331
" />
<path d="M11.7393 28.8331
L11.6184 28.8936
" />
<path d="M13.1302 28.5307
L13.2512 28.5307
" />
<path d="M13.2512 28.5307
L13.3721 28.5912
" />
<path d="M13.3721 28.5912
L13.4326 28.6517
" />
<path d="M13.4326 28.6517
L13.4931 28.7726
" />
<path d="M13.4931 28.7726
L13.5536 29.0145
" />
<path d="M13.5536 29.0145
L13.5536 29.3169
" />
<path d="M13.5536 29.3169
L13.4931 29.5588
" />
<path d="M13.4931 29.5588
L13.4326 29.6798
" />
<path d="M13.4326 29.6798
L13.3721 29.7403
" />
<path d="M13.3721 29.7403
L13.2512 29.8007
" />
<path d="M13.2512 29.8007
L13.1302 29.8007
" />
<path d="M13.1302 29.8007
L13.0093 29.7403
" />
<path d="M13.0093 29.7403
L12.9488 29.6798
" />
<path d="M12.9488 29.6798
L12.8883 29.5588
" />
<path d="M12.8883 29.5588
L12.8279 29.3169
" />
<path d="M12.8279 29.3169
L12.8279 29.0145
" />
<path d="M12.8279 29.0145
L12.8883 28.7726
" />
<path d="M12.8883 28.7726
L12.9488 28.6517
" />
<path d="M12.9488 28.6517
L13.0093 28.5912
" />
<path d="M13.0093 28.5912
L13.1302 28.5307
" />
</g></g>
<g style="fill:#840000; fill-opacity:0.0; 
stroke:#840000; stroke-width:0.1524; stroke-opacity:1; 
stroke-linecap:round; stroke-linejoin:round;">
<path d="M10.6810 32.7502
L14.4910 32.7502
" />
</g>
<g style="fill:#A90000; fill-opacity:0.0; 
stroke:#A90000; stroke-width:0.1524; stroke-opacity:1; 
stroke-linecap:round; stroke-linejoin:round;">
<text x="12.5860" y="32.4962"
textLength="2.5460" font-size="1.6933" lengthAdjust="spacingAndGlyphs"
text-anchor="middle" opacity="0">11</text>
<g class="stroked-text"><desc>11</desc>
<path d="M12.3441 32.3407
L11.6184 32.3407
" />
<path d="M11.9812 32.3407
L11.9812 31.0707
" />
<path d="M11.9812 31.0707
L11.8603 31.2522
" />
<path d="M11.8603 31.2522
L11.7393 31.3731
" />
<path d="M11.7393 31.3731
L11.6184 31.4336
" />
<path d="M13.5536 32.3407
L12.8279 32.3407
" />
<path d="M13.1907 32.3407
L13.1907 31.0707
" />
<path d="M13.1907 31.0707
L13.0698 31.2522
" />
<path d="M13.0698 31.2522
L12.9488 31.3731
" />
<path d="M12.9488 31.3731
L12.8279 31.4336
" />
</g></g>
<g style="fill:#840000; fill-opacity:0.0; 
stroke:#840000; stroke-width:0.1524; stroke-opacity:1; 
stroke-linecap:round; stroke-linejoin:round;">
<path d="M10.6810 35.2902
L14.4910 35.2902
" />
</g>
<g style="fill:#A90000; fill-opacity:0.0; 
stroke:#A90000; stroke-width:0.1524; stroke-opacity:1; 
stroke-linecap:round; stroke-linejoin:round;">
<text x="12.5860" y="35.0362"
textLength="2.5460" font-size="1.6933" lengthAdjust="spacingAndGlyphs"
text-anchor="middle" opacity="0">12</text>
<g class="stroked-text"><desc>12</desc>
<path d="M12.3441 34.8807
L11.6184 34.8807
" />
<path d="M11.9812 34.8807
L11.9812 33.6107
" />
<path d="M11.9812 33.6107
L11.8603 33.7922
" />
<path d="M11.8603 33.7922
L11.7393 33.9131
" />
<path d="M11.7393 33.9131
L11.6184 33.9736
" />
<path d="M12.8279 33.7317
L12.8883 33.6712
" />
<path d="M12.8883 33.6712
L13.0093 33.6107
" />
<path d="M13.0093 33.6107
L13.3117 33.6107
" />
<path d="M13.3117 33.6107
L13.4326 33.6712
" />
<path d="M13.4326 33.6712
L13.4931 33.7317
" />
<path d="M13.4931 33.7317
L13.5536 33.8526
" />
<path d="M13.5536 33.8526
L13.5536 33.9736
" />
<path d="M13.5536 33.9736
L13.4931 34.1550
" />
<path d="M13.4931 34.1550
L12.7674 34.8807
" />
<path d="M12.7674 34.8807
L13.5536 34.8807
" />
</g></g>
<g style="fill:#840000; fill-opacity:0.0; 
stroke:#840000; stroke-width:0.1524; stroke-opacity:1; 
stroke-linecap:round; stroke-linejoin:round;">
<path d="M10.6810 37.8302
L14.4910 37.8302
" />
</g>
<g style="fill:#A90000; fill-opacity:0.0; 
stroke:#A90000; stroke-width:0.1524; stroke-opacity:1; 
stroke-linecap:round; stroke-linejoin:round;">
<text x="12.5860" y="37.5762"
textLength="2.5460" font-size="1.6933" lengthAdjust="spacingAndGlyphs"
text-anchor="middle" opacity="0">13</text>
<g class="stroked-text"><desc>13</desc>
<path d="M12.3441 37.4207
L11.6184 37.4207
" />
<path d="M11.9812 37.4207
L11.9812 36.1507
" />
<path d="M11.9812 36.1507
L11.8603 36.3322
" />
<path d="M11.8603 36.3322
L11.7393 36.4531
" />
<path d="M11.7393 36.4531
L11.6184 36.5136
" />
<path d="M12.7674 36.1507
L13.5536 36.1507
" />
<path d="M13.5536 36.1507
L13.1302 36.6345
" />
<path d="M13.1302 36.6345
L13.3117 36.6345
" />
<path d="M13.3117 36.6345
L13.4326 36.6950
" />
<path d="M13.4326 36.6950
L13.4931 36.7555
" />
<path d="M13.4931 36.7555
L13.5536 36.8764
" />
<path d="M13.5536 36.8764
L13.5536 37.1788
" />
<path d="M13.5536 37.1788
L13.4931 37.2998
" />
<path d="M13.4931 37.2998
L13.4326 37.3603
" />
<path d="M13.4326 37.3603
L13.3117 37.4207
" />
<path d="M13.3117 37.4207
L12.9488 37.4207
" />
<path d="M12.9488 37.4207
L12.8279 37.3603
" />
<path d="M12.8279 37.3603
L12.7674 37.2998
" />
</g></g>
<g style="fill:#840000; fill-opacity:0.0; 
stroke:#840000; stroke-width:0.1524; stroke-opacity:1; 
stroke-linecap:round; stroke-linejoin:round;">
<path d="M10.6810 40.3702
L14.4910 40.3702
" />
</g>
<g style="fill:#A90000; fill-opacity:0.0; 
stroke:#A90000; stroke-width:0.1524; stroke-opacity:1; 
stroke-linecap:round; stroke-linejoin:round;">
<text x="12.5860" y="40.1162"
textLength="2.5460" font-size="1.6933" lengthAdjust="spacingAndGlyphs"
text-anchor="middle" opacity="0">14</text>
<g class="stroked-text"><desc>14</desc>
<path d="M12.3441 39.9607
L11.6184 39.9607
" />
<path d="M11.9812 39.9607
L11.9812 38.6907
" />
<path d="M11.9812 38.6907
L11.8603 38.8722
" />
<path d="M11.8603 38.8722
L11.7393 38.9931
" />
<path d="M11.7393 38.9931
L11.6184 39.0536
" />
<path d="M13.4326 39.1141
L13.4326 39.9607
" />
<path d="M13.1302 38.6303
L12.8279 39.5374
" />
<path d="M12.8279 39.5374
L13.6140 39.5374
" />
</g></g>
<g style="fill:#840000; fill-opacity:0.0; 
stroke:#840000; stroke-width:0.1524; stroke-opacity:1; 
stroke-linecap:round; stroke-linejoin:round;">
<path d="M10.6810 9.8902
L14.4910 9.8902
" />
</g>
<g style="fill:#A90000; fill-opacity:0.0; 
stroke:#A90000; stroke-width:0.1524; stroke-opacity:1; 
stroke-linecap:round; stroke-linejoin:round;">
<text x="12.5860" y="9.6362"
textLength="1.3365" font-size="1.6933" lengthAdjust="spacingAndGlyphs"
text-anchor="middle" opacity="0">2</text>
<g class="stroked-text"><desc>2</desc>
<path d="M12.2232 8.3317
L12.2836 8.2712
" />
<path d="M12.2836 8.2712
L12.4046 8.2107
" />
<path d="M12.4046 8.2107
L12.7070 8.2107
" />
<path d="M12.7070 8.2107
L12.8279 8.2712
" />
<path d="M12.8279 8.2712
L12.8884 8.3317
" />
<path d="M12.8884 8.3317
L12.9489 8.4526
" />
<path d="M12.9489 8.4526
L12.9489 8.5736
" />
<path d="M12.9489 8.5736
L12.8884 8.7550
" />
<path d="M12.8884 8.7550
L12.1627 9.4807
" />
<path d="M12.1627 9.4807
L12.9489 9.4807
" />
</g></g>
<g style="fill:#840000; fill-opacity:0.0; 
stroke:#840000; stroke-width:0.1524; stroke-opacity:1; 
stroke-linecap:round; stroke-linejoin:round;">
<path d="M10.6810 12.4302
L14.4910 12.4302
" />
</g>
<g style="fill:#A90000; fill-opacity:0.0; 
stroke:#A90000; stroke-width:0.1524; stroke-opacity:1; 
stroke-linecap:round; stroke-linejoin:round;">
<text x="12.5860" y="12.1762"
textLength="1.3365" font-size="1.6933" lengthAdjust="spacingAndGlyphs"
text-anchor="middle" opacity="0">3</text>
<g class="stroked-text"><desc>3</desc>
<path d="M12.1627 10.7507
L12.9489 10.7507
" />
<path d="M12.9489 10.7507
L12.5255 11.2345
" />
<path d="M12.5255 11.2345
L12.7070 11.2345
" />
<path d="M12.7070 11.2345
L12.8279 11.2950
" />
<path d="M12.8279 11.2950
L12.8884 11.3555
" />
<path d="M12.8884 11.3555
L12.9489 11.4764
" />
<path d="M12.9489 11.4764
L12.9489 11.7788
" />
<path d="M12.9489 11.7788
L12.8884 11.8998
" />
<path d="M12.8884 11.8998
L12.8279 11.9603
" />
<path d="M12.8279 11.9603
L12.7070 12.0207
" />
<path d="M12.7070 12.0207
L12.3441 12.0207
" />
<path d="M12.3441 12.0207
L12.2232 11.9603
" />
<path d="M12.2232 11.9603
L12.1627 11.8998
" />
</g></g>
<g style="fill:#840000; fill-opacity:0.0; 
stroke:#840000; stroke-width:0.1524; stroke-opacity:1; 
stroke-linecap:round; stroke-linejoin:round;">
<path d="M10.6810 14.9702
L14.4910 14.9702
" />
</g>
<g style="fill:#A90000; fill-opacity:0.0; 
stroke:#A90000; stroke-width:0.1524; stroke-opacity:1; 
stroke-linecap:round; stroke-linejoin:round;">
<text x="12.5860" y="14.7162"
textLength="1.3365" font-size="1.6933" lengthAdjust="spacingAndGlyphs"
text-anchor="middle" opacity="0">4</text>
<g class="stroked-text"><desc>4</desc>
<path d="M12.8279 13.7141
L12.8279 14.5607
" />
<path d="M12.5255 13.2303
L12.2232 14.1374
" />
<path d="M12.2232 14.1374
L13.0093 14.1374
" />
</g></g>
<g style="fill:#840000; fill-opacity:0.0; 
stroke:#840000; stroke-width:0.1524; stroke-opacity:1; 
stroke-linecap:round; stroke-linejoin:round;">
<path d="M10.6810 17.5102
L14.4910 17.5102
" />
</g>
<g style="fill:#A90000; fill-opacity:0.0; 
stroke:#A90000; stroke-width:0.1524; stroke-opacity:1; 
stroke-linecap:round; stroke-linejoin:round;">
<text x="12.5860" y="17.2562"
textLength="1.3365" font-size="1.6933" lengthAdjust="spacingAndGlyphs"
text-anchor="middle" opacity="0">5</text>
<g class="stroked-text"><desc>5</desc>
<path d="M12.8884 15.8307
L12.2836 15.8307
" />
<path d="M12.2836 15.8307
L12.2232 16.4355
" />
<path d="M12.2232 16.4355
L12.2836 16.3750
" />
<path d="M12.2836 16.3750
L12.4046 16.3145
" />
<path d="M12.4046 16.3145
L12.7070 16.3145
" />
<path d="M12.7070 16.3145
L12.8279 16.3750
" />
<path d="M12.8279 16.3750
L12.8884 16.4355
" />
<path d="M12.8884 16.4355
L12.9489 16.5564
" />
<path d="M12.9489 16.5564
L12.9489 16.8588
" />
<path d="M12.9489 16.8588
L12.8884 16.9798
" />
<path d="M12.8884 16.9798
L12.8279 17.0403
" />
<path d="M12.8279 17.0403
L12.7070 17.1007
" />
<path d="M12.7070 17.1007
L12.4046 17.1007
" />
<path d="M12.4046 17.1007
L12.2836 17.0403
" />
<path d="M12.2836 17.0403
L12.2232 16.9798
" />
</g></g>
<g style="fill:#840000; fill-opacity:0.0; 
stroke:#840000; stroke-width:0.1524; stroke-opacity:1; 
stroke-linecap:round; stroke-linejoin:round;">
<path d="M10.6810 20.0502
L14.4910 20.0502
" />
</g>
<g style="fill:#A90000; fill-opacity:0.0; 
stroke:#A90000; stroke-width:0.1524; stroke-opacity:1; 
stroke-linecap:round; stroke-linejoin:round;">
<text x="12.5860" y="19.7962"
textLength="1.3365" font-size="1.6933" lengthAdjust="spacingAndGlyphs"
text-anchor="middle" opacity="0">6</text>
<g class="stroked-text"><desc>6</desc>
<path d="M12.8279 18.3707
L12.5860 18.3707
" />
<path d="M12.5860 18.3707
L12.4651 18.4312
" />
<path d="M12.4651 18.4312
L12.4046 18.4917
" />
<path d="M12.4046 18.4917
L12.2836 18.6731
" />
<path d="M12.2836 18.6731
L12.2232 18.9150
" />
<path d="M12.2232 18.9150
L12.2232 19.3988
" />
<path d="M12.2232 19.3988
L12.2836 19.5198
" />
<path d="M12.2836 19.5198
L12.3441 19.5803
" />
<path d="M12.3441 19.5803
L12.4651 19.6407
" />
<path d="M12.4651 19.6407
L12.7070 19.6407
" />
<path d="M12.7070 19.6407
L12.8279 19.5803
" />
<path d="M12.8279 19.5803
L12.8884 19.5198
" />
<path d="M12.8884 19.5198
L12.9489 19.3988
" />
<path d="M12.9489 19.3988
L12.9489 19.0964
" />
<path d="M12.9489 19.0964
L12.8884 18.9755
" />
<path d="M12.8884 18.9755
L12.8279 18.9150
" />
<path d="M12.8279 18.9150
L12.7070 18.8545
" />
<path d="M12.7070 18.8545
L12.4651 18.8545
" />
<path d="M12.4651 18.8545
L12.3441 18.9150
" />
<path d="M12.3441 18.9150
L12.2836 18.9755
" />
<path d="M12.2836 18.9755
L12.2232 19.0964
" />
</g></g>
<g style="fill:#840000; fill-opacity:0.0; 
stroke:#840000; stroke-width:0.1524; stroke-opacity:1; 
stroke-linecap:round; stroke-linejoin:round;">
<path d="M10.6810 22.5902
L14.4910 22.5902
" />
</g>
<g style="fill:#A90000; fill-opacity:0.0; 
stroke:#A90000; stroke-width:0.1524; stroke-opacity:1; 
stroke-linecap:round; stroke-linejoin:round;">
<text x="12.5860" y="22.3362"
textLength="1.3365" font-size="1.6933" lengthAdjust="spacingAndGlyphs"
text-anchor="middle" opacity="0">7</text>
<g class="stroked-text"><desc>7</desc>
<path d="M12.1627 20.9107
L13.0093 20.9107
" />
<path d="M13.0093 20.9107
L12.4651 22.1807
" />
</g></g>
<g style="fill:#840000; fill-opacity:0.0; 
stroke:#840000; stroke-width:0.1524; stroke-opacity:1; 
stroke-linecap:round; stroke-linejoin:round;">
<path d="M10.6810 25.1302
L14.4910 25.1302
" />
</g>
<g style="fill:#A90000; fill-opacity:0.0; 
stroke:#A90000; stroke-width:0.1524; stroke-opacity:1; 
stroke-linecap:round; stroke-linejoin:round;">
<text x="12.5860" y="24.8762"
textLength="1.3365" font-size="1.6933" lengthAdjust="spacingAndGlyphs"
text-anchor="middle" opacity="0">8</text>
<g class="stroked-text"><desc>8</desc>
<path d="M12.4651 23.9950
L12.3441 23.9345
" />
<path d="M12.3441 23.9345
L12.2836 23.8741
" />
<path d="M12.2836 23.8741
L12.2232 23.7531
" />
<path d="M12.2232 23.7531
L12.2232 23.6926
" />
<path d="M12.2232 23.6926
L12.2836 23.5717
" />
<path d="M12.2836 23.5717
L12.3441 23.5112
" />
<path d="M12.3441 23.5112
L12.4651 23.4507
" />
<path d="M12.4651 23.4507
L12.7070 23.4507
" />
<path d="M12.7070 23.4507
L12.8279 23.5112
" />
<path d="M12.8279 23.5112
L12.8884 23.5717
" />
<path d="M12.8884 23.5717
L12.9489 23.6926
" />
<path d="M12.9489 23.6926
L12.9489 23.7531
" />
<path d="M12.9489 23.7531
L12.8884 23.8741
" />
<path d="M12.8884 23.8741
L12.8279 23.9345
" />
<path d="M12.8279 23.9345
L12.7070 23.9950
" />
<path d="M12.7070 23.9950
L12.4651 23.9950
" />
<path d="M12.4651 23.9950
L12.3441 24.0555
" />
<path d="M12.3441 24.0555
L12.2836 24.1160
" />
<path d="M12.2836 24.1160
L12.2232 24.2369
" />
<path d="M12.2232 24.2369
L12.2232 24.4788
" />
<path d="M12.2232 24.4788
L12.2836 24.5998
" />
<path d="M12.2836 24.5998
L12.3441 24.6603
" />
<path d="M12.3441 24.6603
L12.4651 24.7207
" />
<path d="M12.4651 24.7207
L12.7070 24.7207
" />
<path d="M12.7070 24.7207
L12.8279 24.6603
" />
<path d="M12.8279 24.6603
L12.8884 24.5998
" />
<path d="M12.8884 24.5998
L12.9489 24.4788
" />
<path d="M12.9489 24.4788
L12.9489 24.2369
" />
<path d="M12.9489 24.2369
L12.8884 24.1160
" />
<path d="M12.8884 24.1160
L12.8279 24.0555
" />
<path d="M12.8279 24.0555
L12.7070 23.9950
" />
</g></g>
<g style="fill:#840000; fill-opacity:0.0; 
stroke:#840000; stroke-width:0.1524; stroke-opacity:1; 
stroke-linecap:round; stroke-linejoin:round;">
<path d="M10.6810 27.6702
L14.4910 27.6702
" />
</g>
<g style="fill:#A90000; fill-opacity:0.0; 
stroke:#A90000; stroke-width:0.1524; stroke-opacity:1; 
stroke-linecap:round; stroke-linejoin:round;">
<text x="12.5860" y="27.4162"
textLength="1.3365" font-size="1.6933" lengthAdjust="spacingAndGlyphs"
text-anchor="middle" opacity="0">9</text>
<g class="stroked-text"><desc>9</desc>
<path d="M12.3441 27.2607
L12.5860 27.2607
" />
<path d="M12.5860 27.2607
L12.7070 27.2003
" />
<path d="M12.7070 27.2003
L12.7674 27.1398
" />
<path d="M12.7674 27.1398
L12.8884 26.9583
" />
<path d="M12.8884 26.9583
L12.9489 26.7164
" />
<path d="M12.9489 26.7164
L12.9489 26.2326
" />
<path d="M12.9489 26.2326
L12.8884 26.1117
" />
<path d="M12.8884 26.1117
L12.8279 26.0512
" />
<path d="M12.8279 26.0512
L12.7070 25.9907
" />
<path d="M12.7070 25.9907
L12.4651 25.9907
" />
<path d="M12.4651 25.9907
L12.3441 26.0512
" />
<path d="M12.3441 26.0512
L12.2836 26.1117
" />
<path d="M12.2836 26.1117
L12.2232 26.2326
" />
<path d="M12.2232 26.2326
L12.2232 26.5350
" />
<path d="M12.2232 26.5350
L12.2836 26.6560
" />
<path d="M12.2836 26.6560
L12.3441 26.7164
" />
<path d="M12.3441 26.7164
L12.4651 26.7769
" />
<path d="M12.4651 26.7769
L12.7070 26.7769
" />
<path d="M12.7070 26.7769
L12.8279 26.7164
" />
<path d="M12.8279 26.7164
L12.8884 26.6560
" />
<path d="M12.8884 26.6560
L12.9489 26.5350
" />
</g></g>
<g style="fill:#840084; fill-opacity:0.0; 
stroke:#840084; stroke-width:0.1524; stroke-opacity:1; 
stroke-linecap:round; stroke-linejoin:round;">
</g>
<g style="fill:#006464; fill-opacity:0.0; 
stroke:#006464; stroke-width:0.1524; stroke-opacity:1; 
stroke-linecap:round; stroke-linejoin:round;">
</g>
<g style="fill:#006464; fill-opacity:0.0; 
stroke:#006464; stroke-width:0.1588; stroke-opacity:1; 
stroke-linecap:round; stroke-linejoin:round;">
<text x="9.4110" y="5.4452"
textLength="2.1992" font-size="1.6933" lengthAdjust="spacingAndGlyphs"
text-anchor="middle" opacity="0">J?</text>
<g class="stroked-text"><desc>J?</desc>
<path d="M9.0481 4.1277
L9.0481 5.0349
" />
<path d="M9.0481 5.0349
L8.9876 5.2163
" />
<path d="M8.9876 5.2163
L8.8667 5.3373
" />
<path d="M8.8667 5.3373
L8.6852 5.3977
" />
<path d="M8.6852 5.3977
L8.5643 5.3977
" />
<path d="M9.8343 5.2768
L9.8947 5.3373
" />
<path d="M9.8947 5.3373
L9.8343 5.3977
" />
<path d="M9.8343 5.3977
L9.7738 5.3373
" />
<path d="M9.7738 5.3373
L9.8343 5.2768
" />
<path d="M9.8343 5.2768
L9.8343 5.3977
" />
<path d="M9.5924 4.1882
L9.7133 4.1277
" />
<path d="M9.7133 4.1277
L10.0157 4.1277
" />
<path d="M10.0157 4.1277
L10.1366 4.1882
" />
<path d="M10.1366 4.1882
L10.1971 4.3092
" />
<path d="M10.1971 4.3092
L10.1971 4.4301
" />
<path d="M10.1971 4.4301
L10.1366 4.5511
" />
<path d="M10.1366 4.5511
L10.0762 4.6115
" />
<path d="M10.0762 4.6115
L9.9552 4.6720
" />
<path d="M9.9552 4.6720
L9.8947 4.7325
" />
<path d="M9.8947 4.7325
L9.8343 4.8534
" />
<path d="M9.8343 4.8534
L9.8343 4.9139
" />
</g><text x="9.4110" y="43.5452"
textLength="15.6851" font-size="1.6933" lengthAdjust="spacingAndGlyphs"
text-anchor="middle" opacity="0">Conn_01x14_Pin</text>
<g class="stroked-text"><desc>Conn_01x14_Pin</desc>
<path d="M2.6680 43.3768
L2.6076 43.4373
" />
<path d="M2.6076 43.4373
L2.4261 43.4977
" />
<path d="M2.4261 43.4977
L2.3052 43.4977
" />
<path d="M2.3052 43.4977
L2.1238 43.4373
" />
<path d="M2.1238 43.4373
L2.0028 43.3163
" />
<path d="M2.0028 43.3163
L1.9423 43.1953
" />
<path d="M1.9423 43.1953
L1.8819 42.9534
" />
<path d="M1.8819 42.9534
L1.8819 42.7720
" />
<path d="M1.8819 42.7720
L1.9423 42.5301
" />
<path d="M1.9423 42.5301
L2.0028 42.4092
" />
<path d="M2.0028 42.4092
L2.1238 42.2882
" />
<path d="M2.1238 42.2882
L2.3052 42.2277
" />
<path d="M2.3052 42.2277
L2.4261 42.2277
" />
<path d="M2.4261 42.2277
L2.6076 42.2882
" />
<path d="M2.6076 42.2882
L2.6680 42.3487
" />
<path d="M3.3938 43.4977
L3.2728 43.4373
" />
<path d="M3.2728 43.4373
L3.2123 43.3768
" />
<path d="M3.2123 43.3768
L3.1519 43.2558
" />
<path d="M3.1519 43.2558
L3.1519 42.8930
" />
<path d="M3.1519 42.8930
L3.2123 42.7720
" />
<path d="M3.2123 42.7720
L3.2728 42.7115
" />
<path d="M3.2728 42.7115
L3.3938 42.6511
" />
<path d="M3.3938 42.6511
L3.5752 42.6511
" />
<path d="M3.5752 42.6511
L3.6961 42.7115
" />
<path d="M3.6961 42.7115
L3.7566 42.7720
" />
<path d="M3.7566 42.7720
L3.8171 42.8930
" />
<path d="M3.8171 42.8930
L3.8171 43.2558
" />
<path d="M3.8171 43.2558
L3.7566 43.3768
" />
<path d="M3.7566 43.3768
L3.6961 43.4373
" />
<path d="M3.6961 43.4373
L3.5752 43.4977
" />
<path d="M3.5752 43.4977
L3.3938 43.4977
" />
<path d="M4.3613 42.6511
L4.3613 43.4977
" />
<path d="M4.3613 42.7720
L4.4218 42.7115
" />
<path d="M4.4218 42.7115
L4.5428 42.6511
" />
<path d="M4.5428 42.6511
L4.7242 42.6511
" />
<path d="M4.7242 42.6511
L4.8451 42.7115
" />
<path d="M4.8451 42.7115
L4.9056 42.8325
" />
<path d="M4.9056 42.8325
L4.9056 43.4977
" />
<path d="M5.5103 42.6511
L5.5103 43.4977
" />
<path d="M5.5103 42.7720
L5.5708 42.7115
" />
<path d="M5.5708 42.7115
L5.6918 42.6511
" />
<path d="M5.6918 42.6511
L5.8732 42.6511
" />
<path d="M5.8732 42.6511
L5.9941 42.7115
" />
<path d="M5.9941 42.7115
L6.0546 42.8325
" />
<path d="M6.0546 42.8325
L6.0546 43.4977
" />
<path d="M6.3570 43.6187
L7.3246 43.6187
" />
<path d="M7.8688 42.2277
L7.9898 42.2277
" />
<path d="M7.9898 42.2277
L8.1107 42.2882
" />
<path d="M8.1107 42.2882
L8.1712 42.3487
" />
<path d="M8.1712 42.3487
L8.2317 42.4696
" />
<path d="M8.2317 42.4696
L8.2922 42.7115
" />
<path d="M8.2922 42.7115
L8.2922 43.0139
" />
<path d="M8.2922 43.0139
L8.2317 43.2558
" />
<path d="M8.2317 43.2558
L8.1712 43.3768
" />
<path d="M8.1712 43.3768
L8.1107 43.4373
" />
<path d="M8.1107 43.4373
L7.9898 43.4977
" />
<path d="M7.9898 43.4977
L7.8688 43.4977
" />
<path d="M7.8688 43.4977
L7.7479 43.4373
" />
<path d="M7.7479 43.4373
L7.6874 43.3768
" />
<path d="M7.6874 43.3768
L7.6269 43.2558
" />
<path d="M7.6269 43.2558
L7.5665 43.0139
" />
<path d="M7.5665 43.0139
L7.5665 42.7115
" />
<path d="M7.5665 42.7115
L7.6269 42.4696
" />
<path d="M7.6269 42.4696
L7.6874 42.3487
" />
<path d="M7.6874 42.3487
L7.7479 42.2882
" />
<path d="M7.7479 42.2882
L7.8688 42.2277
" />
<path d="M9.5017 43.4977
L8.7760 43.4977
" />
<path d="M9.1388 43.4977
L9.1388 42.2277
" />
<path d="M9.1388 42.2277
L9.0179 42.4092
" />
<path d="M9.0179 42.4092
L8.8969 42.5301
" />
<path d="M8.8969 42.5301
L8.7760 42.5906
" />
<path d="M9.9250 43.4977
L10.5902 42.6511
" />
<path d="M9.9250 42.6511
L10.5902 43.4977
" />
<path d="M11.7393 43.4977
L11.0136 43.4977
" />
<path d="M11.3764 43.4977
L11.3764 42.2277
" />
<path d="M11.3764 42.2277
L11.2555 42.4092
" />
<path d="M11.2555 42.4092
L11.1345 42.5301
" />
<path d="M11.1345 42.5301
L11.0136 42.5906
" />
<path d="M12.8278 42.6511
L12.8278 43.4977
" />
<path d="M12.5254 42.1673
L12.2231 43.0744
" />
<path d="M12.2231 43.0744
L13.0092 43.0744
" />
<path d="M13.1907 43.6187
L14.1583 43.6187
" />
<path d="M14.4606 43.4977
L14.4606 42.2277
" />
<path d="M14.4606 42.2277
L14.9444 42.2277
" />
<path d="M14.9444 42.2277
L15.0654 42.2882
" />
<path d="M15.0654 42.2882
L15.1259 42.3487
" />
<path d="M15.1259 42.3487
L15.1863 42.4696
" />
<path d="M15.1863 42.4696
L15.1863 42.6511
" />
<path d="M15.1863 42.6511
L15.1259 42.7720
" />
<path d="M15.1259 42.7720
L15.0654 42.8325
" />
<path d="M15.0654 42.8325
L14.9444 42.8930
" />
<path d="M14.9444 42.8930
L14.4606 42.8930
" />
<path d="M15.7306 43.4977
L15.7306 42.6511
" />
<path d="M15.7306 42.2277
L15.6702 42.2882
" />
<path d="M15.6702 42.2882
L15.7306 42.3487
" />
<path d="M15.7306 42.3487
L15.7911 42.2882
" />
<path d="M15.7911 42.2882
L15.7306 42.2277
" />
<path d="M15.7306 42.2277
L15.7306 42.3487
" />
<path d="M16.3354 42.6511
L16.3354 43.4977
" />
<path d="M16.3354 42.7720
L16.3959 42.7115
" />
<path d="M16.3959 42.7115
L16.5169 42.6511
" />
<path d="M16.5169 42.6511
L16.6983 42.6511
" />
<path d="M16.6983 42.6511
L16.8192 42.7115
" />
<path d="M16.8192 42.7115
L16.8797 42.8325
" />
<path d="M16.8797 42.8325
L16.8797 43.4977
" />
</g></g>
<g style="fill:#840084; fill-opacity:0.0; 
stroke:#840084; stroke-width:0.1588; stroke-opacity:1; 
stroke-linecap:round; stroke-linejoin:round;">
<text x="9.4110" y="23.2252"
textLength="1.0501" font-size="1.6933" lengthAdjust="spacingAndGlyphs"
text-anchor="middle" opacity="0">~</text>
<g class="stroked-text"><desc>~</desc>
<path d="M9.0784 22.6939
L9.1389 22.6334
" />
<path d="M9.1389 22.6334
L9.2598 22.5730
" />
<path d="M9.2598 22.5730
L9.5017 22.6939
" />
<path d="M9.5017 22.6939
L9.6227 22.6334
" />
<path d="M9.6227 22.6334
L9.6832 22.5730
" />
</g></g> 
</svg>
