<?xml version="1.0" standalone="no"?>
 <!DOCTYPE svg PUBLIC "-//W3C//DTD SVG 1.1//EN" 
 "http://www.w3.org/Graphics/SVG/1.1/DTD/svg11.dtd"> 
<svg
  xmlns:svg="http://www.w3.org/2000/svg"
  xmlns="http://www.w3.org/2000/svg"
  xmlns:xlink="http://www.w3.org/1999/xlink"
  version="1.1"
  width="25.8572mm" height="26.8986mm" viewBox="0.0000 0.0000 25.8572 26.8986">
<title>SVG Image created as working.svg date 2023/07/31 04:45:51 </title>
  <desc>Image generated by Eeschema-SVG </desc>
<g style="fill:#000000; fill-opacity:1.0000;stroke:#000000; stroke-opacity:1.0000;
stroke-linecap:round; stroke-linejoin:round;"
 transform="translate(0 0) scale(1 1)">
</g>
<g style="fill:#840000; fill-opacity:0.0; 
stroke:#840000; stroke-width:0.0000; stroke-opacity:1; 
stroke-linecap:round; stroke-linejoin:round;">
</g>
<g style="fill:#FFFFC2; fill-opacity:0.0; 
stroke:#FFFFC2; stroke-width:0.0000; stroke-opacity:1; 
stroke-linecap:round; stroke-linejoin:round;">
</g>
<g style="fill:#FFFFC2; fill-opacity:1.0000; 
stroke:#FFFFC2; stroke-width:0.0000; stroke-opacity:1; 
stroke-linecap:round; stroke-linejoin:round;">
<path style="fill:#FFFFC2; fill-opacity:1.0000; 
stroke:#FFFFC2; stroke-width:0.0000; stroke-opacity:1; 
stroke-linecap:round; stroke-linejoin:round;fill-rule:evenodd;"
d="M 11.0441,11.1324
11.0441,13.6724
12.3141,12.4024
11.0441,11.1324
Z" /> 
<rect x="5.964100" y="6.052400" width="12.700000" height="12.700000" rx="0.000000" />
</g>
<g style="fill:#840084; fill-opacity:1.0000; 
stroke:#840084; stroke-width:0.0000; stroke-opacity:1; 
stroke-linecap:round; stroke-linejoin:round;">
</g>
<g style="fill:#840000; fill-opacity:1.0000; 
stroke:#840000; stroke-width:0.0000; stroke-opacity:1; 
stroke-linecap:round; stroke-linejoin:round;">
</g>
<g style="fill:#840000; fill-opacity:0.0; 
stroke:#840000; stroke-width:0.2540; stroke-opacity:1; 
stroke-linecap:round; stroke-linejoin:round;">
<path style="fill:#840000; fill-opacity:0.0; 
stroke:#840000; stroke-width:0.2540; stroke-opacity:1; 
stroke-linecap:round; stroke-linejoin:round;fill:none"
d="M 11.0441,11.1324
11.0441,13.6724
12.3141,12.4024
11.0441,11.1324
Z" /> 
<rect x="5.964100" y="6.052400" width="12.700000" height="12.700000" rx="0.000000" />
</g>
<g style="fill:#840000; fill-opacity:0.0; 
stroke:#840000; stroke-width:0.1524; stroke-opacity:1; 
stroke-linecap:round; stroke-linejoin:round;">
<path d="M12.3141 6.0524
L12.3141 2.2424
" />
</g>
<g style="fill:#006464; fill-opacity:0.0; 
stroke:#006464; stroke-width:0.1524; stroke-opacity:1; 
stroke-linecap:round; stroke-linejoin:round;">
<g transform="rotate(-90.000000 12.3141 6.5604)">
<text x="12.3141" y="7.1954"
textLength="3.5136" font-size="1.6933" lengthAdjust="spacingAndGlyphs"
text-anchor="end" opacity="0">Vdd</text>
</g>
<g class="stroked-text"><desc>Vdd</desc>
<path d="M11.6316 9.8260
L12.9016 9.4027
" />
<path d="M12.9016 9.4027
L11.6316 8.9793
" />
<path d="M12.9016 8.0117
L11.6316 8.0117
" />
<path d="M12.8412 8.0117
L12.9016 8.1326
" />
<path d="M12.9016 8.1326
L12.9016 8.3745
" />
<path d="M12.9016 8.3745
L12.8412 8.4955
" />
<path d="M12.8412 8.4955
L12.7807 8.5560
" />
<path d="M12.7807 8.5560
L12.6597 8.6164
" />
<path d="M12.6597 8.6164
L12.2969 8.6164
" />
<path d="M12.2969 8.6164
L12.1759 8.5560
" />
<path d="M12.1759 8.5560
L12.1154 8.4955
" />
<path d="M12.1154 8.4955
L12.0550 8.3745
" />
<path d="M12.0550 8.3745
L12.0550 8.1326
" />
<path d="M12.0550 8.1326
L12.1154 8.0117
" />
<path d="M12.9016 6.8627
L11.6316 6.8627
" />
<path d="M12.8412 6.8627
L12.9016 6.9836
" />
<path d="M12.9016 6.9836
L12.9016 7.2255
" />
<path d="M12.9016 7.2255
L12.8412 7.3465
" />
<path d="M12.8412 7.3465
L12.7807 7.4070
" />
<path d="M12.7807 7.4070
L12.6597 7.4674
" />
<path d="M12.6597 7.4674
L12.2969 7.4674
" />
<path d="M12.2969 7.4674
L12.1759 7.4070
" />
<path d="M12.1759 7.4070
L12.1154 7.3465
" />
<path d="M12.1154 7.3465
L12.0550 7.2255
" />
<path d="M12.0550 7.2255
L12.0550 6.9836
" />
<path d="M12.0550 6.9836
L12.1154 6.8627
" />
</g></g>
<g style="fill:#A90000; fill-opacity:0.0; 
stroke:#A90000; stroke-width:0.1524; stroke-opacity:1; 
stroke-linecap:round; stroke-linejoin:round;">
<g transform="rotate(-90.000000 12.0601 4.1474)">
<text x="12.0601" y="4.1474"
textLength="1.3365" font-size="1.6933" lengthAdjust="spacingAndGlyphs"
text-anchor="middle" opacity="0">1</text>
</g>
<g class="stroked-text"><desc>1</desc>
<path d="M11.9046 3.7844
L11.9046 4.5101
" />
<path d="M11.9046 4.1473
L10.6346 4.1473
" />
<path d="M10.6346 4.1473
L10.8161 4.2682
" />
<path d="M10.8161 4.2682
L10.9370 4.3892
" />
<path d="M10.9370 4.3892
L10.9975 4.5101
" />
</g></g>
<g style="fill:#840000; fill-opacity:0.0; 
stroke:#840000; stroke-width:0.1524; stroke-opacity:1; 
stroke-linecap:round; stroke-linejoin:round;">
<path d="M12.3141 18.7524
L12.3141 22.5624
" />
</g>
<g style="fill:#006464; fill-opacity:0.0; 
stroke:#006464; stroke-width:0.1524; stroke-opacity:1; 
stroke-linecap:round; stroke-linejoin:round;">
<g transform="rotate(-90.000000 12.3141 18.2444)">
<text x="12.3141" y="18.8794"
textLength="3.2718" font-size="1.6933" lengthAdjust="spacingAndGlyphs"
text-anchor="start" opacity="0">Vss</text>
</g>
<g class="stroked-text"><desc>Vss</desc>
<path d="M11.6316 18.1234
L12.9016 17.7001
" />
<path d="M12.9016 17.7001
L11.6316 17.2767
" />
<path d="M12.8412 16.9138
L12.9016 16.7929
" />
<path d="M12.9016 16.7929
L12.9016 16.5510
" />
<path d="M12.9016 16.5510
L12.8412 16.4300
" />
<path d="M12.8412 16.4300
L12.7202 16.3696
" />
<path d="M12.7202 16.3696
L12.6597 16.3696
" />
<path d="M12.6597 16.3696
L12.5388 16.4300
" />
<path d="M12.5388 16.4300
L12.4783 16.5510
" />
<path d="M12.4783 16.5510
L12.4783 16.7324
" />
<path d="M12.4783 16.7324
L12.4178 16.8534
" />
<path d="M12.4178 16.8534
L12.2969 16.9138
" />
<path d="M12.2969 16.9138
L12.2364 16.9138
" />
<path d="M12.2364 16.9138
L12.1154 16.8534
" />
<path d="M12.1154 16.8534
L12.0550 16.7324
" />
<path d="M12.0550 16.7324
L12.0550 16.5510
" />
<path d="M12.0550 16.5510
L12.1154 16.4300
" />
<path d="M12.8412 15.8857
L12.9016 15.7648
" />
<path d="M12.9016 15.7648
L12.9016 15.5229
" />
<path d="M12.9016 15.5229
L12.8412 15.4019
" />
<path d="M12.8412 15.4019
L12.7202 15.3415
" />
<path d="M12.7202 15.3415
L12.6597 15.3415
" />
<path d="M12.6597 15.3415
L12.5388 15.4019
" />
<path d="M12.5388 15.4019
L12.4783 15.5229
" />
<path d="M12.4783 15.5229
L12.4783 15.7043
" />
<path d="M12.4783 15.7043
L12.4178 15.8253
" />
<path d="M12.4178 15.8253
L12.2969 15.8857
" />
<path d="M12.2969 15.8857
L12.2364 15.8857
" />
<path d="M12.2364 15.8857
L12.1154 15.8253
" />
<path d="M12.1154 15.8253
L12.0550 15.7043
" />
<path d="M12.0550 15.7043
L12.0550 15.5229
" />
<path d="M12.0550 15.5229
L12.1154 15.4019
" />
</g></g>
<g style="fill:#A90000; fill-opacity:0.0; 
stroke:#A90000; stroke-width:0.1524; stroke-opacity:1; 
stroke-linecap:round; stroke-linejoin:round;">
<g transform="rotate(-90.000000 12.0601 20.6574)">
<text x="12.0601" y="20.6574"
textLength="1.3365" font-size="1.6933" lengthAdjust="spacingAndGlyphs"
text-anchor="middle" opacity="0">8</text>
</g>
<g class="stroked-text"><desc>8</desc>
<path d="M11.1789 20.7782
L11.1184 20.8992
" />
<path d="M11.1184 20.8992
L11.0580 20.9597
" />
<path d="M11.0580 20.9597
L10.9370 21.0201
" />
<path d="M10.9370 21.0201
L10.8765 21.0201
" />
<path d="M10.8765 21.0201
L10.7556 20.9597
" />
<path d="M10.7556 20.9597
L10.6951 20.8992
" />
<path d="M10.6951 20.8992
L10.6346 20.7782
" />
<path d="M10.6346 20.7782
L10.6346 20.5363
" />
<path d="M10.6346 20.5363
L10.6951 20.4154
" />
<path d="M10.6951 20.4154
L10.7556 20.3549
" />
<path d="M10.7556 20.3549
L10.8765 20.2944
" />
<path d="M10.8765 20.2944
L10.9370 20.2944
" />
<path d="M10.9370 20.2944
L11.0580 20.3549
" />
<path d="M11.0580 20.3549
L11.1184 20.4154
" />
<path d="M11.1184 20.4154
L11.1789 20.5363
" />
<path d="M11.1789 20.5363
L11.1789 20.7782
" />
<path d="M11.1789 20.7782
L11.2394 20.8992
" />
<path d="M11.2394 20.8992
L11.2999 20.9597
" />
<path d="M11.2999 20.9597
L11.4208 21.0201
" />
<path d="M11.4208 21.0201
L11.6627 21.0201
" />
<path d="M11.6627 21.0201
L11.7837 20.9597
" />
<path d="M11.7837 20.9597
L11.8442 20.8992
" />
<path d="M11.8442 20.8992
L11.9046 20.7782
" />
<path d="M11.9046 20.7782
L11.9046 20.5363
" />
<path d="M11.9046 20.5363
L11.8442 20.4154
" />
<path d="M11.8442 20.4154
L11.7837 20.3549
" />
<path d="M11.7837 20.3549
L11.6627 20.2944
" />
<path d="M11.6627 20.2944
L11.4208 20.2944
" />
<path d="M11.4208 20.2944
L11.2999 20.3549
" />
<path d="M11.2999 20.3549
L11.2394 20.4154
" />
<path d="M11.2394 20.4154
L11.1789 20.5363
" />
</g></g>
<g style="fill:#840000; fill-opacity:0.0; 
stroke:#840000; stroke-width:0.1524; stroke-opacity:1; 
stroke-linecap:round; stroke-linejoin:round;">
<circle cx="19.2991" cy="12.4024" r="0.6350" /> 
<path d="M19.9341 12.4024
L22.4741 12.4024
" />
</g>
<g style="fill:#A90000; fill-opacity:0.0; 
stroke:#A90000; stroke-width:0.1524; stroke-opacity:1; 
stroke-linecap:round; stroke-linejoin:round;">
<text x="20.5691" y="12.1484"
textLength="1.3365" font-size="1.6933" lengthAdjust="spacingAndGlyphs"
text-anchor="middle" opacity="0">2</text>
<g class="stroked-text"><desc>2</desc>
<path d="M20.2063 10.8439
L20.2667 10.7834
" />
<path d="M20.2667 10.7834
L20.3877 10.7229
" />
<path d="M20.3877 10.7229
L20.6901 10.7229
" />
<path d="M20.6901 10.7229
L20.8110 10.7834
" />
<path d="M20.8110 10.7834
L20.8715 10.8439
" />
<path d="M20.8715 10.8439
L20.9320 10.9648
" />
<path d="M20.9320 10.9648
L20.9320 11.0858
" />
<path d="M20.9320 11.0858
L20.8715 11.2672
" />
<path d="M20.8715 11.2672
L20.1458 11.9929
" />
<path d="M20.1458 11.9929
L20.9320 11.9929
" />
</g></g>
<g style="fill:#840000; fill-opacity:0.0; 
stroke:#840000; stroke-width:0.1524; stroke-opacity:1; 
stroke-linecap:round; stroke-linejoin:round;">
<path d="M5.9641 12.4024
L2.1541 12.4024
" />
</g>
<g style="fill:#A90000; fill-opacity:0.0; 
stroke:#A90000; stroke-width:0.1524; stroke-opacity:1; 
stroke-linecap:round; stroke-linejoin:round;">
<text x="4.0591" y="12.1484"
textLength="1.3365" font-size="1.6933" lengthAdjust="spacingAndGlyphs"
text-anchor="middle" opacity="0">3</text>
<g class="stroked-text"><desc>3</desc>
<path d="M3.6358 10.7229
L4.4220 10.7229
" />
<path d="M4.4220 10.7229
L3.9986 11.2067
" />
<path d="M3.9986 11.2067
L4.1801 11.2067
" />
<path d="M4.1801 11.2067
L4.3010 11.2672
" />
<path d="M4.3010 11.2672
L4.3615 11.3277
" />
<path d="M4.3615 11.3277
L4.4220 11.4486
" />
<path d="M4.4220 11.4486
L4.4220 11.7510
" />
<path d="M4.4220 11.7510
L4.3615 11.8720
" />
<path d="M4.3615 11.8720
L4.3010 11.9325
" />
<path d="M4.3010 11.9325
L4.1801 11.9929
" />
<path d="M4.1801 11.9929
L3.8172 11.9929
" />
<path d="M3.8172 11.9929
L3.6963 11.9325
" />
<path d="M3.6963 11.9325
L3.6358 11.8720
" />
</g></g>
<g style="fill:#840084; fill-opacity:0.0; 
stroke:#840084; stroke-width:0.1524; stroke-opacity:1; 
stroke-linecap:round; stroke-linejoin:round;">
</g>
<g style="fill:#006464; fill-opacity:0.0; 
stroke:#006464; stroke-width:0.1524; stroke-opacity:1; 
stroke-linecap:round; stroke-linejoin:round;">
</g>
<g style="fill:#006464; fill-opacity:0.0; 
stroke:#006464; stroke-width:0.1588; stroke-opacity:1; 
stroke-linecap:round; stroke-linejoin:round;">
<text x="19.9341" y="5.4174"
textLength="3.6507" font-size="1.6933" lengthAdjust="spacingAndGlyphs"
text-anchor="middle" opacity="0">U?A</text>
<g class="stroked-text"><desc>U?A</desc>
<path d="M18.4826 4.0999
L18.4826 5.1280
" />
<path d="M18.4826 5.1280
L18.5431 5.2490
" />
<path d="M18.5431 5.2490
L18.6036 5.3095
" />
<path d="M18.6036 5.3095
L18.7245 5.3699
" />
<path d="M18.7245 5.3699
L18.9664 5.3699
" />
<path d="M18.9664 5.3699
L19.0874 5.3095
" />
<path d="M19.0874 5.3095
L19.1479 5.2490
" />
<path d="M19.1479 5.2490
L19.2083 5.1280
" />
<path d="M19.2083 5.1280
L19.2083 4.0999
" />
<path d="M19.9946 5.2490
L20.0550 5.3095
" />
<path d="M20.0550 5.3095
L19.9946 5.3699
" />
<path d="M19.9946 5.3699
L19.9341 5.3095
" />
<path d="M19.9341 5.3095
L19.9946 5.2490
" />
<path d="M19.9946 5.2490
L19.9946 5.3699
" />
<path d="M19.7527 4.1604
L19.8736 4.0999
" />
<path d="M19.8736 4.0999
L20.1760 4.0999
" />
<path d="M20.1760 4.0999
L20.2969 4.1604
" />
<path d="M20.2969 4.1604
L20.3574 4.2814
" />
<path d="M20.3574 4.2814
L20.3574 4.4023
" />
<path d="M20.3574 4.4023
L20.2969 4.5233
" />
<path d="M20.2969 4.5233
L20.2365 4.5837
" />
<path d="M20.2365 4.5837
L20.1155 4.6442
" />
<path d="M20.1155 4.6442
L20.0550 4.7047
" />
<path d="M20.0550 4.7047
L19.9946 4.8256
" />
<path d="M19.9946 4.8256
L19.9946 4.8861
" />
<path d="M20.8413 5.0071
L21.4460 5.0071
" />
<path d="M20.7203 5.3699
L21.1436 4.0999
" />
<path d="M21.1436 4.0999
L21.5670 5.3699
" />
</g><text x="21.2041" y="24.4674"
textLength="4.9810" font-size="1.6933" lengthAdjust="spacingAndGlyphs"
text-anchor="middle" opacity="0">4049</text>
<g class="stroked-text"><desc>4049</desc>
<path d="M19.6317 23.5733
L19.6317 24.4199
" />
<path d="M19.3293 23.0895
L19.0270 23.9966
" />
<path d="M19.0270 23.9966
L19.8131 23.9966
" />
<path d="M20.5388 23.1499
L20.6598 23.1499
" />
<path d="M20.6598 23.1499
L20.7807 23.2104
" />
<path d="M20.7807 23.2104
L20.8412 23.2709
" />
<path d="M20.8412 23.2709
L20.9017 23.3918
" />
<path d="M20.9017 23.3918
L20.9622 23.6337
" />
<path d="M20.9622 23.6337
L20.9622 23.9361
" />
<path d="M20.9622 23.9361
L20.9017 24.1780
" />
<path d="M20.9017 24.1780
L20.8412 24.2990
" />
<path d="M20.8412 24.2990
L20.7807 24.3595
" />
<path d="M20.7807 24.3595
L20.6598 24.4199
" />
<path d="M20.6598 24.4199
L20.5388 24.4199
" />
<path d="M20.5388 24.4199
L20.4179 24.3595
" />
<path d="M20.4179 24.3595
L20.3574 24.2990
" />
<path d="M20.3574 24.2990
L20.2969 24.1780
" />
<path d="M20.2969 24.1780
L20.2365 23.9361
" />
<path d="M20.2365 23.9361
L20.2365 23.6337
" />
<path d="M20.2365 23.6337
L20.2969 23.3918
" />
<path d="M20.2969 23.3918
L20.3574 23.2709
" />
<path d="M20.3574 23.2709
L20.4179 23.2104
" />
<path d="M20.4179 23.2104
L20.5388 23.1499
" />
<path d="M22.0507 23.5733
L22.0507 24.4199
" />
<path d="M21.7483 23.0895
L21.4460 23.9966
" />
<path d="M21.4460 23.9966
L22.2321 23.9966
" />
<path d="M22.7764 24.4199
L23.0183 24.4199
" />
<path d="M23.0183 24.4199
L23.1393 24.3595
" />
<path d="M23.1393 24.3595
L23.1997 24.2990
" />
<path d="M23.1997 24.2990
L23.3207 24.1175
" />
<path d="M23.3207 24.1175
L23.3812 23.8756
" />
<path d="M23.3812 23.8756
L23.3812 23.3918
" />
<path d="M23.3812 23.3918
L23.3207 23.2709
" />
<path d="M23.3207 23.2709
L23.2602 23.2104
" />
<path d="M23.2602 23.2104
L23.1393 23.1499
" />
<path d="M23.1393 23.1499
L22.8974 23.1499
" />
<path d="M22.8974 23.1499
L22.7764 23.2104
" />
<path d="M22.7764 23.2104
L22.7159 23.2709
" />
<path d="M22.7159 23.2709
L22.6555 23.3918
" />
<path d="M22.6555 23.3918
L22.6555 23.6942
" />
<path d="M22.6555 23.6942
L22.7159 23.8152
" />
<path d="M22.7159 23.8152
L22.7764 23.8756
" />
<path d="M22.7764 23.8756
L22.8974 23.9361
" />
<path d="M22.8974 23.9361
L23.1393 23.9361
" />
<path d="M23.1393 23.9361
L23.2602 23.8756
" />
<path d="M23.2602 23.8756
L23.3207 23.8152
" />
<path d="M23.3207 23.8152
L23.3812 23.6942
" />
</g></g> 
</svg>
