<?xml version="1.0" standalone="no"?>
 <!DOCTYPE svg PUBLIC "-//W3C//DTD SVG 1.1//EN" 
 "http://www.w3.org/Graphics/SVG/1.1/DTD/svg11.dtd"> 
<svg
  xmlns:svg="http://www.w3.org/2000/svg"
  xmlns="http://www.w3.org/2000/svg"
  xmlns:xlink="http://www.w3.org/1999/xlink"
  version="1.1"
  width="83.1088mm" height="48.7680mm" viewBox="0.0000 0.0000 83.1088 48.7680">
<title>SVG Image created as working.svg date 2023/08/01 02:27:16 </title>
  <desc>Image generated by Eeschema-SVG </desc>
<g style="fill:#000000; fill-opacity:1.0000;stroke:#000000; stroke-opacity:1.0000;
stroke-linecap:round; stroke-linejoin:round;"
 transform="translate(0 0) scale(1 1)">
</g>
<g style="fill:#840000; fill-opacity:0.0; 
stroke:#840000; stroke-width:0.0000; stroke-opacity:1; 
stroke-linecap:round; stroke-linejoin:round;">
</g>
<g style="fill:#FFFFC2; fill-opacity:0.0; 
stroke:#FFFFC2; stroke-width:0.0000; stroke-opacity:1; 
stroke-linecap:round; stroke-linejoin:round;">
</g>
<g style="fill:#FFFFC2; fill-opacity:1.0000; 
stroke:#FFFFC2; stroke-width:0.0000; stroke-opacity:1; 
stroke-linecap:round; stroke-linejoin:round;">
<rect x="32.670000" y="7.874100" width="17.780000" height="33.020000" rx="0.000000" />
</g>
<g style="fill:#840084; fill-opacity:1.0000; 
stroke:#840084; stroke-width:0.0000; stroke-opacity:1; 
stroke-linecap:round; stroke-linejoin:round;">
</g>
<g style="fill:#840000; fill-opacity:1.0000; 
stroke:#840000; stroke-width:0.0000; stroke-opacity:1; 
stroke-linecap:round; stroke-linejoin:round;">
</g>
<g style="fill:#840000; fill-opacity:0.0; 
stroke:#840000; stroke-width:0.2540; stroke-opacity:1; 
stroke-linecap:round; stroke-linejoin:round;">
<rect x="32.670000" y="7.874100" width="17.780000" height="33.020000" rx="0.000000" />
</g>
<g style="fill:#840000; fill-opacity:0.0; 
stroke:#840000; stroke-width:0.1524; stroke-opacity:1; 
stroke-linecap:round; stroke-linejoin:round;">
<path d="M32.6700 11.6841
L28.8600 11.6841
" />
</g>
<g style="fill:#006464; fill-opacity:0.0; 
stroke:#006464; stroke-width:0.1524; stroke-opacity:1; 
stroke-linecap:round; stroke-linejoin:round;">
<text x="33.6860" y="12.3191"
textLength="3.8765" font-size="1.6933" lengthAdjust="spacingAndGlyphs"
text-anchor="start" opacity="0">DB0</text>
<g class="stroked-text"><desc>DB0</desc>
<path d="M33.9883 12.2716
L33.9883 11.0016
" />
<path d="M33.9883 11.0016
L34.2907 11.0016
" />
<path d="M34.2907 11.0016
L34.4721 11.0621
" />
<path d="M34.4721 11.0621
L34.5931 11.1831
" />
<path d="M34.5931 11.1831
L34.6536 11.3040
" />
<path d="M34.6536 11.3040
L34.7140 11.5459
" />
<path d="M34.7140 11.5459
L34.7140 11.7273
" />
<path d="M34.7140 11.7273
L34.6536 11.9692
" />
<path d="M34.6536 11.9692
L34.5931 12.0902
" />
<path d="M34.5931 12.0902
L34.4721 12.2112
" />
<path d="M34.4721 12.2112
L34.2907 12.2716
" />
<path d="M34.2907 12.2716
L33.9883 12.2716
" />
<path d="M35.6817 11.6064
L35.8631 11.6669
" />
<path d="M35.8631 11.6669
L35.9236 11.7273
" />
<path d="M35.9236 11.7273
L35.9840 11.8483
" />
<path d="M35.9840 11.8483
L35.9840 12.0297
" />
<path d="M35.9840 12.0297
L35.9236 12.1507
" />
<path d="M35.9236 12.1507
L35.8631 12.2112
" />
<path d="M35.8631 12.2112
L35.7421 12.2716
" />
<path d="M35.7421 12.2716
L35.2583 12.2716
" />
<path d="M35.2583 12.2716
L35.2583 11.0016
" />
<path d="M35.2583 11.0016
L35.6817 11.0016
" />
<path d="M35.6817 11.0016
L35.8026 11.0621
" />
<path d="M35.8026 11.0621
L35.8631 11.1226
" />
<path d="M35.8631 11.1226
L35.9236 11.2435
" />
<path d="M35.9236 11.2435
L35.9236 11.3645
" />
<path d="M35.9236 11.3645
L35.8631 11.4854
" />
<path d="M35.8631 11.4854
L35.8026 11.5459
" />
<path d="M35.8026 11.5459
L35.6817 11.6064
" />
<path d="M35.6817 11.6064
L35.2583 11.6064
" />
<path d="M36.7702 11.0016
L36.8912 11.0016
" />
<path d="M36.8912 11.0016
L37.0121 11.0621
" />
<path d="M37.0121 11.0621
L37.0726 11.1226
" />
<path d="M37.0726 11.1226
L37.1331 11.2435
" />
<path d="M37.1331 11.2435
L37.1936 11.4854
" />
<path d="M37.1936 11.4854
L37.1936 11.7878
" />
<path d="M37.1936 11.7878
L37.1331 12.0297
" />
<path d="M37.1331 12.0297
L37.0726 12.1507
" />
<path d="M37.0726 12.1507
L37.0121 12.2112
" />
<path d="M37.0121 12.2112
L36.8912 12.2716
" />
<path d="M36.8912 12.2716
L36.7702 12.2716
" />
<path d="M36.7702 12.2716
L36.6493 12.2112
" />
<path d="M36.6493 12.2112
L36.5888 12.1507
" />
<path d="M36.5888 12.1507
L36.5283 12.0297
" />
<path d="M36.5283 12.0297
L36.4679 11.7878
" />
<path d="M36.4679 11.7878
L36.4679 11.4854
" />
<path d="M36.4679 11.4854
L36.5283 11.2435
" />
<path d="M36.5283 11.2435
L36.5888 11.1226
" />
<path d="M36.5888 11.1226
L36.6493 11.0621
" />
<path d="M36.6493 11.0621
L36.7702 11.0016
" />
</g></g>
<g style="fill:#A90000; fill-opacity:0.0; 
stroke:#A90000; stroke-width:0.1524; stroke-opacity:1; 
stroke-linecap:round; stroke-linejoin:round;">
<text x="30.7650" y="11.4301"
textLength="1.3365" font-size="1.6933" lengthAdjust="spacingAndGlyphs"
text-anchor="middle" opacity="0">1</text>
<g class="stroked-text"><desc>1</desc>
<path d="M31.1279 11.2746
L30.4022 11.2746
" />
<path d="M30.7650 11.2746
L30.7650 10.0046
" />
<path d="M30.7650 10.0046
L30.6441 10.1861
" />
<path d="M30.6441 10.1861
L30.5231 10.3070
" />
<path d="M30.5231 10.3070
L30.4022 10.3675
" />
</g></g>
<g style="fill:#840000; fill-opacity:0.0; 
stroke:#840000; stroke-width:0.1524; stroke-opacity:1; 
stroke-linecap:round; stroke-linejoin:round;">
<path d="M32.6700 37.0841
L28.8600 37.0841
" />
</g>
<g style="fill:#006464; fill-opacity:0.0; 
stroke:#006464; stroke-width:0.1524; stroke-opacity:1; 
stroke-linecap:round; stroke-linejoin:round;">
<text x="33.6860" y="37.7191"
textLength="2.6065" font-size="1.6933" lengthAdjust="spacingAndGlyphs"
text-anchor="start" opacity="0">~{CS}</text>
<g class="stroked-text"><desc>~{CS}</desc>
<path d="M34.7140 37.5507
L34.6536 37.6112
" />
<path d="M34.6536 37.6112
L34.4721 37.6716
" />
<path d="M34.4721 37.6716
L34.3512 37.6716
" />
<path d="M34.3512 37.6716
L34.1698 37.6112
" />
<path d="M34.1698 37.6112
L34.0488 37.4902
" />
<path d="M34.0488 37.4902
L33.9883 37.3692
" />
<path d="M33.9883 37.3692
L33.9279 37.1273
" />
<path d="M33.9279 37.1273
L33.9279 36.9459
" />
<path d="M33.9279 36.9459
L33.9883 36.7040
" />
<path d="M33.9883 36.7040
L34.0488 36.5831
" />
<path d="M34.0488 36.5831
L34.1698 36.4621
" />
<path d="M34.1698 36.4621
L34.3512 36.4016
" />
<path d="M34.3512 36.4016
L34.4721 36.4016
" />
<path d="M34.4721 36.4016
L34.6536 36.4621
" />
<path d="M34.6536 36.4621
L34.7140 36.5226
" />
<path d="M35.1979 37.6112
L35.3793 37.6716
" />
<path d="M35.3793 37.6716
L35.6817 37.6716
" />
<path d="M35.6817 37.6716
L35.8026 37.6112
" />
<path d="M35.8026 37.6112
L35.8631 37.5507
" />
<path d="M35.8631 37.5507
L35.9236 37.4297
" />
<path d="M35.9236 37.4297
L35.9236 37.3088
" />
<path d="M35.9236 37.3088
L35.8631 37.1878
" />
<path d="M35.8631 37.1878
L35.8026 37.1273
" />
<path d="M35.8026 37.1273
L35.6817 37.0669
" />
<path d="M35.6817 37.0669
L35.4398 37.0064
" />
<path d="M35.4398 37.0064
L35.3188 36.9459
" />
<path d="M35.3188 36.9459
L35.2583 36.8854
" />
<path d="M35.2583 36.8854
L35.1979 36.7645
" />
<path d="M35.1979 36.7645
L35.1979 36.6435
" />
<path d="M35.1979 36.6435
L35.2583 36.5226
" />
<path d="M35.2583 36.5226
L35.3188 36.4621
" />
<path d="M35.3188 36.4621
L35.4398 36.4016
" />
<path d="M35.4398 36.4016
L35.7421 36.4016
" />
<path d="M35.7421 36.4016
L35.9236 36.4621
" />
<path d="M33.8130 35.8332
L36.0385 35.8332
" />
</g></g>
<g style="fill:#A90000; fill-opacity:0.0; 
stroke:#A90000; stroke-width:0.1524; stroke-opacity:1; 
stroke-linecap:round; stroke-linejoin:round;">
<text x="30.7650" y="36.8301"
textLength="2.5460" font-size="1.6933" lengthAdjust="spacingAndGlyphs"
text-anchor="middle" opacity="0">10</text>
<g class="stroked-text"><desc>10</desc>
<path d="M30.5231 36.6746
L29.7974 36.6746
" />
<path d="M30.1602 36.6746
L30.1602 35.4046
" />
<path d="M30.1602 35.4046
L30.0393 35.5861
" />
<path d="M30.0393 35.5861
L29.9183 35.7070
" />
<path d="M29.9183 35.7070
L29.7974 35.7675
" />
<path d="M31.3092 35.4046
L31.4302 35.4046
" />
<path d="M31.4302 35.4046
L31.5511 35.4651
" />
<path d="M31.5511 35.4651
L31.6116 35.5256
" />
<path d="M31.6116 35.5256
L31.6721 35.6465
" />
<path d="M31.6721 35.6465
L31.7326 35.8884
" />
<path d="M31.7326 35.8884
L31.7326 36.1908
" />
<path d="M31.7326 36.1908
L31.6721 36.4327
" />
<path d="M31.6721 36.4327
L31.6116 36.5537
" />
<path d="M31.6116 36.5537
L31.5511 36.6142
" />
<path d="M31.5511 36.6142
L31.4302 36.6746
" />
<path d="M31.4302 36.6746
L31.3092 36.6746
" />
<path d="M31.3092 36.6746
L31.1883 36.6142
" />
<path d="M31.1883 36.6142
L31.1278 36.5537
" />
<path d="M31.1278 36.5537
L31.0673 36.4327
" />
<path d="M31.0673 36.4327
L31.0069 36.1908
" />
<path d="M31.0069 36.1908
L31.0069 35.8884
" />
<path d="M31.0069 35.8884
L31.0673 35.6465
" />
<path d="M31.0673 35.6465
L31.1278 35.5256
" />
<path d="M31.1278 35.5256
L31.1883 35.4651
" />
<path d="M31.1883 35.4651
L31.3092 35.4046
" />
</g></g>
<g style="fill:#840000; fill-opacity:0.0; 
stroke:#840000; stroke-width:0.1524; stroke-opacity:1; 
stroke-linecap:round; stroke-linejoin:round;">
<path d="M41.5600 7.8741
L41.5600 4.0641
" />
</g>
<g style="fill:#006464; fill-opacity:0.0; 
stroke:#006464; stroke-width:0.1524; stroke-opacity:1; 
stroke-linecap:round; stroke-linejoin:round;">
<g transform="rotate(-90.000000 41.5600 8.8901)">
<text x="41.5600" y="9.5251"
textLength="2.7880" font-size="1.6933" lengthAdjust="spacingAndGlyphs"
text-anchor="end" opacity="0">V+</text>
</g>
<g class="stroked-text"><desc>V+</desc>
<path d="M40.8775 11.4301
L42.1475 11.0068
" />
<path d="M42.1475 11.0068
L40.8775 10.5834
" />
<path d="M41.6637 10.1601
L41.6637 9.1925
" />
<path d="M42.1475 9.6763
L41.1799 9.6763
" />
</g></g>
<g style="fill:#A90000; fill-opacity:0.0; 
stroke:#A90000; stroke-width:0.1524; stroke-opacity:1; 
stroke-linecap:round; stroke-linejoin:round;">
<g transform="rotate(-90.000000 41.3060 5.9691)">
<text x="41.3060" y="5.9691"
textLength="2.5460" font-size="1.6933" lengthAdjust="spacingAndGlyphs"
text-anchor="middle" opacity="0">11</text>
</g>
<g class="stroked-text"><desc>11</desc>
<path d="M41.1505 6.2109
L41.1505 6.9366
" />
<path d="M41.1505 6.5738
L39.8805 6.5738
" />
<path d="M39.8805 6.5738
L40.0620 6.6947
" />
<path d="M40.0620 6.6947
L40.1829 6.8157
" />
<path d="M40.1829 6.8157
L40.2434 6.9366
" />
<path d="M41.1505 5.0014
L41.1505 5.7271
" />
<path d="M41.1505 5.3643
L39.8805 5.3643
" />
<path d="M39.8805 5.3643
L40.0620 5.4852
" />
<path d="M40.0620 5.4852
L40.1829 5.6062
" />
<path d="M40.1829 5.6062
L40.2434 5.7271
" />
</g></g>
<g style="fill:#840000; fill-opacity:0.0; 
stroke:#840000; stroke-width:0.1524; stroke-opacity:1; 
stroke-linecap:round; stroke-linejoin:round;">
<path d="M41.5600 40.8941
L41.5600 44.7041
" />
</g>
<g style="fill:#006464; fill-opacity:0.0; 
stroke:#006464; stroke-width:0.1524; stroke-opacity:1; 
stroke-linecap:round; stroke-linejoin:round;">
<g transform="rotate(-90.000000 41.5600 39.8781)">
<text x="41.5600" y="40.5131"
textLength="5.2675" font-size="1.6933" lengthAdjust="spacingAndGlyphs"
text-anchor="start" opacity="0">DGND</text>
</g>
<g class="stroked-text"><desc>DGND</desc>
<path d="M42.1475 39.5757
L40.8775 39.5757
" />
<path d="M40.8775 39.5757
L40.8775 39.2733
" />
<path d="M40.8775 39.2733
L40.9380 39.0919
" />
<path d="M40.9380 39.0919
L41.0590 38.9709
" />
<path d="M41.0590 38.9709
L41.1799 38.9104
" />
<path d="M41.1799 38.9104
L41.4218 38.8500
" />
<path d="M41.4218 38.8500
L41.6032 38.8500
" />
<path d="M41.6032 38.8500
L41.8451 38.9104
" />
<path d="M41.8451 38.9104
L41.9661 38.9709
" />
<path d="M41.9661 38.9709
L42.0871 39.0919
" />
<path d="M42.0871 39.0919
L42.1475 39.2733
" />
<path d="M42.1475 39.2733
L42.1475 39.5757
" />
<path d="M40.9380 37.6404
L40.8775 37.7614
" />
<path d="M40.8775 37.7614
L40.8775 37.9428
" />
<path d="M40.8775 37.9428
L40.9380 38.1242
" />
<path d="M40.9380 38.1242
L41.0590 38.2452
" />
<path d="M41.0590 38.2452
L41.1799 38.3057
" />
<path d="M41.1799 38.3057
L41.4218 38.3661
" />
<path d="M41.4218 38.3661
L41.6032 38.3661
" />
<path d="M41.6032 38.3661
L41.8451 38.3057
" />
<path d="M41.8451 38.3057
L41.9661 38.2452
" />
<path d="M41.9661 38.2452
L42.0871 38.1242
" />
<path d="M42.0871 38.1242
L42.1475 37.9428
" />
<path d="M42.1475 37.9428
L42.1475 37.8219
" />
<path d="M42.1475 37.8219
L42.0871 37.6404
" />
<path d="M42.0871 37.6404
L42.0266 37.5800
" />
<path d="M42.0266 37.5800
L41.6032 37.5800
" />
<path d="M41.6032 37.5800
L41.6032 37.8219
" />
<path d="M42.1475 37.0357
L40.8775 37.0357
" />
<path d="M40.8775 37.0357
L42.1475 36.3100
" />
<path d="M42.1475 36.3100
L40.8775 36.3100
" />
<path d="M42.1475 35.7052
L40.8775 35.7052
" />
<path d="M40.8775 35.7052
L40.8775 35.4028
" />
<path d="M40.8775 35.4028
L40.9380 35.2214
" />
<path d="M40.9380 35.2214
L41.0590 35.1004
" />
<path d="M41.0590 35.1004
L41.1799 35.0399
" />
<path d="M41.1799 35.0399
L41.4218 34.9795
" />
<path d="M41.4218 34.9795
L41.6032 34.9795
" />
<path d="M41.6032 34.9795
L41.8451 35.0399
" />
<path d="M41.8451 35.0399
L41.9661 35.1004
" />
<path d="M41.9661 35.1004
L42.0871 35.2214
" />
<path d="M42.0871 35.2214
L42.1475 35.4028
" />
<path d="M42.1475 35.4028
L42.1475 35.7052
" />
</g></g>
<g style="fill:#A90000; fill-opacity:0.0; 
stroke:#A90000; stroke-width:0.1524; stroke-opacity:1; 
stroke-linecap:round; stroke-linejoin:round;">
<g transform="rotate(-90.000000 41.3060 42.7991)">
<text x="41.3060" y="42.7991"
textLength="2.5460" font-size="1.6933" lengthAdjust="spacingAndGlyphs"
text-anchor="middle" opacity="0">12</text>
</g>
<g class="stroked-text"><desc>12</desc>
<path d="M41.1505 43.0409
L41.1505 43.7666
" />
<path d="M41.1505 43.4038
L39.8805 43.4038
" />
<path d="M39.8805 43.4038
L40.0620 43.5247
" />
<path d="M40.0620 43.5247
L40.1829 43.6457
" />
<path d="M40.1829 43.6457
L40.2434 43.7666
" />
<path d="M40.0015 42.5571
L39.9410 42.4967
" />
<path d="M39.9410 42.4967
L39.8805 42.3757
" />
<path d="M39.8805 42.3757
L39.8805 42.0733
" />
<path d="M39.8805 42.0733
L39.9410 41.9524
" />
<path d="M39.9410 41.9524
L40.0015 41.8919
" />
<path d="M40.0015 41.8919
L40.1224 41.8314
" />
<path d="M40.1224 41.8314
L40.2434 41.8314
" />
<path d="M40.2434 41.8314
L40.4248 41.8919
" />
<path d="M40.4248 41.8919
L41.1505 42.6176
" />
<path d="M41.1505 42.6176
L41.1505 41.8314
" />
</g></g>
<g style="fill:#840000; fill-opacity:0.0; 
stroke:#840000; stroke-width:0.1524; stroke-opacity:1; 
stroke-linecap:round; stroke-linejoin:round;">
<path d="M50.4500 37.0841
L54.2600 37.0841
" />
</g>
<g style="fill:#006464; fill-opacity:0.0; 
stroke:#006464; stroke-width:0.1524; stroke-opacity:1; 
stroke-linecap:round; stroke-linejoin:round;">
<text x="49.4340" y="37.7191"
textLength="5.0861" font-size="1.6933" lengthAdjust="spacingAndGlyphs"
text-anchor="end" opacity="0">AGND</text>
<g class="stroked-text"><desc>AGND</desc>
<path d="M44.7168 37.3088
L45.3215 37.3088
" />
<path d="M44.5958 37.6716
L45.0191 36.4016
" />
<path d="M45.0191 36.4016
L45.4425 37.6716
" />
<path d="M46.5311 36.4621
L46.4101 36.4016
" />
<path d="M46.4101 36.4016
L46.2287 36.4016
" />
<path d="M46.2287 36.4016
L46.0473 36.4621
" />
<path d="M46.0473 36.4621
L45.9263 36.5831
" />
<path d="M45.9263 36.5831
L45.8658 36.7040
" />
<path d="M45.8658 36.7040
L45.8054 36.9459
" />
<path d="M45.8054 36.9459
L45.8054 37.1273
" />
<path d="M45.8054 37.1273
L45.8658 37.3692
" />
<path d="M45.8658 37.3692
L45.9263 37.4902
" />
<path d="M45.9263 37.4902
L46.0473 37.6112
" />
<path d="M46.0473 37.6112
L46.2287 37.6716
" />
<path d="M46.2287 37.6716
L46.3496 37.6716
" />
<path d="M46.3496 37.6716
L46.5311 37.6112
" />
<path d="M46.5311 37.6112
L46.5915 37.5507
" />
<path d="M46.5915 37.5507
L46.5915 37.1273
" />
<path d="M46.5915 37.1273
L46.3496 37.1273
" />
<path d="M47.1358 37.6716
L47.1358 36.4016
" />
<path d="M47.1358 36.4016
L47.8615 37.6716
" />
<path d="M47.8615 37.6716
L47.8615 36.4016
" />
<path d="M48.4663 37.6716
L48.4663 36.4016
" />
<path d="M48.4663 36.4016
L48.7687 36.4016
" />
<path d="M48.7687 36.4016
L48.9501 36.4621
" />
<path d="M48.9501 36.4621
L49.0711 36.5831
" />
<path d="M49.0711 36.5831
L49.1316 36.7040
" />
<path d="M49.1316 36.7040
L49.1920 36.9459
" />
<path d="M49.1920 36.9459
L49.1920 37.1273
" />
<path d="M49.1920 37.1273
L49.1316 37.3692
" />
<path d="M49.1316 37.3692
L49.0711 37.4902
" />
<path d="M49.0711 37.4902
L48.9501 37.6112
" />
<path d="M48.9501 37.6112
L48.7687 37.6716
" />
<path d="M48.7687 37.6716
L48.4663 37.6716
" />
</g></g>
<g style="fill:#A90000; fill-opacity:0.0; 
stroke:#A90000; stroke-width:0.1524; stroke-opacity:1; 
stroke-linecap:round; stroke-linejoin:round;">
<text x="52.3550" y="36.8301"
textLength="2.5460" font-size="1.6933" lengthAdjust="spacingAndGlyphs"
text-anchor="middle" opacity="0">13</text>
<g class="stroked-text"><desc>13</desc>
<path d="M52.1131 36.6746
L51.3874 36.6746
" />
<path d="M51.7502 36.6746
L51.7502 35.4046
" />
<path d="M51.7502 35.4046
L51.6293 35.5861
" />
<path d="M51.6293 35.5861
L51.5083 35.7070
" />
<path d="M51.5083 35.7070
L51.3874 35.7675
" />
<path d="M52.5364 35.4046
L53.3226 35.4046
" />
<path d="M53.3226 35.4046
L52.8992 35.8884
" />
<path d="M52.8992 35.8884
L53.0807 35.8884
" />
<path d="M53.0807 35.8884
L53.2016 35.9489
" />
<path d="M53.2016 35.9489
L53.2621 36.0094
" />
<path d="M53.2621 36.0094
L53.3226 36.1303
" />
<path d="M53.3226 36.1303
L53.3226 36.4327
" />
<path d="M53.3226 36.4327
L53.2621 36.5537
" />
<path d="M53.2621 36.5537
L53.2016 36.6142
" />
<path d="M53.2016 36.6142
L53.0807 36.6746
" />
<path d="M53.0807 36.6746
L52.7178 36.6746
" />
<path d="M52.7178 36.6746
L52.5969 36.6142
" />
<path d="M52.5969 36.6142
L52.5364 36.5537
" />
</g></g>
<g style="fill:#840000; fill-opacity:0.0; 
stroke:#840000; stroke-width:0.1524; stroke-opacity:1; 
stroke-linecap:round; stroke-linejoin:round;">
<path d="M50.4500 29.4641
L54.2600 29.4641
" />
</g>
<g style="fill:#006464; fill-opacity:0.0; 
stroke:#006464; stroke-width:0.1524; stroke-opacity:1; 
stroke-linecap:round; stroke-linejoin:round;">
<text x="49.4340" y="30.0991"
textLength="4.6022" font-size="1.6933" lengthAdjust="spacingAndGlyphs"
text-anchor="end" opacity="0">VSEL</text>
<g class="stroked-text"><desc>VSEL</desc>
<path d="M45.0797 28.7816
L45.5030 30.0516
" />
<path d="M45.5030 30.0516
L45.9264 28.7816
" />
<path d="M46.2893 29.9912
L46.4707 30.0516
" />
<path d="M46.4707 30.0516
L46.7731 30.0516
" />
<path d="M46.7731 30.0516
L46.8940 29.9912
" />
<path d="M46.8940 29.9912
L46.9545 29.9307
" />
<path d="M46.9545 29.9307
L47.0150 29.8097
" />
<path d="M47.0150 29.8097
L47.0150 29.6888
" />
<path d="M47.0150 29.6888
L46.9545 29.5678
" />
<path d="M46.9545 29.5678
L46.8940 29.5073
" />
<path d="M46.8940 29.5073
L46.7731 29.4469
" />
<path d="M46.7731 29.4469
L46.5312 29.3864
" />
<path d="M46.5312 29.3864
L46.4102 29.3259
" />
<path d="M46.4102 29.3259
L46.3497 29.2654
" />
<path d="M46.3497 29.2654
L46.2893 29.1445
" />
<path d="M46.2893 29.1445
L46.2893 29.0235
" />
<path d="M46.2893 29.0235
L46.3497 28.9026
" />
<path d="M46.3497 28.9026
L46.4102 28.8421
" />
<path d="M46.4102 28.8421
L46.5312 28.7816
" />
<path d="M46.5312 28.7816
L46.8335 28.7816
" />
<path d="M46.8335 28.7816
L47.0150 28.8421
" />
<path d="M47.5592 29.3864
L47.9826 29.3864
" />
<path d="M48.1640 30.0516
L47.5592 30.0516
" />
<path d="M47.5592 30.0516
L47.5592 28.7816
" />
<path d="M47.5592 28.7816
L48.1640 28.7816
" />
<path d="M49.3130 30.0516
L48.7082 30.0516
" />
<path d="M48.7082 30.0516
L48.7082 28.7816
" />
</g></g>
<g style="fill:#A90000; fill-opacity:0.0; 
stroke:#A90000; stroke-width:0.1524; stroke-opacity:1; 
stroke-linecap:round; stroke-linejoin:round;">
<text x="52.3550" y="29.2101"
textLength="2.5460" font-size="1.6933" lengthAdjust="spacingAndGlyphs"
text-anchor="middle" opacity="0">14</text>
<g class="stroked-text"><desc>14</desc>
<path d="M52.1131 29.0546
L51.3874 29.0546
" />
<path d="M51.7502 29.0546
L51.7502 27.7846
" />
<path d="M51.7502 27.7846
L51.6293 27.9661
" />
<path d="M51.6293 27.9661
L51.5083 28.0870
" />
<path d="M51.5083 28.0870
L51.3874 28.1475
" />
<path d="M53.2016 28.2080
L53.2016 29.0546
" />
<path d="M52.8992 27.7242
L52.5969 28.6313
" />
<path d="M52.5969 28.6313
L53.3830 28.6313
" />
</g></g>
<g style="fill:#840000; fill-opacity:0.0; 
stroke:#840000; stroke-width:0.1524; stroke-opacity:1; 
stroke-linecap:round; stroke-linejoin:round;">
<path d="M50.4500 24.3841
L54.2600 24.3841
" />
</g>
<g style="fill:#006464; fill-opacity:0.0; 
stroke:#006464; stroke-width:0.1524; stroke-opacity:1; 
stroke-linecap:round; stroke-linejoin:round;">
<text x="49.4340" y="25.0191"
textLength="4.9046" font-size="1.6933" lengthAdjust="spacingAndGlyphs"
text-anchor="end" opacity="0">VSEN</text>
<g class="stroked-text"><desc>VSEN</desc>
<path d="M44.7773 23.7016
L45.2006 24.9716
" />
<path d="M45.2006 24.9716
L45.6240 23.7016
" />
<path d="M45.9869 24.9112
L46.1683 24.9716
" />
<path d="M46.1683 24.9716
L46.4707 24.9716
" />
<path d="M46.4707 24.9716
L46.5916 24.9112
" />
<path d="M46.5916 24.9112
L46.6521 24.8507
" />
<path d="M46.6521 24.8507
L46.7126 24.7297
" />
<path d="M46.7126 24.7297
L46.7126 24.6088
" />
<path d="M46.7126 24.6088
L46.6521 24.4878
" />
<path d="M46.6521 24.4878
L46.5916 24.4273
" />
<path d="M46.5916 24.4273
L46.4707 24.3669
" />
<path d="M46.4707 24.3669
L46.2288 24.3064
" />
<path d="M46.2288 24.3064
L46.1078 24.2459
" />
<path d="M46.1078 24.2459
L46.0473 24.1854
" />
<path d="M46.0473 24.1854
L45.9869 24.0645
" />
<path d="M45.9869 24.0645
L45.9869 23.9435
" />
<path d="M45.9869 23.9435
L46.0473 23.8226
" />
<path d="M46.0473 23.8226
L46.1078 23.7621
" />
<path d="M46.1078 23.7621
L46.2288 23.7016
" />
<path d="M46.2288 23.7016
L46.5311 23.7016
" />
<path d="M46.5311 23.7016
L46.7126 23.7621
" />
<path d="M47.2568 24.3064
L47.6802 24.3064
" />
<path d="M47.8616 24.9716
L47.2568 24.9716
" />
<path d="M47.2568 24.9716
L47.2568 23.7016
" />
<path d="M47.2568 23.7016
L47.8616 23.7016
" />
<path d="M48.4058 24.9716
L48.4058 23.7016
" />
<path d="M48.4058 23.7016
L49.1315 24.9716
" />
<path d="M49.1315 24.9716
L49.1315 23.7016
" />
</g></g>
<g style="fill:#A90000; fill-opacity:0.0; 
stroke:#A90000; stroke-width:0.1524; stroke-opacity:1; 
stroke-linecap:round; stroke-linejoin:round;">
<text x="52.3550" y="24.1301"
textLength="2.5460" font-size="1.6933" lengthAdjust="spacingAndGlyphs"
text-anchor="middle" opacity="0">15</text>
<g class="stroked-text"><desc>15</desc>
<path d="M52.1131 23.9746
L51.3874 23.9746
" />
<path d="M51.7502 23.9746
L51.7502 22.7046
" />
<path d="M51.7502 22.7046
L51.6293 22.8861
" />
<path d="M51.6293 22.8861
L51.5083 23.0070
" />
<path d="M51.5083 23.0070
L51.3874 23.0675
" />
<path d="M53.2621 22.7046
L52.6573 22.7046
" />
<path d="M52.6573 22.7046
L52.5969 23.3094
" />
<path d="M52.5969 23.3094
L52.6573 23.2489
" />
<path d="M52.6573 23.2489
L52.7783 23.1884
" />
<path d="M52.7783 23.1884
L53.0807 23.1884
" />
<path d="M53.0807 23.1884
L53.2016 23.2489
" />
<path d="M53.2016 23.2489
L53.2621 23.3094
" />
<path d="M53.2621 23.3094
L53.3226 23.4303
" />
<path d="M53.3226 23.4303
L53.3226 23.7327
" />
<path d="M53.3226 23.7327
L53.2621 23.8537
" />
<path d="M53.2621 23.8537
L53.2016 23.9142
" />
<path d="M53.2016 23.9142
L53.0807 23.9746
" />
<path d="M53.0807 23.9746
L52.7783 23.9746
" />
<path d="M52.7783 23.9746
L52.6573 23.9142
" />
<path d="M52.6573 23.9142
L52.5969 23.8537
" />
</g></g>
<g style="fill:#840000; fill-opacity:0.0; 
stroke:#840000; stroke-width:0.1524; stroke-opacity:1; 
stroke-linecap:round; stroke-linejoin:round;">
<path d="M50.4500 16.7641
L54.2600 16.7641
" />
</g>
<g style="fill:#006464; fill-opacity:0.0; 
stroke:#006464; stroke-width:0.1524; stroke-opacity:1; 
stroke-linecap:round; stroke-linejoin:round;">
<text x="49.4340" y="17.3991"
textLength="4.8442" font-size="1.6933" lengthAdjust="spacingAndGlyphs"
text-anchor="end" opacity="0">VOUT</text>
<g class="stroked-text"><desc>VOUT</desc>
<path d="M44.8377 16.0816
L45.2610 17.3516
" />
<path d="M45.2610 17.3516
L45.6844 16.0816
" />
<path d="M46.3496 16.0816
L46.5915 16.0816
" />
<path d="M46.5915 16.0816
L46.7125 16.1421
" />
<path d="M46.7125 16.1421
L46.8334 16.2631
" />
<path d="M46.8334 16.2631
L46.8939 16.5050
" />
<path d="M46.8939 16.5050
L46.8939 16.9283
" />
<path d="M46.8939 16.9283
L46.8334 17.1702
" />
<path d="M46.8334 17.1702
L46.7125 17.2912
" />
<path d="M46.7125 17.2912
L46.5915 17.3516
" />
<path d="M46.5915 17.3516
L46.3496 17.3516
" />
<path d="M46.3496 17.3516
L46.2287 17.2912
" />
<path d="M46.2287 17.2912
L46.1077 17.1702
" />
<path d="M46.1077 17.1702
L46.0473 16.9283
" />
<path d="M46.0473 16.9283
L46.0473 16.5050
" />
<path d="M46.0473 16.5050
L46.1077 16.2631
" />
<path d="M46.1077 16.2631
L46.2287 16.1421
" />
<path d="M46.2287 16.1421
L46.3496 16.0816
" />
<path d="M47.4382 16.0816
L47.4382 17.1097
" />
<path d="M47.4382 17.1097
L47.4987 17.2307
" />
<path d="M47.4987 17.2307
L47.5592 17.2912
" />
<path d="M47.5592 17.2912
L47.6801 17.3516
" />
<path d="M47.6801 17.3516
L47.9220 17.3516
" />
<path d="M47.9220 17.3516
L48.0430 17.2912
" />
<path d="M48.0430 17.2912
L48.1035 17.2307
" />
<path d="M48.1035 17.2307
L48.1639 17.1097
" />
<path d="M48.1639 17.1097
L48.1639 16.0816
" />
<path d="M48.5873 16.0816
L49.3130 16.0816
" />
<path d="M48.9502 17.3516
L48.9502 16.0816
" />
</g></g>
<g style="fill:#A90000; fill-opacity:0.0; 
stroke:#A90000; stroke-width:0.1524; stroke-opacity:1; 
stroke-linecap:round; stroke-linejoin:round;">
<text x="52.3550" y="16.5101"
textLength="2.5460" font-size="1.6933" lengthAdjust="spacingAndGlyphs"
text-anchor="middle" opacity="0">16</text>
<g class="stroked-text"><desc>16</desc>
<path d="M52.1131 16.3546
L51.3874 16.3546
" />
<path d="M51.7502 16.3546
L51.7502 15.0846
" />
<path d="M51.7502 15.0846
L51.6293 15.2661
" />
<path d="M51.6293 15.2661
L51.5083 15.3870
" />
<path d="M51.5083 15.3870
L51.3874 15.4475
" />
<path d="M53.2016 15.0846
L52.9597 15.0846
" />
<path d="M52.9597 15.0846
L52.8388 15.1451
" />
<path d="M52.8388 15.1451
L52.7783 15.2056
" />
<path d="M52.7783 15.2056
L52.6573 15.3870
" />
<path d="M52.6573 15.3870
L52.5969 15.6289
" />
<path d="M52.5969 15.6289
L52.5969 16.1127
" />
<path d="M52.5969 16.1127
L52.6573 16.2337
" />
<path d="M52.6573 16.2337
L52.7178 16.2942
" />
<path d="M52.7178 16.2942
L52.8388 16.3546
" />
<path d="M52.8388 16.3546
L53.0807 16.3546
" />
<path d="M53.0807 16.3546
L53.2016 16.2942
" />
<path d="M53.2016 16.2942
L53.2621 16.2337
" />
<path d="M53.2621 16.2337
L53.3226 16.1127
" />
<path d="M53.3226 16.1127
L53.3226 15.8103
" />
<path d="M53.3226 15.8103
L53.2621 15.6894
" />
<path d="M53.2621 15.6894
L53.2016 15.6289
" />
<path d="M53.2016 15.6289
L53.0807 15.5684
" />
<path d="M53.0807 15.5684
L52.8388 15.5684
" />
<path d="M52.8388 15.5684
L52.7178 15.6289
" />
<path d="M52.7178 15.6289
L52.6573 15.6894
" />
<path d="M52.6573 15.6894
L52.5969 15.8103
" />
</g></g>
<g style="fill:#840000; fill-opacity:0.0; 
stroke:#840000; stroke-width:0.1524; stroke-opacity:1; 
stroke-linecap:round; stroke-linejoin:round;">
<path d="M32.6700 14.2241
L28.8600 14.2241
" />
</g>
<g style="fill:#006464; fill-opacity:0.0; 
stroke:#006464; stroke-width:0.1524; stroke-opacity:1; 
stroke-linecap:round; stroke-linejoin:round;">
<text x="33.6860" y="14.8591"
textLength="3.8765" font-size="1.6933" lengthAdjust="spacingAndGlyphs"
text-anchor="start" opacity="0">DB1</text>
<g class="stroked-text"><desc>DB1</desc>
<path d="M33.9883 14.8116
L33.9883 13.5416
" />
<path d="M33.9883 13.5416
L34.2907 13.5416
" />
<path d="M34.2907 13.5416
L34.4721 13.6021
" />
<path d="M34.4721 13.6021
L34.5931 13.7231
" />
<path d="M34.5931 13.7231
L34.6536 13.8440
" />
<path d="M34.6536 13.8440
L34.7140 14.0859
" />
<path d="M34.7140 14.0859
L34.7140 14.2673
" />
<path d="M34.7140 14.2673
L34.6536 14.5092
" />
<path d="M34.6536 14.5092
L34.5931 14.6302
" />
<path d="M34.5931 14.6302
L34.4721 14.7512
" />
<path d="M34.4721 14.7512
L34.2907 14.8116
" />
<path d="M34.2907 14.8116
L33.9883 14.8116
" />
<path d="M35.6817 14.1464
L35.8631 14.2069
" />
<path d="M35.8631 14.2069
L35.9236 14.2673
" />
<path d="M35.9236 14.2673
L35.9840 14.3883
" />
<path d="M35.9840 14.3883
L35.9840 14.5697
" />
<path d="M35.9840 14.5697
L35.9236 14.6907
" />
<path d="M35.9236 14.6907
L35.8631 14.7512
" />
<path d="M35.8631 14.7512
L35.7421 14.8116
" />
<path d="M35.7421 14.8116
L35.2583 14.8116
" />
<path d="M35.2583 14.8116
L35.2583 13.5416
" />
<path d="M35.2583 13.5416
L35.6817 13.5416
" />
<path d="M35.6817 13.5416
L35.8026 13.6021
" />
<path d="M35.8026 13.6021
L35.8631 13.6626
" />
<path d="M35.8631 13.6626
L35.9236 13.7835
" />
<path d="M35.9236 13.7835
L35.9236 13.9045
" />
<path d="M35.9236 13.9045
L35.8631 14.0254
" />
<path d="M35.8631 14.0254
L35.8026 14.0859
" />
<path d="M35.8026 14.0859
L35.6817 14.1464
" />
<path d="M35.6817 14.1464
L35.2583 14.1464
" />
<path d="M37.1936 14.8116
L36.4679 14.8116
" />
<path d="M36.8307 14.8116
L36.8307 13.5416
" />
<path d="M36.8307 13.5416
L36.7098 13.7231
" />
<path d="M36.7098 13.7231
L36.5888 13.8440
" />
<path d="M36.5888 13.8440
L36.4679 13.9045
" />
</g></g>
<g style="fill:#A90000; fill-opacity:0.0; 
stroke:#A90000; stroke-width:0.1524; stroke-opacity:1; 
stroke-linecap:round; stroke-linejoin:round;">
<text x="30.7650" y="13.9701"
textLength="1.3365" font-size="1.6933" lengthAdjust="spacingAndGlyphs"
text-anchor="middle" opacity="0">2</text>
<g class="stroked-text"><desc>2</desc>
<path d="M30.4022 12.6656
L30.4626 12.6051
" />
<path d="M30.4626 12.6051
L30.5836 12.5446
" />
<path d="M30.5836 12.5446
L30.8860 12.5446
" />
<path d="M30.8860 12.5446
L31.0069 12.6051
" />
<path d="M31.0069 12.6051
L31.0674 12.6656
" />
<path d="M31.0674 12.6656
L31.1279 12.7865
" />
<path d="M31.1279 12.7865
L31.1279 12.9075
" />
<path d="M31.1279 12.9075
L31.0674 13.0889
" />
<path d="M31.0674 13.0889
L30.3417 13.8146
" />
<path d="M30.3417 13.8146
L31.1279 13.8146
" />
</g></g>
<g style="fill:#840000; fill-opacity:0.0; 
stroke:#840000; stroke-width:0.1524; stroke-opacity:1; 
stroke-linecap:round; stroke-linejoin:round;">
<path d="M32.6700 16.7641
L28.8600 16.7641
" />
</g>
<g style="fill:#006464; fill-opacity:0.0; 
stroke:#006464; stroke-width:0.1524; stroke-opacity:1; 
stroke-linecap:round; stroke-linejoin:round;">
<text x="33.6860" y="17.3991"
textLength="3.8765" font-size="1.6933" lengthAdjust="spacingAndGlyphs"
text-anchor="start" opacity="0">DB2</text>
<g class="stroked-text"><desc>DB2</desc>
<path d="M33.9883 17.3516
L33.9883 16.0816
" />
<path d="M33.9883 16.0816
L34.2907 16.0816
" />
<path d="M34.2907 16.0816
L34.4721 16.1421
" />
<path d="M34.4721 16.1421
L34.5931 16.2631
" />
<path d="M34.5931 16.2631
L34.6536 16.3840
" />
<path d="M34.6536 16.3840
L34.7140 16.6259
" />
<path d="M34.7140 16.6259
L34.7140 16.8073
" />
<path d="M34.7140 16.8073
L34.6536 17.0492
" />
<path d="M34.6536 17.0492
L34.5931 17.1702
" />
<path d="M34.5931 17.1702
L34.4721 17.2912
" />
<path d="M34.4721 17.2912
L34.2907 17.3516
" />
<path d="M34.2907 17.3516
L33.9883 17.3516
" />
<path d="M35.6817 16.6864
L35.8631 16.7469
" />
<path d="M35.8631 16.7469
L35.9236 16.8073
" />
<path d="M35.9236 16.8073
L35.9840 16.9283
" />
<path d="M35.9840 16.9283
L35.9840 17.1097
" />
<path d="M35.9840 17.1097
L35.9236 17.2307
" />
<path d="M35.9236 17.2307
L35.8631 17.2912
" />
<path d="M35.8631 17.2912
L35.7421 17.3516
" />
<path d="M35.7421 17.3516
L35.2583 17.3516
" />
<path d="M35.2583 17.3516
L35.2583 16.0816
" />
<path d="M35.2583 16.0816
L35.6817 16.0816
" />
<path d="M35.6817 16.0816
L35.8026 16.1421
" />
<path d="M35.8026 16.1421
L35.8631 16.2026
" />
<path d="M35.8631 16.2026
L35.9236 16.3235
" />
<path d="M35.9236 16.3235
L35.9236 16.4445
" />
<path d="M35.9236 16.4445
L35.8631 16.5654
" />
<path d="M35.8631 16.5654
L35.8026 16.6259
" />
<path d="M35.8026 16.6259
L35.6817 16.6864
" />
<path d="M35.6817 16.6864
L35.2583 16.6864
" />
<path d="M36.4679 16.2026
L36.5283 16.1421
" />
<path d="M36.5283 16.1421
L36.6493 16.0816
" />
<path d="M36.6493 16.0816
L36.9517 16.0816
" />
<path d="M36.9517 16.0816
L37.0726 16.1421
" />
<path d="M37.0726 16.1421
L37.1331 16.2026
" />
<path d="M37.1331 16.2026
L37.1936 16.3235
" />
<path d="M37.1936 16.3235
L37.1936 16.4445
" />
<path d="M37.1936 16.4445
L37.1331 16.6259
" />
<path d="M37.1331 16.6259
L36.4074 17.3516
" />
<path d="M36.4074 17.3516
L37.1936 17.3516
" />
</g></g>
<g style="fill:#A90000; fill-opacity:0.0; 
stroke:#A90000; stroke-width:0.1524; stroke-opacity:1; 
stroke-linecap:round; stroke-linejoin:round;">
<text x="30.7650" y="16.5101"
textLength="1.3365" font-size="1.6933" lengthAdjust="spacingAndGlyphs"
text-anchor="middle" opacity="0">3</text>
<g class="stroked-text"><desc>3</desc>
<path d="M30.3417 15.0846
L31.1279 15.0846
" />
<path d="M31.1279 15.0846
L30.7045 15.5684
" />
<path d="M30.7045 15.5684
L30.8860 15.5684
" />
<path d="M30.8860 15.5684
L31.0069 15.6289
" />
<path d="M31.0069 15.6289
L31.0674 15.6894
" />
<path d="M31.0674 15.6894
L31.1279 15.8103
" />
<path d="M31.1279 15.8103
L31.1279 16.1127
" />
<path d="M31.1279 16.1127
L31.0674 16.2337
" />
<path d="M31.0674 16.2337
L31.0069 16.2942
" />
<path d="M31.0069 16.2942
L30.8860 16.3546
" />
<path d="M30.8860 16.3546
L30.5231 16.3546
" />
<path d="M30.5231 16.3546
L30.4022 16.2942
" />
<path d="M30.4022 16.2942
L30.3417 16.2337
" />
</g></g>
<g style="fill:#840000; fill-opacity:0.0; 
stroke:#840000; stroke-width:0.1524; stroke-opacity:1; 
stroke-linecap:round; stroke-linejoin:round;">
<path d="M32.6700 19.3041
L28.8600 19.3041
" />
</g>
<g style="fill:#006464; fill-opacity:0.0; 
stroke:#006464; stroke-width:0.1524; stroke-opacity:1; 
stroke-linecap:round; stroke-linejoin:round;">
<text x="33.6860" y="19.9391"
textLength="3.8765" font-size="1.6933" lengthAdjust="spacingAndGlyphs"
text-anchor="start" opacity="0">DB3</text>
<g class="stroked-text"><desc>DB3</desc>
<path d="M33.9883 19.8916
L33.9883 18.6216
" />
<path d="M33.9883 18.6216
L34.2907 18.6216
" />
<path d="M34.2907 18.6216
L34.4721 18.6821
" />
<path d="M34.4721 18.6821
L34.5931 18.8031
" />
<path d="M34.5931 18.8031
L34.6536 18.9240
" />
<path d="M34.6536 18.9240
L34.7140 19.1659
" />
<path d="M34.7140 19.1659
L34.7140 19.3473
" />
<path d="M34.7140 19.3473
L34.6536 19.5892
" />
<path d="M34.6536 19.5892
L34.5931 19.7102
" />
<path d="M34.5931 19.7102
L34.4721 19.8312
" />
<path d="M34.4721 19.8312
L34.2907 19.8916
" />
<path d="M34.2907 19.8916
L33.9883 19.8916
" />
<path d="M35.6817 19.2264
L35.8631 19.2869
" />
<path d="M35.8631 19.2869
L35.9236 19.3473
" />
<path d="M35.9236 19.3473
L35.9840 19.4683
" />
<path d="M35.9840 19.4683
L35.9840 19.6497
" />
<path d="M35.9840 19.6497
L35.9236 19.7707
" />
<path d="M35.9236 19.7707
L35.8631 19.8312
" />
<path d="M35.8631 19.8312
L35.7421 19.8916
" />
<path d="M35.7421 19.8916
L35.2583 19.8916
" />
<path d="M35.2583 19.8916
L35.2583 18.6216
" />
<path d="M35.2583 18.6216
L35.6817 18.6216
" />
<path d="M35.6817 18.6216
L35.8026 18.6821
" />
<path d="M35.8026 18.6821
L35.8631 18.7426
" />
<path d="M35.8631 18.7426
L35.9236 18.8635
" />
<path d="M35.9236 18.8635
L35.9236 18.9845
" />
<path d="M35.9236 18.9845
L35.8631 19.1054
" />
<path d="M35.8631 19.1054
L35.8026 19.1659
" />
<path d="M35.8026 19.1659
L35.6817 19.2264
" />
<path d="M35.6817 19.2264
L35.2583 19.2264
" />
<path d="M36.4074 18.6216
L37.1936 18.6216
" />
<path d="M37.1936 18.6216
L36.7702 19.1054
" />
<path d="M36.7702 19.1054
L36.9517 19.1054
" />
<path d="M36.9517 19.1054
L37.0726 19.1659
" />
<path d="M37.0726 19.1659
L37.1331 19.2264
" />
<path d="M37.1331 19.2264
L37.1936 19.3473
" />
<path d="M37.1936 19.3473
L37.1936 19.6497
" />
<path d="M37.1936 19.6497
L37.1331 19.7707
" />
<path d="M37.1331 19.7707
L37.0726 19.8312
" />
<path d="M37.0726 19.8312
L36.9517 19.8916
" />
<path d="M36.9517 19.8916
L36.5888 19.8916
" />
<path d="M36.5888 19.8916
L36.4679 19.8312
" />
<path d="M36.4679 19.8312
L36.4074 19.7707
" />
</g></g>
<g style="fill:#A90000; fill-opacity:0.0; 
stroke:#A90000; stroke-width:0.1524; stroke-opacity:1; 
stroke-linecap:round; stroke-linejoin:round;">
<text x="30.7650" y="19.0501"
textLength="1.3365" font-size="1.6933" lengthAdjust="spacingAndGlyphs"
text-anchor="middle" opacity="0">4</text>
<g class="stroked-text"><desc>4</desc>
<path d="M31.0069 18.0480
L31.0069 18.8946
" />
<path d="M30.7045 17.5642
L30.4022 18.4713
" />
<path d="M30.4022 18.4713
L31.1883 18.4713
" />
</g></g>
<g style="fill:#840000; fill-opacity:0.0; 
stroke:#840000; stroke-width:0.1524; stroke-opacity:1; 
stroke-linecap:round; stroke-linejoin:round;">
<path d="M32.6700 21.8441
L28.8600 21.8441
" />
</g>
<g style="fill:#006464; fill-opacity:0.0; 
stroke:#006464; stroke-width:0.1524; stroke-opacity:1; 
stroke-linecap:round; stroke-linejoin:round;">
<text x="33.6860" y="22.4791"
textLength="3.8765" font-size="1.6933" lengthAdjust="spacingAndGlyphs"
text-anchor="start" opacity="0">DB4</text>
<g class="stroked-text"><desc>DB4</desc>
<path d="M33.9883 22.4316
L33.9883 21.1616
" />
<path d="M33.9883 21.1616
L34.2907 21.1616
" />
<path d="M34.2907 21.1616
L34.4721 21.2221
" />
<path d="M34.4721 21.2221
L34.5931 21.3431
" />
<path d="M34.5931 21.3431
L34.6536 21.4640
" />
<path d="M34.6536 21.4640
L34.7140 21.7059
" />
<path d="M34.7140 21.7059
L34.7140 21.8873
" />
<path d="M34.7140 21.8873
L34.6536 22.1292
" />
<path d="M34.6536 22.1292
L34.5931 22.2502
" />
<path d="M34.5931 22.2502
L34.4721 22.3712
" />
<path d="M34.4721 22.3712
L34.2907 22.4316
" />
<path d="M34.2907 22.4316
L33.9883 22.4316
" />
<path d="M35.6817 21.7664
L35.8631 21.8269
" />
<path d="M35.8631 21.8269
L35.9236 21.8873
" />
<path d="M35.9236 21.8873
L35.9840 22.0083
" />
<path d="M35.9840 22.0083
L35.9840 22.1897
" />
<path d="M35.9840 22.1897
L35.9236 22.3107
" />
<path d="M35.9236 22.3107
L35.8631 22.3712
" />
<path d="M35.8631 22.3712
L35.7421 22.4316
" />
<path d="M35.7421 22.4316
L35.2583 22.4316
" />
<path d="M35.2583 22.4316
L35.2583 21.1616
" />
<path d="M35.2583 21.1616
L35.6817 21.1616
" />
<path d="M35.6817 21.1616
L35.8026 21.2221
" />
<path d="M35.8026 21.2221
L35.8631 21.2826
" />
<path d="M35.8631 21.2826
L35.9236 21.4035
" />
<path d="M35.9236 21.4035
L35.9236 21.5245
" />
<path d="M35.9236 21.5245
L35.8631 21.6454
" />
<path d="M35.8631 21.6454
L35.8026 21.7059
" />
<path d="M35.8026 21.7059
L35.6817 21.7664
" />
<path d="M35.6817 21.7664
L35.2583 21.7664
" />
<path d="M37.0726 21.5850
L37.0726 22.4316
" />
<path d="M36.7702 21.1012
L36.4679 22.0083
" />
<path d="M36.4679 22.0083
L37.2540 22.0083
" />
</g></g>
<g style="fill:#A90000; fill-opacity:0.0; 
stroke:#A90000; stroke-width:0.1524; stroke-opacity:1; 
stroke-linecap:round; stroke-linejoin:round;">
<text x="30.7650" y="21.5901"
textLength="1.3365" font-size="1.6933" lengthAdjust="spacingAndGlyphs"
text-anchor="middle" opacity="0">5</text>
<g class="stroked-text"><desc>5</desc>
<path d="M31.0674 20.1646
L30.4626 20.1646
" />
<path d="M30.4626 20.1646
L30.4022 20.7694
" />
<path d="M30.4022 20.7694
L30.4626 20.7089
" />
<path d="M30.4626 20.7089
L30.5836 20.6484
" />
<path d="M30.5836 20.6484
L30.8860 20.6484
" />
<path d="M30.8860 20.6484
L31.0069 20.7089
" />
<path d="M31.0069 20.7089
L31.0674 20.7694
" />
<path d="M31.0674 20.7694
L31.1279 20.8903
" />
<path d="M31.1279 20.8903
L31.1279 21.1927
" />
<path d="M31.1279 21.1927
L31.0674 21.3137
" />
<path d="M31.0674 21.3137
L31.0069 21.3742
" />
<path d="M31.0069 21.3742
L30.8860 21.4346
" />
<path d="M30.8860 21.4346
L30.5836 21.4346
" />
<path d="M30.5836 21.4346
L30.4626 21.3742
" />
<path d="M30.4626 21.3742
L30.4022 21.3137
" />
</g></g>
<g style="fill:#840000; fill-opacity:0.0; 
stroke:#840000; stroke-width:0.1524; stroke-opacity:1; 
stroke-linecap:round; stroke-linejoin:round;">
<path d="M32.6700 24.3841
L28.8600 24.3841
" />
</g>
<g style="fill:#006464; fill-opacity:0.0; 
stroke:#006464; stroke-width:0.1524; stroke-opacity:1; 
stroke-linecap:round; stroke-linejoin:round;">
<text x="33.6860" y="25.0191"
textLength="3.8765" font-size="1.6933" lengthAdjust="spacingAndGlyphs"
text-anchor="start" opacity="0">DB5</text>
<g class="stroked-text"><desc>DB5</desc>
<path d="M33.9883 24.9716
L33.9883 23.7016
" />
<path d="M33.9883 23.7016
L34.2907 23.7016
" />
<path d="M34.2907 23.7016
L34.4721 23.7621
" />
<path d="M34.4721 23.7621
L34.5931 23.8831
" />
<path d="M34.5931 23.8831
L34.6536 24.0040
" />
<path d="M34.6536 24.0040
L34.7140 24.2459
" />
<path d="M34.7140 24.2459
L34.7140 24.4273
" />
<path d="M34.7140 24.4273
L34.6536 24.6692
" />
<path d="M34.6536 24.6692
L34.5931 24.7902
" />
<path d="M34.5931 24.7902
L34.4721 24.9112
" />
<path d="M34.4721 24.9112
L34.2907 24.9716
" />
<path d="M34.2907 24.9716
L33.9883 24.9716
" />
<path d="M35.6817 24.3064
L35.8631 24.3669
" />
<path d="M35.8631 24.3669
L35.9236 24.4273
" />
<path d="M35.9236 24.4273
L35.9840 24.5483
" />
<path d="M35.9840 24.5483
L35.9840 24.7297
" />
<path d="M35.9840 24.7297
L35.9236 24.8507
" />
<path d="M35.9236 24.8507
L35.8631 24.9112
" />
<path d="M35.8631 24.9112
L35.7421 24.9716
" />
<path d="M35.7421 24.9716
L35.2583 24.9716
" />
<path d="M35.2583 24.9716
L35.2583 23.7016
" />
<path d="M35.2583 23.7016
L35.6817 23.7016
" />
<path d="M35.6817 23.7016
L35.8026 23.7621
" />
<path d="M35.8026 23.7621
L35.8631 23.8226
" />
<path d="M35.8631 23.8226
L35.9236 23.9435
" />
<path d="M35.9236 23.9435
L35.9236 24.0645
" />
<path d="M35.9236 24.0645
L35.8631 24.1854
" />
<path d="M35.8631 24.1854
L35.8026 24.2459
" />
<path d="M35.8026 24.2459
L35.6817 24.3064
" />
<path d="M35.6817 24.3064
L35.2583 24.3064
" />
<path d="M37.1331 23.7016
L36.5283 23.7016
" />
<path d="M36.5283 23.7016
L36.4679 24.3064
" />
<path d="M36.4679 24.3064
L36.5283 24.2459
" />
<path d="M36.5283 24.2459
L36.6493 24.1854
" />
<path d="M36.6493 24.1854
L36.9517 24.1854
" />
<path d="M36.9517 24.1854
L37.0726 24.2459
" />
<path d="M37.0726 24.2459
L37.1331 24.3064
" />
<path d="M37.1331 24.3064
L37.1936 24.4273
" />
<path d="M37.1936 24.4273
L37.1936 24.7297
" />
<path d="M37.1936 24.7297
L37.1331 24.8507
" />
<path d="M37.1331 24.8507
L37.0726 24.9112
" />
<path d="M37.0726 24.9112
L36.9517 24.9716
" />
<path d="M36.9517 24.9716
L36.6493 24.9716
" />
<path d="M36.6493 24.9716
L36.5283 24.9112
" />
<path d="M36.5283 24.9112
L36.4679 24.8507
" />
</g></g>
<g style="fill:#A90000; fill-opacity:0.0; 
stroke:#A90000; stroke-width:0.1524; stroke-opacity:1; 
stroke-linecap:round; stroke-linejoin:round;">
<text x="30.7650" y="24.1301"
textLength="1.3365" font-size="1.6933" lengthAdjust="spacingAndGlyphs"
text-anchor="middle" opacity="0">6</text>
<g class="stroked-text"><desc>6</desc>
<path d="M31.0069 22.7046
L30.7650 22.7046
" />
<path d="M30.7650 22.7046
L30.6441 22.7651
" />
<path d="M30.6441 22.7651
L30.5836 22.8256
" />
<path d="M30.5836 22.8256
L30.4626 23.0070
" />
<path d="M30.4626 23.0070
L30.4022 23.2489
" />
<path d="M30.4022 23.2489
L30.4022 23.7327
" />
<path d="M30.4022 23.7327
L30.4626 23.8537
" />
<path d="M30.4626 23.8537
L30.5231 23.9142
" />
<path d="M30.5231 23.9142
L30.6441 23.9746
" />
<path d="M30.6441 23.9746
L30.8860 23.9746
" />
<path d="M30.8860 23.9746
L31.0069 23.9142
" />
<path d="M31.0069 23.9142
L31.0674 23.8537
" />
<path d="M31.0674 23.8537
L31.1279 23.7327
" />
<path d="M31.1279 23.7327
L31.1279 23.4303
" />
<path d="M31.1279 23.4303
L31.0674 23.3094
" />
<path d="M31.0674 23.3094
L31.0069 23.2489
" />
<path d="M31.0069 23.2489
L30.8860 23.1884
" />
<path d="M30.8860 23.1884
L30.6441 23.1884
" />
<path d="M30.6441 23.1884
L30.5231 23.2489
" />
<path d="M30.5231 23.2489
L30.4626 23.3094
" />
<path d="M30.4626 23.3094
L30.4022 23.4303
" />
</g></g>
<g style="fill:#840000; fill-opacity:0.0; 
stroke:#840000; stroke-width:0.1524; stroke-opacity:1; 
stroke-linecap:round; stroke-linejoin:round;">
<path d="M32.6700 26.9241
L28.8600 26.9241
" />
</g>
<g style="fill:#006464; fill-opacity:0.0; 
stroke:#006464; stroke-width:0.1524; stroke-opacity:1; 
stroke-linecap:round; stroke-linejoin:round;">
<text x="33.6860" y="27.5591"
textLength="3.8765" font-size="1.6933" lengthAdjust="spacingAndGlyphs"
text-anchor="start" opacity="0">DB6</text>
<g class="stroked-text"><desc>DB6</desc>
<path d="M33.9883 27.5116
L33.9883 26.2416
" />
<path d="M33.9883 26.2416
L34.2907 26.2416
" />
<path d="M34.2907 26.2416
L34.4721 26.3021
" />
<path d="M34.4721 26.3021
L34.5931 26.4231
" />
<path d="M34.5931 26.4231
L34.6536 26.5440
" />
<path d="M34.6536 26.5440
L34.7140 26.7859
" />
<path d="M34.7140 26.7859
L34.7140 26.9673
" />
<path d="M34.7140 26.9673
L34.6536 27.2092
" />
<path d="M34.6536 27.2092
L34.5931 27.3302
" />
<path d="M34.5931 27.3302
L34.4721 27.4512
" />
<path d="M34.4721 27.4512
L34.2907 27.5116
" />
<path d="M34.2907 27.5116
L33.9883 27.5116
" />
<path d="M35.6817 26.8464
L35.8631 26.9069
" />
<path d="M35.8631 26.9069
L35.9236 26.9673
" />
<path d="M35.9236 26.9673
L35.9840 27.0883
" />
<path d="M35.9840 27.0883
L35.9840 27.2697
" />
<path d="M35.9840 27.2697
L35.9236 27.3907
" />
<path d="M35.9236 27.3907
L35.8631 27.4512
" />
<path d="M35.8631 27.4512
L35.7421 27.5116
" />
<path d="M35.7421 27.5116
L35.2583 27.5116
" />
<path d="M35.2583 27.5116
L35.2583 26.2416
" />
<path d="M35.2583 26.2416
L35.6817 26.2416
" />
<path d="M35.6817 26.2416
L35.8026 26.3021
" />
<path d="M35.8026 26.3021
L35.8631 26.3626
" />
<path d="M35.8631 26.3626
L35.9236 26.4835
" />
<path d="M35.9236 26.4835
L35.9236 26.6045
" />
<path d="M35.9236 26.6045
L35.8631 26.7254
" />
<path d="M35.8631 26.7254
L35.8026 26.7859
" />
<path d="M35.8026 26.7859
L35.6817 26.8464
" />
<path d="M35.6817 26.8464
L35.2583 26.8464
" />
<path d="M37.0726 26.2416
L36.8307 26.2416
" />
<path d="M36.8307 26.2416
L36.7098 26.3021
" />
<path d="M36.7098 26.3021
L36.6493 26.3626
" />
<path d="M36.6493 26.3626
L36.5283 26.5440
" />
<path d="M36.5283 26.5440
L36.4679 26.7859
" />
<path d="M36.4679 26.7859
L36.4679 27.2697
" />
<path d="M36.4679 27.2697
L36.5283 27.3907
" />
<path d="M36.5283 27.3907
L36.5888 27.4512
" />
<path d="M36.5888 27.4512
L36.7098 27.5116
" />
<path d="M36.7098 27.5116
L36.9517 27.5116
" />
<path d="M36.9517 27.5116
L37.0726 27.4512
" />
<path d="M37.0726 27.4512
L37.1331 27.3907
" />
<path d="M37.1331 27.3907
L37.1936 27.2697
" />
<path d="M37.1936 27.2697
L37.1936 26.9673
" />
<path d="M37.1936 26.9673
L37.1331 26.8464
" />
<path d="M37.1331 26.8464
L37.0726 26.7859
" />
<path d="M37.0726 26.7859
L36.9517 26.7254
" />
<path d="M36.9517 26.7254
L36.7098 26.7254
" />
<path d="M36.7098 26.7254
L36.5888 26.7859
" />
<path d="M36.5888 26.7859
L36.5283 26.8464
" />
<path d="M36.5283 26.8464
L36.4679 26.9673
" />
</g></g>
<g style="fill:#A90000; fill-opacity:0.0; 
stroke:#A90000; stroke-width:0.1524; stroke-opacity:1; 
stroke-linecap:round; stroke-linejoin:round;">
<text x="30.7650" y="26.6701"
textLength="1.3365" font-size="1.6933" lengthAdjust="spacingAndGlyphs"
text-anchor="middle" opacity="0">7</text>
<g class="stroked-text"><desc>7</desc>
<path d="M30.3417 25.2446
L31.1883 25.2446
" />
<path d="M31.1883 25.2446
L30.6441 26.5146
" />
</g></g>
<g style="fill:#840000; fill-opacity:0.0; 
stroke:#840000; stroke-width:0.1524; stroke-opacity:1; 
stroke-linecap:round; stroke-linejoin:round;">
<path d="M32.6700 29.4641
L28.8600 29.4641
" />
</g>
<g style="fill:#006464; fill-opacity:0.0; 
stroke:#006464; stroke-width:0.1524; stroke-opacity:1; 
stroke-linecap:round; stroke-linejoin:round;">
<text x="33.6860" y="30.0991"
textLength="3.8765" font-size="1.6933" lengthAdjust="spacingAndGlyphs"
text-anchor="start" opacity="0">DB7</text>
<g class="stroked-text"><desc>DB7</desc>
<path d="M33.9883 30.0516
L33.9883 28.7816
" />
<path d="M33.9883 28.7816
L34.2907 28.7816
" />
<path d="M34.2907 28.7816
L34.4721 28.8421
" />
<path d="M34.4721 28.8421
L34.5931 28.9631
" />
<path d="M34.5931 28.9631
L34.6536 29.0840
" />
<path d="M34.6536 29.0840
L34.7140 29.3259
" />
<path d="M34.7140 29.3259
L34.7140 29.5073
" />
<path d="M34.7140 29.5073
L34.6536 29.7492
" />
<path d="M34.6536 29.7492
L34.5931 29.8702
" />
<path d="M34.5931 29.8702
L34.4721 29.9912
" />
<path d="M34.4721 29.9912
L34.2907 30.0516
" />
<path d="M34.2907 30.0516
L33.9883 30.0516
" />
<path d="M35.6817 29.3864
L35.8631 29.4469
" />
<path d="M35.8631 29.4469
L35.9236 29.5073
" />
<path d="M35.9236 29.5073
L35.9840 29.6283
" />
<path d="M35.9840 29.6283
L35.9840 29.8097
" />
<path d="M35.9840 29.8097
L35.9236 29.9307
" />
<path d="M35.9236 29.9307
L35.8631 29.9912
" />
<path d="M35.8631 29.9912
L35.7421 30.0516
" />
<path d="M35.7421 30.0516
L35.2583 30.0516
" />
<path d="M35.2583 30.0516
L35.2583 28.7816
" />
<path d="M35.2583 28.7816
L35.6817 28.7816
" />
<path d="M35.6817 28.7816
L35.8026 28.8421
" />
<path d="M35.8026 28.8421
L35.8631 28.9026
" />
<path d="M35.8631 28.9026
L35.9236 29.0235
" />
<path d="M35.9236 29.0235
L35.9236 29.1445
" />
<path d="M35.9236 29.1445
L35.8631 29.2654
" />
<path d="M35.8631 29.2654
L35.8026 29.3259
" />
<path d="M35.8026 29.3259
L35.6817 29.3864
" />
<path d="M35.6817 29.3864
L35.2583 29.3864
" />
<path d="M36.4074 28.7816
L37.2540 28.7816
" />
<path d="M37.2540 28.7816
L36.7098 30.0516
" />
</g></g>
<g style="fill:#A90000; fill-opacity:0.0; 
stroke:#A90000; stroke-width:0.1524; stroke-opacity:1; 
stroke-linecap:round; stroke-linejoin:round;">
<text x="30.7650" y="29.2101"
textLength="1.3365" font-size="1.6933" lengthAdjust="spacingAndGlyphs"
text-anchor="middle" opacity="0">8</text>
<g class="stroked-text"><desc>8</desc>
<path d="M30.6441 28.3289
L30.5231 28.2684
" />
<path d="M30.5231 28.2684
L30.4626 28.2080
" />
<path d="M30.4626 28.2080
L30.4022 28.0870
" />
<path d="M30.4022 28.0870
L30.4022 28.0265
" />
<path d="M30.4022 28.0265
L30.4626 27.9056
" />
<path d="M30.4626 27.9056
L30.5231 27.8451
" />
<path d="M30.5231 27.8451
L30.6441 27.7846
" />
<path d="M30.6441 27.7846
L30.8860 27.7846
" />
<path d="M30.8860 27.7846
L31.0069 27.8451
" />
<path d="M31.0069 27.8451
L31.0674 27.9056
" />
<path d="M31.0674 27.9056
L31.1279 28.0265
" />
<path d="M31.1279 28.0265
L31.1279 28.0870
" />
<path d="M31.1279 28.0870
L31.0674 28.2080
" />
<path d="M31.0674 28.2080
L31.0069 28.2684
" />
<path d="M31.0069 28.2684
L30.8860 28.3289
" />
<path d="M30.8860 28.3289
L30.6441 28.3289
" />
<path d="M30.6441 28.3289
L30.5231 28.3894
" />
<path d="M30.5231 28.3894
L30.4626 28.4499
" />
<path d="M30.4626 28.4499
L30.4022 28.5708
" />
<path d="M30.4022 28.5708
L30.4022 28.8127
" />
<path d="M30.4022 28.8127
L30.4626 28.9337
" />
<path d="M30.4626 28.9337
L30.5231 28.9942
" />
<path d="M30.5231 28.9942
L30.6441 29.0546
" />
<path d="M30.6441 29.0546
L30.8860 29.0546
" />
<path d="M30.8860 29.0546
L31.0069 28.9942
" />
<path d="M31.0069 28.9942
L31.0674 28.9337
" />
<path d="M31.0674 28.9337
L31.1279 28.8127
" />
<path d="M31.1279 28.8127
L31.1279 28.5708
" />
<path d="M31.1279 28.5708
L31.0674 28.4499
" />
<path d="M31.0674 28.4499
L31.0069 28.3894
" />
<path d="M31.0069 28.3894
L30.8860 28.3289
" />
</g></g>
<g style="fill:#840000; fill-opacity:0.0; 
stroke:#840000; stroke-width:0.1524; stroke-opacity:1; 
stroke-linecap:round; stroke-linejoin:round;">
<path d="M32.6700 34.5441
L28.8600 34.5441
" />
</g>
<g style="fill:#006464; fill-opacity:0.0; 
stroke:#006464; stroke-width:0.1524; stroke-opacity:1; 
stroke-linecap:round; stroke-linejoin:round;">
<text x="33.6860" y="35.1791"
textLength="2.5460" font-size="1.6933" lengthAdjust="spacingAndGlyphs"
text-anchor="start" opacity="0">~{CE}</text>
<g class="stroked-text"><desc>~{CE}</desc>
<path d="M34.7140 35.0107
L34.6536 35.0712
" />
<path d="M34.6536 35.0712
L34.4721 35.1316
" />
<path d="M34.4721 35.1316
L34.3512 35.1316
" />
<path d="M34.3512 35.1316
L34.1698 35.0712
" />
<path d="M34.1698 35.0712
L34.0488 34.9502
" />
<path d="M34.0488 34.9502
L33.9883 34.8292
" />
<path d="M33.9883 34.8292
L33.9279 34.5873
" />
<path d="M33.9279 34.5873
L33.9279 34.4059
" />
<path d="M33.9279 34.4059
L33.9883 34.1640
" />
<path d="M33.9883 34.1640
L34.0488 34.0431
" />
<path d="M34.0488 34.0431
L34.1698 33.9221
" />
<path d="M34.1698 33.9221
L34.3512 33.8616
" />
<path d="M34.3512 33.8616
L34.4721 33.8616
" />
<path d="M34.4721 33.8616
L34.6536 33.9221
" />
<path d="M34.6536 33.9221
L34.7140 33.9826
" />
<path d="M35.2583 34.4664
L35.6817 34.4664
" />
<path d="M35.8631 35.1316
L35.2583 35.1316
" />
<path d="M35.2583 35.1316
L35.2583 33.8616
" />
<path d="M35.2583 33.8616
L35.8631 33.8616
" />
<path d="M33.8130 33.2932
L35.9780 33.2932
" />
</g></g>
<g style="fill:#A90000; fill-opacity:0.0; 
stroke:#A90000; stroke-width:0.1524; stroke-opacity:1; 
stroke-linecap:round; stroke-linejoin:round;">
<text x="30.7650" y="34.2901"
textLength="1.3365" font-size="1.6933" lengthAdjust="spacingAndGlyphs"
text-anchor="middle" opacity="0">9</text>
<g class="stroked-text"><desc>9</desc>
<path d="M30.5231 34.1346
L30.7650 34.1346
" />
<path d="M30.7650 34.1346
L30.8860 34.0742
" />
<path d="M30.8860 34.0742
L30.9464 34.0137
" />
<path d="M30.9464 34.0137
L31.0674 33.8322
" />
<path d="M31.0674 33.8322
L31.1279 33.5903
" />
<path d="M31.1279 33.5903
L31.1279 33.1065
" />
<path d="M31.1279 33.1065
L31.0674 32.9856
" />
<path d="M31.0674 32.9856
L31.0069 32.9251
" />
<path d="M31.0069 32.9251
L30.8860 32.8646
" />
<path d="M30.8860 32.8646
L30.6441 32.8646
" />
<path d="M30.6441 32.8646
L30.5231 32.9251
" />
<path d="M30.5231 32.9251
L30.4626 32.9856
" />
<path d="M30.4626 32.9856
L30.4022 33.1065
" />
<path d="M30.4022 33.1065
L30.4022 33.4089
" />
<path d="M30.4022 33.4089
L30.4626 33.5299
" />
<path d="M30.4626 33.5299
L30.5231 33.5903
" />
<path d="M30.5231 33.5903
L30.6441 33.6508
" />
<path d="M30.6441 33.6508
L30.8860 33.6508
" />
<path d="M30.8860 33.6508
L31.0069 33.5903
" />
<path d="M31.0069 33.5903
L31.0674 33.5299
" />
<path d="M31.0674 33.5299
L31.1279 33.4089
" />
</g></g>
<g style="fill:#840084; fill-opacity:0.0; 
stroke:#840084; stroke-width:0.1524; stroke-opacity:1; 
stroke-linecap:round; stroke-linejoin:round;">
</g>
<g style="fill:#006464; fill-opacity:0.0; 
stroke:#006464; stroke-width:0.1524; stroke-opacity:1; 
stroke-linecap:round; stroke-linejoin:round;">
</g>
<g style="fill:#006464; fill-opacity:0.0; 
stroke:#006464; stroke-width:0.1588; stroke-opacity:1; 
stroke-linecap:round; stroke-linejoin:round;">
<text x="33.9510" y="7.2391"
textLength="2.5621" font-size="1.6933" lengthAdjust="spacingAndGlyphs"
text-anchor="middle" opacity="0">U?</text>
<g class="stroked-text"><desc>U?</desc>
<path d="M33.0438 5.9216
L33.0438 6.9497
" />
<path d="M33.0438 6.9497
L33.1043 7.0707
" />
<path d="M33.1043 7.0707
L33.1648 7.1312
" />
<path d="M33.1648 7.1312
L33.2857 7.1916
" />
<path d="M33.2857 7.1916
L33.5276 7.1916
" />
<path d="M33.5276 7.1916
L33.6486 7.1312
" />
<path d="M33.6486 7.1312
L33.7091 7.0707
" />
<path d="M33.7091 7.0707
L33.7695 6.9497
" />
<path d="M33.7695 6.9497
L33.7695 5.9216
" />
<path d="M34.5558 7.0707
L34.6162 7.1312
" />
<path d="M34.6162 7.1312
L34.5558 7.1916
" />
<path d="M34.5558 7.1916
L34.4953 7.1312
" />
<path d="M34.4953 7.1312
L34.5558 7.0707
" />
<path d="M34.5558 7.0707
L34.5558 7.1916
" />
<path d="M34.3139 5.9821
L34.4348 5.9216
" />
<path d="M34.4348 5.9216
L34.7372 5.9216
" />
<path d="M34.7372 5.9216
L34.8581 5.9821
" />
<path d="M34.8581 5.9821
L34.9186 6.1031
" />
<path d="M34.9186 6.1031
L34.9186 6.2240
" />
<path d="M34.9186 6.2240
L34.8581 6.3450
" />
<path d="M34.8581 6.3450
L34.7977 6.4054
" />
<path d="M34.7977 6.4054
L34.6767 6.4659
" />
<path d="M34.6767 6.4659
L34.6162 6.5264
" />
<path d="M34.6162 6.5264
L34.5558 6.6473
" />
<path d="M34.5558 6.6473
L34.5558 6.7078
" />
</g><text x="48.3141" y="7.2391"
textLength="8.4282" font-size="1.6933" lengthAdjust="spacingAndGlyphs"
text-anchor="middle" opacity="0">AD558JN</text>
<g class="stroked-text"><desc>AD558JN</desc>
<path d="M44.4134 6.8288
L45.0181 6.8288
" />
<path d="M44.2924 7.1916
L44.7157 5.9216
" />
<path d="M44.7157 5.9216
L45.1391 7.1916
" />
<path d="M45.5624 7.1916
L45.5624 5.9216
" />
<path d="M45.5624 5.9216
L45.8648 5.9216
" />
<path d="M45.8648 5.9216
L46.0462 5.9821
" />
<path d="M46.0462 5.9821
L46.1672 6.1031
" />
<path d="M46.1672 6.1031
L46.2277 6.2240
" />
<path d="M46.2277 6.2240
L46.2881 6.4659
" />
<path d="M46.2881 6.4659
L46.2881 6.6473
" />
<path d="M46.2881 6.6473
L46.2277 6.8892
" />
<path d="M46.2277 6.8892
L46.1672 7.0102
" />
<path d="M46.1672 7.0102
L46.0462 7.1312
" />
<path d="M46.0462 7.1312
L45.8648 7.1916
" />
<path d="M45.8648 7.1916
L45.5624 7.1916
" />
<path d="M47.4372 5.9216
L46.8324 5.9216
" />
<path d="M46.8324 5.9216
L46.7720 6.5264
" />
<path d="M46.7720 6.5264
L46.8324 6.4659
" />
<path d="M46.8324 6.4659
L46.9534 6.4054
" />
<path d="M46.9534 6.4054
L47.2558 6.4054
" />
<path d="M47.2558 6.4054
L47.3767 6.4659
" />
<path d="M47.3767 6.4659
L47.4372 6.5264
" />
<path d="M47.4372 6.5264
L47.4977 6.6473
" />
<path d="M47.4977 6.6473
L47.4977 6.9497
" />
<path d="M47.4977 6.9497
L47.4372 7.0707
" />
<path d="M47.4372 7.0707
L47.3767 7.1312
" />
<path d="M47.3767 7.1312
L47.2558 7.1916
" />
<path d="M47.2558 7.1916
L46.9534 7.1916
" />
<path d="M46.9534 7.1916
L46.8324 7.1312
" />
<path d="M46.8324 7.1312
L46.7720 7.0707
" />
<path d="M48.6467 5.9216
L48.0419 5.9216
" />
<path d="M48.0419 5.9216
L47.9815 6.5264
" />
<path d="M47.9815 6.5264
L48.0419 6.4659
" />
<path d="M48.0419 6.4659
L48.1629 6.4054
" />
<path d="M48.1629 6.4054
L48.4653 6.4054
" />
<path d="M48.4653 6.4054
L48.5862 6.4659
" />
<path d="M48.5862 6.4659
L48.6467 6.5264
" />
<path d="M48.6467 6.5264
L48.7072 6.6473
" />
<path d="M48.7072 6.6473
L48.7072 6.9497
" />
<path d="M48.7072 6.9497
L48.6467 7.0707
" />
<path d="M48.6467 7.0707
L48.5862 7.1312
" />
<path d="M48.5862 7.1312
L48.4653 7.1916
" />
<path d="M48.4653 7.1916
L48.1629 7.1916
" />
<path d="M48.1629 7.1916
L48.0419 7.1312
" />
<path d="M48.0419 7.1312
L47.9815 7.0707
" />
<path d="M49.4329 6.4659
L49.3119 6.4054
" />
<path d="M49.3119 6.4054
L49.2514 6.3450
" />
<path d="M49.2514 6.3450
L49.1910 6.2240
" />
<path d="M49.1910 6.2240
L49.1910 6.1635
" />
<path d="M49.1910 6.1635
L49.2514 6.0426
" />
<path d="M49.2514 6.0426
L49.3119 5.9821
" />
<path d="M49.3119 5.9821
L49.4329 5.9216
" />
<path d="M49.4329 5.9216
L49.6748 5.9216
" />
<path d="M49.6748 5.9216
L49.7957 5.9821
" />
<path d="M49.7957 5.9821
L49.8562 6.0426
" />
<path d="M49.8562 6.0426
L49.9167 6.1635
" />
<path d="M49.9167 6.1635
L49.9167 6.2240
" />
<path d="M49.9167 6.2240
L49.8562 6.3450
" />
<path d="M49.8562 6.3450
L49.7957 6.4054
" />
<path d="M49.7957 6.4054
L49.6748 6.4659
" />
<path d="M49.6748 6.4659
L49.4329 6.4659
" />
<path d="M49.4329 6.4659
L49.3119 6.5264
" />
<path d="M49.3119 6.5264
L49.2514 6.5869
" />
<path d="M49.2514 6.5869
L49.1910 6.7078
" />
<path d="M49.1910 6.7078
L49.1910 6.9497
" />
<path d="M49.1910 6.9497
L49.2514 7.0707
" />
<path d="M49.2514 7.0707
L49.3119 7.1312
" />
<path d="M49.3119 7.1312
L49.4329 7.1916
" />
<path d="M49.4329 7.1916
L49.6748 7.1916
" />
<path d="M49.6748 7.1916
L49.7957 7.1312
" />
<path d="M49.7957 7.1312
L49.8562 7.0707
" />
<path d="M49.8562 7.0707
L49.9167 6.9497
" />
<path d="M49.9167 6.9497
L49.9167 6.7078
" />
<path d="M49.9167 6.7078
L49.8562 6.5869
" />
<path d="M49.8562 6.5869
L49.7957 6.5264
" />
<path d="M49.7957 6.5264
L49.6748 6.4659
" />
<path d="M50.8238 5.9216
L50.8238 6.8288
" />
<path d="M50.8238 6.8288
L50.7633 7.0102
" />
<path d="M50.7633 7.0102
L50.6424 7.1312
" />
<path d="M50.6424 7.1312
L50.4609 7.1916
" />
<path d="M50.4609 7.1916
L50.3400 7.1916
" />
<path d="M51.4285 7.1916
L51.4285 5.9216
" />
<path d="M51.4285 5.9216
L52.1542 7.1916
" />
<path d="M52.1542 7.1916
L52.1542 5.9216
" />
</g></g>
<g style="fill:#840084; fill-opacity:0.0; 
stroke:#840084; stroke-width:0.1588; stroke-opacity:1; 
stroke-linecap:round; stroke-linejoin:round;">
<text x="41.5600" y="26.2891"
textLength="69.2668" font-size="1.6933" lengthAdjust="spacingAndGlyphs"
text-anchor="middle" opacity="0">https://www.analog.com/static/imported-files/data_sheets/AD558.pdf</text>
<g class="stroked-text"><desc>https://www.analog.com/static/imported-files/data_sheets/AD558.pdf</desc>
<path d="M7.3004 26.2416
L7.3004 24.9716
" />
<path d="M7.8447 26.2416
L7.8447 25.5764
" />
<path d="M7.8447 25.5764
L7.7842 25.4554
" />
<path d="M7.7842 25.4554
L7.6633 25.3950
" />
<path d="M7.6633 25.3950
L7.4819 25.3950
" />
<path d="M7.4819 25.3950
L7.3609 25.4554
" />
<path d="M7.3609 25.4554
L7.3004 25.5159
" />
<path d="M8.2680 25.3950
L8.7518 25.3950
" />
<path d="M8.4494 24.9716
L8.4494 26.0602
" />
<path d="M8.4494 26.0602
L8.5099 26.1812
" />
<path d="M8.5099 26.1812
L8.6309 26.2416
" />
<path d="M8.6309 26.2416
L8.7518 26.2416
" />
<path d="M8.9937 25.3950
L9.4775 25.3950
" />
<path d="M9.1751 24.9716
L9.1751 26.0602
" />
<path d="M9.1751 26.0602
L9.2356 26.1812
" />
<path d="M9.2356 26.1812
L9.3566 26.2416
" />
<path d="M9.3566 26.2416
L9.4775 26.2416
" />
<path d="M9.9008 25.3950
L9.9008 26.6650
" />
<path d="M9.9008 25.4554
L10.0218 25.3950
" />
<path d="M10.0218 25.3950
L10.2637 25.3950
" />
<path d="M10.2637 25.3950
L10.3846 25.4554
" />
<path d="M10.3846 25.4554
L10.4451 25.5159
" />
<path d="M10.4451 25.5159
L10.5056 25.6369
" />
<path d="M10.5056 25.6369
L10.5056 25.9997
" />
<path d="M10.5056 25.9997
L10.4451 26.1207
" />
<path d="M10.4451 26.1207
L10.3846 26.1812
" />
<path d="M10.3846 26.1812
L10.2637 26.2416
" />
<path d="M10.2637 26.2416
L10.0218 26.2416
" />
<path d="M10.0218 26.2416
L9.9008 26.1812
" />
<path d="M10.9894 26.1812
L11.1103 26.2416
" />
<path d="M11.1103 26.2416
L11.3522 26.2416
" />
<path d="M11.3522 26.2416
L11.4732 26.1812
" />
<path d="M11.4732 26.1812
L11.5336 26.0602
" />
<path d="M11.5336 26.0602
L11.5336 25.9997
" />
<path d="M11.5336 25.9997
L11.4732 25.8788
" />
<path d="M11.4732 25.8788
L11.3522 25.8183
" />
<path d="M11.3522 25.8183
L11.1708 25.8183
" />
<path d="M11.1708 25.8183
L11.0498 25.7578
" />
<path d="M11.0498 25.7578
L10.9894 25.6369
" />
<path d="M10.9894 25.6369
L10.9894 25.5764
" />
<path d="M10.9894 25.5764
L11.0498 25.4554
" />
<path d="M11.0498 25.4554
L11.1708 25.3950
" />
<path d="M11.1708 25.3950
L11.3522 25.3950
" />
<path d="M11.3522 25.3950
L11.4732 25.4554
" />
<path d="M12.0779 26.1207
L12.1384 26.1812
" />
<path d="M12.1384 26.1812
L12.0779 26.2416
" />
<path d="M12.0779 26.2416
L12.0175 26.1812
" />
<path d="M12.0175 26.1812
L12.0779 26.1207
" />
<path d="M12.0779 26.1207
L12.0779 26.2416
" />
<path d="M12.0779 25.4554
L12.1384 25.5159
" />
<path d="M12.1384 25.5159
L12.0779 25.5764
" />
<path d="M12.0779 25.5764
L12.0175 25.5159
" />
<path d="M12.0175 25.5159
L12.0779 25.4554
" />
<path d="M12.0779 25.4554
L12.0779 25.5764
" />
<path d="M13.5899 24.9112
L12.5013 26.5440
" />
<path d="M14.9204 24.9112
L13.8318 26.5440
" />
<path d="M15.2228 25.3950
L15.4647 26.2416
" />
<path d="M15.4647 26.2416
L15.7066 25.6369
" />
<path d="M15.7066 25.6369
L15.9485 26.2416
" />
<path d="M15.9485 26.2416
L16.1904 25.3950
" />
<path d="M16.5533 25.3950
L16.7952 26.2416
" />
<path d="M16.7952 26.2416
L17.0371 25.6369
" />
<path d="M17.0371 25.6369
L17.2790 26.2416
" />
<path d="M17.2790 26.2416
L17.5209 25.3950
" />
<path d="M17.8838 25.3950
L18.1257 26.2416
" />
<path d="M18.1257 26.2416
L18.3676 25.6369
" />
<path d="M18.3676 25.6369
L18.6095 26.2416
" />
<path d="M18.6095 26.2416
L18.8514 25.3950
" />
<path d="M19.3352 26.1207
L19.3957 26.1812
" />
<path d="M19.3957 26.1812
L19.3352 26.2416
" />
<path d="M19.3352 26.2416
L19.2748 26.1812
" />
<path d="M19.2748 26.1812
L19.3352 26.1207
" />
<path d="M19.3352 26.1207
L19.3352 26.2416
" />
<path d="M20.4843 26.2416
L20.4843 25.5764
" />
<path d="M20.4843 25.5764
L20.4238 25.4554
" />
<path d="M20.4238 25.4554
L20.3029 25.3950
" />
<path d="M20.3029 25.3950
L20.0610 25.3950
" />
<path d="M20.0610 25.3950
L19.9400 25.4554
" />
<path d="M20.4843 26.1812
L20.3634 26.2416
" />
<path d="M20.3634 26.2416
L20.0610 26.2416
" />
<path d="M20.0610 26.2416
L19.9400 26.1812
" />
<path d="M19.9400 26.1812
L19.8796 26.0602
" />
<path d="M19.8796 26.0602
L19.8796 25.9392
" />
<path d="M19.8796 25.9392
L19.9400 25.8183
" />
<path d="M19.9400 25.8183
L20.0610 25.7578
" />
<path d="M20.0610 25.7578
L20.3634 25.7578
" />
<path d="M20.3634 25.7578
L20.4843 25.6973
" />
<path d="M21.0890 25.3950
L21.0890 26.2416
" />
<path d="M21.0890 25.5159
L21.1495 25.4554
" />
<path d="M21.1495 25.4554
L21.2705 25.3950
" />
<path d="M21.2705 25.3950
L21.4519 25.3950
" />
<path d="M21.4519 25.3950
L21.5728 25.4554
" />
<path d="M21.5728 25.4554
L21.6333 25.5764
" />
<path d="M21.6333 25.5764
L21.6333 26.2416
" />
<path d="M22.7823 26.2416
L22.7823 25.5764
" />
<path d="M22.7823 25.5764
L22.7218 25.4554
" />
<path d="M22.7218 25.4554
L22.6009 25.3950
" />
<path d="M22.6009 25.3950
L22.3590 25.3950
" />
<path d="M22.3590 25.3950
L22.2380 25.4554
" />
<path d="M22.7823 26.1812
L22.6614 26.2416
" />
<path d="M22.6614 26.2416
L22.3590 26.2416
" />
<path d="M22.3590 26.2416
L22.2380 26.1812
" />
<path d="M22.2380 26.1812
L22.1776 26.0602
" />
<path d="M22.1776 26.0602
L22.1776 25.9392
" />
<path d="M22.1776 25.9392
L22.2380 25.8183
" />
<path d="M22.2380 25.8183
L22.3590 25.7578
" />
<path d="M22.3590 25.7578
L22.6614 25.7578
" />
<path d="M22.6614 25.7578
L22.7823 25.6973
" />
<path d="M23.5685 26.2416
L23.4475 26.1812
" />
<path d="M23.4475 26.1812
L23.3870 26.0602
" />
<path d="M23.3870 26.0602
L23.3870 24.9716
" />
<path d="M24.2337 26.2416
L24.1127 26.1812
" />
<path d="M24.1127 26.1812
L24.0522 26.1207
" />
<path d="M24.0522 26.1207
L23.9918 25.9997
" />
<path d="M23.9918 25.9997
L23.9918 25.6369
" />
<path d="M23.9918 25.6369
L24.0522 25.5159
" />
<path d="M24.0522 25.5159
L24.1127 25.4554
" />
<path d="M24.1127 25.4554
L24.2337 25.3950
" />
<path d="M24.2337 25.3950
L24.4151 25.3950
" />
<path d="M24.4151 25.3950
L24.5360 25.4554
" />
<path d="M24.5360 25.4554
L24.5965 25.5159
" />
<path d="M24.5965 25.5159
L24.6570 25.6369
" />
<path d="M24.6570 25.6369
L24.6570 25.9997
" />
<path d="M24.6570 25.9997
L24.5965 26.1207
" />
<path d="M24.5965 26.1207
L24.5360 26.1812
" />
<path d="M24.5360 26.1812
L24.4151 26.2416
" />
<path d="M24.4151 26.2416
L24.2337 26.2416
" />
<path d="M25.7455 25.3950
L25.7455 26.4231
" />
<path d="M25.7455 26.4231
L25.6850 26.5440
" />
<path d="M25.6850 26.5440
L25.6246 26.6045
" />
<path d="M25.6246 26.6045
L25.5036 26.6650
" />
<path d="M25.5036 26.6650
L25.3222 26.6650
" />
<path d="M25.3222 26.6650
L25.2012 26.6045
" />
<path d="M25.7455 26.1812
L25.6246 26.2416
" />
<path d="M25.6246 26.2416
L25.3827 26.2416
" />
<path d="M25.3827 26.2416
L25.2617 26.1812
" />
<path d="M25.2617 26.1812
L25.2012 26.1207
" />
<path d="M25.2012 26.1207
L25.1408 25.9997
" />
<path d="M25.1408 25.9997
L25.1408 25.6369
" />
<path d="M25.1408 25.6369
L25.2012 25.5159
" />
<path d="M25.2012 25.5159
L25.2617 25.4554
" />
<path d="M25.2617 25.4554
L25.3827 25.3950
" />
<path d="M25.3827 25.3950
L25.6246 25.3950
" />
<path d="M25.6246 25.3950
L25.7455 25.4554
" />
<path d="M26.3502 26.1207
L26.4107 26.1812
" />
<path d="M26.4107 26.1812
L26.3502 26.2416
" />
<path d="M26.3502 26.2416
L26.2898 26.1812
" />
<path d="M26.2898 26.1812
L26.3502 26.1207
" />
<path d="M26.3502 26.1207
L26.3502 26.2416
" />
<path d="M27.4993 26.1812
L27.3784 26.2416
" />
<path d="M27.3784 26.2416
L27.1365 26.2416
" />
<path d="M27.1365 26.2416
L27.0155 26.1812
" />
<path d="M27.0155 26.1812
L26.9550 26.1207
" />
<path d="M26.9550 26.1207
L26.8946 25.9997
" />
<path d="M26.8946 25.9997
L26.8946 25.6369
" />
<path d="M26.8946 25.6369
L26.9550 25.5159
" />
<path d="M26.9550 25.5159
L27.0155 25.4554
" />
<path d="M27.0155 25.4554
L27.1365 25.3950
" />
<path d="M27.1365 25.3950
L27.3784 25.3950
" />
<path d="M27.3784 25.3950
L27.4993 25.4554
" />
<path d="M28.2251 26.2416
L28.1041 26.1812
" />
<path d="M28.1041 26.1812
L28.0436 26.1207
" />
<path d="M28.0436 26.1207
L27.9832 25.9997
" />
<path d="M27.9832 25.9997
L27.9832 25.6369
" />
<path d="M27.9832 25.6369
L28.0436 25.5159
" />
<path d="M28.0436 25.5159
L28.1041 25.4554
" />
<path d="M28.1041 25.4554
L28.2251 25.3950
" />
<path d="M28.2251 25.3950
L28.4065 25.3950
" />
<path d="M28.4065 25.3950
L28.5274 25.4554
" />
<path d="M28.5274 25.4554
L28.5879 25.5159
" />
<path d="M28.5879 25.5159
L28.6484 25.6369
" />
<path d="M28.6484 25.6369
L28.6484 25.9997
" />
<path d="M28.6484 25.9997
L28.5879 26.1207
" />
<path d="M28.5879 26.1207
L28.5274 26.1812
" />
<path d="M28.5274 26.1812
L28.4065 26.2416
" />
<path d="M28.4065 26.2416
L28.2251 26.2416
" />
<path d="M29.1926 26.2416
L29.1926 25.3950
" />
<path d="M29.1926 25.5159
L29.2531 25.4554
" />
<path d="M29.2531 25.4554
L29.3741 25.3950
" />
<path d="M29.3741 25.3950
L29.5555 25.3950
" />
<path d="M29.5555 25.3950
L29.6764 25.4554
" />
<path d="M29.6764 25.4554
L29.7369 25.5764
" />
<path d="M29.7369 25.5764
L29.7369 26.2416
" />
<path d="M29.7369 25.5764
L29.7974 25.4554
" />
<path d="M29.7974 25.4554
L29.9183 25.3950
" />
<path d="M29.9183 25.3950
L30.0998 25.3950
" />
<path d="M30.0998 25.3950
L30.2207 25.4554
" />
<path d="M30.2207 25.4554
L30.2812 25.5764
" />
<path d="M30.2812 25.5764
L30.2812 26.2416
" />
<path d="M31.7931 24.9112
L30.7045 26.5440
" />
<path d="M32.1560 26.1812
L32.2769 26.2416
" />
<path d="M32.2769 26.2416
L32.5188 26.2416
" />
<path d="M32.5188 26.2416
L32.6398 26.1812
" />
<path d="M32.6398 26.1812
L32.7002 26.0602
" />
<path d="M32.7002 26.0602
L32.7002 25.9997
" />
<path d="M32.7002 25.9997
L32.6398 25.8788
" />
<path d="M32.6398 25.8788
L32.5188 25.8183
" />
<path d="M32.5188 25.8183
L32.3374 25.8183
" />
<path d="M32.3374 25.8183
L32.2164 25.7578
" />
<path d="M32.2164 25.7578
L32.1560 25.6369
" />
<path d="M32.1560 25.6369
L32.1560 25.5764
" />
<path d="M32.1560 25.5764
L32.2164 25.4554
" />
<path d="M32.2164 25.4554
L32.3374 25.3950
" />
<path d="M32.3374 25.3950
L32.5188 25.3950
" />
<path d="M32.5188 25.3950
L32.6398 25.4554
" />
<path d="M33.0631 25.3950
L33.5469 25.3950
" />
<path d="M33.2445 24.9716
L33.2445 26.0602
" />
<path d="M33.2445 26.0602
L33.3050 26.1812
" />
<path d="M33.3050 26.1812
L33.4260 26.2416
" />
<path d="M33.4260 26.2416
L33.5469 26.2416
" />
<path d="M34.5145 26.2416
L34.5145 25.5764
" />
<path d="M34.5145 25.5764
L34.4540 25.4554
" />
<path d="M34.4540 25.4554
L34.3331 25.3950
" />
<path d="M34.3331 25.3950
L34.0912 25.3950
" />
<path d="M34.0912 25.3950
L33.9702 25.4554
" />
<path d="M34.5145 26.1812
L34.3936 26.2416
" />
<path d="M34.3936 26.2416
L34.0912 26.2416
" />
<path d="M34.0912 26.2416
L33.9702 26.1812
" />
<path d="M33.9702 26.1812
L33.9098 26.0602
" />
<path d="M33.9098 26.0602
L33.9098 25.9392
" />
<path d="M33.9098 25.9392
L33.9702 25.8183
" />
<path d="M33.9702 25.8183
L34.0912 25.7578
" />
<path d="M34.0912 25.7578
L34.3936 25.7578
" />
<path d="M34.3936 25.7578
L34.5145 25.6973
" />
<path d="M34.9378 25.3950
L35.4216 25.3950
" />
<path d="M35.1192 24.9716
L35.1192 26.0602
" />
<path d="M35.1192 26.0602
L35.1797 26.1812
" />
<path d="M35.1797 26.1812
L35.3007 26.2416
" />
<path d="M35.3007 26.2416
L35.4216 26.2416
" />
<path d="M35.8449 26.2416
L35.8449 25.3950
" />
<path d="M35.8449 24.9716
L35.7845 25.0321
" />
<path d="M35.7845 25.0321
L35.8449 25.0926
" />
<path d="M35.8449 25.0926
L35.9054 25.0321
" />
<path d="M35.9054 25.0321
L35.8449 24.9716
" />
<path d="M35.8449 24.9716
L35.8449 25.0926
" />
<path d="M36.9940 26.1812
L36.8731 26.2416
" />
<path d="M36.8731 26.2416
L36.6312 26.2416
" />
<path d="M36.6312 26.2416
L36.5102 26.1812
" />
<path d="M36.5102 26.1812
L36.4497 26.1207
" />
<path d="M36.4497 26.1207
L36.3893 25.9997
" />
<path d="M36.3893 25.9997
L36.3893 25.6369
" />
<path d="M36.3893 25.6369
L36.4497 25.5159
" />
<path d="M36.4497 25.5159
L36.5102 25.4554
" />
<path d="M36.5102 25.4554
L36.6312 25.3950
" />
<path d="M36.6312 25.3950
L36.8731 25.3950
" />
<path d="M36.8731 25.3950
L36.9940 25.4554
" />
<path d="M38.4455 24.9112
L37.3569 26.5440
" />
<path d="M38.8688 26.2416
L38.8688 25.3950
" />
<path d="M38.8688 24.9716
L38.8084 25.0321
" />
<path d="M38.8084 25.0321
L38.8688 25.0926
" />
<path d="M38.8688 25.0926
L38.9293 25.0321
" />
<path d="M38.9293 25.0321
L38.8688 24.9716
" />
<path d="M38.8688 24.9716
L38.8688 25.0926
" />
<path d="M39.4736 26.2416
L39.4736 25.3950
" />
<path d="M39.4736 25.5159
L39.5341 25.4554
" />
<path d="M39.5341 25.4554
L39.6551 25.3950
" />
<path d="M39.6551 25.3950
L39.8365 25.3950
" />
<path d="M39.8365 25.3950
L39.9574 25.4554
" />
<path d="M39.9574 25.4554
L40.0179 25.5764
" />
<path d="M40.0179 25.5764
L40.0179 26.2416
" />
<path d="M40.0179 25.5764
L40.0784 25.4554
" />
<path d="M40.0784 25.4554
L40.1993 25.3950
" />
<path d="M40.1993 25.3950
L40.3808 25.3950
" />
<path d="M40.3808 25.3950
L40.5017 25.4554
" />
<path d="M40.5017 25.4554
L40.5622 25.5764
" />
<path d="M40.5622 25.5764
L40.5622 26.2416
" />
<path d="M41.1669 25.3950
L41.1669 26.6650
" />
<path d="M41.1669 25.4554
L41.2879 25.3950
" />
<path d="M41.2879 25.3950
L41.5298 25.3950
" />
<path d="M41.5298 25.3950
L41.6507 25.4554
" />
<path d="M41.6507 25.4554
L41.7112 25.5159
" />
<path d="M41.7112 25.5159
L41.7717 25.6369
" />
<path d="M41.7717 25.6369
L41.7717 25.9997
" />
<path d="M41.7717 25.9997
L41.7112 26.1207
" />
<path d="M41.7112 26.1207
L41.6507 26.1812
" />
<path d="M41.6507 26.1812
L41.5298 26.2416
" />
<path d="M41.5298 26.2416
L41.2879 26.2416
" />
<path d="M41.2879 26.2416
L41.1669 26.1812
" />
<path d="M42.4974 26.2416
L42.3764 26.1812
" />
<path d="M42.3764 26.1812
L42.3159 26.1207
" />
<path d="M42.3159 26.1207
L42.2555 25.9997
" />
<path d="M42.2555 25.9997
L42.2555 25.6369
" />
<path d="M42.2555 25.6369
L42.3159 25.5159
" />
<path d="M42.3159 25.5159
L42.3764 25.4554
" />
<path d="M42.3764 25.4554
L42.4974 25.3950
" />
<path d="M42.4974 25.3950
L42.6788 25.3950
" />
<path d="M42.6788 25.3950
L42.7997 25.4554
" />
<path d="M42.7997 25.4554
L42.8602 25.5159
" />
<path d="M42.8602 25.5159
L42.9207 25.6369
" />
<path d="M42.9207 25.6369
L42.9207 25.9997
" />
<path d="M42.9207 25.9997
L42.8602 26.1207
" />
<path d="M42.8602 26.1207
L42.7997 26.1812
" />
<path d="M42.7997 26.1812
L42.6788 26.2416
" />
<path d="M42.6788 26.2416
L42.4974 26.2416
" />
<path d="M43.4649 26.2416
L43.4649 25.3950
" />
<path d="M43.4649 25.6369
L43.5254 25.5159
" />
<path d="M43.5254 25.5159
L43.5859 25.4554
" />
<path d="M43.5859 25.4554
L43.7068 25.3950
" />
<path d="M43.7068 25.3950
L43.8278 25.3950
" />
<path d="M44.0697 25.3950
L44.5535 25.3950
" />
<path d="M44.2511 24.9716
L44.2511 26.0602
" />
<path d="M44.2511 26.0602
L44.3116 26.1812
" />
<path d="M44.3116 26.1812
L44.4326 26.2416
" />
<path d="M44.4326 26.2416
L44.5535 26.2416
" />
<path d="M45.4606 26.1812
L45.3397 26.2416
" />
<path d="M45.3397 26.2416
L45.0978 26.2416
" />
<path d="M45.0978 26.2416
L44.9768 26.1812
" />
<path d="M44.9768 26.1812
L44.9164 26.0602
" />
<path d="M44.9164 26.0602
L44.9164 25.5764
" />
<path d="M44.9164 25.5764
L44.9768 25.4554
" />
<path d="M44.9768 25.4554
L45.0978 25.3950
" />
<path d="M45.0978 25.3950
L45.3397 25.3950
" />
<path d="M45.3397 25.3950
L45.4606 25.4554
" />
<path d="M45.4606 25.4554
L45.5211 25.5764
" />
<path d="M45.5211 25.5764
L45.5211 25.6973
" />
<path d="M45.5211 25.6973
L44.9164 25.8183
" />
<path d="M46.6097 26.2416
L46.6097 24.9716
" />
<path d="M46.6097 26.1812
L46.4888 26.2416
" />
<path d="M46.4888 26.2416
L46.2469 26.2416
" />
<path d="M46.2469 26.2416
L46.1259 26.1812
" />
<path d="M46.1259 26.1812
L46.0654 26.1207
" />
<path d="M46.0654 26.1207
L46.0050 25.9997
" />
<path d="M46.0050 25.9997
L46.0050 25.6369
" />
<path d="M46.0050 25.6369
L46.0654 25.5159
" />
<path d="M46.0654 25.5159
L46.1259 25.4554
" />
<path d="M46.1259 25.4554
L46.2469 25.3950
" />
<path d="M46.2469 25.3950
L46.4888 25.3950
" />
<path d="M46.4888 25.3950
L46.6097 25.4554
" />
<path d="M47.2144 25.7578
L48.1821 25.7578
" />
<path d="M48.6054 25.3950
L49.0892 25.3950
" />
<path d="M48.7868 26.2416
L48.7868 25.1531
" />
<path d="M48.7868 25.1531
L48.8473 25.0321
" />
<path d="M48.8473 25.0321
L48.9683 24.9716
" />
<path d="M48.9683 24.9716
L49.0892 24.9716
" />
<path d="M49.5125 26.2416
L49.5125 25.3950
" />
<path d="M49.5125 24.9716
L49.4521 25.0321
" />
<path d="M49.4521 25.0321
L49.5125 25.0926
" />
<path d="M49.5125 25.0926
L49.5730 25.0321
" />
<path d="M49.5730 25.0321
L49.5125 24.9716
" />
<path d="M49.5125 24.9716
L49.5125 25.0926
" />
<path d="M50.2988 26.2416
L50.1778 26.1812
" />
<path d="M50.1778 26.1812
L50.1173 26.0602
" />
<path d="M50.1173 26.0602
L50.1173 24.9716
" />
<path d="M51.2663 26.1812
L51.1454 26.2416
" />
<path d="M51.1454 26.2416
L50.9035 26.2416
" />
<path d="M50.9035 26.2416
L50.7825 26.1812
" />
<path d="M50.7825 26.1812
L50.7221 26.0602
" />
<path d="M50.7221 26.0602
L50.7221 25.5764
" />
<path d="M50.7221 25.5764
L50.7825 25.4554
" />
<path d="M50.7825 25.4554
L50.9035 25.3950
" />
<path d="M50.9035 25.3950
L51.1454 25.3950
" />
<path d="M51.1454 25.3950
L51.2663 25.4554
" />
<path d="M51.2663 25.4554
L51.3268 25.5764
" />
<path d="M51.3268 25.5764
L51.3268 25.6973
" />
<path d="M51.3268 25.6973
L50.7221 25.8183
" />
<path d="M51.8107 26.1812
L51.9316 26.2416
" />
<path d="M51.9316 26.2416
L52.1735 26.2416
" />
<path d="M52.1735 26.2416
L52.2945 26.1812
" />
<path d="M52.2945 26.1812
L52.3549 26.0602
" />
<path d="M52.3549 26.0602
L52.3549 25.9997
" />
<path d="M52.3549 25.9997
L52.2945 25.8788
" />
<path d="M52.2945 25.8788
L52.1735 25.8183
" />
<path d="M52.1735 25.8183
L51.9921 25.8183
" />
<path d="M51.9921 25.8183
L51.8711 25.7578
" />
<path d="M51.8711 25.7578
L51.8107 25.6369
" />
<path d="M51.8107 25.6369
L51.8107 25.5764
" />
<path d="M51.8107 25.5764
L51.8711 25.4554
" />
<path d="M51.8711 25.4554
L51.9921 25.3950
" />
<path d="M51.9921 25.3950
L52.1735 25.3950
" />
<path d="M52.1735 25.3950
L52.2945 25.4554
" />
<path d="M53.8064 24.9112
L52.7178 26.5440
" />
<path d="M54.7740 26.2416
L54.7740 24.9716
" />
<path d="M54.7740 26.1812
L54.6531 26.2416
" />
<path d="M54.6531 26.2416
L54.4112 26.2416
" />
<path d="M54.4112 26.2416
L54.2902 26.1812
" />
<path d="M54.2902 26.1812
L54.2297 26.1207
" />
<path d="M54.2297 26.1207
L54.1693 25.9997
" />
<path d="M54.1693 25.9997
L54.1693 25.6369
" />
<path d="M54.1693 25.6369
L54.2297 25.5159
" />
<path d="M54.2297 25.5159
L54.2902 25.4554
" />
<path d="M54.2902 25.4554
L54.4112 25.3950
" />
<path d="M54.4112 25.3950
L54.6531 25.3950
" />
<path d="M54.6531 25.3950
L54.7740 25.4554
" />
<path d="M55.9230 26.2416
L55.9230 25.5764
" />
<path d="M55.9230 25.5764
L55.8625 25.4554
" />
<path d="M55.8625 25.4554
L55.7416 25.3950
" />
<path d="M55.7416 25.3950
L55.4997 25.3950
" />
<path d="M55.4997 25.3950
L55.3787 25.4554
" />
<path d="M55.9230 26.1812
L55.8021 26.2416
" />
<path d="M55.8021 26.2416
L55.4997 26.2416
" />
<path d="M55.4997 26.2416
L55.3787 26.1812
" />
<path d="M55.3787 26.1812
L55.3183 26.0602
" />
<path d="M55.3183 26.0602
L55.3183 25.9392
" />
<path d="M55.3183 25.9392
L55.3787 25.8183
" />
<path d="M55.3787 25.8183
L55.4997 25.7578
" />
<path d="M55.4997 25.7578
L55.8021 25.7578
" />
<path d="M55.8021 25.7578
L55.9230 25.6973
" />
<path d="M56.3463 25.3950
L56.8301 25.3950
" />
<path d="M56.5277 24.9716
L56.5277 26.0602
" />
<path d="M56.5277 26.0602
L56.5882 26.1812
" />
<path d="M56.5882 26.1812
L56.7092 26.2416
" />
<path d="M56.7092 26.2416
L56.8301 26.2416
" />
<path d="M57.7977 26.2416
L57.7977 25.5764
" />
<path d="M57.7977 25.5764
L57.7372 25.4554
" />
<path d="M57.7372 25.4554
L57.6163 25.3950
" />
<path d="M57.6163 25.3950
L57.3744 25.3950
" />
<path d="M57.3744 25.3950
L57.2534 25.4554
" />
<path d="M57.7977 26.1812
L57.6768 26.2416
" />
<path d="M57.6768 26.2416
L57.3744 26.2416
" />
<path d="M57.3744 26.2416
L57.2534 26.1812
" />
<path d="M57.2534 26.1812
L57.1930 26.0602
" />
<path d="M57.1930 26.0602
L57.1930 25.9392
" />
<path d="M57.1930 25.9392
L57.2534 25.8183
" />
<path d="M57.2534 25.8183
L57.3744 25.7578
" />
<path d="M57.3744 25.7578
L57.6768 25.7578
" />
<path d="M57.6768 25.7578
L57.7977 25.6973
" />
<path d="M58.1001 26.3626
L59.0677 26.3626
" />
<path d="M59.3096 26.1812
L59.4305 26.2416
" />
<path d="M59.4305 26.2416
L59.6724 26.2416
" />
<path d="M59.6724 26.2416
L59.7934 26.1812
" />
<path d="M59.7934 26.1812
L59.8538 26.0602
" />
<path d="M59.8538 26.0602
L59.8538 25.9997
" />
<path d="M59.8538 25.9997
L59.7934 25.8788
" />
<path d="M59.7934 25.8788
L59.6724 25.8183
" />
<path d="M59.6724 25.8183
L59.4910 25.8183
" />
<path d="M59.4910 25.8183
L59.3700 25.7578
" />
<path d="M59.3700 25.7578
L59.3096 25.6369
" />
<path d="M59.3096 25.6369
L59.3096 25.5764
" />
<path d="M59.3096 25.5764
L59.3700 25.4554
" />
<path d="M59.3700 25.4554
L59.4910 25.3950
" />
<path d="M59.4910 25.3950
L59.6724 25.3950
" />
<path d="M59.6724 25.3950
L59.7934 25.4554
" />
<path d="M60.3981 26.2416
L60.3981 24.9716
" />
<path d="M60.9424 26.2416
L60.9424 25.5764
" />
<path d="M60.9424 25.5764
L60.8819 25.4554
" />
<path d="M60.8819 25.4554
L60.7610 25.3950
" />
<path d="M60.7610 25.3950
L60.5796 25.3950
" />
<path d="M60.5796 25.3950
L60.4586 25.4554
" />
<path d="M60.4586 25.4554
L60.3981 25.5159
" />
<path d="M62.0309 26.1812
L61.9100 26.2416
" />
<path d="M61.9100 26.2416
L61.6681 26.2416
" />
<path d="M61.6681 26.2416
L61.5471 26.1812
" />
<path d="M61.5471 26.1812
L61.4867 26.0602
" />
<path d="M61.4867 26.0602
L61.4867 25.5764
" />
<path d="M61.4867 25.5764
L61.5471 25.4554
" />
<path d="M61.5471 25.4554
L61.6681 25.3950
" />
<path d="M61.6681 25.3950
L61.9100 25.3950
" />
<path d="M61.9100 25.3950
L62.0309 25.4554
" />
<path d="M62.0309 25.4554
L62.0914 25.5764
" />
<path d="M62.0914 25.5764
L62.0914 25.6973
" />
<path d="M62.0914 25.6973
L61.4867 25.8183
" />
<path d="M63.1195 26.1812
L62.9986 26.2416
" />
<path d="M62.9986 26.2416
L62.7567 26.2416
" />
<path d="M62.7567 26.2416
L62.6357 26.1812
" />
<path d="M62.6357 26.1812
L62.5753 26.0602
" />
<path d="M62.5753 26.0602
L62.5753 25.5764
" />
<path d="M62.5753 25.5764
L62.6357 25.4554
" />
<path d="M62.6357 25.4554
L62.7567 25.3950
" />
<path d="M62.7567 25.3950
L62.9986 25.3950
" />
<path d="M62.9986 25.3950
L63.1195 25.4554
" />
<path d="M63.1195 25.4554
L63.1800 25.5764
" />
<path d="M63.1800 25.5764
L63.1800 25.6973
" />
<path d="M63.1800 25.6973
L62.5753 25.8183
" />
<path d="M63.5429 25.3950
L64.0267 25.3950
" />
<path d="M63.7243 24.9716
L63.7243 26.0602
" />
<path d="M63.7243 26.0602
L63.7848 26.1812
" />
<path d="M63.7848 26.1812
L63.9058 26.2416
" />
<path d="M63.9058 26.2416
L64.0267 26.2416
" />
<path d="M64.3896 26.1812
L64.5105 26.2416
" />
<path d="M64.5105 26.2416
L64.7524 26.2416
" />
<path d="M64.7524 26.2416
L64.8734 26.1812
" />
<path d="M64.8734 26.1812
L64.9338 26.0602
" />
<path d="M64.9338 26.0602
L64.9338 25.9997
" />
<path d="M64.9338 25.9997
L64.8734 25.8788
" />
<path d="M64.8734 25.8788
L64.7524 25.8183
" />
<path d="M64.7524 25.8183
L64.5710 25.8183
" />
<path d="M64.5710 25.8183
L64.4500 25.7578
" />
<path d="M64.4500 25.7578
L64.3896 25.6369
" />
<path d="M64.3896 25.6369
L64.3896 25.5764
" />
<path d="M64.3896 25.5764
L64.4500 25.4554
" />
<path d="M64.4500 25.4554
L64.5710 25.3950
" />
<path d="M64.5710 25.3950
L64.7524 25.3950
" />
<path d="M64.7524 25.3950
L64.8734 25.4554
" />
<path d="M66.3853 24.9112
L65.2967 26.5440
" />
<path d="M66.7482 25.8788
L67.3529 25.8788
" />
<path d="M66.6272 26.2416
L67.0505 24.9716
" />
<path d="M67.0505 24.9716
L67.4739 26.2416
" />
<path d="M67.8972 26.2416
L67.8972 24.9716
" />
<path d="M67.8972 24.9716
L68.1996 24.9716
" />
<path d="M68.1996 24.9716
L68.3810 25.0321
" />
<path d="M68.3810 25.0321
L68.5020 25.1531
" />
<path d="M68.5020 25.1531
L68.5625 25.2740
" />
<path d="M68.5625 25.2740
L68.6229 25.5159
" />
<path d="M68.6229 25.5159
L68.6229 25.6973
" />
<path d="M68.6229 25.6973
L68.5625 25.9392
" />
<path d="M68.5625 25.9392
L68.5020 26.0602
" />
<path d="M68.5020 26.0602
L68.3810 26.1812
" />
<path d="M68.3810 26.1812
L68.1996 26.2416
" />
<path d="M68.1996 26.2416
L67.8972 26.2416
" />
<path d="M69.7720 24.9716
L69.1672 24.9716
" />
<path d="M69.1672 24.9716
L69.1068 25.5764
" />
<path d="M69.1068 25.5764
L69.1672 25.5159
" />
<path d="M69.1672 25.5159
L69.2882 25.4554
" />
<path d="M69.2882 25.4554
L69.5906 25.4554
" />
<path d="M69.5906 25.4554
L69.7115 25.5159
" />
<path d="M69.7115 25.5159
L69.7720 25.5764
" />
<path d="M69.7720 25.5764
L69.8325 25.6973
" />
<path d="M69.8325 25.6973
L69.8325 25.9997
" />
<path d="M69.8325 25.9997
L69.7720 26.1207
" />
<path d="M69.7720 26.1207
L69.7115 26.1812
" />
<path d="M69.7115 26.1812
L69.5906 26.2416
" />
<path d="M69.5906 26.2416
L69.2882 26.2416
" />
<path d="M69.2882 26.2416
L69.1672 26.1812
" />
<path d="M69.1672 26.1812
L69.1068 26.1207
" />
<path d="M70.9815 24.9716
L70.3767 24.9716
" />
<path d="M70.3767 24.9716
L70.3163 25.5764
" />
<path d="M70.3163 25.5764
L70.3767 25.5159
" />
<path d="M70.3767 25.5159
L70.4977 25.4554
" />
<path d="M70.4977 25.4554
L70.8001 25.4554
" />
<path d="M70.8001 25.4554
L70.9210 25.5159
" />
<path d="M70.9210 25.5159
L70.9815 25.5764
" />
<path d="M70.9815 25.5764
L71.0420 25.6973
" />
<path d="M71.0420 25.6973
L71.0420 25.9997
" />
<path d="M71.0420 25.9997
L70.9815 26.1207
" />
<path d="M70.9815 26.1207
L70.9210 26.1812
" />
<path d="M70.9210 26.1812
L70.8001 26.2416
" />
<path d="M70.8001 26.2416
L70.4977 26.2416
" />
<path d="M70.4977 26.2416
L70.3767 26.1812
" />
<path d="M70.3767 26.1812
L70.3163 26.1207
" />
<path d="M71.7677 25.5159
L71.6467 25.4554
" />
<path d="M71.6467 25.4554
L71.5862 25.3950
" />
<path d="M71.5862 25.3950
L71.5258 25.2740
" />
<path d="M71.5258 25.2740
L71.5258 25.2135
" />
<path d="M71.5258 25.2135
L71.5862 25.0926
" />
<path d="M71.5862 25.0926
L71.6467 25.0321
" />
<path d="M71.6467 25.0321
L71.7677 24.9716
" />
<path d="M71.7677 24.9716
L72.0096 24.9716
" />
<path d="M72.0096 24.9716
L72.1305 25.0321
" />
<path d="M72.1305 25.0321
L72.1910 25.0926
" />
<path d="M72.1910 25.0926
L72.2515 25.2135
" />
<path d="M72.2515 25.2135
L72.2515 25.2740
" />
<path d="M72.2515 25.2740
L72.1910 25.3950
" />
<path d="M72.1910 25.3950
L72.1305 25.4554
" />
<path d="M72.1305 25.4554
L72.0096 25.5159
" />
<path d="M72.0096 25.5159
L71.7677 25.5159
" />
<path d="M71.7677 25.5159
L71.6467 25.5764
" />
<path d="M71.6467 25.5764
L71.5862 25.6369
" />
<path d="M71.5862 25.6369
L71.5258 25.7578
" />
<path d="M71.5258 25.7578
L71.5258 25.9997
" />
<path d="M71.5258 25.9997
L71.5862 26.1207
" />
<path d="M71.5862 26.1207
L71.6467 26.1812
" />
<path d="M71.6467 26.1812
L71.7677 26.2416
" />
<path d="M71.7677 26.2416
L72.0096 26.2416
" />
<path d="M72.0096 26.2416
L72.1305 26.1812
" />
<path d="M72.1305 26.1812
L72.1910 26.1207
" />
<path d="M72.1910 26.1207
L72.2515 25.9997
" />
<path d="M72.2515 25.9997
L72.2515 25.7578
" />
<path d="M72.2515 25.7578
L72.1910 25.6369
" />
<path d="M72.1910 25.6369
L72.1305 25.5764
" />
<path d="M72.1305 25.5764
L72.0096 25.5159
" />
<path d="M72.7957 26.1207
L72.8562 26.1812
" />
<path d="M72.8562 26.1812
L72.7957 26.2416
" />
<path d="M72.7957 26.2416
L72.7353 26.1812
" />
<path d="M72.7353 26.1812
L72.7957 26.1207
" />
<path d="M72.7957 26.1207
L72.7957 26.2416
" />
<path d="M73.4005 25.3950
L73.4005 26.6650
" />
<path d="M73.4005 25.4554
L73.5215 25.3950
" />
<path d="M73.5215 25.3950
L73.7634 25.3950
" />
<path d="M73.7634 25.3950
L73.8843 25.4554
" />
<path d="M73.8843 25.4554
L73.9448 25.5159
" />
<path d="M73.9448 25.5159
L74.0053 25.6369
" />
<path d="M74.0053 25.6369
L74.0053 25.9997
" />
<path d="M74.0053 25.9997
L73.9448 26.1207
" />
<path d="M73.9448 26.1207
L73.8843 26.1812
" />
<path d="M73.8843 26.1812
L73.7634 26.2416
" />
<path d="M73.7634 26.2416
L73.5215 26.2416
" />
<path d="M73.5215 26.2416
L73.4005 26.1812
" />
<path d="M75.0938 26.2416
L75.0938 24.9716
" />
<path d="M75.0938 26.1812
L74.9729 26.2416
" />
<path d="M74.9729 26.2416
L74.7310 26.2416
" />
<path d="M74.7310 26.2416
L74.6100 26.1812
" />
<path d="M74.6100 26.1812
L74.5495 26.1207
" />
<path d="M74.5495 26.1207
L74.4891 25.9997
" />
<path d="M74.4891 25.9997
L74.4891 25.6369
" />
<path d="M74.4891 25.6369
L74.5495 25.5159
" />
<path d="M74.5495 25.5159
L74.6100 25.4554
" />
<path d="M74.6100 25.4554
L74.7310 25.3950
" />
<path d="M74.7310 25.3950
L74.9729 25.3950
" />
<path d="M74.9729 25.3950
L75.0938 25.4554
" />
<path d="M75.5171 25.3950
L76.0009 25.3950
" />
<path d="M75.6985 26.2416
L75.6985 25.1531
" />
<path d="M75.6985 25.1531
L75.7590 25.0321
" />
<path d="M75.7590 25.0321
L75.8800 24.9716
" />
<path d="M75.8800 24.9716
L76.0009 24.9716
" />
</g></g> 
</svg>
