<?xml version="1.0" standalone="no"?>
 <!DOCTYPE svg PUBLIC "-//W3C//DTD SVG 1.1//EN" 
 "http://www.w3.org/Graphics/SVG/1.1/DTD/svg11.dtd"> 
<svg
  xmlns:svg="http://www.w3.org/2000/svg"
  xmlns="http://www.w3.org/2000/svg"
  xmlns:xlink="http://www.w3.org/1999/xlink"
  version="1.1"
  width="32.2326mm" height="125.6538mm" viewBox="0.0000 0.0000 32.2326 125.6538">
<title>SVG Image created as working.svg date 2023/08/02 10:01:31 </title>
  <desc>Image generated by Eeschema-SVG </desc>
<g style="fill:#000000; fill-opacity:1.0000;stroke:#000000; stroke-opacity:1.0000;
stroke-linecap:round; stroke-linejoin:round;"
 transform="translate(0 0) scale(1 1)">
</g>
<g style="fill:#840000; fill-opacity:0.0; 
stroke:#840000; stroke-width:0.0000; stroke-opacity:1; 
stroke-linecap:round; stroke-linejoin:round;">
</g>
<g style="fill:#FFFFC2; fill-opacity:0.0; 
stroke:#FFFFC2; stroke-width:0.0000; stroke-opacity:1; 
stroke-linecap:round; stroke-linejoin:round;">
</g>
<g style="fill:#FFFFC2; fill-opacity:1.0000; 
stroke:#FFFFC2; stroke-width:0.0000; stroke-opacity:1; 
stroke-linecap:round; stroke-linejoin:round;">
<rect x="6.750200" y="12.575400" width="2.032000" height="98.552000" rx="0.000000" />
</g>
<g style="fill:#840084; fill-opacity:1.0000; 
stroke:#840084; stroke-width:0.0000; stroke-opacity:1; 
stroke-linecap:round; stroke-linejoin:round;">
</g>
<g style="fill:#840000; fill-opacity:1.0000; 
stroke:#840000; stroke-width:0.0000; stroke-opacity:1; 
stroke-linecap:round; stroke-linejoin:round;">
</g>
<g style="fill:#840000; fill-opacity:0.0; 
stroke:#840000; stroke-width:0.1524; stroke-opacity:1; 
stroke-linecap:round; stroke-linejoin:round;">
<rect x="6.496200" y="12.321400" width="2.540000" height="99.060000" rx="0.000000" />
<rect x="6.750200" y="109.984400" width="1.270000" height="0.254000" rx="0.000000" />
<rect x="6.750200" y="107.444400" width="1.270000" height="0.254000" rx="0.000000" />
<rect x="6.750200" y="104.904400" width="1.270000" height="0.254000" rx="0.000000" />
<rect x="6.750200" y="102.364400" width="1.270000" height="0.254000" rx="0.000000" />
<rect x="6.750200" y="99.824400" width="1.270000" height="0.254000" rx="0.000000" />
<rect x="6.750200" y="97.284400" width="1.270000" height="0.254000" rx="0.000000" />
<rect x="6.750200" y="94.744400" width="1.270000" height="0.254000" rx="0.000000" />
<rect x="6.750200" y="92.204400" width="1.270000" height="0.254000" rx="0.000000" />
<rect x="6.750200" y="89.664400" width="1.270000" height="0.254000" rx="0.000000" />
<rect x="6.750200" y="87.124400" width="1.270000" height="0.254000" rx="0.000000" />
<rect x="6.750200" y="84.584400" width="1.270000" height="0.254000" rx="0.000000" />
<rect x="6.750200" y="82.044400" width="1.270000" height="0.254000" rx="0.000000" />
<rect x="6.750200" y="79.504400" width="1.270000" height="0.254000" rx="0.000000" />
<rect x="6.750200" y="76.964400" width="1.270000" height="0.254000" rx="0.000000" />
<rect x="6.750200" y="74.424400" width="1.270000" height="0.254000" rx="0.000000" />
<rect x="6.750200" y="71.884400" width="1.270000" height="0.254000" rx="0.000000" />
<rect x="6.750200" y="69.344400" width="1.270000" height="0.254000" rx="0.000000" />
<rect x="6.750200" y="66.804400" width="1.270000" height="0.254000" rx="0.000000" />
<rect x="6.750200" y="64.264400" width="1.270000" height="0.254000" rx="0.000000" />
<rect x="6.750200" y="61.724400" width="1.270000" height="0.254000" rx="0.000000" />
<rect x="6.750200" y="59.184400" width="1.270000" height="0.254000" rx="0.000000" />
<rect x="6.750200" y="56.644400" width="1.270000" height="0.254000" rx="0.000000" />
<rect x="6.750200" y="54.104400" width="1.270000" height="0.254000" rx="0.000000" />
<rect x="6.750200" y="51.564400" width="1.270000" height="0.254000" rx="0.000000" />
<rect x="6.750200" y="49.024400" width="1.270000" height="0.254000" rx="0.000000" />
<rect x="6.750200" y="46.484400" width="1.270000" height="0.254000" rx="0.000000" />
<rect x="6.750200" y="43.944400" width="1.270000" height="0.254000" rx="0.000000" />
<rect x="6.750200" y="41.404400" width="1.270000" height="0.254000" rx="0.000000" />
<rect x="6.750200" y="38.864400" width="1.270000" height="0.254000" rx="0.000000" />
<rect x="6.750200" y="36.324400" width="1.270000" height="0.254000" rx="0.000000" />
<rect x="6.750200" y="33.784400" width="1.270000" height="0.254000" rx="0.000000" />
<rect x="6.750200" y="31.244400" width="1.270000" height="0.254000" rx="0.000000" />
<rect x="6.750200" y="28.704400" width="1.270000" height="0.254000" rx="0.000000" />
<rect x="6.750200" y="26.164400" width="1.270000" height="0.254000" rx="0.000000" />
<rect x="6.750200" y="23.624400" width="1.270000" height="0.254000" rx="0.000000" />
<rect x="6.750200" y="21.084400" width="1.270000" height="0.254000" rx="0.000000" />
<rect x="6.750200" y="18.544400" width="1.270000" height="0.254000" rx="0.000000" />
<rect x="6.750200" y="16.004400" width="1.270000" height="0.254000" rx="0.000000" />
<rect x="6.750200" y="13.464400" width="1.270000" height="0.254000" rx="0.000000" />
</g>
<g style="fill:#840000; fill-opacity:0.0; 
stroke:#840000; stroke-width:0.2540; stroke-opacity:1; 
stroke-linecap:round; stroke-linejoin:round;">
<rect x="6.750200" y="12.575400" width="2.032000" height="98.552000" rx="0.000000" />
</g>
<g style="fill:#840000; fill-opacity:0.0; 
stroke:#840000; stroke-width:0.1524; stroke-opacity:1; 
stroke-linecap:round; stroke-linejoin:round;">
<path d="M6.7502 13.5914
L2.6862 13.5914
" />
</g>
<g style="fill:#A90000; fill-opacity:0.0; 
stroke:#A90000; stroke-width:0.1524; stroke-opacity:1; 
stroke-linecap:round; stroke-linejoin:round;">
<text x="4.7182" y="13.3374"
textLength="1.3365" font-size="1.6933" lengthAdjust="spacingAndGlyphs"
text-anchor="middle" opacity="0">1</text>
<g class="stroked-text"><desc>1</desc>
<path d="M5.0811 13.1819
L4.3554 13.1819
" />
<path d="M4.7182 13.1819
L4.7182 11.9119
" />
<path d="M4.7182 11.9119
L4.5973 12.0934
" />
<path d="M4.5973 12.0934
L4.4763 12.2143
" />
<path d="M4.4763 12.2143
L4.3554 12.2748
" />
</g></g>
<g style="fill:#840000; fill-opacity:0.0; 
stroke:#840000; stroke-width:0.1524; stroke-opacity:1; 
stroke-linecap:round; stroke-linejoin:round;">
<path d="M6.7502 36.4514
L2.6862 36.4514
" />
</g>
<g style="fill:#A90000; fill-opacity:0.0; 
stroke:#A90000; stroke-width:0.1524; stroke-opacity:1; 
stroke-linecap:round; stroke-linejoin:round;">
<text x="4.7182" y="36.1974"
textLength="2.5460" font-size="1.6933" lengthAdjust="spacingAndGlyphs"
text-anchor="middle" opacity="0">10</text>
<g class="stroked-text"><desc>10</desc>
<path d="M4.4763 36.0419
L3.7506 36.0419
" />
<path d="M4.1134 36.0419
L4.1134 34.7719
" />
<path d="M4.1134 34.7719
L3.9925 34.9534
" />
<path d="M3.9925 34.9534
L3.8715 35.0743
" />
<path d="M3.8715 35.0743
L3.7506 35.1348
" />
<path d="M5.2624 34.7719
L5.3834 34.7719
" />
<path d="M5.3834 34.7719
L5.5043 34.8324
" />
<path d="M5.5043 34.8324
L5.5648 34.8929
" />
<path d="M5.5648 34.8929
L5.6253 35.0138
" />
<path d="M5.6253 35.0138
L5.6858 35.2557
" />
<path d="M5.6858 35.2557
L5.6858 35.5581
" />
<path d="M5.6858 35.5581
L5.6253 35.8000
" />
<path d="M5.6253 35.8000
L5.5648 35.9210
" />
<path d="M5.5648 35.9210
L5.5043 35.9815
" />
<path d="M5.5043 35.9815
L5.3834 36.0419
" />
<path d="M5.3834 36.0419
L5.2624 36.0419
" />
<path d="M5.2624 36.0419
L5.1415 35.9815
" />
<path d="M5.1415 35.9815
L5.0810 35.9210
" />
<path d="M5.0810 35.9210
L5.0205 35.8000
" />
<path d="M5.0205 35.8000
L4.9601 35.5581
" />
<path d="M4.9601 35.5581
L4.9601 35.2557
" />
<path d="M4.9601 35.2557
L5.0205 35.0138
" />
<path d="M5.0205 35.0138
L5.0810 34.8929
" />
<path d="M5.0810 34.8929
L5.1415 34.8324
" />
<path d="M5.1415 34.8324
L5.2624 34.7719
" />
</g></g>
<g style="fill:#840000; fill-opacity:0.0; 
stroke:#840000; stroke-width:0.1524; stroke-opacity:1; 
stroke-linecap:round; stroke-linejoin:round;">
<path d="M6.7502 38.9914
L2.6862 38.9914
" />
</g>
<g style="fill:#A90000; fill-opacity:0.0; 
stroke:#A90000; stroke-width:0.1524; stroke-opacity:1; 
stroke-linecap:round; stroke-linejoin:round;">
<text x="4.7182" y="38.7374"
textLength="2.5460" font-size="1.6933" lengthAdjust="spacingAndGlyphs"
text-anchor="middle" opacity="0">11</text>
<g class="stroked-text"><desc>11</desc>
<path d="M4.4763 38.5819
L3.7506 38.5819
" />
<path d="M4.1134 38.5819
L4.1134 37.3119
" />
<path d="M4.1134 37.3119
L3.9925 37.4934
" />
<path d="M3.9925 37.4934
L3.8715 37.6143
" />
<path d="M3.8715 37.6143
L3.7506 37.6748
" />
<path d="M5.6858 38.5819
L4.9601 38.5819
" />
<path d="M5.3229 38.5819
L5.3229 37.3119
" />
<path d="M5.3229 37.3119
L5.2020 37.4934
" />
<path d="M5.2020 37.4934
L5.0810 37.6143
" />
<path d="M5.0810 37.6143
L4.9601 37.6748
" />
</g></g>
<g style="fill:#840000; fill-opacity:0.0; 
stroke:#840000; stroke-width:0.1524; stroke-opacity:1; 
stroke-linecap:round; stroke-linejoin:round;">
<path d="M6.7502 41.5314
L2.6862 41.5314
" />
</g>
<g style="fill:#A90000; fill-opacity:0.0; 
stroke:#A90000; stroke-width:0.1524; stroke-opacity:1; 
stroke-linecap:round; stroke-linejoin:round;">
<text x="4.7182" y="41.2774"
textLength="2.5460" font-size="1.6933" lengthAdjust="spacingAndGlyphs"
text-anchor="middle" opacity="0">12</text>
<g class="stroked-text"><desc>12</desc>
<path d="M4.4763 41.1219
L3.7506 41.1219
" />
<path d="M4.1134 41.1219
L4.1134 39.8519
" />
<path d="M4.1134 39.8519
L3.9925 40.0334
" />
<path d="M3.9925 40.0334
L3.8715 40.1543
" />
<path d="M3.8715 40.1543
L3.7506 40.2148
" />
<path d="M4.9601 39.9729
L5.0205 39.9124
" />
<path d="M5.0205 39.9124
L5.1415 39.8519
" />
<path d="M5.1415 39.8519
L5.4439 39.8519
" />
<path d="M5.4439 39.8519
L5.5648 39.9124
" />
<path d="M5.5648 39.9124
L5.6253 39.9729
" />
<path d="M5.6253 39.9729
L5.6858 40.0938
" />
<path d="M5.6858 40.0938
L5.6858 40.2148
" />
<path d="M5.6858 40.2148
L5.6253 40.3962
" />
<path d="M5.6253 40.3962
L4.8996 41.1219
" />
<path d="M4.8996 41.1219
L5.6858 41.1219
" />
</g></g>
<g style="fill:#840000; fill-opacity:0.0; 
stroke:#840000; stroke-width:0.1524; stroke-opacity:1; 
stroke-linecap:round; stroke-linejoin:round;">
<path d="M6.7502 44.0714
L2.6862 44.0714
" />
</g>
<g style="fill:#A90000; fill-opacity:0.0; 
stroke:#A90000; stroke-width:0.1524; stroke-opacity:1; 
stroke-linecap:round; stroke-linejoin:round;">
<text x="4.7182" y="43.8174"
textLength="2.5460" font-size="1.6933" lengthAdjust="spacingAndGlyphs"
text-anchor="middle" opacity="0">13</text>
<g class="stroked-text"><desc>13</desc>
<path d="M4.4763 43.6619
L3.7506 43.6619
" />
<path d="M4.1134 43.6619
L4.1134 42.3919
" />
<path d="M4.1134 42.3919
L3.9925 42.5734
" />
<path d="M3.9925 42.5734
L3.8715 42.6943
" />
<path d="M3.8715 42.6943
L3.7506 42.7548
" />
<path d="M4.8996 42.3919
L5.6858 42.3919
" />
<path d="M5.6858 42.3919
L5.2624 42.8757
" />
<path d="M5.2624 42.8757
L5.4439 42.8757
" />
<path d="M5.4439 42.8757
L5.5648 42.9362
" />
<path d="M5.5648 42.9362
L5.6253 42.9967
" />
<path d="M5.6253 42.9967
L5.6858 43.1176
" />
<path d="M5.6858 43.1176
L5.6858 43.4200
" />
<path d="M5.6858 43.4200
L5.6253 43.5410
" />
<path d="M5.6253 43.5410
L5.5648 43.6015
" />
<path d="M5.5648 43.6015
L5.4439 43.6619
" />
<path d="M5.4439 43.6619
L5.0810 43.6619
" />
<path d="M5.0810 43.6619
L4.9601 43.6015
" />
<path d="M4.9601 43.6015
L4.8996 43.5410
" />
</g></g>
<g style="fill:#840000; fill-opacity:0.0; 
stroke:#840000; stroke-width:0.1524; stroke-opacity:1; 
stroke-linecap:round; stroke-linejoin:round;">
<path d="M6.7502 46.6114
L2.6862 46.6114
" />
</g>
<g style="fill:#A90000; fill-opacity:0.0; 
stroke:#A90000; stroke-width:0.1524; stroke-opacity:1; 
stroke-linecap:round; stroke-linejoin:round;">
<text x="4.7182" y="46.3574"
textLength="2.5460" font-size="1.6933" lengthAdjust="spacingAndGlyphs"
text-anchor="middle" opacity="0">14</text>
<g class="stroked-text"><desc>14</desc>
<path d="M4.4763 46.2019
L3.7506 46.2019
" />
<path d="M4.1134 46.2019
L4.1134 44.9319
" />
<path d="M4.1134 44.9319
L3.9925 45.1134
" />
<path d="M3.9925 45.1134
L3.8715 45.2343
" />
<path d="M3.8715 45.2343
L3.7506 45.2948
" />
<path d="M5.5648 45.3553
L5.5648 46.2019
" />
<path d="M5.2624 44.8715
L4.9601 45.7786
" />
<path d="M4.9601 45.7786
L5.7462 45.7786
" />
</g></g>
<g style="fill:#840000; fill-opacity:0.0; 
stroke:#840000; stroke-width:0.1524; stroke-opacity:1; 
stroke-linecap:round; stroke-linejoin:round;">
<path d="M6.7502 49.1514
L2.6862 49.1514
" />
</g>
<g style="fill:#A90000; fill-opacity:0.0; 
stroke:#A90000; stroke-width:0.1524; stroke-opacity:1; 
stroke-linecap:round; stroke-linejoin:round;">
<text x="4.7182" y="48.8974"
textLength="2.5460" font-size="1.6933" lengthAdjust="spacingAndGlyphs"
text-anchor="middle" opacity="0">15</text>
<g class="stroked-text"><desc>15</desc>
<path d="M4.4763 48.7419
L3.7506 48.7419
" />
<path d="M4.1134 48.7419
L4.1134 47.4719
" />
<path d="M4.1134 47.4719
L3.9925 47.6534
" />
<path d="M3.9925 47.6534
L3.8715 47.7743
" />
<path d="M3.8715 47.7743
L3.7506 47.8348
" />
<path d="M5.6253 47.4719
L5.0205 47.4719
" />
<path d="M5.0205 47.4719
L4.9601 48.0767
" />
<path d="M4.9601 48.0767
L5.0205 48.0162
" />
<path d="M5.0205 48.0162
L5.1415 47.9557
" />
<path d="M5.1415 47.9557
L5.4439 47.9557
" />
<path d="M5.4439 47.9557
L5.5648 48.0162
" />
<path d="M5.5648 48.0162
L5.6253 48.0767
" />
<path d="M5.6253 48.0767
L5.6858 48.1976
" />
<path d="M5.6858 48.1976
L5.6858 48.5000
" />
<path d="M5.6858 48.5000
L5.6253 48.6210
" />
<path d="M5.6253 48.6210
L5.5648 48.6815
" />
<path d="M5.5648 48.6815
L5.4439 48.7419
" />
<path d="M5.4439 48.7419
L5.1415 48.7419
" />
<path d="M5.1415 48.7419
L5.0205 48.6815
" />
<path d="M5.0205 48.6815
L4.9601 48.6210
" />
</g></g>
<g style="fill:#840000; fill-opacity:0.0; 
stroke:#840000; stroke-width:0.1524; stroke-opacity:1; 
stroke-linecap:round; stroke-linejoin:round;">
<path d="M6.7502 51.6914
L2.6862 51.6914
" />
</g>
<g style="fill:#A90000; fill-opacity:0.0; 
stroke:#A90000; stroke-width:0.1524; stroke-opacity:1; 
stroke-linecap:round; stroke-linejoin:round;">
<text x="4.7182" y="51.4374"
textLength="2.5460" font-size="1.6933" lengthAdjust="spacingAndGlyphs"
text-anchor="middle" opacity="0">16</text>
<g class="stroked-text"><desc>16</desc>
<path d="M4.4763 51.2819
L3.7506 51.2819
" />
<path d="M4.1134 51.2819
L4.1134 50.0119
" />
<path d="M4.1134 50.0119
L3.9925 50.1934
" />
<path d="M3.9925 50.1934
L3.8715 50.3143
" />
<path d="M3.8715 50.3143
L3.7506 50.3748
" />
<path d="M5.5648 50.0119
L5.3229 50.0119
" />
<path d="M5.3229 50.0119
L5.2020 50.0724
" />
<path d="M5.2020 50.0724
L5.1415 50.1329
" />
<path d="M5.1415 50.1329
L5.0205 50.3143
" />
<path d="M5.0205 50.3143
L4.9601 50.5562
" />
<path d="M4.9601 50.5562
L4.9601 51.0400
" />
<path d="M4.9601 51.0400
L5.0205 51.1610
" />
<path d="M5.0205 51.1610
L5.0810 51.2215
" />
<path d="M5.0810 51.2215
L5.2020 51.2819
" />
<path d="M5.2020 51.2819
L5.4439 51.2819
" />
<path d="M5.4439 51.2819
L5.5648 51.2215
" />
<path d="M5.5648 51.2215
L5.6253 51.1610
" />
<path d="M5.6253 51.1610
L5.6858 51.0400
" />
<path d="M5.6858 51.0400
L5.6858 50.7376
" />
<path d="M5.6858 50.7376
L5.6253 50.6167
" />
<path d="M5.6253 50.6167
L5.5648 50.5562
" />
<path d="M5.5648 50.5562
L5.4439 50.4957
" />
<path d="M5.4439 50.4957
L5.2020 50.4957
" />
<path d="M5.2020 50.4957
L5.0810 50.5562
" />
<path d="M5.0810 50.5562
L5.0205 50.6167
" />
<path d="M5.0205 50.6167
L4.9601 50.7376
" />
</g></g>
<g style="fill:#840000; fill-opacity:0.0; 
stroke:#840000; stroke-width:0.1524; stroke-opacity:1; 
stroke-linecap:round; stroke-linejoin:round;">
<path d="M6.7502 54.2314
L2.6862 54.2314
" />
</g>
<g style="fill:#A90000; fill-opacity:0.0; 
stroke:#A90000; stroke-width:0.1524; stroke-opacity:1; 
stroke-linecap:round; stroke-linejoin:round;">
<text x="4.7182" y="53.9774"
textLength="2.5460" font-size="1.6933" lengthAdjust="spacingAndGlyphs"
text-anchor="middle" opacity="0">17</text>
<g class="stroked-text"><desc>17</desc>
<path d="M4.4763 53.8219
L3.7506 53.8219
" />
<path d="M4.1134 53.8219
L4.1134 52.5519
" />
<path d="M4.1134 52.5519
L3.9925 52.7334
" />
<path d="M3.9925 52.7334
L3.8715 52.8543
" />
<path d="M3.8715 52.8543
L3.7506 52.9148
" />
<path d="M4.8996 52.5519
L5.7462 52.5519
" />
<path d="M5.7462 52.5519
L5.2020 53.8219
" />
</g></g>
<g style="fill:#840000; fill-opacity:0.0; 
stroke:#840000; stroke-width:0.1524; stroke-opacity:1; 
stroke-linecap:round; stroke-linejoin:round;">
<path d="M6.7502 56.7714
L2.6862 56.7714
" />
</g>
<g style="fill:#A90000; fill-opacity:0.0; 
stroke:#A90000; stroke-width:0.1524; stroke-opacity:1; 
stroke-linecap:round; stroke-linejoin:round;">
<text x="4.7182" y="56.5174"
textLength="2.5460" font-size="1.6933" lengthAdjust="spacingAndGlyphs"
text-anchor="middle" opacity="0">18</text>
<g class="stroked-text"><desc>18</desc>
<path d="M4.4763 56.3619
L3.7506 56.3619
" />
<path d="M4.1134 56.3619
L4.1134 55.0919
" />
<path d="M4.1134 55.0919
L3.9925 55.2734
" />
<path d="M3.9925 55.2734
L3.8715 55.3943
" />
<path d="M3.8715 55.3943
L3.7506 55.4548
" />
<path d="M5.2020 55.6362
L5.0810 55.5757
" />
<path d="M5.0810 55.5757
L5.0205 55.5153
" />
<path d="M5.0205 55.5153
L4.9601 55.3943
" />
<path d="M4.9601 55.3943
L4.9601 55.3338
" />
<path d="M4.9601 55.3338
L5.0205 55.2129
" />
<path d="M5.0205 55.2129
L5.0810 55.1524
" />
<path d="M5.0810 55.1524
L5.2020 55.0919
" />
<path d="M5.2020 55.0919
L5.4439 55.0919
" />
<path d="M5.4439 55.0919
L5.5648 55.1524
" />
<path d="M5.5648 55.1524
L5.6253 55.2129
" />
<path d="M5.6253 55.2129
L5.6858 55.3338
" />
<path d="M5.6858 55.3338
L5.6858 55.3943
" />
<path d="M5.6858 55.3943
L5.6253 55.5153
" />
<path d="M5.6253 55.5153
L5.5648 55.5757
" />
<path d="M5.5648 55.5757
L5.4439 55.6362
" />
<path d="M5.4439 55.6362
L5.2020 55.6362
" />
<path d="M5.2020 55.6362
L5.0810 55.6967
" />
<path d="M5.0810 55.6967
L5.0205 55.7572
" />
<path d="M5.0205 55.7572
L4.9601 55.8781
" />
<path d="M4.9601 55.8781
L4.9601 56.1200
" />
<path d="M4.9601 56.1200
L5.0205 56.2410
" />
<path d="M5.0205 56.2410
L5.0810 56.3015
" />
<path d="M5.0810 56.3015
L5.2020 56.3619
" />
<path d="M5.2020 56.3619
L5.4439 56.3619
" />
<path d="M5.4439 56.3619
L5.5648 56.3015
" />
<path d="M5.5648 56.3015
L5.6253 56.2410
" />
<path d="M5.6253 56.2410
L5.6858 56.1200
" />
<path d="M5.6858 56.1200
L5.6858 55.8781
" />
<path d="M5.6858 55.8781
L5.6253 55.7572
" />
<path d="M5.6253 55.7572
L5.5648 55.6967
" />
<path d="M5.5648 55.6967
L5.4439 55.6362
" />
</g></g>
<g style="fill:#840000; fill-opacity:0.0; 
stroke:#840000; stroke-width:0.1524; stroke-opacity:1; 
stroke-linecap:round; stroke-linejoin:round;">
<path d="M6.7502 59.3114
L2.6862 59.3114
" />
</g>
<g style="fill:#A90000; fill-opacity:0.0; 
stroke:#A90000; stroke-width:0.1524; stroke-opacity:1; 
stroke-linecap:round; stroke-linejoin:round;">
<text x="4.7182" y="59.0574"
textLength="2.5460" font-size="1.6933" lengthAdjust="spacingAndGlyphs"
text-anchor="middle" opacity="0">19</text>
<g class="stroked-text"><desc>19</desc>
<path d="M4.4763 58.9019
L3.7506 58.9019
" />
<path d="M4.1134 58.9019
L4.1134 57.6319
" />
<path d="M4.1134 57.6319
L3.9925 57.8134
" />
<path d="M3.9925 57.8134
L3.8715 57.9343
" />
<path d="M3.8715 57.9343
L3.7506 57.9948
" />
<path d="M5.0810 58.9019
L5.3229 58.9019
" />
<path d="M5.3229 58.9019
L5.4439 58.8415
" />
<path d="M5.4439 58.8415
L5.5043 58.7810
" />
<path d="M5.5043 58.7810
L5.6253 58.5995
" />
<path d="M5.6253 58.5995
L5.6858 58.3576
" />
<path d="M5.6858 58.3576
L5.6858 57.8738
" />
<path d="M5.6858 57.8738
L5.6253 57.7529
" />
<path d="M5.6253 57.7529
L5.5648 57.6924
" />
<path d="M5.5648 57.6924
L5.4439 57.6319
" />
<path d="M5.4439 57.6319
L5.2020 57.6319
" />
<path d="M5.2020 57.6319
L5.0810 57.6924
" />
<path d="M5.0810 57.6924
L5.0205 57.7529
" />
<path d="M5.0205 57.7529
L4.9601 57.8738
" />
<path d="M4.9601 57.8738
L4.9601 58.1762
" />
<path d="M4.9601 58.1762
L5.0205 58.2972
" />
<path d="M5.0205 58.2972
L5.0810 58.3576
" />
<path d="M5.0810 58.3576
L5.2020 58.4181
" />
<path d="M5.2020 58.4181
L5.4439 58.4181
" />
<path d="M5.4439 58.4181
L5.5648 58.3576
" />
<path d="M5.5648 58.3576
L5.6253 58.2972
" />
<path d="M5.6253 58.2972
L5.6858 58.1762
" />
</g></g>
<g style="fill:#840000; fill-opacity:0.0; 
stroke:#840000; stroke-width:0.1524; stroke-opacity:1; 
stroke-linecap:round; stroke-linejoin:round;">
<path d="M6.7502 16.1314
L2.6862 16.1314
" />
</g>
<g style="fill:#A90000; fill-opacity:0.0; 
stroke:#A90000; stroke-width:0.1524; stroke-opacity:1; 
stroke-linecap:round; stroke-linejoin:round;">
<text x="4.7182" y="15.8774"
textLength="1.3365" font-size="1.6933" lengthAdjust="spacingAndGlyphs"
text-anchor="middle" opacity="0">2</text>
<g class="stroked-text"><desc>2</desc>
<path d="M4.3554 14.5729
L4.4158 14.5124
" />
<path d="M4.4158 14.5124
L4.5368 14.4519
" />
<path d="M4.5368 14.4519
L4.8392 14.4519
" />
<path d="M4.8392 14.4519
L4.9601 14.5124
" />
<path d="M4.9601 14.5124
L5.0206 14.5729
" />
<path d="M5.0206 14.5729
L5.0811 14.6938
" />
<path d="M5.0811 14.6938
L5.0811 14.8148
" />
<path d="M5.0811 14.8148
L5.0206 14.9962
" />
<path d="M5.0206 14.9962
L4.2949 15.7219
" />
<path d="M4.2949 15.7219
L5.0811 15.7219
" />
</g></g>
<g style="fill:#840000; fill-opacity:0.0; 
stroke:#840000; stroke-width:0.1524; stroke-opacity:1; 
stroke-linecap:round; stroke-linejoin:round;">
<path d="M6.7502 61.8514
L2.6862 61.8514
" />
</g>
<g style="fill:#A90000; fill-opacity:0.0; 
stroke:#A90000; stroke-width:0.1524; stroke-opacity:1; 
stroke-linecap:round; stroke-linejoin:round;">
<text x="4.7182" y="61.5974"
textLength="2.5460" font-size="1.6933" lengthAdjust="spacingAndGlyphs"
text-anchor="middle" opacity="0">20</text>
<g class="stroked-text"><desc>20</desc>
<path d="M3.7506 60.2929
L3.8110 60.2324
" />
<path d="M3.8110 60.2324
L3.9320 60.1719
" />
<path d="M3.9320 60.1719
L4.2344 60.1719
" />
<path d="M4.2344 60.1719
L4.3553 60.2324
" />
<path d="M4.3553 60.2324
L4.4158 60.2929
" />
<path d="M4.4158 60.2929
L4.4763 60.4138
" />
<path d="M4.4763 60.4138
L4.4763 60.5348
" />
<path d="M4.4763 60.5348
L4.4158 60.7162
" />
<path d="M4.4158 60.7162
L3.6901 61.4419
" />
<path d="M3.6901 61.4419
L4.4763 61.4419
" />
<path d="M5.2624 60.1719
L5.3834 60.1719
" />
<path d="M5.3834 60.1719
L5.5043 60.2324
" />
<path d="M5.5043 60.2324
L5.5648 60.2929
" />
<path d="M5.5648 60.2929
L5.6253 60.4138
" />
<path d="M5.6253 60.4138
L5.6858 60.6557
" />
<path d="M5.6858 60.6557
L5.6858 60.9581
" />
<path d="M5.6858 60.9581
L5.6253 61.2000
" />
<path d="M5.6253 61.2000
L5.5648 61.3210
" />
<path d="M5.5648 61.3210
L5.5043 61.3815
" />
<path d="M5.5043 61.3815
L5.3834 61.4419
" />
<path d="M5.3834 61.4419
L5.2624 61.4419
" />
<path d="M5.2624 61.4419
L5.1415 61.3815
" />
<path d="M5.1415 61.3815
L5.0810 61.3210
" />
<path d="M5.0810 61.3210
L5.0205 61.2000
" />
<path d="M5.0205 61.2000
L4.9601 60.9581
" />
<path d="M4.9601 60.9581
L4.9601 60.6557
" />
<path d="M4.9601 60.6557
L5.0205 60.4138
" />
<path d="M5.0205 60.4138
L5.0810 60.2929
" />
<path d="M5.0810 60.2929
L5.1415 60.2324
" />
<path d="M5.1415 60.2324
L5.2624 60.1719
" />
</g></g>
<g style="fill:#840000; fill-opacity:0.0; 
stroke:#840000; stroke-width:0.1524; stroke-opacity:1; 
stroke-linecap:round; stroke-linejoin:round;">
<path d="M6.7502 64.3914
L2.6862 64.3914
" />
</g>
<g style="fill:#A90000; fill-opacity:0.0; 
stroke:#A90000; stroke-width:0.1524; stroke-opacity:1; 
stroke-linecap:round; stroke-linejoin:round;">
<text x="4.7182" y="64.1374"
textLength="2.5460" font-size="1.6933" lengthAdjust="spacingAndGlyphs"
text-anchor="middle" opacity="0">21</text>
<g class="stroked-text"><desc>21</desc>
<path d="M3.7506 62.8329
L3.8110 62.7724
" />
<path d="M3.8110 62.7724
L3.9320 62.7119
" />
<path d="M3.9320 62.7119
L4.2344 62.7119
" />
<path d="M4.2344 62.7119
L4.3553 62.7724
" />
<path d="M4.3553 62.7724
L4.4158 62.8329
" />
<path d="M4.4158 62.8329
L4.4763 62.9538
" />
<path d="M4.4763 62.9538
L4.4763 63.0748
" />
<path d="M4.4763 63.0748
L4.4158 63.2562
" />
<path d="M4.4158 63.2562
L3.6901 63.9819
" />
<path d="M3.6901 63.9819
L4.4763 63.9819
" />
<path d="M5.6858 63.9819
L4.9601 63.9819
" />
<path d="M5.3229 63.9819
L5.3229 62.7119
" />
<path d="M5.3229 62.7119
L5.2020 62.8934
" />
<path d="M5.2020 62.8934
L5.0810 63.0143
" />
<path d="M5.0810 63.0143
L4.9601 63.0748
" />
</g></g>
<g style="fill:#840000; fill-opacity:0.0; 
stroke:#840000; stroke-width:0.1524; stroke-opacity:1; 
stroke-linecap:round; stroke-linejoin:round;">
<path d="M6.7502 66.9314
L2.6862 66.9314
" />
</g>
<g style="fill:#A90000; fill-opacity:0.0; 
stroke:#A90000; stroke-width:0.1524; stroke-opacity:1; 
stroke-linecap:round; stroke-linejoin:round;">
<text x="4.7182" y="66.6774"
textLength="2.5460" font-size="1.6933" lengthAdjust="spacingAndGlyphs"
text-anchor="middle" opacity="0">22</text>
<g class="stroked-text"><desc>22</desc>
<path d="M3.7506 65.3729
L3.8110 65.3124
" />
<path d="M3.8110 65.3124
L3.9320 65.2519
" />
<path d="M3.9320 65.2519
L4.2344 65.2519
" />
<path d="M4.2344 65.2519
L4.3553 65.3124
" />
<path d="M4.3553 65.3124
L4.4158 65.3729
" />
<path d="M4.4158 65.3729
L4.4763 65.4938
" />
<path d="M4.4763 65.4938
L4.4763 65.6148
" />
<path d="M4.4763 65.6148
L4.4158 65.7962
" />
<path d="M4.4158 65.7962
L3.6901 66.5219
" />
<path d="M3.6901 66.5219
L4.4763 66.5219
" />
<path d="M4.9601 65.3729
L5.0205 65.3124
" />
<path d="M5.0205 65.3124
L5.1415 65.2519
" />
<path d="M5.1415 65.2519
L5.4439 65.2519
" />
<path d="M5.4439 65.2519
L5.5648 65.3124
" />
<path d="M5.5648 65.3124
L5.6253 65.3729
" />
<path d="M5.6253 65.3729
L5.6858 65.4938
" />
<path d="M5.6858 65.4938
L5.6858 65.6148
" />
<path d="M5.6858 65.6148
L5.6253 65.7962
" />
<path d="M5.6253 65.7962
L4.8996 66.5219
" />
<path d="M4.8996 66.5219
L5.6858 66.5219
" />
</g></g>
<g style="fill:#840000; fill-opacity:0.0; 
stroke:#840000; stroke-width:0.1524; stroke-opacity:1; 
stroke-linecap:round; stroke-linejoin:round;">
<path d="M6.7502 69.4714
L2.6862 69.4714
" />
</g>
<g style="fill:#A90000; fill-opacity:0.0; 
stroke:#A90000; stroke-width:0.1524; stroke-opacity:1; 
stroke-linecap:round; stroke-linejoin:round;">
<text x="4.7182" y="69.2174"
textLength="2.5460" font-size="1.6933" lengthAdjust="spacingAndGlyphs"
text-anchor="middle" opacity="0">23</text>
<g class="stroked-text"><desc>23</desc>
<path d="M3.7506 67.9129
L3.8110 67.8524
" />
<path d="M3.8110 67.8524
L3.9320 67.7919
" />
<path d="M3.9320 67.7919
L4.2344 67.7919
" />
<path d="M4.2344 67.7919
L4.3553 67.8524
" />
<path d="M4.3553 67.8524
L4.4158 67.9129
" />
<path d="M4.4158 67.9129
L4.4763 68.0338
" />
<path d="M4.4763 68.0338
L4.4763 68.1548
" />
<path d="M4.4763 68.1548
L4.4158 68.3362
" />
<path d="M4.4158 68.3362
L3.6901 69.0619
" />
<path d="M3.6901 69.0619
L4.4763 69.0619
" />
<path d="M4.8996 67.7919
L5.6858 67.7919
" />
<path d="M5.6858 67.7919
L5.2624 68.2757
" />
<path d="M5.2624 68.2757
L5.4439 68.2757
" />
<path d="M5.4439 68.2757
L5.5648 68.3362
" />
<path d="M5.5648 68.3362
L5.6253 68.3967
" />
<path d="M5.6253 68.3967
L5.6858 68.5176
" />
<path d="M5.6858 68.5176
L5.6858 68.8200
" />
<path d="M5.6858 68.8200
L5.6253 68.9410
" />
<path d="M5.6253 68.9410
L5.5648 69.0015
" />
<path d="M5.5648 69.0015
L5.4439 69.0619
" />
<path d="M5.4439 69.0619
L5.0810 69.0619
" />
<path d="M5.0810 69.0619
L4.9601 69.0015
" />
<path d="M4.9601 69.0015
L4.8996 68.9410
" />
</g></g>
<g style="fill:#840000; fill-opacity:0.0; 
stroke:#840000; stroke-width:0.1524; stroke-opacity:1; 
stroke-linecap:round; stroke-linejoin:round;">
<path d="M6.7502 72.0114
L2.6862 72.0114
" />
</g>
<g style="fill:#A90000; fill-opacity:0.0; 
stroke:#A90000; stroke-width:0.1524; stroke-opacity:1; 
stroke-linecap:round; stroke-linejoin:round;">
<text x="4.7182" y="71.7574"
textLength="2.5460" font-size="1.6933" lengthAdjust="spacingAndGlyphs"
text-anchor="middle" opacity="0">24</text>
<g class="stroked-text"><desc>24</desc>
<path d="M3.7506 70.4529
L3.8110 70.3924
" />
<path d="M3.8110 70.3924
L3.9320 70.3319
" />
<path d="M3.9320 70.3319
L4.2344 70.3319
" />
<path d="M4.2344 70.3319
L4.3553 70.3924
" />
<path d="M4.3553 70.3924
L4.4158 70.4529
" />
<path d="M4.4158 70.4529
L4.4763 70.5738
" />
<path d="M4.4763 70.5738
L4.4763 70.6948
" />
<path d="M4.4763 70.6948
L4.4158 70.8762
" />
<path d="M4.4158 70.8762
L3.6901 71.6019
" />
<path d="M3.6901 71.6019
L4.4763 71.6019
" />
<path d="M5.5648 70.7553
L5.5648 71.6019
" />
<path d="M5.2624 70.2715
L4.9601 71.1786
" />
<path d="M4.9601 71.1786
L5.7462 71.1786
" />
</g></g>
<g style="fill:#840000; fill-opacity:0.0; 
stroke:#840000; stroke-width:0.1524; stroke-opacity:1; 
stroke-linecap:round; stroke-linejoin:round;">
<path d="M6.7502 74.5514
L2.6862 74.5514
" />
</g>
<g style="fill:#A90000; fill-opacity:0.0; 
stroke:#A90000; stroke-width:0.1524; stroke-opacity:1; 
stroke-linecap:round; stroke-linejoin:round;">
<text x="4.7182" y="74.2974"
textLength="2.5460" font-size="1.6933" lengthAdjust="spacingAndGlyphs"
text-anchor="middle" opacity="0">25</text>
<g class="stroked-text"><desc>25</desc>
<path d="M3.7506 72.9929
L3.8110 72.9324
" />
<path d="M3.8110 72.9324
L3.9320 72.8719
" />
<path d="M3.9320 72.8719
L4.2344 72.8719
" />
<path d="M4.2344 72.8719
L4.3553 72.9324
" />
<path d="M4.3553 72.9324
L4.4158 72.9929
" />
<path d="M4.4158 72.9929
L4.4763 73.1138
" />
<path d="M4.4763 73.1138
L4.4763 73.2348
" />
<path d="M4.4763 73.2348
L4.4158 73.4162
" />
<path d="M4.4158 73.4162
L3.6901 74.1419
" />
<path d="M3.6901 74.1419
L4.4763 74.1419
" />
<path d="M5.6253 72.8719
L5.0205 72.8719
" />
<path d="M5.0205 72.8719
L4.9601 73.4767
" />
<path d="M4.9601 73.4767
L5.0205 73.4162
" />
<path d="M5.0205 73.4162
L5.1415 73.3557
" />
<path d="M5.1415 73.3557
L5.4439 73.3557
" />
<path d="M5.4439 73.3557
L5.5648 73.4162
" />
<path d="M5.5648 73.4162
L5.6253 73.4767
" />
<path d="M5.6253 73.4767
L5.6858 73.5976
" />
<path d="M5.6858 73.5976
L5.6858 73.9000
" />
<path d="M5.6858 73.9000
L5.6253 74.0210
" />
<path d="M5.6253 74.0210
L5.5648 74.0815
" />
<path d="M5.5648 74.0815
L5.4439 74.1419
" />
<path d="M5.4439 74.1419
L5.1415 74.1419
" />
<path d="M5.1415 74.1419
L5.0205 74.0815
" />
<path d="M5.0205 74.0815
L4.9601 74.0210
" />
</g></g>
<g style="fill:#840000; fill-opacity:0.0; 
stroke:#840000; stroke-width:0.1524; stroke-opacity:1; 
stroke-linecap:round; stroke-linejoin:round;">
<path d="M6.7502 77.0914
L2.6862 77.0914
" />
</g>
<g style="fill:#A90000; fill-opacity:0.0; 
stroke:#A90000; stroke-width:0.1524; stroke-opacity:1; 
stroke-linecap:round; stroke-linejoin:round;">
<text x="4.7182" y="76.8374"
textLength="2.5460" font-size="1.6933" lengthAdjust="spacingAndGlyphs"
text-anchor="middle" opacity="0">26</text>
<g class="stroked-text"><desc>26</desc>
<path d="M3.7506 75.5329
L3.8110 75.4724
" />
<path d="M3.8110 75.4724
L3.9320 75.4119
" />
<path d="M3.9320 75.4119
L4.2344 75.4119
" />
<path d="M4.2344 75.4119
L4.3553 75.4724
" />
<path d="M4.3553 75.4724
L4.4158 75.5329
" />
<path d="M4.4158 75.5329
L4.4763 75.6538
" />
<path d="M4.4763 75.6538
L4.4763 75.7748
" />
<path d="M4.4763 75.7748
L4.4158 75.9562
" />
<path d="M4.4158 75.9562
L3.6901 76.6819
" />
<path d="M3.6901 76.6819
L4.4763 76.6819
" />
<path d="M5.5648 75.4119
L5.3229 75.4119
" />
<path d="M5.3229 75.4119
L5.2020 75.4724
" />
<path d="M5.2020 75.4724
L5.1415 75.5329
" />
<path d="M5.1415 75.5329
L5.0205 75.7143
" />
<path d="M5.0205 75.7143
L4.9601 75.9562
" />
<path d="M4.9601 75.9562
L4.9601 76.4400
" />
<path d="M4.9601 76.4400
L5.0205 76.5610
" />
<path d="M5.0205 76.5610
L5.0810 76.6215
" />
<path d="M5.0810 76.6215
L5.2020 76.6819
" />
<path d="M5.2020 76.6819
L5.4439 76.6819
" />
<path d="M5.4439 76.6819
L5.5648 76.6215
" />
<path d="M5.5648 76.6215
L5.6253 76.5610
" />
<path d="M5.6253 76.5610
L5.6858 76.4400
" />
<path d="M5.6858 76.4400
L5.6858 76.1376
" />
<path d="M5.6858 76.1376
L5.6253 76.0167
" />
<path d="M5.6253 76.0167
L5.5648 75.9562
" />
<path d="M5.5648 75.9562
L5.4439 75.8957
" />
<path d="M5.4439 75.8957
L5.2020 75.8957
" />
<path d="M5.2020 75.8957
L5.0810 75.9562
" />
<path d="M5.0810 75.9562
L5.0205 76.0167
" />
<path d="M5.0205 76.0167
L4.9601 76.1376
" />
</g></g>
<g style="fill:#840000; fill-opacity:0.0; 
stroke:#840000; stroke-width:0.1524; stroke-opacity:1; 
stroke-linecap:round; stroke-linejoin:round;">
<path d="M6.7502 79.6314
L2.6862 79.6314
" />
</g>
<g style="fill:#A90000; fill-opacity:0.0; 
stroke:#A90000; stroke-width:0.1524; stroke-opacity:1; 
stroke-linecap:round; stroke-linejoin:round;">
<text x="4.7182" y="79.3774"
textLength="2.5460" font-size="1.6933" lengthAdjust="spacingAndGlyphs"
text-anchor="middle" opacity="0">27</text>
<g class="stroked-text"><desc>27</desc>
<path d="M3.7506 78.0729
L3.8110 78.0124
" />
<path d="M3.8110 78.0124
L3.9320 77.9519
" />
<path d="M3.9320 77.9519
L4.2344 77.9519
" />
<path d="M4.2344 77.9519
L4.3553 78.0124
" />
<path d="M4.3553 78.0124
L4.4158 78.0729
" />
<path d="M4.4158 78.0729
L4.4763 78.1938
" />
<path d="M4.4763 78.1938
L4.4763 78.3148
" />
<path d="M4.4763 78.3148
L4.4158 78.4962
" />
<path d="M4.4158 78.4962
L3.6901 79.2219
" />
<path d="M3.6901 79.2219
L4.4763 79.2219
" />
<path d="M4.8996 77.9519
L5.7462 77.9519
" />
<path d="M5.7462 77.9519
L5.2020 79.2219
" />
</g></g>
<g style="fill:#840000; fill-opacity:0.0; 
stroke:#840000; stroke-width:0.1524; stroke-opacity:1; 
stroke-linecap:round; stroke-linejoin:round;">
<path d="M6.7502 82.1714
L2.6862 82.1714
" />
</g>
<g style="fill:#A90000; fill-opacity:0.0; 
stroke:#A90000; stroke-width:0.1524; stroke-opacity:1; 
stroke-linecap:round; stroke-linejoin:round;">
<text x="4.7182" y="81.9174"
textLength="2.5460" font-size="1.6933" lengthAdjust="spacingAndGlyphs"
text-anchor="middle" opacity="0">28</text>
<g class="stroked-text"><desc>28</desc>
<path d="M3.7506 80.6129
L3.8110 80.5524
" />
<path d="M3.8110 80.5524
L3.9320 80.4919
" />
<path d="M3.9320 80.4919
L4.2344 80.4919
" />
<path d="M4.2344 80.4919
L4.3553 80.5524
" />
<path d="M4.3553 80.5524
L4.4158 80.6129
" />
<path d="M4.4158 80.6129
L4.4763 80.7338
" />
<path d="M4.4763 80.7338
L4.4763 80.8548
" />
<path d="M4.4763 80.8548
L4.4158 81.0362
" />
<path d="M4.4158 81.0362
L3.6901 81.7619
" />
<path d="M3.6901 81.7619
L4.4763 81.7619
" />
<path d="M5.2020 81.0362
L5.0810 80.9757
" />
<path d="M5.0810 80.9757
L5.0205 80.9153
" />
<path d="M5.0205 80.9153
L4.9601 80.7943
" />
<path d="M4.9601 80.7943
L4.9601 80.7338
" />
<path d="M4.9601 80.7338
L5.0205 80.6129
" />
<path d="M5.0205 80.6129
L5.0810 80.5524
" />
<path d="M5.0810 80.5524
L5.2020 80.4919
" />
<path d="M5.2020 80.4919
L5.4439 80.4919
" />
<path d="M5.4439 80.4919
L5.5648 80.5524
" />
<path d="M5.5648 80.5524
L5.6253 80.6129
" />
<path d="M5.6253 80.6129
L5.6858 80.7338
" />
<path d="M5.6858 80.7338
L5.6858 80.7943
" />
<path d="M5.6858 80.7943
L5.6253 80.9153
" />
<path d="M5.6253 80.9153
L5.5648 80.9757
" />
<path d="M5.5648 80.9757
L5.4439 81.0362
" />
<path d="M5.4439 81.0362
L5.2020 81.0362
" />
<path d="M5.2020 81.0362
L5.0810 81.0967
" />
<path d="M5.0810 81.0967
L5.0205 81.1572
" />
<path d="M5.0205 81.1572
L4.9601 81.2781
" />
<path d="M4.9601 81.2781
L4.9601 81.5200
" />
<path d="M4.9601 81.5200
L5.0205 81.6410
" />
<path d="M5.0205 81.6410
L5.0810 81.7015
" />
<path d="M5.0810 81.7015
L5.2020 81.7619
" />
<path d="M5.2020 81.7619
L5.4439 81.7619
" />
<path d="M5.4439 81.7619
L5.5648 81.7015
" />
<path d="M5.5648 81.7015
L5.6253 81.6410
" />
<path d="M5.6253 81.6410
L5.6858 81.5200
" />
<path d="M5.6858 81.5200
L5.6858 81.2781
" />
<path d="M5.6858 81.2781
L5.6253 81.1572
" />
<path d="M5.6253 81.1572
L5.5648 81.0967
" />
<path d="M5.5648 81.0967
L5.4439 81.0362
" />
</g></g>
<g style="fill:#840000; fill-opacity:0.0; 
stroke:#840000; stroke-width:0.1524; stroke-opacity:1; 
stroke-linecap:round; stroke-linejoin:round;">
<path d="M6.7502 84.7114
L2.6862 84.7114
" />
</g>
<g style="fill:#A90000; fill-opacity:0.0; 
stroke:#A90000; stroke-width:0.1524; stroke-opacity:1; 
stroke-linecap:round; stroke-linejoin:round;">
<text x="4.7182" y="84.4574"
textLength="2.5460" font-size="1.6933" lengthAdjust="spacingAndGlyphs"
text-anchor="middle" opacity="0">29</text>
<g class="stroked-text"><desc>29</desc>
<path d="M3.7506 83.1529
L3.8110 83.0924
" />
<path d="M3.8110 83.0924
L3.9320 83.0319
" />
<path d="M3.9320 83.0319
L4.2344 83.0319
" />
<path d="M4.2344 83.0319
L4.3553 83.0924
" />
<path d="M4.3553 83.0924
L4.4158 83.1529
" />
<path d="M4.4158 83.1529
L4.4763 83.2738
" />
<path d="M4.4763 83.2738
L4.4763 83.3948
" />
<path d="M4.4763 83.3948
L4.4158 83.5762
" />
<path d="M4.4158 83.5762
L3.6901 84.3019
" />
<path d="M3.6901 84.3019
L4.4763 84.3019
" />
<path d="M5.0810 84.3019
L5.3229 84.3019
" />
<path d="M5.3229 84.3019
L5.4439 84.2415
" />
<path d="M5.4439 84.2415
L5.5043 84.1810
" />
<path d="M5.5043 84.1810
L5.6253 83.9995
" />
<path d="M5.6253 83.9995
L5.6858 83.7576
" />
<path d="M5.6858 83.7576
L5.6858 83.2738
" />
<path d="M5.6858 83.2738
L5.6253 83.1529
" />
<path d="M5.6253 83.1529
L5.5648 83.0924
" />
<path d="M5.5648 83.0924
L5.4439 83.0319
" />
<path d="M5.4439 83.0319
L5.2020 83.0319
" />
<path d="M5.2020 83.0319
L5.0810 83.0924
" />
<path d="M5.0810 83.0924
L5.0205 83.1529
" />
<path d="M5.0205 83.1529
L4.9601 83.2738
" />
<path d="M4.9601 83.2738
L4.9601 83.5762
" />
<path d="M4.9601 83.5762
L5.0205 83.6972
" />
<path d="M5.0205 83.6972
L5.0810 83.7576
" />
<path d="M5.0810 83.7576
L5.2020 83.8181
" />
<path d="M5.2020 83.8181
L5.4439 83.8181
" />
<path d="M5.4439 83.8181
L5.5648 83.7576
" />
<path d="M5.5648 83.7576
L5.6253 83.6972
" />
<path d="M5.6253 83.6972
L5.6858 83.5762
" />
</g></g>
<g style="fill:#840000; fill-opacity:0.0; 
stroke:#840000; stroke-width:0.1524; stroke-opacity:1; 
stroke-linecap:round; stroke-linejoin:round;">
<path d="M6.7502 18.6714
L2.6862 18.6714
" />
</g>
<g style="fill:#A90000; fill-opacity:0.0; 
stroke:#A90000; stroke-width:0.1524; stroke-opacity:1; 
stroke-linecap:round; stroke-linejoin:round;">
<text x="4.7182" y="18.4174"
textLength="1.3365" font-size="1.6933" lengthAdjust="spacingAndGlyphs"
text-anchor="middle" opacity="0">3</text>
<g class="stroked-text"><desc>3</desc>
<path d="M4.2949 16.9919
L5.0811 16.9919
" />
<path d="M5.0811 16.9919
L4.6577 17.4757
" />
<path d="M4.6577 17.4757
L4.8392 17.4757
" />
<path d="M4.8392 17.4757
L4.9601 17.5362
" />
<path d="M4.9601 17.5362
L5.0206 17.5967
" />
<path d="M5.0206 17.5967
L5.0811 17.7176
" />
<path d="M5.0811 17.7176
L5.0811 18.0200
" />
<path d="M5.0811 18.0200
L5.0206 18.1410
" />
<path d="M5.0206 18.1410
L4.9601 18.2015
" />
<path d="M4.9601 18.2015
L4.8392 18.2619
" />
<path d="M4.8392 18.2619
L4.4763 18.2619
" />
<path d="M4.4763 18.2619
L4.3554 18.2015
" />
<path d="M4.3554 18.2015
L4.2949 18.1410
" />
</g></g>
<g style="fill:#840000; fill-opacity:0.0; 
stroke:#840000; stroke-width:0.1524; stroke-opacity:1; 
stroke-linecap:round; stroke-linejoin:round;">
<path d="M6.7502 87.2514
L2.6862 87.2514
" />
</g>
<g style="fill:#A90000; fill-opacity:0.0; 
stroke:#A90000; stroke-width:0.1524; stroke-opacity:1; 
stroke-linecap:round; stroke-linejoin:round;">
<text x="4.7182" y="86.9974"
textLength="2.5460" font-size="1.6933" lengthAdjust="spacingAndGlyphs"
text-anchor="middle" opacity="0">30</text>
<g class="stroked-text"><desc>30</desc>
<path d="M3.6901 85.5719
L4.4763 85.5719
" />
<path d="M4.4763 85.5719
L4.0529 86.0557
" />
<path d="M4.0529 86.0557
L4.2344 86.0557
" />
<path d="M4.2344 86.0557
L4.3553 86.1162
" />
<path d="M4.3553 86.1162
L4.4158 86.1767
" />
<path d="M4.4158 86.1767
L4.4763 86.2976
" />
<path d="M4.4763 86.2976
L4.4763 86.6000
" />
<path d="M4.4763 86.6000
L4.4158 86.7210
" />
<path d="M4.4158 86.7210
L4.3553 86.7815
" />
<path d="M4.3553 86.7815
L4.2344 86.8419
" />
<path d="M4.2344 86.8419
L3.8715 86.8419
" />
<path d="M3.8715 86.8419
L3.7506 86.7815
" />
<path d="M3.7506 86.7815
L3.6901 86.7210
" />
<path d="M5.2624 85.5719
L5.3834 85.5719
" />
<path d="M5.3834 85.5719
L5.5043 85.6324
" />
<path d="M5.5043 85.6324
L5.5648 85.6929
" />
<path d="M5.5648 85.6929
L5.6253 85.8138
" />
<path d="M5.6253 85.8138
L5.6858 86.0557
" />
<path d="M5.6858 86.0557
L5.6858 86.3581
" />
<path d="M5.6858 86.3581
L5.6253 86.6000
" />
<path d="M5.6253 86.6000
L5.5648 86.7210
" />
<path d="M5.5648 86.7210
L5.5043 86.7815
" />
<path d="M5.5043 86.7815
L5.3834 86.8419
" />
<path d="M5.3834 86.8419
L5.2624 86.8419
" />
<path d="M5.2624 86.8419
L5.1415 86.7815
" />
<path d="M5.1415 86.7815
L5.0810 86.7210
" />
<path d="M5.0810 86.7210
L5.0205 86.6000
" />
<path d="M5.0205 86.6000
L4.9601 86.3581
" />
<path d="M4.9601 86.3581
L4.9601 86.0557
" />
<path d="M4.9601 86.0557
L5.0205 85.8138
" />
<path d="M5.0205 85.8138
L5.0810 85.6929
" />
<path d="M5.0810 85.6929
L5.1415 85.6324
" />
<path d="M5.1415 85.6324
L5.2624 85.5719
" />
</g></g>
<g style="fill:#840000; fill-opacity:0.0; 
stroke:#840000; stroke-width:0.1524; stroke-opacity:1; 
stroke-linecap:round; stroke-linejoin:round;">
<path d="M6.7502 89.7914
L2.6862 89.7914
" />
</g>
<g style="fill:#A90000; fill-opacity:0.0; 
stroke:#A90000; stroke-width:0.1524; stroke-opacity:1; 
stroke-linecap:round; stroke-linejoin:round;">
<text x="4.7182" y="89.5374"
textLength="2.5460" font-size="1.6933" lengthAdjust="spacingAndGlyphs"
text-anchor="middle" opacity="0">31</text>
<g class="stroked-text"><desc>31</desc>
<path d="M3.6901 88.1119
L4.4763 88.1119
" />
<path d="M4.4763 88.1119
L4.0529 88.5957
" />
<path d="M4.0529 88.5957
L4.2344 88.5957
" />
<path d="M4.2344 88.5957
L4.3553 88.6562
" />
<path d="M4.3553 88.6562
L4.4158 88.7167
" />
<path d="M4.4158 88.7167
L4.4763 88.8376
" />
<path d="M4.4763 88.8376
L4.4763 89.1400
" />
<path d="M4.4763 89.1400
L4.4158 89.2610
" />
<path d="M4.4158 89.2610
L4.3553 89.3215
" />
<path d="M4.3553 89.3215
L4.2344 89.3819
" />
<path d="M4.2344 89.3819
L3.8715 89.3819
" />
<path d="M3.8715 89.3819
L3.7506 89.3215
" />
<path d="M3.7506 89.3215
L3.6901 89.2610
" />
<path d="M5.6858 89.3819
L4.9601 89.3819
" />
<path d="M5.3229 89.3819
L5.3229 88.1119
" />
<path d="M5.3229 88.1119
L5.2020 88.2934
" />
<path d="M5.2020 88.2934
L5.0810 88.4143
" />
<path d="M5.0810 88.4143
L4.9601 88.4748
" />
</g></g>
<g style="fill:#840000; fill-opacity:0.0; 
stroke:#840000; stroke-width:0.1524; stroke-opacity:1; 
stroke-linecap:round; stroke-linejoin:round;">
<path d="M6.7502 92.3314
L2.6862 92.3314
" />
</g>
<g style="fill:#A90000; fill-opacity:0.0; 
stroke:#A90000; stroke-width:0.1524; stroke-opacity:1; 
stroke-linecap:round; stroke-linejoin:round;">
<text x="4.7182" y="92.0774"
textLength="2.5460" font-size="1.6933" lengthAdjust="spacingAndGlyphs"
text-anchor="middle" opacity="0">32</text>
<g class="stroked-text"><desc>32</desc>
<path d="M3.6901 90.6519
L4.4763 90.6519
" />
<path d="M4.4763 90.6519
L4.0529 91.1357
" />
<path d="M4.0529 91.1357
L4.2344 91.1357
" />
<path d="M4.2344 91.1357
L4.3553 91.1962
" />
<path d="M4.3553 91.1962
L4.4158 91.2567
" />
<path d="M4.4158 91.2567
L4.4763 91.3776
" />
<path d="M4.4763 91.3776
L4.4763 91.6800
" />
<path d="M4.4763 91.6800
L4.4158 91.8010
" />
<path d="M4.4158 91.8010
L4.3553 91.8615
" />
<path d="M4.3553 91.8615
L4.2344 91.9219
" />
<path d="M4.2344 91.9219
L3.8715 91.9219
" />
<path d="M3.8715 91.9219
L3.7506 91.8615
" />
<path d="M3.7506 91.8615
L3.6901 91.8010
" />
<path d="M4.9601 90.7729
L5.0205 90.7124
" />
<path d="M5.0205 90.7124
L5.1415 90.6519
" />
<path d="M5.1415 90.6519
L5.4439 90.6519
" />
<path d="M5.4439 90.6519
L5.5648 90.7124
" />
<path d="M5.5648 90.7124
L5.6253 90.7729
" />
<path d="M5.6253 90.7729
L5.6858 90.8938
" />
<path d="M5.6858 90.8938
L5.6858 91.0148
" />
<path d="M5.6858 91.0148
L5.6253 91.1962
" />
<path d="M5.6253 91.1962
L4.8996 91.9219
" />
<path d="M4.8996 91.9219
L5.6858 91.9219
" />
</g></g>
<g style="fill:#840000; fill-opacity:0.0; 
stroke:#840000; stroke-width:0.1524; stroke-opacity:1; 
stroke-linecap:round; stroke-linejoin:round;">
<path d="M6.7502 94.8714
L2.6862 94.8714
" />
</g>
<g style="fill:#A90000; fill-opacity:0.0; 
stroke:#A90000; stroke-width:0.1524; stroke-opacity:1; 
stroke-linecap:round; stroke-linejoin:round;">
<text x="4.7182" y="94.6174"
textLength="2.5460" font-size="1.6933" lengthAdjust="spacingAndGlyphs"
text-anchor="middle" opacity="0">33</text>
<g class="stroked-text"><desc>33</desc>
<path d="M3.6901 93.1919
L4.4763 93.1919
" />
<path d="M4.4763 93.1919
L4.0529 93.6757
" />
<path d="M4.0529 93.6757
L4.2344 93.6757
" />
<path d="M4.2344 93.6757
L4.3553 93.7362
" />
<path d="M4.3553 93.7362
L4.4158 93.7967
" />
<path d="M4.4158 93.7967
L4.4763 93.9176
" />
<path d="M4.4763 93.9176
L4.4763 94.2200
" />
<path d="M4.4763 94.2200
L4.4158 94.3410
" />
<path d="M4.4158 94.3410
L4.3553 94.4015
" />
<path d="M4.3553 94.4015
L4.2344 94.4619
" />
<path d="M4.2344 94.4619
L3.8715 94.4619
" />
<path d="M3.8715 94.4619
L3.7506 94.4015
" />
<path d="M3.7506 94.4015
L3.6901 94.3410
" />
<path d="M4.8996 93.1919
L5.6858 93.1919
" />
<path d="M5.6858 93.1919
L5.2624 93.6757
" />
<path d="M5.2624 93.6757
L5.4439 93.6757
" />
<path d="M5.4439 93.6757
L5.5648 93.7362
" />
<path d="M5.5648 93.7362
L5.6253 93.7967
" />
<path d="M5.6253 93.7967
L5.6858 93.9176
" />
<path d="M5.6858 93.9176
L5.6858 94.2200
" />
<path d="M5.6858 94.2200
L5.6253 94.3410
" />
<path d="M5.6253 94.3410
L5.5648 94.4015
" />
<path d="M5.5648 94.4015
L5.4439 94.4619
" />
<path d="M5.4439 94.4619
L5.0810 94.4619
" />
<path d="M5.0810 94.4619
L4.9601 94.4015
" />
<path d="M4.9601 94.4015
L4.8996 94.3410
" />
</g></g>
<g style="fill:#840000; fill-opacity:0.0; 
stroke:#840000; stroke-width:0.1524; stroke-opacity:1; 
stroke-linecap:round; stroke-linejoin:round;">
<path d="M6.7502 97.4114
L2.6862 97.4114
" />
</g>
<g style="fill:#A90000; fill-opacity:0.0; 
stroke:#A90000; stroke-width:0.1524; stroke-opacity:1; 
stroke-linecap:round; stroke-linejoin:round;">
<text x="4.7182" y="97.1574"
textLength="2.5460" font-size="1.6933" lengthAdjust="spacingAndGlyphs"
text-anchor="middle" opacity="0">34</text>
<g class="stroked-text"><desc>34</desc>
<path d="M3.6901 95.7319
L4.4763 95.7319
" />
<path d="M4.4763 95.7319
L4.0529 96.2157
" />
<path d="M4.0529 96.2157
L4.2344 96.2157
" />
<path d="M4.2344 96.2157
L4.3553 96.2762
" />
<path d="M4.3553 96.2762
L4.4158 96.3367
" />
<path d="M4.4158 96.3367
L4.4763 96.4576
" />
<path d="M4.4763 96.4576
L4.4763 96.7600
" />
<path d="M4.4763 96.7600
L4.4158 96.8810
" />
<path d="M4.4158 96.8810
L4.3553 96.9415
" />
<path d="M4.3553 96.9415
L4.2344 97.0019
" />
<path d="M4.2344 97.0019
L3.8715 97.0019
" />
<path d="M3.8715 97.0019
L3.7506 96.9415
" />
<path d="M3.7506 96.9415
L3.6901 96.8810
" />
<path d="M5.5648 96.1553
L5.5648 97.0019
" />
<path d="M5.2624 95.6715
L4.9601 96.5786
" />
<path d="M4.9601 96.5786
L5.7462 96.5786
" />
</g></g>
<g style="fill:#840000; fill-opacity:0.0; 
stroke:#840000; stroke-width:0.1524; stroke-opacity:1; 
stroke-linecap:round; stroke-linejoin:round;">
<path d="M6.7502 99.9514
L2.6862 99.9514
" />
</g>
<g style="fill:#A90000; fill-opacity:0.0; 
stroke:#A90000; stroke-width:0.1524; stroke-opacity:1; 
stroke-linecap:round; stroke-linejoin:round;">
<text x="4.7182" y="99.6974"
textLength="2.5460" font-size="1.6933" lengthAdjust="spacingAndGlyphs"
text-anchor="middle" opacity="0">35</text>
<g class="stroked-text"><desc>35</desc>
<path d="M3.6901 98.2719
L4.4763 98.2719
" />
<path d="M4.4763 98.2719
L4.0529 98.7557
" />
<path d="M4.0529 98.7557
L4.2344 98.7557
" />
<path d="M4.2344 98.7557
L4.3553 98.8162
" />
<path d="M4.3553 98.8162
L4.4158 98.8767
" />
<path d="M4.4158 98.8767
L4.4763 98.9976
" />
<path d="M4.4763 98.9976
L4.4763 99.3000
" />
<path d="M4.4763 99.3000
L4.4158 99.4210
" />
<path d="M4.4158 99.4210
L4.3553 99.4815
" />
<path d="M4.3553 99.4815
L4.2344 99.5419
" />
<path d="M4.2344 99.5419
L3.8715 99.5419
" />
<path d="M3.8715 99.5419
L3.7506 99.4815
" />
<path d="M3.7506 99.4815
L3.6901 99.4210
" />
<path d="M5.6253 98.2719
L5.0205 98.2719
" />
<path d="M5.0205 98.2719
L4.9601 98.8767
" />
<path d="M4.9601 98.8767
L5.0205 98.8162
" />
<path d="M5.0205 98.8162
L5.1415 98.7557
" />
<path d="M5.1415 98.7557
L5.4439 98.7557
" />
<path d="M5.4439 98.7557
L5.5648 98.8162
" />
<path d="M5.5648 98.8162
L5.6253 98.8767
" />
<path d="M5.6253 98.8767
L5.6858 98.9976
" />
<path d="M5.6858 98.9976
L5.6858 99.3000
" />
<path d="M5.6858 99.3000
L5.6253 99.4210
" />
<path d="M5.6253 99.4210
L5.5648 99.4815
" />
<path d="M5.5648 99.4815
L5.4439 99.5419
" />
<path d="M5.4439 99.5419
L5.1415 99.5419
" />
<path d="M5.1415 99.5419
L5.0205 99.4815
" />
<path d="M5.0205 99.4815
L4.9601 99.4210
" />
</g></g>
<g style="fill:#840000; fill-opacity:0.0; 
stroke:#840000; stroke-width:0.1524; stroke-opacity:1; 
stroke-linecap:round; stroke-linejoin:round;">
<path d="M6.7502 102.4914
L2.6862 102.4914
" />
</g>
<g style="fill:#A90000; fill-opacity:0.0; 
stroke:#A90000; stroke-width:0.1524; stroke-opacity:1; 
stroke-linecap:round; stroke-linejoin:round;">
<text x="4.7182" y="102.2374"
textLength="2.5460" font-size="1.6933" lengthAdjust="spacingAndGlyphs"
text-anchor="middle" opacity="0">36</text>
<g class="stroked-text"><desc>36</desc>
<path d="M3.6901 100.8119
L4.4763 100.8119
" />
<path d="M4.4763 100.8119
L4.0529 101.2957
" />
<path d="M4.0529 101.2957
L4.2344 101.2957
" />
<path d="M4.2344 101.2957
L4.3553 101.3562
" />
<path d="M4.3553 101.3562
L4.4158 101.4167
" />
<path d="M4.4158 101.4167
L4.4763 101.5376
" />
<path d="M4.4763 101.5376
L4.4763 101.8400
" />
<path d="M4.4763 101.8400
L4.4158 101.9610
" />
<path d="M4.4158 101.9610
L4.3553 102.0215
" />
<path d="M4.3553 102.0215
L4.2344 102.0819
" />
<path d="M4.2344 102.0819
L3.8715 102.0819
" />
<path d="M3.8715 102.0819
L3.7506 102.0215
" />
<path d="M3.7506 102.0215
L3.6901 101.9610
" />
<path d="M5.5648 100.8119
L5.3229 100.8119
" />
<path d="M5.3229 100.8119
L5.2020 100.8724
" />
<path d="M5.2020 100.8724
L5.1415 100.9329
" />
<path d="M5.1415 100.9329
L5.0205 101.1143
" />
<path d="M5.0205 101.1143
L4.9601 101.3562
" />
<path d="M4.9601 101.3562
L4.9601 101.8400
" />
<path d="M4.9601 101.8400
L5.0205 101.9610
" />
<path d="M5.0205 101.9610
L5.0810 102.0215
" />
<path d="M5.0810 102.0215
L5.2020 102.0819
" />
<path d="M5.2020 102.0819
L5.4439 102.0819
" />
<path d="M5.4439 102.0819
L5.5648 102.0215
" />
<path d="M5.5648 102.0215
L5.6253 101.9610
" />
<path d="M5.6253 101.9610
L5.6858 101.8400
" />
<path d="M5.6858 101.8400
L5.6858 101.5376
" />
<path d="M5.6858 101.5376
L5.6253 101.4167
" />
<path d="M5.6253 101.4167
L5.5648 101.3562
" />
<path d="M5.5648 101.3562
L5.4439 101.2957
" />
<path d="M5.4439 101.2957
L5.2020 101.2957
" />
<path d="M5.2020 101.2957
L5.0810 101.3562
" />
<path d="M5.0810 101.3562
L5.0205 101.4167
" />
<path d="M5.0205 101.4167
L4.9601 101.5376
" />
</g></g>
<g style="fill:#840000; fill-opacity:0.0; 
stroke:#840000; stroke-width:0.1524; stroke-opacity:1; 
stroke-linecap:round; stroke-linejoin:round;">
<path d="M6.7502 105.0314
L2.6862 105.0314
" />
</g>
<g style="fill:#A90000; fill-opacity:0.0; 
stroke:#A90000; stroke-width:0.1524; stroke-opacity:1; 
stroke-linecap:round; stroke-linejoin:round;">
<text x="4.7182" y="104.7774"
textLength="2.5460" font-size="1.6933" lengthAdjust="spacingAndGlyphs"
text-anchor="middle" opacity="0">37</text>
<g class="stroked-text"><desc>37</desc>
<path d="M3.6901 103.3519
L4.4763 103.3519
" />
<path d="M4.4763 103.3519
L4.0529 103.8357
" />
<path d="M4.0529 103.8357
L4.2344 103.8357
" />
<path d="M4.2344 103.8357
L4.3553 103.8962
" />
<path d="M4.3553 103.8962
L4.4158 103.9567
" />
<path d="M4.4158 103.9567
L4.4763 104.0776
" />
<path d="M4.4763 104.0776
L4.4763 104.3800
" />
<path d="M4.4763 104.3800
L4.4158 104.5010
" />
<path d="M4.4158 104.5010
L4.3553 104.5615
" />
<path d="M4.3553 104.5615
L4.2344 104.6219
" />
<path d="M4.2344 104.6219
L3.8715 104.6219
" />
<path d="M3.8715 104.6219
L3.7506 104.5615
" />
<path d="M3.7506 104.5615
L3.6901 104.5010
" />
<path d="M4.8996 103.3519
L5.7462 103.3519
" />
<path d="M5.7462 103.3519
L5.2020 104.6219
" />
</g></g>
<g style="fill:#840000; fill-opacity:0.0; 
stroke:#840000; stroke-width:0.1524; stroke-opacity:1; 
stroke-linecap:round; stroke-linejoin:round;">
<path d="M6.7502 107.5714
L2.6862 107.5714
" />
</g>
<g style="fill:#A90000; fill-opacity:0.0; 
stroke:#A90000; stroke-width:0.1524; stroke-opacity:1; 
stroke-linecap:round; stroke-linejoin:round;">
<text x="4.7182" y="107.3174"
textLength="2.5460" font-size="1.6933" lengthAdjust="spacingAndGlyphs"
text-anchor="middle" opacity="0">38</text>
<g class="stroked-text"><desc>38</desc>
<path d="M3.6901 105.8919
L4.4763 105.8919
" />
<path d="M4.4763 105.8919
L4.0529 106.3757
" />
<path d="M4.0529 106.3757
L4.2344 106.3757
" />
<path d="M4.2344 106.3757
L4.3553 106.4362
" />
<path d="M4.3553 106.4362
L4.4158 106.4967
" />
<path d="M4.4158 106.4967
L4.4763 106.6176
" />
<path d="M4.4763 106.6176
L4.4763 106.9200
" />
<path d="M4.4763 106.9200
L4.4158 107.0410
" />
<path d="M4.4158 107.0410
L4.3553 107.1015
" />
<path d="M4.3553 107.1015
L4.2344 107.1619
" />
<path d="M4.2344 107.1619
L3.8715 107.1619
" />
<path d="M3.8715 107.1619
L3.7506 107.1015
" />
<path d="M3.7506 107.1015
L3.6901 107.0410
" />
<path d="M5.2020 106.4362
L5.0810 106.3757
" />
<path d="M5.0810 106.3757
L5.0205 106.3153
" />
<path d="M5.0205 106.3153
L4.9601 106.1943
" />
<path d="M4.9601 106.1943
L4.9601 106.1338
" />
<path d="M4.9601 106.1338
L5.0205 106.0129
" />
<path d="M5.0205 106.0129
L5.0810 105.9524
" />
<path d="M5.0810 105.9524
L5.2020 105.8919
" />
<path d="M5.2020 105.8919
L5.4439 105.8919
" />
<path d="M5.4439 105.8919
L5.5648 105.9524
" />
<path d="M5.5648 105.9524
L5.6253 106.0129
" />
<path d="M5.6253 106.0129
L5.6858 106.1338
" />
<path d="M5.6858 106.1338
L5.6858 106.1943
" />
<path d="M5.6858 106.1943
L5.6253 106.3153
" />
<path d="M5.6253 106.3153
L5.5648 106.3757
" />
<path d="M5.5648 106.3757
L5.4439 106.4362
" />
<path d="M5.4439 106.4362
L5.2020 106.4362
" />
<path d="M5.2020 106.4362
L5.0810 106.4967
" />
<path d="M5.0810 106.4967
L5.0205 106.5572
" />
<path d="M5.0205 106.5572
L4.9601 106.6781
" />
<path d="M4.9601 106.6781
L4.9601 106.9200
" />
<path d="M4.9601 106.9200
L5.0205 107.0410
" />
<path d="M5.0205 107.0410
L5.0810 107.1015
" />
<path d="M5.0810 107.1015
L5.2020 107.1619
" />
<path d="M5.2020 107.1619
L5.4439 107.1619
" />
<path d="M5.4439 107.1619
L5.5648 107.1015
" />
<path d="M5.5648 107.1015
L5.6253 107.0410
" />
<path d="M5.6253 107.0410
L5.6858 106.9200
" />
<path d="M5.6858 106.9200
L5.6858 106.6781
" />
<path d="M5.6858 106.6781
L5.6253 106.5572
" />
<path d="M5.6253 106.5572
L5.5648 106.4967
" />
<path d="M5.5648 106.4967
L5.4439 106.4362
" />
</g></g>
<g style="fill:#840000; fill-opacity:0.0; 
stroke:#840000; stroke-width:0.1524; stroke-opacity:1; 
stroke-linecap:round; stroke-linejoin:round;">
<path d="M6.7502 110.1114
L2.6862 110.1114
" />
</g>
<g style="fill:#A90000; fill-opacity:0.0; 
stroke:#A90000; stroke-width:0.1524; stroke-opacity:1; 
stroke-linecap:round; stroke-linejoin:round;">
<text x="4.7182" y="109.8574"
textLength="2.5460" font-size="1.6933" lengthAdjust="spacingAndGlyphs"
text-anchor="middle" opacity="0">39</text>
<g class="stroked-text"><desc>39</desc>
<path d="M3.6901 108.4319
L4.4763 108.4319
" />
<path d="M4.4763 108.4319
L4.0529 108.9157
" />
<path d="M4.0529 108.9157
L4.2344 108.9157
" />
<path d="M4.2344 108.9157
L4.3553 108.9762
" />
<path d="M4.3553 108.9762
L4.4158 109.0367
" />
<path d="M4.4158 109.0367
L4.4763 109.1576
" />
<path d="M4.4763 109.1576
L4.4763 109.4600
" />
<path d="M4.4763 109.4600
L4.4158 109.5810
" />
<path d="M4.4158 109.5810
L4.3553 109.6415
" />
<path d="M4.3553 109.6415
L4.2344 109.7019
" />
<path d="M4.2344 109.7019
L3.8715 109.7019
" />
<path d="M3.8715 109.7019
L3.7506 109.6415
" />
<path d="M3.7506 109.6415
L3.6901 109.5810
" />
<path d="M5.0810 109.7019
L5.3229 109.7019
" />
<path d="M5.3229 109.7019
L5.4439 109.6415
" />
<path d="M5.4439 109.6415
L5.5043 109.5810
" />
<path d="M5.5043 109.5810
L5.6253 109.3995
" />
<path d="M5.6253 109.3995
L5.6858 109.1576
" />
<path d="M5.6858 109.1576
L5.6858 108.6738
" />
<path d="M5.6858 108.6738
L5.6253 108.5529
" />
<path d="M5.6253 108.5529
L5.5648 108.4924
" />
<path d="M5.5648 108.4924
L5.4439 108.4319
" />
<path d="M5.4439 108.4319
L5.2020 108.4319
" />
<path d="M5.2020 108.4319
L5.0810 108.4924
" />
<path d="M5.0810 108.4924
L5.0205 108.5529
" />
<path d="M5.0205 108.5529
L4.9601 108.6738
" />
<path d="M4.9601 108.6738
L4.9601 108.9762
" />
<path d="M4.9601 108.9762
L5.0205 109.0972
" />
<path d="M5.0205 109.0972
L5.0810 109.1576
" />
<path d="M5.0810 109.1576
L5.2020 109.2181
" />
<path d="M5.2020 109.2181
L5.4439 109.2181
" />
<path d="M5.4439 109.2181
L5.5648 109.1576
" />
<path d="M5.5648 109.1576
L5.6253 109.0972
" />
<path d="M5.6253 109.0972
L5.6858 108.9762
" />
</g></g>
<g style="fill:#840000; fill-opacity:0.0; 
stroke:#840000; stroke-width:0.1524; stroke-opacity:1; 
stroke-linecap:round; stroke-linejoin:round;">
<path d="M6.7502 21.2114
L2.6862 21.2114
" />
</g>
<g style="fill:#A90000; fill-opacity:0.0; 
stroke:#A90000; stroke-width:0.1524; stroke-opacity:1; 
stroke-linecap:round; stroke-linejoin:round;">
<text x="4.7182" y="20.9574"
textLength="1.3365" font-size="1.6933" lengthAdjust="spacingAndGlyphs"
text-anchor="middle" opacity="0">4</text>
<g class="stroked-text"><desc>4</desc>
<path d="M4.9601 19.9553
L4.9601 20.8019
" />
<path d="M4.6577 19.4715
L4.3554 20.3786
" />
<path d="M4.3554 20.3786
L5.1415 20.3786
" />
</g></g>
<g style="fill:#840000; fill-opacity:0.0; 
stroke:#840000; stroke-width:0.1524; stroke-opacity:1; 
stroke-linecap:round; stroke-linejoin:round;">
<path d="M6.7502 23.7514
L2.6862 23.7514
" />
</g>
<g style="fill:#A90000; fill-opacity:0.0; 
stroke:#A90000; stroke-width:0.1524; stroke-opacity:1; 
stroke-linecap:round; stroke-linejoin:round;">
<text x="4.7182" y="23.4974"
textLength="1.3365" font-size="1.6933" lengthAdjust="spacingAndGlyphs"
text-anchor="middle" opacity="0">5</text>
<g class="stroked-text"><desc>5</desc>
<path d="M5.0206 22.0719
L4.4158 22.0719
" />
<path d="M4.4158 22.0719
L4.3554 22.6767
" />
<path d="M4.3554 22.6767
L4.4158 22.6162
" />
<path d="M4.4158 22.6162
L4.5368 22.5557
" />
<path d="M4.5368 22.5557
L4.8392 22.5557
" />
<path d="M4.8392 22.5557
L4.9601 22.6162
" />
<path d="M4.9601 22.6162
L5.0206 22.6767
" />
<path d="M5.0206 22.6767
L5.0811 22.7976
" />
<path d="M5.0811 22.7976
L5.0811 23.1000
" />
<path d="M5.0811 23.1000
L5.0206 23.2210
" />
<path d="M5.0206 23.2210
L4.9601 23.2815
" />
<path d="M4.9601 23.2815
L4.8392 23.3419
" />
<path d="M4.8392 23.3419
L4.5368 23.3419
" />
<path d="M4.5368 23.3419
L4.4158 23.2815
" />
<path d="M4.4158 23.2815
L4.3554 23.2210
" />
</g></g>
<g style="fill:#840000; fill-opacity:0.0; 
stroke:#840000; stroke-width:0.1524; stroke-opacity:1; 
stroke-linecap:round; stroke-linejoin:round;">
<path d="M6.7502 26.2914
L2.6862 26.2914
" />
</g>
<g style="fill:#A90000; fill-opacity:0.0; 
stroke:#A90000; stroke-width:0.1524; stroke-opacity:1; 
stroke-linecap:round; stroke-linejoin:round;">
<text x="4.7182" y="26.0374"
textLength="1.3365" font-size="1.6933" lengthAdjust="spacingAndGlyphs"
text-anchor="middle" opacity="0">6</text>
<g class="stroked-text"><desc>6</desc>
<path d="M4.9601 24.6119
L4.7182 24.6119
" />
<path d="M4.7182 24.6119
L4.5973 24.6724
" />
<path d="M4.5973 24.6724
L4.5368 24.7329
" />
<path d="M4.5368 24.7329
L4.4158 24.9143
" />
<path d="M4.4158 24.9143
L4.3554 25.1562
" />
<path d="M4.3554 25.1562
L4.3554 25.6400
" />
<path d="M4.3554 25.6400
L4.4158 25.7610
" />
<path d="M4.4158 25.7610
L4.4763 25.8215
" />
<path d="M4.4763 25.8215
L4.5973 25.8819
" />
<path d="M4.5973 25.8819
L4.8392 25.8819
" />
<path d="M4.8392 25.8819
L4.9601 25.8215
" />
<path d="M4.9601 25.8215
L5.0206 25.7610
" />
<path d="M5.0206 25.7610
L5.0811 25.6400
" />
<path d="M5.0811 25.6400
L5.0811 25.3376
" />
<path d="M5.0811 25.3376
L5.0206 25.2167
" />
<path d="M5.0206 25.2167
L4.9601 25.1562
" />
<path d="M4.9601 25.1562
L4.8392 25.0957
" />
<path d="M4.8392 25.0957
L4.5973 25.0957
" />
<path d="M4.5973 25.0957
L4.4763 25.1562
" />
<path d="M4.4763 25.1562
L4.4158 25.2167
" />
<path d="M4.4158 25.2167
L4.3554 25.3376
" />
</g></g>
<g style="fill:#840000; fill-opacity:0.0; 
stroke:#840000; stroke-width:0.1524; stroke-opacity:1; 
stroke-linecap:round; stroke-linejoin:round;">
<path d="M6.7502 28.8314
L2.6862 28.8314
" />
</g>
<g style="fill:#A90000; fill-opacity:0.0; 
stroke:#A90000; stroke-width:0.1524; stroke-opacity:1; 
stroke-linecap:round; stroke-linejoin:round;">
<text x="4.7182" y="28.5774"
textLength="1.3365" font-size="1.6933" lengthAdjust="spacingAndGlyphs"
text-anchor="middle" opacity="0">7</text>
<g class="stroked-text"><desc>7</desc>
<path d="M4.2949 27.1519
L5.1415 27.1519
" />
<path d="M5.1415 27.1519
L4.5973 28.4219
" />
</g></g>
<g style="fill:#840000; fill-opacity:0.0; 
stroke:#840000; stroke-width:0.1524; stroke-opacity:1; 
stroke-linecap:round; stroke-linejoin:round;">
<path d="M6.7502 31.3714
L2.6862 31.3714
" />
</g>
<g style="fill:#A90000; fill-opacity:0.0; 
stroke:#A90000; stroke-width:0.1524; stroke-opacity:1; 
stroke-linecap:round; stroke-linejoin:round;">
<text x="4.7182" y="31.1174"
textLength="1.3365" font-size="1.6933" lengthAdjust="spacingAndGlyphs"
text-anchor="middle" opacity="0">8</text>
<g class="stroked-text"><desc>8</desc>
<path d="M4.5973 30.2362
L4.4763 30.1757
" />
<path d="M4.4763 30.1757
L4.4158 30.1153
" />
<path d="M4.4158 30.1153
L4.3554 29.9943
" />
<path d="M4.3554 29.9943
L4.3554 29.9338
" />
<path d="M4.3554 29.9338
L4.4158 29.8129
" />
<path d="M4.4158 29.8129
L4.4763 29.7524
" />
<path d="M4.4763 29.7524
L4.5973 29.6919
" />
<path d="M4.5973 29.6919
L4.8392 29.6919
" />
<path d="M4.8392 29.6919
L4.9601 29.7524
" />
<path d="M4.9601 29.7524
L5.0206 29.8129
" />
<path d="M5.0206 29.8129
L5.0811 29.9338
" />
<path d="M5.0811 29.9338
L5.0811 29.9943
" />
<path d="M5.0811 29.9943
L5.0206 30.1153
" />
<path d="M5.0206 30.1153
L4.9601 30.1757
" />
<path d="M4.9601 30.1757
L4.8392 30.2362
" />
<path d="M4.8392 30.2362
L4.5973 30.2362
" />
<path d="M4.5973 30.2362
L4.4763 30.2967
" />
<path d="M4.4763 30.2967
L4.4158 30.3572
" />
<path d="M4.4158 30.3572
L4.3554 30.4781
" />
<path d="M4.3554 30.4781
L4.3554 30.7200
" />
<path d="M4.3554 30.7200
L4.4158 30.8410
" />
<path d="M4.4158 30.8410
L4.4763 30.9015
" />
<path d="M4.4763 30.9015
L4.5973 30.9619
" />
<path d="M4.5973 30.9619
L4.8392 30.9619
" />
<path d="M4.8392 30.9619
L4.9601 30.9015
" />
<path d="M4.9601 30.9015
L5.0206 30.8410
" />
<path d="M5.0206 30.8410
L5.0811 30.7200
" />
<path d="M5.0811 30.7200
L5.0811 30.4781
" />
<path d="M5.0811 30.4781
L5.0206 30.3572
" />
<path d="M5.0206 30.3572
L4.9601 30.2967
" />
<path d="M4.9601 30.2967
L4.8392 30.2362
" />
</g></g>
<g style="fill:#840000; fill-opacity:0.0; 
stroke:#840000; stroke-width:0.1524; stroke-opacity:1; 
stroke-linecap:round; stroke-linejoin:round;">
<path d="M6.7502 33.9114
L2.6862 33.9114
" />
</g>
<g style="fill:#A90000; fill-opacity:0.0; 
stroke:#A90000; stroke-width:0.1524; stroke-opacity:1; 
stroke-linecap:round; stroke-linejoin:round;">
<text x="4.7182" y="33.6574"
textLength="1.3365" font-size="1.6933" lengthAdjust="spacingAndGlyphs"
text-anchor="middle" opacity="0">9</text>
<g class="stroked-text"><desc>9</desc>
<path d="M4.4763 33.5019
L4.7182 33.5019
" />
<path d="M4.7182 33.5019
L4.8392 33.4415
" />
<path d="M4.8392 33.4415
L4.8996 33.3810
" />
<path d="M4.8996 33.3810
L5.0206 33.1995
" />
<path d="M5.0206 33.1995
L5.0811 32.9576
" />
<path d="M5.0811 32.9576
L5.0811 32.4738
" />
<path d="M5.0811 32.4738
L5.0206 32.3529
" />
<path d="M5.0206 32.3529
L4.9601 32.2924
" />
<path d="M4.9601 32.2924
L4.8392 32.2319
" />
<path d="M4.8392 32.2319
L4.5973 32.2319
" />
<path d="M4.5973 32.2319
L4.4763 32.2924
" />
<path d="M4.4763 32.2924
L4.4158 32.3529
" />
<path d="M4.4158 32.3529
L4.3554 32.4738
" />
<path d="M4.3554 32.4738
L4.3554 32.7762
" />
<path d="M4.3554 32.7762
L4.4158 32.8972
" />
<path d="M4.4158 32.8972
L4.4763 32.9576
" />
<path d="M4.4763 32.9576
L4.5973 33.0181
" />
<path d="M4.5973 33.0181
L4.8392 33.0181
" />
<path d="M4.8392 33.0181
L4.9601 32.9576
" />
<path d="M4.9601 32.9576
L5.0206 32.8972
" />
<path d="M5.0206 32.8972
L5.0811 32.7762
" />
</g></g>
<g style="fill:#840000; fill-opacity:0.0; 
stroke:#840000; stroke-width:0.1524; stroke-opacity:1; 
stroke-linecap:round; stroke-linejoin:round;">
<path d="M7.7662 111.3814
L7.7662 115.1914
" />
</g>
<g style="fill:#A90000; fill-opacity:0.0; 
stroke:#A90000; stroke-width:0.1524; stroke-opacity:1; 
stroke-linecap:round; stroke-linejoin:round;">
<g transform="rotate(-90.000000 7.5122 113.2864)">
<text x="7.5122" y="113.2864"
textLength="2.6670" font-size="1.6933" lengthAdjust="spacingAndGlyphs"
text-anchor="middle" opacity="0">SH</text>
</g>
<g class="stroked-text"><desc>SH</desc>
<path d="M7.2963 114.3144
L7.3567 114.1330
" />
<path d="M7.3567 114.1330
L7.3567 113.8306
" />
<path d="M7.3567 113.8306
L7.2963 113.7097
" />
<path d="M7.2963 113.7097
L7.2358 113.6492
" />
<path d="M7.2358 113.6492
L7.1148 113.5887
" />
<path d="M7.1148 113.5887
L6.9939 113.5887
" />
<path d="M6.9939 113.5887
L6.8729 113.6492
" />
<path d="M6.8729 113.6492
L6.8124 113.7097
" />
<path d="M6.8124 113.7097
L6.7520 113.8306
" />
<path d="M6.7520 113.8306
L6.6915 114.0725
" />
<path d="M6.6915 114.0725
L6.6310 114.1935
" />
<path d="M6.6310 114.1935
L6.5705 114.2540
" />
<path d="M6.5705 114.2540
L6.4496 114.3144
" />
<path d="M6.4496 114.3144
L6.3286 114.3144
" />
<path d="M6.3286 114.3144
L6.2077 114.2540
" />
<path d="M6.2077 114.2540
L6.1472 114.1935
" />
<path d="M6.1472 114.1935
L6.0867 114.0725
" />
<path d="M6.0867 114.0725
L6.0867 113.7702
" />
<path d="M6.0867 113.7702
L6.1472 113.5887
" />
<path d="M7.3567 113.0445
L6.0867 113.0445
" />
<path d="M6.6915 113.0445
L6.6915 112.3188
" />
<path d="M7.3567 112.3188
L6.0867 112.3188
" />
</g></g>
<g style="fill:#840084; fill-opacity:0.0; 
stroke:#840084; stroke-width:0.1524; stroke-opacity:1; 
stroke-linecap:round; stroke-linejoin:round;">
</g>
<g style="fill:#006464; fill-opacity:0.0; 
stroke:#006464; stroke-width:0.1524; stroke-opacity:1; 
stroke-linecap:round; stroke-linejoin:round;">
</g>
<g style="fill:#006464; fill-opacity:0.0; 
stroke:#006464; stroke-width:0.1588; stroke-opacity:1; 
stroke-linecap:round; stroke-linejoin:round;">
<text x="8.0202" y="11.9404"
textLength="2.1992" font-size="1.6933" lengthAdjust="spacingAndGlyphs"
text-anchor="middle" opacity="0">J?</text>
<g class="stroked-text"><desc>J?</desc>
<path d="M7.6573 10.6229
L7.6573 11.5301
" />
<path d="M7.6573 11.5301
L7.5968 11.7115
" />
<path d="M7.5968 11.7115
L7.4759 11.8325
" />
<path d="M7.4759 11.8325
L7.2944 11.8929
" />
<path d="M7.2944 11.8929
L7.1735 11.8929
" />
<path d="M8.4435 11.7720
L8.5039 11.8325
" />
<path d="M8.5039 11.8325
L8.4435 11.8929
" />
<path d="M8.4435 11.8929
L8.3830 11.8325
" />
<path d="M8.3830 11.8325
L8.4435 11.7720
" />
<path d="M8.4435 11.7720
L8.4435 11.8929
" />
<path d="M8.2016 10.6834
L8.3225 10.6229
" />
<path d="M8.3225 10.6229
L8.6249 10.6229
" />
<path d="M8.6249 10.6229
L8.7458 10.6834
" />
<path d="M8.7458 10.6834
L8.8063 10.8044
" />
<path d="M8.8063 10.8044
L8.8063 10.9253
" />
<path d="M8.8063 10.9253
L8.7458 11.0463
" />
<path d="M8.7458 11.0463
L8.6854 11.1067
" />
<path d="M8.6854 11.1067
L8.5644 11.1672
" />
<path d="M8.5644 11.1672
L8.5039 11.2277
" />
<path d="M8.5039 11.2277
L8.4435 11.3486
" />
<path d="M8.4435 11.3486
L8.4435 11.4091
" />
</g><text x="19.1647" y="113.0324"
textLength="20.7650" font-size="1.6933" lengthAdjust="spacingAndGlyphs"
text-anchor="middle" opacity="0">Conn_01x39_Shielded</text>
<g class="stroked-text"><desc>Conn_01x39_Shielded</desc>
<path d="M9.8817 112.8640
L9.8213 112.9245
" />
<path d="M9.8213 112.9245
L9.6398 112.9849
" />
<path d="M9.6398 112.9849
L9.5189 112.9849
" />
<path d="M9.5189 112.9849
L9.3375 112.9245
" />
<path d="M9.3375 112.9245
L9.2165 112.8035
" />
<path d="M9.2165 112.8035
L9.1560 112.6825
" />
<path d="M9.1560 112.6825
L9.0956 112.4406
" />
<path d="M9.0956 112.4406
L9.0956 112.2592
" />
<path d="M9.0956 112.2592
L9.1560 112.0173
" />
<path d="M9.1560 112.0173
L9.2165 111.8964
" />
<path d="M9.2165 111.8964
L9.3375 111.7754
" />
<path d="M9.3375 111.7754
L9.5189 111.7149
" />
<path d="M9.5189 111.7149
L9.6398 111.7149
" />
<path d="M9.6398 111.7149
L9.8213 111.7754
" />
<path d="M9.8213 111.7754
L9.8817 111.8359
" />
<path d="M10.6075 112.9849
L10.4865 112.9245
" />
<path d="M10.4865 112.9245
L10.4260 112.8640
" />
<path d="M10.4260 112.8640
L10.3656 112.7430
" />
<path d="M10.3656 112.7430
L10.3656 112.3802
" />
<path d="M10.3656 112.3802
L10.4260 112.2592
" />
<path d="M10.4260 112.2592
L10.4865 112.1987
" />
<path d="M10.4865 112.1987
L10.6075 112.1383
" />
<path d="M10.6075 112.1383
L10.7889 112.1383
" />
<path d="M10.7889 112.1383
L10.9098 112.1987
" />
<path d="M10.9098 112.1987
L10.9703 112.2592
" />
<path d="M10.9703 112.2592
L11.0308 112.3802
" />
<path d="M11.0308 112.3802
L11.0308 112.7430
" />
<path d="M11.0308 112.7430
L10.9703 112.8640
" />
<path d="M10.9703 112.8640
L10.9098 112.9245
" />
<path d="M10.9098 112.9245
L10.7889 112.9849
" />
<path d="M10.7889 112.9849
L10.6075 112.9849
" />
<path d="M11.5750 112.1383
L11.5750 112.9849
" />
<path d="M11.5750 112.2592
L11.6355 112.1987
" />
<path d="M11.6355 112.1987
L11.7565 112.1383
" />
<path d="M11.7565 112.1383
L11.9379 112.1383
" />
<path d="M11.9379 112.1383
L12.0588 112.1987
" />
<path d="M12.0588 112.1987
L12.1193 112.3197
" />
<path d="M12.1193 112.3197
L12.1193 112.9849
" />
<path d="M12.7240 112.1383
L12.7240 112.9849
" />
<path d="M12.7240 112.2592
L12.7845 112.1987
" />
<path d="M12.7845 112.1987
L12.9055 112.1383
" />
<path d="M12.9055 112.1383
L13.0869 112.1383
" />
<path d="M13.0869 112.1383
L13.2078 112.1987
" />
<path d="M13.2078 112.1987
L13.2683 112.3197
" />
<path d="M13.2683 112.3197
L13.2683 112.9849
" />
<path d="M13.5707 113.1059
L14.5383 113.1059
" />
<path d="M15.0825 111.7149
L15.2035 111.7149
" />
<path d="M15.2035 111.7149
L15.3244 111.7754
" />
<path d="M15.3244 111.7754
L15.3849 111.8359
" />
<path d="M15.3849 111.8359
L15.4454 111.9568
" />
<path d="M15.4454 111.9568
L15.5059 112.1987
" />
<path d="M15.5059 112.1987
L15.5059 112.5011
" />
<path d="M15.5059 112.5011
L15.4454 112.7430
" />
<path d="M15.4454 112.7430
L15.3849 112.8640
" />
<path d="M15.3849 112.8640
L15.3244 112.9245
" />
<path d="M15.3244 112.9245
L15.2035 112.9849
" />
<path d="M15.2035 112.9849
L15.0825 112.9849
" />
<path d="M15.0825 112.9849
L14.9616 112.9245
" />
<path d="M14.9616 112.9245
L14.9011 112.8640
" />
<path d="M14.9011 112.8640
L14.8406 112.7430
" />
<path d="M14.8406 112.7430
L14.7802 112.5011
" />
<path d="M14.7802 112.5011
L14.7802 112.1987
" />
<path d="M14.7802 112.1987
L14.8406 111.9568
" />
<path d="M14.8406 111.9568
L14.9011 111.8359
" />
<path d="M14.9011 111.8359
L14.9616 111.7754
" />
<path d="M14.9616 111.7754
L15.0825 111.7149
" />
<path d="M16.7154 112.9849
L15.9897 112.9849
" />
<path d="M16.3525 112.9849
L16.3525 111.7149
" />
<path d="M16.3525 111.7149
L16.2316 111.8964
" />
<path d="M16.2316 111.8964
L16.1106 112.0173
" />
<path d="M16.1106 112.0173
L15.9897 112.0778
" />
<path d="M17.1387 112.9849
L17.8039 112.1383
" />
<path d="M17.1387 112.1383
L17.8039 112.9849
" />
<path d="M18.1668 111.7149
L18.9530 111.7149
" />
<path d="M18.9530 111.7149
L18.5296 112.1987
" />
<path d="M18.5296 112.1987
L18.7111 112.1987
" />
<path d="M18.7111 112.1987
L18.8320 112.2592
" />
<path d="M18.8320 112.2592
L18.8925 112.3197
" />
<path d="M18.8925 112.3197
L18.9530 112.4406
" />
<path d="M18.9530 112.4406
L18.9530 112.7430
" />
<path d="M18.9530 112.7430
L18.8925 112.8640
" />
<path d="M18.8925 112.8640
L18.8320 112.9245
" />
<path d="M18.8320 112.9245
L18.7111 112.9849
" />
<path d="M18.7111 112.9849
L18.3482 112.9849
" />
<path d="M18.3482 112.9849
L18.2273 112.9245
" />
<path d="M18.2273 112.9245
L18.1668 112.8640
" />
<path d="M19.5577 112.9849
L19.7996 112.9849
" />
<path d="M19.7996 112.9849
L19.9206 112.9245
" />
<path d="M19.9206 112.9245
L19.9810 112.8640
" />
<path d="M19.9810 112.8640
L20.1020 112.6825
" />
<path d="M20.1020 112.6825
L20.1625 112.4406
" />
<path d="M20.1625 112.4406
L20.1625 111.9568
" />
<path d="M20.1625 111.9568
L20.1020 111.8359
" />
<path d="M20.1020 111.8359
L20.0415 111.7754
" />
<path d="M20.0415 111.7754
L19.9206 111.7149
" />
<path d="M19.9206 111.7149
L19.6787 111.7149
" />
<path d="M19.6787 111.7149
L19.5577 111.7754
" />
<path d="M19.5577 111.7754
L19.4972 111.8359
" />
<path d="M19.4972 111.8359
L19.4368 111.9568
" />
<path d="M19.4368 111.9568
L19.4368 112.2592
" />
<path d="M19.4368 112.2592
L19.4972 112.3802
" />
<path d="M19.4972 112.3802
L19.5577 112.4406
" />
<path d="M19.5577 112.4406
L19.6787 112.5011
" />
<path d="M19.6787 112.5011
L19.9206 112.5011
" />
<path d="M19.9206 112.5011
L20.0415 112.4406
" />
<path d="M20.0415 112.4406
L20.1020 112.3802
" />
<path d="M20.1020 112.3802
L20.1625 112.2592
" />
<path d="M20.4044 113.1059
L21.3720 113.1059
" />
<path d="M21.6139 112.9245
L21.7953 112.9849
" />
<path d="M21.7953 112.9849
L22.0977 112.9849
" />
<path d="M22.0977 112.9849
L22.2186 112.9245
" />
<path d="M22.2186 112.9245
L22.2791 112.8640
" />
<path d="M22.2791 112.8640
L22.3396 112.7430
" />
<path d="M22.3396 112.7430
L22.3396 112.6221
" />
<path d="M22.3396 112.6221
L22.2791 112.5011
" />
<path d="M22.2791 112.5011
L22.2186 112.4406
" />
<path d="M22.2186 112.4406
L22.0977 112.3802
" />
<path d="M22.0977 112.3802
L21.8558 112.3197
" />
<path d="M21.8558 112.3197
L21.7348 112.2592
" />
<path d="M21.7348 112.2592
L21.6743 112.1987
" />
<path d="M21.6743 112.1987
L21.6139 112.0778
" />
<path d="M21.6139 112.0778
L21.6139 111.9568
" />
<path d="M21.6139 111.9568
L21.6743 111.8359
" />
<path d="M21.6743 111.8359
L21.7348 111.7754
" />
<path d="M21.7348 111.7754
L21.8558 111.7149
" />
<path d="M21.8558 111.7149
L22.1581 111.7149
" />
<path d="M22.1581 111.7149
L22.3396 111.7754
" />
<path d="M22.8838 112.9849
L22.8838 111.7149
" />
<path d="M23.4281 112.9849
L23.4281 112.3197
" />
<path d="M23.4281 112.3197
L23.3676 112.1987
" />
<path d="M23.3676 112.1987
L23.2467 112.1383
" />
<path d="M23.2467 112.1383
L23.0653 112.1383
" />
<path d="M23.0653 112.1383
L22.9443 112.1987
" />
<path d="M22.9443 112.1987
L22.8838 112.2592
" />
<path d="M24.0328 112.9849
L24.0328 112.1383
" />
<path d="M24.0328 111.7149
L23.9724 111.7754
" />
<path d="M23.9724 111.7754
L24.0328 111.8359
" />
<path d="M24.0328 111.8359
L24.0933 111.7754
" />
<path d="M24.0933 111.7754
L24.0328 111.7149
" />
<path d="M24.0328 111.7149
L24.0328 111.8359
" />
<path d="M25.1214 112.9245
L25.0005 112.9849
" />
<path d="M25.0005 112.9849
L24.7586 112.9849
" />
<path d="M24.7586 112.9849
L24.6376 112.9245
" />
<path d="M24.6376 112.9245
L24.5772 112.8035
" />
<path d="M24.5772 112.8035
L24.5772 112.3197
" />
<path d="M24.5772 112.3197
L24.6376 112.1987
" />
<path d="M24.6376 112.1987
L24.7586 112.1383
" />
<path d="M24.7586 112.1383
L25.0005 112.1383
" />
<path d="M25.0005 112.1383
L25.1214 112.1987
" />
<path d="M25.1214 112.1987
L25.1819 112.3197
" />
<path d="M25.1819 112.3197
L25.1819 112.4406
" />
<path d="M25.1819 112.4406
L24.5772 112.5616
" />
<path d="M25.9077 112.9849
L25.7867 112.9245
" />
<path d="M25.7867 112.9245
L25.7262 112.8035
" />
<path d="M25.7262 112.8035
L25.7262 111.7149
" />
<path d="M26.9357 112.9849
L26.9357 111.7149
" />
<path d="M26.9357 112.9245
L26.8148 112.9849
" />
<path d="M26.8148 112.9849
L26.5729 112.9849
" />
<path d="M26.5729 112.9849
L26.4519 112.9245
" />
<path d="M26.4519 112.9245
L26.3914 112.8640
" />
<path d="M26.3914 112.8640
L26.3310 112.7430
" />
<path d="M26.3310 112.7430
L26.3310 112.3802
" />
<path d="M26.3310 112.3802
L26.3914 112.2592
" />
<path d="M26.3914 112.2592
L26.4519 112.1987
" />
<path d="M26.4519 112.1987
L26.5729 112.1383
" />
<path d="M26.5729 112.1383
L26.8148 112.1383
" />
<path d="M26.8148 112.1383
L26.9357 112.1987
" />
<path d="M28.0242 112.9245
L27.9033 112.9849
" />
<path d="M27.9033 112.9849
L27.6614 112.9849
" />
<path d="M27.6614 112.9849
L27.5404 112.9245
" />
<path d="M27.5404 112.9245
L27.4800 112.8035
" />
<path d="M27.4800 112.8035
L27.4800 112.3197
" />
<path d="M27.4800 112.3197
L27.5404 112.1987
" />
<path d="M27.5404 112.1987
L27.6614 112.1383
" />
<path d="M27.6614 112.1383
L27.9033 112.1383
" />
<path d="M27.9033 112.1383
L28.0242 112.1987
" />
<path d="M28.0242 112.1987
L28.0847 112.3197
" />
<path d="M28.0847 112.3197
L28.0847 112.4406
" />
<path d="M28.0847 112.4406
L27.4800 112.5616
" />
<path d="M29.1733 112.9849
L29.1733 111.7149
" />
<path d="M29.1733 112.9245
L29.0524 112.9849
" />
<path d="M29.0524 112.9849
L28.8105 112.9849
" />
<path d="M28.8105 112.9849
L28.6895 112.9245
" />
<path d="M28.6895 112.9245
L28.6290 112.8640
" />
<path d="M28.6290 112.8640
L28.5686 112.7430
" />
<path d="M28.5686 112.7430
L28.5686 112.3802
" />
<path d="M28.5686 112.3802
L28.6290 112.2592
" />
<path d="M28.6290 112.2592
L28.6895 112.1987
" />
<path d="M28.6895 112.1987
L28.8105 112.1383
" />
<path d="M28.8105 112.1383
L29.0524 112.1383
" />
<path d="M29.0524 112.1383
L29.1733 112.1987
" />
</g></g>
<g style="fill:#840084; fill-opacity:0.0; 
stroke:#840084; stroke-width:0.1588; stroke-opacity:1; 
stroke-linecap:round; stroke-linejoin:round;">
<text x="7.7662" y="62.4864"
textLength="1.0501" font-size="1.6933" lengthAdjust="spacingAndGlyphs"
text-anchor="middle" opacity="0">~</text>
<g class="stroked-text"><desc>~</desc>
<path d="M7.4336 61.9551
L7.4941 61.8946
" />
<path d="M7.4941 61.8946
L7.6150 61.8342
" />
<path d="M7.6150 61.8342
L7.8569 61.9551
" />
<path d="M7.8569 61.9551
L7.9779 61.8946
" />
<path d="M7.9779 61.8946
L8.0384 61.8342
" />
</g></g> 
</svg>
