<?xml version="1.0" standalone="no"?>
 <!DOCTYPE svg PUBLIC "-//W3C//DTD SVG 1.1//EN" 
 "http://www.w3.org/Graphics/SVG/1.1/DTD/svg11.dtd"> 
<svg
  xmlns:svg="http://www.w3.org/2000/svg"
  xmlns="http://www.w3.org/2000/svg"
  xmlns:xlink="http://www.w3.org/1999/xlink"
  version="1.1"
  width="22.7330mm" height="14.1986mm" viewBox="0.0000 0.0000 22.7330 14.1986">
<title>SVG Image created as working.svg date 2023/08/01 14:04:21 </title>
  <desc>Image generated by Eeschema-SVG </desc>
<g style="fill:#000000; fill-opacity:1.0000;stroke:#000000; stroke-opacity:1.0000;
stroke-linecap:round; stroke-linejoin:round;"
 transform="translate(0 0) scale(1 1)">
</g>
<g style="fill:#840000; fill-opacity:0.0; 
stroke:#840000; stroke-width:0.0000; stroke-opacity:1; 
stroke-linecap:round; stroke-linejoin:round;">
</g>
<g style="fill:#840084; fill-opacity:0.0; 
stroke:#840084; stroke-width:0.0000; stroke-opacity:1; 
stroke-linecap:round; stroke-linejoin:round;">
</g>
<g style="fill:#840000; fill-opacity:0.0; 
stroke:#840000; stroke-width:0.0000; stroke-opacity:1; 
stroke-linecap:round; stroke-linejoin:round;">
</g>
<g style="fill:#840000; fill-opacity:0.0; 
stroke:#840000; stroke-width:0.1524; stroke-opacity:1; 
stroke-linecap:round; stroke-linejoin:round;">
<path d="M11.3704 9.1282 A0.5080 0.5080 0.0 0 0 11.3704 10.1442" />
<path style="fill:#840000; fill-opacity:0.0; 
stroke:#840000; stroke-width:0.1524; stroke-opacity:1; 
stroke-linecap:round; stroke-linejoin:round;fill:none"
d="M 10.1004,9.6362
10.8624,9.6362
" /> 
<path style="fill:#840000; fill-opacity:0.0; 
stroke:#840000; stroke-width:0.1524; stroke-opacity:1; 
stroke-linecap:round; stroke-linejoin:round;fill:none"
d="M 10.1004,7.0962
10.8624,7.0962
" /> 
<path style="fill:#840000; fill-opacity:0.0; 
stroke:#840000; stroke-width:0.1524; stroke-opacity:1; 
stroke-linecap:round; stroke-linejoin:round;fill:none"
d="M 10.1004,4.5562
10.8624,4.5562
" /> 
<path d="M11.3704 6.5882 A0.5080 0.5080 0.0 0 0 11.3704 7.6042" />
<path d="M11.3704 4.0482 A0.5080 0.5080 0.0 0 0 11.3704 5.0642" />
<path d="M10.1004 4.5562
L6.2904 4.5562
" />
</g>
<g style="fill:#A90000; fill-opacity:0.0; 
stroke:#A90000; stroke-width:0.1524; stroke-opacity:1; 
stroke-linecap:round; stroke-linejoin:round;">
<text x="8.1954" y="4.3022"
textLength="1.3365" font-size="1.6933" lengthAdjust="spacingAndGlyphs"
text-anchor="middle" opacity="0">1</text>
<g class="stroked-text"><desc>1</desc>
<path d="M8.5583 4.1467
L7.8326 4.1467
" />
<path d="M8.1954 4.1467
L8.1954 2.8767
" />
<path d="M8.1954 2.8767
L8.0745 3.0582
" />
<path d="M8.0745 3.0582
L7.9535 3.1791
" />
<path d="M7.9535 3.1791
L7.8326 3.2396
" />
</g></g>
<g style="fill:#840000; fill-opacity:0.0; 
stroke:#840000; stroke-width:0.1524; stroke-opacity:1; 
stroke-linecap:round; stroke-linejoin:round;">
<path d="M10.1004 7.0962
L6.2904 7.0962
" />
</g>
<g style="fill:#A90000; fill-opacity:0.0; 
stroke:#A90000; stroke-width:0.1524; stroke-opacity:1; 
stroke-linecap:round; stroke-linejoin:round;">
<text x="8.1954" y="6.8422"
textLength="1.3365" font-size="1.6933" lengthAdjust="spacingAndGlyphs"
text-anchor="middle" opacity="0">2</text>
<g class="stroked-text"><desc>2</desc>
<path d="M7.8326 5.5377
L7.8930 5.4772
" />
<path d="M7.8930 5.4772
L8.0140 5.4167
" />
<path d="M8.0140 5.4167
L8.3164 5.4167
" />
<path d="M8.3164 5.4167
L8.4373 5.4772
" />
<path d="M8.4373 5.4772
L8.4978 5.5377
" />
<path d="M8.4978 5.5377
L8.5583 5.6586
" />
<path d="M8.5583 5.6586
L8.5583 5.7796
" />
<path d="M8.5583 5.7796
L8.4978 5.9610
" />
<path d="M8.4978 5.9610
L7.7721 6.6867
" />
<path d="M7.7721 6.6867
L8.5583 6.6867
" />
</g></g>
<g style="fill:#840000; fill-opacity:0.0; 
stroke:#840000; stroke-width:0.1524; stroke-opacity:1; 
stroke-linecap:round; stroke-linejoin:round;">
<path d="M10.1004 9.6362
L6.2904 9.6362
" />
</g>
<g style="fill:#A90000; fill-opacity:0.0; 
stroke:#A90000; stroke-width:0.1524; stroke-opacity:1; 
stroke-linecap:round; stroke-linejoin:round;">
<text x="8.1954" y="9.3822"
textLength="1.3365" font-size="1.6933" lengthAdjust="spacingAndGlyphs"
text-anchor="middle" opacity="0">3</text>
<g class="stroked-text"><desc>3</desc>
<path d="M7.7721 7.9567
L8.5583 7.9567
" />
<path d="M8.5583 7.9567
L8.1349 8.4405
" />
<path d="M8.1349 8.4405
L8.3164 8.4405
" />
<path d="M8.3164 8.4405
L8.4373 8.5010
" />
<path d="M8.4373 8.5010
L8.4978 8.5615
" />
<path d="M8.4978 8.5615
L8.5583 8.6824
" />
<path d="M8.5583 8.6824
L8.5583 8.9848
" />
<path d="M8.5583 8.9848
L8.4978 9.1058
" />
<path d="M8.4978 9.1058
L8.4373 9.1663
" />
<path d="M8.4373 9.1663
L8.3164 9.2267
" />
<path d="M8.3164 9.2267
L7.9535 9.2267
" />
<path d="M7.9535 9.2267
L7.8326 9.1663
" />
<path d="M7.8326 9.1663
L7.7721 9.1058
" />
</g></g>
<g style="fill:#840084; fill-opacity:0.0; 
stroke:#840084; stroke-width:0.1524; stroke-opacity:1; 
stroke-linecap:round; stroke-linejoin:round;">
</g>
<g style="fill:#006464; fill-opacity:0.0; 
stroke:#006464; stroke-width:0.1524; stroke-opacity:1; 
stroke-linecap:round; stroke-linejoin:round;">
</g>
<g style="fill:#006464; fill-opacity:0.0; 
stroke:#006464; stroke-width:0.1588; stroke-opacity:1; 
stroke-linecap:round; stroke-linejoin:round;">
<text x="11.3704" y="2.6512"
textLength="2.1992" font-size="1.6933" lengthAdjust="spacingAndGlyphs"
text-anchor="middle" opacity="0">J?</text>
<g class="stroked-text"><desc>J?</desc>
<path d="M11.0075 1.3337
L11.0075 2.2409
" />
<path d="M11.0075 2.2409
L10.9470 2.4223
" />
<path d="M10.9470 2.4223
L10.8261 2.5433
" />
<path d="M10.8261 2.5433
L10.6446 2.6037
" />
<path d="M10.6446 2.6037
L10.5237 2.6037
" />
<path d="M11.7937 2.4828
L11.8541 2.5433
" />
<path d="M11.8541 2.5433
L11.7937 2.6037
" />
<path d="M11.7937 2.6037
L11.7332 2.5433
" />
<path d="M11.7332 2.5433
L11.7937 2.4828
" />
<path d="M11.7937 2.4828
L11.7937 2.6037
" />
<path d="M11.5518 1.3942
L11.6727 1.3337
" />
<path d="M11.6727 1.3337
L11.9751 1.3337
" />
<path d="M11.9751 1.3337
L12.0960 1.3942
" />
<path d="M12.0960 1.3942
L12.1565 1.5152
" />
<path d="M12.1565 1.5152
L12.1565 1.6361
" />
<path d="M12.1565 1.6361
L12.0960 1.7571
" />
<path d="M12.0960 1.7571
L12.0356 1.8175
" />
<path d="M12.0356 1.8175
L11.9146 1.8780
" />
<path d="M11.9146 1.8780
L11.8541 1.9385
" />
<path d="M11.8541 1.9385
L11.7937 2.0594
" />
<path d="M11.7937 2.0594
L11.7937 2.1199
" />
</g><text x="11.3704" y="12.8112"
textLength="18.9508" font-size="1.6933" lengthAdjust="spacingAndGlyphs"
text-anchor="middle" opacity="0">Conn_01x03_Socket</text>
<g class="stroked-text"><desc>Conn_01x03_Socket</desc>
<path d="M2.9945 12.6428
L2.9341 12.7033
" />
<path d="M2.9341 12.7033
L2.7526 12.7637
" />
<path d="M2.7526 12.7637
L2.6317 12.7637
" />
<path d="M2.6317 12.7637
L2.4503 12.7033
" />
<path d="M2.4503 12.7033
L2.3293 12.5823
" />
<path d="M2.3293 12.5823
L2.2688 12.4613
" />
<path d="M2.2688 12.4613
L2.2084 12.2194
" />
<path d="M2.2084 12.2194
L2.2084 12.0380
" />
<path d="M2.2084 12.0380
L2.2688 11.7961
" />
<path d="M2.2688 11.7961
L2.3293 11.6752
" />
<path d="M2.3293 11.6752
L2.4503 11.5542
" />
<path d="M2.4503 11.5542
L2.6317 11.4937
" />
<path d="M2.6317 11.4937
L2.7526 11.4937
" />
<path d="M2.7526 11.4937
L2.9341 11.5542
" />
<path d="M2.9341 11.5542
L2.9945 11.6147
" />
<path d="M3.7203 12.7637
L3.5993 12.7033
" />
<path d="M3.5993 12.7033
L3.5388 12.6428
" />
<path d="M3.5388 12.6428
L3.4784 12.5218
" />
<path d="M3.4784 12.5218
L3.4784 12.1590
" />
<path d="M3.4784 12.1590
L3.5388 12.0380
" />
<path d="M3.5388 12.0380
L3.5993 11.9775
" />
<path d="M3.5993 11.9775
L3.7203 11.9171
" />
<path d="M3.7203 11.9171
L3.9017 11.9171
" />
<path d="M3.9017 11.9171
L4.0226 11.9775
" />
<path d="M4.0226 11.9775
L4.0831 12.0380
" />
<path d="M4.0831 12.0380
L4.1436 12.1590
" />
<path d="M4.1436 12.1590
L4.1436 12.5218
" />
<path d="M4.1436 12.5218
L4.0831 12.6428
" />
<path d="M4.0831 12.6428
L4.0226 12.7033
" />
<path d="M4.0226 12.7033
L3.9017 12.7637
" />
<path d="M3.9017 12.7637
L3.7203 12.7637
" />
<path d="M4.6878 11.9171
L4.6878 12.7637
" />
<path d="M4.6878 12.0380
L4.7483 11.9775
" />
<path d="M4.7483 11.9775
L4.8693 11.9171
" />
<path d="M4.8693 11.9171
L5.0507 11.9171
" />
<path d="M5.0507 11.9171
L5.1716 11.9775
" />
<path d="M5.1716 11.9775
L5.2321 12.0985
" />
<path d="M5.2321 12.0985
L5.2321 12.7637
" />
<path d="M5.8368 11.9171
L5.8368 12.7637
" />
<path d="M5.8368 12.0380
L5.8973 11.9775
" />
<path d="M5.8973 11.9775
L6.0183 11.9171
" />
<path d="M6.0183 11.9171
L6.1997 11.9171
" />
<path d="M6.1997 11.9171
L6.3206 11.9775
" />
<path d="M6.3206 11.9775
L6.3811 12.0985
" />
<path d="M6.3811 12.0985
L6.3811 12.7637
" />
<path d="M6.6835 12.8847
L7.6511 12.8847
" />
<path d="M8.1953 11.4937
L8.3163 11.4937
" />
<path d="M8.3163 11.4937
L8.4372 11.5542
" />
<path d="M8.4372 11.5542
L8.4977 11.6147
" />
<path d="M8.4977 11.6147
L8.5582 11.7356
" />
<path d="M8.5582 11.7356
L8.6187 11.9775
" />
<path d="M8.6187 11.9775
L8.6187 12.2799
" />
<path d="M8.6187 12.2799
L8.5582 12.5218
" />
<path d="M8.5582 12.5218
L8.4977 12.6428
" />
<path d="M8.4977 12.6428
L8.4372 12.7033
" />
<path d="M8.4372 12.7033
L8.3163 12.7637
" />
<path d="M8.3163 12.7637
L8.1953 12.7637
" />
<path d="M8.1953 12.7637
L8.0744 12.7033
" />
<path d="M8.0744 12.7033
L8.0139 12.6428
" />
<path d="M8.0139 12.6428
L7.9534 12.5218
" />
<path d="M7.9534 12.5218
L7.8930 12.2799
" />
<path d="M7.8930 12.2799
L7.8930 11.9775
" />
<path d="M7.8930 11.9775
L7.9534 11.7356
" />
<path d="M7.9534 11.7356
L8.0139 11.6147
" />
<path d="M8.0139 11.6147
L8.0744 11.5542
" />
<path d="M8.0744 11.5542
L8.1953 11.4937
" />
<path d="M9.8282 12.7637
L9.1025 12.7637
" />
<path d="M9.4653 12.7637
L9.4653 11.4937
" />
<path d="M9.4653 11.4937
L9.3444 11.6752
" />
<path d="M9.3444 11.6752
L9.2234 11.7961
" />
<path d="M9.2234 11.7961
L9.1025 11.8566
" />
<path d="M10.2515 12.7637
L10.9167 11.9171
" />
<path d="M10.2515 11.9171
L10.9167 12.7637
" />
<path d="M11.6424 11.4937
L11.7634 11.4937
" />
<path d="M11.7634 11.4937
L11.8843 11.5542
" />
<path d="M11.8843 11.5542
L11.9448 11.6147
" />
<path d="M11.9448 11.6147
L12.0053 11.7356
" />
<path d="M12.0053 11.7356
L12.0658 11.9775
" />
<path d="M12.0658 11.9775
L12.0658 12.2799
" />
<path d="M12.0658 12.2799
L12.0053 12.5218
" />
<path d="M12.0053 12.5218
L11.9448 12.6428
" />
<path d="M11.9448 12.6428
L11.8843 12.7033
" />
<path d="M11.8843 12.7033
L11.7634 12.7637
" />
<path d="M11.7634 12.7637
L11.6424 12.7637
" />
<path d="M11.6424 12.7637
L11.5215 12.7033
" />
<path d="M11.5215 12.7033
L11.4610 12.6428
" />
<path d="M11.4610 12.6428
L11.4005 12.5218
" />
<path d="M11.4005 12.5218
L11.3401 12.2799
" />
<path d="M11.3401 12.2799
L11.3401 11.9775
" />
<path d="M11.3401 11.9775
L11.4005 11.7356
" />
<path d="M11.4005 11.7356
L11.4610 11.6147
" />
<path d="M11.4610 11.6147
L11.5215 11.5542
" />
<path d="M11.5215 11.5542
L11.6424 11.4937
" />
<path d="M12.4891 11.4937
L13.2753 11.4937
" />
<path d="M13.2753 11.4937
L12.8519 11.9775
" />
<path d="M12.8519 11.9775
L13.0334 11.9775
" />
<path d="M13.0334 11.9775
L13.1543 12.0380
" />
<path d="M13.1543 12.0380
L13.2148 12.0985
" />
<path d="M13.2148 12.0985
L13.2753 12.2194
" />
<path d="M13.2753 12.2194
L13.2753 12.5218
" />
<path d="M13.2753 12.5218
L13.2148 12.6428
" />
<path d="M13.2148 12.6428
L13.1543 12.7033
" />
<path d="M13.1543 12.7033
L13.0334 12.7637
" />
<path d="M13.0334 12.7637
L12.6705 12.7637
" />
<path d="M12.6705 12.7637
L12.5496 12.7033
" />
<path d="M12.5496 12.7033
L12.4891 12.6428
" />
<path d="M13.5172 12.8847
L14.4848 12.8847
" />
<path d="M14.7267 12.7033
L14.9081 12.7637
" />
<path d="M14.9081 12.7637
L15.2105 12.7637
" />
<path d="M15.2105 12.7637
L15.3314 12.7033
" />
<path d="M15.3314 12.7033
L15.3919 12.6428
" />
<path d="M15.3919 12.6428
L15.4524 12.5218
" />
<path d="M15.4524 12.5218
L15.4524 12.4009
" />
<path d="M15.4524 12.4009
L15.3919 12.2799
" />
<path d="M15.3919 12.2799
L15.3314 12.2194
" />
<path d="M15.3314 12.2194
L15.2105 12.1590
" />
<path d="M15.2105 12.1590
L14.9686 12.0985
" />
<path d="M14.9686 12.0985
L14.8476 12.0380
" />
<path d="M14.8476 12.0380
L14.7871 11.9775
" />
<path d="M14.7871 11.9775
L14.7267 11.8566
" />
<path d="M14.7267 11.8566
L14.7267 11.7356
" />
<path d="M14.7267 11.7356
L14.7871 11.6147
" />
<path d="M14.7871 11.6147
L14.8476 11.5542
" />
<path d="M14.8476 11.5542
L14.9686 11.4937
" />
<path d="M14.9686 11.4937
L15.2709 11.4937
" />
<path d="M15.2709 11.4937
L15.4524 11.5542
" />
<path d="M16.1781 12.7637
L16.0571 12.7033
" />
<path d="M16.0571 12.7033
L15.9966 12.6428
" />
<path d="M15.9966 12.6428
L15.9362 12.5218
" />
<path d="M15.9362 12.5218
L15.9362 12.1590
" />
<path d="M15.9362 12.1590
L15.9966 12.0380
" />
<path d="M15.9966 12.0380
L16.0571 11.9775
" />
<path d="M16.0571 11.9775
L16.1781 11.9171
" />
<path d="M16.1781 11.9171
L16.3595 11.9171
" />
<path d="M16.3595 11.9171
L16.4804 11.9775
" />
<path d="M16.4804 11.9775
L16.5409 12.0380
" />
<path d="M16.5409 12.0380
L16.6014 12.1590
" />
<path d="M16.6014 12.1590
L16.6014 12.5218
" />
<path d="M16.6014 12.5218
L16.5409 12.6428
" />
<path d="M16.5409 12.6428
L16.4804 12.7033
" />
<path d="M16.4804 12.7033
L16.3595 12.7637
" />
<path d="M16.3595 12.7637
L16.1781 12.7637
" />
<path d="M17.6899 12.7033
L17.5690 12.7637
" />
<path d="M17.5690 12.7637
L17.3271 12.7637
" />
<path d="M17.3271 12.7637
L17.2061 12.7033
" />
<path d="M17.2061 12.7033
L17.1456 12.6428
" />
<path d="M17.1456 12.6428
L17.0852 12.5218
" />
<path d="M17.0852 12.5218
L17.0852 12.1590
" />
<path d="M17.0852 12.1590
L17.1456 12.0380
" />
<path d="M17.1456 12.0380
L17.2061 11.9775
" />
<path d="M17.2061 11.9775
L17.3271 11.9171
" />
<path d="M17.3271 11.9171
L17.5690 11.9171
" />
<path d="M17.5690 11.9171
L17.6899 11.9775
" />
<path d="M18.2342 12.7637
L18.2342 11.4937
" />
<path d="M18.3552 12.2799
L18.7180 12.7637
" />
<path d="M18.7180 11.9171
L18.2342 12.4009
" />
<path d="M19.7461 12.7033
L19.6252 12.7637
" />
<path d="M19.6252 12.7637
L19.3833 12.7637
" />
<path d="M19.3833 12.7637
L19.2623 12.7033
" />
<path d="M19.2623 12.7033
L19.2019 12.5823
" />
<path d="M19.2019 12.5823
L19.2019 12.0985
" />
<path d="M19.2019 12.0985
L19.2623 11.9775
" />
<path d="M19.2623 11.9775
L19.3833 11.9171
" />
<path d="M19.3833 11.9171
L19.6252 11.9171
" />
<path d="M19.6252 11.9171
L19.7461 11.9775
" />
<path d="M19.7461 11.9775
L19.8066 12.0985
" />
<path d="M19.8066 12.0985
L19.8066 12.2194
" />
<path d="M19.8066 12.2194
L19.2019 12.3404
" />
<path d="M20.1695 11.9171
L20.6533 11.9171
" />
<path d="M20.3509 11.4937
L20.3509 12.5823
" />
<path d="M20.3509 12.5823
L20.4114 12.7033
" />
<path d="M20.4114 12.7033
L20.5324 12.7637
" />
<path d="M20.5324 12.7637
L20.6533 12.7637
" />
</g></g>
<g style="fill:#840084; fill-opacity:0.0; 
stroke:#840084; stroke-width:0.1588; stroke-opacity:1; 
stroke-linecap:round; stroke-linejoin:round;">
<text x="11.3704" y="7.7312"
textLength="1.0501" font-size="1.6933" lengthAdjust="spacingAndGlyphs"
text-anchor="middle" opacity="0">~</text>
<g class="stroked-text"><desc>~</desc>
<path d="M11.0378 7.1999
L11.0983 7.1394
" />
<path d="M11.0983 7.1394
L11.2192 7.0790
" />
<path d="M11.2192 7.0790
L11.4611 7.1999
" />
<path d="M11.4611 7.1999
L11.5821 7.1394
" />
<path d="M11.5821 7.1394
L11.6426 7.0790
" />
</g></g> 
</svg>
