<?xml version="1.0" standalone="no"?>
 <!DOCTYPE svg PUBLIC "-//W3C//DTD SVG 1.1//EN" 
 "http://www.w3.org/Graphics/SVG/1.1/DTD/svg11.dtd"> 
<svg
  xmlns:svg="http://www.w3.org/2000/svg"
  xmlns="http://www.w3.org/2000/svg"
  xmlns:xlink="http://www.w3.org/1999/xlink"
  version="1.1"
  width="80.0862mm" height="48.4632mm" viewBox="0.0000 0.0000 80.0862 48.4632">
<title>SVG Image created as working.svg date 2023/08/04 12:06:38 </title>
  <desc>Image generated by Eeschema-SVG </desc>
<g style="fill:#000000; fill-opacity:1.0000;stroke:#000000; stroke-opacity:1.0000;
stroke-linecap:round; stroke-linejoin:round;"
 transform="translate(0 0) scale(1 1)">
</g>
<g style="fill:#840000; fill-opacity:0.0; 
stroke:#840000; stroke-width:0.0000; stroke-opacity:1; 
stroke-linecap:round; stroke-linejoin:round;">
</g>
<g style="fill:#FFFFC2; fill-opacity:0.0; 
stroke:#FFFFC2; stroke-width:0.0000; stroke-opacity:1; 
stroke-linecap:round; stroke-linejoin:round;">
</g>
<g style="fill:#FFFFC2; fill-opacity:1.0000; 
stroke:#FFFFC2; stroke-width:0.0000; stroke-opacity:1; 
stroke-linecap:round; stroke-linejoin:round;">
<rect x="29.887400" y="6.579200" width="20.320000" height="25.400000" rx="0.000000" />
</g>
<g style="fill:#840084; fill-opacity:1.0000; 
stroke:#840084; stroke-width:0.0000; stroke-opacity:1; 
stroke-linecap:round; stroke-linejoin:round;">
</g>
<g style="fill:#840000; fill-opacity:1.0000; 
stroke:#840000; stroke-width:0.0000; stroke-opacity:1; 
stroke-linecap:round; stroke-linejoin:round;">
</g>
<g style="fill:#840000; fill-opacity:0.0; 
stroke:#840000; stroke-width:0.2540; stroke-opacity:1; 
stroke-linecap:round; stroke-linejoin:round;">
<rect x="29.887400" y="6.579200" width="20.320000" height="25.400000" rx="0.000000" />
</g>
<g style="fill:#840000; fill-opacity:0.0; 
stroke:#840000; stroke-width:0.1524; stroke-opacity:1; 
stroke-linecap:round; stroke-linejoin:round;">
<path d="M29.8874 14.1992
L27.3474 14.1992
" />
</g>
<g style="fill:#006464; fill-opacity:0.0; 
stroke:#006464; stroke-width:0.1524; stroke-opacity:1; 
stroke-linecap:round; stroke-linejoin:round;">
<text x="30.3954" y="14.8342"
textLength="3.6503" font-size="1.6933" lengthAdjust="spacingAndGlyphs"
text-anchor="start" opacity="0">TXD</text>
<g class="stroked-text"><desc>TXD</desc>
<path d="M30.6165 13.5087
L31.3422 13.5087
" />
<path d="M30.9794 14.7787
L30.9794 13.5087
" />
<path d="M31.6446 13.5087
L32.4912 14.7787
" />
<path d="M32.4912 13.5087
L31.6446 14.7787
" />
<path d="M32.9750 14.7787
L32.9750 13.5087
" />
<path d="M32.9750 13.5087
L33.2774 13.5087
" />
<path d="M33.2774 13.5087
L33.4588 13.5692
" />
<path d="M33.4588 13.5692
L33.5798 13.6902
" />
<path d="M33.5798 13.6902
L33.6403 13.8111
" />
<path d="M33.6403 13.8111
L33.7007 14.0530
" />
<path d="M33.7007 14.0530
L33.7007 14.2344
" />
<path d="M33.7007 14.2344
L33.6403 14.4763
" />
<path d="M33.6403 14.4763
L33.5798 14.5973
" />
<path d="M33.5798 14.5973
L33.4588 14.7183
" />
<path d="M33.4588 14.7183
L33.2774 14.7787
" />
<path d="M33.2774 14.7787
L32.9750 14.7787
" />
</g></g>
<g style="fill:#A90000; fill-opacity:0.0; 
stroke:#A90000; stroke-width:0.1524; stroke-opacity:1; 
stroke-linecap:round; stroke-linejoin:round;">
<text x="28.6174" y="13.9452"
textLength="1.4127" font-size="1.6933" lengthAdjust="spacingAndGlyphs"
text-anchor="middle" opacity="0">1</text>
<g class="stroked-text"><desc>1</desc>
<path d="M28.9803 13.7817
L28.2546 13.7817
" />
<path d="M28.6174 13.7817
L28.6174 12.5117
" />
<path d="M28.6174 12.5117
L28.4965 12.6932
" />
<path d="M28.4965 12.6932
L28.3755 12.8141
" />
<path d="M28.3755 12.8141
L28.2546 12.8746
" />
</g></g>
<g style="fill:#840000; fill-opacity:0.0; 
stroke:#840000; stroke-width:0.1524; stroke-opacity:1; 
stroke-linecap:round; stroke-linejoin:round;">
<path d="M42.5874 6.5792
L42.5874 4.0392
" />
</g>
<g style="fill:#006464; fill-opacity:0.0; 
stroke:#006464; stroke-width:0.1524; stroke-opacity:1; 
stroke-linecap:round; stroke-linejoin:round;">
<g transform="rotate(-90.000000 42.5874 7.0872)">
<text x="42.5874" y="7.7222"
textLength="4.6180" font-size="1.6933" lengthAdjust="spacingAndGlyphs"
text-anchor="end" opacity="0">VBAT</text>
</g>
<g class="stroked-text"><desc>VBAT</desc>
<path d="M41.8969 11.4812
L43.1669 11.0579
" />
<path d="M43.1669 11.0579
L41.8969 10.6345
" />
<path d="M42.5017 9.7878
L42.5622 9.6064
" />
<path d="M42.5622 9.6064
L42.6226 9.5459
" />
<path d="M42.6226 9.5459
L42.7436 9.4855
" />
<path d="M42.7436 9.4855
L42.9250 9.4855
" />
<path d="M42.9250 9.4855
L43.0460 9.5459
" />
<path d="M43.0460 9.5459
L43.1065 9.6064
" />
<path d="M43.1065 9.6064
L43.1669 9.7274
" />
<path d="M43.1669 9.7274
L43.1669 10.2112
" />
<path d="M43.1669 10.2112
L41.8969 10.2112
" />
<path d="M41.8969 10.2112
L41.8969 9.7878
" />
<path d="M41.8969 9.7878
L41.9574 9.6669
" />
<path d="M41.9574 9.6669
L42.0179 9.6064
" />
<path d="M42.0179 9.6064
L42.1388 9.5459
" />
<path d="M42.1388 9.5459
L42.2598 9.5459
" />
<path d="M42.2598 9.5459
L42.3807 9.6064
" />
<path d="M42.3807 9.6064
L42.4412 9.6669
" />
<path d="M42.4412 9.6669
L42.5017 9.7878
" />
<path d="M42.5017 9.7878
L42.5017 10.2112
" />
<path d="M42.8041 9.0016
L42.8041 8.3969
" />
<path d="M43.1669 9.1226
L41.8969 8.6993
" />
<path d="M41.8969 8.6993
L43.1669 8.2759
" />
<path d="M41.8969 8.0340
L41.8969 7.3083
" />
<path d="M43.1669 7.6711
L41.8969 7.6711
" />
</g></g>
<g style="fill:#A90000; fill-opacity:0.0; 
stroke:#A90000; stroke-width:0.1524; stroke-opacity:1; 
stroke-linecap:round; stroke-linejoin:round;">
<g transform="rotate(-90.000000 42.3334 5.3092)">
<text x="42.3334" y="5.3092"
textLength="2.6222" font-size="1.6933" lengthAdjust="spacingAndGlyphs"
text-anchor="middle" opacity="0">10</text>
</g>
<g class="stroked-text"><desc>10</desc>
<path d="M42.1699 5.5510
L42.1699 6.2767
" />
<path d="M42.1699 5.9139
L40.8999 5.9139
" />
<path d="M40.8999 5.9139
L41.0814 6.0348
" />
<path d="M41.0814 6.0348
L41.2023 6.1558
" />
<path d="M41.2023 6.1558
L41.2628 6.2767
" />
<path d="M40.8999 4.7649
L40.8999 4.6439
" />
<path d="M40.8999 4.6439
L40.9604 4.5230
" />
<path d="M40.9604 4.5230
L41.0209 4.4625
" />
<path d="M41.0209 4.4625
L41.1418 4.4020
" />
<path d="M41.1418 4.4020
L41.3837 4.3415
" />
<path d="M41.3837 4.3415
L41.6861 4.3415
" />
<path d="M41.6861 4.3415
L41.9280 4.4020
" />
<path d="M41.9280 4.4020
L42.0490 4.4625
" />
<path d="M42.0490 4.4625
L42.1095 4.5230
" />
<path d="M42.1095 4.5230
L42.1699 4.6439
" />
<path d="M42.1699 4.6439
L42.1699 4.7649
" />
<path d="M42.1699 4.7649
L42.1095 4.8858
" />
<path d="M42.1095 4.8858
L42.0490 4.9463
" />
<path d="M42.0490 4.9463
L41.9280 5.0068
" />
<path d="M41.9280 5.0068
L41.6861 5.0672
" />
<path d="M41.6861 5.0672
L41.3837 5.0672
" />
<path d="M41.3837 5.0672
L41.1418 5.0068
" />
<path d="M41.1418 5.0068
L41.0209 4.9463
" />
<path d="M41.0209 4.9463
L40.9604 4.8858
" />
<path d="M40.9604 4.8858
L40.8999 4.7649
" />
</g></g>
<g style="fill:#840000; fill-opacity:0.0; 
stroke:#840000; stroke-width:0.1524; stroke-opacity:1; 
stroke-linecap:round; stroke-linejoin:round;">
<path d="M50.2074 16.7392
L52.7474 16.7392
" />
</g>
<g style="fill:#006464; fill-opacity:0.0; 
stroke:#006464; stroke-width:0.1524; stroke-opacity:1; 
stroke-linecap:round; stroke-linejoin:round;">
<text x="49.6994" y="17.3742"
textLength="5.2832" font-size="1.6933" lengthAdjust="spacingAndGlyphs"
text-anchor="end" opacity="0">SPLIT</text>
<g class="stroked-text"><desc>SPLIT</desc>
<path d="M44.7611 17.2583
L44.9425 17.3187
" />
<path d="M44.9425 17.3187
L45.2449 17.3187
" />
<path d="M45.2449 17.3187
L45.3658 17.2583
" />
<path d="M45.3658 17.2583
L45.4263 17.1978
" />
<path d="M45.4263 17.1978
L45.4868 17.0768
" />
<path d="M45.4868 17.0768
L45.4868 16.9559
" />
<path d="M45.4868 16.9559
L45.4263 16.8349
" />
<path d="M45.4263 16.8349
L45.3658 16.7744
" />
<path d="M45.3658 16.7744
L45.2449 16.7140
" />
<path d="M45.2449 16.7140
L45.0030 16.6535
" />
<path d="M45.0030 16.6535
L44.8820 16.5930
" />
<path d="M44.8820 16.5930
L44.8215 16.5325
" />
<path d="M44.8215 16.5325
L44.7611 16.4116
" />
<path d="M44.7611 16.4116
L44.7611 16.2906
" />
<path d="M44.7611 16.2906
L44.8215 16.1697
" />
<path d="M44.8215 16.1697
L44.8820 16.1092
" />
<path d="M44.8820 16.1092
L45.0030 16.0487
" />
<path d="M45.0030 16.0487
L45.3053 16.0487
" />
<path d="M45.3053 16.0487
L45.4868 16.1092
" />
<path d="M46.0310 17.3187
L46.0310 16.0487
" />
<path d="M46.0310 16.0487
L46.5148 16.0487
" />
<path d="M46.5148 16.0487
L46.6358 16.1092
" />
<path d="M46.6358 16.1092
L46.6963 16.1697
" />
<path d="M46.6963 16.1697
L46.7567 16.2906
" />
<path d="M46.7567 16.2906
L46.7567 16.4721
" />
<path d="M46.7567 16.4721
L46.6963 16.5930
" />
<path d="M46.6963 16.5930
L46.6358 16.6535
" />
<path d="M46.6358 16.6535
L46.5148 16.7140
" />
<path d="M46.5148 16.7140
L46.0310 16.7140
" />
<path d="M47.9058 17.3187
L47.3010 17.3187
" />
<path d="M47.3010 17.3187
L47.3010 16.0487
" />
<path d="M48.3291 17.3187
L48.3291 16.0487
" />
<path d="M48.7525 16.0487
L49.4782 16.0487
" />
<path d="M49.1154 17.3187
L49.1154 16.0487
" />
</g></g>
<g style="fill:#A90000; fill-opacity:0.0; 
stroke:#A90000; stroke-width:0.1524; stroke-opacity:1; 
stroke-linecap:round; stroke-linejoin:round;">
<text x="51.4774" y="16.4852"
textLength="2.6222" font-size="1.6933" lengthAdjust="spacingAndGlyphs"
text-anchor="middle" opacity="0">11</text>
<g class="stroked-text"><desc>11</desc>
<path d="M51.2355 16.3217
L50.5098 16.3217
" />
<path d="M50.8726 16.3217
L50.8726 15.0517
" />
<path d="M50.8726 15.0517
L50.7517 15.2332
" />
<path d="M50.7517 15.2332
L50.6307 15.3541
" />
<path d="M50.6307 15.3541
L50.5098 15.4146
" />
<path d="M52.4450 16.3217
L51.7193 16.3217
" />
<path d="M52.0821 16.3217
L52.0821 15.0517
" />
<path d="M52.0821 15.0517
L51.9612 15.2332
" />
<path d="M51.9612 15.2332
L51.8402 15.3541
" />
<path d="M51.8402 15.3541
L51.7193 15.4146
" />
</g></g>
<g style="fill:#840000; fill-opacity:0.0; 
stroke:#840000; stroke-width:0.1524; stroke-opacity:1; 
stroke-linecap:round; stroke-linejoin:round;">
<path d="M50.2074 19.2792
L52.7474 19.2792
" />
</g>
<g style="fill:#006464; fill-opacity:0.0; 
stroke:#006464; stroke-width:0.1524; stroke-opacity:1; 
stroke-linecap:round; stroke-linejoin:round;">
<text x="49.6994" y="19.9142"
textLength="4.9204" font-size="1.6933" lengthAdjust="spacingAndGlyphs"
text-anchor="end" opacity="0">CANL</text>
<g class="stroked-text"><desc>CANL</desc>
<path d="M45.9100 19.7378
L45.8496 19.7983
" />
<path d="M45.8496 19.7983
L45.6681 19.8587
" />
<path d="M45.6681 19.8587
L45.5472 19.8587
" />
<path d="M45.5472 19.8587
L45.3658 19.7983
" />
<path d="M45.3658 19.7983
L45.2448 19.6773
" />
<path d="M45.2448 19.6773
L45.1843 19.5563
" />
<path d="M45.1843 19.5563
L45.1239 19.3144
" />
<path d="M45.1239 19.3144
L45.1239 19.1330
" />
<path d="M45.1239 19.1330
L45.1843 18.8911
" />
<path d="M45.1843 18.8911
L45.2448 18.7702
" />
<path d="M45.2448 18.7702
L45.3658 18.6492
" />
<path d="M45.3658 18.6492
L45.5472 18.5887
" />
<path d="M45.5472 18.5887
L45.6681 18.5887
" />
<path d="M45.6681 18.5887
L45.8496 18.6492
" />
<path d="M45.8496 18.6492
L45.9100 18.7097
" />
<path d="M46.3939 19.4959
L46.9986 19.4959
" />
<path d="M46.2729 19.8587
L46.6962 18.5887
" />
<path d="M46.6962 18.5887
L47.1196 19.8587
" />
<path d="M47.5429 19.8587
L47.5429 18.5887
" />
<path d="M47.5429 18.5887
L48.2686 19.8587
" />
<path d="M48.2686 19.8587
L48.2686 18.5887
" />
<path d="M49.4782 19.8587
L48.8734 19.8587
" />
<path d="M48.8734 19.8587
L48.8734 18.5887
" />
</g></g>
<g style="fill:#A90000; fill-opacity:0.0; 
stroke:#A90000; stroke-width:0.1524; stroke-opacity:1; 
stroke-linecap:round; stroke-linejoin:round;">
<text x="51.4774" y="19.0252"
textLength="2.6222" font-size="1.6933" lengthAdjust="spacingAndGlyphs"
text-anchor="middle" opacity="0">12</text>
<g class="stroked-text"><desc>12</desc>
<path d="M51.2355 18.8617
L50.5098 18.8617
" />
<path d="M50.8726 18.8617
L50.8726 17.5917
" />
<path d="M50.8726 17.5917
L50.7517 17.7732
" />
<path d="M50.7517 17.7732
L50.6307 17.8941
" />
<path d="M50.6307 17.8941
L50.5098 17.9546
" />
<path d="M51.7193 17.7127
L51.7797 17.6522
" />
<path d="M51.7797 17.6522
L51.9007 17.5917
" />
<path d="M51.9007 17.5917
L52.2031 17.5917
" />
<path d="M52.2031 17.5917
L52.3240 17.6522
" />
<path d="M52.3240 17.6522
L52.3845 17.7127
" />
<path d="M52.3845 17.7127
L52.4450 17.8336
" />
<path d="M52.4450 17.8336
L52.4450 17.9546
" />
<path d="M52.4450 17.9546
L52.3845 18.1360
" />
<path d="M52.3845 18.1360
L51.6588 18.8617
" />
<path d="M51.6588 18.8617
L52.4450 18.8617
" />
</g></g>
<g style="fill:#840000; fill-opacity:0.0; 
stroke:#840000; stroke-width:0.1524; stroke-opacity:1; 
stroke-linecap:round; stroke-linejoin:round;">
<path d="M50.2074 14.1992
L52.7474 14.1992
" />
</g>
<g style="fill:#006464; fill-opacity:0.0; 
stroke:#006464; stroke-width:0.1524; stroke-opacity:1; 
stroke-linecap:round; stroke-linejoin:round;">
<text x="49.6994" y="14.8342"
textLength="5.2228" font-size="1.6933" lengthAdjust="spacingAndGlyphs"
text-anchor="end" opacity="0">CANH</text>
<g class="stroked-text"><desc>CANH</desc>
<path d="M45.6076 14.6578
L45.5472 14.7183
" />
<path d="M45.5472 14.7183
L45.3657 14.7787
" />
<path d="M45.3657 14.7787
L45.2448 14.7787
" />
<path d="M45.2448 14.7787
L45.0634 14.7183
" />
<path d="M45.0634 14.7183
L44.9424 14.5973
" />
<path d="M44.9424 14.5973
L44.8819 14.4763
" />
<path d="M44.8819 14.4763
L44.8215 14.2344
" />
<path d="M44.8215 14.2344
L44.8215 14.0530
" />
<path d="M44.8215 14.0530
L44.8819 13.8111
" />
<path d="M44.8819 13.8111
L44.9424 13.6902
" />
<path d="M44.9424 13.6902
L45.0634 13.5692
" />
<path d="M45.0634 13.5692
L45.2448 13.5087
" />
<path d="M45.2448 13.5087
L45.3657 13.5087
" />
<path d="M45.3657 13.5087
L45.5472 13.5692
" />
<path d="M45.5472 13.5692
L45.6076 13.6297
" />
<path d="M46.0915 14.4159
L46.6962 14.4159
" />
<path d="M45.9705 14.7787
L46.3938 13.5087
" />
<path d="M46.3938 13.5087
L46.8172 14.7787
" />
<path d="M47.2405 14.7787
L47.2405 13.5087
" />
<path d="M47.2405 13.5087
L47.9662 14.7787
" />
<path d="M47.9662 14.7787
L47.9662 13.5087
" />
<path d="M48.5710 14.7787
L48.5710 13.5087
" />
<path d="M48.5710 14.1135
L49.2967 14.1135
" />
<path d="M49.2967 14.7787
L49.2967 13.5087
" />
</g></g>
<g style="fill:#A90000; fill-opacity:0.0; 
stroke:#A90000; stroke-width:0.1524; stroke-opacity:1; 
stroke-linecap:round; stroke-linejoin:round;">
<text x="51.4774" y="13.9452"
textLength="2.6222" font-size="1.6933" lengthAdjust="spacingAndGlyphs"
text-anchor="middle" opacity="0">13</text>
<g class="stroked-text"><desc>13</desc>
<path d="M51.2355 13.7817
L50.5098 13.7817
" />
<path d="M50.8726 13.7817
L50.8726 12.5117
" />
<path d="M50.8726 12.5117
L50.7517 12.6932
" />
<path d="M50.7517 12.6932
L50.6307 12.8141
" />
<path d="M50.6307 12.8141
L50.5098 12.8746
" />
<path d="M51.6588 12.5117
L52.4450 12.5117
" />
<path d="M52.4450 12.5117
L52.0216 12.9955
" />
<path d="M52.0216 12.9955
L52.2031 12.9955
" />
<path d="M52.2031 12.9955
L52.3240 13.0560
" />
<path d="M52.3240 13.0560
L52.3845 13.1165
" />
<path d="M52.3845 13.1165
L52.4450 13.2374
" />
<path d="M52.4450 13.2374
L52.4450 13.5398
" />
<path d="M52.4450 13.5398
L52.3845 13.6608
" />
<path d="M52.3845 13.6608
L52.3240 13.7213
" />
<path d="M52.3240 13.7213
L52.2031 13.7817
" />
<path d="M52.2031 13.7817
L51.8402 13.7817
" />
<path d="M51.8402 13.7817
L51.7193 13.7213
" />
<path d="M51.7193 13.7213
L51.6588 13.6608
" />
</g></g>
<g style="fill:#840000; fill-opacity:0.0; 
stroke:#840000; stroke-width:0.1524; stroke-opacity:1; 
stroke-linecap:round; stroke-linejoin:round;">
<path d="M29.8874 21.8192
L27.3474 21.8192
" />
</g>
<g style="fill:#006464; fill-opacity:0.0; 
stroke:#006464; stroke-width:0.1524; stroke-opacity:1; 
stroke-linecap:round; stroke-linejoin:round;">
<text x="30.3954" y="22.4542"
textLength="3.6503" font-size="1.6933" lengthAdjust="spacingAndGlyphs"
text-anchor="start" opacity="0">~{STB}</text>
<g class="stroked-text"><desc>~{STB}</desc>
<path d="M30.7375 22.3383
L30.9189 22.3987
" />
<path d="M30.9189 22.3987
L31.2213 22.3987
" />
<path d="M31.2213 22.3987
L31.3422 22.3383
" />
<path d="M31.3422 22.3383
L31.4027 22.2778
" />
<path d="M31.4027 22.2778
L31.4632 22.1568
" />
<path d="M31.4632 22.1568
L31.4632 22.0359
" />
<path d="M31.4632 22.0359
L31.4027 21.9149
" />
<path d="M31.4027 21.9149
L31.3422 21.8544
" />
<path d="M31.3422 21.8544
L31.2213 21.7940
" />
<path d="M31.2213 21.7940
L30.9794 21.7335
" />
<path d="M30.9794 21.7335
L30.8584 21.6730
" />
<path d="M30.8584 21.6730
L30.7979 21.6125
" />
<path d="M30.7979 21.6125
L30.7375 21.4916
" />
<path d="M30.7375 21.4916
L30.7375 21.3706
" />
<path d="M30.7375 21.3706
L30.7979 21.2497
" />
<path d="M30.7979 21.2497
L30.8584 21.1892
" />
<path d="M30.8584 21.1892
L30.9794 21.1287
" />
<path d="M30.9794 21.1287
L31.2817 21.1287
" />
<path d="M31.2817 21.1287
L31.4632 21.1892
" />
<path d="M31.8260 21.1287
L32.5517 21.1287
" />
<path d="M32.1889 22.3987
L32.1889 21.1287
" />
<path d="M33.3984 21.7335
L33.5798 21.7940
" />
<path d="M33.5798 21.7940
L33.6403 21.8544
" />
<path d="M33.6403 21.8544
L33.7007 21.9754
" />
<path d="M33.7007 21.9754
L33.7007 22.1568
" />
<path d="M33.7007 22.1568
L33.6403 22.2778
" />
<path d="M33.6403 22.2778
L33.5798 22.3383
" />
<path d="M33.5798 22.3383
L33.4588 22.3987
" />
<path d="M33.4588 22.3987
L32.9750 22.3987
" />
<path d="M32.9750 22.3987
L32.9750 21.1287
" />
<path d="M32.9750 21.1287
L33.3984 21.1287
" />
<path d="M33.3984 21.1287
L33.5193 21.1892
" />
<path d="M33.5193 21.1892
L33.5798 21.2497
" />
<path d="M33.5798 21.2497
L33.6403 21.3706
" />
<path d="M33.6403 21.3706
L33.6403 21.4916
" />
<path d="M33.6403 21.4916
L33.5798 21.6125
" />
<path d="M33.5798 21.6125
L33.5193 21.6730
" />
<path d="M33.5193 21.6730
L33.3984 21.7335
" />
<path d="M33.3984 21.7335
L32.9750 21.7335
" />
<path d="M30.6226 20.7762
L33.8157 20.7762
" />
</g></g>
<g style="fill:#A90000; fill-opacity:0.0; 
stroke:#A90000; stroke-width:0.1524; stroke-opacity:1; 
stroke-linecap:round; stroke-linejoin:round;">
<text x="28.6174" y="21.5652"
textLength="2.6222" font-size="1.6933" lengthAdjust="spacingAndGlyphs"
text-anchor="middle" opacity="0">14</text>
<g class="stroked-text"><desc>14</desc>
<path d="M28.3755 21.4017
L27.6498 21.4017
" />
<path d="M28.0126 21.4017
L28.0126 20.1317
" />
<path d="M28.0126 20.1317
L27.8917 20.3132
" />
<path d="M27.8917 20.3132
L27.7707 20.4341
" />
<path d="M27.7707 20.4341
L27.6498 20.4946
" />
<path d="M29.4640 20.5551
L29.4640 21.4017
" />
<path d="M29.1616 20.0713
L28.8593 20.9784
" />
<path d="M28.8593 20.9784
L29.6454 20.9784
" />
</g></g>
<g style="fill:#840000; fill-opacity:0.0; 
stroke:#840000; stroke-width:0.1524; stroke-opacity:1; 
stroke-linecap:round; stroke-linejoin:round;">
<path d="M40.0474 31.9792
L40.0474 34.5192
" />
</g>
<g style="fill:#006464; fill-opacity:0.0; 
stroke:#006464; stroke-width:0.1524; stroke-opacity:1; 
stroke-linecap:round; stroke-linejoin:round;">
<g transform="rotate(-90.000000 40.0474 31.4712)">
<text x="40.0474" y="32.1062"
textLength="4.0737" font-size="1.6933" lengthAdjust="spacingAndGlyphs"
text-anchor="start" opacity="0">GND</text>
</g>
<g class="stroked-text"><desc>GND</desc>
<path d="M39.4174 30.4033
L39.3569 30.5243
" />
<path d="M39.3569 30.5243
L39.3569 30.7057
" />
<path d="M39.3569 30.7057
L39.4174 30.8871
" />
<path d="M39.4174 30.8871
L39.5384 31.0081
" />
<path d="M39.5384 31.0081
L39.6593 31.0686
" />
<path d="M39.6593 31.0686
L39.9012 31.1290
" />
<path d="M39.9012 31.1290
L40.0826 31.1290
" />
<path d="M40.0826 31.1290
L40.3245 31.0686
" />
<path d="M40.3245 31.0686
L40.4455 31.0081
" />
<path d="M40.4455 31.0081
L40.5665 30.8871
" />
<path d="M40.5665 30.8871
L40.6269 30.7057
" />
<path d="M40.6269 30.7057
L40.6269 30.5848
" />
<path d="M40.6269 30.5848
L40.5665 30.4033
" />
<path d="M40.5665 30.4033
L40.5060 30.3429
" />
<path d="M40.5060 30.3429
L40.0826 30.3429
" />
<path d="M40.0826 30.3429
L40.0826 30.5848
" />
<path d="M40.6269 29.7986
L39.3569 29.7986
" />
<path d="M39.3569 29.7986
L40.6269 29.0729
" />
<path d="M40.6269 29.0729
L39.3569 29.0729
" />
<path d="M40.6269 28.4681
L39.3569 28.4681
" />
<path d="M39.3569 28.4681
L39.3569 28.1657
" />
<path d="M39.3569 28.1657
L39.4174 27.9843
" />
<path d="M39.4174 27.9843
L39.5384 27.8633
" />
<path d="M39.5384 27.8633
L39.6593 27.8028
" />
<path d="M39.6593 27.8028
L39.9012 27.7424
" />
<path d="M39.9012 27.7424
L40.0826 27.7424
" />
<path d="M40.0826 27.7424
L40.3245 27.8028
" />
<path d="M40.3245 27.8028
L40.4455 27.8633
" />
<path d="M40.4455 27.8633
L40.5665 27.9843
" />
<path d="M40.5665 27.9843
L40.6269 28.1657
" />
<path d="M40.6269 28.1657
L40.6269 28.4681
" />
</g></g>
<g style="fill:#A90000; fill-opacity:0.0; 
stroke:#A90000; stroke-width:0.1524; stroke-opacity:1; 
stroke-linecap:round; stroke-linejoin:round;">
<g transform="rotate(-90.000000 39.7934 33.2492)">
<text x="39.7934" y="33.2492"
textLength="1.4127" font-size="1.6933" lengthAdjust="spacingAndGlyphs"
text-anchor="middle" opacity="0">2</text>
</g>
<g class="stroked-text"><desc>2</desc>
<path d="M38.4809 33.6119
L38.4204 33.5515
" />
<path d="M38.4204 33.5515
L38.3599 33.4305
" />
<path d="M38.3599 33.4305
L38.3599 33.1281
" />
<path d="M38.3599 33.1281
L38.4204 33.0072
" />
<path d="M38.4204 33.0072
L38.4809 32.9467
" />
<path d="M38.4809 32.9467
L38.6018 32.8862
" />
<path d="M38.6018 32.8862
L38.7228 32.8862
" />
<path d="M38.7228 32.8862
L38.9042 32.9467
" />
<path d="M38.9042 32.9467
L39.6299 33.6724
" />
<path d="M39.6299 33.6724
L39.6299 32.8862
" />
</g></g>
<g style="fill:#840000; fill-opacity:0.0; 
stroke:#840000; stroke-width:0.1524; stroke-opacity:1; 
stroke-linecap:round; stroke-linejoin:round;">
<path d="M40.0474 6.5792
L40.0474 4.0392
" />
</g>
<g style="fill:#006464; fill-opacity:0.0; 
stroke:#006464; stroke-width:0.1524; stroke-opacity:1; 
stroke-linecap:round; stroke-linejoin:round;">
<g transform="rotate(-90.000000 40.0474 7.0872)">
<text x="40.0474" y="7.7222"
textLength="3.8318" font-size="1.6933" lengthAdjust="spacingAndGlyphs"
text-anchor="end" opacity="0">VCC</text>
</g>
<g class="stroked-text"><desc>VCC</desc>
<path d="M39.3569 10.6950
L40.6269 10.2717
" />
<path d="M40.6269 10.2717
L39.3569 9.8483
" />
<path d="M40.5060 8.6993
L40.5665 8.7597
" />
<path d="M40.5665 8.7597
L40.6269 8.9412
" />
<path d="M40.6269 8.9412
L40.6269 9.0621
" />
<path d="M40.6269 9.0621
L40.5665 9.2435
" />
<path d="M40.5665 9.2435
L40.4455 9.3645
" />
<path d="M40.4455 9.3645
L40.3245 9.4250
" />
<path d="M40.3245 9.4250
L40.0826 9.4854
" />
<path d="M40.0826 9.4854
L39.9012 9.4854
" />
<path d="M39.9012 9.4854
L39.6593 9.4250
" />
<path d="M39.6593 9.4250
L39.5384 9.3645
" />
<path d="M39.5384 9.3645
L39.4174 9.2435
" />
<path d="M39.4174 9.2435
L39.3569 9.0621
" />
<path d="M39.3569 9.0621
L39.3569 8.9412
" />
<path d="M39.3569 8.9412
L39.4174 8.7597
" />
<path d="M39.4174 8.7597
L39.4779 8.6993
" />
<path d="M40.5060 7.4293
L40.5665 7.4897
" />
<path d="M40.5665 7.4897
L40.6269 7.6712
" />
<path d="M40.6269 7.6712
L40.6269 7.7921
" />
<path d="M40.6269 7.7921
L40.5665 7.9735
" />
<path d="M40.5665 7.9735
L40.4455 8.0945
" />
<path d="M40.4455 8.0945
L40.3245 8.1550
" />
<path d="M40.3245 8.1550
L40.0826 8.2154
" />
<path d="M40.0826 8.2154
L39.9012 8.2154
" />
<path d="M39.9012 8.2154
L39.6593 8.1550
" />
<path d="M39.6593 8.1550
L39.5384 8.0945
" />
<path d="M39.5384 8.0945
L39.4174 7.9735
" />
<path d="M39.4174 7.9735
L39.3569 7.7921
" />
<path d="M39.3569 7.7921
L39.3569 7.6712
" />
<path d="M39.3569 7.6712
L39.4174 7.4897
" />
<path d="M39.4174 7.4897
L39.4779 7.4293
" />
</g></g>
<g style="fill:#A90000; fill-opacity:0.0; 
stroke:#A90000; stroke-width:0.1524; stroke-opacity:1; 
stroke-linecap:round; stroke-linejoin:round;">
<g transform="rotate(-90.000000 39.7934 5.3092)">
<text x="39.7934" y="5.3092"
textLength="1.4127" font-size="1.6933" lengthAdjust="spacingAndGlyphs"
text-anchor="middle" opacity="0">3</text>
</g>
<g class="stroked-text"><desc>3</desc>
<path d="M38.3599 5.7324
L38.3599 4.9462
" />
<path d="M38.3599 4.9462
L38.8437 5.3696
" />
<path d="M38.8437 5.3696
L38.8437 5.1881
" />
<path d="M38.8437 5.1881
L38.9042 5.0672
" />
<path d="M38.9042 5.0672
L38.9647 5.0067
" />
<path d="M38.9647 5.0067
L39.0856 4.9462
" />
<path d="M39.0856 4.9462
L39.3880 4.9462
" />
<path d="M39.3880 4.9462
L39.5090 5.0067
" />
<path d="M39.5090 5.0067
L39.5695 5.0672
" />
<path d="M39.5695 5.0672
L39.6299 5.1881
" />
<path d="M39.6299 5.1881
L39.6299 5.5510
" />
<path d="M39.6299 5.5510
L39.5695 5.6719
" />
<path d="M39.5695 5.6719
L39.5090 5.7324
" />
</g></g>
<g style="fill:#840000; fill-opacity:0.0; 
stroke:#840000; stroke-width:0.1524; stroke-opacity:1; 
stroke-linecap:round; stroke-linejoin:round;">
<path d="M29.8874 11.6592
L27.3474 11.6592
" />
</g>
<g style="fill:#006464; fill-opacity:0.0; 
stroke:#006464; stroke-width:0.1524; stroke-opacity:1; 
stroke-linecap:round; stroke-linejoin:round;">
<text x="30.3954" y="12.2942"
textLength="3.9527" font-size="1.6933" lengthAdjust="spacingAndGlyphs"
text-anchor="start" opacity="0">RXD</text>
<g class="stroked-text"><desc>RXD</desc>
<path d="M31.5236 12.2387
L31.1003 11.6340
" />
<path d="M30.7979 12.2387
L30.7979 10.9687
" />
<path d="M30.7979 10.9687
L31.2817 10.9687
" />
<path d="M31.2817 10.9687
L31.4027 11.0292
" />
<path d="M31.4027 11.0292
L31.4632 11.0897
" />
<path d="M31.4632 11.0897
L31.5236 11.2106
" />
<path d="M31.5236 11.2106
L31.5236 11.3921
" />
<path d="M31.5236 11.3921
L31.4632 11.5130
" />
<path d="M31.4632 11.5130
L31.4027 11.5735
" />
<path d="M31.4027 11.5735
L31.2817 11.6340
" />
<path d="M31.2817 11.6340
L30.7979 11.6340
" />
<path d="M31.9470 10.9687
L32.7936 12.2387
" />
<path d="M32.7936 10.9687
L31.9470 12.2387
" />
<path d="M33.2774 12.2387
L33.2774 10.9687
" />
<path d="M33.2774 10.9687
L33.5798 10.9687
" />
<path d="M33.5798 10.9687
L33.7612 11.0292
" />
<path d="M33.7612 11.0292
L33.8822 11.1502
" />
<path d="M33.8822 11.1502
L33.9427 11.2711
" />
<path d="M33.9427 11.2711
L34.0031 11.5130
" />
<path d="M34.0031 11.5130
L34.0031 11.6944
" />
<path d="M34.0031 11.6944
L33.9427 11.9363
" />
<path d="M33.9427 11.9363
L33.8822 12.0573
" />
<path d="M33.8822 12.0573
L33.7612 12.1783
" />
<path d="M33.7612 12.1783
L33.5798 12.2387
" />
<path d="M33.5798 12.2387
L33.2774 12.2387
" />
</g></g>
<g style="fill:#A90000; fill-opacity:0.0; 
stroke:#A90000; stroke-width:0.1524; stroke-opacity:1; 
stroke-linecap:round; stroke-linejoin:round;">
<text x="28.6174" y="11.4052"
textLength="1.4127" font-size="1.6933" lengthAdjust="spacingAndGlyphs"
text-anchor="middle" opacity="0">4</text>
<g class="stroked-text"><desc>4</desc>
<path d="M28.8593 10.3951
L28.8593 11.2417
" />
<path d="M28.5569 9.9113
L28.2546 10.8184
" />
<path d="M28.2546 10.8184
L29.0407 10.8184
" />
</g></g>
<g style="fill:#840000; fill-opacity:0.0; 
stroke:#840000; stroke-width:0.1524; stroke-opacity:1; 
stroke-linecap:round; stroke-linejoin:round;">
<path d="M37.5074 6.5792
L37.5074 4.0392
" />
</g>
<g style="fill:#006464; fill-opacity:0.0; 
stroke:#006464; stroke-width:0.1524; stroke-opacity:1; 
stroke-linecap:round; stroke-linejoin:round;">
<g transform="rotate(-90.000000 37.5074 7.0872)">
<text x="37.5074" y="7.7222"
textLength="3.2271" font-size="1.6933" lengthAdjust="spacingAndGlyphs"
text-anchor="end" opacity="0">VIO</text>
</g>
<g class="stroked-text"><desc>VIO</desc>
<path d="M36.8169 10.0903
L38.0869 9.6670
" />
<path d="M38.0869 9.6670
L36.8169 9.2436
" />
<path d="M38.0869 8.8203
L36.8169 8.8203
" />
<path d="M36.8169 7.9736
L36.8169 7.7317
" />
<path d="M36.8169 7.7317
L36.8774 7.6107
" />
<path d="M36.8774 7.6107
L36.9984 7.4898
" />
<path d="M36.9984 7.4898
L37.2403 7.4293
" />
<path d="M37.2403 7.4293
L37.6636 7.4293
" />
<path d="M37.6636 7.4293
L37.9055 7.4898
" />
<path d="M37.9055 7.4898
L38.0265 7.6107
" />
<path d="M38.0265 7.6107
L38.0869 7.7317
" />
<path d="M38.0869 7.7317
L38.0869 7.9736
" />
<path d="M38.0869 7.9736
L38.0265 8.0945
" />
<path d="M38.0265 8.0945
L37.9055 8.2155
" />
<path d="M37.9055 8.2155
L37.6636 8.2759
" />
<path d="M37.6636 8.2759
L37.2403 8.2759
" />
<path d="M37.2403 8.2759
L36.9984 8.2155
" />
<path d="M36.9984 8.2155
L36.8774 8.0945
" />
<path d="M36.8774 8.0945
L36.8169 7.9736
" />
</g></g>
<g style="fill:#A90000; fill-opacity:0.0; 
stroke:#A90000; stroke-width:0.1524; stroke-opacity:1; 
stroke-linecap:round; stroke-linejoin:round;">
<g transform="rotate(-90.000000 37.2534 5.3092)">
<text x="37.2534" y="5.3092"
textLength="1.4127" font-size="1.6933" lengthAdjust="spacingAndGlyphs"
text-anchor="middle" opacity="0">5</text>
</g>
<g class="stroked-text"><desc>5</desc>
<path d="M35.8199 5.0067
L35.8199 5.6115
" />
<path d="M35.8199 5.6115
L36.4247 5.6719
" />
<path d="M36.4247 5.6719
L36.3642 5.6115
" />
<path d="M36.3642 5.6115
L36.3037 5.4905
" />
<path d="M36.3037 5.4905
L36.3037 5.1881
" />
<path d="M36.3037 5.1881
L36.3642 5.0672
" />
<path d="M36.3642 5.0672
L36.4247 5.0067
" />
<path d="M36.4247 5.0067
L36.5456 4.9462
" />
<path d="M36.5456 4.9462
L36.8480 4.9462
" />
<path d="M36.8480 4.9462
L36.9690 5.0067
" />
<path d="M36.9690 5.0067
L37.0295 5.0672
" />
<path d="M37.0295 5.0672
L37.0899 5.1881
" />
<path d="M37.0899 5.1881
L37.0899 5.4905
" />
<path d="M37.0899 5.4905
L37.0295 5.6115
" />
<path d="M37.0295 5.6115
L36.9690 5.6719
" />
</g></g>
<g style="fill:#840000; fill-opacity:0.0; 
stroke:#840000; stroke-width:0.1524; stroke-opacity:1; 
stroke-linecap:round; stroke-linejoin:round;">
<path d="M29.8874 19.2792
L27.3474 19.2792
" />
</g>
<g style="fill:#006464; fill-opacity:0.0; 
stroke:#006464; stroke-width:0.1524; stroke-opacity:1; 
stroke-linecap:round; stroke-linejoin:round;">
<text x="30.3954" y="19.9142"
textLength="2.6827" font-size="1.6933" lengthAdjust="spacingAndGlyphs"
text-anchor="start" opacity="0">EN</text>
<g class="stroked-text"><desc>EN</desc>
<path d="M30.7979 19.1935
L31.2213 19.1935
" />
<path d="M31.4027 19.8587
L30.7979 19.8587
" />
<path d="M30.7979 19.8587
L30.7979 18.5887
" />
<path d="M30.7979 18.5887
L31.4027 18.5887
" />
<path d="M31.9469 19.8587
L31.9469 18.5887
" />
<path d="M31.9469 18.5887
L32.6726 19.8587
" />
<path d="M32.6726 19.8587
L32.6726 18.5887
" />
</g></g>
<g style="fill:#A90000; fill-opacity:0.0; 
stroke:#A90000; stroke-width:0.1524; stroke-opacity:1; 
stroke-linecap:round; stroke-linejoin:round;">
<text x="28.6174" y="19.0252"
textLength="1.4127" font-size="1.6933" lengthAdjust="spacingAndGlyphs"
text-anchor="middle" opacity="0">6</text>
<g class="stroked-text"><desc>6</desc>
<path d="M28.8593 17.5917
L28.6174 17.5917
" />
<path d="M28.6174 17.5917
L28.4965 17.6522
" />
<path d="M28.4965 17.6522
L28.4360 17.7127
" />
<path d="M28.4360 17.7127
L28.3150 17.8941
" />
<path d="M28.3150 17.8941
L28.2546 18.1360
" />
<path d="M28.2546 18.1360
L28.2546 18.6198
" />
<path d="M28.2546 18.6198
L28.3150 18.7408
" />
<path d="M28.3150 18.7408
L28.3755 18.8013
" />
<path d="M28.3755 18.8013
L28.4965 18.8617
" />
<path d="M28.4965 18.8617
L28.7384 18.8617
" />
<path d="M28.7384 18.8617
L28.8593 18.8013
" />
<path d="M28.8593 18.8013
L28.9198 18.7408
" />
<path d="M28.9198 18.7408
L28.9803 18.6198
" />
<path d="M28.9803 18.6198
L28.9803 18.3174
" />
<path d="M28.9803 18.3174
L28.9198 18.1965
" />
<path d="M28.9198 18.1965
L28.8593 18.1360
" />
<path d="M28.8593 18.1360
L28.7384 18.0755
" />
<path d="M28.7384 18.0755
L28.4965 18.0755
" />
<path d="M28.4965 18.0755
L28.3755 18.1360
" />
<path d="M28.3755 18.1360
L28.3150 18.1965
" />
<path d="M28.3150 18.1965
L28.2546 18.3174
" />
</g></g>
<g style="fill:#840000; fill-opacity:0.0; 
stroke:#840000; stroke-width:0.1524; stroke-opacity:1; 
stroke-linecap:round; stroke-linejoin:round;">
<path d="M50.2074 26.8992
L52.7474 26.8992
" />
</g>
<g style="fill:#006464; fill-opacity:0.0; 
stroke:#006464; stroke-width:0.1524; stroke-opacity:1; 
stroke-linecap:round; stroke-linejoin:round;">
<text x="49.6994" y="27.5342"
textLength="3.4690" font-size="1.6933" lengthAdjust="spacingAndGlyphs"
text-anchor="end" opacity="0">INH</text>
<g class="stroked-text"><desc>INH</desc>
<path d="M46.6357 27.4787
L46.6357 26.2087
" />
<path d="M47.2405 27.4787
L47.2405 26.2087
" />
<path d="M47.2405 26.2087
L47.9662 27.4787
" />
<path d="M47.9662 27.4787
L47.9662 26.2087
" />
<path d="M48.5710 27.4787
L48.5710 26.2087
" />
<path d="M48.5710 26.8135
L49.2967 26.8135
" />
<path d="M49.2967 27.4787
L49.2967 26.2087
" />
</g></g>
<g style="fill:#A90000; fill-opacity:0.0; 
stroke:#A90000; stroke-width:0.1524; stroke-opacity:1; 
stroke-linecap:round; stroke-linejoin:round;">
<text x="51.4774" y="26.6452"
textLength="1.4127" font-size="1.6933" lengthAdjust="spacingAndGlyphs"
text-anchor="middle" opacity="0">7</text>
<g class="stroked-text"><desc>7</desc>
<path d="M51.0541 25.2117
L51.9007 25.2117
" />
<path d="M51.9007 25.2117
L51.3565 26.4817
" />
</g></g>
<g style="fill:#840000; fill-opacity:0.0; 
stroke:#840000; stroke-width:0.1524; stroke-opacity:1; 
stroke-linecap:round; stroke-linejoin:round;">
<path d="M29.8874 24.3592
L27.3474 24.3592
" />
</g>
<g style="fill:#006464; fill-opacity:0.0; 
stroke:#006464; stroke-width:0.1524; stroke-opacity:1; 
stroke-linecap:round; stroke-linejoin:round;">
<text x="30.3954" y="24.9942"
textLength="3.8922" font-size="1.6933" lengthAdjust="spacingAndGlyphs"
text-anchor="start" opacity="0">~{ERR}</text>
<g class="stroked-text"><desc>~{ERR}</desc>
<path d="M30.7979 24.2735
L31.2213 24.2735
" />
<path d="M31.4027 24.9387
L30.7979 24.9387
" />
<path d="M30.7979 24.9387
L30.7979 23.6687
" />
<path d="M30.7979 23.6687
L31.4027 23.6687
" />
<path d="M32.6726 24.9387
L32.2493 24.3340
" />
<path d="M31.9469 24.9387
L31.9469 23.6687
" />
<path d="M31.9469 23.6687
L32.4307 23.6687
" />
<path d="M32.4307 23.6687
L32.5517 23.7292
" />
<path d="M32.5517 23.7292
L32.6122 23.7897
" />
<path d="M32.6122 23.7897
L32.6726 23.9106
" />
<path d="M32.6726 23.9106
L32.6726 24.0921
" />
<path d="M32.6726 24.0921
L32.6122 24.2130
" />
<path d="M32.6122 24.2130
L32.5517 24.2735
" />
<path d="M32.5517 24.2735
L32.4307 24.3340
" />
<path d="M32.4307 24.3340
L31.9469 24.3340
" />
<path d="M33.9426 24.9387
L33.5193 24.3340
" />
<path d="M33.2169 24.9387
L33.2169 23.6687
" />
<path d="M33.2169 23.6687
L33.7007 23.6687
" />
<path d="M33.7007 23.6687
L33.8217 23.7292
" />
<path d="M33.8217 23.7292
L33.8822 23.7897
" />
<path d="M33.8822 23.7897
L33.9426 23.9106
" />
<path d="M33.9426 23.9106
L33.9426 24.0921
" />
<path d="M33.9426 24.0921
L33.8822 24.2130
" />
<path d="M33.8822 24.2130
L33.8217 24.2735
" />
<path d="M33.8217 24.2735
L33.7007 24.3340
" />
<path d="M33.7007 24.3340
L33.2169 24.3340
" />
<path d="M30.6226 23.3162
L34.0576 23.3162
" />
</g></g>
<g style="fill:#A90000; fill-opacity:0.0; 
stroke:#A90000; stroke-width:0.1524; stroke-opacity:1; 
stroke-linecap:round; stroke-linejoin:round;">
<text x="28.6174" y="24.1052"
textLength="1.4127" font-size="1.6933" lengthAdjust="spacingAndGlyphs"
text-anchor="middle" opacity="0">8</text>
<g class="stroked-text"><desc>8</desc>
<path d="M28.4965 23.2160
L28.3755 23.1555
" />
<path d="M28.3755 23.1555
L28.3150 23.0951
" />
<path d="M28.3150 23.0951
L28.2546 22.9741
" />
<path d="M28.2546 22.9741
L28.2546 22.9136
" />
<path d="M28.2546 22.9136
L28.3150 22.7927
" />
<path d="M28.3150 22.7927
L28.3755 22.7322
" />
<path d="M28.3755 22.7322
L28.4965 22.6717
" />
<path d="M28.4965 22.6717
L28.7384 22.6717
" />
<path d="M28.7384 22.6717
L28.8593 22.7322
" />
<path d="M28.8593 22.7322
L28.9198 22.7927
" />
<path d="M28.9198 22.7927
L28.9803 22.9136
" />
<path d="M28.9803 22.9136
L28.9803 22.9741
" />
<path d="M28.9803 22.9741
L28.9198 23.0951
" />
<path d="M28.9198 23.0951
L28.8593 23.1555
" />
<path d="M28.8593 23.1555
L28.7384 23.2160
" />
<path d="M28.7384 23.2160
L28.4965 23.2160
" />
<path d="M28.4965 23.2160
L28.3755 23.2765
" />
<path d="M28.3755 23.2765
L28.3150 23.3370
" />
<path d="M28.3150 23.3370
L28.2546 23.4579
" />
<path d="M28.2546 23.4579
L28.2546 23.6998
" />
<path d="M28.2546 23.6998
L28.3150 23.8208
" />
<path d="M28.3150 23.8208
L28.3755 23.8813
" />
<path d="M28.3755 23.8813
L28.4965 23.9417
" />
<path d="M28.4965 23.9417
L28.7384 23.9417
" />
<path d="M28.7384 23.9417
L28.8593 23.8813
" />
<path d="M28.8593 23.8813
L28.9198 23.8208
" />
<path d="M28.9198 23.8208
L28.9803 23.6998
" />
<path d="M28.9803 23.6998
L28.9803 23.4579
" />
<path d="M28.9803 23.4579
L28.9198 23.3370
" />
<path d="M28.9198 23.3370
L28.8593 23.2765
" />
<path d="M28.8593 23.2765
L28.7384 23.2160
" />
</g></g>
<g style="fill:#840000; fill-opacity:0.0; 
stroke:#840000; stroke-width:0.1524; stroke-opacity:1; 
stroke-linecap:round; stroke-linejoin:round;">
<path d="M29.8874 26.8992
L27.3474 26.8992
" />
</g>
<g style="fill:#006464; fill-opacity:0.0; 
stroke:#006464; stroke-width:0.1524; stroke-opacity:1; 
stroke-linecap:round; stroke-linejoin:round;">
<text x="30.3954" y="27.5342"
textLength="5.1622" font-size="1.6933" lengthAdjust="spacingAndGlyphs"
text-anchor="start" opacity="0">WAKE</text>
<g class="stroked-text"><desc>WAKE</desc>
<path d="M30.6770 26.2087
L30.9794 27.4787
" />
<path d="M30.9794 27.4787
L31.2213 26.5716
" />
<path d="M31.2213 26.5716
L31.4632 27.4787
" />
<path d="M31.4632 27.4787
L31.7656 26.2087
" />
<path d="M32.1889 27.1159
L32.7936 27.1159
" />
<path d="M32.0679 27.4787
L32.4912 26.2087
" />
<path d="M32.4912 26.2087
L32.9146 27.4787
" />
<path d="M33.3379 27.4787
L33.3379 26.2087
" />
<path d="M34.0636 27.4787
L33.5194 26.7530
" />
<path d="M34.0636 26.2087
L33.3379 26.9344
" />
<path d="M34.6079 26.8135
L35.0313 26.8135
" />
<path d="M35.2127 27.4787
L34.6079 27.4787
" />
<path d="M34.6079 27.4787
L34.6079 26.2087
" />
<path d="M34.6079 26.2087
L35.2127 26.2087
" />
</g></g>
<g style="fill:#A90000; fill-opacity:0.0; 
stroke:#A90000; stroke-width:0.1524; stroke-opacity:1; 
stroke-linecap:round; stroke-linejoin:round;">
<text x="28.6174" y="26.6452"
textLength="1.4127" font-size="1.6933" lengthAdjust="spacingAndGlyphs"
text-anchor="middle" opacity="0">9</text>
<g class="stroked-text"><desc>9</desc>
<path d="M28.3755 26.4817
L28.6174 26.4817
" />
<path d="M28.6174 26.4817
L28.7384 26.4213
" />
<path d="M28.7384 26.4213
L28.7988 26.3608
" />
<path d="M28.7988 26.3608
L28.9198 26.1793
" />
<path d="M28.9198 26.1793
L28.9803 25.9374
" />
<path d="M28.9803 25.9374
L28.9803 25.4536
" />
<path d="M28.9803 25.4536
L28.9198 25.3327
" />
<path d="M28.9198 25.3327
L28.8593 25.2722
" />
<path d="M28.8593 25.2722
L28.7384 25.2117
" />
<path d="M28.7384 25.2117
L28.4965 25.2117
" />
<path d="M28.4965 25.2117
L28.3755 25.2722
" />
<path d="M28.3755 25.2722
L28.3150 25.3327
" />
<path d="M28.3150 25.3327
L28.2546 25.4536
" />
<path d="M28.2546 25.4536
L28.2546 25.7560
" />
<path d="M28.2546 25.7560
L28.3150 25.8770
" />
<path d="M28.3150 25.8770
L28.3755 25.9374
" />
<path d="M28.3755 25.9374
L28.4965 25.9979
" />
<path d="M28.4965 25.9979
L28.7384 25.9979
" />
<path d="M28.7384 25.9979
L28.8593 25.9374
" />
<path d="M28.8593 25.9374
L28.9198 25.8770
" />
<path d="M28.9198 25.8770
L28.9803 25.7560
" />
</g></g>
<g style="fill:#840084; fill-opacity:0.0; 
stroke:#840084; stroke-width:0.1524; stroke-opacity:1; 
stroke-linecap:round; stroke-linejoin:round;">
</g>
<g style="fill:#006464; fill-opacity:0.0; 
stroke:#006464; stroke-width:0.1524; stroke-opacity:1; 
stroke-linecap:round; stroke-linejoin:round;">
</g>
<g style="fill:#006464; fill-opacity:0.0; 
stroke:#006464; stroke-width:0.1588; stroke-opacity:1; 
stroke-linecap:round; stroke-linejoin:round;">
<text x="31.2081" y="5.9442"
textLength="2.6415" font-size="1.6933" lengthAdjust="spacingAndGlyphs"
text-anchor="middle" opacity="0">U?</text>
<g class="stroked-text"><desc>U?</desc>
<path d="M30.3009 4.6184
L30.3009 5.6465
" />
<path d="M30.3009 5.6465
L30.3614 5.7675
" />
<path d="M30.3614 5.7675
L30.4219 5.8280
" />
<path d="M30.4219 5.8280
L30.5428 5.8884
" />
<path d="M30.5428 5.8884
L30.7847 5.8884
" />
<path d="M30.7847 5.8884
L30.9057 5.8280
" />
<path d="M30.9057 5.8280
L30.9662 5.7675
" />
<path d="M30.9662 5.7675
L31.0266 5.6465
" />
<path d="M31.0266 5.6465
L31.0266 4.6184
" />
<path d="M31.8129 5.7675
L31.8733 5.8280
" />
<path d="M31.8733 5.8280
L31.8129 5.8884
" />
<path d="M31.8129 5.8884
L31.7524 5.8280
" />
<path d="M31.7524 5.8280
L31.8129 5.7675
" />
<path d="M31.8129 5.7675
L31.8129 5.8884
" />
<path d="M31.5710 4.6789
L31.6919 4.6184
" />
<path d="M31.6919 4.6184
L31.9943 4.6184
" />
<path d="M31.9943 4.6184
L32.1152 4.6789
" />
<path d="M32.1152 4.6789
L32.1757 4.7999
" />
<path d="M32.1757 4.7999
L32.1757 4.9208
" />
<path d="M32.1757 4.9208
L32.1152 5.0418
" />
<path d="M32.1152 5.0418
L32.0548 5.1022
" />
<path d="M32.0548 5.1022
L31.9338 5.1627
" />
<path d="M31.9338 5.1627
L31.8733 5.2232
" />
<path d="M31.8733 5.2232
L31.8129 5.3441
" />
<path d="M31.8129 5.3441
L31.8129 5.4046
" />
</g><text x="49.0183" y="5.9442"
textLength="10.3218" font-size="1.6933" lengthAdjust="spacingAndGlyphs"
text-anchor="middle" opacity="0">TJA1043TK</text>
<g class="stroked-text"><desc>TJA1043TK</desc>
<path d="M44.0895 4.6184
L44.8152 4.6184
" />
<path d="M44.4524 5.8884
L44.4524 4.6184
" />
<path d="M45.6014 4.6184
L45.6014 5.5256
" />
<path d="M45.6014 5.5256
L45.5409 5.7070
" />
<path d="M45.5409 5.7070
L45.4200 5.8280
" />
<path d="M45.4200 5.8280
L45.2385 5.8884
" />
<path d="M45.2385 5.8884
L45.1176 5.8884
" />
<path d="M46.1457 5.5256
L46.7504 5.5256
" />
<path d="M46.0247 5.8884
L46.4480 4.6184
" />
<path d="M46.4480 4.6184
L46.8714 5.8884
" />
<path d="M47.9600 5.8884
L47.2343 5.8884
" />
<path d="M47.5971 5.8884
L47.5971 4.6184
" />
<path d="M47.5971 4.6184
L47.4762 4.7999
" />
<path d="M47.4762 4.7999
L47.3552 4.9208
" />
<path d="M47.3552 4.9208
L47.2343 4.9813
" />
<path d="M48.7461 4.6184
L48.8671 4.6184
" />
<path d="M48.8671 4.6184
L48.9880 4.6789
" />
<path d="M48.9880 4.6789
L49.0485 4.7394
" />
<path d="M49.0485 4.7394
L49.1090 4.8603
" />
<path d="M49.1090 4.8603
L49.1695 5.1022
" />
<path d="M49.1695 5.1022
L49.1695 5.4046
" />
<path d="M49.1695 5.4046
L49.1090 5.6465
" />
<path d="M49.1090 5.6465
L49.0485 5.7675
" />
<path d="M49.0485 5.7675
L48.9880 5.8280
" />
<path d="M48.9880 5.8280
L48.8671 5.8884
" />
<path d="M48.8671 5.8884
L48.7461 5.8884
" />
<path d="M48.7461 5.8884
L48.6252 5.8280
" />
<path d="M48.6252 5.8280
L48.5647 5.7675
" />
<path d="M48.5647 5.7675
L48.5042 5.6465
" />
<path d="M48.5042 5.6465
L48.4438 5.4046
" />
<path d="M48.4438 5.4046
L48.4438 5.1022
" />
<path d="M48.4438 5.1022
L48.5042 4.8603
" />
<path d="M48.5042 4.8603
L48.5647 4.7394
" />
<path d="M48.5647 4.7394
L48.6252 4.6789
" />
<path d="M48.6252 4.6789
L48.7461 4.6184
" />
<path d="M50.2580 5.0418
L50.2580 5.8884
" />
<path d="M49.9556 4.5580
L49.6533 5.4651
" />
<path d="M49.6533 5.4651
L50.4394 5.4651
" />
<path d="M50.8023 4.6184
L51.5885 4.6184
" />
<path d="M51.5885 4.6184
L51.1651 5.1022
" />
<path d="M51.1651 5.1022
L51.3466 5.1022
" />
<path d="M51.3466 5.1022
L51.4675 5.1627
" />
<path d="M51.4675 5.1627
L51.5280 5.2232
" />
<path d="M51.5280 5.2232
L51.5885 5.3441
" />
<path d="M51.5885 5.3441
L51.5885 5.6465
" />
<path d="M51.5885 5.6465
L51.5280 5.7675
" />
<path d="M51.5280 5.7675
L51.4675 5.8280
" />
<path d="M51.4675 5.8280
L51.3466 5.8884
" />
<path d="M51.3466 5.8884
L50.9837 5.8884
" />
<path d="M50.9837 5.8884
L50.8628 5.8280
" />
<path d="M50.8628 5.8280
L50.8023 5.7675
" />
<path d="M51.9513 4.6184
L52.6770 4.6184
" />
<path d="M52.3142 5.8884
L52.3142 4.6184
" />
<path d="M53.1003 5.8884
L53.1003 4.6184
" />
<path d="M53.8260 5.8884
L53.2818 5.1627
" />
<path d="M53.8260 4.6184
L53.1003 5.3441
" />
</g></g>
<g style="fill:#840084; fill-opacity:0.0; 
stroke:#840084; stroke-width:0.1588; stroke-opacity:1; 
stroke-linecap:round; stroke-linejoin:round;">
<text x="40.0474" y="44.0442"
textLength="66.7458" font-size="1.6933" lengthAdjust="spacingAndGlyphs"
text-anchor="middle" opacity="0">Package_DFN_QFN:DFN-14-1EP_3x4.5mm_P0.65mm_EP1.65x4.25mm</text>
<g class="stroked-text"><desc>Package_DFN_QFN:DFN-14-1EP_3x4.5mm_P0.65mm_EP1.65x4.25mm</desc>
<path d="M7.0880 43.9884
L7.0880 42.7184
" />
<path d="M7.0880 42.7184
L7.5718 42.7184
" />
<path d="M7.5718 42.7184
L7.6928 42.7789
" />
<path d="M7.6928 42.7789
L7.7533 42.8394
" />
<path d="M7.7533 42.8394
L7.8137 42.9603
" />
<path d="M7.8137 42.9603
L7.8137 43.1418
" />
<path d="M7.8137 43.1418
L7.7533 43.2627
" />
<path d="M7.7533 43.2627
L7.6928 43.3232
" />
<path d="M7.6928 43.3232
L7.5718 43.3837
" />
<path d="M7.5718 43.3837
L7.0880 43.3837
" />
<path d="M8.9023 43.9884
L8.9023 43.3232
" />
<path d="M8.9023 43.3232
L8.8418 43.2022
" />
<path d="M8.8418 43.2022
L8.7209 43.1418
" />
<path d="M8.7209 43.1418
L8.4790 43.1418
" />
<path d="M8.4790 43.1418
L8.3580 43.2022
" />
<path d="M8.9023 43.9280
L8.7814 43.9884
" />
<path d="M8.7814 43.9884
L8.4790 43.9884
" />
<path d="M8.4790 43.9884
L8.3580 43.9280
" />
<path d="M8.3580 43.9280
L8.2976 43.8070
" />
<path d="M8.2976 43.8070
L8.2976 43.6860
" />
<path d="M8.2976 43.6860
L8.3580 43.5651
" />
<path d="M8.3580 43.5651
L8.4790 43.5046
" />
<path d="M8.4790 43.5046
L8.7814 43.5046
" />
<path d="M8.7814 43.5046
L8.9023 43.4441
" />
<path d="M10.0513 43.9280
L9.9304 43.9884
" />
<path d="M9.9304 43.9884
L9.6885 43.9884
" />
<path d="M9.6885 43.9884
L9.5675 43.9280
" />
<path d="M9.5675 43.9280
L9.5070 43.8675
" />
<path d="M9.5070 43.8675
L9.4466 43.7465
" />
<path d="M9.4466 43.7465
L9.4466 43.3837
" />
<path d="M9.4466 43.3837
L9.5070 43.2627
" />
<path d="M9.5070 43.2627
L9.5675 43.2022
" />
<path d="M9.5675 43.2022
L9.6885 43.1418
" />
<path d="M9.6885 43.1418
L9.9304 43.1418
" />
<path d="M9.9304 43.1418
L10.0513 43.2022
" />
<path d="M10.5956 43.9884
L10.5956 42.7184
" />
<path d="M10.7166 43.5046
L11.0794 43.9884
" />
<path d="M11.0794 43.1418
L10.5956 43.6256
" />
<path d="M12.1680 43.9884
L12.1680 43.3232
" />
<path d="M12.1680 43.3232
L12.1075 43.2022
" />
<path d="M12.1075 43.2022
L11.9866 43.1418
" />
<path d="M11.9866 43.1418
L11.7447 43.1418
" />
<path d="M11.7447 43.1418
L11.6237 43.2022
" />
<path d="M12.1680 43.9280
L12.0471 43.9884
" />
<path d="M12.0471 43.9884
L11.7447 43.9884
" />
<path d="M11.7447 43.9884
L11.6237 43.9280
" />
<path d="M11.6237 43.9280
L11.5633 43.8070
" />
<path d="M11.5633 43.8070
L11.5633 43.6860
" />
<path d="M11.5633 43.6860
L11.6237 43.5651
" />
<path d="M11.6237 43.5651
L11.7447 43.5046
" />
<path d="M11.7447 43.5046
L12.0471 43.5046
" />
<path d="M12.0471 43.5046
L12.1680 43.4441
" />
<path d="M13.3170 43.1418
L13.3170 44.1699
" />
<path d="M13.3170 44.1699
L13.2565 44.2908
" />
<path d="M13.2565 44.2908
L13.1961 44.3513
" />
<path d="M13.1961 44.3513
L13.0751 44.4118
" />
<path d="M13.0751 44.4118
L12.8937 44.4118
" />
<path d="M12.8937 44.4118
L12.7727 44.3513
" />
<path d="M13.3170 43.9280
L13.1961 43.9884
" />
<path d="M13.1961 43.9884
L12.9542 43.9884
" />
<path d="M12.9542 43.9884
L12.8332 43.9280
" />
<path d="M12.8332 43.9280
L12.7727 43.8675
" />
<path d="M12.7727 43.8675
L12.7123 43.7465
" />
<path d="M12.7123 43.7465
L12.7123 43.3837
" />
<path d="M12.7123 43.3837
L12.7727 43.2627
" />
<path d="M12.7727 43.2627
L12.8332 43.2022
" />
<path d="M12.8332 43.2022
L12.9542 43.1418
" />
<path d="M12.9542 43.1418
L13.1961 43.1418
" />
<path d="M13.1961 43.1418
L13.3170 43.2022
" />
<path d="M14.4055 43.9280
L14.2846 43.9884
" />
<path d="M14.2846 43.9884
L14.0427 43.9884
" />
<path d="M14.0427 43.9884
L13.9217 43.9280
" />
<path d="M13.9217 43.9280
L13.8613 43.8070
" />
<path d="M13.8613 43.8070
L13.8613 43.3232
" />
<path d="M13.8613 43.3232
L13.9217 43.2022
" />
<path d="M13.9217 43.2022
L14.0427 43.1418
" />
<path d="M14.0427 43.1418
L14.2846 43.1418
" />
<path d="M14.2846 43.1418
L14.4055 43.2022
" />
<path d="M14.4055 43.2022
L14.4660 43.3232
" />
<path d="M14.4660 43.3232
L14.4660 43.4441
" />
<path d="M14.4660 43.4441
L13.8613 43.5651
" />
<path d="M14.7080 44.1094
L15.6756 44.1094
" />
<path d="M15.9779 43.9884
L15.9779 42.7184
" />
<path d="M15.9779 42.7184
L16.2803 42.7184
" />
<path d="M16.2803 42.7184
L16.4617 42.7789
" />
<path d="M16.4617 42.7789
L16.5827 42.8999
" />
<path d="M16.5827 42.8999
L16.6432 43.0208
" />
<path d="M16.6432 43.0208
L16.7036 43.2627
" />
<path d="M16.7036 43.2627
L16.7036 43.4441
" />
<path d="M16.7036 43.4441
L16.6432 43.6860
" />
<path d="M16.6432 43.6860
L16.5827 43.8070
" />
<path d="M16.5827 43.8070
L16.4617 43.9280
" />
<path d="M16.4617 43.9280
L16.2803 43.9884
" />
<path d="M16.2803 43.9884
L15.9779 43.9884
" />
<path d="M17.6713 43.3232
L17.2479 43.3232
" />
<path d="M17.2479 43.9884
L17.2479 42.7184
" />
<path d="M17.2479 42.7184
L17.8527 42.7184
" />
<path d="M18.3365 43.9884
L18.3365 42.7184
" />
<path d="M18.3365 42.7184
L19.0622 43.9884
" />
<path d="M19.0622 43.9884
L19.0622 42.7184
" />
<path d="M19.3647 44.1094
L20.3323 44.1094
" />
<path d="M21.4813 44.1094
L21.3603 44.0489
" />
<path d="M21.3603 44.0489
L21.2394 43.9280
" />
<path d="M21.2394 43.9280
L21.0580 43.7465
" />
<path d="M21.0580 43.7465
L20.9370 43.6860
" />
<path d="M20.9370 43.6860
L20.8161 43.6860
" />
<path d="M20.8765 43.9884
L20.7556 43.9280
" />
<path d="M20.7556 43.9280
L20.6346 43.8070
" />
<path d="M20.6346 43.8070
L20.5742 43.5651
" />
<path d="M20.5742 43.5651
L20.5742 43.1418
" />
<path d="M20.5742 43.1418
L20.6346 42.8999
" />
<path d="M20.6346 42.8999
L20.7556 42.7789
" />
<path d="M20.7556 42.7789
L20.8765 42.7184
" />
<path d="M20.8765 42.7184
L21.1184 42.7184
" />
<path d="M21.1184 42.7184
L21.2394 42.7789
" />
<path d="M21.2394 42.7789
L21.3603 42.8999
" />
<path d="M21.3603 42.8999
L21.4208 43.1418
" />
<path d="M21.4208 43.1418
L21.4208 43.5651
" />
<path d="M21.4208 43.5651
L21.3603 43.8070
" />
<path d="M21.3603 43.8070
L21.2394 43.9280
" />
<path d="M21.2394 43.9280
L21.1184 43.9884
" />
<path d="M21.1184 43.9884
L20.8765 43.9884
" />
<path d="M22.3885 43.3232
L21.9651 43.3232
" />
<path d="M21.9651 43.9884
L21.9651 42.7184
" />
<path d="M21.9651 42.7184
L22.5699 42.7184
" />
<path d="M23.0537 43.9884
L23.0537 42.7184
" />
<path d="M23.0537 42.7184
L23.7794 43.9884
" />
<path d="M23.7794 43.9884
L23.7794 42.7184
" />
<path d="M24.3842 43.8675
L24.4447 43.9280
" />
<path d="M24.4447 43.9280
L24.3842 43.9884
" />
<path d="M24.3842 43.9884
L24.3238 43.9280
" />
<path d="M24.3238 43.9280
L24.3842 43.8675
" />
<path d="M24.3842 43.8675
L24.3842 43.9884
" />
<path d="M24.3842 43.2022
L24.4447 43.2627
" />
<path d="M24.4447 43.2627
L24.3842 43.3232
" />
<path d="M24.3842 43.3232
L24.3238 43.2627
" />
<path d="M24.3238 43.2627
L24.3842 43.2022
" />
<path d="M24.3842 43.2022
L24.3842 43.3232
" />
<path d="M24.9890 43.9884
L24.9890 42.7184
" />
<path d="M24.9890 42.7184
L25.2914 42.7184
" />
<path d="M25.2914 42.7184
L25.4728 42.7789
" />
<path d="M25.4728 42.7789
L25.5938 42.8999
" />
<path d="M25.5938 42.8999
L25.6543 43.0208
" />
<path d="M25.6543 43.0208
L25.7147 43.2627
" />
<path d="M25.7147 43.2627
L25.7147 43.4441
" />
<path d="M25.7147 43.4441
L25.6543 43.6860
" />
<path d="M25.6543 43.6860
L25.5938 43.8070
" />
<path d="M25.5938 43.8070
L25.4728 43.9280
" />
<path d="M25.4728 43.9280
L25.2914 43.9884
" />
<path d="M25.2914 43.9884
L24.9890 43.9884
" />
<path d="M26.6824 43.3232
L26.2590 43.3232
" />
<path d="M26.2590 43.9884
L26.2590 42.7184
" />
<path d="M26.2590 42.7184
L26.8638 42.7184
" />
<path d="M27.3476 43.9884
L27.3476 42.7184
" />
<path d="M27.3476 42.7184
L28.0733 43.9884
" />
<path d="M28.0733 43.9884
L28.0733 42.7184
" />
<path d="M28.6781 43.5046
L29.6458 43.5046
" />
<path d="M30.9158 43.9884
L30.1901 43.9884
" />
<path d="M30.5529 43.9884
L30.5529 42.7184
" />
<path d="M30.5529 42.7184
L30.4320 42.8999
" />
<path d="M30.4320 42.8999
L30.3110 43.0208
" />
<path d="M30.3110 43.0208
L30.1901 43.0813
" />
<path d="M32.0043 43.1418
L32.0043 43.9884
" />
<path d="M31.7019 42.6580
L31.3996 43.5651
" />
<path d="M31.3996 43.5651
L32.1857 43.5651
" />
<path d="M32.6695 43.5046
L33.6372 43.5046
" />
<path d="M34.9072 43.9884
L34.1815 43.9884
" />
<path d="M34.5443 43.9884
L34.5443 42.7184
" />
<path d="M34.5443 42.7184
L34.4234 42.8999
" />
<path d="M34.4234 42.8999
L34.3024 43.0208
" />
<path d="M34.3024 43.0208
L34.1815 43.0813
" />
<path d="M35.4514 43.3232
L35.8748 43.3232
" />
<path d="M36.0562 43.9884
L35.4514 43.9884
" />
<path d="M35.4514 43.9884
L35.4514 42.7184
" />
<path d="M35.4514 42.7184
L36.0562 42.7184
" />
<path d="M36.6004 43.9884
L36.6004 42.7184
" />
<path d="M36.6004 42.7184
L37.0842 42.7184
" />
<path d="M37.0842 42.7184
L37.2052 42.7789
" />
<path d="M37.2052 42.7789
L37.2657 42.8394
" />
<path d="M37.2657 42.8394
L37.3261 42.9603
" />
<path d="M37.3261 42.9603
L37.3261 43.1418
" />
<path d="M37.3261 43.1418
L37.2657 43.2627
" />
<path d="M37.2657 43.2627
L37.2052 43.3232
" />
<path d="M37.2052 43.3232
L37.0842 43.3837
" />
<path d="M37.0842 43.3837
L36.6004 43.3837
" />
<path d="M37.5681 44.1094
L38.5357 44.1094
" />
<path d="M38.7171 42.7184
L39.5033 42.7184
" />
<path d="M39.5033 42.7184
L39.0799 43.2022
" />
<path d="M39.0799 43.2022
L39.2614 43.2022
" />
<path d="M39.2614 43.2022
L39.3823 43.2627
" />
<path d="M39.3823 43.2627
L39.4428 43.3232
" />
<path d="M39.4428 43.3232
L39.5033 43.4441
" />
<path d="M39.5033 43.4441
L39.5033 43.7465
" />
<path d="M39.5033 43.7465
L39.4428 43.8675
" />
<path d="M39.4428 43.8675
L39.3823 43.9280
" />
<path d="M39.3823 43.9280
L39.2614 43.9884
" />
<path d="M39.2614 43.9884
L38.8985 43.9884
" />
<path d="M38.8985 43.9884
L38.7776 43.9280
" />
<path d="M38.7776 43.9280
L38.7171 43.8675
" />
<path d="M39.9266 43.9884
L40.5918 43.1418
" />
<path d="M39.9266 43.1418
L40.5918 43.9884
" />
<path d="M41.6199 43.1418
L41.6199 43.9884
" />
<path d="M41.3175 42.6580
L41.0152 43.5651
" />
<path d="M41.0152 43.5651
L41.8013 43.5651
" />
<path d="M42.2851 43.8675
L42.3456 43.9280
" />
<path d="M42.3456 43.9280
L42.2851 43.9884
" />
<path d="M42.2851 43.9884
L42.2247 43.9280
" />
<path d="M42.2247 43.9280
L42.2851 43.8675
" />
<path d="M42.2851 43.8675
L42.2851 43.9884
" />
<path d="M43.4947 42.7184
L42.8899 42.7184
" />
<path d="M42.8899 42.7184
L42.8295 43.3232
" />
<path d="M42.8295 43.3232
L42.8899 43.2627
" />
<path d="M42.8899 43.2627
L43.0109 43.2022
" />
<path d="M43.0109 43.2022
L43.3133 43.2022
" />
<path d="M43.3133 43.2022
L43.4342 43.2627
" />
<path d="M43.4342 43.2627
L43.4947 43.3232
" />
<path d="M43.4947 43.3232
L43.5552 43.4441
" />
<path d="M43.5552 43.4441
L43.5552 43.7465
" />
<path d="M43.5552 43.7465
L43.4947 43.8675
" />
<path d="M43.4947 43.8675
L43.4342 43.9280
" />
<path d="M43.4342 43.9280
L43.3133 43.9884
" />
<path d="M43.3133 43.9884
L43.0109 43.9884
" />
<path d="M43.0109 43.9884
L42.8899 43.9280
" />
<path d="M42.8899 43.9280
L42.8295 43.8675
" />
<path d="M44.0994 43.9884
L44.0994 43.1418
" />
<path d="M44.0994 43.2627
L44.1599 43.2022
" />
<path d="M44.1599 43.2022
L44.2809 43.1418
" />
<path d="M44.2809 43.1418
L44.4623 43.1418
" />
<path d="M44.4623 43.1418
L44.5832 43.2022
" />
<path d="M44.5832 43.2022
L44.6437 43.3232
" />
<path d="M44.6437 43.3232
L44.6437 43.9884
" />
<path d="M44.6437 43.3232
L44.7042 43.2022
" />
<path d="M44.7042 43.2022
L44.8251 43.1418
" />
<path d="M44.8251 43.1418
L45.0066 43.1418
" />
<path d="M45.0066 43.1418
L45.1275 43.2022
" />
<path d="M45.1275 43.2022
L45.1880 43.3232
" />
<path d="M45.1880 43.3232
L45.1880 43.9884
" />
<path d="M45.7927 43.9884
L45.7927 43.1418
" />
<path d="M45.7927 43.2627
L45.8532 43.2022
" />
<path d="M45.8532 43.2022
L45.9742 43.1418
" />
<path d="M45.9742 43.1418
L46.1556 43.1418
" />
<path d="M46.1556 43.1418
L46.2765 43.2022
" />
<path d="M46.2765 43.2022
L46.3370 43.3232
" />
<path d="M46.3370 43.3232
L46.3370 43.9884
" />
<path d="M46.3370 43.3232
L46.3975 43.2022
" />
<path d="M46.3975 43.2022
L46.5184 43.1418
" />
<path d="M46.5184 43.1418
L46.6999 43.1418
" />
<path d="M46.6999 43.1418
L46.8208 43.2022
" />
<path d="M46.8208 43.2022
L46.8813 43.3232
" />
<path d="M46.8813 43.3232
L46.8813 43.9884
" />
<path d="M47.1837 44.1094
L48.1513 44.1094
" />
<path d="M48.4536 43.9884
L48.4536 42.7184
" />
<path d="M48.4536 42.7184
L48.9374 42.7184
" />
<path d="M48.9374 42.7184
L49.0584 42.7789
" />
<path d="M49.0584 42.7789
L49.1189 42.8394
" />
<path d="M49.1189 42.8394
L49.1793 42.9603
" />
<path d="M49.1793 42.9603
L49.1793 43.1418
" />
<path d="M49.1793 43.1418
L49.1189 43.2627
" />
<path d="M49.1189 43.2627
L49.0584 43.3232
" />
<path d="M49.0584 43.3232
L48.9374 43.3837
" />
<path d="M48.9374 43.3837
L48.4536 43.3837
" />
<path d="M49.9655 42.7184
L50.0865 42.7184
" />
<path d="M50.0865 42.7184
L50.2074 42.7789
" />
<path d="M50.2074 42.7789
L50.2679 42.8394
" />
<path d="M50.2679 42.8394
L50.3284 42.9603
" />
<path d="M50.3284 42.9603
L50.3889 43.2022
" />
<path d="M50.3889 43.2022
L50.3889 43.5046
" />
<path d="M50.3889 43.5046
L50.3284 43.7465
" />
<path d="M50.3284 43.7465
L50.2679 43.8675
" />
<path d="M50.2679 43.8675
L50.2074 43.9280
" />
<path d="M50.2074 43.9280
L50.0865 43.9884
" />
<path d="M50.0865 43.9884
L49.9655 43.9884
" />
<path d="M49.9655 43.9884
L49.8446 43.9280
" />
<path d="M49.8446 43.9280
L49.7841 43.8675
" />
<path d="M49.7841 43.8675
L49.7236 43.7465
" />
<path d="M49.7236 43.7465
L49.6632 43.5046
" />
<path d="M49.6632 43.5046
L49.6632 43.2022
" />
<path d="M49.6632 43.2022
L49.7236 42.9603
" />
<path d="M49.7236 42.9603
L49.7841 42.8394
" />
<path d="M49.7841 42.8394
L49.8446 42.7789
" />
<path d="M49.8446 42.7789
L49.9655 42.7184
" />
<path d="M50.9331 43.8675
L50.9936 43.9280
" />
<path d="M50.9936 43.9280
L50.9331 43.9884
" />
<path d="M50.9331 43.9884
L50.8727 43.9280
" />
<path d="M50.8727 43.9280
L50.9331 43.8675
" />
<path d="M50.9331 43.8675
L50.9331 43.9884
" />
<path d="M52.0822 42.7184
L51.8403 42.7184
" />
<path d="M51.8403 42.7184
L51.7194 42.7789
" />
<path d="M51.7194 42.7789
L51.6589 42.8394
" />
<path d="M51.6589 42.8394
L51.5379 43.0208
" />
<path d="M51.5379 43.0208
L51.4775 43.2627
" />
<path d="M51.4775 43.2627
L51.4775 43.7465
" />
<path d="M51.4775 43.7465
L51.5379 43.8675
" />
<path d="M51.5379 43.8675
L51.5984 43.9280
" />
<path d="M51.5984 43.9280
L51.7194 43.9884
" />
<path d="M51.7194 43.9884
L51.9613 43.9884
" />
<path d="M51.9613 43.9884
L52.0822 43.9280
" />
<path d="M52.0822 43.9280
L52.1427 43.8675
" />
<path d="M52.1427 43.8675
L52.2032 43.7465
" />
<path d="M52.2032 43.7465
L52.2032 43.4441
" />
<path d="M52.2032 43.4441
L52.1427 43.3232
" />
<path d="M52.1427 43.3232
L52.0822 43.2627
" />
<path d="M52.0822 43.2627
L51.9613 43.2022
" />
<path d="M51.9613 43.2022
L51.7194 43.2022
" />
<path d="M51.7194 43.2022
L51.5984 43.2627
" />
<path d="M51.5984 43.2627
L51.5379 43.3232
" />
<path d="M51.5379 43.3232
L51.4775 43.4441
" />
<path d="M53.3522 42.7184
L52.7474 42.7184
" />
<path d="M52.7474 42.7184
L52.6870 43.3232
" />
<path d="M52.6870 43.3232
L52.7474 43.2627
" />
<path d="M52.7474 43.2627
L52.8684 43.2022
" />
<path d="M52.8684 43.2022
L53.1708 43.2022
" />
<path d="M53.1708 43.2022
L53.2917 43.2627
" />
<path d="M53.2917 43.2627
L53.3522 43.3232
" />
<path d="M53.3522 43.3232
L53.4127 43.4441
" />
<path d="M53.4127 43.4441
L53.4127 43.7465
" />
<path d="M53.4127 43.7465
L53.3522 43.8675
" />
<path d="M53.3522 43.8675
L53.2917 43.9280
" />
<path d="M53.2917 43.9280
L53.1708 43.9884
" />
<path d="M53.1708 43.9884
L52.8684 43.9884
" />
<path d="M52.8684 43.9884
L52.7474 43.9280
" />
<path d="M52.7474 43.9280
L52.6870 43.8675
" />
<path d="M53.9569 43.9884
L53.9569 43.1418
" />
<path d="M53.9569 43.2627
L54.0174 43.2022
" />
<path d="M54.0174 43.2022
L54.1384 43.1418
" />
<path d="M54.1384 43.1418
L54.3198 43.1418
" />
<path d="M54.3198 43.1418
L54.4407 43.2022
" />
<path d="M54.4407 43.2022
L54.5012 43.3232
" />
<path d="M54.5012 43.3232
L54.5012 43.9884
" />
<path d="M54.5012 43.3232
L54.5617 43.2022
" />
<path d="M54.5617 43.2022
L54.6826 43.1418
" />
<path d="M54.6826 43.1418
L54.8641 43.1418
" />
<path d="M54.8641 43.1418
L54.9850 43.2022
" />
<path d="M54.9850 43.2022
L55.0455 43.3232
" />
<path d="M55.0455 43.3232
L55.0455 43.9884
" />
<path d="M55.6502 43.9884
L55.6502 43.1418
" />
<path d="M55.6502 43.2627
L55.7107 43.2022
" />
<path d="M55.7107 43.2022
L55.8317 43.1418
" />
<path d="M55.8317 43.1418
L56.0131 43.1418
" />
<path d="M56.0131 43.1418
L56.1340 43.2022
" />
<path d="M56.1340 43.2022
L56.1945 43.3232
" />
<path d="M56.1945 43.3232
L56.1945 43.9884
" />
<path d="M56.1945 43.3232
L56.2550 43.2022
" />
<path d="M56.2550 43.2022
L56.3759 43.1418
" />
<path d="M56.3759 43.1418
L56.5574 43.1418
" />
<path d="M56.5574 43.1418
L56.6783 43.2022
" />
<path d="M56.6783 43.2022
L56.7388 43.3232
" />
<path d="M56.7388 43.3232
L56.7388 43.9884
" />
<path d="M57.0412 44.1094
L58.0088 44.1094
" />
<path d="M58.3111 43.3232
L58.7345 43.3232
" />
<path d="M58.9159 43.9884
L58.3111 43.9884
" />
<path d="M58.3111 43.9884
L58.3111 42.7184
" />
<path d="M58.3111 42.7184
L58.9159 42.7184
" />
<path d="M59.4601 43.9884
L59.4601 42.7184
" />
<path d="M59.4601 42.7184
L59.9439 42.7184
" />
<path d="M59.9439 42.7184
L60.0649 42.7789
" />
<path d="M60.0649 42.7789
L60.1254 42.8394
" />
<path d="M60.1254 42.8394
L60.1858 42.9603
" />
<path d="M60.1858 42.9603
L60.1858 43.1418
" />
<path d="M60.1858 43.1418
L60.1254 43.2627
" />
<path d="M60.1254 43.2627
L60.0649 43.3232
" />
<path d="M60.0649 43.3232
L59.9439 43.3837
" />
<path d="M59.9439 43.3837
L59.4601 43.3837
" />
<path d="M61.3954 43.9884
L60.6697 43.9884
" />
<path d="M61.0325 43.9884
L61.0325 42.7184
" />
<path d="M61.0325 42.7184
L60.9116 42.8999
" />
<path d="M60.9116 42.8999
L60.7906 43.0208
" />
<path d="M60.7906 43.0208
L60.6697 43.0813
" />
<path d="M61.9396 43.8675
L62.0001 43.9280
" />
<path d="M62.0001 43.9280
L61.9396 43.9884
" />
<path d="M61.9396 43.9884
L61.8792 43.9280
" />
<path d="M61.8792 43.9280
L61.9396 43.8675
" />
<path d="M61.9396 43.8675
L61.9396 43.9884
" />
<path d="M63.0887 42.7184
L62.8468 42.7184
" />
<path d="M62.8468 42.7184
L62.7259 42.7789
" />
<path d="M62.7259 42.7789
L62.6654 42.8394
" />
<path d="M62.6654 42.8394
L62.5444 43.0208
" />
<path d="M62.5444 43.0208
L62.4840 43.2627
" />
<path d="M62.4840 43.2627
L62.4840 43.7465
" />
<path d="M62.4840 43.7465
L62.5444 43.8675
" />
<path d="M62.5444 43.8675
L62.6049 43.9280
" />
<path d="M62.6049 43.9280
L62.7259 43.9884
" />
<path d="M62.7259 43.9884
L62.9678 43.9884
" />
<path d="M62.9678 43.9884
L63.0887 43.9280
" />
<path d="M63.0887 43.9280
L63.1492 43.8675
" />
<path d="M63.1492 43.8675
L63.2097 43.7465
" />
<path d="M63.2097 43.7465
L63.2097 43.4441
" />
<path d="M63.2097 43.4441
L63.1492 43.3232
" />
<path d="M63.1492 43.3232
L63.0887 43.2627
" />
<path d="M63.0887 43.2627
L62.9678 43.2022
" />
<path d="M62.9678 43.2022
L62.7259 43.2022
" />
<path d="M62.7259 43.2022
L62.6049 43.2627
" />
<path d="M62.6049 43.2627
L62.5444 43.3232
" />
<path d="M62.5444 43.3232
L62.4840 43.4441
" />
<path d="M64.3587 42.7184
L63.7539 42.7184
" />
<path d="M63.7539 42.7184
L63.6935 43.3232
" />
<path d="M63.6935 43.3232
L63.7539 43.2627
" />
<path d="M63.7539 43.2627
L63.8749 43.2022
" />
<path d="M63.8749 43.2022
L64.1773 43.2022
" />
<path d="M64.1773 43.2022
L64.2982 43.2627
" />
<path d="M64.2982 43.2627
L64.3587 43.3232
" />
<path d="M64.3587 43.3232
L64.4192 43.4441
" />
<path d="M64.4192 43.4441
L64.4192 43.7465
" />
<path d="M64.4192 43.7465
L64.3587 43.8675
" />
<path d="M64.3587 43.8675
L64.2982 43.9280
" />
<path d="M64.2982 43.9280
L64.1773 43.9884
" />
<path d="M64.1773 43.9884
L63.8749 43.9884
" />
<path d="M63.8749 43.9884
L63.7539 43.9280
" />
<path d="M63.7539 43.9280
L63.6935 43.8675
" />
<path d="M64.8425 43.9884
L65.5077 43.1418
" />
<path d="M64.8425 43.1418
L65.5077 43.9884
" />
<path d="M66.5358 43.1418
L66.5358 43.9884
" />
<path d="M66.2334 42.6580
L65.9311 43.5651
" />
<path d="M65.9311 43.5651
L66.7172 43.5651
" />
<path d="M67.2010 43.8675
L67.2615 43.9280
" />
<path d="M67.2615 43.9280
L67.2010 43.9884
" />
<path d="M67.2010 43.9884
L67.1406 43.9280
" />
<path d="M67.1406 43.9280
L67.2010 43.8675
" />
<path d="M67.2010 43.8675
L67.2010 43.9884
" />
<path d="M67.7454 42.8394
L67.8058 42.7789
" />
<path d="M67.8058 42.7789
L67.9268 42.7184
" />
<path d="M67.9268 42.7184
L68.2292 42.7184
" />
<path d="M68.2292 42.7184
L68.3501 42.7789
" />
<path d="M68.3501 42.7789
L68.4106 42.8394
" />
<path d="M68.4106 42.8394
L68.4711 42.9603
" />
<path d="M68.4711 42.9603
L68.4711 43.0813
" />
<path d="M68.4711 43.0813
L68.4106 43.2627
" />
<path d="M68.4106 43.2627
L67.6849 43.9884
" />
<path d="M67.6849 43.9884
L68.4711 43.9884
" />
<path d="M69.6201 42.7184
L69.0153 42.7184
" />
<path d="M69.0153 42.7184
L68.9549 43.3232
" />
<path d="M68.9549 43.3232
L69.0153 43.2627
" />
<path d="M69.0153 43.2627
L69.1363 43.2022
" />
<path d="M69.1363 43.2022
L69.4387 43.2022
" />
<path d="M69.4387 43.2022
L69.5596 43.2627
" />
<path d="M69.5596 43.2627
L69.6201 43.3232
" />
<path d="M69.6201 43.3232
L69.6806 43.4441
" />
<path d="M69.6806 43.4441
L69.6806 43.7465
" />
<path d="M69.6806 43.7465
L69.6201 43.8675
" />
<path d="M69.6201 43.8675
L69.5596 43.9280
" />
<path d="M69.5596 43.9280
L69.4387 43.9884
" />
<path d="M69.4387 43.9884
L69.1363 43.9884
" />
<path d="M69.1363 43.9884
L69.0153 43.9280
" />
<path d="M69.0153 43.9280
L68.9549 43.8675
" />
<path d="M70.2248 43.9884
L70.2248 43.1418
" />
<path d="M70.2248 43.2627
L70.2853 43.2022
" />
<path d="M70.2853 43.2022
L70.4063 43.1418
" />
<path d="M70.4063 43.1418
L70.5877 43.1418
" />
<path d="M70.5877 43.1418
L70.7086 43.2022
" />
<path d="M70.7086 43.2022
L70.7691 43.3232
" />
<path d="M70.7691 43.3232
L70.7691 43.9884
" />
<path d="M70.7691 43.3232
L70.8296 43.2022
" />
<path d="M70.8296 43.2022
L70.9505 43.1418
" />
<path d="M70.9505 43.1418
L71.1320 43.1418
" />
<path d="M71.1320 43.1418
L71.2529 43.2022
" />
<path d="M71.2529 43.2022
L71.3134 43.3232
" />
<path d="M71.3134 43.3232
L71.3134 43.9884
" />
<path d="M71.9181 43.9884
L71.9181 43.1418
" />
<path d="M71.9181 43.2627
L71.9786 43.2022
" />
<path d="M71.9786 43.2022
L72.0996 43.1418
" />
<path d="M72.0996 43.1418
L72.2810 43.1418
" />
<path d="M72.2810 43.1418
L72.4019 43.2022
" />
<path d="M72.4019 43.2022
L72.4624 43.3232
" />
<path d="M72.4624 43.3232
L72.4624 43.9884
" />
<path d="M72.4624 43.3232
L72.5229 43.2022
" />
<path d="M72.5229 43.2022
L72.6438 43.1418
" />
<path d="M72.6438 43.1418
L72.8253 43.1418
" />
<path d="M72.8253 43.1418
L72.9462 43.2022
" />
<path d="M72.9462 43.2022
L73.0067 43.3232
" />
<path d="M73.0067 43.3232
L73.0067 43.9884
" />
</g><text x="40.0474" y="24.9942"
textLength="55.0135" font-size="1.6933" lengthAdjust="spacingAndGlyphs"
text-anchor="middle" opacity="0">https://www.nxp.com/docs/en/data-sheet/TJA1043.pdf</text>
<g class="stroked-text"><desc>https://www.nxp.com/docs/en/data-sheet/TJA1043.pdf</desc>
<path d="M12.9542 24.9384
L12.9542 23.6684
" />
<path d="M13.4985 24.9384
L13.4985 24.2732
" />
<path d="M13.4985 24.2732
L13.4380 24.1522
" />
<path d="M13.4380 24.1522
L13.3171 24.0918
" />
<path d="M13.3171 24.0918
L13.1357 24.0918
" />
<path d="M13.1357 24.0918
L13.0147 24.1522
" />
<path d="M13.0147 24.1522
L12.9542 24.2127
" />
<path d="M13.9218 24.0918
L14.4056 24.0918
" />
<path d="M14.1032 23.6684
L14.1032 24.7570
" />
<path d="M14.1032 24.7570
L14.1637 24.8780
" />
<path d="M14.1637 24.8780
L14.2847 24.9384
" />
<path d="M14.2847 24.9384
L14.4056 24.9384
" />
<path d="M14.6475 24.0918
L15.1313 24.0918
" />
<path d="M14.8289 23.6684
L14.8289 24.7570
" />
<path d="M14.8289 24.7570
L14.8894 24.8780
" />
<path d="M14.8894 24.8780
L15.0104 24.9384
" />
<path d="M15.0104 24.9384
L15.1313 24.9384
" />
<path d="M15.5546 24.0918
L15.5546 25.3618
" />
<path d="M15.5546 24.1522
L15.6756 24.0918
" />
<path d="M15.6756 24.0918
L15.9175 24.0918
" />
<path d="M15.9175 24.0918
L16.0384 24.1522
" />
<path d="M16.0384 24.1522
L16.0989 24.2127
" />
<path d="M16.0989 24.2127
L16.1594 24.3337
" />
<path d="M16.1594 24.3337
L16.1594 24.6965
" />
<path d="M16.1594 24.6965
L16.0989 24.8175
" />
<path d="M16.0989 24.8175
L16.0384 24.8780
" />
<path d="M16.0384 24.8780
L15.9175 24.9384
" />
<path d="M15.9175 24.9384
L15.6756 24.9384
" />
<path d="M15.6756 24.9384
L15.5546 24.8780
" />
<path d="M16.6432 24.8780
L16.7641 24.9384
" />
<path d="M16.7641 24.9384
L17.0060 24.9384
" />
<path d="M17.0060 24.9384
L17.1270 24.8780
" />
<path d="M17.1270 24.8780
L17.1874 24.7570
" />
<path d="M17.1874 24.7570
L17.1874 24.6965
" />
<path d="M17.1874 24.6965
L17.1270 24.5756
" />
<path d="M17.1270 24.5756
L17.0060 24.5151
" />
<path d="M17.0060 24.5151
L16.8246 24.5151
" />
<path d="M16.8246 24.5151
L16.7036 24.4546
" />
<path d="M16.7036 24.4546
L16.6432 24.3337
" />
<path d="M16.6432 24.3337
L16.6432 24.2732
" />
<path d="M16.6432 24.2732
L16.7036 24.1522
" />
<path d="M16.7036 24.1522
L16.8246 24.0918
" />
<path d="M16.8246 24.0918
L17.0060 24.0918
" />
<path d="M17.0060 24.0918
L17.1270 24.1522
" />
<path d="M17.7317 24.8175
L17.7922 24.8780
" />
<path d="M17.7922 24.8780
L17.7317 24.9384
" />
<path d="M17.7317 24.9384
L17.6713 24.8780
" />
<path d="M17.6713 24.8780
L17.7317 24.8175
" />
<path d="M17.7317 24.8175
L17.7317 24.9384
" />
<path d="M17.7317 24.1522
L17.7922 24.2127
" />
<path d="M17.7922 24.2127
L17.7317 24.2732
" />
<path d="M17.7317 24.2732
L17.6713 24.2127
" />
<path d="M17.6713 24.2127
L17.7317 24.1522
" />
<path d="M17.7317 24.1522
L17.7317 24.2732
" />
<path d="M19.2437 23.6080
L18.1551 25.2408
" />
<path d="M20.5742 23.6080
L19.4856 25.2408
" />
<path d="M20.8766 24.0918
L21.1185 24.9384
" />
<path d="M21.1185 24.9384
L21.3604 24.3337
" />
<path d="M21.3604 24.3337
L21.6023 24.9384
" />
<path d="M21.6023 24.9384
L21.8442 24.0918
" />
<path d="M22.2071 24.0918
L22.4490 24.9384
" />
<path d="M22.4490 24.9384
L22.6909 24.3337
" />
<path d="M22.6909 24.3337
L22.9328 24.9384
" />
<path d="M22.9328 24.9384
L23.1747 24.0918
" />
<path d="M23.5376 24.0918
L23.7795 24.9384
" />
<path d="M23.7795 24.9384
L24.0214 24.3337
" />
<path d="M24.0214 24.3337
L24.2633 24.9384
" />
<path d="M24.2633 24.9384
L24.5052 24.0918
" />
<path d="M24.9890 24.8175
L25.0495 24.8780
" />
<path d="M25.0495 24.8780
L24.9890 24.9384
" />
<path d="M24.9890 24.9384
L24.9286 24.8780
" />
<path d="M24.9286 24.8780
L24.9890 24.8175
" />
<path d="M24.9890 24.8175
L24.9890 24.9384
" />
<path d="M25.5938 24.0918
L25.5938 24.9384
" />
<path d="M25.5938 24.2127
L25.6543 24.1522
" />
<path d="M25.6543 24.1522
L25.7753 24.0918
" />
<path d="M25.7753 24.0918
L25.9567 24.0918
" />
<path d="M25.9567 24.0918
L26.0776 24.1522
" />
<path d="M26.0776 24.1522
L26.1381 24.2732
" />
<path d="M26.1381 24.2732
L26.1381 24.9384
" />
<path d="M26.6219 24.9384
L27.2871 24.0918
" />
<path d="M26.6219 24.0918
L27.2871 24.9384
" />
<path d="M27.7709 24.0918
L27.7709 25.3618
" />
<path d="M27.7709 24.1522
L27.8919 24.0918
" />
<path d="M27.8919 24.0918
L28.1338 24.0918
" />
<path d="M28.1338 24.0918
L28.2547 24.1522
" />
<path d="M28.2547 24.1522
L28.3152 24.2127
" />
<path d="M28.3152 24.2127
L28.3757 24.3337
" />
<path d="M28.3757 24.3337
L28.3757 24.6965
" />
<path d="M28.3757 24.6965
L28.3152 24.8175
" />
<path d="M28.3152 24.8175
L28.2547 24.8780
" />
<path d="M28.2547 24.8780
L28.1338 24.9384
" />
<path d="M28.1338 24.9384
L27.8919 24.9384
" />
<path d="M27.8919 24.9384
L27.7709 24.8780
" />
<path d="M28.9199 24.8175
L28.9804 24.8780
" />
<path d="M28.9804 24.8780
L28.9199 24.9384
" />
<path d="M28.9199 24.9384
L28.8595 24.8780
" />
<path d="M28.8595 24.8780
L28.9199 24.8175
" />
<path d="M28.9199 24.8175
L28.9199 24.9384
" />
<path d="M30.0690 24.8780
L29.9481 24.9384
" />
<path d="M29.9481 24.9384
L29.7062 24.9384
" />
<path d="M29.7062 24.9384
L29.5852 24.8780
" />
<path d="M29.5852 24.8780
L29.5247 24.8175
" />
<path d="M29.5247 24.8175
L29.4643 24.6965
" />
<path d="M29.4643 24.6965
L29.4643 24.3337
" />
<path d="M29.4643 24.3337
L29.5247 24.2127
" />
<path d="M29.5247 24.2127
L29.5852 24.1522
" />
<path d="M29.5852 24.1522
L29.7062 24.0918
" />
<path d="M29.7062 24.0918
L29.9481 24.0918
" />
<path d="M29.9481 24.0918
L30.0690 24.1522
" />
<path d="M30.7948 24.9384
L30.6738 24.8780
" />
<path d="M30.6738 24.8780
L30.6133 24.8175
" />
<path d="M30.6133 24.8175
L30.5529 24.6965
" />
<path d="M30.5529 24.6965
L30.5529 24.3337
" />
<path d="M30.5529 24.3337
L30.6133 24.2127
" />
<path d="M30.6133 24.2127
L30.6738 24.1522
" />
<path d="M30.6738 24.1522
L30.7948 24.0918
" />
<path d="M30.7948 24.0918
L30.9762 24.0918
" />
<path d="M30.9762 24.0918
L31.0971 24.1522
" />
<path d="M31.0971 24.1522
L31.1576 24.2127
" />
<path d="M31.1576 24.2127
L31.2181 24.3337
" />
<path d="M31.2181 24.3337
L31.2181 24.6965
" />
<path d="M31.2181 24.6965
L31.1576 24.8175
" />
<path d="M31.1576 24.8175
L31.0971 24.8780
" />
<path d="M31.0971 24.8780
L30.9762 24.9384
" />
<path d="M30.9762 24.9384
L30.7948 24.9384
" />
<path d="M31.7623 24.9384
L31.7623 24.0918
" />
<path d="M31.7623 24.2127
L31.8228 24.1522
" />
<path d="M31.8228 24.1522
L31.9438 24.0918
" />
<path d="M31.9438 24.0918
L32.1252 24.0918
" />
<path d="M32.1252 24.0918
L32.2461 24.1522
" />
<path d="M32.2461 24.1522
L32.3066 24.2732
" />
<path d="M32.3066 24.2732
L32.3066 24.9384
" />
<path d="M32.3066 24.2732
L32.3671 24.1522
" />
<path d="M32.3671 24.1522
L32.4880 24.0918
" />
<path d="M32.4880 24.0918
L32.6695 24.0918
" />
<path d="M32.6695 24.0918
L32.7904 24.1522
" />
<path d="M32.7904 24.1522
L32.8509 24.2732
" />
<path d="M32.8509 24.2732
L32.8509 24.9384
" />
<path d="M34.3628 23.6080
L33.2742 25.2408
" />
<path d="M35.3304 24.9384
L35.3304 23.6684
" />
<path d="M35.3304 24.8780
L35.2095 24.9384
" />
<path d="M35.2095 24.9384
L34.9676 24.9384
" />
<path d="M34.9676 24.9384
L34.8466 24.8780
" />
<path d="M34.8466 24.8780
L34.7861 24.8175
" />
<path d="M34.7861 24.8175
L34.7257 24.6965
" />
<path d="M34.7257 24.6965
L34.7257 24.3337
" />
<path d="M34.7257 24.3337
L34.7861 24.2127
" />
<path d="M34.7861 24.2127
L34.8466 24.1522
" />
<path d="M34.8466 24.1522
L34.9676 24.0918
" />
<path d="M34.9676 24.0918
L35.2095 24.0918
" />
<path d="M35.2095 24.0918
L35.3304 24.1522
" />
<path d="M36.1166 24.9384
L35.9956 24.8780
" />
<path d="M35.9956 24.8780
L35.9351 24.8175
" />
<path d="M35.9351 24.8175
L35.8747 24.6965
" />
<path d="M35.8747 24.6965
L35.8747 24.3337
" />
<path d="M35.8747 24.3337
L35.9351 24.2127
" />
<path d="M35.9351 24.2127
L35.9956 24.1522
" />
<path d="M35.9956 24.1522
L36.1166 24.0918
" />
<path d="M36.1166 24.0918
L36.2980 24.0918
" />
<path d="M36.2980 24.0918
L36.4189 24.1522
" />
<path d="M36.4189 24.1522
L36.4794 24.2127
" />
<path d="M36.4794 24.2127
L36.5399 24.3337
" />
<path d="M36.5399 24.3337
L36.5399 24.6965
" />
<path d="M36.5399 24.6965
L36.4794 24.8175
" />
<path d="M36.4794 24.8175
L36.4189 24.8780
" />
<path d="M36.4189 24.8780
L36.2980 24.9384
" />
<path d="M36.2980 24.9384
L36.1166 24.9384
" />
<path d="M37.6284 24.8780
L37.5075 24.9384
" />
<path d="M37.5075 24.9384
L37.2656 24.9384
" />
<path d="M37.2656 24.9384
L37.1446 24.8780
" />
<path d="M37.1446 24.8780
L37.0841 24.8175
" />
<path d="M37.0841 24.8175
L37.0237 24.6965
" />
<path d="M37.0237 24.6965
L37.0237 24.3337
" />
<path d="M37.0237 24.3337
L37.0841 24.2127
" />
<path d="M37.0841 24.2127
L37.1446 24.1522
" />
<path d="M37.1446 24.1522
L37.2656 24.0918
" />
<path d="M37.2656 24.0918
L37.5075 24.0918
" />
<path d="M37.5075 24.0918
L37.6284 24.1522
" />
<path d="M38.1123 24.8780
L38.2332 24.9384
" />
<path d="M38.2332 24.9384
L38.4751 24.9384
" />
<path d="M38.4751 24.9384
L38.5961 24.8780
" />
<path d="M38.5961 24.8780
L38.6565 24.7570
" />
<path d="M38.6565 24.7570
L38.6565 24.6965
" />
<path d="M38.6565 24.6965
L38.5961 24.5756
" />
<path d="M38.5961 24.5756
L38.4751 24.5151
" />
<path d="M38.4751 24.5151
L38.2937 24.5151
" />
<path d="M38.2937 24.5151
L38.1727 24.4546
" />
<path d="M38.1727 24.4546
L38.1123 24.3337
" />
<path d="M38.1123 24.3337
L38.1123 24.2732
" />
<path d="M38.1123 24.2732
L38.1727 24.1522
" />
<path d="M38.1727 24.1522
L38.2937 24.0918
" />
<path d="M38.2937 24.0918
L38.4751 24.0918
" />
<path d="M38.4751 24.0918
L38.5961 24.1522
" />
<path d="M40.1080 23.6080
L39.0194 25.2408
" />
<path d="M41.0151 24.8780
L40.8942 24.9384
" />
<path d="M40.8942 24.9384
L40.6523 24.9384
" />
<path d="M40.6523 24.9384
L40.5313 24.8780
" />
<path d="M40.5313 24.8780
L40.4709 24.7570
" />
<path d="M40.4709 24.7570
L40.4709 24.2732
" />
<path d="M40.4709 24.2732
L40.5313 24.1522
" />
<path d="M40.5313 24.1522
L40.6523 24.0918
" />
<path d="M40.6523 24.0918
L40.8942 24.0918
" />
<path d="M40.8942 24.0918
L41.0151 24.1522
" />
<path d="M41.0151 24.1522
L41.0756 24.2732
" />
<path d="M41.0756 24.2732
L41.0756 24.3941
" />
<path d="M41.0756 24.3941
L40.4709 24.5151
" />
<path d="M41.6199 24.0918
L41.6199 24.9384
" />
<path d="M41.6199 24.2127
L41.6804 24.1522
" />
<path d="M41.6804 24.1522
L41.8014 24.0918
" />
<path d="M41.8014 24.0918
L41.9828 24.0918
" />
<path d="M41.9828 24.0918
L42.1037 24.1522
" />
<path d="M42.1037 24.1522
L42.1642 24.2732
" />
<path d="M42.1642 24.2732
L42.1642 24.9384
" />
<path d="M43.6761 23.6080
L42.5875 25.2408
" />
<path d="M44.6437 24.9384
L44.6437 23.6684
" />
<path d="M44.6437 24.8780
L44.5228 24.9384
" />
<path d="M44.5228 24.9384
L44.2809 24.9384
" />
<path d="M44.2809 24.9384
L44.1599 24.8780
" />
<path d="M44.1599 24.8780
L44.0994 24.8175
" />
<path d="M44.0994 24.8175
L44.0390 24.6965
" />
<path d="M44.0390 24.6965
L44.0390 24.3337
" />
<path d="M44.0390 24.3337
L44.0994 24.2127
" />
<path d="M44.0994 24.2127
L44.1599 24.1522
" />
<path d="M44.1599 24.1522
L44.2809 24.0918
" />
<path d="M44.2809 24.0918
L44.5228 24.0918
" />
<path d="M44.5228 24.0918
L44.6437 24.1522
" />
<path d="M45.7927 24.9384
L45.7927 24.2732
" />
<path d="M45.7927 24.2732
L45.7322 24.1522
" />
<path d="M45.7322 24.1522
L45.6113 24.0918
" />
<path d="M45.6113 24.0918
L45.3694 24.0918
" />
<path d="M45.3694 24.0918
L45.2484 24.1522
" />
<path d="M45.7927 24.8780
L45.6718 24.9384
" />
<path d="M45.6718 24.9384
L45.3694 24.9384
" />
<path d="M45.3694 24.9384
L45.2484 24.8780
" />
<path d="M45.2484 24.8780
L45.1880 24.7570
" />
<path d="M45.1880 24.7570
L45.1880 24.6360
" />
<path d="M45.1880 24.6360
L45.2484 24.5151
" />
<path d="M45.2484 24.5151
L45.3694 24.4546
" />
<path d="M45.3694 24.4546
L45.6718 24.4546
" />
<path d="M45.6718 24.4546
L45.7927 24.3941
" />
<path d="M46.2160 24.0918
L46.6998 24.0918
" />
<path d="M46.3974 23.6684
L46.3974 24.7570
" />
<path d="M46.3974 24.7570
L46.4579 24.8780
" />
<path d="M46.4579 24.8780
L46.5789 24.9384
" />
<path d="M46.5789 24.9384
L46.6998 24.9384
" />
<path d="M47.6674 24.9384
L47.6674 24.2732
" />
<path d="M47.6674 24.2732
L47.6069 24.1522
" />
<path d="M47.6069 24.1522
L47.4860 24.0918
" />
<path d="M47.4860 24.0918
L47.2441 24.0918
" />
<path d="M47.2441 24.0918
L47.1231 24.1522
" />
<path d="M47.6674 24.8780
L47.5465 24.9384
" />
<path d="M47.5465 24.9384
L47.2441 24.9384
" />
<path d="M47.2441 24.9384
L47.1231 24.8780
" />
<path d="M47.1231 24.8780
L47.0627 24.7570
" />
<path d="M47.0627 24.7570
L47.0627 24.6360
" />
<path d="M47.0627 24.6360
L47.1231 24.5151
" />
<path d="M47.1231 24.5151
L47.2441 24.4546
" />
<path d="M47.2441 24.4546
L47.5465 24.4546
" />
<path d="M47.5465 24.4546
L47.6674 24.3941
" />
<path d="M48.2721 24.4546
L49.2398 24.4546
" />
<path d="M49.7841 24.8780
L49.9050 24.9384
" />
<path d="M49.9050 24.9384
L50.1469 24.9384
" />
<path d="M50.1469 24.9384
L50.2679 24.8780
" />
<path d="M50.2679 24.8780
L50.3283 24.7570
" />
<path d="M50.3283 24.7570
L50.3283 24.6965
" />
<path d="M50.3283 24.6965
L50.2679 24.5756
" />
<path d="M50.2679 24.5756
L50.1469 24.5151
" />
<path d="M50.1469 24.5151
L49.9655 24.5151
" />
<path d="M49.9655 24.5151
L49.8445 24.4546
" />
<path d="M49.8445 24.4546
L49.7841 24.3337
" />
<path d="M49.7841 24.3337
L49.7841 24.2732
" />
<path d="M49.7841 24.2732
L49.8445 24.1522
" />
<path d="M49.8445 24.1522
L49.9655 24.0918
" />
<path d="M49.9655 24.0918
L50.1469 24.0918
" />
<path d="M50.1469 24.0918
L50.2679 24.1522
" />
<path d="M50.8726 24.9384
L50.8726 23.6684
" />
<path d="M51.4169 24.9384
L51.4169 24.2732
" />
<path d="M51.4169 24.2732
L51.3564 24.1522
" />
<path d="M51.3564 24.1522
L51.2355 24.0918
" />
<path d="M51.2355 24.0918
L51.0541 24.0918
" />
<path d="M51.0541 24.0918
L50.9331 24.1522
" />
<path d="M50.9331 24.1522
L50.8726 24.2127
" />
<path d="M52.5054 24.8780
L52.3845 24.9384
" />
<path d="M52.3845 24.9384
L52.1426 24.9384
" />
<path d="M52.1426 24.9384
L52.0216 24.8780
" />
<path d="M52.0216 24.8780
L51.9612 24.7570
" />
<path d="M51.9612 24.7570
L51.9612 24.2732
" />
<path d="M51.9612 24.2732
L52.0216 24.1522
" />
<path d="M52.0216 24.1522
L52.1426 24.0918
" />
<path d="M52.1426 24.0918
L52.3845 24.0918
" />
<path d="M52.3845 24.0918
L52.5054 24.1522
" />
<path d="M52.5054 24.1522
L52.5659 24.2732
" />
<path d="M52.5659 24.2732
L52.5659 24.3941
" />
<path d="M52.5659 24.3941
L51.9612 24.5151
" />
<path d="M53.5940 24.8780
L53.4731 24.9384
" />
<path d="M53.4731 24.9384
L53.2312 24.9384
" />
<path d="M53.2312 24.9384
L53.1102 24.8780
" />
<path d="M53.1102 24.8780
L53.0498 24.7570
" />
<path d="M53.0498 24.7570
L53.0498 24.2732
" />
<path d="M53.0498 24.2732
L53.1102 24.1522
" />
<path d="M53.1102 24.1522
L53.2312 24.0918
" />
<path d="M53.2312 24.0918
L53.4731 24.0918
" />
<path d="M53.4731 24.0918
L53.5940 24.1522
" />
<path d="M53.5940 24.1522
L53.6545 24.2732
" />
<path d="M53.6545 24.2732
L53.6545 24.3941
" />
<path d="M53.6545 24.3941
L53.0498 24.5151
" />
<path d="M54.0174 24.0918
L54.5012 24.0918
" />
<path d="M54.1988 23.6684
L54.1988 24.7570
" />
<path d="M54.1988 24.7570
L54.2593 24.8780
" />
<path d="M54.2593 24.8780
L54.3803 24.9384
" />
<path d="M54.3803 24.9384
L54.5012 24.9384
" />
<path d="M55.8317 23.6080
L54.7431 25.2408
" />
<path d="M56.0736 23.6684
L56.7993 23.6684
" />
<path d="M56.4365 24.9384
L56.4365 23.6684
" />
<path d="M57.5855 23.6684
L57.5855 24.5756
" />
<path d="M57.5855 24.5756
L57.5250 24.7570
" />
<path d="M57.5250 24.7570
L57.4041 24.8780
" />
<path d="M57.4041 24.8780
L57.2226 24.9384
" />
<path d="M57.2226 24.9384
L57.1017 24.9384
" />
<path d="M58.1298 24.5756
L58.7345 24.5756
" />
<path d="M58.0088 24.9384
L58.4321 23.6684
" />
<path d="M58.4321 23.6684
L58.8555 24.9384
" />
<path d="M59.9441 24.9384
L59.2184 24.9384
" />
<path d="M59.5812 24.9384
L59.5812 23.6684
" />
<path d="M59.5812 23.6684
L59.4603 23.8499
" />
<path d="M59.4603 23.8499
L59.3393 23.9708
" />
<path d="M59.3393 23.9708
L59.2184 24.0313
" />
<path d="M60.7302 23.6684
L60.8512 23.6684
" />
<path d="M60.8512 23.6684
L60.9721 23.7289
" />
<path d="M60.9721 23.7289
L61.0326 23.7894
" />
<path d="M61.0326 23.7894
L61.0931 23.9103
" />
<path d="M61.0931 23.9103
L61.1536 24.1522
" />
<path d="M61.1536 24.1522
L61.1536 24.4546
" />
<path d="M61.1536 24.4546
L61.0931 24.6965
" />
<path d="M61.0931 24.6965
L61.0326 24.8175
" />
<path d="M61.0326 24.8175
L60.9721 24.8780
" />
<path d="M60.9721 24.8780
L60.8512 24.9384
" />
<path d="M60.8512 24.9384
L60.7302 24.9384
" />
<path d="M60.7302 24.9384
L60.6093 24.8780
" />
<path d="M60.6093 24.8780
L60.5488 24.8175
" />
<path d="M60.5488 24.8175
L60.4883 24.6965
" />
<path d="M60.4883 24.6965
L60.4279 24.4546
" />
<path d="M60.4279 24.4546
L60.4279 24.1522
" />
<path d="M60.4279 24.1522
L60.4883 23.9103
" />
<path d="M60.4883 23.9103
L60.5488 23.7894
" />
<path d="M60.5488 23.7894
L60.6093 23.7289
" />
<path d="M60.6093 23.7289
L60.7302 23.6684
" />
<path d="M62.2421 24.0918
L62.2421 24.9384
" />
<path d="M61.9397 23.6080
L61.6374 24.5151
" />
<path d="M61.6374 24.5151
L62.4235 24.5151
" />
<path d="M62.7864 23.6684
L63.5726 23.6684
" />
<path d="M63.5726 23.6684
L63.1492 24.1522
" />
<path d="M63.1492 24.1522
L63.3307 24.1522
" />
<path d="M63.3307 24.1522
L63.4516 24.2127
" />
<path d="M63.4516 24.2127
L63.5121 24.2732
" />
<path d="M63.5121 24.2732
L63.5726 24.3941
" />
<path d="M63.5726 24.3941
L63.5726 24.6965
" />
<path d="M63.5726 24.6965
L63.5121 24.8175
" />
<path d="M63.5121 24.8175
L63.4516 24.8780
" />
<path d="M63.4516 24.8780
L63.3307 24.9384
" />
<path d="M63.3307 24.9384
L62.9678 24.9384
" />
<path d="M62.9678 24.9384
L62.8469 24.8780
" />
<path d="M62.8469 24.8780
L62.7864 24.8175
" />
<path d="M64.1168 24.8175
L64.1773 24.8780
" />
<path d="M64.1773 24.8780
L64.1168 24.9384
" />
<path d="M64.1168 24.9384
L64.0564 24.8780
" />
<path d="M64.0564 24.8780
L64.1168 24.8175
" />
<path d="M64.1168 24.8175
L64.1168 24.9384
" />
<path d="M64.7216 24.0918
L64.7216 25.3618
" />
<path d="M64.7216 24.1522
L64.8426 24.0918
" />
<path d="M64.8426 24.0918
L65.0845 24.0918
" />
<path d="M65.0845 24.0918
L65.2054 24.1522
" />
<path d="M65.2054 24.1522
L65.2659 24.2127
" />
<path d="M65.2659 24.2127
L65.3264 24.3337
" />
<path d="M65.3264 24.3337
L65.3264 24.6965
" />
<path d="M65.3264 24.6965
L65.2659 24.8175
" />
<path d="M65.2659 24.8175
L65.2054 24.8780
" />
<path d="M65.2054 24.8780
L65.0845 24.9384
" />
<path d="M65.0845 24.9384
L64.8426 24.9384
" />
<path d="M64.8426 24.9384
L64.7216 24.8780
" />
<path d="M66.4149 24.9384
L66.4149 23.6684
" />
<path d="M66.4149 24.8780
L66.2940 24.9384
" />
<path d="M66.2940 24.9384
L66.0521 24.9384
" />
<path d="M66.0521 24.9384
L65.9311 24.8780
" />
<path d="M65.9311 24.8780
L65.8706 24.8175
" />
<path d="M65.8706 24.8175
L65.8102 24.6965
" />
<path d="M65.8102 24.6965
L65.8102 24.3337
" />
<path d="M65.8102 24.3337
L65.8706 24.2127
" />
<path d="M65.8706 24.2127
L65.9311 24.1522
" />
<path d="M65.9311 24.1522
L66.0521 24.0918
" />
<path d="M66.0521 24.0918
L66.2940 24.0918
" />
<path d="M66.2940 24.0918
L66.4149 24.1522
" />
<path d="M66.8382 24.0918
L67.3220 24.0918
" />
<path d="M67.0196 24.9384
L67.0196 23.8499
" />
<path d="M67.0196 23.8499
L67.0801 23.7289
" />
<path d="M67.0801 23.7289
L67.2011 23.6684
" />
<path d="M67.2011 23.6684
L67.3220 23.6684
" />
</g></g> 
</svg>
