<?xml version="1.0" standalone="no"?>
 <!DOCTYPE svg PUBLIC "-//W3C//DTD SVG 1.1//EN" 
 "http://www.w3.org/Graphics/SVG/1.1/DTD/svg11.dtd"> 
<svg
  xmlns:svg="http://www.w3.org/2000/svg"
  xmlns="http://www.w3.org/2000/svg"
  xmlns:xlink="http://www.w3.org/1999/xlink"
  version="1.1"
  width="32.2326mm" height="79.9338mm" viewBox="0.0000 0.0000 32.2326 79.9338">
<title>SVG Image created as working.svg date 2023/08/02 09:39:01 </title>
  <desc>Image generated by Eeschema-SVG </desc>
<g style="fill:#000000; fill-opacity:1.0000;stroke:#000000; stroke-opacity:1.0000;
stroke-linecap:round; stroke-linejoin:round;"
 transform="translate(0 0) scale(1 1)">
</g>
<g style="fill:#840000; fill-opacity:0.0; 
stroke:#840000; stroke-width:0.0000; stroke-opacity:1; 
stroke-linecap:round; stroke-linejoin:round;">
</g>
<g style="fill:#FFFFC2; fill-opacity:0.0; 
stroke:#FFFFC2; stroke-width:0.0000; stroke-opacity:1; 
stroke-linecap:round; stroke-linejoin:round;">
</g>
<g style="fill:#FFFFC2; fill-opacity:1.0000; 
stroke:#FFFFC2; stroke-width:0.0000; stroke-opacity:1; 
stroke-linecap:round; stroke-linejoin:round;">
<rect x="6.750200" y="8.765400" width="2.032000" height="60.452000" rx="0.000000" />
</g>
<g style="fill:#840084; fill-opacity:1.0000; 
stroke:#840084; stroke-width:0.0000; stroke-opacity:1; 
stroke-linecap:round; stroke-linejoin:round;">
</g>
<g style="fill:#840000; fill-opacity:1.0000; 
stroke:#840000; stroke-width:0.0000; stroke-opacity:1; 
stroke-linecap:round; stroke-linejoin:round;">
</g>
<g style="fill:#840000; fill-opacity:0.0; 
stroke:#840000; stroke-width:0.1524; stroke-opacity:1; 
stroke-linecap:round; stroke-linejoin:round;">
<rect x="6.496200" y="8.511400" width="2.540000" height="60.960000" rx="0.000000" />
<rect x="6.750200" y="68.074400" width="1.270000" height="0.254000" rx="0.000000" />
<rect x="6.750200" y="65.534400" width="1.270000" height="0.254000" rx="0.000000" />
<rect x="6.750200" y="62.994400" width="1.270000" height="0.254000" rx="0.000000" />
<rect x="6.750200" y="60.454400" width="1.270000" height="0.254000" rx="0.000000" />
<rect x="6.750200" y="57.914400" width="1.270000" height="0.254000" rx="0.000000" />
<rect x="6.750200" y="55.374400" width="1.270000" height="0.254000" rx="0.000000" />
<rect x="6.750200" y="52.834400" width="1.270000" height="0.254000" rx="0.000000" />
<rect x="6.750200" y="50.294400" width="1.270000" height="0.254000" rx="0.000000" />
<rect x="6.750200" y="47.754400" width="1.270000" height="0.254000" rx="0.000000" />
<rect x="6.750200" y="45.214400" width="1.270000" height="0.254000" rx="0.000000" />
<rect x="6.750200" y="42.674400" width="1.270000" height="0.254000" rx="0.000000" />
<rect x="6.750200" y="40.134400" width="1.270000" height="0.254000" rx="0.000000" />
<rect x="6.750200" y="37.594400" width="1.270000" height="0.254000" rx="0.000000" />
<rect x="6.750200" y="35.054400" width="1.270000" height="0.254000" rx="0.000000" />
<rect x="6.750200" y="32.514400" width="1.270000" height="0.254000" rx="0.000000" />
<rect x="6.750200" y="29.974400" width="1.270000" height="0.254000" rx="0.000000" />
<rect x="6.750200" y="27.434400" width="1.270000" height="0.254000" rx="0.000000" />
<rect x="6.750200" y="24.894400" width="1.270000" height="0.254000" rx="0.000000" />
<rect x="6.750200" y="22.354400" width="1.270000" height="0.254000" rx="0.000000" />
<rect x="6.750200" y="19.814400" width="1.270000" height="0.254000" rx="0.000000" />
<rect x="6.750200" y="17.274400" width="1.270000" height="0.254000" rx="0.000000" />
<rect x="6.750200" y="14.734400" width="1.270000" height="0.254000" rx="0.000000" />
<rect x="6.750200" y="12.194400" width="1.270000" height="0.254000" rx="0.000000" />
<rect x="6.750200" y="9.654400" width="1.270000" height="0.254000" rx="0.000000" />
</g>
<g style="fill:#840000; fill-opacity:0.0; 
stroke:#840000; stroke-width:0.2540; stroke-opacity:1; 
stroke-linecap:round; stroke-linejoin:round;">
<rect x="6.750200" y="8.765400" width="2.032000" height="60.452000" rx="0.000000" />
</g>
<g style="fill:#840000; fill-opacity:0.0; 
stroke:#840000; stroke-width:0.1524; stroke-opacity:1; 
stroke-linecap:round; stroke-linejoin:round;">
<path d="M6.7502 9.7814
L2.6862 9.7814
" />
</g>
<g style="fill:#A90000; fill-opacity:0.0; 
stroke:#A90000; stroke-width:0.1524; stroke-opacity:1; 
stroke-linecap:round; stroke-linejoin:round;">
<text x="4.7182" y="9.5274"
textLength="1.3365" font-size="1.6933" lengthAdjust="spacingAndGlyphs"
text-anchor="middle" opacity="0">1</text>
<g class="stroked-text"><desc>1</desc>
<path d="M5.0811 9.3719
L4.3554 9.3719
" />
<path d="M4.7182 9.3719
L4.7182 8.1019
" />
<path d="M4.7182 8.1019
L4.5973 8.2834
" />
<path d="M4.5973 8.2834
L4.4763 8.4043
" />
<path d="M4.4763 8.4043
L4.3554 8.4648
" />
</g></g>
<g style="fill:#840000; fill-opacity:0.0; 
stroke:#840000; stroke-width:0.1524; stroke-opacity:1; 
stroke-linecap:round; stroke-linejoin:round;">
<path d="M6.7502 32.6414
L2.6862 32.6414
" />
</g>
<g style="fill:#A90000; fill-opacity:0.0; 
stroke:#A90000; stroke-width:0.1524; stroke-opacity:1; 
stroke-linecap:round; stroke-linejoin:round;">
<text x="4.7182" y="32.3874"
textLength="2.5460" font-size="1.6933" lengthAdjust="spacingAndGlyphs"
text-anchor="middle" opacity="0">10</text>
<g class="stroked-text"><desc>10</desc>
<path d="M4.4763 32.2319
L3.7506 32.2319
" />
<path d="M4.1134 32.2319
L4.1134 30.9619
" />
<path d="M4.1134 30.9619
L3.9925 31.1434
" />
<path d="M3.9925 31.1434
L3.8715 31.2643
" />
<path d="M3.8715 31.2643
L3.7506 31.3248
" />
<path d="M5.2624 30.9619
L5.3834 30.9619
" />
<path d="M5.3834 30.9619
L5.5043 31.0224
" />
<path d="M5.5043 31.0224
L5.5648 31.0829
" />
<path d="M5.5648 31.0829
L5.6253 31.2038
" />
<path d="M5.6253 31.2038
L5.6858 31.4457
" />
<path d="M5.6858 31.4457
L5.6858 31.7481
" />
<path d="M5.6858 31.7481
L5.6253 31.9900
" />
<path d="M5.6253 31.9900
L5.5648 32.1110
" />
<path d="M5.5648 32.1110
L5.5043 32.1715
" />
<path d="M5.5043 32.1715
L5.3834 32.2319
" />
<path d="M5.3834 32.2319
L5.2624 32.2319
" />
<path d="M5.2624 32.2319
L5.1415 32.1715
" />
<path d="M5.1415 32.1715
L5.0810 32.1110
" />
<path d="M5.0810 32.1110
L5.0205 31.9900
" />
<path d="M5.0205 31.9900
L4.9601 31.7481
" />
<path d="M4.9601 31.7481
L4.9601 31.4457
" />
<path d="M4.9601 31.4457
L5.0205 31.2038
" />
<path d="M5.0205 31.2038
L5.0810 31.0829
" />
<path d="M5.0810 31.0829
L5.1415 31.0224
" />
<path d="M5.1415 31.0224
L5.2624 30.9619
" />
</g></g>
<g style="fill:#840000; fill-opacity:0.0; 
stroke:#840000; stroke-width:0.1524; stroke-opacity:1; 
stroke-linecap:round; stroke-linejoin:round;">
<path d="M6.7502 35.1814
L2.6862 35.1814
" />
</g>
<g style="fill:#A90000; fill-opacity:0.0; 
stroke:#A90000; stroke-width:0.1524; stroke-opacity:1; 
stroke-linecap:round; stroke-linejoin:round;">
<text x="4.7182" y="34.9274"
textLength="2.5460" font-size="1.6933" lengthAdjust="spacingAndGlyphs"
text-anchor="middle" opacity="0">11</text>
<g class="stroked-text"><desc>11</desc>
<path d="M4.4763 34.7719
L3.7506 34.7719
" />
<path d="M4.1134 34.7719
L4.1134 33.5019
" />
<path d="M4.1134 33.5019
L3.9925 33.6834
" />
<path d="M3.9925 33.6834
L3.8715 33.8043
" />
<path d="M3.8715 33.8043
L3.7506 33.8648
" />
<path d="M5.6858 34.7719
L4.9601 34.7719
" />
<path d="M5.3229 34.7719
L5.3229 33.5019
" />
<path d="M5.3229 33.5019
L5.2020 33.6834
" />
<path d="M5.2020 33.6834
L5.0810 33.8043
" />
<path d="M5.0810 33.8043
L4.9601 33.8648
" />
</g></g>
<g style="fill:#840000; fill-opacity:0.0; 
stroke:#840000; stroke-width:0.1524; stroke-opacity:1; 
stroke-linecap:round; stroke-linejoin:round;">
<path d="M6.7502 37.7214
L2.6862 37.7214
" />
</g>
<g style="fill:#A90000; fill-opacity:0.0; 
stroke:#A90000; stroke-width:0.1524; stroke-opacity:1; 
stroke-linecap:round; stroke-linejoin:round;">
<text x="4.7182" y="37.4674"
textLength="2.5460" font-size="1.6933" lengthAdjust="spacingAndGlyphs"
text-anchor="middle" opacity="0">12</text>
<g class="stroked-text"><desc>12</desc>
<path d="M4.4763 37.3119
L3.7506 37.3119
" />
<path d="M4.1134 37.3119
L4.1134 36.0419
" />
<path d="M4.1134 36.0419
L3.9925 36.2234
" />
<path d="M3.9925 36.2234
L3.8715 36.3443
" />
<path d="M3.8715 36.3443
L3.7506 36.4048
" />
<path d="M4.9601 36.1629
L5.0205 36.1024
" />
<path d="M5.0205 36.1024
L5.1415 36.0419
" />
<path d="M5.1415 36.0419
L5.4439 36.0419
" />
<path d="M5.4439 36.0419
L5.5648 36.1024
" />
<path d="M5.5648 36.1024
L5.6253 36.1629
" />
<path d="M5.6253 36.1629
L5.6858 36.2838
" />
<path d="M5.6858 36.2838
L5.6858 36.4048
" />
<path d="M5.6858 36.4048
L5.6253 36.5862
" />
<path d="M5.6253 36.5862
L4.8996 37.3119
" />
<path d="M4.8996 37.3119
L5.6858 37.3119
" />
</g></g>
<g style="fill:#840000; fill-opacity:0.0; 
stroke:#840000; stroke-width:0.1524; stroke-opacity:1; 
stroke-linecap:round; stroke-linejoin:round;">
<path d="M6.7502 40.2614
L2.6862 40.2614
" />
</g>
<g style="fill:#A90000; fill-opacity:0.0; 
stroke:#A90000; stroke-width:0.1524; stroke-opacity:1; 
stroke-linecap:round; stroke-linejoin:round;">
<text x="4.7182" y="40.0074"
textLength="2.5460" font-size="1.6933" lengthAdjust="spacingAndGlyphs"
text-anchor="middle" opacity="0">13</text>
<g class="stroked-text"><desc>13</desc>
<path d="M4.4763 39.8519
L3.7506 39.8519
" />
<path d="M4.1134 39.8519
L4.1134 38.5819
" />
<path d="M4.1134 38.5819
L3.9925 38.7634
" />
<path d="M3.9925 38.7634
L3.8715 38.8843
" />
<path d="M3.8715 38.8843
L3.7506 38.9448
" />
<path d="M4.8996 38.5819
L5.6858 38.5819
" />
<path d="M5.6858 38.5819
L5.2624 39.0657
" />
<path d="M5.2624 39.0657
L5.4439 39.0657
" />
<path d="M5.4439 39.0657
L5.5648 39.1262
" />
<path d="M5.5648 39.1262
L5.6253 39.1867
" />
<path d="M5.6253 39.1867
L5.6858 39.3076
" />
<path d="M5.6858 39.3076
L5.6858 39.6100
" />
<path d="M5.6858 39.6100
L5.6253 39.7310
" />
<path d="M5.6253 39.7310
L5.5648 39.7915
" />
<path d="M5.5648 39.7915
L5.4439 39.8519
" />
<path d="M5.4439 39.8519
L5.0810 39.8519
" />
<path d="M5.0810 39.8519
L4.9601 39.7915
" />
<path d="M4.9601 39.7915
L4.8996 39.7310
" />
</g></g>
<g style="fill:#840000; fill-opacity:0.0; 
stroke:#840000; stroke-width:0.1524; stroke-opacity:1; 
stroke-linecap:round; stroke-linejoin:round;">
<path d="M6.7502 42.8014
L2.6862 42.8014
" />
</g>
<g style="fill:#A90000; fill-opacity:0.0; 
stroke:#A90000; stroke-width:0.1524; stroke-opacity:1; 
stroke-linecap:round; stroke-linejoin:round;">
<text x="4.7182" y="42.5474"
textLength="2.5460" font-size="1.6933" lengthAdjust="spacingAndGlyphs"
text-anchor="middle" opacity="0">14</text>
<g class="stroked-text"><desc>14</desc>
<path d="M4.4763 42.3919
L3.7506 42.3919
" />
<path d="M4.1134 42.3919
L4.1134 41.1219
" />
<path d="M4.1134 41.1219
L3.9925 41.3034
" />
<path d="M3.9925 41.3034
L3.8715 41.4243
" />
<path d="M3.8715 41.4243
L3.7506 41.4848
" />
<path d="M5.5648 41.5453
L5.5648 42.3919
" />
<path d="M5.2624 41.0615
L4.9601 41.9686
" />
<path d="M4.9601 41.9686
L5.7462 41.9686
" />
</g></g>
<g style="fill:#840000; fill-opacity:0.0; 
stroke:#840000; stroke-width:0.1524; stroke-opacity:1; 
stroke-linecap:round; stroke-linejoin:round;">
<path d="M6.7502 45.3414
L2.6862 45.3414
" />
</g>
<g style="fill:#A90000; fill-opacity:0.0; 
stroke:#A90000; stroke-width:0.1524; stroke-opacity:1; 
stroke-linecap:round; stroke-linejoin:round;">
<text x="4.7182" y="45.0874"
textLength="2.5460" font-size="1.6933" lengthAdjust="spacingAndGlyphs"
text-anchor="middle" opacity="0">15</text>
<g class="stroked-text"><desc>15</desc>
<path d="M4.4763 44.9319
L3.7506 44.9319
" />
<path d="M4.1134 44.9319
L4.1134 43.6619
" />
<path d="M4.1134 43.6619
L3.9925 43.8434
" />
<path d="M3.9925 43.8434
L3.8715 43.9643
" />
<path d="M3.8715 43.9643
L3.7506 44.0248
" />
<path d="M5.6253 43.6619
L5.0205 43.6619
" />
<path d="M5.0205 43.6619
L4.9601 44.2667
" />
<path d="M4.9601 44.2667
L5.0205 44.2062
" />
<path d="M5.0205 44.2062
L5.1415 44.1457
" />
<path d="M5.1415 44.1457
L5.4439 44.1457
" />
<path d="M5.4439 44.1457
L5.5648 44.2062
" />
<path d="M5.5648 44.2062
L5.6253 44.2667
" />
<path d="M5.6253 44.2667
L5.6858 44.3876
" />
<path d="M5.6858 44.3876
L5.6858 44.6900
" />
<path d="M5.6858 44.6900
L5.6253 44.8110
" />
<path d="M5.6253 44.8110
L5.5648 44.8715
" />
<path d="M5.5648 44.8715
L5.4439 44.9319
" />
<path d="M5.4439 44.9319
L5.1415 44.9319
" />
<path d="M5.1415 44.9319
L5.0205 44.8715
" />
<path d="M5.0205 44.8715
L4.9601 44.8110
" />
</g></g>
<g style="fill:#840000; fill-opacity:0.0; 
stroke:#840000; stroke-width:0.1524; stroke-opacity:1; 
stroke-linecap:round; stroke-linejoin:round;">
<path d="M6.7502 47.8814
L2.6862 47.8814
" />
</g>
<g style="fill:#A90000; fill-opacity:0.0; 
stroke:#A90000; stroke-width:0.1524; stroke-opacity:1; 
stroke-linecap:round; stroke-linejoin:round;">
<text x="4.7182" y="47.6274"
textLength="2.5460" font-size="1.6933" lengthAdjust="spacingAndGlyphs"
text-anchor="middle" opacity="0">16</text>
<g class="stroked-text"><desc>16</desc>
<path d="M4.4763 47.4719
L3.7506 47.4719
" />
<path d="M4.1134 47.4719
L4.1134 46.2019
" />
<path d="M4.1134 46.2019
L3.9925 46.3834
" />
<path d="M3.9925 46.3834
L3.8715 46.5043
" />
<path d="M3.8715 46.5043
L3.7506 46.5648
" />
<path d="M5.5648 46.2019
L5.3229 46.2019
" />
<path d="M5.3229 46.2019
L5.2020 46.2624
" />
<path d="M5.2020 46.2624
L5.1415 46.3229
" />
<path d="M5.1415 46.3229
L5.0205 46.5043
" />
<path d="M5.0205 46.5043
L4.9601 46.7462
" />
<path d="M4.9601 46.7462
L4.9601 47.2300
" />
<path d="M4.9601 47.2300
L5.0205 47.3510
" />
<path d="M5.0205 47.3510
L5.0810 47.4115
" />
<path d="M5.0810 47.4115
L5.2020 47.4719
" />
<path d="M5.2020 47.4719
L5.4439 47.4719
" />
<path d="M5.4439 47.4719
L5.5648 47.4115
" />
<path d="M5.5648 47.4115
L5.6253 47.3510
" />
<path d="M5.6253 47.3510
L5.6858 47.2300
" />
<path d="M5.6858 47.2300
L5.6858 46.9276
" />
<path d="M5.6858 46.9276
L5.6253 46.8067
" />
<path d="M5.6253 46.8067
L5.5648 46.7462
" />
<path d="M5.5648 46.7462
L5.4439 46.6857
" />
<path d="M5.4439 46.6857
L5.2020 46.6857
" />
<path d="M5.2020 46.6857
L5.0810 46.7462
" />
<path d="M5.0810 46.7462
L5.0205 46.8067
" />
<path d="M5.0205 46.8067
L4.9601 46.9276
" />
</g></g>
<g style="fill:#840000; fill-opacity:0.0; 
stroke:#840000; stroke-width:0.1524; stroke-opacity:1; 
stroke-linecap:round; stroke-linejoin:round;">
<path d="M6.7502 50.4214
L2.6862 50.4214
" />
</g>
<g style="fill:#A90000; fill-opacity:0.0; 
stroke:#A90000; stroke-width:0.1524; stroke-opacity:1; 
stroke-linecap:round; stroke-linejoin:round;">
<text x="4.7182" y="50.1674"
textLength="2.5460" font-size="1.6933" lengthAdjust="spacingAndGlyphs"
text-anchor="middle" opacity="0">17</text>
<g class="stroked-text"><desc>17</desc>
<path d="M4.4763 50.0119
L3.7506 50.0119
" />
<path d="M4.1134 50.0119
L4.1134 48.7419
" />
<path d="M4.1134 48.7419
L3.9925 48.9234
" />
<path d="M3.9925 48.9234
L3.8715 49.0443
" />
<path d="M3.8715 49.0443
L3.7506 49.1048
" />
<path d="M4.8996 48.7419
L5.7462 48.7419
" />
<path d="M5.7462 48.7419
L5.2020 50.0119
" />
</g></g>
<g style="fill:#840000; fill-opacity:0.0; 
stroke:#840000; stroke-width:0.1524; stroke-opacity:1; 
stroke-linecap:round; stroke-linejoin:round;">
<path d="M6.7502 52.9614
L2.6862 52.9614
" />
</g>
<g style="fill:#A90000; fill-opacity:0.0; 
stroke:#A90000; stroke-width:0.1524; stroke-opacity:1; 
stroke-linecap:round; stroke-linejoin:round;">
<text x="4.7182" y="52.7074"
textLength="2.5460" font-size="1.6933" lengthAdjust="spacingAndGlyphs"
text-anchor="middle" opacity="0">18</text>
<g class="stroked-text"><desc>18</desc>
<path d="M4.4763 52.5519
L3.7506 52.5519
" />
<path d="M4.1134 52.5519
L4.1134 51.2819
" />
<path d="M4.1134 51.2819
L3.9925 51.4634
" />
<path d="M3.9925 51.4634
L3.8715 51.5843
" />
<path d="M3.8715 51.5843
L3.7506 51.6448
" />
<path d="M5.2020 51.8262
L5.0810 51.7657
" />
<path d="M5.0810 51.7657
L5.0205 51.7053
" />
<path d="M5.0205 51.7053
L4.9601 51.5843
" />
<path d="M4.9601 51.5843
L4.9601 51.5238
" />
<path d="M4.9601 51.5238
L5.0205 51.4029
" />
<path d="M5.0205 51.4029
L5.0810 51.3424
" />
<path d="M5.0810 51.3424
L5.2020 51.2819
" />
<path d="M5.2020 51.2819
L5.4439 51.2819
" />
<path d="M5.4439 51.2819
L5.5648 51.3424
" />
<path d="M5.5648 51.3424
L5.6253 51.4029
" />
<path d="M5.6253 51.4029
L5.6858 51.5238
" />
<path d="M5.6858 51.5238
L5.6858 51.5843
" />
<path d="M5.6858 51.5843
L5.6253 51.7053
" />
<path d="M5.6253 51.7053
L5.5648 51.7657
" />
<path d="M5.5648 51.7657
L5.4439 51.8262
" />
<path d="M5.4439 51.8262
L5.2020 51.8262
" />
<path d="M5.2020 51.8262
L5.0810 51.8867
" />
<path d="M5.0810 51.8867
L5.0205 51.9472
" />
<path d="M5.0205 51.9472
L4.9601 52.0681
" />
<path d="M4.9601 52.0681
L4.9601 52.3100
" />
<path d="M4.9601 52.3100
L5.0205 52.4310
" />
<path d="M5.0205 52.4310
L5.0810 52.4915
" />
<path d="M5.0810 52.4915
L5.2020 52.5519
" />
<path d="M5.2020 52.5519
L5.4439 52.5519
" />
<path d="M5.4439 52.5519
L5.5648 52.4915
" />
<path d="M5.5648 52.4915
L5.6253 52.4310
" />
<path d="M5.6253 52.4310
L5.6858 52.3100
" />
<path d="M5.6858 52.3100
L5.6858 52.0681
" />
<path d="M5.6858 52.0681
L5.6253 51.9472
" />
<path d="M5.6253 51.9472
L5.5648 51.8867
" />
<path d="M5.5648 51.8867
L5.4439 51.8262
" />
</g></g>
<g style="fill:#840000; fill-opacity:0.0; 
stroke:#840000; stroke-width:0.1524; stroke-opacity:1; 
stroke-linecap:round; stroke-linejoin:round;">
<path d="M6.7502 55.5014
L2.6862 55.5014
" />
</g>
<g style="fill:#A90000; fill-opacity:0.0; 
stroke:#A90000; stroke-width:0.1524; stroke-opacity:1; 
stroke-linecap:round; stroke-linejoin:round;">
<text x="4.7182" y="55.2474"
textLength="2.5460" font-size="1.6933" lengthAdjust="spacingAndGlyphs"
text-anchor="middle" opacity="0">19</text>
<g class="stroked-text"><desc>19</desc>
<path d="M4.4763 55.0919
L3.7506 55.0919
" />
<path d="M4.1134 55.0919
L4.1134 53.8219
" />
<path d="M4.1134 53.8219
L3.9925 54.0034
" />
<path d="M3.9925 54.0034
L3.8715 54.1243
" />
<path d="M3.8715 54.1243
L3.7506 54.1848
" />
<path d="M5.0810 55.0919
L5.3229 55.0919
" />
<path d="M5.3229 55.0919
L5.4439 55.0315
" />
<path d="M5.4439 55.0315
L5.5043 54.9710
" />
<path d="M5.5043 54.9710
L5.6253 54.7895
" />
<path d="M5.6253 54.7895
L5.6858 54.5476
" />
<path d="M5.6858 54.5476
L5.6858 54.0638
" />
<path d="M5.6858 54.0638
L5.6253 53.9429
" />
<path d="M5.6253 53.9429
L5.5648 53.8824
" />
<path d="M5.5648 53.8824
L5.4439 53.8219
" />
<path d="M5.4439 53.8219
L5.2020 53.8219
" />
<path d="M5.2020 53.8219
L5.0810 53.8824
" />
<path d="M5.0810 53.8824
L5.0205 53.9429
" />
<path d="M5.0205 53.9429
L4.9601 54.0638
" />
<path d="M4.9601 54.0638
L4.9601 54.3662
" />
<path d="M4.9601 54.3662
L5.0205 54.4872
" />
<path d="M5.0205 54.4872
L5.0810 54.5476
" />
<path d="M5.0810 54.5476
L5.2020 54.6081
" />
<path d="M5.2020 54.6081
L5.4439 54.6081
" />
<path d="M5.4439 54.6081
L5.5648 54.5476
" />
<path d="M5.5648 54.5476
L5.6253 54.4872
" />
<path d="M5.6253 54.4872
L5.6858 54.3662
" />
</g></g>
<g style="fill:#840000; fill-opacity:0.0; 
stroke:#840000; stroke-width:0.1524; stroke-opacity:1; 
stroke-linecap:round; stroke-linejoin:round;">
<path d="M6.7502 12.3214
L2.6862 12.3214
" />
</g>
<g style="fill:#A90000; fill-opacity:0.0; 
stroke:#A90000; stroke-width:0.1524; stroke-opacity:1; 
stroke-linecap:round; stroke-linejoin:round;">
<text x="4.7182" y="12.0674"
textLength="1.3365" font-size="1.6933" lengthAdjust="spacingAndGlyphs"
text-anchor="middle" opacity="0">2</text>
<g class="stroked-text"><desc>2</desc>
<path d="M4.3554 10.7629
L4.4158 10.7024
" />
<path d="M4.4158 10.7024
L4.5368 10.6419
" />
<path d="M4.5368 10.6419
L4.8392 10.6419
" />
<path d="M4.8392 10.6419
L4.9601 10.7024
" />
<path d="M4.9601 10.7024
L5.0206 10.7629
" />
<path d="M5.0206 10.7629
L5.0811 10.8838
" />
<path d="M5.0811 10.8838
L5.0811 11.0048
" />
<path d="M5.0811 11.0048
L5.0206 11.1862
" />
<path d="M5.0206 11.1862
L4.2949 11.9119
" />
<path d="M4.2949 11.9119
L5.0811 11.9119
" />
</g></g>
<g style="fill:#840000; fill-opacity:0.0; 
stroke:#840000; stroke-width:0.1524; stroke-opacity:1; 
stroke-linecap:round; stroke-linejoin:round;">
<path d="M6.7502 58.0414
L2.6862 58.0414
" />
</g>
<g style="fill:#A90000; fill-opacity:0.0; 
stroke:#A90000; stroke-width:0.1524; stroke-opacity:1; 
stroke-linecap:round; stroke-linejoin:round;">
<text x="4.7182" y="57.7874"
textLength="2.5460" font-size="1.6933" lengthAdjust="spacingAndGlyphs"
text-anchor="middle" opacity="0">20</text>
<g class="stroked-text"><desc>20</desc>
<path d="M3.7506 56.4829
L3.8110 56.4224
" />
<path d="M3.8110 56.4224
L3.9320 56.3619
" />
<path d="M3.9320 56.3619
L4.2344 56.3619
" />
<path d="M4.2344 56.3619
L4.3553 56.4224
" />
<path d="M4.3553 56.4224
L4.4158 56.4829
" />
<path d="M4.4158 56.4829
L4.4763 56.6038
" />
<path d="M4.4763 56.6038
L4.4763 56.7248
" />
<path d="M4.4763 56.7248
L4.4158 56.9062
" />
<path d="M4.4158 56.9062
L3.6901 57.6319
" />
<path d="M3.6901 57.6319
L4.4763 57.6319
" />
<path d="M5.2624 56.3619
L5.3834 56.3619
" />
<path d="M5.3834 56.3619
L5.5043 56.4224
" />
<path d="M5.5043 56.4224
L5.5648 56.4829
" />
<path d="M5.5648 56.4829
L5.6253 56.6038
" />
<path d="M5.6253 56.6038
L5.6858 56.8457
" />
<path d="M5.6858 56.8457
L5.6858 57.1481
" />
<path d="M5.6858 57.1481
L5.6253 57.3900
" />
<path d="M5.6253 57.3900
L5.5648 57.5110
" />
<path d="M5.5648 57.5110
L5.5043 57.5715
" />
<path d="M5.5043 57.5715
L5.3834 57.6319
" />
<path d="M5.3834 57.6319
L5.2624 57.6319
" />
<path d="M5.2624 57.6319
L5.1415 57.5715
" />
<path d="M5.1415 57.5715
L5.0810 57.5110
" />
<path d="M5.0810 57.5110
L5.0205 57.3900
" />
<path d="M5.0205 57.3900
L4.9601 57.1481
" />
<path d="M4.9601 57.1481
L4.9601 56.8457
" />
<path d="M4.9601 56.8457
L5.0205 56.6038
" />
<path d="M5.0205 56.6038
L5.0810 56.4829
" />
<path d="M5.0810 56.4829
L5.1415 56.4224
" />
<path d="M5.1415 56.4224
L5.2624 56.3619
" />
</g></g>
<g style="fill:#840000; fill-opacity:0.0; 
stroke:#840000; stroke-width:0.1524; stroke-opacity:1; 
stroke-linecap:round; stroke-linejoin:round;">
<path d="M6.7502 60.5814
L2.6862 60.5814
" />
</g>
<g style="fill:#A90000; fill-opacity:0.0; 
stroke:#A90000; stroke-width:0.1524; stroke-opacity:1; 
stroke-linecap:round; stroke-linejoin:round;">
<text x="4.7182" y="60.3274"
textLength="2.5460" font-size="1.6933" lengthAdjust="spacingAndGlyphs"
text-anchor="middle" opacity="0">21</text>
<g class="stroked-text"><desc>21</desc>
<path d="M3.7506 59.0229
L3.8110 58.9624
" />
<path d="M3.8110 58.9624
L3.9320 58.9019
" />
<path d="M3.9320 58.9019
L4.2344 58.9019
" />
<path d="M4.2344 58.9019
L4.3553 58.9624
" />
<path d="M4.3553 58.9624
L4.4158 59.0229
" />
<path d="M4.4158 59.0229
L4.4763 59.1438
" />
<path d="M4.4763 59.1438
L4.4763 59.2648
" />
<path d="M4.4763 59.2648
L4.4158 59.4462
" />
<path d="M4.4158 59.4462
L3.6901 60.1719
" />
<path d="M3.6901 60.1719
L4.4763 60.1719
" />
<path d="M5.6858 60.1719
L4.9601 60.1719
" />
<path d="M5.3229 60.1719
L5.3229 58.9019
" />
<path d="M5.3229 58.9019
L5.2020 59.0834
" />
<path d="M5.2020 59.0834
L5.0810 59.2043
" />
<path d="M5.0810 59.2043
L4.9601 59.2648
" />
</g></g>
<g style="fill:#840000; fill-opacity:0.0; 
stroke:#840000; stroke-width:0.1524; stroke-opacity:1; 
stroke-linecap:round; stroke-linejoin:round;">
<path d="M6.7502 63.1214
L2.6862 63.1214
" />
</g>
<g style="fill:#A90000; fill-opacity:0.0; 
stroke:#A90000; stroke-width:0.1524; stroke-opacity:1; 
stroke-linecap:round; stroke-linejoin:round;">
<text x="4.7182" y="62.8674"
textLength="2.5460" font-size="1.6933" lengthAdjust="spacingAndGlyphs"
text-anchor="middle" opacity="0">22</text>
<g class="stroked-text"><desc>22</desc>
<path d="M3.7506 61.5629
L3.8110 61.5024
" />
<path d="M3.8110 61.5024
L3.9320 61.4419
" />
<path d="M3.9320 61.4419
L4.2344 61.4419
" />
<path d="M4.2344 61.4419
L4.3553 61.5024
" />
<path d="M4.3553 61.5024
L4.4158 61.5629
" />
<path d="M4.4158 61.5629
L4.4763 61.6838
" />
<path d="M4.4763 61.6838
L4.4763 61.8048
" />
<path d="M4.4763 61.8048
L4.4158 61.9862
" />
<path d="M4.4158 61.9862
L3.6901 62.7119
" />
<path d="M3.6901 62.7119
L4.4763 62.7119
" />
<path d="M4.9601 61.5629
L5.0205 61.5024
" />
<path d="M5.0205 61.5024
L5.1415 61.4419
" />
<path d="M5.1415 61.4419
L5.4439 61.4419
" />
<path d="M5.4439 61.4419
L5.5648 61.5024
" />
<path d="M5.5648 61.5024
L5.6253 61.5629
" />
<path d="M5.6253 61.5629
L5.6858 61.6838
" />
<path d="M5.6858 61.6838
L5.6858 61.8048
" />
<path d="M5.6858 61.8048
L5.6253 61.9862
" />
<path d="M5.6253 61.9862
L4.8996 62.7119
" />
<path d="M4.8996 62.7119
L5.6858 62.7119
" />
</g></g>
<g style="fill:#840000; fill-opacity:0.0; 
stroke:#840000; stroke-width:0.1524; stroke-opacity:1; 
stroke-linecap:round; stroke-linejoin:round;">
<path d="M6.7502 65.6614
L2.6862 65.6614
" />
</g>
<g style="fill:#A90000; fill-opacity:0.0; 
stroke:#A90000; stroke-width:0.1524; stroke-opacity:1; 
stroke-linecap:round; stroke-linejoin:round;">
<text x="4.7182" y="65.4074"
textLength="2.5460" font-size="1.6933" lengthAdjust="spacingAndGlyphs"
text-anchor="middle" opacity="0">23</text>
<g class="stroked-text"><desc>23</desc>
<path d="M3.7506 64.1029
L3.8110 64.0424
" />
<path d="M3.8110 64.0424
L3.9320 63.9819
" />
<path d="M3.9320 63.9819
L4.2344 63.9819
" />
<path d="M4.2344 63.9819
L4.3553 64.0424
" />
<path d="M4.3553 64.0424
L4.4158 64.1029
" />
<path d="M4.4158 64.1029
L4.4763 64.2238
" />
<path d="M4.4763 64.2238
L4.4763 64.3448
" />
<path d="M4.4763 64.3448
L4.4158 64.5262
" />
<path d="M4.4158 64.5262
L3.6901 65.2519
" />
<path d="M3.6901 65.2519
L4.4763 65.2519
" />
<path d="M4.8996 63.9819
L5.6858 63.9819
" />
<path d="M5.6858 63.9819
L5.2624 64.4657
" />
<path d="M5.2624 64.4657
L5.4439 64.4657
" />
<path d="M5.4439 64.4657
L5.5648 64.5262
" />
<path d="M5.5648 64.5262
L5.6253 64.5867
" />
<path d="M5.6253 64.5867
L5.6858 64.7076
" />
<path d="M5.6858 64.7076
L5.6858 65.0100
" />
<path d="M5.6858 65.0100
L5.6253 65.1310
" />
<path d="M5.6253 65.1310
L5.5648 65.1915
" />
<path d="M5.5648 65.1915
L5.4439 65.2519
" />
<path d="M5.4439 65.2519
L5.0810 65.2519
" />
<path d="M5.0810 65.2519
L4.9601 65.1915
" />
<path d="M4.9601 65.1915
L4.8996 65.1310
" />
</g></g>
<g style="fill:#840000; fill-opacity:0.0; 
stroke:#840000; stroke-width:0.1524; stroke-opacity:1; 
stroke-linecap:round; stroke-linejoin:round;">
<path d="M6.7502 68.2014
L2.6862 68.2014
" />
</g>
<g style="fill:#A90000; fill-opacity:0.0; 
stroke:#A90000; stroke-width:0.1524; stroke-opacity:1; 
stroke-linecap:round; stroke-linejoin:round;">
<text x="4.7182" y="67.9474"
textLength="2.5460" font-size="1.6933" lengthAdjust="spacingAndGlyphs"
text-anchor="middle" opacity="0">24</text>
<g class="stroked-text"><desc>24</desc>
<path d="M3.7506 66.6429
L3.8110 66.5824
" />
<path d="M3.8110 66.5824
L3.9320 66.5219
" />
<path d="M3.9320 66.5219
L4.2344 66.5219
" />
<path d="M4.2344 66.5219
L4.3553 66.5824
" />
<path d="M4.3553 66.5824
L4.4158 66.6429
" />
<path d="M4.4158 66.6429
L4.4763 66.7638
" />
<path d="M4.4763 66.7638
L4.4763 66.8848
" />
<path d="M4.4763 66.8848
L4.4158 67.0662
" />
<path d="M4.4158 67.0662
L3.6901 67.7919
" />
<path d="M3.6901 67.7919
L4.4763 67.7919
" />
<path d="M5.5648 66.9453
L5.5648 67.7919
" />
<path d="M5.2624 66.4615
L4.9601 67.3686
" />
<path d="M4.9601 67.3686
L5.7462 67.3686
" />
</g></g>
<g style="fill:#840000; fill-opacity:0.0; 
stroke:#840000; stroke-width:0.1524; stroke-opacity:1; 
stroke-linecap:round; stroke-linejoin:round;">
<path d="M6.7502 14.8614
L2.6862 14.8614
" />
</g>
<g style="fill:#A90000; fill-opacity:0.0; 
stroke:#A90000; stroke-width:0.1524; stroke-opacity:1; 
stroke-linecap:round; stroke-linejoin:round;">
<text x="4.7182" y="14.6074"
textLength="1.3365" font-size="1.6933" lengthAdjust="spacingAndGlyphs"
text-anchor="middle" opacity="0">3</text>
<g class="stroked-text"><desc>3</desc>
<path d="M4.2949 13.1819
L5.0811 13.1819
" />
<path d="M5.0811 13.1819
L4.6577 13.6657
" />
<path d="M4.6577 13.6657
L4.8392 13.6657
" />
<path d="M4.8392 13.6657
L4.9601 13.7262
" />
<path d="M4.9601 13.7262
L5.0206 13.7867
" />
<path d="M5.0206 13.7867
L5.0811 13.9076
" />
<path d="M5.0811 13.9076
L5.0811 14.2100
" />
<path d="M5.0811 14.2100
L5.0206 14.3310
" />
<path d="M5.0206 14.3310
L4.9601 14.3915
" />
<path d="M4.9601 14.3915
L4.8392 14.4519
" />
<path d="M4.8392 14.4519
L4.4763 14.4519
" />
<path d="M4.4763 14.4519
L4.3554 14.3915
" />
<path d="M4.3554 14.3915
L4.2949 14.3310
" />
</g></g>
<g style="fill:#840000; fill-opacity:0.0; 
stroke:#840000; stroke-width:0.1524; stroke-opacity:1; 
stroke-linecap:round; stroke-linejoin:round;">
<path d="M6.7502 17.4014
L2.6862 17.4014
" />
</g>
<g style="fill:#A90000; fill-opacity:0.0; 
stroke:#A90000; stroke-width:0.1524; stroke-opacity:1; 
stroke-linecap:round; stroke-linejoin:round;">
<text x="4.7182" y="17.1474"
textLength="1.3365" font-size="1.6933" lengthAdjust="spacingAndGlyphs"
text-anchor="middle" opacity="0">4</text>
<g class="stroked-text"><desc>4</desc>
<path d="M4.9601 16.1453
L4.9601 16.9919
" />
<path d="M4.6577 15.6615
L4.3554 16.5686
" />
<path d="M4.3554 16.5686
L5.1415 16.5686
" />
</g></g>
<g style="fill:#840000; fill-opacity:0.0; 
stroke:#840000; stroke-width:0.1524; stroke-opacity:1; 
stroke-linecap:round; stroke-linejoin:round;">
<path d="M6.7502 19.9414
L2.6862 19.9414
" />
</g>
<g style="fill:#A90000; fill-opacity:0.0; 
stroke:#A90000; stroke-width:0.1524; stroke-opacity:1; 
stroke-linecap:round; stroke-linejoin:round;">
<text x="4.7182" y="19.6874"
textLength="1.3365" font-size="1.6933" lengthAdjust="spacingAndGlyphs"
text-anchor="middle" opacity="0">5</text>
<g class="stroked-text"><desc>5</desc>
<path d="M5.0206 18.2619
L4.4158 18.2619
" />
<path d="M4.4158 18.2619
L4.3554 18.8667
" />
<path d="M4.3554 18.8667
L4.4158 18.8062
" />
<path d="M4.4158 18.8062
L4.5368 18.7457
" />
<path d="M4.5368 18.7457
L4.8392 18.7457
" />
<path d="M4.8392 18.7457
L4.9601 18.8062
" />
<path d="M4.9601 18.8062
L5.0206 18.8667
" />
<path d="M5.0206 18.8667
L5.0811 18.9876
" />
<path d="M5.0811 18.9876
L5.0811 19.2900
" />
<path d="M5.0811 19.2900
L5.0206 19.4110
" />
<path d="M5.0206 19.4110
L4.9601 19.4715
" />
<path d="M4.9601 19.4715
L4.8392 19.5319
" />
<path d="M4.8392 19.5319
L4.5368 19.5319
" />
<path d="M4.5368 19.5319
L4.4158 19.4715
" />
<path d="M4.4158 19.4715
L4.3554 19.4110
" />
</g></g>
<g style="fill:#840000; fill-opacity:0.0; 
stroke:#840000; stroke-width:0.1524; stroke-opacity:1; 
stroke-linecap:round; stroke-linejoin:round;">
<path d="M6.7502 22.4814
L2.6862 22.4814
" />
</g>
<g style="fill:#A90000; fill-opacity:0.0; 
stroke:#A90000; stroke-width:0.1524; stroke-opacity:1; 
stroke-linecap:round; stroke-linejoin:round;">
<text x="4.7182" y="22.2274"
textLength="1.3365" font-size="1.6933" lengthAdjust="spacingAndGlyphs"
text-anchor="middle" opacity="0">6</text>
<g class="stroked-text"><desc>6</desc>
<path d="M4.9601 20.8019
L4.7182 20.8019
" />
<path d="M4.7182 20.8019
L4.5973 20.8624
" />
<path d="M4.5973 20.8624
L4.5368 20.9229
" />
<path d="M4.5368 20.9229
L4.4158 21.1043
" />
<path d="M4.4158 21.1043
L4.3554 21.3462
" />
<path d="M4.3554 21.3462
L4.3554 21.8300
" />
<path d="M4.3554 21.8300
L4.4158 21.9510
" />
<path d="M4.4158 21.9510
L4.4763 22.0115
" />
<path d="M4.4763 22.0115
L4.5973 22.0719
" />
<path d="M4.5973 22.0719
L4.8392 22.0719
" />
<path d="M4.8392 22.0719
L4.9601 22.0115
" />
<path d="M4.9601 22.0115
L5.0206 21.9510
" />
<path d="M5.0206 21.9510
L5.0811 21.8300
" />
<path d="M5.0811 21.8300
L5.0811 21.5276
" />
<path d="M5.0811 21.5276
L5.0206 21.4067
" />
<path d="M5.0206 21.4067
L4.9601 21.3462
" />
<path d="M4.9601 21.3462
L4.8392 21.2857
" />
<path d="M4.8392 21.2857
L4.5973 21.2857
" />
<path d="M4.5973 21.2857
L4.4763 21.3462
" />
<path d="M4.4763 21.3462
L4.4158 21.4067
" />
<path d="M4.4158 21.4067
L4.3554 21.5276
" />
</g></g>
<g style="fill:#840000; fill-opacity:0.0; 
stroke:#840000; stroke-width:0.1524; stroke-opacity:1; 
stroke-linecap:round; stroke-linejoin:round;">
<path d="M6.7502 25.0214
L2.6862 25.0214
" />
</g>
<g style="fill:#A90000; fill-opacity:0.0; 
stroke:#A90000; stroke-width:0.1524; stroke-opacity:1; 
stroke-linecap:round; stroke-linejoin:round;">
<text x="4.7182" y="24.7674"
textLength="1.3365" font-size="1.6933" lengthAdjust="spacingAndGlyphs"
text-anchor="middle" opacity="0">7</text>
<g class="stroked-text"><desc>7</desc>
<path d="M4.2949 23.3419
L5.1415 23.3419
" />
<path d="M5.1415 23.3419
L4.5973 24.6119
" />
</g></g>
<g style="fill:#840000; fill-opacity:0.0; 
stroke:#840000; stroke-width:0.1524; stroke-opacity:1; 
stroke-linecap:round; stroke-linejoin:round;">
<path d="M6.7502 27.5614
L2.6862 27.5614
" />
</g>
<g style="fill:#A90000; fill-opacity:0.0; 
stroke:#A90000; stroke-width:0.1524; stroke-opacity:1; 
stroke-linecap:round; stroke-linejoin:round;">
<text x="4.7182" y="27.3074"
textLength="1.3365" font-size="1.6933" lengthAdjust="spacingAndGlyphs"
text-anchor="middle" opacity="0">8</text>
<g class="stroked-text"><desc>8</desc>
<path d="M4.5973 26.4262
L4.4763 26.3657
" />
<path d="M4.4763 26.3657
L4.4158 26.3053
" />
<path d="M4.4158 26.3053
L4.3554 26.1843
" />
<path d="M4.3554 26.1843
L4.3554 26.1238
" />
<path d="M4.3554 26.1238
L4.4158 26.0029
" />
<path d="M4.4158 26.0029
L4.4763 25.9424
" />
<path d="M4.4763 25.9424
L4.5973 25.8819
" />
<path d="M4.5973 25.8819
L4.8392 25.8819
" />
<path d="M4.8392 25.8819
L4.9601 25.9424
" />
<path d="M4.9601 25.9424
L5.0206 26.0029
" />
<path d="M5.0206 26.0029
L5.0811 26.1238
" />
<path d="M5.0811 26.1238
L5.0811 26.1843
" />
<path d="M5.0811 26.1843
L5.0206 26.3053
" />
<path d="M5.0206 26.3053
L4.9601 26.3657
" />
<path d="M4.9601 26.3657
L4.8392 26.4262
" />
<path d="M4.8392 26.4262
L4.5973 26.4262
" />
<path d="M4.5973 26.4262
L4.4763 26.4867
" />
<path d="M4.4763 26.4867
L4.4158 26.5472
" />
<path d="M4.4158 26.5472
L4.3554 26.6681
" />
<path d="M4.3554 26.6681
L4.3554 26.9100
" />
<path d="M4.3554 26.9100
L4.4158 27.0310
" />
<path d="M4.4158 27.0310
L4.4763 27.0915
" />
<path d="M4.4763 27.0915
L4.5973 27.1519
" />
<path d="M4.5973 27.1519
L4.8392 27.1519
" />
<path d="M4.8392 27.1519
L4.9601 27.0915
" />
<path d="M4.9601 27.0915
L5.0206 27.0310
" />
<path d="M5.0206 27.0310
L5.0811 26.9100
" />
<path d="M5.0811 26.9100
L5.0811 26.6681
" />
<path d="M5.0811 26.6681
L5.0206 26.5472
" />
<path d="M5.0206 26.5472
L4.9601 26.4867
" />
<path d="M4.9601 26.4867
L4.8392 26.4262
" />
</g></g>
<g style="fill:#840000; fill-opacity:0.0; 
stroke:#840000; stroke-width:0.1524; stroke-opacity:1; 
stroke-linecap:round; stroke-linejoin:round;">
<path d="M6.7502 30.1014
L2.6862 30.1014
" />
</g>
<g style="fill:#A90000; fill-opacity:0.0; 
stroke:#A90000; stroke-width:0.1524; stroke-opacity:1; 
stroke-linecap:round; stroke-linejoin:round;">
<text x="4.7182" y="29.8474"
textLength="1.3365" font-size="1.6933" lengthAdjust="spacingAndGlyphs"
text-anchor="middle" opacity="0">9</text>
<g class="stroked-text"><desc>9</desc>
<path d="M4.4763 29.6919
L4.7182 29.6919
" />
<path d="M4.7182 29.6919
L4.8392 29.6315
" />
<path d="M4.8392 29.6315
L4.8996 29.5710
" />
<path d="M4.8996 29.5710
L5.0206 29.3895
" />
<path d="M5.0206 29.3895
L5.0811 29.1476
" />
<path d="M5.0811 29.1476
L5.0811 28.6638
" />
<path d="M5.0811 28.6638
L5.0206 28.5429
" />
<path d="M5.0206 28.5429
L4.9601 28.4824
" />
<path d="M4.9601 28.4824
L4.8392 28.4219
" />
<path d="M4.8392 28.4219
L4.5973 28.4219
" />
<path d="M4.5973 28.4219
L4.4763 28.4824
" />
<path d="M4.4763 28.4824
L4.4158 28.5429
" />
<path d="M4.4158 28.5429
L4.3554 28.6638
" />
<path d="M4.3554 28.6638
L4.3554 28.9662
" />
<path d="M4.3554 28.9662
L4.4158 29.0872
" />
<path d="M4.4158 29.0872
L4.4763 29.1476
" />
<path d="M4.4763 29.1476
L4.5973 29.2081
" />
<path d="M4.5973 29.2081
L4.8392 29.2081
" />
<path d="M4.8392 29.2081
L4.9601 29.1476
" />
<path d="M4.9601 29.1476
L5.0206 29.0872
" />
<path d="M5.0206 29.0872
L5.0811 28.9662
" />
</g></g>
<g style="fill:#840000; fill-opacity:0.0; 
stroke:#840000; stroke-width:0.1524; stroke-opacity:1; 
stroke-linecap:round; stroke-linejoin:round;">
<path d="M7.7662 69.4714
L7.7662 73.2814
" />
</g>
<g style="fill:#A90000; fill-opacity:0.0; 
stroke:#A90000; stroke-width:0.1524; stroke-opacity:1; 
stroke-linecap:round; stroke-linejoin:round;">
<g transform="rotate(-90.000000 7.5122 71.3764)">
<text x="7.5122" y="71.3764"
textLength="2.6670" font-size="1.6933" lengthAdjust="spacingAndGlyphs"
text-anchor="middle" opacity="0">SH</text>
</g>
<g class="stroked-text"><desc>SH</desc>
<path d="M7.2963 72.4044
L7.3567 72.2230
" />
<path d="M7.3567 72.2230
L7.3567 71.9206
" />
<path d="M7.3567 71.9206
L7.2963 71.7997
" />
<path d="M7.2963 71.7997
L7.2358 71.7392
" />
<path d="M7.2358 71.7392
L7.1148 71.6787
" />
<path d="M7.1148 71.6787
L6.9939 71.6787
" />
<path d="M6.9939 71.6787
L6.8729 71.7392
" />
<path d="M6.8729 71.7392
L6.8124 71.7997
" />
<path d="M6.8124 71.7997
L6.7520 71.9206
" />
<path d="M6.7520 71.9206
L6.6915 72.1625
" />
<path d="M6.6915 72.1625
L6.6310 72.2835
" />
<path d="M6.6310 72.2835
L6.5705 72.3440
" />
<path d="M6.5705 72.3440
L6.4496 72.4044
" />
<path d="M6.4496 72.4044
L6.3286 72.4044
" />
<path d="M6.3286 72.4044
L6.2077 72.3440
" />
<path d="M6.2077 72.3440
L6.1472 72.2835
" />
<path d="M6.1472 72.2835
L6.0867 72.1625
" />
<path d="M6.0867 72.1625
L6.0867 71.8602
" />
<path d="M6.0867 71.8602
L6.1472 71.6787
" />
<path d="M7.3567 71.1345
L6.0867 71.1345
" />
<path d="M6.6915 71.1345
L6.6915 70.4088
" />
<path d="M7.3567 70.4088
L6.0867 70.4088
" />
</g></g>
<g style="fill:#840084; fill-opacity:0.0; 
stroke:#840084; stroke-width:0.1524; stroke-opacity:1; 
stroke-linecap:round; stroke-linejoin:round;">
</g>
<g style="fill:#006464; fill-opacity:0.0; 
stroke:#006464; stroke-width:0.1524; stroke-opacity:1; 
stroke-linecap:round; stroke-linejoin:round;">
</g>
<g style="fill:#006464; fill-opacity:0.0; 
stroke:#006464; stroke-width:0.1588; stroke-opacity:1; 
stroke-linecap:round; stroke-linejoin:round;">
<text x="8.0202" y="8.1304"
textLength="2.1992" font-size="1.6933" lengthAdjust="spacingAndGlyphs"
text-anchor="middle" opacity="0">J?</text>
<g class="stroked-text"><desc>J?</desc>
<path d="M7.6573 6.8129
L7.6573 7.7201
" />
<path d="M7.6573 7.7201
L7.5968 7.9015
" />
<path d="M7.5968 7.9015
L7.4759 8.0225
" />
<path d="M7.4759 8.0225
L7.2944 8.0829
" />
<path d="M7.2944 8.0829
L7.1735 8.0829
" />
<path d="M8.4435 7.9620
L8.5039 8.0225
" />
<path d="M8.5039 8.0225
L8.4435 8.0829
" />
<path d="M8.4435 8.0829
L8.3830 8.0225
" />
<path d="M8.3830 8.0225
L8.4435 7.9620
" />
<path d="M8.4435 7.9620
L8.4435 8.0829
" />
<path d="M8.2016 6.8734
L8.3225 6.8129
" />
<path d="M8.3225 6.8129
L8.6249 6.8129
" />
<path d="M8.6249 6.8129
L8.7458 6.8734
" />
<path d="M8.7458 6.8734
L8.8063 6.9944
" />
<path d="M8.8063 6.9944
L8.8063 7.1153
" />
<path d="M8.8063 7.1153
L8.7458 7.2363
" />
<path d="M8.7458 7.2363
L8.6854 7.2967
" />
<path d="M8.6854 7.2967
L8.5644 7.3572
" />
<path d="M8.5644 7.3572
L8.5039 7.4177
" />
<path d="M8.5039 7.4177
L8.4435 7.5386
" />
<path d="M8.4435 7.5386
L8.4435 7.5991
" />
</g><text x="19.1647" y="71.1224"
textLength="20.7650" font-size="1.6933" lengthAdjust="spacingAndGlyphs"
text-anchor="middle" opacity="0">Conn_01x24_Shielded</text>
<g class="stroked-text"><desc>Conn_01x24_Shielded</desc>
<path d="M9.8817 70.9540
L9.8213 71.0145
" />
<path d="M9.8213 71.0145
L9.6398 71.0749
" />
<path d="M9.6398 71.0749
L9.5189 71.0749
" />
<path d="M9.5189 71.0749
L9.3375 71.0145
" />
<path d="M9.3375 71.0145
L9.2165 70.8935
" />
<path d="M9.2165 70.8935
L9.1560 70.7725
" />
<path d="M9.1560 70.7725
L9.0956 70.5306
" />
<path d="M9.0956 70.5306
L9.0956 70.3492
" />
<path d="M9.0956 70.3492
L9.1560 70.1073
" />
<path d="M9.1560 70.1073
L9.2165 69.9864
" />
<path d="M9.2165 69.9864
L9.3375 69.8654
" />
<path d="M9.3375 69.8654
L9.5189 69.8049
" />
<path d="M9.5189 69.8049
L9.6398 69.8049
" />
<path d="M9.6398 69.8049
L9.8213 69.8654
" />
<path d="M9.8213 69.8654
L9.8817 69.9259
" />
<path d="M10.6075 71.0749
L10.4865 71.0145
" />
<path d="M10.4865 71.0145
L10.4260 70.9540
" />
<path d="M10.4260 70.9540
L10.3656 70.8330
" />
<path d="M10.3656 70.8330
L10.3656 70.4702
" />
<path d="M10.3656 70.4702
L10.4260 70.3492
" />
<path d="M10.4260 70.3492
L10.4865 70.2887
" />
<path d="M10.4865 70.2887
L10.6075 70.2283
" />
<path d="M10.6075 70.2283
L10.7889 70.2283
" />
<path d="M10.7889 70.2283
L10.9098 70.2887
" />
<path d="M10.9098 70.2887
L10.9703 70.3492
" />
<path d="M10.9703 70.3492
L11.0308 70.4702
" />
<path d="M11.0308 70.4702
L11.0308 70.8330
" />
<path d="M11.0308 70.8330
L10.9703 70.9540
" />
<path d="M10.9703 70.9540
L10.9098 71.0145
" />
<path d="M10.9098 71.0145
L10.7889 71.0749
" />
<path d="M10.7889 71.0749
L10.6075 71.0749
" />
<path d="M11.5750 70.2283
L11.5750 71.0749
" />
<path d="M11.5750 70.3492
L11.6355 70.2887
" />
<path d="M11.6355 70.2887
L11.7565 70.2283
" />
<path d="M11.7565 70.2283
L11.9379 70.2283
" />
<path d="M11.9379 70.2283
L12.0588 70.2887
" />
<path d="M12.0588 70.2887
L12.1193 70.4097
" />
<path d="M12.1193 70.4097
L12.1193 71.0749
" />
<path d="M12.7240 70.2283
L12.7240 71.0749
" />
<path d="M12.7240 70.3492
L12.7845 70.2887
" />
<path d="M12.7845 70.2887
L12.9055 70.2283
" />
<path d="M12.9055 70.2283
L13.0869 70.2283
" />
<path d="M13.0869 70.2283
L13.2078 70.2887
" />
<path d="M13.2078 70.2887
L13.2683 70.4097
" />
<path d="M13.2683 70.4097
L13.2683 71.0749
" />
<path d="M13.5707 71.1959
L14.5383 71.1959
" />
<path d="M15.0825 69.8049
L15.2035 69.8049
" />
<path d="M15.2035 69.8049
L15.3244 69.8654
" />
<path d="M15.3244 69.8654
L15.3849 69.9259
" />
<path d="M15.3849 69.9259
L15.4454 70.0468
" />
<path d="M15.4454 70.0468
L15.5059 70.2887
" />
<path d="M15.5059 70.2887
L15.5059 70.5911
" />
<path d="M15.5059 70.5911
L15.4454 70.8330
" />
<path d="M15.4454 70.8330
L15.3849 70.9540
" />
<path d="M15.3849 70.9540
L15.3244 71.0145
" />
<path d="M15.3244 71.0145
L15.2035 71.0749
" />
<path d="M15.2035 71.0749
L15.0825 71.0749
" />
<path d="M15.0825 71.0749
L14.9616 71.0145
" />
<path d="M14.9616 71.0145
L14.9011 70.9540
" />
<path d="M14.9011 70.9540
L14.8406 70.8330
" />
<path d="M14.8406 70.8330
L14.7802 70.5911
" />
<path d="M14.7802 70.5911
L14.7802 70.2887
" />
<path d="M14.7802 70.2887
L14.8406 70.0468
" />
<path d="M14.8406 70.0468
L14.9011 69.9259
" />
<path d="M14.9011 69.9259
L14.9616 69.8654
" />
<path d="M14.9616 69.8654
L15.0825 69.8049
" />
<path d="M16.7154 71.0749
L15.9897 71.0749
" />
<path d="M16.3525 71.0749
L16.3525 69.8049
" />
<path d="M16.3525 69.8049
L16.2316 69.9864
" />
<path d="M16.2316 69.9864
L16.1106 70.1073
" />
<path d="M16.1106 70.1073
L15.9897 70.1678
" />
<path d="M17.1387 71.0749
L17.8039 70.2283
" />
<path d="M17.1387 70.2283
L17.8039 71.0749
" />
<path d="M18.2273 69.9259
L18.2877 69.8654
" />
<path d="M18.2877 69.8654
L18.4087 69.8049
" />
<path d="M18.4087 69.8049
L18.7111 69.8049
" />
<path d="M18.7111 69.8049
L18.8320 69.8654
" />
<path d="M18.8320 69.8654
L18.8925 69.9259
" />
<path d="M18.8925 69.9259
L18.9530 70.0468
" />
<path d="M18.9530 70.0468
L18.9530 70.1678
" />
<path d="M18.9530 70.1678
L18.8925 70.3492
" />
<path d="M18.8925 70.3492
L18.1668 71.0749
" />
<path d="M18.1668 71.0749
L18.9530 71.0749
" />
<path d="M20.0415 70.2283
L20.0415 71.0749
" />
<path d="M19.7391 69.7445
L19.4368 70.6516
" />
<path d="M19.4368 70.6516
L20.2229 70.6516
" />
<path d="M20.4044 71.1959
L21.3720 71.1959
" />
<path d="M21.6139 71.0145
L21.7953 71.0749
" />
<path d="M21.7953 71.0749
L22.0977 71.0749
" />
<path d="M22.0977 71.0749
L22.2186 71.0145
" />
<path d="M22.2186 71.0145
L22.2791 70.9540
" />
<path d="M22.2791 70.9540
L22.3396 70.8330
" />
<path d="M22.3396 70.8330
L22.3396 70.7121
" />
<path d="M22.3396 70.7121
L22.2791 70.5911
" />
<path d="M22.2791 70.5911
L22.2186 70.5306
" />
<path d="M22.2186 70.5306
L22.0977 70.4702
" />
<path d="M22.0977 70.4702
L21.8558 70.4097
" />
<path d="M21.8558 70.4097
L21.7348 70.3492
" />
<path d="M21.7348 70.3492
L21.6743 70.2887
" />
<path d="M21.6743 70.2887
L21.6139 70.1678
" />
<path d="M21.6139 70.1678
L21.6139 70.0468
" />
<path d="M21.6139 70.0468
L21.6743 69.9259
" />
<path d="M21.6743 69.9259
L21.7348 69.8654
" />
<path d="M21.7348 69.8654
L21.8558 69.8049
" />
<path d="M21.8558 69.8049
L22.1581 69.8049
" />
<path d="M22.1581 69.8049
L22.3396 69.8654
" />
<path d="M22.8838 71.0749
L22.8838 69.8049
" />
<path d="M23.4281 71.0749
L23.4281 70.4097
" />
<path d="M23.4281 70.4097
L23.3676 70.2887
" />
<path d="M23.3676 70.2887
L23.2467 70.2283
" />
<path d="M23.2467 70.2283
L23.0653 70.2283
" />
<path d="M23.0653 70.2283
L22.9443 70.2887
" />
<path d="M22.9443 70.2887
L22.8838 70.3492
" />
<path d="M24.0328 71.0749
L24.0328 70.2283
" />
<path d="M24.0328 69.8049
L23.9724 69.8654
" />
<path d="M23.9724 69.8654
L24.0328 69.9259
" />
<path d="M24.0328 69.9259
L24.0933 69.8654
" />
<path d="M24.0933 69.8654
L24.0328 69.8049
" />
<path d="M24.0328 69.8049
L24.0328 69.9259
" />
<path d="M25.1214 71.0145
L25.0005 71.0749
" />
<path d="M25.0005 71.0749
L24.7586 71.0749
" />
<path d="M24.7586 71.0749
L24.6376 71.0145
" />
<path d="M24.6376 71.0145
L24.5772 70.8935
" />
<path d="M24.5772 70.8935
L24.5772 70.4097
" />
<path d="M24.5772 70.4097
L24.6376 70.2887
" />
<path d="M24.6376 70.2887
L24.7586 70.2283
" />
<path d="M24.7586 70.2283
L25.0005 70.2283
" />
<path d="M25.0005 70.2283
L25.1214 70.2887
" />
<path d="M25.1214 70.2887
L25.1819 70.4097
" />
<path d="M25.1819 70.4097
L25.1819 70.5306
" />
<path d="M25.1819 70.5306
L24.5772 70.6516
" />
<path d="M25.9077 71.0749
L25.7867 71.0145
" />
<path d="M25.7867 71.0145
L25.7262 70.8935
" />
<path d="M25.7262 70.8935
L25.7262 69.8049
" />
<path d="M26.9357 71.0749
L26.9357 69.8049
" />
<path d="M26.9357 71.0145
L26.8148 71.0749
" />
<path d="M26.8148 71.0749
L26.5729 71.0749
" />
<path d="M26.5729 71.0749
L26.4519 71.0145
" />
<path d="M26.4519 71.0145
L26.3914 70.9540
" />
<path d="M26.3914 70.9540
L26.3310 70.8330
" />
<path d="M26.3310 70.8330
L26.3310 70.4702
" />
<path d="M26.3310 70.4702
L26.3914 70.3492
" />
<path d="M26.3914 70.3492
L26.4519 70.2887
" />
<path d="M26.4519 70.2887
L26.5729 70.2283
" />
<path d="M26.5729 70.2283
L26.8148 70.2283
" />
<path d="M26.8148 70.2283
L26.9357 70.2887
" />
<path d="M28.0242 71.0145
L27.9033 71.0749
" />
<path d="M27.9033 71.0749
L27.6614 71.0749
" />
<path d="M27.6614 71.0749
L27.5404 71.0145
" />
<path d="M27.5404 71.0145
L27.4800 70.8935
" />
<path d="M27.4800 70.8935
L27.4800 70.4097
" />
<path d="M27.4800 70.4097
L27.5404 70.2887
" />
<path d="M27.5404 70.2887
L27.6614 70.2283
" />
<path d="M27.6614 70.2283
L27.9033 70.2283
" />
<path d="M27.9033 70.2283
L28.0242 70.2887
" />
<path d="M28.0242 70.2887
L28.0847 70.4097
" />
<path d="M28.0847 70.4097
L28.0847 70.5306
" />
<path d="M28.0847 70.5306
L27.4800 70.6516
" />
<path d="M29.1733 71.0749
L29.1733 69.8049
" />
<path d="M29.1733 71.0145
L29.0524 71.0749
" />
<path d="M29.0524 71.0749
L28.8105 71.0749
" />
<path d="M28.8105 71.0749
L28.6895 71.0145
" />
<path d="M28.6895 71.0145
L28.6290 70.9540
" />
<path d="M28.6290 70.9540
L28.5686 70.8330
" />
<path d="M28.5686 70.8330
L28.5686 70.4702
" />
<path d="M28.5686 70.4702
L28.6290 70.3492
" />
<path d="M28.6290 70.3492
L28.6895 70.2887
" />
<path d="M28.6895 70.2887
L28.8105 70.2283
" />
<path d="M28.8105 70.2283
L29.0524 70.2283
" />
<path d="M29.0524 70.2283
L29.1733 70.2887
" />
</g></g>
<g style="fill:#840084; fill-opacity:0.0; 
stroke:#840084; stroke-width:0.1588; stroke-opacity:1; 
stroke-linecap:round; stroke-linejoin:round;">
<text x="7.7662" y="38.3564"
textLength="1.0501" font-size="1.6933" lengthAdjust="spacingAndGlyphs"
text-anchor="middle" opacity="0">~</text>
<g class="stroked-text"><desc>~</desc>
<path d="M7.4336 37.8251
L7.4941 37.7646
" />
<path d="M7.4941 37.7646
L7.6150 37.7042
" />
<path d="M7.6150 37.7042
L7.8569 37.8251
" />
<path d="M7.8569 37.8251
L7.9779 37.7646
" />
<path d="M7.9779 37.7646
L8.0384 37.7042
" />
</g></g> 
</svg>
