<?xml version="1.0" standalone="no"?>
 <!DOCTYPE svg PUBLIC "-//W3C//DTD SVG 1.1//EN" 
 "http://www.w3.org/Graphics/SVG/1.1/DTD/svg11.dtd"> 
<svg
  xmlns:svg="http://www.w3.org/2000/svg"
  xmlns="http://www.w3.org/2000/svg"
  xmlns:xlink="http://www.w3.org/1999/xlink"
  version="1.1"
  width="14.0208mm" height="14.1986mm" viewBox="0.0000 0.0000 14.0208 14.1986">
<title>SVG Image created as working.svg date 2023/08/01 18:47:05 </title>
  <desc>Image generated by Eeschema-SVG </desc>
<g style="fill:#000000; fill-opacity:1.0000;stroke:#000000; stroke-opacity:1.0000;
stroke-linecap:round; stroke-linejoin:round;"
 transform="translate(0 0) scale(1 1)">
</g>
<g style="fill:#840000; fill-opacity:0.0; 
stroke:#840000; stroke-width:0.0000; stroke-opacity:1; 
stroke-linecap:round; stroke-linejoin:round;">
</g>
<g style="fill:#FFFFC2; fill-opacity:0.0; 
stroke:#FFFFC2; stroke-width:0.0000; stroke-opacity:1; 
stroke-linecap:round; stroke-linejoin:round;">
</g>
<g style="fill:#FFFFC2; fill-opacity:1.0000; 
stroke:#FFFFC2; stroke-width:0.0000; stroke-opacity:1; 
stroke-linecap:round; stroke-linejoin:round;">
<rect x="5.746100" y="3.286200" width="2.540000" height="7.620000" rx="0.000000" />
</g>
<g style="fill:#840084; fill-opacity:1.0000; 
stroke:#840084; stroke-width:0.0000; stroke-opacity:1; 
stroke-linecap:round; stroke-linejoin:round;">
</g>
<g style="fill:#840000; fill-opacity:1.0000; 
stroke:#840000; stroke-width:0.0000; stroke-opacity:1; 
stroke-linecap:round; stroke-linejoin:round;">
</g>
<g style="fill:#840000; fill-opacity:0.0; 
stroke:#840000; stroke-width:0.1524; stroke-opacity:1; 
stroke-linecap:round; stroke-linejoin:round;">
<rect x="5.746100" y="9.509200" width="1.270000" height="0.254000" rx="0.000000" />
<rect x="5.746100" y="6.969200" width="1.270000" height="0.254000" rx="0.000000" />
<rect x="5.746100" y="4.429200" width="1.270000" height="0.254000" rx="0.000000" />
</g>
<g style="fill:#840000; fill-opacity:0.0; 
stroke:#840000; stroke-width:0.2540; stroke-opacity:1; 
stroke-linecap:round; stroke-linejoin:round;">
<rect x="5.746100" y="3.286200" width="2.540000" height="7.620000" rx="0.000000" />
</g>
<g style="fill:#840000; fill-opacity:0.0; 
stroke:#840000; stroke-width:0.1524; stroke-opacity:1; 
stroke-linecap:round; stroke-linejoin:round;">
<path d="M5.7461 4.5562
L1.9361 4.5562
" />
</g>
<g style="fill:#A90000; fill-opacity:0.0; 
stroke:#A90000; stroke-width:0.1524; stroke-opacity:1; 
stroke-linecap:round; stroke-linejoin:round;">
<text x="3.8411" y="4.3022"
textLength="1.3365" font-size="1.6933" lengthAdjust="spacingAndGlyphs"
text-anchor="middle" opacity="0">1</text>
<g class="stroked-text"><desc>1</desc>
<path d="M4.2040 4.1467
L3.4783 4.1467
" />
<path d="M3.8411 4.1467
L3.8411 2.8767
" />
<path d="M3.8411 2.8767
L3.7202 3.0582
" />
<path d="M3.7202 3.0582
L3.5992 3.1791
" />
<path d="M3.5992 3.1791
L3.4783 3.2396
" />
</g></g>
<g style="fill:#840000; fill-opacity:0.0; 
stroke:#840000; stroke-width:0.1524; stroke-opacity:1; 
stroke-linecap:round; stroke-linejoin:round;">
<path d="M5.7461 7.0962
L1.9361 7.0962
" />
</g>
<g style="fill:#A90000; fill-opacity:0.0; 
stroke:#A90000; stroke-width:0.1524; stroke-opacity:1; 
stroke-linecap:round; stroke-linejoin:round;">
<text x="3.8411" y="6.8422"
textLength="1.3365" font-size="1.6933" lengthAdjust="spacingAndGlyphs"
text-anchor="middle" opacity="0">2</text>
<g class="stroked-text"><desc>2</desc>
<path d="M3.4783 5.5377
L3.5387 5.4772
" />
<path d="M3.5387 5.4772
L3.6597 5.4167
" />
<path d="M3.6597 5.4167
L3.9621 5.4167
" />
<path d="M3.9621 5.4167
L4.0830 5.4772
" />
<path d="M4.0830 5.4772
L4.1435 5.5377
" />
<path d="M4.1435 5.5377
L4.2040 5.6586
" />
<path d="M4.2040 5.6586
L4.2040 5.7796
" />
<path d="M4.2040 5.7796
L4.1435 5.9610
" />
<path d="M4.1435 5.9610
L3.4178 6.6867
" />
<path d="M3.4178 6.6867
L4.2040 6.6867
" />
</g></g>
<g style="fill:#840000; fill-opacity:0.0; 
stroke:#840000; stroke-width:0.1524; stroke-opacity:1; 
stroke-linecap:round; stroke-linejoin:round;">
<path d="M5.7461 9.6362
L1.9361 9.6362
" />
</g>
<g style="fill:#A90000; fill-opacity:0.0; 
stroke:#A90000; stroke-width:0.1524; stroke-opacity:1; 
stroke-linecap:round; stroke-linejoin:round;">
<text x="3.8411" y="9.3822"
textLength="1.3365" font-size="1.6933" lengthAdjust="spacingAndGlyphs"
text-anchor="middle" opacity="0">3</text>
<g class="stroked-text"><desc>3</desc>
<path d="M3.4178 7.9567
L4.2040 7.9567
" />
<path d="M4.2040 7.9567
L3.7806 8.4405
" />
<path d="M3.7806 8.4405
L3.9621 8.4405
" />
<path d="M3.9621 8.4405
L4.0830 8.5010
" />
<path d="M4.0830 8.5010
L4.1435 8.5615
" />
<path d="M4.1435 8.5615
L4.2040 8.6824
" />
<path d="M4.2040 8.6824
L4.2040 8.9848
" />
<path d="M4.2040 8.9848
L4.1435 9.1058
" />
<path d="M4.1435 9.1058
L4.0830 9.1663
" />
<path d="M4.0830 9.1663
L3.9621 9.2267
" />
<path d="M3.9621 9.2267
L3.5992 9.2267
" />
<path d="M3.5992 9.2267
L3.4783 9.1663
" />
<path d="M3.4783 9.1663
L3.4178 9.1058
" />
</g></g>
<g style="fill:#840084; fill-opacity:0.0; 
stroke:#840084; stroke-width:0.1524; stroke-opacity:1; 
stroke-linecap:round; stroke-linejoin:round;">
</g>
<g style="fill:#006464; fill-opacity:0.0; 
stroke:#006464; stroke-width:0.1524; stroke-opacity:1; 
stroke-linecap:round; stroke-linejoin:round;">
</g>
<g style="fill:#006464; fill-opacity:0.0; 
stroke:#006464; stroke-width:0.1588; stroke-opacity:1; 
stroke-linecap:round; stroke-linejoin:round;">
<text x="7.0161" y="2.6512"
textLength="2.1992" font-size="1.6933" lengthAdjust="spacingAndGlyphs"
text-anchor="middle" opacity="0">J?</text>
<g class="stroked-text"><desc>J?</desc>
<path d="M6.6532 1.3337
L6.6532 2.2409
" />
<path d="M6.6532 2.2409
L6.5927 2.4223
" />
<path d="M6.5927 2.4223
L6.4718 2.5433
" />
<path d="M6.4718 2.5433
L6.2903 2.6037
" />
<path d="M6.2903 2.6037
L6.1694 2.6037
" />
<path d="M7.4394 2.4828
L7.4998 2.5433
" />
<path d="M7.4998 2.5433
L7.4394 2.6037
" />
<path d="M7.4394 2.6037
L7.3789 2.5433
" />
<path d="M7.3789 2.5433
L7.4394 2.4828
" />
<path d="M7.4394 2.4828
L7.4394 2.6037
" />
<path d="M7.1975 1.3942
L7.3184 1.3337
" />
<path d="M7.3184 1.3337
L7.6208 1.3337
" />
<path d="M7.6208 1.3337
L7.7417 1.3942
" />
<path d="M7.7417 1.3942
L7.8022 1.5152
" />
<path d="M7.8022 1.5152
L7.8022 1.6361
" />
<path d="M7.8022 1.6361
L7.7417 1.7571
" />
<path d="M7.7417 1.7571
L7.6813 1.8175
" />
<path d="M7.6813 1.8175
L7.5603 1.8780
" />
<path d="M7.5603 1.8780
L7.4998 1.9385
" />
<path d="M7.4998 1.9385
L7.4394 2.0594
" />
<path d="M7.4394 2.0594
L7.4394 2.1199
" />
</g><text x="7.0161" y="12.8112"
textLength="11.6937" font-size="1.6933" lengthAdjust="spacingAndGlyphs"
text-anchor="middle" opacity="0">Conn_01x03</text>
<g class="stroked-text"><desc>Conn_01x03</desc>
<path d="M2.2688 12.6428
L2.2084 12.7033
" />
<path d="M2.2084 12.7033
L2.0269 12.7637
" />
<path d="M2.0269 12.7637
L1.9060 12.7637
" />
<path d="M1.9060 12.7637
L1.7246 12.7033
" />
<path d="M1.7246 12.7033
L1.6036 12.5823
" />
<path d="M1.6036 12.5823
L1.5431 12.4613
" />
<path d="M1.5431 12.4613
L1.4827 12.2194
" />
<path d="M1.4827 12.2194
L1.4827 12.0380
" />
<path d="M1.4827 12.0380
L1.5431 11.7961
" />
<path d="M1.5431 11.7961
L1.6036 11.6752
" />
<path d="M1.6036 11.6752
L1.7246 11.5542
" />
<path d="M1.7246 11.5542
L1.9060 11.4937
" />
<path d="M1.9060 11.4937
L2.0269 11.4937
" />
<path d="M2.0269 11.4937
L2.2084 11.5542
" />
<path d="M2.2084 11.5542
L2.2688 11.6147
" />
<path d="M2.9946 12.7637
L2.8736 12.7033
" />
<path d="M2.8736 12.7033
L2.8131 12.6428
" />
<path d="M2.8131 12.6428
L2.7527 12.5218
" />
<path d="M2.7527 12.5218
L2.7527 12.1590
" />
<path d="M2.7527 12.1590
L2.8131 12.0380
" />
<path d="M2.8131 12.0380
L2.8736 11.9775
" />
<path d="M2.8736 11.9775
L2.9946 11.9171
" />
<path d="M2.9946 11.9171
L3.1760 11.9171
" />
<path d="M3.1760 11.9171
L3.2969 11.9775
" />
<path d="M3.2969 11.9775
L3.3574 12.0380
" />
<path d="M3.3574 12.0380
L3.4179 12.1590
" />
<path d="M3.4179 12.1590
L3.4179 12.5218
" />
<path d="M3.4179 12.5218
L3.3574 12.6428
" />
<path d="M3.3574 12.6428
L3.2969 12.7033
" />
<path d="M3.2969 12.7033
L3.1760 12.7637
" />
<path d="M3.1760 12.7637
L2.9946 12.7637
" />
<path d="M3.9621 11.9171
L3.9621 12.7637
" />
<path d="M3.9621 12.0380
L4.0226 11.9775
" />
<path d="M4.0226 11.9775
L4.1436 11.9171
" />
<path d="M4.1436 11.9171
L4.3250 11.9171
" />
<path d="M4.3250 11.9171
L4.4459 11.9775
" />
<path d="M4.4459 11.9775
L4.5064 12.0985
" />
<path d="M4.5064 12.0985
L4.5064 12.7637
" />
<path d="M5.1111 11.9171
L5.1111 12.7637
" />
<path d="M5.1111 12.0380
L5.1716 11.9775
" />
<path d="M5.1716 11.9775
L5.2926 11.9171
" />
<path d="M5.2926 11.9171
L5.4740 11.9171
" />
<path d="M5.4740 11.9171
L5.5949 11.9775
" />
<path d="M5.5949 11.9775
L5.6554 12.0985
" />
<path d="M5.6554 12.0985
L5.6554 12.7637
" />
<path d="M5.9578 12.8847
L6.9254 12.8847
" />
<path d="M7.4696 11.4937
L7.5906 11.4937
" />
<path d="M7.5906 11.4937
L7.7115 11.5542
" />
<path d="M7.7115 11.5542
L7.7720 11.6147
" />
<path d="M7.7720 11.6147
L7.8325 11.7356
" />
<path d="M7.8325 11.7356
L7.8930 11.9775
" />
<path d="M7.8930 11.9775
L7.8930 12.2799
" />
<path d="M7.8930 12.2799
L7.8325 12.5218
" />
<path d="M7.8325 12.5218
L7.7720 12.6428
" />
<path d="M7.7720 12.6428
L7.7115 12.7033
" />
<path d="M7.7115 12.7033
L7.5906 12.7637
" />
<path d="M7.5906 12.7637
L7.4696 12.7637
" />
<path d="M7.4696 12.7637
L7.3487 12.7033
" />
<path d="M7.3487 12.7033
L7.2882 12.6428
" />
<path d="M7.2882 12.6428
L7.2277 12.5218
" />
<path d="M7.2277 12.5218
L7.1673 12.2799
" />
<path d="M7.1673 12.2799
L7.1673 11.9775
" />
<path d="M7.1673 11.9775
L7.2277 11.7356
" />
<path d="M7.2277 11.7356
L7.2882 11.6147
" />
<path d="M7.2882 11.6147
L7.3487 11.5542
" />
<path d="M7.3487 11.5542
L7.4696 11.4937
" />
<path d="M9.1025 12.7637
L8.3768 12.7637
" />
<path d="M8.7396 12.7637
L8.7396 11.4937
" />
<path d="M8.7396 11.4937
L8.6187 11.6752
" />
<path d="M8.6187 11.6752
L8.4977 11.7961
" />
<path d="M8.4977 11.7961
L8.3768 11.8566
" />
<path d="M9.5258 12.7637
L10.1910 11.9171
" />
<path d="M9.5258 11.9171
L10.1910 12.7637
" />
<path d="M10.9167 11.4937
L11.0377 11.4937
" />
<path d="M11.0377 11.4937
L11.1586 11.5542
" />
<path d="M11.1586 11.5542
L11.2191 11.6147
" />
<path d="M11.2191 11.6147
L11.2796 11.7356
" />
<path d="M11.2796 11.7356
L11.3401 11.9775
" />
<path d="M11.3401 11.9775
L11.3401 12.2799
" />
<path d="M11.3401 12.2799
L11.2796 12.5218
" />
<path d="M11.2796 12.5218
L11.2191 12.6428
" />
<path d="M11.2191 12.6428
L11.1586 12.7033
" />
<path d="M11.1586 12.7033
L11.0377 12.7637
" />
<path d="M11.0377 12.7637
L10.9167 12.7637
" />
<path d="M10.9167 12.7637
L10.7958 12.7033
" />
<path d="M10.7958 12.7033
L10.7353 12.6428
" />
<path d="M10.7353 12.6428
L10.6748 12.5218
" />
<path d="M10.6748 12.5218
L10.6144 12.2799
" />
<path d="M10.6144 12.2799
L10.6144 11.9775
" />
<path d="M10.6144 11.9775
L10.6748 11.7356
" />
<path d="M10.6748 11.7356
L10.7353 11.6147
" />
<path d="M10.7353 11.6147
L10.7958 11.5542
" />
<path d="M10.7958 11.5542
L10.9167 11.4937
" />
<path d="M11.7634 11.4937
L12.5496 11.4937
" />
<path d="M12.5496 11.4937
L12.1262 11.9775
" />
<path d="M12.1262 11.9775
L12.3077 11.9775
" />
<path d="M12.3077 11.9775
L12.4286 12.0380
" />
<path d="M12.4286 12.0380
L12.4891 12.0985
" />
<path d="M12.4891 12.0985
L12.5496 12.2194
" />
<path d="M12.5496 12.2194
L12.5496 12.5218
" />
<path d="M12.5496 12.5218
L12.4891 12.6428
" />
<path d="M12.4891 12.6428
L12.4286 12.7033
" />
<path d="M12.4286 12.7033
L12.3077 12.7637
" />
<path d="M12.3077 12.7637
L11.9448 12.7637
" />
<path d="M11.9448 12.7637
L11.8239 12.7033
" />
<path d="M11.8239 12.7033
L11.7634 12.6428
" />
</g></g>
<g style="fill:#840084; fill-opacity:0.0; 
stroke:#840084; stroke-width:0.1588; stroke-opacity:1; 
stroke-linecap:round; stroke-linejoin:round;">
<text x="7.0161" y="7.7312"
textLength="1.0501" font-size="1.6933" lengthAdjust="spacingAndGlyphs"
text-anchor="middle" opacity="0">~</text>
<g class="stroked-text"><desc>~</desc>
<path d="M6.6835 7.1999
L6.7440 7.1394
" />
<path d="M6.7440 7.1394
L6.8649 7.0790
" />
<path d="M6.8649 7.0790
L7.1068 7.1999
" />
<path d="M7.1068 7.1999
L7.2278 7.1394
" />
<path d="M7.2278 7.1394
L7.2883 7.0790
" />
</g></g> 
</svg>
