<?xml version="1.0" standalone="no"?>
 <!DOCTYPE svg PUBLIC "-//W3C//DTD SVG 1.1//EN" 
 "http://www.w3.org/Graphics/SVG/1.1/DTD/svg11.dtd"> 
<svg
  xmlns:svg="http://www.w3.org/2000/svg"
  xmlns="http://www.w3.org/2000/svg"
  xmlns:xlink="http://www.w3.org/1999/xlink"
  version="1.1"
  width="18.8214mm" height="78.2066mm" viewBox="0.0000 0.0000 18.8214 78.2066">
<title>SVG Image created as working.svg date 2023/08/01 15:05:46 </title>
  <desc>Image generated by Eeschema-SVG </desc>
<g style="fill:#000000; fill-opacity:1.0000;stroke:#000000; stroke-opacity:1.0000;
stroke-linecap:round; stroke-linejoin:round;"
 transform="translate(0 0) scale(1 1)">
</g>
<g style="fill:#840000; fill-opacity:0.0; 
stroke:#840000; stroke-width:0.0000; stroke-opacity:1; 
stroke-linecap:round; stroke-linejoin:round;">
</g>
<g style="fill:#840084; fill-opacity:0.0; 
stroke:#840084; stroke-width:0.0000; stroke-opacity:1; 
stroke-linecap:round; stroke-linejoin:round;">
</g>
<g style="fill:#840000; fill-opacity:0.0; 
stroke:#840000; stroke-width:0.0000; stroke-opacity:1; 
stroke-linecap:round; stroke-linejoin:round;">
</g>
<g style="fill:#840000; fill-opacity:0.0; 
stroke:#840000; stroke-width:0.1524; stroke-opacity:1; 
stroke-linecap:round; stroke-linejoin:round;">
<path style="fill:#840000; fill-opacity:0.0; 
stroke:#840000; stroke-width:0.1524; stroke-opacity:1; 
stroke-linecap:round; stroke-linejoin:round;fill:none"
d="M 10.6810,68.3102
10.2746,68.3102
" /> 
<path style="fill:#840000; fill-opacity:0.0; 
stroke:#840000; stroke-width:0.1524; stroke-opacity:1; 
stroke-linecap:round; stroke-linejoin:round;fill:none"
d="M 10.6810,65.7702
10.2746,65.7702
" /> 
<path style="fill:#840000; fill-opacity:0.0; 
stroke:#840000; stroke-width:0.1524; stroke-opacity:1; 
stroke-linecap:round; stroke-linejoin:round;fill:none"
d="M 10.6810,63.2302
10.2746,63.2302
" /> 
<path style="fill:#840000; fill-opacity:0.0; 
stroke:#840000; stroke-width:0.1524; stroke-opacity:1; 
stroke-linecap:round; stroke-linejoin:round;fill:none"
d="M 10.6810,60.6902
10.2746,60.6902
" /> 
<path style="fill:#840000; fill-opacity:0.0; 
stroke:#840000; stroke-width:0.1524; stroke-opacity:1; 
stroke-linecap:round; stroke-linejoin:round;fill:none"
d="M 10.6810,58.1502
10.2746,58.1502
" /> 
<path style="fill:#840000; fill-opacity:0.0; 
stroke:#840000; stroke-width:0.1524; stroke-opacity:1; 
stroke-linecap:round; stroke-linejoin:round;fill:none"
d="M 10.6810,55.6102
10.2746,55.6102
" /> 
<path style="fill:#840000; fill-opacity:0.0; 
stroke:#840000; stroke-width:0.1524; stroke-opacity:1; 
stroke-linecap:round; stroke-linejoin:round;fill:none"
d="M 10.6810,53.0702
10.2746,53.0702
" /> 
<path style="fill:#840000; fill-opacity:0.0; 
stroke:#840000; stroke-width:0.1524; stroke-opacity:1; 
stroke-linecap:round; stroke-linejoin:round;fill:none"
d="M 10.6810,50.5302
10.2746,50.5302
" /> 
<path style="fill:#840000; fill-opacity:0.0; 
stroke:#840000; stroke-width:0.1524; stroke-opacity:1; 
stroke-linecap:round; stroke-linejoin:round;fill:none"
d="M 10.6810,47.9902
10.2746,47.9902
" /> 
<path style="fill:#840000; fill-opacity:0.0; 
stroke:#840000; stroke-width:0.1524; stroke-opacity:1; 
stroke-linecap:round; stroke-linejoin:round;fill:none"
d="M 10.6810,45.4502
10.2746,45.4502
" /> 
<path style="fill:#840000; fill-opacity:0.0; 
stroke:#840000; stroke-width:0.1524; stroke-opacity:1; 
stroke-linecap:round; stroke-linejoin:round;fill:none"
d="M 10.6810,42.9102
10.2746,42.9102
" /> 
<path style="fill:#840000; fill-opacity:0.0; 
stroke:#840000; stroke-width:0.1524; stroke-opacity:1; 
stroke-linecap:round; stroke-linejoin:round;fill:none"
d="M 10.6810,40.3702
10.2746,40.3702
" /> 
<path style="fill:#840000; fill-opacity:0.0; 
stroke:#840000; stroke-width:0.1524; stroke-opacity:1; 
stroke-linecap:round; stroke-linejoin:round;fill:none"
d="M 10.6810,37.8302
10.2746,37.8302
" /> 
<path style="fill:#840000; fill-opacity:0.0; 
stroke:#840000; stroke-width:0.1524; stroke-opacity:1; 
stroke-linecap:round; stroke-linejoin:round;fill:none"
d="M 10.6810,35.2902
10.2746,35.2902
" /> 
<path style="fill:#840000; fill-opacity:0.0; 
stroke:#840000; stroke-width:0.1524; stroke-opacity:1; 
stroke-linecap:round; stroke-linejoin:round;fill:none"
d="M 10.6810,32.7502
10.2746,32.7502
" /> 
<path style="fill:#840000; fill-opacity:0.0; 
stroke:#840000; stroke-width:0.1524; stroke-opacity:1; 
stroke-linecap:round; stroke-linejoin:round;fill:none"
d="M 10.6810,30.2102
10.2746,30.2102
" /> 
<path style="fill:#840000; fill-opacity:0.0; 
stroke:#840000; stroke-width:0.1524; stroke-opacity:1; 
stroke-linecap:round; stroke-linejoin:round;fill:none"
d="M 10.6810,27.6702
10.2746,27.6702
" /> 
<path style="fill:#840000; fill-opacity:0.0; 
stroke:#840000; stroke-width:0.1524; stroke-opacity:1; 
stroke-linecap:round; stroke-linejoin:round;fill:none"
d="M 10.6810,25.1302
10.2746,25.1302
" /> 
<path style="fill:#840000; fill-opacity:0.0; 
stroke:#840000; stroke-width:0.1524; stroke-opacity:1; 
stroke-linecap:round; stroke-linejoin:round;fill:none"
d="M 10.6810,22.5902
10.2746,22.5902
" /> 
<path style="fill:#840000; fill-opacity:0.0; 
stroke:#840000; stroke-width:0.1524; stroke-opacity:1; 
stroke-linecap:round; stroke-linejoin:round;fill:none"
d="M 10.6810,20.0502
10.2746,20.0502
" /> 
<path style="fill:#840000; fill-opacity:0.0; 
stroke:#840000; stroke-width:0.1524; stroke-opacity:1; 
stroke-linecap:round; stroke-linejoin:round;fill:none"
d="M 10.6810,17.5102
10.2746,17.5102
" /> 
<path style="fill:#840000; fill-opacity:0.0; 
stroke:#840000; stroke-width:0.1524; stroke-opacity:1; 
stroke-linecap:round; stroke-linejoin:round;fill:none"
d="M 10.6810,14.9702
10.2746,14.9702
" /> 
<path style="fill:#840000; fill-opacity:0.0; 
stroke:#840000; stroke-width:0.1524; stroke-opacity:1; 
stroke-linecap:round; stroke-linejoin:round;fill:none"
d="M 10.6810,12.4302
10.2746,12.4302
" /> 
<path style="fill:#840000; fill-opacity:0.0; 
stroke:#840000; stroke-width:0.1524; stroke-opacity:1; 
stroke-linecap:round; stroke-linejoin:round;fill:none"
d="M 10.6810,9.8902
10.2746,9.8902
" /> 
</g>
<g style="fill:#840000; fill-opacity:1.0000; 
stroke:#840000; stroke-width:0.1524; stroke-opacity:1; 
stroke-linecap:round; stroke-linejoin:round;">
<rect x="9.411000" y="68.183200" width="0.863600" height="0.254000" rx="0.000000" />
<rect x="9.411000" y="65.643200" width="0.863600" height="0.254000" rx="0.000000" />
<rect x="9.411000" y="63.103200" width="0.863600" height="0.254000" rx="0.000000" />
<rect x="9.411000" y="60.563200" width="0.863600" height="0.254000" rx="0.000000" />
<rect x="9.411000" y="58.023200" width="0.863600" height="0.254000" rx="0.000000" />
<rect x="9.411000" y="55.483200" width="0.863600" height="0.254000" rx="0.000000" />
<rect x="9.411000" y="52.943200" width="0.863600" height="0.254000" rx="0.000000" />
<rect x="9.411000" y="50.403200" width="0.863600" height="0.254000" rx="0.000000" />
<rect x="9.411000" y="47.863200" width="0.863600" height="0.254000" rx="0.000000" />
<rect x="9.411000" y="45.323200" width="0.863600" height="0.254000" rx="0.000000" />
<rect x="9.411000" y="42.783200" width="0.863600" height="0.254000" rx="0.000000" />
<rect x="9.411000" y="40.243200" width="0.863600" height="0.254000" rx="0.000000" />
<rect x="9.411000" y="37.703200" width="0.863600" height="0.254000" rx="0.000000" />
<rect x="9.411000" y="35.163200" width="0.863600" height="0.254000" rx="0.000000" />
<rect x="9.411000" y="32.623200" width="0.863600" height="0.254000" rx="0.000000" />
<rect x="9.411000" y="30.083200" width="0.863600" height="0.254000" rx="0.000000" />
<rect x="9.411000" y="27.543200" width="0.863600" height="0.254000" rx="0.000000" />
<rect x="9.411000" y="25.003200" width="0.863600" height="0.254000" rx="0.000000" />
<rect x="9.411000" y="22.463200" width="0.863600" height="0.254000" rx="0.000000" />
<rect x="9.411000" y="19.923200" width="0.863600" height="0.254000" rx="0.000000" />
<rect x="9.411000" y="17.383200" width="0.863600" height="0.254000" rx="0.000000" />
<rect x="9.411000" y="14.843200" width="0.863600" height="0.254000" rx="0.000000" />
<rect x="9.411000" y="12.303200" width="0.863600" height="0.254000" rx="0.000000" />
<rect x="9.411000" y="9.763200" width="0.863600" height="0.254000" rx="0.000000" />
</g>
<g style="fill:#840000; fill-opacity:0.0; 
stroke:#840000; stroke-width:0.1524; stroke-opacity:1; 
stroke-linecap:round; stroke-linejoin:round;">
<path d="M10.6810 9.8902
L14.4910 9.8902
" />
</g>
<g style="fill:#A90000; fill-opacity:0.0; 
stroke:#A90000; stroke-width:0.1524; stroke-opacity:1; 
stroke-linecap:round; stroke-linejoin:round;">
<text x="12.5860" y="9.6362"
textLength="1.3365" font-size="1.6933" lengthAdjust="spacingAndGlyphs"
text-anchor="middle" opacity="0">1</text>
<g class="stroked-text"><desc>1</desc>
<path d="M12.9489 9.4807
L12.2232 9.4807
" />
<path d="M12.5860 9.4807
L12.5860 8.2107
" />
<path d="M12.5860 8.2107
L12.4651 8.3922
" />
<path d="M12.4651 8.3922
L12.3441 8.5131
" />
<path d="M12.3441 8.5131
L12.2232 8.5736
" />
</g></g>
<g style="fill:#840000; fill-opacity:0.0; 
stroke:#840000; stroke-width:0.1524; stroke-opacity:1; 
stroke-linecap:round; stroke-linejoin:round;">
<path d="M10.6810 32.7502
L14.4910 32.7502
" />
</g>
<g style="fill:#A90000; fill-opacity:0.0; 
stroke:#A90000; stroke-width:0.1524; stroke-opacity:1; 
stroke-linecap:round; stroke-linejoin:round;">
<text x="12.5860" y="32.4962"
textLength="2.5460" font-size="1.6933" lengthAdjust="spacingAndGlyphs"
text-anchor="middle" opacity="0">10</text>
<g class="stroked-text"><desc>10</desc>
<path d="M12.3441 32.3407
L11.6184 32.3407
" />
<path d="M11.9812 32.3407
L11.9812 31.0707
" />
<path d="M11.9812 31.0707
L11.8603 31.2522
" />
<path d="M11.8603 31.2522
L11.7393 31.3731
" />
<path d="M11.7393 31.3731
L11.6184 31.4336
" />
<path d="M13.1302 31.0707
L13.2512 31.0707
" />
<path d="M13.2512 31.0707
L13.3721 31.1312
" />
<path d="M13.3721 31.1312
L13.4326 31.1917
" />
<path d="M13.4326 31.1917
L13.4931 31.3126
" />
<path d="M13.4931 31.3126
L13.5536 31.5545
" />
<path d="M13.5536 31.5545
L13.5536 31.8569
" />
<path d="M13.5536 31.8569
L13.4931 32.0988
" />
<path d="M13.4931 32.0988
L13.4326 32.2198
" />
<path d="M13.4326 32.2198
L13.3721 32.2803
" />
<path d="M13.3721 32.2803
L13.2512 32.3407
" />
<path d="M13.2512 32.3407
L13.1302 32.3407
" />
<path d="M13.1302 32.3407
L13.0093 32.2803
" />
<path d="M13.0093 32.2803
L12.9488 32.2198
" />
<path d="M12.9488 32.2198
L12.8883 32.0988
" />
<path d="M12.8883 32.0988
L12.8279 31.8569
" />
<path d="M12.8279 31.8569
L12.8279 31.5545
" />
<path d="M12.8279 31.5545
L12.8883 31.3126
" />
<path d="M12.8883 31.3126
L12.9488 31.1917
" />
<path d="M12.9488 31.1917
L13.0093 31.1312
" />
<path d="M13.0093 31.1312
L13.1302 31.0707
" />
</g></g>
<g style="fill:#840000; fill-opacity:0.0; 
stroke:#840000; stroke-width:0.1524; stroke-opacity:1; 
stroke-linecap:round; stroke-linejoin:round;">
<path d="M10.6810 35.2902
L14.4910 35.2902
" />
</g>
<g style="fill:#A90000; fill-opacity:0.0; 
stroke:#A90000; stroke-width:0.1524; stroke-opacity:1; 
stroke-linecap:round; stroke-linejoin:round;">
<text x="12.5860" y="35.0362"
textLength="2.5460" font-size="1.6933" lengthAdjust="spacingAndGlyphs"
text-anchor="middle" opacity="0">11</text>
<g class="stroked-text"><desc>11</desc>
<path d="M12.3441 34.8807
L11.6184 34.8807
" />
<path d="M11.9812 34.8807
L11.9812 33.6107
" />
<path d="M11.9812 33.6107
L11.8603 33.7922
" />
<path d="M11.8603 33.7922
L11.7393 33.9131
" />
<path d="M11.7393 33.9131
L11.6184 33.9736
" />
<path d="M13.5536 34.8807
L12.8279 34.8807
" />
<path d="M13.1907 34.8807
L13.1907 33.6107
" />
<path d="M13.1907 33.6107
L13.0698 33.7922
" />
<path d="M13.0698 33.7922
L12.9488 33.9131
" />
<path d="M12.9488 33.9131
L12.8279 33.9736
" />
</g></g>
<g style="fill:#840000; fill-opacity:0.0; 
stroke:#840000; stroke-width:0.1524; stroke-opacity:1; 
stroke-linecap:round; stroke-linejoin:round;">
<path d="M10.6810 37.8302
L14.4910 37.8302
" />
</g>
<g style="fill:#A90000; fill-opacity:0.0; 
stroke:#A90000; stroke-width:0.1524; stroke-opacity:1; 
stroke-linecap:round; stroke-linejoin:round;">
<text x="12.5860" y="37.5762"
textLength="2.5460" font-size="1.6933" lengthAdjust="spacingAndGlyphs"
text-anchor="middle" opacity="0">12</text>
<g class="stroked-text"><desc>12</desc>
<path d="M12.3441 37.4207
L11.6184 37.4207
" />
<path d="M11.9812 37.4207
L11.9812 36.1507
" />
<path d="M11.9812 36.1507
L11.8603 36.3322
" />
<path d="M11.8603 36.3322
L11.7393 36.4531
" />
<path d="M11.7393 36.4531
L11.6184 36.5136
" />
<path d="M12.8279 36.2717
L12.8883 36.2112
" />
<path d="M12.8883 36.2112
L13.0093 36.1507
" />
<path d="M13.0093 36.1507
L13.3117 36.1507
" />
<path d="M13.3117 36.1507
L13.4326 36.2112
" />
<path d="M13.4326 36.2112
L13.4931 36.2717
" />
<path d="M13.4931 36.2717
L13.5536 36.3926
" />
<path d="M13.5536 36.3926
L13.5536 36.5136
" />
<path d="M13.5536 36.5136
L13.4931 36.6950
" />
<path d="M13.4931 36.6950
L12.7674 37.4207
" />
<path d="M12.7674 37.4207
L13.5536 37.4207
" />
</g></g>
<g style="fill:#840000; fill-opacity:0.0; 
stroke:#840000; stroke-width:0.1524; stroke-opacity:1; 
stroke-linecap:round; stroke-linejoin:round;">
<path d="M10.6810 40.3702
L14.4910 40.3702
" />
</g>
<g style="fill:#A90000; fill-opacity:0.0; 
stroke:#A90000; stroke-width:0.1524; stroke-opacity:1; 
stroke-linecap:round; stroke-linejoin:round;">
<text x="12.5860" y="40.1162"
textLength="2.5460" font-size="1.6933" lengthAdjust="spacingAndGlyphs"
text-anchor="middle" opacity="0">13</text>
<g class="stroked-text"><desc>13</desc>
<path d="M12.3441 39.9607
L11.6184 39.9607
" />
<path d="M11.9812 39.9607
L11.9812 38.6907
" />
<path d="M11.9812 38.6907
L11.8603 38.8722
" />
<path d="M11.8603 38.8722
L11.7393 38.9931
" />
<path d="M11.7393 38.9931
L11.6184 39.0536
" />
<path d="M12.7674 38.6907
L13.5536 38.6907
" />
<path d="M13.5536 38.6907
L13.1302 39.1745
" />
<path d="M13.1302 39.1745
L13.3117 39.1745
" />
<path d="M13.3117 39.1745
L13.4326 39.2350
" />
<path d="M13.4326 39.2350
L13.4931 39.2955
" />
<path d="M13.4931 39.2955
L13.5536 39.4164
" />
<path d="M13.5536 39.4164
L13.5536 39.7188
" />
<path d="M13.5536 39.7188
L13.4931 39.8398
" />
<path d="M13.4931 39.8398
L13.4326 39.9003
" />
<path d="M13.4326 39.9003
L13.3117 39.9607
" />
<path d="M13.3117 39.9607
L12.9488 39.9607
" />
<path d="M12.9488 39.9607
L12.8279 39.9003
" />
<path d="M12.8279 39.9003
L12.7674 39.8398
" />
</g></g>
<g style="fill:#840000; fill-opacity:0.0; 
stroke:#840000; stroke-width:0.1524; stroke-opacity:1; 
stroke-linecap:round; stroke-linejoin:round;">
<path d="M10.6810 42.9102
L14.4910 42.9102
" />
</g>
<g style="fill:#A90000; fill-opacity:0.0; 
stroke:#A90000; stroke-width:0.1524; stroke-opacity:1; 
stroke-linecap:round; stroke-linejoin:round;">
<text x="12.5860" y="42.6562"
textLength="2.5460" font-size="1.6933" lengthAdjust="spacingAndGlyphs"
text-anchor="middle" opacity="0">14</text>
<g class="stroked-text"><desc>14</desc>
<path d="M12.3441 42.5007
L11.6184 42.5007
" />
<path d="M11.9812 42.5007
L11.9812 41.2307
" />
<path d="M11.9812 41.2307
L11.8603 41.4122
" />
<path d="M11.8603 41.4122
L11.7393 41.5331
" />
<path d="M11.7393 41.5331
L11.6184 41.5936
" />
<path d="M13.4326 41.6541
L13.4326 42.5007
" />
<path d="M13.1302 41.1703
L12.8279 42.0774
" />
<path d="M12.8279 42.0774
L13.6140 42.0774
" />
</g></g>
<g style="fill:#840000; fill-opacity:0.0; 
stroke:#840000; stroke-width:0.1524; stroke-opacity:1; 
stroke-linecap:round; stroke-linejoin:round;">
<path d="M10.6810 45.4502
L14.4910 45.4502
" />
</g>
<g style="fill:#A90000; fill-opacity:0.0; 
stroke:#A90000; stroke-width:0.1524; stroke-opacity:1; 
stroke-linecap:round; stroke-linejoin:round;">
<text x="12.5860" y="45.1962"
textLength="2.5460" font-size="1.6933" lengthAdjust="spacingAndGlyphs"
text-anchor="middle" opacity="0">15</text>
<g class="stroked-text"><desc>15</desc>
<path d="M12.3441 45.0407
L11.6184 45.0407
" />
<path d="M11.9812 45.0407
L11.9812 43.7707
" />
<path d="M11.9812 43.7707
L11.8603 43.9522
" />
<path d="M11.8603 43.9522
L11.7393 44.0731
" />
<path d="M11.7393 44.0731
L11.6184 44.1336
" />
<path d="M13.4931 43.7707
L12.8883 43.7707
" />
<path d="M12.8883 43.7707
L12.8279 44.3755
" />
<path d="M12.8279 44.3755
L12.8883 44.3150
" />
<path d="M12.8883 44.3150
L13.0093 44.2545
" />
<path d="M13.0093 44.2545
L13.3117 44.2545
" />
<path d="M13.3117 44.2545
L13.4326 44.3150
" />
<path d="M13.4326 44.3150
L13.4931 44.3755
" />
<path d="M13.4931 44.3755
L13.5536 44.4964
" />
<path d="M13.5536 44.4964
L13.5536 44.7988
" />
<path d="M13.5536 44.7988
L13.4931 44.9198
" />
<path d="M13.4931 44.9198
L13.4326 44.9803
" />
<path d="M13.4326 44.9803
L13.3117 45.0407
" />
<path d="M13.3117 45.0407
L13.0093 45.0407
" />
<path d="M13.0093 45.0407
L12.8883 44.9803
" />
<path d="M12.8883 44.9803
L12.8279 44.9198
" />
</g></g>
<g style="fill:#840000; fill-opacity:0.0; 
stroke:#840000; stroke-width:0.1524; stroke-opacity:1; 
stroke-linecap:round; stroke-linejoin:round;">
<path d="M10.6810 47.9902
L14.4910 47.9902
" />
</g>
<g style="fill:#A90000; fill-opacity:0.0; 
stroke:#A90000; stroke-width:0.1524; stroke-opacity:1; 
stroke-linecap:round; stroke-linejoin:round;">
<text x="12.5860" y="47.7362"
textLength="2.5460" font-size="1.6933" lengthAdjust="spacingAndGlyphs"
text-anchor="middle" opacity="0">16</text>
<g class="stroked-text"><desc>16</desc>
<path d="M12.3441 47.5807
L11.6184 47.5807
" />
<path d="M11.9812 47.5807
L11.9812 46.3107
" />
<path d="M11.9812 46.3107
L11.8603 46.4922
" />
<path d="M11.8603 46.4922
L11.7393 46.6131
" />
<path d="M11.7393 46.6131
L11.6184 46.6736
" />
<path d="M13.4326 46.3107
L13.1907 46.3107
" />
<path d="M13.1907 46.3107
L13.0698 46.3712
" />
<path d="M13.0698 46.3712
L13.0093 46.4317
" />
<path d="M13.0093 46.4317
L12.8883 46.6131
" />
<path d="M12.8883 46.6131
L12.8279 46.8550
" />
<path d="M12.8279 46.8550
L12.8279 47.3388
" />
<path d="M12.8279 47.3388
L12.8883 47.4598
" />
<path d="M12.8883 47.4598
L12.9488 47.5203
" />
<path d="M12.9488 47.5203
L13.0698 47.5807
" />
<path d="M13.0698 47.5807
L13.3117 47.5807
" />
<path d="M13.3117 47.5807
L13.4326 47.5203
" />
<path d="M13.4326 47.5203
L13.4931 47.4598
" />
<path d="M13.4931 47.4598
L13.5536 47.3388
" />
<path d="M13.5536 47.3388
L13.5536 47.0364
" />
<path d="M13.5536 47.0364
L13.4931 46.9155
" />
<path d="M13.4931 46.9155
L13.4326 46.8550
" />
<path d="M13.4326 46.8550
L13.3117 46.7945
" />
<path d="M13.3117 46.7945
L13.0698 46.7945
" />
<path d="M13.0698 46.7945
L12.9488 46.8550
" />
<path d="M12.9488 46.8550
L12.8883 46.9155
" />
<path d="M12.8883 46.9155
L12.8279 47.0364
" />
</g></g>
<g style="fill:#840000; fill-opacity:0.0; 
stroke:#840000; stroke-width:0.1524; stroke-opacity:1; 
stroke-linecap:round; stroke-linejoin:round;">
<path d="M10.6810 50.5302
L14.4910 50.5302
" />
</g>
<g style="fill:#A90000; fill-opacity:0.0; 
stroke:#A90000; stroke-width:0.1524; stroke-opacity:1; 
stroke-linecap:round; stroke-linejoin:round;">
<text x="12.5860" y="50.2762"
textLength="2.5460" font-size="1.6933" lengthAdjust="spacingAndGlyphs"
text-anchor="middle" opacity="0">17</text>
<g class="stroked-text"><desc>17</desc>
<path d="M12.3441 50.1207
L11.6184 50.1207
" />
<path d="M11.9812 50.1207
L11.9812 48.8507
" />
<path d="M11.9812 48.8507
L11.8603 49.0322
" />
<path d="M11.8603 49.0322
L11.7393 49.1531
" />
<path d="M11.7393 49.1531
L11.6184 49.2136
" />
<path d="M12.7674 48.8507
L13.6140 48.8507
" />
<path d="M13.6140 48.8507
L13.0698 50.1207
" />
</g></g>
<g style="fill:#840000; fill-opacity:0.0; 
stroke:#840000; stroke-width:0.1524; stroke-opacity:1; 
stroke-linecap:round; stroke-linejoin:round;">
<path d="M10.6810 53.0702
L14.4910 53.0702
" />
</g>
<g style="fill:#A90000; fill-opacity:0.0; 
stroke:#A90000; stroke-width:0.1524; stroke-opacity:1; 
stroke-linecap:round; stroke-linejoin:round;">
<text x="12.5860" y="52.8162"
textLength="2.5460" font-size="1.6933" lengthAdjust="spacingAndGlyphs"
text-anchor="middle" opacity="0">18</text>
<g class="stroked-text"><desc>18</desc>
<path d="M12.3441 52.6607
L11.6184 52.6607
" />
<path d="M11.9812 52.6607
L11.9812 51.3907
" />
<path d="M11.9812 51.3907
L11.8603 51.5722
" />
<path d="M11.8603 51.5722
L11.7393 51.6931
" />
<path d="M11.7393 51.6931
L11.6184 51.7536
" />
<path d="M13.0698 51.9350
L12.9488 51.8745
" />
<path d="M12.9488 51.8745
L12.8883 51.8141
" />
<path d="M12.8883 51.8141
L12.8279 51.6931
" />
<path d="M12.8279 51.6931
L12.8279 51.6326
" />
<path d="M12.8279 51.6326
L12.8883 51.5117
" />
<path d="M12.8883 51.5117
L12.9488 51.4512
" />
<path d="M12.9488 51.4512
L13.0698 51.3907
" />
<path d="M13.0698 51.3907
L13.3117 51.3907
" />
<path d="M13.3117 51.3907
L13.4326 51.4512
" />
<path d="M13.4326 51.4512
L13.4931 51.5117
" />
<path d="M13.4931 51.5117
L13.5536 51.6326
" />
<path d="M13.5536 51.6326
L13.5536 51.6931
" />
<path d="M13.5536 51.6931
L13.4931 51.8141
" />
<path d="M13.4931 51.8141
L13.4326 51.8745
" />
<path d="M13.4326 51.8745
L13.3117 51.9350
" />
<path d="M13.3117 51.9350
L13.0698 51.9350
" />
<path d="M13.0698 51.9350
L12.9488 51.9955
" />
<path d="M12.9488 51.9955
L12.8883 52.0560
" />
<path d="M12.8883 52.0560
L12.8279 52.1769
" />
<path d="M12.8279 52.1769
L12.8279 52.4188
" />
<path d="M12.8279 52.4188
L12.8883 52.5398
" />
<path d="M12.8883 52.5398
L12.9488 52.6003
" />
<path d="M12.9488 52.6003
L13.0698 52.6607
" />
<path d="M13.0698 52.6607
L13.3117 52.6607
" />
<path d="M13.3117 52.6607
L13.4326 52.6003
" />
<path d="M13.4326 52.6003
L13.4931 52.5398
" />
<path d="M13.4931 52.5398
L13.5536 52.4188
" />
<path d="M13.5536 52.4188
L13.5536 52.1769
" />
<path d="M13.5536 52.1769
L13.4931 52.0560
" />
<path d="M13.4931 52.0560
L13.4326 51.9955
" />
<path d="M13.4326 51.9955
L13.3117 51.9350
" />
</g></g>
<g style="fill:#840000; fill-opacity:0.0; 
stroke:#840000; stroke-width:0.1524; stroke-opacity:1; 
stroke-linecap:round; stroke-linejoin:round;">
<path d="M10.6810 55.6102
L14.4910 55.6102
" />
</g>
<g style="fill:#A90000; fill-opacity:0.0; 
stroke:#A90000; stroke-width:0.1524; stroke-opacity:1; 
stroke-linecap:round; stroke-linejoin:round;">
<text x="12.5860" y="55.3562"
textLength="2.5460" font-size="1.6933" lengthAdjust="spacingAndGlyphs"
text-anchor="middle" opacity="0">19</text>
<g class="stroked-text"><desc>19</desc>
<path d="M12.3441 55.2007
L11.6184 55.2007
" />
<path d="M11.9812 55.2007
L11.9812 53.9307
" />
<path d="M11.9812 53.9307
L11.8603 54.1122
" />
<path d="M11.8603 54.1122
L11.7393 54.2331
" />
<path d="M11.7393 54.2331
L11.6184 54.2936
" />
<path d="M12.9488 55.2007
L13.1907 55.2007
" />
<path d="M13.1907 55.2007
L13.3117 55.1403
" />
<path d="M13.3117 55.1403
L13.3721 55.0798
" />
<path d="M13.3721 55.0798
L13.4931 54.8983
" />
<path d="M13.4931 54.8983
L13.5536 54.6564
" />
<path d="M13.5536 54.6564
L13.5536 54.1726
" />
<path d="M13.5536 54.1726
L13.4931 54.0517
" />
<path d="M13.4931 54.0517
L13.4326 53.9912
" />
<path d="M13.4326 53.9912
L13.3117 53.9307
" />
<path d="M13.3117 53.9307
L13.0698 53.9307
" />
<path d="M13.0698 53.9307
L12.9488 53.9912
" />
<path d="M12.9488 53.9912
L12.8883 54.0517
" />
<path d="M12.8883 54.0517
L12.8279 54.1726
" />
<path d="M12.8279 54.1726
L12.8279 54.4750
" />
<path d="M12.8279 54.4750
L12.8883 54.5960
" />
<path d="M12.8883 54.5960
L12.9488 54.6564
" />
<path d="M12.9488 54.6564
L13.0698 54.7169
" />
<path d="M13.0698 54.7169
L13.3117 54.7169
" />
<path d="M13.3117 54.7169
L13.4326 54.6564
" />
<path d="M13.4326 54.6564
L13.4931 54.5960
" />
<path d="M13.4931 54.5960
L13.5536 54.4750
" />
</g></g>
<g style="fill:#840000; fill-opacity:0.0; 
stroke:#840000; stroke-width:0.1524; stroke-opacity:1; 
stroke-linecap:round; stroke-linejoin:round;">
<path d="M10.6810 12.4302
L14.4910 12.4302
" />
</g>
<g style="fill:#A90000; fill-opacity:0.0; 
stroke:#A90000; stroke-width:0.1524; stroke-opacity:1; 
stroke-linecap:round; stroke-linejoin:round;">
<text x="12.5860" y="12.1762"
textLength="1.3365" font-size="1.6933" lengthAdjust="spacingAndGlyphs"
text-anchor="middle" opacity="0">2</text>
<g class="stroked-text"><desc>2</desc>
<path d="M12.2232 10.8717
L12.2836 10.8112
" />
<path d="M12.2836 10.8112
L12.4046 10.7507
" />
<path d="M12.4046 10.7507
L12.7070 10.7507
" />
<path d="M12.7070 10.7507
L12.8279 10.8112
" />
<path d="M12.8279 10.8112
L12.8884 10.8717
" />
<path d="M12.8884 10.8717
L12.9489 10.9926
" />
<path d="M12.9489 10.9926
L12.9489 11.1136
" />
<path d="M12.9489 11.1136
L12.8884 11.2950
" />
<path d="M12.8884 11.2950
L12.1627 12.0207
" />
<path d="M12.1627 12.0207
L12.9489 12.0207
" />
</g></g>
<g style="fill:#840000; fill-opacity:0.0; 
stroke:#840000; stroke-width:0.1524; stroke-opacity:1; 
stroke-linecap:round; stroke-linejoin:round;">
<path d="M10.6810 58.1502
L14.4910 58.1502
" />
</g>
<g style="fill:#A90000; fill-opacity:0.0; 
stroke:#A90000; stroke-width:0.1524; stroke-opacity:1; 
stroke-linecap:round; stroke-linejoin:round;">
<text x="12.5860" y="57.8962"
textLength="2.5460" font-size="1.6933" lengthAdjust="spacingAndGlyphs"
text-anchor="middle" opacity="0">20</text>
<g class="stroked-text"><desc>20</desc>
<path d="M11.6184 56.5917
L11.6788 56.5312
" />
<path d="M11.6788 56.5312
L11.7998 56.4707
" />
<path d="M11.7998 56.4707
L12.1022 56.4707
" />
<path d="M12.1022 56.4707
L12.2231 56.5312
" />
<path d="M12.2231 56.5312
L12.2836 56.5917
" />
<path d="M12.2836 56.5917
L12.3441 56.7126
" />
<path d="M12.3441 56.7126
L12.3441 56.8336
" />
<path d="M12.3441 56.8336
L12.2836 57.0150
" />
<path d="M12.2836 57.0150
L11.5579 57.7407
" />
<path d="M11.5579 57.7407
L12.3441 57.7407
" />
<path d="M13.1302 56.4707
L13.2512 56.4707
" />
<path d="M13.2512 56.4707
L13.3721 56.5312
" />
<path d="M13.3721 56.5312
L13.4326 56.5917
" />
<path d="M13.4326 56.5917
L13.4931 56.7126
" />
<path d="M13.4931 56.7126
L13.5536 56.9545
" />
<path d="M13.5536 56.9545
L13.5536 57.2569
" />
<path d="M13.5536 57.2569
L13.4931 57.4988
" />
<path d="M13.4931 57.4988
L13.4326 57.6198
" />
<path d="M13.4326 57.6198
L13.3721 57.6803
" />
<path d="M13.3721 57.6803
L13.2512 57.7407
" />
<path d="M13.2512 57.7407
L13.1302 57.7407
" />
<path d="M13.1302 57.7407
L13.0093 57.6803
" />
<path d="M13.0093 57.6803
L12.9488 57.6198
" />
<path d="M12.9488 57.6198
L12.8883 57.4988
" />
<path d="M12.8883 57.4988
L12.8279 57.2569
" />
<path d="M12.8279 57.2569
L12.8279 56.9545
" />
<path d="M12.8279 56.9545
L12.8883 56.7126
" />
<path d="M12.8883 56.7126
L12.9488 56.5917
" />
<path d="M12.9488 56.5917
L13.0093 56.5312
" />
<path d="M13.0093 56.5312
L13.1302 56.4707
" />
</g></g>
<g style="fill:#840000; fill-opacity:0.0; 
stroke:#840000; stroke-width:0.1524; stroke-opacity:1; 
stroke-linecap:round; stroke-linejoin:round;">
<path d="M10.6810 60.6902
L14.4910 60.6902
" />
</g>
<g style="fill:#A90000; fill-opacity:0.0; 
stroke:#A90000; stroke-width:0.1524; stroke-opacity:1; 
stroke-linecap:round; stroke-linejoin:round;">
<text x="12.5860" y="60.4362"
textLength="2.5460" font-size="1.6933" lengthAdjust="spacingAndGlyphs"
text-anchor="middle" opacity="0">21</text>
<g class="stroked-text"><desc>21</desc>
<path d="M11.6184 59.1317
L11.6788 59.0712
" />
<path d="M11.6788 59.0712
L11.7998 59.0107
" />
<path d="M11.7998 59.0107
L12.1022 59.0107
" />
<path d="M12.1022 59.0107
L12.2231 59.0712
" />
<path d="M12.2231 59.0712
L12.2836 59.1317
" />
<path d="M12.2836 59.1317
L12.3441 59.2526
" />
<path d="M12.3441 59.2526
L12.3441 59.3736
" />
<path d="M12.3441 59.3736
L12.2836 59.5550
" />
<path d="M12.2836 59.5550
L11.5579 60.2807
" />
<path d="M11.5579 60.2807
L12.3441 60.2807
" />
<path d="M13.5536 60.2807
L12.8279 60.2807
" />
<path d="M13.1907 60.2807
L13.1907 59.0107
" />
<path d="M13.1907 59.0107
L13.0698 59.1922
" />
<path d="M13.0698 59.1922
L12.9488 59.3131
" />
<path d="M12.9488 59.3131
L12.8279 59.3736
" />
</g></g>
<g style="fill:#840000; fill-opacity:0.0; 
stroke:#840000; stroke-width:0.1524; stroke-opacity:1; 
stroke-linecap:round; stroke-linejoin:round;">
<path d="M10.6810 63.2302
L14.4910 63.2302
" />
</g>
<g style="fill:#A90000; fill-opacity:0.0; 
stroke:#A90000; stroke-width:0.1524; stroke-opacity:1; 
stroke-linecap:round; stroke-linejoin:round;">
<text x="12.5860" y="62.9762"
textLength="2.5460" font-size="1.6933" lengthAdjust="spacingAndGlyphs"
text-anchor="middle" opacity="0">22</text>
<g class="stroked-text"><desc>22</desc>
<path d="M11.6184 61.6717
L11.6788 61.6112
" />
<path d="M11.6788 61.6112
L11.7998 61.5507
" />
<path d="M11.7998 61.5507
L12.1022 61.5507
" />
<path d="M12.1022 61.5507
L12.2231 61.6112
" />
<path d="M12.2231 61.6112
L12.2836 61.6717
" />
<path d="M12.2836 61.6717
L12.3441 61.7926
" />
<path d="M12.3441 61.7926
L12.3441 61.9136
" />
<path d="M12.3441 61.9136
L12.2836 62.0950
" />
<path d="M12.2836 62.0950
L11.5579 62.8207
" />
<path d="M11.5579 62.8207
L12.3441 62.8207
" />
<path d="M12.8279 61.6717
L12.8883 61.6112
" />
<path d="M12.8883 61.6112
L13.0093 61.5507
" />
<path d="M13.0093 61.5507
L13.3117 61.5507
" />
<path d="M13.3117 61.5507
L13.4326 61.6112
" />
<path d="M13.4326 61.6112
L13.4931 61.6717
" />
<path d="M13.4931 61.6717
L13.5536 61.7926
" />
<path d="M13.5536 61.7926
L13.5536 61.9136
" />
<path d="M13.5536 61.9136
L13.4931 62.0950
" />
<path d="M13.4931 62.0950
L12.7674 62.8207
" />
<path d="M12.7674 62.8207
L13.5536 62.8207
" />
</g></g>
<g style="fill:#840000; fill-opacity:0.0; 
stroke:#840000; stroke-width:0.1524; stroke-opacity:1; 
stroke-linecap:round; stroke-linejoin:round;">
<path d="M10.6810 65.7702
L14.4910 65.7702
" />
</g>
<g style="fill:#A90000; fill-opacity:0.0; 
stroke:#A90000; stroke-width:0.1524; stroke-opacity:1; 
stroke-linecap:round; stroke-linejoin:round;">
<text x="12.5860" y="65.5162"
textLength="2.5460" font-size="1.6933" lengthAdjust="spacingAndGlyphs"
text-anchor="middle" opacity="0">23</text>
<g class="stroked-text"><desc>23</desc>
<path d="M11.6184 64.2117
L11.6788 64.1512
" />
<path d="M11.6788 64.1512
L11.7998 64.0907
" />
<path d="M11.7998 64.0907
L12.1022 64.0907
" />
<path d="M12.1022 64.0907
L12.2231 64.1512
" />
<path d="M12.2231 64.1512
L12.2836 64.2117
" />
<path d="M12.2836 64.2117
L12.3441 64.3326
" />
<path d="M12.3441 64.3326
L12.3441 64.4536
" />
<path d="M12.3441 64.4536
L12.2836 64.6350
" />
<path d="M12.2836 64.6350
L11.5579 65.3607
" />
<path d="M11.5579 65.3607
L12.3441 65.3607
" />
<path d="M12.7674 64.0907
L13.5536 64.0907
" />
<path d="M13.5536 64.0907
L13.1302 64.5745
" />
<path d="M13.1302 64.5745
L13.3117 64.5745
" />
<path d="M13.3117 64.5745
L13.4326 64.6350
" />
<path d="M13.4326 64.6350
L13.4931 64.6955
" />
<path d="M13.4931 64.6955
L13.5536 64.8164
" />
<path d="M13.5536 64.8164
L13.5536 65.1188
" />
<path d="M13.5536 65.1188
L13.4931 65.2398
" />
<path d="M13.4931 65.2398
L13.4326 65.3003
" />
<path d="M13.4326 65.3003
L13.3117 65.3607
" />
<path d="M13.3117 65.3607
L12.9488 65.3607
" />
<path d="M12.9488 65.3607
L12.8279 65.3003
" />
<path d="M12.8279 65.3003
L12.7674 65.2398
" />
</g></g>
<g style="fill:#840000; fill-opacity:0.0; 
stroke:#840000; stroke-width:0.1524; stroke-opacity:1; 
stroke-linecap:round; stroke-linejoin:round;">
<path d="M10.6810 68.3102
L14.4910 68.3102
" />
</g>
<g style="fill:#A90000; fill-opacity:0.0; 
stroke:#A90000; stroke-width:0.1524; stroke-opacity:1; 
stroke-linecap:round; stroke-linejoin:round;">
<text x="12.5860" y="68.0562"
textLength="2.5460" font-size="1.6933" lengthAdjust="spacingAndGlyphs"
text-anchor="middle" opacity="0">24</text>
<g class="stroked-text"><desc>24</desc>
<path d="M11.6184 66.7517
L11.6788 66.6912
" />
<path d="M11.6788 66.6912
L11.7998 66.6307
" />
<path d="M11.7998 66.6307
L12.1022 66.6307
" />
<path d="M12.1022 66.6307
L12.2231 66.6912
" />
<path d="M12.2231 66.6912
L12.2836 66.7517
" />
<path d="M12.2836 66.7517
L12.3441 66.8726
" />
<path d="M12.3441 66.8726
L12.3441 66.9936
" />
<path d="M12.3441 66.9936
L12.2836 67.1750
" />
<path d="M12.2836 67.1750
L11.5579 67.9007
" />
<path d="M11.5579 67.9007
L12.3441 67.9007
" />
<path d="M13.4326 67.0541
L13.4326 67.9007
" />
<path d="M13.1302 66.5703
L12.8279 67.4774
" />
<path d="M12.8279 67.4774
L13.6140 67.4774
" />
</g></g>
<g style="fill:#840000; fill-opacity:0.0; 
stroke:#840000; stroke-width:0.1524; stroke-opacity:1; 
stroke-linecap:round; stroke-linejoin:round;">
<path d="M10.6810 14.9702
L14.4910 14.9702
" />
</g>
<g style="fill:#A90000; fill-opacity:0.0; 
stroke:#A90000; stroke-width:0.1524; stroke-opacity:1; 
stroke-linecap:round; stroke-linejoin:round;">
<text x="12.5860" y="14.7162"
textLength="1.3365" font-size="1.6933" lengthAdjust="spacingAndGlyphs"
text-anchor="middle" opacity="0">3</text>
<g class="stroked-text"><desc>3</desc>
<path d="M12.1627 13.2907
L12.9489 13.2907
" />
<path d="M12.9489 13.2907
L12.5255 13.7745
" />
<path d="M12.5255 13.7745
L12.7070 13.7745
" />
<path d="M12.7070 13.7745
L12.8279 13.8350
" />
<path d="M12.8279 13.8350
L12.8884 13.8955
" />
<path d="M12.8884 13.8955
L12.9489 14.0164
" />
<path d="M12.9489 14.0164
L12.9489 14.3188
" />
<path d="M12.9489 14.3188
L12.8884 14.4398
" />
<path d="M12.8884 14.4398
L12.8279 14.5003
" />
<path d="M12.8279 14.5003
L12.7070 14.5607
" />
<path d="M12.7070 14.5607
L12.3441 14.5607
" />
<path d="M12.3441 14.5607
L12.2232 14.5003
" />
<path d="M12.2232 14.5003
L12.1627 14.4398
" />
</g></g>
<g style="fill:#840000; fill-opacity:0.0; 
stroke:#840000; stroke-width:0.1524; stroke-opacity:1; 
stroke-linecap:round; stroke-linejoin:round;">
<path d="M10.6810 17.5102
L14.4910 17.5102
" />
</g>
<g style="fill:#A90000; fill-opacity:0.0; 
stroke:#A90000; stroke-width:0.1524; stroke-opacity:1; 
stroke-linecap:round; stroke-linejoin:round;">
<text x="12.5860" y="17.2562"
textLength="1.3365" font-size="1.6933" lengthAdjust="spacingAndGlyphs"
text-anchor="middle" opacity="0">4</text>
<g class="stroked-text"><desc>4</desc>
<path d="M12.8279 16.2541
L12.8279 17.1007
" />
<path d="M12.5255 15.7703
L12.2232 16.6774
" />
<path d="M12.2232 16.6774
L13.0093 16.6774
" />
</g></g>
<g style="fill:#840000; fill-opacity:0.0; 
stroke:#840000; stroke-width:0.1524; stroke-opacity:1; 
stroke-linecap:round; stroke-linejoin:round;">
<path d="M10.6810 20.0502
L14.4910 20.0502
" />
</g>
<g style="fill:#A90000; fill-opacity:0.0; 
stroke:#A90000; stroke-width:0.1524; stroke-opacity:1; 
stroke-linecap:round; stroke-linejoin:round;">
<text x="12.5860" y="19.7962"
textLength="1.3365" font-size="1.6933" lengthAdjust="spacingAndGlyphs"
text-anchor="middle" opacity="0">5</text>
<g class="stroked-text"><desc>5</desc>
<path d="M12.8884 18.3707
L12.2836 18.3707
" />
<path d="M12.2836 18.3707
L12.2232 18.9755
" />
<path d="M12.2232 18.9755
L12.2836 18.9150
" />
<path d="M12.2836 18.9150
L12.4046 18.8545
" />
<path d="M12.4046 18.8545
L12.7070 18.8545
" />
<path d="M12.7070 18.8545
L12.8279 18.9150
" />
<path d="M12.8279 18.9150
L12.8884 18.9755
" />
<path d="M12.8884 18.9755
L12.9489 19.0964
" />
<path d="M12.9489 19.0964
L12.9489 19.3988
" />
<path d="M12.9489 19.3988
L12.8884 19.5198
" />
<path d="M12.8884 19.5198
L12.8279 19.5803
" />
<path d="M12.8279 19.5803
L12.7070 19.6407
" />
<path d="M12.7070 19.6407
L12.4046 19.6407
" />
<path d="M12.4046 19.6407
L12.2836 19.5803
" />
<path d="M12.2836 19.5803
L12.2232 19.5198
" />
</g></g>
<g style="fill:#840000; fill-opacity:0.0; 
stroke:#840000; stroke-width:0.1524; stroke-opacity:1; 
stroke-linecap:round; stroke-linejoin:round;">
<path d="M10.6810 22.5902
L14.4910 22.5902
" />
</g>
<g style="fill:#A90000; fill-opacity:0.0; 
stroke:#A90000; stroke-width:0.1524; stroke-opacity:1; 
stroke-linecap:round; stroke-linejoin:round;">
<text x="12.5860" y="22.3362"
textLength="1.3365" font-size="1.6933" lengthAdjust="spacingAndGlyphs"
text-anchor="middle" opacity="0">6</text>
<g class="stroked-text"><desc>6</desc>
<path d="M12.8279 20.9107
L12.5860 20.9107
" />
<path d="M12.5860 20.9107
L12.4651 20.9712
" />
<path d="M12.4651 20.9712
L12.4046 21.0317
" />
<path d="M12.4046 21.0317
L12.2836 21.2131
" />
<path d="M12.2836 21.2131
L12.2232 21.4550
" />
<path d="M12.2232 21.4550
L12.2232 21.9388
" />
<path d="M12.2232 21.9388
L12.2836 22.0598
" />
<path d="M12.2836 22.0598
L12.3441 22.1203
" />
<path d="M12.3441 22.1203
L12.4651 22.1807
" />
<path d="M12.4651 22.1807
L12.7070 22.1807
" />
<path d="M12.7070 22.1807
L12.8279 22.1203
" />
<path d="M12.8279 22.1203
L12.8884 22.0598
" />
<path d="M12.8884 22.0598
L12.9489 21.9388
" />
<path d="M12.9489 21.9388
L12.9489 21.6364
" />
<path d="M12.9489 21.6364
L12.8884 21.5155
" />
<path d="M12.8884 21.5155
L12.8279 21.4550
" />
<path d="M12.8279 21.4550
L12.7070 21.3945
" />
<path d="M12.7070 21.3945
L12.4651 21.3945
" />
<path d="M12.4651 21.3945
L12.3441 21.4550
" />
<path d="M12.3441 21.4550
L12.2836 21.5155
" />
<path d="M12.2836 21.5155
L12.2232 21.6364
" />
</g></g>
<g style="fill:#840000; fill-opacity:0.0; 
stroke:#840000; stroke-width:0.1524; stroke-opacity:1; 
stroke-linecap:round; stroke-linejoin:round;">
<path d="M10.6810 25.1302
L14.4910 25.1302
" />
</g>
<g style="fill:#A90000; fill-opacity:0.0; 
stroke:#A90000; stroke-width:0.1524; stroke-opacity:1; 
stroke-linecap:round; stroke-linejoin:round;">
<text x="12.5860" y="24.8762"
textLength="1.3365" font-size="1.6933" lengthAdjust="spacingAndGlyphs"
text-anchor="middle" opacity="0">7</text>
<g class="stroked-text"><desc>7</desc>
<path d="M12.1627 23.4507
L13.0093 23.4507
" />
<path d="M13.0093 23.4507
L12.4651 24.7207
" />
</g></g>
<g style="fill:#840000; fill-opacity:0.0; 
stroke:#840000; stroke-width:0.1524; stroke-opacity:1; 
stroke-linecap:round; stroke-linejoin:round;">
<path d="M10.6810 27.6702
L14.4910 27.6702
" />
</g>
<g style="fill:#A90000; fill-opacity:0.0; 
stroke:#A90000; stroke-width:0.1524; stroke-opacity:1; 
stroke-linecap:round; stroke-linejoin:round;">
<text x="12.5860" y="27.4162"
textLength="1.3365" font-size="1.6933" lengthAdjust="spacingAndGlyphs"
text-anchor="middle" opacity="0">8</text>
<g class="stroked-text"><desc>8</desc>
<path d="M12.4651 26.5350
L12.3441 26.4745
" />
<path d="M12.3441 26.4745
L12.2836 26.4141
" />
<path d="M12.2836 26.4141
L12.2232 26.2931
" />
<path d="M12.2232 26.2931
L12.2232 26.2326
" />
<path d="M12.2232 26.2326
L12.2836 26.1117
" />
<path d="M12.2836 26.1117
L12.3441 26.0512
" />
<path d="M12.3441 26.0512
L12.4651 25.9907
" />
<path d="M12.4651 25.9907
L12.7070 25.9907
" />
<path d="M12.7070 25.9907
L12.8279 26.0512
" />
<path d="M12.8279 26.0512
L12.8884 26.1117
" />
<path d="M12.8884 26.1117
L12.9489 26.2326
" />
<path d="M12.9489 26.2326
L12.9489 26.2931
" />
<path d="M12.9489 26.2931
L12.8884 26.4141
" />
<path d="M12.8884 26.4141
L12.8279 26.4745
" />
<path d="M12.8279 26.4745
L12.7070 26.5350
" />
<path d="M12.7070 26.5350
L12.4651 26.5350
" />
<path d="M12.4651 26.5350
L12.3441 26.5955
" />
<path d="M12.3441 26.5955
L12.2836 26.6560
" />
<path d="M12.2836 26.6560
L12.2232 26.7769
" />
<path d="M12.2232 26.7769
L12.2232 27.0188
" />
<path d="M12.2232 27.0188
L12.2836 27.1398
" />
<path d="M12.2836 27.1398
L12.3441 27.2003
" />
<path d="M12.3441 27.2003
L12.4651 27.2607
" />
<path d="M12.4651 27.2607
L12.7070 27.2607
" />
<path d="M12.7070 27.2607
L12.8279 27.2003
" />
<path d="M12.8279 27.2003
L12.8884 27.1398
" />
<path d="M12.8884 27.1398
L12.9489 27.0188
" />
<path d="M12.9489 27.0188
L12.9489 26.7769
" />
<path d="M12.9489 26.7769
L12.8884 26.6560
" />
<path d="M12.8884 26.6560
L12.8279 26.5955
" />
<path d="M12.8279 26.5955
L12.7070 26.5350
" />
</g></g>
<g style="fill:#840000; fill-opacity:0.0; 
stroke:#840000; stroke-width:0.1524; stroke-opacity:1; 
stroke-linecap:round; stroke-linejoin:round;">
<path d="M10.6810 30.2102
L14.4910 30.2102
" />
</g>
<g style="fill:#A90000; fill-opacity:0.0; 
stroke:#A90000; stroke-width:0.1524; stroke-opacity:1; 
stroke-linecap:round; stroke-linejoin:round;">
<text x="12.5860" y="29.9562"
textLength="1.3365" font-size="1.6933" lengthAdjust="spacingAndGlyphs"
text-anchor="middle" opacity="0">9</text>
<g class="stroked-text"><desc>9</desc>
<path d="M12.3441 29.8007
L12.5860 29.8007
" />
<path d="M12.5860 29.8007
L12.7070 29.7403
" />
<path d="M12.7070 29.7403
L12.7674 29.6798
" />
<path d="M12.7674 29.6798
L12.8884 29.4983
" />
<path d="M12.8884 29.4983
L12.9489 29.2564
" />
<path d="M12.9489 29.2564
L12.9489 28.7726
" />
<path d="M12.9489 28.7726
L12.8884 28.6517
" />
<path d="M12.8884 28.6517
L12.8279 28.5912
" />
<path d="M12.8279 28.5912
L12.7070 28.5307
" />
<path d="M12.7070 28.5307
L12.4651 28.5307
" />
<path d="M12.4651 28.5307
L12.3441 28.5912
" />
<path d="M12.3441 28.5912
L12.2836 28.6517
" />
<path d="M12.2836 28.6517
L12.2232 28.7726
" />
<path d="M12.2232 28.7726
L12.2232 29.0750
" />
<path d="M12.2232 29.0750
L12.2836 29.1960
" />
<path d="M12.2836 29.1960
L12.3441 29.2564
" />
<path d="M12.3441 29.2564
L12.4651 29.3169
" />
<path d="M12.4651 29.3169
L12.7070 29.3169
" />
<path d="M12.7070 29.3169
L12.8279 29.2564
" />
<path d="M12.8279 29.2564
L12.8884 29.1960
" />
<path d="M12.8884 29.1960
L12.9489 29.0750
" />
</g></g>
<g style="fill:#840084; fill-opacity:0.0; 
stroke:#840084; stroke-width:0.1524; stroke-opacity:1; 
stroke-linecap:round; stroke-linejoin:round;">
</g>
<g style="fill:#006464; fill-opacity:0.0; 
stroke:#006464; stroke-width:0.1524; stroke-opacity:1; 
stroke-linecap:round; stroke-linejoin:round;">
</g>
<g style="fill:#006464; fill-opacity:0.0; 
stroke:#006464; stroke-width:0.1588; stroke-opacity:1; 
stroke-linecap:round; stroke-linejoin:round;">
<text x="9.4110" y="7.9852"
textLength="2.1992" font-size="1.6933" lengthAdjust="spacingAndGlyphs"
text-anchor="middle" opacity="0">J?</text>
<g class="stroked-text"><desc>J?</desc>
<path d="M9.0481 6.6677
L9.0481 7.5749
" />
<path d="M9.0481 7.5749
L8.9876 7.7563
" />
<path d="M8.9876 7.7563
L8.8667 7.8773
" />
<path d="M8.8667 7.8773
L8.6852 7.9377
" />
<path d="M8.6852 7.9377
L8.5643 7.9377
" />
<path d="M9.8343 7.8168
L9.8947 7.8773
" />
<path d="M9.8947 7.8773
L9.8343 7.9377
" />
<path d="M9.8343 7.9377
L9.7738 7.8773
" />
<path d="M9.7738 7.8773
L9.8343 7.8168
" />
<path d="M9.8343 7.8168
L9.8343 7.9377
" />
<path d="M9.5924 6.7282
L9.7133 6.6677
" />
<path d="M9.7133 6.6677
L10.0157 6.6677
" />
<path d="M10.0157 6.6677
L10.1366 6.7282
" />
<path d="M10.1366 6.7282
L10.1971 6.8492
" />
<path d="M10.1971 6.8492
L10.1971 6.9701
" />
<path d="M10.1971 6.9701
L10.1366 7.0911
" />
<path d="M10.1366 7.0911
L10.0762 7.1515
" />
<path d="M10.0762 7.1515
L9.9552 7.2120
" />
<path d="M9.9552 7.2120
L9.8947 7.2725
" />
<path d="M9.8947 7.2725
L9.8343 7.3934
" />
<path d="M9.8343 7.3934
L9.8343 7.4539
" />
</g><text x="9.4110" y="71.4852"
textLength="15.6851" font-size="1.6933" lengthAdjust="spacingAndGlyphs"
text-anchor="middle" opacity="0">Conn_01x24_Pin</text>
<g class="stroked-text"><desc>Conn_01x24_Pin</desc>
<path d="M2.6680 71.3168
L2.6076 71.3773
" />
<path d="M2.6076 71.3773
L2.4261 71.4377
" />
<path d="M2.4261 71.4377
L2.3052 71.4377
" />
<path d="M2.3052 71.4377
L2.1238 71.3773
" />
<path d="M2.1238 71.3773
L2.0028 71.2563
" />
<path d="M2.0028 71.2563
L1.9423 71.1353
" />
<path d="M1.9423 71.1353
L1.8819 70.8934
" />
<path d="M1.8819 70.8934
L1.8819 70.7120
" />
<path d="M1.8819 70.7120
L1.9423 70.4701
" />
<path d="M1.9423 70.4701
L2.0028 70.3492
" />
<path d="M2.0028 70.3492
L2.1238 70.2282
" />
<path d="M2.1238 70.2282
L2.3052 70.1677
" />
<path d="M2.3052 70.1677
L2.4261 70.1677
" />
<path d="M2.4261 70.1677
L2.6076 70.2282
" />
<path d="M2.6076 70.2282
L2.6680 70.2887
" />
<path d="M3.3938 71.4377
L3.2728 71.3773
" />
<path d="M3.2728 71.3773
L3.2123 71.3168
" />
<path d="M3.2123 71.3168
L3.1519 71.1958
" />
<path d="M3.1519 71.1958
L3.1519 70.8330
" />
<path d="M3.1519 70.8330
L3.2123 70.7120
" />
<path d="M3.2123 70.7120
L3.2728 70.6515
" />
<path d="M3.2728 70.6515
L3.3938 70.5911
" />
<path d="M3.3938 70.5911
L3.5752 70.5911
" />
<path d="M3.5752 70.5911
L3.6961 70.6515
" />
<path d="M3.6961 70.6515
L3.7566 70.7120
" />
<path d="M3.7566 70.7120
L3.8171 70.8330
" />
<path d="M3.8171 70.8330
L3.8171 71.1958
" />
<path d="M3.8171 71.1958
L3.7566 71.3168
" />
<path d="M3.7566 71.3168
L3.6961 71.3773
" />
<path d="M3.6961 71.3773
L3.5752 71.4377
" />
<path d="M3.5752 71.4377
L3.3938 71.4377
" />
<path d="M4.3613 70.5911
L4.3613 71.4377
" />
<path d="M4.3613 70.7120
L4.4218 70.6515
" />
<path d="M4.4218 70.6515
L4.5428 70.5911
" />
<path d="M4.5428 70.5911
L4.7242 70.5911
" />
<path d="M4.7242 70.5911
L4.8451 70.6515
" />
<path d="M4.8451 70.6515
L4.9056 70.7725
" />
<path d="M4.9056 70.7725
L4.9056 71.4377
" />
<path d="M5.5103 70.5911
L5.5103 71.4377
" />
<path d="M5.5103 70.7120
L5.5708 70.6515
" />
<path d="M5.5708 70.6515
L5.6918 70.5911
" />
<path d="M5.6918 70.5911
L5.8732 70.5911
" />
<path d="M5.8732 70.5911
L5.9941 70.6515
" />
<path d="M5.9941 70.6515
L6.0546 70.7725
" />
<path d="M6.0546 70.7725
L6.0546 71.4377
" />
<path d="M6.3570 71.5587
L7.3246 71.5587
" />
<path d="M7.8688 70.1677
L7.9898 70.1677
" />
<path d="M7.9898 70.1677
L8.1107 70.2282
" />
<path d="M8.1107 70.2282
L8.1712 70.2887
" />
<path d="M8.1712 70.2887
L8.2317 70.4096
" />
<path d="M8.2317 70.4096
L8.2922 70.6515
" />
<path d="M8.2922 70.6515
L8.2922 70.9539
" />
<path d="M8.2922 70.9539
L8.2317 71.1958
" />
<path d="M8.2317 71.1958
L8.1712 71.3168
" />
<path d="M8.1712 71.3168
L8.1107 71.3773
" />
<path d="M8.1107 71.3773
L7.9898 71.4377
" />
<path d="M7.9898 71.4377
L7.8688 71.4377
" />
<path d="M7.8688 71.4377
L7.7479 71.3773
" />
<path d="M7.7479 71.3773
L7.6874 71.3168
" />
<path d="M7.6874 71.3168
L7.6269 71.1958
" />
<path d="M7.6269 71.1958
L7.5665 70.9539
" />
<path d="M7.5665 70.9539
L7.5665 70.6515
" />
<path d="M7.5665 70.6515
L7.6269 70.4096
" />
<path d="M7.6269 70.4096
L7.6874 70.2887
" />
<path d="M7.6874 70.2887
L7.7479 70.2282
" />
<path d="M7.7479 70.2282
L7.8688 70.1677
" />
<path d="M9.5017 71.4377
L8.7760 71.4377
" />
<path d="M9.1388 71.4377
L9.1388 70.1677
" />
<path d="M9.1388 70.1677
L9.0179 70.3492
" />
<path d="M9.0179 70.3492
L8.8969 70.4701
" />
<path d="M8.8969 70.4701
L8.7760 70.5306
" />
<path d="M9.9250 71.4377
L10.5902 70.5911
" />
<path d="M9.9250 70.5911
L10.5902 71.4377
" />
<path d="M11.0136 70.2887
L11.0740 70.2282
" />
<path d="M11.0740 70.2282
L11.1950 70.1677
" />
<path d="M11.1950 70.1677
L11.4974 70.1677
" />
<path d="M11.4974 70.1677
L11.6183 70.2282
" />
<path d="M11.6183 70.2282
L11.6788 70.2887
" />
<path d="M11.6788 70.2887
L11.7393 70.4096
" />
<path d="M11.7393 70.4096
L11.7393 70.5306
" />
<path d="M11.7393 70.5306
L11.6788 70.7120
" />
<path d="M11.6788 70.7120
L10.9531 71.4377
" />
<path d="M10.9531 71.4377
L11.7393 71.4377
" />
<path d="M12.8278 70.5911
L12.8278 71.4377
" />
<path d="M12.5254 70.1073
L12.2231 71.0144
" />
<path d="M12.2231 71.0144
L13.0092 71.0144
" />
<path d="M13.1907 71.5587
L14.1583 71.5587
" />
<path d="M14.4606 71.4377
L14.4606 70.1677
" />
<path d="M14.4606 70.1677
L14.9444 70.1677
" />
<path d="M14.9444 70.1677
L15.0654 70.2282
" />
<path d="M15.0654 70.2282
L15.1259 70.2887
" />
<path d="M15.1259 70.2887
L15.1863 70.4096
" />
<path d="M15.1863 70.4096
L15.1863 70.5911
" />
<path d="M15.1863 70.5911
L15.1259 70.7120
" />
<path d="M15.1259 70.7120
L15.0654 70.7725
" />
<path d="M15.0654 70.7725
L14.9444 70.8330
" />
<path d="M14.9444 70.8330
L14.4606 70.8330
" />
<path d="M15.7306 71.4377
L15.7306 70.5911
" />
<path d="M15.7306 70.1677
L15.6702 70.2282
" />
<path d="M15.6702 70.2282
L15.7306 70.2887
" />
<path d="M15.7306 70.2887
L15.7911 70.2282
" />
<path d="M15.7911 70.2282
L15.7306 70.1677
" />
<path d="M15.7306 70.1677
L15.7306 70.2887
" />
<path d="M16.3354 70.5911
L16.3354 71.4377
" />
<path d="M16.3354 70.7120
L16.3959 70.6515
" />
<path d="M16.3959 70.6515
L16.5169 70.5911
" />
<path d="M16.5169 70.5911
L16.6983 70.5911
" />
<path d="M16.6983 70.5911
L16.8192 70.6515
" />
<path d="M16.8192 70.6515
L16.8797 70.7725
" />
<path d="M16.8797 70.7725
L16.8797 71.4377
" />
</g></g>
<g style="fill:#840084; fill-opacity:0.0; 
stroke:#840084; stroke-width:0.1588; stroke-opacity:1; 
stroke-linecap:round; stroke-linejoin:round;">
<text x="9.4110" y="38.4652"
textLength="1.0501" font-size="1.6933" lengthAdjust="spacingAndGlyphs"
text-anchor="middle" opacity="0">~</text>
<g class="stroked-text"><desc>~</desc>
<path d="M9.0784 37.9339
L9.1389 37.8734
" />
<path d="M9.1389 37.8734
L9.2598 37.8130
" />
<path d="M9.2598 37.8130
L9.5017 37.9339
" />
<path d="M9.5017 37.9339
L9.6227 37.8734
" />
<path d="M9.6227 37.8734
L9.6832 37.8130
" />
</g></g> 
</svg>
