<?xml version="1.0" standalone="no"?>
 <!DOCTYPE svg PUBLIC "-//W3C//DTD SVG 1.1//EN" 
 "http://www.w3.org/Graphics/SVG/1.1/DTD/svg11.dtd"> 
<svg
  xmlns:svg="http://www.w3.org/2000/svg"
  xmlns="http://www.w3.org/2000/svg"
  xmlns:xlink="http://www.w3.org/1999/xlink"
  version="1.1"
  width="65.4050mm" height="18.2880mm" viewBox="0.0000 0.0000 65.4050 18.2880">
<title>SVG Image created as working.svg date 2023/07/31 17:16:19 </title>
  <desc>Image generated by Eeschema-SVG </desc>
<g style="fill:#000000; fill-opacity:1.0000;stroke:#000000; stroke-opacity:1.0000;
stroke-linecap:round; stroke-linejoin:round;"
 transform="translate(0 0) scale(1 1)">
</g>
<g style="fill:#840000; fill-opacity:0.0; 
stroke:#840000; stroke-width:0.0000; stroke-opacity:1; 
stroke-linecap:round; stroke-linejoin:round;">
</g>
<g style="fill:#FFFFC2; fill-opacity:0.0; 
stroke:#FFFFC2; stroke-width:0.0000; stroke-opacity:1; 
stroke-linecap:round; stroke-linejoin:round;">
</g>
<g style="fill:#FFFFC2; fill-opacity:1.0000; 
stroke:#FFFFC2; stroke-width:0.0000; stroke-opacity:1; 
stroke-linecap:round; stroke-linejoin:round;">
<path style="fill:#FFFFC2; fill-opacity:1.0000; 
stroke:#FFFFC2; stroke-width:0.0000; stroke-opacity:1; 
stroke-linecap:round; stroke-linejoin:round;fill-rule:evenodd;"
d="M 37.7864,9.1441
27.6264,4.0641
27.6264,14.2241
Z" /> 
</g>
<g style="fill:#840084; fill-opacity:1.0000; 
stroke:#840084; stroke-width:0.0000; stroke-opacity:1; 
stroke-linecap:round; stroke-linejoin:round;">
</g>
<g style="fill:#840000; fill-opacity:1.0000; 
stroke:#840000; stroke-width:0.0000; stroke-opacity:1; 
stroke-linecap:round; stroke-linejoin:round;">
</g>
<g style="fill:#840000; fill-opacity:0.0; 
stroke:#840000; stroke-width:0.2540; stroke-opacity:1; 
stroke-linecap:round; stroke-linejoin:round;">
<path style="fill:#840000; fill-opacity:0.0; 
stroke:#840000; stroke-width:0.2540; stroke-opacity:1; 
stroke-linecap:round; stroke-linejoin:round;fill:none"
d="M 37.7864,9.1441
27.6264,4.0641
27.6264,14.2241
Z" /> 
</g>
<g style="fill:#840000; fill-opacity:0.0; 
stroke:#840000; stroke-width:0.1524; stroke-opacity:1; 
stroke-linecap:round; stroke-linejoin:round;">
<path d="M37.7864 9.1441
L40.3264 9.1441
" />
</g>
<g style="fill:#A90000; fill-opacity:0.0; 
stroke:#A90000; stroke-width:0.1524; stroke-opacity:1; 
stroke-linecap:round; stroke-linejoin:round;">
<text x="39.0564" y="8.8901"
textLength="1.3365" font-size="1.6933" lengthAdjust="spacingAndGlyphs"
text-anchor="middle" opacity="0">1</text>
<g class="stroked-text"><desc>1</desc>
<path d="M39.4193 8.7346
L38.6936 8.7346
" />
<path d="M39.0564 8.7346
L39.0564 7.4646
" />
<path d="M39.0564 7.4646
L38.9355 7.6461
" />
<path d="M38.9355 7.6461
L38.8145 7.7670
" />
<path d="M38.8145 7.7670
L38.6936 7.8275
" />
</g></g>
<g style="fill:#840000; fill-opacity:0.0; 
stroke:#840000; stroke-width:0.1524; stroke-opacity:1; 
stroke-linecap:round; stroke-linejoin:round;">
<path d="M32.7064 6.6041
L32.7064 1.5241
" />
</g>
<g style="fill:#006464; fill-opacity:0.0; 
stroke:#006464; stroke-width:0.1524; stroke-opacity:1; 
stroke-linecap:round; stroke-linejoin:round;">
</g>
<g style="fill:#006464; fill-opacity:0.0; 
stroke:#006464; stroke-width:0.1016; stroke-opacity:1; 
stroke-linecap:round; stroke-linejoin:round;">
<g transform="rotate(-90.000000 32.7064 6.7311)">
<text x="32.7064" y="6.9851"
textLength="2.1118" font-size="0.6773" lengthAdjust="spacingAndGlyphs"
text-anchor="end" opacity="0">MUTE</text>
</g>
<g class="stroked-text"><desc>MUTE</desc>
<path d="M32.9414 8.5695
L32.4334 8.5695
" />
<path d="M32.4334 8.5695
L32.7963 8.4002
" />
<path d="M32.7963 8.4002
L32.4334 8.2308
" />
<path d="M32.4334 8.2308
L32.9414 8.2308
" />
<path d="M32.4334 7.9889
L32.8447 7.9889
" />
<path d="M32.8447 7.9889
L32.8931 7.9647
" />
<path d="M32.8931 7.9647
L32.9173 7.9405
" />
<path d="M32.9173 7.9405
L32.9414 7.8921
" />
<path d="M32.9414 7.8921
L32.9414 7.7954
" />
<path d="M32.9414 7.7954
L32.9173 7.7470
" />
<path d="M32.9173 7.7470
L32.8931 7.7228
" />
<path d="M32.8931 7.7228
L32.8447 7.6986
" />
<path d="M32.8447 7.6986
L32.4334 7.6986
" />
<path d="M32.4334 7.5293
L32.4334 7.2390
" />
<path d="M32.9414 7.3841
L32.4334 7.3841
" />
<path d="M32.6753 7.0697
L32.6753 6.9004
" />
<path d="M32.9414 6.8278
L32.9414 7.0697
" />
<path d="M32.9414 7.0697
L32.4334 7.0697
" />
<path d="M32.4334 7.0697
L32.4334 6.8278
" />
</g></g>
<g style="fill:#A90000; fill-opacity:0.0; 
stroke:#A90000; stroke-width:0.1016; stroke-opacity:1; 
stroke-linecap:round; stroke-linejoin:round;">
</g>
<g style="fill:#A90000; fill-opacity:0.0; 
stroke:#A90000; stroke-width:0.1524; stroke-opacity:1; 
stroke-linecap:round; stroke-linejoin:round;">
<g transform="rotate(-90.000000 32.4524 4.0641)">
<text x="32.4524" y="4.0641"
textLength="1.3365" font-size="1.6933" lengthAdjust="spacingAndGlyphs"
text-anchor="middle" opacity="0">4</text>
</g>
<g class="stroked-text"><desc>4</desc>
<path d="M31.4503 3.8221
L32.2969 3.8221
" />
<path d="M30.9665 4.1245
L31.8736 4.4268
" />
<path d="M31.8736 4.4268
L31.8736 3.6407
" />
</g></g>
<g style="fill:#840000; fill-opacity:0.0; 
stroke:#840000; stroke-width:0.1524; stroke-opacity:1; 
stroke-linecap:round; stroke-linejoin:round;">
<path d="M32.7064 11.6841
L32.7064 16.7641
" />
</g>
<g style="fill:#006464; fill-opacity:0.0; 
stroke:#006464; stroke-width:0.1524; stroke-opacity:1; 
stroke-linecap:round; stroke-linejoin:round;">
</g>
<g style="fill:#006464; fill-opacity:0.0; 
stroke:#006464; stroke-width:0.1016; stroke-opacity:1; 
stroke-linecap:round; stroke-linejoin:round;">
<g transform="rotate(-90.000000 32.7064 11.5571)">
<text x="32.7064" y="11.8111"
textLength="1.7006" font-size="0.6773" lengthAdjust="spacingAndGlyphs"
text-anchor="start" opacity="0">GND</text>
</g>
<g class="stroked-text"><desc>GND</desc>
<path d="M32.4576 11.1700
L32.4334 11.2184
" />
<path d="M32.4334 11.2184
L32.4334 11.2910
" />
<path d="M32.4334 11.2910
L32.4576 11.3635
" />
<path d="M32.4576 11.3635
L32.5060 11.4119
" />
<path d="M32.5060 11.4119
L32.5544 11.4361
" />
<path d="M32.5544 11.4361
L32.6512 11.4603
" />
<path d="M32.6512 11.4603
L32.7237 11.4603
" />
<path d="M32.7237 11.4603
L32.8205 11.4361
" />
<path d="M32.8205 11.4361
L32.8689 11.4119
" />
<path d="M32.8689 11.4119
L32.9173 11.3635
" />
<path d="M32.9173 11.3635
L32.9414 11.2910
" />
<path d="M32.9414 11.2910
L32.9414 11.2426
" />
<path d="M32.9414 11.2426
L32.9173 11.1700
" />
<path d="M32.9173 11.1700
L32.8931 11.1458
" />
<path d="M32.8931 11.1458
L32.7237 11.1458
" />
<path d="M32.7237 11.1458
L32.7237 11.2426
" />
<path d="M32.9414 10.9281
L32.4334 10.9281
" />
<path d="M32.4334 10.9281
L32.9414 10.6378
" />
<path d="M32.9414 10.6378
L32.4334 10.6378
" />
<path d="M32.9414 10.3959
L32.4334 10.3959
" />
<path d="M32.4334 10.3959
L32.4334 10.2749
" />
<path d="M32.4334 10.2749
L32.4576 10.2024
" />
<path d="M32.4576 10.2024
L32.5060 10.1540
" />
<path d="M32.5060 10.1540
L32.5544 10.1298
" />
<path d="M32.5544 10.1298
L32.6512 10.1056
" />
<path d="M32.6512 10.1056
L32.7237 10.1056
" />
<path d="M32.7237 10.1056
L32.8205 10.1298
" />
<path d="M32.8205 10.1298
L32.8689 10.1540
" />
<path d="M32.8689 10.1540
L32.9173 10.2024
" />
<path d="M32.9173 10.2024
L32.9414 10.2749
" />
<path d="M32.9414 10.2749
L32.9414 10.3959
" />
</g></g>
<g style="fill:#A90000; fill-opacity:0.0; 
stroke:#A90000; stroke-width:0.1016; stroke-opacity:1; 
stroke-linecap:round; stroke-linejoin:round;">
</g>
<g style="fill:#A90000; fill-opacity:0.0; 
stroke:#A90000; stroke-width:0.1524; stroke-opacity:1; 
stroke-linecap:round; stroke-linejoin:round;">
<g transform="rotate(-90.000000 32.4524 14.2241)">
<text x="32.4524" y="14.2241"
textLength="1.3365" font-size="1.6933" lengthAdjust="spacingAndGlyphs"
text-anchor="middle" opacity="0">7</text>
</g>
<g class="stroked-text"><desc>7</desc>
<path d="M31.0269 14.6473
L31.0269 13.8007
" />
<path d="M31.0269 13.8007
L32.2969 14.3449
" />
</g></g>
<g style="fill:#840000; fill-opacity:0.0; 
stroke:#840000; stroke-width:0.1524; stroke-opacity:1; 
stroke-linecap:round; stroke-linejoin:round;">
<path d="M27.6264 9.1441
L25.0864 9.1441
" />
</g>
<g style="fill:#006464; fill-opacity:0.0; 
stroke:#006464; stroke-width:0.1524; stroke-opacity:1; 
stroke-linecap:round; stroke-linejoin:round;">
<text x="27.7534" y="9.7791"
textLength="2.0623" font-size="1.6933" lengthAdjust="spacingAndGlyphs"
text-anchor="start" opacity="0">IN</text>
<g class="stroked-text"><desc>IN</desc>
<path d="M28.0557 9.7316
L28.0557 8.4616
" />
<path d="M28.6605 9.7316
L28.6605 8.4616
" />
<path d="M28.6605 8.4616
L29.3862 9.7316
" />
<path d="M29.3862 9.7316
L29.3862 8.4616
" />
</g></g>
<g style="fill:#A90000; fill-opacity:0.0; 
stroke:#A90000; stroke-width:0.1524; stroke-opacity:1; 
stroke-linecap:round; stroke-linejoin:round;">
<text x="26.3564" y="8.8901"
textLength="1.3365" font-size="1.6933" lengthAdjust="spacingAndGlyphs"
text-anchor="middle" opacity="0">8</text>
<g class="stroked-text"><desc>8</desc>
<path d="M26.2355 8.0089
L26.1145 7.9484
" />
<path d="M26.1145 7.9484
L26.0540 7.8880
" />
<path d="M26.0540 7.8880
L25.9936 7.7670
" />
<path d="M25.9936 7.7670
L25.9936 7.7065
" />
<path d="M25.9936 7.7065
L26.0540 7.5856
" />
<path d="M26.0540 7.5856
L26.1145 7.5251
" />
<path d="M26.1145 7.5251
L26.2355 7.4646
" />
<path d="M26.2355 7.4646
L26.4774 7.4646
" />
<path d="M26.4774 7.4646
L26.5983 7.5251
" />
<path d="M26.5983 7.5251
L26.6588 7.5856
" />
<path d="M26.6588 7.5856
L26.7193 7.7065
" />
<path d="M26.7193 7.7065
L26.7193 7.7670
" />
<path d="M26.7193 7.7670
L26.6588 7.8880
" />
<path d="M26.6588 7.8880
L26.5983 7.9484
" />
<path d="M26.5983 7.9484
L26.4774 8.0089
" />
<path d="M26.4774 8.0089
L26.2355 8.0089
" />
<path d="M26.2355 8.0089
L26.1145 8.0694
" />
<path d="M26.1145 8.0694
L26.0540 8.1299
" />
<path d="M26.0540 8.1299
L25.9936 8.2508
" />
<path d="M25.9936 8.2508
L25.9936 8.4927
" />
<path d="M25.9936 8.4927
L26.0540 8.6137
" />
<path d="M26.0540 8.6137
L26.1145 8.6742
" />
<path d="M26.1145 8.6742
L26.2355 8.7346
" />
<path d="M26.2355 8.7346
L26.4774 8.7346
" />
<path d="M26.4774 8.7346
L26.5983 8.6742
" />
<path d="M26.5983 8.6742
L26.6588 8.6137
" />
<path d="M26.6588 8.6137
L26.7193 8.4927
" />
<path d="M26.7193 8.4927
L26.7193 8.2508
" />
<path d="M26.7193 8.2508
L26.6588 8.1299
" />
<path d="M26.6588 8.1299
L26.5983 8.0694
" />
<path d="M26.5983 8.0694
L26.4774 8.0089
" />
</g></g>
<g style="fill:#840084; fill-opacity:0.0; 
stroke:#840084; stroke-width:0.1524; stroke-opacity:1; 
stroke-linecap:round; stroke-linejoin:round;">
</g>
<g style="fill:#006464; fill-opacity:0.0; 
stroke:#006464; stroke-width:0.1524; stroke-opacity:1; 
stroke-linecap:round; stroke-linejoin:round;">
</g>
<g style="fill:#006464; fill-opacity:0.0; 
stroke:#006464; stroke-width:0.1588; stroke-opacity:1; 
stroke-linecap:round; stroke-linejoin:round;">
<text x="35.2464" y="3.4291"
textLength="3.6507" font-size="1.6933" lengthAdjust="spacingAndGlyphs"
text-anchor="middle" opacity="0">U?A</text>
<g class="stroked-text"><desc>U?A</desc>
<path d="M33.7949 2.1116
L33.7949 3.1397
" />
<path d="M33.7949 3.1397
L33.8554 3.2607
" />
<path d="M33.8554 3.2607
L33.9159 3.3212
" />
<path d="M33.9159 3.3212
L34.0368 3.3816
" />
<path d="M34.0368 3.3816
L34.2787 3.3816
" />
<path d="M34.2787 3.3816
L34.3997 3.3212
" />
<path d="M34.3997 3.3212
L34.4602 3.2607
" />
<path d="M34.4602 3.2607
L34.5206 3.1397
" />
<path d="M34.5206 3.1397
L34.5206 2.1116
" />
<path d="M35.3069 3.2607
L35.3673 3.3212
" />
<path d="M35.3673 3.3212
L35.3069 3.3816
" />
<path d="M35.3069 3.3816
L35.2464 3.3212
" />
<path d="M35.2464 3.3212
L35.3069 3.2607
" />
<path d="M35.3069 3.2607
L35.3069 3.3816
" />
<path d="M35.0650 2.1721
L35.1859 2.1116
" />
<path d="M35.1859 2.1116
L35.4883 2.1116
" />
<path d="M35.4883 2.1116
L35.6092 2.1721
" />
<path d="M35.6092 2.1721
L35.6697 2.2931
" />
<path d="M35.6697 2.2931
L35.6697 2.4140
" />
<path d="M35.6697 2.4140
L35.6092 2.5350
" />
<path d="M35.6092 2.5350
L35.5488 2.5954
" />
<path d="M35.5488 2.5954
L35.4278 2.6559
" />
<path d="M35.4278 2.6559
L35.3673 2.7164
" />
<path d="M35.3673 2.7164
L35.3069 2.8373
" />
<path d="M35.3069 2.8373
L35.3069 2.8978
" />
<path d="M36.1536 3.0188
L36.7583 3.0188
" />
<path d="M36.0326 3.3816
L36.4559 2.1116
" />
<path d="M36.4559 2.1116
L36.8793 3.3816
" />
</g><text x="37.7864" y="5.9691"
textLength="8.3072" font-size="1.6933" lengthAdjust="spacingAndGlyphs"
text-anchor="middle" opacity="0">TDA7264</text>
<g class="stroked-text"><desc>TDA7264</desc>
<path d="M33.8252 4.6516
L34.5509 4.6516
" />
<path d="M34.1881 5.9216
L34.1881 4.6516
" />
<path d="M34.9742 5.9216
L34.9742 4.6516
" />
<path d="M34.9742 4.6516
L35.2766 4.6516
" />
<path d="M35.2766 4.6516
L35.4580 4.7121
" />
<path d="M35.4580 4.7121
L35.5790 4.8331
" />
<path d="M35.5790 4.8331
L35.6395 4.9540
" />
<path d="M35.6395 4.9540
L35.6999 5.1959
" />
<path d="M35.6999 5.1959
L35.6999 5.3773
" />
<path d="M35.6999 5.3773
L35.6395 5.6192
" />
<path d="M35.6395 5.6192
L35.5790 5.7402
" />
<path d="M35.5790 5.7402
L35.4580 5.8612
" />
<path d="M35.4580 5.8612
L35.2766 5.9216
" />
<path d="M35.2766 5.9216
L34.9742 5.9216
" />
<path d="M36.1838 5.5588
L36.7885 5.5588
" />
<path d="M36.0628 5.9216
L36.4861 4.6516
" />
<path d="M36.4861 4.6516
L36.9095 5.9216
" />
<path d="M37.2119 4.6516
L38.0585 4.6516
" />
<path d="M38.0585 4.6516
L37.5143 5.9216
" />
<path d="M38.4819 4.7726
L38.5423 4.7121
" />
<path d="M38.5423 4.7121
L38.6633 4.6516
" />
<path d="M38.6633 4.6516
L38.9657 4.6516
" />
<path d="M38.9657 4.6516
L39.0866 4.7121
" />
<path d="M39.0866 4.7121
L39.1471 4.7726
" />
<path d="M39.1471 4.7726
L39.2076 4.8935
" />
<path d="M39.2076 4.8935
L39.2076 5.0145
" />
<path d="M39.2076 5.0145
L39.1471 5.1959
" />
<path d="M39.1471 5.1959
L38.4214 5.9216
" />
<path d="M38.4214 5.9216
L39.2076 5.9216
" />
<path d="M40.2961 4.6516
L40.0542 4.6516
" />
<path d="M40.0542 4.6516
L39.9333 4.7121
" />
<path d="M39.9333 4.7121
L39.8728 4.7726
" />
<path d="M39.8728 4.7726
L39.7518 4.9540
" />
<path d="M39.7518 4.9540
L39.6914 5.1959
" />
<path d="M39.6914 5.1959
L39.6914 5.6797
" />
<path d="M39.6914 5.6797
L39.7518 5.8007
" />
<path d="M39.7518 5.8007
L39.8123 5.8612
" />
<path d="M39.8123 5.8612
L39.9333 5.9216
" />
<path d="M39.9333 5.9216
L40.1752 5.9216
" />
<path d="M40.1752 5.9216
L40.2961 5.8612
" />
<path d="M40.2961 5.8612
L40.3566 5.8007
" />
<path d="M40.3566 5.8007
L40.4171 5.6797
" />
<path d="M40.4171 5.6797
L40.4171 5.3773
" />
<path d="M40.4171 5.3773
L40.3566 5.2564
" />
<path d="M40.3566 5.2564
L40.2961 5.1959
" />
<path d="M40.2961 5.1959
L40.1752 5.1354
" />
<path d="M40.1752 5.1354
L39.9333 5.1354
" />
<path d="M39.9333 5.1354
L39.8123 5.1959
" />
<path d="M39.8123 5.1959
L39.7518 5.2564
" />
<path d="M39.7518 5.2564
L39.6914 5.3773
" />
<path d="M41.5056 5.0750
L41.5056 5.9216
" />
<path d="M41.2032 4.5912
L40.9009 5.4983
" />
<path d="M40.9009 5.4983
L41.6870 5.4983
" />
</g></g>
<g style="fill:#840084; fill-opacity:0.0; 
stroke:#840084; stroke-width:0.1588; stroke-opacity:1; 
stroke-linecap:round; stroke-linejoin:round;">
<text x="32.7858" y="9.7791"
textLength="38.7194" font-size="1.6933" lengthAdjust="spacingAndGlyphs"
text-anchor="middle" opacity="0">Package_TO_SOT_THT:TO-220-8_Vertical</text>
<g class="stroked-text"><desc>Package_TO_SOT_THT:TO-220-8_Vertical</desc>
<path d="M13.7924 9.7316
L13.9511 8.4616
" />
<path d="M13.9511 8.4616
L14.4349 8.4616
" />
<path d="M14.4349 8.4616
L14.5483 8.5221
" />
<path d="M14.5483 8.5221
L14.6012 8.5826
" />
<path d="M14.6012 8.5826
L14.6466 8.7035
" />
<path d="M14.6466 8.7035
L14.6239 8.8850
" />
<path d="M14.6239 8.8850
L14.5483 9.0059
" />
<path d="M14.5483 9.0059
L14.4803 9.0664
" />
<path d="M14.4803 9.0664
L14.3518 9.1269
" />
<path d="M14.3518 9.1269
L13.8680 9.1269
" />
<path d="M15.5991 9.7316
L15.6822 9.0664
" />
<path d="M15.6822 9.0664
L15.6369 8.9454
" />
<path d="M15.6369 8.9454
L15.5235 8.8850
" />
<path d="M15.5235 8.8850
L15.2816 8.8850
" />
<path d="M15.2816 8.8850
L15.1530 8.9454
" />
<path d="M15.6066 9.6712
L15.4781 9.7316
" />
<path d="M15.4781 9.7316
L15.1757 9.7316
" />
<path d="M15.1757 9.7316
L15.0623 9.6712
" />
<path d="M15.0623 9.6712
L15.0170 9.5502
" />
<path d="M15.0170 9.5502
L15.0321 9.4292
" />
<path d="M15.0321 9.4292
L15.1077 9.3083
" />
<path d="M15.1077 9.3083
L15.2362 9.2478
" />
<path d="M15.2362 9.2478
L15.5386 9.2478
" />
<path d="M15.5386 9.2478
L15.6671 9.1873
" />
<path d="M16.7481 9.6712
L16.6196 9.7316
" />
<path d="M16.6196 9.7316
L16.3777 9.7316
" />
<path d="M16.3777 9.7316
L16.2643 9.6712
" />
<path d="M16.2643 9.6712
L16.2114 9.6107
" />
<path d="M16.2114 9.6107
L16.1660 9.4897
" />
<path d="M16.1660 9.4897
L16.2114 9.1269
" />
<path d="M16.2114 9.1269
L16.2870 9.0059
" />
<path d="M16.2870 9.0059
L16.3550 8.9454
" />
<path d="M16.3550 8.9454
L16.4835 8.8850
" />
<path d="M16.4835 8.8850
L16.7254 8.8850
" />
<path d="M16.7254 8.8850
L16.8388 8.9454
" />
<path d="M17.2773 9.7316
L17.4360 8.4616
" />
<path d="M17.4587 9.2478
L17.7611 9.7316
" />
<path d="M17.8669 8.8850
L17.3226 9.3688
" />
<path d="M18.8421 9.7316
L18.9252 9.0664
" />
<path d="M18.9252 9.0664
L18.8799 8.9454
" />
<path d="M18.8799 8.9454
L18.7665 8.8850
" />
<path d="M18.7665 8.8850
L18.5246 8.8850
" />
<path d="M18.5246 8.8850
L18.3960 8.9454
" />
<path d="M18.8496 9.6712
L18.7211 9.7316
" />
<path d="M18.7211 9.7316
L18.4187 9.7316
" />
<path d="M18.4187 9.7316
L18.3053 9.6712
" />
<path d="M18.3053 9.6712
L18.2600 9.5502
" />
<path d="M18.2600 9.5502
L18.2751 9.4292
" />
<path d="M18.2751 9.4292
L18.3507 9.3083
" />
<path d="M18.3507 9.3083
L18.4792 9.2478
" />
<path d="M18.4792 9.2478
L18.7816 9.2478
" />
<path d="M18.7816 9.2478
L18.9101 9.1873
" />
<path d="M20.0894 8.8850
L19.9609 9.9131
" />
<path d="M19.9609 9.9131
L19.8853 10.0340
" />
<path d="M19.8853 10.0340
L19.8172 10.0945
" />
<path d="M19.8172 10.0945
L19.6887 10.1550
" />
<path d="M19.6887 10.1550
L19.5073 10.1550
" />
<path d="M19.5073 10.1550
L19.3939 10.0945
" />
<path d="M19.9911 9.6712
L19.8626 9.7316
" />
<path d="M19.8626 9.7316
L19.6207 9.7316
" />
<path d="M19.6207 9.7316
L19.5073 9.6712
" />
<path d="M19.5073 9.6712
L19.4544 9.6107
" />
<path d="M19.4544 9.6107
L19.4090 9.4897
" />
<path d="M19.4090 9.4897
L19.4544 9.1269
" />
<path d="M19.4544 9.1269
L19.5300 9.0059
" />
<path d="M19.5300 9.0059
L19.5980 8.9454
" />
<path d="M19.5980 8.9454
L19.7265 8.8850
" />
<path d="M19.7265 8.8850
L19.9684 8.8850
" />
<path d="M19.9684 8.8850
L20.0818 8.9454
" />
<path d="M21.0192 9.6712
L20.8907 9.7316
" />
<path d="M20.8907 9.7316
L20.6488 9.7316
" />
<path d="M20.6488 9.7316
L20.5354 9.6712
" />
<path d="M20.5354 9.6712
L20.4901 9.5502
" />
<path d="M20.4901 9.5502
L20.5506 9.0664
" />
<path d="M20.5506 9.0664
L20.6261 8.9454
" />
<path d="M20.6261 8.9454
L20.7547 8.8850
" />
<path d="M20.7547 8.8850
L20.9966 8.8850
" />
<path d="M20.9966 8.8850
L21.1100 8.9454
" />
<path d="M21.1100 8.9454
L21.1553 9.0664
" />
<path d="M21.1553 9.0664
L21.1402 9.1873
" />
<path d="M21.1402 9.1873
L20.5203 9.3083
" />
<path d="M21.2914 9.8526
L22.2590 9.8526
" />
<path d="M22.5311 8.4616
L23.2568 8.4616
" />
<path d="M22.7352 9.7316
L22.8940 8.4616
" />
<path d="M23.9145 8.4616
L24.1564 8.4616
" />
<path d="M24.1564 8.4616
L24.2698 8.5221
" />
<path d="M24.2698 8.5221
L24.3757 8.6431
" />
<path d="M24.3757 8.6431
L24.4059 8.8850
" />
<path d="M24.4059 8.8850
L24.3530 9.3083
" />
<path d="M24.3530 9.3083
L24.2623 9.5502
" />
<path d="M24.2623 9.5502
L24.1262 9.6712
" />
<path d="M24.1262 9.6712
L23.9977 9.7316
" />
<path d="M23.9977 9.7316
L23.7558 9.7316
" />
<path d="M23.7558 9.7316
L23.6424 9.6712
" />
<path d="M23.6424 9.6712
L23.5366 9.5502
" />
<path d="M23.5366 9.5502
L23.5063 9.3083
" />
<path d="M23.5063 9.3083
L23.5592 8.8850
" />
<path d="M23.5592 8.8850
L23.6499 8.6431
" />
<path d="M23.6499 8.6431
L23.7860 8.5221
" />
<path d="M23.7860 8.5221
L23.9145 8.4616
" />
<path d="M24.5193 9.8526
L25.4869 9.8526
" />
<path d="M25.7288 9.6712
L25.9026 9.7316
" />
<path d="M25.9026 9.7316
L26.2050 9.7316
" />
<path d="M26.2050 9.7316
L26.3335 9.6712
" />
<path d="M26.3335 9.6712
L26.4016 9.6107
" />
<path d="M26.4016 9.6107
L26.4771 9.4897
" />
<path d="M26.4771 9.4897
L26.4923 9.3688
" />
<path d="M26.4923 9.3688
L26.4469 9.2478
" />
<path d="M26.4469 9.2478
L26.3940 9.1873
" />
<path d="M26.3940 9.1873
L26.2806 9.1269
" />
<path d="M26.2806 9.1269
L26.0463 9.0664
" />
<path d="M26.0463 9.0664
L25.9329 9.0059
" />
<path d="M25.9329 9.0059
L25.8799 8.9454
" />
<path d="M25.8799 8.9454
L25.8346 8.8245
" />
<path d="M25.8346 8.8245
L25.8497 8.7035
" />
<path d="M25.8497 8.7035
L25.9253 8.5826
" />
<path d="M25.9253 8.5826
L25.9933 8.5221
" />
<path d="M25.9933 8.5221
L26.1219 8.4616
" />
<path d="M26.1219 8.4616
L26.4242 8.4616
" />
<path d="M26.4242 8.4616
L26.5981 8.5221
" />
<path d="M27.3843 8.4616
L27.6262 8.4616
" />
<path d="M27.6262 8.4616
L27.7396 8.5221
" />
<path d="M27.7396 8.5221
L27.8455 8.6431
" />
<path d="M27.8455 8.6431
L27.8757 8.8850
" />
<path d="M27.8757 8.8850
L27.8228 9.3083
" />
<path d="M27.8228 9.3083
L27.7321 9.5502
" />
<path d="M27.7321 9.5502
L27.5960 9.6712
" />
<path d="M27.5960 9.6712
L27.4675 9.7316
" />
<path d="M27.4675 9.7316
L27.2256 9.7316
" />
<path d="M27.2256 9.7316
L27.1122 9.6712
" />
<path d="M27.1122 9.6712
L27.0064 9.5502
" />
<path d="M27.0064 9.5502
L26.9761 9.3083
" />
<path d="M26.9761 9.3083
L27.0290 8.8850
" />
<path d="M27.0290 8.8850
L27.1197 8.6431
" />
<path d="M27.1197 8.6431
L27.2558 8.5221
" />
<path d="M27.2558 8.5221
L27.3843 8.4616
" />
<path d="M28.2839 8.4616
L29.0096 8.4616
" />
<path d="M28.4880 9.7316
L28.6468 8.4616
" />
<path d="M28.9492 9.8526
L29.9168 9.8526
" />
<path d="M30.1889 8.4616
L30.9146 8.4616
" />
<path d="M30.3930 9.7316
L30.5518 8.4616
" />
<path d="M31.1717 9.7316
L31.3304 8.4616
" />
<path d="M31.2548 9.0664
L31.9805 9.0664
" />
<path d="M31.8974 9.7316
L32.0561 8.4616
" />
<path d="M32.4719 8.4616
L33.1976 8.4616
" />
<path d="M32.6760 9.7316
L32.8348 8.4616
" />
<path d="M33.4698 9.6107
L33.5227 9.6712
" />
<path d="M33.5227 9.6712
L33.4547 9.7316
" />
<path d="M33.4547 9.7316
L33.4018 9.6712
" />
<path d="M33.4018 9.6712
L33.4698 9.6107
" />
<path d="M33.4698 9.6107
L33.4547 9.7316
" />
<path d="M33.5529 8.9454
L33.6059 9.0059
" />
<path d="M33.6059 9.0059
L33.5378 9.0664
" />
<path d="M33.5378 9.0664
L33.4849 9.0059
" />
<path d="M33.4849 9.0059
L33.5529 8.9454
" />
<path d="M33.5529 8.9454
L33.5378 9.0664
" />
<path d="M34.0292 8.4616
L34.7549 8.4616
" />
<path d="M34.2333 9.7316
L34.3921 8.4616
" />
<path d="M35.4126 8.4616
L35.6545 8.4616
" />
<path d="M35.6545 8.4616
L35.7679 8.5221
" />
<path d="M35.7679 8.5221
L35.8738 8.6431
" />
<path d="M35.8738 8.6431
L35.9040 8.8850
" />
<path d="M35.9040 8.8850
L35.8511 9.3083
" />
<path d="M35.8511 9.3083
L35.7604 9.5502
" />
<path d="M35.7604 9.5502
L35.6243 9.6712
" />
<path d="M35.6243 9.6712
L35.4958 9.7316
" />
<path d="M35.4958 9.7316
L35.2539 9.7316
" />
<path d="M35.2539 9.7316
L35.1405 9.6712
" />
<path d="M35.1405 9.6712
L35.0347 9.5502
" />
<path d="M35.0347 9.5502
L35.0044 9.3083
" />
<path d="M35.0044 9.3083
L35.0573 8.8850
" />
<path d="M35.0573 8.8850
L35.1480 8.6431
" />
<path d="M35.1480 8.6431
L35.2841 8.5221
" />
<path d="M35.2841 8.5221
L35.4126 8.4616
" />
<path d="M36.3953 9.2478
L37.3630 9.2478
" />
<path d="M37.9904 8.5826
L38.0585 8.5221
" />
<path d="M38.0585 8.5221
L38.1870 8.4616
" />
<path d="M38.1870 8.4616
L38.4894 8.4616
" />
<path d="M38.4894 8.4616
L38.6027 8.5221
" />
<path d="M38.6027 8.5221
L38.6557 8.5826
" />
<path d="M38.6557 8.5826
L38.7010 8.7035
" />
<path d="M38.7010 8.7035
L38.6859 8.8245
" />
<path d="M38.6859 8.8245
L38.6027 9.0059
" />
<path d="M38.6027 9.0059
L37.7863 9.7316
" />
<path d="M37.7863 9.7316
L38.5725 9.7316
" />
<path d="M39.1924 8.5826
L39.2605 8.5221
" />
<path d="M39.2605 8.5221
L39.3890 8.4616
" />
<path d="M39.3890 8.4616
L39.6914 8.4616
" />
<path d="M39.6914 8.4616
L39.8047 8.5221
" />
<path d="M39.8047 8.5221
L39.8577 8.5826
" />
<path d="M39.8577 8.5826
L39.9030 8.7035
" />
<path d="M39.9030 8.7035
L39.8879 8.8245
" />
<path d="M39.8879 8.8245
L39.8047 9.0059
" />
<path d="M39.8047 9.0059
L38.9883 9.7316
" />
<path d="M38.9883 9.7316
L39.7745 9.7316
" />
<path d="M40.7119 8.4616
L40.8329 8.4616
" />
<path d="M40.8329 8.4616
L40.9463 8.5221
" />
<path d="M40.9463 8.5221
L40.9992 8.5826
" />
<path d="M40.9992 8.5826
L41.0445 8.7035
" />
<path d="M41.0445 8.7035
L41.0748 8.9454
" />
<path d="M41.0748 8.9454
L41.0370 9.2478
" />
<path d="M41.0370 9.2478
L40.9463 9.4897
" />
<path d="M40.9463 9.4897
L40.8707 9.6107
" />
<path d="M40.8707 9.6107
L40.8026 9.6712
" />
<path d="M40.8026 9.6712
L40.6741 9.7316
" />
<path d="M40.6741 9.7316
L40.5532 9.7316
" />
<path d="M40.5532 9.7316
L40.4398 9.6712
" />
<path d="M40.4398 9.6712
L40.3869 9.6107
" />
<path d="M40.3869 9.6107
L40.3415 9.4897
" />
<path d="M40.3415 9.4897
L40.3113 9.2478
" />
<path d="M40.3113 9.2478
L40.3491 8.9454
" />
<path d="M40.3491 8.9454
L40.4398 8.7035
" />
<path d="M40.4398 8.7035
L40.5154 8.5826
" />
<path d="M40.5154 8.5826
L40.5834 8.5221
" />
<path d="M40.5834 8.5221
L40.7119 8.4616
" />
<path d="M41.5737 9.2478
L42.5414 9.2478
" />
<path d="M43.3578 9.0059
L43.2444 8.9454
" />
<path d="M43.2444 8.9454
L43.1915 8.8850
" />
<path d="M43.1915 8.8850
L43.1461 8.7640
" />
<path d="M43.1461 8.7640
L43.1537 8.7035
" />
<path d="M43.1537 8.7035
L43.2293 8.5826
" />
<path d="M43.2293 8.5826
L43.2973 8.5221
" />
<path d="M43.2973 8.5221
L43.4259 8.4616
" />
<path d="M43.4259 8.4616
L43.6678 8.4616
" />
<path d="M43.6678 8.4616
L43.7811 8.5221
" />
<path d="M43.7811 8.5221
L43.8341 8.5826
" />
<path d="M43.8341 8.5826
L43.8794 8.7035
" />
<path d="M43.8794 8.7035
L43.8719 8.7640
" />
<path d="M43.8719 8.7640
L43.7963 8.8850
" />
<path d="M43.7963 8.8850
L43.7282 8.9454
" />
<path d="M43.7282 8.9454
L43.5997 9.0059
" />
<path d="M43.5997 9.0059
L43.3578 9.0059
" />
<path d="M43.3578 9.0059
L43.2293 9.0664
" />
<path d="M43.2293 9.0664
L43.1613 9.1269
" />
<path d="M43.1613 9.1269
L43.0857 9.2478
" />
<path d="M43.0857 9.2478
L43.0554 9.4897
" />
<path d="M43.0554 9.4897
L43.1008 9.6107
" />
<path d="M43.1008 9.6107
L43.1537 9.6712
" />
<path d="M43.1537 9.6712
L43.2671 9.7316
" />
<path d="M43.2671 9.7316
L43.5090 9.7316
" />
<path d="M43.5090 9.7316
L43.6375 9.6712
" />
<path d="M43.6375 9.6712
L43.7056 9.6107
" />
<path d="M43.7056 9.6107
L43.7811 9.4897
" />
<path d="M43.7811 9.4897
L43.8114 9.2478
" />
<path d="M43.8114 9.2478
L43.7660 9.1269
" />
<path d="M43.7660 9.1269
L43.7131 9.0664
" />
<path d="M43.7131 9.0664
L43.5997 9.0059
" />
<path d="M43.9702 9.8526
L44.9378 9.8526
" />
<path d="M45.2099 8.4616
L45.4745 9.7316
" />
<path d="M45.4745 9.7316
L46.0566 8.4616
" />
<path d="M46.8049 9.6712
L46.6764 9.7316
" />
<path d="M46.6764 9.7316
L46.4345 9.7316
" />
<path d="M46.4345 9.7316
L46.3211 9.6712
" />
<path d="M46.3211 9.6712
L46.2758 9.5502
" />
<path d="M46.2758 9.5502
L46.3363 9.0664
" />
<path d="M46.3363 9.0664
L46.4118 8.9454
" />
<path d="M46.4118 8.9454
L46.5404 8.8850
" />
<path d="M46.5404 8.8850
L46.7823 8.8850
" />
<path d="M46.7823 8.8850
L46.8957 8.9454
" />
<path d="M46.8957 8.9454
L46.9410 9.0664
" />
<path d="M46.9410 9.0664
L46.9259 9.1873
" />
<path d="M46.9259 9.1873
L46.3060 9.3083
" />
<path d="M47.3946 9.7316
L47.5004 8.8850
" />
<path d="M47.4702 9.1269
L47.5458 9.0059
" />
<path d="M47.5458 9.0059
L47.6138 8.9454
" />
<path d="M47.6138 8.9454
L47.7423 8.8850
" />
<path d="M47.7423 8.8850
L47.8633 8.8850
" />
<path d="M48.0976 8.8850
L48.5814 8.8850
" />
<path d="M48.3319 8.4616
L48.1959 9.5502
" />
<path d="M48.1959 9.5502
L48.2412 9.6712
" />
<path d="M48.2412 9.6712
L48.3546 9.7316
" />
<path d="M48.3546 9.7316
L48.4756 9.7316
" />
<path d="M48.8914 9.7316
L48.9972 8.8850
" />
<path d="M49.0501 8.4616
L48.9821 8.5221
" />
<path d="M48.9821 8.5221
L49.0350 8.5826
" />
<path d="M49.0350 8.5826
L49.1030 8.5221
" />
<path d="M49.1030 8.5221
L49.0501 8.4616
" />
<path d="M49.0501 8.4616
L49.0350 8.5826
" />
<path d="M50.0404 9.6712
L49.9119 9.7316
" />
<path d="M49.9119 9.7316
L49.6700 9.7316
" />
<path d="M49.6700 9.7316
L49.5566 9.6712
" />
<path d="M49.5566 9.6712
L49.5037 9.6107
" />
<path d="M49.5037 9.6107
L49.4583 9.4897
" />
<path d="M49.4583 9.4897
L49.5037 9.1269
" />
<path d="M49.5037 9.1269
L49.5793 9.0059
" />
<path d="M49.5793 9.0059
L49.6473 8.9454
" />
<path d="M49.6473 8.9454
L49.7758 8.8850
" />
<path d="M49.7758 8.8850
L50.0177 8.8850
" />
<path d="M50.0177 8.8850
L50.1311 8.9454
" />
<path d="M51.1139 9.7316
L51.1970 9.0664
" />
<path d="M51.1970 9.0664
L51.1517 8.9454
" />
<path d="M51.1517 8.9454
L51.0383 8.8850
" />
<path d="M51.0383 8.8850
L50.7964 8.8850
" />
<path d="M50.7964 8.8850
L50.6678 8.9454
" />
<path d="M51.1214 9.6712
L50.9929 9.7316
" />
<path d="M50.9929 9.7316
L50.6905 9.7316
" />
<path d="M50.6905 9.7316
L50.5771 9.6712
" />
<path d="M50.5771 9.6712
L50.5318 9.5502
" />
<path d="M50.5318 9.5502
L50.5469 9.4292
" />
<path d="M50.5469 9.4292
L50.6225 9.3083
" />
<path d="M50.6225 9.3083
L50.7510 9.2478
" />
<path d="M50.7510 9.2478
L51.0534 9.2478
" />
<path d="M51.0534 9.2478
L51.1819 9.1873
" />
<path d="M51.8925 9.7316
L51.7791 9.6712
" />
<path d="M51.7791 9.6712
L51.7338 9.5502
" />
<path d="M51.7338 9.5502
L51.8698 8.4616
" />
</g><text x="32.7064" y="9.7791"
textLength="54.5108" font-size="1.6933" lengthAdjust="spacingAndGlyphs"
text-anchor="middle" opacity="0">http://www.st.com/resource/en/datasheet/tda7264.pdf</text>
<g class="stroked-text"><desc>http://www.st.com/resource/en/datasheet/tda7264.pdf</desc>
<path d="M5.8248 9.7316
L5.8248 8.4616
" />
<path d="M6.3691 9.7316
L6.3691 9.0664
" />
<path d="M6.3691 9.0664
L6.3086 8.9454
" />
<path d="M6.3086 8.9454
L6.1877 8.8850
" />
<path d="M6.1877 8.8850
L6.0063 8.8850
" />
<path d="M6.0063 8.8850
L5.8853 8.9454
" />
<path d="M5.8853 8.9454
L5.8248 9.0059
" />
<path d="M6.7924 8.8850
L7.2762 8.8850
" />
<path d="M6.9738 8.4616
L6.9738 9.5502
" />
<path d="M6.9738 9.5502
L7.0343 9.6712
" />
<path d="M7.0343 9.6712
L7.1553 9.7316
" />
<path d="M7.1553 9.7316
L7.2762 9.7316
" />
<path d="M7.5181 8.8850
L8.0019 8.8850
" />
<path d="M7.6995 8.4616
L7.6995 9.5502
" />
<path d="M7.6995 9.5502
L7.7600 9.6712
" />
<path d="M7.7600 9.6712
L7.8810 9.7316
" />
<path d="M7.8810 9.7316
L8.0019 9.7316
" />
<path d="M8.4252 8.8850
L8.4252 10.1550
" />
<path d="M8.4252 8.9454
L8.5462 8.8850
" />
<path d="M8.5462 8.8850
L8.7881 8.8850
" />
<path d="M8.7881 8.8850
L8.9090 8.9454
" />
<path d="M8.9090 8.9454
L8.9695 9.0059
" />
<path d="M8.9695 9.0059
L9.0300 9.1269
" />
<path d="M9.0300 9.1269
L9.0300 9.4897
" />
<path d="M9.0300 9.4897
L8.9695 9.6107
" />
<path d="M8.9695 9.6107
L8.9090 9.6712
" />
<path d="M8.9090 9.6712
L8.7881 9.7316
" />
<path d="M8.7881 9.7316
L8.5462 9.7316
" />
<path d="M8.5462 9.7316
L8.4252 9.6712
" />
<path d="M9.5742 9.6107
L9.6347 9.6712
" />
<path d="M9.6347 9.6712
L9.5742 9.7316
" />
<path d="M9.5742 9.7316
L9.5138 9.6712
" />
<path d="M9.5138 9.6712
L9.5742 9.6107
" />
<path d="M9.5742 9.6107
L9.5742 9.7316
" />
<path d="M9.5742 8.9454
L9.6347 9.0059
" />
<path d="M9.6347 9.0059
L9.5742 9.0664
" />
<path d="M9.5742 9.0664
L9.5138 9.0059
" />
<path d="M9.5138 9.0059
L9.5742 8.9454
" />
<path d="M9.5742 8.9454
L9.5742 9.0664
" />
<path d="M11.0862 8.4012
L9.9976 10.0340
" />
<path d="M12.4167 8.4012
L11.3281 10.0340
" />
<path d="M12.7191 8.8850
L12.9610 9.7316
" />
<path d="M12.9610 9.7316
L13.2029 9.1269
" />
<path d="M13.2029 9.1269
L13.4448 9.7316
" />
<path d="M13.4448 9.7316
L13.6867 8.8850
" />
<path d="M14.0496 8.8850
L14.2915 9.7316
" />
<path d="M14.2915 9.7316
L14.5334 9.1269
" />
<path d="M14.5334 9.1269
L14.7753 9.7316
" />
<path d="M14.7753 9.7316
L15.0172 8.8850
" />
<path d="M15.3801 8.8850
L15.6220 9.7316
" />
<path d="M15.6220 9.7316
L15.8639 9.1269
" />
<path d="M15.8639 9.1269
L16.1058 9.7316
" />
<path d="M16.1058 9.7316
L16.3477 8.8850
" />
<path d="M16.8315 9.6107
L16.8920 9.6712
" />
<path d="M16.8920 9.6712
L16.8315 9.7316
" />
<path d="M16.8315 9.7316
L16.7711 9.6712
" />
<path d="M16.7711 9.6712
L16.8315 9.6107
" />
<path d="M16.8315 9.6107
L16.8315 9.7316
" />
<path d="M17.3759 9.6712
L17.4968 9.7316
" />
<path d="M17.4968 9.7316
L17.7387 9.7316
" />
<path d="M17.7387 9.7316
L17.8597 9.6712
" />
<path d="M17.8597 9.6712
L17.9201 9.5502
" />
<path d="M17.9201 9.5502
L17.9201 9.4897
" />
<path d="M17.9201 9.4897
L17.8597 9.3688
" />
<path d="M17.8597 9.3688
L17.7387 9.3083
" />
<path d="M17.7387 9.3083
L17.5573 9.3083
" />
<path d="M17.5573 9.3083
L17.4363 9.2478
" />
<path d="M17.4363 9.2478
L17.3759 9.1269
" />
<path d="M17.3759 9.1269
L17.3759 9.0664
" />
<path d="M17.3759 9.0664
L17.4363 8.9454
" />
<path d="M17.4363 8.9454
L17.5573 8.8850
" />
<path d="M17.5573 8.8850
L17.7387 8.8850
" />
<path d="M17.7387 8.8850
L17.8597 8.9454
" />
<path d="M18.2830 8.8850
L18.7668 8.8850
" />
<path d="M18.4644 8.4616
L18.4644 9.5502
" />
<path d="M18.4644 9.5502
L18.5249 9.6712
" />
<path d="M18.5249 9.6712
L18.6459 9.7316
" />
<path d="M18.6459 9.7316
L18.7668 9.7316
" />
<path d="M19.1901 9.6107
L19.2506 9.6712
" />
<path d="M19.2506 9.6712
L19.1901 9.7316
" />
<path d="M19.1901 9.7316
L19.1297 9.6712
" />
<path d="M19.1297 9.6712
L19.1901 9.6107
" />
<path d="M19.1901 9.6107
L19.1901 9.7316
" />
<path d="M20.3392 9.6712
L20.2183 9.7316
" />
<path d="M20.2183 9.7316
L19.9764 9.7316
" />
<path d="M19.9764 9.7316
L19.8554 9.6712
" />
<path d="M19.8554 9.6712
L19.7949 9.6107
" />
<path d="M19.7949 9.6107
L19.7345 9.4897
" />
<path d="M19.7345 9.4897
L19.7345 9.1269
" />
<path d="M19.7345 9.1269
L19.7949 9.0059
" />
<path d="M19.7949 9.0059
L19.8554 8.9454
" />
<path d="M19.8554 8.9454
L19.9764 8.8850
" />
<path d="M19.9764 8.8850
L20.2183 8.8850
" />
<path d="M20.2183 8.8850
L20.3392 8.9454
" />
<path d="M21.0650 9.7316
L20.9440 9.6712
" />
<path d="M20.9440 9.6712
L20.8835 9.6107
" />
<path d="M20.8835 9.6107
L20.8231 9.4897
" />
<path d="M20.8231 9.4897
L20.8231 9.1269
" />
<path d="M20.8231 9.1269
L20.8835 9.0059
" />
<path d="M20.8835 9.0059
L20.9440 8.9454
" />
<path d="M20.9440 8.9454
L21.0650 8.8850
" />
<path d="M21.0650 8.8850
L21.2464 8.8850
" />
<path d="M21.2464 8.8850
L21.3673 8.9454
" />
<path d="M21.3673 8.9454
L21.4278 9.0059
" />
<path d="M21.4278 9.0059
L21.4883 9.1269
" />
<path d="M21.4883 9.1269
L21.4883 9.4897
" />
<path d="M21.4883 9.4897
L21.4278 9.6107
" />
<path d="M21.4278 9.6107
L21.3673 9.6712
" />
<path d="M21.3673 9.6712
L21.2464 9.7316
" />
<path d="M21.2464 9.7316
L21.0650 9.7316
" />
<path d="M22.0325 9.7316
L22.0325 8.8850
" />
<path d="M22.0325 9.0059
L22.0930 8.9454
" />
<path d="M22.0930 8.9454
L22.2140 8.8850
" />
<path d="M22.2140 8.8850
L22.3954 8.8850
" />
<path d="M22.3954 8.8850
L22.5163 8.9454
" />
<path d="M22.5163 8.9454
L22.5768 9.0664
" />
<path d="M22.5768 9.0664
L22.5768 9.7316
" />
<path d="M22.5768 9.0664
L22.6373 8.9454
" />
<path d="M22.6373 8.9454
L22.7582 8.8850
" />
<path d="M22.7582 8.8850
L22.9397 8.8850
" />
<path d="M22.9397 8.8850
L23.0606 8.9454
" />
<path d="M23.0606 8.9454
L23.1211 9.0664
" />
<path d="M23.1211 9.0664
L23.1211 9.7316
" />
<path d="M24.6330 8.4012
L23.5444 10.0340
" />
<path d="M25.0563 9.7316
L25.0563 8.8850
" />
<path d="M25.0563 9.1269
L25.1168 9.0059
" />
<path d="M25.1168 9.0059
L25.1773 8.9454
" />
<path d="M25.1773 8.9454
L25.2982 8.8850
" />
<path d="M25.2982 8.8850
L25.4192 8.8850
" />
<path d="M26.3263 9.6712
L26.2054 9.7316
" />
<path d="M26.2054 9.7316
L25.9635 9.7316
" />
<path d="M25.9635 9.7316
L25.8425 9.6712
" />
<path d="M25.8425 9.6712
L25.7821 9.5502
" />
<path d="M25.7821 9.5502
L25.7821 9.0664
" />
<path d="M25.7821 9.0664
L25.8425 8.9454
" />
<path d="M25.8425 8.9454
L25.9635 8.8850
" />
<path d="M25.9635 8.8850
L26.2054 8.8850
" />
<path d="M26.2054 8.8850
L26.3263 8.9454
" />
<path d="M26.3263 8.9454
L26.3868 9.0664
" />
<path d="M26.3868 9.0664
L26.3868 9.1873
" />
<path d="M26.3868 9.1873
L25.7821 9.3083
" />
<path d="M26.8707 9.6712
L26.9916 9.7316
" />
<path d="M26.9916 9.7316
L27.2335 9.7316
" />
<path d="M27.2335 9.7316
L27.3545 9.6712
" />
<path d="M27.3545 9.6712
L27.4149 9.5502
" />
<path d="M27.4149 9.5502
L27.4149 9.4897
" />
<path d="M27.4149 9.4897
L27.3545 9.3688
" />
<path d="M27.3545 9.3688
L27.2335 9.3083
" />
<path d="M27.2335 9.3083
L27.0521 9.3083
" />
<path d="M27.0521 9.3083
L26.9311 9.2478
" />
<path d="M26.9311 9.2478
L26.8707 9.1269
" />
<path d="M26.8707 9.1269
L26.8707 9.0664
" />
<path d="M26.8707 9.0664
L26.9311 8.9454
" />
<path d="M26.9311 8.9454
L27.0521 8.8850
" />
<path d="M27.0521 8.8850
L27.2335 8.8850
" />
<path d="M27.2335 8.8850
L27.3545 8.9454
" />
<path d="M28.1407 9.7316
L28.0197 9.6712
" />
<path d="M28.0197 9.6712
L27.9592 9.6107
" />
<path d="M27.9592 9.6107
L27.8988 9.4897
" />
<path d="M27.8988 9.4897
L27.8988 9.1269
" />
<path d="M27.8988 9.1269
L27.9592 9.0059
" />
<path d="M27.9592 9.0059
L28.0197 8.9454
" />
<path d="M28.0197 8.9454
L28.1407 8.8850
" />
<path d="M28.1407 8.8850
L28.3221 8.8850
" />
<path d="M28.3221 8.8850
L28.4430 8.9454
" />
<path d="M28.4430 8.9454
L28.5035 9.0059
" />
<path d="M28.5035 9.0059
L28.5640 9.1269
" />
<path d="M28.5640 9.1269
L28.5640 9.4897
" />
<path d="M28.5640 9.4897
L28.5035 9.6107
" />
<path d="M28.5035 9.6107
L28.4430 9.6712
" />
<path d="M28.4430 9.6712
L28.3221 9.7316
" />
<path d="M28.3221 9.7316
L28.1407 9.7316
" />
<path d="M29.6525 8.8850
L29.6525 9.7316
" />
<path d="M29.1082 8.8850
L29.1082 9.5502
" />
<path d="M29.1082 9.5502
L29.1687 9.6712
" />
<path d="M29.1687 9.6712
L29.2897 9.7316
" />
<path d="M29.2897 9.7316
L29.4711 9.7316
" />
<path d="M29.4711 9.7316
L29.5920 9.6712
" />
<path d="M29.5920 9.6712
L29.6525 9.6107
" />
<path d="M30.2572 9.7316
L30.2572 8.8850
" />
<path d="M30.2572 9.1269
L30.3177 9.0059
" />
<path d="M30.3177 9.0059
L30.3782 8.9454
" />
<path d="M30.3782 8.9454
L30.4991 8.8850
" />
<path d="M30.4991 8.8850
L30.6201 8.8850
" />
<path d="M31.5877 9.6712
L31.4668 9.7316
" />
<path d="M31.4668 9.7316
L31.2249 9.7316
" />
<path d="M31.2249 9.7316
L31.1039 9.6712
" />
<path d="M31.1039 9.6712
L31.0434 9.6107
" />
<path d="M31.0434 9.6107
L30.9830 9.4897
" />
<path d="M30.9830 9.4897
L30.9830 9.1269
" />
<path d="M30.9830 9.1269
L31.0434 9.0059
" />
<path d="M31.0434 9.0059
L31.1039 8.9454
" />
<path d="M31.1039 8.9454
L31.2249 8.8850
" />
<path d="M31.2249 8.8850
L31.4668 8.8850
" />
<path d="M31.4668 8.8850
L31.5877 8.9454
" />
<path d="M32.6158 9.6712
L32.4949 9.7316
" />
<path d="M32.4949 9.7316
L32.2530 9.7316
" />
<path d="M32.2530 9.7316
L32.1320 9.6712
" />
<path d="M32.1320 9.6712
L32.0716 9.5502
" />
<path d="M32.0716 9.5502
L32.0716 9.0664
" />
<path d="M32.0716 9.0664
L32.1320 8.9454
" />
<path d="M32.1320 8.9454
L32.2530 8.8850
" />
<path d="M32.2530 8.8850
L32.4949 8.8850
" />
<path d="M32.4949 8.8850
L32.6158 8.9454
" />
<path d="M32.6158 8.9454
L32.6763 9.0664
" />
<path d="M32.6763 9.0664
L32.6763 9.1873
" />
<path d="M32.6763 9.1873
L32.0716 9.3083
" />
<path d="M34.1278 8.4012
L33.0392 10.0340
" />
<path d="M35.0349 9.6712
L34.9140 9.7316
" />
<path d="M34.9140 9.7316
L34.6721 9.7316
" />
<path d="M34.6721 9.7316
L34.5511 9.6712
" />
<path d="M34.5511 9.6712
L34.4907 9.5502
" />
<path d="M34.4907 9.5502
L34.4907 9.0664
" />
<path d="M34.4907 9.0664
L34.5511 8.9454
" />
<path d="M34.5511 8.9454
L34.6721 8.8850
" />
<path d="M34.6721 8.8850
L34.9140 8.8850
" />
<path d="M34.9140 8.8850
L35.0349 8.9454
" />
<path d="M35.0349 8.9454
L35.0954 9.0664
" />
<path d="M35.0954 9.0664
L35.0954 9.1873
" />
<path d="M35.0954 9.1873
L34.4907 9.3083
" />
<path d="M35.6397 8.8850
L35.6397 9.7316
" />
<path d="M35.6397 9.0059
L35.7002 8.9454
" />
<path d="M35.7002 8.9454
L35.8212 8.8850
" />
<path d="M35.8212 8.8850
L36.0026 8.8850
" />
<path d="M36.0026 8.8850
L36.1235 8.9454
" />
<path d="M36.1235 8.9454
L36.1840 9.0664
" />
<path d="M36.1840 9.0664
L36.1840 9.7316
" />
<path d="M37.6959 8.4012
L36.6073 10.0340
" />
<path d="M38.6635 9.7316
L38.6635 8.4616
" />
<path d="M38.6635 9.6712
L38.5426 9.7316
" />
<path d="M38.5426 9.7316
L38.3007 9.7316
" />
<path d="M38.3007 9.7316
L38.1797 9.6712
" />
<path d="M38.1797 9.6712
L38.1192 9.6107
" />
<path d="M38.1192 9.6107
L38.0588 9.4897
" />
<path d="M38.0588 9.4897
L38.0588 9.1269
" />
<path d="M38.0588 9.1269
L38.1192 9.0059
" />
<path d="M38.1192 9.0059
L38.1797 8.9454
" />
<path d="M38.1797 8.9454
L38.3007 8.8850
" />
<path d="M38.3007 8.8850
L38.5426 8.8850
" />
<path d="M38.5426 8.8850
L38.6635 8.9454
" />
<path d="M39.8125 9.7316
L39.8125 9.0664
" />
<path d="M39.8125 9.0664
L39.7520 8.9454
" />
<path d="M39.7520 8.9454
L39.6311 8.8850
" />
<path d="M39.6311 8.8850
L39.3892 8.8850
" />
<path d="M39.3892 8.8850
L39.2682 8.9454
" />
<path d="M39.8125 9.6712
L39.6916 9.7316
" />
<path d="M39.6916 9.7316
L39.3892 9.7316
" />
<path d="M39.3892 9.7316
L39.2682 9.6712
" />
<path d="M39.2682 9.6712
L39.2078 9.5502
" />
<path d="M39.2078 9.5502
L39.2078 9.4292
" />
<path d="M39.2078 9.4292
L39.2682 9.3083
" />
<path d="M39.2682 9.3083
L39.3892 9.2478
" />
<path d="M39.3892 9.2478
L39.6916 9.2478
" />
<path d="M39.6916 9.2478
L39.8125 9.1873
" />
<path d="M40.2358 8.8850
L40.7196 8.8850
" />
<path d="M40.4172 8.4616
L40.4172 9.5502
" />
<path d="M40.4172 9.5502
L40.4777 9.6712
" />
<path d="M40.4777 9.6712
L40.5987 9.7316
" />
<path d="M40.5987 9.7316
L40.7196 9.7316
" />
<path d="M41.6872 9.7316
L41.6872 9.0664
" />
<path d="M41.6872 9.0664
L41.6267 8.9454
" />
<path d="M41.6267 8.9454
L41.5058 8.8850
" />
<path d="M41.5058 8.8850
L41.2639 8.8850
" />
<path d="M41.2639 8.8850
L41.1429 8.9454
" />
<path d="M41.6872 9.6712
L41.5663 9.7316
" />
<path d="M41.5663 9.7316
L41.2639 9.7316
" />
<path d="M41.2639 9.7316
L41.1429 9.6712
" />
<path d="M41.1429 9.6712
L41.0825 9.5502
" />
<path d="M41.0825 9.5502
L41.0825 9.4292
" />
<path d="M41.0825 9.4292
L41.1429 9.3083
" />
<path d="M41.1429 9.3083
L41.2639 9.2478
" />
<path d="M41.2639 9.2478
L41.5663 9.2478
" />
<path d="M41.5663 9.2478
L41.6872 9.1873
" />
<path d="M42.2315 9.6712
L42.3524 9.7316
" />
<path d="M42.3524 9.7316
L42.5943 9.7316
" />
<path d="M42.5943 9.7316
L42.7153 9.6712
" />
<path d="M42.7153 9.6712
L42.7757 9.5502
" />
<path d="M42.7757 9.5502
L42.7757 9.4897
" />
<path d="M42.7757 9.4897
L42.7153 9.3688
" />
<path d="M42.7153 9.3688
L42.5943 9.3083
" />
<path d="M42.5943 9.3083
L42.4129 9.3083
" />
<path d="M42.4129 9.3083
L42.2919 9.2478
" />
<path d="M42.2919 9.2478
L42.2315 9.1269
" />
<path d="M42.2315 9.1269
L42.2315 9.0664
" />
<path d="M42.2315 9.0664
L42.2919 8.9454
" />
<path d="M42.2919 8.9454
L42.4129 8.8850
" />
<path d="M42.4129 8.8850
L42.5943 8.8850
" />
<path d="M42.5943 8.8850
L42.7153 8.9454
" />
<path d="M43.3200 9.7316
L43.3200 8.4616
" />
<path d="M43.8643 9.7316
L43.8643 9.0664
" />
<path d="M43.8643 9.0664
L43.8038 8.9454
" />
<path d="M43.8038 8.9454
L43.6829 8.8850
" />
<path d="M43.6829 8.8850
L43.5015 8.8850
" />
<path d="M43.5015 8.8850
L43.3805 8.9454
" />
<path d="M43.3805 8.9454
L43.3200 9.0059
" />
<path d="M44.9528 9.6712
L44.8319 9.7316
" />
<path d="M44.8319 9.7316
L44.5900 9.7316
" />
<path d="M44.5900 9.7316
L44.4690 9.6712
" />
<path d="M44.4690 9.6712
L44.4086 9.5502
" />
<path d="M44.4086 9.5502
L44.4086 9.0664
" />
<path d="M44.4086 9.0664
L44.4690 8.9454
" />
<path d="M44.4690 8.9454
L44.5900 8.8850
" />
<path d="M44.5900 8.8850
L44.8319 8.8850
" />
<path d="M44.8319 8.8850
L44.9528 8.9454
" />
<path d="M44.9528 8.9454
L45.0133 9.0664
" />
<path d="M45.0133 9.0664
L45.0133 9.1873
" />
<path d="M45.0133 9.1873
L44.4086 9.3083
" />
<path d="M46.0414 9.6712
L45.9205 9.7316
" />
<path d="M45.9205 9.7316
L45.6786 9.7316
" />
<path d="M45.6786 9.7316
L45.5576 9.6712
" />
<path d="M45.5576 9.6712
L45.4972 9.5502
" />
<path d="M45.4972 9.5502
L45.4972 9.0664
" />
<path d="M45.4972 9.0664
L45.5576 8.9454
" />
<path d="M45.5576 8.9454
L45.6786 8.8850
" />
<path d="M45.6786 8.8850
L45.9205 8.8850
" />
<path d="M45.9205 8.8850
L46.0414 8.9454
" />
<path d="M46.0414 8.9454
L46.1019 9.0664
" />
<path d="M46.1019 9.0664
L46.1019 9.1873
" />
<path d="M46.1019 9.1873
L45.4972 9.3083
" />
<path d="M46.4648 8.8850
L46.9486 8.8850
" />
<path d="M46.6462 8.4616
L46.6462 9.5502
" />
<path d="M46.6462 9.5502
L46.7067 9.6712
" />
<path d="M46.7067 9.6712
L46.8277 9.7316
" />
<path d="M46.8277 9.7316
L46.9486 9.7316
" />
<path d="M48.2791 8.4012
L47.1905 10.0340
" />
<path d="M48.5210 8.8850
L49.0048 8.8850
" />
<path d="M48.7024 8.4616
L48.7024 9.5502
" />
<path d="M48.7024 9.5502
L48.7629 9.6712
" />
<path d="M48.7629 9.6712
L48.8839 9.7316
" />
<path d="M48.8839 9.7316
L49.0048 9.7316
" />
<path d="M49.9724 9.7316
L49.9724 8.4616
" />
<path d="M49.9724 9.6712
L49.8515 9.7316
" />
<path d="M49.8515 9.7316
L49.6096 9.7316
" />
<path d="M49.6096 9.7316
L49.4886 9.6712
" />
<path d="M49.4886 9.6712
L49.4281 9.6107
" />
<path d="M49.4281 9.6107
L49.3677 9.4897
" />
<path d="M49.3677 9.4897
L49.3677 9.1269
" />
<path d="M49.3677 9.1269
L49.4281 9.0059
" />
<path d="M49.4281 9.0059
L49.4886 8.9454
" />
<path d="M49.4886 8.9454
L49.6096 8.8850
" />
<path d="M49.6096 8.8850
L49.8515 8.8850
" />
<path d="M49.8515 8.8850
L49.9724 8.9454
" />
<path d="M51.1214 9.7316
L51.1214 9.0664
" />
<path d="M51.1214 9.0664
L51.0609 8.9454
" />
<path d="M51.0609 8.9454
L50.9400 8.8850
" />
<path d="M50.9400 8.8850
L50.6981 8.8850
" />
<path d="M50.6981 8.8850
L50.5771 8.9454
" />
<path d="M51.1214 9.6712
L51.0005 9.7316
" />
<path d="M51.0005 9.7316
L50.6981 9.7316
" />
<path d="M50.6981 9.7316
L50.5771 9.6712
" />
<path d="M50.5771 9.6712
L50.5167 9.5502
" />
<path d="M50.5167 9.5502
L50.5167 9.4292
" />
<path d="M50.5167 9.4292
L50.5771 9.3083
" />
<path d="M50.5771 9.3083
L50.6981 9.2478
" />
<path d="M50.6981 9.2478
L51.0005 9.2478
" />
<path d="M51.0005 9.2478
L51.1214 9.1873
" />
<path d="M51.6052 8.4616
L52.4518 8.4616
" />
<path d="M52.4518 8.4616
L51.9076 9.7316
" />
<path d="M52.8752 8.5826
L52.9356 8.5221
" />
<path d="M52.9356 8.5221
L53.0566 8.4616
" />
<path d="M53.0566 8.4616
L53.3590 8.4616
" />
<path d="M53.3590 8.4616
L53.4799 8.5221
" />
<path d="M53.4799 8.5221
L53.5404 8.5826
" />
<path d="M53.5404 8.5826
L53.6009 8.7035
" />
<path d="M53.6009 8.7035
L53.6009 8.8245
" />
<path d="M53.6009 8.8245
L53.5404 9.0059
" />
<path d="M53.5404 9.0059
L52.8147 9.7316
" />
<path d="M52.8147 9.7316
L53.6009 9.7316
" />
<path d="M54.6894 8.4616
L54.4475 8.4616
" />
<path d="M54.4475 8.4616
L54.3266 8.5221
" />
<path d="M54.3266 8.5221
L54.2661 8.5826
" />
<path d="M54.2661 8.5826
L54.1451 8.7640
" />
<path d="M54.1451 8.7640
L54.0847 9.0059
" />
<path d="M54.0847 9.0059
L54.0847 9.4897
" />
<path d="M54.0847 9.4897
L54.1451 9.6107
" />
<path d="M54.1451 9.6107
L54.2056 9.6712
" />
<path d="M54.2056 9.6712
L54.3266 9.7316
" />
<path d="M54.3266 9.7316
L54.5685 9.7316
" />
<path d="M54.5685 9.7316
L54.6894 9.6712
" />
<path d="M54.6894 9.6712
L54.7499 9.6107
" />
<path d="M54.7499 9.6107
L54.8104 9.4897
" />
<path d="M54.8104 9.4897
L54.8104 9.1873
" />
<path d="M54.8104 9.1873
L54.7499 9.0664
" />
<path d="M54.7499 9.0664
L54.6894 9.0059
" />
<path d="M54.6894 9.0059
L54.5685 8.9454
" />
<path d="M54.5685 8.9454
L54.3266 8.9454
" />
<path d="M54.3266 8.9454
L54.2056 9.0059
" />
<path d="M54.2056 9.0059
L54.1451 9.0664
" />
<path d="M54.1451 9.0664
L54.0847 9.1873
" />
<path d="M55.8989 8.8850
L55.8989 9.7316
" />
<path d="M55.5965 8.4012
L55.2942 9.3083
" />
<path d="M55.2942 9.3083
L56.0803 9.3083
" />
<path d="M56.5641 9.6107
L56.6246 9.6712
" />
<path d="M56.6246 9.6712
L56.5641 9.7316
" />
<path d="M56.5641 9.7316
L56.5037 9.6712
" />
<path d="M56.5037 9.6712
L56.5641 9.6107
" />
<path d="M56.5641 9.6107
L56.5641 9.7316
" />
<path d="M57.1689 8.8850
L57.1689 10.1550
" />
<path d="M57.1689 8.9454
L57.2899 8.8850
" />
<path d="M57.2899 8.8850
L57.5318 8.8850
" />
<path d="M57.5318 8.8850
L57.6527 8.9454
" />
<path d="M57.6527 8.9454
L57.7132 9.0059
" />
<path d="M57.7132 9.0059
L57.7737 9.1269
" />
<path d="M57.7737 9.1269
L57.7737 9.4897
" />
<path d="M57.7737 9.4897
L57.7132 9.6107
" />
<path d="M57.7132 9.6107
L57.6527 9.6712
" />
<path d="M57.6527 9.6712
L57.5318 9.7316
" />
<path d="M57.5318 9.7316
L57.2899 9.7316
" />
<path d="M57.2899 9.7316
L57.1689 9.6712
" />
<path d="M58.8622 9.7316
L58.8622 8.4616
" />
<path d="M58.8622 9.6712
L58.7413 9.7316
" />
<path d="M58.7413 9.7316
L58.4994 9.7316
" />
<path d="M58.4994 9.7316
L58.3784 9.6712
" />
<path d="M58.3784 9.6712
L58.3179 9.6107
" />
<path d="M58.3179 9.6107
L58.2575 9.4897
" />
<path d="M58.2575 9.4897
L58.2575 9.1269
" />
<path d="M58.2575 9.1269
L58.3179 9.0059
" />
<path d="M58.3179 9.0059
L58.3784 8.9454
" />
<path d="M58.3784 8.9454
L58.4994 8.8850
" />
<path d="M58.4994 8.8850
L58.7413 8.8850
" />
<path d="M58.7413 8.8850
L58.8622 8.9454
" />
<path d="M59.2855 8.8850
L59.7693 8.8850
" />
<path d="M59.4669 9.7316
L59.4669 8.6431
" />
<path d="M59.4669 8.6431
L59.5274 8.5221
" />
<path d="M59.5274 8.5221
L59.6484 8.4616
" />
<path d="M59.6484 8.4616
L59.7693 8.4616
" />
</g></g> 
</svg>
