<?xml version="1.0" standalone="no"?>
 <!DOCTYPE svg PUBLIC "-//W3C//DTD SVG 1.1//EN" 
 "http://www.w3.org/Graphics/SVG/1.1/DTD/svg11.dtd"> 
<svg
  xmlns:svg="http://www.w3.org/2000/svg"
  xmlns="http://www.w3.org/2000/svg"
  xmlns:xlink="http://www.w3.org/1999/xlink"
  version="1.1"
  width="66.8020mm" height="51.6636mm" viewBox="0.0000 0.0000 66.8020 51.6636">
<title>SVG Image created as working.svg date 2023/08/03 20:48:32 </title>
  <desc>Image generated by Eeschema-SVG </desc>
<g style="fill:#000000; fill-opacity:1.0000;stroke:#000000; stroke-opacity:1.0000;
stroke-linecap:round; stroke-linejoin:round;"
 transform="translate(0 0) scale(1 1)">
</g>
<g style="fill:#840000; fill-opacity:0.0; 
stroke:#840000; stroke-width:0.0000; stroke-opacity:1; 
stroke-linecap:round; stroke-linejoin:round;">
</g>
<g style="fill:#FFFFC2; fill-opacity:0.0; 
stroke:#FFFFC2; stroke-width:0.0000; stroke-opacity:1; 
stroke-linecap:round; stroke-linejoin:round;">
</g>
<g style="fill:#FFFFC2; fill-opacity:1.0000; 
stroke:#FFFFC2; stroke-width:0.0000; stroke-opacity:1; 
stroke-linecap:round; stroke-linejoin:round;">
<rect x="28.327100" y="4.432800" width="10.160000" height="20.320000" rx="0.000000" />
</g>
<g style="fill:#840084; fill-opacity:1.0000; 
stroke:#840084; stroke-width:0.0000; stroke-opacity:1; 
stroke-linecap:round; stroke-linejoin:round;">
</g>
<g style="fill:#840000; fill-opacity:1.0000; 
stroke:#840000; stroke-width:0.0000; stroke-opacity:1; 
stroke-linecap:round; stroke-linejoin:round;">
</g>
<g style="fill:#840000; fill-opacity:0.0; 
stroke:#840000; stroke-width:0.2540; stroke-opacity:1; 
stroke-linecap:round; stroke-linejoin:round;">
<rect x="28.327100" y="4.432800" width="10.160000" height="20.320000" rx="0.000000" />
</g>
<g style="fill:#840000; fill-opacity:0.0; 
stroke:#840000; stroke-width:0.1524; stroke-opacity:1; 
stroke-linecap:round; stroke-linejoin:round;">
<path d="M28.3271 27.2928
L25.7871 27.2928
" />
</g>
<g style="fill:#006464; fill-opacity:0.0; 
stroke:#006464; stroke-width:0.1524; stroke-opacity:1; 
stroke-linecap:round; stroke-linejoin:round;">
<text x="28.8351" y="27.9278"
textLength="3.8318" font-size="1.6933" lengthAdjust="spacingAndGlyphs"
text-anchor="start" opacity="0">VDD</text>
<g class="stroked-text"><desc>VDD</desc>
<path d="M29.0562 26.6023
L29.4795 27.8723
" />
<path d="M29.4795 27.8723
L29.9029 26.6023
" />
<path d="M30.3262 27.8723
L30.3262 26.6023
" />
<path d="M30.3262 26.6023
L30.6286 26.6023
" />
<path d="M30.6286 26.6023
L30.8100 26.6628
" />
<path d="M30.8100 26.6628
L30.9310 26.7838
" />
<path d="M30.9310 26.7838
L30.9915 26.9047
" />
<path d="M30.9915 26.9047
L31.0519 27.1466
" />
<path d="M31.0519 27.1466
L31.0519 27.3280
" />
<path d="M31.0519 27.3280
L30.9915 27.5699
" />
<path d="M30.9915 27.5699
L30.9310 27.6909
" />
<path d="M30.9310 27.6909
L30.8100 27.8119
" />
<path d="M30.8100 27.8119
L30.6286 27.8723
" />
<path d="M30.6286 27.8723
L30.3262 27.8723
" />
<path d="M31.5962 27.8723
L31.5962 26.6023
" />
<path d="M31.5962 26.6023
L31.8986 26.6023
" />
<path d="M31.8986 26.6023
L32.0800 26.6628
" />
<path d="M32.0800 26.6628
L32.2010 26.7838
" />
<path d="M32.2010 26.7838
L32.2615 26.9047
" />
<path d="M32.2615 26.9047
L32.3219 27.1466
" />
<path d="M32.3219 27.1466
L32.3219 27.3280
" />
<path d="M32.3219 27.3280
L32.2615 27.5699
" />
<path d="M32.2615 27.5699
L32.2010 27.6909
" />
<path d="M32.2010 27.6909
L32.0800 27.8119
" />
<path d="M32.0800 27.8119
L31.8986 27.8723
" />
<path d="M31.8986 27.8723
L31.5962 27.8723
" />
</g></g>
<g style="fill:#A90000; fill-opacity:0.0; 
stroke:#A90000; stroke-width:0.1524; stroke-opacity:1; 
stroke-linecap:round; stroke-linejoin:round;">
<text x="27.0571" y="27.0388"
textLength="1.4127" font-size="1.6933" lengthAdjust="spacingAndGlyphs"
text-anchor="middle" opacity="0">1</text>
<g class="stroked-text"><desc>1</desc>
<path d="M27.4200 26.8753
L26.6943 26.8753
" />
<path d="M27.0571 26.8753
L27.0571 25.6053
" />
<path d="M27.0571 25.6053
L26.9362 25.7868
" />
<path d="M26.9362 25.7868
L26.8152 25.9077
" />
<path d="M26.8152 25.9077
L26.6943 25.9682
" />
</g></g>
<g style="fill:#840000; fill-opacity:0.0; 
stroke:#840000; stroke-width:0.1524; stroke-opacity:1; 
stroke-linecap:round; stroke-linejoin:round;">
<path d="M28.3271 37.4528
L25.7871 37.4528
" />
</g>
<g style="fill:#006464; fill-opacity:0.0; 
stroke:#006464; stroke-width:0.1524; stroke-opacity:1; 
stroke-linecap:round; stroke-linejoin:round;">
<text x="28.8351" y="38.0878"
textLength="2.1385" font-size="1.6933" lengthAdjust="spacingAndGlyphs"
text-anchor="start" opacity="0">IN</text>
<g class="stroked-text"><desc>IN</desc>
<path d="M29.2376 38.0323
L29.2376 36.7623
" />
<path d="M29.8424 38.0323
L29.8424 36.7623
" />
<path d="M29.8424 36.7623
L30.5681 38.0323
" />
<path d="M30.5681 38.0323
L30.5681 36.7623
" />
</g></g>
<g style="fill:#A90000; fill-opacity:0.0; 
stroke:#A90000; stroke-width:0.1524; stroke-opacity:1; 
stroke-linecap:round; stroke-linejoin:round;">
<text x="27.0571" y="37.1988"
textLength="1.4127" font-size="1.6933" lengthAdjust="spacingAndGlyphs"
text-anchor="middle" opacity="0">2</text>
<g class="stroked-text"><desc>2</desc>
<path d="M26.6943 35.8863
L26.7547 35.8258
" />
<path d="M26.7547 35.8258
L26.8757 35.7653
" />
<path d="M26.8757 35.7653
L27.1781 35.7653
" />
<path d="M27.1781 35.7653
L27.2990 35.8258
" />
<path d="M27.2990 35.8258
L27.3595 35.8863
" />
<path d="M27.3595 35.8863
L27.4200 36.0072
" />
<path d="M27.4200 36.0072
L27.4200 36.1282
" />
<path d="M27.4200 36.1282
L27.3595 36.3096
" />
<path d="M27.3595 36.3096
L26.6338 37.0353
" />
<path d="M26.6338 37.0353
L27.4200 37.0353
" />
</g></g>
<g style="fill:#840000; fill-opacity:0.0; 
stroke:#840000; stroke-width:0.1524; stroke-opacity:1; 
stroke-linecap:round; stroke-linejoin:round;">
<path d="M28.3271 42.5328
L25.7871 42.5328
" />
</g>
<g style="fill:#006464; fill-opacity:0.0; 
stroke:#006464; stroke-width:0.1524; stroke-opacity:1; 
stroke-linecap:round; stroke-linejoin:round;">
<text x="28.8351" y="43.1678"
textLength="4.0737" font-size="1.6933" lengthAdjust="spacingAndGlyphs"
text-anchor="start" opacity="0">GND</text>
<g class="stroked-text"><desc>GND</desc>
<path d="M29.9029 41.9028
L29.7819 41.8423
" />
<path d="M29.7819 41.8423
L29.6005 41.8423
" />
<path d="M29.6005 41.8423
L29.4191 41.9028
" />
<path d="M29.4191 41.9028
L29.2981 42.0238
" />
<path d="M29.2981 42.0238
L29.2376 42.1447
" />
<path d="M29.2376 42.1447
L29.1772 42.3866
" />
<path d="M29.1772 42.3866
L29.1772 42.5680
" />
<path d="M29.1772 42.5680
L29.2376 42.8099
" />
<path d="M29.2376 42.8099
L29.2981 42.9309
" />
<path d="M29.2981 42.9309
L29.4191 43.0519
" />
<path d="M29.4191 43.0519
L29.6005 43.1123
" />
<path d="M29.6005 43.1123
L29.7214 43.1123
" />
<path d="M29.7214 43.1123
L29.9029 43.0519
" />
<path d="M29.9029 43.0519
L29.9633 42.9914
" />
<path d="M29.9633 42.9914
L29.9633 42.5680
" />
<path d="M29.9633 42.5680
L29.7214 42.5680
" />
<path d="M30.5076 43.1123
L30.5076 41.8423
" />
<path d="M30.5076 41.8423
L31.2333 43.1123
" />
<path d="M31.2333 43.1123
L31.2333 41.8423
" />
<path d="M31.8381 43.1123
L31.8381 41.8423
" />
<path d="M31.8381 41.8423
L32.1405 41.8423
" />
<path d="M32.1405 41.8423
L32.3219 41.9028
" />
<path d="M32.3219 41.9028
L32.4429 42.0238
" />
<path d="M32.4429 42.0238
L32.5034 42.1447
" />
<path d="M32.5034 42.1447
L32.5638 42.3866
" />
<path d="M32.5638 42.3866
L32.5638 42.5680
" />
<path d="M32.5638 42.5680
L32.5034 42.8099
" />
<path d="M32.5034 42.8099
L32.4429 42.9309
" />
<path d="M32.4429 42.9309
L32.3219 43.0519
" />
<path d="M32.3219 43.0519
L32.1405 43.1123
" />
<path d="M32.1405 43.1123
L31.8381 43.1123
" />
</g></g>
<g style="fill:#A90000; fill-opacity:0.0; 
stroke:#A90000; stroke-width:0.1524; stroke-opacity:1; 
stroke-linecap:round; stroke-linejoin:round;">
<text x="27.0571" y="42.2788"
textLength="1.4127" font-size="1.6933" lengthAdjust="spacingAndGlyphs"
text-anchor="middle" opacity="0">4</text>
<g class="stroked-text"><desc>4</desc>
<path d="M27.2990 41.2687
L27.2990 42.1153
" />
<path d="M26.9966 40.7849
L26.6943 41.6920
" />
<path d="M26.6943 41.6920
L27.4804 41.6920
" />
</g></g>
<g style="fill:#840000; fill-opacity:0.0; 
stroke:#840000; stroke-width:0.1524; stroke-opacity:1; 
stroke-linecap:round; stroke-linejoin:round;">
<path d="M38.4871 39.9928
L41.0271 39.9928
" />
</g>
<g style="fill:#006464; fill-opacity:0.0; 
stroke:#006464; stroke-width:0.1524; stroke-opacity:1; 
stroke-linecap:round; stroke-linejoin:round;">
<text x="37.9791" y="40.6278"
textLength="2.5013" font-size="1.6933" lengthAdjust="spacingAndGlyphs"
text-anchor="end" opacity="0">VS</text>
<g class="stroked-text"><desc>VS</desc>
<path d="M35.7017 39.3023
L36.1250 40.5723
" />
<path d="M36.1250 40.5723
L36.5484 39.3023
" />
<path d="M36.9113 40.5119
L37.0927 40.5723
" />
<path d="M37.0927 40.5723
L37.3951 40.5723
" />
<path d="M37.3951 40.5723
L37.5160 40.5119
" />
<path d="M37.5160 40.5119
L37.5765 40.4514
" />
<path d="M37.5765 40.4514
L37.6370 40.3304
" />
<path d="M37.6370 40.3304
L37.6370 40.2095
" />
<path d="M37.6370 40.2095
L37.5765 40.0885
" />
<path d="M37.5765 40.0885
L37.5160 40.0280
" />
<path d="M37.5160 40.0280
L37.3951 39.9676
" />
<path d="M37.3951 39.9676
L37.1532 39.9071
" />
<path d="M37.1532 39.9071
L37.0322 39.8466
" />
<path d="M37.0322 39.8466
L36.9717 39.7861
" />
<path d="M36.9717 39.7861
L36.9113 39.6652
" />
<path d="M36.9113 39.6652
L36.9113 39.5442
" />
<path d="M36.9113 39.5442
L36.9717 39.4233
" />
<path d="M36.9717 39.4233
L37.0322 39.3628
" />
<path d="M37.0322 39.3628
L37.1532 39.3023
" />
<path d="M37.1532 39.3023
L37.4555 39.3023
" />
<path d="M37.4555 39.3023
L37.6370 39.3628
" />
</g></g>
<g style="fill:#A90000; fill-opacity:0.0; 
stroke:#A90000; stroke-width:0.1524; stroke-opacity:1; 
stroke-linecap:round; stroke-linejoin:round;">
<text x="39.7571" y="39.7388"
textLength="1.4127" font-size="1.6933" lengthAdjust="spacingAndGlyphs"
text-anchor="middle" opacity="0">6</text>
<g class="stroked-text"><desc>6</desc>
<path d="M39.9990 38.3053
L39.7571 38.3053
" />
<path d="M39.7571 38.3053
L39.6362 38.3658
" />
<path d="M39.6362 38.3658
L39.5757 38.4263
" />
<path d="M39.5757 38.4263
L39.4547 38.6077
" />
<path d="M39.4547 38.6077
L39.3943 38.8496
" />
<path d="M39.3943 38.8496
L39.3943 39.3334
" />
<path d="M39.3943 39.3334
L39.4547 39.4544
" />
<path d="M39.4547 39.4544
L39.5152 39.5149
" />
<path d="M39.5152 39.5149
L39.6362 39.5753
" />
<path d="M39.6362 39.5753
L39.8781 39.5753
" />
<path d="M39.8781 39.5753
L39.9990 39.5149
" />
<path d="M39.9990 39.5149
L40.0595 39.4544
" />
<path d="M40.0595 39.4544
L40.1200 39.3334
" />
<path d="M40.1200 39.3334
L40.1200 39.0310
" />
<path d="M40.1200 39.0310
L40.0595 38.9101
" />
<path d="M40.0595 38.9101
L39.9990 38.8496
" />
<path d="M39.9990 38.8496
L39.8781 38.7891
" />
<path d="M39.8781 38.7891
L39.6362 38.7891
" />
<path d="M39.6362 38.7891
L39.5152 38.8496
" />
<path d="M39.5152 38.8496
L39.4547 38.9101
" />
<path d="M39.4547 38.9101
L39.3943 39.0310
" />
</g></g>
<g style="fill:#840000; fill-opacity:0.0; 
stroke:#840000; stroke-width:0.1524; stroke-opacity:1; 
stroke-linecap:round; stroke-linejoin:round;">
<path d="M38.4871 37.4528
L41.0271 37.4528
" />
</g>
<g style="fill:#006464; fill-opacity:0.0; 
stroke:#006464; stroke-width:0.1524; stroke-opacity:1; 
stroke-linecap:round; stroke-linejoin:round;">
<text x="37.9791" y="38.0878"
textLength="2.8642" font-size="1.6933" lengthAdjust="spacingAndGlyphs"
text-anchor="end" opacity="0">HO</text>
<g class="stroked-text"><desc>HO</desc>
<path d="M35.5202 38.0323
L35.5202 36.7623
" />
<path d="M35.5202 37.3671
L36.2459 37.3671
" />
<path d="M36.2459 38.0323
L36.2459 36.7623
" />
<path d="M37.0926 36.7623
L37.3345 36.7623
" />
<path d="M37.3345 36.7623
L37.4555 36.8228
" />
<path d="M37.4555 36.8228
L37.5764 36.9438
" />
<path d="M37.5764 36.9438
L37.6369 37.1857
" />
<path d="M37.6369 37.1857
L37.6369 37.6090
" />
<path d="M37.6369 37.6090
L37.5764 37.8509
" />
<path d="M37.5764 37.8509
L37.4555 37.9719
" />
<path d="M37.4555 37.9719
L37.3345 38.0323
" />
<path d="M37.3345 38.0323
L37.0926 38.0323
" />
<path d="M37.0926 38.0323
L36.9717 37.9719
" />
<path d="M36.9717 37.9719
L36.8507 37.8509
" />
<path d="M36.8507 37.8509
L36.7903 37.6090
" />
<path d="M36.7903 37.6090
L36.7903 37.1857
" />
<path d="M36.7903 37.1857
L36.8507 36.9438
" />
<path d="M36.8507 36.9438
L36.9717 36.8228
" />
<path d="M36.9717 36.8228
L37.0926 36.7623
" />
</g></g>
<g style="fill:#A90000; fill-opacity:0.0; 
stroke:#A90000; stroke-width:0.1524; stroke-opacity:1; 
stroke-linecap:round; stroke-linejoin:round;">
<text x="39.7571" y="37.1988"
textLength="1.4127" font-size="1.6933" lengthAdjust="spacingAndGlyphs"
text-anchor="middle" opacity="0">7</text>
<g class="stroked-text"><desc>7</desc>
<path d="M39.3338 35.7653
L40.1804 35.7653
" />
<path d="M40.1804 35.7653
L39.6362 37.0353
" />
</g></g>
<g style="fill:#840000; fill-opacity:0.0; 
stroke:#840000; stroke-width:0.1524; stroke-opacity:1; 
stroke-linecap:round; stroke-linejoin:round;">
<path d="M38.4871 27.2928
L41.0271 27.2928
" />
</g>
<g style="fill:#006464; fill-opacity:0.0; 
stroke:#006464; stroke-width:0.1524; stroke-opacity:1; 
stroke-linecap:round; stroke-linejoin:round;">
<text x="37.9791" y="27.9278"
textLength="2.5618" font-size="1.6933" lengthAdjust="spacingAndGlyphs"
text-anchor="end" opacity="0">VB</text>
<g class="stroked-text"><desc>VB</desc>
<path d="M35.6412 26.6023
L36.0645 27.8723
" />
<path d="M36.0645 27.8723
L36.4879 26.6023
" />
<path d="M37.3346 27.2071
L37.5160 27.2676
" />
<path d="M37.5160 27.2676
L37.5765 27.3280
" />
<path d="M37.5765 27.3280
L37.6369 27.4490
" />
<path d="M37.6369 27.4490
L37.6369 27.6304
" />
<path d="M37.6369 27.6304
L37.5765 27.7514
" />
<path d="M37.5765 27.7514
L37.5160 27.8119
" />
<path d="M37.5160 27.8119
L37.3950 27.8723
" />
<path d="M37.3950 27.8723
L36.9112 27.8723
" />
<path d="M36.9112 27.8723
L36.9112 26.6023
" />
<path d="M36.9112 26.6023
L37.3346 26.6023
" />
<path d="M37.3346 26.6023
L37.4555 26.6628
" />
<path d="M37.4555 26.6628
L37.5160 26.7233
" />
<path d="M37.5160 26.7233
L37.5765 26.8442
" />
<path d="M37.5765 26.8442
L37.5765 26.9652
" />
<path d="M37.5765 26.9652
L37.5160 27.0861
" />
<path d="M37.5160 27.0861
L37.4555 27.1466
" />
<path d="M37.4555 27.1466
L37.3346 27.2071
" />
<path d="M37.3346 27.2071
L36.9112 27.2071
" />
</g></g>
<g style="fill:#A90000; fill-opacity:0.0; 
stroke:#A90000; stroke-width:0.1524; stroke-opacity:1; 
stroke-linecap:round; stroke-linejoin:round;">
<text x="39.7571" y="27.0388"
textLength="1.4127" font-size="1.6933" lengthAdjust="spacingAndGlyphs"
text-anchor="middle" opacity="0">8</text>
<g class="stroked-text"><desc>8</desc>
<path d="M39.6362 26.1496
L39.5152 26.0891
" />
<path d="M39.5152 26.0891
L39.4547 26.0287
" />
<path d="M39.4547 26.0287
L39.3943 25.9077
" />
<path d="M39.3943 25.9077
L39.3943 25.8472
" />
<path d="M39.3943 25.8472
L39.4547 25.7263
" />
<path d="M39.4547 25.7263
L39.5152 25.6658
" />
<path d="M39.5152 25.6658
L39.6362 25.6053
" />
<path d="M39.6362 25.6053
L39.8781 25.6053
" />
<path d="M39.8781 25.6053
L39.9990 25.6658
" />
<path d="M39.9990 25.6658
L40.0595 25.7263
" />
<path d="M40.0595 25.7263
L40.1200 25.8472
" />
<path d="M40.1200 25.8472
L40.1200 25.9077
" />
<path d="M40.1200 25.9077
L40.0595 26.0287
" />
<path d="M40.0595 26.0287
L39.9990 26.0891
" />
<path d="M39.9990 26.0891
L39.8781 26.1496
" />
<path d="M39.8781 26.1496
L39.6362 26.1496
" />
<path d="M39.6362 26.1496
L39.5152 26.2101
" />
<path d="M39.5152 26.2101
L39.4547 26.2706
" />
<path d="M39.4547 26.2706
L39.3943 26.3915
" />
<path d="M39.3943 26.3915
L39.3943 26.6334
" />
<path d="M39.3943 26.6334
L39.4547 26.7544
" />
<path d="M39.4547 26.7544
L39.5152 26.8149
" />
<path d="M39.5152 26.8149
L39.6362 26.8753
" />
<path d="M39.6362 26.8753
L39.8781 26.8753
" />
<path d="M39.8781 26.8753
L39.9990 26.8149
" />
<path d="M39.9990 26.8149
L40.0595 26.7544
" />
<path d="M40.0595 26.7544
L40.1200 26.6334
" />
<path d="M40.1200 26.6334
L40.1200 26.3915
" />
<path d="M40.1200 26.3915
L40.0595 26.2706
" />
<path d="M40.0595 26.2706
L39.9990 26.2101
" />
<path d="M39.9990 26.2101
L39.8781 26.1496
" />
</g></g>
<g style="fill:#840084; fill-opacity:0.0; 
stroke:#840084; stroke-width:0.1524; stroke-opacity:1; 
stroke-linecap:round; stroke-linejoin:round;">
</g>
<g style="fill:#006464; fill-opacity:0.0; 
stroke:#006464; stroke-width:0.1524; stroke-opacity:1; 
stroke-linecap:round; stroke-linejoin:round;">
</g>
<g style="fill:#006464; fill-opacity:0.0; 
stroke:#006464; stroke-width:0.1588; stroke-opacity:1; 
stroke-linecap:round; stroke-linejoin:round;">
<text x="33.4071" y="21.5778"
textLength="2.6415" font-size="1.6933" lengthAdjust="spacingAndGlyphs"
text-anchor="middle" opacity="0">U?</text>
<g class="stroked-text"><desc>U?</desc>
<path d="M32.4999 20.2520
L32.4999 21.2801
" />
<path d="M32.4999 21.2801
L32.5604 21.4011
" />
<path d="M32.5604 21.4011
L32.6209 21.4616
" />
<path d="M32.6209 21.4616
L32.7418 21.5220
" />
<path d="M32.7418 21.5220
L32.9837 21.5220
" />
<path d="M32.9837 21.5220
L33.1047 21.4616
" />
<path d="M33.1047 21.4616
L33.1652 21.4011
" />
<path d="M33.1652 21.4011
L33.2256 21.2801
" />
<path d="M33.2256 21.2801
L33.2256 20.2520
" />
<path d="M34.0119 21.4011
L34.0723 21.4616
" />
<path d="M34.0723 21.4616
L34.0119 21.5220
" />
<path d="M34.0119 21.5220
L33.9514 21.4616
" />
<path d="M33.9514 21.4616
L34.0119 21.4011
" />
<path d="M34.0119 21.4011
L34.0119 21.5220
" />
<path d="M33.7700 20.3125
L33.8909 20.2520
" />
<path d="M33.8909 20.2520
L34.1933 20.2520
" />
<path d="M34.1933 20.2520
L34.3142 20.3125
" />
<path d="M34.3142 20.3125
L34.3747 20.4335
" />
<path d="M34.3747 20.4335
L34.3747 20.5544
" />
<path d="M34.3747 20.5544
L34.3142 20.6754
" />
<path d="M34.3142 20.6754
L34.2538 20.7358
" />
<path d="M34.2538 20.7358
L34.1328 20.7963
" />
<path d="M34.1328 20.7963
L34.0723 20.8568
" />
<path d="M34.0723 20.8568
L34.0119 20.9777
" />
<path d="M34.0119 20.9777
L34.0119 21.0382
" />
</g><text x="33.4071" y="24.1178"
textLength="8.5681" font-size="1.6933" lengthAdjust="spacingAndGlyphs"
text-anchor="middle" opacity="0">FAN7371</text>
<g class="stroked-text"><desc>FAN7371</desc>
<path d="M29.9600 23.3968
L29.5366 23.3968
" />
<path d="M29.5366 24.0620
L29.5366 22.7920
" />
<path d="M29.5366 22.7920
L30.1414 22.7920
" />
<path d="M30.5648 23.6992
L31.1695 23.6992
" />
<path d="M30.4438 24.0620
L30.8671 22.7920
" />
<path d="M30.8671 22.7920
L31.2905 24.0620
" />
<path d="M31.7138 24.0620
L31.7138 22.7920
" />
<path d="M31.7138 22.7920
L32.4395 24.0620
" />
<path d="M32.4395 24.0620
L32.4395 22.7920
" />
<path d="M32.9234 22.7920
L33.7700 22.7920
" />
<path d="M33.7700 22.7920
L33.2258 24.0620
" />
<path d="M34.1329 22.7920
L34.9191 22.7920
" />
<path d="M34.9191 22.7920
L34.4957 23.2758
" />
<path d="M34.4957 23.2758
L34.6772 23.2758
" />
<path d="M34.6772 23.2758
L34.7981 23.3363
" />
<path d="M34.7981 23.3363
L34.8586 23.3968
" />
<path d="M34.8586 23.3968
L34.9191 23.5177
" />
<path d="M34.9191 23.5177
L34.9191 23.8201
" />
<path d="M34.9191 23.8201
L34.8586 23.9411
" />
<path d="M34.8586 23.9411
L34.7981 24.0016
" />
<path d="M34.7981 24.0016
L34.6772 24.0620
" />
<path d="M34.6772 24.0620
L34.3143 24.0620
" />
<path d="M34.3143 24.0620
L34.1934 24.0016
" />
<path d="M34.1934 24.0016
L34.1329 23.9411
" />
<path d="M35.3424 22.7920
L36.1890 22.7920
" />
<path d="M36.1890 22.7920
L35.6448 24.0620
" />
<path d="M37.3381 24.0620
L36.6124 24.0620
" />
<path d="M36.9752 24.0620
L36.9752 22.7920
" />
<path d="M36.9752 22.7920
L36.8543 22.9735
" />
<path d="M36.8543 22.9735
L36.7333 23.0944
" />
<path d="M36.7333 23.0944
L36.6124 23.1549
" />
</g></g>
<g style="fill:#840084; fill-opacity:0.0; 
stroke:#840084; stroke-width:0.1588; stroke-opacity:1; 
stroke-linecap:round; stroke-linejoin:round;">
<text x="33.4071" y="46.9778"
textLength="40.7412" font-size="1.6933" lengthAdjust="spacingAndGlyphs"
text-anchor="middle" opacity="0">Package_SO:SOIC-8_3.9x4.9mm_P1.27mm</text>
<g class="stroked-text"><desc>Package_SO:SOIC-8_3.9x4.9mm_P1.27mm</desc>
<path d="M13.4500 46.9220
L13.4500 45.6520
" />
<path d="M13.4500 45.6520
L13.9338 45.6520
" />
<path d="M13.9338 45.6520
L14.0548 45.7125
" />
<path d="M14.0548 45.7125
L14.1153 45.7730
" />
<path d="M14.1153 45.7730
L14.1757 45.8939
" />
<path d="M14.1757 45.8939
L14.1757 46.0754
" />
<path d="M14.1757 46.0754
L14.1153 46.1963
" />
<path d="M14.1153 46.1963
L14.0548 46.2568
" />
<path d="M14.0548 46.2568
L13.9338 46.3173
" />
<path d="M13.9338 46.3173
L13.4500 46.3173
" />
<path d="M15.2643 46.9220
L15.2643 46.2568
" />
<path d="M15.2643 46.2568
L15.2038 46.1358
" />
<path d="M15.2038 46.1358
L15.0829 46.0754
" />
<path d="M15.0829 46.0754
L14.8410 46.0754
" />
<path d="M14.8410 46.0754
L14.7200 46.1358
" />
<path d="M15.2643 46.8616
L15.1434 46.9220
" />
<path d="M15.1434 46.9220
L14.8410 46.9220
" />
<path d="M14.8410 46.9220
L14.7200 46.8616
" />
<path d="M14.7200 46.8616
L14.6596 46.7406
" />
<path d="M14.6596 46.7406
L14.6596 46.6196
" />
<path d="M14.6596 46.6196
L14.7200 46.4987
" />
<path d="M14.7200 46.4987
L14.8410 46.4382
" />
<path d="M14.8410 46.4382
L15.1434 46.4382
" />
<path d="M15.1434 46.4382
L15.2643 46.3777
" />
<path d="M16.4133 46.8616
L16.2924 46.9220
" />
<path d="M16.2924 46.9220
L16.0505 46.9220
" />
<path d="M16.0505 46.9220
L15.9295 46.8616
" />
<path d="M15.9295 46.8616
L15.8690 46.8011
" />
<path d="M15.8690 46.8011
L15.8086 46.6801
" />
<path d="M15.8086 46.6801
L15.8086 46.3173
" />
<path d="M15.8086 46.3173
L15.8690 46.1963
" />
<path d="M15.8690 46.1963
L15.9295 46.1358
" />
<path d="M15.9295 46.1358
L16.0505 46.0754
" />
<path d="M16.0505 46.0754
L16.2924 46.0754
" />
<path d="M16.2924 46.0754
L16.4133 46.1358
" />
<path d="M16.9576 46.9220
L16.9576 45.6520
" />
<path d="M17.0786 46.4382
L17.4414 46.9220
" />
<path d="M17.4414 46.0754
L16.9576 46.5592
" />
<path d="M18.5300 46.9220
L18.5300 46.2568
" />
<path d="M18.5300 46.2568
L18.4695 46.1358
" />
<path d="M18.4695 46.1358
L18.3486 46.0754
" />
<path d="M18.3486 46.0754
L18.1067 46.0754
" />
<path d="M18.1067 46.0754
L17.9857 46.1358
" />
<path d="M18.5300 46.8616
L18.4091 46.9220
" />
<path d="M18.4091 46.9220
L18.1067 46.9220
" />
<path d="M18.1067 46.9220
L17.9857 46.8616
" />
<path d="M17.9857 46.8616
L17.9253 46.7406
" />
<path d="M17.9253 46.7406
L17.9253 46.6196
" />
<path d="M17.9253 46.6196
L17.9857 46.4987
" />
<path d="M17.9857 46.4987
L18.1067 46.4382
" />
<path d="M18.1067 46.4382
L18.4091 46.4382
" />
<path d="M18.4091 46.4382
L18.5300 46.3777
" />
<path d="M19.6790 46.0754
L19.6790 47.1035
" />
<path d="M19.6790 47.1035
L19.6185 47.2244
" />
<path d="M19.6185 47.2244
L19.5581 47.2849
" />
<path d="M19.5581 47.2849
L19.4371 47.3454
" />
<path d="M19.4371 47.3454
L19.2557 47.3454
" />
<path d="M19.2557 47.3454
L19.1347 47.2849
" />
<path d="M19.6790 46.8616
L19.5581 46.9220
" />
<path d="M19.5581 46.9220
L19.3162 46.9220
" />
<path d="M19.3162 46.9220
L19.1952 46.8616
" />
<path d="M19.1952 46.8616
L19.1347 46.8011
" />
<path d="M19.1347 46.8011
L19.0743 46.6801
" />
<path d="M19.0743 46.6801
L19.0743 46.3173
" />
<path d="M19.0743 46.3173
L19.1347 46.1963
" />
<path d="M19.1347 46.1963
L19.1952 46.1358
" />
<path d="M19.1952 46.1358
L19.3162 46.0754
" />
<path d="M19.3162 46.0754
L19.5581 46.0754
" />
<path d="M19.5581 46.0754
L19.6790 46.1358
" />
<path d="M20.7675 46.8616
L20.6466 46.9220
" />
<path d="M20.6466 46.9220
L20.4047 46.9220
" />
<path d="M20.4047 46.9220
L20.2837 46.8616
" />
<path d="M20.2837 46.8616
L20.2233 46.7406
" />
<path d="M20.2233 46.7406
L20.2233 46.2568
" />
<path d="M20.2233 46.2568
L20.2837 46.1358
" />
<path d="M20.2837 46.1358
L20.4047 46.0754
" />
<path d="M20.4047 46.0754
L20.6466 46.0754
" />
<path d="M20.6466 46.0754
L20.7675 46.1358
" />
<path d="M20.7675 46.1358
L20.8280 46.2568
" />
<path d="M20.8280 46.2568
L20.8280 46.3777
" />
<path d="M20.8280 46.3777
L20.2233 46.4987
" />
<path d="M21.0700 47.0430
L22.0376 47.0430
" />
<path d="M22.2795 46.8616
L22.4609 46.9220
" />
<path d="M22.4609 46.9220
L22.7633 46.9220
" />
<path d="M22.7633 46.9220
L22.8842 46.8616
" />
<path d="M22.8842 46.8616
L22.9447 46.8011
" />
<path d="M22.9447 46.8011
L23.0052 46.6801
" />
<path d="M23.0052 46.6801
L23.0052 46.5592
" />
<path d="M23.0052 46.5592
L22.9447 46.4382
" />
<path d="M22.9447 46.4382
L22.8842 46.3777
" />
<path d="M22.8842 46.3777
L22.7633 46.3173
" />
<path d="M22.7633 46.3173
L22.5214 46.2568
" />
<path d="M22.5214 46.2568
L22.4004 46.1963
" />
<path d="M22.4004 46.1963
L22.3399 46.1358
" />
<path d="M22.3399 46.1358
L22.2795 46.0149
" />
<path d="M22.2795 46.0149
L22.2795 45.8939
" />
<path d="M22.2795 45.8939
L22.3399 45.7730
" />
<path d="M22.3399 45.7730
L22.4004 45.7125
" />
<path d="M22.4004 45.7125
L22.5214 45.6520
" />
<path d="M22.5214 45.6520
L22.8237 45.6520
" />
<path d="M22.8237 45.6520
L23.0052 45.7125
" />
<path d="M23.7913 45.6520
L24.0332 45.6520
" />
<path d="M24.0332 45.6520
L24.1542 45.7125
" />
<path d="M24.1542 45.7125
L24.2751 45.8335
" />
<path d="M24.2751 45.8335
L24.3356 46.0754
" />
<path d="M24.3356 46.0754
L24.3356 46.4987
" />
<path d="M24.3356 46.4987
L24.2751 46.7406
" />
<path d="M24.2751 46.7406
L24.1542 46.8616
" />
<path d="M24.1542 46.8616
L24.0332 46.9220
" />
<path d="M24.0332 46.9220
L23.7913 46.9220
" />
<path d="M23.7913 46.9220
L23.6704 46.8616
" />
<path d="M23.6704 46.8616
L23.5494 46.7406
" />
<path d="M23.5494 46.7406
L23.4890 46.4987
" />
<path d="M23.4890 46.4987
L23.4890 46.0754
" />
<path d="M23.4890 46.0754
L23.5494 45.8335
" />
<path d="M23.5494 45.8335
L23.6704 45.7125
" />
<path d="M23.6704 45.7125
L23.7913 45.6520
" />
<path d="M24.8799 46.8011
L24.9404 46.8616
" />
<path d="M24.9404 46.8616
L24.8799 46.9220
" />
<path d="M24.8799 46.9220
L24.8195 46.8616
" />
<path d="M24.8195 46.8616
L24.8799 46.8011
" />
<path d="M24.8799 46.8011
L24.8799 46.9220
" />
<path d="M24.8799 46.1358
L24.9404 46.1963
" />
<path d="M24.9404 46.1963
L24.8799 46.2568
" />
<path d="M24.8799 46.2568
L24.8195 46.1963
" />
<path d="M24.8195 46.1963
L24.8799 46.1358
" />
<path d="M24.8799 46.1358
L24.8799 46.2568
" />
<path d="M25.4243 46.8616
L25.6057 46.9220
" />
<path d="M25.6057 46.9220
L25.9081 46.9220
" />
<path d="M25.9081 46.9220
L26.0290 46.8616
" />
<path d="M26.0290 46.8616
L26.0895 46.8011
" />
<path d="M26.0895 46.8011
L26.1500 46.6801
" />
<path d="M26.1500 46.6801
L26.1500 46.5592
" />
<path d="M26.1500 46.5592
L26.0895 46.4382
" />
<path d="M26.0895 46.4382
L26.0290 46.3777
" />
<path d="M26.0290 46.3777
L25.9081 46.3173
" />
<path d="M25.9081 46.3173
L25.6662 46.2568
" />
<path d="M25.6662 46.2568
L25.5452 46.1963
" />
<path d="M25.5452 46.1963
L25.4847 46.1358
" />
<path d="M25.4847 46.1358
L25.4243 46.0149
" />
<path d="M25.4243 46.0149
L25.4243 45.8939
" />
<path d="M25.4243 45.8939
L25.4847 45.7730
" />
<path d="M25.4847 45.7730
L25.5452 45.7125
" />
<path d="M25.5452 45.7125
L25.6662 45.6520
" />
<path d="M25.6662 45.6520
L25.9685 45.6520
" />
<path d="M25.9685 45.6520
L26.1500 45.7125
" />
<path d="M26.9361 45.6520
L27.1780 45.6520
" />
<path d="M27.1780 45.6520
L27.2990 45.7125
" />
<path d="M27.2990 45.7125
L27.4199 45.8335
" />
<path d="M27.4199 45.8335
L27.4804 46.0754
" />
<path d="M27.4804 46.0754
L27.4804 46.4987
" />
<path d="M27.4804 46.4987
L27.4199 46.7406
" />
<path d="M27.4199 46.7406
L27.2990 46.8616
" />
<path d="M27.2990 46.8616
L27.1780 46.9220
" />
<path d="M27.1780 46.9220
L26.9361 46.9220
" />
<path d="M26.9361 46.9220
L26.8152 46.8616
" />
<path d="M26.8152 46.8616
L26.6942 46.7406
" />
<path d="M26.6942 46.7406
L26.6338 46.4987
" />
<path d="M26.6338 46.4987
L26.6338 46.0754
" />
<path d="M26.6338 46.0754
L26.6942 45.8335
" />
<path d="M26.6942 45.8335
L26.8152 45.7125
" />
<path d="M26.8152 45.7125
L26.9361 45.6520
" />
<path d="M28.0247 46.9220
L28.0247 45.6520
" />
<path d="M29.3552 46.8011
L29.2948 46.8616
" />
<path d="M29.2948 46.8616
L29.1133 46.9220
" />
<path d="M29.1133 46.9220
L28.9924 46.9220
" />
<path d="M28.9924 46.9220
L28.8110 46.8616
" />
<path d="M28.8110 46.8616
L28.6900 46.7406
" />
<path d="M28.6900 46.7406
L28.6295 46.6196
" />
<path d="M28.6295 46.6196
L28.5691 46.3777
" />
<path d="M28.5691 46.3777
L28.5691 46.1963
" />
<path d="M28.5691 46.1963
L28.6295 45.9544
" />
<path d="M28.6295 45.9544
L28.6900 45.8335
" />
<path d="M28.6900 45.8335
L28.8110 45.7125
" />
<path d="M28.8110 45.7125
L28.9924 45.6520
" />
<path d="M28.9924 45.6520
L29.1133 45.6520
" />
<path d="M29.1133 45.6520
L29.2948 45.7125
" />
<path d="M29.2948 45.7125
L29.3552 45.7730
" />
<path d="M29.8995 46.4382
L30.8672 46.4382
" />
<path d="M31.6534 46.1963
L31.5324 46.1358
" />
<path d="M31.5324 46.1358
L31.4719 46.0754
" />
<path d="M31.4719 46.0754
L31.4115 45.9544
" />
<path d="M31.4115 45.9544
L31.4115 45.8939
" />
<path d="M31.4115 45.8939
L31.4719 45.7730
" />
<path d="M31.4719 45.7730
L31.5324 45.7125
" />
<path d="M31.5324 45.7125
L31.6534 45.6520
" />
<path d="M31.6534 45.6520
L31.8953 45.6520
" />
<path d="M31.8953 45.6520
L32.0162 45.7125
" />
<path d="M32.0162 45.7125
L32.0767 45.7730
" />
<path d="M32.0767 45.7730
L32.1372 45.8939
" />
<path d="M32.1372 45.8939
L32.1372 45.9544
" />
<path d="M32.1372 45.9544
L32.0767 46.0754
" />
<path d="M32.0767 46.0754
L32.0162 46.1358
" />
<path d="M32.0162 46.1358
L31.8953 46.1963
" />
<path d="M31.8953 46.1963
L31.6534 46.1963
" />
<path d="M31.6534 46.1963
L31.5324 46.2568
" />
<path d="M31.5324 46.2568
L31.4719 46.3173
" />
<path d="M31.4719 46.3173
L31.4115 46.4382
" />
<path d="M31.4115 46.4382
L31.4115 46.6801
" />
<path d="M31.4115 46.6801
L31.4719 46.8011
" />
<path d="M31.4719 46.8011
L31.5324 46.8616
" />
<path d="M31.5324 46.8616
L31.6534 46.9220
" />
<path d="M31.6534 46.9220
L31.8953 46.9220
" />
<path d="M31.8953 46.9220
L32.0162 46.8616
" />
<path d="M32.0162 46.8616
L32.0767 46.8011
" />
<path d="M32.0767 46.8011
L32.1372 46.6801
" />
<path d="M32.1372 46.6801
L32.1372 46.4382
" />
<path d="M32.1372 46.4382
L32.0767 46.3173
" />
<path d="M32.0767 46.3173
L32.0162 46.2568
" />
<path d="M32.0162 46.2568
L31.8953 46.1963
" />
<path d="M32.3791 47.0430
L33.3467 47.0430
" />
<path d="M33.5281 45.6520
L34.3143 45.6520
" />
<path d="M34.3143 45.6520
L33.8909 46.1358
" />
<path d="M33.8909 46.1358
L34.0724 46.1358
" />
<path d="M34.0724 46.1358
L34.1933 46.1963
" />
<path d="M34.1933 46.1963
L34.2538 46.2568
" />
<path d="M34.2538 46.2568
L34.3143 46.3777
" />
<path d="M34.3143 46.3777
L34.3143 46.6801
" />
<path d="M34.3143 46.6801
L34.2538 46.8011
" />
<path d="M34.2538 46.8011
L34.1933 46.8616
" />
<path d="M34.1933 46.8616
L34.0724 46.9220
" />
<path d="M34.0724 46.9220
L33.7095 46.9220
" />
<path d="M33.7095 46.9220
L33.5886 46.8616
" />
<path d="M33.5886 46.8616
L33.5281 46.8011
" />
<path d="M34.8585 46.8011
L34.9190 46.8616
" />
<path d="M34.9190 46.8616
L34.8585 46.9220
" />
<path d="M34.8585 46.9220
L34.7981 46.8616
" />
<path d="M34.7981 46.8616
L34.8585 46.8011
" />
<path d="M34.8585 46.8011
L34.8585 46.9220
" />
<path d="M35.5238 46.9220
L35.7657 46.9220
" />
<path d="M35.7657 46.9220
L35.8867 46.8616
" />
<path d="M35.8867 46.8616
L35.9471 46.8011
" />
<path d="M35.9471 46.8011
L36.0681 46.6196
" />
<path d="M36.0681 46.6196
L36.1286 46.3777
" />
<path d="M36.1286 46.3777
L36.1286 45.8939
" />
<path d="M36.1286 45.8939
L36.0681 45.7730
" />
<path d="M36.0681 45.7730
L36.0076 45.7125
" />
<path d="M36.0076 45.7125
L35.8867 45.6520
" />
<path d="M35.8867 45.6520
L35.6448 45.6520
" />
<path d="M35.6448 45.6520
L35.5238 45.7125
" />
<path d="M35.5238 45.7125
L35.4633 45.7730
" />
<path d="M35.4633 45.7730
L35.4029 45.8939
" />
<path d="M35.4029 45.8939
L35.4029 46.1963
" />
<path d="M35.4029 46.1963
L35.4633 46.3173
" />
<path d="M35.4633 46.3173
L35.5238 46.3777
" />
<path d="M35.5238 46.3777
L35.6448 46.4382
" />
<path d="M35.6448 46.4382
L35.8867 46.4382
" />
<path d="M35.8867 46.4382
L36.0076 46.3777
" />
<path d="M36.0076 46.3777
L36.0681 46.3173
" />
<path d="M36.0681 46.3173
L36.1286 46.1963
" />
<path d="M36.5519 46.9220
L37.2171 46.0754
" />
<path d="M36.5519 46.0754
L37.2171 46.9220
" />
<path d="M38.2452 46.0754
L38.2452 46.9220
" />
<path d="M37.9428 45.5916
L37.6405 46.4987
" />
<path d="M37.6405 46.4987
L38.4266 46.4987
" />
<path d="M38.9104 46.8011
L38.9709 46.8616
" />
<path d="M38.9709 46.8616
L38.9104 46.9220
" />
<path d="M38.9104 46.9220
L38.8500 46.8616
" />
<path d="M38.8500 46.8616
L38.9104 46.8011
" />
<path d="M38.9104 46.8011
L38.9104 46.9220
" />
<path d="M39.5757 46.9220
L39.8176 46.9220
" />
<path d="M39.8176 46.9220
L39.9386 46.8616
" />
<path d="M39.9386 46.8616
L39.9990 46.8011
" />
<path d="M39.9990 46.8011
L40.1200 46.6196
" />
<path d="M40.1200 46.6196
L40.1805 46.3777
" />
<path d="M40.1805 46.3777
L40.1805 45.8939
" />
<path d="M40.1805 45.8939
L40.1200 45.7730
" />
<path d="M40.1200 45.7730
L40.0595 45.7125
" />
<path d="M40.0595 45.7125
L39.9386 45.6520
" />
<path d="M39.9386 45.6520
L39.6967 45.6520
" />
<path d="M39.6967 45.6520
L39.5757 45.7125
" />
<path d="M39.5757 45.7125
L39.5152 45.7730
" />
<path d="M39.5152 45.7730
L39.4548 45.8939
" />
<path d="M39.4548 45.8939
L39.4548 46.1963
" />
<path d="M39.4548 46.1963
L39.5152 46.3173
" />
<path d="M39.5152 46.3173
L39.5757 46.3777
" />
<path d="M39.5757 46.3777
L39.6967 46.4382
" />
<path d="M39.6967 46.4382
L39.9386 46.4382
" />
<path d="M39.9386 46.4382
L40.0595 46.3777
" />
<path d="M40.0595 46.3777
L40.1200 46.3173
" />
<path d="M40.1200 46.3173
L40.1805 46.1963
" />
<path d="M40.7247 46.9220
L40.7247 46.0754
" />
<path d="M40.7247 46.1963
L40.7852 46.1358
" />
<path d="M40.7852 46.1358
L40.9062 46.0754
" />
<path d="M40.9062 46.0754
L41.0876 46.0754
" />
<path d="M41.0876 46.0754
L41.2085 46.1358
" />
<path d="M41.2085 46.1358
L41.2690 46.2568
" />
<path d="M41.2690 46.2568
L41.2690 46.9220
" />
<path d="M41.2690 46.2568
L41.3295 46.1358
" />
<path d="M41.3295 46.1358
L41.4504 46.0754
" />
<path d="M41.4504 46.0754
L41.6319 46.0754
" />
<path d="M41.6319 46.0754
L41.7528 46.1358
" />
<path d="M41.7528 46.1358
L41.8133 46.2568
" />
<path d="M41.8133 46.2568
L41.8133 46.9220
" />
<path d="M42.4180 46.9220
L42.4180 46.0754
" />
<path d="M42.4180 46.1963
L42.4785 46.1358
" />
<path d="M42.4785 46.1358
L42.5995 46.0754
" />
<path d="M42.5995 46.0754
L42.7809 46.0754
" />
<path d="M42.7809 46.0754
L42.9018 46.1358
" />
<path d="M42.9018 46.1358
L42.9623 46.2568
" />
<path d="M42.9623 46.2568
L42.9623 46.9220
" />
<path d="M42.9623 46.2568
L43.0228 46.1358
" />
<path d="M43.0228 46.1358
L43.1437 46.0754
" />
<path d="M43.1437 46.0754
L43.3252 46.0754
" />
<path d="M43.3252 46.0754
L43.4461 46.1358
" />
<path d="M43.4461 46.1358
L43.5066 46.2568
" />
<path d="M43.5066 46.2568
L43.5066 46.9220
" />
<path d="M43.8090 47.0430
L44.7766 47.0430
" />
<path d="M45.0789 46.9220
L45.0789 45.6520
" />
<path d="M45.0789 45.6520
L45.5627 45.6520
" />
<path d="M45.5627 45.6520
L45.6837 45.7125
" />
<path d="M45.6837 45.7125
L45.7442 45.7730
" />
<path d="M45.7442 45.7730
L45.8046 45.8939
" />
<path d="M45.8046 45.8939
L45.8046 46.0754
" />
<path d="M45.8046 46.0754
L45.7442 46.1963
" />
<path d="M45.7442 46.1963
L45.6837 46.2568
" />
<path d="M45.6837 46.2568
L45.5627 46.3173
" />
<path d="M45.5627 46.3173
L45.0789 46.3173
" />
<path d="M47.0142 46.9220
L46.2885 46.9220
" />
<path d="M46.6513 46.9220
L46.6513 45.6520
" />
<path d="M46.6513 45.6520
L46.5304 45.8335
" />
<path d="M46.5304 45.8335
L46.4094 45.9544
" />
<path d="M46.4094 45.9544
L46.2885 46.0149
" />
<path d="M47.5584 46.8011
L47.6189 46.8616
" />
<path d="M47.6189 46.8616
L47.5584 46.9220
" />
<path d="M47.5584 46.9220
L47.4980 46.8616
" />
<path d="M47.4980 46.8616
L47.5584 46.8011
" />
<path d="M47.5584 46.8011
L47.5584 46.9220
" />
<path d="M48.1028 45.7730
L48.1632 45.7125
" />
<path d="M48.1632 45.7125
L48.2842 45.6520
" />
<path d="M48.2842 45.6520
L48.5866 45.6520
" />
<path d="M48.5866 45.6520
L48.7075 45.7125
" />
<path d="M48.7075 45.7125
L48.7680 45.7730
" />
<path d="M48.7680 45.7730
L48.8285 45.8939
" />
<path d="M48.8285 45.8939
L48.8285 46.0149
" />
<path d="M48.8285 46.0149
L48.7680 46.1963
" />
<path d="M48.7680 46.1963
L48.0423 46.9220
" />
<path d="M48.0423 46.9220
L48.8285 46.9220
" />
<path d="M49.2518 45.6520
L50.0984 45.6520
" />
<path d="M50.0984 45.6520
L49.5542 46.9220
" />
<path d="M50.5822 46.9220
L50.5822 46.0754
" />
<path d="M50.5822 46.1963
L50.6427 46.1358
" />
<path d="M50.6427 46.1358
L50.7637 46.0754
" />
<path d="M50.7637 46.0754
L50.9451 46.0754
" />
<path d="M50.9451 46.0754
L51.0660 46.1358
" />
<path d="M51.0660 46.1358
L51.1265 46.2568
" />
<path d="M51.1265 46.2568
L51.1265 46.9220
" />
<path d="M51.1265 46.2568
L51.1870 46.1358
" />
<path d="M51.1870 46.1358
L51.3079 46.0754
" />
<path d="M51.3079 46.0754
L51.4894 46.0754
" />
<path d="M51.4894 46.0754
L51.6103 46.1358
" />
<path d="M51.6103 46.1358
L51.6708 46.2568
" />
<path d="M51.6708 46.2568
L51.6708 46.9220
" />
<path d="M52.2755 46.9220
L52.2755 46.0754
" />
<path d="M52.2755 46.1963
L52.3360 46.1358
" />
<path d="M52.3360 46.1358
L52.4570 46.0754
" />
<path d="M52.4570 46.0754
L52.6384 46.0754
" />
<path d="M52.6384 46.0754
L52.7593 46.1358
" />
<path d="M52.7593 46.1358
L52.8198 46.2568
" />
<path d="M52.8198 46.2568
L52.8198 46.9220
" />
<path d="M52.8198 46.2568
L52.8803 46.1358
" />
<path d="M52.8803 46.1358
L53.0012 46.0754
" />
<path d="M53.0012 46.0754
L53.1827 46.0754
" />
<path d="M53.1827 46.0754
L53.3036 46.1358
" />
<path d="M53.3036 46.1358
L53.3641 46.2568
" />
<path d="M53.3641 46.2568
L53.3641 46.9220
" />
</g><text x="33.4071" y="38.0878"
textLength="55.6787" font-size="1.6933" lengthAdjust="spacingAndGlyphs"
text-anchor="middle" opacity="0">https://www.onsemi.com/pub/Collateral/FAN7371-D.pdf</text>
<g class="stroked-text"><desc>https://www.onsemi.com/pub/Collateral/FAN7371-D.pdf</desc>
<path d="M5.9813 38.0320
L5.9813 36.7620
" />
<path d="M6.5256 38.0320
L6.5256 37.3668
" />
<path d="M6.5256 37.3668
L6.4651 37.2458
" />
<path d="M6.4651 37.2458
L6.3442 37.1854
" />
<path d="M6.3442 37.1854
L6.1628 37.1854
" />
<path d="M6.1628 37.1854
L6.0418 37.2458
" />
<path d="M6.0418 37.2458
L5.9813 37.3063
" />
<path d="M6.9489 37.1854
L7.4327 37.1854
" />
<path d="M7.1303 36.7620
L7.1303 37.8506
" />
<path d="M7.1303 37.8506
L7.1908 37.9716
" />
<path d="M7.1908 37.9716
L7.3118 38.0320
" />
<path d="M7.3118 38.0320
L7.4327 38.0320
" />
<path d="M7.6746 37.1854
L8.1584 37.1854
" />
<path d="M7.8560 36.7620
L7.8560 37.8506
" />
<path d="M7.8560 37.8506
L7.9165 37.9716
" />
<path d="M7.9165 37.9716
L8.0375 38.0320
" />
<path d="M8.0375 38.0320
L8.1584 38.0320
" />
<path d="M8.5817 37.1854
L8.5817 38.4554
" />
<path d="M8.5817 37.2458
L8.7027 37.1854
" />
<path d="M8.7027 37.1854
L8.9446 37.1854
" />
<path d="M8.9446 37.1854
L9.0655 37.2458
" />
<path d="M9.0655 37.2458
L9.1260 37.3063
" />
<path d="M9.1260 37.3063
L9.1865 37.4273
" />
<path d="M9.1865 37.4273
L9.1865 37.7901
" />
<path d="M9.1865 37.7901
L9.1260 37.9111
" />
<path d="M9.1260 37.9111
L9.0655 37.9716
" />
<path d="M9.0655 37.9716
L8.9446 38.0320
" />
<path d="M8.9446 38.0320
L8.7027 38.0320
" />
<path d="M8.7027 38.0320
L8.5817 37.9716
" />
<path d="M9.6703 37.9716
L9.7912 38.0320
" />
<path d="M9.7912 38.0320
L10.0331 38.0320
" />
<path d="M10.0331 38.0320
L10.1541 37.9716
" />
<path d="M10.1541 37.9716
L10.2145 37.8506
" />
<path d="M10.2145 37.8506
L10.2145 37.7901
" />
<path d="M10.2145 37.7901
L10.1541 37.6692
" />
<path d="M10.1541 37.6692
L10.0331 37.6087
" />
<path d="M10.0331 37.6087
L9.8517 37.6087
" />
<path d="M9.8517 37.6087
L9.7307 37.5482
" />
<path d="M9.7307 37.5482
L9.6703 37.4273
" />
<path d="M9.6703 37.4273
L9.6703 37.3668
" />
<path d="M9.6703 37.3668
L9.7307 37.2458
" />
<path d="M9.7307 37.2458
L9.8517 37.1854
" />
<path d="M9.8517 37.1854
L10.0331 37.1854
" />
<path d="M10.0331 37.1854
L10.1541 37.2458
" />
<path d="M10.7588 37.9111
L10.8193 37.9716
" />
<path d="M10.8193 37.9716
L10.7588 38.0320
" />
<path d="M10.7588 38.0320
L10.6984 37.9716
" />
<path d="M10.6984 37.9716
L10.7588 37.9111
" />
<path d="M10.7588 37.9111
L10.7588 38.0320
" />
<path d="M10.7588 37.2458
L10.8193 37.3063
" />
<path d="M10.8193 37.3063
L10.7588 37.3668
" />
<path d="M10.7588 37.3668
L10.6984 37.3063
" />
<path d="M10.6984 37.3063
L10.7588 37.2458
" />
<path d="M10.7588 37.2458
L10.7588 37.3668
" />
<path d="M12.2708 36.7016
L11.1822 38.3344
" />
<path d="M13.6013 36.7016
L12.5127 38.3344
" />
<path d="M13.9037 37.1854
L14.1456 38.0320
" />
<path d="M14.1456 38.0320
L14.3875 37.4273
" />
<path d="M14.3875 37.4273
L14.6294 38.0320
" />
<path d="M14.6294 38.0320
L14.8713 37.1854
" />
<path d="M15.2342 37.1854
L15.4761 38.0320
" />
<path d="M15.4761 38.0320
L15.7180 37.4273
" />
<path d="M15.7180 37.4273
L15.9599 38.0320
" />
<path d="M15.9599 38.0320
L16.2018 37.1854
" />
<path d="M16.5647 37.1854
L16.8066 38.0320
" />
<path d="M16.8066 38.0320
L17.0485 37.4273
" />
<path d="M17.0485 37.4273
L17.2904 38.0320
" />
<path d="M17.2904 38.0320
L17.5323 37.1854
" />
<path d="M18.0161 37.9111
L18.0766 37.9716
" />
<path d="M18.0766 37.9716
L18.0161 38.0320
" />
<path d="M18.0161 38.0320
L17.9557 37.9716
" />
<path d="M17.9557 37.9716
L18.0161 37.9111
" />
<path d="M18.0161 37.9111
L18.0161 38.0320
" />
<path d="M18.8024 38.0320
L18.6814 37.9716
" />
<path d="M18.6814 37.9716
L18.6209 37.9111
" />
<path d="M18.6209 37.9111
L18.5605 37.7901
" />
<path d="M18.5605 37.7901
L18.5605 37.4273
" />
<path d="M18.5605 37.4273
L18.6209 37.3063
" />
<path d="M18.6209 37.3063
L18.6814 37.2458
" />
<path d="M18.6814 37.2458
L18.8024 37.1854
" />
<path d="M18.8024 37.1854
L18.9838 37.1854
" />
<path d="M18.9838 37.1854
L19.1047 37.2458
" />
<path d="M19.1047 37.2458
L19.1652 37.3063
" />
<path d="M19.1652 37.3063
L19.2257 37.4273
" />
<path d="M19.2257 37.4273
L19.2257 37.7901
" />
<path d="M19.2257 37.7901
L19.1652 37.9111
" />
<path d="M19.1652 37.9111
L19.1047 37.9716
" />
<path d="M19.1047 37.9716
L18.9838 38.0320
" />
<path d="M18.9838 38.0320
L18.8024 38.0320
" />
<path d="M19.7699 37.1854
L19.7699 38.0320
" />
<path d="M19.7699 37.3063
L19.8304 37.2458
" />
<path d="M19.8304 37.2458
L19.9514 37.1854
" />
<path d="M19.9514 37.1854
L20.1328 37.1854
" />
<path d="M20.1328 37.1854
L20.2537 37.2458
" />
<path d="M20.2537 37.2458
L20.3142 37.3668
" />
<path d="M20.3142 37.3668
L20.3142 38.0320
" />
<path d="M20.8585 37.9716
L20.9794 38.0320
" />
<path d="M20.9794 38.0320
L21.2213 38.0320
" />
<path d="M21.2213 38.0320
L21.3423 37.9716
" />
<path d="M21.3423 37.9716
L21.4027 37.8506
" />
<path d="M21.4027 37.8506
L21.4027 37.7901
" />
<path d="M21.4027 37.7901
L21.3423 37.6692
" />
<path d="M21.3423 37.6692
L21.2213 37.6087
" />
<path d="M21.2213 37.6087
L21.0399 37.6087
" />
<path d="M21.0399 37.6087
L20.9189 37.5482
" />
<path d="M20.9189 37.5482
L20.8585 37.4273
" />
<path d="M20.8585 37.4273
L20.8585 37.3668
" />
<path d="M20.8585 37.3668
L20.9189 37.2458
" />
<path d="M20.9189 37.2458
L21.0399 37.1854
" />
<path d="M21.0399 37.1854
L21.2213 37.1854
" />
<path d="M21.2213 37.1854
L21.3423 37.2458
" />
<path d="M22.4308 37.9716
L22.3099 38.0320
" />
<path d="M22.3099 38.0320
L22.0680 38.0320
" />
<path d="M22.0680 38.0320
L21.9470 37.9716
" />
<path d="M21.9470 37.9716
L21.8866 37.8506
" />
<path d="M21.8866 37.8506
L21.8866 37.3668
" />
<path d="M21.8866 37.3668
L21.9470 37.2458
" />
<path d="M21.9470 37.2458
L22.0680 37.1854
" />
<path d="M22.0680 37.1854
L22.3099 37.1854
" />
<path d="M22.3099 37.1854
L22.4308 37.2458
" />
<path d="M22.4308 37.2458
L22.4913 37.3668
" />
<path d="M22.4913 37.3668
L22.4913 37.4877
" />
<path d="M22.4913 37.4877
L21.8866 37.6087
" />
<path d="M23.0356 38.0320
L23.0356 37.1854
" />
<path d="M23.0356 37.3063
L23.0961 37.2458
" />
<path d="M23.0961 37.2458
L23.2171 37.1854
" />
<path d="M23.2171 37.1854
L23.3985 37.1854
" />
<path d="M23.3985 37.1854
L23.5194 37.2458
" />
<path d="M23.5194 37.2458
L23.5799 37.3668
" />
<path d="M23.5799 37.3668
L23.5799 38.0320
" />
<path d="M23.5799 37.3668
L23.6404 37.2458
" />
<path d="M23.6404 37.2458
L23.7613 37.1854
" />
<path d="M23.7613 37.1854
L23.9428 37.1854
" />
<path d="M23.9428 37.1854
L24.0637 37.2458
" />
<path d="M24.0637 37.2458
L24.1242 37.3668
" />
<path d="M24.1242 37.3668
L24.1242 38.0320
" />
<path d="M24.7289 38.0320
L24.7289 37.1854
" />
<path d="M24.7289 36.7620
L24.6685 36.8225
" />
<path d="M24.6685 36.8225
L24.7289 36.8830
" />
<path d="M24.7289 36.8830
L24.7894 36.8225
" />
<path d="M24.7894 36.8225
L24.7289 36.7620
" />
<path d="M24.7289 36.7620
L24.7289 36.8830
" />
<path d="M25.3337 37.9111
L25.3942 37.9716
" />
<path d="M25.3942 37.9716
L25.3337 38.0320
" />
<path d="M25.3337 38.0320
L25.2733 37.9716
" />
<path d="M25.2733 37.9716
L25.3337 37.9111
" />
<path d="M25.3337 37.9111
L25.3337 38.0320
" />
<path d="M26.4828 37.9716
L26.3619 38.0320
" />
<path d="M26.3619 38.0320
L26.1200 38.0320
" />
<path d="M26.1200 38.0320
L25.9990 37.9716
" />
<path d="M25.9990 37.9716
L25.9385 37.9111
" />
<path d="M25.9385 37.9111
L25.8781 37.7901
" />
<path d="M25.8781 37.7901
L25.8781 37.4273
" />
<path d="M25.8781 37.4273
L25.9385 37.3063
" />
<path d="M25.9385 37.3063
L25.9990 37.2458
" />
<path d="M25.9990 37.2458
L26.1200 37.1854
" />
<path d="M26.1200 37.1854
L26.3619 37.1854
" />
<path d="M26.3619 37.1854
L26.4828 37.2458
" />
<path d="M27.2086 38.0320
L27.0876 37.9716
" />
<path d="M27.0876 37.9716
L27.0271 37.9111
" />
<path d="M27.0271 37.9111
L26.9667 37.7901
" />
<path d="M26.9667 37.7901
L26.9667 37.4273
" />
<path d="M26.9667 37.4273
L27.0271 37.3063
" />
<path d="M27.0271 37.3063
L27.0876 37.2458
" />
<path d="M27.0876 37.2458
L27.2086 37.1854
" />
<path d="M27.2086 37.1854
L27.3900 37.1854
" />
<path d="M27.3900 37.1854
L27.5109 37.2458
" />
<path d="M27.5109 37.2458
L27.5714 37.3063
" />
<path d="M27.5714 37.3063
L27.6319 37.4273
" />
<path d="M27.6319 37.4273
L27.6319 37.7901
" />
<path d="M27.6319 37.7901
L27.5714 37.9111
" />
<path d="M27.5714 37.9111
L27.5109 37.9716
" />
<path d="M27.5109 37.9716
L27.3900 38.0320
" />
<path d="M27.3900 38.0320
L27.2086 38.0320
" />
<path d="M28.1761 38.0320
L28.1761 37.1854
" />
<path d="M28.1761 37.3063
L28.2366 37.2458
" />
<path d="M28.2366 37.2458
L28.3576 37.1854
" />
<path d="M28.3576 37.1854
L28.5390 37.1854
" />
<path d="M28.5390 37.1854
L28.6599 37.2458
" />
<path d="M28.6599 37.2458
L28.7204 37.3668
" />
<path d="M28.7204 37.3668
L28.7204 38.0320
" />
<path d="M28.7204 37.3668
L28.7809 37.2458
" />
<path d="M28.7809 37.2458
L28.9018 37.1854
" />
<path d="M28.9018 37.1854
L29.0833 37.1854
" />
<path d="M29.0833 37.1854
L29.2042 37.2458
" />
<path d="M29.2042 37.2458
L29.2647 37.3668
" />
<path d="M29.2647 37.3668
L29.2647 38.0320
" />
<path d="M30.7766 36.7016
L29.6880 38.3344
" />
<path d="M31.1999 37.1854
L31.1999 38.4554
" />
<path d="M31.1999 37.2458
L31.3209 37.1854
" />
<path d="M31.3209 37.1854
L31.5628 37.1854
" />
<path d="M31.5628 37.1854
L31.6837 37.2458
" />
<path d="M31.6837 37.2458
L31.7442 37.3063
" />
<path d="M31.7442 37.3063
L31.8047 37.4273
" />
<path d="M31.8047 37.4273
L31.8047 37.7901
" />
<path d="M31.8047 37.7901
L31.7442 37.9111
" />
<path d="M31.7442 37.9111
L31.6837 37.9716
" />
<path d="M31.6837 37.9716
L31.5628 38.0320
" />
<path d="M31.5628 38.0320
L31.3209 38.0320
" />
<path d="M31.3209 38.0320
L31.1999 37.9716
" />
<path d="M32.8932 37.1854
L32.8932 38.0320
" />
<path d="M32.3489 37.1854
L32.3489 37.8506
" />
<path d="M32.3489 37.8506
L32.4094 37.9716
" />
<path d="M32.4094 37.9716
L32.5304 38.0320
" />
<path d="M32.5304 38.0320
L32.7118 38.0320
" />
<path d="M32.7118 38.0320
L32.8327 37.9716
" />
<path d="M32.8327 37.9716
L32.8932 37.9111
" />
<path d="M33.4979 38.0320
L33.4979 36.7620
" />
<path d="M33.4979 37.2458
L33.6189 37.1854
" />
<path d="M33.6189 37.1854
L33.8608 37.1854
" />
<path d="M33.8608 37.1854
L33.9817 37.2458
" />
<path d="M33.9817 37.2458
L34.0422 37.3063
" />
<path d="M34.0422 37.3063
L34.1027 37.4273
" />
<path d="M34.1027 37.4273
L34.1027 37.7901
" />
<path d="M34.1027 37.7901
L34.0422 37.9111
" />
<path d="M34.0422 37.9111
L33.9817 37.9716
" />
<path d="M33.9817 37.9716
L33.8608 38.0320
" />
<path d="M33.8608 38.0320
L33.6189 38.0320
" />
<path d="M33.6189 38.0320
L33.4979 37.9716
" />
<path d="M35.5541 36.7016
L34.4655 38.3344
" />
<path d="M36.7031 37.9111
L36.6427 37.9716
" />
<path d="M36.6427 37.9716
L36.4612 38.0320
" />
<path d="M36.4612 38.0320
L36.3403 38.0320
" />
<path d="M36.3403 38.0320
L36.1589 37.9716
" />
<path d="M36.1589 37.9716
L36.0379 37.8506
" />
<path d="M36.0379 37.8506
L35.9774 37.7296
" />
<path d="M35.9774 37.7296
L35.9170 37.4877
" />
<path d="M35.9170 37.4877
L35.9170 37.3063
" />
<path d="M35.9170 37.3063
L35.9774 37.0644
" />
<path d="M35.9774 37.0644
L36.0379 36.9435
" />
<path d="M36.0379 36.9435
L36.1589 36.8225
" />
<path d="M36.1589 36.8225
L36.3403 36.7620
" />
<path d="M36.3403 36.7620
L36.4612 36.7620
" />
<path d="M36.4612 36.7620
L36.6427 36.8225
" />
<path d="M36.6427 36.8225
L36.7031 36.8830
" />
<path d="M37.4289 38.0320
L37.3079 37.9716
" />
<path d="M37.3079 37.9716
L37.2474 37.9111
" />
<path d="M37.2474 37.9111
L37.1870 37.7901
" />
<path d="M37.1870 37.7901
L37.1870 37.4273
" />
<path d="M37.1870 37.4273
L37.2474 37.3063
" />
<path d="M37.2474 37.3063
L37.3079 37.2458
" />
<path d="M37.3079 37.2458
L37.4289 37.1854
" />
<path d="M37.4289 37.1854
L37.6103 37.1854
" />
<path d="M37.6103 37.1854
L37.7312 37.2458
" />
<path d="M37.7312 37.2458
L37.7917 37.3063
" />
<path d="M37.7917 37.3063
L37.8522 37.4273
" />
<path d="M37.8522 37.4273
L37.8522 37.7901
" />
<path d="M37.8522 37.7901
L37.7917 37.9111
" />
<path d="M37.7917 37.9111
L37.7312 37.9716
" />
<path d="M37.7312 37.9716
L37.6103 38.0320
" />
<path d="M37.6103 38.0320
L37.4289 38.0320
" />
<path d="M38.5779 38.0320
L38.4569 37.9716
" />
<path d="M38.4569 37.9716
L38.3964 37.8506
" />
<path d="M38.3964 37.8506
L38.3964 36.7620
" />
<path d="M39.2431 38.0320
L39.1221 37.9716
" />
<path d="M39.1221 37.9716
L39.0616 37.8506
" />
<path d="M39.0616 37.8506
L39.0616 36.7620
" />
<path d="M40.2711 38.0320
L40.2711 37.3668
" />
<path d="M40.2711 37.3668
L40.2106 37.2458
" />
<path d="M40.2106 37.2458
L40.0897 37.1854
" />
<path d="M40.0897 37.1854
L39.8478 37.1854
" />
<path d="M39.8478 37.1854
L39.7268 37.2458
" />
<path d="M40.2711 37.9716
L40.1502 38.0320
" />
<path d="M40.1502 38.0320
L39.8478 38.0320
" />
<path d="M39.8478 38.0320
L39.7268 37.9716
" />
<path d="M39.7268 37.9716
L39.6664 37.8506
" />
<path d="M39.6664 37.8506
L39.6664 37.7296
" />
<path d="M39.6664 37.7296
L39.7268 37.6087
" />
<path d="M39.7268 37.6087
L39.8478 37.5482
" />
<path d="M39.8478 37.5482
L40.1502 37.5482
" />
<path d="M40.1502 37.5482
L40.2711 37.4877
" />
<path d="M40.6944 37.1854
L41.1782 37.1854
" />
<path d="M40.8758 36.7620
L40.8758 37.8506
" />
<path d="M40.8758 37.8506
L40.9363 37.9716
" />
<path d="M40.9363 37.9716
L41.0573 38.0320
" />
<path d="M41.0573 38.0320
L41.1782 38.0320
" />
<path d="M42.0853 37.9716
L41.9644 38.0320
" />
<path d="M41.9644 38.0320
L41.7225 38.0320
" />
<path d="M41.7225 38.0320
L41.6015 37.9716
" />
<path d="M41.6015 37.9716
L41.5411 37.8506
" />
<path d="M41.5411 37.8506
L41.5411 37.3668
" />
<path d="M41.5411 37.3668
L41.6015 37.2458
" />
<path d="M41.6015 37.2458
L41.7225 37.1854
" />
<path d="M41.7225 37.1854
L41.9644 37.1854
" />
<path d="M41.9644 37.1854
L42.0853 37.2458
" />
<path d="M42.0853 37.2458
L42.1458 37.3668
" />
<path d="M42.1458 37.3668
L42.1458 37.4877
" />
<path d="M42.1458 37.4877
L41.5411 37.6087
" />
<path d="M42.6901 38.0320
L42.6901 37.1854
" />
<path d="M42.6901 37.4273
L42.7506 37.3063
" />
<path d="M42.7506 37.3063
L42.8111 37.2458
" />
<path d="M42.8111 37.2458
L42.9320 37.1854
" />
<path d="M42.9320 37.1854
L43.0530 37.1854
" />
<path d="M44.0206 38.0320
L44.0206 37.3668
" />
<path d="M44.0206 37.3668
L43.9601 37.2458
" />
<path d="M43.9601 37.2458
L43.8392 37.1854
" />
<path d="M43.8392 37.1854
L43.5973 37.1854
" />
<path d="M43.5973 37.1854
L43.4763 37.2458
" />
<path d="M44.0206 37.9716
L43.8997 38.0320
" />
<path d="M43.8997 38.0320
L43.5973 38.0320
" />
<path d="M43.5973 38.0320
L43.4763 37.9716
" />
<path d="M43.4763 37.9716
L43.4159 37.8506
" />
<path d="M43.4159 37.8506
L43.4159 37.7296
" />
<path d="M43.4159 37.7296
L43.4763 37.6087
" />
<path d="M43.4763 37.6087
L43.5973 37.5482
" />
<path d="M43.5973 37.5482
L43.8997 37.5482
" />
<path d="M43.8997 37.5482
L44.0206 37.4877
" />
<path d="M44.8068 38.0320
L44.6858 37.9716
" />
<path d="M44.6858 37.9716
L44.6253 37.8506
" />
<path d="M44.6253 37.8506
L44.6253 36.7620
" />
<path d="M46.1977 36.7016
L45.1091 38.3344
" />
<path d="M47.0444 37.3668
L46.6210 37.3668
" />
<path d="M46.6210 38.0320
L46.6210 36.7620
" />
<path d="M46.6210 36.7620
L47.2258 36.7620
" />
<path d="M47.6492 37.6692
L48.2539 37.6692
" />
<path d="M47.5282 38.0320
L47.9515 36.7620
" />
<path d="M47.9515 36.7620
L48.3749 38.0320
" />
<path d="M48.7982 38.0320
L48.7982 36.7620
" />
<path d="M48.7982 36.7620
L49.5239 38.0320
" />
<path d="M49.5239 38.0320
L49.5239 36.7620
" />
<path d="M50.0078 36.7620
L50.8544 36.7620
" />
<path d="M50.8544 36.7620
L50.3102 38.0320
" />
<path d="M51.2173 36.7620
L52.0035 36.7620
" />
<path d="M52.0035 36.7620
L51.5801 37.2458
" />
<path d="M51.5801 37.2458
L51.7616 37.2458
" />
<path d="M51.7616 37.2458
L51.8825 37.3063
" />
<path d="M51.8825 37.3063
L51.9430 37.3668
" />
<path d="M51.9430 37.3668
L52.0035 37.4877
" />
<path d="M52.0035 37.4877
L52.0035 37.7901
" />
<path d="M52.0035 37.7901
L51.9430 37.9111
" />
<path d="M51.9430 37.9111
L51.8825 37.9716
" />
<path d="M51.8825 37.9716
L51.7616 38.0320
" />
<path d="M51.7616 38.0320
L51.3987 38.0320
" />
<path d="M51.3987 38.0320
L51.2778 37.9716
" />
<path d="M51.2778 37.9716
L51.2173 37.9111
" />
<path d="M52.4268 36.7620
L53.2734 36.7620
" />
<path d="M53.2734 36.7620
L52.7292 38.0320
" />
<path d="M54.4225 38.0320
L53.6968 38.0320
" />
<path d="M54.0596 38.0320
L54.0596 36.7620
" />
<path d="M54.0596 36.7620
L53.9387 36.9435
" />
<path d="M53.9387 36.9435
L53.8177 37.0644
" />
<path d="M53.8177 37.0644
L53.6968 37.1249
" />
<path d="M54.9667 37.5482
L55.9344 37.5482
" />
<path d="M56.5391 38.0320
L56.5391 36.7620
" />
<path d="M56.5391 36.7620
L56.8415 36.7620
" />
<path d="M56.8415 36.7620
L57.0229 36.8225
" />
<path d="M57.0229 36.8225
L57.1439 36.9435
" />
<path d="M57.1439 36.9435
L57.2044 37.0644
" />
<path d="M57.2044 37.0644
L57.2648 37.3063
" />
<path d="M57.2648 37.3063
L57.2648 37.4877
" />
<path d="M57.2648 37.4877
L57.2044 37.7296
" />
<path d="M57.2044 37.7296
L57.1439 37.8506
" />
<path d="M57.1439 37.8506
L57.0229 37.9716
" />
<path d="M57.0229 37.9716
L56.8415 38.0320
" />
<path d="M56.8415 38.0320
L56.5391 38.0320
" />
<path d="M57.8091 37.9111
L57.8696 37.9716
" />
<path d="M57.8696 37.9716
L57.8091 38.0320
" />
<path d="M57.8091 38.0320
L57.7487 37.9716
" />
<path d="M57.7487 37.9716
L57.8091 37.9111
" />
<path d="M57.8091 37.9111
L57.8091 38.0320
" />
<path d="M58.4139 37.1854
L58.4139 38.4554
" />
<path d="M58.4139 37.2458
L58.5349 37.1854
" />
<path d="M58.5349 37.1854
L58.7768 37.1854
" />
<path d="M58.7768 37.1854
L58.8977 37.2458
" />
<path d="M58.8977 37.2458
L58.9582 37.3063
" />
<path d="M58.9582 37.3063
L59.0187 37.4273
" />
<path d="M59.0187 37.4273
L59.0187 37.7901
" />
<path d="M59.0187 37.7901
L58.9582 37.9111
" />
<path d="M58.9582 37.9111
L58.8977 37.9716
" />
<path d="M58.8977 37.9716
L58.7768 38.0320
" />
<path d="M58.7768 38.0320
L58.5349 38.0320
" />
<path d="M58.5349 38.0320
L58.4139 37.9716
" />
<path d="M60.1072 38.0320
L60.1072 36.7620
" />
<path d="M60.1072 37.9716
L59.9863 38.0320
" />
<path d="M59.9863 38.0320
L59.7444 38.0320
" />
<path d="M59.7444 38.0320
L59.6234 37.9716
" />
<path d="M59.6234 37.9716
L59.5629 37.9111
" />
<path d="M59.5629 37.9111
L59.5025 37.7901
" />
<path d="M59.5025 37.7901
L59.5025 37.4273
" />
<path d="M59.5025 37.4273
L59.5629 37.3063
" />
<path d="M59.5629 37.3063
L59.6234 37.2458
" />
<path d="M59.6234 37.2458
L59.7444 37.1854
" />
<path d="M59.7444 37.1854
L59.9863 37.1854
" />
<path d="M59.9863 37.1854
L60.1072 37.2458
" />
<path d="M60.5305 37.1854
L61.0143 37.1854
" />
<path d="M60.7119 38.0320
L60.7119 36.9435
" />
<path d="M60.7119 36.9435
L60.7724 36.8225
" />
<path d="M60.7724 36.8225
L60.8934 36.7620
" />
<path d="M60.8934 36.7620
L61.0143 36.7620
" />
</g></g> 
</svg>
