<?xml version="1.0" standalone="no"?>
 <!DOCTYPE svg PUBLIC "-//W3C//DTD SVG 1.1//EN" 
 "http://www.w3.org/Graphics/SVG/1.1/DTD/svg11.dtd"> 
<svg
  xmlns:svg="http://www.w3.org/2000/svg"
  xmlns="http://www.w3.org/2000/svg"
  xmlns:xlink="http://www.w3.org/1999/xlink"
  version="1.1"
  width="29.0576mm" height="9.1440mm" viewBox="0.0000 0.0000 29.0576 9.1440">
<title>SVG Image created as working.svg date 2023/08/03 04:03:57 </title>
  <desc>Image generated by Eeschema-SVG </desc>
<g style="fill:#000000; fill-opacity:1.0000;stroke:#000000; stroke-opacity:1.0000;
stroke-linecap:round; stroke-linejoin:round;"
 transform="translate(0 0) scale(1 1)">
</g>
<g style="fill:#840000; fill-opacity:0.0; 
stroke:#840000; stroke-width:0.0000; stroke-opacity:1; 
stroke-linecap:round; stroke-linejoin:round;">
</g>
<g style="fill:#840084; fill-opacity:0.0; 
stroke:#840084; stroke-width:0.0000; stroke-opacity:1; 
stroke-linecap:round; stroke-linejoin:round;">
</g>
<g style="fill:#840000; fill-opacity:0.0; 
stroke:#840000; stroke-width:0.0000; stroke-opacity:1; 
stroke-linecap:round; stroke-linejoin:round;">
</g>
<g style="fill:#840000; fill-opacity:0.0; 
stroke:#840000; stroke-width:0.2540; stroke-opacity:1; 
stroke-linecap:round; stroke-linejoin:round;">
<rect x="2.548800" y="3.302100" width="5.080000" height="2.540000" rx="0.000000" />
<path style="fill:#840000; fill-opacity:0.0; 
stroke:#840000; stroke-width:0.2540; stroke-opacity:1; 
stroke-linecap:round; stroke-linejoin:round;fill:none"
d="M 3.8188,3.3021
6.3588,5.8421
" /> 
</g>
<g style="fill:#840000; fill-opacity:0.0; 
stroke:#840000; stroke-width:0.1524; stroke-opacity:1; 
stroke-linecap:round; stroke-linejoin:round;">
<path d="M5.0888 3.3021
L5.0888 0.7621
" />
<path d="M5.0888 5.8421
L5.0888 8.3821
" />
</g>
<g style="fill:#840084; fill-opacity:0.0; 
stroke:#840084; stroke-width:0.1524; stroke-opacity:1; 
stroke-linecap:round; stroke-linejoin:round;">
</g>
<g style="fill:#006464; fill-opacity:0.0; 
stroke:#006464; stroke-width:0.1524; stroke-opacity:1; 
stroke-linecap:round; stroke-linejoin:round;">
</g>
<g style="fill:#006464; fill-opacity:0.0; 
stroke:#006464; stroke-width:0.1588; stroke-opacity:1; 
stroke-linecap:round; stroke-linejoin:round;">
<text x="7.4886" y="2.6671"
textLength="2.2597" font-size="1.6933" lengthAdjust="spacingAndGlyphs"
text-anchor="middle" opacity="0">L?</text>
<g class="stroked-text"><desc>L?</desc>
<path d="M7.3374 2.6196
L6.7326 2.6196
" />
<path d="M6.7326 2.6196
L6.7326 1.3496
" />
<path d="M7.9422 2.4987
L8.0026 2.5592
" />
<path d="M8.0026 2.5592
L7.9422 2.6196
" />
<path d="M7.9422 2.6196
L7.8817 2.5592
" />
<path d="M7.8817 2.5592
L7.9422 2.4987
" />
<path d="M7.9422 2.4987
L7.9422 2.6196
" />
<path d="M7.7003 1.4101
L7.8212 1.3496
" />
<path d="M7.8212 1.3496
L8.1236 1.3496
" />
<path d="M8.1236 1.3496
L8.2445 1.4101
" />
<path d="M8.2445 1.4101
L8.3050 1.5311
" />
<path d="M8.3050 1.5311
L8.3050 1.6520
" />
<path d="M8.3050 1.6520
L8.2445 1.7730
" />
<path d="M8.2445 1.7730
L8.1841 1.8334
" />
<path d="M8.1841 1.8334
L8.0631 1.8939
" />
<path d="M8.0631 1.8939
L8.0026 1.9544
" />
<path d="M8.0026 1.9544
L7.9422 2.0753
" />
<path d="M7.9422 2.0753
L7.9422 2.1358
" />
</g><text x="16.4995" y="7.7471"
textLength="20.2814" font-size="1.6933" lengthAdjust="spacingAndGlyphs"
text-anchor="middle" opacity="0">ElectromagneticActor</text>
<g class="stroked-text"><desc>ElectromagneticActor</desc>
<path d="M6.7326 7.0344
L7.1560 7.0344
" />
<path d="M7.3374 7.6996
L6.7326 7.6996
" />
<path d="M6.7326 7.6996
L6.7326 6.4296
" />
<path d="M6.7326 6.4296
L7.3374 6.4296
" />
<path d="M8.0631 7.6996
L7.9421 7.6392
" />
<path d="M7.9421 7.6392
L7.8816 7.5182
" />
<path d="M7.8816 7.5182
L7.8816 6.4296
" />
<path d="M9.0306 7.6392
L8.9097 7.6996
" />
<path d="M8.9097 7.6996
L8.6678 7.6996
" />
<path d="M8.6678 7.6996
L8.5468 7.6392
" />
<path d="M8.5468 7.6392
L8.4864 7.5182
" />
<path d="M8.4864 7.5182
L8.4864 7.0344
" />
<path d="M8.4864 7.0344
L8.5468 6.9134
" />
<path d="M8.5468 6.9134
L8.6678 6.8530
" />
<path d="M8.6678 6.8530
L8.9097 6.8530
" />
<path d="M8.9097 6.8530
L9.0306 6.9134
" />
<path d="M9.0306 6.9134
L9.0911 7.0344
" />
<path d="M9.0911 7.0344
L9.0911 7.1553
" />
<path d="M9.0911 7.1553
L8.4864 7.2763
" />
<path d="M10.1797 7.6392
L10.0588 7.6996
" />
<path d="M10.0588 7.6996
L9.8169 7.6996
" />
<path d="M9.8169 7.6996
L9.6959 7.6392
" />
<path d="M9.6959 7.6392
L9.6354 7.5787
" />
<path d="M9.6354 7.5787
L9.5750 7.4577
" />
<path d="M9.5750 7.4577
L9.5750 7.0949
" />
<path d="M9.5750 7.0949
L9.6354 6.9739
" />
<path d="M9.6354 6.9739
L9.6959 6.9134
" />
<path d="M9.6959 6.9134
L9.8169 6.8530
" />
<path d="M9.8169 6.8530
L10.0588 6.8530
" />
<path d="M10.0588 6.8530
L10.1797 6.9134
" />
<path d="M10.5426 6.8530
L11.0264 6.8530
" />
<path d="M10.7240 6.4296
L10.7240 7.5182
" />
<path d="M10.7240 7.5182
L10.7845 7.6392
" />
<path d="M10.7845 7.6392
L10.9055 7.6996
" />
<path d="M10.9055 7.6996
L11.0264 7.6996
" />
<path d="M11.4497 7.6996
L11.4497 6.8530
" />
<path d="M11.4497 7.0949
L11.5102 6.9739
" />
<path d="M11.5102 6.9739
L11.5707 6.9134
" />
<path d="M11.5707 6.9134
L11.6916 6.8530
" />
<path d="M11.6916 6.8530
L11.8126 6.8530
" />
<path d="M12.4174 7.6996
L12.2964 7.6392
" />
<path d="M12.2964 7.6392
L12.2359 7.5787
" />
<path d="M12.2359 7.5787
L12.1755 7.4577
" />
<path d="M12.1755 7.4577
L12.1755 7.0949
" />
<path d="M12.1755 7.0949
L12.2359 6.9739
" />
<path d="M12.2359 6.9739
L12.2964 6.9134
" />
<path d="M12.2964 6.9134
L12.4174 6.8530
" />
<path d="M12.4174 6.8530
L12.5988 6.8530
" />
<path d="M12.5988 6.8530
L12.7197 6.9134
" />
<path d="M12.7197 6.9134
L12.7802 6.9739
" />
<path d="M12.7802 6.9739
L12.8407 7.0949
" />
<path d="M12.8407 7.0949
L12.8407 7.4577
" />
<path d="M12.8407 7.4577
L12.7802 7.5787
" />
<path d="M12.7802 7.5787
L12.7197 7.6392
" />
<path d="M12.7197 7.6392
L12.5988 7.6996
" />
<path d="M12.5988 7.6996
L12.4174 7.6996
" />
<path d="M13.3849 7.6996
L13.3849 6.8530
" />
<path d="M13.3849 6.9739
L13.4454 6.9134
" />
<path d="M13.4454 6.9134
L13.5664 6.8530
" />
<path d="M13.5664 6.8530
L13.7478 6.8530
" />
<path d="M13.7478 6.8530
L13.8687 6.9134
" />
<path d="M13.8687 6.9134
L13.9292 7.0344
" />
<path d="M13.9292 7.0344
L13.9292 7.6996
" />
<path d="M13.9292 7.0344
L13.9897 6.9134
" />
<path d="M13.9897 6.9134
L14.1106 6.8530
" />
<path d="M14.1106 6.8530
L14.2921 6.8530
" />
<path d="M14.2921 6.8530
L14.4130 6.9134
" />
<path d="M14.4130 6.9134
L14.4735 7.0344
" />
<path d="M14.4735 7.0344
L14.4735 7.6996
" />
<path d="M15.6225 7.6996
L15.6225 7.0344
" />
<path d="M15.6225 7.0344
L15.5620 6.9134
" />
<path d="M15.5620 6.9134
L15.4411 6.8530
" />
<path d="M15.4411 6.8530
L15.1992 6.8530
" />
<path d="M15.1992 6.8530
L15.0782 6.9134
" />
<path d="M15.6225 7.6392
L15.5016 7.6996
" />
<path d="M15.5016 7.6996
L15.1992 7.6996
" />
<path d="M15.1992 7.6996
L15.0782 7.6392
" />
<path d="M15.0782 7.6392
L15.0178 7.5182
" />
<path d="M15.0178 7.5182
L15.0178 7.3972
" />
<path d="M15.0178 7.3972
L15.0782 7.2763
" />
<path d="M15.0782 7.2763
L15.1992 7.2158
" />
<path d="M15.1992 7.2158
L15.5016 7.2158
" />
<path d="M15.5016 7.2158
L15.6225 7.1553
" />
<path d="M16.7715 6.8530
L16.7715 7.8811
" />
<path d="M16.7715 7.8811
L16.7110 8.0020
" />
<path d="M16.7110 8.0020
L16.6506 8.0625
" />
<path d="M16.6506 8.0625
L16.5296 8.1230
" />
<path d="M16.5296 8.1230
L16.3482 8.1230
" />
<path d="M16.3482 8.1230
L16.2272 8.0625
" />
<path d="M16.7715 7.6392
L16.6506 7.6996
" />
<path d="M16.6506 7.6996
L16.4087 7.6996
" />
<path d="M16.4087 7.6996
L16.2877 7.6392
" />
<path d="M16.2877 7.6392
L16.2272 7.5787
" />
<path d="M16.2272 7.5787
L16.1668 7.4577
" />
<path d="M16.1668 7.4577
L16.1668 7.0949
" />
<path d="M16.1668 7.0949
L16.2272 6.9739
" />
<path d="M16.2272 6.9739
L16.2877 6.9134
" />
<path d="M16.2877 6.9134
L16.4087 6.8530
" />
<path d="M16.4087 6.8530
L16.6506 6.8530
" />
<path d="M16.6506 6.8530
L16.7715 6.9134
" />
<path d="M17.3762 6.8530
L17.3762 7.6996
" />
<path d="M17.3762 6.9739
L17.4367 6.9134
" />
<path d="M17.4367 6.9134
L17.5577 6.8530
" />
<path d="M17.5577 6.8530
L17.7391 6.8530
" />
<path d="M17.7391 6.8530
L17.8600 6.9134
" />
<path d="M17.8600 6.9134
L17.9205 7.0344
" />
<path d="M17.9205 7.0344
L17.9205 7.6996
" />
<path d="M19.0090 7.6392
L18.8881 7.6996
" />
<path d="M18.8881 7.6996
L18.6462 7.6996
" />
<path d="M18.6462 7.6996
L18.5252 7.6392
" />
<path d="M18.5252 7.6392
L18.4648 7.5182
" />
<path d="M18.4648 7.5182
L18.4648 7.0344
" />
<path d="M18.4648 7.0344
L18.5252 6.9134
" />
<path d="M18.5252 6.9134
L18.6462 6.8530
" />
<path d="M18.6462 6.8530
L18.8881 6.8530
" />
<path d="M18.8881 6.8530
L19.0090 6.9134
" />
<path d="M19.0090 6.9134
L19.0695 7.0344
" />
<path d="M19.0695 7.0344
L19.0695 7.1553
" />
<path d="M19.0695 7.1553
L18.4648 7.2763
" />
<path d="M19.4324 6.8530
L19.9162 6.8530
" />
<path d="M19.6138 6.4296
L19.6138 7.5182
" />
<path d="M19.6138 7.5182
L19.6743 7.6392
" />
<path d="M19.6743 7.6392
L19.7953 7.6996
" />
<path d="M19.7953 7.6996
L19.9162 7.6996
" />
<path d="M20.3395 7.6996
L20.3395 6.8530
" />
<path d="M20.3395 6.4296
L20.2791 6.4901
" />
<path d="M20.2791 6.4901
L20.3395 6.5506
" />
<path d="M20.3395 6.5506
L20.4000 6.4901
" />
<path d="M20.4000 6.4901
L20.3395 6.4296
" />
<path d="M20.3395 6.4296
L20.3395 6.5506
" />
<path d="M21.4886 7.6392
L21.3677 7.6996
" />
<path d="M21.3677 7.6996
L21.1258 7.6996
" />
<path d="M21.1258 7.6996
L21.0048 7.6392
" />
<path d="M21.0048 7.6392
L20.9443 7.5787
" />
<path d="M20.9443 7.5787
L20.8839 7.4577
" />
<path d="M20.8839 7.4577
L20.8839 7.0949
" />
<path d="M20.8839 7.0949
L20.9443 6.9739
" />
<path d="M20.9443 6.9739
L21.0048 6.9134
" />
<path d="M21.0048 6.9134
L21.1258 6.8530
" />
<path d="M21.1258 6.8530
L21.3677 6.8530
" />
<path d="M21.3677 6.8530
L21.4886 6.9134
" />
<path d="M21.9725 7.3368
L22.5772 7.3368
" />
<path d="M21.8515 7.6996
L22.2748 6.4296
" />
<path d="M22.2748 6.4296
L22.6982 7.6996
" />
<path d="M23.6658 7.6392
L23.5449 7.6996
" />
<path d="M23.5449 7.6996
L23.3030 7.6996
" />
<path d="M23.3030 7.6996
L23.1820 7.6392
" />
<path d="M23.1820 7.6392
L23.1215 7.5787
" />
<path d="M23.1215 7.5787
L23.0611 7.4577
" />
<path d="M23.0611 7.4577
L23.0611 7.0949
" />
<path d="M23.0611 7.0949
L23.1215 6.9739
" />
<path d="M23.1215 6.9739
L23.1820 6.9134
" />
<path d="M23.1820 6.9134
L23.3030 6.8530
" />
<path d="M23.3030 6.8530
L23.5449 6.8530
" />
<path d="M23.5449 6.8530
L23.6658 6.9134
" />
<path d="M24.0287 6.8530
L24.5125 6.8530
" />
<path d="M24.2101 6.4296
L24.2101 7.5182
" />
<path d="M24.2101 7.5182
L24.2706 7.6392
" />
<path d="M24.2706 7.6392
L24.3916 7.6996
" />
<path d="M24.3916 7.6996
L24.5125 7.6996
" />
<path d="M25.1173 7.6996
L24.9963 7.6392
" />
<path d="M24.9963 7.6392
L24.9358 7.5787
" />
<path d="M24.9358 7.5787
L24.8754 7.4577
" />
<path d="M24.8754 7.4577
L24.8754 7.0949
" />
<path d="M24.8754 7.0949
L24.9358 6.9739
" />
<path d="M24.9358 6.9739
L24.9963 6.9134
" />
<path d="M24.9963 6.9134
L25.1173 6.8530
" />
<path d="M25.1173 6.8530
L25.2987 6.8530
" />
<path d="M25.2987 6.8530
L25.4196 6.9134
" />
<path d="M25.4196 6.9134
L25.4801 6.9739
" />
<path d="M25.4801 6.9739
L25.5406 7.0949
" />
<path d="M25.5406 7.0949
L25.5406 7.4577
" />
<path d="M25.5406 7.4577
L25.4801 7.5787
" />
<path d="M25.4801 7.5787
L25.4196 7.6392
" />
<path d="M25.4196 7.6392
L25.2987 7.6996
" />
<path d="M25.2987 7.6996
L25.1173 7.6996
" />
<path d="M26.0848 7.6996
L26.0848 6.8530
" />
<path d="M26.0848 7.0949
L26.1453 6.9739
" />
<path d="M26.1453 6.9739
L26.2058 6.9134
" />
<path d="M26.2058 6.9134
L26.3267 6.8530
" />
<path d="M26.3267 6.8530
L26.4477 6.8530
" />
</g></g>
<g style="fill:#840084; fill-opacity:0.0; 
stroke:#840084; stroke-width:0.1588; stroke-opacity:1; 
stroke-linecap:round; stroke-linejoin:round;">
<g transform="rotate(-90.000000 4.4538 3.3021)">
<text x="4.4538" y="3.9371"
textLength="1.0501" font-size="1.6933" lengthAdjust="spacingAndGlyphs"
text-anchor="middle" opacity="0">~</text>
</g>
<g class="stroked-text"><desc>~</desc>
<path d="M4.5575 3.6346
L4.4970 3.5741
" />
<path d="M4.4970 3.5741
L4.4366 3.4532
" />
<path d="M4.4366 3.4532
L4.5575 3.2113
" />
<path d="M4.5575 3.2113
L4.4970 3.0903
" />
<path d="M4.4970 3.0903
L4.4366 3.0298
" />
</g></g> 
</svg>
