<?xml version="1.0" standalone="no"?>
 <!DOCTYPE svg PUBLIC "-//W3C//DTD SVG 1.1//EN" 
 "http://www.w3.org/Graphics/SVG/1.1/DTD/svg11.dtd"> 
<svg
  xmlns:svg="http://www.w3.org/2000/svg"
  xmlns="http://www.w3.org/2000/svg"
  xmlns:xlink="http://www.w3.org/1999/xlink"
  version="1.1"
  width="69.2658mm" height="14.8590mm" viewBox="0.0000 0.0000 69.2658 14.8590">
<title>SVG Image created as working.svg date 2023/07/31 23:00:10 </title>
  <desc>Image generated by Eeschema-SVG </desc>
<g style="fill:#000000; fill-opacity:1.0000;stroke:#000000; stroke-opacity:1.0000;
stroke-linecap:round; stroke-linejoin:round;"
 transform="translate(0 0) scale(1 1)">
</g>
<g style="fill:#840000; fill-opacity:0.0; 
stroke:#840000; stroke-width:0.0000; stroke-opacity:1; 
stroke-linecap:round; stroke-linejoin:round;">
</g>
<g style="fill:#FFFFC2; fill-opacity:0.0; 
stroke:#FFFFC2; stroke-width:0.0000; stroke-opacity:1; 
stroke-linecap:round; stroke-linejoin:round;">
</g>
<g style="fill:#FFFFC2; fill-opacity:1.0000; 
stroke:#FFFFC2; stroke-width:0.0000; stroke-opacity:1; 
stroke-linecap:round; stroke-linejoin:round;">
<path style="fill:#FFFFC2; fill-opacity:1.0000; 
stroke:#FFFFC2; stroke-width:0.0000; stroke-opacity:1; 
stroke-linecap:round; stroke-linejoin:round;fill-rule:evenodd;"
d="M 33.3596,8.4225
23.1996,3.3425
23.1996,13.5025
Z" /> 
</g>
<g style="fill:#840084; fill-opacity:1.0000; 
stroke:#840084; stroke-width:0.0000; stroke-opacity:1; 
stroke-linecap:round; stroke-linejoin:round;">
</g>
<g style="fill:#840000; fill-opacity:1.0000; 
stroke:#840000; stroke-width:0.0000; stroke-opacity:1; 
stroke-linecap:round; stroke-linejoin:round;">
</g>
<g style="fill:#840000; fill-opacity:0.0; 
stroke:#840000; stroke-width:0.2540; stroke-opacity:1; 
stroke-linecap:round; stroke-linejoin:round;">
<path style="fill:#840000; fill-opacity:0.0; 
stroke:#840000; stroke-width:0.2540; stroke-opacity:1; 
stroke-linecap:round; stroke-linejoin:round;fill:none"
d="M 33.3596,8.4225
23.1996,3.3425
23.1996,13.5025
Z" /> 
</g>
<g style="fill:#840000; fill-opacity:0.0; 
stroke:#840000; stroke-width:0.1524; stroke-opacity:1; 
stroke-linecap:round; stroke-linejoin:round;">
<path d="M33.3596 8.4225
L35.8996 8.4225
" />
</g>
<g style="fill:#A90000; fill-opacity:0.0; 
stroke:#A90000; stroke-width:0.1524; stroke-opacity:1; 
stroke-linecap:round; stroke-linejoin:round;">
<text x="34.6296" y="8.1685"
textLength="1.3365" font-size="1.6933" lengthAdjust="spacingAndGlyphs"
text-anchor="middle" opacity="0">1</text>
<g class="stroked-text"><desc>1</desc>
<path d="M34.9925 8.0130
L34.2668 8.0130
" />
<path d="M34.6296 8.0130
L34.6296 6.7430
" />
<path d="M34.6296 6.7430
L34.5087 6.9245
" />
<path d="M34.5087 6.9245
L34.3877 7.0454
" />
<path d="M34.3877 7.0454
L34.2668 7.1059
" />
</g></g>
<g style="fill:#840000; fill-opacity:0.0; 
stroke:#840000; stroke-width:0.1524; stroke-opacity:1; 
stroke-linecap:round; stroke-linejoin:round;">
<path d="M23.1996 10.9625
L20.6596 10.9625
" />
</g>
<g style="fill:#006464; fill-opacity:0.0; 
stroke:#006464; stroke-width:0.1524; stroke-opacity:1; 
stroke-linecap:round; stroke-linejoin:round;">
<text x="23.3266" y="11.5975"
textLength="1.6994" font-size="1.6933" lengthAdjust="spacingAndGlyphs"
text-anchor="start" opacity="0">-</text>
<g class="stroked-text"><desc>-</desc>
<path d="M23.6289 11.0662
L24.5966 11.0662
" />
</g></g>
<g style="fill:#A90000; fill-opacity:0.0; 
stroke:#A90000; stroke-width:0.1524; stroke-opacity:1; 
stroke-linecap:round; stroke-linejoin:round;">
<text x="21.9296" y="10.7085"
textLength="1.3365" font-size="1.6933" lengthAdjust="spacingAndGlyphs"
text-anchor="middle" opacity="0">2</text>
<g class="stroked-text"><desc>2</desc>
<path d="M21.5668 9.4040
L21.6272 9.3435
" />
<path d="M21.6272 9.3435
L21.7482 9.2830
" />
<path d="M21.7482 9.2830
L22.0506 9.2830
" />
<path d="M22.0506 9.2830
L22.1715 9.3435
" />
<path d="M22.1715 9.3435
L22.2320 9.4040
" />
<path d="M22.2320 9.4040
L22.2925 9.5249
" />
<path d="M22.2925 9.5249
L22.2925 9.6459
" />
<path d="M22.2925 9.6459
L22.2320 9.8273
" />
<path d="M22.2320 9.8273
L21.5063 10.5530
" />
<path d="M21.5063 10.5530
L22.2925 10.5530
" />
</g></g>
<g style="fill:#840000; fill-opacity:0.0; 
stroke:#840000; stroke-width:0.1524; stroke-opacity:1; 
stroke-linecap:round; stroke-linejoin:round;">
<path d="M23.1996 5.8825
L20.6596 5.8825
" />
</g>
<g style="fill:#006464; fill-opacity:0.0; 
stroke:#006464; stroke-width:0.1524; stroke-opacity:1; 
stroke-linecap:round; stroke-linejoin:round;">
<text x="23.3266" y="6.5175"
textLength="1.6994" font-size="1.6933" lengthAdjust="spacingAndGlyphs"
text-anchor="start" opacity="0">+</text>
<g class="stroked-text"><desc>+</desc>
<path d="M23.6289 5.9862
L24.5966 5.9862
" />
<path d="M24.1127 6.4700
L24.1127 5.5024
" />
</g></g>
<g style="fill:#A90000; fill-opacity:0.0; 
stroke:#A90000; stroke-width:0.1524; stroke-opacity:1; 
stroke-linecap:round; stroke-linejoin:round;">
<text x="21.9296" y="5.6285"
textLength="1.3365" font-size="1.6933" lengthAdjust="spacingAndGlyphs"
text-anchor="middle" opacity="0">3</text>
<g class="stroked-text"><desc>3</desc>
<path d="M21.5063 4.2030
L22.2925 4.2030
" />
<path d="M22.2925 4.2030
L21.8691 4.6868
" />
<path d="M21.8691 4.6868
L22.0506 4.6868
" />
<path d="M22.0506 4.6868
L22.1715 4.7473
" />
<path d="M22.1715 4.7473
L22.2320 4.8078
" />
<path d="M22.2320 4.8078
L22.2925 4.9287
" />
<path d="M22.2925 4.9287
L22.2925 5.2311
" />
<path d="M22.2925 5.2311
L22.2320 5.3521
" />
<path d="M22.2320 5.3521
L22.1715 5.4126
" />
<path d="M22.1715 5.4126
L22.0506 5.4730
" />
<path d="M22.0506 5.4730
L21.6877 5.4730
" />
<path d="M21.6877 5.4730
L21.5668 5.4126
" />
<path d="M21.5668 5.4126
L21.5063 5.3521
" />
</g></g>
<g style="fill:#840084; fill-opacity:0.0; 
stroke:#840084; stroke-width:0.1524; stroke-opacity:1; 
stroke-linecap:round; stroke-linejoin:round;">
</g>
<g style="fill:#006464; fill-opacity:0.0; 
stroke:#006464; stroke-width:0.1524; stroke-opacity:1; 
stroke-linecap:round; stroke-linejoin:round;">
</g>
<g style="fill:#006464; fill-opacity:0.0; 
stroke:#006464; stroke-width:0.1588; stroke-opacity:1; 
stroke-linecap:round; stroke-linejoin:round;">
<text x="32.6449" y="2.7075"
textLength="3.6507" font-size="1.6933" lengthAdjust="spacingAndGlyphs"
text-anchor="middle" opacity="0">U?A</text>
<g class="stroked-text"><desc>U?A</desc>
<path d="M31.1934 1.3900
L31.1934 2.4181
" />
<path d="M31.1934 2.4181
L31.2539 2.5391
" />
<path d="M31.2539 2.5391
L31.3144 2.5996
" />
<path d="M31.3144 2.5996
L31.4353 2.6600
" />
<path d="M31.4353 2.6600
L31.6772 2.6600
" />
<path d="M31.6772 2.6600
L31.7982 2.5996
" />
<path d="M31.7982 2.5996
L31.8587 2.5391
" />
<path d="M31.8587 2.5391
L31.9191 2.4181
" />
<path d="M31.9191 2.4181
L31.9191 1.3900
" />
<path d="M32.7054 2.5391
L32.7658 2.5996
" />
<path d="M32.7658 2.5996
L32.7054 2.6600
" />
<path d="M32.7054 2.6600
L32.6449 2.5996
" />
<path d="M32.6449 2.5996
L32.7054 2.5391
" />
<path d="M32.7054 2.5391
L32.7054 2.6600
" />
<path d="M32.4635 1.4505
L32.5844 1.3900
" />
<path d="M32.5844 1.3900
L32.8868 1.3900
" />
<path d="M32.8868 1.3900
L33.0077 1.4505
" />
<path d="M33.0077 1.4505
L33.0682 1.5715
" />
<path d="M33.0682 1.5715
L33.0682 1.6924
" />
<path d="M33.0682 1.6924
L33.0077 1.8134
" />
<path d="M33.0077 1.8134
L32.9473 1.8738
" />
<path d="M32.9473 1.8738
L32.8263 1.9343
" />
<path d="M32.8263 1.9343
L32.7658 1.9948
" />
<path d="M32.7658 1.9948
L32.7054 2.1157
" />
<path d="M32.7054 2.1157
L32.7054 2.1762
" />
<path d="M33.5521 2.2972
L34.1568 2.2972
" />
<path d="M33.4311 2.6600
L33.8544 1.3900
" />
<path d="M33.8544 1.3900
L34.2778 2.6600
" />
</g><text x="37.5736" y="5.2475"
textLength="13.5081" font-size="1.6933" lengthAdjust="spacingAndGlyphs"
text-anchor="middle" opacity="0">NCS20072DTB</text>
<g class="stroked-text"><desc>NCS20072DTB</desc>
<path d="M31.1934 5.2000
L31.1934 3.9300
" />
<path d="M31.1934 3.9300
L31.9191 5.2000
" />
<path d="M31.9191 5.2000
L31.9191 3.9300
" />
<path d="M33.2496 5.0791
L33.1892 5.1396
" />
<path d="M33.1892 5.1396
L33.0077 5.2000
" />
<path d="M33.0077 5.2000
L32.8868 5.2000
" />
<path d="M32.8868 5.2000
L32.7054 5.1396
" />
<path d="M32.7054 5.1396
L32.5844 5.0186
" />
<path d="M32.5844 5.0186
L32.5239 4.8976
" />
<path d="M32.5239 4.8976
L32.4635 4.6557
" />
<path d="M32.4635 4.6557
L32.4635 4.4743
" />
<path d="M32.4635 4.4743
L32.5239 4.2324
" />
<path d="M32.5239 4.2324
L32.5844 4.1115
" />
<path d="M32.5844 4.1115
L32.7054 3.9905
" />
<path d="M32.7054 3.9905
L32.8868 3.9300
" />
<path d="M32.8868 3.9300
L33.0077 3.9300
" />
<path d="M33.0077 3.9300
L33.1892 3.9905
" />
<path d="M33.1892 3.9905
L33.2496 4.0510
" />
<path d="M33.7335 5.1396
L33.9149 5.2000
" />
<path d="M33.9149 5.2000
L34.2173 5.2000
" />
<path d="M34.2173 5.2000
L34.3382 5.1396
" />
<path d="M34.3382 5.1396
L34.3987 5.0791
" />
<path d="M34.3987 5.0791
L34.4592 4.9581
" />
<path d="M34.4592 4.9581
L34.4592 4.8372
" />
<path d="M34.4592 4.8372
L34.3987 4.7162
" />
<path d="M34.3987 4.7162
L34.3382 4.6557
" />
<path d="M34.3382 4.6557
L34.2173 4.5953
" />
<path d="M34.2173 4.5953
L33.9754 4.5348
" />
<path d="M33.9754 4.5348
L33.8544 4.4743
" />
<path d="M33.8544 4.4743
L33.7939 4.4138
" />
<path d="M33.7939 4.4138
L33.7335 4.2929
" />
<path d="M33.7335 4.2929
L33.7335 4.1719
" />
<path d="M33.7335 4.1719
L33.7939 4.0510
" />
<path d="M33.7939 4.0510
L33.8544 3.9905
" />
<path d="M33.8544 3.9905
L33.9754 3.9300
" />
<path d="M33.9754 3.9300
L34.2777 3.9300
" />
<path d="M34.2777 3.9300
L34.4592 3.9905
" />
<path d="M34.9430 4.0510
L35.0034 3.9905
" />
<path d="M35.0034 3.9905
L35.1244 3.9300
" />
<path d="M35.1244 3.9300
L35.4268 3.9300
" />
<path d="M35.4268 3.9300
L35.5477 3.9905
" />
<path d="M35.5477 3.9905
L35.6082 4.0510
" />
<path d="M35.6082 4.0510
L35.6687 4.1719
" />
<path d="M35.6687 4.1719
L35.6687 4.2929
" />
<path d="M35.6687 4.2929
L35.6082 4.4743
" />
<path d="M35.6082 4.4743
L34.8825 5.2000
" />
<path d="M34.8825 5.2000
L35.6687 5.2000
" />
<path d="M36.4548 3.9300
L36.5758 3.9300
" />
<path d="M36.5758 3.9300
L36.6967 3.9905
" />
<path d="M36.6967 3.9905
L36.7572 4.0510
" />
<path d="M36.7572 4.0510
L36.8177 4.1719
" />
<path d="M36.8177 4.1719
L36.8782 4.4138
" />
<path d="M36.8782 4.4138
L36.8782 4.7162
" />
<path d="M36.8782 4.7162
L36.8177 4.9581
" />
<path d="M36.8177 4.9581
L36.7572 5.0791
" />
<path d="M36.7572 5.0791
L36.6967 5.1396
" />
<path d="M36.6967 5.1396
L36.5758 5.2000
" />
<path d="M36.5758 5.2000
L36.4548 5.2000
" />
<path d="M36.4548 5.2000
L36.3339 5.1396
" />
<path d="M36.3339 5.1396
L36.2734 5.0791
" />
<path d="M36.2734 5.0791
L36.2129 4.9581
" />
<path d="M36.2129 4.9581
L36.1525 4.7162
" />
<path d="M36.1525 4.7162
L36.1525 4.4138
" />
<path d="M36.1525 4.4138
L36.2129 4.1719
" />
<path d="M36.2129 4.1719
L36.2734 4.0510
" />
<path d="M36.2734 4.0510
L36.3339 3.9905
" />
<path d="M36.3339 3.9905
L36.4548 3.9300
" />
<path d="M37.6643 3.9300
L37.7853 3.9300
" />
<path d="M37.7853 3.9300
L37.9062 3.9905
" />
<path d="M37.9062 3.9905
L37.9667 4.0510
" />
<path d="M37.9667 4.0510
L38.0272 4.1719
" />
<path d="M38.0272 4.1719
L38.0877 4.4138
" />
<path d="M38.0877 4.4138
L38.0877 4.7162
" />
<path d="M38.0877 4.7162
L38.0272 4.9581
" />
<path d="M38.0272 4.9581
L37.9667 5.0791
" />
<path d="M37.9667 5.0791
L37.9062 5.1396
" />
<path d="M37.9062 5.1396
L37.7853 5.2000
" />
<path d="M37.7853 5.2000
L37.6643 5.2000
" />
<path d="M37.6643 5.2000
L37.5434 5.1396
" />
<path d="M37.5434 5.1396
L37.4829 5.0791
" />
<path d="M37.4829 5.0791
L37.4224 4.9581
" />
<path d="M37.4224 4.9581
L37.3620 4.7162
" />
<path d="M37.3620 4.7162
L37.3620 4.4138
" />
<path d="M37.3620 4.4138
L37.4224 4.1719
" />
<path d="M37.4224 4.1719
L37.4829 4.0510
" />
<path d="M37.4829 4.0510
L37.5434 3.9905
" />
<path d="M37.5434 3.9905
L37.6643 3.9300
" />
<path d="M38.5110 3.9300
L39.3576 3.9300
" />
<path d="M39.3576 3.9300
L38.8134 5.2000
" />
<path d="M39.7810 4.0510
L39.8414 3.9905
" />
<path d="M39.8414 3.9905
L39.9624 3.9300
" />
<path d="M39.9624 3.9300
L40.2648 3.9300
" />
<path d="M40.2648 3.9300
L40.3857 3.9905
" />
<path d="M40.3857 3.9905
L40.4462 4.0510
" />
<path d="M40.4462 4.0510
L40.5067 4.1719
" />
<path d="M40.5067 4.1719
L40.5067 4.2929
" />
<path d="M40.5067 4.2929
L40.4462 4.4743
" />
<path d="M40.4462 4.4743
L39.7205 5.2000
" />
<path d="M39.7205 5.2000
L40.5067 5.2000
" />
<path d="M41.0509 5.2000
L41.0509 3.9300
" />
<path d="M41.0509 3.9300
L41.3533 3.9300
" />
<path d="M41.3533 3.9300
L41.5347 3.9905
" />
<path d="M41.5347 3.9905
L41.6557 4.1115
" />
<path d="M41.6557 4.1115
L41.7162 4.2324
" />
<path d="M41.7162 4.2324
L41.7766 4.4743
" />
<path d="M41.7766 4.4743
L41.7766 4.6557
" />
<path d="M41.7766 4.6557
L41.7162 4.8976
" />
<path d="M41.7162 4.8976
L41.6557 5.0186
" />
<path d="M41.6557 5.0186
L41.5347 5.1396
" />
<path d="M41.5347 5.1396
L41.3533 5.2000
" />
<path d="M41.3533 5.2000
L41.0509 5.2000
" />
<path d="M42.1395 3.9300
L42.8652 3.9300
" />
<path d="M42.5024 5.2000
L42.5024 3.9300
" />
<path d="M43.7119 4.5348
L43.8933 4.5953
" />
<path d="M43.8933 4.5953
L43.9538 4.6557
" />
<path d="M43.9538 4.6557
L44.0142 4.7767
" />
<path d="M44.0142 4.7767
L44.0142 4.9581
" />
<path d="M44.0142 4.9581
L43.9538 5.0791
" />
<path d="M43.9538 5.0791
L43.8933 5.1396
" />
<path d="M43.8933 5.1396
L43.7723 5.2000
" />
<path d="M43.7723 5.2000
L43.2885 5.2000
" />
<path d="M43.2885 5.2000
L43.2885 3.9300
" />
<path d="M43.2885 3.9300
L43.7119 3.9300
" />
<path d="M43.7119 3.9300
L43.8328 3.9905
" />
<path d="M43.8328 3.9905
L43.8933 4.0510
" />
<path d="M43.8933 4.0510
L43.9538 4.1719
" />
<path d="M43.9538 4.1719
L43.9538 4.2929
" />
<path d="M43.9538 4.2929
L43.8933 4.4138
" />
<path d="M43.8933 4.4138
L43.8328 4.4743
" />
<path d="M43.8328 4.4743
L43.7119 4.5348
" />
<path d="M43.7119 4.5348
L43.2885 4.5348
" />
</g></g>
<g style="fill:#840084; fill-opacity:0.0; 
stroke:#840084; stroke-width:0.1588; stroke-opacity:1; 
stroke-linecap:round; stroke-linejoin:round;">
<text x="30.8196" y="9.0575"
textLength="40.4198" font-size="1.6933" lengthAdjust="spacingAndGlyphs"
text-anchor="middle" opacity="0">Package_SO:TSSOP-8_4.4x3mm_P0.65mm</text>
<g class="stroked-text"><desc>Package_SO:TSSOP-8_4.4x3mm_P0.65mm</desc>
<path d="M10.9835 9.0100
L10.9835 7.7400
" />
<path d="M10.9835 7.7400
L11.4673 7.7400
" />
<path d="M11.4673 7.7400
L11.5883 7.8005
" />
<path d="M11.5883 7.8005
L11.6488 7.8610
" />
<path d="M11.6488 7.8610
L11.7092 7.9819
" />
<path d="M11.7092 7.9819
L11.7092 8.1634
" />
<path d="M11.7092 8.1634
L11.6488 8.2843
" />
<path d="M11.6488 8.2843
L11.5883 8.3448
" />
<path d="M11.5883 8.3448
L11.4673 8.4053
" />
<path d="M11.4673 8.4053
L10.9835 8.4053
" />
<path d="M12.7978 9.0100
L12.7978 8.3448
" />
<path d="M12.7978 8.3448
L12.7373 8.2238
" />
<path d="M12.7373 8.2238
L12.6164 8.1634
" />
<path d="M12.6164 8.1634
L12.3745 8.1634
" />
<path d="M12.3745 8.1634
L12.2535 8.2238
" />
<path d="M12.7978 8.9496
L12.6769 9.0100
" />
<path d="M12.6769 9.0100
L12.3745 9.0100
" />
<path d="M12.3745 9.0100
L12.2535 8.9496
" />
<path d="M12.2535 8.9496
L12.1931 8.8286
" />
<path d="M12.1931 8.8286
L12.1931 8.7076
" />
<path d="M12.1931 8.7076
L12.2535 8.5867
" />
<path d="M12.2535 8.5867
L12.3745 8.5262
" />
<path d="M12.3745 8.5262
L12.6769 8.5262
" />
<path d="M12.6769 8.5262
L12.7978 8.4657
" />
<path d="M13.9468 8.9496
L13.8259 9.0100
" />
<path d="M13.8259 9.0100
L13.5840 9.0100
" />
<path d="M13.5840 9.0100
L13.4630 8.9496
" />
<path d="M13.4630 8.9496
L13.4025 8.8891
" />
<path d="M13.4025 8.8891
L13.3421 8.7681
" />
<path d="M13.3421 8.7681
L13.3421 8.4053
" />
<path d="M13.3421 8.4053
L13.4025 8.2843
" />
<path d="M13.4025 8.2843
L13.4630 8.2238
" />
<path d="M13.4630 8.2238
L13.5840 8.1634
" />
<path d="M13.5840 8.1634
L13.8259 8.1634
" />
<path d="M13.8259 8.1634
L13.9468 8.2238
" />
<path d="M14.4911 9.0100
L14.4911 7.7400
" />
<path d="M14.6121 8.5262
L14.9749 9.0100
" />
<path d="M14.9749 8.1634
L14.4911 8.6472
" />
<path d="M16.0635 9.0100
L16.0635 8.3448
" />
<path d="M16.0635 8.3448
L16.0030 8.2238
" />
<path d="M16.0030 8.2238
L15.8821 8.1634
" />
<path d="M15.8821 8.1634
L15.6402 8.1634
" />
<path d="M15.6402 8.1634
L15.5192 8.2238
" />
<path d="M16.0635 8.9496
L15.9426 9.0100
" />
<path d="M15.9426 9.0100
L15.6402 9.0100
" />
<path d="M15.6402 9.0100
L15.5192 8.9496
" />
<path d="M15.5192 8.9496
L15.4588 8.8286
" />
<path d="M15.4588 8.8286
L15.4588 8.7076
" />
<path d="M15.4588 8.7076
L15.5192 8.5867
" />
<path d="M15.5192 8.5867
L15.6402 8.5262
" />
<path d="M15.6402 8.5262
L15.9426 8.5262
" />
<path d="M15.9426 8.5262
L16.0635 8.4657
" />
<path d="M17.2125 8.1634
L17.2125 9.1915
" />
<path d="M17.2125 9.1915
L17.1520 9.3124
" />
<path d="M17.1520 9.3124
L17.0916 9.3729
" />
<path d="M17.0916 9.3729
L16.9706 9.4334
" />
<path d="M16.9706 9.4334
L16.7892 9.4334
" />
<path d="M16.7892 9.4334
L16.6682 9.3729
" />
<path d="M17.2125 8.9496
L17.0916 9.0100
" />
<path d="M17.0916 9.0100
L16.8497 9.0100
" />
<path d="M16.8497 9.0100
L16.7287 8.9496
" />
<path d="M16.7287 8.9496
L16.6682 8.8891
" />
<path d="M16.6682 8.8891
L16.6078 8.7681
" />
<path d="M16.6078 8.7681
L16.6078 8.4053
" />
<path d="M16.6078 8.4053
L16.6682 8.2843
" />
<path d="M16.6682 8.2843
L16.7287 8.2238
" />
<path d="M16.7287 8.2238
L16.8497 8.1634
" />
<path d="M16.8497 8.1634
L17.0916 8.1634
" />
<path d="M17.0916 8.1634
L17.2125 8.2238
" />
<path d="M18.3010 8.9496
L18.1801 9.0100
" />
<path d="M18.1801 9.0100
L17.9382 9.0100
" />
<path d="M17.9382 9.0100
L17.8172 8.9496
" />
<path d="M17.8172 8.9496
L17.7568 8.8286
" />
<path d="M17.7568 8.8286
L17.7568 8.3448
" />
<path d="M17.7568 8.3448
L17.8172 8.2238
" />
<path d="M17.8172 8.2238
L17.9382 8.1634
" />
<path d="M17.9382 8.1634
L18.1801 8.1634
" />
<path d="M18.1801 8.1634
L18.3010 8.2238
" />
<path d="M18.3010 8.2238
L18.3615 8.3448
" />
<path d="M18.3615 8.3448
L18.3615 8.4657
" />
<path d="M18.3615 8.4657
L17.7568 8.5867
" />
<path d="M18.6035 9.1310
L19.5711 9.1310
" />
<path d="M19.8130 8.9496
L19.9944 9.0100
" />
<path d="M19.9944 9.0100
L20.2968 9.0100
" />
<path d="M20.2968 9.0100
L20.4177 8.9496
" />
<path d="M20.4177 8.9496
L20.4782 8.8891
" />
<path d="M20.4782 8.8891
L20.5387 8.7681
" />
<path d="M20.5387 8.7681
L20.5387 8.6472
" />
<path d="M20.5387 8.6472
L20.4782 8.5262
" />
<path d="M20.4782 8.5262
L20.4177 8.4657
" />
<path d="M20.4177 8.4657
L20.2968 8.4053
" />
<path d="M20.2968 8.4053
L20.0549 8.3448
" />
<path d="M20.0549 8.3448
L19.9339 8.2843
" />
<path d="M19.9339 8.2843
L19.8734 8.2238
" />
<path d="M19.8734 8.2238
L19.8130 8.1029
" />
<path d="M19.8130 8.1029
L19.8130 7.9819
" />
<path d="M19.8130 7.9819
L19.8734 7.8610
" />
<path d="M19.8734 7.8610
L19.9339 7.8005
" />
<path d="M19.9339 7.8005
L20.0549 7.7400
" />
<path d="M20.0549 7.7400
L20.3572 7.7400
" />
<path d="M20.3572 7.7400
L20.5387 7.8005
" />
<path d="M21.3248 7.7400
L21.5667 7.7400
" />
<path d="M21.5667 7.7400
L21.6877 7.8005
" />
<path d="M21.6877 7.8005
L21.8086 7.9215
" />
<path d="M21.8086 7.9215
L21.8691 8.1634
" />
<path d="M21.8691 8.1634
L21.8691 8.5867
" />
<path d="M21.8691 8.5867
L21.8086 8.8286
" />
<path d="M21.8086 8.8286
L21.6877 8.9496
" />
<path d="M21.6877 8.9496
L21.5667 9.0100
" />
<path d="M21.5667 9.0100
L21.3248 9.0100
" />
<path d="M21.3248 9.0100
L21.2039 8.9496
" />
<path d="M21.2039 8.9496
L21.0829 8.8286
" />
<path d="M21.0829 8.8286
L21.0225 8.5867
" />
<path d="M21.0225 8.5867
L21.0225 8.1634
" />
<path d="M21.0225 8.1634
L21.0829 7.9215
" />
<path d="M21.0829 7.9215
L21.2039 7.8005
" />
<path d="M21.2039 7.8005
L21.3248 7.7400
" />
<path d="M22.4134 8.8891
L22.4739 8.9496
" />
<path d="M22.4739 8.9496
L22.4134 9.0100
" />
<path d="M22.4134 9.0100
L22.3530 8.9496
" />
<path d="M22.3530 8.9496
L22.4134 8.8891
" />
<path d="M22.4134 8.8891
L22.4134 9.0100
" />
<path d="M22.4134 8.2238
L22.4739 8.2843
" />
<path d="M22.4739 8.2843
L22.4134 8.3448
" />
<path d="M22.4134 8.3448
L22.3530 8.2843
" />
<path d="M22.3530 8.2843
L22.4134 8.2238
" />
<path d="M22.4134 8.2238
L22.4134 8.3448
" />
<path d="M22.8368 7.7400
L23.5625 7.7400
" />
<path d="M23.1997 9.0100
L23.1997 7.7400
" />
<path d="M23.9254 8.9496
L24.1068 9.0100
" />
<path d="M24.1068 9.0100
L24.4092 9.0100
" />
<path d="M24.4092 9.0100
L24.5301 8.9496
" />
<path d="M24.5301 8.9496
L24.5906 8.8891
" />
<path d="M24.5906 8.8891
L24.6511 8.7681
" />
<path d="M24.6511 8.7681
L24.6511 8.6472
" />
<path d="M24.6511 8.6472
L24.5906 8.5262
" />
<path d="M24.5906 8.5262
L24.5301 8.4657
" />
<path d="M24.5301 8.4657
L24.4092 8.4053
" />
<path d="M24.4092 8.4053
L24.1673 8.3448
" />
<path d="M24.1673 8.3448
L24.0463 8.2843
" />
<path d="M24.0463 8.2843
L23.9858 8.2238
" />
<path d="M23.9858 8.2238
L23.9254 8.1029
" />
<path d="M23.9254 8.1029
L23.9254 7.9819
" />
<path d="M23.9254 7.9819
L23.9858 7.8610
" />
<path d="M23.9858 7.8610
L24.0463 7.8005
" />
<path d="M24.0463 7.8005
L24.1673 7.7400
" />
<path d="M24.1673 7.7400
L24.4696 7.7400
" />
<path d="M24.4696 7.7400
L24.6511 7.8005
" />
<path d="M25.1349 8.9496
L25.3163 9.0100
" />
<path d="M25.3163 9.0100
L25.6187 9.0100
" />
<path d="M25.6187 9.0100
L25.7396 8.9496
" />
<path d="M25.7396 8.9496
L25.8001 8.8891
" />
<path d="M25.8001 8.8891
L25.8606 8.7681
" />
<path d="M25.8606 8.7681
L25.8606 8.6472
" />
<path d="M25.8606 8.6472
L25.8001 8.5262
" />
<path d="M25.8001 8.5262
L25.7396 8.4657
" />
<path d="M25.7396 8.4657
L25.6187 8.4053
" />
<path d="M25.6187 8.4053
L25.3768 8.3448
" />
<path d="M25.3768 8.3448
L25.2558 8.2843
" />
<path d="M25.2558 8.2843
L25.1953 8.2238
" />
<path d="M25.1953 8.2238
L25.1349 8.1029
" />
<path d="M25.1349 8.1029
L25.1349 7.9819
" />
<path d="M25.1349 7.9819
L25.1953 7.8610
" />
<path d="M25.1953 7.8610
L25.2558 7.8005
" />
<path d="M25.2558 7.8005
L25.3768 7.7400
" />
<path d="M25.3768 7.7400
L25.6791 7.7400
" />
<path d="M25.6791 7.7400
L25.8606 7.8005
" />
<path d="M26.6467 7.7400
L26.8886 7.7400
" />
<path d="M26.8886 7.7400
L27.0096 7.8005
" />
<path d="M27.0096 7.8005
L27.1305 7.9215
" />
<path d="M27.1305 7.9215
L27.1910 8.1634
" />
<path d="M27.1910 8.1634
L27.1910 8.5867
" />
<path d="M27.1910 8.5867
L27.1305 8.8286
" />
<path d="M27.1305 8.8286
L27.0096 8.9496
" />
<path d="M27.0096 8.9496
L26.8886 9.0100
" />
<path d="M26.8886 9.0100
L26.6467 9.0100
" />
<path d="M26.6467 9.0100
L26.5258 8.9496
" />
<path d="M26.5258 8.9496
L26.4048 8.8286
" />
<path d="M26.4048 8.8286
L26.3444 8.5867
" />
<path d="M26.3444 8.5867
L26.3444 8.1634
" />
<path d="M26.3444 8.1634
L26.4048 7.9215
" />
<path d="M26.4048 7.9215
L26.5258 7.8005
" />
<path d="M26.5258 7.8005
L26.6467 7.7400
" />
<path d="M27.7353 9.0100
L27.7353 7.7400
" />
<path d="M27.7353 7.7400
L28.2191 7.7400
" />
<path d="M28.2191 7.7400
L28.3401 7.8005
" />
<path d="M28.3401 7.8005
L28.4006 7.8610
" />
<path d="M28.4006 7.8610
L28.4610 7.9819
" />
<path d="M28.4610 7.9819
L28.4610 8.1634
" />
<path d="M28.4610 8.1634
L28.4006 8.2843
" />
<path d="M28.4006 8.2843
L28.3401 8.3448
" />
<path d="M28.3401 8.3448
L28.2191 8.4053
" />
<path d="M28.2191 8.4053
L27.7353 8.4053
" />
<path d="M29.0053 8.5262
L29.9730 8.5262
" />
<path d="M30.7592 8.2843
L30.6382 8.2238
" />
<path d="M30.6382 8.2238
L30.5777 8.1634
" />
<path d="M30.5777 8.1634
L30.5173 8.0424
" />
<path d="M30.5173 8.0424
L30.5173 7.9819
" />
<path d="M30.5173 7.9819
L30.5777 7.8610
" />
<path d="M30.5777 7.8610
L30.6382 7.8005
" />
<path d="M30.6382 7.8005
L30.7592 7.7400
" />
<path d="M30.7592 7.7400
L31.0011 7.7400
" />
<path d="M31.0011 7.7400
L31.1220 7.8005
" />
<path d="M31.1220 7.8005
L31.1825 7.8610
" />
<path d="M31.1825 7.8610
L31.2430 7.9819
" />
<path d="M31.2430 7.9819
L31.2430 8.0424
" />
<path d="M31.2430 8.0424
L31.1825 8.1634
" />
<path d="M31.1825 8.1634
L31.1220 8.2238
" />
<path d="M31.1220 8.2238
L31.0011 8.2843
" />
<path d="M31.0011 8.2843
L30.7592 8.2843
" />
<path d="M30.7592 8.2843
L30.6382 8.3448
" />
<path d="M30.6382 8.3448
L30.5777 8.4053
" />
<path d="M30.5777 8.4053
L30.5173 8.5262
" />
<path d="M30.5173 8.5262
L30.5173 8.7681
" />
<path d="M30.5173 8.7681
L30.5777 8.8891
" />
<path d="M30.5777 8.8891
L30.6382 8.9496
" />
<path d="M30.6382 8.9496
L30.7592 9.0100
" />
<path d="M30.7592 9.0100
L31.0011 9.0100
" />
<path d="M31.0011 9.0100
L31.1220 8.9496
" />
<path d="M31.1220 8.9496
L31.1825 8.8891
" />
<path d="M31.1825 8.8891
L31.2430 8.7681
" />
<path d="M31.2430 8.7681
L31.2430 8.5262
" />
<path d="M31.2430 8.5262
L31.1825 8.4053
" />
<path d="M31.1825 8.4053
L31.1220 8.3448
" />
<path d="M31.1220 8.3448
L31.0011 8.2843
" />
<path d="M31.4849 9.1310
L32.4525 9.1310
" />
<path d="M33.2991 8.1634
L33.2991 9.0100
" />
<path d="M32.9967 7.6796
L32.6944 8.5867
" />
<path d="M32.6944 8.5867
L33.4805 8.5867
" />
<path d="M33.9643 8.8891
L34.0248 8.9496
" />
<path d="M34.0248 8.9496
L33.9643 9.0100
" />
<path d="M33.9643 9.0100
L33.9039 8.9496
" />
<path d="M33.9039 8.9496
L33.9643 8.8891
" />
<path d="M33.9643 8.8891
L33.9643 9.0100
" />
<path d="M35.1134 8.1634
L35.1134 9.0100
" />
<path d="M34.8110 7.6796
L34.5087 8.5867
" />
<path d="M34.5087 8.5867
L35.2948 8.5867
" />
<path d="M35.6577 9.0100
L36.3229 8.1634
" />
<path d="M35.6577 8.1634
L36.3229 9.0100
" />
<path d="M36.6858 7.7400
L37.4720 7.7400
" />
<path d="M37.4720 7.7400
L37.0486 8.2238
" />
<path d="M37.0486 8.2238
L37.2301 8.2238
" />
<path d="M37.2301 8.2238
L37.3510 8.2843
" />
<path d="M37.3510 8.2843
L37.4115 8.3448
" />
<path d="M37.4115 8.3448
L37.4720 8.4657
" />
<path d="M37.4720 8.4657
L37.4720 8.7681
" />
<path d="M37.4720 8.7681
L37.4115 8.8891
" />
<path d="M37.4115 8.8891
L37.3510 8.9496
" />
<path d="M37.3510 8.9496
L37.2301 9.0100
" />
<path d="M37.2301 9.0100
L36.8672 9.0100
" />
<path d="M36.8672 9.0100
L36.7463 8.9496
" />
<path d="M36.7463 8.9496
L36.6858 8.8891
" />
<path d="M38.0162 9.0100
L38.0162 8.1634
" />
<path d="M38.0162 8.2843
L38.0767 8.2238
" />
<path d="M38.0767 8.2238
L38.1977 8.1634
" />
<path d="M38.1977 8.1634
L38.3791 8.1634
" />
<path d="M38.3791 8.1634
L38.5000 8.2238
" />
<path d="M38.5000 8.2238
L38.5605 8.3448
" />
<path d="M38.5605 8.3448
L38.5605 9.0100
" />
<path d="M38.5605 8.3448
L38.6210 8.2238
" />
<path d="M38.6210 8.2238
L38.7419 8.1634
" />
<path d="M38.7419 8.1634
L38.9234 8.1634
" />
<path d="M38.9234 8.1634
L39.0443 8.2238
" />
<path d="M39.0443 8.2238
L39.1048 8.3448
" />
<path d="M39.1048 8.3448
L39.1048 9.0100
" />
<path d="M39.7095 9.0100
L39.7095 8.1634
" />
<path d="M39.7095 8.2843
L39.7700 8.2238
" />
<path d="M39.7700 8.2238
L39.8910 8.1634
" />
<path d="M39.8910 8.1634
L40.0724 8.1634
" />
<path d="M40.0724 8.1634
L40.1933 8.2238
" />
<path d="M40.1933 8.2238
L40.2538 8.3448
" />
<path d="M40.2538 8.3448
L40.2538 9.0100
" />
<path d="M40.2538 8.3448
L40.3143 8.2238
" />
<path d="M40.3143 8.2238
L40.4352 8.1634
" />
<path d="M40.4352 8.1634
L40.6167 8.1634
" />
<path d="M40.6167 8.1634
L40.7376 8.2238
" />
<path d="M40.7376 8.2238
L40.7981 8.3448
" />
<path d="M40.7981 8.3448
L40.7981 9.0100
" />
<path d="M41.1005 9.1310
L42.0681 9.1310
" />
<path d="M42.3704 9.0100
L42.3704 7.7400
" />
<path d="M42.3704 7.7400
L42.8542 7.7400
" />
<path d="M42.8542 7.7400
L42.9752 7.8005
" />
<path d="M42.9752 7.8005
L43.0357 7.8610
" />
<path d="M43.0357 7.8610
L43.0961 7.9819
" />
<path d="M43.0961 7.9819
L43.0961 8.1634
" />
<path d="M43.0961 8.1634
L43.0357 8.2843
" />
<path d="M43.0357 8.2843
L42.9752 8.3448
" />
<path d="M42.9752 8.3448
L42.8542 8.4053
" />
<path d="M42.8542 8.4053
L42.3704 8.4053
" />
<path d="M43.8823 7.7400
L44.0033 7.7400
" />
<path d="M44.0033 7.7400
L44.1242 7.8005
" />
<path d="M44.1242 7.8005
L44.1847 7.8610
" />
<path d="M44.1847 7.8610
L44.2452 7.9819
" />
<path d="M44.2452 7.9819
L44.3057 8.2238
" />
<path d="M44.3057 8.2238
L44.3057 8.5262
" />
<path d="M44.3057 8.5262
L44.2452 8.7681
" />
<path d="M44.2452 8.7681
L44.1847 8.8891
" />
<path d="M44.1847 8.8891
L44.1242 8.9496
" />
<path d="M44.1242 8.9496
L44.0033 9.0100
" />
<path d="M44.0033 9.0100
L43.8823 9.0100
" />
<path d="M43.8823 9.0100
L43.7614 8.9496
" />
<path d="M43.7614 8.9496
L43.7009 8.8891
" />
<path d="M43.7009 8.8891
L43.6404 8.7681
" />
<path d="M43.6404 8.7681
L43.5800 8.5262
" />
<path d="M43.5800 8.5262
L43.5800 8.2238
" />
<path d="M43.5800 8.2238
L43.6404 7.9819
" />
<path d="M43.6404 7.9819
L43.7009 7.8610
" />
<path d="M43.7009 7.8610
L43.7614 7.8005
" />
<path d="M43.7614 7.8005
L43.8823 7.7400
" />
<path d="M44.8499 8.8891
L44.9104 8.9496
" />
<path d="M44.9104 8.9496
L44.8499 9.0100
" />
<path d="M44.8499 9.0100
L44.7895 8.9496
" />
<path d="M44.7895 8.9496
L44.8499 8.8891
" />
<path d="M44.8499 8.8891
L44.8499 9.0100
" />
<path d="M45.9990 7.7400
L45.7571 7.7400
" />
<path d="M45.7571 7.7400
L45.6362 7.8005
" />
<path d="M45.6362 7.8005
L45.5757 7.8610
" />
<path d="M45.5757 7.8610
L45.4547 8.0424
" />
<path d="M45.4547 8.0424
L45.3943 8.2843
" />
<path d="M45.3943 8.2843
L45.3943 8.7681
" />
<path d="M45.3943 8.7681
L45.4547 8.8891
" />
<path d="M45.4547 8.8891
L45.5152 8.9496
" />
<path d="M45.5152 8.9496
L45.6362 9.0100
" />
<path d="M45.6362 9.0100
L45.8781 9.0100
" />
<path d="M45.8781 9.0100
L45.9990 8.9496
" />
<path d="M45.9990 8.9496
L46.0595 8.8891
" />
<path d="M46.0595 8.8891
L46.1200 8.7681
" />
<path d="M46.1200 8.7681
L46.1200 8.4657
" />
<path d="M46.1200 8.4657
L46.0595 8.3448
" />
<path d="M46.0595 8.3448
L45.9990 8.2843
" />
<path d="M45.9990 8.2843
L45.8781 8.2238
" />
<path d="M45.8781 8.2238
L45.6362 8.2238
" />
<path d="M45.6362 8.2238
L45.5152 8.2843
" />
<path d="M45.5152 8.2843
L45.4547 8.3448
" />
<path d="M45.4547 8.3448
L45.3943 8.4657
" />
<path d="M47.2690 7.7400
L46.6642 7.7400
" />
<path d="M46.6642 7.7400
L46.6038 8.3448
" />
<path d="M46.6038 8.3448
L46.6642 8.2843
" />
<path d="M46.6642 8.2843
L46.7852 8.2238
" />
<path d="M46.7852 8.2238
L47.0876 8.2238
" />
<path d="M47.0876 8.2238
L47.2085 8.2843
" />
<path d="M47.2085 8.2843
L47.2690 8.3448
" />
<path d="M47.2690 8.3448
L47.3295 8.4657
" />
<path d="M47.3295 8.4657
L47.3295 8.7681
" />
<path d="M47.3295 8.7681
L47.2690 8.8891
" />
<path d="M47.2690 8.8891
L47.2085 8.9496
" />
<path d="M47.2085 8.9496
L47.0876 9.0100
" />
<path d="M47.0876 9.0100
L46.7852 9.0100
" />
<path d="M46.7852 9.0100
L46.6642 8.9496
" />
<path d="M46.6642 8.9496
L46.6038 8.8891
" />
<path d="M47.8737 9.0100
L47.8737 8.1634
" />
<path d="M47.8737 8.2843
L47.9342 8.2238
" />
<path d="M47.9342 8.2238
L48.0552 8.1634
" />
<path d="M48.0552 8.1634
L48.2366 8.1634
" />
<path d="M48.2366 8.1634
L48.3575 8.2238
" />
<path d="M48.3575 8.2238
L48.4180 8.3448
" />
<path d="M48.4180 8.3448
L48.4180 9.0100
" />
<path d="M48.4180 8.3448
L48.4785 8.2238
" />
<path d="M48.4785 8.2238
L48.5994 8.1634
" />
<path d="M48.5994 8.1634
L48.7809 8.1634
" />
<path d="M48.7809 8.1634
L48.9018 8.2238
" />
<path d="M48.9018 8.2238
L48.9623 8.3448
" />
<path d="M48.9623 8.3448
L48.9623 9.0100
" />
<path d="M49.5670 9.0100
L49.5670 8.1634
" />
<path d="M49.5670 8.2843
L49.6275 8.2238
" />
<path d="M49.6275 8.2238
L49.7485 8.1634
" />
<path d="M49.7485 8.1634
L49.9299 8.1634
" />
<path d="M49.9299 8.1634
L50.0508 8.2238
" />
<path d="M50.0508 8.2238
L50.1113 8.3448
" />
<path d="M50.1113 8.3448
L50.1113 9.0100
" />
<path d="M50.1113 8.3448
L50.1718 8.2238
" />
<path d="M50.1718 8.2238
L50.2927 8.1634
" />
<path d="M50.2927 8.1634
L50.4742 8.1634
" />
<path d="M50.4742 8.1634
L50.5951 8.2238
" />
<path d="M50.5951 8.2238
L50.6556 8.3448
" />
<path d="M50.6556 8.3448
L50.6556 9.0100
" />
</g><text x="34.6296" y="5.2475"
textLength="57.7160" font-size="1.6933" lengthAdjust="spacingAndGlyphs"
text-anchor="middle" opacity="0">https://www.onsemi.com/pub/Collateral/NCS20071-D.PDF</text>
<g class="stroked-text"><desc>https://www.onsemi.com/pub/Collateral/NCS20071-D.PDF</desc>
<path d="M6.1454 5.2000
L6.1454 3.9300
" />
<path d="M6.6897 5.2000
L6.6897 4.5348
" />
<path d="M6.6897 4.5348
L6.6292 4.4138
" />
<path d="M6.6292 4.4138
L6.5083 4.3534
" />
<path d="M6.5083 4.3534
L6.3269 4.3534
" />
<path d="M6.3269 4.3534
L6.2059 4.4138
" />
<path d="M6.2059 4.4138
L6.1454 4.4743
" />
<path d="M7.1130 4.3534
L7.5968 4.3534
" />
<path d="M7.2944 3.9300
L7.2944 5.0186
" />
<path d="M7.2944 5.0186
L7.3549 5.1396
" />
<path d="M7.3549 5.1396
L7.4759 5.2000
" />
<path d="M7.4759 5.2000
L7.5968 5.2000
" />
<path d="M7.8387 4.3534
L8.3225 4.3534
" />
<path d="M8.0201 3.9300
L8.0201 5.0186
" />
<path d="M8.0201 5.0186
L8.0806 5.1396
" />
<path d="M8.0806 5.1396
L8.2016 5.2000
" />
<path d="M8.2016 5.2000
L8.3225 5.2000
" />
<path d="M8.7458 4.3534
L8.7458 5.6234
" />
<path d="M8.7458 4.4138
L8.8668 4.3534
" />
<path d="M8.8668 4.3534
L9.1087 4.3534
" />
<path d="M9.1087 4.3534
L9.2296 4.4138
" />
<path d="M9.2296 4.4138
L9.2901 4.4743
" />
<path d="M9.2901 4.4743
L9.3506 4.5953
" />
<path d="M9.3506 4.5953
L9.3506 4.9581
" />
<path d="M9.3506 4.9581
L9.2901 5.0791
" />
<path d="M9.2901 5.0791
L9.2296 5.1396
" />
<path d="M9.2296 5.1396
L9.1087 5.2000
" />
<path d="M9.1087 5.2000
L8.8668 5.2000
" />
<path d="M8.8668 5.2000
L8.7458 5.1396
" />
<path d="M9.8344 5.1396
L9.9553 5.2000
" />
<path d="M9.9553 5.2000
L10.1972 5.2000
" />
<path d="M10.1972 5.2000
L10.3182 5.1396
" />
<path d="M10.3182 5.1396
L10.3786 5.0186
" />
<path d="M10.3786 5.0186
L10.3786 4.9581
" />
<path d="M10.3786 4.9581
L10.3182 4.8372
" />
<path d="M10.3182 4.8372
L10.1972 4.7767
" />
<path d="M10.1972 4.7767
L10.0158 4.7767
" />
<path d="M10.0158 4.7767
L9.8948 4.7162
" />
<path d="M9.8948 4.7162
L9.8344 4.5953
" />
<path d="M9.8344 4.5953
L9.8344 4.5348
" />
<path d="M9.8344 4.5348
L9.8948 4.4138
" />
<path d="M9.8948 4.4138
L10.0158 4.3534
" />
<path d="M10.0158 4.3534
L10.1972 4.3534
" />
<path d="M10.1972 4.3534
L10.3182 4.4138
" />
<path d="M10.9229 5.0791
L10.9834 5.1396
" />
<path d="M10.9834 5.1396
L10.9229 5.2000
" />
<path d="M10.9229 5.2000
L10.8625 5.1396
" />
<path d="M10.8625 5.1396
L10.9229 5.0791
" />
<path d="M10.9229 5.0791
L10.9229 5.2000
" />
<path d="M10.9229 4.4138
L10.9834 4.4743
" />
<path d="M10.9834 4.4743
L10.9229 4.5348
" />
<path d="M10.9229 4.5348
L10.8625 4.4743
" />
<path d="M10.8625 4.4743
L10.9229 4.4138
" />
<path d="M10.9229 4.4138
L10.9229 4.5348
" />
<path d="M12.4349 3.8696
L11.3463 5.5024
" />
<path d="M13.7654 3.8696
L12.6768 5.5024
" />
<path d="M14.0678 4.3534
L14.3097 5.2000
" />
<path d="M14.3097 5.2000
L14.5516 4.5953
" />
<path d="M14.5516 4.5953
L14.7935 5.2000
" />
<path d="M14.7935 5.2000
L15.0354 4.3534
" />
<path d="M15.3983 4.3534
L15.6402 5.2000
" />
<path d="M15.6402 5.2000
L15.8821 4.5953
" />
<path d="M15.8821 4.5953
L16.1240 5.2000
" />
<path d="M16.1240 5.2000
L16.3659 4.3534
" />
<path d="M16.7288 4.3534
L16.9707 5.2000
" />
<path d="M16.9707 5.2000
L17.2126 4.5953
" />
<path d="M17.2126 4.5953
L17.4545 5.2000
" />
<path d="M17.4545 5.2000
L17.6964 4.3534
" />
<path d="M18.1802 5.0791
L18.2407 5.1396
" />
<path d="M18.2407 5.1396
L18.1802 5.2000
" />
<path d="M18.1802 5.2000
L18.1198 5.1396
" />
<path d="M18.1198 5.1396
L18.1802 5.0791
" />
<path d="M18.1802 5.0791
L18.1802 5.2000
" />
<path d="M18.9665 5.2000
L18.8455 5.1396
" />
<path d="M18.8455 5.1396
L18.7850 5.0791
" />
<path d="M18.7850 5.0791
L18.7246 4.9581
" />
<path d="M18.7246 4.9581
L18.7246 4.5953
" />
<path d="M18.7246 4.5953
L18.7850 4.4743
" />
<path d="M18.7850 4.4743
L18.8455 4.4138
" />
<path d="M18.8455 4.4138
L18.9665 4.3534
" />
<path d="M18.9665 4.3534
L19.1479 4.3534
" />
<path d="M19.1479 4.3534
L19.2688 4.4138
" />
<path d="M19.2688 4.4138
L19.3293 4.4743
" />
<path d="M19.3293 4.4743
L19.3898 4.5953
" />
<path d="M19.3898 4.5953
L19.3898 4.9581
" />
<path d="M19.3898 4.9581
L19.3293 5.0791
" />
<path d="M19.3293 5.0791
L19.2688 5.1396
" />
<path d="M19.2688 5.1396
L19.1479 5.2000
" />
<path d="M19.1479 5.2000
L18.9665 5.2000
" />
<path d="M19.9340 4.3534
L19.9340 5.2000
" />
<path d="M19.9340 4.4743
L19.9945 4.4138
" />
<path d="M19.9945 4.4138
L20.1155 4.3534
" />
<path d="M20.1155 4.3534
L20.2969 4.3534
" />
<path d="M20.2969 4.3534
L20.4178 4.4138
" />
<path d="M20.4178 4.4138
L20.4783 4.5348
" />
<path d="M20.4783 4.5348
L20.4783 5.2000
" />
<path d="M21.0226 5.1396
L21.1435 5.2000
" />
<path d="M21.1435 5.2000
L21.3854 5.2000
" />
<path d="M21.3854 5.2000
L21.5064 5.1396
" />
<path d="M21.5064 5.1396
L21.5668 5.0186
" />
<path d="M21.5668 5.0186
L21.5668 4.9581
" />
<path d="M21.5668 4.9581
L21.5064 4.8372
" />
<path d="M21.5064 4.8372
L21.3854 4.7767
" />
<path d="M21.3854 4.7767
L21.2040 4.7767
" />
<path d="M21.2040 4.7767
L21.0830 4.7162
" />
<path d="M21.0830 4.7162
L21.0226 4.5953
" />
<path d="M21.0226 4.5953
L21.0226 4.5348
" />
<path d="M21.0226 4.5348
L21.0830 4.4138
" />
<path d="M21.0830 4.4138
L21.2040 4.3534
" />
<path d="M21.2040 4.3534
L21.3854 4.3534
" />
<path d="M21.3854 4.3534
L21.5064 4.4138
" />
<path d="M22.5949 5.1396
L22.4740 5.2000
" />
<path d="M22.4740 5.2000
L22.2321 5.2000
" />
<path d="M22.2321 5.2000
L22.1111 5.1396
" />
<path d="M22.1111 5.1396
L22.0507 5.0186
" />
<path d="M22.0507 5.0186
L22.0507 4.5348
" />
<path d="M22.0507 4.5348
L22.1111 4.4138
" />
<path d="M22.1111 4.4138
L22.2321 4.3534
" />
<path d="M22.2321 4.3534
L22.4740 4.3534
" />
<path d="M22.4740 4.3534
L22.5949 4.4138
" />
<path d="M22.5949 4.4138
L22.6554 4.5348
" />
<path d="M22.6554 4.5348
L22.6554 4.6557
" />
<path d="M22.6554 4.6557
L22.0507 4.7767
" />
<path d="M23.1997 5.2000
L23.1997 4.3534
" />
<path d="M23.1997 4.4743
L23.2602 4.4138
" />
<path d="M23.2602 4.4138
L23.3812 4.3534
" />
<path d="M23.3812 4.3534
L23.5626 4.3534
" />
<path d="M23.5626 4.3534
L23.6835 4.4138
" />
<path d="M23.6835 4.4138
L23.7440 4.5348
" />
<path d="M23.7440 4.5348
L23.7440 5.2000
" />
<path d="M23.7440 4.5348
L23.8045 4.4138
" />
<path d="M23.8045 4.4138
L23.9254 4.3534
" />
<path d="M23.9254 4.3534
L24.1069 4.3534
" />
<path d="M24.1069 4.3534
L24.2278 4.4138
" />
<path d="M24.2278 4.4138
L24.2883 4.5348
" />
<path d="M24.2883 4.5348
L24.2883 5.2000
" />
<path d="M24.8930 5.2000
L24.8930 4.3534
" />
<path d="M24.8930 3.9300
L24.8326 3.9905
" />
<path d="M24.8326 3.9905
L24.8930 4.0510
" />
<path d="M24.8930 4.0510
L24.9535 3.9905
" />
<path d="M24.9535 3.9905
L24.8930 3.9300
" />
<path d="M24.8930 3.9300
L24.8930 4.0510
" />
<path d="M25.4978 5.0791
L25.5583 5.1396
" />
<path d="M25.5583 5.1396
L25.4978 5.2000
" />
<path d="M25.4978 5.2000
L25.4374 5.1396
" />
<path d="M25.4374 5.1396
L25.4978 5.0791
" />
<path d="M25.4978 5.0791
L25.4978 5.2000
" />
<path d="M26.6469 5.1396
L26.5260 5.2000
" />
<path d="M26.5260 5.2000
L26.2841 5.2000
" />
<path d="M26.2841 5.2000
L26.1631 5.1396
" />
<path d="M26.1631 5.1396
L26.1026 5.0791
" />
<path d="M26.1026 5.0791
L26.0422 4.9581
" />
<path d="M26.0422 4.9581
L26.0422 4.5953
" />
<path d="M26.0422 4.5953
L26.1026 4.4743
" />
<path d="M26.1026 4.4743
L26.1631 4.4138
" />
<path d="M26.1631 4.4138
L26.2841 4.3534
" />
<path d="M26.2841 4.3534
L26.5260 4.3534
" />
<path d="M26.5260 4.3534
L26.6469 4.4138
" />
<path d="M27.3727 5.2000
L27.2517 5.1396
" />
<path d="M27.2517 5.1396
L27.1912 5.0791
" />
<path d="M27.1912 5.0791
L27.1308 4.9581
" />
<path d="M27.1308 4.9581
L27.1308 4.5953
" />
<path d="M27.1308 4.5953
L27.1912 4.4743
" />
<path d="M27.1912 4.4743
L27.2517 4.4138
" />
<path d="M27.2517 4.4138
L27.3727 4.3534
" />
<path d="M27.3727 4.3534
L27.5541 4.3534
" />
<path d="M27.5541 4.3534
L27.6750 4.4138
" />
<path d="M27.6750 4.4138
L27.7355 4.4743
" />
<path d="M27.7355 4.4743
L27.7960 4.5953
" />
<path d="M27.7960 4.5953
L27.7960 4.9581
" />
<path d="M27.7960 4.9581
L27.7355 5.0791
" />
<path d="M27.7355 5.0791
L27.6750 5.1396
" />
<path d="M27.6750 5.1396
L27.5541 5.2000
" />
<path d="M27.5541 5.2000
L27.3727 5.2000
" />
<path d="M28.3402 5.2000
L28.3402 4.3534
" />
<path d="M28.3402 4.4743
L28.4007 4.4138
" />
<path d="M28.4007 4.4138
L28.5217 4.3534
" />
<path d="M28.5217 4.3534
L28.7031 4.3534
" />
<path d="M28.7031 4.3534
L28.8240 4.4138
" />
<path d="M28.8240 4.4138
L28.8845 4.5348
" />
<path d="M28.8845 4.5348
L28.8845 5.2000
" />
<path d="M28.8845 4.5348
L28.9450 4.4138
" />
<path d="M28.9450 4.4138
L29.0659 4.3534
" />
<path d="M29.0659 4.3534
L29.2474 4.3534
" />
<path d="M29.2474 4.3534
L29.3683 4.4138
" />
<path d="M29.3683 4.4138
L29.4288 4.5348
" />
<path d="M29.4288 4.5348
L29.4288 5.2000
" />
<path d="M30.9407 3.8696
L29.8521 5.5024
" />
<path d="M31.3640 4.3534
L31.3640 5.6234
" />
<path d="M31.3640 4.4138
L31.4850 4.3534
" />
<path d="M31.4850 4.3534
L31.7269 4.3534
" />
<path d="M31.7269 4.3534
L31.8478 4.4138
" />
<path d="M31.8478 4.4138
L31.9083 4.4743
" />
<path d="M31.9083 4.4743
L31.9688 4.5953
" />
<path d="M31.9688 4.5953
L31.9688 4.9581
" />
<path d="M31.9688 4.9581
L31.9083 5.0791
" />
<path d="M31.9083 5.0791
L31.8478 5.1396
" />
<path d="M31.8478 5.1396
L31.7269 5.2000
" />
<path d="M31.7269 5.2000
L31.4850 5.2000
" />
<path d="M31.4850 5.2000
L31.3640 5.1396
" />
<path d="M33.0573 4.3534
L33.0573 5.2000
" />
<path d="M32.5130 4.3534
L32.5130 5.0186
" />
<path d="M32.5130 5.0186
L32.5735 5.1396
" />
<path d="M32.5735 5.1396
L32.6945 5.2000
" />
<path d="M32.6945 5.2000
L32.8759 5.2000
" />
<path d="M32.8759 5.2000
L32.9968 5.1396
" />
<path d="M32.9968 5.1396
L33.0573 5.0791
" />
<path d="M33.6620 5.2000
L33.6620 3.9300
" />
<path d="M33.6620 4.4138
L33.7830 4.3534
" />
<path d="M33.7830 4.3534
L34.0249 4.3534
" />
<path d="M34.0249 4.3534
L34.1458 4.4138
" />
<path d="M34.1458 4.4138
L34.2063 4.4743
" />
<path d="M34.2063 4.4743
L34.2668 4.5953
" />
<path d="M34.2668 4.5953
L34.2668 4.9581
" />
<path d="M34.2668 4.9581
L34.2063 5.0791
" />
<path d="M34.2063 5.0791
L34.1458 5.1396
" />
<path d="M34.1458 5.1396
L34.0249 5.2000
" />
<path d="M34.0249 5.2000
L33.7830 5.2000
" />
<path d="M33.7830 5.2000
L33.6620 5.1396
" />
<path d="M35.7182 3.8696
L34.6296 5.5024
" />
<path d="M36.8672 5.0791
L36.8068 5.1396
" />
<path d="M36.8068 5.1396
L36.6253 5.2000
" />
<path d="M36.6253 5.2000
L36.5044 5.2000
" />
<path d="M36.5044 5.2000
L36.3230 5.1396
" />
<path d="M36.3230 5.1396
L36.2020 5.0186
" />
<path d="M36.2020 5.0186
L36.1415 4.8976
" />
<path d="M36.1415 4.8976
L36.0811 4.6557
" />
<path d="M36.0811 4.6557
L36.0811 4.4743
" />
<path d="M36.0811 4.4743
L36.1415 4.2324
" />
<path d="M36.1415 4.2324
L36.2020 4.1115
" />
<path d="M36.2020 4.1115
L36.3230 3.9905
" />
<path d="M36.3230 3.9905
L36.5044 3.9300
" />
<path d="M36.5044 3.9300
L36.6253 3.9300
" />
<path d="M36.6253 3.9300
L36.8068 3.9905
" />
<path d="M36.8068 3.9905
L36.8672 4.0510
" />
<path d="M37.5930 5.2000
L37.4720 5.1396
" />
<path d="M37.4720 5.1396
L37.4115 5.0791
" />
<path d="M37.4115 5.0791
L37.3511 4.9581
" />
<path d="M37.3511 4.9581
L37.3511 4.5953
" />
<path d="M37.3511 4.5953
L37.4115 4.4743
" />
<path d="M37.4115 4.4743
L37.4720 4.4138
" />
<path d="M37.4720 4.4138
L37.5930 4.3534
" />
<path d="M37.5930 4.3534
L37.7744 4.3534
" />
<path d="M37.7744 4.3534
L37.8953 4.4138
" />
<path d="M37.8953 4.4138
L37.9558 4.4743
" />
<path d="M37.9558 4.4743
L38.0163 4.5953
" />
<path d="M38.0163 4.5953
L38.0163 4.9581
" />
<path d="M38.0163 4.9581
L37.9558 5.0791
" />
<path d="M37.9558 5.0791
L37.8953 5.1396
" />
<path d="M37.8953 5.1396
L37.7744 5.2000
" />
<path d="M37.7744 5.2000
L37.5930 5.2000
" />
<path d="M38.7420 5.2000
L38.6210 5.1396
" />
<path d="M38.6210 5.1396
L38.5605 5.0186
" />
<path d="M38.5605 5.0186
L38.5605 3.9300
" />
<path d="M39.4072 5.2000
L39.2862 5.1396
" />
<path d="M39.2862 5.1396
L39.2257 5.0186
" />
<path d="M39.2257 5.0186
L39.2257 3.9300
" />
<path d="M40.4352 5.2000
L40.4352 4.5348
" />
<path d="M40.4352 4.5348
L40.3747 4.4138
" />
<path d="M40.3747 4.4138
L40.2538 4.3534
" />
<path d="M40.2538 4.3534
L40.0119 4.3534
" />
<path d="M40.0119 4.3534
L39.8909 4.4138
" />
<path d="M40.4352 5.1396
L40.3143 5.2000
" />
<path d="M40.3143 5.2000
L40.0119 5.2000
" />
<path d="M40.0119 5.2000
L39.8909 5.1396
" />
<path d="M39.8909 5.1396
L39.8305 5.0186
" />
<path d="M39.8305 5.0186
L39.8305 4.8976
" />
<path d="M39.8305 4.8976
L39.8909 4.7767
" />
<path d="M39.8909 4.7767
L40.0119 4.7162
" />
<path d="M40.0119 4.7162
L40.3143 4.7162
" />
<path d="M40.3143 4.7162
L40.4352 4.6557
" />
<path d="M40.8585 4.3534
L41.3423 4.3534
" />
<path d="M41.0399 3.9300
L41.0399 5.0186
" />
<path d="M41.0399 5.0186
L41.1004 5.1396
" />
<path d="M41.1004 5.1396
L41.2214 5.2000
" />
<path d="M41.2214 5.2000
L41.3423 5.2000
" />
<path d="M42.2494 5.1396
L42.1285 5.2000
" />
<path d="M42.1285 5.2000
L41.8866 5.2000
" />
<path d="M41.8866 5.2000
L41.7656 5.1396
" />
<path d="M41.7656 5.1396
L41.7052 5.0186
" />
<path d="M41.7052 5.0186
L41.7052 4.5348
" />
<path d="M41.7052 4.5348
L41.7656 4.4138
" />
<path d="M41.7656 4.4138
L41.8866 4.3534
" />
<path d="M41.8866 4.3534
L42.1285 4.3534
" />
<path d="M42.1285 4.3534
L42.2494 4.4138
" />
<path d="M42.2494 4.4138
L42.3099 4.5348
" />
<path d="M42.3099 4.5348
L42.3099 4.6557
" />
<path d="M42.3099 4.6557
L41.7052 4.7767
" />
<path d="M42.8542 5.2000
L42.8542 4.3534
" />
<path d="M42.8542 4.5953
L42.9147 4.4743
" />
<path d="M42.9147 4.4743
L42.9752 4.4138
" />
<path d="M42.9752 4.4138
L43.0961 4.3534
" />
<path d="M43.0961 4.3534
L43.2171 4.3534
" />
<path d="M44.1847 5.2000
L44.1847 4.5348
" />
<path d="M44.1847 4.5348
L44.1242 4.4138
" />
<path d="M44.1242 4.4138
L44.0033 4.3534
" />
<path d="M44.0033 4.3534
L43.7614 4.3534
" />
<path d="M43.7614 4.3534
L43.6404 4.4138
" />
<path d="M44.1847 5.1396
L44.0638 5.2000
" />
<path d="M44.0638 5.2000
L43.7614 5.2000
" />
<path d="M43.7614 5.2000
L43.6404 5.1396
" />
<path d="M43.6404 5.1396
L43.5800 5.0186
" />
<path d="M43.5800 5.0186
L43.5800 4.8976
" />
<path d="M43.5800 4.8976
L43.6404 4.7767
" />
<path d="M43.6404 4.7767
L43.7614 4.7162
" />
<path d="M43.7614 4.7162
L44.0638 4.7162
" />
<path d="M44.0638 4.7162
L44.1847 4.6557
" />
<path d="M44.9709 5.2000
L44.8499 5.1396
" />
<path d="M44.8499 5.1396
L44.7894 5.0186
" />
<path d="M44.7894 5.0186
L44.7894 3.9300
" />
<path d="M46.3618 3.8696
L45.2732 5.5024
" />
<path d="M46.7851 5.2000
L46.7851 3.9300
" />
<path d="M46.7851 3.9300
L47.5108 5.2000
" />
<path d="M47.5108 5.2000
L47.5108 3.9300
" />
<path d="M48.8413 5.0791
L48.7809 5.1396
" />
<path d="M48.7809 5.1396
L48.5994 5.2000
" />
<path d="M48.5994 5.2000
L48.4785 5.2000
" />
<path d="M48.4785 5.2000
L48.2971 5.1396
" />
<path d="M48.2971 5.1396
L48.1761 5.0186
" />
<path d="M48.1761 5.0186
L48.1156 4.8976
" />
<path d="M48.1156 4.8976
L48.0552 4.6557
" />
<path d="M48.0552 4.6557
L48.0552 4.4743
" />
<path d="M48.0552 4.4743
L48.1156 4.2324
" />
<path d="M48.1156 4.2324
L48.1761 4.1115
" />
<path d="M48.1761 4.1115
L48.2971 3.9905
" />
<path d="M48.2971 3.9905
L48.4785 3.9300
" />
<path d="M48.4785 3.9300
L48.5994 3.9300
" />
<path d="M48.5994 3.9300
L48.7809 3.9905
" />
<path d="M48.7809 3.9905
L48.8413 4.0510
" />
<path d="M49.3252 5.1396
L49.5066 5.2000
" />
<path d="M49.5066 5.2000
L49.8090 5.2000
" />
<path d="M49.8090 5.2000
L49.9299 5.1396
" />
<path d="M49.9299 5.1396
L49.9904 5.0791
" />
<path d="M49.9904 5.0791
L50.0509 4.9581
" />
<path d="M50.0509 4.9581
L50.0509 4.8372
" />
<path d="M50.0509 4.8372
L49.9904 4.7162
" />
<path d="M49.9904 4.7162
L49.9299 4.6557
" />
<path d="M49.9299 4.6557
L49.8090 4.5953
" />
<path d="M49.8090 4.5953
L49.5671 4.5348
" />
<path d="M49.5671 4.5348
L49.4461 4.4743
" />
<path d="M49.4461 4.4743
L49.3856 4.4138
" />
<path d="M49.3856 4.4138
L49.3252 4.2929
" />
<path d="M49.3252 4.2929
L49.3252 4.1719
" />
<path d="M49.3252 4.1719
L49.3856 4.0510
" />
<path d="M49.3856 4.0510
L49.4461 3.9905
" />
<path d="M49.4461 3.9905
L49.5671 3.9300
" />
<path d="M49.5671 3.9300
L49.8694 3.9300
" />
<path d="M49.8694 3.9300
L50.0509 3.9905
" />
<path d="M50.5347 4.0510
L50.5951 3.9905
" />
<path d="M50.5951 3.9905
L50.7161 3.9300
" />
<path d="M50.7161 3.9300
L51.0185 3.9300
" />
<path d="M51.0185 3.9300
L51.1394 3.9905
" />
<path d="M51.1394 3.9905
L51.1999 4.0510
" />
<path d="M51.1999 4.0510
L51.2604 4.1719
" />
<path d="M51.2604 4.1719
L51.2604 4.2929
" />
<path d="M51.2604 4.2929
L51.1999 4.4743
" />
<path d="M51.1999 4.4743
L50.4742 5.2000
" />
<path d="M50.4742 5.2000
L51.2604 5.2000
" />
<path d="M52.0465 3.9300
L52.1675 3.9300
" />
<path d="M52.1675 3.9300
L52.2884 3.9905
" />
<path d="M52.2884 3.9905
L52.3489 4.0510
" />
<path d="M52.3489 4.0510
L52.4094 4.1719
" />
<path d="M52.4094 4.1719
L52.4699 4.4138
" />
<path d="M52.4699 4.4138
L52.4699 4.7162
" />
<path d="M52.4699 4.7162
L52.4094 4.9581
" />
<path d="M52.4094 4.9581
L52.3489 5.0791
" />
<path d="M52.3489 5.0791
L52.2884 5.1396
" />
<path d="M52.2884 5.1396
L52.1675 5.2000
" />
<path d="M52.1675 5.2000
L52.0465 5.2000
" />
<path d="M52.0465 5.2000
L51.9256 5.1396
" />
<path d="M51.9256 5.1396
L51.8651 5.0791
" />
<path d="M51.8651 5.0791
L51.8046 4.9581
" />
<path d="M51.8046 4.9581
L51.7442 4.7162
" />
<path d="M51.7442 4.7162
L51.7442 4.4138
" />
<path d="M51.7442 4.4138
L51.8046 4.1719
" />
<path d="M51.8046 4.1719
L51.8651 4.0510
" />
<path d="M51.8651 4.0510
L51.9256 3.9905
" />
<path d="M51.9256 3.9905
L52.0465 3.9300
" />
<path d="M53.2560 3.9300
L53.3770 3.9300
" />
<path d="M53.3770 3.9300
L53.4979 3.9905
" />
<path d="M53.4979 3.9905
L53.5584 4.0510
" />
<path d="M53.5584 4.0510
L53.6189 4.1719
" />
<path d="M53.6189 4.1719
L53.6794 4.4138
" />
<path d="M53.6794 4.4138
L53.6794 4.7162
" />
<path d="M53.6794 4.7162
L53.6189 4.9581
" />
<path d="M53.6189 4.9581
L53.5584 5.0791
" />
<path d="M53.5584 5.0791
L53.4979 5.1396
" />
<path d="M53.4979 5.1396
L53.3770 5.2000
" />
<path d="M53.3770 5.2000
L53.2560 5.2000
" />
<path d="M53.2560 5.2000
L53.1351 5.1396
" />
<path d="M53.1351 5.1396
L53.0746 5.0791
" />
<path d="M53.0746 5.0791
L53.0141 4.9581
" />
<path d="M53.0141 4.9581
L52.9537 4.7162
" />
<path d="M52.9537 4.7162
L52.9537 4.4138
" />
<path d="M52.9537 4.4138
L53.0141 4.1719
" />
<path d="M53.0141 4.1719
L53.0746 4.0510
" />
<path d="M53.0746 4.0510
L53.1351 3.9905
" />
<path d="M53.1351 3.9905
L53.2560 3.9300
" />
<path d="M54.1027 3.9300
L54.9493 3.9300
" />
<path d="M54.9493 3.9300
L54.4051 5.2000
" />
<path d="M56.0984 5.2000
L55.3727 5.2000
" />
<path d="M55.7355 5.2000
L55.7355 3.9300
" />
<path d="M55.7355 3.9300
L55.6146 4.1115
" />
<path d="M55.6146 4.1115
L55.4936 4.2324
" />
<path d="M55.4936 4.2324
L55.3727 4.2929
" />
<path d="M56.6426 4.7162
L57.6103 4.7162
" />
<path d="M58.2150 5.2000
L58.2150 3.9300
" />
<path d="M58.2150 3.9300
L58.5174 3.9300
" />
<path d="M58.5174 3.9300
L58.6988 3.9905
" />
<path d="M58.6988 3.9905
L58.8198 4.1115
" />
<path d="M58.8198 4.1115
L58.8803 4.2324
" />
<path d="M58.8803 4.2324
L58.9407 4.4743
" />
<path d="M58.9407 4.4743
L58.9407 4.6557
" />
<path d="M58.9407 4.6557
L58.8803 4.8976
" />
<path d="M58.8803 4.8976
L58.8198 5.0186
" />
<path d="M58.8198 5.0186
L58.6988 5.1396
" />
<path d="M58.6988 5.1396
L58.5174 5.2000
" />
<path d="M58.5174 5.2000
L58.2150 5.2000
" />
<path d="M59.4850 5.0791
L59.5455 5.1396
" />
<path d="M59.5455 5.1396
L59.4850 5.2000
" />
<path d="M59.4850 5.2000
L59.4246 5.1396
" />
<path d="M59.4246 5.1396
L59.4850 5.0791
" />
<path d="M59.4850 5.0791
L59.4850 5.2000
" />
<path d="M60.0898 5.2000
L60.0898 3.9300
" />
<path d="M60.0898 3.9300
L60.5736 3.9300
" />
<path d="M60.5736 3.9300
L60.6946 3.9905
" />
<path d="M60.6946 3.9905
L60.7551 4.0510
" />
<path d="M60.7551 4.0510
L60.8155 4.1719
" />
<path d="M60.8155 4.1719
L60.8155 4.3534
" />
<path d="M60.8155 4.3534
L60.7551 4.4743
" />
<path d="M60.7551 4.4743
L60.6946 4.5348
" />
<path d="M60.6946 4.5348
L60.5736 4.5953
" />
<path d="M60.5736 4.5953
L60.0898 4.5953
" />
<path d="M61.3598 5.2000
L61.3598 3.9300
" />
<path d="M61.3598 3.9300
L61.6622 3.9300
" />
<path d="M61.6622 3.9300
L61.8436 3.9905
" />
<path d="M61.8436 3.9905
L61.9646 4.1115
" />
<path d="M61.9646 4.1115
L62.0251 4.2324
" />
<path d="M62.0251 4.2324
L62.0855 4.4743
" />
<path d="M62.0855 4.4743
L62.0855 4.6557
" />
<path d="M62.0855 4.6557
L62.0251 4.8976
" />
<path d="M62.0251 4.8976
L61.9646 5.0186
" />
<path d="M61.9646 5.0186
L61.8436 5.1396
" />
<path d="M61.8436 5.1396
L61.6622 5.2000
" />
<path d="M61.6622 5.2000
L61.3598 5.2000
" />
<path d="M63.0532 4.5348
L62.6298 4.5348
" />
<path d="M62.6298 5.2000
L62.6298 3.9300
" />
<path d="M62.6298 3.9300
L63.2346 3.9300
" />
</g></g> 
</svg>
