<?xml version="1.0" standalone="no"?>
 <!DOCTYPE svg PUBLIC "-//W3C//DTD SVG 1.1//EN" 
 "http://www.w3.org/Graphics/SVG/1.1/DTD/svg11.dtd"> 
<svg
  xmlns:svg="http://www.w3.org/2000/svg"
  xmlns="http://www.w3.org/2000/svg"
  xmlns:xlink="http://www.w3.org/1999/xlink"
  version="1.1"
  width="104.5464mm" height="33.2232mm" viewBox="0.0000 0.0000 104.5464 33.2232">
<title>SVG Image created as working.svg date 2023/08/03 21:37:03 </title>
  <desc>Image generated by Eeschema-SVG </desc>
<g style="fill:#000000; fill-opacity:1.0000;stroke:#000000; stroke-opacity:1.0000;
stroke-linecap:round; stroke-linejoin:round;"
 transform="translate(0 0) scale(1 1)">
</g>
<g style="fill:#840000; fill-opacity:0.0; 
stroke:#840000; stroke-width:0.0000; stroke-opacity:1; 
stroke-linecap:round; stroke-linejoin:round;">
</g>
<g style="fill:#FFFFC2; fill-opacity:0.0; 
stroke:#FFFFC2; stroke-width:0.0000; stroke-opacity:1; 
stroke-linecap:round; stroke-linejoin:round;">
</g>
<g style="fill:#FFFFC2; fill-opacity:1.0000; 
stroke:#FFFFC2; stroke-width:0.0000; stroke-opacity:1; 
stroke-linecap:round; stroke-linejoin:round;">
<rect x="47.195400" y="7.600700" width="10.160000" height="20.320000" rx="0.000000" />
</g>
<g style="fill:#840084; fill-opacity:1.0000; 
stroke:#840084; stroke-width:0.0000; stroke-opacity:1; 
stroke-linecap:round; stroke-linejoin:round;">
</g>
<g style="fill:#840000; fill-opacity:1.0000; 
stroke:#840000; stroke-width:0.0000; stroke-opacity:1; 
stroke-linecap:round; stroke-linejoin:round;">
</g>
<g style="fill:#840000; fill-opacity:0.0; 
stroke:#840000; stroke-width:0.2540; stroke-opacity:1; 
stroke-linecap:round; stroke-linejoin:round;">
<rect x="47.195400" y="7.600700" width="10.160000" height="20.320000" rx="0.000000" />
</g>
<g style="fill:#840000; fill-opacity:0.0; 
stroke:#840000; stroke-width:0.1524; stroke-opacity:1; 
stroke-linecap:round; stroke-linejoin:round;">
<path d="M47.1954 17.7607
L44.6554 17.7607
" />
</g>
<g style="fill:#006464; fill-opacity:0.0; 
stroke:#006464; stroke-width:0.1524; stroke-opacity:1; 
stroke-linecap:round; stroke-linejoin:round;">
<text x="47.7034" y="18.3957"
textLength="3.4690" font-size="1.6933" lengthAdjust="spacingAndGlyphs"
text-anchor="start" opacity="0">HIN</text>
<g class="stroked-text"><desc>HIN</desc>
<path d="M48.1059 18.3402
L48.1059 17.0702
" />
<path d="M48.1059 17.6750
L48.8316 17.6750
" />
<path d="M48.8316 18.3402
L48.8316 17.0702
" />
<path d="M49.4364 18.3402
L49.4364 17.0702
" />
<path d="M50.0412 18.3402
L50.0412 17.0702
" />
<path d="M50.0412 17.0702
L50.7669 18.3402
" />
<path d="M50.7669 18.3402
L50.7669 17.0702
" />
</g></g>
<g style="fill:#A90000; fill-opacity:0.0; 
stroke:#A90000; stroke-width:0.1524; stroke-opacity:1; 
stroke-linecap:round; stroke-linejoin:round;">
<text x="45.9254" y="17.5067"
textLength="1.4127" font-size="1.6933" lengthAdjust="spacingAndGlyphs"
text-anchor="middle" opacity="0">1</text>
<g class="stroked-text"><desc>1</desc>
<path d="M46.2883 17.3432
L45.5626 17.3432
" />
<path d="M45.9254 17.3432
L45.9254 16.0732
" />
<path d="M45.9254 16.0732
L45.8045 16.2547
" />
<path d="M45.8045 16.2547
L45.6835 16.3756
" />
<path d="M45.6835 16.3756
L45.5626 16.4361
" />
</g></g>
<g style="fill:#840000; fill-opacity:0.0; 
stroke:#840000; stroke-width:0.1524; stroke-opacity:1; 
stroke-linecap:round; stroke-linejoin:round;">
<path d="M57.3554 22.8407
L59.8954 22.8407
" />
</g>
<g style="fill:#006464; fill-opacity:0.0; 
stroke:#006464; stroke-width:0.1524; stroke-opacity:1; 
stroke-linecap:round; stroke-linejoin:round;">
<text x="56.8474" y="23.4757"
textLength="2.5013" font-size="1.6933" lengthAdjust="spacingAndGlyphs"
text-anchor="end" opacity="0">VS</text>
<g class="stroked-text"><desc>VS</desc>
<path d="M54.5700 22.1502
L54.9933 23.4202
" />
<path d="M54.9933 23.4202
L55.4167 22.1502
" />
<path d="M55.7796 23.3598
L55.9610 23.4202
" />
<path d="M55.9610 23.4202
L56.2634 23.4202
" />
<path d="M56.2634 23.4202
L56.3843 23.3598
" />
<path d="M56.3843 23.3598
L56.4448 23.2993
" />
<path d="M56.4448 23.2993
L56.5053 23.1783
" />
<path d="M56.5053 23.1783
L56.5053 23.0574
" />
<path d="M56.5053 23.0574
L56.4448 22.9364
" />
<path d="M56.4448 22.9364
L56.3843 22.8759
" />
<path d="M56.3843 22.8759
L56.2634 22.8155
" />
<path d="M56.2634 22.8155
L56.0215 22.7550
" />
<path d="M56.0215 22.7550
L55.9005 22.6945
" />
<path d="M55.9005 22.6945
L55.8400 22.6340
" />
<path d="M55.8400 22.6340
L55.7796 22.5131
" />
<path d="M55.7796 22.5131
L55.7796 22.3921
" />
<path d="M55.7796 22.3921
L55.8400 22.2712
" />
<path d="M55.8400 22.2712
L55.9005 22.2107
" />
<path d="M55.9005 22.2107
L56.0215 22.1502
" />
<path d="M56.0215 22.1502
L56.3238 22.1502
" />
<path d="M56.3238 22.1502
L56.5053 22.2107
" />
</g></g>
<g style="fill:#A90000; fill-opacity:0.0; 
stroke:#A90000; stroke-width:0.1524; stroke-opacity:1; 
stroke-linecap:round; stroke-linejoin:round;">
<text x="58.6254" y="22.5867"
textLength="2.6222" font-size="1.6933" lengthAdjust="spacingAndGlyphs"
text-anchor="middle" opacity="0">11</text>
<g class="stroked-text"><desc>11</desc>
<path d="M58.3835 22.4232
L57.6578 22.4232
" />
<path d="M58.0206 22.4232
L58.0206 21.1532
" />
<path d="M58.0206 21.1532
L57.8997 21.3347
" />
<path d="M57.8997 21.3347
L57.7787 21.4556
" />
<path d="M57.7787 21.4556
L57.6578 21.5161
" />
<path d="M59.5930 22.4232
L58.8673 22.4232
" />
<path d="M59.2301 22.4232
L59.2301 21.1532
" />
<path d="M59.2301 21.1532
L59.1092 21.3347
" />
<path d="M59.1092 21.3347
L58.9882 21.4556
" />
<path d="M58.9882 21.4556
L58.8673 21.5161
" />
</g></g>
<g style="fill:#840000; fill-opacity:0.0; 
stroke:#840000; stroke-width:0.1524; stroke-opacity:1; 
stroke-linecap:round; stroke-linejoin:round;">
<path d="M57.3554 12.6807
L59.8954 12.6807
" />
</g>
<g style="fill:#006464; fill-opacity:0.0; 
stroke:#006464; stroke-width:0.1524; stroke-opacity:1; 
stroke-linecap:round; stroke-linejoin:round;">
<text x="56.8474" y="13.3157"
textLength="2.8642" font-size="1.6933" lengthAdjust="spacingAndGlyphs"
text-anchor="end" opacity="0">HO</text>
<g class="stroked-text"><desc>HO</desc>
<path d="M54.3885 13.2602
L54.3885 11.9902
" />
<path d="M54.3885 12.5950
L55.1142 12.5950
" />
<path d="M55.1142 13.2602
L55.1142 11.9902
" />
<path d="M55.9609 11.9902
L56.2028 11.9902
" />
<path d="M56.2028 11.9902
L56.3238 12.0507
" />
<path d="M56.3238 12.0507
L56.4447 12.1717
" />
<path d="M56.4447 12.1717
L56.5052 12.4136
" />
<path d="M56.5052 12.4136
L56.5052 12.8369
" />
<path d="M56.5052 12.8369
L56.4447 13.0788
" />
<path d="M56.4447 13.0788
L56.3238 13.1998
" />
<path d="M56.3238 13.1998
L56.2028 13.2602
" />
<path d="M56.2028 13.2602
L55.9609 13.2602
" />
<path d="M55.9609 13.2602
L55.8400 13.1998
" />
<path d="M55.8400 13.1998
L55.7190 13.0788
" />
<path d="M55.7190 13.0788
L55.6586 12.8369
" />
<path d="M55.6586 12.8369
L55.6586 12.4136
" />
<path d="M55.6586 12.4136
L55.7190 12.1717
" />
<path d="M55.7190 12.1717
L55.8400 12.0507
" />
<path d="M55.8400 12.0507
L55.9609 11.9902
" />
</g></g>
<g style="fill:#A90000; fill-opacity:0.0; 
stroke:#A90000; stroke-width:0.1524; stroke-opacity:1; 
stroke-linecap:round; stroke-linejoin:round;">
<text x="58.6254" y="12.4267"
textLength="2.6222" font-size="1.6933" lengthAdjust="spacingAndGlyphs"
text-anchor="middle" opacity="0">12</text>
<g class="stroked-text"><desc>12</desc>
<path d="M58.3835 12.2632
L57.6578 12.2632
" />
<path d="M58.0206 12.2632
L58.0206 10.9932
" />
<path d="M58.0206 10.9932
L57.8997 11.1747
" />
<path d="M57.8997 11.1747
L57.7787 11.2956
" />
<path d="M57.7787 11.2956
L57.6578 11.3561
" />
<path d="M58.8673 11.1142
L58.9277 11.0537
" />
<path d="M58.9277 11.0537
L59.0487 10.9932
" />
<path d="M59.0487 10.9932
L59.3511 10.9932
" />
<path d="M59.3511 10.9932
L59.4720 11.0537
" />
<path d="M59.4720 11.0537
L59.5325 11.1142
" />
<path d="M59.5325 11.1142
L59.5930 11.2351
" />
<path d="M59.5930 11.2351
L59.5930 11.3561
" />
<path d="M59.5930 11.3561
L59.5325 11.5375
" />
<path d="M59.5325 11.5375
L58.8068 12.2632
" />
<path d="M58.8068 12.2632
L59.5930 12.2632
" />
</g></g>
<g style="fill:#840000; fill-opacity:0.0; 
stroke:#840000; stroke-width:0.1524; stroke-opacity:1; 
stroke-linecap:round; stroke-linejoin:round;">
<path d="M57.3554 10.1407
L59.8954 10.1407
" />
</g>
<g style="fill:#006464; fill-opacity:0.0; 
stroke:#006464; stroke-width:0.1524; stroke-opacity:1; 
stroke-linecap:round; stroke-linejoin:round;">
<text x="56.8474" y="10.7757"
textLength="2.5618" font-size="1.6933" lengthAdjust="spacingAndGlyphs"
text-anchor="end" opacity="0">VB</text>
<g class="stroked-text"><desc>VB</desc>
<path d="M54.5095 9.4502
L54.9328 10.7202
" />
<path d="M54.9328 10.7202
L55.3562 9.4502
" />
<path d="M56.2029 10.0550
L56.3843 10.1155
" />
<path d="M56.3843 10.1155
L56.4448 10.1759
" />
<path d="M56.4448 10.1759
L56.5052 10.2969
" />
<path d="M56.5052 10.2969
L56.5052 10.4783
" />
<path d="M56.5052 10.4783
L56.4448 10.5993
" />
<path d="M56.4448 10.5993
L56.3843 10.6598
" />
<path d="M56.3843 10.6598
L56.2633 10.7202
" />
<path d="M56.2633 10.7202
L55.7795 10.7202
" />
<path d="M55.7795 10.7202
L55.7795 9.4502
" />
<path d="M55.7795 9.4502
L56.2029 9.4502
" />
<path d="M56.2029 9.4502
L56.3238 9.5107
" />
<path d="M56.3238 9.5107
L56.3843 9.5712
" />
<path d="M56.3843 9.5712
L56.4448 9.6921
" />
<path d="M56.4448 9.6921
L56.4448 9.8131
" />
<path d="M56.4448 9.8131
L56.3843 9.9340
" />
<path d="M56.3843 9.9340
L56.3238 9.9945
" />
<path d="M56.3238 9.9945
L56.2029 10.0550
" />
<path d="M56.2029 10.0550
L55.7795 10.0550
" />
</g></g>
<g style="fill:#A90000; fill-opacity:0.0; 
stroke:#A90000; stroke-width:0.1524; stroke-opacity:1; 
stroke-linecap:round; stroke-linejoin:round;">
<text x="58.6254" y="9.8867"
textLength="2.6222" font-size="1.6933" lengthAdjust="spacingAndGlyphs"
text-anchor="middle" opacity="0">13</text>
<g class="stroked-text"><desc>13</desc>
<path d="M58.3835 9.7232
L57.6578 9.7232
" />
<path d="M58.0206 9.7232
L58.0206 8.4532
" />
<path d="M58.0206 8.4532
L57.8997 8.6347
" />
<path d="M57.8997 8.6347
L57.7787 8.7556
" />
<path d="M57.7787 8.7556
L57.6578 8.8161
" />
<path d="M58.8068 8.4532
L59.5930 8.4532
" />
<path d="M59.5930 8.4532
L59.1696 8.9370
" />
<path d="M59.1696 8.9370
L59.3511 8.9370
" />
<path d="M59.3511 8.9370
L59.4720 8.9975
" />
<path d="M59.4720 8.9975
L59.5325 9.0580
" />
<path d="M59.5325 9.0580
L59.5930 9.1789
" />
<path d="M59.5930 9.1789
L59.5930 9.4813
" />
<path d="M59.5930 9.4813
L59.5325 9.6023
" />
<path d="M59.5325 9.6023
L59.4720 9.6628
" />
<path d="M59.4720 9.6628
L59.3511 9.7232
" />
<path d="M59.3511 9.7232
L58.9882 9.7232
" />
<path d="M58.9882 9.7232
L58.8673 9.6628
" />
<path d="M58.8673 9.6628
L58.8068 9.6023
" />
</g></g>
<g style="fill:#840000; fill-opacity:0.0; 
stroke:#840000; stroke-width:0.1524; stroke-opacity:1; 
stroke-linecap:round; stroke-linejoin:round;">
<path d="M47.1954 20.3007
L44.6554 20.3007
" />
</g>
<g style="fill:#006464; fill-opacity:0.0; 
stroke:#006464; stroke-width:0.1524; stroke-opacity:1; 
stroke-linecap:round; stroke-linejoin:round;">
<text x="47.7034" y="20.9357"
textLength="3.1666" font-size="1.6933" lengthAdjust="spacingAndGlyphs"
text-anchor="start" opacity="0">LIN</text>
<g class="stroked-text"><desc>LIN</desc>
<path d="M48.7107 20.8802
L48.1059 20.8802
" />
<path d="M48.1059 20.8802
L48.1059 19.6102
" />
<path d="M49.1340 20.8802
L49.1340 19.6102
" />
<path d="M49.7388 20.8802
L49.7388 19.6102
" />
<path d="M49.7388 19.6102
L50.4645 20.8802
" />
<path d="M50.4645 20.8802
L50.4645 19.6102
" />
</g></g>
<g style="fill:#A90000; fill-opacity:0.0; 
stroke:#A90000; stroke-width:0.1524; stroke-opacity:1; 
stroke-linecap:round; stroke-linejoin:round;">
<text x="45.9254" y="20.0467"
textLength="1.4127" font-size="1.6933" lengthAdjust="spacingAndGlyphs"
text-anchor="middle" opacity="0">2</text>
<g class="stroked-text"><desc>2</desc>
<path d="M45.5626 18.7342
L45.6230 18.6737
" />
<path d="M45.6230 18.6737
L45.7440 18.6132
" />
<path d="M45.7440 18.6132
L46.0464 18.6132
" />
<path d="M46.0464 18.6132
L46.1673 18.6737
" />
<path d="M46.1673 18.6737
L46.2278 18.7342
" />
<path d="M46.2278 18.7342
L46.2883 18.8551
" />
<path d="M46.2883 18.8551
L46.2883 18.9761
" />
<path d="M46.2883 18.9761
L46.2278 19.1575
" />
<path d="M46.2278 19.1575
L45.5021 19.8832
" />
<path d="M45.5021 19.8832
L46.2883 19.8832
" />
</g></g>
<g style="fill:#840000; fill-opacity:0.0; 
stroke:#840000; stroke-width:0.1524; stroke-opacity:1; 
stroke-linecap:round; stroke-linejoin:round;">
<path d="M49.7354 27.9207
L49.7354 30.4607
" />
</g>
<g style="fill:#006464; fill-opacity:0.0; 
stroke:#006464; stroke-width:0.1524; stroke-opacity:1; 
stroke-linecap:round; stroke-linejoin:round;">
<g transform="rotate(-90.000000 49.7354 27.4127)">
<text x="49.7354" y="28.0477"
textLength="3.7108" font-size="1.6933" lengthAdjust="spacingAndGlyphs"
text-anchor="start" opacity="0">VSS</text>
</g>
<g class="stroked-text"><desc>VSS</desc>
<path d="M49.0449 27.1915
L50.3149 26.7682
" />
<path d="M50.3149 26.7682
L49.0449 26.3448
" />
<path d="M50.2545 25.9819
L50.3149 25.8005
" />
<path d="M50.3149 25.8005
L50.3149 25.4981
" />
<path d="M50.3149 25.4981
L50.2545 25.3772
" />
<path d="M50.2545 25.3772
L50.1940 25.3167
" />
<path d="M50.1940 25.3167
L50.0730 25.2562
" />
<path d="M50.0730 25.2562
L49.9521 25.2562
" />
<path d="M49.9521 25.2562
L49.8311 25.3167
" />
<path d="M49.8311 25.3167
L49.7706 25.3772
" />
<path d="M49.7706 25.3772
L49.7102 25.4981
" />
<path d="M49.7102 25.4981
L49.6497 25.7400
" />
<path d="M49.6497 25.7400
L49.5892 25.8610
" />
<path d="M49.5892 25.8610
L49.5287 25.9215
" />
<path d="M49.5287 25.9215
L49.4078 25.9819
" />
<path d="M49.4078 25.9819
L49.2868 25.9819
" />
<path d="M49.2868 25.9819
L49.1659 25.9215
" />
<path d="M49.1659 25.9215
L49.1054 25.8610
" />
<path d="M49.1054 25.8610
L49.0449 25.7400
" />
<path d="M49.0449 25.7400
L49.0449 25.4377
" />
<path d="M49.0449 25.4377
L49.1054 25.2562
" />
<path d="M50.2545 24.7724
L50.3149 24.5910
" />
<path d="M50.3149 24.5910
L50.3149 24.2886
" />
<path d="M50.3149 24.2886
L50.2545 24.1677
" />
<path d="M50.2545 24.1677
L50.1940 24.1072
" />
<path d="M50.1940 24.1072
L50.0730 24.0467
" />
<path d="M50.0730 24.0467
L49.9521 24.0467
" />
<path d="M49.9521 24.0467
L49.8311 24.1072
" />
<path d="M49.8311 24.1072
L49.7706 24.1677
" />
<path d="M49.7706 24.1677
L49.7102 24.2886
" />
<path d="M49.7102 24.2886
L49.6497 24.5305
" />
<path d="M49.6497 24.5305
L49.5892 24.6515
" />
<path d="M49.5892 24.6515
L49.5287 24.7120
" />
<path d="M49.5287 24.7120
L49.4078 24.7724
" />
<path d="M49.4078 24.7724
L49.2868 24.7724
" />
<path d="M49.2868 24.7724
L49.1659 24.7120
" />
<path d="M49.1659 24.7120
L49.1054 24.6515
" />
<path d="M49.1054 24.6515
L49.0449 24.5305
" />
<path d="M49.0449 24.5305
L49.0449 24.2282
" />
<path d="M49.0449 24.2282
L49.1054 24.0467
" />
</g></g>
<g style="fill:#A90000; fill-opacity:0.0; 
stroke:#A90000; stroke-width:0.1524; stroke-opacity:1; 
stroke-linecap:round; stroke-linejoin:round;">
<g transform="rotate(-90.000000 49.4814 29.1907)">
<text x="49.4814" y="29.1907"
textLength="1.4127" font-size="1.6933" lengthAdjust="spacingAndGlyphs"
text-anchor="middle" opacity="0">3</text>
</g>
<g class="stroked-text"><desc>3</desc>
<path d="M48.0479 29.6139
L48.0479 28.8277
" />
<path d="M48.0479 28.8277
L48.5317 29.2511
" />
<path d="M48.5317 29.2511
L48.5317 29.0696
" />
<path d="M48.5317 29.0696
L48.5922 28.9487
" />
<path d="M48.5922 28.9487
L48.6527 28.8882
" />
<path d="M48.6527 28.8882
L48.7736 28.8277
" />
<path d="M48.7736 28.8277
L49.0760 28.8277
" />
<path d="M49.0760 28.8277
L49.1970 28.8882
" />
<path d="M49.1970 28.8882
L49.2575 28.9487
" />
<path d="M49.2575 28.9487
L49.3179 29.0696
" />
<path d="M49.3179 29.0696
L49.3179 29.4325
" />
<path d="M49.3179 29.4325
L49.2575 29.5534
" />
<path d="M49.2575 29.5534
L49.1970 29.6139
" />
</g></g>
<g style="fill:#840000; fill-opacity:0.0; 
stroke:#840000; stroke-width:0.1524; stroke-opacity:1; 
stroke-linecap:round; stroke-linejoin:round;">
<path d="M52.2754 27.9207
L52.2754 30.4607
" />
</g>
<g style="fill:#006464; fill-opacity:0.0; 
stroke:#006464; stroke-width:0.1524; stroke-opacity:1; 
stroke-linecap:round; stroke-linejoin:round;">
<g transform="rotate(-90.000000 52.2754 27.4127)">
<text x="52.2754" y="28.0477"
textLength="4.2551" font-size="1.6933" lengthAdjust="spacingAndGlyphs"
text-anchor="start" opacity="0">COM</text>
</g>
<g class="stroked-text"><desc>COM</desc>
<path d="M52.7340 26.2844
L52.7945 26.3448
" />
<path d="M52.7945 26.3448
L52.8549 26.5263
" />
<path d="M52.8549 26.5263
L52.8549 26.6472
" />
<path d="M52.8549 26.6472
L52.7945 26.8286
" />
<path d="M52.7945 26.8286
L52.6735 26.9496
" />
<path d="M52.6735 26.9496
L52.5525 27.0101
" />
<path d="M52.5525 27.0101
L52.3106 27.0705
" />
<path d="M52.3106 27.0705
L52.1292 27.0705
" />
<path d="M52.1292 27.0705
L51.8873 27.0101
" />
<path d="M51.8873 27.0101
L51.7664 26.9496
" />
<path d="M51.7664 26.9496
L51.6454 26.8286
" />
<path d="M51.6454 26.8286
L51.5849 26.6472
" />
<path d="M51.5849 26.6472
L51.5849 26.5263
" />
<path d="M51.5849 26.5263
L51.6454 26.3448
" />
<path d="M51.6454 26.3448
L51.7059 26.2844
" />
<path d="M51.5849 25.4982
L51.5849 25.2563
" />
<path d="M51.5849 25.2563
L51.6454 25.1353
" />
<path d="M51.6454 25.1353
L51.7664 25.0144
" />
<path d="M51.7664 25.0144
L52.0083 24.9539
" />
<path d="M52.0083 24.9539
L52.4316 24.9539
" />
<path d="M52.4316 24.9539
L52.6735 25.0144
" />
<path d="M52.6735 25.0144
L52.7945 25.1353
" />
<path d="M52.7945 25.1353
L52.8549 25.2563
" />
<path d="M52.8549 25.2563
L52.8549 25.4982
" />
<path d="M52.8549 25.4982
L52.7945 25.6191
" />
<path d="M52.7945 25.6191
L52.6735 25.7401
" />
<path d="M52.6735 25.7401
L52.4316 25.8005
" />
<path d="M52.4316 25.8005
L52.0083 25.8005
" />
<path d="M52.0083 25.8005
L51.7664 25.7401
" />
<path d="M51.7664 25.7401
L51.6454 25.6191
" />
<path d="M51.6454 25.6191
L51.5849 25.4982
" />
<path d="M52.8549 24.4096
L51.5849 24.4096
" />
<path d="M51.5849 24.4096
L52.4921 23.9862
" />
<path d="M52.4921 23.9862
L51.5849 23.5629
" />
<path d="M51.5849 23.5629
L52.8549 23.5629
" />
</g></g>
<g style="fill:#A90000; fill-opacity:0.0; 
stroke:#A90000; stroke-width:0.1524; stroke-opacity:1; 
stroke-linecap:round; stroke-linejoin:round;">
<g transform="rotate(-90.000000 52.0214 29.1907)">
<text x="52.0214" y="29.1907"
textLength="1.4127" font-size="1.6933" lengthAdjust="spacingAndGlyphs"
text-anchor="middle" opacity="0">5</text>
</g>
<g class="stroked-text"><desc>5</desc>
<path d="M50.5879 28.8882
L50.5879 29.4930
" />
<path d="M50.5879 29.4930
L51.1927 29.5534
" />
<path d="M51.1927 29.5534
L51.1322 29.4930
" />
<path d="M51.1322 29.4930
L51.0717 29.3720
" />
<path d="M51.0717 29.3720
L51.0717 29.0696
" />
<path d="M51.0717 29.0696
L51.1322 28.9487
" />
<path d="M51.1322 28.9487
L51.1927 28.8882
" />
<path d="M51.1927 28.8882
L51.3136 28.8277
" />
<path d="M51.3136 28.8277
L51.6160 28.8277
" />
<path d="M51.6160 28.8277
L51.7370 28.8882
" />
<path d="M51.7370 28.8882
L51.7975 28.9487
" />
<path d="M51.7975 28.9487
L51.8579 29.0696
" />
<path d="M51.8579 29.0696
L51.8579 29.3720
" />
<path d="M51.8579 29.3720
L51.7975 29.4930
" />
<path d="M51.7975 29.4930
L51.7370 29.5534
" />
</g></g>
<g style="fill:#840000; fill-opacity:0.0; 
stroke:#840000; stroke-width:0.1524; stroke-opacity:1; 
stroke-linecap:round; stroke-linejoin:round;">
<path d="M57.3554 25.3807
L59.8954 25.3807
" />
</g>
<g style="fill:#006464; fill-opacity:0.0; 
stroke:#006464; stroke-width:0.1524; stroke-opacity:1; 
stroke-linecap:round; stroke-linejoin:round;">
<text x="56.8474" y="26.0157"
textLength="2.5618" font-size="1.6933" lengthAdjust="spacingAndGlyphs"
text-anchor="end" opacity="0">LO</text>
<g class="stroked-text"><desc>LO</desc>
<path d="M55.2957 25.9602
L54.6909 25.9602
" />
<path d="M54.6909 25.9602
L54.6909 24.6902
" />
<path d="M55.9609 24.6902
L56.2028 24.6902
" />
<path d="M56.2028 24.6902
L56.3238 24.7507
" />
<path d="M56.3238 24.7507
L56.4447 24.8717
" />
<path d="M56.4447 24.8717
L56.5052 25.1136
" />
<path d="M56.5052 25.1136
L56.5052 25.5369
" />
<path d="M56.5052 25.5369
L56.4447 25.7788
" />
<path d="M56.4447 25.7788
L56.3238 25.8998
" />
<path d="M56.3238 25.8998
L56.2028 25.9602
" />
<path d="M56.2028 25.9602
L55.9609 25.9602
" />
<path d="M55.9609 25.9602
L55.8400 25.8998
" />
<path d="M55.8400 25.8998
L55.7190 25.7788
" />
<path d="M55.7190 25.7788
L55.6586 25.5369
" />
<path d="M55.6586 25.5369
L55.6586 25.1136
" />
<path d="M55.6586 25.1136
L55.7190 24.8717
" />
<path d="M55.7190 24.8717
L55.8400 24.7507
" />
<path d="M55.8400 24.7507
L55.9609 24.6902
" />
</g></g>
<g style="fill:#A90000; fill-opacity:0.0; 
stroke:#A90000; stroke-width:0.1524; stroke-opacity:1; 
stroke-linecap:round; stroke-linejoin:round;">
<text x="58.6254" y="25.1267"
textLength="1.4127" font-size="1.6933" lengthAdjust="spacingAndGlyphs"
text-anchor="middle" opacity="0">6</text>
<g class="stroked-text"><desc>6</desc>
<path d="M58.8673 23.6932
L58.6254 23.6932
" />
<path d="M58.6254 23.6932
L58.5045 23.7537
" />
<path d="M58.5045 23.7537
L58.4440 23.8142
" />
<path d="M58.4440 23.8142
L58.3230 23.9956
" />
<path d="M58.3230 23.9956
L58.2626 24.2375
" />
<path d="M58.2626 24.2375
L58.2626 24.7213
" />
<path d="M58.2626 24.7213
L58.3230 24.8423
" />
<path d="M58.3230 24.8423
L58.3835 24.9028
" />
<path d="M58.3835 24.9028
L58.5045 24.9632
" />
<path d="M58.5045 24.9632
L58.7464 24.9632
" />
<path d="M58.7464 24.9632
L58.8673 24.9028
" />
<path d="M58.8673 24.9028
L58.9278 24.8423
" />
<path d="M58.9278 24.8423
L58.9883 24.7213
" />
<path d="M58.9883 24.7213
L58.9883 24.4189
" />
<path d="M58.9883 24.4189
L58.9278 24.2980
" />
<path d="M58.9278 24.2980
L58.8673 24.2375
" />
<path d="M58.8673 24.2375
L58.7464 24.1770
" />
<path d="M58.7464 24.1770
L58.5045 24.1770
" />
<path d="M58.5045 24.1770
L58.3835 24.2375
" />
<path d="M58.3835 24.2375
L58.3230 24.2980
" />
<path d="M58.3230 24.2980
L58.2626 24.4189
" />
</g></g>
<g style="fill:#840000; fill-opacity:0.0; 
stroke:#840000; stroke-width:0.1524; stroke-opacity:1; 
stroke-linecap:round; stroke-linejoin:round;">
<path d="M52.2754 7.6007
L52.2754 5.0607
" />
</g>
<g style="fill:#006464; fill-opacity:0.0; 
stroke:#006464; stroke-width:0.1524; stroke-opacity:1; 
stroke-linecap:round; stroke-linejoin:round;">
<g transform="rotate(-90.000000 52.2754 8.1087)">
<text x="52.2754" y="8.7437"
textLength="3.8318" font-size="1.6933" lengthAdjust="spacingAndGlyphs"
text-anchor="end" opacity="0">VCC</text>
</g>
<g class="stroked-text"><desc>VCC</desc>
<path d="M51.5849 11.7165
L52.8549 11.2932
" />
<path d="M52.8549 11.2932
L51.5849 10.8698
" />
<path d="M52.7340 9.7208
L52.7945 9.7812
" />
<path d="M52.7945 9.7812
L52.8549 9.9627
" />
<path d="M52.8549 9.9627
L52.8549 10.0836
" />
<path d="M52.8549 10.0836
L52.7945 10.2650
" />
<path d="M52.7945 10.2650
L52.6735 10.3860
" />
<path d="M52.6735 10.3860
L52.5525 10.4465
" />
<path d="M52.5525 10.4465
L52.3106 10.5069
" />
<path d="M52.3106 10.5069
L52.1292 10.5069
" />
<path d="M52.1292 10.5069
L51.8873 10.4465
" />
<path d="M51.8873 10.4465
L51.7664 10.3860
" />
<path d="M51.7664 10.3860
L51.6454 10.2650
" />
<path d="M51.6454 10.2650
L51.5849 10.0836
" />
<path d="M51.5849 10.0836
L51.5849 9.9627
" />
<path d="M51.5849 9.9627
L51.6454 9.7812
" />
<path d="M51.6454 9.7812
L51.7059 9.7208
" />
<path d="M52.7340 8.4508
L52.7945 8.5112
" />
<path d="M52.7945 8.5112
L52.8549 8.6927
" />
<path d="M52.8549 8.6927
L52.8549 8.8136
" />
<path d="M52.8549 8.8136
L52.7945 8.9950
" />
<path d="M52.7945 8.9950
L52.6735 9.1160
" />
<path d="M52.6735 9.1160
L52.5525 9.1765
" />
<path d="M52.5525 9.1765
L52.3106 9.2369
" />
<path d="M52.3106 9.2369
L52.1292 9.2369
" />
<path d="M52.1292 9.2369
L51.8873 9.1765
" />
<path d="M51.8873 9.1765
L51.7664 9.1160
" />
<path d="M51.7664 9.1160
L51.6454 8.9950
" />
<path d="M51.6454 8.9950
L51.5849 8.8136
" />
<path d="M51.5849 8.8136
L51.5849 8.6927
" />
<path d="M51.5849 8.6927
L51.6454 8.5112
" />
<path d="M51.6454 8.5112
L51.7059 8.4508
" />
</g></g>
<g style="fill:#A90000; fill-opacity:0.0; 
stroke:#A90000; stroke-width:0.1524; stroke-opacity:1; 
stroke-linecap:round; stroke-linejoin:round;">
<g transform="rotate(-90.000000 52.0214 6.3307)">
<text x="52.0214" y="6.3307"
textLength="1.4127" font-size="1.6933" lengthAdjust="spacingAndGlyphs"
text-anchor="middle" opacity="0">7</text>
</g>
<g class="stroked-text"><desc>7</desc>
<path d="M50.5879 6.7539
L50.5879 5.9073
" />
<path d="M50.5879 5.9073
L51.8579 6.4515
" />
</g></g>
<g style="fill:#840084; fill-opacity:0.0; 
stroke:#840084; stroke-width:0.1524; stroke-opacity:1; 
stroke-linecap:round; stroke-linejoin:round;">
</g>
<g style="fill:#006464; fill-opacity:0.0; 
stroke:#006464; stroke-width:0.1524; stroke-opacity:1; 
stroke-linecap:round; stroke-linejoin:round;">
</g>
<g style="fill:#006464; fill-opacity:0.0; 
stroke:#006464; stroke-width:0.1588; stroke-opacity:1; 
stroke-linecap:round; stroke-linejoin:round;">
<text x="54.8661" y="4.4257"
textLength="2.6415" font-size="1.6933" lengthAdjust="spacingAndGlyphs"
text-anchor="middle" opacity="0">U?</text>
<g class="stroked-text"><desc>U?</desc>
<path d="M53.9589 3.0999
L53.9589 4.1280
" />
<path d="M53.9589 4.1280
L54.0194 4.2490
" />
<path d="M54.0194 4.2490
L54.0799 4.3095
" />
<path d="M54.0799 4.3095
L54.2008 4.3699
" />
<path d="M54.2008 4.3699
L54.4427 4.3699
" />
<path d="M54.4427 4.3699
L54.5637 4.3095
" />
<path d="M54.5637 4.3095
L54.6242 4.2490
" />
<path d="M54.6242 4.2490
L54.6846 4.1280
" />
<path d="M54.6846 4.1280
L54.6846 3.0999
" />
<path d="M55.4709 4.2490
L55.5313 4.3095
" />
<path d="M55.5313 4.3095
L55.4709 4.3699
" />
<path d="M55.4709 4.3699
L55.4104 4.3095
" />
<path d="M55.4104 4.3095
L55.4709 4.2490
" />
<path d="M55.4709 4.2490
L55.4709 4.3699
" />
<path d="M55.2290 3.1604
L55.3499 3.0999
" />
<path d="M55.3499 3.0999
L55.6523 3.0999
" />
<path d="M55.6523 3.0999
L55.7732 3.1604
" />
<path d="M55.7732 3.1604
L55.8337 3.2814
" />
<path d="M55.8337 3.2814
L55.8337 3.4023
" />
<path d="M55.8337 3.4023
L55.7732 3.5233
" />
<path d="M55.7732 3.5233
L55.7128 3.5837
" />
<path d="M55.7128 3.5837
L55.5918 3.6442
" />
<path d="M55.5918 3.6442
L55.5313 3.7047
" />
<path d="M55.5313 3.7047
L55.4709 3.8256
" />
<path d="M55.4709 3.8256
L55.4709 3.8861
" />
</g><text x="57.6177" y="6.9657"
textLength="8.1447" font-size="1.6933" lengthAdjust="spacingAndGlyphs"
text-anchor="middle" opacity="0">IR21814</text>
<g class="stroked-text"><desc>IR21814</desc>
<path d="M53.9589 6.9099
L53.9589 5.6399
" />
<path d="M55.2894 6.9099
L54.8661 6.3052
" />
<path d="M54.5637 6.9099
L54.5637 5.6399
" />
<path d="M54.5637 5.6399
L55.0475 5.6399
" />
<path d="M55.0475 5.6399
L55.1685 5.7004
" />
<path d="M55.1685 5.7004
L55.2290 5.7609
" />
<path d="M55.2290 5.7609
L55.2894 5.8818
" />
<path d="M55.2894 5.8818
L55.2894 6.0633
" />
<path d="M55.2894 6.0633
L55.2290 6.1842
" />
<path d="M55.2290 6.1842
L55.1685 6.2447
" />
<path d="M55.1685 6.2447
L55.0475 6.3052
" />
<path d="M55.0475 6.3052
L54.5637 6.3052
" />
<path d="M55.7733 5.7609
L55.8337 5.7004
" />
<path d="M55.8337 5.7004
L55.9547 5.6399
" />
<path d="M55.9547 5.6399
L56.2571 5.6399
" />
<path d="M56.2571 5.6399
L56.3780 5.7004
" />
<path d="M56.3780 5.7004
L56.4385 5.7609
" />
<path d="M56.4385 5.7609
L56.4990 5.8818
" />
<path d="M56.4990 5.8818
L56.4990 6.0028
" />
<path d="M56.4990 6.0028
L56.4385 6.1842
" />
<path d="M56.4385 6.1842
L55.7128 6.9099
" />
<path d="M55.7128 6.9099
L56.4990 6.9099
" />
<path d="M57.7085 6.9099
L56.9828 6.9099
" />
<path d="M57.3456 6.9099
L57.3456 5.6399
" />
<path d="M57.3456 5.6399
L57.2247 5.8214
" />
<path d="M57.2247 5.8214
L57.1037 5.9423
" />
<path d="M57.1037 5.9423
L56.9828 6.0028
" />
<path d="M58.4342 6.1842
L58.3132 6.1237
" />
<path d="M58.3132 6.1237
L58.2527 6.0633
" />
<path d="M58.2527 6.0633
L58.1923 5.9423
" />
<path d="M58.1923 5.9423
L58.1923 5.8818
" />
<path d="M58.1923 5.8818
L58.2527 5.7609
" />
<path d="M58.2527 5.7609
L58.3132 5.7004
" />
<path d="M58.3132 5.7004
L58.4342 5.6399
" />
<path d="M58.4342 5.6399
L58.6761 5.6399
" />
<path d="M58.6761 5.6399
L58.7970 5.7004
" />
<path d="M58.7970 5.7004
L58.8575 5.7609
" />
<path d="M58.8575 5.7609
L58.9180 5.8818
" />
<path d="M58.9180 5.8818
L58.9180 5.9423
" />
<path d="M58.9180 5.9423
L58.8575 6.0633
" />
<path d="M58.8575 6.0633
L58.7970 6.1237
" />
<path d="M58.7970 6.1237
L58.6761 6.1842
" />
<path d="M58.6761 6.1842
L58.4342 6.1842
" />
<path d="M58.4342 6.1842
L58.3132 6.2447
" />
<path d="M58.3132 6.2447
L58.2527 6.3052
" />
<path d="M58.2527 6.3052
L58.1923 6.4261
" />
<path d="M58.1923 6.4261
L58.1923 6.6680
" />
<path d="M58.1923 6.6680
L58.2527 6.7890
" />
<path d="M58.2527 6.7890
L58.3132 6.8495
" />
<path d="M58.3132 6.8495
L58.4342 6.9099
" />
<path d="M58.4342 6.9099
L58.6761 6.9099
" />
<path d="M58.6761 6.9099
L58.7970 6.8495
" />
<path d="M58.7970 6.8495
L58.8575 6.7890
" />
<path d="M58.8575 6.7890
L58.9180 6.6680
" />
<path d="M58.9180 6.6680
L58.9180 6.4261
" />
<path d="M58.9180 6.4261
L58.8575 6.3052
" />
<path d="M58.8575 6.3052
L58.7970 6.2447
" />
<path d="M58.7970 6.2447
L58.6761 6.1842
" />
<path d="M60.1275 6.9099
L59.4018 6.9099
" />
<path d="M59.7646 6.9099
L59.7646 5.6399
" />
<path d="M59.7646 5.6399
L59.6437 5.8214
" />
<path d="M59.6437 5.8214
L59.5227 5.9423
" />
<path d="M59.5227 5.9423
L59.4018 6.0028
" />
<path d="M61.2160 6.0633
L61.2160 6.9099
" />
<path d="M60.9136 5.5795
L60.6113 6.4866
" />
<path d="M60.6113 6.4866
L61.3974 6.4866
" />
</g></g>
<g style="fill:#840084; fill-opacity:0.0; 
stroke:#840084; stroke-width:0.1588; stroke-opacity:1; 
stroke-linecap:round; stroke-linejoin:round;">
<text x="52.2754" y="18.3957"
textLength="87.1258" font-size="1.6933" lengthAdjust="spacingAndGlyphs"
text-anchor="middle" opacity="0">https://www.infineon.com/dgdl/ir2181.pdf?fileId=5546d462533600a4015355c93cdd16ce</text>
<g class="stroked-text"><desc>https://www.infineon.com/dgdl/ir2181.pdf?fileId=5546d462533600a4015355c93cdd16ce</desc>
<path d="M9.1260 18.3399
L9.1260 17.0699
" />
<path d="M9.6703 18.3399
L9.6703 17.6747
" />
<path d="M9.6703 17.6747
L9.6098 17.5537
" />
<path d="M9.6098 17.5537
L9.4889 17.4933
" />
<path d="M9.4889 17.4933
L9.3075 17.4933
" />
<path d="M9.3075 17.4933
L9.1865 17.5537
" />
<path d="M9.1865 17.5537
L9.1260 17.6142
" />
<path d="M10.0936 17.4933
L10.5774 17.4933
" />
<path d="M10.2750 17.0699
L10.2750 18.1585
" />
<path d="M10.2750 18.1585
L10.3355 18.2795
" />
<path d="M10.3355 18.2795
L10.4565 18.3399
" />
<path d="M10.4565 18.3399
L10.5774 18.3399
" />
<path d="M10.8193 17.4933
L11.3031 17.4933
" />
<path d="M11.0007 17.0699
L11.0007 18.1585
" />
<path d="M11.0007 18.1585
L11.0612 18.2795
" />
<path d="M11.0612 18.2795
L11.1822 18.3399
" />
<path d="M11.1822 18.3399
L11.3031 18.3399
" />
<path d="M11.7264 17.4933
L11.7264 18.7633
" />
<path d="M11.7264 17.5537
L11.8474 17.4933
" />
<path d="M11.8474 17.4933
L12.0893 17.4933
" />
<path d="M12.0893 17.4933
L12.2102 17.5537
" />
<path d="M12.2102 17.5537
L12.2707 17.6142
" />
<path d="M12.2707 17.6142
L12.3312 17.7352
" />
<path d="M12.3312 17.7352
L12.3312 18.0980
" />
<path d="M12.3312 18.0980
L12.2707 18.2190
" />
<path d="M12.2707 18.2190
L12.2102 18.2795
" />
<path d="M12.2102 18.2795
L12.0893 18.3399
" />
<path d="M12.0893 18.3399
L11.8474 18.3399
" />
<path d="M11.8474 18.3399
L11.7264 18.2795
" />
<path d="M12.8150 18.2795
L12.9359 18.3399
" />
<path d="M12.9359 18.3399
L13.1778 18.3399
" />
<path d="M13.1778 18.3399
L13.2988 18.2795
" />
<path d="M13.2988 18.2795
L13.3592 18.1585
" />
<path d="M13.3592 18.1585
L13.3592 18.0980
" />
<path d="M13.3592 18.0980
L13.2988 17.9771
" />
<path d="M13.2988 17.9771
L13.1778 17.9166
" />
<path d="M13.1778 17.9166
L12.9964 17.9166
" />
<path d="M12.9964 17.9166
L12.8754 17.8561
" />
<path d="M12.8754 17.8561
L12.8150 17.7352
" />
<path d="M12.8150 17.7352
L12.8150 17.6747
" />
<path d="M12.8150 17.6747
L12.8754 17.5537
" />
<path d="M12.8754 17.5537
L12.9964 17.4933
" />
<path d="M12.9964 17.4933
L13.1778 17.4933
" />
<path d="M13.1778 17.4933
L13.2988 17.5537
" />
<path d="M13.9035 18.2190
L13.9640 18.2795
" />
<path d="M13.9640 18.2795
L13.9035 18.3399
" />
<path d="M13.9035 18.3399
L13.8431 18.2795
" />
<path d="M13.8431 18.2795
L13.9035 18.2190
" />
<path d="M13.9035 18.2190
L13.9035 18.3399
" />
<path d="M13.9035 17.5537
L13.9640 17.6142
" />
<path d="M13.9640 17.6142
L13.9035 17.6747
" />
<path d="M13.9035 17.6747
L13.8431 17.6142
" />
<path d="M13.8431 17.6142
L13.9035 17.5537
" />
<path d="M13.9035 17.5537
L13.9035 17.6747
" />
<path d="M15.4155 17.0095
L14.3269 18.6423
" />
<path d="M16.7460 17.0095
L15.6574 18.6423
" />
<path d="M17.0484 17.4933
L17.2903 18.3399
" />
<path d="M17.2903 18.3399
L17.5322 17.7352
" />
<path d="M17.5322 17.7352
L17.7741 18.3399
" />
<path d="M17.7741 18.3399
L18.0160 17.4933
" />
<path d="M18.3789 17.4933
L18.6208 18.3399
" />
<path d="M18.6208 18.3399
L18.8627 17.7352
" />
<path d="M18.8627 17.7352
L19.1046 18.3399
" />
<path d="M19.1046 18.3399
L19.3465 17.4933
" />
<path d="M19.7094 17.4933
L19.9513 18.3399
" />
<path d="M19.9513 18.3399
L20.1932 17.7352
" />
<path d="M20.1932 17.7352
L20.4351 18.3399
" />
<path d="M20.4351 18.3399
L20.6770 17.4933
" />
<path d="M21.1608 18.2190
L21.2213 18.2795
" />
<path d="M21.2213 18.2795
L21.1608 18.3399
" />
<path d="M21.1608 18.3399
L21.1004 18.2795
" />
<path d="M21.1004 18.2795
L21.1608 18.2190
" />
<path d="M21.1608 18.2190
L21.1608 18.3399
" />
<path d="M21.7656 18.3399
L21.7656 17.4933
" />
<path d="M21.7656 17.0699
L21.7052 17.1304
" />
<path d="M21.7052 17.1304
L21.7656 17.1909
" />
<path d="M21.7656 17.1909
L21.8261 17.1304
" />
<path d="M21.8261 17.1304
L21.7656 17.0699
" />
<path d="M21.7656 17.0699
L21.7656 17.1909
" />
<path d="M22.3704 17.4933
L22.3704 18.3399
" />
<path d="M22.3704 17.6142
L22.4309 17.5537
" />
<path d="M22.4309 17.5537
L22.5519 17.4933
" />
<path d="M22.5519 17.4933
L22.7333 17.4933
" />
<path d="M22.7333 17.4933
L22.8542 17.5537
" />
<path d="M22.8542 17.5537
L22.9147 17.6747
" />
<path d="M22.9147 17.6747
L22.9147 18.3399
" />
<path d="M23.3380 17.4933
L23.8218 17.4933
" />
<path d="M23.5194 18.3399
L23.5194 17.2514
" />
<path d="M23.5194 17.2514
L23.5799 17.1304
" />
<path d="M23.5799 17.1304
L23.7009 17.0699
" />
<path d="M23.7009 17.0699
L23.8218 17.0699
" />
<path d="M24.2451 18.3399
L24.2451 17.4933
" />
<path d="M24.2451 17.0699
L24.1847 17.1304
" />
<path d="M24.1847 17.1304
L24.2451 17.1909
" />
<path d="M24.2451 17.1909
L24.3056 17.1304
" />
<path d="M24.3056 17.1304
L24.2451 17.0699
" />
<path d="M24.2451 17.0699
L24.2451 17.1909
" />
<path d="M24.8499 17.4933
L24.8499 18.3399
" />
<path d="M24.8499 17.6142
L24.9104 17.5537
" />
<path d="M24.9104 17.5537
L25.0314 17.4933
" />
<path d="M25.0314 17.4933
L25.2128 17.4933
" />
<path d="M25.2128 17.4933
L25.3337 17.5537
" />
<path d="M25.3337 17.5537
L25.3942 17.6747
" />
<path d="M25.3942 17.6747
L25.3942 18.3399
" />
<path d="M26.4827 18.2795
L26.3618 18.3399
" />
<path d="M26.3618 18.3399
L26.1199 18.3399
" />
<path d="M26.1199 18.3399
L25.9989 18.2795
" />
<path d="M25.9989 18.2795
L25.9385 18.1585
" />
<path d="M25.9385 18.1585
L25.9385 17.6747
" />
<path d="M25.9385 17.6747
L25.9989 17.5537
" />
<path d="M25.9989 17.5537
L26.1199 17.4933
" />
<path d="M26.1199 17.4933
L26.3618 17.4933
" />
<path d="M26.3618 17.4933
L26.4827 17.5537
" />
<path d="M26.4827 17.5537
L26.5432 17.6747
" />
<path d="M26.5432 17.6747
L26.5432 17.7956
" />
<path d="M26.5432 17.7956
L25.9385 17.9166
" />
<path d="M27.2690 18.3399
L27.1480 18.2795
" />
<path d="M27.1480 18.2795
L27.0875 18.2190
" />
<path d="M27.0875 18.2190
L27.0271 18.0980
" />
<path d="M27.0271 18.0980
L27.0271 17.7352
" />
<path d="M27.0271 17.7352
L27.0875 17.6142
" />
<path d="M27.0875 17.6142
L27.1480 17.5537
" />
<path d="M27.1480 17.5537
L27.2690 17.4933
" />
<path d="M27.2690 17.4933
L27.4504 17.4933
" />
<path d="M27.4504 17.4933
L27.5713 17.5537
" />
<path d="M27.5713 17.5537
L27.6318 17.6142
" />
<path d="M27.6318 17.6142
L27.6923 17.7352
" />
<path d="M27.6923 17.7352
L27.6923 18.0980
" />
<path d="M27.6923 18.0980
L27.6318 18.2190
" />
<path d="M27.6318 18.2190
L27.5713 18.2795
" />
<path d="M27.5713 18.2795
L27.4504 18.3399
" />
<path d="M27.4504 18.3399
L27.2690 18.3399
" />
<path d="M28.2365 17.4933
L28.2365 18.3399
" />
<path d="M28.2365 17.6142
L28.2970 17.5537
" />
<path d="M28.2970 17.5537
L28.4180 17.4933
" />
<path d="M28.4180 17.4933
L28.5994 17.4933
" />
<path d="M28.5994 17.4933
L28.7203 17.5537
" />
<path d="M28.7203 17.5537
L28.7808 17.6747
" />
<path d="M28.7808 17.6747
L28.7808 18.3399
" />
<path d="M29.3855 18.2190
L29.4460 18.2795
" />
<path d="M29.4460 18.2795
L29.3855 18.3399
" />
<path d="M29.3855 18.3399
L29.3251 18.2795
" />
<path d="M29.3251 18.2795
L29.3855 18.2190
" />
<path d="M29.3855 18.2190
L29.3855 18.3399
" />
<path d="M30.5346 18.2795
L30.4137 18.3399
" />
<path d="M30.4137 18.3399
L30.1718 18.3399
" />
<path d="M30.1718 18.3399
L30.0508 18.2795
" />
<path d="M30.0508 18.2795
L29.9903 18.2190
" />
<path d="M29.9903 18.2190
L29.9299 18.0980
" />
<path d="M29.9299 18.0980
L29.9299 17.7352
" />
<path d="M29.9299 17.7352
L29.9903 17.6142
" />
<path d="M29.9903 17.6142
L30.0508 17.5537
" />
<path d="M30.0508 17.5537
L30.1718 17.4933
" />
<path d="M30.1718 17.4933
L30.4137 17.4933
" />
<path d="M30.4137 17.4933
L30.5346 17.5537
" />
<path d="M31.2604 18.3399
L31.1394 18.2795
" />
<path d="M31.1394 18.2795
L31.0789 18.2190
" />
<path d="M31.0789 18.2190
L31.0185 18.0980
" />
<path d="M31.0185 18.0980
L31.0185 17.7352
" />
<path d="M31.0185 17.7352
L31.0789 17.6142
" />
<path d="M31.0789 17.6142
L31.1394 17.5537
" />
<path d="M31.1394 17.5537
L31.2604 17.4933
" />
<path d="M31.2604 17.4933
L31.4418 17.4933
" />
<path d="M31.4418 17.4933
L31.5627 17.5537
" />
<path d="M31.5627 17.5537
L31.6232 17.6142
" />
<path d="M31.6232 17.6142
L31.6837 17.7352
" />
<path d="M31.6837 17.7352
L31.6837 18.0980
" />
<path d="M31.6837 18.0980
L31.6232 18.2190
" />
<path d="M31.6232 18.2190
L31.5627 18.2795
" />
<path d="M31.5627 18.2795
L31.4418 18.3399
" />
<path d="M31.4418 18.3399
L31.2604 18.3399
" />
<path d="M32.2279 18.3399
L32.2279 17.4933
" />
<path d="M32.2279 17.6142
L32.2884 17.5537
" />
<path d="M32.2884 17.5537
L32.4094 17.4933
" />
<path d="M32.4094 17.4933
L32.5908 17.4933
" />
<path d="M32.5908 17.4933
L32.7117 17.5537
" />
<path d="M32.7117 17.5537
L32.7722 17.6747
" />
<path d="M32.7722 17.6747
L32.7722 18.3399
" />
<path d="M32.7722 17.6747
L32.8327 17.5537
" />
<path d="M32.8327 17.5537
L32.9536 17.4933
" />
<path d="M32.9536 17.4933
L33.1351 17.4933
" />
<path d="M33.1351 17.4933
L33.2560 17.5537
" />
<path d="M33.2560 17.5537
L33.3165 17.6747
" />
<path d="M33.3165 17.6747
L33.3165 18.3399
" />
<path d="M34.8284 17.0095
L33.7398 18.6423
" />
<path d="M35.7960 18.3399
L35.7960 17.0699
" />
<path d="M35.7960 18.2795
L35.6751 18.3399
" />
<path d="M35.6751 18.3399
L35.4332 18.3399
" />
<path d="M35.4332 18.3399
L35.3122 18.2795
" />
<path d="M35.3122 18.2795
L35.2517 18.2190
" />
<path d="M35.2517 18.2190
L35.1913 18.0980
" />
<path d="M35.1913 18.0980
L35.1913 17.7352
" />
<path d="M35.1913 17.7352
L35.2517 17.6142
" />
<path d="M35.2517 17.6142
L35.3122 17.5537
" />
<path d="M35.3122 17.5537
L35.4332 17.4933
" />
<path d="M35.4332 17.4933
L35.6751 17.4933
" />
<path d="M35.6751 17.4933
L35.7960 17.5537
" />
<path d="M36.9450 17.4933
L36.9450 18.5214
" />
<path d="M36.9450 18.5214
L36.8845 18.6423
" />
<path d="M36.8845 18.6423
L36.8241 18.7028
" />
<path d="M36.8241 18.7028
L36.7031 18.7633
" />
<path d="M36.7031 18.7633
L36.5217 18.7633
" />
<path d="M36.5217 18.7633
L36.4007 18.7028
" />
<path d="M36.9450 18.2795
L36.8241 18.3399
" />
<path d="M36.8241 18.3399
L36.5822 18.3399
" />
<path d="M36.5822 18.3399
L36.4612 18.2795
" />
<path d="M36.4612 18.2795
L36.4007 18.2190
" />
<path d="M36.4007 18.2190
L36.3403 18.0980
" />
<path d="M36.3403 18.0980
L36.3403 17.7352
" />
<path d="M36.3403 17.7352
L36.4007 17.6142
" />
<path d="M36.4007 17.6142
L36.4612 17.5537
" />
<path d="M36.4612 17.5537
L36.5822 17.4933
" />
<path d="M36.5822 17.4933
L36.8241 17.4933
" />
<path d="M36.8241 17.4933
L36.9450 17.5537
" />
<path d="M38.0940 18.3399
L38.0940 17.0699
" />
<path d="M38.0940 18.2795
L37.9731 18.3399
" />
<path d="M37.9731 18.3399
L37.7312 18.3399
" />
<path d="M37.7312 18.3399
L37.6102 18.2795
" />
<path d="M37.6102 18.2795
L37.5497 18.2190
" />
<path d="M37.5497 18.2190
L37.4893 18.0980
" />
<path d="M37.4893 18.0980
L37.4893 17.7352
" />
<path d="M37.4893 17.7352
L37.5497 17.6142
" />
<path d="M37.5497 17.6142
L37.6102 17.5537
" />
<path d="M37.6102 17.5537
L37.7312 17.4933
" />
<path d="M37.7312 17.4933
L37.9731 17.4933
" />
<path d="M37.9731 17.4933
L38.0940 17.5537
" />
<path d="M38.8802 18.3399
L38.7592 18.2795
" />
<path d="M38.7592 18.2795
L38.6987 18.1585
" />
<path d="M38.6987 18.1585
L38.6987 17.0699
" />
<path d="M40.2711 17.0095
L39.1825 18.6423
" />
<path d="M40.6944 18.3399
L40.6944 17.4933
" />
<path d="M40.6944 17.0699
L40.6340 17.1304
" />
<path d="M40.6340 17.1304
L40.6944 17.1909
" />
<path d="M40.6944 17.1909
L40.7549 17.1304
" />
<path d="M40.7549 17.1304
L40.6944 17.0699
" />
<path d="M40.6944 17.0699
L40.6944 17.1909
" />
<path d="M41.2992 18.3399
L41.2992 17.4933
" />
<path d="M41.2992 17.7352
L41.3597 17.6142
" />
<path d="M41.3597 17.6142
L41.4202 17.5537
" />
<path d="M41.4202 17.5537
L41.5411 17.4933
" />
<path d="M41.5411 17.4933
L41.6621 17.4933
" />
<path d="M42.0250 17.1909
L42.0854 17.1304
" />
<path d="M42.0854 17.1304
L42.2064 17.0699
" />
<path d="M42.2064 17.0699
L42.5088 17.0699
" />
<path d="M42.5088 17.0699
L42.6297 17.1304
" />
<path d="M42.6297 17.1304
L42.6902 17.1909
" />
<path d="M42.6902 17.1909
L42.7507 17.3118
" />
<path d="M42.7507 17.3118
L42.7507 17.4328
" />
<path d="M42.7507 17.4328
L42.6902 17.6142
" />
<path d="M42.6902 17.6142
L41.9645 18.3399
" />
<path d="M41.9645 18.3399
L42.7507 18.3399
" />
<path d="M43.9602 18.3399
L43.2345 18.3399
" />
<path d="M43.5973 18.3399
L43.5973 17.0699
" />
<path d="M43.5973 17.0699
L43.4764 17.2514
" />
<path d="M43.4764 17.2514
L43.3554 17.3723
" />
<path d="M43.3554 17.3723
L43.2345 17.4328
" />
<path d="M44.6859 17.6142
L44.5649 17.5537
" />
<path d="M44.5649 17.5537
L44.5044 17.4933
" />
<path d="M44.5044 17.4933
L44.4440 17.3723
" />
<path d="M44.4440 17.3723
L44.4440 17.3118
" />
<path d="M44.4440 17.3118
L44.5044 17.1909
" />
<path d="M44.5044 17.1909
L44.5649 17.1304
" />
<path d="M44.5649 17.1304
L44.6859 17.0699
" />
<path d="M44.6859 17.0699
L44.9278 17.0699
" />
<path d="M44.9278 17.0699
L45.0487 17.1304
" />
<path d="M45.0487 17.1304
L45.1092 17.1909
" />
<path d="M45.1092 17.1909
L45.1697 17.3118
" />
<path d="M45.1697 17.3118
L45.1697 17.3723
" />
<path d="M45.1697 17.3723
L45.1092 17.4933
" />
<path d="M45.1092 17.4933
L45.0487 17.5537
" />
<path d="M45.0487 17.5537
L44.9278 17.6142
" />
<path d="M44.9278 17.6142
L44.6859 17.6142
" />
<path d="M44.6859 17.6142
L44.5649 17.6747
" />
<path d="M44.5649 17.6747
L44.5044 17.7352
" />
<path d="M44.5044 17.7352
L44.4440 17.8561
" />
<path d="M44.4440 17.8561
L44.4440 18.0980
" />
<path d="M44.4440 18.0980
L44.5044 18.2190
" />
<path d="M44.5044 18.2190
L44.5649 18.2795
" />
<path d="M44.5649 18.2795
L44.6859 18.3399
" />
<path d="M44.6859 18.3399
L44.9278 18.3399
" />
<path d="M44.9278 18.3399
L45.0487 18.2795
" />
<path d="M45.0487 18.2795
L45.1092 18.2190
" />
<path d="M45.1092 18.2190
L45.1697 18.0980
" />
<path d="M45.1697 18.0980
L45.1697 17.8561
" />
<path d="M45.1697 17.8561
L45.1092 17.7352
" />
<path d="M45.1092 17.7352
L45.0487 17.6747
" />
<path d="M45.0487 17.6747
L44.9278 17.6142
" />
<path d="M46.3792 18.3399
L45.6535 18.3399
" />
<path d="M46.0163 18.3399
L46.0163 17.0699
" />
<path d="M46.0163 17.0699
L45.8954 17.2514
" />
<path d="M45.8954 17.2514
L45.7744 17.3723
" />
<path d="M45.7744 17.3723
L45.6535 17.4328
" />
<path d="M46.9234 18.2190
L46.9839 18.2795
" />
<path d="M46.9839 18.2795
L46.9234 18.3399
" />
<path d="M46.9234 18.3399
L46.8630 18.2795
" />
<path d="M46.8630 18.2795
L46.9234 18.2190
" />
<path d="M46.9234 18.2190
L46.9234 18.3399
" />
<path d="M47.5282 17.4933
L47.5282 18.7633
" />
<path d="M47.5282 17.5537
L47.6492 17.4933
" />
<path d="M47.6492 17.4933
L47.8911 17.4933
" />
<path d="M47.8911 17.4933
L48.0120 17.5537
" />
<path d="M48.0120 17.5537
L48.0725 17.6142
" />
<path d="M48.0725 17.6142
L48.1330 17.7352
" />
<path d="M48.1330 17.7352
L48.1330 18.0980
" />
<path d="M48.1330 18.0980
L48.0725 18.2190
" />
<path d="M48.0725 18.2190
L48.0120 18.2795
" />
<path d="M48.0120 18.2795
L47.8911 18.3399
" />
<path d="M47.8911 18.3399
L47.6492 18.3399
" />
<path d="M47.6492 18.3399
L47.5282 18.2795
" />
<path d="M49.2215 18.3399
L49.2215 17.0699
" />
<path d="M49.2215 18.2795
L49.1006 18.3399
" />
<path d="M49.1006 18.3399
L48.8587 18.3399
" />
<path d="M48.8587 18.3399
L48.7377 18.2795
" />
<path d="M48.7377 18.2795
L48.6772 18.2190
" />
<path d="M48.6772 18.2190
L48.6168 18.0980
" />
<path d="M48.6168 18.0980
L48.6168 17.7352
" />
<path d="M48.6168 17.7352
L48.6772 17.6142
" />
<path d="M48.6772 17.6142
L48.7377 17.5537
" />
<path d="M48.7377 17.5537
L48.8587 17.4933
" />
<path d="M48.8587 17.4933
L49.1006 17.4933
" />
<path d="M49.1006 17.4933
L49.2215 17.5537
" />
<path d="M49.6448 17.4933
L50.1286 17.4933
" />
<path d="M49.8262 18.3399
L49.8262 17.2514
" />
<path d="M49.8262 17.2514
L49.8867 17.1304
" />
<path d="M49.8867 17.1304
L50.0077 17.0699
" />
<path d="M50.0077 17.0699
L50.1286 17.0699
" />
<path d="M50.7334 18.2190
L50.7938 18.2795
" />
<path d="M50.7938 18.2795
L50.7334 18.3399
" />
<path d="M50.7334 18.3399
L50.6729 18.2795
" />
<path d="M50.6729 18.2795
L50.7334 18.2190
" />
<path d="M50.7334 18.2190
L50.7334 18.3399
" />
<path d="M50.4915 17.1304
L50.6124 17.0699
" />
<path d="M50.6124 17.0699
L50.9148 17.0699
" />
<path d="M50.9148 17.0699
L51.0357 17.1304
" />
<path d="M51.0357 17.1304
L51.0962 17.2514
" />
<path d="M51.0962 17.2514
L51.0962 17.3723
" />
<path d="M51.0962 17.3723
L51.0357 17.4933
" />
<path d="M51.0357 17.4933
L50.9753 17.5537
" />
<path d="M50.9753 17.5537
L50.8543 17.6142
" />
<path d="M50.8543 17.6142
L50.7938 17.6747
" />
<path d="M50.7938 17.6747
L50.7334 17.7956
" />
<path d="M50.7334 17.7956
L50.7334 17.8561
" />
<path d="M51.4591 17.4933
L51.9429 17.4933
" />
<path d="M51.6405 18.3399
L51.6405 17.2514
" />
<path d="M51.6405 17.2514
L51.7010 17.1304
" />
<path d="M51.7010 17.1304
L51.8220 17.0699
" />
<path d="M51.8220 17.0699
L51.9429 17.0699
" />
<path d="M52.3662 18.3399
L52.3662 17.4933
" />
<path d="M52.3662 17.0699
L52.3058 17.1304
" />
<path d="M52.3058 17.1304
L52.3662 17.1909
" />
<path d="M52.3662 17.1909
L52.4267 17.1304
" />
<path d="M52.4267 17.1304
L52.3662 17.0699
" />
<path d="M52.3662 17.0699
L52.3662 17.1909
" />
<path d="M53.1525 18.3399
L53.0315 18.2795
" />
<path d="M53.0315 18.2795
L52.9710 18.1585
" />
<path d="M52.9710 18.1585
L52.9710 17.0699
" />
<path d="M54.1200 18.2795
L53.9991 18.3399
" />
<path d="M53.9991 18.3399
L53.7572 18.3399
" />
<path d="M53.7572 18.3399
L53.6362 18.2795
" />
<path d="M53.6362 18.2795
L53.5758 18.1585
" />
<path d="M53.5758 18.1585
L53.5758 17.6747
" />
<path d="M53.5758 17.6747
L53.6362 17.5537
" />
<path d="M53.6362 17.5537
L53.7572 17.4933
" />
<path d="M53.7572 17.4933
L53.9991 17.4933
" />
<path d="M53.9991 17.4933
L54.1200 17.5537
" />
<path d="M54.1200 17.5537
L54.1805 17.6747
" />
<path d="M54.1805 17.6747
L54.1805 17.7956
" />
<path d="M54.1805 17.7956
L53.5758 17.9166
" />
<path d="M54.7248 18.3399
L54.7248 17.0699
" />
<path d="M55.8739 18.3399
L55.8739 17.0699
" />
<path d="M55.8739 18.2795
L55.7530 18.3399
" />
<path d="M55.7530 18.3399
L55.5111 18.3399
" />
<path d="M55.5111 18.3399
L55.3901 18.2795
" />
<path d="M55.3901 18.2795
L55.3296 18.2190
" />
<path d="M55.3296 18.2190
L55.2692 18.0980
" />
<path d="M55.2692 18.0980
L55.2692 17.7352
" />
<path d="M55.2692 17.7352
L55.3296 17.6142
" />
<path d="M55.3296 17.6142
L55.3901 17.5537
" />
<path d="M55.3901 17.5537
L55.5111 17.4933
" />
<path d="M55.5111 17.4933
L55.7530 17.4933
" />
<path d="M55.7530 17.4933
L55.8739 17.5537
" />
<path d="M56.4786 17.6747
L57.4463 17.6747
" />
<path d="M57.4463 18.0375
L56.4786 18.0375
" />
<path d="M58.6558 17.0699
L58.0510 17.0699
" />
<path d="M58.0510 17.0699
L57.9906 17.6747
" />
<path d="M57.9906 17.6747
L58.0510 17.6142
" />
<path d="M58.0510 17.6142
L58.1720 17.5537
" />
<path d="M58.1720 17.5537
L58.4744 17.5537
" />
<path d="M58.4744 17.5537
L58.5953 17.6142
" />
<path d="M58.5953 17.6142
L58.6558 17.6747
" />
<path d="M58.6558 17.6747
L58.7163 17.7956
" />
<path d="M58.7163 17.7956
L58.7163 18.0980
" />
<path d="M58.7163 18.0980
L58.6558 18.2190
" />
<path d="M58.6558 18.2190
L58.5953 18.2795
" />
<path d="M58.5953 18.2795
L58.4744 18.3399
" />
<path d="M58.4744 18.3399
L58.1720 18.3399
" />
<path d="M58.1720 18.3399
L58.0510 18.2795
" />
<path d="M58.0510 18.2795
L57.9906 18.2190
" />
<path d="M59.8653 17.0699
L59.2605 17.0699
" />
<path d="M59.2605 17.0699
L59.2001 17.6747
" />
<path d="M59.2001 17.6747
L59.2605 17.6142
" />
<path d="M59.2605 17.6142
L59.3815 17.5537
" />
<path d="M59.3815 17.5537
L59.6839 17.5537
" />
<path d="M59.6839 17.5537
L59.8048 17.6142
" />
<path d="M59.8048 17.6142
L59.8653 17.6747
" />
<path d="M59.8653 17.6747
L59.9258 17.7956
" />
<path d="M59.9258 17.7956
L59.9258 18.0980
" />
<path d="M59.9258 18.0980
L59.8653 18.2190
" />
<path d="M59.8653 18.2190
L59.8048 18.2795
" />
<path d="M59.8048 18.2795
L59.6839 18.3399
" />
<path d="M59.6839 18.3399
L59.3815 18.3399
" />
<path d="M59.3815 18.3399
L59.2605 18.2795
" />
<path d="M59.2605 18.2795
L59.2001 18.2190
" />
<path d="M61.0143 17.4933
L61.0143 18.3399
" />
<path d="M60.7119 17.0095
L60.4096 17.9166
" />
<path d="M60.4096 17.9166
L61.1957 17.9166
" />
<path d="M62.2238 17.0699
L61.9819 17.0699
" />
<path d="M61.9819 17.0699
L61.8610 17.1304
" />
<path d="M61.8610 17.1304
L61.8005 17.1909
" />
<path d="M61.8005 17.1909
L61.6795 17.3723
" />
<path d="M61.6795 17.3723
L61.6191 17.6142
" />
<path d="M61.6191 17.6142
L61.6191 18.0980
" />
<path d="M61.6191 18.0980
L61.6795 18.2190
" />
<path d="M61.6795 18.2190
L61.7400 18.2795
" />
<path d="M61.7400 18.2795
L61.8610 18.3399
" />
<path d="M61.8610 18.3399
L62.1029 18.3399
" />
<path d="M62.1029 18.3399
L62.2238 18.2795
" />
<path d="M62.2238 18.2795
L62.2843 18.2190
" />
<path d="M62.2843 18.2190
L62.3448 18.0980
" />
<path d="M62.3448 18.0980
L62.3448 17.7956
" />
<path d="M62.3448 17.7956
L62.2843 17.6747
" />
<path d="M62.2843 17.6747
L62.2238 17.6142
" />
<path d="M62.2238 17.6142
L62.1029 17.5537
" />
<path d="M62.1029 17.5537
L61.8610 17.5537
" />
<path d="M61.8610 17.5537
L61.7400 17.6142
" />
<path d="M61.7400 17.6142
L61.6795 17.6747
" />
<path d="M61.6795 17.6747
L61.6191 17.7956
" />
<path d="M63.4333 18.3399
L63.4333 17.0699
" />
<path d="M63.4333 18.2795
L63.3124 18.3399
" />
<path d="M63.3124 18.3399
L63.0705 18.3399
" />
<path d="M63.0705 18.3399
L62.9495 18.2795
" />
<path d="M62.9495 18.2795
L62.8890 18.2190
" />
<path d="M62.8890 18.2190
L62.8286 18.0980
" />
<path d="M62.8286 18.0980
L62.8286 17.7352
" />
<path d="M62.8286 17.7352
L62.8890 17.6142
" />
<path d="M62.8890 17.6142
L62.9495 17.5537
" />
<path d="M62.9495 17.5537
L63.0705 17.4933
" />
<path d="M63.0705 17.4933
L63.3124 17.4933
" />
<path d="M63.3124 17.4933
L63.4333 17.5537
" />
<path d="M64.5823 17.4933
L64.5823 18.3399
" />
<path d="M64.2799 17.0095
L63.9776 17.9166
" />
<path d="M63.9776 17.9166
L64.7637 17.9166
" />
<path d="M65.7918 17.0699
L65.5499 17.0699
" />
<path d="M65.5499 17.0699
L65.4290 17.1304
" />
<path d="M65.4290 17.1304
L65.3685 17.1909
" />
<path d="M65.3685 17.1909
L65.2475 17.3723
" />
<path d="M65.2475 17.3723
L65.1871 17.6142
" />
<path d="M65.1871 17.6142
L65.1871 18.0980
" />
<path d="M65.1871 18.0980
L65.2475 18.2190
" />
<path d="M65.2475 18.2190
L65.3080 18.2795
" />
<path d="M65.3080 18.2795
L65.4290 18.3399
" />
<path d="M65.4290 18.3399
L65.6709 18.3399
" />
<path d="M65.6709 18.3399
L65.7918 18.2795
" />
<path d="M65.7918 18.2795
L65.8523 18.2190
" />
<path d="M65.8523 18.2190
L65.9128 18.0980
" />
<path d="M65.9128 18.0980
L65.9128 17.7956
" />
<path d="M65.9128 17.7956
L65.8523 17.6747
" />
<path d="M65.8523 17.6747
L65.7918 17.6142
" />
<path d="M65.7918 17.6142
L65.6709 17.5537
" />
<path d="M65.6709 17.5537
L65.4290 17.5537
" />
<path d="M65.4290 17.5537
L65.3080 17.6142
" />
<path d="M65.3080 17.6142
L65.2475 17.6747
" />
<path d="M65.2475 17.6747
L65.1871 17.7956
" />
<path d="M66.3966 17.1909
L66.4570 17.1304
" />
<path d="M66.4570 17.1304
L66.5780 17.0699
" />
<path d="M66.5780 17.0699
L66.8804 17.0699
" />
<path d="M66.8804 17.0699
L67.0013 17.1304
" />
<path d="M67.0013 17.1304
L67.0618 17.1909
" />
<path d="M67.0618 17.1909
L67.1223 17.3118
" />
<path d="M67.1223 17.3118
L67.1223 17.4328
" />
<path d="M67.1223 17.4328
L67.0618 17.6142
" />
<path d="M67.0618 17.6142
L66.3361 18.3399
" />
<path d="M66.3361 18.3399
L67.1223 18.3399
" />
<path d="M68.2713 17.0699
L67.6665 17.0699
" />
<path d="M67.6665 17.0699
L67.6061 17.6747
" />
<path d="M67.6061 17.6747
L67.6665 17.6142
" />
<path d="M67.6665 17.6142
L67.7875 17.5537
" />
<path d="M67.7875 17.5537
L68.0899 17.5537
" />
<path d="M68.0899 17.5537
L68.2108 17.6142
" />
<path d="M68.2108 17.6142
L68.2713 17.6747
" />
<path d="M68.2713 17.6747
L68.3318 17.7956
" />
<path d="M68.3318 17.7956
L68.3318 18.0980
" />
<path d="M68.3318 18.0980
L68.2713 18.2190
" />
<path d="M68.2713 18.2190
L68.2108 18.2795
" />
<path d="M68.2108 18.2795
L68.0899 18.3399
" />
<path d="M68.0899 18.3399
L67.7875 18.3399
" />
<path d="M67.7875 18.3399
L67.6665 18.2795
" />
<path d="M67.6665 18.2795
L67.6061 18.2190
" />
<path d="M68.7551 17.0699
L69.5413 17.0699
" />
<path d="M69.5413 17.0699
L69.1179 17.5537
" />
<path d="M69.1179 17.5537
L69.2994 17.5537
" />
<path d="M69.2994 17.5537
L69.4203 17.6142
" />
<path d="M69.4203 17.6142
L69.4808 17.6747
" />
<path d="M69.4808 17.6747
L69.5413 17.7956
" />
<path d="M69.5413 17.7956
L69.5413 18.0980
" />
<path d="M69.5413 18.0980
L69.4808 18.2190
" />
<path d="M69.4808 18.2190
L69.4203 18.2795
" />
<path d="M69.4203 18.2795
L69.2994 18.3399
" />
<path d="M69.2994 18.3399
L68.9365 18.3399
" />
<path d="M68.9365 18.3399
L68.8156 18.2795
" />
<path d="M68.8156 18.2795
L68.7551 18.2190
" />
<path d="M69.9646 17.0699
L70.7508 17.0699
" />
<path d="M70.7508 17.0699
L70.3274 17.5537
" />
<path d="M70.3274 17.5537
L70.5089 17.5537
" />
<path d="M70.5089 17.5537
L70.6298 17.6142
" />
<path d="M70.6298 17.6142
L70.6903 17.6747
" />
<path d="M70.6903 17.6747
L70.7508 17.7956
" />
<path d="M70.7508 17.7956
L70.7508 18.0980
" />
<path d="M70.7508 18.0980
L70.6903 18.2190
" />
<path d="M70.6903 18.2190
L70.6298 18.2795
" />
<path d="M70.6298 18.2795
L70.5089 18.3399
" />
<path d="M70.5089 18.3399
L70.1460 18.3399
" />
<path d="M70.1460 18.3399
L70.0251 18.2795
" />
<path d="M70.0251 18.2795
L69.9646 18.2190
" />
<path d="M71.8393 17.0699
L71.5974 17.0699
" />
<path d="M71.5974 17.0699
L71.4765 17.1304
" />
<path d="M71.4765 17.1304
L71.4160 17.1909
" />
<path d="M71.4160 17.1909
L71.2950 17.3723
" />
<path d="M71.2950 17.3723
L71.2346 17.6142
" />
<path d="M71.2346 17.6142
L71.2346 18.0980
" />
<path d="M71.2346 18.0980
L71.2950 18.2190
" />
<path d="M71.2950 18.2190
L71.3555 18.2795
" />
<path d="M71.3555 18.2795
L71.4765 18.3399
" />
<path d="M71.4765 18.3399
L71.7184 18.3399
" />
<path d="M71.7184 18.3399
L71.8393 18.2795
" />
<path d="M71.8393 18.2795
L71.8998 18.2190
" />
<path d="M71.8998 18.2190
L71.9603 18.0980
" />
<path d="M71.9603 18.0980
L71.9603 17.7956
" />
<path d="M71.9603 17.7956
L71.8998 17.6747
" />
<path d="M71.8998 17.6747
L71.8393 17.6142
" />
<path d="M71.8393 17.6142
L71.7184 17.5537
" />
<path d="M71.7184 17.5537
L71.4765 17.5537
" />
<path d="M71.4765 17.5537
L71.3555 17.6142
" />
<path d="M71.3555 17.6142
L71.2950 17.6747
" />
<path d="M71.2950 17.6747
L71.2346 17.7956
" />
<path d="M72.7464 17.0699
L72.8674 17.0699
" />
<path d="M72.8674 17.0699
L72.9883 17.1304
" />
<path d="M72.9883 17.1304
L73.0488 17.1909
" />
<path d="M73.0488 17.1909
L73.1093 17.3118
" />
<path d="M73.1093 17.3118
L73.1698 17.5537
" />
<path d="M73.1698 17.5537
L73.1698 17.8561
" />
<path d="M73.1698 17.8561
L73.1093 18.0980
" />
<path d="M73.1093 18.0980
L73.0488 18.2190
" />
<path d="M73.0488 18.2190
L72.9883 18.2795
" />
<path d="M72.9883 18.2795
L72.8674 18.3399
" />
<path d="M72.8674 18.3399
L72.7464 18.3399
" />
<path d="M72.7464 18.3399
L72.6255 18.2795
" />
<path d="M72.6255 18.2795
L72.5650 18.2190
" />
<path d="M72.5650 18.2190
L72.5045 18.0980
" />
<path d="M72.5045 18.0980
L72.4441 17.8561
" />
<path d="M72.4441 17.8561
L72.4441 17.5537
" />
<path d="M72.4441 17.5537
L72.5045 17.3118
" />
<path d="M72.5045 17.3118
L72.5650 17.1909
" />
<path d="M72.5650 17.1909
L72.6255 17.1304
" />
<path d="M72.6255 17.1304
L72.7464 17.0699
" />
<path d="M73.9559 17.0699
L74.0769 17.0699
" />
<path d="M74.0769 17.0699
L74.1978 17.1304
" />
<path d="M74.1978 17.1304
L74.2583 17.1909
" />
<path d="M74.2583 17.1909
L74.3188 17.3118
" />
<path d="M74.3188 17.3118
L74.3793 17.5537
" />
<path d="M74.3793 17.5537
L74.3793 17.8561
" />
<path d="M74.3793 17.8561
L74.3188 18.0980
" />
<path d="M74.3188 18.0980
L74.2583 18.2190
" />
<path d="M74.2583 18.2190
L74.1978 18.2795
" />
<path d="M74.1978 18.2795
L74.0769 18.3399
" />
<path d="M74.0769 18.3399
L73.9559 18.3399
" />
<path d="M73.9559 18.3399
L73.8350 18.2795
" />
<path d="M73.8350 18.2795
L73.7745 18.2190
" />
<path d="M73.7745 18.2190
L73.7140 18.0980
" />
<path d="M73.7140 18.0980
L73.6536 17.8561
" />
<path d="M73.6536 17.8561
L73.6536 17.5537
" />
<path d="M73.6536 17.5537
L73.7140 17.3118
" />
<path d="M73.7140 17.3118
L73.7745 17.1909
" />
<path d="M73.7745 17.1909
L73.8350 17.1304
" />
<path d="M73.8350 17.1304
L73.9559 17.0699
" />
<path d="M75.4678 18.3399
L75.4678 17.6747
" />
<path d="M75.4678 17.6747
L75.4073 17.5537
" />
<path d="M75.4073 17.5537
L75.2864 17.4933
" />
<path d="M75.2864 17.4933
L75.0445 17.4933
" />
<path d="M75.0445 17.4933
L74.9235 17.5537
" />
<path d="M75.4678 18.2795
L75.3469 18.3399
" />
<path d="M75.3469 18.3399
L75.0445 18.3399
" />
<path d="M75.0445 18.3399
L74.9235 18.2795
" />
<path d="M74.9235 18.2795
L74.8631 18.1585
" />
<path d="M74.8631 18.1585
L74.8631 18.0375
" />
<path d="M74.8631 18.0375
L74.9235 17.9166
" />
<path d="M74.9235 17.9166
L75.0445 17.8561
" />
<path d="M75.0445 17.8561
L75.3469 17.8561
" />
<path d="M75.3469 17.8561
L75.4678 17.7956
" />
<path d="M76.6168 17.4933
L76.6168 18.3399
" />
<path d="M76.3144 17.0095
L76.0121 17.9166
" />
<path d="M76.0121 17.9166
L76.7982 17.9166
" />
<path d="M77.5239 17.0699
L77.6449 17.0699
" />
<path d="M77.6449 17.0699
L77.7658 17.1304
" />
<path d="M77.7658 17.1304
L77.8263 17.1909
" />
<path d="M77.8263 17.1909
L77.8868 17.3118
" />
<path d="M77.8868 17.3118
L77.9473 17.5537
" />
<path d="M77.9473 17.5537
L77.9473 17.8561
" />
<path d="M77.9473 17.8561
L77.8868 18.0980
" />
<path d="M77.8868 18.0980
L77.8263 18.2190
" />
<path d="M77.8263 18.2190
L77.7658 18.2795
" />
<path d="M77.7658 18.2795
L77.6449 18.3399
" />
<path d="M77.6449 18.3399
L77.5239 18.3399
" />
<path d="M77.5239 18.3399
L77.4030 18.2795
" />
<path d="M77.4030 18.2795
L77.3425 18.2190
" />
<path d="M77.3425 18.2190
L77.2820 18.0980
" />
<path d="M77.2820 18.0980
L77.2216 17.8561
" />
<path d="M77.2216 17.8561
L77.2216 17.5537
" />
<path d="M77.2216 17.5537
L77.2820 17.3118
" />
<path d="M77.2820 17.3118
L77.3425 17.1909
" />
<path d="M77.3425 17.1909
L77.4030 17.1304
" />
<path d="M77.4030 17.1304
L77.5239 17.0699
" />
<path d="M79.1568 18.3399
L78.4311 18.3399
" />
<path d="M78.7939 18.3399
L78.7939 17.0699
" />
<path d="M78.7939 17.0699
L78.6730 17.2514
" />
<path d="M78.6730 17.2514
L78.5520 17.3723
" />
<path d="M78.5520 17.3723
L78.4311 17.4328
" />
<path d="M80.3058 17.0699
L79.7010 17.0699
" />
<path d="M79.7010 17.0699
L79.6406 17.6747
" />
<path d="M79.6406 17.6747
L79.7010 17.6142
" />
<path d="M79.7010 17.6142
L79.8220 17.5537
" />
<path d="M79.8220 17.5537
L80.1244 17.5537
" />
<path d="M80.1244 17.5537
L80.2453 17.6142
" />
<path d="M80.2453 17.6142
L80.3058 17.6747
" />
<path d="M80.3058 17.6747
L80.3663 17.7956
" />
<path d="M80.3663 17.7956
L80.3663 18.0980
" />
<path d="M80.3663 18.0980
L80.3058 18.2190
" />
<path d="M80.3058 18.2190
L80.2453 18.2795
" />
<path d="M80.2453 18.2795
L80.1244 18.3399
" />
<path d="M80.1244 18.3399
L79.8220 18.3399
" />
<path d="M79.8220 18.3399
L79.7010 18.2795
" />
<path d="M79.7010 18.2795
L79.6406 18.2190
" />
<path d="M80.7896 17.0699
L81.5758 17.0699
" />
<path d="M81.5758 17.0699
L81.1524 17.5537
" />
<path d="M81.1524 17.5537
L81.3339 17.5537
" />
<path d="M81.3339 17.5537
L81.4548 17.6142
" />
<path d="M81.4548 17.6142
L81.5153 17.6747
" />
<path d="M81.5153 17.6747
L81.5758 17.7956
" />
<path d="M81.5758 17.7956
L81.5758 18.0980
" />
<path d="M81.5758 18.0980
L81.5153 18.2190
" />
<path d="M81.5153 18.2190
L81.4548 18.2795
" />
<path d="M81.4548 18.2795
L81.3339 18.3399
" />
<path d="M81.3339 18.3399
L80.9710 18.3399
" />
<path d="M80.9710 18.3399
L80.8501 18.2795
" />
<path d="M80.8501 18.2795
L80.7896 18.2190
" />
<path d="M82.7248 17.0699
L82.1200 17.0699
" />
<path d="M82.1200 17.0699
L82.0596 17.6747
" />
<path d="M82.0596 17.6747
L82.1200 17.6142
" />
<path d="M82.1200 17.6142
L82.2410 17.5537
" />
<path d="M82.2410 17.5537
L82.5434 17.5537
" />
<path d="M82.5434 17.5537
L82.6643 17.6142
" />
<path d="M82.6643 17.6142
L82.7248 17.6747
" />
<path d="M82.7248 17.6747
L82.7853 17.7956
" />
<path d="M82.7853 17.7956
L82.7853 18.0980
" />
<path d="M82.7853 18.0980
L82.7248 18.2190
" />
<path d="M82.7248 18.2190
L82.6643 18.2795
" />
<path d="M82.6643 18.2795
L82.5434 18.3399
" />
<path d="M82.5434 18.3399
L82.2410 18.3399
" />
<path d="M82.2410 18.3399
L82.1200 18.2795
" />
<path d="M82.1200 18.2795
L82.0596 18.2190
" />
<path d="M83.9343 17.0699
L83.3295 17.0699
" />
<path d="M83.3295 17.0699
L83.2691 17.6747
" />
<path d="M83.2691 17.6747
L83.3295 17.6142
" />
<path d="M83.3295 17.6142
L83.4505 17.5537
" />
<path d="M83.4505 17.5537
L83.7529 17.5537
" />
<path d="M83.7529 17.5537
L83.8738 17.6142
" />
<path d="M83.8738 17.6142
L83.9343 17.6747
" />
<path d="M83.9343 17.6747
L83.9948 17.7956
" />
<path d="M83.9948 17.7956
L83.9948 18.0980
" />
<path d="M83.9948 18.0980
L83.9343 18.2190
" />
<path d="M83.9343 18.2190
L83.8738 18.2795
" />
<path d="M83.8738 18.2795
L83.7529 18.3399
" />
<path d="M83.7529 18.3399
L83.4505 18.3399
" />
<path d="M83.4505 18.3399
L83.3295 18.2795
" />
<path d="M83.3295 18.2795
L83.2691 18.2190
" />
<path d="M85.0833 18.2795
L84.9624 18.3399
" />
<path d="M84.9624 18.3399
L84.7205 18.3399
" />
<path d="M84.7205 18.3399
L84.5995 18.2795
" />
<path d="M84.5995 18.2795
L84.5390 18.2190
" />
<path d="M84.5390 18.2190
L84.4786 18.0980
" />
<path d="M84.4786 18.0980
L84.4786 17.7352
" />
<path d="M84.4786 17.7352
L84.5390 17.6142
" />
<path d="M84.5390 17.6142
L84.5995 17.5537
" />
<path d="M84.5995 17.5537
L84.7205 17.4933
" />
<path d="M84.7205 17.4933
L84.9624 17.4933
" />
<path d="M84.9624 17.4933
L85.0833 17.5537
" />
<path d="M85.6881 18.3399
L85.9300 18.3399
" />
<path d="M85.9300 18.3399
L86.0510 18.2795
" />
<path d="M86.0510 18.2795
L86.1114 18.2190
" />
<path d="M86.1114 18.2190
L86.2324 18.0375
" />
<path d="M86.2324 18.0375
L86.2929 17.7956
" />
<path d="M86.2929 17.7956
L86.2929 17.3118
" />
<path d="M86.2929 17.3118
L86.2324 17.1909
" />
<path d="M86.2324 17.1909
L86.1719 17.1304
" />
<path d="M86.1719 17.1304
L86.0510 17.0699
" />
<path d="M86.0510 17.0699
L85.8091 17.0699
" />
<path d="M85.8091 17.0699
L85.6881 17.1304
" />
<path d="M85.6881 17.1304
L85.6276 17.1909
" />
<path d="M85.6276 17.1909
L85.5672 17.3118
" />
<path d="M85.5672 17.3118
L85.5672 17.6142
" />
<path d="M85.5672 17.6142
L85.6276 17.7352
" />
<path d="M85.6276 17.7352
L85.6881 17.7956
" />
<path d="M85.6881 17.7956
L85.8091 17.8561
" />
<path d="M85.8091 17.8561
L86.0510 17.8561
" />
<path d="M86.0510 17.8561
L86.1719 17.7956
" />
<path d="M86.1719 17.7956
L86.2324 17.7352
" />
<path d="M86.2324 17.7352
L86.2929 17.6142
" />
<path d="M86.7162 17.0699
L87.5024 17.0699
" />
<path d="M87.5024 17.0699
L87.0790 17.5537
" />
<path d="M87.0790 17.5537
L87.2605 17.5537
" />
<path d="M87.2605 17.5537
L87.3814 17.6142
" />
<path d="M87.3814 17.6142
L87.4419 17.6747
" />
<path d="M87.4419 17.6747
L87.5024 17.7956
" />
<path d="M87.5024 17.7956
L87.5024 18.0980
" />
<path d="M87.5024 18.0980
L87.4419 18.2190
" />
<path d="M87.4419 18.2190
L87.3814 18.2795
" />
<path d="M87.3814 18.2795
L87.2605 18.3399
" />
<path d="M87.2605 18.3399
L86.8976 18.3399
" />
<path d="M86.8976 18.3399
L86.7767 18.2795
" />
<path d="M86.7767 18.2795
L86.7162 18.2190
" />
<path d="M88.5909 18.2795
L88.4700 18.3399
" />
<path d="M88.4700 18.3399
L88.2281 18.3399
" />
<path d="M88.2281 18.3399
L88.1071 18.2795
" />
<path d="M88.1071 18.2795
L88.0466 18.2190
" />
<path d="M88.0466 18.2190
L87.9862 18.0980
" />
<path d="M87.9862 18.0980
L87.9862 17.7352
" />
<path d="M87.9862 17.7352
L88.0466 17.6142
" />
<path d="M88.0466 17.6142
L88.1071 17.5537
" />
<path d="M88.1071 17.5537
L88.2281 17.4933
" />
<path d="M88.2281 17.4933
L88.4700 17.4933
" />
<path d="M88.4700 17.4933
L88.5909 17.5537
" />
<path d="M89.6795 18.3399
L89.6795 17.0699
" />
<path d="M89.6795 18.2795
L89.5586 18.3399
" />
<path d="M89.5586 18.3399
L89.3167 18.3399
" />
<path d="M89.3167 18.3399
L89.1957 18.2795
" />
<path d="M89.1957 18.2795
L89.1352 18.2190
" />
<path d="M89.1352 18.2190
L89.0748 18.0980
" />
<path d="M89.0748 18.0980
L89.0748 17.7352
" />
<path d="M89.0748 17.7352
L89.1352 17.6142
" />
<path d="M89.1352 17.6142
L89.1957 17.5537
" />
<path d="M89.1957 17.5537
L89.3167 17.4933
" />
<path d="M89.3167 17.4933
L89.5586 17.4933
" />
<path d="M89.5586 17.4933
L89.6795 17.5537
" />
<path d="M90.8285 18.3399
L90.8285 17.0699
" />
<path d="M90.8285 18.2795
L90.7076 18.3399
" />
<path d="M90.7076 18.3399
L90.4657 18.3399
" />
<path d="M90.4657 18.3399
L90.3447 18.2795
" />
<path d="M90.3447 18.2795
L90.2842 18.2190
" />
<path d="M90.2842 18.2190
L90.2238 18.0980
" />
<path d="M90.2238 18.0980
L90.2238 17.7352
" />
<path d="M90.2238 17.7352
L90.2842 17.6142
" />
<path d="M90.2842 17.6142
L90.3447 17.5537
" />
<path d="M90.3447 17.5537
L90.4657 17.4933
" />
<path d="M90.4657 17.4933
L90.7076 17.4933
" />
<path d="M90.7076 17.4933
L90.8285 17.5537
" />
<path d="M92.0985 18.3399
L91.3728 18.3399
" />
<path d="M91.7356 18.3399
L91.7356 17.0699
" />
<path d="M91.7356 17.0699
L91.6147 17.2514
" />
<path d="M91.6147 17.2514
L91.4937 17.3723
" />
<path d="M91.4937 17.3723
L91.3728 17.4328
" />
<path d="M93.1870 17.0699
L92.9451 17.0699
" />
<path d="M92.9451 17.0699
L92.8242 17.1304
" />
<path d="M92.8242 17.1304
L92.7637 17.1909
" />
<path d="M92.7637 17.1909
L92.6427 17.3723
" />
<path d="M92.6427 17.3723
L92.5823 17.6142
" />
<path d="M92.5823 17.6142
L92.5823 18.0980
" />
<path d="M92.5823 18.0980
L92.6427 18.2190
" />
<path d="M92.6427 18.2190
L92.7032 18.2795
" />
<path d="M92.7032 18.2795
L92.8242 18.3399
" />
<path d="M92.8242 18.3399
L93.0661 18.3399
" />
<path d="M93.0661 18.3399
L93.1870 18.2795
" />
<path d="M93.1870 18.2795
L93.2475 18.2190
" />
<path d="M93.2475 18.2190
L93.3080 18.0980
" />
<path d="M93.3080 18.0980
L93.3080 17.7956
" />
<path d="M93.3080 17.7956
L93.2475 17.6747
" />
<path d="M93.2475 17.6747
L93.1870 17.6142
" />
<path d="M93.1870 17.6142
L93.0661 17.5537
" />
<path d="M93.0661 17.5537
L92.8242 17.5537
" />
<path d="M92.8242 17.5537
L92.7032 17.6142
" />
<path d="M92.7032 17.6142
L92.6427 17.6747
" />
<path d="M92.6427 17.6747
L92.5823 17.7956
" />
<path d="M94.3965 18.2795
L94.2756 18.3399
" />
<path d="M94.2756 18.3399
L94.0337 18.3399
" />
<path d="M94.0337 18.3399
L93.9127 18.2795
" />
<path d="M93.9127 18.2795
L93.8522 18.2190
" />
<path d="M93.8522 18.2190
L93.7918 18.0980
" />
<path d="M93.7918 18.0980
L93.7918 17.7352
" />
<path d="M93.7918 17.7352
L93.8522 17.6142
" />
<path d="M93.8522 17.6142
L93.9127 17.5537
" />
<path d="M93.9127 17.5537
L94.0337 17.4933
" />
<path d="M94.0337 17.4933
L94.2756 17.4933
" />
<path d="M94.2756 17.4933
L94.3965 17.5537
" />
<path d="M95.4246 18.2795
L95.3037 18.3399
" />
<path d="M95.3037 18.3399
L95.0618 18.3399
" />
<path d="M95.0618 18.3399
L94.9408 18.2795
" />
<path d="M94.9408 18.2795
L94.8804 18.1585
" />
<path d="M94.8804 18.1585
L94.8804 17.6747
" />
<path d="M94.8804 17.6747
L94.9408 17.5537
" />
<path d="M94.9408 17.5537
L95.0618 17.4933
" />
<path d="M95.0618 17.4933
L95.3037 17.4933
" />
<path d="M95.3037 17.4933
L95.4246 17.5537
" />
<path d="M95.4246 17.5537
L95.4851 17.6747
" />
<path d="M95.4851 17.6747
L95.4851 17.7956
" />
<path d="M95.4851 17.7956
L94.8804 17.9166
" />
</g></g> 
</svg>
