<?xml version="1.0" standalone="no"?>
 <!DOCTYPE svg PUBLIC "-//W3C//DTD SVG 1.1//EN" 
 "http://www.w3.org/Graphics/SVG/1.1/DTD/svg11.dtd"> 
<svg
  xmlns:svg="http://www.w3.org/2000/svg"
  xmlns="http://www.w3.org/2000/svg"
  xmlns:xlink="http://www.w3.org/1999/xlink"
  version="1.1"
  width="54.2544mm" height="24.0792mm" viewBox="0.0000 0.0000 54.2544 24.0792">
<title>SVG Image created as working.svg date 2023/08/08 17:13:38 </title>
  <desc>Image generated by Eeschema-SVG </desc>
<g style="fill:#000000; fill-opacity:1.0000;stroke:#000000; stroke-opacity:1.0000;
stroke-linecap:round; stroke-linejoin:round;"
 transform="translate(0 0) scale(1 1)">
</g>
<g style="fill:#840000; fill-opacity:0.0; 
stroke:#840000; stroke-width:0.0000; stroke-opacity:1; 
stroke-linecap:round; stroke-linejoin:round;">
</g>
<g style="fill:#FFFFC2; fill-opacity:0.0; 
stroke:#FFFFC2; stroke-width:0.0000; stroke-opacity:1; 
stroke-linecap:round; stroke-linejoin:round;">
</g>
<g style="fill:#FFFFC2; fill-opacity:1.0000; 
stroke:#FFFFC2; stroke-width:0.0000; stroke-opacity:1; 
stroke-linecap:round; stroke-linejoin:round;">
<rect x="14.430000" y="6.838700" width="22.860000" height="12.700000" rx="0.000000" />
</g>
<g style="fill:#840084; fill-opacity:1.0000; 
stroke:#840084; stroke-width:0.0000; stroke-opacity:1; 
stroke-linecap:round; stroke-linejoin:round;">
</g>
<g style="fill:#840000; fill-opacity:1.0000; 
stroke:#840000; stroke-width:0.0000; stroke-opacity:1; 
stroke-linecap:round; stroke-linejoin:round;">
</g>
<g style="fill:#840000; fill-opacity:0.0; 
stroke:#840000; stroke-width:0.2540; stroke-opacity:1; 
stroke-linecap:round; stroke-linejoin:round;">
<rect x="14.430000" y="6.838700" width="22.860000" height="12.700000" rx="0.000000" />
</g>
<g style="fill:#840000; fill-opacity:0.0; 
stroke:#840000; stroke-width:0.1524; stroke-opacity:1; 
stroke-linecap:round; stroke-linejoin:round;">
<path style="fill:#840000; fill-opacity:0.0; 
stroke:#840000; stroke-width:0.1524; stroke-opacity:1; 
stroke-linecap:round; stroke-linejoin:round;fill:none"
d="M 24.5900,14.4587
25.2250,14.4587
25.2250,11.9187
26.4950,11.9187
26.4950,14.4587
27.7650,14.4587
27.7650,11.9187
29.0350,11.9187
29.0350,14.4587
29.6700,14.4587
" /> 
<path d="M37.2900 11.9187
L39.8300 11.9187
" />
</g>
<g style="fill:#006464; fill-opacity:0.0; 
stroke:#006464; stroke-width:0.1524; stroke-opacity:1; 
stroke-linecap:round; stroke-linejoin:round;">
<text x="36.7820" y="12.5537"
textLength="5.0413" font-size="1.6933" lengthAdjust="spacingAndGlyphs"
text-anchor="end" opacity="0">FREQ</text>
<g class="stroked-text"><desc>FREQ</desc>
<path d="M32.5694 11.8330
L32.1460 11.8330
" />
<path d="M32.1460 12.4982
L32.1460 11.2282
" />
<path d="M32.1460 11.2282
L32.7508 11.2282
" />
<path d="M33.9603 12.4982
L33.5370 11.8935
" />
<path d="M33.2346 12.4982
L33.2346 11.2282
" />
<path d="M33.2346 11.2282
L33.7184 11.2282
" />
<path d="M33.7184 11.2282
L33.8394 11.2887
" />
<path d="M33.8394 11.2887
L33.8999 11.3492
" />
<path d="M33.8999 11.3492
L33.9603 11.4701
" />
<path d="M33.9603 11.4701
L33.9603 11.6516
" />
<path d="M33.9603 11.6516
L33.8999 11.7725
" />
<path d="M33.8999 11.7725
L33.8394 11.8330
" />
<path d="M33.8394 11.8330
L33.7184 11.8935
" />
<path d="M33.7184 11.8935
L33.2346 11.8935
" />
<path d="M34.5046 11.8330
L34.9280 11.8330
" />
<path d="M35.1094 12.4982
L34.5046 12.4982
" />
<path d="M34.5046 12.4982
L34.5046 11.2282
" />
<path d="M34.5046 11.2282
L35.1094 11.2282
" />
<path d="M36.5003 12.6192
L36.3793 12.5587
" />
<path d="M36.3793 12.5587
L36.2584 12.4378
" />
<path d="M36.2584 12.4378
L36.0770 12.2563
" />
<path d="M36.0770 12.2563
L35.9560 12.1958
" />
<path d="M35.9560 12.1958
L35.8351 12.1958
" />
<path d="M35.8955 12.4982
L35.7746 12.4378
" />
<path d="M35.7746 12.4378
L35.6536 12.3168
" />
<path d="M35.6536 12.3168
L35.5932 12.0749
" />
<path d="M35.5932 12.0749
L35.5932 11.6516
" />
<path d="M35.5932 11.6516
L35.6536 11.4097
" />
<path d="M35.6536 11.4097
L35.7746 11.2887
" />
<path d="M35.7746 11.2887
L35.8955 11.2282
" />
<path d="M35.8955 11.2282
L36.1374 11.2282
" />
<path d="M36.1374 11.2282
L36.2584 11.2887
" />
<path d="M36.2584 11.2887
L36.3793 11.4097
" />
<path d="M36.3793 11.4097
L36.4398 11.6516
" />
<path d="M36.4398 11.6516
L36.4398 12.0749
" />
<path d="M36.4398 12.0749
L36.3793 12.3168
" />
<path d="M36.3793 12.3168
L36.2584 12.4378
" />
<path d="M36.2584 12.4378
L36.1374 12.4982
" />
<path d="M36.1374 12.4982
L35.8955 12.4982
" />
</g></g>
<g style="fill:#A90000; fill-opacity:0.0; 
stroke:#A90000; stroke-width:0.1524; stroke-opacity:1; 
stroke-linecap:round; stroke-linejoin:round;">
<text x="38.5600" y="11.6647"
textLength="1.4127" font-size="1.6933" lengthAdjust="spacingAndGlyphs"
text-anchor="middle" opacity="0">1</text>
<g class="stroked-text"><desc>1</desc>
<path d="M38.9229 11.5012
L38.1972 11.5012
" />
<path d="M38.5600 11.5012
L38.5600 10.2312
" />
<path d="M38.5600 10.2312
L38.4391 10.4127
" />
<path d="M38.4391 10.4127
L38.3181 10.5336
" />
<path d="M38.3181 10.5336
L38.1972 10.5941
" />
</g></g>
<g style="fill:#840000; fill-opacity:0.0; 
stroke:#840000; stroke-width:0.1524; stroke-opacity:1; 
stroke-linecap:round; stroke-linejoin:round;">
<path d="M22.0500 19.5387
L22.0500 22.0787
" />
</g>
<g style="fill:#006464; fill-opacity:0.0; 
stroke:#006464; stroke-width:0.1524; stroke-opacity:1; 
stroke-linecap:round; stroke-linejoin:round;">
<g transform="rotate(-90.000000 22.0500 19.0307)">
<text x="22.0500" y="19.6657"
textLength="4.0737" font-size="1.6933" lengthAdjust="spacingAndGlyphs"
text-anchor="start" opacity="0">GND</text>
</g>
<g class="stroked-text"><desc>GND</desc>
<path d="M21.4200 17.9628
L21.3595 18.0838
" />
<path d="M21.3595 18.0838
L21.3595 18.2652
" />
<path d="M21.3595 18.2652
L21.4200 18.4466
" />
<path d="M21.4200 18.4466
L21.5410 18.5676
" />
<path d="M21.5410 18.5676
L21.6619 18.6281
" />
<path d="M21.6619 18.6281
L21.9038 18.6885
" />
<path d="M21.9038 18.6885
L22.0852 18.6885
" />
<path d="M22.0852 18.6885
L22.3271 18.6281
" />
<path d="M22.3271 18.6281
L22.4481 18.5676
" />
<path d="M22.4481 18.5676
L22.5691 18.4466
" />
<path d="M22.5691 18.4466
L22.6295 18.2652
" />
<path d="M22.6295 18.2652
L22.6295 18.1443
" />
<path d="M22.6295 18.1443
L22.5691 17.9628
" />
<path d="M22.5691 17.9628
L22.5086 17.9024
" />
<path d="M22.5086 17.9024
L22.0852 17.9024
" />
<path d="M22.0852 17.9024
L22.0852 18.1443
" />
<path d="M22.6295 17.3581
L21.3595 17.3581
" />
<path d="M21.3595 17.3581
L22.6295 16.6324
" />
<path d="M22.6295 16.6324
L21.3595 16.6324
" />
<path d="M22.6295 16.0276
L21.3595 16.0276
" />
<path d="M21.3595 16.0276
L21.3595 15.7252
" />
<path d="M21.3595 15.7252
L21.4200 15.5438
" />
<path d="M21.4200 15.5438
L21.5410 15.4228
" />
<path d="M21.5410 15.4228
L21.6619 15.3623
" />
<path d="M21.6619 15.3623
L21.9038 15.3019
" />
<path d="M21.9038 15.3019
L22.0852 15.3019
" />
<path d="M22.0852 15.3019
L22.3271 15.3623
" />
<path d="M22.3271 15.3623
L22.4481 15.4228
" />
<path d="M22.4481 15.4228
L22.5691 15.5438
" />
<path d="M22.5691 15.5438
L22.6295 15.7252
" />
<path d="M22.6295 15.7252
L22.6295 16.0276
" />
</g></g>
<g style="fill:#A90000; fill-opacity:0.0; 
stroke:#A90000; stroke-width:0.1524; stroke-opacity:1; 
stroke-linecap:round; stroke-linejoin:round;">
<g transform="rotate(-90.000000 21.7960 20.8087)">
<text x="21.7960" y="20.8087"
textLength="2.6222" font-size="1.6933" lengthAdjust="spacingAndGlyphs"
text-anchor="middle" opacity="0">10</text>
</g>
<g class="stroked-text"><desc>10</desc>
<path d="M21.6325 21.0505
L21.6325 21.7762
" />
<path d="M21.6325 21.4134
L20.3625 21.4134
" />
<path d="M20.3625 21.4134
L20.5440 21.5343
" />
<path d="M20.5440 21.5343
L20.6649 21.6553
" />
<path d="M20.6649 21.6553
L20.7254 21.7762
" />
<path d="M20.3625 20.2644
L20.3625 20.1434
" />
<path d="M20.3625 20.1434
L20.4230 20.0225
" />
<path d="M20.4230 20.0225
L20.4835 19.9620
" />
<path d="M20.4835 19.9620
L20.6044 19.9015
" />
<path d="M20.6044 19.9015
L20.8463 19.8410
" />
<path d="M20.8463 19.8410
L21.1487 19.8410
" />
<path d="M21.1487 19.8410
L21.3906 19.9015
" />
<path d="M21.3906 19.9015
L21.5116 19.9620
" />
<path d="M21.5116 19.9620
L21.5721 20.0225
" />
<path d="M21.5721 20.0225
L21.6325 20.1434
" />
<path d="M21.6325 20.1434
L21.6325 20.2644
" />
<path d="M21.6325 20.2644
L21.5721 20.3853
" />
<path d="M21.5721 20.3853
L21.5116 20.4458
" />
<path d="M21.5116 20.4458
L21.3906 20.5063
" />
<path d="M21.3906 20.5063
L21.1487 20.5667
" />
<path d="M21.1487 20.5667
L20.8463 20.5667
" />
<path d="M20.8463 20.5667
L20.6044 20.5063
" />
<path d="M20.6044 20.5063
L20.4835 20.4458
" />
<path d="M20.4835 20.4458
L20.4230 20.3853
" />
<path d="M20.4230 20.3853
L20.3625 20.2644
" />
</g></g>
<g style="fill:#840000; fill-opacity:0.0; 
stroke:#840000; stroke-width:0.1524; stroke-opacity:1; 
stroke-linecap:round; stroke-linejoin:round;">
<path d="M24.5900 19.5387
L24.5900 22.0787
" />
</g>
<g style="fill:#006464; fill-opacity:0.0; 
stroke:#006464; stroke-width:0.1524; stroke-opacity:1; 
stroke-linecap:round; stroke-linejoin:round;">
<g transform="rotate(-90.000000 24.5900 19.0307)">
<text x="24.5900" y="19.6657"
textLength="4.0737" font-size="1.6933" lengthAdjust="spacingAndGlyphs"
text-anchor="start" opacity="0">GND</text>
</g>
<g class="stroked-text"><desc>GND</desc>
<path d="M23.9600 17.9628
L23.8995 18.0838
" />
<path d="M23.8995 18.0838
L23.8995 18.2652
" />
<path d="M23.8995 18.2652
L23.9600 18.4466
" />
<path d="M23.9600 18.4466
L24.0810 18.5676
" />
<path d="M24.0810 18.5676
L24.2019 18.6281
" />
<path d="M24.2019 18.6281
L24.4438 18.6885
" />
<path d="M24.4438 18.6885
L24.6252 18.6885
" />
<path d="M24.6252 18.6885
L24.8671 18.6281
" />
<path d="M24.8671 18.6281
L24.9881 18.5676
" />
<path d="M24.9881 18.5676
L25.1091 18.4466
" />
<path d="M25.1091 18.4466
L25.1695 18.2652
" />
<path d="M25.1695 18.2652
L25.1695 18.1443
" />
<path d="M25.1695 18.1443
L25.1091 17.9628
" />
<path d="M25.1091 17.9628
L25.0486 17.9024
" />
<path d="M25.0486 17.9024
L24.6252 17.9024
" />
<path d="M24.6252 17.9024
L24.6252 18.1443
" />
<path d="M25.1695 17.3581
L23.8995 17.3581
" />
<path d="M23.8995 17.3581
L25.1695 16.6324
" />
<path d="M25.1695 16.6324
L23.8995 16.6324
" />
<path d="M25.1695 16.0276
L23.8995 16.0276
" />
<path d="M23.8995 16.0276
L23.8995 15.7252
" />
<path d="M23.8995 15.7252
L23.9600 15.5438
" />
<path d="M23.9600 15.5438
L24.0810 15.4228
" />
<path d="M24.0810 15.4228
L24.2019 15.3623
" />
<path d="M24.2019 15.3623
L24.4438 15.3019
" />
<path d="M24.4438 15.3019
L24.6252 15.3019
" />
<path d="M24.6252 15.3019
L24.8671 15.3623
" />
<path d="M24.8671 15.3623
L24.9881 15.4228
" />
<path d="M24.9881 15.4228
L25.1091 15.5438
" />
<path d="M25.1091 15.5438
L25.1695 15.7252
" />
<path d="M25.1695 15.7252
L25.1695 16.0276
" />
</g></g>
<g style="fill:#A90000; fill-opacity:0.0; 
stroke:#A90000; stroke-width:0.1524; stroke-opacity:1; 
stroke-linecap:round; stroke-linejoin:round;">
<g transform="rotate(-90.000000 24.3360 20.8087)">
<text x="24.3360" y="20.8087"
textLength="2.6222" font-size="1.6933" lengthAdjust="spacingAndGlyphs"
text-anchor="middle" opacity="0">11</text>
</g>
<g class="stroked-text"><desc>11</desc>
<path d="M24.1725 21.0505
L24.1725 21.7762
" />
<path d="M24.1725 21.4134
L22.9025 21.4134
" />
<path d="M22.9025 21.4134
L23.0840 21.5343
" />
<path d="M23.0840 21.5343
L23.2049 21.6553
" />
<path d="M23.2049 21.6553
L23.2654 21.7762
" />
<path d="M24.1725 19.8410
L24.1725 20.5667
" />
<path d="M24.1725 20.2039
L22.9025 20.2039
" />
<path d="M22.9025 20.2039
L23.0840 20.3248
" />
<path d="M23.0840 20.3248
L23.2049 20.4458
" />
<path d="M23.2049 20.4458
L23.2654 20.5667
" />
</g></g>
<g style="fill:#840000; fill-opacity:0.0; 
stroke:#840000; stroke-width:0.1524; stroke-opacity:1; 
stroke-linecap:round; stroke-linejoin:round;">
<path d="M27.1300 19.5387
L27.1300 22.0787
" />
</g>
<g style="fill:#006464; fill-opacity:0.0; 
stroke:#006464; stroke-width:0.1524; stroke-opacity:1; 
stroke-linecap:round; stroke-linejoin:round;">
<g transform="rotate(-90.000000 27.1300 19.0307)">
<text x="27.1300" y="19.6657"
textLength="4.0737" font-size="1.6933" lengthAdjust="spacingAndGlyphs"
text-anchor="start" opacity="0">GND</text>
</g>
<g class="stroked-text"><desc>GND</desc>
<path d="M26.5000 17.9628
L26.4395 18.0838
" />
<path d="M26.4395 18.0838
L26.4395 18.2652
" />
<path d="M26.4395 18.2652
L26.5000 18.4466
" />
<path d="M26.5000 18.4466
L26.6210 18.5676
" />
<path d="M26.6210 18.5676
L26.7419 18.6281
" />
<path d="M26.7419 18.6281
L26.9838 18.6885
" />
<path d="M26.9838 18.6885
L27.1652 18.6885
" />
<path d="M27.1652 18.6885
L27.4071 18.6281
" />
<path d="M27.4071 18.6281
L27.5281 18.5676
" />
<path d="M27.5281 18.5676
L27.6491 18.4466
" />
<path d="M27.6491 18.4466
L27.7095 18.2652
" />
<path d="M27.7095 18.2652
L27.7095 18.1443
" />
<path d="M27.7095 18.1443
L27.6491 17.9628
" />
<path d="M27.6491 17.9628
L27.5886 17.9024
" />
<path d="M27.5886 17.9024
L27.1652 17.9024
" />
<path d="M27.1652 17.9024
L27.1652 18.1443
" />
<path d="M27.7095 17.3581
L26.4395 17.3581
" />
<path d="M26.4395 17.3581
L27.7095 16.6324
" />
<path d="M27.7095 16.6324
L26.4395 16.6324
" />
<path d="M27.7095 16.0276
L26.4395 16.0276
" />
<path d="M26.4395 16.0276
L26.4395 15.7252
" />
<path d="M26.4395 15.7252
L26.5000 15.5438
" />
<path d="M26.5000 15.5438
L26.6210 15.4228
" />
<path d="M26.6210 15.4228
L26.7419 15.3623
" />
<path d="M26.7419 15.3623
L26.9838 15.3019
" />
<path d="M26.9838 15.3019
L27.1652 15.3019
" />
<path d="M27.1652 15.3019
L27.4071 15.3623
" />
<path d="M27.4071 15.3623
L27.5281 15.4228
" />
<path d="M27.5281 15.4228
L27.6491 15.5438
" />
<path d="M27.6491 15.5438
L27.7095 15.7252
" />
<path d="M27.7095 15.7252
L27.7095 16.0276
" />
</g></g>
<g style="fill:#A90000; fill-opacity:0.0; 
stroke:#A90000; stroke-width:0.1524; stroke-opacity:1; 
stroke-linecap:round; stroke-linejoin:round;">
<g transform="rotate(-90.000000 26.8760 20.8087)">
<text x="26.8760" y="20.8087"
textLength="2.6222" font-size="1.6933" lengthAdjust="spacingAndGlyphs"
text-anchor="middle" opacity="0">12</text>
</g>
<g class="stroked-text"><desc>12</desc>
<path d="M26.7125 21.0505
L26.7125 21.7762
" />
<path d="M26.7125 21.4134
L25.4425 21.4134
" />
<path d="M25.4425 21.4134
L25.6240 21.5343
" />
<path d="M25.6240 21.5343
L25.7449 21.6553
" />
<path d="M25.7449 21.6553
L25.8054 21.7762
" />
<path d="M25.5635 20.5667
L25.5030 20.5063
" />
<path d="M25.5030 20.5063
L25.4425 20.3853
" />
<path d="M25.4425 20.3853
L25.4425 20.0829
" />
<path d="M25.4425 20.0829
L25.5030 19.9620
" />
<path d="M25.5030 19.9620
L25.5635 19.9015
" />
<path d="M25.5635 19.9015
L25.6844 19.8410
" />
<path d="M25.6844 19.8410
L25.8054 19.8410
" />
<path d="M25.8054 19.8410
L25.9868 19.9015
" />
<path d="M25.9868 19.9015
L26.7125 20.6272
" />
<path d="M26.7125 20.6272
L26.7125 19.8410
" />
</g></g>
<g style="fill:#840000; fill-opacity:0.0; 
stroke:#840000; stroke-width:0.1524; stroke-opacity:1; 
stroke-linecap:round; stroke-linejoin:round;">
<path d="M27.1300 6.8387
L27.1300 4.2987
" />
</g>
<g style="fill:#006464; fill-opacity:0.0; 
stroke:#006464; stroke-width:0.1524; stroke-opacity:1; 
stroke-linecap:round; stroke-linejoin:round;">
<g transform="rotate(-90.000000 27.1300 7.3467)">
<text x="27.1300" y="7.9817"
textLength="4.0737" font-size="1.6933" lengthAdjust="spacingAndGlyphs"
text-anchor="end" opacity="0">+5V</text>
</g>
<g class="stroked-text"><desc>+5V</desc>
<path d="M27.2257 11.0150
L27.2257 10.0474
" />
<path d="M27.7095 10.5312
L26.7419 10.5312
" />
<path d="M26.4395 8.8378
L26.4395 9.4426
" />
<path d="M26.4395 9.4426
L27.0443 9.5030
" />
<path d="M27.0443 9.5030
L26.9838 9.4426
" />
<path d="M26.9838 9.4426
L26.9233 9.3216
" />
<path d="M26.9233 9.3216
L26.9233 9.0192
" />
<path d="M26.9233 9.0192
L26.9838 8.8983
" />
<path d="M26.9838 8.8983
L27.0443 8.8378
" />
<path d="M27.0443 8.8378
L27.1652 8.7773
" />
<path d="M27.1652 8.7773
L27.4676 8.7773
" />
<path d="M27.4676 8.7773
L27.5886 8.8378
" />
<path d="M27.5886 8.8378
L27.6491 8.8983
" />
<path d="M27.6491 8.8983
L27.7095 9.0192
" />
<path d="M27.7095 9.0192
L27.7095 9.3216
" />
<path d="M27.7095 9.3216
L27.6491 9.4426
" />
<path d="M27.6491 9.4426
L27.5886 9.5030
" />
<path d="M26.4395 8.4145
L27.7095 7.9912
" />
<path d="M27.7095 7.9912
L26.4395 7.5678
" />
</g></g>
<g style="fill:#A90000; fill-opacity:0.0; 
stroke:#A90000; stroke-width:0.1524; stroke-opacity:1; 
stroke-linecap:round; stroke-linejoin:round;">
<g transform="rotate(-90.000000 26.8760 5.5687)">
<text x="26.8760" y="5.5687"
textLength="2.6222" font-size="1.6933" lengthAdjust="spacingAndGlyphs"
text-anchor="middle" opacity="0">15</text>
</g>
<g class="stroked-text"><desc>15</desc>
<path d="M26.7125 5.8105
L26.7125 6.5362
" />
<path d="M26.7125 6.1734
L25.4425 6.1734
" />
<path d="M25.4425 6.1734
L25.6240 6.2943
" />
<path d="M25.6240 6.2943
L25.7449 6.4153
" />
<path d="M25.7449 6.4153
L25.8054 6.5362
" />
<path d="M25.4425 4.6615
L25.4425 5.2663
" />
<path d="M25.4425 5.2663
L26.0473 5.3267
" />
<path d="M26.0473 5.3267
L25.9868 5.2663
" />
<path d="M25.9868 5.2663
L25.9263 5.1453
" />
<path d="M25.9263 5.1453
L25.9263 4.8429
" />
<path d="M25.9263 4.8429
L25.9868 4.7220
" />
<path d="M25.9868 4.7220
L26.0473 4.6615
" />
<path d="M26.0473 4.6615
L26.1682 4.6010
" />
<path d="M26.1682 4.6010
L26.4706 4.6010
" />
<path d="M26.4706 4.6010
L26.5916 4.6615
" />
<path d="M26.5916 4.6615
L26.6521 4.7220
" />
<path d="M26.6521 4.7220
L26.7125 4.8429
" />
<path d="M26.7125 4.8429
L26.7125 5.1453
" />
<path d="M26.7125 5.1453
L26.6521 5.2663
" />
<path d="M26.6521 5.2663
L26.5916 5.3267
" />
</g></g>
<g style="fill:#840000; fill-opacity:0.0; 
stroke:#840000; stroke-width:0.1524; stroke-opacity:1; 
stroke-linecap:round; stroke-linejoin:round;">
<path d="M14.4300 11.9187
L11.8900 11.9187
" />
</g>
<g style="fill:#006464; fill-opacity:0.0; 
stroke:#006464; stroke-width:0.1524; stroke-opacity:1; 
stroke-linecap:round; stroke-linejoin:round;">
<text x="14.9380" y="12.5537"
textLength="4.5575" font-size="1.6933" lengthAdjust="spacingAndGlyphs"
text-anchor="start" opacity="0">Vctrl</text>
<g class="stroked-text"><desc>Vctrl</desc>
<path d="M15.1591 11.2282
L15.5824 12.4982
" />
<path d="M15.5824 12.4982
L16.0058 11.2282
" />
<path d="M16.9734 12.4378
L16.8525 12.4982
" />
<path d="M16.8525 12.4982
L16.6106 12.4982
" />
<path d="M16.6106 12.4982
L16.4896 12.4378
" />
<path d="M16.4896 12.4378
L16.4291 12.3773
" />
<path d="M16.4291 12.3773
L16.3687 12.2563
" />
<path d="M16.3687 12.2563
L16.3687 11.8935
" />
<path d="M16.3687 11.8935
L16.4291 11.7725
" />
<path d="M16.4291 11.7725
L16.4896 11.7120
" />
<path d="M16.4896 11.7120
L16.6106 11.6516
" />
<path d="M16.6106 11.6516
L16.8525 11.6516
" />
<path d="M16.8525 11.6516
L16.9734 11.7120
" />
<path d="M17.3363 11.6516
L17.8201 11.6516
" />
<path d="M17.5177 11.2282
L17.5177 12.3168
" />
<path d="M17.5177 12.3168
L17.5782 12.4378
" />
<path d="M17.5782 12.4378
L17.6992 12.4982
" />
<path d="M17.6992 12.4982
L17.8201 12.4982
" />
<path d="M18.2434 12.4982
L18.2434 11.6516
" />
<path d="M18.2434 11.8935
L18.3039 11.7725
" />
<path d="M18.3039 11.7725
L18.3644 11.7120
" />
<path d="M18.3644 11.7120
L18.4853 11.6516
" />
<path d="M18.4853 11.6516
L18.6063 11.6516
" />
<path d="M19.2111 12.4982
L19.0901 12.4378
" />
<path d="M19.0901 12.4378
L19.0296 12.3168
" />
<path d="M19.0296 12.3168
L19.0296 11.2282
" />
</g></g>
<g style="fill:#A90000; fill-opacity:0.0; 
stroke:#A90000; stroke-width:0.1524; stroke-opacity:1; 
stroke-linecap:round; stroke-linejoin:round;">
<text x="13.1600" y="11.6647"
textLength="2.6222" font-size="1.6933" lengthAdjust="spacingAndGlyphs"
text-anchor="middle" opacity="0">18</text>
<g class="stroked-text"><desc>18</desc>
<path d="M12.9181 11.5012
L12.1924 11.5012
" />
<path d="M12.5552 11.5012
L12.5552 10.2312
" />
<path d="M12.5552 10.2312
L12.4343 10.4127
" />
<path d="M12.4343 10.4127
L12.3133 10.5336
" />
<path d="M12.3133 10.5336
L12.1924 10.5941
" />
<path d="M13.6438 10.7755
L13.5228 10.7150
" />
<path d="M13.5228 10.7150
L13.4623 10.6546
" />
<path d="M13.4623 10.6546
L13.4019 10.5336
" />
<path d="M13.4019 10.5336
L13.4019 10.4731
" />
<path d="M13.4019 10.4731
L13.4623 10.3522
" />
<path d="M13.4623 10.3522
L13.5228 10.2917
" />
<path d="M13.5228 10.2917
L13.6438 10.2312
" />
<path d="M13.6438 10.2312
L13.8857 10.2312
" />
<path d="M13.8857 10.2312
L14.0066 10.2917
" />
<path d="M14.0066 10.2917
L14.0671 10.3522
" />
<path d="M14.0671 10.3522
L14.1276 10.4731
" />
<path d="M14.1276 10.4731
L14.1276 10.5336
" />
<path d="M14.1276 10.5336
L14.0671 10.6546
" />
<path d="M14.0671 10.6546
L14.0066 10.7150
" />
<path d="M14.0066 10.7150
L13.8857 10.7755
" />
<path d="M13.8857 10.7755
L13.6438 10.7755
" />
<path d="M13.6438 10.7755
L13.5228 10.8360
" />
<path d="M13.5228 10.8360
L13.4623 10.8965
" />
<path d="M13.4623 10.8965
L13.4019 11.0174
" />
<path d="M13.4019 11.0174
L13.4019 11.2593
" />
<path d="M13.4019 11.2593
L13.4623 11.3803
" />
<path d="M13.4623 11.3803
L13.5228 11.4408
" />
<path d="M13.5228 11.4408
L13.6438 11.5012
" />
<path d="M13.6438 11.5012
L13.8857 11.5012
" />
<path d="M13.8857 11.5012
L14.0066 11.4408
" />
<path d="M14.0066 11.4408
L14.0671 11.3803
" />
<path d="M14.0671 11.3803
L14.1276 11.2593
" />
<path d="M14.1276 11.2593
L14.1276 11.0174
" />
<path d="M14.1276 11.0174
L14.0671 10.8965
" />
<path d="M14.0671 10.8965
L14.0066 10.8360
" />
<path d="M14.0066 10.8360
L13.8857 10.7755
" />
</g></g>
<g style="fill:#840000; fill-opacity:0.0; 
stroke:#840000; stroke-width:0.1524; stroke-opacity:1; 
stroke-linecap:round; stroke-linejoin:round;">
<path d="M29.6700 19.5387
L29.6700 22.0787
" />
</g>
<g style="fill:#006464; fill-opacity:0.0; 
stroke:#006464; stroke-width:0.1524; stroke-opacity:1; 
stroke-linecap:round; stroke-linejoin:round;">
<g transform="rotate(-90.000000 29.6700 19.0307)">
<text x="29.6700" y="19.6657"
textLength="4.0737" font-size="1.6933" lengthAdjust="spacingAndGlyphs"
text-anchor="start" opacity="0">GND</text>
</g>
<g class="stroked-text"><desc>GND</desc>
<path d="M29.0400 17.9628
L28.9795 18.0838
" />
<path d="M28.9795 18.0838
L28.9795 18.2652
" />
<path d="M28.9795 18.2652
L29.0400 18.4466
" />
<path d="M29.0400 18.4466
L29.1610 18.5676
" />
<path d="M29.1610 18.5676
L29.2819 18.6281
" />
<path d="M29.2819 18.6281
L29.5238 18.6885
" />
<path d="M29.5238 18.6885
L29.7052 18.6885
" />
<path d="M29.7052 18.6885
L29.9471 18.6281
" />
<path d="M29.9471 18.6281
L30.0681 18.5676
" />
<path d="M30.0681 18.5676
L30.1891 18.4466
" />
<path d="M30.1891 18.4466
L30.2495 18.2652
" />
<path d="M30.2495 18.2652
L30.2495 18.1443
" />
<path d="M30.2495 18.1443
L30.1891 17.9628
" />
<path d="M30.1891 17.9628
L30.1286 17.9024
" />
<path d="M30.1286 17.9024
L29.7052 17.9024
" />
<path d="M29.7052 17.9024
L29.7052 18.1443
" />
<path d="M30.2495 17.3581
L28.9795 17.3581
" />
<path d="M28.9795 17.3581
L30.2495 16.6324
" />
<path d="M30.2495 16.6324
L28.9795 16.6324
" />
<path d="M30.2495 16.0276
L28.9795 16.0276
" />
<path d="M28.9795 16.0276
L28.9795 15.7252
" />
<path d="M28.9795 15.7252
L29.0400 15.5438
" />
<path d="M29.0400 15.5438
L29.1610 15.4228
" />
<path d="M29.1610 15.4228
L29.2819 15.3623
" />
<path d="M29.2819 15.3623
L29.5238 15.3019
" />
<path d="M29.5238 15.3019
L29.7052 15.3019
" />
<path d="M29.7052 15.3019
L29.9471 15.3623
" />
<path d="M29.9471 15.3623
L30.0681 15.4228
" />
<path d="M30.0681 15.4228
L30.1891 15.5438
" />
<path d="M30.1891 15.5438
L30.2495 15.7252
" />
<path d="M30.2495 15.7252
L30.2495 16.0276
" />
</g></g>
<g style="fill:#A90000; fill-opacity:0.0; 
stroke:#A90000; stroke-width:0.1524; stroke-opacity:1; 
stroke-linecap:round; stroke-linejoin:round;">
<g transform="rotate(-90.000000 29.4160 20.8087)">
<text x="29.4160" y="20.8087"
textLength="2.6222" font-size="1.6933" lengthAdjust="spacingAndGlyphs"
text-anchor="middle" opacity="0">23</text>
</g>
<g class="stroked-text"><desc>23</desc>
<path d="M28.1035 21.7762
L28.0430 21.7158
" />
<path d="M28.0430 21.7158
L27.9825 21.5948
" />
<path d="M27.9825 21.5948
L27.9825 21.2924
" />
<path d="M27.9825 21.2924
L28.0430 21.1715
" />
<path d="M28.0430 21.1715
L28.1035 21.1110
" />
<path d="M28.1035 21.1110
L28.2244 21.0505
" />
<path d="M28.2244 21.0505
L28.3454 21.0505
" />
<path d="M28.3454 21.0505
L28.5268 21.1110
" />
<path d="M28.5268 21.1110
L29.2525 21.8367
" />
<path d="M29.2525 21.8367
L29.2525 21.0505
" />
<path d="M27.9825 20.6272
L27.9825 19.8410
" />
<path d="M27.9825 19.8410
L28.4663 20.2644
" />
<path d="M28.4663 20.2644
L28.4663 20.0829
" />
<path d="M28.4663 20.0829
L28.5268 19.9620
" />
<path d="M28.5268 19.9620
L28.5873 19.9015
" />
<path d="M28.5873 19.9015
L28.7082 19.8410
" />
<path d="M28.7082 19.8410
L29.0106 19.8410
" />
<path d="M29.0106 19.8410
L29.1316 19.9015
" />
<path d="M29.1316 19.9015
L29.1921 19.9620
" />
<path d="M29.1921 19.9620
L29.2525 20.0829
" />
<path d="M29.2525 20.0829
L29.2525 20.4458
" />
<path d="M29.2525 20.4458
L29.1921 20.5667
" />
<path d="M29.1921 20.5667
L29.1316 20.6272
" />
</g></g>
<g style="fill:#840000; fill-opacity:0.0; 
stroke:#840000; stroke-width:0.1524; stroke-opacity:1; 
stroke-linecap:round; stroke-linejoin:round;">
<path d="M22.0500 6.8387
L22.0500 4.2987
" />
</g>
<g style="fill:#006464; fill-opacity:0.0; 
stroke:#006464; stroke-width:0.1524; stroke-opacity:1; 
stroke-linecap:round; stroke-linejoin:round;">
<g transform="rotate(-90.000000 22.0500 7.3467)">
<text x="22.0500" y="7.9817"
textLength="4.6180" font-size="1.6933" lengthAdjust="spacingAndGlyphs"
text-anchor="end" opacity="0">URef</text>
</g>
<g class="stroked-text"><desc>URef</desc>
<path d="M21.3595 11.5593
L22.3876 11.5593
" />
<path d="M22.3876 11.5593
L22.5086 11.4988
" />
<path d="M22.5086 11.4988
L22.5691 11.4383
" />
<path d="M22.5691 11.4383
L22.6295 11.3174
" />
<path d="M22.6295 11.3174
L22.6295 11.0755
" />
<path d="M22.6295 11.0755
L22.5691 10.9545
" />
<path d="M22.5691 10.9545
L22.5086 10.8940
" />
<path d="M22.5086 10.8940
L22.3876 10.8336
" />
<path d="M22.3876 10.8336
L21.3595 10.8336
" />
<path d="M22.6295 9.5031
L22.0248 9.9264
" />
<path d="M22.6295 10.2288
L21.3595 10.2288
" />
<path d="M21.3595 10.2288
L21.3595 9.7450
" />
<path d="M21.3595 9.7450
L21.4200 9.6240
" />
<path d="M21.4200 9.6240
L21.4805 9.5635
" />
<path d="M21.4805 9.5635
L21.6014 9.5031
" />
<path d="M21.6014 9.5031
L21.7829 9.5031
" />
<path d="M21.7829 9.5031
L21.9038 9.5635
" />
<path d="M21.9038 9.5635
L21.9643 9.6240
" />
<path d="M21.9643 9.6240
L22.0248 9.7450
" />
<path d="M22.0248 9.7450
L22.0248 10.2288
" />
<path d="M22.5691 8.4750
L22.6295 8.5959
" />
<path d="M22.6295 8.5959
L22.6295 8.8378
" />
<path d="M22.6295 8.8378
L22.5691 8.9588
" />
<path d="M22.5691 8.9588
L22.4481 9.0192
" />
<path d="M22.4481 9.0192
L21.9643 9.0192
" />
<path d="M21.9643 9.0192
L21.8433 8.9588
" />
<path d="M21.8433 8.9588
L21.7829 8.8378
" />
<path d="M21.7829 8.8378
L21.7829 8.5959
" />
<path d="M21.7829 8.5959
L21.8433 8.4750
" />
<path d="M21.8433 8.4750
L21.9643 8.4145
" />
<path d="M21.9643 8.4145
L22.0852 8.4145
" />
<path d="M22.0852 8.4145
L22.2062 9.0192
" />
<path d="M21.7829 8.0516
L21.7829 7.5678
" />
<path d="M22.6295 7.8702
L21.5410 7.8702
" />
<path d="M21.5410 7.8702
L21.4200 7.8097
" />
<path d="M21.4200 7.8097
L21.3595 7.6887
" />
<path d="M21.3595 7.6887
L21.3595 7.5678
" />
</g></g>
<g style="fill:#A90000; fill-opacity:0.0; 
stroke:#A90000; stroke-width:0.1524; stroke-opacity:1; 
stroke-linecap:round; stroke-linejoin:round;">
<g transform="rotate(-90.000000 21.7960 5.5687)">
<text x="21.7960" y="5.5687"
textLength="1.4127" font-size="1.6933" lengthAdjust="spacingAndGlyphs"
text-anchor="middle" opacity="0">3</text>
</g>
<g class="stroked-text"><desc>3</desc>
<path d="M20.3625 5.9919
L20.3625 5.2057
" />
<path d="M20.3625 5.2057
L20.8463 5.6291
" />
<path d="M20.8463 5.6291
L20.8463 5.4476
" />
<path d="M20.8463 5.4476
L20.9068 5.3267
" />
<path d="M20.9068 5.3267
L20.9673 5.2662
" />
<path d="M20.9673 5.2662
L21.0882 5.2057
" />
<path d="M21.0882 5.2057
L21.3906 5.2057
" />
<path d="M21.3906 5.2057
L21.5116 5.2662
" />
<path d="M21.5116 5.2662
L21.5721 5.3267
" />
<path d="M21.5721 5.3267
L21.6325 5.4476
" />
<path d="M21.6325 5.4476
L21.6325 5.8105
" />
<path d="M21.6325 5.8105
L21.5721 5.9314
" />
<path d="M21.5721 5.9314
L21.5116 5.9919
" />
</g></g>
<g style="fill:#840084; fill-opacity:0.0; 
stroke:#840084; stroke-width:0.1524; stroke-opacity:1; 
stroke-linecap:round; stroke-linejoin:round;">
</g>
<g style="fill:#006464; fill-opacity:0.0; 
stroke:#006464; stroke-width:0.1524; stroke-opacity:1; 
stroke-linecap:round; stroke-linejoin:round;">
</g>
<g style="fill:#006464; fill-opacity:0.0; 
stroke:#006464; stroke-width:0.1588; stroke-opacity:1; 
stroke-linecap:round; stroke-linejoin:round;">
<text x="36.6452" y="3.6637"
textLength="2.5205" font-size="1.6933" lengthAdjust="spacingAndGlyphs"
text-anchor="middle" opacity="0">X?</text>
<g class="stroked-text"><desc>X?</desc>
<path d="M35.6776 2.3379
L36.5242 3.6079
" />
<path d="M36.5242 2.3379
L35.6776 3.6079
" />
<path d="M37.1895 3.4870
L37.2499 3.5475
" />
<path d="M37.2499 3.5475
L37.1895 3.6079
" />
<path d="M37.1895 3.6079
L37.1290 3.5475
" />
<path d="M37.1290 3.5475
L37.1895 3.4870
" />
<path d="M37.1895 3.4870
L37.1895 3.6079
" />
<path d="M36.9476 2.3984
L37.0685 2.3379
" />
<path d="M37.0685 2.3379
L37.3709 2.3379
" />
<path d="M37.3709 2.3379
L37.4918 2.3984
" />
<path d="M37.4918 2.3984
L37.5523 2.5194
" />
<path d="M37.5523 2.5194
L37.5523 2.6403
" />
<path d="M37.5523 2.6403
L37.4918 2.7613
" />
<path d="M37.4918 2.7613
L37.4314 2.8217
" />
<path d="M37.4314 2.8217
L37.3104 2.8822
" />
<path d="M37.3104 2.8822
L37.2499 2.9427
" />
<path d="M37.2499 2.9427
L37.1895 3.0636
" />
<path d="M37.1895 3.0636
L37.1895 3.1241
" />
</g><text x="38.4897" y="6.2037"
textLength="6.2095" font-size="1.6933" lengthAdjust="spacingAndGlyphs"
text-anchor="middle" opacity="0">TCXO3</text>
<g class="stroked-text"><desc>TCXO3</desc>
<path d="M35.6171 4.8779
L36.3428 4.8779
" />
<path d="M35.9800 6.1479
L35.9800 4.8779
" />
<path d="M37.4918 6.0270
L37.4314 6.0875
" />
<path d="M37.4314 6.0875
L37.2499 6.1479
" />
<path d="M37.2499 6.1479
L37.1290 6.1479
" />
<path d="M37.1290 6.1479
L36.9476 6.0875
" />
<path d="M36.9476 6.0875
L36.8266 5.9665
" />
<path d="M36.8266 5.9665
L36.7661 5.8455
" />
<path d="M36.7661 5.8455
L36.7057 5.6036
" />
<path d="M36.7057 5.6036
L36.7057 5.4222
" />
<path d="M36.7057 5.4222
L36.7661 5.1803
" />
<path d="M36.7661 5.1803
L36.8266 5.0594
" />
<path d="M36.8266 5.0594
L36.9476 4.9384
" />
<path d="M36.9476 4.9384
L37.1290 4.8779
" />
<path d="M37.1290 4.8779
L37.2499 4.8779
" />
<path d="M37.2499 4.8779
L37.4314 4.9384
" />
<path d="M37.4314 4.9384
L37.4918 4.9989
" />
<path d="M37.9152 4.8779
L38.7618 6.1479
" />
<path d="M38.7618 4.8779
L37.9152 6.1479
" />
<path d="M39.4875 4.8779
L39.7294 4.8779
" />
<path d="M39.7294 4.8779
L39.8504 4.9384
" />
<path d="M39.8504 4.9384
L39.9713 5.0594
" />
<path d="M39.9713 5.0594
L40.0318 5.3013
" />
<path d="M40.0318 5.3013
L40.0318 5.7246
" />
<path d="M40.0318 5.7246
L39.9713 5.9665
" />
<path d="M39.9713 5.9665
L39.8504 6.0875
" />
<path d="M39.8504 6.0875
L39.7294 6.1479
" />
<path d="M39.7294 6.1479
L39.4875 6.1479
" />
<path d="M39.4875 6.1479
L39.3666 6.0875
" />
<path d="M39.3666 6.0875
L39.2456 5.9665
" />
<path d="M39.2456 5.9665
L39.1852 5.7246
" />
<path d="M39.1852 5.7246
L39.1852 5.3013
" />
<path d="M39.1852 5.3013
L39.2456 5.0594
" />
<path d="M39.2456 5.0594
L39.3666 4.9384
" />
<path d="M39.3666 4.9384
L39.4875 4.8779
" />
<path d="M40.4552 4.8779
L41.2414 4.8779
" />
<path d="M41.2414 4.8779
L40.8180 5.3617
" />
<path d="M40.8180 5.3617
L40.9995 5.3617
" />
<path d="M40.9995 5.3617
L41.1204 5.4222
" />
<path d="M41.1204 5.4222
L41.1809 5.4827
" />
<path d="M41.1809 5.4827
L41.2414 5.6036
" />
<path d="M41.2414 5.6036
L41.2414 5.9060
" />
<path d="M41.2414 5.9060
L41.1809 6.0270
" />
<path d="M41.1809 6.0270
L41.1204 6.0875
" />
<path d="M41.1204 6.0875
L40.9995 6.1479
" />
<path d="M40.9995 6.1479
L40.6366 6.1479
" />
<path d="M40.6366 6.1479
L40.5157 6.0875
" />
<path d="M40.5157 6.0875
L40.4552 6.0270
" />
</g></g>
<g style="fill:#840084; fill-opacity:0.0; 
stroke:#840084; stroke-width:0.1588; stroke-opacity:1; 
stroke-linecap:round; stroke-linejoin:round;">
<text x="27.1300" y="15.0937"
textLength="45.2168" font-size="1.6933" lengthAdjust="spacingAndGlyphs"
text-anchor="middle" opacity="0">http://www.hcelectronics.cz/PDF/TCXO3_A.pdf</text>
<g class="stroked-text"><desc>http://www.hcelectronics.cz/PDF/TCXO3_A.pdf</desc>
<path d="M4.9351 15.0379
L4.9351 13.7679
" />
<path d="M5.4794 15.0379
L5.4794 14.3727
" />
<path d="M5.4794 14.3727
L5.4189 14.2517
" />
<path d="M5.4189 14.2517
L5.2980 14.1913
" />
<path d="M5.2980 14.1913
L5.1166 14.1913
" />
<path d="M5.1166 14.1913
L4.9956 14.2517
" />
<path d="M4.9956 14.2517
L4.9351 14.3122
" />
<path d="M5.9027 14.1913
L6.3865 14.1913
" />
<path d="M6.0841 13.7679
L6.0841 14.8565
" />
<path d="M6.0841 14.8565
L6.1446 14.9775
" />
<path d="M6.1446 14.9775
L6.2656 15.0379
" />
<path d="M6.2656 15.0379
L6.3865 15.0379
" />
<path d="M6.6284 14.1913
L7.1122 14.1913
" />
<path d="M6.8098 13.7679
L6.8098 14.8565
" />
<path d="M6.8098 14.8565
L6.8703 14.9775
" />
<path d="M6.8703 14.9775
L6.9913 15.0379
" />
<path d="M6.9913 15.0379
L7.1122 15.0379
" />
<path d="M7.5355 14.1913
L7.5355 15.4613
" />
<path d="M7.5355 14.2517
L7.6565 14.1913
" />
<path d="M7.6565 14.1913
L7.8984 14.1913
" />
<path d="M7.8984 14.1913
L8.0193 14.2517
" />
<path d="M8.0193 14.2517
L8.0798 14.3122
" />
<path d="M8.0798 14.3122
L8.1403 14.4332
" />
<path d="M8.1403 14.4332
L8.1403 14.7960
" />
<path d="M8.1403 14.7960
L8.0798 14.9170
" />
<path d="M8.0798 14.9170
L8.0193 14.9775
" />
<path d="M8.0193 14.9775
L7.8984 15.0379
" />
<path d="M7.8984 15.0379
L7.6565 15.0379
" />
<path d="M7.6565 15.0379
L7.5355 14.9775
" />
<path d="M8.6845 14.9170
L8.7450 14.9775
" />
<path d="M8.7450 14.9775
L8.6845 15.0379
" />
<path d="M8.6845 15.0379
L8.6241 14.9775
" />
<path d="M8.6241 14.9775
L8.6845 14.9170
" />
<path d="M8.6845 14.9170
L8.6845 15.0379
" />
<path d="M8.6845 14.2517
L8.7450 14.3122
" />
<path d="M8.7450 14.3122
L8.6845 14.3727
" />
<path d="M8.6845 14.3727
L8.6241 14.3122
" />
<path d="M8.6241 14.3122
L8.6845 14.2517
" />
<path d="M8.6845 14.2517
L8.6845 14.3727
" />
<path d="M10.1965 13.7075
L9.1079 15.3403
" />
<path d="M11.5270 13.7075
L10.4384 15.3403
" />
<path d="M11.8294 14.1913
L12.0713 15.0379
" />
<path d="M12.0713 15.0379
L12.3132 14.4332
" />
<path d="M12.3132 14.4332
L12.5551 15.0379
" />
<path d="M12.5551 15.0379
L12.7970 14.1913
" />
<path d="M13.1599 14.1913
L13.4018 15.0379
" />
<path d="M13.4018 15.0379
L13.6437 14.4332
" />
<path d="M13.6437 14.4332
L13.8856 15.0379
" />
<path d="M13.8856 15.0379
L14.1275 14.1913
" />
<path d="M14.4904 14.1913
L14.7323 15.0379
" />
<path d="M14.7323 15.0379
L14.9742 14.4332
" />
<path d="M14.9742 14.4332
L15.2161 15.0379
" />
<path d="M15.2161 15.0379
L15.4580 14.1913
" />
<path d="M15.9418 14.9170
L16.0023 14.9775
" />
<path d="M16.0023 14.9775
L15.9418 15.0379
" />
<path d="M15.9418 15.0379
L15.8814 14.9775
" />
<path d="M15.8814 14.9775
L15.9418 14.9170
" />
<path d="M15.9418 14.9170
L15.9418 15.0379
" />
<path d="M16.5466 15.0379
L16.5466 13.7679
" />
<path d="M17.0909 15.0379
L17.0909 14.3727
" />
<path d="M17.0909 14.3727
L17.0304 14.2517
" />
<path d="M17.0304 14.2517
L16.9095 14.1913
" />
<path d="M16.9095 14.1913
L16.7281 14.1913
" />
<path d="M16.7281 14.1913
L16.6071 14.2517
" />
<path d="M16.6071 14.2517
L16.5466 14.3122
" />
<path d="M18.2399 14.9775
L18.1190 15.0379
" />
<path d="M18.1190 15.0379
L17.8771 15.0379
" />
<path d="M17.8771 15.0379
L17.7561 14.9775
" />
<path d="M17.7561 14.9775
L17.6956 14.9170
" />
<path d="M17.6956 14.9170
L17.6352 14.7960
" />
<path d="M17.6352 14.7960
L17.6352 14.4332
" />
<path d="M17.6352 14.4332
L17.6956 14.3122
" />
<path d="M17.6956 14.3122
L17.7561 14.2517
" />
<path d="M17.7561 14.2517
L17.8771 14.1913
" />
<path d="M17.8771 14.1913
L18.1190 14.1913
" />
<path d="M18.1190 14.1913
L18.2399 14.2517
" />
<path d="M19.2680 14.9775
L19.1471 15.0379
" />
<path d="M19.1471 15.0379
L18.9052 15.0379
" />
<path d="M18.9052 15.0379
L18.7842 14.9775
" />
<path d="M18.7842 14.9775
L18.7238 14.8565
" />
<path d="M18.7238 14.8565
L18.7238 14.3727
" />
<path d="M18.7238 14.3727
L18.7842 14.2517
" />
<path d="M18.7842 14.2517
L18.9052 14.1913
" />
<path d="M18.9052 14.1913
L19.1471 14.1913
" />
<path d="M19.1471 14.1913
L19.2680 14.2517
" />
<path d="M19.2680 14.2517
L19.3285 14.3727
" />
<path d="M19.3285 14.3727
L19.3285 14.4936
" />
<path d="M19.3285 14.4936
L18.7238 14.6146
" />
<path d="M20.0543 15.0379
L19.9333 14.9775
" />
<path d="M19.9333 14.9775
L19.8728 14.8565
" />
<path d="M19.8728 14.8565
L19.8728 13.7679
" />
<path d="M21.0218 14.9775
L20.9009 15.0379
" />
<path d="M20.9009 15.0379
L20.6590 15.0379
" />
<path d="M20.6590 15.0379
L20.5380 14.9775
" />
<path d="M20.5380 14.9775
L20.4776 14.8565
" />
<path d="M20.4776 14.8565
L20.4776 14.3727
" />
<path d="M20.4776 14.3727
L20.5380 14.2517
" />
<path d="M20.5380 14.2517
L20.6590 14.1913
" />
<path d="M20.6590 14.1913
L20.9009 14.1913
" />
<path d="M20.9009 14.1913
L21.0218 14.2517
" />
<path d="M21.0218 14.2517
L21.0823 14.3727
" />
<path d="M21.0823 14.3727
L21.0823 14.4936
" />
<path d="M21.0823 14.4936
L20.4776 14.6146
" />
<path d="M22.1709 14.9775
L22.0500 15.0379
" />
<path d="M22.0500 15.0379
L21.8081 15.0379
" />
<path d="M21.8081 15.0379
L21.6871 14.9775
" />
<path d="M21.6871 14.9775
L21.6266 14.9170
" />
<path d="M21.6266 14.9170
L21.5662 14.7960
" />
<path d="M21.5662 14.7960
L21.5662 14.4332
" />
<path d="M21.5662 14.4332
L21.6266 14.3122
" />
<path d="M21.6266 14.3122
L21.6871 14.2517
" />
<path d="M21.6871 14.2517
L21.8081 14.1913
" />
<path d="M21.8081 14.1913
L22.0500 14.1913
" />
<path d="M22.0500 14.1913
L22.1709 14.2517
" />
<path d="M22.5338 14.1913
L23.0176 14.1913
" />
<path d="M22.7152 13.7679
L22.7152 14.8565
" />
<path d="M22.7152 14.8565
L22.7757 14.9775
" />
<path d="M22.7757 14.9775
L22.8967 15.0379
" />
<path d="M22.8967 15.0379
L23.0176 15.0379
" />
<path d="M23.4409 15.0379
L23.4409 14.1913
" />
<path d="M23.4409 14.4332
L23.5014 14.3122
" />
<path d="M23.5014 14.3122
L23.5619 14.2517
" />
<path d="M23.5619 14.2517
L23.6828 14.1913
" />
<path d="M23.6828 14.1913
L23.8038 14.1913
" />
<path d="M24.4086 15.0379
L24.2876 14.9775
" />
<path d="M24.2876 14.9775
L24.2271 14.9170
" />
<path d="M24.2271 14.9170
L24.1667 14.7960
" />
<path d="M24.1667 14.7960
L24.1667 14.4332
" />
<path d="M24.1667 14.4332
L24.2271 14.3122
" />
<path d="M24.2271 14.3122
L24.2876 14.2517
" />
<path d="M24.2876 14.2517
L24.4086 14.1913
" />
<path d="M24.4086 14.1913
L24.5900 14.1913
" />
<path d="M24.5900 14.1913
L24.7109 14.2517
" />
<path d="M24.7109 14.2517
L24.7714 14.3122
" />
<path d="M24.7714 14.3122
L24.8319 14.4332
" />
<path d="M24.8319 14.4332
L24.8319 14.7960
" />
<path d="M24.8319 14.7960
L24.7714 14.9170
" />
<path d="M24.7714 14.9170
L24.7109 14.9775
" />
<path d="M24.7109 14.9775
L24.5900 15.0379
" />
<path d="M24.5900 15.0379
L24.4086 15.0379
" />
<path d="M25.3761 14.1913
L25.3761 15.0379
" />
<path d="M25.3761 14.3122
L25.4366 14.2517
" />
<path d="M25.4366 14.2517
L25.5576 14.1913
" />
<path d="M25.5576 14.1913
L25.7390 14.1913
" />
<path d="M25.7390 14.1913
L25.8599 14.2517
" />
<path d="M25.8599 14.2517
L25.9204 14.3727
" />
<path d="M25.9204 14.3727
L25.9204 15.0379
" />
<path d="M26.5251 15.0379
L26.5251 14.1913
" />
<path d="M26.5251 13.7679
L26.4647 13.8284
" />
<path d="M26.4647 13.8284
L26.5251 13.8889
" />
<path d="M26.5251 13.8889
L26.5856 13.8284
" />
<path d="M26.5856 13.8284
L26.5251 13.7679
" />
<path d="M26.5251 13.7679
L26.5251 13.8889
" />
<path d="M27.6742 14.9775
L27.5533 15.0379
" />
<path d="M27.5533 15.0379
L27.3114 15.0379
" />
<path d="M27.3114 15.0379
L27.1904 14.9775
" />
<path d="M27.1904 14.9775
L27.1299 14.9170
" />
<path d="M27.1299 14.9170
L27.0695 14.7960
" />
<path d="M27.0695 14.7960
L27.0695 14.4332
" />
<path d="M27.0695 14.4332
L27.1299 14.3122
" />
<path d="M27.1299 14.3122
L27.1904 14.2517
" />
<path d="M27.1904 14.2517
L27.3114 14.1913
" />
<path d="M27.3114 14.1913
L27.5533 14.1913
" />
<path d="M27.5533 14.1913
L27.6742 14.2517
" />
<path d="M28.1581 14.9775
L28.2790 15.0379
" />
<path d="M28.2790 15.0379
L28.5209 15.0379
" />
<path d="M28.5209 15.0379
L28.6419 14.9775
" />
<path d="M28.6419 14.9775
L28.7023 14.8565
" />
<path d="M28.7023 14.8565
L28.7023 14.7960
" />
<path d="M28.7023 14.7960
L28.6419 14.6751
" />
<path d="M28.6419 14.6751
L28.5209 14.6146
" />
<path d="M28.5209 14.6146
L28.3395 14.6146
" />
<path d="M28.3395 14.6146
L28.2185 14.5541
" />
<path d="M28.2185 14.5541
L28.1581 14.4332
" />
<path d="M28.1581 14.4332
L28.1581 14.3727
" />
<path d="M28.1581 14.3727
L28.2185 14.2517
" />
<path d="M28.2185 14.2517
L28.3395 14.1913
" />
<path d="M28.3395 14.1913
L28.5209 14.1913
" />
<path d="M28.5209 14.1913
L28.6419 14.2517
" />
<path d="M29.2466 14.9170
L29.3071 14.9775
" />
<path d="M29.3071 14.9775
L29.2466 15.0379
" />
<path d="M29.2466 15.0379
L29.1862 14.9775
" />
<path d="M29.1862 14.9775
L29.2466 14.9170
" />
<path d="M29.2466 14.9170
L29.2466 15.0379
" />
<path d="M30.3957 14.9775
L30.2748 15.0379
" />
<path d="M30.2748 15.0379
L30.0329 15.0379
" />
<path d="M30.0329 15.0379
L29.9119 14.9775
" />
<path d="M29.9119 14.9775
L29.8514 14.9170
" />
<path d="M29.8514 14.9170
L29.7910 14.7960
" />
<path d="M29.7910 14.7960
L29.7910 14.4332
" />
<path d="M29.7910 14.4332
L29.8514 14.3122
" />
<path d="M29.8514 14.3122
L29.9119 14.2517
" />
<path d="M29.9119 14.2517
L30.0329 14.1913
" />
<path d="M30.0329 14.1913
L30.2748 14.1913
" />
<path d="M30.2748 14.1913
L30.3957 14.2517
" />
<path d="M30.8191 14.1913
L31.4843 14.1913
" />
<path d="M31.4843 14.1913
L30.8191 15.0379
" />
<path d="M30.8191 15.0379
L31.4843 15.0379
" />
<path d="M32.8753 13.7075
L31.7867 15.3403
" />
<path d="M33.2986 15.0379
L33.2986 13.7679
" />
<path d="M33.2986 13.7679
L33.7824 13.7679
" />
<path d="M33.7824 13.7679
L33.9034 13.8284
" />
<path d="M33.9034 13.8284
L33.9639 13.8889
" />
<path d="M33.9639 13.8889
L34.0243 14.0098
" />
<path d="M34.0243 14.0098
L34.0243 14.1913
" />
<path d="M34.0243 14.1913
L33.9639 14.3122
" />
<path d="M33.9639 14.3122
L33.9034 14.3727
" />
<path d="M33.9034 14.3727
L33.7824 14.4332
" />
<path d="M33.7824 14.4332
L33.2986 14.4332
" />
<path d="M34.5686 15.0379
L34.5686 13.7679
" />
<path d="M34.5686 13.7679
L34.8710 13.7679
" />
<path d="M34.8710 13.7679
L35.0524 13.8284
" />
<path d="M35.0524 13.8284
L35.1734 13.9494
" />
<path d="M35.1734 13.9494
L35.2339 14.0703
" />
<path d="M35.2339 14.0703
L35.2943 14.3122
" />
<path d="M35.2943 14.3122
L35.2943 14.4936
" />
<path d="M35.2943 14.4936
L35.2339 14.7355
" />
<path d="M35.2339 14.7355
L35.1734 14.8565
" />
<path d="M35.1734 14.8565
L35.0524 14.9775
" />
<path d="M35.0524 14.9775
L34.8710 15.0379
" />
<path d="M34.8710 15.0379
L34.5686 15.0379
" />
<path d="M36.2620 14.3727
L35.8386 14.3727
" />
<path d="M35.8386 15.0379
L35.8386 13.7679
" />
<path d="M35.8386 13.7679
L36.4434 13.7679
" />
<path d="M37.8344 13.7075
L36.7458 15.3403
" />
<path d="M38.0763 13.7679
L38.8020 13.7679
" />
<path d="M38.4392 15.0379
L38.4392 13.7679
" />
<path d="M39.9510 14.9170
L39.8906 14.9775
" />
<path d="M39.8906 14.9775
L39.7091 15.0379
" />
<path d="M39.7091 15.0379
L39.5882 15.0379
" />
<path d="M39.5882 15.0379
L39.4068 14.9775
" />
<path d="M39.4068 14.9775
L39.2858 14.8565
" />
<path d="M39.2858 14.8565
L39.2253 14.7355
" />
<path d="M39.2253 14.7355
L39.1649 14.4936
" />
<path d="M39.1649 14.4936
L39.1649 14.3122
" />
<path d="M39.1649 14.3122
L39.2253 14.0703
" />
<path d="M39.2253 14.0703
L39.2858 13.9494
" />
<path d="M39.2858 13.9494
L39.4068 13.8284
" />
<path d="M39.4068 13.8284
L39.5882 13.7679
" />
<path d="M39.5882 13.7679
L39.7091 13.7679
" />
<path d="M39.7091 13.7679
L39.8906 13.8284
" />
<path d="M39.8906 13.8284
L39.9510 13.8889
" />
<path d="M40.3744 13.7679
L41.2210 15.0379
" />
<path d="M41.2210 13.7679
L40.3744 15.0379
" />
<path d="M41.9467 13.7679
L42.1886 13.7679
" />
<path d="M42.1886 13.7679
L42.3096 13.8284
" />
<path d="M42.3096 13.8284
L42.4305 13.9494
" />
<path d="M42.4305 13.9494
L42.4910 14.1913
" />
<path d="M42.4910 14.1913
L42.4910 14.6146
" />
<path d="M42.4910 14.6146
L42.4305 14.8565
" />
<path d="M42.4305 14.8565
L42.3096 14.9775
" />
<path d="M42.3096 14.9775
L42.1886 15.0379
" />
<path d="M42.1886 15.0379
L41.9467 15.0379
" />
<path d="M41.9467 15.0379
L41.8258 14.9775
" />
<path d="M41.8258 14.9775
L41.7048 14.8565
" />
<path d="M41.7048 14.8565
L41.6444 14.6146
" />
<path d="M41.6444 14.6146
L41.6444 14.1913
" />
<path d="M41.6444 14.1913
L41.7048 13.9494
" />
<path d="M41.7048 13.9494
L41.8258 13.8284
" />
<path d="M41.8258 13.8284
L41.9467 13.7679
" />
<path d="M42.9144 13.7679
L43.7006 13.7679
" />
<path d="M43.7006 13.7679
L43.2772 14.2517
" />
<path d="M43.2772 14.2517
L43.4587 14.2517
" />
<path d="M43.4587 14.2517
L43.5796 14.3122
" />
<path d="M43.5796 14.3122
L43.6401 14.3727
" />
<path d="M43.6401 14.3727
L43.7006 14.4936
" />
<path d="M43.7006 14.4936
L43.7006 14.7960
" />
<path d="M43.7006 14.7960
L43.6401 14.9170
" />
<path d="M43.6401 14.9170
L43.5796 14.9775
" />
<path d="M43.5796 14.9775
L43.4587 15.0379
" />
<path d="M43.4587 15.0379
L43.0958 15.0379
" />
<path d="M43.0958 15.0379
L42.9749 14.9775
" />
<path d="M42.9749 14.9775
L42.9144 14.9170
" />
<path d="M43.9425 15.1589
L44.9101 15.1589
" />
<path d="M45.1520 14.6751
L45.7567 14.6751
" />
<path d="M45.0310 15.0379
L45.4543 13.7679
" />
<path d="M45.4543 13.7679
L45.8777 15.0379
" />
<path d="M46.3010 14.9170
L46.3615 14.9775
" />
<path d="M46.3615 14.9775
L46.3010 15.0379
" />
<path d="M46.3010 15.0379
L46.2406 14.9775
" />
<path d="M46.2406 14.9775
L46.3010 14.9170
" />
<path d="M46.3010 14.9170
L46.3010 15.0379
" />
<path d="M46.9058 14.1913
L46.9058 15.4613
" />
<path d="M46.9058 14.2517
L47.0268 14.1913
" />
<path d="M47.0268 14.1913
L47.2687 14.1913
" />
<path d="M47.2687 14.1913
L47.3896 14.2517
" />
<path d="M47.3896 14.2517
L47.4501 14.3122
" />
<path d="M47.4501 14.3122
L47.5106 14.4332
" />
<path d="M47.5106 14.4332
L47.5106 14.7960
" />
<path d="M47.5106 14.7960
L47.4501 14.9170
" />
<path d="M47.4501 14.9170
L47.3896 14.9775
" />
<path d="M47.3896 14.9775
L47.2687 15.0379
" />
<path d="M47.2687 15.0379
L47.0268 15.0379
" />
<path d="M47.0268 15.0379
L46.9058 14.9775
" />
<path d="M48.5991 15.0379
L48.5991 13.7679
" />
<path d="M48.5991 14.9775
L48.4782 15.0379
" />
<path d="M48.4782 15.0379
L48.2363 15.0379
" />
<path d="M48.2363 15.0379
L48.1153 14.9775
" />
<path d="M48.1153 14.9775
L48.0548 14.9170
" />
<path d="M48.0548 14.9170
L47.9944 14.7960
" />
<path d="M47.9944 14.7960
L47.9944 14.4332
" />
<path d="M47.9944 14.4332
L48.0548 14.3122
" />
<path d="M48.0548 14.3122
L48.1153 14.2517
" />
<path d="M48.1153 14.2517
L48.2363 14.1913
" />
<path d="M48.2363 14.1913
L48.4782 14.1913
" />
<path d="M48.4782 14.1913
L48.5991 14.2517
" />
<path d="M49.0224 14.1913
L49.5062 14.1913
" />
<path d="M49.2038 15.0379
L49.2038 13.9494
" />
<path d="M49.2038 13.9494
L49.2643 13.8284
" />
<path d="M49.2643 13.8284
L49.3853 13.7679
" />
<path d="M49.3853 13.7679
L49.5062 13.7679
" />
</g></g> 
</svg>
