<?xml version="1.0" standalone="no"?>
 <!DOCTYPE svg PUBLIC "-//W3C//DTD SVG 1.1//EN" 
 "http://www.w3.org/Graphics/SVG/1.1/DTD/svg11.dtd"> 
<svg
  xmlns:svg="http://www.w3.org/2000/svg"
  xmlns="http://www.w3.org/2000/svg"
  xmlns:xlink="http://www.w3.org/1999/xlink"
  version="1.1"
  width="103.2256mm" height="23.3426mm" viewBox="0.0000 0.0000 103.2256 23.3426">
<title>SVG Image created as working.svg date 2023/08/01 10:58:35 </title>
  <desc>Image generated by Eeschema-SVG </desc>
<g style="fill:#000000; fill-opacity:1.0000;stroke:#000000; stroke-opacity:1.0000;
stroke-linecap:round; stroke-linejoin:round;"
 transform="translate(0 0) scale(1 1)">
</g>
<g style="fill:#840000; fill-opacity:0.0; 
stroke:#840000; stroke-width:0.0000; stroke-opacity:1; 
stroke-linecap:round; stroke-linejoin:round;">
</g>
<g style="fill:#FFFFC2; fill-opacity:0.0; 
stroke:#FFFFC2; stroke-width:0.0000; stroke-opacity:1; 
stroke-linecap:round; stroke-linejoin:round;">
</g>
<g style="fill:#FFFFC2; fill-opacity:1.0000; 
stroke:#FFFFC2; stroke-width:0.0000; stroke-opacity:1; 
stroke-linecap:round; stroke-linejoin:round;">
<path style="fill:#FFFFC2; fill-opacity:1.0000; 
stroke:#FFFFC2; stroke-width:0.0000; stroke-opacity:1; 
stroke-linecap:round; stroke-linejoin:round;fill-rule:evenodd;"
d="M 46.5309,5.3182
56.6909,10.3982
46.5309,15.4782
Z" /> 
</g>
<g style="fill:#840084; fill-opacity:1.0000; 
stroke:#840084; stroke-width:0.0000; stroke-opacity:1; 
stroke-linecap:round; stroke-linejoin:round;">
</g>
<g style="fill:#840000; fill-opacity:1.0000; 
stroke:#840000; stroke-width:0.0000; stroke-opacity:1; 
stroke-linecap:round; stroke-linejoin:round;">
</g>
<g style="fill:#840000; fill-opacity:0.0; 
stroke:#840000; stroke-width:0.2540; stroke-opacity:1; 
stroke-linecap:round; stroke-linejoin:round;">
<path style="fill:#840000; fill-opacity:0.0; 
stroke:#840000; stroke-width:0.2540; stroke-opacity:1; 
stroke-linecap:round; stroke-linejoin:round;fill:none"
d="M 56.6909,6.5882
56.6909,14.2082
" /> 
<path style="fill:#840000; fill-opacity:0.0; 
stroke:#840000; stroke-width:0.2540; stroke-opacity:1; 
stroke-linecap:round; stroke-linejoin:round;fill:none"
d="M 46.5309,5.3182
56.6909,10.3982
46.5309,15.4782
Z" /> 
</g>
<g style="fill:#840000; fill-opacity:0.0; 
stroke:#840000; stroke-width:0.1524; stroke-opacity:1; 
stroke-linecap:round; stroke-linejoin:round;">
<path d="M49.0709 6.5882
L49.0709 2.7782
" />
</g>
<g style="fill:#006464; fill-opacity:0.0; 
stroke:#006464; stroke-width:0.1524; stroke-opacity:1; 
stroke-linecap:round; stroke-linejoin:round;">
<g transform="rotate(-90.000000 49.0709 6.7152)">
<text x="49.0709" y="7.3502"
textLength="2.7880" font-size="1.6933" lengthAdjust="spacingAndGlyphs"
text-anchor="end" opacity="0">V+</text>
</g>
<g class="stroked-text"><desc>V+</desc>
<path d="M48.3884 9.2552
L49.6584 8.8319
" />
<path d="M49.6584 8.8319
L48.3884 8.4085
" />
<path d="M49.1746 7.9852
L49.1746 7.0176
" />
<path d="M49.6584 7.5014
L48.6908 7.5014
" />
</g></g>
<g style="fill:#A90000; fill-opacity:0.0; 
stroke:#A90000; stroke-width:0.1524; stroke-opacity:1; 
stroke-linecap:round; stroke-linejoin:round;">
<g transform="rotate(-90.000000 48.8169 4.6832)">
<text x="48.8169" y="4.6832"
textLength="1.3365" font-size="1.6933" lengthAdjust="spacingAndGlyphs"
text-anchor="middle" opacity="0">1</text>
</g>
<g class="stroked-text"><desc>1</desc>
<path d="M48.6614 4.3202
L48.6614 5.0459
" />
<path d="M48.6614 4.6831
L47.3914 4.6831
" />
<path d="M47.3914 4.6831
L47.5729 4.8040
" />
<path d="M47.5729 4.8040
L47.6938 4.9250
" />
<path d="M47.6938 4.9250
L47.7543 5.0459
" />
</g></g>
<g style="fill:#840000; fill-opacity:0.0; 
stroke:#840000; stroke-width:0.1524; stroke-opacity:1; 
stroke-linecap:round; stroke-linejoin:round;">
<path d="M46.5309 7.8582
L43.9909 7.8582
" />
</g>
<g style="fill:#006464; fill-opacity:0.0; 
stroke:#006464; stroke-width:0.1524; stroke-opacity:1; 
stroke-linecap:round; stroke-linejoin:round;">
<text x="46.6579" y="8.4932"
textLength="1.6994" font-size="1.6933" lengthAdjust="spacingAndGlyphs"
text-anchor="start" opacity="0">+</text>
<g class="stroked-text"><desc>+</desc>
<path d="M46.9602 7.9619
L47.9279 7.9619
" />
<path d="M47.4440 8.4457
L47.4440 7.4781
" />
</g></g>
<g style="fill:#A90000; fill-opacity:0.0; 
stroke:#A90000; stroke-width:0.1524; stroke-opacity:1; 
stroke-linecap:round; stroke-linejoin:round;">
<text x="45.2609" y="7.6042"
textLength="1.3365" font-size="1.6933" lengthAdjust="spacingAndGlyphs"
text-anchor="middle" opacity="0">2</text>
<g class="stroked-text"><desc>2</desc>
<path d="M44.8981 6.2997
L44.9585 6.2392
" />
<path d="M44.9585 6.2392
L45.0795 6.1787
" />
<path d="M45.0795 6.1787
L45.3819 6.1787
" />
<path d="M45.3819 6.1787
L45.5028 6.2392
" />
<path d="M45.5028 6.2392
L45.5633 6.2997
" />
<path d="M45.5633 6.2997
L45.6238 6.4206
" />
<path d="M45.6238 6.4206
L45.6238 6.5416
" />
<path d="M45.6238 6.5416
L45.5633 6.7230
" />
<path d="M45.5633 6.7230
L44.8376 7.4487
" />
<path d="M44.8376 7.4487
L45.6238 7.4487
" />
</g></g>
<g style="fill:#840000; fill-opacity:0.0; 
stroke:#840000; stroke-width:0.1524; stroke-opacity:1; 
stroke-linecap:round; stroke-linejoin:round;">
<path d="M46.5309 12.9382
L43.9909 12.9382
" />
</g>
<g style="fill:#006464; fill-opacity:0.0; 
stroke:#006464; stroke-width:0.1524; stroke-opacity:1; 
stroke-linecap:round; stroke-linejoin:round;">
<text x="46.6579" y="13.5732"
textLength="1.6994" font-size="1.6933" lengthAdjust="spacingAndGlyphs"
text-anchor="start" opacity="0">-</text>
<g class="stroked-text"><desc>-</desc>
<path d="M46.9602 13.0419
L47.9279 13.0419
" />
</g></g>
<g style="fill:#A90000; fill-opacity:0.0; 
stroke:#A90000; stroke-width:0.1524; stroke-opacity:1; 
stroke-linecap:round; stroke-linejoin:round;">
<text x="45.2609" y="12.6842"
textLength="1.3365" font-size="1.6933" lengthAdjust="spacingAndGlyphs"
text-anchor="middle" opacity="0">3</text>
<g class="stroked-text"><desc>3</desc>
<path d="M44.8376 11.2587
L45.6238 11.2587
" />
<path d="M45.6238 11.2587
L45.2004 11.7425
" />
<path d="M45.2004 11.7425
L45.3819 11.7425
" />
<path d="M45.3819 11.7425
L45.5028 11.8030
" />
<path d="M45.5028 11.8030
L45.5633 11.8635
" />
<path d="M45.5633 11.8635
L45.6238 11.9844
" />
<path d="M45.6238 11.9844
L45.6238 12.2868
" />
<path d="M45.6238 12.2868
L45.5633 12.4078
" />
<path d="M45.5633 12.4078
L45.5028 12.4683
" />
<path d="M45.5028 12.4683
L45.3819 12.5287
" />
<path d="M45.3819 12.5287
L45.0190 12.5287
" />
<path d="M45.0190 12.5287
L44.8981 12.4683
" />
<path d="M44.8981 12.4683
L44.8376 12.4078
" />
</g></g>
<g style="fill:#840000; fill-opacity:0.0; 
stroke:#840000; stroke-width:0.1524; stroke-opacity:1; 
stroke-linecap:round; stroke-linejoin:round;">
<path d="M49.0709 14.2082
L49.0709 18.0182
" />
</g>
<g style="fill:#006464; fill-opacity:0.0; 
stroke:#006464; stroke-width:0.1524; stroke-opacity:1; 
stroke-linecap:round; stroke-linejoin:round;">
<g transform="rotate(-90.000000 49.0709 14.0812)">
<text x="49.0709" y="14.7162"
textLength="2.7880" font-size="1.6933" lengthAdjust="spacingAndGlyphs"
text-anchor="start" opacity="0">V-</text>
</g>
<g class="stroked-text"><desc>V-</desc>
<path d="M48.3884 13.9602
L49.6584 13.5369
" />
<path d="M49.6584 13.5369
L48.3884 13.1135
" />
<path d="M49.1746 12.6902
L49.1746 11.7226
" />
</g></g>
<g style="fill:#A90000; fill-opacity:0.0; 
stroke:#A90000; stroke-width:0.1524; stroke-opacity:1; 
stroke-linecap:round; stroke-linejoin:round;">
<g transform="rotate(-90.000000 48.8169 16.1132)">
<text x="48.8169" y="16.1132"
textLength="1.3365" font-size="1.6933" lengthAdjust="spacingAndGlyphs"
text-anchor="middle" opacity="0">4</text>
</g>
<g class="stroked-text"><desc>4</desc>
<path d="M47.8148 15.8712
L48.6614 15.8712
" />
<path d="M47.3310 16.1736
L48.2381 16.4759
" />
<path d="M48.2381 16.4759
L48.2381 15.6898
" />
</g></g>
<g style="fill:#840000; fill-opacity:0.0; 
stroke:#840000; stroke-width:0.1524; stroke-opacity:1; 
stroke-linecap:round; stroke-linejoin:round;">
<path d="M54.1509 9.1282
L54.1509 2.7782
" />
</g>
<g style="fill:#006464; fill-opacity:0.0; 
stroke:#006464; stroke-width:0.1524; stroke-opacity:1; 
stroke-linecap:round; stroke-linejoin:round;">
</g>
<g style="fill:#006464; fill-opacity:0.0; 
stroke:#006464; stroke-width:0.1016; stroke-opacity:1; 
stroke-linecap:round; stroke-linejoin:round;">
<g transform="rotate(-90.000000 54.1509 9.2552)">
<text x="54.1509" y="9.5092"
textLength="2.4262" font-size="0.6773" lengthAdjust="spacingAndGlyphs"
text-anchor="end" opacity="0">LATCH</text>
</g>
<g class="stroked-text"><desc>LATCH</desc>
<path d="M54.3859 11.1661
L54.3859 11.4080
" />
<path d="M54.3859 11.4080
L53.8779 11.4080
" />
<path d="M54.2408 11.0210
L54.2408 10.7791
" />
<path d="M54.3859 11.0694
L53.8779 10.9000
" />
<path d="M53.8779 10.9000
L54.3859 10.7307
" />
<path d="M53.8779 10.6340
L53.8779 10.3437
" />
<path d="M54.3859 10.4888
L53.8779 10.4888
" />
<path d="M54.3376 9.8841
L54.3618 9.9083
" />
<path d="M54.3618 9.9083
L54.3859 9.9809
" />
<path d="M54.3859 9.9809
L54.3859 10.0293
" />
<path d="M54.3859 10.0293
L54.3618 10.1018
" />
<path d="M54.3618 10.1018
L54.3134 10.1502
" />
<path d="M54.3134 10.1502
L54.2650 10.1744
" />
<path d="M54.2650 10.1744
L54.1682 10.1986
" />
<path d="M54.1682 10.1986
L54.0957 10.1986
" />
<path d="M54.0957 10.1986
L53.9989 10.1744
" />
<path d="M53.9989 10.1744
L53.9505 10.1502
" />
<path d="M53.9505 10.1502
L53.9021 10.1018
" />
<path d="M53.9021 10.1018
L53.8779 10.0293
" />
<path d="M53.8779 10.0293
L53.8779 9.9809
" />
<path d="M53.8779 9.9809
L53.9021 9.9083
" />
<path d="M53.9021 9.9083
L53.9263 9.8841
" />
<path d="M54.3859 9.6664
L53.8779 9.6664
" />
<path d="M54.1198 9.6664
L54.1198 9.3761
" />
<path d="M54.3859 9.3761
L53.8779 9.3761
" />
</g></g>
<g style="fill:#A90000; fill-opacity:0.0; 
stroke:#A90000; stroke-width:0.1016; stroke-opacity:1; 
stroke-linecap:round; stroke-linejoin:round;">
</g>
<g style="fill:#A90000; fill-opacity:0.0; 
stroke:#A90000; stroke-width:0.1524; stroke-opacity:1; 
stroke-linecap:round; stroke-linejoin:round;">
<g transform="rotate(-90.000000 53.8969 5.9532)">
<text x="53.8969" y="5.9532"
textLength="1.3365" font-size="1.6933" lengthAdjust="spacingAndGlyphs"
text-anchor="middle" opacity="0">5</text>
</g>
<g class="stroked-text"><desc>5</desc>
<path d="M52.4714 5.6507
L52.4714 6.2555
" />
<path d="M52.4714 6.2555
L53.0762 6.3159
" />
<path d="M53.0762 6.3159
L53.0157 6.2555
" />
<path d="M53.0157 6.2555
L52.9552 6.1345
" />
<path d="M52.9552 6.1345
L52.9552 5.8321
" />
<path d="M52.9552 5.8321
L53.0157 5.7112
" />
<path d="M53.0157 5.7112
L53.0762 5.6507
" />
<path d="M53.0762 5.6507
L53.1971 5.5902
" />
<path d="M53.1971 5.5902
L53.4995 5.5902
" />
<path d="M53.4995 5.5902
L53.6205 5.6507
" />
<path d="M53.6205 5.6507
L53.6810 5.7112
" />
<path d="M53.6810 5.7112
L53.7414 5.8321
" />
<path d="M53.7414 5.8321
L53.7414 6.1345
" />
<path d="M53.7414 6.1345
L53.6810 6.2555
" />
<path d="M53.6810 6.2555
L53.6205 6.3159
" />
</g></g>
<g style="fill:#840000; fill-opacity:0.0; 
stroke:#840000; stroke-width:0.1524; stroke-opacity:1; 
stroke-linecap:round; stroke-linejoin:round;">
<path d="M51.6109 12.9382
L51.6109 18.0182
" />
</g>
<g style="fill:#006464; fill-opacity:0.0; 
stroke:#006464; stroke-width:0.1524; stroke-opacity:1; 
stroke-linecap:round; stroke-linejoin:round;">
<g transform="rotate(-90.000000 51.6109 12.8112)">
<text x="51.6109" y="13.4462"
textLength="3.9975" font-size="1.6933" lengthAdjust="spacingAndGlyphs"
text-anchor="start" opacity="0">GND</text>
</g>
<g class="stroked-text"><desc>GND</desc>
<path d="M50.9889 11.8435
L50.9284 11.9645
" />
<path d="M50.9284 11.9645
L50.9284 12.1459
" />
<path d="M50.9284 12.1459
L50.9889 12.3273
" />
<path d="M50.9889 12.3273
L51.1099 12.4483
" />
<path d="M51.1099 12.4483
L51.2308 12.5088
" />
<path d="M51.2308 12.5088
L51.4727 12.5692
" />
<path d="M51.4727 12.5692
L51.6541 12.5692
" />
<path d="M51.6541 12.5692
L51.8960 12.5088
" />
<path d="M51.8960 12.5088
L52.0170 12.4483
" />
<path d="M52.0170 12.4483
L52.1380 12.3273
" />
<path d="M52.1380 12.3273
L52.1984 12.1459
" />
<path d="M52.1984 12.1459
L52.1984 12.0250
" />
<path d="M52.1984 12.0250
L52.1380 11.8435
" />
<path d="M52.1380 11.8435
L52.0775 11.7831
" />
<path d="M52.0775 11.7831
L51.6541 11.7831
" />
<path d="M51.6541 11.7831
L51.6541 12.0250
" />
<path d="M52.1984 11.2388
L50.9284 11.2388
" />
<path d="M50.9284 11.2388
L52.1984 10.5131
" />
<path d="M52.1984 10.5131
L50.9284 10.5131
" />
<path d="M52.1984 9.9083
L50.9284 9.9083
" />
<path d="M50.9284 9.9083
L50.9284 9.6059
" />
<path d="M50.9284 9.6059
L50.9889 9.4245
" />
<path d="M50.9889 9.4245
L51.1099 9.3035
" />
<path d="M51.1099 9.3035
L51.2308 9.2430
" />
<path d="M51.2308 9.2430
L51.4727 9.1826
" />
<path d="M51.4727 9.1826
L51.6541 9.1826
" />
<path d="M51.6541 9.1826
L51.8960 9.2430
" />
<path d="M51.8960 9.2430
L52.0170 9.3035
" />
<path d="M52.0170 9.3035
L52.1380 9.4245
" />
<path d="M52.1380 9.4245
L52.1984 9.6059
" />
<path d="M52.1984 9.6059
L52.1984 9.9083
" />
</g></g>
<g style="fill:#A90000; fill-opacity:0.0; 
stroke:#A90000; stroke-width:0.1524; stroke-opacity:1; 
stroke-linecap:round; stroke-linejoin:round;">
<g transform="rotate(-90.000000 51.3569 15.4782)">
<text x="51.3569" y="15.4782"
textLength="1.3365" font-size="1.6933" lengthAdjust="spacingAndGlyphs"
text-anchor="middle" opacity="0">6</text>
</g>
<g class="stroked-text"><desc>6</desc>
<path d="M49.9314 15.2362
L49.9314 15.4781
" />
<path d="M49.9314 15.4781
L49.9919 15.5990
" />
<path d="M49.9919 15.5990
L50.0524 15.6595
" />
<path d="M50.0524 15.6595
L50.2338 15.7805
" />
<path d="M50.2338 15.7805
L50.4757 15.8409
" />
<path d="M50.4757 15.8409
L50.9595 15.8409
" />
<path d="M50.9595 15.8409
L51.0805 15.7805
" />
<path d="M51.0805 15.7805
L51.1410 15.7200
" />
<path d="M51.1410 15.7200
L51.2014 15.5990
" />
<path d="M51.2014 15.5990
L51.2014 15.3571
" />
<path d="M51.2014 15.3571
L51.1410 15.2362
" />
<path d="M51.1410 15.2362
L51.0805 15.1757
" />
<path d="M51.0805 15.1757
L50.9595 15.1152
" />
<path d="M50.9595 15.1152
L50.6571 15.1152
" />
<path d="M50.6571 15.1152
L50.5362 15.1757
" />
<path d="M50.5362 15.1757
L50.4757 15.2362
" />
<path d="M50.4757 15.2362
L50.4152 15.3571
" />
<path d="M50.4152 15.3571
L50.4152 15.5990
" />
<path d="M50.4152 15.5990
L50.4757 15.7200
" />
<path d="M50.4757 15.7200
L50.5362 15.7805
" />
<path d="M50.5362 15.7805
L50.6571 15.8409
" />
</g></g>
<g style="fill:#840000; fill-opacity:0.0; 
stroke:#840000; stroke-width:0.1524; stroke-opacity:1; 
stroke-linecap:round; stroke-linejoin:round;">
<path d="M56.6909 12.9382
L59.2309 12.9382
" />
</g>
<g style="fill:#006464; fill-opacity:0.0; 
stroke:#006464; stroke-width:0.1524; stroke-opacity:1; 
stroke-linecap:round; stroke-linejoin:round;">
<text x="56.5639" y="13.5732"
textLength="1.4575" font-size="1.6933" lengthAdjust="spacingAndGlyphs"
text-anchor="end" opacity="0">Q</text>
<g class="stroked-text"><desc>Q</desc>
<path d="M56.3824 13.6467
L56.2614 13.5862
" />
<path d="M56.2614 13.5862
L56.1405 13.4653
" />
<path d="M56.1405 13.4653
L55.9591 13.2838
" />
<path d="M55.9591 13.2838
L55.8381 13.2233
" />
<path d="M55.8381 13.2233
L55.7172 13.2233
" />
<path d="M55.7776 13.5257
L55.6567 13.4653
" />
<path d="M55.6567 13.4653
L55.5357 13.3443
" />
<path d="M55.5357 13.3443
L55.4753 13.1024
" />
<path d="M55.4753 13.1024
L55.4753 12.6791
" />
<path d="M55.4753 12.6791
L55.5357 12.4372
" />
<path d="M55.5357 12.4372
L55.6567 12.3162
" />
<path d="M55.6567 12.3162
L55.7776 12.2557
" />
<path d="M55.7776 12.2557
L56.0195 12.2557
" />
<path d="M56.0195 12.2557
L56.1405 12.3162
" />
<path d="M56.1405 12.3162
L56.2614 12.4372
" />
<path d="M56.2614 12.4372
L56.3219 12.6791
" />
<path d="M56.3219 12.6791
L56.3219 13.1024
" />
<path d="M56.3219 13.1024
L56.2614 13.3443
" />
<path d="M56.2614 13.3443
L56.1405 13.4653
" />
<path d="M56.1405 13.4653
L56.0195 13.5257
" />
<path d="M56.0195 13.5257
L55.7776 13.5257
" />
</g></g>
<g style="fill:#A90000; fill-opacity:0.0; 
stroke:#A90000; stroke-width:0.1524; stroke-opacity:1; 
stroke-linecap:round; stroke-linejoin:round;">
<text x="57.9609" y="12.6842"
textLength="1.3365" font-size="1.6933" lengthAdjust="spacingAndGlyphs"
text-anchor="middle" opacity="0">7</text>
<g class="stroked-text"><desc>7</desc>
<path d="M57.5376 11.2587
L58.3842 11.2587
" />
<path d="M58.3842 11.2587
L57.8400 12.5287
" />
</g></g>
<g style="fill:#840000; fill-opacity:0.0; 
stroke:#840000; stroke-width:0.1524; stroke-opacity:1; 
stroke-linecap:round; stroke-linejoin:round;">
<path d="M56.6909 7.8582
L59.2309 7.8582
" />
</g>
<g style="fill:#006464; fill-opacity:0.0; 
stroke:#006464; stroke-width:0.1524; stroke-opacity:1; 
stroke-linecap:round; stroke-linejoin:round;">
<text x="56.5639" y="8.4932"
textLength="1.4575" font-size="1.6933" lengthAdjust="spacingAndGlyphs"
text-anchor="end" opacity="0">~{Q}</text>
<g class="stroked-text"><desc>~{Q}</desc>
<path d="M56.3824 8.5667
L56.2614 8.5062
" />
<path d="M56.2614 8.5062
L56.1405 8.3853
" />
<path d="M56.1405 8.3853
L55.9591 8.2038
" />
<path d="M55.9591 8.2038
L55.8381 8.1433
" />
<path d="M55.8381 8.1433
L55.7172 8.1433
" />
<path d="M55.7776 8.4457
L55.6567 8.3853
" />
<path d="M55.6567 8.3853
L55.5357 8.2643
" />
<path d="M55.5357 8.2643
L55.4753 8.0224
" />
<path d="M55.4753 8.0224
L55.4753 7.5991
" />
<path d="M55.4753 7.5991
L55.5357 7.3572
" />
<path d="M55.5357 7.3572
L55.6567 7.2362
" />
<path d="M55.6567 7.2362
L55.7776 7.1757
" />
<path d="M55.7776 7.1757
L56.0195 7.1757
" />
<path d="M56.0195 7.1757
L56.1405 7.2362
" />
<path d="M56.1405 7.2362
L56.2614 7.3572
" />
<path d="M56.2614 7.3572
L56.3219 7.5991
" />
<path d="M56.3219 7.5991
L56.3219 8.0224
" />
<path d="M56.3219 8.0224
L56.2614 8.2643
" />
<path d="M56.2614 8.2643
L56.1405 8.3853
" />
<path d="M56.1405 8.3853
L56.0195 8.4457
" />
<path d="M56.0195 8.4457
L55.7776 8.4457
" />
<path d="M55.3604 6.6073
L56.4369 6.6073
" />
</g></g>
<g style="fill:#A90000; fill-opacity:0.0; 
stroke:#A90000; stroke-width:0.1524; stroke-opacity:1; 
stroke-linecap:round; stroke-linejoin:round;">
<text x="57.9609" y="7.6042"
textLength="1.3365" font-size="1.6933" lengthAdjust="spacingAndGlyphs"
text-anchor="middle" opacity="0">8</text>
<g class="stroked-text"><desc>8</desc>
<path d="M57.8400 6.7230
L57.7190 6.6625
" />
<path d="M57.7190 6.6625
L57.6585 6.6021
" />
<path d="M57.6585 6.6021
L57.5981 6.4811
" />
<path d="M57.5981 6.4811
L57.5981 6.4206
" />
<path d="M57.5981 6.4206
L57.6585 6.2997
" />
<path d="M57.6585 6.2997
L57.7190 6.2392
" />
<path d="M57.7190 6.2392
L57.8400 6.1787
" />
<path d="M57.8400 6.1787
L58.0819 6.1787
" />
<path d="M58.0819 6.1787
L58.2028 6.2392
" />
<path d="M58.2028 6.2392
L58.2633 6.2997
" />
<path d="M58.2633 6.2997
L58.3238 6.4206
" />
<path d="M58.3238 6.4206
L58.3238 6.4811
" />
<path d="M58.3238 6.4811
L58.2633 6.6021
" />
<path d="M58.2633 6.6021
L58.2028 6.6625
" />
<path d="M58.2028 6.6625
L58.0819 6.7230
" />
<path d="M58.0819 6.7230
L57.8400 6.7230
" />
<path d="M57.8400 6.7230
L57.7190 6.7835
" />
<path d="M57.7190 6.7835
L57.6585 6.8440
" />
<path d="M57.6585 6.8440
L57.5981 6.9649
" />
<path d="M57.5981 6.9649
L57.5981 7.2068
" />
<path d="M57.5981 7.2068
L57.6585 7.3278
" />
<path d="M57.6585 7.3278
L57.7190 7.3883
" />
<path d="M57.7190 7.3883
L57.8400 7.4487
" />
<path d="M57.8400 7.4487
L58.0819 7.4487
" />
<path d="M58.0819 7.4487
L58.2028 7.3883
" />
<path d="M58.2028 7.3883
L58.2633 7.3278
" />
<path d="M58.2633 7.3278
L58.3238 7.2068
" />
<path d="M58.3238 7.2068
L58.3238 6.9649
" />
<path d="M58.3238 6.9649
L58.2633 6.8440
" />
<path d="M58.2633 6.8440
L58.2028 6.7835
" />
<path d="M58.2028 6.7835
L58.0819 6.7230
" />
</g></g>
<g style="fill:#840084; fill-opacity:0.0; 
stroke:#840084; stroke-width:0.1524; stroke-opacity:1; 
stroke-linecap:round; stroke-linejoin:round;">
</g>
<g style="fill:#006464; fill-opacity:0.0; 
stroke:#006464; stroke-width:0.1524; stroke-opacity:1; 
stroke-linecap:round; stroke-linejoin:round;">
</g>
<g style="fill:#006464; fill-opacity:0.0; 
stroke:#006464; stroke-width:0.1588; stroke-opacity:1; 
stroke-linecap:round; stroke-linejoin:round;">
<text x="46.5309" y="3.4132"
textLength="2.5621" font-size="1.6933" lengthAdjust="spacingAndGlyphs"
text-anchor="middle" opacity="0">U?</text>
<g class="stroked-text"><desc>U?</desc>
<path d="M45.6237 2.0957
L45.6237 3.1238
" />
<path d="M45.6237 3.1238
L45.6842 3.2448
" />
<path d="M45.6842 3.2448
L45.7447 3.3053
" />
<path d="M45.7447 3.3053
L45.8656 3.3657
" />
<path d="M45.8656 3.3657
L46.1075 3.3657
" />
<path d="M46.1075 3.3657
L46.2285 3.3053
" />
<path d="M46.2285 3.3053
L46.2890 3.2448
" />
<path d="M46.2890 3.2448
L46.3494 3.1238
" />
<path d="M46.3494 3.1238
L46.3494 2.0957
" />
<path d="M47.1357 3.2448
L47.1961 3.3053
" />
<path d="M47.1961 3.3053
L47.1357 3.3657
" />
<path d="M47.1357 3.3657
L47.0752 3.3053
" />
<path d="M47.0752 3.3053
L47.1357 3.2448
" />
<path d="M47.1357 3.2448
L47.1357 3.3657
" />
<path d="M46.8938 2.1562
L47.0147 2.0957
" />
<path d="M47.0147 2.0957
L47.3171 2.0957
" />
<path d="M47.3171 2.0957
L47.4380 2.1562
" />
<path d="M47.4380 2.1562
L47.4985 2.2772
" />
<path d="M47.4985 2.2772
L47.4985 2.3981
" />
<path d="M47.4985 2.3981
L47.4380 2.5191
" />
<path d="M47.4380 2.5191
L47.3776 2.5795
" />
<path d="M47.3776 2.5795
L47.2566 2.6400
" />
<path d="M47.2566 2.6400
L47.1961 2.7005
" />
<path d="M47.1961 2.7005
L47.1357 2.8214
" />
<path d="M47.1357 2.8214
L47.1357 2.8819
" />
</g><text x="60.5009" y="5.9532"
textLength="11.8752" font-size="1.6933" lengthAdjust="spacingAndGlyphs"
text-anchor="middle" opacity="0">LT1711xMS8</text>
<g class="stroked-text"><desc>LT1711xMS8</desc>
<path d="M55.5419 5.9057
L54.9371 5.9057
" />
<path d="M54.9371 5.9057
L54.9371 4.6357
" />
<path d="M55.7838 4.6357
L56.5095 4.6357
" />
<path d="M56.1467 5.9057
L56.1467 4.6357
" />
<path d="M57.5981 5.9057
L56.8724 5.9057
" />
<path d="M57.2352 5.9057
L57.2352 4.6357
" />
<path d="M57.2352 4.6357
L57.1143 4.8172
" />
<path d="M57.1143 4.8172
L56.9933 4.9381
" />
<path d="M56.9933 4.9381
L56.8724 4.9986
" />
<path d="M58.0214 4.6357
L58.8680 4.6357
" />
<path d="M58.8680 4.6357
L58.3238 5.9057
" />
<path d="M60.0171 5.9057
L59.2914 5.9057
" />
<path d="M59.6542 5.9057
L59.6542 4.6357
" />
<path d="M59.6542 4.6357
L59.5333 4.8172
" />
<path d="M59.5333 4.8172
L59.4123 4.9381
" />
<path d="M59.4123 4.9381
L59.2914 4.9986
" />
<path d="M61.2266 5.9057
L60.5009 5.9057
" />
<path d="M60.8637 5.9057
L60.8637 4.6357
" />
<path d="M60.8637 4.6357
L60.7428 4.8172
" />
<path d="M60.7428 4.8172
L60.6218 4.9381
" />
<path d="M60.6218 4.9381
L60.5009 4.9986
" />
<path d="M61.6499 5.9057
L62.3151 5.0591
" />
<path d="M61.6499 5.0591
L62.3151 5.9057
" />
<path d="M62.7989 5.9057
L62.7989 4.6357
" />
<path d="M62.7989 4.6357
L63.2223 5.5429
" />
<path d="M63.2223 5.5429
L63.6456 4.6357
" />
<path d="M63.6456 4.6357
L63.6456 5.9057
" />
<path d="M64.1899 5.8453
L64.3713 5.9057
" />
<path d="M64.3713 5.9057
L64.6737 5.9057
" />
<path d="M64.6737 5.9057
L64.7946 5.8453
" />
<path d="M64.7946 5.8453
L64.8551 5.7848
" />
<path d="M64.8551 5.7848
L64.9156 5.6638
" />
<path d="M64.9156 5.6638
L64.9156 5.5429
" />
<path d="M64.9156 5.5429
L64.8551 5.4219
" />
<path d="M64.8551 5.4219
L64.7946 5.3614
" />
<path d="M64.7946 5.3614
L64.6737 5.3010
" />
<path d="M64.6737 5.3010
L64.4318 5.2405
" />
<path d="M64.4318 5.2405
L64.3108 5.1800
" />
<path d="M64.3108 5.1800
L64.2503 5.1195
" />
<path d="M64.2503 5.1195
L64.1899 4.9986
" />
<path d="M64.1899 4.9986
L64.1899 4.8776
" />
<path d="M64.1899 4.8776
L64.2503 4.7567
" />
<path d="M64.2503 4.7567
L64.3108 4.6962
" />
<path d="M64.3108 4.6962
L64.4318 4.6357
" />
<path d="M64.4318 4.6357
L64.7341 4.6357
" />
<path d="M64.7341 4.6357
L64.9156 4.6962
" />
<path d="M65.6413 5.1800
L65.5203 5.1195
" />
<path d="M65.5203 5.1195
L65.4598 5.0591
" />
<path d="M65.4598 5.0591
L65.3994 4.9381
" />
<path d="M65.3994 4.9381
L65.3994 4.8776
" />
<path d="M65.3994 4.8776
L65.4598 4.7567
" />
<path d="M65.4598 4.7567
L65.5203 4.6962
" />
<path d="M65.5203 4.6962
L65.6413 4.6357
" />
<path d="M65.6413 4.6357
L65.8832 4.6357
" />
<path d="M65.8832 4.6357
L66.0041 4.6962
" />
<path d="M66.0041 4.6962
L66.0646 4.7567
" />
<path d="M66.0646 4.7567
L66.1251 4.8776
" />
<path d="M66.1251 4.8776
L66.1251 4.9381
" />
<path d="M66.1251 4.9381
L66.0646 5.0591
" />
<path d="M66.0646 5.0591
L66.0041 5.1195
" />
<path d="M66.0041 5.1195
L65.8832 5.1800
" />
<path d="M65.8832 5.1800
L65.6413 5.1800
" />
<path d="M65.6413 5.1800
L65.5203 5.2405
" />
<path d="M65.5203 5.2405
L65.4598 5.3010
" />
<path d="M65.4598 5.3010
L65.3994 5.4219
" />
<path d="M65.3994 5.4219
L65.3994 5.6638
" />
<path d="M65.3994 5.6638
L65.4598 5.7848
" />
<path d="M65.4598 5.7848
L65.5203 5.8453
" />
<path d="M65.5203 5.8453
L65.6413 5.9057
" />
<path d="M65.6413 5.9057
L65.8832 5.9057
" />
<path d="M65.8832 5.9057
L66.0041 5.8453
" />
<path d="M66.0041 5.8453
L66.0646 5.7848
" />
<path d="M66.0646 5.7848
L66.1251 5.6638
" />
<path d="M66.1251 5.6638
L66.1251 5.4219
" />
<path d="M66.1251 5.4219
L66.0646 5.3010
" />
<path d="M66.0646 5.3010
L66.0041 5.2405
" />
<path d="M66.0041 5.2405
L65.8832 5.1800
" />
</g></g>
<g style="fill:#840084; fill-opacity:0.0; 
stroke:#840084; stroke-width:0.1588; stroke-opacity:1; 
stroke-linecap:round; stroke-linejoin:round;">
<text x="51.6109" y="21.1932"
textLength="37.8798" font-size="1.6933" lengthAdjust="spacingAndGlyphs"
text-anchor="middle" opacity="0">Package_SO:MSOP-8_3x3mm_P0.65mm</text>
<g class="stroked-text"><desc>Package_SO:MSOP-8_3x3mm_P0.65mm</desc>
<path d="M33.0448 21.1457
L33.0448 19.8757
" />
<path d="M33.0448 19.8757
L33.5286 19.8757
" />
<path d="M33.5286 19.8757
L33.6496 19.9362
" />
<path d="M33.6496 19.9362
L33.7101 19.9967
" />
<path d="M33.7101 19.9967
L33.7705 20.1176
" />
<path d="M33.7705 20.1176
L33.7705 20.2991
" />
<path d="M33.7705 20.2991
L33.7101 20.4200
" />
<path d="M33.7101 20.4200
L33.6496 20.4805
" />
<path d="M33.6496 20.4805
L33.5286 20.5410
" />
<path d="M33.5286 20.5410
L33.0448 20.5410
" />
<path d="M34.8591 21.1457
L34.8591 20.4805
" />
<path d="M34.8591 20.4805
L34.7986 20.3595
" />
<path d="M34.7986 20.3595
L34.6777 20.2991
" />
<path d="M34.6777 20.2991
L34.4358 20.2991
" />
<path d="M34.4358 20.2991
L34.3148 20.3595
" />
<path d="M34.8591 21.0853
L34.7382 21.1457
" />
<path d="M34.7382 21.1457
L34.4358 21.1457
" />
<path d="M34.4358 21.1457
L34.3148 21.0853
" />
<path d="M34.3148 21.0853
L34.2544 20.9643
" />
<path d="M34.2544 20.9643
L34.2544 20.8433
" />
<path d="M34.2544 20.8433
L34.3148 20.7224
" />
<path d="M34.3148 20.7224
L34.4358 20.6619
" />
<path d="M34.4358 20.6619
L34.7382 20.6619
" />
<path d="M34.7382 20.6619
L34.8591 20.6014
" />
<path d="M36.0081 21.0853
L35.8872 21.1457
" />
<path d="M35.8872 21.1457
L35.6453 21.1457
" />
<path d="M35.6453 21.1457
L35.5243 21.0853
" />
<path d="M35.5243 21.0853
L35.4638 21.0248
" />
<path d="M35.4638 21.0248
L35.4034 20.9038
" />
<path d="M35.4034 20.9038
L35.4034 20.5410
" />
<path d="M35.4034 20.5410
L35.4638 20.4200
" />
<path d="M35.4638 20.4200
L35.5243 20.3595
" />
<path d="M35.5243 20.3595
L35.6453 20.2991
" />
<path d="M35.6453 20.2991
L35.8872 20.2991
" />
<path d="M35.8872 20.2991
L36.0081 20.3595
" />
<path d="M36.5524 21.1457
L36.5524 19.8757
" />
<path d="M36.6734 20.6619
L37.0362 21.1457
" />
<path d="M37.0362 20.2991
L36.5524 20.7829
" />
<path d="M38.1248 21.1457
L38.1248 20.4805
" />
<path d="M38.1248 20.4805
L38.0643 20.3595
" />
<path d="M38.0643 20.3595
L37.9434 20.2991
" />
<path d="M37.9434 20.2991
L37.7015 20.2991
" />
<path d="M37.7015 20.2991
L37.5805 20.3595
" />
<path d="M38.1248 21.0853
L38.0039 21.1457
" />
<path d="M38.0039 21.1457
L37.7015 21.1457
" />
<path d="M37.7015 21.1457
L37.5805 21.0853
" />
<path d="M37.5805 21.0853
L37.5201 20.9643
" />
<path d="M37.5201 20.9643
L37.5201 20.8433
" />
<path d="M37.5201 20.8433
L37.5805 20.7224
" />
<path d="M37.5805 20.7224
L37.7015 20.6619
" />
<path d="M37.7015 20.6619
L38.0039 20.6619
" />
<path d="M38.0039 20.6619
L38.1248 20.6014
" />
<path d="M39.2738 20.2991
L39.2738 21.3272
" />
<path d="M39.2738 21.3272
L39.2133 21.4481
" />
<path d="M39.2133 21.4481
L39.1529 21.5086
" />
<path d="M39.1529 21.5086
L39.0319 21.5691
" />
<path d="M39.0319 21.5691
L38.8505 21.5691
" />
<path d="M38.8505 21.5691
L38.7295 21.5086
" />
<path d="M39.2738 21.0853
L39.1529 21.1457
" />
<path d="M39.1529 21.1457
L38.9110 21.1457
" />
<path d="M38.9110 21.1457
L38.7900 21.0853
" />
<path d="M38.7900 21.0853
L38.7295 21.0248
" />
<path d="M38.7295 21.0248
L38.6691 20.9038
" />
<path d="M38.6691 20.9038
L38.6691 20.5410
" />
<path d="M38.6691 20.5410
L38.7295 20.4200
" />
<path d="M38.7295 20.4200
L38.7900 20.3595
" />
<path d="M38.7900 20.3595
L38.9110 20.2991
" />
<path d="M38.9110 20.2991
L39.1529 20.2991
" />
<path d="M39.1529 20.2991
L39.2738 20.3595
" />
<path d="M40.3623 21.0853
L40.2414 21.1457
" />
<path d="M40.2414 21.1457
L39.9995 21.1457
" />
<path d="M39.9995 21.1457
L39.8785 21.0853
" />
<path d="M39.8785 21.0853
L39.8181 20.9643
" />
<path d="M39.8181 20.9643
L39.8181 20.4805
" />
<path d="M39.8181 20.4805
L39.8785 20.3595
" />
<path d="M39.8785 20.3595
L39.9995 20.2991
" />
<path d="M39.9995 20.2991
L40.2414 20.2991
" />
<path d="M40.2414 20.2991
L40.3623 20.3595
" />
<path d="M40.3623 20.3595
L40.4228 20.4805
" />
<path d="M40.4228 20.4805
L40.4228 20.6014
" />
<path d="M40.4228 20.6014
L39.8181 20.7224
" />
<path d="M40.6648 21.2667
L41.6324 21.2667
" />
<path d="M41.8743 21.0853
L42.0557 21.1457
" />
<path d="M42.0557 21.1457
L42.3581 21.1457
" />
<path d="M42.3581 21.1457
L42.4790 21.0853
" />
<path d="M42.4790 21.0853
L42.5395 21.0248
" />
<path d="M42.5395 21.0248
L42.6000 20.9038
" />
<path d="M42.6000 20.9038
L42.6000 20.7829
" />
<path d="M42.6000 20.7829
L42.5395 20.6619
" />
<path d="M42.5395 20.6619
L42.4790 20.6014
" />
<path d="M42.4790 20.6014
L42.3581 20.5410
" />
<path d="M42.3581 20.5410
L42.1162 20.4805
" />
<path d="M42.1162 20.4805
L41.9952 20.4200
" />
<path d="M41.9952 20.4200
L41.9347 20.3595
" />
<path d="M41.9347 20.3595
L41.8743 20.2386
" />
<path d="M41.8743 20.2386
L41.8743 20.1176
" />
<path d="M41.8743 20.1176
L41.9347 19.9967
" />
<path d="M41.9347 19.9967
L41.9952 19.9362
" />
<path d="M41.9952 19.9362
L42.1162 19.8757
" />
<path d="M42.1162 19.8757
L42.4185 19.8757
" />
<path d="M42.4185 19.8757
L42.6000 19.9362
" />
<path d="M43.3861 19.8757
L43.6280 19.8757
" />
<path d="M43.6280 19.8757
L43.7490 19.9362
" />
<path d="M43.7490 19.9362
L43.8699 20.0572
" />
<path d="M43.8699 20.0572
L43.9304 20.2991
" />
<path d="M43.9304 20.2991
L43.9304 20.7224
" />
<path d="M43.9304 20.7224
L43.8699 20.9643
" />
<path d="M43.8699 20.9643
L43.7490 21.0853
" />
<path d="M43.7490 21.0853
L43.6280 21.1457
" />
<path d="M43.6280 21.1457
L43.3861 21.1457
" />
<path d="M43.3861 21.1457
L43.2652 21.0853
" />
<path d="M43.2652 21.0853
L43.1442 20.9643
" />
<path d="M43.1442 20.9643
L43.0838 20.7224
" />
<path d="M43.0838 20.7224
L43.0838 20.2991
" />
<path d="M43.0838 20.2991
L43.1442 20.0572
" />
<path d="M43.1442 20.0572
L43.2652 19.9362
" />
<path d="M43.2652 19.9362
L43.3861 19.8757
" />
<path d="M44.4747 21.0248
L44.5352 21.0853
" />
<path d="M44.5352 21.0853
L44.4747 21.1457
" />
<path d="M44.4747 21.1457
L44.4143 21.0853
" />
<path d="M44.4143 21.0853
L44.4747 21.0248
" />
<path d="M44.4747 21.0248
L44.4747 21.1457
" />
<path d="M44.4747 20.3595
L44.5352 20.4200
" />
<path d="M44.5352 20.4200
L44.4747 20.4805
" />
<path d="M44.4747 20.4805
L44.4143 20.4200
" />
<path d="M44.4143 20.4200
L44.4747 20.3595
" />
<path d="M44.4747 20.3595
L44.4747 20.4805
" />
<path d="M45.0795 21.1457
L45.0795 19.8757
" />
<path d="M45.0795 19.8757
L45.5029 20.7829
" />
<path d="M45.5029 20.7829
L45.9262 19.8757
" />
<path d="M45.9262 19.8757
L45.9262 21.1457
" />
<path d="M46.4705 21.0853
L46.6519 21.1457
" />
<path d="M46.6519 21.1457
L46.9543 21.1457
" />
<path d="M46.9543 21.1457
L47.0752 21.0853
" />
<path d="M47.0752 21.0853
L47.1357 21.0248
" />
<path d="M47.1357 21.0248
L47.1962 20.9038
" />
<path d="M47.1962 20.9038
L47.1962 20.7829
" />
<path d="M47.1962 20.7829
L47.1357 20.6619
" />
<path d="M47.1357 20.6619
L47.0752 20.6014
" />
<path d="M47.0752 20.6014
L46.9543 20.5410
" />
<path d="M46.9543 20.5410
L46.7124 20.4805
" />
<path d="M46.7124 20.4805
L46.5914 20.4200
" />
<path d="M46.5914 20.4200
L46.5309 20.3595
" />
<path d="M46.5309 20.3595
L46.4705 20.2386
" />
<path d="M46.4705 20.2386
L46.4705 20.1176
" />
<path d="M46.4705 20.1176
L46.5309 19.9967
" />
<path d="M46.5309 19.9967
L46.5914 19.9362
" />
<path d="M46.5914 19.9362
L46.7124 19.8757
" />
<path d="M46.7124 19.8757
L47.0147 19.8757
" />
<path d="M47.0147 19.8757
L47.1962 19.9362
" />
<path d="M47.9823 19.8757
L48.2242 19.8757
" />
<path d="M48.2242 19.8757
L48.3452 19.9362
" />
<path d="M48.3452 19.9362
L48.4661 20.0572
" />
<path d="M48.4661 20.0572
L48.5266 20.2991
" />
<path d="M48.5266 20.2991
L48.5266 20.7224
" />
<path d="M48.5266 20.7224
L48.4661 20.9643
" />
<path d="M48.4661 20.9643
L48.3452 21.0853
" />
<path d="M48.3452 21.0853
L48.2242 21.1457
" />
<path d="M48.2242 21.1457
L47.9823 21.1457
" />
<path d="M47.9823 21.1457
L47.8614 21.0853
" />
<path d="M47.8614 21.0853
L47.7404 20.9643
" />
<path d="M47.7404 20.9643
L47.6800 20.7224
" />
<path d="M47.6800 20.7224
L47.6800 20.2991
" />
<path d="M47.6800 20.2991
L47.7404 20.0572
" />
<path d="M47.7404 20.0572
L47.8614 19.9362
" />
<path d="M47.8614 19.9362
L47.9823 19.8757
" />
<path d="M49.0709 21.1457
L49.0709 19.8757
" />
<path d="M49.0709 19.8757
L49.5547 19.8757
" />
<path d="M49.5547 19.8757
L49.6757 19.9362
" />
<path d="M49.6757 19.9362
L49.7362 19.9967
" />
<path d="M49.7362 19.9967
L49.7966 20.1176
" />
<path d="M49.7966 20.1176
L49.7966 20.2991
" />
<path d="M49.7966 20.2991
L49.7362 20.4200
" />
<path d="M49.7362 20.4200
L49.6757 20.4805
" />
<path d="M49.6757 20.4805
L49.5547 20.5410
" />
<path d="M49.5547 20.5410
L49.0709 20.5410
" />
<path d="M50.3409 20.6619
L51.3086 20.6619
" />
<path d="M52.0948 20.4200
L51.9738 20.3595
" />
<path d="M51.9738 20.3595
L51.9133 20.2991
" />
<path d="M51.9133 20.2991
L51.8529 20.1781
" />
<path d="M51.8529 20.1781
L51.8529 20.1176
" />
<path d="M51.8529 20.1176
L51.9133 19.9967
" />
<path d="M51.9133 19.9967
L51.9738 19.9362
" />
<path d="M51.9738 19.9362
L52.0948 19.8757
" />
<path d="M52.0948 19.8757
L52.3367 19.8757
" />
<path d="M52.3367 19.8757
L52.4576 19.9362
" />
<path d="M52.4576 19.9362
L52.5181 19.9967
" />
<path d="M52.5181 19.9967
L52.5786 20.1176
" />
<path d="M52.5786 20.1176
L52.5786 20.1781
" />
<path d="M52.5786 20.1781
L52.5181 20.2991
" />
<path d="M52.5181 20.2991
L52.4576 20.3595
" />
<path d="M52.4576 20.3595
L52.3367 20.4200
" />
<path d="M52.3367 20.4200
L52.0948 20.4200
" />
<path d="M52.0948 20.4200
L51.9738 20.4805
" />
<path d="M51.9738 20.4805
L51.9133 20.5410
" />
<path d="M51.9133 20.5410
L51.8529 20.6619
" />
<path d="M51.8529 20.6619
L51.8529 20.9038
" />
<path d="M51.8529 20.9038
L51.9133 21.0248
" />
<path d="M51.9133 21.0248
L51.9738 21.0853
" />
<path d="M51.9738 21.0853
L52.0948 21.1457
" />
<path d="M52.0948 21.1457
L52.3367 21.1457
" />
<path d="M52.3367 21.1457
L52.4576 21.0853
" />
<path d="M52.4576 21.0853
L52.5181 21.0248
" />
<path d="M52.5181 21.0248
L52.5786 20.9038
" />
<path d="M52.5786 20.9038
L52.5786 20.6619
" />
<path d="M52.5786 20.6619
L52.5181 20.5410
" />
<path d="M52.5181 20.5410
L52.4576 20.4805
" />
<path d="M52.4576 20.4805
L52.3367 20.4200
" />
<path d="M52.8205 21.2667
L53.7881 21.2667
" />
<path d="M53.9695 19.8757
L54.7557 19.8757
" />
<path d="M54.7557 19.8757
L54.3323 20.3595
" />
<path d="M54.3323 20.3595
L54.5138 20.3595
" />
<path d="M54.5138 20.3595
L54.6347 20.4200
" />
<path d="M54.6347 20.4200
L54.6952 20.4805
" />
<path d="M54.6952 20.4805
L54.7557 20.6014
" />
<path d="M54.7557 20.6014
L54.7557 20.9038
" />
<path d="M54.7557 20.9038
L54.6952 21.0248
" />
<path d="M54.6952 21.0248
L54.6347 21.0853
" />
<path d="M54.6347 21.0853
L54.5138 21.1457
" />
<path d="M54.5138 21.1457
L54.1509 21.1457
" />
<path d="M54.1509 21.1457
L54.0300 21.0853
" />
<path d="M54.0300 21.0853
L53.9695 21.0248
" />
<path d="M55.1790 21.1457
L55.8442 20.2991
" />
<path d="M55.1790 20.2991
L55.8442 21.1457
" />
<path d="M56.2071 19.8757
L56.9933 19.8757
" />
<path d="M56.9933 19.8757
L56.5699 20.3595
" />
<path d="M56.5699 20.3595
L56.7514 20.3595
" />
<path d="M56.7514 20.3595
L56.8723 20.4200
" />
<path d="M56.8723 20.4200
L56.9328 20.4805
" />
<path d="M56.9328 20.4805
L56.9933 20.6014
" />
<path d="M56.9933 20.6014
L56.9933 20.9038
" />
<path d="M56.9933 20.9038
L56.9328 21.0248
" />
<path d="M56.9328 21.0248
L56.8723 21.0853
" />
<path d="M56.8723 21.0853
L56.7514 21.1457
" />
<path d="M56.7514 21.1457
L56.3885 21.1457
" />
<path d="M56.3885 21.1457
L56.2676 21.0853
" />
<path d="M56.2676 21.0853
L56.2071 21.0248
" />
<path d="M57.5375 21.1457
L57.5375 20.2991
" />
<path d="M57.5375 20.4200
L57.5980 20.3595
" />
<path d="M57.5980 20.3595
L57.7190 20.2991
" />
<path d="M57.7190 20.2991
L57.9004 20.2991
" />
<path d="M57.9004 20.2991
L58.0213 20.3595
" />
<path d="M58.0213 20.3595
L58.0818 20.4805
" />
<path d="M58.0818 20.4805
L58.0818 21.1457
" />
<path d="M58.0818 20.4805
L58.1423 20.3595
" />
<path d="M58.1423 20.3595
L58.2632 20.2991
" />
<path d="M58.2632 20.2991
L58.4447 20.2991
" />
<path d="M58.4447 20.2991
L58.5656 20.3595
" />
<path d="M58.5656 20.3595
L58.6261 20.4805
" />
<path d="M58.6261 20.4805
L58.6261 21.1457
" />
<path d="M59.2308 21.1457
L59.2308 20.2991
" />
<path d="M59.2308 20.4200
L59.2913 20.3595
" />
<path d="M59.2913 20.3595
L59.4123 20.2991
" />
<path d="M59.4123 20.2991
L59.5937 20.2991
" />
<path d="M59.5937 20.2991
L59.7146 20.3595
" />
<path d="M59.7146 20.3595
L59.7751 20.4805
" />
<path d="M59.7751 20.4805
L59.7751 21.1457
" />
<path d="M59.7751 20.4805
L59.8356 20.3595
" />
<path d="M59.8356 20.3595
L59.9565 20.2991
" />
<path d="M59.9565 20.2991
L60.1380 20.2991
" />
<path d="M60.1380 20.2991
L60.2589 20.3595
" />
<path d="M60.2589 20.3595
L60.3194 20.4805
" />
<path d="M60.3194 20.4805
L60.3194 21.1457
" />
<path d="M60.6218 21.2667
L61.5894 21.2667
" />
<path d="M61.8917 21.1457
L61.8917 19.8757
" />
<path d="M61.8917 19.8757
L62.3755 19.8757
" />
<path d="M62.3755 19.8757
L62.4965 19.9362
" />
<path d="M62.4965 19.9362
L62.5570 19.9967
" />
<path d="M62.5570 19.9967
L62.6174 20.1176
" />
<path d="M62.6174 20.1176
L62.6174 20.2991
" />
<path d="M62.6174 20.2991
L62.5570 20.4200
" />
<path d="M62.5570 20.4200
L62.4965 20.4805
" />
<path d="M62.4965 20.4805
L62.3755 20.5410
" />
<path d="M62.3755 20.5410
L61.8917 20.5410
" />
<path d="M63.4036 19.8757
L63.5246 19.8757
" />
<path d="M63.5246 19.8757
L63.6455 19.9362
" />
<path d="M63.6455 19.9362
L63.7060 19.9967
" />
<path d="M63.7060 19.9967
L63.7665 20.1176
" />
<path d="M63.7665 20.1176
L63.8270 20.3595
" />
<path d="M63.8270 20.3595
L63.8270 20.6619
" />
<path d="M63.8270 20.6619
L63.7665 20.9038
" />
<path d="M63.7665 20.9038
L63.7060 21.0248
" />
<path d="M63.7060 21.0248
L63.6455 21.0853
" />
<path d="M63.6455 21.0853
L63.5246 21.1457
" />
<path d="M63.5246 21.1457
L63.4036 21.1457
" />
<path d="M63.4036 21.1457
L63.2827 21.0853
" />
<path d="M63.2827 21.0853
L63.2222 21.0248
" />
<path d="M63.2222 21.0248
L63.1617 20.9038
" />
<path d="M63.1617 20.9038
L63.1013 20.6619
" />
<path d="M63.1013 20.6619
L63.1013 20.3595
" />
<path d="M63.1013 20.3595
L63.1617 20.1176
" />
<path d="M63.1617 20.1176
L63.2222 19.9967
" />
<path d="M63.2222 19.9967
L63.2827 19.9362
" />
<path d="M63.2827 19.9362
L63.4036 19.8757
" />
<path d="M64.3712 21.0248
L64.4317 21.0853
" />
<path d="M64.4317 21.0853
L64.3712 21.1457
" />
<path d="M64.3712 21.1457
L64.3108 21.0853
" />
<path d="M64.3108 21.0853
L64.3712 21.0248
" />
<path d="M64.3712 21.0248
L64.3712 21.1457
" />
<path d="M65.5203 19.8757
L65.2784 19.8757
" />
<path d="M65.2784 19.8757
L65.1575 19.9362
" />
<path d="M65.1575 19.9362
L65.0970 19.9967
" />
<path d="M65.0970 19.9967
L64.9760 20.1781
" />
<path d="M64.9760 20.1781
L64.9156 20.4200
" />
<path d="M64.9156 20.4200
L64.9156 20.9038
" />
<path d="M64.9156 20.9038
L64.9760 21.0248
" />
<path d="M64.9760 21.0248
L65.0365 21.0853
" />
<path d="M65.0365 21.0853
L65.1575 21.1457
" />
<path d="M65.1575 21.1457
L65.3994 21.1457
" />
<path d="M65.3994 21.1457
L65.5203 21.0853
" />
<path d="M65.5203 21.0853
L65.5808 21.0248
" />
<path d="M65.5808 21.0248
L65.6413 20.9038
" />
<path d="M65.6413 20.9038
L65.6413 20.6014
" />
<path d="M65.6413 20.6014
L65.5808 20.4805
" />
<path d="M65.5808 20.4805
L65.5203 20.4200
" />
<path d="M65.5203 20.4200
L65.3994 20.3595
" />
<path d="M65.3994 20.3595
L65.1575 20.3595
" />
<path d="M65.1575 20.3595
L65.0365 20.4200
" />
<path d="M65.0365 20.4200
L64.9760 20.4805
" />
<path d="M64.9760 20.4805
L64.9156 20.6014
" />
<path d="M66.7903 19.8757
L66.1855 19.8757
" />
<path d="M66.1855 19.8757
L66.1251 20.4805
" />
<path d="M66.1251 20.4805
L66.1855 20.4200
" />
<path d="M66.1855 20.4200
L66.3065 20.3595
" />
<path d="M66.3065 20.3595
L66.6089 20.3595
" />
<path d="M66.6089 20.3595
L66.7298 20.4200
" />
<path d="M66.7298 20.4200
L66.7903 20.4805
" />
<path d="M66.7903 20.4805
L66.8508 20.6014
" />
<path d="M66.8508 20.6014
L66.8508 20.9038
" />
<path d="M66.8508 20.9038
L66.7903 21.0248
" />
<path d="M66.7903 21.0248
L66.7298 21.0853
" />
<path d="M66.7298 21.0853
L66.6089 21.1457
" />
<path d="M66.6089 21.1457
L66.3065 21.1457
" />
<path d="M66.3065 21.1457
L66.1855 21.0853
" />
<path d="M66.1855 21.0853
L66.1251 21.0248
" />
<path d="M67.3950 21.1457
L67.3950 20.2991
" />
<path d="M67.3950 20.4200
L67.4555 20.3595
" />
<path d="M67.4555 20.3595
L67.5765 20.2991
" />
<path d="M67.5765 20.2991
L67.7579 20.2991
" />
<path d="M67.7579 20.2991
L67.8788 20.3595
" />
<path d="M67.8788 20.3595
L67.9393 20.4805
" />
<path d="M67.9393 20.4805
L67.9393 21.1457
" />
<path d="M67.9393 20.4805
L67.9998 20.3595
" />
<path d="M67.9998 20.3595
L68.1207 20.2991
" />
<path d="M68.1207 20.2991
L68.3022 20.2991
" />
<path d="M68.3022 20.2991
L68.4231 20.3595
" />
<path d="M68.4231 20.3595
L68.4836 20.4805
" />
<path d="M68.4836 20.4805
L68.4836 21.1457
" />
<path d="M69.0883 21.1457
L69.0883 20.2991
" />
<path d="M69.0883 20.4200
L69.1488 20.3595
" />
<path d="M69.1488 20.3595
L69.2698 20.2991
" />
<path d="M69.2698 20.2991
L69.4512 20.2991
" />
<path d="M69.4512 20.2991
L69.5721 20.3595
" />
<path d="M69.5721 20.3595
L69.6326 20.4805
" />
<path d="M69.6326 20.4805
L69.6326 21.1457
" />
<path d="M69.6326 20.4805
L69.6931 20.3595
" />
<path d="M69.6931 20.3595
L69.8140 20.2991
" />
<path d="M69.8140 20.2991
L69.9955 20.2991
" />
<path d="M69.9955 20.2991
L70.1164 20.3595
" />
<path d="M70.1164 20.3595
L70.1769 20.4805
" />
<path d="M70.1769 20.4805
L70.1769 21.1457
" />
</g><text x="51.6109" y="11.0332"
textLength="86.0183" font-size="1.6933" lengthAdjust="spacingAndGlyphs"
text-anchor="middle" opacity="0">https://www.analog.com/media/en/technical-documentation/data-sheets/171112f.pdf</text>
<g class="stroked-text"><desc>https://www.analog.com/media/en/technical-documentation/data-sheets/171112f.pdf</desc>
<path d="M8.9756 10.9857
L8.9756 9.7157
" />
<path d="M9.5199 10.9857
L9.5199 10.3205
" />
<path d="M9.5199 10.3205
L9.4594 10.1995
" />
<path d="M9.4594 10.1995
L9.3385 10.1391
" />
<path d="M9.3385 10.1391
L9.1571 10.1391
" />
<path d="M9.1571 10.1391
L9.0361 10.1995
" />
<path d="M9.0361 10.1995
L8.9756 10.2600
" />
<path d="M9.9432 10.1391
L10.4270 10.1391
" />
<path d="M10.1246 9.7157
L10.1246 10.8043
" />
<path d="M10.1246 10.8043
L10.1851 10.9253
" />
<path d="M10.1851 10.9253
L10.3061 10.9857
" />
<path d="M10.3061 10.9857
L10.4270 10.9857
" />
<path d="M10.6689 10.1391
L11.1527 10.1391
" />
<path d="M10.8503 9.7157
L10.8503 10.8043
" />
<path d="M10.8503 10.8043
L10.9108 10.9253
" />
<path d="M10.9108 10.9253
L11.0318 10.9857
" />
<path d="M11.0318 10.9857
L11.1527 10.9857
" />
<path d="M11.5760 10.1391
L11.5760 11.4091
" />
<path d="M11.5760 10.1995
L11.6970 10.1391
" />
<path d="M11.6970 10.1391
L11.9389 10.1391
" />
<path d="M11.9389 10.1391
L12.0598 10.1995
" />
<path d="M12.0598 10.1995
L12.1203 10.2600
" />
<path d="M12.1203 10.2600
L12.1808 10.3810
" />
<path d="M12.1808 10.3810
L12.1808 10.7438
" />
<path d="M12.1808 10.7438
L12.1203 10.8648
" />
<path d="M12.1203 10.8648
L12.0598 10.9253
" />
<path d="M12.0598 10.9253
L11.9389 10.9857
" />
<path d="M11.9389 10.9857
L11.6970 10.9857
" />
<path d="M11.6970 10.9857
L11.5760 10.9253
" />
<path d="M12.6646 10.9253
L12.7855 10.9857
" />
<path d="M12.7855 10.9857
L13.0274 10.9857
" />
<path d="M13.0274 10.9857
L13.1484 10.9253
" />
<path d="M13.1484 10.9253
L13.2088 10.8043
" />
<path d="M13.2088 10.8043
L13.2088 10.7438
" />
<path d="M13.2088 10.7438
L13.1484 10.6229
" />
<path d="M13.1484 10.6229
L13.0274 10.5624
" />
<path d="M13.0274 10.5624
L12.8460 10.5624
" />
<path d="M12.8460 10.5624
L12.7250 10.5019
" />
<path d="M12.7250 10.5019
L12.6646 10.3810
" />
<path d="M12.6646 10.3810
L12.6646 10.3205
" />
<path d="M12.6646 10.3205
L12.7250 10.1995
" />
<path d="M12.7250 10.1995
L12.8460 10.1391
" />
<path d="M12.8460 10.1391
L13.0274 10.1391
" />
<path d="M13.0274 10.1391
L13.1484 10.1995
" />
<path d="M13.7531 10.8648
L13.8136 10.9253
" />
<path d="M13.8136 10.9253
L13.7531 10.9857
" />
<path d="M13.7531 10.9857
L13.6927 10.9253
" />
<path d="M13.6927 10.9253
L13.7531 10.8648
" />
<path d="M13.7531 10.8648
L13.7531 10.9857
" />
<path d="M13.7531 10.1995
L13.8136 10.2600
" />
<path d="M13.8136 10.2600
L13.7531 10.3205
" />
<path d="M13.7531 10.3205
L13.6927 10.2600
" />
<path d="M13.6927 10.2600
L13.7531 10.1995
" />
<path d="M13.7531 10.1995
L13.7531 10.3205
" />
<path d="M15.2651 9.6553
L14.1765 11.2881
" />
<path d="M16.5956 9.6553
L15.5070 11.2881
" />
<path d="M16.8980 10.1391
L17.1399 10.9857
" />
<path d="M17.1399 10.9857
L17.3818 10.3810
" />
<path d="M17.3818 10.3810
L17.6237 10.9857
" />
<path d="M17.6237 10.9857
L17.8656 10.1391
" />
<path d="M18.2285 10.1391
L18.4704 10.9857
" />
<path d="M18.4704 10.9857
L18.7123 10.3810
" />
<path d="M18.7123 10.3810
L18.9542 10.9857
" />
<path d="M18.9542 10.9857
L19.1961 10.1391
" />
<path d="M19.5590 10.1391
L19.8009 10.9857
" />
<path d="M19.8009 10.9857
L20.0428 10.3810
" />
<path d="M20.0428 10.3810
L20.2847 10.9857
" />
<path d="M20.2847 10.9857
L20.5266 10.1391
" />
<path d="M21.0104 10.8648
L21.0709 10.9253
" />
<path d="M21.0709 10.9253
L21.0104 10.9857
" />
<path d="M21.0104 10.9857
L20.9500 10.9253
" />
<path d="M20.9500 10.9253
L21.0104 10.8648
" />
<path d="M21.0104 10.8648
L21.0104 10.9857
" />
<path d="M22.1595 10.9857
L22.1595 10.3205
" />
<path d="M22.1595 10.3205
L22.0990 10.1995
" />
<path d="M22.0990 10.1995
L21.9781 10.1391
" />
<path d="M21.9781 10.1391
L21.7362 10.1391
" />
<path d="M21.7362 10.1391
L21.6152 10.1995
" />
<path d="M22.1595 10.9253
L22.0386 10.9857
" />
<path d="M22.0386 10.9857
L21.7362 10.9857
" />
<path d="M21.7362 10.9857
L21.6152 10.9253
" />
<path d="M21.6152 10.9253
L21.5548 10.8043
" />
<path d="M21.5548 10.8043
L21.5548 10.6833
" />
<path d="M21.5548 10.6833
L21.6152 10.5624
" />
<path d="M21.6152 10.5624
L21.7362 10.5019
" />
<path d="M21.7362 10.5019
L22.0386 10.5019
" />
<path d="M22.0386 10.5019
L22.1595 10.4414
" />
<path d="M22.7642 10.1391
L22.7642 10.9857
" />
<path d="M22.7642 10.2600
L22.8247 10.1995
" />
<path d="M22.8247 10.1995
L22.9457 10.1391
" />
<path d="M22.9457 10.1391
L23.1271 10.1391
" />
<path d="M23.1271 10.1391
L23.2480 10.1995
" />
<path d="M23.2480 10.1995
L23.3085 10.3205
" />
<path d="M23.3085 10.3205
L23.3085 10.9857
" />
<path d="M24.4575 10.9857
L24.4575 10.3205
" />
<path d="M24.4575 10.3205
L24.3970 10.1995
" />
<path d="M24.3970 10.1995
L24.2761 10.1391
" />
<path d="M24.2761 10.1391
L24.0342 10.1391
" />
<path d="M24.0342 10.1391
L23.9132 10.1995
" />
<path d="M24.4575 10.9253
L24.3366 10.9857
" />
<path d="M24.3366 10.9857
L24.0342 10.9857
" />
<path d="M24.0342 10.9857
L23.9132 10.9253
" />
<path d="M23.9132 10.9253
L23.8528 10.8043
" />
<path d="M23.8528 10.8043
L23.8528 10.6833
" />
<path d="M23.8528 10.6833
L23.9132 10.5624
" />
<path d="M23.9132 10.5624
L24.0342 10.5019
" />
<path d="M24.0342 10.5019
L24.3366 10.5019
" />
<path d="M24.3366 10.5019
L24.4575 10.4414
" />
<path d="M25.2437 10.9857
L25.1227 10.9253
" />
<path d="M25.1227 10.9253
L25.0622 10.8043
" />
<path d="M25.0622 10.8043
L25.0622 9.7157
" />
<path d="M25.9089 10.9857
L25.7879 10.9253
" />
<path d="M25.7879 10.9253
L25.7274 10.8648
" />
<path d="M25.7274 10.8648
L25.6670 10.7438
" />
<path d="M25.6670 10.7438
L25.6670 10.3810
" />
<path d="M25.6670 10.3810
L25.7274 10.2600
" />
<path d="M25.7274 10.2600
L25.7879 10.1995
" />
<path d="M25.7879 10.1995
L25.9089 10.1391
" />
<path d="M25.9089 10.1391
L26.0903 10.1391
" />
<path d="M26.0903 10.1391
L26.2112 10.1995
" />
<path d="M26.2112 10.1995
L26.2717 10.2600
" />
<path d="M26.2717 10.2600
L26.3322 10.3810
" />
<path d="M26.3322 10.3810
L26.3322 10.7438
" />
<path d="M26.3322 10.7438
L26.2717 10.8648
" />
<path d="M26.2717 10.8648
L26.2112 10.9253
" />
<path d="M26.2112 10.9253
L26.0903 10.9857
" />
<path d="M26.0903 10.9857
L25.9089 10.9857
" />
<path d="M27.4207 10.1391
L27.4207 11.1672
" />
<path d="M27.4207 11.1672
L27.3602 11.2881
" />
<path d="M27.3602 11.2881
L27.2998 11.3486
" />
<path d="M27.2998 11.3486
L27.1788 11.4091
" />
<path d="M27.1788 11.4091
L26.9974 11.4091
" />
<path d="M26.9974 11.4091
L26.8764 11.3486
" />
<path d="M27.4207 10.9253
L27.2998 10.9857
" />
<path d="M27.2998 10.9857
L27.0579 10.9857
" />
<path d="M27.0579 10.9857
L26.9369 10.9253
" />
<path d="M26.9369 10.9253
L26.8764 10.8648
" />
<path d="M26.8764 10.8648
L26.8160 10.7438
" />
<path d="M26.8160 10.7438
L26.8160 10.3810
" />
<path d="M26.8160 10.3810
L26.8764 10.2600
" />
<path d="M26.8764 10.2600
L26.9369 10.1995
" />
<path d="M26.9369 10.1995
L27.0579 10.1391
" />
<path d="M27.0579 10.1391
L27.2998 10.1391
" />
<path d="M27.2998 10.1391
L27.4207 10.1995
" />
<path d="M28.0254 10.8648
L28.0859 10.9253
" />
<path d="M28.0859 10.9253
L28.0254 10.9857
" />
<path d="M28.0254 10.9857
L27.9650 10.9253
" />
<path d="M27.9650 10.9253
L28.0254 10.8648
" />
<path d="M28.0254 10.8648
L28.0254 10.9857
" />
<path d="M29.1745 10.9253
L29.0536 10.9857
" />
<path d="M29.0536 10.9857
L28.8117 10.9857
" />
<path d="M28.8117 10.9857
L28.6907 10.9253
" />
<path d="M28.6907 10.9253
L28.6302 10.8648
" />
<path d="M28.6302 10.8648
L28.5698 10.7438
" />
<path d="M28.5698 10.7438
L28.5698 10.3810
" />
<path d="M28.5698 10.3810
L28.6302 10.2600
" />
<path d="M28.6302 10.2600
L28.6907 10.1995
" />
<path d="M28.6907 10.1995
L28.8117 10.1391
" />
<path d="M28.8117 10.1391
L29.0536 10.1391
" />
<path d="M29.0536 10.1391
L29.1745 10.1995
" />
<path d="M29.9003 10.9857
L29.7793 10.9253
" />
<path d="M29.7793 10.9253
L29.7188 10.8648
" />
<path d="M29.7188 10.8648
L29.6584 10.7438
" />
<path d="M29.6584 10.7438
L29.6584 10.3810
" />
<path d="M29.6584 10.3810
L29.7188 10.2600
" />
<path d="M29.7188 10.2600
L29.7793 10.1995
" />
<path d="M29.7793 10.1995
L29.9003 10.1391
" />
<path d="M29.9003 10.1391
L30.0817 10.1391
" />
<path d="M30.0817 10.1391
L30.2026 10.1995
" />
<path d="M30.2026 10.1995
L30.2631 10.2600
" />
<path d="M30.2631 10.2600
L30.3236 10.3810
" />
<path d="M30.3236 10.3810
L30.3236 10.7438
" />
<path d="M30.3236 10.7438
L30.2631 10.8648
" />
<path d="M30.2631 10.8648
L30.2026 10.9253
" />
<path d="M30.2026 10.9253
L30.0817 10.9857
" />
<path d="M30.0817 10.9857
L29.9003 10.9857
" />
<path d="M30.8678 10.9857
L30.8678 10.1391
" />
<path d="M30.8678 10.2600
L30.9283 10.1995
" />
<path d="M30.9283 10.1995
L31.0493 10.1391
" />
<path d="M31.0493 10.1391
L31.2307 10.1391
" />
<path d="M31.2307 10.1391
L31.3516 10.1995
" />
<path d="M31.3516 10.1995
L31.4121 10.3205
" />
<path d="M31.4121 10.3205
L31.4121 10.9857
" />
<path d="M31.4121 10.3205
L31.4726 10.1995
" />
<path d="M31.4726 10.1995
L31.5935 10.1391
" />
<path d="M31.5935 10.1391
L31.7750 10.1391
" />
<path d="M31.7750 10.1391
L31.8959 10.1995
" />
<path d="M31.8959 10.1995
L31.9564 10.3205
" />
<path d="M31.9564 10.3205
L31.9564 10.9857
" />
<path d="M33.4683 9.6553
L32.3797 11.2881
" />
<path d="M33.8916 10.9857
L33.8916 10.1391
" />
<path d="M33.8916 10.2600
L33.9521 10.1995
" />
<path d="M33.9521 10.1995
L34.0731 10.1391
" />
<path d="M34.0731 10.1391
L34.2545 10.1391
" />
<path d="M34.2545 10.1391
L34.3754 10.1995
" />
<path d="M34.3754 10.1995
L34.4359 10.3205
" />
<path d="M34.4359 10.3205
L34.4359 10.9857
" />
<path d="M34.4359 10.3205
L34.4964 10.1995
" />
<path d="M34.4964 10.1995
L34.6173 10.1391
" />
<path d="M34.6173 10.1391
L34.7988 10.1391
" />
<path d="M34.7988 10.1391
L34.9197 10.1995
" />
<path d="M34.9197 10.1995
L34.9802 10.3205
" />
<path d="M34.9802 10.3205
L34.9802 10.9857
" />
<path d="M36.0687 10.9253
L35.9478 10.9857
" />
<path d="M35.9478 10.9857
L35.7059 10.9857
" />
<path d="M35.7059 10.9857
L35.5849 10.9253
" />
<path d="M35.5849 10.9253
L35.5245 10.8043
" />
<path d="M35.5245 10.8043
L35.5245 10.3205
" />
<path d="M35.5245 10.3205
L35.5849 10.1995
" />
<path d="M35.5849 10.1995
L35.7059 10.1391
" />
<path d="M35.7059 10.1391
L35.9478 10.1391
" />
<path d="M35.9478 10.1391
L36.0687 10.1995
" />
<path d="M36.0687 10.1995
L36.1292 10.3205
" />
<path d="M36.1292 10.3205
L36.1292 10.4414
" />
<path d="M36.1292 10.4414
L35.5245 10.5624
" />
<path d="M37.2178 10.9857
L37.2178 9.7157
" />
<path d="M37.2178 10.9253
L37.0969 10.9857
" />
<path d="M37.0969 10.9857
L36.8550 10.9857
" />
<path d="M36.8550 10.9857
L36.7340 10.9253
" />
<path d="M36.7340 10.9253
L36.6735 10.8648
" />
<path d="M36.6735 10.8648
L36.6131 10.7438
" />
<path d="M36.6131 10.7438
L36.6131 10.3810
" />
<path d="M36.6131 10.3810
L36.6735 10.2600
" />
<path d="M36.6735 10.2600
L36.7340 10.1995
" />
<path d="M36.7340 10.1995
L36.8550 10.1391
" />
<path d="M36.8550 10.1391
L37.0969 10.1391
" />
<path d="M37.0969 10.1391
L37.2178 10.1995
" />
<path d="M37.8225 10.9857
L37.8225 10.1391
" />
<path d="M37.8225 9.7157
L37.7621 9.7762
" />
<path d="M37.7621 9.7762
L37.8225 9.8367
" />
<path d="M37.8225 9.8367
L37.8830 9.7762
" />
<path d="M37.8830 9.7762
L37.8225 9.7157
" />
<path d="M37.8225 9.7157
L37.8225 9.8367
" />
<path d="M38.9716 10.9857
L38.9716 10.3205
" />
<path d="M38.9716 10.3205
L38.9111 10.1995
" />
<path d="M38.9111 10.1995
L38.7902 10.1391
" />
<path d="M38.7902 10.1391
L38.5483 10.1391
" />
<path d="M38.5483 10.1391
L38.4273 10.1995
" />
<path d="M38.9716 10.9253
L38.8507 10.9857
" />
<path d="M38.8507 10.9857
L38.5483 10.9857
" />
<path d="M38.5483 10.9857
L38.4273 10.9253
" />
<path d="M38.4273 10.9253
L38.3669 10.8043
" />
<path d="M38.3669 10.8043
L38.3669 10.6833
" />
<path d="M38.3669 10.6833
L38.4273 10.5624
" />
<path d="M38.4273 10.5624
L38.5483 10.5019
" />
<path d="M38.5483 10.5019
L38.8507 10.5019
" />
<path d="M38.8507 10.5019
L38.9716 10.4414
" />
<path d="M40.4835 9.6553
L39.3949 11.2881
" />
<path d="M41.3906 10.9253
L41.2697 10.9857
" />
<path d="M41.2697 10.9857
L41.0278 10.9857
" />
<path d="M41.0278 10.9857
L40.9068 10.9253
" />
<path d="M40.9068 10.9253
L40.8464 10.8043
" />
<path d="M40.8464 10.8043
L40.8464 10.3205
" />
<path d="M40.8464 10.3205
L40.9068 10.1995
" />
<path d="M40.9068 10.1995
L41.0278 10.1391
" />
<path d="M41.0278 10.1391
L41.2697 10.1391
" />
<path d="M41.2697 10.1391
L41.3906 10.1995
" />
<path d="M41.3906 10.1995
L41.4511 10.3205
" />
<path d="M41.4511 10.3205
L41.4511 10.4414
" />
<path d="M41.4511 10.4414
L40.8464 10.5624
" />
<path d="M41.9954 10.1391
L41.9954 10.9857
" />
<path d="M41.9954 10.2600
L42.0559 10.1995
" />
<path d="M42.0559 10.1995
L42.1769 10.1391
" />
<path d="M42.1769 10.1391
L42.3583 10.1391
" />
<path d="M42.3583 10.1391
L42.4792 10.1995
" />
<path d="M42.4792 10.1995
L42.5397 10.3205
" />
<path d="M42.5397 10.3205
L42.5397 10.9857
" />
<path d="M44.0516 9.6553
L42.9630 11.2881
" />
<path d="M44.2935 10.1391
L44.7773 10.1391
" />
<path d="M44.4749 9.7157
L44.4749 10.8043
" />
<path d="M44.4749 10.8043
L44.5354 10.9253
" />
<path d="M44.5354 10.9253
L44.6564 10.9857
" />
<path d="M44.6564 10.9857
L44.7773 10.9857
" />
<path d="M45.6844 10.9253
L45.5635 10.9857
" />
<path d="M45.5635 10.9857
L45.3216 10.9857
" />
<path d="M45.3216 10.9857
L45.2006 10.9253
" />
<path d="M45.2006 10.9253
L45.1402 10.8043
" />
<path d="M45.1402 10.8043
L45.1402 10.3205
" />
<path d="M45.1402 10.3205
L45.2006 10.1995
" />
<path d="M45.2006 10.1995
L45.3216 10.1391
" />
<path d="M45.3216 10.1391
L45.5635 10.1391
" />
<path d="M45.5635 10.1391
L45.6844 10.1995
" />
<path d="M45.6844 10.1995
L45.7449 10.3205
" />
<path d="M45.7449 10.3205
L45.7449 10.4414
" />
<path d="M45.7449 10.4414
L45.1402 10.5624
" />
<path d="M46.8335 10.9253
L46.7126 10.9857
" />
<path d="M46.7126 10.9857
L46.4707 10.9857
" />
<path d="M46.4707 10.9857
L46.3497 10.9253
" />
<path d="M46.3497 10.9253
L46.2892 10.8648
" />
<path d="M46.2892 10.8648
L46.2288 10.7438
" />
<path d="M46.2288 10.7438
L46.2288 10.3810
" />
<path d="M46.2288 10.3810
L46.2892 10.2600
" />
<path d="M46.2892 10.2600
L46.3497 10.1995
" />
<path d="M46.3497 10.1995
L46.4707 10.1391
" />
<path d="M46.4707 10.1391
L46.7126 10.1391
" />
<path d="M46.7126 10.1391
L46.8335 10.1995
" />
<path d="M47.3778 10.9857
L47.3778 9.7157
" />
<path d="M47.9221 10.9857
L47.9221 10.3205
" />
<path d="M47.9221 10.3205
L47.8616 10.1995
" />
<path d="M47.8616 10.1995
L47.7407 10.1391
" />
<path d="M47.7407 10.1391
L47.5593 10.1391
" />
<path d="M47.5593 10.1391
L47.4383 10.1995
" />
<path d="M47.4383 10.1995
L47.3778 10.2600
" />
<path d="M48.5268 10.1391
L48.5268 10.9857
" />
<path d="M48.5268 10.2600
L48.5873 10.1995
" />
<path d="M48.5873 10.1995
L48.7083 10.1391
" />
<path d="M48.7083 10.1391
L48.8897 10.1391
" />
<path d="M48.8897 10.1391
L49.0106 10.1995
" />
<path d="M49.0106 10.1995
L49.0711 10.3205
" />
<path d="M49.0711 10.3205
L49.0711 10.9857
" />
<path d="M49.6758 10.9857
L49.6758 10.1391
" />
<path d="M49.6758 9.7157
L49.6154 9.7762
" />
<path d="M49.6154 9.7762
L49.6758 9.8367
" />
<path d="M49.6758 9.8367
L49.7363 9.7762
" />
<path d="M49.7363 9.7762
L49.6758 9.7157
" />
<path d="M49.6758 9.7157
L49.6758 9.8367
" />
<path d="M50.8249 10.9253
L50.7040 10.9857
" />
<path d="M50.7040 10.9857
L50.4621 10.9857
" />
<path d="M50.4621 10.9857
L50.3411 10.9253
" />
<path d="M50.3411 10.9253
L50.2806 10.8648
" />
<path d="M50.2806 10.8648
L50.2202 10.7438
" />
<path d="M50.2202 10.7438
L50.2202 10.3810
" />
<path d="M50.2202 10.3810
L50.2806 10.2600
" />
<path d="M50.2806 10.2600
L50.3411 10.1995
" />
<path d="M50.3411 10.1995
L50.4621 10.1391
" />
<path d="M50.4621 10.1391
L50.7040 10.1391
" />
<path d="M50.7040 10.1391
L50.8249 10.1995
" />
<path d="M51.9135 10.9857
L51.9135 10.3205
" />
<path d="M51.9135 10.3205
L51.8530 10.1995
" />
<path d="M51.8530 10.1995
L51.7321 10.1391
" />
<path d="M51.7321 10.1391
L51.4902 10.1391
" />
<path d="M51.4902 10.1391
L51.3692 10.1995
" />
<path d="M51.9135 10.9253
L51.7926 10.9857
" />
<path d="M51.7926 10.9857
L51.4902 10.9857
" />
<path d="M51.4902 10.9857
L51.3692 10.9253
" />
<path d="M51.3692 10.9253
L51.3088 10.8043
" />
<path d="M51.3088 10.8043
L51.3088 10.6833
" />
<path d="M51.3088 10.6833
L51.3692 10.5624
" />
<path d="M51.3692 10.5624
L51.4902 10.5019
" />
<path d="M51.4902 10.5019
L51.7926 10.5019
" />
<path d="M51.7926 10.5019
L51.9135 10.4414
" />
<path d="M52.6997 10.9857
L52.5787 10.9253
" />
<path d="M52.5787 10.9253
L52.5182 10.8043
" />
<path d="M52.5182 10.8043
L52.5182 9.7157
" />
<path d="M53.1834 10.5019
L54.1511 10.5019
" />
<path d="M55.3001 10.9857
L55.3001 9.7157
" />
<path d="M55.3001 10.9253
L55.1792 10.9857
" />
<path d="M55.1792 10.9857
L54.9373 10.9857
" />
<path d="M54.9373 10.9857
L54.8163 10.9253
" />
<path d="M54.8163 10.9253
L54.7558 10.8648
" />
<path d="M54.7558 10.8648
L54.6954 10.7438
" />
<path d="M54.6954 10.7438
L54.6954 10.3810
" />
<path d="M54.6954 10.3810
L54.7558 10.2600
" />
<path d="M54.7558 10.2600
L54.8163 10.1995
" />
<path d="M54.8163 10.1995
L54.9373 10.1391
" />
<path d="M54.9373 10.1391
L55.1792 10.1391
" />
<path d="M55.1792 10.1391
L55.3001 10.1995
" />
<path d="M56.0863 10.9857
L55.9653 10.9253
" />
<path d="M55.9653 10.9253
L55.9048 10.8648
" />
<path d="M55.9048 10.8648
L55.8444 10.7438
" />
<path d="M55.8444 10.7438
L55.8444 10.3810
" />
<path d="M55.8444 10.3810
L55.9048 10.2600
" />
<path d="M55.9048 10.2600
L55.9653 10.1995
" />
<path d="M55.9653 10.1995
L56.0863 10.1391
" />
<path d="M56.0863 10.1391
L56.2677 10.1391
" />
<path d="M56.2677 10.1391
L56.3886 10.1995
" />
<path d="M56.3886 10.1995
L56.4491 10.2600
" />
<path d="M56.4491 10.2600
L56.5096 10.3810
" />
<path d="M56.5096 10.3810
L56.5096 10.7438
" />
<path d="M56.5096 10.7438
L56.4491 10.8648
" />
<path d="M56.4491 10.8648
L56.3886 10.9253
" />
<path d="M56.3886 10.9253
L56.2677 10.9857
" />
<path d="M56.2677 10.9857
L56.0863 10.9857
" />
<path d="M57.5981 10.9253
L57.4772 10.9857
" />
<path d="M57.4772 10.9857
L57.2353 10.9857
" />
<path d="M57.2353 10.9857
L57.1143 10.9253
" />
<path d="M57.1143 10.9253
L57.0538 10.8648
" />
<path d="M57.0538 10.8648
L56.9934 10.7438
" />
<path d="M56.9934 10.7438
L56.9934 10.3810
" />
<path d="M56.9934 10.3810
L57.0538 10.2600
" />
<path d="M57.0538 10.2600
L57.1143 10.1995
" />
<path d="M57.1143 10.1995
L57.2353 10.1391
" />
<path d="M57.2353 10.1391
L57.4772 10.1391
" />
<path d="M57.4772 10.1391
L57.5981 10.1995
" />
<path d="M58.6867 10.1391
L58.6867 10.9857
" />
<path d="M58.1424 10.1391
L58.1424 10.8043
" />
<path d="M58.1424 10.8043
L58.2029 10.9253
" />
<path d="M58.2029 10.9253
L58.3239 10.9857
" />
<path d="M58.3239 10.9857
L58.5053 10.9857
" />
<path d="M58.5053 10.9857
L58.6262 10.9253
" />
<path d="M58.6262 10.9253
L58.6867 10.8648
" />
<path d="M59.2914 10.9857
L59.2914 10.1391
" />
<path d="M59.2914 10.2600
L59.3519 10.1995
" />
<path d="M59.3519 10.1995
L59.4729 10.1391
" />
<path d="M59.4729 10.1391
L59.6543 10.1391
" />
<path d="M59.6543 10.1391
L59.7752 10.1995
" />
<path d="M59.7752 10.1995
L59.8357 10.3205
" />
<path d="M59.8357 10.3205
L59.8357 10.9857
" />
<path d="M59.8357 10.3205
L59.8962 10.1995
" />
<path d="M59.8962 10.1995
L60.0171 10.1391
" />
<path d="M60.0171 10.1391
L60.1986 10.1391
" />
<path d="M60.1986 10.1391
L60.3195 10.1995
" />
<path d="M60.3195 10.1995
L60.3800 10.3205
" />
<path d="M60.3800 10.3205
L60.3800 10.9857
" />
<path d="M61.4685 10.9253
L61.3476 10.9857
" />
<path d="M61.3476 10.9857
L61.1057 10.9857
" />
<path d="M61.1057 10.9857
L60.9847 10.9253
" />
<path d="M60.9847 10.9253
L60.9243 10.8043
" />
<path d="M60.9243 10.8043
L60.9243 10.3205
" />
<path d="M60.9243 10.3205
L60.9847 10.1995
" />
<path d="M60.9847 10.1995
L61.1057 10.1391
" />
<path d="M61.1057 10.1391
L61.3476 10.1391
" />
<path d="M61.3476 10.1391
L61.4685 10.1995
" />
<path d="M61.4685 10.1995
L61.5290 10.3205
" />
<path d="M61.5290 10.3205
L61.5290 10.4414
" />
<path d="M61.5290 10.4414
L60.9243 10.5624
" />
<path d="M62.0733 10.1391
L62.0733 10.9857
" />
<path d="M62.0733 10.2600
L62.1338 10.1995
" />
<path d="M62.1338 10.1995
L62.2548 10.1391
" />
<path d="M62.2548 10.1391
L62.4362 10.1391
" />
<path d="M62.4362 10.1391
L62.5571 10.1995
" />
<path d="M62.5571 10.1995
L62.6176 10.3205
" />
<path d="M62.6176 10.3205
L62.6176 10.9857
" />
<path d="M63.0409 10.1391
L63.5247 10.1391
" />
<path d="M63.2223 9.7157
L63.2223 10.8043
" />
<path d="M63.2223 10.8043
L63.2828 10.9253
" />
<path d="M63.2828 10.9253
L63.4038 10.9857
" />
<path d="M63.4038 10.9857
L63.5247 10.9857
" />
<path d="M64.4923 10.9857
L64.4923 10.3205
" />
<path d="M64.4923 10.3205
L64.4318 10.1995
" />
<path d="M64.4318 10.1995
L64.3109 10.1391
" />
<path d="M64.3109 10.1391
L64.0690 10.1391
" />
<path d="M64.0690 10.1391
L63.9480 10.1995
" />
<path d="M64.4923 10.9253
L64.3714 10.9857
" />
<path d="M64.3714 10.9857
L64.0690 10.9857
" />
<path d="M64.0690 10.9857
L63.9480 10.9253
" />
<path d="M63.9480 10.9253
L63.8876 10.8043
" />
<path d="M63.8876 10.8043
L63.8876 10.6833
" />
<path d="M63.8876 10.6833
L63.9480 10.5624
" />
<path d="M63.9480 10.5624
L64.0690 10.5019
" />
<path d="M64.0690 10.5019
L64.3714 10.5019
" />
<path d="M64.3714 10.5019
L64.4923 10.4414
" />
<path d="M64.9156 10.1391
L65.3994 10.1391
" />
<path d="M65.0970 9.7157
L65.0970 10.8043
" />
<path d="M65.0970 10.8043
L65.1575 10.9253
" />
<path d="M65.1575 10.9253
L65.2785 10.9857
" />
<path d="M65.2785 10.9857
L65.3994 10.9857
" />
<path d="M65.8227 10.9857
L65.8227 10.1391
" />
<path d="M65.8227 9.7157
L65.7623 9.7762
" />
<path d="M65.7623 9.7762
L65.8227 9.8367
" />
<path d="M65.8227 9.8367
L65.8832 9.7762
" />
<path d="M65.8832 9.7762
L65.8227 9.7157
" />
<path d="M65.8227 9.7157
L65.8227 9.8367
" />
<path d="M66.6090 10.9857
L66.4880 10.9253
" />
<path d="M66.4880 10.9253
L66.4275 10.8648
" />
<path d="M66.4275 10.8648
L66.3671 10.7438
" />
<path d="M66.3671 10.7438
L66.3671 10.3810
" />
<path d="M66.3671 10.3810
L66.4275 10.2600
" />
<path d="M66.4275 10.2600
L66.4880 10.1995
" />
<path d="M66.4880 10.1995
L66.6090 10.1391
" />
<path d="M66.6090 10.1391
L66.7904 10.1391
" />
<path d="M66.7904 10.1391
L66.9113 10.1995
" />
<path d="M66.9113 10.1995
L66.9718 10.2600
" />
<path d="M66.9718 10.2600
L67.0323 10.3810
" />
<path d="M67.0323 10.3810
L67.0323 10.7438
" />
<path d="M67.0323 10.7438
L66.9718 10.8648
" />
<path d="M66.9718 10.8648
L66.9113 10.9253
" />
<path d="M66.9113 10.9253
L66.7904 10.9857
" />
<path d="M66.7904 10.9857
L66.6090 10.9857
" />
<path d="M67.5765 10.1391
L67.5765 10.9857
" />
<path d="M67.5765 10.2600
L67.6370 10.1995
" />
<path d="M67.6370 10.1995
L67.7580 10.1391
" />
<path d="M67.7580 10.1391
L67.9394 10.1391
" />
<path d="M67.9394 10.1391
L68.0603 10.1995
" />
<path d="M68.0603 10.1995
L68.1208 10.3205
" />
<path d="M68.1208 10.3205
L68.1208 10.9857
" />
<path d="M69.6327 9.6553
L68.5441 11.2881
" />
<path d="M70.6003 10.9857
L70.6003 9.7157
" />
<path d="M70.6003 10.9253
L70.4794 10.9857
" />
<path d="M70.4794 10.9857
L70.2375 10.9857
" />
<path d="M70.2375 10.9857
L70.1165 10.9253
" />
<path d="M70.1165 10.9253
L70.0560 10.8648
" />
<path d="M70.0560 10.8648
L69.9956 10.7438
" />
<path d="M69.9956 10.7438
L69.9956 10.3810
" />
<path d="M69.9956 10.3810
L70.0560 10.2600
" />
<path d="M70.0560 10.2600
L70.1165 10.1995
" />
<path d="M70.1165 10.1995
L70.2375 10.1391
" />
<path d="M70.2375 10.1391
L70.4794 10.1391
" />
<path d="M70.4794 10.1391
L70.6003 10.1995
" />
<path d="M71.7493 10.9857
L71.7493 10.3205
" />
<path d="M71.7493 10.3205
L71.6888 10.1995
" />
<path d="M71.6888 10.1995
L71.5679 10.1391
" />
<path d="M71.5679 10.1391
L71.3260 10.1391
" />
<path d="M71.3260 10.1391
L71.2050 10.1995
" />
<path d="M71.7493 10.9253
L71.6284 10.9857
" />
<path d="M71.6284 10.9857
L71.3260 10.9857
" />
<path d="M71.3260 10.9857
L71.2050 10.9253
" />
<path d="M71.2050 10.9253
L71.1446 10.8043
" />
<path d="M71.1446 10.8043
L71.1446 10.6833
" />
<path d="M71.1446 10.6833
L71.2050 10.5624
" />
<path d="M71.2050 10.5624
L71.3260 10.5019
" />
<path d="M71.3260 10.5019
L71.6284 10.5019
" />
<path d="M71.6284 10.5019
L71.7493 10.4414
" />
<path d="M72.1726 10.1391
L72.6564 10.1391
" />
<path d="M72.3540 9.7157
L72.3540 10.8043
" />
<path d="M72.3540 10.8043
L72.4145 10.9253
" />
<path d="M72.4145 10.9253
L72.5355 10.9857
" />
<path d="M72.5355 10.9857
L72.6564 10.9857
" />
<path d="M73.6240 10.9857
L73.6240 10.3205
" />
<path d="M73.6240 10.3205
L73.5635 10.1995
" />
<path d="M73.5635 10.1995
L73.4426 10.1391
" />
<path d="M73.4426 10.1391
L73.2007 10.1391
" />
<path d="M73.2007 10.1391
L73.0797 10.1995
" />
<path d="M73.6240 10.9253
L73.5031 10.9857
" />
<path d="M73.5031 10.9857
L73.2007 10.9857
" />
<path d="M73.2007 10.9857
L73.0797 10.9253
" />
<path d="M73.0797 10.9253
L73.0193 10.8043
" />
<path d="M73.0193 10.8043
L73.0193 10.6833
" />
<path d="M73.0193 10.6833
L73.0797 10.5624
" />
<path d="M73.0797 10.5624
L73.2007 10.5019
" />
<path d="M73.2007 10.5019
L73.5031 10.5019
" />
<path d="M73.5031 10.5019
L73.6240 10.4414
" />
<path d="M74.2287 10.5019
L75.1964 10.5019
" />
<path d="M75.7407 10.9253
L75.8616 10.9857
" />
<path d="M75.8616 10.9857
L76.1035 10.9857
" />
<path d="M76.1035 10.9857
L76.2245 10.9253
" />
<path d="M76.2245 10.9253
L76.2849 10.8043
" />
<path d="M76.2849 10.8043
L76.2849 10.7438
" />
<path d="M76.2849 10.7438
L76.2245 10.6229
" />
<path d="M76.2245 10.6229
L76.1035 10.5624
" />
<path d="M76.1035 10.5624
L75.9221 10.5624
" />
<path d="M75.9221 10.5624
L75.8011 10.5019
" />
<path d="M75.8011 10.5019
L75.7407 10.3810
" />
<path d="M75.7407 10.3810
L75.7407 10.3205
" />
<path d="M75.7407 10.3205
L75.8011 10.1995
" />
<path d="M75.8011 10.1995
L75.9221 10.1391
" />
<path d="M75.9221 10.1391
L76.1035 10.1391
" />
<path d="M76.1035 10.1391
L76.2245 10.1995
" />
<path d="M76.8292 10.9857
L76.8292 9.7157
" />
<path d="M77.3735 10.9857
L77.3735 10.3205
" />
<path d="M77.3735 10.3205
L77.3130 10.1995
" />
<path d="M77.3130 10.1995
L77.1921 10.1391
" />
<path d="M77.1921 10.1391
L77.0107 10.1391
" />
<path d="M77.0107 10.1391
L76.8897 10.1995
" />
<path d="M76.8897 10.1995
L76.8292 10.2600
" />
<path d="M78.4620 10.9253
L78.3411 10.9857
" />
<path d="M78.3411 10.9857
L78.0992 10.9857
" />
<path d="M78.0992 10.9857
L77.9782 10.9253
" />
<path d="M77.9782 10.9253
L77.9178 10.8043
" />
<path d="M77.9178 10.8043
L77.9178 10.3205
" />
<path d="M77.9178 10.3205
L77.9782 10.1995
" />
<path d="M77.9782 10.1995
L78.0992 10.1391
" />
<path d="M78.0992 10.1391
L78.3411 10.1391
" />
<path d="M78.3411 10.1391
L78.4620 10.1995
" />
<path d="M78.4620 10.1995
L78.5225 10.3205
" />
<path d="M78.5225 10.3205
L78.5225 10.4414
" />
<path d="M78.5225 10.4414
L77.9178 10.5624
" />
<path d="M79.5506 10.9253
L79.4297 10.9857
" />
<path d="M79.4297 10.9857
L79.1878 10.9857
" />
<path d="M79.1878 10.9857
L79.0668 10.9253
" />
<path d="M79.0668 10.9253
L79.0064 10.8043
" />
<path d="M79.0064 10.8043
L79.0064 10.3205
" />
<path d="M79.0064 10.3205
L79.0668 10.1995
" />
<path d="M79.0668 10.1995
L79.1878 10.1391
" />
<path d="M79.1878 10.1391
L79.4297 10.1391
" />
<path d="M79.4297 10.1391
L79.5506 10.1995
" />
<path d="M79.5506 10.1995
L79.6111 10.3205
" />
<path d="M79.6111 10.3205
L79.6111 10.4414
" />
<path d="M79.6111 10.4414
L79.0064 10.5624
" />
<path d="M79.9740 10.1391
L80.4578 10.1391
" />
<path d="M80.1554 9.7157
L80.1554 10.8043
" />
<path d="M80.1554 10.8043
L80.2159 10.9253
" />
<path d="M80.2159 10.9253
L80.3369 10.9857
" />
<path d="M80.3369 10.9857
L80.4578 10.9857
" />
<path d="M80.8207 10.9253
L80.9416 10.9857
" />
<path d="M80.9416 10.9857
L81.1835 10.9857
" />
<path d="M81.1835 10.9857
L81.3045 10.9253
" />
<path d="M81.3045 10.9253
L81.3649 10.8043
" />
<path d="M81.3649 10.8043
L81.3649 10.7438
" />
<path d="M81.3649 10.7438
L81.3045 10.6229
" />
<path d="M81.3045 10.6229
L81.1835 10.5624
" />
<path d="M81.1835 10.5624
L81.0021 10.5624
" />
<path d="M81.0021 10.5624
L80.8811 10.5019
" />
<path d="M80.8811 10.5019
L80.8207 10.3810
" />
<path d="M80.8207 10.3810
L80.8207 10.3205
" />
<path d="M80.8207 10.3205
L80.8811 10.1995
" />
<path d="M80.8811 10.1995
L81.0021 10.1391
" />
<path d="M81.0021 10.1391
L81.1835 10.1391
" />
<path d="M81.1835 10.1391
L81.3045 10.1995
" />
<path d="M82.8164 9.6553
L81.7278 11.2881
" />
<path d="M83.9050 10.9857
L83.1793 10.9857
" />
<path d="M83.5421 10.9857
L83.5421 9.7157
" />
<path d="M83.5421 9.7157
L83.4212 9.8972
" />
<path d="M83.4212 9.8972
L83.3002 10.0181
" />
<path d="M83.3002 10.0181
L83.1793 10.0786
" />
<path d="M84.3283 9.7157
L85.1749 9.7157
" />
<path d="M85.1749 9.7157
L84.6307 10.9857
" />
<path d="M86.3240 10.9857
L85.5983 10.9857
" />
<path d="M85.9611 10.9857
L85.9611 9.7157
" />
<path d="M85.9611 9.7157
L85.8402 9.8972
" />
<path d="M85.8402 9.8972
L85.7192 10.0181
" />
<path d="M85.7192 10.0181
L85.5983 10.0786
" />
<path d="M87.5335 10.9857
L86.8078 10.9857
" />
<path d="M87.1706 10.9857
L87.1706 9.7157
" />
<path d="M87.1706 9.7157
L87.0497 9.8972
" />
<path d="M87.0497 9.8972
L86.9287 10.0181
" />
<path d="M86.9287 10.0181
L86.8078 10.0786
" />
<path d="M88.7430 10.9857
L88.0173 10.9857
" />
<path d="M88.3801 10.9857
L88.3801 9.7157
" />
<path d="M88.3801 9.7157
L88.2592 9.8972
" />
<path d="M88.2592 9.8972
L88.1382 10.0181
" />
<path d="M88.1382 10.0181
L88.0173 10.0786
" />
<path d="M89.2268 9.8367
L89.2872 9.7762
" />
<path d="M89.2872 9.7762
L89.4082 9.7157
" />
<path d="M89.4082 9.7157
L89.7106 9.7157
" />
<path d="M89.7106 9.7157
L89.8315 9.7762
" />
<path d="M89.8315 9.7762
L89.8920 9.8367
" />
<path d="M89.8920 9.8367
L89.9525 9.9576
" />
<path d="M89.9525 9.9576
L89.9525 10.0786
" />
<path d="M89.9525 10.0786
L89.8920 10.2600
" />
<path d="M89.8920 10.2600
L89.1663 10.9857
" />
<path d="M89.1663 10.9857
L89.9525 10.9857
" />
<path d="M90.3153 10.1391
L90.7991 10.1391
" />
<path d="M90.4967 10.9857
L90.4967 9.8972
" />
<path d="M90.4967 9.8972
L90.5572 9.7762
" />
<path d="M90.5572 9.7762
L90.6782 9.7157
" />
<path d="M90.6782 9.7157
L90.7991 9.7157
" />
<path d="M91.2224 10.8648
L91.2829 10.9253
" />
<path d="M91.2829 10.9253
L91.2224 10.9857
" />
<path d="M91.2224 10.9857
L91.1620 10.9253
" />
<path d="M91.1620 10.9253
L91.2224 10.8648
" />
<path d="M91.2224 10.8648
L91.2224 10.9857
" />
<path d="M91.8272 10.1391
L91.8272 11.4091
" />
<path d="M91.8272 10.1995
L91.9482 10.1391
" />
<path d="M91.9482 10.1391
L92.1901 10.1391
" />
<path d="M92.1901 10.1391
L92.3110 10.1995
" />
<path d="M92.3110 10.1995
L92.3715 10.2600
" />
<path d="M92.3715 10.2600
L92.4320 10.3810
" />
<path d="M92.4320 10.3810
L92.4320 10.7438
" />
<path d="M92.4320 10.7438
L92.3715 10.8648
" />
<path d="M92.3715 10.8648
L92.3110 10.9253
" />
<path d="M92.3110 10.9253
L92.1901 10.9857
" />
<path d="M92.1901 10.9857
L91.9482 10.9857
" />
<path d="M91.9482 10.9857
L91.8272 10.9253
" />
<path d="M93.5205 10.9857
L93.5205 9.7157
" />
<path d="M93.5205 10.9253
L93.3996 10.9857
" />
<path d="M93.3996 10.9857
L93.1577 10.9857
" />
<path d="M93.1577 10.9857
L93.0367 10.9253
" />
<path d="M93.0367 10.9253
L92.9762 10.8648
" />
<path d="M92.9762 10.8648
L92.9158 10.7438
" />
<path d="M92.9158 10.7438
L92.9158 10.3810
" />
<path d="M92.9158 10.3810
L92.9762 10.2600
" />
<path d="M92.9762 10.2600
L93.0367 10.1995
" />
<path d="M93.0367 10.1995
L93.1577 10.1391
" />
<path d="M93.1577 10.1391
L93.3996 10.1391
" />
<path d="M93.3996 10.1391
L93.5205 10.1995
" />
<path d="M93.9438 10.1391
L94.4276 10.1391
" />
<path d="M94.1252 10.9857
L94.1252 9.8972
" />
<path d="M94.1252 9.8972
L94.1857 9.7762
" />
<path d="M94.1857 9.7762
L94.3067 9.7157
" />
<path d="M94.3067 9.7157
L94.4276 9.7157
" />
</g></g> 
</svg>
