<?xml version="1.0" standalone="no"?>
 <!DOCTYPE svg PUBLIC "-//W3C//DTD SVG 1.1//EN" 
 "http://www.w3.org/Graphics/SVG/1.1/DTD/svg11.dtd"> 
<svg
  xmlns:svg="http://www.w3.org/2000/svg"
  xmlns="http://www.w3.org/2000/svg"
  xmlns:xlink="http://www.w3.org/1999/xlink"
  version="1.1"
  width="94.6912mm" height="43.6626mm" viewBox="0.0000 0.0000 94.6912 43.6626">
<title>SVG Image created as working.svg date 2023/08/01 07:09:07 </title>
  <desc>Image generated by Eeschema-SVG </desc>
<g style="fill:#000000; fill-opacity:1.0000;stroke:#000000; stroke-opacity:1.0000;
stroke-linecap:round; stroke-linejoin:round;"
 transform="translate(0 0) scale(1 1)">
</g>
<g style="fill:#840000; fill-opacity:0.0; 
stroke:#840000; stroke-width:0.0000; stroke-opacity:1; 
stroke-linecap:round; stroke-linejoin:round;">
</g>
<g style="fill:#FFFFC2; fill-opacity:0.0; 
stroke:#FFFFC2; stroke-width:0.0000; stroke-opacity:1; 
stroke-linecap:round; stroke-linejoin:round;">
</g>
<g style="fill:#FFFFC2; fill-opacity:1.0000; 
stroke:#FFFFC2; stroke-width:0.0000; stroke-opacity:1; 
stroke-linecap:round; stroke-linejoin:round;">
<rect x="10.430300" y="7.012800" width="20.320000" height="30.480000" rx="0.000000" />
</g>
<g style="fill:#840084; fill-opacity:1.0000; 
stroke:#840084; stroke-width:0.0000; stroke-opacity:1; 
stroke-linecap:round; stroke-linejoin:round;">
</g>
<g style="fill:#840000; fill-opacity:1.0000; 
stroke:#840000; stroke-width:0.0000; stroke-opacity:1; 
stroke-linecap:round; stroke-linejoin:round;">
</g>
<g style="fill:#840000; fill-opacity:0.0; 
stroke:#840000; stroke-width:0.2540; stroke-opacity:1; 
stroke-linecap:round; stroke-linejoin:round;">
<rect x="10.430300" y="7.012800" width="20.320000" height="30.480000" rx="0.000000" />
</g>
<g style="fill:#840000; fill-opacity:0.0; 
stroke:#840000; stroke-width:0.1524; stroke-opacity:1; 
stroke-linecap:round; stroke-linejoin:round;">
<path d="M10.4303 17.1728
L7.8903 17.1728
" />
</g>
<g style="fill:#006464; fill-opacity:0.0; 
stroke:#006464; stroke-width:0.1524; stroke-opacity:1; 
stroke-linecap:round; stroke-linejoin:round;">
<text x="10.9383" y="17.8078"
textLength="4.3604" font-size="1.6933" lengthAdjust="spacingAndGlyphs"
text-anchor="start" opacity="0">VHSI</text>
<g class="stroked-text"><desc>VHSI</desc>
<path d="M11.0592 16.4903
L11.4825 17.7603
" />
<path d="M11.4825 17.7603
L11.9059 16.4903
" />
<path d="M12.3292 17.7603
L12.3292 16.4903
" />
<path d="M12.3292 17.0951
L13.0549 17.0951
" />
<path d="M13.0549 17.7603
L13.0549 16.4903
" />
<path d="M13.5993 17.6999
L13.7807 17.7603
" />
<path d="M13.7807 17.7603
L14.0831 17.7603
" />
<path d="M14.0831 17.7603
L14.2040 17.6999
" />
<path d="M14.2040 17.6999
L14.2645 17.6394
" />
<path d="M14.2645 17.6394
L14.3250 17.5184
" />
<path d="M14.3250 17.5184
L14.3250 17.3975
" />
<path d="M14.3250 17.3975
L14.2645 17.2765
" />
<path d="M14.2645 17.2765
L14.2040 17.2160
" />
<path d="M14.2040 17.2160
L14.0831 17.1556
" />
<path d="M14.0831 17.1556
L13.8412 17.0951
" />
<path d="M13.8412 17.0951
L13.7202 17.0346
" />
<path d="M13.7202 17.0346
L13.6597 16.9741
" />
<path d="M13.6597 16.9741
L13.5993 16.8532
" />
<path d="M13.5993 16.8532
L13.5993 16.7322
" />
<path d="M13.5993 16.7322
L13.6597 16.6113
" />
<path d="M13.6597 16.6113
L13.7202 16.5508
" />
<path d="M13.7202 16.5508
L13.8412 16.4903
" />
<path d="M13.8412 16.4903
L14.1435 16.4903
" />
<path d="M14.1435 16.4903
L14.3250 16.5508
" />
<path d="M14.8692 17.7603
L14.8692 16.4903
" />
</g></g>
<g style="fill:#A90000; fill-opacity:0.0; 
stroke:#A90000; stroke-width:0.1524; stroke-opacity:1; 
stroke-linecap:round; stroke-linejoin:round;">
<text x="9.1603" y="16.9188"
textLength="2.5460" font-size="1.6933" lengthAdjust="spacingAndGlyphs"
text-anchor="middle" opacity="0">11</text>
<g class="stroked-text"><desc>11</desc>
<path d="M8.9184 16.7633
L8.1927 16.7633
" />
<path d="M8.5555 16.7633
L8.5555 15.4933
" />
<path d="M8.5555 15.4933
L8.4346 15.6748
" />
<path d="M8.4346 15.6748
L8.3136 15.7957
" />
<path d="M8.3136 15.7957
L8.1927 15.8562
" />
<path d="M10.1279 16.7633
L9.4022 16.7633
" />
<path d="M9.7650 16.7633
L9.7650 15.4933
" />
<path d="M9.7650 15.4933
L9.6441 15.6748
" />
<path d="M9.6441 15.6748
L9.5231 15.7957
" />
<path d="M9.5231 15.7957
L9.4022 15.8562
" />
</g></g>
<g style="fill:#840000; fill-opacity:0.0; 
stroke:#840000; stroke-width:0.1524; stroke-opacity:1; 
stroke-linecap:round; stroke-linejoin:round;">
<path d="M30.7503 12.0928
L33.2903 12.0928
" />
</g>
<g style="fill:#006464; fill-opacity:0.0; 
stroke:#006464; stroke-width:0.1524; stroke-opacity:1; 
stroke-linecap:round; stroke-linejoin:round;">
<text x="30.2423" y="12.7278"
textLength="3.9975" font-size="1.6933" lengthAdjust="spacingAndGlyphs"
text-anchor="end" opacity="0">VMO</text>
<g class="stroked-text"><desc>VMO</desc>
<path d="M26.4927 11.4103
L26.9160 12.6803
" />
<path d="M26.9160 12.6803
L27.3394 11.4103
" />
<path d="M27.7627 12.6803
L27.7627 11.4103
" />
<path d="M27.7627 11.4103
L28.1861 12.3175
" />
<path d="M28.1861 12.3175
L28.6094 11.4103
" />
<path d="M28.6094 11.4103
L28.6094 12.6803
" />
<path d="M29.4560 11.4103
L29.6979 11.4103
" />
<path d="M29.6979 11.4103
L29.8189 11.4708
" />
<path d="M29.8189 11.4708
L29.9398 11.5918
" />
<path d="M29.9398 11.5918
L30.0003 11.8337
" />
<path d="M30.0003 11.8337
L30.0003 12.2570
" />
<path d="M30.0003 12.2570
L29.9398 12.4989
" />
<path d="M29.9398 12.4989
L29.8189 12.6199
" />
<path d="M29.8189 12.6199
L29.6979 12.6803
" />
<path d="M29.6979 12.6803
L29.4560 12.6803
" />
<path d="M29.4560 12.6803
L29.3351 12.6199
" />
<path d="M29.3351 12.6199
L29.2141 12.4989
" />
<path d="M29.2141 12.4989
L29.1537 12.2570
" />
<path d="M29.1537 12.2570
L29.1537 11.8337
" />
<path d="M29.1537 11.8337
L29.2141 11.5918
" />
<path d="M29.2141 11.5918
L29.3351 11.4708
" />
<path d="M29.3351 11.4708
L29.4560 11.4103
" />
</g></g>
<g style="fill:#A90000; fill-opacity:0.0; 
stroke:#A90000; stroke-width:0.1524; stroke-opacity:1; 
stroke-linecap:round; stroke-linejoin:round;">
<text x="32.0203" y="11.8388"
textLength="2.5460" font-size="1.6933" lengthAdjust="spacingAndGlyphs"
text-anchor="middle" opacity="0">12</text>
<g class="stroked-text"><desc>12</desc>
<path d="M31.7784 11.6833
L31.0527 11.6833
" />
<path d="M31.4155 11.6833
L31.4155 10.4133
" />
<path d="M31.4155 10.4133
L31.2946 10.5948
" />
<path d="M31.2946 10.5948
L31.1736 10.7157
" />
<path d="M31.1736 10.7157
L31.0527 10.7762
" />
<path d="M32.2622 10.5343
L32.3226 10.4738
" />
<path d="M32.3226 10.4738
L32.4436 10.4133
" />
<path d="M32.4436 10.4133
L32.7460 10.4133
" />
<path d="M32.7460 10.4133
L32.8669 10.4738
" />
<path d="M32.8669 10.4738
L32.9274 10.5343
" />
<path d="M32.9274 10.5343
L32.9879 10.6552
" />
<path d="M32.9879 10.6552
L32.9879 10.7762
" />
<path d="M32.9879 10.7762
L32.9274 10.9576
" />
<path d="M32.9274 10.9576
L32.2017 11.6833
" />
<path d="M32.2017 11.6833
L32.9879 11.6833
" />
</g></g>
<g style="fill:#840000; fill-opacity:0.0; 
stroke:#840000; stroke-width:0.1524; stroke-opacity:1; 
stroke-linecap:round; stroke-linejoin:round;">
<path d="M10.4303 19.7128
L7.8903 19.7128
" />
</g>
<g style="fill:#006464; fill-opacity:0.0; 
stroke:#006464; stroke-width:0.1524; stroke-opacity:1; 
stroke-linecap:round; stroke-linejoin:round;">
<text x="10.9383" y="20.3478"
textLength="4.6023" font-size="1.6933" lengthAdjust="spacingAndGlyphs"
text-anchor="start" opacity="0">VHFT</text>
<g class="stroked-text"><desc>VHFT</desc>
<path d="M11.0592 19.0303
L11.4825 20.3003
" />
<path d="M11.4825 20.3003
L11.9059 19.0303
" />
<path d="M12.3292 20.3003
L12.3292 19.0303
" />
<path d="M12.3292 19.6351
L13.0549 19.6351
" />
<path d="M13.0549 20.3003
L13.0549 19.0303
" />
<path d="M14.0831 19.6351
L13.6597 19.6351
" />
<path d="M13.6597 20.3003
L13.6597 19.0303
" />
<path d="M13.6597 19.0303
L14.2645 19.0303
" />
<path d="M14.5669 19.0303
L15.2926 19.0303
" />
<path d="M14.9298 20.3003
L14.9298 19.0303
" />
</g></g>
<g style="fill:#A90000; fill-opacity:0.0; 
stroke:#A90000; stroke-width:0.1524; stroke-opacity:1; 
stroke-linecap:round; stroke-linejoin:round;">
<text x="9.1603" y="19.4588"
textLength="2.5460" font-size="1.6933" lengthAdjust="spacingAndGlyphs"
text-anchor="middle" opacity="0">14</text>
<g class="stroked-text"><desc>14</desc>
<path d="M8.9184 19.3033
L8.1927 19.3033
" />
<path d="M8.5555 19.3033
L8.5555 18.0333
" />
<path d="M8.5555 18.0333
L8.4346 18.2148
" />
<path d="M8.4346 18.2148
L8.3136 18.3357
" />
<path d="M8.3136 18.3357
L8.1927 18.3962
" />
<path d="M10.0069 18.4567
L10.0069 19.3033
" />
<path d="M9.7045 17.9729
L9.4022 18.8800
" />
<path d="M9.4022 18.8800
L10.1883 18.8800
" />
</g></g>
<g style="fill:#840000; fill-opacity:0.0; 
stroke:#840000; stroke-width:0.1524; stroke-opacity:1; 
stroke-linecap:round; stroke-linejoin:round;">
<path d="M30.7503 14.6328
L33.2903 14.6328
" />
</g>
<g style="fill:#006464; fill-opacity:0.0; 
stroke:#006464; stroke-width:0.1524; stroke-opacity:1; 
stroke-linecap:round; stroke-linejoin:round;">
<text x="30.2423" y="15.2678"
textLength="3.7556" font-size="1.6933" lengthAdjust="spacingAndGlyphs"
text-anchor="end" opacity="0">VSO</text>
<g class="stroked-text"><desc>VSO</desc>
<path d="M26.7346 13.9503
L27.1579 15.2203
" />
<path d="M27.1579 15.2203
L27.5813 13.9503
" />
<path d="M27.9442 15.1599
L28.1256 15.2203
" />
<path d="M28.1256 15.2203
L28.4280 15.2203
" />
<path d="M28.4280 15.2203
L28.5489 15.1599
" />
<path d="M28.5489 15.1599
L28.6094 15.0994
" />
<path d="M28.6094 15.0994
L28.6699 14.9784
" />
<path d="M28.6699 14.9784
L28.6699 14.8575
" />
<path d="M28.6699 14.8575
L28.6094 14.7365
" />
<path d="M28.6094 14.7365
L28.5489 14.6760
" />
<path d="M28.5489 14.6760
L28.4280 14.6156
" />
<path d="M28.4280 14.6156
L28.1861 14.5551
" />
<path d="M28.1861 14.5551
L28.0651 14.4946
" />
<path d="M28.0651 14.4946
L28.0046 14.4341
" />
<path d="M28.0046 14.4341
L27.9442 14.3132
" />
<path d="M27.9442 14.3132
L27.9442 14.1922
" />
<path d="M27.9442 14.1922
L28.0046 14.0713
" />
<path d="M28.0046 14.0713
L28.0651 14.0108
" />
<path d="M28.0651 14.0108
L28.1861 13.9503
" />
<path d="M28.1861 13.9503
L28.4884 13.9503
" />
<path d="M28.4884 13.9503
L28.6699 14.0108
" />
<path d="M29.4560 13.9503
L29.6979 13.9503
" />
<path d="M29.6979 13.9503
L29.8189 14.0108
" />
<path d="M29.8189 14.0108
L29.9398 14.1318
" />
<path d="M29.9398 14.1318
L30.0003 14.3737
" />
<path d="M30.0003 14.3737
L30.0003 14.7970
" />
<path d="M30.0003 14.7970
L29.9398 15.0389
" />
<path d="M29.9398 15.0389
L29.8189 15.1599
" />
<path d="M29.8189 15.1599
L29.6979 15.2203
" />
<path d="M29.6979 15.2203
L29.4560 15.2203
" />
<path d="M29.4560 15.2203
L29.3351 15.1599
" />
<path d="M29.3351 15.1599
L29.2141 15.0389
" />
<path d="M29.2141 15.0389
L29.1537 14.7970
" />
<path d="M29.1537 14.7970
L29.1537 14.3737
" />
<path d="M29.1537 14.3737
L29.2141 14.1318
" />
<path d="M29.2141 14.1318
L29.3351 14.0108
" />
<path d="M29.3351 14.0108
L29.4560 13.9503
" />
</g></g>
<g style="fill:#A90000; fill-opacity:0.0; 
stroke:#A90000; stroke-width:0.1524; stroke-opacity:1; 
stroke-linecap:round; stroke-linejoin:round;">
<text x="32.0203" y="14.3788"
textLength="2.5460" font-size="1.6933" lengthAdjust="spacingAndGlyphs"
text-anchor="middle" opacity="0">15</text>
<g class="stroked-text"><desc>15</desc>
<path d="M31.7784 14.2233
L31.0527 14.2233
" />
<path d="M31.4155 14.2233
L31.4155 12.9533
" />
<path d="M31.4155 12.9533
L31.2946 13.1348
" />
<path d="M31.2946 13.1348
L31.1736 13.2557
" />
<path d="M31.1736 13.2557
L31.0527 13.3162
" />
<path d="M32.9274 12.9533
L32.3226 12.9533
" />
<path d="M32.3226 12.9533
L32.2622 13.5581
" />
<path d="M32.2622 13.5581
L32.3226 13.4976
" />
<path d="M32.3226 13.4976
L32.4436 13.4371
" />
<path d="M32.4436 13.4371
L32.7460 13.4371
" />
<path d="M32.7460 13.4371
L32.8669 13.4976
" />
<path d="M32.8669 13.4976
L32.9274 13.5581
" />
<path d="M32.9274 13.5581
L32.9879 13.6790
" />
<path d="M32.9879 13.6790
L32.9879 13.9814
" />
<path d="M32.9879 13.9814
L32.9274 14.1024
" />
<path d="M32.9274 14.1024
L32.8669 14.1629
" />
<path d="M32.8669 14.1629
L32.7460 14.2233
" />
<path d="M32.7460 14.2233
L32.4436 14.2233
" />
<path d="M32.4436 14.2233
L32.3226 14.1629
" />
<path d="M32.3226 14.1629
L32.2622 14.1024
" />
</g></g>
<g style="fill:#840000; fill-opacity:0.0; 
stroke:#840000; stroke-width:0.1524; stroke-opacity:1; 
stroke-linecap:round; stroke-linejoin:round;">
<path d="M10.4303 22.2528
L7.8903 22.2528
" />
</g>
<g style="fill:#006464; fill-opacity:0.0; 
stroke:#006464; stroke-width:0.1524; stroke-opacity:1; 
stroke-linecap:round; stroke-linejoin:round;">
<text x="10.9383" y="22.8878"
textLength="4.2394" font-size="1.6933" lengthAdjust="spacingAndGlyphs"
text-anchor="start" opacity="0">VSSI</text>
<g class="stroked-text"><desc>VSSI</desc>
<path d="M11.0592 21.5703
L11.4825 22.8403
" />
<path d="M11.4825 22.8403
L11.9059 21.5703
" />
<path d="M12.2688 22.7799
L12.4502 22.8403
" />
<path d="M12.4502 22.8403
L12.7526 22.8403
" />
<path d="M12.7526 22.8403
L12.8735 22.7799
" />
<path d="M12.8735 22.7799
L12.9340 22.7194
" />
<path d="M12.9340 22.7194
L12.9945 22.5984
" />
<path d="M12.9945 22.5984
L12.9945 22.4775
" />
<path d="M12.9945 22.4775
L12.9340 22.3565
" />
<path d="M12.9340 22.3565
L12.8735 22.2960
" />
<path d="M12.8735 22.2960
L12.7526 22.2356
" />
<path d="M12.7526 22.2356
L12.5107 22.1751
" />
<path d="M12.5107 22.1751
L12.3897 22.1146
" />
<path d="M12.3897 22.1146
L12.3292 22.0541
" />
<path d="M12.3292 22.0541
L12.2688 21.9332
" />
<path d="M12.2688 21.9332
L12.2688 21.8122
" />
<path d="M12.2688 21.8122
L12.3292 21.6913
" />
<path d="M12.3292 21.6913
L12.3897 21.6308
" />
<path d="M12.3897 21.6308
L12.5107 21.5703
" />
<path d="M12.5107 21.5703
L12.8130 21.5703
" />
<path d="M12.8130 21.5703
L12.9945 21.6308
" />
<path d="M13.4783 22.7799
L13.6597 22.8403
" />
<path d="M13.6597 22.8403
L13.9621 22.8403
" />
<path d="M13.9621 22.8403
L14.0830 22.7799
" />
<path d="M14.0830 22.7799
L14.1435 22.7194
" />
<path d="M14.1435 22.7194
L14.2040 22.5984
" />
<path d="M14.2040 22.5984
L14.2040 22.4775
" />
<path d="M14.2040 22.4775
L14.1435 22.3565
" />
<path d="M14.1435 22.3565
L14.0830 22.2960
" />
<path d="M14.0830 22.2960
L13.9621 22.2356
" />
<path d="M13.9621 22.2356
L13.7202 22.1751
" />
<path d="M13.7202 22.1751
L13.5992 22.1146
" />
<path d="M13.5992 22.1146
L13.5387 22.0541
" />
<path d="M13.5387 22.0541
L13.4783 21.9332
" />
<path d="M13.4783 21.9332
L13.4783 21.8122
" />
<path d="M13.4783 21.8122
L13.5387 21.6913
" />
<path d="M13.5387 21.6913
L13.5992 21.6308
" />
<path d="M13.5992 21.6308
L13.7202 21.5703
" />
<path d="M13.7202 21.5703
L14.0225 21.5703
" />
<path d="M14.0225 21.5703
L14.2040 21.6308
" />
<path d="M14.7482 22.8403
L14.7482 21.5703
" />
</g></g>
<g style="fill:#A90000; fill-opacity:0.0; 
stroke:#A90000; stroke-width:0.1524; stroke-opacity:1; 
stroke-linecap:round; stroke-linejoin:round;">
<text x="9.1603" y="21.9988"
textLength="2.5460" font-size="1.6933" lengthAdjust="spacingAndGlyphs"
text-anchor="middle" opacity="0">16</text>
<g class="stroked-text"><desc>16</desc>
<path d="M8.9184 21.8433
L8.1927 21.8433
" />
<path d="M8.5555 21.8433
L8.5555 20.5733
" />
<path d="M8.5555 20.5733
L8.4346 20.7548
" />
<path d="M8.4346 20.7548
L8.3136 20.8757
" />
<path d="M8.3136 20.8757
L8.1927 20.9362
" />
<path d="M10.0069 20.5733
L9.7650 20.5733
" />
<path d="M9.7650 20.5733
L9.6441 20.6338
" />
<path d="M9.6441 20.6338
L9.5836 20.6943
" />
<path d="M9.5836 20.6943
L9.4626 20.8757
" />
<path d="M9.4626 20.8757
L9.4022 21.1176
" />
<path d="M9.4022 21.1176
L9.4022 21.6014
" />
<path d="M9.4022 21.6014
L9.4626 21.7224
" />
<path d="M9.4626 21.7224
L9.5231 21.7829
" />
<path d="M9.5231 21.7829
L9.6441 21.8433
" />
<path d="M9.6441 21.8433
L9.8860 21.8433
" />
<path d="M9.8860 21.8433
L10.0069 21.7829
" />
<path d="M10.0069 21.7829
L10.0674 21.7224
" />
<path d="M10.0674 21.7224
L10.1279 21.6014
" />
<path d="M10.1279 21.6014
L10.1279 21.2990
" />
<path d="M10.1279 21.2990
L10.0674 21.1781
" />
<path d="M10.0674 21.1781
L10.0069 21.1176
" />
<path d="M10.0069 21.1176
L9.8860 21.0571
" />
<path d="M9.8860 21.0571
L9.6441 21.0571
" />
<path d="M9.6441 21.0571
L9.5231 21.1176
" />
<path d="M9.5231 21.1176
L9.4626 21.1781
" />
<path d="M9.4626 21.1781
L9.4022 21.2990
" />
</g></g>
<g style="fill:#840000; fill-opacity:0.0; 
stroke:#840000; stroke-width:0.1524; stroke-opacity:1; 
stroke-linecap:round; stroke-linejoin:round;">
<path d="M30.7503 17.1728
L33.2903 17.1728
" />
</g>
<g style="fill:#006464; fill-opacity:0.0; 
stroke:#006464; stroke-width:0.1524; stroke-opacity:1; 
stroke-linecap:round; stroke-linejoin:round;">
<text x="30.2423" y="17.8078"
textLength="3.5137" font-size="1.6933" lengthAdjust="spacingAndGlyphs"
text-anchor="end" opacity="0">VTO</text>
<g class="stroked-text"><desc>VTO</desc>
<path d="M26.9765 16.4903
L27.3998 17.7603
" />
<path d="M27.3998 17.7603
L27.8232 16.4903
" />
<path d="M28.0651 16.4903
L28.7908 16.4903
" />
<path d="M28.4280 17.7603
L28.4280 16.4903
" />
<path d="M29.4560 16.4903
L29.6979 16.4903
" />
<path d="M29.6979 16.4903
L29.8189 16.5508
" />
<path d="M29.8189 16.5508
L29.9398 16.6718
" />
<path d="M29.9398 16.6718
L30.0003 16.9137
" />
<path d="M30.0003 16.9137
L30.0003 17.3370
" />
<path d="M30.0003 17.3370
L29.9398 17.5789
" />
<path d="M29.9398 17.5789
L29.8189 17.6999
" />
<path d="M29.8189 17.6999
L29.6979 17.7603
" />
<path d="M29.6979 17.7603
L29.4560 17.7603
" />
<path d="M29.4560 17.7603
L29.3351 17.6999
" />
<path d="M29.3351 17.6999
L29.2141 17.5789
" />
<path d="M29.2141 17.5789
L29.1537 17.3370
" />
<path d="M29.1537 17.3370
L29.1537 16.9137
" />
<path d="M29.1537 16.9137
L29.2141 16.6718
" />
<path d="M29.2141 16.6718
L29.3351 16.5508
" />
<path d="M29.3351 16.5508
L29.4560 16.4903
" />
</g></g>
<g style="fill:#A90000; fill-opacity:0.0; 
stroke:#A90000; stroke-width:0.1524; stroke-opacity:1; 
stroke-linecap:round; stroke-linejoin:round;">
<text x="32.0203" y="16.9188"
textLength="2.5460" font-size="1.6933" lengthAdjust="spacingAndGlyphs"
text-anchor="middle" opacity="0">17</text>
<g class="stroked-text"><desc>17</desc>
<path d="M31.7784 16.7633
L31.0527 16.7633
" />
<path d="M31.4155 16.7633
L31.4155 15.4933
" />
<path d="M31.4155 15.4933
L31.2946 15.6748
" />
<path d="M31.2946 15.6748
L31.1736 15.7957
" />
<path d="M31.1736 15.7957
L31.0527 15.8562
" />
<path d="M32.2017 15.4933
L33.0483 15.4933
" />
<path d="M33.0483 15.4933
L32.5041 16.7633
" />
</g></g>
<g style="fill:#840000; fill-opacity:0.0; 
stroke:#840000; stroke-width:0.1524; stroke-opacity:1; 
stroke-linecap:round; stroke-linejoin:round;">
<path d="M10.4303 32.4128
L7.8903 32.4128
" />
</g>
<g style="fill:#006464; fill-opacity:0.0; 
stroke:#006464; stroke-width:0.1524; stroke-opacity:1; 
stroke-linecap:round; stroke-linejoin:round;">
<text x="10.9383" y="33.0478"
textLength="3.7556" font-size="1.6933" lengthAdjust="spacingAndGlyphs"
text-anchor="start" opacity="0">CAP</text>
<g class="stroked-text"><desc>CAP</desc>
<path d="M11.9663 32.8794
L11.9059 32.9399
" />
<path d="M11.9059 32.9399
L11.7244 33.0003
" />
<path d="M11.7244 33.0003
L11.6035 33.0003
" />
<path d="M11.6035 33.0003
L11.4221 32.9399
" />
<path d="M11.4221 32.9399
L11.3011 32.8189
" />
<path d="M11.3011 32.8189
L11.2406 32.6979
" />
<path d="M11.2406 32.6979
L11.1802 32.4560
" />
<path d="M11.1802 32.4560
L11.1802 32.2746
" />
<path d="M11.1802 32.2746
L11.2406 32.0327
" />
<path d="M11.2406 32.0327
L11.3011 31.9118
" />
<path d="M11.3011 31.9118
L11.4221 31.7908
" />
<path d="M11.4221 31.7908
L11.6035 31.7303
" />
<path d="M11.6035 31.7303
L11.7244 31.7303
" />
<path d="M11.7244 31.7303
L11.9059 31.7908
" />
<path d="M11.9059 31.7908
L11.9663 31.8513
" />
<path d="M12.4502 32.6375
L13.0549 32.6375
" />
<path d="M12.3292 33.0003
L12.7525 31.7303
" />
<path d="M12.7525 31.7303
L13.1759 33.0003
" />
<path d="M13.5992 33.0003
L13.5992 31.7303
" />
<path d="M13.5992 31.7303
L14.0830 31.7303
" />
<path d="M14.0830 31.7303
L14.2040 31.7908
" />
<path d="M14.2040 31.7908
L14.2645 31.8513
" />
<path d="M14.2645 31.8513
L14.3249 31.9722
" />
<path d="M14.3249 31.9722
L14.3249 32.1537
" />
<path d="M14.3249 32.1537
L14.2645 32.2746
" />
<path d="M14.2645 32.2746
L14.2040 32.3351
" />
<path d="M14.2040 32.3351
L14.0830 32.3956
" />
<path d="M14.0830 32.3956
L13.5992 32.3956
" />
</g></g>
<g style="fill:#A90000; fill-opacity:0.0; 
stroke:#A90000; stroke-width:0.1524; stroke-opacity:1; 
stroke-linecap:round; stroke-linejoin:round;">
<text x="9.1603" y="32.1588"
textLength="2.5460" font-size="1.6933" lengthAdjust="spacingAndGlyphs"
text-anchor="middle" opacity="0">19</text>
<g class="stroked-text"><desc>19</desc>
<path d="M8.9184 32.0033
L8.1927 32.0033
" />
<path d="M8.5555 32.0033
L8.5555 30.7333
" />
<path d="M8.5555 30.7333
L8.4346 30.9148
" />
<path d="M8.4346 30.9148
L8.3136 31.0357
" />
<path d="M8.3136 31.0357
L8.1927 31.0962
" />
<path d="M9.5231 32.0033
L9.7650 32.0033
" />
<path d="M9.7650 32.0033
L9.8860 31.9429
" />
<path d="M9.8860 31.9429
L9.9464 31.8824
" />
<path d="M9.9464 31.8824
L10.0674 31.7009
" />
<path d="M10.0674 31.7009
L10.1279 31.4590
" />
<path d="M10.1279 31.4590
L10.1279 30.9752
" />
<path d="M10.1279 30.9752
L10.0674 30.8543
" />
<path d="M10.0674 30.8543
L10.0069 30.7938
" />
<path d="M10.0069 30.7938
L9.8860 30.7333
" />
<path d="M9.8860 30.7333
L9.6441 30.7333
" />
<path d="M9.6441 30.7333
L9.5231 30.7938
" />
<path d="M9.5231 30.7938
L9.4626 30.8543
" />
<path d="M9.4626 30.8543
L9.4022 30.9752
" />
<path d="M9.4022 30.9752
L9.4022 31.2776
" />
<path d="M9.4022 31.2776
L9.4626 31.3986
" />
<path d="M9.4626 31.3986
L9.5231 31.4590
" />
<path d="M9.5231 31.4590
L9.6441 31.5195
" />
<path d="M9.6441 31.5195
L9.8860 31.5195
" />
<path d="M9.8860 31.5195
L10.0069 31.4590
" />
<path d="M10.0069 31.4590
L10.0674 31.3986
" />
<path d="M10.0674 31.3986
L10.1279 31.2776
" />
</g></g>
<g style="fill:#840000; fill-opacity:0.0; 
stroke:#840000; stroke-width:0.1524; stroke-opacity:1; 
stroke-linecap:round; stroke-linejoin:round;">
<path d="M10.4303 27.3328
L7.8903 27.3328
" />
</g>
<g style="fill:#006464; fill-opacity:0.0; 
stroke:#006464; stroke-width:0.1524; stroke-opacity:1; 
stroke-linecap:round; stroke-linejoin:round;">
<text x="10.9383" y="27.9678"
textLength="4.1790" font-size="1.6933" lengthAdjust="spacingAndGlyphs"
text-anchor="start" opacity="0">VFCI</text>
<g class="stroked-text"><desc>VFCI</desc>
<path d="M11.0592 26.6503
L11.4825 27.9203
" />
<path d="M11.4825 27.9203
L11.9059 26.6503
" />
<path d="M12.7526 27.2551
L12.3292 27.2551
" />
<path d="M12.3292 27.9203
L12.3292 26.6503
" />
<path d="M12.3292 26.6503
L12.9340 26.6503
" />
<path d="M14.1435 27.7994
L14.0831 27.8599
" />
<path d="M14.0831 27.8599
L13.9016 27.9203
" />
<path d="M13.9016 27.9203
L13.7807 27.9203
" />
<path d="M13.7807 27.9203
L13.5993 27.8599
" />
<path d="M13.5993 27.8599
L13.4783 27.7389
" />
<path d="M13.4783 27.7389
L13.4178 27.6179
" />
<path d="M13.4178 27.6179
L13.3574 27.3760
" />
<path d="M13.3574 27.3760
L13.3574 27.1946
" />
<path d="M13.3574 27.1946
L13.4178 26.9527
" />
<path d="M13.4178 26.9527
L13.4783 26.8318
" />
<path d="M13.4783 26.8318
L13.5993 26.7108
" />
<path d="M13.5993 26.7108
L13.7807 26.6503
" />
<path d="M13.7807 26.6503
L13.9016 26.6503
" />
<path d="M13.9016 26.6503
L14.0831 26.7108
" />
<path d="M14.0831 26.7108
L14.1435 26.7713
" />
<path d="M14.6878 27.9203
L14.6878 26.6503
" />
</g></g>
<g style="fill:#A90000; fill-opacity:0.0; 
stroke:#A90000; stroke-width:0.1524; stroke-opacity:1; 
stroke-linecap:round; stroke-linejoin:round;">
<text x="9.1603" y="27.0788"
textLength="1.3365" font-size="1.6933" lengthAdjust="spacingAndGlyphs"
text-anchor="middle" opacity="0">2</text>
<g class="stroked-text"><desc>2</desc>
<path d="M8.7975 25.7743
L8.8579 25.7138
" />
<path d="M8.8579 25.7138
L8.9789 25.6533
" />
<path d="M8.9789 25.6533
L9.2813 25.6533
" />
<path d="M9.2813 25.6533
L9.4022 25.7138
" />
<path d="M9.4022 25.7138
L9.4627 25.7743
" />
<path d="M9.4627 25.7743
L9.5232 25.8952
" />
<path d="M9.5232 25.8952
L9.5232 26.0162
" />
<path d="M9.5232 26.0162
L9.4627 26.1976
" />
<path d="M9.4627 26.1976
L8.7370 26.9233
" />
<path d="M8.7370 26.9233
L9.5232 26.9233
" />
</g></g>
<g style="fill:#840000; fill-opacity:0.0; 
stroke:#840000; stroke-width:0.1524; stroke-opacity:1; 
stroke-linecap:round; stroke-linejoin:round;">
<path d="M23.1303 37.4928
L23.1303 40.0328
" />
</g>
<g style="fill:#006464; fill-opacity:0.0; 
stroke:#006464; stroke-width:0.1524; stroke-opacity:1; 
stroke-linecap:round; stroke-linejoin:round;">
<g transform="rotate(-90.000000 23.1303 36.9848)">
<text x="23.1303" y="37.6198"
textLength="3.9975" font-size="1.6933" lengthAdjust="spacingAndGlyphs"
text-anchor="start" opacity="0">GND</text>
</g>
<g class="stroked-text"><desc>GND</desc>
<path d="M22.5083 36.0171
L22.4478 36.1381
" />
<path d="M22.4478 36.1381
L22.4478 36.3195
" />
<path d="M22.4478 36.3195
L22.5083 36.5009
" />
<path d="M22.5083 36.5009
L22.6293 36.6219
" />
<path d="M22.6293 36.6219
L22.7502 36.6824
" />
<path d="M22.7502 36.6824
L22.9921 36.7428
" />
<path d="M22.9921 36.7428
L23.1735 36.7428
" />
<path d="M23.1735 36.7428
L23.4154 36.6824
" />
<path d="M23.4154 36.6824
L23.5364 36.6219
" />
<path d="M23.5364 36.6219
L23.6574 36.5009
" />
<path d="M23.6574 36.5009
L23.7178 36.3195
" />
<path d="M23.7178 36.3195
L23.7178 36.1986
" />
<path d="M23.7178 36.1986
L23.6574 36.0171
" />
<path d="M23.6574 36.0171
L23.5969 35.9567
" />
<path d="M23.5969 35.9567
L23.1735 35.9567
" />
<path d="M23.1735 35.9567
L23.1735 36.1986
" />
<path d="M23.7178 35.4124
L22.4478 35.4124
" />
<path d="M22.4478 35.4124
L23.7178 34.6867
" />
<path d="M23.7178 34.6867
L22.4478 34.6867
" />
<path d="M23.7178 34.0819
L22.4478 34.0819
" />
<path d="M22.4478 34.0819
L22.4478 33.7795
" />
<path d="M22.4478 33.7795
L22.5083 33.5981
" />
<path d="M22.5083 33.5981
L22.6293 33.4771
" />
<path d="M22.6293 33.4771
L22.7502 33.4166
" />
<path d="M22.7502 33.4166
L22.9921 33.3562
" />
<path d="M22.9921 33.3562
L23.1735 33.3562
" />
<path d="M23.1735 33.3562
L23.4154 33.4166
" />
<path d="M23.4154 33.4166
L23.5364 33.4771
" />
<path d="M23.5364 33.4771
L23.6574 33.5981
" />
<path d="M23.6574 33.5981
L23.7178 33.7795
" />
<path d="M23.7178 33.7795
L23.7178 34.0819
" />
</g></g>
<g style="fill:#A90000; fill-opacity:0.0; 
stroke:#A90000; stroke-width:0.1524; stroke-opacity:1; 
stroke-linecap:round; stroke-linejoin:round;">
<g transform="rotate(-90.000000 22.8763 38.7628)">
<text x="22.8763" y="38.7628"
textLength="2.5460" font-size="1.6933" lengthAdjust="spacingAndGlyphs"
text-anchor="middle" opacity="0">20</text>
</g>
<g class="stroked-text"><desc>20</desc>
<path d="M21.5718 39.7303
L21.5113 39.6699
" />
<path d="M21.5113 39.6699
L21.4508 39.5489
" />
<path d="M21.4508 39.5489
L21.4508 39.2465
" />
<path d="M21.4508 39.2465
L21.5113 39.1256
" />
<path d="M21.5113 39.1256
L21.5718 39.0651
" />
<path d="M21.5718 39.0651
L21.6927 39.0046
" />
<path d="M21.6927 39.0046
L21.8137 39.0046
" />
<path d="M21.8137 39.0046
L21.9951 39.0651
" />
<path d="M21.9951 39.0651
L22.7208 39.7908
" />
<path d="M22.7208 39.7908
L22.7208 39.0046
" />
<path d="M21.4508 38.2185
L21.4508 38.0975
" />
<path d="M21.4508 38.0975
L21.5113 37.9766
" />
<path d="M21.5113 37.9766
L21.5718 37.9161
" />
<path d="M21.5718 37.9161
L21.6927 37.8556
" />
<path d="M21.6927 37.8556
L21.9346 37.7951
" />
<path d="M21.9346 37.7951
L22.2370 37.7951
" />
<path d="M22.2370 37.7951
L22.4789 37.8556
" />
<path d="M22.4789 37.8556
L22.5999 37.9161
" />
<path d="M22.5999 37.9161
L22.6604 37.9766
" />
<path d="M22.6604 37.9766
L22.7208 38.0975
" />
<path d="M22.7208 38.0975
L22.7208 38.2185
" />
<path d="M22.7208 38.2185
L22.6604 38.3394
" />
<path d="M22.6604 38.3394
L22.5999 38.3999
" />
<path d="M22.5999 38.3999
L22.4789 38.4604
" />
<path d="M22.4789 38.4604
L22.2370 38.5208
" />
<path d="M22.2370 38.5208
L21.9346 38.5208
" />
<path d="M21.9346 38.5208
L21.6927 38.4604
" />
<path d="M21.6927 38.4604
L21.5718 38.3999
" />
<path d="M21.5718 38.3999
L21.5113 38.3394
" />
<path d="M21.5113 38.3394
L21.4508 38.2185
" />
</g></g>
<g style="fill:#840000; fill-opacity:0.0; 
stroke:#840000; stroke-width:0.1524; stroke-opacity:1; 
stroke-linecap:round; stroke-linejoin:round;">
<path d="M10.4303 24.7928
L7.8903 24.7928
" />
</g>
<g style="fill:#006464; fill-opacity:0.0; 
stroke:#006464; stroke-width:0.1524; stroke-opacity:1; 
stroke-linecap:round; stroke-linejoin:round;">
<text x="10.9383" y="25.4278"
textLength="3.9371" font-size="1.6933" lengthAdjust="spacingAndGlyphs"
text-anchor="start" opacity="0">VLFI</text>
<g class="stroked-text"><desc>VLFI</desc>
<path d="M11.0592 24.1103
L11.4825 25.3803
" />
<path d="M11.4825 25.3803
L11.9059 24.1103
" />
<path d="M12.9340 25.3803
L12.3292 25.3803
" />
<path d="M12.3292 25.3803
L12.3292 24.1103
" />
<path d="M13.7807 24.7151
L13.3573 24.7151
" />
<path d="M13.3573 25.3803
L13.3573 24.1103
" />
<path d="M13.3573 24.1103
L13.9621 24.1103
" />
<path d="M14.4459 25.3803
L14.4459 24.1103
" />
</g></g>
<g style="fill:#A90000; fill-opacity:0.0; 
stroke:#A90000; stroke-width:0.1524; stroke-opacity:1; 
stroke-linecap:round; stroke-linejoin:round;">
<text x="9.1603" y="24.5388"
textLength="2.5460" font-size="1.6933" lengthAdjust="spacingAndGlyphs"
text-anchor="middle" opacity="0">23</text>
<g class="stroked-text"><desc>23</desc>
<path d="M8.1927 23.2343
L8.2531 23.1738
" />
<path d="M8.2531 23.1738
L8.3741 23.1133
" />
<path d="M8.3741 23.1133
L8.6765 23.1133
" />
<path d="M8.6765 23.1133
L8.7974 23.1738
" />
<path d="M8.7974 23.1738
L8.8579 23.2343
" />
<path d="M8.8579 23.2343
L8.9184 23.3552
" />
<path d="M8.9184 23.3552
L8.9184 23.4762
" />
<path d="M8.9184 23.4762
L8.8579 23.6576
" />
<path d="M8.8579 23.6576
L8.1322 24.3833
" />
<path d="M8.1322 24.3833
L8.9184 24.3833
" />
<path d="M9.3417 23.1133
L10.1279 23.1133
" />
<path d="M10.1279 23.1133
L9.7045 23.5971
" />
<path d="M9.7045 23.5971
L9.8860 23.5971
" />
<path d="M9.8860 23.5971
L10.0069 23.6576
" />
<path d="M10.0069 23.6576
L10.0674 23.7181
" />
<path d="M10.0674 23.7181
L10.1279 23.8390
" />
<path d="M10.1279 23.8390
L10.1279 24.1414
" />
<path d="M10.1279 24.1414
L10.0674 24.2624
" />
<path d="M10.0674 24.2624
L10.0069 24.3229
" />
<path d="M10.0069 24.3229
L9.8860 24.3833
" />
<path d="M9.8860 24.3833
L9.5231 24.3833
" />
<path d="M9.5231 24.3833
L9.4022 24.3229
" />
<path d="M9.4022 24.3229
L9.3417 24.2624
" />
</g></g>
<g style="fill:#840000; fill-opacity:0.0; 
stroke:#840000; stroke-width:0.1524; stroke-opacity:1; 
stroke-linecap:round; stroke-linejoin:round;">
<path d="M10.4303 34.9528
L7.8903 34.9528
" />
</g>
<g style="fill:#006464; fill-opacity:0.0; 
stroke:#006464; stroke-width:0.1524; stroke-opacity:1; 
stroke-linecap:round; stroke-linejoin:round;">
<text x="10.9383" y="35.5878"
textLength="2.4251" font-size="1.6933" lengthAdjust="spacingAndGlyphs"
text-anchor="start" opacity="0">VS</text>
<g class="stroked-text"><desc>VS</desc>
<path d="M11.0592 34.2703
L11.4825 35.5403
" />
<path d="M11.4825 35.5403
L11.9059 34.2703
" />
<path d="M12.2688 35.4799
L12.4502 35.5403
" />
<path d="M12.4502 35.5403
L12.7526 35.5403
" />
<path d="M12.7526 35.5403
L12.8735 35.4799
" />
<path d="M12.8735 35.4799
L12.9340 35.4194
" />
<path d="M12.9340 35.4194
L12.9945 35.2984
" />
<path d="M12.9945 35.2984
L12.9945 35.1775
" />
<path d="M12.9945 35.1775
L12.9340 35.0565
" />
<path d="M12.9340 35.0565
L12.8735 34.9960
" />
<path d="M12.8735 34.9960
L12.7526 34.9356
" />
<path d="M12.7526 34.9356
L12.5107 34.8751
" />
<path d="M12.5107 34.8751
L12.3897 34.8146
" />
<path d="M12.3897 34.8146
L12.3292 34.7541
" />
<path d="M12.3292 34.7541
L12.2688 34.6332
" />
<path d="M12.2688 34.6332
L12.2688 34.5122
" />
<path d="M12.2688 34.5122
L12.3292 34.3913
" />
<path d="M12.3292 34.3913
L12.3897 34.3308
" />
<path d="M12.3897 34.3308
L12.5107 34.2703
" />
<path d="M12.5107 34.2703
L12.8130 34.2703
" />
<path d="M12.8130 34.2703
L12.9945 34.3308
" />
</g></g>
<g style="fill:#A90000; fill-opacity:0.0; 
stroke:#A90000; stroke-width:0.1524; stroke-opacity:1; 
stroke-linecap:round; stroke-linejoin:round;">
<text x="9.1603" y="34.6988"
textLength="2.5460" font-size="1.6933" lengthAdjust="spacingAndGlyphs"
text-anchor="middle" opacity="0">24</text>
<g class="stroked-text"><desc>24</desc>
<path d="M8.1927 33.3943
L8.2531 33.3338
" />
<path d="M8.2531 33.3338
L8.3741 33.2733
" />
<path d="M8.3741 33.2733
L8.6765 33.2733
" />
<path d="M8.6765 33.2733
L8.7974 33.3338
" />
<path d="M8.7974 33.3338
L8.8579 33.3943
" />
<path d="M8.8579 33.3943
L8.9184 33.5152
" />
<path d="M8.9184 33.5152
L8.9184 33.6362
" />
<path d="M8.9184 33.6362
L8.8579 33.8176
" />
<path d="M8.8579 33.8176
L8.1322 34.5433
" />
<path d="M8.1322 34.5433
L8.9184 34.5433
" />
<path d="M10.0069 33.6967
L10.0069 34.5433
" />
<path d="M9.7045 33.2129
L9.4022 34.1200
" />
<path d="M9.4022 34.1200
L10.1883 34.1200
" />
</g></g>
<g style="fill:#840000; fill-opacity:0.0; 
stroke:#840000; stroke-width:0.1524; stroke-opacity:1; 
stroke-linecap:round; stroke-linejoin:round;">
<path d="M20.5903 7.0128
L20.5903 4.4728
" />
</g>
<g style="fill:#006464; fill-opacity:0.0; 
stroke:#006464; stroke-width:0.1524; stroke-opacity:1; 
stroke-linecap:round; stroke-linejoin:round;">
<g transform="rotate(-90.000000 20.5903 7.5208)">
<text x="20.5903" y="8.1558"
textLength="3.7556" font-size="1.6933" lengthAdjust="spacingAndGlyphs"
text-anchor="end" opacity="0">VCC</text>
</g>
<g class="stroked-text"><desc>VCC</desc>
<path d="M19.9078 11.0284
L21.1778 10.6051
" />
<path d="M21.1778 10.6051
L19.9078 10.1817
" />
<path d="M21.0569 9.0327
L21.1174 9.0931
" />
<path d="M21.1174 9.0931
L21.1778 9.2746
" />
<path d="M21.1778 9.2746
L21.1778 9.3955
" />
<path d="M21.1778 9.3955
L21.1174 9.5769
" />
<path d="M21.1174 9.5769
L20.9964 9.6979
" />
<path d="M20.9964 9.6979
L20.8754 9.7584
" />
<path d="M20.8754 9.7584
L20.6335 9.8188
" />
<path d="M20.6335 9.8188
L20.4521 9.8188
" />
<path d="M20.4521 9.8188
L20.2102 9.7584
" />
<path d="M20.2102 9.7584
L20.0893 9.6979
" />
<path d="M20.0893 9.6979
L19.9683 9.5769
" />
<path d="M19.9683 9.5769
L19.9078 9.3955
" />
<path d="M19.9078 9.3955
L19.9078 9.2746
" />
<path d="M19.9078 9.2746
L19.9683 9.0931
" />
<path d="M19.9683 9.0931
L20.0288 9.0327
" />
<path d="M21.0569 7.7627
L21.1174 7.8231
" />
<path d="M21.1174 7.8231
L21.1778 8.0046
" />
<path d="M21.1778 8.0046
L21.1778 8.1255
" />
<path d="M21.1778 8.1255
L21.1174 8.3069
" />
<path d="M21.1174 8.3069
L20.9964 8.4279
" />
<path d="M20.9964 8.4279
L20.8754 8.4884
" />
<path d="M20.8754 8.4884
L20.6335 8.5488
" />
<path d="M20.6335 8.5488
L20.4521 8.5488
" />
<path d="M20.4521 8.5488
L20.2102 8.4884
" />
<path d="M20.2102 8.4884
L20.0893 8.4279
" />
<path d="M20.0893 8.4279
L19.9683 8.3069
" />
<path d="M19.9683 8.3069
L19.9078 8.1255
" />
<path d="M19.9078 8.1255
L19.9078 8.0046
" />
<path d="M19.9078 8.0046
L19.9683 7.8231
" />
<path d="M19.9683 7.8231
L20.0288 7.7627
" />
</g></g>
<g style="fill:#A90000; fill-opacity:0.0; 
stroke:#A90000; stroke-width:0.1524; stroke-opacity:1; 
stroke-linecap:round; stroke-linejoin:round;">
<g transform="rotate(-90.000000 20.3363 5.7428)">
<text x="20.3363" y="5.7428"
textLength="1.3365" font-size="1.6933" lengthAdjust="spacingAndGlyphs"
text-anchor="middle" opacity="0">3</text>
</g>
<g class="stroked-text"><desc>3</desc>
<path d="M18.9108 6.1660
L18.9108 5.3798
" />
<path d="M18.9108 5.3798
L19.3946 5.8032
" />
<path d="M19.3946 5.8032
L19.3946 5.6217
" />
<path d="M19.3946 5.6217
L19.4551 5.5008
" />
<path d="M19.4551 5.5008
L19.5156 5.4403
" />
<path d="M19.5156 5.4403
L19.6365 5.3798
" />
<path d="M19.6365 5.3798
L19.9389 5.3798
" />
<path d="M19.9389 5.3798
L20.0599 5.4403
" />
<path d="M20.0599 5.4403
L20.1204 5.5008
" />
<path d="M20.1204 5.5008
L20.1808 5.6217
" />
<path d="M20.1808 5.6217
L20.1808 5.9846
" />
<path d="M20.1808 5.9846
L20.1204 6.1055
" />
<path d="M20.1204 6.1055
L20.0599 6.1660
" />
</g></g>
<g style="fill:#840000; fill-opacity:0.0; 
stroke:#840000; stroke-width:0.1524; stroke-opacity:1; 
stroke-linecap:round; stroke-linejoin:round;">
<path d="M10.4303 9.5528
L7.8903 9.5528
" />
</g>
<g style="fill:#006464; fill-opacity:0.0; 
stroke:#006464; stroke-width:0.1524; stroke-opacity:1; 
stroke-linecap:round; stroke-linejoin:round;">
<text x="10.9383" y="10.1878"
textLength="7.0817" font-size="1.6933" lengthAdjust="spacingAndGlyphs"
text-anchor="start" opacity="0">SCALE1</text>
<g class="stroked-text"><desc>SCALE1</desc>
<path d="M11.1802 10.0799
L11.3616 10.1403
" />
<path d="M11.3616 10.1403
L11.6640 10.1403
" />
<path d="M11.6640 10.1403
L11.7849 10.0799
" />
<path d="M11.7849 10.0799
L11.8454 10.0194
" />
<path d="M11.8454 10.0194
L11.9059 9.8984
" />
<path d="M11.9059 9.8984
L11.9059 9.7775
" />
<path d="M11.9059 9.7775
L11.8454 9.6565
" />
<path d="M11.8454 9.6565
L11.7849 9.5960
" />
<path d="M11.7849 9.5960
L11.6640 9.5356
" />
<path d="M11.6640 9.5356
L11.4221 9.4751
" />
<path d="M11.4221 9.4751
L11.3011 9.4146
" />
<path d="M11.3011 9.4146
L11.2406 9.3541
" />
<path d="M11.2406 9.3541
L11.1802 9.2332
" />
<path d="M11.1802 9.2332
L11.1802 9.1122
" />
<path d="M11.1802 9.1122
L11.2406 8.9913
" />
<path d="M11.2406 8.9913
L11.3011 8.9308
" />
<path d="M11.3011 8.9308
L11.4221 8.8703
" />
<path d="M11.4221 8.8703
L11.7244 8.8703
" />
<path d="M11.7244 8.8703
L11.9059 8.9308
" />
<path d="M13.1758 10.0194
L13.1154 10.0799
" />
<path d="M13.1154 10.0799
L12.9339 10.1403
" />
<path d="M12.9339 10.1403
L12.8130 10.1403
" />
<path d="M12.8130 10.1403
L12.6316 10.0799
" />
<path d="M12.6316 10.0799
L12.5106 9.9589
" />
<path d="M12.5106 9.9589
L12.4501 9.8379
" />
<path d="M12.4501 9.8379
L12.3897 9.5960
" />
<path d="M12.3897 9.5960
L12.3897 9.4146
" />
<path d="M12.3897 9.4146
L12.4501 9.1727
" />
<path d="M12.4501 9.1727
L12.5106 9.0518
" />
<path d="M12.5106 9.0518
L12.6316 8.9308
" />
<path d="M12.6316 8.9308
L12.8130 8.8703
" />
<path d="M12.8130 8.8703
L12.9339 8.8703
" />
<path d="M12.9339 8.8703
L13.1154 8.9308
" />
<path d="M13.1154 8.9308
L13.1758 8.9913
" />
<path d="M13.6597 9.7775
L14.2644 9.7775
" />
<path d="M13.5387 10.1403
L13.9620 8.8703
" />
<path d="M13.9620 8.8703
L14.3854 10.1403
" />
<path d="M15.4135 10.1403
L14.8087 10.1403
" />
<path d="M14.8087 10.1403
L14.8087 8.8703
" />
<path d="M15.8368 9.4751
L16.2602 9.4751
" />
<path d="M16.4416 10.1403
L15.8368 10.1403
" />
<path d="M15.8368 10.1403
L15.8368 8.8703
" />
<path d="M15.8368 8.8703
L16.4416 8.8703
" />
<path d="M17.6511 10.1403
L16.9254 10.1403
" />
<path d="M17.2882 10.1403
L17.2882 8.8703
" />
<path d="M17.2882 8.8703
L17.1673 9.0518
" />
<path d="M17.1673 9.0518
L17.0463 9.1727
" />
<path d="M17.0463 9.1727
L16.9254 9.2332
" />
</g></g>
<g style="fill:#A90000; fill-opacity:0.0; 
stroke:#A90000; stroke-width:0.1524; stroke-opacity:1; 
stroke-linecap:round; stroke-linejoin:round;">
<text x="9.1603" y="9.2988"
textLength="1.3365" font-size="1.6933" lengthAdjust="spacingAndGlyphs"
text-anchor="middle" opacity="0">4</text>
<g class="stroked-text"><desc>4</desc>
<path d="M9.4022 8.2967
L9.4022 9.1433
" />
<path d="M9.0998 7.8129
L8.7975 8.7200
" />
<path d="M8.7975 8.7200
L9.5836 8.7200
" />
</g></g>
<g style="fill:#840000; fill-opacity:0.0; 
stroke:#840000; stroke-width:0.1524; stroke-opacity:1; 
stroke-linecap:round; stroke-linejoin:round;">
<path d="M10.4303 12.0928
L7.8903 12.0928
" />
</g>
<g style="fill:#006464; fill-opacity:0.0; 
stroke:#006464; stroke-width:0.1524; stroke-opacity:1; 
stroke-linecap:round; stroke-linejoin:round;">
<text x="10.9383" y="12.7278"
textLength="7.0817" font-size="1.6933" lengthAdjust="spacingAndGlyphs"
text-anchor="start" opacity="0">SCALE2</text>
<g class="stroked-text"><desc>SCALE2</desc>
<path d="M11.1802 12.6199
L11.3616 12.6803
" />
<path d="M11.3616 12.6803
L11.6640 12.6803
" />
<path d="M11.6640 12.6803
L11.7849 12.6199
" />
<path d="M11.7849 12.6199
L11.8454 12.5594
" />
<path d="M11.8454 12.5594
L11.9059 12.4384
" />
<path d="M11.9059 12.4384
L11.9059 12.3175
" />
<path d="M11.9059 12.3175
L11.8454 12.1965
" />
<path d="M11.8454 12.1965
L11.7849 12.1360
" />
<path d="M11.7849 12.1360
L11.6640 12.0756
" />
<path d="M11.6640 12.0756
L11.4221 12.0151
" />
<path d="M11.4221 12.0151
L11.3011 11.9546
" />
<path d="M11.3011 11.9546
L11.2406 11.8941
" />
<path d="M11.2406 11.8941
L11.1802 11.7732
" />
<path d="M11.1802 11.7732
L11.1802 11.6522
" />
<path d="M11.1802 11.6522
L11.2406 11.5313
" />
<path d="M11.2406 11.5313
L11.3011 11.4708
" />
<path d="M11.3011 11.4708
L11.4221 11.4103
" />
<path d="M11.4221 11.4103
L11.7244 11.4103
" />
<path d="M11.7244 11.4103
L11.9059 11.4708
" />
<path d="M13.1758 12.5594
L13.1154 12.6199
" />
<path d="M13.1154 12.6199
L12.9339 12.6803
" />
<path d="M12.9339 12.6803
L12.8130 12.6803
" />
<path d="M12.8130 12.6803
L12.6316 12.6199
" />
<path d="M12.6316 12.6199
L12.5106 12.4989
" />
<path d="M12.5106 12.4989
L12.4501 12.3779
" />
<path d="M12.4501 12.3779
L12.3897 12.1360
" />
<path d="M12.3897 12.1360
L12.3897 11.9546
" />
<path d="M12.3897 11.9546
L12.4501 11.7127
" />
<path d="M12.4501 11.7127
L12.5106 11.5918
" />
<path d="M12.5106 11.5918
L12.6316 11.4708
" />
<path d="M12.6316 11.4708
L12.8130 11.4103
" />
<path d="M12.8130 11.4103
L12.9339 11.4103
" />
<path d="M12.9339 11.4103
L13.1154 11.4708
" />
<path d="M13.1154 11.4708
L13.1758 11.5313
" />
<path d="M13.6597 12.3175
L14.2644 12.3175
" />
<path d="M13.5387 12.6803
L13.9620 11.4103
" />
<path d="M13.9620 11.4103
L14.3854 12.6803
" />
<path d="M15.4135 12.6803
L14.8087 12.6803
" />
<path d="M14.8087 12.6803
L14.8087 11.4103
" />
<path d="M15.8368 12.0151
L16.2602 12.0151
" />
<path d="M16.4416 12.6803
L15.8368 12.6803
" />
<path d="M15.8368 12.6803
L15.8368 11.4103
" />
<path d="M15.8368 11.4103
L16.4416 11.4103
" />
<path d="M16.9254 11.5313
L16.9858 11.4708
" />
<path d="M16.9858 11.4708
L17.1068 11.4103
" />
<path d="M17.1068 11.4103
L17.4092 11.4103
" />
<path d="M17.4092 11.4103
L17.5301 11.4708
" />
<path d="M17.5301 11.4708
L17.5906 11.5313
" />
<path d="M17.5906 11.5313
L17.6511 11.6522
" />
<path d="M17.6511 11.6522
L17.6511 11.7732
" />
<path d="M17.6511 11.7732
L17.5906 11.9546
" />
<path d="M17.5906 11.9546
L16.8649 12.6803
" />
<path d="M16.8649 12.6803
L17.6511 12.6803
" />
</g></g>
<g style="fill:#A90000; fill-opacity:0.0; 
stroke:#A90000; stroke-width:0.1524; stroke-opacity:1; 
stroke-linecap:round; stroke-linejoin:round;">
<text x="9.1603" y="11.8388"
textLength="1.3365" font-size="1.6933" lengthAdjust="spacingAndGlyphs"
text-anchor="middle" opacity="0">5</text>
<g class="stroked-text"><desc>5</desc>
<path d="M9.4627 10.4133
L8.8579 10.4133
" />
<path d="M8.8579 10.4133
L8.7975 11.0181
" />
<path d="M8.7975 11.0181
L8.8579 10.9576
" />
<path d="M8.8579 10.9576
L8.9789 10.8971
" />
<path d="M8.9789 10.8971
L9.2813 10.8971
" />
<path d="M9.2813 10.8971
L9.4022 10.9576
" />
<path d="M9.4022 10.9576
L9.4627 11.0181
" />
<path d="M9.4627 11.0181
L9.5232 11.1390
" />
<path d="M9.5232 11.1390
L9.5232 11.4414
" />
<path d="M9.5232 11.4414
L9.4627 11.5624
" />
<path d="M9.4627 11.5624
L9.4022 11.6229
" />
<path d="M9.4022 11.6229
L9.2813 11.6833
" />
<path d="M9.2813 11.6833
L8.9789 11.6833
" />
<path d="M8.9789 11.6833
L8.8579 11.6229
" />
<path d="M8.8579 11.6229
L8.7975 11.5624
" />
</g></g>
<g style="fill:#840000; fill-opacity:0.0; 
stroke:#840000; stroke-width:0.1524; stroke-opacity:1; 
stroke-linecap:round; stroke-linejoin:round;">
<path d="M20.5903 37.4928
L20.5903 40.0328
" />
</g>
<g style="fill:#006464; fill-opacity:0.0; 
stroke:#006464; stroke-width:0.1524; stroke-opacity:1; 
stroke-linecap:round; stroke-linejoin:round;">
<g transform="rotate(-90.000000 20.5903 36.9848)">
<text x="20.5903" y="37.6198"
textLength="3.5136" font-size="1.6933" lengthAdjust="spacingAndGlyphs"
text-anchor="start" opacity="0">VEE</text>
</g>
<g class="stroked-text"><desc>VEE</desc>
<path d="M19.9078 36.8638
L21.1778 36.4405
" />
<path d="M21.1778 36.4405
L19.9078 36.0171
" />
<path d="M20.5126 35.5938
L20.5126 35.1704
" />
<path d="M21.1778 34.9890
L21.1778 35.5938
" />
<path d="M21.1778 35.5938
L19.9078 35.5938
" />
<path d="M19.9078 35.5938
L19.9078 34.9890
" />
<path d="M20.5126 34.4448
L20.5126 34.0214
" />
<path d="M21.1778 33.8400
L21.1778 34.4448
" />
<path d="M21.1778 34.4448
L19.9078 34.4448
" />
<path d="M19.9078 34.4448
L19.9078 33.8400
" />
</g></g>
<g style="fill:#A90000; fill-opacity:0.0; 
stroke:#A90000; stroke-width:0.1524; stroke-opacity:1; 
stroke-linecap:round; stroke-linejoin:round;">
<g transform="rotate(-90.000000 20.3363 38.7628)">
<text x="20.3363" y="38.7628"
textLength="1.3365" font-size="1.6933" lengthAdjust="spacingAndGlyphs"
text-anchor="middle" opacity="0">7</text>
</g>
<g class="stroked-text"><desc>7</desc>
<path d="M18.9108 39.1860
L18.9108 38.3394
" />
<path d="M18.9108 38.3394
L20.1808 38.8836
" />
</g></g>
<g style="fill:#840000; fill-opacity:0.0; 
stroke:#840000; stroke-width:0.1524; stroke-opacity:1; 
stroke-linecap:round; stroke-linejoin:round;">
<path d="M30.7503 9.5528
L33.2903 9.5528
" />
</g>
<g style="fill:#006464; fill-opacity:0.0; 
stroke:#006464; stroke-width:0.1524; stroke-opacity:1; 
stroke-linecap:round; stroke-linejoin:round;">
<text x="30.2423" y="10.1878"
textLength="2.4856" font-size="1.6933" lengthAdjust="spacingAndGlyphs"
text-anchor="end" opacity="0">VP</text>
<g class="stroked-text"><desc>VP</desc>
<path d="M28.0046 8.8703
L28.4279 10.1403
" />
<path d="M28.4279 10.1403
L28.8513 8.8703
" />
<path d="M29.2746 10.1403
L29.2746 8.8703
" />
<path d="M29.2746 8.8703
L29.7584 8.8703
" />
<path d="M29.7584 8.8703
L29.8794 8.9308
" />
<path d="M29.8794 8.9308
L29.9399 8.9913
" />
<path d="M29.9399 8.9913
L30.0003 9.1122
" />
<path d="M30.0003 9.1122
L30.0003 9.2937
" />
<path d="M30.0003 9.2937
L29.9399 9.4146
" />
<path d="M29.9399 9.4146
L29.8794 9.4751
" />
<path d="M29.8794 9.4751
L29.7584 9.5356
" />
<path d="M29.7584 9.5356
L29.2746 9.5356
" />
</g></g>
<g style="fill:#A90000; fill-opacity:0.0; 
stroke:#A90000; stroke-width:0.1524; stroke-opacity:1; 
stroke-linecap:round; stroke-linejoin:round;">
<text x="32.0203" y="9.2988"
textLength="1.3365" font-size="1.6933" lengthAdjust="spacingAndGlyphs"
text-anchor="middle" opacity="0">8</text>
<g class="stroked-text"><desc>8</desc>
<path d="M31.8994 8.4176
L31.7784 8.3571
" />
<path d="M31.7784 8.3571
L31.7179 8.2967
" />
<path d="M31.7179 8.2967
L31.6575 8.1757
" />
<path d="M31.6575 8.1757
L31.6575 8.1152
" />
<path d="M31.6575 8.1152
L31.7179 7.9943
" />
<path d="M31.7179 7.9943
L31.7784 7.9338
" />
<path d="M31.7784 7.9338
L31.8994 7.8733
" />
<path d="M31.8994 7.8733
L32.1413 7.8733
" />
<path d="M32.1413 7.8733
L32.2622 7.9338
" />
<path d="M32.2622 7.9338
L32.3227 7.9943
" />
<path d="M32.3227 7.9943
L32.3832 8.1152
" />
<path d="M32.3832 8.1152
L32.3832 8.1757
" />
<path d="M32.3832 8.1757
L32.3227 8.2967
" />
<path d="M32.3227 8.2967
L32.2622 8.3571
" />
<path d="M32.2622 8.3571
L32.1413 8.4176
" />
<path d="M32.1413 8.4176
L31.8994 8.4176
" />
<path d="M31.8994 8.4176
L31.7784 8.4781
" />
<path d="M31.7784 8.4781
L31.7179 8.5386
" />
<path d="M31.7179 8.5386
L31.6575 8.6595
" />
<path d="M31.6575 8.6595
L31.6575 8.9014
" />
<path d="M31.6575 8.9014
L31.7179 9.0224
" />
<path d="M31.7179 9.0224
L31.7784 9.0829
" />
<path d="M31.7784 9.0829
L31.8994 9.1433
" />
<path d="M31.8994 9.1433
L32.1413 9.1433
" />
<path d="M32.1413 9.1433
L32.2622 9.0829
" />
<path d="M32.2622 9.0829
L32.3227 9.0224
" />
<path d="M32.3227 9.0224
L32.3832 8.9014
" />
<path d="M32.3832 8.9014
L32.3832 8.6595
" />
<path d="M32.3832 8.6595
L32.3227 8.5386
" />
<path d="M32.3227 8.5386
L32.2622 8.4781
" />
<path d="M32.2622 8.4781
L32.1413 8.4176
" />
</g></g>
<g style="fill:#840000; fill-opacity:0.0; 
stroke:#840000; stroke-width:0.1524; stroke-opacity:1; 
stroke-linecap:round; stroke-linejoin:round;">
<path d="M10.4303 14.6328
L7.8903 14.6328
" />
</g>
<g style="fill:#006464; fill-opacity:0.0; 
stroke:#006464; stroke-width:0.1524; stroke-opacity:1; 
stroke-linecap:round; stroke-linejoin:round;">
<text x="10.9383" y="15.2678"
textLength="5.3884" font-size="1.6933" lengthAdjust="spacingAndGlyphs"
text-anchor="start" opacity="0">VPWM</text>
<g class="stroked-text"><desc>VPWM</desc>
<path d="M11.0592 13.9503
L11.4825 15.2203
" />
<path d="M11.4825 15.2203
L11.9059 13.9503
" />
<path d="M12.3292 15.2203
L12.3292 13.9503
" />
<path d="M12.3292 13.9503
L12.8130 13.9503
" />
<path d="M12.8130 13.9503
L12.9340 14.0108
" />
<path d="M12.9340 14.0108
L12.9945 14.0713
" />
<path d="M12.9945 14.0713
L13.0549 14.1922
" />
<path d="M13.0549 14.1922
L13.0549 14.3737
" />
<path d="M13.0549 14.3737
L12.9945 14.4946
" />
<path d="M12.9945 14.4946
L12.9340 14.5551
" />
<path d="M12.9340 14.5551
L12.8130 14.6156
" />
<path d="M12.8130 14.6156
L12.3292 14.6156
" />
<path d="M13.4783 13.9503
L13.7807 15.2203
" />
<path d="M13.7807 15.2203
L14.0226 14.3132
" />
<path d="M14.0226 14.3132
L14.2645 15.2203
" />
<path d="M14.2645 15.2203
L14.5669 13.9503
" />
<path d="M15.0506 15.2203
L15.0506 13.9503
" />
<path d="M15.0506 13.9503
L15.4740 14.8575
" />
<path d="M15.4740 14.8575
L15.8973 13.9503
" />
<path d="M15.8973 13.9503
L15.8973 15.2203
" />
</g></g>
<g style="fill:#A90000; fill-opacity:0.0; 
stroke:#A90000; stroke-width:0.1524; stroke-opacity:1; 
stroke-linecap:round; stroke-linejoin:round;">
<text x="9.1603" y="14.3788"
textLength="1.3365" font-size="1.6933" lengthAdjust="spacingAndGlyphs"
text-anchor="middle" opacity="0">9</text>
<g class="stroked-text"><desc>9</desc>
<path d="M8.9184 14.2233
L9.1603 14.2233
" />
<path d="M9.1603 14.2233
L9.2813 14.1629
" />
<path d="M9.2813 14.1629
L9.3417 14.1024
" />
<path d="M9.3417 14.1024
L9.4627 13.9209
" />
<path d="M9.4627 13.9209
L9.5232 13.6790
" />
<path d="M9.5232 13.6790
L9.5232 13.1952
" />
<path d="M9.5232 13.1952
L9.4627 13.0743
" />
<path d="M9.4627 13.0743
L9.4022 13.0138
" />
<path d="M9.4022 13.0138
L9.2813 12.9533
" />
<path d="M9.2813 12.9533
L9.0394 12.9533
" />
<path d="M9.0394 12.9533
L8.9184 13.0138
" />
<path d="M8.9184 13.0138
L8.8579 13.0743
" />
<path d="M8.8579 13.0743
L8.7975 13.1952
" />
<path d="M8.7975 13.1952
L8.7975 13.4976
" />
<path d="M8.7975 13.4976
L8.8579 13.6186
" />
<path d="M8.8579 13.6186
L8.9184 13.6790
" />
<path d="M8.9184 13.6790
L9.0394 13.7395
" />
<path d="M9.0394 13.7395
L9.2813 13.7395
" />
<path d="M9.2813 13.7395
L9.4022 13.6790
" />
<path d="M9.4022 13.6790
L9.4627 13.6186
" />
<path d="M9.4627 13.6186
L9.5232 13.4976
" />
</g></g>
<g style="fill:#840084; fill-opacity:0.0; 
stroke:#840084; stroke-width:0.1524; stroke-opacity:1; 
stroke-linecap:round; stroke-linejoin:round;">
</g>
<g style="fill:#006464; fill-opacity:0.0; 
stroke:#006464; stroke-width:0.1524; stroke-opacity:1; 
stroke-linecap:round; stroke-linejoin:round;">
</g>
<g style="fill:#006464; fill-opacity:0.0; 
stroke:#006464; stroke-width:0.1588; stroke-opacity:1; 
stroke-linecap:round; stroke-linejoin:round;">
<text x="15.5103" y="5.1078"
textLength="2.5621" font-size="1.6933" lengthAdjust="spacingAndGlyphs"
text-anchor="middle" opacity="0">U?</text>
<g class="stroked-text"><desc>U?</desc>
<path d="M14.6031 3.7903
L14.6031 4.8184
" />
<path d="M14.6031 4.8184
L14.6636 4.9394
" />
<path d="M14.6636 4.9394
L14.7241 4.9999
" />
<path d="M14.7241 4.9999
L14.8450 5.0603
" />
<path d="M14.8450 5.0603
L15.0869 5.0603
" />
<path d="M15.0869 5.0603
L15.2079 4.9999
" />
<path d="M15.2079 4.9999
L15.2684 4.9394
" />
<path d="M15.2684 4.9394
L15.3288 4.8184
" />
<path d="M15.3288 4.8184
L15.3288 3.7903
" />
<path d="M16.1151 4.9394
L16.1755 4.9999
" />
<path d="M16.1755 4.9999
L16.1151 5.0603
" />
<path d="M16.1151 5.0603
L16.0546 4.9999
" />
<path d="M16.0546 4.9999
L16.1151 4.9394
" />
<path d="M16.1151 4.9394
L16.1151 5.0603
" />
<path d="M15.8732 3.8508
L15.9941 3.7903
" />
<path d="M15.9941 3.7903
L16.2965 3.7903
" />
<path d="M16.2965 3.7903
L16.4174 3.8508
" />
<path d="M16.4174 3.8508
L16.4779 3.9718
" />
<path d="M16.4779 3.9718
L16.4779 4.0927
" />
<path d="M16.4779 4.0927
L16.4174 4.2137
" />
<path d="M16.4174 4.2137
L16.3570 4.2741
" />
<path d="M16.3570 4.2741
L16.2360 4.3346
" />
<path d="M16.2360 4.3346
L16.1755 4.3951
" />
<path d="M16.1755 4.3951
L16.1151 4.5160
" />
<path d="M16.1151 4.5160
L16.1151 4.5765
" />
</g><text x="25.6703" y="5.1078"
textLength="8.3677" font-size="1.6933" lengthAdjust="spacingAndGlyphs"
text-anchor="middle" opacity="0">AS3345F</text>
<g class="stroked-text"><desc>AS3345F</desc>
<path d="M21.7999 4.6975
L22.4046 4.6975
" />
<path d="M21.6789 5.0603
L22.1022 3.7903
" />
<path d="M22.1022 3.7903
L22.5256 5.0603
" />
<path d="M22.8885 4.9999
L23.0699 5.0603
" />
<path d="M23.0699 5.0603
L23.3723 5.0603
" />
<path d="M23.3723 5.0603
L23.4932 4.9999
" />
<path d="M23.4932 4.9999
L23.5537 4.9394
" />
<path d="M23.5537 4.9394
L23.6142 4.8184
" />
<path d="M23.6142 4.8184
L23.6142 4.6975
" />
<path d="M23.6142 4.6975
L23.5537 4.5765
" />
<path d="M23.5537 4.5765
L23.4932 4.5160
" />
<path d="M23.4932 4.5160
L23.3723 4.4556
" />
<path d="M23.3723 4.4556
L23.1304 4.3951
" />
<path d="M23.1304 4.3951
L23.0094 4.3346
" />
<path d="M23.0094 4.3346
L22.9489 4.2741
" />
<path d="M22.9489 4.2741
L22.8885 4.1532
" />
<path d="M22.8885 4.1532
L22.8885 4.0322
" />
<path d="M22.8885 4.0322
L22.9489 3.9113
" />
<path d="M22.9489 3.9113
L23.0094 3.8508
" />
<path d="M23.0094 3.8508
L23.1304 3.7903
" />
<path d="M23.1304 3.7903
L23.4327 3.7903
" />
<path d="M23.4327 3.7903
L23.6142 3.8508
" />
<path d="M24.0375 3.7903
L24.8237 3.7903
" />
<path d="M24.8237 3.7903
L24.4003 4.2741
" />
<path d="M24.4003 4.2741
L24.5818 4.2741
" />
<path d="M24.5818 4.2741
L24.7027 4.3346
" />
<path d="M24.7027 4.3346
L24.7632 4.3951
" />
<path d="M24.7632 4.3951
L24.8237 4.5160
" />
<path d="M24.8237 4.5160
L24.8237 4.8184
" />
<path d="M24.8237 4.8184
L24.7632 4.9394
" />
<path d="M24.7632 4.9394
L24.7027 4.9999
" />
<path d="M24.7027 4.9999
L24.5818 5.0603
" />
<path d="M24.5818 5.0603
L24.2189 5.0603
" />
<path d="M24.2189 5.0603
L24.0980 4.9999
" />
<path d="M24.0980 4.9999
L24.0375 4.9394
" />
<path d="M25.2470 3.7903
L26.0332 3.7903
" />
<path d="M26.0332 3.7903
L25.6098 4.2741
" />
<path d="M25.6098 4.2741
L25.7913 4.2741
" />
<path d="M25.7913 4.2741
L25.9122 4.3346
" />
<path d="M25.9122 4.3346
L25.9727 4.3951
" />
<path d="M25.9727 4.3951
L26.0332 4.5160
" />
<path d="M26.0332 4.5160
L26.0332 4.8184
" />
<path d="M26.0332 4.8184
L25.9727 4.9394
" />
<path d="M25.9727 4.9394
L25.9122 4.9999
" />
<path d="M25.9122 4.9999
L25.7913 5.0603
" />
<path d="M25.7913 5.0603
L25.4284 5.0603
" />
<path d="M25.4284 5.0603
L25.3075 4.9999
" />
<path d="M25.3075 4.9999
L25.2470 4.9394
" />
<path d="M27.1217 4.2137
L27.1217 5.0603
" />
<path d="M26.8193 3.7299
L26.5170 4.6370
" />
<path d="M26.5170 4.6370
L27.3031 4.6370
" />
<path d="M28.3917 3.7903
L27.7869 3.7903
" />
<path d="M27.7869 3.7903
L27.7265 4.3951
" />
<path d="M27.7265 4.3951
L27.7869 4.3346
" />
<path d="M27.7869 4.3346
L27.9079 4.2741
" />
<path d="M27.9079 4.2741
L28.2103 4.2741
" />
<path d="M28.2103 4.2741
L28.3312 4.3346
" />
<path d="M28.3312 4.3346
L28.3917 4.3951
" />
<path d="M28.3917 4.3951
L28.4522 4.5160
" />
<path d="M28.4522 4.5160
L28.4522 4.8184
" />
<path d="M28.4522 4.8184
L28.3917 4.9394
" />
<path d="M28.3917 4.9394
L28.3312 4.9999
" />
<path d="M28.3312 4.9999
L28.2103 5.0603
" />
<path d="M28.2103 5.0603
L27.9079 5.0603
" />
<path d="M27.9079 5.0603
L27.7869 4.9999
" />
<path d="M27.7869 4.9999
L27.7265 4.9394
" />
<path d="M29.4198 4.3951
L28.9964 4.3951
" />
<path d="M28.9964 5.0603
L28.9964 3.7903
" />
<path d="M28.9964 3.7903
L29.6012 3.7903
" />
</g></g>
<g style="fill:#840084; fill-opacity:0.0; 
stroke:#840084; stroke-width:0.1588; stroke-opacity:1; 
stroke-linecap:round; stroke-linejoin:round;">
<text x="56.1503" y="38.1278"
textLength="61.2841" font-size="1.6933" lengthAdjust="spacingAndGlyphs"
text-anchor="middle" opacity="0">Package_DFN_QFN:QFN-24-1EP_4x4mm_P0.5mm_EP2.7x2.7mm</text>
<g class="stroked-text"><desc>Package_DFN_QFN:QFN-24-1EP_4x4mm_P0.5mm_EP2.7x2.7mm</desc>
<path d="M25.8821 38.0803
L25.8821 36.8103
" />
<path d="M25.8821 36.8103
L26.3659 36.8103
" />
<path d="M26.3659 36.8103
L26.4869 36.8708
" />
<path d="M26.4869 36.8708
L26.5474 36.9313
" />
<path d="M26.5474 36.9313
L26.6078 37.0522
" />
<path d="M26.6078 37.0522
L26.6078 37.2337
" />
<path d="M26.6078 37.2337
L26.5474 37.3546
" />
<path d="M26.5474 37.3546
L26.4869 37.4151
" />
<path d="M26.4869 37.4151
L26.3659 37.4756
" />
<path d="M26.3659 37.4756
L25.8821 37.4756
" />
<path d="M27.6964 38.0803
L27.6964 37.4151
" />
<path d="M27.6964 37.4151
L27.6359 37.2941
" />
<path d="M27.6359 37.2941
L27.5150 37.2337
" />
<path d="M27.5150 37.2337
L27.2731 37.2337
" />
<path d="M27.2731 37.2337
L27.1521 37.2941
" />
<path d="M27.6964 38.0199
L27.5755 38.0803
" />
<path d="M27.5755 38.0803
L27.2731 38.0803
" />
<path d="M27.2731 38.0803
L27.1521 38.0199
" />
<path d="M27.1521 38.0199
L27.0917 37.8989
" />
<path d="M27.0917 37.8989
L27.0917 37.7779
" />
<path d="M27.0917 37.7779
L27.1521 37.6570
" />
<path d="M27.1521 37.6570
L27.2731 37.5965
" />
<path d="M27.2731 37.5965
L27.5755 37.5965
" />
<path d="M27.5755 37.5965
L27.6964 37.5360
" />
<path d="M28.8454 38.0199
L28.7245 38.0803
" />
<path d="M28.7245 38.0803
L28.4826 38.0803
" />
<path d="M28.4826 38.0803
L28.3616 38.0199
" />
<path d="M28.3616 38.0199
L28.3011 37.9594
" />
<path d="M28.3011 37.9594
L28.2407 37.8384
" />
<path d="M28.2407 37.8384
L28.2407 37.4756
" />
<path d="M28.2407 37.4756
L28.3011 37.3546
" />
<path d="M28.3011 37.3546
L28.3616 37.2941
" />
<path d="M28.3616 37.2941
L28.4826 37.2337
" />
<path d="M28.4826 37.2337
L28.7245 37.2337
" />
<path d="M28.7245 37.2337
L28.8454 37.2941
" />
<path d="M29.3897 38.0803
L29.3897 36.8103
" />
<path d="M29.5107 37.5965
L29.8735 38.0803
" />
<path d="M29.8735 37.2337
L29.3897 37.7175
" />
<path d="M30.9621 38.0803
L30.9621 37.4151
" />
<path d="M30.9621 37.4151
L30.9016 37.2941
" />
<path d="M30.9016 37.2941
L30.7807 37.2337
" />
<path d="M30.7807 37.2337
L30.5388 37.2337
" />
<path d="M30.5388 37.2337
L30.4178 37.2941
" />
<path d="M30.9621 38.0199
L30.8412 38.0803
" />
<path d="M30.8412 38.0803
L30.5388 38.0803
" />
<path d="M30.5388 38.0803
L30.4178 38.0199
" />
<path d="M30.4178 38.0199
L30.3574 37.8989
" />
<path d="M30.3574 37.8989
L30.3574 37.7779
" />
<path d="M30.3574 37.7779
L30.4178 37.6570
" />
<path d="M30.4178 37.6570
L30.5388 37.5965
" />
<path d="M30.5388 37.5965
L30.8412 37.5965
" />
<path d="M30.8412 37.5965
L30.9621 37.5360
" />
<path d="M32.1111 37.2337
L32.1111 38.2618
" />
<path d="M32.1111 38.2618
L32.0506 38.3827
" />
<path d="M32.0506 38.3827
L31.9902 38.4432
" />
<path d="M31.9902 38.4432
L31.8692 38.5037
" />
<path d="M31.8692 38.5037
L31.6878 38.5037
" />
<path d="M31.6878 38.5037
L31.5668 38.4432
" />
<path d="M32.1111 38.0199
L31.9902 38.0803
" />
<path d="M31.9902 38.0803
L31.7483 38.0803
" />
<path d="M31.7483 38.0803
L31.6273 38.0199
" />
<path d="M31.6273 38.0199
L31.5668 37.9594
" />
<path d="M31.5668 37.9594
L31.5064 37.8384
" />
<path d="M31.5064 37.8384
L31.5064 37.4756
" />
<path d="M31.5064 37.4756
L31.5668 37.3546
" />
<path d="M31.5668 37.3546
L31.6273 37.2941
" />
<path d="M31.6273 37.2941
L31.7483 37.2337
" />
<path d="M31.7483 37.2337
L31.9902 37.2337
" />
<path d="M31.9902 37.2337
L32.1111 37.2941
" />
<path d="M33.1996 38.0199
L33.0787 38.0803
" />
<path d="M33.0787 38.0803
L32.8368 38.0803
" />
<path d="M32.8368 38.0803
L32.7158 38.0199
" />
<path d="M32.7158 38.0199
L32.6554 37.8989
" />
<path d="M32.6554 37.8989
L32.6554 37.4151
" />
<path d="M32.6554 37.4151
L32.7158 37.2941
" />
<path d="M32.7158 37.2941
L32.8368 37.2337
" />
<path d="M32.8368 37.2337
L33.0787 37.2337
" />
<path d="M33.0787 37.2337
L33.1996 37.2941
" />
<path d="M33.1996 37.2941
L33.2601 37.4151
" />
<path d="M33.2601 37.4151
L33.2601 37.5360
" />
<path d="M33.2601 37.5360
L32.6554 37.6570
" />
<path d="M33.5021 38.2013
L34.4697 38.2013
" />
<path d="M34.7720 38.0803
L34.7720 36.8103
" />
<path d="M34.7720 36.8103
L35.0744 36.8103
" />
<path d="M35.0744 36.8103
L35.2558 36.8708
" />
<path d="M35.2558 36.8708
L35.3768 36.9918
" />
<path d="M35.3768 36.9918
L35.4373 37.1127
" />
<path d="M35.4373 37.1127
L35.4977 37.3546
" />
<path d="M35.4977 37.3546
L35.4977 37.5360
" />
<path d="M35.4977 37.5360
L35.4373 37.7779
" />
<path d="M35.4373 37.7779
L35.3768 37.8989
" />
<path d="M35.3768 37.8989
L35.2558 38.0199
" />
<path d="M35.2558 38.0199
L35.0744 38.0803
" />
<path d="M35.0744 38.0803
L34.7720 38.0803
" />
<path d="M36.4654 37.4151
L36.0420 37.4151
" />
<path d="M36.0420 38.0803
L36.0420 36.8103
" />
<path d="M36.0420 36.8103
L36.6468 36.8103
" />
<path d="M37.1306 38.0803
L37.1306 36.8103
" />
<path d="M37.1306 36.8103
L37.8563 38.0803
" />
<path d="M37.8563 38.0803
L37.8563 36.8103
" />
<path d="M38.1588 38.2013
L39.1264 38.2013
" />
<path d="M40.2754 38.2013
L40.1544 38.1408
" />
<path d="M40.1544 38.1408
L40.0335 38.0199
" />
<path d="M40.0335 38.0199
L39.8521 37.8384
" />
<path d="M39.8521 37.8384
L39.7311 37.7779
" />
<path d="M39.7311 37.7779
L39.6102 37.7779
" />
<path d="M39.6706 38.0803
L39.5497 38.0199
" />
<path d="M39.5497 38.0199
L39.4287 37.8989
" />
<path d="M39.4287 37.8989
L39.3683 37.6570
" />
<path d="M39.3683 37.6570
L39.3683 37.2337
" />
<path d="M39.3683 37.2337
L39.4287 36.9918
" />
<path d="M39.4287 36.9918
L39.5497 36.8708
" />
<path d="M39.5497 36.8708
L39.6706 36.8103
" />
<path d="M39.6706 36.8103
L39.9125 36.8103
" />
<path d="M39.9125 36.8103
L40.0335 36.8708
" />
<path d="M40.0335 36.8708
L40.1544 36.9918
" />
<path d="M40.1544 36.9918
L40.2149 37.2337
" />
<path d="M40.2149 37.2337
L40.2149 37.6570
" />
<path d="M40.2149 37.6570
L40.1544 37.8989
" />
<path d="M40.1544 37.8989
L40.0335 38.0199
" />
<path d="M40.0335 38.0199
L39.9125 38.0803
" />
<path d="M39.9125 38.0803
L39.6706 38.0803
" />
<path d="M41.1826 37.4151
L40.7592 37.4151
" />
<path d="M40.7592 38.0803
L40.7592 36.8103
" />
<path d="M40.7592 36.8103
L41.3640 36.8103
" />
<path d="M41.8478 38.0803
L41.8478 36.8103
" />
<path d="M41.8478 36.8103
L42.5735 38.0803
" />
<path d="M42.5735 38.0803
L42.5735 36.8103
" />
<path d="M43.1783 37.9594
L43.2388 38.0199
" />
<path d="M43.2388 38.0199
L43.1783 38.0803
" />
<path d="M43.1783 38.0803
L43.1179 38.0199
" />
<path d="M43.1179 38.0199
L43.1783 37.9594
" />
<path d="M43.1783 37.9594
L43.1783 38.0803
" />
<path d="M43.1783 37.2941
L43.2388 37.3546
" />
<path d="M43.2388 37.3546
L43.1783 37.4151
" />
<path d="M43.1783 37.4151
L43.1179 37.3546
" />
<path d="M43.1179 37.3546
L43.1783 37.2941
" />
<path d="M43.1783 37.2941
L43.1783 37.4151
" />
<path d="M44.6298 38.2013
L44.5088 38.1408
" />
<path d="M44.5088 38.1408
L44.3879 38.0199
" />
<path d="M44.3879 38.0199
L44.2065 37.8384
" />
<path d="M44.2065 37.8384
L44.0855 37.7779
" />
<path d="M44.0855 37.7779
L43.9646 37.7779
" />
<path d="M44.0250 38.0803
L43.9041 38.0199
" />
<path d="M43.9041 38.0199
L43.7831 37.8989
" />
<path d="M43.7831 37.8989
L43.7227 37.6570
" />
<path d="M43.7227 37.6570
L43.7227 37.2337
" />
<path d="M43.7227 37.2337
L43.7831 36.9918
" />
<path d="M43.7831 36.9918
L43.9041 36.8708
" />
<path d="M43.9041 36.8708
L44.0250 36.8103
" />
<path d="M44.0250 36.8103
L44.2669 36.8103
" />
<path d="M44.2669 36.8103
L44.3879 36.8708
" />
<path d="M44.3879 36.8708
L44.5088 36.9918
" />
<path d="M44.5088 36.9918
L44.5693 37.2337
" />
<path d="M44.5693 37.2337
L44.5693 37.6570
" />
<path d="M44.5693 37.6570
L44.5088 37.8989
" />
<path d="M44.5088 37.8989
L44.3879 38.0199
" />
<path d="M44.3879 38.0199
L44.2669 38.0803
" />
<path d="M44.2669 38.0803
L44.0250 38.0803
" />
<path d="M45.5370 37.4151
L45.1136 37.4151
" />
<path d="M45.1136 38.0803
L45.1136 36.8103
" />
<path d="M45.1136 36.8103
L45.7184 36.8103
" />
<path d="M46.2022 38.0803
L46.2022 36.8103
" />
<path d="M46.2022 36.8103
L46.9279 38.0803
" />
<path d="M46.9279 38.0803
L46.9279 36.8103
" />
<path d="M47.5327 37.5965
L48.5004 37.5965
" />
<path d="M49.0447 36.9313
L49.1051 36.8708
" />
<path d="M49.1051 36.8708
L49.2261 36.8103
" />
<path d="M49.2261 36.8103
L49.5285 36.8103
" />
<path d="M49.5285 36.8103
L49.6494 36.8708
" />
<path d="M49.6494 36.8708
L49.7099 36.9313
" />
<path d="M49.7099 36.9313
L49.7704 37.0522
" />
<path d="M49.7704 37.0522
L49.7704 37.1732
" />
<path d="M49.7704 37.1732
L49.7099 37.3546
" />
<path d="M49.7099 37.3546
L48.9842 38.0803
" />
<path d="M48.9842 38.0803
L49.7704 38.0803
" />
<path d="M50.8589 37.2337
L50.8589 38.0803
" />
<path d="M50.5565 36.7499
L50.2542 37.6570
" />
<path d="M50.2542 37.6570
L51.0403 37.6570
" />
<path d="M51.5241 37.5965
L52.4918 37.5965
" />
<path d="M53.7618 38.0803
L53.0361 38.0803
" />
<path d="M53.3989 38.0803
L53.3989 36.8103
" />
<path d="M53.3989 36.8103
L53.2780 36.9918
" />
<path d="M53.2780 36.9918
L53.1570 37.1127
" />
<path d="M53.1570 37.1127
L53.0361 37.1732
" />
<path d="M54.3060 37.4151
L54.7294 37.4151
" />
<path d="M54.9108 38.0803
L54.3060 38.0803
" />
<path d="M54.3060 38.0803
L54.3060 36.8103
" />
<path d="M54.3060 36.8103
L54.9108 36.8103
" />
<path d="M55.4550 38.0803
L55.4550 36.8103
" />
<path d="M55.4550 36.8103
L55.9388 36.8103
" />
<path d="M55.9388 36.8103
L56.0598 36.8708
" />
<path d="M56.0598 36.8708
L56.1203 36.9313
" />
<path d="M56.1203 36.9313
L56.1807 37.0522
" />
<path d="M56.1807 37.0522
L56.1807 37.2337
" />
<path d="M56.1807 37.2337
L56.1203 37.3546
" />
<path d="M56.1203 37.3546
L56.0598 37.4151
" />
<path d="M56.0598 37.4151
L55.9388 37.4756
" />
<path d="M55.9388 37.4756
L55.4550 37.4756
" />
<path d="M56.4227 38.2013
L57.3903 38.2013
" />
<path d="M58.2369 37.2337
L58.2369 38.0803
" />
<path d="M57.9345 36.7499
L57.6322 37.6570
" />
<path d="M57.6322 37.6570
L58.4183 37.6570
" />
<path d="M58.7812 38.0803
L59.4464 37.2337
" />
<path d="M58.7812 37.2337
L59.4464 38.0803
" />
<path d="M60.4745 37.2337
L60.4745 38.0803
" />
<path d="M60.1721 36.7499
L59.8698 37.6570
" />
<path d="M59.8698 37.6570
L60.6559 37.6570
" />
<path d="M61.1397 38.0803
L61.1397 37.2337
" />
<path d="M61.1397 37.3546
L61.2002 37.2941
" />
<path d="M61.2002 37.2941
L61.3212 37.2337
" />
<path d="M61.3212 37.2337
L61.5026 37.2337
" />
<path d="M61.5026 37.2337
L61.6235 37.2941
" />
<path d="M61.6235 37.2941
L61.6840 37.4151
" />
<path d="M61.6840 37.4151
L61.6840 38.0803
" />
<path d="M61.6840 37.4151
L61.7445 37.2941
" />
<path d="M61.7445 37.2941
L61.8654 37.2337
" />
<path d="M61.8654 37.2337
L62.0469 37.2337
" />
<path d="M62.0469 37.2337
L62.1678 37.2941
" />
<path d="M62.1678 37.2941
L62.2283 37.4151
" />
<path d="M62.2283 37.4151
L62.2283 38.0803
" />
<path d="M62.8330 38.0803
L62.8330 37.2337
" />
<path d="M62.8330 37.3546
L62.8935 37.2941
" />
<path d="M62.8935 37.2941
L63.0145 37.2337
" />
<path d="M63.0145 37.2337
L63.1959 37.2337
" />
<path d="M63.1959 37.2337
L63.3168 37.2941
" />
<path d="M63.3168 37.2941
L63.3773 37.4151
" />
<path d="M63.3773 37.4151
L63.3773 38.0803
" />
<path d="M63.3773 37.4151
L63.4378 37.2941
" />
<path d="M63.4378 37.2941
L63.5587 37.2337
" />
<path d="M63.5587 37.2337
L63.7402 37.2337
" />
<path d="M63.7402 37.2337
L63.8611 37.2941
" />
<path d="M63.8611 37.2941
L63.9216 37.4151
" />
<path d="M63.9216 37.4151
L63.9216 38.0803
" />
<path d="M64.2240 38.2013
L65.1916 38.2013
" />
<path d="M65.4939 38.0803
L65.4939 36.8103
" />
<path d="M65.4939 36.8103
L65.9777 36.8103
" />
<path d="M65.9777 36.8103
L66.0987 36.8708
" />
<path d="M66.0987 36.8708
L66.1592 36.9313
" />
<path d="M66.1592 36.9313
L66.2196 37.0522
" />
<path d="M66.2196 37.0522
L66.2196 37.2337
" />
<path d="M66.2196 37.2337
L66.1592 37.3546
" />
<path d="M66.1592 37.3546
L66.0987 37.4151
" />
<path d="M66.0987 37.4151
L65.9777 37.4756
" />
<path d="M65.9777 37.4756
L65.4939 37.4756
" />
<path d="M67.0058 36.8103
L67.1268 36.8103
" />
<path d="M67.1268 36.8103
L67.2477 36.8708
" />
<path d="M67.2477 36.8708
L67.3082 36.9313
" />
<path d="M67.3082 36.9313
L67.3687 37.0522
" />
<path d="M67.3687 37.0522
L67.4292 37.2941
" />
<path d="M67.4292 37.2941
L67.4292 37.5965
" />
<path d="M67.4292 37.5965
L67.3687 37.8384
" />
<path d="M67.3687 37.8384
L67.3082 37.9594
" />
<path d="M67.3082 37.9594
L67.2477 38.0199
" />
<path d="M67.2477 38.0199
L67.1268 38.0803
" />
<path d="M67.1268 38.0803
L67.0058 38.0803
" />
<path d="M67.0058 38.0803
L66.8849 38.0199
" />
<path d="M66.8849 38.0199
L66.8244 37.9594
" />
<path d="M66.8244 37.9594
L66.7639 37.8384
" />
<path d="M66.7639 37.8384
L66.7035 37.5965
" />
<path d="M66.7035 37.5965
L66.7035 37.2941
" />
<path d="M66.7035 37.2941
L66.7639 37.0522
" />
<path d="M66.7639 37.0522
L66.8244 36.9313
" />
<path d="M66.8244 36.9313
L66.8849 36.8708
" />
<path d="M66.8849 36.8708
L67.0058 36.8103
" />
<path d="M67.9734 37.9594
L68.0339 38.0199
" />
<path d="M68.0339 38.0199
L67.9734 38.0803
" />
<path d="M67.9734 38.0803
L67.9130 38.0199
" />
<path d="M67.9130 38.0199
L67.9734 37.9594
" />
<path d="M67.9734 37.9594
L67.9734 38.0803
" />
<path d="M69.1830 36.8103
L68.5782 36.8103
" />
<path d="M68.5782 36.8103
L68.5178 37.4151
" />
<path d="M68.5178 37.4151
L68.5782 37.3546
" />
<path d="M68.5782 37.3546
L68.6992 37.2941
" />
<path d="M68.6992 37.2941
L69.0016 37.2941
" />
<path d="M69.0016 37.2941
L69.1225 37.3546
" />
<path d="M69.1225 37.3546
L69.1830 37.4151
" />
<path d="M69.1830 37.4151
L69.2435 37.5360
" />
<path d="M69.2435 37.5360
L69.2435 37.8384
" />
<path d="M69.2435 37.8384
L69.1830 37.9594
" />
<path d="M69.1830 37.9594
L69.1225 38.0199
" />
<path d="M69.1225 38.0199
L69.0016 38.0803
" />
<path d="M69.0016 38.0803
L68.6992 38.0803
" />
<path d="M68.6992 38.0803
L68.5782 38.0199
" />
<path d="M68.5782 38.0199
L68.5178 37.9594
" />
<path d="M69.7877 38.0803
L69.7877 37.2337
" />
<path d="M69.7877 37.3546
L69.8482 37.2941
" />
<path d="M69.8482 37.2941
L69.9692 37.2337
" />
<path d="M69.9692 37.2337
L70.1506 37.2337
" />
<path d="M70.1506 37.2337
L70.2715 37.2941
" />
<path d="M70.2715 37.2941
L70.3320 37.4151
" />
<path d="M70.3320 37.4151
L70.3320 38.0803
" />
<path d="M70.3320 37.4151
L70.3925 37.2941
" />
<path d="M70.3925 37.2941
L70.5134 37.2337
" />
<path d="M70.5134 37.2337
L70.6949 37.2337
" />
<path d="M70.6949 37.2337
L70.8158 37.2941
" />
<path d="M70.8158 37.2941
L70.8763 37.4151
" />
<path d="M70.8763 37.4151
L70.8763 38.0803
" />
<path d="M71.4810 38.0803
L71.4810 37.2337
" />
<path d="M71.4810 37.3546
L71.5415 37.2941
" />
<path d="M71.5415 37.2941
L71.6625 37.2337
" />
<path d="M71.6625 37.2337
L71.8439 37.2337
" />
<path d="M71.8439 37.2337
L71.9648 37.2941
" />
<path d="M71.9648 37.2941
L72.0253 37.4151
" />
<path d="M72.0253 37.4151
L72.0253 38.0803
" />
<path d="M72.0253 37.4151
L72.0858 37.2941
" />
<path d="M72.0858 37.2941
L72.2067 37.2337
" />
<path d="M72.2067 37.2337
L72.3882 37.2337
" />
<path d="M72.3882 37.2337
L72.5091 37.2941
" />
<path d="M72.5091 37.2941
L72.5696 37.4151
" />
<path d="M72.5696 37.4151
L72.5696 38.0803
" />
<path d="M72.8720 38.2013
L73.8396 38.2013
" />
<path d="M74.1419 37.4151
L74.5653 37.4151
" />
<path d="M74.7467 38.0803
L74.1419 38.0803
" />
<path d="M74.1419 38.0803
L74.1419 36.8103
" />
<path d="M74.1419 36.8103
L74.7467 36.8103
" />
<path d="M75.2909 38.0803
L75.2909 36.8103
" />
<path d="M75.2909 36.8103
L75.7747 36.8103
" />
<path d="M75.7747 36.8103
L75.8957 36.8708
" />
<path d="M75.8957 36.8708
L75.9562 36.9313
" />
<path d="M75.9562 36.9313
L76.0166 37.0522
" />
<path d="M76.0166 37.0522
L76.0166 37.2337
" />
<path d="M76.0166 37.2337
L75.9562 37.3546
" />
<path d="M75.9562 37.3546
L75.8957 37.4151
" />
<path d="M75.8957 37.4151
L75.7747 37.4756
" />
<path d="M75.7747 37.4756
L75.2909 37.4756
" />
<path d="M76.5005 36.9313
L76.5609 36.8708
" />
<path d="M76.5609 36.8708
L76.6819 36.8103
" />
<path d="M76.6819 36.8103
L76.9843 36.8103
" />
<path d="M76.9843 36.8103
L77.1052 36.8708
" />
<path d="M77.1052 36.8708
L77.1657 36.9313
" />
<path d="M77.1657 36.9313
L77.2262 37.0522
" />
<path d="M77.2262 37.0522
L77.2262 37.1732
" />
<path d="M77.2262 37.1732
L77.1657 37.3546
" />
<path d="M77.1657 37.3546
L76.4400 38.0803
" />
<path d="M76.4400 38.0803
L77.2262 38.0803
" />
<path d="M77.7704 37.9594
L77.8309 38.0199
" />
<path d="M77.8309 38.0199
L77.7704 38.0803
" />
<path d="M77.7704 38.0803
L77.7100 38.0199
" />
<path d="M77.7100 38.0199
L77.7704 37.9594
" />
<path d="M77.7704 37.9594
L77.7704 38.0803
" />
<path d="M78.2543 36.8103
L79.1009 36.8103
" />
<path d="M79.1009 36.8103
L78.5567 38.0803
" />
<path d="M79.4638 38.0803
L80.1290 37.2337
" />
<path d="M79.4638 37.2337
L80.1290 38.0803
" />
<path d="M80.5524 36.9313
L80.6128 36.8708
" />
<path d="M80.6128 36.8708
L80.7338 36.8103
" />
<path d="M80.7338 36.8103
L81.0362 36.8103
" />
<path d="M81.0362 36.8103
L81.1571 36.8708
" />
<path d="M81.1571 36.8708
L81.2176 36.9313
" />
<path d="M81.2176 36.9313
L81.2781 37.0522
" />
<path d="M81.2781 37.0522
L81.2781 37.1732
" />
<path d="M81.2781 37.1732
L81.2176 37.3546
" />
<path d="M81.2176 37.3546
L80.4919 38.0803
" />
<path d="M80.4919 38.0803
L81.2781 38.0803
" />
<path d="M81.8223 37.9594
L81.8828 38.0199
" />
<path d="M81.8828 38.0199
L81.8223 38.0803
" />
<path d="M81.8223 38.0803
L81.7619 38.0199
" />
<path d="M81.7619 38.0199
L81.8223 37.9594
" />
<path d="M81.8223 37.9594
L81.8223 38.0803
" />
<path d="M82.3062 36.8103
L83.1528 36.8103
" />
<path d="M83.1528 36.8103
L82.6086 38.0803
" />
<path d="M83.6366 38.0803
L83.6366 37.2337
" />
<path d="M83.6366 37.3546
L83.6971 37.2941
" />
<path d="M83.6971 37.2941
L83.8181 37.2337
" />
<path d="M83.8181 37.2337
L83.9995 37.2337
" />
<path d="M83.9995 37.2337
L84.1204 37.2941
" />
<path d="M84.1204 37.2941
L84.1809 37.4151
" />
<path d="M84.1809 37.4151
L84.1809 38.0803
" />
<path d="M84.1809 37.4151
L84.2414 37.2941
" />
<path d="M84.2414 37.2941
L84.3623 37.2337
" />
<path d="M84.3623 37.2337
L84.5438 37.2337
" />
<path d="M84.5438 37.2337
L84.6647 37.2941
" />
<path d="M84.6647 37.2941
L84.7252 37.4151
" />
<path d="M84.7252 37.4151
L84.7252 38.0803
" />
<path d="M85.3299 38.0803
L85.3299 37.2337
" />
<path d="M85.3299 37.3546
L85.3904 37.2941
" />
<path d="M85.3904 37.2941
L85.5114 37.2337
" />
<path d="M85.5114 37.2337
L85.6928 37.2337
" />
<path d="M85.6928 37.2337
L85.8137 37.2941
" />
<path d="M85.8137 37.2941
L85.8742 37.4151
" />
<path d="M85.8742 37.4151
L85.8742 38.0803
" />
<path d="M85.8742 37.4151
L85.9347 37.2941
" />
<path d="M85.9347 37.2941
L86.0556 37.2337
" />
<path d="M86.0556 37.2337
L86.2371 37.2337
" />
<path d="M86.2371 37.2337
L86.3580 37.2941
" />
<path d="M86.3580 37.2941
L86.4185 37.4151
" />
<path d="M86.4185 37.4151
L86.4185 38.0803
" />
</g><text x="35.8303" y="36.8578"
textLength="42.0527" font-size="1.6933" lengthAdjust="spacingAndGlyphs"
text-anchor="middle" opacity="0">http://www.alfarzpp.lv/eng/sc/AS3340.pdf</text>
<g class="stroked-text"><desc>http://www.alfarzpp.lv/eng/sc/AS3340.pdf</desc>
<path d="M15.1778 36.8103
L15.1778 35.5403
" />
<path d="M15.7221 36.8103
L15.7221 36.1451
" />
<path d="M15.7221 36.1451
L15.6616 36.0241
" />
<path d="M15.6616 36.0241
L15.5407 35.9637
" />
<path d="M15.5407 35.9637
L15.3593 35.9637
" />
<path d="M15.3593 35.9637
L15.2383 36.0241
" />
<path d="M15.2383 36.0241
L15.1778 36.0846
" />
<path d="M16.1454 35.9637
L16.6292 35.9637
" />
<path d="M16.3268 35.5403
L16.3268 36.6289
" />
<path d="M16.3268 36.6289
L16.3873 36.7499
" />
<path d="M16.3873 36.7499
L16.5083 36.8103
" />
<path d="M16.5083 36.8103
L16.6292 36.8103
" />
<path d="M16.8711 35.9637
L17.3549 35.9637
" />
<path d="M17.0525 35.5403
L17.0525 36.6289
" />
<path d="M17.0525 36.6289
L17.1130 36.7499
" />
<path d="M17.1130 36.7499
L17.2340 36.8103
" />
<path d="M17.2340 36.8103
L17.3549 36.8103
" />
<path d="M17.7782 35.9637
L17.7782 37.2337
" />
<path d="M17.7782 36.0241
L17.8992 35.9637
" />
<path d="M17.8992 35.9637
L18.1411 35.9637
" />
<path d="M18.1411 35.9637
L18.2620 36.0241
" />
<path d="M18.2620 36.0241
L18.3225 36.0846
" />
<path d="M18.3225 36.0846
L18.3830 36.2056
" />
<path d="M18.3830 36.2056
L18.3830 36.5684
" />
<path d="M18.3830 36.5684
L18.3225 36.6894
" />
<path d="M18.3225 36.6894
L18.2620 36.7499
" />
<path d="M18.2620 36.7499
L18.1411 36.8103
" />
<path d="M18.1411 36.8103
L17.8992 36.8103
" />
<path d="M17.8992 36.8103
L17.7782 36.7499
" />
<path d="M18.9272 36.6894
L18.9877 36.7499
" />
<path d="M18.9877 36.7499
L18.9272 36.8103
" />
<path d="M18.9272 36.8103
L18.8668 36.7499
" />
<path d="M18.8668 36.7499
L18.9272 36.6894
" />
<path d="M18.9272 36.6894
L18.9272 36.8103
" />
<path d="M18.9272 36.0241
L18.9877 36.0846
" />
<path d="M18.9877 36.0846
L18.9272 36.1451
" />
<path d="M18.9272 36.1451
L18.8668 36.0846
" />
<path d="M18.8668 36.0846
L18.9272 36.0241
" />
<path d="M18.9272 36.0241
L18.9272 36.1451
" />
<path d="M20.4392 35.4799
L19.3506 37.1127
" />
<path d="M21.7697 35.4799
L20.6811 37.1127
" />
<path d="M22.0721 35.9637
L22.3140 36.8103
" />
<path d="M22.3140 36.8103
L22.5559 36.2056
" />
<path d="M22.5559 36.2056
L22.7978 36.8103
" />
<path d="M22.7978 36.8103
L23.0397 35.9637
" />
<path d="M23.4026 35.9637
L23.6445 36.8103
" />
<path d="M23.6445 36.8103
L23.8864 36.2056
" />
<path d="M23.8864 36.2056
L24.1283 36.8103
" />
<path d="M24.1283 36.8103
L24.3702 35.9637
" />
<path d="M24.7331 35.9637
L24.9750 36.8103
" />
<path d="M24.9750 36.8103
L25.2169 36.2056
" />
<path d="M25.2169 36.2056
L25.4588 36.8103
" />
<path d="M25.4588 36.8103
L25.7007 35.9637
" />
<path d="M26.1845 36.6894
L26.2450 36.7499
" />
<path d="M26.2450 36.7499
L26.1845 36.8103
" />
<path d="M26.1845 36.8103
L26.1241 36.7499
" />
<path d="M26.1241 36.7499
L26.1845 36.6894
" />
<path d="M26.1845 36.6894
L26.1845 36.8103
" />
<path d="M27.3336 36.8103
L27.3336 36.1451
" />
<path d="M27.3336 36.1451
L27.2731 36.0241
" />
<path d="M27.2731 36.0241
L27.1522 35.9637
" />
<path d="M27.1522 35.9637
L26.9103 35.9637
" />
<path d="M26.9103 35.9637
L26.7893 36.0241
" />
<path d="M27.3336 36.7499
L27.2127 36.8103
" />
<path d="M27.2127 36.8103
L26.9103 36.8103
" />
<path d="M26.9103 36.8103
L26.7893 36.7499
" />
<path d="M26.7893 36.7499
L26.7289 36.6289
" />
<path d="M26.7289 36.6289
L26.7289 36.5079
" />
<path d="M26.7289 36.5079
L26.7893 36.3870
" />
<path d="M26.7893 36.3870
L26.9103 36.3265
" />
<path d="M26.9103 36.3265
L27.2127 36.3265
" />
<path d="M27.2127 36.3265
L27.3336 36.2660
" />
<path d="M28.1198 36.8103
L27.9988 36.7499
" />
<path d="M27.9988 36.7499
L27.9383 36.6289
" />
<path d="M27.9383 36.6289
L27.9383 35.5403
" />
<path d="M28.4221 35.9637
L28.9059 35.9637
" />
<path d="M28.6035 36.8103
L28.6035 35.7218
" />
<path d="M28.6035 35.7218
L28.6640 35.6008
" />
<path d="M28.6640 35.6008
L28.7850 35.5403
" />
<path d="M28.7850 35.5403
L28.9059 35.5403
" />
<path d="M29.8735 36.8103
L29.8735 36.1451
" />
<path d="M29.8735 36.1451
L29.8130 36.0241
" />
<path d="M29.8130 36.0241
L29.6921 35.9637
" />
<path d="M29.6921 35.9637
L29.4502 35.9637
" />
<path d="M29.4502 35.9637
L29.3292 36.0241
" />
<path d="M29.8735 36.7499
L29.7526 36.8103
" />
<path d="M29.7526 36.8103
L29.4502 36.8103
" />
<path d="M29.4502 36.8103
L29.3292 36.7499
" />
<path d="M29.3292 36.7499
L29.2688 36.6289
" />
<path d="M29.2688 36.6289
L29.2688 36.5079
" />
<path d="M29.2688 36.5079
L29.3292 36.3870
" />
<path d="M29.3292 36.3870
L29.4502 36.3265
" />
<path d="M29.4502 36.3265
L29.7526 36.3265
" />
<path d="M29.7526 36.3265
L29.8735 36.2660
" />
<path d="M30.4782 36.8103
L30.4782 35.9637
" />
<path d="M30.4782 36.2056
L30.5387 36.0846
" />
<path d="M30.5387 36.0846
L30.5992 36.0241
" />
<path d="M30.5992 36.0241
L30.7201 35.9637
" />
<path d="M30.7201 35.9637
L30.8411 35.9637
" />
<path d="M31.1435 35.9637
L31.8087 35.9637
" />
<path d="M31.8087 35.9637
L31.1435 36.8103
" />
<path d="M31.1435 36.8103
L31.8087 36.8103
" />
<path d="M32.2925 35.9637
L32.2925 37.2337
" />
<path d="M32.2925 36.0241
L32.4135 35.9637
" />
<path d="M32.4135 35.9637
L32.6554 35.9637
" />
<path d="M32.6554 35.9637
L32.7763 36.0241
" />
<path d="M32.7763 36.0241
L32.8368 36.0846
" />
<path d="M32.8368 36.0846
L32.8973 36.2056
" />
<path d="M32.8973 36.2056
L32.8973 36.5684
" />
<path d="M32.8973 36.5684
L32.8368 36.6894
" />
<path d="M32.8368 36.6894
L32.7763 36.7499
" />
<path d="M32.7763 36.7499
L32.6554 36.8103
" />
<path d="M32.6554 36.8103
L32.4135 36.8103
" />
<path d="M32.4135 36.8103
L32.2925 36.7499
" />
<path d="M33.4415 35.9637
L33.4415 37.2337
" />
<path d="M33.4415 36.0241
L33.5625 35.9637
" />
<path d="M33.5625 35.9637
L33.8044 35.9637
" />
<path d="M33.8044 35.9637
L33.9253 36.0241
" />
<path d="M33.9253 36.0241
L33.9858 36.0846
" />
<path d="M33.9858 36.0846
L34.0463 36.2056
" />
<path d="M34.0463 36.2056
L34.0463 36.5684
" />
<path d="M34.0463 36.5684
L33.9858 36.6894
" />
<path d="M33.9858 36.6894
L33.9253 36.7499
" />
<path d="M33.9253 36.7499
L33.8044 36.8103
" />
<path d="M33.8044 36.8103
L33.5625 36.8103
" />
<path d="M33.5625 36.8103
L33.4415 36.7499
" />
<path d="M34.5905 36.6894
L34.6510 36.7499
" />
<path d="M34.6510 36.7499
L34.5905 36.8103
" />
<path d="M34.5905 36.8103
L34.5301 36.7499
" />
<path d="M34.5301 36.7499
L34.5905 36.6894
" />
<path d="M34.5905 36.6894
L34.5905 36.8103
" />
<path d="M35.3768 36.8103
L35.2558 36.7499
" />
<path d="M35.2558 36.7499
L35.1953 36.6289
" />
<path d="M35.1953 36.6289
L35.1953 35.5403
" />
<path d="M35.7396 35.9637
L36.0420 36.8103
" />
<path d="M36.0420 36.8103
L36.3443 35.9637
" />
<path d="M37.7353 35.4799
L36.6467 37.1127
" />
<path d="M38.6424 36.7499
L38.5215 36.8103
" />
<path d="M38.5215 36.8103
L38.2796 36.8103
" />
<path d="M38.2796 36.8103
L38.1586 36.7499
" />
<path d="M38.1586 36.7499
L38.0982 36.6289
" />
<path d="M38.0982 36.6289
L38.0982 36.1451
" />
<path d="M38.0982 36.1451
L38.1586 36.0241
" />
<path d="M38.1586 36.0241
L38.2796 35.9637
" />
<path d="M38.2796 35.9637
L38.5215 35.9637
" />
<path d="M38.5215 35.9637
L38.6424 36.0241
" />
<path d="M38.6424 36.0241
L38.7029 36.1451
" />
<path d="M38.7029 36.1451
L38.7029 36.2660
" />
<path d="M38.7029 36.2660
L38.0982 36.3870
" />
<path d="M39.2472 35.9637
L39.2472 36.8103
" />
<path d="M39.2472 36.0846
L39.3077 36.0241
" />
<path d="M39.3077 36.0241
L39.4287 35.9637
" />
<path d="M39.4287 35.9637
L39.6101 35.9637
" />
<path d="M39.6101 35.9637
L39.7310 36.0241
" />
<path d="M39.7310 36.0241
L39.7915 36.1451
" />
<path d="M39.7915 36.1451
L39.7915 36.8103
" />
<path d="M40.9405 35.9637
L40.9405 36.9918
" />
<path d="M40.9405 36.9918
L40.8800 37.1127
" />
<path d="M40.8800 37.1127
L40.8196 37.1732
" />
<path d="M40.8196 37.1732
L40.6986 37.2337
" />
<path d="M40.6986 37.2337
L40.5172 37.2337
" />
<path d="M40.5172 37.2337
L40.3962 37.1732
" />
<path d="M40.9405 36.7499
L40.8196 36.8103
" />
<path d="M40.8196 36.8103
L40.5777 36.8103
" />
<path d="M40.5777 36.8103
L40.4567 36.7499
" />
<path d="M40.4567 36.7499
L40.3962 36.6894
" />
<path d="M40.3962 36.6894
L40.3358 36.5684
" />
<path d="M40.3358 36.5684
L40.3358 36.2056
" />
<path d="M40.3358 36.2056
L40.3962 36.0846
" />
<path d="M40.3962 36.0846
L40.4567 36.0241
" />
<path d="M40.4567 36.0241
L40.5777 35.9637
" />
<path d="M40.5777 35.9637
L40.8196 35.9637
" />
<path d="M40.8196 35.9637
L40.9405 36.0241
" />
<path d="M42.4524 35.4799
L41.3638 37.1127
" />
<path d="M42.8153 36.7499
L42.9362 36.8103
" />
<path d="M42.9362 36.8103
L43.1781 36.8103
" />
<path d="M43.1781 36.8103
L43.2991 36.7499
" />
<path d="M43.2991 36.7499
L43.3595 36.6289
" />
<path d="M43.3595 36.6289
L43.3595 36.5684
" />
<path d="M43.3595 36.5684
L43.2991 36.4475
" />
<path d="M43.2991 36.4475
L43.1781 36.3870
" />
<path d="M43.1781 36.3870
L42.9967 36.3870
" />
<path d="M42.9967 36.3870
L42.8757 36.3265
" />
<path d="M42.8757 36.3265
L42.8153 36.2056
" />
<path d="M42.8153 36.2056
L42.8153 36.1451
" />
<path d="M42.8153 36.1451
L42.8757 36.0241
" />
<path d="M42.8757 36.0241
L42.9967 35.9637
" />
<path d="M42.9967 35.9637
L43.1781 35.9637
" />
<path d="M43.1781 35.9637
L43.2991 36.0241
" />
<path d="M44.4481 36.7499
L44.3272 36.8103
" />
<path d="M44.3272 36.8103
L44.0853 36.8103
" />
<path d="M44.0853 36.8103
L43.9643 36.7499
" />
<path d="M43.9643 36.7499
L43.9038 36.6894
" />
<path d="M43.9038 36.6894
L43.8434 36.5684
" />
<path d="M43.8434 36.5684
L43.8434 36.2056
" />
<path d="M43.8434 36.2056
L43.9038 36.0846
" />
<path d="M43.9038 36.0846
L43.9643 36.0241
" />
<path d="M43.9643 36.0241
L44.0853 35.9637
" />
<path d="M44.0853 35.9637
L44.3272 35.9637
" />
<path d="M44.3272 35.9637
L44.4481 36.0241
" />
<path d="M45.8996 35.4799
L44.8110 37.1127
" />
<path d="M46.2625 36.4475
L46.8672 36.4475
" />
<path d="M46.1415 36.8103
L46.5648 35.5403
" />
<path d="M46.5648 35.5403
L46.9882 36.8103
" />
<path d="M47.3511 36.7499
L47.5325 36.8103
" />
<path d="M47.5325 36.8103
L47.8349 36.8103
" />
<path d="M47.8349 36.8103
L47.9558 36.7499
" />
<path d="M47.9558 36.7499
L48.0163 36.6894
" />
<path d="M48.0163 36.6894
L48.0768 36.5684
" />
<path d="M48.0768 36.5684
L48.0768 36.4475
" />
<path d="M48.0768 36.4475
L48.0163 36.3265
" />
<path d="M48.0163 36.3265
L47.9558 36.2660
" />
<path d="M47.9558 36.2660
L47.8349 36.2056
" />
<path d="M47.8349 36.2056
L47.5930 36.1451
" />
<path d="M47.5930 36.1451
L47.4720 36.0846
" />
<path d="M47.4720 36.0846
L47.4115 36.0241
" />
<path d="M47.4115 36.0241
L47.3511 35.9032
" />
<path d="M47.3511 35.9032
L47.3511 35.7822
" />
<path d="M47.3511 35.7822
L47.4115 35.6613
" />
<path d="M47.4115 35.6613
L47.4720 35.6008
" />
<path d="M47.4720 35.6008
L47.5930 35.5403
" />
<path d="M47.5930 35.5403
L47.8953 35.5403
" />
<path d="M47.8953 35.5403
L48.0768 35.6008
" />
<path d="M48.5001 35.5403
L49.2863 35.5403
" />
<path d="M49.2863 35.5403
L48.8629 36.0241
" />
<path d="M48.8629 36.0241
L49.0444 36.0241
" />
<path d="M49.0444 36.0241
L49.1653 36.0846
" />
<path d="M49.1653 36.0846
L49.2258 36.1451
" />
<path d="M49.2258 36.1451
L49.2863 36.2660
" />
<path d="M49.2863 36.2660
L49.2863 36.5684
" />
<path d="M49.2863 36.5684
L49.2258 36.6894
" />
<path d="M49.2258 36.6894
L49.1653 36.7499
" />
<path d="M49.1653 36.7499
L49.0444 36.8103
" />
<path d="M49.0444 36.8103
L48.6815 36.8103
" />
<path d="M48.6815 36.8103
L48.5606 36.7499
" />
<path d="M48.5606 36.7499
L48.5001 36.6894
" />
<path d="M49.7096 35.5403
L50.4958 35.5403
" />
<path d="M50.4958 35.5403
L50.0724 36.0241
" />
<path d="M50.0724 36.0241
L50.2539 36.0241
" />
<path d="M50.2539 36.0241
L50.3748 36.0846
" />
<path d="M50.3748 36.0846
L50.4353 36.1451
" />
<path d="M50.4353 36.1451
L50.4958 36.2660
" />
<path d="M50.4958 36.2660
L50.4958 36.5684
" />
<path d="M50.4958 36.5684
L50.4353 36.6894
" />
<path d="M50.4353 36.6894
L50.3748 36.7499
" />
<path d="M50.3748 36.7499
L50.2539 36.8103
" />
<path d="M50.2539 36.8103
L49.8910 36.8103
" />
<path d="M49.8910 36.8103
L49.7701 36.7499
" />
<path d="M49.7701 36.7499
L49.7096 36.6894
" />
<path d="M51.5843 35.9637
L51.5843 36.8103
" />
<path d="M51.2819 35.4799
L50.9796 36.3870
" />
<path d="M50.9796 36.3870
L51.7657 36.3870
" />
<path d="M52.4914 35.5403
L52.6124 35.5403
" />
<path d="M52.6124 35.5403
L52.7333 35.6008
" />
<path d="M52.7333 35.6008
L52.7938 35.6613
" />
<path d="M52.7938 35.6613
L52.8543 35.7822
" />
<path d="M52.8543 35.7822
L52.9148 36.0241
" />
<path d="M52.9148 36.0241
L52.9148 36.3265
" />
<path d="M52.9148 36.3265
L52.8543 36.5684
" />
<path d="M52.8543 36.5684
L52.7938 36.6894
" />
<path d="M52.7938 36.6894
L52.7333 36.7499
" />
<path d="M52.7333 36.7499
L52.6124 36.8103
" />
<path d="M52.6124 36.8103
L52.4914 36.8103
" />
<path d="M52.4914 36.8103
L52.3705 36.7499
" />
<path d="M52.3705 36.7499
L52.3100 36.6894
" />
<path d="M52.3100 36.6894
L52.2495 36.5684
" />
<path d="M52.2495 36.5684
L52.1891 36.3265
" />
<path d="M52.1891 36.3265
L52.1891 36.0241
" />
<path d="M52.1891 36.0241
L52.2495 35.7822
" />
<path d="M52.2495 35.7822
L52.3100 35.6613
" />
<path d="M52.3100 35.6613
L52.3705 35.6008
" />
<path d="M52.3705 35.6008
L52.4914 35.5403
" />
<path d="M53.4590 36.6894
L53.5195 36.7499
" />
<path d="M53.5195 36.7499
L53.4590 36.8103
" />
<path d="M53.4590 36.8103
L53.3986 36.7499
" />
<path d="M53.3986 36.7499
L53.4590 36.6894
" />
<path d="M53.4590 36.6894
L53.4590 36.8103
" />
<path d="M54.0638 35.9637
L54.0638 37.2337
" />
<path d="M54.0638 36.0241
L54.1848 35.9637
" />
<path d="M54.1848 35.9637
L54.4267 35.9637
" />
<path d="M54.4267 35.9637
L54.5476 36.0241
" />
<path d="M54.5476 36.0241
L54.6081 36.0846
" />
<path d="M54.6081 36.0846
L54.6686 36.2056
" />
<path d="M54.6686 36.2056
L54.6686 36.5684
" />
<path d="M54.6686 36.5684
L54.6081 36.6894
" />
<path d="M54.6081 36.6894
L54.5476 36.7499
" />
<path d="M54.5476 36.7499
L54.4267 36.8103
" />
<path d="M54.4267 36.8103
L54.1848 36.8103
" />
<path d="M54.1848 36.8103
L54.0638 36.7499
" />
<path d="M55.7571 36.8103
L55.7571 35.5403
" />
<path d="M55.7571 36.7499
L55.6362 36.8103
" />
<path d="M55.6362 36.8103
L55.3943 36.8103
" />
<path d="M55.3943 36.8103
L55.2733 36.7499
" />
<path d="M55.2733 36.7499
L55.2128 36.6894
" />
<path d="M55.2128 36.6894
L55.1524 36.5684
" />
<path d="M55.1524 36.5684
L55.1524 36.2056
" />
<path d="M55.1524 36.2056
L55.2128 36.0846
" />
<path d="M55.2128 36.0846
L55.2733 36.0241
" />
<path d="M55.2733 36.0241
L55.3943 35.9637
" />
<path d="M55.3943 35.9637
L55.6362 35.9637
" />
<path d="M55.6362 35.9637
L55.7571 36.0241
" />
<path d="M56.1804 35.9637
L56.6642 35.9637
" />
<path d="M56.3618 36.8103
L56.3618 35.7218
" />
<path d="M56.3618 35.7218
L56.4223 35.6008
" />
<path d="M56.4223 35.6008
L56.5433 35.5403
" />
<path d="M56.5433 35.5403
L56.6642 35.5403
" />
</g></g> 
</svg>
