<?xml version="1.0" standalone="no"?>
 <!DOCTYPE svg PUBLIC "-//W3C//DTD SVG 1.1//EN" 
 "http://www.w3.org/Graphics/SVG/1.1/DTD/svg11.dtd"> 
<svg
  xmlns:svg="http://www.w3.org/2000/svg"
  xmlns="http://www.w3.org/2000/svg"
  xmlns:xlink="http://www.w3.org/1999/xlink"
  version="1.1"
  width="131.1910mm" height="28.6512mm" viewBox="0.0000 0.0000 131.1910 28.6512">
<title>SVG Image created as working.svg date 2023/08/05 00:16:11 </title>
  <desc>Image generated by Eeschema-SVG </desc>
<g style="fill:#000000; fill-opacity:1.0000;stroke:#000000; stroke-opacity:1.0000;
stroke-linecap:round; stroke-linejoin:round;"
 transform="translate(0 0) scale(1 1)">
</g>
<g style="fill:#840000; fill-opacity:0.0; 
stroke:#840000; stroke-width:0.0000; stroke-opacity:1; 
stroke-linecap:round; stroke-linejoin:round;">
</g>
<g style="fill:#FFFFC2; fill-opacity:0.0; 
stroke:#FFFFC2; stroke-width:0.0000; stroke-opacity:1; 
stroke-linecap:round; stroke-linejoin:round;">
</g>
<g style="fill:#FFFFC2; fill-opacity:1.0000; 
stroke:#FFFFC2; stroke-width:0.0000; stroke-opacity:1; 
stroke-linecap:round; stroke-linejoin:round;">
<rect x="24.902000" y="4.928200" width="15.240000" height="15.240000" rx="0.000000" />
</g>
<g style="fill:#840084; fill-opacity:1.0000; 
stroke:#840084; stroke-width:0.0000; stroke-opacity:1; 
stroke-linecap:round; stroke-linejoin:round;">
</g>
<g style="fill:#840000; fill-opacity:1.0000; 
stroke:#840000; stroke-width:0.0000; stroke-opacity:1; 
stroke-linecap:round; stroke-linejoin:round;">
</g>
<g style="fill:#840000; fill-opacity:0.0; 
stroke:#840000; stroke-width:0.2540; stroke-opacity:1; 
stroke-linecap:round; stroke-linejoin:round;">
<rect x="24.902000" y="4.928200" width="15.240000" height="15.240000" rx="0.000000" />
</g>
<g style="fill:#840000; fill-opacity:0.0; 
stroke:#840000; stroke-width:0.1524; stroke-opacity:1; 
stroke-linecap:round; stroke-linejoin:round;">
<path style="fill:#840000; fill-opacity:0.0; 
stroke:#840000; stroke-width:0.1524; stroke-opacity:1; 
stroke-linecap:round; stroke-linejoin:round;fill:none"
d="M 26.6800,13.0562
28.2040,13.0562
" /> 
</g>
<g style="fill:#840000; fill-opacity:0.0; 
stroke:#840000; stroke-width:0.2540; stroke-opacity:1; 
stroke-linecap:round; stroke-linejoin:round;">
<path style="fill:#840000; fill-opacity:0.0; 
stroke:#840000; stroke-width:0.2540; stroke-opacity:1; 
stroke-linecap:round; stroke-linejoin:round;fill:none"
d="M 27.4420,15.1898
27.4420,13.1578
" /> 
<path style="fill:#840000; fill-opacity:0.0; 
stroke:#840000; stroke-width:0.2540; stroke-opacity:1; 
stroke-linecap:round; stroke-linejoin:round;fill:none"
d="M 27.4420,11.7862
27.4420,13.0562
" /> 
<path style="fill:#840000; fill-opacity:0.0; 
stroke:#840000; stroke-width:0.2540; stroke-opacity:1; 
stroke-linecap:round; stroke-linejoin:round;fill:none"
d="M 27.4420,9.9574
27.4420,11.6846
" /> 
<path style="fill:#840000; fill-opacity:0.0; 
stroke:#840000; stroke-width:0.2540; stroke-opacity:1; 
stroke-linecap:round; stroke-linejoin:round;fill:none"
d="M 30.9980,11.0242
30.6170,11.5322
" /> 
<path style="fill:#840000; fill-opacity:0.0; 
stroke:#840000; stroke-width:0.2540; stroke-opacity:1; 
stroke-linecap:round; stroke-linejoin:round;fill:none"
d="M 31.1250,12.0402
30.7440,12.5482
" /> 
<path style="fill:#840000; fill-opacity:0.0; 
stroke:#840000; stroke-width:0.2540; stroke-opacity:1; 
stroke-linecap:round; stroke-linejoin:round;fill:none"
d="M 31.7600,10.7702
33.2840,10.7702
" /> 
<path style="fill:#840000; fill-opacity:0.0; 
stroke:#840000; stroke-width:0.2540; stroke-opacity:1; 
stroke-linecap:round; stroke-linejoin:round;fill:none"
d="M 32.5220,20.1682
32.5220,17.6282
" /> 
<path style="fill:#840000; fill-opacity:0.0; 
stroke:#840000; stroke-width:0.2540; stroke-opacity:1; 
stroke-linecap:round; stroke-linejoin:round;fill:none"
d="M 32.5220,10.7702
32.5220,12.0402
" /> 
<path style="fill:#840000; fill-opacity:0.0; 
stroke:#840000; stroke-width:0.2540; stroke-opacity:1; 
stroke-linecap:round; stroke-linejoin:round;fill:none"
d="M 32.5220,10.6178
32.5220,7.4682
" /> 
<path style="fill:#840000; fill-opacity:0.0; 
stroke:#840000; stroke-width:0.2540; stroke-opacity:1; 
stroke-linecap:round; stroke-linejoin:round;fill:none"
d="M 32.5220,4.9282
32.5220,7.4682
" /> 
<path style="fill:#840000; fill-opacity:0.0; 
stroke:#840000; stroke-width:0.2540; stroke-opacity:1; 
stroke-linecap:round; stroke-linejoin:round;fill:none"
d="M 32.6236,17.6282
39.1260,17.6282
" /> 
<path style="fill:#840000; fill-opacity:0.0; 
stroke:#840000; stroke-width:0.2540; stroke-opacity:1; 
stroke-linecap:round; stroke-linejoin:round;fill:none"
d="M 35.5700,14.0722
36.9670,15.4692
" /> 
<path style="fill:#840000; fill-opacity:0.0; 
stroke:#840000; stroke-width:0.2540; stroke-opacity:1; 
stroke-linecap:round; stroke-linejoin:round;fill:none"
d="M 35.5700,13.8182
36.8400,12.5482
" /> 
<path style="fill:#840000; fill-opacity:0.0; 
stroke:#840000; stroke-width:0.2540; stroke-opacity:1; 
stroke-linecap:round; stroke-linejoin:round;fill:none"
d="M 35.5700,12.9292
35.5700,14.9612
" /> 
<path style="fill:#840000; fill-opacity:0.0; 
stroke:#840000; stroke-width:0.2540; stroke-opacity:1; 
stroke-linecap:round; stroke-linejoin:round;fill:none"
d="M 36.8400,12.5482
40.1420,12.5482
" /> 
<path style="fill:#840000; fill-opacity:0.0; 
stroke:#840000; stroke-width:0.2540; stroke-opacity:1; 
stroke-linecap:round; stroke-linejoin:round;fill:none"
d="M 37.8560,15.5962
39.1260,16.8662
" /> 
<path style="fill:#840000; fill-opacity:0.0; 
stroke:#840000; stroke-width:0.2540; stroke-opacity:1; 
stroke-linecap:round; stroke-linejoin:round;fill:none"
d="M 37.8560,15.4692
36.9670,15.4692
" /> 
<path style="fill:#840000; fill-opacity:0.0; 
stroke:#840000; stroke-width:0.2540; stroke-opacity:1; 
stroke-linecap:round; stroke-linejoin:round;fill:none"
d="M 37.8560,15.3422
39.1260,14.0722
" /> 
<path style="fill:#840000; fill-opacity:0.0; 
stroke:#840000; stroke-width:0.2540; stroke-opacity:1; 
stroke-linecap:round; stroke-linejoin:round;fill:none"
d="M 39.1260,16.8662
39.1260,17.6282
" /> 
<path style="fill:#840000; fill-opacity:0.0; 
stroke:#840000; stroke-width:0.2540; stroke-opacity:1; 
stroke-linecap:round; stroke-linejoin:round;fill:none"
d="M 39.1260,14.0722
39.1260,12.5482
" /> 
<path style="fill:#840000; fill-opacity:0.0; 
stroke:#840000; stroke-width:0.2540; stroke-opacity:1; 
stroke-linecap:round; stroke-linejoin:round;fill:none"
d="M 24.9020,17.6282
27.4420,17.6282
27.4420,15.0882
" /> 
<path style="fill:#840000; fill-opacity:0.0; 
stroke:#840000; stroke-width:0.2540; stroke-opacity:1; 
stroke-linecap:round; stroke-linejoin:round;fill:none"
d="M 24.9020,7.4682
27.4420,7.4682
27.4420,10.0082
" /> 
<path style="fill:#840000; fill-opacity:0.0; 
stroke:#840000; stroke-width:0.2540; stroke-opacity:1; 
stroke-linecap:round; stroke-linejoin:round;fill:none"
d="M 28.7120,11.9132
30.9980,11.0242
30.3630,10.8972
" /> 
<path style="fill:#840000; fill-opacity:0.0; 
stroke:#840000; stroke-width:0.2540; stroke-opacity:1; 
stroke-linecap:round; stroke-linejoin:round;fill:none"
d="M 28.8390,12.9292
31.1250,12.0402
30.4900,11.9132
" /> 
<path style="fill:#840000; fill-opacity:0.0; 
stroke:#840000; stroke-width:0.2540; stroke-opacity:1; 
stroke-linecap:round; stroke-linejoin:round;fill:none"
d="M 32.5220,12.0402
32.5220,13.9706
35.5700,13.9706
" /> 
<path style="fill:#840000; fill-opacity:0.0; 
stroke:#840000; stroke-width:0.2540; stroke-opacity:1; 
stroke-linecap:round; stroke-linejoin:round;fill:none"
d="M 37.8560,14.4532
37.8560,16.4852
37.8560,16.4852
" /> 
<path style="fill:#840000; fill-opacity:0.0; 
stroke:#840000; stroke-width:0.2540; stroke-opacity:1; 
stroke-linecap:round; stroke-linejoin:round;fill:none"
d="M 26.6800,11.7862
28.2040,11.7862
27.4420,13.0562
Z" /> 
<path style="fill:#840000; fill-opacity:0.0; 
stroke:#840000; stroke-width:0.2540; stroke-opacity:1; 
stroke-linecap:round; stroke-linejoin:round;fill:none"
d="M 32.5220,10.7702
31.7600,12.0402
33.2840,12.0402
Z" /> 
<path style="fill:#840000; fill-opacity:0.0; 
stroke:#840000; stroke-width:0.2540; stroke-opacity:1; 
stroke-linecap:round; stroke-linejoin:round;fill:none"
d="M 36.5860,15.0882
36.3320,14.5802
36.0780,14.8342
Z" /> 
<path style="fill:#840000; fill-opacity:0.0; 
stroke:#840000; stroke-width:0.2540; stroke-opacity:1; 
stroke-linecap:round; stroke-linejoin:round;fill:none"
d="M 38.8720,16.6122
38.6180,16.1042
38.3640,16.3582
Z" /> 
</g>
<g style="fill:#840000; fill-opacity:0.0; 
stroke:#840000; stroke-width:0.1524; stroke-opacity:1; 
stroke-linecap:round; stroke-linejoin:round;">
<circle cx="39.1260" cy="12.5482" r="0.1270" /> 
<path d="M24.9020 7.4682
L22.3620 7.4682
" />
</g>
<g style="fill:#A90000; fill-opacity:0.0; 
stroke:#A90000; stroke-width:0.1524; stroke-opacity:1; 
stroke-linecap:round; stroke-linejoin:round;">
<text x="23.6320" y="7.2142"
textLength="1.4127" font-size="1.6933" lengthAdjust="spacingAndGlyphs"
text-anchor="middle" opacity="0">1</text>
<g class="stroked-text"><desc>1</desc>
<path d="M23.9949 7.0507
L23.2692 7.0507
" />
<path d="M23.6320 7.0507
L23.6320 5.7807
" />
<path d="M23.6320 5.7807
L23.5111 5.9622
" />
<path d="M23.5111 5.9622
L23.3901 6.0831
" />
<path d="M23.3901 6.0831
L23.2692 6.1436
" />
</g></g>
<g style="fill:#840000; fill-opacity:0.0; 
stroke:#840000; stroke-width:0.1524; stroke-opacity:1; 
stroke-linecap:round; stroke-linejoin:round;">
<path d="M24.9020 17.6282
L22.3620 17.6282
" />
</g>
<g style="fill:#A90000; fill-opacity:0.0; 
stroke:#A90000; stroke-width:0.1524; stroke-opacity:1; 
stroke-linecap:round; stroke-linejoin:round;">
<text x="23.6320" y="17.3742"
textLength="1.4127" font-size="1.6933" lengthAdjust="spacingAndGlyphs"
text-anchor="middle" opacity="0">3</text>
<g class="stroked-text"><desc>3</desc>
<path d="M23.2087 15.9407
L23.9949 15.9407
" />
<path d="M23.9949 15.9407
L23.5715 16.4245
" />
<path d="M23.5715 16.4245
L23.7530 16.4245
" />
<path d="M23.7530 16.4245
L23.8739 16.4850
" />
<path d="M23.8739 16.4850
L23.9344 16.5455
" />
<path d="M23.9344 16.5455
L23.9949 16.6664
" />
<path d="M23.9949 16.6664
L23.9949 16.9688
" />
<path d="M23.9949 16.9688
L23.9344 17.0898
" />
<path d="M23.9344 17.0898
L23.8739 17.1503
" />
<path d="M23.8739 17.1503
L23.7530 17.2107
" />
<path d="M23.7530 17.2107
L23.3901 17.2107
" />
<path d="M23.3901 17.2107
L23.2692 17.1503
" />
<path d="M23.2692 17.1503
L23.2087 17.0898
" />
</g></g>
<g style="fill:#840000; fill-opacity:0.0; 
stroke:#840000; stroke-width:0.1524; stroke-opacity:1; 
stroke-linecap:round; stroke-linejoin:round;">
<path d="M32.5220 20.1682
L32.5220 22.7082
" />
</g>
<g style="fill:#A90000; fill-opacity:0.0; 
stroke:#A90000; stroke-width:0.1524; stroke-opacity:1; 
stroke-linecap:round; stroke-linejoin:round;">
<g transform="rotate(-90.000000 32.2680 21.4382)">
<text x="32.2680" y="21.4382"
textLength="1.4127" font-size="1.6933" lengthAdjust="spacingAndGlyphs"
text-anchor="middle" opacity="0">4</text>
</g>
<g class="stroked-text"><desc>4</desc>
<path d="M31.2579 21.1962
L32.1045 21.1962
" />
<path d="M30.7741 21.4986
L31.6812 21.8009
" />
<path d="M31.6812 21.8009
L31.6812 21.0148
" />
</g></g>
<g style="fill:#840000; fill-opacity:0.0; 
stroke:#840000; stroke-width:0.1524; stroke-opacity:1; 
stroke-linecap:round; stroke-linejoin:round;">
<path d="M40.1420 12.5482
L42.6820 12.5482
" />
</g>
<g style="fill:#A90000; fill-opacity:0.0; 
stroke:#A90000; stroke-width:0.1524; stroke-opacity:1; 
stroke-linecap:round; stroke-linejoin:round;">
<text x="41.4120" y="12.2942"
textLength="1.4127" font-size="1.6933" lengthAdjust="spacingAndGlyphs"
text-anchor="middle" opacity="0">5</text>
<g class="stroked-text"><desc>5</desc>
<path d="M41.7144 10.8607
L41.1096 10.8607
" />
<path d="M41.1096 10.8607
L41.0492 11.4655
" />
<path d="M41.0492 11.4655
L41.1096 11.4050
" />
<path d="M41.1096 11.4050
L41.2306 11.3445
" />
<path d="M41.2306 11.3445
L41.5330 11.3445
" />
<path d="M41.5330 11.3445
L41.6539 11.4050
" />
<path d="M41.6539 11.4050
L41.7144 11.4655
" />
<path d="M41.7144 11.4655
L41.7749 11.5864
" />
<path d="M41.7749 11.5864
L41.7749 11.8888
" />
<path d="M41.7749 11.8888
L41.7144 12.0098
" />
<path d="M41.7144 12.0098
L41.6539 12.0703
" />
<path d="M41.6539 12.0703
L41.5330 12.1307
" />
<path d="M41.5330 12.1307
L41.2306 12.1307
" />
<path d="M41.2306 12.1307
L41.1096 12.0703
" />
<path d="M41.1096 12.0703
L41.0492 12.0098
" />
</g></g>
<g style="fill:#840000; fill-opacity:0.0; 
stroke:#840000; stroke-width:0.1524; stroke-opacity:1; 
stroke-linecap:round; stroke-linejoin:round;">
<path d="M32.5220 4.9282
L32.5220 2.3882
" />
</g>
<g style="fill:#A90000; fill-opacity:0.0; 
stroke:#A90000; stroke-width:0.1524; stroke-opacity:1; 
stroke-linecap:round; stroke-linejoin:round;">
<g transform="rotate(-90.000000 32.2680 3.6582)">
<text x="32.2680" y="3.6582"
textLength="1.4127" font-size="1.6933" lengthAdjust="spacingAndGlyphs"
text-anchor="middle" opacity="0">6</text>
</g>
<g class="stroked-text"><desc>6</desc>
<path d="M30.8345 3.4162
L30.8345 3.6581
" />
<path d="M30.8345 3.6581
L30.8950 3.7790
" />
<path d="M30.8950 3.7790
L30.9555 3.8395
" />
<path d="M30.9555 3.8395
L31.1369 3.9605
" />
<path d="M31.1369 3.9605
L31.3788 4.0209
" />
<path d="M31.3788 4.0209
L31.8626 4.0209
" />
<path d="M31.8626 4.0209
L31.9836 3.9605
" />
<path d="M31.9836 3.9605
L32.0441 3.9000
" />
<path d="M32.0441 3.9000
L32.1045 3.7790
" />
<path d="M32.1045 3.7790
L32.1045 3.5371
" />
<path d="M32.1045 3.5371
L32.0441 3.4162
" />
<path d="M32.0441 3.4162
L31.9836 3.3557
" />
<path d="M31.9836 3.3557
L31.8626 3.2952
" />
<path d="M31.8626 3.2952
L31.5602 3.2952
" />
<path d="M31.5602 3.2952
L31.4393 3.3557
" />
<path d="M31.4393 3.3557
L31.3788 3.4162
" />
<path d="M31.3788 3.4162
L31.3183 3.5371
" />
<path d="M31.3183 3.5371
L31.3183 3.7790
" />
<path d="M31.3183 3.7790
L31.3788 3.9000
" />
<path d="M31.3788 3.9000
L31.4393 3.9605
" />
<path d="M31.4393 3.9605
L31.5602 4.0209
" />
</g></g>
<g style="fill:#840084; fill-opacity:0.0; 
stroke:#840084; stroke-width:0.1524; stroke-opacity:1; 
stroke-linecap:round; stroke-linejoin:round;">
</g>
<g style="fill:#006464; fill-opacity:0.0; 
stroke:#006464; stroke-width:0.1524; stroke-opacity:1; 
stroke-linecap:round; stroke-linejoin:round;">
</g>
<g style="fill:#006464; fill-opacity:0.0; 
stroke:#006464; stroke-width:0.1588; stroke-opacity:1; 
stroke-linecap:round; stroke-linejoin:round;">
<text x="26.3751" y="4.2424"
textLength="2.6415" font-size="1.6933" lengthAdjust="spacingAndGlyphs"
text-anchor="middle" opacity="0">U?</text>
<g class="stroked-text"><desc>U?</desc>
<path d="M25.4679 2.9166
L25.4679 3.9447
" />
<path d="M25.4679 3.9447
L25.5284 4.0657
" />
<path d="M25.5284 4.0657
L25.5889 4.1262
" />
<path d="M25.5889 4.1262
L25.7098 4.1866
" />
<path d="M25.7098 4.1866
L25.9517 4.1866
" />
<path d="M25.9517 4.1866
L26.0727 4.1262
" />
<path d="M26.0727 4.1262
L26.1332 4.0657
" />
<path d="M26.1332 4.0657
L26.1936 3.9447
" />
<path d="M26.1936 3.9447
L26.1936 2.9166
" />
<path d="M26.9799 4.0657
L27.0403 4.1262
" />
<path d="M27.0403 4.1262
L26.9799 4.1866
" />
<path d="M26.9799 4.1866
L26.9194 4.1262
" />
<path d="M26.9194 4.1262
L26.9799 4.0657
" />
<path d="M26.9799 4.0657
L26.9799 4.1866
" />
<path d="M26.7380 2.9771
L26.8589 2.9166
" />
<path d="M26.8589 2.9166
L27.1613 2.9166
" />
<path d="M27.1613 2.9166
L27.2822 2.9771
" />
<path d="M27.2822 2.9771
L27.3427 3.0981
" />
<path d="M27.3427 3.0981
L27.3427 3.2190
" />
<path d="M27.3427 3.2190
L27.2822 3.3400
" />
<path d="M27.2822 3.3400
L27.2218 3.4004
" />
<path d="M27.2218 3.4004
L27.1008 3.4609
" />
<path d="M27.1008 3.4609
L27.0403 3.5214
" />
<path d="M27.0403 3.5214
L26.9799 3.6423
" />
<path d="M26.9799 3.6423
L26.9799 3.7028
" />
</g><text x="37.6502" y="4.1916"
textLength="8.3261" font-size="1.6933" lengthAdjust="spacingAndGlyphs"
text-anchor="middle" opacity="0">TLP2703</text>
<g class="stroked-text"><desc>TLP2703</desc>
<path d="M33.7193 2.8658
L34.4450 2.8658
" />
<path d="M34.0822 4.1358
L34.0822 2.8658
" />
<path d="M35.4731 4.1358
L34.8683 4.1358
" />
<path d="M34.8683 4.1358
L34.8683 2.8658
" />
<path d="M35.8964 4.1358
L35.8964 2.8658
" />
<path d="M35.8964 2.8658
L36.3802 2.8658
" />
<path d="M36.3802 2.8658
L36.5012 2.9263
" />
<path d="M36.5012 2.9263
L36.5617 2.9868
" />
<path d="M36.5617 2.9868
L36.6221 3.1077
" />
<path d="M36.6221 3.1077
L36.6221 3.2892
" />
<path d="M36.6221 3.2892
L36.5617 3.4101
" />
<path d="M36.5617 3.4101
L36.5012 3.4706
" />
<path d="M36.5012 3.4706
L36.3802 3.5311
" />
<path d="M36.3802 3.5311
L35.8964 3.5311
" />
<path d="M37.1060 2.9868
L37.1664 2.9263
" />
<path d="M37.1664 2.9263
L37.2874 2.8658
" />
<path d="M37.2874 2.8658
L37.5898 2.8658
" />
<path d="M37.5898 2.8658
L37.7107 2.9263
" />
<path d="M37.7107 2.9263
L37.7712 2.9868
" />
<path d="M37.7712 2.9868
L37.8317 3.1077
" />
<path d="M37.8317 3.1077
L37.8317 3.2287
" />
<path d="M37.8317 3.2287
L37.7712 3.4101
" />
<path d="M37.7712 3.4101
L37.0455 4.1358
" />
<path d="M37.0455 4.1358
L37.8317 4.1358
" />
<path d="M38.2550 2.8658
L39.1016 2.8658
" />
<path d="M39.1016 2.8658
L38.5574 4.1358
" />
<path d="M39.8273 2.8658
L39.9483 2.8658
" />
<path d="M39.9483 2.8658
L40.0692 2.9263
" />
<path d="M40.0692 2.9263
L40.1297 2.9868
" />
<path d="M40.1297 2.9868
L40.1902 3.1077
" />
<path d="M40.1902 3.1077
L40.2507 3.3496
" />
<path d="M40.2507 3.3496
L40.2507 3.6520
" />
<path d="M40.2507 3.6520
L40.1902 3.8939
" />
<path d="M40.1902 3.8939
L40.1297 4.0149
" />
<path d="M40.1297 4.0149
L40.0692 4.0754
" />
<path d="M40.0692 4.0754
L39.9483 4.1358
" />
<path d="M39.9483 4.1358
L39.8273 4.1358
" />
<path d="M39.8273 4.1358
L39.7064 4.0754
" />
<path d="M39.7064 4.0754
L39.6459 4.0149
" />
<path d="M39.6459 4.0149
L39.5854 3.8939
" />
<path d="M39.5854 3.8939
L39.5250 3.6520
" />
<path d="M39.5250 3.6520
L39.5250 3.3496
" />
<path d="M39.5250 3.3496
L39.5854 3.1077
" />
<path d="M39.5854 3.1077
L39.6459 2.9868
" />
<path d="M39.6459 2.9868
L39.7064 2.9263
" />
<path d="M39.7064 2.9263
L39.8273 2.8658
" />
<path d="M40.6740 2.8658
L41.4602 2.8658
" />
<path d="M41.4602 2.8658
L41.0368 3.3496
" />
<path d="M41.0368 3.3496
L41.2183 3.3496
" />
<path d="M41.2183 3.3496
L41.3392 3.4101
" />
<path d="M41.3392 3.4101
L41.3997 3.4706
" />
<path d="M41.3997 3.4706
L41.4602 3.5915
" />
<path d="M41.4602 3.5915
L41.4602 3.8939
" />
<path d="M41.4602 3.8939
L41.3997 4.0149
" />
<path d="M41.3997 4.0149
L41.3392 4.0754
" />
<path d="M41.3392 4.0754
L41.2183 4.1358
" />
<path d="M41.2183 4.1358
L40.8554 4.1358
" />
<path d="M40.8554 4.1358
L40.7345 4.0754
" />
<path d="M40.7345 4.0754
L40.6740 4.0149
" />
</g></g>
<g style="fill:#840084; fill-opacity:0.0; 
stroke:#840084; stroke-width:0.1588; stroke-opacity:1; 
stroke-linecap:round; stroke-linejoin:round;">
<text x="31.1816" y="25.8832"
textLength="40.4992" font-size="1.6933" lengthAdjust="spacingAndGlyphs"
text-anchor="middle" opacity="0">Package_SO:SO-6L_10x3.84mm_P1.27mm</text>
<g class="stroked-text"><desc>Package_SO:SO-6L_10x3.84mm_P1.27mm</desc>
<path d="M11.3380 25.8274
L11.4967 24.5574
" />
<path d="M11.4967 24.5574
L11.9805 24.5574
" />
<path d="M11.9805 24.5574
L12.0939 24.6179
" />
<path d="M12.0939 24.6179
L12.1468 24.6784
" />
<path d="M12.1468 24.6784
L12.1922 24.7993
" />
<path d="M12.1922 24.7993
L12.1695 24.9808
" />
<path d="M12.1695 24.9808
L12.0939 25.1017
" />
<path d="M12.0939 25.1017
L12.0259 25.1622
" />
<path d="M12.0259 25.1622
L11.8974 25.2227
" />
<path d="M11.8974 25.2227
L11.4136 25.2227
" />
<path d="M13.1523 25.8274
L13.2354 25.1622
" />
<path d="M13.2354 25.1622
L13.1901 25.0412
" />
<path d="M13.1901 25.0412
L13.0767 24.9808
" />
<path d="M13.0767 24.9808
L12.8348 24.9808
" />
<path d="M12.8348 24.9808
L12.7062 25.0412
" />
<path d="M13.1598 25.7670
L13.0313 25.8274
" />
<path d="M13.0313 25.8274
L12.7289 25.8274
" />
<path d="M12.7289 25.8274
L12.6155 25.7670
" />
<path d="M12.6155 25.7670
L12.5702 25.6460
" />
<path d="M12.5702 25.6460
L12.5853 25.5250
" />
<path d="M12.5853 25.5250
L12.6609 25.4041
" />
<path d="M12.6609 25.4041
L12.7894 25.3436
" />
<path d="M12.7894 25.3436
L13.0918 25.3436
" />
<path d="M13.0918 25.3436
L13.2203 25.2831
" />
<path d="M14.3088 25.7670
L14.1803 25.8274
" />
<path d="M14.1803 25.8274
L13.9384 25.8274
" />
<path d="M13.9384 25.8274
L13.8250 25.7670
" />
<path d="M13.8250 25.7670
L13.7721 25.7065
" />
<path d="M13.7721 25.7065
L13.7267 25.5855
" />
<path d="M13.7267 25.5855
L13.7721 25.2227
" />
<path d="M13.7721 25.2227
L13.8477 25.1017
" />
<path d="M13.8477 25.1017
L13.9157 25.0412
" />
<path d="M13.9157 25.0412
L14.0442 24.9808
" />
<path d="M14.0442 24.9808
L14.2861 24.9808
" />
<path d="M14.2861 24.9808
L14.3995 25.0412
" />
<path d="M14.8456 25.8274
L15.0043 24.5574
" />
<path d="M15.0270 25.3436
L15.3294 25.8274
" />
<path d="M15.4352 24.9808
L14.8909 25.4646
" />
<path d="M16.4180 25.8274
L16.5011 25.1622
" />
<path d="M16.5011 25.1622
L16.4558 25.0412
" />
<path d="M16.4558 25.0412
L16.3424 24.9808
" />
<path d="M16.3424 24.9808
L16.1005 24.9808
" />
<path d="M16.1005 24.9808
L15.9719 25.0412
" />
<path d="M16.4255 25.7670
L16.2970 25.8274
" />
<path d="M16.2970 25.8274
L15.9946 25.8274
" />
<path d="M15.9946 25.8274
L15.8812 25.7670
" />
<path d="M15.8812 25.7670
L15.8359 25.6460
" />
<path d="M15.8359 25.6460
L15.8510 25.5250
" />
<path d="M15.8510 25.5250
L15.9266 25.4041
" />
<path d="M15.9266 25.4041
L16.0551 25.3436
" />
<path d="M16.0551 25.3436
L16.3575 25.3436
" />
<path d="M16.3575 25.3436
L16.4860 25.2831
" />
<path d="M17.6728 24.9808
L17.5443 26.0089
" />
<path d="M17.5443 26.0089
L17.4687 26.1298
" />
<path d="M17.4687 26.1298
L17.4006 26.1903
" />
<path d="M17.4006 26.1903
L17.2721 26.2508
" />
<path d="M17.2721 26.2508
L17.0907 26.2508
" />
<path d="M17.0907 26.2508
L16.9773 26.1903
" />
<path d="M17.5745 25.7670
L17.4460 25.8274
" />
<path d="M17.4460 25.8274
L17.2041 25.8274
" />
<path d="M17.2041 25.8274
L17.0907 25.7670
" />
<path d="M17.0907 25.7670
L17.0378 25.7065
" />
<path d="M17.0378 25.7065
L16.9924 25.5855
" />
<path d="M16.9924 25.5855
L17.0378 25.2227
" />
<path d="M17.0378 25.2227
L17.1134 25.1017
" />
<path d="M17.1134 25.1017
L17.1814 25.0412
" />
<path d="M17.1814 25.0412
L17.3099 24.9808
" />
<path d="M17.3099 24.9808
L17.5518 24.9808
" />
<path d="M17.5518 24.9808
L17.6652 25.0412
" />
<path d="M18.6630 25.7670
L18.5345 25.8274
" />
<path d="M18.5345 25.8274
L18.2926 25.8274
" />
<path d="M18.2926 25.8274
L18.1792 25.7670
" />
<path d="M18.1792 25.7670
L18.1339 25.6460
" />
<path d="M18.1339 25.6460
L18.1944 25.1622
" />
<path d="M18.1944 25.1622
L18.2699 25.0412
" />
<path d="M18.2699 25.0412
L18.3985 24.9808
" />
<path d="M18.3985 24.9808
L18.6404 24.9808
" />
<path d="M18.6404 24.9808
L18.7538 25.0412
" />
<path d="M18.7538 25.0412
L18.7991 25.1622
" />
<path d="M18.7991 25.1622
L18.7840 25.2831
" />
<path d="M18.7840 25.2831
L18.1641 25.4041
" />
<path d="M18.9428 25.9484
L19.9104 25.9484
" />
<path d="M20.1750 25.7670
L20.3488 25.8274
" />
<path d="M20.3488 25.8274
L20.6512 25.8274
" />
<path d="M20.6512 25.8274
L20.7797 25.7670
" />
<path d="M20.7797 25.7670
L20.8478 25.7065
" />
<path d="M20.8478 25.7065
L20.9233 25.5855
" />
<path d="M20.9233 25.5855
L20.9385 25.4646
" />
<path d="M20.9385 25.4646
L20.8931 25.3436
" />
<path d="M20.8931 25.3436
L20.8402 25.2831
" />
<path d="M20.8402 25.2831
L20.7268 25.2227
" />
<path d="M20.7268 25.2227
L20.4925 25.1622
" />
<path d="M20.4925 25.1622
L20.3791 25.1017
" />
<path d="M20.3791 25.1017
L20.3261 25.0412
" />
<path d="M20.3261 25.0412
L20.2808 24.9203
" />
<path d="M20.2808 24.9203
L20.2959 24.7993
" />
<path d="M20.2959 24.7993
L20.3715 24.6784
" />
<path d="M20.3715 24.6784
L20.4395 24.6179
" />
<path d="M20.4395 24.6179
L20.5681 24.5574
" />
<path d="M20.5681 24.5574
L20.8704 24.5574
" />
<path d="M20.8704 24.5574
L21.0443 24.6179
" />
<path d="M21.8380 24.5574
L22.0799 24.5574
" />
<path d="M22.0799 24.5574
L22.1933 24.6179
" />
<path d="M22.1933 24.6179
L22.2992 24.7389
" />
<path d="M22.2992 24.7389
L22.3294 24.9808
" />
<path d="M22.3294 24.9808
L22.2765 25.4041
" />
<path d="M22.2765 25.4041
L22.1858 25.6460
" />
<path d="M22.1858 25.6460
L22.0497 25.7670
" />
<path d="M22.0497 25.7670
L21.9212 25.8274
" />
<path d="M21.9212 25.8274
L21.6793 25.8274
" />
<path d="M21.6793 25.8274
L21.5659 25.7670
" />
<path d="M21.5659 25.7670
L21.4601 25.6460
" />
<path d="M21.4601 25.6460
L21.4298 25.4041
" />
<path d="M21.4298 25.4041
L21.4827 24.9808
" />
<path d="M21.4827 24.9808
L21.5734 24.7389
" />
<path d="M21.5734 24.7389
L21.7095 24.6179
" />
<path d="M21.7095 24.6179
L21.8380 24.5574
" />
<path d="M22.7830 25.7065
L22.8359 25.7670
" />
<path d="M22.8359 25.7670
L22.7679 25.8274
" />
<path d="M22.7679 25.8274
L22.7150 25.7670
" />
<path d="M22.7150 25.7670
L22.7830 25.7065
" />
<path d="M22.7830 25.7065
L22.7679 25.8274
" />
<path d="M22.8661 25.0412
L22.9191 25.1017
" />
<path d="M22.9191 25.1017
L22.8510 25.1622
" />
<path d="M22.8510 25.1622
L22.7981 25.1017
" />
<path d="M22.7981 25.1017
L22.8661 25.0412
" />
<path d="M22.8661 25.0412
L22.8510 25.1622
" />
<path d="M23.3198 25.7670
L23.4936 25.8274
" />
<path d="M23.4936 25.8274
L23.7960 25.8274
" />
<path d="M23.7960 25.8274
L23.9245 25.7670
" />
<path d="M23.9245 25.7670
L23.9926 25.7065
" />
<path d="M23.9926 25.7065
L24.0681 25.5855
" />
<path d="M24.0681 25.5855
L24.0833 25.4646
" />
<path d="M24.0833 25.4646
L24.0379 25.3436
" />
<path d="M24.0379 25.3436
L23.9850 25.2831
" />
<path d="M23.9850 25.2831
L23.8716 25.2227
" />
<path d="M23.8716 25.2227
L23.6373 25.1622
" />
<path d="M23.6373 25.1622
L23.5239 25.1017
" />
<path d="M23.5239 25.1017
L23.4709 25.0412
" />
<path d="M23.4709 25.0412
L23.4256 24.9203
" />
<path d="M23.4256 24.9203
L23.4407 24.7993
" />
<path d="M23.4407 24.7993
L23.5163 24.6784
" />
<path d="M23.5163 24.6784
L23.5843 24.6179
" />
<path d="M23.5843 24.6179
L23.7129 24.5574
" />
<path d="M23.7129 24.5574
L24.0152 24.5574
" />
<path d="M24.0152 24.5574
L24.1891 24.6179
" />
<path d="M24.9828 24.5574
L25.2247 24.5574
" />
<path d="M25.2247 24.5574
L25.3381 24.6179
" />
<path d="M25.3381 24.6179
L25.4440 24.7389
" />
<path d="M25.4440 24.7389
L25.4742 24.9808
" />
<path d="M25.4742 24.9808
L25.4213 25.4041
" />
<path d="M25.4213 25.4041
L25.3306 25.6460
" />
<path d="M25.3306 25.6460
L25.1945 25.7670
" />
<path d="M25.1945 25.7670
L25.0660 25.8274
" />
<path d="M25.0660 25.8274
L24.8241 25.8274
" />
<path d="M24.8241 25.8274
L24.7107 25.7670
" />
<path d="M24.7107 25.7670
L24.6049 25.6460
" />
<path d="M24.6049 25.6460
L24.5746 25.4041
" />
<path d="M24.5746 25.4041
L24.6275 24.9808
" />
<path d="M24.6275 24.9808
L24.7182 24.7389
" />
<path d="M24.7182 24.7389
L24.8543 24.6179
" />
<path d="M24.8543 24.6179
L24.9828 24.5574
" />
<path d="M25.9731 25.3436
L26.9408 25.3436
" />
<path d="M28.1881 24.5574
L27.9462 24.5574
" />
<path d="M27.9462 24.5574
L27.8177 24.6179
" />
<path d="M27.8177 24.6179
L27.7497 24.6784
" />
<path d="M27.7497 24.6784
L27.6060 24.8598
" />
<path d="M27.6060 24.8598
L27.5153 25.1017
" />
<path d="M27.5153 25.1017
L27.4548 25.5855
" />
<path d="M27.4548 25.5855
L27.5002 25.7065
" />
<path d="M27.5002 25.7065
L27.5531 25.7670
" />
<path d="M27.5531 25.7670
L27.6665 25.8274
" />
<path d="M27.6665 25.8274
L27.9084 25.8274
" />
<path d="M27.9084 25.8274
L28.0369 25.7670
" />
<path d="M28.0369 25.7670
L28.1050 25.7065
" />
<path d="M28.1050 25.7065
L28.1805 25.5855
" />
<path d="M28.1805 25.5855
L28.2183 25.2831
" />
<path d="M28.2183 25.2831
L28.1730 25.1622
" />
<path d="M28.1730 25.1622
L28.1201 25.1017
" />
<path d="M28.1201 25.1017
L28.0067 25.0412
" />
<path d="M28.0067 25.0412
L27.7648 25.0412
" />
<path d="M27.7648 25.0412
L27.6363 25.1017
" />
<path d="M27.6363 25.1017
L27.5682 25.1622
" />
<path d="M27.5682 25.1622
L27.4926 25.2831
" />
<path d="M29.2993 25.8274
L28.6946 25.8274
" />
<path d="M28.6946 25.8274
L28.8533 24.5574
" />
<path d="M29.4052 25.9484
L30.3728 25.9484
" />
<path d="M31.3555 25.8274
L30.6298 25.8274
" />
<path d="M30.9927 25.8274
L31.1514 24.5574
" />
<path d="M31.1514 24.5574
L31.0078 24.7389
" />
<path d="M31.0078 24.7389
L30.8717 24.8598
" />
<path d="M30.8717 24.8598
L30.7432 24.9203
" />
<path d="M32.3004 24.5574
L32.4214 24.5574
" />
<path d="M32.4214 24.5574
L32.5348 24.6179
" />
<path d="M32.5348 24.6179
L32.5877 24.6784
" />
<path d="M32.5877 24.6784
L32.6330 24.7993
" />
<path d="M32.6330 24.7993
L32.6633 25.0412
" />
<path d="M32.6633 25.0412
L32.6255 25.3436
" />
<path d="M32.6255 25.3436
L32.5348 25.5855
" />
<path d="M32.5348 25.5855
L32.4592 25.7065
" />
<path d="M32.4592 25.7065
L32.3911 25.7670
" />
<path d="M32.3911 25.7670
L32.2626 25.8274
" />
<path d="M32.2626 25.8274
L32.1417 25.8274
" />
<path d="M32.1417 25.8274
L32.0283 25.7670
" />
<path d="M32.0283 25.7670
L31.9754 25.7065
" />
<path d="M31.9754 25.7065
L31.9300 25.5855
" />
<path d="M31.9300 25.5855
L31.8998 25.3436
" />
<path d="M31.8998 25.3436
L31.9376 25.0412
" />
<path d="M31.9376 25.0412
L32.0283 24.7993
" />
<path d="M32.0283 24.7993
L32.1039 24.6784
" />
<path d="M32.1039 24.6784
L32.1719 24.6179
" />
<path d="M32.1719 24.6179
L32.3004 24.5574
" />
<path d="M32.9883 25.8274
L33.7594 24.9808
" />
<path d="M33.0942 24.9808
L33.6536 25.8274
" />
<path d="M34.1752 24.5574
L34.9614 24.5574
" />
<path d="M34.9614 24.5574
L34.4776 25.0412
" />
<path d="M34.4776 25.0412
L34.6590 25.0412
" />
<path d="M34.6590 25.0412
L34.7724 25.1017
" />
<path d="M34.7724 25.1017
L34.8253 25.1622
" />
<path d="M34.8253 25.1622
L34.8706 25.2831
" />
<path d="M34.8706 25.2831
L34.8328 25.5855
" />
<path d="M34.8328 25.5855
L34.7573 25.7065
" />
<path d="M34.7573 25.7065
L34.6892 25.7670
" />
<path d="M34.6892 25.7670
L34.5607 25.8274
" />
<path d="M34.5607 25.8274
L34.1978 25.8274
" />
<path d="M34.1978 25.8274
L34.0845 25.7670
" />
<path d="M34.0845 25.7670
L34.0315 25.7065
" />
<path d="M35.3620 25.7065
L35.4149 25.7670
" />
<path d="M35.4149 25.7670
L35.3469 25.8274
" />
<path d="M35.3469 25.8274
L35.2940 25.7670
" />
<path d="M35.2940 25.7670
L35.3620 25.7065
" />
<path d="M35.3620 25.7065
L35.3469 25.8274
" />
<path d="M36.2238 25.1017
L36.1104 25.0412
" />
<path d="M36.1104 25.0412
L36.0575 24.9808
" />
<path d="M36.0575 24.9808
L36.0121 24.8598
" />
<path d="M36.0121 24.8598
L36.0197 24.7993
" />
<path d="M36.0197 24.7993
L36.0953 24.6784
" />
<path d="M36.0953 24.6784
L36.1633 24.6179
" />
<path d="M36.1633 24.6179
L36.2919 24.5574
" />
<path d="M36.2919 24.5574
L36.5338 24.5574
" />
<path d="M36.5338 24.5574
L36.6471 24.6179
" />
<path d="M36.6471 24.6179
L36.7001 24.6784
" />
<path d="M36.7001 24.6784
L36.7454 24.7993
" />
<path d="M36.7454 24.7993
L36.7379 24.8598
" />
<path d="M36.7379 24.8598
L36.6623 24.9808
" />
<path d="M36.6623 24.9808
L36.5942 25.0412
" />
<path d="M36.5942 25.0412
L36.4657 25.1017
" />
<path d="M36.4657 25.1017
L36.2238 25.1017
" />
<path d="M36.2238 25.1017
L36.0953 25.1622
" />
<path d="M36.0953 25.1622
L36.0273 25.2227
" />
<path d="M36.0273 25.2227
L35.9517 25.3436
" />
<path d="M35.9517 25.3436
L35.9214 25.5855
" />
<path d="M35.9214 25.5855
L35.9668 25.7065
" />
<path d="M35.9668 25.7065
L36.0197 25.7670
" />
<path d="M36.0197 25.7670
L36.1331 25.8274
" />
<path d="M36.1331 25.8274
L36.3750 25.8274
" />
<path d="M36.3750 25.8274
L36.5035 25.7670
" />
<path d="M36.5035 25.7670
L36.5716 25.7065
" />
<path d="M36.5716 25.7065
L36.6471 25.5855
" />
<path d="M36.6471 25.5855
L36.6774 25.3436
" />
<path d="M36.6774 25.3436
L36.6320 25.2227
" />
<path d="M36.6320 25.2227
L36.5791 25.1622
" />
<path d="M36.5791 25.1622
L36.4657 25.1017
" />
<path d="M37.8113 24.9808
L37.7055 25.8274
" />
<path d="M37.5694 24.4970
L37.1536 25.4041
" />
<path d="M37.1536 25.4041
L37.9398 25.4041
" />
<path d="M38.3707 25.8274
L38.4765 24.9808
" />
<path d="M38.4614 25.1017
L38.5294 25.0412
" />
<path d="M38.5294 25.0412
L38.6579 24.9808
" />
<path d="M38.6579 24.9808
L38.8394 24.9808
" />
<path d="M38.8394 24.9808
L38.9528 25.0412
" />
<path d="M38.9528 25.0412
L38.9981 25.1622
" />
<path d="M38.9981 25.1622
L38.9150 25.8274
" />
<path d="M38.9981 25.1622
L39.0737 25.0412
" />
<path d="M39.0737 25.0412
L39.2022 24.9808
" />
<path d="M39.2022 24.9808
L39.3836 24.9808
" />
<path d="M39.3836 24.9808
L39.4970 25.0412
" />
<path d="M39.4970 25.0412
L39.5424 25.1622
" />
<path d="M39.5424 25.1622
L39.4592 25.8274
" />
<path d="M40.0640 25.8274
L40.1698 24.9808
" />
<path d="M40.1547 25.1017
L40.2227 25.0412
" />
<path d="M40.2227 25.0412
L40.3512 24.9808
" />
<path d="M40.3512 24.9808
L40.5327 24.9808
" />
<path d="M40.5327 24.9808
L40.6461 25.0412
" />
<path d="M40.6461 25.0412
L40.6914 25.1622
" />
<path d="M40.6914 25.1622
L40.6083 25.8274
" />
<path d="M40.6914 25.1622
L40.7670 25.0412
" />
<path d="M40.7670 25.0412
L40.8955 24.9808
" />
<path d="M40.8955 24.9808
L41.0769 24.9808
" />
<path d="M41.0769 24.9808
L41.1903 25.0412
" />
<path d="M41.1903 25.0412
L41.2357 25.1622
" />
<path d="M41.2357 25.1622
L41.1525 25.8274
" />
<path d="M41.4398 25.9484
L42.4074 25.9484
" />
<path d="M42.7249 25.8274
L42.8836 24.5574
" />
<path d="M42.8836 24.5574
L43.3674 24.5574
" />
<path d="M43.3674 24.5574
L43.4808 24.6179
" />
<path d="M43.4808 24.6179
L43.5337 24.6784
" />
<path d="M43.5337 24.6784
L43.5791 24.7993
" />
<path d="M43.5791 24.7993
L43.5564 24.9808
" />
<path d="M43.5564 24.9808
L43.4808 25.1017
" />
<path d="M43.4808 25.1017
L43.4128 25.1622
" />
<path d="M43.4128 25.1622
L43.2843 25.2227
" />
<path d="M43.2843 25.2227
L42.8005 25.2227
" />
<path d="M44.6601 25.8274
L43.9344 25.8274
" />
<path d="M44.2973 25.8274
L44.4560 24.5574
" />
<path d="M44.4560 24.5574
L44.3124 24.7389
" />
<path d="M44.3124 24.7389
L44.1763 24.8598
" />
<path d="M44.1763 24.8598
L44.0478 24.9203
" />
<path d="M45.2195 25.7065
L45.2724 25.7670
" />
<path d="M45.2724 25.7670
L45.2044 25.8274
" />
<path d="M45.2044 25.8274
L45.1515 25.7670
" />
<path d="M45.1515 25.7670
L45.2195 25.7065
" />
<path d="M45.2195 25.7065
L45.2044 25.8274
" />
<path d="M45.8923 24.6784
L45.9604 24.6179
" />
<path d="M45.9604 24.6179
L46.0889 24.5574
" />
<path d="M46.0889 24.5574
L46.3913 24.5574
" />
<path d="M46.3913 24.5574
L46.5046 24.6179
" />
<path d="M46.5046 24.6179
L46.5576 24.6784
" />
<path d="M46.5576 24.6784
L46.6029 24.7993
" />
<path d="M46.6029 24.7993
L46.5878 24.9203
" />
<path d="M46.5878 24.9203
L46.5046 25.1017
" />
<path d="M46.5046 25.1017
L45.6882 25.8274
" />
<path d="M45.6882 25.8274
L46.4744 25.8274
" />
<path d="M47.0565 24.5574
L47.9031 24.5574
" />
<path d="M47.9031 24.5574
L47.2001 25.8274
" />
<path d="M48.2282 25.8274
L48.3340 24.9808
" />
<path d="M48.3189 25.1017
L48.3869 25.0412
" />
<path d="M48.3869 25.0412
L48.5154 24.9808
" />
<path d="M48.5154 24.9808
L48.6969 24.9808
" />
<path d="M48.6969 24.9808
L48.8103 25.0412
" />
<path d="M48.8103 25.0412
L48.8556 25.1622
" />
<path d="M48.8556 25.1622
L48.7725 25.8274
" />
<path d="M48.8556 25.1622
L48.9312 25.0412
" />
<path d="M48.9312 25.0412
L49.0597 24.9808
" />
<path d="M49.0597 24.9808
L49.2411 24.9808
" />
<path d="M49.2411 24.9808
L49.3545 25.0412
" />
<path d="M49.3545 25.0412
L49.3999 25.1622
" />
<path d="M49.3999 25.1622
L49.3167 25.8274
" />
<path d="M49.9215 25.8274
L50.0273 24.9808
" />
<path d="M50.0122 25.1017
L50.0802 25.0412
" />
<path d="M50.0802 25.0412
L50.2087 24.9808
" />
<path d="M50.2087 24.9808
L50.3902 24.9808
" />
<path d="M50.3902 24.9808
L50.5036 25.0412
" />
<path d="M50.5036 25.0412
L50.5489 25.1622
" />
<path d="M50.5489 25.1622
L50.4658 25.8274
" />
<path d="M50.5489 25.1622
L50.6245 25.0412
" />
<path d="M50.6245 25.0412
L50.7530 24.9808
" />
<path d="M50.7530 24.9808
L50.9344 24.9808
" />
<path d="M50.9344 24.9808
L51.0478 25.0412
" />
<path d="M51.0478 25.0412
L51.0932 25.1622
" />
<path d="M51.0932 25.1622
L51.0100 25.8274
" />
</g><text x="77.6573" y="15.7232"
textLength="85.1907" font-size="1.6933" lengthAdjust="spacingAndGlyphs"
text-anchor="middle" opacity="0">https://toshiba.semicon-storage.com/info/docget.jsp?did=15216&amp;prodName=TLP2703</text>
<g class="stroked-text"><desc>https://toshiba.semicon-storage.com/info/docget.jsp?did=15216&amp;prodName=TLP2703</desc>
<path d="M35.4755 15.6674
L35.4755 14.3974
" />
<path d="M36.0198 15.6674
L36.0198 15.0022
" />
<path d="M36.0198 15.0022
L35.9593 14.8812
" />
<path d="M35.9593 14.8812
L35.8384 14.8208
" />
<path d="M35.8384 14.8208
L35.6570 14.8208
" />
<path d="M35.6570 14.8208
L35.5360 14.8812
" />
<path d="M35.5360 14.8812
L35.4755 14.9417
" />
<path d="M36.4431 14.8208
L36.9269 14.8208
" />
<path d="M36.6245 14.3974
L36.6245 15.4860
" />
<path d="M36.6245 15.4860
L36.6850 15.6070
" />
<path d="M36.6850 15.6070
L36.8060 15.6674
" />
<path d="M36.8060 15.6674
L36.9269 15.6674
" />
<path d="M37.1688 14.8208
L37.6526 14.8208
" />
<path d="M37.3502 14.3974
L37.3502 15.4860
" />
<path d="M37.3502 15.4860
L37.4107 15.6070
" />
<path d="M37.4107 15.6070
L37.5317 15.6674
" />
<path d="M37.5317 15.6674
L37.6526 15.6674
" />
<path d="M38.0759 14.8208
L38.0759 16.0908
" />
<path d="M38.0759 14.8812
L38.1969 14.8208
" />
<path d="M38.1969 14.8208
L38.4388 14.8208
" />
<path d="M38.4388 14.8208
L38.5597 14.8812
" />
<path d="M38.5597 14.8812
L38.6202 14.9417
" />
<path d="M38.6202 14.9417
L38.6807 15.0627
" />
<path d="M38.6807 15.0627
L38.6807 15.4255
" />
<path d="M38.6807 15.4255
L38.6202 15.5465
" />
<path d="M38.6202 15.5465
L38.5597 15.6070
" />
<path d="M38.5597 15.6070
L38.4388 15.6674
" />
<path d="M38.4388 15.6674
L38.1969 15.6674
" />
<path d="M38.1969 15.6674
L38.0759 15.6070
" />
<path d="M39.1645 15.6070
L39.2854 15.6674
" />
<path d="M39.2854 15.6674
L39.5273 15.6674
" />
<path d="M39.5273 15.6674
L39.6483 15.6070
" />
<path d="M39.6483 15.6070
L39.7087 15.4860
" />
<path d="M39.7087 15.4860
L39.7087 15.4255
" />
<path d="M39.7087 15.4255
L39.6483 15.3046
" />
<path d="M39.6483 15.3046
L39.5273 15.2441
" />
<path d="M39.5273 15.2441
L39.3459 15.2441
" />
<path d="M39.3459 15.2441
L39.2249 15.1836
" />
<path d="M39.2249 15.1836
L39.1645 15.0627
" />
<path d="M39.1645 15.0627
L39.1645 15.0022
" />
<path d="M39.1645 15.0022
L39.2249 14.8812
" />
<path d="M39.2249 14.8812
L39.3459 14.8208
" />
<path d="M39.3459 14.8208
L39.5273 14.8208
" />
<path d="M39.5273 14.8208
L39.6483 14.8812
" />
<path d="M40.2530 15.5465
L40.3135 15.6070
" />
<path d="M40.3135 15.6070
L40.2530 15.6674
" />
<path d="M40.2530 15.6674
L40.1926 15.6070
" />
<path d="M40.1926 15.6070
L40.2530 15.5465
" />
<path d="M40.2530 15.5465
L40.2530 15.6674
" />
<path d="M40.2530 14.8812
L40.3135 14.9417
" />
<path d="M40.3135 14.9417
L40.2530 15.0022
" />
<path d="M40.2530 15.0022
L40.1926 14.9417
" />
<path d="M40.1926 14.9417
L40.2530 14.8812
" />
<path d="M40.2530 14.8812
L40.2530 15.0022
" />
<path d="M41.7650 14.3370
L40.6764 15.9698
" />
<path d="M43.0955 14.3370
L42.0069 15.9698
" />
<path d="M43.3374 14.8208
L43.8212 14.8208
" />
<path d="M43.5188 14.3974
L43.5188 15.4860
" />
<path d="M43.5188 15.4860
L43.5793 15.6070
" />
<path d="M43.5793 15.6070
L43.7003 15.6674
" />
<path d="M43.7003 15.6674
L43.8212 15.6674
" />
<path d="M44.4260 15.6674
L44.3050 15.6070
" />
<path d="M44.3050 15.6070
L44.2445 15.5465
" />
<path d="M44.2445 15.5465
L44.1841 15.4255
" />
<path d="M44.1841 15.4255
L44.1841 15.0627
" />
<path d="M44.1841 15.0627
L44.2445 14.9417
" />
<path d="M44.2445 14.9417
L44.3050 14.8812
" />
<path d="M44.3050 14.8812
L44.4260 14.8208
" />
<path d="M44.4260 14.8208
L44.6074 14.8208
" />
<path d="M44.6074 14.8208
L44.7283 14.8812
" />
<path d="M44.7283 14.8812
L44.7888 14.9417
" />
<path d="M44.7888 14.9417
L44.8493 15.0627
" />
<path d="M44.8493 15.0627
L44.8493 15.4255
" />
<path d="M44.8493 15.4255
L44.7888 15.5465
" />
<path d="M44.7888 15.5465
L44.7283 15.6070
" />
<path d="M44.7283 15.6070
L44.6074 15.6674
" />
<path d="M44.6074 15.6674
L44.4260 15.6674
" />
<path d="M45.3331 15.6070
L45.4540 15.6674
" />
<path d="M45.4540 15.6674
L45.6959 15.6674
" />
<path d="M45.6959 15.6674
L45.8169 15.6070
" />
<path d="M45.8169 15.6070
L45.8773 15.4860
" />
<path d="M45.8773 15.4860
L45.8773 15.4255
" />
<path d="M45.8773 15.4255
L45.8169 15.3046
" />
<path d="M45.8169 15.3046
L45.6959 15.2441
" />
<path d="M45.6959 15.2441
L45.5145 15.2441
" />
<path d="M45.5145 15.2441
L45.3935 15.1836
" />
<path d="M45.3935 15.1836
L45.3331 15.0627
" />
<path d="M45.3331 15.0627
L45.3331 15.0022
" />
<path d="M45.3331 15.0022
L45.3935 14.8812
" />
<path d="M45.3935 14.8812
L45.5145 14.8208
" />
<path d="M45.5145 14.8208
L45.6959 14.8208
" />
<path d="M45.6959 14.8208
L45.8169 14.8812
" />
<path d="M46.4216 15.6674
L46.4216 14.3974
" />
<path d="M46.9659 15.6674
L46.9659 15.0022
" />
<path d="M46.9659 15.0022
L46.9054 14.8812
" />
<path d="M46.9054 14.8812
L46.7845 14.8208
" />
<path d="M46.7845 14.8208
L46.6031 14.8208
" />
<path d="M46.6031 14.8208
L46.4821 14.8812
" />
<path d="M46.4821 14.8812
L46.4216 14.9417
" />
<path d="M47.5706 15.6674
L47.5706 14.8208
" />
<path d="M47.5706 14.3974
L47.5102 14.4579
" />
<path d="M47.5102 14.4579
L47.5706 14.5184
" />
<path d="M47.5706 14.5184
L47.6311 14.4579
" />
<path d="M47.6311 14.4579
L47.5706 14.3974
" />
<path d="M47.5706 14.3974
L47.5706 14.5184
" />
<path d="M48.1754 15.6674
L48.1754 14.3974
" />
<path d="M48.1754 14.8812
L48.2964 14.8208
" />
<path d="M48.2964 14.8208
L48.5383 14.8208
" />
<path d="M48.5383 14.8208
L48.6592 14.8812
" />
<path d="M48.6592 14.8812
L48.7197 14.9417
" />
<path d="M48.7197 14.9417
L48.7802 15.0627
" />
<path d="M48.7802 15.0627
L48.7802 15.4255
" />
<path d="M48.7802 15.4255
L48.7197 15.5465
" />
<path d="M48.7197 15.5465
L48.6592 15.6070
" />
<path d="M48.6592 15.6070
L48.5383 15.6674
" />
<path d="M48.5383 15.6674
L48.2964 15.6674
" />
<path d="M48.2964 15.6674
L48.1754 15.6070
" />
<path d="M49.8687 15.6674
L49.8687 15.0022
" />
<path d="M49.8687 15.0022
L49.8082 14.8812
" />
<path d="M49.8082 14.8812
L49.6873 14.8208
" />
<path d="M49.6873 14.8208
L49.4454 14.8208
" />
<path d="M49.4454 14.8208
L49.3244 14.8812
" />
<path d="M49.8687 15.6070
L49.7478 15.6674
" />
<path d="M49.7478 15.6674
L49.4454 15.6674
" />
<path d="M49.4454 15.6674
L49.3244 15.6070
" />
<path d="M49.3244 15.6070
L49.2640 15.4860
" />
<path d="M49.2640 15.4860
L49.2640 15.3650
" />
<path d="M49.2640 15.3650
L49.3244 15.2441
" />
<path d="M49.3244 15.2441
L49.4454 15.1836
" />
<path d="M49.4454 15.1836
L49.7478 15.1836
" />
<path d="M49.7478 15.1836
L49.8687 15.1231
" />
<path d="M50.4734 15.5465
L50.5339 15.6070
" />
<path d="M50.5339 15.6070
L50.4734 15.6674
" />
<path d="M50.4734 15.6674
L50.4130 15.6070
" />
<path d="M50.4130 15.6070
L50.4734 15.5465
" />
<path d="M50.4734 15.5465
L50.4734 15.6674
" />
<path d="M51.0178 15.6070
L51.1387 15.6674
" />
<path d="M51.1387 15.6674
L51.3806 15.6674
" />
<path d="M51.3806 15.6674
L51.5016 15.6070
" />
<path d="M51.5016 15.6070
L51.5620 15.4860
" />
<path d="M51.5620 15.4860
L51.5620 15.4255
" />
<path d="M51.5620 15.4255
L51.5016 15.3046
" />
<path d="M51.5016 15.3046
L51.3806 15.2441
" />
<path d="M51.3806 15.2441
L51.1992 15.2441
" />
<path d="M51.1992 15.2441
L51.0782 15.1836
" />
<path d="M51.0782 15.1836
L51.0178 15.0627
" />
<path d="M51.0178 15.0627
L51.0178 15.0022
" />
<path d="M51.0178 15.0022
L51.0782 14.8812
" />
<path d="M51.0782 14.8812
L51.1992 14.8208
" />
<path d="M51.1992 14.8208
L51.3806 14.8208
" />
<path d="M51.3806 14.8208
L51.5016 14.8812
" />
<path d="M52.5901 15.6070
L52.4692 15.6674
" />
<path d="M52.4692 15.6674
L52.2273 15.6674
" />
<path d="M52.2273 15.6674
L52.1063 15.6070
" />
<path d="M52.1063 15.6070
L52.0459 15.4860
" />
<path d="M52.0459 15.4860
L52.0459 15.0022
" />
<path d="M52.0459 15.0022
L52.1063 14.8812
" />
<path d="M52.1063 14.8812
L52.2273 14.8208
" />
<path d="M52.2273 14.8208
L52.4692 14.8208
" />
<path d="M52.4692 14.8208
L52.5901 14.8812
" />
<path d="M52.5901 14.8812
L52.6506 15.0022
" />
<path d="M52.6506 15.0022
L52.6506 15.1231
" />
<path d="M52.6506 15.1231
L52.0459 15.2441
" />
<path d="M53.1949 15.6674
L53.1949 14.8208
" />
<path d="M53.1949 14.9417
L53.2554 14.8812
" />
<path d="M53.2554 14.8812
L53.3764 14.8208
" />
<path d="M53.3764 14.8208
L53.5578 14.8208
" />
<path d="M53.5578 14.8208
L53.6787 14.8812
" />
<path d="M53.6787 14.8812
L53.7392 15.0022
" />
<path d="M53.7392 15.0022
L53.7392 15.6674
" />
<path d="M53.7392 15.0022
L53.7997 14.8812
" />
<path d="M53.7997 14.8812
L53.9206 14.8208
" />
<path d="M53.9206 14.8208
L54.1021 14.8208
" />
<path d="M54.1021 14.8208
L54.2230 14.8812
" />
<path d="M54.2230 14.8812
L54.2835 15.0022
" />
<path d="M54.2835 15.0022
L54.2835 15.6674
" />
<path d="M54.8882 15.6674
L54.8882 14.8208
" />
<path d="M54.8882 14.3974
L54.8278 14.4579
" />
<path d="M54.8278 14.4579
L54.8882 14.5184
" />
<path d="M54.8882 14.5184
L54.9487 14.4579
" />
<path d="M54.9487 14.4579
L54.8882 14.3974
" />
<path d="M54.8882 14.3974
L54.8882 14.5184
" />
<path d="M56.0373 15.6070
L55.9164 15.6674
" />
<path d="M55.9164 15.6674
L55.6745 15.6674
" />
<path d="M55.6745 15.6674
L55.5535 15.6070
" />
<path d="M55.5535 15.6070
L55.4930 15.5465
" />
<path d="M55.4930 15.5465
L55.4326 15.4255
" />
<path d="M55.4326 15.4255
L55.4326 15.0627
" />
<path d="M55.4326 15.0627
L55.4930 14.9417
" />
<path d="M55.4930 14.9417
L55.5535 14.8812
" />
<path d="M55.5535 14.8812
L55.6745 14.8208
" />
<path d="M55.6745 14.8208
L55.9164 14.8208
" />
<path d="M55.9164 14.8208
L56.0373 14.8812
" />
<path d="M56.7631 15.6674
L56.6421 15.6070
" />
<path d="M56.6421 15.6070
L56.5816 15.5465
" />
<path d="M56.5816 15.5465
L56.5212 15.4255
" />
<path d="M56.5212 15.4255
L56.5212 15.0627
" />
<path d="M56.5212 15.0627
L56.5816 14.9417
" />
<path d="M56.5816 14.9417
L56.6421 14.8812
" />
<path d="M56.6421 14.8812
L56.7631 14.8208
" />
<path d="M56.7631 14.8208
L56.9445 14.8208
" />
<path d="M56.9445 14.8208
L57.0654 14.8812
" />
<path d="M57.0654 14.8812
L57.1259 14.9417
" />
<path d="M57.1259 14.9417
L57.1864 15.0627
" />
<path d="M57.1864 15.0627
L57.1864 15.4255
" />
<path d="M57.1864 15.4255
L57.1259 15.5465
" />
<path d="M57.1259 15.5465
L57.0654 15.6070
" />
<path d="M57.0654 15.6070
L56.9445 15.6674
" />
<path d="M56.9445 15.6674
L56.7631 15.6674
" />
<path d="M57.7306 14.8208
L57.7306 15.6674
" />
<path d="M57.7306 14.9417
L57.7911 14.8812
" />
<path d="M57.7911 14.8812
L57.9121 14.8208
" />
<path d="M57.9121 14.8208
L58.0935 14.8208
" />
<path d="M58.0935 14.8208
L58.2144 14.8812
" />
<path d="M58.2144 14.8812
L58.2749 15.0022
" />
<path d="M58.2749 15.0022
L58.2749 15.6674
" />
<path d="M58.8796 15.1836
L59.8473 15.1836
" />
<path d="M60.3916 15.6070
L60.5125 15.6674
" />
<path d="M60.5125 15.6674
L60.7544 15.6674
" />
<path d="M60.7544 15.6674
L60.8754 15.6070
" />
<path d="M60.8754 15.6070
L60.9358 15.4860
" />
<path d="M60.9358 15.4860
L60.9358 15.4255
" />
<path d="M60.9358 15.4255
L60.8754 15.3046
" />
<path d="M60.8754 15.3046
L60.7544 15.2441
" />
<path d="M60.7544 15.2441
L60.5730 15.2441
" />
<path d="M60.5730 15.2441
L60.4520 15.1836
" />
<path d="M60.4520 15.1836
L60.3916 15.0627
" />
<path d="M60.3916 15.0627
L60.3916 15.0022
" />
<path d="M60.3916 15.0022
L60.4520 14.8812
" />
<path d="M60.4520 14.8812
L60.5730 14.8208
" />
<path d="M60.5730 14.8208
L60.7544 14.8208
" />
<path d="M60.7544 14.8208
L60.8754 14.8812
" />
<path d="M61.2987 14.8208
L61.7825 14.8208
" />
<path d="M61.4801 14.3974
L61.4801 15.4860
" />
<path d="M61.4801 15.4860
L61.5406 15.6070
" />
<path d="M61.5406 15.6070
L61.6616 15.6674
" />
<path d="M61.6616 15.6674
L61.7825 15.6674
" />
<path d="M62.3873 15.6674
L62.2663 15.6070
" />
<path d="M62.2663 15.6070
L62.2058 15.5465
" />
<path d="M62.2058 15.5465
L62.1454 15.4255
" />
<path d="M62.1454 15.4255
L62.1454 15.0627
" />
<path d="M62.1454 15.0627
L62.2058 14.9417
" />
<path d="M62.2058 14.9417
L62.2663 14.8812
" />
<path d="M62.2663 14.8812
L62.3873 14.8208
" />
<path d="M62.3873 14.8208
L62.5687 14.8208
" />
<path d="M62.5687 14.8208
L62.6896 14.8812
" />
<path d="M62.6896 14.8812
L62.7501 14.9417
" />
<path d="M62.7501 14.9417
L62.8106 15.0627
" />
<path d="M62.8106 15.0627
L62.8106 15.4255
" />
<path d="M62.8106 15.4255
L62.7501 15.5465
" />
<path d="M62.7501 15.5465
L62.6896 15.6070
" />
<path d="M62.6896 15.6070
L62.5687 15.6674
" />
<path d="M62.5687 15.6674
L62.3873 15.6674
" />
<path d="M63.3548 15.6674
L63.3548 14.8208
" />
<path d="M63.3548 15.0627
L63.4153 14.9417
" />
<path d="M63.4153 14.9417
L63.4758 14.8812
" />
<path d="M63.4758 14.8812
L63.5967 14.8208
" />
<path d="M63.5967 14.8208
L63.7177 14.8208
" />
<path d="M64.6853 15.6674
L64.6853 15.0022
" />
<path d="M64.6853 15.0022
L64.6248 14.8812
" />
<path d="M64.6248 14.8812
L64.5039 14.8208
" />
<path d="M64.5039 14.8208
L64.2620 14.8208
" />
<path d="M64.2620 14.8208
L64.1410 14.8812
" />
<path d="M64.6853 15.6070
L64.5644 15.6674
" />
<path d="M64.5644 15.6674
L64.2620 15.6674
" />
<path d="M64.2620 15.6674
L64.1410 15.6070
" />
<path d="M64.1410 15.6070
L64.0806 15.4860
" />
<path d="M64.0806 15.4860
L64.0806 15.3650
" />
<path d="M64.0806 15.3650
L64.1410 15.2441
" />
<path d="M64.1410 15.2441
L64.2620 15.1836
" />
<path d="M64.2620 15.1836
L64.5644 15.1836
" />
<path d="M64.5644 15.1836
L64.6853 15.1231
" />
<path d="M65.8343 14.8208
L65.8343 15.8489
" />
<path d="M65.8343 15.8489
L65.7738 15.9698
" />
<path d="M65.7738 15.9698
L65.7134 16.0303
" />
<path d="M65.7134 16.0303
L65.5924 16.0908
" />
<path d="M65.5924 16.0908
L65.4110 16.0908
" />
<path d="M65.4110 16.0908
L65.2900 16.0303
" />
<path d="M65.8343 15.6070
L65.7134 15.6674
" />
<path d="M65.7134 15.6674
L65.4715 15.6674
" />
<path d="M65.4715 15.6674
L65.3505 15.6070
" />
<path d="M65.3505 15.6070
L65.2900 15.5465
" />
<path d="M65.2900 15.5465
L65.2296 15.4255
" />
<path d="M65.2296 15.4255
L65.2296 15.0627
" />
<path d="M65.2296 15.0627
L65.2900 14.9417
" />
<path d="M65.2900 14.9417
L65.3505 14.8812
" />
<path d="M65.3505 14.8812
L65.4715 14.8208
" />
<path d="M65.4715 14.8208
L65.7134 14.8208
" />
<path d="M65.7134 14.8208
L65.8343 14.8812
" />
<path d="M66.9228 15.6070
L66.8019 15.6674
" />
<path d="M66.8019 15.6674
L66.5600 15.6674
" />
<path d="M66.5600 15.6674
L66.4390 15.6070
" />
<path d="M66.4390 15.6070
L66.3786 15.4860
" />
<path d="M66.3786 15.4860
L66.3786 15.0022
" />
<path d="M66.3786 15.0022
L66.4390 14.8812
" />
<path d="M66.4390 14.8812
L66.5600 14.8208
" />
<path d="M66.5600 14.8208
L66.8019 14.8208
" />
<path d="M66.8019 14.8208
L66.9228 14.8812
" />
<path d="M66.9228 14.8812
L66.9833 15.0022
" />
<path d="M66.9833 15.0022
L66.9833 15.1231
" />
<path d="M66.9833 15.1231
L66.3786 15.2441
" />
<path d="M67.5276 15.5465
L67.5881 15.6070
" />
<path d="M67.5881 15.6070
L67.5276 15.6674
" />
<path d="M67.5276 15.6674
L67.4672 15.6070
" />
<path d="M67.4672 15.6070
L67.5276 15.5465
" />
<path d="M67.5276 15.5465
L67.5276 15.6674
" />
<path d="M68.6767 15.6070
L68.5558 15.6674
" />
<path d="M68.5558 15.6674
L68.3139 15.6674
" />
<path d="M68.3139 15.6674
L68.1929 15.6070
" />
<path d="M68.1929 15.6070
L68.1324 15.5465
" />
<path d="M68.1324 15.5465
L68.0720 15.4255
" />
<path d="M68.0720 15.4255
L68.0720 15.0627
" />
<path d="M68.0720 15.0627
L68.1324 14.9417
" />
<path d="M68.1324 14.9417
L68.1929 14.8812
" />
<path d="M68.1929 14.8812
L68.3139 14.8208
" />
<path d="M68.3139 14.8208
L68.5558 14.8208
" />
<path d="M68.5558 14.8208
L68.6767 14.8812
" />
<path d="M69.4025 15.6674
L69.2815 15.6070
" />
<path d="M69.2815 15.6070
L69.2210 15.5465
" />
<path d="M69.2210 15.5465
L69.1606 15.4255
" />
<path d="M69.1606 15.4255
L69.1606 15.0627
" />
<path d="M69.1606 15.0627
L69.2210 14.9417
" />
<path d="M69.2210 14.9417
L69.2815 14.8812
" />
<path d="M69.2815 14.8812
L69.4025 14.8208
" />
<path d="M69.4025 14.8208
L69.5839 14.8208
" />
<path d="M69.5839 14.8208
L69.7048 14.8812
" />
<path d="M69.7048 14.8812
L69.7653 14.9417
" />
<path d="M69.7653 14.9417
L69.8258 15.0627
" />
<path d="M69.8258 15.0627
L69.8258 15.4255
" />
<path d="M69.8258 15.4255
L69.7653 15.5465
" />
<path d="M69.7653 15.5465
L69.7048 15.6070
" />
<path d="M69.7048 15.6070
L69.5839 15.6674
" />
<path d="M69.5839 15.6674
L69.4025 15.6674
" />
<path d="M70.3700 15.6674
L70.3700 14.8208
" />
<path d="M70.3700 14.9417
L70.4305 14.8812
" />
<path d="M70.4305 14.8812
L70.5515 14.8208
" />
<path d="M70.5515 14.8208
L70.7329 14.8208
" />
<path d="M70.7329 14.8208
L70.8538 14.8812
" />
<path d="M70.8538 14.8812
L70.9143 15.0022
" />
<path d="M70.9143 15.0022
L70.9143 15.6674
" />
<path d="M70.9143 15.0022
L70.9748 14.8812
" />
<path d="M70.9748 14.8812
L71.0957 14.8208
" />
<path d="M71.0957 14.8208
L71.2772 14.8208
" />
<path d="M71.2772 14.8208
L71.3981 14.8812
" />
<path d="M71.3981 14.8812
L71.4586 15.0022
" />
<path d="M71.4586 15.0022
L71.4586 15.6674
" />
<path d="M72.9705 14.3370
L71.8819 15.9698
" />
<path d="M73.3938 15.6674
L73.3938 14.8208
" />
<path d="M73.3938 14.3974
L73.3334 14.4579
" />
<path d="M73.3334 14.4579
L73.3938 14.5184
" />
<path d="M73.3938 14.5184
L73.4543 14.4579
" />
<path d="M73.4543 14.4579
L73.3938 14.3974
" />
<path d="M73.3938 14.3974
L73.3938 14.5184
" />
<path d="M73.9986 14.8208
L73.9986 15.6674
" />
<path d="M73.9986 14.9417
L74.0591 14.8812
" />
<path d="M74.0591 14.8812
L74.1801 14.8208
" />
<path d="M74.1801 14.8208
L74.3615 14.8208
" />
<path d="M74.3615 14.8208
L74.4824 14.8812
" />
<path d="M74.4824 14.8812
L74.5429 15.0022
" />
<path d="M74.5429 15.0022
L74.5429 15.6674
" />
<path d="M74.9662 14.8208
L75.4500 14.8208
" />
<path d="M75.1476 15.6674
L75.1476 14.5789
" />
<path d="M75.1476 14.5789
L75.2081 14.4579
" />
<path d="M75.2081 14.4579
L75.3291 14.3974
" />
<path d="M75.3291 14.3974
L75.4500 14.3974
" />
<path d="M76.0548 15.6674
L75.9338 15.6070
" />
<path d="M75.9338 15.6070
L75.8733 15.5465
" />
<path d="M75.8733 15.5465
L75.8129 15.4255
" />
<path d="M75.8129 15.4255
L75.8129 15.0627
" />
<path d="M75.8129 15.0627
L75.8733 14.9417
" />
<path d="M75.8733 14.9417
L75.9338 14.8812
" />
<path d="M75.9338 14.8812
L76.0548 14.8208
" />
<path d="M76.0548 14.8208
L76.2362 14.8208
" />
<path d="M76.2362 14.8208
L76.3571 14.8812
" />
<path d="M76.3571 14.8812
L76.4176 14.9417
" />
<path d="M76.4176 14.9417
L76.4781 15.0627
" />
<path d="M76.4781 15.0627
L76.4781 15.4255
" />
<path d="M76.4781 15.4255
L76.4176 15.5465
" />
<path d="M76.4176 15.5465
L76.3571 15.6070
" />
<path d="M76.3571 15.6070
L76.2362 15.6674
" />
<path d="M76.2362 15.6674
L76.0548 15.6674
" />
<path d="M77.9295 14.3370
L76.8409 15.9698
" />
<path d="M78.8971 15.6674
L78.8971 14.3974
" />
<path d="M78.8971 15.6070
L78.7762 15.6674
" />
<path d="M78.7762 15.6674
L78.5343 15.6674
" />
<path d="M78.5343 15.6674
L78.4133 15.6070
" />
<path d="M78.4133 15.6070
L78.3528 15.5465
" />
<path d="M78.3528 15.5465
L78.2924 15.4255
" />
<path d="M78.2924 15.4255
L78.2924 15.0627
" />
<path d="M78.2924 15.0627
L78.3528 14.9417
" />
<path d="M78.3528 14.9417
L78.4133 14.8812
" />
<path d="M78.4133 14.8812
L78.5343 14.8208
" />
<path d="M78.5343 14.8208
L78.7762 14.8208
" />
<path d="M78.7762 14.8208
L78.8971 14.8812
" />
<path d="M79.6833 15.6674
L79.5623 15.6070
" />
<path d="M79.5623 15.6070
L79.5018 15.5465
" />
<path d="M79.5018 15.5465
L79.4414 15.4255
" />
<path d="M79.4414 15.4255
L79.4414 15.0627
" />
<path d="M79.4414 15.0627
L79.5018 14.9417
" />
<path d="M79.5018 14.9417
L79.5623 14.8812
" />
<path d="M79.5623 14.8812
L79.6833 14.8208
" />
<path d="M79.6833 14.8208
L79.8647 14.8208
" />
<path d="M79.8647 14.8208
L79.9856 14.8812
" />
<path d="M79.9856 14.8812
L80.0461 14.9417
" />
<path d="M80.0461 14.9417
L80.1066 15.0627
" />
<path d="M80.1066 15.0627
L80.1066 15.4255
" />
<path d="M80.1066 15.4255
L80.0461 15.5465
" />
<path d="M80.0461 15.5465
L79.9856 15.6070
" />
<path d="M79.9856 15.6070
L79.8647 15.6674
" />
<path d="M79.8647 15.6674
L79.6833 15.6674
" />
<path d="M81.1951 15.6070
L81.0742 15.6674
" />
<path d="M81.0742 15.6674
L80.8323 15.6674
" />
<path d="M80.8323 15.6674
L80.7113 15.6070
" />
<path d="M80.7113 15.6070
L80.6508 15.5465
" />
<path d="M80.6508 15.5465
L80.5904 15.4255
" />
<path d="M80.5904 15.4255
L80.5904 15.0627
" />
<path d="M80.5904 15.0627
L80.6508 14.9417
" />
<path d="M80.6508 14.9417
L80.7113 14.8812
" />
<path d="M80.7113 14.8812
L80.8323 14.8208
" />
<path d="M80.8323 14.8208
L81.0742 14.8208
" />
<path d="M81.0742 14.8208
L81.1951 14.8812
" />
<path d="M82.2837 14.8208
L82.2837 15.8489
" />
<path d="M82.2837 15.8489
L82.2232 15.9698
" />
<path d="M82.2232 15.9698
L82.1628 16.0303
" />
<path d="M82.1628 16.0303
L82.0418 16.0908
" />
<path d="M82.0418 16.0908
L81.8604 16.0908
" />
<path d="M81.8604 16.0908
L81.7394 16.0303
" />
<path d="M82.2837 15.6070
L82.1628 15.6674
" />
<path d="M82.1628 15.6674
L81.9209 15.6674
" />
<path d="M81.9209 15.6674
L81.7999 15.6070
" />
<path d="M81.7999 15.6070
L81.7394 15.5465
" />
<path d="M81.7394 15.5465
L81.6790 15.4255
" />
<path d="M81.6790 15.4255
L81.6790 15.0627
" />
<path d="M81.6790 15.0627
L81.7394 14.9417
" />
<path d="M81.7394 14.9417
L81.7999 14.8812
" />
<path d="M81.7999 14.8812
L81.9209 14.8208
" />
<path d="M81.9209 14.8208
L82.1628 14.8208
" />
<path d="M82.1628 14.8208
L82.2837 14.8812
" />
<path d="M83.3722 15.6070
L83.2513 15.6674
" />
<path d="M83.2513 15.6674
L83.0094 15.6674
" />
<path d="M83.0094 15.6674
L82.8884 15.6070
" />
<path d="M82.8884 15.6070
L82.8280 15.4860
" />
<path d="M82.8280 15.4860
L82.8280 15.0022
" />
<path d="M82.8280 15.0022
L82.8884 14.8812
" />
<path d="M82.8884 14.8812
L83.0094 14.8208
" />
<path d="M83.0094 14.8208
L83.2513 14.8208
" />
<path d="M83.2513 14.8208
L83.3722 14.8812
" />
<path d="M83.3722 14.8812
L83.4327 15.0022
" />
<path d="M83.4327 15.0022
L83.4327 15.1231
" />
<path d="M83.4327 15.1231
L82.8280 15.2441
" />
<path d="M83.7956 14.8208
L84.2794 14.8208
" />
<path d="M83.9770 14.3974
L83.9770 15.4860
" />
<path d="M83.9770 15.4860
L84.0375 15.6070
" />
<path d="M84.0375 15.6070
L84.1585 15.6674
" />
<path d="M84.1585 15.6674
L84.2794 15.6674
" />
<path d="M84.7027 15.5465
L84.7632 15.6070
" />
<path d="M84.7632 15.6070
L84.7027 15.6674
" />
<path d="M84.7027 15.6674
L84.6423 15.6070
" />
<path d="M84.6423 15.6070
L84.7027 15.5465
" />
<path d="M84.7027 15.5465
L84.7027 15.6674
" />
<path d="M85.3075 14.8208
L85.3075 15.9093
" />
<path d="M85.3075 15.9093
L85.2471 16.0303
" />
<path d="M85.2471 16.0303
L85.1261 16.0908
" />
<path d="M85.1261 16.0908
L85.0656 16.0908
" />
<path d="M85.3075 14.3974
L85.2471 14.4579
" />
<path d="M85.2471 14.4579
L85.3075 14.5184
" />
<path d="M85.3075 14.5184
L85.3680 14.4579
" />
<path d="M85.3680 14.4579
L85.3075 14.3974
" />
<path d="M85.3075 14.3974
L85.3075 14.5184
" />
<path d="M85.8519 15.6070
L85.9728 15.6674
" />
<path d="M85.9728 15.6674
L86.2147 15.6674
" />
<path d="M86.2147 15.6674
L86.3357 15.6070
" />
<path d="M86.3357 15.6070
L86.3961 15.4860
" />
<path d="M86.3961 15.4860
L86.3961 15.4255
" />
<path d="M86.3961 15.4255
L86.3357 15.3046
" />
<path d="M86.3357 15.3046
L86.2147 15.2441
" />
<path d="M86.2147 15.2441
L86.0333 15.2441
" />
<path d="M86.0333 15.2441
L85.9123 15.1836
" />
<path d="M85.9123 15.1836
L85.8519 15.0627
" />
<path d="M85.8519 15.0627
L85.8519 15.0022
" />
<path d="M85.8519 15.0022
L85.9123 14.8812
" />
<path d="M85.9123 14.8812
L86.0333 14.8208
" />
<path d="M86.0333 14.8208
L86.2147 14.8208
" />
<path d="M86.2147 14.8208
L86.3357 14.8812
" />
<path d="M86.9404 14.8208
L86.9404 16.0908
" />
<path d="M86.9404 14.8812
L87.0614 14.8208
" />
<path d="M87.0614 14.8208
L87.3033 14.8208
" />
<path d="M87.3033 14.8208
L87.4242 14.8812
" />
<path d="M87.4242 14.8812
L87.4847 14.9417
" />
<path d="M87.4847 14.9417
L87.5452 15.0627
" />
<path d="M87.5452 15.0627
L87.5452 15.4255
" />
<path d="M87.5452 15.4255
L87.4847 15.5465
" />
<path d="M87.4847 15.5465
L87.4242 15.6070
" />
<path d="M87.4242 15.6070
L87.3033 15.6674
" />
<path d="M87.3033 15.6674
L87.0614 15.6674
" />
<path d="M87.0614 15.6674
L86.9404 15.6070
" />
<path d="M88.2709 15.5465
L88.3313 15.6070
" />
<path d="M88.3313 15.6070
L88.2709 15.6674
" />
<path d="M88.2709 15.6674
L88.2104 15.6070
" />
<path d="M88.2104 15.6070
L88.2709 15.5465
" />
<path d="M88.2709 15.5465
L88.2709 15.6674
" />
<path d="M88.0290 14.4579
L88.1499 14.3974
" />
<path d="M88.1499 14.3974
L88.4523 14.3974
" />
<path d="M88.4523 14.3974
L88.5732 14.4579
" />
<path d="M88.5732 14.4579
L88.6337 14.5789
" />
<path d="M88.6337 14.5789
L88.6337 14.6998
" />
<path d="M88.6337 14.6998
L88.5732 14.8208
" />
<path d="M88.5732 14.8208
L88.5128 14.8812
" />
<path d="M88.5128 14.8812
L88.3918 14.9417
" />
<path d="M88.3918 14.9417
L88.3313 15.0022
" />
<path d="M88.3313 15.0022
L88.2709 15.1231
" />
<path d="M88.2709 15.1231
L88.2709 15.1836
" />
<path d="M89.7223 15.6674
L89.7223 14.3974
" />
<path d="M89.7223 15.6070
L89.6014 15.6674
" />
<path d="M89.6014 15.6674
L89.3595 15.6674
" />
<path d="M89.3595 15.6674
L89.2385 15.6070
" />
<path d="M89.2385 15.6070
L89.1780 15.5465
" />
<path d="M89.1780 15.5465
L89.1176 15.4255
" />
<path d="M89.1176 15.4255
L89.1176 15.0627
" />
<path d="M89.1176 15.0627
L89.1780 14.9417
" />
<path d="M89.1780 14.9417
L89.2385 14.8812
" />
<path d="M89.2385 14.8812
L89.3595 14.8208
" />
<path d="M89.3595 14.8208
L89.6014 14.8208
" />
<path d="M89.6014 14.8208
L89.7223 14.8812
" />
<path d="M90.3270 15.6674
L90.3270 14.8208
" />
<path d="M90.3270 14.3974
L90.2666 14.4579
" />
<path d="M90.2666 14.4579
L90.3270 14.5184
" />
<path d="M90.3270 14.5184
L90.3875 14.4579
" />
<path d="M90.3875 14.4579
L90.3270 14.3974
" />
<path d="M90.3270 14.3974
L90.3270 14.5184
" />
<path d="M91.4761 15.6674
L91.4761 14.3974
" />
<path d="M91.4761 15.6070
L91.3552 15.6674
" />
<path d="M91.3552 15.6674
L91.1133 15.6674
" />
<path d="M91.1133 15.6674
L90.9923 15.6070
" />
<path d="M90.9923 15.6070
L90.9318 15.5465
" />
<path d="M90.9318 15.5465
L90.8714 15.4255
" />
<path d="M90.8714 15.4255
L90.8714 15.0627
" />
<path d="M90.8714 15.0627
L90.9318 14.9417
" />
<path d="M90.9318 14.9417
L90.9923 14.8812
" />
<path d="M90.9923 14.8812
L91.1133 14.8208
" />
<path d="M91.1133 14.8208
L91.3552 14.8208
" />
<path d="M91.3552 14.8208
L91.4761 14.8812
" />
<path d="M92.0808 15.0022
L93.0485 15.0022
" />
<path d="M93.0485 15.3650
L92.0808 15.3650
" />
<path d="M94.3185 15.6674
L93.5928 15.6674
" />
<path d="M93.9556 15.6674
L93.9556 14.3974
" />
<path d="M93.9556 14.3974
L93.8347 14.5789
" />
<path d="M93.8347 14.5789
L93.7137 14.6998
" />
<path d="M93.7137 14.6998
L93.5928 14.7603
" />
<path d="M95.4675 14.3974
L94.8627 14.3974
" />
<path d="M94.8627 14.3974
L94.8023 15.0022
" />
<path d="M94.8023 15.0022
L94.8627 14.9417
" />
<path d="M94.8627 14.9417
L94.9837 14.8812
" />
<path d="M94.9837 14.8812
L95.2861 14.8812
" />
<path d="M95.2861 14.8812
L95.4070 14.9417
" />
<path d="M95.4070 14.9417
L95.4675 15.0022
" />
<path d="M95.4675 15.0022
L95.5280 15.1231
" />
<path d="M95.5280 15.1231
L95.5280 15.4255
" />
<path d="M95.5280 15.4255
L95.4675 15.5465
" />
<path d="M95.4675 15.5465
L95.4070 15.6070
" />
<path d="M95.4070 15.6070
L95.2861 15.6674
" />
<path d="M95.2861 15.6674
L94.9837 15.6674
" />
<path d="M94.9837 15.6674
L94.8627 15.6070
" />
<path d="M94.8627 15.6070
L94.8023 15.5465
" />
<path d="M96.0118 14.5184
L96.0722 14.4579
" />
<path d="M96.0722 14.4579
L96.1932 14.3974
" />
<path d="M96.1932 14.3974
L96.4956 14.3974
" />
<path d="M96.4956 14.3974
L96.6165 14.4579
" />
<path d="M96.6165 14.4579
L96.6770 14.5184
" />
<path d="M96.6770 14.5184
L96.7375 14.6393
" />
<path d="M96.7375 14.6393
L96.7375 14.7603
" />
<path d="M96.7375 14.7603
L96.6770 14.9417
" />
<path d="M96.6770 14.9417
L95.9513 15.6674
" />
<path d="M95.9513 15.6674
L96.7375 15.6674
" />
<path d="M97.9470 15.6674
L97.2213 15.6674
" />
<path d="M97.5841 15.6674
L97.5841 14.3974
" />
<path d="M97.5841 14.3974
L97.4632 14.5789
" />
<path d="M97.4632 14.5789
L97.3422 14.6998
" />
<path d="M97.3422 14.6998
L97.2213 14.7603
" />
<path d="M99.0355 14.3974
L98.7936 14.3974
" />
<path d="M98.7936 14.3974
L98.6727 14.4579
" />
<path d="M98.6727 14.4579
L98.6122 14.5184
" />
<path d="M98.6122 14.5184
L98.4912 14.6998
" />
<path d="M98.4912 14.6998
L98.4308 14.9417
" />
<path d="M98.4308 14.9417
L98.4308 15.4255
" />
<path d="M98.4308 15.4255
L98.4912 15.5465
" />
<path d="M98.4912 15.5465
L98.5517 15.6070
" />
<path d="M98.5517 15.6070
L98.6727 15.6674
" />
<path d="M98.6727 15.6674
L98.9146 15.6674
" />
<path d="M98.9146 15.6674
L99.0355 15.6070
" />
<path d="M99.0355 15.6070
L99.0960 15.5465
" />
<path d="M99.0960 15.5465
L99.1565 15.4255
" />
<path d="M99.1565 15.4255
L99.1565 15.1231
" />
<path d="M99.1565 15.1231
L99.0960 15.0022
" />
<path d="M99.0960 15.0022
L99.0355 14.9417
" />
<path d="M99.0355 14.9417
L98.9146 14.8812
" />
<path d="M98.9146 14.8812
L98.6727 14.8812
" />
<path d="M98.6727 14.8812
L98.5517 14.9417
" />
<path d="M98.5517 14.9417
L98.4912 15.0022
" />
<path d="M98.4912 15.0022
L98.4308 15.1231
" />
<path d="M100.7288 15.6674
L100.6684 15.6674
" />
<path d="M100.6684 15.6674
L100.5474 15.6070
" />
<path d="M100.5474 15.6070
L100.3660 15.4255
" />
<path d="M100.3660 15.4255
L100.0636 15.0627
" />
<path d="M100.0636 15.0627
L99.9426 14.8812
" />
<path d="M99.9426 14.8812
L99.8822 14.6998
" />
<path d="M99.8822 14.6998
L99.8822 14.5789
" />
<path d="M99.8822 14.5789
L99.9426 14.4579
" />
<path d="M99.9426 14.4579
L100.0636 14.3974
" />
<path d="M100.0636 14.3974
L100.1241 14.3974
" />
<path d="M100.1241 14.3974
L100.2450 14.4579
" />
<path d="M100.2450 14.4579
L100.3055 14.5789
" />
<path d="M100.3055 14.5789
L100.3055 14.6393
" />
<path d="M100.3055 14.6393
L100.2450 14.7603
" />
<path d="M100.2450 14.7603
L100.1845 14.8208
" />
<path d="M100.1845 14.8208
L99.8217 15.0627
" />
<path d="M99.8217 15.0627
L99.7612 15.1231
" />
<path d="M99.7612 15.1231
L99.7007 15.2441
" />
<path d="M99.7007 15.2441
L99.7007 15.4255
" />
<path d="M99.7007 15.4255
L99.7612 15.5465
" />
<path d="M99.7612 15.5465
L99.8217 15.6070
" />
<path d="M99.8217 15.6070
L99.9426 15.6674
" />
<path d="M99.9426 15.6674
L100.1241 15.6674
" />
<path d="M100.1241 15.6674
L100.2450 15.6070
" />
<path d="M100.2450 15.6070
L100.3055 15.5465
" />
<path d="M100.3055 15.5465
L100.4869 15.3046
" />
<path d="M100.4869 15.3046
L100.5474 15.1231
" />
<path d="M100.5474 15.1231
L100.5474 15.0022
" />
<path d="M101.2731 14.8208
L101.2731 16.0908
" />
<path d="M101.2731 14.8812
L101.3941 14.8208
" />
<path d="M101.3941 14.8208
L101.6360 14.8208
" />
<path d="M101.6360 14.8208
L101.7569 14.8812
" />
<path d="M101.7569 14.8812
L101.8174 14.9417
" />
<path d="M101.8174 14.9417
L101.8779 15.0627
" />
<path d="M101.8779 15.0627
L101.8779 15.4255
" />
<path d="M101.8779 15.4255
L101.8174 15.5465
" />
<path d="M101.8174 15.5465
L101.7569 15.6070
" />
<path d="M101.7569 15.6070
L101.6360 15.6674
" />
<path d="M101.6360 15.6674
L101.3941 15.6674
" />
<path d="M101.3941 15.6674
L101.2731 15.6070
" />
<path d="M102.4221 15.6674
L102.4221 14.8208
" />
<path d="M102.4221 15.0627
L102.4826 14.9417
" />
<path d="M102.4826 14.9417
L102.5431 14.8812
" />
<path d="M102.5431 14.8812
L102.6640 14.8208
" />
<path d="M102.6640 14.8208
L102.7850 14.8208
" />
<path d="M103.3898 15.6674
L103.2688 15.6070
" />
<path d="M103.2688 15.6070
L103.2083 15.5465
" />
<path d="M103.2083 15.5465
L103.1479 15.4255
" />
<path d="M103.1479 15.4255
L103.1479 15.0627
" />
<path d="M103.1479 15.0627
L103.2083 14.9417
" />
<path d="M103.2083 14.9417
L103.2688 14.8812
" />
<path d="M103.2688 14.8812
L103.3898 14.8208
" />
<path d="M103.3898 14.8208
L103.5712 14.8208
" />
<path d="M103.5712 14.8208
L103.6921 14.8812
" />
<path d="M103.6921 14.8812
L103.7526 14.9417
" />
<path d="M103.7526 14.9417
L103.8131 15.0627
" />
<path d="M103.8131 15.0627
L103.8131 15.4255
" />
<path d="M103.8131 15.4255
L103.7526 15.5465
" />
<path d="M103.7526 15.5465
L103.6921 15.6070
" />
<path d="M103.6921 15.6070
L103.5712 15.6674
" />
<path d="M103.5712 15.6674
L103.3898 15.6674
" />
<path d="M104.9016 15.6674
L104.9016 14.3974
" />
<path d="M104.9016 15.6070
L104.7807 15.6674
" />
<path d="M104.7807 15.6674
L104.5388 15.6674
" />
<path d="M104.5388 15.6674
L104.4178 15.6070
" />
<path d="M104.4178 15.6070
L104.3573 15.5465
" />
<path d="M104.3573 15.5465
L104.2969 15.4255
" />
<path d="M104.2969 15.4255
L104.2969 15.0627
" />
<path d="M104.2969 15.0627
L104.3573 14.9417
" />
<path d="M104.3573 14.9417
L104.4178 14.8812
" />
<path d="M104.4178 14.8812
L104.5388 14.8208
" />
<path d="M104.5388 14.8208
L104.7807 14.8208
" />
<path d="M104.7807 14.8208
L104.9016 14.8812
" />
<path d="M105.5063 15.6674
L105.5063 14.3974
" />
<path d="M105.5063 14.3974
L106.2320 15.6674
" />
<path d="M106.2320 15.6674
L106.2320 14.3974
" />
<path d="M107.3811 15.6674
L107.3811 15.0022
" />
<path d="M107.3811 15.0022
L107.3206 14.8812
" />
<path d="M107.3206 14.8812
L107.1997 14.8208
" />
<path d="M107.1997 14.8208
L106.9578 14.8208
" />
<path d="M106.9578 14.8208
L106.8368 14.8812
" />
<path d="M107.3811 15.6070
L107.2602 15.6674
" />
<path d="M107.2602 15.6674
L106.9578 15.6674
" />
<path d="M106.9578 15.6674
L106.8368 15.6070
" />
<path d="M106.8368 15.6070
L106.7764 15.4860
" />
<path d="M106.7764 15.4860
L106.7764 15.3650
" />
<path d="M106.7764 15.3650
L106.8368 15.2441
" />
<path d="M106.8368 15.2441
L106.9578 15.1836
" />
<path d="M106.9578 15.1836
L107.2602 15.1836
" />
<path d="M107.2602 15.1836
L107.3811 15.1231
" />
<path d="M107.9858 15.6674
L107.9858 14.8208
" />
<path d="M107.9858 14.9417
L108.0463 14.8812
" />
<path d="M108.0463 14.8812
L108.1673 14.8208
" />
<path d="M108.1673 14.8208
L108.3487 14.8208
" />
<path d="M108.3487 14.8208
L108.4696 14.8812
" />
<path d="M108.4696 14.8812
L108.5301 15.0022
" />
<path d="M108.5301 15.0022
L108.5301 15.6674
" />
<path d="M108.5301 15.0022
L108.5906 14.8812
" />
<path d="M108.5906 14.8812
L108.7115 14.8208
" />
<path d="M108.7115 14.8208
L108.8930 14.8208
" />
<path d="M108.8930 14.8208
L109.0139 14.8812
" />
<path d="M109.0139 14.8812
L109.0744 15.0022
" />
<path d="M109.0744 15.0022
L109.0744 15.6674
" />
<path d="M110.1629 15.6070
L110.0420 15.6674
" />
<path d="M110.0420 15.6674
L109.8001 15.6674
" />
<path d="M109.8001 15.6674
L109.6791 15.6070
" />
<path d="M109.6791 15.6070
L109.6187 15.4860
" />
<path d="M109.6187 15.4860
L109.6187 15.0022
" />
<path d="M109.6187 15.0022
L109.6791 14.8812
" />
<path d="M109.6791 14.8812
L109.8001 14.8208
" />
<path d="M109.8001 14.8208
L110.0420 14.8208
" />
<path d="M110.0420 14.8208
L110.1629 14.8812
" />
<path d="M110.1629 14.8812
L110.2234 15.0022
" />
<path d="M110.2234 15.0022
L110.2234 15.1231
" />
<path d="M110.2234 15.1231
L109.6187 15.2441
" />
<path d="M110.7677 15.0022
L111.7354 15.0022
" />
<path d="M111.7354 15.3650
L110.7677 15.3650
" />
<path d="M112.1587 14.3974
L112.8844 14.3974
" />
<path d="M112.5216 15.6674
L112.5216 14.3974
" />
<path d="M113.9125 15.6674
L113.3077 15.6674
" />
<path d="M113.3077 15.6674
L113.3077 14.3974
" />
<path d="M114.3358 15.6674
L114.3358 14.3974
" />
<path d="M114.3358 14.3974
L114.8196 14.3974
" />
<path d="M114.8196 14.3974
L114.9406 14.4579
" />
<path d="M114.9406 14.4579
L115.0011 14.5184
" />
<path d="M115.0011 14.5184
L115.0615 14.6393
" />
<path d="M115.0615 14.6393
L115.0615 14.8208
" />
<path d="M115.0615 14.8208
L115.0011 14.9417
" />
<path d="M115.0011 14.9417
L114.9406 15.0022
" />
<path d="M114.9406 15.0022
L114.8196 15.0627
" />
<path d="M114.8196 15.0627
L114.3358 15.0627
" />
<path d="M115.5454 14.5184
L115.6058 14.4579
" />
<path d="M115.6058 14.4579
L115.7268 14.3974
" />
<path d="M115.7268 14.3974
L116.0292 14.3974
" />
<path d="M116.0292 14.3974
L116.1501 14.4579
" />
<path d="M116.1501 14.4579
L116.2106 14.5184
" />
<path d="M116.2106 14.5184
L116.2711 14.6393
" />
<path d="M116.2711 14.6393
L116.2711 14.7603
" />
<path d="M116.2711 14.7603
L116.2106 14.9417
" />
<path d="M116.2106 14.9417
L115.4849 15.6674
" />
<path d="M115.4849 15.6674
L116.2711 15.6674
" />
<path d="M116.6944 14.3974
L117.5410 14.3974
" />
<path d="M117.5410 14.3974
L116.9968 15.6674
" />
<path d="M118.2667 14.3974
L118.3877 14.3974
" />
<path d="M118.3877 14.3974
L118.5086 14.4579
" />
<path d="M118.5086 14.4579
L118.5691 14.5184
" />
<path d="M118.5691 14.5184
L118.6296 14.6393
" />
<path d="M118.6296 14.6393
L118.6901 14.8812
" />
<path d="M118.6901 14.8812
L118.6901 15.1836
" />
<path d="M118.6901 15.1836
L118.6296 15.4255
" />
<path d="M118.6296 15.4255
L118.5691 15.5465
" />
<path d="M118.5691 15.5465
L118.5086 15.6070
" />
<path d="M118.5086 15.6070
L118.3877 15.6674
" />
<path d="M118.3877 15.6674
L118.2667 15.6674
" />
<path d="M118.2667 15.6674
L118.1458 15.6070
" />
<path d="M118.1458 15.6070
L118.0853 15.5465
" />
<path d="M118.0853 15.5465
L118.0248 15.4255
" />
<path d="M118.0248 15.4255
L117.9644 15.1836
" />
<path d="M117.9644 15.1836
L117.9644 14.8812
" />
<path d="M117.9644 14.8812
L118.0248 14.6393
" />
<path d="M118.0248 14.6393
L118.0853 14.5184
" />
<path d="M118.0853 14.5184
L118.1458 14.4579
" />
<path d="M118.1458 14.4579
L118.2667 14.3974
" />
<path d="M119.1134 14.3974
L119.8996 14.3974
" />
<path d="M119.8996 14.3974
L119.4762 14.8812
" />
<path d="M119.4762 14.8812
L119.6577 14.8812
" />
<path d="M119.6577 14.8812
L119.7786 14.9417
" />
<path d="M119.7786 14.9417
L119.8391 15.0022
" />
<path d="M119.8391 15.0022
L119.8996 15.1231
" />
<path d="M119.8996 15.1231
L119.8996 15.4255
" />
<path d="M119.8996 15.4255
L119.8391 15.5465
" />
<path d="M119.8391 15.5465
L119.7786 15.6070
" />
<path d="M119.7786 15.6070
L119.6577 15.6674
" />
<path d="M119.6577 15.6674
L119.2948 15.6674
" />
<path d="M119.2948 15.6674
L119.1739 15.6070
" />
<path d="M119.1739 15.6070
L119.1134 15.5465
" />
</g></g> 
</svg>
