<?xml version="1.0" standalone="no"?>
 <!DOCTYPE svg PUBLIC "-//W3C//DTD SVG 1.1//EN" 
 "http://www.w3.org/Graphics/SVG/1.1/DTD/svg11.dtd"> 
<svg
  xmlns:svg="http://www.w3.org/2000/svg"
  xmlns="http://www.w3.org/2000/svg"
  xmlns:xlink="http://www.w3.org/1999/xlink"
  version="1.1"
  width="82.9818mm" height="30.4800mm" viewBox="0.0000 0.0000 82.9818 30.4800">
<title>SVG Image created as working.svg date 2023/08/01 03:42:15 </title>
  <desc>Image generated by Eeschema-SVG </desc>
<g style="fill:#000000; fill-opacity:1.0000;stroke:#000000; stroke-opacity:1.0000;
stroke-linecap:round; stroke-linejoin:round;"
 transform="translate(0 0) scale(1 1)">
</g>
<g style="fill:#840000; fill-opacity:0.0; 
stroke:#840000; stroke-width:0.0000; stroke-opacity:1; 
stroke-linecap:round; stroke-linejoin:round;">
</g>
<g style="fill:#FFFFC2; fill-opacity:0.0; 
stroke:#FFFFC2; stroke-width:0.0000; stroke-opacity:1; 
stroke-linecap:round; stroke-linejoin:round;">
</g>
<g style="fill:#FFFFC2; fill-opacity:1.0000; 
stroke:#FFFFC2; stroke-width:0.0000; stroke-opacity:1; 
stroke-linecap:round; stroke-linejoin:round;">
<rect x="30.057300" y="5.080100" width="20.320000" height="20.320000" rx="0.000000" />
</g>
<g style="fill:#840084; fill-opacity:1.0000; 
stroke:#840084; stroke-width:0.0000; stroke-opacity:1; 
stroke-linecap:round; stroke-linejoin:round;">
</g>
<g style="fill:#840000; fill-opacity:1.0000; 
stroke:#840000; stroke-width:0.0000; stroke-opacity:1; 
stroke-linecap:round; stroke-linejoin:round;">
</g>
<g style="fill:#840000; fill-opacity:0.0; 
stroke:#840000; stroke-width:0.2540; stroke-opacity:1; 
stroke-linecap:round; stroke-linejoin:round;">
<rect x="30.057300" y="5.080100" width="20.320000" height="20.320000" rx="0.000000" />
</g>
<g style="fill:#840000; fill-opacity:0.0; 
stroke:#840000; stroke-width:0.1524; stroke-opacity:1; 
stroke-linecap:round; stroke-linejoin:round;">
<path d="M42.7573 5.0801
L42.7573 2.5401
" />
</g>
<g style="fill:#006464; fill-opacity:0.0; 
stroke:#006464; stroke-width:0.1524; stroke-opacity:1; 
stroke-linecap:round; stroke-linejoin:round;">
<g transform="rotate(-90.000000 42.7573 6.0961)">
<text x="42.7573" y="6.7311"
textLength="3.6346" font-size="1.6933" lengthAdjust="spacingAndGlyphs"
text-anchor="end" opacity="0">REF</text>
</g>
<g class="stroked-text"><desc>REF</desc>
<path d="M43.3448 8.5756
L42.7401 8.9989
" />
<path d="M43.3448 9.3013
L42.0748 9.3013
" />
<path d="M42.0748 9.3013
L42.0748 8.8175
" />
<path d="M42.0748 8.8175
L42.1353 8.6965
" />
<path d="M42.1353 8.6965
L42.1958 8.6360
" />
<path d="M42.1958 8.6360
L42.3167 8.5756
" />
<path d="M42.3167 8.5756
L42.4982 8.5756
" />
<path d="M42.4982 8.5756
L42.6191 8.6360
" />
<path d="M42.6191 8.6360
L42.6796 8.6965
" />
<path d="M42.6796 8.6965
L42.7401 8.8175
" />
<path d="M42.7401 8.8175
L42.7401 9.3013
" />
<path d="M42.6796 8.0313
L42.6796 7.6079
" />
<path d="M43.3448 7.4265
L43.3448 8.0313
" />
<path d="M43.3448 8.0313
L42.0748 8.0313
" />
<path d="M42.0748 8.0313
L42.0748 7.4265
" />
<path d="M42.6796 6.4589
L42.6796 6.8823
" />
<path d="M43.3448 6.8823
L42.0748 6.8823
" />
<path d="M42.0748 6.8823
L42.0748 6.2775
" />
</g></g>
<g style="fill:#A90000; fill-opacity:0.0; 
stroke:#A90000; stroke-width:0.1524; stroke-opacity:1; 
stroke-linecap:round; stroke-linejoin:round;">
<g transform="rotate(-90.000000 42.5033 3.8101)">
<text x="42.5033" y="3.8101"
textLength="1.3365" font-size="1.6933" lengthAdjust="spacingAndGlyphs"
text-anchor="middle" opacity="0">1</text>
</g>
<g class="stroked-text"><desc>1</desc>
<path d="M42.3478 3.4471
L42.3478 4.1728
" />
<path d="M42.3478 3.8100
L41.0778 3.8100
" />
<path d="M41.0778 3.8100
L41.2593 3.9309
" />
<path d="M41.2593 3.9309
L41.3802 4.0519
" />
<path d="M41.3802 4.0519
L41.4407 4.1728
" />
</g></g>
<g style="fill:#840000; fill-opacity:0.0; 
stroke:#840000; stroke-width:0.1524; stroke-opacity:1; 
stroke-linecap:round; stroke-linejoin:round;">
<path d="M30.0573 10.1601
L27.5173 10.1601
" />
</g>
<g style="fill:#006464; fill-opacity:0.0; 
stroke:#006464; stroke-width:0.1524; stroke-opacity:1; 
stroke-linecap:round; stroke-linejoin:round;">
<text x="31.0733" y="10.7951"
textLength="3.6346" font-size="1.6933" lengthAdjust="spacingAndGlyphs"
text-anchor="start" opacity="0">SCL</text>
<g class="stroked-text"><desc>SCL</desc>
<path d="M31.3152 10.6872
L31.4966 10.7476
" />
<path d="M31.4966 10.7476
L31.7990 10.7476
" />
<path d="M31.7990 10.7476
L31.9199 10.6872
" />
<path d="M31.9199 10.6872
L31.9804 10.6267
" />
<path d="M31.9804 10.6267
L32.0409 10.5057
" />
<path d="M32.0409 10.5057
L32.0409 10.3848
" />
<path d="M32.0409 10.3848
L31.9804 10.2638
" />
<path d="M31.9804 10.2638
L31.9199 10.2033
" />
<path d="M31.9199 10.2033
L31.7990 10.1429
" />
<path d="M31.7990 10.1429
L31.5571 10.0824
" />
<path d="M31.5571 10.0824
L31.4361 10.0219
" />
<path d="M31.4361 10.0219
L31.3756 9.9614
" />
<path d="M31.3756 9.9614
L31.3152 9.8405
" />
<path d="M31.3152 9.8405
L31.3152 9.7195
" />
<path d="M31.3152 9.7195
L31.3756 9.5986
" />
<path d="M31.3756 9.5986
L31.4361 9.5381
" />
<path d="M31.4361 9.5381
L31.5571 9.4776
" />
<path d="M31.5571 9.4776
L31.8594 9.4776
" />
<path d="M31.8594 9.4776
L32.0409 9.5381
" />
<path d="M33.3108 10.6267
L33.2504 10.6872
" />
<path d="M33.2504 10.6872
L33.0689 10.7476
" />
<path d="M33.0689 10.7476
L32.9480 10.7476
" />
<path d="M32.9480 10.7476
L32.7666 10.6872
" />
<path d="M32.7666 10.6872
L32.6456 10.5662
" />
<path d="M32.6456 10.5662
L32.5851 10.4452
" />
<path d="M32.5851 10.4452
L32.5247 10.2033
" />
<path d="M32.5247 10.2033
L32.5247 10.0219
" />
<path d="M32.5247 10.0219
L32.5851 9.7800
" />
<path d="M32.5851 9.7800
L32.6456 9.6591
" />
<path d="M32.6456 9.6591
L32.7666 9.5381
" />
<path d="M32.7666 9.5381
L32.9480 9.4776
" />
<path d="M32.9480 9.4776
L33.0689 9.4776
" />
<path d="M33.0689 9.4776
L33.2504 9.5381
" />
<path d="M33.2504 9.5381
L33.3108 9.5986
" />
<path d="M34.4599 10.7476
L33.8551 10.7476
" />
<path d="M33.8551 10.7476
L33.8551 9.4776
" />
</g></g>
<g style="fill:#A90000; fill-opacity:0.0; 
stroke:#A90000; stroke-width:0.1524; stroke-opacity:1; 
stroke-linecap:round; stroke-linejoin:round;">
<text x="28.7873" y="9.9061"
textLength="2.5460" font-size="1.6933" lengthAdjust="spacingAndGlyphs"
text-anchor="middle" opacity="0">10</text>
<g class="stroked-text"><desc>10</desc>
<path d="M28.5454 9.7506
L27.8197 9.7506
" />
<path d="M28.1825 9.7506
L28.1825 8.4806
" />
<path d="M28.1825 8.4806
L28.0616 8.6621
" />
<path d="M28.0616 8.6621
L27.9406 8.7830
" />
<path d="M27.9406 8.7830
L27.8197 8.8435
" />
<path d="M29.3315 8.4806
L29.4525 8.4806
" />
<path d="M29.4525 8.4806
L29.5734 8.5411
" />
<path d="M29.5734 8.5411
L29.6339 8.6016
" />
<path d="M29.6339 8.6016
L29.6944 8.7225
" />
<path d="M29.6944 8.7225
L29.7549 8.9644
" />
<path d="M29.7549 8.9644
L29.7549 9.2668
" />
<path d="M29.7549 9.2668
L29.6944 9.5087
" />
<path d="M29.6944 9.5087
L29.6339 9.6297
" />
<path d="M29.6339 9.6297
L29.5734 9.6902
" />
<path d="M29.5734 9.6902
L29.4525 9.7506
" />
<path d="M29.4525 9.7506
L29.3315 9.7506
" />
<path d="M29.3315 9.7506
L29.2106 9.6902
" />
<path d="M29.2106 9.6902
L29.1501 9.6297
" />
<path d="M29.1501 9.6297
L29.0896 9.5087
" />
<path d="M29.0896 9.5087
L29.0292 9.2668
" />
<path d="M29.0292 9.2668
L29.0292 8.9644
" />
<path d="M29.0292 8.9644
L29.0896 8.7225
" />
<path d="M29.0896 8.7225
L29.1501 8.6016
" />
<path d="M29.1501 8.6016
L29.2106 8.5411
" />
<path d="M29.2106 8.5411
L29.3315 8.4806
" />
</g></g>
<g style="fill:#840000; fill-opacity:0.0; 
stroke:#840000; stroke-width:0.1524; stroke-opacity:1; 
stroke-linecap:round; stroke-linejoin:round;">
<path d="M30.0573 7.6201
L27.5173 7.6201
" />
</g>
<g style="fill:#006464; fill-opacity:0.0; 
stroke:#006464; stroke-width:0.1524; stroke-opacity:1; 
stroke-linecap:round; stroke-linejoin:round;">
<text x="31.0733" y="8.2551"
textLength="3.6951" font-size="1.6933" lengthAdjust="spacingAndGlyphs"
text-anchor="start" opacity="0">SDA</text>
<g class="stroked-text"><desc>SDA</desc>
<path d="M31.3152 8.1472
L31.4966 8.2076
" />
<path d="M31.4966 8.2076
L31.7990 8.2076
" />
<path d="M31.7990 8.2076
L31.9199 8.1472
" />
<path d="M31.9199 8.1472
L31.9804 8.0867
" />
<path d="M31.9804 8.0867
L32.0409 7.9657
" />
<path d="M32.0409 7.9657
L32.0409 7.8448
" />
<path d="M32.0409 7.8448
L31.9804 7.7238
" />
<path d="M31.9804 7.7238
L31.9199 7.6633
" />
<path d="M31.9199 7.6633
L31.7990 7.6029
" />
<path d="M31.7990 7.6029
L31.5571 7.5424
" />
<path d="M31.5571 7.5424
L31.4361 7.4819
" />
<path d="M31.4361 7.4819
L31.3756 7.4214
" />
<path d="M31.3756 7.4214
L31.3152 7.3005
" />
<path d="M31.3152 7.3005
L31.3152 7.1795
" />
<path d="M31.3152 7.1795
L31.3756 7.0586
" />
<path d="M31.3756 7.0586
L31.4361 6.9981
" />
<path d="M31.4361 6.9981
L31.5571 6.9376
" />
<path d="M31.5571 6.9376
L31.8594 6.9376
" />
<path d="M31.8594 6.9376
L32.0409 6.9981
" />
<path d="M32.5851 8.2076
L32.5851 6.9376
" />
<path d="M32.5851 6.9376
L32.8875 6.9376
" />
<path d="M32.8875 6.9376
L33.0689 6.9981
" />
<path d="M33.0689 6.9981
L33.1899 7.1191
" />
<path d="M33.1899 7.1191
L33.2504 7.2400
" />
<path d="M33.2504 7.2400
L33.3108 7.4819
" />
<path d="M33.3108 7.4819
L33.3108 7.6633
" />
<path d="M33.3108 7.6633
L33.2504 7.9052
" />
<path d="M33.2504 7.9052
L33.1899 8.0262
" />
<path d="M33.1899 8.0262
L33.0689 8.1472
" />
<path d="M33.0689 8.1472
L32.8875 8.2076
" />
<path d="M32.8875 8.2076
L32.5851 8.2076
" />
<path d="M33.7947 7.8448
L34.3994 7.8448
" />
<path d="M33.6737 8.2076
L34.0970 6.9376
" />
<path d="M34.0970 6.9376
L34.5204 8.2076
" />
</g></g>
<g style="fill:#A90000; fill-opacity:0.0; 
stroke:#A90000; stroke-width:0.1524; stroke-opacity:1; 
stroke-linecap:round; stroke-linejoin:round;">
<text x="28.7873" y="7.3661"
textLength="2.5460" font-size="1.6933" lengthAdjust="spacingAndGlyphs"
text-anchor="middle" opacity="0">11</text>
<g class="stroked-text"><desc>11</desc>
<path d="M28.5454 7.2106
L27.8197 7.2106
" />
<path d="M28.1825 7.2106
L28.1825 5.9406
" />
<path d="M28.1825 5.9406
L28.0616 6.1221
" />
<path d="M28.0616 6.1221
L27.9406 6.2430
" />
<path d="M27.9406 6.2430
L27.8197 6.3035
" />
<path d="M29.7549 7.2106
L29.0292 7.2106
" />
<path d="M29.3920 7.2106
L29.3920 5.9406
" />
<path d="M29.3920 5.9406
L29.2711 6.1221
" />
<path d="M29.2711 6.1221
L29.1501 6.2430
" />
<path d="M29.1501 6.2430
L29.0292 6.3035
" />
</g></g>
<g style="fill:#840000; fill-opacity:0.0; 
stroke:#840000; stroke-width:0.1524; stroke-opacity:1; 
stroke-linecap:round; stroke-linejoin:round;">
<path d="M30.0573 17.7801
L27.5173 17.7801
" />
</g>
<g style="fill:#006464; fill-opacity:0.0; 
stroke:#006464; stroke-width:0.1524; stroke-opacity:1; 
stroke-linecap:round; stroke-linejoin:round;">
<text x="31.0733" y="18.4151"
textLength="3.6951" font-size="1.6933" lengthAdjust="spacingAndGlyphs"
text-anchor="start" opacity="0">~{CLR}</text>
<g class="stroked-text"><desc>~{CLR}</desc>
<path d="M32.1013 18.2467
L32.0409 18.3072
" />
<path d="M32.0409 18.3072
L31.8594 18.3676
" />
<path d="M31.8594 18.3676
L31.7385 18.3676
" />
<path d="M31.7385 18.3676
L31.5571 18.3072
" />
<path d="M31.5571 18.3072
L31.4361 18.1862
" />
<path d="M31.4361 18.1862
L31.3756 18.0652
" />
<path d="M31.3756 18.0652
L31.3152 17.8233
" />
<path d="M31.3152 17.8233
L31.3152 17.6419
" />
<path d="M31.3152 17.6419
L31.3756 17.4000
" />
<path d="M31.3756 17.4000
L31.4361 17.2791
" />
<path d="M31.4361 17.2791
L31.5571 17.1581
" />
<path d="M31.5571 17.1581
L31.7385 17.0976
" />
<path d="M31.7385 17.0976
L31.8594 17.0976
" />
<path d="M31.8594 17.0976
L32.0409 17.1581
" />
<path d="M32.0409 17.1581
L32.1013 17.2186
" />
<path d="M33.2504 18.3676
L32.6456 18.3676
" />
<path d="M32.6456 18.3676
L32.6456 17.0976
" />
<path d="M34.3994 18.3676
L33.9761 17.7629
" />
<path d="M33.6737 18.3676
L33.6737 17.0976
" />
<path d="M33.6737 17.0976
L34.1575 17.0976
" />
<path d="M34.1575 17.0976
L34.2785 17.1581
" />
<path d="M34.2785 17.1581
L34.3390 17.2186
" />
<path d="M34.3390 17.2186
L34.3994 17.3395
" />
<path d="M34.3994 17.3395
L34.3994 17.5210
" />
<path d="M34.3994 17.5210
L34.3390 17.6419
" />
<path d="M34.3390 17.6419
L34.2785 17.7024
" />
<path d="M34.2785 17.7024
L34.1575 17.7629
" />
<path d="M34.1575 17.7629
L33.6737 17.7629
" />
<path d="M31.2003 16.5292
L34.5144 16.5292
" />
</g></g>
<g style="fill:#A90000; fill-opacity:0.0; 
stroke:#A90000; stroke-width:0.1524; stroke-opacity:1; 
stroke-linecap:round; stroke-linejoin:round;">
<text x="28.7873" y="17.5261"
textLength="2.5460" font-size="1.6933" lengthAdjust="spacingAndGlyphs"
text-anchor="middle" opacity="0">12</text>
<g class="stroked-text"><desc>12</desc>
<path d="M28.5454 17.3706
L27.8197 17.3706
" />
<path d="M28.1825 17.3706
L28.1825 16.1006
" />
<path d="M28.1825 16.1006
L28.0616 16.2821
" />
<path d="M28.0616 16.2821
L27.9406 16.4030
" />
<path d="M27.9406 16.4030
L27.8197 16.4635
" />
<path d="M29.0292 16.2216
L29.0896 16.1611
" />
<path d="M29.0896 16.1611
L29.2106 16.1006
" />
<path d="M29.2106 16.1006
L29.5130 16.1006
" />
<path d="M29.5130 16.1006
L29.6339 16.1611
" />
<path d="M29.6339 16.1611
L29.6944 16.2216
" />
<path d="M29.6944 16.2216
L29.7549 16.3425
" />
<path d="M29.7549 16.3425
L29.7549 16.4635
" />
<path d="M29.7549 16.4635
L29.6944 16.6449
" />
<path d="M29.6944 16.6449
L28.9687 17.3706
" />
<path d="M28.9687 17.3706
L29.7549 17.3706
" />
</g></g>
<g style="fill:#840000; fill-opacity:0.0; 
stroke:#840000; stroke-width:0.1524; stroke-opacity:1; 
stroke-linecap:round; stroke-linejoin:round;">
<path d="M40.2173 5.0801
L40.2173 2.5401
" />
</g>
<g style="fill:#006464; fill-opacity:0.0; 
stroke:#006464; stroke-width:0.1524; stroke-opacity:1; 
stroke-linecap:round; stroke-linejoin:round;">
<g transform="rotate(-90.000000 40.2173 6.0961)">
<text x="40.2173" y="6.7311"
textLength="5.6909" font-size="1.6933" lengthAdjust="spacingAndGlyphs"
text-anchor="end" opacity="0">VDDIO</text>
</g>
<g class="stroked-text"><desc>VDDIO</desc>
<path d="M39.5348 11.5390
L40.8048 11.1157
" />
<path d="M40.8048 11.1157
L39.5348 10.6923
" />
<path d="M40.8048 10.2690
L39.5348 10.2690
" />
<path d="M39.5348 10.2690
L39.5348 9.9666
" />
<path d="M39.5348 9.9666
L39.5953 9.7852
" />
<path d="M39.5953 9.7852
L39.7163 9.6642
" />
<path d="M39.7163 9.6642
L39.8372 9.6037
" />
<path d="M39.8372 9.6037
L40.0791 9.5433
" />
<path d="M40.0791 9.5433
L40.2605 9.5433
" />
<path d="M40.2605 9.5433
L40.5024 9.6037
" />
<path d="M40.5024 9.6037
L40.6234 9.6642
" />
<path d="M40.6234 9.6642
L40.7444 9.7852
" />
<path d="M40.7444 9.7852
L40.8048 9.9666
" />
<path d="M40.8048 9.9666
L40.8048 10.2690
" />
<path d="M40.8048 8.9990
L39.5348 8.9990
" />
<path d="M39.5348 8.9990
L39.5348 8.6966
" />
<path d="M39.5348 8.6966
L39.5953 8.5152
" />
<path d="M39.5953 8.5152
L39.7163 8.3942
" />
<path d="M39.7163 8.3942
L39.8372 8.3337
" />
<path d="M39.8372 8.3337
L40.0791 8.2733
" />
<path d="M40.0791 8.2733
L40.2605 8.2733
" />
<path d="M40.2605 8.2733
L40.5024 8.3337
" />
<path d="M40.5024 8.3337
L40.6234 8.3942
" />
<path d="M40.6234 8.3942
L40.7444 8.5152
" />
<path d="M40.7444 8.5152
L40.8048 8.6966
" />
<path d="M40.8048 8.6966
L40.8048 8.9990
" />
<path d="M40.8048 7.7290
L39.5348 7.7290
" />
<path d="M39.5348 6.8823
L39.5348 6.6404
" />
<path d="M39.5348 6.6404
L39.5953 6.5194
" />
<path d="M39.5953 6.5194
L39.7163 6.3985
" />
<path d="M39.7163 6.3985
L39.9582 6.3380
" />
<path d="M39.9582 6.3380
L40.3815 6.3380
" />
<path d="M40.3815 6.3380
L40.6234 6.3985
" />
<path d="M40.6234 6.3985
L40.7444 6.5194
" />
<path d="M40.7444 6.5194
L40.8048 6.6404
" />
<path d="M40.8048 6.6404
L40.8048 6.8823
" />
<path d="M40.8048 6.8823
L40.7444 7.0032
" />
<path d="M40.7444 7.0032
L40.6234 7.1242
" />
<path d="M40.6234 7.1242
L40.3815 7.1846
" />
<path d="M40.3815 7.1846
L39.9582 7.1846
" />
<path d="M39.9582 7.1846
L39.7163 7.1242
" />
<path d="M39.7163 7.1242
L39.5953 7.0032
" />
<path d="M39.5953 7.0032
L39.5348 6.8823
" />
</g></g>
<g style="fill:#A90000; fill-opacity:0.0; 
stroke:#A90000; stroke-width:0.1524; stroke-opacity:1; 
stroke-linecap:round; stroke-linejoin:round;">
<g transform="rotate(-90.000000 39.9633 3.8101)">
<text x="39.9633" y="3.8101"
textLength="2.5460" font-size="1.6933" lengthAdjust="spacingAndGlyphs"
text-anchor="middle" opacity="0">13</text>
</g>
<g class="stroked-text"><desc>13</desc>
<path d="M39.8078 4.0519
L39.8078 4.7776
" />
<path d="M39.8078 4.4148
L38.5378 4.4148
" />
<path d="M38.5378 4.4148
L38.7193 4.5357
" />
<path d="M38.7193 4.5357
L38.8402 4.6567
" />
<path d="M38.8402 4.6567
L38.9007 4.7776
" />
<path d="M38.5378 3.6286
L38.5378 2.8424
" />
<path d="M38.5378 2.8424
L39.0216 3.2658
" />
<path d="M39.0216 3.2658
L39.0216 3.0843
" />
<path d="M39.0216 3.0843
L39.0821 2.9634
" />
<path d="M39.0821 2.9634
L39.1426 2.9029
" />
<path d="M39.1426 2.9029
L39.2635 2.8424
" />
<path d="M39.2635 2.8424
L39.5659 2.8424
" />
<path d="M39.5659 2.8424
L39.6869 2.9029
" />
<path d="M39.6869 2.9029
L39.7474 2.9634
" />
<path d="M39.7474 2.9634
L39.8078 3.0843
" />
<path d="M39.8078 3.0843
L39.8078 3.4472
" />
<path d="M39.8078 3.4472
L39.7474 3.5681
" />
<path d="M39.7474 3.5681
L39.6869 3.6286
" />
</g></g>
<g style="fill:#840000; fill-opacity:0.0; 
stroke:#840000; stroke-width:0.1524; stroke-opacity:1; 
stroke-linecap:round; stroke-linejoin:round;">
<path d="M30.0573 15.2401
L27.5173 15.2401
" />
</g>
<g style="fill:#006464; fill-opacity:0.0; 
stroke:#006464; stroke-width:0.1524; stroke-opacity:1; 
stroke-linecap:round; stroke-linejoin:round;">
<text x="31.0733" y="15.8751"
textLength="4.7837" font-size="1.6933" lengthAdjust="spacingAndGlyphs"
text-anchor="start" opacity="0">~{LDAC}</text>
<g class="stroked-text"><desc>~{LDAC}</desc>
<path d="M31.9804 15.8276
L31.3756 15.8276
" />
<path d="M31.3756 15.8276
L31.3756 14.5576
" />
<path d="M32.4037 15.8276
L32.4037 14.5576
" />
<path d="M32.4037 14.5576
L32.7061 14.5576
" />
<path d="M32.7061 14.5576
L32.8875 14.6181
" />
<path d="M32.8875 14.6181
L33.0085 14.7391
" />
<path d="M33.0085 14.7391
L33.0690 14.8600
" />
<path d="M33.0690 14.8600
L33.1294 15.1019
" />
<path d="M33.1294 15.1019
L33.1294 15.2833
" />
<path d="M33.1294 15.2833
L33.0690 15.5252
" />
<path d="M33.0690 15.5252
L33.0085 15.6462
" />
<path d="M33.0085 15.6462
L32.8875 15.7672
" />
<path d="M32.8875 15.7672
L32.7061 15.8276
" />
<path d="M32.7061 15.8276
L32.4037 15.8276
" />
<path d="M33.6133 15.4648
L34.2180 15.4648
" />
<path d="M33.4923 15.8276
L33.9156 14.5576
" />
<path d="M33.9156 14.5576
L34.3390 15.8276
" />
<path d="M35.4880 15.7067
L35.4276 15.7672
" />
<path d="M35.4276 15.7672
L35.2461 15.8276
" />
<path d="M35.2461 15.8276
L35.1252 15.8276
" />
<path d="M35.1252 15.8276
L34.9438 15.7672
" />
<path d="M34.9438 15.7672
L34.8228 15.6462
" />
<path d="M34.8228 15.6462
L34.7623 15.5252
" />
<path d="M34.7623 15.5252
L34.7019 15.2833
" />
<path d="M34.7019 15.2833
L34.7019 15.1019
" />
<path d="M34.7019 15.1019
L34.7623 14.8600
" />
<path d="M34.7623 14.8600
L34.8228 14.7391
" />
<path d="M34.8228 14.7391
L34.9438 14.6181
" />
<path d="M34.9438 14.6181
L35.1252 14.5576
" />
<path d="M35.1252 14.5576
L35.2461 14.5576
" />
<path d="M35.2461 14.5576
L35.4276 14.6181
" />
<path d="M35.4276 14.6181
L35.4880 14.6786
" />
<path d="M31.2003 13.9892
L35.6030 13.9892
" />
</g></g>
<g style="fill:#A90000; fill-opacity:0.0; 
stroke:#A90000; stroke-width:0.1524; stroke-opacity:1; 
stroke-linecap:round; stroke-linejoin:round;">
<text x="28.7873" y="14.9861"
textLength="2.5460" font-size="1.6933" lengthAdjust="spacingAndGlyphs"
text-anchor="middle" opacity="0">14</text>
<g class="stroked-text"><desc>14</desc>
<path d="M28.5454 14.8306
L27.8197 14.8306
" />
<path d="M28.1825 14.8306
L28.1825 13.5606
" />
<path d="M28.1825 13.5606
L28.0616 13.7421
" />
<path d="M28.0616 13.7421
L27.9406 13.8630
" />
<path d="M27.9406 13.8630
L27.8197 13.9235
" />
<path d="M29.6339 13.9840
L29.6339 14.8306
" />
<path d="M29.3315 13.5002
L29.0292 14.4073
" />
<path d="M29.0292 14.4073
L29.8153 14.4073
" />
</g></g>
<g style="fill:#840000; fill-opacity:0.0; 
stroke:#840000; stroke-width:0.1524; stroke-opacity:1; 
stroke-linecap:round; stroke-linejoin:round;">
<path d="M50.3773 12.7001
L52.9173 12.7001
" />
</g>
<g style="fill:#006464; fill-opacity:0.0; 
stroke:#006464; stroke-width:0.1524; stroke-opacity:1; 
stroke-linecap:round; stroke-linejoin:round;">
<text x="49.3613" y="13.3351"
textLength="4.8442" font-size="1.6933" lengthAdjust="spacingAndGlyphs"
text-anchor="end" opacity="0">OUTA</text>
<g class="stroked-text"><desc>OUTA</desc>
<path d="M45.1883 12.0176
L45.4302 12.0176
" />
<path d="M45.4302 12.0176
L45.5512 12.0781
" />
<path d="M45.5512 12.0781
L45.6721 12.1991
" />
<path d="M45.6721 12.1991
L45.7326 12.4410
" />
<path d="M45.7326 12.4410
L45.7326 12.8643
" />
<path d="M45.7326 12.8643
L45.6721 13.1062
" />
<path d="M45.6721 13.1062
L45.5512 13.2272
" />
<path d="M45.5512 13.2272
L45.4302 13.2876
" />
<path d="M45.4302 13.2876
L45.1883 13.2876
" />
<path d="M45.1883 13.2876
L45.0674 13.2272
" />
<path d="M45.0674 13.2272
L44.9464 13.1062
" />
<path d="M44.9464 13.1062
L44.8860 12.8643
" />
<path d="M44.8860 12.8643
L44.8860 12.4410
" />
<path d="M44.8860 12.4410
L44.9464 12.1991
" />
<path d="M44.9464 12.1991
L45.0674 12.0781
" />
<path d="M45.0674 12.0781
L45.1883 12.0176
" />
<path d="M46.2769 12.0176
L46.2769 13.0457
" />
<path d="M46.2769 13.0457
L46.3374 13.1667
" />
<path d="M46.3374 13.1667
L46.3979 13.2272
" />
<path d="M46.3979 13.2272
L46.5188 13.2876
" />
<path d="M46.5188 13.2876
L46.7607 13.2876
" />
<path d="M46.7607 13.2876
L46.8817 13.2272
" />
<path d="M46.8817 13.2272
L46.9422 13.1667
" />
<path d="M46.9422 13.1667
L47.0026 13.0457
" />
<path d="M47.0026 13.0457
L47.0026 12.0176
" />
<path d="M47.4260 12.0176
L48.1517 12.0176
" />
<path d="M47.7889 13.2876
L47.7889 12.0176
" />
<path d="M48.5146 12.9248
L49.1193 12.9248
" />
<path d="M48.3936 13.2876
L48.8169 12.0176
" />
<path d="M48.8169 12.0176
L49.2403 13.2876
" />
</g></g>
<g style="fill:#A90000; fill-opacity:0.0; 
stroke:#A90000; stroke-width:0.1524; stroke-opacity:1; 
stroke-linecap:round; stroke-linejoin:round;">
<text x="51.6473" y="12.4461"
textLength="1.3365" font-size="1.6933" lengthAdjust="spacingAndGlyphs"
text-anchor="middle" opacity="0">2</text>
<g class="stroked-text"><desc>2</desc>
<path d="M51.2845 11.1416
L51.3449 11.0811
" />
<path d="M51.3449 11.0811
L51.4659 11.0206
" />
<path d="M51.4659 11.0206
L51.7683 11.0206
" />
<path d="M51.7683 11.0206
L51.8892 11.0811
" />
<path d="M51.8892 11.0811
L51.9497 11.1416
" />
<path d="M51.9497 11.1416
L52.0102 11.2625
" />
<path d="M52.0102 11.2625
L52.0102 11.3835
" />
<path d="M52.0102 11.3835
L51.9497 11.5649
" />
<path d="M51.9497 11.5649
L51.2240 12.2906
" />
<path d="M51.2240 12.2906
L52.0102 12.2906
" />
</g></g>
<g style="fill:#840000; fill-opacity:0.0; 
stroke:#840000; stroke-width:0.1524; stroke-opacity:1; 
stroke-linecap:round; stroke-linejoin:round;">
<path d="M50.3773 15.2401
L52.9173 15.2401
" />
</g>
<g style="fill:#006464; fill-opacity:0.0; 
stroke:#006464; stroke-width:0.1524; stroke-opacity:1; 
stroke-linecap:round; stroke-linejoin:round;">
<text x="49.3613" y="15.8751"
textLength="5.0256" font-size="1.6933" lengthAdjust="spacingAndGlyphs"
text-anchor="end" opacity="0">OUTB</text>
<g class="stroked-text"><desc>OUTB</desc>
<path d="M45.0069 14.5576
L45.2488 14.5576
" />
<path d="M45.2488 14.5576
L45.3698 14.6181
" />
<path d="M45.3698 14.6181
L45.4907 14.7391
" />
<path d="M45.4907 14.7391
L45.5512 14.9810
" />
<path d="M45.5512 14.9810
L45.5512 15.4043
" />
<path d="M45.5512 15.4043
L45.4907 15.6462
" />
<path d="M45.4907 15.6462
L45.3698 15.7672
" />
<path d="M45.3698 15.7672
L45.2488 15.8276
" />
<path d="M45.2488 15.8276
L45.0069 15.8276
" />
<path d="M45.0069 15.8276
L44.8860 15.7672
" />
<path d="M44.8860 15.7672
L44.7650 15.6462
" />
<path d="M44.7650 15.6462
L44.7046 15.4043
" />
<path d="M44.7046 15.4043
L44.7046 14.9810
" />
<path d="M44.7046 14.9810
L44.7650 14.7391
" />
<path d="M44.7650 14.7391
L44.8860 14.6181
" />
<path d="M44.8860 14.6181
L45.0069 14.5576
" />
<path d="M46.0955 14.5576
L46.0955 15.5857
" />
<path d="M46.0955 15.5857
L46.1560 15.7067
" />
<path d="M46.1560 15.7067
L46.2165 15.7672
" />
<path d="M46.2165 15.7672
L46.3374 15.8276
" />
<path d="M46.3374 15.8276
L46.5793 15.8276
" />
<path d="M46.5793 15.8276
L46.7003 15.7672
" />
<path d="M46.7003 15.7672
L46.7608 15.7067
" />
<path d="M46.7608 15.7067
L46.8212 15.5857
" />
<path d="M46.8212 15.5857
L46.8212 14.5576
" />
<path d="M47.2446 14.5576
L47.9703 14.5576
" />
<path d="M47.6075 15.8276
L47.6075 14.5576
" />
<path d="M48.8170 15.1624
L48.9984 15.2229
" />
<path d="M48.9984 15.2229
L49.0589 15.2833
" />
<path d="M49.0589 15.2833
L49.1193 15.4043
" />
<path d="M49.1193 15.4043
L49.1193 15.5857
" />
<path d="M49.1193 15.5857
L49.0589 15.7067
" />
<path d="M49.0589 15.7067
L48.9984 15.7672
" />
<path d="M48.9984 15.7672
L48.8774 15.8276
" />
<path d="M48.8774 15.8276
L48.3936 15.8276
" />
<path d="M48.3936 15.8276
L48.3936 14.5576
" />
<path d="M48.3936 14.5576
L48.8170 14.5576
" />
<path d="M48.8170 14.5576
L48.9379 14.6181
" />
<path d="M48.9379 14.6181
L48.9984 14.6786
" />
<path d="M48.9984 14.6786
L49.0589 14.7995
" />
<path d="M49.0589 14.7995
L49.0589 14.9205
" />
<path d="M49.0589 14.9205
L48.9984 15.0414
" />
<path d="M48.9984 15.0414
L48.9379 15.1019
" />
<path d="M48.9379 15.1019
L48.8170 15.1624
" />
<path d="M48.8170 15.1624
L48.3936 15.1624
" />
</g></g>
<g style="fill:#A90000; fill-opacity:0.0; 
stroke:#A90000; stroke-width:0.1524; stroke-opacity:1; 
stroke-linecap:round; stroke-linejoin:round;">
<text x="51.6473" y="14.9861"
textLength="1.3365" font-size="1.6933" lengthAdjust="spacingAndGlyphs"
text-anchor="middle" opacity="0">3</text>
<g class="stroked-text"><desc>3</desc>
<path d="M51.2240 13.5606
L52.0102 13.5606
" />
<path d="M52.0102 13.5606
L51.5868 14.0444
" />
<path d="M51.5868 14.0444
L51.7683 14.0444
" />
<path d="M51.7683 14.0444
L51.8892 14.1049
" />
<path d="M51.8892 14.1049
L51.9497 14.1654
" />
<path d="M51.9497 14.1654
L52.0102 14.2863
" />
<path d="M52.0102 14.2863
L52.0102 14.5887
" />
<path d="M52.0102 14.5887
L51.9497 14.7097
" />
<path d="M51.9497 14.7097
L51.8892 14.7702
" />
<path d="M51.8892 14.7702
L51.7683 14.8306
" />
<path d="M51.7683 14.8306
L51.4054 14.8306
" />
<path d="M51.4054 14.8306
L51.2845 14.7702
" />
<path d="M51.2845 14.7702
L51.2240 14.7097
" />
</g></g>
<g style="fill:#840000; fill-opacity:0.0; 
stroke:#840000; stroke-width:0.1524; stroke-opacity:1; 
stroke-linecap:round; stroke-linejoin:round;">
<path d="M40.2173 25.4001
L40.2173 27.9401
" />
</g>
<g style="fill:#006464; fill-opacity:0.0; 
stroke:#006464; stroke-width:0.1524; stroke-opacity:1; 
stroke-linecap:round; stroke-linejoin:round;">
<g transform="rotate(-90.000000 40.2173 24.3841)">
<text x="40.2173" y="25.0191"
textLength="3.9975" font-size="1.6933" lengthAdjust="spacingAndGlyphs"
text-anchor="start" opacity="0">GND</text>
</g>
<g class="stroked-text"><desc>GND</desc>
<path d="M39.5953 23.4164
L39.5348 23.5374
" />
<path d="M39.5348 23.5374
L39.5348 23.7188
" />
<path d="M39.5348 23.7188
L39.5953 23.9002
" />
<path d="M39.5953 23.9002
L39.7163 24.0212
" />
<path d="M39.7163 24.0212
L39.8372 24.0817
" />
<path d="M39.8372 24.0817
L40.0791 24.1421
" />
<path d="M40.0791 24.1421
L40.2605 24.1421
" />
<path d="M40.2605 24.1421
L40.5024 24.0817
" />
<path d="M40.5024 24.0817
L40.6234 24.0212
" />
<path d="M40.6234 24.0212
L40.7444 23.9002
" />
<path d="M40.7444 23.9002
L40.8048 23.7188
" />
<path d="M40.8048 23.7188
L40.8048 23.5979
" />
<path d="M40.8048 23.5979
L40.7444 23.4164
" />
<path d="M40.7444 23.4164
L40.6839 23.3560
" />
<path d="M40.6839 23.3560
L40.2605 23.3560
" />
<path d="M40.2605 23.3560
L40.2605 23.5979
" />
<path d="M40.8048 22.8117
L39.5348 22.8117
" />
<path d="M39.5348 22.8117
L40.8048 22.0860
" />
<path d="M40.8048 22.0860
L39.5348 22.0860
" />
<path d="M40.8048 21.4812
L39.5348 21.4812
" />
<path d="M39.5348 21.4812
L39.5348 21.1788
" />
<path d="M39.5348 21.1788
L39.5953 20.9974
" />
<path d="M39.5953 20.9974
L39.7163 20.8764
" />
<path d="M39.7163 20.8764
L39.8372 20.8159
" />
<path d="M39.8372 20.8159
L40.0791 20.7555
" />
<path d="M40.0791 20.7555
L40.2605 20.7555
" />
<path d="M40.2605 20.7555
L40.5024 20.8159
" />
<path d="M40.5024 20.8159
L40.6234 20.8764
" />
<path d="M40.6234 20.8764
L40.7444 20.9974
" />
<path d="M40.7444 20.9974
L40.8048 21.1788
" />
<path d="M40.8048 21.1788
L40.8048 21.4812
" />
</g></g>
<g style="fill:#A90000; fill-opacity:0.0; 
stroke:#A90000; stroke-width:0.1524; stroke-opacity:1; 
stroke-linecap:round; stroke-linejoin:round;">
<g transform="rotate(-90.000000 39.9633 26.6701)">
<text x="39.9633" y="26.6701"
textLength="1.3365" font-size="1.6933" lengthAdjust="spacingAndGlyphs"
text-anchor="middle" opacity="0">4</text>
</g>
<g class="stroked-text"><desc>4</desc>
<path d="M38.9612 26.4281
L39.8078 26.4281
" />
<path d="M38.4774 26.7305
L39.3845 27.0328
" />
<path d="M39.3845 27.0328
L39.3845 26.2467
" />
</g></g>
<g style="fill:#840000; fill-opacity:0.0; 
stroke:#840000; stroke-width:0.1524; stroke-opacity:1; 
stroke-linecap:round; stroke-linejoin:round;">
<path d="M50.3773 17.7801
L52.9173 17.7801
" />
</g>
<g style="fill:#006464; fill-opacity:0.0; 
stroke:#006464; stroke-width:0.1524; stroke-opacity:1; 
stroke-linecap:round; stroke-linejoin:round;">
<text x="49.3613" y="18.4151"
textLength="5.0256" font-size="1.6933" lengthAdjust="spacingAndGlyphs"
text-anchor="end" opacity="0">OUTC</text>
<g class="stroked-text"><desc>OUTC</desc>
<path d="M45.0069 17.0976
L45.2488 17.0976
" />
<path d="M45.2488 17.0976
L45.3698 17.1581
" />
<path d="M45.3698 17.1581
L45.4907 17.2791
" />
<path d="M45.4907 17.2791
L45.5512 17.5210
" />
<path d="M45.5512 17.5210
L45.5512 17.9443
" />
<path d="M45.5512 17.9443
L45.4907 18.1862
" />
<path d="M45.4907 18.1862
L45.3698 18.3072
" />
<path d="M45.3698 18.3072
L45.2488 18.3676
" />
<path d="M45.2488 18.3676
L45.0069 18.3676
" />
<path d="M45.0069 18.3676
L44.8860 18.3072
" />
<path d="M44.8860 18.3072
L44.7650 18.1862
" />
<path d="M44.7650 18.1862
L44.7046 17.9443
" />
<path d="M44.7046 17.9443
L44.7046 17.5210
" />
<path d="M44.7046 17.5210
L44.7650 17.2791
" />
<path d="M44.7650 17.2791
L44.8860 17.1581
" />
<path d="M44.8860 17.1581
L45.0069 17.0976
" />
<path d="M46.0955 17.0976
L46.0955 18.1257
" />
<path d="M46.0955 18.1257
L46.1560 18.2467
" />
<path d="M46.1560 18.2467
L46.2165 18.3072
" />
<path d="M46.2165 18.3072
L46.3374 18.3676
" />
<path d="M46.3374 18.3676
L46.5793 18.3676
" />
<path d="M46.5793 18.3676
L46.7003 18.3072
" />
<path d="M46.7003 18.3072
L46.7608 18.2467
" />
<path d="M46.7608 18.2467
L46.8212 18.1257
" />
<path d="M46.8212 18.1257
L46.8212 17.0976
" />
<path d="M47.2446 17.0976
L47.9703 17.0976
" />
<path d="M47.6075 18.3676
L47.6075 17.0976
" />
<path d="M49.1193 18.2467
L49.0589 18.3072
" />
<path d="M49.0589 18.3072
L48.8774 18.3676
" />
<path d="M48.8774 18.3676
L48.7565 18.3676
" />
<path d="M48.7565 18.3676
L48.5751 18.3072
" />
<path d="M48.5751 18.3072
L48.4541 18.1862
" />
<path d="M48.4541 18.1862
L48.3936 18.0652
" />
<path d="M48.3936 18.0652
L48.3332 17.8233
" />
<path d="M48.3332 17.8233
L48.3332 17.6419
" />
<path d="M48.3332 17.6419
L48.3936 17.4000
" />
<path d="M48.3936 17.4000
L48.4541 17.2791
" />
<path d="M48.4541 17.2791
L48.5751 17.1581
" />
<path d="M48.5751 17.1581
L48.7565 17.0976
" />
<path d="M48.7565 17.0976
L48.8774 17.0976
" />
<path d="M48.8774 17.0976
L49.0589 17.1581
" />
<path d="M49.0589 17.1581
L49.1193 17.2186
" />
</g></g>
<g style="fill:#A90000; fill-opacity:0.0; 
stroke:#A90000; stroke-width:0.1524; stroke-opacity:1; 
stroke-linecap:round; stroke-linejoin:round;">
<text x="51.6473" y="17.5261"
textLength="1.3365" font-size="1.6933" lengthAdjust="spacingAndGlyphs"
text-anchor="middle" opacity="0">5</text>
<g class="stroked-text"><desc>5</desc>
<path d="M51.9497 16.1006
L51.3449 16.1006
" />
<path d="M51.3449 16.1006
L51.2845 16.7054
" />
<path d="M51.2845 16.7054
L51.3449 16.6449
" />
<path d="M51.3449 16.6449
L51.4659 16.5844
" />
<path d="M51.4659 16.5844
L51.7683 16.5844
" />
<path d="M51.7683 16.5844
L51.8892 16.6449
" />
<path d="M51.8892 16.6449
L51.9497 16.7054
" />
<path d="M51.9497 16.7054
L52.0102 16.8263
" />
<path d="M52.0102 16.8263
L52.0102 17.1287
" />
<path d="M52.0102 17.1287
L51.9497 17.2497
" />
<path d="M51.9497 17.2497
L51.8892 17.3102
" />
<path d="M51.8892 17.3102
L51.7683 17.3706
" />
<path d="M51.7683 17.3706
L51.4659 17.3706
" />
<path d="M51.4659 17.3706
L51.3449 17.3102
" />
<path d="M51.3449 17.3102
L51.2845 17.2497
" />
</g></g>
<g style="fill:#840000; fill-opacity:0.0; 
stroke:#840000; stroke-width:0.1524; stroke-opacity:1; 
stroke-linecap:round; stroke-linejoin:round;">
<path d="M50.3773 20.3201
L52.9173 20.3201
" />
</g>
<g style="fill:#006464; fill-opacity:0.0; 
stroke:#006464; stroke-width:0.1524; stroke-opacity:1; 
stroke-linecap:round; stroke-linejoin:round;">
<text x="49.3613" y="20.9551"
textLength="5.0256" font-size="1.6933" lengthAdjust="spacingAndGlyphs"
text-anchor="end" opacity="0">OUTD</text>
<g class="stroked-text"><desc>OUTD</desc>
<path d="M45.0069 19.6376
L45.2488 19.6376
" />
<path d="M45.2488 19.6376
L45.3698 19.6981
" />
<path d="M45.3698 19.6981
L45.4907 19.8191
" />
<path d="M45.4907 19.8191
L45.5512 20.0610
" />
<path d="M45.5512 20.0610
L45.5512 20.4843
" />
<path d="M45.5512 20.4843
L45.4907 20.7262
" />
<path d="M45.4907 20.7262
L45.3698 20.8472
" />
<path d="M45.3698 20.8472
L45.2488 20.9076
" />
<path d="M45.2488 20.9076
L45.0069 20.9076
" />
<path d="M45.0069 20.9076
L44.8860 20.8472
" />
<path d="M44.8860 20.8472
L44.7650 20.7262
" />
<path d="M44.7650 20.7262
L44.7046 20.4843
" />
<path d="M44.7046 20.4843
L44.7046 20.0610
" />
<path d="M44.7046 20.0610
L44.7650 19.8191
" />
<path d="M44.7650 19.8191
L44.8860 19.6981
" />
<path d="M44.8860 19.6981
L45.0069 19.6376
" />
<path d="M46.0955 19.6376
L46.0955 20.6657
" />
<path d="M46.0955 20.6657
L46.1560 20.7867
" />
<path d="M46.1560 20.7867
L46.2165 20.8472
" />
<path d="M46.2165 20.8472
L46.3374 20.9076
" />
<path d="M46.3374 20.9076
L46.5793 20.9076
" />
<path d="M46.5793 20.9076
L46.7003 20.8472
" />
<path d="M46.7003 20.8472
L46.7608 20.7867
" />
<path d="M46.7608 20.7867
L46.8212 20.6657
" />
<path d="M46.8212 20.6657
L46.8212 19.6376
" />
<path d="M47.2446 19.6376
L47.9703 19.6376
" />
<path d="M47.6075 20.9076
L47.6075 19.6376
" />
<path d="M48.3936 20.9076
L48.3936 19.6376
" />
<path d="M48.3936 19.6376
L48.6960 19.6376
" />
<path d="M48.6960 19.6376
L48.8774 19.6981
" />
<path d="M48.8774 19.6981
L48.9984 19.8191
" />
<path d="M48.9984 19.8191
L49.0589 19.9400
" />
<path d="M49.0589 19.9400
L49.1193 20.1819
" />
<path d="M49.1193 20.1819
L49.1193 20.3633
" />
<path d="M49.1193 20.3633
L49.0589 20.6052
" />
<path d="M49.0589 20.6052
L48.9984 20.7262
" />
<path d="M48.9984 20.7262
L48.8774 20.8472
" />
<path d="M48.8774 20.8472
L48.6960 20.9076
" />
<path d="M48.6960 20.9076
L48.3936 20.9076
" />
</g></g>
<g style="fill:#A90000; fill-opacity:0.0; 
stroke:#A90000; stroke-width:0.1524; stroke-opacity:1; 
stroke-linecap:round; stroke-linejoin:round;">
<text x="51.6473" y="20.0661"
textLength="1.3365" font-size="1.6933" lengthAdjust="spacingAndGlyphs"
text-anchor="middle" opacity="0">6</text>
<g class="stroked-text"><desc>6</desc>
<path d="M51.8892 18.6406
L51.6473 18.6406
" />
<path d="M51.6473 18.6406
L51.5264 18.7011
" />
<path d="M51.5264 18.7011
L51.4659 18.7616
" />
<path d="M51.4659 18.7616
L51.3449 18.9430
" />
<path d="M51.3449 18.9430
L51.2845 19.1849
" />
<path d="M51.2845 19.1849
L51.2845 19.6687
" />
<path d="M51.2845 19.6687
L51.3449 19.7897
" />
<path d="M51.3449 19.7897
L51.4054 19.8502
" />
<path d="M51.4054 19.8502
L51.5264 19.9106
" />
<path d="M51.5264 19.9106
L51.7683 19.9106
" />
<path d="M51.7683 19.9106
L51.8892 19.8502
" />
<path d="M51.8892 19.8502
L51.9497 19.7897
" />
<path d="M51.9497 19.7897
L52.0102 19.6687
" />
<path d="M52.0102 19.6687
L52.0102 19.3663
" />
<path d="M52.0102 19.3663
L51.9497 19.2454
" />
<path d="M51.9497 19.2454
L51.8892 19.1849
" />
<path d="M51.8892 19.1849
L51.7683 19.1244
" />
<path d="M51.7683 19.1244
L51.5264 19.1244
" />
<path d="M51.5264 19.1244
L51.4054 19.1849
" />
<path d="M51.4054 19.1849
L51.3449 19.2454
" />
<path d="M51.3449 19.2454
L51.2845 19.3663
" />
</g></g>
<g style="fill:#840000; fill-opacity:0.0; 
stroke:#840000; stroke-width:0.1524; stroke-opacity:1; 
stroke-linecap:round; stroke-linejoin:round;">
<path d="M37.6773 5.0801
L37.6773 2.5401
" />
</g>
<g style="fill:#006464; fill-opacity:0.0; 
stroke:#006464; stroke-width:0.1524; stroke-opacity:1; 
stroke-linecap:round; stroke-linejoin:round;">
<g transform="rotate(-90.000000 37.6773 6.0961)">
<text x="37.6773" y="6.7311"
textLength="3.7556" font-size="1.6933" lengthAdjust="spacingAndGlyphs"
text-anchor="end" opacity="0">VDD</text>
</g>
<g class="stroked-text"><desc>VDD</desc>
<path d="M36.9948 9.6037
L38.2648 9.1804
" />
<path d="M38.2648 9.1804
L36.9948 8.7570
" />
<path d="M38.2648 8.3337
L36.9948 8.3337
" />
<path d="M36.9948 8.3337
L36.9948 8.0313
" />
<path d="M36.9948 8.0313
L37.0553 7.8499
" />
<path d="M37.0553 7.8499
L37.1763 7.7289
" />
<path d="M37.1763 7.7289
L37.2972 7.6684
" />
<path d="M37.2972 7.6684
L37.5391 7.6080
" />
<path d="M37.5391 7.6080
L37.7205 7.6080
" />
<path d="M37.7205 7.6080
L37.9624 7.6684
" />
<path d="M37.9624 7.6684
L38.0834 7.7289
" />
<path d="M38.0834 7.7289
L38.2044 7.8499
" />
<path d="M38.2044 7.8499
L38.2648 8.0313
" />
<path d="M38.2648 8.0313
L38.2648 8.3337
" />
<path d="M38.2648 7.0637
L36.9948 7.0637
" />
<path d="M36.9948 7.0637
L36.9948 6.7613
" />
<path d="M36.9948 6.7613
L37.0553 6.5799
" />
<path d="M37.0553 6.5799
L37.1763 6.4589
" />
<path d="M37.1763 6.4589
L37.2972 6.3984
" />
<path d="M37.2972 6.3984
L37.5391 6.3380
" />
<path d="M37.5391 6.3380
L37.7205 6.3380
" />
<path d="M37.7205 6.3380
L37.9624 6.3984
" />
<path d="M37.9624 6.3984
L38.0834 6.4589
" />
<path d="M38.0834 6.4589
L38.2044 6.5799
" />
<path d="M38.2044 6.5799
L38.2648 6.7613
" />
<path d="M38.2648 6.7613
L38.2648 7.0637
" />
</g></g>
<g style="fill:#A90000; fill-opacity:0.0; 
stroke:#A90000; stroke-width:0.1524; stroke-opacity:1; 
stroke-linecap:round; stroke-linejoin:round;">
<g transform="rotate(-90.000000 37.4233 3.8101)">
<text x="37.4233" y="3.8101"
textLength="1.3365" font-size="1.6933" lengthAdjust="spacingAndGlyphs"
text-anchor="middle" opacity="0">7</text>
</g>
<g class="stroked-text"><desc>7</desc>
<path d="M35.9978 4.2333
L35.9978 3.3867
" />
<path d="M35.9978 3.3867
L37.2678 3.9309
" />
</g></g>
<g style="fill:#840000; fill-opacity:0.0; 
stroke:#840000; stroke-width:0.1524; stroke-opacity:1; 
stroke-linecap:round; stroke-linejoin:round;">
<path d="M30.0573 22.8601
L27.5173 22.8601
" />
</g>
<g style="fill:#006464; fill-opacity:0.0; 
stroke:#006464; stroke-width:0.1524; stroke-opacity:1; 
stroke-linecap:round; stroke-linejoin:round;">
<text x="31.0733" y="23.4951"
textLength="6.2351" font-size="1.6933" lengthAdjust="spacingAndGlyphs"
text-anchor="start" opacity="0">ADDR1</text>
<g class="stroked-text"><desc>ADDR1</desc>
<path d="M31.3152 23.0848
L31.9199 23.0848
" />
<path d="M31.1942 23.4476
L31.6175 22.1776
" />
<path d="M31.6175 22.1776
L32.0409 23.4476
" />
<path d="M32.4642 23.4476
L32.4642 22.1776
" />
<path d="M32.4642 22.1776
L32.7666 22.1776
" />
<path d="M32.7666 22.1776
L32.9480 22.2381
" />
<path d="M32.9480 22.2381
L33.0690 22.3591
" />
<path d="M33.0690 22.3591
L33.1295 22.4800
" />
<path d="M33.1295 22.4800
L33.1899 22.7219
" />
<path d="M33.1899 22.7219
L33.1899 22.9033
" />
<path d="M33.1899 22.9033
L33.1295 23.1452
" />
<path d="M33.1295 23.1452
L33.0690 23.2662
" />
<path d="M33.0690 23.2662
L32.9480 23.3872
" />
<path d="M32.9480 23.3872
L32.7666 23.4476
" />
<path d="M32.7666 23.4476
L32.4642 23.4476
" />
<path d="M33.7342 23.4476
L33.7342 22.1776
" />
<path d="M33.7342 22.1776
L34.0366 22.1776
" />
<path d="M34.0366 22.1776
L34.2180 22.2381
" />
<path d="M34.2180 22.2381
L34.3390 22.3591
" />
<path d="M34.3390 22.3591
L34.3995 22.4800
" />
<path d="M34.3995 22.4800
L34.4599 22.7219
" />
<path d="M34.4599 22.7219
L34.4599 22.9033
" />
<path d="M34.4599 22.9033
L34.3995 23.1452
" />
<path d="M34.3995 23.1452
L34.3390 23.2662
" />
<path d="M34.3390 23.2662
L34.2180 23.3872
" />
<path d="M34.2180 23.3872
L34.0366 23.4476
" />
<path d="M34.0366 23.4476
L33.7342 23.4476
" />
<path d="M35.7299 23.4476
L35.3066 22.8429
" />
<path d="M35.0042 23.4476
L35.0042 22.1776
" />
<path d="M35.0042 22.1776
L35.4880 22.1776
" />
<path d="M35.4880 22.1776
L35.6090 22.2381
" />
<path d="M35.6090 22.2381
L35.6695 22.2986
" />
<path d="M35.6695 22.2986
L35.7299 22.4195
" />
<path d="M35.7299 22.4195
L35.7299 22.6010
" />
<path d="M35.7299 22.6010
L35.6695 22.7219
" />
<path d="M35.6695 22.7219
L35.6090 22.7824
" />
<path d="M35.6090 22.7824
L35.4880 22.8429
" />
<path d="M35.4880 22.8429
L35.0042 22.8429
" />
<path d="M36.9395 23.4476
L36.2138 23.4476
" />
<path d="M36.5766 23.4476
L36.5766 22.1776
" />
<path d="M36.5766 22.1776
L36.4557 22.3591
" />
<path d="M36.4557 22.3591
L36.3347 22.4800
" />
<path d="M36.3347 22.4800
L36.2138 22.5405
" />
</g></g>
<g style="fill:#A90000; fill-opacity:0.0; 
stroke:#A90000; stroke-width:0.1524; stroke-opacity:1; 
stroke-linecap:round; stroke-linejoin:round;">
<text x="28.7873" y="22.6061"
textLength="1.3365" font-size="1.6933" lengthAdjust="spacingAndGlyphs"
text-anchor="middle" opacity="0">8</text>
<g class="stroked-text"><desc>8</desc>
<path d="M28.6664 21.7249
L28.5454 21.6644
" />
<path d="M28.5454 21.6644
L28.4849 21.6040
" />
<path d="M28.4849 21.6040
L28.4245 21.4830
" />
<path d="M28.4245 21.4830
L28.4245 21.4225
" />
<path d="M28.4245 21.4225
L28.4849 21.3016
" />
<path d="M28.4849 21.3016
L28.5454 21.2411
" />
<path d="M28.5454 21.2411
L28.6664 21.1806
" />
<path d="M28.6664 21.1806
L28.9083 21.1806
" />
<path d="M28.9083 21.1806
L29.0292 21.2411
" />
<path d="M29.0292 21.2411
L29.0897 21.3016
" />
<path d="M29.0897 21.3016
L29.1502 21.4225
" />
<path d="M29.1502 21.4225
L29.1502 21.4830
" />
<path d="M29.1502 21.4830
L29.0897 21.6040
" />
<path d="M29.0897 21.6040
L29.0292 21.6644
" />
<path d="M29.0292 21.6644
L28.9083 21.7249
" />
<path d="M28.9083 21.7249
L28.6664 21.7249
" />
<path d="M28.6664 21.7249
L28.5454 21.7854
" />
<path d="M28.5454 21.7854
L28.4849 21.8459
" />
<path d="M28.4849 21.8459
L28.4245 21.9668
" />
<path d="M28.4245 21.9668
L28.4245 22.2087
" />
<path d="M28.4245 22.2087
L28.4849 22.3297
" />
<path d="M28.4849 22.3297
L28.5454 22.3902
" />
<path d="M28.5454 22.3902
L28.6664 22.4506
" />
<path d="M28.6664 22.4506
L28.9083 22.4506
" />
<path d="M28.9083 22.4506
L29.0292 22.3902
" />
<path d="M29.0292 22.3902
L29.0897 22.3297
" />
<path d="M29.0897 22.3297
L29.1502 22.2087
" />
<path d="M29.1502 22.2087
L29.1502 21.9668
" />
<path d="M29.1502 21.9668
L29.0897 21.8459
" />
<path d="M29.0897 21.8459
L29.0292 21.7854
" />
<path d="M29.0292 21.7854
L28.9083 21.7249
" />
</g></g>
<g style="fill:#840000; fill-opacity:0.0; 
stroke:#840000; stroke-width:0.1524; stroke-opacity:1; 
stroke-linecap:round; stroke-linejoin:round;">
<path d="M30.0573 20.3201
L27.5173 20.3201
" />
</g>
<g style="fill:#006464; fill-opacity:0.0; 
stroke:#006464; stroke-width:0.1524; stroke-opacity:1; 
stroke-linecap:round; stroke-linejoin:round;">
<text x="31.0733" y="20.9551"
textLength="6.2351" font-size="1.6933" lengthAdjust="spacingAndGlyphs"
text-anchor="start" opacity="0">ADDR0</text>
<g class="stroked-text"><desc>ADDR0</desc>
<path d="M31.3152 20.5448
L31.9199 20.5448
" />
<path d="M31.1942 20.9076
L31.6175 19.6376
" />
<path d="M31.6175 19.6376
L32.0409 20.9076
" />
<path d="M32.4642 20.9076
L32.4642 19.6376
" />
<path d="M32.4642 19.6376
L32.7666 19.6376
" />
<path d="M32.7666 19.6376
L32.9480 19.6981
" />
<path d="M32.9480 19.6981
L33.0690 19.8191
" />
<path d="M33.0690 19.8191
L33.1295 19.9400
" />
<path d="M33.1295 19.9400
L33.1899 20.1819
" />
<path d="M33.1899 20.1819
L33.1899 20.3633
" />
<path d="M33.1899 20.3633
L33.1295 20.6052
" />
<path d="M33.1295 20.6052
L33.0690 20.7262
" />
<path d="M33.0690 20.7262
L32.9480 20.8472
" />
<path d="M32.9480 20.8472
L32.7666 20.9076
" />
<path d="M32.7666 20.9076
L32.4642 20.9076
" />
<path d="M33.7342 20.9076
L33.7342 19.6376
" />
<path d="M33.7342 19.6376
L34.0366 19.6376
" />
<path d="M34.0366 19.6376
L34.2180 19.6981
" />
<path d="M34.2180 19.6981
L34.3390 19.8191
" />
<path d="M34.3390 19.8191
L34.3995 19.9400
" />
<path d="M34.3995 19.9400
L34.4599 20.1819
" />
<path d="M34.4599 20.1819
L34.4599 20.3633
" />
<path d="M34.4599 20.3633
L34.3995 20.6052
" />
<path d="M34.3995 20.6052
L34.3390 20.7262
" />
<path d="M34.3390 20.7262
L34.2180 20.8472
" />
<path d="M34.2180 20.8472
L34.0366 20.9076
" />
<path d="M34.0366 20.9076
L33.7342 20.9076
" />
<path d="M35.7299 20.9076
L35.3066 20.3029
" />
<path d="M35.0042 20.9076
L35.0042 19.6376
" />
<path d="M35.0042 19.6376
L35.4880 19.6376
" />
<path d="M35.4880 19.6376
L35.6090 19.6981
" />
<path d="M35.6090 19.6981
L35.6695 19.7586
" />
<path d="M35.6695 19.7586
L35.7299 19.8795
" />
<path d="M35.7299 19.8795
L35.7299 20.0610
" />
<path d="M35.7299 20.0610
L35.6695 20.1819
" />
<path d="M35.6695 20.1819
L35.6090 20.2424
" />
<path d="M35.6090 20.2424
L35.4880 20.3029
" />
<path d="M35.4880 20.3029
L35.0042 20.3029
" />
<path d="M36.5161 19.6376
L36.6371 19.6376
" />
<path d="M36.6371 19.6376
L36.7580 19.6981
" />
<path d="M36.7580 19.6981
L36.8185 19.7586
" />
<path d="M36.8185 19.7586
L36.8790 19.8795
" />
<path d="M36.8790 19.8795
L36.9395 20.1214
" />
<path d="M36.9395 20.1214
L36.9395 20.4238
" />
<path d="M36.9395 20.4238
L36.8790 20.6657
" />
<path d="M36.8790 20.6657
L36.8185 20.7867
" />
<path d="M36.8185 20.7867
L36.7580 20.8472
" />
<path d="M36.7580 20.8472
L36.6371 20.9076
" />
<path d="M36.6371 20.9076
L36.5161 20.9076
" />
<path d="M36.5161 20.9076
L36.3952 20.8472
" />
<path d="M36.3952 20.8472
L36.3347 20.7867
" />
<path d="M36.3347 20.7867
L36.2742 20.6657
" />
<path d="M36.2742 20.6657
L36.2138 20.4238
" />
<path d="M36.2138 20.4238
L36.2138 20.1214
" />
<path d="M36.2138 20.1214
L36.2742 19.8795
" />
<path d="M36.2742 19.8795
L36.3347 19.7586
" />
<path d="M36.3347 19.7586
L36.3952 19.6981
" />
<path d="M36.3952 19.6981
L36.5161 19.6376
" />
</g></g>
<g style="fill:#A90000; fill-opacity:0.0; 
stroke:#A90000; stroke-width:0.1524; stroke-opacity:1; 
stroke-linecap:round; stroke-linejoin:round;">
<text x="28.7873" y="20.0661"
textLength="1.3365" font-size="1.6933" lengthAdjust="spacingAndGlyphs"
text-anchor="middle" opacity="0">9</text>
<g class="stroked-text"><desc>9</desc>
<path d="M28.5454 19.9106
L28.7873 19.9106
" />
<path d="M28.7873 19.9106
L28.9083 19.8502
" />
<path d="M28.9083 19.8502
L28.9687 19.7897
" />
<path d="M28.9687 19.7897
L29.0897 19.6082
" />
<path d="M29.0897 19.6082
L29.1502 19.3663
" />
<path d="M29.1502 19.3663
L29.1502 18.8825
" />
<path d="M29.1502 18.8825
L29.0897 18.7616
" />
<path d="M29.0897 18.7616
L29.0292 18.7011
" />
<path d="M29.0292 18.7011
L28.9083 18.6406
" />
<path d="M28.9083 18.6406
L28.6664 18.6406
" />
<path d="M28.6664 18.6406
L28.5454 18.7011
" />
<path d="M28.5454 18.7011
L28.4849 18.7616
" />
<path d="M28.4849 18.7616
L28.4245 18.8825
" />
<path d="M28.4245 18.8825
L28.4245 19.1849
" />
<path d="M28.4245 19.1849
L28.4849 19.3059
" />
<path d="M28.4849 19.3059
L28.5454 19.3663
" />
<path d="M28.5454 19.3663
L28.6664 19.4268
" />
<path d="M28.6664 19.4268
L28.9083 19.4268
" />
<path d="M28.9083 19.4268
L29.0292 19.3663
" />
<path d="M29.0292 19.3663
L29.0897 19.3059
" />
<path d="M29.0897 19.3059
L29.1502 19.1849
" />
</g></g>
<g style="fill:#840084; fill-opacity:0.0; 
stroke:#840084; stroke-width:0.1524; stroke-opacity:1; 
stroke-linecap:round; stroke-linejoin:round;">
</g>
<g style="fill:#006464; fill-opacity:0.0; 
stroke:#006464; stroke-width:0.1524; stroke-opacity:1; 
stroke-linecap:round; stroke-linejoin:round;">
</g>
<g style="fill:#006464; fill-opacity:0.0; 
stroke:#006464; stroke-width:0.1588; stroke-opacity:1; 
stroke-linecap:round; stroke-linejoin:round;">
<text x="31.3273" y="4.4451"
textLength="2.5621" font-size="1.6933" lengthAdjust="spacingAndGlyphs"
text-anchor="middle" opacity="0">U?</text>
<g class="stroked-text"><desc>U?</desc>
<path d="M30.4201 3.1276
L30.4201 4.1557
" />
<path d="M30.4201 4.1557
L30.4806 4.2767
" />
<path d="M30.4806 4.2767
L30.5411 4.3372
" />
<path d="M30.5411 4.3372
L30.6620 4.3976
" />
<path d="M30.6620 4.3976
L30.9039 4.3976
" />
<path d="M30.9039 4.3976
L31.0249 4.3372
" />
<path d="M31.0249 4.3372
L31.0854 4.2767
" />
<path d="M31.0854 4.2767
L31.1458 4.1557
" />
<path d="M31.1458 4.1557
L31.1458 3.1276
" />
<path d="M31.9321 4.2767
L31.9925 4.3372
" />
<path d="M31.9925 4.3372
L31.9321 4.3976
" />
<path d="M31.9321 4.3976
L31.8716 4.3372
" />
<path d="M31.8716 4.3372
L31.9321 4.2767
" />
<path d="M31.9321 4.2767
L31.9321 4.3976
" />
<path d="M31.6902 3.1881
L31.8111 3.1276
" />
<path d="M31.8111 3.1276
L32.1135 3.1276
" />
<path d="M32.1135 3.1276
L32.2344 3.1881
" />
<path d="M32.2344 3.1881
L32.2949 3.3091
" />
<path d="M32.2949 3.3091
L32.2949 3.4300
" />
<path d="M32.2949 3.4300
L32.2344 3.5510
" />
<path d="M32.2344 3.5510
L32.1740 3.6114
" />
<path d="M32.1740 3.6114
L32.0530 3.6719
" />
<path d="M32.0530 3.6719
L31.9925 3.7324
" />
<path d="M31.9925 3.7324
L31.9321 3.8533
" />
<path d="M31.9321 3.8533
L31.9321 3.9138
" />
</g><text x="49.1073" y="4.4451"
textLength="8.7305" font-size="1.6933" lengthAdjust="spacingAndGlyphs"
text-anchor="middle" opacity="0">MAX5813</text>
<g class="stroked-text"><desc>MAX5813</desc>
<path d="M45.1159 4.3976
L45.1159 3.1276
" />
<path d="M45.1159 3.1276
L45.5393 4.0348
" />
<path d="M45.5393 4.0348
L45.9626 3.1276
" />
<path d="M45.9626 3.1276
L45.9626 4.3976
" />
<path d="M46.5069 4.0348
L47.1116 4.0348
" />
<path d="M46.3859 4.3976
L46.8092 3.1276
" />
<path d="M46.8092 3.1276
L47.2326 4.3976
" />
<path d="M47.5350 3.1276
L48.3816 4.3976
" />
<path d="M48.3816 3.1276
L47.5350 4.3976
" />
<path d="M49.4702 3.1276
L48.8654 3.1276
" />
<path d="M48.8654 3.1276
L48.8050 3.7324
" />
<path d="M48.8050 3.7324
L48.8654 3.6719
" />
<path d="M48.8654 3.6719
L48.9864 3.6114
" />
<path d="M48.9864 3.6114
L49.2888 3.6114
" />
<path d="M49.2888 3.6114
L49.4097 3.6719
" />
<path d="M49.4097 3.6719
L49.4702 3.7324
" />
<path d="M49.4702 3.7324
L49.5307 3.8533
" />
<path d="M49.5307 3.8533
L49.5307 4.1557
" />
<path d="M49.5307 4.1557
L49.4702 4.2767
" />
<path d="M49.4702 4.2767
L49.4097 4.3372
" />
<path d="M49.4097 4.3372
L49.2888 4.3976
" />
<path d="M49.2888 4.3976
L48.9864 4.3976
" />
<path d="M48.9864 4.3976
L48.8654 4.3372
" />
<path d="M48.8654 4.3372
L48.8050 4.2767
" />
<path d="M50.2564 3.6719
L50.1354 3.6114
" />
<path d="M50.1354 3.6114
L50.0749 3.5510
" />
<path d="M50.0749 3.5510
L50.0145 3.4300
" />
<path d="M50.0145 3.4300
L50.0145 3.3695
" />
<path d="M50.0145 3.3695
L50.0749 3.2486
" />
<path d="M50.0749 3.2486
L50.1354 3.1881
" />
<path d="M50.1354 3.1881
L50.2564 3.1276
" />
<path d="M50.2564 3.1276
L50.4983 3.1276
" />
<path d="M50.4983 3.1276
L50.6192 3.1881
" />
<path d="M50.6192 3.1881
L50.6797 3.2486
" />
<path d="M50.6797 3.2486
L50.7402 3.3695
" />
<path d="M50.7402 3.3695
L50.7402 3.4300
" />
<path d="M50.7402 3.4300
L50.6797 3.5510
" />
<path d="M50.6797 3.5510
L50.6192 3.6114
" />
<path d="M50.6192 3.6114
L50.4983 3.6719
" />
<path d="M50.4983 3.6719
L50.2564 3.6719
" />
<path d="M50.2564 3.6719
L50.1354 3.7324
" />
<path d="M50.1354 3.7324
L50.0749 3.7929
" />
<path d="M50.0749 3.7929
L50.0145 3.9138
" />
<path d="M50.0145 3.9138
L50.0145 4.1557
" />
<path d="M50.0145 4.1557
L50.0749 4.2767
" />
<path d="M50.0749 4.2767
L50.1354 4.3372
" />
<path d="M50.1354 4.3372
L50.2564 4.3976
" />
<path d="M50.2564 4.3976
L50.4983 4.3976
" />
<path d="M50.4983 4.3976
L50.6192 4.3372
" />
<path d="M50.6192 4.3372
L50.6797 4.2767
" />
<path d="M50.6797 4.2767
L50.7402 4.1557
" />
<path d="M50.7402 4.1557
L50.7402 3.9138
" />
<path d="M50.7402 3.9138
L50.6797 3.7929
" />
<path d="M50.6797 3.7929
L50.6192 3.7324
" />
<path d="M50.6192 3.7324
L50.4983 3.6719
" />
<path d="M51.9497 4.3976
L51.2240 4.3976
" />
<path d="M51.5868 4.3976
L51.5868 3.1276
" />
<path d="M51.5868 3.1276
L51.4659 3.3091
" />
<path d="M51.4659 3.3091
L51.3449 3.4300
" />
<path d="M51.3449 3.4300
L51.2240 3.4905
" />
<path d="M52.3730 3.1276
L53.1592 3.1276
" />
<path d="M53.1592 3.1276
L52.7358 3.6114
" />
<path d="M52.7358 3.6114
L52.9173 3.6114
" />
<path d="M52.9173 3.6114
L53.0382 3.6719
" />
<path d="M53.0382 3.6719
L53.0987 3.7324
" />
<path d="M53.0987 3.7324
L53.1592 3.8533
" />
<path d="M53.1592 3.8533
L53.1592 4.1557
" />
<path d="M53.1592 4.1557
L53.0987 4.2767
" />
<path d="M53.0987 4.2767
L53.0382 4.3372
" />
<path d="M53.0382 4.3372
L52.9173 4.3976
" />
<path d="M52.9173 4.3976
L52.5544 4.3976
" />
<path d="M52.5544 4.3976
L52.4335 4.3372
" />
<path d="M52.4335 4.3372
L52.3730 4.2767
" />
</g></g>
<g style="fill:#840084; fill-opacity:0.0; 
stroke:#840084; stroke-width:0.1588; stroke-opacity:1; 
stroke-linecap:round; stroke-linejoin:round;">
<text x="41.4873" y="15.8751"
textLength="69.1457" font-size="1.6933" lengthAdjust="spacingAndGlyphs"
text-anchor="middle" opacity="0">http://datasheets.maximintegrated.com/en/ds/MAX5813-MAX5815.pdf</text>
<g class="stroked-text"><desc>http://datasheets.maximintegrated.com/en/ds/MAX5813-MAX5815.pdf</desc>
<path d="M7.2883 15.8276
L7.2883 14.5576
" />
<path d="M7.8326 15.8276
L7.8326 15.1624
" />
<path d="M7.8326 15.1624
L7.7721 15.0414
" />
<path d="M7.7721 15.0414
L7.6512 14.9810
" />
<path d="M7.6512 14.9810
L7.4698 14.9810
" />
<path d="M7.4698 14.9810
L7.3488 15.0414
" />
<path d="M7.3488 15.0414
L7.2883 15.1019
" />
<path d="M8.2559 14.9810
L8.7397 14.9810
" />
<path d="M8.4373 14.5576
L8.4373 15.6462
" />
<path d="M8.4373 15.6462
L8.4978 15.7672
" />
<path d="M8.4978 15.7672
L8.6188 15.8276
" />
<path d="M8.6188 15.8276
L8.7397 15.8276
" />
<path d="M8.9816 14.9810
L9.4654 14.9810
" />
<path d="M9.1630 14.5576
L9.1630 15.6462
" />
<path d="M9.1630 15.6462
L9.2235 15.7672
" />
<path d="M9.2235 15.7672
L9.3445 15.8276
" />
<path d="M9.3445 15.8276
L9.4654 15.8276
" />
<path d="M9.8887 14.9810
L9.8887 16.2510
" />
<path d="M9.8887 15.0414
L10.0097 14.9810
" />
<path d="M10.0097 14.9810
L10.2516 14.9810
" />
<path d="M10.2516 14.9810
L10.3725 15.0414
" />
<path d="M10.3725 15.0414
L10.4330 15.1019
" />
<path d="M10.4330 15.1019
L10.4935 15.2229
" />
<path d="M10.4935 15.2229
L10.4935 15.5857
" />
<path d="M10.4935 15.5857
L10.4330 15.7067
" />
<path d="M10.4330 15.7067
L10.3725 15.7672
" />
<path d="M10.3725 15.7672
L10.2516 15.8276
" />
<path d="M10.2516 15.8276
L10.0097 15.8276
" />
<path d="M10.0097 15.8276
L9.8887 15.7672
" />
<path d="M11.0377 15.7067
L11.0982 15.7672
" />
<path d="M11.0982 15.7672
L11.0377 15.8276
" />
<path d="M11.0377 15.8276
L10.9773 15.7672
" />
<path d="M10.9773 15.7672
L11.0377 15.7067
" />
<path d="M11.0377 15.7067
L11.0377 15.8276
" />
<path d="M11.0377 15.0414
L11.0982 15.1019
" />
<path d="M11.0982 15.1019
L11.0377 15.1624
" />
<path d="M11.0377 15.1624
L10.9773 15.1019
" />
<path d="M10.9773 15.1019
L11.0377 15.0414
" />
<path d="M11.0377 15.0414
L11.0377 15.1624
" />
<path d="M12.5497 14.4972
L11.4611 16.1300
" />
<path d="M13.8802 14.4972
L12.7916 16.1300
" />
<path d="M14.8478 15.8276
L14.8478 14.5576
" />
<path d="M14.8478 15.7672
L14.7269 15.8276
" />
<path d="M14.7269 15.8276
L14.4850 15.8276
" />
<path d="M14.4850 15.8276
L14.3640 15.7672
" />
<path d="M14.3640 15.7672
L14.3035 15.7067
" />
<path d="M14.3035 15.7067
L14.2431 15.5857
" />
<path d="M14.2431 15.5857
L14.2431 15.2229
" />
<path d="M14.2431 15.2229
L14.3035 15.1019
" />
<path d="M14.3035 15.1019
L14.3640 15.0414
" />
<path d="M14.3640 15.0414
L14.4850 14.9810
" />
<path d="M14.4850 14.9810
L14.7269 14.9810
" />
<path d="M14.7269 14.9810
L14.8478 15.0414
" />
<path d="M15.9968 15.8276
L15.9968 15.1624
" />
<path d="M15.9968 15.1624
L15.9363 15.0414
" />
<path d="M15.9363 15.0414
L15.8154 14.9810
" />
<path d="M15.8154 14.9810
L15.5735 14.9810
" />
<path d="M15.5735 14.9810
L15.4525 15.0414
" />
<path d="M15.9968 15.7672
L15.8759 15.8276
" />
<path d="M15.8759 15.8276
L15.5735 15.8276
" />
<path d="M15.5735 15.8276
L15.4525 15.7672
" />
<path d="M15.4525 15.7672
L15.3921 15.6462
" />
<path d="M15.3921 15.6462
L15.3921 15.5252
" />
<path d="M15.3921 15.5252
L15.4525 15.4043
" />
<path d="M15.4525 15.4043
L15.5735 15.3438
" />
<path d="M15.5735 15.3438
L15.8759 15.3438
" />
<path d="M15.8759 15.3438
L15.9968 15.2833
" />
<path d="M16.4201 14.9810
L16.9039 14.9810
" />
<path d="M16.6015 14.5576
L16.6015 15.6462
" />
<path d="M16.6015 15.6462
L16.6620 15.7672
" />
<path d="M16.6620 15.7672
L16.7830 15.8276
" />
<path d="M16.7830 15.8276
L16.9039 15.8276
" />
<path d="M17.8715 15.8276
L17.8715 15.1624
" />
<path d="M17.8715 15.1624
L17.8110 15.0414
" />
<path d="M17.8110 15.0414
L17.6901 14.9810
" />
<path d="M17.6901 14.9810
L17.4482 14.9810
" />
<path d="M17.4482 14.9810
L17.3272 15.0414
" />
<path d="M17.8715 15.7672
L17.7506 15.8276
" />
<path d="M17.7506 15.8276
L17.4482 15.8276
" />
<path d="M17.4482 15.8276
L17.3272 15.7672
" />
<path d="M17.3272 15.7672
L17.2668 15.6462
" />
<path d="M17.2668 15.6462
L17.2668 15.5252
" />
<path d="M17.2668 15.5252
L17.3272 15.4043
" />
<path d="M17.3272 15.4043
L17.4482 15.3438
" />
<path d="M17.4482 15.3438
L17.7506 15.3438
" />
<path d="M17.7506 15.3438
L17.8715 15.2833
" />
<path d="M18.4158 15.7672
L18.5367 15.8276
" />
<path d="M18.5367 15.8276
L18.7786 15.8276
" />
<path d="M18.7786 15.8276
L18.8996 15.7672
" />
<path d="M18.8996 15.7672
L18.9600 15.6462
" />
<path d="M18.9600 15.6462
L18.9600 15.5857
" />
<path d="M18.9600 15.5857
L18.8996 15.4648
" />
<path d="M18.8996 15.4648
L18.7786 15.4043
" />
<path d="M18.7786 15.4043
L18.5972 15.4043
" />
<path d="M18.5972 15.4043
L18.4762 15.3438
" />
<path d="M18.4762 15.3438
L18.4158 15.2229
" />
<path d="M18.4158 15.2229
L18.4158 15.1624
" />
<path d="M18.4158 15.1624
L18.4762 15.0414
" />
<path d="M18.4762 15.0414
L18.5972 14.9810
" />
<path d="M18.5972 14.9810
L18.7786 14.9810
" />
<path d="M18.7786 14.9810
L18.8996 15.0414
" />
<path d="M19.5043 15.8276
L19.5043 14.5576
" />
<path d="M20.0486 15.8276
L20.0486 15.1624
" />
<path d="M20.0486 15.1624
L19.9881 15.0414
" />
<path d="M19.9881 15.0414
L19.8672 14.9810
" />
<path d="M19.8672 14.9810
L19.6858 14.9810
" />
<path d="M19.6858 14.9810
L19.5648 15.0414
" />
<path d="M19.5648 15.0414
L19.5043 15.1019
" />
<path d="M21.1371 15.7672
L21.0162 15.8276
" />
<path d="M21.0162 15.8276
L20.7743 15.8276
" />
<path d="M20.7743 15.8276
L20.6533 15.7672
" />
<path d="M20.6533 15.7672
L20.5929 15.6462
" />
<path d="M20.5929 15.6462
L20.5929 15.1624
" />
<path d="M20.5929 15.1624
L20.6533 15.0414
" />
<path d="M20.6533 15.0414
L20.7743 14.9810
" />
<path d="M20.7743 14.9810
L21.0162 14.9810
" />
<path d="M21.0162 14.9810
L21.1371 15.0414
" />
<path d="M21.1371 15.0414
L21.1976 15.1624
" />
<path d="M21.1976 15.1624
L21.1976 15.2833
" />
<path d="M21.1976 15.2833
L20.5929 15.4043
" />
<path d="M22.2257 15.7672
L22.1048 15.8276
" />
<path d="M22.1048 15.8276
L21.8629 15.8276
" />
<path d="M21.8629 15.8276
L21.7419 15.7672
" />
<path d="M21.7419 15.7672
L21.6815 15.6462
" />
<path d="M21.6815 15.6462
L21.6815 15.1624
" />
<path d="M21.6815 15.1624
L21.7419 15.0414
" />
<path d="M21.7419 15.0414
L21.8629 14.9810
" />
<path d="M21.8629 14.9810
L22.1048 14.9810
" />
<path d="M22.1048 14.9810
L22.2257 15.0414
" />
<path d="M22.2257 15.0414
L22.2862 15.1624
" />
<path d="M22.2862 15.1624
L22.2862 15.2833
" />
<path d="M22.2862 15.2833
L21.6815 15.4043
" />
<path d="M22.6491 14.9810
L23.1329 14.9810
" />
<path d="M22.8305 14.5576
L22.8305 15.6462
" />
<path d="M22.8305 15.6462
L22.8910 15.7672
" />
<path d="M22.8910 15.7672
L23.0120 15.8276
" />
<path d="M23.0120 15.8276
L23.1329 15.8276
" />
<path d="M23.4958 15.7672
L23.6167 15.8276
" />
<path d="M23.6167 15.8276
L23.8586 15.8276
" />
<path d="M23.8586 15.8276
L23.9796 15.7672
" />
<path d="M23.9796 15.7672
L24.0400 15.6462
" />
<path d="M24.0400 15.6462
L24.0400 15.5857
" />
<path d="M24.0400 15.5857
L23.9796 15.4648
" />
<path d="M23.9796 15.4648
L23.8586 15.4043
" />
<path d="M23.8586 15.4043
L23.6772 15.4043
" />
<path d="M23.6772 15.4043
L23.5562 15.3438
" />
<path d="M23.5562 15.3438
L23.4958 15.2229
" />
<path d="M23.4958 15.2229
L23.4958 15.1624
" />
<path d="M23.4958 15.1624
L23.5562 15.0414
" />
<path d="M23.5562 15.0414
L23.6772 14.9810
" />
<path d="M23.6772 14.9810
L23.8586 14.9810
" />
<path d="M23.8586 14.9810
L23.9796 15.0414
" />
<path d="M24.5843 15.7067
L24.6448 15.7672
" />
<path d="M24.6448 15.7672
L24.5843 15.8276
" />
<path d="M24.5843 15.8276
L24.5239 15.7672
" />
<path d="M24.5239 15.7672
L24.5843 15.7067
" />
<path d="M24.5843 15.7067
L24.5843 15.8276
" />
<path d="M25.1891 15.8276
L25.1891 14.9810
" />
<path d="M25.1891 15.1019
L25.2496 15.0414
" />
<path d="M25.2496 15.0414
L25.3706 14.9810
" />
<path d="M25.3706 14.9810
L25.5520 14.9810
" />
<path d="M25.5520 14.9810
L25.6729 15.0414
" />
<path d="M25.6729 15.0414
L25.7334 15.1624
" />
<path d="M25.7334 15.1624
L25.7334 15.8276
" />
<path d="M25.7334 15.1624
L25.7939 15.0414
" />
<path d="M25.7939 15.0414
L25.9148 14.9810
" />
<path d="M25.9148 14.9810
L26.0963 14.9810
" />
<path d="M26.0963 14.9810
L26.2172 15.0414
" />
<path d="M26.2172 15.0414
L26.2777 15.1624
" />
<path d="M26.2777 15.1624
L26.2777 15.8276
" />
<path d="M27.4267 15.8276
L27.4267 15.1624
" />
<path d="M27.4267 15.1624
L27.3662 15.0414
" />
<path d="M27.3662 15.0414
L27.2453 14.9810
" />
<path d="M27.2453 14.9810
L27.0034 14.9810
" />
<path d="M27.0034 14.9810
L26.8824 15.0414
" />
<path d="M27.4267 15.7672
L27.3058 15.8276
" />
<path d="M27.3058 15.8276
L27.0034 15.8276
" />
<path d="M27.0034 15.8276
L26.8824 15.7672
" />
<path d="M26.8824 15.7672
L26.8220 15.6462
" />
<path d="M26.8220 15.6462
L26.8220 15.5252
" />
<path d="M26.8220 15.5252
L26.8824 15.4043
" />
<path d="M26.8824 15.4043
L27.0034 15.3438
" />
<path d="M27.0034 15.3438
L27.3058 15.3438
" />
<path d="M27.3058 15.3438
L27.4267 15.2833
" />
<path d="M27.9105 15.8276
L28.5757 14.9810
" />
<path d="M27.9105 14.9810
L28.5757 15.8276
" />
<path d="M29.0595 15.8276
L29.0595 14.9810
" />
<path d="M29.0595 14.5576
L28.9991 14.6181
" />
<path d="M28.9991 14.6181
L29.0595 14.6786
" />
<path d="M29.0595 14.6786
L29.1200 14.6181
" />
<path d="M29.1200 14.6181
L29.0595 14.5576
" />
<path d="M29.0595 14.5576
L29.0595 14.6786
" />
<path d="M29.6643 15.8276
L29.6643 14.9810
" />
<path d="M29.6643 15.1019
L29.7248 15.0414
" />
<path d="M29.7248 15.0414
L29.8458 14.9810
" />
<path d="M29.8458 14.9810
L30.0272 14.9810
" />
<path d="M30.0272 14.9810
L30.1481 15.0414
" />
<path d="M30.1481 15.0414
L30.2086 15.1624
" />
<path d="M30.2086 15.1624
L30.2086 15.8276
" />
<path d="M30.2086 15.1624
L30.2691 15.0414
" />
<path d="M30.2691 15.0414
L30.3900 14.9810
" />
<path d="M30.3900 14.9810
L30.5715 14.9810
" />
<path d="M30.5715 14.9810
L30.6924 15.0414
" />
<path d="M30.6924 15.0414
L30.7529 15.1624
" />
<path d="M30.7529 15.1624
L30.7529 15.8276
" />
<path d="M31.3576 15.8276
L31.3576 14.9810
" />
<path d="M31.3576 14.5576
L31.2972 14.6181
" />
<path d="M31.2972 14.6181
L31.3576 14.6786
" />
<path d="M31.3576 14.6786
L31.4181 14.6181
" />
<path d="M31.4181 14.6181
L31.3576 14.5576
" />
<path d="M31.3576 14.5576
L31.3576 14.6786
" />
<path d="M31.9624 14.9810
L31.9624 15.8276
" />
<path d="M31.9624 15.1019
L32.0229 15.0414
" />
<path d="M32.0229 15.0414
L32.1439 14.9810
" />
<path d="M32.1439 14.9810
L32.3253 14.9810
" />
<path d="M32.3253 14.9810
L32.4462 15.0414
" />
<path d="M32.4462 15.0414
L32.5067 15.1624
" />
<path d="M32.5067 15.1624
L32.5067 15.8276
" />
<path d="M32.9300 14.9810
L33.4138 14.9810
" />
<path d="M33.1114 14.5576
L33.1114 15.6462
" />
<path d="M33.1114 15.6462
L33.1719 15.7672
" />
<path d="M33.1719 15.7672
L33.2929 15.8276
" />
<path d="M33.2929 15.8276
L33.4138 15.8276
" />
<path d="M34.3209 15.7672
L34.2000 15.8276
" />
<path d="M34.2000 15.8276
L33.9581 15.8276
" />
<path d="M33.9581 15.8276
L33.8371 15.7672
" />
<path d="M33.8371 15.7672
L33.7767 15.6462
" />
<path d="M33.7767 15.6462
L33.7767 15.1624
" />
<path d="M33.7767 15.1624
L33.8371 15.0414
" />
<path d="M33.8371 15.0414
L33.9581 14.9810
" />
<path d="M33.9581 14.9810
L34.2000 14.9810
" />
<path d="M34.2000 14.9810
L34.3209 15.0414
" />
<path d="M34.3209 15.0414
L34.3814 15.1624
" />
<path d="M34.3814 15.1624
L34.3814 15.2833
" />
<path d="M34.3814 15.2833
L33.7767 15.4043
" />
<path d="M35.4700 14.9810
L35.4700 16.0091
" />
<path d="M35.4700 16.0091
L35.4095 16.1300
" />
<path d="M35.4095 16.1300
L35.3491 16.1905
" />
<path d="M35.3491 16.1905
L35.2281 16.2510
" />
<path d="M35.2281 16.2510
L35.0467 16.2510
" />
<path d="M35.0467 16.2510
L34.9257 16.1905
" />
<path d="M35.4700 15.7672
L35.3491 15.8276
" />
<path d="M35.3491 15.8276
L35.1072 15.8276
" />
<path d="M35.1072 15.8276
L34.9862 15.7672
" />
<path d="M34.9862 15.7672
L34.9257 15.7067
" />
<path d="M34.9257 15.7067
L34.8653 15.5857
" />
<path d="M34.8653 15.5857
L34.8653 15.2229
" />
<path d="M34.8653 15.2229
L34.9257 15.1019
" />
<path d="M34.9257 15.1019
L34.9862 15.0414
" />
<path d="M34.9862 15.0414
L35.1072 14.9810
" />
<path d="M35.1072 14.9810
L35.3491 14.9810
" />
<path d="M35.3491 14.9810
L35.4700 15.0414
" />
<path d="M36.0747 15.8276
L36.0747 14.9810
" />
<path d="M36.0747 15.2229
L36.1352 15.1019
" />
<path d="M36.1352 15.1019
L36.1957 15.0414
" />
<path d="M36.1957 15.0414
L36.3166 14.9810
" />
<path d="M36.3166 14.9810
L36.4376 14.9810
" />
<path d="M37.4052 15.8276
L37.4052 15.1624
" />
<path d="M37.4052 15.1624
L37.3447 15.0414
" />
<path d="M37.3447 15.0414
L37.2238 14.9810
" />
<path d="M37.2238 14.9810
L36.9819 14.9810
" />
<path d="M36.9819 14.9810
L36.8609 15.0414
" />
<path d="M37.4052 15.7672
L37.2843 15.8276
" />
<path d="M37.2843 15.8276
L36.9819 15.8276
" />
<path d="M36.9819 15.8276
L36.8609 15.7672
" />
<path d="M36.8609 15.7672
L36.8005 15.6462
" />
<path d="M36.8005 15.6462
L36.8005 15.5252
" />
<path d="M36.8005 15.5252
L36.8609 15.4043
" />
<path d="M36.8609 15.4043
L36.9819 15.3438
" />
<path d="M36.9819 15.3438
L37.2843 15.3438
" />
<path d="M37.2843 15.3438
L37.4052 15.2833
" />
<path d="M37.8285 14.9810
L38.3123 14.9810
" />
<path d="M38.0099 14.5576
L38.0099 15.6462
" />
<path d="M38.0099 15.6462
L38.0704 15.7672
" />
<path d="M38.0704 15.7672
L38.1914 15.8276
" />
<path d="M38.1914 15.8276
L38.3123 15.8276
" />
<path d="M39.2194 15.7672
L39.0985 15.8276
" />
<path d="M39.0985 15.8276
L38.8566 15.8276
" />
<path d="M38.8566 15.8276
L38.7356 15.7672
" />
<path d="M38.7356 15.7672
L38.6752 15.6462
" />
<path d="M38.6752 15.6462
L38.6752 15.1624
" />
<path d="M38.6752 15.1624
L38.7356 15.0414
" />
<path d="M38.7356 15.0414
L38.8566 14.9810
" />
<path d="M38.8566 14.9810
L39.0985 14.9810
" />
<path d="M39.0985 14.9810
L39.2194 15.0414
" />
<path d="M39.2194 15.0414
L39.2799 15.1624
" />
<path d="M39.2799 15.1624
L39.2799 15.2833
" />
<path d="M39.2799 15.2833
L38.6752 15.4043
" />
<path d="M40.3685 15.8276
L40.3685 14.5576
" />
<path d="M40.3685 15.7672
L40.2476 15.8276
" />
<path d="M40.2476 15.8276
L40.0057 15.8276
" />
<path d="M40.0057 15.8276
L39.8847 15.7672
" />
<path d="M39.8847 15.7672
L39.8242 15.7067
" />
<path d="M39.8242 15.7067
L39.7638 15.5857
" />
<path d="M39.7638 15.5857
L39.7638 15.2229
" />
<path d="M39.7638 15.2229
L39.8242 15.1019
" />
<path d="M39.8242 15.1019
L39.8847 15.0414
" />
<path d="M39.8847 15.0414
L40.0057 14.9810
" />
<path d="M40.0057 14.9810
L40.2476 14.9810
" />
<path d="M40.2476 14.9810
L40.3685 15.0414
" />
<path d="M40.9732 15.7067
L41.0337 15.7672
" />
<path d="M41.0337 15.7672
L40.9732 15.8276
" />
<path d="M40.9732 15.8276
L40.9128 15.7672
" />
<path d="M40.9128 15.7672
L40.9732 15.7067
" />
<path d="M40.9732 15.7067
L40.9732 15.8276
" />
<path d="M42.1223 15.7672
L42.0014 15.8276
" />
<path d="M42.0014 15.8276
L41.7595 15.8276
" />
<path d="M41.7595 15.8276
L41.6385 15.7672
" />
<path d="M41.6385 15.7672
L41.5780 15.7067
" />
<path d="M41.5780 15.7067
L41.5176 15.5857
" />
<path d="M41.5176 15.5857
L41.5176 15.2229
" />
<path d="M41.5176 15.2229
L41.5780 15.1019
" />
<path d="M41.5780 15.1019
L41.6385 15.0414
" />
<path d="M41.6385 15.0414
L41.7595 14.9810
" />
<path d="M41.7595 14.9810
L42.0014 14.9810
" />
<path d="M42.0014 14.9810
L42.1223 15.0414
" />
<path d="M42.8481 15.8276
L42.7271 15.7672
" />
<path d="M42.7271 15.7672
L42.6666 15.7067
" />
<path d="M42.6666 15.7067
L42.6062 15.5857
" />
<path d="M42.6062 15.5857
L42.6062 15.2229
" />
<path d="M42.6062 15.2229
L42.6666 15.1019
" />
<path d="M42.6666 15.1019
L42.7271 15.0414
" />
<path d="M42.7271 15.0414
L42.8481 14.9810
" />
<path d="M42.8481 14.9810
L43.0295 14.9810
" />
<path d="M43.0295 14.9810
L43.1504 15.0414
" />
<path d="M43.1504 15.0414
L43.2109 15.1019
" />
<path d="M43.2109 15.1019
L43.2714 15.2229
" />
<path d="M43.2714 15.2229
L43.2714 15.5857
" />
<path d="M43.2714 15.5857
L43.2109 15.7067
" />
<path d="M43.2109 15.7067
L43.1504 15.7672
" />
<path d="M43.1504 15.7672
L43.0295 15.8276
" />
<path d="M43.0295 15.8276
L42.8481 15.8276
" />
<path d="M43.8156 15.8276
L43.8156 14.9810
" />
<path d="M43.8156 15.1019
L43.8761 15.0414
" />
<path d="M43.8761 15.0414
L43.9971 14.9810
" />
<path d="M43.9971 14.9810
L44.1785 14.9810
" />
<path d="M44.1785 14.9810
L44.2994 15.0414
" />
<path d="M44.2994 15.0414
L44.3599 15.1624
" />
<path d="M44.3599 15.1624
L44.3599 15.8276
" />
<path d="M44.3599 15.1624
L44.4204 15.0414
" />
<path d="M44.4204 15.0414
L44.5413 14.9810
" />
<path d="M44.5413 14.9810
L44.7228 14.9810
" />
<path d="M44.7228 14.9810
L44.8437 15.0414
" />
<path d="M44.8437 15.0414
L44.9042 15.1624
" />
<path d="M44.9042 15.1624
L44.9042 15.8276
" />
<path d="M46.4161 14.4972
L45.3275 16.1300
" />
<path d="M47.3232 15.7672
L47.2023 15.8276
" />
<path d="M47.2023 15.8276
L46.9604 15.8276
" />
<path d="M46.9604 15.8276
L46.8394 15.7672
" />
<path d="M46.8394 15.7672
L46.7790 15.6462
" />
<path d="M46.7790 15.6462
L46.7790 15.1624
" />
<path d="M46.7790 15.1624
L46.8394 15.0414
" />
<path d="M46.8394 15.0414
L46.9604 14.9810
" />
<path d="M46.9604 14.9810
L47.2023 14.9810
" />
<path d="M47.2023 14.9810
L47.3232 15.0414
" />
<path d="M47.3232 15.0414
L47.3837 15.1624
" />
<path d="M47.3837 15.1624
L47.3837 15.2833
" />
<path d="M47.3837 15.2833
L46.7790 15.4043
" />
<path d="M47.9280 14.9810
L47.9280 15.8276
" />
<path d="M47.9280 15.1019
L47.9885 15.0414
" />
<path d="M47.9885 15.0414
L48.1095 14.9810
" />
<path d="M48.1095 14.9810
L48.2909 14.9810
" />
<path d="M48.2909 14.9810
L48.4118 15.0414
" />
<path d="M48.4118 15.0414
L48.4723 15.1624
" />
<path d="M48.4723 15.1624
L48.4723 15.8276
" />
<path d="M49.9842 14.4972
L48.8956 16.1300
" />
<path d="M50.9518 15.8276
L50.9518 14.5576
" />
<path d="M50.9518 15.7672
L50.8309 15.8276
" />
<path d="M50.8309 15.8276
L50.5890 15.8276
" />
<path d="M50.5890 15.8276
L50.4680 15.7672
" />
<path d="M50.4680 15.7672
L50.4075 15.7067
" />
<path d="M50.4075 15.7067
L50.3471 15.5857
" />
<path d="M50.3471 15.5857
L50.3471 15.2229
" />
<path d="M50.3471 15.2229
L50.4075 15.1019
" />
<path d="M50.4075 15.1019
L50.4680 15.0414
" />
<path d="M50.4680 15.0414
L50.5890 14.9810
" />
<path d="M50.5890 14.9810
L50.8309 14.9810
" />
<path d="M50.8309 14.9810
L50.9518 15.0414
" />
<path d="M51.4961 15.7672
L51.6170 15.8276
" />
<path d="M51.6170 15.8276
L51.8589 15.8276
" />
<path d="M51.8589 15.8276
L51.9799 15.7672
" />
<path d="M51.9799 15.7672
L52.0403 15.6462
" />
<path d="M52.0403 15.6462
L52.0403 15.5857
" />
<path d="M52.0403 15.5857
L51.9799 15.4648
" />
<path d="M51.9799 15.4648
L51.8589 15.4043
" />
<path d="M51.8589 15.4043
L51.6775 15.4043
" />
<path d="M51.6775 15.4043
L51.5565 15.3438
" />
<path d="M51.5565 15.3438
L51.4961 15.2229
" />
<path d="M51.4961 15.2229
L51.4961 15.1624
" />
<path d="M51.4961 15.1624
L51.5565 15.0414
" />
<path d="M51.5565 15.0414
L51.6775 14.9810
" />
<path d="M51.6775 14.9810
L51.8589 14.9810
" />
<path d="M51.8589 14.9810
L51.9799 15.0414
" />
<path d="M53.4918 14.4972
L52.4032 16.1300
" />
<path d="M53.9151 15.8276
L53.9151 14.5576
" />
<path d="M53.9151 14.5576
L54.3385 15.4648
" />
<path d="M54.3385 15.4648
L54.7618 14.5576
" />
<path d="M54.7618 14.5576
L54.7618 15.8276
" />
<path d="M55.3061 15.4648
L55.9108 15.4648
" />
<path d="M55.1851 15.8276
L55.6084 14.5576
" />
<path d="M55.6084 14.5576
L56.0318 15.8276
" />
<path d="M56.3342 14.5576
L57.1808 15.8276
" />
<path d="M57.1808 14.5576
L56.3342 15.8276
" />
<path d="M58.2694 14.5576
L57.6646 14.5576
" />
<path d="M57.6646 14.5576
L57.6042 15.1624
" />
<path d="M57.6042 15.1624
L57.6646 15.1019
" />
<path d="M57.6646 15.1019
L57.7856 15.0414
" />
<path d="M57.7856 15.0414
L58.0880 15.0414
" />
<path d="M58.0880 15.0414
L58.2089 15.1019
" />
<path d="M58.2089 15.1019
L58.2694 15.1624
" />
<path d="M58.2694 15.1624
L58.3299 15.2833
" />
<path d="M58.3299 15.2833
L58.3299 15.5857
" />
<path d="M58.3299 15.5857
L58.2694 15.7067
" />
<path d="M58.2694 15.7067
L58.2089 15.7672
" />
<path d="M58.2089 15.7672
L58.0880 15.8276
" />
<path d="M58.0880 15.8276
L57.7856 15.8276
" />
<path d="M57.7856 15.8276
L57.6646 15.7672
" />
<path d="M57.6646 15.7672
L57.6042 15.7067
" />
<path d="M59.0556 15.1019
L58.9346 15.0414
" />
<path d="M58.9346 15.0414
L58.8741 14.9810
" />
<path d="M58.8741 14.9810
L58.8137 14.8600
" />
<path d="M58.8137 14.8600
L58.8137 14.7995
" />
<path d="M58.8137 14.7995
L58.8741 14.6786
" />
<path d="M58.8741 14.6786
L58.9346 14.6181
" />
<path d="M58.9346 14.6181
L59.0556 14.5576
" />
<path d="M59.0556 14.5576
L59.2975 14.5576
" />
<path d="M59.2975 14.5576
L59.4184 14.6181
" />
<path d="M59.4184 14.6181
L59.4789 14.6786
" />
<path d="M59.4789 14.6786
L59.5394 14.7995
" />
<path d="M59.5394 14.7995
L59.5394 14.8600
" />
<path d="M59.5394 14.8600
L59.4789 14.9810
" />
<path d="M59.4789 14.9810
L59.4184 15.0414
" />
<path d="M59.4184 15.0414
L59.2975 15.1019
" />
<path d="M59.2975 15.1019
L59.0556 15.1019
" />
<path d="M59.0556 15.1019
L58.9346 15.1624
" />
<path d="M58.9346 15.1624
L58.8741 15.2229
" />
<path d="M58.8741 15.2229
L58.8137 15.3438
" />
<path d="M58.8137 15.3438
L58.8137 15.5857
" />
<path d="M58.8137 15.5857
L58.8741 15.7067
" />
<path d="M58.8741 15.7067
L58.9346 15.7672
" />
<path d="M58.9346 15.7672
L59.0556 15.8276
" />
<path d="M59.0556 15.8276
L59.2975 15.8276
" />
<path d="M59.2975 15.8276
L59.4184 15.7672
" />
<path d="M59.4184 15.7672
L59.4789 15.7067
" />
<path d="M59.4789 15.7067
L59.5394 15.5857
" />
<path d="M59.5394 15.5857
L59.5394 15.3438
" />
<path d="M59.5394 15.3438
L59.4789 15.2229
" />
<path d="M59.4789 15.2229
L59.4184 15.1624
" />
<path d="M59.4184 15.1624
L59.2975 15.1019
" />
<path d="M60.7489 15.8276
L60.0232 15.8276
" />
<path d="M60.3860 15.8276
L60.3860 14.5576
" />
<path d="M60.3860 14.5576
L60.2651 14.7391
" />
<path d="M60.2651 14.7391
L60.1441 14.8600
" />
<path d="M60.1441 14.8600
L60.0232 14.9205
" />
<path d="M61.1722 14.5576
L61.9584 14.5576
" />
<path d="M61.9584 14.5576
L61.5350 15.0414
" />
<path d="M61.5350 15.0414
L61.7165 15.0414
" />
<path d="M61.7165 15.0414
L61.8374 15.1019
" />
<path d="M61.8374 15.1019
L61.8979 15.1624
" />
<path d="M61.8979 15.1624
L61.9584 15.2833
" />
<path d="M61.9584 15.2833
L61.9584 15.5857
" />
<path d="M61.9584 15.5857
L61.8979 15.7067
" />
<path d="M61.8979 15.7067
L61.8374 15.7672
" />
<path d="M61.8374 15.7672
L61.7165 15.8276
" />
<path d="M61.7165 15.8276
L61.3536 15.8276
" />
<path d="M61.3536 15.8276
L61.2327 15.7672
" />
<path d="M61.2327 15.7672
L61.1722 15.7067
" />
<path d="M62.5026 15.3438
L63.4703 15.3438
" />
<path d="M64.0750 15.8276
L64.0750 14.5576
" />
<path d="M64.0750 14.5576
L64.4984 15.4648
" />
<path d="M64.4984 15.4648
L64.9217 14.5576
" />
<path d="M64.9217 14.5576
L64.9217 15.8276
" />
<path d="M65.4660 15.4648
L66.0707 15.4648
" />
<path d="M65.3450 15.8276
L65.7683 14.5576
" />
<path d="M65.7683 14.5576
L66.1917 15.8276
" />
<path d="M66.4941 14.5576
L67.3407 15.8276
" />
<path d="M67.3407 14.5576
L66.4941 15.8276
" />
<path d="M68.4293 14.5576
L67.8245 14.5576
" />
<path d="M67.8245 14.5576
L67.7641 15.1624
" />
<path d="M67.7641 15.1624
L67.8245 15.1019
" />
<path d="M67.8245 15.1019
L67.9455 15.0414
" />
<path d="M67.9455 15.0414
L68.2479 15.0414
" />
<path d="M68.2479 15.0414
L68.3688 15.1019
" />
<path d="M68.3688 15.1019
L68.4293 15.1624
" />
<path d="M68.4293 15.1624
L68.4898 15.2833
" />
<path d="M68.4898 15.2833
L68.4898 15.5857
" />
<path d="M68.4898 15.5857
L68.4293 15.7067
" />
<path d="M68.4293 15.7067
L68.3688 15.7672
" />
<path d="M68.3688 15.7672
L68.2479 15.8276
" />
<path d="M68.2479 15.8276
L67.9455 15.8276
" />
<path d="M67.9455 15.8276
L67.8245 15.7672
" />
<path d="M67.8245 15.7672
L67.7641 15.7067
" />
<path d="M69.2155 15.1019
L69.0945 15.0414
" />
<path d="M69.0945 15.0414
L69.0340 14.9810
" />
<path d="M69.0340 14.9810
L68.9736 14.8600
" />
<path d="M68.9736 14.8600
L68.9736 14.7995
" />
<path d="M68.9736 14.7995
L69.0340 14.6786
" />
<path d="M69.0340 14.6786
L69.0945 14.6181
" />
<path d="M69.0945 14.6181
L69.2155 14.5576
" />
<path d="M69.2155 14.5576
L69.4574 14.5576
" />
<path d="M69.4574 14.5576
L69.5783 14.6181
" />
<path d="M69.5783 14.6181
L69.6388 14.6786
" />
<path d="M69.6388 14.6786
L69.6993 14.7995
" />
<path d="M69.6993 14.7995
L69.6993 14.8600
" />
<path d="M69.6993 14.8600
L69.6388 14.9810
" />
<path d="M69.6388 14.9810
L69.5783 15.0414
" />
<path d="M69.5783 15.0414
L69.4574 15.1019
" />
<path d="M69.4574 15.1019
L69.2155 15.1019
" />
<path d="M69.2155 15.1019
L69.0945 15.1624
" />
<path d="M69.0945 15.1624
L69.0340 15.2229
" />
<path d="M69.0340 15.2229
L68.9736 15.3438
" />
<path d="M68.9736 15.3438
L68.9736 15.5857
" />
<path d="M68.9736 15.5857
L69.0340 15.7067
" />
<path d="M69.0340 15.7067
L69.0945 15.7672
" />
<path d="M69.0945 15.7672
L69.2155 15.8276
" />
<path d="M69.2155 15.8276
L69.4574 15.8276
" />
<path d="M69.4574 15.8276
L69.5783 15.7672
" />
<path d="M69.5783 15.7672
L69.6388 15.7067
" />
<path d="M69.6388 15.7067
L69.6993 15.5857
" />
<path d="M69.6993 15.5857
L69.6993 15.3438
" />
<path d="M69.6993 15.3438
L69.6388 15.2229
" />
<path d="M69.6388 15.2229
L69.5783 15.1624
" />
<path d="M69.5783 15.1624
L69.4574 15.1019
" />
<path d="M70.9088 15.8276
L70.1831 15.8276
" />
<path d="M70.5459 15.8276
L70.5459 14.5576
" />
<path d="M70.5459 14.5576
L70.4250 14.7391
" />
<path d="M70.4250 14.7391
L70.3040 14.8600
" />
<path d="M70.3040 14.8600
L70.1831 14.9205
" />
<path d="M72.0578 14.5576
L71.4530 14.5576
" />
<path d="M71.4530 14.5576
L71.3926 15.1624
" />
<path d="M71.3926 15.1624
L71.4530 15.1019
" />
<path d="M71.4530 15.1019
L71.5740 15.0414
" />
<path d="M71.5740 15.0414
L71.8764 15.0414
" />
<path d="M71.8764 15.0414
L71.9973 15.1019
" />
<path d="M71.9973 15.1019
L72.0578 15.1624
" />
<path d="M72.0578 15.1624
L72.1183 15.2833
" />
<path d="M72.1183 15.2833
L72.1183 15.5857
" />
<path d="M72.1183 15.5857
L72.0578 15.7067
" />
<path d="M72.0578 15.7067
L71.9973 15.7672
" />
<path d="M71.9973 15.7672
L71.8764 15.8276
" />
<path d="M71.8764 15.8276
L71.5740 15.8276
" />
<path d="M71.5740 15.8276
L71.4530 15.7672
" />
<path d="M71.4530 15.7672
L71.3926 15.7067
" />
<path d="M72.6625 15.7067
L72.7230 15.7672
" />
<path d="M72.7230 15.7672
L72.6625 15.8276
" />
<path d="M72.6625 15.8276
L72.6021 15.7672
" />
<path d="M72.6021 15.7672
L72.6625 15.7067
" />
<path d="M72.6625 15.7067
L72.6625 15.8276
" />
<path d="M73.2673 14.9810
L73.2673 16.2510
" />
<path d="M73.2673 15.0414
L73.3883 14.9810
" />
<path d="M73.3883 14.9810
L73.6302 14.9810
" />
<path d="M73.6302 14.9810
L73.7511 15.0414
" />
<path d="M73.7511 15.0414
L73.8116 15.1019
" />
<path d="M73.8116 15.1019
L73.8721 15.2229
" />
<path d="M73.8721 15.2229
L73.8721 15.5857
" />
<path d="M73.8721 15.5857
L73.8116 15.7067
" />
<path d="M73.8116 15.7067
L73.7511 15.7672
" />
<path d="M73.7511 15.7672
L73.6302 15.8276
" />
<path d="M73.6302 15.8276
L73.3883 15.8276
" />
<path d="M73.3883 15.8276
L73.2673 15.7672
" />
<path d="M74.9606 15.8276
L74.9606 14.5576
" />
<path d="M74.9606 15.7672
L74.8397 15.8276
" />
<path d="M74.8397 15.8276
L74.5978 15.8276
" />
<path d="M74.5978 15.8276
L74.4768 15.7672
" />
<path d="M74.4768 15.7672
L74.4163 15.7067
" />
<path d="M74.4163 15.7067
L74.3559 15.5857
" />
<path d="M74.3559 15.5857
L74.3559 15.2229
" />
<path d="M74.3559 15.2229
L74.4163 15.1019
" />
<path d="M74.4163 15.1019
L74.4768 15.0414
" />
<path d="M74.4768 15.0414
L74.5978 14.9810
" />
<path d="M74.5978 14.9810
L74.8397 14.9810
" />
<path d="M74.8397 14.9810
L74.9606 15.0414
" />
<path d="M75.3839 14.9810
L75.8677 14.9810
" />
<path d="M75.5653 15.8276
L75.5653 14.7391
" />
<path d="M75.5653 14.7391
L75.6258 14.6181
" />
<path d="M75.6258 14.6181
L75.7468 14.5576
" />
<path d="M75.7468 14.5576
L75.8677 14.5576
" />
</g></g> 
</svg>
