<?xml version="1.0" standalone="no"?>
 <!DOCTYPE svg PUBLIC "-//W3C//DTD SVG 1.1//EN" 
 "http://www.w3.org/Graphics/SVG/1.1/DTD/svg11.dtd"> 
<svg
  xmlns:svg="http://www.w3.org/2000/svg"
  xmlns="http://www.w3.org/2000/svg"
  xmlns:xlink="http://www.w3.org/1999/xlink"
  version="1.1"
  width="13.5382mm" height="42.0878mm" viewBox="0.0000 0.0000 13.5382 42.0878">
<title>SVG Image created as working.svg date 2023/08/09 04:11:09 </title>
  <desc>Image generated by Eeschema-SVG </desc>
<g style="fill:#000000; fill-opacity:1.0000;stroke:#000000; stroke-opacity:1.0000;
stroke-linecap:round; stroke-linejoin:round;"
 transform="translate(0 0) scale(1 1)">
</g>
<g style="fill:#840000; fill-opacity:0.0; 
stroke:#840000; stroke-width:0.0000; stroke-opacity:1; 
stroke-linecap:round; stroke-linejoin:round;">
</g>
<g style="fill:#840084; fill-opacity:0.0; 
stroke:#840084; stroke-width:0.0000; stroke-opacity:1; 
stroke-linecap:round; stroke-linejoin:round;">
</g>
<g style="fill:#840000; fill-opacity:0.0; 
stroke:#840000; stroke-width:0.0000; stroke-opacity:1; 
stroke-linecap:round; stroke-linejoin:round;">
</g>
<g style="fill:#840084; fill-opacity:0.0; 
stroke:#840084; stroke-width:0.0000; stroke-opacity:1; 
stroke-linecap:round; stroke-linejoin:round;">
</g>
<g style="fill:#006464; fill-opacity:0.0; 
stroke:#006464; stroke-width:0.0000; stroke-opacity:1; 
stroke-linecap:round; stroke-linejoin:round;">
</g>
<g style="fill:#006464; fill-opacity:0.0; 
stroke:#006464; stroke-width:0.1588; stroke-opacity:1; 
stroke-linecap:round; stroke-linejoin:round;">
<text x="10.3074" y="5.1629"
textLength="2.6415" font-size="1.6933" lengthAdjust="spacingAndGlyphs"
text-anchor="middle" opacity="0">U?</text>
<g class="stroked-text"><desc>U?</desc>
<path d="M9.4002 3.8371
L9.4002 4.8652
" />
<path d="M9.4002 4.8652
L9.4607 4.9862
" />
<path d="M9.4607 4.9862
L9.5212 5.0467
" />
<path d="M9.5212 5.0467
L9.6421 5.1071
" />
<path d="M9.6421 5.1071
L9.8840 5.1071
" />
<path d="M9.8840 5.1071
L10.0050 5.0467
" />
<path d="M10.0050 5.0467
L10.0655 4.9862
" />
<path d="M10.0655 4.9862
L10.1259 4.8652
" />
<path d="M10.1259 4.8652
L10.1259 3.8371
" />
<path d="M10.9122 4.9862
L10.9726 5.0467
" />
<path d="M10.9726 5.0467
L10.9122 5.1071
" />
<path d="M10.9122 5.1071
L10.8517 5.0467
" />
<path d="M10.8517 5.0467
L10.9122 4.9862
" />
<path d="M10.9122 4.9862
L10.9122 5.1071
" />
<path d="M10.6703 3.8976
L10.7912 3.8371
" />
<path d="M10.7912 3.8371
L11.0936 3.8371
" />
<path d="M11.0936 3.8371
L11.2145 3.8976
" />
<path d="M11.2145 3.8976
L11.2750 4.0186
" />
<path d="M11.2750 4.0186
L11.2750 4.1395
" />
<path d="M11.2750 4.1395
L11.2145 4.2605
" />
<path d="M11.2145 4.2605
L11.1541 4.3209
" />
<path d="M11.1541 4.3209
L11.0331 4.3814
" />
<path d="M11.0331 4.3814
L10.9726 4.4419
" />
<path d="M10.9726 4.4419
L10.9122 4.5628
" />
<path d="M10.9122 4.5628
L10.9122 4.6233
" />
</g><text x="8.1604" y="38.1829"
textLength="8.5075" font-size="1.6933" lengthAdjust="spacingAndGlyphs"
text-anchor="middle" opacity="0">74LS639</text>
<g class="stroked-text"><desc>74LS639</desc>
<path d="M4.1993 36.8571
L5.0459 36.8571
" />
<path d="M5.0459 36.8571
L4.5017 38.1271
" />
<path d="M6.0740 37.2805
L6.0740 38.1271
" />
<path d="M5.7716 36.7967
L5.4693 37.7038
" />
<path d="M5.4693 37.7038
L6.2554 37.7038
" />
<path d="M7.3440 38.1271
L6.7392 38.1271
" />
<path d="M6.7392 38.1271
L6.7392 36.8571
" />
<path d="M7.7069 38.0667
L7.8883 38.1271
" />
<path d="M7.8883 38.1271
L8.1907 38.1271
" />
<path d="M8.1907 38.1271
L8.3116 38.0667
" />
<path d="M8.3116 38.0667
L8.3721 38.0062
" />
<path d="M8.3721 38.0062
L8.4326 37.8852
" />
<path d="M8.4326 37.8852
L8.4326 37.7643
" />
<path d="M8.4326 37.7643
L8.3721 37.6433
" />
<path d="M8.3721 37.6433
L8.3116 37.5828
" />
<path d="M8.3116 37.5828
L8.1907 37.5224
" />
<path d="M8.1907 37.5224
L7.9488 37.4619
" />
<path d="M7.9488 37.4619
L7.8278 37.4014
" />
<path d="M7.8278 37.4014
L7.7673 37.3409
" />
<path d="M7.7673 37.3409
L7.7069 37.2200
" />
<path d="M7.7069 37.2200
L7.7069 37.0990
" />
<path d="M7.7069 37.0990
L7.7673 36.9781
" />
<path d="M7.7673 36.9781
L7.8278 36.9176
" />
<path d="M7.8278 36.9176
L7.9488 36.8571
" />
<path d="M7.9488 36.8571
L8.2511 36.8571
" />
<path d="M8.2511 36.8571
L8.4326 36.9176
" />
<path d="M9.5211 36.8571
L9.2792 36.8571
" />
<path d="M9.2792 36.8571
L9.1583 36.9176
" />
<path d="M9.1583 36.9176
L9.0978 36.9781
" />
<path d="M9.0978 36.9781
L8.9768 37.1595
" />
<path d="M8.9768 37.1595
L8.9164 37.4014
" />
<path d="M8.9164 37.4014
L8.9164 37.8852
" />
<path d="M8.9164 37.8852
L8.9768 38.0062
" />
<path d="M8.9768 38.0062
L9.0373 38.0667
" />
<path d="M9.0373 38.0667
L9.1583 38.1271
" />
<path d="M9.1583 38.1271
L9.4002 38.1271
" />
<path d="M9.4002 38.1271
L9.5211 38.0667
" />
<path d="M9.5211 38.0667
L9.5816 38.0062
" />
<path d="M9.5816 38.0062
L9.6421 37.8852
" />
<path d="M9.6421 37.8852
L9.6421 37.5828
" />
<path d="M9.6421 37.5828
L9.5816 37.4619
" />
<path d="M9.5816 37.4619
L9.5211 37.4014
" />
<path d="M9.5211 37.4014
L9.4002 37.3409
" />
<path d="M9.4002 37.3409
L9.1583 37.3409
" />
<path d="M9.1583 37.3409
L9.0373 37.4014
" />
<path d="M9.0373 37.4014
L8.9768 37.4619
" />
<path d="M8.9768 37.4619
L8.9164 37.5828
" />
<path d="M10.0654 36.8571
L10.8516 36.8571
" />
<path d="M10.8516 36.8571
L10.4282 37.3409
" />
<path d="M10.4282 37.3409
L10.6097 37.3409
" />
<path d="M10.6097 37.3409
L10.7306 37.4014
" />
<path d="M10.7306 37.4014
L10.7911 37.4619
" />
<path d="M10.7911 37.4619
L10.8516 37.5828
" />
<path d="M10.8516 37.5828
L10.8516 37.8852
" />
<path d="M10.8516 37.8852
L10.7911 38.0062
" />
<path d="M10.7911 38.0062
L10.7306 38.0667
" />
<path d="M10.7306 38.0667
L10.6097 38.1271
" />
<path d="M10.6097 38.1271
L10.2468 38.1271
" />
<path d="M10.2468 38.1271
L10.1259 38.0667
" />
<path d="M10.1259 38.0667
L10.0654 38.0062
" />
<path d="M11.4563 38.1271
L11.6982 38.1271
" />
<path d="M11.6982 38.1271
L11.8192 38.0667
" />
<path d="M11.8192 38.0667
L11.8796 38.0062
" />
<path d="M11.8796 38.0062
L12.0006 37.8247
" />
<path d="M12.0006 37.8247
L12.0611 37.5828
" />
<path d="M12.0611 37.5828
L12.0611 37.0990
" />
<path d="M12.0611 37.0990
L12.0006 36.9781
" />
<path d="M12.0006 36.9781
L11.9401 36.9176
" />
<path d="M11.9401 36.9176
L11.8192 36.8571
" />
<path d="M11.8192 36.8571
L11.5773 36.8571
" />
<path d="M11.5773 36.8571
L11.4563 36.9176
" />
<path d="M11.4563 36.9176
L11.3958 36.9781
" />
<path d="M11.3958 36.9781
L11.3354 37.0990
" />
<path d="M11.3354 37.0990
L11.3354 37.4014
" />
<path d="M11.3354 37.4014
L11.3958 37.5224
" />
<path d="M11.3958 37.5224
L11.4563 37.5828
" />
<path d="M11.4563 37.5828
L11.5773 37.6433
" />
<path d="M11.5773 37.6433
L11.8192 37.6433
" />
<path d="M11.8192 37.6433
L11.9401 37.5828
" />
<path d="M11.9401 37.5828
L12.0006 37.5224
" />
<path d="M12.0006 37.5224
L12.0611 37.4014
" />
</g></g> 
</svg>
