<?xml version="1.0" standalone="no"?>
 <!DOCTYPE svg PUBLIC "-//W3C//DTD SVG 1.1//EN" 
 "http://www.w3.org/Graphics/SVG/1.1/DTD/svg11.dtd"> 
<svg
  xmlns:svg="http://www.w3.org/2000/svg"
  xmlns="http://www.w3.org/2000/svg"
  xmlns:xlink="http://www.w3.org/1999/xlink"
  version="1.1"
  width="25.8572mm" height="20.2946mm" viewBox="0.0000 0.0000 25.8572 20.2946">
<title>SVG Image created as working.svg date 2023/08/02 18:48:41 </title>
  <desc>Image generated by Eeschema-SVG </desc>
<g style="fill:#000000; fill-opacity:1.0000;stroke:#000000; stroke-opacity:1.0000;
stroke-linecap:round; stroke-linejoin:round;"
 transform="translate(0 0) scale(1 1)">
</g>
<g style="fill:#840000; fill-opacity:0.0; 
stroke:#840000; stroke-width:0.0000; stroke-opacity:1; 
stroke-linecap:round; stroke-linejoin:round;">
</g>
<g style="fill:#FFFFC2; fill-opacity:0.0; 
stroke:#FFFFC2; stroke-width:0.0000; stroke-opacity:1; 
stroke-linecap:round; stroke-linejoin:round;">
</g>
<g style="fill:#FFFFC2; fill-opacity:1.0000; 
stroke:#FFFFC2; stroke-width:0.0000; stroke-opacity:1; 
stroke-linecap:round; stroke-linejoin:round;">
<rect x="11.660800" y="3.794200" width="2.540000" height="12.700000" rx="0.000000" />
</g>
<g style="fill:#840084; fill-opacity:1.0000; 
stroke:#840084; stroke-width:0.0000; stroke-opacity:1; 
stroke-linecap:round; stroke-linejoin:round;">
</g>
<g style="fill:#840000; fill-opacity:1.0000; 
stroke:#840000; stroke-width:0.0000; stroke-opacity:1; 
stroke-linecap:round; stroke-linejoin:round;">
</g>
<g style="fill:#840000; fill-opacity:0.0; 
stroke:#840000; stroke-width:0.2540; stroke-opacity:1; 
stroke-linecap:round; stroke-linejoin:round;">
<rect x="11.660800" y="3.794200" width="2.540000" height="12.700000" rx="0.000000" />
</g>
<g style="fill:#840000; fill-opacity:0.0; 
stroke:#840000; stroke-width:0.1524; stroke-opacity:1; 
stroke-linecap:round; stroke-linejoin:round;">
<circle cx="12.9308" cy="15.2242" r="0.6350" /> 
<circle cx="12.9308" cy="12.6842" r="0.6350" /> 
<path style="fill:#840000; fill-opacity:0.0; 
stroke:#840000; stroke-width:0.1524; stroke-opacity:1; 
stroke-linecap:round; stroke-linejoin:round;fill:none"
d="M 12.3974,14.8940
13.2610,15.7322
" /> 
<path style="fill:#840000; fill-opacity:0.0; 
stroke:#840000; stroke-width:0.1524; stroke-opacity:1; 
stroke-linecap:round; stroke-linejoin:round;fill:none"
d="M 12.3974,12.3540
13.2610,13.1922
" /> 
<path style="fill:#840000; fill-opacity:0.0; 
stroke:#840000; stroke-width:0.1524; stroke-opacity:1; 
stroke-linecap:round; stroke-linejoin:round;fill:none"
d="M 12.3974,9.8140
13.2610,10.6522
" /> 
<path style="fill:#840000; fill-opacity:0.0; 
stroke:#840000; stroke-width:0.1524; stroke-opacity:1; 
stroke-linecap:round; stroke-linejoin:round;fill:none"
d="M 12.3974,7.2740
13.2610,8.1122
" /> 
<path style="fill:#840000; fill-opacity:0.0; 
stroke:#840000; stroke-width:0.1524; stroke-opacity:1; 
stroke-linecap:round; stroke-linejoin:round;fill:none"
d="M 12.3974,4.7340
13.2610,5.5722
" /> 
<path style="fill:#840000; fill-opacity:0.0; 
stroke:#840000; stroke-width:0.1524; stroke-opacity:1; 
stroke-linecap:round; stroke-linejoin:round;fill:none"
d="M 12.5752,14.7162
13.4388,15.5544
" /> 
<path style="fill:#840000; fill-opacity:0.0; 
stroke:#840000; stroke-width:0.1524; stroke-opacity:1; 
stroke-linecap:round; stroke-linejoin:round;fill:none"
d="M 12.5752,12.1762
13.4388,13.0144
" /> 
<path style="fill:#840000; fill-opacity:0.0; 
stroke:#840000; stroke-width:0.1524; stroke-opacity:1; 
stroke-linecap:round; stroke-linejoin:round;fill:none"
d="M 12.5752,9.6362
13.4388,10.4744
" /> 
<path style="fill:#840000; fill-opacity:0.0; 
stroke:#840000; stroke-width:0.1524; stroke-opacity:1; 
stroke-linecap:round; stroke-linejoin:round;fill:none"
d="M 12.5752,7.0962
13.4388,7.9344
" /> 
<path style="fill:#840000; fill-opacity:0.0; 
stroke:#840000; stroke-width:0.1524; stroke-opacity:1; 
stroke-linecap:round; stroke-linejoin:round;fill:none"
d="M 12.5752,4.5562
13.4388,5.3944
" /> 
<circle cx="12.9308" cy="10.1442" r="0.6350" /> 
<circle cx="12.9308" cy="7.6042" r="0.6350" /> 
<circle cx="12.9308" cy="5.0642" r="0.6350" /> 
<path d="M11.6608 5.0642
L7.8508 5.0642
" />
</g>
<g style="fill:#A90000; fill-opacity:0.0; 
stroke:#A90000; stroke-width:0.1524; stroke-opacity:1; 
stroke-linecap:round; stroke-linejoin:round;">
<text x="9.7558" y="4.8102"
textLength="1.3365" font-size="1.6933" lengthAdjust="spacingAndGlyphs"
text-anchor="middle" opacity="0">1</text>
<g class="stroked-text"><desc>1</desc>
<path d="M10.1187 4.6547
L9.3930 4.6547
" />
<path d="M9.7558 4.6547
L9.7558 3.3847
" />
<path d="M9.7558 3.3847
L9.6349 3.5662
" />
<path d="M9.6349 3.5662
L9.5139 3.6871
" />
<path d="M9.5139 3.6871
L9.3930 3.7476
" />
</g></g>
<g style="fill:#840000; fill-opacity:0.0; 
stroke:#840000; stroke-width:0.1524; stroke-opacity:1; 
stroke-linecap:round; stroke-linejoin:round;">
<path d="M11.6608 7.6042
L7.8508 7.6042
" />
</g>
<g style="fill:#A90000; fill-opacity:0.0; 
stroke:#A90000; stroke-width:0.1524; stroke-opacity:1; 
stroke-linecap:round; stroke-linejoin:round;">
<text x="9.7558" y="7.3502"
textLength="1.3365" font-size="1.6933" lengthAdjust="spacingAndGlyphs"
text-anchor="middle" opacity="0">2</text>
<g class="stroked-text"><desc>2</desc>
<path d="M9.3930 6.0457
L9.4534 5.9852
" />
<path d="M9.4534 5.9852
L9.5744 5.9247
" />
<path d="M9.5744 5.9247
L9.8768 5.9247
" />
<path d="M9.8768 5.9247
L9.9977 5.9852
" />
<path d="M9.9977 5.9852
L10.0582 6.0457
" />
<path d="M10.0582 6.0457
L10.1187 6.1666
" />
<path d="M10.1187 6.1666
L10.1187 6.2876
" />
<path d="M10.1187 6.2876
L10.0582 6.4690
" />
<path d="M10.0582 6.4690
L9.3325 7.1947
" />
<path d="M9.3325 7.1947
L10.1187 7.1947
" />
</g></g>
<g style="fill:#840000; fill-opacity:0.0; 
stroke:#840000; stroke-width:0.1524; stroke-opacity:1; 
stroke-linecap:round; stroke-linejoin:round;">
<path d="M11.6608 10.1442
L7.8508 10.1442
" />
</g>
<g style="fill:#A90000; fill-opacity:0.0; 
stroke:#A90000; stroke-width:0.1524; stroke-opacity:1; 
stroke-linecap:round; stroke-linejoin:round;">
<text x="9.7558" y="9.8902"
textLength="1.3365" font-size="1.6933" lengthAdjust="spacingAndGlyphs"
text-anchor="middle" opacity="0">3</text>
<g class="stroked-text"><desc>3</desc>
<path d="M9.3325 8.4647
L10.1187 8.4647
" />
<path d="M10.1187 8.4647
L9.6953 8.9485
" />
<path d="M9.6953 8.9485
L9.8768 8.9485
" />
<path d="M9.8768 8.9485
L9.9977 9.0090
" />
<path d="M9.9977 9.0090
L10.0582 9.0695
" />
<path d="M10.0582 9.0695
L10.1187 9.1904
" />
<path d="M10.1187 9.1904
L10.1187 9.4928
" />
<path d="M10.1187 9.4928
L10.0582 9.6138
" />
<path d="M10.0582 9.6138
L9.9977 9.6743
" />
<path d="M9.9977 9.6743
L9.8768 9.7347
" />
<path d="M9.8768 9.7347
L9.5139 9.7347
" />
<path d="M9.5139 9.7347
L9.3930 9.6743
" />
<path d="M9.3930 9.6743
L9.3325 9.6138
" />
</g></g>
<g style="fill:#840000; fill-opacity:0.0; 
stroke:#840000; stroke-width:0.1524; stroke-opacity:1; 
stroke-linecap:round; stroke-linejoin:round;">
<path d="M11.6608 12.6842
L7.8508 12.6842
" />
</g>
<g style="fill:#A90000; fill-opacity:0.0; 
stroke:#A90000; stroke-width:0.1524; stroke-opacity:1; 
stroke-linecap:round; stroke-linejoin:round;">
<text x="9.7558" y="12.4302"
textLength="1.3365" font-size="1.6933" lengthAdjust="spacingAndGlyphs"
text-anchor="middle" opacity="0">4</text>
<g class="stroked-text"><desc>4</desc>
<path d="M9.9977 11.4281
L9.9977 12.2747
" />
<path d="M9.6953 10.9443
L9.3930 11.8514
" />
<path d="M9.3930 11.8514
L10.1791 11.8514
" />
</g></g>
<g style="fill:#840000; fill-opacity:0.0; 
stroke:#840000; stroke-width:0.1524; stroke-opacity:1; 
stroke-linecap:round; stroke-linejoin:round;">
<path d="M11.6608 15.2242
L7.8508 15.2242
" />
</g>
<g style="fill:#A90000; fill-opacity:0.0; 
stroke:#A90000; stroke-width:0.1524; stroke-opacity:1; 
stroke-linecap:round; stroke-linejoin:round;">
<text x="9.7558" y="14.9702"
textLength="1.3365" font-size="1.6933" lengthAdjust="spacingAndGlyphs"
text-anchor="middle" opacity="0">5</text>
<g class="stroked-text"><desc>5</desc>
<path d="M10.0582 13.5447
L9.4534 13.5447
" />
<path d="M9.4534 13.5447
L9.3930 14.1495
" />
<path d="M9.3930 14.1495
L9.4534 14.0890
" />
<path d="M9.4534 14.0890
L9.5744 14.0285
" />
<path d="M9.5744 14.0285
L9.8768 14.0285
" />
<path d="M9.8768 14.0285
L9.9977 14.0890
" />
<path d="M9.9977 14.0890
L10.0582 14.1495
" />
<path d="M10.0582 14.1495
L10.1187 14.2704
" />
<path d="M10.1187 14.2704
L10.1187 14.5728
" />
<path d="M10.1187 14.5728
L10.0582 14.6938
" />
<path d="M10.0582 14.6938
L9.9977 14.7543
" />
<path d="M9.9977 14.7543
L9.8768 14.8147
" />
<path d="M9.8768 14.8147
L9.5744 14.8147
" />
<path d="M9.5744 14.8147
L9.4534 14.7543
" />
<path d="M9.4534 14.7543
L9.3930 14.6938
" />
</g></g>
<g style="fill:#840084; fill-opacity:0.0; 
stroke:#840084; stroke-width:0.1524; stroke-opacity:1; 
stroke-linecap:round; stroke-linejoin:round;">
</g>
<g style="fill:#006464; fill-opacity:0.0; 
stroke:#006464; stroke-width:0.1524; stroke-opacity:1; 
stroke-linecap:round; stroke-linejoin:round;">
</g>
<g style="fill:#006464; fill-opacity:0.0; 
stroke:#006464; stroke-width:0.1588; stroke-opacity:1; 
stroke-linecap:round; stroke-linejoin:round;">
<text x="12.9308" y="3.1592"
textLength="2.1992" font-size="1.6933" lengthAdjust="spacingAndGlyphs"
text-anchor="middle" opacity="0">J?</text>
<g class="stroked-text"><desc>J?</desc>
<path d="M12.5679 1.8417
L12.5679 2.7489
" />
<path d="M12.5679 2.7489
L12.5074 2.9303
" />
<path d="M12.5074 2.9303
L12.3865 3.0513
" />
<path d="M12.3865 3.0513
L12.2050 3.1117
" />
<path d="M12.2050 3.1117
L12.0841 3.1117
" />
<path d="M13.3541 2.9908
L13.4145 3.0513
" />
<path d="M13.4145 3.0513
L13.3541 3.1117
" />
<path d="M13.3541 3.1117
L13.2936 3.0513
" />
<path d="M13.2936 3.0513
L13.3541 2.9908
" />
<path d="M13.3541 2.9908
L13.3541 3.1117
" />
<path d="M13.1122 1.9022
L13.2331 1.8417
" />
<path d="M13.2331 1.8417
L13.5355 1.8417
" />
<path d="M13.5355 1.8417
L13.6564 1.9022
" />
<path d="M13.6564 1.9022
L13.7169 2.0232
" />
<path d="M13.7169 2.0232
L13.7169 2.1441
" />
<path d="M13.7169 2.1441
L13.6564 2.2651
" />
<path d="M13.6564 2.2651
L13.5960 2.3255
" />
<path d="M13.5960 2.3255
L13.4750 2.3860
" />
<path d="M13.4750 2.3860
L13.4145 2.4465
" />
<path d="M13.4145 2.4465
L13.3541 2.5674
" />
<path d="M13.3541 2.5674
L13.3541 2.6279
" />
</g><text x="12.9308" y="18.3992"
textLength="21.5514" font-size="1.6933" lengthAdjust="spacingAndGlyphs"
text-anchor="middle" opacity="0">Screw_Terminal_01x05</text>
<g class="stroked-text"><desc>Screw_Terminal_01x05</desc>
<path d="M2.4685 18.2913
L2.6499 18.3517
" />
<path d="M2.6499 18.3517
L2.9523 18.3517
" />
<path d="M2.9523 18.3517
L3.0732 18.2913
" />
<path d="M3.0732 18.2913
L3.1337 18.2308
" />
<path d="M3.1337 18.2308
L3.1942 18.1098
" />
<path d="M3.1942 18.1098
L3.1942 17.9889
" />
<path d="M3.1942 17.9889
L3.1337 17.8679
" />
<path d="M3.1337 17.8679
L3.0732 17.8074
" />
<path d="M3.0732 17.8074
L2.9523 17.7470
" />
<path d="M2.9523 17.7470
L2.7104 17.6865
" />
<path d="M2.7104 17.6865
L2.5894 17.6260
" />
<path d="M2.5894 17.6260
L2.5289 17.5655
" />
<path d="M2.5289 17.5655
L2.4685 17.4446
" />
<path d="M2.4685 17.4446
L2.4685 17.3236
" />
<path d="M2.4685 17.3236
L2.5289 17.2027
" />
<path d="M2.5289 17.2027
L2.5894 17.1422
" />
<path d="M2.5894 17.1422
L2.7104 17.0817
" />
<path d="M2.7104 17.0817
L3.0127 17.0817
" />
<path d="M3.0127 17.0817
L3.1942 17.1422
" />
<path d="M4.2827 18.2913
L4.1618 18.3517
" />
<path d="M4.1618 18.3517
L3.9199 18.3517
" />
<path d="M3.9199 18.3517
L3.7989 18.2913
" />
<path d="M3.7989 18.2913
L3.7384 18.2308
" />
<path d="M3.7384 18.2308
L3.6780 18.1098
" />
<path d="M3.6780 18.1098
L3.6780 17.7470
" />
<path d="M3.6780 17.7470
L3.7384 17.6260
" />
<path d="M3.7384 17.6260
L3.7989 17.5655
" />
<path d="M3.7989 17.5655
L3.9199 17.5051
" />
<path d="M3.9199 17.5051
L4.1618 17.5051
" />
<path d="M4.1618 17.5051
L4.2827 17.5655
" />
<path d="M4.8270 18.3517
L4.8270 17.5051
" />
<path d="M4.8270 17.7470
L4.8875 17.6260
" />
<path d="M4.8875 17.6260
L4.9480 17.5655
" />
<path d="M4.9480 17.5655
L5.0689 17.5051
" />
<path d="M5.0689 17.5051
L5.1899 17.5051
" />
<path d="M6.0970 18.2913
L5.9761 18.3517
" />
<path d="M5.9761 18.3517
L5.7342 18.3517
" />
<path d="M5.7342 18.3517
L5.6132 18.2913
" />
<path d="M5.6132 18.2913
L5.5528 18.1703
" />
<path d="M5.5528 18.1703
L5.5528 17.6865
" />
<path d="M5.5528 17.6865
L5.6132 17.5655
" />
<path d="M5.6132 17.5655
L5.7342 17.5051
" />
<path d="M5.7342 17.5051
L5.9761 17.5051
" />
<path d="M5.9761 17.5051
L6.0970 17.5655
" />
<path d="M6.0970 17.5655
L6.1575 17.6865
" />
<path d="M6.1575 17.6865
L6.1575 17.8074
" />
<path d="M6.1575 17.8074
L5.5528 17.9284
" />
<path d="M6.5809 17.5051
L6.8228 18.3517
" />
<path d="M6.8228 18.3517
L7.0647 17.7470
" />
<path d="M7.0647 17.7470
L7.3066 18.3517
" />
<path d="M7.3066 18.3517
L7.5485 17.5051
" />
<path d="M7.7300 18.4727
L8.6976 18.4727
" />
<path d="M8.8185 17.0817
L9.5442 17.0817
" />
<path d="M9.1814 18.3517
L9.1814 17.0817
" />
<path d="M10.4513 18.2913
L10.3304 18.3517
" />
<path d="M10.3304 18.3517
L10.0885 18.3517
" />
<path d="M10.0885 18.3517
L9.9675 18.2913
" />
<path d="M9.9675 18.2913
L9.9071 18.1703
" />
<path d="M9.9071 18.1703
L9.9071 17.6865
" />
<path d="M9.9071 17.6865
L9.9675 17.5655
" />
<path d="M9.9675 17.5655
L10.0885 17.5051
" />
<path d="M10.0885 17.5051
L10.3304 17.5051
" />
<path d="M10.3304 17.5051
L10.4513 17.5655
" />
<path d="M10.4513 17.5655
L10.5118 17.6865
" />
<path d="M10.5118 17.6865
L10.5118 17.8074
" />
<path d="M10.5118 17.8074
L9.9071 17.9284
" />
<path d="M11.0561 18.3517
L11.0561 17.5051
" />
<path d="M11.0561 17.7470
L11.1166 17.6260
" />
<path d="M11.1166 17.6260
L11.1771 17.5655
" />
<path d="M11.1771 17.5655
L11.2980 17.5051
" />
<path d="M11.2980 17.5051
L11.4190 17.5051
" />
<path d="M11.8423 18.3517
L11.8423 17.5051
" />
<path d="M11.8423 17.6260
L11.9028 17.5655
" />
<path d="M11.9028 17.5655
L12.0238 17.5051
" />
<path d="M12.0238 17.5051
L12.2052 17.5051
" />
<path d="M12.2052 17.5051
L12.3261 17.5655
" />
<path d="M12.3261 17.5655
L12.3866 17.6865
" />
<path d="M12.3866 17.6865
L12.3866 18.3517
" />
<path d="M12.3866 17.6865
L12.4471 17.5655
" />
<path d="M12.4471 17.5655
L12.5680 17.5051
" />
<path d="M12.5680 17.5051
L12.7495 17.5051
" />
<path d="M12.7495 17.5051
L12.8704 17.5655
" />
<path d="M12.8704 17.5655
L12.9309 17.6865
" />
<path d="M12.9309 17.6865
L12.9309 18.3517
" />
<path d="M13.5356 18.3517
L13.5356 17.5051
" />
<path d="M13.5356 17.0817
L13.4752 17.1422
" />
<path d="M13.4752 17.1422
L13.5356 17.2027
" />
<path d="M13.5356 17.2027
L13.5961 17.1422
" />
<path d="M13.5961 17.1422
L13.5356 17.0817
" />
<path d="M13.5356 17.0817
L13.5356 17.2027
" />
<path d="M14.1404 17.5051
L14.1404 18.3517
" />
<path d="M14.1404 17.6260
L14.2009 17.5655
" />
<path d="M14.2009 17.5655
L14.3219 17.5051
" />
<path d="M14.3219 17.5051
L14.5033 17.5051
" />
<path d="M14.5033 17.5051
L14.6242 17.5655
" />
<path d="M14.6242 17.5655
L14.6847 17.6865
" />
<path d="M14.6847 17.6865
L14.6847 18.3517
" />
<path d="M15.8337 18.3517
L15.8337 17.6865
" />
<path d="M15.8337 17.6865
L15.7732 17.5655
" />
<path d="M15.7732 17.5655
L15.6523 17.5051
" />
<path d="M15.6523 17.5051
L15.4104 17.5051
" />
<path d="M15.4104 17.5051
L15.2894 17.5655
" />
<path d="M15.8337 18.2913
L15.7128 18.3517
" />
<path d="M15.7128 18.3517
L15.4104 18.3517
" />
<path d="M15.4104 18.3517
L15.2894 18.2913
" />
<path d="M15.2894 18.2913
L15.2290 18.1703
" />
<path d="M15.2290 18.1703
L15.2290 18.0493
" />
<path d="M15.2290 18.0493
L15.2894 17.9284
" />
<path d="M15.2894 17.9284
L15.4104 17.8679
" />
<path d="M15.4104 17.8679
L15.7128 17.8679
" />
<path d="M15.7128 17.8679
L15.8337 17.8074
" />
<path d="M16.6199 18.3517
L16.4989 18.2913
" />
<path d="M16.4989 18.2913
L16.4384 18.1703
" />
<path d="M16.4384 18.1703
L16.4384 17.0817
" />
<path d="M16.8013 18.4727
L17.7689 18.4727
" />
<path d="M18.3131 17.0817
L18.4341 17.0817
" />
<path d="M18.4341 17.0817
L18.5550 17.1422
" />
<path d="M18.5550 17.1422
L18.6155 17.2027
" />
<path d="M18.6155 17.2027
L18.6760 17.3236
" />
<path d="M18.6760 17.3236
L18.7365 17.5655
" />
<path d="M18.7365 17.5655
L18.7365 17.8679
" />
<path d="M18.7365 17.8679
L18.6760 18.1098
" />
<path d="M18.6760 18.1098
L18.6155 18.2308
" />
<path d="M18.6155 18.2308
L18.5550 18.2913
" />
<path d="M18.5550 18.2913
L18.4341 18.3517
" />
<path d="M18.4341 18.3517
L18.3131 18.3517
" />
<path d="M18.3131 18.3517
L18.1922 18.2913
" />
<path d="M18.1922 18.2913
L18.1317 18.2308
" />
<path d="M18.1317 18.2308
L18.0712 18.1098
" />
<path d="M18.0712 18.1098
L18.0108 17.8679
" />
<path d="M18.0108 17.8679
L18.0108 17.5655
" />
<path d="M18.0108 17.5655
L18.0712 17.3236
" />
<path d="M18.0712 17.3236
L18.1317 17.2027
" />
<path d="M18.1317 17.2027
L18.1922 17.1422
" />
<path d="M18.1922 17.1422
L18.3131 17.0817
" />
<path d="M19.9460 18.3517
L19.2203 18.3517
" />
<path d="M19.5831 18.3517
L19.5831 17.0817
" />
<path d="M19.5831 17.0817
L19.4622 17.2632
" />
<path d="M19.4622 17.2632
L19.3412 17.3841
" />
<path d="M19.3412 17.3841
L19.2203 17.4446
" />
<path d="M20.3693 18.3517
L21.0345 17.5051
" />
<path d="M20.3693 17.5051
L21.0345 18.3517
" />
<path d="M21.7602 17.0817
L21.8812 17.0817
" />
<path d="M21.8812 17.0817
L22.0021 17.1422
" />
<path d="M22.0021 17.1422
L22.0626 17.2027
" />
<path d="M22.0626 17.2027
L22.1231 17.3236
" />
<path d="M22.1231 17.3236
L22.1836 17.5655
" />
<path d="M22.1836 17.5655
L22.1836 17.8679
" />
<path d="M22.1836 17.8679
L22.1231 18.1098
" />
<path d="M22.1231 18.1098
L22.0626 18.2308
" />
<path d="M22.0626 18.2308
L22.0021 18.2913
" />
<path d="M22.0021 18.2913
L21.8812 18.3517
" />
<path d="M21.8812 18.3517
L21.7602 18.3517
" />
<path d="M21.7602 18.3517
L21.6393 18.2913
" />
<path d="M21.6393 18.2913
L21.5788 18.2308
" />
<path d="M21.5788 18.2308
L21.5183 18.1098
" />
<path d="M21.5183 18.1098
L21.4579 17.8679
" />
<path d="M21.4579 17.8679
L21.4579 17.5655
" />
<path d="M21.4579 17.5655
L21.5183 17.3236
" />
<path d="M21.5183 17.3236
L21.5788 17.2027
" />
<path d="M21.5788 17.2027
L21.6393 17.1422
" />
<path d="M21.6393 17.1422
L21.7602 17.0817
" />
<path d="M23.3326 17.0817
L22.7278 17.0817
" />
<path d="M22.7278 17.0817
L22.6674 17.6865
" />
<path d="M22.6674 17.6865
L22.7278 17.6260
" />
<path d="M22.7278 17.6260
L22.8488 17.5655
" />
<path d="M22.8488 17.5655
L23.1512 17.5655
" />
<path d="M23.1512 17.5655
L23.2721 17.6260
" />
<path d="M23.2721 17.6260
L23.3326 17.6865
" />
<path d="M23.3326 17.6865
L23.3931 17.8074
" />
<path d="M23.3931 17.8074
L23.3931 18.1098
" />
<path d="M23.3931 18.1098
L23.3326 18.2308
" />
<path d="M23.3326 18.2308
L23.2721 18.2913
" />
<path d="M23.2721 18.2913
L23.1512 18.3517
" />
<path d="M23.1512 18.3517
L22.8488 18.3517
" />
<path d="M22.8488 18.3517
L22.7278 18.2913
" />
<path d="M22.7278 18.2913
L22.6674 18.2308
" />
</g></g>
<g style="fill:#840084; fill-opacity:0.0; 
stroke:#840084; stroke-width:0.1588; stroke-opacity:1; 
stroke-linecap:round; stroke-linejoin:round;">
<text x="12.9308" y="10.7792"
textLength="1.0501" font-size="1.6933" lengthAdjust="spacingAndGlyphs"
text-anchor="middle" opacity="0">~</text>
<g class="stroked-text"><desc>~</desc>
<path d="M12.5982 10.2479
L12.6587 10.1874
" />
<path d="M12.6587 10.1874
L12.7796 10.1270
" />
<path d="M12.7796 10.1270
L13.0215 10.2479
" />
<path d="M13.0215 10.2479
L13.1425 10.1874
" />
<path d="M13.1425 10.1874
L13.2030 10.1270
" />
</g></g> 
</svg>
