<?xml version="1.0" standalone="no"?>
 <!DOCTYPE svg PUBLIC "-//W3C//DTD SVG 1.1//EN" 
 "http://www.w3.org/Graphics/SVG/1.1/DTD/svg11.dtd"> 
<svg
  xmlns:svg="http://www.w3.org/2000/svg"
  xmlns="http://www.w3.org/2000/svg"
  xmlns:xlink="http://www.w3.org/1999/xlink"
  version="1.1"
  width="45.6692mm" height="43.3578mm" viewBox="0.0000 0.0000 45.6692 43.3578">
<title>SVG Image created as working.svg date 2023/08/02 11:25:39 </title>
  <desc>Image generated by Eeschema-SVG </desc>
<g style="fill:#000000; fill-opacity:1.0000;stroke:#000000; stroke-opacity:1.0000;
stroke-linecap:round; stroke-linejoin:round;"
 transform="translate(0 0) scale(1 1)">
</g>
<g style="fill:#840000; fill-opacity:0.0; 
stroke:#840000; stroke-width:0.0000; stroke-opacity:1; 
stroke-linecap:round; stroke-linejoin:round;">
</g>
<g style="fill:#FFFFC2; fill-opacity:0.0; 
stroke:#FFFFC2; stroke-width:0.0000; stroke-opacity:1; 
stroke-linecap:round; stroke-linejoin:round;">
</g>
<g style="fill:#FFFFC2; fill-opacity:1.0000; 
stroke:#FFFFC2; stroke-width:0.0000; stroke-opacity:1; 
stroke-linecap:round; stroke-linejoin:round;">
<rect x="7.869000" y="5.717400" width="4.572000" height="29.972000" rx="0.000000" />
</g>
<g style="fill:#840084; fill-opacity:1.0000; 
stroke:#840084; stroke-width:0.0000; stroke-opacity:1; 
stroke-linecap:round; stroke-linejoin:round;">
</g>
<g style="fill:#840000; fill-opacity:1.0000; 
stroke:#840000; stroke-width:0.0000; stroke-opacity:1; 
stroke-linecap:round; stroke-linejoin:round;">
</g>
<g style="fill:#840000; fill-opacity:0.0; 
stroke:#840000; stroke-width:0.1524; stroke-opacity:1; 
stroke-linecap:round; stroke-linejoin:round;">
<rect x="7.615000" y="5.463400" width="5.080000" height="30.480000" rx="0.000000" />
<rect x="7.869000" y="34.546400" width="1.270000" height="0.254000" rx="0.000000" />
<rect x="7.869000" y="32.006400" width="1.270000" height="0.254000" rx="0.000000" />
<rect x="7.869000" y="29.466400" width="1.270000" height="0.254000" rx="0.000000" />
<rect x="7.869000" y="26.926400" width="1.270000" height="0.254000" rx="0.000000" />
<rect x="7.869000" y="24.386400" width="1.270000" height="0.254000" rx="0.000000" />
<rect x="7.869000" y="21.846400" width="1.270000" height="0.254000" rx="0.000000" />
<rect x="7.869000" y="19.306400" width="1.270000" height="0.254000" rx="0.000000" />
<rect x="7.869000" y="16.766400" width="1.270000" height="0.254000" rx="0.000000" />
<rect x="7.869000" y="14.226400" width="1.270000" height="0.254000" rx="0.000000" />
<rect x="7.869000" y="11.686400" width="1.270000" height="0.254000" rx="0.000000" />
<rect x="7.869000" y="9.146400" width="1.270000" height="0.254000" rx="0.000000" />
<rect x="7.869000" y="6.606400" width="1.270000" height="0.254000" rx="0.000000" />
</g>
<g style="fill:#840000; fill-opacity:0.0; 
stroke:#840000; stroke-width:0.2540; stroke-opacity:1; 
stroke-linecap:round; stroke-linejoin:round;">
<rect x="7.869000" y="5.717400" width="4.572000" height="29.972000" rx="0.000000" />
</g>
<g style="fill:#840000; fill-opacity:0.0; 
stroke:#840000; stroke-width:0.1524; stroke-opacity:1; 
stroke-linecap:round; stroke-linejoin:round;">
<rect x="11.171000" y="34.546400" width="1.270000" height="0.254000" rx="0.000000" />
<rect x="11.171000" y="32.006400" width="1.270000" height="0.254000" rx="0.000000" />
<rect x="11.171000" y="29.466400" width="1.270000" height="0.254000" rx="0.000000" />
<rect x="11.171000" y="26.926400" width="1.270000" height="0.254000" rx="0.000000" />
<rect x="11.171000" y="24.386400" width="1.270000" height="0.254000" rx="0.000000" />
<rect x="11.171000" y="21.846400" width="1.270000" height="0.254000" rx="0.000000" />
<rect x="11.171000" y="19.306400" width="1.270000" height="0.254000" rx="0.000000" />
<rect x="11.171000" y="16.766400" width="1.270000" height="0.254000" rx="0.000000" />
<rect x="11.171000" y="14.226400" width="1.270000" height="0.254000" rx="0.000000" />
<rect x="11.171000" y="11.686400" width="1.270000" height="0.254000" rx="0.000000" />
<rect x="11.171000" y="9.146400" width="1.270000" height="0.254000" rx="0.000000" />
<rect x="11.171000" y="6.606400" width="1.270000" height="0.254000" rx="0.000000" />
<path d="M7.8690 6.7334
L3.8050 6.7334
" />
</g>
<g style="fill:#A90000; fill-opacity:0.0; 
stroke:#A90000; stroke-width:0.1524; stroke-opacity:1; 
stroke-linecap:round; stroke-linejoin:round;">
<text x="5.8370" y="6.4794"
textLength="1.3365" font-size="1.6933" lengthAdjust="spacingAndGlyphs"
text-anchor="middle" opacity="0">1</text>
<g class="stroked-text"><desc>1</desc>
<path d="M6.1999 6.3239
L5.4742 6.3239
" />
<path d="M5.8370 6.3239
L5.8370 5.0539
" />
<path d="M5.8370 5.0539
L5.7161 5.2354
" />
<path d="M5.7161 5.2354
L5.5951 5.3563
" />
<path d="M5.5951 5.3563
L5.4742 5.4168
" />
</g></g>
<g style="fill:#840000; fill-opacity:0.0; 
stroke:#840000; stroke-width:0.1524; stroke-opacity:1; 
stroke-linecap:round; stroke-linejoin:round;">
<path d="M12.4410 16.8934
L16.5050 16.8934
" />
</g>
<g style="fill:#A90000; fill-opacity:0.0; 
stroke:#A90000; stroke-width:0.1524; stroke-opacity:1; 
stroke-linecap:round; stroke-linejoin:round;">
<text x="14.4730" y="16.6394"
textLength="2.5460" font-size="1.6933" lengthAdjust="spacingAndGlyphs"
text-anchor="middle" opacity="0">10</text>
<g class="stroked-text"><desc>10</desc>
<path d="M14.2311 16.4839
L13.5054 16.4839
" />
<path d="M13.8682 16.4839
L13.8682 15.2139
" />
<path d="M13.8682 15.2139
L13.7473 15.3954
" />
<path d="M13.7473 15.3954
L13.6263 15.5163
" />
<path d="M13.6263 15.5163
L13.5054 15.5768
" />
<path d="M15.0172 15.2139
L15.1382 15.2139
" />
<path d="M15.1382 15.2139
L15.2591 15.2744
" />
<path d="M15.2591 15.2744
L15.3196 15.3349
" />
<path d="M15.3196 15.3349
L15.3801 15.4558
" />
<path d="M15.3801 15.4558
L15.4406 15.6977
" />
<path d="M15.4406 15.6977
L15.4406 16.0001
" />
<path d="M15.4406 16.0001
L15.3801 16.2420
" />
<path d="M15.3801 16.2420
L15.3196 16.3630
" />
<path d="M15.3196 16.3630
L15.2591 16.4235
" />
<path d="M15.2591 16.4235
L15.1382 16.4839
" />
<path d="M15.1382 16.4839
L15.0172 16.4839
" />
<path d="M15.0172 16.4839
L14.8963 16.4235
" />
<path d="M14.8963 16.4235
L14.8358 16.3630
" />
<path d="M14.8358 16.3630
L14.7753 16.2420
" />
<path d="M14.7753 16.2420
L14.7149 16.0001
" />
<path d="M14.7149 16.0001
L14.7149 15.6977
" />
<path d="M14.7149 15.6977
L14.7753 15.4558
" />
<path d="M14.7753 15.4558
L14.8358 15.3349
" />
<path d="M14.8358 15.3349
L14.8963 15.2744
" />
<path d="M14.8963 15.2744
L15.0172 15.2139
" />
</g></g>
<g style="fill:#840000; fill-opacity:0.0; 
stroke:#840000; stroke-width:0.1524; stroke-opacity:1; 
stroke-linecap:round; stroke-linejoin:round;">
<path d="M7.8690 19.4334
L3.8050 19.4334
" />
</g>
<g style="fill:#A90000; fill-opacity:0.0; 
stroke:#A90000; stroke-width:0.1524; stroke-opacity:1; 
stroke-linecap:round; stroke-linejoin:round;">
<text x="5.8370" y="19.1794"
textLength="2.5460" font-size="1.6933" lengthAdjust="spacingAndGlyphs"
text-anchor="middle" opacity="0">11</text>
<g class="stroked-text"><desc>11</desc>
<path d="M5.5951 19.0239
L4.8694 19.0239
" />
<path d="M5.2322 19.0239
L5.2322 17.7539
" />
<path d="M5.2322 17.7539
L5.1113 17.9354
" />
<path d="M5.1113 17.9354
L4.9903 18.0563
" />
<path d="M4.9903 18.0563
L4.8694 18.1168
" />
<path d="M6.8046 19.0239
L6.0789 19.0239
" />
<path d="M6.4417 19.0239
L6.4417 17.7539
" />
<path d="M6.4417 17.7539
L6.3208 17.9354
" />
<path d="M6.3208 17.9354
L6.1998 18.0563
" />
<path d="M6.1998 18.0563
L6.0789 18.1168
" />
</g></g>
<g style="fill:#840000; fill-opacity:0.0; 
stroke:#840000; stroke-width:0.1524; stroke-opacity:1; 
stroke-linecap:round; stroke-linejoin:round;">
<path d="M12.4410 19.4334
L16.5050 19.4334
" />
</g>
<g style="fill:#A90000; fill-opacity:0.0; 
stroke:#A90000; stroke-width:0.1524; stroke-opacity:1; 
stroke-linecap:round; stroke-linejoin:round;">
<text x="14.4730" y="19.1794"
textLength="2.5460" font-size="1.6933" lengthAdjust="spacingAndGlyphs"
text-anchor="middle" opacity="0">12</text>
<g class="stroked-text"><desc>12</desc>
<path d="M14.2311 19.0239
L13.5054 19.0239
" />
<path d="M13.8682 19.0239
L13.8682 17.7539
" />
<path d="M13.8682 17.7539
L13.7473 17.9354
" />
<path d="M13.7473 17.9354
L13.6263 18.0563
" />
<path d="M13.6263 18.0563
L13.5054 18.1168
" />
<path d="M14.7149 17.8749
L14.7753 17.8144
" />
<path d="M14.7753 17.8144
L14.8963 17.7539
" />
<path d="M14.8963 17.7539
L15.1987 17.7539
" />
<path d="M15.1987 17.7539
L15.3196 17.8144
" />
<path d="M15.3196 17.8144
L15.3801 17.8749
" />
<path d="M15.3801 17.8749
L15.4406 17.9958
" />
<path d="M15.4406 17.9958
L15.4406 18.1168
" />
<path d="M15.4406 18.1168
L15.3801 18.2982
" />
<path d="M15.3801 18.2982
L14.6544 19.0239
" />
<path d="M14.6544 19.0239
L15.4406 19.0239
" />
</g></g>
<g style="fill:#840000; fill-opacity:0.0; 
stroke:#840000; stroke-width:0.1524; stroke-opacity:1; 
stroke-linecap:round; stroke-linejoin:round;">
<path d="M7.8690 21.9734
L3.8050 21.9734
" />
</g>
<g style="fill:#A90000; fill-opacity:0.0; 
stroke:#A90000; stroke-width:0.1524; stroke-opacity:1; 
stroke-linecap:round; stroke-linejoin:round;">
<text x="5.8370" y="21.7194"
textLength="2.5460" font-size="1.6933" lengthAdjust="spacingAndGlyphs"
text-anchor="middle" opacity="0">13</text>
<g class="stroked-text"><desc>13</desc>
<path d="M5.5951 21.5639
L4.8694 21.5639
" />
<path d="M5.2322 21.5639
L5.2322 20.2939
" />
<path d="M5.2322 20.2939
L5.1113 20.4754
" />
<path d="M5.1113 20.4754
L4.9903 20.5963
" />
<path d="M4.9903 20.5963
L4.8694 20.6568
" />
<path d="M6.0184 20.2939
L6.8046 20.2939
" />
<path d="M6.8046 20.2939
L6.3812 20.7777
" />
<path d="M6.3812 20.7777
L6.5627 20.7777
" />
<path d="M6.5627 20.7777
L6.6836 20.8382
" />
<path d="M6.6836 20.8382
L6.7441 20.8987
" />
<path d="M6.7441 20.8987
L6.8046 21.0196
" />
<path d="M6.8046 21.0196
L6.8046 21.3220
" />
<path d="M6.8046 21.3220
L6.7441 21.4430
" />
<path d="M6.7441 21.4430
L6.6836 21.5035
" />
<path d="M6.6836 21.5035
L6.5627 21.5639
" />
<path d="M6.5627 21.5639
L6.1998 21.5639
" />
<path d="M6.1998 21.5639
L6.0789 21.5035
" />
<path d="M6.0789 21.5035
L6.0184 21.4430
" />
</g></g>
<g style="fill:#840000; fill-opacity:0.0; 
stroke:#840000; stroke-width:0.1524; stroke-opacity:1; 
stroke-linecap:round; stroke-linejoin:round;">
<path d="M12.4410 21.9734
L16.5050 21.9734
" />
</g>
<g style="fill:#A90000; fill-opacity:0.0; 
stroke:#A90000; stroke-width:0.1524; stroke-opacity:1; 
stroke-linecap:round; stroke-linejoin:round;">
<text x="14.4730" y="21.7194"
textLength="2.5460" font-size="1.6933" lengthAdjust="spacingAndGlyphs"
text-anchor="middle" opacity="0">14</text>
<g class="stroked-text"><desc>14</desc>
<path d="M14.2311 21.5639
L13.5054 21.5639
" />
<path d="M13.8682 21.5639
L13.8682 20.2939
" />
<path d="M13.8682 20.2939
L13.7473 20.4754
" />
<path d="M13.7473 20.4754
L13.6263 20.5963
" />
<path d="M13.6263 20.5963
L13.5054 20.6568
" />
<path d="M15.3196 20.7173
L15.3196 21.5639
" />
<path d="M15.0172 20.2335
L14.7149 21.1406
" />
<path d="M14.7149 21.1406
L15.5010 21.1406
" />
</g></g>
<g style="fill:#840000; fill-opacity:0.0; 
stroke:#840000; stroke-width:0.1524; stroke-opacity:1; 
stroke-linecap:round; stroke-linejoin:round;">
<path d="M7.8690 24.5134
L3.8050 24.5134
" />
</g>
<g style="fill:#A90000; fill-opacity:0.0; 
stroke:#A90000; stroke-width:0.1524; stroke-opacity:1; 
stroke-linecap:round; stroke-linejoin:round;">
<text x="5.8370" y="24.2594"
textLength="2.5460" font-size="1.6933" lengthAdjust="spacingAndGlyphs"
text-anchor="middle" opacity="0">15</text>
<g class="stroked-text"><desc>15</desc>
<path d="M5.5951 24.1039
L4.8694 24.1039
" />
<path d="M5.2322 24.1039
L5.2322 22.8339
" />
<path d="M5.2322 22.8339
L5.1113 23.0154
" />
<path d="M5.1113 23.0154
L4.9903 23.1363
" />
<path d="M4.9903 23.1363
L4.8694 23.1968
" />
<path d="M6.7441 22.8339
L6.1393 22.8339
" />
<path d="M6.1393 22.8339
L6.0789 23.4387
" />
<path d="M6.0789 23.4387
L6.1393 23.3782
" />
<path d="M6.1393 23.3782
L6.2603 23.3177
" />
<path d="M6.2603 23.3177
L6.5627 23.3177
" />
<path d="M6.5627 23.3177
L6.6836 23.3782
" />
<path d="M6.6836 23.3782
L6.7441 23.4387
" />
<path d="M6.7441 23.4387
L6.8046 23.5596
" />
<path d="M6.8046 23.5596
L6.8046 23.8620
" />
<path d="M6.8046 23.8620
L6.7441 23.9830
" />
<path d="M6.7441 23.9830
L6.6836 24.0435
" />
<path d="M6.6836 24.0435
L6.5627 24.1039
" />
<path d="M6.5627 24.1039
L6.2603 24.1039
" />
<path d="M6.2603 24.1039
L6.1393 24.0435
" />
<path d="M6.1393 24.0435
L6.0789 23.9830
" />
</g></g>
<g style="fill:#840000; fill-opacity:0.0; 
stroke:#840000; stroke-width:0.1524; stroke-opacity:1; 
stroke-linecap:round; stroke-linejoin:round;">
<path d="M12.4410 24.5134
L16.5050 24.5134
" />
</g>
<g style="fill:#A90000; fill-opacity:0.0; 
stroke:#A90000; stroke-width:0.1524; stroke-opacity:1; 
stroke-linecap:round; stroke-linejoin:round;">
<text x="14.4730" y="24.2594"
textLength="2.5460" font-size="1.6933" lengthAdjust="spacingAndGlyphs"
text-anchor="middle" opacity="0">16</text>
<g class="stroked-text"><desc>16</desc>
<path d="M14.2311 24.1039
L13.5054 24.1039
" />
<path d="M13.8682 24.1039
L13.8682 22.8339
" />
<path d="M13.8682 22.8339
L13.7473 23.0154
" />
<path d="M13.7473 23.0154
L13.6263 23.1363
" />
<path d="M13.6263 23.1363
L13.5054 23.1968
" />
<path d="M15.3196 22.8339
L15.0777 22.8339
" />
<path d="M15.0777 22.8339
L14.9568 22.8944
" />
<path d="M14.9568 22.8944
L14.8963 22.9549
" />
<path d="M14.8963 22.9549
L14.7753 23.1363
" />
<path d="M14.7753 23.1363
L14.7149 23.3782
" />
<path d="M14.7149 23.3782
L14.7149 23.8620
" />
<path d="M14.7149 23.8620
L14.7753 23.9830
" />
<path d="M14.7753 23.9830
L14.8358 24.0435
" />
<path d="M14.8358 24.0435
L14.9568 24.1039
" />
<path d="M14.9568 24.1039
L15.1987 24.1039
" />
<path d="M15.1987 24.1039
L15.3196 24.0435
" />
<path d="M15.3196 24.0435
L15.3801 23.9830
" />
<path d="M15.3801 23.9830
L15.4406 23.8620
" />
<path d="M15.4406 23.8620
L15.4406 23.5596
" />
<path d="M15.4406 23.5596
L15.3801 23.4387
" />
<path d="M15.3801 23.4387
L15.3196 23.3782
" />
<path d="M15.3196 23.3782
L15.1987 23.3177
" />
<path d="M15.1987 23.3177
L14.9568 23.3177
" />
<path d="M14.9568 23.3177
L14.8358 23.3782
" />
<path d="M14.8358 23.3782
L14.7753 23.4387
" />
<path d="M14.7753 23.4387
L14.7149 23.5596
" />
</g></g>
<g style="fill:#840000; fill-opacity:0.0; 
stroke:#840000; stroke-width:0.1524; stroke-opacity:1; 
stroke-linecap:round; stroke-linejoin:round;">
<path d="M7.8690 27.0534
L3.8050 27.0534
" />
</g>
<g style="fill:#A90000; fill-opacity:0.0; 
stroke:#A90000; stroke-width:0.1524; stroke-opacity:1; 
stroke-linecap:round; stroke-linejoin:round;">
<text x="5.8370" y="26.7994"
textLength="2.5460" font-size="1.6933" lengthAdjust="spacingAndGlyphs"
text-anchor="middle" opacity="0">17</text>
<g class="stroked-text"><desc>17</desc>
<path d="M5.5951 26.6439
L4.8694 26.6439
" />
<path d="M5.2322 26.6439
L5.2322 25.3739
" />
<path d="M5.2322 25.3739
L5.1113 25.5554
" />
<path d="M5.1113 25.5554
L4.9903 25.6763
" />
<path d="M4.9903 25.6763
L4.8694 25.7368
" />
<path d="M6.0184 25.3739
L6.8650 25.3739
" />
<path d="M6.8650 25.3739
L6.3208 26.6439
" />
</g></g>
<g style="fill:#840000; fill-opacity:0.0; 
stroke:#840000; stroke-width:0.1524; stroke-opacity:1; 
stroke-linecap:round; stroke-linejoin:round;">
<path d="M12.4410 27.0534
L16.5050 27.0534
" />
</g>
<g style="fill:#A90000; fill-opacity:0.0; 
stroke:#A90000; stroke-width:0.1524; stroke-opacity:1; 
stroke-linecap:round; stroke-linejoin:round;">
<text x="14.4730" y="26.7994"
textLength="2.5460" font-size="1.6933" lengthAdjust="spacingAndGlyphs"
text-anchor="middle" opacity="0">18</text>
<g class="stroked-text"><desc>18</desc>
<path d="M14.2311 26.6439
L13.5054 26.6439
" />
<path d="M13.8682 26.6439
L13.8682 25.3739
" />
<path d="M13.8682 25.3739
L13.7473 25.5554
" />
<path d="M13.7473 25.5554
L13.6263 25.6763
" />
<path d="M13.6263 25.6763
L13.5054 25.7368
" />
<path d="M14.9568 25.9182
L14.8358 25.8577
" />
<path d="M14.8358 25.8577
L14.7753 25.7973
" />
<path d="M14.7753 25.7973
L14.7149 25.6763
" />
<path d="M14.7149 25.6763
L14.7149 25.6158
" />
<path d="M14.7149 25.6158
L14.7753 25.4949
" />
<path d="M14.7753 25.4949
L14.8358 25.4344
" />
<path d="M14.8358 25.4344
L14.9568 25.3739
" />
<path d="M14.9568 25.3739
L15.1987 25.3739
" />
<path d="M15.1987 25.3739
L15.3196 25.4344
" />
<path d="M15.3196 25.4344
L15.3801 25.4949
" />
<path d="M15.3801 25.4949
L15.4406 25.6158
" />
<path d="M15.4406 25.6158
L15.4406 25.6763
" />
<path d="M15.4406 25.6763
L15.3801 25.7973
" />
<path d="M15.3801 25.7973
L15.3196 25.8577
" />
<path d="M15.3196 25.8577
L15.1987 25.9182
" />
<path d="M15.1987 25.9182
L14.9568 25.9182
" />
<path d="M14.9568 25.9182
L14.8358 25.9787
" />
<path d="M14.8358 25.9787
L14.7753 26.0392
" />
<path d="M14.7753 26.0392
L14.7149 26.1601
" />
<path d="M14.7149 26.1601
L14.7149 26.4020
" />
<path d="M14.7149 26.4020
L14.7753 26.5230
" />
<path d="M14.7753 26.5230
L14.8358 26.5835
" />
<path d="M14.8358 26.5835
L14.9568 26.6439
" />
<path d="M14.9568 26.6439
L15.1987 26.6439
" />
<path d="M15.1987 26.6439
L15.3196 26.5835
" />
<path d="M15.3196 26.5835
L15.3801 26.5230
" />
<path d="M15.3801 26.5230
L15.4406 26.4020
" />
<path d="M15.4406 26.4020
L15.4406 26.1601
" />
<path d="M15.4406 26.1601
L15.3801 26.0392
" />
<path d="M15.3801 26.0392
L15.3196 25.9787
" />
<path d="M15.3196 25.9787
L15.1987 25.9182
" />
</g></g>
<g style="fill:#840000; fill-opacity:0.0; 
stroke:#840000; stroke-width:0.1524; stroke-opacity:1; 
stroke-linecap:round; stroke-linejoin:round;">
<path d="M7.8690 29.5934
L3.8050 29.5934
" />
</g>
<g style="fill:#A90000; fill-opacity:0.0; 
stroke:#A90000; stroke-width:0.1524; stroke-opacity:1; 
stroke-linecap:round; stroke-linejoin:round;">
<text x="5.8370" y="29.3394"
textLength="2.5460" font-size="1.6933" lengthAdjust="spacingAndGlyphs"
text-anchor="middle" opacity="0">19</text>
<g class="stroked-text"><desc>19</desc>
<path d="M5.5951 29.1839
L4.8694 29.1839
" />
<path d="M5.2322 29.1839
L5.2322 27.9139
" />
<path d="M5.2322 27.9139
L5.1113 28.0954
" />
<path d="M5.1113 28.0954
L4.9903 28.2163
" />
<path d="M4.9903 28.2163
L4.8694 28.2768
" />
<path d="M6.1998 29.1839
L6.4417 29.1839
" />
<path d="M6.4417 29.1839
L6.5627 29.1235
" />
<path d="M6.5627 29.1235
L6.6231 29.0630
" />
<path d="M6.6231 29.0630
L6.7441 28.8815
" />
<path d="M6.7441 28.8815
L6.8046 28.6396
" />
<path d="M6.8046 28.6396
L6.8046 28.1558
" />
<path d="M6.8046 28.1558
L6.7441 28.0349
" />
<path d="M6.7441 28.0349
L6.6836 27.9744
" />
<path d="M6.6836 27.9744
L6.5627 27.9139
" />
<path d="M6.5627 27.9139
L6.3208 27.9139
" />
<path d="M6.3208 27.9139
L6.1998 27.9744
" />
<path d="M6.1998 27.9744
L6.1393 28.0349
" />
<path d="M6.1393 28.0349
L6.0789 28.1558
" />
<path d="M6.0789 28.1558
L6.0789 28.4582
" />
<path d="M6.0789 28.4582
L6.1393 28.5792
" />
<path d="M6.1393 28.5792
L6.1998 28.6396
" />
<path d="M6.1998 28.6396
L6.3208 28.7001
" />
<path d="M6.3208 28.7001
L6.5627 28.7001
" />
<path d="M6.5627 28.7001
L6.6836 28.6396
" />
<path d="M6.6836 28.6396
L6.7441 28.5792
" />
<path d="M6.7441 28.5792
L6.8046 28.4582
" />
</g></g>
<g style="fill:#840000; fill-opacity:0.0; 
stroke:#840000; stroke-width:0.1524; stroke-opacity:1; 
stroke-linecap:round; stroke-linejoin:round;">
<path d="M12.4410 6.7334
L16.5050 6.7334
" />
</g>
<g style="fill:#A90000; fill-opacity:0.0; 
stroke:#A90000; stroke-width:0.1524; stroke-opacity:1; 
stroke-linecap:round; stroke-linejoin:round;">
<text x="14.4730" y="6.4794"
textLength="1.3365" font-size="1.6933" lengthAdjust="spacingAndGlyphs"
text-anchor="middle" opacity="0">2</text>
<g class="stroked-text"><desc>2</desc>
<path d="M14.1102 5.1749
L14.1706 5.1144
" />
<path d="M14.1706 5.1144
L14.2916 5.0539
" />
<path d="M14.2916 5.0539
L14.5940 5.0539
" />
<path d="M14.5940 5.0539
L14.7149 5.1144
" />
<path d="M14.7149 5.1144
L14.7754 5.1749
" />
<path d="M14.7754 5.1749
L14.8359 5.2958
" />
<path d="M14.8359 5.2958
L14.8359 5.4168
" />
<path d="M14.8359 5.4168
L14.7754 5.5982
" />
<path d="M14.7754 5.5982
L14.0497 6.3239
" />
<path d="M14.0497 6.3239
L14.8359 6.3239
" />
</g></g>
<g style="fill:#840000; fill-opacity:0.0; 
stroke:#840000; stroke-width:0.1524; stroke-opacity:1; 
stroke-linecap:round; stroke-linejoin:round;">
<path d="M12.4410 29.5934
L16.5050 29.5934
" />
</g>
<g style="fill:#A90000; fill-opacity:0.0; 
stroke:#A90000; stroke-width:0.1524; stroke-opacity:1; 
stroke-linecap:round; stroke-linejoin:round;">
<text x="14.4730" y="29.3394"
textLength="2.5460" font-size="1.6933" lengthAdjust="spacingAndGlyphs"
text-anchor="middle" opacity="0">20</text>
<g class="stroked-text"><desc>20</desc>
<path d="M13.5054 28.0349
L13.5658 27.9744
" />
<path d="M13.5658 27.9744
L13.6868 27.9139
" />
<path d="M13.6868 27.9139
L13.9892 27.9139
" />
<path d="M13.9892 27.9139
L14.1101 27.9744
" />
<path d="M14.1101 27.9744
L14.1706 28.0349
" />
<path d="M14.1706 28.0349
L14.2311 28.1558
" />
<path d="M14.2311 28.1558
L14.2311 28.2768
" />
<path d="M14.2311 28.2768
L14.1706 28.4582
" />
<path d="M14.1706 28.4582
L13.4449 29.1839
" />
<path d="M13.4449 29.1839
L14.2311 29.1839
" />
<path d="M15.0172 27.9139
L15.1382 27.9139
" />
<path d="M15.1382 27.9139
L15.2591 27.9744
" />
<path d="M15.2591 27.9744
L15.3196 28.0349
" />
<path d="M15.3196 28.0349
L15.3801 28.1558
" />
<path d="M15.3801 28.1558
L15.4406 28.3977
" />
<path d="M15.4406 28.3977
L15.4406 28.7001
" />
<path d="M15.4406 28.7001
L15.3801 28.9420
" />
<path d="M15.3801 28.9420
L15.3196 29.0630
" />
<path d="M15.3196 29.0630
L15.2591 29.1235
" />
<path d="M15.2591 29.1235
L15.1382 29.1839
" />
<path d="M15.1382 29.1839
L15.0172 29.1839
" />
<path d="M15.0172 29.1839
L14.8963 29.1235
" />
<path d="M14.8963 29.1235
L14.8358 29.0630
" />
<path d="M14.8358 29.0630
L14.7753 28.9420
" />
<path d="M14.7753 28.9420
L14.7149 28.7001
" />
<path d="M14.7149 28.7001
L14.7149 28.3977
" />
<path d="M14.7149 28.3977
L14.7753 28.1558
" />
<path d="M14.7753 28.1558
L14.8358 28.0349
" />
<path d="M14.8358 28.0349
L14.8963 27.9744
" />
<path d="M14.8963 27.9744
L15.0172 27.9139
" />
</g></g>
<g style="fill:#840000; fill-opacity:0.0; 
stroke:#840000; stroke-width:0.1524; stroke-opacity:1; 
stroke-linecap:round; stroke-linejoin:round;">
<path d="M7.8690 32.1334
L3.8050 32.1334
" />
</g>
<g style="fill:#A90000; fill-opacity:0.0; 
stroke:#A90000; stroke-width:0.1524; stroke-opacity:1; 
stroke-linecap:round; stroke-linejoin:round;">
<text x="5.8370" y="31.8794"
textLength="2.5460" font-size="1.6933" lengthAdjust="spacingAndGlyphs"
text-anchor="middle" opacity="0">21</text>
<g class="stroked-text"><desc>21</desc>
<path d="M4.8694 30.5749
L4.9298 30.5144
" />
<path d="M4.9298 30.5144
L5.0508 30.4539
" />
<path d="M5.0508 30.4539
L5.3532 30.4539
" />
<path d="M5.3532 30.4539
L5.4741 30.5144
" />
<path d="M5.4741 30.5144
L5.5346 30.5749
" />
<path d="M5.5346 30.5749
L5.5951 30.6958
" />
<path d="M5.5951 30.6958
L5.5951 30.8168
" />
<path d="M5.5951 30.8168
L5.5346 30.9982
" />
<path d="M5.5346 30.9982
L4.8089 31.7239
" />
<path d="M4.8089 31.7239
L5.5951 31.7239
" />
<path d="M6.8046 31.7239
L6.0789 31.7239
" />
<path d="M6.4417 31.7239
L6.4417 30.4539
" />
<path d="M6.4417 30.4539
L6.3208 30.6354
" />
<path d="M6.3208 30.6354
L6.1998 30.7563
" />
<path d="M6.1998 30.7563
L6.0789 30.8168
" />
</g></g>
<g style="fill:#840000; fill-opacity:0.0; 
stroke:#840000; stroke-width:0.1524; stroke-opacity:1; 
stroke-linecap:round; stroke-linejoin:round;">
<path d="M12.4410 32.1334
L16.5050 32.1334
" />
</g>
<g style="fill:#A90000; fill-opacity:0.0; 
stroke:#A90000; stroke-width:0.1524; stroke-opacity:1; 
stroke-linecap:round; stroke-linejoin:round;">
<text x="14.4730" y="31.8794"
textLength="2.5460" font-size="1.6933" lengthAdjust="spacingAndGlyphs"
text-anchor="middle" opacity="0">22</text>
<g class="stroked-text"><desc>22</desc>
<path d="M13.5054 30.5749
L13.5658 30.5144
" />
<path d="M13.5658 30.5144
L13.6868 30.4539
" />
<path d="M13.6868 30.4539
L13.9892 30.4539
" />
<path d="M13.9892 30.4539
L14.1101 30.5144
" />
<path d="M14.1101 30.5144
L14.1706 30.5749
" />
<path d="M14.1706 30.5749
L14.2311 30.6958
" />
<path d="M14.2311 30.6958
L14.2311 30.8168
" />
<path d="M14.2311 30.8168
L14.1706 30.9982
" />
<path d="M14.1706 30.9982
L13.4449 31.7239
" />
<path d="M13.4449 31.7239
L14.2311 31.7239
" />
<path d="M14.7149 30.5749
L14.7753 30.5144
" />
<path d="M14.7753 30.5144
L14.8963 30.4539
" />
<path d="M14.8963 30.4539
L15.1987 30.4539
" />
<path d="M15.1987 30.4539
L15.3196 30.5144
" />
<path d="M15.3196 30.5144
L15.3801 30.5749
" />
<path d="M15.3801 30.5749
L15.4406 30.6958
" />
<path d="M15.4406 30.6958
L15.4406 30.8168
" />
<path d="M15.4406 30.8168
L15.3801 30.9982
" />
<path d="M15.3801 30.9982
L14.6544 31.7239
" />
<path d="M14.6544 31.7239
L15.4406 31.7239
" />
</g></g>
<g style="fill:#840000; fill-opacity:0.0; 
stroke:#840000; stroke-width:0.1524; stroke-opacity:1; 
stroke-linecap:round; stroke-linejoin:round;">
<path d="M7.8690 34.6734
L3.8050 34.6734
" />
</g>
<g style="fill:#A90000; fill-opacity:0.0; 
stroke:#A90000; stroke-width:0.1524; stroke-opacity:1; 
stroke-linecap:round; stroke-linejoin:round;">
<text x="5.8370" y="34.4194"
textLength="2.5460" font-size="1.6933" lengthAdjust="spacingAndGlyphs"
text-anchor="middle" opacity="0">23</text>
<g class="stroked-text"><desc>23</desc>
<path d="M4.8694 33.1149
L4.9298 33.0544
" />
<path d="M4.9298 33.0544
L5.0508 32.9939
" />
<path d="M5.0508 32.9939
L5.3532 32.9939
" />
<path d="M5.3532 32.9939
L5.4741 33.0544
" />
<path d="M5.4741 33.0544
L5.5346 33.1149
" />
<path d="M5.5346 33.1149
L5.5951 33.2358
" />
<path d="M5.5951 33.2358
L5.5951 33.3568
" />
<path d="M5.5951 33.3568
L5.5346 33.5382
" />
<path d="M5.5346 33.5382
L4.8089 34.2639
" />
<path d="M4.8089 34.2639
L5.5951 34.2639
" />
<path d="M6.0184 32.9939
L6.8046 32.9939
" />
<path d="M6.8046 32.9939
L6.3812 33.4777
" />
<path d="M6.3812 33.4777
L6.5627 33.4777
" />
<path d="M6.5627 33.4777
L6.6836 33.5382
" />
<path d="M6.6836 33.5382
L6.7441 33.5987
" />
<path d="M6.7441 33.5987
L6.8046 33.7196
" />
<path d="M6.8046 33.7196
L6.8046 34.0220
" />
<path d="M6.8046 34.0220
L6.7441 34.1430
" />
<path d="M6.7441 34.1430
L6.6836 34.2035
" />
<path d="M6.6836 34.2035
L6.5627 34.2639
" />
<path d="M6.5627 34.2639
L6.1998 34.2639
" />
<path d="M6.1998 34.2639
L6.0789 34.2035
" />
<path d="M6.0789 34.2035
L6.0184 34.1430
" />
</g></g>
<g style="fill:#840000; fill-opacity:0.0; 
stroke:#840000; stroke-width:0.1524; stroke-opacity:1; 
stroke-linecap:round; stroke-linejoin:round;">
<path d="M12.4410 34.6734
L16.5050 34.6734
" />
</g>
<g style="fill:#A90000; fill-opacity:0.0; 
stroke:#A90000; stroke-width:0.1524; stroke-opacity:1; 
stroke-linecap:round; stroke-linejoin:round;">
<text x="14.4730" y="34.4194"
textLength="2.5460" font-size="1.6933" lengthAdjust="spacingAndGlyphs"
text-anchor="middle" opacity="0">24</text>
<g class="stroked-text"><desc>24</desc>
<path d="M13.5054 33.1149
L13.5658 33.0544
" />
<path d="M13.5658 33.0544
L13.6868 32.9939
" />
<path d="M13.6868 32.9939
L13.9892 32.9939
" />
<path d="M13.9892 32.9939
L14.1101 33.0544
" />
<path d="M14.1101 33.0544
L14.1706 33.1149
" />
<path d="M14.1706 33.1149
L14.2311 33.2358
" />
<path d="M14.2311 33.2358
L14.2311 33.3568
" />
<path d="M14.2311 33.3568
L14.1706 33.5382
" />
<path d="M14.1706 33.5382
L13.4449 34.2639
" />
<path d="M13.4449 34.2639
L14.2311 34.2639
" />
<path d="M15.3196 33.4173
L15.3196 34.2639
" />
<path d="M15.0172 32.9335
L14.7149 33.8406
" />
<path d="M14.7149 33.8406
L15.5010 33.8406
" />
</g></g>
<g style="fill:#840000; fill-opacity:0.0; 
stroke:#840000; stroke-width:0.1524; stroke-opacity:1; 
stroke-linecap:round; stroke-linejoin:round;">
<path d="M7.8690 9.2734
L3.8050 9.2734
" />
</g>
<g style="fill:#A90000; fill-opacity:0.0; 
stroke:#A90000; stroke-width:0.1524; stroke-opacity:1; 
stroke-linecap:round; stroke-linejoin:round;">
<text x="5.8370" y="9.0194"
textLength="1.3365" font-size="1.6933" lengthAdjust="spacingAndGlyphs"
text-anchor="middle" opacity="0">3</text>
<g class="stroked-text"><desc>3</desc>
<path d="M5.4137 7.5939
L6.1999 7.5939
" />
<path d="M6.1999 7.5939
L5.7765 8.0777
" />
<path d="M5.7765 8.0777
L5.9580 8.0777
" />
<path d="M5.9580 8.0777
L6.0789 8.1382
" />
<path d="M6.0789 8.1382
L6.1394 8.1987
" />
<path d="M6.1394 8.1987
L6.1999 8.3196
" />
<path d="M6.1999 8.3196
L6.1999 8.6220
" />
<path d="M6.1999 8.6220
L6.1394 8.7430
" />
<path d="M6.1394 8.7430
L6.0789 8.8035
" />
<path d="M6.0789 8.8035
L5.9580 8.8639
" />
<path d="M5.9580 8.8639
L5.5951 8.8639
" />
<path d="M5.5951 8.8639
L5.4742 8.8035
" />
<path d="M5.4742 8.8035
L5.4137 8.7430
" />
</g></g>
<g style="fill:#840000; fill-opacity:0.0; 
stroke:#840000; stroke-width:0.1524; stroke-opacity:1; 
stroke-linecap:round; stroke-linejoin:round;">
<path d="M12.4410 9.2734
L16.5050 9.2734
" />
</g>
<g style="fill:#A90000; fill-opacity:0.0; 
stroke:#A90000; stroke-width:0.1524; stroke-opacity:1; 
stroke-linecap:round; stroke-linejoin:round;">
<text x="14.4730" y="9.0194"
textLength="1.3365" font-size="1.6933" lengthAdjust="spacingAndGlyphs"
text-anchor="middle" opacity="0">4</text>
<g class="stroked-text"><desc>4</desc>
<path d="M14.7149 8.0173
L14.7149 8.8639
" />
<path d="M14.4125 7.5335
L14.1102 8.4406
" />
<path d="M14.1102 8.4406
L14.8963 8.4406
" />
</g></g>
<g style="fill:#840000; fill-opacity:0.0; 
stroke:#840000; stroke-width:0.1524; stroke-opacity:1; 
stroke-linecap:round; stroke-linejoin:round;">
<path d="M7.8690 11.8134
L3.8050 11.8134
" />
</g>
<g style="fill:#A90000; fill-opacity:0.0; 
stroke:#A90000; stroke-width:0.1524; stroke-opacity:1; 
stroke-linecap:round; stroke-linejoin:round;">
<text x="5.8370" y="11.5594"
textLength="1.3365" font-size="1.6933" lengthAdjust="spacingAndGlyphs"
text-anchor="middle" opacity="0">5</text>
<g class="stroked-text"><desc>5</desc>
<path d="M6.1394 10.1339
L5.5346 10.1339
" />
<path d="M5.5346 10.1339
L5.4742 10.7387
" />
<path d="M5.4742 10.7387
L5.5346 10.6782
" />
<path d="M5.5346 10.6782
L5.6556 10.6177
" />
<path d="M5.6556 10.6177
L5.9580 10.6177
" />
<path d="M5.9580 10.6177
L6.0789 10.6782
" />
<path d="M6.0789 10.6782
L6.1394 10.7387
" />
<path d="M6.1394 10.7387
L6.1999 10.8596
" />
<path d="M6.1999 10.8596
L6.1999 11.1620
" />
<path d="M6.1999 11.1620
L6.1394 11.2830
" />
<path d="M6.1394 11.2830
L6.0789 11.3435
" />
<path d="M6.0789 11.3435
L5.9580 11.4039
" />
<path d="M5.9580 11.4039
L5.6556 11.4039
" />
<path d="M5.6556 11.4039
L5.5346 11.3435
" />
<path d="M5.5346 11.3435
L5.4742 11.2830
" />
</g></g>
<g style="fill:#840000; fill-opacity:0.0; 
stroke:#840000; stroke-width:0.1524; stroke-opacity:1; 
stroke-linecap:round; stroke-linejoin:round;">
<path d="M12.4410 11.8134
L16.5050 11.8134
" />
</g>
<g style="fill:#A90000; fill-opacity:0.0; 
stroke:#A90000; stroke-width:0.1524; stroke-opacity:1; 
stroke-linecap:round; stroke-linejoin:round;">
<text x="14.4730" y="11.5594"
textLength="1.3365" font-size="1.6933" lengthAdjust="spacingAndGlyphs"
text-anchor="middle" opacity="0">6</text>
<g class="stroked-text"><desc>6</desc>
<path d="M14.7149 10.1339
L14.4730 10.1339
" />
<path d="M14.4730 10.1339
L14.3521 10.1944
" />
<path d="M14.3521 10.1944
L14.2916 10.2549
" />
<path d="M14.2916 10.2549
L14.1706 10.4363
" />
<path d="M14.1706 10.4363
L14.1102 10.6782
" />
<path d="M14.1102 10.6782
L14.1102 11.1620
" />
<path d="M14.1102 11.1620
L14.1706 11.2830
" />
<path d="M14.1706 11.2830
L14.2311 11.3435
" />
<path d="M14.2311 11.3435
L14.3521 11.4039
" />
<path d="M14.3521 11.4039
L14.5940 11.4039
" />
<path d="M14.5940 11.4039
L14.7149 11.3435
" />
<path d="M14.7149 11.3435
L14.7754 11.2830
" />
<path d="M14.7754 11.2830
L14.8359 11.1620
" />
<path d="M14.8359 11.1620
L14.8359 10.8596
" />
<path d="M14.8359 10.8596
L14.7754 10.7387
" />
<path d="M14.7754 10.7387
L14.7149 10.6782
" />
<path d="M14.7149 10.6782
L14.5940 10.6177
" />
<path d="M14.5940 10.6177
L14.3521 10.6177
" />
<path d="M14.3521 10.6177
L14.2311 10.6782
" />
<path d="M14.2311 10.6782
L14.1706 10.7387
" />
<path d="M14.1706 10.7387
L14.1102 10.8596
" />
</g></g>
<g style="fill:#840000; fill-opacity:0.0; 
stroke:#840000; stroke-width:0.1524; stroke-opacity:1; 
stroke-linecap:round; stroke-linejoin:round;">
<path d="M7.8690 14.3534
L3.8050 14.3534
" />
</g>
<g style="fill:#A90000; fill-opacity:0.0; 
stroke:#A90000; stroke-width:0.1524; stroke-opacity:1; 
stroke-linecap:round; stroke-linejoin:round;">
<text x="5.8370" y="14.0994"
textLength="1.3365" font-size="1.6933" lengthAdjust="spacingAndGlyphs"
text-anchor="middle" opacity="0">7</text>
<g class="stroked-text"><desc>7</desc>
<path d="M5.4137 12.6739
L6.2603 12.6739
" />
<path d="M6.2603 12.6739
L5.7161 13.9439
" />
</g></g>
<g style="fill:#840000; fill-opacity:0.0; 
stroke:#840000; stroke-width:0.1524; stroke-opacity:1; 
stroke-linecap:round; stroke-linejoin:round;">
<path d="M12.4410 14.3534
L16.5050 14.3534
" />
</g>
<g style="fill:#A90000; fill-opacity:0.0; 
stroke:#A90000; stroke-width:0.1524; stroke-opacity:1; 
stroke-linecap:round; stroke-linejoin:round;">
<text x="14.4730" y="14.0994"
textLength="1.3365" font-size="1.6933" lengthAdjust="spacingAndGlyphs"
text-anchor="middle" opacity="0">8</text>
<g class="stroked-text"><desc>8</desc>
<path d="M14.3521 13.2182
L14.2311 13.1577
" />
<path d="M14.2311 13.1577
L14.1706 13.0973
" />
<path d="M14.1706 13.0973
L14.1102 12.9763
" />
<path d="M14.1102 12.9763
L14.1102 12.9158
" />
<path d="M14.1102 12.9158
L14.1706 12.7949
" />
<path d="M14.1706 12.7949
L14.2311 12.7344
" />
<path d="M14.2311 12.7344
L14.3521 12.6739
" />
<path d="M14.3521 12.6739
L14.5940 12.6739
" />
<path d="M14.5940 12.6739
L14.7149 12.7344
" />
<path d="M14.7149 12.7344
L14.7754 12.7949
" />
<path d="M14.7754 12.7949
L14.8359 12.9158
" />
<path d="M14.8359 12.9158
L14.8359 12.9763
" />
<path d="M14.8359 12.9763
L14.7754 13.0973
" />
<path d="M14.7754 13.0973
L14.7149 13.1577
" />
<path d="M14.7149 13.1577
L14.5940 13.2182
" />
<path d="M14.5940 13.2182
L14.3521 13.2182
" />
<path d="M14.3521 13.2182
L14.2311 13.2787
" />
<path d="M14.2311 13.2787
L14.1706 13.3392
" />
<path d="M14.1706 13.3392
L14.1102 13.4601
" />
<path d="M14.1102 13.4601
L14.1102 13.7020
" />
<path d="M14.1102 13.7020
L14.1706 13.8230
" />
<path d="M14.1706 13.8230
L14.2311 13.8835
" />
<path d="M14.2311 13.8835
L14.3521 13.9439
" />
<path d="M14.3521 13.9439
L14.5940 13.9439
" />
<path d="M14.5940 13.9439
L14.7149 13.8835
" />
<path d="M14.7149 13.8835
L14.7754 13.8230
" />
<path d="M14.7754 13.8230
L14.8359 13.7020
" />
<path d="M14.8359 13.7020
L14.8359 13.4601
" />
<path d="M14.8359 13.4601
L14.7754 13.3392
" />
<path d="M14.7754 13.3392
L14.7149 13.2787
" />
<path d="M14.7149 13.2787
L14.5940 13.2182
" />
</g></g>
<g style="fill:#840000; fill-opacity:0.0; 
stroke:#840000; stroke-width:0.1524; stroke-opacity:1; 
stroke-linecap:round; stroke-linejoin:round;">
<path d="M7.8690 16.8934
L3.8050 16.8934
" />
</g>
<g style="fill:#A90000; fill-opacity:0.0; 
stroke:#A90000; stroke-width:0.1524; stroke-opacity:1; 
stroke-linecap:round; stroke-linejoin:round;">
<text x="5.8370" y="16.6394"
textLength="1.3365" font-size="1.6933" lengthAdjust="spacingAndGlyphs"
text-anchor="middle" opacity="0">9</text>
<g class="stroked-text"><desc>9</desc>
<path d="M5.5951 16.4839
L5.8370 16.4839
" />
<path d="M5.8370 16.4839
L5.9580 16.4235
" />
<path d="M5.9580 16.4235
L6.0184 16.3630
" />
<path d="M6.0184 16.3630
L6.1394 16.1815
" />
<path d="M6.1394 16.1815
L6.1999 15.9396
" />
<path d="M6.1999 15.9396
L6.1999 15.4558
" />
<path d="M6.1999 15.4558
L6.1394 15.3349
" />
<path d="M6.1394 15.3349
L6.0789 15.2744
" />
<path d="M6.0789 15.2744
L5.9580 15.2139
" />
<path d="M5.9580 15.2139
L5.7161 15.2139
" />
<path d="M5.7161 15.2139
L5.5951 15.2744
" />
<path d="M5.5951 15.2744
L5.5346 15.3349
" />
<path d="M5.5346 15.3349
L5.4742 15.4558
" />
<path d="M5.4742 15.4558
L5.4742 15.7582
" />
<path d="M5.4742 15.7582
L5.5346 15.8792
" />
<path d="M5.5346 15.8792
L5.5951 15.9396
" />
<path d="M5.5951 15.9396
L5.7161 16.0001
" />
<path d="M5.7161 16.0001
L5.9580 16.0001
" />
<path d="M5.9580 16.0001
L6.0789 15.9396
" />
<path d="M6.0789 15.9396
L6.1394 15.8792
" />
<path d="M6.1394 15.8792
L6.1999 15.7582
" />
</g></g>
<g style="fill:#840000; fill-opacity:0.0; 
stroke:#840000; stroke-width:0.1524; stroke-opacity:1; 
stroke-linecap:round; stroke-linejoin:round;">
<path d="M10.1550 35.9434
L10.1550 39.7534
" />
</g>
<g style="fill:#A90000; fill-opacity:0.0; 
stroke:#A90000; stroke-width:0.1524; stroke-opacity:1; 
stroke-linecap:round; stroke-linejoin:round;">
<g transform="rotate(-90.000000 9.9010 37.8484)">
<text x="9.9010" y="37.8484"
textLength="2.6670" font-size="1.6933" lengthAdjust="spacingAndGlyphs"
text-anchor="middle" opacity="0">SH</text>
</g>
<g class="stroked-text"><desc>SH</desc>
<path d="M9.6851 38.8764
L9.7455 38.6950
" />
<path d="M9.7455 38.6950
L9.7455 38.3926
" />
<path d="M9.7455 38.3926
L9.6851 38.2717
" />
<path d="M9.6851 38.2717
L9.6246 38.2112
" />
<path d="M9.6246 38.2112
L9.5036 38.1507
" />
<path d="M9.5036 38.1507
L9.3827 38.1507
" />
<path d="M9.3827 38.1507
L9.2617 38.2112
" />
<path d="M9.2617 38.2112
L9.2012 38.2717
" />
<path d="M9.2012 38.2717
L9.1408 38.3926
" />
<path d="M9.1408 38.3926
L9.0803 38.6345
" />
<path d="M9.0803 38.6345
L9.0198 38.7555
" />
<path d="M9.0198 38.7555
L8.9593 38.8160
" />
<path d="M8.9593 38.8160
L8.8384 38.8764
" />
<path d="M8.8384 38.8764
L8.7174 38.8764
" />
<path d="M8.7174 38.8764
L8.5965 38.8160
" />
<path d="M8.5965 38.8160
L8.5360 38.7555
" />
<path d="M8.5360 38.7555
L8.4755 38.6345
" />
<path d="M8.4755 38.6345
L8.4755 38.3322
" />
<path d="M8.4755 38.3322
L8.5360 38.1507
" />
<path d="M9.7455 37.6065
L8.4755 37.6065
" />
<path d="M9.0803 37.6065
L9.0803 36.8808
" />
<path d="M9.7455 36.8808
L8.4755 36.8808
" />
</g></g>
<g style="fill:#840084; fill-opacity:0.0; 
stroke:#840084; stroke-width:0.1524; stroke-opacity:1; 
stroke-linecap:round; stroke-linejoin:round;">
</g>
<g style="fill:#006464; fill-opacity:0.0; 
stroke:#006464; stroke-width:0.1524; stroke-opacity:1; 
stroke-linecap:round; stroke-linejoin:round;">
</g>
<g style="fill:#006464; fill-opacity:0.0; 
stroke:#006464; stroke-width:0.1588; stroke-opacity:1; 
stroke-linecap:round; stroke-linejoin:round;">
<text x="10.4090" y="5.0824"
textLength="2.1992" font-size="1.6933" lengthAdjust="spacingAndGlyphs"
text-anchor="middle" opacity="0">J?</text>
<g class="stroked-text"><desc>J?</desc>
<path d="M10.0461 3.7649
L10.0461 4.6721
" />
<path d="M10.0461 4.6721
L9.9856 4.8535
" />
<path d="M9.9856 4.8535
L9.8647 4.9745
" />
<path d="M9.8647 4.9745
L9.6832 5.0349
" />
<path d="M9.6832 5.0349
L9.5623 5.0349
" />
<path d="M10.8323 4.9140
L10.8927 4.9745
" />
<path d="M10.8927 4.9745
L10.8323 5.0349
" />
<path d="M10.8323 5.0349
L10.7718 4.9745
" />
<path d="M10.7718 4.9745
L10.8323 4.9140
" />
<path d="M10.8323 4.9140
L10.8323 5.0349
" />
<path d="M10.5904 3.8254
L10.7113 3.7649
" />
<path d="M10.7113 3.7649
L11.0137 3.7649
" />
<path d="M11.0137 3.7649
L11.1346 3.8254
" />
<path d="M11.1346 3.8254
L11.1951 3.9464
" />
<path d="M11.1951 3.9464
L11.1951 4.0673
" />
<path d="M11.1951 4.0673
L11.1346 4.1883
" />
<path d="M11.1346 4.1883
L11.0742 4.2487
" />
<path d="M11.0742 4.2487
L10.9532 4.3092
" />
<path d="M10.9532 4.3092
L10.8927 4.3697
" />
<path d="M10.8927 4.3697
L10.8323 4.4906
" />
<path d="M10.8323 4.4906
L10.8323 4.5511
" />
</g><text x="26.5124" y="37.5944"
textLength="30.6829" font-size="1.6933" lengthAdjust="spacingAndGlyphs"
text-anchor="middle" opacity="0">Conn_02x12_Odd_Even_Shielded</text>
<g class="stroked-text"><desc>Conn_02x12_Odd_Even_Shielded</desc>
<path d="M12.2705 37.4260
L12.2101 37.4865
" />
<path d="M12.2101 37.4865
L12.0286 37.5469
" />
<path d="M12.0286 37.5469
L11.9077 37.5469
" />
<path d="M11.9077 37.5469
L11.7263 37.4865
" />
<path d="M11.7263 37.4865
L11.6053 37.3655
" />
<path d="M11.6053 37.3655
L11.5448 37.2445
" />
<path d="M11.5448 37.2445
L11.4844 37.0026
" />
<path d="M11.4844 37.0026
L11.4844 36.8212
" />
<path d="M11.4844 36.8212
L11.5448 36.5793
" />
<path d="M11.5448 36.5793
L11.6053 36.4584
" />
<path d="M11.6053 36.4584
L11.7263 36.3374
" />
<path d="M11.7263 36.3374
L11.9077 36.2769
" />
<path d="M11.9077 36.2769
L12.0286 36.2769
" />
<path d="M12.0286 36.2769
L12.2101 36.3374
" />
<path d="M12.2101 36.3374
L12.2705 36.3979
" />
<path d="M12.9963 37.5469
L12.8753 37.4865
" />
<path d="M12.8753 37.4865
L12.8148 37.4260
" />
<path d="M12.8148 37.4260
L12.7544 37.3050
" />
<path d="M12.7544 37.3050
L12.7544 36.9422
" />
<path d="M12.7544 36.9422
L12.8148 36.8212
" />
<path d="M12.8148 36.8212
L12.8753 36.7607
" />
<path d="M12.8753 36.7607
L12.9963 36.7003
" />
<path d="M12.9963 36.7003
L13.1777 36.7003
" />
<path d="M13.1777 36.7003
L13.2986 36.7607
" />
<path d="M13.2986 36.7607
L13.3591 36.8212
" />
<path d="M13.3591 36.8212
L13.4196 36.9422
" />
<path d="M13.4196 36.9422
L13.4196 37.3050
" />
<path d="M13.4196 37.3050
L13.3591 37.4260
" />
<path d="M13.3591 37.4260
L13.2986 37.4865
" />
<path d="M13.2986 37.4865
L13.1777 37.5469
" />
<path d="M13.1777 37.5469
L12.9963 37.5469
" />
<path d="M13.9638 36.7003
L13.9638 37.5469
" />
<path d="M13.9638 36.8212
L14.0243 36.7607
" />
<path d="M14.0243 36.7607
L14.1453 36.7003
" />
<path d="M14.1453 36.7003
L14.3267 36.7003
" />
<path d="M14.3267 36.7003
L14.4476 36.7607
" />
<path d="M14.4476 36.7607
L14.5081 36.8817
" />
<path d="M14.5081 36.8817
L14.5081 37.5469
" />
<path d="M15.1128 36.7003
L15.1128 37.5469
" />
<path d="M15.1128 36.8212
L15.1733 36.7607
" />
<path d="M15.1733 36.7607
L15.2943 36.7003
" />
<path d="M15.2943 36.7003
L15.4757 36.7003
" />
<path d="M15.4757 36.7003
L15.5966 36.7607
" />
<path d="M15.5966 36.7607
L15.6571 36.8817
" />
<path d="M15.6571 36.8817
L15.6571 37.5469
" />
<path d="M15.9595 37.6679
L16.9271 37.6679
" />
<path d="M17.4713 36.2769
L17.5923 36.2769
" />
<path d="M17.5923 36.2769
L17.7132 36.3374
" />
<path d="M17.7132 36.3374
L17.7737 36.3979
" />
<path d="M17.7737 36.3979
L17.8342 36.5188
" />
<path d="M17.8342 36.5188
L17.8947 36.7607
" />
<path d="M17.8947 36.7607
L17.8947 37.0631
" />
<path d="M17.8947 37.0631
L17.8342 37.3050
" />
<path d="M17.8342 37.3050
L17.7737 37.4260
" />
<path d="M17.7737 37.4260
L17.7132 37.4865
" />
<path d="M17.7132 37.4865
L17.5923 37.5469
" />
<path d="M17.5923 37.5469
L17.4713 37.5469
" />
<path d="M17.4713 37.5469
L17.3504 37.4865
" />
<path d="M17.3504 37.4865
L17.2899 37.4260
" />
<path d="M17.2899 37.4260
L17.2294 37.3050
" />
<path d="M17.2294 37.3050
L17.1690 37.0631
" />
<path d="M17.1690 37.0631
L17.1690 36.7607
" />
<path d="M17.1690 36.7607
L17.2294 36.5188
" />
<path d="M17.2294 36.5188
L17.2899 36.3979
" />
<path d="M17.2899 36.3979
L17.3504 36.3374
" />
<path d="M17.3504 36.3374
L17.4713 36.2769
" />
<path d="M18.3785 36.3979
L18.4389 36.3374
" />
<path d="M18.4389 36.3374
L18.5599 36.2769
" />
<path d="M18.5599 36.2769
L18.8623 36.2769
" />
<path d="M18.8623 36.2769
L18.9832 36.3374
" />
<path d="M18.9832 36.3374
L19.0437 36.3979
" />
<path d="M19.0437 36.3979
L19.1042 36.5188
" />
<path d="M19.1042 36.5188
L19.1042 36.6398
" />
<path d="M19.1042 36.6398
L19.0437 36.8212
" />
<path d="M19.0437 36.8212
L18.3180 37.5469
" />
<path d="M18.3180 37.5469
L19.1042 37.5469
" />
<path d="M19.5275 37.5469
L20.1927 36.7003
" />
<path d="M19.5275 36.7003
L20.1927 37.5469
" />
<path d="M21.3418 37.5469
L20.6161 37.5469
" />
<path d="M20.9789 37.5469
L20.9789 36.2769
" />
<path d="M20.9789 36.2769
L20.8580 36.4584
" />
<path d="M20.8580 36.4584
L20.7370 36.5793
" />
<path d="M20.7370 36.5793
L20.6161 36.6398
" />
<path d="M21.8256 36.3979
L21.8860 36.3374
" />
<path d="M21.8860 36.3374
L22.0070 36.2769
" />
<path d="M22.0070 36.2769
L22.3094 36.2769
" />
<path d="M22.3094 36.2769
L22.4303 36.3374
" />
<path d="M22.4303 36.3374
L22.4908 36.3979
" />
<path d="M22.4908 36.3979
L22.5513 36.5188
" />
<path d="M22.5513 36.5188
L22.5513 36.6398
" />
<path d="M22.5513 36.6398
L22.4908 36.8212
" />
<path d="M22.4908 36.8212
L21.7651 37.5469
" />
<path d="M21.7651 37.5469
L22.5513 37.5469
" />
<path d="M22.7932 37.6679
L23.7608 37.6679
" />
<path d="M24.3050 36.2769
L24.5469 36.2769
" />
<path d="M24.5469 36.2769
L24.6679 36.3374
" />
<path d="M24.6679 36.3374
L24.7888 36.4584
" />
<path d="M24.7888 36.4584
L24.8493 36.7003
" />
<path d="M24.8493 36.7003
L24.8493 37.1236
" />
<path d="M24.8493 37.1236
L24.7888 37.3655
" />
<path d="M24.7888 37.3655
L24.6679 37.4865
" />
<path d="M24.6679 37.4865
L24.5469 37.5469
" />
<path d="M24.5469 37.5469
L24.3050 37.5469
" />
<path d="M24.3050 37.5469
L24.1841 37.4865
" />
<path d="M24.1841 37.4865
L24.0631 37.3655
" />
<path d="M24.0631 37.3655
L24.0027 37.1236
" />
<path d="M24.0027 37.1236
L24.0027 36.7003
" />
<path d="M24.0027 36.7003
L24.0631 36.4584
" />
<path d="M24.0631 36.4584
L24.1841 36.3374
" />
<path d="M24.1841 36.3374
L24.3050 36.2769
" />
<path d="M25.9379 37.5469
L25.9379 36.2769
" />
<path d="M25.9379 37.4865
L25.8170 37.5469
" />
<path d="M25.8170 37.5469
L25.5751 37.5469
" />
<path d="M25.5751 37.5469
L25.4541 37.4865
" />
<path d="M25.4541 37.4865
L25.3936 37.4260
" />
<path d="M25.3936 37.4260
L25.3332 37.3050
" />
<path d="M25.3332 37.3050
L25.3332 36.9422
" />
<path d="M25.3332 36.9422
L25.3936 36.8212
" />
<path d="M25.3936 36.8212
L25.4541 36.7607
" />
<path d="M25.4541 36.7607
L25.5751 36.7003
" />
<path d="M25.5751 36.7003
L25.8170 36.7003
" />
<path d="M25.8170 36.7003
L25.9379 36.7607
" />
<path d="M27.0869 37.5469
L27.0869 36.2769
" />
<path d="M27.0869 37.4865
L26.9660 37.5469
" />
<path d="M26.9660 37.5469
L26.7241 37.5469
" />
<path d="M26.7241 37.5469
L26.6031 37.4865
" />
<path d="M26.6031 37.4865
L26.5426 37.4260
" />
<path d="M26.5426 37.4260
L26.4822 37.3050
" />
<path d="M26.4822 37.3050
L26.4822 36.9422
" />
<path d="M26.4822 36.9422
L26.5426 36.8212
" />
<path d="M26.5426 36.8212
L26.6031 36.7607
" />
<path d="M26.6031 36.7607
L26.7241 36.7003
" />
<path d="M26.7241 36.7003
L26.9660 36.7003
" />
<path d="M26.9660 36.7003
L27.0869 36.7607
" />
<path d="M27.3893 37.6679
L28.3569 37.6679
" />
<path d="M28.6592 36.8817
L29.0826 36.8817
" />
<path d="M29.2640 37.5469
L28.6592 37.5469
" />
<path d="M28.6592 37.5469
L28.6592 36.2769
" />
<path d="M28.6592 36.2769
L29.2640 36.2769
" />
<path d="M29.6873 36.7003
L29.9897 37.5469
" />
<path d="M29.9897 37.5469
L30.2920 36.7003
" />
<path d="M31.2596 37.4865
L31.1387 37.5469
" />
<path d="M31.1387 37.5469
L30.8968 37.5469
" />
<path d="M30.8968 37.5469
L30.7758 37.4865
" />
<path d="M30.7758 37.4865
L30.7154 37.3655
" />
<path d="M30.7154 37.3655
L30.7154 36.8817
" />
<path d="M30.7154 36.8817
L30.7758 36.7607
" />
<path d="M30.7758 36.7607
L30.8968 36.7003
" />
<path d="M30.8968 36.7003
L31.1387 36.7003
" />
<path d="M31.1387 36.7003
L31.2596 36.7607
" />
<path d="M31.2596 36.7607
L31.3201 36.8817
" />
<path d="M31.3201 36.8817
L31.3201 37.0026
" />
<path d="M31.3201 37.0026
L30.7154 37.1236
" />
<path d="M31.8644 36.7003
L31.8644 37.5469
" />
<path d="M31.8644 36.8212
L31.9249 36.7607
" />
<path d="M31.9249 36.7607
L32.0459 36.7003
" />
<path d="M32.0459 36.7003
L32.2273 36.7003
" />
<path d="M32.2273 36.7003
L32.3482 36.7607
" />
<path d="M32.3482 36.7607
L32.4087 36.8817
" />
<path d="M32.4087 36.8817
L32.4087 37.5469
" />
<path d="M32.7111 37.6679
L33.6787 37.6679
" />
<path d="M33.9206 37.4865
L34.1020 37.5469
" />
<path d="M34.1020 37.5469
L34.4044 37.5469
" />
<path d="M34.4044 37.5469
L34.5253 37.4865
" />
<path d="M34.5253 37.4865
L34.5858 37.4260
" />
<path d="M34.5858 37.4260
L34.6463 37.3050
" />
<path d="M34.6463 37.3050
L34.6463 37.1841
" />
<path d="M34.6463 37.1841
L34.5858 37.0631
" />
<path d="M34.5858 37.0631
L34.5253 37.0026
" />
<path d="M34.5253 37.0026
L34.4044 36.9422
" />
<path d="M34.4044 36.9422
L34.1625 36.8817
" />
<path d="M34.1625 36.8817
L34.0415 36.8212
" />
<path d="M34.0415 36.8212
L33.9810 36.7607
" />
<path d="M33.9810 36.7607
L33.9206 36.6398
" />
<path d="M33.9206 36.6398
L33.9206 36.5188
" />
<path d="M33.9206 36.5188
L33.9810 36.3979
" />
<path d="M33.9810 36.3979
L34.0415 36.3374
" />
<path d="M34.0415 36.3374
L34.1625 36.2769
" />
<path d="M34.1625 36.2769
L34.4648 36.2769
" />
<path d="M34.4648 36.2769
L34.6463 36.3374
" />
<path d="M35.1905 37.5469
L35.1905 36.2769
" />
<path d="M35.7348 37.5469
L35.7348 36.8817
" />
<path d="M35.7348 36.8817
L35.6743 36.7607
" />
<path d="M35.6743 36.7607
L35.5534 36.7003
" />
<path d="M35.5534 36.7003
L35.3720 36.7003
" />
<path d="M35.3720 36.7003
L35.2510 36.7607
" />
<path d="M35.2510 36.7607
L35.1905 36.8212
" />
<path d="M36.3395 37.5469
L36.3395 36.7003
" />
<path d="M36.3395 36.2769
L36.2791 36.3374
" />
<path d="M36.2791 36.3374
L36.3395 36.3979
" />
<path d="M36.3395 36.3979
L36.4000 36.3374
" />
<path d="M36.4000 36.3374
L36.3395 36.2769
" />
<path d="M36.3395 36.2769
L36.3395 36.3979
" />
<path d="M37.4281 37.4865
L37.3072 37.5469
" />
<path d="M37.3072 37.5469
L37.0653 37.5469
" />
<path d="M37.0653 37.5469
L36.9443 37.4865
" />
<path d="M36.9443 37.4865
L36.8839 37.3655
" />
<path d="M36.8839 37.3655
L36.8839 36.8817
" />
<path d="M36.8839 36.8817
L36.9443 36.7607
" />
<path d="M36.9443 36.7607
L37.0653 36.7003
" />
<path d="M37.0653 36.7003
L37.3072 36.7003
" />
<path d="M37.3072 36.7003
L37.4281 36.7607
" />
<path d="M37.4281 36.7607
L37.4886 36.8817
" />
<path d="M37.4886 36.8817
L37.4886 37.0026
" />
<path d="M37.4886 37.0026
L36.8839 37.1236
" />
<path d="M38.2144 37.5469
L38.0934 37.4865
" />
<path d="M38.0934 37.4865
L38.0329 37.3655
" />
<path d="M38.0329 37.3655
L38.0329 36.2769
" />
<path d="M39.2424 37.5469
L39.2424 36.2769
" />
<path d="M39.2424 37.4865
L39.1215 37.5469
" />
<path d="M39.1215 37.5469
L38.8796 37.5469
" />
<path d="M38.8796 37.5469
L38.7586 37.4865
" />
<path d="M38.7586 37.4865
L38.6981 37.4260
" />
<path d="M38.6981 37.4260
L38.6377 37.3050
" />
<path d="M38.6377 37.3050
L38.6377 36.9422
" />
<path d="M38.6377 36.9422
L38.6981 36.8212
" />
<path d="M38.6981 36.8212
L38.7586 36.7607
" />
<path d="M38.7586 36.7607
L38.8796 36.7003
" />
<path d="M38.8796 36.7003
L39.1215 36.7003
" />
<path d="M39.1215 36.7003
L39.2424 36.7607
" />
<path d="M40.3309 37.4865
L40.2100 37.5469
" />
<path d="M40.2100 37.5469
L39.9681 37.5469
" />
<path d="M39.9681 37.5469
L39.8471 37.4865
" />
<path d="M39.8471 37.4865
L39.7867 37.3655
" />
<path d="M39.7867 37.3655
L39.7867 36.8817
" />
<path d="M39.7867 36.8817
L39.8471 36.7607
" />
<path d="M39.8471 36.7607
L39.9681 36.7003
" />
<path d="M39.9681 36.7003
L40.2100 36.7003
" />
<path d="M40.2100 36.7003
L40.3309 36.7607
" />
<path d="M40.3309 36.7607
L40.3914 36.8817
" />
<path d="M40.3914 36.8817
L40.3914 37.0026
" />
<path d="M40.3914 37.0026
L39.7867 37.1236
" />
<path d="M41.4800 37.5469
L41.4800 36.2769
" />
<path d="M41.4800 37.4865
L41.3591 37.5469
" />
<path d="M41.3591 37.5469
L41.1172 37.5469
" />
<path d="M41.1172 37.5469
L40.9962 37.4865
" />
<path d="M40.9962 37.4865
L40.9357 37.4260
" />
<path d="M40.9357 37.4260
L40.8753 37.3050
" />
<path d="M40.8753 37.3050
L40.8753 36.9422
" />
<path d="M40.8753 36.9422
L40.9357 36.8212
" />
<path d="M40.9357 36.8212
L40.9962 36.7607
" />
<path d="M40.9962 36.7607
L41.1172 36.7003
" />
<path d="M41.1172 36.7003
L41.3591 36.7003
" />
<path d="M41.3591 36.7003
L41.4800 36.7607
" />
</g></g>
<g style="fill:#840084; fill-opacity:0.0; 
stroke:#840084; stroke-width:0.1588; stroke-opacity:1; 
stroke-linecap:round; stroke-linejoin:round;">
<text x="8.8850" y="20.0684"
textLength="1.0501" font-size="1.6933" lengthAdjust="spacingAndGlyphs"
text-anchor="middle" opacity="0">~</text>
<g class="stroked-text"><desc>~</desc>
<path d="M8.5524 19.5371
L8.6129 19.4766
" />
<path d="M8.6129 19.4766
L8.7338 19.4162
" />
<path d="M8.7338 19.4162
L8.9757 19.5371
" />
<path d="M8.9757 19.5371
L9.0967 19.4766
" />
<path d="M9.0967 19.4766
L9.1572 19.4162
" />
</g></g> 
</svg>
