<?xml version="1.0" standalone="no"?>
 <!DOCTYPE svg PUBLIC "-//W3C//DTD SVG 1.1//EN" 
 "http://www.w3.org/Graphics/SVG/1.1/DTD/svg11.dtd"> 
<svg
  xmlns:svg="http://www.w3.org/2000/svg"
  xmlns="http://www.w3.org/2000/svg"
  xmlns:xlink="http://www.w3.org/1999/xlink"
  version="1.1"
  width="45.6692mm" height="49.4538mm" viewBox="0.0000 0.0000 45.6692 49.4538">
<title>SVG Image created as working.svg date 2023/08/02 11:40:40 </title>
  <desc>Image generated by Eeschema-SVG </desc>
<g style="fill:#000000; fill-opacity:1.0000;stroke:#000000; stroke-opacity:1.0000;
stroke-linecap:round; stroke-linejoin:round;"
 transform="translate(0 0) scale(1 1)">
</g>
<g style="fill:#840000; fill-opacity:0.0; 
stroke:#840000; stroke-width:0.0000; stroke-opacity:1; 
stroke-linecap:round; stroke-linejoin:round;">
</g>
<g style="fill:#FFFFC2; fill-opacity:0.0; 
stroke:#FFFFC2; stroke-width:0.0000; stroke-opacity:1; 
stroke-linecap:round; stroke-linejoin:round;">
</g>
<g style="fill:#FFFFC2; fill-opacity:1.0000; 
stroke:#FFFFC2; stroke-width:0.0000; stroke-opacity:1; 
stroke-linecap:round; stroke-linejoin:round;">
<rect x="7.869000" y="6.225400" width="4.572000" height="35.052000" rx="0.000000" />
</g>
<g style="fill:#840084; fill-opacity:1.0000; 
stroke:#840084; stroke-width:0.0000; stroke-opacity:1; 
stroke-linecap:round; stroke-linejoin:round;">
</g>
<g style="fill:#840000; fill-opacity:1.0000; 
stroke:#840000; stroke-width:0.0000; stroke-opacity:1; 
stroke-linecap:round; stroke-linejoin:round;">
</g>
<g style="fill:#840000; fill-opacity:0.0; 
stroke:#840000; stroke-width:0.1524; stroke-opacity:1; 
stroke-linecap:round; stroke-linejoin:round;">
<rect x="7.615000" y="5.971400" width="5.080000" height="35.560000" rx="0.000000" />
<rect x="7.869000" y="40.134400" width="1.270000" height="0.254000" rx="0.000000" />
<rect x="7.869000" y="37.594400" width="1.270000" height="0.254000" rx="0.000000" />
<rect x="7.869000" y="35.054400" width="1.270000" height="0.254000" rx="0.000000" />
<rect x="7.869000" y="32.514400" width="1.270000" height="0.254000" rx="0.000000" />
<rect x="7.869000" y="29.974400" width="1.270000" height="0.254000" rx="0.000000" />
<rect x="7.869000" y="27.434400" width="1.270000" height="0.254000" rx="0.000000" />
<rect x="7.869000" y="24.894400" width="1.270000" height="0.254000" rx="0.000000" />
<rect x="7.869000" y="22.354400" width="1.270000" height="0.254000" rx="0.000000" />
<rect x="7.869000" y="19.814400" width="1.270000" height="0.254000" rx="0.000000" />
<rect x="7.869000" y="17.274400" width="1.270000" height="0.254000" rx="0.000000" />
<rect x="7.869000" y="14.734400" width="1.270000" height="0.254000" rx="0.000000" />
<rect x="7.869000" y="12.194400" width="1.270000" height="0.254000" rx="0.000000" />
<rect x="7.869000" y="9.654400" width="1.270000" height="0.254000" rx="0.000000" />
<rect x="7.869000" y="7.114400" width="1.270000" height="0.254000" rx="0.000000" />
</g>
<g style="fill:#840000; fill-opacity:0.0; 
stroke:#840000; stroke-width:0.2540; stroke-opacity:1; 
stroke-linecap:round; stroke-linejoin:round;">
<rect x="7.869000" y="6.225400" width="4.572000" height="35.052000" rx="0.000000" />
</g>
<g style="fill:#840000; fill-opacity:0.0; 
stroke:#840000; stroke-width:0.1524; stroke-opacity:1; 
stroke-linecap:round; stroke-linejoin:round;">
<rect x="11.171000" y="40.134400" width="1.270000" height="0.254000" rx="0.000000" />
<rect x="11.171000" y="37.594400" width="1.270000" height="0.254000" rx="0.000000" />
<rect x="11.171000" y="35.054400" width="1.270000" height="0.254000" rx="0.000000" />
<rect x="11.171000" y="32.514400" width="1.270000" height="0.254000" rx="0.000000" />
<rect x="11.171000" y="29.974400" width="1.270000" height="0.254000" rx="0.000000" />
<rect x="11.171000" y="27.434400" width="1.270000" height="0.254000" rx="0.000000" />
<rect x="11.171000" y="24.894400" width="1.270000" height="0.254000" rx="0.000000" />
<rect x="11.171000" y="22.354400" width="1.270000" height="0.254000" rx="0.000000" />
<rect x="11.171000" y="19.814400" width="1.270000" height="0.254000" rx="0.000000" />
<rect x="11.171000" y="17.274400" width="1.270000" height="0.254000" rx="0.000000" />
<rect x="11.171000" y="14.734400" width="1.270000" height="0.254000" rx="0.000000" />
<rect x="11.171000" y="12.194400" width="1.270000" height="0.254000" rx="0.000000" />
<rect x="11.171000" y="9.654400" width="1.270000" height="0.254000" rx="0.000000" />
<rect x="11.171000" y="7.114400" width="1.270000" height="0.254000" rx="0.000000" />
<path d="M7.8690 7.2414
L3.8050 7.2414
" />
</g>
<g style="fill:#A90000; fill-opacity:0.0; 
stroke:#A90000; stroke-width:0.1524; stroke-opacity:1; 
stroke-linecap:round; stroke-linejoin:round;">
<text x="5.8370" y="6.9874"
textLength="1.3365" font-size="1.6933" lengthAdjust="spacingAndGlyphs"
text-anchor="middle" opacity="0">1</text>
<g class="stroked-text"><desc>1</desc>
<path d="M6.1999 6.8319
L5.4742 6.8319
" />
<path d="M5.8370 6.8319
L5.8370 5.5619
" />
<path d="M5.8370 5.5619
L5.7161 5.7434
" />
<path d="M5.7161 5.7434
L5.5951 5.8643
" />
<path d="M5.5951 5.8643
L5.4742 5.9248
" />
</g></g>
<g style="fill:#840000; fill-opacity:0.0; 
stroke:#840000; stroke-width:0.1524; stroke-opacity:1; 
stroke-linecap:round; stroke-linejoin:round;">
<path d="M12.4410 17.4014
L16.5050 17.4014
" />
</g>
<g style="fill:#A90000; fill-opacity:0.0; 
stroke:#A90000; stroke-width:0.1524; stroke-opacity:1; 
stroke-linecap:round; stroke-linejoin:round;">
<text x="14.4730" y="17.1474"
textLength="2.5460" font-size="1.6933" lengthAdjust="spacingAndGlyphs"
text-anchor="middle" opacity="0">10</text>
<g class="stroked-text"><desc>10</desc>
<path d="M14.2311 16.9919
L13.5054 16.9919
" />
<path d="M13.8682 16.9919
L13.8682 15.7219
" />
<path d="M13.8682 15.7219
L13.7473 15.9034
" />
<path d="M13.7473 15.9034
L13.6263 16.0243
" />
<path d="M13.6263 16.0243
L13.5054 16.0848
" />
<path d="M15.0172 15.7219
L15.1382 15.7219
" />
<path d="M15.1382 15.7219
L15.2591 15.7824
" />
<path d="M15.2591 15.7824
L15.3196 15.8429
" />
<path d="M15.3196 15.8429
L15.3801 15.9638
" />
<path d="M15.3801 15.9638
L15.4406 16.2057
" />
<path d="M15.4406 16.2057
L15.4406 16.5081
" />
<path d="M15.4406 16.5081
L15.3801 16.7500
" />
<path d="M15.3801 16.7500
L15.3196 16.8710
" />
<path d="M15.3196 16.8710
L15.2591 16.9315
" />
<path d="M15.2591 16.9315
L15.1382 16.9919
" />
<path d="M15.1382 16.9919
L15.0172 16.9919
" />
<path d="M15.0172 16.9919
L14.8963 16.9315
" />
<path d="M14.8963 16.9315
L14.8358 16.8710
" />
<path d="M14.8358 16.8710
L14.7753 16.7500
" />
<path d="M14.7753 16.7500
L14.7149 16.5081
" />
<path d="M14.7149 16.5081
L14.7149 16.2057
" />
<path d="M14.7149 16.2057
L14.7753 15.9638
" />
<path d="M14.7753 15.9638
L14.8358 15.8429
" />
<path d="M14.8358 15.8429
L14.8963 15.7824
" />
<path d="M14.8963 15.7824
L15.0172 15.7219
" />
</g></g>
<g style="fill:#840000; fill-opacity:0.0; 
stroke:#840000; stroke-width:0.1524; stroke-opacity:1; 
stroke-linecap:round; stroke-linejoin:round;">
<path d="M7.8690 19.9414
L3.8050 19.9414
" />
</g>
<g style="fill:#A90000; fill-opacity:0.0; 
stroke:#A90000; stroke-width:0.1524; stroke-opacity:1; 
stroke-linecap:round; stroke-linejoin:round;">
<text x="5.8370" y="19.6874"
textLength="2.5460" font-size="1.6933" lengthAdjust="spacingAndGlyphs"
text-anchor="middle" opacity="0">11</text>
<g class="stroked-text"><desc>11</desc>
<path d="M5.5951 19.5319
L4.8694 19.5319
" />
<path d="M5.2322 19.5319
L5.2322 18.2619
" />
<path d="M5.2322 18.2619
L5.1113 18.4434
" />
<path d="M5.1113 18.4434
L4.9903 18.5643
" />
<path d="M4.9903 18.5643
L4.8694 18.6248
" />
<path d="M6.8046 19.5319
L6.0789 19.5319
" />
<path d="M6.4417 19.5319
L6.4417 18.2619
" />
<path d="M6.4417 18.2619
L6.3208 18.4434
" />
<path d="M6.3208 18.4434
L6.1998 18.5643
" />
<path d="M6.1998 18.5643
L6.0789 18.6248
" />
</g></g>
<g style="fill:#840000; fill-opacity:0.0; 
stroke:#840000; stroke-width:0.1524; stroke-opacity:1; 
stroke-linecap:round; stroke-linejoin:round;">
<path d="M12.4410 19.9414
L16.5050 19.9414
" />
</g>
<g style="fill:#A90000; fill-opacity:0.0; 
stroke:#A90000; stroke-width:0.1524; stroke-opacity:1; 
stroke-linecap:round; stroke-linejoin:round;">
<text x="14.4730" y="19.6874"
textLength="2.5460" font-size="1.6933" lengthAdjust="spacingAndGlyphs"
text-anchor="middle" opacity="0">12</text>
<g class="stroked-text"><desc>12</desc>
<path d="M14.2311 19.5319
L13.5054 19.5319
" />
<path d="M13.8682 19.5319
L13.8682 18.2619
" />
<path d="M13.8682 18.2619
L13.7473 18.4434
" />
<path d="M13.7473 18.4434
L13.6263 18.5643
" />
<path d="M13.6263 18.5643
L13.5054 18.6248
" />
<path d="M14.7149 18.3829
L14.7753 18.3224
" />
<path d="M14.7753 18.3224
L14.8963 18.2619
" />
<path d="M14.8963 18.2619
L15.1987 18.2619
" />
<path d="M15.1987 18.2619
L15.3196 18.3224
" />
<path d="M15.3196 18.3224
L15.3801 18.3829
" />
<path d="M15.3801 18.3829
L15.4406 18.5038
" />
<path d="M15.4406 18.5038
L15.4406 18.6248
" />
<path d="M15.4406 18.6248
L15.3801 18.8062
" />
<path d="M15.3801 18.8062
L14.6544 19.5319
" />
<path d="M14.6544 19.5319
L15.4406 19.5319
" />
</g></g>
<g style="fill:#840000; fill-opacity:0.0; 
stroke:#840000; stroke-width:0.1524; stroke-opacity:1; 
stroke-linecap:round; stroke-linejoin:round;">
<path d="M7.8690 22.4814
L3.8050 22.4814
" />
</g>
<g style="fill:#A90000; fill-opacity:0.0; 
stroke:#A90000; stroke-width:0.1524; stroke-opacity:1; 
stroke-linecap:round; stroke-linejoin:round;">
<text x="5.8370" y="22.2274"
textLength="2.5460" font-size="1.6933" lengthAdjust="spacingAndGlyphs"
text-anchor="middle" opacity="0">13</text>
<g class="stroked-text"><desc>13</desc>
<path d="M5.5951 22.0719
L4.8694 22.0719
" />
<path d="M5.2322 22.0719
L5.2322 20.8019
" />
<path d="M5.2322 20.8019
L5.1113 20.9834
" />
<path d="M5.1113 20.9834
L4.9903 21.1043
" />
<path d="M4.9903 21.1043
L4.8694 21.1648
" />
<path d="M6.0184 20.8019
L6.8046 20.8019
" />
<path d="M6.8046 20.8019
L6.3812 21.2857
" />
<path d="M6.3812 21.2857
L6.5627 21.2857
" />
<path d="M6.5627 21.2857
L6.6836 21.3462
" />
<path d="M6.6836 21.3462
L6.7441 21.4067
" />
<path d="M6.7441 21.4067
L6.8046 21.5276
" />
<path d="M6.8046 21.5276
L6.8046 21.8300
" />
<path d="M6.8046 21.8300
L6.7441 21.9510
" />
<path d="M6.7441 21.9510
L6.6836 22.0115
" />
<path d="M6.6836 22.0115
L6.5627 22.0719
" />
<path d="M6.5627 22.0719
L6.1998 22.0719
" />
<path d="M6.1998 22.0719
L6.0789 22.0115
" />
<path d="M6.0789 22.0115
L6.0184 21.9510
" />
</g></g>
<g style="fill:#840000; fill-opacity:0.0; 
stroke:#840000; stroke-width:0.1524; stroke-opacity:1; 
stroke-linecap:round; stroke-linejoin:round;">
<path d="M12.4410 22.4814
L16.5050 22.4814
" />
</g>
<g style="fill:#A90000; fill-opacity:0.0; 
stroke:#A90000; stroke-width:0.1524; stroke-opacity:1; 
stroke-linecap:round; stroke-linejoin:round;">
<text x="14.4730" y="22.2274"
textLength="2.5460" font-size="1.6933" lengthAdjust="spacingAndGlyphs"
text-anchor="middle" opacity="0">14</text>
<g class="stroked-text"><desc>14</desc>
<path d="M14.2311 22.0719
L13.5054 22.0719
" />
<path d="M13.8682 22.0719
L13.8682 20.8019
" />
<path d="M13.8682 20.8019
L13.7473 20.9834
" />
<path d="M13.7473 20.9834
L13.6263 21.1043
" />
<path d="M13.6263 21.1043
L13.5054 21.1648
" />
<path d="M15.3196 21.2253
L15.3196 22.0719
" />
<path d="M15.0172 20.7415
L14.7149 21.6486
" />
<path d="M14.7149 21.6486
L15.5010 21.6486
" />
</g></g>
<g style="fill:#840000; fill-opacity:0.0; 
stroke:#840000; stroke-width:0.1524; stroke-opacity:1; 
stroke-linecap:round; stroke-linejoin:round;">
<path d="M7.8690 25.0214
L3.8050 25.0214
" />
</g>
<g style="fill:#A90000; fill-opacity:0.0; 
stroke:#A90000; stroke-width:0.1524; stroke-opacity:1; 
stroke-linecap:round; stroke-linejoin:round;">
<text x="5.8370" y="24.7674"
textLength="2.5460" font-size="1.6933" lengthAdjust="spacingAndGlyphs"
text-anchor="middle" opacity="0">15</text>
<g class="stroked-text"><desc>15</desc>
<path d="M5.5951 24.6119
L4.8694 24.6119
" />
<path d="M5.2322 24.6119
L5.2322 23.3419
" />
<path d="M5.2322 23.3419
L5.1113 23.5234
" />
<path d="M5.1113 23.5234
L4.9903 23.6443
" />
<path d="M4.9903 23.6443
L4.8694 23.7048
" />
<path d="M6.7441 23.3419
L6.1393 23.3419
" />
<path d="M6.1393 23.3419
L6.0789 23.9467
" />
<path d="M6.0789 23.9467
L6.1393 23.8862
" />
<path d="M6.1393 23.8862
L6.2603 23.8257
" />
<path d="M6.2603 23.8257
L6.5627 23.8257
" />
<path d="M6.5627 23.8257
L6.6836 23.8862
" />
<path d="M6.6836 23.8862
L6.7441 23.9467
" />
<path d="M6.7441 23.9467
L6.8046 24.0676
" />
<path d="M6.8046 24.0676
L6.8046 24.3700
" />
<path d="M6.8046 24.3700
L6.7441 24.4910
" />
<path d="M6.7441 24.4910
L6.6836 24.5515
" />
<path d="M6.6836 24.5515
L6.5627 24.6119
" />
<path d="M6.5627 24.6119
L6.2603 24.6119
" />
<path d="M6.2603 24.6119
L6.1393 24.5515
" />
<path d="M6.1393 24.5515
L6.0789 24.4910
" />
</g></g>
<g style="fill:#840000; fill-opacity:0.0; 
stroke:#840000; stroke-width:0.1524; stroke-opacity:1; 
stroke-linecap:round; stroke-linejoin:round;">
<path d="M12.4410 25.0214
L16.5050 25.0214
" />
</g>
<g style="fill:#A90000; fill-opacity:0.0; 
stroke:#A90000; stroke-width:0.1524; stroke-opacity:1; 
stroke-linecap:round; stroke-linejoin:round;">
<text x="14.4730" y="24.7674"
textLength="2.5460" font-size="1.6933" lengthAdjust="spacingAndGlyphs"
text-anchor="middle" opacity="0">16</text>
<g class="stroked-text"><desc>16</desc>
<path d="M14.2311 24.6119
L13.5054 24.6119
" />
<path d="M13.8682 24.6119
L13.8682 23.3419
" />
<path d="M13.8682 23.3419
L13.7473 23.5234
" />
<path d="M13.7473 23.5234
L13.6263 23.6443
" />
<path d="M13.6263 23.6443
L13.5054 23.7048
" />
<path d="M15.3196 23.3419
L15.0777 23.3419
" />
<path d="M15.0777 23.3419
L14.9568 23.4024
" />
<path d="M14.9568 23.4024
L14.8963 23.4629
" />
<path d="M14.8963 23.4629
L14.7753 23.6443
" />
<path d="M14.7753 23.6443
L14.7149 23.8862
" />
<path d="M14.7149 23.8862
L14.7149 24.3700
" />
<path d="M14.7149 24.3700
L14.7753 24.4910
" />
<path d="M14.7753 24.4910
L14.8358 24.5515
" />
<path d="M14.8358 24.5515
L14.9568 24.6119
" />
<path d="M14.9568 24.6119
L15.1987 24.6119
" />
<path d="M15.1987 24.6119
L15.3196 24.5515
" />
<path d="M15.3196 24.5515
L15.3801 24.4910
" />
<path d="M15.3801 24.4910
L15.4406 24.3700
" />
<path d="M15.4406 24.3700
L15.4406 24.0676
" />
<path d="M15.4406 24.0676
L15.3801 23.9467
" />
<path d="M15.3801 23.9467
L15.3196 23.8862
" />
<path d="M15.3196 23.8862
L15.1987 23.8257
" />
<path d="M15.1987 23.8257
L14.9568 23.8257
" />
<path d="M14.9568 23.8257
L14.8358 23.8862
" />
<path d="M14.8358 23.8862
L14.7753 23.9467
" />
<path d="M14.7753 23.9467
L14.7149 24.0676
" />
</g></g>
<g style="fill:#840000; fill-opacity:0.0; 
stroke:#840000; stroke-width:0.1524; stroke-opacity:1; 
stroke-linecap:round; stroke-linejoin:round;">
<path d="M7.8690 27.5614
L3.8050 27.5614
" />
</g>
<g style="fill:#A90000; fill-opacity:0.0; 
stroke:#A90000; stroke-width:0.1524; stroke-opacity:1; 
stroke-linecap:round; stroke-linejoin:round;">
<text x="5.8370" y="27.3074"
textLength="2.5460" font-size="1.6933" lengthAdjust="spacingAndGlyphs"
text-anchor="middle" opacity="0">17</text>
<g class="stroked-text"><desc>17</desc>
<path d="M5.5951 27.1519
L4.8694 27.1519
" />
<path d="M5.2322 27.1519
L5.2322 25.8819
" />
<path d="M5.2322 25.8819
L5.1113 26.0634
" />
<path d="M5.1113 26.0634
L4.9903 26.1843
" />
<path d="M4.9903 26.1843
L4.8694 26.2448
" />
<path d="M6.0184 25.8819
L6.8650 25.8819
" />
<path d="M6.8650 25.8819
L6.3208 27.1519
" />
</g></g>
<g style="fill:#840000; fill-opacity:0.0; 
stroke:#840000; stroke-width:0.1524; stroke-opacity:1; 
stroke-linecap:round; stroke-linejoin:round;">
<path d="M12.4410 27.5614
L16.5050 27.5614
" />
</g>
<g style="fill:#A90000; fill-opacity:0.0; 
stroke:#A90000; stroke-width:0.1524; stroke-opacity:1; 
stroke-linecap:round; stroke-linejoin:round;">
<text x="14.4730" y="27.3074"
textLength="2.5460" font-size="1.6933" lengthAdjust="spacingAndGlyphs"
text-anchor="middle" opacity="0">18</text>
<g class="stroked-text"><desc>18</desc>
<path d="M14.2311 27.1519
L13.5054 27.1519
" />
<path d="M13.8682 27.1519
L13.8682 25.8819
" />
<path d="M13.8682 25.8819
L13.7473 26.0634
" />
<path d="M13.7473 26.0634
L13.6263 26.1843
" />
<path d="M13.6263 26.1843
L13.5054 26.2448
" />
<path d="M14.9568 26.4262
L14.8358 26.3657
" />
<path d="M14.8358 26.3657
L14.7753 26.3053
" />
<path d="M14.7753 26.3053
L14.7149 26.1843
" />
<path d="M14.7149 26.1843
L14.7149 26.1238
" />
<path d="M14.7149 26.1238
L14.7753 26.0029
" />
<path d="M14.7753 26.0029
L14.8358 25.9424
" />
<path d="M14.8358 25.9424
L14.9568 25.8819
" />
<path d="M14.9568 25.8819
L15.1987 25.8819
" />
<path d="M15.1987 25.8819
L15.3196 25.9424
" />
<path d="M15.3196 25.9424
L15.3801 26.0029
" />
<path d="M15.3801 26.0029
L15.4406 26.1238
" />
<path d="M15.4406 26.1238
L15.4406 26.1843
" />
<path d="M15.4406 26.1843
L15.3801 26.3053
" />
<path d="M15.3801 26.3053
L15.3196 26.3657
" />
<path d="M15.3196 26.3657
L15.1987 26.4262
" />
<path d="M15.1987 26.4262
L14.9568 26.4262
" />
<path d="M14.9568 26.4262
L14.8358 26.4867
" />
<path d="M14.8358 26.4867
L14.7753 26.5472
" />
<path d="M14.7753 26.5472
L14.7149 26.6681
" />
<path d="M14.7149 26.6681
L14.7149 26.9100
" />
<path d="M14.7149 26.9100
L14.7753 27.0310
" />
<path d="M14.7753 27.0310
L14.8358 27.0915
" />
<path d="M14.8358 27.0915
L14.9568 27.1519
" />
<path d="M14.9568 27.1519
L15.1987 27.1519
" />
<path d="M15.1987 27.1519
L15.3196 27.0915
" />
<path d="M15.3196 27.0915
L15.3801 27.0310
" />
<path d="M15.3801 27.0310
L15.4406 26.9100
" />
<path d="M15.4406 26.9100
L15.4406 26.6681
" />
<path d="M15.4406 26.6681
L15.3801 26.5472
" />
<path d="M15.3801 26.5472
L15.3196 26.4867
" />
<path d="M15.3196 26.4867
L15.1987 26.4262
" />
</g></g>
<g style="fill:#840000; fill-opacity:0.0; 
stroke:#840000; stroke-width:0.1524; stroke-opacity:1; 
stroke-linecap:round; stroke-linejoin:round;">
<path d="M7.8690 30.1014
L3.8050 30.1014
" />
</g>
<g style="fill:#A90000; fill-opacity:0.0; 
stroke:#A90000; stroke-width:0.1524; stroke-opacity:1; 
stroke-linecap:round; stroke-linejoin:round;">
<text x="5.8370" y="29.8474"
textLength="2.5460" font-size="1.6933" lengthAdjust="spacingAndGlyphs"
text-anchor="middle" opacity="0">19</text>
<g class="stroked-text"><desc>19</desc>
<path d="M5.5951 29.6919
L4.8694 29.6919
" />
<path d="M5.2322 29.6919
L5.2322 28.4219
" />
<path d="M5.2322 28.4219
L5.1113 28.6034
" />
<path d="M5.1113 28.6034
L4.9903 28.7243
" />
<path d="M4.9903 28.7243
L4.8694 28.7848
" />
<path d="M6.1998 29.6919
L6.4417 29.6919
" />
<path d="M6.4417 29.6919
L6.5627 29.6315
" />
<path d="M6.5627 29.6315
L6.6231 29.5710
" />
<path d="M6.6231 29.5710
L6.7441 29.3895
" />
<path d="M6.7441 29.3895
L6.8046 29.1476
" />
<path d="M6.8046 29.1476
L6.8046 28.6638
" />
<path d="M6.8046 28.6638
L6.7441 28.5429
" />
<path d="M6.7441 28.5429
L6.6836 28.4824
" />
<path d="M6.6836 28.4824
L6.5627 28.4219
" />
<path d="M6.5627 28.4219
L6.3208 28.4219
" />
<path d="M6.3208 28.4219
L6.1998 28.4824
" />
<path d="M6.1998 28.4824
L6.1393 28.5429
" />
<path d="M6.1393 28.5429
L6.0789 28.6638
" />
<path d="M6.0789 28.6638
L6.0789 28.9662
" />
<path d="M6.0789 28.9662
L6.1393 29.0872
" />
<path d="M6.1393 29.0872
L6.1998 29.1476
" />
<path d="M6.1998 29.1476
L6.3208 29.2081
" />
<path d="M6.3208 29.2081
L6.5627 29.2081
" />
<path d="M6.5627 29.2081
L6.6836 29.1476
" />
<path d="M6.6836 29.1476
L6.7441 29.0872
" />
<path d="M6.7441 29.0872
L6.8046 28.9662
" />
</g></g>
<g style="fill:#840000; fill-opacity:0.0; 
stroke:#840000; stroke-width:0.1524; stroke-opacity:1; 
stroke-linecap:round; stroke-linejoin:round;">
<path d="M12.4410 7.2414
L16.5050 7.2414
" />
</g>
<g style="fill:#A90000; fill-opacity:0.0; 
stroke:#A90000; stroke-width:0.1524; stroke-opacity:1; 
stroke-linecap:round; stroke-linejoin:round;">
<text x="14.4730" y="6.9874"
textLength="1.3365" font-size="1.6933" lengthAdjust="spacingAndGlyphs"
text-anchor="middle" opacity="0">2</text>
<g class="stroked-text"><desc>2</desc>
<path d="M14.1102 5.6829
L14.1706 5.6224
" />
<path d="M14.1706 5.6224
L14.2916 5.5619
" />
<path d="M14.2916 5.5619
L14.5940 5.5619
" />
<path d="M14.5940 5.5619
L14.7149 5.6224
" />
<path d="M14.7149 5.6224
L14.7754 5.6829
" />
<path d="M14.7754 5.6829
L14.8359 5.8038
" />
<path d="M14.8359 5.8038
L14.8359 5.9248
" />
<path d="M14.8359 5.9248
L14.7754 6.1062
" />
<path d="M14.7754 6.1062
L14.0497 6.8319
" />
<path d="M14.0497 6.8319
L14.8359 6.8319
" />
</g></g>
<g style="fill:#840000; fill-opacity:0.0; 
stroke:#840000; stroke-width:0.1524; stroke-opacity:1; 
stroke-linecap:round; stroke-linejoin:round;">
<path d="M12.4410 30.1014
L16.5050 30.1014
" />
</g>
<g style="fill:#A90000; fill-opacity:0.0; 
stroke:#A90000; stroke-width:0.1524; stroke-opacity:1; 
stroke-linecap:round; stroke-linejoin:round;">
<text x="14.4730" y="29.8474"
textLength="2.5460" font-size="1.6933" lengthAdjust="spacingAndGlyphs"
text-anchor="middle" opacity="0">20</text>
<g class="stroked-text"><desc>20</desc>
<path d="M13.5054 28.5429
L13.5658 28.4824
" />
<path d="M13.5658 28.4824
L13.6868 28.4219
" />
<path d="M13.6868 28.4219
L13.9892 28.4219
" />
<path d="M13.9892 28.4219
L14.1101 28.4824
" />
<path d="M14.1101 28.4824
L14.1706 28.5429
" />
<path d="M14.1706 28.5429
L14.2311 28.6638
" />
<path d="M14.2311 28.6638
L14.2311 28.7848
" />
<path d="M14.2311 28.7848
L14.1706 28.9662
" />
<path d="M14.1706 28.9662
L13.4449 29.6919
" />
<path d="M13.4449 29.6919
L14.2311 29.6919
" />
<path d="M15.0172 28.4219
L15.1382 28.4219
" />
<path d="M15.1382 28.4219
L15.2591 28.4824
" />
<path d="M15.2591 28.4824
L15.3196 28.5429
" />
<path d="M15.3196 28.5429
L15.3801 28.6638
" />
<path d="M15.3801 28.6638
L15.4406 28.9057
" />
<path d="M15.4406 28.9057
L15.4406 29.2081
" />
<path d="M15.4406 29.2081
L15.3801 29.4500
" />
<path d="M15.3801 29.4500
L15.3196 29.5710
" />
<path d="M15.3196 29.5710
L15.2591 29.6315
" />
<path d="M15.2591 29.6315
L15.1382 29.6919
" />
<path d="M15.1382 29.6919
L15.0172 29.6919
" />
<path d="M15.0172 29.6919
L14.8963 29.6315
" />
<path d="M14.8963 29.6315
L14.8358 29.5710
" />
<path d="M14.8358 29.5710
L14.7753 29.4500
" />
<path d="M14.7753 29.4500
L14.7149 29.2081
" />
<path d="M14.7149 29.2081
L14.7149 28.9057
" />
<path d="M14.7149 28.9057
L14.7753 28.6638
" />
<path d="M14.7753 28.6638
L14.8358 28.5429
" />
<path d="M14.8358 28.5429
L14.8963 28.4824
" />
<path d="M14.8963 28.4824
L15.0172 28.4219
" />
</g></g>
<g style="fill:#840000; fill-opacity:0.0; 
stroke:#840000; stroke-width:0.1524; stroke-opacity:1; 
stroke-linecap:round; stroke-linejoin:round;">
<path d="M7.8690 32.6414
L3.8050 32.6414
" />
</g>
<g style="fill:#A90000; fill-opacity:0.0; 
stroke:#A90000; stroke-width:0.1524; stroke-opacity:1; 
stroke-linecap:round; stroke-linejoin:round;">
<text x="5.8370" y="32.3874"
textLength="2.5460" font-size="1.6933" lengthAdjust="spacingAndGlyphs"
text-anchor="middle" opacity="0">21</text>
<g class="stroked-text"><desc>21</desc>
<path d="M4.8694 31.0829
L4.9298 31.0224
" />
<path d="M4.9298 31.0224
L5.0508 30.9619
" />
<path d="M5.0508 30.9619
L5.3532 30.9619
" />
<path d="M5.3532 30.9619
L5.4741 31.0224
" />
<path d="M5.4741 31.0224
L5.5346 31.0829
" />
<path d="M5.5346 31.0829
L5.5951 31.2038
" />
<path d="M5.5951 31.2038
L5.5951 31.3248
" />
<path d="M5.5951 31.3248
L5.5346 31.5062
" />
<path d="M5.5346 31.5062
L4.8089 32.2319
" />
<path d="M4.8089 32.2319
L5.5951 32.2319
" />
<path d="M6.8046 32.2319
L6.0789 32.2319
" />
<path d="M6.4417 32.2319
L6.4417 30.9619
" />
<path d="M6.4417 30.9619
L6.3208 31.1434
" />
<path d="M6.3208 31.1434
L6.1998 31.2643
" />
<path d="M6.1998 31.2643
L6.0789 31.3248
" />
</g></g>
<g style="fill:#840000; fill-opacity:0.0; 
stroke:#840000; stroke-width:0.1524; stroke-opacity:1; 
stroke-linecap:round; stroke-linejoin:round;">
<path d="M12.4410 32.6414
L16.5050 32.6414
" />
</g>
<g style="fill:#A90000; fill-opacity:0.0; 
stroke:#A90000; stroke-width:0.1524; stroke-opacity:1; 
stroke-linecap:round; stroke-linejoin:round;">
<text x="14.4730" y="32.3874"
textLength="2.5460" font-size="1.6933" lengthAdjust="spacingAndGlyphs"
text-anchor="middle" opacity="0">22</text>
<g class="stroked-text"><desc>22</desc>
<path d="M13.5054 31.0829
L13.5658 31.0224
" />
<path d="M13.5658 31.0224
L13.6868 30.9619
" />
<path d="M13.6868 30.9619
L13.9892 30.9619
" />
<path d="M13.9892 30.9619
L14.1101 31.0224
" />
<path d="M14.1101 31.0224
L14.1706 31.0829
" />
<path d="M14.1706 31.0829
L14.2311 31.2038
" />
<path d="M14.2311 31.2038
L14.2311 31.3248
" />
<path d="M14.2311 31.3248
L14.1706 31.5062
" />
<path d="M14.1706 31.5062
L13.4449 32.2319
" />
<path d="M13.4449 32.2319
L14.2311 32.2319
" />
<path d="M14.7149 31.0829
L14.7753 31.0224
" />
<path d="M14.7753 31.0224
L14.8963 30.9619
" />
<path d="M14.8963 30.9619
L15.1987 30.9619
" />
<path d="M15.1987 30.9619
L15.3196 31.0224
" />
<path d="M15.3196 31.0224
L15.3801 31.0829
" />
<path d="M15.3801 31.0829
L15.4406 31.2038
" />
<path d="M15.4406 31.2038
L15.4406 31.3248
" />
<path d="M15.4406 31.3248
L15.3801 31.5062
" />
<path d="M15.3801 31.5062
L14.6544 32.2319
" />
<path d="M14.6544 32.2319
L15.4406 32.2319
" />
</g></g>
<g style="fill:#840000; fill-opacity:0.0; 
stroke:#840000; stroke-width:0.1524; stroke-opacity:1; 
stroke-linecap:round; stroke-linejoin:round;">
<path d="M7.8690 35.1814
L3.8050 35.1814
" />
</g>
<g style="fill:#A90000; fill-opacity:0.0; 
stroke:#A90000; stroke-width:0.1524; stroke-opacity:1; 
stroke-linecap:round; stroke-linejoin:round;">
<text x="5.8370" y="34.9274"
textLength="2.5460" font-size="1.6933" lengthAdjust="spacingAndGlyphs"
text-anchor="middle" opacity="0">23</text>
<g class="stroked-text"><desc>23</desc>
<path d="M4.8694 33.6229
L4.9298 33.5624
" />
<path d="M4.9298 33.5624
L5.0508 33.5019
" />
<path d="M5.0508 33.5019
L5.3532 33.5019
" />
<path d="M5.3532 33.5019
L5.4741 33.5624
" />
<path d="M5.4741 33.5624
L5.5346 33.6229
" />
<path d="M5.5346 33.6229
L5.5951 33.7438
" />
<path d="M5.5951 33.7438
L5.5951 33.8648
" />
<path d="M5.5951 33.8648
L5.5346 34.0462
" />
<path d="M5.5346 34.0462
L4.8089 34.7719
" />
<path d="M4.8089 34.7719
L5.5951 34.7719
" />
<path d="M6.0184 33.5019
L6.8046 33.5019
" />
<path d="M6.8046 33.5019
L6.3812 33.9857
" />
<path d="M6.3812 33.9857
L6.5627 33.9857
" />
<path d="M6.5627 33.9857
L6.6836 34.0462
" />
<path d="M6.6836 34.0462
L6.7441 34.1067
" />
<path d="M6.7441 34.1067
L6.8046 34.2276
" />
<path d="M6.8046 34.2276
L6.8046 34.5300
" />
<path d="M6.8046 34.5300
L6.7441 34.6510
" />
<path d="M6.7441 34.6510
L6.6836 34.7115
" />
<path d="M6.6836 34.7115
L6.5627 34.7719
" />
<path d="M6.5627 34.7719
L6.1998 34.7719
" />
<path d="M6.1998 34.7719
L6.0789 34.7115
" />
<path d="M6.0789 34.7115
L6.0184 34.6510
" />
</g></g>
<g style="fill:#840000; fill-opacity:0.0; 
stroke:#840000; stroke-width:0.1524; stroke-opacity:1; 
stroke-linecap:round; stroke-linejoin:round;">
<path d="M12.4410 35.1814
L16.5050 35.1814
" />
</g>
<g style="fill:#A90000; fill-opacity:0.0; 
stroke:#A90000; stroke-width:0.1524; stroke-opacity:1; 
stroke-linecap:round; stroke-linejoin:round;">
<text x="14.4730" y="34.9274"
textLength="2.5460" font-size="1.6933" lengthAdjust="spacingAndGlyphs"
text-anchor="middle" opacity="0">24</text>
<g class="stroked-text"><desc>24</desc>
<path d="M13.5054 33.6229
L13.5658 33.5624
" />
<path d="M13.5658 33.5624
L13.6868 33.5019
" />
<path d="M13.6868 33.5019
L13.9892 33.5019
" />
<path d="M13.9892 33.5019
L14.1101 33.5624
" />
<path d="M14.1101 33.5624
L14.1706 33.6229
" />
<path d="M14.1706 33.6229
L14.2311 33.7438
" />
<path d="M14.2311 33.7438
L14.2311 33.8648
" />
<path d="M14.2311 33.8648
L14.1706 34.0462
" />
<path d="M14.1706 34.0462
L13.4449 34.7719
" />
<path d="M13.4449 34.7719
L14.2311 34.7719
" />
<path d="M15.3196 33.9253
L15.3196 34.7719
" />
<path d="M15.0172 33.4415
L14.7149 34.3486
" />
<path d="M14.7149 34.3486
L15.5010 34.3486
" />
</g></g>
<g style="fill:#840000; fill-opacity:0.0; 
stroke:#840000; stroke-width:0.1524; stroke-opacity:1; 
stroke-linecap:round; stroke-linejoin:round;">
<path d="M7.8690 37.7214
L3.8050 37.7214
" />
</g>
<g style="fill:#A90000; fill-opacity:0.0; 
stroke:#A90000; stroke-width:0.1524; stroke-opacity:1; 
stroke-linecap:round; stroke-linejoin:round;">
<text x="5.8370" y="37.4674"
textLength="2.5460" font-size="1.6933" lengthAdjust="spacingAndGlyphs"
text-anchor="middle" opacity="0">25</text>
<g class="stroked-text"><desc>25</desc>
<path d="M4.8694 36.1629
L4.9298 36.1024
" />
<path d="M4.9298 36.1024
L5.0508 36.0419
" />
<path d="M5.0508 36.0419
L5.3532 36.0419
" />
<path d="M5.3532 36.0419
L5.4741 36.1024
" />
<path d="M5.4741 36.1024
L5.5346 36.1629
" />
<path d="M5.5346 36.1629
L5.5951 36.2838
" />
<path d="M5.5951 36.2838
L5.5951 36.4048
" />
<path d="M5.5951 36.4048
L5.5346 36.5862
" />
<path d="M5.5346 36.5862
L4.8089 37.3119
" />
<path d="M4.8089 37.3119
L5.5951 37.3119
" />
<path d="M6.7441 36.0419
L6.1393 36.0419
" />
<path d="M6.1393 36.0419
L6.0789 36.6467
" />
<path d="M6.0789 36.6467
L6.1393 36.5862
" />
<path d="M6.1393 36.5862
L6.2603 36.5257
" />
<path d="M6.2603 36.5257
L6.5627 36.5257
" />
<path d="M6.5627 36.5257
L6.6836 36.5862
" />
<path d="M6.6836 36.5862
L6.7441 36.6467
" />
<path d="M6.7441 36.6467
L6.8046 36.7676
" />
<path d="M6.8046 36.7676
L6.8046 37.0700
" />
<path d="M6.8046 37.0700
L6.7441 37.1910
" />
<path d="M6.7441 37.1910
L6.6836 37.2515
" />
<path d="M6.6836 37.2515
L6.5627 37.3119
" />
<path d="M6.5627 37.3119
L6.2603 37.3119
" />
<path d="M6.2603 37.3119
L6.1393 37.2515
" />
<path d="M6.1393 37.2515
L6.0789 37.1910
" />
</g></g>
<g style="fill:#840000; fill-opacity:0.0; 
stroke:#840000; stroke-width:0.1524; stroke-opacity:1; 
stroke-linecap:round; stroke-linejoin:round;">
<path d="M12.4410 37.7214
L16.5050 37.7214
" />
</g>
<g style="fill:#A90000; fill-opacity:0.0; 
stroke:#A90000; stroke-width:0.1524; stroke-opacity:1; 
stroke-linecap:round; stroke-linejoin:round;">
<text x="14.4730" y="37.4674"
textLength="2.5460" font-size="1.6933" lengthAdjust="spacingAndGlyphs"
text-anchor="middle" opacity="0">26</text>
<g class="stroked-text"><desc>26</desc>
<path d="M13.5054 36.1629
L13.5658 36.1024
" />
<path d="M13.5658 36.1024
L13.6868 36.0419
" />
<path d="M13.6868 36.0419
L13.9892 36.0419
" />
<path d="M13.9892 36.0419
L14.1101 36.1024
" />
<path d="M14.1101 36.1024
L14.1706 36.1629
" />
<path d="M14.1706 36.1629
L14.2311 36.2838
" />
<path d="M14.2311 36.2838
L14.2311 36.4048
" />
<path d="M14.2311 36.4048
L14.1706 36.5862
" />
<path d="M14.1706 36.5862
L13.4449 37.3119
" />
<path d="M13.4449 37.3119
L14.2311 37.3119
" />
<path d="M15.3196 36.0419
L15.0777 36.0419
" />
<path d="M15.0777 36.0419
L14.9568 36.1024
" />
<path d="M14.9568 36.1024
L14.8963 36.1629
" />
<path d="M14.8963 36.1629
L14.7753 36.3443
" />
<path d="M14.7753 36.3443
L14.7149 36.5862
" />
<path d="M14.7149 36.5862
L14.7149 37.0700
" />
<path d="M14.7149 37.0700
L14.7753 37.1910
" />
<path d="M14.7753 37.1910
L14.8358 37.2515
" />
<path d="M14.8358 37.2515
L14.9568 37.3119
" />
<path d="M14.9568 37.3119
L15.1987 37.3119
" />
<path d="M15.1987 37.3119
L15.3196 37.2515
" />
<path d="M15.3196 37.2515
L15.3801 37.1910
" />
<path d="M15.3801 37.1910
L15.4406 37.0700
" />
<path d="M15.4406 37.0700
L15.4406 36.7676
" />
<path d="M15.4406 36.7676
L15.3801 36.6467
" />
<path d="M15.3801 36.6467
L15.3196 36.5862
" />
<path d="M15.3196 36.5862
L15.1987 36.5257
" />
<path d="M15.1987 36.5257
L14.9568 36.5257
" />
<path d="M14.9568 36.5257
L14.8358 36.5862
" />
<path d="M14.8358 36.5862
L14.7753 36.6467
" />
<path d="M14.7753 36.6467
L14.7149 36.7676
" />
</g></g>
<g style="fill:#840000; fill-opacity:0.0; 
stroke:#840000; stroke-width:0.1524; stroke-opacity:1; 
stroke-linecap:round; stroke-linejoin:round;">
<path d="M7.8690 40.2614
L3.8050 40.2614
" />
</g>
<g style="fill:#A90000; fill-opacity:0.0; 
stroke:#A90000; stroke-width:0.1524; stroke-opacity:1; 
stroke-linecap:round; stroke-linejoin:round;">
<text x="5.8370" y="40.0074"
textLength="2.5460" font-size="1.6933" lengthAdjust="spacingAndGlyphs"
text-anchor="middle" opacity="0">27</text>
<g class="stroked-text"><desc>27</desc>
<path d="M4.8694 38.7029
L4.9298 38.6424
" />
<path d="M4.9298 38.6424
L5.0508 38.5819
" />
<path d="M5.0508 38.5819
L5.3532 38.5819
" />
<path d="M5.3532 38.5819
L5.4741 38.6424
" />
<path d="M5.4741 38.6424
L5.5346 38.7029
" />
<path d="M5.5346 38.7029
L5.5951 38.8238
" />
<path d="M5.5951 38.8238
L5.5951 38.9448
" />
<path d="M5.5951 38.9448
L5.5346 39.1262
" />
<path d="M5.5346 39.1262
L4.8089 39.8519
" />
<path d="M4.8089 39.8519
L5.5951 39.8519
" />
<path d="M6.0184 38.5819
L6.8650 38.5819
" />
<path d="M6.8650 38.5819
L6.3208 39.8519
" />
</g></g>
<g style="fill:#840000; fill-opacity:0.0; 
stroke:#840000; stroke-width:0.1524; stroke-opacity:1; 
stroke-linecap:round; stroke-linejoin:round;">
<path d="M12.4410 40.2614
L16.5050 40.2614
" />
</g>
<g style="fill:#A90000; fill-opacity:0.0; 
stroke:#A90000; stroke-width:0.1524; stroke-opacity:1; 
stroke-linecap:round; stroke-linejoin:round;">
<text x="14.4730" y="40.0074"
textLength="2.5460" font-size="1.6933" lengthAdjust="spacingAndGlyphs"
text-anchor="middle" opacity="0">28</text>
<g class="stroked-text"><desc>28</desc>
<path d="M13.5054 38.7029
L13.5658 38.6424
" />
<path d="M13.5658 38.6424
L13.6868 38.5819
" />
<path d="M13.6868 38.5819
L13.9892 38.5819
" />
<path d="M13.9892 38.5819
L14.1101 38.6424
" />
<path d="M14.1101 38.6424
L14.1706 38.7029
" />
<path d="M14.1706 38.7029
L14.2311 38.8238
" />
<path d="M14.2311 38.8238
L14.2311 38.9448
" />
<path d="M14.2311 38.9448
L14.1706 39.1262
" />
<path d="M14.1706 39.1262
L13.4449 39.8519
" />
<path d="M13.4449 39.8519
L14.2311 39.8519
" />
<path d="M14.9568 39.1262
L14.8358 39.0657
" />
<path d="M14.8358 39.0657
L14.7753 39.0053
" />
<path d="M14.7753 39.0053
L14.7149 38.8843
" />
<path d="M14.7149 38.8843
L14.7149 38.8238
" />
<path d="M14.7149 38.8238
L14.7753 38.7029
" />
<path d="M14.7753 38.7029
L14.8358 38.6424
" />
<path d="M14.8358 38.6424
L14.9568 38.5819
" />
<path d="M14.9568 38.5819
L15.1987 38.5819
" />
<path d="M15.1987 38.5819
L15.3196 38.6424
" />
<path d="M15.3196 38.6424
L15.3801 38.7029
" />
<path d="M15.3801 38.7029
L15.4406 38.8238
" />
<path d="M15.4406 38.8238
L15.4406 38.8843
" />
<path d="M15.4406 38.8843
L15.3801 39.0053
" />
<path d="M15.3801 39.0053
L15.3196 39.0657
" />
<path d="M15.3196 39.0657
L15.1987 39.1262
" />
<path d="M15.1987 39.1262
L14.9568 39.1262
" />
<path d="M14.9568 39.1262
L14.8358 39.1867
" />
<path d="M14.8358 39.1867
L14.7753 39.2472
" />
<path d="M14.7753 39.2472
L14.7149 39.3681
" />
<path d="M14.7149 39.3681
L14.7149 39.6100
" />
<path d="M14.7149 39.6100
L14.7753 39.7310
" />
<path d="M14.7753 39.7310
L14.8358 39.7915
" />
<path d="M14.8358 39.7915
L14.9568 39.8519
" />
<path d="M14.9568 39.8519
L15.1987 39.8519
" />
<path d="M15.1987 39.8519
L15.3196 39.7915
" />
<path d="M15.3196 39.7915
L15.3801 39.7310
" />
<path d="M15.3801 39.7310
L15.4406 39.6100
" />
<path d="M15.4406 39.6100
L15.4406 39.3681
" />
<path d="M15.4406 39.3681
L15.3801 39.2472
" />
<path d="M15.3801 39.2472
L15.3196 39.1867
" />
<path d="M15.3196 39.1867
L15.1987 39.1262
" />
</g></g>
<g style="fill:#840000; fill-opacity:0.0; 
stroke:#840000; stroke-width:0.1524; stroke-opacity:1; 
stroke-linecap:round; stroke-linejoin:round;">
<path d="M7.8690 9.7814
L3.8050 9.7814
" />
</g>
<g style="fill:#A90000; fill-opacity:0.0; 
stroke:#A90000; stroke-width:0.1524; stroke-opacity:1; 
stroke-linecap:round; stroke-linejoin:round;">
<text x="5.8370" y="9.5274"
textLength="1.3365" font-size="1.6933" lengthAdjust="spacingAndGlyphs"
text-anchor="middle" opacity="0">3</text>
<g class="stroked-text"><desc>3</desc>
<path d="M5.4137 8.1019
L6.1999 8.1019
" />
<path d="M6.1999 8.1019
L5.7765 8.5857
" />
<path d="M5.7765 8.5857
L5.9580 8.5857
" />
<path d="M5.9580 8.5857
L6.0789 8.6462
" />
<path d="M6.0789 8.6462
L6.1394 8.7067
" />
<path d="M6.1394 8.7067
L6.1999 8.8276
" />
<path d="M6.1999 8.8276
L6.1999 9.1300
" />
<path d="M6.1999 9.1300
L6.1394 9.2510
" />
<path d="M6.1394 9.2510
L6.0789 9.3115
" />
<path d="M6.0789 9.3115
L5.9580 9.3719
" />
<path d="M5.9580 9.3719
L5.5951 9.3719
" />
<path d="M5.5951 9.3719
L5.4742 9.3115
" />
<path d="M5.4742 9.3115
L5.4137 9.2510
" />
</g></g>
<g style="fill:#840000; fill-opacity:0.0; 
stroke:#840000; stroke-width:0.1524; stroke-opacity:1; 
stroke-linecap:round; stroke-linejoin:round;">
<path d="M12.4410 9.7814
L16.5050 9.7814
" />
</g>
<g style="fill:#A90000; fill-opacity:0.0; 
stroke:#A90000; stroke-width:0.1524; stroke-opacity:1; 
stroke-linecap:round; stroke-linejoin:round;">
<text x="14.4730" y="9.5274"
textLength="1.3365" font-size="1.6933" lengthAdjust="spacingAndGlyphs"
text-anchor="middle" opacity="0">4</text>
<g class="stroked-text"><desc>4</desc>
<path d="M14.7149 8.5253
L14.7149 9.3719
" />
<path d="M14.4125 8.0415
L14.1102 8.9486
" />
<path d="M14.1102 8.9486
L14.8963 8.9486
" />
</g></g>
<g style="fill:#840000; fill-opacity:0.0; 
stroke:#840000; stroke-width:0.1524; stroke-opacity:1; 
stroke-linecap:round; stroke-linejoin:round;">
<path d="M7.8690 12.3214
L3.8050 12.3214
" />
</g>
<g style="fill:#A90000; fill-opacity:0.0; 
stroke:#A90000; stroke-width:0.1524; stroke-opacity:1; 
stroke-linecap:round; stroke-linejoin:round;">
<text x="5.8370" y="12.0674"
textLength="1.3365" font-size="1.6933" lengthAdjust="spacingAndGlyphs"
text-anchor="middle" opacity="0">5</text>
<g class="stroked-text"><desc>5</desc>
<path d="M6.1394 10.6419
L5.5346 10.6419
" />
<path d="M5.5346 10.6419
L5.4742 11.2467
" />
<path d="M5.4742 11.2467
L5.5346 11.1862
" />
<path d="M5.5346 11.1862
L5.6556 11.1257
" />
<path d="M5.6556 11.1257
L5.9580 11.1257
" />
<path d="M5.9580 11.1257
L6.0789 11.1862
" />
<path d="M6.0789 11.1862
L6.1394 11.2467
" />
<path d="M6.1394 11.2467
L6.1999 11.3676
" />
<path d="M6.1999 11.3676
L6.1999 11.6700
" />
<path d="M6.1999 11.6700
L6.1394 11.7910
" />
<path d="M6.1394 11.7910
L6.0789 11.8515
" />
<path d="M6.0789 11.8515
L5.9580 11.9119
" />
<path d="M5.9580 11.9119
L5.6556 11.9119
" />
<path d="M5.6556 11.9119
L5.5346 11.8515
" />
<path d="M5.5346 11.8515
L5.4742 11.7910
" />
</g></g>
<g style="fill:#840000; fill-opacity:0.0; 
stroke:#840000; stroke-width:0.1524; stroke-opacity:1; 
stroke-linecap:round; stroke-linejoin:round;">
<path d="M12.4410 12.3214
L16.5050 12.3214
" />
</g>
<g style="fill:#A90000; fill-opacity:0.0; 
stroke:#A90000; stroke-width:0.1524; stroke-opacity:1; 
stroke-linecap:round; stroke-linejoin:round;">
<text x="14.4730" y="12.0674"
textLength="1.3365" font-size="1.6933" lengthAdjust="spacingAndGlyphs"
text-anchor="middle" opacity="0">6</text>
<g class="stroked-text"><desc>6</desc>
<path d="M14.7149 10.6419
L14.4730 10.6419
" />
<path d="M14.4730 10.6419
L14.3521 10.7024
" />
<path d="M14.3521 10.7024
L14.2916 10.7629
" />
<path d="M14.2916 10.7629
L14.1706 10.9443
" />
<path d="M14.1706 10.9443
L14.1102 11.1862
" />
<path d="M14.1102 11.1862
L14.1102 11.6700
" />
<path d="M14.1102 11.6700
L14.1706 11.7910
" />
<path d="M14.1706 11.7910
L14.2311 11.8515
" />
<path d="M14.2311 11.8515
L14.3521 11.9119
" />
<path d="M14.3521 11.9119
L14.5940 11.9119
" />
<path d="M14.5940 11.9119
L14.7149 11.8515
" />
<path d="M14.7149 11.8515
L14.7754 11.7910
" />
<path d="M14.7754 11.7910
L14.8359 11.6700
" />
<path d="M14.8359 11.6700
L14.8359 11.3676
" />
<path d="M14.8359 11.3676
L14.7754 11.2467
" />
<path d="M14.7754 11.2467
L14.7149 11.1862
" />
<path d="M14.7149 11.1862
L14.5940 11.1257
" />
<path d="M14.5940 11.1257
L14.3521 11.1257
" />
<path d="M14.3521 11.1257
L14.2311 11.1862
" />
<path d="M14.2311 11.1862
L14.1706 11.2467
" />
<path d="M14.1706 11.2467
L14.1102 11.3676
" />
</g></g>
<g style="fill:#840000; fill-opacity:0.0; 
stroke:#840000; stroke-width:0.1524; stroke-opacity:1; 
stroke-linecap:round; stroke-linejoin:round;">
<path d="M7.8690 14.8614
L3.8050 14.8614
" />
</g>
<g style="fill:#A90000; fill-opacity:0.0; 
stroke:#A90000; stroke-width:0.1524; stroke-opacity:1; 
stroke-linecap:round; stroke-linejoin:round;">
<text x="5.8370" y="14.6074"
textLength="1.3365" font-size="1.6933" lengthAdjust="spacingAndGlyphs"
text-anchor="middle" opacity="0">7</text>
<g class="stroked-text"><desc>7</desc>
<path d="M5.4137 13.1819
L6.2603 13.1819
" />
<path d="M6.2603 13.1819
L5.7161 14.4519
" />
</g></g>
<g style="fill:#840000; fill-opacity:0.0; 
stroke:#840000; stroke-width:0.1524; stroke-opacity:1; 
stroke-linecap:round; stroke-linejoin:round;">
<path d="M12.4410 14.8614
L16.5050 14.8614
" />
</g>
<g style="fill:#A90000; fill-opacity:0.0; 
stroke:#A90000; stroke-width:0.1524; stroke-opacity:1; 
stroke-linecap:round; stroke-linejoin:round;">
<text x="14.4730" y="14.6074"
textLength="1.3365" font-size="1.6933" lengthAdjust="spacingAndGlyphs"
text-anchor="middle" opacity="0">8</text>
<g class="stroked-text"><desc>8</desc>
<path d="M14.3521 13.7262
L14.2311 13.6657
" />
<path d="M14.2311 13.6657
L14.1706 13.6053
" />
<path d="M14.1706 13.6053
L14.1102 13.4843
" />
<path d="M14.1102 13.4843
L14.1102 13.4238
" />
<path d="M14.1102 13.4238
L14.1706 13.3029
" />
<path d="M14.1706 13.3029
L14.2311 13.2424
" />
<path d="M14.2311 13.2424
L14.3521 13.1819
" />
<path d="M14.3521 13.1819
L14.5940 13.1819
" />
<path d="M14.5940 13.1819
L14.7149 13.2424
" />
<path d="M14.7149 13.2424
L14.7754 13.3029
" />
<path d="M14.7754 13.3029
L14.8359 13.4238
" />
<path d="M14.8359 13.4238
L14.8359 13.4843
" />
<path d="M14.8359 13.4843
L14.7754 13.6053
" />
<path d="M14.7754 13.6053
L14.7149 13.6657
" />
<path d="M14.7149 13.6657
L14.5940 13.7262
" />
<path d="M14.5940 13.7262
L14.3521 13.7262
" />
<path d="M14.3521 13.7262
L14.2311 13.7867
" />
<path d="M14.2311 13.7867
L14.1706 13.8472
" />
<path d="M14.1706 13.8472
L14.1102 13.9681
" />
<path d="M14.1102 13.9681
L14.1102 14.2100
" />
<path d="M14.1102 14.2100
L14.1706 14.3310
" />
<path d="M14.1706 14.3310
L14.2311 14.3915
" />
<path d="M14.2311 14.3915
L14.3521 14.4519
" />
<path d="M14.3521 14.4519
L14.5940 14.4519
" />
<path d="M14.5940 14.4519
L14.7149 14.3915
" />
<path d="M14.7149 14.3915
L14.7754 14.3310
" />
<path d="M14.7754 14.3310
L14.8359 14.2100
" />
<path d="M14.8359 14.2100
L14.8359 13.9681
" />
<path d="M14.8359 13.9681
L14.7754 13.8472
" />
<path d="M14.7754 13.8472
L14.7149 13.7867
" />
<path d="M14.7149 13.7867
L14.5940 13.7262
" />
</g></g>
<g style="fill:#840000; fill-opacity:0.0; 
stroke:#840000; stroke-width:0.1524; stroke-opacity:1; 
stroke-linecap:round; stroke-linejoin:round;">
<path d="M7.8690 17.4014
L3.8050 17.4014
" />
</g>
<g style="fill:#A90000; fill-opacity:0.0; 
stroke:#A90000; stroke-width:0.1524; stroke-opacity:1; 
stroke-linecap:round; stroke-linejoin:round;">
<text x="5.8370" y="17.1474"
textLength="1.3365" font-size="1.6933" lengthAdjust="spacingAndGlyphs"
text-anchor="middle" opacity="0">9</text>
<g class="stroked-text"><desc>9</desc>
<path d="M5.5951 16.9919
L5.8370 16.9919
" />
<path d="M5.8370 16.9919
L5.9580 16.9315
" />
<path d="M5.9580 16.9315
L6.0184 16.8710
" />
<path d="M6.0184 16.8710
L6.1394 16.6895
" />
<path d="M6.1394 16.6895
L6.1999 16.4476
" />
<path d="M6.1999 16.4476
L6.1999 15.9638
" />
<path d="M6.1999 15.9638
L6.1394 15.8429
" />
<path d="M6.1394 15.8429
L6.0789 15.7824
" />
<path d="M6.0789 15.7824
L5.9580 15.7219
" />
<path d="M5.9580 15.7219
L5.7161 15.7219
" />
<path d="M5.7161 15.7219
L5.5951 15.7824
" />
<path d="M5.5951 15.7824
L5.5346 15.8429
" />
<path d="M5.5346 15.8429
L5.4742 15.9638
" />
<path d="M5.4742 15.9638
L5.4742 16.2662
" />
<path d="M5.4742 16.2662
L5.5346 16.3872
" />
<path d="M5.5346 16.3872
L5.5951 16.4476
" />
<path d="M5.5951 16.4476
L5.7161 16.5081
" />
<path d="M5.7161 16.5081
L5.9580 16.5081
" />
<path d="M5.9580 16.5081
L6.0789 16.4476
" />
<path d="M6.0789 16.4476
L6.1394 16.3872
" />
<path d="M6.1394 16.3872
L6.1999 16.2662
" />
</g></g>
<g style="fill:#840000; fill-opacity:0.0; 
stroke:#840000; stroke-width:0.1524; stroke-opacity:1; 
stroke-linecap:round; stroke-linejoin:round;">
<path d="M10.1550 41.5314
L10.1550 45.3414
" />
</g>
<g style="fill:#A90000; fill-opacity:0.0; 
stroke:#A90000; stroke-width:0.1524; stroke-opacity:1; 
stroke-linecap:round; stroke-linejoin:round;">
<g transform="rotate(-90.000000 9.9010 43.4364)">
<text x="9.9010" y="43.4364"
textLength="2.6670" font-size="1.6933" lengthAdjust="spacingAndGlyphs"
text-anchor="middle" opacity="0">SH</text>
</g>
<g class="stroked-text"><desc>SH</desc>
<path d="M9.6851 44.4644
L9.7455 44.2830
" />
<path d="M9.7455 44.2830
L9.7455 43.9806
" />
<path d="M9.7455 43.9806
L9.6851 43.8597
" />
<path d="M9.6851 43.8597
L9.6246 43.7992
" />
<path d="M9.6246 43.7992
L9.5036 43.7387
" />
<path d="M9.5036 43.7387
L9.3827 43.7387
" />
<path d="M9.3827 43.7387
L9.2617 43.7992
" />
<path d="M9.2617 43.7992
L9.2012 43.8597
" />
<path d="M9.2012 43.8597
L9.1408 43.9806
" />
<path d="M9.1408 43.9806
L9.0803 44.2225
" />
<path d="M9.0803 44.2225
L9.0198 44.3435
" />
<path d="M9.0198 44.3435
L8.9593 44.4040
" />
<path d="M8.9593 44.4040
L8.8384 44.4644
" />
<path d="M8.8384 44.4644
L8.7174 44.4644
" />
<path d="M8.7174 44.4644
L8.5965 44.4040
" />
<path d="M8.5965 44.4040
L8.5360 44.3435
" />
<path d="M8.5360 44.3435
L8.4755 44.2225
" />
<path d="M8.4755 44.2225
L8.4755 43.9202
" />
<path d="M8.4755 43.9202
L8.5360 43.7387
" />
<path d="M9.7455 43.1945
L8.4755 43.1945
" />
<path d="M9.0803 43.1945
L9.0803 42.4688
" />
<path d="M9.7455 42.4688
L8.4755 42.4688
" />
</g></g>
<g style="fill:#840084; fill-opacity:0.0; 
stroke:#840084; stroke-width:0.1524; stroke-opacity:1; 
stroke-linecap:round; stroke-linejoin:round;">
</g>
<g style="fill:#006464; fill-opacity:0.0; 
stroke:#006464; stroke-width:0.1524; stroke-opacity:1; 
stroke-linecap:round; stroke-linejoin:round;">
</g>
<g style="fill:#006464; fill-opacity:0.0; 
stroke:#006464; stroke-width:0.1588; stroke-opacity:1; 
stroke-linecap:round; stroke-linejoin:round;">
<text x="10.4090" y="5.5904"
textLength="2.1992" font-size="1.6933" lengthAdjust="spacingAndGlyphs"
text-anchor="middle" opacity="0">J?</text>
<g class="stroked-text"><desc>J?</desc>
<path d="M10.0461 4.2729
L10.0461 5.1801
" />
<path d="M10.0461 5.1801
L9.9856 5.3615
" />
<path d="M9.9856 5.3615
L9.8647 5.4825
" />
<path d="M9.8647 5.4825
L9.6832 5.5429
" />
<path d="M9.6832 5.5429
L9.5623 5.5429
" />
<path d="M10.8323 5.4220
L10.8927 5.4825
" />
<path d="M10.8927 5.4825
L10.8323 5.5429
" />
<path d="M10.8323 5.5429
L10.7718 5.4825
" />
<path d="M10.7718 5.4825
L10.8323 5.4220
" />
<path d="M10.8323 5.4220
L10.8323 5.5429
" />
<path d="M10.5904 4.3334
L10.7113 4.2729
" />
<path d="M10.7113 4.2729
L11.0137 4.2729
" />
<path d="M11.0137 4.2729
L11.1346 4.3334
" />
<path d="M11.1346 4.3334
L11.1951 4.4544
" />
<path d="M11.1951 4.4544
L11.1951 4.5753
" />
<path d="M11.1951 4.5753
L11.1346 4.6963
" />
<path d="M11.1346 4.6963
L11.0742 4.7567
" />
<path d="M11.0742 4.7567
L10.9532 4.8172
" />
<path d="M10.9532 4.8172
L10.8927 4.8777
" />
<path d="M10.8927 4.8777
L10.8323 4.9986
" />
<path d="M10.8323 4.9986
L10.8323 5.0591
" />
</g><text x="26.5124" y="43.1824"
textLength="30.6829" font-size="1.6933" lengthAdjust="spacingAndGlyphs"
text-anchor="middle" opacity="0">Conn_02x14_Odd_Even_Shielded</text>
<g class="stroked-text"><desc>Conn_02x14_Odd_Even_Shielded</desc>
<path d="M12.2705 43.0140
L12.2101 43.0745
" />
<path d="M12.2101 43.0745
L12.0286 43.1349
" />
<path d="M12.0286 43.1349
L11.9077 43.1349
" />
<path d="M11.9077 43.1349
L11.7263 43.0745
" />
<path d="M11.7263 43.0745
L11.6053 42.9535
" />
<path d="M11.6053 42.9535
L11.5448 42.8325
" />
<path d="M11.5448 42.8325
L11.4844 42.5906
" />
<path d="M11.4844 42.5906
L11.4844 42.4092
" />
<path d="M11.4844 42.4092
L11.5448 42.1673
" />
<path d="M11.5448 42.1673
L11.6053 42.0464
" />
<path d="M11.6053 42.0464
L11.7263 41.9254
" />
<path d="M11.7263 41.9254
L11.9077 41.8649
" />
<path d="M11.9077 41.8649
L12.0286 41.8649
" />
<path d="M12.0286 41.8649
L12.2101 41.9254
" />
<path d="M12.2101 41.9254
L12.2705 41.9859
" />
<path d="M12.9963 43.1349
L12.8753 43.0745
" />
<path d="M12.8753 43.0745
L12.8148 43.0140
" />
<path d="M12.8148 43.0140
L12.7544 42.8930
" />
<path d="M12.7544 42.8930
L12.7544 42.5302
" />
<path d="M12.7544 42.5302
L12.8148 42.4092
" />
<path d="M12.8148 42.4092
L12.8753 42.3487
" />
<path d="M12.8753 42.3487
L12.9963 42.2883
" />
<path d="M12.9963 42.2883
L13.1777 42.2883
" />
<path d="M13.1777 42.2883
L13.2986 42.3487
" />
<path d="M13.2986 42.3487
L13.3591 42.4092
" />
<path d="M13.3591 42.4092
L13.4196 42.5302
" />
<path d="M13.4196 42.5302
L13.4196 42.8930
" />
<path d="M13.4196 42.8930
L13.3591 43.0140
" />
<path d="M13.3591 43.0140
L13.2986 43.0745
" />
<path d="M13.2986 43.0745
L13.1777 43.1349
" />
<path d="M13.1777 43.1349
L12.9963 43.1349
" />
<path d="M13.9638 42.2883
L13.9638 43.1349
" />
<path d="M13.9638 42.4092
L14.0243 42.3487
" />
<path d="M14.0243 42.3487
L14.1453 42.2883
" />
<path d="M14.1453 42.2883
L14.3267 42.2883
" />
<path d="M14.3267 42.2883
L14.4476 42.3487
" />
<path d="M14.4476 42.3487
L14.5081 42.4697
" />
<path d="M14.5081 42.4697
L14.5081 43.1349
" />
<path d="M15.1128 42.2883
L15.1128 43.1349
" />
<path d="M15.1128 42.4092
L15.1733 42.3487
" />
<path d="M15.1733 42.3487
L15.2943 42.2883
" />
<path d="M15.2943 42.2883
L15.4757 42.2883
" />
<path d="M15.4757 42.2883
L15.5966 42.3487
" />
<path d="M15.5966 42.3487
L15.6571 42.4697
" />
<path d="M15.6571 42.4697
L15.6571 43.1349
" />
<path d="M15.9595 43.2559
L16.9271 43.2559
" />
<path d="M17.4713 41.8649
L17.5923 41.8649
" />
<path d="M17.5923 41.8649
L17.7132 41.9254
" />
<path d="M17.7132 41.9254
L17.7737 41.9859
" />
<path d="M17.7737 41.9859
L17.8342 42.1068
" />
<path d="M17.8342 42.1068
L17.8947 42.3487
" />
<path d="M17.8947 42.3487
L17.8947 42.6511
" />
<path d="M17.8947 42.6511
L17.8342 42.8930
" />
<path d="M17.8342 42.8930
L17.7737 43.0140
" />
<path d="M17.7737 43.0140
L17.7132 43.0745
" />
<path d="M17.7132 43.0745
L17.5923 43.1349
" />
<path d="M17.5923 43.1349
L17.4713 43.1349
" />
<path d="M17.4713 43.1349
L17.3504 43.0745
" />
<path d="M17.3504 43.0745
L17.2899 43.0140
" />
<path d="M17.2899 43.0140
L17.2294 42.8930
" />
<path d="M17.2294 42.8930
L17.1690 42.6511
" />
<path d="M17.1690 42.6511
L17.1690 42.3487
" />
<path d="M17.1690 42.3487
L17.2294 42.1068
" />
<path d="M17.2294 42.1068
L17.2899 41.9859
" />
<path d="M17.2899 41.9859
L17.3504 41.9254
" />
<path d="M17.3504 41.9254
L17.4713 41.8649
" />
<path d="M18.3785 41.9859
L18.4389 41.9254
" />
<path d="M18.4389 41.9254
L18.5599 41.8649
" />
<path d="M18.5599 41.8649
L18.8623 41.8649
" />
<path d="M18.8623 41.8649
L18.9832 41.9254
" />
<path d="M18.9832 41.9254
L19.0437 41.9859
" />
<path d="M19.0437 41.9859
L19.1042 42.1068
" />
<path d="M19.1042 42.1068
L19.1042 42.2278
" />
<path d="M19.1042 42.2278
L19.0437 42.4092
" />
<path d="M19.0437 42.4092
L18.3180 43.1349
" />
<path d="M18.3180 43.1349
L19.1042 43.1349
" />
<path d="M19.5275 43.1349
L20.1927 42.2883
" />
<path d="M19.5275 42.2883
L20.1927 43.1349
" />
<path d="M21.3418 43.1349
L20.6161 43.1349
" />
<path d="M20.9789 43.1349
L20.9789 41.8649
" />
<path d="M20.9789 41.8649
L20.8580 42.0464
" />
<path d="M20.8580 42.0464
L20.7370 42.1673
" />
<path d="M20.7370 42.1673
L20.6161 42.2278
" />
<path d="M22.4303 42.2883
L22.4303 43.1349
" />
<path d="M22.1279 41.8045
L21.8256 42.7116
" />
<path d="M21.8256 42.7116
L22.6117 42.7116
" />
<path d="M22.7932 43.2559
L23.7608 43.2559
" />
<path d="M24.3050 41.8649
L24.5469 41.8649
" />
<path d="M24.5469 41.8649
L24.6679 41.9254
" />
<path d="M24.6679 41.9254
L24.7888 42.0464
" />
<path d="M24.7888 42.0464
L24.8493 42.2883
" />
<path d="M24.8493 42.2883
L24.8493 42.7116
" />
<path d="M24.8493 42.7116
L24.7888 42.9535
" />
<path d="M24.7888 42.9535
L24.6679 43.0745
" />
<path d="M24.6679 43.0745
L24.5469 43.1349
" />
<path d="M24.5469 43.1349
L24.3050 43.1349
" />
<path d="M24.3050 43.1349
L24.1841 43.0745
" />
<path d="M24.1841 43.0745
L24.0631 42.9535
" />
<path d="M24.0631 42.9535
L24.0027 42.7116
" />
<path d="M24.0027 42.7116
L24.0027 42.2883
" />
<path d="M24.0027 42.2883
L24.0631 42.0464
" />
<path d="M24.0631 42.0464
L24.1841 41.9254
" />
<path d="M24.1841 41.9254
L24.3050 41.8649
" />
<path d="M25.9379 43.1349
L25.9379 41.8649
" />
<path d="M25.9379 43.0745
L25.8170 43.1349
" />
<path d="M25.8170 43.1349
L25.5751 43.1349
" />
<path d="M25.5751 43.1349
L25.4541 43.0745
" />
<path d="M25.4541 43.0745
L25.3936 43.0140
" />
<path d="M25.3936 43.0140
L25.3332 42.8930
" />
<path d="M25.3332 42.8930
L25.3332 42.5302
" />
<path d="M25.3332 42.5302
L25.3936 42.4092
" />
<path d="M25.3936 42.4092
L25.4541 42.3487
" />
<path d="M25.4541 42.3487
L25.5751 42.2883
" />
<path d="M25.5751 42.2883
L25.8170 42.2883
" />
<path d="M25.8170 42.2883
L25.9379 42.3487
" />
<path d="M27.0869 43.1349
L27.0869 41.8649
" />
<path d="M27.0869 43.0745
L26.9660 43.1349
" />
<path d="M26.9660 43.1349
L26.7241 43.1349
" />
<path d="M26.7241 43.1349
L26.6031 43.0745
" />
<path d="M26.6031 43.0745
L26.5426 43.0140
" />
<path d="M26.5426 43.0140
L26.4822 42.8930
" />
<path d="M26.4822 42.8930
L26.4822 42.5302
" />
<path d="M26.4822 42.5302
L26.5426 42.4092
" />
<path d="M26.5426 42.4092
L26.6031 42.3487
" />
<path d="M26.6031 42.3487
L26.7241 42.2883
" />
<path d="M26.7241 42.2883
L26.9660 42.2883
" />
<path d="M26.9660 42.2883
L27.0869 42.3487
" />
<path d="M27.3893 43.2559
L28.3569 43.2559
" />
<path d="M28.6592 42.4697
L29.0826 42.4697
" />
<path d="M29.2640 43.1349
L28.6592 43.1349
" />
<path d="M28.6592 43.1349
L28.6592 41.8649
" />
<path d="M28.6592 41.8649
L29.2640 41.8649
" />
<path d="M29.6873 42.2883
L29.9897 43.1349
" />
<path d="M29.9897 43.1349
L30.2920 42.2883
" />
<path d="M31.2596 43.0745
L31.1387 43.1349
" />
<path d="M31.1387 43.1349
L30.8968 43.1349
" />
<path d="M30.8968 43.1349
L30.7758 43.0745
" />
<path d="M30.7758 43.0745
L30.7154 42.9535
" />
<path d="M30.7154 42.9535
L30.7154 42.4697
" />
<path d="M30.7154 42.4697
L30.7758 42.3487
" />
<path d="M30.7758 42.3487
L30.8968 42.2883
" />
<path d="M30.8968 42.2883
L31.1387 42.2883
" />
<path d="M31.1387 42.2883
L31.2596 42.3487
" />
<path d="M31.2596 42.3487
L31.3201 42.4697
" />
<path d="M31.3201 42.4697
L31.3201 42.5906
" />
<path d="M31.3201 42.5906
L30.7154 42.7116
" />
<path d="M31.8644 42.2883
L31.8644 43.1349
" />
<path d="M31.8644 42.4092
L31.9249 42.3487
" />
<path d="M31.9249 42.3487
L32.0459 42.2883
" />
<path d="M32.0459 42.2883
L32.2273 42.2883
" />
<path d="M32.2273 42.2883
L32.3482 42.3487
" />
<path d="M32.3482 42.3487
L32.4087 42.4697
" />
<path d="M32.4087 42.4697
L32.4087 43.1349
" />
<path d="M32.7111 43.2559
L33.6787 43.2559
" />
<path d="M33.9206 43.0745
L34.1020 43.1349
" />
<path d="M34.1020 43.1349
L34.4044 43.1349
" />
<path d="M34.4044 43.1349
L34.5253 43.0745
" />
<path d="M34.5253 43.0745
L34.5858 43.0140
" />
<path d="M34.5858 43.0140
L34.6463 42.8930
" />
<path d="M34.6463 42.8930
L34.6463 42.7721
" />
<path d="M34.6463 42.7721
L34.5858 42.6511
" />
<path d="M34.5858 42.6511
L34.5253 42.5906
" />
<path d="M34.5253 42.5906
L34.4044 42.5302
" />
<path d="M34.4044 42.5302
L34.1625 42.4697
" />
<path d="M34.1625 42.4697
L34.0415 42.4092
" />
<path d="M34.0415 42.4092
L33.9810 42.3487
" />
<path d="M33.9810 42.3487
L33.9206 42.2278
" />
<path d="M33.9206 42.2278
L33.9206 42.1068
" />
<path d="M33.9206 42.1068
L33.9810 41.9859
" />
<path d="M33.9810 41.9859
L34.0415 41.9254
" />
<path d="M34.0415 41.9254
L34.1625 41.8649
" />
<path d="M34.1625 41.8649
L34.4648 41.8649
" />
<path d="M34.4648 41.8649
L34.6463 41.9254
" />
<path d="M35.1905 43.1349
L35.1905 41.8649
" />
<path d="M35.7348 43.1349
L35.7348 42.4697
" />
<path d="M35.7348 42.4697
L35.6743 42.3487
" />
<path d="M35.6743 42.3487
L35.5534 42.2883
" />
<path d="M35.5534 42.2883
L35.3720 42.2883
" />
<path d="M35.3720 42.2883
L35.2510 42.3487
" />
<path d="M35.2510 42.3487
L35.1905 42.4092
" />
<path d="M36.3395 43.1349
L36.3395 42.2883
" />
<path d="M36.3395 41.8649
L36.2791 41.9254
" />
<path d="M36.2791 41.9254
L36.3395 41.9859
" />
<path d="M36.3395 41.9859
L36.4000 41.9254
" />
<path d="M36.4000 41.9254
L36.3395 41.8649
" />
<path d="M36.3395 41.8649
L36.3395 41.9859
" />
<path d="M37.4281 43.0745
L37.3072 43.1349
" />
<path d="M37.3072 43.1349
L37.0653 43.1349
" />
<path d="M37.0653 43.1349
L36.9443 43.0745
" />
<path d="M36.9443 43.0745
L36.8839 42.9535
" />
<path d="M36.8839 42.9535
L36.8839 42.4697
" />
<path d="M36.8839 42.4697
L36.9443 42.3487
" />
<path d="M36.9443 42.3487
L37.0653 42.2883
" />
<path d="M37.0653 42.2883
L37.3072 42.2883
" />
<path d="M37.3072 42.2883
L37.4281 42.3487
" />
<path d="M37.4281 42.3487
L37.4886 42.4697
" />
<path d="M37.4886 42.4697
L37.4886 42.5906
" />
<path d="M37.4886 42.5906
L36.8839 42.7116
" />
<path d="M38.2144 43.1349
L38.0934 43.0745
" />
<path d="M38.0934 43.0745
L38.0329 42.9535
" />
<path d="M38.0329 42.9535
L38.0329 41.8649
" />
<path d="M39.2424 43.1349
L39.2424 41.8649
" />
<path d="M39.2424 43.0745
L39.1215 43.1349
" />
<path d="M39.1215 43.1349
L38.8796 43.1349
" />
<path d="M38.8796 43.1349
L38.7586 43.0745
" />
<path d="M38.7586 43.0745
L38.6981 43.0140
" />
<path d="M38.6981 43.0140
L38.6377 42.8930
" />
<path d="M38.6377 42.8930
L38.6377 42.5302
" />
<path d="M38.6377 42.5302
L38.6981 42.4092
" />
<path d="M38.6981 42.4092
L38.7586 42.3487
" />
<path d="M38.7586 42.3487
L38.8796 42.2883
" />
<path d="M38.8796 42.2883
L39.1215 42.2883
" />
<path d="M39.1215 42.2883
L39.2424 42.3487
" />
<path d="M40.3309 43.0745
L40.2100 43.1349
" />
<path d="M40.2100 43.1349
L39.9681 43.1349
" />
<path d="M39.9681 43.1349
L39.8471 43.0745
" />
<path d="M39.8471 43.0745
L39.7867 42.9535
" />
<path d="M39.7867 42.9535
L39.7867 42.4697
" />
<path d="M39.7867 42.4697
L39.8471 42.3487
" />
<path d="M39.8471 42.3487
L39.9681 42.2883
" />
<path d="M39.9681 42.2883
L40.2100 42.2883
" />
<path d="M40.2100 42.2883
L40.3309 42.3487
" />
<path d="M40.3309 42.3487
L40.3914 42.4697
" />
<path d="M40.3914 42.4697
L40.3914 42.5906
" />
<path d="M40.3914 42.5906
L39.7867 42.7116
" />
<path d="M41.4800 43.1349
L41.4800 41.8649
" />
<path d="M41.4800 43.0745
L41.3591 43.1349
" />
<path d="M41.3591 43.1349
L41.1172 43.1349
" />
<path d="M41.1172 43.1349
L40.9962 43.0745
" />
<path d="M40.9962 43.0745
L40.9357 43.0140
" />
<path d="M40.9357 43.0140
L40.8753 42.8930
" />
<path d="M40.8753 42.8930
L40.8753 42.5302
" />
<path d="M40.8753 42.5302
L40.9357 42.4092
" />
<path d="M40.9357 42.4092
L40.9962 42.3487
" />
<path d="M40.9962 42.3487
L41.1172 42.2883
" />
<path d="M41.1172 42.2883
L41.3591 42.2883
" />
<path d="M41.3591 42.2883
L41.4800 42.3487
" />
</g></g>
<g style="fill:#840084; fill-opacity:0.0; 
stroke:#840084; stroke-width:0.1588; stroke-opacity:1; 
stroke-linecap:round; stroke-linejoin:round;">
<text x="8.8850" y="23.1164"
textLength="1.0501" font-size="1.6933" lengthAdjust="spacingAndGlyphs"
text-anchor="middle" opacity="0">~</text>
<g class="stroked-text"><desc>~</desc>
<path d="M8.5524 22.5851
L8.6129 22.5246
" />
<path d="M8.6129 22.5246
L8.7338 22.4642
" />
<path d="M8.7338 22.4642
L8.9757 22.5851
" />
<path d="M8.9757 22.5851
L9.0967 22.5246
" />
<path d="M9.0967 22.5246
L9.1572 22.4642
" />
</g></g> 
</svg>
