<?xml version="1.0" standalone="no"?>
 <!DOCTYPE svg PUBLIC "-//W3C//DTD SVG 1.1//EN" 
 "http://www.w3.org/Graphics/SVG/1.1/DTD/svg11.dtd"> 
<svg
  xmlns:svg="http://www.w3.org/2000/svg"
  xmlns="http://www.w3.org/2000/svg"
  xmlns:xlink="http://www.w3.org/1999/xlink"
  version="1.1"
  width="57.3532mm" height="30.4800mm" viewBox="0.0000 0.0000 57.3532 30.4800">
<title>SVG Image created as working.svg date 2023/07/31 05:54:48 </title>
  <desc>Image generated by Eeschema-SVG </desc>
<g style="fill:#000000; fill-opacity:1.0000;stroke:#000000; stroke-opacity:1.0000;
stroke-linecap:round; stroke-linejoin:round;"
 transform="translate(0 0) scale(1 1)">
</g>
<g style="fill:#840000; fill-opacity:0.0; 
stroke:#840000; stroke-width:0.0000; stroke-opacity:1; 
stroke-linecap:round; stroke-linejoin:round;">
</g>
<g style="fill:#FFFFC2; fill-opacity:0.0; 
stroke:#FFFFC2; stroke-width:0.0000; stroke-opacity:1; 
stroke-linecap:round; stroke-linejoin:round;">
</g>
<g style="fill:#FFFFC2; fill-opacity:1.0000; 
stroke:#FFFFC2; stroke-width:0.0000; stroke-opacity:1; 
stroke-linecap:round; stroke-linejoin:round;">
<rect x="21.058900" y="7.620100" width="15.240000" height="15.240000" rx="0.000000" />
</g>
<g style="fill:#840084; fill-opacity:1.0000; 
stroke:#840084; stroke-width:0.0000; stroke-opacity:1; 
stroke-linecap:round; stroke-linejoin:round;">
</g>
<g style="fill:#840000; fill-opacity:1.0000; 
stroke:#840000; stroke-width:0.0000; stroke-opacity:1; 
stroke-linecap:round; stroke-linejoin:round;">
</g>
<g style="fill:#840000; fill-opacity:0.0; 
stroke:#840000; stroke-width:0.2540; stroke-opacity:1; 
stroke-linecap:round; stroke-linejoin:round;">
<rect x="21.058900" y="7.620100" width="15.240000" height="15.240000" rx="0.000000" />
</g>
<g style="fill:#840000; fill-opacity:0.0; 
stroke:#840000; stroke-width:0.1524; stroke-opacity:1; 
stroke-linecap:round; stroke-linejoin:round;">
<path d="M21.0589 20.3201
L15.9789 20.3201
" />
<path d="M21.0589 20.9551
L22.3289 20.3201
L21.0589 19.6851
" />
</g>
<g style="fill:#006464; fill-opacity:0.0; 
stroke:#006464; stroke-width:0.1524; stroke-opacity:1; 
stroke-linecap:round; stroke-linejoin:round;">
<text x="22.0749" y="20.9551"
textLength="1.3970" font-size="1.6933" lengthAdjust="spacingAndGlyphs"
text-anchor="start" opacity="0">C</text>
<g class="stroked-text"><desc>C</desc>
<path d="M23.1029 20.7867
L23.0425 20.8472
" />
<path d="M23.0425 20.8472
L22.8610 20.9076
" />
<path d="M22.8610 20.9076
L22.7401 20.9076
" />
<path d="M22.7401 20.9076
L22.5587 20.8472
" />
<path d="M22.5587 20.8472
L22.4377 20.7262
" />
<path d="M22.4377 20.7262
L22.3772 20.6052
" />
<path d="M22.3772 20.6052
L22.3168 20.3633
" />
<path d="M22.3168 20.3633
L22.3168 20.1819
" />
<path d="M22.3168 20.1819
L22.3772 19.9400
" />
<path d="M22.3772 19.9400
L22.4377 19.8191
" />
<path d="M22.4377 19.8191
L22.5587 19.6981
" />
<path d="M22.5587 19.6981
L22.7401 19.6376
" />
<path d="M22.7401 19.6376
L22.8610 19.6376
" />
<path d="M22.8610 19.6376
L23.0425 19.6981
" />
<path d="M23.0425 19.6981
L23.1029 19.7586
" />
</g></g>
<g style="fill:#A90000; fill-opacity:0.0; 
stroke:#A90000; stroke-width:0.1524; stroke-opacity:1; 
stroke-linecap:round; stroke-linejoin:round;">
<text x="18.5189" y="20.0661"
textLength="1.3365" font-size="1.6933" lengthAdjust="spacingAndGlyphs"
text-anchor="middle" opacity="0">1</text>
<g class="stroked-text"><desc>1</desc>
<path d="M18.8818 19.9106
L18.1561 19.9106
" />
<path d="M18.5189 19.9106
L18.5189 18.6406
" />
<path d="M18.5189 18.6406
L18.3980 18.8221
" />
<path d="M18.3980 18.8221
L18.2770 18.9430
" />
<path d="M18.2770 18.9430
L18.1561 19.0035
" />
</g></g>
<g style="fill:#840000; fill-opacity:0.0; 
stroke:#840000; stroke-width:0.1524; stroke-opacity:1; 
stroke-linecap:round; stroke-linejoin:round;">
<path d="M21.0589 10.1601
L15.9789 10.1601
" />
</g>
<g style="fill:#006464; fill-opacity:0.0; 
stroke:#006464; stroke-width:0.1524; stroke-opacity:1; 
stroke-linecap:round; stroke-linejoin:round;">
<text x="22.0749" y="10.7951"
textLength="1.3970" font-size="1.6933" lengthAdjust="spacingAndGlyphs"
text-anchor="start" opacity="0">D</text>
<g class="stroked-text"><desc>D</desc>
<path d="M22.3772 10.7476
L22.3772 9.4776
" />
<path d="M22.3772 9.4776
L22.6796 9.4776
" />
<path d="M22.6796 9.4776
L22.8610 9.5381
" />
<path d="M22.8610 9.5381
L22.9820 9.6591
" />
<path d="M22.9820 9.6591
L23.0425 9.7800
" />
<path d="M23.0425 9.7800
L23.1029 10.0219
" />
<path d="M23.1029 10.0219
L23.1029 10.2033
" />
<path d="M23.1029 10.2033
L23.0425 10.4452
" />
<path d="M23.0425 10.4452
L22.9820 10.5662
" />
<path d="M22.9820 10.5662
L22.8610 10.6872
" />
<path d="M22.8610 10.6872
L22.6796 10.7476
" />
<path d="M22.6796 10.7476
L22.3772 10.7476
" />
</g></g>
<g style="fill:#A90000; fill-opacity:0.0; 
stroke:#A90000; stroke-width:0.1524; stroke-opacity:1; 
stroke-linecap:round; stroke-linejoin:round;">
<text x="18.5189" y="9.9061"
textLength="1.3365" font-size="1.6933" lengthAdjust="spacingAndGlyphs"
text-anchor="middle" opacity="0">2</text>
<g class="stroked-text"><desc>2</desc>
<path d="M18.1561 8.6016
L18.2165 8.5411
" />
<path d="M18.2165 8.5411
L18.3375 8.4806
" />
<path d="M18.3375 8.4806
L18.6399 8.4806
" />
<path d="M18.6399 8.4806
L18.7608 8.5411
" />
<path d="M18.7608 8.5411
L18.8213 8.6016
" />
<path d="M18.8213 8.6016
L18.8818 8.7225
" />
<path d="M18.8818 8.7225
L18.8818 8.8435
" />
<path d="M18.8818 8.8435
L18.8213 9.0249
" />
<path d="M18.8213 9.0249
L18.0956 9.7506
" />
<path d="M18.0956 9.7506
L18.8818 9.7506
" />
</g></g>
<g style="fill:#840000; fill-opacity:0.0; 
stroke:#840000; stroke-width:0.1524; stroke-opacity:1; 
stroke-linecap:round; stroke-linejoin:round;">
<path d="M36.2989 20.3201
L41.3789 20.3201
" />
</g>
<g style="fill:#006464; fill-opacity:0.0; 
stroke:#006464; stroke-width:0.1524; stroke-opacity:1; 
stroke-linecap:round; stroke-linejoin:round;">
<text x="35.2829" y="20.9551"
textLength="1.4575" font-size="1.6933" lengthAdjust="spacingAndGlyphs"
text-anchor="end" opacity="0">~{Q}</text>
<g class="stroked-text"><desc>~{Q}</desc>
<path d="M35.1014 21.0286
L34.9804 20.9681
" />
<path d="M34.9804 20.9681
L34.8595 20.8472
" />
<path d="M34.8595 20.8472
L34.6781 20.6657
" />
<path d="M34.6781 20.6657
L34.5571 20.6052
" />
<path d="M34.5571 20.6052
L34.4362 20.6052
" />
<path d="M34.4966 20.9076
L34.3757 20.8472
" />
<path d="M34.3757 20.8472
L34.2547 20.7262
" />
<path d="M34.2547 20.7262
L34.1943 20.4843
" />
<path d="M34.1943 20.4843
L34.1943 20.0610
" />
<path d="M34.1943 20.0610
L34.2547 19.8191
" />
<path d="M34.2547 19.8191
L34.3757 19.6981
" />
<path d="M34.3757 19.6981
L34.4966 19.6376
" />
<path d="M34.4966 19.6376
L34.7385 19.6376
" />
<path d="M34.7385 19.6376
L34.8595 19.6981
" />
<path d="M34.8595 19.6981
L34.9804 19.8191
" />
<path d="M34.9804 19.8191
L35.0409 20.0610
" />
<path d="M35.0409 20.0610
L35.0409 20.4843
" />
<path d="M35.0409 20.4843
L34.9804 20.7262
" />
<path d="M34.9804 20.7262
L34.8595 20.8472
" />
<path d="M34.8595 20.8472
L34.7385 20.9076
" />
<path d="M34.7385 20.9076
L34.4966 20.9076
" />
<path d="M34.0794 19.0692
L35.1559 19.0692
" />
</g></g>
<g style="fill:#A90000; fill-opacity:0.0; 
stroke:#A90000; stroke-width:0.1524; stroke-opacity:1; 
stroke-linecap:round; stroke-linejoin:round;">
<text x="38.8389" y="20.0661"
textLength="1.3365" font-size="1.6933" lengthAdjust="spacingAndGlyphs"
text-anchor="middle" opacity="0">3</text>
<g class="stroked-text"><desc>3</desc>
<path d="M38.4156 18.6406
L39.2018 18.6406
" />
<path d="M39.2018 18.6406
L38.7784 19.1244
" />
<path d="M38.7784 19.1244
L38.9599 19.1244
" />
<path d="M38.9599 19.1244
L39.0808 19.1849
" />
<path d="M39.0808 19.1849
L39.1413 19.2454
" />
<path d="M39.1413 19.2454
L39.2018 19.3663
" />
<path d="M39.2018 19.3663
L39.2018 19.6687
" />
<path d="M39.2018 19.6687
L39.1413 19.7897
" />
<path d="M39.1413 19.7897
L39.0808 19.8502
" />
<path d="M39.0808 19.8502
L38.9599 19.9106
" />
<path d="M38.9599 19.9106
L38.5970 19.9106
" />
<path d="M38.5970 19.9106
L38.4761 19.8502
" />
<path d="M38.4761 19.8502
L38.4156 19.7897
" />
</g></g>
<g style="fill:#840000; fill-opacity:0.0; 
stroke:#840000; stroke-width:0.1524; stroke-opacity:1; 
stroke-linecap:round; stroke-linejoin:round;">
<path d="M31.2189 22.8601
L31.2189 27.9401
" />
</g>
<g style="fill:#006464; fill-opacity:0.0; 
stroke:#006464; stroke-width:0.1524; stroke-opacity:1; 
stroke-linecap:round; stroke-linejoin:round;">
<g transform="rotate(-90.000000 31.2189 21.8441)">
<text x="31.2189" y="22.4791"
textLength="3.9975" font-size="1.6933" lengthAdjust="spacingAndGlyphs"
text-anchor="start" opacity="0">GND</text>
</g>
<g class="stroked-text"><desc>GND</desc>
<path d="M30.5969 20.8764
L30.5364 20.9974
" />
<path d="M30.5364 20.9974
L30.5364 21.1788
" />
<path d="M30.5364 21.1788
L30.5969 21.3602
" />
<path d="M30.5969 21.3602
L30.7179 21.4812
" />
<path d="M30.7179 21.4812
L30.8388 21.5417
" />
<path d="M30.8388 21.5417
L31.0807 21.6021
" />
<path d="M31.0807 21.6021
L31.2621 21.6021
" />
<path d="M31.2621 21.6021
L31.5040 21.5417
" />
<path d="M31.5040 21.5417
L31.6250 21.4812
" />
<path d="M31.6250 21.4812
L31.7460 21.3602
" />
<path d="M31.7460 21.3602
L31.8064 21.1788
" />
<path d="M31.8064 21.1788
L31.8064 21.0579
" />
<path d="M31.8064 21.0579
L31.7460 20.8764
" />
<path d="M31.7460 20.8764
L31.6855 20.8160
" />
<path d="M31.6855 20.8160
L31.2621 20.8160
" />
<path d="M31.2621 20.8160
L31.2621 21.0579
" />
<path d="M31.8064 20.2717
L30.5364 20.2717
" />
<path d="M30.5364 20.2717
L31.8064 19.5460
" />
<path d="M31.8064 19.5460
L30.5364 19.5460
" />
<path d="M31.8064 18.9412
L30.5364 18.9412
" />
<path d="M30.5364 18.9412
L30.5364 18.6388
" />
<path d="M30.5364 18.6388
L30.5969 18.4574
" />
<path d="M30.5969 18.4574
L30.7179 18.3364
" />
<path d="M30.7179 18.3364
L30.8388 18.2759
" />
<path d="M30.8388 18.2759
L31.0807 18.2155
" />
<path d="M31.0807 18.2155
L31.2621 18.2155
" />
<path d="M31.2621 18.2155
L31.5040 18.2759
" />
<path d="M31.5040 18.2759
L31.6250 18.3364
" />
<path d="M31.6250 18.3364
L31.7460 18.4574
" />
<path d="M31.7460 18.4574
L31.8064 18.6388
" />
<path d="M31.8064 18.6388
L31.8064 18.9412
" />
</g></g>
<g style="fill:#A90000; fill-opacity:0.0; 
stroke:#A90000; stroke-width:0.1524; stroke-opacity:1; 
stroke-linecap:round; stroke-linejoin:round;">
<g transform="rotate(-90.000000 30.9649 25.4001)">
<text x="30.9649" y="25.4001"
textLength="1.3365" font-size="1.6933" lengthAdjust="spacingAndGlyphs"
text-anchor="middle" opacity="0">4</text>
</g>
<g class="stroked-text"><desc>4</desc>
<path d="M29.9628 25.1581
L30.8094 25.1581
" />
<path d="M29.4790 25.4605
L30.3861 25.7628
" />
<path d="M30.3861 25.7628
L30.3861 24.9767
" />
</g></g>
<g style="fill:#840000; fill-opacity:0.0; 
stroke:#840000; stroke-width:0.1524; stroke-opacity:1; 
stroke-linecap:round; stroke-linejoin:round;">
<path d="M36.2989 10.1601
L41.3789 10.1601
" />
</g>
<g style="fill:#006464; fill-opacity:0.0; 
stroke:#006464; stroke-width:0.1524; stroke-opacity:1; 
stroke-linecap:round; stroke-linejoin:round;">
<text x="35.2829" y="10.7951"
textLength="1.4575" font-size="1.6933" lengthAdjust="spacingAndGlyphs"
text-anchor="end" opacity="0">Q</text>
<g class="stroked-text"><desc>Q</desc>
<path d="M35.1014 10.8686
L34.9804 10.8081
" />
<path d="M34.9804 10.8081
L34.8595 10.6872
" />
<path d="M34.8595 10.6872
L34.6781 10.5057
" />
<path d="M34.6781 10.5057
L34.5571 10.4452
" />
<path d="M34.5571 10.4452
L34.4362 10.4452
" />
<path d="M34.4966 10.7476
L34.3757 10.6872
" />
<path d="M34.3757 10.6872
L34.2547 10.5662
" />
<path d="M34.2547 10.5662
L34.1943 10.3243
" />
<path d="M34.1943 10.3243
L34.1943 9.9010
" />
<path d="M34.1943 9.9010
L34.2547 9.6591
" />
<path d="M34.2547 9.6591
L34.3757 9.5381
" />
<path d="M34.3757 9.5381
L34.4966 9.4776
" />
<path d="M34.4966 9.4776
L34.7385 9.4776
" />
<path d="M34.7385 9.4776
L34.8595 9.5381
" />
<path d="M34.8595 9.5381
L34.9804 9.6591
" />
<path d="M34.9804 9.6591
L35.0409 9.9010
" />
<path d="M35.0409 9.9010
L35.0409 10.3243
" />
<path d="M35.0409 10.3243
L34.9804 10.5662
" />
<path d="M34.9804 10.5662
L34.8595 10.6872
" />
<path d="M34.8595 10.6872
L34.7385 10.7476
" />
<path d="M34.7385 10.7476
L34.4966 10.7476
" />
</g></g>
<g style="fill:#A90000; fill-opacity:0.0; 
stroke:#A90000; stroke-width:0.1524; stroke-opacity:1; 
stroke-linecap:round; stroke-linejoin:round;">
<text x="38.8389" y="9.9061"
textLength="1.3365" font-size="1.6933" lengthAdjust="spacingAndGlyphs"
text-anchor="middle" opacity="0">5</text>
<g class="stroked-text"><desc>5</desc>
<path d="M39.1413 8.4806
L38.5365 8.4806
" />
<path d="M38.5365 8.4806
L38.4761 9.0854
" />
<path d="M38.4761 9.0854
L38.5365 9.0249
" />
<path d="M38.5365 9.0249
L38.6575 8.9644
" />
<path d="M38.6575 8.9644
L38.9599 8.9644
" />
<path d="M38.9599 8.9644
L39.0808 9.0249
" />
<path d="M39.0808 9.0249
L39.1413 9.0854
" />
<path d="M39.1413 9.0854
L39.2018 9.2063
" />
<path d="M39.2018 9.2063
L39.2018 9.5087
" />
<path d="M39.2018 9.5087
L39.1413 9.6297
" />
<path d="M39.1413 9.6297
L39.0808 9.6902
" />
<path d="M39.0808 9.6902
L38.9599 9.7506
" />
<path d="M38.9599 9.7506
L38.6575 9.7506
" />
<path d="M38.6575 9.7506
L38.5365 9.6902
" />
<path d="M38.5365 9.6902
L38.4761 9.6297
" />
</g></g>
<g style="fill:#840000; fill-opacity:0.0; 
stroke:#840000; stroke-width:0.1524; stroke-opacity:1; 
stroke-linecap:round; stroke-linejoin:round;">
<path d="M26.1389 22.8601
L26.1389 27.9401
" />
</g>
<g style="fill:#006464; fill-opacity:0.0; 
stroke:#006464; stroke-width:0.1524; stroke-opacity:1; 
stroke-linecap:round; stroke-linejoin:round;">
<g transform="rotate(-90.000000 26.1389 21.8441)">
<text x="26.1389" y="22.4791"
textLength="3.6951" font-size="1.6933" lengthAdjust="spacingAndGlyphs"
text-anchor="start" opacity="0">~{CLR}</text>
</g>
<g class="stroked-text"><desc>~{CLR}</desc>
<path d="M26.6055 20.8160
L26.6660 20.8764
" />
<path d="M26.6660 20.8764
L26.7264 21.0579
" />
<path d="M26.7264 21.0579
L26.7264 21.1788
" />
<path d="M26.7264 21.1788
L26.6660 21.3602
" />
<path d="M26.6660 21.3602
L26.5450 21.4812
" />
<path d="M26.5450 21.4812
L26.4240 21.5417
" />
<path d="M26.4240 21.5417
L26.1821 21.6021
" />
<path d="M26.1821 21.6021
L26.0007 21.6021
" />
<path d="M26.0007 21.6021
L25.7588 21.5417
" />
<path d="M25.7588 21.5417
L25.6379 21.4812
" />
<path d="M25.6379 21.4812
L25.5169 21.3602
" />
<path d="M25.5169 21.3602
L25.4564 21.1788
" />
<path d="M25.4564 21.1788
L25.4564 21.0579
" />
<path d="M25.4564 21.0579
L25.5169 20.8764
" />
<path d="M25.5169 20.8764
L25.5774 20.8160
" />
<path d="M26.7264 19.6669
L26.7264 20.2717
" />
<path d="M26.7264 20.2717
L25.4564 20.2717
" />
<path d="M26.7264 18.5179
L26.1217 18.9412
" />
<path d="M26.7264 19.2436
L25.4564 19.2436
" />
<path d="M25.4564 19.2436
L25.4564 18.7598
" />
<path d="M25.4564 18.7598
L25.5169 18.6388
" />
<path d="M25.5169 18.6388
L25.5774 18.5783
" />
<path d="M25.5774 18.5783
L25.6983 18.5179
" />
<path d="M25.6983 18.5179
L25.8798 18.5179
" />
<path d="M25.8798 18.5179
L26.0007 18.5783
" />
<path d="M26.0007 18.5783
L26.0612 18.6388
" />
<path d="M26.0612 18.6388
L26.1217 18.7598
" />
<path d="M26.1217 18.7598
L26.1217 19.2436
" />
<path d="M24.8880 21.7171
L24.8880 18.4030
" />
</g></g>
<g style="fill:#A90000; fill-opacity:0.0; 
stroke:#A90000; stroke-width:0.1524; stroke-opacity:1; 
stroke-linecap:round; stroke-linejoin:round;">
<g transform="rotate(-90.000000 25.8849 25.4001)">
<text x="25.8849" y="25.4001"
textLength="1.3365" font-size="1.6933" lengthAdjust="spacingAndGlyphs"
text-anchor="middle" opacity="0">6</text>
</g>
<g class="stroked-text"><desc>6</desc>
<path d="M24.4594 25.1581
L24.4594 25.4000
" />
<path d="M24.4594 25.4000
L24.5199 25.5209
" />
<path d="M24.5199 25.5209
L24.5804 25.5814
" />
<path d="M24.5804 25.5814
L24.7618 25.7024
" />
<path d="M24.7618 25.7024
L25.0037 25.7628
" />
<path d="M25.0037 25.7628
L25.4875 25.7628
" />
<path d="M25.4875 25.7628
L25.6085 25.7024
" />
<path d="M25.6085 25.7024
L25.6690 25.6419
" />
<path d="M25.6690 25.6419
L25.7294 25.5209
" />
<path d="M25.7294 25.5209
L25.7294 25.2790
" />
<path d="M25.7294 25.2790
L25.6690 25.1581
" />
<path d="M25.6690 25.1581
L25.6085 25.0976
" />
<path d="M25.6085 25.0976
L25.4875 25.0371
" />
<path d="M25.4875 25.0371
L25.1851 25.0371
" />
<path d="M25.1851 25.0371
L25.0642 25.0976
" />
<path d="M25.0642 25.0976
L25.0037 25.1581
" />
<path d="M25.0037 25.1581
L24.9432 25.2790
" />
<path d="M24.9432 25.2790
L24.9432 25.5209
" />
<path d="M24.9432 25.5209
L25.0037 25.6419
" />
<path d="M25.0037 25.6419
L25.0642 25.7024
" />
<path d="M25.0642 25.7024
L25.1851 25.7628
" />
</g></g>
<g style="fill:#840000; fill-opacity:0.0; 
stroke:#840000; stroke-width:0.1524; stroke-opacity:1; 
stroke-linecap:round; stroke-linejoin:round;">
<path d="M26.1389 7.6201
L26.1389 2.5401
" />
</g>
<g style="fill:#006464; fill-opacity:0.0; 
stroke:#006464; stroke-width:0.1524; stroke-opacity:1; 
stroke-linecap:round; stroke-linejoin:round;">
<g transform="rotate(-90.000000 26.1389 8.6361)">
<text x="26.1389" y="9.2711"
textLength="3.8160" font-size="1.6933" lengthAdjust="spacingAndGlyphs"
text-anchor="end" opacity="0">~{PRE}</text>
</g>
<g class="stroked-text"><desc>~{PRE}</desc>
<path d="M26.7264 12.0227
L25.4564 12.0227
" />
<path d="M25.4564 12.0227
L25.4564 11.5389
" />
<path d="M25.4564 11.5389
L25.5169 11.4179
" />
<path d="M25.5169 11.4179
L25.5774 11.3574
" />
<path d="M25.5774 11.3574
L25.6983 11.2970
" />
<path d="M25.6983 11.2970
L25.8798 11.2970
" />
<path d="M25.8798 11.2970
L26.0007 11.3574
" />
<path d="M26.0007 11.3574
L26.0612 11.4179
" />
<path d="M26.0612 11.4179
L26.1217 11.5389
" />
<path d="M26.1217 11.5389
L26.1217 12.0227
" />
<path d="M26.7264 10.0270
L26.1217 10.4503
" />
<path d="M26.7264 10.7527
L25.4564 10.7527
" />
<path d="M25.4564 10.7527
L25.4564 10.2689
" />
<path d="M25.4564 10.2689
L25.5169 10.1479
" />
<path d="M25.5169 10.1479
L25.5774 10.0874
" />
<path d="M25.5774 10.0874
L25.6983 10.0270
" />
<path d="M25.6983 10.0270
L25.8798 10.0270
" />
<path d="M25.8798 10.0270
L26.0007 10.0874
" />
<path d="M26.0007 10.0874
L26.0612 10.1479
" />
<path d="M26.0612 10.1479
L26.1217 10.2689
" />
<path d="M26.1217 10.2689
L26.1217 10.7527
" />
<path d="M26.0612 9.4827
L26.0612 9.0593
" />
<path d="M26.7264 8.8779
L26.7264 9.4827
" />
<path d="M26.7264 9.4827
L25.4564 9.4827
" />
<path d="M25.4564 9.4827
L25.4564 8.8779
" />
<path d="M24.8880 12.1981
L24.8880 8.7631
" />
</g></g>
<g style="fill:#A90000; fill-opacity:0.0; 
stroke:#A90000; stroke-width:0.1524; stroke-opacity:1; 
stroke-linecap:round; stroke-linejoin:round;">
<g transform="rotate(-90.000000 25.8849 5.0801)">
<text x="25.8849" y="5.0801"
textLength="1.3365" font-size="1.6933" lengthAdjust="spacingAndGlyphs"
text-anchor="middle" opacity="0">7</text>
</g>
<g class="stroked-text"><desc>7</desc>
<path d="M24.4594 5.5033
L24.4594 4.6567
" />
<path d="M24.4594 4.6567
L25.7294 5.2009
" />
</g></g>
<g style="fill:#840000; fill-opacity:0.0; 
stroke:#840000; stroke-width:0.1524; stroke-opacity:1; 
stroke-linecap:round; stroke-linejoin:round;">
<path d="M31.2189 7.6201
L31.2189 2.5401
" />
</g>
<g style="fill:#006464; fill-opacity:0.0; 
stroke:#006464; stroke-width:0.1524; stroke-opacity:1; 
stroke-linecap:round; stroke-linejoin:round;">
<g transform="rotate(-90.000000 31.2189 8.6361)">
<text x="31.2189" y="9.2711"
textLength="3.7556" font-size="1.6933" lengthAdjust="spacingAndGlyphs"
text-anchor="end" opacity="0">VCC</text>
</g>
<g class="stroked-text"><desc>VCC</desc>
<path d="M30.5364 12.1437
L31.8064 11.7204
" />
<path d="M31.8064 11.7204
L30.5364 11.2970
" />
<path d="M31.6855 10.1480
L31.7460 10.2084
" />
<path d="M31.7460 10.2084
L31.8064 10.3899
" />
<path d="M31.8064 10.3899
L31.8064 10.5108
" />
<path d="M31.8064 10.5108
L31.7460 10.6922
" />
<path d="M31.7460 10.6922
L31.6250 10.8132
" />
<path d="M31.6250 10.8132
L31.5040 10.8737
" />
<path d="M31.5040 10.8737
L31.2621 10.9341
" />
<path d="M31.2621 10.9341
L31.0807 10.9341
" />
<path d="M31.0807 10.9341
L30.8388 10.8737
" />
<path d="M30.8388 10.8737
L30.7179 10.8132
" />
<path d="M30.7179 10.8132
L30.5969 10.6922
" />
<path d="M30.5969 10.6922
L30.5364 10.5108
" />
<path d="M30.5364 10.5108
L30.5364 10.3899
" />
<path d="M30.5364 10.3899
L30.5969 10.2084
" />
<path d="M30.5969 10.2084
L30.6574 10.1480
" />
<path d="M31.6855 8.8780
L31.7460 8.9384
" />
<path d="M31.7460 8.9384
L31.8064 9.1199
" />
<path d="M31.8064 9.1199
L31.8064 9.2408
" />
<path d="M31.8064 9.2408
L31.7460 9.4222
" />
<path d="M31.7460 9.4222
L31.6250 9.5432
" />
<path d="M31.6250 9.5432
L31.5040 9.6037
" />
<path d="M31.5040 9.6037
L31.2621 9.6641
" />
<path d="M31.2621 9.6641
L31.0807 9.6641
" />
<path d="M31.0807 9.6641
L30.8388 9.6037
" />
<path d="M30.8388 9.6037
L30.7179 9.5432
" />
<path d="M30.7179 9.5432
L30.5969 9.4222
" />
<path d="M30.5969 9.4222
L30.5364 9.2408
" />
<path d="M30.5364 9.2408
L30.5364 9.1199
" />
<path d="M30.5364 9.1199
L30.5969 8.9384
" />
<path d="M30.5969 8.9384
L30.6574 8.8780
" />
</g></g>
<g style="fill:#A90000; fill-opacity:0.0; 
stroke:#A90000; stroke-width:0.1524; stroke-opacity:1; 
stroke-linecap:round; stroke-linejoin:round;">
<g transform="rotate(-90.000000 30.9649 5.0801)">
<text x="30.9649" y="5.0801"
textLength="1.3365" font-size="1.6933" lengthAdjust="spacingAndGlyphs"
text-anchor="middle" opacity="0">8</text>
</g>
<g class="stroked-text"><desc>8</desc>
<path d="M30.0837 5.2009
L30.0232 5.3219
" />
<path d="M30.0232 5.3219
L29.9628 5.3824
" />
<path d="M29.9628 5.3824
L29.8418 5.4428
" />
<path d="M29.8418 5.4428
L29.7813 5.4428
" />
<path d="M29.7813 5.4428
L29.6604 5.3824
" />
<path d="M29.6604 5.3824
L29.5999 5.3219
" />
<path d="M29.5999 5.3219
L29.5394 5.2009
" />
<path d="M29.5394 5.2009
L29.5394 4.9590
" />
<path d="M29.5394 4.9590
L29.5999 4.8381
" />
<path d="M29.5999 4.8381
L29.6604 4.7776
" />
<path d="M29.6604 4.7776
L29.7813 4.7171
" />
<path d="M29.7813 4.7171
L29.8418 4.7171
" />
<path d="M29.8418 4.7171
L29.9628 4.7776
" />
<path d="M29.9628 4.7776
L30.0232 4.8381
" />
<path d="M30.0232 4.8381
L30.0837 4.9590
" />
<path d="M30.0837 4.9590
L30.0837 5.2009
" />
<path d="M30.0837 5.2009
L30.1442 5.3219
" />
<path d="M30.1442 5.3219
L30.2047 5.3824
" />
<path d="M30.2047 5.3824
L30.3256 5.4428
" />
<path d="M30.3256 5.4428
L30.5675 5.4428
" />
<path d="M30.5675 5.4428
L30.6885 5.3824
" />
<path d="M30.6885 5.3824
L30.7490 5.3219
" />
<path d="M30.7490 5.3219
L30.8094 5.2009
" />
<path d="M30.8094 5.2009
L30.8094 4.9590
" />
<path d="M30.8094 4.9590
L30.7490 4.8381
" />
<path d="M30.7490 4.8381
L30.6885 4.7776
" />
<path d="M30.6885 4.7776
L30.5675 4.7171
" />
<path d="M30.5675 4.7171
L30.3256 4.7171
" />
<path d="M30.3256 4.7171
L30.2047 4.7776
" />
<path d="M30.2047 4.7776
L30.1442 4.8381
" />
<path d="M30.1442 4.8381
L30.0837 4.9590
" />
</g></g>
<g style="fill:#840084; fill-opacity:0.0; 
stroke:#840084; stroke-width:0.1524; stroke-opacity:1; 
stroke-linecap:round; stroke-linejoin:round;">
</g>
<g style="fill:#006464; fill-opacity:0.0; 
stroke:#006464; stroke-width:0.1524; stroke-opacity:1; 
stroke-linecap:round; stroke-linejoin:round;">
</g>
<g style="fill:#006464; fill-opacity:0.0; 
stroke:#006464; stroke-width:0.1588; stroke-opacity:1; 
stroke-linecap:round; stroke-linejoin:round;">
<text x="23.5989" y="5.7151"
textLength="2.5621" font-size="1.6933" lengthAdjust="spacingAndGlyphs"
text-anchor="middle" opacity="0">U?</text>
<g class="stroked-text"><desc>U?</desc>
<path d="M22.6917 4.3976
L22.6917 5.4257
" />
<path d="M22.6917 5.4257
L22.7522 5.5467
" />
<path d="M22.7522 5.5467
L22.8127 5.6072
" />
<path d="M22.8127 5.6072
L22.9336 5.6676
" />
<path d="M22.9336 5.6676
L23.1755 5.6676
" />
<path d="M23.1755 5.6676
L23.2965 5.6072
" />
<path d="M23.2965 5.6072
L23.3570 5.5467
" />
<path d="M23.3570 5.5467
L23.4174 5.4257
" />
<path d="M23.4174 5.4257
L23.4174 4.3976
" />
<path d="M24.2037 5.5467
L24.2641 5.6072
" />
<path d="M24.2641 5.6072
L24.2037 5.6676
" />
<path d="M24.2037 5.6676
L24.1432 5.6072
" />
<path d="M24.1432 5.6072
L24.2037 5.5467
" />
<path d="M24.2037 5.5467
L24.2037 5.6676
" />
<path d="M23.9618 4.4581
L24.0827 4.3976
" />
<path d="M24.0827 4.3976
L24.3851 4.3976
" />
<path d="M24.3851 4.3976
L24.5060 4.4581
" />
<path d="M24.5060 4.4581
L24.5665 4.5791
" />
<path d="M24.5665 4.5791
L24.5665 4.7000
" />
<path d="M24.5665 4.7000
L24.5060 4.8210
" />
<path d="M24.5060 4.8210
L24.4456 4.8814
" />
<path d="M24.4456 4.8814
L24.3246 4.9419
" />
<path d="M24.3246 4.9419
L24.2641 5.0024
" />
<path d="M24.2641 5.0024
L24.2037 5.1233
" />
<path d="M24.2037 5.1233
L24.2037 5.1838
" />
</g><text x="38.8389" y="26.0351"
textLength="11.1496" font-size="1.6933" lengthAdjust="spacingAndGlyphs"
text-anchor="middle" opacity="0">74AUC1G74</text>
<g class="stroked-text"><desc>74AUC1G74</desc>
<path d="M33.5170 24.7176
L34.3636 24.7176
" />
<path d="M34.3636 24.7176
L33.8194 25.9876
" />
<path d="M35.3917 25.1410
L35.3917 25.9876
" />
<path d="M35.0893 24.6572
L34.7870 25.5643
" />
<path d="M34.7870 25.5643
L35.5731 25.5643
" />
<path d="M35.9965 25.6248
L36.6012 25.6248
" />
<path d="M35.8755 25.9876
L36.2988 24.7176
" />
<path d="M36.2988 24.7176
L36.7222 25.9876
" />
<path d="M37.1455 24.7176
L37.1455 25.7457
" />
<path d="M37.1455 25.7457
L37.2060 25.8667
" />
<path d="M37.2060 25.8667
L37.2665 25.9272
" />
<path d="M37.2665 25.9272
L37.3874 25.9876
" />
<path d="M37.3874 25.9876
L37.6293 25.9876
" />
<path d="M37.6293 25.9876
L37.7503 25.9272
" />
<path d="M37.7503 25.9272
L37.8108 25.8667
" />
<path d="M37.8108 25.8667
L37.8712 25.7457
" />
<path d="M37.8712 25.7457
L37.8712 24.7176
" />
<path d="M39.2017 25.8667
L39.1413 25.9272
" />
<path d="M39.1413 25.9272
L38.9598 25.9876
" />
<path d="M38.9598 25.9876
L38.8389 25.9876
" />
<path d="M38.8389 25.9876
L38.6575 25.9272
" />
<path d="M38.6575 25.9272
L38.5365 25.8062
" />
<path d="M38.5365 25.8062
L38.4760 25.6852
" />
<path d="M38.4760 25.6852
L38.4156 25.4433
" />
<path d="M38.4156 25.4433
L38.4156 25.2619
" />
<path d="M38.4156 25.2619
L38.4760 25.0200
" />
<path d="M38.4760 25.0200
L38.5365 24.8991
" />
<path d="M38.5365 24.8991
L38.6575 24.7781
" />
<path d="M38.6575 24.7781
L38.8389 24.7176
" />
<path d="M38.8389 24.7176
L38.9598 24.7176
" />
<path d="M38.9598 24.7176
L39.1413 24.7781
" />
<path d="M39.1413 24.7781
L39.2017 24.8386
" />
<path d="M40.4113 25.9876
L39.6856 25.9876
" />
<path d="M40.0484 25.9876
L40.0484 24.7176
" />
<path d="M40.0484 24.7176
L39.9275 24.8991
" />
<path d="M39.9275 24.8991
L39.8065 25.0200
" />
<path d="M39.8065 25.0200
L39.6856 25.0805
" />
<path d="M41.6208 24.7781
L41.4998 24.7176
" />
<path d="M41.4998 24.7176
L41.3184 24.7176
" />
<path d="M41.3184 24.7176
L41.1370 24.7781
" />
<path d="M41.1370 24.7781
L41.0160 24.8991
" />
<path d="M41.0160 24.8991
L40.9555 25.0200
" />
<path d="M40.9555 25.0200
L40.8951 25.2619
" />
<path d="M40.8951 25.2619
L40.8951 25.4433
" />
<path d="M40.8951 25.4433
L40.9555 25.6852
" />
<path d="M40.9555 25.6852
L41.0160 25.8062
" />
<path d="M41.0160 25.8062
L41.1370 25.9272
" />
<path d="M41.1370 25.9272
L41.3184 25.9876
" />
<path d="M41.3184 25.9876
L41.4393 25.9876
" />
<path d="M41.4393 25.9876
L41.6208 25.9272
" />
<path d="M41.6208 25.9272
L41.6812 25.8667
" />
<path d="M41.6812 25.8667
L41.6812 25.4433
" />
<path d="M41.6812 25.4433
L41.4393 25.4433
" />
<path d="M42.1046 24.7176
L42.9512 24.7176
" />
<path d="M42.9512 24.7176
L42.4070 25.9876
" />
<path d="M43.9793 25.1410
L43.9793 25.9876
" />
<path d="M43.6769 24.6572
L43.3746 25.5643
" />
<path d="M43.3746 25.5643
L44.1607 25.5643
" />
</g></g>
<g style="fill:#840084; fill-opacity:0.0; 
stroke:#840084; stroke-width:0.1588; stroke-opacity:1; 
stroke-linecap:round; stroke-linejoin:round;">
<text x="28.6789" y="15.8751"
textLength="47.7982" font-size="1.6933" lengthAdjust="spacingAndGlyphs"
text-anchor="middle" opacity="0">http://www.ti.com/lit/sg/scyt129e/scyt129e.pdf</text>
<g class="stroked-text"><desc>http://www.ti.com/lit/sg/scyt129e/scyt129e.pdf</desc>
<path d="M5.1536 15.8276
L5.1536 14.5576
" />
<path d="M5.6979 15.8276
L5.6979 15.1624
" />
<path d="M5.6979 15.1624
L5.6374 15.0414
" />
<path d="M5.6374 15.0414
L5.5165 14.9810
" />
<path d="M5.5165 14.9810
L5.3351 14.9810
" />
<path d="M5.3351 14.9810
L5.2141 15.0414
" />
<path d="M5.2141 15.0414
L5.1536 15.1019
" />
<path d="M6.1212 14.9810
L6.6050 14.9810
" />
<path d="M6.3026 14.5576
L6.3026 15.6462
" />
<path d="M6.3026 15.6462
L6.3631 15.7672
" />
<path d="M6.3631 15.7672
L6.4841 15.8276
" />
<path d="M6.4841 15.8276
L6.6050 15.8276
" />
<path d="M6.8469 14.9810
L7.3307 14.9810
" />
<path d="M7.0283 14.5576
L7.0283 15.6462
" />
<path d="M7.0283 15.6462
L7.0888 15.7672
" />
<path d="M7.0888 15.7672
L7.2098 15.8276
" />
<path d="M7.2098 15.8276
L7.3307 15.8276
" />
<path d="M7.7540 14.9810
L7.7540 16.2510
" />
<path d="M7.7540 15.0414
L7.8750 14.9810
" />
<path d="M7.8750 14.9810
L8.1169 14.9810
" />
<path d="M8.1169 14.9810
L8.2378 15.0414
" />
<path d="M8.2378 15.0414
L8.2983 15.1019
" />
<path d="M8.2983 15.1019
L8.3588 15.2229
" />
<path d="M8.3588 15.2229
L8.3588 15.5857
" />
<path d="M8.3588 15.5857
L8.2983 15.7067
" />
<path d="M8.2983 15.7067
L8.2378 15.7672
" />
<path d="M8.2378 15.7672
L8.1169 15.8276
" />
<path d="M8.1169 15.8276
L7.8750 15.8276
" />
<path d="M7.8750 15.8276
L7.7540 15.7672
" />
<path d="M8.9030 15.7067
L8.9635 15.7672
" />
<path d="M8.9635 15.7672
L8.9030 15.8276
" />
<path d="M8.9030 15.8276
L8.8426 15.7672
" />
<path d="M8.8426 15.7672
L8.9030 15.7067
" />
<path d="M8.9030 15.7067
L8.9030 15.8276
" />
<path d="M8.9030 15.0414
L8.9635 15.1019
" />
<path d="M8.9635 15.1019
L8.9030 15.1624
" />
<path d="M8.9030 15.1624
L8.8426 15.1019
" />
<path d="M8.8426 15.1019
L8.9030 15.0414
" />
<path d="M8.9030 15.0414
L8.9030 15.1624
" />
<path d="M10.4150 14.4972
L9.3264 16.1300
" />
<path d="M11.7455 14.4972
L10.6569 16.1300
" />
<path d="M12.0479 14.9810
L12.2898 15.8276
" />
<path d="M12.2898 15.8276
L12.5317 15.2229
" />
<path d="M12.5317 15.2229
L12.7736 15.8276
" />
<path d="M12.7736 15.8276
L13.0155 14.9810
" />
<path d="M13.3784 14.9810
L13.6203 15.8276
" />
<path d="M13.6203 15.8276
L13.8622 15.2229
" />
<path d="M13.8622 15.2229
L14.1041 15.8276
" />
<path d="M14.1041 15.8276
L14.3460 14.9810
" />
<path d="M14.7089 14.9810
L14.9508 15.8276
" />
<path d="M14.9508 15.8276
L15.1927 15.2229
" />
<path d="M15.1927 15.2229
L15.4346 15.8276
" />
<path d="M15.4346 15.8276
L15.6765 14.9810
" />
<path d="M16.1603 15.7067
L16.2208 15.7672
" />
<path d="M16.2208 15.7672
L16.1603 15.8276
" />
<path d="M16.1603 15.8276
L16.0999 15.7672
" />
<path d="M16.0999 15.7672
L16.1603 15.7067
" />
<path d="M16.1603 15.7067
L16.1603 15.8276
" />
<path d="M16.5837 14.9810
L17.0675 14.9810
" />
<path d="M16.7651 14.5576
L16.7651 15.6462
" />
<path d="M16.7651 15.6462
L16.8256 15.7672
" />
<path d="M16.8256 15.7672
L16.9466 15.8276
" />
<path d="M16.9466 15.8276
L17.0675 15.8276
" />
<path d="M17.4908 15.8276
L17.4908 14.9810
" />
<path d="M17.4908 14.5576
L17.4304 14.6181
" />
<path d="M17.4304 14.6181
L17.4908 14.6786
" />
<path d="M17.4908 14.6786
L17.5513 14.6181
" />
<path d="M17.5513 14.6181
L17.4908 14.5576
" />
<path d="M17.4908 14.5576
L17.4908 14.6786
" />
<path d="M18.0956 15.7067
L18.1561 15.7672
" />
<path d="M18.1561 15.7672
L18.0956 15.8276
" />
<path d="M18.0956 15.8276
L18.0352 15.7672
" />
<path d="M18.0352 15.7672
L18.0956 15.7067
" />
<path d="M18.0956 15.7067
L18.0956 15.8276
" />
<path d="M19.2447 15.7672
L19.1238 15.8276
" />
<path d="M19.1238 15.8276
L18.8819 15.8276
" />
<path d="M18.8819 15.8276
L18.7609 15.7672
" />
<path d="M18.7609 15.7672
L18.7004 15.7067
" />
<path d="M18.7004 15.7067
L18.6400 15.5857
" />
<path d="M18.6400 15.5857
L18.6400 15.2229
" />
<path d="M18.6400 15.2229
L18.7004 15.1019
" />
<path d="M18.7004 15.1019
L18.7609 15.0414
" />
<path d="M18.7609 15.0414
L18.8819 14.9810
" />
<path d="M18.8819 14.9810
L19.1238 14.9810
" />
<path d="M19.1238 14.9810
L19.2447 15.0414
" />
<path d="M19.9705 15.8276
L19.8495 15.7672
" />
<path d="M19.8495 15.7672
L19.7890 15.7067
" />
<path d="M19.7890 15.7067
L19.7286 15.5857
" />
<path d="M19.7286 15.5857
L19.7286 15.2229
" />
<path d="M19.7286 15.2229
L19.7890 15.1019
" />
<path d="M19.7890 15.1019
L19.8495 15.0414
" />
<path d="M19.8495 15.0414
L19.9705 14.9810
" />
<path d="M19.9705 14.9810
L20.1519 14.9810
" />
<path d="M20.1519 14.9810
L20.2728 15.0414
" />
<path d="M20.2728 15.0414
L20.3333 15.1019
" />
<path d="M20.3333 15.1019
L20.3938 15.2229
" />
<path d="M20.3938 15.2229
L20.3938 15.5857
" />
<path d="M20.3938 15.5857
L20.3333 15.7067
" />
<path d="M20.3333 15.7067
L20.2728 15.7672
" />
<path d="M20.2728 15.7672
L20.1519 15.8276
" />
<path d="M20.1519 15.8276
L19.9705 15.8276
" />
<path d="M20.9380 15.8276
L20.9380 14.9810
" />
<path d="M20.9380 15.1019
L20.9985 15.0414
" />
<path d="M20.9985 15.0414
L21.1195 14.9810
" />
<path d="M21.1195 14.9810
L21.3009 14.9810
" />
<path d="M21.3009 14.9810
L21.4218 15.0414
" />
<path d="M21.4218 15.0414
L21.4823 15.1624
" />
<path d="M21.4823 15.1624
L21.4823 15.8276
" />
<path d="M21.4823 15.1624
L21.5428 15.0414
" />
<path d="M21.5428 15.0414
L21.6637 14.9810
" />
<path d="M21.6637 14.9810
L21.8452 14.9810
" />
<path d="M21.8452 14.9810
L21.9661 15.0414
" />
<path d="M21.9661 15.0414
L22.0266 15.1624
" />
<path d="M22.0266 15.1624
L22.0266 15.8276
" />
<path d="M23.5385 14.4972
L22.4499 16.1300
" />
<path d="M24.1433 15.8276
L24.0223 15.7672
" />
<path d="M24.0223 15.7672
L23.9618 15.6462
" />
<path d="M23.9618 15.6462
L23.9618 14.5576
" />
<path d="M24.6270 15.8276
L24.6270 14.9810
" />
<path d="M24.6270 14.5576
L24.5666 14.6181
" />
<path d="M24.5666 14.6181
L24.6270 14.6786
" />
<path d="M24.6270 14.6786
L24.6875 14.6181
" />
<path d="M24.6875 14.6181
L24.6270 14.5576
" />
<path d="M24.6270 14.5576
L24.6270 14.6786
" />
<path d="M25.0504 14.9810
L25.5342 14.9810
" />
<path d="M25.2318 14.5576
L25.2318 15.6462
" />
<path d="M25.2318 15.6462
L25.2923 15.7672
" />
<path d="M25.2923 15.7672
L25.4133 15.8276
" />
<path d="M25.4133 15.8276
L25.5342 15.8276
" />
<path d="M26.8647 14.4972
L25.7761 16.1300
" />
<path d="M27.2276 15.7672
L27.3485 15.8276
" />
<path d="M27.3485 15.8276
L27.5904 15.8276
" />
<path d="M27.5904 15.8276
L27.7114 15.7672
" />
<path d="M27.7114 15.7672
L27.7718 15.6462
" />
<path d="M27.7718 15.6462
L27.7718 15.5857
" />
<path d="M27.7718 15.5857
L27.7114 15.4648
" />
<path d="M27.7114 15.4648
L27.5904 15.4043
" />
<path d="M27.5904 15.4043
L27.4090 15.4043
" />
<path d="M27.4090 15.4043
L27.2880 15.3438
" />
<path d="M27.2880 15.3438
L27.2276 15.2229
" />
<path d="M27.2276 15.2229
L27.2276 15.1624
" />
<path d="M27.2276 15.1624
L27.2880 15.0414
" />
<path d="M27.2880 15.0414
L27.4090 14.9810
" />
<path d="M27.4090 14.9810
L27.5904 14.9810
" />
<path d="M27.5904 14.9810
L27.7114 15.0414
" />
<path d="M28.8604 14.9810
L28.8604 16.0091
" />
<path d="M28.8604 16.0091
L28.7999 16.1300
" />
<path d="M28.7999 16.1300
L28.7395 16.1905
" />
<path d="M28.7395 16.1905
L28.6185 16.2510
" />
<path d="M28.6185 16.2510
L28.4371 16.2510
" />
<path d="M28.4371 16.2510
L28.3161 16.1905
" />
<path d="M28.8604 15.7672
L28.7395 15.8276
" />
<path d="M28.7395 15.8276
L28.4976 15.8276
" />
<path d="M28.4976 15.8276
L28.3766 15.7672
" />
<path d="M28.3766 15.7672
L28.3161 15.7067
" />
<path d="M28.3161 15.7067
L28.2557 15.5857
" />
<path d="M28.2557 15.5857
L28.2557 15.2229
" />
<path d="M28.2557 15.2229
L28.3161 15.1019
" />
<path d="M28.3161 15.1019
L28.3766 15.0414
" />
<path d="M28.3766 15.0414
L28.4976 14.9810
" />
<path d="M28.4976 14.9810
L28.7395 14.9810
" />
<path d="M28.7395 14.9810
L28.8604 15.0414
" />
<path d="M30.3723 14.4972
L29.2837 16.1300
" />
<path d="M30.7352 15.7672
L30.8561 15.8276
" />
<path d="M30.8561 15.8276
L31.0980 15.8276
" />
<path d="M31.0980 15.8276
L31.2190 15.7672
" />
<path d="M31.2190 15.7672
L31.2794 15.6462
" />
<path d="M31.2794 15.6462
L31.2794 15.5857
" />
<path d="M31.2794 15.5857
L31.2190 15.4648
" />
<path d="M31.2190 15.4648
L31.0980 15.4043
" />
<path d="M31.0980 15.4043
L30.9166 15.4043
" />
<path d="M30.9166 15.4043
L30.7956 15.3438
" />
<path d="M30.7956 15.3438
L30.7352 15.2229
" />
<path d="M30.7352 15.2229
L30.7352 15.1624
" />
<path d="M30.7352 15.1624
L30.7956 15.0414
" />
<path d="M30.7956 15.0414
L30.9166 14.9810
" />
<path d="M30.9166 14.9810
L31.0980 14.9810
" />
<path d="M31.0980 14.9810
L31.2190 15.0414
" />
<path d="M32.3680 15.7672
L32.2471 15.8276
" />
<path d="M32.2471 15.8276
L32.0052 15.8276
" />
<path d="M32.0052 15.8276
L31.8842 15.7672
" />
<path d="M31.8842 15.7672
L31.8237 15.7067
" />
<path d="M31.8237 15.7067
L31.7633 15.5857
" />
<path d="M31.7633 15.5857
L31.7633 15.2229
" />
<path d="M31.7633 15.2229
L31.8237 15.1019
" />
<path d="M31.8237 15.1019
L31.8842 15.0414
" />
<path d="M31.8842 15.0414
L32.0052 14.9810
" />
<path d="M32.0052 14.9810
L32.2471 14.9810
" />
<path d="M32.2471 14.9810
L32.3680 15.0414
" />
<path d="M32.7914 14.9810
L33.0938 15.8276
" />
<path d="M33.3961 14.9810
L33.0938 15.8276
" />
<path d="M33.0938 15.8276
L32.9728 16.1300
" />
<path d="M32.9728 16.1300
L32.9123 16.1905
" />
<path d="M32.9123 16.1905
L32.7914 16.2510
" />
<path d="M33.6985 14.9810
L34.1823 14.9810
" />
<path d="M33.8799 14.5576
L33.8799 15.6462
" />
<path d="M33.8799 15.6462
L33.9404 15.7672
" />
<path d="M33.9404 15.7672
L34.0614 15.8276
" />
<path d="M34.0614 15.8276
L34.1823 15.8276
" />
<path d="M35.2709 15.8276
L34.5452 15.8276
" />
<path d="M34.9080 15.8276
L34.9080 14.5576
" />
<path d="M34.9080 14.5576
L34.7871 14.7391
" />
<path d="M34.7871 14.7391
L34.6661 14.8600
" />
<path d="M34.6661 14.8600
L34.5452 14.9205
" />
<path d="M35.7547 14.6786
L35.8151 14.6181
" />
<path d="M35.8151 14.6181
L35.9361 14.5576
" />
<path d="M35.9361 14.5576
L36.2385 14.5576
" />
<path d="M36.2385 14.5576
L36.3594 14.6181
" />
<path d="M36.3594 14.6181
L36.4199 14.6786
" />
<path d="M36.4199 14.6786
L36.4804 14.7995
" />
<path d="M36.4804 14.7995
L36.4804 14.9205
" />
<path d="M36.4804 14.9205
L36.4199 15.1019
" />
<path d="M36.4199 15.1019
L35.6942 15.8276
" />
<path d="M35.6942 15.8276
L36.4804 15.8276
" />
<path d="M37.0851 15.8276
L37.3270 15.8276
" />
<path d="M37.3270 15.8276
L37.4480 15.7672
" />
<path d="M37.4480 15.7672
L37.5084 15.7067
" />
<path d="M37.5084 15.7067
L37.6294 15.5252
" />
<path d="M37.6294 15.5252
L37.6899 15.2833
" />
<path d="M37.6899 15.2833
L37.6899 14.7995
" />
<path d="M37.6899 14.7995
L37.6294 14.6786
" />
<path d="M37.6294 14.6786
L37.5689 14.6181
" />
<path d="M37.5689 14.6181
L37.4480 14.5576
" />
<path d="M37.4480 14.5576
L37.2061 14.5576
" />
<path d="M37.2061 14.5576
L37.0851 14.6181
" />
<path d="M37.0851 14.6181
L37.0246 14.6786
" />
<path d="M37.0246 14.6786
L36.9642 14.7995
" />
<path d="M36.9642 14.7995
L36.9642 15.1019
" />
<path d="M36.9642 15.1019
L37.0246 15.2229
" />
<path d="M37.0246 15.2229
L37.0851 15.2833
" />
<path d="M37.0851 15.2833
L37.2061 15.3438
" />
<path d="M37.2061 15.3438
L37.4480 15.3438
" />
<path d="M37.4480 15.3438
L37.5689 15.2833
" />
<path d="M37.5689 15.2833
L37.6294 15.2229
" />
<path d="M37.6294 15.2229
L37.6899 15.1019
" />
<path d="M38.7179 15.7672
L38.5970 15.8276
" />
<path d="M38.5970 15.8276
L38.3551 15.8276
" />
<path d="M38.3551 15.8276
L38.2341 15.7672
" />
<path d="M38.2341 15.7672
L38.1737 15.6462
" />
<path d="M38.1737 15.6462
L38.1737 15.1624
" />
<path d="M38.1737 15.1624
L38.2341 15.0414
" />
<path d="M38.2341 15.0414
L38.3551 14.9810
" />
<path d="M38.3551 14.9810
L38.5970 14.9810
" />
<path d="M38.5970 14.9810
L38.7179 15.0414
" />
<path d="M38.7179 15.0414
L38.7784 15.1624
" />
<path d="M38.7784 15.1624
L38.7784 15.2833
" />
<path d="M38.7784 15.2833
L38.1737 15.4043
" />
<path d="M40.2299 14.4972
L39.1413 16.1300
" />
<path d="M40.5928 15.7672
L40.7137 15.8276
" />
<path d="M40.7137 15.8276
L40.9556 15.8276
" />
<path d="M40.9556 15.8276
L41.0766 15.7672
" />
<path d="M41.0766 15.7672
L41.1370 15.6462
" />
<path d="M41.1370 15.6462
L41.1370 15.5857
" />
<path d="M41.1370 15.5857
L41.0766 15.4648
" />
<path d="M41.0766 15.4648
L40.9556 15.4043
" />
<path d="M40.9556 15.4043
L40.7742 15.4043
" />
<path d="M40.7742 15.4043
L40.6532 15.3438
" />
<path d="M40.6532 15.3438
L40.5928 15.2229
" />
<path d="M40.5928 15.2229
L40.5928 15.1624
" />
<path d="M40.5928 15.1624
L40.6532 15.0414
" />
<path d="M40.6532 15.0414
L40.7742 14.9810
" />
<path d="M40.7742 14.9810
L40.9556 14.9810
" />
<path d="M40.9556 14.9810
L41.0766 15.0414
" />
<path d="M42.2256 15.7672
L42.1047 15.8276
" />
<path d="M42.1047 15.8276
L41.8628 15.8276
" />
<path d="M41.8628 15.8276
L41.7418 15.7672
" />
<path d="M41.7418 15.7672
L41.6813 15.7067
" />
<path d="M41.6813 15.7067
L41.6209 15.5857
" />
<path d="M41.6209 15.5857
L41.6209 15.2229
" />
<path d="M41.6209 15.2229
L41.6813 15.1019
" />
<path d="M41.6813 15.1019
L41.7418 15.0414
" />
<path d="M41.7418 15.0414
L41.8628 14.9810
" />
<path d="M41.8628 14.9810
L42.1047 14.9810
" />
<path d="M42.1047 14.9810
L42.2256 15.0414
" />
<path d="M42.6490 14.9810
L42.9514 15.8276
" />
<path d="M43.2537 14.9810
L42.9514 15.8276
" />
<path d="M42.9514 15.8276
L42.8304 16.1300
" />
<path d="M42.8304 16.1300
L42.7699 16.1905
" />
<path d="M42.7699 16.1905
L42.6490 16.2510
" />
<path d="M43.5561 14.9810
L44.0399 14.9810
" />
<path d="M43.7375 14.5576
L43.7375 15.6462
" />
<path d="M43.7375 15.6462
L43.7980 15.7672
" />
<path d="M43.7980 15.7672
L43.9190 15.8276
" />
<path d="M43.9190 15.8276
L44.0399 15.8276
" />
<path d="M45.1285 15.8276
L44.4028 15.8276
" />
<path d="M44.7656 15.8276
L44.7656 14.5576
" />
<path d="M44.7656 14.5576
L44.6447 14.7391
" />
<path d="M44.6447 14.7391
L44.5237 14.8600
" />
<path d="M44.5237 14.8600
L44.4028 14.9205
" />
<path d="M45.6123 14.6786
L45.6727 14.6181
" />
<path d="M45.6727 14.6181
L45.7937 14.5576
" />
<path d="M45.7937 14.5576
L46.0961 14.5576
" />
<path d="M46.0961 14.5576
L46.2170 14.6181
" />
<path d="M46.2170 14.6181
L46.2775 14.6786
" />
<path d="M46.2775 14.6786
L46.3380 14.7995
" />
<path d="M46.3380 14.7995
L46.3380 14.9205
" />
<path d="M46.3380 14.9205
L46.2775 15.1019
" />
<path d="M46.2775 15.1019
L45.5518 15.8276
" />
<path d="M45.5518 15.8276
L46.3380 15.8276
" />
<path d="M46.9427 15.8276
L47.1846 15.8276
" />
<path d="M47.1846 15.8276
L47.3056 15.7672
" />
<path d="M47.3056 15.7672
L47.3660 15.7067
" />
<path d="M47.3660 15.7067
L47.4870 15.5252
" />
<path d="M47.4870 15.5252
L47.5475 15.2833
" />
<path d="M47.5475 15.2833
L47.5475 14.7995
" />
<path d="M47.5475 14.7995
L47.4870 14.6786
" />
<path d="M47.4870 14.6786
L47.4265 14.6181
" />
<path d="M47.4265 14.6181
L47.3056 14.5576
" />
<path d="M47.3056 14.5576
L47.0637 14.5576
" />
<path d="M47.0637 14.5576
L46.9427 14.6181
" />
<path d="M46.9427 14.6181
L46.8822 14.6786
" />
<path d="M46.8822 14.6786
L46.8218 14.7995
" />
<path d="M46.8218 14.7995
L46.8218 15.1019
" />
<path d="M46.8218 15.1019
L46.8822 15.2229
" />
<path d="M46.8822 15.2229
L46.9427 15.2833
" />
<path d="M46.9427 15.2833
L47.0637 15.3438
" />
<path d="M47.0637 15.3438
L47.3056 15.3438
" />
<path d="M47.3056 15.3438
L47.4265 15.2833
" />
<path d="M47.4265 15.2833
L47.4870 15.2229
" />
<path d="M47.4870 15.2229
L47.5475 15.1019
" />
<path d="M48.5755 15.7672
L48.4546 15.8276
" />
<path d="M48.4546 15.8276
L48.2127 15.8276
" />
<path d="M48.2127 15.8276
L48.0917 15.7672
" />
<path d="M48.0917 15.7672
L48.0313 15.6462
" />
<path d="M48.0313 15.6462
L48.0313 15.1624
" />
<path d="M48.0313 15.1624
L48.0917 15.0414
" />
<path d="M48.0917 15.0414
L48.2127 14.9810
" />
<path d="M48.2127 14.9810
L48.4546 14.9810
" />
<path d="M48.4546 14.9810
L48.5755 15.0414
" />
<path d="M48.5755 15.0414
L48.6360 15.1624
" />
<path d="M48.6360 15.1624
L48.6360 15.2833
" />
<path d="M48.6360 15.2833
L48.0313 15.4043
" />
<path d="M49.1803 15.7067
L49.2408 15.7672
" />
<path d="M49.2408 15.7672
L49.1803 15.8276
" />
<path d="M49.1803 15.8276
L49.1199 15.7672
" />
<path d="M49.1199 15.7672
L49.1803 15.7067
" />
<path d="M49.1803 15.7067
L49.1803 15.8276
" />
<path d="M49.7851 14.9810
L49.7851 16.2510
" />
<path d="M49.7851 15.0414
L49.9061 14.9810
" />
<path d="M49.9061 14.9810
L50.1480 14.9810
" />
<path d="M50.1480 14.9810
L50.2689 15.0414
" />
<path d="M50.2689 15.0414
L50.3294 15.1019
" />
<path d="M50.3294 15.1019
L50.3899 15.2229
" />
<path d="M50.3899 15.2229
L50.3899 15.5857
" />
<path d="M50.3899 15.5857
L50.3294 15.7067
" />
<path d="M50.3294 15.7067
L50.2689 15.7672
" />
<path d="M50.2689 15.7672
L50.1480 15.8276
" />
<path d="M50.1480 15.8276
L49.9061 15.8276
" />
<path d="M49.9061 15.8276
L49.7851 15.7672
" />
<path d="M51.4784 15.8276
L51.4784 14.5576
" />
<path d="M51.4784 15.7672
L51.3575 15.8276
" />
<path d="M51.3575 15.8276
L51.1156 15.8276
" />
<path d="M51.1156 15.8276
L50.9946 15.7672
" />
<path d="M50.9946 15.7672
L50.9341 15.7067
" />
<path d="M50.9341 15.7067
L50.8737 15.5857
" />
<path d="M50.8737 15.5857
L50.8737 15.2229
" />
<path d="M50.8737 15.2229
L50.9341 15.1019
" />
<path d="M50.9341 15.1019
L50.9946 15.0414
" />
<path d="M50.9946 15.0414
L51.1156 14.9810
" />
<path d="M51.1156 14.9810
L51.3575 14.9810
" />
<path d="M51.3575 14.9810
L51.4784 15.0414
" />
<path d="M51.9017 14.9810
L52.3855 14.9810
" />
<path d="M52.0831 15.8276
L52.0831 14.7391
" />
<path d="M52.0831 14.7391
L52.1436 14.6181
" />
<path d="M52.1436 14.6181
L52.2646 14.5576
" />
<path d="M52.2646 14.5576
L52.3855 14.5576
" />
</g></g> 
</svg>
