<?xml version="1.0" standalone="no"?>
 <!DOCTYPE svg PUBLIC "-//W3C//DTD SVG 1.1//EN" 
 "http://www.w3.org/Graphics/SVG/1.1/DTD/svg11.dtd"> 
<svg
  xmlns:svg="http://www.w3.org/2000/svg"
  xmlns="http://www.w3.org/2000/svg"
  xmlns:xlink="http://www.w3.org/1999/xlink"
  version="1.1"
  width="25.8572mm" height="11.1506mm" viewBox="0.0000 0.0000 25.8572 11.1506">
<title>SVG Image created as working.svg date 2023/08/02 18:44:12 </title>
  <desc>Image generated by Eeschema-SVG </desc>
<g style="fill:#000000; fill-opacity:1.0000;stroke:#000000; stroke-opacity:1.0000;
stroke-linecap:round; stroke-linejoin:round;"
 transform="translate(0 0) scale(1 1)">
</g>
<g style="fill:#840000; fill-opacity:0.0; 
stroke:#840000; stroke-width:0.0000; stroke-opacity:1; 
stroke-linecap:round; stroke-linejoin:round;">
</g>
<g style="fill:#FFFFC2; fill-opacity:0.0; 
stroke:#FFFFC2; stroke-width:0.0000; stroke-opacity:1; 
stroke-linecap:round; stroke-linejoin:round;">
</g>
<g style="fill:#FFFFC2; fill-opacity:1.0000; 
stroke:#FFFFC2; stroke-width:0.0000; stroke-opacity:1; 
stroke-linecap:round; stroke-linejoin:round;">
<rect x="11.660800" y="3.032200" width="2.540000" height="5.080000" rx="0.000000" />
</g>
<g style="fill:#840084; fill-opacity:1.0000; 
stroke:#840084; stroke-width:0.0000; stroke-opacity:1; 
stroke-linecap:round; stroke-linejoin:round;">
</g>
<g style="fill:#840000; fill-opacity:1.0000; 
stroke:#840000; stroke-width:0.0000; stroke-opacity:1; 
stroke-linecap:round; stroke-linejoin:round;">
</g>
<g style="fill:#840000; fill-opacity:0.0; 
stroke:#840000; stroke-width:0.2540; stroke-opacity:1; 
stroke-linecap:round; stroke-linejoin:round;">
<rect x="11.660800" y="3.032200" width="2.540000" height="5.080000" rx="0.000000" />
</g>
<g style="fill:#840000; fill-opacity:0.0; 
stroke:#840000; stroke-width:0.1524; stroke-opacity:1; 
stroke-linecap:round; stroke-linejoin:round;">
<circle cx="12.9308" cy="6.8422" r="0.6350" /> 
<path style="fill:#840000; fill-opacity:0.0; 
stroke:#840000; stroke-width:0.1524; stroke-opacity:1; 
stroke-linecap:round; stroke-linejoin:round;fill:none"
d="M 12.3974,6.5120
13.2610,7.3502
" /> 
<path style="fill:#840000; fill-opacity:0.0; 
stroke:#840000; stroke-width:0.1524; stroke-opacity:1; 
stroke-linecap:round; stroke-linejoin:round;fill:none"
d="M 12.3974,3.9720
13.2610,4.8102
" /> 
<path style="fill:#840000; fill-opacity:0.0; 
stroke:#840000; stroke-width:0.1524; stroke-opacity:1; 
stroke-linecap:round; stroke-linejoin:round;fill:none"
d="M 12.5752,6.3342
13.4388,7.1724
" /> 
<path style="fill:#840000; fill-opacity:0.0; 
stroke:#840000; stroke-width:0.1524; stroke-opacity:1; 
stroke-linecap:round; stroke-linejoin:round;fill:none"
d="M 12.5752,3.7942
13.4388,4.6324
" /> 
<circle cx="12.9308" cy="4.3022" r="0.6350" /> 
<path d="M11.6608 4.3022
L7.8508 4.3022
" />
</g>
<g style="fill:#A90000; fill-opacity:0.0; 
stroke:#A90000; stroke-width:0.1524; stroke-opacity:1; 
stroke-linecap:round; stroke-linejoin:round;">
<text x="9.7558" y="4.0482"
textLength="1.3365" font-size="1.6933" lengthAdjust="spacingAndGlyphs"
text-anchor="middle" opacity="0">1</text>
<g class="stroked-text"><desc>1</desc>
<path d="M10.1187 3.8927
L9.3930 3.8927
" />
<path d="M9.7558 3.8927
L9.7558 2.6227
" />
<path d="M9.7558 2.6227
L9.6349 2.8042
" />
<path d="M9.6349 2.8042
L9.5139 2.9251
" />
<path d="M9.5139 2.9251
L9.3930 2.9856
" />
</g></g>
<g style="fill:#840000; fill-opacity:0.0; 
stroke:#840000; stroke-width:0.1524; stroke-opacity:1; 
stroke-linecap:round; stroke-linejoin:round;">
<path d="M11.6608 6.8422
L7.8508 6.8422
" />
</g>
<g style="fill:#A90000; fill-opacity:0.0; 
stroke:#A90000; stroke-width:0.1524; stroke-opacity:1; 
stroke-linecap:round; stroke-linejoin:round;">
<text x="9.7558" y="6.5882"
textLength="1.3365" font-size="1.6933" lengthAdjust="spacingAndGlyphs"
text-anchor="middle" opacity="0">2</text>
<g class="stroked-text"><desc>2</desc>
<path d="M9.3930 5.2837
L9.4534 5.2232
" />
<path d="M9.4534 5.2232
L9.5744 5.1627
" />
<path d="M9.5744 5.1627
L9.8768 5.1627
" />
<path d="M9.8768 5.1627
L9.9977 5.2232
" />
<path d="M9.9977 5.2232
L10.0582 5.2837
" />
<path d="M10.0582 5.2837
L10.1187 5.4046
" />
<path d="M10.1187 5.4046
L10.1187 5.5256
" />
<path d="M10.1187 5.5256
L10.0582 5.7070
" />
<path d="M10.0582 5.7070
L9.3325 6.4327
" />
<path d="M9.3325 6.4327
L10.1187 6.4327
" />
</g></g>
<g style="fill:#840084; fill-opacity:0.0; 
stroke:#840084; stroke-width:0.1524; stroke-opacity:1; 
stroke-linecap:round; stroke-linejoin:round;">
</g>
<g style="fill:#006464; fill-opacity:0.0; 
stroke:#006464; stroke-width:0.1524; stroke-opacity:1; 
stroke-linecap:round; stroke-linejoin:round;">
</g>
<g style="fill:#006464; fill-opacity:0.0; 
stroke:#006464; stroke-width:0.1588; stroke-opacity:1; 
stroke-linecap:round; stroke-linejoin:round;">
<text x="12.9308" y="2.3972"
textLength="2.1992" font-size="1.6933" lengthAdjust="spacingAndGlyphs"
text-anchor="middle" opacity="0">J?</text>
<g class="stroked-text"><desc>J?</desc>
<path d="M12.5679 1.0797
L12.5679 1.9869
" />
<path d="M12.5679 1.9869
L12.5074 2.1683
" />
<path d="M12.5074 2.1683
L12.3865 2.2893
" />
<path d="M12.3865 2.2893
L12.2050 2.3497
" />
<path d="M12.2050 2.3497
L12.0841 2.3497
" />
<path d="M13.3541 2.2288
L13.4145 2.2893
" />
<path d="M13.4145 2.2893
L13.3541 2.3497
" />
<path d="M13.3541 2.3497
L13.2936 2.2893
" />
<path d="M13.2936 2.2893
L13.3541 2.2288
" />
<path d="M13.3541 2.2288
L13.3541 2.3497
" />
<path d="M13.1122 1.1402
L13.2331 1.0797
" />
<path d="M13.2331 1.0797
L13.5355 1.0797
" />
<path d="M13.5355 1.0797
L13.6564 1.1402
" />
<path d="M13.6564 1.1402
L13.7169 1.2612
" />
<path d="M13.7169 1.2612
L13.7169 1.3821
" />
<path d="M13.7169 1.3821
L13.6564 1.5031
" />
<path d="M13.6564 1.5031
L13.5960 1.5635
" />
<path d="M13.5960 1.5635
L13.4750 1.6240
" />
<path d="M13.4750 1.6240
L13.4145 1.6845
" />
<path d="M13.4145 1.6845
L13.3541 1.8054
" />
<path d="M13.3541 1.8054
L13.3541 1.8659
" />
</g><text x="12.9308" y="10.0172"
textLength="21.5514" font-size="1.6933" lengthAdjust="spacingAndGlyphs"
text-anchor="middle" opacity="0">Screw_Terminal_01x02</text>
<g class="stroked-text"><desc>Screw_Terminal_01x02</desc>
<path d="M2.4685 9.9093
L2.6499 9.9697
" />
<path d="M2.6499 9.9697
L2.9523 9.9697
" />
<path d="M2.9523 9.9697
L3.0732 9.9093
" />
<path d="M3.0732 9.9093
L3.1337 9.8488
" />
<path d="M3.1337 9.8488
L3.1942 9.7278
" />
<path d="M3.1942 9.7278
L3.1942 9.6069
" />
<path d="M3.1942 9.6069
L3.1337 9.4859
" />
<path d="M3.1337 9.4859
L3.0732 9.4254
" />
<path d="M3.0732 9.4254
L2.9523 9.3650
" />
<path d="M2.9523 9.3650
L2.7104 9.3045
" />
<path d="M2.7104 9.3045
L2.5894 9.2440
" />
<path d="M2.5894 9.2440
L2.5289 9.1835
" />
<path d="M2.5289 9.1835
L2.4685 9.0626
" />
<path d="M2.4685 9.0626
L2.4685 8.9416
" />
<path d="M2.4685 8.9416
L2.5289 8.8207
" />
<path d="M2.5289 8.8207
L2.5894 8.7602
" />
<path d="M2.5894 8.7602
L2.7104 8.6997
" />
<path d="M2.7104 8.6997
L3.0127 8.6997
" />
<path d="M3.0127 8.6997
L3.1942 8.7602
" />
<path d="M4.2827 9.9093
L4.1618 9.9697
" />
<path d="M4.1618 9.9697
L3.9199 9.9697
" />
<path d="M3.9199 9.9697
L3.7989 9.9093
" />
<path d="M3.7989 9.9093
L3.7384 9.8488
" />
<path d="M3.7384 9.8488
L3.6780 9.7278
" />
<path d="M3.6780 9.7278
L3.6780 9.3650
" />
<path d="M3.6780 9.3650
L3.7384 9.2440
" />
<path d="M3.7384 9.2440
L3.7989 9.1835
" />
<path d="M3.7989 9.1835
L3.9199 9.1231
" />
<path d="M3.9199 9.1231
L4.1618 9.1231
" />
<path d="M4.1618 9.1231
L4.2827 9.1835
" />
<path d="M4.8270 9.9697
L4.8270 9.1231
" />
<path d="M4.8270 9.3650
L4.8875 9.2440
" />
<path d="M4.8875 9.2440
L4.9480 9.1835
" />
<path d="M4.9480 9.1835
L5.0689 9.1231
" />
<path d="M5.0689 9.1231
L5.1899 9.1231
" />
<path d="M6.0970 9.9093
L5.9761 9.9697
" />
<path d="M5.9761 9.9697
L5.7342 9.9697
" />
<path d="M5.7342 9.9697
L5.6132 9.9093
" />
<path d="M5.6132 9.9093
L5.5528 9.7883
" />
<path d="M5.5528 9.7883
L5.5528 9.3045
" />
<path d="M5.5528 9.3045
L5.6132 9.1835
" />
<path d="M5.6132 9.1835
L5.7342 9.1231
" />
<path d="M5.7342 9.1231
L5.9761 9.1231
" />
<path d="M5.9761 9.1231
L6.0970 9.1835
" />
<path d="M6.0970 9.1835
L6.1575 9.3045
" />
<path d="M6.1575 9.3045
L6.1575 9.4254
" />
<path d="M6.1575 9.4254
L5.5528 9.5464
" />
<path d="M6.5809 9.1231
L6.8228 9.9697
" />
<path d="M6.8228 9.9697
L7.0647 9.3650
" />
<path d="M7.0647 9.3650
L7.3066 9.9697
" />
<path d="M7.3066 9.9697
L7.5485 9.1231
" />
<path d="M7.7300 10.0907
L8.6976 10.0907
" />
<path d="M8.8185 8.6997
L9.5442 8.6997
" />
<path d="M9.1814 9.9697
L9.1814 8.6997
" />
<path d="M10.4513 9.9093
L10.3304 9.9697
" />
<path d="M10.3304 9.9697
L10.0885 9.9697
" />
<path d="M10.0885 9.9697
L9.9675 9.9093
" />
<path d="M9.9675 9.9093
L9.9071 9.7883
" />
<path d="M9.9071 9.7883
L9.9071 9.3045
" />
<path d="M9.9071 9.3045
L9.9675 9.1835
" />
<path d="M9.9675 9.1835
L10.0885 9.1231
" />
<path d="M10.0885 9.1231
L10.3304 9.1231
" />
<path d="M10.3304 9.1231
L10.4513 9.1835
" />
<path d="M10.4513 9.1835
L10.5118 9.3045
" />
<path d="M10.5118 9.3045
L10.5118 9.4254
" />
<path d="M10.5118 9.4254
L9.9071 9.5464
" />
<path d="M11.0561 9.9697
L11.0561 9.1231
" />
<path d="M11.0561 9.3650
L11.1166 9.2440
" />
<path d="M11.1166 9.2440
L11.1771 9.1835
" />
<path d="M11.1771 9.1835
L11.2980 9.1231
" />
<path d="M11.2980 9.1231
L11.4190 9.1231
" />
<path d="M11.8423 9.9697
L11.8423 9.1231
" />
<path d="M11.8423 9.2440
L11.9028 9.1835
" />
<path d="M11.9028 9.1835
L12.0238 9.1231
" />
<path d="M12.0238 9.1231
L12.2052 9.1231
" />
<path d="M12.2052 9.1231
L12.3261 9.1835
" />
<path d="M12.3261 9.1835
L12.3866 9.3045
" />
<path d="M12.3866 9.3045
L12.3866 9.9697
" />
<path d="M12.3866 9.3045
L12.4471 9.1835
" />
<path d="M12.4471 9.1835
L12.5680 9.1231
" />
<path d="M12.5680 9.1231
L12.7495 9.1231
" />
<path d="M12.7495 9.1231
L12.8704 9.1835
" />
<path d="M12.8704 9.1835
L12.9309 9.3045
" />
<path d="M12.9309 9.3045
L12.9309 9.9697
" />
<path d="M13.5356 9.9697
L13.5356 9.1231
" />
<path d="M13.5356 8.6997
L13.4752 8.7602
" />
<path d="M13.4752 8.7602
L13.5356 8.8207
" />
<path d="M13.5356 8.8207
L13.5961 8.7602
" />
<path d="M13.5961 8.7602
L13.5356 8.6997
" />
<path d="M13.5356 8.6997
L13.5356 8.8207
" />
<path d="M14.1404 9.1231
L14.1404 9.9697
" />
<path d="M14.1404 9.2440
L14.2009 9.1835
" />
<path d="M14.2009 9.1835
L14.3219 9.1231
" />
<path d="M14.3219 9.1231
L14.5033 9.1231
" />
<path d="M14.5033 9.1231
L14.6242 9.1835
" />
<path d="M14.6242 9.1835
L14.6847 9.3045
" />
<path d="M14.6847 9.3045
L14.6847 9.9697
" />
<path d="M15.8337 9.9697
L15.8337 9.3045
" />
<path d="M15.8337 9.3045
L15.7732 9.1835
" />
<path d="M15.7732 9.1835
L15.6523 9.1231
" />
<path d="M15.6523 9.1231
L15.4104 9.1231
" />
<path d="M15.4104 9.1231
L15.2894 9.1835
" />
<path d="M15.8337 9.9093
L15.7128 9.9697
" />
<path d="M15.7128 9.9697
L15.4104 9.9697
" />
<path d="M15.4104 9.9697
L15.2894 9.9093
" />
<path d="M15.2894 9.9093
L15.2290 9.7883
" />
<path d="M15.2290 9.7883
L15.2290 9.6673
" />
<path d="M15.2290 9.6673
L15.2894 9.5464
" />
<path d="M15.2894 9.5464
L15.4104 9.4859
" />
<path d="M15.4104 9.4859
L15.7128 9.4859
" />
<path d="M15.7128 9.4859
L15.8337 9.4254
" />
<path d="M16.6199 9.9697
L16.4989 9.9093
" />
<path d="M16.4989 9.9093
L16.4384 9.7883
" />
<path d="M16.4384 9.7883
L16.4384 8.6997
" />
<path d="M16.8013 10.0907
L17.7689 10.0907
" />
<path d="M18.3131 8.6997
L18.4341 8.6997
" />
<path d="M18.4341 8.6997
L18.5550 8.7602
" />
<path d="M18.5550 8.7602
L18.6155 8.8207
" />
<path d="M18.6155 8.8207
L18.6760 8.9416
" />
<path d="M18.6760 8.9416
L18.7365 9.1835
" />
<path d="M18.7365 9.1835
L18.7365 9.4859
" />
<path d="M18.7365 9.4859
L18.6760 9.7278
" />
<path d="M18.6760 9.7278
L18.6155 9.8488
" />
<path d="M18.6155 9.8488
L18.5550 9.9093
" />
<path d="M18.5550 9.9093
L18.4341 9.9697
" />
<path d="M18.4341 9.9697
L18.3131 9.9697
" />
<path d="M18.3131 9.9697
L18.1922 9.9093
" />
<path d="M18.1922 9.9093
L18.1317 9.8488
" />
<path d="M18.1317 9.8488
L18.0712 9.7278
" />
<path d="M18.0712 9.7278
L18.0108 9.4859
" />
<path d="M18.0108 9.4859
L18.0108 9.1835
" />
<path d="M18.0108 9.1835
L18.0712 8.9416
" />
<path d="M18.0712 8.9416
L18.1317 8.8207
" />
<path d="M18.1317 8.8207
L18.1922 8.7602
" />
<path d="M18.1922 8.7602
L18.3131 8.6997
" />
<path d="M19.9460 9.9697
L19.2203 9.9697
" />
<path d="M19.5831 9.9697
L19.5831 8.6997
" />
<path d="M19.5831 8.6997
L19.4622 8.8812
" />
<path d="M19.4622 8.8812
L19.3412 9.0021
" />
<path d="M19.3412 9.0021
L19.2203 9.0626
" />
<path d="M20.3693 9.9697
L21.0345 9.1231
" />
<path d="M20.3693 9.1231
L21.0345 9.9697
" />
<path d="M21.7602 8.6997
L21.8812 8.6997
" />
<path d="M21.8812 8.6997
L22.0021 8.7602
" />
<path d="M22.0021 8.7602
L22.0626 8.8207
" />
<path d="M22.0626 8.8207
L22.1231 8.9416
" />
<path d="M22.1231 8.9416
L22.1836 9.1835
" />
<path d="M22.1836 9.1835
L22.1836 9.4859
" />
<path d="M22.1836 9.4859
L22.1231 9.7278
" />
<path d="M22.1231 9.7278
L22.0626 9.8488
" />
<path d="M22.0626 9.8488
L22.0021 9.9093
" />
<path d="M22.0021 9.9093
L21.8812 9.9697
" />
<path d="M21.8812 9.9697
L21.7602 9.9697
" />
<path d="M21.7602 9.9697
L21.6393 9.9093
" />
<path d="M21.6393 9.9093
L21.5788 9.8488
" />
<path d="M21.5788 9.8488
L21.5183 9.7278
" />
<path d="M21.5183 9.7278
L21.4579 9.4859
" />
<path d="M21.4579 9.4859
L21.4579 9.1835
" />
<path d="M21.4579 9.1835
L21.5183 8.9416
" />
<path d="M21.5183 8.9416
L21.5788 8.8207
" />
<path d="M21.5788 8.8207
L21.6393 8.7602
" />
<path d="M21.6393 8.7602
L21.7602 8.6997
" />
<path d="M22.6674 8.8207
L22.7278 8.7602
" />
<path d="M22.7278 8.7602
L22.8488 8.6997
" />
<path d="M22.8488 8.6997
L23.1512 8.6997
" />
<path d="M23.1512 8.6997
L23.2721 8.7602
" />
<path d="M23.2721 8.7602
L23.3326 8.8207
" />
<path d="M23.3326 8.8207
L23.3931 8.9416
" />
<path d="M23.3931 8.9416
L23.3931 9.0626
" />
<path d="M23.3931 9.0626
L23.3326 9.2440
" />
<path d="M23.3326 9.2440
L22.6069 9.9697
" />
<path d="M22.6069 9.9697
L23.3931 9.9697
" />
</g></g>
<g style="fill:#840084; fill-opacity:0.0; 
stroke:#840084; stroke-width:0.1588; stroke-opacity:1; 
stroke-linecap:round; stroke-linejoin:round;">
<text x="12.9308" y="4.9372"
textLength="1.0501" font-size="1.6933" lengthAdjust="spacingAndGlyphs"
text-anchor="middle" opacity="0">~</text>
<g class="stroked-text"><desc>~</desc>
<path d="M12.5982 4.4059
L12.6587 4.3454
" />
<path d="M12.6587 4.3454
L12.7796 4.2850
" />
<path d="M12.7796 4.2850
L13.0215 4.4059
" />
<path d="M13.0215 4.4059
L13.1425 4.3454
" />
<path d="M13.1425 4.3454
L13.2030 4.2850
" />
</g></g> 
</svg>
