<?xml version="1.0" standalone="no"?>
 <!DOCTYPE svg PUBLIC "-//W3C//DTD SVG 1.1//EN" 
 "http://www.w3.org/Graphics/SVG/1.1/DTD/svg11.dtd"> 
<svg
  xmlns:svg="http://www.w3.org/2000/svg"
  xmlns="http://www.w3.org/2000/svg"
  xmlns:xlink="http://www.w3.org/1999/xlink"
  version="1.1"
  width="45.0088mm" height="48.7680mm" viewBox="0.0000 0.0000 45.0088 48.7680">
<title>SVG Image created as working.svg date 2023/07/31 10:44:31 </title>
  <desc>Image generated by Eeschema-SVG </desc>
<g style="fill:#000000; fill-opacity:1.0000;stroke:#000000; stroke-opacity:1.0000;
stroke-linecap:round; stroke-linejoin:round;"
 transform="translate(0 0) scale(1 1)">
</g>
<g style="fill:#840000; fill-opacity:0.0; 
stroke:#840000; stroke-width:0.0000; stroke-opacity:1; 
stroke-linecap:round; stroke-linejoin:round;">
</g>
<g style="fill:#FFFFC2; fill-opacity:0.0; 
stroke:#FFFFC2; stroke-width:0.0000; stroke-opacity:1; 
stroke-linecap:round; stroke-linejoin:round;">
</g>
<g style="fill:#FFFFC2; fill-opacity:1.0000; 
stroke:#FFFFC2; stroke-width:0.0000; stroke-opacity:1; 
stroke-linecap:round; stroke-linejoin:round;">
<rect x="14.890200" y="9.144100" width="15.240000" height="30.480000" rx="0.000000" />
</g>
<g style="fill:#840084; fill-opacity:1.0000; 
stroke:#840084; stroke-width:0.0000; stroke-opacity:1; 
stroke-linecap:round; stroke-linejoin:round;">
</g>
<g style="fill:#840000; fill-opacity:1.0000; 
stroke:#840000; stroke-width:0.0000; stroke-opacity:1; 
stroke-linecap:round; stroke-linejoin:round;">
</g>
<g style="fill:#840000; fill-opacity:0.0; 
stroke:#840000; stroke-width:0.2540; stroke-opacity:1; 
stroke-linecap:round; stroke-linejoin:round;">
<rect x="14.890200" y="9.144100" width="15.240000" height="30.480000" rx="0.000000" />
</g>
<g style="fill:#840000; fill-opacity:0.0; 
stroke:#840000; stroke-width:0.1524; stroke-opacity:1; 
stroke-linecap:round; stroke-linejoin:round;">
<circle cx="14.2552" cy="24.3841" r="0.6350" /> 
<path d="M13.6202 24.3841
L9.8102 24.3841
" />
</g>
<g style="fill:#006464; fill-opacity:0.0; 
stroke:#006464; stroke-width:0.1524; stroke-opacity:1; 
stroke-linecap:round; stroke-linejoin:round;">
<text x="15.9062" y="25.0191"
textLength="1.3970" font-size="1.6933" lengthAdjust="spacingAndGlyphs"
text-anchor="start" opacity="0">G</text>
<g class="stroked-text"><desc>G</desc>
<path d="M16.8738 23.7621
L16.7528 23.7016
" />
<path d="M16.7528 23.7016
L16.5714 23.7016
" />
<path d="M16.5714 23.7016
L16.3900 23.7621
" />
<path d="M16.3900 23.7621
L16.2690 23.8831
" />
<path d="M16.2690 23.8831
L16.2085 24.0040
" />
<path d="M16.2085 24.0040
L16.1481 24.2459
" />
<path d="M16.1481 24.2459
L16.1481 24.4273
" />
<path d="M16.1481 24.4273
L16.2085 24.6692
" />
<path d="M16.2085 24.6692
L16.2690 24.7902
" />
<path d="M16.2690 24.7902
L16.3900 24.9112
" />
<path d="M16.3900 24.9112
L16.5714 24.9716
" />
<path d="M16.5714 24.9716
L16.6923 24.9716
" />
<path d="M16.6923 24.9716
L16.8738 24.9112
" />
<path d="M16.8738 24.9112
L16.9342 24.8507
" />
<path d="M16.9342 24.8507
L16.9342 24.4273
" />
<path d="M16.9342 24.4273
L16.6923 24.4273
" />
</g></g>
<g style="fill:#A90000; fill-opacity:0.0; 
stroke:#A90000; stroke-width:0.1524; stroke-opacity:1; 
stroke-linecap:round; stroke-linejoin:round;">
<text x="12.3502" y="24.1301"
textLength="1.3365" font-size="1.6933" lengthAdjust="spacingAndGlyphs"
text-anchor="middle" opacity="0">1</text>
<g class="stroked-text"><desc>1</desc>
<path d="M12.7131 23.9746
L11.9874 23.9746
" />
<path d="M12.3502 23.9746
L12.3502 22.7046
" />
<path d="M12.3502 22.7046
L12.2293 22.8861
" />
<path d="M12.2293 22.8861
L12.1083 23.0070
" />
<path d="M12.1083 23.0070
L11.9874 23.0675
" />
</g></g>
<g style="fill:#840000; fill-opacity:0.0; 
stroke:#840000; stroke-width:0.1524; stroke-opacity:1; 
stroke-linecap:round; stroke-linejoin:round;">
<path d="M22.5102 39.6241
L22.5102 44.7041
" />
</g>
<g style="fill:#006464; fill-opacity:0.0; 
stroke:#006464; stroke-width:0.1524; stroke-opacity:1; 
stroke-linecap:round; stroke-linejoin:round;">
<g transform="rotate(-90.000000 22.5102 38.6081)">
<text x="22.5102" y="39.2431"
textLength="3.9975" font-size="1.6933" lengthAdjust="spacingAndGlyphs"
text-anchor="start" opacity="0">GND</text>
</g>
<g class="stroked-text"><desc>GND</desc>
<path d="M21.8882 37.6404
L21.8277 37.7614
" />
<path d="M21.8277 37.7614
L21.8277 37.9428
" />
<path d="M21.8277 37.9428
L21.8882 38.1242
" />
<path d="M21.8882 38.1242
L22.0092 38.2452
" />
<path d="M22.0092 38.2452
L22.1301 38.3057
" />
<path d="M22.1301 38.3057
L22.3720 38.3661
" />
<path d="M22.3720 38.3661
L22.5534 38.3661
" />
<path d="M22.5534 38.3661
L22.7953 38.3057
" />
<path d="M22.7953 38.3057
L22.9163 38.2452
" />
<path d="M22.9163 38.2452
L23.0373 38.1242
" />
<path d="M23.0373 38.1242
L23.0977 37.9428
" />
<path d="M23.0977 37.9428
L23.0977 37.8219
" />
<path d="M23.0977 37.8219
L23.0373 37.6404
" />
<path d="M23.0373 37.6404
L22.9768 37.5800
" />
<path d="M22.9768 37.5800
L22.5534 37.5800
" />
<path d="M22.5534 37.5800
L22.5534 37.8219
" />
<path d="M23.0977 37.0357
L21.8277 37.0357
" />
<path d="M21.8277 37.0357
L23.0977 36.3100
" />
<path d="M23.0977 36.3100
L21.8277 36.3100
" />
<path d="M23.0977 35.7052
L21.8277 35.7052
" />
<path d="M21.8277 35.7052
L21.8277 35.4028
" />
<path d="M21.8277 35.4028
L21.8882 35.2214
" />
<path d="M21.8882 35.2214
L22.0092 35.1004
" />
<path d="M22.0092 35.1004
L22.1301 35.0399
" />
<path d="M22.1301 35.0399
L22.3720 34.9795
" />
<path d="M22.3720 34.9795
L22.5534 34.9795
" />
<path d="M22.5534 34.9795
L22.7953 35.0399
" />
<path d="M22.7953 35.0399
L22.9163 35.1004
" />
<path d="M22.9163 35.1004
L23.0373 35.2214
" />
<path d="M23.0373 35.2214
L23.0977 35.4028
" />
<path d="M23.0977 35.4028
L23.0977 35.7052
" />
</g></g>
<g style="fill:#A90000; fill-opacity:0.0; 
stroke:#A90000; stroke-width:0.1524; stroke-opacity:1; 
stroke-linecap:round; stroke-linejoin:round;">
<g transform="rotate(-90.000000 22.2562 42.1641)">
<text x="22.2562" y="42.1641"
textLength="2.5460" font-size="1.6933" lengthAdjust="spacingAndGlyphs"
text-anchor="middle" opacity="0">10</text>
</g>
<g class="stroked-text"><desc>10</desc>
<path d="M22.1007 42.4059
L22.1007 43.1316
" />
<path d="M22.1007 42.7688
L20.8307 42.7688
" />
<path d="M20.8307 42.7688
L21.0122 42.8897
" />
<path d="M21.0122 42.8897
L21.1331 43.0107
" />
<path d="M21.1331 43.0107
L21.1936 43.1316
" />
<path d="M20.8307 41.6198
L20.8307 41.4988
" />
<path d="M20.8307 41.4988
L20.8912 41.3779
" />
<path d="M20.8912 41.3779
L20.9517 41.3174
" />
<path d="M20.9517 41.3174
L21.0726 41.2569
" />
<path d="M21.0726 41.2569
L21.3145 41.1964
" />
<path d="M21.3145 41.1964
L21.6169 41.1964
" />
<path d="M21.6169 41.1964
L21.8588 41.2569
" />
<path d="M21.8588 41.2569
L21.9798 41.3174
" />
<path d="M21.9798 41.3174
L22.0403 41.3779
" />
<path d="M22.0403 41.3779
L22.1007 41.4988
" />
<path d="M22.1007 41.4988
L22.1007 41.6198
" />
<path d="M22.1007 41.6198
L22.0403 41.7407
" />
<path d="M22.0403 41.7407
L21.9798 41.8012
" />
<path d="M21.9798 41.8012
L21.8588 41.8617
" />
<path d="M21.8588 41.8617
L21.6169 41.9221
" />
<path d="M21.6169 41.9221
L21.3145 41.9221
" />
<path d="M21.3145 41.9221
L21.0726 41.8617
" />
<path d="M21.0726 41.8617
L20.9517 41.8012
" />
<path d="M20.9517 41.8012
L20.8912 41.7407
" />
<path d="M20.8912 41.7407
L20.8307 41.6198
" />
</g></g>
<g style="fill:#840000; fill-opacity:0.0; 
stroke:#840000; stroke-width:0.1524; stroke-opacity:1; 
stroke-linecap:round; stroke-linejoin:round;">
<path d="M14.8902 32.0041
L9.8102 32.0041
" />
<path d="M14.8902 32.6391
L16.1602 32.0041
L14.8902 31.3691
" />
</g>
<g style="fill:#006464; fill-opacity:0.0; 
stroke:#006464; stroke-width:0.1524; stroke-opacity:1; 
stroke-linecap:round; stroke-linejoin:round;">
<text x="15.9062" y="32.6391"
textLength="3.0903" font-size="1.6933" lengthAdjust="spacingAndGlyphs"
text-anchor="start" opacity="0">Clk</text>
<g class="stroked-text"><desc>Clk</desc>
<path d="M16.9342 32.4707
L16.8738 32.5312
" />
<path d="M16.8738 32.5312
L16.6923 32.5916
" />
<path d="M16.6923 32.5916
L16.5714 32.5916
" />
<path d="M16.5714 32.5916
L16.3900 32.5312
" />
<path d="M16.3900 32.5312
L16.2690 32.4102
" />
<path d="M16.2690 32.4102
L16.2085 32.2892
" />
<path d="M16.2085 32.2892
L16.1481 32.0473
" />
<path d="M16.1481 32.0473
L16.1481 31.8659
" />
<path d="M16.1481 31.8659
L16.2085 31.6240
" />
<path d="M16.2085 31.6240
L16.2690 31.5031
" />
<path d="M16.2690 31.5031
L16.3900 31.3821
" />
<path d="M16.3900 31.3821
L16.5714 31.3216
" />
<path d="M16.5714 31.3216
L16.6923 31.3216
" />
<path d="M16.6923 31.3216
L16.8738 31.3821
" />
<path d="M16.8738 31.3821
L16.9342 31.4426
" />
<path d="M17.6600 32.5916
L17.5390 32.5312
" />
<path d="M17.5390 32.5312
L17.4785 32.4102
" />
<path d="M17.4785 32.4102
L17.4785 31.3216
" />
<path d="M18.1437 32.5916
L18.1437 31.3216
" />
<path d="M18.2647 32.1078
L18.6275 32.5916
" />
<path d="M18.6275 31.7450
L18.1437 32.2288
" />
</g></g>
<g style="fill:#A90000; fill-opacity:0.0; 
stroke:#A90000; stroke-width:0.1524; stroke-opacity:1; 
stroke-linecap:round; stroke-linejoin:round;">
<text x="12.3502" y="31.7501"
textLength="2.5460" font-size="1.6933" lengthAdjust="spacingAndGlyphs"
text-anchor="middle" opacity="0">11</text>
<g class="stroked-text"><desc>11</desc>
<path d="M12.1083 31.5946
L11.3826 31.5946
" />
<path d="M11.7454 31.5946
L11.7454 30.3246
" />
<path d="M11.7454 30.3246
L11.6245 30.5061
" />
<path d="M11.6245 30.5061
L11.5035 30.6270
" />
<path d="M11.5035 30.6270
L11.3826 30.6875
" />
<path d="M13.3178 31.5946
L12.5921 31.5946
" />
<path d="M12.9549 31.5946
L12.9549 30.3246
" />
<path d="M12.9549 30.3246
L12.8340 30.5061
" />
<path d="M12.8340 30.5061
L12.7130 30.6270
" />
<path d="M12.7130 30.6270
L12.5921 30.6875
" />
</g></g>
<g style="fill:#840000; fill-opacity:0.0; 
stroke:#840000; stroke-width:0.1524; stroke-opacity:1; 
stroke-linecap:round; stroke-linejoin:round;">
<path d="M30.1302 34.5441
L35.2102 34.5441
" />
</g>
<g style="fill:#006464; fill-opacity:0.0; 
stroke:#006464; stroke-width:0.1524; stroke-opacity:1; 
stroke-linecap:round; stroke-linejoin:round;">
<text x="29.1142" y="35.1791"
textLength="2.6065" font-size="1.6933" lengthAdjust="spacingAndGlyphs"
text-anchor="end" opacity="0">Qh</text>
<g class="stroked-text"><desc>Qh</desc>
<path d="M27.7837 35.2526
L27.6627 35.1921
" />
<path d="M27.6627 35.1921
L27.5418 35.0712
" />
<path d="M27.5418 35.0712
L27.3604 34.8897
" />
<path d="M27.3604 34.8897
L27.2394 34.8292
" />
<path d="M27.2394 34.8292
L27.1185 34.8292
" />
<path d="M27.1789 35.1316
L27.0580 35.0712
" />
<path d="M27.0580 35.0712
L26.9370 34.9502
" />
<path d="M26.9370 34.9502
L26.8766 34.7083
" />
<path d="M26.8766 34.7083
L26.8766 34.2850
" />
<path d="M26.8766 34.2850
L26.9370 34.0431
" />
<path d="M26.9370 34.0431
L27.0580 33.9221
" />
<path d="M27.0580 33.9221
L27.1789 33.8616
" />
<path d="M27.1789 33.8616
L27.4208 33.8616
" />
<path d="M27.4208 33.8616
L27.5418 33.9221
" />
<path d="M27.5418 33.9221
L27.6627 34.0431
" />
<path d="M27.6627 34.0431
L27.7232 34.2850
" />
<path d="M27.7232 34.2850
L27.7232 34.7083
" />
<path d="M27.7232 34.7083
L27.6627 34.9502
" />
<path d="M27.6627 34.9502
L27.5418 35.0712
" />
<path d="M27.5418 35.0712
L27.4208 35.1316
" />
<path d="M27.4208 35.1316
L27.1789 35.1316
" />
<path d="M28.2675 35.1316
L28.2675 33.8616
" />
<path d="M28.8118 35.1316
L28.8118 34.4664
" />
<path d="M28.8118 34.4664
L28.7513 34.3454
" />
<path d="M28.7513 34.3454
L28.6304 34.2850
" />
<path d="M28.6304 34.2850
L28.4490 34.2850
" />
<path d="M28.4490 34.2850
L28.3280 34.3454
" />
<path d="M28.3280 34.3454
L28.2675 34.4059
" />
</g></g>
<g style="fill:#A90000; fill-opacity:0.0; 
stroke:#A90000; stroke-width:0.1524; stroke-opacity:1; 
stroke-linecap:round; stroke-linejoin:round;">
<text x="32.6702" y="34.2901"
textLength="2.5460" font-size="1.6933" lengthAdjust="spacingAndGlyphs"
text-anchor="middle" opacity="0">12</text>
<g class="stroked-text"><desc>12</desc>
<path d="M32.4283 34.1346
L31.7026 34.1346
" />
<path d="M32.0654 34.1346
L32.0654 32.8646
" />
<path d="M32.0654 32.8646
L31.9445 33.0461
" />
<path d="M31.9445 33.0461
L31.8235 33.1670
" />
<path d="M31.8235 33.1670
L31.7026 33.2275
" />
<path d="M32.9121 32.9856
L32.9725 32.9251
" />
<path d="M32.9725 32.9251
L33.0935 32.8646
" />
<path d="M33.0935 32.8646
L33.3959 32.8646
" />
<path d="M33.3959 32.8646
L33.5168 32.9251
" />
<path d="M33.5168 32.9251
L33.5773 32.9856
" />
<path d="M33.5773 32.9856
L33.6378 33.1065
" />
<path d="M33.6378 33.1065
L33.6378 33.2275
" />
<path d="M33.6378 33.2275
L33.5773 33.4089
" />
<path d="M33.5773 33.4089
L32.8516 34.1346
" />
<path d="M32.8516 34.1346
L33.6378 34.1346
" />
</g></g>
<g style="fill:#840000; fill-opacity:0.0; 
stroke:#840000; stroke-width:0.1524; stroke-opacity:1; 
stroke-linecap:round; stroke-linejoin:round;">
<path d="M30.1302 29.4641
L35.2102 29.4641
" />
</g>
<g style="fill:#006464; fill-opacity:0.0; 
stroke:#006464; stroke-width:0.1524; stroke-opacity:1; 
stroke-linecap:round; stroke-linejoin:round;">
<text x="29.1142" y="30.0991"
textLength="5.2675" font-size="1.6933" lengthAdjust="spacingAndGlyphs"
text-anchor="end" opacity="0">H/Qh</text>
<g class="stroked-text"><desc>H/Qh</desc>
<path d="M24.2760 30.0516
L24.2760 28.7816
" />
<path d="M24.2760 29.3864
L25.0017 29.3864
" />
<path d="M25.0017 30.0516
L25.0017 28.7816
" />
<path d="M26.5137 28.7212
L25.4251 30.3540
" />
<path d="M27.7837 30.1726
L27.6627 30.1121
" />
<path d="M27.6627 30.1121
L27.5418 29.9912
" />
<path d="M27.5418 29.9912
L27.3604 29.8097
" />
<path d="M27.3604 29.8097
L27.2394 29.7492
" />
<path d="M27.2394 29.7492
L27.1185 29.7492
" />
<path d="M27.1789 30.0516
L27.0580 29.9912
" />
<path d="M27.0580 29.9912
L26.9370 29.8702
" />
<path d="M26.9370 29.8702
L26.8766 29.6283
" />
<path d="M26.8766 29.6283
L26.8766 29.2050
" />
<path d="M26.8766 29.2050
L26.9370 28.9631
" />
<path d="M26.9370 28.9631
L27.0580 28.8421
" />
<path d="M27.0580 28.8421
L27.1789 28.7816
" />
<path d="M27.1789 28.7816
L27.4208 28.7816
" />
<path d="M27.4208 28.7816
L27.5418 28.8421
" />
<path d="M27.5418 28.8421
L27.6627 28.9631
" />
<path d="M27.6627 28.9631
L27.7232 29.2050
" />
<path d="M27.7232 29.2050
L27.7232 29.6283
" />
<path d="M27.7232 29.6283
L27.6627 29.8702
" />
<path d="M27.6627 29.8702
L27.5418 29.9912
" />
<path d="M27.5418 29.9912
L27.4208 30.0516
" />
<path d="M27.4208 30.0516
L27.1789 30.0516
" />
<path d="M28.2675 30.0516
L28.2675 28.7816
" />
<path d="M28.8118 30.0516
L28.8118 29.3864
" />
<path d="M28.8118 29.3864
L28.7513 29.2654
" />
<path d="M28.7513 29.2654
L28.6304 29.2050
" />
<path d="M28.6304 29.2050
L28.4490 29.2050
" />
<path d="M28.4490 29.2050
L28.3280 29.2654
" />
<path d="M28.3280 29.2654
L28.2675 29.3259
" />
</g></g>
<g style="fill:#A90000; fill-opacity:0.0; 
stroke:#A90000; stroke-width:0.1524; stroke-opacity:1; 
stroke-linecap:round; stroke-linejoin:round;">
<text x="32.6702" y="29.2101"
textLength="2.5460" font-size="1.6933" lengthAdjust="spacingAndGlyphs"
text-anchor="middle" opacity="0">13</text>
<g class="stroked-text"><desc>13</desc>
<path d="M32.4283 29.0546
L31.7026 29.0546
" />
<path d="M32.0654 29.0546
L32.0654 27.7846
" />
<path d="M32.0654 27.7846
L31.9445 27.9661
" />
<path d="M31.9445 27.9661
L31.8235 28.0870
" />
<path d="M31.8235 28.0870
L31.7026 28.1475
" />
<path d="M32.8516 27.7846
L33.6378 27.7846
" />
<path d="M33.6378 27.7846
L33.2144 28.2684
" />
<path d="M33.2144 28.2684
L33.3959 28.2684
" />
<path d="M33.3959 28.2684
L33.5168 28.3289
" />
<path d="M33.5168 28.3289
L33.5773 28.3894
" />
<path d="M33.5773 28.3894
L33.6378 28.5103
" />
<path d="M33.6378 28.5103
L33.6378 28.8127
" />
<path d="M33.6378 28.8127
L33.5773 28.9337
" />
<path d="M33.5773 28.9337
L33.5168 28.9942
" />
<path d="M33.5168 28.9942
L33.3959 29.0546
" />
<path d="M33.3959 29.0546
L33.0330 29.0546
" />
<path d="M33.0330 29.0546
L32.9121 28.9942
" />
<path d="M32.9121 28.9942
L32.8516 28.9337
" />
</g></g>
<g style="fill:#840000; fill-opacity:0.0; 
stroke:#840000; stroke-width:0.1524; stroke-opacity:1; 
stroke-linecap:round; stroke-linejoin:round;">
<path d="M30.1302 24.3841
L35.2102 24.3841
" />
</g>
<g style="fill:#006464; fill-opacity:0.0; 
stroke:#006464; stroke-width:0.1524; stroke-opacity:1; 
stroke-linecap:round; stroke-linejoin:round;">
<text x="29.1142" y="25.0191"
textLength="4.6023" font-size="1.6933" lengthAdjust="spacingAndGlyphs"
text-anchor="end" opacity="0">F/Qf</text>
<g class="stroked-text"><desc>F/Qf</desc>
<path d="M25.3646 24.3064
L24.9412 24.3064
" />
<path d="M24.9412 24.9716
L24.9412 23.7016
" />
<path d="M24.9412 23.7016
L25.5460 23.7016
" />
<path d="M26.9370 23.6412
L25.8484 25.2740
" />
<path d="M28.2070 25.0926
L28.0860 25.0321
" />
<path d="M28.0860 25.0321
L27.9651 24.9112
" />
<path d="M27.9651 24.9112
L27.7837 24.7297
" />
<path d="M27.7837 24.7297
L27.6627 24.6692
" />
<path d="M27.6627 24.6692
L27.5418 24.6692
" />
<path d="M27.6022 24.9716
L27.4813 24.9112
" />
<path d="M27.4813 24.9112
L27.3603 24.7902
" />
<path d="M27.3603 24.7902
L27.2999 24.5483
" />
<path d="M27.2999 24.5483
L27.2999 24.1250
" />
<path d="M27.2999 24.1250
L27.3603 23.8831
" />
<path d="M27.3603 23.8831
L27.4813 23.7621
" />
<path d="M27.4813 23.7621
L27.6022 23.7016
" />
<path d="M27.6022 23.7016
L27.8441 23.7016
" />
<path d="M27.8441 23.7016
L27.9651 23.7621
" />
<path d="M27.9651 23.7621
L28.0860 23.8831
" />
<path d="M28.0860 23.8831
L28.1465 24.1250
" />
<path d="M28.1465 24.1250
L28.1465 24.5483
" />
<path d="M28.1465 24.5483
L28.0860 24.7902
" />
<path d="M28.0860 24.7902
L27.9651 24.9112
" />
<path d="M27.9651 24.9112
L27.8441 24.9716
" />
<path d="M27.8441 24.9716
L27.6022 24.9716
" />
<path d="M28.5094 24.1250
L28.9932 24.1250
" />
<path d="M28.6908 24.9716
L28.6908 23.8831
" />
<path d="M28.6908 23.8831
L28.7513 23.7621
" />
<path d="M28.7513 23.7621
L28.8723 23.7016
" />
<path d="M28.8723 23.7016
L28.9932 23.7016
" />
</g></g>
<g style="fill:#A90000; fill-opacity:0.0; 
stroke:#A90000; stroke-width:0.1524; stroke-opacity:1; 
stroke-linecap:round; stroke-linejoin:round;">
<text x="32.6702" y="24.1301"
textLength="2.5460" font-size="1.6933" lengthAdjust="spacingAndGlyphs"
text-anchor="middle" opacity="0">14</text>
<g class="stroked-text"><desc>14</desc>
<path d="M32.4283 23.9746
L31.7026 23.9746
" />
<path d="M32.0654 23.9746
L32.0654 22.7046
" />
<path d="M32.0654 22.7046
L31.9445 22.8861
" />
<path d="M31.9445 22.8861
L31.8235 23.0070
" />
<path d="M31.8235 23.0070
L31.7026 23.0675
" />
<path d="M33.5168 23.1280
L33.5168 23.9746
" />
<path d="M33.2144 22.6442
L32.9121 23.5513
" />
<path d="M32.9121 23.5513
L33.6982 23.5513
" />
</g></g>
<g style="fill:#840000; fill-opacity:0.0; 
stroke:#840000; stroke-width:0.1524; stroke-opacity:1; 
stroke-linecap:round; stroke-linejoin:round;">
<path d="M30.1302 19.3041
L35.2102 19.3041
" />
</g>
<g style="fill:#006464; fill-opacity:0.0; 
stroke:#006464; stroke-width:0.1524; stroke-opacity:1; 
stroke-linecap:round; stroke-linejoin:round;">
<text x="29.1142" y="19.9391"
textLength="5.2070" font-size="1.6933" lengthAdjust="spacingAndGlyphs"
text-anchor="end" opacity="0">D/Qd</text>
<g class="stroked-text"><desc>D/Qd</desc>
<path d="M24.3365 19.8916
L24.3365 18.6216
" />
<path d="M24.3365 18.6216
L24.6389 18.6216
" />
<path d="M24.6389 18.6216
L24.8203 18.6821
" />
<path d="M24.8203 18.6821
L24.9413 18.8031
" />
<path d="M24.9413 18.8031
L25.0018 18.9240
" />
<path d="M25.0018 18.9240
L25.0622 19.1659
" />
<path d="M25.0622 19.1659
L25.0622 19.3473
" />
<path d="M25.0622 19.3473
L25.0018 19.5892
" />
<path d="M25.0018 19.5892
L24.9413 19.7102
" />
<path d="M24.9413 19.7102
L24.8203 19.8312
" />
<path d="M24.8203 19.8312
L24.6389 19.8916
" />
<path d="M24.6389 19.8916
L24.3365 19.8916
" />
<path d="M26.5137 18.5612
L25.4251 20.1940
" />
<path d="M27.7837 20.0126
L27.6627 19.9521
" />
<path d="M27.6627 19.9521
L27.5418 19.8312
" />
<path d="M27.5418 19.8312
L27.3604 19.6497
" />
<path d="M27.3604 19.6497
L27.2394 19.5892
" />
<path d="M27.2394 19.5892
L27.1185 19.5892
" />
<path d="M27.1789 19.8916
L27.0580 19.8312
" />
<path d="M27.0580 19.8312
L26.9370 19.7102
" />
<path d="M26.9370 19.7102
L26.8766 19.4683
" />
<path d="M26.8766 19.4683
L26.8766 19.0450
" />
<path d="M26.8766 19.0450
L26.9370 18.8031
" />
<path d="M26.9370 18.8031
L27.0580 18.6821
" />
<path d="M27.0580 18.6821
L27.1789 18.6216
" />
<path d="M27.1789 18.6216
L27.4208 18.6216
" />
<path d="M27.4208 18.6216
L27.5418 18.6821
" />
<path d="M27.5418 18.6821
L27.6627 18.8031
" />
<path d="M27.6627 18.8031
L27.7232 19.0450
" />
<path d="M27.7232 19.0450
L27.7232 19.4683
" />
<path d="M27.7232 19.4683
L27.6627 19.7102
" />
<path d="M27.6627 19.7102
L27.5418 19.8312
" />
<path d="M27.5418 19.8312
L27.4208 19.8916
" />
<path d="M27.4208 19.8916
L27.1789 19.8916
" />
<path d="M28.8118 19.8916
L28.8118 18.6216
" />
<path d="M28.8118 19.8312
L28.6909 19.8916
" />
<path d="M28.6909 19.8916
L28.4490 19.8916
" />
<path d="M28.4490 19.8916
L28.3280 19.8312
" />
<path d="M28.3280 19.8312
L28.2675 19.7707
" />
<path d="M28.2675 19.7707
L28.2071 19.6497
" />
<path d="M28.2071 19.6497
L28.2071 19.2869
" />
<path d="M28.2071 19.2869
L28.2675 19.1659
" />
<path d="M28.2675 19.1659
L28.3280 19.1054
" />
<path d="M28.3280 19.1054
L28.4490 19.0450
" />
<path d="M28.4490 19.0450
L28.6909 19.0450
" />
<path d="M28.6909 19.0450
L28.8118 19.1054
" />
</g></g>
<g style="fill:#A90000; fill-opacity:0.0; 
stroke:#A90000; stroke-width:0.1524; stroke-opacity:1; 
stroke-linecap:round; stroke-linejoin:round;">
<text x="32.6702" y="19.0501"
textLength="2.5460" font-size="1.6933" lengthAdjust="spacingAndGlyphs"
text-anchor="middle" opacity="0">15</text>
<g class="stroked-text"><desc>15</desc>
<path d="M32.4283 18.8946
L31.7026 18.8946
" />
<path d="M32.0654 18.8946
L32.0654 17.6246
" />
<path d="M32.0654 17.6246
L31.9445 17.8061
" />
<path d="M31.9445 17.8061
L31.8235 17.9270
" />
<path d="M31.8235 17.9270
L31.7026 17.9875
" />
<path d="M33.5773 17.6246
L32.9725 17.6246
" />
<path d="M32.9725 17.6246
L32.9121 18.2294
" />
<path d="M32.9121 18.2294
L32.9725 18.1689
" />
<path d="M32.9725 18.1689
L33.0935 18.1084
" />
<path d="M33.0935 18.1084
L33.3959 18.1084
" />
<path d="M33.3959 18.1084
L33.5168 18.1689
" />
<path d="M33.5168 18.1689
L33.5773 18.2294
" />
<path d="M33.5773 18.2294
L33.6378 18.3503
" />
<path d="M33.6378 18.3503
L33.6378 18.6527
" />
<path d="M33.6378 18.6527
L33.5773 18.7737
" />
<path d="M33.5773 18.7737
L33.5168 18.8342
" />
<path d="M33.5168 18.8342
L33.3959 18.8946
" />
<path d="M33.3959 18.8946
L33.0935 18.8946
" />
<path d="M33.0935 18.8946
L32.9725 18.8342
" />
<path d="M32.9725 18.8342
L32.9121 18.7737
" />
</g></g>
<g style="fill:#840000; fill-opacity:0.0; 
stroke:#840000; stroke-width:0.1524; stroke-opacity:1; 
stroke-linecap:round; stroke-linejoin:round;">
<path d="M30.1302 14.2241
L35.2102 14.2241
" />
</g>
<g style="fill:#006464; fill-opacity:0.0; 
stroke:#006464; stroke-width:0.1524; stroke-opacity:1; 
stroke-linecap:round; stroke-linejoin:round;">
<text x="29.1142" y="14.8591"
textLength="5.2070" font-size="1.6933" lengthAdjust="spacingAndGlyphs"
text-anchor="end" opacity="0">B/Qb</text>
<g class="stroked-text"><desc>B/Qb</desc>
<path d="M24.7599 14.1464
L24.9413 14.2069
" />
<path d="M24.9413 14.2069
L25.0018 14.2673
" />
<path d="M25.0018 14.2673
L25.0622 14.3883
" />
<path d="M25.0622 14.3883
L25.0622 14.5697
" />
<path d="M25.0622 14.5697
L25.0018 14.6907
" />
<path d="M25.0018 14.6907
L24.9413 14.7512
" />
<path d="M24.9413 14.7512
L24.8203 14.8116
" />
<path d="M24.8203 14.8116
L24.3365 14.8116
" />
<path d="M24.3365 14.8116
L24.3365 13.5416
" />
<path d="M24.3365 13.5416
L24.7599 13.5416
" />
<path d="M24.7599 13.5416
L24.8808 13.6021
" />
<path d="M24.8808 13.6021
L24.9413 13.6626
" />
<path d="M24.9413 13.6626
L25.0018 13.7835
" />
<path d="M25.0018 13.7835
L25.0018 13.9045
" />
<path d="M25.0018 13.9045
L24.9413 14.0254
" />
<path d="M24.9413 14.0254
L24.8808 14.0859
" />
<path d="M24.8808 14.0859
L24.7599 14.1464
" />
<path d="M24.7599 14.1464
L24.3365 14.1464
" />
<path d="M26.5137 13.4812
L25.4251 15.1140
" />
<path d="M27.7837 14.9326
L27.6627 14.8721
" />
<path d="M27.6627 14.8721
L27.5418 14.7512
" />
<path d="M27.5418 14.7512
L27.3604 14.5697
" />
<path d="M27.3604 14.5697
L27.2394 14.5092
" />
<path d="M27.2394 14.5092
L27.1185 14.5092
" />
<path d="M27.1789 14.8116
L27.0580 14.7512
" />
<path d="M27.0580 14.7512
L26.9370 14.6302
" />
<path d="M26.9370 14.6302
L26.8766 14.3883
" />
<path d="M26.8766 14.3883
L26.8766 13.9650
" />
<path d="M26.8766 13.9650
L26.9370 13.7231
" />
<path d="M26.9370 13.7231
L27.0580 13.6021
" />
<path d="M27.0580 13.6021
L27.1789 13.5416
" />
<path d="M27.1789 13.5416
L27.4208 13.5416
" />
<path d="M27.4208 13.5416
L27.5418 13.6021
" />
<path d="M27.5418 13.6021
L27.6627 13.7231
" />
<path d="M27.6627 13.7231
L27.7232 13.9650
" />
<path d="M27.7232 13.9650
L27.7232 14.3883
" />
<path d="M27.7232 14.3883
L27.6627 14.6302
" />
<path d="M27.6627 14.6302
L27.5418 14.7512
" />
<path d="M27.5418 14.7512
L27.4208 14.8116
" />
<path d="M27.4208 14.8116
L27.1789 14.8116
" />
<path d="M28.2675 14.8116
L28.2675 13.5416
" />
<path d="M28.2675 14.0254
L28.3885 13.9650
" />
<path d="M28.3885 13.9650
L28.6304 13.9650
" />
<path d="M28.6304 13.9650
L28.7513 14.0254
" />
<path d="M28.7513 14.0254
L28.8118 14.0859
" />
<path d="M28.8118 14.0859
L28.8723 14.2069
" />
<path d="M28.8723 14.2069
L28.8723 14.5697
" />
<path d="M28.8723 14.5697
L28.8118 14.6907
" />
<path d="M28.8118 14.6907
L28.7513 14.7512
" />
<path d="M28.7513 14.7512
L28.6304 14.8116
" />
<path d="M28.6304 14.8116
L28.3885 14.8116
" />
<path d="M28.3885 14.8116
L28.2675 14.7512
" />
</g></g>
<g style="fill:#A90000; fill-opacity:0.0; 
stroke:#A90000; stroke-width:0.1524; stroke-opacity:1; 
stroke-linecap:round; stroke-linejoin:round;">
<text x="32.6702" y="13.9701"
textLength="2.5460" font-size="1.6933" lengthAdjust="spacingAndGlyphs"
text-anchor="middle" opacity="0">16</text>
<g class="stroked-text"><desc>16</desc>
<path d="M32.4283 13.8146
L31.7026 13.8146
" />
<path d="M32.0654 13.8146
L32.0654 12.5446
" />
<path d="M32.0654 12.5446
L31.9445 12.7261
" />
<path d="M31.9445 12.7261
L31.8235 12.8470
" />
<path d="M31.8235 12.8470
L31.7026 12.9075
" />
<path d="M33.5168 12.5446
L33.2749 12.5446
" />
<path d="M33.2749 12.5446
L33.1540 12.6051
" />
<path d="M33.1540 12.6051
L33.0935 12.6656
" />
<path d="M33.0935 12.6656
L32.9725 12.8470
" />
<path d="M32.9725 12.8470
L32.9121 13.0889
" />
<path d="M32.9121 13.0889
L32.9121 13.5727
" />
<path d="M32.9121 13.5727
L32.9725 13.6937
" />
<path d="M32.9725 13.6937
L33.0330 13.7542
" />
<path d="M33.0330 13.7542
L33.1540 13.8146
" />
<path d="M33.1540 13.8146
L33.3959 13.8146
" />
<path d="M33.3959 13.8146
L33.5168 13.7542
" />
<path d="M33.5168 13.7542
L33.5773 13.6937
" />
<path d="M33.5773 13.6937
L33.6378 13.5727
" />
<path d="M33.6378 13.5727
L33.6378 13.2703
" />
<path d="M33.6378 13.2703
L33.5773 13.1494
" />
<path d="M33.5773 13.1494
L33.5168 13.0889
" />
<path d="M33.5168 13.0889
L33.3959 13.0284
" />
<path d="M33.3959 13.0284
L33.1540 13.0284
" />
<path d="M33.1540 13.0284
L33.0330 13.0889
" />
<path d="M33.0330 13.0889
L32.9725 13.1494
" />
<path d="M32.9725 13.1494
L32.9121 13.2703
" />
</g></g>
<g style="fill:#840000; fill-opacity:0.0; 
stroke:#840000; stroke-width:0.1524; stroke-opacity:1; 
stroke-linecap:round; stroke-linejoin:round;">
<path d="M14.8902 14.2241
L9.8102 14.2241
" />
</g>
<g style="fill:#006464; fill-opacity:0.0; 
stroke:#006464; stroke-width:0.1524; stroke-opacity:1; 
stroke-linecap:round; stroke-linejoin:round;">
<text x="15.9062" y="14.8591"
textLength="2.6065" font-size="1.6933" lengthAdjust="spacingAndGlyphs"
text-anchor="start" opacity="0">D1</text>
<g class="stroked-text"><desc>D1</desc>
<path d="M16.2085 14.8116
L16.2085 13.5416
" />
<path d="M16.2085 13.5416
L16.5109 13.5416
" />
<path d="M16.5109 13.5416
L16.6923 13.6021
" />
<path d="M16.6923 13.6021
L16.8133 13.7231
" />
<path d="M16.8133 13.7231
L16.8738 13.8440
" />
<path d="M16.8738 13.8440
L16.9342 14.0859
" />
<path d="M16.9342 14.0859
L16.9342 14.2673
" />
<path d="M16.9342 14.2673
L16.8738 14.5092
" />
<path d="M16.8738 14.5092
L16.8133 14.6302
" />
<path d="M16.8133 14.6302
L16.6923 14.7512
" />
<path d="M16.6923 14.7512
L16.5109 14.8116
" />
<path d="M16.5109 14.8116
L16.2085 14.8116
" />
<path d="M18.1438 14.8116
L17.4181 14.8116
" />
<path d="M17.7809 14.8116
L17.7809 13.5416
" />
<path d="M17.7809 13.5416
L17.6600 13.7231
" />
<path d="M17.6600 13.7231
L17.5390 13.8440
" />
<path d="M17.5390 13.8440
L17.4181 13.9045
" />
</g></g>
<g style="fill:#A90000; fill-opacity:0.0; 
stroke:#A90000; stroke-width:0.1524; stroke-opacity:1; 
stroke-linecap:round; stroke-linejoin:round;">
<text x="12.3502" y="13.9701"
textLength="2.5460" font-size="1.6933" lengthAdjust="spacingAndGlyphs"
text-anchor="middle" opacity="0">17</text>
<g class="stroked-text"><desc>17</desc>
<path d="M12.1083 13.8146
L11.3826 13.8146
" />
<path d="M11.7454 13.8146
L11.7454 12.5446
" />
<path d="M11.7454 12.5446
L11.6245 12.7261
" />
<path d="M11.6245 12.7261
L11.5035 12.8470
" />
<path d="M11.5035 12.8470
L11.3826 12.9075
" />
<path d="M12.5316 12.5446
L13.3782 12.5446
" />
<path d="M13.3782 12.5446
L12.8340 13.8146
" />
</g></g>
<g style="fill:#840000; fill-opacity:0.0; 
stroke:#840000; stroke-width:0.1524; stroke-opacity:1; 
stroke-linecap:round; stroke-linejoin:round;">
<circle cx="14.2552" cy="19.3041" r="0.6350" /> 
<path d="M13.6202 19.3041
L9.8102 19.3041
" />
</g>
<g style="fill:#006464; fill-opacity:0.0; 
stroke:#006464; stroke-width:0.1524; stroke-opacity:1; 
stroke-linecap:round; stroke-linejoin:round;">
<text x="15.9062" y="19.9391"
textLength="2.4855" font-size="1.6933" lengthAdjust="spacingAndGlyphs"
text-anchor="start" opacity="0">SE</text>
<g class="stroked-text"><desc>SE</desc>
<path d="M16.1481 19.8312
L16.3295 19.8916
" />
<path d="M16.3295 19.8916
L16.6319 19.8916
" />
<path d="M16.6319 19.8916
L16.7528 19.8312
" />
<path d="M16.7528 19.8312
L16.8133 19.7707
" />
<path d="M16.8133 19.7707
L16.8738 19.6497
" />
<path d="M16.8738 19.6497
L16.8738 19.5288
" />
<path d="M16.8738 19.5288
L16.8133 19.4078
" />
<path d="M16.8133 19.4078
L16.7528 19.3473
" />
<path d="M16.7528 19.3473
L16.6319 19.2869
" />
<path d="M16.6319 19.2869
L16.3900 19.2264
" />
<path d="M16.3900 19.2264
L16.2690 19.1659
" />
<path d="M16.2690 19.1659
L16.2085 19.1054
" />
<path d="M16.2085 19.1054
L16.1481 18.9845
" />
<path d="M16.1481 18.9845
L16.1481 18.8635
" />
<path d="M16.1481 18.8635
L16.2085 18.7426
" />
<path d="M16.2085 18.7426
L16.2690 18.6821
" />
<path d="M16.2690 18.6821
L16.3900 18.6216
" />
<path d="M16.3900 18.6216
L16.6923 18.6216
" />
<path d="M16.6923 18.6216
L16.8738 18.6821
" />
<path d="M17.4180 19.2264
L17.8414 19.2264
" />
<path d="M18.0228 19.8916
L17.4180 19.8916
" />
<path d="M17.4180 19.8916
L17.4180 18.6216
" />
<path d="M17.4180 18.6216
L18.0228 18.6216
" />
</g></g>
<g style="fill:#A90000; fill-opacity:0.0; 
stroke:#A90000; stroke-width:0.1524; stroke-opacity:1; 
stroke-linecap:round; stroke-linejoin:round;">
<text x="12.3502" y="19.0501"
textLength="2.5460" font-size="1.6933" lengthAdjust="spacingAndGlyphs"
text-anchor="middle" opacity="0">18</text>
<g class="stroked-text"><desc>18</desc>
<path d="M12.1083 18.8946
L11.3826 18.8946
" />
<path d="M11.7454 18.8946
L11.7454 17.6246
" />
<path d="M11.7454 17.6246
L11.6245 17.8061
" />
<path d="M11.6245 17.8061
L11.5035 17.9270
" />
<path d="M11.5035 17.9270
L11.3826 17.9875
" />
<path d="M12.8340 18.1689
L12.7130 18.1084
" />
<path d="M12.7130 18.1084
L12.6525 18.0480
" />
<path d="M12.6525 18.0480
L12.5921 17.9270
" />
<path d="M12.5921 17.9270
L12.5921 17.8665
" />
<path d="M12.5921 17.8665
L12.6525 17.7456
" />
<path d="M12.6525 17.7456
L12.7130 17.6851
" />
<path d="M12.7130 17.6851
L12.8340 17.6246
" />
<path d="M12.8340 17.6246
L13.0759 17.6246
" />
<path d="M13.0759 17.6246
L13.1968 17.6851
" />
<path d="M13.1968 17.6851
L13.2573 17.7456
" />
<path d="M13.2573 17.7456
L13.3178 17.8665
" />
<path d="M13.3178 17.8665
L13.3178 17.9270
" />
<path d="M13.3178 17.9270
L13.2573 18.0480
" />
<path d="M13.2573 18.0480
L13.1968 18.1084
" />
<path d="M13.1968 18.1084
L13.0759 18.1689
" />
<path d="M13.0759 18.1689
L12.8340 18.1689
" />
<path d="M12.8340 18.1689
L12.7130 18.2294
" />
<path d="M12.7130 18.2294
L12.6525 18.2899
" />
<path d="M12.6525 18.2899
L12.5921 18.4108
" />
<path d="M12.5921 18.4108
L12.5921 18.6527
" />
<path d="M12.5921 18.6527
L12.6525 18.7737
" />
<path d="M12.6525 18.7737
L12.7130 18.8342
" />
<path d="M12.7130 18.8342
L12.8340 18.8946
" />
<path d="M12.8340 18.8946
L13.0759 18.8946
" />
<path d="M13.0759 18.8946
L13.1968 18.8342
" />
<path d="M13.1968 18.8342
L13.2573 18.7737
" />
<path d="M13.2573 18.7737
L13.3178 18.6527
" />
<path d="M13.3178 18.6527
L13.3178 18.4108
" />
<path d="M13.3178 18.4108
L13.2573 18.2899
" />
<path d="M13.2573 18.2899
L13.1968 18.2294
" />
<path d="M13.1968 18.2294
L13.0759 18.1689
" />
</g></g>
<g style="fill:#840000; fill-opacity:0.0; 
stroke:#840000; stroke-width:0.1524; stroke-opacity:1; 
stroke-linecap:round; stroke-linejoin:round;">
<path d="M14.8902 16.7641
L9.8102 16.7641
" />
</g>
<g style="fill:#006464; fill-opacity:0.0; 
stroke:#006464; stroke-width:0.1524; stroke-opacity:1; 
stroke-linecap:round; stroke-linejoin:round;">
<text x="15.9062" y="17.3991"
textLength="2.6065" font-size="1.6933" lengthAdjust="spacingAndGlyphs"
text-anchor="start" opacity="0">DS</text>
<g class="stroked-text"><desc>DS</desc>
<path d="M16.2085 17.3516
L16.2085 16.0816
" />
<path d="M16.2085 16.0816
L16.5109 16.0816
" />
<path d="M16.5109 16.0816
L16.6923 16.1421
" />
<path d="M16.6923 16.1421
L16.8133 16.2631
" />
<path d="M16.8133 16.2631
L16.8738 16.3840
" />
<path d="M16.8738 16.3840
L16.9342 16.6259
" />
<path d="M16.9342 16.6259
L16.9342 16.8073
" />
<path d="M16.9342 16.8073
L16.8738 17.0492
" />
<path d="M16.8738 17.0492
L16.8133 17.1702
" />
<path d="M16.8133 17.1702
L16.6923 17.2912
" />
<path d="M16.6923 17.2912
L16.5109 17.3516
" />
<path d="M16.5109 17.3516
L16.2085 17.3516
" />
<path d="M17.4181 17.2912
L17.5995 17.3516
" />
<path d="M17.5995 17.3516
L17.9019 17.3516
" />
<path d="M17.9019 17.3516
L18.0228 17.2912
" />
<path d="M18.0228 17.2912
L18.0833 17.2307
" />
<path d="M18.0833 17.2307
L18.1438 17.1097
" />
<path d="M18.1438 17.1097
L18.1438 16.9888
" />
<path d="M18.1438 16.9888
L18.0833 16.8678
" />
<path d="M18.0833 16.8678
L18.0228 16.8073
" />
<path d="M18.0228 16.8073
L17.9019 16.7469
" />
<path d="M17.9019 16.7469
L17.6600 16.6864
" />
<path d="M17.6600 16.6864
L17.5390 16.6259
" />
<path d="M17.5390 16.6259
L17.4785 16.5654
" />
<path d="M17.4785 16.5654
L17.4181 16.4445
" />
<path d="M17.4181 16.4445
L17.4181 16.3235
" />
<path d="M17.4181 16.3235
L17.4785 16.2026
" />
<path d="M17.4785 16.2026
L17.5390 16.1421
" />
<path d="M17.5390 16.1421
L17.6600 16.0816
" />
<path d="M17.6600 16.0816
L17.9623 16.0816
" />
<path d="M17.9623 16.0816
L18.1438 16.1421
" />
</g></g>
<g style="fill:#A90000; fill-opacity:0.0; 
stroke:#A90000; stroke-width:0.1524; stroke-opacity:1; 
stroke-linecap:round; stroke-linejoin:round;">
<text x="12.3502" y="16.5101"
textLength="2.5460" font-size="1.6933" lengthAdjust="spacingAndGlyphs"
text-anchor="middle" opacity="0">19</text>
<g class="stroked-text"><desc>19</desc>
<path d="M12.1083 16.3546
L11.3826 16.3546
" />
<path d="M11.7454 16.3546
L11.7454 15.0846
" />
<path d="M11.7454 15.0846
L11.6245 15.2661
" />
<path d="M11.6245 15.2661
L11.5035 15.3870
" />
<path d="M11.5035 15.3870
L11.3826 15.4475
" />
<path d="M12.7130 16.3546
L12.9549 16.3546
" />
<path d="M12.9549 16.3546
L13.0759 16.2942
" />
<path d="M13.0759 16.2942
L13.1363 16.2337
" />
<path d="M13.1363 16.2337
L13.2573 16.0522
" />
<path d="M13.2573 16.0522
L13.3178 15.8103
" />
<path d="M13.3178 15.8103
L13.3178 15.3265
" />
<path d="M13.3178 15.3265
L13.2573 15.2056
" />
<path d="M13.2573 15.2056
L13.1968 15.1451
" />
<path d="M13.1968 15.1451
L13.0759 15.0846
" />
<path d="M13.0759 15.0846
L12.8340 15.0846
" />
<path d="M12.8340 15.0846
L12.7130 15.1451
" />
<path d="M12.7130 15.1451
L12.6525 15.2056
" />
<path d="M12.6525 15.2056
L12.5921 15.3265
" />
<path d="M12.5921 15.3265
L12.5921 15.6289
" />
<path d="M12.5921 15.6289
L12.6525 15.7499
" />
<path d="M12.6525 15.7499
L12.7130 15.8103
" />
<path d="M12.7130 15.8103
L12.8340 15.8708
" />
<path d="M12.8340 15.8708
L13.0759 15.8708
" />
<path d="M13.0759 15.8708
L13.1968 15.8103
" />
<path d="M13.1968 15.8103
L13.2573 15.7499
" />
<path d="M13.2573 15.7499
L13.3178 15.6289
" />
</g></g>
<g style="fill:#840000; fill-opacity:0.0; 
stroke:#840000; stroke-width:0.1524; stroke-opacity:1; 
stroke-linecap:round; stroke-linejoin:round;">
<path d="M14.8902 21.8441
L9.8102 21.8441
" />
</g>
<g style="fill:#006464; fill-opacity:0.0; 
stroke:#006464; stroke-width:0.1524; stroke-opacity:1; 
stroke-linecap:round; stroke-linejoin:round;">
<text x="15.9062" y="22.4791"
textLength="3.9370" font-size="1.6933" lengthAdjust="spacingAndGlyphs"
text-anchor="start" opacity="0">S/P</text>
<g class="stroked-text"><desc>S/P</desc>
<path d="M16.1481 22.3712
L16.3295 22.4316
" />
<path d="M16.3295 22.4316
L16.6319 22.4316
" />
<path d="M16.6319 22.4316
L16.7528 22.3712
" />
<path d="M16.7528 22.3712
L16.8133 22.3107
" />
<path d="M16.8133 22.3107
L16.8738 22.1897
" />
<path d="M16.8738 22.1897
L16.8738 22.0688
" />
<path d="M16.8738 22.0688
L16.8133 21.9478
" />
<path d="M16.8133 21.9478
L16.7528 21.8873
" />
<path d="M16.7528 21.8873
L16.6319 21.8269
" />
<path d="M16.6319 21.8269
L16.3900 21.7664
" />
<path d="M16.3900 21.7664
L16.2690 21.7059
" />
<path d="M16.2690 21.7059
L16.2085 21.6454
" />
<path d="M16.2085 21.6454
L16.1481 21.5245
" />
<path d="M16.1481 21.5245
L16.1481 21.4035
" />
<path d="M16.1481 21.4035
L16.2085 21.2826
" />
<path d="M16.2085 21.2826
L16.2690 21.2221
" />
<path d="M16.2690 21.2221
L16.3900 21.1616
" />
<path d="M16.3900 21.1616
L16.6923 21.1616
" />
<path d="M16.6923 21.1616
L16.8738 21.2221
" />
<path d="M18.3252 21.1012
L17.2366 22.7340
" />
<path d="M18.7485 22.4316
L18.7485 21.1616
" />
<path d="M18.7485 21.1616
L19.2323 21.1616
" />
<path d="M19.2323 21.1616
L19.3533 21.2221
" />
<path d="M19.3533 21.2221
L19.4138 21.2826
" />
<path d="M19.4138 21.2826
L19.4742 21.4035
" />
<path d="M19.4742 21.4035
L19.4742 21.5850
" />
<path d="M19.4742 21.5850
L19.4138 21.7059
" />
<path d="M19.4138 21.7059
L19.3533 21.7664
" />
<path d="M19.3533 21.7664
L19.2323 21.8269
" />
<path d="M19.2323 21.8269
L18.7485 21.8269
" />
</g></g>
<g style="fill:#A90000; fill-opacity:0.0; 
stroke:#A90000; stroke-width:0.1524; stroke-opacity:1; 
stroke-linecap:round; stroke-linejoin:round;">
<text x="12.3502" y="21.5901"
textLength="1.3365" font-size="1.6933" lengthAdjust="spacingAndGlyphs"
text-anchor="middle" opacity="0">2</text>
<g class="stroked-text"><desc>2</desc>
<path d="M11.9874 20.2856
L12.0478 20.2251
" />
<path d="M12.0478 20.2251
L12.1688 20.1646
" />
<path d="M12.1688 20.1646
L12.4712 20.1646
" />
<path d="M12.4712 20.1646
L12.5921 20.2251
" />
<path d="M12.5921 20.2251
L12.6526 20.2856
" />
<path d="M12.6526 20.2856
L12.7131 20.4065
" />
<path d="M12.7131 20.4065
L12.7131 20.5275
" />
<path d="M12.7131 20.5275
L12.6526 20.7089
" />
<path d="M12.6526 20.7089
L11.9269 21.4346
" />
<path d="M11.9269 21.4346
L12.7131 21.4346
" />
</g></g>
<g style="fill:#840000; fill-opacity:0.0; 
stroke:#840000; stroke-width:0.1524; stroke-opacity:1; 
stroke-linecap:round; stroke-linejoin:round;">
<path d="M22.5102 9.1441
L22.5102 4.0641
" />
</g>
<g style="fill:#006464; fill-opacity:0.0; 
stroke:#006464; stroke-width:0.1524; stroke-opacity:1; 
stroke-linecap:round; stroke-linejoin:round;">
<g transform="rotate(-90.000000 22.5102 10.1601)">
<text x="22.5102" y="10.7951"
textLength="3.7556" font-size="1.6933" lengthAdjust="spacingAndGlyphs"
text-anchor="end" opacity="0">VCC</text>
</g>
<g class="stroked-text"><desc>VCC</desc>
<path d="M21.8277 13.6677
L23.0977 13.2444
" />
<path d="M23.0977 13.2444
L21.8277 12.8210
" />
<path d="M22.9768 11.6720
L23.0373 11.7324
" />
<path d="M23.0373 11.7324
L23.0977 11.9139
" />
<path d="M23.0977 11.9139
L23.0977 12.0348
" />
<path d="M23.0977 12.0348
L23.0373 12.2162
" />
<path d="M23.0373 12.2162
L22.9163 12.3372
" />
<path d="M22.9163 12.3372
L22.7953 12.3977
" />
<path d="M22.7953 12.3977
L22.5534 12.4581
" />
<path d="M22.5534 12.4581
L22.3720 12.4581
" />
<path d="M22.3720 12.4581
L22.1301 12.3977
" />
<path d="M22.1301 12.3977
L22.0092 12.3372
" />
<path d="M22.0092 12.3372
L21.8882 12.2162
" />
<path d="M21.8882 12.2162
L21.8277 12.0348
" />
<path d="M21.8277 12.0348
L21.8277 11.9139
" />
<path d="M21.8277 11.9139
L21.8882 11.7324
" />
<path d="M21.8882 11.7324
L21.9487 11.6720
" />
<path d="M22.9768 10.4020
L23.0373 10.4624
" />
<path d="M23.0373 10.4624
L23.0977 10.6439
" />
<path d="M23.0977 10.6439
L23.0977 10.7648
" />
<path d="M23.0977 10.7648
L23.0373 10.9462
" />
<path d="M23.0373 10.9462
L22.9163 11.0672
" />
<path d="M22.9163 11.0672
L22.7953 11.1277
" />
<path d="M22.7953 11.1277
L22.5534 11.1881
" />
<path d="M22.5534 11.1881
L22.3720 11.1881
" />
<path d="M22.3720 11.1881
L22.1301 11.1277
" />
<path d="M22.1301 11.1277
L22.0092 11.0672
" />
<path d="M22.0092 11.0672
L21.8882 10.9462
" />
<path d="M21.8882 10.9462
L21.8277 10.7648
" />
<path d="M21.8277 10.7648
L21.8277 10.6439
" />
<path d="M21.8277 10.6439
L21.8882 10.4624
" />
<path d="M21.8882 10.4624
L21.9487 10.4020
" />
</g></g>
<g style="fill:#A90000; fill-opacity:0.0; 
stroke:#A90000; stroke-width:0.1524; stroke-opacity:1; 
stroke-linecap:round; stroke-linejoin:round;">
<g transform="rotate(-90.000000 22.2562 6.6041)">
<text x="22.2562" y="6.6041"
textLength="2.5460" font-size="1.6933" lengthAdjust="spacingAndGlyphs"
text-anchor="middle" opacity="0">20</text>
</g>
<g class="stroked-text"><desc>20</desc>
<path d="M20.9517 7.5716
L20.8912 7.5112
" />
<path d="M20.8912 7.5112
L20.8307 7.3902
" />
<path d="M20.8307 7.3902
L20.8307 7.0878
" />
<path d="M20.8307 7.0878
L20.8912 6.9669
" />
<path d="M20.8912 6.9669
L20.9517 6.9064
" />
<path d="M20.9517 6.9064
L21.0726 6.8459
" />
<path d="M21.0726 6.8459
L21.1936 6.8459
" />
<path d="M21.1936 6.8459
L21.3750 6.9064
" />
<path d="M21.3750 6.9064
L22.1007 7.6321
" />
<path d="M22.1007 7.6321
L22.1007 6.8459
" />
<path d="M20.8307 6.0598
L20.8307 5.9388
" />
<path d="M20.8307 5.9388
L20.8912 5.8179
" />
<path d="M20.8912 5.8179
L20.9517 5.7574
" />
<path d="M20.9517 5.7574
L21.0726 5.6969
" />
<path d="M21.0726 5.6969
L21.3145 5.6364
" />
<path d="M21.3145 5.6364
L21.6169 5.6364
" />
<path d="M21.6169 5.6364
L21.8588 5.6969
" />
<path d="M21.8588 5.6969
L21.9798 5.7574
" />
<path d="M21.9798 5.7574
L22.0403 5.8179
" />
<path d="M22.0403 5.8179
L22.1007 5.9388
" />
<path d="M22.1007 5.9388
L22.1007 6.0598
" />
<path d="M22.1007 6.0598
L22.0403 6.1807
" />
<path d="M22.0403 6.1807
L21.9798 6.2412
" />
<path d="M21.9798 6.2412
L21.8588 6.3017
" />
<path d="M21.8588 6.3017
L21.6169 6.3621
" />
<path d="M21.6169 6.3621
L21.3145 6.3621
" />
<path d="M21.3145 6.3621
L21.0726 6.3017
" />
<path d="M21.0726 6.3017
L20.9517 6.2412
" />
<path d="M20.9517 6.2412
L20.8912 6.1807
" />
<path d="M20.8912 6.1807
L20.8307 6.0598
" />
</g></g>
<g style="fill:#840000; fill-opacity:0.0; 
stroke:#840000; stroke-width:0.1524; stroke-opacity:1; 
stroke-linecap:round; stroke-linejoin:round;">
<path d="M14.8902 11.6841
L9.8102 11.6841
" />
</g>
<g style="fill:#006464; fill-opacity:0.0; 
stroke:#006464; stroke-width:0.1524; stroke-opacity:1; 
stroke-linecap:round; stroke-linejoin:round;">
<text x="15.9062" y="12.3191"
textLength="2.6065" font-size="1.6933" lengthAdjust="spacingAndGlyphs"
text-anchor="start" opacity="0">D0</text>
<g class="stroked-text"><desc>D0</desc>
<path d="M16.2085 12.2716
L16.2085 11.0016
" />
<path d="M16.2085 11.0016
L16.5109 11.0016
" />
<path d="M16.5109 11.0016
L16.6923 11.0621
" />
<path d="M16.6923 11.0621
L16.8133 11.1831
" />
<path d="M16.8133 11.1831
L16.8738 11.3040
" />
<path d="M16.8738 11.3040
L16.9342 11.5459
" />
<path d="M16.9342 11.5459
L16.9342 11.7273
" />
<path d="M16.9342 11.7273
L16.8738 11.9692
" />
<path d="M16.8738 11.9692
L16.8133 12.0902
" />
<path d="M16.8133 12.0902
L16.6923 12.2112
" />
<path d="M16.6923 12.2112
L16.5109 12.2716
" />
<path d="M16.5109 12.2716
L16.2085 12.2716
" />
<path d="M17.7204 11.0016
L17.8414 11.0016
" />
<path d="M17.8414 11.0016
L17.9623 11.0621
" />
<path d="M17.9623 11.0621
L18.0228 11.1226
" />
<path d="M18.0228 11.1226
L18.0833 11.2435
" />
<path d="M18.0833 11.2435
L18.1438 11.4854
" />
<path d="M18.1438 11.4854
L18.1438 11.7878
" />
<path d="M18.1438 11.7878
L18.0833 12.0297
" />
<path d="M18.0833 12.0297
L18.0228 12.1507
" />
<path d="M18.0228 12.1507
L17.9623 12.2112
" />
<path d="M17.9623 12.2112
L17.8414 12.2716
" />
<path d="M17.8414 12.2716
L17.7204 12.2716
" />
<path d="M17.7204 12.2716
L17.5995 12.2112
" />
<path d="M17.5995 12.2112
L17.5390 12.1507
" />
<path d="M17.5390 12.1507
L17.4785 12.0297
" />
<path d="M17.4785 12.0297
L17.4181 11.7878
" />
<path d="M17.4181 11.7878
L17.4181 11.4854
" />
<path d="M17.4181 11.4854
L17.4785 11.2435
" />
<path d="M17.4785 11.2435
L17.5390 11.1226
" />
<path d="M17.5390 11.1226
L17.5995 11.0621
" />
<path d="M17.5995 11.0621
L17.7204 11.0016
" />
</g></g>
<g style="fill:#A90000; fill-opacity:0.0; 
stroke:#A90000; stroke-width:0.1524; stroke-opacity:1; 
stroke-linecap:round; stroke-linejoin:round;">
<text x="12.3502" y="11.4301"
textLength="1.3365" font-size="1.6933" lengthAdjust="spacingAndGlyphs"
text-anchor="middle" opacity="0">3</text>
<g class="stroked-text"><desc>3</desc>
<path d="M11.9269 10.0046
L12.7131 10.0046
" />
<path d="M12.7131 10.0046
L12.2897 10.4884
" />
<path d="M12.2897 10.4884
L12.4712 10.4884
" />
<path d="M12.4712 10.4884
L12.5921 10.5489
" />
<path d="M12.5921 10.5489
L12.6526 10.6094
" />
<path d="M12.6526 10.6094
L12.7131 10.7303
" />
<path d="M12.7131 10.7303
L12.7131 11.0327
" />
<path d="M12.7131 11.0327
L12.6526 11.1537
" />
<path d="M12.6526 11.1537
L12.5921 11.2142
" />
<path d="M12.5921 11.2142
L12.4712 11.2746
" />
<path d="M12.4712 11.2746
L12.1083 11.2746
" />
<path d="M12.1083 11.2746
L11.9874 11.2142
" />
<path d="M11.9874 11.2142
L11.9269 11.1537
" />
</g></g>
<g style="fill:#840000; fill-opacity:0.0; 
stroke:#840000; stroke-width:0.1524; stroke-opacity:1; 
stroke-linecap:round; stroke-linejoin:round;">
<path d="M30.1302 11.6841
L35.2102 11.6841
" />
</g>
<g style="fill:#006464; fill-opacity:0.0; 
stroke:#006464; stroke-width:0.1524; stroke-opacity:1; 
stroke-linecap:round; stroke-linejoin:round;">
<text x="29.1142" y="12.3191"
textLength="5.0256" font-size="1.6933" lengthAdjust="spacingAndGlyphs"
text-anchor="end" opacity="0">A/Qa</text>
<g class="stroked-text"><desc>A/Qa</desc>
<path d="M24.4575 11.9088
L25.0622 11.9088
" />
<path d="M24.3365 12.2716
L24.7598 11.0016
" />
<path d="M24.7598 11.0016
L25.1832 12.2716
" />
<path d="M26.5137 10.9412
L25.4251 12.5740
" />
<path d="M27.7837 12.3926
L27.6627 12.3321
" />
<path d="M27.6627 12.3321
L27.5418 12.2112
" />
<path d="M27.5418 12.2112
L27.3604 12.0297
" />
<path d="M27.3604 12.0297
L27.2394 11.9692
" />
<path d="M27.2394 11.9692
L27.1185 11.9692
" />
<path d="M27.1789 12.2716
L27.0580 12.2112
" />
<path d="M27.0580 12.2112
L26.9370 12.0902
" />
<path d="M26.9370 12.0902
L26.8766 11.8483
" />
<path d="M26.8766 11.8483
L26.8766 11.4250
" />
<path d="M26.8766 11.4250
L26.9370 11.1831
" />
<path d="M26.9370 11.1831
L27.0580 11.0621
" />
<path d="M27.0580 11.0621
L27.1789 11.0016
" />
<path d="M27.1789 11.0016
L27.4208 11.0016
" />
<path d="M27.4208 11.0016
L27.5418 11.0621
" />
<path d="M27.5418 11.0621
L27.6627 11.1831
" />
<path d="M27.6627 11.1831
L27.7232 11.4250
" />
<path d="M27.7232 11.4250
L27.7232 11.8483
" />
<path d="M27.7232 11.8483
L27.6627 12.0902
" />
<path d="M27.6627 12.0902
L27.5418 12.2112
" />
<path d="M27.5418 12.2112
L27.4208 12.2716
" />
<path d="M27.4208 12.2716
L27.1789 12.2716
" />
<path d="M28.8118 12.2716
L28.8118 11.6064
" />
<path d="M28.8118 11.6064
L28.7513 11.4854
" />
<path d="M28.7513 11.4854
L28.6304 11.4250
" />
<path d="M28.6304 11.4250
L28.3885 11.4250
" />
<path d="M28.3885 11.4250
L28.2675 11.4854
" />
<path d="M28.8118 12.2112
L28.6909 12.2716
" />
<path d="M28.6909 12.2716
L28.3885 12.2716
" />
<path d="M28.3885 12.2716
L28.2675 12.2112
" />
<path d="M28.2675 12.2112
L28.2071 12.0902
" />
<path d="M28.2071 12.0902
L28.2071 11.9692
" />
<path d="M28.2071 11.9692
L28.2675 11.8483
" />
<path d="M28.2675 11.8483
L28.3885 11.7878
" />
<path d="M28.3885 11.7878
L28.6909 11.7878
" />
<path d="M28.6909 11.7878
L28.8118 11.7273
" />
</g></g>
<g style="fill:#A90000; fill-opacity:0.0; 
stroke:#A90000; stroke-width:0.1524; stroke-opacity:1; 
stroke-linecap:round; stroke-linejoin:round;">
<text x="32.6702" y="11.4301"
textLength="1.3365" font-size="1.6933" lengthAdjust="spacingAndGlyphs"
text-anchor="middle" opacity="0">4</text>
<g class="stroked-text"><desc>4</desc>
<path d="M32.9121 10.4280
L32.9121 11.2746
" />
<path d="M32.6097 9.9442
L32.3074 10.8513
" />
<path d="M32.3074 10.8513
L33.0935 10.8513
" />
</g></g>
<g style="fill:#840000; fill-opacity:0.0; 
stroke:#840000; stroke-width:0.1524; stroke-opacity:1; 
stroke-linecap:round; stroke-linejoin:round;">
<path d="M30.1302 16.7641
L35.2102 16.7641
" />
</g>
<g style="fill:#006464; fill-opacity:0.0; 
stroke:#006464; stroke-width:0.1524; stroke-opacity:1; 
stroke-linecap:round; stroke-linejoin:round;">
<text x="29.1142" y="17.3991"
textLength="5.1466" font-size="1.6933" lengthAdjust="spacingAndGlyphs"
text-anchor="end" opacity="0">C/Qc</text>
<g class="stroked-text"><desc>C/Qc</desc>
<path d="M25.1226 17.2307
L25.0622 17.2912
" />
<path d="M25.0622 17.2912
L24.8807 17.3516
" />
<path d="M24.8807 17.3516
L24.7598 17.3516
" />
<path d="M24.7598 17.3516
L24.5784 17.2912
" />
<path d="M24.5784 17.2912
L24.4574 17.1702
" />
<path d="M24.4574 17.1702
L24.3969 17.0492
" />
<path d="M24.3969 17.0492
L24.3365 16.8073
" />
<path d="M24.3365 16.8073
L24.3365 16.6259
" />
<path d="M24.3365 16.6259
L24.3969 16.3840
" />
<path d="M24.3969 16.3840
L24.4574 16.2631
" />
<path d="M24.4574 16.2631
L24.5784 16.1421
" />
<path d="M24.5784 16.1421
L24.7598 16.0816
" />
<path d="M24.7598 16.0816
L24.8807 16.0816
" />
<path d="M24.8807 16.0816
L25.0622 16.1421
" />
<path d="M25.0622 16.1421
L25.1226 16.2026
" />
<path d="M26.5741 16.0212
L25.4855 17.6540
" />
<path d="M27.8441 17.4726
L27.7231 17.4121
" />
<path d="M27.7231 17.4121
L27.6022 17.2912
" />
<path d="M27.6022 17.2912
L27.4208 17.1097
" />
<path d="M27.4208 17.1097
L27.2998 17.0492
" />
<path d="M27.2998 17.0492
L27.1789 17.0492
" />
<path d="M27.2393 17.3516
L27.1184 17.2912
" />
<path d="M27.1184 17.2912
L26.9974 17.1702
" />
<path d="M26.9974 17.1702
L26.9370 16.9283
" />
<path d="M26.9370 16.9283
L26.9370 16.5050
" />
<path d="M26.9370 16.5050
L26.9974 16.2631
" />
<path d="M26.9974 16.2631
L27.1184 16.1421
" />
<path d="M27.1184 16.1421
L27.2393 16.0816
" />
<path d="M27.2393 16.0816
L27.4812 16.0816
" />
<path d="M27.4812 16.0816
L27.6022 16.1421
" />
<path d="M27.6022 16.1421
L27.7231 16.2631
" />
<path d="M27.7231 16.2631
L27.7836 16.5050
" />
<path d="M27.7836 16.5050
L27.7836 16.9283
" />
<path d="M27.7836 16.9283
L27.7231 17.1702
" />
<path d="M27.7231 17.1702
L27.6022 17.2912
" />
<path d="M27.6022 17.2912
L27.4812 17.3516
" />
<path d="M27.4812 17.3516
L27.2393 17.3516
" />
<path d="M28.8722 17.2912
L28.7513 17.3516
" />
<path d="M28.7513 17.3516
L28.5094 17.3516
" />
<path d="M28.5094 17.3516
L28.3884 17.2912
" />
<path d="M28.3884 17.2912
L28.3279 17.2307
" />
<path d="M28.3279 17.2307
L28.2675 17.1097
" />
<path d="M28.2675 17.1097
L28.2675 16.7469
" />
<path d="M28.2675 16.7469
L28.3279 16.6259
" />
<path d="M28.3279 16.6259
L28.3884 16.5654
" />
<path d="M28.3884 16.5654
L28.5094 16.5050
" />
<path d="M28.5094 16.5050
L28.7513 16.5050
" />
<path d="M28.7513 16.5050
L28.8722 16.5654
" />
</g></g>
<g style="fill:#A90000; fill-opacity:0.0; 
stroke:#A90000; stroke-width:0.1524; stroke-opacity:1; 
stroke-linecap:round; stroke-linejoin:round;">
<text x="32.6702" y="16.5101"
textLength="1.3365" font-size="1.6933" lengthAdjust="spacingAndGlyphs"
text-anchor="middle" opacity="0">5</text>
<g class="stroked-text"><desc>5</desc>
<path d="M32.9726 15.0846
L32.3678 15.0846
" />
<path d="M32.3678 15.0846
L32.3074 15.6894
" />
<path d="M32.3074 15.6894
L32.3678 15.6289
" />
<path d="M32.3678 15.6289
L32.4888 15.5684
" />
<path d="M32.4888 15.5684
L32.7912 15.5684
" />
<path d="M32.7912 15.5684
L32.9121 15.6289
" />
<path d="M32.9121 15.6289
L32.9726 15.6894
" />
<path d="M32.9726 15.6894
L33.0331 15.8103
" />
<path d="M33.0331 15.8103
L33.0331 16.1127
" />
<path d="M33.0331 16.1127
L32.9726 16.2337
" />
<path d="M32.9726 16.2337
L32.9121 16.2942
" />
<path d="M32.9121 16.2942
L32.7912 16.3546
" />
<path d="M32.7912 16.3546
L32.4888 16.3546
" />
<path d="M32.4888 16.3546
L32.3678 16.2942
" />
<path d="M32.3678 16.2942
L32.3074 16.2337
" />
</g></g>
<g style="fill:#840000; fill-opacity:0.0; 
stroke:#840000; stroke-width:0.1524; stroke-opacity:1; 
stroke-linecap:round; stroke-linejoin:round;">
<path d="M30.1302 21.8441
L35.2102 21.8441
" />
</g>
<g style="fill:#006464; fill-opacity:0.0; 
stroke:#006464; stroke-width:0.1524; stroke-opacity:1; 
stroke-linecap:round; stroke-linejoin:round;">
<text x="29.1142" y="22.4791"
textLength="5.0256" font-size="1.6933" lengthAdjust="spacingAndGlyphs"
text-anchor="end" opacity="0">E/Qe</text>
<g class="stroked-text"><desc>E/Qe</desc>
<path d="M24.5179 21.7664
L24.9413 21.7664
" />
<path d="M25.1227 22.4316
L24.5179 22.4316
" />
<path d="M24.5179 22.4316
L24.5179 21.1616
" />
<path d="M24.5179 21.1616
L25.1227 21.1616
" />
<path d="M26.5741 21.1012
L25.4855 22.7340
" />
<path d="M27.8441 22.5526
L27.7231 22.4921
" />
<path d="M27.7231 22.4921
L27.6022 22.3712
" />
<path d="M27.6022 22.3712
L27.4208 22.1897
" />
<path d="M27.4208 22.1897
L27.2998 22.1292
" />
<path d="M27.2998 22.1292
L27.1789 22.1292
" />
<path d="M27.2393 22.4316
L27.1184 22.3712
" />
<path d="M27.1184 22.3712
L26.9974 22.2502
" />
<path d="M26.9974 22.2502
L26.9370 22.0083
" />
<path d="M26.9370 22.0083
L26.9370 21.5850
" />
<path d="M26.9370 21.5850
L26.9974 21.3431
" />
<path d="M26.9974 21.3431
L27.1184 21.2221
" />
<path d="M27.1184 21.2221
L27.2393 21.1616
" />
<path d="M27.2393 21.1616
L27.4812 21.1616
" />
<path d="M27.4812 21.1616
L27.6022 21.2221
" />
<path d="M27.6022 21.2221
L27.7231 21.3431
" />
<path d="M27.7231 21.3431
L27.7836 21.5850
" />
<path d="M27.7836 21.5850
L27.7836 22.0083
" />
<path d="M27.7836 22.0083
L27.7231 22.2502
" />
<path d="M27.7231 22.2502
L27.6022 22.3712
" />
<path d="M27.6022 22.3712
L27.4812 22.4316
" />
<path d="M27.4812 22.4316
L27.2393 22.4316
" />
<path d="M28.8117 22.3712
L28.6908 22.4316
" />
<path d="M28.6908 22.4316
L28.4489 22.4316
" />
<path d="M28.4489 22.4316
L28.3279 22.3712
" />
<path d="M28.3279 22.3712
L28.2675 22.2502
" />
<path d="M28.2675 22.2502
L28.2675 21.7664
" />
<path d="M28.2675 21.7664
L28.3279 21.6454
" />
<path d="M28.3279 21.6454
L28.4489 21.5850
" />
<path d="M28.4489 21.5850
L28.6908 21.5850
" />
<path d="M28.6908 21.5850
L28.8117 21.6454
" />
<path d="M28.8117 21.6454
L28.8722 21.7664
" />
<path d="M28.8722 21.7664
L28.8722 21.8873
" />
<path d="M28.8722 21.8873
L28.2675 22.0083
" />
</g></g>
<g style="fill:#A90000; fill-opacity:0.0; 
stroke:#A90000; stroke-width:0.1524; stroke-opacity:1; 
stroke-linecap:round; stroke-linejoin:round;">
<text x="32.6702" y="21.5901"
textLength="1.3365" font-size="1.6933" lengthAdjust="spacingAndGlyphs"
text-anchor="middle" opacity="0">6</text>
<g class="stroked-text"><desc>6</desc>
<path d="M32.9121 20.1646
L32.6702 20.1646
" />
<path d="M32.6702 20.1646
L32.5493 20.2251
" />
<path d="M32.5493 20.2251
L32.4888 20.2856
" />
<path d="M32.4888 20.2856
L32.3678 20.4670
" />
<path d="M32.3678 20.4670
L32.3074 20.7089
" />
<path d="M32.3074 20.7089
L32.3074 21.1927
" />
<path d="M32.3074 21.1927
L32.3678 21.3137
" />
<path d="M32.3678 21.3137
L32.4283 21.3742
" />
<path d="M32.4283 21.3742
L32.5493 21.4346
" />
<path d="M32.5493 21.4346
L32.7912 21.4346
" />
<path d="M32.7912 21.4346
L32.9121 21.3742
" />
<path d="M32.9121 21.3742
L32.9726 21.3137
" />
<path d="M32.9726 21.3137
L33.0331 21.1927
" />
<path d="M33.0331 21.1927
L33.0331 20.8903
" />
<path d="M33.0331 20.8903
L32.9726 20.7694
" />
<path d="M32.9726 20.7694
L32.9121 20.7089
" />
<path d="M32.9121 20.7089
L32.7912 20.6484
" />
<path d="M32.7912 20.6484
L32.5493 20.6484
" />
<path d="M32.5493 20.6484
L32.4283 20.7089
" />
<path d="M32.4283 20.7089
L32.3678 20.7694
" />
<path d="M32.3678 20.7694
L32.3074 20.8903
" />
</g></g>
<g style="fill:#840000; fill-opacity:0.0; 
stroke:#840000; stroke-width:0.1524; stroke-opacity:1; 
stroke-linecap:round; stroke-linejoin:round;">
<path d="M30.1302 26.9241
L35.2102 26.9241
" />
</g>
<g style="fill:#006464; fill-opacity:0.0; 
stroke:#006464; stroke-width:0.1524; stroke-opacity:1; 
stroke-linecap:round; stroke-linejoin:round;">
<text x="29.1142" y="27.5591"
textLength="5.2070" font-size="1.6933" lengthAdjust="spacingAndGlyphs"
text-anchor="end" opacity="0">G/Qg</text>
<g class="stroked-text"><desc>G/Qg</desc>
<path d="M25.0018 26.3021
L24.8808 26.2416
" />
<path d="M24.8808 26.2416
L24.6994 26.2416
" />
<path d="M24.6994 26.2416
L24.5180 26.3021
" />
<path d="M24.5180 26.3021
L24.3970 26.4231
" />
<path d="M24.3970 26.4231
L24.3365 26.5440
" />
<path d="M24.3365 26.5440
L24.2761 26.7859
" />
<path d="M24.2761 26.7859
L24.2761 26.9673
" />
<path d="M24.2761 26.9673
L24.3365 27.2092
" />
<path d="M24.3365 27.2092
L24.3970 27.3302
" />
<path d="M24.3970 27.3302
L24.5180 27.4512
" />
<path d="M24.5180 27.4512
L24.6994 27.5116
" />
<path d="M24.6994 27.5116
L24.8203 27.5116
" />
<path d="M24.8203 27.5116
L25.0018 27.4512
" />
<path d="M25.0018 27.4512
L25.0622 27.3907
" />
<path d="M25.0622 27.3907
L25.0622 26.9673
" />
<path d="M25.0622 26.9673
L24.8203 26.9673
" />
<path d="M26.5137 26.1812
L25.4251 27.8140
" />
<path d="M27.7837 27.6326
L27.6627 27.5721
" />
<path d="M27.6627 27.5721
L27.5418 27.4512
" />
<path d="M27.5418 27.4512
L27.3604 27.2697
" />
<path d="M27.3604 27.2697
L27.2394 27.2092
" />
<path d="M27.2394 27.2092
L27.1185 27.2092
" />
<path d="M27.1789 27.5116
L27.0580 27.4512
" />
<path d="M27.0580 27.4512
L26.9370 27.3302
" />
<path d="M26.9370 27.3302
L26.8766 27.0883
" />
<path d="M26.8766 27.0883
L26.8766 26.6650
" />
<path d="M26.8766 26.6650
L26.9370 26.4231
" />
<path d="M26.9370 26.4231
L27.0580 26.3021
" />
<path d="M27.0580 26.3021
L27.1789 26.2416
" />
<path d="M27.1789 26.2416
L27.4208 26.2416
" />
<path d="M27.4208 26.2416
L27.5418 26.3021
" />
<path d="M27.5418 26.3021
L27.6627 26.4231
" />
<path d="M27.6627 26.4231
L27.7232 26.6650
" />
<path d="M27.7232 26.6650
L27.7232 27.0883
" />
<path d="M27.7232 27.0883
L27.6627 27.3302
" />
<path d="M27.6627 27.3302
L27.5418 27.4512
" />
<path d="M27.5418 27.4512
L27.4208 27.5116
" />
<path d="M27.4208 27.5116
L27.1789 27.5116
" />
<path d="M28.8118 26.6650
L28.8118 27.6931
" />
<path d="M28.8118 27.6931
L28.7513 27.8140
" />
<path d="M28.7513 27.8140
L28.6909 27.8745
" />
<path d="M28.6909 27.8745
L28.5699 27.9350
" />
<path d="M28.5699 27.9350
L28.3885 27.9350
" />
<path d="M28.3885 27.9350
L28.2675 27.8745
" />
<path d="M28.8118 27.4512
L28.6909 27.5116
" />
<path d="M28.6909 27.5116
L28.4490 27.5116
" />
<path d="M28.4490 27.5116
L28.3280 27.4512
" />
<path d="M28.3280 27.4512
L28.2675 27.3907
" />
<path d="M28.2675 27.3907
L28.2071 27.2697
" />
<path d="M28.2071 27.2697
L28.2071 26.9069
" />
<path d="M28.2071 26.9069
L28.2675 26.7859
" />
<path d="M28.2675 26.7859
L28.3280 26.7254
" />
<path d="M28.3280 26.7254
L28.4490 26.6650
" />
<path d="M28.4490 26.6650
L28.6909 26.6650
" />
<path d="M28.6909 26.6650
L28.8118 26.7254
" />
</g></g>
<g style="fill:#A90000; fill-opacity:0.0; 
stroke:#A90000; stroke-width:0.1524; stroke-opacity:1; 
stroke-linecap:round; stroke-linejoin:round;">
<text x="32.6702" y="26.6701"
textLength="1.3365" font-size="1.6933" lengthAdjust="spacingAndGlyphs"
text-anchor="middle" opacity="0">7</text>
<g class="stroked-text"><desc>7</desc>
<path d="M32.2469 25.2446
L33.0935 25.2446
" />
<path d="M33.0935 25.2446
L32.5493 26.5146
" />
</g></g>
<g style="fill:#840000; fill-opacity:0.0; 
stroke:#840000; stroke-width:0.1524; stroke-opacity:1; 
stroke-linecap:round; stroke-linejoin:round;">
<circle cx="14.2552" cy="26.9241" r="0.6350" /> 
<path d="M13.6202 26.9241
L9.8102 26.9241
" />
</g>
<g style="fill:#006464; fill-opacity:0.0; 
stroke:#006464; stroke-width:0.1524; stroke-opacity:1; 
stroke-linecap:round; stroke-linejoin:round;">
<text x="15.9062" y="27.5591"
textLength="2.6065" font-size="1.6933" lengthAdjust="spacingAndGlyphs"
text-anchor="start" opacity="0">OE</text>
<g class="stroked-text"><desc>OE</desc>
<path d="M16.4504 26.2416
L16.6923 26.2416
" />
<path d="M16.6923 26.2416
L16.8133 26.3021
" />
<path d="M16.8133 26.3021
L16.9342 26.4231
" />
<path d="M16.9342 26.4231
L16.9947 26.6650
" />
<path d="M16.9947 26.6650
L16.9947 27.0883
" />
<path d="M16.9947 27.0883
L16.9342 27.3302
" />
<path d="M16.9342 27.3302
L16.8133 27.4512
" />
<path d="M16.8133 27.4512
L16.6923 27.5116
" />
<path d="M16.6923 27.5116
L16.4504 27.5116
" />
<path d="M16.4504 27.5116
L16.3295 27.4512
" />
<path d="M16.3295 27.4512
L16.2085 27.3302
" />
<path d="M16.2085 27.3302
L16.1481 27.0883
" />
<path d="M16.1481 27.0883
L16.1481 26.6650
" />
<path d="M16.1481 26.6650
L16.2085 26.4231
" />
<path d="M16.2085 26.4231
L16.3295 26.3021
" />
<path d="M16.3295 26.3021
L16.4504 26.2416
" />
<path d="M17.5390 26.8464
L17.9624 26.8464
" />
<path d="M18.1438 27.5116
L17.5390 27.5116
" />
<path d="M17.5390 27.5116
L17.5390 26.2416
" />
<path d="M17.5390 26.2416
L18.1438 26.2416
" />
</g></g>
<g style="fill:#A90000; fill-opacity:0.0; 
stroke:#A90000; stroke-width:0.1524; stroke-opacity:1; 
stroke-linecap:round; stroke-linejoin:round;">
<text x="12.3502" y="26.6701"
textLength="1.3365" font-size="1.6933" lengthAdjust="spacingAndGlyphs"
text-anchor="middle" opacity="0">8</text>
<g class="stroked-text"><desc>8</desc>
<path d="M12.2293 25.7889
L12.1083 25.7284
" />
<path d="M12.1083 25.7284
L12.0478 25.6680
" />
<path d="M12.0478 25.6680
L11.9874 25.5470
" />
<path d="M11.9874 25.5470
L11.9874 25.4865
" />
<path d="M11.9874 25.4865
L12.0478 25.3656
" />
<path d="M12.0478 25.3656
L12.1083 25.3051
" />
<path d="M12.1083 25.3051
L12.2293 25.2446
" />
<path d="M12.2293 25.2446
L12.4712 25.2446
" />
<path d="M12.4712 25.2446
L12.5921 25.3051
" />
<path d="M12.5921 25.3051
L12.6526 25.3656
" />
<path d="M12.6526 25.3656
L12.7131 25.4865
" />
<path d="M12.7131 25.4865
L12.7131 25.5470
" />
<path d="M12.7131 25.5470
L12.6526 25.6680
" />
<path d="M12.6526 25.6680
L12.5921 25.7284
" />
<path d="M12.5921 25.7284
L12.4712 25.7889
" />
<path d="M12.4712 25.7889
L12.2293 25.7889
" />
<path d="M12.2293 25.7889
L12.1083 25.8494
" />
<path d="M12.1083 25.8494
L12.0478 25.9099
" />
<path d="M12.0478 25.9099
L11.9874 26.0308
" />
<path d="M11.9874 26.0308
L11.9874 26.2727
" />
<path d="M11.9874 26.2727
L12.0478 26.3937
" />
<path d="M12.0478 26.3937
L12.1083 26.4542
" />
<path d="M12.1083 26.4542
L12.2293 26.5146
" />
<path d="M12.2293 26.5146
L12.4712 26.5146
" />
<path d="M12.4712 26.5146
L12.5921 26.4542
" />
<path d="M12.5921 26.4542
L12.6526 26.3937
" />
<path d="M12.6526 26.3937
L12.7131 26.2727
" />
<path d="M12.7131 26.2727
L12.7131 26.0308
" />
<path d="M12.7131 26.0308
L12.6526 25.9099
" />
<path d="M12.6526 25.9099
L12.5921 25.8494
" />
<path d="M12.5921 25.8494
L12.4712 25.7889
" />
</g></g>
<g style="fill:#840000; fill-opacity:0.0; 
stroke:#840000; stroke-width:0.1524; stroke-opacity:1; 
stroke-linecap:round; stroke-linejoin:round;">
<circle cx="14.2552" cy="37.0841" r="0.6350" /> 
<path d="M13.6202 37.0841
L9.8102 37.0841
" />
</g>
<g style="fill:#006464; fill-opacity:0.0; 
stroke:#006464; stroke-width:0.1524; stroke-opacity:1; 
stroke-linecap:round; stroke-linejoin:round;">
<text x="15.9062" y="37.7191"
textLength="2.8484" font-size="1.6933" lengthAdjust="spacingAndGlyphs"
text-anchor="start" opacity="0">Clr</text>
<g class="stroked-text"><desc>Clr</desc>
<path d="M16.9342 37.5507
L16.8738 37.6112
" />
<path d="M16.8738 37.6112
L16.6923 37.6716
" />
<path d="M16.6923 37.6716
L16.5714 37.6716
" />
<path d="M16.5714 37.6716
L16.3900 37.6112
" />
<path d="M16.3900 37.6112
L16.2690 37.4902
" />
<path d="M16.2690 37.4902
L16.2085 37.3692
" />
<path d="M16.2085 37.3692
L16.1481 37.1273
" />
<path d="M16.1481 37.1273
L16.1481 36.9459
" />
<path d="M16.1481 36.9459
L16.2085 36.7040
" />
<path d="M16.2085 36.7040
L16.2690 36.5831
" />
<path d="M16.2690 36.5831
L16.3900 36.4621
" />
<path d="M16.3900 36.4621
L16.5714 36.4016
" />
<path d="M16.5714 36.4016
L16.6923 36.4016
" />
<path d="M16.6923 36.4016
L16.8738 36.4621
" />
<path d="M16.8738 36.4621
L16.9342 36.5226
" />
<path d="M17.6600 37.6716
L17.5390 37.6112
" />
<path d="M17.5390 37.6112
L17.4785 37.4902
" />
<path d="M17.4785 37.4902
L17.4785 36.4016
" />
<path d="M18.1437 37.6716
L18.1437 36.8250
" />
<path d="M18.1437 37.0669
L18.2042 36.9459
" />
<path d="M18.2042 36.9459
L18.2647 36.8854
" />
<path d="M18.2647 36.8854
L18.3856 36.8250
" />
<path d="M18.3856 36.8250
L18.5066 36.8250
" />
</g></g>
<g style="fill:#A90000; fill-opacity:0.0; 
stroke:#A90000; stroke-width:0.1524; stroke-opacity:1; 
stroke-linecap:round; stroke-linejoin:round;">
<text x="12.3502" y="36.8301"
textLength="1.3365" font-size="1.6933" lengthAdjust="spacingAndGlyphs"
text-anchor="middle" opacity="0">9</text>
<g class="stroked-text"><desc>9</desc>
<path d="M12.1083 36.6746
L12.3502 36.6746
" />
<path d="M12.3502 36.6746
L12.4712 36.6142
" />
<path d="M12.4712 36.6142
L12.5316 36.5537
" />
<path d="M12.5316 36.5537
L12.6526 36.3722
" />
<path d="M12.6526 36.3722
L12.7131 36.1303
" />
<path d="M12.7131 36.1303
L12.7131 35.6465
" />
<path d="M12.7131 35.6465
L12.6526 35.5256
" />
<path d="M12.6526 35.5256
L12.5921 35.4651
" />
<path d="M12.5921 35.4651
L12.4712 35.4046
" />
<path d="M12.4712 35.4046
L12.2293 35.4046
" />
<path d="M12.2293 35.4046
L12.1083 35.4651
" />
<path d="M12.1083 35.4651
L12.0478 35.5256
" />
<path d="M12.0478 35.5256
L11.9874 35.6465
" />
<path d="M11.9874 35.6465
L11.9874 35.9489
" />
<path d="M11.9874 35.9489
L12.0478 36.0699
" />
<path d="M12.0478 36.0699
L12.1083 36.1303
" />
<path d="M12.1083 36.1303
L12.2293 36.1908
" />
<path d="M12.2293 36.1908
L12.4712 36.1908
" />
<path d="M12.4712 36.1908
L12.5921 36.1303
" />
<path d="M12.5921 36.1303
L12.6526 36.0699
" />
<path d="M12.6526 36.0699
L12.7131 35.9489
" />
</g></g>
<g style="fill:#840084; fill-opacity:0.0; 
stroke:#840084; stroke-width:0.1524; stroke-opacity:1; 
stroke-linecap:round; stroke-linejoin:round;">
</g>
<g style="fill:#006464; fill-opacity:0.0; 
stroke:#006464; stroke-width:0.1524; stroke-opacity:1; 
stroke-linecap:round; stroke-linejoin:round;">
</g>
<g style="fill:#006464; fill-opacity:0.0; 
stroke:#006464; stroke-width:0.1588; stroke-opacity:1; 
stroke-linecap:round; stroke-linejoin:round;">
<text x="14.8902" y="8.5091"
textLength="2.5621" font-size="1.6933" lengthAdjust="spacingAndGlyphs"
text-anchor="middle" opacity="0">U?</text>
<g class="stroked-text"><desc>U?</desc>
<path d="M13.9830 7.1916
L13.9830 8.2197
" />
<path d="M13.9830 8.2197
L14.0435 8.3407
" />
<path d="M14.0435 8.3407
L14.1040 8.4012
" />
<path d="M14.1040 8.4012
L14.2249 8.4616
" />
<path d="M14.2249 8.4616
L14.4668 8.4616
" />
<path d="M14.4668 8.4616
L14.5878 8.4012
" />
<path d="M14.5878 8.4012
L14.6483 8.3407
" />
<path d="M14.6483 8.3407
L14.7087 8.2197
" />
<path d="M14.7087 8.2197
L14.7087 7.1916
" />
<path d="M15.4950 8.3407
L15.5554 8.4012
" />
<path d="M15.5554 8.4012
L15.4950 8.4616
" />
<path d="M15.4950 8.4616
L15.4345 8.4012
" />
<path d="M15.4345 8.4012
L15.4950 8.3407
" />
<path d="M15.4950 8.3407
L15.4950 8.4616
" />
<path d="M15.2531 7.2521
L15.3740 7.1916
" />
<path d="M15.3740 7.1916
L15.6764 7.1916
" />
<path d="M15.6764 7.1916
L15.7973 7.2521
" />
<path d="M15.7973 7.2521
L15.8578 7.3731
" />
<path d="M15.8578 7.3731
L15.8578 7.4940
" />
<path d="M15.8578 7.4940
L15.7973 7.6150
" />
<path d="M15.7973 7.6150
L15.7369 7.6754
" />
<path d="M15.7369 7.6754
L15.6159 7.7359
" />
<path d="M15.6159 7.7359
L15.5554 7.7964
" />
<path d="M15.5554 7.7964
L15.4950 7.9173
" />
<path d="M15.4950 7.9173
L15.4950 7.9778
" />
</g><text x="14.8902" y="41.5291"
textLength="8.4281" font-size="1.6933" lengthAdjust="spacingAndGlyphs"
text-anchor="middle" opacity="0">74LS322</text>
<g class="stroked-text"><desc>74LS322</desc>
<path d="M10.9291 40.2116
L11.7757 40.2116
" />
<path d="M11.7757 40.2116
L11.2315 41.4816
" />
<path d="M12.8038 40.6350
L12.8038 41.4816
" />
<path d="M12.5014 40.1512
L12.1991 41.0583
" />
<path d="M12.1991 41.0583
L12.9852 41.0583
" />
<path d="M14.0738 41.4816
L13.4690 41.4816
" />
<path d="M13.4690 41.4816
L13.4690 40.2116
" />
<path d="M14.4367 41.4212
L14.6181 41.4816
" />
<path d="M14.6181 41.4816
L14.9205 41.4816
" />
<path d="M14.9205 41.4816
L15.0414 41.4212
" />
<path d="M15.0414 41.4212
L15.1019 41.3607
" />
<path d="M15.1019 41.3607
L15.1624 41.2397
" />
<path d="M15.1624 41.2397
L15.1624 41.1188
" />
<path d="M15.1624 41.1188
L15.1019 40.9978
" />
<path d="M15.1019 40.9978
L15.0414 40.9373
" />
<path d="M15.0414 40.9373
L14.9205 40.8769
" />
<path d="M14.9205 40.8769
L14.6786 40.8164
" />
<path d="M14.6786 40.8164
L14.5576 40.7559
" />
<path d="M14.5576 40.7559
L14.4971 40.6954
" />
<path d="M14.4971 40.6954
L14.4367 40.5745
" />
<path d="M14.4367 40.5745
L14.4367 40.4535
" />
<path d="M14.4367 40.4535
L14.4971 40.3326
" />
<path d="M14.4971 40.3326
L14.5576 40.2721
" />
<path d="M14.5576 40.2721
L14.6786 40.2116
" />
<path d="M14.6786 40.2116
L14.9809 40.2116
" />
<path d="M14.9809 40.2116
L15.1624 40.2721
" />
<path d="M15.5857 40.2116
L16.3719 40.2116
" />
<path d="M16.3719 40.2116
L15.9485 40.6954
" />
<path d="M15.9485 40.6954
L16.1300 40.6954
" />
<path d="M16.1300 40.6954
L16.2509 40.7559
" />
<path d="M16.2509 40.7559
L16.3114 40.8164
" />
<path d="M16.3114 40.8164
L16.3719 40.9373
" />
<path d="M16.3719 40.9373
L16.3719 41.2397
" />
<path d="M16.3719 41.2397
L16.3114 41.3607
" />
<path d="M16.3114 41.3607
L16.2509 41.4212
" />
<path d="M16.2509 41.4212
L16.1300 41.4816
" />
<path d="M16.1300 41.4816
L15.7671 41.4816
" />
<path d="M15.7671 41.4816
L15.6462 41.4212
" />
<path d="M15.6462 41.4212
L15.5857 41.3607
" />
<path d="M16.8557 40.3326
L16.9161 40.2721
" />
<path d="M16.9161 40.2721
L17.0371 40.2116
" />
<path d="M17.0371 40.2116
L17.3395 40.2116
" />
<path d="M17.3395 40.2116
L17.4604 40.2721
" />
<path d="M17.4604 40.2721
L17.5209 40.3326
" />
<path d="M17.5209 40.3326
L17.5814 40.4535
" />
<path d="M17.5814 40.4535
L17.5814 40.5745
" />
<path d="M17.5814 40.5745
L17.5209 40.7559
" />
<path d="M17.5209 40.7559
L16.7952 41.4816
" />
<path d="M16.7952 41.4816
L17.5814 41.4816
" />
<path d="M18.0652 40.3326
L18.1256 40.2721
" />
<path d="M18.1256 40.2721
L18.2466 40.2116
" />
<path d="M18.2466 40.2116
L18.5490 40.2116
" />
<path d="M18.5490 40.2116
L18.6699 40.2721
" />
<path d="M18.6699 40.2721
L18.7304 40.3326
" />
<path d="M18.7304 40.3326
L18.7909 40.4535
" />
<path d="M18.7909 40.4535
L18.7909 40.5745
" />
<path d="M18.7909 40.5745
L18.7304 40.7559
" />
<path d="M18.7304 40.7559
L18.0047 41.4816
" />
<path d="M18.0047 41.4816
L18.7909 41.4816
" />
</g></g>
<g style="fill:#840084; fill-opacity:0.0; 
stroke:#840084; stroke-width:0.1588; stroke-opacity:1; 
stroke-linecap:round; stroke-linejoin:round;">
<text x="22.5102" y="25.0191"
textLength="37.5171" font-size="1.6933" lengthAdjust="spacingAndGlyphs"
text-anchor="middle" opacity="0">http://www.ti.com/lit/gpn/sn74LS322</text>
<g class="stroked-text"><desc>http://www.ti.com/lit/gpn/sn74LS322</desc>
<path d="M4.1255 24.9716
L4.1255 23.7016
" />
<path d="M4.6698 24.9716
L4.6698 24.3064
" />
<path d="M4.6698 24.3064
L4.6093 24.1854
" />
<path d="M4.6093 24.1854
L4.4884 24.1250
" />
<path d="M4.4884 24.1250
L4.3070 24.1250
" />
<path d="M4.3070 24.1250
L4.1860 24.1854
" />
<path d="M4.1860 24.1854
L4.1255 24.2459
" />
<path d="M5.0931 24.1250
L5.5769 24.1250
" />
<path d="M5.2745 23.7016
L5.2745 24.7902
" />
<path d="M5.2745 24.7902
L5.3350 24.9112
" />
<path d="M5.3350 24.9112
L5.4560 24.9716
" />
<path d="M5.4560 24.9716
L5.5769 24.9716
" />
<path d="M5.8188 24.1250
L6.3026 24.1250
" />
<path d="M6.0002 23.7016
L6.0002 24.7902
" />
<path d="M6.0002 24.7902
L6.0607 24.9112
" />
<path d="M6.0607 24.9112
L6.1817 24.9716
" />
<path d="M6.1817 24.9716
L6.3026 24.9716
" />
<path d="M6.7259 24.1250
L6.7259 25.3950
" />
<path d="M6.7259 24.1854
L6.8469 24.1250
" />
<path d="M6.8469 24.1250
L7.0888 24.1250
" />
<path d="M7.0888 24.1250
L7.2097 24.1854
" />
<path d="M7.2097 24.1854
L7.2702 24.2459
" />
<path d="M7.2702 24.2459
L7.3307 24.3669
" />
<path d="M7.3307 24.3669
L7.3307 24.7297
" />
<path d="M7.3307 24.7297
L7.2702 24.8507
" />
<path d="M7.2702 24.8507
L7.2097 24.9112
" />
<path d="M7.2097 24.9112
L7.0888 24.9716
" />
<path d="M7.0888 24.9716
L6.8469 24.9716
" />
<path d="M6.8469 24.9716
L6.7259 24.9112
" />
<path d="M7.8749 24.8507
L7.9354 24.9112
" />
<path d="M7.9354 24.9112
L7.8749 24.9716
" />
<path d="M7.8749 24.9716
L7.8145 24.9112
" />
<path d="M7.8145 24.9112
L7.8749 24.8507
" />
<path d="M7.8749 24.8507
L7.8749 24.9716
" />
<path d="M7.8749 24.1854
L7.9354 24.2459
" />
<path d="M7.9354 24.2459
L7.8749 24.3064
" />
<path d="M7.8749 24.3064
L7.8145 24.2459
" />
<path d="M7.8145 24.2459
L7.8749 24.1854
" />
<path d="M7.8749 24.1854
L7.8749 24.3064
" />
<path d="M9.3869 23.6412
L8.2983 25.2740
" />
<path d="M10.7174 23.6412
L9.6288 25.2740
" />
<path d="M11.0198 24.1250
L11.2617 24.9716
" />
<path d="M11.2617 24.9716
L11.5036 24.3669
" />
<path d="M11.5036 24.3669
L11.7455 24.9716
" />
<path d="M11.7455 24.9716
L11.9874 24.1250
" />
<path d="M12.3503 24.1250
L12.5922 24.9716
" />
<path d="M12.5922 24.9716
L12.8341 24.3669
" />
<path d="M12.8341 24.3669
L13.0760 24.9716
" />
<path d="M13.0760 24.9716
L13.3179 24.1250
" />
<path d="M13.6808 24.1250
L13.9227 24.9716
" />
<path d="M13.9227 24.9716
L14.1646 24.3669
" />
<path d="M14.1646 24.3669
L14.4065 24.9716
" />
<path d="M14.4065 24.9716
L14.6484 24.1250
" />
<path d="M15.1322 24.8507
L15.1927 24.9112
" />
<path d="M15.1927 24.9112
L15.1322 24.9716
" />
<path d="M15.1322 24.9716
L15.0718 24.9112
" />
<path d="M15.0718 24.9112
L15.1322 24.8507
" />
<path d="M15.1322 24.8507
L15.1322 24.9716
" />
<path d="M15.5556 24.1250
L16.0394 24.1250
" />
<path d="M15.7370 23.7016
L15.7370 24.7902
" />
<path d="M15.7370 24.7902
L15.7975 24.9112
" />
<path d="M15.7975 24.9112
L15.9185 24.9716
" />
<path d="M15.9185 24.9716
L16.0394 24.9716
" />
<path d="M16.4627 24.9716
L16.4627 24.1250
" />
<path d="M16.4627 23.7016
L16.4023 23.7621
" />
<path d="M16.4023 23.7621
L16.4627 23.8226
" />
<path d="M16.4627 23.8226
L16.5232 23.7621
" />
<path d="M16.5232 23.7621
L16.4627 23.7016
" />
<path d="M16.4627 23.7016
L16.4627 23.8226
" />
<path d="M17.0675 24.8507
L17.1280 24.9112
" />
<path d="M17.1280 24.9112
L17.0675 24.9716
" />
<path d="M17.0675 24.9716
L17.0071 24.9112
" />
<path d="M17.0071 24.9112
L17.0675 24.8507
" />
<path d="M17.0675 24.8507
L17.0675 24.9716
" />
<path d="M18.2166 24.9112
L18.0957 24.9716
" />
<path d="M18.0957 24.9716
L17.8538 24.9716
" />
<path d="M17.8538 24.9716
L17.7328 24.9112
" />
<path d="M17.7328 24.9112
L17.6723 24.8507
" />
<path d="M17.6723 24.8507
L17.6119 24.7297
" />
<path d="M17.6119 24.7297
L17.6119 24.3669
" />
<path d="M17.6119 24.3669
L17.6723 24.2459
" />
<path d="M17.6723 24.2459
L17.7328 24.1854
" />
<path d="M17.7328 24.1854
L17.8538 24.1250
" />
<path d="M17.8538 24.1250
L18.0957 24.1250
" />
<path d="M18.0957 24.1250
L18.2166 24.1854
" />
<path d="M18.9424 24.9716
L18.8214 24.9112
" />
<path d="M18.8214 24.9112
L18.7609 24.8507
" />
<path d="M18.7609 24.8507
L18.7005 24.7297
" />
<path d="M18.7005 24.7297
L18.7005 24.3669
" />
<path d="M18.7005 24.3669
L18.7609 24.2459
" />
<path d="M18.7609 24.2459
L18.8214 24.1854
" />
<path d="M18.8214 24.1854
L18.9424 24.1250
" />
<path d="M18.9424 24.1250
L19.1238 24.1250
" />
<path d="M19.1238 24.1250
L19.2447 24.1854
" />
<path d="M19.2447 24.1854
L19.3052 24.2459
" />
<path d="M19.3052 24.2459
L19.3657 24.3669
" />
<path d="M19.3657 24.3669
L19.3657 24.7297
" />
<path d="M19.3657 24.7297
L19.3052 24.8507
" />
<path d="M19.3052 24.8507
L19.2447 24.9112
" />
<path d="M19.2447 24.9112
L19.1238 24.9716
" />
<path d="M19.1238 24.9716
L18.9424 24.9716
" />
<path d="M19.9099 24.9716
L19.9099 24.1250
" />
<path d="M19.9099 24.2459
L19.9704 24.1854
" />
<path d="M19.9704 24.1854
L20.0914 24.1250
" />
<path d="M20.0914 24.1250
L20.2728 24.1250
" />
<path d="M20.2728 24.1250
L20.3937 24.1854
" />
<path d="M20.3937 24.1854
L20.4542 24.3064
" />
<path d="M20.4542 24.3064
L20.4542 24.9716
" />
<path d="M20.4542 24.3064
L20.5147 24.1854
" />
<path d="M20.5147 24.1854
L20.6356 24.1250
" />
<path d="M20.6356 24.1250
L20.8171 24.1250
" />
<path d="M20.8171 24.1250
L20.9380 24.1854
" />
<path d="M20.9380 24.1854
L20.9985 24.3064
" />
<path d="M20.9985 24.3064
L20.9985 24.9716
" />
<path d="M22.5104 23.6412
L21.4218 25.2740
" />
<path d="M23.1152 24.9716
L22.9942 24.9112
" />
<path d="M22.9942 24.9112
L22.9337 24.7902
" />
<path d="M22.9337 24.7902
L22.9337 23.7016
" />
<path d="M23.5989 24.9716
L23.5989 24.1250
" />
<path d="M23.5989 23.7016
L23.5385 23.7621
" />
<path d="M23.5385 23.7621
L23.5989 23.8226
" />
<path d="M23.5989 23.8226
L23.6594 23.7621
" />
<path d="M23.6594 23.7621
L23.5989 23.7016
" />
<path d="M23.5989 23.7016
L23.5989 23.8226
" />
<path d="M24.0223 24.1250
L24.5061 24.1250
" />
<path d="M24.2037 23.7016
L24.2037 24.7902
" />
<path d="M24.2037 24.7902
L24.2642 24.9112
" />
<path d="M24.2642 24.9112
L24.3852 24.9716
" />
<path d="M24.3852 24.9716
L24.5061 24.9716
" />
<path d="M25.8366 23.6412
L24.7480 25.2740
" />
<path d="M26.8042 24.1250
L26.8042 25.1531
" />
<path d="M26.8042 25.1531
L26.7437 25.2740
" />
<path d="M26.7437 25.2740
L26.6833 25.3345
" />
<path d="M26.6833 25.3345
L26.5623 25.3950
" />
<path d="M26.5623 25.3950
L26.3809 25.3950
" />
<path d="M26.3809 25.3950
L26.2599 25.3345
" />
<path d="M26.8042 24.9112
L26.6833 24.9716
" />
<path d="M26.6833 24.9716
L26.4414 24.9716
" />
<path d="M26.4414 24.9716
L26.3204 24.9112
" />
<path d="M26.3204 24.9112
L26.2599 24.8507
" />
<path d="M26.2599 24.8507
L26.1995 24.7297
" />
<path d="M26.1995 24.7297
L26.1995 24.3669
" />
<path d="M26.1995 24.3669
L26.2599 24.2459
" />
<path d="M26.2599 24.2459
L26.3204 24.1854
" />
<path d="M26.3204 24.1854
L26.4414 24.1250
" />
<path d="M26.4414 24.1250
L26.6833 24.1250
" />
<path d="M26.6833 24.1250
L26.8042 24.1854
" />
<path d="M27.4089 24.1250
L27.4089 25.3950
" />
<path d="M27.4089 24.1854
L27.5299 24.1250
" />
<path d="M27.5299 24.1250
L27.7718 24.1250
" />
<path d="M27.7718 24.1250
L27.8927 24.1854
" />
<path d="M27.8927 24.1854
L27.9532 24.2459
" />
<path d="M27.9532 24.2459
L28.0137 24.3669
" />
<path d="M28.0137 24.3669
L28.0137 24.7297
" />
<path d="M28.0137 24.7297
L27.9532 24.8507
" />
<path d="M27.9532 24.8507
L27.8927 24.9112
" />
<path d="M27.8927 24.9112
L27.7718 24.9716
" />
<path d="M27.7718 24.9716
L27.5299 24.9716
" />
<path d="M27.5299 24.9716
L27.4089 24.9112
" />
<path d="M28.5579 24.1250
L28.5579 24.9716
" />
<path d="M28.5579 24.2459
L28.6184 24.1854
" />
<path d="M28.6184 24.1854
L28.7394 24.1250
" />
<path d="M28.7394 24.1250
L28.9208 24.1250
" />
<path d="M28.9208 24.1250
L29.0417 24.1854
" />
<path d="M29.0417 24.1854
L29.1022 24.3064
" />
<path d="M29.1022 24.3064
L29.1022 24.9716
" />
<path d="M30.6141 23.6412
L29.5255 25.2740
" />
<path d="M30.9770 24.9112
L31.0979 24.9716
" />
<path d="M31.0979 24.9716
L31.3398 24.9716
" />
<path d="M31.3398 24.9716
L31.4608 24.9112
" />
<path d="M31.4608 24.9112
L31.5212 24.7902
" />
<path d="M31.5212 24.7902
L31.5212 24.7297
" />
<path d="M31.5212 24.7297
L31.4608 24.6088
" />
<path d="M31.4608 24.6088
L31.3398 24.5483
" />
<path d="M31.3398 24.5483
L31.1584 24.5483
" />
<path d="M31.1584 24.5483
L31.0374 24.4878
" />
<path d="M31.0374 24.4878
L30.9770 24.3669
" />
<path d="M30.9770 24.3669
L30.9770 24.3064
" />
<path d="M30.9770 24.3064
L31.0374 24.1854
" />
<path d="M31.0374 24.1854
L31.1584 24.1250
" />
<path d="M31.1584 24.1250
L31.3398 24.1250
" />
<path d="M31.3398 24.1250
L31.4608 24.1854
" />
<path d="M32.0655 24.1250
L32.0655 24.9716
" />
<path d="M32.0655 24.2459
L32.1260 24.1854
" />
<path d="M32.1260 24.1854
L32.2470 24.1250
" />
<path d="M32.2470 24.1250
L32.4284 24.1250
" />
<path d="M32.4284 24.1250
L32.5493 24.1854
" />
<path d="M32.5493 24.1854
L32.6098 24.3064
" />
<path d="M32.6098 24.3064
L32.6098 24.9716
" />
<path d="M33.0936 23.7016
L33.9402 23.7016
" />
<path d="M33.9402 23.7016
L33.3960 24.9716
" />
<path d="M34.9683 24.1250
L34.9683 24.9716
" />
<path d="M34.6659 23.6412
L34.3636 24.5483
" />
<path d="M34.3636 24.5483
L35.1497 24.5483
" />
<path d="M36.2383 24.9716
L35.6335 24.9716
" />
<path d="M35.6335 24.9716
L35.6335 23.7016
" />
<path d="M36.6012 24.9112
L36.7826 24.9716
" />
<path d="M36.7826 24.9716
L37.0850 24.9716
" />
<path d="M37.0850 24.9716
L37.2059 24.9112
" />
<path d="M37.2059 24.9112
L37.2664 24.8507
" />
<path d="M37.2664 24.8507
L37.3269 24.7297
" />
<path d="M37.3269 24.7297
L37.3269 24.6088
" />
<path d="M37.3269 24.6088
L37.2664 24.4878
" />
<path d="M37.2664 24.4878
L37.2059 24.4273
" />
<path d="M37.2059 24.4273
L37.0850 24.3669
" />
<path d="M37.0850 24.3669
L36.8431 24.3064
" />
<path d="M36.8431 24.3064
L36.7221 24.2459
" />
<path d="M36.7221 24.2459
L36.6616 24.1854
" />
<path d="M36.6616 24.1854
L36.6012 24.0645
" />
<path d="M36.6012 24.0645
L36.6012 23.9435
" />
<path d="M36.6012 23.9435
L36.6616 23.8226
" />
<path d="M36.6616 23.8226
L36.7221 23.7621
" />
<path d="M36.7221 23.7621
L36.8431 23.7016
" />
<path d="M36.8431 23.7016
L37.1454 23.7016
" />
<path d="M37.1454 23.7016
L37.3269 23.7621
" />
<path d="M37.7502 23.7016
L38.5364 23.7016
" />
<path d="M38.5364 23.7016
L38.1130 24.1854
" />
<path d="M38.1130 24.1854
L38.2945 24.1854
" />
<path d="M38.2945 24.1854
L38.4154 24.2459
" />
<path d="M38.4154 24.2459
L38.4759 24.3064
" />
<path d="M38.4759 24.3064
L38.5364 24.4273
" />
<path d="M38.5364 24.4273
L38.5364 24.7297
" />
<path d="M38.5364 24.7297
L38.4759 24.8507
" />
<path d="M38.4759 24.8507
L38.4154 24.9112
" />
<path d="M38.4154 24.9112
L38.2945 24.9716
" />
<path d="M38.2945 24.9716
L37.9316 24.9716
" />
<path d="M37.9316 24.9716
L37.8107 24.9112
" />
<path d="M37.8107 24.9112
L37.7502 24.8507
" />
<path d="M39.0202 23.8226
L39.0806 23.7621
" />
<path d="M39.0806 23.7621
L39.2016 23.7016
" />
<path d="M39.2016 23.7016
L39.5040 23.7016
" />
<path d="M39.5040 23.7016
L39.6249 23.7621
" />
<path d="M39.6249 23.7621
L39.6854 23.8226
" />
<path d="M39.6854 23.8226
L39.7459 23.9435
" />
<path d="M39.7459 23.9435
L39.7459 24.0645
" />
<path d="M39.7459 24.0645
L39.6854 24.2459
" />
<path d="M39.6854 24.2459
L38.9597 24.9716
" />
<path d="M38.9597 24.9716
L39.7459 24.9716
" />
<path d="M40.2297 23.8226
L40.2901 23.7621
" />
<path d="M40.2901 23.7621
L40.4111 23.7016
" />
<path d="M40.4111 23.7016
L40.7135 23.7016
" />
<path d="M40.7135 23.7016
L40.8344 23.7621
" />
<path d="M40.8344 23.7621
L40.8949 23.8226
" />
<path d="M40.8949 23.8226
L40.9554 23.9435
" />
<path d="M40.9554 23.9435
L40.9554 24.0645
" />
<path d="M40.9554 24.0645
L40.8949 24.2459
" />
<path d="M40.8949 24.2459
L40.1692 24.9716
" />
<path d="M40.1692 24.9716
L40.9554 24.9716
" />
</g></g> 
</svg>
