<?xml version="1.0" standalone="no"?>
 <!DOCTYPE svg PUBLIC "-//W3C//DTD SVG 1.1//EN" 
 "http://www.w3.org/Graphics/SVG/1.1/DTD/svg11.dtd"> 
<svg
  xmlns:svg="http://www.w3.org/2000/svg"
  xmlns="http://www.w3.org/2000/svg"
  xmlns:xlink="http://www.w3.org/1999/xlink"
  version="1.1"
  width="54.1020mm" height="18.2880mm" viewBox="0.0000 0.0000 54.1020 18.2880">
<title>SVG Image created as working.svg date 2023/07/31 21:58:34 </title>
  <desc>Image generated by Eeschema-SVG </desc>
<g style="fill:#000000; fill-opacity:1.0000;stroke:#000000; stroke-opacity:1.0000;
stroke-linecap:round; stroke-linejoin:round;"
 transform="translate(0 0) scale(1 1)">
</g>
<g style="fill:#840000; fill-opacity:0.0; 
stroke:#840000; stroke-width:0.0000; stroke-opacity:1; 
stroke-linecap:round; stroke-linejoin:round;">
</g>
<g style="fill:#FFFFC2; fill-opacity:0.0; 
stroke:#FFFFC2; stroke-width:0.0000; stroke-opacity:1; 
stroke-linecap:round; stroke-linejoin:round;">
</g>
<g style="fill:#FFFFC2; fill-opacity:1.0000; 
stroke:#FFFFC2; stroke-width:0.0000; stroke-opacity:1; 
stroke-linecap:round; stroke-linejoin:round;">
<path style="fill:#FFFFC2; fill-opacity:1.0000; 
stroke:#FFFFC2; stroke-width:0.0000; stroke-opacity:1; 
stroke-linecap:round; stroke-linejoin:round;fill-rule:evenodd;"
d="M 20.6959,4.0641
30.8559,9.1441
20.6959,14.2241
Z" /> 
</g>
<g style="fill:#840084; fill-opacity:1.0000; 
stroke:#840084; stroke-width:0.0000; stroke-opacity:1; 
stroke-linecap:round; stroke-linejoin:round;">
</g>
<g style="fill:#840000; fill-opacity:1.0000; 
stroke:#840000; stroke-width:0.0000; stroke-opacity:1; 
stroke-linecap:round; stroke-linejoin:round;">
</g>
<g style="fill:#840000; fill-opacity:0.0; 
stroke:#840000; stroke-width:0.2540; stroke-opacity:1; 
stroke-linecap:round; stroke-linejoin:round;">
<path style="fill:#840000; fill-opacity:0.0; 
stroke:#840000; stroke-width:0.2540; stroke-opacity:1; 
stroke-linecap:round; stroke-linejoin:round;fill:none"
d="M 20.6959,4.0641
30.8559,9.1441
20.6959,14.2241
Z" /> 
</g>
<g style="fill:#840000; fill-opacity:0.0; 
stroke:#840000; stroke-width:0.1524; stroke-opacity:1; 
stroke-linecap:round; stroke-linejoin:round;">
<path d="M25.7759 6.6041
L25.7759 1.5241
" />
</g>
<g style="fill:#006464; fill-opacity:0.0; 
stroke:#006464; stroke-width:0.1524; stroke-opacity:1; 
stroke-linecap:round; stroke-linejoin:round;">
</g>
<g style="fill:#006464; fill-opacity:0.0; 
stroke:#006464; stroke-width:0.1016; stroke-opacity:1; 
stroke-linecap:round; stroke-linejoin:round;">
<g transform="rotate(-90.000000 25.7759 6.7311)">
<text x="25.7759" y="6.9851"
textLength="2.0392" font-size="0.6773" lengthAdjust="spacingAndGlyphs"
text-anchor="end" opacity="0">NULL</text>
</g>
<g class="stroked-text"><desc>NULL</desc>
<path d="M26.0109 8.4969
L25.5029 8.4969
" />
<path d="M25.5029 8.4969
L26.0109 8.2066
" />
<path d="M26.0109 8.2066
L25.5029 8.2066
" />
<path d="M25.5029 7.9647
L25.9142 7.9647
" />
<path d="M25.9142 7.9647
L25.9626 7.9405
" />
<path d="M25.9626 7.9405
L25.9868 7.9163
" />
<path d="M25.9868 7.9163
L26.0109 7.8679
" />
<path d="M26.0109 7.8679
L26.0109 7.7712
" />
<path d="M26.0109 7.7712
L25.9868 7.7228
" />
<path d="M25.9868 7.7228
L25.9626 7.6986
" />
<path d="M25.9626 7.6986
L25.9142 7.6744
" />
<path d="M25.9142 7.6744
L25.5029 7.6744
" />
<path d="M26.0109 7.1906
L26.0109 7.4325
" />
<path d="M26.0109 7.4325
L25.5029 7.4325
" />
<path d="M26.0109 6.7794
L26.0109 7.0213
" />
<path d="M26.0109 7.0213
L25.5029 7.0213
" />
</g></g>
<g style="fill:#A90000; fill-opacity:0.0; 
stroke:#A90000; stroke-width:0.1016; stroke-opacity:1; 
stroke-linecap:round; stroke-linejoin:round;">
</g>
<g style="fill:#A90000; fill-opacity:0.0; 
stroke:#A90000; stroke-width:0.1524; stroke-opacity:1; 
stroke-linecap:round; stroke-linejoin:round;">
<g transform="rotate(-90.000000 25.5219 4.0641)">
<text x="25.5219" y="4.0641"
textLength="1.3365" font-size="1.6933" lengthAdjust="spacingAndGlyphs"
text-anchor="middle" opacity="0">1</text>
</g>
<g class="stroked-text"><desc>1</desc>
<path d="M25.3664 3.7011
L25.3664 4.4268
" />
<path d="M25.3664 4.0640
L24.0964 4.0640
" />
<path d="M24.0964 4.0640
L24.2779 4.1849
" />
<path d="M24.2779 4.1849
L24.3988 4.3059
" />
<path d="M24.3988 4.3059
L24.4593 4.4268
" />
</g></g>
<g style="fill:#840000; fill-opacity:0.0; 
stroke:#840000; stroke-width:0.1524; stroke-opacity:1; 
stroke-linecap:round; stroke-linejoin:round;">
<path d="M20.6959 11.6841
L18.1559 11.6841
" />
</g>
<g style="fill:#006464; fill-opacity:0.0; 
stroke:#006464; stroke-width:0.1524; stroke-opacity:1; 
stroke-linecap:round; stroke-linejoin:round;">
<text x="20.8229" y="12.3191"
textLength="1.6994" font-size="1.6933" lengthAdjust="spacingAndGlyphs"
text-anchor="start" opacity="0">-</text>
<g class="stroked-text"><desc>-</desc>
<path d="M21.1252 11.7878
L22.0929 11.7878
" />
</g></g>
<g style="fill:#A90000; fill-opacity:0.0; 
stroke:#A90000; stroke-width:0.1524; stroke-opacity:1; 
stroke-linecap:round; stroke-linejoin:round;">
<text x="19.4259" y="11.4301"
textLength="1.3365" font-size="1.6933" lengthAdjust="spacingAndGlyphs"
text-anchor="middle" opacity="0">2</text>
<g class="stroked-text"><desc>2</desc>
<path d="M19.0631 10.1256
L19.1235 10.0651
" />
<path d="M19.1235 10.0651
L19.2445 10.0046
" />
<path d="M19.2445 10.0046
L19.5469 10.0046
" />
<path d="M19.5469 10.0046
L19.6678 10.0651
" />
<path d="M19.6678 10.0651
L19.7283 10.1256
" />
<path d="M19.7283 10.1256
L19.7888 10.2465
" />
<path d="M19.7888 10.2465
L19.7888 10.3675
" />
<path d="M19.7888 10.3675
L19.7283 10.5489
" />
<path d="M19.7283 10.5489
L19.0026 11.2746
" />
<path d="M19.0026 11.2746
L19.7888 11.2746
" />
</g></g>
<g style="fill:#840000; fill-opacity:0.0; 
stroke:#840000; stroke-width:0.1524; stroke-opacity:1; 
stroke-linecap:round; stroke-linejoin:round;">
<path d="M20.6959 6.6041
L18.1559 6.6041
" />
</g>
<g style="fill:#006464; fill-opacity:0.0; 
stroke:#006464; stroke-width:0.1524; stroke-opacity:1; 
stroke-linecap:round; stroke-linejoin:round;">
<text x="20.8229" y="7.2391"
textLength="1.6994" font-size="1.6933" lengthAdjust="spacingAndGlyphs"
text-anchor="start" opacity="0">+</text>
<g class="stroked-text"><desc>+</desc>
<path d="M21.1252 6.7078
L22.0929 6.7078
" />
<path d="M21.6090 7.1916
L21.6090 6.2240
" />
</g></g>
<g style="fill:#A90000; fill-opacity:0.0; 
stroke:#A90000; stroke-width:0.1524; stroke-opacity:1; 
stroke-linecap:round; stroke-linejoin:round;">
<text x="19.4259" y="6.3501"
textLength="1.3365" font-size="1.6933" lengthAdjust="spacingAndGlyphs"
text-anchor="middle" opacity="0">3</text>
<g class="stroked-text"><desc>3</desc>
<path d="M19.0026 4.9246
L19.7888 4.9246
" />
<path d="M19.7888 4.9246
L19.3654 5.4084
" />
<path d="M19.3654 5.4084
L19.5469 5.4084
" />
<path d="M19.5469 5.4084
L19.6678 5.4689
" />
<path d="M19.6678 5.4689
L19.7283 5.5294
" />
<path d="M19.7283 5.5294
L19.7888 5.6503
" />
<path d="M19.7888 5.6503
L19.7888 5.9527
" />
<path d="M19.7888 5.9527
L19.7283 6.0737
" />
<path d="M19.7283 6.0737
L19.6678 6.1342
" />
<path d="M19.6678 6.1342
L19.5469 6.1946
" />
<path d="M19.5469 6.1946
L19.1840 6.1946
" />
<path d="M19.1840 6.1946
L19.0631 6.1342
" />
<path d="M19.0631 6.1342
L19.0026 6.0737
" />
</g></g>
<g style="fill:#840000; fill-opacity:0.0; 
stroke:#840000; stroke-width:0.1524; stroke-opacity:1; 
stroke-linecap:round; stroke-linejoin:round;">
<path d="M23.2359 12.9541
L23.2359 16.7641
" />
</g>
<g style="fill:#006464; fill-opacity:0.0; 
stroke:#006464; stroke-width:0.1524; stroke-opacity:1; 
stroke-linecap:round; stroke-linejoin:round;">
<g transform="rotate(-90.000000 23.2359 12.8271)">
<text x="23.2359" y="13.4621"
textLength="2.7880" font-size="1.6933" lengthAdjust="spacingAndGlyphs"
text-anchor="start" opacity="0">V-</text>
</g>
<g class="stroked-text"><desc>V-</desc>
<path d="M22.5534 12.7061
L23.8234 12.2828
" />
<path d="M23.8234 12.2828
L22.5534 11.8594
" />
<path d="M23.3396 11.4361
L23.3396 10.4685
" />
</g></g>
<g style="fill:#A90000; fill-opacity:0.0; 
stroke:#A90000; stroke-width:0.1524; stroke-opacity:1; 
stroke-linecap:round; stroke-linejoin:round;">
<g transform="rotate(-90.000000 22.9819 14.8591)">
<text x="22.9819" y="14.8591"
textLength="1.3365" font-size="1.6933" lengthAdjust="spacingAndGlyphs"
text-anchor="middle" opacity="0">4</text>
</g>
<g class="stroked-text"><desc>4</desc>
<path d="M21.9798 14.6171
L22.8264 14.6171
" />
<path d="M21.4960 14.9195
L22.4031 15.2218
" />
<path d="M22.4031 15.2218
L22.4031 14.4357
" />
</g></g>
<g style="fill:#840000; fill-opacity:0.0; 
stroke:#840000; stroke-width:0.1524; stroke-opacity:1; 
stroke-linecap:round; stroke-linejoin:round;">
<path d="M28.3159 7.8741
L28.3159 1.5241
" />
</g>
<g style="fill:#006464; fill-opacity:0.0; 
stroke:#006464; stroke-width:0.1524; stroke-opacity:1; 
stroke-linecap:round; stroke-linejoin:round;">
</g>
<g style="fill:#006464; fill-opacity:0.0; 
stroke:#006464; stroke-width:0.1016; stroke-opacity:1; 
stroke-linecap:round; stroke-linejoin:round;">
<g transform="rotate(-90.000000 28.3159 8.0011)">
<text x="28.3159" y="8.2551"
textLength="2.0392" font-size="0.6773" lengthAdjust="spacingAndGlyphs"
text-anchor="end" opacity="0">NULL</text>
</g>
<g class="stroked-text"><desc>NULL</desc>
<path d="M28.5509 9.7669
L28.0429 9.7669
" />
<path d="M28.0429 9.7669
L28.5509 9.4766
" />
<path d="M28.5509 9.4766
L28.0429 9.4766
" />
<path d="M28.0429 9.2347
L28.4542 9.2347
" />
<path d="M28.4542 9.2347
L28.5026 9.2105
" />
<path d="M28.5026 9.2105
L28.5268 9.1863
" />
<path d="M28.5268 9.1863
L28.5509 9.1379
" />
<path d="M28.5509 9.1379
L28.5509 9.0412
" />
<path d="M28.5509 9.0412
L28.5268 8.9928
" />
<path d="M28.5268 8.9928
L28.5026 8.9686
" />
<path d="M28.5026 8.9686
L28.4542 8.9444
" />
<path d="M28.4542 8.9444
L28.0429 8.9444
" />
<path d="M28.5509 8.4606
L28.5509 8.7025
" />
<path d="M28.5509 8.7025
L28.0429 8.7025
" />
<path d="M28.5509 8.0494
L28.5509 8.2913
" />
<path d="M28.5509 8.2913
L28.0429 8.2913
" />
</g></g>
<g style="fill:#A90000; fill-opacity:0.0; 
stroke:#A90000; stroke-width:0.1016; stroke-opacity:1; 
stroke-linecap:round; stroke-linejoin:round;">
</g>
<g style="fill:#A90000; fill-opacity:0.0; 
stroke:#A90000; stroke-width:0.1524; stroke-opacity:1; 
stroke-linecap:round; stroke-linejoin:round;">
<g transform="rotate(-90.000000 28.0619 4.6991)">
<text x="28.0619" y="4.6991"
textLength="1.3365" font-size="1.6933" lengthAdjust="spacingAndGlyphs"
text-anchor="middle" opacity="0">5</text>
</g>
<g class="stroked-text"><desc>5</desc>
<path d="M26.6364 4.3966
L26.6364 5.0014
" />
<path d="M26.6364 5.0014
L27.2412 5.0618
" />
<path d="M27.2412 5.0618
L27.1807 5.0014
" />
<path d="M27.1807 5.0014
L27.1202 4.8804
" />
<path d="M27.1202 4.8804
L27.1202 4.5780
" />
<path d="M27.1202 4.5780
L27.1807 4.4571
" />
<path d="M27.1807 4.4571
L27.2412 4.3966
" />
<path d="M27.2412 4.3966
L27.3621 4.3361
" />
<path d="M27.3621 4.3361
L27.6645 4.3361
" />
<path d="M27.6645 4.3361
L27.7855 4.3966
" />
<path d="M27.7855 4.3966
L27.8460 4.4571
" />
<path d="M27.8460 4.4571
L27.9064 4.5780
" />
<path d="M27.9064 4.5780
L27.9064 4.8804
" />
<path d="M27.9064 4.8804
L27.8460 5.0014
" />
<path d="M27.8460 5.0014
L27.7855 5.0618
" />
</g></g>
<g style="fill:#840000; fill-opacity:0.0; 
stroke:#840000; stroke-width:0.1524; stroke-opacity:1; 
stroke-linecap:round; stroke-linejoin:round;">
<path d="M30.8559 9.1441
L33.3959 9.1441
" />
</g>
<g style="fill:#A90000; fill-opacity:0.0; 
stroke:#A90000; stroke-width:0.1524; stroke-opacity:1; 
stroke-linecap:round; stroke-linejoin:round;">
<text x="32.1259" y="8.8901"
textLength="1.3365" font-size="1.6933" lengthAdjust="spacingAndGlyphs"
text-anchor="middle" opacity="0">6</text>
<g class="stroked-text"><desc>6</desc>
<path d="M32.3678 7.4646
L32.1259 7.4646
" />
<path d="M32.1259 7.4646
L32.0050 7.5251
" />
<path d="M32.0050 7.5251
L31.9445 7.5856
" />
<path d="M31.9445 7.5856
L31.8235 7.7670
" />
<path d="M31.8235 7.7670
L31.7631 8.0089
" />
<path d="M31.7631 8.0089
L31.7631 8.4927
" />
<path d="M31.7631 8.4927
L31.8235 8.6137
" />
<path d="M31.8235 8.6137
L31.8840 8.6742
" />
<path d="M31.8840 8.6742
L32.0050 8.7346
" />
<path d="M32.0050 8.7346
L32.2469 8.7346
" />
<path d="M32.2469 8.7346
L32.3678 8.6742
" />
<path d="M32.3678 8.6742
L32.4283 8.6137
" />
<path d="M32.4283 8.6137
L32.4888 8.4927
" />
<path d="M32.4888 8.4927
L32.4888 8.1903
" />
<path d="M32.4888 8.1903
L32.4283 8.0694
" />
<path d="M32.4283 8.0694
L32.3678 8.0089
" />
<path d="M32.3678 8.0089
L32.2469 7.9484
" />
<path d="M32.2469 7.9484
L32.0050 7.9484
" />
<path d="M32.0050 7.9484
L31.8840 8.0089
" />
<path d="M31.8840 8.0089
L31.8235 8.0694
" />
<path d="M31.8235 8.0694
L31.7631 8.1903
" />
</g></g>
<g style="fill:#840000; fill-opacity:0.0; 
stroke:#840000; stroke-width:0.1524; stroke-opacity:1; 
stroke-linecap:round; stroke-linejoin:round;">
<path d="M23.2359 5.3341
L23.2359 1.5241
" />
</g>
<g style="fill:#006464; fill-opacity:0.0; 
stroke:#006464; stroke-width:0.1524; stroke-opacity:1; 
stroke-linecap:round; stroke-linejoin:round;">
<g transform="rotate(-90.000000 23.2359 5.4611)">
<text x="23.2359" y="6.0961"
textLength="2.7880" font-size="1.6933" lengthAdjust="spacingAndGlyphs"
text-anchor="end" opacity="0">V+</text>
</g>
<g class="stroked-text"><desc>V+</desc>
<path d="M22.5534 8.0011
L23.8234 7.5778
" />
<path d="M23.8234 7.5778
L22.5534 7.1544
" />
<path d="M23.3396 6.7311
L23.3396 5.7635
" />
<path d="M23.8234 6.2473
L22.8558 6.2473
" />
</g></g>
<g style="fill:#A90000; fill-opacity:0.0; 
stroke:#A90000; stroke-width:0.1524; stroke-opacity:1; 
stroke-linecap:round; stroke-linejoin:round;">
<g transform="rotate(-90.000000 22.9819 3.4291)">
<text x="22.9819" y="3.4291"
textLength="1.3365" font-size="1.6933" lengthAdjust="spacingAndGlyphs"
text-anchor="middle" opacity="0">7</text>
</g>
<g class="stroked-text"><desc>7</desc>
<path d="M21.5564 3.8523
L21.5564 3.0057
" />
<path d="M21.5564 3.0057
L22.8264 3.5499
" />
</g></g>
<g style="fill:#840000; fill-opacity:0.0; 
stroke:#840000; stroke-width:0.1524; stroke-opacity:1; 
stroke-linecap:round; stroke-linejoin:round;">
<path d="M25.7759 11.6841
L25.7759 16.7641
" />
</g>
<g style="fill:#006464; fill-opacity:0.0; 
stroke:#006464; stroke-width:0.1524; stroke-opacity:1; 
stroke-linecap:round; stroke-linejoin:round;">
<g transform="rotate(-90.000000 25.7759 11.5571)">
<text x="25.7759" y="12.1921"
textLength="2.0623" font-size="1.6933" lengthAdjust="spacingAndGlyphs"
text-anchor="start" opacity="0">IQ</text>
</g>
<g class="stroked-text"><desc>IQ</desc>
<path d="M26.3634 11.2547
L25.0934 11.2547
" />
<path d="M26.4844 9.8032
L26.4239 9.9242
" />
<path d="M26.4239 9.9242
L26.3030 10.0451
" />
<path d="M26.3030 10.0451
L26.1215 10.2265
" />
<path d="M26.1215 10.2265
L26.0610 10.3475
" />
<path d="M26.0610 10.3475
L26.0610 10.4684
" />
<path d="M26.3634 10.4080
L26.3030 10.5289
" />
<path d="M26.3030 10.5289
L26.1820 10.6499
" />
<path d="M26.1820 10.6499
L25.9401 10.7103
" />
<path d="M25.9401 10.7103
L25.5168 10.7103
" />
<path d="M25.5168 10.7103
L25.2749 10.6499
" />
<path d="M25.2749 10.6499
L25.1539 10.5289
" />
<path d="M25.1539 10.5289
L25.0934 10.4080
" />
<path d="M25.0934 10.4080
L25.0934 10.1661
" />
<path d="M25.0934 10.1661
L25.1539 10.0451
" />
<path d="M25.1539 10.0451
L25.2749 9.9242
" />
<path d="M25.2749 9.9242
L25.5168 9.8637
" />
<path d="M25.5168 9.8637
L25.9401 9.8637
" />
<path d="M25.9401 9.8637
L26.1820 9.9242
" />
<path d="M26.1820 9.9242
L26.3030 10.0451
" />
<path d="M26.3030 10.0451
L26.3634 10.1661
" />
<path d="M26.3634 10.1661
L26.3634 10.4080
" />
</g></g>
<g style="fill:#A90000; fill-opacity:0.0; 
stroke:#A90000; stroke-width:0.1524; stroke-opacity:1; 
stroke-linecap:round; stroke-linejoin:round;">
<g transform="rotate(-90.000000 25.5219 14.2241)">
<text x="25.5219" y="14.2241"
textLength="1.3365" font-size="1.6933" lengthAdjust="spacingAndGlyphs"
text-anchor="middle" opacity="0">8</text>
</g>
<g class="stroked-text"><desc>8</desc>
<path d="M24.6407 14.3449
L24.5802 14.4659
" />
<path d="M24.5802 14.4659
L24.5198 14.5264
" />
<path d="M24.5198 14.5264
L24.3988 14.5868
" />
<path d="M24.3988 14.5868
L24.3383 14.5868
" />
<path d="M24.3383 14.5868
L24.2174 14.5264
" />
<path d="M24.2174 14.5264
L24.1569 14.4659
" />
<path d="M24.1569 14.4659
L24.0964 14.3449
" />
<path d="M24.0964 14.3449
L24.0964 14.1030
" />
<path d="M24.0964 14.1030
L24.1569 13.9821
" />
<path d="M24.1569 13.9821
L24.2174 13.9216
" />
<path d="M24.2174 13.9216
L24.3383 13.8611
" />
<path d="M24.3383 13.8611
L24.3988 13.8611
" />
<path d="M24.3988 13.8611
L24.5198 13.9216
" />
<path d="M24.5198 13.9216
L24.5802 13.9821
" />
<path d="M24.5802 13.9821
L24.6407 14.1030
" />
<path d="M24.6407 14.1030
L24.6407 14.3449
" />
<path d="M24.6407 14.3449
L24.7012 14.4659
" />
<path d="M24.7012 14.4659
L24.7617 14.5264
" />
<path d="M24.7617 14.5264
L24.8826 14.5868
" />
<path d="M24.8826 14.5868
L25.1245 14.5868
" />
<path d="M25.1245 14.5868
L25.2455 14.5264
" />
<path d="M25.2455 14.5264
L25.3060 14.4659
" />
<path d="M25.3060 14.4659
L25.3664 14.3449
" />
<path d="M25.3664 14.3449
L25.3664 14.1030
" />
<path d="M25.3664 14.1030
L25.3060 13.9821
" />
<path d="M25.3060 13.9821
L25.2455 13.9216
" />
<path d="M25.2455 13.9216
L25.1245 13.8611
" />
<path d="M25.1245 13.8611
L24.8826 13.8611
" />
<path d="M24.8826 13.8611
L24.7617 13.9216
" />
<path d="M24.7617 13.9216
L24.7012 13.9821
" />
<path d="M24.7012 13.9821
L24.6407 14.1030
" />
</g></g>
<g style="fill:#840084; fill-opacity:0.0; 
stroke:#840084; stroke-width:0.1524; stroke-opacity:1; 
stroke-linecap:round; stroke-linejoin:round;">
</g>
<g style="fill:#006464; fill-opacity:0.0; 
stroke:#006464; stroke-width:0.1524; stroke-opacity:1; 
stroke-linecap:round; stroke-linejoin:round;">
</g>
<g style="fill:#006464; fill-opacity:0.0; 
stroke:#006464; stroke-width:0.1588; stroke-opacity:1; 
stroke-linecap:round; stroke-linejoin:round;">
<text x="33.4069" y="3.4291"
textLength="2.5621" font-size="1.6933" lengthAdjust="spacingAndGlyphs"
text-anchor="middle" opacity="0">U?</text>
<g class="stroked-text"><desc>U?</desc>
<path d="M32.4997 2.1116
L32.4997 3.1397
" />
<path d="M32.4997 3.1397
L32.5602 3.2607
" />
<path d="M32.5602 3.2607
L32.6207 3.3212
" />
<path d="M32.6207 3.3212
L32.7416 3.3816
" />
<path d="M32.7416 3.3816
L32.9835 3.3816
" />
<path d="M32.9835 3.3816
L33.1045 3.3212
" />
<path d="M33.1045 3.3212
L33.1650 3.2607
" />
<path d="M33.1650 3.2607
L33.2254 3.1397
" />
<path d="M33.2254 3.1397
L33.2254 2.1116
" />
<path d="M34.0117 3.2607
L34.0721 3.3212
" />
<path d="M34.0721 3.3212
L34.0117 3.3816
" />
<path d="M34.0117 3.3816
L33.9512 3.3212
" />
<path d="M33.9512 3.3212
L34.0117 3.2607
" />
<path d="M34.0117 3.2607
L34.0117 3.3816
" />
<path d="M33.7698 2.1721
L33.8907 2.1116
" />
<path d="M33.8907 2.1116
L34.1931 2.1116
" />
<path d="M34.1931 2.1116
L34.3140 2.1721
" />
<path d="M34.3140 2.1721
L34.3745 2.2931
" />
<path d="M34.3745 2.2931
L34.3745 2.4140
" />
<path d="M34.3745 2.4140
L34.3140 2.5350
" />
<path d="M34.3140 2.5350
L34.2536 2.5954
" />
<path d="M34.2536 2.5954
L34.1326 2.6559
" />
<path d="M34.1326 2.6559
L34.0721 2.7164
" />
<path d="M34.0721 2.7164
L34.0117 2.8373
" />
<path d="M34.0117 2.8373
L34.0117 2.8978
" />
</g><text x="34.5861" y="5.9691"
textLength="7.4605" font-size="1.6933" lengthAdjust="spacingAndGlyphs"
text-anchor="middle" opacity="0">LM4250</text>
<g class="stroked-text"><desc>LM4250</desc>
<path d="M31.8345 5.9216
L31.2297 5.9216
" />
<path d="M31.2297 5.9216
L31.2297 4.6516
" />
<path d="M32.2578 5.9216
L32.2578 4.6516
" />
<path d="M32.2578 4.6516
L32.6812 5.5588
" />
<path d="M32.6812 5.5588
L33.1045 4.6516
" />
<path d="M33.1045 4.6516
L33.1045 5.9216
" />
<path d="M34.2535 5.0750
L34.2535 5.9216
" />
<path d="M33.9511 4.5912
L33.6488 5.4983
" />
<path d="M33.6488 5.4983
L34.4349 5.4983
" />
<path d="M34.8583 4.7726
L34.9187 4.7121
" />
<path d="M34.9187 4.7121
L35.0397 4.6516
" />
<path d="M35.0397 4.6516
L35.3421 4.6516
" />
<path d="M35.3421 4.6516
L35.4630 4.7121
" />
<path d="M35.4630 4.7121
L35.5235 4.7726
" />
<path d="M35.5235 4.7726
L35.5840 4.8935
" />
<path d="M35.5840 4.8935
L35.5840 5.0145
" />
<path d="M35.5840 5.0145
L35.5235 5.1959
" />
<path d="M35.5235 5.1959
L34.7978 5.9216
" />
<path d="M34.7978 5.9216
L35.5840 5.9216
" />
<path d="M36.7330 4.6516
L36.1282 4.6516
" />
<path d="M36.1282 4.6516
L36.0678 5.2564
" />
<path d="M36.0678 5.2564
L36.1282 5.1959
" />
<path d="M36.1282 5.1959
L36.2492 5.1354
" />
<path d="M36.2492 5.1354
L36.5516 5.1354
" />
<path d="M36.5516 5.1354
L36.6725 5.1959
" />
<path d="M36.6725 5.1959
L36.7330 5.2564
" />
<path d="M36.7330 5.2564
L36.7935 5.3773
" />
<path d="M36.7935 5.3773
L36.7935 5.6797
" />
<path d="M36.7935 5.6797
L36.7330 5.8007
" />
<path d="M36.7330 5.8007
L36.6725 5.8612
" />
<path d="M36.6725 5.8612
L36.5516 5.9216
" />
<path d="M36.5516 5.9216
L36.2492 5.9216
" />
<path d="M36.2492 5.9216
L36.1282 5.8612
" />
<path d="M36.1282 5.8612
L36.0678 5.8007
" />
<path d="M37.5796 4.6516
L37.7006 4.6516
" />
<path d="M37.7006 4.6516
L37.8215 4.7121
" />
<path d="M37.8215 4.7121
L37.8820 4.7726
" />
<path d="M37.8820 4.7726
L37.9425 4.8935
" />
<path d="M37.9425 4.8935
L38.0030 5.1354
" />
<path d="M38.0030 5.1354
L38.0030 5.4378
" />
<path d="M38.0030 5.4378
L37.9425 5.6797
" />
<path d="M37.9425 5.6797
L37.8820 5.8007
" />
<path d="M37.8820 5.8007
L37.8215 5.8612
" />
<path d="M37.8215 5.8612
L37.7006 5.9216
" />
<path d="M37.7006 5.9216
L37.5796 5.9216
" />
<path d="M37.5796 5.9216
L37.4587 5.8612
" />
<path d="M37.4587 5.8612
L37.3982 5.8007
" />
<path d="M37.3982 5.8007
L37.3377 5.6797
" />
<path d="M37.3377 5.6797
L37.2773 5.4378
" />
<path d="M37.2773 5.4378
L37.2773 5.1354
" />
<path d="M37.2773 5.1354
L37.3377 4.8935
" />
<path d="M37.3377 4.8935
L37.3982 4.7726
" />
<path d="M37.3982 4.7726
L37.4587 4.7121
" />
<path d="M37.4587 4.7121
L37.5796 4.6516
" />
</g></g>
<g style="fill:#840084; fill-opacity:0.0; 
stroke:#840084; stroke-width:0.1588; stroke-opacity:1; 
stroke-linecap:round; stroke-linejoin:round;">
<text x="27.0459" y="5.9691"
textLength="45.0766" font-size="1.6933" lengthAdjust="spacingAndGlyphs"
text-anchor="middle" opacity="0">http://www.ti.com/lit/ds/symlink/lm4250.pdf</text>
<g class="stroked-text"><desc>http://www.ti.com/lit/ds/symlink/lm4250.pdf</desc>
<path d="M4.8814 5.9216
L4.8814 4.6516
" />
<path d="M5.4257 5.9216
L5.4257 5.2564
" />
<path d="M5.4257 5.2564
L5.3652 5.1354
" />
<path d="M5.3652 5.1354
L5.2443 5.0750
" />
<path d="M5.2443 5.0750
L5.0629 5.0750
" />
<path d="M5.0629 5.0750
L4.9419 5.1354
" />
<path d="M4.9419 5.1354
L4.8814 5.1959
" />
<path d="M5.8490 5.0750
L6.3328 5.0750
" />
<path d="M6.0304 4.6516
L6.0304 5.7402
" />
<path d="M6.0304 5.7402
L6.0909 5.8612
" />
<path d="M6.0909 5.8612
L6.2119 5.9216
" />
<path d="M6.2119 5.9216
L6.3328 5.9216
" />
<path d="M6.5747 5.0750
L7.0585 5.0750
" />
<path d="M6.7561 4.6516
L6.7561 5.7402
" />
<path d="M6.7561 5.7402
L6.8166 5.8612
" />
<path d="M6.8166 5.8612
L6.9376 5.9216
" />
<path d="M6.9376 5.9216
L7.0585 5.9216
" />
<path d="M7.4818 5.0750
L7.4818 6.3450
" />
<path d="M7.4818 5.1354
L7.6028 5.0750
" />
<path d="M7.6028 5.0750
L7.8447 5.0750
" />
<path d="M7.8447 5.0750
L7.9656 5.1354
" />
<path d="M7.9656 5.1354
L8.0261 5.1959
" />
<path d="M8.0261 5.1959
L8.0866 5.3169
" />
<path d="M8.0866 5.3169
L8.0866 5.6797
" />
<path d="M8.0866 5.6797
L8.0261 5.8007
" />
<path d="M8.0261 5.8007
L7.9656 5.8612
" />
<path d="M7.9656 5.8612
L7.8447 5.9216
" />
<path d="M7.8447 5.9216
L7.6028 5.9216
" />
<path d="M7.6028 5.9216
L7.4818 5.8612
" />
<path d="M8.6308 5.8007
L8.6913 5.8612
" />
<path d="M8.6913 5.8612
L8.6308 5.9216
" />
<path d="M8.6308 5.9216
L8.5704 5.8612
" />
<path d="M8.5704 5.8612
L8.6308 5.8007
" />
<path d="M8.6308 5.8007
L8.6308 5.9216
" />
<path d="M8.6308 5.1354
L8.6913 5.1959
" />
<path d="M8.6913 5.1959
L8.6308 5.2564
" />
<path d="M8.6308 5.2564
L8.5704 5.1959
" />
<path d="M8.5704 5.1959
L8.6308 5.1354
" />
<path d="M8.6308 5.1354
L8.6308 5.2564
" />
<path d="M10.1428 4.5912
L9.0542 6.2240
" />
<path d="M11.4733 4.5912
L10.3847 6.2240
" />
<path d="M11.7757 5.0750
L12.0176 5.9216
" />
<path d="M12.0176 5.9216
L12.2595 5.3169
" />
<path d="M12.2595 5.3169
L12.5014 5.9216
" />
<path d="M12.5014 5.9216
L12.7433 5.0750
" />
<path d="M13.1062 5.0750
L13.3481 5.9216
" />
<path d="M13.3481 5.9216
L13.5900 5.3169
" />
<path d="M13.5900 5.3169
L13.8319 5.9216
" />
<path d="M13.8319 5.9216
L14.0738 5.0750
" />
<path d="M14.4367 5.0750
L14.6786 5.9216
" />
<path d="M14.6786 5.9216
L14.9205 5.3169
" />
<path d="M14.9205 5.3169
L15.1624 5.9216
" />
<path d="M15.1624 5.9216
L15.4043 5.0750
" />
<path d="M15.8881 5.8007
L15.9486 5.8612
" />
<path d="M15.9486 5.8612
L15.8881 5.9216
" />
<path d="M15.8881 5.9216
L15.8277 5.8612
" />
<path d="M15.8277 5.8612
L15.8881 5.8007
" />
<path d="M15.8881 5.8007
L15.8881 5.9216
" />
<path d="M16.3115 5.0750
L16.7953 5.0750
" />
<path d="M16.4929 4.6516
L16.4929 5.7402
" />
<path d="M16.4929 5.7402
L16.5534 5.8612
" />
<path d="M16.5534 5.8612
L16.6744 5.9216
" />
<path d="M16.6744 5.9216
L16.7953 5.9216
" />
<path d="M17.2186 5.9216
L17.2186 5.0750
" />
<path d="M17.2186 4.6516
L17.1582 4.7121
" />
<path d="M17.1582 4.7121
L17.2186 4.7726
" />
<path d="M17.2186 4.7726
L17.2791 4.7121
" />
<path d="M17.2791 4.7121
L17.2186 4.6516
" />
<path d="M17.2186 4.6516
L17.2186 4.7726
" />
<path d="M17.8234 5.8007
L17.8839 5.8612
" />
<path d="M17.8839 5.8612
L17.8234 5.9216
" />
<path d="M17.8234 5.9216
L17.7630 5.8612
" />
<path d="M17.7630 5.8612
L17.8234 5.8007
" />
<path d="M17.8234 5.8007
L17.8234 5.9216
" />
<path d="M18.9725 5.8612
L18.8516 5.9216
" />
<path d="M18.8516 5.9216
L18.6097 5.9216
" />
<path d="M18.6097 5.9216
L18.4887 5.8612
" />
<path d="M18.4887 5.8612
L18.4282 5.8007
" />
<path d="M18.4282 5.8007
L18.3678 5.6797
" />
<path d="M18.3678 5.6797
L18.3678 5.3169
" />
<path d="M18.3678 5.3169
L18.4282 5.1959
" />
<path d="M18.4282 5.1959
L18.4887 5.1354
" />
<path d="M18.4887 5.1354
L18.6097 5.0750
" />
<path d="M18.6097 5.0750
L18.8516 5.0750
" />
<path d="M18.8516 5.0750
L18.9725 5.1354
" />
<path d="M19.6983 5.9216
L19.5773 5.8612
" />
<path d="M19.5773 5.8612
L19.5168 5.8007
" />
<path d="M19.5168 5.8007
L19.4564 5.6797
" />
<path d="M19.4564 5.6797
L19.4564 5.3169
" />
<path d="M19.4564 5.3169
L19.5168 5.1959
" />
<path d="M19.5168 5.1959
L19.5773 5.1354
" />
<path d="M19.5773 5.1354
L19.6983 5.0750
" />
<path d="M19.6983 5.0750
L19.8797 5.0750
" />
<path d="M19.8797 5.0750
L20.0006 5.1354
" />
<path d="M20.0006 5.1354
L20.0611 5.1959
" />
<path d="M20.0611 5.1959
L20.1216 5.3169
" />
<path d="M20.1216 5.3169
L20.1216 5.6797
" />
<path d="M20.1216 5.6797
L20.0611 5.8007
" />
<path d="M20.0611 5.8007
L20.0006 5.8612
" />
<path d="M20.0006 5.8612
L19.8797 5.9216
" />
<path d="M19.8797 5.9216
L19.6983 5.9216
" />
<path d="M20.6658 5.9216
L20.6658 5.0750
" />
<path d="M20.6658 5.1959
L20.7263 5.1354
" />
<path d="M20.7263 5.1354
L20.8473 5.0750
" />
<path d="M20.8473 5.0750
L21.0287 5.0750
" />
<path d="M21.0287 5.0750
L21.1496 5.1354
" />
<path d="M21.1496 5.1354
L21.2101 5.2564
" />
<path d="M21.2101 5.2564
L21.2101 5.9216
" />
<path d="M21.2101 5.2564
L21.2706 5.1354
" />
<path d="M21.2706 5.1354
L21.3915 5.0750
" />
<path d="M21.3915 5.0750
L21.5730 5.0750
" />
<path d="M21.5730 5.0750
L21.6939 5.1354
" />
<path d="M21.6939 5.1354
L21.7544 5.2564
" />
<path d="M21.7544 5.2564
L21.7544 5.9216
" />
<path d="M23.2663 4.5912
L22.1777 6.2240
" />
<path d="M23.8711 5.9216
L23.7501 5.8612
" />
<path d="M23.7501 5.8612
L23.6896 5.7402
" />
<path d="M23.6896 5.7402
L23.6896 4.6516
" />
<path d="M24.3548 5.9216
L24.3548 5.0750
" />
<path d="M24.3548 4.6516
L24.2944 4.7121
" />
<path d="M24.2944 4.7121
L24.3548 4.7726
" />
<path d="M24.3548 4.7726
L24.4153 4.7121
" />
<path d="M24.4153 4.7121
L24.3548 4.6516
" />
<path d="M24.3548 4.6516
L24.3548 4.7726
" />
<path d="M24.7782 5.0750
L25.2620 5.0750
" />
<path d="M24.9596 4.6516
L24.9596 5.7402
" />
<path d="M24.9596 5.7402
L25.0201 5.8612
" />
<path d="M25.0201 5.8612
L25.1411 5.9216
" />
<path d="M25.1411 5.9216
L25.2620 5.9216
" />
<path d="M26.5925 4.5912
L25.5039 6.2240
" />
<path d="M27.5601 5.9216
L27.5601 4.6516
" />
<path d="M27.5601 5.8612
L27.4392 5.9216
" />
<path d="M27.4392 5.9216
L27.1973 5.9216
" />
<path d="M27.1973 5.9216
L27.0763 5.8612
" />
<path d="M27.0763 5.8612
L27.0158 5.8007
" />
<path d="M27.0158 5.8007
L26.9554 5.6797
" />
<path d="M26.9554 5.6797
L26.9554 5.3169
" />
<path d="M26.9554 5.3169
L27.0158 5.1959
" />
<path d="M27.0158 5.1959
L27.0763 5.1354
" />
<path d="M27.0763 5.1354
L27.1973 5.0750
" />
<path d="M27.1973 5.0750
L27.4392 5.0750
" />
<path d="M27.4392 5.0750
L27.5601 5.1354
" />
<path d="M28.1044 5.8612
L28.2253 5.9216
" />
<path d="M28.2253 5.9216
L28.4672 5.9216
" />
<path d="M28.4672 5.9216
L28.5882 5.8612
" />
<path d="M28.5882 5.8612
L28.6486 5.7402
" />
<path d="M28.6486 5.7402
L28.6486 5.6797
" />
<path d="M28.6486 5.6797
L28.5882 5.5588
" />
<path d="M28.5882 5.5588
L28.4672 5.4983
" />
<path d="M28.4672 5.4983
L28.2858 5.4983
" />
<path d="M28.2858 5.4983
L28.1648 5.4378
" />
<path d="M28.1648 5.4378
L28.1044 5.3169
" />
<path d="M28.1044 5.3169
L28.1044 5.2564
" />
<path d="M28.1044 5.2564
L28.1648 5.1354
" />
<path d="M28.1648 5.1354
L28.2858 5.0750
" />
<path d="M28.2858 5.0750
L28.4672 5.0750
" />
<path d="M28.4672 5.0750
L28.5882 5.1354
" />
<path d="M30.1001 4.5912
L29.0115 6.2240
" />
<path d="M30.4630 5.8612
L30.5839 5.9216
" />
<path d="M30.5839 5.9216
L30.8258 5.9216
" />
<path d="M30.8258 5.9216
L30.9468 5.8612
" />
<path d="M30.9468 5.8612
L31.0072 5.7402
" />
<path d="M31.0072 5.7402
L31.0072 5.6797
" />
<path d="M31.0072 5.6797
L30.9468 5.5588
" />
<path d="M30.9468 5.5588
L30.8258 5.4983
" />
<path d="M30.8258 5.4983
L30.6444 5.4983
" />
<path d="M30.6444 5.4983
L30.5234 5.4378
" />
<path d="M30.5234 5.4378
L30.4630 5.3169
" />
<path d="M30.4630 5.3169
L30.4630 5.2564
" />
<path d="M30.4630 5.2564
L30.5234 5.1354
" />
<path d="M30.5234 5.1354
L30.6444 5.0750
" />
<path d="M30.6444 5.0750
L30.8258 5.0750
" />
<path d="M30.8258 5.0750
L30.9468 5.1354
" />
<path d="M31.4306 5.0750
L31.7330 5.9216
" />
<path d="M32.0353 5.0750
L31.7330 5.9216
" />
<path d="M31.7330 5.9216
L31.6120 6.2240
" />
<path d="M31.6120 6.2240
L31.5515 6.2845
" />
<path d="M31.5515 6.2845
L31.4306 6.3450
" />
<path d="M32.5191 5.9216
L32.5191 5.0750
" />
<path d="M32.5191 5.1959
L32.5796 5.1354
" />
<path d="M32.5796 5.1354
L32.7006 5.0750
" />
<path d="M32.7006 5.0750
L32.8820 5.0750
" />
<path d="M32.8820 5.0750
L33.0029 5.1354
" />
<path d="M33.0029 5.1354
L33.0634 5.2564
" />
<path d="M33.0634 5.2564
L33.0634 5.9216
" />
<path d="M33.0634 5.2564
L33.1239 5.1354
" />
<path d="M33.1239 5.1354
L33.2448 5.0750
" />
<path d="M33.2448 5.0750
L33.4263 5.0750
" />
<path d="M33.4263 5.0750
L33.5472 5.1354
" />
<path d="M33.5472 5.1354
L33.6077 5.2564
" />
<path d="M33.6077 5.2564
L33.6077 5.9216
" />
<path d="M34.3939 5.9216
L34.2729 5.8612
" />
<path d="M34.2729 5.8612
L34.2124 5.7402
" />
<path d="M34.2124 5.7402
L34.2124 4.6516
" />
<path d="M34.8776 5.9216
L34.8776 5.0750
" />
<path d="M34.8776 4.6516
L34.8172 4.7121
" />
<path d="M34.8172 4.7121
L34.8776 4.7726
" />
<path d="M34.8776 4.7726
L34.9381 4.7121
" />
<path d="M34.9381 4.7121
L34.8776 4.6516
" />
<path d="M34.8776 4.6516
L34.8776 4.7726
" />
<path d="M35.4824 5.0750
L35.4824 5.9216
" />
<path d="M35.4824 5.1959
L35.5429 5.1354
" />
<path d="M35.5429 5.1354
L35.6639 5.0750
" />
<path d="M35.6639 5.0750
L35.8453 5.0750
" />
<path d="M35.8453 5.0750
L35.9662 5.1354
" />
<path d="M35.9662 5.1354
L36.0267 5.2564
" />
<path d="M36.0267 5.2564
L36.0267 5.9216
" />
<path d="M36.6314 5.9216
L36.6314 4.6516
" />
<path d="M36.7524 5.4378
L37.1152 5.9216
" />
<path d="M37.1152 5.0750
L36.6314 5.5588
" />
<path d="M38.5667 4.5912
L37.4781 6.2240
" />
<path d="M39.1715 5.9216
L39.0505 5.8612
" />
<path d="M39.0505 5.8612
L38.9900 5.7402
" />
<path d="M38.9900 5.7402
L38.9900 4.6516
" />
<path d="M39.6552 5.9216
L39.6552 5.0750
" />
<path d="M39.6552 5.1959
L39.7157 5.1354
" />
<path d="M39.7157 5.1354
L39.8367 5.0750
" />
<path d="M39.8367 5.0750
L40.0181 5.0750
" />
<path d="M40.0181 5.0750
L40.1390 5.1354
" />
<path d="M40.1390 5.1354
L40.1995 5.2564
" />
<path d="M40.1995 5.2564
L40.1995 5.9216
" />
<path d="M40.1995 5.2564
L40.2600 5.1354
" />
<path d="M40.2600 5.1354
L40.3809 5.0750
" />
<path d="M40.3809 5.0750
L40.5624 5.0750
" />
<path d="M40.5624 5.0750
L40.6833 5.1354
" />
<path d="M40.6833 5.1354
L40.7438 5.2564
" />
<path d="M40.7438 5.2564
L40.7438 5.9216
" />
<path d="M41.8928 5.0750
L41.8928 5.9216
" />
<path d="M41.5904 4.5912
L41.2881 5.4983
" />
<path d="M41.2881 5.4983
L42.0742 5.4983
" />
<path d="M42.4976 4.7726
L42.5580 4.7121
" />
<path d="M42.5580 4.7121
L42.6790 4.6516
" />
<path d="M42.6790 4.6516
L42.9814 4.6516
" />
<path d="M42.9814 4.6516
L43.1023 4.7121
" />
<path d="M43.1023 4.7121
L43.1628 4.7726
" />
<path d="M43.1628 4.7726
L43.2233 4.8935
" />
<path d="M43.2233 4.8935
L43.2233 5.0145
" />
<path d="M43.2233 5.0145
L43.1628 5.1959
" />
<path d="M43.1628 5.1959
L42.4371 5.9216
" />
<path d="M42.4371 5.9216
L43.2233 5.9216
" />
<path d="M44.3723 4.6516
L43.7675 4.6516
" />
<path d="M43.7675 4.6516
L43.7071 5.2564
" />
<path d="M43.7071 5.2564
L43.7675 5.1959
" />
<path d="M43.7675 5.1959
L43.8885 5.1354
" />
<path d="M43.8885 5.1354
L44.1909 5.1354
" />
<path d="M44.1909 5.1354
L44.3118 5.1959
" />
<path d="M44.3118 5.1959
L44.3723 5.2564
" />
<path d="M44.3723 5.2564
L44.4328 5.3773
" />
<path d="M44.4328 5.3773
L44.4328 5.6797
" />
<path d="M44.4328 5.6797
L44.3723 5.8007
" />
<path d="M44.3723 5.8007
L44.3118 5.8612
" />
<path d="M44.3118 5.8612
L44.1909 5.9216
" />
<path d="M44.1909 5.9216
L43.8885 5.9216
" />
<path d="M43.8885 5.9216
L43.7675 5.8612
" />
<path d="M43.7675 5.8612
L43.7071 5.8007
" />
<path d="M45.2189 4.6516
L45.3399 4.6516
" />
<path d="M45.3399 4.6516
L45.4608 4.7121
" />
<path d="M45.4608 4.7121
L45.5213 4.7726
" />
<path d="M45.5213 4.7726
L45.5818 4.8935
" />
<path d="M45.5818 4.8935
L45.6423 5.1354
" />
<path d="M45.6423 5.1354
L45.6423 5.4378
" />
<path d="M45.6423 5.4378
L45.5818 5.6797
" />
<path d="M45.5818 5.6797
L45.5213 5.8007
" />
<path d="M45.5213 5.8007
L45.4608 5.8612
" />
<path d="M45.4608 5.8612
L45.3399 5.9216
" />
<path d="M45.3399 5.9216
L45.2189 5.9216
" />
<path d="M45.2189 5.9216
L45.0980 5.8612
" />
<path d="M45.0980 5.8612
L45.0375 5.8007
" />
<path d="M45.0375 5.8007
L44.9770 5.6797
" />
<path d="M44.9770 5.6797
L44.9166 5.4378
" />
<path d="M44.9166 5.4378
L44.9166 5.1354
" />
<path d="M44.9166 5.1354
L44.9770 4.8935
" />
<path d="M44.9770 4.8935
L45.0375 4.7726
" />
<path d="M45.0375 4.7726
L45.0980 4.7121
" />
<path d="M45.0980 4.7121
L45.2189 4.6516
" />
<path d="M46.1865 5.8007
L46.2470 5.8612
" />
<path d="M46.2470 5.8612
L46.1865 5.9216
" />
<path d="M46.1865 5.9216
L46.1261 5.8612
" />
<path d="M46.1261 5.8612
L46.1865 5.8007
" />
<path d="M46.1865 5.8007
L46.1865 5.9216
" />
<path d="M46.7913 5.0750
L46.7913 6.3450
" />
<path d="M46.7913 5.1354
L46.9123 5.0750
" />
<path d="M46.9123 5.0750
L47.1542 5.0750
" />
<path d="M47.1542 5.0750
L47.2751 5.1354
" />
<path d="M47.2751 5.1354
L47.3356 5.1959
" />
<path d="M47.3356 5.1959
L47.3961 5.3169
" />
<path d="M47.3961 5.3169
L47.3961 5.6797
" />
<path d="M47.3961 5.6797
L47.3356 5.8007
" />
<path d="M47.3356 5.8007
L47.2751 5.8612
" />
<path d="M47.2751 5.8612
L47.1542 5.9216
" />
<path d="M47.1542 5.9216
L46.9123 5.9216
" />
<path d="M46.9123 5.9216
L46.7913 5.8612
" />
<path d="M48.4846 5.9216
L48.4846 4.6516
" />
<path d="M48.4846 5.8612
L48.3637 5.9216
" />
<path d="M48.3637 5.9216
L48.1218 5.9216
" />
<path d="M48.1218 5.9216
L48.0008 5.8612
" />
<path d="M48.0008 5.8612
L47.9403 5.8007
" />
<path d="M47.9403 5.8007
L47.8799 5.6797
" />
<path d="M47.8799 5.6797
L47.8799 5.3169
" />
<path d="M47.8799 5.3169
L47.9403 5.1959
" />
<path d="M47.9403 5.1959
L48.0008 5.1354
" />
<path d="M48.0008 5.1354
L48.1218 5.0750
" />
<path d="M48.1218 5.0750
L48.3637 5.0750
" />
<path d="M48.3637 5.0750
L48.4846 5.1354
" />
<path d="M48.9079 5.0750
L49.3917 5.0750
" />
<path d="M49.0893 5.9216
L49.0893 4.8331
" />
<path d="M49.0893 4.8331
L49.1498 4.7121
" />
<path d="M49.1498 4.7121
L49.2708 4.6516
" />
<path d="M49.2708 4.6516
L49.3917 4.6516
" />
</g></g> 
</svg>
