<?xml version="1.0" standalone="no"?>
 <!DOCTYPE svg PUBLIC "-//W3C//DTD SVG 1.1//EN" 
 "http://www.w3.org/Graphics/SVG/1.1/DTD/svg11.dtd"> 
<svg
  xmlns:svg="http://www.w3.org/2000/svg"
  xmlns="http://www.w3.org/2000/svg"
  xmlns:xlink="http://www.w3.org/1999/xlink"
  version="1.1"
  width="14.0208mm" height="62.9666mm" viewBox="0.0000 0.0000 14.0208 62.9666">
<title>SVG Image created as working.svg date 2023/08/01 19:11:10 </title>
  <desc>Image generated by Eeschema-SVG </desc>
<g style="fill:#000000; fill-opacity:1.0000;stroke:#000000; stroke-opacity:1.0000;
stroke-linecap:round; stroke-linejoin:round;"
 transform="translate(0 0) scale(1 1)">
</g>
<g style="fill:#840000; fill-opacity:0.0; 
stroke:#840000; stroke-width:0.0000; stroke-opacity:1; 
stroke-linecap:round; stroke-linejoin:round;">
</g>
<g style="fill:#FFFFC2; fill-opacity:0.0; 
stroke:#FFFFC2; stroke-width:0.0000; stroke-opacity:1; 
stroke-linecap:round; stroke-linejoin:round;">
</g>
<g style="fill:#FFFFC2; fill-opacity:1.0000; 
stroke:#FFFFC2; stroke-width:0.0000; stroke-opacity:1; 
stroke-linecap:round; stroke-linejoin:round;">
<rect x="5.746100" y="7.350200" width="2.540000" height="48.260000" rx="0.000000" />
</g>
<g style="fill:#840084; fill-opacity:1.0000; 
stroke:#840084; stroke-width:0.0000; stroke-opacity:1; 
stroke-linecap:round; stroke-linejoin:round;">
</g>
<g style="fill:#840000; fill-opacity:1.0000; 
stroke:#840000; stroke-width:0.0000; stroke-opacity:1; 
stroke-linecap:round; stroke-linejoin:round;">
</g>
<g style="fill:#840000; fill-opacity:0.0; 
stroke:#840000; stroke-width:0.1524; stroke-opacity:1; 
stroke-linecap:round; stroke-linejoin:round;">
<rect x="5.746100" y="54.213200" width="1.270000" height="0.254000" rx="0.000000" />
<rect x="5.746100" y="51.673200" width="1.270000" height="0.254000" rx="0.000000" />
<rect x="5.746100" y="49.133200" width="1.270000" height="0.254000" rx="0.000000" />
<rect x="5.746100" y="46.593200" width="1.270000" height="0.254000" rx="0.000000" />
<rect x="5.746100" y="44.053200" width="1.270000" height="0.254000" rx="0.000000" />
<rect x="5.746100" y="41.513200" width="1.270000" height="0.254000" rx="0.000000" />
<rect x="5.746100" y="38.973200" width="1.270000" height="0.254000" rx="0.000000" />
<rect x="5.746100" y="36.433200" width="1.270000" height="0.254000" rx="0.000000" />
<rect x="5.746100" y="33.893200" width="1.270000" height="0.254000" rx="0.000000" />
<rect x="5.746100" y="31.353200" width="1.270000" height="0.254000" rx="0.000000" />
<rect x="5.746100" y="28.813200" width="1.270000" height="0.254000" rx="0.000000" />
<rect x="5.746100" y="26.273200" width="1.270000" height="0.254000" rx="0.000000" />
<rect x="5.746100" y="23.733200" width="1.270000" height="0.254000" rx="0.000000" />
<rect x="5.746100" y="21.193200" width="1.270000" height="0.254000" rx="0.000000" />
<rect x="5.746100" y="18.653200" width="1.270000" height="0.254000" rx="0.000000" />
<rect x="5.746100" y="16.113200" width="1.270000" height="0.254000" rx="0.000000" />
<rect x="5.746100" y="13.573200" width="1.270000" height="0.254000" rx="0.000000" />
<rect x="5.746100" y="11.033200" width="1.270000" height="0.254000" rx="0.000000" />
<rect x="5.746100" y="8.493200" width="1.270000" height="0.254000" rx="0.000000" />
</g>
<g style="fill:#840000; fill-opacity:0.0; 
stroke:#840000; stroke-width:0.2540; stroke-opacity:1; 
stroke-linecap:round; stroke-linejoin:round;">
<rect x="5.746100" y="7.350200" width="2.540000" height="48.260000" rx="0.000000" />
</g>
<g style="fill:#840000; fill-opacity:0.0; 
stroke:#840000; stroke-width:0.1524; stroke-opacity:1; 
stroke-linecap:round; stroke-linejoin:round;">
<path d="M5.7461 8.6202
L1.9361 8.6202
" />
</g>
<g style="fill:#A90000; fill-opacity:0.0; 
stroke:#A90000; stroke-width:0.1524; stroke-opacity:1; 
stroke-linecap:round; stroke-linejoin:round;">
<text x="3.8411" y="8.3662"
textLength="1.3365" font-size="1.6933" lengthAdjust="spacingAndGlyphs"
text-anchor="middle" opacity="0">1</text>
<g class="stroked-text"><desc>1</desc>
<path d="M4.2040 8.2107
L3.4783 8.2107
" />
<path d="M3.8411 8.2107
L3.8411 6.9407
" />
<path d="M3.8411 6.9407
L3.7202 7.1222
" />
<path d="M3.7202 7.1222
L3.5992 7.2431
" />
<path d="M3.5992 7.2431
L3.4783 7.3036
" />
</g></g>
<g style="fill:#840000; fill-opacity:0.0; 
stroke:#840000; stroke-width:0.1524; stroke-opacity:1; 
stroke-linecap:round; stroke-linejoin:round;">
<path d="M5.7461 31.4802
L1.9361 31.4802
" />
</g>
<g style="fill:#A90000; fill-opacity:0.0; 
stroke:#A90000; stroke-width:0.1524; stroke-opacity:1; 
stroke-linecap:round; stroke-linejoin:round;">
<text x="3.8411" y="31.2262"
textLength="2.5460" font-size="1.6933" lengthAdjust="spacingAndGlyphs"
text-anchor="middle" opacity="0">10</text>
<g class="stroked-text"><desc>10</desc>
<path d="M3.5992 31.0707
L2.8735 31.0707
" />
<path d="M3.2363 31.0707
L3.2363 29.8007
" />
<path d="M3.2363 29.8007
L3.1154 29.9822
" />
<path d="M3.1154 29.9822
L2.9944 30.1031
" />
<path d="M2.9944 30.1031
L2.8735 30.1636
" />
<path d="M4.3853 29.8007
L4.5063 29.8007
" />
<path d="M4.5063 29.8007
L4.6272 29.8612
" />
<path d="M4.6272 29.8612
L4.6877 29.9217
" />
<path d="M4.6877 29.9217
L4.7482 30.0426
" />
<path d="M4.7482 30.0426
L4.8087 30.2845
" />
<path d="M4.8087 30.2845
L4.8087 30.5869
" />
<path d="M4.8087 30.5869
L4.7482 30.8288
" />
<path d="M4.7482 30.8288
L4.6877 30.9498
" />
<path d="M4.6877 30.9498
L4.6272 31.0103
" />
<path d="M4.6272 31.0103
L4.5063 31.0707
" />
<path d="M4.5063 31.0707
L4.3853 31.0707
" />
<path d="M4.3853 31.0707
L4.2644 31.0103
" />
<path d="M4.2644 31.0103
L4.2039 30.9498
" />
<path d="M4.2039 30.9498
L4.1434 30.8288
" />
<path d="M4.1434 30.8288
L4.0830 30.5869
" />
<path d="M4.0830 30.5869
L4.0830 30.2845
" />
<path d="M4.0830 30.2845
L4.1434 30.0426
" />
<path d="M4.1434 30.0426
L4.2039 29.9217
" />
<path d="M4.2039 29.9217
L4.2644 29.8612
" />
<path d="M4.2644 29.8612
L4.3853 29.8007
" />
</g></g>
<g style="fill:#840000; fill-opacity:0.0; 
stroke:#840000; stroke-width:0.1524; stroke-opacity:1; 
stroke-linecap:round; stroke-linejoin:round;">
<path d="M5.7461 34.0202
L1.9361 34.0202
" />
</g>
<g style="fill:#A90000; fill-opacity:0.0; 
stroke:#A90000; stroke-width:0.1524; stroke-opacity:1; 
stroke-linecap:round; stroke-linejoin:round;">
<text x="3.8411" y="33.7662"
textLength="2.5460" font-size="1.6933" lengthAdjust="spacingAndGlyphs"
text-anchor="middle" opacity="0">11</text>
<g class="stroked-text"><desc>11</desc>
<path d="M3.5992 33.6107
L2.8735 33.6107
" />
<path d="M3.2363 33.6107
L3.2363 32.3407
" />
<path d="M3.2363 32.3407
L3.1154 32.5222
" />
<path d="M3.1154 32.5222
L2.9944 32.6431
" />
<path d="M2.9944 32.6431
L2.8735 32.7036
" />
<path d="M4.8087 33.6107
L4.0830 33.6107
" />
<path d="M4.4458 33.6107
L4.4458 32.3407
" />
<path d="M4.4458 32.3407
L4.3249 32.5222
" />
<path d="M4.3249 32.5222
L4.2039 32.6431
" />
<path d="M4.2039 32.6431
L4.0830 32.7036
" />
</g></g>
<g style="fill:#840000; fill-opacity:0.0; 
stroke:#840000; stroke-width:0.1524; stroke-opacity:1; 
stroke-linecap:round; stroke-linejoin:round;">
<path d="M5.7461 36.5602
L1.9361 36.5602
" />
</g>
<g style="fill:#A90000; fill-opacity:0.0; 
stroke:#A90000; stroke-width:0.1524; stroke-opacity:1; 
stroke-linecap:round; stroke-linejoin:round;">
<text x="3.8411" y="36.3062"
textLength="2.5460" font-size="1.6933" lengthAdjust="spacingAndGlyphs"
text-anchor="middle" opacity="0">12</text>
<g class="stroked-text"><desc>12</desc>
<path d="M3.5992 36.1507
L2.8735 36.1507
" />
<path d="M3.2363 36.1507
L3.2363 34.8807
" />
<path d="M3.2363 34.8807
L3.1154 35.0622
" />
<path d="M3.1154 35.0622
L2.9944 35.1831
" />
<path d="M2.9944 35.1831
L2.8735 35.2436
" />
<path d="M4.0830 35.0017
L4.1434 34.9412
" />
<path d="M4.1434 34.9412
L4.2644 34.8807
" />
<path d="M4.2644 34.8807
L4.5668 34.8807
" />
<path d="M4.5668 34.8807
L4.6877 34.9412
" />
<path d="M4.6877 34.9412
L4.7482 35.0017
" />
<path d="M4.7482 35.0017
L4.8087 35.1226
" />
<path d="M4.8087 35.1226
L4.8087 35.2436
" />
<path d="M4.8087 35.2436
L4.7482 35.4250
" />
<path d="M4.7482 35.4250
L4.0225 36.1507
" />
<path d="M4.0225 36.1507
L4.8087 36.1507
" />
</g></g>
<g style="fill:#840000; fill-opacity:0.0; 
stroke:#840000; stroke-width:0.1524; stroke-opacity:1; 
stroke-linecap:round; stroke-linejoin:round;">
<path d="M5.7461 39.1002
L1.9361 39.1002
" />
</g>
<g style="fill:#A90000; fill-opacity:0.0; 
stroke:#A90000; stroke-width:0.1524; stroke-opacity:1; 
stroke-linecap:round; stroke-linejoin:round;">
<text x="3.8411" y="38.8462"
textLength="2.5460" font-size="1.6933" lengthAdjust="spacingAndGlyphs"
text-anchor="middle" opacity="0">13</text>
<g class="stroked-text"><desc>13</desc>
<path d="M3.5992 38.6907
L2.8735 38.6907
" />
<path d="M3.2363 38.6907
L3.2363 37.4207
" />
<path d="M3.2363 37.4207
L3.1154 37.6022
" />
<path d="M3.1154 37.6022
L2.9944 37.7231
" />
<path d="M2.9944 37.7231
L2.8735 37.7836
" />
<path d="M4.0225 37.4207
L4.8087 37.4207
" />
<path d="M4.8087 37.4207
L4.3853 37.9045
" />
<path d="M4.3853 37.9045
L4.5668 37.9045
" />
<path d="M4.5668 37.9045
L4.6877 37.9650
" />
<path d="M4.6877 37.9650
L4.7482 38.0255
" />
<path d="M4.7482 38.0255
L4.8087 38.1464
" />
<path d="M4.8087 38.1464
L4.8087 38.4488
" />
<path d="M4.8087 38.4488
L4.7482 38.5698
" />
<path d="M4.7482 38.5698
L4.6877 38.6303
" />
<path d="M4.6877 38.6303
L4.5668 38.6907
" />
<path d="M4.5668 38.6907
L4.2039 38.6907
" />
<path d="M4.2039 38.6907
L4.0830 38.6303
" />
<path d="M4.0830 38.6303
L4.0225 38.5698
" />
</g></g>
<g style="fill:#840000; fill-opacity:0.0; 
stroke:#840000; stroke-width:0.1524; stroke-opacity:1; 
stroke-linecap:round; stroke-linejoin:round;">
<path d="M5.7461 41.6402
L1.9361 41.6402
" />
</g>
<g style="fill:#A90000; fill-opacity:0.0; 
stroke:#A90000; stroke-width:0.1524; stroke-opacity:1; 
stroke-linecap:round; stroke-linejoin:round;">
<text x="3.8411" y="41.3862"
textLength="2.5460" font-size="1.6933" lengthAdjust="spacingAndGlyphs"
text-anchor="middle" opacity="0">14</text>
<g class="stroked-text"><desc>14</desc>
<path d="M3.5992 41.2307
L2.8735 41.2307
" />
<path d="M3.2363 41.2307
L3.2363 39.9607
" />
<path d="M3.2363 39.9607
L3.1154 40.1422
" />
<path d="M3.1154 40.1422
L2.9944 40.2631
" />
<path d="M2.9944 40.2631
L2.8735 40.3236
" />
<path d="M4.6877 40.3841
L4.6877 41.2307
" />
<path d="M4.3853 39.9003
L4.0830 40.8074
" />
<path d="M4.0830 40.8074
L4.8691 40.8074
" />
</g></g>
<g style="fill:#840000; fill-opacity:0.0; 
stroke:#840000; stroke-width:0.1524; stroke-opacity:1; 
stroke-linecap:round; stroke-linejoin:round;">
<path d="M5.7461 44.1802
L1.9361 44.1802
" />
</g>
<g style="fill:#A90000; fill-opacity:0.0; 
stroke:#A90000; stroke-width:0.1524; stroke-opacity:1; 
stroke-linecap:round; stroke-linejoin:round;">
<text x="3.8411" y="43.9262"
textLength="2.5460" font-size="1.6933" lengthAdjust="spacingAndGlyphs"
text-anchor="middle" opacity="0">15</text>
<g class="stroked-text"><desc>15</desc>
<path d="M3.5992 43.7707
L2.8735 43.7707
" />
<path d="M3.2363 43.7707
L3.2363 42.5007
" />
<path d="M3.2363 42.5007
L3.1154 42.6822
" />
<path d="M3.1154 42.6822
L2.9944 42.8031
" />
<path d="M2.9944 42.8031
L2.8735 42.8636
" />
<path d="M4.7482 42.5007
L4.1434 42.5007
" />
<path d="M4.1434 42.5007
L4.0830 43.1055
" />
<path d="M4.0830 43.1055
L4.1434 43.0450
" />
<path d="M4.1434 43.0450
L4.2644 42.9845
" />
<path d="M4.2644 42.9845
L4.5668 42.9845
" />
<path d="M4.5668 42.9845
L4.6877 43.0450
" />
<path d="M4.6877 43.0450
L4.7482 43.1055
" />
<path d="M4.7482 43.1055
L4.8087 43.2264
" />
<path d="M4.8087 43.2264
L4.8087 43.5288
" />
<path d="M4.8087 43.5288
L4.7482 43.6498
" />
<path d="M4.7482 43.6498
L4.6877 43.7103
" />
<path d="M4.6877 43.7103
L4.5668 43.7707
" />
<path d="M4.5668 43.7707
L4.2644 43.7707
" />
<path d="M4.2644 43.7707
L4.1434 43.7103
" />
<path d="M4.1434 43.7103
L4.0830 43.6498
" />
</g></g>
<g style="fill:#840000; fill-opacity:0.0; 
stroke:#840000; stroke-width:0.1524; stroke-opacity:1; 
stroke-linecap:round; stroke-linejoin:round;">
<path d="M5.7461 46.7202
L1.9361 46.7202
" />
</g>
<g style="fill:#A90000; fill-opacity:0.0; 
stroke:#A90000; stroke-width:0.1524; stroke-opacity:1; 
stroke-linecap:round; stroke-linejoin:round;">
<text x="3.8411" y="46.4662"
textLength="2.5460" font-size="1.6933" lengthAdjust="spacingAndGlyphs"
text-anchor="middle" opacity="0">16</text>
<g class="stroked-text"><desc>16</desc>
<path d="M3.5992 46.3107
L2.8735 46.3107
" />
<path d="M3.2363 46.3107
L3.2363 45.0407
" />
<path d="M3.2363 45.0407
L3.1154 45.2222
" />
<path d="M3.1154 45.2222
L2.9944 45.3431
" />
<path d="M2.9944 45.3431
L2.8735 45.4036
" />
<path d="M4.6877 45.0407
L4.4458 45.0407
" />
<path d="M4.4458 45.0407
L4.3249 45.1012
" />
<path d="M4.3249 45.1012
L4.2644 45.1617
" />
<path d="M4.2644 45.1617
L4.1434 45.3431
" />
<path d="M4.1434 45.3431
L4.0830 45.5850
" />
<path d="M4.0830 45.5850
L4.0830 46.0688
" />
<path d="M4.0830 46.0688
L4.1434 46.1898
" />
<path d="M4.1434 46.1898
L4.2039 46.2503
" />
<path d="M4.2039 46.2503
L4.3249 46.3107
" />
<path d="M4.3249 46.3107
L4.5668 46.3107
" />
<path d="M4.5668 46.3107
L4.6877 46.2503
" />
<path d="M4.6877 46.2503
L4.7482 46.1898
" />
<path d="M4.7482 46.1898
L4.8087 46.0688
" />
<path d="M4.8087 46.0688
L4.8087 45.7664
" />
<path d="M4.8087 45.7664
L4.7482 45.6455
" />
<path d="M4.7482 45.6455
L4.6877 45.5850
" />
<path d="M4.6877 45.5850
L4.5668 45.5245
" />
<path d="M4.5668 45.5245
L4.3249 45.5245
" />
<path d="M4.3249 45.5245
L4.2039 45.5850
" />
<path d="M4.2039 45.5850
L4.1434 45.6455
" />
<path d="M4.1434 45.6455
L4.0830 45.7664
" />
</g></g>
<g style="fill:#840000; fill-opacity:0.0; 
stroke:#840000; stroke-width:0.1524; stroke-opacity:1; 
stroke-linecap:round; stroke-linejoin:round;">
<path d="M5.7461 49.2602
L1.9361 49.2602
" />
</g>
<g style="fill:#A90000; fill-opacity:0.0; 
stroke:#A90000; stroke-width:0.1524; stroke-opacity:1; 
stroke-linecap:round; stroke-linejoin:round;">
<text x="3.8411" y="49.0062"
textLength="2.5460" font-size="1.6933" lengthAdjust="spacingAndGlyphs"
text-anchor="middle" opacity="0">17</text>
<g class="stroked-text"><desc>17</desc>
<path d="M3.5992 48.8507
L2.8735 48.8507
" />
<path d="M3.2363 48.8507
L3.2363 47.5807
" />
<path d="M3.2363 47.5807
L3.1154 47.7622
" />
<path d="M3.1154 47.7622
L2.9944 47.8831
" />
<path d="M2.9944 47.8831
L2.8735 47.9436
" />
<path d="M4.0225 47.5807
L4.8691 47.5807
" />
<path d="M4.8691 47.5807
L4.3249 48.8507
" />
</g></g>
<g style="fill:#840000; fill-opacity:0.0; 
stroke:#840000; stroke-width:0.1524; stroke-opacity:1; 
stroke-linecap:round; stroke-linejoin:round;">
<path d="M5.7461 51.8002
L1.9361 51.8002
" />
</g>
<g style="fill:#A90000; fill-opacity:0.0; 
stroke:#A90000; stroke-width:0.1524; stroke-opacity:1; 
stroke-linecap:round; stroke-linejoin:round;">
<text x="3.8411" y="51.5462"
textLength="2.5460" font-size="1.6933" lengthAdjust="spacingAndGlyphs"
text-anchor="middle" opacity="0">18</text>
<g class="stroked-text"><desc>18</desc>
<path d="M3.5992 51.3907
L2.8735 51.3907
" />
<path d="M3.2363 51.3907
L3.2363 50.1207
" />
<path d="M3.2363 50.1207
L3.1154 50.3022
" />
<path d="M3.1154 50.3022
L2.9944 50.4231
" />
<path d="M2.9944 50.4231
L2.8735 50.4836
" />
<path d="M4.3249 50.6650
L4.2039 50.6045
" />
<path d="M4.2039 50.6045
L4.1434 50.5441
" />
<path d="M4.1434 50.5441
L4.0830 50.4231
" />
<path d="M4.0830 50.4231
L4.0830 50.3626
" />
<path d="M4.0830 50.3626
L4.1434 50.2417
" />
<path d="M4.1434 50.2417
L4.2039 50.1812
" />
<path d="M4.2039 50.1812
L4.3249 50.1207
" />
<path d="M4.3249 50.1207
L4.5668 50.1207
" />
<path d="M4.5668 50.1207
L4.6877 50.1812
" />
<path d="M4.6877 50.1812
L4.7482 50.2417
" />
<path d="M4.7482 50.2417
L4.8087 50.3626
" />
<path d="M4.8087 50.3626
L4.8087 50.4231
" />
<path d="M4.8087 50.4231
L4.7482 50.5441
" />
<path d="M4.7482 50.5441
L4.6877 50.6045
" />
<path d="M4.6877 50.6045
L4.5668 50.6650
" />
<path d="M4.5668 50.6650
L4.3249 50.6650
" />
<path d="M4.3249 50.6650
L4.2039 50.7255
" />
<path d="M4.2039 50.7255
L4.1434 50.7860
" />
<path d="M4.1434 50.7860
L4.0830 50.9069
" />
<path d="M4.0830 50.9069
L4.0830 51.1488
" />
<path d="M4.0830 51.1488
L4.1434 51.2698
" />
<path d="M4.1434 51.2698
L4.2039 51.3303
" />
<path d="M4.2039 51.3303
L4.3249 51.3907
" />
<path d="M4.3249 51.3907
L4.5668 51.3907
" />
<path d="M4.5668 51.3907
L4.6877 51.3303
" />
<path d="M4.6877 51.3303
L4.7482 51.2698
" />
<path d="M4.7482 51.2698
L4.8087 51.1488
" />
<path d="M4.8087 51.1488
L4.8087 50.9069
" />
<path d="M4.8087 50.9069
L4.7482 50.7860
" />
<path d="M4.7482 50.7860
L4.6877 50.7255
" />
<path d="M4.6877 50.7255
L4.5668 50.6650
" />
</g></g>
<g style="fill:#840000; fill-opacity:0.0; 
stroke:#840000; stroke-width:0.1524; stroke-opacity:1; 
stroke-linecap:round; stroke-linejoin:round;">
<path d="M5.7461 54.3402
L1.9361 54.3402
" />
</g>
<g style="fill:#A90000; fill-opacity:0.0; 
stroke:#A90000; stroke-width:0.1524; stroke-opacity:1; 
stroke-linecap:round; stroke-linejoin:round;">
<text x="3.8411" y="54.0862"
textLength="2.5460" font-size="1.6933" lengthAdjust="spacingAndGlyphs"
text-anchor="middle" opacity="0">19</text>
<g class="stroked-text"><desc>19</desc>
<path d="M3.5992 53.9307
L2.8735 53.9307
" />
<path d="M3.2363 53.9307
L3.2363 52.6607
" />
<path d="M3.2363 52.6607
L3.1154 52.8422
" />
<path d="M3.1154 52.8422
L2.9944 52.9631
" />
<path d="M2.9944 52.9631
L2.8735 53.0236
" />
<path d="M4.2039 53.9307
L4.4458 53.9307
" />
<path d="M4.4458 53.9307
L4.5668 53.8703
" />
<path d="M4.5668 53.8703
L4.6272 53.8098
" />
<path d="M4.6272 53.8098
L4.7482 53.6283
" />
<path d="M4.7482 53.6283
L4.8087 53.3864
" />
<path d="M4.8087 53.3864
L4.8087 52.9026
" />
<path d="M4.8087 52.9026
L4.7482 52.7817
" />
<path d="M4.7482 52.7817
L4.6877 52.7212
" />
<path d="M4.6877 52.7212
L4.5668 52.6607
" />
<path d="M4.5668 52.6607
L4.3249 52.6607
" />
<path d="M4.3249 52.6607
L4.2039 52.7212
" />
<path d="M4.2039 52.7212
L4.1434 52.7817
" />
<path d="M4.1434 52.7817
L4.0830 52.9026
" />
<path d="M4.0830 52.9026
L4.0830 53.2050
" />
<path d="M4.0830 53.2050
L4.1434 53.3260
" />
<path d="M4.1434 53.3260
L4.2039 53.3864
" />
<path d="M4.2039 53.3864
L4.3249 53.4469
" />
<path d="M4.3249 53.4469
L4.5668 53.4469
" />
<path d="M4.5668 53.4469
L4.6877 53.3864
" />
<path d="M4.6877 53.3864
L4.7482 53.3260
" />
<path d="M4.7482 53.3260
L4.8087 53.2050
" />
</g></g>
<g style="fill:#840000; fill-opacity:0.0; 
stroke:#840000; stroke-width:0.1524; stroke-opacity:1; 
stroke-linecap:round; stroke-linejoin:round;">
<path d="M5.7461 11.1602
L1.9361 11.1602
" />
</g>
<g style="fill:#A90000; fill-opacity:0.0; 
stroke:#A90000; stroke-width:0.1524; stroke-opacity:1; 
stroke-linecap:round; stroke-linejoin:round;">
<text x="3.8411" y="10.9062"
textLength="1.3365" font-size="1.6933" lengthAdjust="spacingAndGlyphs"
text-anchor="middle" opacity="0">2</text>
<g class="stroked-text"><desc>2</desc>
<path d="M3.4783 9.6017
L3.5387 9.5412
" />
<path d="M3.5387 9.5412
L3.6597 9.4807
" />
<path d="M3.6597 9.4807
L3.9621 9.4807
" />
<path d="M3.9621 9.4807
L4.0830 9.5412
" />
<path d="M4.0830 9.5412
L4.1435 9.6017
" />
<path d="M4.1435 9.6017
L4.2040 9.7226
" />
<path d="M4.2040 9.7226
L4.2040 9.8436
" />
<path d="M4.2040 9.8436
L4.1435 10.0250
" />
<path d="M4.1435 10.0250
L3.4178 10.7507
" />
<path d="M3.4178 10.7507
L4.2040 10.7507
" />
</g></g>
<g style="fill:#840000; fill-opacity:0.0; 
stroke:#840000; stroke-width:0.1524; stroke-opacity:1; 
stroke-linecap:round; stroke-linejoin:round;">
<path d="M5.7461 13.7002
L1.9361 13.7002
" />
</g>
<g style="fill:#A90000; fill-opacity:0.0; 
stroke:#A90000; stroke-width:0.1524; stroke-opacity:1; 
stroke-linecap:round; stroke-linejoin:round;">
<text x="3.8411" y="13.4462"
textLength="1.3365" font-size="1.6933" lengthAdjust="spacingAndGlyphs"
text-anchor="middle" opacity="0">3</text>
<g class="stroked-text"><desc>3</desc>
<path d="M3.4178 12.0207
L4.2040 12.0207
" />
<path d="M4.2040 12.0207
L3.7806 12.5045
" />
<path d="M3.7806 12.5045
L3.9621 12.5045
" />
<path d="M3.9621 12.5045
L4.0830 12.5650
" />
<path d="M4.0830 12.5650
L4.1435 12.6255
" />
<path d="M4.1435 12.6255
L4.2040 12.7464
" />
<path d="M4.2040 12.7464
L4.2040 13.0488
" />
<path d="M4.2040 13.0488
L4.1435 13.1698
" />
<path d="M4.1435 13.1698
L4.0830 13.2303
" />
<path d="M4.0830 13.2303
L3.9621 13.2907
" />
<path d="M3.9621 13.2907
L3.5992 13.2907
" />
<path d="M3.5992 13.2907
L3.4783 13.2303
" />
<path d="M3.4783 13.2303
L3.4178 13.1698
" />
</g></g>
<g style="fill:#840000; fill-opacity:0.0; 
stroke:#840000; stroke-width:0.1524; stroke-opacity:1; 
stroke-linecap:round; stroke-linejoin:round;">
<path d="M5.7461 16.2402
L1.9361 16.2402
" />
</g>
<g style="fill:#A90000; fill-opacity:0.0; 
stroke:#A90000; stroke-width:0.1524; stroke-opacity:1; 
stroke-linecap:round; stroke-linejoin:round;">
<text x="3.8411" y="15.9862"
textLength="1.3365" font-size="1.6933" lengthAdjust="spacingAndGlyphs"
text-anchor="middle" opacity="0">4</text>
<g class="stroked-text"><desc>4</desc>
<path d="M4.0830 14.9841
L4.0830 15.8307
" />
<path d="M3.7806 14.5003
L3.4783 15.4074
" />
<path d="M3.4783 15.4074
L4.2644 15.4074
" />
</g></g>
<g style="fill:#840000; fill-opacity:0.0; 
stroke:#840000; stroke-width:0.1524; stroke-opacity:1; 
stroke-linecap:round; stroke-linejoin:round;">
<path d="M5.7461 18.7802
L1.9361 18.7802
" />
</g>
<g style="fill:#A90000; fill-opacity:0.0; 
stroke:#A90000; stroke-width:0.1524; stroke-opacity:1; 
stroke-linecap:round; stroke-linejoin:round;">
<text x="3.8411" y="18.5262"
textLength="1.3365" font-size="1.6933" lengthAdjust="spacingAndGlyphs"
text-anchor="middle" opacity="0">5</text>
<g class="stroked-text"><desc>5</desc>
<path d="M4.1435 17.1007
L3.5387 17.1007
" />
<path d="M3.5387 17.1007
L3.4783 17.7055
" />
<path d="M3.4783 17.7055
L3.5387 17.6450
" />
<path d="M3.5387 17.6450
L3.6597 17.5845
" />
<path d="M3.6597 17.5845
L3.9621 17.5845
" />
<path d="M3.9621 17.5845
L4.0830 17.6450
" />
<path d="M4.0830 17.6450
L4.1435 17.7055
" />
<path d="M4.1435 17.7055
L4.2040 17.8264
" />
<path d="M4.2040 17.8264
L4.2040 18.1288
" />
<path d="M4.2040 18.1288
L4.1435 18.2498
" />
<path d="M4.1435 18.2498
L4.0830 18.3103
" />
<path d="M4.0830 18.3103
L3.9621 18.3707
" />
<path d="M3.9621 18.3707
L3.6597 18.3707
" />
<path d="M3.6597 18.3707
L3.5387 18.3103
" />
<path d="M3.5387 18.3103
L3.4783 18.2498
" />
</g></g>
<g style="fill:#840000; fill-opacity:0.0; 
stroke:#840000; stroke-width:0.1524; stroke-opacity:1; 
stroke-linecap:round; stroke-linejoin:round;">
<path d="M5.7461 21.3202
L1.9361 21.3202
" />
</g>
<g style="fill:#A90000; fill-opacity:0.0; 
stroke:#A90000; stroke-width:0.1524; stroke-opacity:1; 
stroke-linecap:round; stroke-linejoin:round;">
<text x="3.8411" y="21.0662"
textLength="1.3365" font-size="1.6933" lengthAdjust="spacingAndGlyphs"
text-anchor="middle" opacity="0">6</text>
<g class="stroked-text"><desc>6</desc>
<path d="M4.0830 19.6407
L3.8411 19.6407
" />
<path d="M3.8411 19.6407
L3.7202 19.7012
" />
<path d="M3.7202 19.7012
L3.6597 19.7617
" />
<path d="M3.6597 19.7617
L3.5387 19.9431
" />
<path d="M3.5387 19.9431
L3.4783 20.1850
" />
<path d="M3.4783 20.1850
L3.4783 20.6688
" />
<path d="M3.4783 20.6688
L3.5387 20.7898
" />
<path d="M3.5387 20.7898
L3.5992 20.8503
" />
<path d="M3.5992 20.8503
L3.7202 20.9107
" />
<path d="M3.7202 20.9107
L3.9621 20.9107
" />
<path d="M3.9621 20.9107
L4.0830 20.8503
" />
<path d="M4.0830 20.8503
L4.1435 20.7898
" />
<path d="M4.1435 20.7898
L4.2040 20.6688
" />
<path d="M4.2040 20.6688
L4.2040 20.3664
" />
<path d="M4.2040 20.3664
L4.1435 20.2455
" />
<path d="M4.1435 20.2455
L4.0830 20.1850
" />
<path d="M4.0830 20.1850
L3.9621 20.1245
" />
<path d="M3.9621 20.1245
L3.7202 20.1245
" />
<path d="M3.7202 20.1245
L3.5992 20.1850
" />
<path d="M3.5992 20.1850
L3.5387 20.2455
" />
<path d="M3.5387 20.2455
L3.4783 20.3664
" />
</g></g>
<g style="fill:#840000; fill-opacity:0.0; 
stroke:#840000; stroke-width:0.1524; stroke-opacity:1; 
stroke-linecap:round; stroke-linejoin:round;">
<path d="M5.7461 23.8602
L1.9361 23.8602
" />
</g>
<g style="fill:#A90000; fill-opacity:0.0; 
stroke:#A90000; stroke-width:0.1524; stroke-opacity:1; 
stroke-linecap:round; stroke-linejoin:round;">
<text x="3.8411" y="23.6062"
textLength="1.3365" font-size="1.6933" lengthAdjust="spacingAndGlyphs"
text-anchor="middle" opacity="0">7</text>
<g class="stroked-text"><desc>7</desc>
<path d="M3.4178 22.1807
L4.2644 22.1807
" />
<path d="M4.2644 22.1807
L3.7202 23.4507
" />
</g></g>
<g style="fill:#840000; fill-opacity:0.0; 
stroke:#840000; stroke-width:0.1524; stroke-opacity:1; 
stroke-linecap:round; stroke-linejoin:round;">
<path d="M5.7461 26.4002
L1.9361 26.4002
" />
</g>
<g style="fill:#A90000; fill-opacity:0.0; 
stroke:#A90000; stroke-width:0.1524; stroke-opacity:1; 
stroke-linecap:round; stroke-linejoin:round;">
<text x="3.8411" y="26.1462"
textLength="1.3365" font-size="1.6933" lengthAdjust="spacingAndGlyphs"
text-anchor="middle" opacity="0">8</text>
<g class="stroked-text"><desc>8</desc>
<path d="M3.7202 25.2650
L3.5992 25.2045
" />
<path d="M3.5992 25.2045
L3.5387 25.1441
" />
<path d="M3.5387 25.1441
L3.4783 25.0231
" />
<path d="M3.4783 25.0231
L3.4783 24.9626
" />
<path d="M3.4783 24.9626
L3.5387 24.8417
" />
<path d="M3.5387 24.8417
L3.5992 24.7812
" />
<path d="M3.5992 24.7812
L3.7202 24.7207
" />
<path d="M3.7202 24.7207
L3.9621 24.7207
" />
<path d="M3.9621 24.7207
L4.0830 24.7812
" />
<path d="M4.0830 24.7812
L4.1435 24.8417
" />
<path d="M4.1435 24.8417
L4.2040 24.9626
" />
<path d="M4.2040 24.9626
L4.2040 25.0231
" />
<path d="M4.2040 25.0231
L4.1435 25.1441
" />
<path d="M4.1435 25.1441
L4.0830 25.2045
" />
<path d="M4.0830 25.2045
L3.9621 25.2650
" />
<path d="M3.9621 25.2650
L3.7202 25.2650
" />
<path d="M3.7202 25.2650
L3.5992 25.3255
" />
<path d="M3.5992 25.3255
L3.5387 25.3860
" />
<path d="M3.5387 25.3860
L3.4783 25.5069
" />
<path d="M3.4783 25.5069
L3.4783 25.7488
" />
<path d="M3.4783 25.7488
L3.5387 25.8698
" />
<path d="M3.5387 25.8698
L3.5992 25.9303
" />
<path d="M3.5992 25.9303
L3.7202 25.9907
" />
<path d="M3.7202 25.9907
L3.9621 25.9907
" />
<path d="M3.9621 25.9907
L4.0830 25.9303
" />
<path d="M4.0830 25.9303
L4.1435 25.8698
" />
<path d="M4.1435 25.8698
L4.2040 25.7488
" />
<path d="M4.2040 25.7488
L4.2040 25.5069
" />
<path d="M4.2040 25.5069
L4.1435 25.3860
" />
<path d="M4.1435 25.3860
L4.0830 25.3255
" />
<path d="M4.0830 25.3255
L3.9621 25.2650
" />
</g></g>
<g style="fill:#840000; fill-opacity:0.0; 
stroke:#840000; stroke-width:0.1524; stroke-opacity:1; 
stroke-linecap:round; stroke-linejoin:round;">
<path d="M5.7461 28.9402
L1.9361 28.9402
" />
</g>
<g style="fill:#A90000; fill-opacity:0.0; 
stroke:#A90000; stroke-width:0.1524; stroke-opacity:1; 
stroke-linecap:round; stroke-linejoin:round;">
<text x="3.8411" y="28.6862"
textLength="1.3365" font-size="1.6933" lengthAdjust="spacingAndGlyphs"
text-anchor="middle" opacity="0">9</text>
<g class="stroked-text"><desc>9</desc>
<path d="M3.5992 28.5307
L3.8411 28.5307
" />
<path d="M3.8411 28.5307
L3.9621 28.4703
" />
<path d="M3.9621 28.4703
L4.0225 28.4098
" />
<path d="M4.0225 28.4098
L4.1435 28.2283
" />
<path d="M4.1435 28.2283
L4.2040 27.9864
" />
<path d="M4.2040 27.9864
L4.2040 27.5026
" />
<path d="M4.2040 27.5026
L4.1435 27.3817
" />
<path d="M4.1435 27.3817
L4.0830 27.3212
" />
<path d="M4.0830 27.3212
L3.9621 27.2607
" />
<path d="M3.9621 27.2607
L3.7202 27.2607
" />
<path d="M3.7202 27.2607
L3.5992 27.3212
" />
<path d="M3.5992 27.3212
L3.5387 27.3817
" />
<path d="M3.5387 27.3817
L3.4783 27.5026
" />
<path d="M3.4783 27.5026
L3.4783 27.8050
" />
<path d="M3.4783 27.8050
L3.5387 27.9260
" />
<path d="M3.5387 27.9260
L3.5992 27.9864
" />
<path d="M3.5992 27.9864
L3.7202 28.0469
" />
<path d="M3.7202 28.0469
L3.9621 28.0469
" />
<path d="M3.9621 28.0469
L4.0830 27.9864
" />
<path d="M4.0830 27.9864
L4.1435 27.9260
" />
<path d="M4.1435 27.9260
L4.2040 27.8050
" />
</g></g>
<g style="fill:#840084; fill-opacity:0.0; 
stroke:#840084; stroke-width:0.1524; stroke-opacity:1; 
stroke-linecap:round; stroke-linejoin:round;">
</g>
<g style="fill:#006464; fill-opacity:0.0; 
stroke:#006464; stroke-width:0.1524; stroke-opacity:1; 
stroke-linecap:round; stroke-linejoin:round;">
</g>
<g style="fill:#006464; fill-opacity:0.0; 
stroke:#006464; stroke-width:0.1588; stroke-opacity:1; 
stroke-linecap:round; stroke-linejoin:round;">
<text x="7.0161" y="6.7152"
textLength="2.1992" font-size="1.6933" lengthAdjust="spacingAndGlyphs"
text-anchor="middle" opacity="0">J?</text>
<g class="stroked-text"><desc>J?</desc>
<path d="M6.6532 5.3977
L6.6532 6.3049
" />
<path d="M6.6532 6.3049
L6.5927 6.4863
" />
<path d="M6.5927 6.4863
L6.4718 6.6073
" />
<path d="M6.4718 6.6073
L6.2903 6.6677
" />
<path d="M6.2903 6.6677
L6.1694 6.6677
" />
<path d="M7.4394 6.5468
L7.4998 6.6073
" />
<path d="M7.4998 6.6073
L7.4394 6.6677
" />
<path d="M7.4394 6.6677
L7.3789 6.6073
" />
<path d="M7.3789 6.6073
L7.4394 6.5468
" />
<path d="M7.4394 6.5468
L7.4394 6.6677
" />
<path d="M7.1975 5.4582
L7.3184 5.3977
" />
<path d="M7.3184 5.3977
L7.6208 5.3977
" />
<path d="M7.6208 5.3977
L7.7417 5.4582
" />
<path d="M7.7417 5.4582
L7.8022 5.5792
" />
<path d="M7.8022 5.5792
L7.8022 5.7001
" />
<path d="M7.8022 5.7001
L7.7417 5.8211
" />
<path d="M7.7417 5.8211
L7.6813 5.8815
" />
<path d="M7.6813 5.8815
L7.5603 5.9420
" />
<path d="M7.5603 5.9420
L7.4998 6.0025
" />
<path d="M7.4998 6.0025
L7.4394 6.1234
" />
<path d="M7.4394 6.1234
L7.4394 6.1839
" />
</g><text x="7.0161" y="57.5152"
textLength="11.6937" font-size="1.6933" lengthAdjust="spacingAndGlyphs"
text-anchor="middle" opacity="0">Conn_01x19</text>
<g class="stroked-text"><desc>Conn_01x19</desc>
<path d="M2.2688 57.3468
L2.2084 57.4073
" />
<path d="M2.2084 57.4073
L2.0269 57.4677
" />
<path d="M2.0269 57.4677
L1.9060 57.4677
" />
<path d="M1.9060 57.4677
L1.7246 57.4073
" />
<path d="M1.7246 57.4073
L1.6036 57.2863
" />
<path d="M1.6036 57.2863
L1.5431 57.1653
" />
<path d="M1.5431 57.1653
L1.4827 56.9234
" />
<path d="M1.4827 56.9234
L1.4827 56.7420
" />
<path d="M1.4827 56.7420
L1.5431 56.5001
" />
<path d="M1.5431 56.5001
L1.6036 56.3792
" />
<path d="M1.6036 56.3792
L1.7246 56.2582
" />
<path d="M1.7246 56.2582
L1.9060 56.1977
" />
<path d="M1.9060 56.1977
L2.0269 56.1977
" />
<path d="M2.0269 56.1977
L2.2084 56.2582
" />
<path d="M2.2084 56.2582
L2.2688 56.3187
" />
<path d="M2.9946 57.4677
L2.8736 57.4073
" />
<path d="M2.8736 57.4073
L2.8131 57.3468
" />
<path d="M2.8131 57.3468
L2.7527 57.2258
" />
<path d="M2.7527 57.2258
L2.7527 56.8630
" />
<path d="M2.7527 56.8630
L2.8131 56.7420
" />
<path d="M2.8131 56.7420
L2.8736 56.6815
" />
<path d="M2.8736 56.6815
L2.9946 56.6211
" />
<path d="M2.9946 56.6211
L3.1760 56.6211
" />
<path d="M3.1760 56.6211
L3.2969 56.6815
" />
<path d="M3.2969 56.6815
L3.3574 56.7420
" />
<path d="M3.3574 56.7420
L3.4179 56.8630
" />
<path d="M3.4179 56.8630
L3.4179 57.2258
" />
<path d="M3.4179 57.2258
L3.3574 57.3468
" />
<path d="M3.3574 57.3468
L3.2969 57.4073
" />
<path d="M3.2969 57.4073
L3.1760 57.4677
" />
<path d="M3.1760 57.4677
L2.9946 57.4677
" />
<path d="M3.9621 56.6211
L3.9621 57.4677
" />
<path d="M3.9621 56.7420
L4.0226 56.6815
" />
<path d="M4.0226 56.6815
L4.1436 56.6211
" />
<path d="M4.1436 56.6211
L4.3250 56.6211
" />
<path d="M4.3250 56.6211
L4.4459 56.6815
" />
<path d="M4.4459 56.6815
L4.5064 56.8025
" />
<path d="M4.5064 56.8025
L4.5064 57.4677
" />
<path d="M5.1111 56.6211
L5.1111 57.4677
" />
<path d="M5.1111 56.7420
L5.1716 56.6815
" />
<path d="M5.1716 56.6815
L5.2926 56.6211
" />
<path d="M5.2926 56.6211
L5.4740 56.6211
" />
<path d="M5.4740 56.6211
L5.5949 56.6815
" />
<path d="M5.5949 56.6815
L5.6554 56.8025
" />
<path d="M5.6554 56.8025
L5.6554 57.4677
" />
<path d="M5.9578 57.5887
L6.9254 57.5887
" />
<path d="M7.4696 56.1977
L7.5906 56.1977
" />
<path d="M7.5906 56.1977
L7.7115 56.2582
" />
<path d="M7.7115 56.2582
L7.7720 56.3187
" />
<path d="M7.7720 56.3187
L7.8325 56.4396
" />
<path d="M7.8325 56.4396
L7.8930 56.6815
" />
<path d="M7.8930 56.6815
L7.8930 56.9839
" />
<path d="M7.8930 56.9839
L7.8325 57.2258
" />
<path d="M7.8325 57.2258
L7.7720 57.3468
" />
<path d="M7.7720 57.3468
L7.7115 57.4073
" />
<path d="M7.7115 57.4073
L7.5906 57.4677
" />
<path d="M7.5906 57.4677
L7.4696 57.4677
" />
<path d="M7.4696 57.4677
L7.3487 57.4073
" />
<path d="M7.3487 57.4073
L7.2882 57.3468
" />
<path d="M7.2882 57.3468
L7.2277 57.2258
" />
<path d="M7.2277 57.2258
L7.1673 56.9839
" />
<path d="M7.1673 56.9839
L7.1673 56.6815
" />
<path d="M7.1673 56.6815
L7.2277 56.4396
" />
<path d="M7.2277 56.4396
L7.2882 56.3187
" />
<path d="M7.2882 56.3187
L7.3487 56.2582
" />
<path d="M7.3487 56.2582
L7.4696 56.1977
" />
<path d="M9.1025 57.4677
L8.3768 57.4677
" />
<path d="M8.7396 57.4677
L8.7396 56.1977
" />
<path d="M8.7396 56.1977
L8.6187 56.3792
" />
<path d="M8.6187 56.3792
L8.4977 56.5001
" />
<path d="M8.4977 56.5001
L8.3768 56.5606
" />
<path d="M9.5258 57.4677
L10.1910 56.6211
" />
<path d="M9.5258 56.6211
L10.1910 57.4677
" />
<path d="M11.3401 57.4677
L10.6144 57.4677
" />
<path d="M10.9772 57.4677
L10.9772 56.1977
" />
<path d="M10.9772 56.1977
L10.8563 56.3792
" />
<path d="M10.8563 56.3792
L10.7353 56.5001
" />
<path d="M10.7353 56.5001
L10.6144 56.5606
" />
<path d="M11.9448 57.4677
L12.1867 57.4677
" />
<path d="M12.1867 57.4677
L12.3077 57.4073
" />
<path d="M12.3077 57.4073
L12.3681 57.3468
" />
<path d="M12.3681 57.3468
L12.4891 57.1653
" />
<path d="M12.4891 57.1653
L12.5496 56.9234
" />
<path d="M12.5496 56.9234
L12.5496 56.4396
" />
<path d="M12.5496 56.4396
L12.4891 56.3187
" />
<path d="M12.4891 56.3187
L12.4286 56.2582
" />
<path d="M12.4286 56.2582
L12.3077 56.1977
" />
<path d="M12.3077 56.1977
L12.0658 56.1977
" />
<path d="M12.0658 56.1977
L11.9448 56.2582
" />
<path d="M11.9448 56.2582
L11.8843 56.3187
" />
<path d="M11.8843 56.3187
L11.8239 56.4396
" />
<path d="M11.8239 56.4396
L11.8239 56.7420
" />
<path d="M11.8239 56.7420
L11.8843 56.8630
" />
<path d="M11.8843 56.8630
L11.9448 56.9234
" />
<path d="M11.9448 56.9234
L12.0658 56.9839
" />
<path d="M12.0658 56.9839
L12.3077 56.9839
" />
<path d="M12.3077 56.9839
L12.4286 56.9234
" />
<path d="M12.4286 56.9234
L12.4891 56.8630
" />
<path d="M12.4891 56.8630
L12.5496 56.7420
" />
</g></g>
<g style="fill:#840084; fill-opacity:0.0; 
stroke:#840084; stroke-width:0.1588; stroke-opacity:1; 
stroke-linecap:round; stroke-linejoin:round;">
<text x="7.0161" y="32.1152"
textLength="1.0501" font-size="1.6933" lengthAdjust="spacingAndGlyphs"
text-anchor="middle" opacity="0">~</text>
<g class="stroked-text"><desc>~</desc>
<path d="M6.6835 31.5839
L6.7440 31.5234
" />
<path d="M6.7440 31.5234
L6.8649 31.4630
" />
<path d="M6.8649 31.4630
L7.1068 31.5839
" />
<path d="M7.1068 31.5839
L7.2278 31.5234
" />
<path d="M7.2278 31.5234
L7.2883 31.4630
" />
</g></g> 
</svg>
