<?xml version="1.0" standalone="no"?>
 <!DOCTYPE svg PUBLIC "-//W3C//DTD SVG 1.1//EN" 
 "http://www.w3.org/Graphics/SVG/1.1/DTD/svg11.dtd"> 
<svg
  xmlns:svg="http://www.w3.org/2000/svg"
  xmlns="http://www.w3.org/2000/svg"
  xmlns:xlink="http://www.w3.org/1999/xlink"
  version="1.1"
  width="90.6780mm" height="37.7952mm" viewBox="0.0000 0.0000 90.6780 37.7952">
<title>SVG Image created as working.svg date 2023/08/04 20:17:43 </title>
  <desc>Image generated by Eeschema-SVG </desc>
<g style="fill:#000000; fill-opacity:1.0000;stroke:#000000; stroke-opacity:1.0000;
stroke-linecap:round; stroke-linejoin:round;"
 transform="translate(0 0) scale(1 1)">
</g>
<g style="fill:#840000; fill-opacity:0.0; 
stroke:#840000; stroke-width:0.0000; stroke-opacity:1; 
stroke-linecap:round; stroke-linejoin:round;">
</g>
<g style="fill:#FFFFC2; fill-opacity:0.0; 
stroke:#FFFFC2; stroke-width:0.0000; stroke-opacity:1; 
stroke-linecap:round; stroke-linejoin:round;">
</g>
<g style="fill:#FFFFC2; fill-opacity:1.0000; 
stroke:#FFFFC2; stroke-width:0.0000; stroke-opacity:1; 
stroke-linecap:round; stroke-linejoin:round;">
<rect x="37.725100" y="5.690200" width="15.240000" height="15.240000" rx="0.000000" />
</g>
<g style="fill:#840084; fill-opacity:1.0000; 
stroke:#840084; stroke-width:0.0000; stroke-opacity:1; 
stroke-linecap:round; stroke-linejoin:round;">
</g>
<g style="fill:#840000; fill-opacity:1.0000; 
stroke:#840000; stroke-width:0.0000; stroke-opacity:1; 
stroke-linecap:round; stroke-linejoin:round;">
</g>
<g style="fill:#840000; fill-opacity:0.0; 
stroke:#840000; stroke-width:0.2540; stroke-opacity:1; 
stroke-linecap:round; stroke-linejoin:round;">
<rect x="37.725100" y="5.690200" width="15.240000" height="15.240000" rx="0.000000" />
</g>
<g style="fill:#840000; fill-opacity:0.0; 
stroke:#840000; stroke-width:0.1524; stroke-opacity:1; 
stroke-linecap:round; stroke-linejoin:round;">
<path d="M52.9651 8.2302
L55.5051 8.2302
" />
</g>
<g style="fill:#006464; fill-opacity:0.0; 
stroke:#006464; stroke-width:0.1524; stroke-opacity:1; 
stroke-linecap:round; stroke-linejoin:round;">
<text x="52.4571" y="8.8652"
textLength="6.3718" font-size="1.6933" lengthAdjust="spacingAndGlyphs"
text-anchor="end" opacity="0">VBUSG</text>
<g class="stroked-text"><desc>VBUSG</desc>
<path d="M46.3092 7.5397
L46.7325 8.8097
" />
<path d="M46.7325 8.8097
L47.1559 7.5397
" />
<path d="M48.0026 8.1445
L48.1840 8.2050
" />
<path d="M48.1840 8.2050
L48.2445 8.2654
" />
<path d="M48.2445 8.2654
L48.3049 8.3864
" />
<path d="M48.3049 8.3864
L48.3049 8.5678
" />
<path d="M48.3049 8.5678
L48.2445 8.6888
" />
<path d="M48.2445 8.6888
L48.1840 8.7493
" />
<path d="M48.1840 8.7493
L48.0630 8.8097
" />
<path d="M48.0630 8.8097
L47.5792 8.8097
" />
<path d="M47.5792 8.8097
L47.5792 7.5397
" />
<path d="M47.5792 7.5397
L48.0026 7.5397
" />
<path d="M48.0026 7.5397
L48.1235 7.6002
" />
<path d="M48.1235 7.6002
L48.1840 7.6607
" />
<path d="M48.1840 7.6607
L48.2445 7.7816
" />
<path d="M48.2445 7.7816
L48.2445 7.9026
" />
<path d="M48.2445 7.9026
L48.1840 8.0235
" />
<path d="M48.1840 8.0235
L48.1235 8.0840
" />
<path d="M48.1235 8.0840
L48.0026 8.1445
" />
<path d="M48.0026 8.1445
L47.5792 8.1445
" />
<path d="M48.8492 7.5397
L48.8492 8.5678
" />
<path d="M48.8492 8.5678
L48.9097 8.6888
" />
<path d="M48.9097 8.6888
L48.9702 8.7493
" />
<path d="M48.9702 8.7493
L49.0911 8.8097
" />
<path d="M49.0911 8.8097
L49.3330 8.8097
" />
<path d="M49.3330 8.8097
L49.4540 8.7493
" />
<path d="M49.4540 8.7493
L49.5145 8.6888
" />
<path d="M49.5145 8.6888
L49.5749 8.5678
" />
<path d="M49.5749 8.5678
L49.5749 7.5397
" />
<path d="M50.1193 8.7493
L50.3007 8.8097
" />
<path d="M50.3007 8.8097
L50.6031 8.8097
" />
<path d="M50.6031 8.8097
L50.7240 8.7493
" />
<path d="M50.7240 8.7493
L50.7845 8.6888
" />
<path d="M50.7845 8.6888
L50.8450 8.5678
" />
<path d="M50.8450 8.5678
L50.8450 8.4469
" />
<path d="M50.8450 8.4469
L50.7845 8.3259
" />
<path d="M50.7845 8.3259
L50.7240 8.2654
" />
<path d="M50.7240 8.2654
L50.6031 8.2050
" />
<path d="M50.6031 8.2050
L50.3612 8.1445
" />
<path d="M50.3612 8.1445
L50.2402 8.0840
" />
<path d="M50.2402 8.0840
L50.1797 8.0235
" />
<path d="M50.1797 8.0235
L50.1193 7.9026
" />
<path d="M50.1193 7.9026
L50.1193 7.7816
" />
<path d="M50.1193 7.7816
L50.1797 7.6607
" />
<path d="M50.1797 7.6607
L50.2402 7.6002
" />
<path d="M50.2402 7.6002
L50.3612 7.5397
" />
<path d="M50.3612 7.5397
L50.6635 7.5397
" />
<path d="M50.6635 7.5397
L50.8450 7.6002
" />
<path d="M52.0545 7.6002
L51.9335 7.5397
" />
<path d="M51.9335 7.5397
L51.7521 7.5397
" />
<path d="M51.7521 7.5397
L51.5707 7.6002
" />
<path d="M51.5707 7.6002
L51.4497 7.7212
" />
<path d="M51.4497 7.7212
L51.3892 7.8421
" />
<path d="M51.3892 7.8421
L51.3288 8.0840
" />
<path d="M51.3288 8.0840
L51.3288 8.2654
" />
<path d="M51.3288 8.2654
L51.3892 8.5073
" />
<path d="M51.3892 8.5073
L51.4497 8.6283
" />
<path d="M51.4497 8.6283
L51.5707 8.7493
" />
<path d="M51.5707 8.7493
L51.7521 8.8097
" />
<path d="M51.7521 8.8097
L51.8730 8.8097
" />
<path d="M51.8730 8.8097
L52.0545 8.7493
" />
<path d="M52.0545 8.7493
L52.1149 8.6888
" />
<path d="M52.1149 8.6888
L52.1149 8.2654
" />
<path d="M52.1149 8.2654
L51.8730 8.2654
" />
</g></g>
<g style="fill:#A90000; fill-opacity:0.0; 
stroke:#A90000; stroke-width:0.1524; stroke-opacity:1; 
stroke-linecap:round; stroke-linejoin:round;">
<text x="54.2351" y="7.9762"
textLength="1.4127" font-size="1.6933" lengthAdjust="spacingAndGlyphs"
text-anchor="middle" opacity="0">1</text>
<g class="stroked-text"><desc>1</desc>
<path d="M54.5980 7.8127
L53.8723 7.8127
" />
<path d="M54.2351 7.8127
L54.2351 6.5427
" />
<path d="M54.2351 6.5427
L54.1142 6.7242
" />
<path d="M54.1142 6.7242
L53.9932 6.8451
" />
<path d="M53.9932 6.8451
L53.8723 6.9056
" />
</g></g>
<g style="fill:#840000; fill-opacity:0.0; 
stroke:#840000; stroke-width:0.1524; stroke-opacity:1; 
stroke-linecap:round; stroke-linejoin:round;">
<path d="M52.9651 18.3902
L55.5051 18.3902
" />
</g>
<g style="fill:#006464; fill-opacity:0.0; 
stroke:#006464; stroke-width:0.1524; stroke-opacity:1; 
stroke-linecap:round; stroke-linejoin:round;">
<text x="52.4571" y="19.0252"
textLength="3.5898" font-size="1.6933" lengthAdjust="spacingAndGlyphs"
text-anchor="end" opacity="0">SEL</text>
<g class="stroked-text"><desc>SEL</desc>
<path d="M49.2122 18.9093
L49.3936 18.9697
" />
<path d="M49.3936 18.9697
L49.6960 18.9697
" />
<path d="M49.6960 18.9697
L49.8169 18.9093
" />
<path d="M49.8169 18.9093
L49.8774 18.8488
" />
<path d="M49.8774 18.8488
L49.9379 18.7278
" />
<path d="M49.9379 18.7278
L49.9379 18.6069
" />
<path d="M49.9379 18.6069
L49.8774 18.4859
" />
<path d="M49.8774 18.4859
L49.8169 18.4254
" />
<path d="M49.8169 18.4254
L49.6960 18.3650
" />
<path d="M49.6960 18.3650
L49.4541 18.3045
" />
<path d="M49.4541 18.3045
L49.3331 18.2440
" />
<path d="M49.3331 18.2440
L49.2726 18.1835
" />
<path d="M49.2726 18.1835
L49.2122 18.0626
" />
<path d="M49.2122 18.0626
L49.2122 17.9416
" />
<path d="M49.2122 17.9416
L49.2726 17.8207
" />
<path d="M49.2726 17.8207
L49.3331 17.7602
" />
<path d="M49.3331 17.7602
L49.4541 17.6997
" />
<path d="M49.4541 17.6997
L49.7564 17.6997
" />
<path d="M49.7564 17.6997
L49.9379 17.7602
" />
<path d="M50.4821 18.3045
L50.9055 18.3045
" />
<path d="M51.0869 18.9697
L50.4821 18.9697
" />
<path d="M50.4821 18.9697
L50.4821 17.6997
" />
<path d="M50.4821 17.6997
L51.0869 17.6997
" />
<path d="M52.2359 18.9697
L51.6311 18.9697
" />
<path d="M51.6311 18.9697
L51.6311 17.6997
" />
</g></g>
<g style="fill:#A90000; fill-opacity:0.0; 
stroke:#A90000; stroke-width:0.1524; stroke-opacity:1; 
stroke-linecap:round; stroke-linejoin:round;">
<text x="54.2351" y="18.1362"
textLength="2.6222" font-size="1.6933" lengthAdjust="spacingAndGlyphs"
text-anchor="middle" opacity="0">11</text>
<g class="stroked-text"><desc>11</desc>
<path d="M53.9932 17.9727
L53.2675 17.9727
" />
<path d="M53.6303 17.9727
L53.6303 16.7027
" />
<path d="M53.6303 16.7027
L53.5094 16.8842
" />
<path d="M53.5094 16.8842
L53.3884 17.0051
" />
<path d="M53.3884 17.0051
L53.2675 17.0656
" />
<path d="M55.2027 17.9727
L54.4770 17.9727
" />
<path d="M54.8398 17.9727
L54.8398 16.7027
" />
<path d="M54.8398 16.7027
L54.7189 16.8842
" />
<path d="M54.7189 16.8842
L54.5979 17.0051
" />
<path d="M54.5979 17.0051
L54.4770 17.0656
" />
</g></g>
<g style="fill:#840000; fill-opacity:0.0; 
stroke:#840000; stroke-width:0.1524; stroke-opacity:1; 
stroke-linecap:round; stroke-linejoin:round;">
<path d="M37.7251 10.7702
L35.1851 10.7702
" />
</g>
<g style="fill:#006464; fill-opacity:0.0; 
stroke:#006464; stroke-width:0.1524; stroke-opacity:1; 
stroke-linecap:round; stroke-linejoin:round;">
<text x="38.2331" y="11.4052"
textLength="3.9527" font-size="1.6933" lengthAdjust="spacingAndGlyphs"
text-anchor="start" opacity="0">CC2</text>
<g class="stroked-text"><desc>CC2</desc>
<path d="M39.3613 11.2288
L39.3009 11.2893
" />
<path d="M39.3009 11.2893
L39.1194 11.3497
" />
<path d="M39.1194 11.3497
L38.9985 11.3497
" />
<path d="M38.9985 11.3497
L38.8171 11.2893
" />
<path d="M38.8171 11.2893
L38.6961 11.1683
" />
<path d="M38.6961 11.1683
L38.6356 11.0473
" />
<path d="M38.6356 11.0473
L38.5752 10.8054
" />
<path d="M38.5752 10.8054
L38.5752 10.6240
" />
<path d="M38.5752 10.6240
L38.6356 10.3821
" />
<path d="M38.6356 10.3821
L38.6961 10.2612
" />
<path d="M38.6961 10.2612
L38.8171 10.1402
" />
<path d="M38.8171 10.1402
L38.9985 10.0797
" />
<path d="M38.9985 10.0797
L39.1194 10.0797
" />
<path d="M39.1194 10.0797
L39.3009 10.1402
" />
<path d="M39.3009 10.1402
L39.3613 10.2007
" />
<path d="M40.6313 11.2288
L40.5709 11.2893
" />
<path d="M40.5709 11.2893
L40.3894 11.3497
" />
<path d="M40.3894 11.3497
L40.2685 11.3497
" />
<path d="M40.2685 11.3497
L40.0871 11.2893
" />
<path d="M40.0871 11.2893
L39.9661 11.1683
" />
<path d="M39.9661 11.1683
L39.9056 11.0473
" />
<path d="M39.9056 11.0473
L39.8452 10.8054
" />
<path d="M39.8452 10.8054
L39.8452 10.6240
" />
<path d="M39.8452 10.6240
L39.9056 10.3821
" />
<path d="M39.9056 10.3821
L39.9661 10.2612
" />
<path d="M39.9661 10.2612
L40.0871 10.1402
" />
<path d="M40.0871 10.1402
L40.2685 10.0797
" />
<path d="M40.2685 10.0797
L40.3894 10.0797
" />
<path d="M40.3894 10.0797
L40.5709 10.1402
" />
<path d="M40.5709 10.1402
L40.6313 10.2007
" />
<path d="M41.1152 10.2007
L41.1756 10.1402
" />
<path d="M41.1756 10.1402
L41.2966 10.0797
" />
<path d="M41.2966 10.0797
L41.5990 10.0797
" />
<path d="M41.5990 10.0797
L41.7199 10.1402
" />
<path d="M41.7199 10.1402
L41.7804 10.2007
" />
<path d="M41.7804 10.2007
L41.8409 10.3216
" />
<path d="M41.8409 10.3216
L41.8409 10.4426
" />
<path d="M41.8409 10.4426
L41.7804 10.6240
" />
<path d="M41.7804 10.6240
L41.0547 11.3497
" />
<path d="M41.0547 11.3497
L41.8409 11.3497
" />
</g></g>
<g style="fill:#A90000; fill-opacity:0.0; 
stroke:#A90000; stroke-width:0.1524; stroke-opacity:1; 
stroke-linecap:round; stroke-linejoin:round;">
<text x="36.4551" y="10.5162"
textLength="2.6222" font-size="1.6933" lengthAdjust="spacingAndGlyphs"
text-anchor="middle" opacity="0">12</text>
<g class="stroked-text"><desc>12</desc>
<path d="M36.2132 10.3527
L35.4875 10.3527
" />
<path d="M35.8503 10.3527
L35.8503 9.0827
" />
<path d="M35.8503 9.0827
L35.7294 9.2642
" />
<path d="M35.7294 9.2642
L35.6084 9.3851
" />
<path d="M35.6084 9.3851
L35.4875 9.4456
" />
<path d="M36.6970 9.2037
L36.7574 9.1432
" />
<path d="M36.7574 9.1432
L36.8784 9.0827
" />
<path d="M36.8784 9.0827
L37.1808 9.0827
" />
<path d="M37.1808 9.0827
L37.3017 9.1432
" />
<path d="M37.3017 9.1432
L37.3622 9.2037
" />
<path d="M37.3622 9.2037
L37.4227 9.3246
" />
<path d="M37.4227 9.3246
L37.4227 9.4456
" />
<path d="M37.4227 9.4456
L37.3622 9.6270
" />
<path d="M37.3622 9.6270
L36.6365 10.3527
" />
<path d="M36.6365 10.3527
L37.4227 10.3527
" />
</g></g>
<g style="fill:#840000; fill-opacity:0.0; 
stroke:#840000; stroke-width:0.1524; stroke-opacity:1; 
stroke-linecap:round; stroke-linejoin:round;">
<path d="M37.7251 8.2302
L35.1851 8.2302
" />
</g>
<g style="fill:#006464; fill-opacity:0.0; 
stroke:#006464; stroke-width:0.1524; stroke-opacity:1; 
stroke-linecap:round; stroke-linejoin:round;">
<text x="38.2331" y="8.8652"
textLength="3.9527" font-size="1.6933" lengthAdjust="spacingAndGlyphs"
text-anchor="start" opacity="0">CC1</text>
<g class="stroked-text"><desc>CC1</desc>
<path d="M39.3613 8.6888
L39.3009 8.7493
" />
<path d="M39.3009 8.7493
L39.1194 8.8097
" />
<path d="M39.1194 8.8097
L38.9985 8.8097
" />
<path d="M38.9985 8.8097
L38.8171 8.7493
" />
<path d="M38.8171 8.7493
L38.6961 8.6283
" />
<path d="M38.6961 8.6283
L38.6356 8.5073
" />
<path d="M38.6356 8.5073
L38.5752 8.2654
" />
<path d="M38.5752 8.2654
L38.5752 8.0840
" />
<path d="M38.5752 8.0840
L38.6356 7.8421
" />
<path d="M38.6356 7.8421
L38.6961 7.7212
" />
<path d="M38.6961 7.7212
L38.8171 7.6002
" />
<path d="M38.8171 7.6002
L38.9985 7.5397
" />
<path d="M38.9985 7.5397
L39.1194 7.5397
" />
<path d="M39.1194 7.5397
L39.3009 7.6002
" />
<path d="M39.3009 7.6002
L39.3613 7.6607
" />
<path d="M40.6313 8.6888
L40.5709 8.7493
" />
<path d="M40.5709 8.7493
L40.3894 8.8097
" />
<path d="M40.3894 8.8097
L40.2685 8.8097
" />
<path d="M40.2685 8.8097
L40.0871 8.7493
" />
<path d="M40.0871 8.7493
L39.9661 8.6283
" />
<path d="M39.9661 8.6283
L39.9056 8.5073
" />
<path d="M39.9056 8.5073
L39.8452 8.2654
" />
<path d="M39.8452 8.2654
L39.8452 8.0840
" />
<path d="M39.8452 8.0840
L39.9056 7.8421
" />
<path d="M39.9056 7.8421
L39.9661 7.7212
" />
<path d="M39.9661 7.7212
L40.0871 7.6002
" />
<path d="M40.0871 7.6002
L40.2685 7.5397
" />
<path d="M40.2685 7.5397
L40.3894 7.5397
" />
<path d="M40.3894 7.5397
L40.5709 7.6002
" />
<path d="M40.5709 7.6002
L40.6313 7.6607
" />
<path d="M41.8409 8.8097
L41.1152 8.8097
" />
<path d="M41.4780 8.8097
L41.4780 7.5397
" />
<path d="M41.4780 7.5397
L41.3571 7.7212
" />
<path d="M41.3571 7.7212
L41.2361 7.8421
" />
<path d="M41.2361 7.8421
L41.1152 7.9026
" />
</g></g>
<g style="fill:#A90000; fill-opacity:0.0; 
stroke:#A90000; stroke-width:0.1524; stroke-opacity:1; 
stroke-linecap:round; stroke-linejoin:round;">
<text x="36.4551" y="7.9762"
textLength="2.6222" font-size="1.6933" lengthAdjust="spacingAndGlyphs"
text-anchor="middle" opacity="0">13</text>
<g class="stroked-text"><desc>13</desc>
<path d="M36.2132 7.8127
L35.4875 7.8127
" />
<path d="M35.8503 7.8127
L35.8503 6.5427
" />
<path d="M35.8503 6.5427
L35.7294 6.7242
" />
<path d="M35.7294 6.7242
L35.6084 6.8451
" />
<path d="M35.6084 6.8451
L35.4875 6.9056
" />
<path d="M36.6365 6.5427
L37.4227 6.5427
" />
<path d="M37.4227 6.5427
L36.9993 7.0265
" />
<path d="M36.9993 7.0265
L37.1808 7.0265
" />
<path d="M37.1808 7.0265
L37.3017 7.0870
" />
<path d="M37.3017 7.0870
L37.3622 7.1475
" />
<path d="M37.3622 7.1475
L37.4227 7.2684
" />
<path d="M37.4227 7.2684
L37.4227 7.5708
" />
<path d="M37.4227 7.5708
L37.3622 7.6918
" />
<path d="M37.3622 7.6918
L37.3017 7.7523
" />
<path d="M37.3017 7.7523
L37.1808 7.8127
" />
<path d="M37.1808 7.8127
L36.8179 7.8127
" />
<path d="M36.8179 7.8127
L36.6970 7.7523
" />
<path d="M36.6970 7.7523
L36.6365 7.6918
" />
</g></g>
<g style="fill:#840000; fill-opacity:0.0; 
stroke:#840000; stroke-width:0.1524; stroke-opacity:1; 
stroke-linecap:round; stroke-linejoin:round;">
<path d="M52.9651 10.7702
L55.5051 10.7702
" />
</g>
<g style="fill:#006464; fill-opacity:0.0; 
stroke:#006464; stroke-width:0.1524; stroke-opacity:1; 
stroke-linecap:round; stroke-linejoin:round;">
<text x="52.4571" y="11.4052"
textLength="5.1018" font-size="1.6933" lengthAdjust="spacingAndGlyphs"
text-anchor="end" opacity="0">VBUS</text>
<g class="stroked-text"><desc>VBUS</desc>
<path d="M47.5792 10.0797
L48.0025 11.3497
" />
<path d="M48.0025 11.3497
L48.4259 10.0797
" />
<path d="M49.2726 10.6845
L49.4540 10.7450
" />
<path d="M49.4540 10.7450
L49.5145 10.8054
" />
<path d="M49.5145 10.8054
L49.5749 10.9264
" />
<path d="M49.5749 10.9264
L49.5749 11.1078
" />
<path d="M49.5749 11.1078
L49.5145 11.2288
" />
<path d="M49.5145 11.2288
L49.4540 11.2893
" />
<path d="M49.4540 11.2893
L49.3330 11.3497
" />
<path d="M49.3330 11.3497
L48.8492 11.3497
" />
<path d="M48.8492 11.3497
L48.8492 10.0797
" />
<path d="M48.8492 10.0797
L49.2726 10.0797
" />
<path d="M49.2726 10.0797
L49.3935 10.1402
" />
<path d="M49.3935 10.1402
L49.4540 10.2007
" />
<path d="M49.4540 10.2007
L49.5145 10.3216
" />
<path d="M49.5145 10.3216
L49.5145 10.4426
" />
<path d="M49.5145 10.4426
L49.4540 10.5635
" />
<path d="M49.4540 10.5635
L49.3935 10.6240
" />
<path d="M49.3935 10.6240
L49.2726 10.6845
" />
<path d="M49.2726 10.6845
L48.8492 10.6845
" />
<path d="M50.1192 10.0797
L50.1192 11.1078
" />
<path d="M50.1192 11.1078
L50.1797 11.2288
" />
<path d="M50.1797 11.2288
L50.2402 11.2893
" />
<path d="M50.2402 11.2893
L50.3611 11.3497
" />
<path d="M50.3611 11.3497
L50.6030 11.3497
" />
<path d="M50.6030 11.3497
L50.7240 11.2893
" />
<path d="M50.7240 11.2893
L50.7845 11.2288
" />
<path d="M50.7845 11.2288
L50.8449 11.1078
" />
<path d="M50.8449 11.1078
L50.8449 10.0797
" />
<path d="M51.3893 11.2893
L51.5707 11.3497
" />
<path d="M51.5707 11.3497
L51.8731 11.3497
" />
<path d="M51.8731 11.3497
L51.9940 11.2893
" />
<path d="M51.9940 11.2893
L52.0545 11.2288
" />
<path d="M52.0545 11.2288
L52.1150 11.1078
" />
<path d="M52.1150 11.1078
L52.1150 10.9869
" />
<path d="M52.1150 10.9869
L52.0545 10.8659
" />
<path d="M52.0545 10.8659
L51.9940 10.8054
" />
<path d="M51.9940 10.8054
L51.8731 10.7450
" />
<path d="M51.8731 10.7450
L51.6312 10.6845
" />
<path d="M51.6312 10.6845
L51.5102 10.6240
" />
<path d="M51.5102 10.6240
L51.4497 10.5635
" />
<path d="M51.4497 10.5635
L51.3893 10.4426
" />
<path d="M51.3893 10.4426
L51.3893 10.3216
" />
<path d="M51.3893 10.3216
L51.4497 10.2007
" />
<path d="M51.4497 10.2007
L51.5102 10.1402
" />
<path d="M51.5102 10.1402
L51.6312 10.0797
" />
<path d="M51.6312 10.0797
L51.9335 10.0797
" />
<path d="M51.9335 10.0797
L52.1150 10.1402
" />
</g></g>
<g style="fill:#A90000; fill-opacity:0.0; 
stroke:#A90000; stroke-width:0.1524; stroke-opacity:1; 
stroke-linecap:round; stroke-linejoin:round;">
<text x="54.2351" y="10.5162"
textLength="2.6222" font-size="1.6933" lengthAdjust="spacingAndGlyphs"
text-anchor="middle" opacity="0">16</text>
<g class="stroked-text"><desc>16</desc>
<path d="M53.9932 10.3527
L53.2675 10.3527
" />
<path d="M53.6303 10.3527
L53.6303 9.0827
" />
<path d="M53.6303 9.0827
L53.5094 9.2642
" />
<path d="M53.5094 9.2642
L53.3884 9.3851
" />
<path d="M53.3884 9.3851
L53.2675 9.4456
" />
<path d="M55.0817 9.0827
L54.8398 9.0827
" />
<path d="M54.8398 9.0827
L54.7189 9.1432
" />
<path d="M54.7189 9.1432
L54.6584 9.2037
" />
<path d="M54.6584 9.2037
L54.5374 9.3851
" />
<path d="M54.5374 9.3851
L54.4770 9.6270
" />
<path d="M54.4770 9.6270
L54.4770 10.1108
" />
<path d="M54.4770 10.1108
L54.5374 10.2318
" />
<path d="M54.5374 10.2318
L54.5979 10.2923
" />
<path d="M54.5979 10.2923
L54.7189 10.3527
" />
<path d="M54.7189 10.3527
L54.9608 10.3527
" />
<path d="M54.9608 10.3527
L55.0817 10.2923
" />
<path d="M55.0817 10.2923
L55.1422 10.2318
" />
<path d="M55.1422 10.2318
L55.2027 10.1108
" />
<path d="M55.2027 10.1108
L55.2027 9.8084
" />
<path d="M55.2027 9.8084
L55.1422 9.6875
" />
<path d="M55.1422 9.6875
L55.0817 9.6270
" />
<path d="M55.0817 9.6270
L54.9608 9.5665
" />
<path d="M54.9608 9.5665
L54.7189 9.5665
" />
<path d="M54.7189 9.5665
L54.5979 9.6270
" />
<path d="M54.5979 9.6270
L54.5374 9.6875
" />
<path d="M54.5374 9.6875
L54.4770 9.8084
" />
</g></g>
<g style="fill:#840000; fill-opacity:0.0; 
stroke:#840000; stroke-width:0.1524; stroke-opacity:1; 
stroke-linecap:round; stroke-linejoin:round;">
<path d="M45.3451 5.6902
L45.3451 3.1502
" />
</g>
<g style="fill:#006464; fill-opacity:0.0; 
stroke:#006464; stroke-width:0.1524; stroke-opacity:1; 
stroke-linecap:round; stroke-linejoin:round;">
<g transform="rotate(-90.000000 45.3451 6.1982)">
<text x="45.3451" y="6.8332"
textLength="3.2271" font-size="1.6933" lengthAdjust="spacingAndGlyphs"
text-anchor="end" opacity="0">VIN</text>
</g>
<g class="stroked-text"><desc>VIN</desc>
<path d="M44.6546 9.2013
L45.9246 8.7780
" />
<path d="M45.9246 8.7780
L44.6546 8.3546
" />
<path d="M45.9246 7.9313
L44.6546 7.9313
" />
<path d="M45.9246 7.3265
L44.6546 7.3265
" />
<path d="M44.6546 7.3265
L45.9246 6.6008
" />
<path d="M45.9246 6.6008
L44.6546 6.6008
" />
</g></g>
<g style="fill:#A90000; fill-opacity:0.0; 
stroke:#A90000; stroke-width:0.1524; stroke-opacity:1; 
stroke-linecap:round; stroke-linejoin:round;">
<g transform="rotate(-90.000000 45.0911 4.4202)">
<text x="45.0911" y="4.4202"
textLength="1.4127" font-size="1.6933" lengthAdjust="spacingAndGlyphs"
text-anchor="middle" opacity="0">2</text>
</g>
<g class="stroked-text"><desc>2</desc>
<path d="M43.7786 4.7829
L43.7181 4.7225
" />
<path d="M43.7181 4.7225
L43.6576 4.6015
" />
<path d="M43.6576 4.6015
L43.6576 4.2991
" />
<path d="M43.6576 4.2991
L43.7181 4.1782
" />
<path d="M43.7181 4.1782
L43.7786 4.1177
" />
<path d="M43.7786 4.1177
L43.8995 4.0572
" />
<path d="M43.8995 4.0572
L44.0205 4.0572
" />
<path d="M44.0205 4.0572
L44.2019 4.1177
" />
<path d="M44.2019 4.1177
L44.9276 4.8434
" />
<path d="M44.9276 4.8434
L44.9276 4.0572
" />
</g></g>
<g style="fill:#840000; fill-opacity:0.0; 
stroke:#840000; stroke-width:0.1524; stroke-opacity:1; 
stroke-linecap:round; stroke-linejoin:round;">
<path d="M45.3451 20.9302
L45.3451 23.4702
" />
</g>
<g style="fill:#006464; fill-opacity:0.0; 
stroke:#006464; stroke-width:0.1524; stroke-opacity:1; 
stroke-linecap:round; stroke-linejoin:round;">
<g transform="rotate(-90.000000 45.3451 20.4222)">
<text x="45.3451" y="21.0572"
textLength="4.0737" font-size="1.6933" lengthAdjust="spacingAndGlyphs"
text-anchor="start" opacity="0">GND</text>
</g>
<g class="stroked-text"><desc>GND</desc>
<path d="M44.7151 19.3543
L44.6546 19.4753
" />
<path d="M44.6546 19.4753
L44.6546 19.6567
" />
<path d="M44.6546 19.6567
L44.7151 19.8381
" />
<path d="M44.7151 19.8381
L44.8361 19.9591
" />
<path d="M44.8361 19.9591
L44.9570 20.0196
" />
<path d="M44.9570 20.0196
L45.1989 20.0800
" />
<path d="M45.1989 20.0800
L45.3803 20.0800
" />
<path d="M45.3803 20.0800
L45.6222 20.0196
" />
<path d="M45.6222 20.0196
L45.7432 19.9591
" />
<path d="M45.7432 19.9591
L45.8642 19.8381
" />
<path d="M45.8642 19.8381
L45.9246 19.6567
" />
<path d="M45.9246 19.6567
L45.9246 19.5358
" />
<path d="M45.9246 19.5358
L45.8642 19.3543
" />
<path d="M45.8642 19.3543
L45.8037 19.2939
" />
<path d="M45.8037 19.2939
L45.3803 19.2939
" />
<path d="M45.3803 19.2939
L45.3803 19.5358
" />
<path d="M45.9246 18.7496
L44.6546 18.7496
" />
<path d="M44.6546 18.7496
L45.9246 18.0239
" />
<path d="M45.9246 18.0239
L44.6546 18.0239
" />
<path d="M45.9246 17.4191
L44.6546 17.4191
" />
<path d="M44.6546 17.4191
L44.6546 17.1167
" />
<path d="M44.6546 17.1167
L44.7151 16.9353
" />
<path d="M44.7151 16.9353
L44.8361 16.8143
" />
<path d="M44.8361 16.8143
L44.9570 16.7538
" />
<path d="M44.9570 16.7538
L45.1989 16.6934
" />
<path d="M45.1989 16.6934
L45.3803 16.6934
" />
<path d="M45.3803 16.6934
L45.6222 16.7538
" />
<path d="M45.6222 16.7538
L45.7432 16.8143
" />
<path d="M45.7432 16.8143
L45.8642 16.9353
" />
<path d="M45.8642 16.9353
L45.9246 17.1167
" />
<path d="M45.9246 17.1167
L45.9246 17.4191
" />
</g></g>
<g style="fill:#A90000; fill-opacity:0.0; 
stroke:#A90000; stroke-width:0.1524; stroke-opacity:1; 
stroke-linecap:round; stroke-linejoin:round;">
<g transform="rotate(-90.000000 45.0911 22.2002)">
<text x="45.0911" y="22.2002"
textLength="1.4127" font-size="1.6933" lengthAdjust="spacingAndGlyphs"
text-anchor="middle" opacity="0">5</text>
</g>
<g class="stroked-text"><desc>5</desc>
<path d="M43.6576 21.8977
L43.6576 22.5025
" />
<path d="M43.6576 22.5025
L44.2624 22.5629
" />
<path d="M44.2624 22.5629
L44.2019 22.5025
" />
<path d="M44.2019 22.5025
L44.1414 22.3815
" />
<path d="M44.1414 22.3815
L44.1414 22.0791
" />
<path d="M44.1414 22.0791
L44.2019 21.9582
" />
<path d="M44.2019 21.9582
L44.2624 21.8977
" />
<path d="M44.2624 21.8977
L44.3833 21.8372
" />
<path d="M44.3833 21.8372
L44.6857 21.8372
" />
<path d="M44.6857 21.8372
L44.8067 21.8977
" />
<path d="M44.8067 21.8977
L44.8672 21.9582
" />
<path d="M44.8672 21.9582
L44.9276 22.0791
" />
<path d="M44.9276 22.0791
L44.9276 22.3815
" />
<path d="M44.9276 22.3815
L44.8672 22.5025
" />
<path d="M44.8672 22.5025
L44.8067 22.5629
" />
</g></g>
<g style="fill:#840084; fill-opacity:0.0; 
stroke:#840084; stroke-width:0.1524; stroke-opacity:1; 
stroke-linecap:round; stroke-linejoin:round;">
</g>
<g style="fill:#006464; fill-opacity:0.0; 
stroke:#006464; stroke-width:0.1524; stroke-opacity:1; 
stroke-linecap:round; stroke-linejoin:round;">
</g>
<g style="fill:#006464; fill-opacity:0.0; 
stroke:#006464; stroke-width:0.1588; stroke-opacity:1; 
stroke-linecap:round; stroke-linejoin:round;">
<text x="50.4251" y="24.1052"
textLength="2.6415" font-size="1.6933" lengthAdjust="spacingAndGlyphs"
text-anchor="middle" opacity="0">U?</text>
<g class="stroked-text"><desc>U?</desc>
<path d="M49.5179 22.7794
L49.5179 23.8075
" />
<path d="M49.5179 23.8075
L49.5784 23.9285
" />
<path d="M49.5784 23.9285
L49.6389 23.9890
" />
<path d="M49.6389 23.9890
L49.7598 24.0494
" />
<path d="M49.7598 24.0494
L50.0017 24.0494
" />
<path d="M50.0017 24.0494
L50.1227 23.9890
" />
<path d="M50.1227 23.9890
L50.1832 23.9285
" />
<path d="M50.1832 23.9285
L50.2436 23.8075
" />
<path d="M50.2436 23.8075
L50.2436 22.7794
" />
<path d="M51.0299 23.9285
L51.0903 23.9890
" />
<path d="M51.0903 23.9890
L51.0299 24.0494
" />
<path d="M51.0299 24.0494
L50.9694 23.9890
" />
<path d="M50.9694 23.9890
L51.0299 23.9285
" />
<path d="M51.0299 23.9285
L51.0299 24.0494
" />
<path d="M50.7880 22.8399
L50.9089 22.7794
" />
<path d="M50.9089 22.7794
L51.2113 22.7794
" />
<path d="M51.2113 22.7794
L51.3322 22.8399
" />
<path d="M51.3322 22.8399
L51.3927 22.9609
" />
<path d="M51.3927 22.9609
L51.3927 23.0818
" />
<path d="M51.3927 23.0818
L51.3322 23.2028
" />
<path d="M51.3322 23.2028
L51.2718 23.2632
" />
<path d="M51.2718 23.2632
L51.1508 23.3237
" />
<path d="M51.1508 23.3237
L51.0903 23.3842
" />
<path d="M51.0903 23.3842
L51.0299 23.5051
" />
<path d="M51.0299 23.5051
L51.0299 23.5656
" />
</g><text x="52.9651" y="26.6452"
textLength="6.9352" font-size="1.6933" lengthAdjust="spacingAndGlyphs"
text-anchor="middle" opacity="0">IP2721</text>
<g class="stroked-text"><desc>IP2721</desc>
<path d="M49.9110 26.5894
L49.9110 25.3194
" />
<path d="M50.5158 26.5894
L50.5158 25.3194
" />
<path d="M50.5158 25.3194
L50.9996 25.3194
" />
<path d="M50.9996 25.3194
L51.1206 25.3799
" />
<path d="M51.1206 25.3799
L51.1811 25.4404
" />
<path d="M51.1811 25.4404
L51.2415 25.5613
" />
<path d="M51.2415 25.5613
L51.2415 25.7428
" />
<path d="M51.2415 25.7428
L51.1811 25.8637
" />
<path d="M51.1811 25.8637
L51.1206 25.9242
" />
<path d="M51.1206 25.9242
L50.9996 25.9847
" />
<path d="M50.9996 25.9847
L50.5158 25.9847
" />
<path d="M51.7254 25.4404
L51.7858 25.3799
" />
<path d="M51.7858 25.3799
L51.9068 25.3194
" />
<path d="M51.9068 25.3194
L52.2092 25.3194
" />
<path d="M52.2092 25.3194
L52.3301 25.3799
" />
<path d="M52.3301 25.3799
L52.3906 25.4404
" />
<path d="M52.3906 25.4404
L52.4511 25.5613
" />
<path d="M52.4511 25.5613
L52.4511 25.6823
" />
<path d="M52.4511 25.6823
L52.3906 25.8637
" />
<path d="M52.3906 25.8637
L51.6649 26.5894
" />
<path d="M51.6649 26.5894
L52.4511 26.5894
" />
<path d="M52.8744 25.3194
L53.7210 25.3194
" />
<path d="M53.7210 25.3194
L53.1768 26.5894
" />
<path d="M54.1444 25.4404
L54.2048 25.3799
" />
<path d="M54.2048 25.3799
L54.3258 25.3194
" />
<path d="M54.3258 25.3194
L54.6282 25.3194
" />
<path d="M54.6282 25.3194
L54.7491 25.3799
" />
<path d="M54.7491 25.3799
L54.8096 25.4404
" />
<path d="M54.8096 25.4404
L54.8701 25.5613
" />
<path d="M54.8701 25.5613
L54.8701 25.6823
" />
<path d="M54.8701 25.6823
L54.8096 25.8637
" />
<path d="M54.8096 25.8637
L54.0839 26.5894
" />
<path d="M54.0839 26.5894
L54.8701 26.5894
" />
<path d="M56.0796 26.5894
L55.3539 26.5894
" />
<path d="M55.7167 26.5894
L55.7167 25.3194
" />
<path d="M55.7167 25.3194
L55.5958 25.5009
" />
<path d="M55.5958 25.5009
L55.4748 25.6218
" />
<path d="M55.4748 25.6218
L55.3539 25.6823
" />
</g></g>
<g style="fill:#840084; fill-opacity:0.0; 
stroke:#840084; stroke-width:0.1588; stroke-opacity:1; 
stroke-linecap:round; stroke-linejoin:round;">
<text x="45.3451" y="34.2652"
textLength="41.7087" font-size="1.6933" lengthAdjust="spacingAndGlyphs"
text-anchor="middle" opacity="0">Package_SO:TSSOP-16_4.4x5mm_P0.65mm</text>
<g class="stroked-text"><desc>Package_SO:TSSOP-16_4.4x5mm_P0.65mm</desc>
<path d="M24.9043 34.2094
L24.9043 32.9394
" />
<path d="M24.9043 32.9394
L25.3881 32.9394
" />
<path d="M25.3881 32.9394
L25.5091 32.9999
" />
<path d="M25.5091 32.9999
L25.5696 33.0604
" />
<path d="M25.5696 33.0604
L25.6300 33.1813
" />
<path d="M25.6300 33.1813
L25.6300 33.3628
" />
<path d="M25.6300 33.3628
L25.5696 33.4837
" />
<path d="M25.5696 33.4837
L25.5091 33.5442
" />
<path d="M25.5091 33.5442
L25.3881 33.6047
" />
<path d="M25.3881 33.6047
L24.9043 33.6047
" />
<path d="M26.7186 34.2094
L26.7186 33.5442
" />
<path d="M26.7186 33.5442
L26.6581 33.4232
" />
<path d="M26.6581 33.4232
L26.5372 33.3628
" />
<path d="M26.5372 33.3628
L26.2953 33.3628
" />
<path d="M26.2953 33.3628
L26.1743 33.4232
" />
<path d="M26.7186 34.1490
L26.5977 34.2094
" />
<path d="M26.5977 34.2094
L26.2953 34.2094
" />
<path d="M26.2953 34.2094
L26.1743 34.1490
" />
<path d="M26.1743 34.1490
L26.1139 34.0280
" />
<path d="M26.1139 34.0280
L26.1139 33.9070
" />
<path d="M26.1139 33.9070
L26.1743 33.7861
" />
<path d="M26.1743 33.7861
L26.2953 33.7256
" />
<path d="M26.2953 33.7256
L26.5977 33.7256
" />
<path d="M26.5977 33.7256
L26.7186 33.6651
" />
<path d="M27.8676 34.1490
L27.7467 34.2094
" />
<path d="M27.7467 34.2094
L27.5048 34.2094
" />
<path d="M27.5048 34.2094
L27.3838 34.1490
" />
<path d="M27.3838 34.1490
L27.3233 34.0885
" />
<path d="M27.3233 34.0885
L27.2629 33.9675
" />
<path d="M27.2629 33.9675
L27.2629 33.6047
" />
<path d="M27.2629 33.6047
L27.3233 33.4837
" />
<path d="M27.3233 33.4837
L27.3838 33.4232
" />
<path d="M27.3838 33.4232
L27.5048 33.3628
" />
<path d="M27.5048 33.3628
L27.7467 33.3628
" />
<path d="M27.7467 33.3628
L27.8676 33.4232
" />
<path d="M28.4119 34.2094
L28.4119 32.9394
" />
<path d="M28.5329 33.7256
L28.8957 34.2094
" />
<path d="M28.8957 33.3628
L28.4119 33.8466
" />
<path d="M29.9843 34.2094
L29.9843 33.5442
" />
<path d="M29.9843 33.5442
L29.9238 33.4232
" />
<path d="M29.9238 33.4232
L29.8029 33.3628
" />
<path d="M29.8029 33.3628
L29.5610 33.3628
" />
<path d="M29.5610 33.3628
L29.4400 33.4232
" />
<path d="M29.9843 34.1490
L29.8634 34.2094
" />
<path d="M29.8634 34.2094
L29.5610 34.2094
" />
<path d="M29.5610 34.2094
L29.4400 34.1490
" />
<path d="M29.4400 34.1490
L29.3796 34.0280
" />
<path d="M29.3796 34.0280
L29.3796 33.9070
" />
<path d="M29.3796 33.9070
L29.4400 33.7861
" />
<path d="M29.4400 33.7861
L29.5610 33.7256
" />
<path d="M29.5610 33.7256
L29.8634 33.7256
" />
<path d="M29.8634 33.7256
L29.9843 33.6651
" />
<path d="M31.1333 33.3628
L31.1333 34.3909
" />
<path d="M31.1333 34.3909
L31.0728 34.5118
" />
<path d="M31.0728 34.5118
L31.0124 34.5723
" />
<path d="M31.0124 34.5723
L30.8914 34.6328
" />
<path d="M30.8914 34.6328
L30.7100 34.6328
" />
<path d="M30.7100 34.6328
L30.5890 34.5723
" />
<path d="M31.1333 34.1490
L31.0124 34.2094
" />
<path d="M31.0124 34.2094
L30.7705 34.2094
" />
<path d="M30.7705 34.2094
L30.6495 34.1490
" />
<path d="M30.6495 34.1490
L30.5890 34.0885
" />
<path d="M30.5890 34.0885
L30.5286 33.9675
" />
<path d="M30.5286 33.9675
L30.5286 33.6047
" />
<path d="M30.5286 33.6047
L30.5890 33.4837
" />
<path d="M30.5890 33.4837
L30.6495 33.4232
" />
<path d="M30.6495 33.4232
L30.7705 33.3628
" />
<path d="M30.7705 33.3628
L31.0124 33.3628
" />
<path d="M31.0124 33.3628
L31.1333 33.4232
" />
<path d="M32.2218 34.1490
L32.1009 34.2094
" />
<path d="M32.1009 34.2094
L31.8590 34.2094
" />
<path d="M31.8590 34.2094
L31.7380 34.1490
" />
<path d="M31.7380 34.1490
L31.6776 34.0280
" />
<path d="M31.6776 34.0280
L31.6776 33.5442
" />
<path d="M31.6776 33.5442
L31.7380 33.4232
" />
<path d="M31.7380 33.4232
L31.8590 33.3628
" />
<path d="M31.8590 33.3628
L32.1009 33.3628
" />
<path d="M32.1009 33.3628
L32.2218 33.4232
" />
<path d="M32.2218 33.4232
L32.2823 33.5442
" />
<path d="M32.2823 33.5442
L32.2823 33.6651
" />
<path d="M32.2823 33.6651
L31.6776 33.7861
" />
<path d="M32.5243 34.3304
L33.4919 34.3304
" />
<path d="M33.7338 34.1490
L33.9152 34.2094
" />
<path d="M33.9152 34.2094
L34.2176 34.2094
" />
<path d="M34.2176 34.2094
L34.3385 34.1490
" />
<path d="M34.3385 34.1490
L34.3990 34.0885
" />
<path d="M34.3990 34.0885
L34.4595 33.9675
" />
<path d="M34.4595 33.9675
L34.4595 33.8466
" />
<path d="M34.4595 33.8466
L34.3990 33.7256
" />
<path d="M34.3990 33.7256
L34.3385 33.6651
" />
<path d="M34.3385 33.6651
L34.2176 33.6047
" />
<path d="M34.2176 33.6047
L33.9757 33.5442
" />
<path d="M33.9757 33.5442
L33.8547 33.4837
" />
<path d="M33.8547 33.4837
L33.7942 33.4232
" />
<path d="M33.7942 33.4232
L33.7338 33.3023
" />
<path d="M33.7338 33.3023
L33.7338 33.1813
" />
<path d="M33.7338 33.1813
L33.7942 33.0604
" />
<path d="M33.7942 33.0604
L33.8547 32.9999
" />
<path d="M33.8547 32.9999
L33.9757 32.9394
" />
<path d="M33.9757 32.9394
L34.2780 32.9394
" />
<path d="M34.2780 32.9394
L34.4595 32.9999
" />
<path d="M35.2456 32.9394
L35.4875 32.9394
" />
<path d="M35.4875 32.9394
L35.6085 32.9999
" />
<path d="M35.6085 32.9999
L35.7294 33.1209
" />
<path d="M35.7294 33.1209
L35.7899 33.3628
" />
<path d="M35.7899 33.3628
L35.7899 33.7861
" />
<path d="M35.7899 33.7861
L35.7294 34.0280
" />
<path d="M35.7294 34.0280
L35.6085 34.1490
" />
<path d="M35.6085 34.1490
L35.4875 34.2094
" />
<path d="M35.4875 34.2094
L35.2456 34.2094
" />
<path d="M35.2456 34.2094
L35.1247 34.1490
" />
<path d="M35.1247 34.1490
L35.0037 34.0280
" />
<path d="M35.0037 34.0280
L34.9433 33.7861
" />
<path d="M34.9433 33.7861
L34.9433 33.3628
" />
<path d="M34.9433 33.3628
L35.0037 33.1209
" />
<path d="M35.0037 33.1209
L35.1247 32.9999
" />
<path d="M35.1247 32.9999
L35.2456 32.9394
" />
<path d="M36.3342 34.0885
L36.3947 34.1490
" />
<path d="M36.3947 34.1490
L36.3342 34.2094
" />
<path d="M36.3342 34.2094
L36.2738 34.1490
" />
<path d="M36.2738 34.1490
L36.3342 34.0885
" />
<path d="M36.3342 34.0885
L36.3342 34.2094
" />
<path d="M36.3342 33.4232
L36.3947 33.4837
" />
<path d="M36.3947 33.4837
L36.3342 33.5442
" />
<path d="M36.3342 33.5442
L36.2738 33.4837
" />
<path d="M36.2738 33.4837
L36.3342 33.4232
" />
<path d="M36.3342 33.4232
L36.3342 33.5442
" />
<path d="M36.7576 32.9394
L37.4833 32.9394
" />
<path d="M37.1205 34.2094
L37.1205 32.9394
" />
<path d="M37.8462 34.1490
L38.0276 34.2094
" />
<path d="M38.0276 34.2094
L38.3300 34.2094
" />
<path d="M38.3300 34.2094
L38.4509 34.1490
" />
<path d="M38.4509 34.1490
L38.5114 34.0885
" />
<path d="M38.5114 34.0885
L38.5719 33.9675
" />
<path d="M38.5719 33.9675
L38.5719 33.8466
" />
<path d="M38.5719 33.8466
L38.5114 33.7256
" />
<path d="M38.5114 33.7256
L38.4509 33.6651
" />
<path d="M38.4509 33.6651
L38.3300 33.6047
" />
<path d="M38.3300 33.6047
L38.0881 33.5442
" />
<path d="M38.0881 33.5442
L37.9671 33.4837
" />
<path d="M37.9671 33.4837
L37.9066 33.4232
" />
<path d="M37.9066 33.4232
L37.8462 33.3023
" />
<path d="M37.8462 33.3023
L37.8462 33.1813
" />
<path d="M37.8462 33.1813
L37.9066 33.0604
" />
<path d="M37.9066 33.0604
L37.9671 32.9999
" />
<path d="M37.9671 32.9999
L38.0881 32.9394
" />
<path d="M38.0881 32.9394
L38.3904 32.9394
" />
<path d="M38.3904 32.9394
L38.5719 32.9999
" />
<path d="M39.0557 34.1490
L39.2371 34.2094
" />
<path d="M39.2371 34.2094
L39.5395 34.2094
" />
<path d="M39.5395 34.2094
L39.6604 34.1490
" />
<path d="M39.6604 34.1490
L39.7209 34.0885
" />
<path d="M39.7209 34.0885
L39.7814 33.9675
" />
<path d="M39.7814 33.9675
L39.7814 33.8466
" />
<path d="M39.7814 33.8466
L39.7209 33.7256
" />
<path d="M39.7209 33.7256
L39.6604 33.6651
" />
<path d="M39.6604 33.6651
L39.5395 33.6047
" />
<path d="M39.5395 33.6047
L39.2976 33.5442
" />
<path d="M39.2976 33.5442
L39.1766 33.4837
" />
<path d="M39.1766 33.4837
L39.1161 33.4232
" />
<path d="M39.1161 33.4232
L39.0557 33.3023
" />
<path d="M39.0557 33.3023
L39.0557 33.1813
" />
<path d="M39.0557 33.1813
L39.1161 33.0604
" />
<path d="M39.1161 33.0604
L39.1766 32.9999
" />
<path d="M39.1766 32.9999
L39.2976 32.9394
" />
<path d="M39.2976 32.9394
L39.5999 32.9394
" />
<path d="M39.5999 32.9394
L39.7814 32.9999
" />
<path d="M40.5675 32.9394
L40.8094 32.9394
" />
<path d="M40.8094 32.9394
L40.9304 32.9999
" />
<path d="M40.9304 32.9999
L41.0513 33.1209
" />
<path d="M41.0513 33.1209
L41.1118 33.3628
" />
<path d="M41.1118 33.3628
L41.1118 33.7861
" />
<path d="M41.1118 33.7861
L41.0513 34.0280
" />
<path d="M41.0513 34.0280
L40.9304 34.1490
" />
<path d="M40.9304 34.1490
L40.8094 34.2094
" />
<path d="M40.8094 34.2094
L40.5675 34.2094
" />
<path d="M40.5675 34.2094
L40.4466 34.1490
" />
<path d="M40.4466 34.1490
L40.3256 34.0280
" />
<path d="M40.3256 34.0280
L40.2652 33.7861
" />
<path d="M40.2652 33.7861
L40.2652 33.3628
" />
<path d="M40.2652 33.3628
L40.3256 33.1209
" />
<path d="M40.3256 33.1209
L40.4466 32.9999
" />
<path d="M40.4466 32.9999
L40.5675 32.9394
" />
<path d="M41.6561 34.2094
L41.6561 32.9394
" />
<path d="M41.6561 32.9394
L42.1399 32.9394
" />
<path d="M42.1399 32.9394
L42.2609 32.9999
" />
<path d="M42.2609 32.9999
L42.3214 33.0604
" />
<path d="M42.3214 33.0604
L42.3818 33.1813
" />
<path d="M42.3818 33.1813
L42.3818 33.3628
" />
<path d="M42.3818 33.3628
L42.3214 33.4837
" />
<path d="M42.3214 33.4837
L42.2609 33.5442
" />
<path d="M42.2609 33.5442
L42.1399 33.6047
" />
<path d="M42.1399 33.6047
L41.6561 33.6047
" />
<path d="M42.9261 33.7256
L43.8938 33.7256
" />
<path d="M45.1638 34.2094
L44.4381 34.2094
" />
<path d="M44.8009 34.2094
L44.8009 32.9394
" />
<path d="M44.8009 32.9394
L44.6800 33.1209
" />
<path d="M44.6800 33.1209
L44.5590 33.2418
" />
<path d="M44.5590 33.2418
L44.4381 33.3023
" />
<path d="M46.2523 32.9394
L46.0104 32.9394
" />
<path d="M46.0104 32.9394
L45.8895 32.9999
" />
<path d="M45.8895 32.9999
L45.8290 33.0604
" />
<path d="M45.8290 33.0604
L45.7080 33.2418
" />
<path d="M45.7080 33.2418
L45.6476 33.4837
" />
<path d="M45.6476 33.4837
L45.6476 33.9675
" />
<path d="M45.6476 33.9675
L45.7080 34.0885
" />
<path d="M45.7080 34.0885
L45.7685 34.1490
" />
<path d="M45.7685 34.1490
L45.8895 34.2094
" />
<path d="M45.8895 34.2094
L46.1314 34.2094
" />
<path d="M46.1314 34.2094
L46.2523 34.1490
" />
<path d="M46.2523 34.1490
L46.3128 34.0885
" />
<path d="M46.3128 34.0885
L46.3733 33.9675
" />
<path d="M46.3733 33.9675
L46.3733 33.6651
" />
<path d="M46.3733 33.6651
L46.3128 33.5442
" />
<path d="M46.3128 33.5442
L46.2523 33.4837
" />
<path d="M46.2523 33.4837
L46.1314 33.4232
" />
<path d="M46.1314 33.4232
L45.8895 33.4232
" />
<path d="M45.8895 33.4232
L45.7685 33.4837
" />
<path d="M45.7685 33.4837
L45.7080 33.5442
" />
<path d="M45.7080 33.5442
L45.6476 33.6651
" />
<path d="M46.6152 34.3304
L47.5828 34.3304
" />
<path d="M48.4294 33.3628
L48.4294 34.2094
" />
<path d="M48.1270 32.8790
L47.8247 33.7861
" />
<path d="M47.8247 33.7861
L48.6108 33.7861
" />
<path d="M49.0946 34.0885
L49.1551 34.1490
" />
<path d="M49.1551 34.1490
L49.0946 34.2094
" />
<path d="M49.0946 34.2094
L49.0342 34.1490
" />
<path d="M49.0342 34.1490
L49.0946 34.0885
" />
<path d="M49.0946 34.0885
L49.0946 34.2094
" />
<path d="M50.2437 33.3628
L50.2437 34.2094
" />
<path d="M49.9413 32.8790
L49.6390 33.7861
" />
<path d="M49.6390 33.7861
L50.4251 33.7861
" />
<path d="M50.7880 34.2094
L51.4532 33.3628
" />
<path d="M50.7880 33.3628
L51.4532 34.2094
" />
<path d="M52.5418 32.9394
L51.9370 32.9394
" />
<path d="M51.9370 32.9394
L51.8766 33.5442
" />
<path d="M51.8766 33.5442
L51.9370 33.4837
" />
<path d="M51.9370 33.4837
L52.0580 33.4232
" />
<path d="M52.0580 33.4232
L52.3604 33.4232
" />
<path d="M52.3604 33.4232
L52.4813 33.4837
" />
<path d="M52.4813 33.4837
L52.5418 33.5442
" />
<path d="M52.5418 33.5442
L52.6023 33.6651
" />
<path d="M52.6023 33.6651
L52.6023 33.9675
" />
<path d="M52.6023 33.9675
L52.5418 34.0885
" />
<path d="M52.5418 34.0885
L52.4813 34.1490
" />
<path d="M52.4813 34.1490
L52.3604 34.2094
" />
<path d="M52.3604 34.2094
L52.0580 34.2094
" />
<path d="M52.0580 34.2094
L51.9370 34.1490
" />
<path d="M51.9370 34.1490
L51.8766 34.0885
" />
<path d="M53.1465 34.2094
L53.1465 33.3628
" />
<path d="M53.1465 33.4837
L53.2070 33.4232
" />
<path d="M53.2070 33.4232
L53.3280 33.3628
" />
<path d="M53.3280 33.3628
L53.5094 33.3628
" />
<path d="M53.5094 33.3628
L53.6303 33.4232
" />
<path d="M53.6303 33.4232
L53.6908 33.5442
" />
<path d="M53.6908 33.5442
L53.6908 34.2094
" />
<path d="M53.6908 33.5442
L53.7513 33.4232
" />
<path d="M53.7513 33.4232
L53.8722 33.3628
" />
<path d="M53.8722 33.3628
L54.0537 33.3628
" />
<path d="M54.0537 33.3628
L54.1746 33.4232
" />
<path d="M54.1746 33.4232
L54.2351 33.5442
" />
<path d="M54.2351 33.5442
L54.2351 34.2094
" />
<path d="M54.8398 34.2094
L54.8398 33.3628
" />
<path d="M54.8398 33.4837
L54.9003 33.4232
" />
<path d="M54.9003 33.4232
L55.0213 33.3628
" />
<path d="M55.0213 33.3628
L55.2027 33.3628
" />
<path d="M55.2027 33.3628
L55.3236 33.4232
" />
<path d="M55.3236 33.4232
L55.3841 33.5442
" />
<path d="M55.3841 33.5442
L55.3841 34.2094
" />
<path d="M55.3841 33.5442
L55.4446 33.4232
" />
<path d="M55.4446 33.4232
L55.5655 33.3628
" />
<path d="M55.5655 33.3628
L55.7470 33.3628
" />
<path d="M55.7470 33.3628
L55.8679 33.4232
" />
<path d="M55.8679 33.4232
L55.9284 33.5442
" />
<path d="M55.9284 33.5442
L55.9284 34.2094
" />
<path d="M56.2308 34.3304
L57.1984 34.3304
" />
<path d="M57.5007 34.2094
L57.5007 32.9394
" />
<path d="M57.5007 32.9394
L57.9845 32.9394
" />
<path d="M57.9845 32.9394
L58.1055 32.9999
" />
<path d="M58.1055 32.9999
L58.1660 33.0604
" />
<path d="M58.1660 33.0604
L58.2264 33.1813
" />
<path d="M58.2264 33.1813
L58.2264 33.3628
" />
<path d="M58.2264 33.3628
L58.1660 33.4837
" />
<path d="M58.1660 33.4837
L58.1055 33.5442
" />
<path d="M58.1055 33.5442
L57.9845 33.6047
" />
<path d="M57.9845 33.6047
L57.5007 33.6047
" />
<path d="M59.0126 32.9394
L59.1336 32.9394
" />
<path d="M59.1336 32.9394
L59.2545 32.9999
" />
<path d="M59.2545 32.9999
L59.3150 33.0604
" />
<path d="M59.3150 33.0604
L59.3755 33.1813
" />
<path d="M59.3755 33.1813
L59.4360 33.4232
" />
<path d="M59.4360 33.4232
L59.4360 33.7256
" />
<path d="M59.4360 33.7256
L59.3755 33.9675
" />
<path d="M59.3755 33.9675
L59.3150 34.0885
" />
<path d="M59.3150 34.0885
L59.2545 34.1490
" />
<path d="M59.2545 34.1490
L59.1336 34.2094
" />
<path d="M59.1336 34.2094
L59.0126 34.2094
" />
<path d="M59.0126 34.2094
L58.8917 34.1490
" />
<path d="M58.8917 34.1490
L58.8312 34.0885
" />
<path d="M58.8312 34.0885
L58.7707 33.9675
" />
<path d="M58.7707 33.9675
L58.7103 33.7256
" />
<path d="M58.7103 33.7256
L58.7103 33.4232
" />
<path d="M58.7103 33.4232
L58.7707 33.1813
" />
<path d="M58.7707 33.1813
L58.8312 33.0604
" />
<path d="M58.8312 33.0604
L58.8917 32.9999
" />
<path d="M58.8917 32.9999
L59.0126 32.9394
" />
<path d="M59.9802 34.0885
L60.0407 34.1490
" />
<path d="M60.0407 34.1490
L59.9802 34.2094
" />
<path d="M59.9802 34.2094
L59.9198 34.1490
" />
<path d="M59.9198 34.1490
L59.9802 34.0885
" />
<path d="M59.9802 34.0885
L59.9802 34.2094
" />
<path d="M61.1293 32.9394
L60.8874 32.9394
" />
<path d="M60.8874 32.9394
L60.7665 32.9999
" />
<path d="M60.7665 32.9999
L60.7060 33.0604
" />
<path d="M60.7060 33.0604
L60.5850 33.2418
" />
<path d="M60.5850 33.2418
L60.5246 33.4837
" />
<path d="M60.5246 33.4837
L60.5246 33.9675
" />
<path d="M60.5246 33.9675
L60.5850 34.0885
" />
<path d="M60.5850 34.0885
L60.6455 34.1490
" />
<path d="M60.6455 34.1490
L60.7665 34.2094
" />
<path d="M60.7665 34.2094
L61.0084 34.2094
" />
<path d="M61.0084 34.2094
L61.1293 34.1490
" />
<path d="M61.1293 34.1490
L61.1898 34.0885
" />
<path d="M61.1898 34.0885
L61.2503 33.9675
" />
<path d="M61.2503 33.9675
L61.2503 33.6651
" />
<path d="M61.2503 33.6651
L61.1898 33.5442
" />
<path d="M61.1898 33.5442
L61.1293 33.4837
" />
<path d="M61.1293 33.4837
L61.0084 33.4232
" />
<path d="M61.0084 33.4232
L60.7665 33.4232
" />
<path d="M60.7665 33.4232
L60.6455 33.4837
" />
<path d="M60.6455 33.4837
L60.5850 33.5442
" />
<path d="M60.5850 33.5442
L60.5246 33.6651
" />
<path d="M62.3993 32.9394
L61.7945 32.9394
" />
<path d="M61.7945 32.9394
L61.7341 33.5442
" />
<path d="M61.7341 33.5442
L61.7945 33.4837
" />
<path d="M61.7945 33.4837
L61.9155 33.4232
" />
<path d="M61.9155 33.4232
L62.2179 33.4232
" />
<path d="M62.2179 33.4232
L62.3388 33.4837
" />
<path d="M62.3388 33.4837
L62.3993 33.5442
" />
<path d="M62.3993 33.5442
L62.4598 33.6651
" />
<path d="M62.4598 33.6651
L62.4598 33.9675
" />
<path d="M62.4598 33.9675
L62.3993 34.0885
" />
<path d="M62.3993 34.0885
L62.3388 34.1490
" />
<path d="M62.3388 34.1490
L62.2179 34.2094
" />
<path d="M62.2179 34.2094
L61.9155 34.2094
" />
<path d="M61.9155 34.2094
L61.7945 34.1490
" />
<path d="M61.7945 34.1490
L61.7341 34.0885
" />
<path d="M63.0040 34.2094
L63.0040 33.3628
" />
<path d="M63.0040 33.4837
L63.0645 33.4232
" />
<path d="M63.0645 33.4232
L63.1855 33.3628
" />
<path d="M63.1855 33.3628
L63.3669 33.3628
" />
<path d="M63.3669 33.3628
L63.4878 33.4232
" />
<path d="M63.4878 33.4232
L63.5483 33.5442
" />
<path d="M63.5483 33.5442
L63.5483 34.2094
" />
<path d="M63.5483 33.5442
L63.6088 33.4232
" />
<path d="M63.6088 33.4232
L63.7297 33.3628
" />
<path d="M63.7297 33.3628
L63.9112 33.3628
" />
<path d="M63.9112 33.3628
L64.0321 33.4232
" />
<path d="M64.0321 33.4232
L64.0926 33.5442
" />
<path d="M64.0926 33.5442
L64.0926 34.2094
" />
<path d="M64.6973 34.2094
L64.6973 33.3628
" />
<path d="M64.6973 33.4837
L64.7578 33.4232
" />
<path d="M64.7578 33.4232
L64.8788 33.3628
" />
<path d="M64.8788 33.3628
L65.0602 33.3628
" />
<path d="M65.0602 33.3628
L65.1811 33.4232
" />
<path d="M65.1811 33.4232
L65.2416 33.5442
" />
<path d="M65.2416 33.5442
L65.2416 34.2094
" />
<path d="M65.2416 33.5442
L65.3021 33.4232
" />
<path d="M65.3021 33.4232
L65.4230 33.3628
" />
<path d="M65.4230 33.3628
L65.6045 33.3628
" />
<path d="M65.6045 33.3628
L65.7254 33.4232
" />
<path d="M65.7254 33.4232
L65.7859 33.5442
" />
<path d="M65.7859 33.5442
L65.7859 34.2094
" />
</g><text x="45.3451" y="13.9452"
textLength="75.5753" font-size="1.6933" lengthAdjust="spacingAndGlyphs"
text-anchor="middle" opacity="0">https://datasheet.lcsc.com/lcsc/2006111335_INJOINIC-IP2721_C603176.pdf</text>
<g class="stroked-text"><desc>https://datasheet.lcsc.com/lcsc/2006111335_INJOINIC-IP2721_C603176.pdf</desc>
<path d="M7.9710 13.8894
L7.9710 12.6194
" />
<path d="M8.5153 13.8894
L8.5153 13.2242
" />
<path d="M8.5153 13.2242
L8.4548 13.1032
" />
<path d="M8.4548 13.1032
L8.3339 13.0428
" />
<path d="M8.3339 13.0428
L8.1525 13.0428
" />
<path d="M8.1525 13.0428
L8.0315 13.1032
" />
<path d="M8.0315 13.1032
L7.9710 13.1637
" />
<path d="M8.9386 13.0428
L9.4224 13.0428
" />
<path d="M9.1200 12.6194
L9.1200 13.7080
" />
<path d="M9.1200 13.7080
L9.1805 13.8290
" />
<path d="M9.1805 13.8290
L9.3015 13.8894
" />
<path d="M9.3015 13.8894
L9.4224 13.8894
" />
<path d="M9.6643 13.0428
L10.1481 13.0428
" />
<path d="M9.8457 12.6194
L9.8457 13.7080
" />
<path d="M9.8457 13.7080
L9.9062 13.8290
" />
<path d="M9.9062 13.8290
L10.0272 13.8894
" />
<path d="M10.0272 13.8894
L10.1481 13.8894
" />
<path d="M10.5714 13.0428
L10.5714 14.3128
" />
<path d="M10.5714 13.1032
L10.6924 13.0428
" />
<path d="M10.6924 13.0428
L10.9343 13.0428
" />
<path d="M10.9343 13.0428
L11.0552 13.1032
" />
<path d="M11.0552 13.1032
L11.1157 13.1637
" />
<path d="M11.1157 13.1637
L11.1762 13.2847
" />
<path d="M11.1762 13.2847
L11.1762 13.6475
" />
<path d="M11.1762 13.6475
L11.1157 13.7685
" />
<path d="M11.1157 13.7685
L11.0552 13.8290
" />
<path d="M11.0552 13.8290
L10.9343 13.8894
" />
<path d="M10.9343 13.8894
L10.6924 13.8894
" />
<path d="M10.6924 13.8894
L10.5714 13.8290
" />
<path d="M11.6600 13.8290
L11.7809 13.8894
" />
<path d="M11.7809 13.8894
L12.0228 13.8894
" />
<path d="M12.0228 13.8894
L12.1438 13.8290
" />
<path d="M12.1438 13.8290
L12.2042 13.7080
" />
<path d="M12.2042 13.7080
L12.2042 13.6475
" />
<path d="M12.2042 13.6475
L12.1438 13.5266
" />
<path d="M12.1438 13.5266
L12.0228 13.4661
" />
<path d="M12.0228 13.4661
L11.8414 13.4661
" />
<path d="M11.8414 13.4661
L11.7204 13.4056
" />
<path d="M11.7204 13.4056
L11.6600 13.2847
" />
<path d="M11.6600 13.2847
L11.6600 13.2242
" />
<path d="M11.6600 13.2242
L11.7204 13.1032
" />
<path d="M11.7204 13.1032
L11.8414 13.0428
" />
<path d="M11.8414 13.0428
L12.0228 13.0428
" />
<path d="M12.0228 13.0428
L12.1438 13.1032
" />
<path d="M12.7485 13.7685
L12.8090 13.8290
" />
<path d="M12.8090 13.8290
L12.7485 13.8894
" />
<path d="M12.7485 13.8894
L12.6881 13.8290
" />
<path d="M12.6881 13.8290
L12.7485 13.7685
" />
<path d="M12.7485 13.7685
L12.7485 13.8894
" />
<path d="M12.7485 13.1032
L12.8090 13.1637
" />
<path d="M12.8090 13.1637
L12.7485 13.2242
" />
<path d="M12.7485 13.2242
L12.6881 13.1637
" />
<path d="M12.6881 13.1637
L12.7485 13.1032
" />
<path d="M12.7485 13.1032
L12.7485 13.2242
" />
<path d="M14.2605 12.5590
L13.1719 14.1918
" />
<path d="M15.5910 12.5590
L14.5024 14.1918
" />
<path d="M16.5586 13.8894
L16.5586 12.6194
" />
<path d="M16.5586 13.8290
L16.4377 13.8894
" />
<path d="M16.4377 13.8894
L16.1958 13.8894
" />
<path d="M16.1958 13.8894
L16.0748 13.8290
" />
<path d="M16.0748 13.8290
L16.0143 13.7685
" />
<path d="M16.0143 13.7685
L15.9539 13.6475
" />
<path d="M15.9539 13.6475
L15.9539 13.2847
" />
<path d="M15.9539 13.2847
L16.0143 13.1637
" />
<path d="M16.0143 13.1637
L16.0748 13.1032
" />
<path d="M16.0748 13.1032
L16.1958 13.0428
" />
<path d="M16.1958 13.0428
L16.4377 13.0428
" />
<path d="M16.4377 13.0428
L16.5586 13.1032
" />
<path d="M17.7076 13.8894
L17.7076 13.2242
" />
<path d="M17.7076 13.2242
L17.6471 13.1032
" />
<path d="M17.6471 13.1032
L17.5262 13.0428
" />
<path d="M17.5262 13.0428
L17.2843 13.0428
" />
<path d="M17.2843 13.0428
L17.1633 13.1032
" />
<path d="M17.7076 13.8290
L17.5867 13.8894
" />
<path d="M17.5867 13.8894
L17.2843 13.8894
" />
<path d="M17.2843 13.8894
L17.1633 13.8290
" />
<path d="M17.1633 13.8290
L17.1029 13.7080
" />
<path d="M17.1029 13.7080
L17.1029 13.5870
" />
<path d="M17.1029 13.5870
L17.1633 13.4661
" />
<path d="M17.1633 13.4661
L17.2843 13.4056
" />
<path d="M17.2843 13.4056
L17.5867 13.4056
" />
<path d="M17.5867 13.4056
L17.7076 13.3451
" />
<path d="M18.1309 13.0428
L18.6147 13.0428
" />
<path d="M18.3123 12.6194
L18.3123 13.7080
" />
<path d="M18.3123 13.7080
L18.3728 13.8290
" />
<path d="M18.3728 13.8290
L18.4938 13.8894
" />
<path d="M18.4938 13.8894
L18.6147 13.8894
" />
<path d="M19.5823 13.8894
L19.5823 13.2242
" />
<path d="M19.5823 13.2242
L19.5218 13.1032
" />
<path d="M19.5218 13.1032
L19.4009 13.0428
" />
<path d="M19.4009 13.0428
L19.1590 13.0428
" />
<path d="M19.1590 13.0428
L19.0380 13.1032
" />
<path d="M19.5823 13.8290
L19.4614 13.8894
" />
<path d="M19.4614 13.8894
L19.1590 13.8894
" />
<path d="M19.1590 13.8894
L19.0380 13.8290
" />
<path d="M19.0380 13.8290
L18.9776 13.7080
" />
<path d="M18.9776 13.7080
L18.9776 13.5870
" />
<path d="M18.9776 13.5870
L19.0380 13.4661
" />
<path d="M19.0380 13.4661
L19.1590 13.4056
" />
<path d="M19.1590 13.4056
L19.4614 13.4056
" />
<path d="M19.4614 13.4056
L19.5823 13.3451
" />
<path d="M20.1266 13.8290
L20.2475 13.8894
" />
<path d="M20.2475 13.8894
L20.4894 13.8894
" />
<path d="M20.4894 13.8894
L20.6104 13.8290
" />
<path d="M20.6104 13.8290
L20.6708 13.7080
" />
<path d="M20.6708 13.7080
L20.6708 13.6475
" />
<path d="M20.6708 13.6475
L20.6104 13.5266
" />
<path d="M20.6104 13.5266
L20.4894 13.4661
" />
<path d="M20.4894 13.4661
L20.3080 13.4661
" />
<path d="M20.3080 13.4661
L20.1870 13.4056
" />
<path d="M20.1870 13.4056
L20.1266 13.2847
" />
<path d="M20.1266 13.2847
L20.1266 13.2242
" />
<path d="M20.1266 13.2242
L20.1870 13.1032
" />
<path d="M20.1870 13.1032
L20.3080 13.0428
" />
<path d="M20.3080 13.0428
L20.4894 13.0428
" />
<path d="M20.4894 13.0428
L20.6104 13.1032
" />
<path d="M21.2151 13.8894
L21.2151 12.6194
" />
<path d="M21.7594 13.8894
L21.7594 13.2242
" />
<path d="M21.7594 13.2242
L21.6989 13.1032
" />
<path d="M21.6989 13.1032
L21.5780 13.0428
" />
<path d="M21.5780 13.0428
L21.3966 13.0428
" />
<path d="M21.3966 13.0428
L21.2756 13.1032
" />
<path d="M21.2756 13.1032
L21.2151 13.1637
" />
<path d="M22.8479 13.8290
L22.7270 13.8894
" />
<path d="M22.7270 13.8894
L22.4851 13.8894
" />
<path d="M22.4851 13.8894
L22.3641 13.8290
" />
<path d="M22.3641 13.8290
L22.3037 13.7080
" />
<path d="M22.3037 13.7080
L22.3037 13.2242
" />
<path d="M22.3037 13.2242
L22.3641 13.1032
" />
<path d="M22.3641 13.1032
L22.4851 13.0428
" />
<path d="M22.4851 13.0428
L22.7270 13.0428
" />
<path d="M22.7270 13.0428
L22.8479 13.1032
" />
<path d="M22.8479 13.1032
L22.9084 13.2242
" />
<path d="M22.9084 13.2242
L22.9084 13.3451
" />
<path d="M22.9084 13.3451
L22.3037 13.4661
" />
<path d="M23.9365 13.8290
L23.8156 13.8894
" />
<path d="M23.8156 13.8894
L23.5737 13.8894
" />
<path d="M23.5737 13.8894
L23.4527 13.8290
" />
<path d="M23.4527 13.8290
L23.3923 13.7080
" />
<path d="M23.3923 13.7080
L23.3923 13.2242
" />
<path d="M23.3923 13.2242
L23.4527 13.1032
" />
<path d="M23.4527 13.1032
L23.5737 13.0428
" />
<path d="M23.5737 13.0428
L23.8156 13.0428
" />
<path d="M23.8156 13.0428
L23.9365 13.1032
" />
<path d="M23.9365 13.1032
L23.9970 13.2242
" />
<path d="M23.9970 13.2242
L23.9970 13.3451
" />
<path d="M23.9970 13.3451
L23.3923 13.4661
" />
<path d="M24.3599 13.0428
L24.8437 13.0428
" />
<path d="M24.5413 12.6194
L24.5413 13.7080
" />
<path d="M24.5413 13.7080
L24.6018 13.8290
" />
<path d="M24.6018 13.8290
L24.7228 13.8894
" />
<path d="M24.7228 13.8894
L24.8437 13.8894
" />
<path d="M25.2670 13.7685
L25.3275 13.8290
" />
<path d="M25.3275 13.8290
L25.2670 13.8894
" />
<path d="M25.2670 13.8894
L25.2066 13.8290
" />
<path d="M25.2066 13.8290
L25.2670 13.7685
" />
<path d="M25.2670 13.7685
L25.2670 13.8894
" />
<path d="M26.0533 13.8894
L25.9323 13.8290
" />
<path d="M25.9323 13.8290
L25.8718 13.7080
" />
<path d="M25.8718 13.7080
L25.8718 12.6194
" />
<path d="M27.0813 13.8290
L26.9604 13.8894
" />
<path d="M26.9604 13.8894
L26.7185 13.8894
" />
<path d="M26.7185 13.8894
L26.5975 13.8290
" />
<path d="M26.5975 13.8290
L26.5370 13.7685
" />
<path d="M26.5370 13.7685
L26.4766 13.6475
" />
<path d="M26.4766 13.6475
L26.4766 13.2847
" />
<path d="M26.4766 13.2847
L26.5370 13.1637
" />
<path d="M26.5370 13.1637
L26.5975 13.1032
" />
<path d="M26.5975 13.1032
L26.7185 13.0428
" />
<path d="M26.7185 13.0428
L26.9604 13.0428
" />
<path d="M26.9604 13.0428
L27.0813 13.1032
" />
<path d="M27.5652 13.8290
L27.6861 13.8894
" />
<path d="M27.6861 13.8894
L27.9280 13.8894
" />
<path d="M27.9280 13.8894
L28.0490 13.8290
" />
<path d="M28.0490 13.8290
L28.1094 13.7080
" />
<path d="M28.1094 13.7080
L28.1094 13.6475
" />
<path d="M28.1094 13.6475
L28.0490 13.5266
" />
<path d="M28.0490 13.5266
L27.9280 13.4661
" />
<path d="M27.9280 13.4661
L27.7466 13.4661
" />
<path d="M27.7466 13.4661
L27.6256 13.4056
" />
<path d="M27.6256 13.4056
L27.5652 13.2847
" />
<path d="M27.5652 13.2847
L27.5652 13.2242
" />
<path d="M27.5652 13.2242
L27.6256 13.1032
" />
<path d="M27.6256 13.1032
L27.7466 13.0428
" />
<path d="M27.7466 13.0428
L27.9280 13.0428
" />
<path d="M27.9280 13.0428
L28.0490 13.1032
" />
<path d="M29.1980 13.8290
L29.0771 13.8894
" />
<path d="M29.0771 13.8894
L28.8352 13.8894
" />
<path d="M28.8352 13.8894
L28.7142 13.8290
" />
<path d="M28.7142 13.8290
L28.6537 13.7685
" />
<path d="M28.6537 13.7685
L28.5933 13.6475
" />
<path d="M28.5933 13.6475
L28.5933 13.2847
" />
<path d="M28.5933 13.2847
L28.6537 13.1637
" />
<path d="M28.6537 13.1637
L28.7142 13.1032
" />
<path d="M28.7142 13.1032
L28.8352 13.0428
" />
<path d="M28.8352 13.0428
L29.0771 13.0428
" />
<path d="M29.0771 13.0428
L29.1980 13.1032
" />
<path d="M29.7423 13.7685
L29.8028 13.8290
" />
<path d="M29.8028 13.8290
L29.7423 13.8894
" />
<path d="M29.7423 13.8894
L29.6819 13.8290
" />
<path d="M29.6819 13.8290
L29.7423 13.7685
" />
<path d="M29.7423 13.7685
L29.7423 13.8894
" />
<path d="M30.8914 13.8290
L30.7705 13.8894
" />
<path d="M30.7705 13.8894
L30.5286 13.8894
" />
<path d="M30.5286 13.8894
L30.4076 13.8290
" />
<path d="M30.4076 13.8290
L30.3471 13.7685
" />
<path d="M30.3471 13.7685
L30.2867 13.6475
" />
<path d="M30.2867 13.6475
L30.2867 13.2847
" />
<path d="M30.2867 13.2847
L30.3471 13.1637
" />
<path d="M30.3471 13.1637
L30.4076 13.1032
" />
<path d="M30.4076 13.1032
L30.5286 13.0428
" />
<path d="M30.5286 13.0428
L30.7705 13.0428
" />
<path d="M30.7705 13.0428
L30.8914 13.1032
" />
<path d="M31.6172 13.8894
L31.4962 13.8290
" />
<path d="M31.4962 13.8290
L31.4357 13.7685
" />
<path d="M31.4357 13.7685
L31.3753 13.6475
" />
<path d="M31.3753 13.6475
L31.3753 13.2847
" />
<path d="M31.3753 13.2847
L31.4357 13.1637
" />
<path d="M31.4357 13.1637
L31.4962 13.1032
" />
<path d="M31.4962 13.1032
L31.6172 13.0428
" />
<path d="M31.6172 13.0428
L31.7986 13.0428
" />
<path d="M31.7986 13.0428
L31.9195 13.1032
" />
<path d="M31.9195 13.1032
L31.9800 13.1637
" />
<path d="M31.9800 13.1637
L32.0405 13.2847
" />
<path d="M32.0405 13.2847
L32.0405 13.6475
" />
<path d="M32.0405 13.6475
L31.9800 13.7685
" />
<path d="M31.9800 13.7685
L31.9195 13.8290
" />
<path d="M31.9195 13.8290
L31.7986 13.8894
" />
<path d="M31.7986 13.8894
L31.6172 13.8894
" />
<path d="M32.5847 13.8894
L32.5847 13.0428
" />
<path d="M32.5847 13.1637
L32.6452 13.1032
" />
<path d="M32.6452 13.1032
L32.7662 13.0428
" />
<path d="M32.7662 13.0428
L32.9476 13.0428
" />
<path d="M32.9476 13.0428
L33.0685 13.1032
" />
<path d="M33.0685 13.1032
L33.1290 13.2242
" />
<path d="M33.1290 13.2242
L33.1290 13.8894
" />
<path d="M33.1290 13.2242
L33.1895 13.1032
" />
<path d="M33.1895 13.1032
L33.3104 13.0428
" />
<path d="M33.3104 13.0428
L33.4919 13.0428
" />
<path d="M33.4919 13.0428
L33.6128 13.1032
" />
<path d="M33.6128 13.1032
L33.6733 13.2242
" />
<path d="M33.6733 13.2242
L33.6733 13.8894
" />
<path d="M35.1852 12.5590
L34.0966 14.1918
" />
<path d="M35.7900 13.8894
L35.6690 13.8290
" />
<path d="M35.6690 13.8290
L35.6085 13.7080
" />
<path d="M35.6085 13.7080
L35.6085 12.6194
" />
<path d="M36.8180 13.8290
L36.6971 13.8894
" />
<path d="M36.6971 13.8894
L36.4552 13.8894
" />
<path d="M36.4552 13.8894
L36.3342 13.8290
" />
<path d="M36.3342 13.8290
L36.2737 13.7685
" />
<path d="M36.2737 13.7685
L36.2133 13.6475
" />
<path d="M36.2133 13.6475
L36.2133 13.2847
" />
<path d="M36.2133 13.2847
L36.2737 13.1637
" />
<path d="M36.2737 13.1637
L36.3342 13.1032
" />
<path d="M36.3342 13.1032
L36.4552 13.0428
" />
<path d="M36.4552 13.0428
L36.6971 13.0428
" />
<path d="M36.6971 13.0428
L36.8180 13.1032
" />
<path d="M37.3019 13.8290
L37.4228 13.8894
" />
<path d="M37.4228 13.8894
L37.6647 13.8894
" />
<path d="M37.6647 13.8894
L37.7857 13.8290
" />
<path d="M37.7857 13.8290
L37.8461 13.7080
" />
<path d="M37.8461 13.7080
L37.8461 13.6475
" />
<path d="M37.8461 13.6475
L37.7857 13.5266
" />
<path d="M37.7857 13.5266
L37.6647 13.4661
" />
<path d="M37.6647 13.4661
L37.4833 13.4661
" />
<path d="M37.4833 13.4661
L37.3623 13.4056
" />
<path d="M37.3623 13.4056
L37.3019 13.2847
" />
<path d="M37.3019 13.2847
L37.3019 13.2242
" />
<path d="M37.3019 13.2242
L37.3623 13.1032
" />
<path d="M37.3623 13.1032
L37.4833 13.0428
" />
<path d="M37.4833 13.0428
L37.6647 13.0428
" />
<path d="M37.6647 13.0428
L37.7857 13.1032
" />
<path d="M38.9347 13.8290
L38.8138 13.8894
" />
<path d="M38.8138 13.8894
L38.5719 13.8894
" />
<path d="M38.5719 13.8894
L38.4509 13.8290
" />
<path d="M38.4509 13.8290
L38.3904 13.7685
" />
<path d="M38.3904 13.7685
L38.3300 13.6475
" />
<path d="M38.3300 13.6475
L38.3300 13.2847
" />
<path d="M38.3300 13.2847
L38.3904 13.1637
" />
<path d="M38.3904 13.1637
L38.4509 13.1032
" />
<path d="M38.4509 13.1032
L38.5719 13.0428
" />
<path d="M38.5719 13.0428
L38.8138 13.0428
" />
<path d="M38.8138 13.0428
L38.9347 13.1032
" />
<path d="M40.3862 12.5590
L39.2976 14.1918
" />
<path d="M40.7491 12.7404
L40.8095 12.6799
" />
<path d="M40.8095 12.6799
L40.9305 12.6194
" />
<path d="M40.9305 12.6194
L41.2329 12.6194
" />
<path d="M41.2329 12.6194
L41.3538 12.6799
" />
<path d="M41.3538 12.6799
L41.4143 12.7404
" />
<path d="M41.4143 12.7404
L41.4748 12.8613
" />
<path d="M41.4748 12.8613
L41.4748 12.9823
" />
<path d="M41.4748 12.9823
L41.4143 13.1637
" />
<path d="M41.4143 13.1637
L40.6886 13.8894
" />
<path d="M40.6886 13.8894
L41.4748 13.8894
" />
<path d="M42.2609 12.6194
L42.3819 12.6194
" />
<path d="M42.3819 12.6194
L42.5028 12.6799
" />
<path d="M42.5028 12.6799
L42.5633 12.7404
" />
<path d="M42.5633 12.7404
L42.6238 12.8613
" />
<path d="M42.6238 12.8613
L42.6843 13.1032
" />
<path d="M42.6843 13.1032
L42.6843 13.4056
" />
<path d="M42.6843 13.4056
L42.6238 13.6475
" />
<path d="M42.6238 13.6475
L42.5633 13.7685
" />
<path d="M42.5633 13.7685
L42.5028 13.8290
" />
<path d="M42.5028 13.8290
L42.3819 13.8894
" />
<path d="M42.3819 13.8894
L42.2609 13.8894
" />
<path d="M42.2609 13.8894
L42.1400 13.8290
" />
<path d="M42.1400 13.8290
L42.0795 13.7685
" />
<path d="M42.0795 13.7685
L42.0190 13.6475
" />
<path d="M42.0190 13.6475
L41.9586 13.4056
" />
<path d="M41.9586 13.4056
L41.9586 13.1032
" />
<path d="M41.9586 13.1032
L42.0190 12.8613
" />
<path d="M42.0190 12.8613
L42.0795 12.7404
" />
<path d="M42.0795 12.7404
L42.1400 12.6799
" />
<path d="M42.1400 12.6799
L42.2609 12.6194
" />
<path d="M43.4704 12.6194
L43.5914 12.6194
" />
<path d="M43.5914 12.6194
L43.7123 12.6799
" />
<path d="M43.7123 12.6799
L43.7728 12.7404
" />
<path d="M43.7728 12.7404
L43.8333 12.8613
" />
<path d="M43.8333 12.8613
L43.8938 13.1032
" />
<path d="M43.8938 13.1032
L43.8938 13.4056
" />
<path d="M43.8938 13.4056
L43.8333 13.6475
" />
<path d="M43.8333 13.6475
L43.7728 13.7685
" />
<path d="M43.7728 13.7685
L43.7123 13.8290
" />
<path d="M43.7123 13.8290
L43.5914 13.8894
" />
<path d="M43.5914 13.8894
L43.4704 13.8894
" />
<path d="M43.4704 13.8894
L43.3495 13.8290
" />
<path d="M43.3495 13.8290
L43.2890 13.7685
" />
<path d="M43.2890 13.7685
L43.2285 13.6475
" />
<path d="M43.2285 13.6475
L43.1681 13.4056
" />
<path d="M43.1681 13.4056
L43.1681 13.1032
" />
<path d="M43.1681 13.1032
L43.2285 12.8613
" />
<path d="M43.2285 12.8613
L43.2890 12.7404
" />
<path d="M43.2890 12.7404
L43.3495 12.6799
" />
<path d="M43.3495 12.6799
L43.4704 12.6194
" />
<path d="M44.9823 12.6194
L44.7404 12.6194
" />
<path d="M44.7404 12.6194
L44.6195 12.6799
" />
<path d="M44.6195 12.6799
L44.5590 12.7404
" />
<path d="M44.5590 12.7404
L44.4380 12.9218
" />
<path d="M44.4380 12.9218
L44.3776 13.1637
" />
<path d="M44.3776 13.1637
L44.3776 13.6475
" />
<path d="M44.3776 13.6475
L44.4380 13.7685
" />
<path d="M44.4380 13.7685
L44.4985 13.8290
" />
<path d="M44.4985 13.8290
L44.6195 13.8894
" />
<path d="M44.6195 13.8894
L44.8614 13.8894
" />
<path d="M44.8614 13.8894
L44.9823 13.8290
" />
<path d="M44.9823 13.8290
L45.0428 13.7685
" />
<path d="M45.0428 13.7685
L45.1033 13.6475
" />
<path d="M45.1033 13.6475
L45.1033 13.3451
" />
<path d="M45.1033 13.3451
L45.0428 13.2242
" />
<path d="M45.0428 13.2242
L44.9823 13.1637
" />
<path d="M44.9823 13.1637
L44.8614 13.1032
" />
<path d="M44.8614 13.1032
L44.6195 13.1032
" />
<path d="M44.6195 13.1032
L44.4985 13.1637
" />
<path d="M44.4985 13.1637
L44.4380 13.2242
" />
<path d="M44.4380 13.2242
L44.3776 13.3451
" />
<path d="M46.3128 13.8894
L45.5871 13.8894
" />
<path d="M45.9499 13.8894
L45.9499 12.6194
" />
<path d="M45.9499 12.6194
L45.8290 12.8009
" />
<path d="M45.8290 12.8009
L45.7080 12.9218
" />
<path d="M45.7080 12.9218
L45.5871 12.9823
" />
<path d="M47.5223 13.8894
L46.7966 13.8894
" />
<path d="M47.1594 13.8894
L47.1594 12.6194
" />
<path d="M47.1594 12.6194
L47.0385 12.8009
" />
<path d="M47.0385 12.8009
L46.9175 12.9218
" />
<path d="M46.9175 12.9218
L46.7966 12.9823
" />
<path d="M48.7318 13.8894
L48.0061 13.8894
" />
<path d="M48.3689 13.8894
L48.3689 12.6194
" />
<path d="M48.3689 12.6194
L48.2480 12.8009
" />
<path d="M48.2480 12.8009
L48.1270 12.9218
" />
<path d="M48.1270 12.9218
L48.0061 12.9823
" />
<path d="M49.1551 12.6194
L49.9413 12.6194
" />
<path d="M49.9413 12.6194
L49.5179 13.1032
" />
<path d="M49.5179 13.1032
L49.6994 13.1032
" />
<path d="M49.6994 13.1032
L49.8203 13.1637
" />
<path d="M49.8203 13.1637
L49.8808 13.2242
" />
<path d="M49.8808 13.2242
L49.9413 13.3451
" />
<path d="M49.9413 13.3451
L49.9413 13.6475
" />
<path d="M49.9413 13.6475
L49.8808 13.7685
" />
<path d="M49.8808 13.7685
L49.8203 13.8290
" />
<path d="M49.8203 13.8290
L49.6994 13.8894
" />
<path d="M49.6994 13.8894
L49.3365 13.8894
" />
<path d="M49.3365 13.8894
L49.2156 13.8290
" />
<path d="M49.2156 13.8290
L49.1551 13.7685
" />
<path d="M50.3646 12.6194
L51.1508 12.6194
" />
<path d="M51.1508 12.6194
L50.7274 13.1032
" />
<path d="M50.7274 13.1032
L50.9089 13.1032
" />
<path d="M50.9089 13.1032
L51.0298 13.1637
" />
<path d="M51.0298 13.1637
L51.0903 13.2242
" />
<path d="M51.0903 13.2242
L51.1508 13.3451
" />
<path d="M51.1508 13.3451
L51.1508 13.6475
" />
<path d="M51.1508 13.6475
L51.0903 13.7685
" />
<path d="M51.0903 13.7685
L51.0298 13.8290
" />
<path d="M51.0298 13.8290
L50.9089 13.8894
" />
<path d="M50.9089 13.8894
L50.5460 13.8894
" />
<path d="M50.5460 13.8894
L50.4251 13.8290
" />
<path d="M50.4251 13.8290
L50.3646 13.7685
" />
<path d="M52.2998 12.6194
L51.6950 12.6194
" />
<path d="M51.6950 12.6194
L51.6346 13.2242
" />
<path d="M51.6346 13.2242
L51.6950 13.1637
" />
<path d="M51.6950 13.1637
L51.8160 13.1032
" />
<path d="M51.8160 13.1032
L52.1184 13.1032
" />
<path d="M52.1184 13.1032
L52.2393 13.1637
" />
<path d="M52.2393 13.1637
L52.2998 13.2242
" />
<path d="M52.2998 13.2242
L52.3603 13.3451
" />
<path d="M52.3603 13.3451
L52.3603 13.6475
" />
<path d="M52.3603 13.6475
L52.2998 13.7685
" />
<path d="M52.2998 13.7685
L52.2393 13.8290
" />
<path d="M52.2393 13.8290
L52.1184 13.8894
" />
<path d="M52.1184 13.8894
L51.8160 13.8894
" />
<path d="M51.8160 13.8894
L51.6950 13.8290
" />
<path d="M51.6950 13.8290
L51.6346 13.7685
" />
<path d="M52.6022 14.0104
L53.5698 14.0104
" />
<path d="M53.8721 13.8894
L53.8721 12.6194
" />
<path d="M54.4769 13.8894
L54.4769 12.6194
" />
<path d="M54.4769 12.6194
L55.2026 13.8894
" />
<path d="M55.2026 13.8894
L55.2026 12.6194
" />
<path d="M56.1703 12.6194
L56.1703 13.5266
" />
<path d="M56.1703 13.5266
L56.1098 13.7080
" />
<path d="M56.1098 13.7080
L55.9889 13.8290
" />
<path d="M55.9889 13.8290
L55.8074 13.8894
" />
<path d="M55.8074 13.8894
L55.6865 13.8894
" />
<path d="M57.0169 12.6194
L57.2588 12.6194
" />
<path d="M57.2588 12.6194
L57.3798 12.6799
" />
<path d="M57.3798 12.6799
L57.5007 12.8009
" />
<path d="M57.5007 12.8009
L57.5612 13.0428
" />
<path d="M57.5612 13.0428
L57.5612 13.4661
" />
<path d="M57.5612 13.4661
L57.5007 13.7080
" />
<path d="M57.5007 13.7080
L57.3798 13.8290
" />
<path d="M57.3798 13.8290
L57.2588 13.8894
" />
<path d="M57.2588 13.8894
L57.0169 13.8894
" />
<path d="M57.0169 13.8894
L56.8960 13.8290
" />
<path d="M56.8960 13.8290
L56.7750 13.7080
" />
<path d="M56.7750 13.7080
L56.7146 13.4661
" />
<path d="M56.7146 13.4661
L56.7146 13.0428
" />
<path d="M56.7146 13.0428
L56.7750 12.8009
" />
<path d="M56.7750 12.8009
L56.8960 12.6799
" />
<path d="M56.8960 12.6799
L57.0169 12.6194
" />
<path d="M58.1055 13.8894
L58.1055 12.6194
" />
<path d="M58.7103 13.8894
L58.7103 12.6194
" />
<path d="M58.7103 12.6194
L59.4360 13.8894
" />
<path d="M59.4360 13.8894
L59.4360 12.6194
" />
<path d="M60.0408 13.8894
L60.0408 12.6194
" />
<path d="M61.3713 13.7685
L61.3109 13.8290
" />
<path d="M61.3109 13.8290
L61.1294 13.8894
" />
<path d="M61.1294 13.8894
L61.0085 13.8894
" />
<path d="M61.0085 13.8894
L60.8271 13.8290
" />
<path d="M60.8271 13.8290
L60.7061 13.7080
" />
<path d="M60.7061 13.7080
L60.6456 13.5870
" />
<path d="M60.6456 13.5870
L60.5852 13.3451
" />
<path d="M60.5852 13.3451
L60.5852 13.1637
" />
<path d="M60.5852 13.1637
L60.6456 12.9218
" />
<path d="M60.6456 12.9218
L60.7061 12.8009
" />
<path d="M60.7061 12.8009
L60.8271 12.6799
" />
<path d="M60.8271 12.6799
L61.0085 12.6194
" />
<path d="M61.0085 12.6194
L61.1294 12.6194
" />
<path d="M61.1294 12.6194
L61.3109 12.6799
" />
<path d="M61.3109 12.6799
L61.3713 12.7404
" />
<path d="M61.9156 13.4056
L62.8833 13.4056
" />
<path d="M63.4880 13.8894
L63.4880 12.6194
" />
<path d="M64.0928 13.8894
L64.0928 12.6194
" />
<path d="M64.0928 12.6194
L64.5766 12.6194
" />
<path d="M64.5766 12.6194
L64.6976 12.6799
" />
<path d="M64.6976 12.6799
L64.7581 12.7404
" />
<path d="M64.7581 12.7404
L64.8185 12.8613
" />
<path d="M64.8185 12.8613
L64.8185 13.0428
" />
<path d="M64.8185 13.0428
L64.7581 13.1637
" />
<path d="M64.7581 13.1637
L64.6976 13.2242
" />
<path d="M64.6976 13.2242
L64.5766 13.2847
" />
<path d="M64.5766 13.2847
L64.0928 13.2847
" />
<path d="M65.3024 12.7404
L65.3628 12.6799
" />
<path d="M65.3628 12.6799
L65.4838 12.6194
" />
<path d="M65.4838 12.6194
L65.7862 12.6194
" />
<path d="M65.7862 12.6194
L65.9071 12.6799
" />
<path d="M65.9071 12.6799
L65.9676 12.7404
" />
<path d="M65.9676 12.7404
L66.0281 12.8613
" />
<path d="M66.0281 12.8613
L66.0281 12.9823
" />
<path d="M66.0281 12.9823
L65.9676 13.1637
" />
<path d="M65.9676 13.1637
L65.2419 13.8894
" />
<path d="M65.2419 13.8894
L66.0281 13.8894
" />
<path d="M66.4514 12.6194
L67.2980 12.6194
" />
<path d="M67.2980 12.6194
L66.7538 13.8894
" />
<path d="M67.7214 12.7404
L67.7818 12.6799
" />
<path d="M67.7818 12.6799
L67.9028 12.6194
" />
<path d="M67.9028 12.6194
L68.2052 12.6194
" />
<path d="M68.2052 12.6194
L68.3261 12.6799
" />
<path d="M68.3261 12.6799
L68.3866 12.7404
" />
<path d="M68.3866 12.7404
L68.4471 12.8613
" />
<path d="M68.4471 12.8613
L68.4471 12.9823
" />
<path d="M68.4471 12.9823
L68.3866 13.1637
" />
<path d="M68.3866 13.1637
L67.6609 13.8894
" />
<path d="M67.6609 13.8894
L68.4471 13.8894
" />
<path d="M69.6566 13.8894
L68.9309 13.8894
" />
<path d="M69.2937 13.8894
L69.2937 12.6194
" />
<path d="M69.2937 12.6194
L69.1728 12.8009
" />
<path d="M69.1728 12.8009
L69.0518 12.9218
" />
<path d="M69.0518 12.9218
L68.9309 12.9823
" />
<path d="M69.8985 14.0104
L70.8661 14.0104
" />
<path d="M71.8941 13.7685
L71.8337 13.8290
" />
<path d="M71.8337 13.8290
L71.6522 13.8894
" />
<path d="M71.6522 13.8894
L71.5313 13.8894
" />
<path d="M71.5313 13.8894
L71.3499 13.8290
" />
<path d="M71.3499 13.8290
L71.2289 13.7080
" />
<path d="M71.2289 13.7080
L71.1684 13.5870
" />
<path d="M71.1684 13.5870
L71.1080 13.3451
" />
<path d="M71.1080 13.3451
L71.1080 13.1637
" />
<path d="M71.1080 13.1637
L71.1684 12.9218
" />
<path d="M71.1684 12.9218
L71.2289 12.8009
" />
<path d="M71.2289 12.8009
L71.3499 12.6799
" />
<path d="M71.3499 12.6799
L71.5313 12.6194
" />
<path d="M71.5313 12.6194
L71.6522 12.6194
" />
<path d="M71.6522 12.6194
L71.8337 12.6799
" />
<path d="M71.8337 12.6799
L71.8941 12.7404
" />
<path d="M72.9827 12.6194
L72.7408 12.6194
" />
<path d="M72.7408 12.6194
L72.6199 12.6799
" />
<path d="M72.6199 12.6799
L72.5594 12.7404
" />
<path d="M72.5594 12.7404
L72.4384 12.9218
" />
<path d="M72.4384 12.9218
L72.3780 13.1637
" />
<path d="M72.3780 13.1637
L72.3780 13.6475
" />
<path d="M72.3780 13.6475
L72.4384 13.7685
" />
<path d="M72.4384 13.7685
L72.4989 13.8290
" />
<path d="M72.4989 13.8290
L72.6199 13.8894
" />
<path d="M72.6199 13.8894
L72.8618 13.8894
" />
<path d="M72.8618 13.8894
L72.9827 13.8290
" />
<path d="M72.9827 13.8290
L73.0432 13.7685
" />
<path d="M73.0432 13.7685
L73.1037 13.6475
" />
<path d="M73.1037 13.6475
L73.1037 13.3451
" />
<path d="M73.1037 13.3451
L73.0432 13.2242
" />
<path d="M73.0432 13.2242
L72.9827 13.1637
" />
<path d="M72.9827 13.1637
L72.8618 13.1032
" />
<path d="M72.8618 13.1032
L72.6199 13.1032
" />
<path d="M72.6199 13.1032
L72.4989 13.1637
" />
<path d="M72.4989 13.1637
L72.4384 13.2242
" />
<path d="M72.4384 13.2242
L72.3780 13.3451
" />
<path d="M73.8898 12.6194
L74.0108 12.6194
" />
<path d="M74.0108 12.6194
L74.1317 12.6799
" />
<path d="M74.1317 12.6799
L74.1922 12.7404
" />
<path d="M74.1922 12.7404
L74.2527 12.8613
" />
<path d="M74.2527 12.8613
L74.3132 13.1032
" />
<path d="M74.3132 13.1032
L74.3132 13.4056
" />
<path d="M74.3132 13.4056
L74.2527 13.6475
" />
<path d="M74.2527 13.6475
L74.1922 13.7685
" />
<path d="M74.1922 13.7685
L74.1317 13.8290
" />
<path d="M74.1317 13.8290
L74.0108 13.8894
" />
<path d="M74.0108 13.8894
L73.8898 13.8894
" />
<path d="M73.8898 13.8894
L73.7689 13.8290
" />
<path d="M73.7689 13.8290
L73.7084 13.7685
" />
<path d="M73.7084 13.7685
L73.6479 13.6475
" />
<path d="M73.6479 13.6475
L73.5875 13.4056
" />
<path d="M73.5875 13.4056
L73.5875 13.1032
" />
<path d="M73.5875 13.1032
L73.6479 12.8613
" />
<path d="M73.6479 12.8613
L73.7084 12.7404
" />
<path d="M73.7084 12.7404
L73.7689 12.6799
" />
<path d="M73.7689 12.6799
L73.8898 12.6194
" />
<path d="M74.7365 12.6194
L75.5227 12.6194
" />
<path d="M75.5227 12.6194
L75.0993 13.1032
" />
<path d="M75.0993 13.1032
L75.2808 13.1032
" />
<path d="M75.2808 13.1032
L75.4017 13.1637
" />
<path d="M75.4017 13.1637
L75.4622 13.2242
" />
<path d="M75.4622 13.2242
L75.5227 13.3451
" />
<path d="M75.5227 13.3451
L75.5227 13.6475
" />
<path d="M75.5227 13.6475
L75.4622 13.7685
" />
<path d="M75.4622 13.7685
L75.4017 13.8290
" />
<path d="M75.4017 13.8290
L75.2808 13.8894
" />
<path d="M75.2808 13.8894
L74.9179 13.8894
" />
<path d="M74.9179 13.8894
L74.7970 13.8290
" />
<path d="M74.7970 13.8290
L74.7365 13.7685
" />
<path d="M76.7322 13.8894
L76.0065 13.8894
" />
<path d="M76.3693 13.8894
L76.3693 12.6194
" />
<path d="M76.3693 12.6194
L76.2484 12.8009
" />
<path d="M76.2484 12.8009
L76.1274 12.9218
" />
<path d="M76.1274 12.9218
L76.0065 12.9823
" />
<path d="M77.1555 12.6194
L78.0021 12.6194
" />
<path d="M78.0021 12.6194
L77.4579 13.8894
" />
<path d="M79.0302 12.6194
L78.7883 12.6194
" />
<path d="M78.7883 12.6194
L78.6674 12.6799
" />
<path d="M78.6674 12.6799
L78.6069 12.7404
" />
<path d="M78.6069 12.7404
L78.4859 12.9218
" />
<path d="M78.4859 12.9218
L78.4255 13.1637
" />
<path d="M78.4255 13.1637
L78.4255 13.6475
" />
<path d="M78.4255 13.6475
L78.4859 13.7685
" />
<path d="M78.4859 13.7685
L78.5464 13.8290
" />
<path d="M78.5464 13.8290
L78.6674 13.8894
" />
<path d="M78.6674 13.8894
L78.9093 13.8894
" />
<path d="M78.9093 13.8894
L79.0302 13.8290
" />
<path d="M79.0302 13.8290
L79.0907 13.7685
" />
<path d="M79.0907 13.7685
L79.1512 13.6475
" />
<path d="M79.1512 13.6475
L79.1512 13.3451
" />
<path d="M79.1512 13.3451
L79.0907 13.2242
" />
<path d="M79.0907 13.2242
L79.0302 13.1637
" />
<path d="M79.0302 13.1637
L78.9093 13.1032
" />
<path d="M78.9093 13.1032
L78.6674 13.1032
" />
<path d="M78.6674 13.1032
L78.5464 13.1637
" />
<path d="M78.5464 13.1637
L78.4859 13.2242
" />
<path d="M78.4859 13.2242
L78.4255 13.3451
" />
<path d="M79.6954 13.7685
L79.7559 13.8290
" />
<path d="M79.7559 13.8290
L79.6954 13.8894
" />
<path d="M79.6954 13.8894
L79.6350 13.8290
" />
<path d="M79.6350 13.8290
L79.6954 13.7685
" />
<path d="M79.6954 13.7685
L79.6954 13.8894
" />
<path d="M80.3002 13.0428
L80.3002 14.3128
" />
<path d="M80.3002 13.1032
L80.4212 13.0428
" />
<path d="M80.4212 13.0428
L80.6631 13.0428
" />
<path d="M80.6631 13.0428
L80.7840 13.1032
" />
<path d="M80.7840 13.1032
L80.8445 13.1637
" />
<path d="M80.8445 13.1637
L80.9050 13.2847
" />
<path d="M80.9050 13.2847
L80.9050 13.6475
" />
<path d="M80.9050 13.6475
L80.8445 13.7685
" />
<path d="M80.8445 13.7685
L80.7840 13.8290
" />
<path d="M80.7840 13.8290
L80.6631 13.8894
" />
<path d="M80.6631 13.8894
L80.4212 13.8894
" />
<path d="M80.4212 13.8894
L80.3002 13.8290
" />
<path d="M81.9935 13.8894
L81.9935 12.6194
" />
<path d="M81.9935 13.8290
L81.8726 13.8894
" />
<path d="M81.8726 13.8894
L81.6307 13.8894
" />
<path d="M81.6307 13.8894
L81.5097 13.8290
" />
<path d="M81.5097 13.8290
L81.4492 13.7685
" />
<path d="M81.4492 13.7685
L81.3888 13.6475
" />
<path d="M81.3888 13.6475
L81.3888 13.2847
" />
<path d="M81.3888 13.2847
L81.4492 13.1637
" />
<path d="M81.4492 13.1637
L81.5097 13.1032
" />
<path d="M81.5097 13.1032
L81.6307 13.0428
" />
<path d="M81.6307 13.0428
L81.8726 13.0428
" />
<path d="M81.8726 13.0428
L81.9935 13.1032
" />
<path d="M82.4168 13.0428
L82.9006 13.0428
" />
<path d="M82.5982 13.8894
L82.5982 12.8009
" />
<path d="M82.5982 12.8009
L82.6587 12.6799
" />
<path d="M82.6587 12.6799
L82.7797 12.6194
" />
<path d="M82.7797 12.6194
L82.9006 12.6194
" />
</g></g> 
</svg>
