<?xml version="1.0" standalone="no"?>
 <!DOCTYPE svg PUBLIC "-//W3C//DTD SVG 1.1//EN" 
 "http://www.w3.org/Graphics/SVG/1.1/DTD/svg11.dtd"> 
<svg
  xmlns:svg="http://www.w3.org/2000/svg"
  xmlns="http://www.w3.org/2000/svg"
  xmlns:xlink="http://www.w3.org/1999/xlink"
  version="1.1"
  width="45.0088mm" height="60.9600mm" viewBox="0.0000 0.0000 45.0088 60.9600">
<title>SVG Image created as working.svg date 2023/07/31 09:39:56 </title>
  <desc>Image generated by Eeschema-SVG </desc>
<g style="fill:#000000; fill-opacity:1.0000;stroke:#000000; stroke-opacity:1.0000;
stroke-linecap:round; stroke-linejoin:round;"
 transform="translate(0 0) scale(1 1)">
</g>
<g style="fill:#840000; fill-opacity:0.0; 
stroke:#840000; stroke-width:0.0000; stroke-opacity:1; 
stroke-linecap:round; stroke-linejoin:round;">
</g>
<g style="fill:#FFFFC2; fill-opacity:0.0; 
stroke:#FFFFC2; stroke-width:0.0000; stroke-opacity:1; 
stroke-linecap:round; stroke-linejoin:round;">
</g>
<g style="fill:#FFFFC2; fill-opacity:1.0000; 
stroke:#FFFFC2; stroke-width:0.0000; stroke-opacity:1; 
stroke-linecap:round; stroke-linejoin:round;">
<rect x="14.890200" y="10.160100" width="15.240000" height="40.640000" rx="0.000000" />
</g>
<g style="fill:#840084; fill-opacity:1.0000; 
stroke:#840084; stroke-width:0.0000; stroke-opacity:1; 
stroke-linecap:round; stroke-linejoin:round;">
</g>
<g style="fill:#840000; fill-opacity:1.0000; 
stroke:#840000; stroke-width:0.0000; stroke-opacity:1; 
stroke-linecap:round; stroke-linejoin:round;">
</g>
<g style="fill:#840000; fill-opacity:0.0; 
stroke:#840000; stroke-width:0.2540; stroke-opacity:1; 
stroke-linecap:round; stroke-linejoin:round;">
<rect x="14.890200" y="10.160100" width="15.240000" height="40.640000" rx="0.000000" />
</g>
<g style="fill:#840000; fill-opacity:0.0; 
stroke:#840000; stroke-width:0.1524; stroke-opacity:1; 
stroke-linecap:round; stroke-linejoin:round;">
<path d="M14.8902 12.7001
L9.8102 12.7001
" />
</g>
<g style="fill:#006464; fill-opacity:0.0; 
stroke:#006464; stroke-width:0.1524; stroke-opacity:1; 
stroke-linecap:round; stroke-linejoin:round;">
<text x="15.9062" y="13.3351"
textLength="2.4251" font-size="1.6933" lengthAdjust="spacingAndGlyphs"
text-anchor="start" opacity="0">Ds</text>
<g class="stroked-text"><desc>Ds</desc>
<path d="M16.2085 13.2876
L16.2085 12.0176
" />
<path d="M16.2085 12.0176
L16.5109 12.0176
" />
<path d="M16.5109 12.0176
L16.6923 12.0781
" />
<path d="M16.6923 12.0781
L16.8133 12.1991
" />
<path d="M16.8133 12.1991
L16.8738 12.3200
" />
<path d="M16.8738 12.3200
L16.9342 12.5619
" />
<path d="M16.9342 12.5619
L16.9342 12.7433
" />
<path d="M16.9342 12.7433
L16.8738 12.9852
" />
<path d="M16.8738 12.9852
L16.8133 13.1062
" />
<path d="M16.8133 13.1062
L16.6923 13.2272
" />
<path d="M16.6923 13.2272
L16.5109 13.2876
" />
<path d="M16.5109 13.2876
L16.2085 13.2876
" />
<path d="M17.4181 13.2272
L17.5390 13.2876
" />
<path d="M17.5390 13.2876
L17.7809 13.2876
" />
<path d="M17.7809 13.2876
L17.9019 13.2272
" />
<path d="M17.9019 13.2272
L17.9623 13.1062
" />
<path d="M17.9623 13.1062
L17.9623 13.0457
" />
<path d="M17.9623 13.0457
L17.9019 12.9248
" />
<path d="M17.9019 12.9248
L17.7809 12.8643
" />
<path d="M17.7809 12.8643
L17.5995 12.8643
" />
<path d="M17.5995 12.8643
L17.4785 12.8038
" />
<path d="M17.4785 12.8038
L17.4181 12.6829
" />
<path d="M17.4181 12.6829
L17.4181 12.6224
" />
<path d="M17.4181 12.6224
L17.4785 12.5014
" />
<path d="M17.4785 12.5014
L17.5995 12.4410
" />
<path d="M17.5995 12.4410
L17.7809 12.4410
" />
<path d="M17.7809 12.4410
L17.9019 12.5014
" />
</g></g>
<g style="fill:#A90000; fill-opacity:0.0; 
stroke:#A90000; stroke-width:0.1524; stroke-opacity:1; 
stroke-linecap:round; stroke-linejoin:round;">
<text x="12.3502" y="12.4461"
textLength="1.3365" font-size="1.6933" lengthAdjust="spacingAndGlyphs"
text-anchor="middle" opacity="0">1</text>
<g class="stroked-text"><desc>1</desc>
<path d="M12.7131 12.2906
L11.9874 12.2906
" />
<path d="M12.3502 12.2906
L12.3502 11.0206
" />
<path d="M12.3502 11.0206
L12.2293 11.2021
" />
<path d="M12.2293 11.2021
L12.1083 11.3230
" />
<path d="M12.1083 11.3230
L11.9874 11.3835
" />
</g></g>
<g style="fill:#840000; fill-opacity:0.0; 
stroke:#840000; stroke-width:0.1524; stroke-opacity:1; 
stroke-linecap:round; stroke-linejoin:round;">
<path d="M14.8902 25.4001
L9.8102 25.4001
" />
</g>
<g style="fill:#006464; fill-opacity:0.0; 
stroke:#006464; stroke-width:0.1524; stroke-opacity:1; 
stroke-linecap:round; stroke-linejoin:round;">
<text x="15.9062" y="26.0351"
textLength="1.2760" font-size="1.6933" lengthAdjust="spacingAndGlyphs"
text-anchor="start" opacity="0">E</text>
<g class="stroked-text"><desc>E</desc>
<path d="M16.2085 25.3224
L16.6319 25.3224
" />
<path d="M16.8133 25.9876
L16.2085 25.9876
" />
<path d="M16.2085 25.9876
L16.2085 24.7176
" />
<path d="M16.2085 24.7176
L16.8133 24.7176
" />
</g></g>
<g style="fill:#A90000; fill-opacity:0.0; 
stroke:#A90000; stroke-width:0.1524; stroke-opacity:1; 
stroke-linecap:round; stroke-linejoin:round;">
<text x="12.3502" y="25.1461"
textLength="2.5460" font-size="1.6933" lengthAdjust="spacingAndGlyphs"
text-anchor="middle" opacity="0">10</text>
<g class="stroked-text"><desc>10</desc>
<path d="M12.1083 24.9906
L11.3826 24.9906
" />
<path d="M11.7454 24.9906
L11.7454 23.7206
" />
<path d="M11.7454 23.7206
L11.6245 23.9021
" />
<path d="M11.6245 23.9021
L11.5035 24.0230
" />
<path d="M11.5035 24.0230
L11.3826 24.0835
" />
<path d="M12.8944 23.7206
L13.0154 23.7206
" />
<path d="M13.0154 23.7206
L13.1363 23.7811
" />
<path d="M13.1363 23.7811
L13.1968 23.8416
" />
<path d="M13.1968 23.8416
L13.2573 23.9625
" />
<path d="M13.2573 23.9625
L13.3178 24.2044
" />
<path d="M13.3178 24.2044
L13.3178 24.5068
" />
<path d="M13.3178 24.5068
L13.2573 24.7487
" />
<path d="M13.2573 24.7487
L13.1968 24.8697
" />
<path d="M13.1968 24.8697
L13.1363 24.9302
" />
<path d="M13.1363 24.9302
L13.0154 24.9906
" />
<path d="M13.0154 24.9906
L12.8944 24.9906
" />
<path d="M12.8944 24.9906
L12.7735 24.9302
" />
<path d="M12.7735 24.9302
L12.7130 24.8697
" />
<path d="M12.7130 24.8697
L12.6525 24.7487
" />
<path d="M12.6525 24.7487
L12.5921 24.5068
" />
<path d="M12.5921 24.5068
L12.5921 24.2044
" />
<path d="M12.5921 24.2044
L12.6525 23.9625
" />
<path d="M12.6525 23.9625
L12.7130 23.8416
" />
<path d="M12.7130 23.8416
L12.7735 23.7811
" />
<path d="M12.7735 23.7811
L12.8944 23.7206
" />
</g></g>
<g style="fill:#840000; fill-opacity:0.0; 
stroke:#840000; stroke-width:0.1524; stroke-opacity:1; 
stroke-linecap:round; stroke-linejoin:round;">
<path d="M14.8902 27.9401
L9.8102 27.9401
" />
</g>
<g style="fill:#006464; fill-opacity:0.0; 
stroke:#006464; stroke-width:0.1524; stroke-opacity:1; 
stroke-linecap:round; stroke-linejoin:round;">
<text x="15.9062" y="28.5751"
textLength="1.2156" font-size="1.6933" lengthAdjust="spacingAndGlyphs"
text-anchor="start" opacity="0">F</text>
<g class="stroked-text"><desc>F</desc>
<path d="M16.6319 27.8624
L16.2085 27.8624
" />
<path d="M16.2085 28.5276
L16.2085 27.2576
" />
<path d="M16.2085 27.2576
L16.8133 27.2576
" />
</g></g>
<g style="fill:#A90000; fill-opacity:0.0; 
stroke:#A90000; stroke-width:0.1524; stroke-opacity:1; 
stroke-linecap:round; stroke-linejoin:round;">
<text x="12.3502" y="27.6861"
textLength="2.5460" font-size="1.6933" lengthAdjust="spacingAndGlyphs"
text-anchor="middle" opacity="0">11</text>
<g class="stroked-text"><desc>11</desc>
<path d="M12.1083 27.5306
L11.3826 27.5306
" />
<path d="M11.7454 27.5306
L11.7454 26.2606
" />
<path d="M11.7454 26.2606
L11.6245 26.4421
" />
<path d="M11.6245 26.4421
L11.5035 26.5630
" />
<path d="M11.5035 26.5630
L11.3826 26.6235
" />
<path d="M13.3178 27.5306
L12.5921 27.5306
" />
<path d="M12.9549 27.5306
L12.9549 26.2606
" />
<path d="M12.9549 26.2606
L12.8340 26.4421
" />
<path d="M12.8340 26.4421
L12.7130 26.5630
" />
<path d="M12.7130 26.5630
L12.5921 26.6235
" />
</g></g>
<g style="fill:#840000; fill-opacity:0.0; 
stroke:#840000; stroke-width:0.1524; stroke-opacity:1; 
stroke-linecap:round; stroke-linejoin:round;">
<path d="M14.8902 30.4801
L9.8102 30.4801
" />
</g>
<g style="fill:#006464; fill-opacity:0.0; 
stroke:#006464; stroke-width:0.1524; stroke-opacity:1; 
stroke-linecap:round; stroke-linejoin:round;">
<text x="15.9062" y="31.1151"
textLength="1.3970" font-size="1.6933" lengthAdjust="spacingAndGlyphs"
text-anchor="start" opacity="0">G</text>
<g class="stroked-text"><desc>G</desc>
<path d="M16.8738 29.8581
L16.7528 29.7976
" />
<path d="M16.7528 29.7976
L16.5714 29.7976
" />
<path d="M16.5714 29.7976
L16.3900 29.8581
" />
<path d="M16.3900 29.8581
L16.2690 29.9791
" />
<path d="M16.2690 29.9791
L16.2085 30.1000
" />
<path d="M16.2085 30.1000
L16.1481 30.3419
" />
<path d="M16.1481 30.3419
L16.1481 30.5233
" />
<path d="M16.1481 30.5233
L16.2085 30.7652
" />
<path d="M16.2085 30.7652
L16.2690 30.8862
" />
<path d="M16.2690 30.8862
L16.3900 31.0072
" />
<path d="M16.3900 31.0072
L16.5714 31.0676
" />
<path d="M16.5714 31.0676
L16.6923 31.0676
" />
<path d="M16.6923 31.0676
L16.8738 31.0072
" />
<path d="M16.8738 31.0072
L16.9342 30.9467
" />
<path d="M16.9342 30.9467
L16.9342 30.5233
" />
<path d="M16.9342 30.5233
L16.6923 30.5233
" />
</g></g>
<g style="fill:#A90000; fill-opacity:0.0; 
stroke:#A90000; stroke-width:0.1524; stroke-opacity:1; 
stroke-linecap:round; stroke-linejoin:round;">
<text x="12.3502" y="30.2261"
textLength="2.5460" font-size="1.6933" lengthAdjust="spacingAndGlyphs"
text-anchor="middle" opacity="0">12</text>
<g class="stroked-text"><desc>12</desc>
<path d="M12.1083 30.0706
L11.3826 30.0706
" />
<path d="M11.7454 30.0706
L11.7454 28.8006
" />
<path d="M11.7454 28.8006
L11.6245 28.9821
" />
<path d="M11.6245 28.9821
L11.5035 29.1030
" />
<path d="M11.5035 29.1030
L11.3826 29.1635
" />
<path d="M12.5921 28.9216
L12.6525 28.8611
" />
<path d="M12.6525 28.8611
L12.7735 28.8006
" />
<path d="M12.7735 28.8006
L13.0759 28.8006
" />
<path d="M13.0759 28.8006
L13.1968 28.8611
" />
<path d="M13.1968 28.8611
L13.2573 28.9216
" />
<path d="M13.2573 28.9216
L13.3178 29.0425
" />
<path d="M13.3178 29.0425
L13.3178 29.1635
" />
<path d="M13.3178 29.1635
L13.2573 29.3449
" />
<path d="M13.2573 29.3449
L12.5316 30.0706
" />
<path d="M12.5316 30.0706
L13.3178 30.0706
" />
</g></g>
<g style="fill:#840000; fill-opacity:0.0; 
stroke:#840000; stroke-width:0.1524; stroke-opacity:1; 
stroke-linecap:round; stroke-linejoin:round;">
<path d="M30.1302 12.7001
L35.2102 12.7001
" />
</g>
<g style="fill:#006464; fill-opacity:0.0; 
stroke:#006464; stroke-width:0.1524; stroke-opacity:1; 
stroke-linecap:round; stroke-linejoin:round;">
<text x="29.1142" y="13.3351"
textLength="2.6065" font-size="1.6933" lengthAdjust="spacingAndGlyphs"
text-anchor="end" opacity="0">Qh</text>
<g class="stroked-text"><desc>Qh</desc>
<path d="M27.7837 13.4086
L27.6627 13.3481
" />
<path d="M27.6627 13.3481
L27.5418 13.2272
" />
<path d="M27.5418 13.2272
L27.3604 13.0457
" />
<path d="M27.3604 13.0457
L27.2394 12.9852
" />
<path d="M27.2394 12.9852
L27.1185 12.9852
" />
<path d="M27.1789 13.2876
L27.0580 13.2272
" />
<path d="M27.0580 13.2272
L26.9370 13.1062
" />
<path d="M26.9370 13.1062
L26.8766 12.8643
" />
<path d="M26.8766 12.8643
L26.8766 12.4410
" />
<path d="M26.8766 12.4410
L26.9370 12.1991
" />
<path d="M26.9370 12.1991
L27.0580 12.0781
" />
<path d="M27.0580 12.0781
L27.1789 12.0176
" />
<path d="M27.1789 12.0176
L27.4208 12.0176
" />
<path d="M27.4208 12.0176
L27.5418 12.0781
" />
<path d="M27.5418 12.0781
L27.6627 12.1991
" />
<path d="M27.6627 12.1991
L27.7232 12.4410
" />
<path d="M27.7232 12.4410
L27.7232 12.8643
" />
<path d="M27.7232 12.8643
L27.6627 13.1062
" />
<path d="M27.6627 13.1062
L27.5418 13.2272
" />
<path d="M27.5418 13.2272
L27.4208 13.2876
" />
<path d="M27.4208 13.2876
L27.1789 13.2876
" />
<path d="M28.2675 13.2876
L28.2675 12.0176
" />
<path d="M28.8118 13.2876
L28.8118 12.6224
" />
<path d="M28.8118 12.6224
L28.7513 12.5014
" />
<path d="M28.7513 12.5014
L28.6304 12.4410
" />
<path d="M28.6304 12.4410
L28.4490 12.4410
" />
<path d="M28.4490 12.4410
L28.3280 12.5014
" />
<path d="M28.3280 12.5014
L28.2675 12.5619
" />
</g></g>
<g style="fill:#A90000; fill-opacity:0.0; 
stroke:#A90000; stroke-width:0.1524; stroke-opacity:1; 
stroke-linecap:round; stroke-linejoin:round;">
<text x="32.6702" y="12.4461"
textLength="2.5460" font-size="1.6933" lengthAdjust="spacingAndGlyphs"
text-anchor="middle" opacity="0">13</text>
<g class="stroked-text"><desc>13</desc>
<path d="M32.4283 12.2906
L31.7026 12.2906
" />
<path d="M32.0654 12.2906
L32.0654 11.0206
" />
<path d="M32.0654 11.0206
L31.9445 11.2021
" />
<path d="M31.9445 11.2021
L31.8235 11.3230
" />
<path d="M31.8235 11.3230
L31.7026 11.3835
" />
<path d="M32.8516 11.0206
L33.6378 11.0206
" />
<path d="M33.6378 11.0206
L33.2144 11.5044
" />
<path d="M33.2144 11.5044
L33.3959 11.5044
" />
<path d="M33.3959 11.5044
L33.5168 11.5649
" />
<path d="M33.5168 11.5649
L33.5773 11.6254
" />
<path d="M33.5773 11.6254
L33.6378 11.7463
" />
<path d="M33.6378 11.7463
L33.6378 12.0487
" />
<path d="M33.6378 12.0487
L33.5773 12.1697
" />
<path d="M33.5773 12.1697
L33.5168 12.2302
" />
<path d="M33.5168 12.2302
L33.3959 12.2906
" />
<path d="M33.3959 12.2906
L33.0330 12.2906
" />
<path d="M33.0330 12.2906
L32.9121 12.2302
" />
<path d="M32.9121 12.2302
L32.8516 12.1697
" />
</g></g>
<g style="fill:#840000; fill-opacity:0.0; 
stroke:#840000; stroke-width:0.1524; stroke-opacity:1; 
stroke-linecap:round; stroke-linejoin:round;">
<path d="M14.8902 33.0201
L9.8102 33.0201
" />
</g>
<g style="fill:#006464; fill-opacity:0.0; 
stroke:#006464; stroke-width:0.1524; stroke-opacity:1; 
stroke-linecap:round; stroke-linejoin:round;">
<text x="15.9062" y="33.6551"
textLength="1.4575" font-size="1.6933" lengthAdjust="spacingAndGlyphs"
text-anchor="start" opacity="0">H</text>
<g class="stroked-text"><desc>H</desc>
<path d="M16.2085 33.6076
L16.2085 32.3376
" />
<path d="M16.2085 32.9424
L16.9342 32.9424
" />
<path d="M16.9342 33.6076
L16.9342 32.3376
" />
</g></g>
<g style="fill:#A90000; fill-opacity:0.0; 
stroke:#A90000; stroke-width:0.1524; stroke-opacity:1; 
stroke-linecap:round; stroke-linejoin:round;">
<text x="12.3502" y="32.7661"
textLength="2.5460" font-size="1.6933" lengthAdjust="spacingAndGlyphs"
text-anchor="middle" opacity="0">14</text>
<g class="stroked-text"><desc>14</desc>
<path d="M12.1083 32.6106
L11.3826 32.6106
" />
<path d="M11.7454 32.6106
L11.7454 31.3406
" />
<path d="M11.7454 31.3406
L11.6245 31.5221
" />
<path d="M11.6245 31.5221
L11.5035 31.6430
" />
<path d="M11.5035 31.6430
L11.3826 31.7035
" />
<path d="M13.1968 31.7640
L13.1968 32.6106
" />
<path d="M12.8944 31.2802
L12.5921 32.1873
" />
<path d="M12.5921 32.1873
L13.3782 32.1873
" />
</g></g>
<g style="fill:#840000; fill-opacity:0.0; 
stroke:#840000; stroke-width:0.1524; stroke-opacity:1; 
stroke-linecap:round; stroke-linejoin:round;">
<circle cx="14.2552" cy="38.1001" r="0.6350" /> 
<path d="M13.6202 38.1001
L9.8102 38.1001
" />
</g>
<g style="fill:#006464; fill-opacity:0.0; 
stroke:#006464; stroke-width:0.1524; stroke-opacity:1; 
stroke-linecap:round; stroke-linejoin:round;">
<text x="15.9062" y="38.7351"
textLength="2.5460" font-size="1.6933" lengthAdjust="spacingAndGlyphs"
text-anchor="start" opacity="0">PE</text>
<g class="stroked-text"><desc>PE</desc>
<path d="M16.2085 38.6876
L16.2085 37.4176
" />
<path d="M16.2085 37.4176
L16.6923 37.4176
" />
<path d="M16.6923 37.4176
L16.8133 37.4781
" />
<path d="M16.8133 37.4781
L16.8738 37.5386
" />
<path d="M16.8738 37.5386
L16.9342 37.6595
" />
<path d="M16.9342 37.6595
L16.9342 37.8410
" />
<path d="M16.9342 37.8410
L16.8738 37.9619
" />
<path d="M16.8738 37.9619
L16.8133 38.0224
" />
<path d="M16.8133 38.0224
L16.6923 38.0829
" />
<path d="M16.6923 38.0829
L16.2085 38.0829
" />
<path d="M17.4785 38.0224
L17.9019 38.0224
" />
<path d="M18.0833 38.6876
L17.4785 38.6876
" />
<path d="M17.4785 38.6876
L17.4785 37.4176
" />
<path d="M17.4785 37.4176
L18.0833 37.4176
" />
</g></g>
<g style="fill:#A90000; fill-opacity:0.0; 
stroke:#A90000; stroke-width:0.1524; stroke-opacity:1; 
stroke-linecap:round; stroke-linejoin:round;">
<text x="12.3502" y="37.8461"
textLength="2.5460" font-size="1.6933" lengthAdjust="spacingAndGlyphs"
text-anchor="middle" opacity="0">15</text>
<g class="stroked-text"><desc>15</desc>
<path d="M12.1083 37.6906
L11.3826 37.6906
" />
<path d="M11.7454 37.6906
L11.7454 36.4206
" />
<path d="M11.7454 36.4206
L11.6245 36.6021
" />
<path d="M11.6245 36.6021
L11.5035 36.7230
" />
<path d="M11.5035 36.7230
L11.3826 36.7835
" />
<path d="M13.2573 36.4206
L12.6525 36.4206
" />
<path d="M12.6525 36.4206
L12.5921 37.0254
" />
<path d="M12.5921 37.0254
L12.6525 36.9649
" />
<path d="M12.6525 36.9649
L12.7735 36.9044
" />
<path d="M12.7735 36.9044
L13.0759 36.9044
" />
<path d="M13.0759 36.9044
L13.1968 36.9649
" />
<path d="M13.1968 36.9649
L13.2573 37.0254
" />
<path d="M13.2573 37.0254
L13.3178 37.1463
" />
<path d="M13.3178 37.1463
L13.3178 37.4487
" />
<path d="M13.3178 37.4487
L13.2573 37.5697
" />
<path d="M13.2573 37.5697
L13.1968 37.6302
" />
<path d="M13.1968 37.6302
L13.0759 37.6906
" />
<path d="M13.0759 37.6906
L12.7735 37.6906
" />
<path d="M12.7735 37.6906
L12.6525 37.6302
" />
<path d="M12.6525 37.6302
L12.5921 37.5697
" />
</g></g>
<g style="fill:#840000; fill-opacity:0.0; 
stroke:#840000; stroke-width:0.1524; stroke-opacity:1; 
stroke-linecap:round; stroke-linejoin:round;">
<path d="M22.5102 10.1601
L22.5102 5.0801
" />
</g>
<g style="fill:#006464; fill-opacity:0.0; 
stroke:#006464; stroke-width:0.1524; stroke-opacity:1; 
stroke-linecap:round; stroke-linejoin:round;">
<g transform="rotate(-90.000000 22.5102 11.1761)">
<text x="22.5102" y="11.8111"
textLength="3.7556" font-size="1.6933" lengthAdjust="spacingAndGlyphs"
text-anchor="end" opacity="0">VCC</text>
</g>
<g class="stroked-text"><desc>VCC</desc>
<path d="M21.8277 14.6837
L23.0977 14.2604
" />
<path d="M23.0977 14.2604
L21.8277 13.8370
" />
<path d="M22.9768 12.6880
L23.0373 12.7484
" />
<path d="M23.0373 12.7484
L23.0977 12.9299
" />
<path d="M23.0977 12.9299
L23.0977 13.0508
" />
<path d="M23.0977 13.0508
L23.0373 13.2322
" />
<path d="M23.0373 13.2322
L22.9163 13.3532
" />
<path d="M22.9163 13.3532
L22.7953 13.4137
" />
<path d="M22.7953 13.4137
L22.5534 13.4741
" />
<path d="M22.5534 13.4741
L22.3720 13.4741
" />
<path d="M22.3720 13.4741
L22.1301 13.4137
" />
<path d="M22.1301 13.4137
L22.0092 13.3532
" />
<path d="M22.0092 13.3532
L21.8882 13.2322
" />
<path d="M21.8882 13.2322
L21.8277 13.0508
" />
<path d="M21.8277 13.0508
L21.8277 12.9299
" />
<path d="M21.8277 12.9299
L21.8882 12.7484
" />
<path d="M21.8882 12.7484
L21.9487 12.6880
" />
<path d="M22.9768 11.4180
L23.0373 11.4784
" />
<path d="M23.0373 11.4784
L23.0977 11.6599
" />
<path d="M23.0977 11.6599
L23.0977 11.7808
" />
<path d="M23.0977 11.7808
L23.0373 11.9622
" />
<path d="M23.0373 11.9622
L22.9163 12.0832
" />
<path d="M22.9163 12.0832
L22.7953 12.1437
" />
<path d="M22.7953 12.1437
L22.5534 12.2041
" />
<path d="M22.5534 12.2041
L22.3720 12.2041
" />
<path d="M22.3720 12.2041
L22.1301 12.1437
" />
<path d="M22.1301 12.1437
L22.0092 12.0832
" />
<path d="M22.0092 12.0832
L21.8882 11.9622
" />
<path d="M21.8882 11.9622
L21.8277 11.7808
" />
<path d="M21.8277 11.7808
L21.8277 11.6599
" />
<path d="M21.8277 11.6599
L21.8882 11.4784
" />
<path d="M21.8882 11.4784
L21.9487 11.4180
" />
</g></g>
<g style="fill:#A90000; fill-opacity:0.0; 
stroke:#A90000; stroke-width:0.1524; stroke-opacity:1; 
stroke-linecap:round; stroke-linejoin:round;">
<g transform="rotate(-90.000000 22.2562 7.6201)">
<text x="22.2562" y="7.6201"
textLength="2.5460" font-size="1.6933" lengthAdjust="spacingAndGlyphs"
text-anchor="middle" opacity="0">16</text>
</g>
<g class="stroked-text"><desc>16</desc>
<path d="M22.1007 7.8619
L22.1007 8.5876
" />
<path d="M22.1007 8.2248
L20.8307 8.2248
" />
<path d="M20.8307 8.2248
L21.0122 8.3457
" />
<path d="M21.0122 8.3457
L21.1331 8.4667
" />
<path d="M21.1331 8.4667
L21.1936 8.5876
" />
<path d="M20.8307 6.7734
L20.8307 7.0153
" />
<path d="M20.8307 7.0153
L20.8912 7.1362
" />
<path d="M20.8912 7.1362
L20.9517 7.1967
" />
<path d="M20.9517 7.1967
L21.1331 7.3177
" />
<path d="M21.1331 7.3177
L21.3750 7.3781
" />
<path d="M21.3750 7.3781
L21.8588 7.3781
" />
<path d="M21.8588 7.3781
L21.9798 7.3177
" />
<path d="M21.9798 7.3177
L22.0403 7.2572
" />
<path d="M22.0403 7.2572
L22.1007 7.1362
" />
<path d="M22.1007 7.1362
L22.1007 6.8943
" />
<path d="M22.1007 6.8943
L22.0403 6.7734
" />
<path d="M22.0403 6.7734
L21.9798 6.7129
" />
<path d="M21.9798 6.7129
L21.8588 6.6524
" />
<path d="M21.8588 6.6524
L21.5564 6.6524
" />
<path d="M21.5564 6.6524
L21.4355 6.7129
" />
<path d="M21.4355 6.7129
L21.3750 6.7734
" />
<path d="M21.3750 6.7734
L21.3145 6.8943
" />
<path d="M21.3145 6.8943
L21.3145 7.1362
" />
<path d="M21.3145 7.1362
L21.3750 7.2572
" />
<path d="M21.3750 7.2572
L21.4355 7.3177
" />
<path d="M21.4355 7.3177
L21.5564 7.3781
" />
</g></g>
<g style="fill:#840000; fill-opacity:0.0; 
stroke:#840000; stroke-width:0.1524; stroke-opacity:1; 
stroke-linecap:round; stroke-linejoin:round;">
<path d="M14.8902 15.2401
L9.8102 15.2401
" />
</g>
<g style="fill:#006464; fill-opacity:0.0; 
stroke:#006464; stroke-width:0.1524; stroke-opacity:1; 
stroke-linecap:round; stroke-linejoin:round;">
<text x="15.9062" y="15.8751"
textLength="1.2156" font-size="1.6933" lengthAdjust="spacingAndGlyphs"
text-anchor="start" opacity="0">A</text>
<g class="stroked-text"><desc>A</desc>
<path d="M16.1481 15.4648
L16.7528 15.4648
" />
<path d="M16.0271 15.8276
L16.4504 14.5576
" />
<path d="M16.4504 14.5576
L16.8738 15.8276
" />
</g></g>
<g style="fill:#A90000; fill-opacity:0.0; 
stroke:#A90000; stroke-width:0.1524; stroke-opacity:1; 
stroke-linecap:round; stroke-linejoin:round;">
<text x="12.3502" y="14.9861"
textLength="1.3365" font-size="1.6933" lengthAdjust="spacingAndGlyphs"
text-anchor="middle" opacity="0">2</text>
<g class="stroked-text"><desc>2</desc>
<path d="M11.9874 13.6816
L12.0478 13.6211
" />
<path d="M12.0478 13.6211
L12.1688 13.5606
" />
<path d="M12.1688 13.5606
L12.4712 13.5606
" />
<path d="M12.4712 13.5606
L12.5921 13.6211
" />
<path d="M12.5921 13.6211
L12.6526 13.6816
" />
<path d="M12.6526 13.6816
L12.7131 13.8025
" />
<path d="M12.7131 13.8025
L12.7131 13.9235
" />
<path d="M12.7131 13.9235
L12.6526 14.1049
" />
<path d="M12.6526 14.1049
L11.9269 14.8306
" />
<path d="M11.9269 14.8306
L12.7131 14.8306
" />
</g></g>
<g style="fill:#840000; fill-opacity:0.0; 
stroke:#840000; stroke-width:0.1524; stroke-opacity:1; 
stroke-linecap:round; stroke-linejoin:round;">
<path d="M14.8902 17.7801
L9.8102 17.7801
" />
</g>
<g style="fill:#006464; fill-opacity:0.0; 
stroke:#006464; stroke-width:0.1524; stroke-opacity:1; 
stroke-linecap:round; stroke-linejoin:round;">
<text x="15.9062" y="18.4151"
textLength="1.3970" font-size="1.6933" lengthAdjust="spacingAndGlyphs"
text-anchor="start" opacity="0">B</text>
<g class="stroked-text"><desc>B</desc>
<path d="M16.6319 17.7024
L16.8133 17.7629
" />
<path d="M16.8133 17.7629
L16.8738 17.8233
" />
<path d="M16.8738 17.8233
L16.9342 17.9443
" />
<path d="M16.9342 17.9443
L16.9342 18.1257
" />
<path d="M16.9342 18.1257
L16.8738 18.2467
" />
<path d="M16.8738 18.2467
L16.8133 18.3072
" />
<path d="M16.8133 18.3072
L16.6923 18.3676
" />
<path d="M16.6923 18.3676
L16.2085 18.3676
" />
<path d="M16.2085 18.3676
L16.2085 17.0976
" />
<path d="M16.2085 17.0976
L16.6319 17.0976
" />
<path d="M16.6319 17.0976
L16.7528 17.1581
" />
<path d="M16.7528 17.1581
L16.8133 17.2186
" />
<path d="M16.8133 17.2186
L16.8738 17.3395
" />
<path d="M16.8738 17.3395
L16.8738 17.4605
" />
<path d="M16.8738 17.4605
L16.8133 17.5814
" />
<path d="M16.8133 17.5814
L16.7528 17.6419
" />
<path d="M16.7528 17.6419
L16.6319 17.7024
" />
<path d="M16.6319 17.7024
L16.2085 17.7024
" />
</g></g>
<g style="fill:#A90000; fill-opacity:0.0; 
stroke:#A90000; stroke-width:0.1524; stroke-opacity:1; 
stroke-linecap:round; stroke-linejoin:round;">
<text x="12.3502" y="17.5261"
textLength="1.3365" font-size="1.6933" lengthAdjust="spacingAndGlyphs"
text-anchor="middle" opacity="0">3</text>
<g class="stroked-text"><desc>3</desc>
<path d="M11.9269 16.1006
L12.7131 16.1006
" />
<path d="M12.7131 16.1006
L12.2897 16.5844
" />
<path d="M12.2897 16.5844
L12.4712 16.5844
" />
<path d="M12.4712 16.5844
L12.5921 16.6449
" />
<path d="M12.5921 16.6449
L12.6526 16.7054
" />
<path d="M12.6526 16.7054
L12.7131 16.8263
" />
<path d="M12.7131 16.8263
L12.7131 17.1287
" />
<path d="M12.7131 17.1287
L12.6526 17.2497
" />
<path d="M12.6526 17.2497
L12.5921 17.3102
" />
<path d="M12.5921 17.3102
L12.4712 17.3706
" />
<path d="M12.4712 17.3706
L12.1083 17.3706
" />
<path d="M12.1083 17.3706
L11.9874 17.3102
" />
<path d="M11.9874 17.3102
L11.9269 17.2497
" />
</g></g>
<g style="fill:#840000; fill-opacity:0.0; 
stroke:#840000; stroke-width:0.1524; stroke-opacity:1; 
stroke-linecap:round; stroke-linejoin:round;">
<path d="M14.8902 20.3201
L9.8102 20.3201
" />
</g>
<g style="fill:#006464; fill-opacity:0.0; 
stroke:#006464; stroke-width:0.1524; stroke-opacity:1; 
stroke-linecap:round; stroke-linejoin:round;">
<text x="15.9062" y="20.9551"
textLength="1.3970" font-size="1.6933" lengthAdjust="spacingAndGlyphs"
text-anchor="start" opacity="0">C</text>
<g class="stroked-text"><desc>C</desc>
<path d="M16.9342 20.7867
L16.8738 20.8472
" />
<path d="M16.8738 20.8472
L16.6923 20.9076
" />
<path d="M16.6923 20.9076
L16.5714 20.9076
" />
<path d="M16.5714 20.9076
L16.3900 20.8472
" />
<path d="M16.3900 20.8472
L16.2690 20.7262
" />
<path d="M16.2690 20.7262
L16.2085 20.6052
" />
<path d="M16.2085 20.6052
L16.1481 20.3633
" />
<path d="M16.1481 20.3633
L16.1481 20.1819
" />
<path d="M16.1481 20.1819
L16.2085 19.9400
" />
<path d="M16.2085 19.9400
L16.2690 19.8191
" />
<path d="M16.2690 19.8191
L16.3900 19.6981
" />
<path d="M16.3900 19.6981
L16.5714 19.6376
" />
<path d="M16.5714 19.6376
L16.6923 19.6376
" />
<path d="M16.6923 19.6376
L16.8738 19.6981
" />
<path d="M16.8738 19.6981
L16.9342 19.7586
" />
</g></g>
<g style="fill:#A90000; fill-opacity:0.0; 
stroke:#A90000; stroke-width:0.1524; stroke-opacity:1; 
stroke-linecap:round; stroke-linejoin:round;">
<text x="12.3502" y="20.0661"
textLength="1.3365" font-size="1.6933" lengthAdjust="spacingAndGlyphs"
text-anchor="middle" opacity="0">4</text>
<g class="stroked-text"><desc>4</desc>
<path d="M12.5921 19.0640
L12.5921 19.9106
" />
<path d="M12.2897 18.5802
L11.9874 19.4873
" />
<path d="M11.9874 19.4873
L12.7735 19.4873
" />
</g></g>
<g style="fill:#840000; fill-opacity:0.0; 
stroke:#840000; stroke-width:0.1524; stroke-opacity:1; 
stroke-linecap:round; stroke-linejoin:round;">
<path d="M14.8902 22.8601
L9.8102 22.8601
" />
</g>
<g style="fill:#006464; fill-opacity:0.0; 
stroke:#006464; stroke-width:0.1524; stroke-opacity:1; 
stroke-linecap:round; stroke-linejoin:round;">
<text x="15.9062" y="23.4951"
textLength="1.3970" font-size="1.6933" lengthAdjust="spacingAndGlyphs"
text-anchor="start" opacity="0">D</text>
<g class="stroked-text"><desc>D</desc>
<path d="M16.2085 23.4476
L16.2085 22.1776
" />
<path d="M16.2085 22.1776
L16.5109 22.1776
" />
<path d="M16.5109 22.1776
L16.6923 22.2381
" />
<path d="M16.6923 22.2381
L16.8133 22.3591
" />
<path d="M16.8133 22.3591
L16.8738 22.4800
" />
<path d="M16.8738 22.4800
L16.9342 22.7219
" />
<path d="M16.9342 22.7219
L16.9342 22.9033
" />
<path d="M16.9342 22.9033
L16.8738 23.1452
" />
<path d="M16.8738 23.1452
L16.8133 23.2662
" />
<path d="M16.8133 23.2662
L16.6923 23.3872
" />
<path d="M16.6923 23.3872
L16.5109 23.4476
" />
<path d="M16.5109 23.4476
L16.2085 23.4476
" />
</g></g>
<g style="fill:#A90000; fill-opacity:0.0; 
stroke:#A90000; stroke-width:0.1524; stroke-opacity:1; 
stroke-linecap:round; stroke-linejoin:round;">
<text x="12.3502" y="22.6061"
textLength="1.3365" font-size="1.6933" lengthAdjust="spacingAndGlyphs"
text-anchor="middle" opacity="0">5</text>
<g class="stroked-text"><desc>5</desc>
<path d="M12.6526 21.1806
L12.0478 21.1806
" />
<path d="M12.0478 21.1806
L11.9874 21.7854
" />
<path d="M11.9874 21.7854
L12.0478 21.7249
" />
<path d="M12.0478 21.7249
L12.1688 21.6644
" />
<path d="M12.1688 21.6644
L12.4712 21.6644
" />
<path d="M12.4712 21.6644
L12.5921 21.7249
" />
<path d="M12.5921 21.7249
L12.6526 21.7854
" />
<path d="M12.6526 21.7854
L12.7131 21.9063
" />
<path d="M12.7131 21.9063
L12.7131 22.2087
" />
<path d="M12.7131 22.2087
L12.6526 22.3297
" />
<path d="M12.6526 22.3297
L12.5921 22.3902
" />
<path d="M12.5921 22.3902
L12.4712 22.4506
" />
<path d="M12.4712 22.4506
L12.1688 22.4506
" />
<path d="M12.1688 22.4506
L12.0478 22.3902
" />
<path d="M12.0478 22.3902
L11.9874 22.3297
" />
</g></g>
<g style="fill:#840000; fill-opacity:0.0; 
stroke:#840000; stroke-width:0.1524; stroke-opacity:1; 
stroke-linecap:round; stroke-linejoin:round;">
<circle cx="14.2552" cy="43.1801" r="0.6350" /> 
<path d="M13.6202 43.1801
L9.8102 43.1801
" />
</g>
<g style="fill:#006464; fill-opacity:0.0; 
stroke:#006464; stroke-width:0.1524; stroke-opacity:1; 
stroke-linecap:round; stroke-linejoin:round;">
<text x="15.9062" y="43.8151"
textLength="2.5460" font-size="1.6933" lengthAdjust="spacingAndGlyphs"
text-anchor="start" opacity="0">CE</text>
<g class="stroked-text"><desc>CE</desc>
<path d="M16.9342 43.6467
L16.8738 43.7072
" />
<path d="M16.8738 43.7072
L16.6923 43.7676
" />
<path d="M16.6923 43.7676
L16.5714 43.7676
" />
<path d="M16.5714 43.7676
L16.3900 43.7072
" />
<path d="M16.3900 43.7072
L16.2690 43.5862
" />
<path d="M16.2690 43.5862
L16.2085 43.4652
" />
<path d="M16.2085 43.4652
L16.1481 43.2233
" />
<path d="M16.1481 43.2233
L16.1481 43.0419
" />
<path d="M16.1481 43.0419
L16.2085 42.8000
" />
<path d="M16.2085 42.8000
L16.2690 42.6791
" />
<path d="M16.2690 42.6791
L16.3900 42.5581
" />
<path d="M16.3900 42.5581
L16.5714 42.4976
" />
<path d="M16.5714 42.4976
L16.6923 42.4976
" />
<path d="M16.6923 42.4976
L16.8738 42.5581
" />
<path d="M16.8738 42.5581
L16.9342 42.6186
" />
<path d="M17.4785 43.1024
L17.9019 43.1024
" />
<path d="M18.0833 43.7676
L17.4785 43.7676
" />
<path d="M17.4785 43.7676
L17.4785 42.4976
" />
<path d="M17.4785 42.4976
L18.0833 42.4976
" />
</g></g>
<g style="fill:#A90000; fill-opacity:0.0; 
stroke:#A90000; stroke-width:0.1524; stroke-opacity:1; 
stroke-linecap:round; stroke-linejoin:round;">
<text x="12.3502" y="42.9261"
textLength="1.3365" font-size="1.6933" lengthAdjust="spacingAndGlyphs"
text-anchor="middle" opacity="0">6</text>
<g class="stroked-text"><desc>6</desc>
<path d="M12.5921 41.5006
L12.3502 41.5006
" />
<path d="M12.3502 41.5006
L12.2293 41.5611
" />
<path d="M12.2293 41.5611
L12.1688 41.6216
" />
<path d="M12.1688 41.6216
L12.0478 41.8030
" />
<path d="M12.0478 41.8030
L11.9874 42.0449
" />
<path d="M11.9874 42.0449
L11.9874 42.5287
" />
<path d="M11.9874 42.5287
L12.0478 42.6497
" />
<path d="M12.0478 42.6497
L12.1083 42.7102
" />
<path d="M12.1083 42.7102
L12.2293 42.7706
" />
<path d="M12.2293 42.7706
L12.4712 42.7706
" />
<path d="M12.4712 42.7706
L12.5921 42.7102
" />
<path d="M12.5921 42.7102
L12.6526 42.6497
" />
<path d="M12.6526 42.6497
L12.7131 42.5287
" />
<path d="M12.7131 42.5287
L12.7131 42.2263
" />
<path d="M12.7131 42.2263
L12.6526 42.1054
" />
<path d="M12.6526 42.1054
L12.5921 42.0449
" />
<path d="M12.5921 42.0449
L12.4712 41.9844
" />
<path d="M12.4712 41.9844
L12.2293 41.9844
" />
<path d="M12.2293 41.9844
L12.1083 42.0449
" />
<path d="M12.1083 42.0449
L12.0478 42.1054
" />
<path d="M12.0478 42.1054
L11.9874 42.2263
" />
</g></g>
<g style="fill:#840000; fill-opacity:0.0; 
stroke:#840000; stroke-width:0.1524; stroke-opacity:1; 
stroke-linecap:round; stroke-linejoin:round;">
<path d="M14.8902 40.6401
L9.8102 40.6401
" />
</g>
<g style="fill:#006464; fill-opacity:0.0; 
stroke:#006464; stroke-width:0.1524; stroke-opacity:1; 
stroke-linecap:round; stroke-linejoin:round;">
<text x="15.9062" y="41.2751"
textLength="3.0903" font-size="1.6933" lengthAdjust="spacingAndGlyphs"
text-anchor="start" opacity="0">Clk</text>
<g class="stroked-text"><desc>Clk</desc>
<path d="M16.9342 41.1067
L16.8738 41.1672
" />
<path d="M16.8738 41.1672
L16.6923 41.2276
" />
<path d="M16.6923 41.2276
L16.5714 41.2276
" />
<path d="M16.5714 41.2276
L16.3900 41.1672
" />
<path d="M16.3900 41.1672
L16.2690 41.0462
" />
<path d="M16.2690 41.0462
L16.2085 40.9252
" />
<path d="M16.2085 40.9252
L16.1481 40.6833
" />
<path d="M16.1481 40.6833
L16.1481 40.5019
" />
<path d="M16.1481 40.5019
L16.2085 40.2600
" />
<path d="M16.2085 40.2600
L16.2690 40.1391
" />
<path d="M16.2690 40.1391
L16.3900 40.0181
" />
<path d="M16.3900 40.0181
L16.5714 39.9576
" />
<path d="M16.5714 39.9576
L16.6923 39.9576
" />
<path d="M16.6923 39.9576
L16.8738 40.0181
" />
<path d="M16.8738 40.0181
L16.9342 40.0786
" />
<path d="M17.6600 41.2276
L17.5390 41.1672
" />
<path d="M17.5390 41.1672
L17.4785 41.0462
" />
<path d="M17.4785 41.0462
L17.4785 39.9576
" />
<path d="M18.1437 41.2276
L18.1437 39.9576
" />
<path d="M18.2647 40.7438
L18.6275 41.2276
" />
<path d="M18.6275 40.3810
L18.1437 40.8648
" />
</g></g>
<g style="fill:#A90000; fill-opacity:0.0; 
stroke:#A90000; stroke-width:0.1524; stroke-opacity:1; 
stroke-linecap:round; stroke-linejoin:round;">
<text x="12.3502" y="40.3861"
textLength="1.3365" font-size="1.6933" lengthAdjust="spacingAndGlyphs"
text-anchor="middle" opacity="0">7</text>
<g class="stroked-text"><desc>7</desc>
<path d="M11.9269 38.9606
L12.7735 38.9606
" />
<path d="M12.7735 38.9606
L12.2293 40.2306
" />
</g></g>
<g style="fill:#840000; fill-opacity:0.0; 
stroke:#840000; stroke-width:0.1524; stroke-opacity:1; 
stroke-linecap:round; stroke-linejoin:round;">
<path d="M22.5102 50.8001
L22.5102 55.8801
" />
</g>
<g style="fill:#006464; fill-opacity:0.0; 
stroke:#006464; stroke-width:0.1524; stroke-opacity:1; 
stroke-linecap:round; stroke-linejoin:round;">
<g transform="rotate(-90.000000 22.5102 49.7841)">
<text x="22.5102" y="50.4191"
textLength="3.9975" font-size="1.6933" lengthAdjust="spacingAndGlyphs"
text-anchor="start" opacity="0">GND</text>
</g>
<g class="stroked-text"><desc>GND</desc>
<path d="M21.8882 48.8164
L21.8277 48.9374
" />
<path d="M21.8277 48.9374
L21.8277 49.1188
" />
<path d="M21.8277 49.1188
L21.8882 49.3002
" />
<path d="M21.8882 49.3002
L22.0092 49.4212
" />
<path d="M22.0092 49.4212
L22.1301 49.4817
" />
<path d="M22.1301 49.4817
L22.3720 49.5421
" />
<path d="M22.3720 49.5421
L22.5534 49.5421
" />
<path d="M22.5534 49.5421
L22.7953 49.4817
" />
<path d="M22.7953 49.4817
L22.9163 49.4212
" />
<path d="M22.9163 49.4212
L23.0373 49.3002
" />
<path d="M23.0373 49.3002
L23.0977 49.1188
" />
<path d="M23.0977 49.1188
L23.0977 48.9979
" />
<path d="M23.0977 48.9979
L23.0373 48.8164
" />
<path d="M23.0373 48.8164
L22.9768 48.7560
" />
<path d="M22.9768 48.7560
L22.5534 48.7560
" />
<path d="M22.5534 48.7560
L22.5534 48.9979
" />
<path d="M23.0977 48.2117
L21.8277 48.2117
" />
<path d="M21.8277 48.2117
L23.0977 47.4860
" />
<path d="M23.0977 47.4860
L21.8277 47.4860
" />
<path d="M23.0977 46.8812
L21.8277 46.8812
" />
<path d="M21.8277 46.8812
L21.8277 46.5788
" />
<path d="M21.8277 46.5788
L21.8882 46.3974
" />
<path d="M21.8882 46.3974
L22.0092 46.2764
" />
<path d="M22.0092 46.2764
L22.1301 46.2159
" />
<path d="M22.1301 46.2159
L22.3720 46.1555
" />
<path d="M22.3720 46.1555
L22.5534 46.1555
" />
<path d="M22.5534 46.1555
L22.7953 46.2159
" />
<path d="M22.7953 46.2159
L22.9163 46.2764
" />
<path d="M22.9163 46.2764
L23.0373 46.3974
" />
<path d="M23.0373 46.3974
L23.0977 46.5788
" />
<path d="M23.0977 46.5788
L23.0977 46.8812
" />
</g></g>
<g style="fill:#A90000; fill-opacity:0.0; 
stroke:#A90000; stroke-width:0.1524; stroke-opacity:1; 
stroke-linecap:round; stroke-linejoin:round;">
<g transform="rotate(-90.000000 22.2562 53.3401)">
<text x="22.2562" y="53.3401"
textLength="1.3365" font-size="1.6933" lengthAdjust="spacingAndGlyphs"
text-anchor="middle" opacity="0">8</text>
</g>
<g class="stroked-text"><desc>8</desc>
<path d="M21.3750 53.4609
L21.3145 53.5819
" />
<path d="M21.3145 53.5819
L21.2541 53.6424
" />
<path d="M21.2541 53.6424
L21.1331 53.7028
" />
<path d="M21.1331 53.7028
L21.0726 53.7028
" />
<path d="M21.0726 53.7028
L20.9517 53.6424
" />
<path d="M20.9517 53.6424
L20.8912 53.5819
" />
<path d="M20.8912 53.5819
L20.8307 53.4609
" />
<path d="M20.8307 53.4609
L20.8307 53.2190
" />
<path d="M20.8307 53.2190
L20.8912 53.0981
" />
<path d="M20.8912 53.0981
L20.9517 53.0376
" />
<path d="M20.9517 53.0376
L21.0726 52.9771
" />
<path d="M21.0726 52.9771
L21.1331 52.9771
" />
<path d="M21.1331 52.9771
L21.2541 53.0376
" />
<path d="M21.2541 53.0376
L21.3145 53.0981
" />
<path d="M21.3145 53.0981
L21.3750 53.2190
" />
<path d="M21.3750 53.2190
L21.3750 53.4609
" />
<path d="M21.3750 53.4609
L21.4355 53.5819
" />
<path d="M21.4355 53.5819
L21.4960 53.6424
" />
<path d="M21.4960 53.6424
L21.6169 53.7028
" />
<path d="M21.6169 53.7028
L21.8588 53.7028
" />
<path d="M21.8588 53.7028
L21.9798 53.6424
" />
<path d="M21.9798 53.6424
L22.0403 53.5819
" />
<path d="M22.0403 53.5819
L22.1007 53.4609
" />
<path d="M22.1007 53.4609
L22.1007 53.2190
" />
<path d="M22.1007 53.2190
L22.0403 53.0981
" />
<path d="M22.0403 53.0981
L21.9798 53.0376
" />
<path d="M21.9798 53.0376
L21.8588 52.9771
" />
<path d="M21.8588 52.9771
L21.6169 52.9771
" />
<path d="M21.6169 52.9771
L21.4960 53.0376
" />
<path d="M21.4960 53.0376
L21.4355 53.0981
" />
<path d="M21.4355 53.0981
L21.3750 53.2190
" />
</g></g>
<g style="fill:#840000; fill-opacity:0.0; 
stroke:#840000; stroke-width:0.1524; stroke-opacity:1; 
stroke-linecap:round; stroke-linejoin:round;">
<circle cx="14.2552" cy="48.2601" r="0.6350" /> 
<path d="M13.6202 48.2601
L9.8102 48.2601
" />
</g>
<g style="fill:#006464; fill-opacity:0.0; 
stroke:#006464; stroke-width:0.1524; stroke-opacity:1; 
stroke-linecap:round; stroke-linejoin:round;">
<text x="15.9062" y="48.8951"
textLength="2.8484" font-size="1.6933" lengthAdjust="spacingAndGlyphs"
text-anchor="start" opacity="0">Clr</text>
<g class="stroked-text"><desc>Clr</desc>
<path d="M16.9342 48.7267
L16.8738 48.7872
" />
<path d="M16.8738 48.7872
L16.6923 48.8476
" />
<path d="M16.6923 48.8476
L16.5714 48.8476
" />
<path d="M16.5714 48.8476
L16.3900 48.7872
" />
<path d="M16.3900 48.7872
L16.2690 48.6662
" />
<path d="M16.2690 48.6662
L16.2085 48.5452
" />
<path d="M16.2085 48.5452
L16.1481 48.3033
" />
<path d="M16.1481 48.3033
L16.1481 48.1219
" />
<path d="M16.1481 48.1219
L16.2085 47.8800
" />
<path d="M16.2085 47.8800
L16.2690 47.7591
" />
<path d="M16.2690 47.7591
L16.3900 47.6381
" />
<path d="M16.3900 47.6381
L16.5714 47.5776
" />
<path d="M16.5714 47.5776
L16.6923 47.5776
" />
<path d="M16.6923 47.5776
L16.8738 47.6381
" />
<path d="M16.8738 47.6381
L16.9342 47.6986
" />
<path d="M17.6600 48.8476
L17.5390 48.7872
" />
<path d="M17.5390 48.7872
L17.4785 48.6662
" />
<path d="M17.4785 48.6662
L17.4785 47.5776
" />
<path d="M18.1437 48.8476
L18.1437 48.0010
" />
<path d="M18.1437 48.2429
L18.2042 48.1219
" />
<path d="M18.2042 48.1219
L18.2647 48.0614
" />
<path d="M18.2647 48.0614
L18.3856 48.0010
" />
<path d="M18.3856 48.0010
L18.5066 48.0010
" />
</g></g>
<g style="fill:#A90000; fill-opacity:0.0; 
stroke:#A90000; stroke-width:0.1524; stroke-opacity:1; 
stroke-linecap:round; stroke-linejoin:round;">
<text x="12.3502" y="48.0061"
textLength="1.3365" font-size="1.6933" lengthAdjust="spacingAndGlyphs"
text-anchor="middle" opacity="0">9</text>
<g class="stroked-text"><desc>9</desc>
<path d="M12.1083 47.8506
L12.3502 47.8506
" />
<path d="M12.3502 47.8506
L12.4712 47.7902
" />
<path d="M12.4712 47.7902
L12.5316 47.7297
" />
<path d="M12.5316 47.7297
L12.6526 47.5482
" />
<path d="M12.6526 47.5482
L12.7131 47.3063
" />
<path d="M12.7131 47.3063
L12.7131 46.8225
" />
<path d="M12.7131 46.8225
L12.6526 46.7016
" />
<path d="M12.6526 46.7016
L12.5921 46.6411
" />
<path d="M12.5921 46.6411
L12.4712 46.5806
" />
<path d="M12.4712 46.5806
L12.2293 46.5806
" />
<path d="M12.2293 46.5806
L12.1083 46.6411
" />
<path d="M12.1083 46.6411
L12.0478 46.7016
" />
<path d="M12.0478 46.7016
L11.9874 46.8225
" />
<path d="M11.9874 46.8225
L11.9874 47.1249
" />
<path d="M11.9874 47.1249
L12.0478 47.2459
" />
<path d="M12.0478 47.2459
L12.1083 47.3063
" />
<path d="M12.1083 47.3063
L12.2293 47.3668
" />
<path d="M12.2293 47.3668
L12.4712 47.3668
" />
<path d="M12.4712 47.3668
L12.5921 47.3063
" />
<path d="M12.5921 47.3063
L12.6526 47.2459
" />
<path d="M12.6526 47.2459
L12.7131 47.1249
" />
</g></g>
<g style="fill:#840084; fill-opacity:0.0; 
stroke:#840084; stroke-width:0.1524; stroke-opacity:1; 
stroke-linecap:round; stroke-linejoin:round;">
</g>
<g style="fill:#006464; fill-opacity:0.0; 
stroke:#006464; stroke-width:0.1524; stroke-opacity:1; 
stroke-linecap:round; stroke-linejoin:round;">
</g>
<g style="fill:#006464; fill-opacity:0.0; 
stroke:#006464; stroke-width:0.1588; stroke-opacity:1; 
stroke-linecap:round; stroke-linejoin:round;">
<text x="14.8902" y="9.5251"
textLength="2.5621" font-size="1.6933" lengthAdjust="spacingAndGlyphs"
text-anchor="middle" opacity="0">U?</text>
<g class="stroked-text"><desc>U?</desc>
<path d="M13.9830 8.2076
L13.9830 9.2357
" />
<path d="M13.9830 9.2357
L14.0435 9.3567
" />
<path d="M14.0435 9.3567
L14.1040 9.4172
" />
<path d="M14.1040 9.4172
L14.2249 9.4776
" />
<path d="M14.2249 9.4776
L14.4668 9.4776
" />
<path d="M14.4668 9.4776
L14.5878 9.4172
" />
<path d="M14.5878 9.4172
L14.6483 9.3567
" />
<path d="M14.6483 9.3567
L14.7087 9.2357
" />
<path d="M14.7087 9.2357
L14.7087 8.2076
" />
<path d="M15.4950 9.3567
L15.5554 9.4172
" />
<path d="M15.5554 9.4172
L15.4950 9.4776
" />
<path d="M15.4950 9.4776
L15.4345 9.4172
" />
<path d="M15.4345 9.4172
L15.4950 9.3567
" />
<path d="M15.4950 9.3567
L15.4950 9.4776
" />
<path d="M15.2531 8.2681
L15.3740 8.2076
" />
<path d="M15.3740 8.2076
L15.6764 8.2076
" />
<path d="M15.6764 8.2076
L15.7973 8.2681
" />
<path d="M15.7973 8.2681
L15.8578 8.3891
" />
<path d="M15.8578 8.3891
L15.8578 8.5100
" />
<path d="M15.8578 8.5100
L15.7973 8.6310
" />
<path d="M15.7973 8.6310
L15.7369 8.6914
" />
<path d="M15.7369 8.6914
L15.6159 8.7519
" />
<path d="M15.6159 8.7519
L15.5554 8.8124
" />
<path d="M15.5554 8.8124
L15.4950 8.9333
" />
<path d="M15.4950 8.9333
L15.4950 8.9938
" />
</g><text x="14.8902" y="52.7051"
textLength="8.4281" font-size="1.6933" lengthAdjust="spacingAndGlyphs"
text-anchor="middle" opacity="0">74LS166</text>
<g class="stroked-text"><desc>74LS166</desc>
<path d="M10.9291 51.3876
L11.7757 51.3876
" />
<path d="M11.7757 51.3876
L11.2315 52.6576
" />
<path d="M12.8038 51.8110
L12.8038 52.6576
" />
<path d="M12.5014 51.3272
L12.1991 52.2343
" />
<path d="M12.1991 52.2343
L12.9852 52.2343
" />
<path d="M14.0738 52.6576
L13.4690 52.6576
" />
<path d="M13.4690 52.6576
L13.4690 51.3876
" />
<path d="M14.4367 52.5972
L14.6181 52.6576
" />
<path d="M14.6181 52.6576
L14.9205 52.6576
" />
<path d="M14.9205 52.6576
L15.0414 52.5972
" />
<path d="M15.0414 52.5972
L15.1019 52.5367
" />
<path d="M15.1019 52.5367
L15.1624 52.4157
" />
<path d="M15.1624 52.4157
L15.1624 52.2948
" />
<path d="M15.1624 52.2948
L15.1019 52.1738
" />
<path d="M15.1019 52.1738
L15.0414 52.1133
" />
<path d="M15.0414 52.1133
L14.9205 52.0529
" />
<path d="M14.9205 52.0529
L14.6786 51.9924
" />
<path d="M14.6786 51.9924
L14.5576 51.9319
" />
<path d="M14.5576 51.9319
L14.4971 51.8714
" />
<path d="M14.4971 51.8714
L14.4367 51.7505
" />
<path d="M14.4367 51.7505
L14.4367 51.6295
" />
<path d="M14.4367 51.6295
L14.4971 51.5086
" />
<path d="M14.4971 51.5086
L14.5576 51.4481
" />
<path d="M14.5576 51.4481
L14.6786 51.3876
" />
<path d="M14.6786 51.3876
L14.9809 51.3876
" />
<path d="M14.9809 51.3876
L15.1624 51.4481
" />
<path d="M16.3719 52.6576
L15.6462 52.6576
" />
<path d="M16.0090 52.6576
L16.0090 51.3876
" />
<path d="M16.0090 51.3876
L15.8881 51.5691
" />
<path d="M15.8881 51.5691
L15.7671 51.6900
" />
<path d="M15.7671 51.6900
L15.6462 51.7505
" />
<path d="M17.4604 51.3876
L17.2185 51.3876
" />
<path d="M17.2185 51.3876
L17.0976 51.4481
" />
<path d="M17.0976 51.4481
L17.0371 51.5086
" />
<path d="M17.0371 51.5086
L16.9161 51.6900
" />
<path d="M16.9161 51.6900
L16.8557 51.9319
" />
<path d="M16.8557 51.9319
L16.8557 52.4157
" />
<path d="M16.8557 52.4157
L16.9161 52.5367
" />
<path d="M16.9161 52.5367
L16.9766 52.5972
" />
<path d="M16.9766 52.5972
L17.0976 52.6576
" />
<path d="M17.0976 52.6576
L17.3395 52.6576
" />
<path d="M17.3395 52.6576
L17.4604 52.5972
" />
<path d="M17.4604 52.5972
L17.5209 52.5367
" />
<path d="M17.5209 52.5367
L17.5814 52.4157
" />
<path d="M17.5814 52.4157
L17.5814 52.1133
" />
<path d="M17.5814 52.1133
L17.5209 51.9924
" />
<path d="M17.5209 51.9924
L17.4604 51.9319
" />
<path d="M17.4604 51.9319
L17.3395 51.8714
" />
<path d="M17.3395 51.8714
L17.0976 51.8714
" />
<path d="M17.0976 51.8714
L16.9766 51.9319
" />
<path d="M16.9766 51.9319
L16.9161 51.9924
" />
<path d="M16.9161 51.9924
L16.8557 52.1133
" />
<path d="M18.6699 51.3876
L18.4280 51.3876
" />
<path d="M18.4280 51.3876
L18.3071 51.4481
" />
<path d="M18.3071 51.4481
L18.2466 51.5086
" />
<path d="M18.2466 51.5086
L18.1256 51.6900
" />
<path d="M18.1256 51.6900
L18.0652 51.9319
" />
<path d="M18.0652 51.9319
L18.0652 52.4157
" />
<path d="M18.0652 52.4157
L18.1256 52.5367
" />
<path d="M18.1256 52.5367
L18.1861 52.5972
" />
<path d="M18.1861 52.5972
L18.3071 52.6576
" />
<path d="M18.3071 52.6576
L18.5490 52.6576
" />
<path d="M18.5490 52.6576
L18.6699 52.5972
" />
<path d="M18.6699 52.5972
L18.7304 52.5367
" />
<path d="M18.7304 52.5367
L18.7909 52.4157
" />
<path d="M18.7909 52.4157
L18.7909 52.1133
" />
<path d="M18.7909 52.1133
L18.7304 51.9924
" />
<path d="M18.7304 51.9924
L18.6699 51.9319
" />
<path d="M18.6699 51.9319
L18.5490 51.8714
" />
<path d="M18.5490 51.8714
L18.3071 51.8714
" />
<path d="M18.3071 51.8714
L18.1861 51.9319
" />
<path d="M18.1861 51.9319
L18.1256 51.9924
" />
<path d="M18.1256 51.9924
L18.0652 52.1133
" />
</g></g>
<g style="fill:#840084; fill-opacity:0.0; 
stroke:#840084; stroke-width:0.1588; stroke-opacity:1; 
stroke-linecap:round; stroke-linejoin:round;">
<text x="22.5102" y="31.1151"
textLength="37.5171" font-size="1.6933" lengthAdjust="spacingAndGlyphs"
text-anchor="middle" opacity="0">http://www.ti.com/lit/gpn/sn74LS166</text>
<g class="stroked-text"><desc>http://www.ti.com/lit/gpn/sn74LS166</desc>
<path d="M4.1255 31.0676
L4.1255 29.7976
" />
<path d="M4.6698 31.0676
L4.6698 30.4024
" />
<path d="M4.6698 30.4024
L4.6093 30.2814
" />
<path d="M4.6093 30.2814
L4.4884 30.2210
" />
<path d="M4.4884 30.2210
L4.3070 30.2210
" />
<path d="M4.3070 30.2210
L4.1860 30.2814
" />
<path d="M4.1860 30.2814
L4.1255 30.3419
" />
<path d="M5.0931 30.2210
L5.5769 30.2210
" />
<path d="M5.2745 29.7976
L5.2745 30.8862
" />
<path d="M5.2745 30.8862
L5.3350 31.0072
" />
<path d="M5.3350 31.0072
L5.4560 31.0676
" />
<path d="M5.4560 31.0676
L5.5769 31.0676
" />
<path d="M5.8188 30.2210
L6.3026 30.2210
" />
<path d="M6.0002 29.7976
L6.0002 30.8862
" />
<path d="M6.0002 30.8862
L6.0607 31.0072
" />
<path d="M6.0607 31.0072
L6.1817 31.0676
" />
<path d="M6.1817 31.0676
L6.3026 31.0676
" />
<path d="M6.7259 30.2210
L6.7259 31.4910
" />
<path d="M6.7259 30.2814
L6.8469 30.2210
" />
<path d="M6.8469 30.2210
L7.0888 30.2210
" />
<path d="M7.0888 30.2210
L7.2097 30.2814
" />
<path d="M7.2097 30.2814
L7.2702 30.3419
" />
<path d="M7.2702 30.3419
L7.3307 30.4629
" />
<path d="M7.3307 30.4629
L7.3307 30.8257
" />
<path d="M7.3307 30.8257
L7.2702 30.9467
" />
<path d="M7.2702 30.9467
L7.2097 31.0072
" />
<path d="M7.2097 31.0072
L7.0888 31.0676
" />
<path d="M7.0888 31.0676
L6.8469 31.0676
" />
<path d="M6.8469 31.0676
L6.7259 31.0072
" />
<path d="M7.8749 30.9467
L7.9354 31.0072
" />
<path d="M7.9354 31.0072
L7.8749 31.0676
" />
<path d="M7.8749 31.0676
L7.8145 31.0072
" />
<path d="M7.8145 31.0072
L7.8749 30.9467
" />
<path d="M7.8749 30.9467
L7.8749 31.0676
" />
<path d="M7.8749 30.2814
L7.9354 30.3419
" />
<path d="M7.9354 30.3419
L7.8749 30.4024
" />
<path d="M7.8749 30.4024
L7.8145 30.3419
" />
<path d="M7.8145 30.3419
L7.8749 30.2814
" />
<path d="M7.8749 30.2814
L7.8749 30.4024
" />
<path d="M9.3869 29.7372
L8.2983 31.3700
" />
<path d="M10.7174 29.7372
L9.6288 31.3700
" />
<path d="M11.0198 30.2210
L11.2617 31.0676
" />
<path d="M11.2617 31.0676
L11.5036 30.4629
" />
<path d="M11.5036 30.4629
L11.7455 31.0676
" />
<path d="M11.7455 31.0676
L11.9874 30.2210
" />
<path d="M12.3503 30.2210
L12.5922 31.0676
" />
<path d="M12.5922 31.0676
L12.8341 30.4629
" />
<path d="M12.8341 30.4629
L13.0760 31.0676
" />
<path d="M13.0760 31.0676
L13.3179 30.2210
" />
<path d="M13.6808 30.2210
L13.9227 31.0676
" />
<path d="M13.9227 31.0676
L14.1646 30.4629
" />
<path d="M14.1646 30.4629
L14.4065 31.0676
" />
<path d="M14.4065 31.0676
L14.6484 30.2210
" />
<path d="M15.1322 30.9467
L15.1927 31.0072
" />
<path d="M15.1927 31.0072
L15.1322 31.0676
" />
<path d="M15.1322 31.0676
L15.0718 31.0072
" />
<path d="M15.0718 31.0072
L15.1322 30.9467
" />
<path d="M15.1322 30.9467
L15.1322 31.0676
" />
<path d="M15.5556 30.2210
L16.0394 30.2210
" />
<path d="M15.7370 29.7976
L15.7370 30.8862
" />
<path d="M15.7370 30.8862
L15.7975 31.0072
" />
<path d="M15.7975 31.0072
L15.9185 31.0676
" />
<path d="M15.9185 31.0676
L16.0394 31.0676
" />
<path d="M16.4627 31.0676
L16.4627 30.2210
" />
<path d="M16.4627 29.7976
L16.4023 29.8581
" />
<path d="M16.4023 29.8581
L16.4627 29.9186
" />
<path d="M16.4627 29.9186
L16.5232 29.8581
" />
<path d="M16.5232 29.8581
L16.4627 29.7976
" />
<path d="M16.4627 29.7976
L16.4627 29.9186
" />
<path d="M17.0675 30.9467
L17.1280 31.0072
" />
<path d="M17.1280 31.0072
L17.0675 31.0676
" />
<path d="M17.0675 31.0676
L17.0071 31.0072
" />
<path d="M17.0071 31.0072
L17.0675 30.9467
" />
<path d="M17.0675 30.9467
L17.0675 31.0676
" />
<path d="M18.2166 31.0072
L18.0957 31.0676
" />
<path d="M18.0957 31.0676
L17.8538 31.0676
" />
<path d="M17.8538 31.0676
L17.7328 31.0072
" />
<path d="M17.7328 31.0072
L17.6723 30.9467
" />
<path d="M17.6723 30.9467
L17.6119 30.8257
" />
<path d="M17.6119 30.8257
L17.6119 30.4629
" />
<path d="M17.6119 30.4629
L17.6723 30.3419
" />
<path d="M17.6723 30.3419
L17.7328 30.2814
" />
<path d="M17.7328 30.2814
L17.8538 30.2210
" />
<path d="M17.8538 30.2210
L18.0957 30.2210
" />
<path d="M18.0957 30.2210
L18.2166 30.2814
" />
<path d="M18.9424 31.0676
L18.8214 31.0072
" />
<path d="M18.8214 31.0072
L18.7609 30.9467
" />
<path d="M18.7609 30.9467
L18.7005 30.8257
" />
<path d="M18.7005 30.8257
L18.7005 30.4629
" />
<path d="M18.7005 30.4629
L18.7609 30.3419
" />
<path d="M18.7609 30.3419
L18.8214 30.2814
" />
<path d="M18.8214 30.2814
L18.9424 30.2210
" />
<path d="M18.9424 30.2210
L19.1238 30.2210
" />
<path d="M19.1238 30.2210
L19.2447 30.2814
" />
<path d="M19.2447 30.2814
L19.3052 30.3419
" />
<path d="M19.3052 30.3419
L19.3657 30.4629
" />
<path d="M19.3657 30.4629
L19.3657 30.8257
" />
<path d="M19.3657 30.8257
L19.3052 30.9467
" />
<path d="M19.3052 30.9467
L19.2447 31.0072
" />
<path d="M19.2447 31.0072
L19.1238 31.0676
" />
<path d="M19.1238 31.0676
L18.9424 31.0676
" />
<path d="M19.9099 31.0676
L19.9099 30.2210
" />
<path d="M19.9099 30.3419
L19.9704 30.2814
" />
<path d="M19.9704 30.2814
L20.0914 30.2210
" />
<path d="M20.0914 30.2210
L20.2728 30.2210
" />
<path d="M20.2728 30.2210
L20.3937 30.2814
" />
<path d="M20.3937 30.2814
L20.4542 30.4024
" />
<path d="M20.4542 30.4024
L20.4542 31.0676
" />
<path d="M20.4542 30.4024
L20.5147 30.2814
" />
<path d="M20.5147 30.2814
L20.6356 30.2210
" />
<path d="M20.6356 30.2210
L20.8171 30.2210
" />
<path d="M20.8171 30.2210
L20.9380 30.2814
" />
<path d="M20.9380 30.2814
L20.9985 30.4024
" />
<path d="M20.9985 30.4024
L20.9985 31.0676
" />
<path d="M22.5104 29.7372
L21.4218 31.3700
" />
<path d="M23.1152 31.0676
L22.9942 31.0072
" />
<path d="M22.9942 31.0072
L22.9337 30.8862
" />
<path d="M22.9337 30.8862
L22.9337 29.7976
" />
<path d="M23.5989 31.0676
L23.5989 30.2210
" />
<path d="M23.5989 29.7976
L23.5385 29.8581
" />
<path d="M23.5385 29.8581
L23.5989 29.9186
" />
<path d="M23.5989 29.9186
L23.6594 29.8581
" />
<path d="M23.6594 29.8581
L23.5989 29.7976
" />
<path d="M23.5989 29.7976
L23.5989 29.9186
" />
<path d="M24.0223 30.2210
L24.5061 30.2210
" />
<path d="M24.2037 29.7976
L24.2037 30.8862
" />
<path d="M24.2037 30.8862
L24.2642 31.0072
" />
<path d="M24.2642 31.0072
L24.3852 31.0676
" />
<path d="M24.3852 31.0676
L24.5061 31.0676
" />
<path d="M25.8366 29.7372
L24.7480 31.3700
" />
<path d="M26.8042 30.2210
L26.8042 31.2491
" />
<path d="M26.8042 31.2491
L26.7437 31.3700
" />
<path d="M26.7437 31.3700
L26.6833 31.4305
" />
<path d="M26.6833 31.4305
L26.5623 31.4910
" />
<path d="M26.5623 31.4910
L26.3809 31.4910
" />
<path d="M26.3809 31.4910
L26.2599 31.4305
" />
<path d="M26.8042 31.0072
L26.6833 31.0676
" />
<path d="M26.6833 31.0676
L26.4414 31.0676
" />
<path d="M26.4414 31.0676
L26.3204 31.0072
" />
<path d="M26.3204 31.0072
L26.2599 30.9467
" />
<path d="M26.2599 30.9467
L26.1995 30.8257
" />
<path d="M26.1995 30.8257
L26.1995 30.4629
" />
<path d="M26.1995 30.4629
L26.2599 30.3419
" />
<path d="M26.2599 30.3419
L26.3204 30.2814
" />
<path d="M26.3204 30.2814
L26.4414 30.2210
" />
<path d="M26.4414 30.2210
L26.6833 30.2210
" />
<path d="M26.6833 30.2210
L26.8042 30.2814
" />
<path d="M27.4089 30.2210
L27.4089 31.4910
" />
<path d="M27.4089 30.2814
L27.5299 30.2210
" />
<path d="M27.5299 30.2210
L27.7718 30.2210
" />
<path d="M27.7718 30.2210
L27.8927 30.2814
" />
<path d="M27.8927 30.2814
L27.9532 30.3419
" />
<path d="M27.9532 30.3419
L28.0137 30.4629
" />
<path d="M28.0137 30.4629
L28.0137 30.8257
" />
<path d="M28.0137 30.8257
L27.9532 30.9467
" />
<path d="M27.9532 30.9467
L27.8927 31.0072
" />
<path d="M27.8927 31.0072
L27.7718 31.0676
" />
<path d="M27.7718 31.0676
L27.5299 31.0676
" />
<path d="M27.5299 31.0676
L27.4089 31.0072
" />
<path d="M28.5579 30.2210
L28.5579 31.0676
" />
<path d="M28.5579 30.3419
L28.6184 30.2814
" />
<path d="M28.6184 30.2814
L28.7394 30.2210
" />
<path d="M28.7394 30.2210
L28.9208 30.2210
" />
<path d="M28.9208 30.2210
L29.0417 30.2814
" />
<path d="M29.0417 30.2814
L29.1022 30.4024
" />
<path d="M29.1022 30.4024
L29.1022 31.0676
" />
<path d="M30.6141 29.7372
L29.5255 31.3700
" />
<path d="M30.9770 31.0072
L31.0979 31.0676
" />
<path d="M31.0979 31.0676
L31.3398 31.0676
" />
<path d="M31.3398 31.0676
L31.4608 31.0072
" />
<path d="M31.4608 31.0072
L31.5212 30.8862
" />
<path d="M31.5212 30.8862
L31.5212 30.8257
" />
<path d="M31.5212 30.8257
L31.4608 30.7048
" />
<path d="M31.4608 30.7048
L31.3398 30.6443
" />
<path d="M31.3398 30.6443
L31.1584 30.6443
" />
<path d="M31.1584 30.6443
L31.0374 30.5838
" />
<path d="M31.0374 30.5838
L30.9770 30.4629
" />
<path d="M30.9770 30.4629
L30.9770 30.4024
" />
<path d="M30.9770 30.4024
L31.0374 30.2814
" />
<path d="M31.0374 30.2814
L31.1584 30.2210
" />
<path d="M31.1584 30.2210
L31.3398 30.2210
" />
<path d="M31.3398 30.2210
L31.4608 30.2814
" />
<path d="M32.0655 30.2210
L32.0655 31.0676
" />
<path d="M32.0655 30.3419
L32.1260 30.2814
" />
<path d="M32.1260 30.2814
L32.2470 30.2210
" />
<path d="M32.2470 30.2210
L32.4284 30.2210
" />
<path d="M32.4284 30.2210
L32.5493 30.2814
" />
<path d="M32.5493 30.2814
L32.6098 30.4024
" />
<path d="M32.6098 30.4024
L32.6098 31.0676
" />
<path d="M33.0936 29.7976
L33.9402 29.7976
" />
<path d="M33.9402 29.7976
L33.3960 31.0676
" />
<path d="M34.9683 30.2210
L34.9683 31.0676
" />
<path d="M34.6659 29.7372
L34.3636 30.6443
" />
<path d="M34.3636 30.6443
L35.1497 30.6443
" />
<path d="M36.2383 31.0676
L35.6335 31.0676
" />
<path d="M35.6335 31.0676
L35.6335 29.7976
" />
<path d="M36.6012 31.0072
L36.7826 31.0676
" />
<path d="M36.7826 31.0676
L37.0850 31.0676
" />
<path d="M37.0850 31.0676
L37.2059 31.0072
" />
<path d="M37.2059 31.0072
L37.2664 30.9467
" />
<path d="M37.2664 30.9467
L37.3269 30.8257
" />
<path d="M37.3269 30.8257
L37.3269 30.7048
" />
<path d="M37.3269 30.7048
L37.2664 30.5838
" />
<path d="M37.2664 30.5838
L37.2059 30.5233
" />
<path d="M37.2059 30.5233
L37.0850 30.4629
" />
<path d="M37.0850 30.4629
L36.8431 30.4024
" />
<path d="M36.8431 30.4024
L36.7221 30.3419
" />
<path d="M36.7221 30.3419
L36.6616 30.2814
" />
<path d="M36.6616 30.2814
L36.6012 30.1605
" />
<path d="M36.6012 30.1605
L36.6012 30.0395
" />
<path d="M36.6012 30.0395
L36.6616 29.9186
" />
<path d="M36.6616 29.9186
L36.7221 29.8581
" />
<path d="M36.7221 29.8581
L36.8431 29.7976
" />
<path d="M36.8431 29.7976
L37.1454 29.7976
" />
<path d="M37.1454 29.7976
L37.3269 29.8581
" />
<path d="M38.5364 31.0676
L37.8107 31.0676
" />
<path d="M38.1735 31.0676
L38.1735 29.7976
" />
<path d="M38.1735 29.7976
L38.0526 29.9791
" />
<path d="M38.0526 29.9791
L37.9316 30.1000
" />
<path d="M37.9316 30.1000
L37.8107 30.1605
" />
<path d="M39.6249 29.7976
L39.3830 29.7976
" />
<path d="M39.3830 29.7976
L39.2621 29.8581
" />
<path d="M39.2621 29.8581
L39.2016 29.9186
" />
<path d="M39.2016 29.9186
L39.0806 30.1000
" />
<path d="M39.0806 30.1000
L39.0202 30.3419
" />
<path d="M39.0202 30.3419
L39.0202 30.8257
" />
<path d="M39.0202 30.8257
L39.0806 30.9467
" />
<path d="M39.0806 30.9467
L39.1411 31.0072
" />
<path d="M39.1411 31.0072
L39.2621 31.0676
" />
<path d="M39.2621 31.0676
L39.5040 31.0676
" />
<path d="M39.5040 31.0676
L39.6249 31.0072
" />
<path d="M39.6249 31.0072
L39.6854 30.9467
" />
<path d="M39.6854 30.9467
L39.7459 30.8257
" />
<path d="M39.7459 30.8257
L39.7459 30.5233
" />
<path d="M39.7459 30.5233
L39.6854 30.4024
" />
<path d="M39.6854 30.4024
L39.6249 30.3419
" />
<path d="M39.6249 30.3419
L39.5040 30.2814
" />
<path d="M39.5040 30.2814
L39.2621 30.2814
" />
<path d="M39.2621 30.2814
L39.1411 30.3419
" />
<path d="M39.1411 30.3419
L39.0806 30.4024
" />
<path d="M39.0806 30.4024
L39.0202 30.5233
" />
<path d="M40.8344 29.7976
L40.5925 29.7976
" />
<path d="M40.5925 29.7976
L40.4716 29.8581
" />
<path d="M40.4716 29.8581
L40.4111 29.9186
" />
<path d="M40.4111 29.9186
L40.2901 30.1000
" />
<path d="M40.2901 30.1000
L40.2297 30.3419
" />
<path d="M40.2297 30.3419
L40.2297 30.8257
" />
<path d="M40.2297 30.8257
L40.2901 30.9467
" />
<path d="M40.2901 30.9467
L40.3506 31.0072
" />
<path d="M40.3506 31.0072
L40.4716 31.0676
" />
<path d="M40.4716 31.0676
L40.7135 31.0676
" />
<path d="M40.7135 31.0676
L40.8344 31.0072
" />
<path d="M40.8344 31.0072
L40.8949 30.9467
" />
<path d="M40.8949 30.9467
L40.9554 30.8257
" />
<path d="M40.9554 30.8257
L40.9554 30.5233
" />
<path d="M40.9554 30.5233
L40.8949 30.4024
" />
<path d="M40.8949 30.4024
L40.8344 30.3419
" />
<path d="M40.8344 30.3419
L40.7135 30.2814
" />
<path d="M40.7135 30.2814
L40.4716 30.2814
" />
<path d="M40.4716 30.2814
L40.3506 30.3419
" />
<path d="M40.3506 30.3419
L40.2901 30.4024
" />
<path d="M40.2901 30.4024
L40.2297 30.5233
" />
</g></g> 
</svg>
