<?xml version="1.0" standalone="no"?>
 <!DOCTYPE svg PUBLIC "-//W3C//DTD SVG 1.1//EN" 
 "http://www.w3.org/Graphics/SVG/1.1/DTD/svg11.dtd"> 
<svg
  xmlns:svg="http://www.w3.org/2000/svg"
  xmlns="http://www.w3.org/2000/svg"
  xmlns:xlink="http://www.w3.org/1999/xlink"
  version="1.1"
  width="25.9334mm" height="32.4866mm" viewBox="0.0000 0.0000 25.9334 32.4866">
<title>SVG Image created as working.svg date 2023/08/01 21:12:50 </title>
  <desc>Image generated by Eeschema-SVG </desc>
<g style="fill:#000000; fill-opacity:1.0000;stroke:#000000; stroke-opacity:1.0000;
stroke-linecap:round; stroke-linejoin:round;"
 transform="translate(0 0) scale(1 1)">
</g>
<g style="fill:#840000; fill-opacity:0.0; 
stroke:#840000; stroke-width:0.0000; stroke-opacity:1; 
stroke-linecap:round; stroke-linejoin:round;">
</g>
<g style="fill:#FFFFC2; fill-opacity:0.0; 
stroke:#FFFFC2; stroke-width:0.0000; stroke-opacity:1; 
stroke-linecap:round; stroke-linejoin:round;">
</g>
<g style="fill:#FFFFC2; fill-opacity:1.0000; 
stroke:#FFFFC2; stroke-width:0.0000; stroke-opacity:1; 
stroke-linecap:round; stroke-linejoin:round;">
<rect x="10.426900" y="4.810200" width="5.080000" height="22.860000" rx="0.000000" />
</g>
<g style="fill:#840084; fill-opacity:1.0000; 
stroke:#840084; stroke-width:0.0000; stroke-opacity:1; 
stroke-linecap:round; stroke-linejoin:round;">
</g>
<g style="fill:#840000; fill-opacity:1.0000; 
stroke:#840000; stroke-width:0.0000; stroke-opacity:1; 
stroke-linecap:round; stroke-linejoin:round;">
</g>
<g style="fill:#840000; fill-opacity:0.0; 
stroke:#840000; stroke-width:0.1524; stroke-opacity:1; 
stroke-linecap:round; stroke-linejoin:round;">
<rect x="10.426900" y="26.273200" width="1.270000" height="0.254000" rx="0.000000" />
<rect x="10.426900" y="23.733200" width="1.270000" height="0.254000" rx="0.000000" />
<rect x="10.426900" y="21.193200" width="1.270000" height="0.254000" rx="0.000000" />
<rect x="10.426900" y="18.653200" width="1.270000" height="0.254000" rx="0.000000" />
<rect x="10.426900" y="16.113200" width="1.270000" height="0.254000" rx="0.000000" />
<rect x="10.426900" y="13.573200" width="1.270000" height="0.254000" rx="0.000000" />
<rect x="10.426900" y="11.033200" width="1.270000" height="0.254000" rx="0.000000" />
<rect x="10.426900" y="8.493200" width="1.270000" height="0.254000" rx="0.000000" />
<rect x="10.426900" y="5.953200" width="1.270000" height="0.254000" rx="0.000000" />
</g>
<g style="fill:#840000; fill-opacity:0.0; 
stroke:#840000; stroke-width:0.2540; stroke-opacity:1; 
stroke-linecap:round; stroke-linejoin:round;">
<rect x="10.426900" y="4.810200" width="5.080000" height="22.860000" rx="0.000000" />
</g>
<g style="fill:#840000; fill-opacity:0.0; 
stroke:#840000; stroke-width:0.1524; stroke-opacity:1; 
stroke-linecap:round; stroke-linejoin:round;">
<rect x="14.236900" y="26.273200" width="1.270000" height="0.254000" rx="0.000000" />
<rect x="14.236900" y="23.733200" width="1.270000" height="0.254000" rx="0.000000" />
<rect x="14.236900" y="21.193200" width="1.270000" height="0.254000" rx="0.000000" />
<rect x="14.236900" y="18.653200" width="1.270000" height="0.254000" rx="0.000000" />
<rect x="14.236900" y="16.113200" width="1.270000" height="0.254000" rx="0.000000" />
<rect x="14.236900" y="13.573200" width="1.270000" height="0.254000" rx="0.000000" />
<rect x="14.236900" y="11.033200" width="1.270000" height="0.254000" rx="0.000000" />
<rect x="14.236900" y="8.493200" width="1.270000" height="0.254000" rx="0.000000" />
<rect x="14.236900" y="5.953200" width="1.270000" height="0.254000" rx="0.000000" />
<path d="M10.4269 6.0802
L6.6169 6.0802
" />
</g>
<g style="fill:#A90000; fill-opacity:0.0; 
stroke:#A90000; stroke-width:0.1524; stroke-opacity:1; 
stroke-linecap:round; stroke-linejoin:round;">
<text x="8.5219" y="5.8262"
textLength="1.3365" font-size="1.6933" lengthAdjust="spacingAndGlyphs"
text-anchor="middle" opacity="0">1</text>
<g class="stroked-text"><desc>1</desc>
<path d="M8.8848 5.6707
L8.1591 5.6707
" />
<path d="M8.5219 5.6707
L8.5219 4.4007
" />
<path d="M8.5219 4.4007
L8.4010 4.5822
" />
<path d="M8.4010 4.5822
L8.2800 4.7031
" />
<path d="M8.2800 4.7031
L8.1591 4.7636
" />
</g></g>
<g style="fill:#840000; fill-opacity:0.0; 
stroke:#840000; stroke-width:0.1524; stroke-opacity:1; 
stroke-linecap:round; stroke-linejoin:round;">
<path d="M15.5069 16.2402
L19.3169 16.2402
" />
</g>
<g style="fill:#A90000; fill-opacity:0.0; 
stroke:#A90000; stroke-width:0.1524; stroke-opacity:1; 
stroke-linecap:round; stroke-linejoin:round;">
<text x="17.4119" y="15.9862"
textLength="2.5460" font-size="1.6933" lengthAdjust="spacingAndGlyphs"
text-anchor="middle" opacity="0">10</text>
<g class="stroked-text"><desc>10</desc>
<path d="M17.1700 15.8307
L16.4443 15.8307
" />
<path d="M16.8071 15.8307
L16.8071 14.5607
" />
<path d="M16.8071 14.5607
L16.6862 14.7422
" />
<path d="M16.6862 14.7422
L16.5652 14.8631
" />
<path d="M16.5652 14.8631
L16.4443 14.9236
" />
<path d="M17.9561 14.5607
L18.0771 14.5607
" />
<path d="M18.0771 14.5607
L18.1980 14.6212
" />
<path d="M18.1980 14.6212
L18.2585 14.6817
" />
<path d="M18.2585 14.6817
L18.3190 14.8026
" />
<path d="M18.3190 14.8026
L18.3795 15.0445
" />
<path d="M18.3795 15.0445
L18.3795 15.3469
" />
<path d="M18.3795 15.3469
L18.3190 15.5888
" />
<path d="M18.3190 15.5888
L18.2585 15.7098
" />
<path d="M18.2585 15.7098
L18.1980 15.7703
" />
<path d="M18.1980 15.7703
L18.0771 15.8307
" />
<path d="M18.0771 15.8307
L17.9561 15.8307
" />
<path d="M17.9561 15.8307
L17.8352 15.7703
" />
<path d="M17.8352 15.7703
L17.7747 15.7098
" />
<path d="M17.7747 15.7098
L17.7142 15.5888
" />
<path d="M17.7142 15.5888
L17.6538 15.3469
" />
<path d="M17.6538 15.3469
L17.6538 15.0445
" />
<path d="M17.6538 15.0445
L17.7142 14.8026
" />
<path d="M17.7142 14.8026
L17.7747 14.6817
" />
<path d="M17.7747 14.6817
L17.8352 14.6212
" />
<path d="M17.8352 14.6212
L17.9561 14.5607
" />
</g></g>
<g style="fill:#840000; fill-opacity:0.0; 
stroke:#840000; stroke-width:0.1524; stroke-opacity:1; 
stroke-linecap:round; stroke-linejoin:round;">
<path d="M10.4269 18.7802
L6.6169 18.7802
" />
</g>
<g style="fill:#A90000; fill-opacity:0.0; 
stroke:#A90000; stroke-width:0.1524; stroke-opacity:1; 
stroke-linecap:round; stroke-linejoin:round;">
<text x="8.5219" y="18.5262"
textLength="2.5460" font-size="1.6933" lengthAdjust="spacingAndGlyphs"
text-anchor="middle" opacity="0">11</text>
<g class="stroked-text"><desc>11</desc>
<path d="M8.2800 18.3707
L7.5543 18.3707
" />
<path d="M7.9171 18.3707
L7.9171 17.1007
" />
<path d="M7.9171 17.1007
L7.7962 17.2822
" />
<path d="M7.7962 17.2822
L7.6752 17.4031
" />
<path d="M7.6752 17.4031
L7.5543 17.4636
" />
<path d="M9.4895 18.3707
L8.7638 18.3707
" />
<path d="M9.1266 18.3707
L9.1266 17.1007
" />
<path d="M9.1266 17.1007
L9.0057 17.2822
" />
<path d="M9.0057 17.2822
L8.8847 17.4031
" />
<path d="M8.8847 17.4031
L8.7638 17.4636
" />
</g></g>
<g style="fill:#840000; fill-opacity:0.0; 
stroke:#840000; stroke-width:0.1524; stroke-opacity:1; 
stroke-linecap:round; stroke-linejoin:round;">
<path d="M15.5069 18.7802
L19.3169 18.7802
" />
</g>
<g style="fill:#A90000; fill-opacity:0.0; 
stroke:#A90000; stroke-width:0.1524; stroke-opacity:1; 
stroke-linecap:round; stroke-linejoin:round;">
<text x="17.4119" y="18.5262"
textLength="2.5460" font-size="1.6933" lengthAdjust="spacingAndGlyphs"
text-anchor="middle" opacity="0">12</text>
<g class="stroked-text"><desc>12</desc>
<path d="M17.1700 18.3707
L16.4443 18.3707
" />
<path d="M16.8071 18.3707
L16.8071 17.1007
" />
<path d="M16.8071 17.1007
L16.6862 17.2822
" />
<path d="M16.6862 17.2822
L16.5652 17.4031
" />
<path d="M16.5652 17.4031
L16.4443 17.4636
" />
<path d="M17.6538 17.2217
L17.7142 17.1612
" />
<path d="M17.7142 17.1612
L17.8352 17.1007
" />
<path d="M17.8352 17.1007
L18.1376 17.1007
" />
<path d="M18.1376 17.1007
L18.2585 17.1612
" />
<path d="M18.2585 17.1612
L18.3190 17.2217
" />
<path d="M18.3190 17.2217
L18.3795 17.3426
" />
<path d="M18.3795 17.3426
L18.3795 17.4636
" />
<path d="M18.3795 17.4636
L18.3190 17.6450
" />
<path d="M18.3190 17.6450
L17.5933 18.3707
" />
<path d="M17.5933 18.3707
L18.3795 18.3707
" />
</g></g>
<g style="fill:#840000; fill-opacity:0.0; 
stroke:#840000; stroke-width:0.1524; stroke-opacity:1; 
stroke-linecap:round; stroke-linejoin:round;">
<path d="M10.4269 21.3202
L6.6169 21.3202
" />
</g>
<g style="fill:#A90000; fill-opacity:0.0; 
stroke:#A90000; stroke-width:0.1524; stroke-opacity:1; 
stroke-linecap:round; stroke-linejoin:round;">
<text x="8.5219" y="21.0662"
textLength="2.5460" font-size="1.6933" lengthAdjust="spacingAndGlyphs"
text-anchor="middle" opacity="0">13</text>
<g class="stroked-text"><desc>13</desc>
<path d="M8.2800 20.9107
L7.5543 20.9107
" />
<path d="M7.9171 20.9107
L7.9171 19.6407
" />
<path d="M7.9171 19.6407
L7.7962 19.8222
" />
<path d="M7.7962 19.8222
L7.6752 19.9431
" />
<path d="M7.6752 19.9431
L7.5543 20.0036
" />
<path d="M8.7033 19.6407
L9.4895 19.6407
" />
<path d="M9.4895 19.6407
L9.0661 20.1245
" />
<path d="M9.0661 20.1245
L9.2476 20.1245
" />
<path d="M9.2476 20.1245
L9.3685 20.1850
" />
<path d="M9.3685 20.1850
L9.4290 20.2455
" />
<path d="M9.4290 20.2455
L9.4895 20.3664
" />
<path d="M9.4895 20.3664
L9.4895 20.6688
" />
<path d="M9.4895 20.6688
L9.4290 20.7898
" />
<path d="M9.4290 20.7898
L9.3685 20.8503
" />
<path d="M9.3685 20.8503
L9.2476 20.9107
" />
<path d="M9.2476 20.9107
L8.8847 20.9107
" />
<path d="M8.8847 20.9107
L8.7638 20.8503
" />
<path d="M8.7638 20.8503
L8.7033 20.7898
" />
</g></g>
<g style="fill:#840000; fill-opacity:0.0; 
stroke:#840000; stroke-width:0.1524; stroke-opacity:1; 
stroke-linecap:round; stroke-linejoin:round;">
<path d="M15.5069 21.3202
L19.3169 21.3202
" />
</g>
<g style="fill:#A90000; fill-opacity:0.0; 
stroke:#A90000; stroke-width:0.1524; stroke-opacity:1; 
stroke-linecap:round; stroke-linejoin:round;">
<text x="17.4119" y="21.0662"
textLength="2.5460" font-size="1.6933" lengthAdjust="spacingAndGlyphs"
text-anchor="middle" opacity="0">14</text>
<g class="stroked-text"><desc>14</desc>
<path d="M17.1700 20.9107
L16.4443 20.9107
" />
<path d="M16.8071 20.9107
L16.8071 19.6407
" />
<path d="M16.8071 19.6407
L16.6862 19.8222
" />
<path d="M16.6862 19.8222
L16.5652 19.9431
" />
<path d="M16.5652 19.9431
L16.4443 20.0036
" />
<path d="M18.2585 20.0641
L18.2585 20.9107
" />
<path d="M17.9561 19.5803
L17.6538 20.4874
" />
<path d="M17.6538 20.4874
L18.4399 20.4874
" />
</g></g>
<g style="fill:#840000; fill-opacity:0.0; 
stroke:#840000; stroke-width:0.1524; stroke-opacity:1; 
stroke-linecap:round; stroke-linejoin:round;">
<path d="M10.4269 23.8602
L6.6169 23.8602
" />
</g>
<g style="fill:#A90000; fill-opacity:0.0; 
stroke:#A90000; stroke-width:0.1524; stroke-opacity:1; 
stroke-linecap:round; stroke-linejoin:round;">
<text x="8.5219" y="23.6062"
textLength="2.5460" font-size="1.6933" lengthAdjust="spacingAndGlyphs"
text-anchor="middle" opacity="0">15</text>
<g class="stroked-text"><desc>15</desc>
<path d="M8.2800 23.4507
L7.5543 23.4507
" />
<path d="M7.9171 23.4507
L7.9171 22.1807
" />
<path d="M7.9171 22.1807
L7.7962 22.3622
" />
<path d="M7.7962 22.3622
L7.6752 22.4831
" />
<path d="M7.6752 22.4831
L7.5543 22.5436
" />
<path d="M9.4290 22.1807
L8.8242 22.1807
" />
<path d="M8.8242 22.1807
L8.7638 22.7855
" />
<path d="M8.7638 22.7855
L8.8242 22.7250
" />
<path d="M8.8242 22.7250
L8.9452 22.6645
" />
<path d="M8.9452 22.6645
L9.2476 22.6645
" />
<path d="M9.2476 22.6645
L9.3685 22.7250
" />
<path d="M9.3685 22.7250
L9.4290 22.7855
" />
<path d="M9.4290 22.7855
L9.4895 22.9064
" />
<path d="M9.4895 22.9064
L9.4895 23.2088
" />
<path d="M9.4895 23.2088
L9.4290 23.3298
" />
<path d="M9.4290 23.3298
L9.3685 23.3903
" />
<path d="M9.3685 23.3903
L9.2476 23.4507
" />
<path d="M9.2476 23.4507
L8.9452 23.4507
" />
<path d="M8.9452 23.4507
L8.8242 23.3903
" />
<path d="M8.8242 23.3903
L8.7638 23.3298
" />
</g></g>
<g style="fill:#840000; fill-opacity:0.0; 
stroke:#840000; stroke-width:0.1524; stroke-opacity:1; 
stroke-linecap:round; stroke-linejoin:round;">
<path d="M15.5069 23.8602
L19.3169 23.8602
" />
</g>
<g style="fill:#A90000; fill-opacity:0.0; 
stroke:#A90000; stroke-width:0.1524; stroke-opacity:1; 
stroke-linecap:round; stroke-linejoin:round;">
<text x="17.4119" y="23.6062"
textLength="2.5460" font-size="1.6933" lengthAdjust="spacingAndGlyphs"
text-anchor="middle" opacity="0">16</text>
<g class="stroked-text"><desc>16</desc>
<path d="M17.1700 23.4507
L16.4443 23.4507
" />
<path d="M16.8071 23.4507
L16.8071 22.1807
" />
<path d="M16.8071 22.1807
L16.6862 22.3622
" />
<path d="M16.6862 22.3622
L16.5652 22.4831
" />
<path d="M16.5652 22.4831
L16.4443 22.5436
" />
<path d="M18.2585 22.1807
L18.0166 22.1807
" />
<path d="M18.0166 22.1807
L17.8957 22.2412
" />
<path d="M17.8957 22.2412
L17.8352 22.3017
" />
<path d="M17.8352 22.3017
L17.7142 22.4831
" />
<path d="M17.7142 22.4831
L17.6538 22.7250
" />
<path d="M17.6538 22.7250
L17.6538 23.2088
" />
<path d="M17.6538 23.2088
L17.7142 23.3298
" />
<path d="M17.7142 23.3298
L17.7747 23.3903
" />
<path d="M17.7747 23.3903
L17.8957 23.4507
" />
<path d="M17.8957 23.4507
L18.1376 23.4507
" />
<path d="M18.1376 23.4507
L18.2585 23.3903
" />
<path d="M18.2585 23.3903
L18.3190 23.3298
" />
<path d="M18.3190 23.3298
L18.3795 23.2088
" />
<path d="M18.3795 23.2088
L18.3795 22.9064
" />
<path d="M18.3795 22.9064
L18.3190 22.7855
" />
<path d="M18.3190 22.7855
L18.2585 22.7250
" />
<path d="M18.2585 22.7250
L18.1376 22.6645
" />
<path d="M18.1376 22.6645
L17.8957 22.6645
" />
<path d="M17.8957 22.6645
L17.7747 22.7250
" />
<path d="M17.7747 22.7250
L17.7142 22.7855
" />
<path d="M17.7142 22.7855
L17.6538 22.9064
" />
</g></g>
<g style="fill:#840000; fill-opacity:0.0; 
stroke:#840000; stroke-width:0.1524; stroke-opacity:1; 
stroke-linecap:round; stroke-linejoin:round;">
<path d="M10.4269 26.4002
L6.6169 26.4002
" />
</g>
<g style="fill:#A90000; fill-opacity:0.0; 
stroke:#A90000; stroke-width:0.1524; stroke-opacity:1; 
stroke-linecap:round; stroke-linejoin:round;">
<text x="8.5219" y="26.1462"
textLength="2.5460" font-size="1.6933" lengthAdjust="spacingAndGlyphs"
text-anchor="middle" opacity="0">17</text>
<g class="stroked-text"><desc>17</desc>
<path d="M8.2800 25.9907
L7.5543 25.9907
" />
<path d="M7.9171 25.9907
L7.9171 24.7207
" />
<path d="M7.9171 24.7207
L7.7962 24.9022
" />
<path d="M7.7962 24.9022
L7.6752 25.0231
" />
<path d="M7.6752 25.0231
L7.5543 25.0836
" />
<path d="M8.7033 24.7207
L9.5499 24.7207
" />
<path d="M9.5499 24.7207
L9.0057 25.9907
" />
</g></g>
<g style="fill:#840000; fill-opacity:0.0; 
stroke:#840000; stroke-width:0.1524; stroke-opacity:1; 
stroke-linecap:round; stroke-linejoin:round;">
<path d="M15.5069 26.4002
L19.3169 26.4002
" />
</g>
<g style="fill:#A90000; fill-opacity:0.0; 
stroke:#A90000; stroke-width:0.1524; stroke-opacity:1; 
stroke-linecap:round; stroke-linejoin:round;">
<text x="17.4119" y="26.1462"
textLength="2.5460" font-size="1.6933" lengthAdjust="spacingAndGlyphs"
text-anchor="middle" opacity="0">18</text>
<g class="stroked-text"><desc>18</desc>
<path d="M17.1700 25.9907
L16.4443 25.9907
" />
<path d="M16.8071 25.9907
L16.8071 24.7207
" />
<path d="M16.8071 24.7207
L16.6862 24.9022
" />
<path d="M16.6862 24.9022
L16.5652 25.0231
" />
<path d="M16.5652 25.0231
L16.4443 25.0836
" />
<path d="M17.8957 25.2650
L17.7747 25.2045
" />
<path d="M17.7747 25.2045
L17.7142 25.1441
" />
<path d="M17.7142 25.1441
L17.6538 25.0231
" />
<path d="M17.6538 25.0231
L17.6538 24.9626
" />
<path d="M17.6538 24.9626
L17.7142 24.8417
" />
<path d="M17.7142 24.8417
L17.7747 24.7812
" />
<path d="M17.7747 24.7812
L17.8957 24.7207
" />
<path d="M17.8957 24.7207
L18.1376 24.7207
" />
<path d="M18.1376 24.7207
L18.2585 24.7812
" />
<path d="M18.2585 24.7812
L18.3190 24.8417
" />
<path d="M18.3190 24.8417
L18.3795 24.9626
" />
<path d="M18.3795 24.9626
L18.3795 25.0231
" />
<path d="M18.3795 25.0231
L18.3190 25.1441
" />
<path d="M18.3190 25.1441
L18.2585 25.2045
" />
<path d="M18.2585 25.2045
L18.1376 25.2650
" />
<path d="M18.1376 25.2650
L17.8957 25.2650
" />
<path d="M17.8957 25.2650
L17.7747 25.3255
" />
<path d="M17.7747 25.3255
L17.7142 25.3860
" />
<path d="M17.7142 25.3860
L17.6538 25.5069
" />
<path d="M17.6538 25.5069
L17.6538 25.7488
" />
<path d="M17.6538 25.7488
L17.7142 25.8698
" />
<path d="M17.7142 25.8698
L17.7747 25.9303
" />
<path d="M17.7747 25.9303
L17.8957 25.9907
" />
<path d="M17.8957 25.9907
L18.1376 25.9907
" />
<path d="M18.1376 25.9907
L18.2585 25.9303
" />
<path d="M18.2585 25.9303
L18.3190 25.8698
" />
<path d="M18.3190 25.8698
L18.3795 25.7488
" />
<path d="M18.3795 25.7488
L18.3795 25.5069
" />
<path d="M18.3795 25.5069
L18.3190 25.3860
" />
<path d="M18.3190 25.3860
L18.2585 25.3255
" />
<path d="M18.2585 25.3255
L18.1376 25.2650
" />
</g></g>
<g style="fill:#840000; fill-opacity:0.0; 
stroke:#840000; stroke-width:0.1524; stroke-opacity:1; 
stroke-linecap:round; stroke-linejoin:round;">
<path d="M15.5069 6.0802
L19.3169 6.0802
" />
</g>
<g style="fill:#A90000; fill-opacity:0.0; 
stroke:#A90000; stroke-width:0.1524; stroke-opacity:1; 
stroke-linecap:round; stroke-linejoin:round;">
<text x="17.4119" y="5.8262"
textLength="1.3365" font-size="1.6933" lengthAdjust="spacingAndGlyphs"
text-anchor="middle" opacity="0">2</text>
<g class="stroked-text"><desc>2</desc>
<path d="M17.0491 4.5217
L17.1095 4.4612
" />
<path d="M17.1095 4.4612
L17.2305 4.4007
" />
<path d="M17.2305 4.4007
L17.5329 4.4007
" />
<path d="M17.5329 4.4007
L17.6538 4.4612
" />
<path d="M17.6538 4.4612
L17.7143 4.5217
" />
<path d="M17.7143 4.5217
L17.7748 4.6426
" />
<path d="M17.7748 4.6426
L17.7748 4.7636
" />
<path d="M17.7748 4.7636
L17.7143 4.9450
" />
<path d="M17.7143 4.9450
L16.9886 5.6707
" />
<path d="M16.9886 5.6707
L17.7748 5.6707
" />
</g></g>
<g style="fill:#840000; fill-opacity:0.0; 
stroke:#840000; stroke-width:0.1524; stroke-opacity:1; 
stroke-linecap:round; stroke-linejoin:round;">
<path d="M10.4269 8.6202
L6.6169 8.6202
" />
</g>
<g style="fill:#A90000; fill-opacity:0.0; 
stroke:#A90000; stroke-width:0.1524; stroke-opacity:1; 
stroke-linecap:round; stroke-linejoin:round;">
<text x="8.5219" y="8.3662"
textLength="1.3365" font-size="1.6933" lengthAdjust="spacingAndGlyphs"
text-anchor="middle" opacity="0">3</text>
<g class="stroked-text"><desc>3</desc>
<path d="M8.0986 6.9407
L8.8848 6.9407
" />
<path d="M8.8848 6.9407
L8.4614 7.4245
" />
<path d="M8.4614 7.4245
L8.6429 7.4245
" />
<path d="M8.6429 7.4245
L8.7638 7.4850
" />
<path d="M8.7638 7.4850
L8.8243 7.5455
" />
<path d="M8.8243 7.5455
L8.8848 7.6664
" />
<path d="M8.8848 7.6664
L8.8848 7.9688
" />
<path d="M8.8848 7.9688
L8.8243 8.0898
" />
<path d="M8.8243 8.0898
L8.7638 8.1503
" />
<path d="M8.7638 8.1503
L8.6429 8.2107
" />
<path d="M8.6429 8.2107
L8.2800 8.2107
" />
<path d="M8.2800 8.2107
L8.1591 8.1503
" />
<path d="M8.1591 8.1503
L8.0986 8.0898
" />
</g></g>
<g style="fill:#840000; fill-opacity:0.0; 
stroke:#840000; stroke-width:0.1524; stroke-opacity:1; 
stroke-linecap:round; stroke-linejoin:round;">
<path d="M15.5069 8.6202
L19.3169 8.6202
" />
</g>
<g style="fill:#A90000; fill-opacity:0.0; 
stroke:#A90000; stroke-width:0.1524; stroke-opacity:1; 
stroke-linecap:round; stroke-linejoin:round;">
<text x="17.4119" y="8.3662"
textLength="1.3365" font-size="1.6933" lengthAdjust="spacingAndGlyphs"
text-anchor="middle" opacity="0">4</text>
<g class="stroked-text"><desc>4</desc>
<path d="M17.6538 7.3641
L17.6538 8.2107
" />
<path d="M17.3514 6.8803
L17.0491 7.7874
" />
<path d="M17.0491 7.7874
L17.8352 7.7874
" />
</g></g>
<g style="fill:#840000; fill-opacity:0.0; 
stroke:#840000; stroke-width:0.1524; stroke-opacity:1; 
stroke-linecap:round; stroke-linejoin:round;">
<path d="M10.4269 11.1602
L6.6169 11.1602
" />
</g>
<g style="fill:#A90000; fill-opacity:0.0; 
stroke:#A90000; stroke-width:0.1524; stroke-opacity:1; 
stroke-linecap:round; stroke-linejoin:round;">
<text x="8.5219" y="10.9062"
textLength="1.3365" font-size="1.6933" lengthAdjust="spacingAndGlyphs"
text-anchor="middle" opacity="0">5</text>
<g class="stroked-text"><desc>5</desc>
<path d="M8.8243 9.4807
L8.2195 9.4807
" />
<path d="M8.2195 9.4807
L8.1591 10.0855
" />
<path d="M8.1591 10.0855
L8.2195 10.0250
" />
<path d="M8.2195 10.0250
L8.3405 9.9645
" />
<path d="M8.3405 9.9645
L8.6429 9.9645
" />
<path d="M8.6429 9.9645
L8.7638 10.0250
" />
<path d="M8.7638 10.0250
L8.8243 10.0855
" />
<path d="M8.8243 10.0855
L8.8848 10.2064
" />
<path d="M8.8848 10.2064
L8.8848 10.5088
" />
<path d="M8.8848 10.5088
L8.8243 10.6298
" />
<path d="M8.8243 10.6298
L8.7638 10.6903
" />
<path d="M8.7638 10.6903
L8.6429 10.7507
" />
<path d="M8.6429 10.7507
L8.3405 10.7507
" />
<path d="M8.3405 10.7507
L8.2195 10.6903
" />
<path d="M8.2195 10.6903
L8.1591 10.6298
" />
</g></g>
<g style="fill:#840000; fill-opacity:0.0; 
stroke:#840000; stroke-width:0.1524; stroke-opacity:1; 
stroke-linecap:round; stroke-linejoin:round;">
<path d="M15.5069 11.1602
L19.3169 11.1602
" />
</g>
<g style="fill:#A90000; fill-opacity:0.0; 
stroke:#A90000; stroke-width:0.1524; stroke-opacity:1; 
stroke-linecap:round; stroke-linejoin:round;">
<text x="17.4119" y="10.9062"
textLength="1.3365" font-size="1.6933" lengthAdjust="spacingAndGlyphs"
text-anchor="middle" opacity="0">6</text>
<g class="stroked-text"><desc>6</desc>
<path d="M17.6538 9.4807
L17.4119 9.4807
" />
<path d="M17.4119 9.4807
L17.2910 9.5412
" />
<path d="M17.2910 9.5412
L17.2305 9.6017
" />
<path d="M17.2305 9.6017
L17.1095 9.7831
" />
<path d="M17.1095 9.7831
L17.0491 10.0250
" />
<path d="M17.0491 10.0250
L17.0491 10.5088
" />
<path d="M17.0491 10.5088
L17.1095 10.6298
" />
<path d="M17.1095 10.6298
L17.1700 10.6903
" />
<path d="M17.1700 10.6903
L17.2910 10.7507
" />
<path d="M17.2910 10.7507
L17.5329 10.7507
" />
<path d="M17.5329 10.7507
L17.6538 10.6903
" />
<path d="M17.6538 10.6903
L17.7143 10.6298
" />
<path d="M17.7143 10.6298
L17.7748 10.5088
" />
<path d="M17.7748 10.5088
L17.7748 10.2064
" />
<path d="M17.7748 10.2064
L17.7143 10.0855
" />
<path d="M17.7143 10.0855
L17.6538 10.0250
" />
<path d="M17.6538 10.0250
L17.5329 9.9645
" />
<path d="M17.5329 9.9645
L17.2910 9.9645
" />
<path d="M17.2910 9.9645
L17.1700 10.0250
" />
<path d="M17.1700 10.0250
L17.1095 10.0855
" />
<path d="M17.1095 10.0855
L17.0491 10.2064
" />
</g></g>
<g style="fill:#840000; fill-opacity:0.0; 
stroke:#840000; stroke-width:0.1524; stroke-opacity:1; 
stroke-linecap:round; stroke-linejoin:round;">
<path d="M10.4269 13.7002
L6.6169 13.7002
" />
</g>
<g style="fill:#A90000; fill-opacity:0.0; 
stroke:#A90000; stroke-width:0.1524; stroke-opacity:1; 
stroke-linecap:round; stroke-linejoin:round;">
<text x="8.5219" y="13.4462"
textLength="1.3365" font-size="1.6933" lengthAdjust="spacingAndGlyphs"
text-anchor="middle" opacity="0">7</text>
<g class="stroked-text"><desc>7</desc>
<path d="M8.0986 12.0207
L8.9452 12.0207
" />
<path d="M8.9452 12.0207
L8.4010 13.2907
" />
</g></g>
<g style="fill:#840000; fill-opacity:0.0; 
stroke:#840000; stroke-width:0.1524; stroke-opacity:1; 
stroke-linecap:round; stroke-linejoin:round;">
<path d="M15.5069 13.7002
L19.3169 13.7002
" />
</g>
<g style="fill:#A90000; fill-opacity:0.0; 
stroke:#A90000; stroke-width:0.1524; stroke-opacity:1; 
stroke-linecap:round; stroke-linejoin:round;">
<text x="17.4119" y="13.4462"
textLength="1.3365" font-size="1.6933" lengthAdjust="spacingAndGlyphs"
text-anchor="middle" opacity="0">8</text>
<g class="stroked-text"><desc>8</desc>
<path d="M17.2910 12.5650
L17.1700 12.5045
" />
<path d="M17.1700 12.5045
L17.1095 12.4441
" />
<path d="M17.1095 12.4441
L17.0491 12.3231
" />
<path d="M17.0491 12.3231
L17.0491 12.2626
" />
<path d="M17.0491 12.2626
L17.1095 12.1417
" />
<path d="M17.1095 12.1417
L17.1700 12.0812
" />
<path d="M17.1700 12.0812
L17.2910 12.0207
" />
<path d="M17.2910 12.0207
L17.5329 12.0207
" />
<path d="M17.5329 12.0207
L17.6538 12.0812
" />
<path d="M17.6538 12.0812
L17.7143 12.1417
" />
<path d="M17.7143 12.1417
L17.7748 12.2626
" />
<path d="M17.7748 12.2626
L17.7748 12.3231
" />
<path d="M17.7748 12.3231
L17.7143 12.4441
" />
<path d="M17.7143 12.4441
L17.6538 12.5045
" />
<path d="M17.6538 12.5045
L17.5329 12.5650
" />
<path d="M17.5329 12.5650
L17.2910 12.5650
" />
<path d="M17.2910 12.5650
L17.1700 12.6255
" />
<path d="M17.1700 12.6255
L17.1095 12.6860
" />
<path d="M17.1095 12.6860
L17.0491 12.8069
" />
<path d="M17.0491 12.8069
L17.0491 13.0488
" />
<path d="M17.0491 13.0488
L17.1095 13.1698
" />
<path d="M17.1095 13.1698
L17.1700 13.2303
" />
<path d="M17.1700 13.2303
L17.2910 13.2907
" />
<path d="M17.2910 13.2907
L17.5329 13.2907
" />
<path d="M17.5329 13.2907
L17.6538 13.2303
" />
<path d="M17.6538 13.2303
L17.7143 13.1698
" />
<path d="M17.7143 13.1698
L17.7748 13.0488
" />
<path d="M17.7748 13.0488
L17.7748 12.8069
" />
<path d="M17.7748 12.8069
L17.7143 12.6860
" />
<path d="M17.7143 12.6860
L17.6538 12.6255
" />
<path d="M17.6538 12.6255
L17.5329 12.5650
" />
</g></g>
<g style="fill:#840000; fill-opacity:0.0; 
stroke:#840000; stroke-width:0.1524; stroke-opacity:1; 
stroke-linecap:round; stroke-linejoin:round;">
<path d="M10.4269 16.2402
L6.6169 16.2402
" />
</g>
<g style="fill:#A90000; fill-opacity:0.0; 
stroke:#A90000; stroke-width:0.1524; stroke-opacity:1; 
stroke-linecap:round; stroke-linejoin:round;">
<text x="8.5219" y="15.9862"
textLength="1.3365" font-size="1.6933" lengthAdjust="spacingAndGlyphs"
text-anchor="middle" opacity="0">9</text>
<g class="stroked-text"><desc>9</desc>
<path d="M8.2800 15.8307
L8.5219 15.8307
" />
<path d="M8.5219 15.8307
L8.6429 15.7703
" />
<path d="M8.6429 15.7703
L8.7033 15.7098
" />
<path d="M8.7033 15.7098
L8.8243 15.5283
" />
<path d="M8.8243 15.5283
L8.8848 15.2864
" />
<path d="M8.8848 15.2864
L8.8848 14.8026
" />
<path d="M8.8848 14.8026
L8.8243 14.6817
" />
<path d="M8.8243 14.6817
L8.7638 14.6212
" />
<path d="M8.7638 14.6212
L8.6429 14.5607
" />
<path d="M8.6429 14.5607
L8.4010 14.5607
" />
<path d="M8.4010 14.5607
L8.2800 14.6212
" />
<path d="M8.2800 14.6212
L8.2195 14.6817
" />
<path d="M8.2195 14.6817
L8.1591 14.8026
" />
<path d="M8.1591 14.8026
L8.1591 15.1050
" />
<path d="M8.1591 15.1050
L8.2195 15.2260
" />
<path d="M8.2195 15.2260
L8.2800 15.2864
" />
<path d="M8.2800 15.2864
L8.4010 15.3469
" />
<path d="M8.4010 15.3469
L8.6429 15.3469
" />
<path d="M8.6429 15.3469
L8.7638 15.2864
" />
<path d="M8.7638 15.2864
L8.8243 15.2260
" />
<path d="M8.8243 15.2260
L8.8848 15.1050
" />
</g></g>
<g style="fill:#840084; fill-opacity:0.0; 
stroke:#840084; stroke-width:0.1524; stroke-opacity:1; 
stroke-linecap:round; stroke-linejoin:round;">
</g>
<g style="fill:#006464; fill-opacity:0.0; 
stroke:#006464; stroke-width:0.1524; stroke-opacity:1; 
stroke-linecap:round; stroke-linejoin:round;">
</g>
<g style="fill:#006464; fill-opacity:0.0; 
stroke:#006464; stroke-width:0.1588; stroke-opacity:1; 
stroke-linecap:round; stroke-linejoin:round;">
<text x="12.9669" y="4.1752"
textLength="2.1992" font-size="1.6933" lengthAdjust="spacingAndGlyphs"
text-anchor="middle" opacity="0">J?</text>
<g class="stroked-text"><desc>J?</desc>
<path d="M12.6040 2.8577
L12.6040 3.7649
" />
<path d="M12.6040 3.7649
L12.5435 3.9463
" />
<path d="M12.5435 3.9463
L12.4226 4.0673
" />
<path d="M12.4226 4.0673
L12.2411 4.1277
" />
<path d="M12.2411 4.1277
L12.1202 4.1277
" />
<path d="M13.3902 4.0068
L13.4506 4.0673
" />
<path d="M13.4506 4.0673
L13.3902 4.1277
" />
<path d="M13.3902 4.1277
L13.3297 4.0673
" />
<path d="M13.3297 4.0673
L13.3902 4.0068
" />
<path d="M13.3902 4.0068
L13.3902 4.1277
" />
<path d="M13.1483 2.9182
L13.2692 2.8577
" />
<path d="M13.2692 2.8577
L13.5716 2.8577
" />
<path d="M13.5716 2.8577
L13.6925 2.9182
" />
<path d="M13.6925 2.9182
L13.7530 3.0392
" />
<path d="M13.7530 3.0392
L13.7530 3.1601
" />
<path d="M13.7530 3.1601
L13.6925 3.2811
" />
<path d="M13.6925 3.2811
L13.6321 3.3415
" />
<path d="M13.6321 3.3415
L13.5111 3.4020
" />
<path d="M13.5111 3.4020
L13.4506 3.4625
" />
<path d="M13.4506 3.4625
L13.3902 3.5834
" />
<path d="M13.3902 3.5834
L13.3902 3.6439
" />
</g><text x="12.9669" y="29.5752"
textLength="21.6116" font-size="1.6933" lengthAdjust="spacingAndGlyphs"
text-anchor="middle" opacity="0">Conn_02x09_Odd_Even</text>
<g class="stroked-text"><desc>Conn_02x09_Odd_Even</desc>
<path d="M3.2606 29.4068
L3.2002 29.4673
" />
<path d="M3.2002 29.4673
L3.0187 29.5277
" />
<path d="M3.0187 29.5277
L2.8978 29.5277
" />
<path d="M2.8978 29.5277
L2.7164 29.4673
" />
<path d="M2.7164 29.4673
L2.5954 29.3463
" />
<path d="M2.5954 29.3463
L2.5349 29.2253
" />
<path d="M2.5349 29.2253
L2.4745 28.9834
" />
<path d="M2.4745 28.9834
L2.4745 28.8020
" />
<path d="M2.4745 28.8020
L2.5349 28.5601
" />
<path d="M2.5349 28.5601
L2.5954 28.4392
" />
<path d="M2.5954 28.4392
L2.7164 28.3182
" />
<path d="M2.7164 28.3182
L2.8978 28.2577
" />
<path d="M2.8978 28.2577
L3.0187 28.2577
" />
<path d="M3.0187 28.2577
L3.2002 28.3182
" />
<path d="M3.2002 28.3182
L3.2606 28.3787
" />
<path d="M3.9864 29.5277
L3.8654 29.4673
" />
<path d="M3.8654 29.4673
L3.8049 29.4068
" />
<path d="M3.8049 29.4068
L3.7445 29.2858
" />
<path d="M3.7445 29.2858
L3.7445 28.9230
" />
<path d="M3.7445 28.9230
L3.8049 28.8020
" />
<path d="M3.8049 28.8020
L3.8654 28.7415
" />
<path d="M3.8654 28.7415
L3.9864 28.6811
" />
<path d="M3.9864 28.6811
L4.1678 28.6811
" />
<path d="M4.1678 28.6811
L4.2887 28.7415
" />
<path d="M4.2887 28.7415
L4.3492 28.8020
" />
<path d="M4.3492 28.8020
L4.4097 28.9230
" />
<path d="M4.4097 28.9230
L4.4097 29.2858
" />
<path d="M4.4097 29.2858
L4.3492 29.4068
" />
<path d="M4.3492 29.4068
L4.2887 29.4673
" />
<path d="M4.2887 29.4673
L4.1678 29.5277
" />
<path d="M4.1678 29.5277
L3.9864 29.5277
" />
<path d="M4.9539 28.6811
L4.9539 29.5277
" />
<path d="M4.9539 28.8020
L5.0144 28.7415
" />
<path d="M5.0144 28.7415
L5.1354 28.6811
" />
<path d="M5.1354 28.6811
L5.3168 28.6811
" />
<path d="M5.3168 28.6811
L5.4377 28.7415
" />
<path d="M5.4377 28.7415
L5.4982 28.8625
" />
<path d="M5.4982 28.8625
L5.4982 29.5277
" />
<path d="M6.1029 28.6811
L6.1029 29.5277
" />
<path d="M6.1029 28.8020
L6.1634 28.7415
" />
<path d="M6.1634 28.7415
L6.2844 28.6811
" />
<path d="M6.2844 28.6811
L6.4658 28.6811
" />
<path d="M6.4658 28.6811
L6.5867 28.7415
" />
<path d="M6.5867 28.7415
L6.6472 28.8625
" />
<path d="M6.6472 28.8625
L6.6472 29.5277
" />
<path d="M6.9496 29.6487
L7.9172 29.6487
" />
<path d="M8.4614 28.2577
L8.5824 28.2577
" />
<path d="M8.5824 28.2577
L8.7033 28.3182
" />
<path d="M8.7033 28.3182
L8.7638 28.3787
" />
<path d="M8.7638 28.3787
L8.8243 28.4996
" />
<path d="M8.8243 28.4996
L8.8848 28.7415
" />
<path d="M8.8848 28.7415
L8.8848 29.0439
" />
<path d="M8.8848 29.0439
L8.8243 29.2858
" />
<path d="M8.8243 29.2858
L8.7638 29.4068
" />
<path d="M8.7638 29.4068
L8.7033 29.4673
" />
<path d="M8.7033 29.4673
L8.5824 29.5277
" />
<path d="M8.5824 29.5277
L8.4614 29.5277
" />
<path d="M8.4614 29.5277
L8.3405 29.4673
" />
<path d="M8.3405 29.4673
L8.2800 29.4068
" />
<path d="M8.2800 29.4068
L8.2195 29.2858
" />
<path d="M8.2195 29.2858
L8.1591 29.0439
" />
<path d="M8.1591 29.0439
L8.1591 28.7415
" />
<path d="M8.1591 28.7415
L8.2195 28.4996
" />
<path d="M8.2195 28.4996
L8.2800 28.3787
" />
<path d="M8.2800 28.3787
L8.3405 28.3182
" />
<path d="M8.3405 28.3182
L8.4614 28.2577
" />
<path d="M9.3686 28.3787
L9.4290 28.3182
" />
<path d="M9.4290 28.3182
L9.5500 28.2577
" />
<path d="M9.5500 28.2577
L9.8524 28.2577
" />
<path d="M9.8524 28.2577
L9.9733 28.3182
" />
<path d="M9.9733 28.3182
L10.0338 28.3787
" />
<path d="M10.0338 28.3787
L10.0943 28.4996
" />
<path d="M10.0943 28.4996
L10.0943 28.6206
" />
<path d="M10.0943 28.6206
L10.0338 28.8020
" />
<path d="M10.0338 28.8020
L9.3081 29.5277
" />
<path d="M9.3081 29.5277
L10.0943 29.5277
" />
<path d="M10.5176 29.5277
L11.1828 28.6811
" />
<path d="M10.5176 28.6811
L11.1828 29.5277
" />
<path d="M11.9085 28.2577
L12.0295 28.2577
" />
<path d="M12.0295 28.2577
L12.1504 28.3182
" />
<path d="M12.1504 28.3182
L12.2109 28.3787
" />
<path d="M12.2109 28.3787
L12.2714 28.4996
" />
<path d="M12.2714 28.4996
L12.3319 28.7415
" />
<path d="M12.3319 28.7415
L12.3319 29.0439
" />
<path d="M12.3319 29.0439
L12.2714 29.2858
" />
<path d="M12.2714 29.2858
L12.2109 29.4068
" />
<path d="M12.2109 29.4068
L12.1504 29.4673
" />
<path d="M12.1504 29.4673
L12.0295 29.5277
" />
<path d="M12.0295 29.5277
L11.9085 29.5277
" />
<path d="M11.9085 29.5277
L11.7876 29.4673
" />
<path d="M11.7876 29.4673
L11.7271 29.4068
" />
<path d="M11.7271 29.4068
L11.6666 29.2858
" />
<path d="M11.6666 29.2858
L11.6062 29.0439
" />
<path d="M11.6062 29.0439
L11.6062 28.7415
" />
<path d="M11.6062 28.7415
L11.6666 28.4996
" />
<path d="M11.6666 28.4996
L11.7271 28.3787
" />
<path d="M11.7271 28.3787
L11.7876 28.3182
" />
<path d="M11.7876 28.3182
L11.9085 28.2577
" />
<path d="M12.9366 29.5277
L13.1785 29.5277
" />
<path d="M13.1785 29.5277
L13.2995 29.4673
" />
<path d="M13.2995 29.4673
L13.3599 29.4068
" />
<path d="M13.3599 29.4068
L13.4809 29.2253
" />
<path d="M13.4809 29.2253
L13.5414 28.9834
" />
<path d="M13.5414 28.9834
L13.5414 28.4996
" />
<path d="M13.5414 28.4996
L13.4809 28.3787
" />
<path d="M13.4809 28.3787
L13.4204 28.3182
" />
<path d="M13.4204 28.3182
L13.2995 28.2577
" />
<path d="M13.2995 28.2577
L13.0576 28.2577
" />
<path d="M13.0576 28.2577
L12.9366 28.3182
" />
<path d="M12.9366 28.3182
L12.8761 28.3787
" />
<path d="M12.8761 28.3787
L12.8157 28.4996
" />
<path d="M12.8157 28.4996
L12.8157 28.8020
" />
<path d="M12.8157 28.8020
L12.8761 28.9230
" />
<path d="M12.8761 28.9230
L12.9366 28.9834
" />
<path d="M12.9366 28.9834
L13.0576 29.0439
" />
<path d="M13.0576 29.0439
L13.2995 29.0439
" />
<path d="M13.2995 29.0439
L13.4204 28.9834
" />
<path d="M13.4204 28.9834
L13.4809 28.9230
" />
<path d="M13.4809 28.9230
L13.5414 28.8020
" />
<path d="M13.7833 29.6487
L14.7509 29.6487
" />
<path d="M15.2951 28.2577
L15.5370 28.2577
" />
<path d="M15.5370 28.2577
L15.6580 28.3182
" />
<path d="M15.6580 28.3182
L15.7789 28.4392
" />
<path d="M15.7789 28.4392
L15.8394 28.6811
" />
<path d="M15.8394 28.6811
L15.8394 29.1044
" />
<path d="M15.8394 29.1044
L15.7789 29.3463
" />
<path d="M15.7789 29.3463
L15.6580 29.4673
" />
<path d="M15.6580 29.4673
L15.5370 29.5277
" />
<path d="M15.5370 29.5277
L15.2951 29.5277
" />
<path d="M15.2951 29.5277
L15.1742 29.4673
" />
<path d="M15.1742 29.4673
L15.0532 29.3463
" />
<path d="M15.0532 29.3463
L14.9928 29.1044
" />
<path d="M14.9928 29.1044
L14.9928 28.6811
" />
<path d="M14.9928 28.6811
L15.0532 28.4392
" />
<path d="M15.0532 28.4392
L15.1742 28.3182
" />
<path d="M15.1742 28.3182
L15.2951 28.2577
" />
<path d="M16.9280 29.5277
L16.9280 28.2577
" />
<path d="M16.9280 29.4673
L16.8071 29.5277
" />
<path d="M16.8071 29.5277
L16.5652 29.5277
" />
<path d="M16.5652 29.5277
L16.4442 29.4673
" />
<path d="M16.4442 29.4673
L16.3837 29.4068
" />
<path d="M16.3837 29.4068
L16.3233 29.2858
" />
<path d="M16.3233 29.2858
L16.3233 28.9230
" />
<path d="M16.3233 28.9230
L16.3837 28.8020
" />
<path d="M16.3837 28.8020
L16.4442 28.7415
" />
<path d="M16.4442 28.7415
L16.5652 28.6811
" />
<path d="M16.5652 28.6811
L16.8071 28.6811
" />
<path d="M16.8071 28.6811
L16.9280 28.7415
" />
<path d="M18.0770 29.5277
L18.0770 28.2577
" />
<path d="M18.0770 29.4673
L17.9561 29.5277
" />
<path d="M17.9561 29.5277
L17.7142 29.5277
" />
<path d="M17.7142 29.5277
L17.5932 29.4673
" />
<path d="M17.5932 29.4673
L17.5327 29.4068
" />
<path d="M17.5327 29.4068
L17.4723 29.2858
" />
<path d="M17.4723 29.2858
L17.4723 28.9230
" />
<path d="M17.4723 28.9230
L17.5327 28.8020
" />
<path d="M17.5327 28.8020
L17.5932 28.7415
" />
<path d="M17.5932 28.7415
L17.7142 28.6811
" />
<path d="M17.7142 28.6811
L17.9561 28.6811
" />
<path d="M17.9561 28.6811
L18.0770 28.7415
" />
<path d="M18.3794 29.6487
L19.3470 29.6487
" />
<path d="M19.6493 28.8625
L20.0727 28.8625
" />
<path d="M20.2541 29.5277
L19.6493 29.5277
" />
<path d="M19.6493 29.5277
L19.6493 28.2577
" />
<path d="M19.6493 28.2577
L20.2541 28.2577
" />
<path d="M20.6774 28.6811
L20.9798 29.5277
" />
<path d="M20.9798 29.5277
L21.2821 28.6811
" />
<path d="M22.2497 29.4673
L22.1288 29.5277
" />
<path d="M22.1288 29.5277
L21.8869 29.5277
" />
<path d="M21.8869 29.5277
L21.7659 29.4673
" />
<path d="M21.7659 29.4673
L21.7055 29.3463
" />
<path d="M21.7055 29.3463
L21.7055 28.8625
" />
<path d="M21.7055 28.8625
L21.7659 28.7415
" />
<path d="M21.7659 28.7415
L21.8869 28.6811
" />
<path d="M21.8869 28.6811
L22.1288 28.6811
" />
<path d="M22.1288 28.6811
L22.2497 28.7415
" />
<path d="M22.2497 28.7415
L22.3102 28.8625
" />
<path d="M22.3102 28.8625
L22.3102 28.9834
" />
<path d="M22.3102 28.9834
L21.7055 29.1044
" />
<path d="M22.8545 28.6811
L22.8545 29.5277
" />
<path d="M22.8545 28.8020
L22.9150 28.7415
" />
<path d="M22.9150 28.7415
L23.0360 28.6811
" />
<path d="M23.0360 28.6811
L23.2174 28.6811
" />
<path d="M23.2174 28.6811
L23.3383 28.7415
" />
<path d="M23.3383 28.7415
L23.3988 28.8625
" />
<path d="M23.3988 28.8625
L23.3988 29.5277
" />
</g></g>
<g style="fill:#840084; fill-opacity:0.0; 
stroke:#840084; stroke-width:0.1588; stroke-opacity:1; 
stroke-linecap:round; stroke-linejoin:round;">
<g transform="rotate(-90.000000 11.6969 16.2402)">
<text x="11.6969" y="16.8752"
textLength="1.0501" font-size="1.6933" lengthAdjust="spacingAndGlyphs"
text-anchor="middle" opacity="0">~</text>
</g>
<g class="stroked-text"><desc>~</desc>
<path d="M11.8006 16.5727
L11.7401 16.5122
" />
<path d="M11.7401 16.5122
L11.6797 16.3913
" />
<path d="M11.6797 16.3913
L11.8006 16.1494
" />
<path d="M11.8006 16.1494
L11.7401 16.0284
" />
<path d="M11.7401 16.0284
L11.6797 15.9679
" />
</g></g> 
</svg>
