<?xml version="1.0" standalone="no"?>
 <!DOCTYPE svg PUBLIC "-//W3C//DTD SVG 1.1//EN" 
 "http://www.w3.org/Graphics/SVG/1.1/DTD/svg11.dtd"> 
<svg
  xmlns:svg="http://www.w3.org/2000/svg"
  xmlns="http://www.w3.org/2000/svg"
  xmlns:xlink="http://www.w3.org/1999/xlink"
  version="1.1"
  width="53.3400mm" height="40.3098mm" viewBox="0.0000 0.0000 53.3400 40.3098">
<title>SVG Image created as working.svg date 2023/08/02 11:19:38 </title>
  <desc>Image generated by Eeschema-SVG </desc>
<g style="fill:#000000; fill-opacity:1.0000;stroke:#000000; stroke-opacity:1.0000;
stroke-linecap:round; stroke-linejoin:round;"
 transform="translate(0 0) scale(1 1)">
</g>
<g style="fill:#840000; fill-opacity:0.0; 
stroke:#840000; stroke-width:0.0000; stroke-opacity:1; 
stroke-linecap:round; stroke-linejoin:round;">
</g>
<g style="fill:#FFFFC2; fill-opacity:0.0; 
stroke:#FFFFC2; stroke-width:0.0000; stroke-opacity:1; 
stroke-linecap:round; stroke-linejoin:round;">
</g>
<g style="fill:#FFFFC2; fill-opacity:1.0000; 
stroke:#FFFFC2; stroke-width:0.0000; stroke-opacity:1; 
stroke-linecap:round; stroke-linejoin:round;">
<rect x="8.510000" y="5.463400" width="4.572000" height="27.432000" rx="0.000000" />
</g>
<g style="fill:#840084; fill-opacity:1.0000; 
stroke:#840084; stroke-width:0.0000; stroke-opacity:1; 
stroke-linecap:round; stroke-linejoin:round;">
</g>
<g style="fill:#840000; fill-opacity:1.0000; 
stroke:#840000; stroke-width:0.0000; stroke-opacity:1; 
stroke-linecap:round; stroke-linejoin:round;">
</g>
<g style="fill:#840000; fill-opacity:0.0; 
stroke:#840000; stroke-width:0.1524; stroke-opacity:1; 
stroke-linecap:round; stroke-linejoin:round;">
<rect x="8.256000" y="5.209400" width="5.080000" height="27.940000" rx="0.000000" />
<rect x="8.510000" y="31.752400" width="1.270000" height="0.254000" rx="0.000000" />
<rect x="8.510000" y="29.212400" width="1.270000" height="0.254000" rx="0.000000" />
<rect x="8.510000" y="26.672400" width="1.270000" height="0.254000" rx="0.000000" />
<rect x="8.510000" y="24.132400" width="1.270000" height="0.254000" rx="0.000000" />
<rect x="8.510000" y="21.592400" width="1.270000" height="0.254000" rx="0.000000" />
<rect x="8.510000" y="19.052400" width="1.270000" height="0.254000" rx="0.000000" />
<rect x="8.510000" y="16.512400" width="1.270000" height="0.254000" rx="0.000000" />
<rect x="8.510000" y="13.972400" width="1.270000" height="0.254000" rx="0.000000" />
<rect x="8.510000" y="11.432400" width="1.270000" height="0.254000" rx="0.000000" />
<rect x="8.510000" y="8.892400" width="1.270000" height="0.254000" rx="0.000000" />
<rect x="8.510000" y="6.352400" width="1.270000" height="0.254000" rx="0.000000" />
</g>
<g style="fill:#840000; fill-opacity:0.0; 
stroke:#840000; stroke-width:0.2540; stroke-opacity:1; 
stroke-linecap:round; stroke-linejoin:round;">
<rect x="8.510000" y="5.463400" width="4.572000" height="27.432000" rx="0.000000" />
</g>
<g style="fill:#840000; fill-opacity:0.0; 
stroke:#840000; stroke-width:0.1524; stroke-opacity:1; 
stroke-linecap:round; stroke-linejoin:round;">
<rect x="11.812000" y="31.752400" width="1.270000" height="0.254000" rx="0.000000" />
<rect x="11.812000" y="29.212400" width="1.270000" height="0.254000" rx="0.000000" />
<rect x="11.812000" y="26.672400" width="1.270000" height="0.254000" rx="0.000000" />
<rect x="11.812000" y="24.132400" width="1.270000" height="0.254000" rx="0.000000" />
<rect x="11.812000" y="21.592400" width="1.270000" height="0.254000" rx="0.000000" />
<rect x="11.812000" y="19.052400" width="1.270000" height="0.254000" rx="0.000000" />
<rect x="11.812000" y="16.512400" width="1.270000" height="0.254000" rx="0.000000" />
<rect x="11.812000" y="13.972400" width="1.270000" height="0.254000" rx="0.000000" />
<rect x="11.812000" y="11.432400" width="1.270000" height="0.254000" rx="0.000000" />
<rect x="11.812000" y="8.892400" width="1.270000" height="0.254000" rx="0.000000" />
<rect x="11.812000" y="6.352400" width="1.270000" height="0.254000" rx="0.000000" />
<path d="M10.7960 33.1494
L10.7960 36.9594
" />
</g>
<g style="fill:#A90000; fill-opacity:0.0; 
stroke:#A90000; stroke-width:0.1524; stroke-opacity:1; 
stroke-linecap:round; stroke-linejoin:round;">
<g transform="rotate(-90.000000 10.5420 35.0544)">
<text x="10.5420" y="35.0544"
textLength="2.6670" font-size="1.6933" lengthAdjust="spacingAndGlyphs"
text-anchor="middle" opacity="0">SH</text>
</g>
<g class="stroked-text"><desc>SH</desc>
<path d="M10.3261 36.0824
L10.3865 35.9010
" />
<path d="M10.3865 35.9010
L10.3865 35.5986
" />
<path d="M10.3865 35.5986
L10.3261 35.4777
" />
<path d="M10.3261 35.4777
L10.2656 35.4172
" />
<path d="M10.2656 35.4172
L10.1446 35.3567
" />
<path d="M10.1446 35.3567
L10.0237 35.3567
" />
<path d="M10.0237 35.3567
L9.9027 35.4172
" />
<path d="M9.9027 35.4172
L9.8422 35.4777
" />
<path d="M9.8422 35.4777
L9.7818 35.5986
" />
<path d="M9.7818 35.5986
L9.7213 35.8405
" />
<path d="M9.7213 35.8405
L9.6608 35.9615
" />
<path d="M9.6608 35.9615
L9.6003 36.0220
" />
<path d="M9.6003 36.0220
L9.4794 36.0824
" />
<path d="M9.4794 36.0824
L9.3584 36.0824
" />
<path d="M9.3584 36.0824
L9.2375 36.0220
" />
<path d="M9.2375 36.0220
L9.1770 35.9615
" />
<path d="M9.1770 35.9615
L9.1165 35.8405
" />
<path d="M9.1165 35.8405
L9.1165 35.5382
" />
<path d="M9.1165 35.5382
L9.1770 35.3567
" />
<path d="M10.3865 34.8125
L9.1165 34.8125
" />
<path d="M9.7213 34.8125
L9.7213 34.0868
" />
<path d="M10.3865 34.0868
L9.1165 34.0868
" />
</g></g>
<g style="fill:#840000; fill-opacity:0.0; 
stroke:#840000; stroke-width:0.1524; stroke-opacity:1; 
stroke-linecap:round; stroke-linejoin:round;">
<path d="M8.5100 6.4794
L4.4460 6.4794
" />
</g>
<g style="fill:#A90000; fill-opacity:0.0; 
stroke:#A90000; stroke-width:0.1524; stroke-opacity:1; 
stroke-linecap:round; stroke-linejoin:round;">
<text x="6.4780" y="6.2254"
textLength="2.4855" font-size="1.6933" lengthAdjust="spacingAndGlyphs"
text-anchor="middle" opacity="0">a1</text>
<g class="stroked-text"><desc>a1</desc>
<path d="M6.1454 6.0699
L6.1454 5.4047
" />
<path d="M6.1454 5.4047
L6.0849 5.2837
" />
<path d="M6.0849 5.2837
L5.9640 5.2233
" />
<path d="M5.9640 5.2233
L5.7221 5.2233
" />
<path d="M5.7221 5.2233
L5.6011 5.2837
" />
<path d="M6.1454 6.0095
L6.0245 6.0699
" />
<path d="M6.0245 6.0699
L5.7221 6.0699
" />
<path d="M5.7221 6.0699
L5.6011 6.0095
" />
<path d="M5.6011 6.0095
L5.5407 5.8885
" />
<path d="M5.5407 5.8885
L5.5407 5.7675
" />
<path d="M5.5407 5.7675
L5.6011 5.6466
" />
<path d="M5.6011 5.6466
L5.7221 5.5861
" />
<path d="M5.7221 5.5861
L6.0245 5.5861
" />
<path d="M6.0245 5.5861
L6.1454 5.5256
" />
<path d="M7.4154 6.0699
L6.6897 6.0699
" />
<path d="M7.0525 6.0699
L7.0525 4.7999
" />
<path d="M7.0525 4.7999
L6.9316 4.9814
" />
<path d="M6.9316 4.9814
L6.8106 5.1023
" />
<path d="M6.8106 5.1023
L6.6897 5.1628
" />
</g></g>
<g style="fill:#840000; fill-opacity:0.0; 
stroke:#840000; stroke-width:0.1524; stroke-opacity:1; 
stroke-linecap:round; stroke-linejoin:round;">
<path d="M8.5100 29.3394
L4.4460 29.3394
" />
</g>
<g style="fill:#A90000; fill-opacity:0.0; 
stroke:#A90000; stroke-width:0.1524; stroke-opacity:1; 
stroke-linecap:round; stroke-linejoin:round;">
<text x="6.4780" y="29.0854"
textLength="3.6950" font-size="1.6933" lengthAdjust="spacingAndGlyphs"
text-anchor="middle" opacity="0">a10</text>
<g class="stroked-text"><desc>a10</desc>
<path d="M5.5406 28.9299
L5.5406 28.2647
" />
<path d="M5.5406 28.2647
L5.4801 28.1437
" />
<path d="M5.4801 28.1437
L5.3592 28.0833
" />
<path d="M5.3592 28.0833
L5.1173 28.0833
" />
<path d="M5.1173 28.0833
L4.9963 28.1437
" />
<path d="M5.5406 28.8695
L5.4197 28.9299
" />
<path d="M5.4197 28.9299
L5.1173 28.9299
" />
<path d="M5.1173 28.9299
L4.9963 28.8695
" />
<path d="M4.9963 28.8695
L4.9359 28.7485
" />
<path d="M4.9359 28.7485
L4.9359 28.6275
" />
<path d="M4.9359 28.6275
L4.9963 28.5066
" />
<path d="M4.9963 28.5066
L5.1173 28.4461
" />
<path d="M5.1173 28.4461
L5.4197 28.4461
" />
<path d="M5.4197 28.4461
L5.5406 28.3856
" />
<path d="M6.8106 28.9299
L6.0849 28.9299
" />
<path d="M6.4477 28.9299
L6.4477 27.6599
" />
<path d="M6.4477 27.6599
L6.3268 27.8414
" />
<path d="M6.3268 27.8414
L6.2058 27.9623
" />
<path d="M6.2058 27.9623
L6.0849 28.0228
" />
<path d="M7.5967 27.6599
L7.7177 27.6599
" />
<path d="M7.7177 27.6599
L7.8386 27.7204
" />
<path d="M7.8386 27.7204
L7.8991 27.7809
" />
<path d="M7.8991 27.7809
L7.9596 27.9018
" />
<path d="M7.9596 27.9018
L8.0201 28.1437
" />
<path d="M8.0201 28.1437
L8.0201 28.4461
" />
<path d="M8.0201 28.4461
L7.9596 28.6880
" />
<path d="M7.9596 28.6880
L7.8991 28.8090
" />
<path d="M7.8991 28.8090
L7.8386 28.8695
" />
<path d="M7.8386 28.8695
L7.7177 28.9299
" />
<path d="M7.7177 28.9299
L7.5967 28.9299
" />
<path d="M7.5967 28.9299
L7.4758 28.8695
" />
<path d="M7.4758 28.8695
L7.4153 28.8090
" />
<path d="M7.4153 28.8090
L7.3548 28.6880
" />
<path d="M7.3548 28.6880
L7.2944 28.4461
" />
<path d="M7.2944 28.4461
L7.2944 28.1437
" />
<path d="M7.2944 28.1437
L7.3548 27.9018
" />
<path d="M7.3548 27.9018
L7.4153 27.7809
" />
<path d="M7.4153 27.7809
L7.4758 27.7204
" />
<path d="M7.4758 27.7204
L7.5967 27.6599
" />
</g></g>
<g style="fill:#840000; fill-opacity:0.0; 
stroke:#840000; stroke-width:0.1524; stroke-opacity:1; 
stroke-linecap:round; stroke-linejoin:round;">
<path d="M8.5100 31.8794
L4.4460 31.8794
" />
</g>
<g style="fill:#A90000; fill-opacity:0.0; 
stroke:#A90000; stroke-width:0.1524; stroke-opacity:1; 
stroke-linecap:round; stroke-linejoin:round;">
<text x="6.4780" y="31.6254"
textLength="3.6950" font-size="1.6933" lengthAdjust="spacingAndGlyphs"
text-anchor="middle" opacity="0">a11</text>
<g class="stroked-text"><desc>a11</desc>
<path d="M5.5406 31.4699
L5.5406 30.8047
" />
<path d="M5.5406 30.8047
L5.4801 30.6837
" />
<path d="M5.4801 30.6837
L5.3592 30.6233
" />
<path d="M5.3592 30.6233
L5.1173 30.6233
" />
<path d="M5.1173 30.6233
L4.9963 30.6837
" />
<path d="M5.5406 31.4095
L5.4197 31.4699
" />
<path d="M5.4197 31.4699
L5.1173 31.4699
" />
<path d="M5.1173 31.4699
L4.9963 31.4095
" />
<path d="M4.9963 31.4095
L4.9359 31.2885
" />
<path d="M4.9359 31.2885
L4.9359 31.1675
" />
<path d="M4.9359 31.1675
L4.9963 31.0466
" />
<path d="M4.9963 31.0466
L5.1173 30.9861
" />
<path d="M5.1173 30.9861
L5.4197 30.9861
" />
<path d="M5.4197 30.9861
L5.5406 30.9256
" />
<path d="M6.8106 31.4699
L6.0849 31.4699
" />
<path d="M6.4477 31.4699
L6.4477 30.1999
" />
<path d="M6.4477 30.1999
L6.3268 30.3814
" />
<path d="M6.3268 30.3814
L6.2058 30.5023
" />
<path d="M6.2058 30.5023
L6.0849 30.5628
" />
<path d="M8.0201 31.4699
L7.2944 31.4699
" />
<path d="M7.6572 31.4699
L7.6572 30.1999
" />
<path d="M7.6572 30.1999
L7.5363 30.3814
" />
<path d="M7.5363 30.3814
L7.4153 30.5023
" />
<path d="M7.4153 30.5023
L7.2944 30.5628
" />
</g></g>
<g style="fill:#840000; fill-opacity:0.0; 
stroke:#840000; stroke-width:0.1524; stroke-opacity:1; 
stroke-linecap:round; stroke-linejoin:round;">
<path d="M8.5100 9.0194
L4.4460 9.0194
" />
</g>
<g style="fill:#A90000; fill-opacity:0.0; 
stroke:#A90000; stroke-width:0.1524; stroke-opacity:1; 
stroke-linecap:round; stroke-linejoin:round;">
<text x="6.4780" y="8.7654"
textLength="2.4855" font-size="1.6933" lengthAdjust="spacingAndGlyphs"
text-anchor="middle" opacity="0">a2</text>
<g class="stroked-text"><desc>a2</desc>
<path d="M6.1454 8.6099
L6.1454 7.9447
" />
<path d="M6.1454 7.9447
L6.0849 7.8237
" />
<path d="M6.0849 7.8237
L5.9640 7.7633
" />
<path d="M5.9640 7.7633
L5.7221 7.7633
" />
<path d="M5.7221 7.7633
L5.6011 7.8237
" />
<path d="M6.1454 8.5495
L6.0245 8.6099
" />
<path d="M6.0245 8.6099
L5.7221 8.6099
" />
<path d="M5.7221 8.6099
L5.6011 8.5495
" />
<path d="M5.6011 8.5495
L5.5407 8.4285
" />
<path d="M5.5407 8.4285
L5.5407 8.3075
" />
<path d="M5.5407 8.3075
L5.6011 8.1866
" />
<path d="M5.6011 8.1866
L5.7221 8.1261
" />
<path d="M5.7221 8.1261
L6.0245 8.1261
" />
<path d="M6.0245 8.1261
L6.1454 8.0656
" />
<path d="M6.6897 7.4609
L6.7501 7.4004
" />
<path d="M6.7501 7.4004
L6.8711 7.3399
" />
<path d="M6.8711 7.3399
L7.1735 7.3399
" />
<path d="M7.1735 7.3399
L7.2944 7.4004
" />
<path d="M7.2944 7.4004
L7.3549 7.4609
" />
<path d="M7.3549 7.4609
L7.4154 7.5818
" />
<path d="M7.4154 7.5818
L7.4154 7.7028
" />
<path d="M7.4154 7.7028
L7.3549 7.8842
" />
<path d="M7.3549 7.8842
L6.6292 8.6099
" />
<path d="M6.6292 8.6099
L7.4154 8.6099
" />
</g></g>
<g style="fill:#840000; fill-opacity:0.0; 
stroke:#840000; stroke-width:0.1524; stroke-opacity:1; 
stroke-linecap:round; stroke-linejoin:round;">
<path d="M8.5100 11.5594
L4.4460 11.5594
" />
</g>
<g style="fill:#A90000; fill-opacity:0.0; 
stroke:#A90000; stroke-width:0.1524; stroke-opacity:1; 
stroke-linecap:round; stroke-linejoin:round;">
<text x="6.4780" y="11.3054"
textLength="2.4855" font-size="1.6933" lengthAdjust="spacingAndGlyphs"
text-anchor="middle" opacity="0">a3</text>
<g class="stroked-text"><desc>a3</desc>
<path d="M6.1454 11.1499
L6.1454 10.4847
" />
<path d="M6.1454 10.4847
L6.0849 10.3637
" />
<path d="M6.0849 10.3637
L5.9640 10.3033
" />
<path d="M5.9640 10.3033
L5.7221 10.3033
" />
<path d="M5.7221 10.3033
L5.6011 10.3637
" />
<path d="M6.1454 11.0895
L6.0245 11.1499
" />
<path d="M6.0245 11.1499
L5.7221 11.1499
" />
<path d="M5.7221 11.1499
L5.6011 11.0895
" />
<path d="M5.6011 11.0895
L5.5407 10.9685
" />
<path d="M5.5407 10.9685
L5.5407 10.8475
" />
<path d="M5.5407 10.8475
L5.6011 10.7266
" />
<path d="M5.6011 10.7266
L5.7221 10.6661
" />
<path d="M5.7221 10.6661
L6.0245 10.6661
" />
<path d="M6.0245 10.6661
L6.1454 10.6056
" />
<path d="M6.6292 9.8799
L7.4154 9.8799
" />
<path d="M7.4154 9.8799
L6.9920 10.3637
" />
<path d="M6.9920 10.3637
L7.1735 10.3637
" />
<path d="M7.1735 10.3637
L7.2944 10.4242
" />
<path d="M7.2944 10.4242
L7.3549 10.4847
" />
<path d="M7.3549 10.4847
L7.4154 10.6056
" />
<path d="M7.4154 10.6056
L7.4154 10.9080
" />
<path d="M7.4154 10.9080
L7.3549 11.0290
" />
<path d="M7.3549 11.0290
L7.2944 11.0895
" />
<path d="M7.2944 11.0895
L7.1735 11.1499
" />
<path d="M7.1735 11.1499
L6.8106 11.1499
" />
<path d="M6.8106 11.1499
L6.6897 11.0895
" />
<path d="M6.6897 11.0895
L6.6292 11.0290
" />
</g></g>
<g style="fill:#840000; fill-opacity:0.0; 
stroke:#840000; stroke-width:0.1524; stroke-opacity:1; 
stroke-linecap:round; stroke-linejoin:round;">
<path d="M8.5100 14.0994
L4.4460 14.0994
" />
</g>
<g style="fill:#A90000; fill-opacity:0.0; 
stroke:#A90000; stroke-width:0.1524; stroke-opacity:1; 
stroke-linecap:round; stroke-linejoin:round;">
<text x="6.4780" y="13.8454"
textLength="2.4855" font-size="1.6933" lengthAdjust="spacingAndGlyphs"
text-anchor="middle" opacity="0">a4</text>
<g class="stroked-text"><desc>a4</desc>
<path d="M6.1454 13.6899
L6.1454 13.0247
" />
<path d="M6.1454 13.0247
L6.0849 12.9037
" />
<path d="M6.0849 12.9037
L5.9640 12.8433
" />
<path d="M5.9640 12.8433
L5.7221 12.8433
" />
<path d="M5.7221 12.8433
L5.6011 12.9037
" />
<path d="M6.1454 13.6295
L6.0245 13.6899
" />
<path d="M6.0245 13.6899
L5.7221 13.6899
" />
<path d="M5.7221 13.6899
L5.6011 13.6295
" />
<path d="M5.6011 13.6295
L5.5407 13.5085
" />
<path d="M5.5407 13.5085
L5.5407 13.3875
" />
<path d="M5.5407 13.3875
L5.6011 13.2666
" />
<path d="M5.6011 13.2666
L5.7221 13.2061
" />
<path d="M5.7221 13.2061
L6.0245 13.2061
" />
<path d="M6.0245 13.2061
L6.1454 13.1456
" />
<path d="M7.2944 12.8433
L7.2944 13.6899
" />
<path d="M6.9920 12.3595
L6.6897 13.2666
" />
<path d="M6.6897 13.2666
L7.4758 13.2666
" />
</g></g>
<g style="fill:#840000; fill-opacity:0.0; 
stroke:#840000; stroke-width:0.1524; stroke-opacity:1; 
stroke-linecap:round; stroke-linejoin:round;">
<path d="M8.5100 16.6394
L4.4460 16.6394
" />
</g>
<g style="fill:#A90000; fill-opacity:0.0; 
stroke:#A90000; stroke-width:0.1524; stroke-opacity:1; 
stroke-linecap:round; stroke-linejoin:round;">
<text x="6.4780" y="16.3854"
textLength="2.4855" font-size="1.6933" lengthAdjust="spacingAndGlyphs"
text-anchor="middle" opacity="0">a5</text>
<g class="stroked-text"><desc>a5</desc>
<path d="M6.1454 16.2299
L6.1454 15.5647
" />
<path d="M6.1454 15.5647
L6.0849 15.4437
" />
<path d="M6.0849 15.4437
L5.9640 15.3833
" />
<path d="M5.9640 15.3833
L5.7221 15.3833
" />
<path d="M5.7221 15.3833
L5.6011 15.4437
" />
<path d="M6.1454 16.1695
L6.0245 16.2299
" />
<path d="M6.0245 16.2299
L5.7221 16.2299
" />
<path d="M5.7221 16.2299
L5.6011 16.1695
" />
<path d="M5.6011 16.1695
L5.5407 16.0485
" />
<path d="M5.5407 16.0485
L5.5407 15.9275
" />
<path d="M5.5407 15.9275
L5.6011 15.8066
" />
<path d="M5.6011 15.8066
L5.7221 15.7461
" />
<path d="M5.7221 15.7461
L6.0245 15.7461
" />
<path d="M6.0245 15.7461
L6.1454 15.6856
" />
<path d="M7.3549 14.9599
L6.7501 14.9599
" />
<path d="M6.7501 14.9599
L6.6897 15.5647
" />
<path d="M6.6897 15.5647
L6.7501 15.5042
" />
<path d="M6.7501 15.5042
L6.8711 15.4437
" />
<path d="M6.8711 15.4437
L7.1735 15.4437
" />
<path d="M7.1735 15.4437
L7.2944 15.5042
" />
<path d="M7.2944 15.5042
L7.3549 15.5647
" />
<path d="M7.3549 15.5647
L7.4154 15.6856
" />
<path d="M7.4154 15.6856
L7.4154 15.9880
" />
<path d="M7.4154 15.9880
L7.3549 16.1090
" />
<path d="M7.3549 16.1090
L7.2944 16.1695
" />
<path d="M7.2944 16.1695
L7.1735 16.2299
" />
<path d="M7.1735 16.2299
L6.8711 16.2299
" />
<path d="M6.8711 16.2299
L6.7501 16.1695
" />
<path d="M6.7501 16.1695
L6.6897 16.1090
" />
</g></g>
<g style="fill:#840000; fill-opacity:0.0; 
stroke:#840000; stroke-width:0.1524; stroke-opacity:1; 
stroke-linecap:round; stroke-linejoin:round;">
<path d="M8.5100 19.1794
L4.4460 19.1794
" />
</g>
<g style="fill:#A90000; fill-opacity:0.0; 
stroke:#A90000; stroke-width:0.1524; stroke-opacity:1; 
stroke-linecap:round; stroke-linejoin:round;">
<text x="6.4780" y="18.9254"
textLength="2.4855" font-size="1.6933" lengthAdjust="spacingAndGlyphs"
text-anchor="middle" opacity="0">a6</text>
<g class="stroked-text"><desc>a6</desc>
<path d="M6.1454 18.7699
L6.1454 18.1047
" />
<path d="M6.1454 18.1047
L6.0849 17.9837
" />
<path d="M6.0849 17.9837
L5.9640 17.9233
" />
<path d="M5.9640 17.9233
L5.7221 17.9233
" />
<path d="M5.7221 17.9233
L5.6011 17.9837
" />
<path d="M6.1454 18.7095
L6.0245 18.7699
" />
<path d="M6.0245 18.7699
L5.7221 18.7699
" />
<path d="M5.7221 18.7699
L5.6011 18.7095
" />
<path d="M5.6011 18.7095
L5.5407 18.5885
" />
<path d="M5.5407 18.5885
L5.5407 18.4675
" />
<path d="M5.5407 18.4675
L5.6011 18.3466
" />
<path d="M5.6011 18.3466
L5.7221 18.2861
" />
<path d="M5.7221 18.2861
L6.0245 18.2861
" />
<path d="M6.0245 18.2861
L6.1454 18.2256
" />
<path d="M7.2944 17.4999
L7.0525 17.4999
" />
<path d="M7.0525 17.4999
L6.9316 17.5604
" />
<path d="M6.9316 17.5604
L6.8711 17.6209
" />
<path d="M6.8711 17.6209
L6.7501 17.8023
" />
<path d="M6.7501 17.8023
L6.6897 18.0442
" />
<path d="M6.6897 18.0442
L6.6897 18.5280
" />
<path d="M6.6897 18.5280
L6.7501 18.6490
" />
<path d="M6.7501 18.6490
L6.8106 18.7095
" />
<path d="M6.8106 18.7095
L6.9316 18.7699
" />
<path d="M6.9316 18.7699
L7.1735 18.7699
" />
<path d="M7.1735 18.7699
L7.2944 18.7095
" />
<path d="M7.2944 18.7095
L7.3549 18.6490
" />
<path d="M7.3549 18.6490
L7.4154 18.5280
" />
<path d="M7.4154 18.5280
L7.4154 18.2256
" />
<path d="M7.4154 18.2256
L7.3549 18.1047
" />
<path d="M7.3549 18.1047
L7.2944 18.0442
" />
<path d="M7.2944 18.0442
L7.1735 17.9837
" />
<path d="M7.1735 17.9837
L6.9316 17.9837
" />
<path d="M6.9316 17.9837
L6.8106 18.0442
" />
<path d="M6.8106 18.0442
L6.7501 18.1047
" />
<path d="M6.7501 18.1047
L6.6897 18.2256
" />
</g></g>
<g style="fill:#840000; fill-opacity:0.0; 
stroke:#840000; stroke-width:0.1524; stroke-opacity:1; 
stroke-linecap:round; stroke-linejoin:round;">
<path d="M8.5100 21.7194
L4.4460 21.7194
" />
</g>
<g style="fill:#A90000; fill-opacity:0.0; 
stroke:#A90000; stroke-width:0.1524; stroke-opacity:1; 
stroke-linecap:round; stroke-linejoin:round;">
<text x="6.4780" y="21.4654"
textLength="2.4855" font-size="1.6933" lengthAdjust="spacingAndGlyphs"
text-anchor="middle" opacity="0">a7</text>
<g class="stroked-text"><desc>a7</desc>
<path d="M6.1454 21.3099
L6.1454 20.6447
" />
<path d="M6.1454 20.6447
L6.0849 20.5237
" />
<path d="M6.0849 20.5237
L5.9640 20.4633
" />
<path d="M5.9640 20.4633
L5.7221 20.4633
" />
<path d="M5.7221 20.4633
L5.6011 20.5237
" />
<path d="M6.1454 21.2495
L6.0245 21.3099
" />
<path d="M6.0245 21.3099
L5.7221 21.3099
" />
<path d="M5.7221 21.3099
L5.6011 21.2495
" />
<path d="M5.6011 21.2495
L5.5407 21.1285
" />
<path d="M5.5407 21.1285
L5.5407 21.0075
" />
<path d="M5.5407 21.0075
L5.6011 20.8866
" />
<path d="M5.6011 20.8866
L5.7221 20.8261
" />
<path d="M5.7221 20.8261
L6.0245 20.8261
" />
<path d="M6.0245 20.8261
L6.1454 20.7656
" />
<path d="M6.6292 20.0399
L7.4758 20.0399
" />
<path d="M7.4758 20.0399
L6.9316 21.3099
" />
</g></g>
<g style="fill:#840000; fill-opacity:0.0; 
stroke:#840000; stroke-width:0.1524; stroke-opacity:1; 
stroke-linecap:round; stroke-linejoin:round;">
<path d="M8.5100 24.2594
L4.4460 24.2594
" />
</g>
<g style="fill:#A90000; fill-opacity:0.0; 
stroke:#A90000; stroke-width:0.1524; stroke-opacity:1; 
stroke-linecap:round; stroke-linejoin:round;">
<text x="6.4780" y="24.0054"
textLength="2.4855" font-size="1.6933" lengthAdjust="spacingAndGlyphs"
text-anchor="middle" opacity="0">a8</text>
<g class="stroked-text"><desc>a8</desc>
<path d="M6.1454 23.8499
L6.1454 23.1847
" />
<path d="M6.1454 23.1847
L6.0849 23.0637
" />
<path d="M6.0849 23.0637
L5.9640 23.0033
" />
<path d="M5.9640 23.0033
L5.7221 23.0033
" />
<path d="M5.7221 23.0033
L5.6011 23.0637
" />
<path d="M6.1454 23.7895
L6.0245 23.8499
" />
<path d="M6.0245 23.8499
L5.7221 23.8499
" />
<path d="M5.7221 23.8499
L5.6011 23.7895
" />
<path d="M5.6011 23.7895
L5.5407 23.6685
" />
<path d="M5.5407 23.6685
L5.5407 23.5475
" />
<path d="M5.5407 23.5475
L5.6011 23.4266
" />
<path d="M5.6011 23.4266
L5.7221 23.3661
" />
<path d="M5.7221 23.3661
L6.0245 23.3661
" />
<path d="M6.0245 23.3661
L6.1454 23.3056
" />
<path d="M6.9316 23.1242
L6.8106 23.0637
" />
<path d="M6.8106 23.0637
L6.7501 23.0033
" />
<path d="M6.7501 23.0033
L6.6897 22.8823
" />
<path d="M6.6897 22.8823
L6.6897 22.8218
" />
<path d="M6.6897 22.8218
L6.7501 22.7009
" />
<path d="M6.7501 22.7009
L6.8106 22.6404
" />
<path d="M6.8106 22.6404
L6.9316 22.5799
" />
<path d="M6.9316 22.5799
L7.1735 22.5799
" />
<path d="M7.1735 22.5799
L7.2944 22.6404
" />
<path d="M7.2944 22.6404
L7.3549 22.7009
" />
<path d="M7.3549 22.7009
L7.4154 22.8218
" />
<path d="M7.4154 22.8218
L7.4154 22.8823
" />
<path d="M7.4154 22.8823
L7.3549 23.0033
" />
<path d="M7.3549 23.0033
L7.2944 23.0637
" />
<path d="M7.2944 23.0637
L7.1735 23.1242
" />
<path d="M7.1735 23.1242
L6.9316 23.1242
" />
<path d="M6.9316 23.1242
L6.8106 23.1847
" />
<path d="M6.8106 23.1847
L6.7501 23.2452
" />
<path d="M6.7501 23.2452
L6.6897 23.3661
" />
<path d="M6.6897 23.3661
L6.6897 23.6080
" />
<path d="M6.6897 23.6080
L6.7501 23.7290
" />
<path d="M6.7501 23.7290
L6.8106 23.7895
" />
<path d="M6.8106 23.7895
L6.9316 23.8499
" />
<path d="M6.9316 23.8499
L7.1735 23.8499
" />
<path d="M7.1735 23.8499
L7.2944 23.7895
" />
<path d="M7.2944 23.7895
L7.3549 23.7290
" />
<path d="M7.3549 23.7290
L7.4154 23.6080
" />
<path d="M7.4154 23.6080
L7.4154 23.3661
" />
<path d="M7.4154 23.3661
L7.3549 23.2452
" />
<path d="M7.3549 23.2452
L7.2944 23.1847
" />
<path d="M7.2944 23.1847
L7.1735 23.1242
" />
</g></g>
<g style="fill:#840000; fill-opacity:0.0; 
stroke:#840000; stroke-width:0.1524; stroke-opacity:1; 
stroke-linecap:round; stroke-linejoin:round;">
<path d="M8.5100 26.7994
L4.4460 26.7994
" />
</g>
<g style="fill:#A90000; fill-opacity:0.0; 
stroke:#A90000; stroke-width:0.1524; stroke-opacity:1; 
stroke-linecap:round; stroke-linejoin:round;">
<text x="6.4780" y="26.5454"
textLength="2.4855" font-size="1.6933" lengthAdjust="spacingAndGlyphs"
text-anchor="middle" opacity="0">a9</text>
<g class="stroked-text"><desc>a9</desc>
<path d="M6.1454 26.3899
L6.1454 25.7247
" />
<path d="M6.1454 25.7247
L6.0849 25.6037
" />
<path d="M6.0849 25.6037
L5.9640 25.5433
" />
<path d="M5.9640 25.5433
L5.7221 25.5433
" />
<path d="M5.7221 25.5433
L5.6011 25.6037
" />
<path d="M6.1454 26.3295
L6.0245 26.3899
" />
<path d="M6.0245 26.3899
L5.7221 26.3899
" />
<path d="M5.7221 26.3899
L5.6011 26.3295
" />
<path d="M5.6011 26.3295
L5.5407 26.2085
" />
<path d="M5.5407 26.2085
L5.5407 26.0875
" />
<path d="M5.5407 26.0875
L5.6011 25.9666
" />
<path d="M5.6011 25.9666
L5.7221 25.9061
" />
<path d="M5.7221 25.9061
L6.0245 25.9061
" />
<path d="M6.0245 25.9061
L6.1454 25.8456
" />
<path d="M6.8106 26.3899
L7.0525 26.3899
" />
<path d="M7.0525 26.3899
L7.1735 26.3295
" />
<path d="M7.1735 26.3295
L7.2339 26.2690
" />
<path d="M7.2339 26.2690
L7.3549 26.0875
" />
<path d="M7.3549 26.0875
L7.4154 25.8456
" />
<path d="M7.4154 25.8456
L7.4154 25.3618
" />
<path d="M7.4154 25.3618
L7.3549 25.2409
" />
<path d="M7.3549 25.2409
L7.2944 25.1804
" />
<path d="M7.2944 25.1804
L7.1735 25.1199
" />
<path d="M7.1735 25.1199
L6.9316 25.1199
" />
<path d="M6.9316 25.1199
L6.8106 25.1804
" />
<path d="M6.8106 25.1804
L6.7501 25.2409
" />
<path d="M6.7501 25.2409
L6.6897 25.3618
" />
<path d="M6.6897 25.3618
L6.6897 25.6642
" />
<path d="M6.6897 25.6642
L6.7501 25.7852
" />
<path d="M6.7501 25.7852
L6.8106 25.8456
" />
<path d="M6.8106 25.8456
L6.9316 25.9061
" />
<path d="M6.9316 25.9061
L7.1735 25.9061
" />
<path d="M7.1735 25.9061
L7.2944 25.8456
" />
<path d="M7.2944 25.8456
L7.3549 25.7852
" />
<path d="M7.3549 25.7852
L7.4154 25.6642
" />
</g></g>
<g style="fill:#840000; fill-opacity:0.0; 
stroke:#840000; stroke-width:0.1524; stroke-opacity:1; 
stroke-linecap:round; stroke-linejoin:round;">
<path d="M13.0820 6.4794
L17.1460 6.4794
" />
</g>
<g style="fill:#A90000; fill-opacity:0.0; 
stroke:#A90000; stroke-width:0.1524; stroke-opacity:1; 
stroke-linecap:round; stroke-linejoin:round;">
<text x="15.1140" y="6.2254"
textLength="2.4855" font-size="1.6933" lengthAdjust="spacingAndGlyphs"
text-anchor="middle" opacity="0">b1</text>
<g class="stroked-text"><desc>b1</desc>
<path d="M14.2371 6.0699
L14.2371 4.7999
" />
<path d="M14.2371 5.2837
L14.3581 5.2233
" />
<path d="M14.3581 5.2233
L14.6000 5.2233
" />
<path d="M14.6000 5.2233
L14.7209 5.2837
" />
<path d="M14.7209 5.2837
L14.7814 5.3442
" />
<path d="M14.7814 5.3442
L14.8419 5.4652
" />
<path d="M14.8419 5.4652
L14.8419 5.8280
" />
<path d="M14.8419 5.8280
L14.7814 5.9490
" />
<path d="M14.7814 5.9490
L14.7209 6.0095
" />
<path d="M14.7209 6.0095
L14.6000 6.0699
" />
<path d="M14.6000 6.0699
L14.3581 6.0699
" />
<path d="M14.3581 6.0699
L14.2371 6.0095
" />
<path d="M16.0514 6.0699
L15.3257 6.0699
" />
<path d="M15.6885 6.0699
L15.6885 4.7999
" />
<path d="M15.6885 4.7999
L15.5676 4.9814
" />
<path d="M15.5676 4.9814
L15.4466 5.1023
" />
<path d="M15.4466 5.1023
L15.3257 5.1628
" />
</g></g>
<g style="fill:#840000; fill-opacity:0.0; 
stroke:#840000; stroke-width:0.1524; stroke-opacity:1; 
stroke-linecap:round; stroke-linejoin:round;">
<path d="M13.0820 29.3394
L17.1460 29.3394
" />
</g>
<g style="fill:#A90000; fill-opacity:0.0; 
stroke:#A90000; stroke-width:0.1524; stroke-opacity:1; 
stroke-linecap:round; stroke-linejoin:round;">
<text x="15.1140" y="29.0854"
textLength="3.6950" font-size="1.6933" lengthAdjust="spacingAndGlyphs"
text-anchor="middle" opacity="0">b10</text>
<g class="stroked-text"><desc>b10</desc>
<path d="M13.6323 28.9299
L13.6323 27.6599
" />
<path d="M13.6323 28.1437
L13.7533 28.0833
" />
<path d="M13.7533 28.0833
L13.9952 28.0833
" />
<path d="M13.9952 28.0833
L14.1161 28.1437
" />
<path d="M14.1161 28.1437
L14.1766 28.2042
" />
<path d="M14.1766 28.2042
L14.2371 28.3252
" />
<path d="M14.2371 28.3252
L14.2371 28.6880
" />
<path d="M14.2371 28.6880
L14.1766 28.8090
" />
<path d="M14.1766 28.8090
L14.1161 28.8695
" />
<path d="M14.1161 28.8695
L13.9952 28.9299
" />
<path d="M13.9952 28.9299
L13.7533 28.9299
" />
<path d="M13.7533 28.9299
L13.6323 28.8695
" />
<path d="M15.4466 28.9299
L14.7209 28.9299
" />
<path d="M15.0837 28.9299
L15.0837 27.6599
" />
<path d="M15.0837 27.6599
L14.9628 27.8414
" />
<path d="M14.9628 27.8414
L14.8418 27.9623
" />
<path d="M14.8418 27.9623
L14.7209 28.0228
" />
<path d="M16.2327 27.6599
L16.3537 27.6599
" />
<path d="M16.3537 27.6599
L16.4746 27.7204
" />
<path d="M16.4746 27.7204
L16.5351 27.7809
" />
<path d="M16.5351 27.7809
L16.5956 27.9018
" />
<path d="M16.5956 27.9018
L16.6561 28.1437
" />
<path d="M16.6561 28.1437
L16.6561 28.4461
" />
<path d="M16.6561 28.4461
L16.5956 28.6880
" />
<path d="M16.5956 28.6880
L16.5351 28.8090
" />
<path d="M16.5351 28.8090
L16.4746 28.8695
" />
<path d="M16.4746 28.8695
L16.3537 28.9299
" />
<path d="M16.3537 28.9299
L16.2327 28.9299
" />
<path d="M16.2327 28.9299
L16.1118 28.8695
" />
<path d="M16.1118 28.8695
L16.0513 28.8090
" />
<path d="M16.0513 28.8090
L15.9908 28.6880
" />
<path d="M15.9908 28.6880
L15.9304 28.4461
" />
<path d="M15.9304 28.4461
L15.9304 28.1437
" />
<path d="M15.9304 28.1437
L15.9908 27.9018
" />
<path d="M15.9908 27.9018
L16.0513 27.7809
" />
<path d="M16.0513 27.7809
L16.1118 27.7204
" />
<path d="M16.1118 27.7204
L16.2327 27.6599
" />
</g></g>
<g style="fill:#840000; fill-opacity:0.0; 
stroke:#840000; stroke-width:0.1524; stroke-opacity:1; 
stroke-linecap:round; stroke-linejoin:round;">
<path d="M13.0820 31.8794
L17.1460 31.8794
" />
</g>
<g style="fill:#A90000; fill-opacity:0.0; 
stroke:#A90000; stroke-width:0.1524; stroke-opacity:1; 
stroke-linecap:round; stroke-linejoin:round;">
<text x="15.1140" y="31.6254"
textLength="3.6950" font-size="1.6933" lengthAdjust="spacingAndGlyphs"
text-anchor="middle" opacity="0">b11</text>
<g class="stroked-text"><desc>b11</desc>
<path d="M13.6323 31.4699
L13.6323 30.1999
" />
<path d="M13.6323 30.6837
L13.7533 30.6233
" />
<path d="M13.7533 30.6233
L13.9952 30.6233
" />
<path d="M13.9952 30.6233
L14.1161 30.6837
" />
<path d="M14.1161 30.6837
L14.1766 30.7442
" />
<path d="M14.1766 30.7442
L14.2371 30.8652
" />
<path d="M14.2371 30.8652
L14.2371 31.2280
" />
<path d="M14.2371 31.2280
L14.1766 31.3490
" />
<path d="M14.1766 31.3490
L14.1161 31.4095
" />
<path d="M14.1161 31.4095
L13.9952 31.4699
" />
<path d="M13.9952 31.4699
L13.7533 31.4699
" />
<path d="M13.7533 31.4699
L13.6323 31.4095
" />
<path d="M15.4466 31.4699
L14.7209 31.4699
" />
<path d="M15.0837 31.4699
L15.0837 30.1999
" />
<path d="M15.0837 30.1999
L14.9628 30.3814
" />
<path d="M14.9628 30.3814
L14.8418 30.5023
" />
<path d="M14.8418 30.5023
L14.7209 30.5628
" />
<path d="M16.6561 31.4699
L15.9304 31.4699
" />
<path d="M16.2932 31.4699
L16.2932 30.1999
" />
<path d="M16.2932 30.1999
L16.1723 30.3814
" />
<path d="M16.1723 30.3814
L16.0513 30.5023
" />
<path d="M16.0513 30.5023
L15.9304 30.5628
" />
</g></g>
<g style="fill:#840000; fill-opacity:0.0; 
stroke:#840000; stroke-width:0.1524; stroke-opacity:1; 
stroke-linecap:round; stroke-linejoin:round;">
<path d="M13.0820 9.0194
L17.1460 9.0194
" />
</g>
<g style="fill:#A90000; fill-opacity:0.0; 
stroke:#A90000; stroke-width:0.1524; stroke-opacity:1; 
stroke-linecap:round; stroke-linejoin:round;">
<text x="15.1140" y="8.7654"
textLength="2.4855" font-size="1.6933" lengthAdjust="spacingAndGlyphs"
text-anchor="middle" opacity="0">b2</text>
<g class="stroked-text"><desc>b2</desc>
<path d="M14.2371 8.6099
L14.2371 7.3399
" />
<path d="M14.2371 7.8237
L14.3581 7.7633
" />
<path d="M14.3581 7.7633
L14.6000 7.7633
" />
<path d="M14.6000 7.7633
L14.7209 7.8237
" />
<path d="M14.7209 7.8237
L14.7814 7.8842
" />
<path d="M14.7814 7.8842
L14.8419 8.0052
" />
<path d="M14.8419 8.0052
L14.8419 8.3680
" />
<path d="M14.8419 8.3680
L14.7814 8.4890
" />
<path d="M14.7814 8.4890
L14.7209 8.5495
" />
<path d="M14.7209 8.5495
L14.6000 8.6099
" />
<path d="M14.6000 8.6099
L14.3581 8.6099
" />
<path d="M14.3581 8.6099
L14.2371 8.5495
" />
<path d="M15.3257 7.4609
L15.3861 7.4004
" />
<path d="M15.3861 7.4004
L15.5071 7.3399
" />
<path d="M15.5071 7.3399
L15.8095 7.3399
" />
<path d="M15.8095 7.3399
L15.9304 7.4004
" />
<path d="M15.9304 7.4004
L15.9909 7.4609
" />
<path d="M15.9909 7.4609
L16.0514 7.5818
" />
<path d="M16.0514 7.5818
L16.0514 7.7028
" />
<path d="M16.0514 7.7028
L15.9909 7.8842
" />
<path d="M15.9909 7.8842
L15.2652 8.6099
" />
<path d="M15.2652 8.6099
L16.0514 8.6099
" />
</g></g>
<g style="fill:#840000; fill-opacity:0.0; 
stroke:#840000; stroke-width:0.1524; stroke-opacity:1; 
stroke-linecap:round; stroke-linejoin:round;">
<path d="M13.0820 11.5594
L17.1460 11.5594
" />
</g>
<g style="fill:#A90000; fill-opacity:0.0; 
stroke:#A90000; stroke-width:0.1524; stroke-opacity:1; 
stroke-linecap:round; stroke-linejoin:round;">
<text x="15.1140" y="11.3054"
textLength="2.4855" font-size="1.6933" lengthAdjust="spacingAndGlyphs"
text-anchor="middle" opacity="0">b3</text>
<g class="stroked-text"><desc>b3</desc>
<path d="M14.2371 11.1499
L14.2371 9.8799
" />
<path d="M14.2371 10.3637
L14.3581 10.3033
" />
<path d="M14.3581 10.3033
L14.6000 10.3033
" />
<path d="M14.6000 10.3033
L14.7209 10.3637
" />
<path d="M14.7209 10.3637
L14.7814 10.4242
" />
<path d="M14.7814 10.4242
L14.8419 10.5452
" />
<path d="M14.8419 10.5452
L14.8419 10.9080
" />
<path d="M14.8419 10.9080
L14.7814 11.0290
" />
<path d="M14.7814 11.0290
L14.7209 11.0895
" />
<path d="M14.7209 11.0895
L14.6000 11.1499
" />
<path d="M14.6000 11.1499
L14.3581 11.1499
" />
<path d="M14.3581 11.1499
L14.2371 11.0895
" />
<path d="M15.2652 9.8799
L16.0514 9.8799
" />
<path d="M16.0514 9.8799
L15.6280 10.3637
" />
<path d="M15.6280 10.3637
L15.8095 10.3637
" />
<path d="M15.8095 10.3637
L15.9304 10.4242
" />
<path d="M15.9304 10.4242
L15.9909 10.4847
" />
<path d="M15.9909 10.4847
L16.0514 10.6056
" />
<path d="M16.0514 10.6056
L16.0514 10.9080
" />
<path d="M16.0514 10.9080
L15.9909 11.0290
" />
<path d="M15.9909 11.0290
L15.9304 11.0895
" />
<path d="M15.9304 11.0895
L15.8095 11.1499
" />
<path d="M15.8095 11.1499
L15.4466 11.1499
" />
<path d="M15.4466 11.1499
L15.3257 11.0895
" />
<path d="M15.3257 11.0895
L15.2652 11.0290
" />
</g></g>
<g style="fill:#840000; fill-opacity:0.0; 
stroke:#840000; stroke-width:0.1524; stroke-opacity:1; 
stroke-linecap:round; stroke-linejoin:round;">
<path d="M13.0820 14.0994
L17.1460 14.0994
" />
</g>
<g style="fill:#A90000; fill-opacity:0.0; 
stroke:#A90000; stroke-width:0.1524; stroke-opacity:1; 
stroke-linecap:round; stroke-linejoin:round;">
<text x="15.1140" y="13.8454"
textLength="2.4855" font-size="1.6933" lengthAdjust="spacingAndGlyphs"
text-anchor="middle" opacity="0">b4</text>
<g class="stroked-text"><desc>b4</desc>
<path d="M14.2371 13.6899
L14.2371 12.4199
" />
<path d="M14.2371 12.9037
L14.3581 12.8433
" />
<path d="M14.3581 12.8433
L14.6000 12.8433
" />
<path d="M14.6000 12.8433
L14.7209 12.9037
" />
<path d="M14.7209 12.9037
L14.7814 12.9642
" />
<path d="M14.7814 12.9642
L14.8419 13.0852
" />
<path d="M14.8419 13.0852
L14.8419 13.4480
" />
<path d="M14.8419 13.4480
L14.7814 13.5690
" />
<path d="M14.7814 13.5690
L14.7209 13.6295
" />
<path d="M14.7209 13.6295
L14.6000 13.6899
" />
<path d="M14.6000 13.6899
L14.3581 13.6899
" />
<path d="M14.3581 13.6899
L14.2371 13.6295
" />
<path d="M15.9304 12.8433
L15.9304 13.6899
" />
<path d="M15.6280 12.3595
L15.3257 13.2666
" />
<path d="M15.3257 13.2666
L16.1118 13.2666
" />
</g></g>
<g style="fill:#840000; fill-opacity:0.0; 
stroke:#840000; stroke-width:0.1524; stroke-opacity:1; 
stroke-linecap:round; stroke-linejoin:round;">
<path d="M13.0820 16.6394
L17.1460 16.6394
" />
</g>
<g style="fill:#A90000; fill-opacity:0.0; 
stroke:#A90000; stroke-width:0.1524; stroke-opacity:1; 
stroke-linecap:round; stroke-linejoin:round;">
<text x="15.1140" y="16.3854"
textLength="2.4855" font-size="1.6933" lengthAdjust="spacingAndGlyphs"
text-anchor="middle" opacity="0">b5</text>
<g class="stroked-text"><desc>b5</desc>
<path d="M14.2371 16.2299
L14.2371 14.9599
" />
<path d="M14.2371 15.4437
L14.3581 15.3833
" />
<path d="M14.3581 15.3833
L14.6000 15.3833
" />
<path d="M14.6000 15.3833
L14.7209 15.4437
" />
<path d="M14.7209 15.4437
L14.7814 15.5042
" />
<path d="M14.7814 15.5042
L14.8419 15.6252
" />
<path d="M14.8419 15.6252
L14.8419 15.9880
" />
<path d="M14.8419 15.9880
L14.7814 16.1090
" />
<path d="M14.7814 16.1090
L14.7209 16.1695
" />
<path d="M14.7209 16.1695
L14.6000 16.2299
" />
<path d="M14.6000 16.2299
L14.3581 16.2299
" />
<path d="M14.3581 16.2299
L14.2371 16.1695
" />
<path d="M15.9909 14.9599
L15.3861 14.9599
" />
<path d="M15.3861 14.9599
L15.3257 15.5647
" />
<path d="M15.3257 15.5647
L15.3861 15.5042
" />
<path d="M15.3861 15.5042
L15.5071 15.4437
" />
<path d="M15.5071 15.4437
L15.8095 15.4437
" />
<path d="M15.8095 15.4437
L15.9304 15.5042
" />
<path d="M15.9304 15.5042
L15.9909 15.5647
" />
<path d="M15.9909 15.5647
L16.0514 15.6856
" />
<path d="M16.0514 15.6856
L16.0514 15.9880
" />
<path d="M16.0514 15.9880
L15.9909 16.1090
" />
<path d="M15.9909 16.1090
L15.9304 16.1695
" />
<path d="M15.9304 16.1695
L15.8095 16.2299
" />
<path d="M15.8095 16.2299
L15.5071 16.2299
" />
<path d="M15.5071 16.2299
L15.3861 16.1695
" />
<path d="M15.3861 16.1695
L15.3257 16.1090
" />
</g></g>
<g style="fill:#840000; fill-opacity:0.0; 
stroke:#840000; stroke-width:0.1524; stroke-opacity:1; 
stroke-linecap:round; stroke-linejoin:round;">
<path d="M13.0820 19.1794
L17.1460 19.1794
" />
</g>
<g style="fill:#A90000; fill-opacity:0.0; 
stroke:#A90000; stroke-width:0.1524; stroke-opacity:1; 
stroke-linecap:round; stroke-linejoin:round;">
<text x="15.1140" y="18.9254"
textLength="2.4855" font-size="1.6933" lengthAdjust="spacingAndGlyphs"
text-anchor="middle" opacity="0">b6</text>
<g class="stroked-text"><desc>b6</desc>
<path d="M14.2371 18.7699
L14.2371 17.4999
" />
<path d="M14.2371 17.9837
L14.3581 17.9233
" />
<path d="M14.3581 17.9233
L14.6000 17.9233
" />
<path d="M14.6000 17.9233
L14.7209 17.9837
" />
<path d="M14.7209 17.9837
L14.7814 18.0442
" />
<path d="M14.7814 18.0442
L14.8419 18.1652
" />
<path d="M14.8419 18.1652
L14.8419 18.5280
" />
<path d="M14.8419 18.5280
L14.7814 18.6490
" />
<path d="M14.7814 18.6490
L14.7209 18.7095
" />
<path d="M14.7209 18.7095
L14.6000 18.7699
" />
<path d="M14.6000 18.7699
L14.3581 18.7699
" />
<path d="M14.3581 18.7699
L14.2371 18.7095
" />
<path d="M15.9304 17.4999
L15.6885 17.4999
" />
<path d="M15.6885 17.4999
L15.5676 17.5604
" />
<path d="M15.5676 17.5604
L15.5071 17.6209
" />
<path d="M15.5071 17.6209
L15.3861 17.8023
" />
<path d="M15.3861 17.8023
L15.3257 18.0442
" />
<path d="M15.3257 18.0442
L15.3257 18.5280
" />
<path d="M15.3257 18.5280
L15.3861 18.6490
" />
<path d="M15.3861 18.6490
L15.4466 18.7095
" />
<path d="M15.4466 18.7095
L15.5676 18.7699
" />
<path d="M15.5676 18.7699
L15.8095 18.7699
" />
<path d="M15.8095 18.7699
L15.9304 18.7095
" />
<path d="M15.9304 18.7095
L15.9909 18.6490
" />
<path d="M15.9909 18.6490
L16.0514 18.5280
" />
<path d="M16.0514 18.5280
L16.0514 18.2256
" />
<path d="M16.0514 18.2256
L15.9909 18.1047
" />
<path d="M15.9909 18.1047
L15.9304 18.0442
" />
<path d="M15.9304 18.0442
L15.8095 17.9837
" />
<path d="M15.8095 17.9837
L15.5676 17.9837
" />
<path d="M15.5676 17.9837
L15.4466 18.0442
" />
<path d="M15.4466 18.0442
L15.3861 18.1047
" />
<path d="M15.3861 18.1047
L15.3257 18.2256
" />
</g></g>
<g style="fill:#840000; fill-opacity:0.0; 
stroke:#840000; stroke-width:0.1524; stroke-opacity:1; 
stroke-linecap:round; stroke-linejoin:round;">
<path d="M13.0820 21.7194
L17.1460 21.7194
" />
</g>
<g style="fill:#A90000; fill-opacity:0.0; 
stroke:#A90000; stroke-width:0.1524; stroke-opacity:1; 
stroke-linecap:round; stroke-linejoin:round;">
<text x="15.1140" y="21.4654"
textLength="2.4855" font-size="1.6933" lengthAdjust="spacingAndGlyphs"
text-anchor="middle" opacity="0">b7</text>
<g class="stroked-text"><desc>b7</desc>
<path d="M14.2371 21.3099
L14.2371 20.0399
" />
<path d="M14.2371 20.5237
L14.3581 20.4633
" />
<path d="M14.3581 20.4633
L14.6000 20.4633
" />
<path d="M14.6000 20.4633
L14.7209 20.5237
" />
<path d="M14.7209 20.5237
L14.7814 20.5842
" />
<path d="M14.7814 20.5842
L14.8419 20.7052
" />
<path d="M14.8419 20.7052
L14.8419 21.0680
" />
<path d="M14.8419 21.0680
L14.7814 21.1890
" />
<path d="M14.7814 21.1890
L14.7209 21.2495
" />
<path d="M14.7209 21.2495
L14.6000 21.3099
" />
<path d="M14.6000 21.3099
L14.3581 21.3099
" />
<path d="M14.3581 21.3099
L14.2371 21.2495
" />
<path d="M15.2652 20.0399
L16.1118 20.0399
" />
<path d="M16.1118 20.0399
L15.5676 21.3099
" />
</g></g>
<g style="fill:#840000; fill-opacity:0.0; 
stroke:#840000; stroke-width:0.1524; stroke-opacity:1; 
stroke-linecap:round; stroke-linejoin:round;">
<path d="M13.0820 24.2594
L17.1460 24.2594
" />
</g>
<g style="fill:#A90000; fill-opacity:0.0; 
stroke:#A90000; stroke-width:0.1524; stroke-opacity:1; 
stroke-linecap:round; stroke-linejoin:round;">
<text x="15.1140" y="24.0054"
textLength="2.4855" font-size="1.6933" lengthAdjust="spacingAndGlyphs"
text-anchor="middle" opacity="0">b8</text>
<g class="stroked-text"><desc>b8</desc>
<path d="M14.2371 23.8499
L14.2371 22.5799
" />
<path d="M14.2371 23.0637
L14.3581 23.0033
" />
<path d="M14.3581 23.0033
L14.6000 23.0033
" />
<path d="M14.6000 23.0033
L14.7209 23.0637
" />
<path d="M14.7209 23.0637
L14.7814 23.1242
" />
<path d="M14.7814 23.1242
L14.8419 23.2452
" />
<path d="M14.8419 23.2452
L14.8419 23.6080
" />
<path d="M14.8419 23.6080
L14.7814 23.7290
" />
<path d="M14.7814 23.7290
L14.7209 23.7895
" />
<path d="M14.7209 23.7895
L14.6000 23.8499
" />
<path d="M14.6000 23.8499
L14.3581 23.8499
" />
<path d="M14.3581 23.8499
L14.2371 23.7895
" />
<path d="M15.5676 23.1242
L15.4466 23.0637
" />
<path d="M15.4466 23.0637
L15.3861 23.0033
" />
<path d="M15.3861 23.0033
L15.3257 22.8823
" />
<path d="M15.3257 22.8823
L15.3257 22.8218
" />
<path d="M15.3257 22.8218
L15.3861 22.7009
" />
<path d="M15.3861 22.7009
L15.4466 22.6404
" />
<path d="M15.4466 22.6404
L15.5676 22.5799
" />
<path d="M15.5676 22.5799
L15.8095 22.5799
" />
<path d="M15.8095 22.5799
L15.9304 22.6404
" />
<path d="M15.9304 22.6404
L15.9909 22.7009
" />
<path d="M15.9909 22.7009
L16.0514 22.8218
" />
<path d="M16.0514 22.8218
L16.0514 22.8823
" />
<path d="M16.0514 22.8823
L15.9909 23.0033
" />
<path d="M15.9909 23.0033
L15.9304 23.0637
" />
<path d="M15.9304 23.0637
L15.8095 23.1242
" />
<path d="M15.8095 23.1242
L15.5676 23.1242
" />
<path d="M15.5676 23.1242
L15.4466 23.1847
" />
<path d="M15.4466 23.1847
L15.3861 23.2452
" />
<path d="M15.3861 23.2452
L15.3257 23.3661
" />
<path d="M15.3257 23.3661
L15.3257 23.6080
" />
<path d="M15.3257 23.6080
L15.3861 23.7290
" />
<path d="M15.3861 23.7290
L15.4466 23.7895
" />
<path d="M15.4466 23.7895
L15.5676 23.8499
" />
<path d="M15.5676 23.8499
L15.8095 23.8499
" />
<path d="M15.8095 23.8499
L15.9304 23.7895
" />
<path d="M15.9304 23.7895
L15.9909 23.7290
" />
<path d="M15.9909 23.7290
L16.0514 23.6080
" />
<path d="M16.0514 23.6080
L16.0514 23.3661
" />
<path d="M16.0514 23.3661
L15.9909 23.2452
" />
<path d="M15.9909 23.2452
L15.9304 23.1847
" />
<path d="M15.9304 23.1847
L15.8095 23.1242
" />
</g></g>
<g style="fill:#840000; fill-opacity:0.0; 
stroke:#840000; stroke-width:0.1524; stroke-opacity:1; 
stroke-linecap:round; stroke-linejoin:round;">
<path d="M13.0820 26.7994
L17.1460 26.7994
" />
</g>
<g style="fill:#A90000; fill-opacity:0.0; 
stroke:#A90000; stroke-width:0.1524; stroke-opacity:1; 
stroke-linecap:round; stroke-linejoin:round;">
<text x="15.1140" y="26.5454"
textLength="2.4855" font-size="1.6933" lengthAdjust="spacingAndGlyphs"
text-anchor="middle" opacity="0">b9</text>
<g class="stroked-text"><desc>b9</desc>
<path d="M14.2371 26.3899
L14.2371 25.1199
" />
<path d="M14.2371 25.6037
L14.3581 25.5433
" />
<path d="M14.3581 25.5433
L14.6000 25.5433
" />
<path d="M14.6000 25.5433
L14.7209 25.6037
" />
<path d="M14.7209 25.6037
L14.7814 25.6642
" />
<path d="M14.7814 25.6642
L14.8419 25.7852
" />
<path d="M14.8419 25.7852
L14.8419 26.1480
" />
<path d="M14.8419 26.1480
L14.7814 26.2690
" />
<path d="M14.7814 26.2690
L14.7209 26.3295
" />
<path d="M14.7209 26.3295
L14.6000 26.3899
" />
<path d="M14.6000 26.3899
L14.3581 26.3899
" />
<path d="M14.3581 26.3899
L14.2371 26.3295
" />
<path d="M15.4466 26.3899
L15.6885 26.3899
" />
<path d="M15.6885 26.3899
L15.8095 26.3295
" />
<path d="M15.8095 26.3295
L15.8699 26.2690
" />
<path d="M15.8699 26.2690
L15.9909 26.0875
" />
<path d="M15.9909 26.0875
L16.0514 25.8456
" />
<path d="M16.0514 25.8456
L16.0514 25.3618
" />
<path d="M16.0514 25.3618
L15.9909 25.2409
" />
<path d="M15.9909 25.2409
L15.9304 25.1804
" />
<path d="M15.9304 25.1804
L15.8095 25.1199
" />
<path d="M15.8095 25.1199
L15.5676 25.1199
" />
<path d="M15.5676 25.1199
L15.4466 25.1804
" />
<path d="M15.4466 25.1804
L15.3861 25.2409
" />
<path d="M15.3861 25.2409
L15.3257 25.3618
" />
<path d="M15.3257 25.3618
L15.3257 25.6642
" />
<path d="M15.3257 25.6642
L15.3861 25.7852
" />
<path d="M15.3861 25.7852
L15.4466 25.8456
" />
<path d="M15.4466 25.8456
L15.5676 25.9061
" />
<path d="M15.5676 25.9061
L15.8095 25.9061
" />
<path d="M15.8095 25.9061
L15.9304 25.8456
" />
<path d="M15.9304 25.8456
L15.9909 25.7852
" />
<path d="M15.9909 25.7852
L16.0514 25.6642
" />
</g></g>
<g style="fill:#840084; fill-opacity:0.0; 
stroke:#840084; stroke-width:0.1524; stroke-opacity:1; 
stroke-linecap:round; stroke-linejoin:round;">
</g>
<g style="fill:#006464; fill-opacity:0.0; 
stroke:#006464; stroke-width:0.1524; stroke-opacity:1; 
stroke-linecap:round; stroke-linejoin:round;">
</g>
<g style="fill:#006464; fill-opacity:0.0; 
stroke:#006464; stroke-width:0.1588; stroke-opacity:1; 
stroke-linecap:round; stroke-linejoin:round;">
<text x="11.0500" y="4.8284"
textLength="2.1992" font-size="1.6933" lengthAdjust="spacingAndGlyphs"
text-anchor="middle" opacity="0">J?</text>
<g class="stroked-text"><desc>J?</desc>
<path d="M10.6871 3.5109
L10.6871 4.4181
" />
<path d="M10.6871 4.4181
L10.6266 4.5995
" />
<path d="M10.6266 4.5995
L10.5057 4.7205
" />
<path d="M10.5057 4.7205
L10.3242 4.7809
" />
<path d="M10.3242 4.7809
L10.2033 4.7809
" />
<path d="M11.4733 4.6600
L11.5337 4.7205
" />
<path d="M11.5337 4.7205
L11.4733 4.7809
" />
<path d="M11.4733 4.7809
L11.4128 4.7205
" />
<path d="M11.4128 4.7205
L11.4733 4.6600
" />
<path d="M11.4733 4.6600
L11.4733 4.7809
" />
<path d="M11.2314 3.5714
L11.3523 3.5109
" />
<path d="M11.3523 3.5109
L11.6547 3.5109
" />
<path d="M11.6547 3.5109
L11.7756 3.5714
" />
<path d="M11.7756 3.5714
L11.8361 3.6924
" />
<path d="M11.8361 3.6924
L11.8361 3.8133
" />
<path d="M11.8361 3.8133
L11.7756 3.9343
" />
<path d="M11.7756 3.9343
L11.7152 3.9947
" />
<path d="M11.7152 3.9947
L11.5942 4.0552
" />
<path d="M11.5942 4.0552
L11.5337 4.1157
" />
<path d="M11.5337 4.1157
L11.4733 4.2366
" />
<path d="M11.4733 4.2366
L11.4733 4.2971
" />
</g><text x="30.3588" y="34.8004"
textLength="37.0936" font-size="1.6933" lengthAdjust="spacingAndGlyphs"
text-anchor="middle" opacity="0">Conn_02x11_Row_Letter_First_Shielded</text>
<g class="stroked-text"><desc>Conn_02x11_Row_Letter_First_Shielded</desc>
<path d="M12.9115 34.6320
L12.8511 34.6925
" />
<path d="M12.8511 34.6925
L12.6696 34.7529
" />
<path d="M12.6696 34.7529
L12.5487 34.7529
" />
<path d="M12.5487 34.7529
L12.3673 34.6925
" />
<path d="M12.3673 34.6925
L12.2463 34.5715
" />
<path d="M12.2463 34.5715
L12.1858 34.4505
" />
<path d="M12.1858 34.4505
L12.1254 34.2086
" />
<path d="M12.1254 34.2086
L12.1254 34.0272
" />
<path d="M12.1254 34.0272
L12.1858 33.7853
" />
<path d="M12.1858 33.7853
L12.2463 33.6644
" />
<path d="M12.2463 33.6644
L12.3673 33.5434
" />
<path d="M12.3673 33.5434
L12.5487 33.4829
" />
<path d="M12.5487 33.4829
L12.6696 33.4829
" />
<path d="M12.6696 33.4829
L12.8511 33.5434
" />
<path d="M12.8511 33.5434
L12.9115 33.6039
" />
<path d="M13.6373 34.7529
L13.5163 34.6925
" />
<path d="M13.5163 34.6925
L13.4558 34.6320
" />
<path d="M13.4558 34.6320
L13.3954 34.5110
" />
<path d="M13.3954 34.5110
L13.3954 34.1482
" />
<path d="M13.3954 34.1482
L13.4558 34.0272
" />
<path d="M13.4558 34.0272
L13.5163 33.9667
" />
<path d="M13.5163 33.9667
L13.6373 33.9063
" />
<path d="M13.6373 33.9063
L13.8187 33.9063
" />
<path d="M13.8187 33.9063
L13.9396 33.9667
" />
<path d="M13.9396 33.9667
L14.0001 34.0272
" />
<path d="M14.0001 34.0272
L14.0606 34.1482
" />
<path d="M14.0606 34.1482
L14.0606 34.5110
" />
<path d="M14.0606 34.5110
L14.0001 34.6320
" />
<path d="M14.0001 34.6320
L13.9396 34.6925
" />
<path d="M13.9396 34.6925
L13.8187 34.7529
" />
<path d="M13.8187 34.7529
L13.6373 34.7529
" />
<path d="M14.6048 33.9063
L14.6048 34.7529
" />
<path d="M14.6048 34.0272
L14.6653 33.9667
" />
<path d="M14.6653 33.9667
L14.7863 33.9063
" />
<path d="M14.7863 33.9063
L14.9677 33.9063
" />
<path d="M14.9677 33.9063
L15.0886 33.9667
" />
<path d="M15.0886 33.9667
L15.1491 34.0877
" />
<path d="M15.1491 34.0877
L15.1491 34.7529
" />
<path d="M15.7538 33.9063
L15.7538 34.7529
" />
<path d="M15.7538 34.0272
L15.8143 33.9667
" />
<path d="M15.8143 33.9667
L15.9353 33.9063
" />
<path d="M15.9353 33.9063
L16.1167 33.9063
" />
<path d="M16.1167 33.9063
L16.2376 33.9667
" />
<path d="M16.2376 33.9667
L16.2981 34.0877
" />
<path d="M16.2981 34.0877
L16.2981 34.7529
" />
<path d="M16.6005 34.8739
L17.5681 34.8739
" />
<path d="M18.1123 33.4829
L18.2333 33.4829
" />
<path d="M18.2333 33.4829
L18.3542 33.5434
" />
<path d="M18.3542 33.5434
L18.4147 33.6039
" />
<path d="M18.4147 33.6039
L18.4752 33.7248
" />
<path d="M18.4752 33.7248
L18.5357 33.9667
" />
<path d="M18.5357 33.9667
L18.5357 34.2691
" />
<path d="M18.5357 34.2691
L18.4752 34.5110
" />
<path d="M18.4752 34.5110
L18.4147 34.6320
" />
<path d="M18.4147 34.6320
L18.3542 34.6925
" />
<path d="M18.3542 34.6925
L18.2333 34.7529
" />
<path d="M18.2333 34.7529
L18.1123 34.7529
" />
<path d="M18.1123 34.7529
L17.9914 34.6925
" />
<path d="M17.9914 34.6925
L17.9309 34.6320
" />
<path d="M17.9309 34.6320
L17.8704 34.5110
" />
<path d="M17.8704 34.5110
L17.8100 34.2691
" />
<path d="M17.8100 34.2691
L17.8100 33.9667
" />
<path d="M17.8100 33.9667
L17.8704 33.7248
" />
<path d="M17.8704 33.7248
L17.9309 33.6039
" />
<path d="M17.9309 33.6039
L17.9914 33.5434
" />
<path d="M17.9914 33.5434
L18.1123 33.4829
" />
<path d="M19.0195 33.6039
L19.0799 33.5434
" />
<path d="M19.0799 33.5434
L19.2009 33.4829
" />
<path d="M19.2009 33.4829
L19.5033 33.4829
" />
<path d="M19.5033 33.4829
L19.6242 33.5434
" />
<path d="M19.6242 33.5434
L19.6847 33.6039
" />
<path d="M19.6847 33.6039
L19.7452 33.7248
" />
<path d="M19.7452 33.7248
L19.7452 33.8458
" />
<path d="M19.7452 33.8458
L19.6847 34.0272
" />
<path d="M19.6847 34.0272
L18.9590 34.7529
" />
<path d="M18.9590 34.7529
L19.7452 34.7529
" />
<path d="M20.1685 34.7529
L20.8337 33.9063
" />
<path d="M20.1685 33.9063
L20.8337 34.7529
" />
<path d="M21.9828 34.7529
L21.2571 34.7529
" />
<path d="M21.6199 34.7529
L21.6199 33.4829
" />
<path d="M21.6199 33.4829
L21.4990 33.6644
" />
<path d="M21.4990 33.6644
L21.3780 33.7853
" />
<path d="M21.3780 33.7853
L21.2571 33.8458
" />
<path d="M23.1923 34.7529
L22.4666 34.7529
" />
<path d="M22.8294 34.7529
L22.8294 33.4829
" />
<path d="M22.8294 33.4829
L22.7085 33.6644
" />
<path d="M22.7085 33.6644
L22.5875 33.7853
" />
<path d="M22.5875 33.7853
L22.4666 33.8458
" />
<path d="M23.4342 34.8739
L24.4018 34.8739
" />
<path d="M25.4298 34.7529
L25.0065 34.1482
" />
<path d="M24.7041 34.7529
L24.7041 33.4829
" />
<path d="M24.7041 33.4829
L25.1879 33.4829
" />
<path d="M25.1879 33.4829
L25.3089 33.5434
" />
<path d="M25.3089 33.5434
L25.3694 33.6039
" />
<path d="M25.3694 33.6039
L25.4298 33.7248
" />
<path d="M25.4298 33.7248
L25.4298 33.9063
" />
<path d="M25.4298 33.9063
L25.3694 34.0272
" />
<path d="M25.3694 34.0272
L25.3089 34.0877
" />
<path d="M25.3089 34.0877
L25.1879 34.1482
" />
<path d="M25.1879 34.1482
L24.7041 34.1482
" />
<path d="M26.1556 34.7529
L26.0346 34.6925
" />
<path d="M26.0346 34.6925
L25.9741 34.6320
" />
<path d="M25.9741 34.6320
L25.9137 34.5110
" />
<path d="M25.9137 34.5110
L25.9137 34.1482
" />
<path d="M25.9137 34.1482
L25.9741 34.0272
" />
<path d="M25.9741 34.0272
L26.0346 33.9667
" />
<path d="M26.0346 33.9667
L26.1556 33.9063
" />
<path d="M26.1556 33.9063
L26.3370 33.9063
" />
<path d="M26.3370 33.9063
L26.4579 33.9667
" />
<path d="M26.4579 33.9667
L26.5184 34.0272
" />
<path d="M26.5184 34.0272
L26.5789 34.1482
" />
<path d="M26.5789 34.1482
L26.5789 34.5110
" />
<path d="M26.5789 34.5110
L26.5184 34.6320
" />
<path d="M26.5184 34.6320
L26.4579 34.6925
" />
<path d="M26.4579 34.6925
L26.3370 34.7529
" />
<path d="M26.3370 34.7529
L26.1556 34.7529
" />
<path d="M27.0022 33.9063
L27.2441 34.7529
" />
<path d="M27.2441 34.7529
L27.4860 34.1482
" />
<path d="M27.4860 34.1482
L27.7279 34.7529
" />
<path d="M27.7279 34.7529
L27.9698 33.9063
" />
<path d="M28.1513 34.8739
L29.1189 34.8739
" />
<path d="M30.0260 34.7529
L29.4212 34.7529
" />
<path d="M29.4212 34.7529
L29.4212 33.4829
" />
<path d="M30.9331 34.6925
L30.8122 34.7529
" />
<path d="M30.8122 34.7529
L30.5703 34.7529
" />
<path d="M30.5703 34.7529
L30.4493 34.6925
" />
<path d="M30.4493 34.6925
L30.3889 34.5715
" />
<path d="M30.3889 34.5715
L30.3889 34.0877
" />
<path d="M30.3889 34.0877
L30.4493 33.9667
" />
<path d="M30.4493 33.9667
L30.5703 33.9063
" />
<path d="M30.5703 33.9063
L30.8122 33.9063
" />
<path d="M30.8122 33.9063
L30.9331 33.9667
" />
<path d="M30.9331 33.9667
L30.9936 34.0877
" />
<path d="M30.9936 34.0877
L30.9936 34.2086
" />
<path d="M30.9936 34.2086
L30.3889 34.3296
" />
<path d="M31.3565 33.9063
L31.8403 33.9063
" />
<path d="M31.5379 33.4829
L31.5379 34.5715
" />
<path d="M31.5379 34.5715
L31.5984 34.6925
" />
<path d="M31.5984 34.6925
L31.7194 34.7529
" />
<path d="M31.7194 34.7529
L31.8403 34.7529
" />
<path d="M32.0822 33.9063
L32.5660 33.9063
" />
<path d="M32.2636 33.4829
L32.2636 34.5715
" />
<path d="M32.2636 34.5715
L32.3241 34.6925
" />
<path d="M32.3241 34.6925
L32.4451 34.7529
" />
<path d="M32.4451 34.7529
L32.5660 34.7529
" />
<path d="M33.4731 34.6925
L33.3522 34.7529
" />
<path d="M33.3522 34.7529
L33.1103 34.7529
" />
<path d="M33.1103 34.7529
L32.9893 34.6925
" />
<path d="M32.9893 34.6925
L32.9289 34.5715
" />
<path d="M32.9289 34.5715
L32.9289 34.0877
" />
<path d="M32.9289 34.0877
L32.9893 33.9667
" />
<path d="M32.9893 33.9667
L33.1103 33.9063
" />
<path d="M33.1103 33.9063
L33.3522 33.9063
" />
<path d="M33.3522 33.9063
L33.4731 33.9667
" />
<path d="M33.4731 33.9667
L33.5336 34.0877
" />
<path d="M33.5336 34.0877
L33.5336 34.2086
" />
<path d="M33.5336 34.2086
L32.9289 34.3296
" />
<path d="M34.0779 34.7529
L34.0779 33.9063
" />
<path d="M34.0779 34.1482
L34.1384 34.0272
" />
<path d="M34.1384 34.0272
L34.1989 33.9667
" />
<path d="M34.1989 33.9667
L34.3198 33.9063
" />
<path d="M34.3198 33.9063
L34.4408 33.9063
" />
<path d="M34.5618 34.8739
L35.5294 34.8739
" />
<path d="M36.2551 34.0877
L35.8317 34.0877
" />
<path d="M35.8317 34.7529
L35.8317 33.4829
" />
<path d="M35.8317 33.4829
L36.4365 33.4829
" />
<path d="M36.9203 34.7529
L36.9203 33.9063
" />
<path d="M36.9203 33.4829
L36.8599 33.5434
" />
<path d="M36.8599 33.5434
L36.9203 33.6039
" />
<path d="M36.9203 33.6039
L36.9808 33.5434
" />
<path d="M36.9808 33.5434
L36.9203 33.4829
" />
<path d="M36.9203 33.4829
L36.9203 33.6039
" />
<path d="M37.5251 34.7529
L37.5251 33.9063
" />
<path d="M37.5251 34.1482
L37.5856 34.0272
" />
<path d="M37.5856 34.0272
L37.6461 33.9667
" />
<path d="M37.6461 33.9667
L37.7670 33.9063
" />
<path d="M37.7670 33.9063
L37.8880 33.9063
" />
<path d="M38.2509 34.6925
L38.3718 34.7529
" />
<path d="M38.3718 34.7529
L38.6137 34.7529
" />
<path d="M38.6137 34.7529
L38.7347 34.6925
" />
<path d="M38.7347 34.6925
L38.7951 34.5715
" />
<path d="M38.7951 34.5715
L38.7951 34.5110
" />
<path d="M38.7951 34.5110
L38.7347 34.3901
" />
<path d="M38.7347 34.3901
L38.6137 34.3296
" />
<path d="M38.6137 34.3296
L38.4323 34.3296
" />
<path d="M38.4323 34.3296
L38.3113 34.2691
" />
<path d="M38.3113 34.2691
L38.2509 34.1482
" />
<path d="M38.2509 34.1482
L38.2509 34.0877
" />
<path d="M38.2509 34.0877
L38.3113 33.9667
" />
<path d="M38.3113 33.9667
L38.4323 33.9063
" />
<path d="M38.4323 33.9063
L38.6137 33.9063
" />
<path d="M38.6137 33.9063
L38.7347 33.9667
" />
<path d="M39.1580 33.9063
L39.6418 33.9063
" />
<path d="M39.3394 33.4829
L39.3394 34.5715
" />
<path d="M39.3394 34.5715
L39.3999 34.6925
" />
<path d="M39.3999 34.6925
L39.5209 34.7529
" />
<path d="M39.5209 34.7529
L39.6418 34.7529
" />
<path d="M39.7628 34.8739
L40.7304 34.8739
" />
<path d="M40.9723 34.6925
L41.1537 34.7529
" />
<path d="M41.1537 34.7529
L41.4561 34.7529
" />
<path d="M41.4561 34.7529
L41.5770 34.6925
" />
<path d="M41.5770 34.6925
L41.6375 34.6320
" />
<path d="M41.6375 34.6320
L41.6980 34.5110
" />
<path d="M41.6980 34.5110
L41.6980 34.3901
" />
<path d="M41.6980 34.3901
L41.6375 34.2691
" />
<path d="M41.6375 34.2691
L41.5770 34.2086
" />
<path d="M41.5770 34.2086
L41.4561 34.1482
" />
<path d="M41.4561 34.1482
L41.2142 34.0877
" />
<path d="M41.2142 34.0877
L41.0932 34.0272
" />
<path d="M41.0932 34.0272
L41.0327 33.9667
" />
<path d="M41.0327 33.9667
L40.9723 33.8458
" />
<path d="M40.9723 33.8458
L40.9723 33.7248
" />
<path d="M40.9723 33.7248
L41.0327 33.6039
" />
<path d="M41.0327 33.6039
L41.0932 33.5434
" />
<path d="M41.0932 33.5434
L41.2142 33.4829
" />
<path d="M41.2142 33.4829
L41.5165 33.4829
" />
<path d="M41.5165 33.4829
L41.6980 33.5434
" />
<path d="M42.2422 34.7529
L42.2422 33.4829
" />
<path d="M42.7865 34.7529
L42.7865 34.0877
" />
<path d="M42.7865 34.0877
L42.7260 33.9667
" />
<path d="M42.7260 33.9667
L42.6051 33.9063
" />
<path d="M42.6051 33.9063
L42.4237 33.9063
" />
<path d="M42.4237 33.9063
L42.3027 33.9667
" />
<path d="M42.3027 33.9667
L42.2422 34.0272
" />
<path d="M43.3912 34.7529
L43.3912 33.9063
" />
<path d="M43.3912 33.4829
L43.3308 33.5434
" />
<path d="M43.3308 33.5434
L43.3912 33.6039
" />
<path d="M43.3912 33.6039
L43.4517 33.5434
" />
<path d="M43.4517 33.5434
L43.3912 33.4829
" />
<path d="M43.3912 33.4829
L43.3912 33.6039
" />
<path d="M44.4798 34.6925
L44.3589 34.7529
" />
<path d="M44.3589 34.7529
L44.1170 34.7529
" />
<path d="M44.1170 34.7529
L43.9960 34.6925
" />
<path d="M43.9960 34.6925
L43.9356 34.5715
" />
<path d="M43.9356 34.5715
L43.9356 34.0877
" />
<path d="M43.9356 34.0877
L43.9960 33.9667
" />
<path d="M43.9960 33.9667
L44.1170 33.9063
" />
<path d="M44.1170 33.9063
L44.3589 33.9063
" />
<path d="M44.3589 33.9063
L44.4798 33.9667
" />
<path d="M44.4798 33.9667
L44.5403 34.0877
" />
<path d="M44.5403 34.0877
L44.5403 34.2086
" />
<path d="M44.5403 34.2086
L43.9356 34.3296
" />
<path d="M45.2661 34.7529
L45.1451 34.6925
" />
<path d="M45.1451 34.6925
L45.0846 34.5715
" />
<path d="M45.0846 34.5715
L45.0846 33.4829
" />
<path d="M46.2941 34.7529
L46.2941 33.4829
" />
<path d="M46.2941 34.6925
L46.1732 34.7529
" />
<path d="M46.1732 34.7529
L45.9313 34.7529
" />
<path d="M45.9313 34.7529
L45.8103 34.6925
" />
<path d="M45.8103 34.6925
L45.7498 34.6320
" />
<path d="M45.7498 34.6320
L45.6894 34.5110
" />
<path d="M45.6894 34.5110
L45.6894 34.1482
" />
<path d="M45.6894 34.1482
L45.7498 34.0272
" />
<path d="M45.7498 34.0272
L45.8103 33.9667
" />
<path d="M45.8103 33.9667
L45.9313 33.9063
" />
<path d="M45.9313 33.9063
L46.1732 33.9063
" />
<path d="M46.1732 33.9063
L46.2941 33.9667
" />
<path d="M47.3826 34.6925
L47.2617 34.7529
" />
<path d="M47.2617 34.7529
L47.0198 34.7529
" />
<path d="M47.0198 34.7529
L46.8988 34.6925
" />
<path d="M46.8988 34.6925
L46.8384 34.5715
" />
<path d="M46.8384 34.5715
L46.8384 34.0877
" />
<path d="M46.8384 34.0877
L46.8988 33.9667
" />
<path d="M46.8988 33.9667
L47.0198 33.9063
" />
<path d="M47.0198 33.9063
L47.2617 33.9063
" />
<path d="M47.2617 33.9063
L47.3826 33.9667
" />
<path d="M47.3826 33.9667
L47.4431 34.0877
" />
<path d="M47.4431 34.0877
L47.4431 34.2086
" />
<path d="M47.4431 34.2086
L46.8384 34.3296
" />
<path d="M48.5317 34.7529
L48.5317 33.4829
" />
<path d="M48.5317 34.6925
L48.4108 34.7529
" />
<path d="M48.4108 34.7529
L48.1689 34.7529
" />
<path d="M48.1689 34.7529
L48.0479 34.6925
" />
<path d="M48.0479 34.6925
L47.9874 34.6320
" />
<path d="M47.9874 34.6320
L47.9270 34.5110
" />
<path d="M47.9270 34.5110
L47.9270 34.1482
" />
<path d="M47.9270 34.1482
L47.9874 34.0272
" />
<path d="M47.9874 34.0272
L48.0479 33.9667
" />
<path d="M48.0479 33.9667
L48.1689 33.9063
" />
<path d="M48.1689 33.9063
L48.4108 33.9063
" />
<path d="M48.4108 33.9063
L48.5317 33.9667
" />
</g></g>
<g style="fill:#840084; fill-opacity:0.0; 
stroke:#840084; stroke-width:0.1588; stroke-opacity:1; 
stroke-linecap:round; stroke-linejoin:round;">
<text x="9.5260" y="19.8144"
textLength="1.0501" font-size="1.6933" lengthAdjust="spacingAndGlyphs"
text-anchor="middle" opacity="0">~</text>
<g class="stroked-text"><desc>~</desc>
<path d="M9.1934 19.2831
L9.2539 19.2226
" />
<path d="M9.2539 19.2226
L9.3748 19.1622
" />
<path d="M9.3748 19.1622
L9.6167 19.2831
" />
<path d="M9.6167 19.2831
L9.7377 19.2226
" />
<path d="M9.7377 19.2226
L9.7982 19.1622
" />
</g></g> 
</svg>
