<?xml version="1.0" standalone="no"?>
 <!DOCTYPE svg PUBLIC "-//W3C//DTD SVG 1.1//EN" 
 "http://www.w3.org/Graphics/SVG/1.1/DTD/svg11.dtd"> 
<svg
  xmlns:svg="http://www.w3.org/2000/svg"
  xmlns="http://www.w3.org/2000/svg"
  xmlns:xlink="http://www.w3.org/1999/xlink"
  version="1.1"
  width="50.0888mm" height="49.7586mm" viewBox="0.0000 0.0000 50.0888 49.7586">
<title>SVG Image created as working.svg date 2023/08/02 04:41:51 </title>
  <desc>Image generated by Eeschema-SVG </desc>
<g style="fill:#000000; fill-opacity:1.0000;stroke:#000000; stroke-opacity:1.0000;
stroke-linecap:round; stroke-linejoin:round;"
 transform="translate(0 0) scale(1 1)">
</g>
<g style="fill:#840000; fill-opacity:0.0; 
stroke:#840000; stroke-width:0.0000; stroke-opacity:1; 
stroke-linecap:round; stroke-linejoin:round;">
</g>
<g style="fill:#FFFFC2; fill-opacity:0.0; 
stroke:#FFFFC2; stroke-width:0.0000; stroke-opacity:1; 
stroke-linecap:round; stroke-linejoin:round;">
</g>
<g style="fill:#FFFFC2; fill-opacity:1.0000; 
stroke:#FFFFC2; stroke-width:0.0000; stroke-opacity:1; 
stroke-linecap:round; stroke-linejoin:round;">
<rect x="7.985100" y="6.250800" width="5.080000" height="35.560000" rx="0.000000" />
</g>
<g style="fill:#840084; fill-opacity:1.0000; 
stroke:#840084; stroke-width:0.0000; stroke-opacity:1; 
stroke-linecap:round; stroke-linejoin:round;">
</g>
<g style="fill:#840000; fill-opacity:1.0000; 
stroke:#840000; stroke-width:0.0000; stroke-opacity:1; 
stroke-linecap:round; stroke-linejoin:round;">
</g>
<g style="fill:#840000; fill-opacity:0.0; 
stroke:#840000; stroke-width:0.1524; stroke-opacity:1; 
stroke-linecap:round; stroke-linejoin:round;">
<rect x="7.985100" y="40.413800" width="1.270000" height="0.254000" rx="0.000000" />
<rect x="7.985100" y="37.873800" width="1.270000" height="0.254000" rx="0.000000" />
<rect x="7.985100" y="35.333800" width="1.270000" height="0.254000" rx="0.000000" />
<rect x="7.985100" y="32.793800" width="1.270000" height="0.254000" rx="0.000000" />
<rect x="7.985100" y="30.253800" width="1.270000" height="0.254000" rx="0.000000" />
<rect x="7.985100" y="27.713800" width="1.270000" height="0.254000" rx="0.000000" />
<rect x="7.985100" y="25.173800" width="1.270000" height="0.254000" rx="0.000000" />
<rect x="7.985100" y="22.633800" width="1.270000" height="0.254000" rx="0.000000" />
<rect x="7.985100" y="20.093800" width="1.270000" height="0.254000" rx="0.000000" />
<rect x="7.985100" y="17.553800" width="1.270000" height="0.254000" rx="0.000000" />
<rect x="7.985100" y="15.013800" width="1.270000" height="0.254000" rx="0.000000" />
<rect x="7.985100" y="12.473800" width="1.270000" height="0.254000" rx="0.000000" />
<rect x="7.985100" y="9.933800" width="1.270000" height="0.254000" rx="0.000000" />
<rect x="7.985100" y="7.393800" width="1.270000" height="0.254000" rx="0.000000" />
</g>
<g style="fill:#840000; fill-opacity:0.0; 
stroke:#840000; stroke-width:0.2540; stroke-opacity:1; 
stroke-linecap:round; stroke-linejoin:round;">
<rect x="7.985100" y="6.250800" width="5.080000" height="35.560000" rx="0.000000" />
</g>
<g style="fill:#840000; fill-opacity:0.0; 
stroke:#840000; stroke-width:0.1524; stroke-opacity:1; 
stroke-linecap:round; stroke-linejoin:round;">
<path style="fill:#840000; fill-opacity:0.0; 
stroke:#840000; stroke-width:0.1524; stroke-opacity:1; 
stroke-linecap:round; stroke-linejoin:round;fill:none"
d="M 9.5091,42.5728
11.5411,42.5728
" /> 
<rect x="11.795100" y="40.413800" width="1.270000" height="0.254000" rx="0.000000" />
<rect x="11.795100" y="37.873800" width="1.270000" height="0.254000" rx="0.000000" />
<rect x="11.795100" y="35.333800" width="1.270000" height="0.254000" rx="0.000000" />
<rect x="11.795100" y="32.793800" width="1.270000" height="0.254000" rx="0.000000" />
<rect x="11.795100" y="30.253800" width="1.270000" height="0.254000" rx="0.000000" />
<rect x="11.795100" y="27.713800" width="1.270000" height="0.254000" rx="0.000000" />
<rect x="11.795100" y="25.173800" width="1.270000" height="0.254000" rx="0.000000" />
<rect x="11.795100" y="22.633800" width="1.270000" height="0.254000" rx="0.000000" />
<rect x="11.795100" y="20.093800" width="1.270000" height="0.254000" rx="0.000000" />
<rect x="11.795100" y="17.553800" width="1.270000" height="0.254000" rx="0.000000" />
<rect x="11.795100" y="15.013800" width="1.270000" height="0.254000" rx="0.000000" />
<rect x="11.795100" y="12.473800" width="1.270000" height="0.254000" rx="0.000000" />
<rect x="11.795100" y="9.933800" width="1.270000" height="0.254000" rx="0.000000" />
<rect x="11.795100" y="7.393800" width="1.270000" height="0.254000" rx="0.000000" />
</g>
<g style="fill:#840000; fill-opacity:0.0; 
stroke:#840000; stroke-width:0.0476; stroke-opacity:1; 
stroke-linecap:round; stroke-linejoin:round;">
<text x="10.5251" y="42.3823"
textLength="2.6008" font-size="0.5080" lengthAdjust="spacingAndGlyphs"
text-anchor="middle" opacity="0">Mounting</text>
<g class="stroked-text"><desc>Mounting</desc>
<path d="M9.3368 42.3681
L9.3368 41.9871
" />
<path d="M9.3368 41.9871
L9.4638 42.2592
" />
<path d="M9.4638 42.2592
L9.5908 41.9871
" />
<path d="M9.5908 41.9871
L9.5908 42.3681
" />
<path d="M9.8266 42.3681
L9.7903 42.3500
" />
<path d="M9.7903 42.3500
L9.7722 42.3318
" />
<path d="M9.7722 42.3318
L9.7540 42.2955
" />
<path d="M9.7540 42.2955
L9.7540 42.1867
" />
<path d="M9.7540 42.1867
L9.7722 42.1504
" />
<path d="M9.7722 42.1504
L9.7903 42.1322
" />
<path d="M9.7903 42.1322
L9.8266 42.1141
" />
<path d="M9.8266 42.1141
L9.8810 42.1141
" />
<path d="M9.8810 42.1141
L9.9173 42.1322
" />
<path d="M9.9173 42.1322
L9.9355 42.1504
" />
<path d="M9.9355 42.1504
L9.9536 42.1867
" />
<path d="M9.9536 42.1867
L9.9536 42.2955
" />
<path d="M9.9536 42.2955
L9.9355 42.3318
" />
<path d="M9.9355 42.3318
L9.9173 42.3500
" />
<path d="M9.9173 42.3500
L9.8810 42.3681
" />
<path d="M9.8810 42.3681
L9.8266 42.3681
" />
<path d="M10.2802 42.1141
L10.2802 42.3681
" />
<path d="M10.1169 42.1141
L10.1169 42.3137
" />
<path d="M10.1169 42.3137
L10.1350 42.3500
" />
<path d="M10.1350 42.3500
L10.1713 42.3681
" />
<path d="M10.1713 42.3681
L10.2257 42.3681
" />
<path d="M10.2257 42.3681
L10.2620 42.3500
" />
<path d="M10.2620 42.3500
L10.2802 42.3318
" />
<path d="M10.4616 42.1141
L10.4616 42.3681
" />
<path d="M10.4616 42.1504
L10.4797 42.1322
" />
<path d="M10.4797 42.1322
L10.5160 42.1141
" />
<path d="M10.5160 42.1141
L10.5704 42.1141
" />
<path d="M10.5704 42.1141
L10.6067 42.1322
" />
<path d="M10.6067 42.1322
L10.6249 42.1685
" />
<path d="M10.6249 42.1685
L10.6249 42.3681
" />
<path d="M10.7518 42.1141
L10.8970 42.1141
" />
<path d="M10.8063 41.9871
L10.8063 42.3137
" />
<path d="M10.8063 42.3137
L10.8244 42.3500
" />
<path d="M10.8244 42.3500
L10.8607 42.3681
" />
<path d="M10.8607 42.3681
L10.8970 42.3681
" />
<path d="M11.0240 42.3681
L11.0240 42.1141
" />
<path d="M11.0240 41.9871
L11.0058 42.0052
" />
<path d="M11.0058 42.0052
L11.0240 42.0234
" />
<path d="M11.0240 42.0234
L11.0421 42.0052
" />
<path d="M11.0421 42.0052
L11.0240 41.9871
" />
<path d="M11.0240 41.9871
L11.0240 42.0234
" />
<path d="M11.2054 42.1141
L11.2054 42.3681
" />
<path d="M11.2054 42.1504
L11.2235 42.1322
" />
<path d="M11.2235 42.1322
L11.2598 42.1141
" />
<path d="M11.2598 42.1141
L11.3142 42.1141
" />
<path d="M11.3142 42.1141
L11.3505 42.1322
" />
<path d="M11.3505 42.1322
L11.3687 42.1685
" />
<path d="M11.3687 42.1685
L11.3687 42.3681
" />
<path d="M11.7134 42.1141
L11.7134 42.4225
" />
<path d="M11.7134 42.4225
L11.6952 42.4588
" />
<path d="M11.6952 42.4588
L11.6771 42.4770
" />
<path d="M11.6771 42.4770
L11.6408 42.4951
" />
<path d="M11.6408 42.4951
L11.5864 42.4951
" />
<path d="M11.5864 42.4951
L11.5501 42.4770
" />
<path d="M11.7134 42.3500
L11.6771 42.3681
" />
<path d="M11.6771 42.3681
L11.6045 42.3681
" />
<path d="M11.6045 42.3681
L11.5682 42.3500
" />
<path d="M11.5682 42.3500
L11.5501 42.3318
" />
<path d="M11.5501 42.3318
L11.5319 42.2955
" />
<path d="M11.5319 42.2955
L11.5319 42.1867
" />
<path d="M11.5319 42.1867
L11.5501 42.1504
" />
<path d="M11.5501 42.1504
L11.5682 42.1322
" />
<path d="M11.5682 42.1322
L11.6045 42.1141
" />
<path d="M11.6045 42.1141
L11.6771 42.1141
" />
<path d="M11.6771 42.1141
L11.7134 42.1322
" />
</g></g>
<g style="fill:#840000; fill-opacity:0.0; 
stroke:#840000; stroke-width:0.1524; stroke-opacity:1; 
stroke-linecap:round; stroke-linejoin:round;">
<path d="M7.9851 7.5208
L4.1751 7.5208
" />
</g>
<g style="fill:#A90000; fill-opacity:0.0; 
stroke:#A90000; stroke-width:0.1524; stroke-opacity:1; 
stroke-linecap:round; stroke-linejoin:round;">
<text x="6.0801" y="7.2668"
textLength="1.3365" font-size="1.6933" lengthAdjust="spacingAndGlyphs"
text-anchor="middle" opacity="0">1</text>
<g class="stroked-text"><desc>1</desc>
<path d="M6.4430 7.1113
L5.7173 7.1113
" />
<path d="M6.0801 7.1113
L6.0801 5.8413
" />
<path d="M6.0801 5.8413
L5.9592 6.0228
" />
<path d="M5.9592 6.0228
L5.8382 6.1437
" />
<path d="M5.8382 6.1437
L5.7173 6.2042
" />
</g></g>
<g style="fill:#840000; fill-opacity:0.0; 
stroke:#840000; stroke-width:0.1524; stroke-opacity:1; 
stroke-linecap:round; stroke-linejoin:round;">
<path d="M13.0651 17.6808
L16.8751 17.6808
" />
</g>
<g style="fill:#A90000; fill-opacity:0.0; 
stroke:#A90000; stroke-width:0.1524; stroke-opacity:1; 
stroke-linecap:round; stroke-linejoin:round;">
<text x="14.9701" y="17.4268"
textLength="2.5460" font-size="1.6933" lengthAdjust="spacingAndGlyphs"
text-anchor="middle" opacity="0">10</text>
<g class="stroked-text"><desc>10</desc>
<path d="M14.7282 17.2713
L14.0025 17.2713
" />
<path d="M14.3653 17.2713
L14.3653 16.0013
" />
<path d="M14.3653 16.0013
L14.2444 16.1828
" />
<path d="M14.2444 16.1828
L14.1234 16.3037
" />
<path d="M14.1234 16.3037
L14.0025 16.3642
" />
<path d="M15.5143 16.0013
L15.6353 16.0013
" />
<path d="M15.6353 16.0013
L15.7562 16.0618
" />
<path d="M15.7562 16.0618
L15.8167 16.1223
" />
<path d="M15.8167 16.1223
L15.8772 16.2432
" />
<path d="M15.8772 16.2432
L15.9377 16.4851
" />
<path d="M15.9377 16.4851
L15.9377 16.7875
" />
<path d="M15.9377 16.7875
L15.8772 17.0294
" />
<path d="M15.8772 17.0294
L15.8167 17.1504
" />
<path d="M15.8167 17.1504
L15.7562 17.2109
" />
<path d="M15.7562 17.2109
L15.6353 17.2713
" />
<path d="M15.6353 17.2713
L15.5143 17.2713
" />
<path d="M15.5143 17.2713
L15.3934 17.2109
" />
<path d="M15.3934 17.2109
L15.3329 17.1504
" />
<path d="M15.3329 17.1504
L15.2724 17.0294
" />
<path d="M15.2724 17.0294
L15.2120 16.7875
" />
<path d="M15.2120 16.7875
L15.2120 16.4851
" />
<path d="M15.2120 16.4851
L15.2724 16.2432
" />
<path d="M15.2724 16.2432
L15.3329 16.1223
" />
<path d="M15.3329 16.1223
L15.3934 16.0618
" />
<path d="M15.3934 16.0618
L15.5143 16.0013
" />
</g></g>
<g style="fill:#840000; fill-opacity:0.0; 
stroke:#840000; stroke-width:0.1524; stroke-opacity:1; 
stroke-linecap:round; stroke-linejoin:round;">
<path d="M7.9851 20.2208
L4.1751 20.2208
" />
</g>
<g style="fill:#A90000; fill-opacity:0.0; 
stroke:#A90000; stroke-width:0.1524; stroke-opacity:1; 
stroke-linecap:round; stroke-linejoin:round;">
<text x="6.0801" y="19.9668"
textLength="2.5460" font-size="1.6933" lengthAdjust="spacingAndGlyphs"
text-anchor="middle" opacity="0">11</text>
<g class="stroked-text"><desc>11</desc>
<path d="M5.8382 19.8113
L5.1125 19.8113
" />
<path d="M5.4753 19.8113
L5.4753 18.5413
" />
<path d="M5.4753 18.5413
L5.3544 18.7228
" />
<path d="M5.3544 18.7228
L5.2334 18.8437
" />
<path d="M5.2334 18.8437
L5.1125 18.9042
" />
<path d="M7.0477 19.8113
L6.3220 19.8113
" />
<path d="M6.6848 19.8113
L6.6848 18.5413
" />
<path d="M6.6848 18.5413
L6.5639 18.7228
" />
<path d="M6.5639 18.7228
L6.4429 18.8437
" />
<path d="M6.4429 18.8437
L6.3220 18.9042
" />
</g></g>
<g style="fill:#840000; fill-opacity:0.0; 
stroke:#840000; stroke-width:0.1524; stroke-opacity:1; 
stroke-linecap:round; stroke-linejoin:round;">
<path d="M13.0651 20.2208
L16.8751 20.2208
" />
</g>
<g style="fill:#A90000; fill-opacity:0.0; 
stroke:#A90000; stroke-width:0.1524; stroke-opacity:1; 
stroke-linecap:round; stroke-linejoin:round;">
<text x="14.9701" y="19.9668"
textLength="2.5460" font-size="1.6933" lengthAdjust="spacingAndGlyphs"
text-anchor="middle" opacity="0">12</text>
<g class="stroked-text"><desc>12</desc>
<path d="M14.7282 19.8113
L14.0025 19.8113
" />
<path d="M14.3653 19.8113
L14.3653 18.5413
" />
<path d="M14.3653 18.5413
L14.2444 18.7228
" />
<path d="M14.2444 18.7228
L14.1234 18.8437
" />
<path d="M14.1234 18.8437
L14.0025 18.9042
" />
<path d="M15.2120 18.6623
L15.2724 18.6018
" />
<path d="M15.2724 18.6018
L15.3934 18.5413
" />
<path d="M15.3934 18.5413
L15.6958 18.5413
" />
<path d="M15.6958 18.5413
L15.8167 18.6018
" />
<path d="M15.8167 18.6018
L15.8772 18.6623
" />
<path d="M15.8772 18.6623
L15.9377 18.7832
" />
<path d="M15.9377 18.7832
L15.9377 18.9042
" />
<path d="M15.9377 18.9042
L15.8772 19.0856
" />
<path d="M15.8772 19.0856
L15.1515 19.8113
" />
<path d="M15.1515 19.8113
L15.9377 19.8113
" />
</g></g>
<g style="fill:#840000; fill-opacity:0.0; 
stroke:#840000; stroke-width:0.1524; stroke-opacity:1; 
stroke-linecap:round; stroke-linejoin:round;">
<path d="M7.9851 22.7608
L4.1751 22.7608
" />
</g>
<g style="fill:#A90000; fill-opacity:0.0; 
stroke:#A90000; stroke-width:0.1524; stroke-opacity:1; 
stroke-linecap:round; stroke-linejoin:round;">
<text x="6.0801" y="22.5068"
textLength="2.5460" font-size="1.6933" lengthAdjust="spacingAndGlyphs"
text-anchor="middle" opacity="0">13</text>
<g class="stroked-text"><desc>13</desc>
<path d="M5.8382 22.3513
L5.1125 22.3513
" />
<path d="M5.4753 22.3513
L5.4753 21.0813
" />
<path d="M5.4753 21.0813
L5.3544 21.2628
" />
<path d="M5.3544 21.2628
L5.2334 21.3837
" />
<path d="M5.2334 21.3837
L5.1125 21.4442
" />
<path d="M6.2615 21.0813
L7.0477 21.0813
" />
<path d="M7.0477 21.0813
L6.6243 21.5651
" />
<path d="M6.6243 21.5651
L6.8058 21.5651
" />
<path d="M6.8058 21.5651
L6.9267 21.6256
" />
<path d="M6.9267 21.6256
L6.9872 21.6861
" />
<path d="M6.9872 21.6861
L7.0477 21.8070
" />
<path d="M7.0477 21.8070
L7.0477 22.1094
" />
<path d="M7.0477 22.1094
L6.9872 22.2304
" />
<path d="M6.9872 22.2304
L6.9267 22.2909
" />
<path d="M6.9267 22.2909
L6.8058 22.3513
" />
<path d="M6.8058 22.3513
L6.4429 22.3513
" />
<path d="M6.4429 22.3513
L6.3220 22.2909
" />
<path d="M6.3220 22.2909
L6.2615 22.2304
" />
</g></g>
<g style="fill:#840000; fill-opacity:0.0; 
stroke:#840000; stroke-width:0.1524; stroke-opacity:1; 
stroke-linecap:round; stroke-linejoin:round;">
<path d="M13.0651 22.7608
L16.8751 22.7608
" />
</g>
<g style="fill:#A90000; fill-opacity:0.0; 
stroke:#A90000; stroke-width:0.1524; stroke-opacity:1; 
stroke-linecap:round; stroke-linejoin:round;">
<text x="14.9701" y="22.5068"
textLength="2.5460" font-size="1.6933" lengthAdjust="spacingAndGlyphs"
text-anchor="middle" opacity="0">14</text>
<g class="stroked-text"><desc>14</desc>
<path d="M14.7282 22.3513
L14.0025 22.3513
" />
<path d="M14.3653 22.3513
L14.3653 21.0813
" />
<path d="M14.3653 21.0813
L14.2444 21.2628
" />
<path d="M14.2444 21.2628
L14.1234 21.3837
" />
<path d="M14.1234 21.3837
L14.0025 21.4442
" />
<path d="M15.8167 21.5047
L15.8167 22.3513
" />
<path d="M15.5143 21.0209
L15.2120 21.9280
" />
<path d="M15.2120 21.9280
L15.9981 21.9280
" />
</g></g>
<g style="fill:#840000; fill-opacity:0.0; 
stroke:#840000; stroke-width:0.1524; stroke-opacity:1; 
stroke-linecap:round; stroke-linejoin:round;">
<path d="M7.9851 25.3008
L4.1751 25.3008
" />
</g>
<g style="fill:#A90000; fill-opacity:0.0; 
stroke:#A90000; stroke-width:0.1524; stroke-opacity:1; 
stroke-linecap:round; stroke-linejoin:round;">
<text x="6.0801" y="25.0468"
textLength="2.5460" font-size="1.6933" lengthAdjust="spacingAndGlyphs"
text-anchor="middle" opacity="0">15</text>
<g class="stroked-text"><desc>15</desc>
<path d="M5.8382 24.8913
L5.1125 24.8913
" />
<path d="M5.4753 24.8913
L5.4753 23.6213
" />
<path d="M5.4753 23.6213
L5.3544 23.8028
" />
<path d="M5.3544 23.8028
L5.2334 23.9237
" />
<path d="M5.2334 23.9237
L5.1125 23.9842
" />
<path d="M6.9872 23.6213
L6.3824 23.6213
" />
<path d="M6.3824 23.6213
L6.3220 24.2261
" />
<path d="M6.3220 24.2261
L6.3824 24.1656
" />
<path d="M6.3824 24.1656
L6.5034 24.1051
" />
<path d="M6.5034 24.1051
L6.8058 24.1051
" />
<path d="M6.8058 24.1051
L6.9267 24.1656
" />
<path d="M6.9267 24.1656
L6.9872 24.2261
" />
<path d="M6.9872 24.2261
L7.0477 24.3470
" />
<path d="M7.0477 24.3470
L7.0477 24.6494
" />
<path d="M7.0477 24.6494
L6.9872 24.7704
" />
<path d="M6.9872 24.7704
L6.9267 24.8309
" />
<path d="M6.9267 24.8309
L6.8058 24.8913
" />
<path d="M6.8058 24.8913
L6.5034 24.8913
" />
<path d="M6.5034 24.8913
L6.3824 24.8309
" />
<path d="M6.3824 24.8309
L6.3220 24.7704
" />
</g></g>
<g style="fill:#840000; fill-opacity:0.0; 
stroke:#840000; stroke-width:0.1524; stroke-opacity:1; 
stroke-linecap:round; stroke-linejoin:round;">
<path d="M13.0651 25.3008
L16.8751 25.3008
" />
</g>
<g style="fill:#A90000; fill-opacity:0.0; 
stroke:#A90000; stroke-width:0.1524; stroke-opacity:1; 
stroke-linecap:round; stroke-linejoin:round;">
<text x="14.9701" y="25.0468"
textLength="2.5460" font-size="1.6933" lengthAdjust="spacingAndGlyphs"
text-anchor="middle" opacity="0">16</text>
<g class="stroked-text"><desc>16</desc>
<path d="M14.7282 24.8913
L14.0025 24.8913
" />
<path d="M14.3653 24.8913
L14.3653 23.6213
" />
<path d="M14.3653 23.6213
L14.2444 23.8028
" />
<path d="M14.2444 23.8028
L14.1234 23.9237
" />
<path d="M14.1234 23.9237
L14.0025 23.9842
" />
<path d="M15.8167 23.6213
L15.5748 23.6213
" />
<path d="M15.5748 23.6213
L15.4539 23.6818
" />
<path d="M15.4539 23.6818
L15.3934 23.7423
" />
<path d="M15.3934 23.7423
L15.2724 23.9237
" />
<path d="M15.2724 23.9237
L15.2120 24.1656
" />
<path d="M15.2120 24.1656
L15.2120 24.6494
" />
<path d="M15.2120 24.6494
L15.2724 24.7704
" />
<path d="M15.2724 24.7704
L15.3329 24.8309
" />
<path d="M15.3329 24.8309
L15.4539 24.8913
" />
<path d="M15.4539 24.8913
L15.6958 24.8913
" />
<path d="M15.6958 24.8913
L15.8167 24.8309
" />
<path d="M15.8167 24.8309
L15.8772 24.7704
" />
<path d="M15.8772 24.7704
L15.9377 24.6494
" />
<path d="M15.9377 24.6494
L15.9377 24.3470
" />
<path d="M15.9377 24.3470
L15.8772 24.2261
" />
<path d="M15.8772 24.2261
L15.8167 24.1656
" />
<path d="M15.8167 24.1656
L15.6958 24.1051
" />
<path d="M15.6958 24.1051
L15.4539 24.1051
" />
<path d="M15.4539 24.1051
L15.3329 24.1656
" />
<path d="M15.3329 24.1656
L15.2724 24.2261
" />
<path d="M15.2724 24.2261
L15.2120 24.3470
" />
</g></g>
<g style="fill:#840000; fill-opacity:0.0; 
stroke:#840000; stroke-width:0.1524; stroke-opacity:1; 
stroke-linecap:round; stroke-linejoin:round;">
<path d="M7.9851 27.8408
L4.1751 27.8408
" />
</g>
<g style="fill:#A90000; fill-opacity:0.0; 
stroke:#A90000; stroke-width:0.1524; stroke-opacity:1; 
stroke-linecap:round; stroke-linejoin:round;">
<text x="6.0801" y="27.5868"
textLength="2.5460" font-size="1.6933" lengthAdjust="spacingAndGlyphs"
text-anchor="middle" opacity="0">17</text>
<g class="stroked-text"><desc>17</desc>
<path d="M5.8382 27.4313
L5.1125 27.4313
" />
<path d="M5.4753 27.4313
L5.4753 26.1613
" />
<path d="M5.4753 26.1613
L5.3544 26.3428
" />
<path d="M5.3544 26.3428
L5.2334 26.4637
" />
<path d="M5.2334 26.4637
L5.1125 26.5242
" />
<path d="M6.2615 26.1613
L7.1081 26.1613
" />
<path d="M7.1081 26.1613
L6.5639 27.4313
" />
</g></g>
<g style="fill:#840000; fill-opacity:0.0; 
stroke:#840000; stroke-width:0.1524; stroke-opacity:1; 
stroke-linecap:round; stroke-linejoin:round;">
<path d="M13.0651 27.8408
L16.8751 27.8408
" />
</g>
<g style="fill:#A90000; fill-opacity:0.0; 
stroke:#A90000; stroke-width:0.1524; stroke-opacity:1; 
stroke-linecap:round; stroke-linejoin:round;">
<text x="14.9701" y="27.5868"
textLength="2.5460" font-size="1.6933" lengthAdjust="spacingAndGlyphs"
text-anchor="middle" opacity="0">18</text>
<g class="stroked-text"><desc>18</desc>
<path d="M14.7282 27.4313
L14.0025 27.4313
" />
<path d="M14.3653 27.4313
L14.3653 26.1613
" />
<path d="M14.3653 26.1613
L14.2444 26.3428
" />
<path d="M14.2444 26.3428
L14.1234 26.4637
" />
<path d="M14.1234 26.4637
L14.0025 26.5242
" />
<path d="M15.4539 26.7056
L15.3329 26.6451
" />
<path d="M15.3329 26.6451
L15.2724 26.5847
" />
<path d="M15.2724 26.5847
L15.2120 26.4637
" />
<path d="M15.2120 26.4637
L15.2120 26.4032
" />
<path d="M15.2120 26.4032
L15.2724 26.2823
" />
<path d="M15.2724 26.2823
L15.3329 26.2218
" />
<path d="M15.3329 26.2218
L15.4539 26.1613
" />
<path d="M15.4539 26.1613
L15.6958 26.1613
" />
<path d="M15.6958 26.1613
L15.8167 26.2218
" />
<path d="M15.8167 26.2218
L15.8772 26.2823
" />
<path d="M15.8772 26.2823
L15.9377 26.4032
" />
<path d="M15.9377 26.4032
L15.9377 26.4637
" />
<path d="M15.9377 26.4637
L15.8772 26.5847
" />
<path d="M15.8772 26.5847
L15.8167 26.6451
" />
<path d="M15.8167 26.6451
L15.6958 26.7056
" />
<path d="M15.6958 26.7056
L15.4539 26.7056
" />
<path d="M15.4539 26.7056
L15.3329 26.7661
" />
<path d="M15.3329 26.7661
L15.2724 26.8266
" />
<path d="M15.2724 26.8266
L15.2120 26.9475
" />
<path d="M15.2120 26.9475
L15.2120 27.1894
" />
<path d="M15.2120 27.1894
L15.2724 27.3104
" />
<path d="M15.2724 27.3104
L15.3329 27.3709
" />
<path d="M15.3329 27.3709
L15.4539 27.4313
" />
<path d="M15.4539 27.4313
L15.6958 27.4313
" />
<path d="M15.6958 27.4313
L15.8167 27.3709
" />
<path d="M15.8167 27.3709
L15.8772 27.3104
" />
<path d="M15.8772 27.3104
L15.9377 27.1894
" />
<path d="M15.9377 27.1894
L15.9377 26.9475
" />
<path d="M15.9377 26.9475
L15.8772 26.8266
" />
<path d="M15.8772 26.8266
L15.8167 26.7661
" />
<path d="M15.8167 26.7661
L15.6958 26.7056
" />
</g></g>
<g style="fill:#840000; fill-opacity:0.0; 
stroke:#840000; stroke-width:0.1524; stroke-opacity:1; 
stroke-linecap:round; stroke-linejoin:round;">
<path d="M7.9851 30.3808
L4.1751 30.3808
" />
</g>
<g style="fill:#A90000; fill-opacity:0.0; 
stroke:#A90000; stroke-width:0.1524; stroke-opacity:1; 
stroke-linecap:round; stroke-linejoin:round;">
<text x="6.0801" y="30.1268"
textLength="2.5460" font-size="1.6933" lengthAdjust="spacingAndGlyphs"
text-anchor="middle" opacity="0">19</text>
<g class="stroked-text"><desc>19</desc>
<path d="M5.8382 29.9713
L5.1125 29.9713
" />
<path d="M5.4753 29.9713
L5.4753 28.7013
" />
<path d="M5.4753 28.7013
L5.3544 28.8828
" />
<path d="M5.3544 28.8828
L5.2334 29.0037
" />
<path d="M5.2334 29.0037
L5.1125 29.0642
" />
<path d="M6.4429 29.9713
L6.6848 29.9713
" />
<path d="M6.6848 29.9713
L6.8058 29.9109
" />
<path d="M6.8058 29.9109
L6.8662 29.8504
" />
<path d="M6.8662 29.8504
L6.9872 29.6689
" />
<path d="M6.9872 29.6689
L7.0477 29.4270
" />
<path d="M7.0477 29.4270
L7.0477 28.9432
" />
<path d="M7.0477 28.9432
L6.9872 28.8223
" />
<path d="M6.9872 28.8223
L6.9267 28.7618
" />
<path d="M6.9267 28.7618
L6.8058 28.7013
" />
<path d="M6.8058 28.7013
L6.5639 28.7013
" />
<path d="M6.5639 28.7013
L6.4429 28.7618
" />
<path d="M6.4429 28.7618
L6.3824 28.8223
" />
<path d="M6.3824 28.8223
L6.3220 28.9432
" />
<path d="M6.3220 28.9432
L6.3220 29.2456
" />
<path d="M6.3220 29.2456
L6.3824 29.3666
" />
<path d="M6.3824 29.3666
L6.4429 29.4270
" />
<path d="M6.4429 29.4270
L6.5639 29.4875
" />
<path d="M6.5639 29.4875
L6.8058 29.4875
" />
<path d="M6.8058 29.4875
L6.9267 29.4270
" />
<path d="M6.9267 29.4270
L6.9872 29.3666
" />
<path d="M6.9872 29.3666
L7.0477 29.2456
" />
</g></g>
<g style="fill:#840000; fill-opacity:0.0; 
stroke:#840000; stroke-width:0.1524; stroke-opacity:1; 
stroke-linecap:round; stroke-linejoin:round;">
<path d="M13.0651 7.5208
L16.8751 7.5208
" />
</g>
<g style="fill:#A90000; fill-opacity:0.0; 
stroke:#A90000; stroke-width:0.1524; stroke-opacity:1; 
stroke-linecap:round; stroke-linejoin:round;">
<text x="14.9701" y="7.2668"
textLength="1.3365" font-size="1.6933" lengthAdjust="spacingAndGlyphs"
text-anchor="middle" opacity="0">2</text>
<g class="stroked-text"><desc>2</desc>
<path d="M14.6073 5.9623
L14.6677 5.9018
" />
<path d="M14.6677 5.9018
L14.7887 5.8413
" />
<path d="M14.7887 5.8413
L15.0911 5.8413
" />
<path d="M15.0911 5.8413
L15.2120 5.9018
" />
<path d="M15.2120 5.9018
L15.2725 5.9623
" />
<path d="M15.2725 5.9623
L15.3330 6.0832
" />
<path d="M15.3330 6.0832
L15.3330 6.2042
" />
<path d="M15.3330 6.2042
L15.2725 6.3856
" />
<path d="M15.2725 6.3856
L14.5468 7.1113
" />
<path d="M14.5468 7.1113
L15.3330 7.1113
" />
</g></g>
<g style="fill:#840000; fill-opacity:0.0; 
stroke:#840000; stroke-width:0.1524; stroke-opacity:1; 
stroke-linecap:round; stroke-linejoin:round;">
<path d="M13.0651 30.3808
L16.8751 30.3808
" />
</g>
<g style="fill:#A90000; fill-opacity:0.0; 
stroke:#A90000; stroke-width:0.1524; stroke-opacity:1; 
stroke-linecap:round; stroke-linejoin:round;">
<text x="14.9701" y="30.1268"
textLength="2.5460" font-size="1.6933" lengthAdjust="spacingAndGlyphs"
text-anchor="middle" opacity="0">20</text>
<g class="stroked-text"><desc>20</desc>
<path d="M14.0025 28.8223
L14.0629 28.7618
" />
<path d="M14.0629 28.7618
L14.1839 28.7013
" />
<path d="M14.1839 28.7013
L14.4863 28.7013
" />
<path d="M14.4863 28.7013
L14.6072 28.7618
" />
<path d="M14.6072 28.7618
L14.6677 28.8223
" />
<path d="M14.6677 28.8223
L14.7282 28.9432
" />
<path d="M14.7282 28.9432
L14.7282 29.0642
" />
<path d="M14.7282 29.0642
L14.6677 29.2456
" />
<path d="M14.6677 29.2456
L13.9420 29.9713
" />
<path d="M13.9420 29.9713
L14.7282 29.9713
" />
<path d="M15.5143 28.7013
L15.6353 28.7013
" />
<path d="M15.6353 28.7013
L15.7562 28.7618
" />
<path d="M15.7562 28.7618
L15.8167 28.8223
" />
<path d="M15.8167 28.8223
L15.8772 28.9432
" />
<path d="M15.8772 28.9432
L15.9377 29.1851
" />
<path d="M15.9377 29.1851
L15.9377 29.4875
" />
<path d="M15.9377 29.4875
L15.8772 29.7294
" />
<path d="M15.8772 29.7294
L15.8167 29.8504
" />
<path d="M15.8167 29.8504
L15.7562 29.9109
" />
<path d="M15.7562 29.9109
L15.6353 29.9713
" />
<path d="M15.6353 29.9713
L15.5143 29.9713
" />
<path d="M15.5143 29.9713
L15.3934 29.9109
" />
<path d="M15.3934 29.9109
L15.3329 29.8504
" />
<path d="M15.3329 29.8504
L15.2724 29.7294
" />
<path d="M15.2724 29.7294
L15.2120 29.4875
" />
<path d="M15.2120 29.4875
L15.2120 29.1851
" />
<path d="M15.2120 29.1851
L15.2724 28.9432
" />
<path d="M15.2724 28.9432
L15.3329 28.8223
" />
<path d="M15.3329 28.8223
L15.3934 28.7618
" />
<path d="M15.3934 28.7618
L15.5143 28.7013
" />
</g></g>
<g style="fill:#840000; fill-opacity:0.0; 
stroke:#840000; stroke-width:0.1524; stroke-opacity:1; 
stroke-linecap:round; stroke-linejoin:round;">
<path d="M7.9851 32.9208
L4.1751 32.9208
" />
</g>
<g style="fill:#A90000; fill-opacity:0.0; 
stroke:#A90000; stroke-width:0.1524; stroke-opacity:1; 
stroke-linecap:round; stroke-linejoin:round;">
<text x="6.0801" y="32.6668"
textLength="2.5460" font-size="1.6933" lengthAdjust="spacingAndGlyphs"
text-anchor="middle" opacity="0">21</text>
<g class="stroked-text"><desc>21</desc>
<path d="M5.1125 31.3623
L5.1729 31.3018
" />
<path d="M5.1729 31.3018
L5.2939 31.2413
" />
<path d="M5.2939 31.2413
L5.5963 31.2413
" />
<path d="M5.5963 31.2413
L5.7172 31.3018
" />
<path d="M5.7172 31.3018
L5.7777 31.3623
" />
<path d="M5.7777 31.3623
L5.8382 31.4832
" />
<path d="M5.8382 31.4832
L5.8382 31.6042
" />
<path d="M5.8382 31.6042
L5.7777 31.7856
" />
<path d="M5.7777 31.7856
L5.0520 32.5113
" />
<path d="M5.0520 32.5113
L5.8382 32.5113
" />
<path d="M7.0477 32.5113
L6.3220 32.5113
" />
<path d="M6.6848 32.5113
L6.6848 31.2413
" />
<path d="M6.6848 31.2413
L6.5639 31.4228
" />
<path d="M6.5639 31.4228
L6.4429 31.5437
" />
<path d="M6.4429 31.5437
L6.3220 31.6042
" />
</g></g>
<g style="fill:#840000; fill-opacity:0.0; 
stroke:#840000; stroke-width:0.1524; stroke-opacity:1; 
stroke-linecap:round; stroke-linejoin:round;">
<path d="M13.0651 32.9208
L16.8751 32.9208
" />
</g>
<g style="fill:#A90000; fill-opacity:0.0; 
stroke:#A90000; stroke-width:0.1524; stroke-opacity:1; 
stroke-linecap:round; stroke-linejoin:round;">
<text x="14.9701" y="32.6668"
textLength="2.5460" font-size="1.6933" lengthAdjust="spacingAndGlyphs"
text-anchor="middle" opacity="0">22</text>
<g class="stroked-text"><desc>22</desc>
<path d="M14.0025 31.3623
L14.0629 31.3018
" />
<path d="M14.0629 31.3018
L14.1839 31.2413
" />
<path d="M14.1839 31.2413
L14.4863 31.2413
" />
<path d="M14.4863 31.2413
L14.6072 31.3018
" />
<path d="M14.6072 31.3018
L14.6677 31.3623
" />
<path d="M14.6677 31.3623
L14.7282 31.4832
" />
<path d="M14.7282 31.4832
L14.7282 31.6042
" />
<path d="M14.7282 31.6042
L14.6677 31.7856
" />
<path d="M14.6677 31.7856
L13.9420 32.5113
" />
<path d="M13.9420 32.5113
L14.7282 32.5113
" />
<path d="M15.2120 31.3623
L15.2724 31.3018
" />
<path d="M15.2724 31.3018
L15.3934 31.2413
" />
<path d="M15.3934 31.2413
L15.6958 31.2413
" />
<path d="M15.6958 31.2413
L15.8167 31.3018
" />
<path d="M15.8167 31.3018
L15.8772 31.3623
" />
<path d="M15.8772 31.3623
L15.9377 31.4832
" />
<path d="M15.9377 31.4832
L15.9377 31.6042
" />
<path d="M15.9377 31.6042
L15.8772 31.7856
" />
<path d="M15.8772 31.7856
L15.1515 32.5113
" />
<path d="M15.1515 32.5113
L15.9377 32.5113
" />
</g></g>
<g style="fill:#840000; fill-opacity:0.0; 
stroke:#840000; stroke-width:0.1524; stroke-opacity:1; 
stroke-linecap:round; stroke-linejoin:round;">
<path d="M7.9851 35.4608
L4.1751 35.4608
" />
</g>
<g style="fill:#A90000; fill-opacity:0.0; 
stroke:#A90000; stroke-width:0.1524; stroke-opacity:1; 
stroke-linecap:round; stroke-linejoin:round;">
<text x="6.0801" y="35.2068"
textLength="2.5460" font-size="1.6933" lengthAdjust="spacingAndGlyphs"
text-anchor="middle" opacity="0">23</text>
<g class="stroked-text"><desc>23</desc>
<path d="M5.1125 33.9023
L5.1729 33.8418
" />
<path d="M5.1729 33.8418
L5.2939 33.7813
" />
<path d="M5.2939 33.7813
L5.5963 33.7813
" />
<path d="M5.5963 33.7813
L5.7172 33.8418
" />
<path d="M5.7172 33.8418
L5.7777 33.9023
" />
<path d="M5.7777 33.9023
L5.8382 34.0232
" />
<path d="M5.8382 34.0232
L5.8382 34.1442
" />
<path d="M5.8382 34.1442
L5.7777 34.3256
" />
<path d="M5.7777 34.3256
L5.0520 35.0513
" />
<path d="M5.0520 35.0513
L5.8382 35.0513
" />
<path d="M6.2615 33.7813
L7.0477 33.7813
" />
<path d="M7.0477 33.7813
L6.6243 34.2651
" />
<path d="M6.6243 34.2651
L6.8058 34.2651
" />
<path d="M6.8058 34.2651
L6.9267 34.3256
" />
<path d="M6.9267 34.3256
L6.9872 34.3861
" />
<path d="M6.9872 34.3861
L7.0477 34.5070
" />
<path d="M7.0477 34.5070
L7.0477 34.8094
" />
<path d="M7.0477 34.8094
L6.9872 34.9304
" />
<path d="M6.9872 34.9304
L6.9267 34.9909
" />
<path d="M6.9267 34.9909
L6.8058 35.0513
" />
<path d="M6.8058 35.0513
L6.4429 35.0513
" />
<path d="M6.4429 35.0513
L6.3220 34.9909
" />
<path d="M6.3220 34.9909
L6.2615 34.9304
" />
</g></g>
<g style="fill:#840000; fill-opacity:0.0; 
stroke:#840000; stroke-width:0.1524; stroke-opacity:1; 
stroke-linecap:round; stroke-linejoin:round;">
<path d="M13.0651 35.4608
L16.8751 35.4608
" />
</g>
<g style="fill:#A90000; fill-opacity:0.0; 
stroke:#A90000; stroke-width:0.1524; stroke-opacity:1; 
stroke-linecap:round; stroke-linejoin:round;">
<text x="14.9701" y="35.2068"
textLength="2.5460" font-size="1.6933" lengthAdjust="spacingAndGlyphs"
text-anchor="middle" opacity="0">24</text>
<g class="stroked-text"><desc>24</desc>
<path d="M14.0025 33.9023
L14.0629 33.8418
" />
<path d="M14.0629 33.8418
L14.1839 33.7813
" />
<path d="M14.1839 33.7813
L14.4863 33.7813
" />
<path d="M14.4863 33.7813
L14.6072 33.8418
" />
<path d="M14.6072 33.8418
L14.6677 33.9023
" />
<path d="M14.6677 33.9023
L14.7282 34.0232
" />
<path d="M14.7282 34.0232
L14.7282 34.1442
" />
<path d="M14.7282 34.1442
L14.6677 34.3256
" />
<path d="M14.6677 34.3256
L13.9420 35.0513
" />
<path d="M13.9420 35.0513
L14.7282 35.0513
" />
<path d="M15.8167 34.2047
L15.8167 35.0513
" />
<path d="M15.5143 33.7209
L15.2120 34.6280
" />
<path d="M15.2120 34.6280
L15.9981 34.6280
" />
</g></g>
<g style="fill:#840000; fill-opacity:0.0; 
stroke:#840000; stroke-width:0.1524; stroke-opacity:1; 
stroke-linecap:round; stroke-linejoin:round;">
<path d="M7.9851 38.0008
L4.1751 38.0008
" />
</g>
<g style="fill:#A90000; fill-opacity:0.0; 
stroke:#A90000; stroke-width:0.1524; stroke-opacity:1; 
stroke-linecap:round; stroke-linejoin:round;">
<text x="6.0801" y="37.7468"
textLength="2.5460" font-size="1.6933" lengthAdjust="spacingAndGlyphs"
text-anchor="middle" opacity="0">25</text>
<g class="stroked-text"><desc>25</desc>
<path d="M5.1125 36.4423
L5.1729 36.3818
" />
<path d="M5.1729 36.3818
L5.2939 36.3213
" />
<path d="M5.2939 36.3213
L5.5963 36.3213
" />
<path d="M5.5963 36.3213
L5.7172 36.3818
" />
<path d="M5.7172 36.3818
L5.7777 36.4423
" />
<path d="M5.7777 36.4423
L5.8382 36.5632
" />
<path d="M5.8382 36.5632
L5.8382 36.6842
" />
<path d="M5.8382 36.6842
L5.7777 36.8656
" />
<path d="M5.7777 36.8656
L5.0520 37.5913
" />
<path d="M5.0520 37.5913
L5.8382 37.5913
" />
<path d="M6.9872 36.3213
L6.3824 36.3213
" />
<path d="M6.3824 36.3213
L6.3220 36.9261
" />
<path d="M6.3220 36.9261
L6.3824 36.8656
" />
<path d="M6.3824 36.8656
L6.5034 36.8051
" />
<path d="M6.5034 36.8051
L6.8058 36.8051
" />
<path d="M6.8058 36.8051
L6.9267 36.8656
" />
<path d="M6.9267 36.8656
L6.9872 36.9261
" />
<path d="M6.9872 36.9261
L7.0477 37.0470
" />
<path d="M7.0477 37.0470
L7.0477 37.3494
" />
<path d="M7.0477 37.3494
L6.9872 37.4704
" />
<path d="M6.9872 37.4704
L6.9267 37.5309
" />
<path d="M6.9267 37.5309
L6.8058 37.5913
" />
<path d="M6.8058 37.5913
L6.5034 37.5913
" />
<path d="M6.5034 37.5913
L6.3824 37.5309
" />
<path d="M6.3824 37.5309
L6.3220 37.4704
" />
</g></g>
<g style="fill:#840000; fill-opacity:0.0; 
stroke:#840000; stroke-width:0.1524; stroke-opacity:1; 
stroke-linecap:round; stroke-linejoin:round;">
<path d="M13.0651 38.0008
L16.8751 38.0008
" />
</g>
<g style="fill:#A90000; fill-opacity:0.0; 
stroke:#A90000; stroke-width:0.1524; stroke-opacity:1; 
stroke-linecap:round; stroke-linejoin:round;">
<text x="14.9701" y="37.7468"
textLength="2.5460" font-size="1.6933" lengthAdjust="spacingAndGlyphs"
text-anchor="middle" opacity="0">26</text>
<g class="stroked-text"><desc>26</desc>
<path d="M14.0025 36.4423
L14.0629 36.3818
" />
<path d="M14.0629 36.3818
L14.1839 36.3213
" />
<path d="M14.1839 36.3213
L14.4863 36.3213
" />
<path d="M14.4863 36.3213
L14.6072 36.3818
" />
<path d="M14.6072 36.3818
L14.6677 36.4423
" />
<path d="M14.6677 36.4423
L14.7282 36.5632
" />
<path d="M14.7282 36.5632
L14.7282 36.6842
" />
<path d="M14.7282 36.6842
L14.6677 36.8656
" />
<path d="M14.6677 36.8656
L13.9420 37.5913
" />
<path d="M13.9420 37.5913
L14.7282 37.5913
" />
<path d="M15.8167 36.3213
L15.5748 36.3213
" />
<path d="M15.5748 36.3213
L15.4539 36.3818
" />
<path d="M15.4539 36.3818
L15.3934 36.4423
" />
<path d="M15.3934 36.4423
L15.2724 36.6237
" />
<path d="M15.2724 36.6237
L15.2120 36.8656
" />
<path d="M15.2120 36.8656
L15.2120 37.3494
" />
<path d="M15.2120 37.3494
L15.2724 37.4704
" />
<path d="M15.2724 37.4704
L15.3329 37.5309
" />
<path d="M15.3329 37.5309
L15.4539 37.5913
" />
<path d="M15.4539 37.5913
L15.6958 37.5913
" />
<path d="M15.6958 37.5913
L15.8167 37.5309
" />
<path d="M15.8167 37.5309
L15.8772 37.4704
" />
<path d="M15.8772 37.4704
L15.9377 37.3494
" />
<path d="M15.9377 37.3494
L15.9377 37.0470
" />
<path d="M15.9377 37.0470
L15.8772 36.9261
" />
<path d="M15.8772 36.9261
L15.8167 36.8656
" />
<path d="M15.8167 36.8656
L15.6958 36.8051
" />
<path d="M15.6958 36.8051
L15.4539 36.8051
" />
<path d="M15.4539 36.8051
L15.3329 36.8656
" />
<path d="M15.3329 36.8656
L15.2724 36.9261
" />
<path d="M15.2724 36.9261
L15.2120 37.0470
" />
</g></g>
<g style="fill:#840000; fill-opacity:0.0; 
stroke:#840000; stroke-width:0.1524; stroke-opacity:1; 
stroke-linecap:round; stroke-linejoin:round;">
<path d="M7.9851 40.5408
L4.1751 40.5408
" />
</g>
<g style="fill:#A90000; fill-opacity:0.0; 
stroke:#A90000; stroke-width:0.1524; stroke-opacity:1; 
stroke-linecap:round; stroke-linejoin:round;">
<text x="6.0801" y="40.2868"
textLength="2.5460" font-size="1.6933" lengthAdjust="spacingAndGlyphs"
text-anchor="middle" opacity="0">27</text>
<g class="stroked-text"><desc>27</desc>
<path d="M5.1125 38.9823
L5.1729 38.9218
" />
<path d="M5.1729 38.9218
L5.2939 38.8613
" />
<path d="M5.2939 38.8613
L5.5963 38.8613
" />
<path d="M5.5963 38.8613
L5.7172 38.9218
" />
<path d="M5.7172 38.9218
L5.7777 38.9823
" />
<path d="M5.7777 38.9823
L5.8382 39.1032
" />
<path d="M5.8382 39.1032
L5.8382 39.2242
" />
<path d="M5.8382 39.2242
L5.7777 39.4056
" />
<path d="M5.7777 39.4056
L5.0520 40.1313
" />
<path d="M5.0520 40.1313
L5.8382 40.1313
" />
<path d="M6.2615 38.8613
L7.1081 38.8613
" />
<path d="M7.1081 38.8613
L6.5639 40.1313
" />
</g></g>
<g style="fill:#840000; fill-opacity:0.0; 
stroke:#840000; stroke-width:0.1524; stroke-opacity:1; 
stroke-linecap:round; stroke-linejoin:round;">
<path d="M13.0651 40.5408
L16.8751 40.5408
" />
</g>
<g style="fill:#A90000; fill-opacity:0.0; 
stroke:#A90000; stroke-width:0.1524; stroke-opacity:1; 
stroke-linecap:round; stroke-linejoin:round;">
<text x="14.9701" y="40.2868"
textLength="2.5460" font-size="1.6933" lengthAdjust="spacingAndGlyphs"
text-anchor="middle" opacity="0">28</text>
<g class="stroked-text"><desc>28</desc>
<path d="M14.0025 38.9823
L14.0629 38.9218
" />
<path d="M14.0629 38.9218
L14.1839 38.8613
" />
<path d="M14.1839 38.8613
L14.4863 38.8613
" />
<path d="M14.4863 38.8613
L14.6072 38.9218
" />
<path d="M14.6072 38.9218
L14.6677 38.9823
" />
<path d="M14.6677 38.9823
L14.7282 39.1032
" />
<path d="M14.7282 39.1032
L14.7282 39.2242
" />
<path d="M14.7282 39.2242
L14.6677 39.4056
" />
<path d="M14.6677 39.4056
L13.9420 40.1313
" />
<path d="M13.9420 40.1313
L14.7282 40.1313
" />
<path d="M15.4539 39.4056
L15.3329 39.3451
" />
<path d="M15.3329 39.3451
L15.2724 39.2847
" />
<path d="M15.2724 39.2847
L15.2120 39.1637
" />
<path d="M15.2120 39.1637
L15.2120 39.1032
" />
<path d="M15.2120 39.1032
L15.2724 38.9823
" />
<path d="M15.2724 38.9823
L15.3329 38.9218
" />
<path d="M15.3329 38.9218
L15.4539 38.8613
" />
<path d="M15.4539 38.8613
L15.6958 38.8613
" />
<path d="M15.6958 38.8613
L15.8167 38.9218
" />
<path d="M15.8167 38.9218
L15.8772 38.9823
" />
<path d="M15.8772 38.9823
L15.9377 39.1032
" />
<path d="M15.9377 39.1032
L15.9377 39.1637
" />
<path d="M15.9377 39.1637
L15.8772 39.2847
" />
<path d="M15.8772 39.2847
L15.8167 39.3451
" />
<path d="M15.8167 39.3451
L15.6958 39.4056
" />
<path d="M15.6958 39.4056
L15.4539 39.4056
" />
<path d="M15.4539 39.4056
L15.3329 39.4661
" />
<path d="M15.3329 39.4661
L15.2724 39.5266
" />
<path d="M15.2724 39.5266
L15.2120 39.6475
" />
<path d="M15.2120 39.6475
L15.2120 39.8894
" />
<path d="M15.2120 39.8894
L15.2724 40.0104
" />
<path d="M15.2724 40.0104
L15.3329 40.0709
" />
<path d="M15.3329 40.0709
L15.4539 40.1313
" />
<path d="M15.4539 40.1313
L15.6958 40.1313
" />
<path d="M15.6958 40.1313
L15.8167 40.0709
" />
<path d="M15.8167 40.0709
L15.8772 40.0104
" />
<path d="M15.8772 40.0104
L15.9377 39.8894
" />
<path d="M15.9377 39.8894
L15.9377 39.6475
" />
<path d="M15.9377 39.6475
L15.8772 39.5266
" />
<path d="M15.8772 39.5266
L15.8167 39.4661
" />
<path d="M15.8167 39.4661
L15.6958 39.4056
" />
</g></g>
<g style="fill:#840000; fill-opacity:0.0; 
stroke:#840000; stroke-width:0.1524; stroke-opacity:1; 
stroke-linecap:round; stroke-linejoin:round;">
<path d="M7.9851 10.0608
L4.1751 10.0608
" />
</g>
<g style="fill:#A90000; fill-opacity:0.0; 
stroke:#A90000; stroke-width:0.1524; stroke-opacity:1; 
stroke-linecap:round; stroke-linejoin:round;">
<text x="6.0801" y="9.8068"
textLength="1.3365" font-size="1.6933" lengthAdjust="spacingAndGlyphs"
text-anchor="middle" opacity="0">3</text>
<g class="stroked-text"><desc>3</desc>
<path d="M5.6568 8.3813
L6.4430 8.3813
" />
<path d="M6.4430 8.3813
L6.0196 8.8651
" />
<path d="M6.0196 8.8651
L6.2011 8.8651
" />
<path d="M6.2011 8.8651
L6.3220 8.9256
" />
<path d="M6.3220 8.9256
L6.3825 8.9861
" />
<path d="M6.3825 8.9861
L6.4430 9.1070
" />
<path d="M6.4430 9.1070
L6.4430 9.4094
" />
<path d="M6.4430 9.4094
L6.3825 9.5304
" />
<path d="M6.3825 9.5304
L6.3220 9.5909
" />
<path d="M6.3220 9.5909
L6.2011 9.6513
" />
<path d="M6.2011 9.6513
L5.8382 9.6513
" />
<path d="M5.8382 9.6513
L5.7173 9.5909
" />
<path d="M5.7173 9.5909
L5.6568 9.5304
" />
</g></g>
<g style="fill:#840000; fill-opacity:0.0; 
stroke:#840000; stroke-width:0.1524; stroke-opacity:1; 
stroke-linecap:round; stroke-linejoin:round;">
<path d="M13.0651 10.0608
L16.8751 10.0608
" />
</g>
<g style="fill:#A90000; fill-opacity:0.0; 
stroke:#A90000; stroke-width:0.1524; stroke-opacity:1; 
stroke-linecap:round; stroke-linejoin:round;">
<text x="14.9701" y="9.8068"
textLength="1.3365" font-size="1.6933" lengthAdjust="spacingAndGlyphs"
text-anchor="middle" opacity="0">4</text>
<g class="stroked-text"><desc>4</desc>
<path d="M15.2120 8.8047
L15.2120 9.6513
" />
<path d="M14.9096 8.3209
L14.6073 9.2280
" />
<path d="M14.6073 9.2280
L15.3934 9.2280
" />
</g></g>
<g style="fill:#840000; fill-opacity:0.0; 
stroke:#840000; stroke-width:0.1524; stroke-opacity:1; 
stroke-linecap:round; stroke-linejoin:round;">
<path d="M7.9851 12.6008
L4.1751 12.6008
" />
</g>
<g style="fill:#A90000; fill-opacity:0.0; 
stroke:#A90000; stroke-width:0.1524; stroke-opacity:1; 
stroke-linecap:round; stroke-linejoin:round;">
<text x="6.0801" y="12.3468"
textLength="1.3365" font-size="1.6933" lengthAdjust="spacingAndGlyphs"
text-anchor="middle" opacity="0">5</text>
<g class="stroked-text"><desc>5</desc>
<path d="M6.3825 10.9213
L5.7777 10.9213
" />
<path d="M5.7777 10.9213
L5.7173 11.5261
" />
<path d="M5.7173 11.5261
L5.7777 11.4656
" />
<path d="M5.7777 11.4656
L5.8987 11.4051
" />
<path d="M5.8987 11.4051
L6.2011 11.4051
" />
<path d="M6.2011 11.4051
L6.3220 11.4656
" />
<path d="M6.3220 11.4656
L6.3825 11.5261
" />
<path d="M6.3825 11.5261
L6.4430 11.6470
" />
<path d="M6.4430 11.6470
L6.4430 11.9494
" />
<path d="M6.4430 11.9494
L6.3825 12.0704
" />
<path d="M6.3825 12.0704
L6.3220 12.1309
" />
<path d="M6.3220 12.1309
L6.2011 12.1913
" />
<path d="M6.2011 12.1913
L5.8987 12.1913
" />
<path d="M5.8987 12.1913
L5.7777 12.1309
" />
<path d="M5.7777 12.1309
L5.7173 12.0704
" />
</g></g>
<g style="fill:#840000; fill-opacity:0.0; 
stroke:#840000; stroke-width:0.1524; stroke-opacity:1; 
stroke-linecap:round; stroke-linejoin:round;">
<path d="M13.0651 12.6008
L16.8751 12.6008
" />
</g>
<g style="fill:#A90000; fill-opacity:0.0; 
stroke:#A90000; stroke-width:0.1524; stroke-opacity:1; 
stroke-linecap:round; stroke-linejoin:round;">
<text x="14.9701" y="12.3468"
textLength="1.3365" font-size="1.6933" lengthAdjust="spacingAndGlyphs"
text-anchor="middle" opacity="0">6</text>
<g class="stroked-text"><desc>6</desc>
<path d="M15.2120 10.9213
L14.9701 10.9213
" />
<path d="M14.9701 10.9213
L14.8492 10.9818
" />
<path d="M14.8492 10.9818
L14.7887 11.0423
" />
<path d="M14.7887 11.0423
L14.6677 11.2237
" />
<path d="M14.6677 11.2237
L14.6073 11.4656
" />
<path d="M14.6073 11.4656
L14.6073 11.9494
" />
<path d="M14.6073 11.9494
L14.6677 12.0704
" />
<path d="M14.6677 12.0704
L14.7282 12.1309
" />
<path d="M14.7282 12.1309
L14.8492 12.1913
" />
<path d="M14.8492 12.1913
L15.0911 12.1913
" />
<path d="M15.0911 12.1913
L15.2120 12.1309
" />
<path d="M15.2120 12.1309
L15.2725 12.0704
" />
<path d="M15.2725 12.0704
L15.3330 11.9494
" />
<path d="M15.3330 11.9494
L15.3330 11.6470
" />
<path d="M15.3330 11.6470
L15.2725 11.5261
" />
<path d="M15.2725 11.5261
L15.2120 11.4656
" />
<path d="M15.2120 11.4656
L15.0911 11.4051
" />
<path d="M15.0911 11.4051
L14.8492 11.4051
" />
<path d="M14.8492 11.4051
L14.7282 11.4656
" />
<path d="M14.7282 11.4656
L14.6677 11.5261
" />
<path d="M14.6677 11.5261
L14.6073 11.6470
" />
</g></g>
<g style="fill:#840000; fill-opacity:0.0; 
stroke:#840000; stroke-width:0.1524; stroke-opacity:1; 
stroke-linecap:round; stroke-linejoin:round;">
<path d="M7.9851 15.1408
L4.1751 15.1408
" />
</g>
<g style="fill:#A90000; fill-opacity:0.0; 
stroke:#A90000; stroke-width:0.1524; stroke-opacity:1; 
stroke-linecap:round; stroke-linejoin:round;">
<text x="6.0801" y="14.8868"
textLength="1.3365" font-size="1.6933" lengthAdjust="spacingAndGlyphs"
text-anchor="middle" opacity="0">7</text>
<g class="stroked-text"><desc>7</desc>
<path d="M5.6568 13.4613
L6.5034 13.4613
" />
<path d="M6.5034 13.4613
L5.9592 14.7313
" />
</g></g>
<g style="fill:#840000; fill-opacity:0.0; 
stroke:#840000; stroke-width:0.1524; stroke-opacity:1; 
stroke-linecap:round; stroke-linejoin:round;">
<path d="M13.0651 15.1408
L16.8751 15.1408
" />
</g>
<g style="fill:#A90000; fill-opacity:0.0; 
stroke:#A90000; stroke-width:0.1524; stroke-opacity:1; 
stroke-linecap:round; stroke-linejoin:round;">
<text x="14.9701" y="14.8868"
textLength="1.3365" font-size="1.6933" lengthAdjust="spacingAndGlyphs"
text-anchor="middle" opacity="0">8</text>
<g class="stroked-text"><desc>8</desc>
<path d="M14.8492 14.0056
L14.7282 13.9451
" />
<path d="M14.7282 13.9451
L14.6677 13.8847
" />
<path d="M14.6677 13.8847
L14.6073 13.7637
" />
<path d="M14.6073 13.7637
L14.6073 13.7032
" />
<path d="M14.6073 13.7032
L14.6677 13.5823
" />
<path d="M14.6677 13.5823
L14.7282 13.5218
" />
<path d="M14.7282 13.5218
L14.8492 13.4613
" />
<path d="M14.8492 13.4613
L15.0911 13.4613
" />
<path d="M15.0911 13.4613
L15.2120 13.5218
" />
<path d="M15.2120 13.5218
L15.2725 13.5823
" />
<path d="M15.2725 13.5823
L15.3330 13.7032
" />
<path d="M15.3330 13.7032
L15.3330 13.7637
" />
<path d="M15.3330 13.7637
L15.2725 13.8847
" />
<path d="M15.2725 13.8847
L15.2120 13.9451
" />
<path d="M15.2120 13.9451
L15.0911 14.0056
" />
<path d="M15.0911 14.0056
L14.8492 14.0056
" />
<path d="M14.8492 14.0056
L14.7282 14.0661
" />
<path d="M14.7282 14.0661
L14.6677 14.1266
" />
<path d="M14.6677 14.1266
L14.6073 14.2475
" />
<path d="M14.6073 14.2475
L14.6073 14.4894
" />
<path d="M14.6073 14.4894
L14.6677 14.6104
" />
<path d="M14.6677 14.6104
L14.7282 14.6709
" />
<path d="M14.7282 14.6709
L14.8492 14.7313
" />
<path d="M14.8492 14.7313
L15.0911 14.7313
" />
<path d="M15.0911 14.7313
L15.2120 14.6709
" />
<path d="M15.2120 14.6709
L15.2725 14.6104
" />
<path d="M15.2725 14.6104
L15.3330 14.4894
" />
<path d="M15.3330 14.4894
L15.3330 14.2475
" />
<path d="M15.3330 14.2475
L15.2725 14.1266
" />
<path d="M15.2725 14.1266
L15.2120 14.0661
" />
<path d="M15.2120 14.0661
L15.0911 14.0056
" />
</g></g>
<g style="fill:#840000; fill-opacity:0.0; 
stroke:#840000; stroke-width:0.1524; stroke-opacity:1; 
stroke-linecap:round; stroke-linejoin:round;">
<path d="M7.9851 17.6808
L4.1751 17.6808
" />
</g>
<g style="fill:#A90000; fill-opacity:0.0; 
stroke:#A90000; stroke-width:0.1524; stroke-opacity:1; 
stroke-linecap:round; stroke-linejoin:round;">
<text x="6.0801" y="17.4268"
textLength="1.3365" font-size="1.6933" lengthAdjust="spacingAndGlyphs"
text-anchor="middle" opacity="0">9</text>
<g class="stroked-text"><desc>9</desc>
<path d="M5.8382 17.2713
L6.0801 17.2713
" />
<path d="M6.0801 17.2713
L6.2011 17.2109
" />
<path d="M6.2011 17.2109
L6.2615 17.1504
" />
<path d="M6.2615 17.1504
L6.3825 16.9689
" />
<path d="M6.3825 16.9689
L6.4430 16.7270
" />
<path d="M6.4430 16.7270
L6.4430 16.2432
" />
<path d="M6.4430 16.2432
L6.3825 16.1223
" />
<path d="M6.3825 16.1223
L6.3220 16.0618
" />
<path d="M6.3220 16.0618
L6.2011 16.0013
" />
<path d="M6.2011 16.0013
L5.9592 16.0013
" />
<path d="M5.9592 16.0013
L5.8382 16.0618
" />
<path d="M5.8382 16.0618
L5.7777 16.1223
" />
<path d="M5.7777 16.1223
L5.7173 16.2432
" />
<path d="M5.7173 16.2432
L5.7173 16.5456
" />
<path d="M5.7173 16.5456
L5.7777 16.6666
" />
<path d="M5.7777 16.6666
L5.8382 16.7270
" />
<path d="M5.8382 16.7270
L5.9592 16.7875
" />
<path d="M5.9592 16.7875
L6.2011 16.7875
" />
<path d="M6.2011 16.7875
L6.3220 16.7270
" />
<path d="M6.3220 16.7270
L6.3825 16.6666
" />
<path d="M6.3825 16.6666
L6.4430 16.5456
" />
</g></g>
<g style="fill:#840000; fill-opacity:0.0; 
stroke:#840000; stroke-width:0.1524; stroke-opacity:1; 
stroke-linecap:round; stroke-linejoin:round;">
<path d="M10.5251 42.5728
L10.5251 45.6208
" />
</g>
<g style="fill:#A90000; fill-opacity:0.0; 
stroke:#A90000; stroke-width:0.1524; stroke-opacity:1; 
stroke-linecap:round; stroke-linejoin:round;">
<g transform="rotate(-90.000000 10.2711 44.0968)">
<text x="10.2711" y="44.0968"
textLength="2.8484" font-size="1.6933" lengthAdjust="spacingAndGlyphs"
text-anchor="middle" opacity="0">MP</text>
</g>
<g class="stroked-text"><desc>MP</desc>
<path d="M10.1156 45.1551
L8.8456 45.1551
" />
<path d="M8.8456 45.1551
L9.7528 44.7317
" />
<path d="M9.7528 44.7317
L8.8456 44.3084
" />
<path d="M8.8456 44.3084
L10.1156 44.3084
" />
<path d="M10.1156 43.7037
L8.8456 43.7037
" />
<path d="M8.8456 43.7037
L8.8456 43.2199
" />
<path d="M8.8456 43.2199
L8.9061 43.0989
" />
<path d="M8.9061 43.0989
L8.9666 43.0384
" />
<path d="M8.9666 43.0384
L9.0875 42.9780
" />
<path d="M9.0875 42.9780
L9.2690 42.9780
" />
<path d="M9.2690 42.9780
L9.3899 43.0384
" />
<path d="M9.3899 43.0384
L9.4504 43.0989
" />
<path d="M9.4504 43.0989
L9.5109 43.2199
" />
<path d="M9.5109 43.2199
L9.5109 43.7037
" />
</g></g>
<g style="fill:#840084; fill-opacity:0.0; 
stroke:#840084; stroke-width:0.1524; stroke-opacity:1; 
stroke-linecap:round; stroke-linejoin:round;">
</g>
<g style="fill:#006464; fill-opacity:0.0; 
stroke:#006464; stroke-width:0.1524; stroke-opacity:1; 
stroke-linecap:round; stroke-linejoin:round;">
</g>
<g style="fill:#006464; fill-opacity:0.0; 
stroke:#006464; stroke-width:0.1588; stroke-opacity:1; 
stroke-linecap:round; stroke-linejoin:round;">
<text x="10.5251" y="5.6158"
textLength="2.1992" font-size="1.6933" lengthAdjust="spacingAndGlyphs"
text-anchor="middle" opacity="0">J?</text>
<g class="stroked-text"><desc>J?</desc>
<path d="M10.1622 4.2983
L10.1622 5.2055
" />
<path d="M10.1622 5.2055
L10.1017 5.3869
" />
<path d="M10.1017 5.3869
L9.9808 5.5079
" />
<path d="M9.9808 5.5079
L9.7993 5.5683
" />
<path d="M9.7993 5.5683
L9.6784 5.5683
" />
<path d="M10.9484 5.4474
L11.0088 5.5079
" />
<path d="M11.0088 5.5079
L10.9484 5.5683
" />
<path d="M10.9484 5.5683
L10.8879 5.5079
" />
<path d="M10.8879 5.5079
L10.9484 5.4474
" />
<path d="M10.9484 5.4474
L10.9484 5.5683
" />
<path d="M10.7065 4.3588
L10.8274 4.2983
" />
<path d="M10.8274 4.2983
L11.1298 4.2983
" />
<path d="M11.1298 4.2983
L11.2507 4.3588
" />
<path d="M11.2507 4.3588
L11.3112 4.4798
" />
<path d="M11.3112 4.4798
L11.3112 4.6007
" />
<path d="M11.3112 4.6007
L11.2507 4.7217
" />
<path d="M11.2507 4.7217
L11.1903 4.7821
" />
<path d="M11.1903 4.7821
L11.0693 4.8426
" />
<path d="M11.0693 4.8426
L11.0088 4.9031
" />
<path d="M11.0088 4.9031
L10.9484 5.0240
" />
<path d="M10.9484 5.0240
L10.9484 5.0845
" />
</g><text x="28.8600" y="43.7158"
textLength="34.1299" font-size="1.6933" lengthAdjust="spacingAndGlyphs"
text-anchor="middle" opacity="0">Conn_02x14_Odd_Even_MountingPin</text>
<g class="stroked-text"><desc>Conn_02x14_Odd_Even_MountingPin</desc>
<path d="M12.8946 43.5474
L12.8342 43.6079
" />
<path d="M12.8342 43.6079
L12.6527 43.6683
" />
<path d="M12.6527 43.6683
L12.5318 43.6683
" />
<path d="M12.5318 43.6683
L12.3504 43.6079
" />
<path d="M12.3504 43.6079
L12.2294 43.4869
" />
<path d="M12.2294 43.4869
L12.1689 43.3659
" />
<path d="M12.1689 43.3659
L12.1085 43.1240
" />
<path d="M12.1085 43.1240
L12.1085 42.9426
" />
<path d="M12.1085 42.9426
L12.1689 42.7007
" />
<path d="M12.1689 42.7007
L12.2294 42.5798
" />
<path d="M12.2294 42.5798
L12.3504 42.4588
" />
<path d="M12.3504 42.4588
L12.5318 42.3983
" />
<path d="M12.5318 42.3983
L12.6527 42.3983
" />
<path d="M12.6527 42.3983
L12.8342 42.4588
" />
<path d="M12.8342 42.4588
L12.8946 42.5193
" />
<path d="M13.6204 43.6683
L13.4994 43.6079
" />
<path d="M13.4994 43.6079
L13.4389 43.5474
" />
<path d="M13.4389 43.5474
L13.3785 43.4264
" />
<path d="M13.3785 43.4264
L13.3785 43.0636
" />
<path d="M13.3785 43.0636
L13.4389 42.9426
" />
<path d="M13.4389 42.9426
L13.4994 42.8821
" />
<path d="M13.4994 42.8821
L13.6204 42.8217
" />
<path d="M13.6204 42.8217
L13.8018 42.8217
" />
<path d="M13.8018 42.8217
L13.9227 42.8821
" />
<path d="M13.9227 42.8821
L13.9832 42.9426
" />
<path d="M13.9832 42.9426
L14.0437 43.0636
" />
<path d="M14.0437 43.0636
L14.0437 43.4264
" />
<path d="M14.0437 43.4264
L13.9832 43.5474
" />
<path d="M13.9832 43.5474
L13.9227 43.6079
" />
<path d="M13.9227 43.6079
L13.8018 43.6683
" />
<path d="M13.8018 43.6683
L13.6204 43.6683
" />
<path d="M14.5879 42.8217
L14.5879 43.6683
" />
<path d="M14.5879 42.9426
L14.6484 42.8821
" />
<path d="M14.6484 42.8821
L14.7694 42.8217
" />
<path d="M14.7694 42.8217
L14.9508 42.8217
" />
<path d="M14.9508 42.8217
L15.0717 42.8821
" />
<path d="M15.0717 42.8821
L15.1322 43.0031
" />
<path d="M15.1322 43.0031
L15.1322 43.6683
" />
<path d="M15.7369 42.8217
L15.7369 43.6683
" />
<path d="M15.7369 42.9426
L15.7974 42.8821
" />
<path d="M15.7974 42.8821
L15.9184 42.8217
" />
<path d="M15.9184 42.8217
L16.0998 42.8217
" />
<path d="M16.0998 42.8217
L16.2207 42.8821
" />
<path d="M16.2207 42.8821
L16.2812 43.0031
" />
<path d="M16.2812 43.0031
L16.2812 43.6683
" />
<path d="M16.5836 43.7893
L17.5512 43.7893
" />
<path d="M18.0954 42.3983
L18.2164 42.3983
" />
<path d="M18.2164 42.3983
L18.3373 42.4588
" />
<path d="M18.3373 42.4588
L18.3978 42.5193
" />
<path d="M18.3978 42.5193
L18.4583 42.6402
" />
<path d="M18.4583 42.6402
L18.5188 42.8821
" />
<path d="M18.5188 42.8821
L18.5188 43.1845
" />
<path d="M18.5188 43.1845
L18.4583 43.4264
" />
<path d="M18.4583 43.4264
L18.3978 43.5474
" />
<path d="M18.3978 43.5474
L18.3373 43.6079
" />
<path d="M18.3373 43.6079
L18.2164 43.6683
" />
<path d="M18.2164 43.6683
L18.0954 43.6683
" />
<path d="M18.0954 43.6683
L17.9745 43.6079
" />
<path d="M17.9745 43.6079
L17.9140 43.5474
" />
<path d="M17.9140 43.5474
L17.8535 43.4264
" />
<path d="M17.8535 43.4264
L17.7931 43.1845
" />
<path d="M17.7931 43.1845
L17.7931 42.8821
" />
<path d="M17.7931 42.8821
L17.8535 42.6402
" />
<path d="M17.8535 42.6402
L17.9140 42.5193
" />
<path d="M17.9140 42.5193
L17.9745 42.4588
" />
<path d="M17.9745 42.4588
L18.0954 42.3983
" />
<path d="M19.0026 42.5193
L19.0630 42.4588
" />
<path d="M19.0630 42.4588
L19.1840 42.3983
" />
<path d="M19.1840 42.3983
L19.4864 42.3983
" />
<path d="M19.4864 42.3983
L19.6073 42.4588
" />
<path d="M19.6073 42.4588
L19.6678 42.5193
" />
<path d="M19.6678 42.5193
L19.7283 42.6402
" />
<path d="M19.7283 42.6402
L19.7283 42.7612
" />
<path d="M19.7283 42.7612
L19.6678 42.9426
" />
<path d="M19.6678 42.9426
L18.9421 43.6683
" />
<path d="M18.9421 43.6683
L19.7283 43.6683
" />
<path d="M20.1516 43.6683
L20.8168 42.8217
" />
<path d="M20.1516 42.8217
L20.8168 43.6683
" />
<path d="M21.9659 43.6683
L21.2402 43.6683
" />
<path d="M21.6030 43.6683
L21.6030 42.3983
" />
<path d="M21.6030 42.3983
L21.4821 42.5798
" />
<path d="M21.4821 42.5798
L21.3611 42.7007
" />
<path d="M21.3611 42.7007
L21.2402 42.7612
" />
<path d="M23.0544 42.8217
L23.0544 43.6683
" />
<path d="M22.7520 42.3379
L22.4497 43.2450
" />
<path d="M22.4497 43.2450
L23.2358 43.2450
" />
<path d="M23.4173 43.7893
L24.3849 43.7893
" />
<path d="M24.9291 42.3983
L25.1710 42.3983
" />
<path d="M25.1710 42.3983
L25.2920 42.4588
" />
<path d="M25.2920 42.4588
L25.4129 42.5798
" />
<path d="M25.4129 42.5798
L25.4734 42.8217
" />
<path d="M25.4734 42.8217
L25.4734 43.2450
" />
<path d="M25.4734 43.2450
L25.4129 43.4869
" />
<path d="M25.4129 43.4869
L25.2920 43.6079
" />
<path d="M25.2920 43.6079
L25.1710 43.6683
" />
<path d="M25.1710 43.6683
L24.9291 43.6683
" />
<path d="M24.9291 43.6683
L24.8082 43.6079
" />
<path d="M24.8082 43.6079
L24.6872 43.4869
" />
<path d="M24.6872 43.4869
L24.6268 43.2450
" />
<path d="M24.6268 43.2450
L24.6268 42.8217
" />
<path d="M24.6268 42.8217
L24.6872 42.5798
" />
<path d="M24.6872 42.5798
L24.8082 42.4588
" />
<path d="M24.8082 42.4588
L24.9291 42.3983
" />
<path d="M26.5620 43.6683
L26.5620 42.3983
" />
<path d="M26.5620 43.6079
L26.4411 43.6683
" />
<path d="M26.4411 43.6683
L26.1992 43.6683
" />
<path d="M26.1992 43.6683
L26.0782 43.6079
" />
<path d="M26.0782 43.6079
L26.0177 43.5474
" />
<path d="M26.0177 43.5474
L25.9573 43.4264
" />
<path d="M25.9573 43.4264
L25.9573 43.0636
" />
<path d="M25.9573 43.0636
L26.0177 42.9426
" />
<path d="M26.0177 42.9426
L26.0782 42.8821
" />
<path d="M26.0782 42.8821
L26.1992 42.8217
" />
<path d="M26.1992 42.8217
L26.4411 42.8217
" />
<path d="M26.4411 42.8217
L26.5620 42.8821
" />
<path d="M27.7110 43.6683
L27.7110 42.3983
" />
<path d="M27.7110 43.6079
L27.5901 43.6683
" />
<path d="M27.5901 43.6683
L27.3482 43.6683
" />
<path d="M27.3482 43.6683
L27.2272 43.6079
" />
<path d="M27.2272 43.6079
L27.1667 43.5474
" />
<path d="M27.1667 43.5474
L27.1063 43.4264
" />
<path d="M27.1063 43.4264
L27.1063 43.0636
" />
<path d="M27.1063 43.0636
L27.1667 42.9426
" />
<path d="M27.1667 42.9426
L27.2272 42.8821
" />
<path d="M27.2272 42.8821
L27.3482 42.8217
" />
<path d="M27.3482 42.8217
L27.5901 42.8217
" />
<path d="M27.5901 42.8217
L27.7110 42.8821
" />
<path d="M28.0134 43.7893
L28.9810 43.7893
" />
<path d="M29.2833 43.0031
L29.7067 43.0031
" />
<path d="M29.8881 43.6683
L29.2833 43.6683
" />
<path d="M29.2833 43.6683
L29.2833 42.3983
" />
<path d="M29.2833 42.3983
L29.8881 42.3983
" />
<path d="M30.3114 42.8217
L30.6138 43.6683
" />
<path d="M30.6138 43.6683
L30.9161 42.8217
" />
<path d="M31.8837 43.6079
L31.7628 43.6683
" />
<path d="M31.7628 43.6683
L31.5209 43.6683
" />
<path d="M31.5209 43.6683
L31.3999 43.6079
" />
<path d="M31.3999 43.6079
L31.3395 43.4869
" />
<path d="M31.3395 43.4869
L31.3395 43.0031
" />
<path d="M31.3395 43.0031
L31.3999 42.8821
" />
<path d="M31.3999 42.8821
L31.5209 42.8217
" />
<path d="M31.5209 42.8217
L31.7628 42.8217
" />
<path d="M31.7628 42.8217
L31.8837 42.8821
" />
<path d="M31.8837 42.8821
L31.9442 43.0031
" />
<path d="M31.9442 43.0031
L31.9442 43.1240
" />
<path d="M31.9442 43.1240
L31.3395 43.2450
" />
<path d="M32.4885 42.8217
L32.4885 43.6683
" />
<path d="M32.4885 42.9426
L32.5490 42.8821
" />
<path d="M32.5490 42.8821
L32.6700 42.8217
" />
<path d="M32.6700 42.8217
L32.8514 42.8217
" />
<path d="M32.8514 42.8217
L32.9723 42.8821
" />
<path d="M32.9723 42.8821
L33.0328 43.0031
" />
<path d="M33.0328 43.0031
L33.0328 43.6683
" />
<path d="M33.3352 43.7893
L34.3028 43.7893
" />
<path d="M34.6051 43.6683
L34.6051 42.3983
" />
<path d="M34.6051 42.3983
L35.0285 43.3055
" />
<path d="M35.0285 43.3055
L35.4518 42.3983
" />
<path d="M35.4518 42.3983
L35.4518 43.6683
" />
<path d="M36.2380 43.6683
L36.1170 43.6079
" />
<path d="M36.1170 43.6079
L36.0565 43.5474
" />
<path d="M36.0565 43.5474
L35.9961 43.4264
" />
<path d="M35.9961 43.4264
L35.9961 43.0636
" />
<path d="M35.9961 43.0636
L36.0565 42.9426
" />
<path d="M36.0565 42.9426
L36.1170 42.8821
" />
<path d="M36.1170 42.8821
L36.2380 42.8217
" />
<path d="M36.2380 42.8217
L36.4194 42.8217
" />
<path d="M36.4194 42.8217
L36.5403 42.8821
" />
<path d="M36.5403 42.8821
L36.6008 42.9426
" />
<path d="M36.6008 42.9426
L36.6613 43.0636
" />
<path d="M36.6613 43.0636
L36.6613 43.4264
" />
<path d="M36.6613 43.4264
L36.6008 43.5474
" />
<path d="M36.6008 43.5474
L36.5403 43.6079
" />
<path d="M36.5403 43.6079
L36.4194 43.6683
" />
<path d="M36.4194 43.6683
L36.2380 43.6683
" />
<path d="M37.7498 42.8217
L37.7498 43.6683
" />
<path d="M37.2055 42.8217
L37.2055 43.4869
" />
<path d="M37.2055 43.4869
L37.2660 43.6079
" />
<path d="M37.2660 43.6079
L37.3870 43.6683
" />
<path d="M37.3870 43.6683
L37.5684 43.6683
" />
<path d="M37.5684 43.6683
L37.6893 43.6079
" />
<path d="M37.6893 43.6079
L37.7498 43.5474
" />
<path d="M38.3545 42.8217
L38.3545 43.6683
" />
<path d="M38.3545 42.9426
L38.4150 42.8821
" />
<path d="M38.4150 42.8821
L38.5360 42.8217
" />
<path d="M38.5360 42.8217
L38.7174 42.8217
" />
<path d="M38.7174 42.8217
L38.8383 42.8821
" />
<path d="M38.8383 42.8821
L38.8988 43.0031
" />
<path d="M38.8988 43.0031
L38.8988 43.6683
" />
<path d="M39.3221 42.8217
L39.8059 42.8217
" />
<path d="M39.5035 42.3983
L39.5035 43.4869
" />
<path d="M39.5035 43.4869
L39.5640 43.6079
" />
<path d="M39.5640 43.6079
L39.6850 43.6683
" />
<path d="M39.6850 43.6683
L39.8059 43.6683
" />
<path d="M40.2292 43.6683
L40.2292 42.8217
" />
<path d="M40.2292 42.3983
L40.1688 42.4588
" />
<path d="M40.1688 42.4588
L40.2292 42.5193
" />
<path d="M40.2292 42.5193
L40.2897 42.4588
" />
<path d="M40.2897 42.4588
L40.2292 42.3983
" />
<path d="M40.2292 42.3983
L40.2292 42.5193
" />
<path d="M40.8340 42.8217
L40.8340 43.6683
" />
<path d="M40.8340 42.9426
L40.8945 42.8821
" />
<path d="M40.8945 42.8821
L41.0155 42.8217
" />
<path d="M41.0155 42.8217
L41.1969 42.8217
" />
<path d="M41.1969 42.8217
L41.3178 42.8821
" />
<path d="M41.3178 42.8821
L41.3783 43.0031
" />
<path d="M41.3783 43.0031
L41.3783 43.6683
" />
<path d="M42.5273 42.8217
L42.5273 43.8498
" />
<path d="M42.5273 43.8498
L42.4668 43.9707
" />
<path d="M42.4668 43.9707
L42.4064 44.0312
" />
<path d="M42.4064 44.0312
L42.2854 44.0917
" />
<path d="M42.2854 44.0917
L42.1040 44.0917
" />
<path d="M42.1040 44.0917
L41.9830 44.0312
" />
<path d="M42.5273 43.6079
L42.4064 43.6683
" />
<path d="M42.4064 43.6683
L42.1645 43.6683
" />
<path d="M42.1645 43.6683
L42.0435 43.6079
" />
<path d="M42.0435 43.6079
L41.9830 43.5474
" />
<path d="M41.9830 43.5474
L41.9226 43.4264
" />
<path d="M41.9226 43.4264
L41.9226 43.0636
" />
<path d="M41.9226 43.0636
L41.9830 42.9426
" />
<path d="M41.9830 42.9426
L42.0435 42.8821
" />
<path d="M42.0435 42.8821
L42.1645 42.8217
" />
<path d="M42.1645 42.8217
L42.4064 42.8217
" />
<path d="M42.4064 42.8217
L42.5273 42.8821
" />
<path d="M43.1320 43.6683
L43.1320 42.3983
" />
<path d="M43.1320 42.3983
L43.6158 42.3983
" />
<path d="M43.6158 42.3983
L43.7368 42.4588
" />
<path d="M43.7368 42.4588
L43.7973 42.5193
" />
<path d="M43.7973 42.5193
L43.8577 42.6402
" />
<path d="M43.8577 42.6402
L43.8577 42.8217
" />
<path d="M43.8577 42.8217
L43.7973 42.9426
" />
<path d="M43.7973 42.9426
L43.7368 43.0031
" />
<path d="M43.7368 43.0031
L43.6158 43.0636
" />
<path d="M43.6158 43.0636
L43.1320 43.0636
" />
<path d="M44.4020 43.6683
L44.4020 42.8217
" />
<path d="M44.4020 42.3983
L44.3416 42.4588
" />
<path d="M44.3416 42.4588
L44.4020 42.5193
" />
<path d="M44.4020 42.5193
L44.4625 42.4588
" />
<path d="M44.4625 42.4588
L44.4020 42.3983
" />
<path d="M44.4020 42.3983
L44.4020 42.5193
" />
<path d="M45.0068 42.8217
L45.0068 43.6683
" />
<path d="M45.0068 42.9426
L45.0673 42.8821
" />
<path d="M45.0673 42.8821
L45.1883 42.8217
" />
<path d="M45.1883 42.8217
L45.3697 42.8217
" />
<path d="M45.3697 42.8217
L45.4906 42.8821
" />
<path d="M45.4906 42.8821
L45.5511 43.0031
" />
<path d="M45.5511 43.0031
L45.5511 43.6683
" />
</g></g>
<g style="fill:#840084; fill-opacity:0.0; 
stroke:#840084; stroke-width:0.1588; stroke-opacity:1; 
stroke-linecap:round; stroke-linejoin:round;">
<text x="9.2551" y="23.3958"
textLength="1.0501" font-size="1.6933" lengthAdjust="spacingAndGlyphs"
text-anchor="middle" opacity="0">~</text>
<g class="stroked-text"><desc>~</desc>
<path d="M8.9225 22.8645
L8.9830 22.8040
" />
<path d="M8.9830 22.8040
L9.1039 22.7436
" />
<path d="M9.1039 22.7436
L9.3458 22.8645
" />
<path d="M9.3458 22.8645
L9.4668 22.8040
" />
<path d="M9.4668 22.8040
L9.5273 22.7436
" />
</g></g> 
</svg>
