<?xml version="1.0" standalone="no"?>
 <!DOCTYPE svg PUBLIC "-//W3C//DTD SVG 1.1//EN" 
 "http://www.w3.org/Graphics/SVG/1.1/DTD/svg11.dtd"> 
<svg
  xmlns:svg="http://www.w3.org/2000/svg"
  xmlns="http://www.w3.org/2000/svg"
  xmlns:xlink="http://www.w3.org/1999/xlink"
  version="1.1"
  width="36.6776mm" height="68.0466mm" viewBox="0.0000 0.0000 36.6776 68.0466">
<title>SVG Image created as working.svg date 2023/08/02 02:34:01 </title>
  <desc>Image generated by Eeschema-SVG </desc>
<g style="fill:#000000; fill-opacity:1.0000;stroke:#000000; stroke-opacity:1.0000;
stroke-linecap:round; stroke-linejoin:round;"
 transform="translate(0 0) scale(1 1)">
</g>
<g style="fill:#840000; fill-opacity:0.0; 
stroke:#840000; stroke-width:0.0000; stroke-opacity:1; 
stroke-linecap:round; stroke-linejoin:round;">
</g>
<g style="fill:#FFFFC2; fill-opacity:0.0; 
stroke:#FFFFC2; stroke-width:0.0000; stroke-opacity:1; 
stroke-linecap:round; stroke-linejoin:round;">
</g>
<g style="fill:#FFFFC2; fill-opacity:1.0000; 
stroke:#FFFFC2; stroke-width:0.0000; stroke-opacity:1; 
stroke-linecap:round; stroke-linejoin:round;">
<rect x="6.866300" y="7.774800" width="2.540000" height="50.800000" rx="0.000000" />
</g>
<g style="fill:#840084; fill-opacity:1.0000; 
stroke:#840084; stroke-width:0.0000; stroke-opacity:1; 
stroke-linecap:round; stroke-linejoin:round;">
</g>
<g style="fill:#840000; fill-opacity:1.0000; 
stroke:#840000; stroke-width:0.0000; stroke-opacity:1; 
stroke-linecap:round; stroke-linejoin:round;">
</g>
<g style="fill:#840000; fill-opacity:0.0; 
stroke:#840000; stroke-width:0.1524; stroke-opacity:1; 
stroke-linecap:round; stroke-linejoin:round;">
<rect x="6.866300" y="57.177800" width="1.270000" height="0.254000" rx="0.000000" />
<rect x="6.866300" y="54.637800" width="1.270000" height="0.254000" rx="0.000000" />
<rect x="6.866300" y="52.097800" width="1.270000" height="0.254000" rx="0.000000" />
<rect x="6.866300" y="49.557800" width="1.270000" height="0.254000" rx="0.000000" />
<rect x="6.866300" y="47.017800" width="1.270000" height="0.254000" rx="0.000000" />
<rect x="6.866300" y="44.477800" width="1.270000" height="0.254000" rx="0.000000" />
<rect x="6.866300" y="41.937800" width="1.270000" height="0.254000" rx="0.000000" />
<rect x="6.866300" y="39.397800" width="1.270000" height="0.254000" rx="0.000000" />
<rect x="6.866300" y="36.857800" width="1.270000" height="0.254000" rx="0.000000" />
<rect x="6.866300" y="34.317800" width="1.270000" height="0.254000" rx="0.000000" />
<rect x="6.866300" y="31.777800" width="1.270000" height="0.254000" rx="0.000000" />
<rect x="6.866300" y="29.237800" width="1.270000" height="0.254000" rx="0.000000" />
<rect x="6.866300" y="26.697800" width="1.270000" height="0.254000" rx="0.000000" />
<rect x="6.866300" y="24.157800" width="1.270000" height="0.254000" rx="0.000000" />
<rect x="6.866300" y="21.617800" width="1.270000" height="0.254000" rx="0.000000" />
<rect x="6.866300" y="19.077800" width="1.270000" height="0.254000" rx="0.000000" />
<rect x="6.866300" y="16.537800" width="1.270000" height="0.254000" rx="0.000000" />
<rect x="6.866300" y="13.997800" width="1.270000" height="0.254000" rx="0.000000" />
<rect x="6.866300" y="11.457800" width="1.270000" height="0.254000" rx="0.000000" />
<rect x="6.866300" y="8.917800" width="1.270000" height="0.254000" rx="0.000000" />
</g>
<g style="fill:#840000; fill-opacity:0.0; 
stroke:#840000; stroke-width:0.2540; stroke-opacity:1; 
stroke-linecap:round; stroke-linejoin:round;">
<rect x="6.866300" y="7.774800" width="2.540000" height="50.800000" rx="0.000000" />
</g>
<g style="fill:#840000; fill-opacity:0.0; 
stroke:#840000; stroke-width:0.1524; stroke-opacity:1; 
stroke-linecap:round; stroke-linejoin:round;">
<path style="fill:#840000; fill-opacity:0.0; 
stroke:#840000; stroke-width:0.1524; stroke-opacity:1; 
stroke-linecap:round; stroke-linejoin:round;fill:none"
d="M 7.1203,59.3368
9.1523,59.3368
" /> 
</g>
<g style="fill:#840000; fill-opacity:0.0; 
stroke:#840000; stroke-width:0.0476; stroke-opacity:1; 
stroke-linecap:round; stroke-linejoin:round;">
<text x="8.1363" y="59.1463"
textLength="2.6008" font-size="0.5080" lengthAdjust="spacingAndGlyphs"
text-anchor="middle" opacity="0">Mounting</text>
<g class="stroked-text"><desc>Mounting</desc>
<path d="M6.9480 59.1321
L6.9480 58.7511
" />
<path d="M6.9480 58.7511
L7.0750 59.0232
" />
<path d="M7.0750 59.0232
L7.2020 58.7511
" />
<path d="M7.2020 58.7511
L7.2020 59.1321
" />
<path d="M7.4378 59.1321
L7.4015 59.1140
" />
<path d="M7.4015 59.1140
L7.3834 59.0958
" />
<path d="M7.3834 59.0958
L7.3652 59.0595
" />
<path d="M7.3652 59.0595
L7.3652 58.9507
" />
<path d="M7.3652 58.9507
L7.3834 58.9144
" />
<path d="M7.3834 58.9144
L7.4015 58.8962
" />
<path d="M7.4015 58.8962
L7.4378 58.8781
" />
<path d="M7.4378 58.8781
L7.4922 58.8781
" />
<path d="M7.4922 58.8781
L7.5285 58.8962
" />
<path d="M7.5285 58.8962
L7.5467 58.9144
" />
<path d="M7.5467 58.9144
L7.5648 58.9507
" />
<path d="M7.5648 58.9507
L7.5648 59.0595
" />
<path d="M7.5648 59.0595
L7.5467 59.0958
" />
<path d="M7.5467 59.0958
L7.5285 59.1140
" />
<path d="M7.5285 59.1140
L7.4922 59.1321
" />
<path d="M7.4922 59.1321
L7.4378 59.1321
" />
<path d="M7.8914 58.8781
L7.8914 59.1321
" />
<path d="M7.7281 58.8781
L7.7281 59.0777
" />
<path d="M7.7281 59.0777
L7.7462 59.1140
" />
<path d="M7.7462 59.1140
L7.7825 59.1321
" />
<path d="M7.7825 59.1321
L7.8369 59.1321
" />
<path d="M7.8369 59.1321
L7.8732 59.1140
" />
<path d="M7.8732 59.1140
L7.8914 59.0958
" />
<path d="M8.0728 58.8781
L8.0728 59.1321
" />
<path d="M8.0728 58.9144
L8.0909 58.8962
" />
<path d="M8.0909 58.8962
L8.1272 58.8781
" />
<path d="M8.1272 58.8781
L8.1816 58.8781
" />
<path d="M8.1816 58.8781
L8.2179 58.8962
" />
<path d="M8.2179 58.8962
L8.2361 58.9325
" />
<path d="M8.2361 58.9325
L8.2361 59.1321
" />
<path d="M8.3630 58.8781
L8.5082 58.8781
" />
<path d="M8.4175 58.7511
L8.4175 59.0777
" />
<path d="M8.4175 59.0777
L8.4356 59.1140
" />
<path d="M8.4356 59.1140
L8.4719 59.1321
" />
<path d="M8.4719 59.1321
L8.5082 59.1321
" />
<path d="M8.6352 59.1321
L8.6352 58.8781
" />
<path d="M8.6352 58.7511
L8.6170 58.7692
" />
<path d="M8.6170 58.7692
L8.6352 58.7874
" />
<path d="M8.6352 58.7874
L8.6533 58.7692
" />
<path d="M8.6533 58.7692
L8.6352 58.7511
" />
<path d="M8.6352 58.7511
L8.6352 58.7874
" />
<path d="M8.8166 58.8781
L8.8166 59.1321
" />
<path d="M8.8166 58.9144
L8.8347 58.8962
" />
<path d="M8.8347 58.8962
L8.8710 58.8781
" />
<path d="M8.8710 58.8781
L8.9254 58.8781
" />
<path d="M8.9254 58.8781
L8.9617 58.8962
" />
<path d="M8.9617 58.8962
L8.9799 58.9325
" />
<path d="M8.9799 58.9325
L8.9799 59.1321
" />
<path d="M9.3246 58.8781
L9.3246 59.1865
" />
<path d="M9.3246 59.1865
L9.3064 59.2228
" />
<path d="M9.3064 59.2228
L9.2883 59.2410
" />
<path d="M9.2883 59.2410
L9.2520 59.2591
" />
<path d="M9.2520 59.2591
L9.1976 59.2591
" />
<path d="M9.1976 59.2591
L9.1613 59.2410
" />
<path d="M9.3246 59.1140
L9.2883 59.1321
" />
<path d="M9.2883 59.1321
L9.2157 59.1321
" />
<path d="M9.2157 59.1321
L9.1794 59.1140
" />
<path d="M9.1794 59.1140
L9.1613 59.0958
" />
<path d="M9.1613 59.0958
L9.1431 59.0595
" />
<path d="M9.1431 59.0595
L9.1431 58.9507
" />
<path d="M9.1431 58.9507
L9.1613 58.9144
" />
<path d="M9.1613 58.9144
L9.1794 58.8962
" />
<path d="M9.1794 58.8962
L9.2157 58.8781
" />
<path d="M9.2157 58.8781
L9.2883 58.8781
" />
<path d="M9.2883 58.8781
L9.3246 58.8962
" />
</g></g>
<g style="fill:#840000; fill-opacity:0.0; 
stroke:#840000; stroke-width:0.1524; stroke-opacity:1; 
stroke-linecap:round; stroke-linejoin:round;">
<path d="M6.8663 9.0448
L3.0563 9.0448
" />
</g>
<g style="fill:#A90000; fill-opacity:0.0; 
stroke:#A90000; stroke-width:0.1524; stroke-opacity:1; 
stroke-linecap:round; stroke-linejoin:round;">
<text x="4.9613" y="8.7908"
textLength="1.3365" font-size="1.6933" lengthAdjust="spacingAndGlyphs"
text-anchor="middle" opacity="0">1</text>
<g class="stroked-text"><desc>1</desc>
<path d="M5.3242 8.6353
L4.5985 8.6353
" />
<path d="M4.9613 8.6353
L4.9613 7.3653
" />
<path d="M4.9613 7.3653
L4.8404 7.5468
" />
<path d="M4.8404 7.5468
L4.7194 7.6677
" />
<path d="M4.7194 7.6677
L4.5985 7.7282
" />
</g></g>
<g style="fill:#840000; fill-opacity:0.0; 
stroke:#840000; stroke-width:0.1524; stroke-opacity:1; 
stroke-linecap:round; stroke-linejoin:round;">
<path d="M6.8663 31.9048
L3.0563 31.9048
" />
</g>
<g style="fill:#A90000; fill-opacity:0.0; 
stroke:#A90000; stroke-width:0.1524; stroke-opacity:1; 
stroke-linecap:round; stroke-linejoin:round;">
<text x="4.9613" y="31.6508"
textLength="2.5460" font-size="1.6933" lengthAdjust="spacingAndGlyphs"
text-anchor="middle" opacity="0">10</text>
<g class="stroked-text"><desc>10</desc>
<path d="M4.7194 31.4953
L3.9937 31.4953
" />
<path d="M4.3565 31.4953
L4.3565 30.2253
" />
<path d="M4.3565 30.2253
L4.2356 30.4068
" />
<path d="M4.2356 30.4068
L4.1146 30.5277
" />
<path d="M4.1146 30.5277
L3.9937 30.5882
" />
<path d="M5.5055 30.2253
L5.6265 30.2253
" />
<path d="M5.6265 30.2253
L5.7474 30.2858
" />
<path d="M5.7474 30.2858
L5.8079 30.3463
" />
<path d="M5.8079 30.3463
L5.8684 30.4672
" />
<path d="M5.8684 30.4672
L5.9289 30.7091
" />
<path d="M5.9289 30.7091
L5.9289 31.0115
" />
<path d="M5.9289 31.0115
L5.8684 31.2534
" />
<path d="M5.8684 31.2534
L5.8079 31.3744
" />
<path d="M5.8079 31.3744
L5.7474 31.4349
" />
<path d="M5.7474 31.4349
L5.6265 31.4953
" />
<path d="M5.6265 31.4953
L5.5055 31.4953
" />
<path d="M5.5055 31.4953
L5.3846 31.4349
" />
<path d="M5.3846 31.4349
L5.3241 31.3744
" />
<path d="M5.3241 31.3744
L5.2636 31.2534
" />
<path d="M5.2636 31.2534
L5.2032 31.0115
" />
<path d="M5.2032 31.0115
L5.2032 30.7091
" />
<path d="M5.2032 30.7091
L5.2636 30.4672
" />
<path d="M5.2636 30.4672
L5.3241 30.3463
" />
<path d="M5.3241 30.3463
L5.3846 30.2858
" />
<path d="M5.3846 30.2858
L5.5055 30.2253
" />
</g></g>
<g style="fill:#840000; fill-opacity:0.0; 
stroke:#840000; stroke-width:0.1524; stroke-opacity:1; 
stroke-linecap:round; stroke-linejoin:round;">
<path d="M6.8663 34.4448
L3.0563 34.4448
" />
</g>
<g style="fill:#A90000; fill-opacity:0.0; 
stroke:#A90000; stroke-width:0.1524; stroke-opacity:1; 
stroke-linecap:round; stroke-linejoin:round;">
<text x="4.9613" y="34.1908"
textLength="2.5460" font-size="1.6933" lengthAdjust="spacingAndGlyphs"
text-anchor="middle" opacity="0">11</text>
<g class="stroked-text"><desc>11</desc>
<path d="M4.7194 34.0353
L3.9937 34.0353
" />
<path d="M4.3565 34.0353
L4.3565 32.7653
" />
<path d="M4.3565 32.7653
L4.2356 32.9468
" />
<path d="M4.2356 32.9468
L4.1146 33.0677
" />
<path d="M4.1146 33.0677
L3.9937 33.1282
" />
<path d="M5.9289 34.0353
L5.2032 34.0353
" />
<path d="M5.5660 34.0353
L5.5660 32.7653
" />
<path d="M5.5660 32.7653
L5.4451 32.9468
" />
<path d="M5.4451 32.9468
L5.3241 33.0677
" />
<path d="M5.3241 33.0677
L5.2032 33.1282
" />
</g></g>
<g style="fill:#840000; fill-opacity:0.0; 
stroke:#840000; stroke-width:0.1524; stroke-opacity:1; 
stroke-linecap:round; stroke-linejoin:round;">
<path d="M6.8663 36.9848
L3.0563 36.9848
" />
</g>
<g style="fill:#A90000; fill-opacity:0.0; 
stroke:#A90000; stroke-width:0.1524; stroke-opacity:1; 
stroke-linecap:round; stroke-linejoin:round;">
<text x="4.9613" y="36.7308"
textLength="2.5460" font-size="1.6933" lengthAdjust="spacingAndGlyphs"
text-anchor="middle" opacity="0">12</text>
<g class="stroked-text"><desc>12</desc>
<path d="M4.7194 36.5753
L3.9937 36.5753
" />
<path d="M4.3565 36.5753
L4.3565 35.3053
" />
<path d="M4.3565 35.3053
L4.2356 35.4868
" />
<path d="M4.2356 35.4868
L4.1146 35.6077
" />
<path d="M4.1146 35.6077
L3.9937 35.6682
" />
<path d="M5.2032 35.4263
L5.2636 35.3658
" />
<path d="M5.2636 35.3658
L5.3846 35.3053
" />
<path d="M5.3846 35.3053
L5.6870 35.3053
" />
<path d="M5.6870 35.3053
L5.8079 35.3658
" />
<path d="M5.8079 35.3658
L5.8684 35.4263
" />
<path d="M5.8684 35.4263
L5.9289 35.5472
" />
<path d="M5.9289 35.5472
L5.9289 35.6682
" />
<path d="M5.9289 35.6682
L5.8684 35.8496
" />
<path d="M5.8684 35.8496
L5.1427 36.5753
" />
<path d="M5.1427 36.5753
L5.9289 36.5753
" />
</g></g>
<g style="fill:#840000; fill-opacity:0.0; 
stroke:#840000; stroke-width:0.1524; stroke-opacity:1; 
stroke-linecap:round; stroke-linejoin:round;">
<path d="M6.8663 39.5248
L3.0563 39.5248
" />
</g>
<g style="fill:#A90000; fill-opacity:0.0; 
stroke:#A90000; stroke-width:0.1524; stroke-opacity:1; 
stroke-linecap:round; stroke-linejoin:round;">
<text x="4.9613" y="39.2708"
textLength="2.5460" font-size="1.6933" lengthAdjust="spacingAndGlyphs"
text-anchor="middle" opacity="0">13</text>
<g class="stroked-text"><desc>13</desc>
<path d="M4.7194 39.1153
L3.9937 39.1153
" />
<path d="M4.3565 39.1153
L4.3565 37.8453
" />
<path d="M4.3565 37.8453
L4.2356 38.0268
" />
<path d="M4.2356 38.0268
L4.1146 38.1477
" />
<path d="M4.1146 38.1477
L3.9937 38.2082
" />
<path d="M5.1427 37.8453
L5.9289 37.8453
" />
<path d="M5.9289 37.8453
L5.5055 38.3291
" />
<path d="M5.5055 38.3291
L5.6870 38.3291
" />
<path d="M5.6870 38.3291
L5.8079 38.3896
" />
<path d="M5.8079 38.3896
L5.8684 38.4501
" />
<path d="M5.8684 38.4501
L5.9289 38.5710
" />
<path d="M5.9289 38.5710
L5.9289 38.8734
" />
<path d="M5.9289 38.8734
L5.8684 38.9944
" />
<path d="M5.8684 38.9944
L5.8079 39.0549
" />
<path d="M5.8079 39.0549
L5.6870 39.1153
" />
<path d="M5.6870 39.1153
L5.3241 39.1153
" />
<path d="M5.3241 39.1153
L5.2032 39.0549
" />
<path d="M5.2032 39.0549
L5.1427 38.9944
" />
</g></g>
<g style="fill:#840000; fill-opacity:0.0; 
stroke:#840000; stroke-width:0.1524; stroke-opacity:1; 
stroke-linecap:round; stroke-linejoin:round;">
<path d="M6.8663 42.0648
L3.0563 42.0648
" />
</g>
<g style="fill:#A90000; fill-opacity:0.0; 
stroke:#A90000; stroke-width:0.1524; stroke-opacity:1; 
stroke-linecap:round; stroke-linejoin:round;">
<text x="4.9613" y="41.8108"
textLength="2.5460" font-size="1.6933" lengthAdjust="spacingAndGlyphs"
text-anchor="middle" opacity="0">14</text>
<g class="stroked-text"><desc>14</desc>
<path d="M4.7194 41.6553
L3.9937 41.6553
" />
<path d="M4.3565 41.6553
L4.3565 40.3853
" />
<path d="M4.3565 40.3853
L4.2356 40.5668
" />
<path d="M4.2356 40.5668
L4.1146 40.6877
" />
<path d="M4.1146 40.6877
L3.9937 40.7482
" />
<path d="M5.8079 40.8087
L5.8079 41.6553
" />
<path d="M5.5055 40.3249
L5.2032 41.2320
" />
<path d="M5.2032 41.2320
L5.9893 41.2320
" />
</g></g>
<g style="fill:#840000; fill-opacity:0.0; 
stroke:#840000; stroke-width:0.1524; stroke-opacity:1; 
stroke-linecap:round; stroke-linejoin:round;">
<path d="M6.8663 44.6048
L3.0563 44.6048
" />
</g>
<g style="fill:#A90000; fill-opacity:0.0; 
stroke:#A90000; stroke-width:0.1524; stroke-opacity:1; 
stroke-linecap:round; stroke-linejoin:round;">
<text x="4.9613" y="44.3508"
textLength="2.5460" font-size="1.6933" lengthAdjust="spacingAndGlyphs"
text-anchor="middle" opacity="0">15</text>
<g class="stroked-text"><desc>15</desc>
<path d="M4.7194 44.1953
L3.9937 44.1953
" />
<path d="M4.3565 44.1953
L4.3565 42.9253
" />
<path d="M4.3565 42.9253
L4.2356 43.1068
" />
<path d="M4.2356 43.1068
L4.1146 43.2277
" />
<path d="M4.1146 43.2277
L3.9937 43.2882
" />
<path d="M5.8684 42.9253
L5.2636 42.9253
" />
<path d="M5.2636 42.9253
L5.2032 43.5301
" />
<path d="M5.2032 43.5301
L5.2636 43.4696
" />
<path d="M5.2636 43.4696
L5.3846 43.4091
" />
<path d="M5.3846 43.4091
L5.6870 43.4091
" />
<path d="M5.6870 43.4091
L5.8079 43.4696
" />
<path d="M5.8079 43.4696
L5.8684 43.5301
" />
<path d="M5.8684 43.5301
L5.9289 43.6510
" />
<path d="M5.9289 43.6510
L5.9289 43.9534
" />
<path d="M5.9289 43.9534
L5.8684 44.0744
" />
<path d="M5.8684 44.0744
L5.8079 44.1349
" />
<path d="M5.8079 44.1349
L5.6870 44.1953
" />
<path d="M5.6870 44.1953
L5.3846 44.1953
" />
<path d="M5.3846 44.1953
L5.2636 44.1349
" />
<path d="M5.2636 44.1349
L5.2032 44.0744
" />
</g></g>
<g style="fill:#840000; fill-opacity:0.0; 
stroke:#840000; stroke-width:0.1524; stroke-opacity:1; 
stroke-linecap:round; stroke-linejoin:round;">
<path d="M6.8663 47.1448
L3.0563 47.1448
" />
</g>
<g style="fill:#A90000; fill-opacity:0.0; 
stroke:#A90000; stroke-width:0.1524; stroke-opacity:1; 
stroke-linecap:round; stroke-linejoin:round;">
<text x="4.9613" y="46.8908"
textLength="2.5460" font-size="1.6933" lengthAdjust="spacingAndGlyphs"
text-anchor="middle" opacity="0">16</text>
<g class="stroked-text"><desc>16</desc>
<path d="M4.7194 46.7353
L3.9937 46.7353
" />
<path d="M4.3565 46.7353
L4.3565 45.4653
" />
<path d="M4.3565 45.4653
L4.2356 45.6468
" />
<path d="M4.2356 45.6468
L4.1146 45.7677
" />
<path d="M4.1146 45.7677
L3.9937 45.8282
" />
<path d="M5.8079 45.4653
L5.5660 45.4653
" />
<path d="M5.5660 45.4653
L5.4451 45.5258
" />
<path d="M5.4451 45.5258
L5.3846 45.5863
" />
<path d="M5.3846 45.5863
L5.2636 45.7677
" />
<path d="M5.2636 45.7677
L5.2032 46.0096
" />
<path d="M5.2032 46.0096
L5.2032 46.4934
" />
<path d="M5.2032 46.4934
L5.2636 46.6144
" />
<path d="M5.2636 46.6144
L5.3241 46.6749
" />
<path d="M5.3241 46.6749
L5.4451 46.7353
" />
<path d="M5.4451 46.7353
L5.6870 46.7353
" />
<path d="M5.6870 46.7353
L5.8079 46.6749
" />
<path d="M5.8079 46.6749
L5.8684 46.6144
" />
<path d="M5.8684 46.6144
L5.9289 46.4934
" />
<path d="M5.9289 46.4934
L5.9289 46.1910
" />
<path d="M5.9289 46.1910
L5.8684 46.0701
" />
<path d="M5.8684 46.0701
L5.8079 46.0096
" />
<path d="M5.8079 46.0096
L5.6870 45.9491
" />
<path d="M5.6870 45.9491
L5.4451 45.9491
" />
<path d="M5.4451 45.9491
L5.3241 46.0096
" />
<path d="M5.3241 46.0096
L5.2636 46.0701
" />
<path d="M5.2636 46.0701
L5.2032 46.1910
" />
</g></g>
<g style="fill:#840000; fill-opacity:0.0; 
stroke:#840000; stroke-width:0.1524; stroke-opacity:1; 
stroke-linecap:round; stroke-linejoin:round;">
<path d="M6.8663 49.6848
L3.0563 49.6848
" />
</g>
<g style="fill:#A90000; fill-opacity:0.0; 
stroke:#A90000; stroke-width:0.1524; stroke-opacity:1; 
stroke-linecap:round; stroke-linejoin:round;">
<text x="4.9613" y="49.4308"
textLength="2.5460" font-size="1.6933" lengthAdjust="spacingAndGlyphs"
text-anchor="middle" opacity="0">17</text>
<g class="stroked-text"><desc>17</desc>
<path d="M4.7194 49.2753
L3.9937 49.2753
" />
<path d="M4.3565 49.2753
L4.3565 48.0053
" />
<path d="M4.3565 48.0053
L4.2356 48.1868
" />
<path d="M4.2356 48.1868
L4.1146 48.3077
" />
<path d="M4.1146 48.3077
L3.9937 48.3682
" />
<path d="M5.1427 48.0053
L5.9893 48.0053
" />
<path d="M5.9893 48.0053
L5.4451 49.2753
" />
</g></g>
<g style="fill:#840000; fill-opacity:0.0; 
stroke:#840000; stroke-width:0.1524; stroke-opacity:1; 
stroke-linecap:round; stroke-linejoin:round;">
<path d="M6.8663 52.2248
L3.0563 52.2248
" />
</g>
<g style="fill:#A90000; fill-opacity:0.0; 
stroke:#A90000; stroke-width:0.1524; stroke-opacity:1; 
stroke-linecap:round; stroke-linejoin:round;">
<text x="4.9613" y="51.9708"
textLength="2.5460" font-size="1.6933" lengthAdjust="spacingAndGlyphs"
text-anchor="middle" opacity="0">18</text>
<g class="stroked-text"><desc>18</desc>
<path d="M4.7194 51.8153
L3.9937 51.8153
" />
<path d="M4.3565 51.8153
L4.3565 50.5453
" />
<path d="M4.3565 50.5453
L4.2356 50.7268
" />
<path d="M4.2356 50.7268
L4.1146 50.8477
" />
<path d="M4.1146 50.8477
L3.9937 50.9082
" />
<path d="M5.4451 51.0896
L5.3241 51.0291
" />
<path d="M5.3241 51.0291
L5.2636 50.9687
" />
<path d="M5.2636 50.9687
L5.2032 50.8477
" />
<path d="M5.2032 50.8477
L5.2032 50.7872
" />
<path d="M5.2032 50.7872
L5.2636 50.6663
" />
<path d="M5.2636 50.6663
L5.3241 50.6058
" />
<path d="M5.3241 50.6058
L5.4451 50.5453
" />
<path d="M5.4451 50.5453
L5.6870 50.5453
" />
<path d="M5.6870 50.5453
L5.8079 50.6058
" />
<path d="M5.8079 50.6058
L5.8684 50.6663
" />
<path d="M5.8684 50.6663
L5.9289 50.7872
" />
<path d="M5.9289 50.7872
L5.9289 50.8477
" />
<path d="M5.9289 50.8477
L5.8684 50.9687
" />
<path d="M5.8684 50.9687
L5.8079 51.0291
" />
<path d="M5.8079 51.0291
L5.6870 51.0896
" />
<path d="M5.6870 51.0896
L5.4451 51.0896
" />
<path d="M5.4451 51.0896
L5.3241 51.1501
" />
<path d="M5.3241 51.1501
L5.2636 51.2106
" />
<path d="M5.2636 51.2106
L5.2032 51.3315
" />
<path d="M5.2032 51.3315
L5.2032 51.5734
" />
<path d="M5.2032 51.5734
L5.2636 51.6944
" />
<path d="M5.2636 51.6944
L5.3241 51.7549
" />
<path d="M5.3241 51.7549
L5.4451 51.8153
" />
<path d="M5.4451 51.8153
L5.6870 51.8153
" />
<path d="M5.6870 51.8153
L5.8079 51.7549
" />
<path d="M5.8079 51.7549
L5.8684 51.6944
" />
<path d="M5.8684 51.6944
L5.9289 51.5734
" />
<path d="M5.9289 51.5734
L5.9289 51.3315
" />
<path d="M5.9289 51.3315
L5.8684 51.2106
" />
<path d="M5.8684 51.2106
L5.8079 51.1501
" />
<path d="M5.8079 51.1501
L5.6870 51.0896
" />
</g></g>
<g style="fill:#840000; fill-opacity:0.0; 
stroke:#840000; stroke-width:0.1524; stroke-opacity:1; 
stroke-linecap:round; stroke-linejoin:round;">
<path d="M6.8663 54.7648
L3.0563 54.7648
" />
</g>
<g style="fill:#A90000; fill-opacity:0.0; 
stroke:#A90000; stroke-width:0.1524; stroke-opacity:1; 
stroke-linecap:round; stroke-linejoin:round;">
<text x="4.9613" y="54.5108"
textLength="2.5460" font-size="1.6933" lengthAdjust="spacingAndGlyphs"
text-anchor="middle" opacity="0">19</text>
<g class="stroked-text"><desc>19</desc>
<path d="M4.7194 54.3553
L3.9937 54.3553
" />
<path d="M4.3565 54.3553
L4.3565 53.0853
" />
<path d="M4.3565 53.0853
L4.2356 53.2668
" />
<path d="M4.2356 53.2668
L4.1146 53.3877
" />
<path d="M4.1146 53.3877
L3.9937 53.4482
" />
<path d="M5.3241 54.3553
L5.5660 54.3553
" />
<path d="M5.5660 54.3553
L5.6870 54.2949
" />
<path d="M5.6870 54.2949
L5.7474 54.2344
" />
<path d="M5.7474 54.2344
L5.8684 54.0529
" />
<path d="M5.8684 54.0529
L5.9289 53.8110
" />
<path d="M5.9289 53.8110
L5.9289 53.3272
" />
<path d="M5.9289 53.3272
L5.8684 53.2063
" />
<path d="M5.8684 53.2063
L5.8079 53.1458
" />
<path d="M5.8079 53.1458
L5.6870 53.0853
" />
<path d="M5.6870 53.0853
L5.4451 53.0853
" />
<path d="M5.4451 53.0853
L5.3241 53.1458
" />
<path d="M5.3241 53.1458
L5.2636 53.2063
" />
<path d="M5.2636 53.2063
L5.2032 53.3272
" />
<path d="M5.2032 53.3272
L5.2032 53.6296
" />
<path d="M5.2032 53.6296
L5.2636 53.7506
" />
<path d="M5.2636 53.7506
L5.3241 53.8110
" />
<path d="M5.3241 53.8110
L5.4451 53.8715
" />
<path d="M5.4451 53.8715
L5.6870 53.8715
" />
<path d="M5.6870 53.8715
L5.8079 53.8110
" />
<path d="M5.8079 53.8110
L5.8684 53.7506
" />
<path d="M5.8684 53.7506
L5.9289 53.6296
" />
</g></g>
<g style="fill:#840000; fill-opacity:0.0; 
stroke:#840000; stroke-width:0.1524; stroke-opacity:1; 
stroke-linecap:round; stroke-linejoin:round;">
<path d="M6.8663 11.5848
L3.0563 11.5848
" />
</g>
<g style="fill:#A90000; fill-opacity:0.0; 
stroke:#A90000; stroke-width:0.1524; stroke-opacity:1; 
stroke-linecap:round; stroke-linejoin:round;">
<text x="4.9613" y="11.3308"
textLength="1.3365" font-size="1.6933" lengthAdjust="spacingAndGlyphs"
text-anchor="middle" opacity="0">2</text>
<g class="stroked-text"><desc>2</desc>
<path d="M4.5985 10.0263
L4.6589 9.9658
" />
<path d="M4.6589 9.9658
L4.7799 9.9053
" />
<path d="M4.7799 9.9053
L5.0823 9.9053
" />
<path d="M5.0823 9.9053
L5.2032 9.9658
" />
<path d="M5.2032 9.9658
L5.2637 10.0263
" />
<path d="M5.2637 10.0263
L5.3242 10.1472
" />
<path d="M5.3242 10.1472
L5.3242 10.2682
" />
<path d="M5.3242 10.2682
L5.2637 10.4496
" />
<path d="M5.2637 10.4496
L4.5380 11.1753
" />
<path d="M4.5380 11.1753
L5.3242 11.1753
" />
</g></g>
<g style="fill:#840000; fill-opacity:0.0; 
stroke:#840000; stroke-width:0.1524; stroke-opacity:1; 
stroke-linecap:round; stroke-linejoin:round;">
<path d="M6.8663 57.3048
L3.0563 57.3048
" />
</g>
<g style="fill:#A90000; fill-opacity:0.0; 
stroke:#A90000; stroke-width:0.1524; stroke-opacity:1; 
stroke-linecap:round; stroke-linejoin:round;">
<text x="4.9613" y="57.0508"
textLength="2.5460" font-size="1.6933" lengthAdjust="spacingAndGlyphs"
text-anchor="middle" opacity="0">20</text>
<g class="stroked-text"><desc>20</desc>
<path d="M3.9937 55.7463
L4.0541 55.6858
" />
<path d="M4.0541 55.6858
L4.1751 55.6253
" />
<path d="M4.1751 55.6253
L4.4775 55.6253
" />
<path d="M4.4775 55.6253
L4.5984 55.6858
" />
<path d="M4.5984 55.6858
L4.6589 55.7463
" />
<path d="M4.6589 55.7463
L4.7194 55.8672
" />
<path d="M4.7194 55.8672
L4.7194 55.9882
" />
<path d="M4.7194 55.9882
L4.6589 56.1696
" />
<path d="M4.6589 56.1696
L3.9332 56.8953
" />
<path d="M3.9332 56.8953
L4.7194 56.8953
" />
<path d="M5.5055 55.6253
L5.6265 55.6253
" />
<path d="M5.6265 55.6253
L5.7474 55.6858
" />
<path d="M5.7474 55.6858
L5.8079 55.7463
" />
<path d="M5.8079 55.7463
L5.8684 55.8672
" />
<path d="M5.8684 55.8672
L5.9289 56.1091
" />
<path d="M5.9289 56.1091
L5.9289 56.4115
" />
<path d="M5.9289 56.4115
L5.8684 56.6534
" />
<path d="M5.8684 56.6534
L5.8079 56.7744
" />
<path d="M5.8079 56.7744
L5.7474 56.8349
" />
<path d="M5.7474 56.8349
L5.6265 56.8953
" />
<path d="M5.6265 56.8953
L5.5055 56.8953
" />
<path d="M5.5055 56.8953
L5.3846 56.8349
" />
<path d="M5.3846 56.8349
L5.3241 56.7744
" />
<path d="M5.3241 56.7744
L5.2636 56.6534
" />
<path d="M5.2636 56.6534
L5.2032 56.4115
" />
<path d="M5.2032 56.4115
L5.2032 56.1091
" />
<path d="M5.2032 56.1091
L5.2636 55.8672
" />
<path d="M5.2636 55.8672
L5.3241 55.7463
" />
<path d="M5.3241 55.7463
L5.3846 55.6858
" />
<path d="M5.3846 55.6858
L5.5055 55.6253
" />
</g></g>
<g style="fill:#840000; fill-opacity:0.0; 
stroke:#840000; stroke-width:0.1524; stroke-opacity:1; 
stroke-linecap:round; stroke-linejoin:round;">
<path d="M6.8663 14.1248
L3.0563 14.1248
" />
</g>
<g style="fill:#A90000; fill-opacity:0.0; 
stroke:#A90000; stroke-width:0.1524; stroke-opacity:1; 
stroke-linecap:round; stroke-linejoin:round;">
<text x="4.9613" y="13.8708"
textLength="1.3365" font-size="1.6933" lengthAdjust="spacingAndGlyphs"
text-anchor="middle" opacity="0">3</text>
<g class="stroked-text"><desc>3</desc>
<path d="M4.5380 12.4453
L5.3242 12.4453
" />
<path d="M5.3242 12.4453
L4.9008 12.9291
" />
<path d="M4.9008 12.9291
L5.0823 12.9291
" />
<path d="M5.0823 12.9291
L5.2032 12.9896
" />
<path d="M5.2032 12.9896
L5.2637 13.0501
" />
<path d="M5.2637 13.0501
L5.3242 13.1710
" />
<path d="M5.3242 13.1710
L5.3242 13.4734
" />
<path d="M5.3242 13.4734
L5.2637 13.5944
" />
<path d="M5.2637 13.5944
L5.2032 13.6549
" />
<path d="M5.2032 13.6549
L5.0823 13.7153
" />
<path d="M5.0823 13.7153
L4.7194 13.7153
" />
<path d="M4.7194 13.7153
L4.5985 13.6549
" />
<path d="M4.5985 13.6549
L4.5380 13.5944
" />
</g></g>
<g style="fill:#840000; fill-opacity:0.0; 
stroke:#840000; stroke-width:0.1524; stroke-opacity:1; 
stroke-linecap:round; stroke-linejoin:round;">
<path d="M6.8663 16.6648
L3.0563 16.6648
" />
</g>
<g style="fill:#A90000; fill-opacity:0.0; 
stroke:#A90000; stroke-width:0.1524; stroke-opacity:1; 
stroke-linecap:round; stroke-linejoin:round;">
<text x="4.9613" y="16.4108"
textLength="1.3365" font-size="1.6933" lengthAdjust="spacingAndGlyphs"
text-anchor="middle" opacity="0">4</text>
<g class="stroked-text"><desc>4</desc>
<path d="M5.2032 15.4087
L5.2032 16.2553
" />
<path d="M4.9008 14.9249
L4.5985 15.8320
" />
<path d="M4.5985 15.8320
L5.3846 15.8320
" />
</g></g>
<g style="fill:#840000; fill-opacity:0.0; 
stroke:#840000; stroke-width:0.1524; stroke-opacity:1; 
stroke-linecap:round; stroke-linejoin:round;">
<path d="M6.8663 19.2048
L3.0563 19.2048
" />
</g>
<g style="fill:#A90000; fill-opacity:0.0; 
stroke:#A90000; stroke-width:0.1524; stroke-opacity:1; 
stroke-linecap:round; stroke-linejoin:round;">
<text x="4.9613" y="18.9508"
textLength="1.3365" font-size="1.6933" lengthAdjust="spacingAndGlyphs"
text-anchor="middle" opacity="0">5</text>
<g class="stroked-text"><desc>5</desc>
<path d="M5.2637 17.5253
L4.6589 17.5253
" />
<path d="M4.6589 17.5253
L4.5985 18.1301
" />
<path d="M4.5985 18.1301
L4.6589 18.0696
" />
<path d="M4.6589 18.0696
L4.7799 18.0091
" />
<path d="M4.7799 18.0091
L5.0823 18.0091
" />
<path d="M5.0823 18.0091
L5.2032 18.0696
" />
<path d="M5.2032 18.0696
L5.2637 18.1301
" />
<path d="M5.2637 18.1301
L5.3242 18.2510
" />
<path d="M5.3242 18.2510
L5.3242 18.5534
" />
<path d="M5.3242 18.5534
L5.2637 18.6744
" />
<path d="M5.2637 18.6744
L5.2032 18.7349
" />
<path d="M5.2032 18.7349
L5.0823 18.7953
" />
<path d="M5.0823 18.7953
L4.7799 18.7953
" />
<path d="M4.7799 18.7953
L4.6589 18.7349
" />
<path d="M4.6589 18.7349
L4.5985 18.6744
" />
</g></g>
<g style="fill:#840000; fill-opacity:0.0; 
stroke:#840000; stroke-width:0.1524; stroke-opacity:1; 
stroke-linecap:round; stroke-linejoin:round;">
<path d="M6.8663 21.7448
L3.0563 21.7448
" />
</g>
<g style="fill:#A90000; fill-opacity:0.0; 
stroke:#A90000; stroke-width:0.1524; stroke-opacity:1; 
stroke-linecap:round; stroke-linejoin:round;">
<text x="4.9613" y="21.4908"
textLength="1.3365" font-size="1.6933" lengthAdjust="spacingAndGlyphs"
text-anchor="middle" opacity="0">6</text>
<g class="stroked-text"><desc>6</desc>
<path d="M5.2032 20.0653
L4.9613 20.0653
" />
<path d="M4.9613 20.0653
L4.8404 20.1258
" />
<path d="M4.8404 20.1258
L4.7799 20.1863
" />
<path d="M4.7799 20.1863
L4.6589 20.3677
" />
<path d="M4.6589 20.3677
L4.5985 20.6096
" />
<path d="M4.5985 20.6096
L4.5985 21.0934
" />
<path d="M4.5985 21.0934
L4.6589 21.2144
" />
<path d="M4.6589 21.2144
L4.7194 21.2749
" />
<path d="M4.7194 21.2749
L4.8404 21.3353
" />
<path d="M4.8404 21.3353
L5.0823 21.3353
" />
<path d="M5.0823 21.3353
L5.2032 21.2749
" />
<path d="M5.2032 21.2749
L5.2637 21.2144
" />
<path d="M5.2637 21.2144
L5.3242 21.0934
" />
<path d="M5.3242 21.0934
L5.3242 20.7910
" />
<path d="M5.3242 20.7910
L5.2637 20.6701
" />
<path d="M5.2637 20.6701
L5.2032 20.6096
" />
<path d="M5.2032 20.6096
L5.0823 20.5491
" />
<path d="M5.0823 20.5491
L4.8404 20.5491
" />
<path d="M4.8404 20.5491
L4.7194 20.6096
" />
<path d="M4.7194 20.6096
L4.6589 20.6701
" />
<path d="M4.6589 20.6701
L4.5985 20.7910
" />
</g></g>
<g style="fill:#840000; fill-opacity:0.0; 
stroke:#840000; stroke-width:0.1524; stroke-opacity:1; 
stroke-linecap:round; stroke-linejoin:round;">
<path d="M6.8663 24.2848
L3.0563 24.2848
" />
</g>
<g style="fill:#A90000; fill-opacity:0.0; 
stroke:#A90000; stroke-width:0.1524; stroke-opacity:1; 
stroke-linecap:round; stroke-linejoin:round;">
<text x="4.9613" y="24.0308"
textLength="1.3365" font-size="1.6933" lengthAdjust="spacingAndGlyphs"
text-anchor="middle" opacity="0">7</text>
<g class="stroked-text"><desc>7</desc>
<path d="M4.5380 22.6053
L5.3846 22.6053
" />
<path d="M5.3846 22.6053
L4.8404 23.8753
" />
</g></g>
<g style="fill:#840000; fill-opacity:0.0; 
stroke:#840000; stroke-width:0.1524; stroke-opacity:1; 
stroke-linecap:round; stroke-linejoin:round;">
<path d="M6.8663 26.8248
L3.0563 26.8248
" />
</g>
<g style="fill:#A90000; fill-opacity:0.0; 
stroke:#A90000; stroke-width:0.1524; stroke-opacity:1; 
stroke-linecap:round; stroke-linejoin:round;">
<text x="4.9613" y="26.5708"
textLength="1.3365" font-size="1.6933" lengthAdjust="spacingAndGlyphs"
text-anchor="middle" opacity="0">8</text>
<g class="stroked-text"><desc>8</desc>
<path d="M4.8404 25.6896
L4.7194 25.6291
" />
<path d="M4.7194 25.6291
L4.6589 25.5687
" />
<path d="M4.6589 25.5687
L4.5985 25.4477
" />
<path d="M4.5985 25.4477
L4.5985 25.3872
" />
<path d="M4.5985 25.3872
L4.6589 25.2663
" />
<path d="M4.6589 25.2663
L4.7194 25.2058
" />
<path d="M4.7194 25.2058
L4.8404 25.1453
" />
<path d="M4.8404 25.1453
L5.0823 25.1453
" />
<path d="M5.0823 25.1453
L5.2032 25.2058
" />
<path d="M5.2032 25.2058
L5.2637 25.2663
" />
<path d="M5.2637 25.2663
L5.3242 25.3872
" />
<path d="M5.3242 25.3872
L5.3242 25.4477
" />
<path d="M5.3242 25.4477
L5.2637 25.5687
" />
<path d="M5.2637 25.5687
L5.2032 25.6291
" />
<path d="M5.2032 25.6291
L5.0823 25.6896
" />
<path d="M5.0823 25.6896
L4.8404 25.6896
" />
<path d="M4.8404 25.6896
L4.7194 25.7501
" />
<path d="M4.7194 25.7501
L4.6589 25.8106
" />
<path d="M4.6589 25.8106
L4.5985 25.9315
" />
<path d="M4.5985 25.9315
L4.5985 26.1734
" />
<path d="M4.5985 26.1734
L4.6589 26.2944
" />
<path d="M4.6589 26.2944
L4.7194 26.3549
" />
<path d="M4.7194 26.3549
L4.8404 26.4153
" />
<path d="M4.8404 26.4153
L5.0823 26.4153
" />
<path d="M5.0823 26.4153
L5.2032 26.3549
" />
<path d="M5.2032 26.3549
L5.2637 26.2944
" />
<path d="M5.2637 26.2944
L5.3242 26.1734
" />
<path d="M5.3242 26.1734
L5.3242 25.9315
" />
<path d="M5.3242 25.9315
L5.2637 25.8106
" />
<path d="M5.2637 25.8106
L5.2032 25.7501
" />
<path d="M5.2032 25.7501
L5.0823 25.6896
" />
</g></g>
<g style="fill:#840000; fill-opacity:0.0; 
stroke:#840000; stroke-width:0.1524; stroke-opacity:1; 
stroke-linecap:round; stroke-linejoin:round;">
<path d="M6.8663 29.3648
L3.0563 29.3648
" />
</g>
<g style="fill:#A90000; fill-opacity:0.0; 
stroke:#A90000; stroke-width:0.1524; stroke-opacity:1; 
stroke-linecap:round; stroke-linejoin:round;">
<text x="4.9613" y="29.1108"
textLength="1.3365" font-size="1.6933" lengthAdjust="spacingAndGlyphs"
text-anchor="middle" opacity="0">9</text>
<g class="stroked-text"><desc>9</desc>
<path d="M4.7194 28.9553
L4.9613 28.9553
" />
<path d="M4.9613 28.9553
L5.0823 28.8949
" />
<path d="M5.0823 28.8949
L5.1427 28.8344
" />
<path d="M5.1427 28.8344
L5.2637 28.6529
" />
<path d="M5.2637 28.6529
L5.3242 28.4110
" />
<path d="M5.3242 28.4110
L5.3242 27.9272
" />
<path d="M5.3242 27.9272
L5.2637 27.8063
" />
<path d="M5.2637 27.8063
L5.2032 27.7458
" />
<path d="M5.2032 27.7458
L5.0823 27.6853
" />
<path d="M5.0823 27.6853
L4.8404 27.6853
" />
<path d="M4.8404 27.6853
L4.7194 27.7458
" />
<path d="M4.7194 27.7458
L4.6589 27.8063
" />
<path d="M4.6589 27.8063
L4.5985 27.9272
" />
<path d="M4.5985 27.9272
L4.5985 28.2296
" />
<path d="M4.5985 28.2296
L4.6589 28.3506
" />
<path d="M4.6589 28.3506
L4.7194 28.4110
" />
<path d="M4.7194 28.4110
L4.8404 28.4715
" />
<path d="M4.8404 28.4715
L5.0823 28.4715
" />
<path d="M5.0823 28.4715
L5.2032 28.4110
" />
<path d="M5.2032 28.4110
L5.2637 28.3506
" />
<path d="M5.2637 28.3506
L5.3242 28.2296
" />
</g></g>
<g style="fill:#840000; fill-opacity:0.0; 
stroke:#840000; stroke-width:0.1524; stroke-opacity:1; 
stroke-linecap:round; stroke-linejoin:round;">
<path d="M8.1363 59.3368
L8.1363 62.3848
" />
</g>
<g style="fill:#A90000; fill-opacity:0.0; 
stroke:#A90000; stroke-width:0.1524; stroke-opacity:1; 
stroke-linecap:round; stroke-linejoin:round;">
<g transform="rotate(-90.000000 7.8823 60.8608)">
<text x="7.8823" y="60.8608"
textLength="2.8484" font-size="1.6933" lengthAdjust="spacingAndGlyphs"
text-anchor="middle" opacity="0">MP</text>
</g>
<g class="stroked-text"><desc>MP</desc>
<path d="M7.7268 61.9191
L6.4568 61.9191
" />
<path d="M6.4568 61.9191
L7.3640 61.4957
" />
<path d="M7.3640 61.4957
L6.4568 61.0724
" />
<path d="M6.4568 61.0724
L7.7268 61.0724
" />
<path d="M7.7268 60.4677
L6.4568 60.4677
" />
<path d="M6.4568 60.4677
L6.4568 59.9839
" />
<path d="M6.4568 59.9839
L6.5173 59.8629
" />
<path d="M6.5173 59.8629
L6.5778 59.8024
" />
<path d="M6.5778 59.8024
L6.6987 59.7420
" />
<path d="M6.6987 59.7420
L6.8802 59.7420
" />
<path d="M6.8802 59.7420
L7.0011 59.8024
" />
<path d="M7.0011 59.8024
L7.0616 59.8629
" />
<path d="M7.0616 59.8629
L7.1221 59.9839
" />
<path d="M7.1221 59.9839
L7.1221 60.4677
" />
</g></g>
<g style="fill:#840084; fill-opacity:0.0; 
stroke:#840084; stroke-width:0.1524; stroke-opacity:1; 
stroke-linecap:round; stroke-linejoin:round;">
</g>
<g style="fill:#006464; fill-opacity:0.0; 
stroke:#006464; stroke-width:0.1524; stroke-opacity:1; 
stroke-linecap:round; stroke-linejoin:round;">
</g>
<g style="fill:#006464; fill-opacity:0.0; 
stroke:#006464; stroke-width:0.1588; stroke-opacity:1; 
stroke-linecap:round; stroke-linejoin:round;">
<text x="8.1363" y="7.1398"
textLength="2.1992" font-size="1.6933" lengthAdjust="spacingAndGlyphs"
text-anchor="middle" opacity="0">J?</text>
<g class="stroked-text"><desc>J?</desc>
<path d="M7.7734 5.8223
L7.7734 6.7295
" />
<path d="M7.7734 6.7295
L7.7129 6.9109
" />
<path d="M7.7129 6.9109
L7.5920 7.0319
" />
<path d="M7.5920 7.0319
L7.4105 7.0923
" />
<path d="M7.4105 7.0923
L7.2896 7.0923
" />
<path d="M8.5596 6.9714
L8.6200 7.0319
" />
<path d="M8.6200 7.0319
L8.5596 7.0923
" />
<path d="M8.5596 7.0923
L8.4991 7.0319
" />
<path d="M8.4991 7.0319
L8.5596 6.9714
" />
<path d="M8.5596 6.9714
L8.5596 7.0923
" />
<path d="M8.3177 5.8828
L8.4386 5.8223
" />
<path d="M8.4386 5.8223
L8.7410 5.8223
" />
<path d="M8.7410 5.8223
L8.8619 5.8828
" />
<path d="M8.8619 5.8828
L8.9224 6.0038
" />
<path d="M8.9224 6.0038
L8.9224 6.1247
" />
<path d="M8.9224 6.1247
L8.8619 6.2457
" />
<path d="M8.8619 6.2457
L8.8015 6.3061
" />
<path d="M8.8015 6.3061
L8.6805 6.3666
" />
<path d="M8.6805 6.3666
L8.6200 6.4271
" />
<path d="M8.6200 6.4271
L8.5596 6.5480
" />
<path d="M8.5596 6.5480
L8.5596 6.6085
" />
</g><text x="21.5123" y="60.4798"
textLength="24.2120" font-size="1.6933" lengthAdjust="spacingAndGlyphs"
text-anchor="middle" opacity="0">Conn_01x20_MountingPin</text>
<g class="stroked-text"><desc>Conn_01x20_MountingPin</desc>
<path d="M10.5058 60.3114
L10.4454 60.3719
" />
<path d="M10.4454 60.3719
L10.2639 60.4323
" />
<path d="M10.2639 60.4323
L10.1430 60.4323
" />
<path d="M10.1430 60.4323
L9.9616 60.3719
" />
<path d="M9.9616 60.3719
L9.8406 60.2509
" />
<path d="M9.8406 60.2509
L9.7801 60.1299
" />
<path d="M9.7801 60.1299
L9.7197 59.8880
" />
<path d="M9.7197 59.8880
L9.7197 59.7066
" />
<path d="M9.7197 59.7066
L9.7801 59.4647
" />
<path d="M9.7801 59.4647
L9.8406 59.3438
" />
<path d="M9.8406 59.3438
L9.9616 59.2228
" />
<path d="M9.9616 59.2228
L10.1430 59.1623
" />
<path d="M10.1430 59.1623
L10.2639 59.1623
" />
<path d="M10.2639 59.1623
L10.4454 59.2228
" />
<path d="M10.4454 59.2228
L10.5058 59.2833
" />
<path d="M11.2316 60.4323
L11.1106 60.3719
" />
<path d="M11.1106 60.3719
L11.0501 60.3114
" />
<path d="M11.0501 60.3114
L10.9897 60.1904
" />
<path d="M10.9897 60.1904
L10.9897 59.8276
" />
<path d="M10.9897 59.8276
L11.0501 59.7066
" />
<path d="M11.0501 59.7066
L11.1106 59.6461
" />
<path d="M11.1106 59.6461
L11.2316 59.5857
" />
<path d="M11.2316 59.5857
L11.4130 59.5857
" />
<path d="M11.4130 59.5857
L11.5339 59.6461
" />
<path d="M11.5339 59.6461
L11.5944 59.7066
" />
<path d="M11.5944 59.7066
L11.6549 59.8276
" />
<path d="M11.6549 59.8276
L11.6549 60.1904
" />
<path d="M11.6549 60.1904
L11.5944 60.3114
" />
<path d="M11.5944 60.3114
L11.5339 60.3719
" />
<path d="M11.5339 60.3719
L11.4130 60.4323
" />
<path d="M11.4130 60.4323
L11.2316 60.4323
" />
<path d="M12.1991 59.5857
L12.1991 60.4323
" />
<path d="M12.1991 59.7066
L12.2596 59.6461
" />
<path d="M12.2596 59.6461
L12.3806 59.5857
" />
<path d="M12.3806 59.5857
L12.5620 59.5857
" />
<path d="M12.5620 59.5857
L12.6829 59.6461
" />
<path d="M12.6829 59.6461
L12.7434 59.7671
" />
<path d="M12.7434 59.7671
L12.7434 60.4323
" />
<path d="M13.3481 59.5857
L13.3481 60.4323
" />
<path d="M13.3481 59.7066
L13.4086 59.6461
" />
<path d="M13.4086 59.6461
L13.5296 59.5857
" />
<path d="M13.5296 59.5857
L13.7110 59.5857
" />
<path d="M13.7110 59.5857
L13.8319 59.6461
" />
<path d="M13.8319 59.6461
L13.8924 59.7671
" />
<path d="M13.8924 59.7671
L13.8924 60.4323
" />
<path d="M14.1948 60.5533
L15.1624 60.5533
" />
<path d="M15.7066 59.1623
L15.8276 59.1623
" />
<path d="M15.8276 59.1623
L15.9485 59.2228
" />
<path d="M15.9485 59.2228
L16.0090 59.2833
" />
<path d="M16.0090 59.2833
L16.0695 59.4042
" />
<path d="M16.0695 59.4042
L16.1300 59.6461
" />
<path d="M16.1300 59.6461
L16.1300 59.9485
" />
<path d="M16.1300 59.9485
L16.0695 60.1904
" />
<path d="M16.0695 60.1904
L16.0090 60.3114
" />
<path d="M16.0090 60.3114
L15.9485 60.3719
" />
<path d="M15.9485 60.3719
L15.8276 60.4323
" />
<path d="M15.8276 60.4323
L15.7066 60.4323
" />
<path d="M15.7066 60.4323
L15.5857 60.3719
" />
<path d="M15.5857 60.3719
L15.5252 60.3114
" />
<path d="M15.5252 60.3114
L15.4647 60.1904
" />
<path d="M15.4647 60.1904
L15.4043 59.9485
" />
<path d="M15.4043 59.9485
L15.4043 59.6461
" />
<path d="M15.4043 59.6461
L15.4647 59.4042
" />
<path d="M15.4647 59.4042
L15.5252 59.2833
" />
<path d="M15.5252 59.2833
L15.5857 59.2228
" />
<path d="M15.5857 59.2228
L15.7066 59.1623
" />
<path d="M17.3395 60.4323
L16.6138 60.4323
" />
<path d="M16.9766 60.4323
L16.9766 59.1623
" />
<path d="M16.9766 59.1623
L16.8557 59.3438
" />
<path d="M16.8557 59.3438
L16.7347 59.4647
" />
<path d="M16.7347 59.4647
L16.6138 59.5252
" />
<path d="M17.7628 60.4323
L18.4280 59.5857
" />
<path d="M17.7628 59.5857
L18.4280 60.4323
" />
<path d="M18.8514 59.2833
L18.9118 59.2228
" />
<path d="M18.9118 59.2228
L19.0328 59.1623
" />
<path d="M19.0328 59.1623
L19.3352 59.1623
" />
<path d="M19.3352 59.1623
L19.4561 59.2228
" />
<path d="M19.4561 59.2228
L19.5166 59.2833
" />
<path d="M19.5166 59.2833
L19.5771 59.4042
" />
<path d="M19.5771 59.4042
L19.5771 59.5252
" />
<path d="M19.5771 59.5252
L19.5166 59.7066
" />
<path d="M19.5166 59.7066
L18.7909 60.4323
" />
<path d="M18.7909 60.4323
L19.5771 60.4323
" />
<path d="M20.3632 59.1623
L20.4842 59.1623
" />
<path d="M20.4842 59.1623
L20.6051 59.2228
" />
<path d="M20.6051 59.2228
L20.6656 59.2833
" />
<path d="M20.6656 59.2833
L20.7261 59.4042
" />
<path d="M20.7261 59.4042
L20.7866 59.6461
" />
<path d="M20.7866 59.6461
L20.7866 59.9485
" />
<path d="M20.7866 59.9485
L20.7261 60.1904
" />
<path d="M20.7261 60.1904
L20.6656 60.3114
" />
<path d="M20.6656 60.3114
L20.6051 60.3719
" />
<path d="M20.6051 60.3719
L20.4842 60.4323
" />
<path d="M20.4842 60.4323
L20.3632 60.4323
" />
<path d="M20.3632 60.4323
L20.2423 60.3719
" />
<path d="M20.2423 60.3719
L20.1818 60.3114
" />
<path d="M20.1818 60.3114
L20.1213 60.1904
" />
<path d="M20.1213 60.1904
L20.0609 59.9485
" />
<path d="M20.0609 59.9485
L20.0609 59.6461
" />
<path d="M20.0609 59.6461
L20.1213 59.4042
" />
<path d="M20.1213 59.4042
L20.1818 59.2833
" />
<path d="M20.1818 59.2833
L20.2423 59.2228
" />
<path d="M20.2423 59.2228
L20.3632 59.1623
" />
<path d="M21.0285 60.5533
L21.9961 60.5533
" />
<path d="M22.2984 60.4323
L22.2984 59.1623
" />
<path d="M22.2984 59.1623
L22.7218 60.0695
" />
<path d="M22.7218 60.0695
L23.1451 59.1623
" />
<path d="M23.1451 59.1623
L23.1451 60.4323
" />
<path d="M23.9313 60.4323
L23.8103 60.3719
" />
<path d="M23.8103 60.3719
L23.7498 60.3114
" />
<path d="M23.7498 60.3114
L23.6894 60.1904
" />
<path d="M23.6894 60.1904
L23.6894 59.8276
" />
<path d="M23.6894 59.8276
L23.7498 59.7066
" />
<path d="M23.7498 59.7066
L23.8103 59.6461
" />
<path d="M23.8103 59.6461
L23.9313 59.5857
" />
<path d="M23.9313 59.5857
L24.1127 59.5857
" />
<path d="M24.1127 59.5857
L24.2336 59.6461
" />
<path d="M24.2336 59.6461
L24.2941 59.7066
" />
<path d="M24.2941 59.7066
L24.3546 59.8276
" />
<path d="M24.3546 59.8276
L24.3546 60.1904
" />
<path d="M24.3546 60.1904
L24.2941 60.3114
" />
<path d="M24.2941 60.3114
L24.2336 60.3719
" />
<path d="M24.2336 60.3719
L24.1127 60.4323
" />
<path d="M24.1127 60.4323
L23.9313 60.4323
" />
<path d="M25.4431 59.5857
L25.4431 60.4323
" />
<path d="M24.8988 59.5857
L24.8988 60.2509
" />
<path d="M24.8988 60.2509
L24.9593 60.3719
" />
<path d="M24.9593 60.3719
L25.0803 60.4323
" />
<path d="M25.0803 60.4323
L25.2617 60.4323
" />
<path d="M25.2617 60.4323
L25.3826 60.3719
" />
<path d="M25.3826 60.3719
L25.4431 60.3114
" />
<path d="M26.0478 59.5857
L26.0478 60.4323
" />
<path d="M26.0478 59.7066
L26.1083 59.6461
" />
<path d="M26.1083 59.6461
L26.2293 59.5857
" />
<path d="M26.2293 59.5857
L26.4107 59.5857
" />
<path d="M26.4107 59.5857
L26.5316 59.6461
" />
<path d="M26.5316 59.6461
L26.5921 59.7671
" />
<path d="M26.5921 59.7671
L26.5921 60.4323
" />
<path d="M27.0154 59.5857
L27.4992 59.5857
" />
<path d="M27.1968 59.1623
L27.1968 60.2509
" />
<path d="M27.1968 60.2509
L27.2573 60.3719
" />
<path d="M27.2573 60.3719
L27.3783 60.4323
" />
<path d="M27.3783 60.4323
L27.4992 60.4323
" />
<path d="M27.9225 60.4323
L27.9225 59.5857
" />
<path d="M27.9225 59.1623
L27.8621 59.2228
" />
<path d="M27.8621 59.2228
L27.9225 59.2833
" />
<path d="M27.9225 59.2833
L27.9830 59.2228
" />
<path d="M27.9830 59.2228
L27.9225 59.1623
" />
<path d="M27.9225 59.1623
L27.9225 59.2833
" />
<path d="M28.5273 59.5857
L28.5273 60.4323
" />
<path d="M28.5273 59.7066
L28.5878 59.6461
" />
<path d="M28.5878 59.6461
L28.7088 59.5857
" />
<path d="M28.7088 59.5857
L28.8902 59.5857
" />
<path d="M28.8902 59.5857
L29.0111 59.6461
" />
<path d="M29.0111 59.6461
L29.0716 59.7671
" />
<path d="M29.0716 59.7671
L29.0716 60.4323
" />
<path d="M30.2206 59.5857
L30.2206 60.6138
" />
<path d="M30.2206 60.6138
L30.1601 60.7347
" />
<path d="M30.1601 60.7347
L30.0997 60.7952
" />
<path d="M30.0997 60.7952
L29.9787 60.8557
" />
<path d="M29.9787 60.8557
L29.7973 60.8557
" />
<path d="M29.7973 60.8557
L29.6763 60.7952
" />
<path d="M30.2206 60.3719
L30.0997 60.4323
" />
<path d="M30.0997 60.4323
L29.8578 60.4323
" />
<path d="M29.8578 60.4323
L29.7368 60.3719
" />
<path d="M29.7368 60.3719
L29.6763 60.3114
" />
<path d="M29.6763 60.3114
L29.6159 60.1904
" />
<path d="M29.6159 60.1904
L29.6159 59.8276
" />
<path d="M29.6159 59.8276
L29.6763 59.7066
" />
<path d="M29.6763 59.7066
L29.7368 59.6461
" />
<path d="M29.7368 59.6461
L29.8578 59.5857
" />
<path d="M29.8578 59.5857
L30.0997 59.5857
" />
<path d="M30.0997 59.5857
L30.2206 59.6461
" />
<path d="M30.8253 60.4323
L30.8253 59.1623
" />
<path d="M30.8253 59.1623
L31.3091 59.1623
" />
<path d="M31.3091 59.1623
L31.4301 59.2228
" />
<path d="M31.4301 59.2228
L31.4906 59.2833
" />
<path d="M31.4906 59.2833
L31.5510 59.4042
" />
<path d="M31.5510 59.4042
L31.5510 59.5857
" />
<path d="M31.5510 59.5857
L31.4906 59.7066
" />
<path d="M31.4906 59.7066
L31.4301 59.7671
" />
<path d="M31.4301 59.7671
L31.3091 59.8276
" />
<path d="M31.3091 59.8276
L30.8253 59.8276
" />
<path d="M32.0953 60.4323
L32.0953 59.5857
" />
<path d="M32.0953 59.1623
L32.0349 59.2228
" />
<path d="M32.0349 59.2228
L32.0953 59.2833
" />
<path d="M32.0953 59.2833
L32.1558 59.2228
" />
<path d="M32.1558 59.2228
L32.0953 59.1623
" />
<path d="M32.0953 59.1623
L32.0953 59.2833
" />
<path d="M32.7001 59.5857
L32.7001 60.4323
" />
<path d="M32.7001 59.7066
L32.7606 59.6461
" />
<path d="M32.7606 59.6461
L32.8816 59.5857
" />
<path d="M32.8816 59.5857
L33.0630 59.5857
" />
<path d="M33.0630 59.5857
L33.1839 59.6461
" />
<path d="M33.1839 59.6461
L33.2444 59.7671
" />
<path d="M33.2444 59.7671
L33.2444 60.4323
" />
</g></g>
<g style="fill:#840084; fill-opacity:0.0; 
stroke:#840084; stroke-width:0.1588; stroke-opacity:1; 
stroke-linecap:round; stroke-linejoin:round;">
<text x="8.1363" y="32.5398"
textLength="1.0501" font-size="1.6933" lengthAdjust="spacingAndGlyphs"
text-anchor="middle" opacity="0">~</text>
<g class="stroked-text"><desc>~</desc>
<path d="M7.8037 32.0085
L7.8642 31.9480
" />
<path d="M7.8642 31.9480
L7.9851 31.8876
" />
<path d="M7.9851 31.8876
L8.2270 32.0085
" />
<path d="M8.2270 32.0085
L8.3480 31.9480
" />
<path d="M8.3480 31.9480
L8.4085 31.8876
" />
</g></g> 
</svg>
