<?xml version="1.0" standalone="no"?>
 <!DOCTYPE svg PUBLIC "-//W3C//DTD SVG 1.1//EN" 
 "http://www.w3.org/Graphics/SVG/1.1/DTD/svg11.dtd"> 
<svg
  xmlns:svg="http://www.w3.org/2000/svg"
  xmlns="http://www.w3.org/2000/svg"
  xmlns:xlink="http://www.w3.org/1999/xlink"
  version="1.1"
  width="24.3840mm" height="24.3840mm" viewBox="0.0000 0.0000 24.3840 24.3840">
<title>SVG Image created as working.svg date 2023/07/31 04:47:19 </title>
  <desc>Image generated by Eeschema-SVG </desc>
<g style="fill:#000000; fill-opacity:1.0000;stroke:#000000; stroke-opacity:1.0000;
stroke-linecap:round; stroke-linejoin:round;"
 transform="translate(0 0) scale(1 1)">
</g>
<g style="fill:#840000; fill-opacity:0.0; 
stroke:#840000; stroke-width:0.0000; stroke-opacity:1; 
stroke-linecap:round; stroke-linejoin:round;">
</g>
<g style="fill:#FFFFC2; fill-opacity:0.0; 
stroke:#FFFFC2; stroke-width:0.0000; stroke-opacity:1; 
stroke-linecap:round; stroke-linejoin:round;">
</g>
<g style="fill:#FFFFC2; fill-opacity:1.0000; 
stroke:#FFFFC2; stroke-width:0.0000; stroke-opacity:1; 
stroke-linecap:round; stroke-linejoin:round;">
<path style="fill:#FFFFC2; fill-opacity:1.0000; 
stroke:#FFFFC2; stroke-width:0.0000; stroke-opacity:1; 
stroke-linecap:round; stroke-linejoin:round;fill-rule:evenodd;"
d="M 9.6521,10.9221
9.6521,13.4621
10.9221,12.1921
9.6521,10.9221
Z" /> 
<rect x="5.842100" y="5.842100" width="12.700000" height="12.700000" rx="0.000000" />
</g>
<g style="fill:#840084; fill-opacity:1.0000; 
stroke:#840084; stroke-width:0.0000; stroke-opacity:1; 
stroke-linecap:round; stroke-linejoin:round;">
</g>
<g style="fill:#840000; fill-opacity:1.0000; 
stroke:#840000; stroke-width:0.0000; stroke-opacity:1; 
stroke-linecap:round; stroke-linejoin:round;">
</g>
<g style="fill:#840000; fill-opacity:0.0; 
stroke:#840000; stroke-width:0.2540; stroke-opacity:1; 
stroke-linecap:round; stroke-linejoin:round;">
<path style="fill:#840000; fill-opacity:0.0; 
stroke:#840000; stroke-width:0.2540; stroke-opacity:1; 
stroke-linecap:round; stroke-linejoin:round;fill:none"
d="M 9.6521,10.9221
9.6521,13.4621
10.9221,12.1921
9.6521,10.9221
Z" /> 
<rect x="5.842100" y="5.842100" width="12.700000" height="12.700000" rx="0.000000" />
</g>
<g style="fill:#840000; fill-opacity:0.0; 
stroke:#840000; stroke-width:0.1524; stroke-opacity:1; 
stroke-linecap:round; stroke-linejoin:round;">
<path d="M12.1921 5.8421
L12.1921 2.0321
" />
</g>
<g style="fill:#006464; fill-opacity:0.0; 
stroke:#006464; stroke-width:0.1524; stroke-opacity:1; 
stroke-linecap:round; stroke-linejoin:round;">
<g transform="rotate(-90.000000 12.1921 6.3501)">
<text x="12.1921" y="6.9851"
textLength="3.5136" font-size="1.6933" lengthAdjust="spacingAndGlyphs"
text-anchor="end" opacity="0">Vdd</text>
</g>
<g class="stroked-text"><desc>Vdd</desc>
<path d="M11.5096 9.6157
L12.7796 9.1924
" />
<path d="M12.7796 9.1924
L11.5096 8.7690
" />
<path d="M12.7796 7.8014
L11.5096 7.8014
" />
<path d="M12.7192 7.8014
L12.7796 7.9223
" />
<path d="M12.7796 7.9223
L12.7796 8.1642
" />
<path d="M12.7796 8.1642
L12.7192 8.2852
" />
<path d="M12.7192 8.2852
L12.6587 8.3457
" />
<path d="M12.6587 8.3457
L12.5377 8.4061
" />
<path d="M12.5377 8.4061
L12.1749 8.4061
" />
<path d="M12.1749 8.4061
L12.0539 8.3457
" />
<path d="M12.0539 8.3457
L11.9934 8.2852
" />
<path d="M11.9934 8.2852
L11.9330 8.1642
" />
<path d="M11.9330 8.1642
L11.9330 7.9223
" />
<path d="M11.9330 7.9223
L11.9934 7.8014
" />
<path d="M12.7796 6.6524
L11.5096 6.6524
" />
<path d="M12.7192 6.6524
L12.7796 6.7733
" />
<path d="M12.7796 6.7733
L12.7796 7.0152
" />
<path d="M12.7796 7.0152
L12.7192 7.1362
" />
<path d="M12.7192 7.1362
L12.6587 7.1967
" />
<path d="M12.6587 7.1967
L12.5377 7.2571
" />
<path d="M12.5377 7.2571
L12.1749 7.2571
" />
<path d="M12.1749 7.2571
L12.0539 7.1967
" />
<path d="M12.0539 7.1967
L11.9934 7.1362
" />
<path d="M11.9934 7.1362
L11.9330 7.0152
" />
<path d="M11.9330 7.0152
L11.9330 6.7733
" />
<path d="M11.9330 6.7733
L11.9934 6.6524
" />
</g></g>
<g style="fill:#A90000; fill-opacity:0.0; 
stroke:#A90000; stroke-width:0.1524; stroke-opacity:1; 
stroke-linecap:round; stroke-linejoin:round;">
<g transform="rotate(-90.000000 11.9381 3.9371)">
<text x="11.9381" y="3.9371"
textLength="1.3365" font-size="1.6933" lengthAdjust="spacingAndGlyphs"
text-anchor="middle" opacity="0">1</text>
</g>
<g class="stroked-text"><desc>1</desc>
<path d="M11.7826 3.5741
L11.7826 4.2998
" />
<path d="M11.7826 3.9370
L10.5126 3.9370
" />
<path d="M10.5126 3.9370
L10.6941 4.0579
" />
<path d="M10.6941 4.0579
L10.8150 4.1789
" />
<path d="M10.8150 4.1789
L10.8755 4.2998
" />
</g></g>
<g style="fill:#840000; fill-opacity:0.0; 
stroke:#840000; stroke-width:0.1524; stroke-opacity:1; 
stroke-linecap:round; stroke-linejoin:round;">
<path d="M12.1921 18.5421
L12.1921 22.3521
" />
</g>
<g style="fill:#006464; fill-opacity:0.0; 
stroke:#006464; stroke-width:0.1524; stroke-opacity:1; 
stroke-linecap:round; stroke-linejoin:round;">
<g transform="rotate(-90.000000 12.1921 18.0341)">
<text x="12.1921" y="18.6691"
textLength="3.2718" font-size="1.6933" lengthAdjust="spacingAndGlyphs"
text-anchor="start" opacity="0">Vss</text>
</g>
<g class="stroked-text"><desc>Vss</desc>
<path d="M11.5096 17.9131
L12.7796 17.4898
" />
<path d="M12.7796 17.4898
L11.5096 17.0664
" />
<path d="M12.7192 16.7035
L12.7796 16.5826
" />
<path d="M12.7796 16.5826
L12.7796 16.3407
" />
<path d="M12.7796 16.3407
L12.7192 16.2197
" />
<path d="M12.7192 16.2197
L12.5982 16.1593
" />
<path d="M12.5982 16.1593
L12.5377 16.1593
" />
<path d="M12.5377 16.1593
L12.4168 16.2197
" />
<path d="M12.4168 16.2197
L12.3563 16.3407
" />
<path d="M12.3563 16.3407
L12.3563 16.5221
" />
<path d="M12.3563 16.5221
L12.2958 16.6431
" />
<path d="M12.2958 16.6431
L12.1749 16.7035
" />
<path d="M12.1749 16.7035
L12.1144 16.7035
" />
<path d="M12.1144 16.7035
L11.9934 16.6431
" />
<path d="M11.9934 16.6431
L11.9330 16.5221
" />
<path d="M11.9330 16.5221
L11.9330 16.3407
" />
<path d="M11.9330 16.3407
L11.9934 16.2197
" />
<path d="M12.7192 15.6754
L12.7796 15.5545
" />
<path d="M12.7796 15.5545
L12.7796 15.3126
" />
<path d="M12.7796 15.3126
L12.7192 15.1916
" />
<path d="M12.7192 15.1916
L12.5982 15.1312
" />
<path d="M12.5982 15.1312
L12.5377 15.1312
" />
<path d="M12.5377 15.1312
L12.4168 15.1916
" />
<path d="M12.4168 15.1916
L12.3563 15.3126
" />
<path d="M12.3563 15.3126
L12.3563 15.4940
" />
<path d="M12.3563 15.4940
L12.2958 15.6150
" />
<path d="M12.2958 15.6150
L12.1749 15.6754
" />
<path d="M12.1749 15.6754
L12.1144 15.6754
" />
<path d="M12.1144 15.6754
L11.9934 15.6150
" />
<path d="M11.9934 15.6150
L11.9330 15.4940
" />
<path d="M11.9330 15.4940
L11.9330 15.3126
" />
<path d="M11.9330 15.3126
L11.9934 15.1916
" />
</g></g>
<g style="fill:#A90000; fill-opacity:0.0; 
stroke:#A90000; stroke-width:0.1524; stroke-opacity:1; 
stroke-linecap:round; stroke-linejoin:round;">
<g transform="rotate(-90.000000 11.9381 20.4471)">
<text x="11.9381" y="20.4471"
textLength="1.3365" font-size="1.6933" lengthAdjust="spacingAndGlyphs"
text-anchor="middle" opacity="0">8</text>
</g>
<g class="stroked-text"><desc>8</desc>
<path d="M11.0569 20.5679
L10.9964 20.6889
" />
<path d="M10.9964 20.6889
L10.9360 20.7494
" />
<path d="M10.9360 20.7494
L10.8150 20.8098
" />
<path d="M10.8150 20.8098
L10.7545 20.8098
" />
<path d="M10.7545 20.8098
L10.6336 20.7494
" />
<path d="M10.6336 20.7494
L10.5731 20.6889
" />
<path d="M10.5731 20.6889
L10.5126 20.5679
" />
<path d="M10.5126 20.5679
L10.5126 20.3260
" />
<path d="M10.5126 20.3260
L10.5731 20.2051
" />
<path d="M10.5731 20.2051
L10.6336 20.1446
" />
<path d="M10.6336 20.1446
L10.7545 20.0841
" />
<path d="M10.7545 20.0841
L10.8150 20.0841
" />
<path d="M10.8150 20.0841
L10.9360 20.1446
" />
<path d="M10.9360 20.1446
L10.9964 20.2051
" />
<path d="M10.9964 20.2051
L11.0569 20.3260
" />
<path d="M11.0569 20.3260
L11.0569 20.5679
" />
<path d="M11.0569 20.5679
L11.1174 20.6889
" />
<path d="M11.1174 20.6889
L11.1779 20.7494
" />
<path d="M11.1779 20.7494
L11.2988 20.8098
" />
<path d="M11.2988 20.8098
L11.5407 20.8098
" />
<path d="M11.5407 20.8098
L11.6617 20.7494
" />
<path d="M11.6617 20.7494
L11.7222 20.6889
" />
<path d="M11.7222 20.6889
L11.7826 20.5679
" />
<path d="M11.7826 20.5679
L11.7826 20.3260
" />
<path d="M11.7826 20.3260
L11.7222 20.2051
" />
<path d="M11.7222 20.2051
L11.6617 20.1446
" />
<path d="M11.6617 20.1446
L11.5407 20.0841
" />
<path d="M11.5407 20.0841
L11.2988 20.0841
" />
<path d="M11.2988 20.0841
L11.1779 20.1446
" />
<path d="M11.1779 20.1446
L11.1174 20.2051
" />
<path d="M11.1174 20.2051
L11.0569 20.3260
" />
</g></g>
<g style="fill:#840000; fill-opacity:0.0; 
stroke:#840000; stroke-width:0.1524; stroke-opacity:1; 
stroke-linecap:round; stroke-linejoin:round;">
<path d="M18.5421 12.1921
L22.3521 12.1921
" />
</g>
<g style="fill:#A90000; fill-opacity:0.0; 
stroke:#A90000; stroke-width:0.1524; stroke-opacity:1; 
stroke-linecap:round; stroke-linejoin:round;">
<text x="20.4471" y="11.9381"
textLength="1.3365" font-size="1.6933" lengthAdjust="spacingAndGlyphs"
text-anchor="middle" opacity="0">2</text>
<g class="stroked-text"><desc>2</desc>
<path d="M20.0843 10.6336
L20.1447 10.5731
" />
<path d="M20.1447 10.5731
L20.2657 10.5126
" />
<path d="M20.2657 10.5126
L20.5681 10.5126
" />
<path d="M20.5681 10.5126
L20.6890 10.5731
" />
<path d="M20.6890 10.5731
L20.7495 10.6336
" />
<path d="M20.7495 10.6336
L20.8100 10.7545
" />
<path d="M20.8100 10.7545
L20.8100 10.8755
" />
<path d="M20.8100 10.8755
L20.7495 11.0569
" />
<path d="M20.7495 11.0569
L20.0238 11.7826
" />
<path d="M20.0238 11.7826
L20.8100 11.7826
" />
</g></g>
<g style="fill:#840000; fill-opacity:0.0; 
stroke:#840000; stroke-width:0.1524; stroke-opacity:1; 
stroke-linecap:round; stroke-linejoin:round;">
<path d="M5.8421 12.1921
L2.0321 12.1921
" />
</g>
<g style="fill:#A90000; fill-opacity:0.0; 
stroke:#A90000; stroke-width:0.1524; stroke-opacity:1; 
stroke-linecap:round; stroke-linejoin:round;">
<text x="3.9371" y="11.9381"
textLength="1.3365" font-size="1.6933" lengthAdjust="spacingAndGlyphs"
text-anchor="middle" opacity="0">3</text>
<g class="stroked-text"><desc>3</desc>
<path d="M3.5138 10.5126
L4.3000 10.5126
" />
<path d="M4.3000 10.5126
L3.8766 10.9964
" />
<path d="M3.8766 10.9964
L4.0581 10.9964
" />
<path d="M4.0581 10.9964
L4.1790 11.0569
" />
<path d="M4.1790 11.0569
L4.2395 11.1174
" />
<path d="M4.2395 11.1174
L4.3000 11.2383
" />
<path d="M4.3000 11.2383
L4.3000 11.5407
" />
<path d="M4.3000 11.5407
L4.2395 11.6617
" />
<path d="M4.2395 11.6617
L4.1790 11.7222
" />
<path d="M4.1790 11.7222
L4.0581 11.7826
" />
<path d="M4.0581 11.7826
L3.6952 11.7826
" />
<path d="M3.6952 11.7826
L3.5743 11.7222
" />
<path d="M3.5743 11.7222
L3.5138 11.6617
" />
</g></g>
<g style="fill:#840084; fill-opacity:0.0; 
stroke:#840084; stroke-width:0.1524; stroke-opacity:1; 
stroke-linecap:round; stroke-linejoin:round;">
</g>
<g style="fill:#006464; fill-opacity:0.0; 
stroke:#006464; stroke-width:0.1524; stroke-opacity:1; 
stroke-linecap:round; stroke-linejoin:round;">
</g>
<g style="fill:#006464; fill-opacity:0.0; 
stroke:#006464; stroke-width:0.1588; stroke-opacity:1; 
stroke-linecap:round; stroke-linejoin:round;">
<text x="18.5421" y="6.4771"
textLength="3.6507" font-size="1.6933" lengthAdjust="spacingAndGlyphs"
text-anchor="middle" opacity="0">U?A</text>
<g class="stroked-text"><desc>U?A</desc>
<path d="M17.0906 5.1596
L17.0906 6.1877
" />
<path d="M17.0906 6.1877
L17.1511 6.3087
" />
<path d="M17.1511 6.3087
L17.2116 6.3692
" />
<path d="M17.2116 6.3692
L17.3325 6.4296
" />
<path d="M17.3325 6.4296
L17.5744 6.4296
" />
<path d="M17.5744 6.4296
L17.6954 6.3692
" />
<path d="M17.6954 6.3692
L17.7559 6.3087
" />
<path d="M17.7559 6.3087
L17.8163 6.1877
" />
<path d="M17.8163 6.1877
L17.8163 5.1596
" />
<path d="M18.6026 6.3087
L18.6630 6.3692
" />
<path d="M18.6630 6.3692
L18.6026 6.4296
" />
<path d="M18.6026 6.4296
L18.5421 6.3692
" />
<path d="M18.5421 6.3692
L18.6026 6.3087
" />
<path d="M18.6026 6.3087
L18.6026 6.4296
" />
<path d="M18.3607 5.2201
L18.4816 5.1596
" />
<path d="M18.4816 5.1596
L18.7840 5.1596
" />
<path d="M18.7840 5.1596
L18.9049 5.2201
" />
<path d="M18.9049 5.2201
L18.9654 5.3411
" />
<path d="M18.9654 5.3411
L18.9654 5.4620
" />
<path d="M18.9654 5.4620
L18.9049 5.5830
" />
<path d="M18.9049 5.5830
L18.8445 5.6434
" />
<path d="M18.8445 5.6434
L18.7235 5.7039
" />
<path d="M18.7235 5.7039
L18.6630 5.7644
" />
<path d="M18.6630 5.7644
L18.6026 5.8853
" />
<path d="M18.6026 5.8853
L18.6026 5.9458
" />
<path d="M19.4493 6.0668
L20.0540 6.0668
" />
<path d="M19.3283 6.4296
L19.7516 5.1596
" />
<path d="M19.7516 5.1596
L20.1750 6.4296
" />
</g><text x="19.8121" y="21.7171"
textLength="4.9810" font-size="1.6933" lengthAdjust="spacingAndGlyphs"
text-anchor="middle" opacity="0">4050</text>
<g class="stroked-text"><desc>4050</desc>
<path d="M18.2397 20.8230
L18.2397 21.6696
" />
<path d="M17.9373 20.3392
L17.6350 21.2463
" />
<path d="M17.6350 21.2463
L18.4211 21.2463
" />
<path d="M19.1468 20.3996
L19.2678 20.3996
" />
<path d="M19.2678 20.3996
L19.3887 20.4601
" />
<path d="M19.3887 20.4601
L19.4492 20.5206
" />
<path d="M19.4492 20.5206
L19.5097 20.6415
" />
<path d="M19.5097 20.6415
L19.5702 20.8834
" />
<path d="M19.5702 20.8834
L19.5702 21.1858
" />
<path d="M19.5702 21.1858
L19.5097 21.4277
" />
<path d="M19.5097 21.4277
L19.4492 21.5487
" />
<path d="M19.4492 21.5487
L19.3887 21.6092
" />
<path d="M19.3887 21.6092
L19.2678 21.6696
" />
<path d="M19.2678 21.6696
L19.1468 21.6696
" />
<path d="M19.1468 21.6696
L19.0259 21.6092
" />
<path d="M19.0259 21.6092
L18.9654 21.5487
" />
<path d="M18.9654 21.5487
L18.9049 21.4277
" />
<path d="M18.9049 21.4277
L18.8445 21.1858
" />
<path d="M18.8445 21.1858
L18.8445 20.8834
" />
<path d="M18.8445 20.8834
L18.9049 20.6415
" />
<path d="M18.9049 20.6415
L18.9654 20.5206
" />
<path d="M18.9654 20.5206
L19.0259 20.4601
" />
<path d="M19.0259 20.4601
L19.1468 20.3996
" />
<path d="M20.7192 20.3996
L20.1144 20.3996
" />
<path d="M20.1144 20.3996
L20.0540 21.0044
" />
<path d="M20.0540 21.0044
L20.1144 20.9439
" />
<path d="M20.1144 20.9439
L20.2354 20.8834
" />
<path d="M20.2354 20.8834
L20.5378 20.8834
" />
<path d="M20.5378 20.8834
L20.6587 20.9439
" />
<path d="M20.6587 20.9439
L20.7192 21.0044
" />
<path d="M20.7192 21.0044
L20.7797 21.1253
" />
<path d="M20.7797 21.1253
L20.7797 21.4277
" />
<path d="M20.7797 21.4277
L20.7192 21.5487
" />
<path d="M20.7192 21.5487
L20.6587 21.6092
" />
<path d="M20.6587 21.6092
L20.5378 21.6696
" />
<path d="M20.5378 21.6696
L20.2354 21.6696
" />
<path d="M20.2354 21.6696
L20.1144 21.6092
" />
<path d="M20.1144 21.6092
L20.0540 21.5487
" />
<path d="M21.5658 20.3996
L21.6868 20.3996
" />
<path d="M21.6868 20.3996
L21.8077 20.4601
" />
<path d="M21.8077 20.4601
L21.8682 20.5206
" />
<path d="M21.8682 20.5206
L21.9287 20.6415
" />
<path d="M21.9287 20.6415
L21.9892 20.8834
" />
<path d="M21.9892 20.8834
L21.9892 21.1858
" />
<path d="M21.9892 21.1858
L21.9287 21.4277
" />
<path d="M21.9287 21.4277
L21.8682 21.5487
" />
<path d="M21.8682 21.5487
L21.8077 21.6092
" />
<path d="M21.8077 21.6092
L21.6868 21.6696
" />
<path d="M21.6868 21.6696
L21.5658 21.6696
" />
<path d="M21.5658 21.6696
L21.4449 21.6092
" />
<path d="M21.4449 21.6092
L21.3844 21.5487
" />
<path d="M21.3844 21.5487
L21.3239 21.4277
" />
<path d="M21.3239 21.4277
L21.2635 21.1858
" />
<path d="M21.2635 21.1858
L21.2635 20.8834
" />
<path d="M21.2635 20.8834
L21.3239 20.6415
" />
<path d="M21.3239 20.6415
L21.3844 20.5206
" />
<path d="M21.3844 20.5206
L21.4449 20.4601
" />
<path d="M21.4449 20.4601
L21.5658 20.3996
" />
</g></g> 
</svg>
