<?xml version="1.0" standalone="no"?>
 <!DOCTYPE svg PUBLIC "-//W3C//DTD SVG 1.1//EN" 
 "http://www.w3.org/Graphics/SVG/1.1/DTD/svg11.dtd"> 
<svg
  xmlns:svg="http://www.w3.org/2000/svg"
  xmlns="http://www.w3.org/2000/svg"
  xmlns:xlink="http://www.w3.org/1999/xlink"
  version="1.1"
  width="33.6296mm" height="26.3906mm" viewBox="0.0000 0.0000 33.6296 26.3906">
<title>SVG Image created as working.svg date 2023/08/01 20:58:21 </title>
  <desc>Image generated by Eeschema-SVG </desc>
<g style="fill:#000000; fill-opacity:1.0000;stroke:#000000; stroke-opacity:1.0000;
stroke-linecap:round; stroke-linejoin:round;"
 transform="translate(0 0) scale(1 1)">
</g>
<g style="fill:#840000; fill-opacity:0.0; 
stroke:#840000; stroke-width:0.0000; stroke-opacity:1; 
stroke-linecap:round; stroke-linejoin:round;">
</g>
<g style="fill:#FFFFC2; fill-opacity:0.0; 
stroke:#FFFFC2; stroke-width:0.0000; stroke-opacity:1; 
stroke-linecap:round; stroke-linejoin:round;">
</g>
<g style="fill:#FFFFC2; fill-opacity:1.0000; 
stroke:#FFFFC2; stroke-width:0.0000; stroke-opacity:1; 
stroke-linecap:round; stroke-linejoin:round;">
<rect x="14.273300" y="4.302200" width="5.080000" height="17.780000" rx="0.000000" />
</g>
<g style="fill:#840084; fill-opacity:1.0000; 
stroke:#840084; stroke-width:0.0000; stroke-opacity:1; 
stroke-linecap:round; stroke-linejoin:round;">
</g>
<g style="fill:#840000; fill-opacity:1.0000; 
stroke:#840000; stroke-width:0.0000; stroke-opacity:1; 
stroke-linecap:round; stroke-linejoin:round;">
</g>
<g style="fill:#840000; fill-opacity:0.0; 
stroke:#840000; stroke-width:0.1524; stroke-opacity:1; 
stroke-linecap:round; stroke-linejoin:round;">
<rect x="14.273300" y="20.685200" width="1.270000" height="0.254000" rx="0.000000" />
<rect x="14.273300" y="18.145200" width="1.270000" height="0.254000" rx="0.000000" />
<rect x="14.273300" y="15.605200" width="1.270000" height="0.254000" rx="0.000000" />
<rect x="14.273300" y="13.065200" width="1.270000" height="0.254000" rx="0.000000" />
<rect x="14.273300" y="10.525200" width="1.270000" height="0.254000" rx="0.000000" />
<rect x="14.273300" y="7.985200" width="1.270000" height="0.254000" rx="0.000000" />
<rect x="14.273300" y="5.445200" width="1.270000" height="0.254000" rx="0.000000" />
</g>
<g style="fill:#840000; fill-opacity:0.0; 
stroke:#840000; stroke-width:0.2540; stroke-opacity:1; 
stroke-linecap:round; stroke-linejoin:round;">
<rect x="14.273300" y="4.302200" width="5.080000" height="17.780000" rx="0.000000" />
</g>
<g style="fill:#840000; fill-opacity:0.0; 
stroke:#840000; stroke-width:0.1524; stroke-opacity:1; 
stroke-linecap:round; stroke-linejoin:round;">
<rect x="18.083300" y="20.685200" width="1.270000" height="0.254000" rx="0.000000" />
<rect x="18.083300" y="18.145200" width="1.270000" height="0.254000" rx="0.000000" />
<rect x="18.083300" y="15.605200" width="1.270000" height="0.254000" rx="0.000000" />
<rect x="18.083300" y="13.065200" width="1.270000" height="0.254000" rx="0.000000" />
<rect x="18.083300" y="10.525200" width="1.270000" height="0.254000" rx="0.000000" />
<rect x="18.083300" y="7.985200" width="1.270000" height="0.254000" rx="0.000000" />
<rect x="18.083300" y="5.445200" width="1.270000" height="0.254000" rx="0.000000" />
<path d="M14.2733 5.5722
L10.4633 5.5722
" />
</g>
<g style="fill:#A90000; fill-opacity:0.0; 
stroke:#A90000; stroke-width:0.1524; stroke-opacity:1; 
stroke-linecap:round; stroke-linejoin:round;">
<text x="12.3683" y="5.3182"
textLength="2.4855" font-size="1.6933" lengthAdjust="spacingAndGlyphs"
text-anchor="middle" opacity="0">a1</text>
<g class="stroked-text"><desc>a1</desc>
<path d="M12.0357 5.1627
L12.0357 4.4975
" />
<path d="M12.0357 4.4975
L11.9752 4.3765
" />
<path d="M11.9752 4.3765
L11.8543 4.3161
" />
<path d="M11.8543 4.3161
L11.6124 4.3161
" />
<path d="M11.6124 4.3161
L11.4914 4.3765
" />
<path d="M12.0357 5.1023
L11.9148 5.1627
" />
<path d="M11.9148 5.1627
L11.6124 5.1627
" />
<path d="M11.6124 5.1627
L11.4914 5.1023
" />
<path d="M11.4914 5.1023
L11.4310 4.9813
" />
<path d="M11.4310 4.9813
L11.4310 4.8603
" />
<path d="M11.4310 4.8603
L11.4914 4.7394
" />
<path d="M11.4914 4.7394
L11.6124 4.6789
" />
<path d="M11.6124 4.6789
L11.9148 4.6789
" />
<path d="M11.9148 4.6789
L12.0357 4.6184
" />
<path d="M13.3057 5.1627
L12.5800 5.1627
" />
<path d="M12.9428 5.1627
L12.9428 3.8927
" />
<path d="M12.9428 3.8927
L12.8219 4.0742
" />
<path d="M12.8219 4.0742
L12.7009 4.1951
" />
<path d="M12.7009 4.1951
L12.5800 4.2556
" />
</g></g>
<g style="fill:#840000; fill-opacity:0.0; 
stroke:#840000; stroke-width:0.1524; stroke-opacity:1; 
stroke-linecap:round; stroke-linejoin:round;">
<path d="M14.2733 8.1122
L10.4633 8.1122
" />
</g>
<g style="fill:#A90000; fill-opacity:0.0; 
stroke:#A90000; stroke-width:0.1524; stroke-opacity:1; 
stroke-linecap:round; stroke-linejoin:round;">
<text x="12.3683" y="7.8582"
textLength="2.4855" font-size="1.6933" lengthAdjust="spacingAndGlyphs"
text-anchor="middle" opacity="0">a2</text>
<g class="stroked-text"><desc>a2</desc>
<path d="M12.0357 7.7027
L12.0357 7.0375
" />
<path d="M12.0357 7.0375
L11.9752 6.9165
" />
<path d="M11.9752 6.9165
L11.8543 6.8561
" />
<path d="M11.8543 6.8561
L11.6124 6.8561
" />
<path d="M11.6124 6.8561
L11.4914 6.9165
" />
<path d="M12.0357 7.6423
L11.9148 7.7027
" />
<path d="M11.9148 7.7027
L11.6124 7.7027
" />
<path d="M11.6124 7.7027
L11.4914 7.6423
" />
<path d="M11.4914 7.6423
L11.4310 7.5213
" />
<path d="M11.4310 7.5213
L11.4310 7.4003
" />
<path d="M11.4310 7.4003
L11.4914 7.2794
" />
<path d="M11.4914 7.2794
L11.6124 7.2189
" />
<path d="M11.6124 7.2189
L11.9148 7.2189
" />
<path d="M11.9148 7.2189
L12.0357 7.1584
" />
<path d="M12.5800 6.5537
L12.6404 6.4932
" />
<path d="M12.6404 6.4932
L12.7614 6.4327
" />
<path d="M12.7614 6.4327
L13.0638 6.4327
" />
<path d="M13.0638 6.4327
L13.1847 6.4932
" />
<path d="M13.1847 6.4932
L13.2452 6.5537
" />
<path d="M13.2452 6.5537
L13.3057 6.6746
" />
<path d="M13.3057 6.6746
L13.3057 6.7956
" />
<path d="M13.3057 6.7956
L13.2452 6.9770
" />
<path d="M13.2452 6.9770
L12.5195 7.7027
" />
<path d="M12.5195 7.7027
L13.3057 7.7027
" />
</g></g>
<g style="fill:#840000; fill-opacity:0.0; 
stroke:#840000; stroke-width:0.1524; stroke-opacity:1; 
stroke-linecap:round; stroke-linejoin:round;">
<path d="M14.2733 10.6522
L10.4633 10.6522
" />
</g>
<g style="fill:#A90000; fill-opacity:0.0; 
stroke:#A90000; stroke-width:0.1524; stroke-opacity:1; 
stroke-linecap:round; stroke-linejoin:round;">
<text x="12.3683" y="10.3982"
textLength="2.4855" font-size="1.6933" lengthAdjust="spacingAndGlyphs"
text-anchor="middle" opacity="0">a3</text>
<g class="stroked-text"><desc>a3</desc>
<path d="M12.0357 10.2427
L12.0357 9.5775
" />
<path d="M12.0357 9.5775
L11.9752 9.4565
" />
<path d="M11.9752 9.4565
L11.8543 9.3961
" />
<path d="M11.8543 9.3961
L11.6124 9.3961
" />
<path d="M11.6124 9.3961
L11.4914 9.4565
" />
<path d="M12.0357 10.1823
L11.9148 10.2427
" />
<path d="M11.9148 10.2427
L11.6124 10.2427
" />
<path d="M11.6124 10.2427
L11.4914 10.1823
" />
<path d="M11.4914 10.1823
L11.4310 10.0613
" />
<path d="M11.4310 10.0613
L11.4310 9.9403
" />
<path d="M11.4310 9.9403
L11.4914 9.8194
" />
<path d="M11.4914 9.8194
L11.6124 9.7589
" />
<path d="M11.6124 9.7589
L11.9148 9.7589
" />
<path d="M11.9148 9.7589
L12.0357 9.6984
" />
<path d="M12.5195 8.9727
L13.3057 8.9727
" />
<path d="M13.3057 8.9727
L12.8823 9.4565
" />
<path d="M12.8823 9.4565
L13.0638 9.4565
" />
<path d="M13.0638 9.4565
L13.1847 9.5170
" />
<path d="M13.1847 9.5170
L13.2452 9.5775
" />
<path d="M13.2452 9.5775
L13.3057 9.6984
" />
<path d="M13.3057 9.6984
L13.3057 10.0008
" />
<path d="M13.3057 10.0008
L13.2452 10.1218
" />
<path d="M13.2452 10.1218
L13.1847 10.1823
" />
<path d="M13.1847 10.1823
L13.0638 10.2427
" />
<path d="M13.0638 10.2427
L12.7009 10.2427
" />
<path d="M12.7009 10.2427
L12.5800 10.1823
" />
<path d="M12.5800 10.1823
L12.5195 10.1218
" />
</g></g>
<g style="fill:#840000; fill-opacity:0.0; 
stroke:#840000; stroke-width:0.1524; stroke-opacity:1; 
stroke-linecap:round; stroke-linejoin:round;">
<path d="M14.2733 13.1922
L10.4633 13.1922
" />
</g>
<g style="fill:#A90000; fill-opacity:0.0; 
stroke:#A90000; stroke-width:0.1524; stroke-opacity:1; 
stroke-linecap:round; stroke-linejoin:round;">
<text x="12.3683" y="12.9382"
textLength="2.4855" font-size="1.6933" lengthAdjust="spacingAndGlyphs"
text-anchor="middle" opacity="0">a4</text>
<g class="stroked-text"><desc>a4</desc>
<path d="M12.0357 12.7827
L12.0357 12.1175
" />
<path d="M12.0357 12.1175
L11.9752 11.9965
" />
<path d="M11.9752 11.9965
L11.8543 11.9361
" />
<path d="M11.8543 11.9361
L11.6124 11.9361
" />
<path d="M11.6124 11.9361
L11.4914 11.9965
" />
<path d="M12.0357 12.7223
L11.9148 12.7827
" />
<path d="M11.9148 12.7827
L11.6124 12.7827
" />
<path d="M11.6124 12.7827
L11.4914 12.7223
" />
<path d="M11.4914 12.7223
L11.4310 12.6013
" />
<path d="M11.4310 12.6013
L11.4310 12.4803
" />
<path d="M11.4310 12.4803
L11.4914 12.3594
" />
<path d="M11.4914 12.3594
L11.6124 12.2989
" />
<path d="M11.6124 12.2989
L11.9148 12.2989
" />
<path d="M11.9148 12.2989
L12.0357 12.2384
" />
<path d="M13.1847 11.9361
L13.1847 12.7827
" />
<path d="M12.8823 11.4523
L12.5800 12.3594
" />
<path d="M12.5800 12.3594
L13.3661 12.3594
" />
</g></g>
<g style="fill:#840000; fill-opacity:0.0; 
stroke:#840000; stroke-width:0.1524; stroke-opacity:1; 
stroke-linecap:round; stroke-linejoin:round;">
<path d="M14.2733 15.7322
L10.4633 15.7322
" />
</g>
<g style="fill:#A90000; fill-opacity:0.0; 
stroke:#A90000; stroke-width:0.1524; stroke-opacity:1; 
stroke-linecap:round; stroke-linejoin:round;">
<text x="12.3683" y="15.4782"
textLength="2.4855" font-size="1.6933" lengthAdjust="spacingAndGlyphs"
text-anchor="middle" opacity="0">a5</text>
<g class="stroked-text"><desc>a5</desc>
<path d="M12.0357 15.3227
L12.0357 14.6575
" />
<path d="M12.0357 14.6575
L11.9752 14.5365
" />
<path d="M11.9752 14.5365
L11.8543 14.4761
" />
<path d="M11.8543 14.4761
L11.6124 14.4761
" />
<path d="M11.6124 14.4761
L11.4914 14.5365
" />
<path d="M12.0357 15.2623
L11.9148 15.3227
" />
<path d="M11.9148 15.3227
L11.6124 15.3227
" />
<path d="M11.6124 15.3227
L11.4914 15.2623
" />
<path d="M11.4914 15.2623
L11.4310 15.1413
" />
<path d="M11.4310 15.1413
L11.4310 15.0203
" />
<path d="M11.4310 15.0203
L11.4914 14.8994
" />
<path d="M11.4914 14.8994
L11.6124 14.8389
" />
<path d="M11.6124 14.8389
L11.9148 14.8389
" />
<path d="M11.9148 14.8389
L12.0357 14.7784
" />
<path d="M13.2452 14.0527
L12.6404 14.0527
" />
<path d="M12.6404 14.0527
L12.5800 14.6575
" />
<path d="M12.5800 14.6575
L12.6404 14.5970
" />
<path d="M12.6404 14.5970
L12.7614 14.5365
" />
<path d="M12.7614 14.5365
L13.0638 14.5365
" />
<path d="M13.0638 14.5365
L13.1847 14.5970
" />
<path d="M13.1847 14.5970
L13.2452 14.6575
" />
<path d="M13.2452 14.6575
L13.3057 14.7784
" />
<path d="M13.3057 14.7784
L13.3057 15.0808
" />
<path d="M13.3057 15.0808
L13.2452 15.2018
" />
<path d="M13.2452 15.2018
L13.1847 15.2623
" />
<path d="M13.1847 15.2623
L13.0638 15.3227
" />
<path d="M13.0638 15.3227
L12.7614 15.3227
" />
<path d="M12.7614 15.3227
L12.6404 15.2623
" />
<path d="M12.6404 15.2623
L12.5800 15.2018
" />
</g></g>
<g style="fill:#840000; fill-opacity:0.0; 
stroke:#840000; stroke-width:0.1524; stroke-opacity:1; 
stroke-linecap:round; stroke-linejoin:round;">
<path d="M14.2733 18.2722
L10.4633 18.2722
" />
</g>
<g style="fill:#A90000; fill-opacity:0.0; 
stroke:#A90000; stroke-width:0.1524; stroke-opacity:1; 
stroke-linecap:round; stroke-linejoin:round;">
<text x="12.3683" y="18.0182"
textLength="2.4855" font-size="1.6933" lengthAdjust="spacingAndGlyphs"
text-anchor="middle" opacity="0">a6</text>
<g class="stroked-text"><desc>a6</desc>
<path d="M12.0357 17.8627
L12.0357 17.1975
" />
<path d="M12.0357 17.1975
L11.9752 17.0765
" />
<path d="M11.9752 17.0765
L11.8543 17.0161
" />
<path d="M11.8543 17.0161
L11.6124 17.0161
" />
<path d="M11.6124 17.0161
L11.4914 17.0765
" />
<path d="M12.0357 17.8023
L11.9148 17.8627
" />
<path d="M11.9148 17.8627
L11.6124 17.8627
" />
<path d="M11.6124 17.8627
L11.4914 17.8023
" />
<path d="M11.4914 17.8023
L11.4310 17.6813
" />
<path d="M11.4310 17.6813
L11.4310 17.5603
" />
<path d="M11.4310 17.5603
L11.4914 17.4394
" />
<path d="M11.4914 17.4394
L11.6124 17.3789
" />
<path d="M11.6124 17.3789
L11.9148 17.3789
" />
<path d="M11.9148 17.3789
L12.0357 17.3184
" />
<path d="M13.1847 16.5927
L12.9428 16.5927
" />
<path d="M12.9428 16.5927
L12.8219 16.6532
" />
<path d="M12.8219 16.6532
L12.7614 16.7137
" />
<path d="M12.7614 16.7137
L12.6404 16.8951
" />
<path d="M12.6404 16.8951
L12.5800 17.1370
" />
<path d="M12.5800 17.1370
L12.5800 17.6208
" />
<path d="M12.5800 17.6208
L12.6404 17.7418
" />
<path d="M12.6404 17.7418
L12.7009 17.8023
" />
<path d="M12.7009 17.8023
L12.8219 17.8627
" />
<path d="M12.8219 17.8627
L13.0638 17.8627
" />
<path d="M13.0638 17.8627
L13.1847 17.8023
" />
<path d="M13.1847 17.8023
L13.2452 17.7418
" />
<path d="M13.2452 17.7418
L13.3057 17.6208
" />
<path d="M13.3057 17.6208
L13.3057 17.3184
" />
<path d="M13.3057 17.3184
L13.2452 17.1975
" />
<path d="M13.2452 17.1975
L13.1847 17.1370
" />
<path d="M13.1847 17.1370
L13.0638 17.0765
" />
<path d="M13.0638 17.0765
L12.8219 17.0765
" />
<path d="M12.8219 17.0765
L12.7009 17.1370
" />
<path d="M12.7009 17.1370
L12.6404 17.1975
" />
<path d="M12.6404 17.1975
L12.5800 17.3184
" />
</g></g>
<g style="fill:#840000; fill-opacity:0.0; 
stroke:#840000; stroke-width:0.1524; stroke-opacity:1; 
stroke-linecap:round; stroke-linejoin:round;">
<path d="M14.2733 20.8122
L10.4633 20.8122
" />
</g>
<g style="fill:#A90000; fill-opacity:0.0; 
stroke:#A90000; stroke-width:0.1524; stroke-opacity:1; 
stroke-linecap:round; stroke-linejoin:round;">
<text x="12.3683" y="20.5582"
textLength="2.4855" font-size="1.6933" lengthAdjust="spacingAndGlyphs"
text-anchor="middle" opacity="0">a7</text>
<g class="stroked-text"><desc>a7</desc>
<path d="M12.0357 20.4027
L12.0357 19.7375
" />
<path d="M12.0357 19.7375
L11.9752 19.6165
" />
<path d="M11.9752 19.6165
L11.8543 19.5561
" />
<path d="M11.8543 19.5561
L11.6124 19.5561
" />
<path d="M11.6124 19.5561
L11.4914 19.6165
" />
<path d="M12.0357 20.3423
L11.9148 20.4027
" />
<path d="M11.9148 20.4027
L11.6124 20.4027
" />
<path d="M11.6124 20.4027
L11.4914 20.3423
" />
<path d="M11.4914 20.3423
L11.4310 20.2213
" />
<path d="M11.4310 20.2213
L11.4310 20.1003
" />
<path d="M11.4310 20.1003
L11.4914 19.9794
" />
<path d="M11.4914 19.9794
L11.6124 19.9189
" />
<path d="M11.6124 19.9189
L11.9148 19.9189
" />
<path d="M11.9148 19.9189
L12.0357 19.8584
" />
<path d="M12.5195 19.1327
L13.3661 19.1327
" />
<path d="M13.3661 19.1327
L12.8219 20.4027
" />
</g></g>
<g style="fill:#840000; fill-opacity:0.0; 
stroke:#840000; stroke-width:0.1524; stroke-opacity:1; 
stroke-linecap:round; stroke-linejoin:round;">
<path d="M19.3533 5.5722
L23.1633 5.5722
" />
</g>
<g style="fill:#A90000; fill-opacity:0.0; 
stroke:#A90000; stroke-width:0.1524; stroke-opacity:1; 
stroke-linecap:round; stroke-linejoin:round;">
<text x="21.2583" y="5.3182"
textLength="2.4855" font-size="1.6933" lengthAdjust="spacingAndGlyphs"
text-anchor="middle" opacity="0">b1</text>
<g class="stroked-text"><desc>b1</desc>
<path d="M20.3814 5.1627
L20.3814 3.8927
" />
<path d="M20.3814 4.3765
L20.5024 4.3161
" />
<path d="M20.5024 4.3161
L20.7443 4.3161
" />
<path d="M20.7443 4.3161
L20.8652 4.3765
" />
<path d="M20.8652 4.3765
L20.9257 4.4370
" />
<path d="M20.9257 4.4370
L20.9862 4.5580
" />
<path d="M20.9862 4.5580
L20.9862 4.9208
" />
<path d="M20.9862 4.9208
L20.9257 5.0418
" />
<path d="M20.9257 5.0418
L20.8652 5.1023
" />
<path d="M20.8652 5.1023
L20.7443 5.1627
" />
<path d="M20.7443 5.1627
L20.5024 5.1627
" />
<path d="M20.5024 5.1627
L20.3814 5.1023
" />
<path d="M22.1957 5.1627
L21.4700 5.1627
" />
<path d="M21.8328 5.1627
L21.8328 3.8927
" />
<path d="M21.8328 3.8927
L21.7119 4.0742
" />
<path d="M21.7119 4.0742
L21.5909 4.1951
" />
<path d="M21.5909 4.1951
L21.4700 4.2556
" />
</g></g>
<g style="fill:#840000; fill-opacity:0.0; 
stroke:#840000; stroke-width:0.1524; stroke-opacity:1; 
stroke-linecap:round; stroke-linejoin:round;">
<path d="M19.3533 8.1122
L23.1633 8.1122
" />
</g>
<g style="fill:#A90000; fill-opacity:0.0; 
stroke:#A90000; stroke-width:0.1524; stroke-opacity:1; 
stroke-linecap:round; stroke-linejoin:round;">
<text x="21.2583" y="7.8582"
textLength="2.4855" font-size="1.6933" lengthAdjust="spacingAndGlyphs"
text-anchor="middle" opacity="0">b2</text>
<g class="stroked-text"><desc>b2</desc>
<path d="M20.3814 7.7027
L20.3814 6.4327
" />
<path d="M20.3814 6.9165
L20.5024 6.8561
" />
<path d="M20.5024 6.8561
L20.7443 6.8561
" />
<path d="M20.7443 6.8561
L20.8652 6.9165
" />
<path d="M20.8652 6.9165
L20.9257 6.9770
" />
<path d="M20.9257 6.9770
L20.9862 7.0980
" />
<path d="M20.9862 7.0980
L20.9862 7.4608
" />
<path d="M20.9862 7.4608
L20.9257 7.5818
" />
<path d="M20.9257 7.5818
L20.8652 7.6423
" />
<path d="M20.8652 7.6423
L20.7443 7.7027
" />
<path d="M20.7443 7.7027
L20.5024 7.7027
" />
<path d="M20.5024 7.7027
L20.3814 7.6423
" />
<path d="M21.4700 6.5537
L21.5304 6.4932
" />
<path d="M21.5304 6.4932
L21.6514 6.4327
" />
<path d="M21.6514 6.4327
L21.9538 6.4327
" />
<path d="M21.9538 6.4327
L22.0747 6.4932
" />
<path d="M22.0747 6.4932
L22.1352 6.5537
" />
<path d="M22.1352 6.5537
L22.1957 6.6746
" />
<path d="M22.1957 6.6746
L22.1957 6.7956
" />
<path d="M22.1957 6.7956
L22.1352 6.9770
" />
<path d="M22.1352 6.9770
L21.4095 7.7027
" />
<path d="M21.4095 7.7027
L22.1957 7.7027
" />
</g></g>
<g style="fill:#840000; fill-opacity:0.0; 
stroke:#840000; stroke-width:0.1524; stroke-opacity:1; 
stroke-linecap:round; stroke-linejoin:round;">
<path d="M19.3533 10.6522
L23.1633 10.6522
" />
</g>
<g style="fill:#A90000; fill-opacity:0.0; 
stroke:#A90000; stroke-width:0.1524; stroke-opacity:1; 
stroke-linecap:round; stroke-linejoin:round;">
<text x="21.2583" y="10.3982"
textLength="2.4855" font-size="1.6933" lengthAdjust="spacingAndGlyphs"
text-anchor="middle" opacity="0">b3</text>
<g class="stroked-text"><desc>b3</desc>
<path d="M20.3814 10.2427
L20.3814 8.9727
" />
<path d="M20.3814 9.4565
L20.5024 9.3961
" />
<path d="M20.5024 9.3961
L20.7443 9.3961
" />
<path d="M20.7443 9.3961
L20.8652 9.4565
" />
<path d="M20.8652 9.4565
L20.9257 9.5170
" />
<path d="M20.9257 9.5170
L20.9862 9.6380
" />
<path d="M20.9862 9.6380
L20.9862 10.0008
" />
<path d="M20.9862 10.0008
L20.9257 10.1218
" />
<path d="M20.9257 10.1218
L20.8652 10.1823
" />
<path d="M20.8652 10.1823
L20.7443 10.2427
" />
<path d="M20.7443 10.2427
L20.5024 10.2427
" />
<path d="M20.5024 10.2427
L20.3814 10.1823
" />
<path d="M21.4095 8.9727
L22.1957 8.9727
" />
<path d="M22.1957 8.9727
L21.7723 9.4565
" />
<path d="M21.7723 9.4565
L21.9538 9.4565
" />
<path d="M21.9538 9.4565
L22.0747 9.5170
" />
<path d="M22.0747 9.5170
L22.1352 9.5775
" />
<path d="M22.1352 9.5775
L22.1957 9.6984
" />
<path d="M22.1957 9.6984
L22.1957 10.0008
" />
<path d="M22.1957 10.0008
L22.1352 10.1218
" />
<path d="M22.1352 10.1218
L22.0747 10.1823
" />
<path d="M22.0747 10.1823
L21.9538 10.2427
" />
<path d="M21.9538 10.2427
L21.5909 10.2427
" />
<path d="M21.5909 10.2427
L21.4700 10.1823
" />
<path d="M21.4700 10.1823
L21.4095 10.1218
" />
</g></g>
<g style="fill:#840000; fill-opacity:0.0; 
stroke:#840000; stroke-width:0.1524; stroke-opacity:1; 
stroke-linecap:round; stroke-linejoin:round;">
<path d="M19.3533 13.1922
L23.1633 13.1922
" />
</g>
<g style="fill:#A90000; fill-opacity:0.0; 
stroke:#A90000; stroke-width:0.1524; stroke-opacity:1; 
stroke-linecap:round; stroke-linejoin:round;">
<text x="21.2583" y="12.9382"
textLength="2.4855" font-size="1.6933" lengthAdjust="spacingAndGlyphs"
text-anchor="middle" opacity="0">b4</text>
<g class="stroked-text"><desc>b4</desc>
<path d="M20.3814 12.7827
L20.3814 11.5127
" />
<path d="M20.3814 11.9965
L20.5024 11.9361
" />
<path d="M20.5024 11.9361
L20.7443 11.9361
" />
<path d="M20.7443 11.9361
L20.8652 11.9965
" />
<path d="M20.8652 11.9965
L20.9257 12.0570
" />
<path d="M20.9257 12.0570
L20.9862 12.1780
" />
<path d="M20.9862 12.1780
L20.9862 12.5408
" />
<path d="M20.9862 12.5408
L20.9257 12.6618
" />
<path d="M20.9257 12.6618
L20.8652 12.7223
" />
<path d="M20.8652 12.7223
L20.7443 12.7827
" />
<path d="M20.7443 12.7827
L20.5024 12.7827
" />
<path d="M20.5024 12.7827
L20.3814 12.7223
" />
<path d="M22.0747 11.9361
L22.0747 12.7827
" />
<path d="M21.7723 11.4523
L21.4700 12.3594
" />
<path d="M21.4700 12.3594
L22.2561 12.3594
" />
</g></g>
<g style="fill:#840000; fill-opacity:0.0; 
stroke:#840000; stroke-width:0.1524; stroke-opacity:1; 
stroke-linecap:round; stroke-linejoin:round;">
<path d="M19.3533 15.7322
L23.1633 15.7322
" />
</g>
<g style="fill:#A90000; fill-opacity:0.0; 
stroke:#A90000; stroke-width:0.1524; stroke-opacity:1; 
stroke-linecap:round; stroke-linejoin:round;">
<text x="21.2583" y="15.4782"
textLength="2.4855" font-size="1.6933" lengthAdjust="spacingAndGlyphs"
text-anchor="middle" opacity="0">b5</text>
<g class="stroked-text"><desc>b5</desc>
<path d="M20.3814 15.3227
L20.3814 14.0527
" />
<path d="M20.3814 14.5365
L20.5024 14.4761
" />
<path d="M20.5024 14.4761
L20.7443 14.4761
" />
<path d="M20.7443 14.4761
L20.8652 14.5365
" />
<path d="M20.8652 14.5365
L20.9257 14.5970
" />
<path d="M20.9257 14.5970
L20.9862 14.7180
" />
<path d="M20.9862 14.7180
L20.9862 15.0808
" />
<path d="M20.9862 15.0808
L20.9257 15.2018
" />
<path d="M20.9257 15.2018
L20.8652 15.2623
" />
<path d="M20.8652 15.2623
L20.7443 15.3227
" />
<path d="M20.7443 15.3227
L20.5024 15.3227
" />
<path d="M20.5024 15.3227
L20.3814 15.2623
" />
<path d="M22.1352 14.0527
L21.5304 14.0527
" />
<path d="M21.5304 14.0527
L21.4700 14.6575
" />
<path d="M21.4700 14.6575
L21.5304 14.5970
" />
<path d="M21.5304 14.5970
L21.6514 14.5365
" />
<path d="M21.6514 14.5365
L21.9538 14.5365
" />
<path d="M21.9538 14.5365
L22.0747 14.5970
" />
<path d="M22.0747 14.5970
L22.1352 14.6575
" />
<path d="M22.1352 14.6575
L22.1957 14.7784
" />
<path d="M22.1957 14.7784
L22.1957 15.0808
" />
<path d="M22.1957 15.0808
L22.1352 15.2018
" />
<path d="M22.1352 15.2018
L22.0747 15.2623
" />
<path d="M22.0747 15.2623
L21.9538 15.3227
" />
<path d="M21.9538 15.3227
L21.6514 15.3227
" />
<path d="M21.6514 15.3227
L21.5304 15.2623
" />
<path d="M21.5304 15.2623
L21.4700 15.2018
" />
</g></g>
<g style="fill:#840000; fill-opacity:0.0; 
stroke:#840000; stroke-width:0.1524; stroke-opacity:1; 
stroke-linecap:round; stroke-linejoin:round;">
<path d="M19.3533 18.2722
L23.1633 18.2722
" />
</g>
<g style="fill:#A90000; fill-opacity:0.0; 
stroke:#A90000; stroke-width:0.1524; stroke-opacity:1; 
stroke-linecap:round; stroke-linejoin:round;">
<text x="21.2583" y="18.0182"
textLength="2.4855" font-size="1.6933" lengthAdjust="spacingAndGlyphs"
text-anchor="middle" opacity="0">b6</text>
<g class="stroked-text"><desc>b6</desc>
<path d="M20.3814 17.8627
L20.3814 16.5927
" />
<path d="M20.3814 17.0765
L20.5024 17.0161
" />
<path d="M20.5024 17.0161
L20.7443 17.0161
" />
<path d="M20.7443 17.0161
L20.8652 17.0765
" />
<path d="M20.8652 17.0765
L20.9257 17.1370
" />
<path d="M20.9257 17.1370
L20.9862 17.2580
" />
<path d="M20.9862 17.2580
L20.9862 17.6208
" />
<path d="M20.9862 17.6208
L20.9257 17.7418
" />
<path d="M20.9257 17.7418
L20.8652 17.8023
" />
<path d="M20.8652 17.8023
L20.7443 17.8627
" />
<path d="M20.7443 17.8627
L20.5024 17.8627
" />
<path d="M20.5024 17.8627
L20.3814 17.8023
" />
<path d="M22.0747 16.5927
L21.8328 16.5927
" />
<path d="M21.8328 16.5927
L21.7119 16.6532
" />
<path d="M21.7119 16.6532
L21.6514 16.7137
" />
<path d="M21.6514 16.7137
L21.5304 16.8951
" />
<path d="M21.5304 16.8951
L21.4700 17.1370
" />
<path d="M21.4700 17.1370
L21.4700 17.6208
" />
<path d="M21.4700 17.6208
L21.5304 17.7418
" />
<path d="M21.5304 17.7418
L21.5909 17.8023
" />
<path d="M21.5909 17.8023
L21.7119 17.8627
" />
<path d="M21.7119 17.8627
L21.9538 17.8627
" />
<path d="M21.9538 17.8627
L22.0747 17.8023
" />
<path d="M22.0747 17.8023
L22.1352 17.7418
" />
<path d="M22.1352 17.7418
L22.1957 17.6208
" />
<path d="M22.1957 17.6208
L22.1957 17.3184
" />
<path d="M22.1957 17.3184
L22.1352 17.1975
" />
<path d="M22.1352 17.1975
L22.0747 17.1370
" />
<path d="M22.0747 17.1370
L21.9538 17.0765
" />
<path d="M21.9538 17.0765
L21.7119 17.0765
" />
<path d="M21.7119 17.0765
L21.5909 17.1370
" />
<path d="M21.5909 17.1370
L21.5304 17.1975
" />
<path d="M21.5304 17.1975
L21.4700 17.3184
" />
</g></g>
<g style="fill:#840000; fill-opacity:0.0; 
stroke:#840000; stroke-width:0.1524; stroke-opacity:1; 
stroke-linecap:round; stroke-linejoin:round;">
<path d="M19.3533 20.8122
L23.1633 20.8122
" />
</g>
<g style="fill:#A90000; fill-opacity:0.0; 
stroke:#A90000; stroke-width:0.1524; stroke-opacity:1; 
stroke-linecap:round; stroke-linejoin:round;">
<text x="21.2583" y="20.5582"
textLength="2.4855" font-size="1.6933" lengthAdjust="spacingAndGlyphs"
text-anchor="middle" opacity="0">b7</text>
<g class="stroked-text"><desc>b7</desc>
<path d="M20.3814 20.4027
L20.3814 19.1327
" />
<path d="M20.3814 19.6165
L20.5024 19.5561
" />
<path d="M20.5024 19.5561
L20.7443 19.5561
" />
<path d="M20.7443 19.5561
L20.8652 19.6165
" />
<path d="M20.8652 19.6165
L20.9257 19.6770
" />
<path d="M20.9257 19.6770
L20.9862 19.7980
" />
<path d="M20.9862 19.7980
L20.9862 20.1608
" />
<path d="M20.9862 20.1608
L20.9257 20.2818
" />
<path d="M20.9257 20.2818
L20.8652 20.3423
" />
<path d="M20.8652 20.3423
L20.7443 20.4027
" />
<path d="M20.7443 20.4027
L20.5024 20.4027
" />
<path d="M20.5024 20.4027
L20.3814 20.3423
" />
<path d="M21.4095 19.1327
L22.2561 19.1327
" />
<path d="M22.2561 19.1327
L21.7119 20.4027
" />
</g></g>
<g style="fill:#840084; fill-opacity:0.0; 
stroke:#840084; stroke-width:0.1524; stroke-opacity:1; 
stroke-linecap:round; stroke-linejoin:round;">
</g>
<g style="fill:#006464; fill-opacity:0.0; 
stroke:#006464; stroke-width:0.1524; stroke-opacity:1; 
stroke-linecap:round; stroke-linejoin:round;">
</g>
<g style="fill:#006464; fill-opacity:0.0; 
stroke:#006464; stroke-width:0.1588; stroke-opacity:1; 
stroke-linecap:round; stroke-linejoin:round;">
<text x="16.8133" y="3.6672"
textLength="2.1992" font-size="1.6933" lengthAdjust="spacingAndGlyphs"
text-anchor="middle" opacity="0">J?</text>
<g class="stroked-text"><desc>J?</desc>
<path d="M16.4504 2.3497
L16.4504 3.2569
" />
<path d="M16.4504 3.2569
L16.3899 3.4383
" />
<path d="M16.3899 3.4383
L16.2690 3.5593
" />
<path d="M16.2690 3.5593
L16.0875 3.6197
" />
<path d="M16.0875 3.6197
L15.9666 3.6197
" />
<path d="M17.2366 3.4988
L17.2970 3.5593
" />
<path d="M17.2970 3.5593
L17.2366 3.6197
" />
<path d="M17.2366 3.6197
L17.1761 3.5593
" />
<path d="M17.1761 3.5593
L17.2366 3.4988
" />
<path d="M17.2366 3.4988
L17.2366 3.6197
" />
<path d="M16.9947 2.4102
L17.1156 2.3497
" />
<path d="M17.1156 2.3497
L17.4180 2.3497
" />
<path d="M17.4180 2.3497
L17.5389 2.4102
" />
<path d="M17.5389 2.4102
L17.5994 2.5312
" />
<path d="M17.5994 2.5312
L17.5994 2.6521
" />
<path d="M17.5994 2.6521
L17.5389 2.7731
" />
<path d="M17.5389 2.7731
L17.4785 2.8335
" />
<path d="M17.4785 2.8335
L17.3575 2.8940
" />
<path d="M17.3575 2.8940
L17.2970 2.9545
" />
<path d="M17.2970 2.9545
L17.2366 3.0754
" />
<path d="M17.2366 3.0754
L17.2366 3.1359
" />
</g><text x="16.8133" y="23.9872"
textLength="28.0223" font-size="1.6933" lengthAdjust="spacingAndGlyphs"
text-anchor="middle" opacity="0">Conn_02x07_Row_Letter_First</text>
<g class="stroked-text"><desc>Conn_02x07_Row_Letter_First</desc>
<path d="M3.9017 23.8188
L3.8413 23.8793
" />
<path d="M3.8413 23.8793
L3.6598 23.9397
" />
<path d="M3.6598 23.9397
L3.5389 23.9397
" />
<path d="M3.5389 23.9397
L3.3575 23.8793
" />
<path d="M3.3575 23.8793
L3.2365 23.7583
" />
<path d="M3.2365 23.7583
L3.1760 23.6373
" />
<path d="M3.1760 23.6373
L3.1156 23.3954
" />
<path d="M3.1156 23.3954
L3.1156 23.2140
" />
<path d="M3.1156 23.2140
L3.1760 22.9721
" />
<path d="M3.1760 22.9721
L3.2365 22.8512
" />
<path d="M3.2365 22.8512
L3.3575 22.7302
" />
<path d="M3.3575 22.7302
L3.5389 22.6697
" />
<path d="M3.5389 22.6697
L3.6598 22.6697
" />
<path d="M3.6598 22.6697
L3.8413 22.7302
" />
<path d="M3.8413 22.7302
L3.9017 22.7907
" />
<path d="M4.6275 23.9397
L4.5065 23.8793
" />
<path d="M4.5065 23.8793
L4.4460 23.8188
" />
<path d="M4.4460 23.8188
L4.3856 23.6978
" />
<path d="M4.3856 23.6978
L4.3856 23.3350
" />
<path d="M4.3856 23.3350
L4.4460 23.2140
" />
<path d="M4.4460 23.2140
L4.5065 23.1535
" />
<path d="M4.5065 23.1535
L4.6275 23.0931
" />
<path d="M4.6275 23.0931
L4.8089 23.0931
" />
<path d="M4.8089 23.0931
L4.9298 23.1535
" />
<path d="M4.9298 23.1535
L4.9903 23.2140
" />
<path d="M4.9903 23.2140
L5.0508 23.3350
" />
<path d="M5.0508 23.3350
L5.0508 23.6978
" />
<path d="M5.0508 23.6978
L4.9903 23.8188
" />
<path d="M4.9903 23.8188
L4.9298 23.8793
" />
<path d="M4.9298 23.8793
L4.8089 23.9397
" />
<path d="M4.8089 23.9397
L4.6275 23.9397
" />
<path d="M5.5950 23.0931
L5.5950 23.9397
" />
<path d="M5.5950 23.2140
L5.6555 23.1535
" />
<path d="M5.6555 23.1535
L5.7765 23.0931
" />
<path d="M5.7765 23.0931
L5.9579 23.0931
" />
<path d="M5.9579 23.0931
L6.0788 23.1535
" />
<path d="M6.0788 23.1535
L6.1393 23.2745
" />
<path d="M6.1393 23.2745
L6.1393 23.9397
" />
<path d="M6.7440 23.0931
L6.7440 23.9397
" />
<path d="M6.7440 23.2140
L6.8045 23.1535
" />
<path d="M6.8045 23.1535
L6.9255 23.0931
" />
<path d="M6.9255 23.0931
L7.1069 23.0931
" />
<path d="M7.1069 23.0931
L7.2278 23.1535
" />
<path d="M7.2278 23.1535
L7.2883 23.2745
" />
<path d="M7.2883 23.2745
L7.2883 23.9397
" />
<path d="M7.5907 24.0607
L8.5583 24.0607
" />
<path d="M9.1025 22.6697
L9.2235 22.6697
" />
<path d="M9.2235 22.6697
L9.3444 22.7302
" />
<path d="M9.3444 22.7302
L9.4049 22.7907
" />
<path d="M9.4049 22.7907
L9.4654 22.9116
" />
<path d="M9.4654 22.9116
L9.5259 23.1535
" />
<path d="M9.5259 23.1535
L9.5259 23.4559
" />
<path d="M9.5259 23.4559
L9.4654 23.6978
" />
<path d="M9.4654 23.6978
L9.4049 23.8188
" />
<path d="M9.4049 23.8188
L9.3444 23.8793
" />
<path d="M9.3444 23.8793
L9.2235 23.9397
" />
<path d="M9.2235 23.9397
L9.1025 23.9397
" />
<path d="M9.1025 23.9397
L8.9816 23.8793
" />
<path d="M8.9816 23.8793
L8.9211 23.8188
" />
<path d="M8.9211 23.8188
L8.8606 23.6978
" />
<path d="M8.8606 23.6978
L8.8002 23.4559
" />
<path d="M8.8002 23.4559
L8.8002 23.1535
" />
<path d="M8.8002 23.1535
L8.8606 22.9116
" />
<path d="M8.8606 22.9116
L8.9211 22.7907
" />
<path d="M8.9211 22.7907
L8.9816 22.7302
" />
<path d="M8.9816 22.7302
L9.1025 22.6697
" />
<path d="M10.0097 22.7907
L10.0701 22.7302
" />
<path d="M10.0701 22.7302
L10.1911 22.6697
" />
<path d="M10.1911 22.6697
L10.4935 22.6697
" />
<path d="M10.4935 22.6697
L10.6144 22.7302
" />
<path d="M10.6144 22.7302
L10.6749 22.7907
" />
<path d="M10.6749 22.7907
L10.7354 22.9116
" />
<path d="M10.7354 22.9116
L10.7354 23.0326
" />
<path d="M10.7354 23.0326
L10.6749 23.2140
" />
<path d="M10.6749 23.2140
L9.9492 23.9397
" />
<path d="M9.9492 23.9397
L10.7354 23.9397
" />
<path d="M11.1587 23.9397
L11.8239 23.0931
" />
<path d="M11.1587 23.0931
L11.8239 23.9397
" />
<path d="M12.5496 22.6697
L12.6706 22.6697
" />
<path d="M12.6706 22.6697
L12.7915 22.7302
" />
<path d="M12.7915 22.7302
L12.8520 22.7907
" />
<path d="M12.8520 22.7907
L12.9125 22.9116
" />
<path d="M12.9125 22.9116
L12.9730 23.1535
" />
<path d="M12.9730 23.1535
L12.9730 23.4559
" />
<path d="M12.9730 23.4559
L12.9125 23.6978
" />
<path d="M12.9125 23.6978
L12.8520 23.8188
" />
<path d="M12.8520 23.8188
L12.7915 23.8793
" />
<path d="M12.7915 23.8793
L12.6706 23.9397
" />
<path d="M12.6706 23.9397
L12.5496 23.9397
" />
<path d="M12.5496 23.9397
L12.4287 23.8793
" />
<path d="M12.4287 23.8793
L12.3682 23.8188
" />
<path d="M12.3682 23.8188
L12.3077 23.6978
" />
<path d="M12.3077 23.6978
L12.2473 23.4559
" />
<path d="M12.2473 23.4559
L12.2473 23.1535
" />
<path d="M12.2473 23.1535
L12.3077 22.9116
" />
<path d="M12.3077 22.9116
L12.3682 22.7907
" />
<path d="M12.3682 22.7907
L12.4287 22.7302
" />
<path d="M12.4287 22.7302
L12.5496 22.6697
" />
<path d="M13.3963 22.6697
L14.2429 22.6697
" />
<path d="M14.2429 22.6697
L13.6987 23.9397
" />
<path d="M14.4244 24.0607
L15.3920 24.0607
" />
<path d="M16.4200 23.9397
L15.9967 23.3350
" />
<path d="M15.6943 23.9397
L15.6943 22.6697
" />
<path d="M15.6943 22.6697
L16.1781 22.6697
" />
<path d="M16.1781 22.6697
L16.2991 22.7302
" />
<path d="M16.2991 22.7302
L16.3596 22.7907
" />
<path d="M16.3596 22.7907
L16.4200 22.9116
" />
<path d="M16.4200 22.9116
L16.4200 23.0931
" />
<path d="M16.4200 23.0931
L16.3596 23.2140
" />
<path d="M16.3596 23.2140
L16.2991 23.2745
" />
<path d="M16.2991 23.2745
L16.1781 23.3350
" />
<path d="M16.1781 23.3350
L15.6943 23.3350
" />
<path d="M17.1458 23.9397
L17.0248 23.8793
" />
<path d="M17.0248 23.8793
L16.9643 23.8188
" />
<path d="M16.9643 23.8188
L16.9039 23.6978
" />
<path d="M16.9039 23.6978
L16.9039 23.3350
" />
<path d="M16.9039 23.3350
L16.9643 23.2140
" />
<path d="M16.9643 23.2140
L17.0248 23.1535
" />
<path d="M17.0248 23.1535
L17.1458 23.0931
" />
<path d="M17.1458 23.0931
L17.3272 23.0931
" />
<path d="M17.3272 23.0931
L17.4481 23.1535
" />
<path d="M17.4481 23.1535
L17.5086 23.2140
" />
<path d="M17.5086 23.2140
L17.5691 23.3350
" />
<path d="M17.5691 23.3350
L17.5691 23.6978
" />
<path d="M17.5691 23.6978
L17.5086 23.8188
" />
<path d="M17.5086 23.8188
L17.4481 23.8793
" />
<path d="M17.4481 23.8793
L17.3272 23.9397
" />
<path d="M17.3272 23.9397
L17.1458 23.9397
" />
<path d="M17.9924 23.0931
L18.2343 23.9397
" />
<path d="M18.2343 23.9397
L18.4762 23.3350
" />
<path d="M18.4762 23.3350
L18.7181 23.9397
" />
<path d="M18.7181 23.9397
L18.9600 23.0931
" />
<path d="M19.1415 24.0607
L20.1091 24.0607
" />
<path d="M21.0162 23.9397
L20.4114 23.9397
" />
<path d="M20.4114 23.9397
L20.4114 22.6697
" />
<path d="M21.9233 23.8793
L21.8024 23.9397
" />
<path d="M21.8024 23.9397
L21.5605 23.9397
" />
<path d="M21.5605 23.9397
L21.4395 23.8793
" />
<path d="M21.4395 23.8793
L21.3791 23.7583
" />
<path d="M21.3791 23.7583
L21.3791 23.2745
" />
<path d="M21.3791 23.2745
L21.4395 23.1535
" />
<path d="M21.4395 23.1535
L21.5605 23.0931
" />
<path d="M21.5605 23.0931
L21.8024 23.0931
" />
<path d="M21.8024 23.0931
L21.9233 23.1535
" />
<path d="M21.9233 23.1535
L21.9838 23.2745
" />
<path d="M21.9838 23.2745
L21.9838 23.3954
" />
<path d="M21.9838 23.3954
L21.3791 23.5164
" />
<path d="M22.3467 23.0931
L22.8305 23.0931
" />
<path d="M22.5281 22.6697
L22.5281 23.7583
" />
<path d="M22.5281 23.7583
L22.5886 23.8793
" />
<path d="M22.5886 23.8793
L22.7096 23.9397
" />
<path d="M22.7096 23.9397
L22.8305 23.9397
" />
<path d="M23.0724 23.0931
L23.5562 23.0931
" />
<path d="M23.2538 22.6697
L23.2538 23.7583
" />
<path d="M23.2538 23.7583
L23.3143 23.8793
" />
<path d="M23.3143 23.8793
L23.4353 23.9397
" />
<path d="M23.4353 23.9397
L23.5562 23.9397
" />
<path d="M24.4633 23.8793
L24.3424 23.9397
" />
<path d="M24.3424 23.9397
L24.1005 23.9397
" />
<path d="M24.1005 23.9397
L23.9795 23.8793
" />
<path d="M23.9795 23.8793
L23.9191 23.7583
" />
<path d="M23.9191 23.7583
L23.9191 23.2745
" />
<path d="M23.9191 23.2745
L23.9795 23.1535
" />
<path d="M23.9795 23.1535
L24.1005 23.0931
" />
<path d="M24.1005 23.0931
L24.3424 23.0931
" />
<path d="M24.3424 23.0931
L24.4633 23.1535
" />
<path d="M24.4633 23.1535
L24.5238 23.2745
" />
<path d="M24.5238 23.2745
L24.5238 23.3954
" />
<path d="M24.5238 23.3954
L23.9191 23.5164
" />
<path d="M25.0681 23.9397
L25.0681 23.0931
" />
<path d="M25.0681 23.3350
L25.1286 23.2140
" />
<path d="M25.1286 23.2140
L25.1891 23.1535
" />
<path d="M25.1891 23.1535
L25.3100 23.0931
" />
<path d="M25.3100 23.0931
L25.4310 23.0931
" />
<path d="M25.5520 24.0607
L26.5196 24.0607
" />
<path d="M27.2453 23.2745
L26.8219 23.2745
" />
<path d="M26.8219 23.9397
L26.8219 22.6697
" />
<path d="M26.8219 22.6697
L27.4267 22.6697
" />
<path d="M27.9105 23.9397
L27.9105 23.0931
" />
<path d="M27.9105 22.6697
L27.8501 22.7302
" />
<path d="M27.8501 22.7302
L27.9105 22.7907
" />
<path d="M27.9105 22.7907
L27.9710 22.7302
" />
<path d="M27.9710 22.7302
L27.9105 22.6697
" />
<path d="M27.9105 22.6697
L27.9105 22.7907
" />
<path d="M28.5153 23.9397
L28.5153 23.0931
" />
<path d="M28.5153 23.3350
L28.5758 23.2140
" />
<path d="M28.5758 23.2140
L28.6363 23.1535
" />
<path d="M28.6363 23.1535
L28.7572 23.0931
" />
<path d="M28.7572 23.0931
L28.8782 23.0931
" />
<path d="M29.2411 23.8793
L29.3620 23.9397
" />
<path d="M29.3620 23.9397
L29.6039 23.9397
" />
<path d="M29.6039 23.9397
L29.7249 23.8793
" />
<path d="M29.7249 23.8793
L29.7853 23.7583
" />
<path d="M29.7853 23.7583
L29.7853 23.6978
" />
<path d="M29.7853 23.6978
L29.7249 23.5769
" />
<path d="M29.7249 23.5769
L29.6039 23.5164
" />
<path d="M29.6039 23.5164
L29.4225 23.5164
" />
<path d="M29.4225 23.5164
L29.3015 23.4559
" />
<path d="M29.3015 23.4559
L29.2411 23.3350
" />
<path d="M29.2411 23.3350
L29.2411 23.2745
" />
<path d="M29.2411 23.2745
L29.3015 23.1535
" />
<path d="M29.3015 23.1535
L29.4225 23.0931
" />
<path d="M29.4225 23.0931
L29.6039 23.0931
" />
<path d="M29.6039 23.0931
L29.7249 23.1535
" />
<path d="M30.1482 23.0931
L30.6320 23.0931
" />
<path d="M30.3296 22.6697
L30.3296 23.7583
" />
<path d="M30.3296 23.7583
L30.3901 23.8793
" />
<path d="M30.3901 23.8793
L30.5111 23.9397
" />
<path d="M30.5111 23.9397
L30.6320 23.9397
" />
</g></g>
<g style="fill:#840084; fill-opacity:0.0; 
stroke:#840084; stroke-width:0.1588; stroke-opacity:1; 
stroke-linecap:round; stroke-linejoin:round;">
<text x="15.5433" y="13.8272"
textLength="1.0501" font-size="1.6933" lengthAdjust="spacingAndGlyphs"
text-anchor="middle" opacity="0">~</text>
<g class="stroked-text"><desc>~</desc>
<path d="M15.2107 13.2959
L15.2712 13.2354
" />
<path d="M15.2712 13.2354
L15.3921 13.1750
" />
<path d="M15.3921 13.1750
L15.6340 13.2959
" />
<path d="M15.6340 13.2959
L15.7550 13.2354
" />
<path d="M15.7550 13.2354
L15.8155 13.1750
" />
</g></g> 
</svg>
