<?xml version="1.0" standalone="no"?>
 <!DOCTYPE svg PUBLIC "-//W3C//DTD SVG 1.1//EN" 
 "http://www.w3.org/Graphics/SVG/1.1/DTD/svg11.dtd"> 
<svg
  xmlns:svg="http://www.w3.org/2000/svg"
  xmlns="http://www.w3.org/2000/svg"
  xmlns:xlink="http://www.w3.org/1999/xlink"
  version="1.1"
  width="93.9546mm" height="45.5676mm" viewBox="0.0000 0.0000 93.9546 45.5676">
<title>SVG Image created as working.svg date 2023/08/04 00:55:32 </title>
  <desc>Image generated by Eeschema-SVG </desc>
<g style="fill:#000000; fill-opacity:1.0000;stroke:#000000; stroke-opacity:1.0000;
stroke-linecap:round; stroke-linejoin:round;"
 transform="translate(0 0) scale(1 1)">
</g>
<g style="fill:#840000; fill-opacity:0.0; 
stroke:#840000; stroke-width:0.0000; stroke-opacity:1; 
stroke-linecap:round; stroke-linejoin:round;">
</g>
<g style="fill:#FFFFC2; fill-opacity:0.0; 
stroke:#FFFFC2; stroke-width:0.0000; stroke-opacity:1; 
stroke-linecap:round; stroke-linejoin:round;">
</g>
<g style="fill:#FFFFC2; fill-opacity:1.0000; 
stroke:#FFFFC2; stroke-width:0.0000; stroke-opacity:1; 
stroke-linecap:round; stroke-linejoin:round;">
<rect x="46.978000" y="3.924800" width="15.240000" height="15.240000" rx="0.000000" />
</g>
<g style="fill:#840084; fill-opacity:1.0000; 
stroke:#840084; stroke-width:0.0000; stroke-opacity:1; 
stroke-linecap:round; stroke-linejoin:round;">
</g>
<g style="fill:#840000; fill-opacity:1.0000; 
stroke:#840000; stroke-width:0.0000; stroke-opacity:1; 
stroke-linecap:round; stroke-linejoin:round;">
</g>
<g style="fill:#840000; fill-opacity:0.0; 
stroke:#840000; stroke-width:0.2540; stroke-opacity:1; 
stroke-linecap:round; stroke-linejoin:round;">
<rect x="46.978000" y="3.924800" width="15.240000" height="15.240000" rx="0.000000" />
</g>
<g style="fill:#840000; fill-opacity:0.0; 
stroke:#840000; stroke-width:0.1524; stroke-opacity:1; 
stroke-linecap:round; stroke-linejoin:round;">
<path d="M54.5980 34.4048
L54.5980 36.9448
" />
</g>
<g style="fill:#006464; fill-opacity:0.0; 
stroke:#006464; stroke-width:0.1524; stroke-opacity:1; 
stroke-linecap:round; stroke-linejoin:round;">
<g transform="rotate(-90.000000 54.5980 33.3888)">
<text x="54.5980" y="34.0238"
textLength="4.0737" font-size="1.6933" lengthAdjust="spacingAndGlyphs"
text-anchor="start" opacity="0">GND</text>
</g>
<g class="stroked-text"><desc>GND</desc>
<path d="M53.9680 32.3209
L53.9075 32.4419
" />
<path d="M53.9075 32.4419
L53.9075 32.6233
" />
<path d="M53.9075 32.6233
L53.9680 32.8047
" />
<path d="M53.9680 32.8047
L54.0890 32.9257
" />
<path d="M54.0890 32.9257
L54.2099 32.9862
" />
<path d="M54.2099 32.9862
L54.4518 33.0466
" />
<path d="M54.4518 33.0466
L54.6332 33.0466
" />
<path d="M54.6332 33.0466
L54.8751 32.9862
" />
<path d="M54.8751 32.9862
L54.9961 32.9257
" />
<path d="M54.9961 32.9257
L55.1171 32.8047
" />
<path d="M55.1171 32.8047
L55.1775 32.6233
" />
<path d="M55.1775 32.6233
L55.1775 32.5024
" />
<path d="M55.1775 32.5024
L55.1171 32.3209
" />
<path d="M55.1171 32.3209
L55.0566 32.2605
" />
<path d="M55.0566 32.2605
L54.6332 32.2605
" />
<path d="M54.6332 32.2605
L54.6332 32.5024
" />
<path d="M55.1775 31.7162
L53.9075 31.7162
" />
<path d="M53.9075 31.7162
L55.1775 30.9905
" />
<path d="M55.1775 30.9905
L53.9075 30.9905
" />
<path d="M55.1775 30.3857
L53.9075 30.3857
" />
<path d="M53.9075 30.3857
L53.9075 30.0833
" />
<path d="M53.9075 30.0833
L53.9680 29.9019
" />
<path d="M53.9680 29.9019
L54.0890 29.7809
" />
<path d="M54.0890 29.7809
L54.2099 29.7204
" />
<path d="M54.2099 29.7204
L54.4518 29.6600
" />
<path d="M54.4518 29.6600
L54.6332 29.6600
" />
<path d="M54.6332 29.6600
L54.8751 29.7204
" />
<path d="M54.8751 29.7204
L54.9961 29.7809
" />
<path d="M54.9961 29.7809
L55.1171 29.9019
" />
<path d="M55.1171 29.9019
L55.1775 30.0833
" />
<path d="M55.1775 30.0833
L55.1775 30.3857
" />
</g></g>
<g style="fill:#A90000; fill-opacity:0.0; 
stroke:#A90000; stroke-width:0.1524; stroke-opacity:1; 
stroke-linecap:round; stroke-linejoin:round;">
<g transform="rotate(-90.000000 54.3440 35.6748)">
<text x="54.3440" y="35.6748"
textLength="1.4127" font-size="1.6933" lengthAdjust="spacingAndGlyphs"
text-anchor="middle" opacity="0">1</text>
</g>
<g class="stroked-text"><desc>1</desc>
<path d="M54.1805 35.3118
L54.1805 36.0375
" />
<path d="M54.1805 35.6747
L52.9105 35.6747
" />
<path d="M52.9105 35.6747
L53.0920 35.7956
" />
<path d="M53.0920 35.7956
L53.2129 35.9166
" />
<path d="M53.2129 35.9166
L53.2734 36.0375
" />
</g></g>
<g style="fill:#840000; fill-opacity:0.0; 
stroke:#840000; stroke-width:0.1524; stroke-opacity:1; 
stroke-linecap:round; stroke-linejoin:round;">
<path d="M46.9780 24.2448
L44.4380 24.2448
" />
</g>
<g style="fill:#006464; fill-opacity:0.0; 
stroke:#006464; stroke-width:0.1524; stroke-opacity:1; 
stroke-linecap:round; stroke-linejoin:round;">
<text x="47.9940" y="24.8798"
textLength="3.3480" font-size="1.6933" lengthAdjust="spacingAndGlyphs"
text-anchor="start" opacity="0">IN2</text>
<g class="stroked-text"><desc>IN2</desc>
<path d="M48.3965 24.8243
L48.3965 23.5543
" />
<path d="M49.0013 24.8243
L49.0013 23.5543
" />
<path d="M49.0013 23.5543
L49.7270 24.8243
" />
<path d="M49.7270 24.8243
L49.7270 23.5543
" />
<path d="M50.2714 23.6753
L50.3318 23.6148
" />
<path d="M50.3318 23.6148
L50.4528 23.5543
" />
<path d="M50.4528 23.5543
L50.7552 23.5543
" />
<path d="M50.7552 23.5543
L50.8761 23.6148
" />
<path d="M50.8761 23.6148
L50.9366 23.6753
" />
<path d="M50.9366 23.6753
L50.9971 23.7962
" />
<path d="M50.9971 23.7962
L50.9971 23.9172
" />
<path d="M50.9971 23.9172
L50.9366 24.0986
" />
<path d="M50.9366 24.0986
L50.2109 24.8243
" />
<path d="M50.2109 24.8243
L50.9971 24.8243
" />
</g></g>
<g style="fill:#A90000; fill-opacity:0.0; 
stroke:#A90000; stroke-width:0.1524; stroke-opacity:1; 
stroke-linecap:round; stroke-linejoin:round;">
<text x="45.7080" y="23.9908"
textLength="1.4127" font-size="1.6933" lengthAdjust="spacingAndGlyphs"
text-anchor="middle" opacity="0">2</text>
<g class="stroked-text"><desc>2</desc>
<path d="M45.3452 22.6783
L45.4056 22.6178
" />
<path d="M45.4056 22.6178
L45.5266 22.5573
" />
<path d="M45.5266 22.5573
L45.8290 22.5573
" />
<path d="M45.8290 22.5573
L45.9499 22.6178
" />
<path d="M45.9499 22.6178
L46.0104 22.6783
" />
<path d="M46.0104 22.6783
L46.0709 22.7992
" />
<path d="M46.0709 22.7992
L46.0709 22.9202
" />
<path d="M46.0709 22.9202
L46.0104 23.1016
" />
<path d="M46.0104 23.1016
L45.2847 23.8273
" />
<path d="M45.2847 23.8273
L46.0709 23.8273
" />
</g></g>
<g style="fill:#840000; fill-opacity:0.0; 
stroke:#840000; stroke-width:0.1524; stroke-opacity:1; 
stroke-linecap:round; stroke-linejoin:round;">
<path d="M46.9780 21.7048
L44.4380 21.7048
" />
</g>
<g style="fill:#006464; fill-opacity:0.0; 
stroke:#006464; stroke-width:0.1524; stroke-opacity:1; 
stroke-linecap:round; stroke-linejoin:round;">
<text x="47.9940" y="22.3398"
textLength="3.3480" font-size="1.6933" lengthAdjust="spacingAndGlyphs"
text-anchor="start" opacity="0">IN1</text>
<g class="stroked-text"><desc>IN1</desc>
<path d="M48.3965 22.2843
L48.3965 21.0143
" />
<path d="M49.0013 22.2843
L49.0013 21.0143
" />
<path d="M49.0013 21.0143
L49.7270 22.2843
" />
<path d="M49.7270 22.2843
L49.7270 21.0143
" />
<path d="M50.9971 22.2843
L50.2714 22.2843
" />
<path d="M50.6342 22.2843
L50.6342 21.0143
" />
<path d="M50.6342 21.0143
L50.5133 21.1958
" />
<path d="M50.5133 21.1958
L50.3923 21.3167
" />
<path d="M50.3923 21.3167
L50.2714 21.3772
" />
</g></g>
<g style="fill:#A90000; fill-opacity:0.0; 
stroke:#A90000; stroke-width:0.1524; stroke-opacity:1; 
stroke-linecap:round; stroke-linejoin:round;">
<text x="45.7080" y="21.4508"
textLength="1.4127" font-size="1.6933" lengthAdjust="spacingAndGlyphs"
text-anchor="middle" opacity="0">3</text>
<g class="stroked-text"><desc>3</desc>
<path d="M45.2847 20.0173
L46.0709 20.0173
" />
<path d="M46.0709 20.0173
L45.6475 20.5011
" />
<path d="M45.6475 20.5011
L45.8290 20.5011
" />
<path d="M45.8290 20.5011
L45.9499 20.5616
" />
<path d="M45.9499 20.5616
L46.0104 20.6221
" />
<path d="M46.0104 20.6221
L46.0709 20.7430
" />
<path d="M46.0709 20.7430
L46.0709 21.0454
" />
<path d="M46.0709 21.0454
L46.0104 21.1664
" />
<path d="M46.0104 21.1664
L45.9499 21.2269
" />
<path d="M45.9499 21.2269
L45.8290 21.2873
" />
<path d="M45.8290 21.2873
L45.4661 21.2873
" />
<path d="M45.4661 21.2873
L45.3452 21.2269
" />
<path d="M45.3452 21.2269
L45.2847 21.1664
" />
</g></g>
<g style="fill:#840000; fill-opacity:0.0; 
stroke:#840000; stroke-width:0.1524; stroke-opacity:1; 
stroke-linecap:round; stroke-linejoin:round;">
<path d="M46.9780 29.3248
L44.4380 29.3248
" />
</g>
<g style="fill:#006464; fill-opacity:0.0; 
stroke:#006464; stroke-width:0.1524; stroke-opacity:1; 
stroke-linecap:round; stroke-linejoin:round;">
<text x="47.9940" y="29.9598"
textLength="4.7994" font-size="1.6933" lengthAdjust="spacingAndGlyphs"
text-anchor="start" opacity="0">VREF</text>
<g class="stroked-text"><desc>VREF</desc>
<path d="M48.2151 28.6343
L48.6384 29.9043
" />
<path d="M48.6384 29.9043
L49.0618 28.6343
" />
<path d="M50.2108 29.9043
L49.7875 29.2996
" />
<path d="M49.4851 29.9043
L49.4851 28.6343
" />
<path d="M49.4851 28.6343
L49.9689 28.6343
" />
<path d="M49.9689 28.6343
L50.0899 28.6948
" />
<path d="M50.0899 28.6948
L50.1504 28.7553
" />
<path d="M50.1504 28.7553
L50.2108 28.8762
" />
<path d="M50.2108 28.8762
L50.2108 29.0577
" />
<path d="M50.2108 29.0577
L50.1504 29.1786
" />
<path d="M50.1504 29.1786
L50.0899 29.2391
" />
<path d="M50.0899 29.2391
L49.9689 29.2996
" />
<path d="M49.9689 29.2996
L49.4851 29.2996
" />
<path d="M50.7551 29.2391
L51.1785 29.2391
" />
<path d="M51.3599 29.9043
L50.7551 29.9043
" />
<path d="M50.7551 29.9043
L50.7551 28.6343
" />
<path d="M50.7551 28.6343
L51.3599 28.6343
" />
<path d="M52.3275 29.2391
L51.9041 29.2391
" />
<path d="M51.9041 29.9043
L51.9041 28.6343
" />
<path d="M51.9041 28.6343
L52.5089 28.6343
" />
</g></g>
<g style="fill:#A90000; fill-opacity:0.0; 
stroke:#A90000; stroke-width:0.1524; stroke-opacity:1; 
stroke-linecap:round; stroke-linejoin:round;">
<text x="45.7080" y="29.0708"
textLength="1.4127" font-size="1.6933" lengthAdjust="spacingAndGlyphs"
text-anchor="middle" opacity="0">4</text>
<g class="stroked-text"><desc>4</desc>
<path d="M45.9499 28.0607
L45.9499 28.9073
" />
<path d="M45.6475 27.5769
L45.3452 28.4840
" />
<path d="M45.3452 28.4840
L46.1313 28.4840
" />
</g></g>
<g style="fill:#840000; fill-opacity:0.0; 
stroke:#840000; stroke-width:0.1524; stroke-opacity:1; 
stroke-linecap:round; stroke-linejoin:round;">
<path d="M54.5980 19.1648
L54.5980 16.6248
" />
</g>
<g style="fill:#006464; fill-opacity:0.0; 
stroke:#006464; stroke-width:0.1524; stroke-opacity:1; 
stroke-linecap:round; stroke-linejoin:round;">
<g transform="rotate(-90.000000 54.5980 20.1808)">
<text x="54.5980" y="20.8158"
textLength="3.8318" font-size="1.6933" lengthAdjust="spacingAndGlyphs"
text-anchor="end" opacity="0">VBB</text>
</g>
<g class="stroked-text"><desc>VBB</desc>
<path d="M53.9075 23.7886
L55.1775 23.3653
" />
<path d="M55.1775 23.3653
L53.9075 22.9419
" />
<path d="M54.5123 22.0952
L54.5728 21.9138
" />
<path d="M54.5728 21.9138
L54.6332 21.8533
" />
<path d="M54.6332 21.8533
L54.7542 21.7929
" />
<path d="M54.7542 21.7929
L54.9356 21.7929
" />
<path d="M54.9356 21.7929
L55.0566 21.8533
" />
<path d="M55.0566 21.8533
L55.1171 21.9138
" />
<path d="M55.1171 21.9138
L55.1775 22.0348
" />
<path d="M55.1775 22.0348
L55.1775 22.5186
" />
<path d="M55.1775 22.5186
L53.9075 22.5186
" />
<path d="M53.9075 22.5186
L53.9075 22.0952
" />
<path d="M53.9075 22.0952
L53.9680 21.9743
" />
<path d="M53.9680 21.9743
L54.0285 21.9138
" />
<path d="M54.0285 21.9138
L54.1494 21.8533
" />
<path d="M54.1494 21.8533
L54.2704 21.8533
" />
<path d="M54.2704 21.8533
L54.3913 21.9138
" />
<path d="M54.3913 21.9138
L54.4518 21.9743
" />
<path d="M54.4518 21.9743
L54.5123 22.0952
" />
<path d="M54.5123 22.0952
L54.5123 22.5186
" />
<path d="M54.5123 20.8252
L54.5728 20.6438
" />
<path d="M54.5728 20.6438
L54.6332 20.5833
" />
<path d="M54.6332 20.5833
L54.7542 20.5229
" />
<path d="M54.7542 20.5229
L54.9356 20.5229
" />
<path d="M54.9356 20.5229
L55.0566 20.5833
" />
<path d="M55.0566 20.5833
L55.1171 20.6438
" />
<path d="M55.1171 20.6438
L55.1775 20.7648
" />
<path d="M55.1775 20.7648
L55.1775 21.2486
" />
<path d="M55.1775 21.2486
L53.9075 21.2486
" />
<path d="M53.9075 21.2486
L53.9075 20.8252
" />
<path d="M53.9075 20.8252
L53.9680 20.7043
" />
<path d="M53.9680 20.7043
L54.0285 20.6438
" />
<path d="M54.0285 20.6438
L54.1494 20.5833
" />
<path d="M54.1494 20.5833
L54.2704 20.5833
" />
<path d="M54.2704 20.5833
L54.3913 20.6438
" />
<path d="M54.3913 20.6438
L54.4518 20.7043
" />
<path d="M54.4518 20.7043
L54.5123 20.8252
" />
<path d="M54.5123 20.8252
L54.5123 21.2486
" />
</g></g>
<g style="fill:#A90000; fill-opacity:0.0; 
stroke:#A90000; stroke-width:0.1524; stroke-opacity:1; 
stroke-linecap:round; stroke-linejoin:round;">
<g transform="rotate(-90.000000 54.3440 17.8948)">
<text x="54.3440" y="17.8948"
textLength="1.4127" font-size="1.6933" lengthAdjust="spacingAndGlyphs"
text-anchor="middle" opacity="0">5</text>
</g>
<g class="stroked-text"><desc>5</desc>
<path d="M52.9105 17.5923
L52.9105 18.1971
" />
<path d="M52.9105 18.1971
L53.5153 18.2575
" />
<path d="M53.5153 18.2575
L53.4548 18.1971
" />
<path d="M53.4548 18.1971
L53.3943 18.0761
" />
<path d="M53.3943 18.0761
L53.3943 17.7737
" />
<path d="M53.3943 17.7737
L53.4548 17.6528
" />
<path d="M53.4548 17.6528
L53.5153 17.5923
" />
<path d="M53.5153 17.5923
L53.6362 17.5318
" />
<path d="M53.6362 17.5318
L53.9386 17.5318
" />
<path d="M53.9386 17.5318
L54.0596 17.5923
" />
<path d="M54.0596 17.5923
L54.1201 17.6528
" />
<path d="M54.1201 17.6528
L54.1805 17.7737
" />
<path d="M54.1805 17.7737
L54.1805 18.0761
" />
<path d="M54.1805 18.0761
L54.1201 18.1971
" />
<path d="M54.1201 18.1971
L54.0596 18.2575
" />
</g></g>
<g style="fill:#840000; fill-opacity:0.0; 
stroke:#840000; stroke-width:0.1524; stroke-opacity:1; 
stroke-linecap:round; stroke-linejoin:round;">
<path d="M62.2180 21.7048
L64.7580 21.7048
" />
</g>
<g style="fill:#006464; fill-opacity:0.0; 
stroke:#006464; stroke-width:0.1524; stroke-opacity:1; 
stroke-linecap:round; stroke-linejoin:round;">
<text x="61.2020" y="22.3398"
textLength="5.0413" font-size="1.6933" lengthAdjust="spacingAndGlyphs"
text-anchor="end" opacity="0">OUT1</text>
<g class="stroked-text"><desc>OUT1</desc>
<path d="M56.8079 21.0143
L57.0498 21.0143
" />
<path d="M57.0498 21.0143
L57.1708 21.0748
" />
<path d="M57.1708 21.0748
L57.2917 21.1958
" />
<path d="M57.2917 21.1958
L57.3522 21.4377
" />
<path d="M57.3522 21.4377
L57.3522 21.8610
" />
<path d="M57.3522 21.8610
L57.2917 22.1029
" />
<path d="M57.2917 22.1029
L57.1708 22.2239
" />
<path d="M57.1708 22.2239
L57.0498 22.2843
" />
<path d="M57.0498 22.2843
L56.8079 22.2843
" />
<path d="M56.8079 22.2843
L56.6870 22.2239
" />
<path d="M56.6870 22.2239
L56.5660 22.1029
" />
<path d="M56.5660 22.1029
L56.5056 21.8610
" />
<path d="M56.5056 21.8610
L56.5056 21.4377
" />
<path d="M56.5056 21.4377
L56.5660 21.1958
" />
<path d="M56.5660 21.1958
L56.6870 21.0748
" />
<path d="M56.6870 21.0748
L56.8079 21.0143
" />
<path d="M57.8965 21.0143
L57.8965 22.0424
" />
<path d="M57.8965 22.0424
L57.9570 22.1634
" />
<path d="M57.9570 22.1634
L58.0175 22.2239
" />
<path d="M58.0175 22.2239
L58.1384 22.2843
" />
<path d="M58.1384 22.2843
L58.3803 22.2843
" />
<path d="M58.3803 22.2843
L58.5013 22.2239
" />
<path d="M58.5013 22.2239
L58.5618 22.1634
" />
<path d="M58.5618 22.1634
L58.6222 22.0424
" />
<path d="M58.6222 22.0424
L58.6222 21.0143
" />
<path d="M59.0456 21.0143
L59.7713 21.0143
" />
<path d="M59.4085 22.2843
L59.4085 21.0143
" />
<path d="M60.8599 22.2843
L60.1342 22.2843
" />
<path d="M60.4970 22.2843
L60.4970 21.0143
" />
<path d="M60.4970 21.0143
L60.3761 21.1958
" />
<path d="M60.3761 21.1958
L60.2551 21.3167
" />
<path d="M60.2551 21.3167
L60.1342 21.3772
" />
</g></g>
<g style="fill:#A90000; fill-opacity:0.0; 
stroke:#A90000; stroke-width:0.1524; stroke-opacity:1; 
stroke-linecap:round; stroke-linejoin:round;">
<text x="63.4880" y="21.4508"
textLength="1.4127" font-size="1.6933" lengthAdjust="spacingAndGlyphs"
text-anchor="middle" opacity="0">6</text>
<g class="stroked-text"><desc>6</desc>
<path d="M63.7299 20.0173
L63.4880 20.0173
" />
<path d="M63.4880 20.0173
L63.3671 20.0778
" />
<path d="M63.3671 20.0778
L63.3066 20.1383
" />
<path d="M63.3066 20.1383
L63.1856 20.3197
" />
<path d="M63.1856 20.3197
L63.1252 20.5616
" />
<path d="M63.1252 20.5616
L63.1252 21.0454
" />
<path d="M63.1252 21.0454
L63.1856 21.1664
" />
<path d="M63.1856 21.1664
L63.2461 21.2269
" />
<path d="M63.2461 21.2269
L63.3671 21.2873
" />
<path d="M63.3671 21.2873
L63.6090 21.2873
" />
<path d="M63.6090 21.2873
L63.7299 21.2269
" />
<path d="M63.7299 21.2269
L63.7904 21.1664
" />
<path d="M63.7904 21.1664
L63.8509 21.0454
" />
<path d="M63.8509 21.0454
L63.8509 20.7430
" />
<path d="M63.8509 20.7430
L63.7904 20.6221
" />
<path d="M63.7904 20.6221
L63.7299 20.5616
" />
<path d="M63.7299 20.5616
L63.6090 20.5011
" />
<path d="M63.6090 20.5011
L63.3671 20.5011
" />
<path d="M63.3671 20.5011
L63.2461 20.5616
" />
<path d="M63.2461 20.5616
L63.1856 20.6221
" />
<path d="M63.1856 20.6221
L63.1252 20.7430
" />
</g></g>
<g style="fill:#840000; fill-opacity:0.0; 
stroke:#840000; stroke-width:0.1524; stroke-opacity:1; 
stroke-linecap:round; stroke-linejoin:round;">
<path d="M62.2180 26.7848
L64.7580 26.7848
" />
</g>
<g style="fill:#006464; fill-opacity:0.0; 
stroke:#006464; stroke-width:0.1524; stroke-opacity:1; 
stroke-linecap:round; stroke-linejoin:round;">
<text x="61.2020" y="27.4198"
textLength="3.6503" font-size="1.6933" lengthAdjust="spacingAndGlyphs"
text-anchor="end" opacity="0">LSS</text>
<g class="stroked-text"><desc>LSS</desc>
<path d="M58.5618 27.3643
L57.9570 27.3643
" />
<path d="M57.9570 27.3643
L57.9570 26.0943
" />
<path d="M58.9247 27.3039
L59.1061 27.3643
" />
<path d="M59.1061 27.3643
L59.4085 27.3643
" />
<path d="M59.4085 27.3643
L59.5294 27.3039
" />
<path d="M59.5294 27.3039
L59.5899 27.2434
" />
<path d="M59.5899 27.2434
L59.6504 27.1224
" />
<path d="M59.6504 27.1224
L59.6504 27.0015
" />
<path d="M59.6504 27.0015
L59.5899 26.8805
" />
<path d="M59.5899 26.8805
L59.5294 26.8200
" />
<path d="M59.5294 26.8200
L59.4085 26.7596
" />
<path d="M59.4085 26.7596
L59.1666 26.6991
" />
<path d="M59.1666 26.6991
L59.0456 26.6386
" />
<path d="M59.0456 26.6386
L58.9851 26.5781
" />
<path d="M58.9851 26.5781
L58.9247 26.4572
" />
<path d="M58.9247 26.4572
L58.9247 26.3362
" />
<path d="M58.9247 26.3362
L58.9851 26.2153
" />
<path d="M58.9851 26.2153
L59.0456 26.1548
" />
<path d="M59.0456 26.1548
L59.1666 26.0943
" />
<path d="M59.1666 26.0943
L59.4689 26.0943
" />
<path d="M59.4689 26.0943
L59.6504 26.1548
" />
<path d="M60.1342 27.3039
L60.3156 27.3643
" />
<path d="M60.3156 27.3643
L60.6180 27.3643
" />
<path d="M60.6180 27.3643
L60.7389 27.3039
" />
<path d="M60.7389 27.3039
L60.7994 27.2434
" />
<path d="M60.7994 27.2434
L60.8599 27.1224
" />
<path d="M60.8599 27.1224
L60.8599 27.0015
" />
<path d="M60.8599 27.0015
L60.7994 26.8805
" />
<path d="M60.7994 26.8805
L60.7389 26.8200
" />
<path d="M60.7389 26.8200
L60.6180 26.7596
" />
<path d="M60.6180 26.7596
L60.3761 26.6991
" />
<path d="M60.3761 26.6991
L60.2551 26.6386
" />
<path d="M60.2551 26.6386
L60.1946 26.5781
" />
<path d="M60.1946 26.5781
L60.1342 26.4572
" />
<path d="M60.1342 26.4572
L60.1342 26.3362
" />
<path d="M60.1342 26.3362
L60.1946 26.2153
" />
<path d="M60.1946 26.2153
L60.2551 26.1548
" />
<path d="M60.2551 26.1548
L60.3761 26.0943
" />
<path d="M60.3761 26.0943
L60.6784 26.0943
" />
<path d="M60.6784 26.0943
L60.8599 26.1548
" />
</g></g>
<g style="fill:#A90000; fill-opacity:0.0; 
stroke:#A90000; stroke-width:0.1524; stroke-opacity:1; 
stroke-linecap:round; stroke-linejoin:round;">
<text x="63.4880" y="26.5308"
textLength="1.4127" font-size="1.6933" lengthAdjust="spacingAndGlyphs"
text-anchor="middle" opacity="0">7</text>
<g class="stroked-text"><desc>7</desc>
<path d="M63.0647 25.0973
L63.9113 25.0973
" />
<path d="M63.9113 25.0973
L63.3671 26.3673
" />
</g></g>
<g style="fill:#840000; fill-opacity:0.0; 
stroke:#840000; stroke-width:0.1524; stroke-opacity:1; 
stroke-linecap:round; stroke-linejoin:round;">
<path d="M62.2180 24.2448
L64.7580 24.2448
" />
</g>
<g style="fill:#006464; fill-opacity:0.0; 
stroke:#006464; stroke-width:0.1524; stroke-opacity:1; 
stroke-linecap:round; stroke-linejoin:round;">
<text x="61.2020" y="24.8798"
textLength="5.0413" font-size="1.6933" lengthAdjust="spacingAndGlyphs"
text-anchor="end" opacity="0">OUT2</text>
<g class="stroked-text"><desc>OUT2</desc>
<path d="M56.8079 23.5543
L57.0498 23.5543
" />
<path d="M57.0498 23.5543
L57.1708 23.6148
" />
<path d="M57.1708 23.6148
L57.2917 23.7358
" />
<path d="M57.2917 23.7358
L57.3522 23.9777
" />
<path d="M57.3522 23.9777
L57.3522 24.4010
" />
<path d="M57.3522 24.4010
L57.2917 24.6429
" />
<path d="M57.2917 24.6429
L57.1708 24.7639
" />
<path d="M57.1708 24.7639
L57.0498 24.8243
" />
<path d="M57.0498 24.8243
L56.8079 24.8243
" />
<path d="M56.8079 24.8243
L56.6870 24.7639
" />
<path d="M56.6870 24.7639
L56.5660 24.6429
" />
<path d="M56.5660 24.6429
L56.5056 24.4010
" />
<path d="M56.5056 24.4010
L56.5056 23.9777
" />
<path d="M56.5056 23.9777
L56.5660 23.7358
" />
<path d="M56.5660 23.7358
L56.6870 23.6148
" />
<path d="M56.6870 23.6148
L56.8079 23.5543
" />
<path d="M57.8965 23.5543
L57.8965 24.5824
" />
<path d="M57.8965 24.5824
L57.9570 24.7034
" />
<path d="M57.9570 24.7034
L58.0175 24.7639
" />
<path d="M58.0175 24.7639
L58.1384 24.8243
" />
<path d="M58.1384 24.8243
L58.3803 24.8243
" />
<path d="M58.3803 24.8243
L58.5013 24.7639
" />
<path d="M58.5013 24.7639
L58.5618 24.7034
" />
<path d="M58.5618 24.7034
L58.6222 24.5824
" />
<path d="M58.6222 24.5824
L58.6222 23.5543
" />
<path d="M59.0456 23.5543
L59.7713 23.5543
" />
<path d="M59.4085 24.8243
L59.4085 23.5543
" />
<path d="M60.1342 23.6753
L60.1946 23.6148
" />
<path d="M60.1946 23.6148
L60.3156 23.5543
" />
<path d="M60.3156 23.5543
L60.6180 23.5543
" />
<path d="M60.6180 23.5543
L60.7389 23.6148
" />
<path d="M60.7389 23.6148
L60.7994 23.6753
" />
<path d="M60.7994 23.6753
L60.8599 23.7962
" />
<path d="M60.8599 23.7962
L60.8599 23.9172
" />
<path d="M60.8599 23.9172
L60.7994 24.0986
" />
<path d="M60.7994 24.0986
L60.0737 24.8243
" />
<path d="M60.0737 24.8243
L60.8599 24.8243
" />
</g></g>
<g style="fill:#A90000; fill-opacity:0.0; 
stroke:#A90000; stroke-width:0.1524; stroke-opacity:1; 
stroke-linecap:round; stroke-linejoin:round;">
<text x="63.4880" y="23.9908"
textLength="1.4127" font-size="1.6933" lengthAdjust="spacingAndGlyphs"
text-anchor="middle" opacity="0">8</text>
<g class="stroked-text"><desc>8</desc>
<path d="M63.3671 23.1016
L63.2461 23.0411
" />
<path d="M63.2461 23.0411
L63.1856 22.9807
" />
<path d="M63.1856 22.9807
L63.1252 22.8597
" />
<path d="M63.1252 22.8597
L63.1252 22.7992
" />
<path d="M63.1252 22.7992
L63.1856 22.6783
" />
<path d="M63.1856 22.6783
L63.2461 22.6178
" />
<path d="M63.2461 22.6178
L63.3671 22.5573
" />
<path d="M63.3671 22.5573
L63.6090 22.5573
" />
<path d="M63.6090 22.5573
L63.7299 22.6178
" />
<path d="M63.7299 22.6178
L63.7904 22.6783
" />
<path d="M63.7904 22.6783
L63.8509 22.7992
" />
<path d="M63.8509 22.7992
L63.8509 22.8597
" />
<path d="M63.8509 22.8597
L63.7904 22.9807
" />
<path d="M63.7904 22.9807
L63.7299 23.0411
" />
<path d="M63.7299 23.0411
L63.6090 23.1016
" />
<path d="M63.6090 23.1016
L63.3671 23.1016
" />
<path d="M63.3671 23.1016
L63.2461 23.1621
" />
<path d="M63.2461 23.1621
L63.1856 23.2226
" />
<path d="M63.1856 23.2226
L63.1252 23.3435
" />
<path d="M63.1252 23.3435
L63.1252 23.5854
" />
<path d="M63.1252 23.5854
L63.1856 23.7064
" />
<path d="M63.1856 23.7064
L63.2461 23.7669
" />
<path d="M63.2461 23.7669
L63.3671 23.8273
" />
<path d="M63.3671 23.8273
L63.6090 23.8273
" />
<path d="M63.6090 23.8273
L63.7299 23.7669
" />
<path d="M63.7299 23.7669
L63.7904 23.7064
" />
<path d="M63.7904 23.7064
L63.8509 23.5854
" />
<path d="M63.8509 23.5854
L63.8509 23.3435
" />
<path d="M63.8509 23.3435
L63.7904 23.2226
" />
<path d="M63.7904 23.2226
L63.7299 23.1621
" />
<path d="M63.7299 23.1621
L63.6090 23.1016
" />
</g></g>
<g style="fill:#840000; fill-opacity:0.0; 
stroke:#840000; stroke-width:0.1524; stroke-opacity:1; 
stroke-linecap:round; stroke-linejoin:round;">
<path d="M57.1380 34.4048
L57.1380 36.9448
" />
</g>
<g style="fill:#006464; fill-opacity:0.0; 
stroke:#006464; stroke-width:0.1524; stroke-opacity:1; 
stroke-linecap:round; stroke-linejoin:round;">
<g transform="rotate(-90.000000 57.1380 33.3888)">
<text x="57.1380" y="34.0238"
textLength="3.8318" font-size="1.6933" lengthAdjust="spacingAndGlyphs"
text-anchor="start" opacity="0">PAD</text>
</g>
<g class="stroked-text"><desc>PAD</desc>
<path d="M57.7175 32.9862
L56.4475 32.9862
" />
<path d="M56.4475 32.9862
L56.4475 32.5024
" />
<path d="M56.4475 32.5024
L56.5080 32.3814
" />
<path d="M56.5080 32.3814
L56.5685 32.3209
" />
<path d="M56.5685 32.3209
L56.6894 32.2605
" />
<path d="M56.6894 32.2605
L56.8709 32.2605
" />
<path d="M56.8709 32.2605
L56.9918 32.3209
" />
<path d="M56.9918 32.3209
L57.0523 32.3814
" />
<path d="M57.0523 32.3814
L57.1128 32.5024
" />
<path d="M57.1128 32.5024
L57.1128 32.9862
" />
<path d="M57.3547 31.7766
L57.3547 31.1719
" />
<path d="M57.7175 31.8976
L56.4475 31.4743
" />
<path d="M56.4475 31.4743
L57.7175 31.0509
" />
<path d="M57.7175 30.6276
L56.4475 30.6276
" />
<path d="M56.4475 30.6276
L56.4475 30.3252
" />
<path d="M56.4475 30.3252
L56.5080 30.1438
" />
<path d="M56.5080 30.1438
L56.6290 30.0228
" />
<path d="M56.6290 30.0228
L56.7499 29.9623
" />
<path d="M56.7499 29.9623
L56.9918 29.9019
" />
<path d="M56.9918 29.9019
L57.1732 29.9019
" />
<path d="M57.1732 29.9019
L57.4151 29.9623
" />
<path d="M57.4151 29.9623
L57.5361 30.0228
" />
<path d="M57.5361 30.0228
L57.6571 30.1438
" />
<path d="M57.6571 30.1438
L57.7175 30.3252
" />
<path d="M57.7175 30.3252
L57.7175 30.6276
" />
</g></g>
<g style="fill:#A90000; fill-opacity:0.0; 
stroke:#A90000; stroke-width:0.1524; stroke-opacity:1; 
stroke-linecap:round; stroke-linejoin:round;">
<g transform="rotate(-90.000000 56.8840 35.6748)">
<text x="56.8840" y="35.6748"
textLength="1.4127" font-size="1.6933" lengthAdjust="spacingAndGlyphs"
text-anchor="middle" opacity="0">9</text>
</g>
<g class="stroked-text"><desc>9</desc>
<path d="M56.7205 35.9166
L56.7205 35.6747
" />
<path d="M56.7205 35.6747
L56.6601 35.5537
" />
<path d="M56.6601 35.5537
L56.5996 35.4933
" />
<path d="M56.5996 35.4933
L56.4181 35.3723
" />
<path d="M56.4181 35.3723
L56.1762 35.3118
" />
<path d="M56.1762 35.3118
L55.6924 35.3118
" />
<path d="M55.6924 35.3118
L55.5715 35.3723
" />
<path d="M55.5715 35.3723
L55.5110 35.4328
" />
<path d="M55.5110 35.4328
L55.4505 35.5537
" />
<path d="M55.4505 35.5537
L55.4505 35.7956
" />
<path d="M55.4505 35.7956
L55.5110 35.9166
" />
<path d="M55.5110 35.9166
L55.5715 35.9771
" />
<path d="M55.5715 35.9771
L55.6924 36.0375
" />
<path d="M55.6924 36.0375
L55.9948 36.0375
" />
<path d="M55.9948 36.0375
L56.1158 35.9771
" />
<path d="M56.1158 35.9771
L56.1762 35.9166
" />
<path d="M56.1762 35.9166
L56.2367 35.7956
" />
<path d="M56.2367 35.7956
L56.2367 35.5537
" />
<path d="M56.2367 35.5537
L56.1762 35.4328
" />
<path d="M56.1762 35.4328
L56.1158 35.3723
" />
<path d="M56.1158 35.3723
L55.9948 35.3118
" />
</g></g>
<g style="fill:#840084; fill-opacity:0.0; 
stroke:#840084; stroke-width:0.1524; stroke-opacity:1; 
stroke-linecap:round; stroke-linejoin:round;">
</g>
<g style="fill:#006464; fill-opacity:0.0; 
stroke:#006464; stroke-width:0.1524; stroke-opacity:1; 
stroke-linecap:round; stroke-linejoin:round;">
</g>
<g style="fill:#006464; fill-opacity:0.0; 
stroke:#006464; stroke-width:0.1588; stroke-opacity:1; 
stroke-linecap:round; stroke-linejoin:round;">
<text x="48.2987" y="18.5298"
textLength="2.6415" font-size="1.6933" lengthAdjust="spacingAndGlyphs"
text-anchor="middle" opacity="0">U?</text>
<g class="stroked-text"><desc>U?</desc>
<path d="M47.3915 17.2040
L47.3915 18.2321
" />
<path d="M47.3915 18.2321
L47.4520 18.3531
" />
<path d="M47.4520 18.3531
L47.5125 18.4136
" />
<path d="M47.5125 18.4136
L47.6334 18.4740
" />
<path d="M47.6334 18.4740
L47.8753 18.4740
" />
<path d="M47.8753 18.4740
L47.9963 18.4136
" />
<path d="M47.9963 18.4136
L48.0568 18.3531
" />
<path d="M48.0568 18.3531
L48.1172 18.2321
" />
<path d="M48.1172 18.2321
L48.1172 17.2040
" />
<path d="M48.9035 18.3531
L48.9639 18.4136
" />
<path d="M48.9639 18.4136
L48.9035 18.4740
" />
<path d="M48.9035 18.4740
L48.8430 18.4136
" />
<path d="M48.8430 18.4136
L48.9035 18.3531
" />
<path d="M48.9035 18.3531
L48.9035 18.4740
" />
<path d="M48.6616 17.2645
L48.7825 17.2040
" />
<path d="M48.7825 17.2040
L49.0849 17.2040
" />
<path d="M49.0849 17.2040
L49.2058 17.2645
" />
<path d="M49.2058 17.2645
L49.2663 17.3855
" />
<path d="M49.2663 17.3855
L49.2663 17.5064
" />
<path d="M49.2663 17.5064
L49.2058 17.6274
" />
<path d="M49.2058 17.6274
L49.1454 17.6878
" />
<path d="M49.1454 17.6878
L49.0244 17.7483
" />
<path d="M49.0244 17.7483
L48.9639 17.8088
" />
<path d="M48.9639 17.8088
L48.9035 17.9297
" />
<path d="M48.9035 17.9297
L48.9035 17.9902
" />
</g><text x="63.3270" y="18.5298"
textLength="7.2980" font-size="1.6933" lengthAdjust="spacingAndGlyphs"
text-anchor="middle" opacity="0">A4950E</text>
<g class="stroked-text"><desc>A4950E</desc>
<path d="M60.0311 18.1112
L60.6358 18.1112
" />
<path d="M59.9101 18.4740
L60.3334 17.2040
" />
<path d="M60.3334 17.2040
L60.7568 18.4740
" />
<path d="M61.7244 17.6274
L61.7244 18.4740
" />
<path d="M61.4220 17.1436
L61.1197 18.0507
" />
<path d="M61.1197 18.0507
L61.9058 18.0507
" />
<path d="M62.4501 18.4740
L62.6920 18.4740
" />
<path d="M62.6920 18.4740
L62.8130 18.4136
" />
<path d="M62.8130 18.4136
L62.8734 18.3531
" />
<path d="M62.8734 18.3531
L62.9944 18.1716
" />
<path d="M62.9944 18.1716
L63.0549 17.9297
" />
<path d="M63.0549 17.9297
L63.0549 17.4459
" />
<path d="M63.0549 17.4459
L62.9944 17.3250
" />
<path d="M62.9944 17.3250
L62.9339 17.2645
" />
<path d="M62.9339 17.2645
L62.8130 17.2040
" />
<path d="M62.8130 17.2040
L62.5711 17.2040
" />
<path d="M62.5711 17.2040
L62.4501 17.2645
" />
<path d="M62.4501 17.2645
L62.3896 17.3250
" />
<path d="M62.3896 17.3250
L62.3292 17.4459
" />
<path d="M62.3292 17.4459
L62.3292 17.7483
" />
<path d="M62.3292 17.7483
L62.3896 17.8693
" />
<path d="M62.3896 17.8693
L62.4501 17.9297
" />
<path d="M62.4501 17.9297
L62.5711 17.9902
" />
<path d="M62.5711 17.9902
L62.8130 17.9902
" />
<path d="M62.8130 17.9902
L62.9339 17.9297
" />
<path d="M62.9339 17.9297
L62.9944 17.8693
" />
<path d="M62.9944 17.8693
L63.0549 17.7483
" />
<path d="M64.2039 17.2040
L63.5991 17.2040
" />
<path d="M63.5991 17.2040
L63.5387 17.8088
" />
<path d="M63.5387 17.8088
L63.5991 17.7483
" />
<path d="M63.5991 17.7483
L63.7201 17.6878
" />
<path d="M63.7201 17.6878
L64.0225 17.6878
" />
<path d="M64.0225 17.6878
L64.1434 17.7483
" />
<path d="M64.1434 17.7483
L64.2039 17.8088
" />
<path d="M64.2039 17.8088
L64.2644 17.9297
" />
<path d="M64.2644 17.9297
L64.2644 18.2321
" />
<path d="M64.2644 18.2321
L64.2039 18.3531
" />
<path d="M64.2039 18.3531
L64.1434 18.4136
" />
<path d="M64.1434 18.4136
L64.0225 18.4740
" />
<path d="M64.0225 18.4740
L63.7201 18.4740
" />
<path d="M63.7201 18.4740
L63.5991 18.4136
" />
<path d="M63.5991 18.4136
L63.5387 18.3531
" />
<path d="M65.0505 17.2040
L65.1715 17.2040
" />
<path d="M65.1715 17.2040
L65.2924 17.2645
" />
<path d="M65.2924 17.2645
L65.3529 17.3250
" />
<path d="M65.3529 17.3250
L65.4134 17.4459
" />
<path d="M65.4134 17.4459
L65.4739 17.6878
" />
<path d="M65.4739 17.6878
L65.4739 17.9902
" />
<path d="M65.4739 17.9902
L65.4134 18.2321
" />
<path d="M65.4134 18.2321
L65.3529 18.3531
" />
<path d="M65.3529 18.3531
L65.2924 18.4136
" />
<path d="M65.2924 18.4136
L65.1715 18.4740
" />
<path d="M65.1715 18.4740
L65.0505 18.4740
" />
<path d="M65.0505 18.4740
L64.9296 18.4136
" />
<path d="M64.9296 18.4136
L64.8691 18.3531
" />
<path d="M64.8691 18.3531
L64.8086 18.2321
" />
<path d="M64.8086 18.2321
L64.7482 17.9902
" />
<path d="M64.7482 17.9902
L64.7482 17.6878
" />
<path d="M64.7482 17.6878
L64.8086 17.4459
" />
<path d="M64.8086 17.4459
L64.8691 17.3250
" />
<path d="M64.8691 17.3250
L64.9296 17.2645
" />
<path d="M64.9296 17.2645
L65.0505 17.2040
" />
<path d="M66.0181 17.8088
L66.4415 17.8088
" />
<path d="M66.6229 18.4740
L66.0181 18.4740
" />
<path d="M66.0181 18.4740
L66.0181 17.2040
" />
<path d="M66.0181 17.2040
L66.6229 17.2040
" />
</g></g>
<g style="fill:#840084; fill-opacity:0.0; 
stroke:#840084; stroke-width:0.1588; stroke-opacity:1; 
stroke-linecap:round; stroke-linejoin:round;">
<text x="54.5980" y="41.3898"
textLength="61.0005" font-size="1.6933" lengthAdjust="spacingAndGlyphs"
text-anchor="middle" opacity="0">Package_SO:SOIC-8-1EP_3.9x4.9mm_P1.27mm_EP2.41x3.3mm</text>
<g class="stroked-text"><desc>Package_SO:SOIC-8-1EP_3.9x4.9mm_P1.27mm_EP2.41x3.3mm</desc>
<path d="M24.5113 41.3340
L24.5113 40.0640
" />
<path d="M24.5113 40.0640
L24.9951 40.0640
" />
<path d="M24.9951 40.0640
L25.1161 40.1245
" />
<path d="M25.1161 40.1245
L25.1766 40.1850
" />
<path d="M25.1766 40.1850
L25.2370 40.3059
" />
<path d="M25.2370 40.3059
L25.2370 40.4874
" />
<path d="M25.2370 40.4874
L25.1766 40.6083
" />
<path d="M25.1766 40.6083
L25.1161 40.6688
" />
<path d="M25.1161 40.6688
L24.9951 40.7293
" />
<path d="M24.9951 40.7293
L24.5113 40.7293
" />
<path d="M26.3256 41.3340
L26.3256 40.6688
" />
<path d="M26.3256 40.6688
L26.2651 40.5478
" />
<path d="M26.2651 40.5478
L26.1442 40.4874
" />
<path d="M26.1442 40.4874
L25.9023 40.4874
" />
<path d="M25.9023 40.4874
L25.7813 40.5478
" />
<path d="M26.3256 41.2736
L26.2047 41.3340
" />
<path d="M26.2047 41.3340
L25.9023 41.3340
" />
<path d="M25.9023 41.3340
L25.7813 41.2736
" />
<path d="M25.7813 41.2736
L25.7209 41.1526
" />
<path d="M25.7209 41.1526
L25.7209 41.0316
" />
<path d="M25.7209 41.0316
L25.7813 40.9107
" />
<path d="M25.7813 40.9107
L25.9023 40.8502
" />
<path d="M25.9023 40.8502
L26.2047 40.8502
" />
<path d="M26.2047 40.8502
L26.3256 40.7897
" />
<path d="M27.4746 41.2736
L27.3537 41.3340
" />
<path d="M27.3537 41.3340
L27.1118 41.3340
" />
<path d="M27.1118 41.3340
L26.9908 41.2736
" />
<path d="M26.9908 41.2736
L26.9303 41.2131
" />
<path d="M26.9303 41.2131
L26.8699 41.0921
" />
<path d="M26.8699 41.0921
L26.8699 40.7293
" />
<path d="M26.8699 40.7293
L26.9303 40.6083
" />
<path d="M26.9303 40.6083
L26.9908 40.5478
" />
<path d="M26.9908 40.5478
L27.1118 40.4874
" />
<path d="M27.1118 40.4874
L27.3537 40.4874
" />
<path d="M27.3537 40.4874
L27.4746 40.5478
" />
<path d="M28.0189 41.3340
L28.0189 40.0640
" />
<path d="M28.1399 40.8502
L28.5027 41.3340
" />
<path d="M28.5027 40.4874
L28.0189 40.9712
" />
<path d="M29.5913 41.3340
L29.5913 40.6688
" />
<path d="M29.5913 40.6688
L29.5308 40.5478
" />
<path d="M29.5308 40.5478
L29.4099 40.4874
" />
<path d="M29.4099 40.4874
L29.1680 40.4874
" />
<path d="M29.1680 40.4874
L29.0470 40.5478
" />
<path d="M29.5913 41.2736
L29.4704 41.3340
" />
<path d="M29.4704 41.3340
L29.1680 41.3340
" />
<path d="M29.1680 41.3340
L29.0470 41.2736
" />
<path d="M29.0470 41.2736
L28.9866 41.1526
" />
<path d="M28.9866 41.1526
L28.9866 41.0316
" />
<path d="M28.9866 41.0316
L29.0470 40.9107
" />
<path d="M29.0470 40.9107
L29.1680 40.8502
" />
<path d="M29.1680 40.8502
L29.4704 40.8502
" />
<path d="M29.4704 40.8502
L29.5913 40.7897
" />
<path d="M30.7403 40.4874
L30.7403 41.5155
" />
<path d="M30.7403 41.5155
L30.6798 41.6364
" />
<path d="M30.6798 41.6364
L30.6194 41.6969
" />
<path d="M30.6194 41.6969
L30.4984 41.7574
" />
<path d="M30.4984 41.7574
L30.3170 41.7574
" />
<path d="M30.3170 41.7574
L30.1960 41.6969
" />
<path d="M30.7403 41.2736
L30.6194 41.3340
" />
<path d="M30.6194 41.3340
L30.3775 41.3340
" />
<path d="M30.3775 41.3340
L30.2565 41.2736
" />
<path d="M30.2565 41.2736
L30.1960 41.2131
" />
<path d="M30.1960 41.2131
L30.1356 41.0921
" />
<path d="M30.1356 41.0921
L30.1356 40.7293
" />
<path d="M30.1356 40.7293
L30.1960 40.6083
" />
<path d="M30.1960 40.6083
L30.2565 40.5478
" />
<path d="M30.2565 40.5478
L30.3775 40.4874
" />
<path d="M30.3775 40.4874
L30.6194 40.4874
" />
<path d="M30.6194 40.4874
L30.7403 40.5478
" />
<path d="M31.8288 41.2736
L31.7079 41.3340
" />
<path d="M31.7079 41.3340
L31.4660 41.3340
" />
<path d="M31.4660 41.3340
L31.3450 41.2736
" />
<path d="M31.3450 41.2736
L31.2846 41.1526
" />
<path d="M31.2846 41.1526
L31.2846 40.6688
" />
<path d="M31.2846 40.6688
L31.3450 40.5478
" />
<path d="M31.3450 40.5478
L31.4660 40.4874
" />
<path d="M31.4660 40.4874
L31.7079 40.4874
" />
<path d="M31.7079 40.4874
L31.8288 40.5478
" />
<path d="M31.8288 40.5478
L31.8893 40.6688
" />
<path d="M31.8893 40.6688
L31.8893 40.7897
" />
<path d="M31.8893 40.7897
L31.2846 40.9107
" />
<path d="M32.1313 41.4550
L33.0989 41.4550
" />
<path d="M33.3408 41.2736
L33.5222 41.3340
" />
<path d="M33.5222 41.3340
L33.8246 41.3340
" />
<path d="M33.8246 41.3340
L33.9455 41.2736
" />
<path d="M33.9455 41.2736
L34.0060 41.2131
" />
<path d="M34.0060 41.2131
L34.0665 41.0921
" />
<path d="M34.0665 41.0921
L34.0665 40.9712
" />
<path d="M34.0665 40.9712
L34.0060 40.8502
" />
<path d="M34.0060 40.8502
L33.9455 40.7897
" />
<path d="M33.9455 40.7897
L33.8246 40.7293
" />
<path d="M33.8246 40.7293
L33.5827 40.6688
" />
<path d="M33.5827 40.6688
L33.4617 40.6083
" />
<path d="M33.4617 40.6083
L33.4012 40.5478
" />
<path d="M33.4012 40.5478
L33.3408 40.4269
" />
<path d="M33.3408 40.4269
L33.3408 40.3059
" />
<path d="M33.3408 40.3059
L33.4012 40.1850
" />
<path d="M33.4012 40.1850
L33.4617 40.1245
" />
<path d="M33.4617 40.1245
L33.5827 40.0640
" />
<path d="M33.5827 40.0640
L33.8850 40.0640
" />
<path d="M33.8850 40.0640
L34.0665 40.1245
" />
<path d="M34.8526 40.0640
L35.0945 40.0640
" />
<path d="M35.0945 40.0640
L35.2155 40.1245
" />
<path d="M35.2155 40.1245
L35.3364 40.2455
" />
<path d="M35.3364 40.2455
L35.3969 40.4874
" />
<path d="M35.3969 40.4874
L35.3969 40.9107
" />
<path d="M35.3969 40.9107
L35.3364 41.1526
" />
<path d="M35.3364 41.1526
L35.2155 41.2736
" />
<path d="M35.2155 41.2736
L35.0945 41.3340
" />
<path d="M35.0945 41.3340
L34.8526 41.3340
" />
<path d="M34.8526 41.3340
L34.7317 41.2736
" />
<path d="M34.7317 41.2736
L34.6107 41.1526
" />
<path d="M34.6107 41.1526
L34.5503 40.9107
" />
<path d="M34.5503 40.9107
L34.5503 40.4874
" />
<path d="M34.5503 40.4874
L34.6107 40.2455
" />
<path d="M34.6107 40.2455
L34.7317 40.1245
" />
<path d="M34.7317 40.1245
L34.8526 40.0640
" />
<path d="M35.9412 41.2131
L36.0017 41.2736
" />
<path d="M36.0017 41.2736
L35.9412 41.3340
" />
<path d="M35.9412 41.3340
L35.8808 41.2736
" />
<path d="M35.8808 41.2736
L35.9412 41.2131
" />
<path d="M35.9412 41.2131
L35.9412 41.3340
" />
<path d="M35.9412 40.5478
L36.0017 40.6083
" />
<path d="M36.0017 40.6083
L35.9412 40.6688
" />
<path d="M35.9412 40.6688
L35.8808 40.6083
" />
<path d="M35.8808 40.6083
L35.9412 40.5478
" />
<path d="M35.9412 40.5478
L35.9412 40.6688
" />
<path d="M36.4856 41.2736
L36.6670 41.3340
" />
<path d="M36.6670 41.3340
L36.9694 41.3340
" />
<path d="M36.9694 41.3340
L37.0903 41.2736
" />
<path d="M37.0903 41.2736
L37.1508 41.2131
" />
<path d="M37.1508 41.2131
L37.2113 41.0921
" />
<path d="M37.2113 41.0921
L37.2113 40.9712
" />
<path d="M37.2113 40.9712
L37.1508 40.8502
" />
<path d="M37.1508 40.8502
L37.0903 40.7897
" />
<path d="M37.0903 40.7897
L36.9694 40.7293
" />
<path d="M36.9694 40.7293
L36.7275 40.6688
" />
<path d="M36.7275 40.6688
L36.6065 40.6083
" />
<path d="M36.6065 40.6083
L36.5460 40.5478
" />
<path d="M36.5460 40.5478
L36.4856 40.4269
" />
<path d="M36.4856 40.4269
L36.4856 40.3059
" />
<path d="M36.4856 40.3059
L36.5460 40.1850
" />
<path d="M36.5460 40.1850
L36.6065 40.1245
" />
<path d="M36.6065 40.1245
L36.7275 40.0640
" />
<path d="M36.7275 40.0640
L37.0298 40.0640
" />
<path d="M37.0298 40.0640
L37.2113 40.1245
" />
<path d="M37.9974 40.0640
L38.2393 40.0640
" />
<path d="M38.2393 40.0640
L38.3603 40.1245
" />
<path d="M38.3603 40.1245
L38.4812 40.2455
" />
<path d="M38.4812 40.2455
L38.5417 40.4874
" />
<path d="M38.5417 40.4874
L38.5417 40.9107
" />
<path d="M38.5417 40.9107
L38.4812 41.1526
" />
<path d="M38.4812 41.1526
L38.3603 41.2736
" />
<path d="M38.3603 41.2736
L38.2393 41.3340
" />
<path d="M38.2393 41.3340
L37.9974 41.3340
" />
<path d="M37.9974 41.3340
L37.8765 41.2736
" />
<path d="M37.8765 41.2736
L37.7555 41.1526
" />
<path d="M37.7555 41.1526
L37.6951 40.9107
" />
<path d="M37.6951 40.9107
L37.6951 40.4874
" />
<path d="M37.6951 40.4874
L37.7555 40.2455
" />
<path d="M37.7555 40.2455
L37.8765 40.1245
" />
<path d="M37.8765 40.1245
L37.9974 40.0640
" />
<path d="M39.0860 41.3340
L39.0860 40.0640
" />
<path d="M40.4165 41.2131
L40.3561 41.2736
" />
<path d="M40.3561 41.2736
L40.1746 41.3340
" />
<path d="M40.1746 41.3340
L40.0537 41.3340
" />
<path d="M40.0537 41.3340
L39.8723 41.2736
" />
<path d="M39.8723 41.2736
L39.7513 41.1526
" />
<path d="M39.7513 41.1526
L39.6908 41.0316
" />
<path d="M39.6908 41.0316
L39.6304 40.7897
" />
<path d="M39.6304 40.7897
L39.6304 40.6083
" />
<path d="M39.6304 40.6083
L39.6908 40.3664
" />
<path d="M39.6908 40.3664
L39.7513 40.2455
" />
<path d="M39.7513 40.2455
L39.8723 40.1245
" />
<path d="M39.8723 40.1245
L40.0537 40.0640
" />
<path d="M40.0537 40.0640
L40.1746 40.0640
" />
<path d="M40.1746 40.0640
L40.3561 40.1245
" />
<path d="M40.3561 40.1245
L40.4165 40.1850
" />
<path d="M40.9608 40.8502
L41.9285 40.8502
" />
<path d="M42.7147 40.6083
L42.5937 40.5478
" />
<path d="M42.5937 40.5478
L42.5332 40.4874
" />
<path d="M42.5332 40.4874
L42.4728 40.3664
" />
<path d="M42.4728 40.3664
L42.4728 40.3059
" />
<path d="M42.4728 40.3059
L42.5332 40.1850
" />
<path d="M42.5332 40.1850
L42.5937 40.1245
" />
<path d="M42.5937 40.1245
L42.7147 40.0640
" />
<path d="M42.7147 40.0640
L42.9566 40.0640
" />
<path d="M42.9566 40.0640
L43.0775 40.1245
" />
<path d="M43.0775 40.1245
L43.1380 40.1850
" />
<path d="M43.1380 40.1850
L43.1985 40.3059
" />
<path d="M43.1985 40.3059
L43.1985 40.3664
" />
<path d="M43.1985 40.3664
L43.1380 40.4874
" />
<path d="M43.1380 40.4874
L43.0775 40.5478
" />
<path d="M43.0775 40.5478
L42.9566 40.6083
" />
<path d="M42.9566 40.6083
L42.7147 40.6083
" />
<path d="M42.7147 40.6083
L42.5937 40.6688
" />
<path d="M42.5937 40.6688
L42.5332 40.7293
" />
<path d="M42.5332 40.7293
L42.4728 40.8502
" />
<path d="M42.4728 40.8502
L42.4728 41.0921
" />
<path d="M42.4728 41.0921
L42.5332 41.2131
" />
<path d="M42.5332 41.2131
L42.5937 41.2736
" />
<path d="M42.5937 41.2736
L42.7147 41.3340
" />
<path d="M42.7147 41.3340
L42.9566 41.3340
" />
<path d="M42.9566 41.3340
L43.0775 41.2736
" />
<path d="M43.0775 41.2736
L43.1380 41.2131
" />
<path d="M43.1380 41.2131
L43.1985 41.0921
" />
<path d="M43.1985 41.0921
L43.1985 40.8502
" />
<path d="M43.1985 40.8502
L43.1380 40.7293
" />
<path d="M43.1380 40.7293
L43.0775 40.6688
" />
<path d="M43.0775 40.6688
L42.9566 40.6083
" />
<path d="M43.7427 40.8502
L44.7104 40.8502
" />
<path d="M45.9804 41.3340
L45.2547 41.3340
" />
<path d="M45.6175 41.3340
L45.6175 40.0640
" />
<path d="M45.6175 40.0640
L45.4966 40.2455
" />
<path d="M45.4966 40.2455
L45.3756 40.3664
" />
<path d="M45.3756 40.3664
L45.2547 40.4269
" />
<path d="M46.5246 40.6688
L46.9480 40.6688
" />
<path d="M47.1294 41.3340
L46.5246 41.3340
" />
<path d="M46.5246 41.3340
L46.5246 40.0640
" />
<path d="M46.5246 40.0640
L47.1294 40.0640
" />
<path d="M47.6736 41.3340
L47.6736 40.0640
" />
<path d="M47.6736 40.0640
L48.1574 40.0640
" />
<path d="M48.1574 40.0640
L48.2784 40.1245
" />
<path d="M48.2784 40.1245
L48.3389 40.1850
" />
<path d="M48.3389 40.1850
L48.3993 40.3059
" />
<path d="M48.3993 40.3059
L48.3993 40.4874
" />
<path d="M48.3993 40.4874
L48.3389 40.6083
" />
<path d="M48.3389 40.6083
L48.2784 40.6688
" />
<path d="M48.2784 40.6688
L48.1574 40.7293
" />
<path d="M48.1574 40.7293
L47.6736 40.7293
" />
<path d="M48.6413 41.4550
L49.6089 41.4550
" />
<path d="M49.7903 40.0640
L50.5765 40.0640
" />
<path d="M50.5765 40.0640
L50.1531 40.5478
" />
<path d="M50.1531 40.5478
L50.3346 40.5478
" />
<path d="M50.3346 40.5478
L50.4555 40.6083
" />
<path d="M50.4555 40.6083
L50.5160 40.6688
" />
<path d="M50.5160 40.6688
L50.5765 40.7897
" />
<path d="M50.5765 40.7897
L50.5765 41.0921
" />
<path d="M50.5765 41.0921
L50.5160 41.2131
" />
<path d="M50.5160 41.2131
L50.4555 41.2736
" />
<path d="M50.4555 41.2736
L50.3346 41.3340
" />
<path d="M50.3346 41.3340
L49.9717 41.3340
" />
<path d="M49.9717 41.3340
L49.8508 41.2736
" />
<path d="M49.8508 41.2736
L49.7903 41.2131
" />
<path d="M51.1207 41.2131
L51.1812 41.2736
" />
<path d="M51.1812 41.2736
L51.1207 41.3340
" />
<path d="M51.1207 41.3340
L51.0603 41.2736
" />
<path d="M51.0603 41.2736
L51.1207 41.2131
" />
<path d="M51.1207 41.2131
L51.1207 41.3340
" />
<path d="M51.7860 41.3340
L52.0279 41.3340
" />
<path d="M52.0279 41.3340
L52.1489 41.2736
" />
<path d="M52.1489 41.2736
L52.2093 41.2131
" />
<path d="M52.2093 41.2131
L52.3303 41.0316
" />
<path d="M52.3303 41.0316
L52.3908 40.7897
" />
<path d="M52.3908 40.7897
L52.3908 40.3059
" />
<path d="M52.3908 40.3059
L52.3303 40.1850
" />
<path d="M52.3303 40.1850
L52.2698 40.1245
" />
<path d="M52.2698 40.1245
L52.1489 40.0640
" />
<path d="M52.1489 40.0640
L51.9070 40.0640
" />
<path d="M51.9070 40.0640
L51.7860 40.1245
" />
<path d="M51.7860 40.1245
L51.7255 40.1850
" />
<path d="M51.7255 40.1850
L51.6651 40.3059
" />
<path d="M51.6651 40.3059
L51.6651 40.6083
" />
<path d="M51.6651 40.6083
L51.7255 40.7293
" />
<path d="M51.7255 40.7293
L51.7860 40.7897
" />
<path d="M51.7860 40.7897
L51.9070 40.8502
" />
<path d="M51.9070 40.8502
L52.1489 40.8502
" />
<path d="M52.1489 40.8502
L52.2698 40.7897
" />
<path d="M52.2698 40.7897
L52.3303 40.7293
" />
<path d="M52.3303 40.7293
L52.3908 40.6083
" />
<path d="M52.8141 41.3340
L53.4793 40.4874
" />
<path d="M52.8141 40.4874
L53.4793 41.3340
" />
<path d="M54.5074 40.4874
L54.5074 41.3340
" />
<path d="M54.2050 40.0036
L53.9027 40.9107
" />
<path d="M53.9027 40.9107
L54.6888 40.9107
" />
<path d="M55.1726 41.2131
L55.2331 41.2736
" />
<path d="M55.2331 41.2736
L55.1726 41.3340
" />
<path d="M55.1726 41.3340
L55.1122 41.2736
" />
<path d="M55.1122 41.2736
L55.1726 41.2131
" />
<path d="M55.1726 41.2131
L55.1726 41.3340
" />
<path d="M55.8379 41.3340
L56.0798 41.3340
" />
<path d="M56.0798 41.3340
L56.2008 41.2736
" />
<path d="M56.2008 41.2736
L56.2612 41.2131
" />
<path d="M56.2612 41.2131
L56.3822 41.0316
" />
<path d="M56.3822 41.0316
L56.4427 40.7897
" />
<path d="M56.4427 40.7897
L56.4427 40.3059
" />
<path d="M56.4427 40.3059
L56.3822 40.1850
" />
<path d="M56.3822 40.1850
L56.3217 40.1245
" />
<path d="M56.3217 40.1245
L56.2008 40.0640
" />
<path d="M56.2008 40.0640
L55.9589 40.0640
" />
<path d="M55.9589 40.0640
L55.8379 40.1245
" />
<path d="M55.8379 40.1245
L55.7774 40.1850
" />
<path d="M55.7774 40.1850
L55.7170 40.3059
" />
<path d="M55.7170 40.3059
L55.7170 40.6083
" />
<path d="M55.7170 40.6083
L55.7774 40.7293
" />
<path d="M55.7774 40.7293
L55.8379 40.7897
" />
<path d="M55.8379 40.7897
L55.9589 40.8502
" />
<path d="M55.9589 40.8502
L56.2008 40.8502
" />
<path d="M56.2008 40.8502
L56.3217 40.7897
" />
<path d="M56.3217 40.7897
L56.3822 40.7293
" />
<path d="M56.3822 40.7293
L56.4427 40.6083
" />
<path d="M56.9869 41.3340
L56.9869 40.4874
" />
<path d="M56.9869 40.6083
L57.0474 40.5478
" />
<path d="M57.0474 40.5478
L57.1684 40.4874
" />
<path d="M57.1684 40.4874
L57.3498 40.4874
" />
<path d="M57.3498 40.4874
L57.4707 40.5478
" />
<path d="M57.4707 40.5478
L57.5312 40.6688
" />
<path d="M57.5312 40.6688
L57.5312 41.3340
" />
<path d="M57.5312 40.6688
L57.5917 40.5478
" />
<path d="M57.5917 40.5478
L57.7126 40.4874
" />
<path d="M57.7126 40.4874
L57.8941 40.4874
" />
<path d="M57.8941 40.4874
L58.0150 40.5478
" />
<path d="M58.0150 40.5478
L58.0755 40.6688
" />
<path d="M58.0755 40.6688
L58.0755 41.3340
" />
<path d="M58.6802 41.3340
L58.6802 40.4874
" />
<path d="M58.6802 40.6083
L58.7407 40.5478
" />
<path d="M58.7407 40.5478
L58.8617 40.4874
" />
<path d="M58.8617 40.4874
L59.0431 40.4874
" />
<path d="M59.0431 40.4874
L59.1640 40.5478
" />
<path d="M59.1640 40.5478
L59.2245 40.6688
" />
<path d="M59.2245 40.6688
L59.2245 41.3340
" />
<path d="M59.2245 40.6688
L59.2850 40.5478
" />
<path d="M59.2850 40.5478
L59.4059 40.4874
" />
<path d="M59.4059 40.4874
L59.5874 40.4874
" />
<path d="M59.5874 40.4874
L59.7083 40.5478
" />
<path d="M59.7083 40.5478
L59.7688 40.6688
" />
<path d="M59.7688 40.6688
L59.7688 41.3340
" />
<path d="M60.0712 41.4550
L61.0388 41.4550
" />
<path d="M61.3411 41.3340
L61.3411 40.0640
" />
<path d="M61.3411 40.0640
L61.8249 40.0640
" />
<path d="M61.8249 40.0640
L61.9459 40.1245
" />
<path d="M61.9459 40.1245
L62.0064 40.1850
" />
<path d="M62.0064 40.1850
L62.0668 40.3059
" />
<path d="M62.0668 40.3059
L62.0668 40.4874
" />
<path d="M62.0668 40.4874
L62.0064 40.6083
" />
<path d="M62.0064 40.6083
L61.9459 40.6688
" />
<path d="M61.9459 40.6688
L61.8249 40.7293
" />
<path d="M61.8249 40.7293
L61.3411 40.7293
" />
<path d="M63.2764 41.3340
L62.5507 41.3340
" />
<path d="M62.9135 41.3340
L62.9135 40.0640
" />
<path d="M62.9135 40.0640
L62.7926 40.2455
" />
<path d="M62.7926 40.2455
L62.6716 40.3664
" />
<path d="M62.6716 40.3664
L62.5507 40.4269
" />
<path d="M63.8206 41.2131
L63.8811 41.2736
" />
<path d="M63.8811 41.2736
L63.8206 41.3340
" />
<path d="M63.8206 41.3340
L63.7602 41.2736
" />
<path d="M63.7602 41.2736
L63.8206 41.2131
" />
<path d="M63.8206 41.2131
L63.8206 41.3340
" />
<path d="M64.3650 40.1850
L64.4254 40.1245
" />
<path d="M64.4254 40.1245
L64.5464 40.0640
" />
<path d="M64.5464 40.0640
L64.8488 40.0640
" />
<path d="M64.8488 40.0640
L64.9697 40.1245
" />
<path d="M64.9697 40.1245
L65.0302 40.1850
" />
<path d="M65.0302 40.1850
L65.0907 40.3059
" />
<path d="M65.0907 40.3059
L65.0907 40.4269
" />
<path d="M65.0907 40.4269
L65.0302 40.6083
" />
<path d="M65.0302 40.6083
L64.3045 41.3340
" />
<path d="M64.3045 41.3340
L65.0907 41.3340
" />
<path d="M65.5140 40.0640
L66.3606 40.0640
" />
<path d="M66.3606 40.0640
L65.8164 41.3340
" />
<path d="M66.8444 41.3340
L66.8444 40.4874
" />
<path d="M66.8444 40.6083
L66.9049 40.5478
" />
<path d="M66.9049 40.5478
L67.0259 40.4874
" />
<path d="M67.0259 40.4874
L67.2073 40.4874
" />
<path d="M67.2073 40.4874
L67.3282 40.5478
" />
<path d="M67.3282 40.5478
L67.3887 40.6688
" />
<path d="M67.3887 40.6688
L67.3887 41.3340
" />
<path d="M67.3887 40.6688
L67.4492 40.5478
" />
<path d="M67.4492 40.5478
L67.5701 40.4874
" />
<path d="M67.5701 40.4874
L67.7516 40.4874
" />
<path d="M67.7516 40.4874
L67.8725 40.5478
" />
<path d="M67.8725 40.5478
L67.9330 40.6688
" />
<path d="M67.9330 40.6688
L67.9330 41.3340
" />
<path d="M68.5377 41.3340
L68.5377 40.4874
" />
<path d="M68.5377 40.6083
L68.5982 40.5478
" />
<path d="M68.5982 40.5478
L68.7192 40.4874
" />
<path d="M68.7192 40.4874
L68.9006 40.4874
" />
<path d="M68.9006 40.4874
L69.0215 40.5478
" />
<path d="M69.0215 40.5478
L69.0820 40.6688
" />
<path d="M69.0820 40.6688
L69.0820 41.3340
" />
<path d="M69.0820 40.6688
L69.1425 40.5478
" />
<path d="M69.1425 40.5478
L69.2634 40.4874
" />
<path d="M69.2634 40.4874
L69.4449 40.4874
" />
<path d="M69.4449 40.4874
L69.5658 40.5478
" />
<path d="M69.5658 40.5478
L69.6263 40.6688
" />
<path d="M69.6263 40.6688
L69.6263 41.3340
" />
<path d="M69.9287 41.4550
L70.8963 41.4550
" />
<path d="M71.1986 40.6688
L71.6220 40.6688
" />
<path d="M71.8034 41.3340
L71.1986 41.3340
" />
<path d="M71.1986 41.3340
L71.1986 40.0640
" />
<path d="M71.1986 40.0640
L71.8034 40.0640
" />
<path d="M72.3476 41.3340
L72.3476 40.0640
" />
<path d="M72.3476 40.0640
L72.8314 40.0640
" />
<path d="M72.8314 40.0640
L72.9524 40.1245
" />
<path d="M72.9524 40.1245
L73.0129 40.1850
" />
<path d="M73.0129 40.1850
L73.0733 40.3059
" />
<path d="M73.0733 40.3059
L73.0733 40.4874
" />
<path d="M73.0733 40.4874
L73.0129 40.6083
" />
<path d="M73.0129 40.6083
L72.9524 40.6688
" />
<path d="M72.9524 40.6688
L72.8314 40.7293
" />
<path d="M72.8314 40.7293
L72.3476 40.7293
" />
<path d="M73.5572 40.1850
L73.6176 40.1245
" />
<path d="M73.6176 40.1245
L73.7386 40.0640
" />
<path d="M73.7386 40.0640
L74.0410 40.0640
" />
<path d="M74.0410 40.0640
L74.1619 40.1245
" />
<path d="M74.1619 40.1245
L74.2224 40.1850
" />
<path d="M74.2224 40.1850
L74.2829 40.3059
" />
<path d="M74.2829 40.3059
L74.2829 40.4269
" />
<path d="M74.2829 40.4269
L74.2224 40.6083
" />
<path d="M74.2224 40.6083
L73.4967 41.3340
" />
<path d="M73.4967 41.3340
L74.2829 41.3340
" />
<path d="M74.8271 41.2131
L74.8876 41.2736
" />
<path d="M74.8876 41.2736
L74.8271 41.3340
" />
<path d="M74.8271 41.3340
L74.7667 41.2736
" />
<path d="M74.7667 41.2736
L74.8271 41.2131
" />
<path d="M74.8271 41.2131
L74.8271 41.3340
" />
<path d="M75.9762 40.4874
L75.9762 41.3340
" />
<path d="M75.6738 40.0036
L75.3715 40.9107
" />
<path d="M75.3715 40.9107
L76.1576 40.9107
" />
<path d="M77.3067 41.3340
L76.5810 41.3340
" />
<path d="M76.9438 41.3340
L76.9438 40.0640
" />
<path d="M76.9438 40.0640
L76.8229 40.2455
" />
<path d="M76.8229 40.2455
L76.7019 40.3664
" />
<path d="M76.7019 40.3664
L76.5810 40.4269
" />
<path d="M77.7300 41.3340
L78.3952 40.4874
" />
<path d="M77.7300 40.4874
L78.3952 41.3340
" />
<path d="M78.7581 40.0640
L79.5443 40.0640
" />
<path d="M79.5443 40.0640
L79.1209 40.5478
" />
<path d="M79.1209 40.5478
L79.3024 40.5478
" />
<path d="M79.3024 40.5478
L79.4233 40.6083
" />
<path d="M79.4233 40.6083
L79.4838 40.6688
" />
<path d="M79.4838 40.6688
L79.5443 40.7897
" />
<path d="M79.5443 40.7897
L79.5443 41.0921
" />
<path d="M79.5443 41.0921
L79.4838 41.2131
" />
<path d="M79.4838 41.2131
L79.4233 41.2736
" />
<path d="M79.4233 41.2736
L79.3024 41.3340
" />
<path d="M79.3024 41.3340
L78.9395 41.3340
" />
<path d="M78.9395 41.3340
L78.8186 41.2736
" />
<path d="M78.8186 41.2736
L78.7581 41.2131
" />
<path d="M80.0885 41.2131
L80.1490 41.2736
" />
<path d="M80.1490 41.2736
L80.0885 41.3340
" />
<path d="M80.0885 41.3340
L80.0281 41.2736
" />
<path d="M80.0281 41.2736
L80.0885 41.2131
" />
<path d="M80.0885 41.2131
L80.0885 41.3340
" />
<path d="M80.5724 40.0640
L81.3586 40.0640
" />
<path d="M81.3586 40.0640
L80.9352 40.5478
" />
<path d="M80.9352 40.5478
L81.1167 40.5478
" />
<path d="M81.1167 40.5478
L81.2376 40.6083
" />
<path d="M81.2376 40.6083
L81.2981 40.6688
" />
<path d="M81.2981 40.6688
L81.3586 40.7897
" />
<path d="M81.3586 40.7897
L81.3586 41.0921
" />
<path d="M81.3586 41.0921
L81.2981 41.2131
" />
<path d="M81.2981 41.2131
L81.2376 41.2736
" />
<path d="M81.2376 41.2736
L81.1167 41.3340
" />
<path d="M81.1167 41.3340
L80.7538 41.3340
" />
<path d="M80.7538 41.3340
L80.6329 41.2736
" />
<path d="M80.6329 41.2736
L80.5724 41.2131
" />
<path d="M81.9028 41.3340
L81.9028 40.4874
" />
<path d="M81.9028 40.6083
L81.9633 40.5478
" />
<path d="M81.9633 40.5478
L82.0843 40.4874
" />
<path d="M82.0843 40.4874
L82.2657 40.4874
" />
<path d="M82.2657 40.4874
L82.3866 40.5478
" />
<path d="M82.3866 40.5478
L82.4471 40.6688
" />
<path d="M82.4471 40.6688
L82.4471 41.3340
" />
<path d="M82.4471 40.6688
L82.5076 40.5478
" />
<path d="M82.5076 40.5478
L82.6285 40.4874
" />
<path d="M82.6285 40.4874
L82.8100 40.4874
" />
<path d="M82.8100 40.4874
L82.9309 40.5478
" />
<path d="M82.9309 40.5478
L82.9914 40.6688
" />
<path d="M82.9914 40.6688
L82.9914 41.3340
" />
<path d="M83.5961 41.3340
L83.5961 40.4874
" />
<path d="M83.5961 40.6083
L83.6566 40.5478
" />
<path d="M83.6566 40.5478
L83.7776 40.4874
" />
<path d="M83.7776 40.4874
L83.9590 40.4874
" />
<path d="M83.9590 40.4874
L84.0799 40.5478
" />
<path d="M84.0799 40.5478
L84.1404 40.6688
" />
<path d="M84.1404 40.6688
L84.1404 41.3340
" />
<path d="M84.1404 40.6688
L84.2009 40.5478
" />
<path d="M84.2009 40.5478
L84.3218 40.4874
" />
<path d="M84.3218 40.4874
L84.5033 40.4874
" />
<path d="M84.5033 40.4874
L84.6242 40.5478
" />
<path d="M84.6242 40.5478
L84.6847 40.6688
" />
<path d="M84.6847 40.6688
L84.6847 41.3340
" />
</g><text x="46.9780" y="18.5298"
textLength="78.2968" font-size="1.6933" lengthAdjust="spacingAndGlyphs"
text-anchor="middle" opacity="0">http://www.allegromicro.com/~/media/Files/Datasheets/A4950-Datasheet.ashx</text>
<g class="stroked-text"><desc>http://www.allegromicro.com/~/media/Files/Datasheets/A4950-Datasheet.ashx</desc>
<path d="M8.2431 18.4740
L8.2431 17.2040
" />
<path d="M8.7874 18.4740
L8.7874 17.8088
" />
<path d="M8.7874 17.8088
L8.7269 17.6878
" />
<path d="M8.7269 17.6878
L8.6060 17.6274
" />
<path d="M8.6060 17.6274
L8.4246 17.6274
" />
<path d="M8.4246 17.6274
L8.3036 17.6878
" />
<path d="M8.3036 17.6878
L8.2431 17.7483
" />
<path d="M9.2107 17.6274
L9.6945 17.6274
" />
<path d="M9.3921 17.2040
L9.3921 18.2926
" />
<path d="M9.3921 18.2926
L9.4526 18.4136
" />
<path d="M9.4526 18.4136
L9.5736 18.4740
" />
<path d="M9.5736 18.4740
L9.6945 18.4740
" />
<path d="M9.9364 17.6274
L10.4202 17.6274
" />
<path d="M10.1178 17.2040
L10.1178 18.2926
" />
<path d="M10.1178 18.2926
L10.1783 18.4136
" />
<path d="M10.1783 18.4136
L10.2993 18.4740
" />
<path d="M10.2993 18.4740
L10.4202 18.4740
" />
<path d="M10.8435 17.6274
L10.8435 18.8974
" />
<path d="M10.8435 17.6878
L10.9645 17.6274
" />
<path d="M10.9645 17.6274
L11.2064 17.6274
" />
<path d="M11.2064 17.6274
L11.3273 17.6878
" />
<path d="M11.3273 17.6878
L11.3878 17.7483
" />
<path d="M11.3878 17.7483
L11.4483 17.8693
" />
<path d="M11.4483 17.8693
L11.4483 18.2321
" />
<path d="M11.4483 18.2321
L11.3878 18.3531
" />
<path d="M11.3878 18.3531
L11.3273 18.4136
" />
<path d="M11.3273 18.4136
L11.2064 18.4740
" />
<path d="M11.2064 18.4740
L10.9645 18.4740
" />
<path d="M10.9645 18.4740
L10.8435 18.4136
" />
<path d="M11.9925 18.3531
L12.0530 18.4136
" />
<path d="M12.0530 18.4136
L11.9925 18.4740
" />
<path d="M11.9925 18.4740
L11.9321 18.4136
" />
<path d="M11.9321 18.4136
L11.9925 18.3531
" />
<path d="M11.9925 18.3531
L11.9925 18.4740
" />
<path d="M11.9925 17.6878
L12.0530 17.7483
" />
<path d="M12.0530 17.7483
L11.9925 17.8088
" />
<path d="M11.9925 17.8088
L11.9321 17.7483
" />
<path d="M11.9321 17.7483
L11.9925 17.6878
" />
<path d="M11.9925 17.6878
L11.9925 17.8088
" />
<path d="M13.5045 17.1436
L12.4159 18.7764
" />
<path d="M14.8350 17.1436
L13.7464 18.7764
" />
<path d="M15.1374 17.6274
L15.3793 18.4740
" />
<path d="M15.3793 18.4740
L15.6212 17.8693
" />
<path d="M15.6212 17.8693
L15.8631 18.4740
" />
<path d="M15.8631 18.4740
L16.1050 17.6274
" />
<path d="M16.4679 17.6274
L16.7098 18.4740
" />
<path d="M16.7098 18.4740
L16.9517 17.8693
" />
<path d="M16.9517 17.8693
L17.1936 18.4740
" />
<path d="M17.1936 18.4740
L17.4355 17.6274
" />
<path d="M17.7984 17.6274
L18.0403 18.4740
" />
<path d="M18.0403 18.4740
L18.2822 17.8693
" />
<path d="M18.2822 17.8693
L18.5241 18.4740
" />
<path d="M18.5241 18.4740
L18.7660 17.6274
" />
<path d="M19.2498 18.3531
L19.3103 18.4136
" />
<path d="M19.3103 18.4136
L19.2498 18.4740
" />
<path d="M19.2498 18.4740
L19.1894 18.4136
" />
<path d="M19.1894 18.4136
L19.2498 18.3531
" />
<path d="M19.2498 18.3531
L19.2498 18.4740
" />
<path d="M20.3989 18.4740
L20.3989 17.8088
" />
<path d="M20.3989 17.8088
L20.3384 17.6878
" />
<path d="M20.3384 17.6878
L20.2175 17.6274
" />
<path d="M20.2175 17.6274
L19.9756 17.6274
" />
<path d="M19.9756 17.6274
L19.8546 17.6878
" />
<path d="M20.3989 18.4136
L20.2780 18.4740
" />
<path d="M20.2780 18.4740
L19.9756 18.4740
" />
<path d="M19.9756 18.4740
L19.8546 18.4136
" />
<path d="M19.8546 18.4136
L19.7942 18.2926
" />
<path d="M19.7942 18.2926
L19.7942 18.1716
" />
<path d="M19.7942 18.1716
L19.8546 18.0507
" />
<path d="M19.8546 18.0507
L19.9756 17.9902
" />
<path d="M19.9756 17.9902
L20.2780 17.9902
" />
<path d="M20.2780 17.9902
L20.3989 17.9297
" />
<path d="M21.1851 18.4740
L21.0641 18.4136
" />
<path d="M21.0641 18.4136
L21.0036 18.2926
" />
<path d="M21.0036 18.2926
L21.0036 17.2040
" />
<path d="M21.8503 18.4740
L21.7293 18.4136
" />
<path d="M21.7293 18.4136
L21.6688 18.2926
" />
<path d="M21.6688 18.2926
L21.6688 17.2040
" />
<path d="M22.8178 18.4136
L22.6969 18.4740
" />
<path d="M22.6969 18.4740
L22.4550 18.4740
" />
<path d="M22.4550 18.4740
L22.3340 18.4136
" />
<path d="M22.3340 18.4136
L22.2736 18.2926
" />
<path d="M22.2736 18.2926
L22.2736 17.8088
" />
<path d="M22.2736 17.8088
L22.3340 17.6878
" />
<path d="M22.3340 17.6878
L22.4550 17.6274
" />
<path d="M22.4550 17.6274
L22.6969 17.6274
" />
<path d="M22.6969 17.6274
L22.8178 17.6878
" />
<path d="M22.8178 17.6878
L22.8783 17.8088
" />
<path d="M22.8783 17.8088
L22.8783 17.9297
" />
<path d="M22.8783 17.9297
L22.2736 18.0507
" />
<path d="M23.9669 17.6274
L23.9669 18.6555
" />
<path d="M23.9669 18.6555
L23.9064 18.7764
" />
<path d="M23.9064 18.7764
L23.8460 18.8369
" />
<path d="M23.8460 18.8369
L23.7250 18.8974
" />
<path d="M23.7250 18.8974
L23.5436 18.8974
" />
<path d="M23.5436 18.8974
L23.4226 18.8369
" />
<path d="M23.9669 18.4136
L23.8460 18.4740
" />
<path d="M23.8460 18.4740
L23.6041 18.4740
" />
<path d="M23.6041 18.4740
L23.4831 18.4136
" />
<path d="M23.4831 18.4136
L23.4226 18.3531
" />
<path d="M23.4226 18.3531
L23.3622 18.2321
" />
<path d="M23.3622 18.2321
L23.3622 17.8693
" />
<path d="M23.3622 17.8693
L23.4226 17.7483
" />
<path d="M23.4226 17.7483
L23.4831 17.6878
" />
<path d="M23.4831 17.6878
L23.6041 17.6274
" />
<path d="M23.6041 17.6274
L23.8460 17.6274
" />
<path d="M23.8460 17.6274
L23.9669 17.6878
" />
<path d="M24.5716 18.4740
L24.5716 17.6274
" />
<path d="M24.5716 17.8693
L24.6321 17.7483
" />
<path d="M24.6321 17.7483
L24.6926 17.6878
" />
<path d="M24.6926 17.6878
L24.8135 17.6274
" />
<path d="M24.8135 17.6274
L24.9345 17.6274
" />
<path d="M25.5393 18.4740
L25.4183 18.4136
" />
<path d="M25.4183 18.4136
L25.3578 18.3531
" />
<path d="M25.3578 18.3531
L25.2974 18.2321
" />
<path d="M25.2974 18.2321
L25.2974 17.8693
" />
<path d="M25.2974 17.8693
L25.3578 17.7483
" />
<path d="M25.3578 17.7483
L25.4183 17.6878
" />
<path d="M25.4183 17.6878
L25.5393 17.6274
" />
<path d="M25.5393 17.6274
L25.7207 17.6274
" />
<path d="M25.7207 17.6274
L25.8416 17.6878
" />
<path d="M25.8416 17.6878
L25.9021 17.7483
" />
<path d="M25.9021 17.7483
L25.9626 17.8693
" />
<path d="M25.9626 17.8693
L25.9626 18.2321
" />
<path d="M25.9626 18.2321
L25.9021 18.3531
" />
<path d="M25.9021 18.3531
L25.8416 18.4136
" />
<path d="M25.8416 18.4136
L25.7207 18.4740
" />
<path d="M25.7207 18.4740
L25.5393 18.4740
" />
<path d="M26.5068 18.4740
L26.5068 17.6274
" />
<path d="M26.5068 17.7483
L26.5673 17.6878
" />
<path d="M26.5673 17.6878
L26.6883 17.6274
" />
<path d="M26.6883 17.6274
L26.8697 17.6274
" />
<path d="M26.8697 17.6274
L26.9906 17.6878
" />
<path d="M26.9906 17.6878
L27.0511 17.8088
" />
<path d="M27.0511 17.8088
L27.0511 18.4740
" />
<path d="M27.0511 17.8088
L27.1116 17.6878
" />
<path d="M27.1116 17.6878
L27.2325 17.6274
" />
<path d="M27.2325 17.6274
L27.4140 17.6274
" />
<path d="M27.4140 17.6274
L27.5349 17.6878
" />
<path d="M27.5349 17.6878
L27.5954 17.8088
" />
<path d="M27.5954 17.8088
L27.5954 18.4740
" />
<path d="M28.2001 18.4740
L28.2001 17.6274
" />
<path d="M28.2001 17.2040
L28.1397 17.2645
" />
<path d="M28.1397 17.2645
L28.2001 17.3250
" />
<path d="M28.2001 17.3250
L28.2606 17.2645
" />
<path d="M28.2606 17.2645
L28.2001 17.2040
" />
<path d="M28.2001 17.2040
L28.2001 17.3250
" />
<path d="M29.3492 18.4136
L29.2283 18.4740
" />
<path d="M29.2283 18.4740
L28.9864 18.4740
" />
<path d="M28.9864 18.4740
L28.8654 18.4136
" />
<path d="M28.8654 18.4136
L28.8049 18.3531
" />
<path d="M28.8049 18.3531
L28.7445 18.2321
" />
<path d="M28.7445 18.2321
L28.7445 17.8693
" />
<path d="M28.7445 17.8693
L28.8049 17.7483
" />
<path d="M28.8049 17.7483
L28.8654 17.6878
" />
<path d="M28.8654 17.6878
L28.9864 17.6274
" />
<path d="M28.9864 17.6274
L29.2283 17.6274
" />
<path d="M29.2283 17.6274
L29.3492 17.6878
" />
<path d="M29.8935 18.4740
L29.8935 17.6274
" />
<path d="M29.8935 17.8693
L29.9540 17.7483
" />
<path d="M29.9540 17.7483
L30.0145 17.6878
" />
<path d="M30.0145 17.6878
L30.1354 17.6274
" />
<path d="M30.1354 17.6274
L30.2564 17.6274
" />
<path d="M30.8612 18.4740
L30.7402 18.4136
" />
<path d="M30.7402 18.4136
L30.6797 18.3531
" />
<path d="M30.6797 18.3531
L30.6193 18.2321
" />
<path d="M30.6193 18.2321
L30.6193 17.8693
" />
<path d="M30.6193 17.8693
L30.6797 17.7483
" />
<path d="M30.6797 17.7483
L30.7402 17.6878
" />
<path d="M30.7402 17.6878
L30.8612 17.6274
" />
<path d="M30.8612 17.6274
L31.0426 17.6274
" />
<path d="M31.0426 17.6274
L31.1635 17.6878
" />
<path d="M31.1635 17.6878
L31.2240 17.7483
" />
<path d="M31.2240 17.7483
L31.2845 17.8693
" />
<path d="M31.2845 17.8693
L31.2845 18.2321
" />
<path d="M31.2845 18.2321
L31.2240 18.3531
" />
<path d="M31.2240 18.3531
L31.1635 18.4136
" />
<path d="M31.1635 18.4136
L31.0426 18.4740
" />
<path d="M31.0426 18.4740
L30.8612 18.4740
" />
<path d="M31.8287 18.3531
L31.8892 18.4136
" />
<path d="M31.8892 18.4136
L31.8287 18.4740
" />
<path d="M31.8287 18.4740
L31.7683 18.4136
" />
<path d="M31.7683 18.4136
L31.8287 18.3531
" />
<path d="M31.8287 18.3531
L31.8287 18.4740
" />
<path d="M32.9778 18.4136
L32.8569 18.4740
" />
<path d="M32.8569 18.4740
L32.6150 18.4740
" />
<path d="M32.6150 18.4740
L32.4940 18.4136
" />
<path d="M32.4940 18.4136
L32.4335 18.3531
" />
<path d="M32.4335 18.3531
L32.3731 18.2321
" />
<path d="M32.3731 18.2321
L32.3731 17.8693
" />
<path d="M32.3731 17.8693
L32.4335 17.7483
" />
<path d="M32.4335 17.7483
L32.4940 17.6878
" />
<path d="M32.4940 17.6878
L32.6150 17.6274
" />
<path d="M32.6150 17.6274
L32.8569 17.6274
" />
<path d="M32.8569 17.6274
L32.9778 17.6878
" />
<path d="M33.7036 18.4740
L33.5826 18.4136
" />
<path d="M33.5826 18.4136
L33.5221 18.3531
" />
<path d="M33.5221 18.3531
L33.4617 18.2321
" />
<path d="M33.4617 18.2321
L33.4617 17.8693
" />
<path d="M33.4617 17.8693
L33.5221 17.7483
" />
<path d="M33.5221 17.7483
L33.5826 17.6878
" />
<path d="M33.5826 17.6878
L33.7036 17.6274
" />
<path d="M33.7036 17.6274
L33.8850 17.6274
" />
<path d="M33.8850 17.6274
L34.0059 17.6878
" />
<path d="M34.0059 17.6878
L34.0664 17.7483
" />
<path d="M34.0664 17.7483
L34.1269 17.8693
" />
<path d="M34.1269 17.8693
L34.1269 18.2321
" />
<path d="M34.1269 18.2321
L34.0664 18.3531
" />
<path d="M34.0664 18.3531
L34.0059 18.4136
" />
<path d="M34.0059 18.4136
L33.8850 18.4740
" />
<path d="M33.8850 18.4740
L33.7036 18.4740
" />
<path d="M34.6711 18.4740
L34.6711 17.6274
" />
<path d="M34.6711 17.7483
L34.7316 17.6878
" />
<path d="M34.7316 17.6878
L34.8526 17.6274
" />
<path d="M34.8526 17.6274
L35.0340 17.6274
" />
<path d="M35.0340 17.6274
L35.1549 17.6878
" />
<path d="M35.1549 17.6878
L35.2154 17.8088
" />
<path d="M35.2154 17.8088
L35.2154 18.4740
" />
<path d="M35.2154 17.8088
L35.2759 17.6878
" />
<path d="M35.2759 17.6878
L35.3968 17.6274
" />
<path d="M35.3968 17.6274
L35.5783 17.6274
" />
<path d="M35.5783 17.6274
L35.6992 17.6878
" />
<path d="M35.6992 17.6878
L35.7597 17.8088
" />
<path d="M35.7597 17.8088
L35.7597 18.4740
" />
<path d="M37.2716 17.1436
L36.1830 18.7764
" />
<path d="M37.5135 17.9902
L37.5740 17.9297
" />
<path d="M37.5740 17.9297
L37.6949 17.8693
" />
<path d="M37.6949 17.8693
L37.9368 17.9902
" />
<path d="M37.9368 17.9902
L38.0578 17.9297
" />
<path d="M38.0578 17.9297
L38.1183 17.8693
" />
<path d="M39.5092 17.1436
L38.4206 18.7764
" />
<path d="M39.9325 18.4740
L39.9325 17.6274
" />
<path d="M39.9325 17.7483
L39.9930 17.6878
" />
<path d="M39.9930 17.6878
L40.1140 17.6274
" />
<path d="M40.1140 17.6274
L40.2954 17.6274
" />
<path d="M40.2954 17.6274
L40.4163 17.6878
" />
<path d="M40.4163 17.6878
L40.4768 17.8088
" />
<path d="M40.4768 17.8088
L40.4768 18.4740
" />
<path d="M40.4768 17.8088
L40.5373 17.6878
" />
<path d="M40.5373 17.6878
L40.6582 17.6274
" />
<path d="M40.6582 17.6274
L40.8397 17.6274
" />
<path d="M40.8397 17.6274
L40.9606 17.6878
" />
<path d="M40.9606 17.6878
L41.0211 17.8088
" />
<path d="M41.0211 17.8088
L41.0211 18.4740
" />
<path d="M42.1096 18.4136
L41.9887 18.4740
" />
<path d="M41.9887 18.4740
L41.7468 18.4740
" />
<path d="M41.7468 18.4740
L41.6258 18.4136
" />
<path d="M41.6258 18.4136
L41.5654 18.2926
" />
<path d="M41.5654 18.2926
L41.5654 17.8088
" />
<path d="M41.5654 17.8088
L41.6258 17.6878
" />
<path d="M41.6258 17.6878
L41.7468 17.6274
" />
<path d="M41.7468 17.6274
L41.9887 17.6274
" />
<path d="M41.9887 17.6274
L42.1096 17.6878
" />
<path d="M42.1096 17.6878
L42.1701 17.8088
" />
<path d="M42.1701 17.8088
L42.1701 17.9297
" />
<path d="M42.1701 17.9297
L41.5654 18.0507
" />
<path d="M43.2587 18.4740
L43.2587 17.2040
" />
<path d="M43.2587 18.4136
L43.1378 18.4740
" />
<path d="M43.1378 18.4740
L42.8959 18.4740
" />
<path d="M42.8959 18.4740
L42.7749 18.4136
" />
<path d="M42.7749 18.4136
L42.7144 18.3531
" />
<path d="M42.7144 18.3531
L42.6540 18.2321
" />
<path d="M42.6540 18.2321
L42.6540 17.8693
" />
<path d="M42.6540 17.8693
L42.7144 17.7483
" />
<path d="M42.7144 17.7483
L42.7749 17.6878
" />
<path d="M42.7749 17.6878
L42.8959 17.6274
" />
<path d="M42.8959 17.6274
L43.1378 17.6274
" />
<path d="M43.1378 17.6274
L43.2587 17.6878
" />
<path d="M43.8634 18.4740
L43.8634 17.6274
" />
<path d="M43.8634 17.2040
L43.8030 17.2645
" />
<path d="M43.8030 17.2645
L43.8634 17.3250
" />
<path d="M43.8634 17.3250
L43.9239 17.2645
" />
<path d="M43.9239 17.2645
L43.8634 17.2040
" />
<path d="M43.8634 17.2040
L43.8634 17.3250
" />
<path d="M45.0125 18.4740
L45.0125 17.8088
" />
<path d="M45.0125 17.8088
L44.9520 17.6878
" />
<path d="M44.9520 17.6878
L44.8311 17.6274
" />
<path d="M44.8311 17.6274
L44.5892 17.6274
" />
<path d="M44.5892 17.6274
L44.4682 17.6878
" />
<path d="M45.0125 18.4136
L44.8916 18.4740
" />
<path d="M44.8916 18.4740
L44.5892 18.4740
" />
<path d="M44.5892 18.4740
L44.4682 18.4136
" />
<path d="M44.4682 18.4136
L44.4078 18.2926
" />
<path d="M44.4078 18.2926
L44.4078 18.1716
" />
<path d="M44.4078 18.1716
L44.4682 18.0507
" />
<path d="M44.4682 18.0507
L44.5892 17.9902
" />
<path d="M44.5892 17.9902
L44.8916 17.9902
" />
<path d="M44.8916 17.9902
L45.0125 17.9297
" />
<path d="M46.5244 17.1436
L45.4358 18.7764
" />
<path d="M47.3711 17.8088
L46.9477 17.8088
" />
<path d="M46.9477 18.4740
L46.9477 17.2040
" />
<path d="M46.9477 17.2040
L47.5525 17.2040
" />
<path d="M48.0363 18.4740
L48.0363 17.6274
" />
<path d="M48.0363 17.2040
L47.9759 17.2645
" />
<path d="M47.9759 17.2645
L48.0363 17.3250
" />
<path d="M48.0363 17.3250
L48.0968 17.2645
" />
<path d="M48.0968 17.2645
L48.0363 17.2040
" />
<path d="M48.0363 17.2040
L48.0363 17.3250
" />
<path d="M48.8226 18.4740
L48.7016 18.4136
" />
<path d="M48.7016 18.4136
L48.6411 18.2926
" />
<path d="M48.6411 18.2926
L48.6411 17.2040
" />
<path d="M49.7901 18.4136
L49.6692 18.4740
" />
<path d="M49.6692 18.4740
L49.4273 18.4740
" />
<path d="M49.4273 18.4740
L49.3063 18.4136
" />
<path d="M49.3063 18.4136
L49.2459 18.2926
" />
<path d="M49.2459 18.2926
L49.2459 17.8088
" />
<path d="M49.2459 17.8088
L49.3063 17.6878
" />
<path d="M49.3063 17.6878
L49.4273 17.6274
" />
<path d="M49.4273 17.6274
L49.6692 17.6274
" />
<path d="M49.6692 17.6274
L49.7901 17.6878
" />
<path d="M49.7901 17.6878
L49.8506 17.8088
" />
<path d="M49.8506 17.8088
L49.8506 17.9297
" />
<path d="M49.8506 17.9297
L49.2459 18.0507
" />
<path d="M50.3345 18.4136
L50.4554 18.4740
" />
<path d="M50.4554 18.4740
L50.6973 18.4740
" />
<path d="M50.6973 18.4740
L50.8183 18.4136
" />
<path d="M50.8183 18.4136
L50.8787 18.2926
" />
<path d="M50.8787 18.2926
L50.8787 18.2321
" />
<path d="M50.8787 18.2321
L50.8183 18.1112
" />
<path d="M50.8183 18.1112
L50.6973 18.0507
" />
<path d="M50.6973 18.0507
L50.5159 18.0507
" />
<path d="M50.5159 18.0507
L50.3949 17.9902
" />
<path d="M50.3949 17.9902
L50.3345 17.8693
" />
<path d="M50.3345 17.8693
L50.3345 17.8088
" />
<path d="M50.3345 17.8088
L50.3949 17.6878
" />
<path d="M50.3949 17.6878
L50.5159 17.6274
" />
<path d="M50.5159 17.6274
L50.6973 17.6274
" />
<path d="M50.6973 17.6274
L50.8183 17.6878
" />
<path d="M52.3302 17.1436
L51.2416 18.7764
" />
<path d="M52.7535 18.4740
L52.7535 17.2040
" />
<path d="M52.7535 17.2040
L53.0559 17.2040
" />
<path d="M53.0559 17.2040
L53.2373 17.2645
" />
<path d="M53.2373 17.2645
L53.3583 17.3855
" />
<path d="M53.3583 17.3855
L53.4188 17.5064
" />
<path d="M53.4188 17.5064
L53.4792 17.7483
" />
<path d="M53.4792 17.7483
L53.4792 17.9297
" />
<path d="M53.4792 17.9297
L53.4188 18.1716
" />
<path d="M53.4188 18.1716
L53.3583 18.2926
" />
<path d="M53.3583 18.2926
L53.2373 18.4136
" />
<path d="M53.2373 18.4136
L53.0559 18.4740
" />
<path d="M53.0559 18.4740
L52.7535 18.4740
" />
<path d="M54.5678 18.4740
L54.5678 17.8088
" />
<path d="M54.5678 17.8088
L54.5073 17.6878
" />
<path d="M54.5073 17.6878
L54.3864 17.6274
" />
<path d="M54.3864 17.6274
L54.1445 17.6274
" />
<path d="M54.1445 17.6274
L54.0235 17.6878
" />
<path d="M54.5678 18.4136
L54.4469 18.4740
" />
<path d="M54.4469 18.4740
L54.1445 18.4740
" />
<path d="M54.1445 18.4740
L54.0235 18.4136
" />
<path d="M54.0235 18.4136
L53.9631 18.2926
" />
<path d="M53.9631 18.2926
L53.9631 18.1716
" />
<path d="M53.9631 18.1716
L54.0235 18.0507
" />
<path d="M54.0235 18.0507
L54.1445 17.9902
" />
<path d="M54.1445 17.9902
L54.4469 17.9902
" />
<path d="M54.4469 17.9902
L54.5678 17.9297
" />
<path d="M54.9911 17.6274
L55.4749 17.6274
" />
<path d="M55.1725 17.2040
L55.1725 18.2926
" />
<path d="M55.1725 18.2926
L55.2330 18.4136
" />
<path d="M55.2330 18.4136
L55.3540 18.4740
" />
<path d="M55.3540 18.4740
L55.4749 18.4740
" />
<path d="M56.4425 18.4740
L56.4425 17.8088
" />
<path d="M56.4425 17.8088
L56.3820 17.6878
" />
<path d="M56.3820 17.6878
L56.2611 17.6274
" />
<path d="M56.2611 17.6274
L56.0192 17.6274
" />
<path d="M56.0192 17.6274
L55.8982 17.6878
" />
<path d="M56.4425 18.4136
L56.3216 18.4740
" />
<path d="M56.3216 18.4740
L56.0192 18.4740
" />
<path d="M56.0192 18.4740
L55.8982 18.4136
" />
<path d="M55.8982 18.4136
L55.8378 18.2926
" />
<path d="M55.8378 18.2926
L55.8378 18.1716
" />
<path d="M55.8378 18.1716
L55.8982 18.0507
" />
<path d="M55.8982 18.0507
L56.0192 17.9902
" />
<path d="M56.0192 17.9902
L56.3216 17.9902
" />
<path d="M56.3216 17.9902
L56.4425 17.9297
" />
<path d="M56.9868 18.4136
L57.1077 18.4740
" />
<path d="M57.1077 18.4740
L57.3496 18.4740
" />
<path d="M57.3496 18.4740
L57.4706 18.4136
" />
<path d="M57.4706 18.4136
L57.5310 18.2926
" />
<path d="M57.5310 18.2926
L57.5310 18.2321
" />
<path d="M57.5310 18.2321
L57.4706 18.1112
" />
<path d="M57.4706 18.1112
L57.3496 18.0507
" />
<path d="M57.3496 18.0507
L57.1682 18.0507
" />
<path d="M57.1682 18.0507
L57.0472 17.9902
" />
<path d="M57.0472 17.9902
L56.9868 17.8693
" />
<path d="M56.9868 17.8693
L56.9868 17.8088
" />
<path d="M56.9868 17.8088
L57.0472 17.6878
" />
<path d="M57.0472 17.6878
L57.1682 17.6274
" />
<path d="M57.1682 17.6274
L57.3496 17.6274
" />
<path d="M57.3496 17.6274
L57.4706 17.6878
" />
<path d="M58.0753 18.4740
L58.0753 17.2040
" />
<path d="M58.6196 18.4740
L58.6196 17.8088
" />
<path d="M58.6196 17.8088
L58.5591 17.6878
" />
<path d="M58.5591 17.6878
L58.4382 17.6274
" />
<path d="M58.4382 17.6274
L58.2568 17.6274
" />
<path d="M58.2568 17.6274
L58.1358 17.6878
" />
<path d="M58.1358 17.6878
L58.0753 17.7483
" />
<path d="M59.7081 18.4136
L59.5872 18.4740
" />
<path d="M59.5872 18.4740
L59.3453 18.4740
" />
<path d="M59.3453 18.4740
L59.2243 18.4136
" />
<path d="M59.2243 18.4136
L59.1639 18.2926
" />
<path d="M59.1639 18.2926
L59.1639 17.8088
" />
<path d="M59.1639 17.8088
L59.2243 17.6878
" />
<path d="M59.2243 17.6878
L59.3453 17.6274
" />
<path d="M59.3453 17.6274
L59.5872 17.6274
" />
<path d="M59.5872 17.6274
L59.7081 17.6878
" />
<path d="M59.7081 17.6878
L59.7686 17.8088
" />
<path d="M59.7686 17.8088
L59.7686 17.9297
" />
<path d="M59.7686 17.9297
L59.1639 18.0507
" />
<path d="M60.7967 18.4136
L60.6758 18.4740
" />
<path d="M60.6758 18.4740
L60.4339 18.4740
" />
<path d="M60.4339 18.4740
L60.3129 18.4136
" />
<path d="M60.3129 18.4136
L60.2525 18.2926
" />
<path d="M60.2525 18.2926
L60.2525 17.8088
" />
<path d="M60.2525 17.8088
L60.3129 17.6878
" />
<path d="M60.3129 17.6878
L60.4339 17.6274
" />
<path d="M60.4339 17.6274
L60.6758 17.6274
" />
<path d="M60.6758 17.6274
L60.7967 17.6878
" />
<path d="M60.7967 17.6878
L60.8572 17.8088
" />
<path d="M60.8572 17.8088
L60.8572 17.9297
" />
<path d="M60.8572 17.9297
L60.2525 18.0507
" />
<path d="M61.2201 17.6274
L61.7039 17.6274
" />
<path d="M61.4015 17.2040
L61.4015 18.2926
" />
<path d="M61.4015 18.2926
L61.4620 18.4136
" />
<path d="M61.4620 18.4136
L61.5830 18.4740
" />
<path d="M61.5830 18.4740
L61.7039 18.4740
" />
<path d="M62.0668 18.4136
L62.1877 18.4740
" />
<path d="M62.1877 18.4740
L62.4296 18.4740
" />
<path d="M62.4296 18.4740
L62.5506 18.4136
" />
<path d="M62.5506 18.4136
L62.6110 18.2926
" />
<path d="M62.6110 18.2926
L62.6110 18.2321
" />
<path d="M62.6110 18.2321
L62.5506 18.1112
" />
<path d="M62.5506 18.1112
L62.4296 18.0507
" />
<path d="M62.4296 18.0507
L62.2482 18.0507
" />
<path d="M62.2482 18.0507
L62.1272 17.9902
" />
<path d="M62.1272 17.9902
L62.0668 17.8693
" />
<path d="M62.0668 17.8693
L62.0668 17.8088
" />
<path d="M62.0668 17.8088
L62.1272 17.6878
" />
<path d="M62.1272 17.6878
L62.2482 17.6274
" />
<path d="M62.2482 17.6274
L62.4296 17.6274
" />
<path d="M62.4296 17.6274
L62.5506 17.6878
" />
<path d="M64.0625 17.1436
L62.9739 18.7764
" />
<path d="M64.4254 18.1112
L65.0301 18.1112
" />
<path d="M64.3044 18.4740
L64.7277 17.2040
" />
<path d="M64.7277 17.2040
L65.1511 18.4740
" />
<path d="M66.1187 17.6274
L66.1187 18.4740
" />
<path d="M65.8163 17.1436
L65.5140 18.0507
" />
<path d="M65.5140 18.0507
L66.3001 18.0507
" />
<path d="M66.8444 18.4740
L67.0863 18.4740
" />
<path d="M67.0863 18.4740
L67.2073 18.4136
" />
<path d="M67.2073 18.4136
L67.2677 18.3531
" />
<path d="M67.2677 18.3531
L67.3887 18.1716
" />
<path d="M67.3887 18.1716
L67.4492 17.9297
" />
<path d="M67.4492 17.9297
L67.4492 17.4459
" />
<path d="M67.4492 17.4459
L67.3887 17.3250
" />
<path d="M67.3887 17.3250
L67.3282 17.2645
" />
<path d="M67.3282 17.2645
L67.2073 17.2040
" />
<path d="M67.2073 17.2040
L66.9654 17.2040
" />
<path d="M66.9654 17.2040
L66.8444 17.2645
" />
<path d="M66.8444 17.2645
L66.7839 17.3250
" />
<path d="M66.7839 17.3250
L66.7235 17.4459
" />
<path d="M66.7235 17.4459
L66.7235 17.7483
" />
<path d="M66.7235 17.7483
L66.7839 17.8693
" />
<path d="M66.7839 17.8693
L66.8444 17.9297
" />
<path d="M66.8444 17.9297
L66.9654 17.9902
" />
<path d="M66.9654 17.9902
L67.2073 17.9902
" />
<path d="M67.2073 17.9902
L67.3282 17.9297
" />
<path d="M67.3282 17.9297
L67.3887 17.8693
" />
<path d="M67.3887 17.8693
L67.4492 17.7483
" />
<path d="M68.5982 17.2040
L67.9934 17.2040
" />
<path d="M67.9934 17.2040
L67.9330 17.8088
" />
<path d="M67.9330 17.8088
L67.9934 17.7483
" />
<path d="M67.9934 17.7483
L68.1144 17.6878
" />
<path d="M68.1144 17.6878
L68.4168 17.6878
" />
<path d="M68.4168 17.6878
L68.5377 17.7483
" />
<path d="M68.5377 17.7483
L68.5982 17.8088
" />
<path d="M68.5982 17.8088
L68.6587 17.9297
" />
<path d="M68.6587 17.9297
L68.6587 18.2321
" />
<path d="M68.6587 18.2321
L68.5982 18.3531
" />
<path d="M68.5982 18.3531
L68.5377 18.4136
" />
<path d="M68.5377 18.4136
L68.4168 18.4740
" />
<path d="M68.4168 18.4740
L68.1144 18.4740
" />
<path d="M68.1144 18.4740
L67.9934 18.4136
" />
<path d="M67.9934 18.4136
L67.9330 18.3531
" />
<path d="M69.4448 17.2040
L69.5658 17.2040
" />
<path d="M69.5658 17.2040
L69.6867 17.2645
" />
<path d="M69.6867 17.2645
L69.7472 17.3250
" />
<path d="M69.7472 17.3250
L69.8077 17.4459
" />
<path d="M69.8077 17.4459
L69.8682 17.6878
" />
<path d="M69.8682 17.6878
L69.8682 17.9902
" />
<path d="M69.8682 17.9902
L69.8077 18.2321
" />
<path d="M69.8077 18.2321
L69.7472 18.3531
" />
<path d="M69.7472 18.3531
L69.6867 18.4136
" />
<path d="M69.6867 18.4136
L69.5658 18.4740
" />
<path d="M69.5658 18.4740
L69.4448 18.4740
" />
<path d="M69.4448 18.4740
L69.3239 18.4136
" />
<path d="M69.3239 18.4136
L69.2634 18.3531
" />
<path d="M69.2634 18.3531
L69.2029 18.2321
" />
<path d="M69.2029 18.2321
L69.1425 17.9902
" />
<path d="M69.1425 17.9902
L69.1425 17.6878
" />
<path d="M69.1425 17.6878
L69.2029 17.4459
" />
<path d="M69.2029 17.4459
L69.2634 17.3250
" />
<path d="M69.2634 17.3250
L69.3239 17.2645
" />
<path d="M69.3239 17.2645
L69.4448 17.2040
" />
<path d="M70.4124 17.9902
L71.3801 17.9902
" />
<path d="M71.9848 18.4740
L71.9848 17.2040
" />
<path d="M71.9848 17.2040
L72.2872 17.2040
" />
<path d="M72.2872 17.2040
L72.4686 17.2645
" />
<path d="M72.4686 17.2645
L72.5896 17.3855
" />
<path d="M72.5896 17.3855
L72.6501 17.5064
" />
<path d="M72.6501 17.5064
L72.7105 17.7483
" />
<path d="M72.7105 17.7483
L72.7105 17.9297
" />
<path d="M72.7105 17.9297
L72.6501 18.1716
" />
<path d="M72.6501 18.1716
L72.5896 18.2926
" />
<path d="M72.5896 18.2926
L72.4686 18.4136
" />
<path d="M72.4686 18.4136
L72.2872 18.4740
" />
<path d="M72.2872 18.4740
L71.9848 18.4740
" />
<path d="M73.7991 18.4740
L73.7991 17.8088
" />
<path d="M73.7991 17.8088
L73.7386 17.6878
" />
<path d="M73.7386 17.6878
L73.6177 17.6274
" />
<path d="M73.6177 17.6274
L73.3758 17.6274
" />
<path d="M73.3758 17.6274
L73.2548 17.6878
" />
<path d="M73.7991 18.4136
L73.6782 18.4740
" />
<path d="M73.6782 18.4740
L73.3758 18.4740
" />
<path d="M73.3758 18.4740
L73.2548 18.4136
" />
<path d="M73.2548 18.4136
L73.1944 18.2926
" />
<path d="M73.1944 18.2926
L73.1944 18.1716
" />
<path d="M73.1944 18.1716
L73.2548 18.0507
" />
<path d="M73.2548 18.0507
L73.3758 17.9902
" />
<path d="M73.3758 17.9902
L73.6782 17.9902
" />
<path d="M73.6782 17.9902
L73.7991 17.9297
" />
<path d="M74.2224 17.6274
L74.7062 17.6274
" />
<path d="M74.4038 17.2040
L74.4038 18.2926
" />
<path d="M74.4038 18.2926
L74.4643 18.4136
" />
<path d="M74.4643 18.4136
L74.5853 18.4740
" />
<path d="M74.5853 18.4740
L74.7062 18.4740
" />
<path d="M75.6738 18.4740
L75.6738 17.8088
" />
<path d="M75.6738 17.8088
L75.6133 17.6878
" />
<path d="M75.6133 17.6878
L75.4924 17.6274
" />
<path d="M75.4924 17.6274
L75.2505 17.6274
" />
<path d="M75.2505 17.6274
L75.1295 17.6878
" />
<path d="M75.6738 18.4136
L75.5529 18.4740
" />
<path d="M75.5529 18.4740
L75.2505 18.4740
" />
<path d="M75.2505 18.4740
L75.1295 18.4136
" />
<path d="M75.1295 18.4136
L75.0691 18.2926
" />
<path d="M75.0691 18.2926
L75.0691 18.1716
" />
<path d="M75.0691 18.1716
L75.1295 18.0507
" />
<path d="M75.1295 18.0507
L75.2505 17.9902
" />
<path d="M75.2505 17.9902
L75.5529 17.9902
" />
<path d="M75.5529 17.9902
L75.6738 17.9297
" />
<path d="M76.2181 18.4136
L76.3390 18.4740
" />
<path d="M76.3390 18.4740
L76.5809 18.4740
" />
<path d="M76.5809 18.4740
L76.7019 18.4136
" />
<path d="M76.7019 18.4136
L76.7623 18.2926
" />
<path d="M76.7623 18.2926
L76.7623 18.2321
" />
<path d="M76.7623 18.2321
L76.7019 18.1112
" />
<path d="M76.7019 18.1112
L76.5809 18.0507
" />
<path d="M76.5809 18.0507
L76.3995 18.0507
" />
<path d="M76.3995 18.0507
L76.2785 17.9902
" />
<path d="M76.2785 17.9902
L76.2181 17.8693
" />
<path d="M76.2181 17.8693
L76.2181 17.8088
" />
<path d="M76.2181 17.8088
L76.2785 17.6878
" />
<path d="M76.2785 17.6878
L76.3995 17.6274
" />
<path d="M76.3995 17.6274
L76.5809 17.6274
" />
<path d="M76.5809 17.6274
L76.7019 17.6878
" />
<path d="M77.3066 18.4740
L77.3066 17.2040
" />
<path d="M77.8509 18.4740
L77.8509 17.8088
" />
<path d="M77.8509 17.8088
L77.7904 17.6878
" />
<path d="M77.7904 17.6878
L77.6695 17.6274
" />
<path d="M77.6695 17.6274
L77.4881 17.6274
" />
<path d="M77.4881 17.6274
L77.3671 17.6878
" />
<path d="M77.3671 17.6878
L77.3066 17.7483
" />
<path d="M78.9394 18.4136
L78.8185 18.4740
" />
<path d="M78.8185 18.4740
L78.5766 18.4740
" />
<path d="M78.5766 18.4740
L78.4556 18.4136
" />
<path d="M78.4556 18.4136
L78.3952 18.2926
" />
<path d="M78.3952 18.2926
L78.3952 17.8088
" />
<path d="M78.3952 17.8088
L78.4556 17.6878
" />
<path d="M78.4556 17.6878
L78.5766 17.6274
" />
<path d="M78.5766 17.6274
L78.8185 17.6274
" />
<path d="M78.8185 17.6274
L78.9394 17.6878
" />
<path d="M78.9394 17.6878
L78.9999 17.8088
" />
<path d="M78.9999 17.8088
L78.9999 17.9297
" />
<path d="M78.9999 17.9297
L78.3952 18.0507
" />
<path d="M80.0280 18.4136
L79.9071 18.4740
" />
<path d="M79.9071 18.4740
L79.6652 18.4740
" />
<path d="M79.6652 18.4740
L79.5442 18.4136
" />
<path d="M79.5442 18.4136
L79.4838 18.2926
" />
<path d="M79.4838 18.2926
L79.4838 17.8088
" />
<path d="M79.4838 17.8088
L79.5442 17.6878
" />
<path d="M79.5442 17.6878
L79.6652 17.6274
" />
<path d="M79.6652 17.6274
L79.9071 17.6274
" />
<path d="M79.9071 17.6274
L80.0280 17.6878
" />
<path d="M80.0280 17.6878
L80.0885 17.8088
" />
<path d="M80.0885 17.8088
L80.0885 17.9297
" />
<path d="M80.0885 17.9297
L79.4838 18.0507
" />
<path d="M80.4514 17.6274
L80.9352 17.6274
" />
<path d="M80.6328 17.2040
L80.6328 18.2926
" />
<path d="M80.6328 18.2926
L80.6933 18.4136
" />
<path d="M80.6933 18.4136
L80.8143 18.4740
" />
<path d="M80.8143 18.4740
L80.9352 18.4740
" />
<path d="M81.3585 18.3531
L81.4190 18.4136
" />
<path d="M81.4190 18.4136
L81.3585 18.4740
" />
<path d="M81.3585 18.4740
L81.2981 18.4136
" />
<path d="M81.2981 18.4136
L81.3585 18.3531
" />
<path d="M81.3585 18.3531
L81.3585 18.4740
" />
<path d="M82.5076 18.4740
L82.5076 17.8088
" />
<path d="M82.5076 17.8088
L82.4471 17.6878
" />
<path d="M82.4471 17.6878
L82.3262 17.6274
" />
<path d="M82.3262 17.6274
L82.0843 17.6274
" />
<path d="M82.0843 17.6274
L81.9633 17.6878
" />
<path d="M82.5076 18.4136
L82.3867 18.4740
" />
<path d="M82.3867 18.4740
L82.0843 18.4740
" />
<path d="M82.0843 18.4740
L81.9633 18.4136
" />
<path d="M81.9633 18.4136
L81.9029 18.2926
" />
<path d="M81.9029 18.2926
L81.9029 18.1716
" />
<path d="M81.9029 18.1716
L81.9633 18.0507
" />
<path d="M81.9633 18.0507
L82.0843 17.9902
" />
<path d="M82.0843 17.9902
L82.3867 17.9902
" />
<path d="M82.3867 17.9902
L82.5076 17.9297
" />
<path d="M83.0519 18.4136
L83.1728 18.4740
" />
<path d="M83.1728 18.4740
L83.4147 18.4740
" />
<path d="M83.4147 18.4740
L83.5357 18.4136
" />
<path d="M83.5357 18.4136
L83.5961 18.2926
" />
<path d="M83.5961 18.2926
L83.5961 18.2321
" />
<path d="M83.5961 18.2321
L83.5357 18.1112
" />
<path d="M83.5357 18.1112
L83.4147 18.0507
" />
<path d="M83.4147 18.0507
L83.2333 18.0507
" />
<path d="M83.2333 18.0507
L83.1123 17.9902
" />
<path d="M83.1123 17.9902
L83.0519 17.8693
" />
<path d="M83.0519 17.8693
L83.0519 17.8088
" />
<path d="M83.0519 17.8088
L83.1123 17.6878
" />
<path d="M83.1123 17.6878
L83.2333 17.6274
" />
<path d="M83.2333 17.6274
L83.4147 17.6274
" />
<path d="M83.4147 17.6274
L83.5357 17.6878
" />
<path d="M84.1404 18.4740
L84.1404 17.2040
" />
<path d="M84.6847 18.4740
L84.6847 17.8088
" />
<path d="M84.6847 17.8088
L84.6242 17.6878
" />
<path d="M84.6242 17.6878
L84.5033 17.6274
" />
<path d="M84.5033 17.6274
L84.3219 17.6274
" />
<path d="M84.3219 17.6274
L84.2009 17.6878
" />
<path d="M84.2009 17.6878
L84.1404 17.7483
" />
<path d="M85.1685 18.4740
L85.8337 17.6274
" />
<path d="M85.1685 17.6274
L85.8337 18.4740
" />
</g></g> 
</svg>
