<?xml version="1.0" standalone="no"?>
 <!DOCTYPE svg PUBLIC "-//W3C//DTD SVG 1.1//EN" 
 "http://www.w3.org/Graphics/SVG/1.1/DTD/svg11.dtd"> 
<svg
  xmlns:svg="http://www.w3.org/2000/svg"
  xmlns="http://www.w3.org/2000/svg"
  xmlns:xlink="http://www.w3.org/1999/xlink"
  version="1.1"
  width="45.0088mm" height="42.6720mm" viewBox="0.0000 0.0000 45.0088 42.6720">
<title>SVG Image created as working.svg date 2023/07/31 08:53:54 </title>
  <desc>Image generated by Eeschema-SVG </desc>
<g style="fill:#000000; fill-opacity:1.0000;stroke:#000000; stroke-opacity:1.0000;
stroke-linecap:round; stroke-linejoin:round;"
 transform="translate(0 0) scale(1 1)">
</g>
<g style="fill:#840000; fill-opacity:0.0; 
stroke:#840000; stroke-width:0.0000; stroke-opacity:1; 
stroke-linecap:round; stroke-linejoin:round;">
</g>
<g style="fill:#FFFFC2; fill-opacity:0.0; 
stroke:#FFFFC2; stroke-width:0.0000; stroke-opacity:1; 
stroke-linecap:round; stroke-linejoin:round;">
</g>
<g style="fill:#FFFFC2; fill-opacity:1.0000; 
stroke:#FFFFC2; stroke-width:0.0000; stroke-opacity:1; 
stroke-linecap:round; stroke-linejoin:round;">
<rect x="12.350200" y="8.636100" width="20.320000" height="25.400000" rx="0.000000" />
</g>
<g style="fill:#840084; fill-opacity:1.0000; 
stroke:#840084; stroke-width:0.0000; stroke-opacity:1; 
stroke-linecap:round; stroke-linejoin:round;">
</g>
<g style="fill:#840000; fill-opacity:1.0000; 
stroke:#840000; stroke-width:0.0000; stroke-opacity:1; 
stroke-linecap:round; stroke-linejoin:round;">
</g>
<g style="fill:#840000; fill-opacity:0.0; 
stroke:#840000; stroke-width:0.2540; stroke-opacity:1; 
stroke-linecap:round; stroke-linejoin:round;">
<rect x="12.350200" y="8.636100" width="20.320000" height="25.400000" rx="0.000000" />
</g>
<g style="fill:#840000; fill-opacity:0.0; 
stroke:#840000; stroke-width:0.1524; stroke-opacity:1; 
stroke-linecap:round; stroke-linejoin:round;">
<circle cx="11.7152" cy="21.3361" r="0.6350" /> 
<path d="M11.0802 21.3361
L7.2702 21.3361
" />
</g>
<g style="fill:#006464; fill-opacity:0.0; 
stroke:#006464; stroke-width:0.1524; stroke-opacity:1; 
stroke-linecap:round; stroke-linejoin:round;">
<text x="13.3662" y="21.9711"
textLength="2.4251" font-size="1.6933" lengthAdjust="spacingAndGlyphs"
text-anchor="start" opacity="0">A1</text>
<g class="stroked-text"><desc>A1</desc>
<path d="M13.6081 21.5608
L14.2128 21.5608
" />
<path d="M13.4871 21.9236
L13.9104 20.6536
" />
<path d="M13.9104 20.6536
L14.3338 21.9236
" />
<path d="M15.4224 21.9236
L14.6967 21.9236
" />
<path d="M15.0595 21.9236
L15.0595 20.6536
" />
<path d="M15.0595 20.6536
L14.9386 20.8351
" />
<path d="M14.9386 20.8351
L14.8176 20.9560
" />
<path d="M14.8176 20.9560
L14.6967 21.0165
" />
</g></g>
<g style="fill:#A90000; fill-opacity:0.0; 
stroke:#A90000; stroke-width:0.1524; stroke-opacity:1; 
stroke-linecap:round; stroke-linejoin:round;">
<text x="9.8102" y="21.0821"
textLength="1.3365" font-size="1.6933" lengthAdjust="spacingAndGlyphs"
text-anchor="middle" opacity="0">1</text>
<g class="stroked-text"><desc>1</desc>
<path d="M10.1731 20.9266
L9.4474 20.9266
" />
<path d="M9.8102 20.9266
L9.8102 19.6566
" />
<path d="M9.8102 19.6566
L9.6893 19.8381
" />
<path d="M9.6893 19.8381
L9.5683 19.9590
" />
<path d="M9.5683 19.9590
L9.4474 20.0195
" />
</g></g>
<g style="fill:#840000; fill-opacity:0.0; 
stroke:#840000; stroke-width:0.1524; stroke-opacity:1; 
stroke-linecap:round; stroke-linejoin:round;">
<path d="M12.3502 16.2561
L7.2702 16.2561
" />
</g>
<g style="fill:#006464; fill-opacity:0.0; 
stroke:#006464; stroke-width:0.1524; stroke-opacity:1; 
stroke-linecap:round; stroke-linejoin:round;">
<text x="13.3662" y="16.8911"
textLength="4.2394" font-size="1.6933" lengthAdjust="spacingAndGlyphs"
text-anchor="start" opacity="0">Cext</text>
<g class="stroked-text"><desc>Cext</desc>
<path d="M14.3942 16.7227
L14.3338 16.7832
" />
<path d="M14.3338 16.7832
L14.1523 16.8436
" />
<path d="M14.1523 16.8436
L14.0314 16.8436
" />
<path d="M14.0314 16.8436
L13.8500 16.7832
" />
<path d="M13.8500 16.7832
L13.7290 16.6622
" />
<path d="M13.7290 16.6622
L13.6685 16.5412
" />
<path d="M13.6685 16.5412
L13.6081 16.2993
" />
<path d="M13.6081 16.2993
L13.6081 16.1179
" />
<path d="M13.6081 16.1179
L13.6685 15.8760
" />
<path d="M13.6685 15.8760
L13.7290 15.7551
" />
<path d="M13.7290 15.7551
L13.8500 15.6341
" />
<path d="M13.8500 15.6341
L14.0314 15.5736
" />
<path d="M14.0314 15.5736
L14.1523 15.5736
" />
<path d="M14.1523 15.5736
L14.3338 15.6341
" />
<path d="M14.3338 15.6341
L14.3942 15.6946
" />
<path d="M15.4223 16.7832
L15.3014 16.8436
" />
<path d="M15.3014 16.8436
L15.0595 16.8436
" />
<path d="M15.0595 16.8436
L14.9385 16.7832
" />
<path d="M14.9385 16.7832
L14.8781 16.6622
" />
<path d="M14.8781 16.6622
L14.8781 16.1784
" />
<path d="M14.8781 16.1784
L14.9385 16.0574
" />
<path d="M14.9385 16.0574
L15.0595 15.9970
" />
<path d="M15.0595 15.9970
L15.3014 15.9970
" />
<path d="M15.3014 15.9970
L15.4223 16.0574
" />
<path d="M15.4223 16.0574
L15.4828 16.1784
" />
<path d="M15.4828 16.1784
L15.4828 16.2993
" />
<path d="M15.4828 16.2993
L14.8781 16.4203
" />
<path d="M15.9062 16.8436
L16.5714 15.9970
" />
<path d="M15.9062 15.9970
L16.5714 16.8436
" />
<path d="M16.8738 15.9970
L17.3576 15.9970
" />
<path d="M17.0552 15.5736
L17.0552 16.6622
" />
<path d="M17.0552 16.6622
L17.1157 16.7832
" />
<path d="M17.1157 16.7832
L17.2367 16.8436
" />
<path d="M17.2367 16.8436
L17.3576 16.8436
" />
</g></g>
<g style="fill:#A90000; fill-opacity:0.0; 
stroke:#A90000; stroke-width:0.1524; stroke-opacity:1; 
stroke-linecap:round; stroke-linejoin:round;">
<text x="9.8102" y="16.0021"
textLength="2.5460" font-size="1.6933" lengthAdjust="spacingAndGlyphs"
text-anchor="middle" opacity="0">11</text>
<g class="stroked-text"><desc>11</desc>
<path d="M9.5683 15.8466
L8.8426 15.8466
" />
<path d="M9.2054 15.8466
L9.2054 14.5766
" />
<path d="M9.2054 14.5766
L9.0845 14.7581
" />
<path d="M9.0845 14.7581
L8.9635 14.8790
" />
<path d="M8.9635 14.8790
L8.8426 14.9395
" />
<path d="M10.7778 15.8466
L10.0521 15.8466
" />
<path d="M10.4149 15.8466
L10.4149 14.5766
" />
<path d="M10.4149 14.5766
L10.2940 14.7581
" />
<path d="M10.2940 14.7581
L10.1730 14.8790
" />
<path d="M10.1730 14.8790
L10.0521 14.9395
" />
</g></g>
<g style="fill:#840000; fill-opacity:0.0; 
stroke:#840000; stroke-width:0.1524; stroke-opacity:1; 
stroke-linecap:round; stroke-linejoin:round;">
<path d="M12.3502 11.1761
L7.2702 11.1761
" />
</g>
<g style="fill:#006464; fill-opacity:0.0; 
stroke:#006464; stroke-width:0.1524; stroke-opacity:1; 
stroke-linecap:round; stroke-linejoin:round;">
<text x="13.3662" y="11.8111"
textLength="6.8399" font-size="1.6933" lengthAdjust="spacingAndGlyphs"
text-anchor="start" opacity="0">R/Cext</text>
<g class="stroked-text"><desc>R/Cext</desc>
<path d="M14.3942 11.7636
L13.9709 11.1589
" />
<path d="M13.6685 11.7636
L13.6685 10.4936
" />
<path d="M13.6685 10.4936
L14.1523 10.4936
" />
<path d="M14.1523 10.4936
L14.2733 10.5541
" />
<path d="M14.2733 10.5541
L14.3338 10.6146
" />
<path d="M14.3338 10.6146
L14.3942 10.7355
" />
<path d="M14.3942 10.7355
L14.3942 10.9170
" />
<path d="M14.3942 10.9170
L14.3338 11.0379
" />
<path d="M14.3338 11.0379
L14.2733 11.0984
" />
<path d="M14.2733 11.0984
L14.1523 11.1589
" />
<path d="M14.1523 11.1589
L13.6685 11.1589
" />
<path d="M15.8457 10.4332
L14.7571 12.0660
" />
<path d="M16.9947 11.6427
L16.9343 11.7032
" />
<path d="M16.9343 11.7032
L16.7528 11.7636
" />
<path d="M16.7528 11.7636
L16.6319 11.7636
" />
<path d="M16.6319 11.7636
L16.4505 11.7032
" />
<path d="M16.4505 11.7032
L16.3295 11.5822
" />
<path d="M16.3295 11.5822
L16.2690 11.4612
" />
<path d="M16.2690 11.4612
L16.2086 11.2193
" />
<path d="M16.2086 11.2193
L16.2086 11.0379
" />
<path d="M16.2086 11.0379
L16.2690 10.7960
" />
<path d="M16.2690 10.7960
L16.3295 10.6751
" />
<path d="M16.3295 10.6751
L16.4505 10.5541
" />
<path d="M16.4505 10.5541
L16.6319 10.4936
" />
<path d="M16.6319 10.4936
L16.7528 10.4936
" />
<path d="M16.7528 10.4936
L16.9343 10.5541
" />
<path d="M16.9343 10.5541
L16.9947 10.6146
" />
<path d="M18.0228 11.7032
L17.9019 11.7636
" />
<path d="M17.9019 11.7636
L17.6600 11.7636
" />
<path d="M17.6600 11.7636
L17.5390 11.7032
" />
<path d="M17.5390 11.7032
L17.4786 11.5822
" />
<path d="M17.4786 11.5822
L17.4786 11.0984
" />
<path d="M17.4786 11.0984
L17.5390 10.9774
" />
<path d="M17.5390 10.9774
L17.6600 10.9170
" />
<path d="M17.6600 10.9170
L17.9019 10.9170
" />
<path d="M17.9019 10.9170
L18.0228 10.9774
" />
<path d="M18.0228 10.9774
L18.0833 11.0984
" />
<path d="M18.0833 11.0984
L18.0833 11.2193
" />
<path d="M18.0833 11.2193
L17.4786 11.3403
" />
<path d="M18.5067 11.7636
L19.1719 10.9170
" />
<path d="M18.5067 10.9170
L19.1719 11.7636
" />
<path d="M19.4743 10.9170
L19.9581 10.9170
" />
<path d="M19.6557 10.4936
L19.6557 11.5822
" />
<path d="M19.6557 11.5822
L19.7162 11.7032
" />
<path d="M19.7162 11.7032
L19.8372 11.7636
" />
<path d="M19.8372 11.7636
L19.9581 11.7636
" />
</g></g>
<g style="fill:#A90000; fill-opacity:0.0; 
stroke:#A90000; stroke-width:0.1524; stroke-opacity:1; 
stroke-linecap:round; stroke-linejoin:round;">
<text x="9.8102" y="10.9221"
textLength="2.5460" font-size="1.6933" lengthAdjust="spacingAndGlyphs"
text-anchor="middle" opacity="0">13</text>
<g class="stroked-text"><desc>13</desc>
<path d="M9.5683 10.7666
L8.8426 10.7666
" />
<path d="M9.2054 10.7666
L9.2054 9.4966
" />
<path d="M9.2054 9.4966
L9.0845 9.6781
" />
<path d="M9.0845 9.6781
L8.9635 9.7990
" />
<path d="M8.9635 9.7990
L8.8426 9.8595
" />
<path d="M9.9916 9.4966
L10.7778 9.4966
" />
<path d="M10.7778 9.4966
L10.3544 9.9804
" />
<path d="M10.3544 9.9804
L10.5359 9.9804
" />
<path d="M10.5359 9.9804
L10.6568 10.0409
" />
<path d="M10.6568 10.0409
L10.7173 10.1014
" />
<path d="M10.7173 10.1014
L10.7778 10.2223
" />
<path d="M10.7778 10.2223
L10.7778 10.5247
" />
<path d="M10.7778 10.5247
L10.7173 10.6457
" />
<path d="M10.7173 10.6457
L10.6568 10.7062
" />
<path d="M10.6568 10.7062
L10.5359 10.7666
" />
<path d="M10.5359 10.7666
L10.1730 10.7666
" />
<path d="M10.1730 10.7666
L10.0521 10.7062
" />
<path d="M10.0521 10.7062
L9.9916 10.6457
" />
</g></g>
<g style="fill:#840000; fill-opacity:0.0; 
stroke:#840000; stroke-width:0.1524; stroke-opacity:1; 
stroke-linecap:round; stroke-linejoin:round;">
<path d="M22.5102 8.6361
L22.5102 3.5561
" />
</g>
<g style="fill:#006464; fill-opacity:0.0; 
stroke:#006464; stroke-width:0.1524; stroke-opacity:1; 
stroke-linecap:round; stroke-linejoin:round;">
<g transform="rotate(-90.000000 22.5102 9.6521)">
<text x="22.5102" y="10.2871"
textLength="3.7556" font-size="1.6933" lengthAdjust="spacingAndGlyphs"
text-anchor="end" opacity="0">VCC</text>
</g>
<g class="stroked-text"><desc>VCC</desc>
<path d="M21.8277 13.1597
L23.0977 12.7364
" />
<path d="M23.0977 12.7364
L21.8277 12.3130
" />
<path d="M22.9768 11.1640
L23.0373 11.2244
" />
<path d="M23.0373 11.2244
L23.0977 11.4059
" />
<path d="M23.0977 11.4059
L23.0977 11.5268
" />
<path d="M23.0977 11.5268
L23.0373 11.7082
" />
<path d="M23.0373 11.7082
L22.9163 11.8292
" />
<path d="M22.9163 11.8292
L22.7953 11.8897
" />
<path d="M22.7953 11.8897
L22.5534 11.9501
" />
<path d="M22.5534 11.9501
L22.3720 11.9501
" />
<path d="M22.3720 11.9501
L22.1301 11.8897
" />
<path d="M22.1301 11.8897
L22.0092 11.8292
" />
<path d="M22.0092 11.8292
L21.8882 11.7082
" />
<path d="M21.8882 11.7082
L21.8277 11.5268
" />
<path d="M21.8277 11.5268
L21.8277 11.4059
" />
<path d="M21.8277 11.4059
L21.8882 11.2244
" />
<path d="M21.8882 11.2244
L21.9487 11.1640
" />
<path d="M22.9768 9.8940
L23.0373 9.9544
" />
<path d="M23.0373 9.9544
L23.0977 10.1359
" />
<path d="M23.0977 10.1359
L23.0977 10.2568
" />
<path d="M23.0977 10.2568
L23.0373 10.4382
" />
<path d="M23.0373 10.4382
L22.9163 10.5592
" />
<path d="M22.9163 10.5592
L22.7953 10.6197
" />
<path d="M22.7953 10.6197
L22.5534 10.6801
" />
<path d="M22.5534 10.6801
L22.3720 10.6801
" />
<path d="M22.3720 10.6801
L22.1301 10.6197
" />
<path d="M22.1301 10.6197
L22.0092 10.5592
" />
<path d="M22.0092 10.5592
L21.8882 10.4382
" />
<path d="M21.8882 10.4382
L21.8277 10.2568
" />
<path d="M21.8277 10.2568
L21.8277 10.1359
" />
<path d="M21.8277 10.1359
L21.8882 9.9544
" />
<path d="M21.8882 9.9544
L21.9487 9.8940
" />
</g></g>
<g style="fill:#A90000; fill-opacity:0.0; 
stroke:#A90000; stroke-width:0.1524; stroke-opacity:1; 
stroke-linecap:round; stroke-linejoin:round;">
<g transform="rotate(-90.000000 22.2562 6.0961)">
<text x="22.2562" y="6.0961"
textLength="2.5460" font-size="1.6933" lengthAdjust="spacingAndGlyphs"
text-anchor="middle" opacity="0">14</text>
</g>
<g class="stroked-text"><desc>14</desc>
<path d="M22.1007 6.3379
L22.1007 7.0636
" />
<path d="M22.1007 6.7008
L20.8307 6.7008
" />
<path d="M20.8307 6.7008
L21.0122 6.8217
" />
<path d="M21.0122 6.8217
L21.1331 6.9427
" />
<path d="M21.1331 6.9427
L21.1936 7.0636
" />
<path d="M21.2541 5.2494
L22.1007 5.2494
" />
<path d="M20.7703 5.5518
L21.6774 5.8541
" />
<path d="M21.6774 5.8541
L21.6774 5.0680
" />
</g></g>
<g style="fill:#840000; fill-opacity:0.0; 
stroke:#840000; stroke-width:0.1524; stroke-opacity:1; 
stroke-linecap:round; stroke-linejoin:round;">
<circle cx="11.7152" cy="23.8761" r="0.6350" /> 
<path d="M11.0802 23.8761
L7.2702 23.8761
" />
</g>
<g style="fill:#006464; fill-opacity:0.0; 
stroke:#006464; stroke-width:0.1524; stroke-opacity:1; 
stroke-linecap:round; stroke-linejoin:round;">
<text x="13.3662" y="24.5111"
textLength="2.4251" font-size="1.6933" lengthAdjust="spacingAndGlyphs"
text-anchor="start" opacity="0">A2</text>
<g class="stroked-text"><desc>A2</desc>
<path d="M13.6081 24.1008
L14.2128 24.1008
" />
<path d="M13.4871 24.4636
L13.9104 23.1936
" />
<path d="M13.9104 23.1936
L14.3338 24.4636
" />
<path d="M14.6967 23.3146
L14.7571 23.2541
" />
<path d="M14.7571 23.2541
L14.8781 23.1936
" />
<path d="M14.8781 23.1936
L15.1805 23.1936
" />
<path d="M15.1805 23.1936
L15.3014 23.2541
" />
<path d="M15.3014 23.2541
L15.3619 23.3146
" />
<path d="M15.3619 23.3146
L15.4224 23.4355
" />
<path d="M15.4224 23.4355
L15.4224 23.5565
" />
<path d="M15.4224 23.5565
L15.3619 23.7379
" />
<path d="M15.3619 23.7379
L14.6362 24.4636
" />
<path d="M14.6362 24.4636
L15.4224 24.4636
" />
</g></g>
<g style="fill:#A90000; fill-opacity:0.0; 
stroke:#A90000; stroke-width:0.1524; stroke-opacity:1; 
stroke-linecap:round; stroke-linejoin:round;">
<text x="9.8102" y="23.6221"
textLength="1.3365" font-size="1.6933" lengthAdjust="spacingAndGlyphs"
text-anchor="middle" opacity="0">2</text>
<g class="stroked-text"><desc>2</desc>
<path d="M9.4474 22.3176
L9.5078 22.2571
" />
<path d="M9.5078 22.2571
L9.6288 22.1966
" />
<path d="M9.6288 22.1966
L9.9312 22.1966
" />
<path d="M9.9312 22.1966
L10.0521 22.2571
" />
<path d="M10.0521 22.2571
L10.1126 22.3176
" />
<path d="M10.1126 22.3176
L10.1731 22.4385
" />
<path d="M10.1731 22.4385
L10.1731 22.5595
" />
<path d="M10.1731 22.5595
L10.1126 22.7409
" />
<path d="M10.1126 22.7409
L9.3869 23.4666
" />
<path d="M9.3869 23.4666
L10.1731 23.4666
" />
</g></g>
<g style="fill:#840000; fill-opacity:0.0; 
stroke:#840000; stroke-width:0.1524; stroke-opacity:1; 
stroke-linecap:round; stroke-linejoin:round;">
<path d="M12.3502 26.4161
L7.2702 26.4161
" />
</g>
<g style="fill:#006464; fill-opacity:0.0; 
stroke:#006464; stroke-width:0.1524; stroke-opacity:1; 
stroke-linecap:round; stroke-linejoin:round;">
<text x="13.3662" y="27.0511"
textLength="2.6065" font-size="1.6933" lengthAdjust="spacingAndGlyphs"
text-anchor="start" opacity="0">B1</text>
<g class="stroked-text"><desc>B1</desc>
<path d="M14.0919 26.3384
L14.2733 26.3989
" />
<path d="M14.2733 26.3989
L14.3338 26.4593
" />
<path d="M14.3338 26.4593
L14.3942 26.5803
" />
<path d="M14.3942 26.5803
L14.3942 26.7617
" />
<path d="M14.3942 26.7617
L14.3338 26.8827
" />
<path d="M14.3338 26.8827
L14.2733 26.9432
" />
<path d="M14.2733 26.9432
L14.1523 27.0036
" />
<path d="M14.1523 27.0036
L13.6685 27.0036
" />
<path d="M13.6685 27.0036
L13.6685 25.7336
" />
<path d="M13.6685 25.7336
L14.0919 25.7336
" />
<path d="M14.0919 25.7336
L14.2128 25.7941
" />
<path d="M14.2128 25.7941
L14.2733 25.8546
" />
<path d="M14.2733 25.8546
L14.3338 25.9755
" />
<path d="M14.3338 25.9755
L14.3338 26.0965
" />
<path d="M14.3338 26.0965
L14.2733 26.2174
" />
<path d="M14.2733 26.2174
L14.2128 26.2779
" />
<path d="M14.2128 26.2779
L14.0919 26.3384
" />
<path d="M14.0919 26.3384
L13.6685 26.3384
" />
<path d="M15.6038 27.0036
L14.8781 27.0036
" />
<path d="M15.2409 27.0036
L15.2409 25.7336
" />
<path d="M15.2409 25.7336
L15.1200 25.9151
" />
<path d="M15.1200 25.9151
L14.9990 26.0360
" />
<path d="M14.9990 26.0360
L14.8781 26.0965
" />
</g></g>
<g style="fill:#A90000; fill-opacity:0.0; 
stroke:#A90000; stroke-width:0.1524; stroke-opacity:1; 
stroke-linecap:round; stroke-linejoin:round;">
<text x="9.8102" y="26.1621"
textLength="1.3365" font-size="1.6933" lengthAdjust="spacingAndGlyphs"
text-anchor="middle" opacity="0">3</text>
<g class="stroked-text"><desc>3</desc>
<path d="M9.3869 24.7366
L10.1731 24.7366
" />
<path d="M10.1731 24.7366
L9.7497 25.2204
" />
<path d="M9.7497 25.2204
L9.9312 25.2204
" />
<path d="M9.9312 25.2204
L10.0521 25.2809
" />
<path d="M10.0521 25.2809
L10.1126 25.3414
" />
<path d="M10.1126 25.3414
L10.1731 25.4623
" />
<path d="M10.1731 25.4623
L10.1731 25.7647
" />
<path d="M10.1731 25.7647
L10.1126 25.8857
" />
<path d="M10.1126 25.8857
L10.0521 25.9462
" />
<path d="M10.0521 25.9462
L9.9312 26.0066
" />
<path d="M9.9312 26.0066
L9.5683 26.0066
" />
<path d="M9.5683 26.0066
L9.4474 25.9462
" />
<path d="M9.4474 25.9462
L9.3869 25.8857
" />
</g></g>
<g style="fill:#840000; fill-opacity:0.0; 
stroke:#840000; stroke-width:0.1524; stroke-opacity:1; 
stroke-linecap:round; stroke-linejoin:round;">
<path d="M12.3502 28.9561
L7.2702 28.9561
" />
</g>
<g style="fill:#006464; fill-opacity:0.0; 
stroke:#006464; stroke-width:0.1524; stroke-opacity:1; 
stroke-linecap:round; stroke-linejoin:round;">
<text x="13.3662" y="29.5911"
textLength="2.6065" font-size="1.6933" lengthAdjust="spacingAndGlyphs"
text-anchor="start" opacity="0">B2</text>
<g class="stroked-text"><desc>B2</desc>
<path d="M14.0919 28.8784
L14.2733 28.9389
" />
<path d="M14.2733 28.9389
L14.3338 28.9993
" />
<path d="M14.3338 28.9993
L14.3942 29.1203
" />
<path d="M14.3942 29.1203
L14.3942 29.3017
" />
<path d="M14.3942 29.3017
L14.3338 29.4227
" />
<path d="M14.3338 29.4227
L14.2733 29.4832
" />
<path d="M14.2733 29.4832
L14.1523 29.5436
" />
<path d="M14.1523 29.5436
L13.6685 29.5436
" />
<path d="M13.6685 29.5436
L13.6685 28.2736
" />
<path d="M13.6685 28.2736
L14.0919 28.2736
" />
<path d="M14.0919 28.2736
L14.2128 28.3341
" />
<path d="M14.2128 28.3341
L14.2733 28.3946
" />
<path d="M14.2733 28.3946
L14.3338 28.5155
" />
<path d="M14.3338 28.5155
L14.3338 28.6365
" />
<path d="M14.3338 28.6365
L14.2733 28.7574
" />
<path d="M14.2733 28.7574
L14.2128 28.8179
" />
<path d="M14.2128 28.8179
L14.0919 28.8784
" />
<path d="M14.0919 28.8784
L13.6685 28.8784
" />
<path d="M14.8781 28.3946
L14.9385 28.3341
" />
<path d="M14.9385 28.3341
L15.0595 28.2736
" />
<path d="M15.0595 28.2736
L15.3619 28.2736
" />
<path d="M15.3619 28.2736
L15.4828 28.3341
" />
<path d="M15.4828 28.3341
L15.5433 28.3946
" />
<path d="M15.5433 28.3946
L15.6038 28.5155
" />
<path d="M15.6038 28.5155
L15.6038 28.6365
" />
<path d="M15.6038 28.6365
L15.5433 28.8179
" />
<path d="M15.5433 28.8179
L14.8176 29.5436
" />
<path d="M14.8176 29.5436
L15.6038 29.5436
" />
</g></g>
<g style="fill:#A90000; fill-opacity:0.0; 
stroke:#A90000; stroke-width:0.1524; stroke-opacity:1; 
stroke-linecap:round; stroke-linejoin:round;">
<text x="9.8102" y="28.7021"
textLength="1.3365" font-size="1.6933" lengthAdjust="spacingAndGlyphs"
text-anchor="middle" opacity="0">4</text>
<g class="stroked-text"><desc>4</desc>
<path d="M10.0521 27.7000
L10.0521 28.5466
" />
<path d="M9.7497 27.2162
L9.4474 28.1233
" />
<path d="M9.4474 28.1233
L10.2335 28.1233
" />
</g></g>
<g style="fill:#840000; fill-opacity:0.0; 
stroke:#840000; stroke-width:0.1524; stroke-opacity:1; 
stroke-linecap:round; stroke-linejoin:round;">
<circle cx="11.7152" cy="31.4961" r="0.6350" /> 
<path d="M11.0802 31.4961
L7.2702 31.4961
" />
</g>
<g style="fill:#006464; fill-opacity:0.0; 
stroke:#006464; stroke-width:0.1524; stroke-opacity:1; 
stroke-linecap:round; stroke-linejoin:round;">
<text x="13.3662" y="32.1311"
textLength="2.8484" font-size="1.6933" lengthAdjust="spacingAndGlyphs"
text-anchor="start" opacity="0">Clr</text>
<g class="stroked-text"><desc>Clr</desc>
<path d="M14.3942 31.9627
L14.3338 32.0232
" />
<path d="M14.3338 32.0232
L14.1523 32.0836
" />
<path d="M14.1523 32.0836
L14.0314 32.0836
" />
<path d="M14.0314 32.0836
L13.8500 32.0232
" />
<path d="M13.8500 32.0232
L13.7290 31.9022
" />
<path d="M13.7290 31.9022
L13.6685 31.7812
" />
<path d="M13.6685 31.7812
L13.6081 31.5393
" />
<path d="M13.6081 31.5393
L13.6081 31.3579
" />
<path d="M13.6081 31.3579
L13.6685 31.1160
" />
<path d="M13.6685 31.1160
L13.7290 30.9951
" />
<path d="M13.7290 30.9951
L13.8500 30.8741
" />
<path d="M13.8500 30.8741
L14.0314 30.8136
" />
<path d="M14.0314 30.8136
L14.1523 30.8136
" />
<path d="M14.1523 30.8136
L14.3338 30.8741
" />
<path d="M14.3338 30.8741
L14.3942 30.9346
" />
<path d="M15.1200 32.0836
L14.9990 32.0232
" />
<path d="M14.9990 32.0232
L14.9385 31.9022
" />
<path d="M14.9385 31.9022
L14.9385 30.8136
" />
<path d="M15.6037 32.0836
L15.6037 31.2370
" />
<path d="M15.6037 31.4789
L15.6642 31.3579
" />
<path d="M15.6642 31.3579
L15.7247 31.2974
" />
<path d="M15.7247 31.2974
L15.8456 31.2370
" />
<path d="M15.8456 31.2370
L15.9666 31.2370
" />
</g></g>
<g style="fill:#A90000; fill-opacity:0.0; 
stroke:#A90000; stroke-width:0.1524; stroke-opacity:1; 
stroke-linecap:round; stroke-linejoin:round;">
<text x="9.8102" y="31.2421"
textLength="1.3365" font-size="1.6933" lengthAdjust="spacingAndGlyphs"
text-anchor="middle" opacity="0">5</text>
<g class="stroked-text"><desc>5</desc>
<path d="M10.1126 29.8166
L9.5078 29.8166
" />
<path d="M9.5078 29.8166
L9.4474 30.4214
" />
<path d="M9.4474 30.4214
L9.5078 30.3609
" />
<path d="M9.5078 30.3609
L9.6288 30.3004
" />
<path d="M9.6288 30.3004
L9.9312 30.3004
" />
<path d="M9.9312 30.3004
L10.0521 30.3609
" />
<path d="M10.0521 30.3609
L10.1126 30.4214
" />
<path d="M10.1126 30.4214
L10.1731 30.5423
" />
<path d="M10.1731 30.5423
L10.1731 30.8447
" />
<path d="M10.1731 30.8447
L10.1126 30.9657
" />
<path d="M10.1126 30.9657
L10.0521 31.0262
" />
<path d="M10.0521 31.0262
L9.9312 31.0866
" />
<path d="M9.9312 31.0866
L9.6288 31.0866
" />
<path d="M9.6288 31.0866
L9.5078 31.0262
" />
<path d="M9.5078 31.0262
L9.4474 30.9657
" />
</g></g>
<g style="fill:#840000; fill-opacity:0.0; 
stroke:#840000; stroke-width:0.1524; stroke-opacity:1; 
stroke-linecap:round; stroke-linejoin:round;">
<path d="M32.6702 26.4161
L37.7502 26.4161
" />
</g>
<g style="fill:#006464; fill-opacity:0.0; 
stroke:#006464; stroke-width:0.1524; stroke-opacity:1; 
stroke-linecap:round; stroke-linejoin:round;">
<text x="31.6542" y="27.0511"
textLength="1.4575" font-size="1.6933" lengthAdjust="spacingAndGlyphs"
text-anchor="end" opacity="0">~{Q}</text>
<g class="stroked-text"><desc>~{Q}</desc>
<path d="M31.4727 27.1246
L31.3517 27.0641
" />
<path d="M31.3517 27.0641
L31.2308 26.9432
" />
<path d="M31.2308 26.9432
L31.0494 26.7617
" />
<path d="M31.0494 26.7617
L30.9284 26.7012
" />
<path d="M30.9284 26.7012
L30.8075 26.7012
" />
<path d="M30.8679 27.0036
L30.7470 26.9432
" />
<path d="M30.7470 26.9432
L30.6260 26.8222
" />
<path d="M30.6260 26.8222
L30.5656 26.5803
" />
<path d="M30.5656 26.5803
L30.5656 26.1570
" />
<path d="M30.5656 26.1570
L30.6260 25.9151
" />
<path d="M30.6260 25.9151
L30.7470 25.7941
" />
<path d="M30.7470 25.7941
L30.8679 25.7336
" />
<path d="M30.8679 25.7336
L31.1098 25.7336
" />
<path d="M31.1098 25.7336
L31.2308 25.7941
" />
<path d="M31.2308 25.7941
L31.3517 25.9151
" />
<path d="M31.3517 25.9151
L31.4122 26.1570
" />
<path d="M31.4122 26.1570
L31.4122 26.5803
" />
<path d="M31.4122 26.5803
L31.3517 26.8222
" />
<path d="M31.3517 26.8222
L31.2308 26.9432
" />
<path d="M31.2308 26.9432
L31.1098 27.0036
" />
<path d="M31.1098 27.0036
L30.8679 27.0036
" />
<path d="M30.4507 25.1652
L31.5272 25.1652
" />
</g></g>
<g style="fill:#A90000; fill-opacity:0.0; 
stroke:#A90000; stroke-width:0.1524; stroke-opacity:1; 
stroke-linecap:round; stroke-linejoin:round;">
<text x="35.2102" y="26.1621"
textLength="1.3365" font-size="1.6933" lengthAdjust="spacingAndGlyphs"
text-anchor="middle" opacity="0">6</text>
<g class="stroked-text"><desc>6</desc>
<path d="M35.4521 24.7366
L35.2102 24.7366
" />
<path d="M35.2102 24.7366
L35.0893 24.7971
" />
<path d="M35.0893 24.7971
L35.0288 24.8576
" />
<path d="M35.0288 24.8576
L34.9078 25.0390
" />
<path d="M34.9078 25.0390
L34.8474 25.2809
" />
<path d="M34.8474 25.2809
L34.8474 25.7647
" />
<path d="M34.8474 25.7647
L34.9078 25.8857
" />
<path d="M34.9078 25.8857
L34.9683 25.9462
" />
<path d="M34.9683 25.9462
L35.0893 26.0066
" />
<path d="M35.0893 26.0066
L35.3312 26.0066
" />
<path d="M35.3312 26.0066
L35.4521 25.9462
" />
<path d="M35.4521 25.9462
L35.5126 25.8857
" />
<path d="M35.5126 25.8857
L35.5731 25.7647
" />
<path d="M35.5731 25.7647
L35.5731 25.4623
" />
<path d="M35.5731 25.4623
L35.5126 25.3414
" />
<path d="M35.5126 25.3414
L35.4521 25.2809
" />
<path d="M35.4521 25.2809
L35.3312 25.2204
" />
<path d="M35.3312 25.2204
L35.0893 25.2204
" />
<path d="M35.0893 25.2204
L34.9683 25.2809
" />
<path d="M34.9683 25.2809
L34.9078 25.3414
" />
<path d="M34.9078 25.3414
L34.8474 25.4623
" />
</g></g>
<g style="fill:#840000; fill-opacity:0.0; 
stroke:#840000; stroke-width:0.1524; stroke-opacity:1; 
stroke-linecap:round; stroke-linejoin:round;">
<path d="M22.5102 34.0361
L22.5102 39.1161
" />
</g>
<g style="fill:#006464; fill-opacity:0.0; 
stroke:#006464; stroke-width:0.1524; stroke-opacity:1; 
stroke-linecap:round; stroke-linejoin:round;">
<g transform="rotate(-90.000000 22.5102 33.0201)">
<text x="22.5102" y="33.6551"
textLength="3.9975" font-size="1.6933" lengthAdjust="spacingAndGlyphs"
text-anchor="start" opacity="0">GND</text>
</g>
<g class="stroked-text"><desc>GND</desc>
<path d="M21.8882 32.0524
L21.8277 32.1734
" />
<path d="M21.8277 32.1734
L21.8277 32.3548
" />
<path d="M21.8277 32.3548
L21.8882 32.5362
" />
<path d="M21.8882 32.5362
L22.0092 32.6572
" />
<path d="M22.0092 32.6572
L22.1301 32.7177
" />
<path d="M22.1301 32.7177
L22.3720 32.7781
" />
<path d="M22.3720 32.7781
L22.5534 32.7781
" />
<path d="M22.5534 32.7781
L22.7953 32.7177
" />
<path d="M22.7953 32.7177
L22.9163 32.6572
" />
<path d="M22.9163 32.6572
L23.0373 32.5362
" />
<path d="M23.0373 32.5362
L23.0977 32.3548
" />
<path d="M23.0977 32.3548
L23.0977 32.2339
" />
<path d="M23.0977 32.2339
L23.0373 32.0524
" />
<path d="M23.0373 32.0524
L22.9768 31.9920
" />
<path d="M22.9768 31.9920
L22.5534 31.9920
" />
<path d="M22.5534 31.9920
L22.5534 32.2339
" />
<path d="M23.0977 31.4477
L21.8277 31.4477
" />
<path d="M21.8277 31.4477
L23.0977 30.7220
" />
<path d="M23.0977 30.7220
L21.8277 30.7220
" />
<path d="M23.0977 30.1172
L21.8277 30.1172
" />
<path d="M21.8277 30.1172
L21.8277 29.8148
" />
<path d="M21.8277 29.8148
L21.8882 29.6334
" />
<path d="M21.8882 29.6334
L22.0092 29.5124
" />
<path d="M22.0092 29.5124
L22.1301 29.4519
" />
<path d="M22.1301 29.4519
L22.3720 29.3915
" />
<path d="M22.3720 29.3915
L22.5534 29.3915
" />
<path d="M22.5534 29.3915
L22.7953 29.4519
" />
<path d="M22.7953 29.4519
L22.9163 29.5124
" />
<path d="M22.9163 29.5124
L23.0373 29.6334
" />
<path d="M23.0373 29.6334
L23.0977 29.8148
" />
<path d="M23.0977 29.8148
L23.0977 30.1172
" />
</g></g>
<g style="fill:#A90000; fill-opacity:0.0; 
stroke:#A90000; stroke-width:0.1524; stroke-opacity:1; 
stroke-linecap:round; stroke-linejoin:round;">
<g transform="rotate(-90.000000 22.2562 36.5761)">
<text x="22.2562" y="36.5761"
textLength="1.3365" font-size="1.6933" lengthAdjust="spacingAndGlyphs"
text-anchor="middle" opacity="0">7</text>
</g>
<g class="stroked-text"><desc>7</desc>
<path d="M20.8307 36.9993
L20.8307 36.1527
" />
<path d="M20.8307 36.1527
L22.1007 36.6969
" />
</g></g>
<g style="fill:#840000; fill-opacity:0.0; 
stroke:#840000; stroke-width:0.1524; stroke-opacity:1; 
stroke-linecap:round; stroke-linejoin:round;">
<path d="M32.6702 16.2561
L37.7502 16.2561
" />
</g>
<g style="fill:#006464; fill-opacity:0.0; 
stroke:#006464; stroke-width:0.1524; stroke-opacity:1; 
stroke-linecap:round; stroke-linejoin:round;">
<text x="31.6542" y="16.8911"
textLength="1.4575" font-size="1.6933" lengthAdjust="spacingAndGlyphs"
text-anchor="end" opacity="0">Q</text>
<g class="stroked-text"><desc>Q</desc>
<path d="M31.4727 16.9646
L31.3517 16.9041
" />
<path d="M31.3517 16.9041
L31.2308 16.7832
" />
<path d="M31.2308 16.7832
L31.0494 16.6017
" />
<path d="M31.0494 16.6017
L30.9284 16.5412
" />
<path d="M30.9284 16.5412
L30.8075 16.5412
" />
<path d="M30.8679 16.8436
L30.7470 16.7832
" />
<path d="M30.7470 16.7832
L30.6260 16.6622
" />
<path d="M30.6260 16.6622
L30.5656 16.4203
" />
<path d="M30.5656 16.4203
L30.5656 15.9970
" />
<path d="M30.5656 15.9970
L30.6260 15.7551
" />
<path d="M30.6260 15.7551
L30.7470 15.6341
" />
<path d="M30.7470 15.6341
L30.8679 15.5736
" />
<path d="M30.8679 15.5736
L31.1098 15.5736
" />
<path d="M31.1098 15.5736
L31.2308 15.6341
" />
<path d="M31.2308 15.6341
L31.3517 15.7551
" />
<path d="M31.3517 15.7551
L31.4122 15.9970
" />
<path d="M31.4122 15.9970
L31.4122 16.4203
" />
<path d="M31.4122 16.4203
L31.3517 16.6622
" />
<path d="M31.3517 16.6622
L31.2308 16.7832
" />
<path d="M31.2308 16.7832
L31.1098 16.8436
" />
<path d="M31.1098 16.8436
L30.8679 16.8436
" />
</g></g>
<g style="fill:#A90000; fill-opacity:0.0; 
stroke:#A90000; stroke-width:0.1524; stroke-opacity:1; 
stroke-linecap:round; stroke-linejoin:round;">
<text x="35.2102" y="16.0021"
textLength="1.3365" font-size="1.6933" lengthAdjust="spacingAndGlyphs"
text-anchor="middle" opacity="0">8</text>
<g class="stroked-text"><desc>8</desc>
<path d="M35.0893 15.1209
L34.9683 15.0604
" />
<path d="M34.9683 15.0604
L34.9078 15.0000
" />
<path d="M34.9078 15.0000
L34.8474 14.8790
" />
<path d="M34.8474 14.8790
L34.8474 14.8185
" />
<path d="M34.8474 14.8185
L34.9078 14.6976
" />
<path d="M34.9078 14.6976
L34.9683 14.6371
" />
<path d="M34.9683 14.6371
L35.0893 14.5766
" />
<path d="M35.0893 14.5766
L35.3312 14.5766
" />
<path d="M35.3312 14.5766
L35.4521 14.6371
" />
<path d="M35.4521 14.6371
L35.5126 14.6976
" />
<path d="M35.5126 14.6976
L35.5731 14.8185
" />
<path d="M35.5731 14.8185
L35.5731 14.8790
" />
<path d="M35.5731 14.8790
L35.5126 15.0000
" />
<path d="M35.5126 15.0000
L35.4521 15.0604
" />
<path d="M35.4521 15.0604
L35.3312 15.1209
" />
<path d="M35.3312 15.1209
L35.0893 15.1209
" />
<path d="M35.0893 15.1209
L34.9683 15.1814
" />
<path d="M34.9683 15.1814
L34.9078 15.2419
" />
<path d="M34.9078 15.2419
L34.8474 15.3628
" />
<path d="M34.8474 15.3628
L34.8474 15.6047
" />
<path d="M34.8474 15.6047
L34.9078 15.7257
" />
<path d="M34.9078 15.7257
L34.9683 15.7862
" />
<path d="M34.9683 15.7862
L35.0893 15.8466
" />
<path d="M35.0893 15.8466
L35.3312 15.8466
" />
<path d="M35.3312 15.8466
L35.4521 15.7862
" />
<path d="M35.4521 15.7862
L35.5126 15.7257
" />
<path d="M35.5126 15.7257
L35.5731 15.6047
" />
<path d="M35.5731 15.6047
L35.5731 15.3628
" />
<path d="M35.5731 15.3628
L35.5126 15.2419
" />
<path d="M35.5126 15.2419
L35.4521 15.1814
" />
<path d="M35.4521 15.1814
L35.3312 15.1209
" />
</g></g>
<g style="fill:#840000; fill-opacity:0.0; 
stroke:#840000; stroke-width:0.1524; stroke-opacity:1; 
stroke-linecap:round; stroke-linejoin:round;">
<path d="M12.3502 13.7161
L7.2702 13.7161
" />
</g>
<g style="fill:#006464; fill-opacity:0.0; 
stroke:#006464; stroke-width:0.1524; stroke-opacity:1; 
stroke-linecap:round; stroke-linejoin:round;">
<text x="13.3662" y="14.3511"
textLength="3.8765" font-size="1.6933" lengthAdjust="spacingAndGlyphs"
text-anchor="start" opacity="0">Rint</text>
<g class="stroked-text"><desc>Rint</desc>
<path d="M14.3942 14.3036
L13.9709 13.6989
" />
<path d="M13.6685 14.3036
L13.6685 13.0336
" />
<path d="M13.6685 13.0336
L14.1523 13.0336
" />
<path d="M14.1523 13.0336
L14.2733 13.0941
" />
<path d="M14.2733 13.0941
L14.3338 13.1546
" />
<path d="M14.3338 13.1546
L14.3942 13.2755
" />
<path d="M14.3942 13.2755
L14.3942 13.4570
" />
<path d="M14.3942 13.4570
L14.3338 13.5779
" />
<path d="M14.3338 13.5779
L14.2733 13.6384
" />
<path d="M14.2733 13.6384
L14.1523 13.6989
" />
<path d="M14.1523 13.6989
L13.6685 13.6989
" />
<path d="M14.9385 14.3036
L14.9385 13.4570
" />
<path d="M14.9385 13.0336
L14.8781 13.0941
" />
<path d="M14.8781 13.0941
L14.9385 13.1546
" />
<path d="M14.9385 13.1546
L14.9990 13.0941
" />
<path d="M14.9990 13.0941
L14.9385 13.0336
" />
<path d="M14.9385 13.0336
L14.9385 13.1546
" />
<path d="M15.5433 13.4570
L15.5433 14.3036
" />
<path d="M15.5433 13.5779
L15.6038 13.5174
" />
<path d="M15.6038 13.5174
L15.7248 13.4570
" />
<path d="M15.7248 13.4570
L15.9062 13.4570
" />
<path d="M15.9062 13.4570
L16.0271 13.5174
" />
<path d="M16.0271 13.5174
L16.0876 13.6384
" />
<path d="M16.0876 13.6384
L16.0876 14.3036
" />
<path d="M16.5109 13.4570
L16.9947 13.4570
" />
<path d="M16.6923 13.0336
L16.6923 14.1222
" />
<path d="M16.6923 14.1222
L16.7528 14.2432
" />
<path d="M16.7528 14.2432
L16.8738 14.3036
" />
<path d="M16.8738 14.3036
L16.9947 14.3036
" />
</g></g>
<g style="fill:#A90000; fill-opacity:0.0; 
stroke:#A90000; stroke-width:0.1524; stroke-opacity:1; 
stroke-linecap:round; stroke-linejoin:round;">
<text x="9.8102" y="13.4621"
textLength="1.3365" font-size="1.6933" lengthAdjust="spacingAndGlyphs"
text-anchor="middle" opacity="0">9</text>
<g class="stroked-text"><desc>9</desc>
<path d="M9.5683 13.3066
L9.8102 13.3066
" />
<path d="M9.8102 13.3066
L9.9312 13.2462
" />
<path d="M9.9312 13.2462
L9.9916 13.1857
" />
<path d="M9.9916 13.1857
L10.1126 13.0042
" />
<path d="M10.1126 13.0042
L10.1731 12.7623
" />
<path d="M10.1731 12.7623
L10.1731 12.2785
" />
<path d="M10.1731 12.2785
L10.1126 12.1576
" />
<path d="M10.1126 12.1576
L10.0521 12.0971
" />
<path d="M10.0521 12.0971
L9.9312 12.0366
" />
<path d="M9.9312 12.0366
L9.6893 12.0366
" />
<path d="M9.6893 12.0366
L9.5683 12.0971
" />
<path d="M9.5683 12.0971
L9.5078 12.1576
" />
<path d="M9.5078 12.1576
L9.4474 12.2785
" />
<path d="M9.4474 12.2785
L9.4474 12.5809
" />
<path d="M9.4474 12.5809
L9.5078 12.7019
" />
<path d="M9.5078 12.7019
L9.5683 12.7623
" />
<path d="M9.5683 12.7623
L9.6893 12.8228
" />
<path d="M9.6893 12.8228
L9.9312 12.8228
" />
<path d="M9.9312 12.8228
L10.0521 12.7623
" />
<path d="M10.0521 12.7623
L10.1126 12.7019
" />
<path d="M10.1126 12.7019
L10.1731 12.5809
" />
</g></g>
<g style="fill:#840084; fill-opacity:0.0; 
stroke:#840084; stroke-width:0.1524; stroke-opacity:1; 
stroke-linecap:round; stroke-linejoin:round;">
</g>
<g style="fill:#006464; fill-opacity:0.0; 
stroke:#006464; stroke-width:0.1524; stroke-opacity:1; 
stroke-linecap:round; stroke-linejoin:round;">
</g>
<g style="fill:#006464; fill-opacity:0.0; 
stroke:#006464; stroke-width:0.1588; stroke-opacity:1; 
stroke-linecap:round; stroke-linejoin:round;">
<text x="14.8902" y="8.0011"
textLength="2.5621" font-size="1.6933" lengthAdjust="spacingAndGlyphs"
text-anchor="middle" opacity="0">U?</text>
<g class="stroked-text"><desc>U?</desc>
<path d="M13.9830 6.6836
L13.9830 7.7117
" />
<path d="M13.9830 7.7117
L14.0435 7.8327
" />
<path d="M14.0435 7.8327
L14.1040 7.8932
" />
<path d="M14.1040 7.8932
L14.2249 7.9536
" />
<path d="M14.2249 7.9536
L14.4668 7.9536
" />
<path d="M14.4668 7.9536
L14.5878 7.8932
" />
<path d="M14.5878 7.8932
L14.6483 7.8327
" />
<path d="M14.6483 7.8327
L14.7087 7.7117
" />
<path d="M14.7087 7.7117
L14.7087 6.6836
" />
<path d="M15.4950 7.8327
L15.5554 7.8932
" />
<path d="M15.5554 7.8932
L15.4950 7.9536
" />
<path d="M15.4950 7.9536
L15.4345 7.8932
" />
<path d="M15.4345 7.8932
L15.4950 7.8327
" />
<path d="M15.4950 7.8327
L15.4950 7.9536
" />
<path d="M15.2531 6.7441
L15.3740 6.6836
" />
<path d="M15.3740 6.6836
L15.6764 6.6836
" />
<path d="M15.6764 6.6836
L15.7973 6.7441
" />
<path d="M15.7973 6.7441
L15.8578 6.8651
" />
<path d="M15.8578 6.8651
L15.8578 6.9860
" />
<path d="M15.8578 6.9860
L15.7973 7.1070
" />
<path d="M15.7973 7.1070
L15.7369 7.1674
" />
<path d="M15.7369 7.1674
L15.6159 7.2279
" />
<path d="M15.6159 7.2279
L15.5554 7.2884
" />
<path d="M15.5554 7.2884
L15.4950 7.4093
" />
<path d="M15.4950 7.4093
L15.4950 7.4698
" />
</g><text x="14.8902" y="35.9411"
textLength="8.4281" font-size="1.6933" lengthAdjust="spacingAndGlyphs"
text-anchor="middle" opacity="0">74LS122</text>
<g class="stroked-text"><desc>74LS122</desc>
<path d="M10.9291 34.6236
L11.7757 34.6236
" />
<path d="M11.7757 34.6236
L11.2315 35.8936
" />
<path d="M12.8038 35.0470
L12.8038 35.8936
" />
<path d="M12.5014 34.5632
L12.1991 35.4703
" />
<path d="M12.1991 35.4703
L12.9852 35.4703
" />
<path d="M14.0738 35.8936
L13.4690 35.8936
" />
<path d="M13.4690 35.8936
L13.4690 34.6236
" />
<path d="M14.4367 35.8332
L14.6181 35.8936
" />
<path d="M14.6181 35.8936
L14.9205 35.8936
" />
<path d="M14.9205 35.8936
L15.0414 35.8332
" />
<path d="M15.0414 35.8332
L15.1019 35.7727
" />
<path d="M15.1019 35.7727
L15.1624 35.6517
" />
<path d="M15.1624 35.6517
L15.1624 35.5308
" />
<path d="M15.1624 35.5308
L15.1019 35.4098
" />
<path d="M15.1019 35.4098
L15.0414 35.3493
" />
<path d="M15.0414 35.3493
L14.9205 35.2889
" />
<path d="M14.9205 35.2889
L14.6786 35.2284
" />
<path d="M14.6786 35.2284
L14.5576 35.1679
" />
<path d="M14.5576 35.1679
L14.4971 35.1074
" />
<path d="M14.4971 35.1074
L14.4367 34.9865
" />
<path d="M14.4367 34.9865
L14.4367 34.8655
" />
<path d="M14.4367 34.8655
L14.4971 34.7446
" />
<path d="M14.4971 34.7446
L14.5576 34.6841
" />
<path d="M14.5576 34.6841
L14.6786 34.6236
" />
<path d="M14.6786 34.6236
L14.9809 34.6236
" />
<path d="M14.9809 34.6236
L15.1624 34.6841
" />
<path d="M16.3719 35.8936
L15.6462 35.8936
" />
<path d="M16.0090 35.8936
L16.0090 34.6236
" />
<path d="M16.0090 34.6236
L15.8881 34.8051
" />
<path d="M15.8881 34.8051
L15.7671 34.9260
" />
<path d="M15.7671 34.9260
L15.6462 34.9865
" />
<path d="M16.8557 34.7446
L16.9161 34.6841
" />
<path d="M16.9161 34.6841
L17.0371 34.6236
" />
<path d="M17.0371 34.6236
L17.3395 34.6236
" />
<path d="M17.3395 34.6236
L17.4604 34.6841
" />
<path d="M17.4604 34.6841
L17.5209 34.7446
" />
<path d="M17.5209 34.7446
L17.5814 34.8655
" />
<path d="M17.5814 34.8655
L17.5814 34.9865
" />
<path d="M17.5814 34.9865
L17.5209 35.1679
" />
<path d="M17.5209 35.1679
L16.7952 35.8936
" />
<path d="M16.7952 35.8936
L17.5814 35.8936
" />
<path d="M18.0652 34.7446
L18.1256 34.6841
" />
<path d="M18.1256 34.6841
L18.2466 34.6236
" />
<path d="M18.2466 34.6236
L18.5490 34.6236
" />
<path d="M18.5490 34.6236
L18.6699 34.6841
" />
<path d="M18.6699 34.6841
L18.7304 34.7446
" />
<path d="M18.7304 34.7446
L18.7909 34.8655
" />
<path d="M18.7909 34.8655
L18.7909 34.9865
" />
<path d="M18.7909 34.9865
L18.7304 35.1679
" />
<path d="M18.7304 35.1679
L18.0047 35.8936
" />
<path d="M18.0047 35.8936
L18.7909 35.8936
" />
</g></g>
<g style="fill:#840084; fill-opacity:0.0; 
stroke:#840084; stroke-width:0.1588; stroke-opacity:1; 
stroke-linecap:round; stroke-linejoin:round;">
<text x="22.5102" y="21.9711"
textLength="37.5171" font-size="1.6933" lengthAdjust="spacingAndGlyphs"
text-anchor="middle" opacity="0">http://www.ti.com/lit/gpn/sn74LS122</text>
<g class="stroked-text"><desc>http://www.ti.com/lit/gpn/sn74LS122</desc>
<path d="M4.1255 21.9236
L4.1255 20.6536
" />
<path d="M4.6698 21.9236
L4.6698 21.2584
" />
<path d="M4.6698 21.2584
L4.6093 21.1374
" />
<path d="M4.6093 21.1374
L4.4884 21.0770
" />
<path d="M4.4884 21.0770
L4.3070 21.0770
" />
<path d="M4.3070 21.0770
L4.1860 21.1374
" />
<path d="M4.1860 21.1374
L4.1255 21.1979
" />
<path d="M5.0931 21.0770
L5.5769 21.0770
" />
<path d="M5.2745 20.6536
L5.2745 21.7422
" />
<path d="M5.2745 21.7422
L5.3350 21.8632
" />
<path d="M5.3350 21.8632
L5.4560 21.9236
" />
<path d="M5.4560 21.9236
L5.5769 21.9236
" />
<path d="M5.8188 21.0770
L6.3026 21.0770
" />
<path d="M6.0002 20.6536
L6.0002 21.7422
" />
<path d="M6.0002 21.7422
L6.0607 21.8632
" />
<path d="M6.0607 21.8632
L6.1817 21.9236
" />
<path d="M6.1817 21.9236
L6.3026 21.9236
" />
<path d="M6.7259 21.0770
L6.7259 22.3470
" />
<path d="M6.7259 21.1374
L6.8469 21.0770
" />
<path d="M6.8469 21.0770
L7.0888 21.0770
" />
<path d="M7.0888 21.0770
L7.2097 21.1374
" />
<path d="M7.2097 21.1374
L7.2702 21.1979
" />
<path d="M7.2702 21.1979
L7.3307 21.3189
" />
<path d="M7.3307 21.3189
L7.3307 21.6817
" />
<path d="M7.3307 21.6817
L7.2702 21.8027
" />
<path d="M7.2702 21.8027
L7.2097 21.8632
" />
<path d="M7.2097 21.8632
L7.0888 21.9236
" />
<path d="M7.0888 21.9236
L6.8469 21.9236
" />
<path d="M6.8469 21.9236
L6.7259 21.8632
" />
<path d="M7.8749 21.8027
L7.9354 21.8632
" />
<path d="M7.9354 21.8632
L7.8749 21.9236
" />
<path d="M7.8749 21.9236
L7.8145 21.8632
" />
<path d="M7.8145 21.8632
L7.8749 21.8027
" />
<path d="M7.8749 21.8027
L7.8749 21.9236
" />
<path d="M7.8749 21.1374
L7.9354 21.1979
" />
<path d="M7.9354 21.1979
L7.8749 21.2584
" />
<path d="M7.8749 21.2584
L7.8145 21.1979
" />
<path d="M7.8145 21.1979
L7.8749 21.1374
" />
<path d="M7.8749 21.1374
L7.8749 21.2584
" />
<path d="M9.3869 20.5932
L8.2983 22.2260
" />
<path d="M10.7174 20.5932
L9.6288 22.2260
" />
<path d="M11.0198 21.0770
L11.2617 21.9236
" />
<path d="M11.2617 21.9236
L11.5036 21.3189
" />
<path d="M11.5036 21.3189
L11.7455 21.9236
" />
<path d="M11.7455 21.9236
L11.9874 21.0770
" />
<path d="M12.3503 21.0770
L12.5922 21.9236
" />
<path d="M12.5922 21.9236
L12.8341 21.3189
" />
<path d="M12.8341 21.3189
L13.0760 21.9236
" />
<path d="M13.0760 21.9236
L13.3179 21.0770
" />
<path d="M13.6808 21.0770
L13.9227 21.9236
" />
<path d="M13.9227 21.9236
L14.1646 21.3189
" />
<path d="M14.1646 21.3189
L14.4065 21.9236
" />
<path d="M14.4065 21.9236
L14.6484 21.0770
" />
<path d="M15.1322 21.8027
L15.1927 21.8632
" />
<path d="M15.1927 21.8632
L15.1322 21.9236
" />
<path d="M15.1322 21.9236
L15.0718 21.8632
" />
<path d="M15.0718 21.8632
L15.1322 21.8027
" />
<path d="M15.1322 21.8027
L15.1322 21.9236
" />
<path d="M15.5556 21.0770
L16.0394 21.0770
" />
<path d="M15.7370 20.6536
L15.7370 21.7422
" />
<path d="M15.7370 21.7422
L15.7975 21.8632
" />
<path d="M15.7975 21.8632
L15.9185 21.9236
" />
<path d="M15.9185 21.9236
L16.0394 21.9236
" />
<path d="M16.4627 21.9236
L16.4627 21.0770
" />
<path d="M16.4627 20.6536
L16.4023 20.7141
" />
<path d="M16.4023 20.7141
L16.4627 20.7746
" />
<path d="M16.4627 20.7746
L16.5232 20.7141
" />
<path d="M16.5232 20.7141
L16.4627 20.6536
" />
<path d="M16.4627 20.6536
L16.4627 20.7746
" />
<path d="M17.0675 21.8027
L17.1280 21.8632
" />
<path d="M17.1280 21.8632
L17.0675 21.9236
" />
<path d="M17.0675 21.9236
L17.0071 21.8632
" />
<path d="M17.0071 21.8632
L17.0675 21.8027
" />
<path d="M17.0675 21.8027
L17.0675 21.9236
" />
<path d="M18.2166 21.8632
L18.0957 21.9236
" />
<path d="M18.0957 21.9236
L17.8538 21.9236
" />
<path d="M17.8538 21.9236
L17.7328 21.8632
" />
<path d="M17.7328 21.8632
L17.6723 21.8027
" />
<path d="M17.6723 21.8027
L17.6119 21.6817
" />
<path d="M17.6119 21.6817
L17.6119 21.3189
" />
<path d="M17.6119 21.3189
L17.6723 21.1979
" />
<path d="M17.6723 21.1979
L17.7328 21.1374
" />
<path d="M17.7328 21.1374
L17.8538 21.0770
" />
<path d="M17.8538 21.0770
L18.0957 21.0770
" />
<path d="M18.0957 21.0770
L18.2166 21.1374
" />
<path d="M18.9424 21.9236
L18.8214 21.8632
" />
<path d="M18.8214 21.8632
L18.7609 21.8027
" />
<path d="M18.7609 21.8027
L18.7005 21.6817
" />
<path d="M18.7005 21.6817
L18.7005 21.3189
" />
<path d="M18.7005 21.3189
L18.7609 21.1979
" />
<path d="M18.7609 21.1979
L18.8214 21.1374
" />
<path d="M18.8214 21.1374
L18.9424 21.0770
" />
<path d="M18.9424 21.0770
L19.1238 21.0770
" />
<path d="M19.1238 21.0770
L19.2447 21.1374
" />
<path d="M19.2447 21.1374
L19.3052 21.1979
" />
<path d="M19.3052 21.1979
L19.3657 21.3189
" />
<path d="M19.3657 21.3189
L19.3657 21.6817
" />
<path d="M19.3657 21.6817
L19.3052 21.8027
" />
<path d="M19.3052 21.8027
L19.2447 21.8632
" />
<path d="M19.2447 21.8632
L19.1238 21.9236
" />
<path d="M19.1238 21.9236
L18.9424 21.9236
" />
<path d="M19.9099 21.9236
L19.9099 21.0770
" />
<path d="M19.9099 21.1979
L19.9704 21.1374
" />
<path d="M19.9704 21.1374
L20.0914 21.0770
" />
<path d="M20.0914 21.0770
L20.2728 21.0770
" />
<path d="M20.2728 21.0770
L20.3937 21.1374
" />
<path d="M20.3937 21.1374
L20.4542 21.2584
" />
<path d="M20.4542 21.2584
L20.4542 21.9236
" />
<path d="M20.4542 21.2584
L20.5147 21.1374
" />
<path d="M20.5147 21.1374
L20.6356 21.0770
" />
<path d="M20.6356 21.0770
L20.8171 21.0770
" />
<path d="M20.8171 21.0770
L20.9380 21.1374
" />
<path d="M20.9380 21.1374
L20.9985 21.2584
" />
<path d="M20.9985 21.2584
L20.9985 21.9236
" />
<path d="M22.5104 20.5932
L21.4218 22.2260
" />
<path d="M23.1152 21.9236
L22.9942 21.8632
" />
<path d="M22.9942 21.8632
L22.9337 21.7422
" />
<path d="M22.9337 21.7422
L22.9337 20.6536
" />
<path d="M23.5989 21.9236
L23.5989 21.0770
" />
<path d="M23.5989 20.6536
L23.5385 20.7141
" />
<path d="M23.5385 20.7141
L23.5989 20.7746
" />
<path d="M23.5989 20.7746
L23.6594 20.7141
" />
<path d="M23.6594 20.7141
L23.5989 20.6536
" />
<path d="M23.5989 20.6536
L23.5989 20.7746
" />
<path d="M24.0223 21.0770
L24.5061 21.0770
" />
<path d="M24.2037 20.6536
L24.2037 21.7422
" />
<path d="M24.2037 21.7422
L24.2642 21.8632
" />
<path d="M24.2642 21.8632
L24.3852 21.9236
" />
<path d="M24.3852 21.9236
L24.5061 21.9236
" />
<path d="M25.8366 20.5932
L24.7480 22.2260
" />
<path d="M26.8042 21.0770
L26.8042 22.1051
" />
<path d="M26.8042 22.1051
L26.7437 22.2260
" />
<path d="M26.7437 22.2260
L26.6833 22.2865
" />
<path d="M26.6833 22.2865
L26.5623 22.3470
" />
<path d="M26.5623 22.3470
L26.3809 22.3470
" />
<path d="M26.3809 22.3470
L26.2599 22.2865
" />
<path d="M26.8042 21.8632
L26.6833 21.9236
" />
<path d="M26.6833 21.9236
L26.4414 21.9236
" />
<path d="M26.4414 21.9236
L26.3204 21.8632
" />
<path d="M26.3204 21.8632
L26.2599 21.8027
" />
<path d="M26.2599 21.8027
L26.1995 21.6817
" />
<path d="M26.1995 21.6817
L26.1995 21.3189
" />
<path d="M26.1995 21.3189
L26.2599 21.1979
" />
<path d="M26.2599 21.1979
L26.3204 21.1374
" />
<path d="M26.3204 21.1374
L26.4414 21.0770
" />
<path d="M26.4414 21.0770
L26.6833 21.0770
" />
<path d="M26.6833 21.0770
L26.8042 21.1374
" />
<path d="M27.4089 21.0770
L27.4089 22.3470
" />
<path d="M27.4089 21.1374
L27.5299 21.0770
" />
<path d="M27.5299 21.0770
L27.7718 21.0770
" />
<path d="M27.7718 21.0770
L27.8927 21.1374
" />
<path d="M27.8927 21.1374
L27.9532 21.1979
" />
<path d="M27.9532 21.1979
L28.0137 21.3189
" />
<path d="M28.0137 21.3189
L28.0137 21.6817
" />
<path d="M28.0137 21.6817
L27.9532 21.8027
" />
<path d="M27.9532 21.8027
L27.8927 21.8632
" />
<path d="M27.8927 21.8632
L27.7718 21.9236
" />
<path d="M27.7718 21.9236
L27.5299 21.9236
" />
<path d="M27.5299 21.9236
L27.4089 21.8632
" />
<path d="M28.5579 21.0770
L28.5579 21.9236
" />
<path d="M28.5579 21.1979
L28.6184 21.1374
" />
<path d="M28.6184 21.1374
L28.7394 21.0770
" />
<path d="M28.7394 21.0770
L28.9208 21.0770
" />
<path d="M28.9208 21.0770
L29.0417 21.1374
" />
<path d="M29.0417 21.1374
L29.1022 21.2584
" />
<path d="M29.1022 21.2584
L29.1022 21.9236
" />
<path d="M30.6141 20.5932
L29.5255 22.2260
" />
<path d="M30.9770 21.8632
L31.0979 21.9236
" />
<path d="M31.0979 21.9236
L31.3398 21.9236
" />
<path d="M31.3398 21.9236
L31.4608 21.8632
" />
<path d="M31.4608 21.8632
L31.5212 21.7422
" />
<path d="M31.5212 21.7422
L31.5212 21.6817
" />
<path d="M31.5212 21.6817
L31.4608 21.5608
" />
<path d="M31.4608 21.5608
L31.3398 21.5003
" />
<path d="M31.3398 21.5003
L31.1584 21.5003
" />
<path d="M31.1584 21.5003
L31.0374 21.4398
" />
<path d="M31.0374 21.4398
L30.9770 21.3189
" />
<path d="M30.9770 21.3189
L30.9770 21.2584
" />
<path d="M30.9770 21.2584
L31.0374 21.1374
" />
<path d="M31.0374 21.1374
L31.1584 21.0770
" />
<path d="M31.1584 21.0770
L31.3398 21.0770
" />
<path d="M31.3398 21.0770
L31.4608 21.1374
" />
<path d="M32.0655 21.0770
L32.0655 21.9236
" />
<path d="M32.0655 21.1979
L32.1260 21.1374
" />
<path d="M32.1260 21.1374
L32.2470 21.0770
" />
<path d="M32.2470 21.0770
L32.4284 21.0770
" />
<path d="M32.4284 21.0770
L32.5493 21.1374
" />
<path d="M32.5493 21.1374
L32.6098 21.2584
" />
<path d="M32.6098 21.2584
L32.6098 21.9236
" />
<path d="M33.0936 20.6536
L33.9402 20.6536
" />
<path d="M33.9402 20.6536
L33.3960 21.9236
" />
<path d="M34.9683 21.0770
L34.9683 21.9236
" />
<path d="M34.6659 20.5932
L34.3636 21.5003
" />
<path d="M34.3636 21.5003
L35.1497 21.5003
" />
<path d="M36.2383 21.9236
L35.6335 21.9236
" />
<path d="M35.6335 21.9236
L35.6335 20.6536
" />
<path d="M36.6012 21.8632
L36.7826 21.9236
" />
<path d="M36.7826 21.9236
L37.0850 21.9236
" />
<path d="M37.0850 21.9236
L37.2059 21.8632
" />
<path d="M37.2059 21.8632
L37.2664 21.8027
" />
<path d="M37.2664 21.8027
L37.3269 21.6817
" />
<path d="M37.3269 21.6817
L37.3269 21.5608
" />
<path d="M37.3269 21.5608
L37.2664 21.4398
" />
<path d="M37.2664 21.4398
L37.2059 21.3793
" />
<path d="M37.2059 21.3793
L37.0850 21.3189
" />
<path d="M37.0850 21.3189
L36.8431 21.2584
" />
<path d="M36.8431 21.2584
L36.7221 21.1979
" />
<path d="M36.7221 21.1979
L36.6616 21.1374
" />
<path d="M36.6616 21.1374
L36.6012 21.0165
" />
<path d="M36.6012 21.0165
L36.6012 20.8955
" />
<path d="M36.6012 20.8955
L36.6616 20.7746
" />
<path d="M36.6616 20.7746
L36.7221 20.7141
" />
<path d="M36.7221 20.7141
L36.8431 20.6536
" />
<path d="M36.8431 20.6536
L37.1454 20.6536
" />
<path d="M37.1454 20.6536
L37.3269 20.7141
" />
<path d="M38.5364 21.9236
L37.8107 21.9236
" />
<path d="M38.1735 21.9236
L38.1735 20.6536
" />
<path d="M38.1735 20.6536
L38.0526 20.8351
" />
<path d="M38.0526 20.8351
L37.9316 20.9560
" />
<path d="M37.9316 20.9560
L37.8107 21.0165
" />
<path d="M39.0202 20.7746
L39.0806 20.7141
" />
<path d="M39.0806 20.7141
L39.2016 20.6536
" />
<path d="M39.2016 20.6536
L39.5040 20.6536
" />
<path d="M39.5040 20.6536
L39.6249 20.7141
" />
<path d="M39.6249 20.7141
L39.6854 20.7746
" />
<path d="M39.6854 20.7746
L39.7459 20.8955
" />
<path d="M39.7459 20.8955
L39.7459 21.0165
" />
<path d="M39.7459 21.0165
L39.6854 21.1979
" />
<path d="M39.6854 21.1979
L38.9597 21.9236
" />
<path d="M38.9597 21.9236
L39.7459 21.9236
" />
<path d="M40.2297 20.7746
L40.2901 20.7141
" />
<path d="M40.2901 20.7141
L40.4111 20.6536
" />
<path d="M40.4111 20.6536
L40.7135 20.6536
" />
<path d="M40.7135 20.6536
L40.8344 20.7141
" />
<path d="M40.8344 20.7141
L40.8949 20.7746
" />
<path d="M40.8949 20.7746
L40.9554 20.8955
" />
<path d="M40.9554 20.8955
L40.9554 21.0165
" />
<path d="M40.9554 21.0165
L40.8949 21.1979
" />
<path d="M40.8949 21.1979
L40.1692 21.9236
" />
<path d="M40.1692 21.9236
L40.9554 21.9236
" />
</g></g> 
</svg>
