<?xml version="1.0" standalone="no"?>
 <!DOCTYPE svg PUBLIC "-//W3C//DTD SVG 1.1//EN" 
 "http://www.w3.org/Graphics/SVG/1.1/DTD/svg11.dtd"> 
<svg
  xmlns:svg="http://www.w3.org/2000/svg"
  xmlns="http://www.w3.org/2000/svg"
  xmlns:xlink="http://www.w3.org/1999/xlink"
  version="1.1"
  width="24.2824mm" height="7.0358mm" viewBox="0.0000 0.0000 24.2824 7.0358">
<title>SVG Image created as working.svg date 2023/08/04 09:25:21 </title>
  <desc>Image generated by Eeschema-SVG </desc>
<g style="fill:#000000; fill-opacity:1.0000;stroke:#000000; stroke-opacity:1.0000;
stroke-linecap:round; stroke-linejoin:round;"
 transform="translate(0 0) scale(1 1)">
</g>
<g style="fill:#840000; fill-opacity:0.0; 
stroke:#840000; stroke-width:0.0000; stroke-opacity:1; 
stroke-linecap:round; stroke-linejoin:round;">
</g>
<g style="fill:#840084; fill-opacity:0.0; 
stroke:#840084; stroke-width:0.0000; stroke-opacity:1; 
stroke-linecap:round; stroke-linejoin:round;">
</g>
<g style="fill:#840000; fill-opacity:0.0; 
stroke:#840000; stroke-width:0.0000; stroke-opacity:1; 
stroke-linecap:round; stroke-linejoin:round;">
</g>
<g style="fill:#840000; fill-opacity:0.0; 
stroke:#840000; stroke-width:0.2540; stroke-opacity:1; 
stroke-linecap:round; stroke-linejoin:round;">
<path style="fill:#840000; fill-opacity:0.0; 
stroke:#840000; stroke-width:0.2540; stroke-opacity:1; 
stroke-linecap:round; stroke-linejoin:round;fill:none"
d="M 13.6678,4.4009
10.3658,1.0989
" /> 
</g>
<g style="fill:#840000; fill-opacity:1.0000; 
stroke:#840000; stroke-width:0.1524; stroke-opacity:1; 
stroke-linecap:round; stroke-linejoin:round;">
<path style="fill:#840000; fill-opacity:1.0000; 
stroke:#840000; stroke-width:0.1524; stroke-opacity:1; 
stroke-linecap:round; stroke-linejoin:round;fill-rule:evenodd;"
d="M 13.9218,4.6549
12.3978,3.8929
13.1598,3.1309
Z" /> 
</g>
<g style="fill:#840084; fill-opacity:1.0000; 
stroke:#840084; stroke-width:0.1524; stroke-opacity:1; 
stroke-linecap:round; stroke-linejoin:round;">
</g>
<g style="fill:#006464; fill-opacity:0.0; 
stroke:#006464; stroke-width:0.1524; stroke-opacity:1; 
stroke-linecap:round; stroke-linejoin:round;">
</g>
<g style="fill:#006464; fill-opacity:0.0; 
stroke:#006464; stroke-width:0.1588; stroke-opacity:1; 
stroke-linecap:round; stroke-linejoin:round;">
<text x="15.9538" y="2.2419"
textLength="6.3305" font-size="1.6933" lengthAdjust="spacingAndGlyphs"
text-anchor="middle" opacity="0">#SYM?</text>
<g class="stroked-text"><desc>#SYM?</desc>
<path d="M13.1417 1.3395
L14.0488 1.3395
" />
<path d="M13.5045 0.7952
L13.1417 2.4280
" />
<path d="M13.9278 1.8837
L13.0207 1.8837
" />
<path d="M13.5650 2.4280
L13.9278 0.7952
" />
<path d="M14.4117 2.1257
L14.5931 2.1861
" />
<path d="M14.5931 2.1861
L14.8955 2.1861
" />
<path d="M14.8955 2.1861
L15.0164 2.1257
" />
<path d="M15.0164 2.1257
L15.0769 2.0652
" />
<path d="M15.0769 2.0652
L15.1374 1.9442
" />
<path d="M15.1374 1.9442
L15.1374 1.8233
" />
<path d="M15.1374 1.8233
L15.0769 1.7023
" />
<path d="M15.0769 1.7023
L15.0164 1.6418
" />
<path d="M15.0164 1.6418
L14.8955 1.5814
" />
<path d="M14.8955 1.5814
L14.6536 1.5209
" />
<path d="M14.6536 1.5209
L14.5326 1.4604
" />
<path d="M14.5326 1.4604
L14.4721 1.3999
" />
<path d="M14.4721 1.3999
L14.4117 1.2790
" />
<path d="M14.4117 1.2790
L14.4117 1.1580
" />
<path d="M14.4117 1.1580
L14.4721 1.0371
" />
<path d="M14.4721 1.0371
L14.5326 0.9766
" />
<path d="M14.5326 0.9766
L14.6536 0.9161
" />
<path d="M14.6536 0.9161
L14.9559 0.9161
" />
<path d="M14.9559 0.9161
L15.1374 0.9766
" />
<path d="M15.9235 1.5814
L15.9235 2.1861
" />
<path d="M15.5002 0.9161
L15.9235 1.5814
" />
<path d="M15.9235 1.5814
L16.3469 0.9161
" />
<path d="M16.7702 2.1861
L16.7702 0.9161
" />
<path d="M16.7702 0.9161
L17.1936 1.8233
" />
<path d="M17.1936 1.8233
L17.6169 0.9161
" />
<path d="M17.6169 0.9161
L17.6169 2.1861
" />
<path d="M18.4031 2.0652
L18.4635 2.1257
" />
<path d="M18.4635 2.1257
L18.4031 2.1861
" />
<path d="M18.4031 2.1861
L18.3426 2.1257
" />
<path d="M18.3426 2.1257
L18.4031 2.0652
" />
<path d="M18.4031 2.0652
L18.4031 2.1861
" />
<path d="M18.1612 0.9766
L18.2821 0.9161
" />
<path d="M18.2821 0.9161
L18.5845 0.9161
" />
<path d="M18.5845 0.9161
L18.7054 0.9766
" />
<path d="M18.7054 0.9766
L18.7659 1.0976
" />
<path d="M18.7659 1.0976
L18.7659 1.2185
" />
<path d="M18.7659 1.2185
L18.7054 1.3395
" />
<path d="M18.7054 1.3395
L18.6450 1.3999
" />
<path d="M18.6450 1.3999
L18.5240 1.4604
" />
<path d="M18.5240 1.4604
L18.4635 1.5209
" />
<path d="M18.4635 1.5209
L18.4031 1.6418
" />
<path d="M18.4031 1.6418
L18.4031 1.7023
" />
</g><text x="12.1438" y="6.0519"
textLength="20.2398" font-size="1.6933" lengthAdjust="spacingAndGlyphs"
text-anchor="middle" opacity="0">SYM_Arrow45_Normal</text>
<g class="stroked-text"><desc>SYM_Arrow45_Normal</desc>
<path d="M2.3770 5.9357
L2.5584 5.9961
" />
<path d="M2.5584 5.9961
L2.8608 5.9961
" />
<path d="M2.8608 5.9961
L2.9817 5.9357
" />
<path d="M2.9817 5.9357
L3.0422 5.8752
" />
<path d="M3.0422 5.8752
L3.1027 5.7542
" />
<path d="M3.1027 5.7542
L3.1027 5.6333
" />
<path d="M3.1027 5.6333
L3.0422 5.5123
" />
<path d="M3.0422 5.5123
L2.9817 5.4518
" />
<path d="M2.9817 5.4518
L2.8608 5.3914
" />
<path d="M2.8608 5.3914
L2.6189 5.3309
" />
<path d="M2.6189 5.3309
L2.4979 5.2704
" />
<path d="M2.4979 5.2704
L2.4374 5.2099
" />
<path d="M2.4374 5.2099
L2.3770 5.0890
" />
<path d="M2.3770 5.0890
L2.3770 4.9680
" />
<path d="M2.3770 4.9680
L2.4374 4.8471
" />
<path d="M2.4374 4.8471
L2.4979 4.7866
" />
<path d="M2.4979 4.7866
L2.6189 4.7261
" />
<path d="M2.6189 4.7261
L2.9212 4.7261
" />
<path d="M2.9212 4.7261
L3.1027 4.7866
" />
<path d="M3.8888 5.3914
L3.8888 5.9961
" />
<path d="M3.4655 4.7261
L3.8888 5.3914
" />
<path d="M3.8888 5.3914
L4.3122 4.7261
" />
<path d="M4.7355 5.9961
L4.7355 4.7261
" />
<path d="M4.7355 4.7261
L5.1589 5.6333
" />
<path d="M5.1589 5.6333
L5.5822 4.7261
" />
<path d="M5.5822 4.7261
L5.5822 5.9961
" />
<path d="M5.8846 6.1171
L6.8522 6.1171
" />
<path d="M7.0941 5.6333
L7.6988 5.6333
" />
<path d="M6.9731 5.9961
L7.3964 4.7261
" />
<path d="M7.3964 4.7261
L7.8198 5.9961
" />
<path d="M8.2431 5.9961
L8.2431 5.1495
" />
<path d="M8.2431 5.3914
L8.3036 5.2704
" />
<path d="M8.3036 5.2704
L8.3641 5.2099
" />
<path d="M8.3641 5.2099
L8.4850 5.1495
" />
<path d="M8.4850 5.1495
L8.6060 5.1495
" />
<path d="M9.0293 5.9961
L9.0293 5.1495
" />
<path d="M9.0293 5.3914
L9.0898 5.2704
" />
<path d="M9.0898 5.2704
L9.1503 5.2099
" />
<path d="M9.1503 5.2099
L9.2712 5.1495
" />
<path d="M9.2712 5.1495
L9.3922 5.1495
" />
<path d="M9.9970 5.9961
L9.8760 5.9357
" />
<path d="M9.8760 5.9357
L9.8155 5.8752
" />
<path d="M9.8155 5.8752
L9.7551 5.7542
" />
<path d="M9.7551 5.7542
L9.7551 5.3914
" />
<path d="M9.7551 5.3914
L9.8155 5.2704
" />
<path d="M9.8155 5.2704
L9.8760 5.2099
" />
<path d="M9.8760 5.2099
L9.9970 5.1495
" />
<path d="M9.9970 5.1495
L10.1784 5.1495
" />
<path d="M10.1784 5.1495
L10.2993 5.2099
" />
<path d="M10.2993 5.2099
L10.3598 5.2704
" />
<path d="M10.3598 5.2704
L10.4203 5.3914
" />
<path d="M10.4203 5.3914
L10.4203 5.7542
" />
<path d="M10.4203 5.7542
L10.3598 5.8752
" />
<path d="M10.3598 5.8752
L10.2993 5.9357
" />
<path d="M10.2993 5.9357
L10.1784 5.9961
" />
<path d="M10.1784 5.9961
L9.9970 5.9961
" />
<path d="M10.8436 5.1495
L11.0855 5.9961
" />
<path d="M11.0855 5.9961
L11.3274 5.3914
" />
<path d="M11.3274 5.3914
L11.5693 5.9961
" />
<path d="M11.5693 5.9961
L11.8112 5.1495
" />
<path d="M12.8393 5.1495
L12.8393 5.9961
" />
<path d="M12.5369 4.6657
L12.2346 5.5728
" />
<path d="M12.2346 5.5728
L13.0207 5.5728
" />
<path d="M14.1093 4.7261
L13.5045 4.7261
" />
<path d="M13.5045 4.7261
L13.4441 5.3309
" />
<path d="M13.4441 5.3309
L13.5045 5.2704
" />
<path d="M13.5045 5.2704
L13.6255 5.2099
" />
<path d="M13.6255 5.2099
L13.9279 5.2099
" />
<path d="M13.9279 5.2099
L14.0488 5.2704
" />
<path d="M14.0488 5.2704
L14.1093 5.3309
" />
<path d="M14.1093 5.3309
L14.1698 5.4518
" />
<path d="M14.1698 5.4518
L14.1698 5.7542
" />
<path d="M14.1698 5.7542
L14.1093 5.8752
" />
<path d="M14.1093 5.8752
L14.0488 5.9357
" />
<path d="M14.0488 5.9357
L13.9279 5.9961
" />
<path d="M13.9279 5.9961
L13.6255 5.9961
" />
<path d="M13.6255 5.9961
L13.5045 5.9357
" />
<path d="M13.5045 5.9357
L13.4441 5.8752
" />
<path d="M14.4117 6.1171
L15.3793 6.1171
" />
<path d="M15.6816 5.9961
L15.6816 4.7261
" />
<path d="M15.6816 4.7261
L16.4073 5.9961
" />
<path d="M16.4073 5.9961
L16.4073 4.7261
" />
<path d="M17.1936 5.9961
L17.0726 5.9357
" />
<path d="M17.0726 5.9357
L17.0121 5.8752
" />
<path d="M17.0121 5.8752
L16.9517 5.7542
" />
<path d="M16.9517 5.7542
L16.9517 5.3914
" />
<path d="M16.9517 5.3914
L17.0121 5.2704
" />
<path d="M17.0121 5.2704
L17.0726 5.2099
" />
<path d="M17.0726 5.2099
L17.1936 5.1495
" />
<path d="M17.1936 5.1495
L17.3750 5.1495
" />
<path d="M17.3750 5.1495
L17.4959 5.2099
" />
<path d="M17.4959 5.2099
L17.5564 5.2704
" />
<path d="M17.5564 5.2704
L17.6169 5.3914
" />
<path d="M17.6169 5.3914
L17.6169 5.7542
" />
<path d="M17.6169 5.7542
L17.5564 5.8752
" />
<path d="M17.5564 5.8752
L17.4959 5.9357
" />
<path d="M17.4959 5.9357
L17.3750 5.9961
" />
<path d="M17.3750 5.9961
L17.1936 5.9961
" />
<path d="M18.1611 5.9961
L18.1611 5.1495
" />
<path d="M18.1611 5.3914
L18.2216 5.2704
" />
<path d="M18.2216 5.2704
L18.2821 5.2099
" />
<path d="M18.2821 5.2099
L18.4030 5.1495
" />
<path d="M18.4030 5.1495
L18.5240 5.1495
" />
<path d="M18.9473 5.9961
L18.9473 5.1495
" />
<path d="M18.9473 5.2704
L19.0078 5.2099
" />
<path d="M19.0078 5.2099
L19.1288 5.1495
" />
<path d="M19.1288 5.1495
L19.3102 5.1495
" />
<path d="M19.3102 5.1495
L19.4311 5.2099
" />
<path d="M19.4311 5.2099
L19.4916 5.3309
" />
<path d="M19.4916 5.3309
L19.4916 5.9961
" />
<path d="M19.4916 5.3309
L19.5521 5.2099
" />
<path d="M19.5521 5.2099
L19.6730 5.1495
" />
<path d="M19.6730 5.1495
L19.8545 5.1495
" />
<path d="M19.8545 5.1495
L19.9754 5.2099
" />
<path d="M19.9754 5.2099
L20.0359 5.3309
" />
<path d="M20.0359 5.3309
L20.0359 5.9961
" />
<path d="M21.1849 5.9961
L21.1849 5.3309
" />
<path d="M21.1849 5.3309
L21.1244 5.2099
" />
<path d="M21.1244 5.2099
L21.0035 5.1495
" />
<path d="M21.0035 5.1495
L20.7616 5.1495
" />
<path d="M20.7616 5.1495
L20.6406 5.2099
" />
<path d="M21.1849 5.9357
L21.0640 5.9961
" />
<path d="M21.0640 5.9961
L20.7616 5.9961
" />
<path d="M20.7616 5.9961
L20.6406 5.9357
" />
<path d="M20.6406 5.9357
L20.5802 5.8147
" />
<path d="M20.5802 5.8147
L20.5802 5.6937
" />
<path d="M20.5802 5.6937
L20.6406 5.5728
" />
<path d="M20.6406 5.5728
L20.7616 5.5123
" />
<path d="M20.7616 5.5123
L21.0640 5.5123
" />
<path d="M21.0640 5.5123
L21.1849 5.4518
" />
<path d="M21.9711 5.9961
L21.8501 5.9357
" />
<path d="M21.8501 5.9357
L21.7896 5.8147
" />
<path d="M21.7896 5.8147
L21.7896 4.7261
" />
</g></g>
<g style="fill:#840084; fill-opacity:0.0; 
stroke:#840084; stroke-width:0.1588; stroke-opacity:1; 
stroke-linecap:round; stroke-linejoin:round;">
<text x="12.1438" y="3.5119"
textLength="1.1295" font-size="1.6933" lengthAdjust="spacingAndGlyphs"
text-anchor="middle" opacity="0">~</text>
<g class="stroked-text"><desc>~</desc>
<path d="M11.8112 2.9723
L11.8717 2.9118
" />
<path d="M11.8717 2.9118
L11.9926 2.8514
" />
<path d="M11.9926 2.8514
L12.2345 2.9723
" />
<path d="M12.2345 2.9723
L12.3555 2.9118
" />
<path d="M12.3555 2.9118
L12.4160 2.8514
" />
</g><text x="12.1438" y="3.5119"
textLength="1.4319" font-size="1.6933" lengthAdjust="spacingAndGlyphs"
text-anchor="middle" opacity="0">0</text>
<g class="stroked-text"><desc>0</desc>
<path d="M12.0833 2.1861
L12.2043 2.1861
" />
<path d="M12.2043 2.1861
L12.3252 2.2466
" />
<path d="M12.3252 2.2466
L12.3857 2.3071
" />
<path d="M12.3857 2.3071
L12.4462 2.4280
" />
<path d="M12.4462 2.4280
L12.5067 2.6699
" />
<path d="M12.5067 2.6699
L12.5067 2.9723
" />
<path d="M12.5067 2.9723
L12.4462 3.2142
" />
<path d="M12.4462 3.2142
L12.3857 3.3352
" />
<path d="M12.3857 3.3352
L12.3252 3.3957
" />
<path d="M12.3252 3.3957
L12.2043 3.4561
" />
<path d="M12.2043 3.4561
L12.0833 3.4561
" />
<path d="M12.0833 3.4561
L11.9624 3.3957
" />
<path d="M11.9624 3.3957
L11.9019 3.3352
" />
<path d="M11.9019 3.3352
L11.8414 3.2142
" />
<path d="M11.8414 3.2142
L11.7810 2.9723
" />
<path d="M11.7810 2.9723
L11.7810 2.6699
" />
<path d="M11.7810 2.6699
L11.8414 2.4280
" />
<path d="M11.8414 2.4280
L11.9019 2.3071
" />
<path d="M11.9019 2.3071
L11.9624 2.2466
" />
<path d="M11.9624 2.2466
L12.0833 2.1861
" />
</g></g> 
</svg>
