<?xml version="1.0" standalone="no"?>
 <!DOCTYPE svg PUBLIC "-//W3C//DTD SVG 1.1//EN" 
 "http://www.w3.org/Graphics/SVG/1.1/DTD/svg11.dtd"> 
<svg
  xmlns:svg="http://www.w3.org/2000/svg"
  xmlns="http://www.w3.org/2000/svg"
  xmlns:xlink="http://www.w3.org/1999/xlink"
  version="1.1"
  width="55.3974mm" height="12.4968mm" viewBox="0.0000 0.0000 55.3974 12.4968">
<title>SVG Image created as working.svg date 2023/07/31 23:39:14 </title>
  <desc>Image generated by Eeschema-SVG </desc>
<g style="fill:#000000; fill-opacity:1.0000;stroke:#000000; stroke-opacity:1.0000;
stroke-linecap:round; stroke-linejoin:round;"
 transform="translate(0 0) scale(1 1)">
</g>
<g style="fill:#840000; fill-opacity:0.0; 
stroke:#840000; stroke-width:0.0000; stroke-opacity:1; 
stroke-linecap:round; stroke-linejoin:round;">
</g>
<g style="fill:#FFFFC2; fill-opacity:0.0; 
stroke:#FFFFC2; stroke-width:0.0000; stroke-opacity:1; 
stroke-linecap:round; stroke-linejoin:round;">
</g>
<g style="fill:#FFFFC2; fill-opacity:1.0000; 
stroke:#FFFFC2; stroke-width:0.0000; stroke-opacity:1; 
stroke-linecap:round; stroke-linejoin:round;">
<path style="fill:#FFFFC2; fill-opacity:1.0000; 
stroke:#FFFFC2; stroke-width:0.0000; stroke-opacity:1; 
stroke-linecap:round; stroke-linejoin:round;fill-rule:evenodd;"
d="M 22.6190,1.1684
32.7790,6.2484
22.6190,11.3284
Z" /> 
</g>
<g style="fill:#840084; fill-opacity:1.0000; 
stroke:#840084; stroke-width:0.0000; stroke-opacity:1; 
stroke-linecap:round; stroke-linejoin:round;">
</g>
<g style="fill:#840000; fill-opacity:1.0000; 
stroke:#840000; stroke-width:0.0000; stroke-opacity:1; 
stroke-linecap:round; stroke-linejoin:round;">
</g>
<g style="fill:#840000; fill-opacity:0.0; 
stroke:#840000; stroke-width:0.2540; stroke-opacity:1; 
stroke-linecap:round; stroke-linejoin:round;">
<path style="fill:#840000; fill-opacity:0.0; 
stroke:#840000; stroke-width:0.2540; stroke-opacity:1; 
stroke-linecap:round; stroke-linejoin:round;fill:none"
d="M 22.6190,1.1684
32.7790,6.2484
22.6190,11.3284
Z" /> 
</g>
<g style="fill:#840000; fill-opacity:0.0; 
stroke:#840000; stroke-width:0.1524; stroke-opacity:1; 
stroke-linecap:round; stroke-linejoin:round;">
<path d="M32.7790 6.2484
L35.3190 6.2484
" />
</g>
<g style="fill:#A90000; fill-opacity:0.0; 
stroke:#A90000; stroke-width:0.1524; stroke-opacity:1; 
stroke-linecap:round; stroke-linejoin:round;">
<text x="34.0490" y="5.9944"
textLength="1.3365" font-size="1.6933" lengthAdjust="spacingAndGlyphs"
text-anchor="middle" opacity="0">1</text>
<g class="stroked-text"><desc>1</desc>
<path d="M34.4119 5.8389
L33.6862 5.8389
" />
<path d="M34.0490 5.8389
L34.0490 4.5689
" />
<path d="M34.0490 4.5689
L33.9281 4.7504
" />
<path d="M33.9281 4.7504
L33.8071 4.8713
" />
<path d="M33.8071 4.8713
L33.6862 4.9318
" />
</g></g>
<g style="fill:#840000; fill-opacity:0.0; 
stroke:#840000; stroke-width:0.1524; stroke-opacity:1; 
stroke-linecap:round; stroke-linejoin:round;">
<path d="M22.6190 8.7884
L20.0790 8.7884
" />
</g>
<g style="fill:#006464; fill-opacity:0.0; 
stroke:#006464; stroke-width:0.1524; stroke-opacity:1; 
stroke-linecap:round; stroke-linejoin:round;">
<text x="23.1270" y="9.4234"
textLength="1.6994" font-size="1.6933" lengthAdjust="spacingAndGlyphs"
text-anchor="start" opacity="0">-</text>
<g class="stroked-text"><desc>-</desc>
<path d="M23.4293 8.8921
L24.3970 8.8921
" />
</g></g>
<g style="fill:#A90000; fill-opacity:0.0; 
stroke:#A90000; stroke-width:0.1524; stroke-opacity:1; 
stroke-linecap:round; stroke-linejoin:round;">
<text x="21.3490" y="8.5344"
textLength="1.3365" font-size="1.6933" lengthAdjust="spacingAndGlyphs"
text-anchor="middle" opacity="0">2</text>
<g class="stroked-text"><desc>2</desc>
<path d="M20.9862 7.2299
L21.0466 7.1694
" />
<path d="M21.0466 7.1694
L21.1676 7.1089
" />
<path d="M21.1676 7.1089
L21.4700 7.1089
" />
<path d="M21.4700 7.1089
L21.5909 7.1694
" />
<path d="M21.5909 7.1694
L21.6514 7.2299
" />
<path d="M21.6514 7.2299
L21.7119 7.3508
" />
<path d="M21.7119 7.3508
L21.7119 7.4718
" />
<path d="M21.7119 7.4718
L21.6514 7.6532
" />
<path d="M21.6514 7.6532
L20.9257 8.3789
" />
<path d="M20.9257 8.3789
L21.7119 8.3789
" />
</g></g>
<g style="fill:#840000; fill-opacity:0.0; 
stroke:#840000; stroke-width:0.1524; stroke-opacity:1; 
stroke-linecap:round; stroke-linejoin:round;">
<path d="M22.6190 3.7084
L20.0790 3.7084
" />
</g>
<g style="fill:#006464; fill-opacity:0.0; 
stroke:#006464; stroke-width:0.1524; stroke-opacity:1; 
stroke-linecap:round; stroke-linejoin:round;">
<text x="23.1270" y="4.3434"
textLength="1.6994" font-size="1.6933" lengthAdjust="spacingAndGlyphs"
text-anchor="start" opacity="0">+</text>
<g class="stroked-text"><desc>+</desc>
<path d="M23.4293 3.8121
L24.3970 3.8121
" />
<path d="M23.9131 4.2959
L23.9131 3.3283
" />
</g></g>
<g style="fill:#A90000; fill-opacity:0.0; 
stroke:#A90000; stroke-width:0.1524; stroke-opacity:1; 
stroke-linecap:round; stroke-linejoin:round;">
<text x="21.3490" y="3.4544"
textLength="1.3365" font-size="1.6933" lengthAdjust="spacingAndGlyphs"
text-anchor="middle" opacity="0">3</text>
<g class="stroked-text"><desc>3</desc>
<path d="M20.9257 2.0289
L21.7119 2.0289
" />
<path d="M21.7119 2.0289
L21.2885 2.5127
" />
<path d="M21.2885 2.5127
L21.4700 2.5127
" />
<path d="M21.4700 2.5127
L21.5909 2.5732
" />
<path d="M21.5909 2.5732
L21.6514 2.6337
" />
<path d="M21.6514 2.6337
L21.7119 2.7546
" />
<path d="M21.7119 2.7546
L21.7119 3.0570
" />
<path d="M21.7119 3.0570
L21.6514 3.1780
" />
<path d="M21.6514 3.1780
L21.5909 3.2385
" />
<path d="M21.5909 3.2385
L21.4700 3.2989
" />
<path d="M21.4700 3.2989
L21.1071 3.2989
" />
<path d="M21.1071 3.2989
L20.9862 3.2385
" />
<path d="M20.9862 3.2385
L20.9257 3.1780
" />
</g></g>
<g style="fill:#840084; fill-opacity:0.0; 
stroke:#840084; stroke-width:0.1524; stroke-opacity:1; 
stroke-linecap:round; stroke-linejoin:round;">
</g>
<g style="fill:#006464; fill-opacity:0.0; 
stroke:#006464; stroke-width:0.1524; stroke-opacity:1; 
stroke-linecap:round; stroke-linejoin:round;">
</g>
<g style="fill:#006464; fill-opacity:0.0; 
stroke:#006464; stroke-width:0.1588; stroke-opacity:1; 
stroke-linecap:round; stroke-linejoin:round;">
<text x="29.5243" y="3.0734"
textLength="3.6507" font-size="1.6933" lengthAdjust="spacingAndGlyphs"
text-anchor="middle" opacity="0">U?A</text>
<g class="stroked-text"><desc>U?A</desc>
<path d="M28.0728 1.7559
L28.0728 2.7840
" />
<path d="M28.0728 2.7840
L28.1333 2.9050
" />
<path d="M28.1333 2.9050
L28.1938 2.9655
" />
<path d="M28.1938 2.9655
L28.3147 3.0259
" />
<path d="M28.3147 3.0259
L28.5566 3.0259
" />
<path d="M28.5566 3.0259
L28.6776 2.9655
" />
<path d="M28.6776 2.9655
L28.7381 2.9050
" />
<path d="M28.7381 2.9050
L28.7985 2.7840
" />
<path d="M28.7985 2.7840
L28.7985 1.7559
" />
<path d="M29.5848 2.9050
L29.6452 2.9655
" />
<path d="M29.6452 2.9655
L29.5848 3.0259
" />
<path d="M29.5848 3.0259
L29.5243 2.9655
" />
<path d="M29.5243 2.9655
L29.5848 2.9050
" />
<path d="M29.5848 2.9050
L29.5848 3.0259
" />
<path d="M29.3429 1.8164
L29.4638 1.7559
" />
<path d="M29.4638 1.7559
L29.7662 1.7559
" />
<path d="M29.7662 1.7559
L29.8871 1.8164
" />
<path d="M29.8871 1.8164
L29.9476 1.9374
" />
<path d="M29.9476 1.9374
L29.9476 2.0583
" />
<path d="M29.9476 2.0583
L29.8871 2.1793
" />
<path d="M29.8871 2.1793
L29.8267 2.2397
" />
<path d="M29.8267 2.2397
L29.7057 2.3002
" />
<path d="M29.7057 2.3002
L29.6452 2.3607
" />
<path d="M29.6452 2.3607
L29.5848 2.4816
" />
<path d="M29.5848 2.4816
L29.5848 2.5421
" />
<path d="M30.4315 2.6631
L31.0362 2.6631
" />
<path d="M30.3105 3.0259
L30.7338 1.7559
" />
<path d="M30.7338 1.7559
L31.1572 3.0259
" />
</g><text x="33.1831" y="10.6934"
textLength="10.9682" font-size="1.6933" lengthAdjust="spacingAndGlyphs"
text-anchor="middle" opacity="0">OPA4197xD</text>
<g class="stroked-text"><desc>OPA4197xD</desc>
<path d="M28.3147 9.3759
L28.5566 9.3759
" />
<path d="M28.5566 9.3759
L28.6776 9.4364
" />
<path d="M28.6776 9.4364
L28.7985 9.5574
" />
<path d="M28.7985 9.5574
L28.8590 9.7993
" />
<path d="M28.8590 9.7993
L28.8590 10.2226
" />
<path d="M28.8590 10.2226
L28.7985 10.4645
" />
<path d="M28.7985 10.4645
L28.6776 10.5855
" />
<path d="M28.6776 10.5855
L28.5566 10.6459
" />
<path d="M28.5566 10.6459
L28.3147 10.6459
" />
<path d="M28.3147 10.6459
L28.1938 10.5855
" />
<path d="M28.1938 10.5855
L28.0728 10.4645
" />
<path d="M28.0728 10.4645
L28.0124 10.2226
" />
<path d="M28.0124 10.2226
L28.0124 9.7993
" />
<path d="M28.0124 9.7993
L28.0728 9.5574
" />
<path d="M28.0728 9.5574
L28.1938 9.4364
" />
<path d="M28.1938 9.4364
L28.3147 9.3759
" />
<path d="M29.4033 10.6459
L29.4033 9.3759
" />
<path d="M29.4033 9.3759
L29.8871 9.3759
" />
<path d="M29.8871 9.3759
L30.0081 9.4364
" />
<path d="M30.0081 9.4364
L30.0686 9.4969
" />
<path d="M30.0686 9.4969
L30.1290 9.6178
" />
<path d="M30.1290 9.6178
L30.1290 9.7993
" />
<path d="M30.1290 9.7993
L30.0686 9.9202
" />
<path d="M30.0686 9.9202
L30.0081 9.9807
" />
<path d="M30.0081 9.9807
L29.8871 10.0412
" />
<path d="M29.8871 10.0412
L29.4033 10.0412
" />
<path d="M30.6129 10.2831
L31.2176 10.2831
" />
<path d="M30.4919 10.6459
L30.9152 9.3759
" />
<path d="M30.9152 9.3759
L31.3386 10.6459
" />
<path d="M32.3062 9.7993
L32.3062 10.6459
" />
<path d="M32.0038 9.3155
L31.7015 10.2226
" />
<path d="M31.7015 10.2226
L32.4876 10.2226
" />
<path d="M33.6367 10.6459
L32.9110 10.6459
" />
<path d="M33.2738 10.6459
L33.2738 9.3759
" />
<path d="M33.2738 9.3759
L33.1529 9.5574
" />
<path d="M33.1529 9.5574
L33.0319 9.6783
" />
<path d="M33.0319 9.6783
L32.9110 9.7388
" />
<path d="M34.2414 10.6459
L34.4833 10.6459
" />
<path d="M34.4833 10.6459
L34.6043 10.5855
" />
<path d="M34.6043 10.5855
L34.6647 10.5250
" />
<path d="M34.6647 10.5250
L34.7857 10.3435
" />
<path d="M34.7857 10.3435
L34.8462 10.1016
" />
<path d="M34.8462 10.1016
L34.8462 9.6178
" />
<path d="M34.8462 9.6178
L34.7857 9.4969
" />
<path d="M34.7857 9.4969
L34.7252 9.4364
" />
<path d="M34.7252 9.4364
L34.6043 9.3759
" />
<path d="M34.6043 9.3759
L34.3624 9.3759
" />
<path d="M34.3624 9.3759
L34.2414 9.4364
" />
<path d="M34.2414 9.4364
L34.1809 9.4969
" />
<path d="M34.1809 9.4969
L34.1205 9.6178
" />
<path d="M34.1205 9.6178
L34.1205 9.9202
" />
<path d="M34.1205 9.9202
L34.1809 10.0412
" />
<path d="M34.1809 10.0412
L34.2414 10.1016
" />
<path d="M34.2414 10.1016
L34.3624 10.1621
" />
<path d="M34.3624 10.1621
L34.6043 10.1621
" />
<path d="M34.6043 10.1621
L34.7252 10.1016
" />
<path d="M34.7252 10.1016
L34.7857 10.0412
" />
<path d="M34.7857 10.0412
L34.8462 9.9202
" />
<path d="M35.2695 9.3759
L36.1161 9.3759
" />
<path d="M36.1161 9.3759
L35.5719 10.6459
" />
<path d="M36.4790 10.6459
L37.1442 9.7993
" />
<path d="M36.4790 9.7993
L37.1442 10.6459
" />
<path d="M37.6280 10.6459
L37.6280 9.3759
" />
<path d="M37.6280 9.3759
L37.9304 9.3759
" />
<path d="M37.9304 9.3759
L38.1118 9.4364
" />
<path d="M38.1118 9.4364
L38.2328 9.5574
" />
<path d="M38.2328 9.5574
L38.2933 9.6783
" />
<path d="M38.2933 9.6783
L38.3537 9.9202
" />
<path d="M38.3537 9.9202
L38.3537 10.1016
" />
<path d="M38.3537 10.1016
L38.2933 10.3435
" />
<path d="M38.2933 10.3435
L38.2328 10.4645
" />
<path d="M38.2328 10.4645
L38.1118 10.5855
" />
<path d="M38.1118 10.5855
L37.9304 10.6459
" />
<path d="M37.9304 10.6459
L37.6280 10.6459
" />
</g></g>
<g style="fill:#840084; fill-opacity:0.0; 
stroke:#840084; stroke-width:0.1588; stroke-opacity:1; 
stroke-linecap:round; stroke-linejoin:round;">
<text x="27.6990" y="6.8834"
textLength="41.8713" font-size="1.6933" lengthAdjust="spacingAndGlyphs"
text-anchor="middle" opacity="0">Package_SO:SOIC-14_3.9x8.7mm_P1.27mm</text>
<g class="stroked-text"><desc>Package_SO:SOIC-14_3.9x8.7mm_P1.27mm</desc>
<path d="M7.1372 6.8359
L7.1372 5.5659
" />
<path d="M7.1372 5.5659
L7.6210 5.5659
" />
<path d="M7.6210 5.5659
L7.7420 5.6264
" />
<path d="M7.7420 5.6264
L7.8025 5.6869
" />
<path d="M7.8025 5.6869
L7.8629 5.8078
" />
<path d="M7.8629 5.8078
L7.8629 5.9893
" />
<path d="M7.8629 5.9893
L7.8025 6.1102
" />
<path d="M7.8025 6.1102
L7.7420 6.1707
" />
<path d="M7.7420 6.1707
L7.6210 6.2312
" />
<path d="M7.6210 6.2312
L7.1372 6.2312
" />
<path d="M8.9515 6.8359
L8.9515 6.1707
" />
<path d="M8.9515 6.1707
L8.8910 6.0497
" />
<path d="M8.8910 6.0497
L8.7701 5.9893
" />
<path d="M8.7701 5.9893
L8.5282 5.9893
" />
<path d="M8.5282 5.9893
L8.4072 6.0497
" />
<path d="M8.9515 6.7755
L8.8306 6.8359
" />
<path d="M8.8306 6.8359
L8.5282 6.8359
" />
<path d="M8.5282 6.8359
L8.4072 6.7755
" />
<path d="M8.4072 6.7755
L8.3468 6.6545
" />
<path d="M8.3468 6.6545
L8.3468 6.5335
" />
<path d="M8.3468 6.5335
L8.4072 6.4126
" />
<path d="M8.4072 6.4126
L8.5282 6.3521
" />
<path d="M8.5282 6.3521
L8.8306 6.3521
" />
<path d="M8.8306 6.3521
L8.9515 6.2916
" />
<path d="M10.1005 6.7755
L9.9796 6.8359
" />
<path d="M9.9796 6.8359
L9.7377 6.8359
" />
<path d="M9.7377 6.8359
L9.6167 6.7755
" />
<path d="M9.6167 6.7755
L9.5562 6.7150
" />
<path d="M9.5562 6.7150
L9.4958 6.5940
" />
<path d="M9.4958 6.5940
L9.4958 6.2312
" />
<path d="M9.4958 6.2312
L9.5562 6.1102
" />
<path d="M9.5562 6.1102
L9.6167 6.0497
" />
<path d="M9.6167 6.0497
L9.7377 5.9893
" />
<path d="M9.7377 5.9893
L9.9796 5.9893
" />
<path d="M9.9796 5.9893
L10.1005 6.0497
" />
<path d="M10.6448 6.8359
L10.6448 5.5659
" />
<path d="M10.7658 6.3521
L11.1286 6.8359
" />
<path d="M11.1286 5.9893
L10.6448 6.4731
" />
<path d="M12.2172 6.8359
L12.2172 6.1707
" />
<path d="M12.2172 6.1707
L12.1567 6.0497
" />
<path d="M12.1567 6.0497
L12.0358 5.9893
" />
<path d="M12.0358 5.9893
L11.7939 5.9893
" />
<path d="M11.7939 5.9893
L11.6729 6.0497
" />
<path d="M12.2172 6.7755
L12.0963 6.8359
" />
<path d="M12.0963 6.8359
L11.7939 6.8359
" />
<path d="M11.7939 6.8359
L11.6729 6.7755
" />
<path d="M11.6729 6.7755
L11.6125 6.6545
" />
<path d="M11.6125 6.6545
L11.6125 6.5335
" />
<path d="M11.6125 6.5335
L11.6729 6.4126
" />
<path d="M11.6729 6.4126
L11.7939 6.3521
" />
<path d="M11.7939 6.3521
L12.0963 6.3521
" />
<path d="M12.0963 6.3521
L12.2172 6.2916
" />
<path d="M13.3662 5.9893
L13.3662 7.0174
" />
<path d="M13.3662 7.0174
L13.3057 7.1383
" />
<path d="M13.3057 7.1383
L13.2453 7.1988
" />
<path d="M13.2453 7.1988
L13.1243 7.2593
" />
<path d="M13.1243 7.2593
L12.9429 7.2593
" />
<path d="M12.9429 7.2593
L12.8219 7.1988
" />
<path d="M13.3662 6.7755
L13.2453 6.8359
" />
<path d="M13.2453 6.8359
L13.0034 6.8359
" />
<path d="M13.0034 6.8359
L12.8824 6.7755
" />
<path d="M12.8824 6.7755
L12.8219 6.7150
" />
<path d="M12.8219 6.7150
L12.7615 6.5940
" />
<path d="M12.7615 6.5940
L12.7615 6.2312
" />
<path d="M12.7615 6.2312
L12.8219 6.1102
" />
<path d="M12.8219 6.1102
L12.8824 6.0497
" />
<path d="M12.8824 6.0497
L13.0034 5.9893
" />
<path d="M13.0034 5.9893
L13.2453 5.9893
" />
<path d="M13.2453 5.9893
L13.3662 6.0497
" />
<path d="M14.4547 6.7755
L14.3338 6.8359
" />
<path d="M14.3338 6.8359
L14.0919 6.8359
" />
<path d="M14.0919 6.8359
L13.9709 6.7755
" />
<path d="M13.9709 6.7755
L13.9105 6.6545
" />
<path d="M13.9105 6.6545
L13.9105 6.1707
" />
<path d="M13.9105 6.1707
L13.9709 6.0497
" />
<path d="M13.9709 6.0497
L14.0919 5.9893
" />
<path d="M14.0919 5.9893
L14.3338 5.9893
" />
<path d="M14.3338 5.9893
L14.4547 6.0497
" />
<path d="M14.4547 6.0497
L14.5152 6.1707
" />
<path d="M14.5152 6.1707
L14.5152 6.2916
" />
<path d="M14.5152 6.2916
L13.9105 6.4126
" />
<path d="M14.7572 6.9569
L15.7248 6.9569
" />
<path d="M15.9667 6.7755
L16.1481 6.8359
" />
<path d="M16.1481 6.8359
L16.4505 6.8359
" />
<path d="M16.4505 6.8359
L16.5714 6.7755
" />
<path d="M16.5714 6.7755
L16.6319 6.7150
" />
<path d="M16.6319 6.7150
L16.6924 6.5940
" />
<path d="M16.6924 6.5940
L16.6924 6.4731
" />
<path d="M16.6924 6.4731
L16.6319 6.3521
" />
<path d="M16.6319 6.3521
L16.5714 6.2916
" />
<path d="M16.5714 6.2916
L16.4505 6.2312
" />
<path d="M16.4505 6.2312
L16.2086 6.1707
" />
<path d="M16.2086 6.1707
L16.0876 6.1102
" />
<path d="M16.0876 6.1102
L16.0271 6.0497
" />
<path d="M16.0271 6.0497
L15.9667 5.9288
" />
<path d="M15.9667 5.9288
L15.9667 5.8078
" />
<path d="M15.9667 5.8078
L16.0271 5.6869
" />
<path d="M16.0271 5.6869
L16.0876 5.6264
" />
<path d="M16.0876 5.6264
L16.2086 5.5659
" />
<path d="M16.2086 5.5659
L16.5109 5.5659
" />
<path d="M16.5109 5.5659
L16.6924 5.6264
" />
<path d="M17.4785 5.5659
L17.7204 5.5659
" />
<path d="M17.7204 5.5659
L17.8414 5.6264
" />
<path d="M17.8414 5.6264
L17.9623 5.7474
" />
<path d="M17.9623 5.7474
L18.0228 5.9893
" />
<path d="M18.0228 5.9893
L18.0228 6.4126
" />
<path d="M18.0228 6.4126
L17.9623 6.6545
" />
<path d="M17.9623 6.6545
L17.8414 6.7755
" />
<path d="M17.8414 6.7755
L17.7204 6.8359
" />
<path d="M17.7204 6.8359
L17.4785 6.8359
" />
<path d="M17.4785 6.8359
L17.3576 6.7755
" />
<path d="M17.3576 6.7755
L17.2366 6.6545
" />
<path d="M17.2366 6.6545
L17.1762 6.4126
" />
<path d="M17.1762 6.4126
L17.1762 5.9893
" />
<path d="M17.1762 5.9893
L17.2366 5.7474
" />
<path d="M17.2366 5.7474
L17.3576 5.6264
" />
<path d="M17.3576 5.6264
L17.4785 5.5659
" />
<path d="M18.5671 6.7150
L18.6276 6.7755
" />
<path d="M18.6276 6.7755
L18.5671 6.8359
" />
<path d="M18.5671 6.8359
L18.5067 6.7755
" />
<path d="M18.5067 6.7755
L18.5671 6.7150
" />
<path d="M18.5671 6.7150
L18.5671 6.8359
" />
<path d="M18.5671 6.0497
L18.6276 6.1102
" />
<path d="M18.6276 6.1102
L18.5671 6.1707
" />
<path d="M18.5671 6.1707
L18.5067 6.1102
" />
<path d="M18.5067 6.1102
L18.5671 6.0497
" />
<path d="M18.5671 6.0497
L18.5671 6.1707
" />
<path d="M19.1115 6.7755
L19.2929 6.8359
" />
<path d="M19.2929 6.8359
L19.5953 6.8359
" />
<path d="M19.5953 6.8359
L19.7162 6.7755
" />
<path d="M19.7162 6.7755
L19.7767 6.7150
" />
<path d="M19.7767 6.7150
L19.8372 6.5940
" />
<path d="M19.8372 6.5940
L19.8372 6.4731
" />
<path d="M19.8372 6.4731
L19.7767 6.3521
" />
<path d="M19.7767 6.3521
L19.7162 6.2916
" />
<path d="M19.7162 6.2916
L19.5953 6.2312
" />
<path d="M19.5953 6.2312
L19.3534 6.1707
" />
<path d="M19.3534 6.1707
L19.2324 6.1102
" />
<path d="M19.2324 6.1102
L19.1719 6.0497
" />
<path d="M19.1719 6.0497
L19.1115 5.9288
" />
<path d="M19.1115 5.9288
L19.1115 5.8078
" />
<path d="M19.1115 5.8078
L19.1719 5.6869
" />
<path d="M19.1719 5.6869
L19.2324 5.6264
" />
<path d="M19.2324 5.6264
L19.3534 5.5659
" />
<path d="M19.3534 5.5659
L19.6557 5.5659
" />
<path d="M19.6557 5.5659
L19.8372 5.6264
" />
<path d="M20.6233 5.5659
L20.8652 5.5659
" />
<path d="M20.8652 5.5659
L20.9862 5.6264
" />
<path d="M20.9862 5.6264
L21.1071 5.7474
" />
<path d="M21.1071 5.7474
L21.1676 5.9893
" />
<path d="M21.1676 5.9893
L21.1676 6.4126
" />
<path d="M21.1676 6.4126
L21.1071 6.6545
" />
<path d="M21.1071 6.6545
L20.9862 6.7755
" />
<path d="M20.9862 6.7755
L20.8652 6.8359
" />
<path d="M20.8652 6.8359
L20.6233 6.8359
" />
<path d="M20.6233 6.8359
L20.5024 6.7755
" />
<path d="M20.5024 6.7755
L20.3814 6.6545
" />
<path d="M20.3814 6.6545
L20.3210 6.4126
" />
<path d="M20.3210 6.4126
L20.3210 5.9893
" />
<path d="M20.3210 5.9893
L20.3814 5.7474
" />
<path d="M20.3814 5.7474
L20.5024 5.6264
" />
<path d="M20.5024 5.6264
L20.6233 5.5659
" />
<path d="M21.7119 6.8359
L21.7119 5.5659
" />
<path d="M23.0424 6.7150
L22.9820 6.7755
" />
<path d="M22.9820 6.7755
L22.8005 6.8359
" />
<path d="M22.8005 6.8359
L22.6796 6.8359
" />
<path d="M22.6796 6.8359
L22.4982 6.7755
" />
<path d="M22.4982 6.7755
L22.3772 6.6545
" />
<path d="M22.3772 6.6545
L22.3167 6.5335
" />
<path d="M22.3167 6.5335
L22.2563 6.2916
" />
<path d="M22.2563 6.2916
L22.2563 6.1102
" />
<path d="M22.2563 6.1102
L22.3167 5.8683
" />
<path d="M22.3167 5.8683
L22.3772 5.7474
" />
<path d="M22.3772 5.7474
L22.4982 5.6264
" />
<path d="M22.4982 5.6264
L22.6796 5.5659
" />
<path d="M22.6796 5.5659
L22.8005 5.5659
" />
<path d="M22.8005 5.5659
L22.9820 5.6264
" />
<path d="M22.9820 5.6264
L23.0424 5.6869
" />
<path d="M23.5867 6.3521
L24.5544 6.3521
" />
<path d="M25.8244 6.8359
L25.0987 6.8359
" />
<path d="M25.4615 6.8359
L25.4615 5.5659
" />
<path d="M25.4615 5.5659
L25.3406 5.7474
" />
<path d="M25.3406 5.7474
L25.2196 5.8683
" />
<path d="M25.2196 5.8683
L25.0987 5.9288
" />
<path d="M26.9129 5.9893
L26.9129 6.8359
" />
<path d="M26.6105 5.5055
L26.3082 6.4126
" />
<path d="M26.3082 6.4126
L27.0943 6.4126
" />
<path d="M27.2758 6.9569
L28.2434 6.9569
" />
<path d="M28.4248 5.5659
L29.2110 5.5659
" />
<path d="M29.2110 5.5659
L28.7876 6.0497
" />
<path d="M28.7876 6.0497
L28.9691 6.0497
" />
<path d="M28.9691 6.0497
L29.0900 6.1102
" />
<path d="M29.0900 6.1102
L29.1505 6.1707
" />
<path d="M29.1505 6.1707
L29.2110 6.2916
" />
<path d="M29.2110 6.2916
L29.2110 6.5940
" />
<path d="M29.2110 6.5940
L29.1505 6.7150
" />
<path d="M29.1505 6.7150
L29.0900 6.7755
" />
<path d="M29.0900 6.7755
L28.9691 6.8359
" />
<path d="M28.9691 6.8359
L28.6062 6.8359
" />
<path d="M28.6062 6.8359
L28.4853 6.7755
" />
<path d="M28.4853 6.7755
L28.4248 6.7150
" />
<path d="M29.7552 6.7150
L29.8157 6.7755
" />
<path d="M29.8157 6.7755
L29.7552 6.8359
" />
<path d="M29.7552 6.8359
L29.6948 6.7755
" />
<path d="M29.6948 6.7755
L29.7552 6.7150
" />
<path d="M29.7552 6.7150
L29.7552 6.8359
" />
<path d="M30.4205 6.8359
L30.6624 6.8359
" />
<path d="M30.6624 6.8359
L30.7834 6.7755
" />
<path d="M30.7834 6.7755
L30.8438 6.7150
" />
<path d="M30.8438 6.7150
L30.9648 6.5335
" />
<path d="M30.9648 6.5335
L31.0253 6.2916
" />
<path d="M31.0253 6.2916
L31.0253 5.8078
" />
<path d="M31.0253 5.8078
L30.9648 5.6869
" />
<path d="M30.9648 5.6869
L30.9043 5.6264
" />
<path d="M30.9043 5.6264
L30.7834 5.5659
" />
<path d="M30.7834 5.5659
L30.5415 5.5659
" />
<path d="M30.5415 5.5659
L30.4205 5.6264
" />
<path d="M30.4205 5.6264
L30.3600 5.6869
" />
<path d="M30.3600 5.6869
L30.2996 5.8078
" />
<path d="M30.2996 5.8078
L30.2996 6.1102
" />
<path d="M30.2996 6.1102
L30.3600 6.2312
" />
<path d="M30.3600 6.2312
L30.4205 6.2916
" />
<path d="M30.4205 6.2916
L30.5415 6.3521
" />
<path d="M30.5415 6.3521
L30.7834 6.3521
" />
<path d="M30.7834 6.3521
L30.9043 6.2916
" />
<path d="M30.9043 6.2916
L30.9648 6.2312
" />
<path d="M30.9648 6.2312
L31.0253 6.1102
" />
<path d="M31.4486 6.8359
L32.1138 5.9893
" />
<path d="M31.4486 5.9893
L32.1138 6.8359
" />
<path d="M32.7791 6.1102
L32.6581 6.0497
" />
<path d="M32.6581 6.0497
L32.5976 5.9893
" />
<path d="M32.5976 5.9893
L32.5372 5.8683
" />
<path d="M32.5372 5.8683
L32.5372 5.8078
" />
<path d="M32.5372 5.8078
L32.5976 5.6869
" />
<path d="M32.5976 5.6869
L32.6581 5.6264
" />
<path d="M32.6581 5.6264
L32.7791 5.5659
" />
<path d="M32.7791 5.5659
L33.0210 5.5659
" />
<path d="M33.0210 5.5659
L33.1419 5.6264
" />
<path d="M33.1419 5.6264
L33.2024 5.6869
" />
<path d="M33.2024 5.6869
L33.2629 5.8078
" />
<path d="M33.2629 5.8078
L33.2629 5.8683
" />
<path d="M33.2629 5.8683
L33.2024 5.9893
" />
<path d="M33.2024 5.9893
L33.1419 6.0497
" />
<path d="M33.1419 6.0497
L33.0210 6.1102
" />
<path d="M33.0210 6.1102
L32.7791 6.1102
" />
<path d="M32.7791 6.1102
L32.6581 6.1707
" />
<path d="M32.6581 6.1707
L32.5976 6.2312
" />
<path d="M32.5976 6.2312
L32.5372 6.3521
" />
<path d="M32.5372 6.3521
L32.5372 6.5940
" />
<path d="M32.5372 6.5940
L32.5976 6.7150
" />
<path d="M32.5976 6.7150
L32.6581 6.7755
" />
<path d="M32.6581 6.7755
L32.7791 6.8359
" />
<path d="M32.7791 6.8359
L33.0210 6.8359
" />
<path d="M33.0210 6.8359
L33.1419 6.7755
" />
<path d="M33.1419 6.7755
L33.2024 6.7150
" />
<path d="M33.2024 6.7150
L33.2629 6.5940
" />
<path d="M33.2629 6.5940
L33.2629 6.3521
" />
<path d="M33.2629 6.3521
L33.2024 6.2312
" />
<path d="M33.2024 6.2312
L33.1419 6.1707
" />
<path d="M33.1419 6.1707
L33.0210 6.1102
" />
<path d="M33.8071 6.7150
L33.8676 6.7755
" />
<path d="M33.8676 6.7755
L33.8071 6.8359
" />
<path d="M33.8071 6.8359
L33.7467 6.7755
" />
<path d="M33.7467 6.7755
L33.8071 6.7150
" />
<path d="M33.8071 6.7150
L33.8071 6.8359
" />
<path d="M34.2910 5.5659
L35.1376 5.5659
" />
<path d="M35.1376 5.5659
L34.5934 6.8359
" />
<path d="M35.6214 6.8359
L35.6214 5.9893
" />
<path d="M35.6214 6.1102
L35.6819 6.0497
" />
<path d="M35.6819 6.0497
L35.8029 5.9893
" />
<path d="M35.8029 5.9893
L35.9843 5.9893
" />
<path d="M35.9843 5.9893
L36.1052 6.0497
" />
<path d="M36.1052 6.0497
L36.1657 6.1707
" />
<path d="M36.1657 6.1707
L36.1657 6.8359
" />
<path d="M36.1657 6.1707
L36.2262 6.0497
" />
<path d="M36.2262 6.0497
L36.3471 5.9893
" />
<path d="M36.3471 5.9893
L36.5286 5.9893
" />
<path d="M36.5286 5.9893
L36.6495 6.0497
" />
<path d="M36.6495 6.0497
L36.7100 6.1707
" />
<path d="M36.7100 6.1707
L36.7100 6.8359
" />
<path d="M37.3147 6.8359
L37.3147 5.9893
" />
<path d="M37.3147 6.1102
L37.3752 6.0497
" />
<path d="M37.3752 6.0497
L37.4962 5.9893
" />
<path d="M37.4962 5.9893
L37.6776 5.9893
" />
<path d="M37.6776 5.9893
L37.7985 6.0497
" />
<path d="M37.7985 6.0497
L37.8590 6.1707
" />
<path d="M37.8590 6.1707
L37.8590 6.8359
" />
<path d="M37.8590 6.1707
L37.9195 6.0497
" />
<path d="M37.9195 6.0497
L38.0404 5.9893
" />
<path d="M38.0404 5.9893
L38.2219 5.9893
" />
<path d="M38.2219 5.9893
L38.3428 6.0497
" />
<path d="M38.3428 6.0497
L38.4033 6.1707
" />
<path d="M38.4033 6.1707
L38.4033 6.8359
" />
<path d="M38.7057 6.9569
L39.6733 6.9569
" />
<path d="M39.9756 6.8359
L39.9756 5.5659
" />
<path d="M39.9756 5.5659
L40.4594 5.5659
" />
<path d="M40.4594 5.5659
L40.5804 5.6264
" />
<path d="M40.5804 5.6264
L40.6409 5.6869
" />
<path d="M40.6409 5.6869
L40.7013 5.8078
" />
<path d="M40.7013 5.8078
L40.7013 5.9893
" />
<path d="M40.7013 5.9893
L40.6409 6.1102
" />
<path d="M40.6409 6.1102
L40.5804 6.1707
" />
<path d="M40.5804 6.1707
L40.4594 6.2312
" />
<path d="M40.4594 6.2312
L39.9756 6.2312
" />
<path d="M41.9109 6.8359
L41.1852 6.8359
" />
<path d="M41.5480 6.8359
L41.5480 5.5659
" />
<path d="M41.5480 5.5659
L41.4271 5.7474
" />
<path d="M41.4271 5.7474
L41.3061 5.8683
" />
<path d="M41.3061 5.8683
L41.1852 5.9288
" />
<path d="M42.4551 6.7150
L42.5156 6.7755
" />
<path d="M42.5156 6.7755
L42.4551 6.8359
" />
<path d="M42.4551 6.8359
L42.3947 6.7755
" />
<path d="M42.3947 6.7755
L42.4551 6.7150
" />
<path d="M42.4551 6.7150
L42.4551 6.8359
" />
<path d="M42.9995 5.6869
L43.0599 5.6264
" />
<path d="M43.0599 5.6264
L43.1809 5.5659
" />
<path d="M43.1809 5.5659
L43.4833 5.5659
" />
<path d="M43.4833 5.5659
L43.6042 5.6264
" />
<path d="M43.6042 5.6264
L43.6647 5.6869
" />
<path d="M43.6647 5.6869
L43.7252 5.8078
" />
<path d="M43.7252 5.8078
L43.7252 5.9288
" />
<path d="M43.7252 5.9288
L43.6647 6.1102
" />
<path d="M43.6647 6.1102
L42.9390 6.8359
" />
<path d="M42.9390 6.8359
L43.7252 6.8359
" />
<path d="M44.1485 5.5659
L44.9951 5.5659
" />
<path d="M44.9951 5.5659
L44.4509 6.8359
" />
<path d="M45.4789 6.8359
L45.4789 5.9893
" />
<path d="M45.4789 6.1102
L45.5394 6.0497
" />
<path d="M45.5394 6.0497
L45.6604 5.9893
" />
<path d="M45.6604 5.9893
L45.8418 5.9893
" />
<path d="M45.8418 5.9893
L45.9627 6.0497
" />
<path d="M45.9627 6.0497
L46.0232 6.1707
" />
<path d="M46.0232 6.1707
L46.0232 6.8359
" />
<path d="M46.0232 6.1707
L46.0837 6.0497
" />
<path d="M46.0837 6.0497
L46.2046 5.9893
" />
<path d="M46.2046 5.9893
L46.3861 5.9893
" />
<path d="M46.3861 5.9893
L46.5070 6.0497
" />
<path d="M46.5070 6.0497
L46.5675 6.1707
" />
<path d="M46.5675 6.1707
L46.5675 6.8359
" />
<path d="M47.1722 6.8359
L47.1722 5.9893
" />
<path d="M47.1722 6.1102
L47.2327 6.0497
" />
<path d="M47.2327 6.0497
L47.3537 5.9893
" />
<path d="M47.3537 5.9893
L47.5351 5.9893
" />
<path d="M47.5351 5.9893
L47.6560 6.0497
" />
<path d="M47.6560 6.0497
L47.7165 6.1707
" />
<path d="M47.7165 6.1707
L47.7165 6.8359
" />
<path d="M47.7165 6.1707
L47.7770 6.0497
" />
<path d="M47.7770 6.0497
L47.8979 5.9893
" />
<path d="M47.8979 5.9893
L48.0794 5.9893
" />
<path d="M48.0794 5.9893
L48.2003 6.0497
" />
<path d="M48.2003 6.0497
L48.2608 6.1707
" />
<path d="M48.2608 6.1707
L48.2608 6.8359
" />
</g><text x="27.6990" y="6.8834"
textLength="46.1651" font-size="1.6933" lengthAdjust="spacingAndGlyphs"
text-anchor="middle" opacity="0">http://www.ti.com/lit/ds/symlink/opa4197.pdf</text>
<g class="stroked-text"><desc>http://www.ti.com/lit/ds/symlink/opa4197.pdf</desc>
<path d="M4.9903 6.8359
L4.9903 5.5659
" />
<path d="M5.5346 6.8359
L5.5346 6.1707
" />
<path d="M5.5346 6.1707
L5.4741 6.0497
" />
<path d="M5.4741 6.0497
L5.3532 5.9893
" />
<path d="M5.3532 5.9893
L5.1718 5.9893
" />
<path d="M5.1718 5.9893
L5.0508 6.0497
" />
<path d="M5.0508 6.0497
L4.9903 6.1102
" />
<path d="M5.9579 5.9893
L6.4417 5.9893
" />
<path d="M6.1393 5.5659
L6.1393 6.6545
" />
<path d="M6.1393 6.6545
L6.1998 6.7755
" />
<path d="M6.1998 6.7755
L6.3208 6.8359
" />
<path d="M6.3208 6.8359
L6.4417 6.8359
" />
<path d="M6.6836 5.9893
L7.1674 5.9893
" />
<path d="M6.8650 5.5659
L6.8650 6.6545
" />
<path d="M6.8650 6.6545
L6.9255 6.7755
" />
<path d="M6.9255 6.7755
L7.0465 6.8359
" />
<path d="M7.0465 6.8359
L7.1674 6.8359
" />
<path d="M7.5907 5.9893
L7.5907 7.2593
" />
<path d="M7.5907 6.0497
L7.7117 5.9893
" />
<path d="M7.7117 5.9893
L7.9536 5.9893
" />
<path d="M7.9536 5.9893
L8.0745 6.0497
" />
<path d="M8.0745 6.0497
L8.1350 6.1102
" />
<path d="M8.1350 6.1102
L8.1955 6.2312
" />
<path d="M8.1955 6.2312
L8.1955 6.5940
" />
<path d="M8.1955 6.5940
L8.1350 6.7150
" />
<path d="M8.1350 6.7150
L8.0745 6.7755
" />
<path d="M8.0745 6.7755
L7.9536 6.8359
" />
<path d="M7.9536 6.8359
L7.7117 6.8359
" />
<path d="M7.7117 6.8359
L7.5907 6.7755
" />
<path d="M8.7397 6.7150
L8.8002 6.7755
" />
<path d="M8.8002 6.7755
L8.7397 6.8359
" />
<path d="M8.7397 6.8359
L8.6793 6.7755
" />
<path d="M8.6793 6.7755
L8.7397 6.7150
" />
<path d="M8.7397 6.7150
L8.7397 6.8359
" />
<path d="M8.7397 6.0497
L8.8002 6.1102
" />
<path d="M8.8002 6.1102
L8.7397 6.1707
" />
<path d="M8.7397 6.1707
L8.6793 6.1102
" />
<path d="M8.6793 6.1102
L8.7397 6.0497
" />
<path d="M8.7397 6.0497
L8.7397 6.1707
" />
<path d="M10.2517 5.5055
L9.1631 7.1383
" />
<path d="M11.5822 5.5055
L10.4936 7.1383
" />
<path d="M11.8846 5.9893
L12.1265 6.8359
" />
<path d="M12.1265 6.8359
L12.3684 6.2312
" />
<path d="M12.3684 6.2312
L12.6103 6.8359
" />
<path d="M12.6103 6.8359
L12.8522 5.9893
" />
<path d="M13.2151 5.9893
L13.4570 6.8359
" />
<path d="M13.4570 6.8359
L13.6989 6.2312
" />
<path d="M13.6989 6.2312
L13.9408 6.8359
" />
<path d="M13.9408 6.8359
L14.1827 5.9893
" />
<path d="M14.5456 5.9893
L14.7875 6.8359
" />
<path d="M14.7875 6.8359
L15.0294 6.2312
" />
<path d="M15.0294 6.2312
L15.2713 6.8359
" />
<path d="M15.2713 6.8359
L15.5132 5.9893
" />
<path d="M15.9970 6.7150
L16.0575 6.7755
" />
<path d="M16.0575 6.7755
L15.9970 6.8359
" />
<path d="M15.9970 6.8359
L15.9366 6.7755
" />
<path d="M15.9366 6.7755
L15.9970 6.7150
" />
<path d="M15.9970 6.7150
L15.9970 6.8359
" />
<path d="M16.4204 5.9893
L16.9042 5.9893
" />
<path d="M16.6018 5.5659
L16.6018 6.6545
" />
<path d="M16.6018 6.6545
L16.6623 6.7755
" />
<path d="M16.6623 6.7755
L16.7833 6.8359
" />
<path d="M16.7833 6.8359
L16.9042 6.8359
" />
<path d="M17.3275 6.8359
L17.3275 5.9893
" />
<path d="M17.3275 5.5659
L17.2671 5.6264
" />
<path d="M17.2671 5.6264
L17.3275 5.6869
" />
<path d="M17.3275 5.6869
L17.3880 5.6264
" />
<path d="M17.3880 5.6264
L17.3275 5.5659
" />
<path d="M17.3275 5.5659
L17.3275 5.6869
" />
<path d="M17.9323 6.7150
L17.9928 6.7755
" />
<path d="M17.9928 6.7755
L17.9323 6.8359
" />
<path d="M17.9323 6.8359
L17.8719 6.7755
" />
<path d="M17.8719 6.7755
L17.9323 6.7150
" />
<path d="M17.9323 6.7150
L17.9323 6.8359
" />
<path d="M19.0814 6.7755
L18.9605 6.8359
" />
<path d="M18.9605 6.8359
L18.7186 6.8359
" />
<path d="M18.7186 6.8359
L18.5976 6.7755
" />
<path d="M18.5976 6.7755
L18.5371 6.7150
" />
<path d="M18.5371 6.7150
L18.4767 6.5940
" />
<path d="M18.4767 6.5940
L18.4767 6.2312
" />
<path d="M18.4767 6.2312
L18.5371 6.1102
" />
<path d="M18.5371 6.1102
L18.5976 6.0497
" />
<path d="M18.5976 6.0497
L18.7186 5.9893
" />
<path d="M18.7186 5.9893
L18.9605 5.9893
" />
<path d="M18.9605 5.9893
L19.0814 6.0497
" />
<path d="M19.8072 6.8359
L19.6862 6.7755
" />
<path d="M19.6862 6.7755
L19.6257 6.7150
" />
<path d="M19.6257 6.7150
L19.5653 6.5940
" />
<path d="M19.5653 6.5940
L19.5653 6.2312
" />
<path d="M19.5653 6.2312
L19.6257 6.1102
" />
<path d="M19.6257 6.1102
L19.6862 6.0497
" />
<path d="M19.6862 6.0497
L19.8072 5.9893
" />
<path d="M19.8072 5.9893
L19.9886 5.9893
" />
<path d="M19.9886 5.9893
L20.1095 6.0497
" />
<path d="M20.1095 6.0497
L20.1700 6.1102
" />
<path d="M20.1700 6.1102
L20.2305 6.2312
" />
<path d="M20.2305 6.2312
L20.2305 6.5940
" />
<path d="M20.2305 6.5940
L20.1700 6.7150
" />
<path d="M20.1700 6.7150
L20.1095 6.7755
" />
<path d="M20.1095 6.7755
L19.9886 6.8359
" />
<path d="M19.9886 6.8359
L19.8072 6.8359
" />
<path d="M20.7747 6.8359
L20.7747 5.9893
" />
<path d="M20.7747 6.1102
L20.8352 6.0497
" />
<path d="M20.8352 6.0497
L20.9562 5.9893
" />
<path d="M20.9562 5.9893
L21.1376 5.9893
" />
<path d="M21.1376 5.9893
L21.2585 6.0497
" />
<path d="M21.2585 6.0497
L21.3190 6.1707
" />
<path d="M21.3190 6.1707
L21.3190 6.8359
" />
<path d="M21.3190 6.1707
L21.3795 6.0497
" />
<path d="M21.3795 6.0497
L21.5004 5.9893
" />
<path d="M21.5004 5.9893
L21.6819 5.9893
" />
<path d="M21.6819 5.9893
L21.8028 6.0497
" />
<path d="M21.8028 6.0497
L21.8633 6.1707
" />
<path d="M21.8633 6.1707
L21.8633 6.8359
" />
<path d="M23.3752 5.5055
L22.2866 7.1383
" />
<path d="M23.9800 6.8359
L23.8590 6.7755
" />
<path d="M23.8590 6.7755
L23.7985 6.6545
" />
<path d="M23.7985 6.6545
L23.7985 5.5659
" />
<path d="M24.4637 6.8359
L24.4637 5.9893
" />
<path d="M24.4637 5.5659
L24.4033 5.6264
" />
<path d="M24.4033 5.6264
L24.4637 5.6869
" />
<path d="M24.4637 5.6869
L24.5242 5.6264
" />
<path d="M24.5242 5.6264
L24.4637 5.5659
" />
<path d="M24.4637 5.5659
L24.4637 5.6869
" />
<path d="M24.8871 5.9893
L25.3709 5.9893
" />
<path d="M25.0685 5.5659
L25.0685 6.6545
" />
<path d="M25.0685 6.6545
L25.1290 6.7755
" />
<path d="M25.1290 6.7755
L25.2500 6.8359
" />
<path d="M25.2500 6.8359
L25.3709 6.8359
" />
<path d="M26.7014 5.5055
L25.6128 7.1383
" />
<path d="M27.6690 6.8359
L27.6690 5.5659
" />
<path d="M27.6690 6.7755
L27.5481 6.8359
" />
<path d="M27.5481 6.8359
L27.3062 6.8359
" />
<path d="M27.3062 6.8359
L27.1852 6.7755
" />
<path d="M27.1852 6.7755
L27.1247 6.7150
" />
<path d="M27.1247 6.7150
L27.0643 6.5940
" />
<path d="M27.0643 6.5940
L27.0643 6.2312
" />
<path d="M27.0643 6.2312
L27.1247 6.1102
" />
<path d="M27.1247 6.1102
L27.1852 6.0497
" />
<path d="M27.1852 6.0497
L27.3062 5.9893
" />
<path d="M27.3062 5.9893
L27.5481 5.9893
" />
<path d="M27.5481 5.9893
L27.6690 6.0497
" />
<path d="M28.2133 6.7755
L28.3342 6.8359
" />
<path d="M28.3342 6.8359
L28.5761 6.8359
" />
<path d="M28.5761 6.8359
L28.6971 6.7755
" />
<path d="M28.6971 6.7755
L28.7575 6.6545
" />
<path d="M28.7575 6.6545
L28.7575 6.5940
" />
<path d="M28.7575 6.5940
L28.6971 6.4731
" />
<path d="M28.6971 6.4731
L28.5761 6.4126
" />
<path d="M28.5761 6.4126
L28.3947 6.4126
" />
<path d="M28.3947 6.4126
L28.2737 6.3521
" />
<path d="M28.2737 6.3521
L28.2133 6.2312
" />
<path d="M28.2133 6.2312
L28.2133 6.1707
" />
<path d="M28.2133 6.1707
L28.2737 6.0497
" />
<path d="M28.2737 6.0497
L28.3947 5.9893
" />
<path d="M28.3947 5.9893
L28.5761 5.9893
" />
<path d="M28.5761 5.9893
L28.6971 6.0497
" />
<path d="M30.2090 5.5055
L29.1204 7.1383
" />
<path d="M30.5719 6.7755
L30.6928 6.8359
" />
<path d="M30.6928 6.8359
L30.9347 6.8359
" />
<path d="M30.9347 6.8359
L31.0557 6.7755
" />
<path d="M31.0557 6.7755
L31.1161 6.6545
" />
<path d="M31.1161 6.6545
L31.1161 6.5940
" />
<path d="M31.1161 6.5940
L31.0557 6.4731
" />
<path d="M31.0557 6.4731
L30.9347 6.4126
" />
<path d="M30.9347 6.4126
L30.7533 6.4126
" />
<path d="M30.7533 6.4126
L30.6323 6.3521
" />
<path d="M30.6323 6.3521
L30.5719 6.2312
" />
<path d="M30.5719 6.2312
L30.5719 6.1707
" />
<path d="M30.5719 6.1707
L30.6323 6.0497
" />
<path d="M30.6323 6.0497
L30.7533 5.9893
" />
<path d="M30.7533 5.9893
L30.9347 5.9893
" />
<path d="M30.9347 5.9893
L31.0557 6.0497
" />
<path d="M31.5395 5.9893
L31.8419 6.8359
" />
<path d="M32.1442 5.9893
L31.8419 6.8359
" />
<path d="M31.8419 6.8359
L31.7209 7.1383
" />
<path d="M31.7209 7.1383
L31.6604 7.1988
" />
<path d="M31.6604 7.1988
L31.5395 7.2593
" />
<path d="M32.6280 6.8359
L32.6280 5.9893
" />
<path d="M32.6280 6.1102
L32.6885 6.0497
" />
<path d="M32.6885 6.0497
L32.8095 5.9893
" />
<path d="M32.8095 5.9893
L32.9909 5.9893
" />
<path d="M32.9909 5.9893
L33.1118 6.0497
" />
<path d="M33.1118 6.0497
L33.1723 6.1707
" />
<path d="M33.1723 6.1707
L33.1723 6.8359
" />
<path d="M33.1723 6.1707
L33.2328 6.0497
" />
<path d="M33.2328 6.0497
L33.3537 5.9893
" />
<path d="M33.3537 5.9893
L33.5352 5.9893
" />
<path d="M33.5352 5.9893
L33.6561 6.0497
" />
<path d="M33.6561 6.0497
L33.7166 6.1707
" />
<path d="M33.7166 6.1707
L33.7166 6.8359
" />
<path d="M34.5028 6.8359
L34.3818 6.7755
" />
<path d="M34.3818 6.7755
L34.3213 6.6545
" />
<path d="M34.3213 6.6545
L34.3213 5.5659
" />
<path d="M34.9865 6.8359
L34.9865 5.9893
" />
<path d="M34.9865 5.5659
L34.9261 5.6264
" />
<path d="M34.9261 5.6264
L34.9865 5.6869
" />
<path d="M34.9865 5.6869
L35.0470 5.6264
" />
<path d="M35.0470 5.6264
L34.9865 5.5659
" />
<path d="M34.9865 5.5659
L34.9865 5.6869
" />
<path d="M35.5913 5.9893
L35.5913 6.8359
" />
<path d="M35.5913 6.1102
L35.6518 6.0497
" />
<path d="M35.6518 6.0497
L35.7728 5.9893
" />
<path d="M35.7728 5.9893
L35.9542 5.9893
" />
<path d="M35.9542 5.9893
L36.0751 6.0497
" />
<path d="M36.0751 6.0497
L36.1356 6.1707
" />
<path d="M36.1356 6.1707
L36.1356 6.8359
" />
<path d="M36.7403 6.8359
L36.7403 5.5659
" />
<path d="M36.8613 6.3521
L37.2241 6.8359
" />
<path d="M37.2241 5.9893
L36.7403 6.4731
" />
<path d="M38.6756 5.5055
L37.5870 7.1383
" />
<path d="M39.2804 6.8359
L39.1594 6.7755
" />
<path d="M39.1594 6.7755
L39.0989 6.7150
" />
<path d="M39.0989 6.7150
L39.0385 6.5940
" />
<path d="M39.0385 6.5940
L39.0385 6.2312
" />
<path d="M39.0385 6.2312
L39.0989 6.1102
" />
<path d="M39.0989 6.1102
L39.1594 6.0497
" />
<path d="M39.1594 6.0497
L39.2804 5.9893
" />
<path d="M39.2804 5.9893
L39.4618 5.9893
" />
<path d="M39.4618 5.9893
L39.5827 6.0497
" />
<path d="M39.5827 6.0497
L39.6432 6.1102
" />
<path d="M39.6432 6.1102
L39.7037 6.2312
" />
<path d="M39.7037 6.2312
L39.7037 6.5940
" />
<path d="M39.7037 6.5940
L39.6432 6.7150
" />
<path d="M39.6432 6.7150
L39.5827 6.7755
" />
<path d="M39.5827 6.7755
L39.4618 6.8359
" />
<path d="M39.4618 6.8359
L39.2804 6.8359
" />
<path d="M40.2479 5.9893
L40.2479 7.2593
" />
<path d="M40.2479 6.0497
L40.3689 5.9893
" />
<path d="M40.3689 5.9893
L40.6108 5.9893
" />
<path d="M40.6108 5.9893
L40.7317 6.0497
" />
<path d="M40.7317 6.0497
L40.7922 6.1102
" />
<path d="M40.7922 6.1102
L40.8527 6.2312
" />
<path d="M40.8527 6.2312
L40.8527 6.5940
" />
<path d="M40.8527 6.5940
L40.7922 6.7150
" />
<path d="M40.7922 6.7150
L40.7317 6.7755
" />
<path d="M40.7317 6.7755
L40.6108 6.8359
" />
<path d="M40.6108 6.8359
L40.3689 6.8359
" />
<path d="M40.3689 6.8359
L40.2479 6.7755
" />
<path d="M41.9412 6.8359
L41.9412 6.1707
" />
<path d="M41.9412 6.1707
L41.8807 6.0497
" />
<path d="M41.8807 6.0497
L41.7598 5.9893
" />
<path d="M41.7598 5.9893
L41.5179 5.9893
" />
<path d="M41.5179 5.9893
L41.3969 6.0497
" />
<path d="M41.9412 6.7755
L41.8203 6.8359
" />
<path d="M41.8203 6.8359
L41.5179 6.8359
" />
<path d="M41.5179 6.8359
L41.3969 6.7755
" />
<path d="M41.3969 6.7755
L41.3365 6.6545
" />
<path d="M41.3365 6.6545
L41.3365 6.5335
" />
<path d="M41.3365 6.5335
L41.3969 6.4126
" />
<path d="M41.3969 6.4126
L41.5179 6.3521
" />
<path d="M41.5179 6.3521
L41.8203 6.3521
" />
<path d="M41.8203 6.3521
L41.9412 6.2916
" />
<path d="M43.0902 5.9893
L43.0902 6.8359
" />
<path d="M42.7878 5.5055
L42.4855 6.4126
" />
<path d="M42.4855 6.4126
L43.2716 6.4126
" />
<path d="M44.4207 6.8359
L43.6950 6.8359
" />
<path d="M44.0578 6.8359
L44.0578 5.5659
" />
<path d="M44.0578 5.5659
L43.9369 5.7474
" />
<path d="M43.9369 5.7474
L43.8159 5.8683
" />
<path d="M43.8159 5.8683
L43.6950 5.9288
" />
<path d="M45.0254 6.8359
L45.2673 6.8359
" />
<path d="M45.2673 6.8359
L45.3883 6.7755
" />
<path d="M45.3883 6.7755
L45.4487 6.7150
" />
<path d="M45.4487 6.7150
L45.5697 6.5335
" />
<path d="M45.5697 6.5335
L45.6302 6.2916
" />
<path d="M45.6302 6.2916
L45.6302 5.8078
" />
<path d="M45.6302 5.8078
L45.5697 5.6869
" />
<path d="M45.5697 5.6869
L45.5092 5.6264
" />
<path d="M45.5092 5.6264
L45.3883 5.5659
" />
<path d="M45.3883 5.5659
L45.1464 5.5659
" />
<path d="M45.1464 5.5659
L45.0254 5.6264
" />
<path d="M45.0254 5.6264
L44.9649 5.6869
" />
<path d="M44.9649 5.6869
L44.9045 5.8078
" />
<path d="M44.9045 5.8078
L44.9045 6.1102
" />
<path d="M44.9045 6.1102
L44.9649 6.2312
" />
<path d="M44.9649 6.2312
L45.0254 6.2916
" />
<path d="M45.0254 6.2916
L45.1464 6.3521
" />
<path d="M45.1464 6.3521
L45.3883 6.3521
" />
<path d="M45.3883 6.3521
L45.5092 6.2916
" />
<path d="M45.5092 6.2916
L45.5697 6.2312
" />
<path d="M45.5697 6.2312
L45.6302 6.1102
" />
<path d="M46.0535 5.5659
L46.9001 5.5659
" />
<path d="M46.9001 5.5659
L46.3559 6.8359
" />
<path d="M47.3839 6.7150
L47.4444 6.7755
" />
<path d="M47.4444 6.7755
L47.3839 6.8359
" />
<path d="M47.3839 6.8359
L47.3235 6.7755
" />
<path d="M47.3235 6.7755
L47.3839 6.7150
" />
<path d="M47.3839 6.7150
L47.3839 6.8359
" />
<path d="M47.9887 5.9893
L47.9887 7.2593
" />
<path d="M47.9887 6.0497
L48.1097 5.9893
" />
<path d="M48.1097 5.9893
L48.3516 5.9893
" />
<path d="M48.3516 5.9893
L48.4725 6.0497
" />
<path d="M48.4725 6.0497
L48.5330 6.1102
" />
<path d="M48.5330 6.1102
L48.5935 6.2312
" />
<path d="M48.5935 6.2312
L48.5935 6.5940
" />
<path d="M48.5935 6.5940
L48.5330 6.7150
" />
<path d="M48.5330 6.7150
L48.4725 6.7755
" />
<path d="M48.4725 6.7755
L48.3516 6.8359
" />
<path d="M48.3516 6.8359
L48.1097 6.8359
" />
<path d="M48.1097 6.8359
L47.9887 6.7755
" />
<path d="M49.6820 6.8359
L49.6820 5.5659
" />
<path d="M49.6820 6.7755
L49.5611 6.8359
" />
<path d="M49.5611 6.8359
L49.3192 6.8359
" />
<path d="M49.3192 6.8359
L49.1982 6.7755
" />
<path d="M49.1982 6.7755
L49.1377 6.7150
" />
<path d="M49.1377 6.7150
L49.0773 6.5940
" />
<path d="M49.0773 6.5940
L49.0773 6.2312
" />
<path d="M49.0773 6.2312
L49.1377 6.1102
" />
<path d="M49.1377 6.1102
L49.1982 6.0497
" />
<path d="M49.1982 6.0497
L49.3192 5.9893
" />
<path d="M49.3192 5.9893
L49.5611 5.9893
" />
<path d="M49.5611 5.9893
L49.6820 6.0497
" />
<path d="M50.1053 5.9893
L50.5891 5.9893
" />
<path d="M50.2867 6.8359
L50.2867 5.7474
" />
<path d="M50.2867 5.7474
L50.3472 5.6264
" />
<path d="M50.3472 5.6264
L50.4682 5.5659
" />
<path d="M50.4682 5.5659
L50.5891 5.5659
" />
</g></g> 
</svg>
