<?xml version="1.0" standalone="no"?>
 <!DOCTYPE svg PUBLIC "-//W3C//DTD SVG 1.1//EN" 
 "http://www.w3.org/Graphics/SVG/1.1/DTD/svg11.dtd"> 
<svg
  xmlns:svg="http://www.w3.org/2000/svg"
  xmlns="http://www.w3.org/2000/svg"
  xmlns:xlink="http://www.w3.org/1999/xlink"
  version="1.1"
  width="76.1746mm" height="14.6558mm" viewBox="0.0000 0.0000 76.1746 14.6558">
<title>SVG Image created as working.svg date 2023/08/09 10:33:46 </title>
  <desc>Image generated by Eeschema-SVG </desc>
<g style="fill:#000000; fill-opacity:1.0000;stroke:#000000; stroke-opacity:1.0000;
stroke-linecap:round; stroke-linejoin:round;"
 transform="translate(0 0) scale(1 1)">
</g>
<g style="fill:#840000; fill-opacity:0.0; 
stroke:#840000; stroke-width:0.0000; stroke-opacity:1; 
stroke-linecap:round; stroke-linejoin:round;">
</g>
<g style="fill:#840084; fill-opacity:0.0; 
stroke:#840084; stroke-width:0.0000; stroke-opacity:1; 
stroke-linecap:round; stroke-linejoin:round;">
</g>
<g style="fill:#840000; fill-opacity:0.0; 
stroke:#840000; stroke-width:0.0000; stroke-opacity:1; 
stroke-linecap:round; stroke-linejoin:round;">
</g>
<g style="fill:#840084; fill-opacity:0.0; 
stroke:#840084; stroke-width:0.0000; stroke-opacity:1; 
stroke-linecap:round; stroke-linejoin:round;">
</g>
<g style="fill:#006464; fill-opacity:0.0; 
stroke:#006464; stroke-width:0.0000; stroke-opacity:1; 
stroke-linecap:round; stroke-linejoin:round;">
</g>
<g style="fill:#006464; fill-opacity:0.0; 
stroke:#006464; stroke-width:0.1588; stroke-opacity:1; 
stroke-linecap:round; stroke-linejoin:round;">
<text x="38.1387" y="2.8769"
textLength="2.6415" font-size="1.6933" lengthAdjust="spacingAndGlyphs"
text-anchor="middle" opacity="0">U?</text>
<g class="stroked-text"><desc>U?</desc>
<path d="M37.2315 1.5511
L37.2315 2.5792
" />
<path d="M37.2315 2.5792
L37.2920 2.7002
" />
<path d="M37.2920 2.7002
L37.3525 2.7607
" />
<path d="M37.3525 2.7607
L37.4734 2.8211
" />
<path d="M37.4734 2.8211
L37.7153 2.8211
" />
<path d="M37.7153 2.8211
L37.8363 2.7607
" />
<path d="M37.8363 2.7607
L37.8968 2.7002
" />
<path d="M37.8968 2.7002
L37.9572 2.5792
" />
<path d="M37.9572 2.5792
L37.9572 1.5511
" />
<path d="M38.7435 2.7002
L38.8039 2.7607
" />
<path d="M38.8039 2.7607
L38.7435 2.8211
" />
<path d="M38.7435 2.8211
L38.6830 2.7607
" />
<path d="M38.6830 2.7607
L38.7435 2.7002
" />
<path d="M38.7435 2.7002
L38.7435 2.8211
" />
<path d="M38.5016 1.6116
L38.6225 1.5511
" />
<path d="M38.6225 1.5511
L38.9249 1.5511
" />
<path d="M38.9249 1.5511
L39.0458 1.6116
" />
<path d="M39.0458 1.6116
L39.1063 1.7326
" />
<path d="M39.1063 1.7326
L39.1063 1.8535
" />
<path d="M39.1063 1.8535
L39.0458 1.9745
" />
<path d="M39.0458 1.9745
L38.9854 2.0349
" />
<path d="M38.9854 2.0349
L38.8644 2.0954
" />
<path d="M38.8644 2.0954
L38.8039 2.1559
" />
<path d="M38.8039 2.1559
L38.7435 2.2768
" />
<path d="M38.7435 2.2768
L38.7435 2.3373
" />
</g><text x="40.7391" y="13.0369"
textLength="7.8423" font-size="1.6933" lengthAdjust="spacingAndGlyphs"
text-anchor="middle" opacity="0">MCP604</text>
<g class="stroked-text"><desc>MCP604</desc>
<path d="M37.2315 12.9811
L37.2315 11.7111
" />
<path d="M37.2315 11.7111
L37.6549 12.6183
" />
<path d="M37.6549 12.6183
L38.0782 11.7111
" />
<path d="M38.0782 11.7111
L38.0782 12.9811
" />
<path d="M39.4086 12.8602
L39.3482 12.9207
" />
<path d="M39.3482 12.9207
L39.1667 12.9811
" />
<path d="M39.1667 12.9811
L39.0458 12.9811
" />
<path d="M39.0458 12.9811
L38.8644 12.9207
" />
<path d="M38.8644 12.9207
L38.7434 12.7997
" />
<path d="M38.7434 12.7997
L38.6829 12.6787
" />
<path d="M38.6829 12.6787
L38.6225 12.4368
" />
<path d="M38.6225 12.4368
L38.6225 12.2554
" />
<path d="M38.6225 12.2554
L38.6829 12.0135
" />
<path d="M38.6829 12.0135
L38.7434 11.8926
" />
<path d="M38.7434 11.8926
L38.8644 11.7716
" />
<path d="M38.8644 11.7716
L39.0458 11.7111
" />
<path d="M39.0458 11.7111
L39.1667 11.7111
" />
<path d="M39.1667 11.7111
L39.3482 11.7716
" />
<path d="M39.3482 11.7716
L39.4086 11.8321
" />
<path d="M39.9529 12.9811
L39.9529 11.7111
" />
<path d="M39.9529 11.7111
L40.4367 11.7111
" />
<path d="M40.4367 11.7111
L40.5577 11.7716
" />
<path d="M40.5577 11.7716
L40.6182 11.8321
" />
<path d="M40.6182 11.8321
L40.6786 11.9530
" />
<path d="M40.6786 11.9530
L40.6786 12.1345
" />
<path d="M40.6786 12.1345
L40.6182 12.2554
" />
<path d="M40.6182 12.2554
L40.5577 12.3159
" />
<path d="M40.5577 12.3159
L40.4367 12.3764
" />
<path d="M40.4367 12.3764
L39.9529 12.3764
" />
<path d="M41.7672 11.7111
L41.5253 11.7111
" />
<path d="M41.5253 11.7111
L41.4044 11.7716
" />
<path d="M41.4044 11.7716
L41.3439 11.8321
" />
<path d="M41.3439 11.8321
L41.2229 12.0135
" />
<path d="M41.2229 12.0135
L41.1625 12.2554
" />
<path d="M41.1625 12.2554
L41.1625 12.7392
" />
<path d="M41.1625 12.7392
L41.2229 12.8602
" />
<path d="M41.2229 12.8602
L41.2834 12.9207
" />
<path d="M41.2834 12.9207
L41.4044 12.9811
" />
<path d="M41.4044 12.9811
L41.6463 12.9811
" />
<path d="M41.6463 12.9811
L41.7672 12.9207
" />
<path d="M41.7672 12.9207
L41.8277 12.8602
" />
<path d="M41.8277 12.8602
L41.8882 12.7392
" />
<path d="M41.8882 12.7392
L41.8882 12.4368
" />
<path d="M41.8882 12.4368
L41.8277 12.3159
" />
<path d="M41.8277 12.3159
L41.7672 12.2554
" />
<path d="M41.7672 12.2554
L41.6463 12.1949
" />
<path d="M41.6463 12.1949
L41.4044 12.1949
" />
<path d="M41.4044 12.1949
L41.2834 12.2554
" />
<path d="M41.2834 12.2554
L41.2229 12.3159
" />
<path d="M41.2229 12.3159
L41.1625 12.4368
" />
<path d="M42.6743 11.7111
L42.7953 11.7111
" />
<path d="M42.7953 11.7111
L42.9162 11.7716
" />
<path d="M42.9162 11.7716
L42.9767 11.8321
" />
<path d="M42.9767 11.8321
L43.0372 11.9530
" />
<path d="M43.0372 11.9530
L43.0977 12.1949
" />
<path d="M43.0977 12.1949
L43.0977 12.4973
" />
<path d="M43.0977 12.4973
L43.0372 12.7392
" />
<path d="M43.0372 12.7392
L42.9767 12.8602
" />
<path d="M42.9767 12.8602
L42.9162 12.9207
" />
<path d="M42.9162 12.9207
L42.7953 12.9811
" />
<path d="M42.7953 12.9811
L42.6743 12.9811
" />
<path d="M42.6743 12.9811
L42.5534 12.9207
" />
<path d="M42.5534 12.9207
L42.4929 12.8602
" />
<path d="M42.4929 12.8602
L42.4324 12.7392
" />
<path d="M42.4324 12.7392
L42.3720 12.4973
" />
<path d="M42.3720 12.4973
L42.3720 12.1949
" />
<path d="M42.3720 12.1949
L42.4324 11.9530
" />
<path d="M42.4324 11.9530
L42.4929 11.8321
" />
<path d="M42.4929 11.8321
L42.5534 11.7716
" />
<path d="M42.5534 11.7716
L42.6743 11.7111
" />
<path d="M44.1862 12.1345
L44.1862 12.9811
" />
<path d="M43.8838 11.6507
L43.5815 12.5578
" />
<path d="M43.5815 12.5578
L44.3676 12.5578
" />
</g></g>
<g style="fill:#840084; fill-opacity:0.0; 
stroke:#840084; stroke-width:0.1588; stroke-opacity:1; 
stroke-linecap:round; stroke-linejoin:round;">
<text x="38.0880" y="2.8769"
textLength="63.4801" font-size="1.6933" lengthAdjust="spacingAndGlyphs"
text-anchor="middle" opacity="0">http://ww1.microchip.com/downloads/en/DeviceDoc/21314g.pdf</text>
<g class="stroked-text"><desc>http://ww1.microchip.com/downloads/en/DeviceDoc/21314g.pdf</desc>
<path d="M6.7615 2.8211
L6.7615 1.5511
" />
<path d="M7.3058 2.8211
L7.3058 2.1559
" />
<path d="M7.3058 2.1559
L7.2453 2.0349
" />
<path d="M7.2453 2.0349
L7.1244 1.9745
" />
<path d="M7.1244 1.9745
L6.9430 1.9745
" />
<path d="M6.9430 1.9745
L6.8220 2.0349
" />
<path d="M6.8220 2.0349
L6.7615 2.0954
" />
<path d="M7.7291 1.9745
L8.2129 1.9745
" />
<path d="M7.9105 1.5511
L7.9105 2.6397
" />
<path d="M7.9105 2.6397
L7.9710 2.7607
" />
<path d="M7.9710 2.7607
L8.0920 2.8211
" />
<path d="M8.0920 2.8211
L8.2129 2.8211
" />
<path d="M8.4548 1.9745
L8.9386 1.9745
" />
<path d="M8.6362 1.5511
L8.6362 2.6397
" />
<path d="M8.6362 2.6397
L8.6967 2.7607
" />
<path d="M8.6967 2.7607
L8.8177 2.8211
" />
<path d="M8.8177 2.8211
L8.9386 2.8211
" />
<path d="M9.3619 1.9745
L9.3619 3.2445
" />
<path d="M9.3619 2.0349
L9.4829 1.9745
" />
<path d="M9.4829 1.9745
L9.7248 1.9745
" />
<path d="M9.7248 1.9745
L9.8457 2.0349
" />
<path d="M9.8457 2.0349
L9.9062 2.0954
" />
<path d="M9.9062 2.0954
L9.9667 2.2164
" />
<path d="M9.9667 2.2164
L9.9667 2.5792
" />
<path d="M9.9667 2.5792
L9.9062 2.7002
" />
<path d="M9.9062 2.7002
L9.8457 2.7607
" />
<path d="M9.8457 2.7607
L9.7248 2.8211
" />
<path d="M9.7248 2.8211
L9.4829 2.8211
" />
<path d="M9.4829 2.8211
L9.3619 2.7607
" />
<path d="M10.5109 2.7002
L10.5714 2.7607
" />
<path d="M10.5714 2.7607
L10.5109 2.8211
" />
<path d="M10.5109 2.8211
L10.4505 2.7607
" />
<path d="M10.4505 2.7607
L10.5109 2.7002
" />
<path d="M10.5109 2.7002
L10.5109 2.8211
" />
<path d="M10.5109 2.0349
L10.5714 2.0954
" />
<path d="M10.5714 2.0954
L10.5109 2.1559
" />
<path d="M10.5109 2.1559
L10.4505 2.0954
" />
<path d="M10.4505 2.0954
L10.5109 2.0349
" />
<path d="M10.5109 2.0349
L10.5109 2.1559
" />
<path d="M12.0229 1.4907
L10.9343 3.1235
" />
<path d="M13.3534 1.4907
L12.2648 3.1235
" />
<path d="M13.6558 1.9745
L13.8977 2.8211
" />
<path d="M13.8977 2.8211
L14.1396 2.2164
" />
<path d="M14.1396 2.2164
L14.3815 2.8211
" />
<path d="M14.3815 2.8211
L14.6234 1.9745
" />
<path d="M14.9863 1.9745
L15.2282 2.8211
" />
<path d="M15.2282 2.8211
L15.4701 2.2164
" />
<path d="M15.4701 2.2164
L15.7120 2.8211
" />
<path d="M15.7120 2.8211
L15.9539 1.9745
" />
<path d="M17.1030 2.8211
L16.3773 2.8211
" />
<path d="M16.7401 2.8211
L16.7401 1.5511
" />
<path d="M16.7401 1.5511
L16.6192 1.7326
" />
<path d="M16.6192 1.7326
L16.4982 1.8535
" />
<path d="M16.4982 1.8535
L16.3773 1.9140
" />
<path d="M17.6472 2.7002
L17.7077 2.7607
" />
<path d="M17.7077 2.7607
L17.6472 2.8211
" />
<path d="M17.6472 2.8211
L17.5868 2.7607
" />
<path d="M17.5868 2.7607
L17.6472 2.7002
" />
<path d="M17.6472 2.7002
L17.6472 2.8211
" />
<path d="M18.2520 2.8211
L18.2520 1.9745
" />
<path d="M18.2520 2.0954
L18.3125 2.0349
" />
<path d="M18.3125 2.0349
L18.4335 1.9745
" />
<path d="M18.4335 1.9745
L18.6149 1.9745
" />
<path d="M18.6149 1.9745
L18.7358 2.0349
" />
<path d="M18.7358 2.0349
L18.7963 2.1559
" />
<path d="M18.7963 2.1559
L18.7963 2.8211
" />
<path d="M18.7963 2.1559
L18.8568 2.0349
" />
<path d="M18.8568 2.0349
L18.9777 1.9745
" />
<path d="M18.9777 1.9745
L19.1592 1.9745
" />
<path d="M19.1592 1.9745
L19.2801 2.0349
" />
<path d="M19.2801 2.0349
L19.3406 2.1559
" />
<path d="M19.3406 2.1559
L19.3406 2.8211
" />
<path d="M19.9453 2.8211
L19.9453 1.9745
" />
<path d="M19.9453 1.5511
L19.8849 1.6116
" />
<path d="M19.8849 1.6116
L19.9453 1.6721
" />
<path d="M19.9453 1.6721
L20.0058 1.6116
" />
<path d="M20.0058 1.6116
L19.9453 1.5511
" />
<path d="M19.9453 1.5511
L19.9453 1.6721
" />
<path d="M21.0944 2.7607
L20.9735 2.8211
" />
<path d="M20.9735 2.8211
L20.7316 2.8211
" />
<path d="M20.7316 2.8211
L20.6106 2.7607
" />
<path d="M20.6106 2.7607
L20.5501 2.7002
" />
<path d="M20.5501 2.7002
L20.4897 2.5792
" />
<path d="M20.4897 2.5792
L20.4897 2.2164
" />
<path d="M20.4897 2.2164
L20.5501 2.0954
" />
<path d="M20.5501 2.0954
L20.6106 2.0349
" />
<path d="M20.6106 2.0349
L20.7316 1.9745
" />
<path d="M20.7316 1.9745
L20.9735 1.9745
" />
<path d="M20.9735 1.9745
L21.0944 2.0349
" />
<path d="M21.6387 2.8211
L21.6387 1.9745
" />
<path d="M21.6387 2.2164
L21.6992 2.0954
" />
<path d="M21.6992 2.0954
L21.7597 2.0349
" />
<path d="M21.7597 2.0349
L21.8806 1.9745
" />
<path d="M21.8806 1.9745
L22.0016 1.9745
" />
<path d="M22.6064 2.8211
L22.4854 2.7607
" />
<path d="M22.4854 2.7607
L22.4249 2.7002
" />
<path d="M22.4249 2.7002
L22.3645 2.5792
" />
<path d="M22.3645 2.5792
L22.3645 2.2164
" />
<path d="M22.3645 2.2164
L22.4249 2.0954
" />
<path d="M22.4249 2.0954
L22.4854 2.0349
" />
<path d="M22.4854 2.0349
L22.6064 1.9745
" />
<path d="M22.6064 1.9745
L22.7878 1.9745
" />
<path d="M22.7878 1.9745
L22.9087 2.0349
" />
<path d="M22.9087 2.0349
L22.9692 2.0954
" />
<path d="M22.9692 2.0954
L23.0297 2.2164
" />
<path d="M23.0297 2.2164
L23.0297 2.5792
" />
<path d="M23.0297 2.5792
L22.9692 2.7002
" />
<path d="M22.9692 2.7002
L22.9087 2.7607
" />
<path d="M22.9087 2.7607
L22.7878 2.8211
" />
<path d="M22.7878 2.8211
L22.6064 2.8211
" />
<path d="M24.1182 2.7607
L23.9973 2.8211
" />
<path d="M23.9973 2.8211
L23.7554 2.8211
" />
<path d="M23.7554 2.8211
L23.6344 2.7607
" />
<path d="M23.6344 2.7607
L23.5739 2.7002
" />
<path d="M23.5739 2.7002
L23.5135 2.5792
" />
<path d="M23.5135 2.5792
L23.5135 2.2164
" />
<path d="M23.5135 2.2164
L23.5739 2.0954
" />
<path d="M23.5739 2.0954
L23.6344 2.0349
" />
<path d="M23.6344 2.0349
L23.7554 1.9745
" />
<path d="M23.7554 1.9745
L23.9973 1.9745
" />
<path d="M23.9973 1.9745
L24.1182 2.0349
" />
<path d="M24.6625 2.8211
L24.6625 1.5511
" />
<path d="M25.2068 2.8211
L25.2068 2.1559
" />
<path d="M25.2068 2.1559
L25.1463 2.0349
" />
<path d="M25.1463 2.0349
L25.0254 1.9745
" />
<path d="M25.0254 1.9745
L24.8440 1.9745
" />
<path d="M24.8440 1.9745
L24.7230 2.0349
" />
<path d="M24.7230 2.0349
L24.6625 2.0954
" />
<path d="M25.8115 2.8211
L25.8115 1.9745
" />
<path d="M25.8115 1.5511
L25.7511 1.6116
" />
<path d="M25.7511 1.6116
L25.8115 1.6721
" />
<path d="M25.8115 1.6721
L25.8720 1.6116
" />
<path d="M25.8720 1.6116
L25.8115 1.5511
" />
<path d="M25.8115 1.5511
L25.8115 1.6721
" />
<path d="M26.4163 1.9745
L26.4163 3.2445
" />
<path d="M26.4163 2.0349
L26.5373 1.9745
" />
<path d="M26.5373 1.9745
L26.7792 1.9745
" />
<path d="M26.7792 1.9745
L26.9001 2.0349
" />
<path d="M26.9001 2.0349
L26.9606 2.0954
" />
<path d="M26.9606 2.0954
L27.0211 2.2164
" />
<path d="M27.0211 2.2164
L27.0211 2.5792
" />
<path d="M27.0211 2.5792
L26.9606 2.7002
" />
<path d="M26.9606 2.7002
L26.9001 2.7607
" />
<path d="M26.9001 2.7607
L26.7792 2.8211
" />
<path d="M26.7792 2.8211
L26.5373 2.8211
" />
<path d="M26.5373 2.8211
L26.4163 2.7607
" />
<path d="M27.5653 2.7002
L27.6258 2.7607
" />
<path d="M27.6258 2.7607
L27.5653 2.8211
" />
<path d="M27.5653 2.8211
L27.5049 2.7607
" />
<path d="M27.5049 2.7607
L27.5653 2.7002
" />
<path d="M27.5653 2.7002
L27.5653 2.8211
" />
<path d="M28.7144 2.7607
L28.5935 2.8211
" />
<path d="M28.5935 2.8211
L28.3516 2.8211
" />
<path d="M28.3516 2.8211
L28.2306 2.7607
" />
<path d="M28.2306 2.7607
L28.1701 2.7002
" />
<path d="M28.1701 2.7002
L28.1097 2.5792
" />
<path d="M28.1097 2.5792
L28.1097 2.2164
" />
<path d="M28.1097 2.2164
L28.1701 2.0954
" />
<path d="M28.1701 2.0954
L28.2306 2.0349
" />
<path d="M28.2306 2.0349
L28.3516 1.9745
" />
<path d="M28.3516 1.9745
L28.5935 1.9745
" />
<path d="M28.5935 1.9745
L28.7144 2.0349
" />
<path d="M29.4402 2.8211
L29.3192 2.7607
" />
<path d="M29.3192 2.7607
L29.2587 2.7002
" />
<path d="M29.2587 2.7002
L29.1983 2.5792
" />
<path d="M29.1983 2.5792
L29.1983 2.2164
" />
<path d="M29.1983 2.2164
L29.2587 2.0954
" />
<path d="M29.2587 2.0954
L29.3192 2.0349
" />
<path d="M29.3192 2.0349
L29.4402 1.9745
" />
<path d="M29.4402 1.9745
L29.6216 1.9745
" />
<path d="M29.6216 1.9745
L29.7425 2.0349
" />
<path d="M29.7425 2.0349
L29.8030 2.0954
" />
<path d="M29.8030 2.0954
L29.8635 2.2164
" />
<path d="M29.8635 2.2164
L29.8635 2.5792
" />
<path d="M29.8635 2.5792
L29.8030 2.7002
" />
<path d="M29.8030 2.7002
L29.7425 2.7607
" />
<path d="M29.7425 2.7607
L29.6216 2.8211
" />
<path d="M29.6216 2.8211
L29.4402 2.8211
" />
<path d="M30.4077 2.8211
L30.4077 1.9745
" />
<path d="M30.4077 2.0954
L30.4682 2.0349
" />
<path d="M30.4682 2.0349
L30.5892 1.9745
" />
<path d="M30.5892 1.9745
L30.7706 1.9745
" />
<path d="M30.7706 1.9745
L30.8915 2.0349
" />
<path d="M30.8915 2.0349
L30.9520 2.1559
" />
<path d="M30.9520 2.1559
L30.9520 2.8211
" />
<path d="M30.9520 2.1559
L31.0125 2.0349
" />
<path d="M31.0125 2.0349
L31.1334 1.9745
" />
<path d="M31.1334 1.9745
L31.3149 1.9745
" />
<path d="M31.3149 1.9745
L31.4358 2.0349
" />
<path d="M31.4358 2.0349
L31.4963 2.1559
" />
<path d="M31.4963 2.1559
L31.4963 2.8211
" />
<path d="M33.0082 1.4907
L31.9196 3.1235
" />
<path d="M33.9758 2.8211
L33.9758 1.5511
" />
<path d="M33.9758 2.7607
L33.8549 2.8211
" />
<path d="M33.8549 2.8211
L33.6130 2.8211
" />
<path d="M33.6130 2.8211
L33.4920 2.7607
" />
<path d="M33.4920 2.7607
L33.4315 2.7002
" />
<path d="M33.4315 2.7002
L33.3711 2.5792
" />
<path d="M33.3711 2.5792
L33.3711 2.2164
" />
<path d="M33.3711 2.2164
L33.4315 2.0954
" />
<path d="M33.4315 2.0954
L33.4920 2.0349
" />
<path d="M33.4920 2.0349
L33.6130 1.9745
" />
<path d="M33.6130 1.9745
L33.8549 1.9745
" />
<path d="M33.8549 1.9745
L33.9758 2.0349
" />
<path d="M34.7620 2.8211
L34.6410 2.7607
" />
<path d="M34.6410 2.7607
L34.5805 2.7002
" />
<path d="M34.5805 2.7002
L34.5201 2.5792
" />
<path d="M34.5201 2.5792
L34.5201 2.2164
" />
<path d="M34.5201 2.2164
L34.5805 2.0954
" />
<path d="M34.5805 2.0954
L34.6410 2.0349
" />
<path d="M34.6410 2.0349
L34.7620 1.9745
" />
<path d="M34.7620 1.9745
L34.9434 1.9745
" />
<path d="M34.9434 1.9745
L35.0643 2.0349
" />
<path d="M35.0643 2.0349
L35.1248 2.0954
" />
<path d="M35.1248 2.0954
L35.1853 2.2164
" />
<path d="M35.1853 2.2164
L35.1853 2.5792
" />
<path d="M35.1853 2.5792
L35.1248 2.7002
" />
<path d="M35.1248 2.7002
L35.0643 2.7607
" />
<path d="M35.0643 2.7607
L34.9434 2.8211
" />
<path d="M34.9434 2.8211
L34.7620 2.8211
" />
<path d="M35.6086 1.9745
L35.8505 2.8211
" />
<path d="M35.8505 2.8211
L36.0924 2.2164
" />
<path d="M36.0924 2.2164
L36.3343 2.8211
" />
<path d="M36.3343 2.8211
L36.5762 1.9745
" />
<path d="M37.0600 1.9745
L37.0600 2.8211
" />
<path d="M37.0600 2.0954
L37.1205 2.0349
" />
<path d="M37.1205 2.0349
L37.2415 1.9745
" />
<path d="M37.2415 1.9745
L37.4229 1.9745
" />
<path d="M37.4229 1.9745
L37.5438 2.0349
" />
<path d="M37.5438 2.0349
L37.6043 2.1559
" />
<path d="M37.6043 2.1559
L37.6043 2.8211
" />
<path d="M38.3905 2.8211
L38.2695 2.7607
" />
<path d="M38.2695 2.7607
L38.2090 2.6397
" />
<path d="M38.2090 2.6397
L38.2090 1.5511
" />
<path d="M39.0557 2.8211
L38.9347 2.7607
" />
<path d="M38.9347 2.7607
L38.8742 2.7002
" />
<path d="M38.8742 2.7002
L38.8138 2.5792
" />
<path d="M38.8138 2.5792
L38.8138 2.2164
" />
<path d="M38.8138 2.2164
L38.8742 2.0954
" />
<path d="M38.8742 2.0954
L38.9347 2.0349
" />
<path d="M38.9347 2.0349
L39.0557 1.9745
" />
<path d="M39.0557 1.9745
L39.2371 1.9745
" />
<path d="M39.2371 1.9745
L39.3580 2.0349
" />
<path d="M39.3580 2.0349
L39.4185 2.0954
" />
<path d="M39.4185 2.0954
L39.4790 2.2164
" />
<path d="M39.4790 2.2164
L39.4790 2.5792
" />
<path d="M39.4790 2.5792
L39.4185 2.7002
" />
<path d="M39.4185 2.7002
L39.3580 2.7607
" />
<path d="M39.3580 2.7607
L39.2371 2.8211
" />
<path d="M39.2371 2.8211
L39.0557 2.8211
" />
<path d="M40.5675 2.8211
L40.5675 2.1559
" />
<path d="M40.5675 2.1559
L40.5070 2.0349
" />
<path d="M40.5070 2.0349
L40.3861 1.9745
" />
<path d="M40.3861 1.9745
L40.1442 1.9745
" />
<path d="M40.1442 1.9745
L40.0232 2.0349
" />
<path d="M40.5675 2.7607
L40.4466 2.8211
" />
<path d="M40.4466 2.8211
L40.1442 2.8211
" />
<path d="M40.1442 2.8211
L40.0232 2.7607
" />
<path d="M40.0232 2.7607
L39.9628 2.6397
" />
<path d="M39.9628 2.6397
L39.9628 2.5187
" />
<path d="M39.9628 2.5187
L40.0232 2.3978
" />
<path d="M40.0232 2.3978
L40.1442 2.3373
" />
<path d="M40.1442 2.3373
L40.4466 2.3373
" />
<path d="M40.4466 2.3373
L40.5675 2.2768
" />
<path d="M41.7165 2.8211
L41.7165 1.5511
" />
<path d="M41.7165 2.7607
L41.5956 2.8211
" />
<path d="M41.5956 2.8211
L41.3537 2.8211
" />
<path d="M41.3537 2.8211
L41.2327 2.7607
" />
<path d="M41.2327 2.7607
L41.1722 2.7002
" />
<path d="M41.1722 2.7002
L41.1118 2.5792
" />
<path d="M41.1118 2.5792
L41.1118 2.2164
" />
<path d="M41.1118 2.2164
L41.1722 2.0954
" />
<path d="M41.1722 2.0954
L41.2327 2.0349
" />
<path d="M41.2327 2.0349
L41.3537 1.9745
" />
<path d="M41.3537 1.9745
L41.5956 1.9745
" />
<path d="M41.5956 1.9745
L41.7165 2.0349
" />
<path d="M42.2608 2.7607
L42.3817 2.8211
" />
<path d="M42.3817 2.8211
L42.6236 2.8211
" />
<path d="M42.6236 2.8211
L42.7446 2.7607
" />
<path d="M42.7446 2.7607
L42.8050 2.6397
" />
<path d="M42.8050 2.6397
L42.8050 2.5792
" />
<path d="M42.8050 2.5792
L42.7446 2.4583
" />
<path d="M42.7446 2.4583
L42.6236 2.3978
" />
<path d="M42.6236 2.3978
L42.4422 2.3978
" />
<path d="M42.4422 2.3978
L42.3212 2.3373
" />
<path d="M42.3212 2.3373
L42.2608 2.2164
" />
<path d="M42.2608 2.2164
L42.2608 2.1559
" />
<path d="M42.2608 2.1559
L42.3212 2.0349
" />
<path d="M42.3212 2.0349
L42.4422 1.9745
" />
<path d="M42.4422 1.9745
L42.6236 1.9745
" />
<path d="M42.6236 1.9745
L42.7446 2.0349
" />
<path d="M44.2565 1.4907
L43.1679 3.1235
" />
<path d="M45.1636 2.7607
L45.0427 2.8211
" />
<path d="M45.0427 2.8211
L44.8008 2.8211
" />
<path d="M44.8008 2.8211
L44.6798 2.7607
" />
<path d="M44.6798 2.7607
L44.6194 2.6397
" />
<path d="M44.6194 2.6397
L44.6194 2.1559
" />
<path d="M44.6194 2.1559
L44.6798 2.0349
" />
<path d="M44.6798 2.0349
L44.8008 1.9745
" />
<path d="M44.8008 1.9745
L45.0427 1.9745
" />
<path d="M45.0427 1.9745
L45.1636 2.0349
" />
<path d="M45.1636 2.0349
L45.2241 2.1559
" />
<path d="M45.2241 2.1559
L45.2241 2.2768
" />
<path d="M45.2241 2.2768
L44.6194 2.3978
" />
<path d="M45.7684 1.9745
L45.7684 2.8211
" />
<path d="M45.7684 2.0954
L45.8289 2.0349
" />
<path d="M45.8289 2.0349
L45.9499 1.9745
" />
<path d="M45.9499 1.9745
L46.1313 1.9745
" />
<path d="M46.1313 1.9745
L46.2522 2.0349
" />
<path d="M46.2522 2.0349
L46.3127 2.1559
" />
<path d="M46.3127 2.1559
L46.3127 2.8211
" />
<path d="M47.8246 1.4907
L46.7360 3.1235
" />
<path d="M48.2479 2.8211
L48.2479 1.5511
" />
<path d="M48.2479 1.5511
L48.5503 1.5511
" />
<path d="M48.5503 1.5511
L48.7317 1.6116
" />
<path d="M48.7317 1.6116
L48.8527 1.7326
" />
<path d="M48.8527 1.7326
L48.9132 1.8535
" />
<path d="M48.9132 1.8535
L48.9736 2.0954
" />
<path d="M48.9736 2.0954
L48.9736 2.2768
" />
<path d="M48.9736 2.2768
L48.9132 2.5187
" />
<path d="M48.9132 2.5187
L48.8527 2.6397
" />
<path d="M48.8527 2.6397
L48.7317 2.7607
" />
<path d="M48.7317 2.7607
L48.5503 2.8211
" />
<path d="M48.5503 2.8211
L48.2479 2.8211
" />
<path d="M50.0017 2.7607
L49.8808 2.8211
" />
<path d="M49.8808 2.8211
L49.6389 2.8211
" />
<path d="M49.6389 2.8211
L49.5179 2.7607
" />
<path d="M49.5179 2.7607
L49.4575 2.6397
" />
<path d="M49.4575 2.6397
L49.4575 2.1559
" />
<path d="M49.4575 2.1559
L49.5179 2.0349
" />
<path d="M49.5179 2.0349
L49.6389 1.9745
" />
<path d="M49.6389 1.9745
L49.8808 1.9745
" />
<path d="M49.8808 1.9745
L50.0017 2.0349
" />
<path d="M50.0017 2.0349
L50.0622 2.1559
" />
<path d="M50.0622 2.1559
L50.0622 2.2768
" />
<path d="M50.0622 2.2768
L49.4575 2.3978
" />
<path d="M50.4856 1.9745
L50.7880 2.8211
" />
<path d="M50.7880 2.8211
L51.0903 1.9745
" />
<path d="M51.5741 2.8211
L51.5741 1.9745
" />
<path d="M51.5741 1.5511
L51.5137 1.6116
" />
<path d="M51.5137 1.6116
L51.5741 1.6721
" />
<path d="M51.5741 1.6721
L51.6346 1.6116
" />
<path d="M51.6346 1.6116
L51.5741 1.5511
" />
<path d="M51.5741 1.5511
L51.5741 1.6721
" />
<path d="M52.7232 2.7607
L52.6023 2.8211
" />
<path d="M52.6023 2.8211
L52.3604 2.8211
" />
<path d="M52.3604 2.8211
L52.2394 2.7607
" />
<path d="M52.2394 2.7607
L52.1789 2.7002
" />
<path d="M52.1789 2.7002
L52.1185 2.5792
" />
<path d="M52.1185 2.5792
L52.1185 2.2164
" />
<path d="M52.1185 2.2164
L52.1789 2.0954
" />
<path d="M52.1789 2.0954
L52.2394 2.0349
" />
<path d="M52.2394 2.0349
L52.3604 1.9745
" />
<path d="M52.3604 1.9745
L52.6023 1.9745
" />
<path d="M52.6023 1.9745
L52.7232 2.0349
" />
<path d="M53.7513 2.7607
L53.6304 2.8211
" />
<path d="M53.6304 2.8211
L53.3885 2.8211
" />
<path d="M53.3885 2.8211
L53.2675 2.7607
" />
<path d="M53.2675 2.7607
L53.2071 2.6397
" />
<path d="M53.2071 2.6397
L53.2071 2.1559
" />
<path d="M53.2071 2.1559
L53.2675 2.0349
" />
<path d="M53.2675 2.0349
L53.3885 1.9745
" />
<path d="M53.3885 1.9745
L53.6304 1.9745
" />
<path d="M53.6304 1.9745
L53.7513 2.0349
" />
<path d="M53.7513 2.0349
L53.8118 2.1559
" />
<path d="M53.8118 2.1559
L53.8118 2.2768
" />
<path d="M53.8118 2.2768
L53.2071 2.3978
" />
<path d="M54.3561 2.8211
L54.3561 1.5511
" />
<path d="M54.3561 1.5511
L54.6585 1.5511
" />
<path d="M54.6585 1.5511
L54.8399 1.6116
" />
<path d="M54.8399 1.6116
L54.9609 1.7326
" />
<path d="M54.9609 1.7326
L55.0214 1.8535
" />
<path d="M55.0214 1.8535
L55.0818 2.0954
" />
<path d="M55.0818 2.0954
L55.0818 2.2768
" />
<path d="M55.0818 2.2768
L55.0214 2.5187
" />
<path d="M55.0214 2.5187
L54.9609 2.6397
" />
<path d="M54.9609 2.6397
L54.8399 2.7607
" />
<path d="M54.8399 2.7607
L54.6585 2.8211
" />
<path d="M54.6585 2.8211
L54.3561 2.8211
" />
<path d="M55.8076 2.8211
L55.6866 2.7607
" />
<path d="M55.6866 2.7607
L55.6261 2.7002
" />
<path d="M55.6261 2.7002
L55.5657 2.5792
" />
<path d="M55.5657 2.5792
L55.5657 2.2164
" />
<path d="M55.5657 2.2164
L55.6261 2.0954
" />
<path d="M55.6261 2.0954
L55.6866 2.0349
" />
<path d="M55.6866 2.0349
L55.8076 1.9745
" />
<path d="M55.8076 1.9745
L55.9890 1.9745
" />
<path d="M55.9890 1.9745
L56.1099 2.0349
" />
<path d="M56.1099 2.0349
L56.1704 2.0954
" />
<path d="M56.1704 2.0954
L56.2309 2.2164
" />
<path d="M56.2309 2.2164
L56.2309 2.5792
" />
<path d="M56.2309 2.5792
L56.1704 2.7002
" />
<path d="M56.1704 2.7002
L56.1099 2.7607
" />
<path d="M56.1099 2.7607
L55.9890 2.8211
" />
<path d="M55.9890 2.8211
L55.8076 2.8211
" />
<path d="M57.3194 2.7607
L57.1985 2.8211
" />
<path d="M57.1985 2.8211
L56.9566 2.8211
" />
<path d="M56.9566 2.8211
L56.8356 2.7607
" />
<path d="M56.8356 2.7607
L56.7751 2.7002
" />
<path d="M56.7751 2.7002
L56.7147 2.5792
" />
<path d="M56.7147 2.5792
L56.7147 2.2164
" />
<path d="M56.7147 2.2164
L56.7751 2.0954
" />
<path d="M56.7751 2.0954
L56.8356 2.0349
" />
<path d="M56.8356 2.0349
L56.9566 1.9745
" />
<path d="M56.9566 1.9745
L57.1985 1.9745
" />
<path d="M57.1985 1.9745
L57.3194 2.0349
" />
<path d="M58.7709 1.4907
L57.6823 3.1235
" />
<path d="M59.1338 1.6721
L59.1942 1.6116
" />
<path d="M59.1942 1.6116
L59.3152 1.5511
" />
<path d="M59.3152 1.5511
L59.6176 1.5511
" />
<path d="M59.6176 1.5511
L59.7385 1.6116
" />
<path d="M59.7385 1.6116
L59.7990 1.6721
" />
<path d="M59.7990 1.6721
L59.8595 1.7930
" />
<path d="M59.8595 1.7930
L59.8595 1.9140
" />
<path d="M59.8595 1.9140
L59.7990 2.0954
" />
<path d="M59.7990 2.0954
L59.0733 2.8211
" />
<path d="M59.0733 2.8211
L59.8595 2.8211
" />
<path d="M61.0690 2.8211
L60.3433 2.8211
" />
<path d="M60.7061 2.8211
L60.7061 1.5511
" />
<path d="M60.7061 1.5511
L60.5852 1.7326
" />
<path d="M60.5852 1.7326
L60.4642 1.8535
" />
<path d="M60.4642 1.8535
L60.3433 1.9140
" />
<path d="M61.4923 1.5511
L62.2785 1.5511
" />
<path d="M62.2785 1.5511
L61.8551 2.0349
" />
<path d="M61.8551 2.0349
L62.0366 2.0349
" />
<path d="M62.0366 2.0349
L62.1575 2.0954
" />
<path d="M62.1575 2.0954
L62.2180 2.1559
" />
<path d="M62.2180 2.1559
L62.2785 2.2768
" />
<path d="M62.2785 2.2768
L62.2785 2.5792
" />
<path d="M62.2785 2.5792
L62.2180 2.7002
" />
<path d="M62.2180 2.7002
L62.1575 2.7607
" />
<path d="M62.1575 2.7607
L62.0366 2.8211
" />
<path d="M62.0366 2.8211
L61.6737 2.8211
" />
<path d="M61.6737 2.8211
L61.5528 2.7607
" />
<path d="M61.5528 2.7607
L61.4923 2.7002
" />
<path d="M63.4880 2.8211
L62.7623 2.8211
" />
<path d="M63.1251 2.8211
L63.1251 1.5511
" />
<path d="M63.1251 1.5511
L63.0042 1.7326
" />
<path d="M63.0042 1.7326
L62.8832 1.8535
" />
<path d="M62.8832 1.8535
L62.7623 1.9140
" />
<path d="M64.5765 1.9745
L64.5765 2.8211
" />
<path d="M64.2741 1.4907
L63.9718 2.3978
" />
<path d="M63.9718 2.3978
L64.7579 2.3978
" />
<path d="M65.7860 1.9745
L65.7860 3.0026
" />
<path d="M65.7860 3.0026
L65.7255 3.1235
" />
<path d="M65.7255 3.1235
L65.6651 3.1840
" />
<path d="M65.6651 3.1840
L65.5441 3.2445
" />
<path d="M65.5441 3.2445
L65.3627 3.2445
" />
<path d="M65.3627 3.2445
L65.2417 3.1840
" />
<path d="M65.7860 2.7607
L65.6651 2.8211
" />
<path d="M65.6651 2.8211
L65.4232 2.8211
" />
<path d="M65.4232 2.8211
L65.3022 2.7607
" />
<path d="M65.3022 2.7607
L65.2417 2.7002
" />
<path d="M65.2417 2.7002
L65.1813 2.5792
" />
<path d="M65.1813 2.5792
L65.1813 2.2164
" />
<path d="M65.1813 2.2164
L65.2417 2.0954
" />
<path d="M65.2417 2.0954
L65.3022 2.0349
" />
<path d="M65.3022 2.0349
L65.4232 1.9745
" />
<path d="M65.4232 1.9745
L65.6651 1.9745
" />
<path d="M65.6651 1.9745
L65.7860 2.0349
" />
<path d="M66.3907 2.7002
L66.4512 2.7607
" />
<path d="M66.4512 2.7607
L66.3907 2.8211
" />
<path d="M66.3907 2.8211
L66.3303 2.7607
" />
<path d="M66.3303 2.7607
L66.3907 2.7002
" />
<path d="M66.3907 2.7002
L66.3907 2.8211
" />
<path d="M66.9955 1.9745
L66.9955 3.2445
" />
<path d="M66.9955 2.0349
L67.1165 1.9745
" />
<path d="M67.1165 1.9745
L67.3584 1.9745
" />
<path d="M67.3584 1.9745
L67.4793 2.0349
" />
<path d="M67.4793 2.0349
L67.5398 2.0954
" />
<path d="M67.5398 2.0954
L67.6003 2.2164
" />
<path d="M67.6003 2.2164
L67.6003 2.5792
" />
<path d="M67.6003 2.5792
L67.5398 2.7002
" />
<path d="M67.5398 2.7002
L67.4793 2.7607
" />
<path d="M67.4793 2.7607
L67.3584 2.8211
" />
<path d="M67.3584 2.8211
L67.1165 2.8211
" />
<path d="M67.1165 2.8211
L66.9955 2.7607
" />
<path d="M68.6888 2.8211
L68.6888 1.5511
" />
<path d="M68.6888 2.7607
L68.5679 2.8211
" />
<path d="M68.5679 2.8211
L68.3260 2.8211
" />
<path d="M68.3260 2.8211
L68.2050 2.7607
" />
<path d="M68.2050 2.7607
L68.1445 2.7002
" />
<path d="M68.1445 2.7002
L68.0841 2.5792
" />
<path d="M68.0841 2.5792
L68.0841 2.2164
" />
<path d="M68.0841 2.2164
L68.1445 2.0954
" />
<path d="M68.1445 2.0954
L68.2050 2.0349
" />
<path d="M68.2050 2.0349
L68.3260 1.9745
" />
<path d="M68.3260 1.9745
L68.5679 1.9745
" />
<path d="M68.5679 1.9745
L68.6888 2.0349
" />
<path d="M69.1121 1.9745
L69.5959 1.9745
" />
<path d="M69.2935 2.8211
L69.2935 1.7326
" />
<path d="M69.2935 1.7326
L69.3540 1.6116
" />
<path d="M69.3540 1.6116
L69.4750 1.5511
" />
<path d="M69.4750 1.5511
L69.5959 1.5511
" />
</g></g> 
</svg>
