<?xml version="1.0" standalone="no"?>
 <!DOCTYPE svg PUBLIC "-//W3C//DTD SVG 1.1//EN" 
 "http://www.w3.org/Graphics/SVG/1.1/DTD/svg11.dtd"> 
<svg
  xmlns:svg="http://www.w3.org/2000/svg"
  xmlns="http://www.w3.org/2000/svg"
  xmlns:xlink="http://www.w3.org/1999/xlink"
  version="1.1"
  width="109.2454mm" height="18.2880mm" viewBox="0.0000 0.0000 109.2454 18.2880">
<title>SVG Image created as working.svg date 2023/07/31 20:40:25 </title>
  <desc>Image generated by Eeschema-SVG </desc>
<g style="fill:#000000; fill-opacity:1.0000;stroke:#000000; stroke-opacity:1.0000;
stroke-linecap:round; stroke-linejoin:round;"
 transform="translate(0 0) scale(1 1)">
</g>
<g style="fill:#840000; fill-opacity:0.0; 
stroke:#840000; stroke-width:0.0000; stroke-opacity:1; 
stroke-linecap:round; stroke-linejoin:round;">
</g>
<g style="fill:#FFFFC2; fill-opacity:0.0; 
stroke:#FFFFC2; stroke-width:0.0000; stroke-opacity:1; 
stroke-linecap:round; stroke-linejoin:round;">
</g>
<g style="fill:#FFFFC2; fill-opacity:1.0000; 
stroke:#FFFFC2; stroke-width:0.0000; stroke-opacity:1; 
stroke-linecap:round; stroke-linejoin:round;">
<path style="fill:#FFFFC2; fill-opacity:1.0000; 
stroke:#FFFFC2; stroke-width:0.0000; stroke-opacity:1; 
stroke-linecap:round; stroke-linejoin:round;fill-rule:evenodd;"
d="M 49.5426,4.0641
59.7026,9.1441
49.5426,14.2241
Z" /> 
</g>
<g style="fill:#840084; fill-opacity:1.0000; 
stroke:#840084; stroke-width:0.0000; stroke-opacity:1; 
stroke-linecap:round; stroke-linejoin:round;">
</g>
<g style="fill:#840000; fill-opacity:1.0000; 
stroke:#840000; stroke-width:0.0000; stroke-opacity:1; 
stroke-linecap:round; stroke-linejoin:round;">
</g>
<g style="fill:#840000; fill-opacity:0.0; 
stroke:#840000; stroke-width:0.2540; stroke-opacity:1; 
stroke-linecap:round; stroke-linejoin:round;">
<path style="fill:#840000; fill-opacity:0.0; 
stroke:#840000; stroke-width:0.2540; stroke-opacity:1; 
stroke-linecap:round; stroke-linejoin:round;fill:none"
d="M 49.5426,4.0641
59.7026,9.1441
49.5426,14.2241
Z" /> 
</g>
<g style="fill:#840000; fill-opacity:0.0; 
stroke:#840000; stroke-width:0.1524; stroke-opacity:1; 
stroke-linecap:round; stroke-linejoin:round;">
<path d="M54.6226 11.6841
L54.6226 16.7641
" />
</g>
<g style="fill:#006464; fill-opacity:0.0; 
stroke:#006464; stroke-width:0.1524; stroke-opacity:1; 
stroke-linecap:round; stroke-linejoin:round;">
</g>
<g style="fill:#006464; fill-opacity:0.0; 
stroke:#006464; stroke-width:0.1016; stroke-opacity:1; 
stroke-linecap:round; stroke-linejoin:round;">
<g transform="rotate(-90.000000 54.6226 11.5571)">
<text x="54.6226" y="11.8111"
textLength="1.5554" font-size="0.6773" lengthAdjust="spacingAndGlyphs"
text-anchor="start" opacity="0">REF</text>
</g>
<g class="stroked-text"><desc>REF</desc>
<path d="M54.8576 11.1458
L54.6157 11.3151
" />
<path d="M54.8576 11.4361
L54.3496 11.4361
" />
<path d="M54.3496 11.4361
L54.3496 11.2426
" />
<path d="M54.3496 11.2426
L54.3738 11.1942
" />
<path d="M54.3738 11.1942
L54.3980 11.1700
" />
<path d="M54.3980 11.1700
L54.4464 11.1458
" />
<path d="M54.4464 11.1458
L54.5190 11.1458
" />
<path d="M54.5190 11.1458
L54.5674 11.1700
" />
<path d="M54.5674 11.1700
L54.5915 11.1942
" />
<path d="M54.5915 11.1942
L54.6157 11.2426
" />
<path d="M54.6157 11.2426
L54.6157 11.4361
" />
<path d="M54.5915 10.9281
L54.5915 10.7588
" />
<path d="M54.8576 10.6862
L54.8576 10.9281
" />
<path d="M54.8576 10.9281
L54.3496 10.9281
" />
<path d="M54.3496 10.9281
L54.3496 10.6862
" />
<path d="M54.5915 10.2992
L54.5915 10.4685
" />
<path d="M54.8576 10.4685
L54.3496 10.4685
" />
<path d="M54.3496 10.4685
L54.3496 10.2266
" />
</g></g>
<g style="fill:#A90000; fill-opacity:0.0; 
stroke:#A90000; stroke-width:0.1016; stroke-opacity:1; 
stroke-linecap:round; stroke-linejoin:round;">
</g>
<g style="fill:#A90000; fill-opacity:0.0; 
stroke:#A90000; stroke-width:0.1524; stroke-opacity:1; 
stroke-linecap:round; stroke-linejoin:round;">
<g transform="rotate(-90.000000 54.3686 14.2241)">
<text x="54.3686" y="14.2241"
textLength="1.3365" font-size="1.6933" lengthAdjust="spacingAndGlyphs"
text-anchor="middle" opacity="0">1</text>
</g>
<g class="stroked-text"><desc>1</desc>
<path d="M54.2131 13.8611
L54.2131 14.5868
" />
<path d="M54.2131 14.2240
L52.9431 14.2240
" />
<path d="M52.9431 14.2240
L53.1246 14.3449
" />
<path d="M53.1246 14.3449
L53.2455 14.4659
" />
<path d="M53.2455 14.4659
L53.3060 14.5868
" />
</g></g>
<g style="fill:#840000; fill-opacity:0.0; 
stroke:#840000; stroke-width:0.1524; stroke-opacity:1; 
stroke-linecap:round; stroke-linejoin:round;">
<path d="M49.5426 11.6841
L47.0026 11.6841
" />
</g>
<g style="fill:#006464; fill-opacity:0.0; 
stroke:#006464; stroke-width:0.1524; stroke-opacity:1; 
stroke-linecap:round; stroke-linejoin:round;">
<text x="49.6696" y="12.3191"
textLength="1.6994" font-size="1.6933" lengthAdjust="spacingAndGlyphs"
text-anchor="start" opacity="0">-</text>
<g class="stroked-text"><desc>-</desc>
<path d="M49.9719 11.7878
L50.9396 11.7878
" />
</g></g>
<g style="fill:#A90000; fill-opacity:0.0; 
stroke:#A90000; stroke-width:0.1524; stroke-opacity:1; 
stroke-linecap:round; stroke-linejoin:round;">
<text x="48.2726" y="11.4301"
textLength="1.3365" font-size="1.6933" lengthAdjust="spacingAndGlyphs"
text-anchor="middle" opacity="0">2</text>
<g class="stroked-text"><desc>2</desc>
<path d="M47.9098 10.1256
L47.9702 10.0651
" />
<path d="M47.9702 10.0651
L48.0912 10.0046
" />
<path d="M48.0912 10.0046
L48.3936 10.0046
" />
<path d="M48.3936 10.0046
L48.5145 10.0651
" />
<path d="M48.5145 10.0651
L48.5750 10.1256
" />
<path d="M48.5750 10.1256
L48.6355 10.2465
" />
<path d="M48.6355 10.2465
L48.6355 10.3675
" />
<path d="M48.6355 10.3675
L48.5750 10.5489
" />
<path d="M48.5750 10.5489
L47.8493 11.2746
" />
<path d="M47.8493 11.2746
L48.6355 11.2746
" />
</g></g>
<g style="fill:#840000; fill-opacity:0.0; 
stroke:#840000; stroke-width:0.1524; stroke-opacity:1; 
stroke-linecap:round; stroke-linejoin:round;">
<path d="M49.5426 6.6041
L47.0026 6.6041
" />
</g>
<g style="fill:#006464; fill-opacity:0.0; 
stroke:#006464; stroke-width:0.1524; stroke-opacity:1; 
stroke-linecap:round; stroke-linejoin:round;">
<text x="49.6696" y="7.2391"
textLength="1.6994" font-size="1.6933" lengthAdjust="spacingAndGlyphs"
text-anchor="start" opacity="0">+</text>
<g class="stroked-text"><desc>+</desc>
<path d="M49.9719 6.7078
L50.9396 6.7078
" />
<path d="M50.4557 7.1916
L50.4557 6.2240
" />
</g></g>
<g style="fill:#A90000; fill-opacity:0.0; 
stroke:#A90000; stroke-width:0.1524; stroke-opacity:1; 
stroke-linecap:round; stroke-linejoin:round;">
<text x="48.2726" y="6.3501"
textLength="1.3365" font-size="1.6933" lengthAdjust="spacingAndGlyphs"
text-anchor="middle" opacity="0">3</text>
<g class="stroked-text"><desc>3</desc>
<path d="M47.8493 4.9246
L48.6355 4.9246
" />
<path d="M48.6355 4.9246
L48.2121 5.4084
" />
<path d="M48.2121 5.4084
L48.3936 5.4084
" />
<path d="M48.3936 5.4084
L48.5145 5.4689
" />
<path d="M48.5145 5.4689
L48.5750 5.5294
" />
<path d="M48.5750 5.5294
L48.6355 5.6503
" />
<path d="M48.6355 5.6503
L48.6355 5.9527
" />
<path d="M48.6355 5.9527
L48.5750 6.0737
" />
<path d="M48.5750 6.0737
L48.5145 6.1342
" />
<path d="M48.5145 6.1342
L48.3936 6.1946
" />
<path d="M48.3936 6.1946
L48.0307 6.1946
" />
<path d="M48.0307 6.1946
L47.9098 6.1342
" />
<path d="M47.9098 6.1342
L47.8493 6.0737
" />
</g></g>
<g style="fill:#840000; fill-opacity:0.0; 
stroke:#840000; stroke-width:0.1524; stroke-opacity:1; 
stroke-linecap:round; stroke-linejoin:round;">
<path d="M52.0826 12.9541
L52.0826 16.7641
" />
</g>
<g style="fill:#006464; fill-opacity:0.0; 
stroke:#006464; stroke-width:0.1524; stroke-opacity:1; 
stroke-linecap:round; stroke-linejoin:round;">
<g transform="rotate(-90.000000 52.0826 12.8271)">
<text x="52.0826" y="13.4621"
textLength="2.7880" font-size="1.6933" lengthAdjust="spacingAndGlyphs"
text-anchor="start" opacity="0">V-</text>
</g>
<g class="stroked-text"><desc>V-</desc>
<path d="M51.4001 12.7061
L52.6701 12.2828
" />
<path d="M52.6701 12.2828
L51.4001 11.8594
" />
<path d="M52.1863 11.4361
L52.1863 10.4685
" />
</g></g>
<g style="fill:#A90000; fill-opacity:0.0; 
stroke:#A90000; stroke-width:0.1524; stroke-opacity:1; 
stroke-linecap:round; stroke-linejoin:round;">
<g transform="rotate(-90.000000 51.8286 14.8591)">
<text x="51.8286" y="14.8591"
textLength="1.3365" font-size="1.6933" lengthAdjust="spacingAndGlyphs"
text-anchor="middle" opacity="0">4</text>
</g>
<g class="stroked-text"><desc>4</desc>
<path d="M50.8265 14.6171
L51.6731 14.6171
" />
<path d="M50.3427 14.9195
L51.2498 15.2218
" />
<path d="M51.2498 15.2218
L51.2498 14.4357
" />
</g></g>
<g style="fill:#840000; fill-opacity:0.0; 
stroke:#840000; stroke-width:0.1524; stroke-opacity:1; 
stroke-linecap:round; stroke-linejoin:round;">
<path d="M54.6226 6.6041
L54.6226 1.5241
" />
</g>
<g style="fill:#006464; fill-opacity:0.0; 
stroke:#006464; stroke-width:0.1524; stroke-opacity:1; 
stroke-linecap:round; stroke-linejoin:round;">
</g>
<g style="fill:#006464; fill-opacity:0.0; 
stroke:#006464; stroke-width:0.1016; stroke-opacity:1; 
stroke-linecap:round; stroke-linejoin:round;">
<g transform="rotate(-90.000000 54.6226 6.7311)">
<text x="54.6226" y="6.9851"
textLength="2.5714" font-size="0.6773" lengthAdjust="spacingAndGlyphs"
text-anchor="end" opacity="0">SENSE</text>
</g>
<g class="stroked-text"><desc>SENSE</desc>
<path d="M54.8335 9.0533
L54.8576 8.9807
" />
<path d="M54.8576 8.9807
L54.8576 8.8598
" />
<path d="M54.8576 8.8598
L54.8335 8.8114
" />
<path d="M54.8335 8.8114
L54.8093 8.7872
" />
<path d="M54.8093 8.7872
L54.7609 8.7630
" />
<path d="M54.7609 8.7630
L54.7125 8.7630
" />
<path d="M54.7125 8.7630
L54.6641 8.7872
" />
<path d="M54.6641 8.7872
L54.6399 8.8114
" />
<path d="M54.6399 8.8114
L54.6157 8.8598
" />
<path d="M54.6157 8.8598
L54.5915 8.9565
" />
<path d="M54.5915 8.9565
L54.5674 9.0049
" />
<path d="M54.5674 9.0049
L54.5432 9.0291
" />
<path d="M54.5432 9.0291
L54.4948 9.0533
" />
<path d="M54.4948 9.0533
L54.4464 9.0533
" />
<path d="M54.4464 9.0533
L54.3980 9.0291
" />
<path d="M54.3980 9.0291
L54.3738 9.0049
" />
<path d="M54.3738 9.0049
L54.3496 8.9565
" />
<path d="M54.3496 8.9565
L54.3496 8.8356
" />
<path d="M54.3496 8.8356
L54.3738 8.7630
" />
<path d="M54.5915 8.5453
L54.5915 8.3760
" />
<path d="M54.8576 8.3034
L54.8576 8.5453
" />
<path d="M54.8576 8.5453
L54.3496 8.5453
" />
<path d="M54.3496 8.5453
L54.3496 8.3034
" />
<path d="M54.8576 8.0857
L54.3496 8.0857
" />
<path d="M54.3496 8.0857
L54.8576 7.7954
" />
<path d="M54.8576 7.7954
L54.3496 7.7954
" />
<path d="M54.8335 7.5777
L54.8576 7.5051
" />
<path d="M54.8576 7.5051
L54.8576 7.3842
" />
<path d="M54.8576 7.3842
L54.8335 7.3358
" />
<path d="M54.8335 7.3358
L54.8093 7.3116
" />
<path d="M54.8093 7.3116
L54.7609 7.2874
" />
<path d="M54.7609 7.2874
L54.7125 7.2874
" />
<path d="M54.7125 7.2874
L54.6641 7.3116
" />
<path d="M54.6641 7.3116
L54.6399 7.3358
" />
<path d="M54.6399 7.3358
L54.6157 7.3842
" />
<path d="M54.6157 7.3842
L54.5915 7.4809
" />
<path d="M54.5915 7.4809
L54.5674 7.5293
" />
<path d="M54.5674 7.5293
L54.5432 7.5535
" />
<path d="M54.5432 7.5535
L54.4948 7.5777
" />
<path d="M54.4948 7.5777
L54.4464 7.5777
" />
<path d="M54.4464 7.5777
L54.3980 7.5535
" />
<path d="M54.3980 7.5535
L54.3738 7.5293
" />
<path d="M54.3738 7.5293
L54.3496 7.4809
" />
<path d="M54.3496 7.4809
L54.3496 7.3600
" />
<path d="M54.3496 7.3600
L54.3738 7.2874
" />
<path d="M54.5915 7.0697
L54.5915 6.9004
" />
<path d="M54.8576 6.8278
L54.8576 7.0697
" />
<path d="M54.8576 7.0697
L54.3496 7.0697
" />
<path d="M54.3496 7.0697
L54.3496 6.8278
" />
</g></g>
<g style="fill:#A90000; fill-opacity:0.0; 
stroke:#A90000; stroke-width:0.1016; stroke-opacity:1; 
stroke-linecap:round; stroke-linejoin:round;">
</g>
<g style="fill:#A90000; fill-opacity:0.0; 
stroke:#A90000; stroke-width:0.1524; stroke-opacity:1; 
stroke-linecap:round; stroke-linejoin:round;">
<g transform="rotate(-90.000000 54.3686 4.0641)">
<text x="54.3686" y="4.0641"
textLength="1.3365" font-size="1.6933" lengthAdjust="spacingAndGlyphs"
text-anchor="middle" opacity="0">5</text>
</g>
<g class="stroked-text"><desc>5</desc>
<path d="M52.9431 3.7616
L52.9431 4.3664
" />
<path d="M52.9431 4.3664
L53.5479 4.4268
" />
<path d="M53.5479 4.4268
L53.4874 4.3664
" />
<path d="M53.4874 4.3664
L53.4269 4.2454
" />
<path d="M53.4269 4.2454
L53.4269 3.9430
" />
<path d="M53.4269 3.9430
L53.4874 3.8221
" />
<path d="M53.4874 3.8221
L53.5479 3.7616
" />
<path d="M53.5479 3.7616
L53.6688 3.7011
" />
<path d="M53.6688 3.7011
L53.9712 3.7011
" />
<path d="M53.9712 3.7011
L54.0922 3.7616
" />
<path d="M54.0922 3.7616
L54.1527 3.8221
" />
<path d="M54.1527 3.8221
L54.2131 3.9430
" />
<path d="M54.2131 3.9430
L54.2131 4.2454
" />
<path d="M54.2131 4.2454
L54.1527 4.3664
" />
<path d="M54.1527 4.3664
L54.0922 4.4268
" />
</g></g>
<g style="fill:#840000; fill-opacity:0.0; 
stroke:#840000; stroke-width:0.1524; stroke-opacity:1; 
stroke-linecap:round; stroke-linejoin:round;">
<path d="M59.7026 9.1441
L62.2426 9.1441
" />
</g>
<g style="fill:#A90000; fill-opacity:0.0; 
stroke:#A90000; stroke-width:0.1524; stroke-opacity:1; 
stroke-linecap:round; stroke-linejoin:round;">
<text x="60.9726" y="8.8901"
textLength="1.3365" font-size="1.6933" lengthAdjust="spacingAndGlyphs"
text-anchor="middle" opacity="0">6</text>
<g class="stroked-text"><desc>6</desc>
<path d="M61.2145 7.4646
L60.9726 7.4646
" />
<path d="M60.9726 7.4646
L60.8517 7.5251
" />
<path d="M60.8517 7.5251
L60.7912 7.5856
" />
<path d="M60.7912 7.5856
L60.6702 7.7670
" />
<path d="M60.6702 7.7670
L60.6098 8.0089
" />
<path d="M60.6098 8.0089
L60.6098 8.4927
" />
<path d="M60.6098 8.4927
L60.6702 8.6137
" />
<path d="M60.6702 8.6137
L60.7307 8.6742
" />
<path d="M60.7307 8.6742
L60.8517 8.7346
" />
<path d="M60.8517 8.7346
L61.0936 8.7346
" />
<path d="M61.0936 8.7346
L61.2145 8.6742
" />
<path d="M61.2145 8.6742
L61.2750 8.6137
" />
<path d="M61.2750 8.6137
L61.3355 8.4927
" />
<path d="M61.3355 8.4927
L61.3355 8.1903
" />
<path d="M61.3355 8.1903
L61.2750 8.0694
" />
<path d="M61.2750 8.0694
L61.2145 8.0089
" />
<path d="M61.2145 8.0089
L61.0936 7.9484
" />
<path d="M61.0936 7.9484
L60.8517 7.9484
" />
<path d="M60.8517 7.9484
L60.7307 8.0089
" />
<path d="M60.7307 8.0089
L60.6702 8.0694
" />
<path d="M60.6702 8.0694
L60.6098 8.1903
" />
</g></g>
<g style="fill:#840000; fill-opacity:0.0; 
stroke:#840000; stroke-width:0.1524; stroke-opacity:1; 
stroke-linecap:round; stroke-linejoin:round;">
<path d="M52.0826 5.3341
L52.0826 1.5241
" />
</g>
<g style="fill:#006464; fill-opacity:0.0; 
stroke:#006464; stroke-width:0.1524; stroke-opacity:1; 
stroke-linecap:round; stroke-linejoin:round;">
<g transform="rotate(-90.000000 52.0826 5.4611)">
<text x="52.0826" y="6.0961"
textLength="2.7880" font-size="1.6933" lengthAdjust="spacingAndGlyphs"
text-anchor="end" opacity="0">V+</text>
</g>
<g class="stroked-text"><desc>V+</desc>
<path d="M51.4001 8.0011
L52.6701 7.5778
" />
<path d="M52.6701 7.5778
L51.4001 7.1544
" />
<path d="M52.1863 6.7311
L52.1863 5.7635
" />
<path d="M52.6701 6.2473
L51.7025 6.2473
" />
</g></g>
<g style="fill:#A90000; fill-opacity:0.0; 
stroke:#A90000; stroke-width:0.1524; stroke-opacity:1; 
stroke-linecap:round; stroke-linejoin:round;">
<g transform="rotate(-90.000000 51.8286 3.4291)">
<text x="51.8286" y="3.4291"
textLength="1.3365" font-size="1.6933" lengthAdjust="spacingAndGlyphs"
text-anchor="middle" opacity="0">7</text>
</g>
<g class="stroked-text"><desc>7</desc>
<path d="M50.4031 3.8523
L50.4031 3.0057
" />
<path d="M50.4031 3.0057
L51.6731 3.5499
" />
</g></g>
<g style="fill:#840084; fill-opacity:0.0; 
stroke:#840084; stroke-width:0.1524; stroke-opacity:1; 
stroke-linecap:round; stroke-linejoin:round;">
</g>
<g style="fill:#006464; fill-opacity:0.0; 
stroke:#006464; stroke-width:0.1524; stroke-opacity:1; 
stroke-linecap:round; stroke-linejoin:round;">
</g>
<g style="fill:#006464; fill-opacity:0.0; 
stroke:#006464; stroke-width:0.1588; stroke-opacity:1; 
stroke-linecap:round; stroke-linejoin:round;">
<text x="62.2426" y="4.6991"
textLength="2.5621" font-size="1.6933" lengthAdjust="spacingAndGlyphs"
text-anchor="middle" opacity="0">U?</text>
<g class="stroked-text"><desc>U?</desc>
<path d="M61.3354 3.3816
L61.3354 4.4097
" />
<path d="M61.3354 4.4097
L61.3959 4.5307
" />
<path d="M61.3959 4.5307
L61.4564 4.5912
" />
<path d="M61.4564 4.5912
L61.5773 4.6516
" />
<path d="M61.5773 4.6516
L61.8192 4.6516
" />
<path d="M61.8192 4.6516
L61.9402 4.5912
" />
<path d="M61.9402 4.5912
L62.0007 4.5307
" />
<path d="M62.0007 4.5307
L62.0611 4.4097
" />
<path d="M62.0611 4.4097
L62.0611 3.3816
" />
<path d="M62.8474 4.5307
L62.9078 4.5912
" />
<path d="M62.9078 4.5912
L62.8474 4.6516
" />
<path d="M62.8474 4.6516
L62.7869 4.5912
" />
<path d="M62.7869 4.5912
L62.8474 4.5307
" />
<path d="M62.8474 4.5307
L62.8474 4.6516
" />
<path d="M62.6055 3.4421
L62.7264 3.3816
" />
<path d="M62.7264 3.3816
L63.0288 3.3816
" />
<path d="M63.0288 3.3816
L63.1497 3.4421
" />
<path d="M63.1497 3.4421
L63.2102 3.5631
" />
<path d="M63.2102 3.5631
L63.2102 3.6840
" />
<path d="M63.2102 3.6840
L63.1497 3.8050
" />
<path d="M63.1497 3.8050
L63.0893 3.8654
" />
<path d="M63.0893 3.8654
L62.9683 3.9259
" />
<path d="M62.9683 3.9259
L62.9078 3.9864
" />
<path d="M62.9078 3.9864
L62.8474 4.1073
" />
<path d="M62.8474 4.1073
L62.8474 4.1678
" />
</g><text x="62.2426" y="7.2391"
textLength="7.3396" font-size="1.6933" lengthAdjust="spacingAndGlyphs"
text-anchor="middle" opacity="0">AD8276</text>
<g class="stroked-text"><desc>AD8276</desc>
<path d="M58.8862 6.8288
L59.4909 6.8288
" />
<path d="M58.7652 7.1916
L59.1885 5.9216
" />
<path d="M59.1885 5.9216
L59.6119 7.1916
" />
<path d="M60.0352 7.1916
L60.0352 5.9216
" />
<path d="M60.0352 5.9216
L60.3376 5.9216
" />
<path d="M60.3376 5.9216
L60.5190 5.9821
" />
<path d="M60.5190 5.9821
L60.6400 6.1031
" />
<path d="M60.6400 6.1031
L60.7005 6.2240
" />
<path d="M60.7005 6.2240
L60.7609 6.4659
" />
<path d="M60.7609 6.4659
L60.7609 6.6473
" />
<path d="M60.7609 6.6473
L60.7005 6.8892
" />
<path d="M60.7005 6.8892
L60.6400 7.0102
" />
<path d="M60.6400 7.0102
L60.5190 7.1312
" />
<path d="M60.5190 7.1312
L60.3376 7.1916
" />
<path d="M60.3376 7.1916
L60.0352 7.1916
" />
<path d="M61.4867 6.4659
L61.3657 6.4054
" />
<path d="M61.3657 6.4054
L61.3052 6.3450
" />
<path d="M61.3052 6.3450
L61.2448 6.2240
" />
<path d="M61.2448 6.2240
L61.2448 6.1635
" />
<path d="M61.2448 6.1635
L61.3052 6.0426
" />
<path d="M61.3052 6.0426
L61.3657 5.9821
" />
<path d="M61.3657 5.9821
L61.4867 5.9216
" />
<path d="M61.4867 5.9216
L61.7286 5.9216
" />
<path d="M61.7286 5.9216
L61.8495 5.9821
" />
<path d="M61.8495 5.9821
L61.9100 6.0426
" />
<path d="M61.9100 6.0426
L61.9705 6.1635
" />
<path d="M61.9705 6.1635
L61.9705 6.2240
" />
<path d="M61.9705 6.2240
L61.9100 6.3450
" />
<path d="M61.9100 6.3450
L61.8495 6.4054
" />
<path d="M61.8495 6.4054
L61.7286 6.4659
" />
<path d="M61.7286 6.4659
L61.4867 6.4659
" />
<path d="M61.4867 6.4659
L61.3657 6.5264
" />
<path d="M61.3657 6.5264
L61.3052 6.5869
" />
<path d="M61.3052 6.5869
L61.2448 6.7078
" />
<path d="M61.2448 6.7078
L61.2448 6.9497
" />
<path d="M61.2448 6.9497
L61.3052 7.0707
" />
<path d="M61.3052 7.0707
L61.3657 7.1312
" />
<path d="M61.3657 7.1312
L61.4867 7.1916
" />
<path d="M61.4867 7.1916
L61.7286 7.1916
" />
<path d="M61.7286 7.1916
L61.8495 7.1312
" />
<path d="M61.8495 7.1312
L61.9100 7.0707
" />
<path d="M61.9100 7.0707
L61.9705 6.9497
" />
<path d="M61.9705 6.9497
L61.9705 6.7078
" />
<path d="M61.9705 6.7078
L61.9100 6.5869
" />
<path d="M61.9100 6.5869
L61.8495 6.5264
" />
<path d="M61.8495 6.5264
L61.7286 6.4659
" />
<path d="M62.4543 6.0426
L62.5147 5.9821
" />
<path d="M62.5147 5.9821
L62.6357 5.9216
" />
<path d="M62.6357 5.9216
L62.9381 5.9216
" />
<path d="M62.9381 5.9216
L63.0590 5.9821
" />
<path d="M63.0590 5.9821
L63.1195 6.0426
" />
<path d="M63.1195 6.0426
L63.1800 6.1635
" />
<path d="M63.1800 6.1635
L63.1800 6.2845
" />
<path d="M63.1800 6.2845
L63.1195 6.4659
" />
<path d="M63.1195 6.4659
L62.3938 7.1916
" />
<path d="M62.3938 7.1916
L63.1800 7.1916
" />
<path d="M63.6033 5.9216
L64.4499 5.9216
" />
<path d="M64.4499 5.9216
L63.9057 7.1916
" />
<path d="M65.4780 5.9216
L65.2361 5.9216
" />
<path d="M65.2361 5.9216
L65.1152 5.9821
" />
<path d="M65.1152 5.9821
L65.0547 6.0426
" />
<path d="M65.0547 6.0426
L64.9337 6.2240
" />
<path d="M64.9337 6.2240
L64.8733 6.4659
" />
<path d="M64.8733 6.4659
L64.8733 6.9497
" />
<path d="M64.8733 6.9497
L64.9337 7.0707
" />
<path d="M64.9337 7.0707
L64.9942 7.1312
" />
<path d="M64.9942 7.1312
L65.1152 7.1916
" />
<path d="M65.1152 7.1916
L65.3571 7.1916
" />
<path d="M65.3571 7.1916
L65.4780 7.1312
" />
<path d="M65.4780 7.1312
L65.5385 7.0707
" />
<path d="M65.5385 7.0707
L65.5990 6.9497
" />
<path d="M65.5990 6.9497
L65.5990 6.6473
" />
<path d="M65.5990 6.6473
L65.5385 6.5264
" />
<path d="M65.5385 6.5264
L65.4780 6.4659
" />
<path d="M65.4780 6.4659
L65.3571 6.4054
" />
<path d="M65.3571 6.4054
L65.1152 6.4054
" />
<path d="M65.1152 6.4054
L64.9942 6.4659
" />
<path d="M64.9942 6.4659
L64.9337 6.5264
" />
<path d="M64.9337 6.5264
L64.8733 6.6473
" />
</g></g>
<g style="fill:#840084; fill-opacity:0.0; 
stroke:#840084; stroke-width:0.1588; stroke-opacity:1; 
stroke-linecap:round; stroke-linejoin:round;">
<text x="54.6226" y="9.7791"
textLength="91.0378" font-size="1.6933" lengthAdjust="spacingAndGlyphs"
text-anchor="middle" opacity="0">https://www.analog.com/media/en/technical-documentation/data-sheets/AD8276_8277.pdf</text>
<g class="stroked-text"><desc>https://www.analog.com/media/en/technical-documentation/data-sheets/AD8276_8277.pdf</desc>
<path d="M9.4775 9.7316
L9.4775 8.4616
" />
<path d="M10.0218 9.7316
L10.0218 9.0664
" />
<path d="M10.0218 9.0664
L9.9613 8.9454
" />
<path d="M9.9613 8.9454
L9.8404 8.8850
" />
<path d="M9.8404 8.8850
L9.6590 8.8850
" />
<path d="M9.6590 8.8850
L9.5380 8.9454
" />
<path d="M9.5380 8.9454
L9.4775 9.0059
" />
<path d="M10.4451 8.8850
L10.9289 8.8850
" />
<path d="M10.6265 8.4616
L10.6265 9.5502
" />
<path d="M10.6265 9.5502
L10.6870 9.6712
" />
<path d="M10.6870 9.6712
L10.8080 9.7316
" />
<path d="M10.8080 9.7316
L10.9289 9.7316
" />
<path d="M11.1708 8.8850
L11.6546 8.8850
" />
<path d="M11.3522 8.4616
L11.3522 9.5502
" />
<path d="M11.3522 9.5502
L11.4127 9.6712
" />
<path d="M11.4127 9.6712
L11.5337 9.7316
" />
<path d="M11.5337 9.7316
L11.6546 9.7316
" />
<path d="M12.0779 8.8850
L12.0779 10.1550
" />
<path d="M12.0779 8.9454
L12.1989 8.8850
" />
<path d="M12.1989 8.8850
L12.4408 8.8850
" />
<path d="M12.4408 8.8850
L12.5617 8.9454
" />
<path d="M12.5617 8.9454
L12.6222 9.0059
" />
<path d="M12.6222 9.0059
L12.6827 9.1269
" />
<path d="M12.6827 9.1269
L12.6827 9.4897
" />
<path d="M12.6827 9.4897
L12.6222 9.6107
" />
<path d="M12.6222 9.6107
L12.5617 9.6712
" />
<path d="M12.5617 9.6712
L12.4408 9.7316
" />
<path d="M12.4408 9.7316
L12.1989 9.7316
" />
<path d="M12.1989 9.7316
L12.0779 9.6712
" />
<path d="M13.1665 9.6712
L13.2874 9.7316
" />
<path d="M13.2874 9.7316
L13.5293 9.7316
" />
<path d="M13.5293 9.7316
L13.6503 9.6712
" />
<path d="M13.6503 9.6712
L13.7107 9.5502
" />
<path d="M13.7107 9.5502
L13.7107 9.4897
" />
<path d="M13.7107 9.4897
L13.6503 9.3688
" />
<path d="M13.6503 9.3688
L13.5293 9.3083
" />
<path d="M13.5293 9.3083
L13.3479 9.3083
" />
<path d="M13.3479 9.3083
L13.2269 9.2478
" />
<path d="M13.2269 9.2478
L13.1665 9.1269
" />
<path d="M13.1665 9.1269
L13.1665 9.0664
" />
<path d="M13.1665 9.0664
L13.2269 8.9454
" />
<path d="M13.2269 8.9454
L13.3479 8.8850
" />
<path d="M13.3479 8.8850
L13.5293 8.8850
" />
<path d="M13.5293 8.8850
L13.6503 8.9454
" />
<path d="M14.2550 9.6107
L14.3155 9.6712
" />
<path d="M14.3155 9.6712
L14.2550 9.7316
" />
<path d="M14.2550 9.7316
L14.1946 9.6712
" />
<path d="M14.1946 9.6712
L14.2550 9.6107
" />
<path d="M14.2550 9.6107
L14.2550 9.7316
" />
<path d="M14.2550 8.9454
L14.3155 9.0059
" />
<path d="M14.3155 9.0059
L14.2550 9.0664
" />
<path d="M14.2550 9.0664
L14.1946 9.0059
" />
<path d="M14.1946 9.0059
L14.2550 8.9454
" />
<path d="M14.2550 8.9454
L14.2550 9.0664
" />
<path d="M15.7670 8.4012
L14.6784 10.0340
" />
<path d="M17.0975 8.4012
L16.0089 10.0340
" />
<path d="M17.3999 8.8850
L17.6418 9.7316
" />
<path d="M17.6418 9.7316
L17.8837 9.1269
" />
<path d="M17.8837 9.1269
L18.1256 9.7316
" />
<path d="M18.1256 9.7316
L18.3675 8.8850
" />
<path d="M18.7304 8.8850
L18.9723 9.7316
" />
<path d="M18.9723 9.7316
L19.2142 9.1269
" />
<path d="M19.2142 9.1269
L19.4561 9.7316
" />
<path d="M19.4561 9.7316
L19.6980 8.8850
" />
<path d="M20.0609 8.8850
L20.3028 9.7316
" />
<path d="M20.3028 9.7316
L20.5447 9.1269
" />
<path d="M20.5447 9.1269
L20.7866 9.7316
" />
<path d="M20.7866 9.7316
L21.0285 8.8850
" />
<path d="M21.5123 9.6107
L21.5728 9.6712
" />
<path d="M21.5728 9.6712
L21.5123 9.7316
" />
<path d="M21.5123 9.7316
L21.4519 9.6712
" />
<path d="M21.4519 9.6712
L21.5123 9.6107
" />
<path d="M21.5123 9.6107
L21.5123 9.7316
" />
<path d="M22.6614 9.7316
L22.6614 9.0664
" />
<path d="M22.6614 9.0664
L22.6009 8.9454
" />
<path d="M22.6009 8.9454
L22.4800 8.8850
" />
<path d="M22.4800 8.8850
L22.2381 8.8850
" />
<path d="M22.2381 8.8850
L22.1171 8.9454
" />
<path d="M22.6614 9.6712
L22.5405 9.7316
" />
<path d="M22.5405 9.7316
L22.2381 9.7316
" />
<path d="M22.2381 9.7316
L22.1171 9.6712
" />
<path d="M22.1171 9.6712
L22.0567 9.5502
" />
<path d="M22.0567 9.5502
L22.0567 9.4292
" />
<path d="M22.0567 9.4292
L22.1171 9.3083
" />
<path d="M22.1171 9.3083
L22.2381 9.2478
" />
<path d="M22.2381 9.2478
L22.5405 9.2478
" />
<path d="M22.5405 9.2478
L22.6614 9.1873
" />
<path d="M23.2661 8.8850
L23.2661 9.7316
" />
<path d="M23.2661 9.0059
L23.3266 8.9454
" />
<path d="M23.3266 8.9454
L23.4476 8.8850
" />
<path d="M23.4476 8.8850
L23.6290 8.8850
" />
<path d="M23.6290 8.8850
L23.7499 8.9454
" />
<path d="M23.7499 8.9454
L23.8104 9.0664
" />
<path d="M23.8104 9.0664
L23.8104 9.7316
" />
<path d="M24.9594 9.7316
L24.9594 9.0664
" />
<path d="M24.9594 9.0664
L24.8989 8.9454
" />
<path d="M24.8989 8.9454
L24.7780 8.8850
" />
<path d="M24.7780 8.8850
L24.5361 8.8850
" />
<path d="M24.5361 8.8850
L24.4151 8.9454
" />
<path d="M24.9594 9.6712
L24.8385 9.7316
" />
<path d="M24.8385 9.7316
L24.5361 9.7316
" />
<path d="M24.5361 9.7316
L24.4151 9.6712
" />
<path d="M24.4151 9.6712
L24.3547 9.5502
" />
<path d="M24.3547 9.5502
L24.3547 9.4292
" />
<path d="M24.3547 9.4292
L24.4151 9.3083
" />
<path d="M24.4151 9.3083
L24.5361 9.2478
" />
<path d="M24.5361 9.2478
L24.8385 9.2478
" />
<path d="M24.8385 9.2478
L24.9594 9.1873
" />
<path d="M25.7456 9.7316
L25.6246 9.6712
" />
<path d="M25.6246 9.6712
L25.5641 9.5502
" />
<path d="M25.5641 9.5502
L25.5641 8.4616
" />
<path d="M26.4108 9.7316
L26.2898 9.6712
" />
<path d="M26.2898 9.6712
L26.2293 9.6107
" />
<path d="M26.2293 9.6107
L26.1689 9.4897
" />
<path d="M26.1689 9.4897
L26.1689 9.1269
" />
<path d="M26.1689 9.1269
L26.2293 9.0059
" />
<path d="M26.2293 9.0059
L26.2898 8.9454
" />
<path d="M26.2898 8.9454
L26.4108 8.8850
" />
<path d="M26.4108 8.8850
L26.5922 8.8850
" />
<path d="M26.5922 8.8850
L26.7131 8.9454
" />
<path d="M26.7131 8.9454
L26.7736 9.0059
" />
<path d="M26.7736 9.0059
L26.8341 9.1269
" />
<path d="M26.8341 9.1269
L26.8341 9.4897
" />
<path d="M26.8341 9.4897
L26.7736 9.6107
" />
<path d="M26.7736 9.6107
L26.7131 9.6712
" />
<path d="M26.7131 9.6712
L26.5922 9.7316
" />
<path d="M26.5922 9.7316
L26.4108 9.7316
" />
<path d="M27.9226 8.8850
L27.9226 9.9131
" />
<path d="M27.9226 9.9131
L27.8621 10.0340
" />
<path d="M27.8621 10.0340
L27.8017 10.0945
" />
<path d="M27.8017 10.0945
L27.6807 10.1550
" />
<path d="M27.6807 10.1550
L27.4993 10.1550
" />
<path d="M27.4993 10.1550
L27.3783 10.0945
" />
<path d="M27.9226 9.6712
L27.8017 9.7316
" />
<path d="M27.8017 9.7316
L27.5598 9.7316
" />
<path d="M27.5598 9.7316
L27.4388 9.6712
" />
<path d="M27.4388 9.6712
L27.3783 9.6107
" />
<path d="M27.3783 9.6107
L27.3179 9.4897
" />
<path d="M27.3179 9.4897
L27.3179 9.1269
" />
<path d="M27.3179 9.1269
L27.3783 9.0059
" />
<path d="M27.3783 9.0059
L27.4388 8.9454
" />
<path d="M27.4388 8.9454
L27.5598 8.8850
" />
<path d="M27.5598 8.8850
L27.8017 8.8850
" />
<path d="M27.8017 8.8850
L27.9226 8.9454
" />
<path d="M28.5273 9.6107
L28.5878 9.6712
" />
<path d="M28.5878 9.6712
L28.5273 9.7316
" />
<path d="M28.5273 9.7316
L28.4669 9.6712
" />
<path d="M28.4669 9.6712
L28.5273 9.6107
" />
<path d="M28.5273 9.6107
L28.5273 9.7316
" />
<path d="M29.6764 9.6712
L29.5555 9.7316
" />
<path d="M29.5555 9.7316
L29.3136 9.7316
" />
<path d="M29.3136 9.7316
L29.1926 9.6712
" />
<path d="M29.1926 9.6712
L29.1321 9.6107
" />
<path d="M29.1321 9.6107
L29.0717 9.4897
" />
<path d="M29.0717 9.4897
L29.0717 9.1269
" />
<path d="M29.0717 9.1269
L29.1321 9.0059
" />
<path d="M29.1321 9.0059
L29.1926 8.9454
" />
<path d="M29.1926 8.9454
L29.3136 8.8850
" />
<path d="M29.3136 8.8850
L29.5555 8.8850
" />
<path d="M29.5555 8.8850
L29.6764 8.9454
" />
<path d="M30.4022 9.7316
L30.2812 9.6712
" />
<path d="M30.2812 9.6712
L30.2207 9.6107
" />
<path d="M30.2207 9.6107
L30.1603 9.4897
" />
<path d="M30.1603 9.4897
L30.1603 9.1269
" />
<path d="M30.1603 9.1269
L30.2207 9.0059
" />
<path d="M30.2207 9.0059
L30.2812 8.9454
" />
<path d="M30.2812 8.9454
L30.4022 8.8850
" />
<path d="M30.4022 8.8850
L30.5836 8.8850
" />
<path d="M30.5836 8.8850
L30.7045 8.9454
" />
<path d="M30.7045 8.9454
L30.7650 9.0059
" />
<path d="M30.7650 9.0059
L30.8255 9.1269
" />
<path d="M30.8255 9.1269
L30.8255 9.4897
" />
<path d="M30.8255 9.4897
L30.7650 9.6107
" />
<path d="M30.7650 9.6107
L30.7045 9.6712
" />
<path d="M30.7045 9.6712
L30.5836 9.7316
" />
<path d="M30.5836 9.7316
L30.4022 9.7316
" />
<path d="M31.3697 9.7316
L31.3697 8.8850
" />
<path d="M31.3697 9.0059
L31.4302 8.9454
" />
<path d="M31.4302 8.9454
L31.5512 8.8850
" />
<path d="M31.5512 8.8850
L31.7326 8.8850
" />
<path d="M31.7326 8.8850
L31.8535 8.9454
" />
<path d="M31.8535 8.9454
L31.9140 9.0664
" />
<path d="M31.9140 9.0664
L31.9140 9.7316
" />
<path d="M31.9140 9.0664
L31.9745 8.9454
" />
<path d="M31.9745 8.9454
L32.0954 8.8850
" />
<path d="M32.0954 8.8850
L32.2769 8.8850
" />
<path d="M32.2769 8.8850
L32.3978 8.9454
" />
<path d="M32.3978 8.9454
L32.4583 9.0664
" />
<path d="M32.4583 9.0664
L32.4583 9.7316
" />
<path d="M33.9702 8.4012
L32.8816 10.0340
" />
<path d="M34.3935 9.7316
L34.3935 8.8850
" />
<path d="M34.3935 9.0059
L34.4540 8.9454
" />
<path d="M34.4540 8.9454
L34.5750 8.8850
" />
<path d="M34.5750 8.8850
L34.7564 8.8850
" />
<path d="M34.7564 8.8850
L34.8773 8.9454
" />
<path d="M34.8773 8.9454
L34.9378 9.0664
" />
<path d="M34.9378 9.0664
L34.9378 9.7316
" />
<path d="M34.9378 9.0664
L34.9983 8.9454
" />
<path d="M34.9983 8.9454
L35.1192 8.8850
" />
<path d="M35.1192 8.8850
L35.3007 8.8850
" />
<path d="M35.3007 8.8850
L35.4216 8.9454
" />
<path d="M35.4216 8.9454
L35.4821 9.0664
" />
<path d="M35.4821 9.0664
L35.4821 9.7316
" />
<path d="M36.5706 9.6712
L36.4497 9.7316
" />
<path d="M36.4497 9.7316
L36.2078 9.7316
" />
<path d="M36.2078 9.7316
L36.0868 9.6712
" />
<path d="M36.0868 9.6712
L36.0264 9.5502
" />
<path d="M36.0264 9.5502
L36.0264 9.0664
" />
<path d="M36.0264 9.0664
L36.0868 8.9454
" />
<path d="M36.0868 8.9454
L36.2078 8.8850
" />
<path d="M36.2078 8.8850
L36.4497 8.8850
" />
<path d="M36.4497 8.8850
L36.5706 8.9454
" />
<path d="M36.5706 8.9454
L36.6311 9.0664
" />
<path d="M36.6311 9.0664
L36.6311 9.1873
" />
<path d="M36.6311 9.1873
L36.0264 9.3083
" />
<path d="M37.7197 9.7316
L37.7197 8.4616
" />
<path d="M37.7197 9.6712
L37.5988 9.7316
" />
<path d="M37.5988 9.7316
L37.3569 9.7316
" />
<path d="M37.3569 9.7316
L37.2359 9.6712
" />
<path d="M37.2359 9.6712
L37.1754 9.6107
" />
<path d="M37.1754 9.6107
L37.1150 9.4897
" />
<path d="M37.1150 9.4897
L37.1150 9.1269
" />
<path d="M37.1150 9.1269
L37.1754 9.0059
" />
<path d="M37.1754 9.0059
L37.2359 8.9454
" />
<path d="M37.2359 8.9454
L37.3569 8.8850
" />
<path d="M37.3569 8.8850
L37.5988 8.8850
" />
<path d="M37.5988 8.8850
L37.7197 8.9454
" />
<path d="M38.3244 9.7316
L38.3244 8.8850
" />
<path d="M38.3244 8.4616
L38.2640 8.5221
" />
<path d="M38.2640 8.5221
L38.3244 8.5826
" />
<path d="M38.3244 8.5826
L38.3849 8.5221
" />
<path d="M38.3849 8.5221
L38.3244 8.4616
" />
<path d="M38.3244 8.4616
L38.3244 8.5826
" />
<path d="M39.4735 9.7316
L39.4735 9.0664
" />
<path d="M39.4735 9.0664
L39.4130 8.9454
" />
<path d="M39.4130 8.9454
L39.2921 8.8850
" />
<path d="M39.2921 8.8850
L39.0502 8.8850
" />
<path d="M39.0502 8.8850
L38.9292 8.9454
" />
<path d="M39.4735 9.6712
L39.3526 9.7316
" />
<path d="M39.3526 9.7316
L39.0502 9.7316
" />
<path d="M39.0502 9.7316
L38.9292 9.6712
" />
<path d="M38.9292 9.6712
L38.8688 9.5502
" />
<path d="M38.8688 9.5502
L38.8688 9.4292
" />
<path d="M38.8688 9.4292
L38.9292 9.3083
" />
<path d="M38.9292 9.3083
L39.0502 9.2478
" />
<path d="M39.0502 9.2478
L39.3526 9.2478
" />
<path d="M39.3526 9.2478
L39.4735 9.1873
" />
<path d="M40.9854 8.4012
L39.8968 10.0340
" />
<path d="M41.8925 9.6712
L41.7716 9.7316
" />
<path d="M41.7716 9.7316
L41.5297 9.7316
" />
<path d="M41.5297 9.7316
L41.4087 9.6712
" />
<path d="M41.4087 9.6712
L41.3483 9.5502
" />
<path d="M41.3483 9.5502
L41.3483 9.0664
" />
<path d="M41.3483 9.0664
L41.4087 8.9454
" />
<path d="M41.4087 8.9454
L41.5297 8.8850
" />
<path d="M41.5297 8.8850
L41.7716 8.8850
" />
<path d="M41.7716 8.8850
L41.8925 8.9454
" />
<path d="M41.8925 8.9454
L41.9530 9.0664
" />
<path d="M41.9530 9.0664
L41.9530 9.1873
" />
<path d="M41.9530 9.1873
L41.3483 9.3083
" />
<path d="M42.4973 8.8850
L42.4973 9.7316
" />
<path d="M42.4973 9.0059
L42.5578 8.9454
" />
<path d="M42.5578 8.9454
L42.6788 8.8850
" />
<path d="M42.6788 8.8850
L42.8602 8.8850
" />
<path d="M42.8602 8.8850
L42.9811 8.9454
" />
<path d="M42.9811 8.9454
L43.0416 9.0664
" />
<path d="M43.0416 9.0664
L43.0416 9.7316
" />
<path d="M44.5535 8.4012
L43.4649 10.0340
" />
<path d="M44.7954 8.8850
L45.2792 8.8850
" />
<path d="M44.9768 8.4616
L44.9768 9.5502
" />
<path d="M44.9768 9.5502
L45.0373 9.6712
" />
<path d="M45.0373 9.6712
L45.1583 9.7316
" />
<path d="M45.1583 9.7316
L45.2792 9.7316
" />
<path d="M46.1863 9.6712
L46.0654 9.7316
" />
<path d="M46.0654 9.7316
L45.8235 9.7316
" />
<path d="M45.8235 9.7316
L45.7025 9.6712
" />
<path d="M45.7025 9.6712
L45.6421 9.5502
" />
<path d="M45.6421 9.5502
L45.6421 9.0664
" />
<path d="M45.6421 9.0664
L45.7025 8.9454
" />
<path d="M45.7025 8.9454
L45.8235 8.8850
" />
<path d="M45.8235 8.8850
L46.0654 8.8850
" />
<path d="M46.0654 8.8850
L46.1863 8.9454
" />
<path d="M46.1863 8.9454
L46.2468 9.0664
" />
<path d="M46.2468 9.0664
L46.2468 9.1873
" />
<path d="M46.2468 9.1873
L45.6421 9.3083
" />
<path d="M47.3354 9.6712
L47.2145 9.7316
" />
<path d="M47.2145 9.7316
L46.9726 9.7316
" />
<path d="M46.9726 9.7316
L46.8516 9.6712
" />
<path d="M46.8516 9.6712
L46.7911 9.6107
" />
<path d="M46.7911 9.6107
L46.7307 9.4897
" />
<path d="M46.7307 9.4897
L46.7307 9.1269
" />
<path d="M46.7307 9.1269
L46.7911 9.0059
" />
<path d="M46.7911 9.0059
L46.8516 8.9454
" />
<path d="M46.8516 8.9454
L46.9726 8.8850
" />
<path d="M46.9726 8.8850
L47.2145 8.8850
" />
<path d="M47.2145 8.8850
L47.3354 8.9454
" />
<path d="M47.8797 9.7316
L47.8797 8.4616
" />
<path d="M48.4240 9.7316
L48.4240 9.0664
" />
<path d="M48.4240 9.0664
L48.3635 8.9454
" />
<path d="M48.3635 8.9454
L48.2426 8.8850
" />
<path d="M48.2426 8.8850
L48.0612 8.8850
" />
<path d="M48.0612 8.8850
L47.9402 8.9454
" />
<path d="M47.9402 8.9454
L47.8797 9.0059
" />
<path d="M49.0287 8.8850
L49.0287 9.7316
" />
<path d="M49.0287 9.0059
L49.0892 8.9454
" />
<path d="M49.0892 8.9454
L49.2102 8.8850
" />
<path d="M49.2102 8.8850
L49.3916 8.8850
" />
<path d="M49.3916 8.8850
L49.5125 8.9454
" />
<path d="M49.5125 8.9454
L49.5730 9.0664
" />
<path d="M49.5730 9.0664
L49.5730 9.7316
" />
<path d="M50.1777 9.7316
L50.1777 8.8850
" />
<path d="M50.1777 8.4616
L50.1173 8.5221
" />
<path d="M50.1173 8.5221
L50.1777 8.5826
" />
<path d="M50.1777 8.5826
L50.2382 8.5221
" />
<path d="M50.2382 8.5221
L50.1777 8.4616
" />
<path d="M50.1777 8.4616
L50.1777 8.5826
" />
<path d="M51.3268 9.6712
L51.2059 9.7316
" />
<path d="M51.2059 9.7316
L50.9640 9.7316
" />
<path d="M50.9640 9.7316
L50.8430 9.6712
" />
<path d="M50.8430 9.6712
L50.7825 9.6107
" />
<path d="M50.7825 9.6107
L50.7221 9.4897
" />
<path d="M50.7221 9.4897
L50.7221 9.1269
" />
<path d="M50.7221 9.1269
L50.7825 9.0059
" />
<path d="M50.7825 9.0059
L50.8430 8.9454
" />
<path d="M50.8430 8.9454
L50.9640 8.8850
" />
<path d="M50.9640 8.8850
L51.2059 8.8850
" />
<path d="M51.2059 8.8850
L51.3268 8.9454
" />
<path d="M52.4154 9.7316
L52.4154 9.0664
" />
<path d="M52.4154 9.0664
L52.3549 8.9454
" />
<path d="M52.3549 8.9454
L52.2340 8.8850
" />
<path d="M52.2340 8.8850
L51.9921 8.8850
" />
<path d="M51.9921 8.8850
L51.8711 8.9454
" />
<path d="M52.4154 9.6712
L52.2945 9.7316
" />
<path d="M52.2945 9.7316
L51.9921 9.7316
" />
<path d="M51.9921 9.7316
L51.8711 9.6712
" />
<path d="M51.8711 9.6712
L51.8107 9.5502
" />
<path d="M51.8107 9.5502
L51.8107 9.4292
" />
<path d="M51.8107 9.4292
L51.8711 9.3083
" />
<path d="M51.8711 9.3083
L51.9921 9.2478
" />
<path d="M51.9921 9.2478
L52.2945 9.2478
" />
<path d="M52.2945 9.2478
L52.4154 9.1873
" />
<path d="M53.2016 9.7316
L53.0806 9.6712
" />
<path d="M53.0806 9.6712
L53.0201 9.5502
" />
<path d="M53.0201 9.5502
L53.0201 8.4616
" />
<path d="M53.6853 9.2478
L54.6530 9.2478
" />
<path d="M55.8020 9.7316
L55.8020 8.4616
" />
<path d="M55.8020 9.6712
L55.6811 9.7316
" />
<path d="M55.6811 9.7316
L55.4392 9.7316
" />
<path d="M55.4392 9.7316
L55.3182 9.6712
" />
<path d="M55.3182 9.6712
L55.2577 9.6107
" />
<path d="M55.2577 9.6107
L55.1973 9.4897
" />
<path d="M55.1973 9.4897
L55.1973 9.1269
" />
<path d="M55.1973 9.1269
L55.2577 9.0059
" />
<path d="M55.2577 9.0059
L55.3182 8.9454
" />
<path d="M55.3182 8.9454
L55.4392 8.8850
" />
<path d="M55.4392 8.8850
L55.6811 8.8850
" />
<path d="M55.6811 8.8850
L55.8020 8.9454
" />
<path d="M56.5882 9.7316
L56.4672 9.6712
" />
<path d="M56.4672 9.6712
L56.4067 9.6107
" />
<path d="M56.4067 9.6107
L56.3463 9.4897
" />
<path d="M56.3463 9.4897
L56.3463 9.1269
" />
<path d="M56.3463 9.1269
L56.4067 9.0059
" />
<path d="M56.4067 9.0059
L56.4672 8.9454
" />
<path d="M56.4672 8.9454
L56.5882 8.8850
" />
<path d="M56.5882 8.8850
L56.7696 8.8850
" />
<path d="M56.7696 8.8850
L56.8905 8.9454
" />
<path d="M56.8905 8.9454
L56.9510 9.0059
" />
<path d="M56.9510 9.0059
L57.0115 9.1269
" />
<path d="M57.0115 9.1269
L57.0115 9.4897
" />
<path d="M57.0115 9.4897
L56.9510 9.6107
" />
<path d="M56.9510 9.6107
L56.8905 9.6712
" />
<path d="M56.8905 9.6712
L56.7696 9.7316
" />
<path d="M56.7696 9.7316
L56.5882 9.7316
" />
<path d="M58.1000 9.6712
L57.9791 9.7316
" />
<path d="M57.9791 9.7316
L57.7372 9.7316
" />
<path d="M57.7372 9.7316
L57.6162 9.6712
" />
<path d="M57.6162 9.6712
L57.5557 9.6107
" />
<path d="M57.5557 9.6107
L57.4953 9.4897
" />
<path d="M57.4953 9.4897
L57.4953 9.1269
" />
<path d="M57.4953 9.1269
L57.5557 9.0059
" />
<path d="M57.5557 9.0059
L57.6162 8.9454
" />
<path d="M57.6162 8.9454
L57.7372 8.8850
" />
<path d="M57.7372 8.8850
L57.9791 8.8850
" />
<path d="M57.9791 8.8850
L58.1000 8.9454
" />
<path d="M59.1886 8.8850
L59.1886 9.7316
" />
<path d="M58.6443 8.8850
L58.6443 9.5502
" />
<path d="M58.6443 9.5502
L58.7048 9.6712
" />
<path d="M58.7048 9.6712
L58.8258 9.7316
" />
<path d="M58.8258 9.7316
L59.0072 9.7316
" />
<path d="M59.0072 9.7316
L59.1281 9.6712
" />
<path d="M59.1281 9.6712
L59.1886 9.6107
" />
<path d="M59.7933 9.7316
L59.7933 8.8850
" />
<path d="M59.7933 9.0059
L59.8538 8.9454
" />
<path d="M59.8538 8.9454
L59.9748 8.8850
" />
<path d="M59.9748 8.8850
L60.1562 8.8850
" />
<path d="M60.1562 8.8850
L60.2771 8.9454
" />
<path d="M60.2771 8.9454
L60.3376 9.0664
" />
<path d="M60.3376 9.0664
L60.3376 9.7316
" />
<path d="M60.3376 9.0664
L60.3981 8.9454
" />
<path d="M60.3981 8.9454
L60.5190 8.8850
" />
<path d="M60.5190 8.8850
L60.7005 8.8850
" />
<path d="M60.7005 8.8850
L60.8214 8.9454
" />
<path d="M60.8214 8.9454
L60.8819 9.0664
" />
<path d="M60.8819 9.0664
L60.8819 9.7316
" />
<path d="M61.9704 9.6712
L61.8495 9.7316
" />
<path d="M61.8495 9.7316
L61.6076 9.7316
" />
<path d="M61.6076 9.7316
L61.4866 9.6712
" />
<path d="M61.4866 9.6712
L61.4262 9.5502
" />
<path d="M61.4262 9.5502
L61.4262 9.0664
" />
<path d="M61.4262 9.0664
L61.4866 8.9454
" />
<path d="M61.4866 8.9454
L61.6076 8.8850
" />
<path d="M61.6076 8.8850
L61.8495 8.8850
" />
<path d="M61.8495 8.8850
L61.9704 8.9454
" />
<path d="M61.9704 8.9454
L62.0309 9.0664
" />
<path d="M62.0309 9.0664
L62.0309 9.1873
" />
<path d="M62.0309 9.1873
L61.4262 9.3083
" />
<path d="M62.5752 8.8850
L62.5752 9.7316
" />
<path d="M62.5752 9.0059
L62.6357 8.9454
" />
<path d="M62.6357 8.9454
L62.7567 8.8850
" />
<path d="M62.7567 8.8850
L62.9381 8.8850
" />
<path d="M62.9381 8.8850
L63.0590 8.9454
" />
<path d="M63.0590 8.9454
L63.1195 9.0664
" />
<path d="M63.1195 9.0664
L63.1195 9.7316
" />
<path d="M63.5428 8.8850
L64.0266 8.8850
" />
<path d="M63.7242 8.4616
L63.7242 9.5502
" />
<path d="M63.7242 9.5502
L63.7847 9.6712
" />
<path d="M63.7847 9.6712
L63.9057 9.7316
" />
<path d="M63.9057 9.7316
L64.0266 9.7316
" />
<path d="M64.9942 9.7316
L64.9942 9.0664
" />
<path d="M64.9942 9.0664
L64.9337 8.9454
" />
<path d="M64.9337 8.9454
L64.8128 8.8850
" />
<path d="M64.8128 8.8850
L64.5709 8.8850
" />
<path d="M64.5709 8.8850
L64.4499 8.9454
" />
<path d="M64.9942 9.6712
L64.8733 9.7316
" />
<path d="M64.8733 9.7316
L64.5709 9.7316
" />
<path d="M64.5709 9.7316
L64.4499 9.6712
" />
<path d="M64.4499 9.6712
L64.3895 9.5502
" />
<path d="M64.3895 9.5502
L64.3895 9.4292
" />
<path d="M64.3895 9.4292
L64.4499 9.3083
" />
<path d="M64.4499 9.3083
L64.5709 9.2478
" />
<path d="M64.5709 9.2478
L64.8733 9.2478
" />
<path d="M64.8733 9.2478
L64.9942 9.1873
" />
<path d="M65.4175 8.8850
L65.9013 8.8850
" />
<path d="M65.5989 8.4616
L65.5989 9.5502
" />
<path d="M65.5989 9.5502
L65.6594 9.6712
" />
<path d="M65.6594 9.6712
L65.7804 9.7316
" />
<path d="M65.7804 9.7316
L65.9013 9.7316
" />
<path d="M66.3246 9.7316
L66.3246 8.8850
" />
<path d="M66.3246 8.4616
L66.2642 8.5221
" />
<path d="M66.2642 8.5221
L66.3246 8.5826
" />
<path d="M66.3246 8.5826
L66.3851 8.5221
" />
<path d="M66.3851 8.5221
L66.3246 8.4616
" />
<path d="M66.3246 8.4616
L66.3246 8.5826
" />
<path d="M67.1109 9.7316
L66.9899 9.6712
" />
<path d="M66.9899 9.6712
L66.9294 9.6107
" />
<path d="M66.9294 9.6107
L66.8690 9.4897
" />
<path d="M66.8690 9.4897
L66.8690 9.1269
" />
<path d="M66.8690 9.1269
L66.9294 9.0059
" />
<path d="M66.9294 9.0059
L66.9899 8.9454
" />
<path d="M66.9899 8.9454
L67.1109 8.8850
" />
<path d="M67.1109 8.8850
L67.2923 8.8850
" />
<path d="M67.2923 8.8850
L67.4132 8.9454
" />
<path d="M67.4132 8.9454
L67.4737 9.0059
" />
<path d="M67.4737 9.0059
L67.5342 9.1269
" />
<path d="M67.5342 9.1269
L67.5342 9.4897
" />
<path d="M67.5342 9.4897
L67.4737 9.6107
" />
<path d="M67.4737 9.6107
L67.4132 9.6712
" />
<path d="M67.4132 9.6712
L67.2923 9.7316
" />
<path d="M67.2923 9.7316
L67.1109 9.7316
" />
<path d="M68.0784 8.8850
L68.0784 9.7316
" />
<path d="M68.0784 9.0059
L68.1389 8.9454
" />
<path d="M68.1389 8.9454
L68.2599 8.8850
" />
<path d="M68.2599 8.8850
L68.4413 8.8850
" />
<path d="M68.4413 8.8850
L68.5622 8.9454
" />
<path d="M68.5622 8.9454
L68.6227 9.0664
" />
<path d="M68.6227 9.0664
L68.6227 9.7316
" />
<path d="M70.1346 8.4012
L69.0460 10.0340
" />
<path d="M71.1022 9.7316
L71.1022 8.4616
" />
<path d="M71.1022 9.6712
L70.9813 9.7316
" />
<path d="M70.9813 9.7316
L70.7394 9.7316
" />
<path d="M70.7394 9.7316
L70.6184 9.6712
" />
<path d="M70.6184 9.6712
L70.5579 9.6107
" />
<path d="M70.5579 9.6107
L70.4975 9.4897
" />
<path d="M70.4975 9.4897
L70.4975 9.1269
" />
<path d="M70.4975 9.1269
L70.5579 9.0059
" />
<path d="M70.5579 9.0059
L70.6184 8.9454
" />
<path d="M70.6184 8.9454
L70.7394 8.8850
" />
<path d="M70.7394 8.8850
L70.9813 8.8850
" />
<path d="M70.9813 8.8850
L71.1022 8.9454
" />
<path d="M72.2512 9.7316
L72.2512 9.0664
" />
<path d="M72.2512 9.0664
L72.1907 8.9454
" />
<path d="M72.1907 8.9454
L72.0698 8.8850
" />
<path d="M72.0698 8.8850
L71.8279 8.8850
" />
<path d="M71.8279 8.8850
L71.7069 8.9454
" />
<path d="M72.2512 9.6712
L72.1303 9.7316
" />
<path d="M72.1303 9.7316
L71.8279 9.7316
" />
<path d="M71.8279 9.7316
L71.7069 9.6712
" />
<path d="M71.7069 9.6712
L71.6465 9.5502
" />
<path d="M71.6465 9.5502
L71.6465 9.4292
" />
<path d="M71.6465 9.4292
L71.7069 9.3083
" />
<path d="M71.7069 9.3083
L71.8279 9.2478
" />
<path d="M71.8279 9.2478
L72.1303 9.2478
" />
<path d="M72.1303 9.2478
L72.2512 9.1873
" />
<path d="M72.6745 8.8850
L73.1583 8.8850
" />
<path d="M72.8559 8.4616
L72.8559 9.5502
" />
<path d="M72.8559 9.5502
L72.9164 9.6712
" />
<path d="M72.9164 9.6712
L73.0374 9.7316
" />
<path d="M73.0374 9.7316
L73.1583 9.7316
" />
<path d="M74.1259 9.7316
L74.1259 9.0664
" />
<path d="M74.1259 9.0664
L74.0654 8.9454
" />
<path d="M74.0654 8.9454
L73.9445 8.8850
" />
<path d="M73.9445 8.8850
L73.7026 8.8850
" />
<path d="M73.7026 8.8850
L73.5816 8.9454
" />
<path d="M74.1259 9.6712
L74.0050 9.7316
" />
<path d="M74.0050 9.7316
L73.7026 9.7316
" />
<path d="M73.7026 9.7316
L73.5816 9.6712
" />
<path d="M73.5816 9.6712
L73.5212 9.5502
" />
<path d="M73.5212 9.5502
L73.5212 9.4292
" />
<path d="M73.5212 9.4292
L73.5816 9.3083
" />
<path d="M73.5816 9.3083
L73.7026 9.2478
" />
<path d="M73.7026 9.2478
L74.0050 9.2478
" />
<path d="M74.0050 9.2478
L74.1259 9.1873
" />
<path d="M74.7306 9.2478
L75.6983 9.2478
" />
<path d="M76.2426 9.6712
L76.3635 9.7316
" />
<path d="M76.3635 9.7316
L76.6054 9.7316
" />
<path d="M76.6054 9.7316
L76.7264 9.6712
" />
<path d="M76.7264 9.6712
L76.7868 9.5502
" />
<path d="M76.7868 9.5502
L76.7868 9.4897
" />
<path d="M76.7868 9.4897
L76.7264 9.3688
" />
<path d="M76.7264 9.3688
L76.6054 9.3083
" />
<path d="M76.6054 9.3083
L76.4240 9.3083
" />
<path d="M76.4240 9.3083
L76.3030 9.2478
" />
<path d="M76.3030 9.2478
L76.2426 9.1269
" />
<path d="M76.2426 9.1269
L76.2426 9.0664
" />
<path d="M76.2426 9.0664
L76.3030 8.9454
" />
<path d="M76.3030 8.9454
L76.4240 8.8850
" />
<path d="M76.4240 8.8850
L76.6054 8.8850
" />
<path d="M76.6054 8.8850
L76.7264 8.9454
" />
<path d="M77.3311 9.7316
L77.3311 8.4616
" />
<path d="M77.8754 9.7316
L77.8754 9.0664
" />
<path d="M77.8754 9.0664
L77.8149 8.9454
" />
<path d="M77.8149 8.9454
L77.6940 8.8850
" />
<path d="M77.6940 8.8850
L77.5126 8.8850
" />
<path d="M77.5126 8.8850
L77.3916 8.9454
" />
<path d="M77.3916 8.9454
L77.3311 9.0059
" />
<path d="M78.9639 9.6712
L78.8430 9.7316
" />
<path d="M78.8430 9.7316
L78.6011 9.7316
" />
<path d="M78.6011 9.7316
L78.4801 9.6712
" />
<path d="M78.4801 9.6712
L78.4197 9.5502
" />
<path d="M78.4197 9.5502
L78.4197 9.0664
" />
<path d="M78.4197 9.0664
L78.4801 8.9454
" />
<path d="M78.4801 8.9454
L78.6011 8.8850
" />
<path d="M78.6011 8.8850
L78.8430 8.8850
" />
<path d="M78.8430 8.8850
L78.9639 8.9454
" />
<path d="M78.9639 8.9454
L79.0244 9.0664
" />
<path d="M79.0244 9.0664
L79.0244 9.1873
" />
<path d="M79.0244 9.1873
L78.4197 9.3083
" />
<path d="M80.0525 9.6712
L79.9316 9.7316
" />
<path d="M79.9316 9.7316
L79.6897 9.7316
" />
<path d="M79.6897 9.7316
L79.5687 9.6712
" />
<path d="M79.5687 9.6712
L79.5083 9.5502
" />
<path d="M79.5083 9.5502
L79.5083 9.0664
" />
<path d="M79.5083 9.0664
L79.5687 8.9454
" />
<path d="M79.5687 8.9454
L79.6897 8.8850
" />
<path d="M79.6897 8.8850
L79.9316 8.8850
" />
<path d="M79.9316 8.8850
L80.0525 8.9454
" />
<path d="M80.0525 8.9454
L80.1130 9.0664
" />
<path d="M80.1130 9.0664
L80.1130 9.1873
" />
<path d="M80.1130 9.1873
L79.5083 9.3083
" />
<path d="M80.4759 8.8850
L80.9597 8.8850
" />
<path d="M80.6573 8.4616
L80.6573 9.5502
" />
<path d="M80.6573 9.5502
L80.7178 9.6712
" />
<path d="M80.7178 9.6712
L80.8388 9.7316
" />
<path d="M80.8388 9.7316
L80.9597 9.7316
" />
<path d="M81.3226 9.6712
L81.4435 9.7316
" />
<path d="M81.4435 9.7316
L81.6854 9.7316
" />
<path d="M81.6854 9.7316
L81.8064 9.6712
" />
<path d="M81.8064 9.6712
L81.8668 9.5502
" />
<path d="M81.8668 9.5502
L81.8668 9.4897
" />
<path d="M81.8668 9.4897
L81.8064 9.3688
" />
<path d="M81.8064 9.3688
L81.6854 9.3083
" />
<path d="M81.6854 9.3083
L81.5040 9.3083
" />
<path d="M81.5040 9.3083
L81.3830 9.2478
" />
<path d="M81.3830 9.2478
L81.3226 9.1269
" />
<path d="M81.3226 9.1269
L81.3226 9.0664
" />
<path d="M81.3226 9.0664
L81.3830 8.9454
" />
<path d="M81.3830 8.9454
L81.5040 8.8850
" />
<path d="M81.5040 8.8850
L81.6854 8.8850
" />
<path d="M81.6854 8.8850
L81.8064 8.9454
" />
<path d="M83.3183 8.4012
L82.2297 10.0340
" />
<path d="M83.6812 9.3688
L84.2859 9.3688
" />
<path d="M83.5602 9.7316
L83.9835 8.4616
" />
<path d="M83.9835 8.4616
L84.4069 9.7316
" />
<path d="M84.8302 9.7316
L84.8302 8.4616
" />
<path d="M84.8302 8.4616
L85.1326 8.4616
" />
<path d="M85.1326 8.4616
L85.3140 8.5221
" />
<path d="M85.3140 8.5221
L85.4350 8.6431
" />
<path d="M85.4350 8.6431
L85.4955 8.7640
" />
<path d="M85.4955 8.7640
L85.5559 9.0059
" />
<path d="M85.5559 9.0059
L85.5559 9.1873
" />
<path d="M85.5559 9.1873
L85.4955 9.4292
" />
<path d="M85.4955 9.4292
L85.4350 9.5502
" />
<path d="M85.4350 9.5502
L85.3140 9.6712
" />
<path d="M85.3140 9.6712
L85.1326 9.7316
" />
<path d="M85.1326 9.7316
L84.8302 9.7316
" />
<path d="M86.2817 9.0059
L86.1607 8.9454
" />
<path d="M86.1607 8.9454
L86.1002 8.8850
" />
<path d="M86.1002 8.8850
L86.0398 8.7640
" />
<path d="M86.0398 8.7640
L86.0398 8.7035
" />
<path d="M86.0398 8.7035
L86.1002 8.5826
" />
<path d="M86.1002 8.5826
L86.1607 8.5221
" />
<path d="M86.1607 8.5221
L86.2817 8.4616
" />
<path d="M86.2817 8.4616
L86.5236 8.4616
" />
<path d="M86.5236 8.4616
L86.6445 8.5221
" />
<path d="M86.6445 8.5221
L86.7050 8.5826
" />
<path d="M86.7050 8.5826
L86.7655 8.7035
" />
<path d="M86.7655 8.7035
L86.7655 8.7640
" />
<path d="M86.7655 8.7640
L86.7050 8.8850
" />
<path d="M86.7050 8.8850
L86.6445 8.9454
" />
<path d="M86.6445 8.9454
L86.5236 9.0059
" />
<path d="M86.5236 9.0059
L86.2817 9.0059
" />
<path d="M86.2817 9.0059
L86.1607 9.0664
" />
<path d="M86.1607 9.0664
L86.1002 9.1269
" />
<path d="M86.1002 9.1269
L86.0398 9.2478
" />
<path d="M86.0398 9.2478
L86.0398 9.4897
" />
<path d="M86.0398 9.4897
L86.1002 9.6107
" />
<path d="M86.1002 9.6107
L86.1607 9.6712
" />
<path d="M86.1607 9.6712
L86.2817 9.7316
" />
<path d="M86.2817 9.7316
L86.5236 9.7316
" />
<path d="M86.5236 9.7316
L86.6445 9.6712
" />
<path d="M86.6445 9.6712
L86.7050 9.6107
" />
<path d="M86.7050 9.6107
L86.7655 9.4897
" />
<path d="M86.7655 9.4897
L86.7655 9.2478
" />
<path d="M86.7655 9.2478
L86.7050 9.1269
" />
<path d="M86.7050 9.1269
L86.6445 9.0664
" />
<path d="M86.6445 9.0664
L86.5236 9.0059
" />
<path d="M87.2493 8.5826
L87.3097 8.5221
" />
<path d="M87.3097 8.5221
L87.4307 8.4616
" />
<path d="M87.4307 8.4616
L87.7331 8.4616
" />
<path d="M87.7331 8.4616
L87.8540 8.5221
" />
<path d="M87.8540 8.5221
L87.9145 8.5826
" />
<path d="M87.9145 8.5826
L87.9750 8.7035
" />
<path d="M87.9750 8.7035
L87.9750 8.8245
" />
<path d="M87.9750 8.8245
L87.9145 9.0059
" />
<path d="M87.9145 9.0059
L87.1888 9.7316
" />
<path d="M87.1888 9.7316
L87.9750 9.7316
" />
<path d="M88.3983 8.4616
L89.2449 8.4616
" />
<path d="M89.2449 8.4616
L88.7007 9.7316
" />
<path d="M90.2730 8.4616
L90.0311 8.4616
" />
<path d="M90.0311 8.4616
L89.9102 8.5221
" />
<path d="M89.9102 8.5221
L89.8497 8.5826
" />
<path d="M89.8497 8.5826
L89.7287 8.7640
" />
<path d="M89.7287 8.7640
L89.6683 9.0059
" />
<path d="M89.6683 9.0059
L89.6683 9.4897
" />
<path d="M89.6683 9.4897
L89.7287 9.6107
" />
<path d="M89.7287 9.6107
L89.7892 9.6712
" />
<path d="M89.7892 9.6712
L89.9102 9.7316
" />
<path d="M89.9102 9.7316
L90.1521 9.7316
" />
<path d="M90.1521 9.7316
L90.2730 9.6712
" />
<path d="M90.2730 9.6712
L90.3335 9.6107
" />
<path d="M90.3335 9.6107
L90.3940 9.4897
" />
<path d="M90.3940 9.4897
L90.3940 9.1873
" />
<path d="M90.3940 9.1873
L90.3335 9.0664
" />
<path d="M90.3335 9.0664
L90.2730 9.0059
" />
<path d="M90.2730 9.0059
L90.1521 8.9454
" />
<path d="M90.1521 8.9454
L89.9102 8.9454
" />
<path d="M89.9102 8.9454
L89.7892 9.0059
" />
<path d="M89.7892 9.0059
L89.7287 9.0664
" />
<path d="M89.7287 9.0664
L89.6683 9.1873
" />
<path d="M90.6359 9.8526
L91.6035 9.8526
" />
<path d="M92.0873 9.0059
L91.9663 8.9454
" />
<path d="M91.9663 8.9454
L91.9058 8.8850
" />
<path d="M91.9058 8.8850
L91.8454 8.7640
" />
<path d="M91.8454 8.7640
L91.8454 8.7035
" />
<path d="M91.8454 8.7035
L91.9058 8.5826
" />
<path d="M91.9058 8.5826
L91.9663 8.5221
" />
<path d="M91.9663 8.5221
L92.0873 8.4616
" />
<path d="M92.0873 8.4616
L92.3292 8.4616
" />
<path d="M92.3292 8.4616
L92.4501 8.5221
" />
<path d="M92.4501 8.5221
L92.5106 8.5826
" />
<path d="M92.5106 8.5826
L92.5711 8.7035
" />
<path d="M92.5711 8.7035
L92.5711 8.7640
" />
<path d="M92.5711 8.7640
L92.5106 8.8850
" />
<path d="M92.5106 8.8850
L92.4501 8.9454
" />
<path d="M92.4501 8.9454
L92.3292 9.0059
" />
<path d="M92.3292 9.0059
L92.0873 9.0059
" />
<path d="M92.0873 9.0059
L91.9663 9.0664
" />
<path d="M91.9663 9.0664
L91.9058 9.1269
" />
<path d="M91.9058 9.1269
L91.8454 9.2478
" />
<path d="M91.8454 9.2478
L91.8454 9.4897
" />
<path d="M91.8454 9.4897
L91.9058 9.6107
" />
<path d="M91.9058 9.6107
L91.9663 9.6712
" />
<path d="M91.9663 9.6712
L92.0873 9.7316
" />
<path d="M92.0873 9.7316
L92.3292 9.7316
" />
<path d="M92.3292 9.7316
L92.4501 9.6712
" />
<path d="M92.4501 9.6712
L92.5106 9.6107
" />
<path d="M92.5106 9.6107
L92.5711 9.4897
" />
<path d="M92.5711 9.4897
L92.5711 9.2478
" />
<path d="M92.5711 9.2478
L92.5106 9.1269
" />
<path d="M92.5106 9.1269
L92.4501 9.0664
" />
<path d="M92.4501 9.0664
L92.3292 9.0059
" />
<path d="M93.0549 8.5826
L93.1153 8.5221
" />
<path d="M93.1153 8.5221
L93.2363 8.4616
" />
<path d="M93.2363 8.4616
L93.5387 8.4616
" />
<path d="M93.5387 8.4616
L93.6596 8.5221
" />
<path d="M93.6596 8.5221
L93.7201 8.5826
" />
<path d="M93.7201 8.5826
L93.7806 8.7035
" />
<path d="M93.7806 8.7035
L93.7806 8.8245
" />
<path d="M93.7806 8.8245
L93.7201 9.0059
" />
<path d="M93.7201 9.0059
L92.9944 9.7316
" />
<path d="M92.9944 9.7316
L93.7806 9.7316
" />
<path d="M94.2039 8.4616
L95.0505 8.4616
" />
<path d="M95.0505 8.4616
L94.5063 9.7316
" />
<path d="M95.4134 8.4616
L96.2600 8.4616
" />
<path d="M96.2600 8.4616
L95.7158 9.7316
" />
<path d="M96.7438 9.6107
L96.8043 9.6712
" />
<path d="M96.8043 9.6712
L96.7438 9.7316
" />
<path d="M96.7438 9.7316
L96.6834 9.6712
" />
<path d="M96.6834 9.6712
L96.7438 9.6107
" />
<path d="M96.7438 9.6107
L96.7438 9.7316
" />
<path d="M97.3486 8.8850
L97.3486 10.1550
" />
<path d="M97.3486 8.9454
L97.4696 8.8850
" />
<path d="M97.4696 8.8850
L97.7115 8.8850
" />
<path d="M97.7115 8.8850
L97.8324 8.9454
" />
<path d="M97.8324 8.9454
L97.8929 9.0059
" />
<path d="M97.8929 9.0059
L97.9534 9.1269
" />
<path d="M97.9534 9.1269
L97.9534 9.4897
" />
<path d="M97.9534 9.4897
L97.8929 9.6107
" />
<path d="M97.8929 9.6107
L97.8324 9.6712
" />
<path d="M97.8324 9.6712
L97.7115 9.7316
" />
<path d="M97.7115 9.7316
L97.4696 9.7316
" />
<path d="M97.4696 9.7316
L97.3486 9.6712
" />
<path d="M99.0419 9.7316
L99.0419 8.4616
" />
<path d="M99.0419 9.6712
L98.9210 9.7316
" />
<path d="M98.9210 9.7316
L98.6791 9.7316
" />
<path d="M98.6791 9.7316
L98.5581 9.6712
" />
<path d="M98.5581 9.6712
L98.4976 9.6107
" />
<path d="M98.4976 9.6107
L98.4372 9.4897
" />
<path d="M98.4372 9.4897
L98.4372 9.1269
" />
<path d="M98.4372 9.1269
L98.4976 9.0059
" />
<path d="M98.4976 9.0059
L98.5581 8.9454
" />
<path d="M98.5581 8.9454
L98.6791 8.8850
" />
<path d="M98.6791 8.8850
L98.9210 8.8850
" />
<path d="M98.9210 8.8850
L99.0419 8.9454
" />
<path d="M99.4652 8.8850
L99.9490 8.8850
" />
<path d="M99.6466 9.7316
L99.6466 8.6431
" />
<path d="M99.6466 8.6431
L99.7071 8.5221
" />
<path d="M99.7071 8.5221
L99.8281 8.4616
" />
<path d="M99.8281 8.4616
L99.9490 8.4616
" />
</g></g> 
</svg>
