<?xml version="1.0" standalone="no"?>
 <!DOCTYPE svg PUBLIC "-//W3C//DTD SVG 1.1//EN" 
 "http://www.w3.org/Graphics/SVG/1.1/DTD/svg11.dtd"> 
<svg
  xmlns:svg="http://www.w3.org/2000/svg"
  xmlns="http://www.w3.org/2000/svg"
  xmlns:xlink="http://www.w3.org/1999/xlink"
  version="1.1"
  width="81.3308mm" height="18.5166mm" viewBox="0.0000 0.0000 81.3308 18.5166">
<title>SVG Image created as working.svg date 2023/08/03 14:16:22 </title>
  <desc>Image generated by Eeschema-SVG </desc>
<g style="fill:#000000; fill-opacity:1.0000;stroke:#000000; stroke-opacity:1.0000;
stroke-linecap:round; stroke-linejoin:round;"
 transform="translate(0 0) scale(1 1)">
</g>
<g style="fill:#840000; fill-opacity:0.0; 
stroke:#840000; stroke-width:0.0000; stroke-opacity:1; 
stroke-linecap:round; stroke-linejoin:round;">
</g>
<g style="fill:#840084; fill-opacity:0.0; 
stroke:#840084; stroke-width:0.0000; stroke-opacity:1; 
stroke-linecap:round; stroke-linejoin:round;">
</g>
<g style="fill:#840000; fill-opacity:0.0; 
stroke:#840000; stroke-width:0.0000; stroke-opacity:1; 
stroke-linecap:round; stroke-linejoin:round;">
</g>
<g style="fill:#840000; fill-opacity:0.0; 
stroke:#840000; stroke-width:0.1524; stroke-opacity:1; 
stroke-linecap:round; stroke-linejoin:round;">
<path style="fill:#840000; fill-opacity:0.0; 
stroke:#840000; stroke-width:0.1524; stroke-opacity:1; 
stroke-linecap:round; stroke-linejoin:round;fill:none"
d="M 30.1916,5.5523
31.4616,6.8223
" /> 
<path style="fill:#840000; fill-opacity:0.0; 
stroke:#840000; stroke-width:0.1524; stroke-opacity:1; 
stroke-linecap:round; stroke-linejoin:round;fill:none"
d="M 31.4616,11.9023
30.1916,13.1723
" /> 
<path style="fill:#840000; fill-opacity:0.0; 
stroke:#840000; stroke-width:0.1524; stroke-opacity:1; 
stroke-linecap:round; stroke-linejoin:round;fill:none"
d="M 35.2716,10.6323
36.5416,11.9023
" /> 
<path style="fill:#840000; fill-opacity:0.0; 
stroke:#840000; stroke-width:0.1524; stroke-opacity:1; 
stroke-linecap:round; stroke-linejoin:round;fill:none"
d="M 35.2716,8.0923
36.5416,6.8223
" /> 
<path style="fill:#840000; fill-opacity:0.0; 
stroke:#840000; stroke-width:0.1524; stroke-opacity:1; 
stroke-linecap:round; stroke-linejoin:round;fill:none"
d="M 28.9216,6.8223
30.1916,8.0923
30.8266,6.1873
Z" /> 
<path style="fill:#840000; fill-opacity:0.0; 
stroke:#840000; stroke-width:0.1524; stroke-opacity:1; 
stroke-linecap:round; stroke-linejoin:round;fill:none"
d="M 30.1916,10.6323
28.9216,11.9023
30.8266,12.5373
Z" /> 
<path style="fill:#840000; fill-opacity:0.0; 
stroke:#840000; stroke-width:0.1524; stroke-opacity:1; 
stroke-linecap:round; stroke-linejoin:round;fill:none"
d="M 34.0016,6.8223
35.2716,5.5523
35.9066,7.4573
Z" /> 
<path style="fill:#840000; fill-opacity:0.0; 
stroke:#840000; stroke-width:0.1524; stroke-opacity:1; 
stroke-linecap:round; stroke-linejoin:round;fill:none"
d="M 35.9066,11.2673
34.0016,11.9023
35.2716,13.1723
Z" /> 
<path style="fill:#840000; fill-opacity:0.0; 
stroke:#840000; stroke-width:0.1524; stroke-opacity:1; 
stroke-linecap:round; stroke-linejoin:round;fill:none"
d="M 27.6516,9.3623
32.7316,14.4423
37.8116,9.3623
32.7316,4.2823
Z" /> 
<path d="M37.8116 9.3623
L40.3516 9.3623
" />
</g>
<g style="fill:#006464; fill-opacity:0.0; 
stroke:#006464; stroke-width:0.1524; stroke-opacity:1; 
stroke-linecap:round; stroke-linejoin:round;">
<text x="39.0816" y="9.1083"
textLength="1.6994" font-size="1.6933" lengthAdjust="spacingAndGlyphs"
text-anchor="middle" opacity="0">+</text>
<g class="stroked-text"><desc>+</desc>
<path d="M38.5977 8.4690
L39.5654 8.4690
" />
<path d="M39.0815 8.9528
L39.0815 7.9852
" />
</g></g>
<g style="fill:#A90000; fill-opacity:0.0; 
stroke:#A90000; stroke-width:0.1524; stroke-opacity:1; 
stroke-linecap:round; stroke-linejoin:round;">
<text x="39.0816" y="10.8863"
textLength="1.3365" font-size="1.6933" lengthAdjust="spacingAndGlyphs"
text-anchor="middle" opacity="0">1</text>
<g class="stroked-text"><desc>1</desc>
<path d="M39.4445 10.9467
L38.7188 10.9467
" />
<path d="M39.0816 10.9467
L39.0816 9.6767
" />
<path d="M39.0816 9.6767
L38.9607 9.8582
" />
<path d="M38.9607 9.8582
L38.8397 9.9791
" />
<path d="M38.8397 9.9791
L38.7188 10.0396
" />
</g></g>
<g style="fill:#840000; fill-opacity:0.0; 
stroke:#840000; stroke-width:0.1524; stroke-opacity:1; 
stroke-linecap:round; stroke-linejoin:round;">
<path d="M32.7316 14.4423
L32.7316 16.9823
" />
</g>
<g style="fill:#A90000; fill-opacity:0.0; 
stroke:#A90000; stroke-width:0.1524; stroke-opacity:1; 
stroke-linecap:round; stroke-linejoin:round;">
<g transform="rotate(-90.000000 32.9856 15.7123)">
<text x="32.9856" y="16.9823"
textLength="1.3365" font-size="1.6933" lengthAdjust="spacingAndGlyphs"
text-anchor="middle" opacity="0">2</text>
</g>
<g class="stroked-text"><desc>2</desc>
<path d="M33.1670 16.0750
L33.1065 16.0146
" />
<path d="M33.1065 16.0146
L33.0460 15.8936
" />
<path d="M33.0460 15.8936
L33.0460 15.5912
" />
<path d="M33.0460 15.5912
L33.1065 15.4703
" />
<path d="M33.1065 15.4703
L33.1670 15.4098
" />
<path d="M33.1670 15.4098
L33.2879 15.3493
" />
<path d="M33.2879 15.3493
L33.4089 15.3493
" />
<path d="M33.4089 15.3493
L33.5903 15.4098
" />
<path d="M33.5903 15.4098
L34.3160 16.1355
" />
<path d="M34.3160 16.1355
L34.3160 15.3493
" />
</g></g>
<g style="fill:#840000; fill-opacity:0.0; 
stroke:#840000; stroke-width:0.1524; stroke-opacity:1; 
stroke-linecap:round; stroke-linejoin:round;">
<path d="M27.6516 9.3623
L25.1116 9.3623
" />
</g>
<g style="fill:#006464; fill-opacity:0.0; 
stroke:#006464; stroke-width:0.1524; stroke-opacity:1; 
stroke-linecap:round; stroke-linejoin:round;">
<text x="26.3816" y="9.1083"
textLength="1.6994" font-size="1.6933" lengthAdjust="spacingAndGlyphs"
text-anchor="middle" opacity="0">-</text>
<g class="stroked-text"><desc>-</desc>
<path d="M25.8977 8.4690
L26.8654 8.4690
" />
</g></g>
<g style="fill:#A90000; fill-opacity:0.0; 
stroke:#A90000; stroke-width:0.1524; stroke-opacity:1; 
stroke-linecap:round; stroke-linejoin:round;">
<text x="26.3816" y="10.8863"
textLength="1.3365" font-size="1.6933" lengthAdjust="spacingAndGlyphs"
text-anchor="middle" opacity="0">3</text>
<g class="stroked-text"><desc>3</desc>
<path d="M25.9583 9.6767
L26.7445 9.6767
" />
<path d="M26.7445 9.6767
L26.3211 10.1605
" />
<path d="M26.3211 10.1605
L26.5026 10.1605
" />
<path d="M26.5026 10.1605
L26.6235 10.2210
" />
<path d="M26.6235 10.2210
L26.6840 10.2815
" />
<path d="M26.6840 10.2815
L26.7445 10.4024
" />
<path d="M26.7445 10.4024
L26.7445 10.7048
" />
<path d="M26.7445 10.7048
L26.6840 10.8258
" />
<path d="M26.6840 10.8258
L26.6235 10.8863
" />
<path d="M26.6235 10.8863
L26.5026 10.9467
" />
<path d="M26.5026 10.9467
L26.1397 10.9467
" />
<path d="M26.1397 10.9467
L26.0188 10.8863
" />
<path d="M26.0188 10.8863
L25.9583 10.8258
" />
</g></g>
<g style="fill:#840000; fill-opacity:0.0; 
stroke:#840000; stroke-width:0.1524; stroke-opacity:1; 
stroke-linecap:round; stroke-linejoin:round;">
<path d="M32.7316 4.2823
L32.7316 1.7423
" />
</g>
<g style="fill:#A90000; fill-opacity:0.0; 
stroke:#A90000; stroke-width:0.1524; stroke-opacity:1; 
stroke-linecap:round; stroke-linejoin:round;">
<g transform="rotate(-90.000000 32.9856 3.0123)">
<text x="32.9856" y="4.2823"
textLength="1.3365" font-size="1.6933" lengthAdjust="spacingAndGlyphs"
text-anchor="middle" opacity="0">4</text>
</g>
<g class="stroked-text"><desc>4</desc>
<path d="M33.4694 2.7703
L34.3160 2.7703
" />
<path d="M32.9856 3.0727
L33.8927 3.3750
" />
<path d="M33.8927 3.3750
L33.8927 2.5889
" />
</g></g>
<g style="fill:#840084; fill-opacity:0.0; 
stroke:#840084; stroke-width:0.1524; stroke-opacity:1; 
stroke-linecap:round; stroke-linejoin:round;">
</g>
<g style="fill:#006464; fill-opacity:0.0; 
stroke:#006464; stroke-width:0.1524; stroke-opacity:1; 
stroke-linecap:round; stroke-linejoin:round;">
</g>
<g style="fill:#006464; fill-opacity:0.0; 
stroke:#006464; stroke-width:0.1588; stroke-opacity:1; 
stroke-linecap:round; stroke-linejoin:round;">
<text x="36.5224" y="3.0123"
textLength="2.5016" font-size="1.6933" lengthAdjust="spacingAndGlyphs"
text-anchor="middle" opacity="0">D?</text>
<g class="stroked-text"><desc>D?</desc>
<path d="M35.6454 2.9648
L35.6454 1.6948
" />
<path d="M35.6454 1.6948
L35.9478 1.6948
" />
<path d="M35.9478 1.6948
L36.1292 1.7553
" />
<path d="M36.1292 1.7553
L36.2502 1.8763
" />
<path d="M36.2502 1.8763
L36.3107 1.9972
" />
<path d="M36.3107 1.9972
L36.3711 2.2391
" />
<path d="M36.3711 2.2391
L36.3711 2.4205
" />
<path d="M36.3711 2.4205
L36.3107 2.6624
" />
<path d="M36.3107 2.6624
L36.2502 2.7834
" />
<path d="M36.2502 2.7834
L36.1292 2.9044
" />
<path d="M36.1292 2.9044
L35.9478 2.9648
" />
<path d="M35.9478 2.9648
L35.6454 2.9648
" />
<path d="M37.0969 2.8439
L37.1573 2.9044
" />
<path d="M37.1573 2.9044
L37.0969 2.9648
" />
<path d="M37.0969 2.9648
L37.0364 2.9044
" />
<path d="M37.0364 2.9044
L37.0969 2.8439
" />
<path d="M37.0969 2.8439
L37.0969 2.9648
" />
<path d="M36.8550 1.7553
L36.9759 1.6948
" />
<path d="M36.9759 1.6948
L37.2783 1.6948
" />
<path d="M37.2783 1.6948
L37.3992 1.7553
" />
<path d="M37.3992 1.7553
L37.4597 1.8763
" />
<path d="M37.4597 1.8763
L37.4597 1.9972
" />
<path d="M37.4597 1.9972
L37.3992 2.1182
" />
<path d="M37.3992 2.1182
L37.3388 2.1786
" />
<path d="M37.3388 2.1786
L37.2178 2.2391
" />
<path d="M37.2178 2.2391
L37.1573 2.2996
" />
<path d="M37.1573 2.2996
L37.0969 2.4205
" />
<path d="M37.0969 2.4205
L37.0969 2.4810
" />
</g><text x="40.8766" y="4.9173"
textLength="11.2100" font-size="1.6933" lengthAdjust="spacingAndGlyphs"
text-anchor="middle" opacity="0">B40C1500G</text>
<g class="stroked-text"><desc>B40C1500G</desc>
<path d="M36.0688 4.2046
L36.2502 4.2651
" />
<path d="M36.2502 4.2651
L36.3107 4.3255
" />
<path d="M36.3107 4.3255
L36.3711 4.4465
" />
<path d="M36.3711 4.4465
L36.3711 4.6279
" />
<path d="M36.3711 4.6279
L36.3107 4.7489
" />
<path d="M36.3107 4.7489
L36.2502 4.8094
" />
<path d="M36.2502 4.8094
L36.1292 4.8698
" />
<path d="M36.1292 4.8698
L35.6454 4.8698
" />
<path d="M35.6454 4.8698
L35.6454 3.5998
" />
<path d="M35.6454 3.5998
L36.0688 3.5998
" />
<path d="M36.0688 3.5998
L36.1897 3.6603
" />
<path d="M36.1897 3.6603
L36.2502 3.7208
" />
<path d="M36.2502 3.7208
L36.3107 3.8417
" />
<path d="M36.3107 3.8417
L36.3107 3.9627
" />
<path d="M36.3107 3.9627
L36.2502 4.0836
" />
<path d="M36.2502 4.0836
L36.1897 4.1441
" />
<path d="M36.1897 4.1441
L36.0688 4.2046
" />
<path d="M36.0688 4.2046
L35.6454 4.2046
" />
<path d="M37.4597 4.0232
L37.4597 4.8698
" />
<path d="M37.1573 3.5394
L36.8550 4.4465
" />
<path d="M36.8550 4.4465
L37.6411 4.4465
" />
<path d="M38.3668 3.5998
L38.4878 3.5998
" />
<path d="M38.4878 3.5998
L38.6087 3.6603
" />
<path d="M38.6087 3.6603
L38.6692 3.7208
" />
<path d="M38.6692 3.7208
L38.7297 3.8417
" />
<path d="M38.7297 3.8417
L38.7902 4.0836
" />
<path d="M38.7902 4.0836
L38.7902 4.3860
" />
<path d="M38.7902 4.3860
L38.7297 4.6279
" />
<path d="M38.7297 4.6279
L38.6692 4.7489
" />
<path d="M38.6692 4.7489
L38.6087 4.8094
" />
<path d="M38.6087 4.8094
L38.4878 4.8698
" />
<path d="M38.4878 4.8698
L38.3668 4.8698
" />
<path d="M38.3668 4.8698
L38.2459 4.8094
" />
<path d="M38.2459 4.8094
L38.1854 4.7489
" />
<path d="M38.1854 4.7489
L38.1249 4.6279
" />
<path d="M38.1249 4.6279
L38.0645 4.3860
" />
<path d="M38.0645 4.3860
L38.0645 4.0836
" />
<path d="M38.0645 4.0836
L38.1249 3.8417
" />
<path d="M38.1249 3.8417
L38.1854 3.7208
" />
<path d="M38.1854 3.7208
L38.2459 3.6603
" />
<path d="M38.2459 3.6603
L38.3668 3.5998
" />
<path d="M40.0601 4.7489
L39.9997 4.8094
" />
<path d="M39.9997 4.8094
L39.8182 4.8698
" />
<path d="M39.8182 4.8698
L39.6973 4.8698
" />
<path d="M39.6973 4.8698
L39.5159 4.8094
" />
<path d="M39.5159 4.8094
L39.3949 4.6884
" />
<path d="M39.3949 4.6884
L39.3344 4.5674
" />
<path d="M39.3344 4.5674
L39.2740 4.3255
" />
<path d="M39.2740 4.3255
L39.2740 4.1441
" />
<path d="M39.2740 4.1441
L39.3344 3.9022
" />
<path d="M39.3344 3.9022
L39.3949 3.7813
" />
<path d="M39.3949 3.7813
L39.5159 3.6603
" />
<path d="M39.5159 3.6603
L39.6973 3.5998
" />
<path d="M39.6973 3.5998
L39.8182 3.5998
" />
<path d="M39.8182 3.5998
L39.9997 3.6603
" />
<path d="M39.9997 3.6603
L40.0601 3.7208
" />
<path d="M41.2697 4.8698
L40.5440 4.8698
" />
<path d="M40.9068 4.8698
L40.9068 3.5998
" />
<path d="M40.9068 3.5998
L40.7859 3.7813
" />
<path d="M40.7859 3.7813
L40.6649 3.9022
" />
<path d="M40.6649 3.9022
L40.5440 3.9627
" />
<path d="M42.4187 3.5998
L41.8139 3.5998
" />
<path d="M41.8139 3.5998
L41.7535 4.2046
" />
<path d="M41.7535 4.2046
L41.8139 4.1441
" />
<path d="M41.8139 4.1441
L41.9349 4.0836
" />
<path d="M41.9349 4.0836
L42.2373 4.0836
" />
<path d="M42.2373 4.0836
L42.3582 4.1441
" />
<path d="M42.3582 4.1441
L42.4187 4.2046
" />
<path d="M42.4187 4.2046
L42.4792 4.3255
" />
<path d="M42.4792 4.3255
L42.4792 4.6279
" />
<path d="M42.4792 4.6279
L42.4187 4.7489
" />
<path d="M42.4187 4.7489
L42.3582 4.8094
" />
<path d="M42.3582 4.8094
L42.2373 4.8698
" />
<path d="M42.2373 4.8698
L41.9349 4.8698
" />
<path d="M41.9349 4.8698
L41.8139 4.8094
" />
<path d="M41.8139 4.8094
L41.7535 4.7489
" />
<path d="M43.2653 3.5998
L43.3863 3.5998
" />
<path d="M43.3863 3.5998
L43.5072 3.6603
" />
<path d="M43.5072 3.6603
L43.5677 3.7208
" />
<path d="M43.5677 3.7208
L43.6282 3.8417
" />
<path d="M43.6282 3.8417
L43.6887 4.0836
" />
<path d="M43.6887 4.0836
L43.6887 4.3860
" />
<path d="M43.6887 4.3860
L43.6282 4.6279
" />
<path d="M43.6282 4.6279
L43.5677 4.7489
" />
<path d="M43.5677 4.7489
L43.5072 4.8094
" />
<path d="M43.5072 4.8094
L43.3863 4.8698
" />
<path d="M43.3863 4.8698
L43.2653 4.8698
" />
<path d="M43.2653 4.8698
L43.1444 4.8094
" />
<path d="M43.1444 4.8094
L43.0839 4.7489
" />
<path d="M43.0839 4.7489
L43.0234 4.6279
" />
<path d="M43.0234 4.6279
L42.9630 4.3860
" />
<path d="M42.9630 4.3860
L42.9630 4.0836
" />
<path d="M42.9630 4.0836
L43.0234 3.8417
" />
<path d="M43.0234 3.8417
L43.0839 3.7208
" />
<path d="M43.0839 3.7208
L43.1444 3.6603
" />
<path d="M43.1444 3.6603
L43.2653 3.5998
" />
<path d="M44.4748 3.5998
L44.5958 3.5998
" />
<path d="M44.5958 3.5998
L44.7167 3.6603
" />
<path d="M44.7167 3.6603
L44.7772 3.7208
" />
<path d="M44.7772 3.7208
L44.8377 3.8417
" />
<path d="M44.8377 3.8417
L44.8982 4.0836
" />
<path d="M44.8982 4.0836
L44.8982 4.3860
" />
<path d="M44.8982 4.3860
L44.8377 4.6279
" />
<path d="M44.8377 4.6279
L44.7772 4.7489
" />
<path d="M44.7772 4.7489
L44.7167 4.8094
" />
<path d="M44.7167 4.8094
L44.5958 4.8698
" />
<path d="M44.5958 4.8698
L44.4748 4.8698
" />
<path d="M44.4748 4.8698
L44.3539 4.8094
" />
<path d="M44.3539 4.8094
L44.2934 4.7489
" />
<path d="M44.2934 4.7489
L44.2329 4.6279
" />
<path d="M44.2329 4.6279
L44.1725 4.3860
" />
<path d="M44.1725 4.3860
L44.1725 4.0836
" />
<path d="M44.1725 4.0836
L44.2329 3.8417
" />
<path d="M44.2329 3.8417
L44.2934 3.7208
" />
<path d="M44.2934 3.7208
L44.3539 3.6603
" />
<path d="M44.3539 3.6603
L44.4748 3.5998
" />
<path d="M46.1077 3.6603
L45.9867 3.5998
" />
<path d="M45.9867 3.5998
L45.8053 3.5998
" />
<path d="M45.8053 3.5998
L45.6239 3.6603
" />
<path d="M45.6239 3.6603
L45.5029 3.7813
" />
<path d="M45.5029 3.7813
L45.4424 3.9022
" />
<path d="M45.4424 3.9022
L45.3820 4.1441
" />
<path d="M45.3820 4.1441
L45.3820 4.3255
" />
<path d="M45.3820 4.3255
L45.4424 4.5674
" />
<path d="M45.4424 4.5674
L45.5029 4.6884
" />
<path d="M45.5029 4.6884
L45.6239 4.8094
" />
<path d="M45.6239 4.8094
L45.8053 4.8698
" />
<path d="M45.8053 4.8698
L45.9262 4.8698
" />
<path d="M45.9262 4.8698
L46.1077 4.8094
" />
<path d="M46.1077 4.8094
L46.1681 4.7489
" />
<path d="M46.1681 4.7489
L46.1681 4.3255
" />
<path d="M46.1681 4.3255
L45.9262 4.3255
" />
</g></g>
<g style="fill:#840084; fill-opacity:0.0; 
stroke:#840084; stroke-width:0.1588; stroke-opacity:1; 
stroke-linecap:round; stroke-linejoin:round;">
<text x="55.5419" y="6.8223"
textLength="38.0007" font-size="1.6933" lengthAdjust="spacingAndGlyphs"
text-anchor="middle" opacity="0">Diode_THT:Diode_Bridge_Round_D9.8mm</text>
<g class="stroked-text"><desc>Diode_THT:Diode_Bridge_Round_D9.8mm</desc>
<path d="M36.9154 6.7748
L36.9154 5.5048
" />
<path d="M36.9154 5.5048
L37.2178 5.5048
" />
<path d="M37.2178 5.5048
L37.3992 5.5653
" />
<path d="M37.3992 5.5653
L37.5202 5.6863
" />
<path d="M37.5202 5.6863
L37.5807 5.8072
" />
<path d="M37.5807 5.8072
L37.6411 6.0491
" />
<path d="M37.6411 6.0491
L37.6411 6.2305
" />
<path d="M37.6411 6.2305
L37.5807 6.4724
" />
<path d="M37.5807 6.4724
L37.5202 6.5934
" />
<path d="M37.5202 6.5934
L37.3992 6.7144
" />
<path d="M37.3992 6.7144
L37.2178 6.7748
" />
<path d="M37.2178 6.7748
L36.9154 6.7748
" />
<path d="M38.1854 6.7748
L38.1854 5.9282
" />
<path d="M38.1854 5.5048
L38.1250 5.5653
" />
<path d="M38.1250 5.5653
L38.1854 5.6258
" />
<path d="M38.1854 5.6258
L38.2459 5.5653
" />
<path d="M38.2459 5.5653
L38.1854 5.5048
" />
<path d="M38.1854 5.5048
L38.1854 5.6258
" />
<path d="M38.9717 6.7748
L38.8507 6.7144
" />
<path d="M38.8507 6.7144
L38.7902 6.6539
" />
<path d="M38.7902 6.6539
L38.7298 6.5329
" />
<path d="M38.7298 6.5329
L38.7298 6.1701
" />
<path d="M38.7298 6.1701
L38.7902 6.0491
" />
<path d="M38.7902 6.0491
L38.8507 5.9886
" />
<path d="M38.8507 5.9886
L38.9717 5.9282
" />
<path d="M38.9717 5.9282
L39.1531 5.9282
" />
<path d="M39.1531 5.9282
L39.2740 5.9886
" />
<path d="M39.2740 5.9886
L39.3345 6.0491
" />
<path d="M39.3345 6.0491
L39.3950 6.1701
" />
<path d="M39.3950 6.1701
L39.3950 6.5329
" />
<path d="M39.3950 6.5329
L39.3345 6.6539
" />
<path d="M39.3345 6.6539
L39.2740 6.7144
" />
<path d="M39.2740 6.7144
L39.1531 6.7748
" />
<path d="M39.1531 6.7748
L38.9717 6.7748
" />
<path d="M40.4835 6.7748
L40.4835 5.5048
" />
<path d="M40.4835 6.7144
L40.3626 6.7748
" />
<path d="M40.3626 6.7748
L40.1207 6.7748
" />
<path d="M40.1207 6.7748
L39.9997 6.7144
" />
<path d="M39.9997 6.7144
L39.9392 6.6539
" />
<path d="M39.9392 6.6539
L39.8788 6.5329
" />
<path d="M39.8788 6.5329
L39.8788 6.1701
" />
<path d="M39.8788 6.1701
L39.9392 6.0491
" />
<path d="M39.9392 6.0491
L39.9997 5.9886
" />
<path d="M39.9997 5.9886
L40.1207 5.9282
" />
<path d="M40.1207 5.9282
L40.3626 5.9282
" />
<path d="M40.3626 5.9282
L40.4835 5.9886
" />
<path d="M41.5720 6.7144
L41.4511 6.7748
" />
<path d="M41.4511 6.7748
L41.2092 6.7748
" />
<path d="M41.2092 6.7748
L41.0882 6.7144
" />
<path d="M41.0882 6.7144
L41.0278 6.5934
" />
<path d="M41.0278 6.5934
L41.0278 6.1096
" />
<path d="M41.0278 6.1096
L41.0882 5.9886
" />
<path d="M41.0882 5.9886
L41.2092 5.9282
" />
<path d="M41.2092 5.9282
L41.4511 5.9282
" />
<path d="M41.4511 5.9282
L41.5720 5.9886
" />
<path d="M41.5720 5.9886
L41.6325 6.1096
" />
<path d="M41.6325 6.1096
L41.6325 6.2305
" />
<path d="M41.6325 6.2305
L41.0278 6.3515
" />
<path d="M41.8745 6.8958
L42.8421 6.8958
" />
<path d="M42.9630 5.5048
L43.6887 5.5048
" />
<path d="M43.3259 6.7748
L43.3259 5.5048
" />
<path d="M44.1120 6.7748
L44.1120 5.5048
" />
<path d="M44.1120 6.1096
L44.8377 6.1096
" />
<path d="M44.8377 6.7748
L44.8377 5.5048
" />
<path d="M45.2611 5.5048
L45.9868 5.5048
" />
<path d="M45.6240 6.7748
L45.6240 5.5048
" />
<path d="M46.4101 6.6539
L46.4706 6.7144
" />
<path d="M46.4706 6.7144
L46.4101 6.7748
" />
<path d="M46.4101 6.7748
L46.3497 6.7144
" />
<path d="M46.3497 6.7144
L46.4101 6.6539
" />
<path d="M46.4101 6.6539
L46.4101 6.7748
" />
<path d="M46.4101 5.9886
L46.4706 6.0491
" />
<path d="M46.4706 6.0491
L46.4101 6.1096
" />
<path d="M46.4101 6.1096
L46.3497 6.0491
" />
<path d="M46.3497 6.0491
L46.4101 5.9886
" />
<path d="M46.4101 5.9886
L46.4101 6.1096
" />
<path d="M47.0149 6.7748
L47.0149 5.5048
" />
<path d="M47.0149 5.5048
L47.3173 5.5048
" />
<path d="M47.3173 5.5048
L47.4987 5.5653
" />
<path d="M47.4987 5.5653
L47.6197 5.6863
" />
<path d="M47.6197 5.6863
L47.6802 5.8072
" />
<path d="M47.6802 5.8072
L47.7406 6.0491
" />
<path d="M47.7406 6.0491
L47.7406 6.2305
" />
<path d="M47.7406 6.2305
L47.6802 6.4724
" />
<path d="M47.6802 6.4724
L47.6197 6.5934
" />
<path d="M47.6197 6.5934
L47.4987 6.7144
" />
<path d="M47.4987 6.7144
L47.3173 6.7748
" />
<path d="M47.3173 6.7748
L47.0149 6.7748
" />
<path d="M48.2849 6.7748
L48.2849 5.9282
" />
<path d="M48.2849 5.5048
L48.2245 5.5653
" />
<path d="M48.2245 5.5653
L48.2849 5.6258
" />
<path d="M48.2849 5.6258
L48.3454 5.5653
" />
<path d="M48.3454 5.5653
L48.2849 5.5048
" />
<path d="M48.2849 5.5048
L48.2849 5.6258
" />
<path d="M49.0712 6.7748
L48.9502 6.7144
" />
<path d="M48.9502 6.7144
L48.8897 6.6539
" />
<path d="M48.8897 6.6539
L48.8293 6.5329
" />
<path d="M48.8293 6.5329
L48.8293 6.1701
" />
<path d="M48.8293 6.1701
L48.8897 6.0491
" />
<path d="M48.8897 6.0491
L48.9502 5.9886
" />
<path d="M48.9502 5.9886
L49.0712 5.9282
" />
<path d="M49.0712 5.9282
L49.2526 5.9282
" />
<path d="M49.2526 5.9282
L49.3735 5.9886
" />
<path d="M49.3735 5.9886
L49.4340 6.0491
" />
<path d="M49.4340 6.0491
L49.4945 6.1701
" />
<path d="M49.4945 6.1701
L49.4945 6.5329
" />
<path d="M49.4945 6.5329
L49.4340 6.6539
" />
<path d="M49.4340 6.6539
L49.3735 6.7144
" />
<path d="M49.3735 6.7144
L49.2526 6.7748
" />
<path d="M49.2526 6.7748
L49.0712 6.7748
" />
<path d="M50.5830 6.7748
L50.5830 5.5048
" />
<path d="M50.5830 6.7144
L50.4621 6.7748
" />
<path d="M50.4621 6.7748
L50.2202 6.7748
" />
<path d="M50.2202 6.7748
L50.0992 6.7144
" />
<path d="M50.0992 6.7144
L50.0387 6.6539
" />
<path d="M50.0387 6.6539
L49.9783 6.5329
" />
<path d="M49.9783 6.5329
L49.9783 6.1701
" />
<path d="M49.9783 6.1701
L50.0387 6.0491
" />
<path d="M50.0387 6.0491
L50.0992 5.9886
" />
<path d="M50.0992 5.9886
L50.2202 5.9282
" />
<path d="M50.2202 5.9282
L50.4621 5.9282
" />
<path d="M50.4621 5.9282
L50.5830 5.9886
" />
<path d="M51.6715 6.7144
L51.5506 6.7748
" />
<path d="M51.5506 6.7748
L51.3087 6.7748
" />
<path d="M51.3087 6.7748
L51.1877 6.7144
" />
<path d="M51.1877 6.7144
L51.1273 6.5934
" />
<path d="M51.1273 6.5934
L51.1273 6.1096
" />
<path d="M51.1273 6.1096
L51.1877 5.9886
" />
<path d="M51.1877 5.9886
L51.3087 5.9282
" />
<path d="M51.3087 5.9282
L51.5506 5.9282
" />
<path d="M51.5506 5.9282
L51.6715 5.9886
" />
<path d="M51.6715 5.9886
L51.7320 6.1096
" />
<path d="M51.7320 6.1096
L51.7320 6.2305
" />
<path d="M51.7320 6.2305
L51.1273 6.3515
" />
<path d="M51.9740 6.8958
L52.9416 6.8958
" />
<path d="M53.6673 6.1096
L53.8487 6.1701
" />
<path d="M53.8487 6.1701
L53.9092 6.2305
" />
<path d="M53.9092 6.2305
L53.9696 6.3515
" />
<path d="M53.9696 6.3515
L53.9696 6.5329
" />
<path d="M53.9696 6.5329
L53.9092 6.6539
" />
<path d="M53.9092 6.6539
L53.8487 6.7144
" />
<path d="M53.8487 6.7144
L53.7277 6.7748
" />
<path d="M53.7277 6.7748
L53.2439 6.7748
" />
<path d="M53.2439 6.7748
L53.2439 5.5048
" />
<path d="M53.2439 5.5048
L53.6673 5.5048
" />
<path d="M53.6673 5.5048
L53.7882 5.5653
" />
<path d="M53.7882 5.5653
L53.8487 5.6258
" />
<path d="M53.8487 5.6258
L53.9092 5.7467
" />
<path d="M53.9092 5.7467
L53.9092 5.8677
" />
<path d="M53.9092 5.8677
L53.8487 5.9886
" />
<path d="M53.8487 5.9886
L53.7882 6.0491
" />
<path d="M53.7882 6.0491
L53.6673 6.1096
" />
<path d="M53.6673 6.1096
L53.2439 6.1096
" />
<path d="M54.5139 6.7748
L54.5139 5.9282
" />
<path d="M54.5139 6.1701
L54.5744 6.0491
" />
<path d="M54.5744 6.0491
L54.6349 5.9886
" />
<path d="M54.6349 5.9886
L54.7558 5.9282
" />
<path d="M54.7558 5.9282
L54.8768 5.9282
" />
<path d="M55.3001 6.7748
L55.3001 5.9282
" />
<path d="M55.3001 5.5048
L55.2397 5.5653
" />
<path d="M55.2397 5.5653
L55.3001 5.6258
" />
<path d="M55.3001 5.6258
L55.3606 5.5653
" />
<path d="M55.3606 5.5653
L55.3001 5.5048
" />
<path d="M55.3001 5.5048
L55.3001 5.6258
" />
<path d="M56.4492 6.7748
L56.4492 5.5048
" />
<path d="M56.4492 6.7144
L56.3283 6.7748
" />
<path d="M56.3283 6.7748
L56.0864 6.7748
" />
<path d="M56.0864 6.7748
L55.9654 6.7144
" />
<path d="M55.9654 6.7144
L55.9049 6.6539
" />
<path d="M55.9049 6.6539
L55.8445 6.5329
" />
<path d="M55.8445 6.5329
L55.8445 6.1701
" />
<path d="M55.8445 6.1701
L55.9049 6.0491
" />
<path d="M55.9049 6.0491
L55.9654 5.9886
" />
<path d="M55.9654 5.9886
L56.0864 5.9282
" />
<path d="M56.0864 5.9282
L56.3283 5.9282
" />
<path d="M56.3283 5.9282
L56.4492 5.9886
" />
<path d="M57.5982 5.9282
L57.5982 6.9563
" />
<path d="M57.5982 6.9563
L57.5377 7.0772
" />
<path d="M57.5377 7.0772
L57.4773 7.1377
" />
<path d="M57.4773 7.1377
L57.3563 7.1982
" />
<path d="M57.3563 7.1982
L57.1749 7.1982
" />
<path d="M57.1749 7.1982
L57.0539 7.1377
" />
<path d="M57.5982 6.7144
L57.4773 6.7748
" />
<path d="M57.4773 6.7748
L57.2354 6.7748
" />
<path d="M57.2354 6.7748
L57.1144 6.7144
" />
<path d="M57.1144 6.7144
L57.0539 6.6539
" />
<path d="M57.0539 6.6539
L56.9935 6.5329
" />
<path d="M56.9935 6.5329
L56.9935 6.1701
" />
<path d="M56.9935 6.1701
L57.0539 6.0491
" />
<path d="M57.0539 6.0491
L57.1144 5.9886
" />
<path d="M57.1144 5.9886
L57.2354 5.9282
" />
<path d="M57.2354 5.9282
L57.4773 5.9282
" />
<path d="M57.4773 5.9282
L57.5982 5.9886
" />
<path d="M58.6867 6.7144
L58.5658 6.7748
" />
<path d="M58.5658 6.7748
L58.3239 6.7748
" />
<path d="M58.3239 6.7748
L58.2029 6.7144
" />
<path d="M58.2029 6.7144
L58.1425 6.5934
" />
<path d="M58.1425 6.5934
L58.1425 6.1096
" />
<path d="M58.1425 6.1096
L58.2029 5.9886
" />
<path d="M58.2029 5.9886
L58.3239 5.9282
" />
<path d="M58.3239 5.9282
L58.5658 5.9282
" />
<path d="M58.5658 5.9282
L58.6867 5.9886
" />
<path d="M58.6867 5.9886
L58.7472 6.1096
" />
<path d="M58.7472 6.1096
L58.7472 6.2305
" />
<path d="M58.7472 6.2305
L58.1425 6.3515
" />
<path d="M58.9892 6.8958
L59.9568 6.8958
" />
<path d="M60.9848 6.7748
L60.5615 6.1701
" />
<path d="M60.2591 6.7748
L60.2591 5.5048
" />
<path d="M60.2591 5.5048
L60.7429 5.5048
" />
<path d="M60.7429 5.5048
L60.8639 5.5653
" />
<path d="M60.8639 5.5653
L60.9244 5.6258
" />
<path d="M60.9244 5.6258
L60.9848 5.7467
" />
<path d="M60.9848 5.7467
L60.9848 5.9282
" />
<path d="M60.9848 5.9282
L60.9244 6.0491
" />
<path d="M60.9244 6.0491
L60.8639 6.1096
" />
<path d="M60.8639 6.1096
L60.7429 6.1701
" />
<path d="M60.7429 6.1701
L60.2591 6.1701
" />
<path d="M61.7106 6.7748
L61.5896 6.7144
" />
<path d="M61.5896 6.7144
L61.5291 6.6539
" />
<path d="M61.5291 6.6539
L61.4687 6.5329
" />
<path d="M61.4687 6.5329
L61.4687 6.1701
" />
<path d="M61.4687 6.1701
L61.5291 6.0491
" />
<path d="M61.5291 6.0491
L61.5896 5.9886
" />
<path d="M61.5896 5.9886
L61.7106 5.9282
" />
<path d="M61.7106 5.9282
L61.8920 5.9282
" />
<path d="M61.8920 5.9282
L62.0129 5.9886
" />
<path d="M62.0129 5.9886
L62.0734 6.0491
" />
<path d="M62.0734 6.0491
L62.1339 6.1701
" />
<path d="M62.1339 6.1701
L62.1339 6.5329
" />
<path d="M62.1339 6.5329
L62.0734 6.6539
" />
<path d="M62.0734 6.6539
L62.0129 6.7144
" />
<path d="M62.0129 6.7144
L61.8920 6.7748
" />
<path d="M61.8920 6.7748
L61.7106 6.7748
" />
<path d="M63.2224 5.9282
L63.2224 6.7748
" />
<path d="M62.6781 5.9282
L62.6781 6.5934
" />
<path d="M62.6781 6.5934
L62.7386 6.7144
" />
<path d="M62.7386 6.7144
L62.8596 6.7748
" />
<path d="M62.8596 6.7748
L63.0410 6.7748
" />
<path d="M63.0410 6.7748
L63.1619 6.7144
" />
<path d="M63.1619 6.7144
L63.2224 6.6539
" />
<path d="M63.8271 5.9282
L63.8271 6.7748
" />
<path d="M63.8271 6.0491
L63.8876 5.9886
" />
<path d="M63.8876 5.9886
L64.0086 5.9282
" />
<path d="M64.0086 5.9282
L64.1900 5.9282
" />
<path d="M64.1900 5.9282
L64.3109 5.9886
" />
<path d="M64.3109 5.9886
L64.3714 6.1096
" />
<path d="M64.3714 6.1096
L64.3714 6.7748
" />
<path d="M65.5204 6.7748
L65.5204 5.5048
" />
<path d="M65.5204 6.7144
L65.3995 6.7748
" />
<path d="M65.3995 6.7748
L65.1576 6.7748
" />
<path d="M65.1576 6.7748
L65.0366 6.7144
" />
<path d="M65.0366 6.7144
L64.9761 6.6539
" />
<path d="M64.9761 6.6539
L64.9157 6.5329
" />
<path d="M64.9157 6.5329
L64.9157 6.1701
" />
<path d="M64.9157 6.1701
L64.9761 6.0491
" />
<path d="M64.9761 6.0491
L65.0366 5.9886
" />
<path d="M65.0366 5.9886
L65.1576 5.9282
" />
<path d="M65.1576 5.9282
L65.3995 5.9282
" />
<path d="M65.3995 5.9282
L65.5204 5.9886
" />
<path d="M65.8228 6.8958
L66.7904 6.8958
" />
<path d="M67.0927 6.7748
L67.0927 5.5048
" />
<path d="M67.0927 5.5048
L67.3951 5.5048
" />
<path d="M67.3951 5.5048
L67.5765 5.5653
" />
<path d="M67.5765 5.5653
L67.6975 5.6863
" />
<path d="M67.6975 5.6863
L67.7580 5.8072
" />
<path d="M67.7580 5.8072
L67.8184 6.0491
" />
<path d="M67.8184 6.0491
L67.8184 6.2305
" />
<path d="M67.8184 6.2305
L67.7580 6.4724
" />
<path d="M67.7580 6.4724
L67.6975 6.5934
" />
<path d="M67.6975 6.5934
L67.5765 6.7144
" />
<path d="M67.5765 6.7144
L67.3951 6.7748
" />
<path d="M67.3951 6.7748
L67.0927 6.7748
" />
<path d="M68.4232 6.7748
L68.6651 6.7748
" />
<path d="M68.6651 6.7748
L68.7861 6.7144
" />
<path d="M68.7861 6.7144
L68.8465 6.6539
" />
<path d="M68.8465 6.6539
L68.9675 6.4724
" />
<path d="M68.9675 6.4724
L69.0280 6.2305
" />
<path d="M69.0280 6.2305
L69.0280 5.7467
" />
<path d="M69.0280 5.7467
L68.9675 5.6258
" />
<path d="M68.9675 5.6258
L68.9070 5.5653
" />
<path d="M68.9070 5.5653
L68.7861 5.5048
" />
<path d="M68.7861 5.5048
L68.5442 5.5048
" />
<path d="M68.5442 5.5048
L68.4232 5.5653
" />
<path d="M68.4232 5.5653
L68.3627 5.6258
" />
<path d="M68.3627 5.6258
L68.3023 5.7467
" />
<path d="M68.3023 5.7467
L68.3023 6.0491
" />
<path d="M68.3023 6.0491
L68.3627 6.1701
" />
<path d="M68.3627 6.1701
L68.4232 6.2305
" />
<path d="M68.4232 6.2305
L68.5442 6.2910
" />
<path d="M68.5442 6.2910
L68.7861 6.2910
" />
<path d="M68.7861 6.2910
L68.9070 6.2305
" />
<path d="M68.9070 6.2305
L68.9675 6.1701
" />
<path d="M68.9675 6.1701
L69.0280 6.0491
" />
<path d="M69.5722 6.6539
L69.6327 6.7144
" />
<path d="M69.6327 6.7144
L69.5722 6.7748
" />
<path d="M69.5722 6.7748
L69.5118 6.7144
" />
<path d="M69.5118 6.7144
L69.5722 6.6539
" />
<path d="M69.5722 6.6539
L69.5722 6.7748
" />
<path d="M70.3585 6.0491
L70.2375 5.9886
" />
<path d="M70.2375 5.9886
L70.1770 5.9282
" />
<path d="M70.1770 5.9282
L70.1166 5.8072
" />
<path d="M70.1166 5.8072
L70.1166 5.7467
" />
<path d="M70.1166 5.7467
L70.1770 5.6258
" />
<path d="M70.1770 5.6258
L70.2375 5.5653
" />
<path d="M70.2375 5.5653
L70.3585 5.5048
" />
<path d="M70.3585 5.5048
L70.6004 5.5048
" />
<path d="M70.6004 5.5048
L70.7213 5.5653
" />
<path d="M70.7213 5.5653
L70.7818 5.6258
" />
<path d="M70.7818 5.6258
L70.8423 5.7467
" />
<path d="M70.8423 5.7467
L70.8423 5.8072
" />
<path d="M70.8423 5.8072
L70.7818 5.9282
" />
<path d="M70.7818 5.9282
L70.7213 5.9886
" />
<path d="M70.7213 5.9886
L70.6004 6.0491
" />
<path d="M70.6004 6.0491
L70.3585 6.0491
" />
<path d="M70.3585 6.0491
L70.2375 6.1096
" />
<path d="M70.2375 6.1096
L70.1770 6.1701
" />
<path d="M70.1770 6.1701
L70.1166 6.2910
" />
<path d="M70.1166 6.2910
L70.1166 6.5329
" />
<path d="M70.1166 6.5329
L70.1770 6.6539
" />
<path d="M70.1770 6.6539
L70.2375 6.7144
" />
<path d="M70.2375 6.7144
L70.3585 6.7748
" />
<path d="M70.3585 6.7748
L70.6004 6.7748
" />
<path d="M70.6004 6.7748
L70.7213 6.7144
" />
<path d="M70.7213 6.7144
L70.7818 6.6539
" />
<path d="M70.7818 6.6539
L70.8423 6.5329
" />
<path d="M70.8423 6.5329
L70.8423 6.2910
" />
<path d="M70.8423 6.2910
L70.7818 6.1701
" />
<path d="M70.7818 6.1701
L70.7213 6.1096
" />
<path d="M70.7213 6.1096
L70.6004 6.0491
" />
<path d="M71.3865 6.7748
L71.3865 5.9282
" />
<path d="M71.3865 6.0491
L71.4470 5.9886
" />
<path d="M71.4470 5.9886
L71.5680 5.9282
" />
<path d="M71.5680 5.9282
L71.7494 5.9282
" />
<path d="M71.7494 5.9282
L71.8703 5.9886
" />
<path d="M71.8703 5.9886
L71.9308 6.1096
" />
<path d="M71.9308 6.1096
L71.9308 6.7748
" />
<path d="M71.9308 6.1096
L71.9913 5.9886
" />
<path d="M71.9913 5.9886
L72.1122 5.9282
" />
<path d="M72.1122 5.9282
L72.2937 5.9282
" />
<path d="M72.2937 5.9282
L72.4146 5.9886
" />
<path d="M72.4146 5.9886
L72.4751 6.1096
" />
<path d="M72.4751 6.1096
L72.4751 6.7748
" />
<path d="M73.0798 6.7748
L73.0798 5.9282
" />
<path d="M73.0798 6.0491
L73.1403 5.9886
" />
<path d="M73.1403 5.9886
L73.2613 5.9282
" />
<path d="M73.2613 5.9282
L73.4427 5.9282
" />
<path d="M73.4427 5.9282
L73.5636 5.9886
" />
<path d="M73.5636 5.9886
L73.6241 6.1096
" />
<path d="M73.6241 6.1096
L73.6241 6.7748
" />
<path d="M73.6241 6.1096
L73.6846 5.9886
" />
<path d="M73.6846 5.9886
L73.8055 5.9282
" />
<path d="M73.8055 5.9282
L73.9870 5.9282
" />
<path d="M73.9870 5.9282
L74.1079 5.9886
" />
<path d="M74.1079 5.9886
L74.1684 6.1096
" />
<path d="M74.1684 6.1096
L74.1684 6.7748
" />
</g><text x="32.7316" y="9.9973"
textLength="51.9102" font-size="1.6933" lengthAdjust="spacingAndGlyphs"
text-anchor="middle" opacity="0">https://www.vishay.com/docs/88501/b40c1500g.pdf</text>
<g class="stroked-text"><desc>https://www.vishay.com/docs/88501/b40c1500g.pdf</desc>
<path d="M7.1503 9.9498
L7.1503 8.6798
" />
<path d="M7.6946 9.9498
L7.6946 9.2846
" />
<path d="M7.6946 9.2846
L7.6341 9.1636
" />
<path d="M7.6341 9.1636
L7.5132 9.1032
" />
<path d="M7.5132 9.1032
L7.3318 9.1032
" />
<path d="M7.3318 9.1032
L7.2108 9.1636
" />
<path d="M7.2108 9.1636
L7.1503 9.2241
" />
<path d="M8.1179 9.1032
L8.6017 9.1032
" />
<path d="M8.2993 8.6798
L8.2993 9.7684
" />
<path d="M8.2993 9.7684
L8.3598 9.8894
" />
<path d="M8.3598 9.8894
L8.4808 9.9498
" />
<path d="M8.4808 9.9498
L8.6017 9.9498
" />
<path d="M8.8436 9.1032
L9.3274 9.1032
" />
<path d="M9.0250 8.6798
L9.0250 9.7684
" />
<path d="M9.0250 9.7684
L9.0855 9.8894
" />
<path d="M9.0855 9.8894
L9.2065 9.9498
" />
<path d="M9.2065 9.9498
L9.3274 9.9498
" />
<path d="M9.7507 9.1032
L9.7507 10.3732
" />
<path d="M9.7507 9.1636
L9.8717 9.1032
" />
<path d="M9.8717 9.1032
L10.1136 9.1032
" />
<path d="M10.1136 9.1032
L10.2345 9.1636
" />
<path d="M10.2345 9.1636
L10.2950 9.2241
" />
<path d="M10.2950 9.2241
L10.3555 9.3451
" />
<path d="M10.3555 9.3451
L10.3555 9.7079
" />
<path d="M10.3555 9.7079
L10.2950 9.8289
" />
<path d="M10.2950 9.8289
L10.2345 9.8894
" />
<path d="M10.2345 9.8894
L10.1136 9.9498
" />
<path d="M10.1136 9.9498
L9.8717 9.9498
" />
<path d="M9.8717 9.9498
L9.7507 9.8894
" />
<path d="M10.8393 9.8894
L10.9602 9.9498
" />
<path d="M10.9602 9.9498
L11.2021 9.9498
" />
<path d="M11.2021 9.9498
L11.3231 9.8894
" />
<path d="M11.3231 9.8894
L11.3835 9.7684
" />
<path d="M11.3835 9.7684
L11.3835 9.7079
" />
<path d="M11.3835 9.7079
L11.3231 9.5870
" />
<path d="M11.3231 9.5870
L11.2021 9.5265
" />
<path d="M11.2021 9.5265
L11.0207 9.5265
" />
<path d="M11.0207 9.5265
L10.8997 9.4660
" />
<path d="M10.8997 9.4660
L10.8393 9.3451
" />
<path d="M10.8393 9.3451
L10.8393 9.2846
" />
<path d="M10.8393 9.2846
L10.8997 9.1636
" />
<path d="M10.8997 9.1636
L11.0207 9.1032
" />
<path d="M11.0207 9.1032
L11.2021 9.1032
" />
<path d="M11.2021 9.1032
L11.3231 9.1636
" />
<path d="M11.9278 9.8289
L11.9883 9.8894
" />
<path d="M11.9883 9.8894
L11.9278 9.9498
" />
<path d="M11.9278 9.9498
L11.8674 9.8894
" />
<path d="M11.8674 9.8894
L11.9278 9.8289
" />
<path d="M11.9278 9.8289
L11.9278 9.9498
" />
<path d="M11.9278 9.1636
L11.9883 9.2241
" />
<path d="M11.9883 9.2241
L11.9278 9.2846
" />
<path d="M11.9278 9.2846
L11.8674 9.2241
" />
<path d="M11.8674 9.2241
L11.9278 9.1636
" />
<path d="M11.9278 9.1636
L11.9278 9.2846
" />
<path d="M13.4398 8.6194
L12.3512 10.2522
" />
<path d="M14.7703 8.6194
L13.6817 10.2522
" />
<path d="M15.0727 9.1032
L15.3146 9.9498
" />
<path d="M15.3146 9.9498
L15.5565 9.3451
" />
<path d="M15.5565 9.3451
L15.7984 9.9498
" />
<path d="M15.7984 9.9498
L16.0403 9.1032
" />
<path d="M16.4032 9.1032
L16.6451 9.9498
" />
<path d="M16.6451 9.9498
L16.8870 9.3451
" />
<path d="M16.8870 9.3451
L17.1289 9.9498
" />
<path d="M17.1289 9.9498
L17.3708 9.1032
" />
<path d="M17.7337 9.1032
L17.9756 9.9498
" />
<path d="M17.9756 9.9498
L18.2175 9.3451
" />
<path d="M18.2175 9.3451
L18.4594 9.9498
" />
<path d="M18.4594 9.9498
L18.7013 9.1032
" />
<path d="M19.1851 9.8289
L19.2456 9.8894
" />
<path d="M19.2456 9.8894
L19.1851 9.9498
" />
<path d="M19.1851 9.9498
L19.1247 9.8894
" />
<path d="M19.1247 9.8894
L19.1851 9.8289
" />
<path d="M19.1851 9.8289
L19.1851 9.9498
" />
<path d="M19.6690 9.1032
L19.9714 9.9498
" />
<path d="M19.9714 9.9498
L20.2737 9.1032
" />
<path d="M20.7575 9.9498
L20.7575 9.1032
" />
<path d="M20.7575 8.6798
L20.6971 8.7403
" />
<path d="M20.6971 8.7403
L20.7575 8.8008
" />
<path d="M20.7575 8.8008
L20.8180 8.7403
" />
<path d="M20.8180 8.7403
L20.7575 8.6798
" />
<path d="M20.7575 8.6798
L20.7575 8.8008
" />
<path d="M21.3019 9.8894
L21.4228 9.9498
" />
<path d="M21.4228 9.9498
L21.6647 9.9498
" />
<path d="M21.6647 9.9498
L21.7857 9.8894
" />
<path d="M21.7857 9.8894
L21.8461 9.7684
" />
<path d="M21.8461 9.7684
L21.8461 9.7079
" />
<path d="M21.8461 9.7079
L21.7857 9.5870
" />
<path d="M21.7857 9.5870
L21.6647 9.5265
" />
<path d="M21.6647 9.5265
L21.4833 9.5265
" />
<path d="M21.4833 9.5265
L21.3623 9.4660
" />
<path d="M21.3623 9.4660
L21.3019 9.3451
" />
<path d="M21.3019 9.3451
L21.3019 9.2846
" />
<path d="M21.3019 9.2846
L21.3623 9.1636
" />
<path d="M21.3623 9.1636
L21.4833 9.1032
" />
<path d="M21.4833 9.1032
L21.6647 9.1032
" />
<path d="M21.6647 9.1032
L21.7857 9.1636
" />
<path d="M22.3904 9.9498
L22.3904 8.6798
" />
<path d="M22.9347 9.9498
L22.9347 9.2846
" />
<path d="M22.9347 9.2846
L22.8742 9.1636
" />
<path d="M22.8742 9.1636
L22.7533 9.1032
" />
<path d="M22.7533 9.1032
L22.5719 9.1032
" />
<path d="M22.5719 9.1032
L22.4509 9.1636
" />
<path d="M22.4509 9.1636
L22.3904 9.2241
" />
<path d="M24.0837 9.9498
L24.0837 9.2846
" />
<path d="M24.0837 9.2846
L24.0232 9.1636
" />
<path d="M24.0232 9.1636
L23.9023 9.1032
" />
<path d="M23.9023 9.1032
L23.6604 9.1032
" />
<path d="M23.6604 9.1032
L23.5394 9.1636
" />
<path d="M24.0837 9.8894
L23.9628 9.9498
" />
<path d="M23.9628 9.9498
L23.6604 9.9498
" />
<path d="M23.6604 9.9498
L23.5394 9.8894
" />
<path d="M23.5394 9.8894
L23.4790 9.7684
" />
<path d="M23.4790 9.7684
L23.4790 9.6474
" />
<path d="M23.4790 9.6474
L23.5394 9.5265
" />
<path d="M23.5394 9.5265
L23.6604 9.4660
" />
<path d="M23.6604 9.4660
L23.9628 9.4660
" />
<path d="M23.9628 9.4660
L24.0837 9.4055
" />
<path d="M24.5675 9.1032
L24.8699 9.9498
" />
<path d="M25.1722 9.1032
L24.8699 9.9498
" />
<path d="M24.8699 9.9498
L24.7489 10.2522
" />
<path d="M24.7489 10.2522
L24.6884 10.3127
" />
<path d="M24.6884 10.3127
L24.5675 10.3732
" />
<path d="M25.6560 9.8289
L25.7165 9.8894
" />
<path d="M25.7165 9.8894
L25.6560 9.9498
" />
<path d="M25.6560 9.9498
L25.5956 9.8894
" />
<path d="M25.5956 9.8894
L25.6560 9.8289
" />
<path d="M25.6560 9.8289
L25.6560 9.9498
" />
<path d="M26.8051 9.8894
L26.6842 9.9498
" />
<path d="M26.6842 9.9498
L26.4423 9.9498
" />
<path d="M26.4423 9.9498
L26.3213 9.8894
" />
<path d="M26.3213 9.8894
L26.2608 9.8289
" />
<path d="M26.2608 9.8289
L26.2004 9.7079
" />
<path d="M26.2004 9.7079
L26.2004 9.3451
" />
<path d="M26.2004 9.3451
L26.2608 9.2241
" />
<path d="M26.2608 9.2241
L26.3213 9.1636
" />
<path d="M26.3213 9.1636
L26.4423 9.1032
" />
<path d="M26.4423 9.1032
L26.6842 9.1032
" />
<path d="M26.6842 9.1032
L26.8051 9.1636
" />
<path d="M27.5309 9.9498
L27.4099 9.8894
" />
<path d="M27.4099 9.8894
L27.3494 9.8289
" />
<path d="M27.3494 9.8289
L27.2890 9.7079
" />
<path d="M27.2890 9.7079
L27.2890 9.3451
" />
<path d="M27.2890 9.3451
L27.3494 9.2241
" />
<path d="M27.3494 9.2241
L27.4099 9.1636
" />
<path d="M27.4099 9.1636
L27.5309 9.1032
" />
<path d="M27.5309 9.1032
L27.7123 9.1032
" />
<path d="M27.7123 9.1032
L27.8332 9.1636
" />
<path d="M27.8332 9.1636
L27.8937 9.2241
" />
<path d="M27.8937 9.2241
L27.9542 9.3451
" />
<path d="M27.9542 9.3451
L27.9542 9.7079
" />
<path d="M27.9542 9.7079
L27.8937 9.8289
" />
<path d="M27.8937 9.8289
L27.8332 9.8894
" />
<path d="M27.8332 9.8894
L27.7123 9.9498
" />
<path d="M27.7123 9.9498
L27.5309 9.9498
" />
<path d="M28.4984 9.9498
L28.4984 9.1032
" />
<path d="M28.4984 9.2241
L28.5589 9.1636
" />
<path d="M28.5589 9.1636
L28.6799 9.1032
" />
<path d="M28.6799 9.1032
L28.8613 9.1032
" />
<path d="M28.8613 9.1032
L28.9822 9.1636
" />
<path d="M28.9822 9.1636
L29.0427 9.2846
" />
<path d="M29.0427 9.2846
L29.0427 9.9498
" />
<path d="M29.0427 9.2846
L29.1032 9.1636
" />
<path d="M29.1032 9.1636
L29.2241 9.1032
" />
<path d="M29.2241 9.1032
L29.4056 9.1032
" />
<path d="M29.4056 9.1032
L29.5265 9.1636
" />
<path d="M29.5265 9.1636
L29.5870 9.2846
" />
<path d="M29.5870 9.2846
L29.5870 9.9498
" />
<path d="M31.0989 8.6194
L30.0103 10.2522
" />
<path d="M32.0665 9.9498
L32.0665 8.6798
" />
<path d="M32.0665 9.8894
L31.9456 9.9498
" />
<path d="M31.9456 9.9498
L31.7037 9.9498
" />
<path d="M31.7037 9.9498
L31.5827 9.8894
" />
<path d="M31.5827 9.8894
L31.5222 9.8289
" />
<path d="M31.5222 9.8289
L31.4618 9.7079
" />
<path d="M31.4618 9.7079
L31.4618 9.3451
" />
<path d="M31.4618 9.3451
L31.5222 9.2241
" />
<path d="M31.5222 9.2241
L31.5827 9.1636
" />
<path d="M31.5827 9.1636
L31.7037 9.1032
" />
<path d="M31.7037 9.1032
L31.9456 9.1032
" />
<path d="M31.9456 9.1032
L32.0665 9.1636
" />
<path d="M32.8527 9.9498
L32.7317 9.8894
" />
<path d="M32.7317 9.8894
L32.6712 9.8289
" />
<path d="M32.6712 9.8289
L32.6108 9.7079
" />
<path d="M32.6108 9.7079
L32.6108 9.3451
" />
<path d="M32.6108 9.3451
L32.6712 9.2241
" />
<path d="M32.6712 9.2241
L32.7317 9.1636
" />
<path d="M32.7317 9.1636
L32.8527 9.1032
" />
<path d="M32.8527 9.1032
L33.0341 9.1032
" />
<path d="M33.0341 9.1032
L33.1550 9.1636
" />
<path d="M33.1550 9.1636
L33.2155 9.2241
" />
<path d="M33.2155 9.2241
L33.2760 9.3451
" />
<path d="M33.2760 9.3451
L33.2760 9.7079
" />
<path d="M33.2760 9.7079
L33.2155 9.8289
" />
<path d="M33.2155 9.8289
L33.1550 9.8894
" />
<path d="M33.1550 9.8894
L33.0341 9.9498
" />
<path d="M33.0341 9.9498
L32.8527 9.9498
" />
<path d="M34.3645 9.8894
L34.2436 9.9498
" />
<path d="M34.2436 9.9498
L34.0017 9.9498
" />
<path d="M34.0017 9.9498
L33.8807 9.8894
" />
<path d="M33.8807 9.8894
L33.8202 9.8289
" />
<path d="M33.8202 9.8289
L33.7598 9.7079
" />
<path d="M33.7598 9.7079
L33.7598 9.3451
" />
<path d="M33.7598 9.3451
L33.8202 9.2241
" />
<path d="M33.8202 9.2241
L33.8807 9.1636
" />
<path d="M33.8807 9.1636
L34.0017 9.1032
" />
<path d="M34.0017 9.1032
L34.2436 9.1032
" />
<path d="M34.2436 9.1032
L34.3645 9.1636
" />
<path d="M34.8484 9.8894
L34.9693 9.9498
" />
<path d="M34.9693 9.9498
L35.2112 9.9498
" />
<path d="M35.2112 9.9498
L35.3322 9.8894
" />
<path d="M35.3322 9.8894
L35.3926 9.7684
" />
<path d="M35.3926 9.7684
L35.3926 9.7079
" />
<path d="M35.3926 9.7079
L35.3322 9.5870
" />
<path d="M35.3322 9.5870
L35.2112 9.5265
" />
<path d="M35.2112 9.5265
L35.0298 9.5265
" />
<path d="M35.0298 9.5265
L34.9088 9.4660
" />
<path d="M34.9088 9.4660
L34.8484 9.3451
" />
<path d="M34.8484 9.3451
L34.8484 9.2846
" />
<path d="M34.8484 9.2846
L34.9088 9.1636
" />
<path d="M34.9088 9.1636
L35.0298 9.1032
" />
<path d="M35.0298 9.1032
L35.2112 9.1032
" />
<path d="M35.2112 9.1032
L35.3322 9.1636
" />
<path d="M36.8441 8.6194
L35.7555 10.2522
" />
<path d="M37.4489 9.2241
L37.3279 9.1636
" />
<path d="M37.3279 9.1636
L37.2674 9.1032
" />
<path d="M37.2674 9.1032
L37.2070 8.9822
" />
<path d="M37.2070 8.9822
L37.2070 8.9217
" />
<path d="M37.2070 8.9217
L37.2674 8.8008
" />
<path d="M37.2674 8.8008
L37.3279 8.7403
" />
<path d="M37.3279 8.7403
L37.4489 8.6798
" />
<path d="M37.4489 8.6798
L37.6908 8.6798
" />
<path d="M37.6908 8.6798
L37.8117 8.7403
" />
<path d="M37.8117 8.7403
L37.8722 8.8008
" />
<path d="M37.8722 8.8008
L37.9327 8.9217
" />
<path d="M37.9327 8.9217
L37.9327 8.9822
" />
<path d="M37.9327 8.9822
L37.8722 9.1032
" />
<path d="M37.8722 9.1032
L37.8117 9.1636
" />
<path d="M37.8117 9.1636
L37.6908 9.2241
" />
<path d="M37.6908 9.2241
L37.4489 9.2241
" />
<path d="M37.4489 9.2241
L37.3279 9.2846
" />
<path d="M37.3279 9.2846
L37.2674 9.3451
" />
<path d="M37.2674 9.3451
L37.2070 9.4660
" />
<path d="M37.2070 9.4660
L37.2070 9.7079
" />
<path d="M37.2070 9.7079
L37.2674 9.8289
" />
<path d="M37.2674 9.8289
L37.3279 9.8894
" />
<path d="M37.3279 9.8894
L37.4489 9.9498
" />
<path d="M37.4489 9.9498
L37.6908 9.9498
" />
<path d="M37.6908 9.9498
L37.8117 9.8894
" />
<path d="M37.8117 9.8894
L37.8722 9.8289
" />
<path d="M37.8722 9.8289
L37.9327 9.7079
" />
<path d="M37.9327 9.7079
L37.9327 9.4660
" />
<path d="M37.9327 9.4660
L37.8722 9.3451
" />
<path d="M37.8722 9.3451
L37.8117 9.2846
" />
<path d="M37.8117 9.2846
L37.6908 9.2241
" />
<path d="M38.6584 9.2241
L38.5374 9.1636
" />
<path d="M38.5374 9.1636
L38.4769 9.1032
" />
<path d="M38.4769 9.1032
L38.4165 8.9822
" />
<path d="M38.4165 8.9822
L38.4165 8.9217
" />
<path d="M38.4165 8.9217
L38.4769 8.8008
" />
<path d="M38.4769 8.8008
L38.5374 8.7403
" />
<path d="M38.5374 8.7403
L38.6584 8.6798
" />
<path d="M38.6584 8.6798
L38.9003 8.6798
" />
<path d="M38.9003 8.6798
L39.0212 8.7403
" />
<path d="M39.0212 8.7403
L39.0817 8.8008
" />
<path d="M39.0817 8.8008
L39.1422 8.9217
" />
<path d="M39.1422 8.9217
L39.1422 8.9822
" />
<path d="M39.1422 8.9822
L39.0817 9.1032
" />
<path d="M39.0817 9.1032
L39.0212 9.1636
" />
<path d="M39.0212 9.1636
L38.9003 9.2241
" />
<path d="M38.9003 9.2241
L38.6584 9.2241
" />
<path d="M38.6584 9.2241
L38.5374 9.2846
" />
<path d="M38.5374 9.2846
L38.4769 9.3451
" />
<path d="M38.4769 9.3451
L38.4165 9.4660
" />
<path d="M38.4165 9.4660
L38.4165 9.7079
" />
<path d="M38.4165 9.7079
L38.4769 9.8289
" />
<path d="M38.4769 9.8289
L38.5374 9.8894
" />
<path d="M38.5374 9.8894
L38.6584 9.9498
" />
<path d="M38.6584 9.9498
L38.9003 9.9498
" />
<path d="M38.9003 9.9498
L39.0212 9.8894
" />
<path d="M39.0212 9.8894
L39.0817 9.8289
" />
<path d="M39.0817 9.8289
L39.1422 9.7079
" />
<path d="M39.1422 9.7079
L39.1422 9.4660
" />
<path d="M39.1422 9.4660
L39.0817 9.3451
" />
<path d="M39.0817 9.3451
L39.0212 9.2846
" />
<path d="M39.0212 9.2846
L38.9003 9.2241
" />
<path d="M40.2912 8.6798
L39.6864 8.6798
" />
<path d="M39.6864 8.6798
L39.6260 9.2846
" />
<path d="M39.6260 9.2846
L39.6864 9.2241
" />
<path d="M39.6864 9.2241
L39.8074 9.1636
" />
<path d="M39.8074 9.1636
L40.1098 9.1636
" />
<path d="M40.1098 9.1636
L40.2307 9.2241
" />
<path d="M40.2307 9.2241
L40.2912 9.2846
" />
<path d="M40.2912 9.2846
L40.3517 9.4055
" />
<path d="M40.3517 9.4055
L40.3517 9.7079
" />
<path d="M40.3517 9.7079
L40.2912 9.8289
" />
<path d="M40.2912 9.8289
L40.2307 9.8894
" />
<path d="M40.2307 9.8894
L40.1098 9.9498
" />
<path d="M40.1098 9.9498
L39.8074 9.9498
" />
<path d="M39.8074 9.9498
L39.6864 9.8894
" />
<path d="M39.6864 9.8894
L39.6260 9.8289
" />
<path d="M41.1378 8.6798
L41.2588 8.6798
" />
<path d="M41.2588 8.6798
L41.3797 8.7403
" />
<path d="M41.3797 8.7403
L41.4402 8.8008
" />
<path d="M41.4402 8.8008
L41.5007 8.9217
" />
<path d="M41.5007 8.9217
L41.5612 9.1636
" />
<path d="M41.5612 9.1636
L41.5612 9.4660
" />
<path d="M41.5612 9.4660
L41.5007 9.7079
" />
<path d="M41.5007 9.7079
L41.4402 9.8289
" />
<path d="M41.4402 9.8289
L41.3797 9.8894
" />
<path d="M41.3797 9.8894
L41.2588 9.9498
" />
<path d="M41.2588 9.9498
L41.1378 9.9498
" />
<path d="M41.1378 9.9498
L41.0169 9.8894
" />
<path d="M41.0169 9.8894
L40.9564 9.8289
" />
<path d="M40.9564 9.8289
L40.8959 9.7079
" />
<path d="M40.8959 9.7079
L40.8355 9.4660
" />
<path d="M40.8355 9.4660
L40.8355 9.1636
" />
<path d="M40.8355 9.1636
L40.8959 8.9217
" />
<path d="M40.8959 8.9217
L40.9564 8.8008
" />
<path d="M40.9564 8.8008
L41.0169 8.7403
" />
<path d="M41.0169 8.7403
L41.1378 8.6798
" />
<path d="M42.7707 9.9498
L42.0450 9.9498
" />
<path d="M42.4078 9.9498
L42.4078 8.6798
" />
<path d="M42.4078 8.6798
L42.2869 8.8613
" />
<path d="M42.2869 8.8613
L42.1659 8.9822
" />
<path d="M42.1659 8.9822
L42.0450 9.0427
" />
<path d="M44.2221 8.6194
L43.1335 10.2522
" />
<path d="M44.6454 9.9498
L44.6454 8.6798
" />
<path d="M44.6454 9.1636
L44.7664 9.1032
" />
<path d="M44.7664 9.1032
L45.0083 9.1032
" />
<path d="M45.0083 9.1032
L45.1292 9.1636
" />
<path d="M45.1292 9.1636
L45.1897 9.2241
" />
<path d="M45.1897 9.2241
L45.2502 9.3451
" />
<path d="M45.2502 9.3451
L45.2502 9.7079
" />
<path d="M45.2502 9.7079
L45.1897 9.8289
" />
<path d="M45.1897 9.8289
L45.1292 9.8894
" />
<path d="M45.1292 9.8894
L45.0083 9.9498
" />
<path d="M45.0083 9.9498
L44.7664 9.9498
" />
<path d="M44.7664 9.9498
L44.6454 9.8894
" />
<path d="M46.3387 9.1032
L46.3387 9.9498
" />
<path d="M46.0363 8.6194
L45.7340 9.5265
" />
<path d="M45.7340 9.5265
L46.5201 9.5265
" />
<path d="M47.2458 8.6798
L47.3668 8.6798
" />
<path d="M47.3668 8.6798
L47.4877 8.7403
" />
<path d="M47.4877 8.7403
L47.5482 8.8008
" />
<path d="M47.5482 8.8008
L47.6087 8.9217
" />
<path d="M47.6087 8.9217
L47.6692 9.1636
" />
<path d="M47.6692 9.1636
L47.6692 9.4660
" />
<path d="M47.6692 9.4660
L47.6087 9.7079
" />
<path d="M47.6087 9.7079
L47.5482 9.8289
" />
<path d="M47.5482 9.8289
L47.4877 9.8894
" />
<path d="M47.4877 9.8894
L47.3668 9.9498
" />
<path d="M47.3668 9.9498
L47.2458 9.9498
" />
<path d="M47.2458 9.9498
L47.1249 9.8894
" />
<path d="M47.1249 9.8894
L47.0644 9.8289
" />
<path d="M47.0644 9.8289
L47.0039 9.7079
" />
<path d="M47.0039 9.7079
L46.9435 9.4660
" />
<path d="M46.9435 9.4660
L46.9435 9.1636
" />
<path d="M46.9435 9.1636
L47.0039 8.9217
" />
<path d="M47.0039 8.9217
L47.0644 8.8008
" />
<path d="M47.0644 8.8008
L47.1249 8.7403
" />
<path d="M47.1249 8.7403
L47.2458 8.6798
" />
<path d="M48.7577 9.8894
L48.6368 9.9498
" />
<path d="M48.6368 9.9498
L48.3949 9.9498
" />
<path d="M48.3949 9.9498
L48.2739 9.8894
" />
<path d="M48.2739 9.8894
L48.2134 9.8289
" />
<path d="M48.2134 9.8289
L48.1530 9.7079
" />
<path d="M48.1530 9.7079
L48.1530 9.3451
" />
<path d="M48.1530 9.3451
L48.2134 9.2241
" />
<path d="M48.2134 9.2241
L48.2739 9.1636
" />
<path d="M48.2739 9.1636
L48.3949 9.1032
" />
<path d="M48.3949 9.1032
L48.6368 9.1032
" />
<path d="M48.6368 9.1032
L48.7577 9.1636
" />
<path d="M49.9673 9.9498
L49.2416 9.9498
" />
<path d="M49.6044 9.9498
L49.6044 8.6798
" />
<path d="M49.6044 8.6798
L49.4835 8.8613
" />
<path d="M49.4835 8.8613
L49.3625 8.9822
" />
<path d="M49.3625 8.9822
L49.2416 9.0427
" />
<path d="M51.1163 8.6798
L50.5115 8.6798
" />
<path d="M50.5115 8.6798
L50.4511 9.2846
" />
<path d="M50.4511 9.2846
L50.5115 9.2241
" />
<path d="M50.5115 9.2241
L50.6325 9.1636
" />
<path d="M50.6325 9.1636
L50.9349 9.1636
" />
<path d="M50.9349 9.1636
L51.0558 9.2241
" />
<path d="M51.0558 9.2241
L51.1163 9.2846
" />
<path d="M51.1163 9.2846
L51.1768 9.4055
" />
<path d="M51.1768 9.4055
L51.1768 9.7079
" />
<path d="M51.1768 9.7079
L51.1163 9.8289
" />
<path d="M51.1163 9.8289
L51.0558 9.8894
" />
<path d="M51.0558 9.8894
L50.9349 9.9498
" />
<path d="M50.9349 9.9498
L50.6325 9.9498
" />
<path d="M50.6325 9.9498
L50.5115 9.8894
" />
<path d="M50.5115 9.8894
L50.4511 9.8289
" />
<path d="M51.9629 8.6798
L52.0839 8.6798
" />
<path d="M52.0839 8.6798
L52.2048 8.7403
" />
<path d="M52.2048 8.7403
L52.2653 8.8008
" />
<path d="M52.2653 8.8008
L52.3258 8.9217
" />
<path d="M52.3258 8.9217
L52.3863 9.1636
" />
<path d="M52.3863 9.1636
L52.3863 9.4660
" />
<path d="M52.3863 9.4660
L52.3258 9.7079
" />
<path d="M52.3258 9.7079
L52.2653 9.8289
" />
<path d="M52.2653 9.8289
L52.2048 9.8894
" />
<path d="M52.2048 9.8894
L52.0839 9.9498
" />
<path d="M52.0839 9.9498
L51.9629 9.9498
" />
<path d="M51.9629 9.9498
L51.8420 9.8894
" />
<path d="M51.8420 9.8894
L51.7815 9.8289
" />
<path d="M51.7815 9.8289
L51.7210 9.7079
" />
<path d="M51.7210 9.7079
L51.6606 9.4660
" />
<path d="M51.6606 9.4660
L51.6606 9.1636
" />
<path d="M51.6606 9.1636
L51.7210 8.9217
" />
<path d="M51.7210 8.9217
L51.7815 8.8008
" />
<path d="M51.7815 8.8008
L51.8420 8.7403
" />
<path d="M51.8420 8.7403
L51.9629 8.6798
" />
<path d="M53.1724 8.6798
L53.2934 8.6798
" />
<path d="M53.2934 8.6798
L53.4143 8.7403
" />
<path d="M53.4143 8.7403
L53.4748 8.8008
" />
<path d="M53.4748 8.8008
L53.5353 8.9217
" />
<path d="M53.5353 8.9217
L53.5958 9.1636
" />
<path d="M53.5958 9.1636
L53.5958 9.4660
" />
<path d="M53.5958 9.4660
L53.5353 9.7079
" />
<path d="M53.5353 9.7079
L53.4748 9.8289
" />
<path d="M53.4748 9.8289
L53.4143 9.8894
" />
<path d="M53.4143 9.8894
L53.2934 9.9498
" />
<path d="M53.2934 9.9498
L53.1724 9.9498
" />
<path d="M53.1724 9.9498
L53.0515 9.8894
" />
<path d="M53.0515 9.8894
L52.9910 9.8289
" />
<path d="M52.9910 9.8289
L52.9305 9.7079
" />
<path d="M52.9305 9.7079
L52.8701 9.4660
" />
<path d="M52.8701 9.4660
L52.8701 9.1636
" />
<path d="M52.8701 9.1636
L52.9305 8.9217
" />
<path d="M52.9305 8.9217
L52.9910 8.8008
" />
<path d="M52.9910 8.8008
L53.0515 8.7403
" />
<path d="M53.0515 8.7403
L53.1724 8.6798
" />
<path d="M54.6843 9.1032
L54.6843 10.1313
" />
<path d="M54.6843 10.1313
L54.6238 10.2522
" />
<path d="M54.6238 10.2522
L54.5634 10.3127
" />
<path d="M54.5634 10.3127
L54.4424 10.3732
" />
<path d="M54.4424 10.3732
L54.2610 10.3732
" />
<path d="M54.2610 10.3732
L54.1400 10.3127
" />
<path d="M54.6843 9.8894
L54.5634 9.9498
" />
<path d="M54.5634 9.9498
L54.3215 9.9498
" />
<path d="M54.3215 9.9498
L54.2005 9.8894
" />
<path d="M54.2005 9.8894
L54.1400 9.8289
" />
<path d="M54.1400 9.8289
L54.0796 9.7079
" />
<path d="M54.0796 9.7079
L54.0796 9.3451
" />
<path d="M54.0796 9.3451
L54.1400 9.2241
" />
<path d="M54.1400 9.2241
L54.2005 9.1636
" />
<path d="M54.2005 9.1636
L54.3215 9.1032
" />
<path d="M54.3215 9.1032
L54.5634 9.1032
" />
<path d="M54.5634 9.1032
L54.6843 9.1636
" />
<path d="M55.2890 9.8289
L55.3495 9.8894
" />
<path d="M55.3495 9.8894
L55.2890 9.9498
" />
<path d="M55.2890 9.9498
L55.2286 9.8894
" />
<path d="M55.2286 9.8894
L55.2890 9.8289
" />
<path d="M55.2890 9.8289
L55.2890 9.9498
" />
<path d="M55.8938 9.1032
L55.8938 10.3732
" />
<path d="M55.8938 9.1636
L56.0148 9.1032
" />
<path d="M56.0148 9.1032
L56.2567 9.1032
" />
<path d="M56.2567 9.1032
L56.3776 9.1636
" />
<path d="M56.3776 9.1636
L56.4381 9.2241
" />
<path d="M56.4381 9.2241
L56.4986 9.3451
" />
<path d="M56.4986 9.3451
L56.4986 9.7079
" />
<path d="M56.4986 9.7079
L56.4381 9.8289
" />
<path d="M56.4381 9.8289
L56.3776 9.8894
" />
<path d="M56.3776 9.8894
L56.2567 9.9498
" />
<path d="M56.2567 9.9498
L56.0148 9.9498
" />
<path d="M56.0148 9.9498
L55.8938 9.8894
" />
<path d="M57.5871 9.9498
L57.5871 8.6798
" />
<path d="M57.5871 9.8894
L57.4662 9.9498
" />
<path d="M57.4662 9.9498
L57.2243 9.9498
" />
<path d="M57.2243 9.9498
L57.1033 9.8894
" />
<path d="M57.1033 9.8894
L57.0428 9.8289
" />
<path d="M57.0428 9.8289
L56.9824 9.7079
" />
<path d="M56.9824 9.7079
L56.9824 9.3451
" />
<path d="M56.9824 9.3451
L57.0428 9.2241
" />
<path d="M57.0428 9.2241
L57.1033 9.1636
" />
<path d="M57.1033 9.1636
L57.2243 9.1032
" />
<path d="M57.2243 9.1032
L57.4662 9.1032
" />
<path d="M57.4662 9.1032
L57.5871 9.1636
" />
<path d="M58.0104 9.1032
L58.4942 9.1032
" />
<path d="M58.1918 9.9498
L58.1918 8.8613
" />
<path d="M58.1918 8.8613
L58.2523 8.7403
" />
<path d="M58.2523 8.7403
L58.3733 8.6798
" />
<path d="M58.3733 8.6798
L58.4942 8.6798
" />
</g></g> 
</svg>
