<?xml version="1.0" standalone="no"?>
 <!DOCTYPE svg PUBLIC "-//W3C//DTD SVG 1.1//EN" 
 "http://www.w3.org/Graphics/SVG/1.1/DTD/svg11.dtd"> 
<svg
  xmlns:svg="http://www.w3.org/2000/svg"
  xmlns="http://www.w3.org/2000/svg"
  xmlns:xlink="http://www.w3.org/1999/xlink"
  version="1.1"
  width="60.5028mm" height="32.9438mm" viewBox="0.0000 0.0000 60.5028 32.9438">
<title>SVG Image created as working.svg date 2023/08/09 02:11:29 </title>
  <desc>Image generated by Eeschema-SVG </desc>
<g style="fill:#000000; fill-opacity:1.0000;stroke:#000000; stroke-opacity:1.0000;
stroke-linecap:round; stroke-linejoin:round;"
 transform="translate(0 0) scale(1 1)">
</g>
<g style="fill:#840000; fill-opacity:0.0; 
stroke:#840000; stroke-width:0.0000; stroke-opacity:1; 
stroke-linecap:round; stroke-linejoin:round;">
</g>
<g style="fill:#840084; fill-opacity:0.0; 
stroke:#840084; stroke-width:0.0000; stroke-opacity:1; 
stroke-linecap:round; stroke-linejoin:round;">
</g>
<g style="fill:#840000; fill-opacity:0.0; 
stroke:#840000; stroke-width:0.0000; stroke-opacity:1; 
stroke-linecap:round; stroke-linejoin:round;">
</g>
<g style="fill:#840084; fill-opacity:0.0; 
stroke:#840084; stroke-width:0.0000; stroke-opacity:1; 
stroke-linecap:round; stroke-linejoin:round;">
</g>
<g style="fill:#006464; fill-opacity:0.0; 
stroke:#006464; stroke-width:0.0000; stroke-opacity:1; 
stroke-linecap:round; stroke-linejoin:round;">
</g>
<g style="fill:#006464; fill-opacity:0.0; 
stroke:#006464; stroke-width:0.1588; stroke-opacity:1; 
stroke-linecap:round; stroke-linejoin:round;">
<text x="25.1704" y="4.4009"
textLength="2.6415" font-size="1.6933" lengthAdjust="spacingAndGlyphs"
text-anchor="middle" opacity="0">U?</text>
<g class="stroked-text"><desc>U?</desc>
<path d="M24.2632 3.0751
L24.2632 4.1032
" />
<path d="M24.2632 4.1032
L24.3237 4.2242
" />
<path d="M24.3237 4.2242
L24.3842 4.2847
" />
<path d="M24.3842 4.2847
L24.5051 4.3451
" />
<path d="M24.5051 4.3451
L24.7470 4.3451
" />
<path d="M24.7470 4.3451
L24.8680 4.2847
" />
<path d="M24.8680 4.2847
L24.9285 4.2242
" />
<path d="M24.9285 4.2242
L24.9889 4.1032
" />
<path d="M24.9889 4.1032
L24.9889 3.0751
" />
<path d="M25.7752 4.2242
L25.8356 4.2847
" />
<path d="M25.8356 4.2847
L25.7752 4.3451
" />
<path d="M25.7752 4.3451
L25.7147 4.2847
" />
<path d="M25.7147 4.2847
L25.7752 4.2242
" />
<path d="M25.7752 4.2242
L25.7752 4.3451
" />
<path d="M25.5333 3.1356
L25.6542 3.0751
" />
<path d="M25.6542 3.0751
L25.9566 3.0751
" />
<path d="M25.9566 3.0751
L26.0775 3.1356
" />
<path d="M26.0775 3.1356
L26.1380 3.2566
" />
<path d="M26.1380 3.2566
L26.1380 3.3775
" />
<path d="M26.1380 3.3775
L26.0775 3.4985
" />
<path d="M26.0775 3.4985
L26.0171 3.5589
" />
<path d="M26.0171 3.5589
L25.8961 3.6194
" />
<path d="M25.8961 3.6194
L25.8356 3.6799
" />
<path d="M25.8356 3.6799
L25.7752 3.8008
" />
<path d="M25.7752 3.8008
L25.7752 3.8613
" />
</g><text x="22.6304" y="29.8009"
textLength="11.0475" font-size="1.6933" lengthAdjust="spacingAndGlyphs"
text-anchor="middle" opacity="0">74HCT4051</text>
<g class="stroked-text"><desc>74HCT4051</desc>
<path d="M17.3993 28.4751
L18.2459 28.4751
" />
<path d="M18.2459 28.4751
L17.7017 29.7451
" />
<path d="M19.2740 28.8985
L19.2740 29.7451
" />
<path d="M18.9716 28.4147
L18.6693 29.3218
" />
<path d="M18.6693 29.3218
L19.4554 29.3218
" />
<path d="M19.9392 29.7451
L19.9392 28.4751
" />
<path d="M19.9392 29.0799
L20.6649 29.0799
" />
<path d="M20.6649 29.7451
L20.6649 28.4751
" />
<path d="M21.9954 29.6242
L21.9350 29.6847
" />
<path d="M21.9350 29.6847
L21.7535 29.7451
" />
<path d="M21.7535 29.7451
L21.6326 29.7451
" />
<path d="M21.6326 29.7451
L21.4512 29.6847
" />
<path d="M21.4512 29.6847
L21.3302 29.5637
" />
<path d="M21.3302 29.5637
L21.2697 29.4427
" />
<path d="M21.2697 29.4427
L21.2093 29.2008
" />
<path d="M21.2093 29.2008
L21.2093 29.0194
" />
<path d="M21.2093 29.0194
L21.2697 28.7775
" />
<path d="M21.2697 28.7775
L21.3302 28.6566
" />
<path d="M21.3302 28.6566
L21.4512 28.5356
" />
<path d="M21.4512 28.5356
L21.6326 28.4751
" />
<path d="M21.6326 28.4751
L21.7535 28.4751
" />
<path d="M21.7535 28.4751
L21.9350 28.5356
" />
<path d="M21.9350 28.5356
L21.9954 28.5961
" />
<path d="M22.3583 28.4751
L23.0840 28.4751
" />
<path d="M22.7212 29.7451
L22.7212 28.4751
" />
<path d="M24.0516 28.8985
L24.0516 29.7451
" />
<path d="M23.7492 28.4147
L23.4469 29.3218
" />
<path d="M23.4469 29.3218
L24.2330 29.3218
" />
<path d="M24.9587 28.4751
L25.0797 28.4751
" />
<path d="M25.0797 28.4751
L25.2006 28.5356
" />
<path d="M25.2006 28.5356
L25.2611 28.5961
" />
<path d="M25.2611 28.5961
L25.3216 28.7170
" />
<path d="M25.3216 28.7170
L25.3821 28.9589
" />
<path d="M25.3821 28.9589
L25.3821 29.2613
" />
<path d="M25.3821 29.2613
L25.3216 29.5032
" />
<path d="M25.3216 29.5032
L25.2611 29.6242
" />
<path d="M25.2611 29.6242
L25.2006 29.6847
" />
<path d="M25.2006 29.6847
L25.0797 29.7451
" />
<path d="M25.0797 29.7451
L24.9587 29.7451
" />
<path d="M24.9587 29.7451
L24.8378 29.6847
" />
<path d="M24.8378 29.6847
L24.7773 29.6242
" />
<path d="M24.7773 29.6242
L24.7168 29.5032
" />
<path d="M24.7168 29.5032
L24.6564 29.2613
" />
<path d="M24.6564 29.2613
L24.6564 28.9589
" />
<path d="M24.6564 28.9589
L24.7168 28.7170
" />
<path d="M24.7168 28.7170
L24.7773 28.5961
" />
<path d="M24.7773 28.5961
L24.8378 28.5356
" />
<path d="M24.8378 28.5356
L24.9587 28.4751
" />
<path d="M26.5311 28.4751
L25.9263 28.4751
" />
<path d="M25.9263 28.4751
L25.8659 29.0799
" />
<path d="M25.8659 29.0799
L25.9263 29.0194
" />
<path d="M25.9263 29.0194
L26.0473 28.9589
" />
<path d="M26.0473 28.9589
L26.3497 28.9589
" />
<path d="M26.3497 28.9589
L26.4706 29.0194
" />
<path d="M26.4706 29.0194
L26.5311 29.0799
" />
<path d="M26.5311 29.0799
L26.5916 29.2008
" />
<path d="M26.5916 29.2008
L26.5916 29.5032
" />
<path d="M26.5916 29.5032
L26.5311 29.6242
" />
<path d="M26.5311 29.6242
L26.4706 29.6847
" />
<path d="M26.4706 29.6847
L26.3497 29.7451
" />
<path d="M26.3497 29.7451
L26.0473 29.7451
" />
<path d="M26.0473 29.7451
L25.9263 29.6847
" />
<path d="M25.9263 29.6847
L25.8659 29.6242
" />
<path d="M27.8011 29.7451
L27.0754 29.7451
" />
<path d="M27.4382 29.7451
L27.4382 28.4751
" />
<path d="M27.4382 28.4751
L27.3173 28.6566
" />
<path d="M27.3173 28.6566
L27.1963 28.7775
" />
<path d="M27.1963 28.7775
L27.0754 28.8380
" />
</g></g>
<g style="fill:#840084; fill-opacity:0.0; 
stroke:#840084; stroke-width:0.1588; stroke-opacity:1; 
stroke-linecap:round; stroke-linejoin:round;">
<text x="30.2504" y="25.9909"
textLength="50.4174" font-size="1.6933" lengthAdjust="spacingAndGlyphs"
text-anchor="middle" opacity="0">http://www.ti.com/lit/ds/symlink/cd74hct4051.pdf</text>
<g class="stroked-text"><desc>http://www.ti.com/lit/ds/symlink/cd74hct4051.pdf</desc>
<path d="M5.4552 25.9351
L5.4552 24.6651
" />
<path d="M5.9995 25.9351
L5.9995 25.2699
" />
<path d="M5.9995 25.2699
L5.9390 25.1489
" />
<path d="M5.9390 25.1489
L5.8181 25.0885
" />
<path d="M5.8181 25.0885
L5.6367 25.0885
" />
<path d="M5.6367 25.0885
L5.5157 25.1489
" />
<path d="M5.5157 25.1489
L5.4552 25.2094
" />
<path d="M6.4228 25.0885
L6.9066 25.0885
" />
<path d="M6.6042 24.6651
L6.6042 25.7537
" />
<path d="M6.6042 25.7537
L6.6647 25.8747
" />
<path d="M6.6647 25.8747
L6.7857 25.9351
" />
<path d="M6.7857 25.9351
L6.9066 25.9351
" />
<path d="M7.1485 25.0885
L7.6323 25.0885
" />
<path d="M7.3299 24.6651
L7.3299 25.7537
" />
<path d="M7.3299 25.7537
L7.3904 25.8747
" />
<path d="M7.3904 25.8747
L7.5114 25.9351
" />
<path d="M7.5114 25.9351
L7.6323 25.9351
" />
<path d="M8.0556 25.0885
L8.0556 26.3585
" />
<path d="M8.0556 25.1489
L8.1766 25.0885
" />
<path d="M8.1766 25.0885
L8.4185 25.0885
" />
<path d="M8.4185 25.0885
L8.5394 25.1489
" />
<path d="M8.5394 25.1489
L8.5999 25.2094
" />
<path d="M8.5999 25.2094
L8.6604 25.3304
" />
<path d="M8.6604 25.3304
L8.6604 25.6932
" />
<path d="M8.6604 25.6932
L8.5999 25.8142
" />
<path d="M8.5999 25.8142
L8.5394 25.8747
" />
<path d="M8.5394 25.8747
L8.4185 25.9351
" />
<path d="M8.4185 25.9351
L8.1766 25.9351
" />
<path d="M8.1766 25.9351
L8.0556 25.8747
" />
<path d="M9.2046 25.8142
L9.2651 25.8747
" />
<path d="M9.2651 25.8747
L9.2046 25.9351
" />
<path d="M9.2046 25.9351
L9.1442 25.8747
" />
<path d="M9.1442 25.8747
L9.2046 25.8142
" />
<path d="M9.2046 25.8142
L9.2046 25.9351
" />
<path d="M9.2046 25.1489
L9.2651 25.2094
" />
<path d="M9.2651 25.2094
L9.2046 25.2699
" />
<path d="M9.2046 25.2699
L9.1442 25.2094
" />
<path d="M9.1442 25.2094
L9.2046 25.1489
" />
<path d="M9.2046 25.1489
L9.2046 25.2699
" />
<path d="M10.7166 24.6047
L9.6280 26.2375
" />
<path d="M12.0471 24.6047
L10.9585 26.2375
" />
<path d="M12.3495 25.0885
L12.5914 25.9351
" />
<path d="M12.5914 25.9351
L12.8333 25.3304
" />
<path d="M12.8333 25.3304
L13.0752 25.9351
" />
<path d="M13.0752 25.9351
L13.3171 25.0885
" />
<path d="M13.6800 25.0885
L13.9219 25.9351
" />
<path d="M13.9219 25.9351
L14.1638 25.3304
" />
<path d="M14.1638 25.3304
L14.4057 25.9351
" />
<path d="M14.4057 25.9351
L14.6476 25.0885
" />
<path d="M15.0105 25.0885
L15.2524 25.9351
" />
<path d="M15.2524 25.9351
L15.4943 25.3304
" />
<path d="M15.4943 25.3304
L15.7362 25.9351
" />
<path d="M15.7362 25.9351
L15.9781 25.0885
" />
<path d="M16.4619 25.8142
L16.5224 25.8747
" />
<path d="M16.5224 25.8747
L16.4619 25.9351
" />
<path d="M16.4619 25.9351
L16.4015 25.8747
" />
<path d="M16.4015 25.8747
L16.4619 25.8142
" />
<path d="M16.4619 25.8142
L16.4619 25.9351
" />
<path d="M16.8853 25.0885
L17.3691 25.0885
" />
<path d="M17.0667 24.6651
L17.0667 25.7537
" />
<path d="M17.0667 25.7537
L17.1272 25.8747
" />
<path d="M17.1272 25.8747
L17.2482 25.9351
" />
<path d="M17.2482 25.9351
L17.3691 25.9351
" />
<path d="M17.7924 25.9351
L17.7924 25.0885
" />
<path d="M17.7924 24.6651
L17.7320 24.7256
" />
<path d="M17.7320 24.7256
L17.7924 24.7861
" />
<path d="M17.7924 24.7861
L17.8529 24.7256
" />
<path d="M17.8529 24.7256
L17.7924 24.6651
" />
<path d="M17.7924 24.6651
L17.7924 24.7861
" />
<path d="M18.3972 25.8142
L18.4577 25.8747
" />
<path d="M18.4577 25.8747
L18.3972 25.9351
" />
<path d="M18.3972 25.9351
L18.3368 25.8747
" />
<path d="M18.3368 25.8747
L18.3972 25.8142
" />
<path d="M18.3972 25.8142
L18.3972 25.9351
" />
<path d="M19.5463 25.8747
L19.4254 25.9351
" />
<path d="M19.4254 25.9351
L19.1835 25.9351
" />
<path d="M19.1835 25.9351
L19.0625 25.8747
" />
<path d="M19.0625 25.8747
L19.0020 25.8142
" />
<path d="M19.0020 25.8142
L18.9416 25.6932
" />
<path d="M18.9416 25.6932
L18.9416 25.3304
" />
<path d="M18.9416 25.3304
L19.0020 25.2094
" />
<path d="M19.0020 25.2094
L19.0625 25.1489
" />
<path d="M19.0625 25.1489
L19.1835 25.0885
" />
<path d="M19.1835 25.0885
L19.4254 25.0885
" />
<path d="M19.4254 25.0885
L19.5463 25.1489
" />
<path d="M20.2721 25.9351
L20.1511 25.8747
" />
<path d="M20.1511 25.8747
L20.0906 25.8142
" />
<path d="M20.0906 25.8142
L20.0302 25.6932
" />
<path d="M20.0302 25.6932
L20.0302 25.3304
" />
<path d="M20.0302 25.3304
L20.0906 25.2094
" />
<path d="M20.0906 25.2094
L20.1511 25.1489
" />
<path d="M20.1511 25.1489
L20.2721 25.0885
" />
<path d="M20.2721 25.0885
L20.4535 25.0885
" />
<path d="M20.4535 25.0885
L20.5744 25.1489
" />
<path d="M20.5744 25.1489
L20.6349 25.2094
" />
<path d="M20.6349 25.2094
L20.6954 25.3304
" />
<path d="M20.6954 25.3304
L20.6954 25.6932
" />
<path d="M20.6954 25.6932
L20.6349 25.8142
" />
<path d="M20.6349 25.8142
L20.5744 25.8747
" />
<path d="M20.5744 25.8747
L20.4535 25.9351
" />
<path d="M20.4535 25.9351
L20.2721 25.9351
" />
<path d="M21.2396 25.9351
L21.2396 25.0885
" />
<path d="M21.2396 25.2094
L21.3001 25.1489
" />
<path d="M21.3001 25.1489
L21.4211 25.0885
" />
<path d="M21.4211 25.0885
L21.6025 25.0885
" />
<path d="M21.6025 25.0885
L21.7234 25.1489
" />
<path d="M21.7234 25.1489
L21.7839 25.2699
" />
<path d="M21.7839 25.2699
L21.7839 25.9351
" />
<path d="M21.7839 25.2699
L21.8444 25.1489
" />
<path d="M21.8444 25.1489
L21.9653 25.0885
" />
<path d="M21.9653 25.0885
L22.1468 25.0885
" />
<path d="M22.1468 25.0885
L22.2677 25.1489
" />
<path d="M22.2677 25.1489
L22.3282 25.2699
" />
<path d="M22.3282 25.2699
L22.3282 25.9351
" />
<path d="M23.8401 24.6047
L22.7515 26.2375
" />
<path d="M24.4449 25.9351
L24.3239 25.8747
" />
<path d="M24.3239 25.8747
L24.2634 25.7537
" />
<path d="M24.2634 25.7537
L24.2634 24.6651
" />
<path d="M24.9286 25.9351
L24.9286 25.0885
" />
<path d="M24.9286 24.6651
L24.8682 24.7256
" />
<path d="M24.8682 24.7256
L24.9286 24.7861
" />
<path d="M24.9286 24.7861
L24.9891 24.7256
" />
<path d="M24.9891 24.7256
L24.9286 24.6651
" />
<path d="M24.9286 24.6651
L24.9286 24.7861
" />
<path d="M25.3520 25.0885
L25.8358 25.0885
" />
<path d="M25.5334 24.6651
L25.5334 25.7537
" />
<path d="M25.5334 25.7537
L25.5939 25.8747
" />
<path d="M25.5939 25.8747
L25.7149 25.9351
" />
<path d="M25.7149 25.9351
L25.8358 25.9351
" />
<path d="M27.1663 24.6047
L26.0777 26.2375
" />
<path d="M28.1339 25.9351
L28.1339 24.6651
" />
<path d="M28.1339 25.8747
L28.0130 25.9351
" />
<path d="M28.0130 25.9351
L27.7711 25.9351
" />
<path d="M27.7711 25.9351
L27.6501 25.8747
" />
<path d="M27.6501 25.8747
L27.5896 25.8142
" />
<path d="M27.5896 25.8142
L27.5292 25.6932
" />
<path d="M27.5292 25.6932
L27.5292 25.3304
" />
<path d="M27.5292 25.3304
L27.5896 25.2094
" />
<path d="M27.5896 25.2094
L27.6501 25.1489
" />
<path d="M27.6501 25.1489
L27.7711 25.0885
" />
<path d="M27.7711 25.0885
L28.0130 25.0885
" />
<path d="M28.0130 25.0885
L28.1339 25.1489
" />
<path d="M28.6782 25.8747
L28.7991 25.9351
" />
<path d="M28.7991 25.9351
L29.0410 25.9351
" />
<path d="M29.0410 25.9351
L29.1620 25.8747
" />
<path d="M29.1620 25.8747
L29.2224 25.7537
" />
<path d="M29.2224 25.7537
L29.2224 25.6932
" />
<path d="M29.2224 25.6932
L29.1620 25.5723
" />
<path d="M29.1620 25.5723
L29.0410 25.5118
" />
<path d="M29.0410 25.5118
L28.8596 25.5118
" />
<path d="M28.8596 25.5118
L28.7386 25.4513
" />
<path d="M28.7386 25.4513
L28.6782 25.3304
" />
<path d="M28.6782 25.3304
L28.6782 25.2699
" />
<path d="M28.6782 25.2699
L28.7386 25.1489
" />
<path d="M28.7386 25.1489
L28.8596 25.0885
" />
<path d="M28.8596 25.0885
L29.0410 25.0885
" />
<path d="M29.0410 25.0885
L29.1620 25.1489
" />
<path d="M30.6739 24.6047
L29.5853 26.2375
" />
<path d="M31.0368 25.8747
L31.1577 25.9351
" />
<path d="M31.1577 25.9351
L31.3996 25.9351
" />
<path d="M31.3996 25.9351
L31.5206 25.8747
" />
<path d="M31.5206 25.8747
L31.5810 25.7537
" />
<path d="M31.5810 25.7537
L31.5810 25.6932
" />
<path d="M31.5810 25.6932
L31.5206 25.5723
" />
<path d="M31.5206 25.5723
L31.3996 25.5118
" />
<path d="M31.3996 25.5118
L31.2182 25.5118
" />
<path d="M31.2182 25.5118
L31.0972 25.4513
" />
<path d="M31.0972 25.4513
L31.0368 25.3304
" />
<path d="M31.0368 25.3304
L31.0368 25.2699
" />
<path d="M31.0368 25.2699
L31.0972 25.1489
" />
<path d="M31.0972 25.1489
L31.2182 25.0885
" />
<path d="M31.2182 25.0885
L31.3996 25.0885
" />
<path d="M31.3996 25.0885
L31.5206 25.1489
" />
<path d="M32.0044 25.0885
L32.3068 25.9351
" />
<path d="M32.6091 25.0885
L32.3068 25.9351
" />
<path d="M32.3068 25.9351
L32.1858 26.2375
" />
<path d="M32.1858 26.2375
L32.1253 26.2980
" />
<path d="M32.1253 26.2980
L32.0044 26.3585
" />
<path d="M33.0929 25.9351
L33.0929 25.0885
" />
<path d="M33.0929 25.2094
L33.1534 25.1489
" />
<path d="M33.1534 25.1489
L33.2744 25.0885
" />
<path d="M33.2744 25.0885
L33.4558 25.0885
" />
<path d="M33.4558 25.0885
L33.5767 25.1489
" />
<path d="M33.5767 25.1489
L33.6372 25.2699
" />
<path d="M33.6372 25.2699
L33.6372 25.9351
" />
<path d="M33.6372 25.2699
L33.6977 25.1489
" />
<path d="M33.6977 25.1489
L33.8186 25.0885
" />
<path d="M33.8186 25.0885
L34.0001 25.0885
" />
<path d="M34.0001 25.0885
L34.1210 25.1489
" />
<path d="M34.1210 25.1489
L34.1815 25.2699
" />
<path d="M34.1815 25.2699
L34.1815 25.9351
" />
<path d="M34.9677 25.9351
L34.8467 25.8747
" />
<path d="M34.8467 25.8747
L34.7862 25.7537
" />
<path d="M34.7862 25.7537
L34.7862 24.6651
" />
<path d="M35.4514 25.9351
L35.4514 25.0885
" />
<path d="M35.4514 24.6651
L35.3910 24.7256
" />
<path d="M35.3910 24.7256
L35.4514 24.7861
" />
<path d="M35.4514 24.7861
L35.5119 24.7256
" />
<path d="M35.5119 24.7256
L35.4514 24.6651
" />
<path d="M35.4514 24.6651
L35.4514 24.7861
" />
<path d="M36.0562 25.0885
L36.0562 25.9351
" />
<path d="M36.0562 25.2094
L36.1167 25.1489
" />
<path d="M36.1167 25.1489
L36.2377 25.0885
" />
<path d="M36.2377 25.0885
L36.4191 25.0885
" />
<path d="M36.4191 25.0885
L36.5400 25.1489
" />
<path d="M36.5400 25.1489
L36.6005 25.2699
" />
<path d="M36.6005 25.2699
L36.6005 25.9351
" />
<path d="M37.2052 25.9351
L37.2052 24.6651
" />
<path d="M37.3262 25.4513
L37.6890 25.9351
" />
<path d="M37.6890 25.0885
L37.2052 25.5723
" />
<path d="M39.1405 24.6047
L38.0519 26.2375
" />
<path d="M40.1081 25.8747
L39.9872 25.9351
" />
<path d="M39.9872 25.9351
L39.7453 25.9351
" />
<path d="M39.7453 25.9351
L39.6243 25.8747
" />
<path d="M39.6243 25.8747
L39.5638 25.8142
" />
<path d="M39.5638 25.8142
L39.5034 25.6932
" />
<path d="M39.5034 25.6932
L39.5034 25.3304
" />
<path d="M39.5034 25.3304
L39.5638 25.2094
" />
<path d="M39.5638 25.2094
L39.6243 25.1489
" />
<path d="M39.6243 25.1489
L39.7453 25.0885
" />
<path d="M39.7453 25.0885
L39.9872 25.0885
" />
<path d="M39.9872 25.0885
L40.1081 25.1489
" />
<path d="M41.1967 25.9351
L41.1967 24.6651
" />
<path d="M41.1967 25.8747
L41.0758 25.9351
" />
<path d="M41.0758 25.9351
L40.8339 25.9351
" />
<path d="M40.8339 25.9351
L40.7129 25.8747
" />
<path d="M40.7129 25.8747
L40.6524 25.8142
" />
<path d="M40.6524 25.8142
L40.5920 25.6932
" />
<path d="M40.5920 25.6932
L40.5920 25.3304
" />
<path d="M40.5920 25.3304
L40.6524 25.2094
" />
<path d="M40.6524 25.2094
L40.7129 25.1489
" />
<path d="M40.7129 25.1489
L40.8339 25.0885
" />
<path d="M40.8339 25.0885
L41.0758 25.0885
" />
<path d="M41.0758 25.0885
L41.1967 25.1489
" />
<path d="M41.6805 24.6651
L42.5271 24.6651
" />
<path d="M42.5271 24.6651
L41.9829 25.9351
" />
<path d="M43.5552 25.0885
L43.5552 25.9351
" />
<path d="M43.2528 24.6047
L42.9505 25.5118
" />
<path d="M42.9505 25.5118
L43.7366 25.5118
" />
<path d="M44.2204 25.9351
L44.2204 24.6651
" />
<path d="M44.7647 25.9351
L44.7647 25.2699
" />
<path d="M44.7647 25.2699
L44.7042 25.1489
" />
<path d="M44.7042 25.1489
L44.5833 25.0885
" />
<path d="M44.5833 25.0885
L44.4019 25.0885
" />
<path d="M44.4019 25.0885
L44.2809 25.1489
" />
<path d="M44.2809 25.1489
L44.2204 25.2094
" />
<path d="M45.9137 25.8747
L45.7928 25.9351
" />
<path d="M45.7928 25.9351
L45.5509 25.9351
" />
<path d="M45.5509 25.9351
L45.4299 25.8747
" />
<path d="M45.4299 25.8747
L45.3694 25.8142
" />
<path d="M45.3694 25.8142
L45.3090 25.6932
" />
<path d="M45.3090 25.6932
L45.3090 25.3304
" />
<path d="M45.3090 25.3304
L45.3694 25.2094
" />
<path d="M45.3694 25.2094
L45.4299 25.1489
" />
<path d="M45.4299 25.1489
L45.5509 25.0885
" />
<path d="M45.5509 25.0885
L45.7928 25.0885
" />
<path d="M45.7928 25.0885
L45.9137 25.1489
" />
<path d="M46.2766 25.0885
L46.7604 25.0885
" />
<path d="M46.4580 24.6651
L46.4580 25.7537
" />
<path d="M46.4580 25.7537
L46.5185 25.8747
" />
<path d="M46.5185 25.8747
L46.6395 25.9351
" />
<path d="M46.6395 25.9351
L46.7604 25.9351
" />
<path d="M47.7280 25.0885
L47.7280 25.9351
" />
<path d="M47.4256 24.6047
L47.1233 25.5118
" />
<path d="M47.1233 25.5118
L47.9094 25.5118
" />
<path d="M48.6351 24.6651
L48.7561 24.6651
" />
<path d="M48.7561 24.6651
L48.8770 24.7256
" />
<path d="M48.8770 24.7256
L48.9375 24.7861
" />
<path d="M48.9375 24.7861
L48.9980 24.9070
" />
<path d="M48.9980 24.9070
L49.0585 25.1489
" />
<path d="M49.0585 25.1489
L49.0585 25.4513
" />
<path d="M49.0585 25.4513
L48.9980 25.6932
" />
<path d="M48.9980 25.6932
L48.9375 25.8142
" />
<path d="M48.9375 25.8142
L48.8770 25.8747
" />
<path d="M48.8770 25.8747
L48.7561 25.9351
" />
<path d="M48.7561 25.9351
L48.6351 25.9351
" />
<path d="M48.6351 25.9351
L48.5142 25.8747
" />
<path d="M48.5142 25.8747
L48.4537 25.8142
" />
<path d="M48.4537 25.8142
L48.3932 25.6932
" />
<path d="M48.3932 25.6932
L48.3328 25.4513
" />
<path d="M48.3328 25.4513
L48.3328 25.1489
" />
<path d="M48.3328 25.1489
L48.3932 24.9070
" />
<path d="M48.3932 24.9070
L48.4537 24.7861
" />
<path d="M48.4537 24.7861
L48.5142 24.7256
" />
<path d="M48.5142 24.7256
L48.6351 24.6651
" />
<path d="M50.2075 24.6651
L49.6027 24.6651
" />
<path d="M49.6027 24.6651
L49.5423 25.2699
" />
<path d="M49.5423 25.2699
L49.6027 25.2094
" />
<path d="M49.6027 25.2094
L49.7237 25.1489
" />
<path d="M49.7237 25.1489
L50.0261 25.1489
" />
<path d="M50.0261 25.1489
L50.1470 25.2094
" />
<path d="M50.1470 25.2094
L50.2075 25.2699
" />
<path d="M50.2075 25.2699
L50.2680 25.3908
" />
<path d="M50.2680 25.3908
L50.2680 25.6932
" />
<path d="M50.2680 25.6932
L50.2075 25.8142
" />
<path d="M50.2075 25.8142
L50.1470 25.8747
" />
<path d="M50.1470 25.8747
L50.0261 25.9351
" />
<path d="M50.0261 25.9351
L49.7237 25.9351
" />
<path d="M49.7237 25.9351
L49.6027 25.8747
" />
<path d="M49.6027 25.8747
L49.5423 25.8142
" />
<path d="M51.4775 25.9351
L50.7518 25.9351
" />
<path d="M51.1146 25.9351
L51.1146 24.6651
" />
<path d="M51.1146 24.6651
L50.9937 24.8466
" />
<path d="M50.9937 24.8466
L50.8727 24.9675
" />
<path d="M50.8727 24.9675
L50.7518 25.0280
" />
<path d="M52.0217 25.8142
L52.0822 25.8747
" />
<path d="M52.0822 25.8747
L52.0217 25.9351
" />
<path d="M52.0217 25.9351
L51.9613 25.8747
" />
<path d="M51.9613 25.8747
L52.0217 25.8142
" />
<path d="M52.0217 25.8142
L52.0217 25.9351
" />
<path d="M52.6265 25.0885
L52.6265 26.3585
" />
<path d="M52.6265 25.1489
L52.7475 25.0885
" />
<path d="M52.7475 25.0885
L52.9894 25.0885
" />
<path d="M52.9894 25.0885
L53.1103 25.1489
" />
<path d="M53.1103 25.1489
L53.1708 25.2094
" />
<path d="M53.1708 25.2094
L53.2313 25.3304
" />
<path d="M53.2313 25.3304
L53.2313 25.6932
" />
<path d="M53.2313 25.6932
L53.1708 25.8142
" />
<path d="M53.1708 25.8142
L53.1103 25.8747
" />
<path d="M53.1103 25.8747
L52.9894 25.9351
" />
<path d="M52.9894 25.9351
L52.7475 25.9351
" />
<path d="M52.7475 25.9351
L52.6265 25.8747
" />
<path d="M54.3198 25.9351
L54.3198 24.6651
" />
<path d="M54.3198 25.8747
L54.1989 25.9351
" />
<path d="M54.1989 25.9351
L53.9570 25.9351
" />
<path d="M53.9570 25.9351
L53.8360 25.8747
" />
<path d="M53.8360 25.8747
L53.7755 25.8142
" />
<path d="M53.7755 25.8142
L53.7151 25.6932
" />
<path d="M53.7151 25.6932
L53.7151 25.3304
" />
<path d="M53.7151 25.3304
L53.7755 25.2094
" />
<path d="M53.7755 25.2094
L53.8360 25.1489
" />
<path d="M53.8360 25.1489
L53.9570 25.0885
" />
<path d="M53.9570 25.0885
L54.1989 25.0885
" />
<path d="M54.1989 25.0885
L54.3198 25.1489
" />
<path d="M54.7431 25.0885
L55.2269 25.0885
" />
<path d="M54.9245 25.9351
L54.9245 24.8466
" />
<path d="M54.9245 24.8466
L54.9850 24.7256
" />
<path d="M54.9850 24.7256
L55.1060 24.6651
" />
<path d="M55.1060 24.6651
L55.2269 24.6651
" />
</g></g> 
</svg>
