<?xml version="1.0" standalone="no"?>
 <!DOCTYPE svg PUBLIC "-//W3C//DTD SVG 1.1//EN" 
 "http://www.w3.org/Graphics/SVG/1.1/DTD/svg11.dtd"> 
<svg
  xmlns:svg="http://www.w3.org/2000/svg"
  xmlns="http://www.w3.org/2000/svg"
  xmlns:xlink="http://www.w3.org/1999/xlink"
  version="1.1"
  width="88.6460mm" height="39.0906mm" viewBox="0.0000 0.0000 88.6460 39.0906">
<title>SVG Image created as working.svg date 2023/08/01 08:53:56 </title>
  <desc>Image generated by Eeschema-SVG </desc>
<g style="fill:#000000; fill-opacity:1.0000;stroke:#000000; stroke-opacity:1.0000;
stroke-linecap:round; stroke-linejoin:round;"
 transform="translate(0 0) scale(1 1)">
</g>
<g style="fill:#840000; fill-opacity:0.0; 
stroke:#840000; stroke-width:0.0000; stroke-opacity:1; 
stroke-linecap:round; stroke-linejoin:round;">
</g>
<g style="fill:#FFFFC2; fill-opacity:0.0; 
stroke:#FFFFC2; stroke-width:0.0000; stroke-opacity:1; 
stroke-linecap:round; stroke-linejoin:round;">
</g>
<g style="fill:#FFFFC2; fill-opacity:1.0000; 
stroke:#FFFFC2; stroke-width:0.0000; stroke-opacity:1; 
stroke-linecap:round; stroke-linejoin:round;">
<rect x="34.157600" y="12.981800" width="20.320000" height="20.320000" rx="0.000000" />
</g>
<g style="fill:#840084; fill-opacity:1.0000; 
stroke:#840084; stroke-width:0.0000; stroke-opacity:1; 
stroke-linecap:round; stroke-linejoin:round;">
</g>
<g style="fill:#840000; fill-opacity:1.0000; 
stroke:#840000; stroke-width:0.0000; stroke-opacity:1; 
stroke-linecap:round; stroke-linejoin:round;">
</g>
<g style="fill:#840000; fill-opacity:0.0; 
stroke:#840000; stroke-width:0.2540; stroke-opacity:1; 
stroke-linecap:round; stroke-linejoin:round;">
<rect x="34.157600" y="12.981800" width="20.320000" height="20.320000" rx="0.000000" />
</g>
<g style="fill:#840000; fill-opacity:0.0; 
stroke:#840000; stroke-width:0.1524; stroke-opacity:1; 
stroke-linecap:round; stroke-linejoin:round;">
<path d="M34.1576 15.5218
L31.6176 15.5218
" />
</g>
<g style="fill:#006464; fill-opacity:0.0; 
stroke:#006464; stroke-width:0.1524; stroke-opacity:1; 
stroke-linecap:round; stroke-linejoin:round;">
<text x="34.6656" y="16.1568"
textLength="2.0623" font-size="1.6933" lengthAdjust="spacingAndGlyphs"
text-anchor="start" opacity="0">IN</text>
<g class="stroked-text"><desc>IN</desc>
<path d="M34.9679 16.1093
L34.9679 14.8393
" />
<path d="M35.5727 16.1093
L35.5727 14.8393
" />
<path d="M35.5727 14.8393
L36.2984 16.1093
" />
<path d="M36.2984 16.1093
L36.2984 14.8393
" />
</g></g>
<g style="fill:#A90000; fill-opacity:0.0; 
stroke:#A90000; stroke-width:0.1524; stroke-opacity:1; 
stroke-linecap:round; stroke-linejoin:round;">
<text x="32.8876" y="15.2678"
textLength="1.3365" font-size="1.6933" lengthAdjust="spacingAndGlyphs"
text-anchor="middle" opacity="0">1</text>
<g class="stroked-text"><desc>1</desc>
<path d="M33.2505 15.1123
L32.5248 15.1123
" />
<path d="M32.8876 15.1123
L32.8876 13.8423
" />
<path d="M32.8876 13.8423
L32.7667 14.0238
" />
<path d="M32.7667 14.0238
L32.6457 14.1447
" />
<path d="M32.6457 14.1447
L32.5248 14.2052
" />
</g></g>
<g style="fill:#840000; fill-opacity:0.0; 
stroke:#840000; stroke-width:0.1524; stroke-opacity:1; 
stroke-linecap:round; stroke-linejoin:round;">
<path d="M54.4776 15.5218
L57.0176 15.5218
" />
</g>
<g style="fill:#006464; fill-opacity:0.0; 
stroke:#006464; stroke-width:0.1524; stroke-opacity:1; 
stroke-linecap:round; stroke-linejoin:round;">
<text x="53.9696" y="16.1568"
textLength="3.7556" font-size="1.6933" lengthAdjust="spacingAndGlyphs"
text-anchor="end" opacity="0">OUT</text>
<g class="stroked-text"><desc>OUT</desc>
<path d="M50.8852 14.8393
L51.1271 14.8393
" />
<path d="M51.1271 14.8393
L51.2481 14.8998
" />
<path d="M51.2481 14.8998
L51.3690 15.0208
" />
<path d="M51.3690 15.0208
L51.4295 15.2627
" />
<path d="M51.4295 15.2627
L51.4295 15.6860
" />
<path d="M51.4295 15.6860
L51.3690 15.9279
" />
<path d="M51.3690 15.9279
L51.2481 16.0489
" />
<path d="M51.2481 16.0489
L51.1271 16.1093
" />
<path d="M51.1271 16.1093
L50.8852 16.1093
" />
<path d="M50.8852 16.1093
L50.7643 16.0489
" />
<path d="M50.7643 16.0489
L50.6433 15.9279
" />
<path d="M50.6433 15.9279
L50.5829 15.6860
" />
<path d="M50.5829 15.6860
L50.5829 15.2627
" />
<path d="M50.5829 15.2627
L50.6433 15.0208
" />
<path d="M50.6433 15.0208
L50.7643 14.8998
" />
<path d="M50.7643 14.8998
L50.8852 14.8393
" />
<path d="M51.9738 14.8393
L51.9738 15.8674
" />
<path d="M51.9738 15.8674
L52.0343 15.9884
" />
<path d="M52.0343 15.9884
L52.0948 16.0489
" />
<path d="M52.0948 16.0489
L52.2157 16.1093
" />
<path d="M52.2157 16.1093
L52.4576 16.1093
" />
<path d="M52.4576 16.1093
L52.5786 16.0489
" />
<path d="M52.5786 16.0489
L52.6391 15.9884
" />
<path d="M52.6391 15.9884
L52.6995 15.8674
" />
<path d="M52.6995 15.8674
L52.6995 14.8393
" />
<path d="M53.1229 14.8393
L53.8486 14.8393
" />
<path d="M53.4858 16.1093
L53.4858 14.8393
" />
</g></g>
<g style="fill:#A90000; fill-opacity:0.0; 
stroke:#A90000; stroke-width:0.1524; stroke-opacity:1; 
stroke-linecap:round; stroke-linejoin:round;">
<text x="55.7476" y="15.2678"
textLength="2.5460" font-size="1.6933" lengthAdjust="spacingAndGlyphs"
text-anchor="middle" opacity="0">10</text>
<g class="stroked-text"><desc>10</desc>
<path d="M55.5057 15.1123
L54.7800 15.1123
" />
<path d="M55.1428 15.1123
L55.1428 13.8423
" />
<path d="M55.1428 13.8423
L55.0219 14.0238
" />
<path d="M55.0219 14.0238
L54.9009 14.1447
" />
<path d="M54.9009 14.1447
L54.7800 14.2052
" />
<path d="M56.2918 13.8423
L56.4128 13.8423
" />
<path d="M56.4128 13.8423
L56.5337 13.9028
" />
<path d="M56.5337 13.9028
L56.5942 13.9633
" />
<path d="M56.5942 13.9633
L56.6547 14.0842
" />
<path d="M56.6547 14.0842
L56.7152 14.3261
" />
<path d="M56.7152 14.3261
L56.7152 14.6285
" />
<path d="M56.7152 14.6285
L56.6547 14.8704
" />
<path d="M56.6547 14.8704
L56.5942 14.9914
" />
<path d="M56.5942 14.9914
L56.5337 15.0519
" />
<path d="M56.5337 15.0519
L56.4128 15.1123
" />
<path d="M56.4128 15.1123
L56.2918 15.1123
" />
<path d="M56.2918 15.1123
L56.1709 15.0519
" />
<path d="M56.1709 15.0519
L56.1104 14.9914
" />
<path d="M56.1104 14.9914
L56.0499 14.8704
" />
<path d="M56.0499 14.8704
L55.9895 14.6285
" />
<path d="M55.9895 14.6285
L55.9895 14.3261
" />
<path d="M55.9895 14.3261
L56.0499 14.0842
" />
<path d="M56.0499 14.0842
L56.1104 13.9633
" />
<path d="M56.1104 13.9633
L56.1709 13.9028
" />
<path d="M56.1709 13.9028
L56.2918 13.8423
" />
</g></g>
<g style="fill:#840000; fill-opacity:0.0; 
stroke:#840000; stroke-width:0.1524; stroke-opacity:1; 
stroke-linecap:round; stroke-linejoin:round;">
<path d="M34.1576 20.6018
L31.6176 20.6018
" />
</g>
<g style="fill:#006464; fill-opacity:0.0; 
stroke:#006464; stroke-width:0.1524; stroke-opacity:1; 
stroke-linecap:round; stroke-linejoin:round;">
<text x="34.6656" y="21.2368"
textLength="4.0579" font-size="1.6933" lengthAdjust="spacingAndGlyphs"
text-anchor="start" opacity="0">ISET</text>
<g class="stroked-text"><desc>ISET</desc>
<path d="M34.9679 21.1893
L34.9679 19.9193
" />
<path d="M35.5123 21.1289
L35.6937 21.1893
" />
<path d="M35.6937 21.1893
L35.9961 21.1893
" />
<path d="M35.9961 21.1893
L36.1170 21.1289
" />
<path d="M36.1170 21.1289
L36.1775 21.0684
" />
<path d="M36.1775 21.0684
L36.2380 20.9474
" />
<path d="M36.2380 20.9474
L36.2380 20.8265
" />
<path d="M36.2380 20.8265
L36.1775 20.7055
" />
<path d="M36.1775 20.7055
L36.1170 20.6450
" />
<path d="M36.1170 20.6450
L35.9961 20.5846
" />
<path d="M35.9961 20.5846
L35.7542 20.5241
" />
<path d="M35.7542 20.5241
L35.6332 20.4636
" />
<path d="M35.6332 20.4636
L35.5727 20.4031
" />
<path d="M35.5727 20.4031
L35.5123 20.2822
" />
<path d="M35.5123 20.2822
L35.5123 20.1612
" />
<path d="M35.5123 20.1612
L35.5727 20.0403
" />
<path d="M35.5727 20.0403
L35.6332 19.9798
" />
<path d="M35.6332 19.9798
L35.7542 19.9193
" />
<path d="M35.7542 19.9193
L36.0565 19.9193
" />
<path d="M36.0565 19.9193
L36.2380 19.9798
" />
<path d="M36.7822 20.5241
L37.2056 20.5241
" />
<path d="M37.3870 21.1893
L36.7822 21.1893
" />
<path d="M36.7822 21.1893
L36.7822 19.9193
" />
<path d="M36.7822 19.9193
L37.3870 19.9193
" />
<path d="M37.7498 19.9193
L38.4755 19.9193
" />
<path d="M38.1127 21.1893
L38.1127 19.9193
" />
</g></g>
<g style="fill:#A90000; fill-opacity:0.0; 
stroke:#A90000; stroke-width:0.1524; stroke-opacity:1; 
stroke-linecap:round; stroke-linejoin:round;">
<text x="32.8876" y="20.3478"
textLength="1.3365" font-size="1.6933" lengthAdjust="spacingAndGlyphs"
text-anchor="middle" opacity="0">2</text>
<g class="stroked-text"><desc>2</desc>
<path d="M32.5248 19.0433
L32.5852 18.9828
" />
<path d="M32.5852 18.9828
L32.7062 18.9223
" />
<path d="M32.7062 18.9223
L33.0086 18.9223
" />
<path d="M33.0086 18.9223
L33.1295 18.9828
" />
<path d="M33.1295 18.9828
L33.1900 19.0433
" />
<path d="M33.1900 19.0433
L33.2505 19.1642
" />
<path d="M33.2505 19.1642
L33.2505 19.2852
" />
<path d="M33.2505 19.2852
L33.1900 19.4666
" />
<path d="M33.1900 19.4666
L32.4643 20.1923
" />
<path d="M32.4643 20.1923
L33.2505 20.1923
" />
</g></g>
<g style="fill:#840000; fill-opacity:0.0; 
stroke:#840000; stroke-width:0.1524; stroke-opacity:1; 
stroke-linecap:round; stroke-linejoin:round;">
<path d="M44.3176 33.3018
L44.3176 35.8418
" />
</g>
<g style="fill:#006464; fill-opacity:0.0; 
stroke:#006464; stroke-width:0.1524; stroke-opacity:1; 
stroke-linecap:round; stroke-linejoin:round;">
<g transform="rotate(-90.000000 44.3176 32.7938)">
<text x="44.3176" y="33.4288"
textLength="3.6346" font-size="1.6933" lengthAdjust="spacingAndGlyphs"
text-anchor="start" opacity="0">VSS</text>
</g>
<g class="stroked-text"><desc>VSS</desc>
<path d="M43.6351 32.6728
L44.9051 32.2495
" />
<path d="M44.9051 32.2495
L43.6351 31.8261
" />
<path d="M44.8447 31.4632
L44.9051 31.2818
" />
<path d="M44.9051 31.2818
L44.9051 30.9794
" />
<path d="M44.9051 30.9794
L44.8447 30.8585
" />
<path d="M44.8447 30.8585
L44.7842 30.7980
" />
<path d="M44.7842 30.7980
L44.6632 30.7375
" />
<path d="M44.6632 30.7375
L44.5423 30.7375
" />
<path d="M44.5423 30.7375
L44.4213 30.7980
" />
<path d="M44.4213 30.7980
L44.3608 30.8585
" />
<path d="M44.3608 30.8585
L44.3004 30.9794
" />
<path d="M44.3004 30.9794
L44.2399 31.2213
" />
<path d="M44.2399 31.2213
L44.1794 31.3423
" />
<path d="M44.1794 31.3423
L44.1189 31.4028
" />
<path d="M44.1189 31.4028
L43.9980 31.4632
" />
<path d="M43.9980 31.4632
L43.8770 31.4632
" />
<path d="M43.8770 31.4632
L43.7561 31.4028
" />
<path d="M43.7561 31.4028
L43.6956 31.3423
" />
<path d="M43.6956 31.3423
L43.6351 31.2213
" />
<path d="M43.6351 31.2213
L43.6351 30.9190
" />
<path d="M43.6351 30.9190
L43.6956 30.7375
" />
<path d="M44.8447 30.2537
L44.9051 30.0723
" />
<path d="M44.9051 30.0723
L44.9051 29.7699
" />
<path d="M44.9051 29.7699
L44.8447 29.6490
" />
<path d="M44.8447 29.6490
L44.7842 29.5885
" />
<path d="M44.7842 29.5885
L44.6632 29.5280
" />
<path d="M44.6632 29.5280
L44.5423 29.5280
" />
<path d="M44.5423 29.5280
L44.4213 29.5885
" />
<path d="M44.4213 29.5885
L44.3608 29.6490
" />
<path d="M44.3608 29.6490
L44.3004 29.7699
" />
<path d="M44.3004 29.7699
L44.2399 30.0118
" />
<path d="M44.2399 30.0118
L44.1794 30.1328
" />
<path d="M44.1794 30.1328
L44.1189 30.1933
" />
<path d="M44.1189 30.1933
L43.9980 30.2537
" />
<path d="M43.9980 30.2537
L43.8770 30.2537
" />
<path d="M43.8770 30.2537
L43.7561 30.1933
" />
<path d="M43.7561 30.1933
L43.6956 30.1328
" />
<path d="M43.6956 30.1328
L43.6351 30.0118
" />
<path d="M43.6351 30.0118
L43.6351 29.7095
" />
<path d="M43.6351 29.7095
L43.6956 29.5280
" />
</g></g>
<g style="fill:#A90000; fill-opacity:0.0; 
stroke:#A90000; stroke-width:0.1524; stroke-opacity:1; 
stroke-linecap:round; stroke-linejoin:round;">
<g transform="rotate(-90.000000 44.0636 34.5718)">
<text x="44.0636" y="34.5718"
textLength="1.3365" font-size="1.6933" lengthAdjust="spacingAndGlyphs"
text-anchor="middle" opacity="0">3</text>
</g>
<g class="stroked-text"><desc>3</desc>
<path d="M42.6381 34.9950
L42.6381 34.2088
" />
<path d="M42.6381 34.2088
L43.1219 34.6322
" />
<path d="M43.1219 34.6322
L43.1219 34.4507
" />
<path d="M43.1219 34.4507
L43.1824 34.3298
" />
<path d="M43.1824 34.3298
L43.2429 34.2693
" />
<path d="M43.2429 34.2693
L43.3638 34.2088
" />
<path d="M43.3638 34.2088
L43.6662 34.2088
" />
<path d="M43.6662 34.2088
L43.7872 34.2693
" />
<path d="M43.7872 34.2693
L43.8477 34.3298
" />
<path d="M43.8477 34.3298
L43.9081 34.4507
" />
<path d="M43.9081 34.4507
L43.9081 34.8136
" />
<path d="M43.9081 34.8136
L43.8477 34.9345
" />
<path d="M43.8477 34.9345
L43.7872 34.9950
" />
</g></g>
<g style="fill:#840000; fill-opacity:0.0; 
stroke:#840000; stroke-width:0.1524; stroke-opacity:1; 
stroke-linecap:round; stroke-linejoin:round;">
<path d="M34.1576 30.7618
L31.6176 30.7618
" />
</g>
<g style="fill:#006464; fill-opacity:0.0; 
stroke:#006464; stroke-width:0.1524; stroke-opacity:1; 
stroke-linecap:round; stroke-linejoin:round;">
<text x="34.6656" y="31.3968"
textLength="8.6540" font-size="1.6933" lengthAdjust="spacingAndGlyphs"
text-anchor="start" opacity="0">PRETERM</text>
<g class="stroked-text"><desc>PRETERM</desc>
<path d="M34.9679 31.3493
L34.9679 30.0793
" />
<path d="M34.9679 30.0793
L35.4517 30.0793
" />
<path d="M35.4517 30.0793
L35.5727 30.1398
" />
<path d="M35.5727 30.1398
L35.6332 30.2003
" />
<path d="M35.6332 30.2003
L35.6936 30.3212
" />
<path d="M35.6936 30.3212
L35.6936 30.5027
" />
<path d="M35.6936 30.5027
L35.6332 30.6236
" />
<path d="M35.6332 30.6236
L35.5727 30.6841
" />
<path d="M35.5727 30.6841
L35.4517 30.7446
" />
<path d="M35.4517 30.7446
L34.9679 30.7446
" />
<path d="M36.9636 31.3493
L36.5403 30.7446
" />
<path d="M36.2379 31.3493
L36.2379 30.0793
" />
<path d="M36.2379 30.0793
L36.7217 30.0793
" />
<path d="M36.7217 30.0793
L36.8427 30.1398
" />
<path d="M36.8427 30.1398
L36.9032 30.2003
" />
<path d="M36.9032 30.2003
L36.9636 30.3212
" />
<path d="M36.9636 30.3212
L36.9636 30.5027
" />
<path d="M36.9636 30.5027
L36.9032 30.6236
" />
<path d="M36.9032 30.6236
L36.8427 30.6841
" />
<path d="M36.8427 30.6841
L36.7217 30.7446
" />
<path d="M36.7217 30.7446
L36.2379 30.7446
" />
<path d="M37.5079 30.6841
L37.9313 30.6841
" />
<path d="M38.1127 31.3493
L37.5079 31.3493
" />
<path d="M37.5079 31.3493
L37.5079 30.0793
" />
<path d="M37.5079 30.0793
L38.1127 30.0793
" />
<path d="M38.4755 30.0793
L39.2012 30.0793
" />
<path d="M38.8384 31.3493
L38.8384 30.0793
" />
<path d="M39.6245 30.6841
L40.0479 30.6841
" />
<path d="M40.2293 31.3493
L39.6245 31.3493
" />
<path d="M39.6245 31.3493
L39.6245 30.0793
" />
<path d="M39.6245 30.0793
L40.2293 30.0793
" />
<path d="M41.4992 31.3493
L41.0759 30.7446
" />
<path d="M40.7735 31.3493
L40.7735 30.0793
" />
<path d="M40.7735 30.0793
L41.2573 30.0793
" />
<path d="M41.2573 30.0793
L41.3783 30.1398
" />
<path d="M41.3783 30.1398
L41.4388 30.2003
" />
<path d="M41.4388 30.2003
L41.4992 30.3212
" />
<path d="M41.4992 30.3212
L41.4992 30.5027
" />
<path d="M41.4992 30.5027
L41.4388 30.6236
" />
<path d="M41.4388 30.6236
L41.3783 30.6841
" />
<path d="M41.3783 30.6841
L41.2573 30.7446
" />
<path d="M41.2573 30.7446
L40.7735 30.7446
" />
<path d="M42.0435 31.3493
L42.0435 30.0793
" />
<path d="M42.0435 30.0793
L42.4669 30.9865
" />
<path d="M42.4669 30.9865
L42.8902 30.0793
" />
<path d="M42.8902 30.0793
L42.8902 31.3493
" />
</g></g>
<g style="fill:#A90000; fill-opacity:0.0; 
stroke:#A90000; stroke-width:0.1524; stroke-opacity:1; 
stroke-linecap:round; stroke-linejoin:round;">
<text x="32.8876" y="30.5078"
textLength="1.3365" font-size="1.6933" lengthAdjust="spacingAndGlyphs"
text-anchor="middle" opacity="0">4</text>
<g class="stroked-text"><desc>4</desc>
<path d="M33.1295 29.5057
L33.1295 30.3523
" />
<path d="M32.8271 29.0219
L32.5248 29.9290
" />
<path d="M32.5248 29.9290
L33.3109 29.9290
" />
</g></g>
<g style="fill:#840000; fill-opacity:0.0; 
stroke:#840000; stroke-width:0.1524; stroke-opacity:1; 
stroke-linecap:round; stroke-linejoin:round;">
<path d="M54.4776 30.7618
L57.0176 30.7618
" />
</g>
<g style="fill:#006464; fill-opacity:0.0; 
stroke:#006464; stroke-width:0.1524; stroke-opacity:1; 
stroke-linecap:round; stroke-linejoin:round;">
<text x="53.9696" y="31.3968"
textLength="2.6670" font-size="1.6933" lengthAdjust="spacingAndGlyphs"
text-anchor="end" opacity="0">~{PG}</text>
<g class="stroked-text"><desc>~{PG}</desc>
<path d="M51.7319 31.3493
L51.7319 30.0793
" />
<path d="M51.7319 30.0793
L52.2157 30.0793
" />
<path d="M52.2157 30.0793
L52.3367 30.1398
" />
<path d="M52.3367 30.1398
L52.3972 30.2003
" />
<path d="M52.3972 30.2003
L52.4576 30.3212
" />
<path d="M52.4576 30.3212
L52.4576 30.5027
" />
<path d="M52.4576 30.5027
L52.3972 30.6236
" />
<path d="M52.3972 30.6236
L52.3367 30.6841
" />
<path d="M52.3367 30.6841
L52.2157 30.7446
" />
<path d="M52.2157 30.7446
L51.7319 30.7446
" />
<path d="M53.6672 30.1398
L53.5462 30.0793
" />
<path d="M53.5462 30.0793
L53.3648 30.0793
" />
<path d="M53.3648 30.0793
L53.1834 30.1398
" />
<path d="M53.1834 30.1398
L53.0624 30.2608
" />
<path d="M53.0624 30.2608
L53.0019 30.3817
" />
<path d="M53.0019 30.3817
L52.9415 30.6236
" />
<path d="M52.9415 30.6236
L52.9415 30.8050
" />
<path d="M52.9415 30.8050
L53.0019 31.0469
" />
<path d="M53.0019 31.0469
L53.0624 31.1679
" />
<path d="M53.0624 31.1679
L53.1834 31.2889
" />
<path d="M53.1834 31.2889
L53.3648 31.3493
" />
<path d="M53.3648 31.3493
L53.4857 31.3493
" />
<path d="M53.4857 31.3493
L53.6672 31.2889
" />
<path d="M53.6672 31.2889
L53.7276 31.2284
" />
<path d="M53.7276 31.2284
L53.7276 30.8050
" />
<path d="M53.7276 30.8050
L53.4857 30.8050
" />
<path d="M51.5566 29.5109
L53.8426 29.5109
" />
</g></g>
<g style="fill:#A90000; fill-opacity:0.0; 
stroke:#A90000; stroke-width:0.1524; stroke-opacity:1; 
stroke-linecap:round; stroke-linejoin:round;">
<text x="55.7476" y="30.5078"
textLength="1.3365" font-size="1.6933" lengthAdjust="spacingAndGlyphs"
text-anchor="middle" opacity="0">5</text>
<g class="stroked-text"><desc>5</desc>
<path d="M56.0500 29.0823
L55.4452 29.0823
" />
<path d="M55.4452 29.0823
L55.3848 29.6871
" />
<path d="M55.3848 29.6871
L55.4452 29.6266
" />
<path d="M55.4452 29.6266
L55.5662 29.5661
" />
<path d="M55.5662 29.5661
L55.8686 29.5661
" />
<path d="M55.8686 29.5661
L55.9895 29.6266
" />
<path d="M55.9895 29.6266
L56.0500 29.6871
" />
<path d="M56.0500 29.6871
L56.1105 29.8080
" />
<path d="M56.1105 29.8080
L56.1105 30.1104
" />
<path d="M56.1105 30.1104
L56.0500 30.2314
" />
<path d="M56.0500 30.2314
L55.9895 30.2919
" />
<path d="M55.9895 30.2919
L55.8686 30.3523
" />
<path d="M55.8686 30.3523
L55.5662 30.3523
" />
<path d="M55.5662 30.3523
L55.4452 30.2919
" />
<path d="M55.4452 30.2919
L55.3848 30.2314
" />
</g></g>
<g style="fill:#840000; fill-opacity:0.0; 
stroke:#840000; stroke-width:0.1524; stroke-opacity:1; 
stroke-linecap:round; stroke-linejoin:round;">
<path d="M34.1576 25.6818
L31.6176 25.6818
" />
</g>
<g style="fill:#006464; fill-opacity:0.0; 
stroke:#006464; stroke-width:0.1524; stroke-opacity:1; 
stroke-linecap:round; stroke-linejoin:round;">
<text x="34.6656" y="26.3168"
textLength="5.2674" font-size="1.6933" lengthAdjust="spacingAndGlyphs"
text-anchor="start" opacity="0">ISET2</text>
<g class="stroked-text"><desc>ISET2</desc>
<path d="M34.9679 26.2693
L34.9679 24.9993
" />
<path d="M35.5123 26.2089
L35.6937 26.2693
" />
<path d="M35.6937 26.2693
L35.9961 26.2693
" />
<path d="M35.9961 26.2693
L36.1170 26.2089
" />
<path d="M36.1170 26.2089
L36.1775 26.1484
" />
<path d="M36.1775 26.1484
L36.2380 26.0274
" />
<path d="M36.2380 26.0274
L36.2380 25.9065
" />
<path d="M36.2380 25.9065
L36.1775 25.7855
" />
<path d="M36.1775 25.7855
L36.1170 25.7250
" />
<path d="M36.1170 25.7250
L35.9961 25.6646
" />
<path d="M35.9961 25.6646
L35.7542 25.6041
" />
<path d="M35.7542 25.6041
L35.6332 25.5436
" />
<path d="M35.6332 25.5436
L35.5727 25.4831
" />
<path d="M35.5727 25.4831
L35.5123 25.3622
" />
<path d="M35.5123 25.3622
L35.5123 25.2412
" />
<path d="M35.5123 25.2412
L35.5727 25.1203
" />
<path d="M35.5727 25.1203
L35.6332 25.0598
" />
<path d="M35.6332 25.0598
L35.7542 24.9993
" />
<path d="M35.7542 24.9993
L36.0565 24.9993
" />
<path d="M36.0565 24.9993
L36.2380 25.0598
" />
<path d="M36.7822 25.6041
L37.2056 25.6041
" />
<path d="M37.3870 26.2693
L36.7822 26.2693
" />
<path d="M36.7822 26.2693
L36.7822 24.9993
" />
<path d="M36.7822 24.9993
L37.3870 24.9993
" />
<path d="M37.7498 24.9993
L38.4755 24.9993
" />
<path d="M38.1127 26.2693
L38.1127 24.9993
" />
<path d="M38.8384 25.1203
L38.8988 25.0598
" />
<path d="M38.8988 25.0598
L39.0198 24.9993
" />
<path d="M39.0198 24.9993
L39.3222 24.9993
" />
<path d="M39.3222 24.9993
L39.4431 25.0598
" />
<path d="M39.4431 25.0598
L39.5036 25.1203
" />
<path d="M39.5036 25.1203
L39.5641 25.2412
" />
<path d="M39.5641 25.2412
L39.5641 25.3622
" />
<path d="M39.5641 25.3622
L39.5036 25.5436
" />
<path d="M39.5036 25.5436
L38.7779 26.2693
" />
<path d="M38.7779 26.2693
L39.5641 26.2693
" />
</g></g>
<g style="fill:#A90000; fill-opacity:0.0; 
stroke:#A90000; stroke-width:0.1524; stroke-opacity:1; 
stroke-linecap:round; stroke-linejoin:round;">
<text x="32.8876" y="25.4278"
textLength="1.3365" font-size="1.6933" lengthAdjust="spacingAndGlyphs"
text-anchor="middle" opacity="0">7</text>
<g class="stroked-text"><desc>7</desc>
<path d="M32.4643 24.0023
L33.3109 24.0023
" />
<path d="M33.3109 24.0023
L32.7667 25.2723
" />
</g></g>
<g style="fill:#840000; fill-opacity:0.0; 
stroke:#840000; stroke-width:0.1524; stroke-opacity:1; 
stroke-linecap:round; stroke-linejoin:round;">
<path d="M54.4776 25.6818
L57.0176 25.6818
" />
</g>
<g style="fill:#006464; fill-opacity:0.0; 
stroke:#006464; stroke-width:0.1524; stroke-opacity:1; 
stroke-linecap:round; stroke-linejoin:round;">
<text x="53.9696" y="26.3168"
textLength="3.9975" font-size="1.6933" lengthAdjust="spacingAndGlyphs"
text-anchor="end" opacity="0">~{CHG}</text>
<g class="stroked-text"><desc>~{CHG}</desc>
<path d="M51.1271 26.1484
L51.0667 26.2089
" />
<path d="M51.0667 26.2089
L50.8852 26.2693
" />
<path d="M50.8852 26.2693
L50.7643 26.2693
" />
<path d="M50.7643 26.2693
L50.5829 26.2089
" />
<path d="M50.5829 26.2089
L50.4619 26.0879
" />
<path d="M50.4619 26.0879
L50.4014 25.9669
" />
<path d="M50.4014 25.9669
L50.3410 25.7250
" />
<path d="M50.3410 25.7250
L50.3410 25.5436
" />
<path d="M50.3410 25.5436
L50.4014 25.3017
" />
<path d="M50.4014 25.3017
L50.4619 25.1808
" />
<path d="M50.4619 25.1808
L50.5829 25.0598
" />
<path d="M50.5829 25.0598
L50.7643 24.9993
" />
<path d="M50.7643 24.9993
L50.8852 24.9993
" />
<path d="M50.8852 24.9993
L51.0667 25.0598
" />
<path d="M51.0667 25.0598
L51.1271 25.1203
" />
<path d="M51.6714 26.2693
L51.6714 24.9993
" />
<path d="M51.6714 25.6041
L52.3971 25.6041
" />
<path d="M52.3971 26.2693
L52.3971 24.9993
" />
<path d="M53.6672 25.0598
L53.5462 24.9993
" />
<path d="M53.5462 24.9993
L53.3648 24.9993
" />
<path d="M53.3648 24.9993
L53.1834 25.0598
" />
<path d="M53.1834 25.0598
L53.0624 25.1808
" />
<path d="M53.0624 25.1808
L53.0019 25.3017
" />
<path d="M53.0019 25.3017
L52.9415 25.5436
" />
<path d="M52.9415 25.5436
L52.9415 25.7250
" />
<path d="M52.9415 25.7250
L53.0019 25.9669
" />
<path d="M53.0019 25.9669
L53.0624 26.0879
" />
<path d="M53.0624 26.0879
L53.1834 26.2089
" />
<path d="M53.1834 26.2089
L53.3648 26.2693
" />
<path d="M53.3648 26.2693
L53.4857 26.2693
" />
<path d="M53.4857 26.2693
L53.6672 26.2089
" />
<path d="M53.6672 26.2089
L53.7276 26.1484
" />
<path d="M53.7276 26.1484
L53.7276 25.7250
" />
<path d="M53.7276 25.7250
L53.4857 25.7250
" />
<path d="M50.2261 24.4309
L53.8426 24.4309
" />
</g></g>
<g style="fill:#A90000; fill-opacity:0.0; 
stroke:#A90000; stroke-width:0.1524; stroke-opacity:1; 
stroke-linecap:round; stroke-linejoin:round;">
<text x="55.7476" y="25.4278"
textLength="1.3365" font-size="1.6933" lengthAdjust="spacingAndGlyphs"
text-anchor="middle" opacity="0">8</text>
<g class="stroked-text"><desc>8</desc>
<path d="M55.6267 24.5466
L55.5057 24.4861
" />
<path d="M55.5057 24.4861
L55.4452 24.4257
" />
<path d="M55.4452 24.4257
L55.3848 24.3047
" />
<path d="M55.3848 24.3047
L55.3848 24.2442
" />
<path d="M55.3848 24.2442
L55.4452 24.1233
" />
<path d="M55.4452 24.1233
L55.5057 24.0628
" />
<path d="M55.5057 24.0628
L55.6267 24.0023
" />
<path d="M55.6267 24.0023
L55.8686 24.0023
" />
<path d="M55.8686 24.0023
L55.9895 24.0628
" />
<path d="M55.9895 24.0628
L56.0500 24.1233
" />
<path d="M56.0500 24.1233
L56.1105 24.2442
" />
<path d="M56.1105 24.2442
L56.1105 24.3047
" />
<path d="M56.1105 24.3047
L56.0500 24.4257
" />
<path d="M56.0500 24.4257
L55.9895 24.4861
" />
<path d="M55.9895 24.4861
L55.8686 24.5466
" />
<path d="M55.8686 24.5466
L55.6267 24.5466
" />
<path d="M55.6267 24.5466
L55.5057 24.6071
" />
<path d="M55.5057 24.6071
L55.4452 24.6676
" />
<path d="M55.4452 24.6676
L55.3848 24.7885
" />
<path d="M55.3848 24.7885
L55.3848 25.0304
" />
<path d="M55.3848 25.0304
L55.4452 25.1514
" />
<path d="M55.4452 25.1514
L55.5057 25.2119
" />
<path d="M55.5057 25.2119
L55.6267 25.2723
" />
<path d="M55.6267 25.2723
L55.8686 25.2723
" />
<path d="M55.8686 25.2723
L55.9895 25.2119
" />
<path d="M55.9895 25.2119
L56.0500 25.1514
" />
<path d="M56.0500 25.1514
L56.1105 25.0304
" />
<path d="M56.1105 25.0304
L56.1105 24.7885
" />
<path d="M56.1105 24.7885
L56.0500 24.6676
" />
<path d="M56.0500 24.6676
L55.9895 24.6071
" />
<path d="M55.9895 24.6071
L55.8686 24.5466
" />
</g></g>
<g style="fill:#840000; fill-opacity:0.0; 
stroke:#840000; stroke-width:0.1524; stroke-opacity:1; 
stroke-linecap:round; stroke-linejoin:round;">
<path d="M54.4776 20.6018
L57.0176 20.6018
" />
</g>
<g style="fill:#006464; fill-opacity:0.0; 
stroke:#006464; stroke-width:0.1524; stroke-opacity:1; 
stroke-linecap:round; stroke-linejoin:round;">
<text x="53.9696" y="21.2368"
textLength="2.3041" font-size="1.6933" lengthAdjust="spacingAndGlyphs"
text-anchor="end" opacity="0">TS</text>
<g class="stroked-text"><desc>TS</desc>
<path d="M51.9134 19.9193
L52.6391 19.9193
" />
<path d="M52.2763 21.1893
L52.2763 19.9193
" />
<path d="M53.0020 21.1289
L53.1834 21.1893
" />
<path d="M53.1834 21.1893
L53.4858 21.1893
" />
<path d="M53.4858 21.1893
L53.6067 21.1289
" />
<path d="M53.6067 21.1289
L53.6672 21.0684
" />
<path d="M53.6672 21.0684
L53.7277 20.9474
" />
<path d="M53.7277 20.9474
L53.7277 20.8265
" />
<path d="M53.7277 20.8265
L53.6672 20.7055
" />
<path d="M53.6672 20.7055
L53.6067 20.6450
" />
<path d="M53.6067 20.6450
L53.4858 20.5846
" />
<path d="M53.4858 20.5846
L53.2439 20.5241
" />
<path d="M53.2439 20.5241
L53.1229 20.4636
" />
<path d="M53.1229 20.4636
L53.0624 20.4031
" />
<path d="M53.0624 20.4031
L53.0020 20.2822
" />
<path d="M53.0020 20.2822
L53.0020 20.1612
" />
<path d="M53.0020 20.1612
L53.0624 20.0403
" />
<path d="M53.0624 20.0403
L53.1229 19.9798
" />
<path d="M53.1229 19.9798
L53.2439 19.9193
" />
<path d="M53.2439 19.9193
L53.5462 19.9193
" />
<path d="M53.5462 19.9193
L53.7277 19.9798
" />
</g></g>
<g style="fill:#A90000; fill-opacity:0.0; 
stroke:#A90000; stroke-width:0.1524; stroke-opacity:1; 
stroke-linecap:round; stroke-linejoin:round;">
<text x="55.7476" y="20.3478"
textLength="1.3365" font-size="1.6933" lengthAdjust="spacingAndGlyphs"
text-anchor="middle" opacity="0">9</text>
<g class="stroked-text"><desc>9</desc>
<path d="M55.5057 20.1923
L55.7476 20.1923
" />
<path d="M55.7476 20.1923
L55.8686 20.1319
" />
<path d="M55.8686 20.1319
L55.9290 20.0714
" />
<path d="M55.9290 20.0714
L56.0500 19.8899
" />
<path d="M56.0500 19.8899
L56.1105 19.6480
" />
<path d="M56.1105 19.6480
L56.1105 19.1642
" />
<path d="M56.1105 19.1642
L56.0500 19.0433
" />
<path d="M56.0500 19.0433
L55.9895 18.9828
" />
<path d="M55.9895 18.9828
L55.8686 18.9223
" />
<path d="M55.8686 18.9223
L55.6267 18.9223
" />
<path d="M55.6267 18.9223
L55.5057 18.9828
" />
<path d="M55.5057 18.9828
L55.4452 19.0433
" />
<path d="M55.4452 19.0433
L55.3848 19.1642
" />
<path d="M55.3848 19.1642
L55.3848 19.4666
" />
<path d="M55.3848 19.4666
L55.4452 19.5876
" />
<path d="M55.4452 19.5876
L55.5057 19.6480
" />
<path d="M55.5057 19.6480
L55.6267 19.7085
" />
<path d="M55.6267 19.7085
L55.8686 19.7085
" />
<path d="M55.8686 19.7085
L55.9895 19.6480
" />
<path d="M55.9895 19.6480
L56.0500 19.5876
" />
<path d="M56.0500 19.5876
L56.1105 19.4666
" />
</g></g>
<g style="fill:#840084; fill-opacity:0.0; 
stroke:#840084; stroke-width:0.1524; stroke-opacity:1; 
stroke-linecap:round; stroke-linejoin:round;">
</g>
<g style="fill:#006464; fill-opacity:0.0; 
stroke:#006464; stroke-width:0.1524; stroke-opacity:1; 
stroke-linecap:round; stroke-linejoin:round;">
</g>
<g style="fill:#006464; fill-opacity:0.0; 
stroke:#006464; stroke-width:0.1588; stroke-opacity:1; 
stroke-linecap:round; stroke-linejoin:round;">
<text x="34.9196" y="10.3148"
textLength="2.5621" font-size="1.6933" lengthAdjust="spacingAndGlyphs"
text-anchor="middle" opacity="0">U?</text>
<g class="stroked-text"><desc>U?</desc>
<path d="M34.0124 8.9973
L34.0124 10.0254
" />
<path d="M34.0124 10.0254
L34.0729 10.1464
" />
<path d="M34.0729 10.1464
L34.1334 10.2069
" />
<path d="M34.1334 10.2069
L34.2543 10.2673
" />
<path d="M34.2543 10.2673
L34.4962 10.2673
" />
<path d="M34.4962 10.2673
L34.6172 10.2069
" />
<path d="M34.6172 10.2069
L34.6777 10.1464
" />
<path d="M34.6777 10.1464
L34.7381 10.0254
" />
<path d="M34.7381 10.0254
L34.7381 8.9973
" />
<path d="M35.5244 10.1464
L35.5848 10.2069
" />
<path d="M35.5848 10.2069
L35.5244 10.2673
" />
<path d="M35.5244 10.2673
L35.4639 10.2069
" />
<path d="M35.4639 10.2069
L35.5244 10.1464
" />
<path d="M35.5244 10.1464
L35.5244 10.2673
" />
<path d="M35.2825 9.0578
L35.4034 8.9973
" />
<path d="M35.4034 8.9973
L35.7058 8.9973
" />
<path d="M35.7058 8.9973
L35.8267 9.0578
" />
<path d="M35.8267 9.0578
L35.8872 9.1788
" />
<path d="M35.8872 9.1788
L35.8872 9.2997
" />
<path d="M35.8872 9.2997
L35.8267 9.4207
" />
<path d="M35.8267 9.4207
L35.7663 9.4811
" />
<path d="M35.7663 9.4811
L35.6453 9.5416
" />
<path d="M35.6453 9.5416
L35.5848 9.6021
" />
<path d="M35.5848 9.6021
L35.5244 9.7230
" />
<path d="M35.5244 9.7230
L35.5244 9.7835
" />
</g><text x="40.5076" y="12.3468"
textLength="12.6615" font-size="1.6933" lengthAdjust="spacingAndGlyphs"
text-anchor="middle" opacity="0">BQ24090DGQ</text>
<g class="stroked-text"><desc>BQ24090DGQ</desc>
<path d="M34.9741 11.6341
L35.1555 11.6946
" />
<path d="M35.1555 11.6946
L35.2160 11.7550
" />
<path d="M35.2160 11.7550
L35.2764 11.8760
" />
<path d="M35.2764 11.8760
L35.2764 12.0574
" />
<path d="M35.2764 12.0574
L35.2160 12.1784
" />
<path d="M35.2160 12.1784
L35.1555 12.2389
" />
<path d="M35.1555 12.2389
L35.0345 12.2993
" />
<path d="M35.0345 12.2993
L34.5507 12.2993
" />
<path d="M34.5507 12.2993
L34.5507 11.0293
" />
<path d="M34.5507 11.0293
L34.9741 11.0293
" />
<path d="M34.9741 11.0293
L35.0950 11.0898
" />
<path d="M35.0950 11.0898
L35.1555 11.1503
" />
<path d="M35.1555 11.1503
L35.2160 11.2712
" />
<path d="M35.2160 11.2712
L35.2160 11.3922
" />
<path d="M35.2160 11.3922
L35.1555 11.5131
" />
<path d="M35.1555 11.5131
L35.0950 11.5736
" />
<path d="M35.0950 11.5736
L34.9741 11.6341
" />
<path d="M34.9741 11.6341
L34.5507 11.6341
" />
<path d="M36.6674 12.4203
L36.5464 12.3598
" />
<path d="M36.5464 12.3598
L36.4255 12.2389
" />
<path d="M36.4255 12.2389
L36.2441 12.0574
" />
<path d="M36.2441 12.0574
L36.1231 11.9969
" />
<path d="M36.1231 11.9969
L36.0022 11.9969
" />
<path d="M36.0626 12.2993
L35.9417 12.2389
" />
<path d="M35.9417 12.2389
L35.8207 12.1179
" />
<path d="M35.8207 12.1179
L35.7603 11.8760
" />
<path d="M35.7603 11.8760
L35.7603 11.4527
" />
<path d="M35.7603 11.4527
L35.8207 11.2108
" />
<path d="M35.8207 11.2108
L35.9417 11.0898
" />
<path d="M35.9417 11.0898
L36.0626 11.0293
" />
<path d="M36.0626 11.0293
L36.3045 11.0293
" />
<path d="M36.3045 11.0293
L36.4255 11.0898
" />
<path d="M36.4255 11.0898
L36.5464 11.2108
" />
<path d="M36.5464 11.2108
L36.6069 11.4527
" />
<path d="M36.6069 11.4527
L36.6069 11.8760
" />
<path d="M36.6069 11.8760
L36.5464 12.1179
" />
<path d="M36.5464 12.1179
L36.4255 12.2389
" />
<path d="M36.4255 12.2389
L36.3045 12.2993
" />
<path d="M36.3045 12.2993
L36.0626 12.2993
" />
<path d="M37.0908 11.1503
L37.1512 11.0898
" />
<path d="M37.1512 11.0898
L37.2722 11.0293
" />
<path d="M37.2722 11.0293
L37.5746 11.0293
" />
<path d="M37.5746 11.0293
L37.6955 11.0898
" />
<path d="M37.6955 11.0898
L37.7560 11.1503
" />
<path d="M37.7560 11.1503
L37.8165 11.2712
" />
<path d="M37.8165 11.2712
L37.8165 11.3922
" />
<path d="M37.8165 11.3922
L37.7560 11.5736
" />
<path d="M37.7560 11.5736
L37.0303 12.2993
" />
<path d="M37.0303 12.2993
L37.8165 12.2993
" />
<path d="M38.9050 11.4527
L38.9050 12.2993
" />
<path d="M38.6026 10.9689
L38.3003 11.8760
" />
<path d="M38.3003 11.8760
L39.0864 11.8760
" />
<path d="M39.8121 11.0293
L39.9331 11.0293
" />
<path d="M39.9331 11.0293
L40.0540 11.0898
" />
<path d="M40.0540 11.0898
L40.1145 11.1503
" />
<path d="M40.1145 11.1503
L40.1750 11.2712
" />
<path d="M40.1750 11.2712
L40.2355 11.5131
" />
<path d="M40.2355 11.5131
L40.2355 11.8155
" />
<path d="M40.2355 11.8155
L40.1750 12.0574
" />
<path d="M40.1750 12.0574
L40.1145 12.1784
" />
<path d="M40.1145 12.1784
L40.0540 12.2389
" />
<path d="M40.0540 12.2389
L39.9331 12.2993
" />
<path d="M39.9331 12.2993
L39.8121 12.2993
" />
<path d="M39.8121 12.2993
L39.6912 12.2389
" />
<path d="M39.6912 12.2389
L39.6307 12.1784
" />
<path d="M39.6307 12.1784
L39.5702 12.0574
" />
<path d="M39.5702 12.0574
L39.5098 11.8155
" />
<path d="M39.5098 11.8155
L39.5098 11.5131
" />
<path d="M39.5098 11.5131
L39.5702 11.2712
" />
<path d="M39.5702 11.2712
L39.6307 11.1503
" />
<path d="M39.6307 11.1503
L39.6912 11.0898
" />
<path d="M39.6912 11.0898
L39.8121 11.0293
" />
<path d="M40.8402 12.2993
L41.0821 12.2993
" />
<path d="M41.0821 12.2993
L41.2031 12.2389
" />
<path d="M41.2031 12.2389
L41.2635 12.1784
" />
<path d="M41.2635 12.1784
L41.3845 11.9969
" />
<path d="M41.3845 11.9969
L41.4450 11.7550
" />
<path d="M41.4450 11.7550
L41.4450 11.2712
" />
<path d="M41.4450 11.2712
L41.3845 11.1503
" />
<path d="M41.3845 11.1503
L41.3240 11.0898
" />
<path d="M41.3240 11.0898
L41.2031 11.0293
" />
<path d="M41.2031 11.0293
L40.9612 11.0293
" />
<path d="M40.9612 11.0293
L40.8402 11.0898
" />
<path d="M40.8402 11.0898
L40.7797 11.1503
" />
<path d="M40.7797 11.1503
L40.7193 11.2712
" />
<path d="M40.7193 11.2712
L40.7193 11.5736
" />
<path d="M40.7193 11.5736
L40.7797 11.6946
" />
<path d="M40.7797 11.6946
L40.8402 11.7550
" />
<path d="M40.8402 11.7550
L40.9612 11.8155
" />
<path d="M40.9612 11.8155
L41.2031 11.8155
" />
<path d="M41.2031 11.8155
L41.3240 11.7550
" />
<path d="M41.3240 11.7550
L41.3845 11.6946
" />
<path d="M41.3845 11.6946
L41.4450 11.5736
" />
<path d="M42.2311 11.0293
L42.3521 11.0293
" />
<path d="M42.3521 11.0293
L42.4730 11.0898
" />
<path d="M42.4730 11.0898
L42.5335 11.1503
" />
<path d="M42.5335 11.1503
L42.5940 11.2712
" />
<path d="M42.5940 11.2712
L42.6545 11.5131
" />
<path d="M42.6545 11.5131
L42.6545 11.8155
" />
<path d="M42.6545 11.8155
L42.5940 12.0574
" />
<path d="M42.5940 12.0574
L42.5335 12.1784
" />
<path d="M42.5335 12.1784
L42.4730 12.2389
" />
<path d="M42.4730 12.2389
L42.3521 12.2993
" />
<path d="M42.3521 12.2993
L42.2311 12.2993
" />
<path d="M42.2311 12.2993
L42.1102 12.2389
" />
<path d="M42.1102 12.2389
L42.0497 12.1784
" />
<path d="M42.0497 12.1784
L41.9892 12.0574
" />
<path d="M41.9892 12.0574
L41.9288 11.8155
" />
<path d="M41.9288 11.8155
L41.9288 11.5131
" />
<path d="M41.9288 11.5131
L41.9892 11.2712
" />
<path d="M41.9892 11.2712
L42.0497 11.1503
" />
<path d="M42.0497 11.1503
L42.1102 11.0898
" />
<path d="M42.1102 11.0898
L42.2311 11.0293
" />
<path d="M43.1987 12.2993
L43.1987 11.0293
" />
<path d="M43.1987 11.0293
L43.5011 11.0293
" />
<path d="M43.5011 11.0293
L43.6825 11.0898
" />
<path d="M43.6825 11.0898
L43.8035 11.2108
" />
<path d="M43.8035 11.2108
L43.8640 11.3317
" />
<path d="M43.8640 11.3317
L43.9244 11.5736
" />
<path d="M43.9244 11.5736
L43.9244 11.7550
" />
<path d="M43.9244 11.7550
L43.8640 11.9969
" />
<path d="M43.8640 11.9969
L43.8035 12.1179
" />
<path d="M43.8035 12.1179
L43.6825 12.2389
" />
<path d="M43.6825 12.2389
L43.5011 12.2993
" />
<path d="M43.5011 12.2993
L43.1987 12.2993
" />
<path d="M45.1340 11.0898
L45.0130 11.0293
" />
<path d="M45.0130 11.0293
L44.8316 11.0293
" />
<path d="M44.8316 11.0293
L44.6502 11.0898
" />
<path d="M44.6502 11.0898
L44.5292 11.2108
" />
<path d="M44.5292 11.2108
L44.4687 11.3317
" />
<path d="M44.4687 11.3317
L44.4083 11.5736
" />
<path d="M44.4083 11.5736
L44.4083 11.7550
" />
<path d="M44.4083 11.7550
L44.4687 11.9969
" />
<path d="M44.4687 11.9969
L44.5292 12.1179
" />
<path d="M44.5292 12.1179
L44.6502 12.2389
" />
<path d="M44.6502 12.2389
L44.8316 12.2993
" />
<path d="M44.8316 12.2993
L44.9525 12.2993
" />
<path d="M44.9525 12.2993
L45.1340 12.2389
" />
<path d="M45.1340 12.2389
L45.1944 12.1784
" />
<path d="M45.1944 12.1784
L45.1944 11.7550
" />
<path d="M45.1944 11.7550
L44.9525 11.7550
" />
<path d="M46.5854 12.4203
L46.4644 12.3598
" />
<path d="M46.4644 12.3598
L46.3435 12.2389
" />
<path d="M46.3435 12.2389
L46.1621 12.0574
" />
<path d="M46.1621 12.0574
L46.0411 11.9969
" />
<path d="M46.0411 11.9969
L45.9202 11.9969
" />
<path d="M45.9806 12.2993
L45.8597 12.2389
" />
<path d="M45.8597 12.2389
L45.7387 12.1179
" />
<path d="M45.7387 12.1179
L45.6783 11.8760
" />
<path d="M45.6783 11.8760
L45.6783 11.4527
" />
<path d="M45.6783 11.4527
L45.7387 11.2108
" />
<path d="M45.7387 11.2108
L45.8597 11.0898
" />
<path d="M45.8597 11.0898
L45.9806 11.0293
" />
<path d="M45.9806 11.0293
L46.2225 11.0293
" />
<path d="M46.2225 11.0293
L46.3435 11.0898
" />
<path d="M46.3435 11.0898
L46.4644 11.2108
" />
<path d="M46.4644 11.2108
L46.5249 11.4527
" />
<path d="M46.5249 11.4527
L46.5249 11.8760
" />
<path d="M46.5249 11.8760
L46.4644 12.1179
" />
<path d="M46.4644 12.1179
L46.3435 12.2389
" />
<path d="M46.3435 12.2389
L46.2225 12.2993
" />
<path d="M46.2225 12.2993
L45.9806 12.2993
" />
</g></g>
<g style="fill:#840084; fill-opacity:0.0; 
stroke:#840084; stroke-width:0.1588; stroke-opacity:1; 
stroke-linecap:round; stroke-linejoin:round;">
<text x="44.3176" y="23.7768"
textLength="73.8628" font-size="1.6933" lengthAdjust="spacingAndGlyphs"
text-anchor="middle" opacity="0">Package_SO:HVSSOP-10-1EP_3x3mm_P0.5mm_EP1.57x1.88mm_ThermalVias</text>
<g class="stroked-text"><desc>Package_SO:HVSSOP-10-1EP_3x3mm_P0.5mm_EP1.57x1.88mm_ThermalVias</desc>
<path d="M7.7600 23.7293
L7.7600 22.4593
" />
<path d="M7.7600 22.4593
L8.2438 22.4593
" />
<path d="M8.2438 22.4593
L8.3648 22.5198
" />
<path d="M8.3648 22.5198
L8.4253 22.5803
" />
<path d="M8.4253 22.5803
L8.4857 22.7012
" />
<path d="M8.4857 22.7012
L8.4857 22.8827
" />
<path d="M8.4857 22.8827
L8.4253 23.0036
" />
<path d="M8.4253 23.0036
L8.3648 23.0641
" />
<path d="M8.3648 23.0641
L8.2438 23.1246
" />
<path d="M8.2438 23.1246
L7.7600 23.1246
" />
<path d="M9.5743 23.7293
L9.5743 23.0641
" />
<path d="M9.5743 23.0641
L9.5138 22.9431
" />
<path d="M9.5138 22.9431
L9.3929 22.8827
" />
<path d="M9.3929 22.8827
L9.1510 22.8827
" />
<path d="M9.1510 22.8827
L9.0300 22.9431
" />
<path d="M9.5743 23.6689
L9.4534 23.7293
" />
<path d="M9.4534 23.7293
L9.1510 23.7293
" />
<path d="M9.1510 23.7293
L9.0300 23.6689
" />
<path d="M9.0300 23.6689
L8.9696 23.5479
" />
<path d="M8.9696 23.5479
L8.9696 23.4269
" />
<path d="M8.9696 23.4269
L9.0300 23.3060
" />
<path d="M9.0300 23.3060
L9.1510 23.2455
" />
<path d="M9.1510 23.2455
L9.4534 23.2455
" />
<path d="M9.4534 23.2455
L9.5743 23.1850
" />
<path d="M10.7233 23.6689
L10.6024 23.7293
" />
<path d="M10.6024 23.7293
L10.3605 23.7293
" />
<path d="M10.3605 23.7293
L10.2395 23.6689
" />
<path d="M10.2395 23.6689
L10.1790 23.6084
" />
<path d="M10.1790 23.6084
L10.1186 23.4874
" />
<path d="M10.1186 23.4874
L10.1186 23.1246
" />
<path d="M10.1186 23.1246
L10.1790 23.0036
" />
<path d="M10.1790 23.0036
L10.2395 22.9431
" />
<path d="M10.2395 22.9431
L10.3605 22.8827
" />
<path d="M10.3605 22.8827
L10.6024 22.8827
" />
<path d="M10.6024 22.8827
L10.7233 22.9431
" />
<path d="M11.2676 23.7293
L11.2676 22.4593
" />
<path d="M11.3886 23.2455
L11.7514 23.7293
" />
<path d="M11.7514 22.8827
L11.2676 23.3665
" />
<path d="M12.8400 23.7293
L12.8400 23.0641
" />
<path d="M12.8400 23.0641
L12.7795 22.9431
" />
<path d="M12.7795 22.9431
L12.6586 22.8827
" />
<path d="M12.6586 22.8827
L12.4167 22.8827
" />
<path d="M12.4167 22.8827
L12.2957 22.9431
" />
<path d="M12.8400 23.6689
L12.7191 23.7293
" />
<path d="M12.7191 23.7293
L12.4167 23.7293
" />
<path d="M12.4167 23.7293
L12.2957 23.6689
" />
<path d="M12.2957 23.6689
L12.2353 23.5479
" />
<path d="M12.2353 23.5479
L12.2353 23.4269
" />
<path d="M12.2353 23.4269
L12.2957 23.3060
" />
<path d="M12.2957 23.3060
L12.4167 23.2455
" />
<path d="M12.4167 23.2455
L12.7191 23.2455
" />
<path d="M12.7191 23.2455
L12.8400 23.1850
" />
<path d="M13.9890 22.8827
L13.9890 23.9108
" />
<path d="M13.9890 23.9108
L13.9285 24.0317
" />
<path d="M13.9285 24.0317
L13.8681 24.0922
" />
<path d="M13.8681 24.0922
L13.7471 24.1527
" />
<path d="M13.7471 24.1527
L13.5657 24.1527
" />
<path d="M13.5657 24.1527
L13.4447 24.0922
" />
<path d="M13.9890 23.6689
L13.8681 23.7293
" />
<path d="M13.8681 23.7293
L13.6262 23.7293
" />
<path d="M13.6262 23.7293
L13.5052 23.6689
" />
<path d="M13.5052 23.6689
L13.4447 23.6084
" />
<path d="M13.4447 23.6084
L13.3843 23.4874
" />
<path d="M13.3843 23.4874
L13.3843 23.1246
" />
<path d="M13.3843 23.1246
L13.4447 23.0036
" />
<path d="M13.4447 23.0036
L13.5052 22.9431
" />
<path d="M13.5052 22.9431
L13.6262 22.8827
" />
<path d="M13.6262 22.8827
L13.8681 22.8827
" />
<path d="M13.8681 22.8827
L13.9890 22.9431
" />
<path d="M15.0775 23.6689
L14.9566 23.7293
" />
<path d="M14.9566 23.7293
L14.7147 23.7293
" />
<path d="M14.7147 23.7293
L14.5937 23.6689
" />
<path d="M14.5937 23.6689
L14.5333 23.5479
" />
<path d="M14.5333 23.5479
L14.5333 23.0641
" />
<path d="M14.5333 23.0641
L14.5937 22.9431
" />
<path d="M14.5937 22.9431
L14.7147 22.8827
" />
<path d="M14.7147 22.8827
L14.9566 22.8827
" />
<path d="M14.9566 22.8827
L15.0775 22.9431
" />
<path d="M15.0775 22.9431
L15.1380 23.0641
" />
<path d="M15.1380 23.0641
L15.1380 23.1850
" />
<path d="M15.1380 23.1850
L14.5333 23.3060
" />
<path d="M15.3800 23.8503
L16.3476 23.8503
" />
<path d="M16.5895 23.6689
L16.7709 23.7293
" />
<path d="M16.7709 23.7293
L17.0733 23.7293
" />
<path d="M17.0733 23.7293
L17.1942 23.6689
" />
<path d="M17.1942 23.6689
L17.2547 23.6084
" />
<path d="M17.2547 23.6084
L17.3152 23.4874
" />
<path d="M17.3152 23.4874
L17.3152 23.3665
" />
<path d="M17.3152 23.3665
L17.2547 23.2455
" />
<path d="M17.2547 23.2455
L17.1942 23.1850
" />
<path d="M17.1942 23.1850
L17.0733 23.1246
" />
<path d="M17.0733 23.1246
L16.8314 23.0641
" />
<path d="M16.8314 23.0641
L16.7104 23.0036
" />
<path d="M16.7104 23.0036
L16.6499 22.9431
" />
<path d="M16.6499 22.9431
L16.5895 22.8222
" />
<path d="M16.5895 22.8222
L16.5895 22.7012
" />
<path d="M16.5895 22.7012
L16.6499 22.5803
" />
<path d="M16.6499 22.5803
L16.7104 22.5198
" />
<path d="M16.7104 22.5198
L16.8314 22.4593
" />
<path d="M16.8314 22.4593
L17.1337 22.4593
" />
<path d="M17.1337 22.4593
L17.3152 22.5198
" />
<path d="M18.1013 22.4593
L18.3432 22.4593
" />
<path d="M18.3432 22.4593
L18.4642 22.5198
" />
<path d="M18.4642 22.5198
L18.5851 22.6408
" />
<path d="M18.5851 22.6408
L18.6456 22.8827
" />
<path d="M18.6456 22.8827
L18.6456 23.3060
" />
<path d="M18.6456 23.3060
L18.5851 23.5479
" />
<path d="M18.5851 23.5479
L18.4642 23.6689
" />
<path d="M18.4642 23.6689
L18.3432 23.7293
" />
<path d="M18.3432 23.7293
L18.1013 23.7293
" />
<path d="M18.1013 23.7293
L17.9804 23.6689
" />
<path d="M17.9804 23.6689
L17.8594 23.5479
" />
<path d="M17.8594 23.5479
L17.7990 23.3060
" />
<path d="M17.7990 23.3060
L17.7990 22.8827
" />
<path d="M17.7990 22.8827
L17.8594 22.6408
" />
<path d="M17.8594 22.6408
L17.9804 22.5198
" />
<path d="M17.9804 22.5198
L18.1013 22.4593
" />
<path d="M19.1899 23.6084
L19.2504 23.6689
" />
<path d="M19.2504 23.6689
L19.1899 23.7293
" />
<path d="M19.1899 23.7293
L19.1295 23.6689
" />
<path d="M19.1295 23.6689
L19.1899 23.6084
" />
<path d="M19.1899 23.6084
L19.1899 23.7293
" />
<path d="M19.1899 22.9431
L19.2504 23.0036
" />
<path d="M19.2504 23.0036
L19.1899 23.0641
" />
<path d="M19.1899 23.0641
L19.1295 23.0036
" />
<path d="M19.1295 23.0036
L19.1899 22.9431
" />
<path d="M19.1899 22.9431
L19.1899 23.0641
" />
<path d="M19.7947 23.7293
L19.7947 22.4593
" />
<path d="M19.7947 23.0641
L20.5204 23.0641
" />
<path d="M20.5204 23.7293
L20.5204 22.4593
" />
<path d="M20.9438 22.4593
L21.3671 23.7293
" />
<path d="M21.3671 23.7293
L21.7905 22.4593
" />
<path d="M22.1534 23.6689
L22.3348 23.7293
" />
<path d="M22.3348 23.7293
L22.6372 23.7293
" />
<path d="M22.6372 23.7293
L22.7581 23.6689
" />
<path d="M22.7581 23.6689
L22.8186 23.6084
" />
<path d="M22.8186 23.6084
L22.8791 23.4874
" />
<path d="M22.8791 23.4874
L22.8791 23.3665
" />
<path d="M22.8791 23.3665
L22.8186 23.2455
" />
<path d="M22.8186 23.2455
L22.7581 23.1850
" />
<path d="M22.7581 23.1850
L22.6372 23.1246
" />
<path d="M22.6372 23.1246
L22.3953 23.0641
" />
<path d="M22.3953 23.0641
L22.2743 23.0036
" />
<path d="M22.2743 23.0036
L22.2138 22.9431
" />
<path d="M22.2138 22.9431
L22.1534 22.8222
" />
<path d="M22.1534 22.8222
L22.1534 22.7012
" />
<path d="M22.1534 22.7012
L22.2138 22.5803
" />
<path d="M22.2138 22.5803
L22.2743 22.5198
" />
<path d="M22.2743 22.5198
L22.3953 22.4593
" />
<path d="M22.3953 22.4593
L22.6976 22.4593
" />
<path d="M22.6976 22.4593
L22.8791 22.5198
" />
<path d="M23.3629 23.6689
L23.5443 23.7293
" />
<path d="M23.5443 23.7293
L23.8467 23.7293
" />
<path d="M23.8467 23.7293
L23.9676 23.6689
" />
<path d="M23.9676 23.6689
L24.0281 23.6084
" />
<path d="M24.0281 23.6084
L24.0886 23.4874
" />
<path d="M24.0886 23.4874
L24.0886 23.3665
" />
<path d="M24.0886 23.3665
L24.0281 23.2455
" />
<path d="M24.0281 23.2455
L23.9676 23.1850
" />
<path d="M23.9676 23.1850
L23.8467 23.1246
" />
<path d="M23.8467 23.1246
L23.6048 23.0641
" />
<path d="M23.6048 23.0641
L23.4838 23.0036
" />
<path d="M23.4838 23.0036
L23.4233 22.9431
" />
<path d="M23.4233 22.9431
L23.3629 22.8222
" />
<path d="M23.3629 22.8222
L23.3629 22.7012
" />
<path d="M23.3629 22.7012
L23.4233 22.5803
" />
<path d="M23.4233 22.5803
L23.4838 22.5198
" />
<path d="M23.4838 22.5198
L23.6048 22.4593
" />
<path d="M23.6048 22.4593
L23.9071 22.4593
" />
<path d="M23.9071 22.4593
L24.0886 22.5198
" />
<path d="M24.8747 22.4593
L25.1166 22.4593
" />
<path d="M25.1166 22.4593
L25.2376 22.5198
" />
<path d="M25.2376 22.5198
L25.3585 22.6408
" />
<path d="M25.3585 22.6408
L25.4190 22.8827
" />
<path d="M25.4190 22.8827
L25.4190 23.3060
" />
<path d="M25.4190 23.3060
L25.3585 23.5479
" />
<path d="M25.3585 23.5479
L25.2376 23.6689
" />
<path d="M25.2376 23.6689
L25.1166 23.7293
" />
<path d="M25.1166 23.7293
L24.8747 23.7293
" />
<path d="M24.8747 23.7293
L24.7538 23.6689
" />
<path d="M24.7538 23.6689
L24.6328 23.5479
" />
<path d="M24.6328 23.5479
L24.5724 23.3060
" />
<path d="M24.5724 23.3060
L24.5724 22.8827
" />
<path d="M24.5724 22.8827
L24.6328 22.6408
" />
<path d="M24.6328 22.6408
L24.7538 22.5198
" />
<path d="M24.7538 22.5198
L24.8747 22.4593
" />
<path d="M25.9633 23.7293
L25.9633 22.4593
" />
<path d="M25.9633 22.4593
L26.4471 22.4593
" />
<path d="M26.4471 22.4593
L26.5681 22.5198
" />
<path d="M26.5681 22.5198
L26.6286 22.5803
" />
<path d="M26.6286 22.5803
L26.6890 22.7012
" />
<path d="M26.6890 22.7012
L26.6890 22.8827
" />
<path d="M26.6890 22.8827
L26.6286 23.0036
" />
<path d="M26.6286 23.0036
L26.5681 23.0641
" />
<path d="M26.5681 23.0641
L26.4471 23.1246
" />
<path d="M26.4471 23.1246
L25.9633 23.1246
" />
<path d="M27.2333 23.2455
L28.2010 23.2455
" />
<path d="M29.4710 23.7293
L28.7453 23.7293
" />
<path d="M29.1081 23.7293
L29.1081 22.4593
" />
<path d="M29.1081 22.4593
L28.9872 22.6408
" />
<path d="M28.9872 22.6408
L28.8662 22.7617
" />
<path d="M28.8662 22.7617
L28.7453 22.8222
" />
<path d="M30.2571 22.4593
L30.3781 22.4593
" />
<path d="M30.3781 22.4593
L30.4990 22.5198
" />
<path d="M30.4990 22.5198
L30.5595 22.5803
" />
<path d="M30.5595 22.5803
L30.6200 22.7012
" />
<path d="M30.6200 22.7012
L30.6805 22.9431
" />
<path d="M30.6805 22.9431
L30.6805 23.2455
" />
<path d="M30.6805 23.2455
L30.6200 23.4874
" />
<path d="M30.6200 23.4874
L30.5595 23.6084
" />
<path d="M30.5595 23.6084
L30.4990 23.6689
" />
<path d="M30.4990 23.6689
L30.3781 23.7293
" />
<path d="M30.3781 23.7293
L30.2571 23.7293
" />
<path d="M30.2571 23.7293
L30.1362 23.6689
" />
<path d="M30.1362 23.6689
L30.0757 23.6084
" />
<path d="M30.0757 23.6084
L30.0152 23.4874
" />
<path d="M30.0152 23.4874
L29.9548 23.2455
" />
<path d="M29.9548 23.2455
L29.9548 22.9431
" />
<path d="M29.9548 22.9431
L30.0152 22.7012
" />
<path d="M30.0152 22.7012
L30.0757 22.5803
" />
<path d="M30.0757 22.5803
L30.1362 22.5198
" />
<path d="M30.1362 22.5198
L30.2571 22.4593
" />
<path d="M31.2247 23.2455
L32.1924 23.2455
" />
<path d="M33.4624 23.7293
L32.7367 23.7293
" />
<path d="M33.0995 23.7293
L33.0995 22.4593
" />
<path d="M33.0995 22.4593
L32.9786 22.6408
" />
<path d="M32.9786 22.6408
L32.8576 22.7617
" />
<path d="M32.8576 22.7617
L32.7367 22.8222
" />
<path d="M34.0066 23.0641
L34.4300 23.0641
" />
<path d="M34.6114 23.7293
L34.0066 23.7293
" />
<path d="M34.0066 23.7293
L34.0066 22.4593
" />
<path d="M34.0066 22.4593
L34.6114 22.4593
" />
<path d="M35.1556 23.7293
L35.1556 22.4593
" />
<path d="M35.1556 22.4593
L35.6394 22.4593
" />
<path d="M35.6394 22.4593
L35.7604 22.5198
" />
<path d="M35.7604 22.5198
L35.8209 22.5803
" />
<path d="M35.8209 22.5803
L35.8813 22.7012
" />
<path d="M35.8813 22.7012
L35.8813 22.8827
" />
<path d="M35.8813 22.8827
L35.8209 23.0036
" />
<path d="M35.8209 23.0036
L35.7604 23.0641
" />
<path d="M35.7604 23.0641
L35.6394 23.1246
" />
<path d="M35.6394 23.1246
L35.1556 23.1246
" />
<path d="M36.1233 23.8503
L37.0909 23.8503
" />
<path d="M37.2723 22.4593
L38.0585 22.4593
" />
<path d="M38.0585 22.4593
L37.6351 22.9431
" />
<path d="M37.6351 22.9431
L37.8166 22.9431
" />
<path d="M37.8166 22.9431
L37.9375 23.0036
" />
<path d="M37.9375 23.0036
L37.9980 23.0641
" />
<path d="M37.9980 23.0641
L38.0585 23.1850
" />
<path d="M38.0585 23.1850
L38.0585 23.4874
" />
<path d="M38.0585 23.4874
L37.9980 23.6084
" />
<path d="M37.9980 23.6084
L37.9375 23.6689
" />
<path d="M37.9375 23.6689
L37.8166 23.7293
" />
<path d="M37.8166 23.7293
L37.4537 23.7293
" />
<path d="M37.4537 23.7293
L37.3328 23.6689
" />
<path d="M37.3328 23.6689
L37.2723 23.6084
" />
<path d="M38.4818 23.7293
L39.1470 22.8827
" />
<path d="M38.4818 22.8827
L39.1470 23.7293
" />
<path d="M39.5099 22.4593
L40.2961 22.4593
" />
<path d="M40.2961 22.4593
L39.8727 22.9431
" />
<path d="M39.8727 22.9431
L40.0542 22.9431
" />
<path d="M40.0542 22.9431
L40.1751 23.0036
" />
<path d="M40.1751 23.0036
L40.2356 23.0641
" />
<path d="M40.2356 23.0641
L40.2961 23.1850
" />
<path d="M40.2961 23.1850
L40.2961 23.4874
" />
<path d="M40.2961 23.4874
L40.2356 23.6084
" />
<path d="M40.2356 23.6084
L40.1751 23.6689
" />
<path d="M40.1751 23.6689
L40.0542 23.7293
" />
<path d="M40.0542 23.7293
L39.6913 23.7293
" />
<path d="M39.6913 23.7293
L39.5704 23.6689
" />
<path d="M39.5704 23.6689
L39.5099 23.6084
" />
<path d="M40.8403 23.7293
L40.8403 22.8827
" />
<path d="M40.8403 23.0036
L40.9008 22.9431
" />
<path d="M40.9008 22.9431
L41.0218 22.8827
" />
<path d="M41.0218 22.8827
L41.2032 22.8827
" />
<path d="M41.2032 22.8827
L41.3241 22.9431
" />
<path d="M41.3241 22.9431
L41.3846 23.0641
" />
<path d="M41.3846 23.0641
L41.3846 23.7293
" />
<path d="M41.3846 23.0641
L41.4451 22.9431
" />
<path d="M41.4451 22.9431
L41.5660 22.8827
" />
<path d="M41.5660 22.8827
L41.7475 22.8827
" />
<path d="M41.7475 22.8827
L41.8684 22.9431
" />
<path d="M41.8684 22.9431
L41.9289 23.0641
" />
<path d="M41.9289 23.0641
L41.9289 23.7293
" />
<path d="M42.5336 23.7293
L42.5336 22.8827
" />
<path d="M42.5336 23.0036
L42.5941 22.9431
" />
<path d="M42.5941 22.9431
L42.7151 22.8827
" />
<path d="M42.7151 22.8827
L42.8965 22.8827
" />
<path d="M42.8965 22.8827
L43.0174 22.9431
" />
<path d="M43.0174 22.9431
L43.0779 23.0641
" />
<path d="M43.0779 23.0641
L43.0779 23.7293
" />
<path d="M43.0779 23.0641
L43.1384 22.9431
" />
<path d="M43.1384 22.9431
L43.2593 22.8827
" />
<path d="M43.2593 22.8827
L43.4408 22.8827
" />
<path d="M43.4408 22.8827
L43.5617 22.9431
" />
<path d="M43.5617 22.9431
L43.6222 23.0641
" />
<path d="M43.6222 23.0641
L43.6222 23.7293
" />
<path d="M43.9246 23.8503
L44.8922 23.8503
" />
<path d="M45.1945 23.7293
L45.1945 22.4593
" />
<path d="M45.1945 22.4593
L45.6783 22.4593
" />
<path d="M45.6783 22.4593
L45.7993 22.5198
" />
<path d="M45.7993 22.5198
L45.8598 22.5803
" />
<path d="M45.8598 22.5803
L45.9202 22.7012
" />
<path d="M45.9202 22.7012
L45.9202 22.8827
" />
<path d="M45.9202 22.8827
L45.8598 23.0036
" />
<path d="M45.8598 23.0036
L45.7993 23.0641
" />
<path d="M45.7993 23.0641
L45.6783 23.1246
" />
<path d="M45.6783 23.1246
L45.1945 23.1246
" />
<path d="M46.7064 22.4593
L46.8274 22.4593
" />
<path d="M46.8274 22.4593
L46.9483 22.5198
" />
<path d="M46.9483 22.5198
L47.0088 22.5803
" />
<path d="M47.0088 22.5803
L47.0693 22.7012
" />
<path d="M47.0693 22.7012
L47.1298 22.9431
" />
<path d="M47.1298 22.9431
L47.1298 23.2455
" />
<path d="M47.1298 23.2455
L47.0693 23.4874
" />
<path d="M47.0693 23.4874
L47.0088 23.6084
" />
<path d="M47.0088 23.6084
L46.9483 23.6689
" />
<path d="M46.9483 23.6689
L46.8274 23.7293
" />
<path d="M46.8274 23.7293
L46.7064 23.7293
" />
<path d="M46.7064 23.7293
L46.5855 23.6689
" />
<path d="M46.5855 23.6689
L46.5250 23.6084
" />
<path d="M46.5250 23.6084
L46.4645 23.4874
" />
<path d="M46.4645 23.4874
L46.4041 23.2455
" />
<path d="M46.4041 23.2455
L46.4041 22.9431
" />
<path d="M46.4041 22.9431
L46.4645 22.7012
" />
<path d="M46.4645 22.7012
L46.5250 22.5803
" />
<path d="M46.5250 22.5803
L46.5855 22.5198
" />
<path d="M46.5855 22.5198
L46.7064 22.4593
" />
<path d="M47.6740 23.6084
L47.7345 23.6689
" />
<path d="M47.7345 23.6689
L47.6740 23.7293
" />
<path d="M47.6740 23.7293
L47.6136 23.6689
" />
<path d="M47.6136 23.6689
L47.6740 23.6084
" />
<path d="M47.6740 23.6084
L47.6740 23.7293
" />
<path d="M48.8836 22.4593
L48.2788 22.4593
" />
<path d="M48.2788 22.4593
L48.2184 23.0641
" />
<path d="M48.2184 23.0641
L48.2788 23.0036
" />
<path d="M48.2788 23.0036
L48.3998 22.9431
" />
<path d="M48.3998 22.9431
L48.7022 22.9431
" />
<path d="M48.7022 22.9431
L48.8231 23.0036
" />
<path d="M48.8231 23.0036
L48.8836 23.0641
" />
<path d="M48.8836 23.0641
L48.9441 23.1850
" />
<path d="M48.9441 23.1850
L48.9441 23.4874
" />
<path d="M48.9441 23.4874
L48.8836 23.6084
" />
<path d="M48.8836 23.6084
L48.8231 23.6689
" />
<path d="M48.8231 23.6689
L48.7022 23.7293
" />
<path d="M48.7022 23.7293
L48.3998 23.7293
" />
<path d="M48.3998 23.7293
L48.2788 23.6689
" />
<path d="M48.2788 23.6689
L48.2184 23.6084
" />
<path d="M49.4883 23.7293
L49.4883 22.8827
" />
<path d="M49.4883 23.0036
L49.5488 22.9431
" />
<path d="M49.5488 22.9431
L49.6698 22.8827
" />
<path d="M49.6698 22.8827
L49.8512 22.8827
" />
<path d="M49.8512 22.8827
L49.9721 22.9431
" />
<path d="M49.9721 22.9431
L50.0326 23.0641
" />
<path d="M50.0326 23.0641
L50.0326 23.7293
" />
<path d="M50.0326 23.0641
L50.0931 22.9431
" />
<path d="M50.0931 22.9431
L50.2140 22.8827
" />
<path d="M50.2140 22.8827
L50.3955 22.8827
" />
<path d="M50.3955 22.8827
L50.5164 22.9431
" />
<path d="M50.5164 22.9431
L50.5769 23.0641
" />
<path d="M50.5769 23.0641
L50.5769 23.7293
" />
<path d="M51.1816 23.7293
L51.1816 22.8827
" />
<path d="M51.1816 23.0036
L51.2421 22.9431
" />
<path d="M51.2421 22.9431
L51.3631 22.8827
" />
<path d="M51.3631 22.8827
L51.5445 22.8827
" />
<path d="M51.5445 22.8827
L51.6654 22.9431
" />
<path d="M51.6654 22.9431
L51.7259 23.0641
" />
<path d="M51.7259 23.0641
L51.7259 23.7293
" />
<path d="M51.7259 23.0641
L51.7864 22.9431
" />
<path d="M51.7864 22.9431
L51.9073 22.8827
" />
<path d="M51.9073 22.8827
L52.0888 22.8827
" />
<path d="M52.0888 22.8827
L52.2097 22.9431
" />
<path d="M52.2097 22.9431
L52.2702 23.0641
" />
<path d="M52.2702 23.0641
L52.2702 23.7293
" />
<path d="M52.5726 23.8503
L53.5402 23.8503
" />
<path d="M53.8425 23.0641
L54.2659 23.0641
" />
<path d="M54.4473 23.7293
L53.8425 23.7293
" />
<path d="M53.8425 23.7293
L53.8425 22.4593
" />
<path d="M53.8425 22.4593
L54.4473 22.4593
" />
<path d="M54.9915 23.7293
L54.9915 22.4593
" />
<path d="M54.9915 22.4593
L55.4753 22.4593
" />
<path d="M55.4753 22.4593
L55.5963 22.5198
" />
<path d="M55.5963 22.5198
L55.6568 22.5803
" />
<path d="M55.6568 22.5803
L55.7172 22.7012
" />
<path d="M55.7172 22.7012
L55.7172 22.8827
" />
<path d="M55.7172 22.8827
L55.6568 23.0036
" />
<path d="M55.6568 23.0036
L55.5963 23.0641
" />
<path d="M55.5963 23.0641
L55.4753 23.1246
" />
<path d="M55.4753 23.1246
L54.9915 23.1246
" />
<path d="M56.9268 23.7293
L56.2011 23.7293
" />
<path d="M56.5639 23.7293
L56.5639 22.4593
" />
<path d="M56.5639 22.4593
L56.4430 22.6408
" />
<path d="M56.4430 22.6408
L56.3220 22.7617
" />
<path d="M56.3220 22.7617
L56.2011 22.8222
" />
<path d="M57.4710 23.6084
L57.5315 23.6689
" />
<path d="M57.5315 23.6689
L57.4710 23.7293
" />
<path d="M57.4710 23.7293
L57.4106 23.6689
" />
<path d="M57.4106 23.6689
L57.4710 23.6084
" />
<path d="M57.4710 23.6084
L57.4710 23.7293
" />
<path d="M58.6806 22.4593
L58.0758 22.4593
" />
<path d="M58.0758 22.4593
L58.0154 23.0641
" />
<path d="M58.0154 23.0641
L58.0758 23.0036
" />
<path d="M58.0758 23.0036
L58.1968 22.9431
" />
<path d="M58.1968 22.9431
L58.4992 22.9431
" />
<path d="M58.4992 22.9431
L58.6201 23.0036
" />
<path d="M58.6201 23.0036
L58.6806 23.0641
" />
<path d="M58.6806 23.0641
L58.7411 23.1850
" />
<path d="M58.7411 23.1850
L58.7411 23.4874
" />
<path d="M58.7411 23.4874
L58.6806 23.6084
" />
<path d="M58.6806 23.6084
L58.6201 23.6689
" />
<path d="M58.6201 23.6689
L58.4992 23.7293
" />
<path d="M58.4992 23.7293
L58.1968 23.7293
" />
<path d="M58.1968 23.7293
L58.0758 23.6689
" />
<path d="M58.0758 23.6689
L58.0154 23.6084
" />
<path d="M59.1644 22.4593
L60.0110 22.4593
" />
<path d="M60.0110 22.4593
L59.4668 23.7293
" />
<path d="M60.3739 23.7293
L61.0391 22.8827
" />
<path d="M60.3739 22.8827
L61.0391 23.7293
" />
<path d="M62.1882 23.7293
L61.4625 23.7293
" />
<path d="M61.8253 23.7293
L61.8253 22.4593
" />
<path d="M61.8253 22.4593
L61.7044 22.6408
" />
<path d="M61.7044 22.6408
L61.5834 22.7617
" />
<path d="M61.5834 22.7617
L61.4625 22.8222
" />
<path d="M62.7324 23.6084
L62.7929 23.6689
" />
<path d="M62.7929 23.6689
L62.7324 23.7293
" />
<path d="M62.7324 23.7293
L62.6720 23.6689
" />
<path d="M62.6720 23.6689
L62.7324 23.6084
" />
<path d="M62.7324 23.6084
L62.7324 23.7293
" />
<path d="M63.5187 23.0036
L63.3977 22.9431
" />
<path d="M63.3977 22.9431
L63.3372 22.8827
" />
<path d="M63.3372 22.8827
L63.2768 22.7617
" />
<path d="M63.2768 22.7617
L63.2768 22.7012
" />
<path d="M63.2768 22.7012
L63.3372 22.5803
" />
<path d="M63.3372 22.5803
L63.3977 22.5198
" />
<path d="M63.3977 22.5198
L63.5187 22.4593
" />
<path d="M63.5187 22.4593
L63.7606 22.4593
" />
<path d="M63.7606 22.4593
L63.8815 22.5198
" />
<path d="M63.8815 22.5198
L63.9420 22.5803
" />
<path d="M63.9420 22.5803
L64.0025 22.7012
" />
<path d="M64.0025 22.7012
L64.0025 22.7617
" />
<path d="M64.0025 22.7617
L63.9420 22.8827
" />
<path d="M63.9420 22.8827
L63.8815 22.9431
" />
<path d="M63.8815 22.9431
L63.7606 23.0036
" />
<path d="M63.7606 23.0036
L63.5187 23.0036
" />
<path d="M63.5187 23.0036
L63.3977 23.0641
" />
<path d="M63.3977 23.0641
L63.3372 23.1246
" />
<path d="M63.3372 23.1246
L63.2768 23.2455
" />
<path d="M63.2768 23.2455
L63.2768 23.4874
" />
<path d="M63.2768 23.4874
L63.3372 23.6084
" />
<path d="M63.3372 23.6084
L63.3977 23.6689
" />
<path d="M63.3977 23.6689
L63.5187 23.7293
" />
<path d="M63.5187 23.7293
L63.7606 23.7293
" />
<path d="M63.7606 23.7293
L63.8815 23.6689
" />
<path d="M63.8815 23.6689
L63.9420 23.6084
" />
<path d="M63.9420 23.6084
L64.0025 23.4874
" />
<path d="M64.0025 23.4874
L64.0025 23.2455
" />
<path d="M64.0025 23.2455
L63.9420 23.1246
" />
<path d="M63.9420 23.1246
L63.8815 23.0641
" />
<path d="M63.8815 23.0641
L63.7606 23.0036
" />
<path d="M64.7282 23.0036
L64.6072 22.9431
" />
<path d="M64.6072 22.9431
L64.5467 22.8827
" />
<path d="M64.5467 22.8827
L64.4863 22.7617
" />
<path d="M64.4863 22.7617
L64.4863 22.7012
" />
<path d="M64.4863 22.7012
L64.5467 22.5803
" />
<path d="M64.5467 22.5803
L64.6072 22.5198
" />
<path d="M64.6072 22.5198
L64.7282 22.4593
" />
<path d="M64.7282 22.4593
L64.9701 22.4593
" />
<path d="M64.9701 22.4593
L65.0910 22.5198
" />
<path d="M65.0910 22.5198
L65.1515 22.5803
" />
<path d="M65.1515 22.5803
L65.2120 22.7012
" />
<path d="M65.2120 22.7012
L65.2120 22.7617
" />
<path d="M65.2120 22.7617
L65.1515 22.8827
" />
<path d="M65.1515 22.8827
L65.0910 22.9431
" />
<path d="M65.0910 22.9431
L64.9701 23.0036
" />
<path d="M64.9701 23.0036
L64.7282 23.0036
" />
<path d="M64.7282 23.0036
L64.6072 23.0641
" />
<path d="M64.6072 23.0641
L64.5467 23.1246
" />
<path d="M64.5467 23.1246
L64.4863 23.2455
" />
<path d="M64.4863 23.2455
L64.4863 23.4874
" />
<path d="M64.4863 23.4874
L64.5467 23.6084
" />
<path d="M64.5467 23.6084
L64.6072 23.6689
" />
<path d="M64.6072 23.6689
L64.7282 23.7293
" />
<path d="M64.7282 23.7293
L64.9701 23.7293
" />
<path d="M64.9701 23.7293
L65.0910 23.6689
" />
<path d="M65.0910 23.6689
L65.1515 23.6084
" />
<path d="M65.1515 23.6084
L65.2120 23.4874
" />
<path d="M65.2120 23.4874
L65.2120 23.2455
" />
<path d="M65.2120 23.2455
L65.1515 23.1246
" />
<path d="M65.1515 23.1246
L65.0910 23.0641
" />
<path d="M65.0910 23.0641
L64.9701 23.0036
" />
<path d="M65.7562 23.7293
L65.7562 22.8827
" />
<path d="M65.7562 23.0036
L65.8167 22.9431
" />
<path d="M65.8167 22.9431
L65.9377 22.8827
" />
<path d="M65.9377 22.8827
L66.1191 22.8827
" />
<path d="M66.1191 22.8827
L66.2400 22.9431
" />
<path d="M66.2400 22.9431
L66.3005 23.0641
" />
<path d="M66.3005 23.0641
L66.3005 23.7293
" />
<path d="M66.3005 23.0641
L66.3610 22.9431
" />
<path d="M66.3610 22.9431
L66.4819 22.8827
" />
<path d="M66.4819 22.8827
L66.6634 22.8827
" />
<path d="M66.6634 22.8827
L66.7843 22.9431
" />
<path d="M66.7843 22.9431
L66.8448 23.0641
" />
<path d="M66.8448 23.0641
L66.8448 23.7293
" />
<path d="M67.4495 23.7293
L67.4495 22.8827
" />
<path d="M67.4495 23.0036
L67.5100 22.9431
" />
<path d="M67.5100 22.9431
L67.6310 22.8827
" />
<path d="M67.6310 22.8827
L67.8124 22.8827
" />
<path d="M67.8124 22.8827
L67.9333 22.9431
" />
<path d="M67.9333 22.9431
L67.9938 23.0641
" />
<path d="M67.9938 23.0641
L67.9938 23.7293
" />
<path d="M67.9938 23.0641
L68.0543 22.9431
" />
<path d="M68.0543 22.9431
L68.1752 22.8827
" />
<path d="M68.1752 22.8827
L68.3567 22.8827
" />
<path d="M68.3567 22.8827
L68.4776 22.9431
" />
<path d="M68.4776 22.9431
L68.5381 23.0641
" />
<path d="M68.5381 23.0641
L68.5381 23.7293
" />
<path d="M68.8405 23.8503
L69.8081 23.8503
" />
<path d="M69.9290 22.4593
L70.6547 22.4593
" />
<path d="M70.2919 23.7293
L70.2919 22.4593
" />
<path d="M71.0780 23.7293
L71.0780 22.4593
" />
<path d="M71.6223 23.7293
L71.6223 23.0641
" />
<path d="M71.6223 23.0641
L71.5618 22.9431
" />
<path d="M71.5618 22.9431
L71.4409 22.8827
" />
<path d="M71.4409 22.8827
L71.2595 22.8827
" />
<path d="M71.2595 22.8827
L71.1385 22.9431
" />
<path d="M71.1385 22.9431
L71.0780 23.0036
" />
<path d="M72.7108 23.6689
L72.5899 23.7293
" />
<path d="M72.5899 23.7293
L72.3480 23.7293
" />
<path d="M72.3480 23.7293
L72.2270 23.6689
" />
<path d="M72.2270 23.6689
L72.1666 23.5479
" />
<path d="M72.1666 23.5479
L72.1666 23.0641
" />
<path d="M72.1666 23.0641
L72.2270 22.9431
" />
<path d="M72.2270 22.9431
L72.3480 22.8827
" />
<path d="M72.3480 22.8827
L72.5899 22.8827
" />
<path d="M72.5899 22.8827
L72.7108 22.9431
" />
<path d="M72.7108 22.9431
L72.7713 23.0641
" />
<path d="M72.7713 23.0641
L72.7713 23.1850
" />
<path d="M72.7713 23.1850
L72.1666 23.3060
" />
<path d="M73.3156 23.7293
L73.3156 22.8827
" />
<path d="M73.3156 23.1246
L73.3761 23.0036
" />
<path d="M73.3761 23.0036
L73.4366 22.9431
" />
<path d="M73.4366 22.9431
L73.5575 22.8827
" />
<path d="M73.5575 22.8827
L73.6785 22.8827
" />
<path d="M74.1018 23.7293
L74.1018 22.8827
" />
<path d="M74.1018 23.0036
L74.1623 22.9431
" />
<path d="M74.1623 22.9431
L74.2833 22.8827
" />
<path d="M74.2833 22.8827
L74.4647 22.8827
" />
<path d="M74.4647 22.8827
L74.5856 22.9431
" />
<path d="M74.5856 22.9431
L74.6461 23.0641
" />
<path d="M74.6461 23.0641
L74.6461 23.7293
" />
<path d="M74.6461 23.0641
L74.7066 22.9431
" />
<path d="M74.7066 22.9431
L74.8275 22.8827
" />
<path d="M74.8275 22.8827
L75.0090 22.8827
" />
<path d="M75.0090 22.8827
L75.1299 22.9431
" />
<path d="M75.1299 22.9431
L75.1904 23.0641
" />
<path d="M75.1904 23.0641
L75.1904 23.7293
" />
<path d="M76.3394 23.7293
L76.3394 23.0641
" />
<path d="M76.3394 23.0641
L76.2789 22.9431
" />
<path d="M76.2789 22.9431
L76.1580 22.8827
" />
<path d="M76.1580 22.8827
L75.9161 22.8827
" />
<path d="M75.9161 22.8827
L75.7951 22.9431
" />
<path d="M76.3394 23.6689
L76.2185 23.7293
" />
<path d="M76.2185 23.7293
L75.9161 23.7293
" />
<path d="M75.9161 23.7293
L75.7951 23.6689
" />
<path d="M75.7951 23.6689
L75.7347 23.5479
" />
<path d="M75.7347 23.5479
L75.7347 23.4269
" />
<path d="M75.7347 23.4269
L75.7951 23.3060
" />
<path d="M75.7951 23.3060
L75.9161 23.2455
" />
<path d="M75.9161 23.2455
L76.2185 23.2455
" />
<path d="M76.2185 23.2455
L76.3394 23.1850
" />
<path d="M77.1256 23.7293
L77.0046 23.6689
" />
<path d="M77.0046 23.6689
L76.9441 23.5479
" />
<path d="M76.9441 23.5479
L76.9441 22.4593
" />
<path d="M77.4279 22.4593
L77.8512 23.7293
" />
<path d="M77.8512 23.7293
L78.2746 22.4593
" />
<path d="M78.6979 23.7293
L78.6979 22.8827
" />
<path d="M78.6979 22.4593
L78.6375 22.5198
" />
<path d="M78.6375 22.5198
L78.6979 22.5803
" />
<path d="M78.6979 22.5803
L78.7584 22.5198
" />
<path d="M78.7584 22.5198
L78.6979 22.4593
" />
<path d="M78.6979 22.4593
L78.6979 22.5803
" />
<path d="M79.8470 23.7293
L79.8470 23.0641
" />
<path d="M79.8470 23.0641
L79.7865 22.9431
" />
<path d="M79.7865 22.9431
L79.6656 22.8827
" />
<path d="M79.6656 22.8827
L79.4237 22.8827
" />
<path d="M79.4237 22.8827
L79.3027 22.9431
" />
<path d="M79.8470 23.6689
L79.7261 23.7293
" />
<path d="M79.7261 23.7293
L79.4237 23.7293
" />
<path d="M79.4237 23.7293
L79.3027 23.6689
" />
<path d="M79.3027 23.6689
L79.2423 23.5479
" />
<path d="M79.2423 23.5479
L79.2423 23.4269
" />
<path d="M79.2423 23.4269
L79.3027 23.3060
" />
<path d="M79.3027 23.3060
L79.4237 23.2455
" />
<path d="M79.4237 23.2455
L79.7261 23.2455
" />
<path d="M79.7261 23.2455
L79.8470 23.1850
" />
<path d="M80.3913 23.6689
L80.5122 23.7293
" />
<path d="M80.5122 23.7293
L80.7541 23.7293
" />
<path d="M80.7541 23.7293
L80.8751 23.6689
" />
<path d="M80.8751 23.6689
L80.9355 23.5479
" />
<path d="M80.9355 23.5479
L80.9355 23.4874
" />
<path d="M80.9355 23.4874
L80.8751 23.3665
" />
<path d="M80.8751 23.3665
L80.7541 23.3060
" />
<path d="M80.7541 23.3060
L80.5727 23.3060
" />
<path d="M80.5727 23.3060
L80.4517 23.2455
" />
<path d="M80.4517 23.2455
L80.3913 23.1246
" />
<path d="M80.3913 23.1246
L80.3913 23.0641
" />
<path d="M80.3913 23.0641
L80.4517 22.9431
" />
<path d="M80.4517 22.9431
L80.5727 22.8827
" />
<path d="M80.5727 22.8827
L80.7541 22.8827
" />
<path d="M80.7541 22.8827
L80.8751 22.9431
" />
</g><text x="36.6976" y="4.7268"
textLength="46.2256" font-size="1.6933" lengthAdjust="spacingAndGlyphs"
text-anchor="middle" opacity="0">http://www.ti.com/lit/ds/symlink/bq24090.pdf</text>
<g class="stroked-text"><desc>http://www.ti.com/lit/ds/symlink/bq24090.pdf</desc>
<path d="M13.9586 4.6793
L13.9586 3.4093
" />
<path d="M14.5029 4.6793
L14.5029 4.0141
" />
<path d="M14.5029 4.0141
L14.4424 3.8931
" />
<path d="M14.4424 3.8931
L14.3215 3.8327
" />
<path d="M14.3215 3.8327
L14.1401 3.8327
" />
<path d="M14.1401 3.8327
L14.0191 3.8931
" />
<path d="M14.0191 3.8931
L13.9586 3.9536
" />
<path d="M14.9262 3.8327
L15.4100 3.8327
" />
<path d="M15.1076 3.4093
L15.1076 4.4979
" />
<path d="M15.1076 4.4979
L15.1681 4.6189
" />
<path d="M15.1681 4.6189
L15.2891 4.6793
" />
<path d="M15.2891 4.6793
L15.4100 4.6793
" />
<path d="M15.6519 3.8327
L16.1357 3.8327
" />
<path d="M15.8333 3.4093
L15.8333 4.4979
" />
<path d="M15.8333 4.4979
L15.8938 4.6189
" />
<path d="M15.8938 4.6189
L16.0148 4.6793
" />
<path d="M16.0148 4.6793
L16.1357 4.6793
" />
<path d="M16.5590 3.8327
L16.5590 5.1027
" />
<path d="M16.5590 3.8931
L16.6800 3.8327
" />
<path d="M16.6800 3.8327
L16.9219 3.8327
" />
<path d="M16.9219 3.8327
L17.0428 3.8931
" />
<path d="M17.0428 3.8931
L17.1033 3.9536
" />
<path d="M17.1033 3.9536
L17.1638 4.0746
" />
<path d="M17.1638 4.0746
L17.1638 4.4374
" />
<path d="M17.1638 4.4374
L17.1033 4.5584
" />
<path d="M17.1033 4.5584
L17.0428 4.6189
" />
<path d="M17.0428 4.6189
L16.9219 4.6793
" />
<path d="M16.9219 4.6793
L16.6800 4.6793
" />
<path d="M16.6800 4.6793
L16.5590 4.6189
" />
<path d="M17.7080 4.5584
L17.7685 4.6189
" />
<path d="M17.7685 4.6189
L17.7080 4.6793
" />
<path d="M17.7080 4.6793
L17.6476 4.6189
" />
<path d="M17.6476 4.6189
L17.7080 4.5584
" />
<path d="M17.7080 4.5584
L17.7080 4.6793
" />
<path d="M17.7080 3.8931
L17.7685 3.9536
" />
<path d="M17.7685 3.9536
L17.7080 4.0141
" />
<path d="M17.7080 4.0141
L17.6476 3.9536
" />
<path d="M17.6476 3.9536
L17.7080 3.8931
" />
<path d="M17.7080 3.8931
L17.7080 4.0141
" />
<path d="M19.2200 3.3489
L18.1314 4.9817
" />
<path d="M20.5505 3.3489
L19.4619 4.9817
" />
<path d="M20.8529 3.8327
L21.0948 4.6793
" />
<path d="M21.0948 4.6793
L21.3367 4.0746
" />
<path d="M21.3367 4.0746
L21.5786 4.6793
" />
<path d="M21.5786 4.6793
L21.8205 3.8327
" />
<path d="M22.1834 3.8327
L22.4253 4.6793
" />
<path d="M22.4253 4.6793
L22.6672 4.0746
" />
<path d="M22.6672 4.0746
L22.9091 4.6793
" />
<path d="M22.9091 4.6793
L23.1510 3.8327
" />
<path d="M23.5139 3.8327
L23.7558 4.6793
" />
<path d="M23.7558 4.6793
L23.9977 4.0746
" />
<path d="M23.9977 4.0746
L24.2396 4.6793
" />
<path d="M24.2396 4.6793
L24.4815 3.8327
" />
<path d="M24.9653 4.5584
L25.0258 4.6189
" />
<path d="M25.0258 4.6189
L24.9653 4.6793
" />
<path d="M24.9653 4.6793
L24.9049 4.6189
" />
<path d="M24.9049 4.6189
L24.9653 4.5584
" />
<path d="M24.9653 4.5584
L24.9653 4.6793
" />
<path d="M25.3887 3.8327
L25.8725 3.8327
" />
<path d="M25.5701 3.4093
L25.5701 4.4979
" />
<path d="M25.5701 4.4979
L25.6306 4.6189
" />
<path d="M25.6306 4.6189
L25.7516 4.6793
" />
<path d="M25.7516 4.6793
L25.8725 4.6793
" />
<path d="M26.2958 4.6793
L26.2958 3.8327
" />
<path d="M26.2958 3.4093
L26.2354 3.4698
" />
<path d="M26.2354 3.4698
L26.2958 3.5303
" />
<path d="M26.2958 3.5303
L26.3563 3.4698
" />
<path d="M26.3563 3.4698
L26.2958 3.4093
" />
<path d="M26.2958 3.4093
L26.2958 3.5303
" />
<path d="M26.9006 4.5584
L26.9611 4.6189
" />
<path d="M26.9611 4.6189
L26.9006 4.6793
" />
<path d="M26.9006 4.6793
L26.8402 4.6189
" />
<path d="M26.8402 4.6189
L26.9006 4.5584
" />
<path d="M26.9006 4.5584
L26.9006 4.6793
" />
<path d="M28.0497 4.6189
L27.9288 4.6793
" />
<path d="M27.9288 4.6793
L27.6869 4.6793
" />
<path d="M27.6869 4.6793
L27.5659 4.6189
" />
<path d="M27.5659 4.6189
L27.5054 4.5584
" />
<path d="M27.5054 4.5584
L27.4450 4.4374
" />
<path d="M27.4450 4.4374
L27.4450 4.0746
" />
<path d="M27.4450 4.0746
L27.5054 3.9536
" />
<path d="M27.5054 3.9536
L27.5659 3.8931
" />
<path d="M27.5659 3.8931
L27.6869 3.8327
" />
<path d="M27.6869 3.8327
L27.9288 3.8327
" />
<path d="M27.9288 3.8327
L28.0497 3.8931
" />
<path d="M28.7755 4.6793
L28.6545 4.6189
" />
<path d="M28.6545 4.6189
L28.5940 4.5584
" />
<path d="M28.5940 4.5584
L28.5336 4.4374
" />
<path d="M28.5336 4.4374
L28.5336 4.0746
" />
<path d="M28.5336 4.0746
L28.5940 3.9536
" />
<path d="M28.5940 3.9536
L28.6545 3.8931
" />
<path d="M28.6545 3.8931
L28.7755 3.8327
" />
<path d="M28.7755 3.8327
L28.9569 3.8327
" />
<path d="M28.9569 3.8327
L29.0778 3.8931
" />
<path d="M29.0778 3.8931
L29.1383 3.9536
" />
<path d="M29.1383 3.9536
L29.1988 4.0746
" />
<path d="M29.1988 4.0746
L29.1988 4.4374
" />
<path d="M29.1988 4.4374
L29.1383 4.5584
" />
<path d="M29.1383 4.5584
L29.0778 4.6189
" />
<path d="M29.0778 4.6189
L28.9569 4.6793
" />
<path d="M28.9569 4.6793
L28.7755 4.6793
" />
<path d="M29.7430 4.6793
L29.7430 3.8327
" />
<path d="M29.7430 3.9536
L29.8035 3.8931
" />
<path d="M29.8035 3.8931
L29.9245 3.8327
" />
<path d="M29.9245 3.8327
L30.1059 3.8327
" />
<path d="M30.1059 3.8327
L30.2268 3.8931
" />
<path d="M30.2268 3.8931
L30.2873 4.0141
" />
<path d="M30.2873 4.0141
L30.2873 4.6793
" />
<path d="M30.2873 4.0141
L30.3478 3.8931
" />
<path d="M30.3478 3.8931
L30.4687 3.8327
" />
<path d="M30.4687 3.8327
L30.6502 3.8327
" />
<path d="M30.6502 3.8327
L30.7711 3.8931
" />
<path d="M30.7711 3.8931
L30.8316 4.0141
" />
<path d="M30.8316 4.0141
L30.8316 4.6793
" />
<path d="M32.3435 3.3489
L31.2549 4.9817
" />
<path d="M32.9483 4.6793
L32.8273 4.6189
" />
<path d="M32.8273 4.6189
L32.7668 4.4979
" />
<path d="M32.7668 4.4979
L32.7668 3.4093
" />
<path d="M33.4320 4.6793
L33.4320 3.8327
" />
<path d="M33.4320 3.4093
L33.3716 3.4698
" />
<path d="M33.3716 3.4698
L33.4320 3.5303
" />
<path d="M33.4320 3.5303
L33.4925 3.4698
" />
<path d="M33.4925 3.4698
L33.4320 3.4093
" />
<path d="M33.4320 3.4093
L33.4320 3.5303
" />
<path d="M33.8554 3.8327
L34.3392 3.8327
" />
<path d="M34.0368 3.4093
L34.0368 4.4979
" />
<path d="M34.0368 4.4979
L34.0973 4.6189
" />
<path d="M34.0973 4.6189
L34.2183 4.6793
" />
<path d="M34.2183 4.6793
L34.3392 4.6793
" />
<path d="M35.6697 3.3489
L34.5811 4.9817
" />
<path d="M36.6373 4.6793
L36.6373 3.4093
" />
<path d="M36.6373 4.6189
L36.5164 4.6793
" />
<path d="M36.5164 4.6793
L36.2745 4.6793
" />
<path d="M36.2745 4.6793
L36.1535 4.6189
" />
<path d="M36.1535 4.6189
L36.0930 4.5584
" />
<path d="M36.0930 4.5584
L36.0326 4.4374
" />
<path d="M36.0326 4.4374
L36.0326 4.0746
" />
<path d="M36.0326 4.0746
L36.0930 3.9536
" />
<path d="M36.0930 3.9536
L36.1535 3.8931
" />
<path d="M36.1535 3.8931
L36.2745 3.8327
" />
<path d="M36.2745 3.8327
L36.5164 3.8327
" />
<path d="M36.5164 3.8327
L36.6373 3.8931
" />
<path d="M37.1816 4.6189
L37.3025 4.6793
" />
<path d="M37.3025 4.6793
L37.5444 4.6793
" />
<path d="M37.5444 4.6793
L37.6654 4.6189
" />
<path d="M37.6654 4.6189
L37.7258 4.4979
" />
<path d="M37.7258 4.4979
L37.7258 4.4374
" />
<path d="M37.7258 4.4374
L37.6654 4.3165
" />
<path d="M37.6654 4.3165
L37.5444 4.2560
" />
<path d="M37.5444 4.2560
L37.3630 4.2560
" />
<path d="M37.3630 4.2560
L37.2420 4.1955
" />
<path d="M37.2420 4.1955
L37.1816 4.0746
" />
<path d="M37.1816 4.0746
L37.1816 4.0141
" />
<path d="M37.1816 4.0141
L37.2420 3.8931
" />
<path d="M37.2420 3.8931
L37.3630 3.8327
" />
<path d="M37.3630 3.8327
L37.5444 3.8327
" />
<path d="M37.5444 3.8327
L37.6654 3.8931
" />
<path d="M39.1773 3.3489
L38.0887 4.9817
" />
<path d="M39.5402 4.6189
L39.6611 4.6793
" />
<path d="M39.6611 4.6793
L39.9030 4.6793
" />
<path d="M39.9030 4.6793
L40.0240 4.6189
" />
<path d="M40.0240 4.6189
L40.0844 4.4979
" />
<path d="M40.0844 4.4979
L40.0844 4.4374
" />
<path d="M40.0844 4.4374
L40.0240 4.3165
" />
<path d="M40.0240 4.3165
L39.9030 4.2560
" />
<path d="M39.9030 4.2560
L39.7216 4.2560
" />
<path d="M39.7216 4.2560
L39.6006 4.1955
" />
<path d="M39.6006 4.1955
L39.5402 4.0746
" />
<path d="M39.5402 4.0746
L39.5402 4.0141
" />
<path d="M39.5402 4.0141
L39.6006 3.8931
" />
<path d="M39.6006 3.8931
L39.7216 3.8327
" />
<path d="M39.7216 3.8327
L39.9030 3.8327
" />
<path d="M39.9030 3.8327
L40.0240 3.8931
" />
<path d="M40.5078 3.8327
L40.8102 4.6793
" />
<path d="M41.1125 3.8327
L40.8102 4.6793
" />
<path d="M40.8102 4.6793
L40.6892 4.9817
" />
<path d="M40.6892 4.9817
L40.6287 5.0422
" />
<path d="M40.6287 5.0422
L40.5078 5.1027
" />
<path d="M41.5963 4.6793
L41.5963 3.8327
" />
<path d="M41.5963 3.9536
L41.6568 3.8931
" />
<path d="M41.6568 3.8931
L41.7778 3.8327
" />
<path d="M41.7778 3.8327
L41.9592 3.8327
" />
<path d="M41.9592 3.8327
L42.0801 3.8931
" />
<path d="M42.0801 3.8931
L42.1406 4.0141
" />
<path d="M42.1406 4.0141
L42.1406 4.6793
" />
<path d="M42.1406 4.0141
L42.2011 3.8931
" />
<path d="M42.2011 3.8931
L42.3220 3.8327
" />
<path d="M42.3220 3.8327
L42.5035 3.8327
" />
<path d="M42.5035 3.8327
L42.6244 3.8931
" />
<path d="M42.6244 3.8931
L42.6849 4.0141
" />
<path d="M42.6849 4.0141
L42.6849 4.6793
" />
<path d="M43.4711 4.6793
L43.3501 4.6189
" />
<path d="M43.3501 4.6189
L43.2896 4.4979
" />
<path d="M43.2896 4.4979
L43.2896 3.4093
" />
<path d="M43.9548 4.6793
L43.9548 3.8327
" />
<path d="M43.9548 3.4093
L43.8944 3.4698
" />
<path d="M43.8944 3.4698
L43.9548 3.5303
" />
<path d="M43.9548 3.5303
L44.0153 3.4698
" />
<path d="M44.0153 3.4698
L43.9548 3.4093
" />
<path d="M43.9548 3.4093
L43.9548 3.5303
" />
<path d="M44.5596 3.8327
L44.5596 4.6793
" />
<path d="M44.5596 3.9536
L44.6201 3.8931
" />
<path d="M44.6201 3.8931
L44.7411 3.8327
" />
<path d="M44.7411 3.8327
L44.9225 3.8327
" />
<path d="M44.9225 3.8327
L45.0434 3.8931
" />
<path d="M45.0434 3.8931
L45.1039 4.0141
" />
<path d="M45.1039 4.0141
L45.1039 4.6793
" />
<path d="M45.7086 4.6793
L45.7086 3.4093
" />
<path d="M45.8296 4.1955
L46.1924 4.6793
" />
<path d="M46.1924 3.8327
L45.7086 4.3165
" />
<path d="M47.6439 3.3489
L46.5553 4.9817
" />
<path d="M48.0672 4.6793
L48.0672 3.4093
" />
<path d="M48.0672 3.8931
L48.1882 3.8327
" />
<path d="M48.1882 3.8327
L48.4301 3.8327
" />
<path d="M48.4301 3.8327
L48.5510 3.8931
" />
<path d="M48.5510 3.8931
L48.6115 3.9536
" />
<path d="M48.6115 3.9536
L48.6720 4.0746
" />
<path d="M48.6720 4.0746
L48.6720 4.4374
" />
<path d="M48.6720 4.4374
L48.6115 4.5584
" />
<path d="M48.6115 4.5584
L48.5510 4.6189
" />
<path d="M48.5510 4.6189
L48.4301 4.6793
" />
<path d="M48.4301 4.6793
L48.1882 4.6793
" />
<path d="M48.1882 4.6793
L48.0672 4.6189
" />
<path d="M49.7605 3.8327
L49.7605 5.1027
" />
<path d="M49.7605 4.6189
L49.6396 4.6793
" />
<path d="M49.6396 4.6793
L49.3977 4.6793
" />
<path d="M49.3977 4.6793
L49.2767 4.6189
" />
<path d="M49.2767 4.6189
L49.2162 4.5584
" />
<path d="M49.2162 4.5584
L49.1558 4.4374
" />
<path d="M49.1558 4.4374
L49.1558 4.0746
" />
<path d="M49.1558 4.0746
L49.2162 3.9536
" />
<path d="M49.2162 3.9536
L49.2767 3.8931
" />
<path d="M49.2767 3.8931
L49.3977 3.8327
" />
<path d="M49.3977 3.8327
L49.6396 3.8327
" />
<path d="M49.6396 3.8327
L49.7605 3.8931
" />
<path d="M50.3048 3.5303
L50.3652 3.4698
" />
<path d="M50.3652 3.4698
L50.4862 3.4093
" />
<path d="M50.4862 3.4093
L50.7886 3.4093
" />
<path d="M50.7886 3.4093
L50.9095 3.4698
" />
<path d="M50.9095 3.4698
L50.9700 3.5303
" />
<path d="M50.9700 3.5303
L51.0305 3.6512
" />
<path d="M51.0305 3.6512
L51.0305 3.7722
" />
<path d="M51.0305 3.7722
L50.9700 3.9536
" />
<path d="M50.9700 3.9536
L50.2443 4.6793
" />
<path d="M50.2443 4.6793
L51.0305 4.6793
" />
<path d="M52.1190 3.8327
L52.1190 4.6793
" />
<path d="M51.8166 3.3489
L51.5143 4.2560
" />
<path d="M51.5143 4.2560
L52.3004 4.2560
" />
<path d="M53.0261 3.4093
L53.1471 3.4093
" />
<path d="M53.1471 3.4093
L53.2680 3.4698
" />
<path d="M53.2680 3.4698
L53.3285 3.5303
" />
<path d="M53.3285 3.5303
L53.3890 3.6512
" />
<path d="M53.3890 3.6512
L53.4495 3.8931
" />
<path d="M53.4495 3.8931
L53.4495 4.1955
" />
<path d="M53.4495 4.1955
L53.3890 4.4374
" />
<path d="M53.3890 4.4374
L53.3285 4.5584
" />
<path d="M53.3285 4.5584
L53.2680 4.6189
" />
<path d="M53.2680 4.6189
L53.1471 4.6793
" />
<path d="M53.1471 4.6793
L53.0261 4.6793
" />
<path d="M53.0261 4.6793
L52.9052 4.6189
" />
<path d="M52.9052 4.6189
L52.8447 4.5584
" />
<path d="M52.8447 4.5584
L52.7842 4.4374
" />
<path d="M52.7842 4.4374
L52.7238 4.1955
" />
<path d="M52.7238 4.1955
L52.7238 3.8931
" />
<path d="M52.7238 3.8931
L52.7842 3.6512
" />
<path d="M52.7842 3.6512
L52.8447 3.5303
" />
<path d="M52.8447 3.5303
L52.9052 3.4698
" />
<path d="M52.9052 3.4698
L53.0261 3.4093
" />
<path d="M54.0542 4.6793
L54.2961 4.6793
" />
<path d="M54.2961 4.6793
L54.4171 4.6189
" />
<path d="M54.4171 4.6189
L54.4775 4.5584
" />
<path d="M54.4775 4.5584
L54.5985 4.3769
" />
<path d="M54.5985 4.3769
L54.6590 4.1350
" />
<path d="M54.6590 4.1350
L54.6590 3.6512
" />
<path d="M54.6590 3.6512
L54.5985 3.5303
" />
<path d="M54.5985 3.5303
L54.5380 3.4698
" />
<path d="M54.5380 3.4698
L54.4171 3.4093
" />
<path d="M54.4171 3.4093
L54.1752 3.4093
" />
<path d="M54.1752 3.4093
L54.0542 3.4698
" />
<path d="M54.0542 3.4698
L53.9937 3.5303
" />
<path d="M53.9937 3.5303
L53.9333 3.6512
" />
<path d="M53.9333 3.6512
L53.9333 3.9536
" />
<path d="M53.9333 3.9536
L53.9937 4.0746
" />
<path d="M53.9937 4.0746
L54.0542 4.1350
" />
<path d="M54.0542 4.1350
L54.1752 4.1955
" />
<path d="M54.1752 4.1955
L54.4171 4.1955
" />
<path d="M54.4171 4.1955
L54.5380 4.1350
" />
<path d="M54.5380 4.1350
L54.5985 4.0746
" />
<path d="M54.5985 4.0746
L54.6590 3.9536
" />
<path d="M55.4451 3.4093
L55.5661 3.4093
" />
<path d="M55.5661 3.4093
L55.6870 3.4698
" />
<path d="M55.6870 3.4698
L55.7475 3.5303
" />
<path d="M55.7475 3.5303
L55.8080 3.6512
" />
<path d="M55.8080 3.6512
L55.8685 3.8931
" />
<path d="M55.8685 3.8931
L55.8685 4.1955
" />
<path d="M55.8685 4.1955
L55.8080 4.4374
" />
<path d="M55.8080 4.4374
L55.7475 4.5584
" />
<path d="M55.7475 4.5584
L55.6870 4.6189
" />
<path d="M55.6870 4.6189
L55.5661 4.6793
" />
<path d="M55.5661 4.6793
L55.4451 4.6793
" />
<path d="M55.4451 4.6793
L55.3242 4.6189
" />
<path d="M55.3242 4.6189
L55.2637 4.5584
" />
<path d="M55.2637 4.5584
L55.2032 4.4374
" />
<path d="M55.2032 4.4374
L55.1428 4.1955
" />
<path d="M55.1428 4.1955
L55.1428 3.8931
" />
<path d="M55.1428 3.8931
L55.2032 3.6512
" />
<path d="M55.2032 3.6512
L55.2637 3.5303
" />
<path d="M55.2637 3.5303
L55.3242 3.4698
" />
<path d="M55.3242 3.4698
L55.4451 3.4093
" />
<path d="M56.4127 4.5584
L56.4732 4.6189
" />
<path d="M56.4732 4.6189
L56.4127 4.6793
" />
<path d="M56.4127 4.6793
L56.3523 4.6189
" />
<path d="M56.3523 4.6189
L56.4127 4.5584
" />
<path d="M56.4127 4.5584
L56.4127 4.6793
" />
<path d="M57.0175 3.8327
L57.0175 5.1027
" />
<path d="M57.0175 3.8931
L57.1385 3.8327
" />
<path d="M57.1385 3.8327
L57.3804 3.8327
" />
<path d="M57.3804 3.8327
L57.5013 3.8931
" />
<path d="M57.5013 3.8931
L57.5618 3.9536
" />
<path d="M57.5618 3.9536
L57.6223 4.0746
" />
<path d="M57.6223 4.0746
L57.6223 4.4374
" />
<path d="M57.6223 4.4374
L57.5618 4.5584
" />
<path d="M57.5618 4.5584
L57.5013 4.6189
" />
<path d="M57.5013 4.6189
L57.3804 4.6793
" />
<path d="M57.3804 4.6793
L57.1385 4.6793
" />
<path d="M57.1385 4.6793
L57.0175 4.6189
" />
<path d="M58.7108 4.6793
L58.7108 3.4093
" />
<path d="M58.7108 4.6189
L58.5899 4.6793
" />
<path d="M58.5899 4.6793
L58.3480 4.6793
" />
<path d="M58.3480 4.6793
L58.2270 4.6189
" />
<path d="M58.2270 4.6189
L58.1665 4.5584
" />
<path d="M58.1665 4.5584
L58.1061 4.4374
" />
<path d="M58.1061 4.4374
L58.1061 4.0746
" />
<path d="M58.1061 4.0746
L58.1665 3.9536
" />
<path d="M58.1665 3.9536
L58.2270 3.8931
" />
<path d="M58.2270 3.8931
L58.3480 3.8327
" />
<path d="M58.3480 3.8327
L58.5899 3.8327
" />
<path d="M58.5899 3.8327
L58.7108 3.8931
" />
<path d="M59.1341 3.8327
L59.6179 3.8327
" />
<path d="M59.3155 4.6793
L59.3155 3.5908
" />
<path d="M59.3155 3.5908
L59.3760 3.4698
" />
<path d="M59.3760 3.4698
L59.4970 3.4093
" />
<path d="M59.4970 3.4093
L59.6179 3.4093
" />
</g></g> 
</svg>
