<?xml version="1.0" standalone="no"?>
 <!DOCTYPE svg PUBLIC "-//W3C//DTD SVG 1.1//EN" 
 "http://www.w3.org/Graphics/SVG/1.1/DTD/svg11.dtd"> 
<svg
  xmlns:svg="http://www.w3.org/2000/svg"
  xmlns="http://www.w3.org/2000/svg"
  xmlns:xlink="http://www.w3.org/1999/xlink"
  version="1.1"
  width="110.5408mm" height="40.5638mm" viewBox="0.0000 0.0000 110.5408 40.5638">
<title>SVG Image created as working.svg date 2023/08/03 19:08:22 </title>
  <desc>Image generated by Eeschema-SVG </desc>
<g style="fill:#000000; fill-opacity:1.0000;stroke:#000000; stroke-opacity:1.0000;
stroke-linecap:round; stroke-linejoin:round;"
 transform="translate(0 0) scale(1 1)">
</g>
<g style="fill:#840000; fill-opacity:0.0; 
stroke:#840000; stroke-width:0.0000; stroke-opacity:1; 
stroke-linecap:round; stroke-linejoin:round;">
</g>
<g style="fill:#FFFFC2; fill-opacity:0.0; 
stroke:#FFFFC2; stroke-width:0.0000; stroke-opacity:1; 
stroke-linecap:round; stroke-linejoin:round;">
</g>
<g style="fill:#FFFFC2; fill-opacity:1.0000; 
stroke:#FFFFC2; stroke-width:0.0000; stroke-opacity:1; 
stroke-linecap:round; stroke-linejoin:round;">
<rect x="16.832100" y="5.670900" width="10.160000" height="25.400000" rx="0.000000" />
</g>
<g style="fill:#840084; fill-opacity:1.0000; 
stroke:#840084; stroke-width:0.0000; stroke-opacity:1; 
stroke-linecap:round; stroke-linejoin:round;">
</g>
<g style="fill:#840000; fill-opacity:1.0000; 
stroke:#840000; stroke-width:0.0000; stroke-opacity:1; 
stroke-linecap:round; stroke-linejoin:round;">
</g>
<g style="fill:#840000; fill-opacity:0.0; 
stroke:#840000; stroke-width:0.2540; stroke-opacity:1; 
stroke-linecap:round; stroke-linejoin:round;">
<rect x="16.832100" y="5.670900" width="10.160000" height="25.400000" rx="0.000000" />
</g>
<g style="fill:#840000; fill-opacity:0.0; 
stroke:#840000; stroke-width:0.5080; stroke-opacity:1; 
stroke-linecap:round; stroke-linejoin:round;">
<path style="fill:#840000; fill-opacity:0.0; 
stroke:#840000; stroke-width:0.5080; stroke-opacity:1; 
stroke-linecap:round; stroke-linejoin:round;fill:none"
d="M 21.1501,12.7829
Z" /> 
<path style="fill:#840000; fill-opacity:0.0; 
stroke:#840000; stroke-width:0.5080; stroke-opacity:1; 
stroke-linecap:round; stroke-linejoin:round;fill:none"
d="M 22.4201,10.2429
22.1661,12.2749
" /> 
<path style="fill:#840000; fill-opacity:0.0; 
stroke:#840000; stroke-width:0.5080; stroke-opacity:1; 
stroke-linecap:round; stroke-linejoin:round;fill:none"
d="M 22.6741,12.7829
24.7061,12.7829
" /> 
<path style="fill:#840000; fill-opacity:0.0; 
stroke:#840000; stroke-width:0.5080; stroke-opacity:1; 
stroke-linecap:round; stroke-linejoin:round;fill:none"
d="M 22.6741,7.1949
22.4201,9.2269
" /> 
<path style="fill:#840000; fill-opacity:0.0; 
stroke:#840000; stroke-width:0.5080; stroke-opacity:1; 
stroke-linecap:round; stroke-linejoin:round;fill:none"
d="M 22.9281,9.7349
24.9601,9.7349
" /> 
<path style="fill:#840000; fill-opacity:0.0; 
stroke:#840000; stroke-width:0.5080; stroke-opacity:1; 
stroke-linecap:round; stroke-linejoin:round;fill:none"
d="M 23.1821,6.6869
25.2141,6.6869
" /> 
<path style="fill:#840000; fill-opacity:0.0; 
stroke:#840000; stroke-width:0.5080; stroke-opacity:1; 
stroke-linecap:round; stroke-linejoin:round;fill:none"
d="M 25.4681,10.2429
25.2141,12.2749
" /> 
<path style="fill:#840000; fill-opacity:0.0; 
stroke:#840000; stroke-width:0.5080; stroke-opacity:1; 
stroke-linecap:round; stroke-linejoin:round;fill:none"
d="M 25.7221,7.1949
25.4681,9.2269
" /> 
</g>
<g style="fill:#840000; fill-opacity:0.0; 
stroke:#840000; stroke-width:0.0635; stroke-opacity:1; 
stroke-linecap:round; stroke-linejoin:round;">
<text x="24.1981" y="7.7030"
textLength="0.5244" font-size="0.6773" lengthAdjust="spacingAndGlyphs"
text-anchor="middle" opacity="0">A</text>
<g class="stroked-text"><desc>A</desc>
<path d="M24.0771 7.5355
L24.3190 7.5355
" />
<path d="M24.0287 7.6806
L24.1981 7.1726
" />
<path d="M24.1981 7.1726
L24.3674 7.6806
" />
</g><text x="26.4841" y="8.4650"
textLength="0.5970" font-size="0.6773" lengthAdjust="spacingAndGlyphs"
text-anchor="middle" opacity="0">B</text>
<g class="stroked-text"><desc>B</desc>
<path d="M26.5203 8.1765
L26.5929 8.2007
" />
<path d="M26.5929 8.2007
L26.6171 8.2249
" />
<path d="M26.6171 8.2249
L26.6413 8.2733
" />
<path d="M26.6413 8.2733
L26.6413 8.3459
" />
<path d="M26.6413 8.3459
L26.6171 8.3943
" />
<path d="M26.6171 8.3943
L26.5929 8.4185
" />
<path d="M26.5929 8.4185
L26.5445 8.4426
" />
<path d="M26.5445 8.4426
L26.3510 8.4426
" />
<path d="M26.3510 8.4426
L26.3510 7.9346
" />
<path d="M26.3510 7.9346
L26.5203 7.9346
" />
<path d="M26.5203 7.9346
L26.5687 7.9588
" />
<path d="M26.5687 7.9588
L26.5929 7.9830
" />
<path d="M26.5929 7.9830
L26.6171 8.0314
" />
<path d="M26.6171 8.0314
L26.6171 8.0798
" />
<path d="M26.6171 8.0798
L26.5929 8.1282
" />
<path d="M26.5929 8.1282
L26.5687 8.1524
" />
<path d="M26.5687 8.1524
L26.5203 8.1765
" />
<path d="M26.5203 8.1765
L26.3510 8.1765
" />
</g><text x="26.2301" y="11.5130"
textLength="0.5970" font-size="0.6773" lengthAdjust="spacingAndGlyphs"
text-anchor="middle" opacity="0">C</text>
<g class="stroked-text"><desc>C</desc>
<path d="M26.3873 11.4423
L26.3631 11.4665
" />
<path d="M26.3631 11.4665
L26.2905 11.4906
" />
<path d="M26.2905 11.4906
L26.2421 11.4906
" />
<path d="M26.2421 11.4906
L26.1696 11.4665
" />
<path d="M26.1696 11.4665
L26.1212 11.4181
" />
<path d="M26.1212 11.4181
L26.0970 11.3697
" />
<path d="M26.0970 11.3697
L26.0728 11.2729
" />
<path d="M26.0728 11.2729
L26.0728 11.2004
" />
<path d="M26.0728 11.2004
L26.0970 11.1036
" />
<path d="M26.0970 11.1036
L26.1212 11.0552
" />
<path d="M26.1212 11.0552
L26.1696 11.0068
" />
<path d="M26.1696 11.0068
L26.2421 10.9826
" />
<path d="M26.2421 10.9826
L26.2905 10.9826
" />
<path d="M26.2905 10.9826
L26.3631 11.0068
" />
<path d="M26.3631 11.0068
L26.3873 11.0310
" />
</g><text x="23.6901" y="12.2750"
textLength="0.5970" font-size="0.6773" lengthAdjust="spacingAndGlyphs"
text-anchor="middle" opacity="0">D</text>
<g class="stroked-text"><desc>D</desc>
<path d="M23.5570 12.2526
L23.5570 11.7446
" />
<path d="M23.5570 11.7446
L23.6780 11.7446
" />
<path d="M23.6780 11.7446
L23.7505 11.7688
" />
<path d="M23.7505 11.7688
L23.7989 11.8172
" />
<path d="M23.7989 11.8172
L23.8231 11.8656
" />
<path d="M23.8231 11.8656
L23.8473 11.9624
" />
<path d="M23.8473 11.9624
L23.8473 12.0349
" />
<path d="M23.8473 12.0349
L23.8231 12.1317
" />
<path d="M23.8231 12.1317
L23.7989 12.1801
" />
<path d="M23.7989 12.1801
L23.7505 12.2285
" />
<path d="M23.7505 12.2285
L23.6780 12.2526
" />
<path d="M23.6780 12.2526
L23.5570 12.2526
" />
</g><text x="20.1341" y="13.0370"
textLength="1.1050" font-size="0.6773" lengthAdjust="spacingAndGlyphs"
text-anchor="middle" opacity="0">DP</text>
<g class="stroked-text"><desc>DP</desc>
<path d="M19.7470 13.0146
L19.7470 12.5066
" />
<path d="M19.7470 12.5066
L19.8680 12.5066
" />
<path d="M19.8680 12.5066
L19.9405 12.5308
" />
<path d="M19.9405 12.5308
L19.9889 12.5792
" />
<path d="M19.9889 12.5792
L20.0131 12.6276
" />
<path d="M20.0131 12.6276
L20.0373 12.7244
" />
<path d="M20.0373 12.7244
L20.0373 12.7969
" />
<path d="M20.0373 12.7969
L20.0131 12.8937
" />
<path d="M20.0131 12.8937
L19.9889 12.9421
" />
<path d="M19.9889 12.9421
L19.9405 12.9905
" />
<path d="M19.9405 12.9905
L19.8680 13.0146
" />
<path d="M19.8680 13.0146
L19.7470 13.0146
" />
<path d="M20.2550 13.0146
L20.2550 12.5066
" />
<path d="M20.2550 12.5066
L20.4485 12.5066
" />
<path d="M20.4485 12.5066
L20.4969 12.5308
" />
<path d="M20.4969 12.5308
L20.5211 12.5550
" />
<path d="M20.5211 12.5550
L20.5453 12.6034
" />
<path d="M20.5453 12.6034
L20.5453 12.6760
" />
<path d="M20.5453 12.6760
L20.5211 12.7244
" />
<path d="M20.5211 12.7244
L20.4969 12.7485
" />
<path d="M20.4969 12.7485
L20.4485 12.7727
" />
<path d="M20.4485 12.7727
L20.2550 12.7727
" />
</g><text x="21.4041" y="11.5130"
textLength="0.5486" font-size="0.6773" lengthAdjust="spacingAndGlyphs"
text-anchor="middle" opacity="0">E</text>
<g class="stroked-text"><desc>E</desc>
<path d="M21.2952 11.2245
L21.4645 11.2245
" />
<path d="M21.5371 11.4906
L21.2952 11.4906
" />
<path d="M21.2952 11.4906
L21.2952 10.9826
" />
<path d="M21.2952 10.9826
L21.5371 10.9826
" />
</g><text x="21.6581" y="8.4650"
textLength="0.5244" font-size="0.6773" lengthAdjust="spacingAndGlyphs"
text-anchor="middle" opacity="0">F</text>
<g class="stroked-text"><desc>F</desc>
<path d="M21.7306 8.1765
L21.5613 8.1765
" />
<path d="M21.5613 8.4426
L21.5613 7.9346
" />
<path d="M21.5613 7.9346
L21.8032 7.9346
" />
</g><text x="23.9441" y="9.2270"
textLength="0.5970" font-size="0.6773" lengthAdjust="spacingAndGlyphs"
text-anchor="middle" opacity="0">G</text>
<g class="stroked-text"><desc>G</desc>
<path d="M24.0771 8.7208
L24.0287 8.6966
" />
<path d="M24.0287 8.6966
L23.9561 8.6966
" />
<path d="M23.9561 8.6966
L23.8836 8.7208
" />
<path d="M23.8836 8.7208
L23.8352 8.7692
" />
<path d="M23.8352 8.7692
L23.8110 8.8176
" />
<path d="M23.8110 8.8176
L23.7868 8.9144
" />
<path d="M23.7868 8.9144
L23.7868 8.9869
" />
<path d="M23.7868 8.9869
L23.8110 9.0837
" />
<path d="M23.8110 9.0837
L23.8352 9.1321
" />
<path d="M23.8352 9.1321
L23.8836 9.1805
" />
<path d="M23.8836 9.1805
L23.9561 9.2046
" />
<path d="M23.9561 9.2046
L24.0045 9.2046
" />
<path d="M24.0045 9.2046
L24.0771 9.1805
" />
<path d="M24.0771 9.1805
L24.1013 9.1563
" />
<path d="M24.1013 9.1563
L24.1013 8.9869
" />
<path d="M24.1013 8.9869
L24.0045 8.9869
" />
</g></g>
<g style="fill:#840000; fill-opacity:0.0; 
stroke:#840000; stroke-width:0.1524; stroke-opacity:1; 
stroke-linecap:round; stroke-linejoin:round;">
<path d="M16.8321 8.2109
L14.2921 8.2109
" />
</g>
<g style="fill:#006464; fill-opacity:0.0; 
stroke:#006464; stroke-width:0.1524; stroke-opacity:1; 
stroke-linecap:round; stroke-linejoin:round;">
<text x="17.4671" y="8.8459"
textLength="1.2918" font-size="1.6933" lengthAdjust="spacingAndGlyphs"
text-anchor="start" opacity="0">A</text>
<g class="stroked-text"><desc>A</desc>
<path d="M17.8092 8.4276
L18.4139 8.4276
" />
<path d="M17.6882 8.7904
L18.1115 7.5204
" />
<path d="M18.1115 7.5204
L18.5349 8.7904
" />
</g></g>
<g style="fill:#A90000; fill-opacity:0.0; 
stroke:#A90000; stroke-width:0.1524; stroke-opacity:1; 
stroke-linecap:round; stroke-linejoin:round;">
<text x="15.5621" y="7.9569"
textLength="1.4127" font-size="1.6933" lengthAdjust="spacingAndGlyphs"
text-anchor="middle" opacity="0">1</text>
<g class="stroked-text"><desc>1</desc>
<path d="M15.9250 7.7934
L15.1993 7.7934
" />
<path d="M15.5621 7.7934
L15.5621 6.5234
" />
<path d="M15.5621 6.5234
L15.4412 6.7049
" />
<path d="M15.4412 6.7049
L15.3202 6.8258
" />
<path d="M15.3202 6.8258
L15.1993 6.8863
" />
</g></g>
<g style="fill:#840000; fill-opacity:0.0; 
stroke:#840000; stroke-width:0.1524; stroke-opacity:1; 
stroke-linecap:round; stroke-linejoin:round;">
<path d="M16.8321 13.2909
L14.2921 13.2909
" />
</g>
<g style="fill:#006464; fill-opacity:0.0; 
stroke:#006464; stroke-width:0.1524; stroke-opacity:1; 
stroke-linecap:round; stroke-linejoin:round;">
<text x="17.4671" y="13.9259"
textLength="1.4732" font-size="1.6933" lengthAdjust="spacingAndGlyphs"
text-anchor="start" opacity="0">C</text>
<g class="stroked-text"><desc>C</desc>
<path d="M18.5953 13.7495
L18.5349 13.8100
" />
<path d="M18.5349 13.8100
L18.3534 13.8704
" />
<path d="M18.3534 13.8704
L18.2325 13.8704
" />
<path d="M18.2325 13.8704
L18.0511 13.8100
" />
<path d="M18.0511 13.8100
L17.9301 13.6890
" />
<path d="M17.9301 13.6890
L17.8696 13.5680
" />
<path d="M17.8696 13.5680
L17.8092 13.3261
" />
<path d="M17.8092 13.3261
L17.8092 13.1447
" />
<path d="M17.8092 13.1447
L17.8696 12.9028
" />
<path d="M17.8696 12.9028
L17.9301 12.7819
" />
<path d="M17.9301 12.7819
L18.0511 12.6609
" />
<path d="M18.0511 12.6609
L18.2325 12.6004
" />
<path d="M18.2325 12.6004
L18.3534 12.6004
" />
<path d="M18.3534 12.6004
L18.5349 12.6609
" />
<path d="M18.5349 12.6609
L18.5953 12.7214
" />
</g></g>
<g style="fill:#A90000; fill-opacity:0.0; 
stroke:#A90000; stroke-width:0.1524; stroke-opacity:1; 
stroke-linecap:round; stroke-linejoin:round;">
<text x="15.5621" y="13.0369"
textLength="2.6222" font-size="1.6933" lengthAdjust="spacingAndGlyphs"
text-anchor="middle" opacity="0">10</text>
<g class="stroked-text"><desc>10</desc>
<path d="M15.3202 12.8734
L14.5945 12.8734
" />
<path d="M14.9573 12.8734
L14.9573 11.6034
" />
<path d="M14.9573 11.6034
L14.8364 11.7849
" />
<path d="M14.8364 11.7849
L14.7154 11.9058
" />
<path d="M14.7154 11.9058
L14.5945 11.9663
" />
<path d="M16.1063 11.6034
L16.2273 11.6034
" />
<path d="M16.2273 11.6034
L16.3482 11.6639
" />
<path d="M16.3482 11.6639
L16.4087 11.7244
" />
<path d="M16.4087 11.7244
L16.4692 11.8453
" />
<path d="M16.4692 11.8453
L16.5297 12.0872
" />
<path d="M16.5297 12.0872
L16.5297 12.3896
" />
<path d="M16.5297 12.3896
L16.4692 12.6315
" />
<path d="M16.4692 12.6315
L16.4087 12.7525
" />
<path d="M16.4087 12.7525
L16.3482 12.8130
" />
<path d="M16.3482 12.8130
L16.2273 12.8734
" />
<path d="M16.2273 12.8734
L16.1063 12.8734
" />
<path d="M16.1063 12.8734
L15.9854 12.8130
" />
<path d="M15.9854 12.8130
L15.9249 12.7525
" />
<path d="M15.9249 12.7525
L15.8644 12.6315
" />
<path d="M15.8644 12.6315
L15.8040 12.3896
" />
<path d="M15.8040 12.3896
L15.8040 12.0872
" />
<path d="M15.8040 12.0872
L15.8644 11.8453
" />
<path d="M15.8644 11.8453
L15.9249 11.7244
" />
<path d="M15.9249 11.7244
L15.9854 11.6639
" />
<path d="M15.9854 11.6639
L16.1063 11.6034
" />
</g></g>
<g style="fill:#840000; fill-opacity:0.0; 
stroke:#840000; stroke-width:0.1524; stroke-opacity:1; 
stroke-linecap:round; stroke-linejoin:round;">
<path d="M16.8321 23.4509
L14.2921 23.4509
" />
</g>
<g style="fill:#006464; fill-opacity:0.0; 
stroke:#006464; stroke-width:0.1524; stroke-opacity:1; 
stroke-linecap:round; stroke-linejoin:round;">
<text x="17.4671" y="24.0859"
textLength="1.4732" font-size="1.6933" lengthAdjust="spacingAndGlyphs"
text-anchor="start" opacity="0">G</text>
<g class="stroked-text"><desc>G</desc>
<path d="M18.5349 22.8209
L18.4139 22.7604
" />
<path d="M18.4139 22.7604
L18.2325 22.7604
" />
<path d="M18.2325 22.7604
L18.0511 22.8209
" />
<path d="M18.0511 22.8209
L17.9301 22.9419
" />
<path d="M17.9301 22.9419
L17.8696 23.0628
" />
<path d="M17.8696 23.0628
L17.8092 23.3047
" />
<path d="M17.8092 23.3047
L17.8092 23.4861
" />
<path d="M17.8092 23.4861
L17.8696 23.7280
" />
<path d="M17.8696 23.7280
L17.9301 23.8490
" />
<path d="M17.9301 23.8490
L18.0511 23.9700
" />
<path d="M18.0511 23.9700
L18.2325 24.0304
" />
<path d="M18.2325 24.0304
L18.3534 24.0304
" />
<path d="M18.3534 24.0304
L18.5349 23.9700
" />
<path d="M18.5349 23.9700
L18.5953 23.9095
" />
<path d="M18.5953 23.9095
L18.5953 23.4861
" />
<path d="M18.5953 23.4861
L18.3534 23.4861
" />
</g></g>
<g style="fill:#A90000; fill-opacity:0.0; 
stroke:#A90000; stroke-width:0.1524; stroke-opacity:1; 
stroke-linecap:round; stroke-linejoin:round;">
<text x="15.5621" y="23.1969"
textLength="2.6222" font-size="1.6933" lengthAdjust="spacingAndGlyphs"
text-anchor="middle" opacity="0">11</text>
<g class="stroked-text"><desc>11</desc>
<path d="M15.3202 23.0334
L14.5945 23.0334
" />
<path d="M14.9573 23.0334
L14.9573 21.7634
" />
<path d="M14.9573 21.7634
L14.8364 21.9449
" />
<path d="M14.8364 21.9449
L14.7154 22.0658
" />
<path d="M14.7154 22.0658
L14.5945 22.1263
" />
<path d="M16.5297 23.0334
L15.8040 23.0334
" />
<path d="M16.1668 23.0334
L16.1668 21.7634
" />
<path d="M16.1668 21.7634
L16.0459 21.9449
" />
<path d="M16.0459 21.9449
L15.9249 22.0658
" />
<path d="M15.9249 22.0658
L15.8040 22.1263
" />
</g></g>
<g style="fill:#840000; fill-opacity:0.0; 
stroke:#840000; stroke-width:0.1524; stroke-opacity:1; 
stroke-linecap:round; stroke-linejoin:round;">
<path d="M16.8321 10.7509
L14.2921 10.7509
" />
</g>
<g style="fill:#006464; fill-opacity:0.0; 
stroke:#006464; stroke-width:0.1524; stroke-opacity:1; 
stroke-linecap:round; stroke-linejoin:round;">
<text x="17.4671" y="11.3859"
textLength="1.4732" font-size="1.6933" lengthAdjust="spacingAndGlyphs"
text-anchor="start" opacity="0">B</text>
<g class="stroked-text"><desc>B</desc>
<path d="M18.2930 10.6652
L18.4744 10.7257
" />
<path d="M18.4744 10.7257
L18.5349 10.7861
" />
<path d="M18.5349 10.7861
L18.5953 10.9071
" />
<path d="M18.5953 10.9071
L18.5953 11.0885
" />
<path d="M18.5953 11.0885
L18.5349 11.2095
" />
<path d="M18.5349 11.2095
L18.4744 11.2700
" />
<path d="M18.4744 11.2700
L18.3534 11.3304
" />
<path d="M18.3534 11.3304
L17.8696 11.3304
" />
<path d="M17.8696 11.3304
L17.8696 10.0604
" />
<path d="M17.8696 10.0604
L18.2930 10.0604
" />
<path d="M18.2930 10.0604
L18.4139 10.1209
" />
<path d="M18.4139 10.1209
L18.4744 10.1814
" />
<path d="M18.4744 10.1814
L18.5349 10.3023
" />
<path d="M18.5349 10.3023
L18.5349 10.4233
" />
<path d="M18.5349 10.4233
L18.4744 10.5442
" />
<path d="M18.4744 10.5442
L18.4139 10.6047
" />
<path d="M18.4139 10.6047
L18.2930 10.6652
" />
<path d="M18.2930 10.6652
L17.8696 10.6652
" />
</g></g>
<g style="fill:#A90000; fill-opacity:0.0; 
stroke:#A90000; stroke-width:0.1524; stroke-opacity:1; 
stroke-linecap:round; stroke-linejoin:round;">
<text x="15.5621" y="10.4969"
textLength="2.6222" font-size="1.6933" lengthAdjust="spacingAndGlyphs"
text-anchor="middle" opacity="0">13</text>
<g class="stroked-text"><desc>13</desc>
<path d="M15.3202 10.3334
L14.5945 10.3334
" />
<path d="M14.9573 10.3334
L14.9573 9.0634
" />
<path d="M14.9573 9.0634
L14.8364 9.2449
" />
<path d="M14.8364 9.2449
L14.7154 9.3658
" />
<path d="M14.7154 9.3658
L14.5945 9.4263
" />
<path d="M15.7435 9.0634
L16.5297 9.0634
" />
<path d="M16.5297 9.0634
L16.1063 9.5472
" />
<path d="M16.1063 9.5472
L16.2878 9.5472
" />
<path d="M16.2878 9.5472
L16.4087 9.6077
" />
<path d="M16.4087 9.6077
L16.4692 9.6682
" />
<path d="M16.4692 9.6682
L16.5297 9.7891
" />
<path d="M16.5297 9.7891
L16.5297 10.0915
" />
<path d="M16.5297 10.0915
L16.4692 10.2125
" />
<path d="M16.4692 10.2125
L16.4087 10.2730
" />
<path d="M16.4087 10.2730
L16.2878 10.3334
" />
<path d="M16.2878 10.3334
L15.9249 10.3334
" />
<path d="M15.9249 10.3334
L15.8040 10.2730
" />
<path d="M15.8040 10.2730
L15.7435 10.2125
" />
</g></g>
<g style="fill:#840000; fill-opacity:0.0; 
stroke:#840000; stroke-width:0.1524; stroke-opacity:1; 
stroke-linecap:round; stroke-linejoin:round;">
<path d="M26.9921 25.9909
L29.5321 25.9909
" />
</g>
<g style="fill:#006464; fill-opacity:0.0; 
stroke:#006464; stroke-width:0.1524; stroke-opacity:1; 
stroke-linecap:round; stroke-linejoin:round;">
<text x="26.3571" y="26.6259"
textLength="2.5618" font-size="1.6933" lengthAdjust="spacingAndGlyphs"
text-anchor="end" opacity="0">CA</text>
<g class="stroked-text"><desc>CA</desc>
<path d="M24.9263 26.4495
L24.8659 26.5100
" />
<path d="M24.8659 26.5100
L24.6844 26.5704
" />
<path d="M24.6844 26.5704
L24.5635 26.5704
" />
<path d="M24.5635 26.5704
L24.3821 26.5100
" />
<path d="M24.3821 26.5100
L24.2611 26.3890
" />
<path d="M24.2611 26.3890
L24.2006 26.2680
" />
<path d="M24.2006 26.2680
L24.1402 26.0261
" />
<path d="M24.1402 26.0261
L24.1402 25.8447
" />
<path d="M24.1402 25.8447
L24.2006 25.6028
" />
<path d="M24.2006 25.6028
L24.2611 25.4819
" />
<path d="M24.2611 25.4819
L24.3821 25.3609
" />
<path d="M24.3821 25.3609
L24.5635 25.3004
" />
<path d="M24.5635 25.3004
L24.6844 25.3004
" />
<path d="M24.6844 25.3004
L24.8659 25.3609
" />
<path d="M24.8659 25.3609
L24.9263 25.4214
" />
<path d="M25.4102 26.2076
L26.0149 26.2076
" />
<path d="M25.2892 26.5704
L25.7125 25.3004
" />
<path d="M25.7125 25.3004
L26.1359 26.5704
" />
</g></g>
<g style="fill:#A90000; fill-opacity:0.0; 
stroke:#A90000; stroke-width:0.1524; stroke-opacity:1; 
stroke-linecap:round; stroke-linejoin:round;">
<text x="28.2621" y="25.7369"
textLength="2.6222" font-size="1.6933" lengthAdjust="spacingAndGlyphs"
text-anchor="middle" opacity="0">14</text>
<g class="stroked-text"><desc>14</desc>
<path d="M28.0202 25.5734
L27.2945 25.5734
" />
<path d="M27.6573 25.5734
L27.6573 24.3034
" />
<path d="M27.6573 24.3034
L27.5364 24.4849
" />
<path d="M27.5364 24.4849
L27.4154 24.6058
" />
<path d="M27.4154 24.6058
L27.2945 24.6663
" />
<path d="M29.1087 24.7268
L29.1087 25.5734
" />
<path d="M28.8063 24.2430
L28.5040 25.1501
" />
<path d="M28.5040 25.1501
L29.2901 25.1501
" />
</g></g>
<g style="fill:#840000; fill-opacity:0.0; 
stroke:#840000; stroke-width:0.1524; stroke-opacity:1; 
stroke-linecap:round; stroke-linejoin:round;">
<path d="M16.8321 20.9109
L14.2921 20.9109
" />
</g>
<g style="fill:#006464; fill-opacity:0.0; 
stroke:#006464; stroke-width:0.1524; stroke-opacity:1; 
stroke-linecap:round; stroke-linejoin:round;">
<text x="17.4671" y="21.5459"
textLength="1.2918" font-size="1.6933" lengthAdjust="spacingAndGlyphs"
text-anchor="start" opacity="0">F</text>
<g class="stroked-text"><desc>F</desc>
<path d="M18.2930 20.8252
L17.8696 20.8252
" />
<path d="M17.8696 21.4904
L17.8696 20.2204
" />
<path d="M17.8696 20.2204
L18.4744 20.2204
" />
</g></g>
<g style="fill:#A90000; fill-opacity:0.0; 
stroke:#A90000; stroke-width:0.1524; stroke-opacity:1; 
stroke-linecap:round; stroke-linejoin:round;">
<text x="15.5621" y="20.6569"
textLength="1.4127" font-size="1.6933" lengthAdjust="spacingAndGlyphs"
text-anchor="middle" opacity="0">2</text>
<g class="stroked-text"><desc>2</desc>
<path d="M15.1993 19.3444
L15.2597 19.2839
" />
<path d="M15.2597 19.2839
L15.3807 19.2234
" />
<path d="M15.3807 19.2234
L15.6831 19.2234
" />
<path d="M15.6831 19.2234
L15.8040 19.2839
" />
<path d="M15.8040 19.2839
L15.8645 19.3444
" />
<path d="M15.8645 19.3444
L15.9250 19.4653
" />
<path d="M15.9250 19.4653
L15.9250 19.5863
" />
<path d="M15.9250 19.5863
L15.8645 19.7677
" />
<path d="M15.8645 19.7677
L15.1388 20.4934
" />
<path d="M15.1388 20.4934
L15.9250 20.4934
" />
</g></g>
<g style="fill:#840000; fill-opacity:0.0; 
stroke:#840000; stroke-width:0.1524; stroke-opacity:1; 
stroke-linecap:round; stroke-linejoin:round;">
<path d="M26.9921 28.5309
L29.5321 28.5309
" />
</g>
<g style="fill:#006464; fill-opacity:0.0; 
stroke:#006464; stroke-width:0.1524; stroke-opacity:1; 
stroke-linecap:round; stroke-linejoin:round;">
<text x="26.3571" y="29.1659"
textLength="2.5618" font-size="1.6933" lengthAdjust="spacingAndGlyphs"
text-anchor="end" opacity="0">CA</text>
<g class="stroked-text"><desc>CA</desc>
<path d="M24.9263 28.9895
L24.8659 29.0500
" />
<path d="M24.8659 29.0500
L24.6844 29.1104
" />
<path d="M24.6844 29.1104
L24.5635 29.1104
" />
<path d="M24.5635 29.1104
L24.3821 29.0500
" />
<path d="M24.3821 29.0500
L24.2611 28.9290
" />
<path d="M24.2611 28.9290
L24.2006 28.8080
" />
<path d="M24.2006 28.8080
L24.1402 28.5661
" />
<path d="M24.1402 28.5661
L24.1402 28.3847
" />
<path d="M24.1402 28.3847
L24.2006 28.1428
" />
<path d="M24.2006 28.1428
L24.2611 28.0219
" />
<path d="M24.2611 28.0219
L24.3821 27.9009
" />
<path d="M24.3821 27.9009
L24.5635 27.8404
" />
<path d="M24.5635 27.8404
L24.6844 27.8404
" />
<path d="M24.6844 27.8404
L24.8659 27.9009
" />
<path d="M24.8659 27.9009
L24.9263 27.9614
" />
<path d="M25.4102 28.7476
L26.0149 28.7476
" />
<path d="M25.2892 29.1104
L25.7125 27.8404
" />
<path d="M25.7125 27.8404
L26.1359 29.1104
" />
</g></g>
<g style="fill:#A90000; fill-opacity:0.0; 
stroke:#A90000; stroke-width:0.1524; stroke-opacity:1; 
stroke-linecap:round; stroke-linejoin:round;">
<text x="28.2621" y="28.2769"
textLength="1.4127" font-size="1.6933" lengthAdjust="spacingAndGlyphs"
text-anchor="middle" opacity="0">3</text>
<g class="stroked-text"><desc>3</desc>
<path d="M27.8388 26.8434
L28.6250 26.8434
" />
<path d="M28.6250 26.8434
L28.2016 27.3272
" />
<path d="M28.2016 27.3272
L28.3831 27.3272
" />
<path d="M28.3831 27.3272
L28.5040 27.3877
" />
<path d="M28.5040 27.3877
L28.5645 27.4482
" />
<path d="M28.5645 27.4482
L28.6250 27.5691
" />
<path d="M28.6250 27.5691
L28.6250 27.8715
" />
<path d="M28.6250 27.8715
L28.5645 27.9925
" />
<path d="M28.5645 27.9925
L28.5040 28.0530
" />
<path d="M28.5040 28.0530
L28.3831 28.1134
" />
<path d="M28.3831 28.1134
L28.0202 28.1134
" />
<path d="M28.0202 28.1134
L27.8993 28.0530
" />
<path d="M27.8993 28.0530
L27.8388 27.9925
" />
</g></g>
<g style="fill:#840000; fill-opacity:0.0; 
stroke:#840000; stroke-width:0.1524; stroke-opacity:1; 
stroke-linecap:round; stroke-linejoin:round;">
<path d="M16.8321 28.5309
L14.2921 28.5309
" />
</g>
<g style="fill:#006464; fill-opacity:0.0; 
stroke:#006464; stroke-width:0.1524; stroke-opacity:1; 
stroke-linecap:round; stroke-linejoin:round;">
<text x="17.4671" y="29.1659"
textLength="3.9528" font-size="1.6933" lengthAdjust="spacingAndGlyphs"
text-anchor="start" opacity="0">D.P.</text>
<g class="stroked-text"><desc>D.P.</desc>
<path d="M17.8696 29.1104
L17.8696 27.8404
" />
<path d="M17.8696 27.8404
L18.1720 27.8404
" />
<path d="M18.1720 27.8404
L18.3534 27.9009
" />
<path d="M18.3534 27.9009
L18.4744 28.0219
" />
<path d="M18.4744 28.0219
L18.5349 28.1428
" />
<path d="M18.5349 28.1428
L18.5953 28.3847
" />
<path d="M18.5953 28.3847
L18.5953 28.5661
" />
<path d="M18.5953 28.5661
L18.5349 28.8080
" />
<path d="M18.5349 28.8080
L18.4744 28.9290
" />
<path d="M18.4744 28.9290
L18.3534 29.0500
" />
<path d="M18.3534 29.0500
L18.1720 29.1104
" />
<path d="M18.1720 29.1104
L17.8696 29.1104
" />
<path d="M19.1396 28.9895
L19.2001 29.0500
" />
<path d="M19.2001 29.0500
L19.1396 29.1104
" />
<path d="M19.1396 29.1104
L19.0792 29.0500
" />
<path d="M19.0792 29.0500
L19.1396 28.9895
" />
<path d="M19.1396 28.9895
L19.1396 29.1104
" />
<path d="M19.7444 29.1104
L19.7444 27.8404
" />
<path d="M19.7444 27.8404
L20.2282 27.8404
" />
<path d="M20.2282 27.8404
L20.3492 27.9009
" />
<path d="M20.3492 27.9009
L20.4097 27.9614
" />
<path d="M20.4097 27.9614
L20.4701 28.0823
" />
<path d="M20.4701 28.0823
L20.4701 28.2638
" />
<path d="M20.4701 28.2638
L20.4097 28.3847
" />
<path d="M20.4097 28.3847
L20.3492 28.4452
" />
<path d="M20.3492 28.4452
L20.2282 28.5057
" />
<path d="M20.2282 28.5057
L19.7444 28.5057
" />
<path d="M21.0144 28.9895
L21.0749 29.0500
" />
<path d="M21.0749 29.0500
L21.0144 29.1104
" />
<path d="M21.0144 29.1104
L20.9540 29.0500
" />
<path d="M20.9540 29.0500
L21.0144 28.9895
" />
<path d="M21.0144 28.9895
L21.0144 29.1104
" />
</g></g>
<g style="fill:#A90000; fill-opacity:0.0; 
stroke:#A90000; stroke-width:0.1524; stroke-opacity:1; 
stroke-linecap:round; stroke-linejoin:round;">
<text x="15.5621" y="28.2769"
textLength="1.4127" font-size="1.6933" lengthAdjust="spacingAndGlyphs"
text-anchor="middle" opacity="0">6</text>
<g class="stroked-text"><desc>6</desc>
<path d="M15.8040 26.8434
L15.5621 26.8434
" />
<path d="M15.5621 26.8434
L15.4412 26.9039
" />
<path d="M15.4412 26.9039
L15.3807 26.9644
" />
<path d="M15.3807 26.9644
L15.2597 27.1458
" />
<path d="M15.2597 27.1458
L15.1993 27.3877
" />
<path d="M15.1993 27.3877
L15.1993 27.8715
" />
<path d="M15.1993 27.8715
L15.2597 27.9925
" />
<path d="M15.2597 27.9925
L15.3202 28.0530
" />
<path d="M15.3202 28.0530
L15.4412 28.1134
" />
<path d="M15.4412 28.1134
L15.6831 28.1134
" />
<path d="M15.6831 28.1134
L15.8040 28.0530
" />
<path d="M15.8040 28.0530
L15.8645 27.9925
" />
<path d="M15.8645 27.9925
L15.9250 27.8715
" />
<path d="M15.9250 27.8715
L15.9250 27.5691
" />
<path d="M15.9250 27.5691
L15.8645 27.4482
" />
<path d="M15.8645 27.4482
L15.8040 27.3877
" />
<path d="M15.8040 27.3877
L15.6831 27.3272
" />
<path d="M15.6831 27.3272
L15.4412 27.3272
" />
<path d="M15.4412 27.3272
L15.3202 27.3877
" />
<path d="M15.3202 27.3877
L15.2597 27.4482
" />
<path d="M15.2597 27.4482
L15.1993 27.5691
" />
</g></g>
<g style="fill:#840000; fill-opacity:0.0; 
stroke:#840000; stroke-width:0.1524; stroke-opacity:1; 
stroke-linecap:round; stroke-linejoin:round;">
<path d="M16.8321 18.3709
L14.2921 18.3709
" />
</g>
<g style="fill:#006464; fill-opacity:0.0; 
stroke:#006464; stroke-width:0.1524; stroke-opacity:1; 
stroke-linecap:round; stroke-linejoin:round;">
<text x="17.4671" y="19.0059"
textLength="1.3522" font-size="1.6933" lengthAdjust="spacingAndGlyphs"
text-anchor="start" opacity="0">E</text>
<g class="stroked-text"><desc>E</desc>
<path d="M17.8696 18.2852
L18.2930 18.2852
" />
<path d="M18.4744 18.9504
L17.8696 18.9504
" />
<path d="M17.8696 18.9504
L17.8696 17.6804
" />
<path d="M17.8696 17.6804
L18.4744 17.6804
" />
</g></g>
<g style="fill:#A90000; fill-opacity:0.0; 
stroke:#A90000; stroke-width:0.1524; stroke-opacity:1; 
stroke-linecap:round; stroke-linejoin:round;">
<text x="15.5621" y="18.1169"
textLength="1.4127" font-size="1.6933" lengthAdjust="spacingAndGlyphs"
text-anchor="middle" opacity="0">7</text>
<g class="stroked-text"><desc>7</desc>
<path d="M15.1388 16.6834
L15.9854 16.6834
" />
<path d="M15.9854 16.6834
L15.4412 17.9534
" />
</g></g>
<g style="fill:#840000; fill-opacity:0.0; 
stroke:#840000; stroke-width:0.1524; stroke-opacity:1; 
stroke-linecap:round; stroke-linejoin:round;">
<path d="M16.8321 15.8309
L14.2921 15.8309
" />
</g>
<g style="fill:#006464; fill-opacity:0.0; 
stroke:#006464; stroke-width:0.1524; stroke-opacity:1; 
stroke-linecap:round; stroke-linejoin:round;">
<text x="17.4671" y="16.4659"
textLength="1.4732" font-size="1.6933" lengthAdjust="spacingAndGlyphs"
text-anchor="start" opacity="0">D</text>
<g class="stroked-text"><desc>D</desc>
<path d="M17.8696 16.4104
L17.8696 15.1404
" />
<path d="M17.8696 15.1404
L18.1720 15.1404
" />
<path d="M18.1720 15.1404
L18.3534 15.2009
" />
<path d="M18.3534 15.2009
L18.4744 15.3219
" />
<path d="M18.4744 15.3219
L18.5349 15.4428
" />
<path d="M18.5349 15.4428
L18.5953 15.6847
" />
<path d="M18.5953 15.6847
L18.5953 15.8661
" />
<path d="M18.5953 15.8661
L18.5349 16.1080
" />
<path d="M18.5349 16.1080
L18.4744 16.2290
" />
<path d="M18.4744 16.2290
L18.3534 16.3500
" />
<path d="M18.3534 16.3500
L18.1720 16.4104
" />
<path d="M18.1720 16.4104
L17.8696 16.4104
" />
</g></g>
<g style="fill:#A90000; fill-opacity:0.0; 
stroke:#A90000; stroke-width:0.1524; stroke-opacity:1; 
stroke-linecap:round; stroke-linejoin:round;">
<text x="15.5621" y="15.5769"
textLength="1.4127" font-size="1.6933" lengthAdjust="spacingAndGlyphs"
text-anchor="middle" opacity="0">8</text>
<g class="stroked-text"><desc>8</desc>
<path d="M15.4412 14.6877
L15.3202 14.6272
" />
<path d="M15.3202 14.6272
L15.2597 14.5668
" />
<path d="M15.2597 14.5668
L15.1993 14.4458
" />
<path d="M15.1993 14.4458
L15.1993 14.3853
" />
<path d="M15.1993 14.3853
L15.2597 14.2644
" />
<path d="M15.2597 14.2644
L15.3202 14.2039
" />
<path d="M15.3202 14.2039
L15.4412 14.1434
" />
<path d="M15.4412 14.1434
L15.6831 14.1434
" />
<path d="M15.6831 14.1434
L15.8040 14.2039
" />
<path d="M15.8040 14.2039
L15.8645 14.2644
" />
<path d="M15.8645 14.2644
L15.9250 14.3853
" />
<path d="M15.9250 14.3853
L15.9250 14.4458
" />
<path d="M15.9250 14.4458
L15.8645 14.5668
" />
<path d="M15.8645 14.5668
L15.8040 14.6272
" />
<path d="M15.8040 14.6272
L15.6831 14.6877
" />
<path d="M15.6831 14.6877
L15.4412 14.6877
" />
<path d="M15.4412 14.6877
L15.3202 14.7482
" />
<path d="M15.3202 14.7482
L15.2597 14.8087
" />
<path d="M15.2597 14.8087
L15.1993 14.9296
" />
<path d="M15.1993 14.9296
L15.1993 15.1715
" />
<path d="M15.1993 15.1715
L15.2597 15.2925
" />
<path d="M15.2597 15.2925
L15.3202 15.3530
" />
<path d="M15.3202 15.3530
L15.4412 15.4134
" />
<path d="M15.4412 15.4134
L15.6831 15.4134
" />
<path d="M15.6831 15.4134
L15.8040 15.3530
" />
<path d="M15.8040 15.3530
L15.8645 15.2925
" />
<path d="M15.8645 15.2925
L15.9250 15.1715
" />
<path d="M15.9250 15.1715
L15.9250 14.9296
" />
<path d="M15.9250 14.9296
L15.8645 14.8087
" />
<path d="M15.8645 14.8087
L15.8040 14.7482
" />
<path d="M15.8040 14.7482
L15.6831 14.6877
" />
</g></g>
<g style="fill:#840084; fill-opacity:0.0; 
stroke:#840084; stroke-width:0.1524; stroke-opacity:1; 
stroke-linecap:round; stroke-linejoin:round;">
</g>
<g style="fill:#006464; fill-opacity:0.0; 
stroke:#006464; stroke-width:0.1524; stroke-opacity:1; 
stroke-linecap:round; stroke-linejoin:round;">
</g>
<g style="fill:#006464; fill-opacity:0.0; 
stroke:#006464; stroke-width:0.1588; stroke-opacity:1; 
stroke-linecap:round; stroke-linejoin:round;">
<text x="18.0513" y="5.0359"
textLength="2.6415" font-size="1.6933" lengthAdjust="spacingAndGlyphs"
text-anchor="middle" opacity="0">U?</text>
<g class="stroked-text"><desc>U?</desc>
<path d="M17.1441 3.7101
L17.1441 4.7382
" />
<path d="M17.1441 4.7382
L17.2046 4.8592
" />
<path d="M17.2046 4.8592
L17.2651 4.9197
" />
<path d="M17.2651 4.9197
L17.3860 4.9801
" />
<path d="M17.3860 4.9801
L17.6279 4.9801
" />
<path d="M17.6279 4.9801
L17.7489 4.9197
" />
<path d="M17.7489 4.9197
L17.8094 4.8592
" />
<path d="M17.8094 4.8592
L17.8698 4.7382
" />
<path d="M17.8698 4.7382
L17.8698 3.7101
" />
<path d="M18.6561 4.8592
L18.7165 4.9197
" />
<path d="M18.7165 4.9197
L18.6561 4.9801
" />
<path d="M18.6561 4.9801
L18.5956 4.9197
" />
<path d="M18.5956 4.9197
L18.6561 4.8592
" />
<path d="M18.6561 4.8592
L18.6561 4.9801
" />
<path d="M18.4142 3.7706
L18.5351 3.7101
" />
<path d="M18.5351 3.7101
L18.8375 3.7101
" />
<path d="M18.8375 3.7101
L18.9584 3.7706
" />
<path d="M18.9584 3.7706
L19.0189 3.8916
" />
<path d="M19.0189 3.8916
L19.0189 4.0125
" />
<path d="M19.0189 4.0125
L18.9584 4.1335
" />
<path d="M18.9584 4.1335
L18.8980 4.1939
" />
<path d="M18.8980 4.1939
L18.7770 4.2544
" />
<path d="M18.7770 4.2544
L18.7165 4.3149
" />
<path d="M18.7165 4.3149
L18.6561 4.4358
" />
<path d="M18.6561 4.4358
L18.6561 4.4963
" />
</g><text x="21.9823" y="33.2299"
textLength="10.0195" font-size="1.6933" lengthAdjust="spacingAndGlyphs"
text-anchor="middle" opacity="0">MAN3620A</text>
<g class="stroked-text"><desc>MAN3620A</desc>
<path d="M17.3861 33.1741
L17.3861 31.9041
" />
<path d="M17.3861 31.9041
L17.8095 32.8113
" />
<path d="M17.8095 32.8113
L18.2328 31.9041
" />
<path d="M18.2328 31.9041
L18.2328 33.1741
" />
<path d="M18.7771 32.8113
L19.3818 32.8113
" />
<path d="M18.6561 33.1741
L19.0794 31.9041
" />
<path d="M19.0794 31.9041
L19.5028 33.1741
" />
<path d="M19.9261 33.1741
L19.9261 31.9041
" />
<path d="M19.9261 31.9041
L20.6518 33.1741
" />
<path d="M20.6518 33.1741
L20.6518 31.9041
" />
<path d="M21.1357 31.9041
L21.9219 31.9041
" />
<path d="M21.9219 31.9041
L21.4985 32.3879
" />
<path d="M21.4985 32.3879
L21.6800 32.3879
" />
<path d="M21.6800 32.3879
L21.8009 32.4484
" />
<path d="M21.8009 32.4484
L21.8614 32.5089
" />
<path d="M21.8614 32.5089
L21.9219 32.6298
" />
<path d="M21.9219 32.6298
L21.9219 32.9322
" />
<path d="M21.9219 32.9322
L21.8614 33.0532
" />
<path d="M21.8614 33.0532
L21.8009 33.1137
" />
<path d="M21.8009 33.1137
L21.6800 33.1741
" />
<path d="M21.6800 33.1741
L21.3171 33.1741
" />
<path d="M21.3171 33.1741
L21.1962 33.1137
" />
<path d="M21.1962 33.1137
L21.1357 33.0532
" />
<path d="M23.0104 31.9041
L22.7685 31.9041
" />
<path d="M22.7685 31.9041
L22.6476 31.9646
" />
<path d="M22.6476 31.9646
L22.5871 32.0251
" />
<path d="M22.5871 32.0251
L22.4661 32.2065
" />
<path d="M22.4661 32.2065
L22.4057 32.4484
" />
<path d="M22.4057 32.4484
L22.4057 32.9322
" />
<path d="M22.4057 32.9322
L22.4661 33.0532
" />
<path d="M22.4661 33.0532
L22.5266 33.1137
" />
<path d="M22.5266 33.1137
L22.6476 33.1741
" />
<path d="M22.6476 33.1741
L22.8895 33.1741
" />
<path d="M22.8895 33.1741
L23.0104 33.1137
" />
<path d="M23.0104 33.1137
L23.0709 33.0532
" />
<path d="M23.0709 33.0532
L23.1314 32.9322
" />
<path d="M23.1314 32.9322
L23.1314 32.6298
" />
<path d="M23.1314 32.6298
L23.0709 32.5089
" />
<path d="M23.0709 32.5089
L23.0104 32.4484
" />
<path d="M23.0104 32.4484
L22.8895 32.3879
" />
<path d="M22.8895 32.3879
L22.6476 32.3879
" />
<path d="M22.6476 32.3879
L22.5266 32.4484
" />
<path d="M22.5266 32.4484
L22.4661 32.5089
" />
<path d="M22.4661 32.5089
L22.4057 32.6298
" />
<path d="M23.6152 32.0251
L23.6756 31.9646
" />
<path d="M23.6756 31.9646
L23.7966 31.9041
" />
<path d="M23.7966 31.9041
L24.0990 31.9041
" />
<path d="M24.0990 31.9041
L24.2199 31.9646
" />
<path d="M24.2199 31.9646
L24.2804 32.0251
" />
<path d="M24.2804 32.0251
L24.3409 32.1460
" />
<path d="M24.3409 32.1460
L24.3409 32.2670
" />
<path d="M24.3409 32.2670
L24.2804 32.4484
" />
<path d="M24.2804 32.4484
L23.5547 33.1741
" />
<path d="M23.5547 33.1741
L24.3409 33.1741
" />
<path d="M25.1270 31.9041
L25.2480 31.9041
" />
<path d="M25.2480 31.9041
L25.3689 31.9646
" />
<path d="M25.3689 31.9646
L25.4294 32.0251
" />
<path d="M25.4294 32.0251
L25.4899 32.1460
" />
<path d="M25.4899 32.1460
L25.5504 32.3879
" />
<path d="M25.5504 32.3879
L25.5504 32.6903
" />
<path d="M25.5504 32.6903
L25.4899 32.9322
" />
<path d="M25.4899 32.9322
L25.4294 33.0532
" />
<path d="M25.4294 33.0532
L25.3689 33.1137
" />
<path d="M25.3689 33.1137
L25.2480 33.1741
" />
<path d="M25.2480 33.1741
L25.1270 33.1741
" />
<path d="M25.1270 33.1741
L25.0061 33.1137
" />
<path d="M25.0061 33.1137
L24.9456 33.0532
" />
<path d="M24.9456 33.0532
L24.8851 32.9322
" />
<path d="M24.8851 32.9322
L24.8247 32.6903
" />
<path d="M24.8247 32.6903
L24.8247 32.3879
" />
<path d="M24.8247 32.3879
L24.8851 32.1460
" />
<path d="M24.8851 32.1460
L24.9456 32.0251
" />
<path d="M24.9456 32.0251
L25.0061 31.9646
" />
<path d="M25.0061 31.9646
L25.1270 31.9041
" />
<path d="M26.0342 32.8113
L26.6389 32.8113
" />
<path d="M25.9132 33.1741
L26.3365 31.9041
" />
<path d="M26.3365 31.9041
L26.7599 33.1741
" />
</g></g>
<g style="fill:#840084; fill-opacity:0.0; 
stroke:#840084; stroke-width:0.1588; stroke-opacity:1; 
stroke-linecap:round; stroke-linejoin:round;">
<text x="23.0815" y="36.7859"
textLength="27.7388" font-size="1.6933" lengthAdjust="spacingAndGlyphs"
text-anchor="middle" opacity="0">Display_7Segment:MAN3620A</text>
<g class="stroked-text"><desc>Display_7Segment:MAN3620A</desc>
<path d="M9.6256 36.7301
L9.6256 35.4601
" />
<path d="M9.6256 35.4601
L9.9280 35.4601
" />
<path d="M9.9280 35.4601
L10.1094 35.5206
" />
<path d="M10.1094 35.5206
L10.2304 35.6416
" />
<path d="M10.2304 35.6416
L10.2909 35.7625
" />
<path d="M10.2909 35.7625
L10.3513 36.0044
" />
<path d="M10.3513 36.0044
L10.3513 36.1858
" />
<path d="M10.3513 36.1858
L10.2909 36.4277
" />
<path d="M10.2909 36.4277
L10.2304 36.5487
" />
<path d="M10.2304 36.5487
L10.1094 36.6697
" />
<path d="M10.1094 36.6697
L9.9280 36.7301
" />
<path d="M9.9280 36.7301
L9.6256 36.7301
" />
<path d="M10.8956 36.7301
L10.8956 35.8835
" />
<path d="M10.8956 35.4601
L10.8352 35.5206
" />
<path d="M10.8352 35.5206
L10.8956 35.5811
" />
<path d="M10.8956 35.5811
L10.9561 35.5206
" />
<path d="M10.9561 35.5206
L10.8956 35.4601
" />
<path d="M10.8956 35.4601
L10.8956 35.5811
" />
<path d="M11.4400 36.6697
L11.5609 36.7301
" />
<path d="M11.5609 36.7301
L11.8028 36.7301
" />
<path d="M11.8028 36.7301
L11.9238 36.6697
" />
<path d="M11.9238 36.6697
L11.9842 36.5487
" />
<path d="M11.9842 36.5487
L11.9842 36.4882
" />
<path d="M11.9842 36.4882
L11.9238 36.3673
" />
<path d="M11.9238 36.3673
L11.8028 36.3068
" />
<path d="M11.8028 36.3068
L11.6214 36.3068
" />
<path d="M11.6214 36.3068
L11.5004 36.2463
" />
<path d="M11.5004 36.2463
L11.4400 36.1254
" />
<path d="M11.4400 36.1254
L11.4400 36.0649
" />
<path d="M11.4400 36.0649
L11.5004 35.9439
" />
<path d="M11.5004 35.9439
L11.6214 35.8835
" />
<path d="M11.6214 35.8835
L11.8028 35.8835
" />
<path d="M11.8028 35.8835
L11.9238 35.9439
" />
<path d="M12.5285 35.8835
L12.5285 37.1535
" />
<path d="M12.5285 35.9439
L12.6495 35.8835
" />
<path d="M12.6495 35.8835
L12.8914 35.8835
" />
<path d="M12.8914 35.8835
L13.0123 35.9439
" />
<path d="M13.0123 35.9439
L13.0728 36.0044
" />
<path d="M13.0728 36.0044
L13.1333 36.1254
" />
<path d="M13.1333 36.1254
L13.1333 36.4882
" />
<path d="M13.1333 36.4882
L13.0728 36.6092
" />
<path d="M13.0728 36.6092
L13.0123 36.6697
" />
<path d="M13.0123 36.6697
L12.8914 36.7301
" />
<path d="M12.8914 36.7301
L12.6495 36.7301
" />
<path d="M12.6495 36.7301
L12.5285 36.6697
" />
<path d="M13.8590 36.7301
L13.7380 36.6697
" />
<path d="M13.7380 36.6697
L13.6775 36.5487
" />
<path d="M13.6775 36.5487
L13.6775 35.4601
" />
<path d="M14.8870 36.7301
L14.8870 36.0649
" />
<path d="M14.8870 36.0649
L14.8265 35.9439
" />
<path d="M14.8265 35.9439
L14.7056 35.8835
" />
<path d="M14.7056 35.8835
L14.4637 35.8835
" />
<path d="M14.4637 35.8835
L14.3427 35.9439
" />
<path d="M14.8870 36.6697
L14.7661 36.7301
" />
<path d="M14.7661 36.7301
L14.4637 36.7301
" />
<path d="M14.4637 36.7301
L14.3427 36.6697
" />
<path d="M14.3427 36.6697
L14.2823 36.5487
" />
<path d="M14.2823 36.5487
L14.2823 36.4277
" />
<path d="M14.2823 36.4277
L14.3427 36.3068
" />
<path d="M14.3427 36.3068
L14.4637 36.2463
" />
<path d="M14.4637 36.2463
L14.7661 36.2463
" />
<path d="M14.7661 36.2463
L14.8870 36.1858
" />
<path d="M15.3708 35.8835
L15.6732 36.7301
" />
<path d="M15.9755 35.8835
L15.6732 36.7301
" />
<path d="M15.6732 36.7301
L15.5522 37.0325
" />
<path d="M15.5522 37.0325
L15.4917 37.0930
" />
<path d="M15.4917 37.0930
L15.3708 37.1535
" />
<path d="M16.1570 36.8511
L17.1246 36.8511
" />
<path d="M17.3060 35.4601
L18.1526 35.4601
" />
<path d="M18.1526 35.4601
L17.6084 36.7301
" />
<path d="M18.5760 36.6697
L18.7574 36.7301
" />
<path d="M18.7574 36.7301
L19.0598 36.7301
" />
<path d="M19.0598 36.7301
L19.1807 36.6697
" />
<path d="M19.1807 36.6697
L19.2412 36.6092
" />
<path d="M19.2412 36.6092
L19.3017 36.4882
" />
<path d="M19.3017 36.4882
L19.3017 36.3673
" />
<path d="M19.3017 36.3673
L19.2412 36.2463
" />
<path d="M19.2412 36.2463
L19.1807 36.1858
" />
<path d="M19.1807 36.1858
L19.0598 36.1254
" />
<path d="M19.0598 36.1254
L18.8179 36.0649
" />
<path d="M18.8179 36.0649
L18.6969 36.0044
" />
<path d="M18.6969 36.0044
L18.6364 35.9439
" />
<path d="M18.6364 35.9439
L18.5760 35.8230
" />
<path d="M18.5760 35.8230
L18.5760 35.7020
" />
<path d="M18.5760 35.7020
L18.6364 35.5811
" />
<path d="M18.6364 35.5811
L18.6969 35.5206
" />
<path d="M18.6969 35.5206
L18.8179 35.4601
" />
<path d="M18.8179 35.4601
L19.1202 35.4601
" />
<path d="M19.1202 35.4601
L19.3017 35.5206
" />
<path d="M20.3297 36.6697
L20.2088 36.7301
" />
<path d="M20.2088 36.7301
L19.9669 36.7301
" />
<path d="M19.9669 36.7301
L19.8459 36.6697
" />
<path d="M19.8459 36.6697
L19.7855 36.5487
" />
<path d="M19.7855 36.5487
L19.7855 36.0649
" />
<path d="M19.7855 36.0649
L19.8459 35.9439
" />
<path d="M19.8459 35.9439
L19.9669 35.8835
" />
<path d="M19.9669 35.8835
L20.2088 35.8835
" />
<path d="M20.2088 35.8835
L20.3297 35.9439
" />
<path d="M20.3297 35.9439
L20.3902 36.0649
" />
<path d="M20.3902 36.0649
L20.3902 36.1858
" />
<path d="M20.3902 36.1858
L19.7855 36.3068
" />
<path d="M21.4788 35.8835
L21.4788 36.9116
" />
<path d="M21.4788 36.9116
L21.4183 37.0325
" />
<path d="M21.4183 37.0325
L21.3579 37.0930
" />
<path d="M21.3579 37.0930
L21.2369 37.1535
" />
<path d="M21.2369 37.1535
L21.0555 37.1535
" />
<path d="M21.0555 37.1535
L20.9345 37.0930
" />
<path d="M21.4788 36.6697
L21.3579 36.7301
" />
<path d="M21.3579 36.7301
L21.1160 36.7301
" />
<path d="M21.1160 36.7301
L20.9950 36.6697
" />
<path d="M20.9950 36.6697
L20.9345 36.6092
" />
<path d="M20.9345 36.6092
L20.8741 36.4882
" />
<path d="M20.8741 36.4882
L20.8741 36.1254
" />
<path d="M20.8741 36.1254
L20.9345 36.0044
" />
<path d="M20.9345 36.0044
L20.9950 35.9439
" />
<path d="M20.9950 35.9439
L21.1160 35.8835
" />
<path d="M21.1160 35.8835
L21.3579 35.8835
" />
<path d="M21.3579 35.8835
L21.4788 35.9439
" />
<path d="M22.0835 36.7301
L22.0835 35.8835
" />
<path d="M22.0835 36.0044
L22.1440 35.9439
" />
<path d="M22.1440 35.9439
L22.2650 35.8835
" />
<path d="M22.2650 35.8835
L22.4464 35.8835
" />
<path d="M22.4464 35.8835
L22.5673 35.9439
" />
<path d="M22.5673 35.9439
L22.6278 36.0649
" />
<path d="M22.6278 36.0649
L22.6278 36.7301
" />
<path d="M22.6278 36.0649
L22.6883 35.9439
" />
<path d="M22.6883 35.9439
L22.8092 35.8835
" />
<path d="M22.8092 35.8835
L22.9907 35.8835
" />
<path d="M22.9907 35.8835
L23.1116 35.9439
" />
<path d="M23.1116 35.9439
L23.1721 36.0649
" />
<path d="M23.1721 36.0649
L23.1721 36.7301
" />
<path d="M24.2606 36.6697
L24.1397 36.7301
" />
<path d="M24.1397 36.7301
L23.8978 36.7301
" />
<path d="M23.8978 36.7301
L23.7768 36.6697
" />
<path d="M23.7768 36.6697
L23.7164 36.5487
" />
<path d="M23.7164 36.5487
L23.7164 36.0649
" />
<path d="M23.7164 36.0649
L23.7768 35.9439
" />
<path d="M23.7768 35.9439
L23.8978 35.8835
" />
<path d="M23.8978 35.8835
L24.1397 35.8835
" />
<path d="M24.1397 35.8835
L24.2606 35.9439
" />
<path d="M24.2606 35.9439
L24.3211 36.0649
" />
<path d="M24.3211 36.0649
L24.3211 36.1858
" />
<path d="M24.3211 36.1858
L23.7164 36.3068
" />
<path d="M24.8654 35.8835
L24.8654 36.7301
" />
<path d="M24.8654 36.0044
L24.9259 35.9439
" />
<path d="M24.9259 35.9439
L25.0469 35.8835
" />
<path d="M25.0469 35.8835
L25.2283 35.8835
" />
<path d="M25.2283 35.8835
L25.3492 35.9439
" />
<path d="M25.3492 35.9439
L25.4097 36.0649
" />
<path d="M25.4097 36.0649
L25.4097 36.7301
" />
<path d="M25.8330 35.8835
L26.3168 35.8835
" />
<path d="M26.0144 35.4601
L26.0144 36.5487
" />
<path d="M26.0144 36.5487
L26.0749 36.6697
" />
<path d="M26.0749 36.6697
L26.1959 36.7301
" />
<path d="M26.1959 36.7301
L26.3168 36.7301
" />
<path d="M26.7401 36.6092
L26.8006 36.6697
" />
<path d="M26.8006 36.6697
L26.7401 36.7301
" />
<path d="M26.7401 36.7301
L26.6797 36.6697
" />
<path d="M26.6797 36.6697
L26.7401 36.6092
" />
<path d="M26.7401 36.6092
L26.7401 36.7301
" />
<path d="M26.7401 35.9439
L26.8006 36.0044
" />
<path d="M26.8006 36.0044
L26.7401 36.0649
" />
<path d="M26.7401 36.0649
L26.6797 36.0044
" />
<path d="M26.6797 36.0044
L26.7401 35.9439
" />
<path d="M26.7401 35.9439
L26.7401 36.0649
" />
<path d="M27.3449 36.7301
L27.3449 35.4601
" />
<path d="M27.3449 35.4601
L27.7683 36.3673
" />
<path d="M27.7683 36.3673
L28.1916 35.4601
" />
<path d="M28.1916 35.4601
L28.1916 36.7301
" />
<path d="M28.7359 36.3673
L29.3406 36.3673
" />
<path d="M28.6149 36.7301
L29.0382 35.4601
" />
<path d="M29.0382 35.4601
L29.4616 36.7301
" />
<path d="M29.8849 36.7301
L29.8849 35.4601
" />
<path d="M29.8849 35.4601
L30.6106 36.7301
" />
<path d="M30.6106 36.7301
L30.6106 35.4601
" />
<path d="M31.0945 35.4601
L31.8807 35.4601
" />
<path d="M31.8807 35.4601
L31.4573 35.9439
" />
<path d="M31.4573 35.9439
L31.6388 35.9439
" />
<path d="M31.6388 35.9439
L31.7597 36.0044
" />
<path d="M31.7597 36.0044
L31.8202 36.0649
" />
<path d="M31.8202 36.0649
L31.8807 36.1858
" />
<path d="M31.8807 36.1858
L31.8807 36.4882
" />
<path d="M31.8807 36.4882
L31.8202 36.6092
" />
<path d="M31.8202 36.6092
L31.7597 36.6697
" />
<path d="M31.7597 36.6697
L31.6388 36.7301
" />
<path d="M31.6388 36.7301
L31.2759 36.7301
" />
<path d="M31.2759 36.7301
L31.1550 36.6697
" />
<path d="M31.1550 36.6697
L31.0945 36.6092
" />
<path d="M32.9692 35.4601
L32.7273 35.4601
" />
<path d="M32.7273 35.4601
L32.6064 35.5206
" />
<path d="M32.6064 35.5206
L32.5459 35.5811
" />
<path d="M32.5459 35.5811
L32.4249 35.7625
" />
<path d="M32.4249 35.7625
L32.3645 36.0044
" />
<path d="M32.3645 36.0044
L32.3645 36.4882
" />
<path d="M32.3645 36.4882
L32.4249 36.6092
" />
<path d="M32.4249 36.6092
L32.4854 36.6697
" />
<path d="M32.4854 36.6697
L32.6064 36.7301
" />
<path d="M32.6064 36.7301
L32.8483 36.7301
" />
<path d="M32.8483 36.7301
L32.9692 36.6697
" />
<path d="M32.9692 36.6697
L33.0297 36.6092
" />
<path d="M33.0297 36.6092
L33.0902 36.4882
" />
<path d="M33.0902 36.4882
L33.0902 36.1858
" />
<path d="M33.0902 36.1858
L33.0297 36.0649
" />
<path d="M33.0297 36.0649
L32.9692 36.0044
" />
<path d="M32.9692 36.0044
L32.8483 35.9439
" />
<path d="M32.8483 35.9439
L32.6064 35.9439
" />
<path d="M32.6064 35.9439
L32.4854 36.0044
" />
<path d="M32.4854 36.0044
L32.4249 36.0649
" />
<path d="M32.4249 36.0649
L32.3645 36.1858
" />
<path d="M33.5740 35.5811
L33.6344 35.5206
" />
<path d="M33.6344 35.5206
L33.7554 35.4601
" />
<path d="M33.7554 35.4601
L34.0578 35.4601
" />
<path d="M34.0578 35.4601
L34.1787 35.5206
" />
<path d="M34.1787 35.5206
L34.2392 35.5811
" />
<path d="M34.2392 35.5811
L34.2997 35.7020
" />
<path d="M34.2997 35.7020
L34.2997 35.8230
" />
<path d="M34.2997 35.8230
L34.2392 36.0044
" />
<path d="M34.2392 36.0044
L33.5135 36.7301
" />
<path d="M33.5135 36.7301
L34.2997 36.7301
" />
<path d="M35.0858 35.4601
L35.2068 35.4601
" />
<path d="M35.2068 35.4601
L35.3277 35.5206
" />
<path d="M35.3277 35.5206
L35.3882 35.5811
" />
<path d="M35.3882 35.5811
L35.4487 35.7020
" />
<path d="M35.4487 35.7020
L35.5092 35.9439
" />
<path d="M35.5092 35.9439
L35.5092 36.2463
" />
<path d="M35.5092 36.2463
L35.4487 36.4882
" />
<path d="M35.4487 36.4882
L35.3882 36.6092
" />
<path d="M35.3882 36.6092
L35.3277 36.6697
" />
<path d="M35.3277 36.6697
L35.2068 36.7301
" />
<path d="M35.2068 36.7301
L35.0858 36.7301
" />
<path d="M35.0858 36.7301
L34.9649 36.6697
" />
<path d="M34.9649 36.6697
L34.9044 36.6092
" />
<path d="M34.9044 36.6092
L34.8439 36.4882
" />
<path d="M34.8439 36.4882
L34.7835 36.2463
" />
<path d="M34.7835 36.2463
L34.7835 35.9439
" />
<path d="M34.7835 35.9439
L34.8439 35.7020
" />
<path d="M34.8439 35.7020
L34.9044 35.5811
" />
<path d="M34.9044 35.5811
L34.9649 35.5206
" />
<path d="M34.9649 35.5206
L35.0858 35.4601
" />
<path d="M35.9930 36.3673
L36.5977 36.3673
" />
<path d="M35.8720 36.7301
L36.2953 35.4601
" />
<path d="M36.2953 35.4601
L36.7187 36.7301
" />
</g><text x="62.6388" y="10.1159"
textLength="77.3894" font-size="1.6933" lengthAdjust="spacingAndGlyphs"
text-anchor="middle" opacity="0">https://www.digchip.com/datasheets/parts/datasheet/161/MAN3640A-pdf.php</text>
<g class="stroked-text"><desc>https://www.digchip.com/datasheets/parts/datasheet/161/MAN3640A-pdf.php</desc>
<path d="M24.3576 10.0601
L24.3576 8.7901
" />
<path d="M24.9019 10.0601
L24.9019 9.3949
" />
<path d="M24.9019 9.3949
L24.8414 9.2739
" />
<path d="M24.8414 9.2739
L24.7205 9.2135
" />
<path d="M24.7205 9.2135
L24.5391 9.2135
" />
<path d="M24.5391 9.2135
L24.4181 9.2739
" />
<path d="M24.4181 9.2739
L24.3576 9.3344
" />
<path d="M25.3252 9.2135
L25.8090 9.2135
" />
<path d="M25.5066 8.7901
L25.5066 9.8787
" />
<path d="M25.5066 9.8787
L25.5671 9.9997
" />
<path d="M25.5671 9.9997
L25.6881 10.0601
" />
<path d="M25.6881 10.0601
L25.8090 10.0601
" />
<path d="M26.0509 9.2135
L26.5347 9.2135
" />
<path d="M26.2323 8.7901
L26.2323 9.8787
" />
<path d="M26.2323 9.8787
L26.2928 9.9997
" />
<path d="M26.2928 9.9997
L26.4138 10.0601
" />
<path d="M26.4138 10.0601
L26.5347 10.0601
" />
<path d="M26.9580 9.2135
L26.9580 10.4835
" />
<path d="M26.9580 9.2739
L27.0790 9.2135
" />
<path d="M27.0790 9.2135
L27.3209 9.2135
" />
<path d="M27.3209 9.2135
L27.4418 9.2739
" />
<path d="M27.4418 9.2739
L27.5023 9.3344
" />
<path d="M27.5023 9.3344
L27.5628 9.4554
" />
<path d="M27.5628 9.4554
L27.5628 9.8182
" />
<path d="M27.5628 9.8182
L27.5023 9.9392
" />
<path d="M27.5023 9.9392
L27.4418 9.9997
" />
<path d="M27.4418 9.9997
L27.3209 10.0601
" />
<path d="M27.3209 10.0601
L27.0790 10.0601
" />
<path d="M27.0790 10.0601
L26.9580 9.9997
" />
<path d="M28.0466 9.9997
L28.1675 10.0601
" />
<path d="M28.1675 10.0601
L28.4094 10.0601
" />
<path d="M28.4094 10.0601
L28.5304 9.9997
" />
<path d="M28.5304 9.9997
L28.5908 9.8787
" />
<path d="M28.5908 9.8787
L28.5908 9.8182
" />
<path d="M28.5908 9.8182
L28.5304 9.6973
" />
<path d="M28.5304 9.6973
L28.4094 9.6368
" />
<path d="M28.4094 9.6368
L28.2280 9.6368
" />
<path d="M28.2280 9.6368
L28.1070 9.5763
" />
<path d="M28.1070 9.5763
L28.0466 9.4554
" />
<path d="M28.0466 9.4554
L28.0466 9.3949
" />
<path d="M28.0466 9.3949
L28.1070 9.2739
" />
<path d="M28.1070 9.2739
L28.2280 9.2135
" />
<path d="M28.2280 9.2135
L28.4094 9.2135
" />
<path d="M28.4094 9.2135
L28.5304 9.2739
" />
<path d="M29.1351 9.9392
L29.1956 9.9997
" />
<path d="M29.1956 9.9997
L29.1351 10.0601
" />
<path d="M29.1351 10.0601
L29.0747 9.9997
" />
<path d="M29.0747 9.9997
L29.1351 9.9392
" />
<path d="M29.1351 9.9392
L29.1351 10.0601
" />
<path d="M29.1351 9.2739
L29.1956 9.3344
" />
<path d="M29.1956 9.3344
L29.1351 9.3949
" />
<path d="M29.1351 9.3949
L29.0747 9.3344
" />
<path d="M29.0747 9.3344
L29.1351 9.2739
" />
<path d="M29.1351 9.2739
L29.1351 9.3949
" />
<path d="M30.6471 8.7297
L29.5585 10.3625
" />
<path d="M31.9776 8.7297
L30.8890 10.3625
" />
<path d="M32.2800 9.2135
L32.5219 10.0601
" />
<path d="M32.5219 10.0601
L32.7638 9.4554
" />
<path d="M32.7638 9.4554
L33.0057 10.0601
" />
<path d="M33.0057 10.0601
L33.2476 9.2135
" />
<path d="M33.6105 9.2135
L33.8524 10.0601
" />
<path d="M33.8524 10.0601
L34.0943 9.4554
" />
<path d="M34.0943 9.4554
L34.3362 10.0601
" />
<path d="M34.3362 10.0601
L34.5781 9.2135
" />
<path d="M34.9410 9.2135
L35.1829 10.0601
" />
<path d="M35.1829 10.0601
L35.4248 9.4554
" />
<path d="M35.4248 9.4554
L35.6667 10.0601
" />
<path d="M35.6667 10.0601
L35.9086 9.2135
" />
<path d="M36.3924 9.9392
L36.4529 9.9997
" />
<path d="M36.4529 9.9997
L36.3924 10.0601
" />
<path d="M36.3924 10.0601
L36.3320 9.9997
" />
<path d="M36.3320 9.9997
L36.3924 9.9392
" />
<path d="M36.3924 9.9392
L36.3924 10.0601
" />
<path d="M37.5415 10.0601
L37.5415 8.7901
" />
<path d="M37.5415 9.9997
L37.4206 10.0601
" />
<path d="M37.4206 10.0601
L37.1787 10.0601
" />
<path d="M37.1787 10.0601
L37.0577 9.9997
" />
<path d="M37.0577 9.9997
L36.9972 9.9392
" />
<path d="M36.9972 9.9392
L36.9368 9.8182
" />
<path d="M36.9368 9.8182
L36.9368 9.4554
" />
<path d="M36.9368 9.4554
L36.9972 9.3344
" />
<path d="M36.9972 9.3344
L37.0577 9.2739
" />
<path d="M37.0577 9.2739
L37.1787 9.2135
" />
<path d="M37.1787 9.2135
L37.4206 9.2135
" />
<path d="M37.4206 9.2135
L37.5415 9.2739
" />
<path d="M38.1462 10.0601
L38.1462 9.2135
" />
<path d="M38.1462 8.7901
L38.0858 8.8506
" />
<path d="M38.0858 8.8506
L38.1462 8.9111
" />
<path d="M38.1462 8.9111
L38.2067 8.8506
" />
<path d="M38.2067 8.8506
L38.1462 8.7901
" />
<path d="M38.1462 8.7901
L38.1462 8.9111
" />
<path d="M39.2953 9.2135
L39.2953 10.2416
" />
<path d="M39.2953 10.2416
L39.2348 10.3625
" />
<path d="M39.2348 10.3625
L39.1744 10.4230
" />
<path d="M39.1744 10.4230
L39.0534 10.4835
" />
<path d="M39.0534 10.4835
L38.8720 10.4835
" />
<path d="M38.8720 10.4835
L38.7510 10.4230
" />
<path d="M39.2953 9.9997
L39.1744 10.0601
" />
<path d="M39.1744 10.0601
L38.9325 10.0601
" />
<path d="M38.9325 10.0601
L38.8115 9.9997
" />
<path d="M38.8115 9.9997
L38.7510 9.9392
" />
<path d="M38.7510 9.9392
L38.6906 9.8182
" />
<path d="M38.6906 9.8182
L38.6906 9.4554
" />
<path d="M38.6906 9.4554
L38.7510 9.3344
" />
<path d="M38.7510 9.3344
L38.8115 9.2739
" />
<path d="M38.8115 9.2739
L38.9325 9.2135
" />
<path d="M38.9325 9.2135
L39.1744 9.2135
" />
<path d="M39.1744 9.2135
L39.2953 9.2739
" />
<path d="M40.4443 9.9997
L40.3234 10.0601
" />
<path d="M40.3234 10.0601
L40.0815 10.0601
" />
<path d="M40.0815 10.0601
L39.9605 9.9997
" />
<path d="M39.9605 9.9997
L39.9000 9.9392
" />
<path d="M39.9000 9.9392
L39.8396 9.8182
" />
<path d="M39.8396 9.8182
L39.8396 9.4554
" />
<path d="M39.8396 9.4554
L39.9000 9.3344
" />
<path d="M39.9000 9.3344
L39.9605 9.2739
" />
<path d="M39.9605 9.2739
L40.0815 9.2135
" />
<path d="M40.0815 9.2135
L40.3234 9.2135
" />
<path d="M40.3234 9.2135
L40.4443 9.2739
" />
<path d="M40.9886 10.0601
L40.9886 8.7901
" />
<path d="M41.5329 10.0601
L41.5329 9.3949
" />
<path d="M41.5329 9.3949
L41.4724 9.2739
" />
<path d="M41.4724 9.2739
L41.3515 9.2135
" />
<path d="M41.3515 9.2135
L41.1701 9.2135
" />
<path d="M41.1701 9.2135
L41.0491 9.2739
" />
<path d="M41.0491 9.2739
L40.9886 9.3344
" />
<path d="M42.1376 10.0601
L42.1376 9.2135
" />
<path d="M42.1376 8.7901
L42.0772 8.8506
" />
<path d="M42.0772 8.8506
L42.1376 8.9111
" />
<path d="M42.1376 8.9111
L42.1981 8.8506
" />
<path d="M42.1981 8.8506
L42.1376 8.7901
" />
<path d="M42.1376 8.7901
L42.1376 8.9111
" />
<path d="M42.7424 9.2135
L42.7424 10.4835
" />
<path d="M42.7424 9.2739
L42.8634 9.2135
" />
<path d="M42.8634 9.2135
L43.1053 9.2135
" />
<path d="M43.1053 9.2135
L43.2262 9.2739
" />
<path d="M43.2262 9.2739
L43.2867 9.3344
" />
<path d="M43.2867 9.3344
L43.3472 9.4554
" />
<path d="M43.3472 9.4554
L43.3472 9.8182
" />
<path d="M43.3472 9.8182
L43.2867 9.9392
" />
<path d="M43.2867 9.9392
L43.2262 9.9997
" />
<path d="M43.2262 9.9997
L43.1053 10.0601
" />
<path d="M43.1053 10.0601
L42.8634 10.0601
" />
<path d="M42.8634 10.0601
L42.7424 9.9997
" />
<path d="M43.8914 9.9392
L43.9519 9.9997
" />
<path d="M43.9519 9.9997
L43.8914 10.0601
" />
<path d="M43.8914 10.0601
L43.8310 9.9997
" />
<path d="M43.8310 9.9997
L43.8914 9.9392
" />
<path d="M43.8914 9.9392
L43.8914 10.0601
" />
<path d="M45.0405 9.9997
L44.9196 10.0601
" />
<path d="M44.9196 10.0601
L44.6777 10.0601
" />
<path d="M44.6777 10.0601
L44.5567 9.9997
" />
<path d="M44.5567 9.9997
L44.4962 9.9392
" />
<path d="M44.4962 9.9392
L44.4358 9.8182
" />
<path d="M44.4358 9.8182
L44.4358 9.4554
" />
<path d="M44.4358 9.4554
L44.4962 9.3344
" />
<path d="M44.4962 9.3344
L44.5567 9.2739
" />
<path d="M44.5567 9.2739
L44.6777 9.2135
" />
<path d="M44.6777 9.2135
L44.9196 9.2135
" />
<path d="M44.9196 9.2135
L45.0405 9.2739
" />
<path d="M45.7663 10.0601
L45.6453 9.9997
" />
<path d="M45.6453 9.9997
L45.5848 9.9392
" />
<path d="M45.5848 9.9392
L45.5244 9.8182
" />
<path d="M45.5244 9.8182
L45.5244 9.4554
" />
<path d="M45.5244 9.4554
L45.5848 9.3344
" />
<path d="M45.5848 9.3344
L45.6453 9.2739
" />
<path d="M45.6453 9.2739
L45.7663 9.2135
" />
<path d="M45.7663 9.2135
L45.9477 9.2135
" />
<path d="M45.9477 9.2135
L46.0686 9.2739
" />
<path d="M46.0686 9.2739
L46.1291 9.3344
" />
<path d="M46.1291 9.3344
L46.1896 9.4554
" />
<path d="M46.1896 9.4554
L46.1896 9.8182
" />
<path d="M46.1896 9.8182
L46.1291 9.9392
" />
<path d="M46.1291 9.9392
L46.0686 9.9997
" />
<path d="M46.0686 9.9997
L45.9477 10.0601
" />
<path d="M45.9477 10.0601
L45.7663 10.0601
" />
<path d="M46.7338 10.0601
L46.7338 9.2135
" />
<path d="M46.7338 9.3344
L46.7943 9.2739
" />
<path d="M46.7943 9.2739
L46.9153 9.2135
" />
<path d="M46.9153 9.2135
L47.0967 9.2135
" />
<path d="M47.0967 9.2135
L47.2176 9.2739
" />
<path d="M47.2176 9.2739
L47.2781 9.3949
" />
<path d="M47.2781 9.3949
L47.2781 10.0601
" />
<path d="M47.2781 9.3949
L47.3386 9.2739
" />
<path d="M47.3386 9.2739
L47.4595 9.2135
" />
<path d="M47.4595 9.2135
L47.6410 9.2135
" />
<path d="M47.6410 9.2135
L47.7619 9.2739
" />
<path d="M47.7619 9.2739
L47.8224 9.3949
" />
<path d="M47.8224 9.3949
L47.8224 10.0601
" />
<path d="M49.3343 8.7297
L48.2457 10.3625
" />
<path d="M50.3019 10.0601
L50.3019 8.7901
" />
<path d="M50.3019 9.9997
L50.1810 10.0601
" />
<path d="M50.1810 10.0601
L49.9391 10.0601
" />
<path d="M49.9391 10.0601
L49.8181 9.9997
" />
<path d="M49.8181 9.9997
L49.7576 9.9392
" />
<path d="M49.7576 9.9392
L49.6972 9.8182
" />
<path d="M49.6972 9.8182
L49.6972 9.4554
" />
<path d="M49.6972 9.4554
L49.7576 9.3344
" />
<path d="M49.7576 9.3344
L49.8181 9.2739
" />
<path d="M49.8181 9.2739
L49.9391 9.2135
" />
<path d="M49.9391 9.2135
L50.1810 9.2135
" />
<path d="M50.1810 9.2135
L50.3019 9.2739
" />
<path d="M51.4509 10.0601
L51.4509 9.3949
" />
<path d="M51.4509 9.3949
L51.3904 9.2739
" />
<path d="M51.3904 9.2739
L51.2695 9.2135
" />
<path d="M51.2695 9.2135
L51.0276 9.2135
" />
<path d="M51.0276 9.2135
L50.9066 9.2739
" />
<path d="M51.4509 9.9997
L51.3300 10.0601
" />
<path d="M51.3300 10.0601
L51.0276 10.0601
" />
<path d="M51.0276 10.0601
L50.9066 9.9997
" />
<path d="M50.9066 9.9997
L50.8462 9.8787
" />
<path d="M50.8462 9.8787
L50.8462 9.7577
" />
<path d="M50.8462 9.7577
L50.9066 9.6368
" />
<path d="M50.9066 9.6368
L51.0276 9.5763
" />
<path d="M51.0276 9.5763
L51.3300 9.5763
" />
<path d="M51.3300 9.5763
L51.4509 9.5158
" />
<path d="M51.8742 9.2135
L52.3580 9.2135
" />
<path d="M52.0556 8.7901
L52.0556 9.8787
" />
<path d="M52.0556 9.8787
L52.1161 9.9997
" />
<path d="M52.1161 9.9997
L52.2371 10.0601
" />
<path d="M52.2371 10.0601
L52.3580 10.0601
" />
<path d="M53.3256 10.0601
L53.3256 9.3949
" />
<path d="M53.3256 9.3949
L53.2651 9.2739
" />
<path d="M53.2651 9.2739
L53.1442 9.2135
" />
<path d="M53.1442 9.2135
L52.9023 9.2135
" />
<path d="M52.9023 9.2135
L52.7813 9.2739
" />
<path d="M53.3256 9.9997
L53.2047 10.0601
" />
<path d="M53.2047 10.0601
L52.9023 10.0601
" />
<path d="M52.9023 10.0601
L52.7813 9.9997
" />
<path d="M52.7813 9.9997
L52.7209 9.8787
" />
<path d="M52.7209 9.8787
L52.7209 9.7577
" />
<path d="M52.7209 9.7577
L52.7813 9.6368
" />
<path d="M52.7813 9.6368
L52.9023 9.5763
" />
<path d="M52.9023 9.5763
L53.2047 9.5763
" />
<path d="M53.2047 9.5763
L53.3256 9.5158
" />
<path d="M53.8699 9.9997
L53.9908 10.0601
" />
<path d="M53.9908 10.0601
L54.2327 10.0601
" />
<path d="M54.2327 10.0601
L54.3537 9.9997
" />
<path d="M54.3537 9.9997
L54.4141 9.8787
" />
<path d="M54.4141 9.8787
L54.4141 9.8182
" />
<path d="M54.4141 9.8182
L54.3537 9.6973
" />
<path d="M54.3537 9.6973
L54.2327 9.6368
" />
<path d="M54.2327 9.6368
L54.0513 9.6368
" />
<path d="M54.0513 9.6368
L53.9303 9.5763
" />
<path d="M53.9303 9.5763
L53.8699 9.4554
" />
<path d="M53.8699 9.4554
L53.8699 9.3949
" />
<path d="M53.8699 9.3949
L53.9303 9.2739
" />
<path d="M53.9303 9.2739
L54.0513 9.2135
" />
<path d="M54.0513 9.2135
L54.2327 9.2135
" />
<path d="M54.2327 9.2135
L54.3537 9.2739
" />
<path d="M54.9584 10.0601
L54.9584 8.7901
" />
<path d="M55.5027 10.0601
L55.5027 9.3949
" />
<path d="M55.5027 9.3949
L55.4422 9.2739
" />
<path d="M55.4422 9.2739
L55.3213 9.2135
" />
<path d="M55.3213 9.2135
L55.1399 9.2135
" />
<path d="M55.1399 9.2135
L55.0189 9.2739
" />
<path d="M55.0189 9.2739
L54.9584 9.3344
" />
<path d="M56.5912 9.9997
L56.4703 10.0601
" />
<path d="M56.4703 10.0601
L56.2284 10.0601
" />
<path d="M56.2284 10.0601
L56.1074 9.9997
" />
<path d="M56.1074 9.9997
L56.0470 9.8787
" />
<path d="M56.0470 9.8787
L56.0470 9.3949
" />
<path d="M56.0470 9.3949
L56.1074 9.2739
" />
<path d="M56.1074 9.2739
L56.2284 9.2135
" />
<path d="M56.2284 9.2135
L56.4703 9.2135
" />
<path d="M56.4703 9.2135
L56.5912 9.2739
" />
<path d="M56.5912 9.2739
L56.6517 9.3949
" />
<path d="M56.6517 9.3949
L56.6517 9.5158
" />
<path d="M56.6517 9.5158
L56.0470 9.6368
" />
<path d="M57.6798 9.9997
L57.5589 10.0601
" />
<path d="M57.5589 10.0601
L57.3170 10.0601
" />
<path d="M57.3170 10.0601
L57.1960 9.9997
" />
<path d="M57.1960 9.9997
L57.1356 9.8787
" />
<path d="M57.1356 9.8787
L57.1356 9.3949
" />
<path d="M57.1356 9.3949
L57.1960 9.2739
" />
<path d="M57.1960 9.2739
L57.3170 9.2135
" />
<path d="M57.3170 9.2135
L57.5589 9.2135
" />
<path d="M57.5589 9.2135
L57.6798 9.2739
" />
<path d="M57.6798 9.2739
L57.7403 9.3949
" />
<path d="M57.7403 9.3949
L57.7403 9.5158
" />
<path d="M57.7403 9.5158
L57.1356 9.6368
" />
<path d="M58.1032 9.2135
L58.5870 9.2135
" />
<path d="M58.2846 8.7901
L58.2846 9.8787
" />
<path d="M58.2846 9.8787
L58.3451 9.9997
" />
<path d="M58.3451 9.9997
L58.4661 10.0601
" />
<path d="M58.4661 10.0601
L58.5870 10.0601
" />
<path d="M58.9499 9.9997
L59.0708 10.0601
" />
<path d="M59.0708 10.0601
L59.3127 10.0601
" />
<path d="M59.3127 10.0601
L59.4337 9.9997
" />
<path d="M59.4337 9.9997
L59.4941 9.8787
" />
<path d="M59.4941 9.8787
L59.4941 9.8182
" />
<path d="M59.4941 9.8182
L59.4337 9.6973
" />
<path d="M59.4337 9.6973
L59.3127 9.6368
" />
<path d="M59.3127 9.6368
L59.1313 9.6368
" />
<path d="M59.1313 9.6368
L59.0103 9.5763
" />
<path d="M59.0103 9.5763
L58.9499 9.4554
" />
<path d="M58.9499 9.4554
L58.9499 9.3949
" />
<path d="M58.9499 9.3949
L59.0103 9.2739
" />
<path d="M59.0103 9.2739
L59.1313 9.2135
" />
<path d="M59.1313 9.2135
L59.3127 9.2135
" />
<path d="M59.3127 9.2135
L59.4337 9.2739
" />
<path d="M60.9456 8.7297
L59.8570 10.3625
" />
<path d="M61.3689 9.2135
L61.3689 10.4835
" />
<path d="M61.3689 9.2739
L61.4899 9.2135
" />
<path d="M61.4899 9.2135
L61.7318 9.2135
" />
<path d="M61.7318 9.2135
L61.8527 9.2739
" />
<path d="M61.8527 9.2739
L61.9132 9.3344
" />
<path d="M61.9132 9.3344
L61.9737 9.4554
" />
<path d="M61.9737 9.4554
L61.9737 9.8182
" />
<path d="M61.9737 9.8182
L61.9132 9.9392
" />
<path d="M61.9132 9.9392
L61.8527 9.9997
" />
<path d="M61.8527 9.9997
L61.7318 10.0601
" />
<path d="M61.7318 10.0601
L61.4899 10.0601
" />
<path d="M61.4899 10.0601
L61.3689 9.9997
" />
<path d="M63.0622 10.0601
L63.0622 9.3949
" />
<path d="M63.0622 9.3949
L63.0017 9.2739
" />
<path d="M63.0017 9.2739
L62.8808 9.2135
" />
<path d="M62.8808 9.2135
L62.6389 9.2135
" />
<path d="M62.6389 9.2135
L62.5179 9.2739
" />
<path d="M63.0622 9.9997
L62.9413 10.0601
" />
<path d="M62.9413 10.0601
L62.6389 10.0601
" />
<path d="M62.6389 10.0601
L62.5179 9.9997
" />
<path d="M62.5179 9.9997
L62.4575 9.8787
" />
<path d="M62.4575 9.8787
L62.4575 9.7577
" />
<path d="M62.4575 9.7577
L62.5179 9.6368
" />
<path d="M62.5179 9.6368
L62.6389 9.5763
" />
<path d="M62.6389 9.5763
L62.9413 9.5763
" />
<path d="M62.9413 9.5763
L63.0622 9.5158
" />
<path d="M63.6669 10.0601
L63.6669 9.2135
" />
<path d="M63.6669 9.4554
L63.7274 9.3344
" />
<path d="M63.7274 9.3344
L63.7879 9.2739
" />
<path d="M63.7879 9.2739
L63.9088 9.2135
" />
<path d="M63.9088 9.2135
L64.0298 9.2135
" />
<path d="M64.2717 9.2135
L64.7555 9.2135
" />
<path d="M64.4531 8.7901
L64.4531 9.8787
" />
<path d="M64.4531 9.8787
L64.5136 9.9997
" />
<path d="M64.5136 9.9997
L64.6346 10.0601
" />
<path d="M64.6346 10.0601
L64.7555 10.0601
" />
<path d="M65.1184 9.9997
L65.2393 10.0601
" />
<path d="M65.2393 10.0601
L65.4812 10.0601
" />
<path d="M65.4812 10.0601
L65.6022 9.9997
" />
<path d="M65.6022 9.9997
L65.6626 9.8787
" />
<path d="M65.6626 9.8787
L65.6626 9.8182
" />
<path d="M65.6626 9.8182
L65.6022 9.6973
" />
<path d="M65.6022 9.6973
L65.4812 9.6368
" />
<path d="M65.4812 9.6368
L65.2998 9.6368
" />
<path d="M65.2998 9.6368
L65.1788 9.5763
" />
<path d="M65.1788 9.5763
L65.1184 9.4554
" />
<path d="M65.1184 9.4554
L65.1184 9.3949
" />
<path d="M65.1184 9.3949
L65.1788 9.2739
" />
<path d="M65.1788 9.2739
L65.2998 9.2135
" />
<path d="M65.2998 9.2135
L65.4812 9.2135
" />
<path d="M65.4812 9.2135
L65.6022 9.2739
" />
<path d="M67.1141 8.7297
L66.0255 10.3625
" />
<path d="M68.0817 10.0601
L68.0817 8.7901
" />
<path d="M68.0817 9.9997
L67.9608 10.0601
" />
<path d="M67.9608 10.0601
L67.7189 10.0601
" />
<path d="M67.7189 10.0601
L67.5979 9.9997
" />
<path d="M67.5979 9.9997
L67.5374 9.9392
" />
<path d="M67.5374 9.9392
L67.4770 9.8182
" />
<path d="M67.4770 9.8182
L67.4770 9.4554
" />
<path d="M67.4770 9.4554
L67.5374 9.3344
" />
<path d="M67.5374 9.3344
L67.5979 9.2739
" />
<path d="M67.5979 9.2739
L67.7189 9.2135
" />
<path d="M67.7189 9.2135
L67.9608 9.2135
" />
<path d="M67.9608 9.2135
L68.0817 9.2739
" />
<path d="M69.2307 10.0601
L69.2307 9.3949
" />
<path d="M69.2307 9.3949
L69.1702 9.2739
" />
<path d="M69.1702 9.2739
L69.0493 9.2135
" />
<path d="M69.0493 9.2135
L68.8074 9.2135
" />
<path d="M68.8074 9.2135
L68.6864 9.2739
" />
<path d="M69.2307 9.9997
L69.1098 10.0601
" />
<path d="M69.1098 10.0601
L68.8074 10.0601
" />
<path d="M68.8074 10.0601
L68.6864 9.9997
" />
<path d="M68.6864 9.9997
L68.6260 9.8787
" />
<path d="M68.6260 9.8787
L68.6260 9.7577
" />
<path d="M68.6260 9.7577
L68.6864 9.6368
" />
<path d="M68.6864 9.6368
L68.8074 9.5763
" />
<path d="M68.8074 9.5763
L69.1098 9.5763
" />
<path d="M69.1098 9.5763
L69.2307 9.5158
" />
<path d="M69.6540 9.2135
L70.1378 9.2135
" />
<path d="M69.8354 8.7901
L69.8354 9.8787
" />
<path d="M69.8354 9.8787
L69.8959 9.9997
" />
<path d="M69.8959 9.9997
L70.0169 10.0601
" />
<path d="M70.0169 10.0601
L70.1378 10.0601
" />
<path d="M71.1054 10.0601
L71.1054 9.3949
" />
<path d="M71.1054 9.3949
L71.0449 9.2739
" />
<path d="M71.0449 9.2739
L70.9240 9.2135
" />
<path d="M70.9240 9.2135
L70.6821 9.2135
" />
<path d="M70.6821 9.2135
L70.5611 9.2739
" />
<path d="M71.1054 9.9997
L70.9845 10.0601
" />
<path d="M70.9845 10.0601
L70.6821 10.0601
" />
<path d="M70.6821 10.0601
L70.5611 9.9997
" />
<path d="M70.5611 9.9997
L70.5007 9.8787
" />
<path d="M70.5007 9.8787
L70.5007 9.7577
" />
<path d="M70.5007 9.7577
L70.5611 9.6368
" />
<path d="M70.5611 9.6368
L70.6821 9.5763
" />
<path d="M70.6821 9.5763
L70.9845 9.5763
" />
<path d="M70.9845 9.5763
L71.1054 9.5158
" />
<path d="M71.6497 9.9997
L71.7706 10.0601
" />
<path d="M71.7706 10.0601
L72.0125 10.0601
" />
<path d="M72.0125 10.0601
L72.1335 9.9997
" />
<path d="M72.1335 9.9997
L72.1939 9.8787
" />
<path d="M72.1939 9.8787
L72.1939 9.8182
" />
<path d="M72.1939 9.8182
L72.1335 9.6973
" />
<path d="M72.1335 9.6973
L72.0125 9.6368
" />
<path d="M72.0125 9.6368
L71.8311 9.6368
" />
<path d="M71.8311 9.6368
L71.7101 9.5763
" />
<path d="M71.7101 9.5763
L71.6497 9.4554
" />
<path d="M71.6497 9.4554
L71.6497 9.3949
" />
<path d="M71.6497 9.3949
L71.7101 9.2739
" />
<path d="M71.7101 9.2739
L71.8311 9.2135
" />
<path d="M71.8311 9.2135
L72.0125 9.2135
" />
<path d="M72.0125 9.2135
L72.1335 9.2739
" />
<path d="M72.7382 10.0601
L72.7382 8.7901
" />
<path d="M73.2825 10.0601
L73.2825 9.3949
" />
<path d="M73.2825 9.3949
L73.2220 9.2739
" />
<path d="M73.2220 9.2739
L73.1011 9.2135
" />
<path d="M73.1011 9.2135
L72.9197 9.2135
" />
<path d="M72.9197 9.2135
L72.7987 9.2739
" />
<path d="M72.7987 9.2739
L72.7382 9.3344
" />
<path d="M74.3710 9.9997
L74.2501 10.0601
" />
<path d="M74.2501 10.0601
L74.0082 10.0601
" />
<path d="M74.0082 10.0601
L73.8872 9.9997
" />
<path d="M73.8872 9.9997
L73.8268 9.8787
" />
<path d="M73.8268 9.8787
L73.8268 9.3949
" />
<path d="M73.8268 9.3949
L73.8872 9.2739
" />
<path d="M73.8872 9.2739
L74.0082 9.2135
" />
<path d="M74.0082 9.2135
L74.2501 9.2135
" />
<path d="M74.2501 9.2135
L74.3710 9.2739
" />
<path d="M74.3710 9.2739
L74.4315 9.3949
" />
<path d="M74.4315 9.3949
L74.4315 9.5158
" />
<path d="M74.4315 9.5158
L73.8268 9.6368
" />
<path d="M75.4596 9.9997
L75.3387 10.0601
" />
<path d="M75.3387 10.0601
L75.0968 10.0601
" />
<path d="M75.0968 10.0601
L74.9758 9.9997
" />
<path d="M74.9758 9.9997
L74.9154 9.8787
" />
<path d="M74.9154 9.8787
L74.9154 9.3949
" />
<path d="M74.9154 9.3949
L74.9758 9.2739
" />
<path d="M74.9758 9.2739
L75.0968 9.2135
" />
<path d="M75.0968 9.2135
L75.3387 9.2135
" />
<path d="M75.3387 9.2135
L75.4596 9.2739
" />
<path d="M75.4596 9.2739
L75.5201 9.3949
" />
<path d="M75.5201 9.3949
L75.5201 9.5158
" />
<path d="M75.5201 9.5158
L74.9154 9.6368
" />
<path d="M75.8830 9.2135
L76.3668 9.2135
" />
<path d="M76.0644 8.7901
L76.0644 9.8787
" />
<path d="M76.0644 9.8787
L76.1249 9.9997
" />
<path d="M76.1249 9.9997
L76.2459 10.0601
" />
<path d="M76.2459 10.0601
L76.3668 10.0601
" />
<path d="M77.6973 8.7297
L76.6087 10.3625
" />
<path d="M78.7859 10.0601
L78.0602 10.0601
" />
<path d="M78.4230 10.0601
L78.4230 8.7901
" />
<path d="M78.4230 8.7901
L78.3021 8.9716
" />
<path d="M78.3021 8.9716
L78.1811 9.0925
" />
<path d="M78.1811 9.0925
L78.0602 9.1530
" />
<path d="M79.8744 8.7901
L79.6325 8.7901
" />
<path d="M79.6325 8.7901
L79.5116 8.8506
" />
<path d="M79.5116 8.8506
L79.4511 8.9111
" />
<path d="M79.4511 8.9111
L79.3301 9.0925
" />
<path d="M79.3301 9.0925
L79.2697 9.3344
" />
<path d="M79.2697 9.3344
L79.2697 9.8182
" />
<path d="M79.2697 9.8182
L79.3301 9.9392
" />
<path d="M79.3301 9.9392
L79.3906 9.9997
" />
<path d="M79.3906 9.9997
L79.5116 10.0601
" />
<path d="M79.5116 10.0601
L79.7535 10.0601
" />
<path d="M79.7535 10.0601
L79.8744 9.9997
" />
<path d="M79.8744 9.9997
L79.9349 9.9392
" />
<path d="M79.9349 9.9392
L79.9954 9.8182
" />
<path d="M79.9954 9.8182
L79.9954 9.5158
" />
<path d="M79.9954 9.5158
L79.9349 9.3949
" />
<path d="M79.9349 9.3949
L79.8744 9.3344
" />
<path d="M79.8744 9.3344
L79.7535 9.2739
" />
<path d="M79.7535 9.2739
L79.5116 9.2739
" />
<path d="M79.5116 9.2739
L79.3906 9.3344
" />
<path d="M79.3906 9.3344
L79.3301 9.3949
" />
<path d="M79.3301 9.3949
L79.2697 9.5158
" />
<path d="M81.2049 10.0601
L80.4792 10.0601
" />
<path d="M80.8420 10.0601
L80.8420 8.7901
" />
<path d="M80.8420 8.7901
L80.7211 8.9716
" />
<path d="M80.7211 8.9716
L80.6001 9.0925
" />
<path d="M80.6001 9.0925
L80.4792 9.1530
" />
<path d="M82.6563 8.7297
L81.5677 10.3625
" />
<path d="M83.0796 10.0601
L83.0796 8.7901
" />
<path d="M83.0796 8.7901
L83.5030 9.6973
" />
<path d="M83.5030 9.6973
L83.9263 8.7901
" />
<path d="M83.9263 8.7901
L83.9263 10.0601
" />
<path d="M84.4706 9.6973
L85.0753 9.6973
" />
<path d="M84.3496 10.0601
L84.7729 8.7901
" />
<path d="M84.7729 8.7901
L85.1963 10.0601
" />
<path d="M85.6196 10.0601
L85.6196 8.7901
" />
<path d="M85.6196 8.7901
L86.3453 10.0601
" />
<path d="M86.3453 10.0601
L86.3453 8.7901
" />
<path d="M86.8292 8.7901
L87.6154 8.7901
" />
<path d="M87.6154 8.7901
L87.1920 9.2739
" />
<path d="M87.1920 9.2739
L87.3735 9.2739
" />
<path d="M87.3735 9.2739
L87.4944 9.3344
" />
<path d="M87.4944 9.3344
L87.5549 9.3949
" />
<path d="M87.5549 9.3949
L87.6154 9.5158
" />
<path d="M87.6154 9.5158
L87.6154 9.8182
" />
<path d="M87.6154 9.8182
L87.5549 9.9392
" />
<path d="M87.5549 9.9392
L87.4944 9.9997
" />
<path d="M87.4944 9.9997
L87.3735 10.0601
" />
<path d="M87.3735 10.0601
L87.0106 10.0601
" />
<path d="M87.0106 10.0601
L86.8897 9.9997
" />
<path d="M86.8897 9.9997
L86.8292 9.9392
" />
<path d="M88.7039 8.7901
L88.4620 8.7901
" />
<path d="M88.4620 8.7901
L88.3411 8.8506
" />
<path d="M88.3411 8.8506
L88.2806 8.9111
" />
<path d="M88.2806 8.9111
L88.1596 9.0925
" />
<path d="M88.1596 9.0925
L88.0992 9.3344
" />
<path d="M88.0992 9.3344
L88.0992 9.8182
" />
<path d="M88.0992 9.8182
L88.1596 9.9392
" />
<path d="M88.1596 9.9392
L88.2201 9.9997
" />
<path d="M88.2201 9.9997
L88.3411 10.0601
" />
<path d="M88.3411 10.0601
L88.5830 10.0601
" />
<path d="M88.5830 10.0601
L88.7039 9.9997
" />
<path d="M88.7039 9.9997
L88.7644 9.9392
" />
<path d="M88.7644 9.9392
L88.8249 9.8182
" />
<path d="M88.8249 9.8182
L88.8249 9.5158
" />
<path d="M88.8249 9.5158
L88.7644 9.3949
" />
<path d="M88.7644 9.3949
L88.7039 9.3344
" />
<path d="M88.7039 9.3344
L88.5830 9.2739
" />
<path d="M88.5830 9.2739
L88.3411 9.2739
" />
<path d="M88.3411 9.2739
L88.2201 9.3344
" />
<path d="M88.2201 9.3344
L88.1596 9.3949
" />
<path d="M88.1596 9.3949
L88.0992 9.5158
" />
<path d="M89.9134 9.2135
L89.9134 10.0601
" />
<path d="M89.6110 8.7297
L89.3087 9.6368
" />
<path d="M89.3087 9.6368
L90.0948 9.6368
" />
<path d="M90.8205 8.7901
L90.9415 8.7901
" />
<path d="M90.9415 8.7901
L91.0624 8.8506
" />
<path d="M91.0624 8.8506
L91.1229 8.9111
" />
<path d="M91.1229 8.9111
L91.1834 9.0320
" />
<path d="M91.1834 9.0320
L91.2439 9.2739
" />
<path d="M91.2439 9.2739
L91.2439 9.5763
" />
<path d="M91.2439 9.5763
L91.1834 9.8182
" />
<path d="M91.1834 9.8182
L91.1229 9.9392
" />
<path d="M91.1229 9.9392
L91.0624 9.9997
" />
<path d="M91.0624 9.9997
L90.9415 10.0601
" />
<path d="M90.9415 10.0601
L90.8205 10.0601
" />
<path d="M90.8205 10.0601
L90.6996 9.9997
" />
<path d="M90.6996 9.9997
L90.6391 9.9392
" />
<path d="M90.6391 9.9392
L90.5786 9.8182
" />
<path d="M90.5786 9.8182
L90.5182 9.5763
" />
<path d="M90.5182 9.5763
L90.5182 9.2739
" />
<path d="M90.5182 9.2739
L90.5786 9.0320
" />
<path d="M90.5786 9.0320
L90.6391 8.9111
" />
<path d="M90.6391 8.9111
L90.6996 8.8506
" />
<path d="M90.6996 8.8506
L90.8205 8.7901
" />
<path d="M91.7277 9.6973
L92.3324 9.6973
" />
<path d="M91.6067 10.0601
L92.0300 8.7901
" />
<path d="M92.0300 8.7901
L92.4534 10.0601
" />
<path d="M92.8767 9.5763
L93.8444 9.5763
" />
<path d="M94.4491 9.2135
L94.4491 10.4835
" />
<path d="M94.4491 9.2739
L94.5701 9.2135
" />
<path d="M94.5701 9.2135
L94.8120 9.2135
" />
<path d="M94.8120 9.2135
L94.9329 9.2739
" />
<path d="M94.9329 9.2739
L94.9934 9.3344
" />
<path d="M94.9934 9.3344
L95.0539 9.4554
" />
<path d="M95.0539 9.4554
L95.0539 9.8182
" />
<path d="M95.0539 9.8182
L94.9934 9.9392
" />
<path d="M94.9934 9.9392
L94.9329 9.9997
" />
<path d="M94.9329 9.9997
L94.8120 10.0601
" />
<path d="M94.8120 10.0601
L94.5701 10.0601
" />
<path d="M94.5701 10.0601
L94.4491 9.9997
" />
<path d="M96.1424 10.0601
L96.1424 8.7901
" />
<path d="M96.1424 9.9997
L96.0215 10.0601
" />
<path d="M96.0215 10.0601
L95.7796 10.0601
" />
<path d="M95.7796 10.0601
L95.6586 9.9997
" />
<path d="M95.6586 9.9997
L95.5981 9.9392
" />
<path d="M95.5981 9.9392
L95.5377 9.8182
" />
<path d="M95.5377 9.8182
L95.5377 9.4554
" />
<path d="M95.5377 9.4554
L95.5981 9.3344
" />
<path d="M95.5981 9.3344
L95.6586 9.2739
" />
<path d="M95.6586 9.2739
L95.7796 9.2135
" />
<path d="M95.7796 9.2135
L96.0215 9.2135
" />
<path d="M96.0215 9.2135
L96.1424 9.2739
" />
<path d="M96.5657 9.2135
L97.0495 9.2135
" />
<path d="M96.7471 10.0601
L96.7471 8.9716
" />
<path d="M96.7471 8.9716
L96.8076 8.8506
" />
<path d="M96.8076 8.8506
L96.9286 8.7901
" />
<path d="M96.9286 8.7901
L97.0495 8.7901
" />
<path d="M97.4728 9.9392
L97.5333 9.9997
" />
<path d="M97.5333 9.9997
L97.4728 10.0601
" />
<path d="M97.4728 10.0601
L97.4124 9.9997
" />
<path d="M97.4124 9.9997
L97.4728 9.9392
" />
<path d="M97.4728 9.9392
L97.4728 10.0601
" />
<path d="M98.0776 9.2135
L98.0776 10.4835
" />
<path d="M98.0776 9.2739
L98.1986 9.2135
" />
<path d="M98.1986 9.2135
L98.4405 9.2135
" />
<path d="M98.4405 9.2135
L98.5614 9.2739
" />
<path d="M98.5614 9.2739
L98.6219 9.3344
" />
<path d="M98.6219 9.3344
L98.6824 9.4554
" />
<path d="M98.6824 9.4554
L98.6824 9.8182
" />
<path d="M98.6824 9.8182
L98.6219 9.9392
" />
<path d="M98.6219 9.9392
L98.5614 9.9997
" />
<path d="M98.5614 9.9997
L98.4405 10.0601
" />
<path d="M98.4405 10.0601
L98.1986 10.0601
" />
<path d="M98.1986 10.0601
L98.0776 9.9997
" />
<path d="M99.2266 10.0601
L99.2266 8.7901
" />
<path d="M99.7709 10.0601
L99.7709 9.3949
" />
<path d="M99.7709 9.3949
L99.7104 9.2739
" />
<path d="M99.7104 9.2739
L99.5895 9.2135
" />
<path d="M99.5895 9.2135
L99.4081 9.2135
" />
<path d="M99.4081 9.2135
L99.2871 9.2739
" />
<path d="M99.2871 9.2739
L99.2266 9.3344
" />
<path d="M100.3756 9.2135
L100.3756 10.4835
" />
<path d="M100.3756 9.2739
L100.4966 9.2135
" />
<path d="M100.4966 9.2135
L100.7385 9.2135
" />
<path d="M100.7385 9.2135
L100.8594 9.2739
" />
<path d="M100.8594 9.2739
L100.9199 9.3344
" />
<path d="M100.9199 9.3344
L100.9804 9.4554
" />
<path d="M100.9804 9.4554
L100.9804 9.8182
" />
<path d="M100.9804 9.8182
L100.9199 9.9392
" />
<path d="M100.9199 9.9392
L100.8594 9.9997
" />
<path d="M100.8594 9.9997
L100.7385 10.0601
" />
<path d="M100.7385 10.0601
L100.4966 10.0601
" />
<path d="M100.4966 10.0601
L100.3756 9.9997
" />
</g></g> 
</svg>
