<?xml version="1.0" standalone="no"?>
 <!DOCTYPE svg PUBLIC "-//W3C//DTD SVG 1.1//EN" 
 "http://www.w3.org/Graphics/SVG/1.1/DTD/svg11.dtd"> 
<svg
  xmlns:svg="http://www.w3.org/2000/svg"
  xmlns="http://www.w3.org/2000/svg"
  xmlns:xlink="http://www.w3.org/1999/xlink"
  version="1.1"
  width="96.2152mm" height="27.6098mm" viewBox="0.0000 0.0000 96.2152 27.6098">
<title>SVG Image created as working.svg date 2023/08/04 22:12:41 </title>
  <desc>Image generated by Eeschema-SVG </desc>
<g style="fill:#000000; fill-opacity:1.0000;stroke:#000000; stroke-opacity:1.0000;
stroke-linecap:round; stroke-linejoin:round;"
 transform="translate(0 0) scale(1 1)">
</g>
<g style="fill:#840000; fill-opacity:0.0; 
stroke:#840000; stroke-width:0.0000; stroke-opacity:1; 
stroke-linecap:round; stroke-linejoin:round;">
</g>
<g style="fill:#FFFFC2; fill-opacity:0.0; 
stroke:#FFFFC2; stroke-width:0.0000; stroke-opacity:1; 
stroke-linecap:round; stroke-linejoin:round;">
</g>
<g style="fill:#FFFFC2; fill-opacity:1.0000; 
stroke:#FFFFC2; stroke-width:0.0000; stroke-opacity:1; 
stroke-linecap:round; stroke-linejoin:round;">
<rect x="15.383100" y="15.513400" width="10.160000" height="7.620000" rx="0.000000" />
</g>
<g style="fill:#840084; fill-opacity:1.0000; 
stroke:#840084; stroke-width:0.0000; stroke-opacity:1; 
stroke-linecap:round; stroke-linejoin:round;">
</g>
<g style="fill:#840000; fill-opacity:1.0000; 
stroke:#840000; stroke-width:0.0000; stroke-opacity:1; 
stroke-linecap:round; stroke-linejoin:round;">
</g>
<g style="fill:#840000; fill-opacity:0.0; 
stroke:#840000; stroke-width:0.2540; stroke-opacity:1; 
stroke-linecap:round; stroke-linejoin:round;">
<path style="fill:#840000; fill-opacity:0.0; 
stroke:#840000; stroke-width:0.2540; stroke-opacity:1; 
stroke-linecap:round; stroke-linejoin:round;fill:none"
d="M 18.4311,18.6884
19.7011,18.6884
" /> 
</g>
<g style="fill:#840000; fill-opacity:0.0; 
stroke:#840000; stroke-width:0.1524; stroke-opacity:1; 
stroke-linecap:round; stroke-linejoin:round;">
<path style="fill:#840000; fill-opacity:0.0; 
stroke:#840000; stroke-width:0.1524; stroke-opacity:1; 
stroke-linecap:round; stroke-linejoin:round;fill:none"
d="M 19.0661,21.8634
17.2881,21.8634
" /> 
<path style="fill:#840000; fill-opacity:0.0; 
stroke:#840000; stroke-width:0.1524; stroke-opacity:1; 
stroke-linecap:round; stroke-linejoin:round;fill:none"
d="M 19.0661,19.9584
19.0661,21.8634
" /> 
<path style="fill:#840000; fill-opacity:0.0; 
stroke:#840000; stroke-width:0.1524; stroke-opacity:1; 
stroke-linecap:round; stroke-linejoin:round;fill:none"
d="M 19.0661,18.6884
19.0661,19.9584
" /> 
<path style="fill:#840000; fill-opacity:0.0; 
stroke:#840000; stroke-width:0.1524; stroke-opacity:1; 
stroke-linecap:round; stroke-linejoin:round;fill:none"
d="M 19.0661,18.6884
19.0661,16.7834
" /> 
<path style="fill:#840000; fill-opacity:0.0; 
stroke:#840000; stroke-width:0.1524; stroke-opacity:1; 
stroke-linecap:round; stroke-linejoin:round;fill:none"
d="M 19.0661,16.7834
17.2881,16.7834
" /> 
</g>
<g style="fill:#840000; fill-opacity:0.0; 
stroke:#840000; stroke-width:0.2540; stroke-opacity:1; 
stroke-linecap:round; stroke-linejoin:round;">
<path style="fill:#840000; fill-opacity:0.0; 
stroke:#840000; stroke-width:0.2540; stroke-opacity:1; 
stroke-linecap:round; stroke-linejoin:round;fill:none"
d="M 19.0661,18.6884
18.4311,19.9584
19.7011,19.9584
Z" /> 
<rect x="15.383100" y="15.513400" width="10.160000" height="7.620000" rx="0.000000" />
<path style="fill:#840000; fill-opacity:0.0; 
stroke:#840000; stroke-width:0.2540; stroke-opacity:1; 
stroke-linecap:round; stroke-linejoin:round;fill:none"
d="M 16.6531,19.9584
17.9231,19.9584
" /> 
</g>
<g style="fill:#840000; fill-opacity:0.0; 
stroke:#840000; stroke-width:0.1524; stroke-opacity:1; 
stroke-linecap:round; stroke-linejoin:round;">
<path style="fill:#840000; fill-opacity:0.0; 
stroke:#840000; stroke-width:0.1524; stroke-opacity:1; 
stroke-linecap:round; stroke-linejoin:round;fill:none"
d="M 23.1301,20.7204
24.2731,21.8634
" /> 
<path style="fill:#840000; fill-opacity:0.0; 
stroke:#840000; stroke-width:0.1524; stroke-opacity:1; 
stroke-linecap:round; stroke-linejoin:round;fill:none"
d="M 23.1301,20.4664
24.2731,19.3234
" /> 
<path style="fill:#840000; fill-opacity:0.0; 
stroke:#840000; stroke-width:0.1524; stroke-opacity:1; 
stroke-linecap:round; stroke-linejoin:round;fill:none"
d="M 24.2731,21.8634
25.5431,21.8634
" /> 
<path style="fill:#840000; fill-opacity:0.0; 
stroke:#840000; stroke-width:0.1524; stroke-opacity:1; 
stroke-linecap:round; stroke-linejoin:round;fill:none"
d="M 24.2731,19.3234
25.5431,19.3234
" /> 
</g>
<g style="fill:#840000; fill-opacity:0.0; 
stroke:#840000; stroke-width:0.3556; stroke-opacity:1; 
stroke-linecap:round; stroke-linejoin:round;">
<path style="fill:#840000; fill-opacity:0.0; 
stroke:#840000; stroke-width:0.3556; stroke-opacity:1; 
stroke-linecap:round; stroke-linejoin:round;fill:none"
d="M 23.1301,19.5774
23.1301,21.6094
23.1301,21.6094
" /> 
</g>
<g style="fill:#840000; fill-opacity:0.0; 
stroke:#840000; stroke-width:0.1524; stroke-opacity:1; 
stroke-linecap:round; stroke-linejoin:round;">
<path style="fill:#840000; fill-opacity:0.0; 
stroke:#840000; stroke-width:0.1524; stroke-opacity:1; 
stroke-linecap:round; stroke-linejoin:round;fill:none"
d="M 15.3831,21.8634
17.2881,21.8634
17.2881,16.7834
15.3831,16.7834
" /> 
</g>
<g style="fill:#840000; fill-opacity:0.0; 
stroke:#840000; stroke-width:0.2540; stroke-opacity:1; 
stroke-linecap:round; stroke-linejoin:round;">
<path style="fill:#840000; fill-opacity:0.0; 
stroke:#840000; stroke-width:0.2540; stroke-opacity:1; 
stroke-linecap:round; stroke-linejoin:round;fill:none"
d="M 17.2881,19.9584
16.6531,18.6884
17.9231,18.6884
Z" /> 
</g>
<g style="fill:#840000; fill-opacity:0.0; 
stroke:#840000; stroke-width:0.1524; stroke-opacity:1; 
stroke-linecap:round; stroke-linejoin:round;">
<path style="fill:#840000; fill-opacity:0.0; 
stroke:#840000; stroke-width:0.1524; stroke-opacity:1; 
stroke-linecap:round; stroke-linejoin:round;fill:none"
d="M 24.1461,21.7364
23.8921,21.2284
23.6381,21.4824
Z" /> 
<path style="fill:#840000; fill-opacity:0.0; 
stroke:#840000; stroke-width:0.1524; stroke-opacity:1; 
stroke-linecap:round; stroke-linejoin:round;fill:none"
d="M 25.5431,16.7834
22.3681,16.7834
22.3681,20.5934
23.0031,20.5934
" /> 
<path style="fill:#840000; fill-opacity:0.0; 
stroke:#840000; stroke-width:0.1524; stroke-opacity:1; 
stroke-linecap:round; stroke-linejoin:round;fill:none"
d="M 20.3361,19.8314
21.6061,19.8314
21.2251,19.9584
21.2251,19.7044
21.6061,19.8314
" /> 
<path style="fill:#840000; fill-opacity:0.0; 
stroke:#840000; stroke-width:0.1524; stroke-opacity:1; 
stroke-linecap:round; stroke-linejoin:round;fill:none"
d="M 20.3361,18.8154
21.6061,18.8154
21.2251,18.9424
21.2251,18.6884
21.6061,18.8154
" /> 
<path d="M15.3831 16.7834
L12.8431 16.7834
" />
</g>
<g style="fill:#A90000; fill-opacity:0.0; 
stroke:#A90000; stroke-width:0.1524; stroke-opacity:1; 
stroke-linecap:round; stroke-linejoin:round;">
<text x="14.1131" y="16.5294"
textLength="1.4127" font-size="1.6933" lengthAdjust="spacingAndGlyphs"
text-anchor="middle" opacity="0">1</text>
<g class="stroked-text"><desc>1</desc>
<path d="M14.4760 16.3659
L13.7503 16.3659
" />
<path d="M14.1131 16.3659
L14.1131 15.0959
" />
<path d="M14.1131 15.0959
L13.9922 15.2774
" />
<path d="M13.9922 15.2774
L13.8712 15.3983
" />
<path d="M13.8712 15.3983
L13.7503 15.4588
" />
</g></g>
<g style="fill:#840000; fill-opacity:0.0; 
stroke:#840000; stroke-width:0.1524; stroke-opacity:1; 
stroke-linecap:round; stroke-linejoin:round;">
<path d="M15.3831 21.8634
L12.8431 21.8634
" />
</g>
<g style="fill:#A90000; fill-opacity:0.0; 
stroke:#A90000; stroke-width:0.1524; stroke-opacity:1; 
stroke-linecap:round; stroke-linejoin:round;">
<text x="14.1131" y="21.6094"
textLength="1.4127" font-size="1.6933" lengthAdjust="spacingAndGlyphs"
text-anchor="middle" opacity="0">2</text>
<g class="stroked-text"><desc>2</desc>
<path d="M13.7503 20.2969
L13.8107 20.2364
" />
<path d="M13.8107 20.2364
L13.9317 20.1759
" />
<path d="M13.9317 20.1759
L14.2341 20.1759
" />
<path d="M14.2341 20.1759
L14.3550 20.2364
" />
<path d="M14.3550 20.2364
L14.4155 20.2969
" />
<path d="M14.4155 20.2969
L14.4760 20.4178
" />
<path d="M14.4760 20.4178
L14.4760 20.5388
" />
<path d="M14.4760 20.5388
L14.4155 20.7202
" />
<path d="M14.4155 20.7202
L13.6898 21.4459
" />
<path d="M13.6898 21.4459
L14.4760 21.4459
" />
</g></g>
<g style="fill:#840000; fill-opacity:0.0; 
stroke:#840000; stroke-width:0.1524; stroke-opacity:1; 
stroke-linecap:round; stroke-linejoin:round;">
<path d="M25.5431 21.8634
L28.0831 21.8634
" />
</g>
<g style="fill:#A90000; fill-opacity:0.0; 
stroke:#A90000; stroke-width:0.1524; stroke-opacity:1; 
stroke-linecap:round; stroke-linejoin:round;">
<text x="26.8131" y="21.6094"
textLength="1.4127" font-size="1.6933" lengthAdjust="spacingAndGlyphs"
text-anchor="middle" opacity="0">4</text>
<g class="stroked-text"><desc>4</desc>
<path d="M27.0550 20.5993
L27.0550 21.4459
" />
<path d="M26.7526 20.1155
L26.4503 21.0226
" />
<path d="M26.4503 21.0226
L27.2364 21.0226
" />
</g></g>
<g style="fill:#840000; fill-opacity:0.0; 
stroke:#840000; stroke-width:0.1524; stroke-opacity:1; 
stroke-linecap:round; stroke-linejoin:round;">
<path d="M25.5431 19.3234
L28.0831 19.3234
" />
</g>
<g style="fill:#A90000; fill-opacity:0.0; 
stroke:#A90000; stroke-width:0.1524; stroke-opacity:1; 
stroke-linecap:round; stroke-linejoin:round;">
<text x="26.8131" y="19.0694"
textLength="1.4127" font-size="1.6933" lengthAdjust="spacingAndGlyphs"
text-anchor="middle" opacity="0">5</text>
<g class="stroked-text"><desc>5</desc>
<path d="M27.1155 17.6359
L26.5107 17.6359
" />
<path d="M26.5107 17.6359
L26.4503 18.2407
" />
<path d="M26.4503 18.2407
L26.5107 18.1802
" />
<path d="M26.5107 18.1802
L26.6317 18.1197
" />
<path d="M26.6317 18.1197
L26.9341 18.1197
" />
<path d="M26.9341 18.1197
L27.0550 18.1802
" />
<path d="M27.0550 18.1802
L27.1155 18.2407
" />
<path d="M27.1155 18.2407
L27.1760 18.3616
" />
<path d="M27.1760 18.3616
L27.1760 18.6640
" />
<path d="M27.1760 18.6640
L27.1155 18.7850
" />
<path d="M27.1155 18.7850
L27.0550 18.8455
" />
<path d="M27.0550 18.8455
L26.9341 18.9059
" />
<path d="M26.9341 18.9059
L26.6317 18.9059
" />
<path d="M26.6317 18.9059
L26.5107 18.8455
" />
<path d="M26.5107 18.8455
L26.4503 18.7850
" />
</g></g>
<g style="fill:#840000; fill-opacity:0.0; 
stroke:#840000; stroke-width:0.1524; stroke-opacity:1; 
stroke-linecap:round; stroke-linejoin:round;">
<path d="M25.5431 16.7834
L28.0831 16.7834
" />
</g>
<g style="fill:#A90000; fill-opacity:0.0; 
stroke:#A90000; stroke-width:0.1524; stroke-opacity:1; 
stroke-linecap:round; stroke-linejoin:round;">
<text x="26.8131" y="16.5294"
textLength="1.4127" font-size="1.6933" lengthAdjust="spacingAndGlyphs"
text-anchor="middle" opacity="0">6</text>
<g class="stroked-text"><desc>6</desc>
<path d="M27.0550 15.0959
L26.8131 15.0959
" />
<path d="M26.8131 15.0959
L26.6922 15.1564
" />
<path d="M26.6922 15.1564
L26.6317 15.2169
" />
<path d="M26.6317 15.2169
L26.5107 15.3983
" />
<path d="M26.5107 15.3983
L26.4503 15.6402
" />
<path d="M26.4503 15.6402
L26.4503 16.1240
" />
<path d="M26.4503 16.1240
L26.5107 16.2450
" />
<path d="M26.5107 16.2450
L26.5712 16.3055
" />
<path d="M26.5712 16.3055
L26.6922 16.3659
" />
<path d="M26.6922 16.3659
L26.9341 16.3659
" />
<path d="M26.9341 16.3659
L27.0550 16.3055
" />
<path d="M27.0550 16.3055
L27.1155 16.2450
" />
<path d="M27.1155 16.2450
L27.1760 16.1240
" />
<path d="M27.1760 16.1240
L27.1760 15.8216
" />
<path d="M27.1760 15.8216
L27.1155 15.7007
" />
<path d="M27.1155 15.7007
L27.0550 15.6402
" />
<path d="M27.0550 15.6402
L26.9341 15.5797
" />
<path d="M26.9341 15.5797
L26.6922 15.5797
" />
<path d="M26.6922 15.5797
L26.5712 15.6402
" />
<path d="M26.5712 15.6402
L26.5107 15.7007
" />
<path d="M26.5107 15.7007
L26.4503 15.8216
" />
</g></g>
<g style="fill:#840084; fill-opacity:0.0; 
stroke:#840084; stroke-width:0.1524; stroke-opacity:1; 
stroke-linecap:round; stroke-linejoin:round;">
</g>
<g style="fill:#006464; fill-opacity:0.0; 
stroke:#006464; stroke-width:0.1524; stroke-opacity:1; 
stroke-linecap:round; stroke-linejoin:round;">
</g>
<g style="fill:#006464; fill-opacity:0.0; 
stroke:#006464; stroke-width:0.1588; stroke-opacity:1; 
stroke-linecap:round; stroke-linejoin:round;">
<text x="16.4498" y="15.0054"
textLength="2.6415" font-size="1.6933" lengthAdjust="spacingAndGlyphs"
text-anchor="middle" opacity="0">U?</text>
<g class="stroked-text"><desc>U?</desc>
<path d="M15.5426 13.6796
L15.5426 14.7077
" />
<path d="M15.5426 14.7077
L15.6031 14.8287
" />
<path d="M15.6031 14.8287
L15.6636 14.8892
" />
<path d="M15.6636 14.8892
L15.7845 14.9496
" />
<path d="M15.7845 14.9496
L16.0264 14.9496
" />
<path d="M16.0264 14.9496
L16.1474 14.8892
" />
<path d="M16.1474 14.8892
L16.2079 14.8287
" />
<path d="M16.2079 14.8287
L16.2683 14.7077
" />
<path d="M16.2683 14.7077
L16.2683 13.6796
" />
<path d="M17.0546 14.8287
L17.1150 14.8892
" />
<path d="M17.1150 14.8892
L17.0546 14.9496
" />
<path d="M17.0546 14.9496
L16.9941 14.8892
" />
<path d="M16.9941 14.8892
L17.0546 14.8287
" />
<path d="M17.0546 14.8287
L17.0546 14.9496
" />
<path d="M16.8127 13.7401
L16.9336 13.6796
" />
<path d="M16.9336 13.6796
L17.2360 13.6796
" />
<path d="M17.2360 13.6796
L17.3569 13.7401
" />
<path d="M17.3569 13.7401
L17.4174 13.8611
" />
<path d="M17.4174 13.8611
L17.4174 13.9820
" />
<path d="M17.4174 13.9820
L17.3569 14.1030
" />
<path d="M17.3569 14.1030
L17.2965 14.1634
" />
<path d="M17.2965 14.1634
L17.1755 14.2239
" />
<path d="M17.1755 14.2239
L17.1150 14.2844
" />
<path d="M17.1150 14.2844
L17.0546 14.4053
" />
<path d="M17.0546 14.4053
L17.0546 14.4658
" />
</g><text x="24.7774" y="15.0054"
textLength="7.3586" font-size="1.6933" lengthAdjust="spacingAndGlyphs"
text-anchor="middle" opacity="0">H11AA1</text>
<g class="stroked-text"><desc>H11AA1</desc>
<path d="M21.5116 14.9496
L21.5116 13.6796
" />
<path d="M21.5116 14.2844
L22.2373 14.2844
" />
<path d="M22.2373 14.9496
L22.2373 13.6796
" />
<path d="M23.5074 14.9496
L22.7817 14.9496
" />
<path d="M23.1445 14.9496
L23.1445 13.6796
" />
<path d="M23.1445 13.6796
L23.0236 13.8611
" />
<path d="M23.0236 13.8611
L22.9026 13.9820
" />
<path d="M22.9026 13.9820
L22.7817 14.0425
" />
<path d="M24.7169 14.9496
L23.9912 14.9496
" />
<path d="M24.3540 14.9496
L24.3540 13.6796
" />
<path d="M24.3540 13.6796
L24.2331 13.8611
" />
<path d="M24.2331 13.8611
L24.1121 13.9820
" />
<path d="M24.1121 13.9820
L23.9912 14.0425
" />
<path d="M25.2007 14.5868
L25.8054 14.5868
" />
<path d="M25.0797 14.9496
L25.5030 13.6796
" />
<path d="M25.5030 13.6796
L25.9264 14.9496
" />
<path d="M26.2893 14.5868
L26.8940 14.5868
" />
<path d="M26.1683 14.9496
L26.5916 13.6796
" />
<path d="M26.5916 13.6796
L27.0150 14.9496
" />
<path d="M28.1036 14.9496
L27.3779 14.9496
" />
<path d="M27.7407 14.9496
L27.7407 13.6796
" />
<path d="M27.7407 13.6796
L27.6198 13.8611
" />
<path d="M27.6198 13.8611
L27.4988 13.9820
" />
<path d="M27.4988 13.9820
L27.3779 14.0425
" />
</g></g>
<g style="fill:#840084; fill-opacity:0.0; 
stroke:#840084; stroke-width:0.1588; stroke-opacity:1; 
stroke-linecap:round; stroke-linejoin:round;">
<text x="22.4308" y="24.9114"
textLength="28.8275" font-size="1.6933" lengthAdjust="spacingAndGlyphs"
text-anchor="middle" opacity="0">Package_DIP:DIP-6_W7.62mm</text>
<g class="stroked-text"><desc>Package_DIP:DIP-6_W7.62mm</desc>
<path d="M8.4231 24.8556
L8.5818 23.5856
" />
<path d="M8.5818 23.5856
L9.0656 23.5856
" />
<path d="M9.0656 23.5856
L9.1790 23.6461
" />
<path d="M9.1790 23.6461
L9.2319 23.7066
" />
<path d="M9.2319 23.7066
L9.2773 23.8275
" />
<path d="M9.2773 23.8275
L9.2546 24.0090
" />
<path d="M9.2546 24.0090
L9.1790 24.1299
" />
<path d="M9.1790 24.1299
L9.1110 24.1904
" />
<path d="M9.1110 24.1904
L8.9825 24.2509
" />
<path d="M8.9825 24.2509
L8.4987 24.2509
" />
<path d="M10.2374 24.8556
L10.3205 24.1904
" />
<path d="M10.3205 24.1904
L10.2752 24.0694
" />
<path d="M10.2752 24.0694
L10.1618 24.0090
" />
<path d="M10.1618 24.0090
L9.9199 24.0090
" />
<path d="M9.9199 24.0090
L9.7913 24.0694
" />
<path d="M10.2449 24.7952
L10.1164 24.8556
" />
<path d="M10.1164 24.8556
L9.8140 24.8556
" />
<path d="M9.8140 24.8556
L9.7006 24.7952
" />
<path d="M9.7006 24.7952
L9.6553 24.6742
" />
<path d="M9.6553 24.6742
L9.6704 24.5532
" />
<path d="M9.6704 24.5532
L9.7460 24.4323
" />
<path d="M9.7460 24.4323
L9.8745 24.3718
" />
<path d="M9.8745 24.3718
L10.1769 24.3718
" />
<path d="M10.1769 24.3718
L10.3054 24.3113
" />
<path d="M11.3939 24.7952
L11.2654 24.8556
" />
<path d="M11.2654 24.8556
L11.0235 24.8556
" />
<path d="M11.0235 24.8556
L10.9101 24.7952
" />
<path d="M10.9101 24.7952
L10.8572 24.7347
" />
<path d="M10.8572 24.7347
L10.8118 24.6137
" />
<path d="M10.8118 24.6137
L10.8572 24.2509
" />
<path d="M10.8572 24.2509
L10.9328 24.1299
" />
<path d="M10.9328 24.1299
L11.0008 24.0694
" />
<path d="M11.0008 24.0694
L11.1293 24.0090
" />
<path d="M11.1293 24.0090
L11.3712 24.0090
" />
<path d="M11.3712 24.0090
L11.4846 24.0694
" />
<path d="M11.9307 24.8556
L12.0894 23.5856
" />
<path d="M12.1121 24.3718
L12.4145 24.8556
" />
<path d="M12.5203 24.0090
L11.9760 24.4928
" />
<path d="M13.5031 24.8556
L13.5862 24.1904
" />
<path d="M13.5862 24.1904
L13.5409 24.0694
" />
<path d="M13.5409 24.0694
L13.4275 24.0090
" />
<path d="M13.4275 24.0090
L13.1856 24.0090
" />
<path d="M13.1856 24.0090
L13.0570 24.0694
" />
<path d="M13.5106 24.7952
L13.3821 24.8556
" />
<path d="M13.3821 24.8556
L13.0797 24.8556
" />
<path d="M13.0797 24.8556
L12.9663 24.7952
" />
<path d="M12.9663 24.7952
L12.9210 24.6742
" />
<path d="M12.9210 24.6742
L12.9361 24.5532
" />
<path d="M12.9361 24.5532
L13.0117 24.4323
" />
<path d="M13.0117 24.4323
L13.1402 24.3718
" />
<path d="M13.1402 24.3718
L13.4426 24.3718
" />
<path d="M13.4426 24.3718
L13.5711 24.3113
" />
<path d="M14.7579 24.0090
L14.6294 25.0371
" />
<path d="M14.6294 25.0371
L14.5538 25.1580
" />
<path d="M14.5538 25.1580
L14.4857 25.2185
" />
<path d="M14.4857 25.2185
L14.3572 25.2790
" />
<path d="M14.3572 25.2790
L14.1758 25.2790
" />
<path d="M14.1758 25.2790
L14.0624 25.2185
" />
<path d="M14.6596 24.7952
L14.5311 24.8556
" />
<path d="M14.5311 24.8556
L14.2892 24.8556
" />
<path d="M14.2892 24.8556
L14.1758 24.7952
" />
<path d="M14.1758 24.7952
L14.1229 24.7347
" />
<path d="M14.1229 24.7347
L14.0775 24.6137
" />
<path d="M14.0775 24.6137
L14.1229 24.2509
" />
<path d="M14.1229 24.2509
L14.1985 24.1299
" />
<path d="M14.1985 24.1299
L14.2665 24.0694
" />
<path d="M14.2665 24.0694
L14.3950 24.0090
" />
<path d="M14.3950 24.0090
L14.6369 24.0090
" />
<path d="M14.6369 24.0090
L14.7503 24.0694
" />
<path d="M15.7481 24.7952
L15.6196 24.8556
" />
<path d="M15.6196 24.8556
L15.3777 24.8556
" />
<path d="M15.3777 24.8556
L15.2643 24.7952
" />
<path d="M15.2643 24.7952
L15.2190 24.6742
" />
<path d="M15.2190 24.6742
L15.2795 24.1904
" />
<path d="M15.2795 24.1904
L15.3550 24.0694
" />
<path d="M15.3550 24.0694
L15.4836 24.0090
" />
<path d="M15.4836 24.0090
L15.7255 24.0090
" />
<path d="M15.7255 24.0090
L15.8389 24.0694
" />
<path d="M15.8389 24.0694
L15.8842 24.1904
" />
<path d="M15.8842 24.1904
L15.8691 24.3113
" />
<path d="M15.8691 24.3113
L15.2492 24.4323
" />
<path d="M16.0279 24.9766
L16.9955 24.9766
" />
<path d="M17.3130 24.8556
L17.4717 23.5856
" />
<path d="M17.4717 23.5856
L17.7741 23.5856
" />
<path d="M17.7741 23.5856
L17.9480 23.6461
" />
<path d="M17.9480 23.6461
L18.0538 23.7671
" />
<path d="M18.0538 23.7671
L18.0992 23.8880
" />
<path d="M18.0992 23.8880
L18.1294 24.1299
" />
<path d="M18.1294 24.1299
L18.1067 24.3113
" />
<path d="M18.1067 24.3113
L18.0160 24.5532
" />
<path d="M18.0160 24.5532
L17.9404 24.6742
" />
<path d="M17.9404 24.6742
L17.8043 24.7952
" />
<path d="M17.8043 24.7952
L17.6154 24.8556
" />
<path d="M17.6154 24.8556
L17.3130 24.8556
" />
<path d="M18.5830 24.8556
L18.7417 23.5856
" />
<path d="M19.1878 24.8556
L19.3465 23.5856
" />
<path d="M19.3465 23.5856
L19.8303 23.5856
" />
<path d="M19.8303 23.5856
L19.9437 23.6461
" />
<path d="M19.9437 23.6461
L19.9966 23.7066
" />
<path d="M19.9966 23.7066
L20.0420 23.8275
" />
<path d="M20.0420 23.8275
L20.0193 24.0090
" />
<path d="M20.0193 24.0090
L19.9437 24.1299
" />
<path d="M19.9437 24.1299
L19.8757 24.1904
" />
<path d="M19.8757 24.1904
L19.7472 24.2509
" />
<path d="M19.7472 24.2509
L19.2634 24.2509
" />
<path d="M20.4729 24.7347
L20.5258 24.7952
" />
<path d="M20.5258 24.7952
L20.4578 24.8556
" />
<path d="M20.4578 24.8556
L20.4049 24.7952
" />
<path d="M20.4049 24.7952
L20.4729 24.7347
" />
<path d="M20.4729 24.7347
L20.4578 24.8556
" />
<path d="M20.5560 24.0694
L20.6090 24.1299
" />
<path d="M20.6090 24.1299
L20.5409 24.1904
" />
<path d="M20.5409 24.1904
L20.4880 24.1299
" />
<path d="M20.4880 24.1299
L20.5560 24.0694
" />
<path d="M20.5560 24.0694
L20.5409 24.1904
" />
<path d="M21.0626 24.8556
L21.2213 23.5856
" />
<path d="M21.2213 23.5856
L21.5237 23.5856
" />
<path d="M21.5237 23.5856
L21.6976 23.6461
" />
<path d="M21.6976 23.6461
L21.8034 23.7671
" />
<path d="M21.8034 23.7671
L21.8488 23.8880
" />
<path d="M21.8488 23.8880
L21.8790 24.1299
" />
<path d="M21.8790 24.1299
L21.8563 24.3113
" />
<path d="M21.8563 24.3113
L21.7656 24.5532
" />
<path d="M21.7656 24.5532
L21.6900 24.6742
" />
<path d="M21.6900 24.6742
L21.5539 24.7952
" />
<path d="M21.5539 24.7952
L21.3650 24.8556
" />
<path d="M21.3650 24.8556
L21.0626 24.8556
" />
<path d="M22.3326 24.8556
L22.4913 23.5856
" />
<path d="M22.9374 24.8556
L23.0961 23.5856
" />
<path d="M23.0961 23.5856
L23.5799 23.5856
" />
<path d="M23.5799 23.5856
L23.6933 23.6461
" />
<path d="M23.6933 23.6461
L23.7462 23.7066
" />
<path d="M23.7462 23.7066
L23.7916 23.8275
" />
<path d="M23.7916 23.8275
L23.7689 24.0090
" />
<path d="M23.7689 24.0090
L23.6933 24.1299
" />
<path d="M23.6933 24.1299
L23.6253 24.1904
" />
<path d="M23.6253 24.1904
L23.4968 24.2509
" />
<path d="M23.4968 24.2509
L23.0130 24.2509
" />
<path d="M24.2678 24.3718
L25.2355 24.3718
" />
<path d="M26.4828 23.5856
L26.2409 23.5856
" />
<path d="M26.2409 23.5856
L26.1124 23.6461
" />
<path d="M26.1124 23.6461
L26.0444 23.7066
" />
<path d="M26.0444 23.7066
L25.9007 23.8880
" />
<path d="M25.9007 23.8880
L25.8100 24.1299
" />
<path d="M25.8100 24.1299
L25.7495 24.6137
" />
<path d="M25.7495 24.6137
L25.7949 24.7347
" />
<path d="M25.7949 24.7347
L25.8478 24.7952
" />
<path d="M25.8478 24.7952
L25.9612 24.8556
" />
<path d="M25.9612 24.8556
L26.2031 24.8556
" />
<path d="M26.2031 24.8556
L26.3316 24.7952
" />
<path d="M26.3316 24.7952
L26.3997 24.7347
" />
<path d="M26.3997 24.7347
L26.4752 24.6137
" />
<path d="M26.4752 24.6137
L26.5130 24.3113
" />
<path d="M26.5130 24.3113
L26.4677 24.1904
" />
<path d="M26.4677 24.1904
L26.4148 24.1299
" />
<path d="M26.4148 24.1299
L26.3014 24.0694
" />
<path d="M26.3014 24.0694
L26.0595 24.0694
" />
<path d="M26.0595 24.0694
L25.9310 24.1299
" />
<path d="M25.9310 24.1299
L25.8629 24.1904
" />
<path d="M25.8629 24.1904
L25.7873 24.3113
" />
<path d="M26.6718 24.9766
L27.6394 24.9766
" />
<path d="M27.9947 23.5856
L28.1383 24.8556
" />
<path d="M28.1383 24.8556
L28.4936 23.9485
" />
<path d="M28.4936 23.9485
L28.6221 24.8556
" />
<path d="M28.6221 24.8556
L29.0832 23.5856
" />
<path d="M29.4461 23.5856
L30.2927 23.5856
" />
<path d="M30.2927 23.5856
L29.5897 24.8556
" />
<path d="M30.6329 24.7347
L30.6858 24.7952
" />
<path d="M30.6858 24.7952
L30.6178 24.8556
" />
<path d="M30.6178 24.8556
L30.5649 24.7952
" />
<path d="M30.5649 24.7952
L30.6329 24.7347
" />
<path d="M30.6329 24.7347
L30.6178 24.8556
" />
<path d="M31.9256 23.5856
L31.6837 23.5856
" />
<path d="M31.6837 23.5856
L31.5552 23.6461
" />
<path d="M31.5552 23.6461
L31.4872 23.7066
" />
<path d="M31.4872 23.7066
L31.3435 23.8880
" />
<path d="M31.3435 23.8880
L31.2528 24.1299
" />
<path d="M31.2528 24.1299
L31.1923 24.6137
" />
<path d="M31.1923 24.6137
L31.2377 24.7347
" />
<path d="M31.2377 24.7347
L31.2906 24.7952
" />
<path d="M31.2906 24.7952
L31.4040 24.8556
" />
<path d="M31.4040 24.8556
L31.6459 24.8556
" />
<path d="M31.6459 24.8556
L31.7744 24.7952
" />
<path d="M31.7744 24.7952
L31.8425 24.7347
" />
<path d="M31.8425 24.7347
L31.9180 24.6137
" />
<path d="M31.9180 24.6137
L31.9558 24.3113
" />
<path d="M31.9558 24.3113
L31.9105 24.1904
" />
<path d="M31.9105 24.1904
L31.8576 24.1299
" />
<path d="M31.8576 24.1299
L31.7442 24.0694
" />
<path d="M31.7442 24.0694
L31.5023 24.0694
" />
<path d="M31.5023 24.0694
L31.3738 24.1299
" />
<path d="M31.3738 24.1299
L31.3057 24.1904
" />
<path d="M31.3057 24.1904
L31.2301 24.3113
" />
<path d="M32.5152 23.7066
L32.5833 23.6461
" />
<path d="M32.5833 23.6461
L32.7118 23.5856
" />
<path d="M32.7118 23.5856
L33.0142 23.5856
" />
<path d="M33.0142 23.5856
L33.1275 23.6461
" />
<path d="M33.1275 23.6461
L33.1805 23.7066
" />
<path d="M33.1805 23.7066
L33.2258 23.8275
" />
<path d="M33.2258 23.8275
L33.2107 23.9485
" />
<path d="M33.2107 23.9485
L33.1275 24.1299
" />
<path d="M33.1275 24.1299
L32.3111 24.8556
" />
<path d="M32.3111 24.8556
L33.0973 24.8556
" />
<path d="M33.6416 24.8556
L33.7474 24.0090
" />
<path d="M33.7323 24.1299
L33.8003 24.0694
" />
<path d="M33.8003 24.0694
L33.9288 24.0090
" />
<path d="M33.9288 24.0090
L34.1103 24.0090
" />
<path d="M34.1103 24.0090
L34.2237 24.0694
" />
<path d="M34.2237 24.0694
L34.2690 24.1904
" />
<path d="M34.2690 24.1904
L34.1859 24.8556
" />
<path d="M34.2690 24.1904
L34.3446 24.0694
" />
<path d="M34.3446 24.0694
L34.4731 24.0090
" />
<path d="M34.4731 24.0090
L34.6545 24.0090
" />
<path d="M34.6545 24.0090
L34.7679 24.0694
" />
<path d="M34.7679 24.0694
L34.8133 24.1904
" />
<path d="M34.8133 24.1904
L34.7301 24.8556
" />
<path d="M35.3349 24.8556
L35.4407 24.0090
" />
<path d="M35.4256 24.1299
L35.4936 24.0694
" />
<path d="M35.4936 24.0694
L35.6221 24.0090
" />
<path d="M35.6221 24.0090
L35.8036 24.0090
" />
<path d="M35.8036 24.0090
L35.9170 24.0694
" />
<path d="M35.9170 24.0694
L35.9623 24.1904
" />
<path d="M35.9623 24.1904
L35.8792 24.8556
" />
<path d="M35.9623 24.1904
L36.0379 24.0694
" />
<path d="M36.0379 24.0694
L36.1664 24.0090
" />
<path d="M36.1664 24.0090
L36.3478 24.0090
" />
<path d="M36.3478 24.0090
L36.4612 24.0694
" />
<path d="M36.4612 24.0694
L36.5066 24.1904
" />
<path d="M36.5066 24.1904
L36.4234 24.8556
" />
</g><text x="63.9778" y="3.9564"
textLength="48.4215" font-size="1.6933" lengthAdjust="spacingAndGlyphs"
text-anchor="middle" opacity="0">https://www.vishay.com/docs/83608/h11aa1.pdf</text>
<g class="stroked-text"><desc>https://www.vishay.com/docs/83608/h11aa1.pdf</desc>
<path d="M40.1806 3.9006
L40.1806 2.6306
" />
<path d="M40.7249 3.9006
L40.7249 3.2354
" />
<path d="M40.7249 3.2354
L40.6644 3.1144
" />
<path d="M40.6644 3.1144
L40.5435 3.0540
" />
<path d="M40.5435 3.0540
L40.3621 3.0540
" />
<path d="M40.3621 3.0540
L40.2411 3.1144
" />
<path d="M40.2411 3.1144
L40.1806 3.1749
" />
<path d="M41.1482 3.0540
L41.6320 3.0540
" />
<path d="M41.3296 2.6306
L41.3296 3.7192
" />
<path d="M41.3296 3.7192
L41.3901 3.8402
" />
<path d="M41.3901 3.8402
L41.5111 3.9006
" />
<path d="M41.5111 3.9006
L41.6320 3.9006
" />
<path d="M41.8739 3.0540
L42.3577 3.0540
" />
<path d="M42.0553 2.6306
L42.0553 3.7192
" />
<path d="M42.0553 3.7192
L42.1158 3.8402
" />
<path d="M42.1158 3.8402
L42.2368 3.9006
" />
<path d="M42.2368 3.9006
L42.3577 3.9006
" />
<path d="M42.7810 3.0540
L42.7810 4.3240
" />
<path d="M42.7810 3.1144
L42.9020 3.0540
" />
<path d="M42.9020 3.0540
L43.1439 3.0540
" />
<path d="M43.1439 3.0540
L43.2648 3.1144
" />
<path d="M43.2648 3.1144
L43.3253 3.1749
" />
<path d="M43.3253 3.1749
L43.3858 3.2959
" />
<path d="M43.3858 3.2959
L43.3858 3.6587
" />
<path d="M43.3858 3.6587
L43.3253 3.7797
" />
<path d="M43.3253 3.7797
L43.2648 3.8402
" />
<path d="M43.2648 3.8402
L43.1439 3.9006
" />
<path d="M43.1439 3.9006
L42.9020 3.9006
" />
<path d="M42.9020 3.9006
L42.7810 3.8402
" />
<path d="M43.8696 3.8402
L43.9905 3.9006
" />
<path d="M43.9905 3.9006
L44.2324 3.9006
" />
<path d="M44.2324 3.9006
L44.3534 3.8402
" />
<path d="M44.3534 3.8402
L44.4138 3.7192
" />
<path d="M44.4138 3.7192
L44.4138 3.6587
" />
<path d="M44.4138 3.6587
L44.3534 3.5378
" />
<path d="M44.3534 3.5378
L44.2324 3.4773
" />
<path d="M44.2324 3.4773
L44.0510 3.4773
" />
<path d="M44.0510 3.4773
L43.9300 3.4168
" />
<path d="M43.9300 3.4168
L43.8696 3.2959
" />
<path d="M43.8696 3.2959
L43.8696 3.2354
" />
<path d="M43.8696 3.2354
L43.9300 3.1144
" />
<path d="M43.9300 3.1144
L44.0510 3.0540
" />
<path d="M44.0510 3.0540
L44.2324 3.0540
" />
<path d="M44.2324 3.0540
L44.3534 3.1144
" />
<path d="M44.9581 3.7797
L45.0186 3.8402
" />
<path d="M45.0186 3.8402
L44.9581 3.9006
" />
<path d="M44.9581 3.9006
L44.8977 3.8402
" />
<path d="M44.8977 3.8402
L44.9581 3.7797
" />
<path d="M44.9581 3.7797
L44.9581 3.9006
" />
<path d="M44.9581 3.1144
L45.0186 3.1749
" />
<path d="M45.0186 3.1749
L44.9581 3.2354
" />
<path d="M44.9581 3.2354
L44.8977 3.1749
" />
<path d="M44.8977 3.1749
L44.9581 3.1144
" />
<path d="M44.9581 3.1144
L44.9581 3.2354
" />
<path d="M46.4701 2.5702
L45.3815 4.2030
" />
<path d="M47.8006 2.5702
L46.7120 4.2030
" />
<path d="M48.1030 3.0540
L48.3449 3.9006
" />
<path d="M48.3449 3.9006
L48.5868 3.2959
" />
<path d="M48.5868 3.2959
L48.8287 3.9006
" />
<path d="M48.8287 3.9006
L49.0706 3.0540
" />
<path d="M49.4335 3.0540
L49.6754 3.9006
" />
<path d="M49.6754 3.9006
L49.9173 3.2959
" />
<path d="M49.9173 3.2959
L50.1592 3.9006
" />
<path d="M50.1592 3.9006
L50.4011 3.0540
" />
<path d="M50.7640 3.0540
L51.0059 3.9006
" />
<path d="M51.0059 3.9006
L51.2478 3.2959
" />
<path d="M51.2478 3.2959
L51.4897 3.9006
" />
<path d="M51.4897 3.9006
L51.7316 3.0540
" />
<path d="M52.2154 3.7797
L52.2759 3.8402
" />
<path d="M52.2759 3.8402
L52.2154 3.9006
" />
<path d="M52.2154 3.9006
L52.1550 3.8402
" />
<path d="M52.1550 3.8402
L52.2154 3.7797
" />
<path d="M52.2154 3.7797
L52.2154 3.9006
" />
<path d="M52.6993 3.0540
L53.0017 3.9006
" />
<path d="M53.0017 3.9006
L53.3040 3.0540
" />
<path d="M53.7878 3.9006
L53.7878 3.0540
" />
<path d="M53.7878 2.6306
L53.7274 2.6911
" />
<path d="M53.7274 2.6911
L53.7878 2.7516
" />
<path d="M53.7878 2.7516
L53.8483 2.6911
" />
<path d="M53.8483 2.6911
L53.7878 2.6306
" />
<path d="M53.7878 2.6306
L53.7878 2.7516
" />
<path d="M54.3322 3.8402
L54.4531 3.9006
" />
<path d="M54.4531 3.9006
L54.6950 3.9006
" />
<path d="M54.6950 3.9006
L54.8160 3.8402
" />
<path d="M54.8160 3.8402
L54.8764 3.7192
" />
<path d="M54.8764 3.7192
L54.8764 3.6587
" />
<path d="M54.8764 3.6587
L54.8160 3.5378
" />
<path d="M54.8160 3.5378
L54.6950 3.4773
" />
<path d="M54.6950 3.4773
L54.5136 3.4773
" />
<path d="M54.5136 3.4773
L54.3926 3.4168
" />
<path d="M54.3926 3.4168
L54.3322 3.2959
" />
<path d="M54.3322 3.2959
L54.3322 3.2354
" />
<path d="M54.3322 3.2354
L54.3926 3.1144
" />
<path d="M54.3926 3.1144
L54.5136 3.0540
" />
<path d="M54.5136 3.0540
L54.6950 3.0540
" />
<path d="M54.6950 3.0540
L54.8160 3.1144
" />
<path d="M55.4207 3.9006
L55.4207 2.6306
" />
<path d="M55.9650 3.9006
L55.9650 3.2354
" />
<path d="M55.9650 3.2354
L55.9045 3.1144
" />
<path d="M55.9045 3.1144
L55.7836 3.0540
" />
<path d="M55.7836 3.0540
L55.6022 3.0540
" />
<path d="M55.6022 3.0540
L55.4812 3.1144
" />
<path d="M55.4812 3.1144
L55.4207 3.1749
" />
<path d="M57.1140 3.9006
L57.1140 3.2354
" />
<path d="M57.1140 3.2354
L57.0535 3.1144
" />
<path d="M57.0535 3.1144
L56.9326 3.0540
" />
<path d="M56.9326 3.0540
L56.6907 3.0540
" />
<path d="M56.6907 3.0540
L56.5697 3.1144
" />
<path d="M57.1140 3.8402
L56.9931 3.9006
" />
<path d="M56.9931 3.9006
L56.6907 3.9006
" />
<path d="M56.6907 3.9006
L56.5697 3.8402
" />
<path d="M56.5697 3.8402
L56.5093 3.7192
" />
<path d="M56.5093 3.7192
L56.5093 3.5982
" />
<path d="M56.5093 3.5982
L56.5697 3.4773
" />
<path d="M56.5697 3.4773
L56.6907 3.4168
" />
<path d="M56.6907 3.4168
L56.9931 3.4168
" />
<path d="M56.9931 3.4168
L57.1140 3.3563
" />
<path d="M57.5978 3.0540
L57.9002 3.9006
" />
<path d="M58.2025 3.0540
L57.9002 3.9006
" />
<path d="M57.9002 3.9006
L57.7792 4.2030
" />
<path d="M57.7792 4.2030
L57.7187 4.2635
" />
<path d="M57.7187 4.2635
L57.5978 4.3240
" />
<path d="M58.6863 3.7797
L58.7468 3.8402
" />
<path d="M58.7468 3.8402
L58.6863 3.9006
" />
<path d="M58.6863 3.9006
L58.6259 3.8402
" />
<path d="M58.6259 3.8402
L58.6863 3.7797
" />
<path d="M58.6863 3.7797
L58.6863 3.9006
" />
<path d="M59.8354 3.8402
L59.7145 3.9006
" />
<path d="M59.7145 3.9006
L59.4726 3.9006
" />
<path d="M59.4726 3.9006
L59.3516 3.8402
" />
<path d="M59.3516 3.8402
L59.2911 3.7797
" />
<path d="M59.2911 3.7797
L59.2307 3.6587
" />
<path d="M59.2307 3.6587
L59.2307 3.2959
" />
<path d="M59.2307 3.2959
L59.2911 3.1749
" />
<path d="M59.2911 3.1749
L59.3516 3.1144
" />
<path d="M59.3516 3.1144
L59.4726 3.0540
" />
<path d="M59.4726 3.0540
L59.7145 3.0540
" />
<path d="M59.7145 3.0540
L59.8354 3.1144
" />
<path d="M60.5612 3.9006
L60.4402 3.8402
" />
<path d="M60.4402 3.8402
L60.3797 3.7797
" />
<path d="M60.3797 3.7797
L60.3193 3.6587
" />
<path d="M60.3193 3.6587
L60.3193 3.2959
" />
<path d="M60.3193 3.2959
L60.3797 3.1749
" />
<path d="M60.3797 3.1749
L60.4402 3.1144
" />
<path d="M60.4402 3.1144
L60.5612 3.0540
" />
<path d="M60.5612 3.0540
L60.7426 3.0540
" />
<path d="M60.7426 3.0540
L60.8635 3.1144
" />
<path d="M60.8635 3.1144
L60.9240 3.1749
" />
<path d="M60.9240 3.1749
L60.9845 3.2959
" />
<path d="M60.9845 3.2959
L60.9845 3.6587
" />
<path d="M60.9845 3.6587
L60.9240 3.7797
" />
<path d="M60.9240 3.7797
L60.8635 3.8402
" />
<path d="M60.8635 3.8402
L60.7426 3.9006
" />
<path d="M60.7426 3.9006
L60.5612 3.9006
" />
<path d="M61.5287 3.9006
L61.5287 3.0540
" />
<path d="M61.5287 3.1749
L61.5892 3.1144
" />
<path d="M61.5892 3.1144
L61.7102 3.0540
" />
<path d="M61.7102 3.0540
L61.8916 3.0540
" />
<path d="M61.8916 3.0540
L62.0125 3.1144
" />
<path d="M62.0125 3.1144
L62.0730 3.2354
" />
<path d="M62.0730 3.2354
L62.0730 3.9006
" />
<path d="M62.0730 3.2354
L62.1335 3.1144
" />
<path d="M62.1335 3.1144
L62.2544 3.0540
" />
<path d="M62.2544 3.0540
L62.4359 3.0540
" />
<path d="M62.4359 3.0540
L62.5568 3.1144
" />
<path d="M62.5568 3.1144
L62.6173 3.2354
" />
<path d="M62.6173 3.2354
L62.6173 3.9006
" />
<path d="M64.1292 2.5702
L63.0406 4.2030
" />
<path d="M65.0968 3.9006
L65.0968 2.6306
" />
<path d="M65.0968 3.8402
L64.9759 3.9006
" />
<path d="M64.9759 3.9006
L64.7340 3.9006
" />
<path d="M64.7340 3.9006
L64.6130 3.8402
" />
<path d="M64.6130 3.8402
L64.5525 3.7797
" />
<path d="M64.5525 3.7797
L64.4921 3.6587
" />
<path d="M64.4921 3.6587
L64.4921 3.2959
" />
<path d="M64.4921 3.2959
L64.5525 3.1749
" />
<path d="M64.5525 3.1749
L64.6130 3.1144
" />
<path d="M64.6130 3.1144
L64.7340 3.0540
" />
<path d="M64.7340 3.0540
L64.9759 3.0540
" />
<path d="M64.9759 3.0540
L65.0968 3.1144
" />
<path d="M65.8830 3.9006
L65.7620 3.8402
" />
<path d="M65.7620 3.8402
L65.7015 3.7797
" />
<path d="M65.7015 3.7797
L65.6411 3.6587
" />
<path d="M65.6411 3.6587
L65.6411 3.2959
" />
<path d="M65.6411 3.2959
L65.7015 3.1749
" />
<path d="M65.7015 3.1749
L65.7620 3.1144
" />
<path d="M65.7620 3.1144
L65.8830 3.0540
" />
<path d="M65.8830 3.0540
L66.0644 3.0540
" />
<path d="M66.0644 3.0540
L66.1853 3.1144
" />
<path d="M66.1853 3.1144
L66.2458 3.1749
" />
<path d="M66.2458 3.1749
L66.3063 3.2959
" />
<path d="M66.3063 3.2959
L66.3063 3.6587
" />
<path d="M66.3063 3.6587
L66.2458 3.7797
" />
<path d="M66.2458 3.7797
L66.1853 3.8402
" />
<path d="M66.1853 3.8402
L66.0644 3.9006
" />
<path d="M66.0644 3.9006
L65.8830 3.9006
" />
<path d="M67.3948 3.8402
L67.2739 3.9006
" />
<path d="M67.2739 3.9006
L67.0320 3.9006
" />
<path d="M67.0320 3.9006
L66.9110 3.8402
" />
<path d="M66.9110 3.8402
L66.8505 3.7797
" />
<path d="M66.8505 3.7797
L66.7901 3.6587
" />
<path d="M66.7901 3.6587
L66.7901 3.2959
" />
<path d="M66.7901 3.2959
L66.8505 3.1749
" />
<path d="M66.8505 3.1749
L66.9110 3.1144
" />
<path d="M66.9110 3.1144
L67.0320 3.0540
" />
<path d="M67.0320 3.0540
L67.2739 3.0540
" />
<path d="M67.2739 3.0540
L67.3948 3.1144
" />
<path d="M67.8787 3.8402
L67.9996 3.9006
" />
<path d="M67.9996 3.9006
L68.2415 3.9006
" />
<path d="M68.2415 3.9006
L68.3625 3.8402
" />
<path d="M68.3625 3.8402
L68.4229 3.7192
" />
<path d="M68.4229 3.7192
L68.4229 3.6587
" />
<path d="M68.4229 3.6587
L68.3625 3.5378
" />
<path d="M68.3625 3.5378
L68.2415 3.4773
" />
<path d="M68.2415 3.4773
L68.0601 3.4773
" />
<path d="M68.0601 3.4773
L67.9391 3.4168
" />
<path d="M67.9391 3.4168
L67.8787 3.2959
" />
<path d="M67.8787 3.2959
L67.8787 3.2354
" />
<path d="M67.8787 3.2354
L67.9391 3.1144
" />
<path d="M67.9391 3.1144
L68.0601 3.0540
" />
<path d="M68.0601 3.0540
L68.2415 3.0540
" />
<path d="M68.2415 3.0540
L68.3625 3.1144
" />
<path d="M69.8744 2.5702
L68.7858 4.2030
" />
<path d="M70.4792 3.1749
L70.3582 3.1144
" />
<path d="M70.3582 3.1144
L70.2977 3.0540
" />
<path d="M70.2977 3.0540
L70.2373 2.9330
" />
<path d="M70.2373 2.9330
L70.2373 2.8725
" />
<path d="M70.2373 2.8725
L70.2977 2.7516
" />
<path d="M70.2977 2.7516
L70.3582 2.6911
" />
<path d="M70.3582 2.6911
L70.4792 2.6306
" />
<path d="M70.4792 2.6306
L70.7211 2.6306
" />
<path d="M70.7211 2.6306
L70.8420 2.6911
" />
<path d="M70.8420 2.6911
L70.9025 2.7516
" />
<path d="M70.9025 2.7516
L70.9630 2.8725
" />
<path d="M70.9630 2.8725
L70.9630 2.9330
" />
<path d="M70.9630 2.9330
L70.9025 3.0540
" />
<path d="M70.9025 3.0540
L70.8420 3.1144
" />
<path d="M70.8420 3.1144
L70.7211 3.1749
" />
<path d="M70.7211 3.1749
L70.4792 3.1749
" />
<path d="M70.4792 3.1749
L70.3582 3.2354
" />
<path d="M70.3582 3.2354
L70.2977 3.2959
" />
<path d="M70.2977 3.2959
L70.2373 3.4168
" />
<path d="M70.2373 3.4168
L70.2373 3.6587
" />
<path d="M70.2373 3.6587
L70.2977 3.7797
" />
<path d="M70.2977 3.7797
L70.3582 3.8402
" />
<path d="M70.3582 3.8402
L70.4792 3.9006
" />
<path d="M70.4792 3.9006
L70.7211 3.9006
" />
<path d="M70.7211 3.9006
L70.8420 3.8402
" />
<path d="M70.8420 3.8402
L70.9025 3.7797
" />
<path d="M70.9025 3.7797
L70.9630 3.6587
" />
<path d="M70.9630 3.6587
L70.9630 3.4168
" />
<path d="M70.9630 3.4168
L70.9025 3.2959
" />
<path d="M70.9025 3.2959
L70.8420 3.2354
" />
<path d="M70.8420 3.2354
L70.7211 3.1749
" />
<path d="M71.3863 2.6306
L72.1725 2.6306
" />
<path d="M72.1725 2.6306
L71.7491 3.1144
" />
<path d="M71.7491 3.1144
L71.9306 3.1144
" />
<path d="M71.9306 3.1144
L72.0515 3.1749
" />
<path d="M72.0515 3.1749
L72.1120 3.2354
" />
<path d="M72.1120 3.2354
L72.1725 3.3563
" />
<path d="M72.1725 3.3563
L72.1725 3.6587
" />
<path d="M72.1725 3.6587
L72.1120 3.7797
" />
<path d="M72.1120 3.7797
L72.0515 3.8402
" />
<path d="M72.0515 3.8402
L71.9306 3.9006
" />
<path d="M71.9306 3.9006
L71.5677 3.9006
" />
<path d="M71.5677 3.9006
L71.4468 3.8402
" />
<path d="M71.4468 3.8402
L71.3863 3.7797
" />
<path d="M73.2610 2.6306
L73.0191 2.6306
" />
<path d="M73.0191 2.6306
L72.8982 2.6911
" />
<path d="M72.8982 2.6911
L72.8377 2.7516
" />
<path d="M72.8377 2.7516
L72.7167 2.9330
" />
<path d="M72.7167 2.9330
L72.6563 3.1749
" />
<path d="M72.6563 3.1749
L72.6563 3.6587
" />
<path d="M72.6563 3.6587
L72.7167 3.7797
" />
<path d="M72.7167 3.7797
L72.7772 3.8402
" />
<path d="M72.7772 3.8402
L72.8982 3.9006
" />
<path d="M72.8982 3.9006
L73.1401 3.9006
" />
<path d="M73.1401 3.9006
L73.2610 3.8402
" />
<path d="M73.2610 3.8402
L73.3215 3.7797
" />
<path d="M73.3215 3.7797
L73.3820 3.6587
" />
<path d="M73.3820 3.6587
L73.3820 3.3563
" />
<path d="M73.3820 3.3563
L73.3215 3.2354
" />
<path d="M73.3215 3.2354
L73.2610 3.1749
" />
<path d="M73.2610 3.1749
L73.1401 3.1144
" />
<path d="M73.1401 3.1144
L72.8982 3.1144
" />
<path d="M72.8982 3.1144
L72.7772 3.1749
" />
<path d="M72.7772 3.1749
L72.7167 3.2354
" />
<path d="M72.7167 3.2354
L72.6563 3.3563
" />
<path d="M74.1681 2.6306
L74.2891 2.6306
" />
<path d="M74.2891 2.6306
L74.4100 2.6911
" />
<path d="M74.4100 2.6911
L74.4705 2.7516
" />
<path d="M74.4705 2.7516
L74.5310 2.8725
" />
<path d="M74.5310 2.8725
L74.5915 3.1144
" />
<path d="M74.5915 3.1144
L74.5915 3.4168
" />
<path d="M74.5915 3.4168
L74.5310 3.6587
" />
<path d="M74.5310 3.6587
L74.4705 3.7797
" />
<path d="M74.4705 3.7797
L74.4100 3.8402
" />
<path d="M74.4100 3.8402
L74.2891 3.9006
" />
<path d="M74.2891 3.9006
L74.1681 3.9006
" />
<path d="M74.1681 3.9006
L74.0472 3.8402
" />
<path d="M74.0472 3.8402
L73.9867 3.7797
" />
<path d="M73.9867 3.7797
L73.9262 3.6587
" />
<path d="M73.9262 3.6587
L73.8658 3.4168
" />
<path d="M73.8658 3.4168
L73.8658 3.1144
" />
<path d="M73.8658 3.1144
L73.9262 2.8725
" />
<path d="M73.9262 2.8725
L73.9867 2.7516
" />
<path d="M73.9867 2.7516
L74.0472 2.6911
" />
<path d="M74.0472 2.6911
L74.1681 2.6306
" />
<path d="M75.3172 3.1749
L75.1962 3.1144
" />
<path d="M75.1962 3.1144
L75.1357 3.0540
" />
<path d="M75.1357 3.0540
L75.0753 2.9330
" />
<path d="M75.0753 2.9330
L75.0753 2.8725
" />
<path d="M75.0753 2.8725
L75.1357 2.7516
" />
<path d="M75.1357 2.7516
L75.1962 2.6911
" />
<path d="M75.1962 2.6911
L75.3172 2.6306
" />
<path d="M75.3172 2.6306
L75.5591 2.6306
" />
<path d="M75.5591 2.6306
L75.6800 2.6911
" />
<path d="M75.6800 2.6911
L75.7405 2.7516
" />
<path d="M75.7405 2.7516
L75.8010 2.8725
" />
<path d="M75.8010 2.8725
L75.8010 2.9330
" />
<path d="M75.8010 2.9330
L75.7405 3.0540
" />
<path d="M75.7405 3.0540
L75.6800 3.1144
" />
<path d="M75.6800 3.1144
L75.5591 3.1749
" />
<path d="M75.5591 3.1749
L75.3172 3.1749
" />
<path d="M75.3172 3.1749
L75.1962 3.2354
" />
<path d="M75.1962 3.2354
L75.1357 3.2959
" />
<path d="M75.1357 3.2959
L75.0753 3.4168
" />
<path d="M75.0753 3.4168
L75.0753 3.6587
" />
<path d="M75.0753 3.6587
L75.1357 3.7797
" />
<path d="M75.1357 3.7797
L75.1962 3.8402
" />
<path d="M75.1962 3.8402
L75.3172 3.9006
" />
<path d="M75.3172 3.9006
L75.5591 3.9006
" />
<path d="M75.5591 3.9006
L75.6800 3.8402
" />
<path d="M75.6800 3.8402
L75.7405 3.7797
" />
<path d="M75.7405 3.7797
L75.8010 3.6587
" />
<path d="M75.8010 3.6587
L75.8010 3.4168
" />
<path d="M75.8010 3.4168
L75.7405 3.2959
" />
<path d="M75.7405 3.2959
L75.6800 3.2354
" />
<path d="M75.6800 3.2354
L75.5591 3.1749
" />
<path d="M77.2524 2.5702
L76.1638 4.2030
" />
<path d="M77.6757 3.9006
L77.6757 2.6306
" />
<path d="M78.2200 3.9006
L78.2200 3.2354
" />
<path d="M78.2200 3.2354
L78.1595 3.1144
" />
<path d="M78.1595 3.1144
L78.0386 3.0540
" />
<path d="M78.0386 3.0540
L77.8572 3.0540
" />
<path d="M77.8572 3.0540
L77.7362 3.1144
" />
<path d="M77.7362 3.1144
L77.6757 3.1749
" />
<path d="M79.4900 3.9006
L78.7643 3.9006
" />
<path d="M79.1271 3.9006
L79.1271 2.6306
" />
<path d="M79.1271 2.6306
L79.0062 2.8121
" />
<path d="M79.0062 2.8121
L78.8852 2.9330
" />
<path d="M78.8852 2.9330
L78.7643 2.9935
" />
<path d="M80.6995 3.9006
L79.9738 3.9006
" />
<path d="M80.3366 3.9006
L80.3366 2.6306
" />
<path d="M80.3366 2.6306
L80.2157 2.8121
" />
<path d="M80.2157 2.8121
L80.0947 2.9330
" />
<path d="M80.0947 2.9330
L79.9738 2.9935
" />
<path d="M81.7880 3.9006
L81.7880 3.2354
" />
<path d="M81.7880 3.2354
L81.7275 3.1144
" />
<path d="M81.7275 3.1144
L81.6066 3.0540
" />
<path d="M81.6066 3.0540
L81.3647 3.0540
" />
<path d="M81.3647 3.0540
L81.2437 3.1144
" />
<path d="M81.7880 3.8402
L81.6671 3.9006
" />
<path d="M81.6671 3.9006
L81.3647 3.9006
" />
<path d="M81.3647 3.9006
L81.2437 3.8402
" />
<path d="M81.2437 3.8402
L81.1833 3.7192
" />
<path d="M81.1833 3.7192
L81.1833 3.5982
" />
<path d="M81.1833 3.5982
L81.2437 3.4773
" />
<path d="M81.2437 3.4773
L81.3647 3.4168
" />
<path d="M81.3647 3.4168
L81.6671 3.4168
" />
<path d="M81.6671 3.4168
L81.7880 3.3563
" />
<path d="M82.9370 3.9006
L82.9370 3.2354
" />
<path d="M82.9370 3.2354
L82.8765 3.1144
" />
<path d="M82.8765 3.1144
L82.7556 3.0540
" />
<path d="M82.7556 3.0540
L82.5137 3.0540
" />
<path d="M82.5137 3.0540
L82.3927 3.1144
" />
<path d="M82.9370 3.8402
L82.8161 3.9006
" />
<path d="M82.8161 3.9006
L82.5137 3.9006
" />
<path d="M82.5137 3.9006
L82.3927 3.8402
" />
<path d="M82.3927 3.8402
L82.3323 3.7192
" />
<path d="M82.3323 3.7192
L82.3323 3.5982
" />
<path d="M82.3323 3.5982
L82.3927 3.4773
" />
<path d="M82.3927 3.4773
L82.5137 3.4168
" />
<path d="M82.5137 3.4168
L82.8161 3.4168
" />
<path d="M82.8161 3.4168
L82.9370 3.3563
" />
<path d="M84.2070 3.9006
L83.4813 3.9006
" />
<path d="M83.8441 3.9006
L83.8441 2.6306
" />
<path d="M83.8441 2.6306
L83.7232 2.8121
" />
<path d="M83.7232 2.8121
L83.6022 2.9330
" />
<path d="M83.6022 2.9330
L83.4813 2.9935
" />
<path d="M84.7512 3.7797
L84.8117 3.8402
" />
<path d="M84.8117 3.8402
L84.7512 3.9006
" />
<path d="M84.7512 3.9006
L84.6908 3.8402
" />
<path d="M84.6908 3.8402
L84.7512 3.7797
" />
<path d="M84.7512 3.7797
L84.7512 3.9006
" />
<path d="M85.3560 3.0540
L85.3560 4.3240
" />
<path d="M85.3560 3.1144
L85.4770 3.0540
" />
<path d="M85.4770 3.0540
L85.7189 3.0540
" />
<path d="M85.7189 3.0540
L85.8398 3.1144
" />
<path d="M85.8398 3.1144
L85.9003 3.1749
" />
<path d="M85.9003 3.1749
L85.9608 3.2959
" />
<path d="M85.9608 3.2959
L85.9608 3.6587
" />
<path d="M85.9608 3.6587
L85.9003 3.7797
" />
<path d="M85.9003 3.7797
L85.8398 3.8402
" />
<path d="M85.8398 3.8402
L85.7189 3.9006
" />
<path d="M85.7189 3.9006
L85.4770 3.9006
" />
<path d="M85.4770 3.9006
L85.3560 3.8402
" />
<path d="M87.0493 3.9006
L87.0493 2.6306
" />
<path d="M87.0493 3.8402
L86.9284 3.9006
" />
<path d="M86.9284 3.9006
L86.6865 3.9006
" />
<path d="M86.6865 3.9006
L86.5655 3.8402
" />
<path d="M86.5655 3.8402
L86.5050 3.7797
" />
<path d="M86.5050 3.7797
L86.4446 3.6587
" />
<path d="M86.4446 3.6587
L86.4446 3.2959
" />
<path d="M86.4446 3.2959
L86.5050 3.1749
" />
<path d="M86.5050 3.1749
L86.5655 3.1144
" />
<path d="M86.5655 3.1144
L86.6865 3.0540
" />
<path d="M86.6865 3.0540
L86.9284 3.0540
" />
<path d="M86.9284 3.0540
L87.0493 3.1144
" />
<path d="M87.4726 3.0540
L87.9564 3.0540
" />
<path d="M87.6540 3.9006
L87.6540 2.8121
" />
<path d="M87.6540 2.8121
L87.7145 2.6911
" />
<path d="M87.7145 2.6911
L87.8355 2.6306
" />
<path d="M87.8355 2.6306
L87.9564 2.6306
" />
</g></g> 
</svg>
