<?xml version="1.0" standalone="no"?>
 <!DOCTYPE svg PUBLIC "-//W3C//DTD SVG 1.1//EN" 
 "http://www.w3.org/Graphics/SVG/1.1/DTD/svg11.dtd"> 
<svg
  xmlns:svg="http://www.w3.org/2000/svg"
  xmlns="http://www.w3.org/2000/svg"
  xmlns:xlink="http://www.w3.org/1999/xlink"
  version="1.1"
  width="36.2458mm" height="23.3426mm" viewBox="0.0000 0.0000 36.2458 23.3426">
<title>SVG Image created as working.svg date 2023/08/01 20:47:50 </title>
  <desc>Image generated by Eeschema-SVG </desc>
<g style="fill:#000000; fill-opacity:1.0000;stroke:#000000; stroke-opacity:1.0000;
stroke-linecap:round; stroke-linejoin:round;"
 transform="translate(0 0) scale(1 1)">
</g>
<g style="fill:#840000; fill-opacity:0.0; 
stroke:#840000; stroke-width:0.0000; stroke-opacity:1; 
stroke-linecap:round; stroke-linejoin:round;">
</g>
<g style="fill:#FFFFC2; fill-opacity:0.0; 
stroke:#FFFFC2; stroke-width:0.0000; stroke-opacity:1; 
stroke-linecap:round; stroke-linejoin:round;">
</g>
<g style="fill:#FFFFC2; fill-opacity:1.0000; 
stroke:#FFFFC2; stroke-width:0.0000; stroke-opacity:1; 
stroke-linecap:round; stroke-linejoin:round;">
<rect x="15.579500" y="4.048200" width="5.080000" height="15.240000" rx="0.000000" />
</g>
<g style="fill:#840084; fill-opacity:1.0000; 
stroke:#840084; stroke-width:0.0000; stroke-opacity:1; 
stroke-linecap:round; stroke-linejoin:round;">
</g>
<g style="fill:#840000; fill-opacity:1.0000; 
stroke:#840000; stroke-width:0.0000; stroke-opacity:1; 
stroke-linecap:round; stroke-linejoin:round;">
</g>
<g style="fill:#840000; fill-opacity:0.0; 
stroke:#840000; stroke-width:0.1524; stroke-opacity:1; 
stroke-linecap:round; stroke-linejoin:round;">
<rect x="15.579500" y="17.891200" width="1.270000" height="0.254000" rx="0.000000" />
<rect x="15.579500" y="15.351200" width="1.270000" height="0.254000" rx="0.000000" />
<rect x="15.579500" y="12.811200" width="1.270000" height="0.254000" rx="0.000000" />
<rect x="15.579500" y="10.271200" width="1.270000" height="0.254000" rx="0.000000" />
<rect x="15.579500" y="7.731200" width="1.270000" height="0.254000" rx="0.000000" />
<rect x="15.579500" y="5.191200" width="1.270000" height="0.254000" rx="0.000000" />
</g>
<g style="fill:#840000; fill-opacity:0.0; 
stroke:#840000; stroke-width:0.2540; stroke-opacity:1; 
stroke-linecap:round; stroke-linejoin:round;">
<rect x="15.579500" y="4.048200" width="5.080000" height="15.240000" rx="0.000000" />
</g>
<g style="fill:#840000; fill-opacity:0.0; 
stroke:#840000; stroke-width:0.1524; stroke-opacity:1; 
stroke-linecap:round; stroke-linejoin:round;">
<rect x="19.389500" y="17.891200" width="1.270000" height="0.254000" rx="0.000000" />
<rect x="19.389500" y="15.351200" width="1.270000" height="0.254000" rx="0.000000" />
<rect x="19.389500" y="12.811200" width="1.270000" height="0.254000" rx="0.000000" />
<rect x="19.389500" y="10.271200" width="1.270000" height="0.254000" rx="0.000000" />
<rect x="19.389500" y="7.731200" width="1.270000" height="0.254000" rx="0.000000" />
<rect x="19.389500" y="5.191200" width="1.270000" height="0.254000" rx="0.000000" />
<path d="M15.5795 5.3182
L11.7695 5.3182
" />
</g>
<g style="fill:#A90000; fill-opacity:0.0; 
stroke:#A90000; stroke-width:0.1524; stroke-opacity:1; 
stroke-linecap:round; stroke-linejoin:round;">
<text x="13.6745" y="5.0642"
textLength="1.3365" font-size="1.6933" lengthAdjust="spacingAndGlyphs"
text-anchor="middle" opacity="0">1</text>
<g class="stroked-text"><desc>1</desc>
<path d="M14.0374 4.9087
L13.3117 4.9087
" />
<path d="M13.6745 4.9087
L13.6745 3.6387
" />
<path d="M13.6745 3.6387
L13.5536 3.8202
" />
<path d="M13.5536 3.8202
L13.4326 3.9411
" />
<path d="M13.4326 3.9411
L13.3117 4.0016
" />
</g></g>
<g style="fill:#840000; fill-opacity:0.0; 
stroke:#840000; stroke-width:0.1524; stroke-opacity:1; 
stroke-linecap:round; stroke-linejoin:round;">
<path d="M20.6595 10.3982
L24.4695 10.3982
" />
</g>
<g style="fill:#A90000; fill-opacity:0.0; 
stroke:#A90000; stroke-width:0.1524; stroke-opacity:1; 
stroke-linecap:round; stroke-linejoin:round;">
<text x="22.5645" y="10.1442"
textLength="2.5460" font-size="1.6933" lengthAdjust="spacingAndGlyphs"
text-anchor="middle" opacity="0">10</text>
<g class="stroked-text"><desc>10</desc>
<path d="M22.3226 9.9887
L21.5969 9.9887
" />
<path d="M21.9597 9.9887
L21.9597 8.7187
" />
<path d="M21.9597 8.7187
L21.8388 8.9002
" />
<path d="M21.8388 8.9002
L21.7178 9.0211
" />
<path d="M21.7178 9.0211
L21.5969 9.0816
" />
<path d="M23.1087 8.7187
L23.2297 8.7187
" />
<path d="M23.2297 8.7187
L23.3506 8.7792
" />
<path d="M23.3506 8.7792
L23.4111 8.8397
" />
<path d="M23.4111 8.8397
L23.4716 8.9606
" />
<path d="M23.4716 8.9606
L23.5321 9.2025
" />
<path d="M23.5321 9.2025
L23.5321 9.5049
" />
<path d="M23.5321 9.5049
L23.4716 9.7468
" />
<path d="M23.4716 9.7468
L23.4111 9.8678
" />
<path d="M23.4111 9.8678
L23.3506 9.9283
" />
<path d="M23.3506 9.9283
L23.2297 9.9887
" />
<path d="M23.2297 9.9887
L23.1087 9.9887
" />
<path d="M23.1087 9.9887
L22.9878 9.9283
" />
<path d="M22.9878 9.9283
L22.9273 9.8678
" />
<path d="M22.9273 9.8678
L22.8668 9.7468
" />
<path d="M22.8668 9.7468
L22.8064 9.5049
" />
<path d="M22.8064 9.5049
L22.8064 9.2025
" />
<path d="M22.8064 9.2025
L22.8668 8.9606
" />
<path d="M22.8668 8.9606
L22.9273 8.8397
" />
<path d="M22.9273 8.8397
L22.9878 8.7792
" />
<path d="M22.9878 8.7792
L23.1087 8.7187
" />
</g></g>
<g style="fill:#840000; fill-opacity:0.0; 
stroke:#840000; stroke-width:0.1524; stroke-opacity:1; 
stroke-linecap:round; stroke-linejoin:round;">
<path d="M20.6595 7.8582
L24.4695 7.8582
" />
</g>
<g style="fill:#A90000; fill-opacity:0.0; 
stroke:#A90000; stroke-width:0.1524; stroke-opacity:1; 
stroke-linecap:round; stroke-linejoin:round;">
<text x="22.5645" y="7.6042"
textLength="2.5460" font-size="1.6933" lengthAdjust="spacingAndGlyphs"
text-anchor="middle" opacity="0">11</text>
<g class="stroked-text"><desc>11</desc>
<path d="M22.3226 7.4487
L21.5969 7.4487
" />
<path d="M21.9597 7.4487
L21.9597 6.1787
" />
<path d="M21.9597 6.1787
L21.8388 6.3602
" />
<path d="M21.8388 6.3602
L21.7178 6.4811
" />
<path d="M21.7178 6.4811
L21.5969 6.5416
" />
<path d="M23.5321 7.4487
L22.8064 7.4487
" />
<path d="M23.1692 7.4487
L23.1692 6.1787
" />
<path d="M23.1692 6.1787
L23.0483 6.3602
" />
<path d="M23.0483 6.3602
L22.9273 6.4811
" />
<path d="M22.9273 6.4811
L22.8064 6.5416
" />
</g></g>
<g style="fill:#840000; fill-opacity:0.0; 
stroke:#840000; stroke-width:0.1524; stroke-opacity:1; 
stroke-linecap:round; stroke-linejoin:round;">
<path d="M20.6595 5.3182
L24.4695 5.3182
" />
</g>
<g style="fill:#A90000; fill-opacity:0.0; 
stroke:#A90000; stroke-width:0.1524; stroke-opacity:1; 
stroke-linecap:round; stroke-linejoin:round;">
<text x="22.5645" y="5.0642"
textLength="2.5460" font-size="1.6933" lengthAdjust="spacingAndGlyphs"
text-anchor="middle" opacity="0">12</text>
<g class="stroked-text"><desc>12</desc>
<path d="M22.3226 4.9087
L21.5969 4.9087
" />
<path d="M21.9597 4.9087
L21.9597 3.6387
" />
<path d="M21.9597 3.6387
L21.8388 3.8202
" />
<path d="M21.8388 3.8202
L21.7178 3.9411
" />
<path d="M21.7178 3.9411
L21.5969 4.0016
" />
<path d="M22.8064 3.7597
L22.8668 3.6992
" />
<path d="M22.8668 3.6992
L22.9878 3.6387
" />
<path d="M22.9878 3.6387
L23.2902 3.6387
" />
<path d="M23.2902 3.6387
L23.4111 3.6992
" />
<path d="M23.4111 3.6992
L23.4716 3.7597
" />
<path d="M23.4716 3.7597
L23.5321 3.8806
" />
<path d="M23.5321 3.8806
L23.5321 4.0016
" />
<path d="M23.5321 4.0016
L23.4716 4.1830
" />
<path d="M23.4716 4.1830
L22.7459 4.9087
" />
<path d="M22.7459 4.9087
L23.5321 4.9087
" />
</g></g>
<g style="fill:#840000; fill-opacity:0.0; 
stroke:#840000; stroke-width:0.1524; stroke-opacity:1; 
stroke-linecap:round; stroke-linejoin:round;">
<path d="M15.5795 7.8582
L11.7695 7.8582
" />
</g>
<g style="fill:#A90000; fill-opacity:0.0; 
stroke:#A90000; stroke-width:0.1524; stroke-opacity:1; 
stroke-linecap:round; stroke-linejoin:round;">
<text x="13.6745" y="7.6042"
textLength="1.3365" font-size="1.6933" lengthAdjust="spacingAndGlyphs"
text-anchor="middle" opacity="0">2</text>
<g class="stroked-text"><desc>2</desc>
<path d="M13.3117 6.2997
L13.3721 6.2392
" />
<path d="M13.3721 6.2392
L13.4931 6.1787
" />
<path d="M13.4931 6.1787
L13.7955 6.1787
" />
<path d="M13.7955 6.1787
L13.9164 6.2392
" />
<path d="M13.9164 6.2392
L13.9769 6.2997
" />
<path d="M13.9769 6.2997
L14.0374 6.4206
" />
<path d="M14.0374 6.4206
L14.0374 6.5416
" />
<path d="M14.0374 6.5416
L13.9769 6.7230
" />
<path d="M13.9769 6.7230
L13.2512 7.4487
" />
<path d="M13.2512 7.4487
L14.0374 7.4487
" />
</g></g>
<g style="fill:#840000; fill-opacity:0.0; 
stroke:#840000; stroke-width:0.1524; stroke-opacity:1; 
stroke-linecap:round; stroke-linejoin:round;">
<path d="M15.5795 10.3982
L11.7695 10.3982
" />
</g>
<g style="fill:#A90000; fill-opacity:0.0; 
stroke:#A90000; stroke-width:0.1524; stroke-opacity:1; 
stroke-linecap:round; stroke-linejoin:round;">
<text x="13.6745" y="10.1442"
textLength="1.3365" font-size="1.6933" lengthAdjust="spacingAndGlyphs"
text-anchor="middle" opacity="0">3</text>
<g class="stroked-text"><desc>3</desc>
<path d="M13.2512 8.7187
L14.0374 8.7187
" />
<path d="M14.0374 8.7187
L13.6140 9.2025
" />
<path d="M13.6140 9.2025
L13.7955 9.2025
" />
<path d="M13.7955 9.2025
L13.9164 9.2630
" />
<path d="M13.9164 9.2630
L13.9769 9.3235
" />
<path d="M13.9769 9.3235
L14.0374 9.4444
" />
<path d="M14.0374 9.4444
L14.0374 9.7468
" />
<path d="M14.0374 9.7468
L13.9769 9.8678
" />
<path d="M13.9769 9.8678
L13.9164 9.9283
" />
<path d="M13.9164 9.9283
L13.7955 9.9887
" />
<path d="M13.7955 9.9887
L13.4326 9.9887
" />
<path d="M13.4326 9.9887
L13.3117 9.9283
" />
<path d="M13.3117 9.9283
L13.2512 9.8678
" />
</g></g>
<g style="fill:#840000; fill-opacity:0.0; 
stroke:#840000; stroke-width:0.1524; stroke-opacity:1; 
stroke-linecap:round; stroke-linejoin:round;">
<path d="M15.5795 12.9382
L11.7695 12.9382
" />
</g>
<g style="fill:#A90000; fill-opacity:0.0; 
stroke:#A90000; stroke-width:0.1524; stroke-opacity:1; 
stroke-linecap:round; stroke-linejoin:round;">
<text x="13.6745" y="12.6842"
textLength="1.3365" font-size="1.6933" lengthAdjust="spacingAndGlyphs"
text-anchor="middle" opacity="0">4</text>
<g class="stroked-text"><desc>4</desc>
<path d="M13.9164 11.6821
L13.9164 12.5287
" />
<path d="M13.6140 11.1983
L13.3117 12.1054
" />
<path d="M13.3117 12.1054
L14.0978 12.1054
" />
</g></g>
<g style="fill:#840000; fill-opacity:0.0; 
stroke:#840000; stroke-width:0.1524; stroke-opacity:1; 
stroke-linecap:round; stroke-linejoin:round;">
<path d="M15.5795 15.4782
L11.7695 15.4782
" />
</g>
<g style="fill:#A90000; fill-opacity:0.0; 
stroke:#A90000; stroke-width:0.1524; stroke-opacity:1; 
stroke-linecap:round; stroke-linejoin:round;">
<text x="13.6745" y="15.2242"
textLength="1.3365" font-size="1.6933" lengthAdjust="spacingAndGlyphs"
text-anchor="middle" opacity="0">5</text>
<g class="stroked-text"><desc>5</desc>
<path d="M13.9769 13.7987
L13.3721 13.7987
" />
<path d="M13.3721 13.7987
L13.3117 14.4035
" />
<path d="M13.3117 14.4035
L13.3721 14.3430
" />
<path d="M13.3721 14.3430
L13.4931 14.2825
" />
<path d="M13.4931 14.2825
L13.7955 14.2825
" />
<path d="M13.7955 14.2825
L13.9164 14.3430
" />
<path d="M13.9164 14.3430
L13.9769 14.4035
" />
<path d="M13.9769 14.4035
L14.0374 14.5244
" />
<path d="M14.0374 14.5244
L14.0374 14.8268
" />
<path d="M14.0374 14.8268
L13.9769 14.9478
" />
<path d="M13.9769 14.9478
L13.9164 15.0083
" />
<path d="M13.9164 15.0083
L13.7955 15.0687
" />
<path d="M13.7955 15.0687
L13.4931 15.0687
" />
<path d="M13.4931 15.0687
L13.3721 15.0083
" />
<path d="M13.3721 15.0083
L13.3117 14.9478
" />
</g></g>
<g style="fill:#840000; fill-opacity:0.0; 
stroke:#840000; stroke-width:0.1524; stroke-opacity:1; 
stroke-linecap:round; stroke-linejoin:round;">
<path d="M15.5795 18.0182
L11.7695 18.0182
" />
</g>
<g style="fill:#A90000; fill-opacity:0.0; 
stroke:#A90000; stroke-width:0.1524; stroke-opacity:1; 
stroke-linecap:round; stroke-linejoin:round;">
<text x="13.6745" y="17.7642"
textLength="1.3365" font-size="1.6933" lengthAdjust="spacingAndGlyphs"
text-anchor="middle" opacity="0">6</text>
<g class="stroked-text"><desc>6</desc>
<path d="M13.9164 16.3387
L13.6745 16.3387
" />
<path d="M13.6745 16.3387
L13.5536 16.3992
" />
<path d="M13.5536 16.3992
L13.4931 16.4597
" />
<path d="M13.4931 16.4597
L13.3721 16.6411
" />
<path d="M13.3721 16.6411
L13.3117 16.8830
" />
<path d="M13.3117 16.8830
L13.3117 17.3668
" />
<path d="M13.3117 17.3668
L13.3721 17.4878
" />
<path d="M13.3721 17.4878
L13.4326 17.5483
" />
<path d="M13.4326 17.5483
L13.5536 17.6087
" />
<path d="M13.5536 17.6087
L13.7955 17.6087
" />
<path d="M13.7955 17.6087
L13.9164 17.5483
" />
<path d="M13.9164 17.5483
L13.9769 17.4878
" />
<path d="M13.9769 17.4878
L14.0374 17.3668
" />
<path d="M14.0374 17.3668
L14.0374 17.0644
" />
<path d="M14.0374 17.0644
L13.9769 16.9435
" />
<path d="M13.9769 16.9435
L13.9164 16.8830
" />
<path d="M13.9164 16.8830
L13.7955 16.8225
" />
<path d="M13.7955 16.8225
L13.5536 16.8225
" />
<path d="M13.5536 16.8225
L13.4326 16.8830
" />
<path d="M13.4326 16.8830
L13.3721 16.9435
" />
<path d="M13.3721 16.9435
L13.3117 17.0644
" />
</g></g>
<g style="fill:#840000; fill-opacity:0.0; 
stroke:#840000; stroke-width:0.1524; stroke-opacity:1; 
stroke-linecap:round; stroke-linejoin:round;">
<path d="M20.6595 18.0182
L24.4695 18.0182
" />
</g>
<g style="fill:#A90000; fill-opacity:0.0; 
stroke:#A90000; stroke-width:0.1524; stroke-opacity:1; 
stroke-linecap:round; stroke-linejoin:round;">
<text x="22.5645" y="17.7642"
textLength="1.3365" font-size="1.6933" lengthAdjust="spacingAndGlyphs"
text-anchor="middle" opacity="0">7</text>
<g class="stroked-text"><desc>7</desc>
<path d="M22.1412 16.3387
L22.9878 16.3387
" />
<path d="M22.9878 16.3387
L22.4436 17.6087
" />
</g></g>
<g style="fill:#840000; fill-opacity:0.0; 
stroke:#840000; stroke-width:0.1524; stroke-opacity:1; 
stroke-linecap:round; stroke-linejoin:round;">
<path d="M20.6595 15.4782
L24.4695 15.4782
" />
</g>
<g style="fill:#A90000; fill-opacity:0.0; 
stroke:#A90000; stroke-width:0.1524; stroke-opacity:1; 
stroke-linecap:round; stroke-linejoin:round;">
<text x="22.5645" y="15.2242"
textLength="1.3365" font-size="1.6933" lengthAdjust="spacingAndGlyphs"
text-anchor="middle" opacity="0">8</text>
<g class="stroked-text"><desc>8</desc>
<path d="M22.4436 14.3430
L22.3226 14.2825
" />
<path d="M22.3226 14.2825
L22.2621 14.2221
" />
<path d="M22.2621 14.2221
L22.2017 14.1011
" />
<path d="M22.2017 14.1011
L22.2017 14.0406
" />
<path d="M22.2017 14.0406
L22.2621 13.9197
" />
<path d="M22.2621 13.9197
L22.3226 13.8592
" />
<path d="M22.3226 13.8592
L22.4436 13.7987
" />
<path d="M22.4436 13.7987
L22.6855 13.7987
" />
<path d="M22.6855 13.7987
L22.8064 13.8592
" />
<path d="M22.8064 13.8592
L22.8669 13.9197
" />
<path d="M22.8669 13.9197
L22.9274 14.0406
" />
<path d="M22.9274 14.0406
L22.9274 14.1011
" />
<path d="M22.9274 14.1011
L22.8669 14.2221
" />
<path d="M22.8669 14.2221
L22.8064 14.2825
" />
<path d="M22.8064 14.2825
L22.6855 14.3430
" />
<path d="M22.6855 14.3430
L22.4436 14.3430
" />
<path d="M22.4436 14.3430
L22.3226 14.4035
" />
<path d="M22.3226 14.4035
L22.2621 14.4640
" />
<path d="M22.2621 14.4640
L22.2017 14.5849
" />
<path d="M22.2017 14.5849
L22.2017 14.8268
" />
<path d="M22.2017 14.8268
L22.2621 14.9478
" />
<path d="M22.2621 14.9478
L22.3226 15.0083
" />
<path d="M22.3226 15.0083
L22.4436 15.0687
" />
<path d="M22.4436 15.0687
L22.6855 15.0687
" />
<path d="M22.6855 15.0687
L22.8064 15.0083
" />
<path d="M22.8064 15.0083
L22.8669 14.9478
" />
<path d="M22.8669 14.9478
L22.9274 14.8268
" />
<path d="M22.9274 14.8268
L22.9274 14.5849
" />
<path d="M22.9274 14.5849
L22.8669 14.4640
" />
<path d="M22.8669 14.4640
L22.8064 14.4035
" />
<path d="M22.8064 14.4035
L22.6855 14.3430
" />
</g></g>
<g style="fill:#840000; fill-opacity:0.0; 
stroke:#840000; stroke-width:0.1524; stroke-opacity:1; 
stroke-linecap:round; stroke-linejoin:round;">
<path d="M20.6595 12.9382
L24.4695 12.9382
" />
</g>
<g style="fill:#A90000; fill-opacity:0.0; 
stroke:#A90000; stroke-width:0.1524; stroke-opacity:1; 
stroke-linecap:round; stroke-linejoin:round;">
<text x="22.5645" y="12.6842"
textLength="1.3365" font-size="1.6933" lengthAdjust="spacingAndGlyphs"
text-anchor="middle" opacity="0">9</text>
<g class="stroked-text"><desc>9</desc>
<path d="M22.3226 12.5287
L22.5645 12.5287
" />
<path d="M22.5645 12.5287
L22.6855 12.4683
" />
<path d="M22.6855 12.4683
L22.7459 12.4078
" />
<path d="M22.7459 12.4078
L22.8669 12.2263
" />
<path d="M22.8669 12.2263
L22.9274 11.9844
" />
<path d="M22.9274 11.9844
L22.9274 11.5006
" />
<path d="M22.9274 11.5006
L22.8669 11.3797
" />
<path d="M22.8669 11.3797
L22.8064 11.3192
" />
<path d="M22.8064 11.3192
L22.6855 11.2587
" />
<path d="M22.6855 11.2587
L22.4436 11.2587
" />
<path d="M22.4436 11.2587
L22.3226 11.3192
" />
<path d="M22.3226 11.3192
L22.2621 11.3797
" />
<path d="M22.2621 11.3797
L22.2017 11.5006
" />
<path d="M22.2017 11.5006
L22.2017 11.8030
" />
<path d="M22.2017 11.8030
L22.2621 11.9240
" />
<path d="M22.2621 11.9240
L22.3226 11.9844
" />
<path d="M22.3226 11.9844
L22.4436 12.0449
" />
<path d="M22.4436 12.0449
L22.6855 12.0449
" />
<path d="M22.6855 12.0449
L22.8064 11.9844
" />
<path d="M22.8064 11.9844
L22.8669 11.9240
" />
<path d="M22.8669 11.9240
L22.9274 11.8030
" />
</g></g>
<g style="fill:#840084; fill-opacity:0.0; 
stroke:#840084; stroke-width:0.1524; stroke-opacity:1; 
stroke-linecap:round; stroke-linejoin:round;">
</g>
<g style="fill:#006464; fill-opacity:0.0; 
stroke:#006464; stroke-width:0.1524; stroke-opacity:1; 
stroke-linecap:round; stroke-linejoin:round;">
</g>
<g style="fill:#006464; fill-opacity:0.0; 
stroke:#006464; stroke-width:0.1588; stroke-opacity:1; 
stroke-linecap:round; stroke-linejoin:round;">
<text x="18.1195" y="3.4132"
textLength="2.1992" font-size="1.6933" lengthAdjust="spacingAndGlyphs"
text-anchor="middle" opacity="0">J?</text>
<g class="stroked-text"><desc>J?</desc>
<path d="M17.7566 2.0957
L17.7566 3.0029
" />
<path d="M17.7566 3.0029
L17.6961 3.1843
" />
<path d="M17.6961 3.1843
L17.5752 3.3053
" />
<path d="M17.5752 3.3053
L17.3937 3.3657
" />
<path d="M17.3937 3.3657
L17.2728 3.3657
" />
<path d="M18.5428 3.2448
L18.6032 3.3053
" />
<path d="M18.6032 3.3053
L18.5428 3.3657
" />
<path d="M18.5428 3.3657
L18.4823 3.3053
" />
<path d="M18.4823 3.3053
L18.5428 3.2448
" />
<path d="M18.5428 3.2448
L18.5428 3.3657
" />
<path d="M18.3009 2.1562
L18.4218 2.0957
" />
<path d="M18.4218 2.0957
L18.7242 2.0957
" />
<path d="M18.7242 2.0957
L18.8451 2.1562
" />
<path d="M18.8451 2.1562
L18.9056 2.2772
" />
<path d="M18.9056 2.2772
L18.9056 2.3981
" />
<path d="M18.9056 2.3981
L18.8451 2.5191
" />
<path d="M18.8451 2.5191
L18.7847 2.5795
" />
<path d="M18.7847 2.5795
L18.6637 2.6400
" />
<path d="M18.6637 2.6400
L18.6032 2.7005
" />
<path d="M18.6032 2.7005
L18.5428 2.8214
" />
<path d="M18.5428 2.8214
L18.5428 2.8819
" />
</g><text x="18.1195" y="21.1932"
textLength="30.1993" font-size="1.6933" lengthAdjust="spacingAndGlyphs"
text-anchor="middle" opacity="0">Conn_02x06_Counter_Clockwise</text>
<g class="stroked-text"><desc>Conn_02x06_Counter_Clockwise</desc>
<path d="M4.1194 21.0248
L4.0590 21.0853
" />
<path d="M4.0590 21.0853
L3.8775 21.1457
" />
<path d="M3.8775 21.1457
L3.7566 21.1457
" />
<path d="M3.7566 21.1457
L3.5752 21.0853
" />
<path d="M3.5752 21.0853
L3.4542 20.9643
" />
<path d="M3.4542 20.9643
L3.3937 20.8433
" />
<path d="M3.3937 20.8433
L3.3333 20.6014
" />
<path d="M3.3333 20.6014
L3.3333 20.4200
" />
<path d="M3.3333 20.4200
L3.3937 20.1781
" />
<path d="M3.3937 20.1781
L3.4542 20.0572
" />
<path d="M3.4542 20.0572
L3.5752 19.9362
" />
<path d="M3.5752 19.9362
L3.7566 19.8757
" />
<path d="M3.7566 19.8757
L3.8775 19.8757
" />
<path d="M3.8775 19.8757
L4.0590 19.9362
" />
<path d="M4.0590 19.9362
L4.1194 19.9967
" />
<path d="M4.8452 21.1457
L4.7242 21.0853
" />
<path d="M4.7242 21.0853
L4.6637 21.0248
" />
<path d="M4.6637 21.0248
L4.6033 20.9038
" />
<path d="M4.6033 20.9038
L4.6033 20.5410
" />
<path d="M4.6033 20.5410
L4.6637 20.4200
" />
<path d="M4.6637 20.4200
L4.7242 20.3595
" />
<path d="M4.7242 20.3595
L4.8452 20.2991
" />
<path d="M4.8452 20.2991
L5.0266 20.2991
" />
<path d="M5.0266 20.2991
L5.1475 20.3595
" />
<path d="M5.1475 20.3595
L5.2080 20.4200
" />
<path d="M5.2080 20.4200
L5.2685 20.5410
" />
<path d="M5.2685 20.5410
L5.2685 20.9038
" />
<path d="M5.2685 20.9038
L5.2080 21.0248
" />
<path d="M5.2080 21.0248
L5.1475 21.0853
" />
<path d="M5.1475 21.0853
L5.0266 21.1457
" />
<path d="M5.0266 21.1457
L4.8452 21.1457
" />
<path d="M5.8127 20.2991
L5.8127 21.1457
" />
<path d="M5.8127 20.4200
L5.8732 20.3595
" />
<path d="M5.8732 20.3595
L5.9942 20.2991
" />
<path d="M5.9942 20.2991
L6.1756 20.2991
" />
<path d="M6.1756 20.2991
L6.2965 20.3595
" />
<path d="M6.2965 20.3595
L6.3570 20.4805
" />
<path d="M6.3570 20.4805
L6.3570 21.1457
" />
<path d="M6.9617 20.2991
L6.9617 21.1457
" />
<path d="M6.9617 20.4200
L7.0222 20.3595
" />
<path d="M7.0222 20.3595
L7.1432 20.2991
" />
<path d="M7.1432 20.2991
L7.3246 20.2991
" />
<path d="M7.3246 20.2991
L7.4455 20.3595
" />
<path d="M7.4455 20.3595
L7.5060 20.4805
" />
<path d="M7.5060 20.4805
L7.5060 21.1457
" />
<path d="M7.8084 21.2667
L8.7760 21.2667
" />
<path d="M9.3202 19.8757
L9.4412 19.8757
" />
<path d="M9.4412 19.8757
L9.5621 19.9362
" />
<path d="M9.5621 19.9362
L9.6226 19.9967
" />
<path d="M9.6226 19.9967
L9.6831 20.1176
" />
<path d="M9.6831 20.1176
L9.7436 20.3595
" />
<path d="M9.7436 20.3595
L9.7436 20.6619
" />
<path d="M9.7436 20.6619
L9.6831 20.9038
" />
<path d="M9.6831 20.9038
L9.6226 21.0248
" />
<path d="M9.6226 21.0248
L9.5621 21.0853
" />
<path d="M9.5621 21.0853
L9.4412 21.1457
" />
<path d="M9.4412 21.1457
L9.3202 21.1457
" />
<path d="M9.3202 21.1457
L9.1993 21.0853
" />
<path d="M9.1993 21.0853
L9.1388 21.0248
" />
<path d="M9.1388 21.0248
L9.0783 20.9038
" />
<path d="M9.0783 20.9038
L9.0179 20.6619
" />
<path d="M9.0179 20.6619
L9.0179 20.3595
" />
<path d="M9.0179 20.3595
L9.0783 20.1176
" />
<path d="M9.0783 20.1176
L9.1388 19.9967
" />
<path d="M9.1388 19.9967
L9.1993 19.9362
" />
<path d="M9.1993 19.9362
L9.3202 19.8757
" />
<path d="M10.2274 19.9967
L10.2878 19.9362
" />
<path d="M10.2878 19.9362
L10.4088 19.8757
" />
<path d="M10.4088 19.8757
L10.7112 19.8757
" />
<path d="M10.7112 19.8757
L10.8321 19.9362
" />
<path d="M10.8321 19.9362
L10.8926 19.9967
" />
<path d="M10.8926 19.9967
L10.9531 20.1176
" />
<path d="M10.9531 20.1176
L10.9531 20.2386
" />
<path d="M10.9531 20.2386
L10.8926 20.4200
" />
<path d="M10.8926 20.4200
L10.1669 21.1457
" />
<path d="M10.1669 21.1457
L10.9531 21.1457
" />
<path d="M11.3764 21.1457
L12.0416 20.2991
" />
<path d="M11.3764 20.2991
L12.0416 21.1457
" />
<path d="M12.7673 19.8757
L12.8883 19.8757
" />
<path d="M12.8883 19.8757
L13.0092 19.9362
" />
<path d="M13.0092 19.9362
L13.0697 19.9967
" />
<path d="M13.0697 19.9967
L13.1302 20.1176
" />
<path d="M13.1302 20.1176
L13.1907 20.3595
" />
<path d="M13.1907 20.3595
L13.1907 20.6619
" />
<path d="M13.1907 20.6619
L13.1302 20.9038
" />
<path d="M13.1302 20.9038
L13.0697 21.0248
" />
<path d="M13.0697 21.0248
L13.0092 21.0853
" />
<path d="M13.0092 21.0853
L12.8883 21.1457
" />
<path d="M12.8883 21.1457
L12.7673 21.1457
" />
<path d="M12.7673 21.1457
L12.6464 21.0853
" />
<path d="M12.6464 21.0853
L12.5859 21.0248
" />
<path d="M12.5859 21.0248
L12.5254 20.9038
" />
<path d="M12.5254 20.9038
L12.4650 20.6619
" />
<path d="M12.4650 20.6619
L12.4650 20.3595
" />
<path d="M12.4650 20.3595
L12.5254 20.1176
" />
<path d="M12.5254 20.1176
L12.5859 19.9967
" />
<path d="M12.5859 19.9967
L12.6464 19.9362
" />
<path d="M12.6464 19.9362
L12.7673 19.8757
" />
<path d="M14.2792 19.8757
L14.0373 19.8757
" />
<path d="M14.0373 19.8757
L13.9164 19.9362
" />
<path d="M13.9164 19.9362
L13.8559 19.9967
" />
<path d="M13.8559 19.9967
L13.7349 20.1781
" />
<path d="M13.7349 20.1781
L13.6745 20.4200
" />
<path d="M13.6745 20.4200
L13.6745 20.9038
" />
<path d="M13.6745 20.9038
L13.7349 21.0248
" />
<path d="M13.7349 21.0248
L13.7954 21.0853
" />
<path d="M13.7954 21.0853
L13.9164 21.1457
" />
<path d="M13.9164 21.1457
L14.1583 21.1457
" />
<path d="M14.1583 21.1457
L14.2792 21.0853
" />
<path d="M14.2792 21.0853
L14.3397 21.0248
" />
<path d="M14.3397 21.0248
L14.4002 20.9038
" />
<path d="M14.4002 20.9038
L14.4002 20.6014
" />
<path d="M14.4002 20.6014
L14.3397 20.4805
" />
<path d="M14.3397 20.4805
L14.2792 20.4200
" />
<path d="M14.2792 20.4200
L14.1583 20.3595
" />
<path d="M14.1583 20.3595
L13.9164 20.3595
" />
<path d="M13.9164 20.3595
L13.7954 20.4200
" />
<path d="M13.7954 20.4200
L13.7349 20.4805
" />
<path d="M13.7349 20.4805
L13.6745 20.6014
" />
<path d="M14.6421 21.2667
L15.6097 21.2667
" />
<path d="M16.6377 21.0248
L16.5773 21.0853
" />
<path d="M16.5773 21.0853
L16.3958 21.1457
" />
<path d="M16.3958 21.1457
L16.2749 21.1457
" />
<path d="M16.2749 21.1457
L16.0935 21.0853
" />
<path d="M16.0935 21.0853
L15.9725 20.9643
" />
<path d="M15.9725 20.9643
L15.9120 20.8433
" />
<path d="M15.9120 20.8433
L15.8516 20.6014
" />
<path d="M15.8516 20.6014
L15.8516 20.4200
" />
<path d="M15.8516 20.4200
L15.9120 20.1781
" />
<path d="M15.9120 20.1781
L15.9725 20.0572
" />
<path d="M15.9725 20.0572
L16.0935 19.9362
" />
<path d="M16.0935 19.9362
L16.2749 19.8757
" />
<path d="M16.2749 19.8757
L16.3958 19.8757
" />
<path d="M16.3958 19.8757
L16.5773 19.9362
" />
<path d="M16.5773 19.9362
L16.6377 19.9967
" />
<path d="M17.3635 21.1457
L17.2425 21.0853
" />
<path d="M17.2425 21.0853
L17.1820 21.0248
" />
<path d="M17.1820 21.0248
L17.1216 20.9038
" />
<path d="M17.1216 20.9038
L17.1216 20.5410
" />
<path d="M17.1216 20.5410
L17.1820 20.4200
" />
<path d="M17.1820 20.4200
L17.2425 20.3595
" />
<path d="M17.2425 20.3595
L17.3635 20.2991
" />
<path d="M17.3635 20.2991
L17.5449 20.2991
" />
<path d="M17.5449 20.2991
L17.6658 20.3595
" />
<path d="M17.6658 20.3595
L17.7263 20.4200
" />
<path d="M17.7263 20.4200
L17.7868 20.5410
" />
<path d="M17.7868 20.5410
L17.7868 20.9038
" />
<path d="M17.7868 20.9038
L17.7263 21.0248
" />
<path d="M17.7263 21.0248
L17.6658 21.0853
" />
<path d="M17.6658 21.0853
L17.5449 21.1457
" />
<path d="M17.5449 21.1457
L17.3635 21.1457
" />
<path d="M18.8753 20.2991
L18.8753 21.1457
" />
<path d="M18.3310 20.2991
L18.3310 20.9643
" />
<path d="M18.3310 20.9643
L18.3915 21.0853
" />
<path d="M18.3915 21.0853
L18.5125 21.1457
" />
<path d="M18.5125 21.1457
L18.6939 21.1457
" />
<path d="M18.6939 21.1457
L18.8148 21.0853
" />
<path d="M18.8148 21.0853
L18.8753 21.0248
" />
<path d="M19.4800 20.2991
L19.4800 21.1457
" />
<path d="M19.4800 20.4200
L19.5405 20.3595
" />
<path d="M19.5405 20.3595
L19.6615 20.2991
" />
<path d="M19.6615 20.2991
L19.8429 20.2991
" />
<path d="M19.8429 20.2991
L19.9638 20.3595
" />
<path d="M19.9638 20.3595
L20.0243 20.4805
" />
<path d="M20.0243 20.4805
L20.0243 21.1457
" />
<path d="M20.4476 20.2991
L20.9314 20.2991
" />
<path d="M20.6290 19.8757
L20.6290 20.9643
" />
<path d="M20.6290 20.9643
L20.6895 21.0853
" />
<path d="M20.6895 21.0853
L20.8105 21.1457
" />
<path d="M20.8105 21.1457
L20.9314 21.1457
" />
<path d="M21.8385 21.0853
L21.7176 21.1457
" />
<path d="M21.7176 21.1457
L21.4757 21.1457
" />
<path d="M21.4757 21.1457
L21.3547 21.0853
" />
<path d="M21.3547 21.0853
L21.2943 20.9643
" />
<path d="M21.2943 20.9643
L21.2943 20.4805
" />
<path d="M21.2943 20.4805
L21.3547 20.3595
" />
<path d="M21.3547 20.3595
L21.4757 20.2991
" />
<path d="M21.4757 20.2991
L21.7176 20.2991
" />
<path d="M21.7176 20.2991
L21.8385 20.3595
" />
<path d="M21.8385 20.3595
L21.8990 20.4805
" />
<path d="M21.8990 20.4805
L21.8990 20.6014
" />
<path d="M21.8990 20.6014
L21.2943 20.7224
" />
<path d="M22.4433 21.1457
L22.4433 20.2991
" />
<path d="M22.4433 20.5410
L22.5038 20.4200
" />
<path d="M22.5038 20.4200
L22.5643 20.3595
" />
<path d="M22.5643 20.3595
L22.6852 20.2991
" />
<path d="M22.6852 20.2991
L22.8062 20.2991
" />
<path d="M22.9272 21.2667
L23.8948 21.2667
" />
<path d="M24.9228 21.0248
L24.8624 21.0853
" />
<path d="M24.8624 21.0853
L24.6809 21.1457
" />
<path d="M24.6809 21.1457
L24.5600 21.1457
" />
<path d="M24.5600 21.1457
L24.3786 21.0853
" />
<path d="M24.3786 21.0853
L24.2576 20.9643
" />
<path d="M24.2576 20.9643
L24.1971 20.8433
" />
<path d="M24.1971 20.8433
L24.1367 20.6014
" />
<path d="M24.1367 20.6014
L24.1367 20.4200
" />
<path d="M24.1367 20.4200
L24.1971 20.1781
" />
<path d="M24.1971 20.1781
L24.2576 20.0572
" />
<path d="M24.2576 20.0572
L24.3786 19.9362
" />
<path d="M24.3786 19.9362
L24.5600 19.8757
" />
<path d="M24.5600 19.8757
L24.6809 19.8757
" />
<path d="M24.6809 19.8757
L24.8624 19.9362
" />
<path d="M24.8624 19.9362
L24.9228 19.9967
" />
<path d="M25.6486 21.1457
L25.5276 21.0853
" />
<path d="M25.5276 21.0853
L25.4671 20.9643
" />
<path d="M25.4671 20.9643
L25.4671 19.8757
" />
<path d="M26.3138 21.1457
L26.1928 21.0853
" />
<path d="M26.1928 21.0853
L26.1323 21.0248
" />
<path d="M26.1323 21.0248
L26.0719 20.9038
" />
<path d="M26.0719 20.9038
L26.0719 20.5410
" />
<path d="M26.0719 20.5410
L26.1323 20.4200
" />
<path d="M26.1323 20.4200
L26.1928 20.3595
" />
<path d="M26.1928 20.3595
L26.3138 20.2991
" />
<path d="M26.3138 20.2991
L26.4952 20.2991
" />
<path d="M26.4952 20.2991
L26.6161 20.3595
" />
<path d="M26.6161 20.3595
L26.6766 20.4200
" />
<path d="M26.6766 20.4200
L26.7371 20.5410
" />
<path d="M26.7371 20.5410
L26.7371 20.9038
" />
<path d="M26.7371 20.9038
L26.6766 21.0248
" />
<path d="M26.6766 21.0248
L26.6161 21.0853
" />
<path d="M26.6161 21.0853
L26.4952 21.1457
" />
<path d="M26.4952 21.1457
L26.3138 21.1457
" />
<path d="M27.8256 21.0853
L27.7047 21.1457
" />
<path d="M27.7047 21.1457
L27.4628 21.1457
" />
<path d="M27.4628 21.1457
L27.3418 21.0853
" />
<path d="M27.3418 21.0853
L27.2813 21.0248
" />
<path d="M27.2813 21.0248
L27.2209 20.9038
" />
<path d="M27.2209 20.9038
L27.2209 20.5410
" />
<path d="M27.2209 20.5410
L27.2813 20.4200
" />
<path d="M27.2813 20.4200
L27.3418 20.3595
" />
<path d="M27.3418 20.3595
L27.4628 20.2991
" />
<path d="M27.4628 20.2991
L27.7047 20.2991
" />
<path d="M27.7047 20.2991
L27.8256 20.3595
" />
<path d="M28.3699 21.1457
L28.3699 19.8757
" />
<path d="M28.4909 20.6619
L28.8537 21.1457
" />
<path d="M28.8537 20.2991
L28.3699 20.7829
" />
<path d="M29.2771 20.2991
L29.5190 21.1457
" />
<path d="M29.5190 21.1457
L29.7609 20.5410
" />
<path d="M29.7609 20.5410
L30.0028 21.1457
" />
<path d="M30.0028 21.1457
L30.2447 20.2991
" />
<path d="M30.7285 21.1457
L30.7285 20.2991
" />
<path d="M30.7285 19.8757
L30.6681 19.9362
" />
<path d="M30.6681 19.9362
L30.7285 19.9967
" />
<path d="M30.7285 19.9967
L30.7890 19.9362
" />
<path d="M30.7890 19.9362
L30.7285 19.8757
" />
<path d="M30.7285 19.8757
L30.7285 19.9967
" />
<path d="M31.2729 21.0853
L31.3938 21.1457
" />
<path d="M31.3938 21.1457
L31.6357 21.1457
" />
<path d="M31.6357 21.1457
L31.7567 21.0853
" />
<path d="M31.7567 21.0853
L31.8171 20.9643
" />
<path d="M31.8171 20.9643
L31.8171 20.9038
" />
<path d="M31.8171 20.9038
L31.7567 20.7829
" />
<path d="M31.7567 20.7829
L31.6357 20.7224
" />
<path d="M31.6357 20.7224
L31.4543 20.7224
" />
<path d="M31.4543 20.7224
L31.3333 20.6619
" />
<path d="M31.3333 20.6619
L31.2729 20.5410
" />
<path d="M31.2729 20.5410
L31.2729 20.4805
" />
<path d="M31.2729 20.4805
L31.3333 20.3595
" />
<path d="M31.3333 20.3595
L31.4543 20.2991
" />
<path d="M31.4543 20.2991
L31.6357 20.2991
" />
<path d="M31.6357 20.2991
L31.7567 20.3595
" />
<path d="M32.8452 21.0853
L32.7243 21.1457
" />
<path d="M32.7243 21.1457
L32.4824 21.1457
" />
<path d="M32.4824 21.1457
L32.3614 21.0853
" />
<path d="M32.3614 21.0853
L32.3010 20.9643
" />
<path d="M32.3010 20.9643
L32.3010 20.4805
" />
<path d="M32.3010 20.4805
L32.3614 20.3595
" />
<path d="M32.3614 20.3595
L32.4824 20.2991
" />
<path d="M32.4824 20.2991
L32.7243 20.2991
" />
<path d="M32.7243 20.2991
L32.8452 20.3595
" />
<path d="M32.8452 20.3595
L32.9057 20.4805
" />
<path d="M32.9057 20.4805
L32.9057 20.6014
" />
<path d="M32.9057 20.6014
L32.3010 20.7224
" />
</g></g>
<g style="fill:#840084; fill-opacity:0.0; 
stroke:#840084; stroke-width:0.1588; stroke-opacity:1; 
stroke-linecap:round; stroke-linejoin:round;">
<text x="16.8495" y="11.0332"
textLength="1.0501" font-size="1.6933" lengthAdjust="spacingAndGlyphs"
text-anchor="middle" opacity="0">~</text>
<g class="stroked-text"><desc>~</desc>
<path d="M16.5169 10.5019
L16.5774 10.4414
" />
<path d="M16.5774 10.4414
L16.6983 10.3810
" />
<path d="M16.6983 10.3810
L16.9402 10.5019
" />
<path d="M16.9402 10.5019
L17.0612 10.4414
" />
<path d="M17.0612 10.4414
L17.1217 10.3810
" />
</g></g> 
</svg>
