<?xml version="1.0" standalone="no"?>
 <!DOCTYPE svg PUBLIC "-//W3C//DTD SVG 1.1//EN" 
 "http://www.w3.org/Graphics/SVG/1.1/DTD/svg11.dtd"> 
<svg
  xmlns:svg="http://www.w3.org/2000/svg"
  xmlns="http://www.w3.org/2000/svg"
  xmlns:xlink="http://www.w3.org/1999/xlink"
  version="1.1"
  width="40.8940mm" height="10.1346mm" viewBox="0.0000 0.0000 40.8940 10.1346">
<title>SVG Image created as working.svg date 2023/08/03 03:49:05 </title>
  <desc>Image generated by Eeschema-SVG </desc>
<g style="fill:#000000; fill-opacity:1.0000;stroke:#000000; stroke-opacity:1.0000;
stroke-linecap:round; stroke-linejoin:round;"
 transform="translate(0 0) scale(1 1)">
</g>
<g style="fill:#840000; fill-opacity:0.0; 
stroke:#840000; stroke-width:0.0000; stroke-opacity:1; 
stroke-linecap:round; stroke-linejoin:round;">
</g>
<g style="fill:#840084; fill-opacity:0.0; 
stroke:#840084; stroke-width:0.0000; stroke-opacity:1; 
stroke-linecap:round; stroke-linejoin:round;">
</g>
<g style="fill:#840000; fill-opacity:0.0; 
stroke:#840000; stroke-width:0.0000; stroke-opacity:1; 
stroke-linecap:round; stroke-linejoin:round;">
</g>
<g style="fill:#840000; fill-opacity:0.0; 
stroke:#840000; stroke-width:0.1524; stroke-opacity:1; 
stroke-linecap:round; stroke-linejoin:round;">
<path style="fill:#840000; fill-opacity:0.0; 
stroke:#840000; stroke-width:0.1524; stroke-opacity:1; 
stroke-linecap:round; stroke-linejoin:round;fill:none"
d="M 20.4417,4.2188
20.4417,6.7588
" /> 
</g>
<g style="fill:#840000; fill-opacity:0.0; 
stroke:#840000; stroke-width:0.2540; stroke-opacity:1; 
stroke-linecap:round; stroke-linejoin:round;">
<path style="fill:#840000; fill-opacity:0.0; 
stroke:#840000; stroke-width:0.2540; stroke-opacity:1; 
stroke-linecap:round; stroke-linejoin:round;fill:none"
d="M 22.2197,2.9488
Z" /> 
</g>
<g style="fill:#840000; fill-opacity:0.0; 
stroke:#840000; stroke-width:0.1524; stroke-opacity:1; 
stroke-linecap:round; stroke-linejoin:round;">
<path style="fill:#840000; fill-opacity:0.0; 
stroke:#840000; stroke-width:0.1524; stroke-opacity:1; 
stroke-linecap:round; stroke-linejoin:round;fill:none"
d="M 24.2517,4.2188
16.6317,4.2188
" /> 
</g>
<g style="fill:#840000; fill-opacity:0.0; 
stroke:#840000; stroke-width:0.2540; stroke-opacity:1; 
stroke-linecap:round; stroke-linejoin:round;">
<path style="fill:#840000; fill-opacity:0.0; 
stroke:#840000; stroke-width:0.2540; stroke-opacity:1; 
stroke-linecap:round; stroke-linejoin:round;fill:none"
d="M 18.6637,5.4888
19.1717,5.4888
19.1717,2.9488
" /> 
<path style="fill:#840000; fill-opacity:0.0; 
stroke:#840000; stroke-width:0.2540; stroke-opacity:1; 
stroke-linecap:round; stroke-linejoin:round;fill:none"
d="M 21.7117,5.4888
21.7117,2.9488
22.2197,2.9488
" /> 
<path style="fill:#840000; fill-opacity:0.0; 
stroke:#840000; stroke-width:0.2540; stroke-opacity:1; 
stroke-linecap:round; stroke-linejoin:round;fill:none"
d="M 16.6317,2.9488
19.1717,4.2188
16.6317,5.4888
16.6317,2.9488
16.6317,2.9488
Z" /> 
<path style="fill:#840000; fill-opacity:0.0; 
stroke:#840000; stroke-width:0.2540; stroke-opacity:1; 
stroke-linecap:round; stroke-linejoin:round;fill:none"
d="M 24.2517,5.4888
21.7117,4.2188
24.2517,2.9488
24.2517,5.4888
24.2517,5.4888
Z" /> 
</g>
<g style="fill:#840000; fill-opacity:1.0000; 
stroke:#840000; stroke-width:0.1524; stroke-opacity:1; 
stroke-linecap:round; stroke-linejoin:round;">
<circle cx="20.4417" cy="4.2188" r="0.2540" /> 
</g>
<g style="fill:#840000; fill-opacity:0.0; 
stroke:#840000; stroke-width:0.1524; stroke-opacity:1; 
stroke-linecap:round; stroke-linejoin:round;">
<path d="M16.6317 4.2188
L12.8217 4.2188
" />
</g>
<g style="fill:#A90000; fill-opacity:0.0; 
stroke:#A90000; stroke-width:0.1524; stroke-opacity:1; 
stroke-linecap:round; stroke-linejoin:round;">
<text x="14.7267" y="3.9648"
textLength="1.3365" font-size="1.6933" lengthAdjust="spacingAndGlyphs"
text-anchor="middle" opacity="0">1</text>
<g class="stroked-text"><desc>1</desc>
<path d="M15.0896 3.8093
L14.3639 3.8093
" />
<path d="M14.7267 3.8093
L14.7267 2.5393
" />
<path d="M14.7267 2.5393
L14.6058 2.7208
" />
<path d="M14.6058 2.7208
L14.4848 2.8417
" />
<path d="M14.4848 2.8417
L14.3639 2.9022
" />
</g></g>
<g style="fill:#840000; fill-opacity:0.0; 
stroke:#840000; stroke-width:0.1524; stroke-opacity:1; 
stroke-linecap:round; stroke-linejoin:round;">
<path d="M20.4417 6.7588
L20.4417 9.2988
" />
</g>
<g style="fill:#A90000; fill-opacity:0.0; 
stroke:#A90000; stroke-width:0.1524; stroke-opacity:1; 
stroke-linecap:round; stroke-linejoin:round;">
<g transform="rotate(-90.000000 20.1877 8.0288)">
<text x="20.1877" y="8.0288"
textLength="1.3365" font-size="1.6933" lengthAdjust="spacingAndGlyphs"
text-anchor="middle" opacity="0">2</text>
</g>
<g class="stroked-text"><desc>2</desc>
<path d="M18.8832 8.3915
L18.8227 8.3311
" />
<path d="M18.8227 8.3311
L18.7622 8.2101
" />
<path d="M18.7622 8.2101
L18.7622 7.9077
" />
<path d="M18.7622 7.9077
L18.8227 7.7868
" />
<path d="M18.8227 7.7868
L18.8832 7.7263
" />
<path d="M18.8832 7.7263
L19.0041 7.6658
" />
<path d="M19.0041 7.6658
L19.1251 7.6658
" />
<path d="M19.1251 7.6658
L19.3065 7.7263
" />
<path d="M19.3065 7.7263
L20.0322 8.4520
" />
<path d="M20.0322 8.4520
L20.0322 7.6658
" />
</g></g>
<g style="fill:#840000; fill-opacity:0.0; 
stroke:#840000; stroke-width:0.1524; stroke-opacity:1; 
stroke-linecap:round; stroke-linejoin:round;">
<path d="M24.2517 4.2188
L28.0617 4.2188
" />
</g>
<g style="fill:#A90000; fill-opacity:0.0; 
stroke:#A90000; stroke-width:0.1524; stroke-opacity:1; 
stroke-linecap:round; stroke-linejoin:round;">
<text x="26.1567" y="3.9648"
textLength="1.3365" font-size="1.6933" lengthAdjust="spacingAndGlyphs"
text-anchor="middle" opacity="0">3</text>
<g class="stroked-text"><desc>3</desc>
<path d="M25.7334 2.5393
L26.5196 2.5393
" />
<path d="M26.5196 2.5393
L26.0962 3.0231
" />
<path d="M26.0962 3.0231
L26.2777 3.0231
" />
<path d="M26.2777 3.0231
L26.3986 3.0836
" />
<path d="M26.3986 3.0836
L26.4591 3.1441
" />
<path d="M26.4591 3.1441
L26.5196 3.2650
" />
<path d="M26.5196 3.2650
L26.5196 3.5674
" />
<path d="M26.5196 3.5674
L26.4591 3.6884
" />
<path d="M26.4591 3.6884
L26.3986 3.7489
" />
<path d="M26.3986 3.7489
L26.2777 3.8093
" />
<path d="M26.2777 3.8093
L25.9148 3.8093
" />
<path d="M25.9148 3.8093
L25.7939 3.7489
" />
<path d="M25.7939 3.7489
L25.7334 3.6884
" />
</g></g>
<g style="fill:#840084; fill-opacity:0.0; 
stroke:#840084; stroke-width:0.1524; stroke-opacity:1; 
stroke-linecap:round; stroke-linejoin:round;">
</g>
<g style="fill:#006464; fill-opacity:0.0; 
stroke:#006464; stroke-width:0.1524; stroke-opacity:1; 
stroke-linecap:round; stroke-linejoin:round;">
</g>
<g style="fill:#006464; fill-opacity:0.0; 
stroke:#006464; stroke-width:0.1588; stroke-opacity:1; 
stroke-linecap:round; stroke-linejoin:round;">
<text x="21.7117" y="7.3938"
textLength="2.5016" font-size="1.6933" lengthAdjust="spacingAndGlyphs"
text-anchor="middle" opacity="0">D?</text>
<g class="stroked-text"><desc>D?</desc>
<path d="M20.8347 7.3463
L20.8347 6.0763
" />
<path d="M20.8347 6.0763
L21.1371 6.0763
" />
<path d="M21.1371 6.0763
L21.3185 6.1368
" />
<path d="M21.3185 6.1368
L21.4395 6.2578
" />
<path d="M21.4395 6.2578
L21.5000 6.3787
" />
<path d="M21.5000 6.3787
L21.5604 6.6206
" />
<path d="M21.5604 6.6206
L21.5604 6.8020
" />
<path d="M21.5604 6.8020
L21.5000 7.0439
" />
<path d="M21.5000 7.0439
L21.4395 7.1649
" />
<path d="M21.4395 7.1649
L21.3185 7.2859
" />
<path d="M21.3185 7.2859
L21.1371 7.3463
" />
<path d="M21.1371 7.3463
L20.8347 7.3463
" />
<path d="M22.2862 7.2254
L22.3466 7.2859
" />
<path d="M22.3466 7.2859
L22.2862 7.3463
" />
<path d="M22.2862 7.3463
L22.2257 7.2859
" />
<path d="M22.2257 7.2859
L22.2862 7.2254
" />
<path d="M22.2862 7.2254
L22.2862 7.3463
" />
<path d="M22.0443 6.1368
L22.1652 6.0763
" />
<path d="M22.1652 6.0763
L22.4676 6.0763
" />
<path d="M22.4676 6.0763
L22.5885 6.1368
" />
<path d="M22.5885 6.1368
L22.6490 6.2578
" />
<path d="M22.6490 6.2578
L22.6490 6.3787
" />
<path d="M22.6490 6.3787
L22.5885 6.4997
" />
<path d="M22.5885 6.4997
L22.5281 6.5601
" />
<path d="M22.5281 6.5601
L22.4071 6.6206
" />
<path d="M22.4071 6.6206
L22.3466 6.6811
" />
<path d="M22.3466 6.6811
L22.2862 6.8020
" />
<path d="M22.2862 6.8020
L22.2862 6.8625
" />
</g><text x="20.4417" y="2.3138"
textLength="34.0696" font-size="1.6933" lengthAdjust="spacingAndGlyphs"
text-anchor="middle" opacity="0">D_Zener_Dual_CommonCathode_AKA</text>
<g class="stroked-text"><desc>D_Zener_Dual_CommonCathode_AKA</desc>
<path d="M3.7807 2.2663
L3.7807 0.9963
" />
<path d="M3.7807 0.9963
L4.0831 0.9963
" />
<path d="M4.0831 0.9963
L4.2645 1.0568
" />
<path d="M4.2645 1.0568
L4.3855 1.1778
" />
<path d="M4.3855 1.1778
L4.4460 1.2987
" />
<path d="M4.4460 1.2987
L4.5064 1.5406
" />
<path d="M4.5064 1.5406
L4.5064 1.7220
" />
<path d="M4.5064 1.7220
L4.4460 1.9639
" />
<path d="M4.4460 1.9639
L4.3855 2.0849
" />
<path d="M4.3855 2.0849
L4.2645 2.2059
" />
<path d="M4.2645 2.2059
L4.0831 2.2663
" />
<path d="M4.0831 2.2663
L3.7807 2.2663
" />
<path d="M4.7484 2.3873
L5.7160 2.3873
" />
<path d="M5.8974 0.9963
L6.7440 0.9963
" />
<path d="M6.7440 0.9963
L5.8974 2.2663
" />
<path d="M5.8974 2.2663
L6.7440 2.2663
" />
<path d="M7.7116 2.2059
L7.5907 2.2663
" />
<path d="M7.5907 2.2663
L7.3488 2.2663
" />
<path d="M7.3488 2.2663
L7.2278 2.2059
" />
<path d="M7.2278 2.2059
L7.1674 2.0849
" />
<path d="M7.1674 2.0849
L7.1674 1.6011
" />
<path d="M7.1674 1.6011
L7.2278 1.4801
" />
<path d="M7.2278 1.4801
L7.3488 1.4197
" />
<path d="M7.3488 1.4197
L7.5907 1.4197
" />
<path d="M7.5907 1.4197
L7.7116 1.4801
" />
<path d="M7.7116 1.4801
L7.7721 1.6011
" />
<path d="M7.7721 1.6011
L7.7721 1.7220
" />
<path d="M7.7721 1.7220
L7.1674 1.8430
" />
<path d="M8.3164 1.4197
L8.3164 2.2663
" />
<path d="M8.3164 1.5406
L8.3769 1.4801
" />
<path d="M8.3769 1.4801
L8.4979 1.4197
" />
<path d="M8.4979 1.4197
L8.6793 1.4197
" />
<path d="M8.6793 1.4197
L8.8002 1.4801
" />
<path d="M8.8002 1.4801
L8.8607 1.6011
" />
<path d="M8.8607 1.6011
L8.8607 2.2663
" />
<path d="M9.9492 2.2059
L9.8283 2.2663
" />
<path d="M9.8283 2.2663
L9.5864 2.2663
" />
<path d="M9.5864 2.2663
L9.4654 2.2059
" />
<path d="M9.4654 2.2059
L9.4050 2.0849
" />
<path d="M9.4050 2.0849
L9.4050 1.6011
" />
<path d="M9.4050 1.6011
L9.4654 1.4801
" />
<path d="M9.4654 1.4801
L9.5864 1.4197
" />
<path d="M9.5864 1.4197
L9.8283 1.4197
" />
<path d="M9.8283 1.4197
L9.9492 1.4801
" />
<path d="M9.9492 1.4801
L10.0097 1.6011
" />
<path d="M10.0097 1.6011
L10.0097 1.7220
" />
<path d="M10.0097 1.7220
L9.4050 1.8430
" />
<path d="M10.5540 2.2663
L10.5540 1.4197
" />
<path d="M10.5540 1.6616
L10.6145 1.5406
" />
<path d="M10.6145 1.5406
L10.6750 1.4801
" />
<path d="M10.6750 1.4801
L10.7959 1.4197
" />
<path d="M10.7959 1.4197
L10.9169 1.4197
" />
<path d="M11.0379 2.3873
L12.0055 2.3873
" />
<path d="M12.3078 2.2663
L12.3078 0.9963
" />
<path d="M12.3078 0.9963
L12.6102 0.9963
" />
<path d="M12.6102 0.9963
L12.7916 1.0568
" />
<path d="M12.7916 1.0568
L12.9126 1.1778
" />
<path d="M12.9126 1.1778
L12.9731 1.2987
" />
<path d="M12.9731 1.2987
L13.0335 1.5406
" />
<path d="M13.0335 1.5406
L13.0335 1.7220
" />
<path d="M13.0335 1.7220
L12.9731 1.9639
" />
<path d="M12.9731 1.9639
L12.9126 2.0849
" />
<path d="M12.9126 2.0849
L12.7916 2.2059
" />
<path d="M12.7916 2.2059
L12.6102 2.2663
" />
<path d="M12.6102 2.2663
L12.3078 2.2663
" />
<path d="M14.1221 1.4197
L14.1221 2.2663
" />
<path d="M13.5778 1.4197
L13.5778 2.0849
" />
<path d="M13.5778 2.0849
L13.6383 2.2059
" />
<path d="M13.6383 2.2059
L13.7593 2.2663
" />
<path d="M13.7593 2.2663
L13.9407 2.2663
" />
<path d="M13.9407 2.2663
L14.0616 2.2059
" />
<path d="M14.0616 2.2059
L14.1221 2.1454
" />
<path d="M15.2711 2.2663
L15.2711 1.6011
" />
<path d="M15.2711 1.6011
L15.2106 1.4801
" />
<path d="M15.2106 1.4801
L15.0897 1.4197
" />
<path d="M15.0897 1.4197
L14.8478 1.4197
" />
<path d="M14.8478 1.4197
L14.7268 1.4801
" />
<path d="M15.2711 2.2059
L15.1502 2.2663
" />
<path d="M15.1502 2.2663
L14.8478 2.2663
" />
<path d="M14.8478 2.2663
L14.7268 2.2059
" />
<path d="M14.7268 2.2059
L14.6664 2.0849
" />
<path d="M14.6664 2.0849
L14.6664 1.9639
" />
<path d="M14.6664 1.9639
L14.7268 1.8430
" />
<path d="M14.7268 1.8430
L14.8478 1.7825
" />
<path d="M14.8478 1.7825
L15.1502 1.7825
" />
<path d="M15.1502 1.7825
L15.2711 1.7220
" />
<path d="M16.0573 2.2663
L15.9363 2.2059
" />
<path d="M15.9363 2.2059
L15.8758 2.0849
" />
<path d="M15.8758 2.0849
L15.8758 0.9963
" />
<path d="M16.2387 2.3873
L17.2063 2.3873
" />
<path d="M18.2343 2.1454
L18.1739 2.2059
" />
<path d="M18.1739 2.2059
L17.9924 2.2663
" />
<path d="M17.9924 2.2663
L17.8715 2.2663
" />
<path d="M17.8715 2.2663
L17.6901 2.2059
" />
<path d="M17.6901 2.2059
L17.5691 2.0849
" />
<path d="M17.5691 2.0849
L17.5086 1.9639
" />
<path d="M17.5086 1.9639
L17.4482 1.7220
" />
<path d="M17.4482 1.7220
L17.4482 1.5406
" />
<path d="M17.4482 1.5406
L17.5086 1.2987
" />
<path d="M17.5086 1.2987
L17.5691 1.1778
" />
<path d="M17.5691 1.1778
L17.6901 1.0568
" />
<path d="M17.6901 1.0568
L17.8715 0.9963
" />
<path d="M17.8715 0.9963
L17.9924 0.9963
" />
<path d="M17.9924 0.9963
L18.1739 1.0568
" />
<path d="M18.1739 1.0568
L18.2343 1.1173
" />
<path d="M18.9601 2.2663
L18.8391 2.2059
" />
<path d="M18.8391 2.2059
L18.7786 2.1454
" />
<path d="M18.7786 2.1454
L18.7182 2.0244
" />
<path d="M18.7182 2.0244
L18.7182 1.6616
" />
<path d="M18.7182 1.6616
L18.7786 1.5406
" />
<path d="M18.7786 1.5406
L18.8391 1.4801
" />
<path d="M18.8391 1.4801
L18.9601 1.4197
" />
<path d="M18.9601 1.4197
L19.1415 1.4197
" />
<path d="M19.1415 1.4197
L19.2624 1.4801
" />
<path d="M19.2624 1.4801
L19.3229 1.5406
" />
<path d="M19.3229 1.5406
L19.3834 1.6616
" />
<path d="M19.3834 1.6616
L19.3834 2.0244
" />
<path d="M19.3834 2.0244
L19.3229 2.1454
" />
<path d="M19.3229 2.1454
L19.2624 2.2059
" />
<path d="M19.2624 2.2059
L19.1415 2.2663
" />
<path d="M19.1415 2.2663
L18.9601 2.2663
" />
<path d="M19.9276 2.2663
L19.9276 1.4197
" />
<path d="M19.9276 1.5406
L19.9881 1.4801
" />
<path d="M19.9881 1.4801
L20.1091 1.4197
" />
<path d="M20.1091 1.4197
L20.2905 1.4197
" />
<path d="M20.2905 1.4197
L20.4114 1.4801
" />
<path d="M20.4114 1.4801
L20.4719 1.6011
" />
<path d="M20.4719 1.6011
L20.4719 2.2663
" />
<path d="M20.4719 1.6011
L20.5324 1.4801
" />
<path d="M20.5324 1.4801
L20.6533 1.4197
" />
<path d="M20.6533 1.4197
L20.8348 1.4197
" />
<path d="M20.8348 1.4197
L20.9557 1.4801
" />
<path d="M20.9557 1.4801
L21.0162 1.6011
" />
<path d="M21.0162 1.6011
L21.0162 2.2663
" />
<path d="M21.6209 2.2663
L21.6209 1.4197
" />
<path d="M21.6209 1.5406
L21.6814 1.4801
" />
<path d="M21.6814 1.4801
L21.8024 1.4197
" />
<path d="M21.8024 1.4197
L21.9838 1.4197
" />
<path d="M21.9838 1.4197
L22.1047 1.4801
" />
<path d="M22.1047 1.4801
L22.1652 1.6011
" />
<path d="M22.1652 1.6011
L22.1652 2.2663
" />
<path d="M22.1652 1.6011
L22.2257 1.4801
" />
<path d="M22.2257 1.4801
L22.3466 1.4197
" />
<path d="M22.3466 1.4197
L22.5281 1.4197
" />
<path d="M22.5281 1.4197
L22.6490 1.4801
" />
<path d="M22.6490 1.4801
L22.7095 1.6011
" />
<path d="M22.7095 1.6011
L22.7095 2.2663
" />
<path d="M23.4957 2.2663
L23.3747 2.2059
" />
<path d="M23.3747 2.2059
L23.3142 2.1454
" />
<path d="M23.3142 2.1454
L23.2538 2.0244
" />
<path d="M23.2538 2.0244
L23.2538 1.6616
" />
<path d="M23.2538 1.6616
L23.3142 1.5406
" />
<path d="M23.3142 1.5406
L23.3747 1.4801
" />
<path d="M23.3747 1.4801
L23.4957 1.4197
" />
<path d="M23.4957 1.4197
L23.6771 1.4197
" />
<path d="M23.6771 1.4197
L23.7980 1.4801
" />
<path d="M23.7980 1.4801
L23.8585 1.5406
" />
<path d="M23.8585 1.5406
L23.9190 1.6616
" />
<path d="M23.9190 1.6616
L23.9190 2.0244
" />
<path d="M23.9190 2.0244
L23.8585 2.1454
" />
<path d="M23.8585 2.1454
L23.7980 2.2059
" />
<path d="M23.7980 2.2059
L23.6771 2.2663
" />
<path d="M23.6771 2.2663
L23.4957 2.2663
" />
<path d="M24.4632 1.4197
L24.4632 2.2663
" />
<path d="M24.4632 1.5406
L24.5237 1.4801
" />
<path d="M24.5237 1.4801
L24.6447 1.4197
" />
<path d="M24.6447 1.4197
L24.8261 1.4197
" />
<path d="M24.8261 1.4197
L24.9470 1.4801
" />
<path d="M24.9470 1.4801
L25.0075 1.6011
" />
<path d="M25.0075 1.6011
L25.0075 2.2663
" />
<path d="M26.3379 2.1454
L26.2775 2.2059
" />
<path d="M26.2775 2.2059
L26.0960 2.2663
" />
<path d="M26.0960 2.2663
L25.9751 2.2663
" />
<path d="M25.9751 2.2663
L25.7937 2.2059
" />
<path d="M25.7937 2.2059
L25.6727 2.0849
" />
<path d="M25.6727 2.0849
L25.6122 1.9639
" />
<path d="M25.6122 1.9639
L25.5518 1.7220
" />
<path d="M25.5518 1.7220
L25.5518 1.5406
" />
<path d="M25.5518 1.5406
L25.6122 1.2987
" />
<path d="M25.6122 1.2987
L25.6727 1.1778
" />
<path d="M25.6727 1.1778
L25.7937 1.0568
" />
<path d="M25.7937 1.0568
L25.9751 0.9963
" />
<path d="M25.9751 0.9963
L26.0960 0.9963
" />
<path d="M26.0960 0.9963
L26.2775 1.0568
" />
<path d="M26.2775 1.0568
L26.3379 1.1173
" />
<path d="M27.4265 2.2663
L27.4265 1.6011
" />
<path d="M27.4265 1.6011
L27.3660 1.4801
" />
<path d="M27.3660 1.4801
L27.2451 1.4197
" />
<path d="M27.2451 1.4197
L27.0032 1.4197
" />
<path d="M27.0032 1.4197
L26.8822 1.4801
" />
<path d="M27.4265 2.2059
L27.3056 2.2663
" />
<path d="M27.3056 2.2663
L27.0032 2.2663
" />
<path d="M27.0032 2.2663
L26.8822 2.2059
" />
<path d="M26.8822 2.2059
L26.8218 2.0849
" />
<path d="M26.8218 2.0849
L26.8218 1.9639
" />
<path d="M26.8218 1.9639
L26.8822 1.8430
" />
<path d="M26.8822 1.8430
L27.0032 1.7825
" />
<path d="M27.0032 1.7825
L27.3056 1.7825
" />
<path d="M27.3056 1.7825
L27.4265 1.7220
" />
<path d="M27.8498 1.4197
L28.3336 1.4197
" />
<path d="M28.0312 0.9963
L28.0312 2.0849
" />
<path d="M28.0312 2.0849
L28.0917 2.2059
" />
<path d="M28.0917 2.2059
L28.2127 2.2663
" />
<path d="M28.2127 2.2663
L28.3336 2.2663
" />
<path d="M28.7569 2.2663
L28.7569 0.9963
" />
<path d="M29.3012 2.2663
L29.3012 1.6011
" />
<path d="M29.3012 1.6011
L29.2407 1.4801
" />
<path d="M29.2407 1.4801
L29.1198 1.4197
" />
<path d="M29.1198 1.4197
L28.9384 1.4197
" />
<path d="M28.9384 1.4197
L28.8174 1.4801
" />
<path d="M28.8174 1.4801
L28.7569 1.5406
" />
<path d="M30.0874 2.2663
L29.9664 2.2059
" />
<path d="M29.9664 2.2059
L29.9059 2.1454
" />
<path d="M29.9059 2.1454
L29.8455 2.0244
" />
<path d="M29.8455 2.0244
L29.8455 1.6616
" />
<path d="M29.8455 1.6616
L29.9059 1.5406
" />
<path d="M29.9059 1.5406
L29.9664 1.4801
" />
<path d="M29.9664 1.4801
L30.0874 1.4197
" />
<path d="M30.0874 1.4197
L30.2688 1.4197
" />
<path d="M30.2688 1.4197
L30.3897 1.4801
" />
<path d="M30.3897 1.4801
L30.4502 1.5406
" />
<path d="M30.4502 1.5406
L30.5107 1.6616
" />
<path d="M30.5107 1.6616
L30.5107 2.0244
" />
<path d="M30.5107 2.0244
L30.4502 2.1454
" />
<path d="M30.4502 2.1454
L30.3897 2.2059
" />
<path d="M30.3897 2.2059
L30.2688 2.2663
" />
<path d="M30.2688 2.2663
L30.0874 2.2663
" />
<path d="M31.5992 2.2663
L31.5992 0.9963
" />
<path d="M31.5992 2.2059
L31.4783 2.2663
" />
<path d="M31.4783 2.2663
L31.2364 2.2663
" />
<path d="M31.2364 2.2663
L31.1154 2.2059
" />
<path d="M31.1154 2.2059
L31.0549 2.1454
" />
<path d="M31.0549 2.1454
L30.9945 2.0244
" />
<path d="M30.9945 2.0244
L30.9945 1.6616
" />
<path d="M30.9945 1.6616
L31.0549 1.5406
" />
<path d="M31.0549 1.5406
L31.1154 1.4801
" />
<path d="M31.1154 1.4801
L31.2364 1.4197
" />
<path d="M31.2364 1.4197
L31.4783 1.4197
" />
<path d="M31.4783 1.4197
L31.5992 1.4801
" />
<path d="M32.6877 2.2059
L32.5668 2.2663
" />
<path d="M32.5668 2.2663
L32.3249 2.2663
" />
<path d="M32.3249 2.2663
L32.2039 2.2059
" />
<path d="M32.2039 2.2059
L32.1435 2.0849
" />
<path d="M32.1435 2.0849
L32.1435 1.6011
" />
<path d="M32.1435 1.6011
L32.2039 1.4801
" />
<path d="M32.2039 1.4801
L32.3249 1.4197
" />
<path d="M32.3249 1.4197
L32.5668 1.4197
" />
<path d="M32.5668 1.4197
L32.6877 1.4801
" />
<path d="M32.6877 1.4801
L32.7482 1.6011
" />
<path d="M32.7482 1.6011
L32.7482 1.7220
" />
<path d="M32.7482 1.7220
L32.1435 1.8430
" />
<path d="M32.9902 2.3873
L33.9578 2.3873
" />
<path d="M34.1997 1.9035
L34.8044 1.9035
" />
<path d="M34.0787 2.2663
L34.5020 0.9963
" />
<path d="M34.5020 0.9963
L34.9254 2.2663
" />
<path d="M35.3487 2.2663
L35.3487 0.9963
" />
<path d="M36.0744 2.2663
L35.5302 1.5406
" />
<path d="M36.0744 0.9963
L35.3487 1.7220
" />
<path d="M36.5583 1.9035
L37.1630 1.9035
" />
<path d="M36.4373 2.2663
L36.8606 0.9963
" />
<path d="M36.8606 0.9963
L37.2840 2.2663
" />
</g></g>
<g style="fill:#840084; fill-opacity:0.0; 
stroke:#840084; stroke-width:0.1588; stroke-opacity:1; 
stroke-linecap:round; stroke-linejoin:round;">
<text x="20.4417" y="4.8538"
textLength="1.0501" font-size="1.6933" lengthAdjust="spacingAndGlyphs"
text-anchor="middle" opacity="0">~</text>
<g class="stroked-text"><desc>~</desc>
<path d="M20.1091 4.3225
L20.1696 4.2620
" />
<path d="M20.1696 4.2620
L20.2905 4.2016
" />
<path d="M20.2905 4.2016
L20.5324 4.3225
" />
<path d="M20.5324 4.3225
L20.6534 4.2620
" />
<path d="M20.6534 4.2620
L20.7139 4.2016
" />
</g></g> 
</svg>
