<?xml version="1.0" standalone="no"?>
 <!DOCTYPE svg PUBLIC "-//W3C//DTD SVG 1.1//EN" 
 "http://www.w3.org/Graphics/SVG/1.1/DTD/svg11.dtd"> 
<svg
  xmlns:svg="http://www.w3.org/2000/svg"
  xmlns="http://www.w3.org/2000/svg"
  xmlns:xlink="http://www.w3.org/1999/xlink"
  version="1.1"
  width="31.0896mm" height="18.2880mm" viewBox="0.0000 0.0000 31.0896 18.2880">
<title>SVG Image created as working.svg date 2023/08/02 23:49:17 </title>
  <desc>Image generated by Eeschema-SVG </desc>
<g style="fill:#000000; fill-opacity:1.0000;stroke:#000000; stroke-opacity:1.0000;
stroke-linecap:round; stroke-linejoin:round;"
 transform="translate(0 0) scale(1 1)">
</g>
<g style="fill:#840000; fill-opacity:0.0; 
stroke:#840000; stroke-width:0.0000; stroke-opacity:1; 
stroke-linecap:round; stroke-linejoin:round;">
</g>
<g style="fill:#840084; fill-opacity:0.0; 
stroke:#840084; stroke-width:0.0000; stroke-opacity:1; 
stroke-linecap:round; stroke-linejoin:round;">
</g>
<g style="fill:#840000; fill-opacity:0.0; 
stroke:#840000; stroke-width:0.0000; stroke-opacity:1; 
stroke-linecap:round; stroke-linejoin:round;">
</g>
<g style="fill:#840000; fill-opacity:0.0; 
stroke:#840000; stroke-width:0.1524; stroke-opacity:1; 
stroke-linecap:round; stroke-linejoin:round;">
<path style="fill:#840000; fill-opacity:0.0; 
stroke:#840000; stroke-width:0.1524; stroke-opacity:1; 
stroke-linecap:round; stroke-linejoin:round;fill:none"
d="M 3.8605,9.1441
5.3845,9.1441
" /> 
<path style="fill:#840000; fill-opacity:0.0; 
stroke:#840000; stroke-width:0.1524; stroke-opacity:1; 
stroke-linecap:round; stroke-linejoin:round;fill:none"
d="M 5.1305,12.9541
2.5905,5.3341
" /> 
<path style="fill:#840000; fill-opacity:0.0; 
stroke:#840000; stroke-width:0.1524; stroke-opacity:1; 
stroke-linecap:round; stroke-linejoin:round;fill:none"
d="M 5.8925,9.1441
7.1625,9.1441
" /> 
<path style="fill:#840000; fill-opacity:0.0; 
stroke:#840000; stroke-width:0.1524; stroke-opacity:1; 
stroke-linecap:round; stroke-linejoin:round;fill:none"
d="M 7.6705,9.1441
8.9405,9.1441
" /> 
<path style="fill:#840000; fill-opacity:0.0; 
stroke:#840000; stroke-width:0.1524; stroke-opacity:1; 
stroke-linecap:round; stroke-linejoin:round;fill:none"
d="M 10.2105,14.2241
10.2105,12.9541
" /> 
<path style="fill:#840000; fill-opacity:0.0; 
stroke:#840000; stroke-width:0.1524; stroke-opacity:1; 
stroke-linecap:round; stroke-linejoin:round;fill:none"
d="M 10.2105,12.9541
7.6705,5.3341
" /> 
<path style="fill:#840000; fill-opacity:0.0; 
stroke:#840000; stroke-width:0.1524; stroke-opacity:1; 
stroke-linecap:round; stroke-linejoin:round;fill:none"
d="M 4.4955,4.6991
5.7655,5.9691
" /> 
<path style="fill:#840000; fill-opacity:0.0; 
stroke:#840000; stroke-width:0.1524; stroke-opacity:1; 
stroke-linecap:round; stroke-linejoin:round;fill:none"
d="M 5.1305,12.9541
5.1305,14.2241
" /> 
<path style="fill:#840000; fill-opacity:0.0; 
stroke:#840000; stroke-width:0.1524; stroke-opacity:1; 
stroke-linecap:round; stroke-linejoin:round;fill:none"
d="M 5.1305,4.0641
5.1305,5.3341
" /> 
<path style="fill:#840000; fill-opacity:0.0; 
stroke:#840000; stroke-width:0.1524; stroke-opacity:1; 
stroke-linecap:round; stroke-linejoin:round;fill:none"
d="M 5.7655,4.6991
4.4955,5.9691
" /> 
<path style="fill:#840000; fill-opacity:0.0; 
stroke:#840000; stroke-width:0.1524; stroke-opacity:1; 
stroke-linecap:round; stroke-linejoin:round;fill:none"
d="M 9.5755,4.6991
10.8455,5.9691
" /> 
<path style="fill:#840000; fill-opacity:0.0; 
stroke:#840000; stroke-width:0.1524; stroke-opacity:1; 
stroke-linecap:round; stroke-linejoin:round;fill:none"
d="M 10.2105,4.0641
10.2105,5.3341
" /> 
<path style="fill:#840000; fill-opacity:0.0; 
stroke:#840000; stroke-width:0.1524; stroke-opacity:1; 
stroke-linecap:round; stroke-linejoin:round;fill:none"
d="M 10.8455,4.6991
9.5755,5.9691
" /> 
<path d="M5.1305 4.0641
L5.1305 1.5241
" />
</g>
<g style="fill:#A90000; fill-opacity:0.0; 
stroke:#A90000; stroke-width:0.1524; stroke-opacity:1; 
stroke-linecap:round; stroke-linejoin:round;">
<g transform="rotate(-90.000000 4.8765 2.7941)">
<text x="4.8765" y="2.7941"
textLength="1.3365" font-size="1.6933" lengthAdjust="spacingAndGlyphs"
text-anchor="middle" opacity="0">1</text>
</g>
<g class="stroked-text"><desc>1</desc>
<path d="M4.7210 2.4311
L4.7210 3.1568
" />
<path d="M4.7210 2.7940
L3.4510 2.7940
" />
<path d="M3.4510 2.7940
L3.6325 2.9149
" />
<path d="M3.6325 2.9149
L3.7534 3.0359
" />
<path d="M3.7534 3.0359
L3.8139 3.1568
" />
</g></g>
<g style="fill:#840000; fill-opacity:0.0; 
stroke:#840000; stroke-width:0.1524; stroke-opacity:1; 
stroke-linecap:round; stroke-linejoin:round;">
<path d="M5.1305 14.2241
L5.1305 16.7641
" />
</g>
<g style="fill:#A90000; fill-opacity:0.0; 
stroke:#A90000; stroke-width:0.1524; stroke-opacity:1; 
stroke-linecap:round; stroke-linejoin:round;">
<g transform="rotate(-90.000000 4.8765 15.4941)">
<text x="4.8765" y="15.4941"
textLength="1.3365" font-size="1.6933" lengthAdjust="spacingAndGlyphs"
text-anchor="middle" opacity="0">2</text>
</g>
<g class="stroked-text"><desc>2</desc>
<path d="M3.5720 15.8568
L3.5115 15.7964
" />
<path d="M3.5115 15.7964
L3.4510 15.6754
" />
<path d="M3.4510 15.6754
L3.4510 15.3730
" />
<path d="M3.4510 15.3730
L3.5115 15.2521
" />
<path d="M3.5115 15.2521
L3.5720 15.1916
" />
<path d="M3.5720 15.1916
L3.6929 15.1311
" />
<path d="M3.6929 15.1311
L3.8139 15.1311
" />
<path d="M3.8139 15.1311
L3.9953 15.1916
" />
<path d="M3.9953 15.1916
L4.7210 15.9173
" />
<path d="M4.7210 15.9173
L4.7210 15.1311
" />
</g></g>
<g style="fill:#840000; fill-opacity:0.0; 
stroke:#840000; stroke-width:0.1524; stroke-opacity:1; 
stroke-linecap:round; stroke-linejoin:round;">
<path d="M10.2105 4.0641
L10.2105 1.5241
" />
</g>
<g style="fill:#A90000; fill-opacity:0.0; 
stroke:#A90000; stroke-width:0.1524; stroke-opacity:1; 
stroke-linecap:round; stroke-linejoin:round;">
<g transform="rotate(-90.000000 9.9565 2.7941)">
<text x="9.9565" y="2.7941"
textLength="1.3365" font-size="1.6933" lengthAdjust="spacingAndGlyphs"
text-anchor="middle" opacity="0">3</text>
</g>
<g class="stroked-text"><desc>3</desc>
<path d="M8.5310 3.2173
L8.5310 2.4311
" />
<path d="M8.5310 2.4311
L9.0148 2.8545
" />
<path d="M9.0148 2.8545
L9.0148 2.6730
" />
<path d="M9.0148 2.6730
L9.0753 2.5521
" />
<path d="M9.0753 2.5521
L9.1358 2.4916
" />
<path d="M9.1358 2.4916
L9.2567 2.4311
" />
<path d="M9.2567 2.4311
L9.5591 2.4311
" />
<path d="M9.5591 2.4311
L9.6801 2.4916
" />
<path d="M9.6801 2.4916
L9.7406 2.5521
" />
<path d="M9.7406 2.5521
L9.8010 2.6730
" />
<path d="M9.8010 2.6730
L9.8010 3.0359
" />
<path d="M9.8010 3.0359
L9.7406 3.1568
" />
<path d="M9.7406 3.1568
L9.6801 3.2173
" />
</g></g>
<g style="fill:#840000; fill-opacity:0.0; 
stroke:#840000; stroke-width:0.1524; stroke-opacity:1; 
stroke-linecap:round; stroke-linejoin:round;">
<path d="M10.2105 14.2241
L10.2105 16.7641
" />
</g>
<g style="fill:#A90000; fill-opacity:0.0; 
stroke:#A90000; stroke-width:0.1524; stroke-opacity:1; 
stroke-linecap:round; stroke-linejoin:round;">
<g transform="rotate(-90.000000 9.9565 15.4941)">
<text x="9.9565" y="15.4941"
textLength="1.3365" font-size="1.6933" lengthAdjust="spacingAndGlyphs"
text-anchor="middle" opacity="0">4</text>
</g>
<g class="stroked-text"><desc>4</desc>
<path d="M8.9544 15.2521
L9.8010 15.2521
" />
<path d="M8.4706 15.5545
L9.3777 15.8568
" />
<path d="M9.3777 15.8568
L9.3777 15.0707
" />
</g></g>
<g style="fill:#840084; fill-opacity:0.0; 
stroke:#840084; stroke-width:0.1524; stroke-opacity:1; 
stroke-linecap:round; stroke-linejoin:round;">
</g>
<g style="fill:#006464; fill-opacity:0.0; 
stroke:#006464; stroke-width:0.1524; stroke-opacity:1; 
stroke-linecap:round; stroke-linejoin:round;">
</g>
<g style="fill:#006464; fill-opacity:0.0; 
stroke:#006464; stroke-width:0.1588; stroke-opacity:1; 
stroke-linecap:round; stroke-linejoin:round;">
<text x="13.3663" y="9.7791"
textLength="3.7716" font-size="1.6933" lengthAdjust="spacingAndGlyphs"
text-anchor="middle" opacity="0">CB?</text>
<g class="stroked-text"><desc>CB?</desc>
<path d="M12.5800 9.6107
L12.5196 9.6712
" />
<path d="M12.5196 9.6712
L12.3381 9.7316
" />
<path d="M12.3381 9.7316
L12.2172 9.7316
" />
<path d="M12.2172 9.7316
L12.0358 9.6712
" />
<path d="M12.0358 9.6712
L11.9148 9.5502
" />
<path d="M11.9148 9.5502
L11.8543 9.4292
" />
<path d="M11.8543 9.4292
L11.7939 9.1873
" />
<path d="M11.7939 9.1873
L11.7939 9.0059
" />
<path d="M11.7939 9.0059
L11.8543 8.7640
" />
<path d="M11.8543 8.7640
L11.9148 8.6431
" />
<path d="M11.9148 8.6431
L12.0358 8.5221
" />
<path d="M12.0358 8.5221
L12.2172 8.4616
" />
<path d="M12.2172 8.4616
L12.3381 8.4616
" />
<path d="M12.3381 8.4616
L12.5196 8.5221
" />
<path d="M12.5196 8.5221
L12.5800 8.5826
" />
<path d="M13.5477 9.0664
L13.7291 9.1269
" />
<path d="M13.7291 9.1269
L13.7896 9.1873
" />
<path d="M13.7896 9.1873
L13.8500 9.3083
" />
<path d="M13.8500 9.3083
L13.8500 9.4897
" />
<path d="M13.8500 9.4897
L13.7896 9.6107
" />
<path d="M13.7896 9.6107
L13.7291 9.6712
" />
<path d="M13.7291 9.6712
L13.6081 9.7316
" />
<path d="M13.6081 9.7316
L13.1243 9.7316
" />
<path d="M13.1243 9.7316
L13.1243 8.4616
" />
<path d="M13.1243 8.4616
L13.5477 8.4616
" />
<path d="M13.5477 8.4616
L13.6686 8.5221
" />
<path d="M13.6686 8.5221
L13.7291 8.5826
" />
<path d="M13.7291 8.5826
L13.7896 8.7035
" />
<path d="M13.7896 8.7035
L13.7896 8.8245
" />
<path d="M13.7896 8.8245
L13.7291 8.9454
" />
<path d="M13.7291 8.9454
L13.6686 9.0059
" />
<path d="M13.6686 9.0059
L13.5477 9.0664
" />
<path d="M13.5477 9.0664
L13.1243 9.0664
" />
<path d="M14.5758 9.6107
L14.6362 9.6712
" />
<path d="M14.6362 9.6712
L14.5758 9.7316
" />
<path d="M14.5758 9.7316
L14.5153 9.6712
" />
<path d="M14.5153 9.6712
L14.5758 9.6107
" />
<path d="M14.5758 9.6107
L14.5758 9.7316
" />
<path d="M14.3339 8.5221
L14.4548 8.4616
" />
<path d="M14.4548 8.4616
L14.7572 8.4616
" />
<path d="M14.7572 8.4616
L14.8781 8.5221
" />
<path d="M14.8781 8.5221
L14.9386 8.6431
" />
<path d="M14.9386 8.6431
L14.9386 8.7640
" />
<path d="M14.9386 8.7640
L14.8781 8.8850
" />
<path d="M14.8781 8.8850
L14.8177 8.9454
" />
<path d="M14.8177 8.9454
L14.6967 9.0059
" />
<path d="M14.6967 9.0059
L14.6362 9.0664
" />
<path d="M14.6362 9.0664
L14.5758 9.1873
" />
<path d="M14.5758 9.1873
L14.5758 9.2478
" />
</g><text x="19.9884" y="7.2391"
textLength="17.0159" font-size="1.6933" lengthAdjust="spacingAndGlyphs"
text-anchor="middle" opacity="0">CircuitBreaker_2P</text>
<g class="stroked-text"><desc>CircuitBreaker_2P</desc>
<path d="M12.5800 7.0707
L12.5196 7.1312
" />
<path d="M12.5196 7.1312
L12.3381 7.1916
" />
<path d="M12.3381 7.1916
L12.2172 7.1916
" />
<path d="M12.2172 7.1916
L12.0358 7.1312
" />
<path d="M12.0358 7.1312
L11.9148 7.0102
" />
<path d="M11.9148 7.0102
L11.8543 6.8892
" />
<path d="M11.8543 6.8892
L11.7939 6.6473
" />
<path d="M11.7939 6.6473
L11.7939 6.4659
" />
<path d="M11.7939 6.4659
L11.8543 6.2240
" />
<path d="M11.8543 6.2240
L11.9148 6.1031
" />
<path d="M11.9148 6.1031
L12.0358 5.9821
" />
<path d="M12.0358 5.9821
L12.2172 5.9216
" />
<path d="M12.2172 5.9216
L12.3381 5.9216
" />
<path d="M12.3381 5.9216
L12.5196 5.9821
" />
<path d="M12.5196 5.9821
L12.5800 6.0426
" />
<path d="M13.1243 7.1916
L13.1243 6.3450
" />
<path d="M13.1243 5.9216
L13.0639 5.9821
" />
<path d="M13.0639 5.9821
L13.1243 6.0426
" />
<path d="M13.1243 6.0426
L13.1848 5.9821
" />
<path d="M13.1848 5.9821
L13.1243 5.9216
" />
<path d="M13.1243 5.9216
L13.1243 6.0426
" />
<path d="M13.7291 7.1916
L13.7291 6.3450
" />
<path d="M13.7291 6.5869
L13.7896 6.4659
" />
<path d="M13.7896 6.4659
L13.8501 6.4054
" />
<path d="M13.8501 6.4054
L13.9710 6.3450
" />
<path d="M13.9710 6.3450
L14.0920 6.3450
" />
<path d="M15.0596 7.1312
L14.9387 7.1916
" />
<path d="M14.9387 7.1916
L14.6968 7.1916
" />
<path d="M14.6968 7.1916
L14.5758 7.1312
" />
<path d="M14.5758 7.1312
L14.5153 7.0707
" />
<path d="M14.5153 7.0707
L14.4549 6.9497
" />
<path d="M14.4549 6.9497
L14.4549 6.5869
" />
<path d="M14.4549 6.5869
L14.5153 6.4659
" />
<path d="M14.5153 6.4659
L14.5758 6.4054
" />
<path d="M14.5758 6.4054
L14.6968 6.3450
" />
<path d="M14.6968 6.3450
L14.9387 6.3450
" />
<path d="M14.9387 6.3450
L15.0596 6.4054
" />
<path d="M16.1482 6.3450
L16.1482 7.1916
" />
<path d="M15.6039 6.3450
L15.6039 7.0102
" />
<path d="M15.6039 7.0102
L15.6644 7.1312
" />
<path d="M15.6644 7.1312
L15.7854 7.1916
" />
<path d="M15.7854 7.1916
L15.9668 7.1916
" />
<path d="M15.9668 7.1916
L16.0877 7.1312
" />
<path d="M16.0877 7.1312
L16.1482 7.0707
" />
<path d="M16.7529 7.1916
L16.7529 6.3450
" />
<path d="M16.7529 5.9216
L16.6925 5.9821
" />
<path d="M16.6925 5.9821
L16.7529 6.0426
" />
<path d="M16.7529 6.0426
L16.8134 5.9821
" />
<path d="M16.8134 5.9821
L16.7529 5.9216
" />
<path d="M16.7529 5.9216
L16.7529 6.0426
" />
<path d="M17.1763 6.3450
L17.6601 6.3450
" />
<path d="M17.3577 5.9216
L17.3577 7.0102
" />
<path d="M17.3577 7.0102
L17.4182 7.1312
" />
<path d="M17.4182 7.1312
L17.5392 7.1916
" />
<path d="M17.5392 7.1916
L17.6601 7.1916
" />
<path d="M18.5068 6.5264
L18.6882 6.5869
" />
<path d="M18.6882 6.5869
L18.7487 6.6473
" />
<path d="M18.7487 6.6473
L18.8091 6.7683
" />
<path d="M18.8091 6.7683
L18.8091 6.9497
" />
<path d="M18.8091 6.9497
L18.7487 7.0707
" />
<path d="M18.7487 7.0707
L18.6882 7.1312
" />
<path d="M18.6882 7.1312
L18.5672 7.1916
" />
<path d="M18.5672 7.1916
L18.0834 7.1916
" />
<path d="M18.0834 7.1916
L18.0834 5.9216
" />
<path d="M18.0834 5.9216
L18.5068 5.9216
" />
<path d="M18.5068 5.9216
L18.6277 5.9821
" />
<path d="M18.6277 5.9821
L18.6882 6.0426
" />
<path d="M18.6882 6.0426
L18.7487 6.1635
" />
<path d="M18.7487 6.1635
L18.7487 6.2845
" />
<path d="M18.7487 6.2845
L18.6882 6.4054
" />
<path d="M18.6882 6.4054
L18.6277 6.4659
" />
<path d="M18.6277 6.4659
L18.5068 6.5264
" />
<path d="M18.5068 6.5264
L18.0834 6.5264
" />
<path d="M19.3534 7.1916
L19.3534 6.3450
" />
<path d="M19.3534 6.5869
L19.4139 6.4659
" />
<path d="M19.4139 6.4659
L19.4744 6.4054
" />
<path d="M19.4744 6.4054
L19.5953 6.3450
" />
<path d="M19.5953 6.3450
L19.7163 6.3450
" />
<path d="M20.6234 7.1312
L20.5025 7.1916
" />
<path d="M20.5025 7.1916
L20.2606 7.1916
" />
<path d="M20.2606 7.1916
L20.1396 7.1312
" />
<path d="M20.1396 7.1312
L20.0792 7.0102
" />
<path d="M20.0792 7.0102
L20.0792 6.5264
" />
<path d="M20.0792 6.5264
L20.1396 6.4054
" />
<path d="M20.1396 6.4054
L20.2606 6.3450
" />
<path d="M20.2606 6.3450
L20.5025 6.3450
" />
<path d="M20.5025 6.3450
L20.6234 6.4054
" />
<path d="M20.6234 6.4054
L20.6839 6.5264
" />
<path d="M20.6839 6.5264
L20.6839 6.6473
" />
<path d="M20.6839 6.6473
L20.0792 6.7683
" />
<path d="M21.7725 7.1916
L21.7725 6.5264
" />
<path d="M21.7725 6.5264
L21.7120 6.4054
" />
<path d="M21.7120 6.4054
L21.5911 6.3450
" />
<path d="M21.5911 6.3450
L21.3492 6.3450
" />
<path d="M21.3492 6.3450
L21.2282 6.4054
" />
<path d="M21.7725 7.1312
L21.6516 7.1916
" />
<path d="M21.6516 7.1916
L21.3492 7.1916
" />
<path d="M21.3492 7.1916
L21.2282 7.1312
" />
<path d="M21.2282 7.1312
L21.1678 7.0102
" />
<path d="M21.1678 7.0102
L21.1678 6.8892
" />
<path d="M21.1678 6.8892
L21.2282 6.7683
" />
<path d="M21.2282 6.7683
L21.3492 6.7078
" />
<path d="M21.3492 6.7078
L21.6516 6.7078
" />
<path d="M21.6516 6.7078
L21.7725 6.6473
" />
<path d="M22.3772 7.1916
L22.3772 5.9216
" />
<path d="M22.4982 6.7078
L22.8610 7.1916
" />
<path d="M22.8610 6.3450
L22.3772 6.8288
" />
<path d="M23.8891 7.1312
L23.7682 7.1916
" />
<path d="M23.7682 7.1916
L23.5263 7.1916
" />
<path d="M23.5263 7.1916
L23.4053 7.1312
" />
<path d="M23.4053 7.1312
L23.3449 7.0102
" />
<path d="M23.3449 7.0102
L23.3449 6.5264
" />
<path d="M23.3449 6.5264
L23.4053 6.4054
" />
<path d="M23.4053 6.4054
L23.5263 6.3450
" />
<path d="M23.5263 6.3450
L23.7682 6.3450
" />
<path d="M23.7682 6.3450
L23.8891 6.4054
" />
<path d="M23.8891 6.4054
L23.9496 6.5264
" />
<path d="M23.9496 6.5264
L23.9496 6.6473
" />
<path d="M23.9496 6.6473
L23.3449 6.7683
" />
<path d="M24.4939 7.1916
L24.4939 6.3450
" />
<path d="M24.4939 6.5869
L24.5544 6.4659
" />
<path d="M24.5544 6.4659
L24.6149 6.4054
" />
<path d="M24.6149 6.4054
L24.7358 6.3450
" />
<path d="M24.7358 6.3450
L24.8568 6.3450
" />
<path d="M24.9778 7.3126
L25.9454 7.3126
" />
<path d="M26.1873 6.0426
L26.2477 5.9821
" />
<path d="M26.2477 5.9821
L26.3687 5.9216
" />
<path d="M26.3687 5.9216
L26.6711 5.9216
" />
<path d="M26.6711 5.9216
L26.7920 5.9821
" />
<path d="M26.7920 5.9821
L26.8525 6.0426
" />
<path d="M26.8525 6.0426
L26.9130 6.1635
" />
<path d="M26.9130 6.1635
L26.9130 6.2845
" />
<path d="M26.9130 6.2845
L26.8525 6.4659
" />
<path d="M26.8525 6.4659
L26.1268 7.1916
" />
<path d="M26.1268 7.1916
L26.9130 7.1916
" />
<path d="M27.4572 7.1916
L27.4572 5.9216
" />
<path d="M27.4572 5.9216
L27.9410 5.9216
" />
<path d="M27.9410 5.9216
L28.0620 5.9821
" />
<path d="M28.0620 5.9821
L28.1225 6.0426
" />
<path d="M28.1225 6.0426
L28.1829 6.1635
" />
<path d="M28.1829 6.1635
L28.1829 6.3450
" />
<path d="M28.1829 6.3450
L28.1225 6.4659
" />
<path d="M28.1225 6.4659
L28.0620 6.5264
" />
<path d="M28.0620 6.5264
L27.9410 6.5869
" />
<path d="M27.9410 6.5869
L27.4572 6.5869
" />
</g></g>
<g style="fill:#840084; fill-opacity:0.0; 
stroke:#840084; stroke-width:0.1588; stroke-opacity:1; 
stroke-linecap:round; stroke-linejoin:round;">
<text x="5.1305" y="9.7791"
textLength="1.0501" font-size="1.6933" lengthAdjust="spacingAndGlyphs"
text-anchor="middle" opacity="0">~</text>
<g class="stroked-text"><desc>~</desc>
<path d="M4.7979 9.2478
L4.8584 9.1873
" />
<path d="M4.8584 9.1873
L4.9793 9.1269
" />
<path d="M4.9793 9.1269
L5.2212 9.2478
" />
<path d="M5.2212 9.2478
L5.3422 9.1873
" />
<path d="M5.3422 9.1873
L5.4027 9.1269
" />
</g></g> 
</svg>
