<?xml version="1.0" standalone="no"?>
 <!DOCTYPE svg PUBLIC "-//W3C//DTD SVG 1.1//EN" 
 "http://www.w3.org/Graphics/SVG/1.1/DTD/svg11.dtd"> 
<svg
  xmlns:svg="http://www.w3.org/2000/svg"
  xmlns="http://www.w3.org/2000/svg"
  xmlns:xlink="http://www.w3.org/1999/xlink"
  version="1.1"
  width="21.9456mm" height="12.1920mm" viewBox="0.0000 0.0000 21.9456 12.1920">
<title>SVG Image created as working.svg date 2023/08/02 23:31:20 </title>
  <desc>Image generated by Eeschema-SVG </desc>
<g style="fill:#000000; fill-opacity:1.0000;stroke:#000000; stroke-opacity:1.0000;
stroke-linecap:round; stroke-linejoin:round;"
 transform="translate(0 0) scale(1 1)">
</g>
<g style="fill:#840000; fill-opacity:0.0; 
stroke:#840000; stroke-width:0.0000; stroke-opacity:1; 
stroke-linecap:round; stroke-linejoin:round;">
</g>
<g style="fill:#840084; fill-opacity:0.0; 
stroke:#840084; stroke-width:0.0000; stroke-opacity:1; 
stroke-linecap:round; stroke-linejoin:round;">
</g>
<g style="fill:#840000; fill-opacity:0.0; 
stroke:#840000; stroke-width:0.0000; stroke-opacity:1; 
stroke-linecap:round; stroke-linejoin:round;">
</g>
<g style="fill:#840000; fill-opacity:0.0; 
stroke:#840000; stroke-width:0.1524; stroke-opacity:1; 
stroke-linecap:round; stroke-linejoin:round;">
<path style="fill:#840000; fill-opacity:0.0; 
stroke:#840000; stroke-width:0.1524; stroke-opacity:1; 
stroke-linecap:round; stroke-linejoin:round;fill:none"
d="M 13.7710,9.2711
15.0410,8.0011
" /> 
<path style="fill:#840000; fill-opacity:0.0; 
stroke:#840000; stroke-width:0.1524; stroke-opacity:1; 
stroke-linecap:round; stroke-linejoin:round;fill:none"
d="M 18.8510,4.1911
20.1210,2.9211
" /> 
<path style="fill:#840000; fill-opacity:0.0; 
stroke:#840000; stroke-width:0.1524; stroke-opacity:1; 
stroke-linecap:round; stroke-linejoin:round;fill:none"
d="M 18.8510,2.9211
20.1210,2.9211
20.1210,4.1911
" /> 
<path style="fill:#840000; fill-opacity:0.0; 
stroke:#840000; stroke-width:0.1524; stroke-opacity:1; 
stroke-linecap:round; stroke-linejoin:round;fill:none"
d="M 17.2000,2.2861
17.7080,2.2861
" /> 
<path style="fill:#840000; fill-opacity:0.0; 
stroke:#840000; stroke-width:0.1524; stroke-opacity:1; 
stroke-linecap:round; stroke-linejoin:round;fill:none"
d="M 17.4540,2.0321
17.4540,2.5401
" /> 
</g>
<g style="fill:#840000; fill-opacity:0.0; 
stroke:#840000; stroke-width:0.2540; stroke-opacity:1; 
stroke-linecap:round; stroke-linejoin:round;">
<circle cx="16.9460" cy="6.0961" r="2.5400" /> 
</g>
<g style="fill:#840000; fill-opacity:0.0; 
stroke:#840000; stroke-width:0.3175; stroke-opacity:1; 
stroke-linecap:round; stroke-linejoin:round;">
<text x="16.9460" y="7.3661"
textLength="2.4629" font-size="3.3866" lengthAdjust="spacingAndGlyphs"
text-anchor="middle" opacity="0">A</text>
<g class="stroked-text"><desc>A</desc>
<path d="M16.3413 6.5454
L17.5508 6.5454
" />
<path d="M16.0994 7.2711
L16.9460 4.7311
" />
<path d="M16.9460 4.7311
L17.7927 7.2711
" />
</g></g>
<g style="fill:#840000; fill-opacity:0.0; 
stroke:#840000; stroke-width:0.1524; stroke-opacity:1; 
stroke-linecap:round; stroke-linejoin:round;">
<path d="M16.9460 8.6361
L16.9460 11.1761
" />
<path d="M16.9460 3.5561
L16.9460 1.0161
" />
</g>
<g style="fill:#840084; fill-opacity:0.0; 
stroke:#840084; stroke-width:0.1524; stroke-opacity:1; 
stroke-linecap:round; stroke-linejoin:round;">
</g>
<g style="fill:#006464; fill-opacity:0.0; 
stroke:#006464; stroke-width:0.1524; stroke-opacity:1; 
stroke-linecap:round; stroke-linejoin:round;">
</g>
<g style="fill:#006464; fill-opacity:0.0; 
stroke:#006464; stroke-width:0.1588; stroke-opacity:1; 
stroke-linecap:round; stroke-linejoin:round;">
<text x="11.1232" y="5.7151"
textLength="5.0415" font-size="1.6933" lengthAdjust="spacingAndGlyphs"
text-anchor="middle" opacity="0">MES?</text>
<g class="stroked-text"><desc>MES?</desc>
<path d="M8.9763 5.6676
L8.9763 4.3976
" />
<path d="M8.9763 4.3976
L9.3997 5.3048
" />
<path d="M9.3997 5.3048
L9.8230 4.3976
" />
<path d="M9.8230 4.3976
L9.8230 5.6676
" />
<path d="M10.4277 5.0024
L10.8511 5.0024
" />
<path d="M11.0325 5.6676
L10.4277 5.6676
" />
<path d="M10.4277 5.6676
L10.4277 4.3976
" />
<path d="M10.4277 4.3976
L11.0325 4.3976
" />
<path d="M11.5163 5.6072
L11.6977 5.6676
" />
<path d="M11.6977 5.6676
L12.0001 5.6676
" />
<path d="M12.0001 5.6676
L12.1210 5.6072
" />
<path d="M12.1210 5.6072
L12.1815 5.5467
" />
<path d="M12.1815 5.5467
L12.2420 5.4257
" />
<path d="M12.2420 5.4257
L12.2420 5.3048
" />
<path d="M12.2420 5.3048
L12.1815 5.1838
" />
<path d="M12.1815 5.1838
L12.1210 5.1233
" />
<path d="M12.1210 5.1233
L12.0001 5.0629
" />
<path d="M12.0001 5.0629
L11.7582 5.0024
" />
<path d="M11.7582 5.0024
L11.6372 4.9419
" />
<path d="M11.6372 4.9419
L11.5767 4.8814
" />
<path d="M11.5767 4.8814
L11.5163 4.7605
" />
<path d="M11.5163 4.7605
L11.5163 4.6395
" />
<path d="M11.5163 4.6395
L11.5767 4.5186
" />
<path d="M11.5767 4.5186
L11.6372 4.4581
" />
<path d="M11.6372 4.4581
L11.7582 4.3976
" />
<path d="M11.7582 4.3976
L12.0605 4.3976
" />
<path d="M12.0605 4.3976
L12.2420 4.4581
" />
<path d="M12.9677 5.5467
L13.0281 5.6072
" />
<path d="M13.0281 5.6072
L12.9677 5.6676
" />
<path d="M12.9677 5.6676
L12.9072 5.6072
" />
<path d="M12.9072 5.6072
L12.9677 5.5467
" />
<path d="M12.9677 5.5467
L12.9677 5.6676
" />
<path d="M12.7258 4.4581
L12.8467 4.3976
" />
<path d="M12.8467 4.3976
L13.1491 4.3976
" />
<path d="M13.1491 4.3976
L13.2700 4.4581
" />
<path d="M13.2700 4.4581
L13.3305 4.5791
" />
<path d="M13.3305 4.5791
L13.3305 4.7000
" />
<path d="M13.3305 4.7000
L13.2700 4.8210
" />
<path d="M13.2700 4.8210
L13.2096 4.8814
" />
<path d="M13.2096 4.8814
L13.0886 4.9419
" />
<path d="M13.0886 4.9419
L13.0281 5.0024
" />
<path d="M13.0281 5.0024
L12.9677 5.1233
" />
<path d="M12.9677 5.1233
L12.9677 5.1838
" />
</g><text x="7.7365" y="7.4931"
textLength="11.8149" font-size="1.6933" lengthAdjust="spacingAndGlyphs"
text-anchor="middle" opacity="0">Ammeter_DC</text>
<g class="stroked-text"><desc>Ammeter_DC</desc>
<path d="M2.1425 7.0828
L2.7472 7.0828
" />
<path d="M2.0215 7.4456
L2.4448 6.1756
" />
<path d="M2.4448 6.1756
L2.8682 7.4456
" />
<path d="M3.2915 7.4456
L3.2915 6.5990
" />
<path d="M3.2915 6.7199
L3.3520 6.6594
" />
<path d="M3.3520 6.6594
L3.4730 6.5990
" />
<path d="M3.4730 6.5990
L3.6544 6.5990
" />
<path d="M3.6544 6.5990
L3.7753 6.6594
" />
<path d="M3.7753 6.6594
L3.8358 6.7804
" />
<path d="M3.8358 6.7804
L3.8358 7.4456
" />
<path d="M3.8358 6.7804
L3.8963 6.6594
" />
<path d="M3.8963 6.6594
L4.0172 6.5990
" />
<path d="M4.0172 6.5990
L4.1987 6.5990
" />
<path d="M4.1987 6.5990
L4.3196 6.6594
" />
<path d="M4.3196 6.6594
L4.3801 6.7804
" />
<path d="M4.3801 6.7804
L4.3801 7.4456
" />
<path d="M4.9848 7.4456
L4.9848 6.5990
" />
<path d="M4.9848 6.7199
L5.0453 6.6594
" />
<path d="M5.0453 6.6594
L5.1663 6.5990
" />
<path d="M5.1663 6.5990
L5.3477 6.5990
" />
<path d="M5.3477 6.5990
L5.4686 6.6594
" />
<path d="M5.4686 6.6594
L5.5291 6.7804
" />
<path d="M5.5291 6.7804
L5.5291 7.4456
" />
<path d="M5.5291 6.7804
L5.5896 6.6594
" />
<path d="M5.5896 6.6594
L5.7105 6.5990
" />
<path d="M5.7105 6.5990
L5.8920 6.5990
" />
<path d="M5.8920 6.5990
L6.0129 6.6594
" />
<path d="M6.0129 6.6594
L6.0734 6.7804
" />
<path d="M6.0734 6.7804
L6.0734 7.4456
" />
<path d="M7.1619 7.3852
L7.0410 7.4456
" />
<path d="M7.0410 7.4456
L6.7991 7.4456
" />
<path d="M6.7991 7.4456
L6.6781 7.3852
" />
<path d="M6.6781 7.3852
L6.6177 7.2642
" />
<path d="M6.6177 7.2642
L6.6177 6.7804
" />
<path d="M6.6177 6.7804
L6.6781 6.6594
" />
<path d="M6.6781 6.6594
L6.7991 6.5990
" />
<path d="M6.7991 6.5990
L7.0410 6.5990
" />
<path d="M7.0410 6.5990
L7.1619 6.6594
" />
<path d="M7.1619 6.6594
L7.2224 6.7804
" />
<path d="M7.2224 6.7804
L7.2224 6.9013
" />
<path d="M7.2224 6.9013
L6.6177 7.0223
" />
<path d="M7.5853 6.5990
L8.0691 6.5990
" />
<path d="M7.7667 6.1756
L7.7667 7.2642
" />
<path d="M7.7667 7.2642
L7.8272 7.3852
" />
<path d="M7.8272 7.3852
L7.9482 7.4456
" />
<path d="M7.9482 7.4456
L8.0691 7.4456
" />
<path d="M8.9762 7.3852
L8.8553 7.4456
" />
<path d="M8.8553 7.4456
L8.6134 7.4456
" />
<path d="M8.6134 7.4456
L8.4924 7.3852
" />
<path d="M8.4924 7.3852
L8.4320 7.2642
" />
<path d="M8.4320 7.2642
L8.4320 6.7804
" />
<path d="M8.4320 6.7804
L8.4924 6.6594
" />
<path d="M8.4924 6.6594
L8.6134 6.5990
" />
<path d="M8.6134 6.5990
L8.8553 6.5990
" />
<path d="M8.8553 6.5990
L8.9762 6.6594
" />
<path d="M8.9762 6.6594
L9.0367 6.7804
" />
<path d="M9.0367 6.7804
L9.0367 6.9013
" />
<path d="M9.0367 6.9013
L8.4320 7.0223
" />
<path d="M9.5810 7.4456
L9.5810 6.5990
" />
<path d="M9.5810 6.8409
L9.6415 6.7199
" />
<path d="M9.6415 6.7199
L9.7020 6.6594
" />
<path d="M9.7020 6.6594
L9.8229 6.5990
" />
<path d="M9.8229 6.5990
L9.9439 6.5990
" />
<path d="M10.0649 7.5666
L11.0325 7.5666
" />
<path d="M11.3348 7.4456
L11.3348 6.1756
" />
<path d="M11.3348 6.1756
L11.6372 6.1756
" />
<path d="M11.6372 6.1756
L11.8186 6.2361
" />
<path d="M11.8186 6.2361
L11.9396 6.3571
" />
<path d="M11.9396 6.3571
L12.0001 6.4780
" />
<path d="M12.0001 6.4780
L12.0605 6.7199
" />
<path d="M12.0605 6.7199
L12.0605 6.9013
" />
<path d="M12.0605 6.9013
L12.0001 7.1432
" />
<path d="M12.0001 7.1432
L11.9396 7.2642
" />
<path d="M11.9396 7.2642
L11.8186 7.3852
" />
<path d="M11.8186 7.3852
L11.6372 7.4456
" />
<path d="M11.6372 7.4456
L11.3348 7.4456
" />
<path d="M13.3305 7.3247
L13.2701 7.3852
" />
<path d="M13.2701 7.3852
L13.0886 7.4456
" />
<path d="M13.0886 7.4456
L12.9677 7.4456
" />
<path d="M12.9677 7.4456
L12.7863 7.3852
" />
<path d="M12.7863 7.3852
L12.6653 7.2642
" />
<path d="M12.6653 7.2642
L12.6048 7.1432
" />
<path d="M12.6048 7.1432
L12.5444 6.9013
" />
<path d="M12.5444 6.9013
L12.5444 6.7199
" />
<path d="M12.5444 6.7199
L12.6048 6.4780
" />
<path d="M12.6048 6.4780
L12.6653 6.3571
" />
<path d="M12.6653 6.3571
L12.7863 6.2361
" />
<path d="M12.7863 6.2361
L12.9677 6.1756
" />
<path d="M12.9677 6.1756
L13.0886 6.1756
" />
<path d="M13.0886 6.1756
L13.2701 6.2361
" />
<path d="M13.2701 6.2361
L13.3305 6.2966
" />
</g></g>
<g style="fill:#840084; fill-opacity:0.0; 
stroke:#840084; stroke-width:0.1588; stroke-opacity:1; 
stroke-linecap:round; stroke-linejoin:round;">
<g transform="rotate(-90.000000 16.9460 3.5561)">
<text x="16.9460" y="4.1911"
textLength="1.0501" font-size="1.6933" lengthAdjust="spacingAndGlyphs"
text-anchor="middle" opacity="0">~</text>
</g>
<g class="stroked-text"><desc>~</desc>
<path d="M17.0497 3.8886
L16.9892 3.8281
" />
<path d="M16.9892 3.8281
L16.9288 3.7072
" />
<path d="M16.9288 3.7072
L17.0497 3.4653
" />
<path d="M17.0497 3.4653
L16.9892 3.3443
" />
<path d="M16.9892 3.3443
L16.9288 3.2838
" />
</g></g> 
</svg>
