<?xml version="1.0" standalone="no"?>
 <!DOCTYPE svg PUBLIC "-//W3C//DTD SVG 1.1//EN" 
 "http://www.w3.org/Graphics/SVG/1.1/DTD/svg11.dtd"> 
<svg
  xmlns:svg="http://www.w3.org/2000/svg"
  xmlns="http://www.w3.org/2000/svg"
  xmlns:xlink="http://www.w3.org/1999/xlink"
  version="1.1"
  width="65.5066mm" height="48.7680mm" viewBox="0.0000 0.0000 65.5066 48.7680">
<title>SVG Image created as working.svg date 2023/08/04 13:40:50 </title>
  <desc>Image generated by Eeschema-SVG </desc>
<g style="fill:#000000; fill-opacity:1.0000;stroke:#000000; stroke-opacity:1.0000;
stroke-linecap:round; stroke-linejoin:round;"
 transform="translate(0 0) scale(1 1)">
</g>
<g style="fill:#840000; fill-opacity:0.0; 
stroke:#840000; stroke-width:0.0000; stroke-opacity:1; 
stroke-linecap:round; stroke-linejoin:round;">
</g>
<g style="fill:#FFFFC2; fill-opacity:0.0; 
stroke:#FFFFC2; stroke-width:0.0000; stroke-opacity:1; 
stroke-linecap:round; stroke-linejoin:round;">
</g>
<g style="fill:#FFFFC2; fill-opacity:1.0000; 
stroke:#FFFFC2; stroke-width:0.0000; stroke-opacity:1; 
stroke-linecap:round; stroke-linejoin:round;">
<rect x="21.324100" y="7.874100" width="22.860000" height="33.020000" rx="0.000000" />
</g>
<g style="fill:#840084; fill-opacity:1.0000; 
stroke:#840084; stroke-width:0.0000; stroke-opacity:1; 
stroke-linecap:round; stroke-linejoin:round;">
</g>
<g style="fill:#840000; fill-opacity:1.0000; 
stroke:#840000; stroke-width:0.0000; stroke-opacity:1; 
stroke-linecap:round; stroke-linejoin:round;">
</g>
<g style="fill:#840000; fill-opacity:0.0; 
stroke:#840000; stroke-width:0.2540; stroke-opacity:1; 
stroke-linecap:round; stroke-linejoin:round;">
<rect x="21.324100" y="7.874100" width="22.860000" height="33.020000" rx="0.000000" />
</g>
<g style="fill:#840000; fill-opacity:0.0; 
stroke:#840000; stroke-width:0.1524; stroke-opacity:1; 
stroke-linecap:round; stroke-linejoin:round;">
<path d="M21.3241 11.6841
L17.5141 11.6841
" />
</g>
<g style="fill:#006464; fill-opacity:0.0; 
stroke:#006464; stroke-width:0.1524; stroke-opacity:1; 
stroke-linecap:round; stroke-linejoin:round;">
<text x="22.3401" y="12.3191"
textLength="4.9203" font-size="1.6933" lengthAdjust="spacingAndGlyphs"
text-anchor="start" opacity="0">SCL0</text>
<g class="stroked-text"><desc>SCL0</desc>
<path d="M22.6822 12.2032
L22.8636 12.2636
" />
<path d="M22.8636 12.2636
L23.1660 12.2636
" />
<path d="M23.1660 12.2636
L23.2869 12.2032
" />
<path d="M23.2869 12.2032
L23.3474 12.1427
" />
<path d="M23.3474 12.1427
L23.4079 12.0217
" />
<path d="M23.4079 12.0217
L23.4079 11.9008
" />
<path d="M23.4079 11.9008
L23.3474 11.7798
" />
<path d="M23.3474 11.7798
L23.2869 11.7193
" />
<path d="M23.2869 11.7193
L23.1660 11.6589
" />
<path d="M23.1660 11.6589
L22.9241 11.5984
" />
<path d="M22.9241 11.5984
L22.8031 11.5379
" />
<path d="M22.8031 11.5379
L22.7426 11.4774
" />
<path d="M22.7426 11.4774
L22.6822 11.3565
" />
<path d="M22.6822 11.3565
L22.6822 11.2355
" />
<path d="M22.6822 11.2355
L22.7426 11.1146
" />
<path d="M22.7426 11.1146
L22.8031 11.0541
" />
<path d="M22.8031 11.0541
L22.9241 10.9936
" />
<path d="M22.9241 10.9936
L23.2264 10.9936
" />
<path d="M23.2264 10.9936
L23.4079 11.0541
" />
<path d="M24.6778 12.1427
L24.6174 12.2032
" />
<path d="M24.6174 12.2032
L24.4359 12.2636
" />
<path d="M24.4359 12.2636
L24.3150 12.2636
" />
<path d="M24.3150 12.2636
L24.1336 12.2032
" />
<path d="M24.1336 12.2032
L24.0126 12.0822
" />
<path d="M24.0126 12.0822
L23.9521 11.9612
" />
<path d="M23.9521 11.9612
L23.8917 11.7193
" />
<path d="M23.8917 11.7193
L23.8917 11.5379
" />
<path d="M23.8917 11.5379
L23.9521 11.2960
" />
<path d="M23.9521 11.2960
L24.0126 11.1751
" />
<path d="M24.0126 11.1751
L24.1336 11.0541
" />
<path d="M24.1336 11.0541
L24.3150 10.9936
" />
<path d="M24.3150 10.9936
L24.4359 10.9936
" />
<path d="M24.4359 10.9936
L24.6174 11.0541
" />
<path d="M24.6174 11.0541
L24.6778 11.1146
" />
<path d="M25.8269 12.2636
L25.2221 12.2636
" />
<path d="M25.2221 12.2636
L25.2221 10.9936
" />
<path d="M26.4921 10.9936
L26.6131 10.9936
" />
<path d="M26.6131 10.9936
L26.7340 11.0541
" />
<path d="M26.7340 11.0541
L26.7945 11.1146
" />
<path d="M26.7945 11.1146
L26.8550 11.2355
" />
<path d="M26.8550 11.2355
L26.9155 11.4774
" />
<path d="M26.9155 11.4774
L26.9155 11.7798
" />
<path d="M26.9155 11.7798
L26.8550 12.0217
" />
<path d="M26.8550 12.0217
L26.7945 12.1427
" />
<path d="M26.7945 12.1427
L26.7340 12.2032
" />
<path d="M26.7340 12.2032
L26.6131 12.2636
" />
<path d="M26.6131 12.2636
L26.4921 12.2636
" />
<path d="M26.4921 12.2636
L26.3712 12.2032
" />
<path d="M26.3712 12.2032
L26.3107 12.1427
" />
<path d="M26.3107 12.1427
L26.2502 12.0217
" />
<path d="M26.2502 12.0217
L26.1898 11.7798
" />
<path d="M26.1898 11.7798
L26.1898 11.4774
" />
<path d="M26.1898 11.4774
L26.2502 11.2355
" />
<path d="M26.2502 11.2355
L26.3107 11.1146
" />
<path d="M26.3107 11.1146
L26.3712 11.0541
" />
<path d="M26.3712 11.0541
L26.4921 10.9936
" />
</g></g>
<g style="fill:#A90000; fill-opacity:0.0; 
stroke:#A90000; stroke-width:0.1524; stroke-opacity:1; 
stroke-linecap:round; stroke-linejoin:round;">
<text x="19.4191" y="11.4301"
textLength="1.4127" font-size="1.6933" lengthAdjust="spacingAndGlyphs"
text-anchor="middle" opacity="0">1</text>
<g class="stroked-text"><desc>1</desc>
<path d="M19.7820 11.2666
L19.0563 11.2666
" />
<path d="M19.4191 11.2666
L19.4191 9.9966
" />
<path d="M19.4191 9.9966
L19.2982 10.1781
" />
<path d="M19.2982 10.1781
L19.1772 10.2990
" />
<path d="M19.1772 10.2990
L19.0563 10.3595
" />
</g></g>
<g style="fill:#840000; fill-opacity:0.0; 
stroke:#840000; stroke-width:0.1524; stroke-opacity:1; 
stroke-linecap:round; stroke-linejoin:round;">
<path d="M44.1841 21.8441
L47.9941 21.8441
" />
</g>
<g style="fill:#006464; fill-opacity:0.0; 
stroke:#006464; stroke-width:0.1524; stroke-opacity:1; 
stroke-linecap:round; stroke-linejoin:round;">
<text x="43.1681" y="22.4791"
textLength="4.9203" font-size="1.6933" lengthAdjust="spacingAndGlyphs"
text-anchor="end" opacity="0">SCL3</text>
<g class="stroked-text"><desc>SCL3</desc>
<path d="M38.5927 22.3632
L38.7741 22.4236
" />
<path d="M38.7741 22.4236
L39.0765 22.4236
" />
<path d="M39.0765 22.4236
L39.1974 22.3632
" />
<path d="M39.1974 22.3632
L39.2579 22.3027
" />
<path d="M39.2579 22.3027
L39.3184 22.1817
" />
<path d="M39.3184 22.1817
L39.3184 22.0608
" />
<path d="M39.3184 22.0608
L39.2579 21.9398
" />
<path d="M39.2579 21.9398
L39.1974 21.8793
" />
<path d="M39.1974 21.8793
L39.0765 21.8189
" />
<path d="M39.0765 21.8189
L38.8346 21.7584
" />
<path d="M38.8346 21.7584
L38.7136 21.6979
" />
<path d="M38.7136 21.6979
L38.6531 21.6374
" />
<path d="M38.6531 21.6374
L38.5927 21.5165
" />
<path d="M38.5927 21.5165
L38.5927 21.3955
" />
<path d="M38.5927 21.3955
L38.6531 21.2746
" />
<path d="M38.6531 21.2746
L38.7136 21.2141
" />
<path d="M38.7136 21.2141
L38.8346 21.1536
" />
<path d="M38.8346 21.1536
L39.1369 21.1536
" />
<path d="M39.1369 21.1536
L39.3184 21.2141
" />
<path d="M40.5883 22.3027
L40.5279 22.3632
" />
<path d="M40.5279 22.3632
L40.3464 22.4236
" />
<path d="M40.3464 22.4236
L40.2255 22.4236
" />
<path d="M40.2255 22.4236
L40.0441 22.3632
" />
<path d="M40.0441 22.3632
L39.9231 22.2422
" />
<path d="M39.9231 22.2422
L39.8626 22.1212
" />
<path d="M39.8626 22.1212
L39.8022 21.8793
" />
<path d="M39.8022 21.8793
L39.8022 21.6979
" />
<path d="M39.8022 21.6979
L39.8626 21.4560
" />
<path d="M39.8626 21.4560
L39.9231 21.3351
" />
<path d="M39.9231 21.3351
L40.0441 21.2141
" />
<path d="M40.0441 21.2141
L40.2255 21.1536
" />
<path d="M40.2255 21.1536
L40.3464 21.1536
" />
<path d="M40.3464 21.1536
L40.5279 21.2141
" />
<path d="M40.5279 21.2141
L40.5883 21.2746
" />
<path d="M41.7374 22.4236
L41.1326 22.4236
" />
<path d="M41.1326 22.4236
L41.1326 21.1536
" />
<path d="M42.0398 21.1536
L42.8260 21.1536
" />
<path d="M42.8260 21.1536
L42.4026 21.6374
" />
<path d="M42.4026 21.6374
L42.5841 21.6374
" />
<path d="M42.5841 21.6374
L42.7050 21.6979
" />
<path d="M42.7050 21.6979
L42.7655 21.7584
" />
<path d="M42.7655 21.7584
L42.8260 21.8793
" />
<path d="M42.8260 21.8793
L42.8260 22.1817
" />
<path d="M42.8260 22.1817
L42.7655 22.3027
" />
<path d="M42.7655 22.3027
L42.7050 22.3632
" />
<path d="M42.7050 22.3632
L42.5841 22.4236
" />
<path d="M42.5841 22.4236
L42.2212 22.4236
" />
<path d="M42.2212 22.4236
L42.1003 22.3632
" />
<path d="M42.1003 22.3632
L42.0398 22.3027
" />
</g></g>
<g style="fill:#A90000; fill-opacity:0.0; 
stroke:#A90000; stroke-width:0.1524; stroke-opacity:1; 
stroke-linecap:round; stroke-linejoin:round;">
<text x="46.0891" y="21.5901"
textLength="2.6222" font-size="1.6933" lengthAdjust="spacingAndGlyphs"
text-anchor="middle" opacity="0">10</text>
<g class="stroked-text"><desc>10</desc>
<path d="M45.8472 21.4266
L45.1215 21.4266
" />
<path d="M45.4843 21.4266
L45.4843 20.1566
" />
<path d="M45.4843 20.1566
L45.3634 20.3381
" />
<path d="M45.3634 20.3381
L45.2424 20.4590
" />
<path d="M45.2424 20.4590
L45.1215 20.5195
" />
<path d="M46.6333 20.1566
L46.7543 20.1566
" />
<path d="M46.7543 20.1566
L46.8752 20.2171
" />
<path d="M46.8752 20.2171
L46.9357 20.2776
" />
<path d="M46.9357 20.2776
L46.9962 20.3985
" />
<path d="M46.9962 20.3985
L47.0567 20.6404
" />
<path d="M47.0567 20.6404
L47.0567 20.9428
" />
<path d="M47.0567 20.9428
L46.9962 21.1847
" />
<path d="M46.9962 21.1847
L46.9357 21.3057
" />
<path d="M46.9357 21.3057
L46.8752 21.3662
" />
<path d="M46.8752 21.3662
L46.7543 21.4266
" />
<path d="M46.7543 21.4266
L46.6333 21.4266
" />
<path d="M46.6333 21.4266
L46.5124 21.3662
" />
<path d="M46.5124 21.3662
L46.4519 21.3057
" />
<path d="M46.4519 21.3057
L46.3914 21.1847
" />
<path d="M46.3914 21.1847
L46.3310 20.9428
" />
<path d="M46.3310 20.9428
L46.3310 20.6404
" />
<path d="M46.3310 20.6404
L46.3914 20.3985
" />
<path d="M46.3914 20.3985
L46.4519 20.2776
" />
<path d="M46.4519 20.2776
L46.5124 20.2171
" />
<path d="M46.5124 20.2171
L46.6333 20.1566
" />
</g></g>
<g style="fill:#840000; fill-opacity:0.0; 
stroke:#840000; stroke-width:0.1524; stroke-opacity:1; 
stroke-linecap:round; stroke-linejoin:round;">
<path d="M44.1841 24.3841
L47.9941 24.3841
" />
</g>
<g style="fill:#006464; fill-opacity:0.0; 
stroke:#006464; stroke-width:0.1524; stroke-opacity:1; 
stroke-linecap:round; stroke-linejoin:round;">
<text x="43.1681" y="25.0191"
textLength="4.9808" font-size="1.6933" lengthAdjust="spacingAndGlyphs"
text-anchor="end" opacity="0">SDA3</text>
<g class="stroked-text"><desc>SDA3</desc>
<path d="M38.5322 24.9032
L38.7136 24.9636
" />
<path d="M38.7136 24.9636
L39.0160 24.9636
" />
<path d="M39.0160 24.9636
L39.1369 24.9032
" />
<path d="M39.1369 24.9032
L39.1974 24.8427
" />
<path d="M39.1974 24.8427
L39.2579 24.7217
" />
<path d="M39.2579 24.7217
L39.2579 24.6008
" />
<path d="M39.2579 24.6008
L39.1974 24.4798
" />
<path d="M39.1974 24.4798
L39.1369 24.4193
" />
<path d="M39.1369 24.4193
L39.0160 24.3589
" />
<path d="M39.0160 24.3589
L38.7741 24.2984
" />
<path d="M38.7741 24.2984
L38.6531 24.2379
" />
<path d="M38.6531 24.2379
L38.5926 24.1774
" />
<path d="M38.5926 24.1774
L38.5322 24.0565
" />
<path d="M38.5322 24.0565
L38.5322 23.9355
" />
<path d="M38.5322 23.9355
L38.5926 23.8146
" />
<path d="M38.5926 23.8146
L38.6531 23.7541
" />
<path d="M38.6531 23.7541
L38.7741 23.6936
" />
<path d="M38.7741 23.6936
L39.0764 23.6936
" />
<path d="M39.0764 23.6936
L39.2579 23.7541
" />
<path d="M39.8021 24.9636
L39.8021 23.6936
" />
<path d="M39.8021 23.6936
L40.1045 23.6936
" />
<path d="M40.1045 23.6936
L40.2859 23.7541
" />
<path d="M40.2859 23.7541
L40.4069 23.8751
" />
<path d="M40.4069 23.8751
L40.4674 23.9960
" />
<path d="M40.4674 23.9960
L40.5278 24.2379
" />
<path d="M40.5278 24.2379
L40.5278 24.4193
" />
<path d="M40.5278 24.4193
L40.4674 24.6612
" />
<path d="M40.4674 24.6612
L40.4069 24.7822
" />
<path d="M40.4069 24.7822
L40.2859 24.9032
" />
<path d="M40.2859 24.9032
L40.1045 24.9636
" />
<path d="M40.1045 24.9636
L39.8021 24.9636
" />
<path d="M41.0117 24.6008
L41.6164 24.6008
" />
<path d="M40.8907 24.9636
L41.3140 23.6936
" />
<path d="M41.3140 23.6936
L41.7374 24.9636
" />
<path d="M42.0398 23.6936
L42.8260 23.6936
" />
<path d="M42.8260 23.6936
L42.4026 24.1774
" />
<path d="M42.4026 24.1774
L42.5841 24.1774
" />
<path d="M42.5841 24.1774
L42.7050 24.2379
" />
<path d="M42.7050 24.2379
L42.7655 24.2984
" />
<path d="M42.7655 24.2984
L42.8260 24.4193
" />
<path d="M42.8260 24.4193
L42.8260 24.7217
" />
<path d="M42.8260 24.7217
L42.7655 24.8427
" />
<path d="M42.7655 24.8427
L42.7050 24.9032
" />
<path d="M42.7050 24.9032
L42.5841 24.9636
" />
<path d="M42.5841 24.9636
L42.2212 24.9636
" />
<path d="M42.2212 24.9636
L42.1003 24.9032
" />
<path d="M42.1003 24.9032
L42.0398 24.8427
" />
</g></g>
<g style="fill:#A90000; fill-opacity:0.0; 
stroke:#A90000; stroke-width:0.1524; stroke-opacity:1; 
stroke-linecap:round; stroke-linejoin:round;">
<text x="46.0891" y="24.1301"
textLength="2.6222" font-size="1.6933" lengthAdjust="spacingAndGlyphs"
text-anchor="middle" opacity="0">11</text>
<g class="stroked-text"><desc>11</desc>
<path d="M45.8472 23.9666
L45.1215 23.9666
" />
<path d="M45.4843 23.9666
L45.4843 22.6966
" />
<path d="M45.4843 22.6966
L45.3634 22.8781
" />
<path d="M45.3634 22.8781
L45.2424 22.9990
" />
<path d="M45.2424 22.9990
L45.1215 23.0595
" />
<path d="M47.0567 23.9666
L46.3310 23.9666
" />
<path d="M46.6938 23.9666
L46.6938 22.6966
" />
<path d="M46.6938 22.6966
L46.5729 22.8781
" />
<path d="M46.5729 22.8781
L46.4519 22.9990
" />
<path d="M46.4519 22.9990
L46.3310 23.0595
" />
</g></g>
<g style="fill:#840000; fill-opacity:0.0; 
stroke:#840000; stroke-width:0.1524; stroke-opacity:1; 
stroke-linecap:round; stroke-linejoin:round;">
<path d="M21.3241 34.5441
L17.5141 34.5441
" />
</g>
<g style="fill:#006464; fill-opacity:0.0; 
stroke:#006464; stroke-width:0.1524; stroke-opacity:1; 
stroke-linecap:round; stroke-linejoin:round;">
<text x="22.3401" y="35.1791"
textLength="3.8922" font-size="1.6933" lengthAdjust="spacingAndGlyphs"
text-anchor="start" opacity="0">EN3</text>
<g class="stroked-text"><desc>EN3</desc>
<path d="M22.7426 34.4584
L23.1660 34.4584
" />
<path d="M23.3474 35.1236
L22.7426 35.1236
" />
<path d="M22.7426 35.1236
L22.7426 33.8536
" />
<path d="M22.7426 33.8536
L23.3474 33.8536
" />
<path d="M23.8916 35.1236
L23.8916 33.8536
" />
<path d="M23.8916 33.8536
L24.6173 35.1236
" />
<path d="M24.6173 35.1236
L24.6173 33.8536
" />
<path d="M25.1012 33.8536
L25.8874 33.8536
" />
<path d="M25.8874 33.8536
L25.4640 34.3374
" />
<path d="M25.4640 34.3374
L25.6455 34.3374
" />
<path d="M25.6455 34.3374
L25.7664 34.3979
" />
<path d="M25.7664 34.3979
L25.8269 34.4584
" />
<path d="M25.8269 34.4584
L25.8874 34.5793
" />
<path d="M25.8874 34.5793
L25.8874 34.8817
" />
<path d="M25.8874 34.8817
L25.8269 35.0027
" />
<path d="M25.8269 35.0027
L25.7664 35.0632
" />
<path d="M25.7664 35.0632
L25.6455 35.1236
" />
<path d="M25.6455 35.1236
L25.2826 35.1236
" />
<path d="M25.2826 35.1236
L25.1617 35.0632
" />
<path d="M25.1617 35.0632
L25.1012 35.0027
" />
</g></g>
<g style="fill:#A90000; fill-opacity:0.0; 
stroke:#A90000; stroke-width:0.1524; stroke-opacity:1; 
stroke-linecap:round; stroke-linejoin:round;">
<text x="19.4191" y="34.2901"
textLength="2.6222" font-size="1.6933" lengthAdjust="spacingAndGlyphs"
text-anchor="middle" opacity="0">12</text>
<g class="stroked-text"><desc>12</desc>
<path d="M19.1772 34.1266
L18.4515 34.1266
" />
<path d="M18.8143 34.1266
L18.8143 32.8566
" />
<path d="M18.8143 32.8566
L18.6934 33.0381
" />
<path d="M18.6934 33.0381
L18.5724 33.1590
" />
<path d="M18.5724 33.1590
L18.4515 33.2195
" />
<path d="M19.6610 32.9776
L19.7214 32.9171
" />
<path d="M19.7214 32.9171
L19.8424 32.8566
" />
<path d="M19.8424 32.8566
L20.1448 32.8566
" />
<path d="M20.1448 32.8566
L20.2657 32.9171
" />
<path d="M20.2657 32.9171
L20.3262 32.9776
" />
<path d="M20.3262 32.9776
L20.3867 33.0985
" />
<path d="M20.3867 33.0985
L20.3867 33.2195
" />
<path d="M20.3867 33.2195
L20.3262 33.4009
" />
<path d="M20.3262 33.4009
L19.6005 34.1266
" />
<path d="M19.6005 34.1266
L20.3867 34.1266
" />
</g></g>
<g style="fill:#840000; fill-opacity:0.0; 
stroke:#840000; stroke-width:0.1524; stroke-opacity:1; 
stroke-linecap:round; stroke-linejoin:round;">
<path d="M44.1841 32.0041
L47.9941 32.0041
" />
</g>
<g style="fill:#006464; fill-opacity:0.0; 
stroke:#006464; stroke-width:0.1524; stroke-opacity:1; 
stroke-linecap:round; stroke-linejoin:round;">
<text x="43.1681" y="32.6391"
textLength="4.9203" font-size="1.6933" lengthAdjust="spacingAndGlyphs"
text-anchor="end" opacity="0">SCL4</text>
<g class="stroked-text"><desc>SCL4</desc>
<path d="M38.5927 32.5232
L38.7741 32.5836
" />
<path d="M38.7741 32.5836
L39.0765 32.5836
" />
<path d="M39.0765 32.5836
L39.1974 32.5232
" />
<path d="M39.1974 32.5232
L39.2579 32.4627
" />
<path d="M39.2579 32.4627
L39.3184 32.3417
" />
<path d="M39.3184 32.3417
L39.3184 32.2208
" />
<path d="M39.3184 32.2208
L39.2579 32.0998
" />
<path d="M39.2579 32.0998
L39.1974 32.0393
" />
<path d="M39.1974 32.0393
L39.0765 31.9789
" />
<path d="M39.0765 31.9789
L38.8346 31.9184
" />
<path d="M38.8346 31.9184
L38.7136 31.8579
" />
<path d="M38.7136 31.8579
L38.6531 31.7974
" />
<path d="M38.6531 31.7974
L38.5927 31.6765
" />
<path d="M38.5927 31.6765
L38.5927 31.5555
" />
<path d="M38.5927 31.5555
L38.6531 31.4346
" />
<path d="M38.6531 31.4346
L38.7136 31.3741
" />
<path d="M38.7136 31.3741
L38.8346 31.3136
" />
<path d="M38.8346 31.3136
L39.1369 31.3136
" />
<path d="M39.1369 31.3136
L39.3184 31.3741
" />
<path d="M40.5883 32.4627
L40.5279 32.5232
" />
<path d="M40.5279 32.5232
L40.3464 32.5836
" />
<path d="M40.3464 32.5836
L40.2255 32.5836
" />
<path d="M40.2255 32.5836
L40.0441 32.5232
" />
<path d="M40.0441 32.5232
L39.9231 32.4022
" />
<path d="M39.9231 32.4022
L39.8626 32.2812
" />
<path d="M39.8626 32.2812
L39.8022 32.0393
" />
<path d="M39.8022 32.0393
L39.8022 31.8579
" />
<path d="M39.8022 31.8579
L39.8626 31.6160
" />
<path d="M39.8626 31.6160
L39.9231 31.4951
" />
<path d="M39.9231 31.4951
L40.0441 31.3741
" />
<path d="M40.0441 31.3741
L40.2255 31.3136
" />
<path d="M40.2255 31.3136
L40.3464 31.3136
" />
<path d="M40.3464 31.3136
L40.5279 31.3741
" />
<path d="M40.5279 31.3741
L40.5883 31.4346
" />
<path d="M41.7374 32.5836
L41.1326 32.5836
" />
<path d="M41.1326 32.5836
L41.1326 31.3136
" />
<path d="M42.7050 31.7370
L42.7050 32.5836
" />
<path d="M42.4026 31.2532
L42.1003 32.1603
" />
<path d="M42.1003 32.1603
L42.8864 32.1603
" />
</g></g>
<g style="fill:#A90000; fill-opacity:0.0; 
stroke:#A90000; stroke-width:0.1524; stroke-opacity:1; 
stroke-linecap:round; stroke-linejoin:round;">
<text x="46.0891" y="31.7501"
textLength="2.6222" font-size="1.6933" lengthAdjust="spacingAndGlyphs"
text-anchor="middle" opacity="0">13</text>
<g class="stroked-text"><desc>13</desc>
<path d="M45.8472 31.5866
L45.1215 31.5866
" />
<path d="M45.4843 31.5866
L45.4843 30.3166
" />
<path d="M45.4843 30.3166
L45.3634 30.4981
" />
<path d="M45.3634 30.4981
L45.2424 30.6190
" />
<path d="M45.2424 30.6190
L45.1215 30.6795
" />
<path d="M46.2705 30.3166
L47.0567 30.3166
" />
<path d="M47.0567 30.3166
L46.6333 30.8004
" />
<path d="M46.6333 30.8004
L46.8148 30.8004
" />
<path d="M46.8148 30.8004
L46.9357 30.8609
" />
<path d="M46.9357 30.8609
L46.9962 30.9214
" />
<path d="M46.9962 30.9214
L47.0567 31.0423
" />
<path d="M47.0567 31.0423
L47.0567 31.3447
" />
<path d="M47.0567 31.3447
L46.9962 31.4657
" />
<path d="M46.9962 31.4657
L46.9357 31.5262
" />
<path d="M46.9357 31.5262
L46.8148 31.5866
" />
<path d="M46.8148 31.5866
L46.4519 31.5866
" />
<path d="M46.4519 31.5866
L46.3310 31.5262
" />
<path d="M46.3310 31.5262
L46.2705 31.4657
" />
</g></g>
<g style="fill:#840000; fill-opacity:0.0; 
stroke:#840000; stroke-width:0.1524; stroke-opacity:1; 
stroke-linecap:round; stroke-linejoin:round;">
<path d="M44.1841 34.5441
L47.9941 34.5441
" />
</g>
<g style="fill:#006464; fill-opacity:0.0; 
stroke:#006464; stroke-width:0.1524; stroke-opacity:1; 
stroke-linecap:round; stroke-linejoin:round;">
<text x="43.1681" y="35.1791"
textLength="4.9808" font-size="1.6933" lengthAdjust="spacingAndGlyphs"
text-anchor="end" opacity="0">SDA4</text>
<g class="stroked-text"><desc>SDA4</desc>
<path d="M38.5322 35.0632
L38.7136 35.1236
" />
<path d="M38.7136 35.1236
L39.0160 35.1236
" />
<path d="M39.0160 35.1236
L39.1369 35.0632
" />
<path d="M39.1369 35.0632
L39.1974 35.0027
" />
<path d="M39.1974 35.0027
L39.2579 34.8817
" />
<path d="M39.2579 34.8817
L39.2579 34.7608
" />
<path d="M39.2579 34.7608
L39.1974 34.6398
" />
<path d="M39.1974 34.6398
L39.1369 34.5793
" />
<path d="M39.1369 34.5793
L39.0160 34.5189
" />
<path d="M39.0160 34.5189
L38.7741 34.4584
" />
<path d="M38.7741 34.4584
L38.6531 34.3979
" />
<path d="M38.6531 34.3979
L38.5926 34.3374
" />
<path d="M38.5926 34.3374
L38.5322 34.2165
" />
<path d="M38.5322 34.2165
L38.5322 34.0955
" />
<path d="M38.5322 34.0955
L38.5926 33.9746
" />
<path d="M38.5926 33.9746
L38.6531 33.9141
" />
<path d="M38.6531 33.9141
L38.7741 33.8536
" />
<path d="M38.7741 33.8536
L39.0764 33.8536
" />
<path d="M39.0764 33.8536
L39.2579 33.9141
" />
<path d="M39.8021 35.1236
L39.8021 33.8536
" />
<path d="M39.8021 33.8536
L40.1045 33.8536
" />
<path d="M40.1045 33.8536
L40.2859 33.9141
" />
<path d="M40.2859 33.9141
L40.4069 34.0351
" />
<path d="M40.4069 34.0351
L40.4674 34.1560
" />
<path d="M40.4674 34.1560
L40.5278 34.3979
" />
<path d="M40.5278 34.3979
L40.5278 34.5793
" />
<path d="M40.5278 34.5793
L40.4674 34.8212
" />
<path d="M40.4674 34.8212
L40.4069 34.9422
" />
<path d="M40.4069 34.9422
L40.2859 35.0632
" />
<path d="M40.2859 35.0632
L40.1045 35.1236
" />
<path d="M40.1045 35.1236
L39.8021 35.1236
" />
<path d="M41.0117 34.7608
L41.6164 34.7608
" />
<path d="M40.8907 35.1236
L41.3140 33.8536
" />
<path d="M41.3140 33.8536
L41.7374 35.1236
" />
<path d="M42.7050 34.2770
L42.7050 35.1236
" />
<path d="M42.4026 33.7932
L42.1003 34.7003
" />
<path d="M42.1003 34.7003
L42.8864 34.7003
" />
</g></g>
<g style="fill:#A90000; fill-opacity:0.0; 
stroke:#A90000; stroke-width:0.1524; stroke-opacity:1; 
stroke-linecap:round; stroke-linejoin:round;">
<text x="46.0891" y="34.2901"
textLength="2.6222" font-size="1.6933" lengthAdjust="spacingAndGlyphs"
text-anchor="middle" opacity="0">14</text>
<g class="stroked-text"><desc>14</desc>
<path d="M45.8472 34.1266
L45.1215 34.1266
" />
<path d="M45.4843 34.1266
L45.4843 32.8566
" />
<path d="M45.4843 32.8566
L45.3634 33.0381
" />
<path d="M45.3634 33.0381
L45.2424 33.1590
" />
<path d="M45.2424 33.1590
L45.1215 33.2195
" />
<path d="M46.9357 33.2800
L46.9357 34.1266
" />
<path d="M46.6333 32.7962
L46.3310 33.7033
" />
<path d="M46.3310 33.7033
L47.1171 33.7033
" />
</g></g>
<g style="fill:#840000; fill-opacity:0.0; 
stroke:#840000; stroke-width:0.1524; stroke-opacity:1; 
stroke-linecap:round; stroke-linejoin:round;">
<path d="M21.3241 37.0841
L17.5141 37.0841
" />
</g>
<g style="fill:#006464; fill-opacity:0.0; 
stroke:#006464; stroke-width:0.1524; stroke-opacity:1; 
stroke-linecap:round; stroke-linejoin:round;">
<text x="22.3401" y="37.7191"
textLength="3.8922" font-size="1.6933" lengthAdjust="spacingAndGlyphs"
text-anchor="start" opacity="0">EN4</text>
<g class="stroked-text"><desc>EN4</desc>
<path d="M22.7426 36.9984
L23.1660 36.9984
" />
<path d="M23.3474 37.6636
L22.7426 37.6636
" />
<path d="M22.7426 37.6636
L22.7426 36.3936
" />
<path d="M22.7426 36.3936
L23.3474 36.3936
" />
<path d="M23.8916 37.6636
L23.8916 36.3936
" />
<path d="M23.8916 36.3936
L24.6173 37.6636
" />
<path d="M24.6173 37.6636
L24.6173 36.3936
" />
<path d="M25.7664 36.8170
L25.7664 37.6636
" />
<path d="M25.4640 36.3332
L25.1617 37.2403
" />
<path d="M25.1617 37.2403
L25.9478 37.2403
" />
</g></g>
<g style="fill:#A90000; fill-opacity:0.0; 
stroke:#A90000; stroke-width:0.1524; stroke-opacity:1; 
stroke-linecap:round; stroke-linejoin:round;">
<text x="19.4191" y="36.8301"
textLength="2.6222" font-size="1.6933" lengthAdjust="spacingAndGlyphs"
text-anchor="middle" opacity="0">15</text>
<g class="stroked-text"><desc>15</desc>
<path d="M19.1772 36.6666
L18.4515 36.6666
" />
<path d="M18.8143 36.6666
L18.8143 35.3966
" />
<path d="M18.8143 35.3966
L18.6934 35.5781
" />
<path d="M18.6934 35.5781
L18.5724 35.6990
" />
<path d="M18.5724 35.6990
L18.4515 35.7595
" />
<path d="M20.3262 35.3966
L19.7214 35.3966
" />
<path d="M19.7214 35.3966
L19.6610 36.0014
" />
<path d="M19.6610 36.0014
L19.7214 35.9409
" />
<path d="M19.7214 35.9409
L19.8424 35.8804
" />
<path d="M19.8424 35.8804
L20.1448 35.8804
" />
<path d="M20.1448 35.8804
L20.2657 35.9409
" />
<path d="M20.2657 35.9409
L20.3262 36.0014
" />
<path d="M20.3262 36.0014
L20.3867 36.1223
" />
<path d="M20.3867 36.1223
L20.3867 36.4247
" />
<path d="M20.3867 36.4247
L20.3262 36.5457
" />
<path d="M20.3262 36.5457
L20.2657 36.6062
" />
<path d="M20.2657 36.6062
L20.1448 36.6666
" />
<path d="M20.1448 36.6666
L19.8424 36.6666
" />
<path d="M19.8424 36.6666
L19.7214 36.6062
" />
<path d="M19.7214 36.6062
L19.6610 36.5457
" />
</g></g>
<g style="fill:#840000; fill-opacity:0.0; 
stroke:#840000; stroke-width:0.1524; stroke-opacity:1; 
stroke-linecap:round; stroke-linejoin:round;">
<path d="M32.7541 7.8741
L32.7541 4.0641
" />
</g>
<g style="fill:#006464; fill-opacity:0.0; 
stroke:#006464; stroke-width:0.1524; stroke-opacity:1; 
stroke-linecap:round; stroke-linejoin:round;">
<g transform="rotate(-90.000000 32.7541 8.8901)">
<text x="32.7541" y="9.5251"
textLength="3.8318" font-size="1.6933" lengthAdjust="spacingAndGlyphs"
text-anchor="end" opacity="0">VCC</text>
</g>
<g class="stroked-text"><desc>VCC</desc>
<path d="M32.0636 12.4979
L33.3336 12.0746
" />
<path d="M33.3336 12.0746
L32.0636 11.6512
" />
<path d="M33.2127 10.5022
L33.2732 10.5626
" />
<path d="M33.2732 10.5626
L33.3336 10.7441
" />
<path d="M33.3336 10.7441
L33.3336 10.8650
" />
<path d="M33.3336 10.8650
L33.2732 11.0464
" />
<path d="M33.2732 11.0464
L33.1522 11.1674
" />
<path d="M33.1522 11.1674
L33.0312 11.2279
" />
<path d="M33.0312 11.2279
L32.7893 11.2883
" />
<path d="M32.7893 11.2883
L32.6079 11.2883
" />
<path d="M32.6079 11.2883
L32.3660 11.2279
" />
<path d="M32.3660 11.2279
L32.2451 11.1674
" />
<path d="M32.2451 11.1674
L32.1241 11.0464
" />
<path d="M32.1241 11.0464
L32.0636 10.8650
" />
<path d="M32.0636 10.8650
L32.0636 10.7441
" />
<path d="M32.0636 10.7441
L32.1241 10.5626
" />
<path d="M32.1241 10.5626
L32.1846 10.5022
" />
<path d="M33.2127 9.2322
L33.2732 9.2926
" />
<path d="M33.2732 9.2926
L33.3336 9.4741
" />
<path d="M33.3336 9.4741
L33.3336 9.5950
" />
<path d="M33.3336 9.5950
L33.2732 9.7764
" />
<path d="M33.2732 9.7764
L33.1522 9.8974
" />
<path d="M33.1522 9.8974
L33.0312 9.9579
" />
<path d="M33.0312 9.9579
L32.7893 10.0183
" />
<path d="M32.7893 10.0183
L32.6079 10.0183
" />
<path d="M32.6079 10.0183
L32.3660 9.9579
" />
<path d="M32.3660 9.9579
L32.2451 9.8974
" />
<path d="M32.2451 9.8974
L32.1241 9.7764
" />
<path d="M32.1241 9.7764
L32.0636 9.5950
" />
<path d="M32.0636 9.5950
L32.0636 9.4741
" />
<path d="M32.0636 9.4741
L32.1241 9.2926
" />
<path d="M32.1241 9.2926
L32.1846 9.2322
" />
</g></g>
<g style="fill:#A90000; fill-opacity:0.0; 
stroke:#A90000; stroke-width:0.1524; stroke-opacity:1; 
stroke-linecap:round; stroke-linejoin:round;">
<g transform="rotate(-90.000000 32.5001 5.9691)">
<text x="32.5001" y="5.9691"
textLength="2.6222" font-size="1.6933" lengthAdjust="spacingAndGlyphs"
text-anchor="middle" opacity="0">16</text>
</g>
<g class="stroked-text"><desc>16</desc>
<path d="M32.3366 6.2109
L32.3366 6.9366
" />
<path d="M32.3366 6.5738
L31.0666 6.5738
" />
<path d="M31.0666 6.5738
L31.2481 6.6947
" />
<path d="M31.2481 6.6947
L31.3690 6.8157
" />
<path d="M31.3690 6.8157
L31.4295 6.9366
" />
<path d="M31.0666 5.1224
L31.0666 5.3643
" />
<path d="M31.0666 5.3643
L31.1271 5.4852
" />
<path d="M31.1271 5.4852
L31.1876 5.5457
" />
<path d="M31.1876 5.5457
L31.3690 5.6667
" />
<path d="M31.3690 5.6667
L31.6109 5.7271
" />
<path d="M31.6109 5.7271
L32.0947 5.7271
" />
<path d="M32.0947 5.7271
L32.2157 5.6667
" />
<path d="M32.2157 5.6667
L32.2762 5.6062
" />
<path d="M32.2762 5.6062
L32.3366 5.4852
" />
<path d="M32.3366 5.4852
L32.3366 5.2433
" />
<path d="M32.3366 5.2433
L32.2762 5.1224
" />
<path d="M32.2762 5.1224
L32.2157 5.0619
" />
<path d="M32.2157 5.0619
L32.0947 5.0014
" />
<path d="M32.0947 5.0014
L31.7923 5.0014
" />
<path d="M31.7923 5.0014
L31.6714 5.0619
" />
<path d="M31.6714 5.0619
L31.6109 5.1224
" />
<path d="M31.6109 5.1224
L31.5504 5.2433
" />
<path d="M31.5504 5.2433
L31.5504 5.4852
" />
<path d="M31.5504 5.4852
L31.6109 5.6062
" />
<path d="M31.6109 5.6062
L31.6714 5.6667
" />
<path d="M31.6714 5.6667
L31.7923 5.7271
" />
</g></g>
<g style="fill:#840000; fill-opacity:0.0; 
stroke:#840000; stroke-width:0.1524; stroke-opacity:1; 
stroke-linecap:round; stroke-linejoin:round;">
<path d="M21.3241 14.2241
L17.5141 14.2241
" />
</g>
<g style="fill:#006464; fill-opacity:0.0; 
stroke:#006464; stroke-width:0.1524; stroke-opacity:1; 
stroke-linecap:round; stroke-linejoin:round;">
<text x="22.3401" y="14.8591"
textLength="4.9808" font-size="1.6933" lengthAdjust="spacingAndGlyphs"
text-anchor="start" opacity="0">SDA0</text>
<g class="stroked-text"><desc>SDA0</desc>
<path d="M22.6822 14.7432
L22.8636 14.8036
" />
<path d="M22.8636 14.8036
L23.1660 14.8036
" />
<path d="M23.1660 14.8036
L23.2869 14.7432
" />
<path d="M23.2869 14.7432
L23.3474 14.6827
" />
<path d="M23.3474 14.6827
L23.4079 14.5617
" />
<path d="M23.4079 14.5617
L23.4079 14.4408
" />
<path d="M23.4079 14.4408
L23.3474 14.3198
" />
<path d="M23.3474 14.3198
L23.2869 14.2593
" />
<path d="M23.2869 14.2593
L23.1660 14.1989
" />
<path d="M23.1660 14.1989
L22.9241 14.1384
" />
<path d="M22.9241 14.1384
L22.8031 14.0779
" />
<path d="M22.8031 14.0779
L22.7426 14.0174
" />
<path d="M22.7426 14.0174
L22.6822 13.8965
" />
<path d="M22.6822 13.8965
L22.6822 13.7755
" />
<path d="M22.6822 13.7755
L22.7426 13.6546
" />
<path d="M22.7426 13.6546
L22.8031 13.5941
" />
<path d="M22.8031 13.5941
L22.9241 13.5336
" />
<path d="M22.9241 13.5336
L23.2264 13.5336
" />
<path d="M23.2264 13.5336
L23.4079 13.5941
" />
<path d="M23.9521 14.8036
L23.9521 13.5336
" />
<path d="M23.9521 13.5336
L24.2545 13.5336
" />
<path d="M24.2545 13.5336
L24.4359 13.5941
" />
<path d="M24.4359 13.5941
L24.5569 13.7151
" />
<path d="M24.5569 13.7151
L24.6174 13.8360
" />
<path d="M24.6174 13.8360
L24.6778 14.0779
" />
<path d="M24.6778 14.0779
L24.6778 14.2593
" />
<path d="M24.6778 14.2593
L24.6174 14.5012
" />
<path d="M24.6174 14.5012
L24.5569 14.6222
" />
<path d="M24.5569 14.6222
L24.4359 14.7432
" />
<path d="M24.4359 14.7432
L24.2545 14.8036
" />
<path d="M24.2545 14.8036
L23.9521 14.8036
" />
<path d="M25.1617 14.4408
L25.7664 14.4408
" />
<path d="M25.0407 14.8036
L25.4640 13.5336
" />
<path d="M25.4640 13.5336
L25.8874 14.8036
" />
<path d="M26.5526 13.5336
L26.6736 13.5336
" />
<path d="M26.6736 13.5336
L26.7945 13.5941
" />
<path d="M26.7945 13.5941
L26.8550 13.6546
" />
<path d="M26.8550 13.6546
L26.9155 13.7755
" />
<path d="M26.9155 13.7755
L26.9760 14.0174
" />
<path d="M26.9760 14.0174
L26.9760 14.3198
" />
<path d="M26.9760 14.3198
L26.9155 14.5617
" />
<path d="M26.9155 14.5617
L26.8550 14.6827
" />
<path d="M26.8550 14.6827
L26.7945 14.7432
" />
<path d="M26.7945 14.7432
L26.6736 14.8036
" />
<path d="M26.6736 14.8036
L26.5526 14.8036
" />
<path d="M26.5526 14.8036
L26.4317 14.7432
" />
<path d="M26.4317 14.7432
L26.3712 14.6827
" />
<path d="M26.3712 14.6827
L26.3107 14.5617
" />
<path d="M26.3107 14.5617
L26.2503 14.3198
" />
<path d="M26.2503 14.3198
L26.2503 14.0174
" />
<path d="M26.2503 14.0174
L26.3107 13.7755
" />
<path d="M26.3107 13.7755
L26.3712 13.6546
" />
<path d="M26.3712 13.6546
L26.4317 13.5941
" />
<path d="M26.4317 13.5941
L26.5526 13.5336
" />
</g></g>
<g style="fill:#A90000; fill-opacity:0.0; 
stroke:#A90000; stroke-width:0.1524; stroke-opacity:1; 
stroke-linecap:round; stroke-linejoin:round;">
<text x="19.4191" y="13.9701"
textLength="1.4127" font-size="1.6933" lengthAdjust="spacingAndGlyphs"
text-anchor="middle" opacity="0">2</text>
<g class="stroked-text"><desc>2</desc>
<path d="M19.0563 12.6576
L19.1167 12.5971
" />
<path d="M19.1167 12.5971
L19.2377 12.5366
" />
<path d="M19.2377 12.5366
L19.5401 12.5366
" />
<path d="M19.5401 12.5366
L19.6610 12.5971
" />
<path d="M19.6610 12.5971
L19.7215 12.6576
" />
<path d="M19.7215 12.6576
L19.7820 12.7785
" />
<path d="M19.7820 12.7785
L19.7820 12.8995
" />
<path d="M19.7820 12.8995
L19.7215 13.0809
" />
<path d="M19.7215 13.0809
L18.9958 13.8066
" />
<path d="M18.9958 13.8066
L19.7820 13.8066
" />
</g></g>
<g style="fill:#840000; fill-opacity:0.0; 
stroke:#840000; stroke-width:0.1524; stroke-opacity:1; 
stroke-linecap:round; stroke-linejoin:round;">
<path d="M21.3241 21.8441
L17.5141 21.8441
" />
</g>
<g style="fill:#006464; fill-opacity:0.0; 
stroke:#006464; stroke-width:0.1524; stroke-opacity:1; 
stroke-linecap:round; stroke-linejoin:round;">
<text x="22.3401" y="22.4791"
textLength="4.9203" font-size="1.6933" lengthAdjust="spacingAndGlyphs"
text-anchor="start" opacity="0">SCL1</text>
<g class="stroked-text"><desc>SCL1</desc>
<path d="M22.6822 22.3632
L22.8636 22.4236
" />
<path d="M22.8636 22.4236
L23.1660 22.4236
" />
<path d="M23.1660 22.4236
L23.2869 22.3632
" />
<path d="M23.2869 22.3632
L23.3474 22.3027
" />
<path d="M23.3474 22.3027
L23.4079 22.1817
" />
<path d="M23.4079 22.1817
L23.4079 22.0608
" />
<path d="M23.4079 22.0608
L23.3474 21.9398
" />
<path d="M23.3474 21.9398
L23.2869 21.8793
" />
<path d="M23.2869 21.8793
L23.1660 21.8189
" />
<path d="M23.1660 21.8189
L22.9241 21.7584
" />
<path d="M22.9241 21.7584
L22.8031 21.6979
" />
<path d="M22.8031 21.6979
L22.7426 21.6374
" />
<path d="M22.7426 21.6374
L22.6822 21.5165
" />
<path d="M22.6822 21.5165
L22.6822 21.3955
" />
<path d="M22.6822 21.3955
L22.7426 21.2746
" />
<path d="M22.7426 21.2746
L22.8031 21.2141
" />
<path d="M22.8031 21.2141
L22.9241 21.1536
" />
<path d="M22.9241 21.1536
L23.2264 21.1536
" />
<path d="M23.2264 21.1536
L23.4079 21.2141
" />
<path d="M24.6778 22.3027
L24.6174 22.3632
" />
<path d="M24.6174 22.3632
L24.4359 22.4236
" />
<path d="M24.4359 22.4236
L24.3150 22.4236
" />
<path d="M24.3150 22.4236
L24.1336 22.3632
" />
<path d="M24.1336 22.3632
L24.0126 22.2422
" />
<path d="M24.0126 22.2422
L23.9521 22.1212
" />
<path d="M23.9521 22.1212
L23.8917 21.8793
" />
<path d="M23.8917 21.8793
L23.8917 21.6979
" />
<path d="M23.8917 21.6979
L23.9521 21.4560
" />
<path d="M23.9521 21.4560
L24.0126 21.3351
" />
<path d="M24.0126 21.3351
L24.1336 21.2141
" />
<path d="M24.1336 21.2141
L24.3150 21.1536
" />
<path d="M24.3150 21.1536
L24.4359 21.1536
" />
<path d="M24.4359 21.1536
L24.6174 21.2141
" />
<path d="M24.6174 21.2141
L24.6778 21.2746
" />
<path d="M25.8269 22.4236
L25.2221 22.4236
" />
<path d="M25.2221 22.4236
L25.2221 21.1536
" />
<path d="M26.9155 22.4236
L26.1898 22.4236
" />
<path d="M26.5526 22.4236
L26.5526 21.1536
" />
<path d="M26.5526 21.1536
L26.4317 21.3351
" />
<path d="M26.4317 21.3351
L26.3107 21.4560
" />
<path d="M26.3107 21.4560
L26.1898 21.5165
" />
</g></g>
<g style="fill:#A90000; fill-opacity:0.0; 
stroke:#A90000; stroke-width:0.1524; stroke-opacity:1; 
stroke-linecap:round; stroke-linejoin:round;">
<text x="19.4191" y="21.5901"
textLength="1.4127" font-size="1.6933" lengthAdjust="spacingAndGlyphs"
text-anchor="middle" opacity="0">3</text>
<g class="stroked-text"><desc>3</desc>
<path d="M18.9958 20.1566
L19.7820 20.1566
" />
<path d="M19.7820 20.1566
L19.3586 20.6404
" />
<path d="M19.3586 20.6404
L19.5401 20.6404
" />
<path d="M19.5401 20.6404
L19.6610 20.7009
" />
<path d="M19.6610 20.7009
L19.7215 20.7614
" />
<path d="M19.7215 20.7614
L19.7820 20.8823
" />
<path d="M19.7820 20.8823
L19.7820 21.1847
" />
<path d="M19.7820 21.1847
L19.7215 21.3057
" />
<path d="M19.7215 21.3057
L19.6610 21.3662
" />
<path d="M19.6610 21.3662
L19.5401 21.4266
" />
<path d="M19.5401 21.4266
L19.1772 21.4266
" />
<path d="M19.1772 21.4266
L19.0563 21.3662
" />
<path d="M19.0563 21.3662
L18.9958 21.3057
" />
</g></g>
<g style="fill:#840000; fill-opacity:0.0; 
stroke:#840000; stroke-width:0.1524; stroke-opacity:1; 
stroke-linecap:round; stroke-linejoin:round;">
<path d="M21.3241 24.3841
L17.5141 24.3841
" />
</g>
<g style="fill:#006464; fill-opacity:0.0; 
stroke:#006464; stroke-width:0.1524; stroke-opacity:1; 
stroke-linecap:round; stroke-linejoin:round;">
<text x="22.3401" y="25.0191"
textLength="4.9808" font-size="1.6933" lengthAdjust="spacingAndGlyphs"
text-anchor="start" opacity="0">SDA1</text>
<g class="stroked-text"><desc>SDA1</desc>
<path d="M22.6822 24.9032
L22.8636 24.9636
" />
<path d="M22.8636 24.9636
L23.1660 24.9636
" />
<path d="M23.1660 24.9636
L23.2869 24.9032
" />
<path d="M23.2869 24.9032
L23.3474 24.8427
" />
<path d="M23.3474 24.8427
L23.4079 24.7217
" />
<path d="M23.4079 24.7217
L23.4079 24.6008
" />
<path d="M23.4079 24.6008
L23.3474 24.4798
" />
<path d="M23.3474 24.4798
L23.2869 24.4193
" />
<path d="M23.2869 24.4193
L23.1660 24.3589
" />
<path d="M23.1660 24.3589
L22.9241 24.2984
" />
<path d="M22.9241 24.2984
L22.8031 24.2379
" />
<path d="M22.8031 24.2379
L22.7426 24.1774
" />
<path d="M22.7426 24.1774
L22.6822 24.0565
" />
<path d="M22.6822 24.0565
L22.6822 23.9355
" />
<path d="M22.6822 23.9355
L22.7426 23.8146
" />
<path d="M22.7426 23.8146
L22.8031 23.7541
" />
<path d="M22.8031 23.7541
L22.9241 23.6936
" />
<path d="M22.9241 23.6936
L23.2264 23.6936
" />
<path d="M23.2264 23.6936
L23.4079 23.7541
" />
<path d="M23.9521 24.9636
L23.9521 23.6936
" />
<path d="M23.9521 23.6936
L24.2545 23.6936
" />
<path d="M24.2545 23.6936
L24.4359 23.7541
" />
<path d="M24.4359 23.7541
L24.5569 23.8751
" />
<path d="M24.5569 23.8751
L24.6174 23.9960
" />
<path d="M24.6174 23.9960
L24.6778 24.2379
" />
<path d="M24.6778 24.2379
L24.6778 24.4193
" />
<path d="M24.6778 24.4193
L24.6174 24.6612
" />
<path d="M24.6174 24.6612
L24.5569 24.7822
" />
<path d="M24.5569 24.7822
L24.4359 24.9032
" />
<path d="M24.4359 24.9032
L24.2545 24.9636
" />
<path d="M24.2545 24.9636
L23.9521 24.9636
" />
<path d="M25.1617 24.6008
L25.7664 24.6008
" />
<path d="M25.0407 24.9636
L25.4640 23.6936
" />
<path d="M25.4640 23.6936
L25.8874 24.9636
" />
<path d="M26.9760 24.9636
L26.2503 24.9636
" />
<path d="M26.6131 24.9636
L26.6131 23.6936
" />
<path d="M26.6131 23.6936
L26.4922 23.8751
" />
<path d="M26.4922 23.8751
L26.3712 23.9960
" />
<path d="M26.3712 23.9960
L26.2503 24.0565
" />
</g></g>
<g style="fill:#A90000; fill-opacity:0.0; 
stroke:#A90000; stroke-width:0.1524; stroke-opacity:1; 
stroke-linecap:round; stroke-linejoin:round;">
<text x="19.4191" y="24.1301"
textLength="1.4127" font-size="1.6933" lengthAdjust="spacingAndGlyphs"
text-anchor="middle" opacity="0">4</text>
<g class="stroked-text"><desc>4</desc>
<path d="M19.6610 23.1200
L19.6610 23.9666
" />
<path d="M19.3586 22.6362
L19.0563 23.5433
" />
<path d="M19.0563 23.5433
L19.8424 23.5433
" />
</g></g>
<g style="fill:#840000; fill-opacity:0.0; 
stroke:#840000; stroke-width:0.1524; stroke-opacity:1; 
stroke-linecap:round; stroke-linejoin:round;">
<path d="M21.3241 29.4641
L17.5141 29.4641
" />
</g>
<g style="fill:#006464; fill-opacity:0.0; 
stroke:#006464; stroke-width:0.1524; stroke-opacity:1; 
stroke-linecap:round; stroke-linejoin:round;">
<text x="22.3401" y="30.0991"
textLength="3.8922" font-size="1.6933" lengthAdjust="spacingAndGlyphs"
text-anchor="start" opacity="0">EN1</text>
<g class="stroked-text"><desc>EN1</desc>
<path d="M22.7426 29.3784
L23.1660 29.3784
" />
<path d="M23.3474 30.0436
L22.7426 30.0436
" />
<path d="M22.7426 30.0436
L22.7426 28.7736
" />
<path d="M22.7426 28.7736
L23.3474 28.7736
" />
<path d="M23.8916 30.0436
L23.8916 28.7736
" />
<path d="M23.8916 28.7736
L24.6173 30.0436
" />
<path d="M24.6173 30.0436
L24.6173 28.7736
" />
<path d="M25.8874 30.0436
L25.1617 30.0436
" />
<path d="M25.5245 30.0436
L25.5245 28.7736
" />
<path d="M25.5245 28.7736
L25.4036 28.9551
" />
<path d="M25.4036 28.9551
L25.2826 29.0760
" />
<path d="M25.2826 29.0760
L25.1617 29.1365
" />
</g></g>
<g style="fill:#A90000; fill-opacity:0.0; 
stroke:#A90000; stroke-width:0.1524; stroke-opacity:1; 
stroke-linecap:round; stroke-linejoin:round;">
<text x="19.4191" y="29.2101"
textLength="1.4127" font-size="1.6933" lengthAdjust="spacingAndGlyphs"
text-anchor="middle" opacity="0">5</text>
<g class="stroked-text"><desc>5</desc>
<path d="M19.7215 27.7766
L19.1167 27.7766
" />
<path d="M19.1167 27.7766
L19.0563 28.3814
" />
<path d="M19.0563 28.3814
L19.1167 28.3209
" />
<path d="M19.1167 28.3209
L19.2377 28.2604
" />
<path d="M19.2377 28.2604
L19.5401 28.2604
" />
<path d="M19.5401 28.2604
L19.6610 28.3209
" />
<path d="M19.6610 28.3209
L19.7215 28.3814
" />
<path d="M19.7215 28.3814
L19.7820 28.5023
" />
<path d="M19.7820 28.5023
L19.7820 28.8047
" />
<path d="M19.7820 28.8047
L19.7215 28.9257
" />
<path d="M19.7215 28.9257
L19.6610 28.9862
" />
<path d="M19.6610 28.9862
L19.5401 29.0466
" />
<path d="M19.5401 29.0466
L19.2377 29.0466
" />
<path d="M19.2377 29.0466
L19.1167 28.9862
" />
<path d="M19.1167 28.9862
L19.0563 28.9257
" />
</g></g>
<g style="fill:#840000; fill-opacity:0.0; 
stroke:#840000; stroke-width:0.1524; stroke-opacity:1; 
stroke-linecap:round; stroke-linejoin:round;">
<path d="M44.1841 11.6841
L47.9941 11.6841
" />
</g>
<g style="fill:#006464; fill-opacity:0.0; 
stroke:#006464; stroke-width:0.1524; stroke-opacity:1; 
stroke-linecap:round; stroke-linejoin:round;">
<text x="43.1681" y="12.3191"
textLength="4.9203" font-size="1.6933" lengthAdjust="spacingAndGlyphs"
text-anchor="end" opacity="0">SCL2</text>
<g class="stroked-text"><desc>SCL2</desc>
<path d="M38.5927 12.2032
L38.7741 12.2636
" />
<path d="M38.7741 12.2636
L39.0765 12.2636
" />
<path d="M39.0765 12.2636
L39.1974 12.2032
" />
<path d="M39.1974 12.2032
L39.2579 12.1427
" />
<path d="M39.2579 12.1427
L39.3184 12.0217
" />
<path d="M39.3184 12.0217
L39.3184 11.9008
" />
<path d="M39.3184 11.9008
L39.2579 11.7798
" />
<path d="M39.2579 11.7798
L39.1974 11.7193
" />
<path d="M39.1974 11.7193
L39.0765 11.6589
" />
<path d="M39.0765 11.6589
L38.8346 11.5984
" />
<path d="M38.8346 11.5984
L38.7136 11.5379
" />
<path d="M38.7136 11.5379
L38.6531 11.4774
" />
<path d="M38.6531 11.4774
L38.5927 11.3565
" />
<path d="M38.5927 11.3565
L38.5927 11.2355
" />
<path d="M38.5927 11.2355
L38.6531 11.1146
" />
<path d="M38.6531 11.1146
L38.7136 11.0541
" />
<path d="M38.7136 11.0541
L38.8346 10.9936
" />
<path d="M38.8346 10.9936
L39.1369 10.9936
" />
<path d="M39.1369 10.9936
L39.3184 11.0541
" />
<path d="M40.5883 12.1427
L40.5279 12.2032
" />
<path d="M40.5279 12.2032
L40.3464 12.2636
" />
<path d="M40.3464 12.2636
L40.2255 12.2636
" />
<path d="M40.2255 12.2636
L40.0441 12.2032
" />
<path d="M40.0441 12.2032
L39.9231 12.0822
" />
<path d="M39.9231 12.0822
L39.8626 11.9612
" />
<path d="M39.8626 11.9612
L39.8022 11.7193
" />
<path d="M39.8022 11.7193
L39.8022 11.5379
" />
<path d="M39.8022 11.5379
L39.8626 11.2960
" />
<path d="M39.8626 11.2960
L39.9231 11.1751
" />
<path d="M39.9231 11.1751
L40.0441 11.0541
" />
<path d="M40.0441 11.0541
L40.2255 10.9936
" />
<path d="M40.2255 10.9936
L40.3464 10.9936
" />
<path d="M40.3464 10.9936
L40.5279 11.0541
" />
<path d="M40.5279 11.0541
L40.5883 11.1146
" />
<path d="M41.7374 12.2636
L41.1326 12.2636
" />
<path d="M41.1326 12.2636
L41.1326 10.9936
" />
<path d="M42.1003 11.1146
L42.1607 11.0541
" />
<path d="M42.1607 11.0541
L42.2817 10.9936
" />
<path d="M42.2817 10.9936
L42.5841 10.9936
" />
<path d="M42.5841 10.9936
L42.7050 11.0541
" />
<path d="M42.7050 11.0541
L42.7655 11.1146
" />
<path d="M42.7655 11.1146
L42.8260 11.2355
" />
<path d="M42.8260 11.2355
L42.8260 11.3565
" />
<path d="M42.8260 11.3565
L42.7655 11.5379
" />
<path d="M42.7655 11.5379
L42.0398 12.2636
" />
<path d="M42.0398 12.2636
L42.8260 12.2636
" />
</g></g>
<g style="fill:#A90000; fill-opacity:0.0; 
stroke:#A90000; stroke-width:0.1524; stroke-opacity:1; 
stroke-linecap:round; stroke-linejoin:round;">
<text x="46.0891" y="11.4301"
textLength="1.4127" font-size="1.6933" lengthAdjust="spacingAndGlyphs"
text-anchor="middle" opacity="0">6</text>
<g class="stroked-text"><desc>6</desc>
<path d="M46.3310 9.9966
L46.0891 9.9966
" />
<path d="M46.0891 9.9966
L45.9682 10.0571
" />
<path d="M45.9682 10.0571
L45.9077 10.1176
" />
<path d="M45.9077 10.1176
L45.7867 10.2990
" />
<path d="M45.7867 10.2990
L45.7263 10.5409
" />
<path d="M45.7263 10.5409
L45.7263 11.0247
" />
<path d="M45.7263 11.0247
L45.7867 11.1457
" />
<path d="M45.7867 11.1457
L45.8472 11.2062
" />
<path d="M45.8472 11.2062
L45.9682 11.2666
" />
<path d="M45.9682 11.2666
L46.2101 11.2666
" />
<path d="M46.2101 11.2666
L46.3310 11.2062
" />
<path d="M46.3310 11.2062
L46.3915 11.1457
" />
<path d="M46.3915 11.1457
L46.4520 11.0247
" />
<path d="M46.4520 11.0247
L46.4520 10.7223
" />
<path d="M46.4520 10.7223
L46.3915 10.6014
" />
<path d="M46.3915 10.6014
L46.3310 10.5409
" />
<path d="M46.3310 10.5409
L46.2101 10.4804
" />
<path d="M46.2101 10.4804
L45.9682 10.4804
" />
<path d="M45.9682 10.4804
L45.8472 10.5409
" />
<path d="M45.8472 10.5409
L45.7867 10.6014
" />
<path d="M45.7867 10.6014
L45.7263 10.7223
" />
</g></g>
<g style="fill:#840000; fill-opacity:0.0; 
stroke:#840000; stroke-width:0.1524; stroke-opacity:1; 
stroke-linecap:round; stroke-linejoin:round;">
<path d="M44.1841 14.2241
L47.9941 14.2241
" />
</g>
<g style="fill:#006464; fill-opacity:0.0; 
stroke:#006464; stroke-width:0.1524; stroke-opacity:1; 
stroke-linecap:round; stroke-linejoin:round;">
<text x="43.1681" y="14.8591"
textLength="4.9808" font-size="1.6933" lengthAdjust="spacingAndGlyphs"
text-anchor="end" opacity="0">SDA2</text>
<g class="stroked-text"><desc>SDA2</desc>
<path d="M38.5322 14.7432
L38.7136 14.8036
" />
<path d="M38.7136 14.8036
L39.0160 14.8036
" />
<path d="M39.0160 14.8036
L39.1369 14.7432
" />
<path d="M39.1369 14.7432
L39.1974 14.6827
" />
<path d="M39.1974 14.6827
L39.2579 14.5617
" />
<path d="M39.2579 14.5617
L39.2579 14.4408
" />
<path d="M39.2579 14.4408
L39.1974 14.3198
" />
<path d="M39.1974 14.3198
L39.1369 14.2593
" />
<path d="M39.1369 14.2593
L39.0160 14.1989
" />
<path d="M39.0160 14.1989
L38.7741 14.1384
" />
<path d="M38.7741 14.1384
L38.6531 14.0779
" />
<path d="M38.6531 14.0779
L38.5926 14.0174
" />
<path d="M38.5926 14.0174
L38.5322 13.8965
" />
<path d="M38.5322 13.8965
L38.5322 13.7755
" />
<path d="M38.5322 13.7755
L38.5926 13.6546
" />
<path d="M38.5926 13.6546
L38.6531 13.5941
" />
<path d="M38.6531 13.5941
L38.7741 13.5336
" />
<path d="M38.7741 13.5336
L39.0764 13.5336
" />
<path d="M39.0764 13.5336
L39.2579 13.5941
" />
<path d="M39.8021 14.8036
L39.8021 13.5336
" />
<path d="M39.8021 13.5336
L40.1045 13.5336
" />
<path d="M40.1045 13.5336
L40.2859 13.5941
" />
<path d="M40.2859 13.5941
L40.4069 13.7151
" />
<path d="M40.4069 13.7151
L40.4674 13.8360
" />
<path d="M40.4674 13.8360
L40.5278 14.0779
" />
<path d="M40.5278 14.0779
L40.5278 14.2593
" />
<path d="M40.5278 14.2593
L40.4674 14.5012
" />
<path d="M40.4674 14.5012
L40.4069 14.6222
" />
<path d="M40.4069 14.6222
L40.2859 14.7432
" />
<path d="M40.2859 14.7432
L40.1045 14.8036
" />
<path d="M40.1045 14.8036
L39.8021 14.8036
" />
<path d="M41.0117 14.4408
L41.6164 14.4408
" />
<path d="M40.8907 14.8036
L41.3140 13.5336
" />
<path d="M41.3140 13.5336
L41.7374 14.8036
" />
<path d="M42.1003 13.6546
L42.1607 13.5941
" />
<path d="M42.1607 13.5941
L42.2817 13.5336
" />
<path d="M42.2817 13.5336
L42.5841 13.5336
" />
<path d="M42.5841 13.5336
L42.7050 13.5941
" />
<path d="M42.7050 13.5941
L42.7655 13.6546
" />
<path d="M42.7655 13.6546
L42.8260 13.7755
" />
<path d="M42.8260 13.7755
L42.8260 13.8965
" />
<path d="M42.8260 13.8965
L42.7655 14.0779
" />
<path d="M42.7655 14.0779
L42.0398 14.8036
" />
<path d="M42.0398 14.8036
L42.8260 14.8036
" />
</g></g>
<g style="fill:#A90000; fill-opacity:0.0; 
stroke:#A90000; stroke-width:0.1524; stroke-opacity:1; 
stroke-linecap:round; stroke-linejoin:round;">
<text x="46.0891" y="13.9701"
textLength="1.4127" font-size="1.6933" lengthAdjust="spacingAndGlyphs"
text-anchor="middle" opacity="0">7</text>
<g class="stroked-text"><desc>7</desc>
<path d="M45.6658 12.5366
L46.5124 12.5366
" />
<path d="M46.5124 12.5366
L45.9682 13.8066
" />
</g></g>
<g style="fill:#840000; fill-opacity:0.0; 
stroke:#840000; stroke-width:0.1524; stroke-opacity:1; 
stroke-linecap:round; stroke-linejoin:round;">
<path d="M32.7541 40.8941
L32.7541 44.7041
" />
</g>
<g style="fill:#006464; fill-opacity:0.0; 
stroke:#006464; stroke-width:0.1524; stroke-opacity:1; 
stroke-linecap:round; stroke-linejoin:round;">
<g transform="rotate(-90.000000 32.7541 39.8781)">
<text x="32.7541" y="40.5131"
textLength="4.0737" font-size="1.6933" lengthAdjust="spacingAndGlyphs"
text-anchor="start" opacity="0">GND</text>
</g>
<g class="stroked-text"><desc>GND</desc>
<path d="M32.1241 38.8102
L32.0636 38.9312
" />
<path d="M32.0636 38.9312
L32.0636 39.1126
" />
<path d="M32.0636 39.1126
L32.1241 39.2940
" />
<path d="M32.1241 39.2940
L32.2451 39.4150
" />
<path d="M32.2451 39.4150
L32.3660 39.4755
" />
<path d="M32.3660 39.4755
L32.6079 39.5359
" />
<path d="M32.6079 39.5359
L32.7893 39.5359
" />
<path d="M32.7893 39.5359
L33.0312 39.4755
" />
<path d="M33.0312 39.4755
L33.1522 39.4150
" />
<path d="M33.1522 39.4150
L33.2732 39.2940
" />
<path d="M33.2732 39.2940
L33.3336 39.1126
" />
<path d="M33.3336 39.1126
L33.3336 38.9917
" />
<path d="M33.3336 38.9917
L33.2732 38.8102
" />
<path d="M33.2732 38.8102
L33.2127 38.7498
" />
<path d="M33.2127 38.7498
L32.7893 38.7498
" />
<path d="M32.7893 38.7498
L32.7893 38.9917
" />
<path d="M33.3336 38.2055
L32.0636 38.2055
" />
<path d="M32.0636 38.2055
L33.3336 37.4798
" />
<path d="M33.3336 37.4798
L32.0636 37.4798
" />
<path d="M33.3336 36.8750
L32.0636 36.8750
" />
<path d="M32.0636 36.8750
L32.0636 36.5726
" />
<path d="M32.0636 36.5726
L32.1241 36.3912
" />
<path d="M32.1241 36.3912
L32.2451 36.2702
" />
<path d="M32.2451 36.2702
L32.3660 36.2097
" />
<path d="M32.3660 36.2097
L32.6079 36.1493
" />
<path d="M32.6079 36.1493
L32.7893 36.1493
" />
<path d="M32.7893 36.1493
L33.0312 36.2097
" />
<path d="M33.0312 36.2097
L33.1522 36.2702
" />
<path d="M33.1522 36.2702
L33.2732 36.3912
" />
<path d="M33.2732 36.3912
L33.3336 36.5726
" />
<path d="M33.3336 36.5726
L33.3336 36.8750
" />
</g></g>
<g style="fill:#A90000; fill-opacity:0.0; 
stroke:#A90000; stroke-width:0.1524; stroke-opacity:1; 
stroke-linecap:round; stroke-linejoin:round;">
<g transform="rotate(-90.000000 32.5001 42.7991)">
<text x="32.5001" y="42.7991"
textLength="1.4127" font-size="1.6933" lengthAdjust="spacingAndGlyphs"
text-anchor="middle" opacity="0">8</text>
</g>
<g class="stroked-text"><desc>8</desc>
<path d="M31.6109 42.9199
L31.5504 43.0409
" />
<path d="M31.5504 43.0409
L31.4900 43.1014
" />
<path d="M31.4900 43.1014
L31.3690 43.1618
" />
<path d="M31.3690 43.1618
L31.3085 43.1618
" />
<path d="M31.3085 43.1618
L31.1876 43.1014
" />
<path d="M31.1876 43.1014
L31.1271 43.0409
" />
<path d="M31.1271 43.0409
L31.0666 42.9199
" />
<path d="M31.0666 42.9199
L31.0666 42.6780
" />
<path d="M31.0666 42.6780
L31.1271 42.5571
" />
<path d="M31.1271 42.5571
L31.1876 42.4966
" />
<path d="M31.1876 42.4966
L31.3085 42.4361
" />
<path d="M31.3085 42.4361
L31.3690 42.4361
" />
<path d="M31.3690 42.4361
L31.4900 42.4966
" />
<path d="M31.4900 42.4966
L31.5504 42.5571
" />
<path d="M31.5504 42.5571
L31.6109 42.6780
" />
<path d="M31.6109 42.6780
L31.6109 42.9199
" />
<path d="M31.6109 42.9199
L31.6714 43.0409
" />
<path d="M31.6714 43.0409
L31.7319 43.1014
" />
<path d="M31.7319 43.1014
L31.8528 43.1618
" />
<path d="M31.8528 43.1618
L32.0947 43.1618
" />
<path d="M32.0947 43.1618
L32.2157 43.1014
" />
<path d="M32.2157 43.1014
L32.2762 43.0409
" />
<path d="M32.2762 43.0409
L32.3366 42.9199
" />
<path d="M32.3366 42.9199
L32.3366 42.6780
" />
<path d="M32.3366 42.6780
L32.2762 42.5571
" />
<path d="M32.2762 42.5571
L32.2157 42.4966
" />
<path d="M32.2157 42.4966
L32.0947 42.4361
" />
<path d="M32.0947 42.4361
L31.8528 42.4361
" />
<path d="M31.8528 42.4361
L31.7319 42.4966
" />
<path d="M31.7319 42.4966
L31.6714 42.5571
" />
<path d="M31.6714 42.5571
L31.6109 42.6780
" />
</g></g>
<g style="fill:#840000; fill-opacity:0.0; 
stroke:#840000; stroke-width:0.1524; stroke-opacity:1; 
stroke-linecap:round; stroke-linejoin:round;">
<path d="M21.3241 32.0041
L17.5141 32.0041
" />
</g>
<g style="fill:#006464; fill-opacity:0.0; 
stroke:#006464; stroke-width:0.1524; stroke-opacity:1; 
stroke-linecap:round; stroke-linejoin:round;">
<text x="22.3401" y="32.6391"
textLength="3.8922" font-size="1.6933" lengthAdjust="spacingAndGlyphs"
text-anchor="start" opacity="0">EN2</text>
<g class="stroked-text"><desc>EN2</desc>
<path d="M22.7426 31.9184
L23.1660 31.9184
" />
<path d="M23.3474 32.5836
L22.7426 32.5836
" />
<path d="M22.7426 32.5836
L22.7426 31.3136
" />
<path d="M22.7426 31.3136
L23.3474 31.3136
" />
<path d="M23.8916 32.5836
L23.8916 31.3136
" />
<path d="M23.8916 31.3136
L24.6173 32.5836
" />
<path d="M24.6173 32.5836
L24.6173 31.3136
" />
<path d="M25.1617 31.4346
L25.2221 31.3741
" />
<path d="M25.2221 31.3741
L25.3431 31.3136
" />
<path d="M25.3431 31.3136
L25.6455 31.3136
" />
<path d="M25.6455 31.3136
L25.7664 31.3741
" />
<path d="M25.7664 31.3741
L25.8269 31.4346
" />
<path d="M25.8269 31.4346
L25.8874 31.5555
" />
<path d="M25.8874 31.5555
L25.8874 31.6765
" />
<path d="M25.8874 31.6765
L25.8269 31.8579
" />
<path d="M25.8269 31.8579
L25.1012 32.5836
" />
<path d="M25.1012 32.5836
L25.8874 32.5836
" />
</g></g>
<g style="fill:#A90000; fill-opacity:0.0; 
stroke:#A90000; stroke-width:0.1524; stroke-opacity:1; 
stroke-linecap:round; stroke-linejoin:round;">
<text x="19.4191" y="31.7501"
textLength="1.4127" font-size="1.6933" lengthAdjust="spacingAndGlyphs"
text-anchor="middle" opacity="0">9</text>
<g class="stroked-text"><desc>9</desc>
<path d="M19.1772 31.5866
L19.4191 31.5866
" />
<path d="M19.4191 31.5866
L19.5401 31.5262
" />
<path d="M19.5401 31.5262
L19.6005 31.4657
" />
<path d="M19.6005 31.4657
L19.7215 31.2842
" />
<path d="M19.7215 31.2842
L19.7820 31.0423
" />
<path d="M19.7820 31.0423
L19.7820 30.5585
" />
<path d="M19.7820 30.5585
L19.7215 30.4376
" />
<path d="M19.7215 30.4376
L19.6610 30.3771
" />
<path d="M19.6610 30.3771
L19.5401 30.3166
" />
<path d="M19.5401 30.3166
L19.2982 30.3166
" />
<path d="M19.2982 30.3166
L19.1772 30.3771
" />
<path d="M19.1772 30.3771
L19.1167 30.4376
" />
<path d="M19.1167 30.4376
L19.0563 30.5585
" />
<path d="M19.0563 30.5585
L19.0563 30.8609
" />
<path d="M19.0563 30.8609
L19.1167 30.9819
" />
<path d="M19.1167 30.9819
L19.1772 31.0423
" />
<path d="M19.1772 31.0423
L19.2982 31.1028
" />
<path d="M19.2982 31.1028
L19.5401 31.1028
" />
<path d="M19.5401 31.1028
L19.6610 31.0423
" />
<path d="M19.6610 31.0423
L19.7215 30.9819
" />
<path d="M19.7215 30.9819
L19.7820 30.8609
" />
</g></g>
<g style="fill:#840084; fill-opacity:0.0; 
stroke:#840084; stroke-width:0.1524; stroke-opacity:1; 
stroke-linecap:round; stroke-linejoin:round;">
</g>
<g style="fill:#006464; fill-opacity:0.0; 
stroke:#006464; stroke-width:0.1524; stroke-opacity:1; 
stroke-linecap:round; stroke-linejoin:round;">
</g>
<g style="fill:#006464; fill-opacity:0.0; 
stroke:#006464; stroke-width:0.1588; stroke-opacity:1; 
stroke-linecap:round; stroke-linejoin:round;">
<text x="22.6448" y="7.2391"
textLength="2.6415" font-size="1.6933" lengthAdjust="spacingAndGlyphs"
text-anchor="middle" opacity="0">U?</text>
<g class="stroked-text"><desc>U?</desc>
<path d="M21.7376 5.9133
L21.7376 6.9414
" />
<path d="M21.7376 6.9414
L21.7981 7.0624
" />
<path d="M21.7981 7.0624
L21.8586 7.1229
" />
<path d="M21.8586 7.1229
L21.9795 7.1833
" />
<path d="M21.9795 7.1833
L22.2214 7.1833
" />
<path d="M22.2214 7.1833
L22.3424 7.1229
" />
<path d="M22.3424 7.1229
L22.4029 7.0624
" />
<path d="M22.4029 7.0624
L22.4633 6.9414
" />
<path d="M22.4633 6.9414
L22.4633 5.9133
" />
<path d="M23.2496 7.0624
L23.3100 7.1229
" />
<path d="M23.3100 7.1229
L23.2496 7.1833
" />
<path d="M23.2496 7.1833
L23.1891 7.1229
" />
<path d="M23.1891 7.1229
L23.2496 7.0624
" />
<path d="M23.2496 7.0624
L23.2496 7.1833
" />
<path d="M23.0077 5.9738
L23.1286 5.9133
" />
<path d="M23.1286 5.9133
L23.4310 5.9133
" />
<path d="M23.4310 5.9133
L23.5519 5.9738
" />
<path d="M23.5519 5.9738
L23.6124 6.0948
" />
<path d="M23.6124 6.0948
L23.6124 6.2157
" />
<path d="M23.6124 6.2157
L23.5519 6.3367
" />
<path d="M23.5519 6.3367
L23.4915 6.3971
" />
<path d="M23.4915 6.3971
L23.3705 6.4576
" />
<path d="M23.3705 6.4576
L23.3100 6.5181
" />
<path d="M23.3100 6.5181
L23.2496 6.6390
" />
<path d="M23.2496 6.6390
L23.2496 6.6995
" />
</g><text x="40.9086" y="7.2391"
textLength="8.6890" font-size="1.6933" lengthAdjust="spacingAndGlyphs"
text-anchor="middle" opacity="0">PCA9516</text>
<g class="stroked-text"><desc>PCA9516</desc>
<path d="M36.9776 7.1833
L36.9776 5.9133
" />
<path d="M36.9776 5.9133
L37.4614 5.9133
" />
<path d="M37.4614 5.9133
L37.5824 5.9738
" />
<path d="M37.5824 5.9738
L37.6429 6.0343
" />
<path d="M37.6429 6.0343
L37.7033 6.1552
" />
<path d="M37.7033 6.1552
L37.7033 6.3367
" />
<path d="M37.7033 6.3367
L37.6429 6.4576
" />
<path d="M37.6429 6.4576
L37.5824 6.5181
" />
<path d="M37.5824 6.5181
L37.4614 6.5786
" />
<path d="M37.4614 6.5786
L36.9776 6.5786
" />
<path d="M38.9733 7.0624
L38.9129 7.1229
" />
<path d="M38.9129 7.1229
L38.7314 7.1833
" />
<path d="M38.7314 7.1833
L38.6105 7.1833
" />
<path d="M38.6105 7.1833
L38.4291 7.1229
" />
<path d="M38.4291 7.1229
L38.3081 7.0019
" />
<path d="M38.3081 7.0019
L38.2476 6.8809
" />
<path d="M38.2476 6.8809
L38.1872 6.6390
" />
<path d="M38.1872 6.6390
L38.1872 6.4576
" />
<path d="M38.1872 6.4576
L38.2476 6.2157
" />
<path d="M38.2476 6.2157
L38.3081 6.0948
" />
<path d="M38.3081 6.0948
L38.4291 5.9738
" />
<path d="M38.4291 5.9738
L38.6105 5.9133
" />
<path d="M38.6105 5.9133
L38.7314 5.9133
" />
<path d="M38.7314 5.9133
L38.9129 5.9738
" />
<path d="M38.9129 5.9738
L38.9733 6.0343
" />
<path d="M39.4572 6.8205
L40.0619 6.8205
" />
<path d="M39.3362 7.1833
L39.7595 5.9133
" />
<path d="M39.7595 5.9133
L40.1829 7.1833
" />
<path d="M40.6667 7.1833
L40.9086 7.1833
" />
<path d="M40.9086 7.1833
L41.0296 7.1229
" />
<path d="M41.0296 7.1229
L41.0900 7.0624
" />
<path d="M41.0900 7.0624
L41.2110 6.8809
" />
<path d="M41.2110 6.8809
L41.2715 6.6390
" />
<path d="M41.2715 6.6390
L41.2715 6.1552
" />
<path d="M41.2715 6.1552
L41.2110 6.0343
" />
<path d="M41.2110 6.0343
L41.1505 5.9738
" />
<path d="M41.1505 5.9738
L41.0296 5.9133
" />
<path d="M41.0296 5.9133
L40.7877 5.9133
" />
<path d="M40.7877 5.9133
L40.6667 5.9738
" />
<path d="M40.6667 5.9738
L40.6062 6.0343
" />
<path d="M40.6062 6.0343
L40.5458 6.1552
" />
<path d="M40.5458 6.1552
L40.5458 6.4576
" />
<path d="M40.5458 6.4576
L40.6062 6.5786
" />
<path d="M40.6062 6.5786
L40.6667 6.6390
" />
<path d="M40.6667 6.6390
L40.7877 6.6995
" />
<path d="M40.7877 6.6995
L41.0296 6.6995
" />
<path d="M41.0296 6.6995
L41.1505 6.6390
" />
<path d="M41.1505 6.6390
L41.2110 6.5786
" />
<path d="M41.2110 6.5786
L41.2715 6.4576
" />
<path d="M42.4205 5.9133
L41.8157 5.9133
" />
<path d="M41.8157 5.9133
L41.7553 6.5181
" />
<path d="M41.7553 6.5181
L41.8157 6.4576
" />
<path d="M41.8157 6.4576
L41.9367 6.3971
" />
<path d="M41.9367 6.3971
L42.2391 6.3971
" />
<path d="M42.2391 6.3971
L42.3600 6.4576
" />
<path d="M42.3600 6.4576
L42.4205 6.5181
" />
<path d="M42.4205 6.5181
L42.4810 6.6390
" />
<path d="M42.4810 6.6390
L42.4810 6.9414
" />
<path d="M42.4810 6.9414
L42.4205 7.0624
" />
<path d="M42.4205 7.0624
L42.3600 7.1229
" />
<path d="M42.3600 7.1229
L42.2391 7.1833
" />
<path d="M42.2391 7.1833
L41.9367 7.1833
" />
<path d="M41.9367 7.1833
L41.8157 7.1229
" />
<path d="M41.8157 7.1229
L41.7553 7.0624
" />
<path d="M43.6905 7.1833
L42.9648 7.1833
" />
<path d="M43.3276 7.1833
L43.3276 5.9133
" />
<path d="M43.3276 5.9133
L43.2067 6.0948
" />
<path d="M43.2067 6.0948
L43.0857 6.2157
" />
<path d="M43.0857 6.2157
L42.9648 6.2762
" />
<path d="M44.7790 5.9133
L44.5371 5.9133
" />
<path d="M44.5371 5.9133
L44.4162 5.9738
" />
<path d="M44.4162 5.9738
L44.3557 6.0343
" />
<path d="M44.3557 6.0343
L44.2347 6.2157
" />
<path d="M44.2347 6.2157
L44.1743 6.4576
" />
<path d="M44.1743 6.4576
L44.1743 6.9414
" />
<path d="M44.1743 6.9414
L44.2347 7.0624
" />
<path d="M44.2347 7.0624
L44.2952 7.1229
" />
<path d="M44.2952 7.1229
L44.4162 7.1833
" />
<path d="M44.4162 7.1833
L44.6581 7.1833
" />
<path d="M44.6581 7.1833
L44.7790 7.1229
" />
<path d="M44.7790 7.1229
L44.8395 7.0624
" />
<path d="M44.8395 7.0624
L44.9000 6.9414
" />
<path d="M44.9000 6.9414
L44.9000 6.6390
" />
<path d="M44.9000 6.6390
L44.8395 6.5181
" />
<path d="M44.8395 6.5181
L44.7790 6.4576
" />
<path d="M44.7790 6.4576
L44.6581 6.3971
" />
<path d="M44.6581 6.3971
L44.4162 6.3971
" />
<path d="M44.4162 6.3971
L44.2952 6.4576
" />
<path d="M44.2952 6.4576
L44.2347 6.5181
" />
<path d="M44.2347 6.5181
L44.1743 6.6390
" />
</g></g>
<g style="fill:#840084; fill-opacity:0.0; 
stroke:#840084; stroke-width:0.1588; stroke-opacity:1; 
stroke-linecap:round; stroke-linejoin:round;">
<text x="32.7541" y="22.4791"
textLength="54.5902" font-size="1.6933" lengthAdjust="spacingAndGlyphs"
text-anchor="middle" opacity="0">http://www.nxp.com/docs/en/data-sheet/PCA9518.pdf</text>
<g class="stroked-text"><desc>http://www.nxp.com/docs/en/data-sheet/PCA9518.pdf</desc>
<path d="M5.8725 22.4233
L5.8725 21.1533
" />
<path d="M6.4168 22.4233
L6.4168 21.7581
" />
<path d="M6.4168 21.7581
L6.3563 21.6371
" />
<path d="M6.3563 21.6371
L6.2354 21.5767
" />
<path d="M6.2354 21.5767
L6.0540 21.5767
" />
<path d="M6.0540 21.5767
L5.9330 21.6371
" />
<path d="M5.9330 21.6371
L5.8725 21.6976
" />
<path d="M6.8401 21.5767
L7.3239 21.5767
" />
<path d="M7.0215 21.1533
L7.0215 22.2419
" />
<path d="M7.0215 22.2419
L7.0820 22.3629
" />
<path d="M7.0820 22.3629
L7.2030 22.4233
" />
<path d="M7.2030 22.4233
L7.3239 22.4233
" />
<path d="M7.5658 21.5767
L8.0496 21.5767
" />
<path d="M7.7472 21.1533
L7.7472 22.2419
" />
<path d="M7.7472 22.2419
L7.8077 22.3629
" />
<path d="M7.8077 22.3629
L7.9287 22.4233
" />
<path d="M7.9287 22.4233
L8.0496 22.4233
" />
<path d="M8.4729 21.5767
L8.4729 22.8467
" />
<path d="M8.4729 21.6371
L8.5939 21.5767
" />
<path d="M8.5939 21.5767
L8.8358 21.5767
" />
<path d="M8.8358 21.5767
L8.9567 21.6371
" />
<path d="M8.9567 21.6371
L9.0172 21.6976
" />
<path d="M9.0172 21.6976
L9.0777 21.8186
" />
<path d="M9.0777 21.8186
L9.0777 22.1814
" />
<path d="M9.0777 22.1814
L9.0172 22.3024
" />
<path d="M9.0172 22.3024
L8.9567 22.3629
" />
<path d="M8.9567 22.3629
L8.8358 22.4233
" />
<path d="M8.8358 22.4233
L8.5939 22.4233
" />
<path d="M8.5939 22.4233
L8.4729 22.3629
" />
<path d="M9.6219 22.3024
L9.6824 22.3629
" />
<path d="M9.6824 22.3629
L9.6219 22.4233
" />
<path d="M9.6219 22.4233
L9.5615 22.3629
" />
<path d="M9.5615 22.3629
L9.6219 22.3024
" />
<path d="M9.6219 22.3024
L9.6219 22.4233
" />
<path d="M9.6219 21.6371
L9.6824 21.6976
" />
<path d="M9.6824 21.6976
L9.6219 21.7581
" />
<path d="M9.6219 21.7581
L9.5615 21.6976
" />
<path d="M9.5615 21.6976
L9.6219 21.6371
" />
<path d="M9.6219 21.6371
L9.6219 21.7581
" />
<path d="M11.1339 21.0929
L10.0453 22.7257
" />
<path d="M12.4644 21.0929
L11.3758 22.7257
" />
<path d="M12.7668 21.5767
L13.0087 22.4233
" />
<path d="M13.0087 22.4233
L13.2506 21.8186
" />
<path d="M13.2506 21.8186
L13.4925 22.4233
" />
<path d="M13.4925 22.4233
L13.7344 21.5767
" />
<path d="M14.0973 21.5767
L14.3392 22.4233
" />
<path d="M14.3392 22.4233
L14.5811 21.8186
" />
<path d="M14.5811 21.8186
L14.8230 22.4233
" />
<path d="M14.8230 22.4233
L15.0649 21.5767
" />
<path d="M15.4278 21.5767
L15.6697 22.4233
" />
<path d="M15.6697 22.4233
L15.9116 21.8186
" />
<path d="M15.9116 21.8186
L16.1535 22.4233
" />
<path d="M16.1535 22.4233
L16.3954 21.5767
" />
<path d="M16.8792 22.3024
L16.9397 22.3629
" />
<path d="M16.9397 22.3629
L16.8792 22.4233
" />
<path d="M16.8792 22.4233
L16.8188 22.3629
" />
<path d="M16.8188 22.3629
L16.8792 22.3024
" />
<path d="M16.8792 22.3024
L16.8792 22.4233
" />
<path d="M17.4840 21.5767
L17.4840 22.4233
" />
<path d="M17.4840 21.6976
L17.5445 21.6371
" />
<path d="M17.5445 21.6371
L17.6655 21.5767
" />
<path d="M17.6655 21.5767
L17.8469 21.5767
" />
<path d="M17.8469 21.5767
L17.9678 21.6371
" />
<path d="M17.9678 21.6371
L18.0283 21.7581
" />
<path d="M18.0283 21.7581
L18.0283 22.4233
" />
<path d="M18.5121 22.4233
L19.1773 21.5767
" />
<path d="M18.5121 21.5767
L19.1773 22.4233
" />
<path d="M19.6611 21.5767
L19.6611 22.8467
" />
<path d="M19.6611 21.6371
L19.7821 21.5767
" />
<path d="M19.7821 21.5767
L20.0240 21.5767
" />
<path d="M20.0240 21.5767
L20.1449 21.6371
" />
<path d="M20.1449 21.6371
L20.2054 21.6976
" />
<path d="M20.2054 21.6976
L20.2659 21.8186
" />
<path d="M20.2659 21.8186
L20.2659 22.1814
" />
<path d="M20.2659 22.1814
L20.2054 22.3024
" />
<path d="M20.2054 22.3024
L20.1449 22.3629
" />
<path d="M20.1449 22.3629
L20.0240 22.4233
" />
<path d="M20.0240 22.4233
L19.7821 22.4233
" />
<path d="M19.7821 22.4233
L19.6611 22.3629
" />
<path d="M20.8101 22.3024
L20.8706 22.3629
" />
<path d="M20.8706 22.3629
L20.8101 22.4233
" />
<path d="M20.8101 22.4233
L20.7497 22.3629
" />
<path d="M20.7497 22.3629
L20.8101 22.3024
" />
<path d="M20.8101 22.3024
L20.8101 22.4233
" />
<path d="M21.9592 22.3629
L21.8383 22.4233
" />
<path d="M21.8383 22.4233
L21.5964 22.4233
" />
<path d="M21.5964 22.4233
L21.4754 22.3629
" />
<path d="M21.4754 22.3629
L21.4149 22.3024
" />
<path d="M21.4149 22.3024
L21.3545 22.1814
" />
<path d="M21.3545 22.1814
L21.3545 21.8186
" />
<path d="M21.3545 21.8186
L21.4149 21.6976
" />
<path d="M21.4149 21.6976
L21.4754 21.6371
" />
<path d="M21.4754 21.6371
L21.5964 21.5767
" />
<path d="M21.5964 21.5767
L21.8383 21.5767
" />
<path d="M21.8383 21.5767
L21.9592 21.6371
" />
<path d="M22.6850 22.4233
L22.5640 22.3629
" />
<path d="M22.5640 22.3629
L22.5035 22.3024
" />
<path d="M22.5035 22.3024
L22.4431 22.1814
" />
<path d="M22.4431 22.1814
L22.4431 21.8186
" />
<path d="M22.4431 21.8186
L22.5035 21.6976
" />
<path d="M22.5035 21.6976
L22.5640 21.6371
" />
<path d="M22.5640 21.6371
L22.6850 21.5767
" />
<path d="M22.6850 21.5767
L22.8664 21.5767
" />
<path d="M22.8664 21.5767
L22.9873 21.6371
" />
<path d="M22.9873 21.6371
L23.0478 21.6976
" />
<path d="M23.0478 21.6976
L23.1083 21.8186
" />
<path d="M23.1083 21.8186
L23.1083 22.1814
" />
<path d="M23.1083 22.1814
L23.0478 22.3024
" />
<path d="M23.0478 22.3024
L22.9873 22.3629
" />
<path d="M22.9873 22.3629
L22.8664 22.4233
" />
<path d="M22.8664 22.4233
L22.6850 22.4233
" />
<path d="M23.6525 22.4233
L23.6525 21.5767
" />
<path d="M23.6525 21.6976
L23.7130 21.6371
" />
<path d="M23.7130 21.6371
L23.8340 21.5767
" />
<path d="M23.8340 21.5767
L24.0154 21.5767
" />
<path d="M24.0154 21.5767
L24.1363 21.6371
" />
<path d="M24.1363 21.6371
L24.1968 21.7581
" />
<path d="M24.1968 21.7581
L24.1968 22.4233
" />
<path d="M24.1968 21.7581
L24.2573 21.6371
" />
<path d="M24.2573 21.6371
L24.3782 21.5767
" />
<path d="M24.3782 21.5767
L24.5597 21.5767
" />
<path d="M24.5597 21.5767
L24.6806 21.6371
" />
<path d="M24.6806 21.6371
L24.7411 21.7581
" />
<path d="M24.7411 21.7581
L24.7411 22.4233
" />
<path d="M26.2530 21.0929
L25.1644 22.7257
" />
<path d="M27.2206 22.4233
L27.2206 21.1533
" />
<path d="M27.2206 22.3629
L27.0997 22.4233
" />
<path d="M27.0997 22.4233
L26.8578 22.4233
" />
<path d="M26.8578 22.4233
L26.7368 22.3629
" />
<path d="M26.7368 22.3629
L26.6763 22.3024
" />
<path d="M26.6763 22.3024
L26.6159 22.1814
" />
<path d="M26.6159 22.1814
L26.6159 21.8186
" />
<path d="M26.6159 21.8186
L26.6763 21.6976
" />
<path d="M26.6763 21.6976
L26.7368 21.6371
" />
<path d="M26.7368 21.6371
L26.8578 21.5767
" />
<path d="M26.8578 21.5767
L27.0997 21.5767
" />
<path d="M27.0997 21.5767
L27.2206 21.6371
" />
<path d="M28.0068 22.4233
L27.8858 22.3629
" />
<path d="M27.8858 22.3629
L27.8253 22.3024
" />
<path d="M27.8253 22.3024
L27.7649 22.1814
" />
<path d="M27.7649 22.1814
L27.7649 21.8186
" />
<path d="M27.7649 21.8186
L27.8253 21.6976
" />
<path d="M27.8253 21.6976
L27.8858 21.6371
" />
<path d="M27.8858 21.6371
L28.0068 21.5767
" />
<path d="M28.0068 21.5767
L28.1882 21.5767
" />
<path d="M28.1882 21.5767
L28.3091 21.6371
" />
<path d="M28.3091 21.6371
L28.3696 21.6976
" />
<path d="M28.3696 21.6976
L28.4301 21.8186
" />
<path d="M28.4301 21.8186
L28.4301 22.1814
" />
<path d="M28.4301 22.1814
L28.3696 22.3024
" />
<path d="M28.3696 22.3024
L28.3091 22.3629
" />
<path d="M28.3091 22.3629
L28.1882 22.4233
" />
<path d="M28.1882 22.4233
L28.0068 22.4233
" />
<path d="M29.5186 22.3629
L29.3977 22.4233
" />
<path d="M29.3977 22.4233
L29.1558 22.4233
" />
<path d="M29.1558 22.4233
L29.0348 22.3629
" />
<path d="M29.0348 22.3629
L28.9743 22.3024
" />
<path d="M28.9743 22.3024
L28.9139 22.1814
" />
<path d="M28.9139 22.1814
L28.9139 21.8186
" />
<path d="M28.9139 21.8186
L28.9743 21.6976
" />
<path d="M28.9743 21.6976
L29.0348 21.6371
" />
<path d="M29.0348 21.6371
L29.1558 21.5767
" />
<path d="M29.1558 21.5767
L29.3977 21.5767
" />
<path d="M29.3977 21.5767
L29.5186 21.6371
" />
<path d="M30.0025 22.3629
L30.1234 22.4233
" />
<path d="M30.1234 22.4233
L30.3653 22.4233
" />
<path d="M30.3653 22.4233
L30.4863 22.3629
" />
<path d="M30.4863 22.3629
L30.5467 22.2419
" />
<path d="M30.5467 22.2419
L30.5467 22.1814
" />
<path d="M30.5467 22.1814
L30.4863 22.0605
" />
<path d="M30.4863 22.0605
L30.3653 22.0000
" />
<path d="M30.3653 22.0000
L30.1839 22.0000
" />
<path d="M30.1839 22.0000
L30.0629 21.9395
" />
<path d="M30.0629 21.9395
L30.0025 21.8186
" />
<path d="M30.0025 21.8186
L30.0025 21.7581
" />
<path d="M30.0025 21.7581
L30.0629 21.6371
" />
<path d="M30.0629 21.6371
L30.1839 21.5767
" />
<path d="M30.1839 21.5767
L30.3653 21.5767
" />
<path d="M30.3653 21.5767
L30.4863 21.6371
" />
<path d="M31.9982 21.0929
L30.9096 22.7257
" />
<path d="M32.9053 22.3629
L32.7844 22.4233
" />
<path d="M32.7844 22.4233
L32.5425 22.4233
" />
<path d="M32.5425 22.4233
L32.4215 22.3629
" />
<path d="M32.4215 22.3629
L32.3611 22.2419
" />
<path d="M32.3611 22.2419
L32.3611 21.7581
" />
<path d="M32.3611 21.7581
L32.4215 21.6371
" />
<path d="M32.4215 21.6371
L32.5425 21.5767
" />
<path d="M32.5425 21.5767
L32.7844 21.5767
" />
<path d="M32.7844 21.5767
L32.9053 21.6371
" />
<path d="M32.9053 21.6371
L32.9658 21.7581
" />
<path d="M32.9658 21.7581
L32.9658 21.8790
" />
<path d="M32.9658 21.8790
L32.3611 22.0000
" />
<path d="M33.5101 21.5767
L33.5101 22.4233
" />
<path d="M33.5101 21.6976
L33.5706 21.6371
" />
<path d="M33.5706 21.6371
L33.6916 21.5767
" />
<path d="M33.6916 21.5767
L33.8730 21.5767
" />
<path d="M33.8730 21.5767
L33.9939 21.6371
" />
<path d="M33.9939 21.6371
L34.0544 21.7581
" />
<path d="M34.0544 21.7581
L34.0544 22.4233
" />
<path d="M35.5663 21.0929
L34.4777 22.7257
" />
<path d="M36.5339 22.4233
L36.5339 21.1533
" />
<path d="M36.5339 22.3629
L36.4130 22.4233
" />
<path d="M36.4130 22.4233
L36.1711 22.4233
" />
<path d="M36.1711 22.4233
L36.0501 22.3629
" />
<path d="M36.0501 22.3629
L35.9896 22.3024
" />
<path d="M35.9896 22.3024
L35.9292 22.1814
" />
<path d="M35.9292 22.1814
L35.9292 21.8186
" />
<path d="M35.9292 21.8186
L35.9896 21.6976
" />
<path d="M35.9896 21.6976
L36.0501 21.6371
" />
<path d="M36.0501 21.6371
L36.1711 21.5767
" />
<path d="M36.1711 21.5767
L36.4130 21.5767
" />
<path d="M36.4130 21.5767
L36.5339 21.6371
" />
<path d="M37.6829 22.4233
L37.6829 21.7581
" />
<path d="M37.6829 21.7581
L37.6224 21.6371
" />
<path d="M37.6224 21.6371
L37.5015 21.5767
" />
<path d="M37.5015 21.5767
L37.2596 21.5767
" />
<path d="M37.2596 21.5767
L37.1386 21.6371
" />
<path d="M37.6829 22.3629
L37.5620 22.4233
" />
<path d="M37.5620 22.4233
L37.2596 22.4233
" />
<path d="M37.2596 22.4233
L37.1386 22.3629
" />
<path d="M37.1386 22.3629
L37.0782 22.2419
" />
<path d="M37.0782 22.2419
L37.0782 22.1209
" />
<path d="M37.0782 22.1209
L37.1386 22.0000
" />
<path d="M37.1386 22.0000
L37.2596 21.9395
" />
<path d="M37.2596 21.9395
L37.5620 21.9395
" />
<path d="M37.5620 21.9395
L37.6829 21.8790
" />
<path d="M38.1062 21.5767
L38.5900 21.5767
" />
<path d="M38.2876 21.1533
L38.2876 22.2419
" />
<path d="M38.2876 22.2419
L38.3481 22.3629
" />
<path d="M38.3481 22.3629
L38.4691 22.4233
" />
<path d="M38.4691 22.4233
L38.5900 22.4233
" />
<path d="M39.5576 22.4233
L39.5576 21.7581
" />
<path d="M39.5576 21.7581
L39.4971 21.6371
" />
<path d="M39.4971 21.6371
L39.3762 21.5767
" />
<path d="M39.3762 21.5767
L39.1343 21.5767
" />
<path d="M39.1343 21.5767
L39.0133 21.6371
" />
<path d="M39.5576 22.3629
L39.4367 22.4233
" />
<path d="M39.4367 22.4233
L39.1343 22.4233
" />
<path d="M39.1343 22.4233
L39.0133 22.3629
" />
<path d="M39.0133 22.3629
L38.9529 22.2419
" />
<path d="M38.9529 22.2419
L38.9529 22.1209
" />
<path d="M38.9529 22.1209
L39.0133 22.0000
" />
<path d="M39.0133 22.0000
L39.1343 21.9395
" />
<path d="M39.1343 21.9395
L39.4367 21.9395
" />
<path d="M39.4367 21.9395
L39.5576 21.8790
" />
<path d="M40.1623 21.9395
L41.1300 21.9395
" />
<path d="M41.6743 22.3629
L41.7952 22.4233
" />
<path d="M41.7952 22.4233
L42.0371 22.4233
" />
<path d="M42.0371 22.4233
L42.1581 22.3629
" />
<path d="M42.1581 22.3629
L42.2185 22.2419
" />
<path d="M42.2185 22.2419
L42.2185 22.1814
" />
<path d="M42.2185 22.1814
L42.1581 22.0605
" />
<path d="M42.1581 22.0605
L42.0371 22.0000
" />
<path d="M42.0371 22.0000
L41.8557 22.0000
" />
<path d="M41.8557 22.0000
L41.7347 21.9395
" />
<path d="M41.7347 21.9395
L41.6743 21.8186
" />
<path d="M41.6743 21.8186
L41.6743 21.7581
" />
<path d="M41.6743 21.7581
L41.7347 21.6371
" />
<path d="M41.7347 21.6371
L41.8557 21.5767
" />
<path d="M41.8557 21.5767
L42.0371 21.5767
" />
<path d="M42.0371 21.5767
L42.1581 21.6371
" />
<path d="M42.7628 22.4233
L42.7628 21.1533
" />
<path d="M43.3071 22.4233
L43.3071 21.7581
" />
<path d="M43.3071 21.7581
L43.2466 21.6371
" />
<path d="M43.2466 21.6371
L43.1257 21.5767
" />
<path d="M43.1257 21.5767
L42.9443 21.5767
" />
<path d="M42.9443 21.5767
L42.8233 21.6371
" />
<path d="M42.8233 21.6371
L42.7628 21.6976
" />
<path d="M44.3956 22.3629
L44.2747 22.4233
" />
<path d="M44.2747 22.4233
L44.0328 22.4233
" />
<path d="M44.0328 22.4233
L43.9118 22.3629
" />
<path d="M43.9118 22.3629
L43.8514 22.2419
" />
<path d="M43.8514 22.2419
L43.8514 21.7581
" />
<path d="M43.8514 21.7581
L43.9118 21.6371
" />
<path d="M43.9118 21.6371
L44.0328 21.5767
" />
<path d="M44.0328 21.5767
L44.2747 21.5767
" />
<path d="M44.2747 21.5767
L44.3956 21.6371
" />
<path d="M44.3956 21.6371
L44.4561 21.7581
" />
<path d="M44.4561 21.7581
L44.4561 21.8790
" />
<path d="M44.4561 21.8790
L43.8514 22.0000
" />
<path d="M45.4842 22.3629
L45.3633 22.4233
" />
<path d="M45.3633 22.4233
L45.1214 22.4233
" />
<path d="M45.1214 22.4233
L45.0004 22.3629
" />
<path d="M45.0004 22.3629
L44.9400 22.2419
" />
<path d="M44.9400 22.2419
L44.9400 21.7581
" />
<path d="M44.9400 21.7581
L45.0004 21.6371
" />
<path d="M45.0004 21.6371
L45.1214 21.5767
" />
<path d="M45.1214 21.5767
L45.3633 21.5767
" />
<path d="M45.3633 21.5767
L45.4842 21.6371
" />
<path d="M45.4842 21.6371
L45.5447 21.7581
" />
<path d="M45.5447 21.7581
L45.5447 21.8790
" />
<path d="M45.5447 21.8790
L44.9400 22.0000
" />
<path d="M45.9076 21.5767
L46.3914 21.5767
" />
<path d="M46.0890 21.1533
L46.0890 22.2419
" />
<path d="M46.0890 22.2419
L46.1495 22.3629
" />
<path d="M46.1495 22.3629
L46.2705 22.4233
" />
<path d="M46.2705 22.4233
L46.3914 22.4233
" />
<path d="M47.7219 21.0929
L46.6333 22.7257
" />
<path d="M48.1452 22.4233
L48.1452 21.1533
" />
<path d="M48.1452 21.1533
L48.6290 21.1533
" />
<path d="M48.6290 21.1533
L48.7500 21.2138
" />
<path d="M48.7500 21.2138
L48.8105 21.2743
" />
<path d="M48.8105 21.2743
L48.8709 21.3952
" />
<path d="M48.8709 21.3952
L48.8709 21.5767
" />
<path d="M48.8709 21.5767
L48.8105 21.6976
" />
<path d="M48.8105 21.6976
L48.7500 21.7581
" />
<path d="M48.7500 21.7581
L48.6290 21.8186
" />
<path d="M48.6290 21.8186
L48.1452 21.8186
" />
<path d="M50.1409 22.3024
L50.0805 22.3629
" />
<path d="M50.0805 22.3629
L49.8990 22.4233
" />
<path d="M49.8990 22.4233
L49.7781 22.4233
" />
<path d="M49.7781 22.4233
L49.5967 22.3629
" />
<path d="M49.5967 22.3629
L49.4757 22.2419
" />
<path d="M49.4757 22.2419
L49.4152 22.1209
" />
<path d="M49.4152 22.1209
L49.3548 21.8790
" />
<path d="M49.3548 21.8790
L49.3548 21.6976
" />
<path d="M49.3548 21.6976
L49.4152 21.4557
" />
<path d="M49.4152 21.4557
L49.4757 21.3348
" />
<path d="M49.4757 21.3348
L49.5967 21.2138
" />
<path d="M49.5967 21.2138
L49.7781 21.1533
" />
<path d="M49.7781 21.1533
L49.8990 21.1533
" />
<path d="M49.8990 21.1533
L50.0805 21.2138
" />
<path d="M50.0805 21.2138
L50.1409 21.2743
" />
<path d="M50.6248 22.0605
L51.2295 22.0605
" />
<path d="M50.5038 22.4233
L50.9271 21.1533
" />
<path d="M50.9271 21.1533
L51.3505 22.4233
" />
<path d="M51.8343 22.4233
L52.0762 22.4233
" />
<path d="M52.0762 22.4233
L52.1972 22.3629
" />
<path d="M52.1972 22.3629
L52.2576 22.3024
" />
<path d="M52.2576 22.3024
L52.3786 22.1209
" />
<path d="M52.3786 22.1209
L52.4391 21.8790
" />
<path d="M52.4391 21.8790
L52.4391 21.3952
" />
<path d="M52.4391 21.3952
L52.3786 21.2743
" />
<path d="M52.3786 21.2743
L52.3181 21.2138
" />
<path d="M52.3181 21.2138
L52.1972 21.1533
" />
<path d="M52.1972 21.1533
L51.9553 21.1533
" />
<path d="M51.9553 21.1533
L51.8343 21.2138
" />
<path d="M51.8343 21.2138
L51.7738 21.2743
" />
<path d="M51.7738 21.2743
L51.7134 21.3952
" />
<path d="M51.7134 21.3952
L51.7134 21.6976
" />
<path d="M51.7134 21.6976
L51.7738 21.8186
" />
<path d="M51.7738 21.8186
L51.8343 21.8790
" />
<path d="M51.8343 21.8790
L51.9553 21.9395
" />
<path d="M51.9553 21.9395
L52.1972 21.9395
" />
<path d="M52.1972 21.9395
L52.3181 21.8790
" />
<path d="M52.3181 21.8790
L52.3786 21.8186
" />
<path d="M52.3786 21.8186
L52.4391 21.6976
" />
<path d="M53.5881 21.1533
L52.9833 21.1533
" />
<path d="M52.9833 21.1533
L52.9229 21.7581
" />
<path d="M52.9229 21.7581
L52.9833 21.6976
" />
<path d="M52.9833 21.6976
L53.1043 21.6371
" />
<path d="M53.1043 21.6371
L53.4067 21.6371
" />
<path d="M53.4067 21.6371
L53.5276 21.6976
" />
<path d="M53.5276 21.6976
L53.5881 21.7581
" />
<path d="M53.5881 21.7581
L53.6486 21.8790
" />
<path d="M53.6486 21.8790
L53.6486 22.1814
" />
<path d="M53.6486 22.1814
L53.5881 22.3024
" />
<path d="M53.5881 22.3024
L53.5276 22.3629
" />
<path d="M53.5276 22.3629
L53.4067 22.4233
" />
<path d="M53.4067 22.4233
L53.1043 22.4233
" />
<path d="M53.1043 22.4233
L52.9833 22.3629
" />
<path d="M52.9833 22.3629
L52.9229 22.3024
" />
<path d="M54.8581 22.4233
L54.1324 22.4233
" />
<path d="M54.4952 22.4233
L54.4952 21.1533
" />
<path d="M54.4952 21.1533
L54.3743 21.3348
" />
<path d="M54.3743 21.3348
L54.2533 21.4557
" />
<path d="M54.2533 21.4557
L54.1324 21.5162
" />
<path d="M55.5838 21.6976
L55.4628 21.6371
" />
<path d="M55.4628 21.6371
L55.4023 21.5767
" />
<path d="M55.4023 21.5767
L55.3419 21.4557
" />
<path d="M55.3419 21.4557
L55.3419 21.3952
" />
<path d="M55.3419 21.3952
L55.4023 21.2743
" />
<path d="M55.4023 21.2743
L55.4628 21.2138
" />
<path d="M55.4628 21.2138
L55.5838 21.1533
" />
<path d="M55.5838 21.1533
L55.8257 21.1533
" />
<path d="M55.8257 21.1533
L55.9466 21.2138
" />
<path d="M55.9466 21.2138
L56.0071 21.2743
" />
<path d="M56.0071 21.2743
L56.0676 21.3952
" />
<path d="M56.0676 21.3952
L56.0676 21.4557
" />
<path d="M56.0676 21.4557
L56.0071 21.5767
" />
<path d="M56.0071 21.5767
L55.9466 21.6371
" />
<path d="M55.9466 21.6371
L55.8257 21.6976
" />
<path d="M55.8257 21.6976
L55.5838 21.6976
" />
<path d="M55.5838 21.6976
L55.4628 21.7581
" />
<path d="M55.4628 21.7581
L55.4023 21.8186
" />
<path d="M55.4023 21.8186
L55.3419 21.9395
" />
<path d="M55.3419 21.9395
L55.3419 22.1814
" />
<path d="M55.3419 22.1814
L55.4023 22.3024
" />
<path d="M55.4023 22.3024
L55.4628 22.3629
" />
<path d="M55.4628 22.3629
L55.5838 22.4233
" />
<path d="M55.5838 22.4233
L55.8257 22.4233
" />
<path d="M55.8257 22.4233
L55.9466 22.3629
" />
<path d="M55.9466 22.3629
L56.0071 22.3024
" />
<path d="M56.0071 22.3024
L56.0676 22.1814
" />
<path d="M56.0676 22.1814
L56.0676 21.9395
" />
<path d="M56.0676 21.9395
L56.0071 21.8186
" />
<path d="M56.0071 21.8186
L55.9466 21.7581
" />
<path d="M55.9466 21.7581
L55.8257 21.6976
" />
<path d="M56.6118 22.3024
L56.6723 22.3629
" />
<path d="M56.6723 22.3629
L56.6118 22.4233
" />
<path d="M56.6118 22.4233
L56.5514 22.3629
" />
<path d="M56.5514 22.3629
L56.6118 22.3024
" />
<path d="M56.6118 22.3024
L56.6118 22.4233
" />
<path d="M57.2166 21.5767
L57.2166 22.8467
" />
<path d="M57.2166 21.6371
L57.3376 21.5767
" />
<path d="M57.3376 21.5767
L57.5795 21.5767
" />
<path d="M57.5795 21.5767
L57.7004 21.6371
" />
<path d="M57.7004 21.6371
L57.7609 21.6976
" />
<path d="M57.7609 21.6976
L57.8214 21.8186
" />
<path d="M57.8214 21.8186
L57.8214 22.1814
" />
<path d="M57.8214 22.1814
L57.7609 22.3024
" />
<path d="M57.7609 22.3024
L57.7004 22.3629
" />
<path d="M57.7004 22.3629
L57.5795 22.4233
" />
<path d="M57.5795 22.4233
L57.3376 22.4233
" />
<path d="M57.3376 22.4233
L57.2166 22.3629
" />
<path d="M58.9099 22.4233
L58.9099 21.1533
" />
<path d="M58.9099 22.3629
L58.7890 22.4233
" />
<path d="M58.7890 22.4233
L58.5471 22.4233
" />
<path d="M58.5471 22.4233
L58.4261 22.3629
" />
<path d="M58.4261 22.3629
L58.3656 22.3024
" />
<path d="M58.3656 22.3024
L58.3052 22.1814
" />
<path d="M58.3052 22.1814
L58.3052 21.8186
" />
<path d="M58.3052 21.8186
L58.3656 21.6976
" />
<path d="M58.3656 21.6976
L58.4261 21.6371
" />
<path d="M58.4261 21.6371
L58.5471 21.5767
" />
<path d="M58.5471 21.5767
L58.7890 21.5767
" />
<path d="M58.7890 21.5767
L58.9099 21.6371
" />
<path d="M59.3332 21.5767
L59.8170 21.5767
" />
<path d="M59.5146 22.4233
L59.5146 21.3348
" />
<path d="M59.5146 21.3348
L59.5751 21.2138
" />
<path d="M59.5751 21.2138
L59.6961 21.1533
" />
<path d="M59.6961 21.1533
L59.8170 21.1533
" />
</g></g> 
</svg>
