<?xml version="1.0" standalone="no"?>
 <!DOCTYPE svg PUBLIC "-//W3C//DTD SVG 1.1//EN" 
 "http://www.w3.org/Graphics/SVG/1.1/DTD/svg11.dtd"> 
<svg
  xmlns:svg="http://www.w3.org/2000/svg"
  xmlns="http://www.w3.org/2000/svg"
  xmlns:xlink="http://www.w3.org/1999/xlink"
  version="1.1"
  width="89.3064mm" height="59.2836mm" viewBox="0.0000 0.0000 89.3064 59.2836">
<title>SVG Image created as working.svg date 2023/08/03 20:58:50 </title>
  <desc>Image generated by Eeschema-SVG </desc>
<g style="fill:#000000; fill-opacity:1.0000;stroke:#000000; stroke-opacity:1.0000;
stroke-linecap:round; stroke-linejoin:round;"
 transform="translate(0 0) scale(1 1)">
</g>
<g style="fill:#840000; fill-opacity:0.0; 
stroke:#840000; stroke-width:0.0000; stroke-opacity:1; 
stroke-linecap:round; stroke-linejoin:round;">
</g>
<g style="fill:#FFFFC2; fill-opacity:0.0; 
stroke:#FFFFC2; stroke-width:0.0000; stroke-opacity:1; 
stroke-linecap:round; stroke-linejoin:round;">
</g>
<g style="fill:#FFFFC2; fill-opacity:1.0000; 
stroke:#FFFFC2; stroke-width:0.0000; stroke-opacity:1; 
stroke-linecap:round; stroke-linejoin:round;">
<rect x="39.575700" y="5.067800" width="10.160000" height="20.320000" rx="0.000000" />
</g>
<g style="fill:#840084; fill-opacity:1.0000; 
stroke:#840084; stroke-width:0.0000; stroke-opacity:1; 
stroke-linecap:round; stroke-linejoin:round;">
</g>
<g style="fill:#840000; fill-opacity:1.0000; 
stroke:#840000; stroke-width:0.0000; stroke-opacity:1; 
stroke-linecap:round; stroke-linejoin:round;">
</g>
<g style="fill:#840000; fill-opacity:0.0; 
stroke:#840000; stroke-width:0.2540; stroke-opacity:1; 
stroke-linecap:round; stroke-linejoin:round;">
<rect x="39.575700" y="5.067800" width="10.160000" height="20.320000" rx="0.000000" />
</g>
<g style="fill:#840000; fill-opacity:0.0; 
stroke:#840000; stroke-width:0.1524; stroke-opacity:1; 
stroke-linecap:round; stroke-linejoin:round;">
<path d="M39.5757 27.9278
L37.0357 27.9278
" />
</g>
<g style="fill:#006464; fill-opacity:0.0; 
stroke:#006464; stroke-width:0.1524; stroke-opacity:1; 
stroke-linecap:round; stroke-linejoin:round;">
<text x="40.0837" y="28.5628"
textLength="3.8318" font-size="1.6933" lengthAdjust="spacingAndGlyphs"
text-anchor="start" opacity="0">VDD</text>
<g class="stroked-text"><desc>VDD</desc>
<path d="M40.3048 27.2373
L40.7281 28.5073
" />
<path d="M40.7281 28.5073
L41.1515 27.2373
" />
<path d="M41.5748 28.5073
L41.5748 27.2373
" />
<path d="M41.5748 27.2373
L41.8772 27.2373
" />
<path d="M41.8772 27.2373
L42.0586 27.2978
" />
<path d="M42.0586 27.2978
L42.1796 27.4188
" />
<path d="M42.1796 27.4188
L42.2401 27.5397
" />
<path d="M42.2401 27.5397
L42.3005 27.7816
" />
<path d="M42.3005 27.7816
L42.3005 27.9630
" />
<path d="M42.3005 27.9630
L42.2401 28.2049
" />
<path d="M42.2401 28.2049
L42.1796 28.3259
" />
<path d="M42.1796 28.3259
L42.0586 28.4469
" />
<path d="M42.0586 28.4469
L41.8772 28.5073
" />
<path d="M41.8772 28.5073
L41.5748 28.5073
" />
<path d="M42.8448 28.5073
L42.8448 27.2373
" />
<path d="M42.8448 27.2373
L43.1472 27.2373
" />
<path d="M43.1472 27.2373
L43.3286 27.2978
" />
<path d="M43.3286 27.2978
L43.4496 27.4188
" />
<path d="M43.4496 27.4188
L43.5101 27.5397
" />
<path d="M43.5101 27.5397
L43.5705 27.7816
" />
<path d="M43.5705 27.7816
L43.5705 27.9630
" />
<path d="M43.5705 27.9630
L43.5101 28.2049
" />
<path d="M43.5101 28.2049
L43.4496 28.3259
" />
<path d="M43.4496 28.3259
L43.3286 28.4469
" />
<path d="M43.3286 28.4469
L43.1472 28.5073
" />
<path d="M43.1472 28.5073
L42.8448 28.5073
" />
</g></g>
<g style="fill:#A90000; fill-opacity:0.0; 
stroke:#A90000; stroke-width:0.1524; stroke-opacity:1; 
stroke-linecap:round; stroke-linejoin:round;">
<text x="38.3057" y="27.6738"
textLength="1.4127" font-size="1.6933" lengthAdjust="spacingAndGlyphs"
text-anchor="middle" opacity="0">1</text>
<g class="stroked-text"><desc>1</desc>
<path d="M38.6686 27.5103
L37.9429 27.5103
" />
<path d="M38.3057 27.5103
L38.3057 26.2403
" />
<path d="M38.3057 26.2403
L38.1848 26.4218
" />
<path d="M38.1848 26.4218
L38.0638 26.5427
" />
<path d="M38.0638 26.5427
L37.9429 26.6032
" />
</g></g>
<g style="fill:#840000; fill-opacity:0.0; 
stroke:#840000; stroke-width:0.1524; stroke-opacity:1; 
stroke-linecap:round; stroke-linejoin:round;">
<path d="M49.7357 27.9278
L52.2757 27.9278
" />
</g>
<g style="fill:#006464; fill-opacity:0.0; 
stroke:#006464; stroke-width:0.1524; stroke-opacity:1; 
stroke-linecap:round; stroke-linejoin:round;">
<text x="49.2277" y="28.5628"
textLength="2.8037" font-size="1.6933" lengthAdjust="spacingAndGlyphs"
text-anchor="end" opacity="0">HB</text>
<g class="stroked-text"><desc>HB</desc>
<path d="M46.8293 28.5073
L46.8293 27.2373
" />
<path d="M46.8293 27.8421
L47.5550 27.8421
" />
<path d="M47.5550 28.5073
L47.5550 27.2373
" />
<path d="M48.5832 27.8421
L48.7646 27.9026
" />
<path d="M48.7646 27.9026
L48.8251 27.9630
" />
<path d="M48.8251 27.9630
L48.8855 28.0840
" />
<path d="M48.8855 28.0840
L48.8855 28.2654
" />
<path d="M48.8855 28.2654
L48.8251 28.3864
" />
<path d="M48.8251 28.3864
L48.7646 28.4469
" />
<path d="M48.7646 28.4469
L48.6436 28.5073
" />
<path d="M48.6436 28.5073
L48.1598 28.5073
" />
<path d="M48.1598 28.5073
L48.1598 27.2373
" />
<path d="M48.1598 27.2373
L48.5832 27.2373
" />
<path d="M48.5832 27.2373
L48.7041 27.2978
" />
<path d="M48.7041 27.2978
L48.7646 27.3583
" />
<path d="M48.7646 27.3583
L48.8251 27.4792
" />
<path d="M48.8251 27.4792
L48.8251 27.6002
" />
<path d="M48.8251 27.6002
L48.7646 27.7211
" />
<path d="M48.7646 27.7211
L48.7041 27.7816
" />
<path d="M48.7041 27.7816
L48.5832 27.8421
" />
<path d="M48.5832 27.8421
L48.1598 27.8421
" />
</g></g>
<g style="fill:#A90000; fill-opacity:0.0; 
stroke:#A90000; stroke-width:0.1524; stroke-opacity:1; 
stroke-linecap:round; stroke-linejoin:round;">
<text x="51.0057" y="27.6738"
textLength="1.4127" font-size="1.6933" lengthAdjust="spacingAndGlyphs"
text-anchor="middle" opacity="0">2</text>
<g class="stroked-text"><desc>2</desc>
<path d="M50.6429 26.3613
L50.7033 26.3008
" />
<path d="M50.7033 26.3008
L50.8243 26.2403
" />
<path d="M50.8243 26.2403
L51.1267 26.2403
" />
<path d="M51.1267 26.2403
L51.2476 26.3008
" />
<path d="M51.2476 26.3008
L51.3081 26.3613
" />
<path d="M51.3081 26.3613
L51.3686 26.4822
" />
<path d="M51.3686 26.4822
L51.3686 26.6032
" />
<path d="M51.3686 26.6032
L51.3081 26.7846
" />
<path d="M51.3081 26.7846
L50.5824 27.5103
" />
<path d="M50.5824 27.5103
L51.3686 27.5103
" />
</g></g>
<g style="fill:#840000; fill-opacity:0.0; 
stroke:#840000; stroke-width:0.1524; stroke-opacity:1; 
stroke-linecap:round; stroke-linejoin:round;">
<path d="M49.7357 38.0878
L52.2757 38.0878
" />
</g>
<g style="fill:#006464; fill-opacity:0.0; 
stroke:#006464; stroke-width:0.1524; stroke-opacity:1; 
stroke-linecap:round; stroke-linejoin:round;">
<text x="49.2277" y="38.7228"
textLength="2.8642" font-size="1.6933" lengthAdjust="spacingAndGlyphs"
text-anchor="end" opacity="0">HO</text>
<g class="stroked-text"><desc>HO</desc>
<path d="M46.7688 38.6673
L46.7688 37.3973
" />
<path d="M46.7688 38.0021
L47.4945 38.0021
" />
<path d="M47.4945 38.6673
L47.4945 37.3973
" />
<path d="M48.3412 37.3973
L48.5831 37.3973
" />
<path d="M48.5831 37.3973
L48.7041 37.4578
" />
<path d="M48.7041 37.4578
L48.8250 37.5788
" />
<path d="M48.8250 37.5788
L48.8855 37.8207
" />
<path d="M48.8855 37.8207
L48.8855 38.2440
" />
<path d="M48.8855 38.2440
L48.8250 38.4859
" />
<path d="M48.8250 38.4859
L48.7041 38.6069
" />
<path d="M48.7041 38.6069
L48.5831 38.6673
" />
<path d="M48.5831 38.6673
L48.3412 38.6673
" />
<path d="M48.3412 38.6673
L48.2203 38.6069
" />
<path d="M48.2203 38.6069
L48.0993 38.4859
" />
<path d="M48.0993 38.4859
L48.0389 38.2440
" />
<path d="M48.0389 38.2440
L48.0389 37.8207
" />
<path d="M48.0389 37.8207
L48.0993 37.5788
" />
<path d="M48.0993 37.5788
L48.2203 37.4578
" />
<path d="M48.2203 37.4578
L48.3412 37.3973
" />
</g></g>
<g style="fill:#A90000; fill-opacity:0.0; 
stroke:#A90000; stroke-width:0.1524; stroke-opacity:1; 
stroke-linecap:round; stroke-linejoin:round;">
<text x="51.0057" y="37.8338"
textLength="1.4127" font-size="1.6933" lengthAdjust="spacingAndGlyphs"
text-anchor="middle" opacity="0">3</text>
<g class="stroked-text"><desc>3</desc>
<path d="M50.5824 36.4003
L51.3686 36.4003
" />
<path d="M51.3686 36.4003
L50.9452 36.8841
" />
<path d="M50.9452 36.8841
L51.1267 36.8841
" />
<path d="M51.1267 36.8841
L51.2476 36.9446
" />
<path d="M51.2476 36.9446
L51.3081 37.0051
" />
<path d="M51.3081 37.0051
L51.3686 37.1260
" />
<path d="M51.3686 37.1260
L51.3686 37.4284
" />
<path d="M51.3686 37.4284
L51.3081 37.5494
" />
<path d="M51.3081 37.5494
L51.2476 37.6099
" />
<path d="M51.2476 37.6099
L51.1267 37.6703
" />
<path d="M51.1267 37.6703
L50.7638 37.6703
" />
<path d="M50.7638 37.6703
L50.6429 37.6099
" />
<path d="M50.6429 37.6099
L50.5824 37.5494
" />
</g></g>
<g style="fill:#840000; fill-opacity:0.0; 
stroke:#840000; stroke-width:0.1524; stroke-opacity:1; 
stroke-linecap:round; stroke-linejoin:round;">
<path d="M49.7357 40.6278
L52.2757 40.6278
" />
</g>
<g style="fill:#006464; fill-opacity:0.0; 
stroke:#006464; stroke-width:0.1524; stroke-opacity:1; 
stroke-linecap:round; stroke-linejoin:round;">
<text x="49.2277" y="41.2628"
textLength="2.7432" font-size="1.6933" lengthAdjust="spacingAndGlyphs"
text-anchor="end" opacity="0">HS</text>
<g class="stroked-text"><desc>HS</desc>
<path d="M46.8898 41.2073
L46.8898 39.9373
" />
<path d="M46.8898 40.5421
L47.6155 40.5421
" />
<path d="M47.6155 41.2073
L47.6155 39.9373
" />
<path d="M48.1599 41.1469
L48.3413 41.2073
" />
<path d="M48.3413 41.2073
L48.6437 41.2073
" />
<path d="M48.6437 41.2073
L48.7646 41.1469
" />
<path d="M48.7646 41.1469
L48.8251 41.0864
" />
<path d="M48.8251 41.0864
L48.8856 40.9654
" />
<path d="M48.8856 40.9654
L48.8856 40.8445
" />
<path d="M48.8856 40.8445
L48.8251 40.7235
" />
<path d="M48.8251 40.7235
L48.7646 40.6630
" />
<path d="M48.7646 40.6630
L48.6437 40.6026
" />
<path d="M48.6437 40.6026
L48.4018 40.5421
" />
<path d="M48.4018 40.5421
L48.2808 40.4816
" />
<path d="M48.2808 40.4816
L48.2203 40.4211
" />
<path d="M48.2203 40.4211
L48.1599 40.3002
" />
<path d="M48.1599 40.3002
L48.1599 40.1792
" />
<path d="M48.1599 40.1792
L48.2203 40.0583
" />
<path d="M48.2203 40.0583
L48.2808 39.9978
" />
<path d="M48.2808 39.9978
L48.4018 39.9373
" />
<path d="M48.4018 39.9373
L48.7041 39.9373
" />
<path d="M48.7041 39.9373
L48.8856 39.9978
" />
</g></g>
<g style="fill:#A90000; fill-opacity:0.0; 
stroke:#A90000; stroke-width:0.1524; stroke-opacity:1; 
stroke-linecap:round; stroke-linejoin:round;">
<text x="51.0057" y="40.3738"
textLength="1.4127" font-size="1.6933" lengthAdjust="spacingAndGlyphs"
text-anchor="middle" opacity="0">4</text>
<g class="stroked-text"><desc>4</desc>
<path d="M51.2476 39.3637
L51.2476 40.2103
" />
<path d="M50.9452 38.8799
L50.6429 39.7870
" />
<path d="M50.6429 39.7870
L51.4290 39.7870
" />
</g></g>
<g style="fill:#840000; fill-opacity:0.0; 
stroke:#840000; stroke-width:0.1524; stroke-opacity:1; 
stroke-linecap:round; stroke-linejoin:round;">
<path d="M39.5757 38.0878
L37.0357 38.0878
" />
</g>
<g style="fill:#006464; fill-opacity:0.0; 
stroke:#006464; stroke-width:0.1524; stroke-opacity:1; 
stroke-linecap:round; stroke-linejoin:round;">
<text x="40.0837" y="38.7228"
textLength="2.1385" font-size="1.6933" lengthAdjust="spacingAndGlyphs"
text-anchor="start" opacity="0">HI</text>
<g class="stroked-text"><desc>HI</desc>
<path d="M40.4862 38.6673
L40.4862 37.3973
" />
<path d="M40.4862 38.0021
L41.2119 38.0021
" />
<path d="M41.2119 38.6673
L41.2119 37.3973
" />
<path d="M41.8167 38.6673
L41.8167 37.3973
" />
</g></g>
<g style="fill:#A90000; fill-opacity:0.0; 
stroke:#A90000; stroke-width:0.1524; stroke-opacity:1; 
stroke-linecap:round; stroke-linejoin:round;">
<text x="38.3057" y="37.8338"
textLength="1.4127" font-size="1.6933" lengthAdjust="spacingAndGlyphs"
text-anchor="middle" opacity="0">5</text>
<g class="stroked-text"><desc>5</desc>
<path d="M38.6081 36.4003
L38.0033 36.4003
" />
<path d="M38.0033 36.4003
L37.9429 37.0051
" />
<path d="M37.9429 37.0051
L38.0033 36.9446
" />
<path d="M38.0033 36.9446
L38.1243 36.8841
" />
<path d="M38.1243 36.8841
L38.4267 36.8841
" />
<path d="M38.4267 36.8841
L38.5476 36.9446
" />
<path d="M38.5476 36.9446
L38.6081 37.0051
" />
<path d="M38.6081 37.0051
L38.6686 37.1260
" />
<path d="M38.6686 37.1260
L38.6686 37.4284
" />
<path d="M38.6686 37.4284
L38.6081 37.5494
" />
<path d="M38.6081 37.5494
L38.5476 37.6099
" />
<path d="M38.5476 37.6099
L38.4267 37.6703
" />
<path d="M38.4267 37.6703
L38.1243 37.6703
" />
<path d="M38.1243 37.6703
L38.0033 37.6099
" />
<path d="M38.0033 37.6099
L37.9429 37.5494
" />
</g></g>
<g style="fill:#840000; fill-opacity:0.0; 
stroke:#840000; stroke-width:0.1524; stroke-opacity:1; 
stroke-linecap:round; stroke-linejoin:round;">
<path d="M39.5757 40.6278
L37.0357 40.6278
" />
</g>
<g style="fill:#006464; fill-opacity:0.0; 
stroke:#006464; stroke-width:0.1524; stroke-opacity:1; 
stroke-linecap:round; stroke-linejoin:round;">
<text x="40.0837" y="41.2628"
textLength="1.8361" font-size="1.6933" lengthAdjust="spacingAndGlyphs"
text-anchor="start" opacity="0">LI</text>
<g class="stroked-text"><desc>LI</desc>
<path d="M41.0910 41.2073
L40.4862 41.2073
" />
<path d="M40.4862 41.2073
L40.4862 39.9373
" />
<path d="M41.5143 41.2073
L41.5143 39.9373
" />
</g></g>
<g style="fill:#A90000; fill-opacity:0.0; 
stroke:#A90000; stroke-width:0.1524; stroke-opacity:1; 
stroke-linecap:round; stroke-linejoin:round;">
<text x="38.3057" y="40.3738"
textLength="1.4127" font-size="1.6933" lengthAdjust="spacingAndGlyphs"
text-anchor="middle" opacity="0">6</text>
<g class="stroked-text"><desc>6</desc>
<path d="M38.5476 38.9403
L38.3057 38.9403
" />
<path d="M38.3057 38.9403
L38.1848 39.0008
" />
<path d="M38.1848 39.0008
L38.1243 39.0613
" />
<path d="M38.1243 39.0613
L38.0033 39.2427
" />
<path d="M38.0033 39.2427
L37.9429 39.4846
" />
<path d="M37.9429 39.4846
L37.9429 39.9684
" />
<path d="M37.9429 39.9684
L38.0033 40.0894
" />
<path d="M38.0033 40.0894
L38.0638 40.1499
" />
<path d="M38.0638 40.1499
L38.1848 40.2103
" />
<path d="M38.1848 40.2103
L38.4267 40.2103
" />
<path d="M38.4267 40.2103
L38.5476 40.1499
" />
<path d="M38.5476 40.1499
L38.6081 40.0894
" />
<path d="M38.6081 40.0894
L38.6686 39.9684
" />
<path d="M38.6686 39.9684
L38.6686 39.6660
" />
<path d="M38.6686 39.6660
L38.6081 39.5451
" />
<path d="M38.6081 39.5451
L38.5476 39.4846
" />
<path d="M38.5476 39.4846
L38.4267 39.4241
" />
<path d="M38.4267 39.4241
L38.1848 39.4241
" />
<path d="M38.1848 39.4241
L38.0638 39.4846
" />
<path d="M38.0638 39.4846
L38.0033 39.5451
" />
<path d="M38.0033 39.5451
L37.9429 39.6660
" />
</g></g>
<g style="fill:#840000; fill-opacity:0.0; 
stroke:#840000; stroke-width:0.1524; stroke-opacity:1; 
stroke-linecap:round; stroke-linejoin:round;">
<path d="M39.5757 43.1678
L37.0357 43.1678
" />
</g>
<g style="fill:#006464; fill-opacity:0.0; 
stroke:#006464; stroke-width:0.1524; stroke-opacity:1; 
stroke-linecap:round; stroke-linejoin:round;">
<text x="40.0837" y="43.8028"
textLength="3.7108" font-size="1.6933" lengthAdjust="spacingAndGlyphs"
text-anchor="start" opacity="0">VSS</text>
<g class="stroked-text"><desc>VSS</desc>
<path d="M40.3048 42.4773
L40.7281 43.7473
" />
<path d="M40.7281 43.7473
L41.1515 42.4773
" />
<path d="M41.5144 43.6869
L41.6958 43.7473
" />
<path d="M41.6958 43.7473
L41.9982 43.7473
" />
<path d="M41.9982 43.7473
L42.1191 43.6869
" />
<path d="M42.1191 43.6869
L42.1796 43.6264
" />
<path d="M42.1796 43.6264
L42.2401 43.5054
" />
<path d="M42.2401 43.5054
L42.2401 43.3845
" />
<path d="M42.2401 43.3845
L42.1796 43.2635
" />
<path d="M42.1796 43.2635
L42.1191 43.2030
" />
<path d="M42.1191 43.2030
L41.9982 43.1426
" />
<path d="M41.9982 43.1426
L41.7563 43.0821
" />
<path d="M41.7563 43.0821
L41.6353 43.0216
" />
<path d="M41.6353 43.0216
L41.5748 42.9611
" />
<path d="M41.5748 42.9611
L41.5144 42.8402
" />
<path d="M41.5144 42.8402
L41.5144 42.7192
" />
<path d="M41.5144 42.7192
L41.5748 42.5983
" />
<path d="M41.5748 42.5983
L41.6353 42.5378
" />
<path d="M41.6353 42.5378
L41.7563 42.4773
" />
<path d="M41.7563 42.4773
L42.0586 42.4773
" />
<path d="M42.0586 42.4773
L42.2401 42.5378
" />
<path d="M42.7239 43.6869
L42.9053 43.7473
" />
<path d="M42.9053 43.7473
L43.2077 43.7473
" />
<path d="M43.2077 43.7473
L43.3286 43.6869
" />
<path d="M43.3286 43.6869
L43.3891 43.6264
" />
<path d="M43.3891 43.6264
L43.4496 43.5054
" />
<path d="M43.4496 43.5054
L43.4496 43.3845
" />
<path d="M43.4496 43.3845
L43.3891 43.2635
" />
<path d="M43.3891 43.2635
L43.3286 43.2030
" />
<path d="M43.3286 43.2030
L43.2077 43.1426
" />
<path d="M43.2077 43.1426
L42.9658 43.0821
" />
<path d="M42.9658 43.0821
L42.8448 43.0216
" />
<path d="M42.8448 43.0216
L42.7843 42.9611
" />
<path d="M42.7843 42.9611
L42.7239 42.8402
" />
<path d="M42.7239 42.8402
L42.7239 42.7192
" />
<path d="M42.7239 42.7192
L42.7843 42.5983
" />
<path d="M42.7843 42.5983
L42.8448 42.5378
" />
<path d="M42.8448 42.5378
L42.9658 42.4773
" />
<path d="M42.9658 42.4773
L43.2681 42.4773
" />
<path d="M43.2681 42.4773
L43.4496 42.5378
" />
</g></g>
<g style="fill:#A90000; fill-opacity:0.0; 
stroke:#A90000; stroke-width:0.1524; stroke-opacity:1; 
stroke-linecap:round; stroke-linejoin:round;">
<text x="38.3057" y="42.9138"
textLength="1.4127" font-size="1.6933" lengthAdjust="spacingAndGlyphs"
text-anchor="middle" opacity="0">7</text>
<g class="stroked-text"><desc>7</desc>
<path d="M37.8824 41.4803
L38.7290 41.4803
" />
<path d="M38.7290 41.4803
L38.1848 42.7503
" />
</g></g>
<g style="fill:#840000; fill-opacity:0.0; 
stroke:#840000; stroke-width:0.1524; stroke-opacity:1; 
stroke-linecap:round; stroke-linejoin:round;">
<path d="M49.7357 43.1678
L52.2757 43.1678
" />
</g>
<g style="fill:#006464; fill-opacity:0.0; 
stroke:#006464; stroke-width:0.1524; stroke-opacity:1; 
stroke-linecap:round; stroke-linejoin:round;">
<text x="49.2277" y="43.8028"
textLength="2.5618" font-size="1.6933" lengthAdjust="spacingAndGlyphs"
text-anchor="end" opacity="0">LO</text>
<g class="stroked-text"><desc>LO</desc>
<path d="M47.6760 43.7473
L47.0712 43.7473
" />
<path d="M47.0712 43.7473
L47.0712 42.4773
" />
<path d="M48.3412 42.4773
L48.5831 42.4773
" />
<path d="M48.5831 42.4773
L48.7041 42.5378
" />
<path d="M48.7041 42.5378
L48.8250 42.6588
" />
<path d="M48.8250 42.6588
L48.8855 42.9007
" />
<path d="M48.8855 42.9007
L48.8855 43.3240
" />
<path d="M48.8855 43.3240
L48.8250 43.5659
" />
<path d="M48.8250 43.5659
L48.7041 43.6869
" />
<path d="M48.7041 43.6869
L48.5831 43.7473
" />
<path d="M48.5831 43.7473
L48.3412 43.7473
" />
<path d="M48.3412 43.7473
L48.2203 43.6869
" />
<path d="M48.2203 43.6869
L48.0993 43.5659
" />
<path d="M48.0993 43.5659
L48.0389 43.3240
" />
<path d="M48.0389 43.3240
L48.0389 42.9007
" />
<path d="M48.0389 42.9007
L48.0993 42.6588
" />
<path d="M48.0993 42.6588
L48.2203 42.5378
" />
<path d="M48.2203 42.5378
L48.3412 42.4773
" />
</g></g>
<g style="fill:#A90000; fill-opacity:0.0; 
stroke:#A90000; stroke-width:0.1524; stroke-opacity:1; 
stroke-linecap:round; stroke-linejoin:round;">
<text x="51.0057" y="42.9138"
textLength="1.4127" font-size="1.6933" lengthAdjust="spacingAndGlyphs"
text-anchor="middle" opacity="0">8</text>
<g class="stroked-text"><desc>8</desc>
<path d="M50.8848 42.0246
L50.7638 41.9641
" />
<path d="M50.7638 41.9641
L50.7033 41.9037
" />
<path d="M50.7033 41.9037
L50.6429 41.7827
" />
<path d="M50.6429 41.7827
L50.6429 41.7222
" />
<path d="M50.6429 41.7222
L50.7033 41.6013
" />
<path d="M50.7033 41.6013
L50.7638 41.5408
" />
<path d="M50.7638 41.5408
L50.8848 41.4803
" />
<path d="M50.8848 41.4803
L51.1267 41.4803
" />
<path d="M51.1267 41.4803
L51.2476 41.5408
" />
<path d="M51.2476 41.5408
L51.3081 41.6013
" />
<path d="M51.3081 41.6013
L51.3686 41.7222
" />
<path d="M51.3686 41.7222
L51.3686 41.7827
" />
<path d="M51.3686 41.7827
L51.3081 41.9037
" />
<path d="M51.3081 41.9037
L51.2476 41.9641
" />
<path d="M51.2476 41.9641
L51.1267 42.0246
" />
<path d="M51.1267 42.0246
L50.8848 42.0246
" />
<path d="M50.8848 42.0246
L50.7638 42.0851
" />
<path d="M50.7638 42.0851
L50.7033 42.1456
" />
<path d="M50.7033 42.1456
L50.6429 42.2665
" />
<path d="M50.6429 42.2665
L50.6429 42.5084
" />
<path d="M50.6429 42.5084
L50.7033 42.6294
" />
<path d="M50.7033 42.6294
L50.7638 42.6899
" />
<path d="M50.7638 42.6899
L50.8848 42.7503
" />
<path d="M50.8848 42.7503
L51.1267 42.7503
" />
<path d="M51.1267 42.7503
L51.2476 42.6899
" />
<path d="M51.2476 42.6899
L51.3081 42.6294
" />
<path d="M51.3081 42.6294
L51.3686 42.5084
" />
<path d="M51.3686 42.5084
L51.3686 42.2665
" />
<path d="M51.3686 42.2665
L51.3081 42.1456
" />
<path d="M51.3081 42.1456
L51.2476 42.0851
" />
<path d="M51.2476 42.0851
L51.1267 42.0246
" />
</g></g>
<g style="fill:#840000; fill-opacity:0.0; 
stroke:#840000; stroke-width:0.1524; stroke-opacity:1; 
stroke-linecap:round; stroke-linejoin:round;">
<path d="M44.6557 45.7078
L44.6557 48.2478
" />
</g>
<g style="fill:#006464; fill-opacity:0.0; 
stroke:#006464; stroke-width:0.1524; stroke-opacity:1; 
stroke-linecap:round; stroke-linejoin:round;">
<g transform="rotate(-90.000000 44.6557 45.1998)">
<text x="44.6557" y="45.8348"
textLength="2.6222" font-size="1.6933" lengthAdjust="spacingAndGlyphs"
text-anchor="start" opacity="0">EP</text>
</g>
<g class="stroked-text"><desc>EP</desc>
<path d="M44.5700 44.7972
L44.5700 44.3738
" />
<path d="M45.2352 44.1924
L45.2352 44.7972
" />
<path d="M45.2352 44.7972
L43.9652 44.7972
" />
<path d="M43.9652 44.7972
L43.9652 44.1924
" />
<path d="M45.2352 43.6482
L43.9652 43.6482
" />
<path d="M43.9652 43.6482
L43.9652 43.1644
" />
<path d="M43.9652 43.1644
L44.0257 43.0434
" />
<path d="M44.0257 43.0434
L44.0862 42.9829
" />
<path d="M44.0862 42.9829
L44.2071 42.9225
" />
<path d="M44.2071 42.9225
L44.3886 42.9225
" />
<path d="M44.3886 42.9225
L44.5095 42.9829
" />
<path d="M44.5095 42.9829
L44.5700 43.0434
" />
<path d="M44.5700 43.0434
L44.6305 43.1644
" />
<path d="M44.6305 43.1644
L44.6305 43.6482
" />
</g></g>
<g style="fill:#A90000; fill-opacity:0.0; 
stroke:#A90000; stroke-width:0.1524; stroke-opacity:1; 
stroke-linecap:round; stroke-linejoin:round;">
<g transform="rotate(-90.000000 44.4017 46.9778)">
<text x="44.4017" y="46.9778"
textLength="1.4127" font-size="1.6933" lengthAdjust="spacingAndGlyphs"
text-anchor="middle" opacity="0">9</text>
</g>
<g class="stroked-text"><desc>9</desc>
<path d="M44.2382 47.2196
L44.2382 46.9777
" />
<path d="M44.2382 46.9777
L44.1778 46.8567
" />
<path d="M44.1778 46.8567
L44.1173 46.7963
" />
<path d="M44.1173 46.7963
L43.9358 46.6753
" />
<path d="M43.9358 46.6753
L43.6939 46.6148
" />
<path d="M43.6939 46.6148
L43.2101 46.6148
" />
<path d="M43.2101 46.6148
L43.0892 46.6753
" />
<path d="M43.0892 46.6753
L43.0287 46.7358
" />
<path d="M43.0287 46.7358
L42.9682 46.8567
" />
<path d="M42.9682 46.8567
L42.9682 47.0986
" />
<path d="M42.9682 47.0986
L43.0287 47.2196
" />
<path d="M43.0287 47.2196
L43.0892 47.2801
" />
<path d="M43.0892 47.2801
L43.2101 47.3405
" />
<path d="M43.2101 47.3405
L43.5125 47.3405
" />
<path d="M43.5125 47.3405
L43.6335 47.2801
" />
<path d="M43.6335 47.2801
L43.6939 47.2196
" />
<path d="M43.6939 47.2196
L43.7544 47.0986
" />
<path d="M43.7544 47.0986
L43.7544 46.8567
" />
<path d="M43.7544 46.8567
L43.6939 46.7358
" />
<path d="M43.6939 46.7358
L43.6335 46.6753
" />
<path d="M43.6335 46.6753
L43.5125 46.6148
" />
</g></g>
<g style="fill:#840084; fill-opacity:0.0; 
stroke:#840084; stroke-width:0.1524; stroke-opacity:1; 
stroke-linecap:round; stroke-linejoin:round;">
</g>
<g style="fill:#006464; fill-opacity:0.0; 
stroke:#006464; stroke-width:0.1524; stroke-opacity:1; 
stroke-linecap:round; stroke-linejoin:round;">
</g>
<g style="fill:#006464; fill-opacity:0.0; 
stroke:#006464; stroke-width:0.1588; stroke-opacity:1; 
stroke-linecap:round; stroke-linejoin:round;">
<text x="44.6557" y="22.8478"
textLength="2.6415" font-size="1.6933" lengthAdjust="spacingAndGlyphs"
text-anchor="middle" opacity="0">U?</text>
<g class="stroked-text"><desc>U?</desc>
<path d="M43.7485 21.5220
L43.7485 22.5501
" />
<path d="M43.7485 22.5501
L43.8090 22.6711
" />
<path d="M43.8090 22.6711
L43.8695 22.7316
" />
<path d="M43.8695 22.7316
L43.9904 22.7920
" />
<path d="M43.9904 22.7920
L44.2323 22.7920
" />
<path d="M44.2323 22.7920
L44.3533 22.7316
" />
<path d="M44.3533 22.7316
L44.4138 22.6711
" />
<path d="M44.4138 22.6711
L44.4742 22.5501
" />
<path d="M44.4742 22.5501
L44.4742 21.5220
" />
<path d="M45.2605 22.6711
L45.3209 22.7316
" />
<path d="M45.3209 22.7316
L45.2605 22.7920
" />
<path d="M45.2605 22.7920
L45.2000 22.7316
" />
<path d="M45.2000 22.7316
L45.2605 22.6711
" />
<path d="M45.2605 22.6711
L45.2605 22.7920
" />
<path d="M45.0186 21.5825
L45.1395 21.5220
" />
<path d="M45.1395 21.5220
L45.4419 21.5220
" />
<path d="M45.4419 21.5220
L45.5628 21.5825
" />
<path d="M45.5628 21.5825
L45.6233 21.7035
" />
<path d="M45.6233 21.7035
L45.6233 21.8244
" />
<path d="M45.6233 21.8244
L45.5628 21.9454
" />
<path d="M45.5628 21.9454
L45.5024 22.0058
" />
<path d="M45.5024 22.0058
L45.3814 22.0663
" />
<path d="M45.3814 22.0663
L45.3209 22.1268
" />
<path d="M45.3209 22.1268
L45.2605 22.2477
" />
<path d="M45.2605 22.2477
L45.2605 22.3082
" />
</g><text x="44.6557" y="24.7528"
textLength="16.0671" font-size="1.6933" lengthAdjust="spacingAndGlyphs"
text-anchor="middle" opacity="0">HIP2100_EPSOIC</text>
<g class="stroked-text"><desc>HIP2100_EPSOIC</desc>
<path d="M37.0357 24.6970
L37.0357 23.4270
" />
<path d="M37.0357 24.0318
L37.7614 24.0318
" />
<path d="M37.7614 24.6970
L37.7614 23.4270
" />
<path d="M38.3662 24.6970
L38.3662 23.4270
" />
<path d="M38.9710 24.6970
L38.9710 23.4270
" />
<path d="M38.9710 23.4270
L39.4548 23.4270
" />
<path d="M39.4548 23.4270
L39.5758 23.4875
" />
<path d="M39.5758 23.4875
L39.6363 23.5480
" />
<path d="M39.6363 23.5480
L39.6967 23.6689
" />
<path d="M39.6967 23.6689
L39.6967 23.8504
" />
<path d="M39.6967 23.8504
L39.6363 23.9713
" />
<path d="M39.6363 23.9713
L39.5758 24.0318
" />
<path d="M39.5758 24.0318
L39.4548 24.0923
" />
<path d="M39.4548 24.0923
L38.9710 24.0923
" />
<path d="M40.1806 23.5480
L40.2410 23.4875
" />
<path d="M40.2410 23.4875
L40.3620 23.4270
" />
<path d="M40.3620 23.4270
L40.6644 23.4270
" />
<path d="M40.6644 23.4270
L40.7853 23.4875
" />
<path d="M40.7853 23.4875
L40.8458 23.5480
" />
<path d="M40.8458 23.5480
L40.9063 23.6689
" />
<path d="M40.9063 23.6689
L40.9063 23.7899
" />
<path d="M40.9063 23.7899
L40.8458 23.9713
" />
<path d="M40.8458 23.9713
L40.1201 24.6970
" />
<path d="M40.1201 24.6970
L40.9063 24.6970
" />
<path d="M42.1158 24.6970
L41.3901 24.6970
" />
<path d="M41.7529 24.6970
L41.7529 23.4270
" />
<path d="M41.7529 23.4270
L41.6320 23.6085
" />
<path d="M41.6320 23.6085
L41.5110 23.7294
" />
<path d="M41.5110 23.7294
L41.3901 23.7899
" />
<path d="M42.9019 23.4270
L43.0229 23.4270
" />
<path d="M43.0229 23.4270
L43.1438 23.4875
" />
<path d="M43.1438 23.4875
L43.2043 23.5480
" />
<path d="M43.2043 23.5480
L43.2648 23.6689
" />
<path d="M43.2648 23.6689
L43.3253 23.9108
" />
<path d="M43.3253 23.9108
L43.3253 24.2132
" />
<path d="M43.3253 24.2132
L43.2648 24.4551
" />
<path d="M43.2648 24.4551
L43.2043 24.5761
" />
<path d="M43.2043 24.5761
L43.1438 24.6366
" />
<path d="M43.1438 24.6366
L43.0229 24.6970
" />
<path d="M43.0229 24.6970
L42.9019 24.6970
" />
<path d="M42.9019 24.6970
L42.7810 24.6366
" />
<path d="M42.7810 24.6366
L42.7205 24.5761
" />
<path d="M42.7205 24.5761
L42.6600 24.4551
" />
<path d="M42.6600 24.4551
L42.5996 24.2132
" />
<path d="M42.5996 24.2132
L42.5996 23.9108
" />
<path d="M42.5996 23.9108
L42.6600 23.6689
" />
<path d="M42.6600 23.6689
L42.7205 23.5480
" />
<path d="M42.7205 23.5480
L42.7810 23.4875
" />
<path d="M42.7810 23.4875
L42.9019 23.4270
" />
<path d="M44.1114 23.4270
L44.2324 23.4270
" />
<path d="M44.2324 23.4270
L44.3533 23.4875
" />
<path d="M44.3533 23.4875
L44.4138 23.5480
" />
<path d="M44.4138 23.5480
L44.4743 23.6689
" />
<path d="M44.4743 23.6689
L44.5348 23.9108
" />
<path d="M44.5348 23.9108
L44.5348 24.2132
" />
<path d="M44.5348 24.2132
L44.4743 24.4551
" />
<path d="M44.4743 24.4551
L44.4138 24.5761
" />
<path d="M44.4138 24.5761
L44.3533 24.6366
" />
<path d="M44.3533 24.6366
L44.2324 24.6970
" />
<path d="M44.2324 24.6970
L44.1114 24.6970
" />
<path d="M44.1114 24.6970
L43.9905 24.6366
" />
<path d="M43.9905 24.6366
L43.9300 24.5761
" />
<path d="M43.9300 24.5761
L43.8695 24.4551
" />
<path d="M43.8695 24.4551
L43.8091 24.2132
" />
<path d="M43.8091 24.2132
L43.8091 23.9108
" />
<path d="M43.8091 23.9108
L43.8695 23.6689
" />
<path d="M43.8695 23.6689
L43.9300 23.5480
" />
<path d="M43.9300 23.5480
L43.9905 23.4875
" />
<path d="M43.9905 23.4875
L44.1114 23.4270
" />
<path d="M44.7767 24.8180
L45.7443 24.8180
" />
<path d="M46.0466 24.0318
L46.4700 24.0318
" />
<path d="M46.6514 24.6970
L46.0466 24.6970
" />
<path d="M46.0466 24.6970
L46.0466 23.4270
" />
<path d="M46.0466 23.4270
L46.6514 23.4270
" />
<path d="M47.1956 24.6970
L47.1956 23.4270
" />
<path d="M47.1956 23.4270
L47.6794 23.4270
" />
<path d="M47.6794 23.4270
L47.8004 23.4875
" />
<path d="M47.8004 23.4875
L47.8609 23.5480
" />
<path d="M47.8609 23.5480
L47.9213 23.6689
" />
<path d="M47.9213 23.6689
L47.9213 23.8504
" />
<path d="M47.9213 23.8504
L47.8609 23.9713
" />
<path d="M47.8609 23.9713
L47.8004 24.0318
" />
<path d="M47.8004 24.0318
L47.6794 24.0923
" />
<path d="M47.6794 24.0923
L47.1956 24.0923
" />
<path d="M48.4052 24.6366
L48.5866 24.6970
" />
<path d="M48.5866 24.6970
L48.8890 24.6970
" />
<path d="M48.8890 24.6970
L49.0099 24.6366
" />
<path d="M49.0099 24.6366
L49.0704 24.5761
" />
<path d="M49.0704 24.5761
L49.1309 24.4551
" />
<path d="M49.1309 24.4551
L49.1309 24.3342
" />
<path d="M49.1309 24.3342
L49.0704 24.2132
" />
<path d="M49.0704 24.2132
L49.0099 24.1527
" />
<path d="M49.0099 24.1527
L48.8890 24.0923
" />
<path d="M48.8890 24.0923
L48.6471 24.0318
" />
<path d="M48.6471 24.0318
L48.5261 23.9713
" />
<path d="M48.5261 23.9713
L48.4656 23.9108
" />
<path d="M48.4656 23.9108
L48.4052 23.7899
" />
<path d="M48.4052 23.7899
L48.4052 23.6689
" />
<path d="M48.4052 23.6689
L48.4656 23.5480
" />
<path d="M48.4656 23.5480
L48.5261 23.4875
" />
<path d="M48.5261 23.4875
L48.6471 23.4270
" />
<path d="M48.6471 23.4270
L48.9494 23.4270
" />
<path d="M48.9494 23.4270
L49.1309 23.4875
" />
<path d="M49.9170 23.4270
L50.1589 23.4270
" />
<path d="M50.1589 23.4270
L50.2799 23.4875
" />
<path d="M50.2799 23.4875
L50.4008 23.6085
" />
<path d="M50.4008 23.6085
L50.4613 23.8504
" />
<path d="M50.4613 23.8504
L50.4613 24.2737
" />
<path d="M50.4613 24.2737
L50.4008 24.5156
" />
<path d="M50.4008 24.5156
L50.2799 24.6366
" />
<path d="M50.2799 24.6366
L50.1589 24.6970
" />
<path d="M50.1589 24.6970
L49.9170 24.6970
" />
<path d="M49.9170 24.6970
L49.7961 24.6366
" />
<path d="M49.7961 24.6366
L49.6751 24.5156
" />
<path d="M49.6751 24.5156
L49.6147 24.2737
" />
<path d="M49.6147 24.2737
L49.6147 23.8504
" />
<path d="M49.6147 23.8504
L49.6751 23.6085
" />
<path d="M49.6751 23.6085
L49.7961 23.4875
" />
<path d="M49.7961 23.4875
L49.9170 23.4270
" />
<path d="M51.0056 24.6970
L51.0056 23.4270
" />
<path d="M52.3361 24.5761
L52.2757 24.6366
" />
<path d="M52.2757 24.6366
L52.0942 24.6970
" />
<path d="M52.0942 24.6970
L51.9733 24.6970
" />
<path d="M51.9733 24.6970
L51.7919 24.6366
" />
<path d="M51.7919 24.6366
L51.6709 24.5156
" />
<path d="M51.6709 24.5156
L51.6104 24.3946
" />
<path d="M51.6104 24.3946
L51.5500 24.1527
" />
<path d="M51.5500 24.1527
L51.5500 23.9713
" />
<path d="M51.5500 23.9713
L51.6104 23.7294
" />
<path d="M51.6104 23.7294
L51.6709 23.6085
" />
<path d="M51.6709 23.6085
L51.7919 23.4875
" />
<path d="M51.7919 23.4875
L51.9733 23.4270
" />
<path d="M51.9733 23.4270
L52.0942 23.4270
" />
<path d="M52.0942 23.4270
L52.2757 23.4875
" />
<path d="M52.2757 23.4875
L52.3361 23.5480
" />
</g></g>
<g style="fill:#840084; fill-opacity:0.0; 
stroke:#840084; stroke-width:0.1588; stroke-opacity:1; 
stroke-linecap:round; stroke-linejoin:round;">
<text x="44.7351" y="53.9628"
textLength="62.2100" font-size="1.6933" lengthAdjust="spacingAndGlyphs"
text-anchor="middle" opacity="0">Package_SO:SOIC-8-1EP_3.9x4.9mm_P1.27mm_EP2.514x3.2mm</text>
<g class="stroked-text"><desc>Package_SO:SOIC-8-1EP_3.9x4.9mm_P1.27mm_EP2.514x3.2mm</desc>
<path d="M14.0361 53.9070
L14.1948 52.6370
" />
<path d="M14.1948 52.6370
L14.6786 52.6370
" />
<path d="M14.6786 52.6370
L14.7920 52.6975
" />
<path d="M14.7920 52.6975
L14.8449 52.7580
" />
<path d="M14.8449 52.7580
L14.8903 52.8789
" />
<path d="M14.8903 52.8789
L14.8676 53.0604
" />
<path d="M14.8676 53.0604
L14.7920 53.1813
" />
<path d="M14.7920 53.1813
L14.7240 53.2418
" />
<path d="M14.7240 53.2418
L14.5955 53.3023
" />
<path d="M14.5955 53.3023
L14.1117 53.3023
" />
<path d="M15.8504 53.9070
L15.9335 53.2418
" />
<path d="M15.9335 53.2418
L15.8882 53.1208
" />
<path d="M15.8882 53.1208
L15.7748 53.0604
" />
<path d="M15.7748 53.0604
L15.5329 53.0604
" />
<path d="M15.5329 53.0604
L15.4043 53.1208
" />
<path d="M15.8579 53.8466
L15.7294 53.9070
" />
<path d="M15.7294 53.9070
L15.4270 53.9070
" />
<path d="M15.4270 53.9070
L15.3136 53.8466
" />
<path d="M15.3136 53.8466
L15.2683 53.7256
" />
<path d="M15.2683 53.7256
L15.2834 53.6046
" />
<path d="M15.2834 53.6046
L15.3590 53.4837
" />
<path d="M15.3590 53.4837
L15.4875 53.4232
" />
<path d="M15.4875 53.4232
L15.7899 53.4232
" />
<path d="M15.7899 53.4232
L15.9184 53.3627
" />
<path d="M17.0069 53.8466
L16.8784 53.9070
" />
<path d="M16.8784 53.9070
L16.6365 53.9070
" />
<path d="M16.6365 53.9070
L16.5231 53.8466
" />
<path d="M16.5231 53.8466
L16.4702 53.7861
" />
<path d="M16.4702 53.7861
L16.4248 53.6651
" />
<path d="M16.4248 53.6651
L16.4702 53.3023
" />
<path d="M16.4702 53.3023
L16.5458 53.1813
" />
<path d="M16.5458 53.1813
L16.6138 53.1208
" />
<path d="M16.6138 53.1208
L16.7423 53.0604
" />
<path d="M16.7423 53.0604
L16.9842 53.0604
" />
<path d="M16.9842 53.0604
L17.0976 53.1208
" />
<path d="M17.5437 53.9070
L17.7024 52.6370
" />
<path d="M17.7251 53.4232
L18.0275 53.9070
" />
<path d="M18.1333 53.0604
L17.5890 53.5442
" />
<path d="M19.1161 53.9070
L19.1992 53.2418
" />
<path d="M19.1992 53.2418
L19.1539 53.1208
" />
<path d="M19.1539 53.1208
L19.0405 53.0604
" />
<path d="M19.0405 53.0604
L18.7986 53.0604
" />
<path d="M18.7986 53.0604
L18.6700 53.1208
" />
<path d="M19.1236 53.8466
L18.9951 53.9070
" />
<path d="M18.9951 53.9070
L18.6927 53.9070
" />
<path d="M18.6927 53.9070
L18.5793 53.8466
" />
<path d="M18.5793 53.8466
L18.5340 53.7256
" />
<path d="M18.5340 53.7256
L18.5491 53.6046
" />
<path d="M18.5491 53.6046
L18.6247 53.4837
" />
<path d="M18.6247 53.4837
L18.7532 53.4232
" />
<path d="M18.7532 53.4232
L19.0556 53.4232
" />
<path d="M19.0556 53.4232
L19.1841 53.3627
" />
<path d="M20.3709 53.0604
L20.2424 54.0885
" />
<path d="M20.2424 54.0885
L20.1668 54.2094
" />
<path d="M20.1668 54.2094
L20.0987 54.2699
" />
<path d="M20.0987 54.2699
L19.9702 54.3304
" />
<path d="M19.9702 54.3304
L19.7888 54.3304
" />
<path d="M19.7888 54.3304
L19.6754 54.2699
" />
<path d="M20.2726 53.8466
L20.1441 53.9070
" />
<path d="M20.1441 53.9070
L19.9022 53.9070
" />
<path d="M19.9022 53.9070
L19.7888 53.8466
" />
<path d="M19.7888 53.8466
L19.7359 53.7861
" />
<path d="M19.7359 53.7861
L19.6905 53.6651
" />
<path d="M19.6905 53.6651
L19.7359 53.3023
" />
<path d="M19.7359 53.3023
L19.8115 53.1813
" />
<path d="M19.8115 53.1813
L19.8795 53.1208
" />
<path d="M19.8795 53.1208
L20.0080 53.0604
" />
<path d="M20.0080 53.0604
L20.2499 53.0604
" />
<path d="M20.2499 53.0604
L20.3633 53.1208
" />
<path d="M21.3611 53.8466
L21.2326 53.9070
" />
<path d="M21.2326 53.9070
L20.9907 53.9070
" />
<path d="M20.9907 53.9070
L20.8773 53.8466
" />
<path d="M20.8773 53.8466
L20.8320 53.7256
" />
<path d="M20.8320 53.7256
L20.8925 53.2418
" />
<path d="M20.8925 53.2418
L20.9680 53.1208
" />
<path d="M20.9680 53.1208
L21.0966 53.0604
" />
<path d="M21.0966 53.0604
L21.3385 53.0604
" />
<path d="M21.3385 53.0604
L21.4519 53.1208
" />
<path d="M21.4519 53.1208
L21.4972 53.2418
" />
<path d="M21.4972 53.2418
L21.4821 53.3627
" />
<path d="M21.4821 53.3627
L20.8622 53.4837
" />
<path d="M21.6409 54.0280
L22.6085 54.0280
" />
<path d="M22.8731 53.8466
L23.0469 53.9070
" />
<path d="M23.0469 53.9070
L23.3493 53.9070
" />
<path d="M23.3493 53.9070
L23.4778 53.8466
" />
<path d="M23.4778 53.8466
L23.5459 53.7861
" />
<path d="M23.5459 53.7861
L23.6214 53.6651
" />
<path d="M23.6214 53.6651
L23.6366 53.5442
" />
<path d="M23.6366 53.5442
L23.5912 53.4232
" />
<path d="M23.5912 53.4232
L23.5383 53.3627
" />
<path d="M23.5383 53.3627
L23.4249 53.3023
" />
<path d="M23.4249 53.3023
L23.1906 53.2418
" />
<path d="M23.1906 53.2418
L23.0772 53.1813
" />
<path d="M23.0772 53.1813
L23.0242 53.1208
" />
<path d="M23.0242 53.1208
L22.9789 52.9999
" />
<path d="M22.9789 52.9999
L22.9940 52.8789
" />
<path d="M22.9940 52.8789
L23.0696 52.7580
" />
<path d="M23.0696 52.7580
L23.1376 52.6975
" />
<path d="M23.1376 52.6975
L23.2662 52.6370
" />
<path d="M23.2662 52.6370
L23.5685 52.6370
" />
<path d="M23.5685 52.6370
L23.7424 52.6975
" />
<path d="M24.5361 52.6370
L24.7780 52.6370
" />
<path d="M24.7780 52.6370
L24.8914 52.6975
" />
<path d="M24.8914 52.6975
L24.9973 52.8185
" />
<path d="M24.9973 52.8185
L25.0275 53.0604
" />
<path d="M25.0275 53.0604
L24.9746 53.4837
" />
<path d="M24.9746 53.4837
L24.8839 53.7256
" />
<path d="M24.8839 53.7256
L24.7478 53.8466
" />
<path d="M24.7478 53.8466
L24.6193 53.9070
" />
<path d="M24.6193 53.9070
L24.3774 53.9070
" />
<path d="M24.3774 53.9070
L24.2640 53.8466
" />
<path d="M24.2640 53.8466
L24.1582 53.7256
" />
<path d="M24.1582 53.7256
L24.1279 53.4837
" />
<path d="M24.1279 53.4837
L24.1808 53.0604
" />
<path d="M24.1808 53.0604
L24.2715 52.8185
" />
<path d="M24.2715 52.8185
L24.4076 52.6975
" />
<path d="M24.4076 52.6975
L24.5361 52.6370
" />
<path d="M25.4811 53.7861
L25.5340 53.8466
" />
<path d="M25.5340 53.8466
L25.4660 53.9070
" />
<path d="M25.4660 53.9070
L25.4131 53.8466
" />
<path d="M25.4131 53.8466
L25.4811 53.7861
" />
<path d="M25.4811 53.7861
L25.4660 53.9070
" />
<path d="M25.5642 53.1208
L25.6172 53.1813
" />
<path d="M25.6172 53.1813
L25.5491 53.2418
" />
<path d="M25.5491 53.2418
L25.4962 53.1813
" />
<path d="M25.4962 53.1813
L25.5642 53.1208
" />
<path d="M25.5642 53.1208
L25.5491 53.2418
" />
<path d="M26.0179 53.8466
L26.1917 53.9070
" />
<path d="M26.1917 53.9070
L26.4941 53.9070
" />
<path d="M26.4941 53.9070
L26.6226 53.8466
" />
<path d="M26.6226 53.8466
L26.6907 53.7861
" />
<path d="M26.6907 53.7861
L26.7662 53.6651
" />
<path d="M26.7662 53.6651
L26.7814 53.5442
" />
<path d="M26.7814 53.5442
L26.7360 53.4232
" />
<path d="M26.7360 53.4232
L26.6831 53.3627
" />
<path d="M26.6831 53.3627
L26.5697 53.3023
" />
<path d="M26.5697 53.3023
L26.3354 53.2418
" />
<path d="M26.3354 53.2418
L26.2220 53.1813
" />
<path d="M26.2220 53.1813
L26.1690 53.1208
" />
<path d="M26.1690 53.1208
L26.1237 52.9999
" />
<path d="M26.1237 52.9999
L26.1388 52.8789
" />
<path d="M26.1388 52.8789
L26.2144 52.7580
" />
<path d="M26.2144 52.7580
L26.2824 52.6975
" />
<path d="M26.2824 52.6975
L26.4110 52.6370
" />
<path d="M26.4110 52.6370
L26.7133 52.6370
" />
<path d="M26.7133 52.6370
L26.8872 52.6975
" />
<path d="M27.6809 52.6370
L27.9228 52.6370
" />
<path d="M27.9228 52.6370
L28.0362 52.6975
" />
<path d="M28.0362 52.6975
L28.1421 52.8185
" />
<path d="M28.1421 52.8185
L28.1723 53.0604
" />
<path d="M28.1723 53.0604
L28.1194 53.4837
" />
<path d="M28.1194 53.4837
L28.0287 53.7256
" />
<path d="M28.0287 53.7256
L27.8926 53.8466
" />
<path d="M27.8926 53.8466
L27.7641 53.9070
" />
<path d="M27.7641 53.9070
L27.5222 53.9070
" />
<path d="M27.5222 53.9070
L27.4088 53.8466
" />
<path d="M27.4088 53.8466
L27.3030 53.7256
" />
<path d="M27.3030 53.7256
L27.2727 53.4837
" />
<path d="M27.2727 53.4837
L27.3256 53.0604
" />
<path d="M27.3256 53.0604
L27.4163 52.8185
" />
<path d="M27.4163 52.8185
L27.5524 52.6975
" />
<path d="M27.5524 52.6975
L27.6809 52.6370
" />
<path d="M28.6108 53.9070
L28.7695 52.6370
" />
<path d="M29.9564 53.7861
L29.8884 53.8466
" />
<path d="M29.8884 53.8466
L29.6994 53.9070
" />
<path d="M29.6994 53.9070
L29.5784 53.9070
" />
<path d="M29.5784 53.9070
L29.4046 53.8466
" />
<path d="M29.4046 53.8466
L29.2987 53.7256
" />
<path d="M29.2987 53.7256
L29.2534 53.6046
" />
<path d="M29.2534 53.6046
L29.2231 53.3627
" />
<path d="M29.2231 53.3627
L29.2458 53.1813
" />
<path d="M29.2458 53.1813
L29.3365 52.9394
" />
<path d="M29.3365 52.9394
L29.4121 52.8185
" />
<path d="M29.4121 52.8185
L29.5482 52.6975
" />
<path d="M29.5482 52.6975
L29.7372 52.6370
" />
<path d="M29.7372 52.6370
L29.8581 52.6370
" />
<path d="M29.8581 52.6370
L30.0320 52.6975
" />
<path d="M30.0320 52.6975
L30.0849 52.7580
" />
<path d="M30.5460 53.4232
L31.5137 53.4232
" />
<path d="M32.3301 53.1813
L32.2167 53.1208
" />
<path d="M32.2167 53.1208
L32.1638 53.0604
" />
<path d="M32.1638 53.0604
L32.1184 52.9394
" />
<path d="M32.1184 52.9394
L32.1260 52.8789
" />
<path d="M32.1260 52.8789
L32.2016 52.7580
" />
<path d="M32.2016 52.7580
L32.2696 52.6975
" />
<path d="M32.2696 52.6975
L32.3982 52.6370
" />
<path d="M32.3982 52.6370
L32.6401 52.6370
" />
<path d="M32.6401 52.6370
L32.7534 52.6975
" />
<path d="M32.7534 52.6975
L32.8064 52.7580
" />
<path d="M32.8064 52.7580
L32.8517 52.8789
" />
<path d="M32.8517 52.8789
L32.8442 52.9394
" />
<path d="M32.8442 52.9394
L32.7686 53.0604
" />
<path d="M32.7686 53.0604
L32.7005 53.1208
" />
<path d="M32.7005 53.1208
L32.5720 53.1813
" />
<path d="M32.5720 53.1813
L32.3301 53.1813
" />
<path d="M32.3301 53.1813
L32.2016 53.2418
" />
<path d="M32.2016 53.2418
L32.1336 53.3023
" />
<path d="M32.1336 53.3023
L32.0580 53.4232
" />
<path d="M32.0580 53.4232
L32.0277 53.6651
" />
<path d="M32.0277 53.6651
L32.0731 53.7861
" />
<path d="M32.0731 53.7861
L32.1260 53.8466
" />
<path d="M32.1260 53.8466
L32.2394 53.9070
" />
<path d="M32.2394 53.9070
L32.4813 53.9070
" />
<path d="M32.4813 53.9070
L32.6098 53.8466
" />
<path d="M32.6098 53.8466
L32.6779 53.7861
" />
<path d="M32.6779 53.7861
L32.7534 53.6651
" />
<path d="M32.7534 53.6651
L32.7837 53.4232
" />
<path d="M32.7837 53.4232
L32.7383 53.3023
" />
<path d="M32.7383 53.3023
L32.6854 53.2418
" />
<path d="M32.6854 53.2418
L32.5720 53.1813
" />
<path d="M33.3279 53.4232
L34.2956 53.4232
" />
<path d="M35.5051 53.9070
L34.7794 53.9070
" />
<path d="M35.1423 53.9070
L35.3010 52.6370
" />
<path d="M35.3010 52.6370
L35.1574 52.8185
" />
<path d="M35.1574 52.8185
L35.0213 52.9394
" />
<path d="M35.0213 52.9394
L34.8928 52.9999
" />
<path d="M36.1325 53.2418
L36.5559 53.2418
" />
<path d="M36.6541 53.9070
L36.0494 53.9070
" />
<path d="M36.0494 53.9070
L36.2081 52.6370
" />
<path d="M36.2081 52.6370
L36.8129 52.6370
" />
<path d="M37.1984 53.9070
L37.3571 52.6370
" />
<path d="M37.3571 52.6370
L37.8409 52.6370
" />
<path d="M37.8409 52.6370
L37.9543 52.6975
" />
<path d="M37.9543 52.6975
L38.0072 52.7580
" />
<path d="M38.0072 52.7580
L38.0526 52.8789
" />
<path d="M38.0526 52.8789
L38.0299 53.0604
" />
<path d="M38.0299 53.0604
L37.9543 53.1813
" />
<path d="M37.9543 53.1813
L37.8863 53.2418
" />
<path d="M37.8863 53.2418
L37.7578 53.3023
" />
<path d="M37.7578 53.3023
L37.2740 53.3023
" />
<path d="M38.1509 54.0280
L39.1185 54.0280
" />
<path d="M39.4738 52.6370
L40.2600 52.6370
" />
<path d="M40.2600 52.6370
L39.7762 53.1208
" />
<path d="M39.7762 53.1208
L39.9576 53.1208
" />
<path d="M39.9576 53.1208
L40.0710 53.1813
" />
<path d="M40.0710 53.1813
L40.1239 53.2418
" />
<path d="M40.1239 53.2418
L40.1692 53.3627
" />
<path d="M40.1692 53.3627
L40.1314 53.6651
" />
<path d="M40.1314 53.6651
L40.0559 53.7861
" />
<path d="M40.0559 53.7861
L39.9878 53.8466
" />
<path d="M39.9878 53.8466
L39.8593 53.9070
" />
<path d="M39.8593 53.9070
L39.4964 53.9070
" />
<path d="M39.4964 53.9070
L39.3831 53.8466
" />
<path d="M39.3831 53.8466
L39.3301 53.7861
" />
<path d="M40.6606 53.7861
L40.7135 53.8466
" />
<path d="M40.7135 53.8466
L40.6455 53.9070
" />
<path d="M40.6455 53.9070
L40.5926 53.8466
" />
<path d="M40.5926 53.8466
L40.6606 53.7861
" />
<path d="M40.6606 53.7861
L40.6455 53.9070
" />
<path d="M41.3107 53.9070
L41.5527 53.9070
" />
<path d="M41.5527 53.9070
L41.6812 53.8466
" />
<path d="M41.6812 53.8466
L41.7492 53.7861
" />
<path d="M41.7492 53.7861
L41.8928 53.6046
" />
<path d="M41.8928 53.6046
L41.9835 53.3627
" />
<path d="M41.9835 53.3627
L42.0440 52.8789
" />
<path d="M42.0440 52.8789
L41.9987 52.7580
" />
<path d="M41.9987 52.7580
L41.9457 52.6975
" />
<path d="M41.9457 52.6975
L41.8324 52.6370
" />
<path d="M41.8324 52.6370
L41.5905 52.6370
" />
<path d="M41.5905 52.6370
L41.4619 52.6975
" />
<path d="M41.4619 52.6975
L41.3939 52.7580
" />
<path d="M41.3939 52.7580
L41.3183 52.8789
" />
<path d="M41.3183 52.8789
L41.2805 53.1813
" />
<path d="M41.2805 53.1813
L41.3259 53.3023
" />
<path d="M41.3259 53.3023
L41.3788 53.3627
" />
<path d="M41.3788 53.3627
L41.4922 53.4232
" />
<path d="M41.4922 53.4232
L41.7341 53.4232
" />
<path d="M41.7341 53.4232
L41.8626 53.3627
" />
<path d="M41.8626 53.3627
L41.9306 53.3023
" />
<path d="M41.9306 53.3023
L42.0062 53.1813
" />
<path d="M42.3388 53.9070
L43.1099 53.0604
" />
<path d="M42.4447 53.0604
L43.0041 53.9070
" />
<path d="M44.1380 53.0604
L44.0322 53.9070
" />
<path d="M43.8961 52.5766
L43.4803 53.4837
" />
<path d="M43.4803 53.4837
L44.2665 53.4837
" />
<path d="M44.7125 53.7861
L44.7654 53.8466
" />
<path d="M44.7654 53.8466
L44.6974 53.9070
" />
<path d="M44.6974 53.9070
L44.6445 53.8466
" />
<path d="M44.6445 53.8466
L44.7125 53.7861
" />
<path d="M44.7125 53.7861
L44.6974 53.9070
" />
<path d="M45.3626 53.9070
L45.6046 53.9070
" />
<path d="M45.6046 53.9070
L45.7331 53.8466
" />
<path d="M45.7331 53.8466
L45.8011 53.7861
" />
<path d="M45.8011 53.7861
L45.9447 53.6046
" />
<path d="M45.9447 53.6046
L46.0354 53.3627
" />
<path d="M46.0354 53.3627
L46.0959 52.8789
" />
<path d="M46.0959 52.8789
L46.0506 52.7580
" />
<path d="M46.0506 52.7580
L45.9976 52.6975
" />
<path d="M45.9976 52.6975
L45.8843 52.6370
" />
<path d="M45.8843 52.6370
L45.6424 52.6370
" />
<path d="M45.6424 52.6370
L45.5138 52.6975
" />
<path d="M45.5138 52.6975
L45.4458 52.7580
" />
<path d="M45.4458 52.7580
L45.3702 52.8789
" />
<path d="M45.3702 52.8789
L45.3324 53.1813
" />
<path d="M45.3324 53.1813
L45.3778 53.3023
" />
<path d="M45.3778 53.3023
L45.4307 53.3627
" />
<path d="M45.4307 53.3627
L45.5441 53.4232
" />
<path d="M45.5441 53.4232
L45.7860 53.4232
" />
<path d="M45.7860 53.4232
L45.9145 53.3627
" />
<path d="M45.9145 53.3627
L45.9825 53.3023
" />
<path d="M45.9825 53.3023
L46.0581 53.1813
" />
<path d="M46.5117 53.9070
L46.6175 53.0604
" />
<path d="M46.6024 53.1813
L46.6704 53.1208
" />
<path d="M46.6704 53.1208
L46.7989 53.0604
" />
<path d="M46.7989 53.0604
L46.9804 53.0604
" />
<path d="M46.9804 53.0604
L47.0938 53.1208
" />
<path d="M47.0938 53.1208
L47.1391 53.2418
" />
<path d="M47.1391 53.2418
L47.0560 53.9070
" />
<path d="M47.1391 53.2418
L47.2147 53.1208
" />
<path d="M47.2147 53.1208
L47.3432 53.0604
" />
<path d="M47.3432 53.0604
L47.5246 53.0604
" />
<path d="M47.5246 53.0604
L47.6380 53.1208
" />
<path d="M47.6380 53.1208
L47.6834 53.2418
" />
<path d="M47.6834 53.2418
L47.6002 53.9070
" />
<path d="M48.2050 53.9070
L48.3108 53.0604
" />
<path d="M48.2957 53.1813
L48.3637 53.1208
" />
<path d="M48.3637 53.1208
L48.4922 53.0604
" />
<path d="M48.4922 53.0604
L48.6737 53.0604
" />
<path d="M48.6737 53.0604
L48.7871 53.1208
" />
<path d="M48.7871 53.1208
L48.8324 53.2418
" />
<path d="M48.8324 53.2418
L48.7493 53.9070
" />
<path d="M48.8324 53.2418
L48.9080 53.1208
" />
<path d="M48.9080 53.1208
L49.0365 53.0604
" />
<path d="M49.0365 53.0604
L49.2179 53.0604
" />
<path d="M49.2179 53.0604
L49.3313 53.1208
" />
<path d="M49.3313 53.1208
L49.3767 53.2418
" />
<path d="M49.3767 53.2418
L49.2935 53.9070
" />
<path d="M49.5808 54.0280
L50.5484 54.0280
" />
<path d="M50.8659 53.9070
L51.0246 52.6370
" />
<path d="M51.0246 52.6370
L51.5084 52.6370
" />
<path d="M51.5084 52.6370
L51.6218 52.6975
" />
<path d="M51.6218 52.6975
L51.6747 52.7580
" />
<path d="M51.6747 52.7580
L51.7201 52.8789
" />
<path d="M51.7201 52.8789
L51.6974 53.0604
" />
<path d="M51.6974 53.0604
L51.6218 53.1813
" />
<path d="M51.6218 53.1813
L51.5538 53.2418
" />
<path d="M51.5538 53.2418
L51.4253 53.3023
" />
<path d="M51.4253 53.3023
L50.9415 53.3023
" />
<path d="M52.8011 53.9070
L52.0754 53.9070
" />
<path d="M52.4383 53.9070
L52.5970 52.6370
" />
<path d="M52.5970 52.6370
L52.4534 52.8185
" />
<path d="M52.4534 52.8185
L52.3173 52.9394
" />
<path d="M52.3173 52.9394
L52.1888 52.9999
" />
<path d="M53.3605 53.7861
L53.4134 53.8466
" />
<path d="M53.4134 53.8466
L53.3454 53.9070
" />
<path d="M53.3454 53.9070
L53.2925 53.8466
" />
<path d="M53.2925 53.8466
L53.3605 53.7861
" />
<path d="M53.3605 53.7861
L53.3454 53.9070
" />
<path d="M54.0333 52.7580
L54.1014 52.6975
" />
<path d="M54.1014 52.6975
L54.2299 52.6370
" />
<path d="M54.2299 52.6370
L54.5323 52.6370
" />
<path d="M54.5323 52.6370
L54.6456 52.6975
" />
<path d="M54.6456 52.6975
L54.6986 52.7580
" />
<path d="M54.6986 52.7580
L54.7439 52.8789
" />
<path d="M54.7439 52.8789
L54.7288 52.9999
" />
<path d="M54.7288 52.9999
L54.6456 53.1813
" />
<path d="M54.6456 53.1813
L53.8292 53.9070
" />
<path d="M53.8292 53.9070
L54.6154 53.9070
" />
<path d="M55.1975 52.6370
L56.0441 52.6370
" />
<path d="M56.0441 52.6370
L55.3411 53.9070
" />
<path d="M56.3692 53.9070
L56.4750 53.0604
" />
<path d="M56.4599 53.1813
L56.5279 53.1208
" />
<path d="M56.5279 53.1208
L56.6564 53.0604
" />
<path d="M56.6564 53.0604
L56.8379 53.0604
" />
<path d="M56.8379 53.0604
L56.9513 53.1208
" />
<path d="M56.9513 53.1208
L56.9966 53.2418
" />
<path d="M56.9966 53.2418
L56.9135 53.9070
" />
<path d="M56.9966 53.2418
L57.0722 53.1208
" />
<path d="M57.0722 53.1208
L57.2007 53.0604
" />
<path d="M57.2007 53.0604
L57.3821 53.0604
" />
<path d="M57.3821 53.0604
L57.4955 53.1208
" />
<path d="M57.4955 53.1208
L57.5409 53.2418
" />
<path d="M57.5409 53.2418
L57.4577 53.9070
" />
<path d="M58.0625 53.9070
L58.1683 53.0604
" />
<path d="M58.1532 53.1813
L58.2212 53.1208
" />
<path d="M58.2212 53.1208
L58.3497 53.0604
" />
<path d="M58.3497 53.0604
L58.5312 53.0604
" />
<path d="M58.5312 53.0604
L58.6446 53.1208
" />
<path d="M58.6446 53.1208
L58.6899 53.2418
" />
<path d="M58.6899 53.2418
L58.6068 53.9070
" />
<path d="M58.6899 53.2418
L58.7655 53.1208
" />
<path d="M58.7655 53.1208
L58.8940 53.0604
" />
<path d="M58.8940 53.0604
L59.0754 53.0604
" />
<path d="M59.0754 53.0604
L59.1888 53.1208
" />
<path d="M59.1888 53.1208
L59.2342 53.2418
" />
<path d="M59.2342 53.2418
L59.1510 53.9070
" />
<path d="M59.4383 54.0280
L60.4059 54.0280
" />
<path d="M60.8065 53.2418
L61.2299 53.2418
" />
<path d="M61.3281 53.9070
L60.7234 53.9070
" />
<path d="M60.7234 53.9070
L60.8821 52.6370
" />
<path d="M60.8821 52.6370
L61.4869 52.6370
" />
<path d="M61.8724 53.9070
L62.0311 52.6370
" />
<path d="M62.0311 52.6370
L62.5149 52.6370
" />
<path d="M62.5149 52.6370
L62.6283 52.6975
" />
<path d="M62.6283 52.6975
L62.6812 52.7580
" />
<path d="M62.6812 52.7580
L62.7266 52.8789
" />
<path d="M62.7266 52.8789
L62.7039 53.0604
" />
<path d="M62.7039 53.0604
L62.6283 53.1813
" />
<path d="M62.6283 53.1813
L62.5603 53.2418
" />
<path d="M62.5603 53.2418
L62.4318 53.3023
" />
<path d="M62.4318 53.3023
L61.9480 53.3023
" />
<path d="M63.2255 52.7580
L63.2936 52.6975
" />
<path d="M63.2936 52.6975
L63.4221 52.6370
" />
<path d="M63.4221 52.6370
L63.7245 52.6370
" />
<path d="M63.7245 52.6370
L63.8378 52.6975
" />
<path d="M63.8378 52.6975
L63.8908 52.7580
" />
<path d="M63.8908 52.7580
L63.9361 52.8789
" />
<path d="M63.9361 52.8789
L63.9210 52.9999
" />
<path d="M63.9210 52.9999
L63.8378 53.1813
" />
<path d="M63.8378 53.1813
L63.0214 53.9070
" />
<path d="M63.0214 53.9070
L63.8076 53.9070
" />
<path d="M64.3670 53.7861
L64.4199 53.8466
" />
<path d="M64.4199 53.8466
L64.3519 53.9070
" />
<path d="M64.3519 53.9070
L64.2990 53.8466
" />
<path d="M64.2990 53.8466
L64.3670 53.7861
" />
<path d="M64.3670 53.7861
L64.3519 53.9070
" />
<path d="M65.7202 52.6370
L65.1154 52.6370
" />
<path d="M65.1154 52.6370
L64.9794 53.2418
" />
<path d="M64.9794 53.2418
L65.0474 53.1813
" />
<path d="M65.0474 53.1813
L65.1759 53.1208
" />
<path d="M65.1759 53.1208
L65.4783 53.1208
" />
<path d="M65.4783 53.1208
L65.5917 53.1813
" />
<path d="M65.5917 53.1813
L65.6446 53.2418
" />
<path d="M65.6446 53.2418
L65.6899 53.3627
" />
<path d="M65.6899 53.3627
L65.6521 53.6651
" />
<path d="M65.6521 53.6651
L65.5766 53.7861
" />
<path d="M65.5766 53.7861
L65.5085 53.8466
" />
<path d="M65.5085 53.8466
L65.3800 53.9070
" />
<path d="M65.3800 53.9070
L65.0776 53.9070
" />
<path d="M65.0776 53.9070
L64.9642 53.8466
" />
<path d="M64.9642 53.8466
L64.9113 53.7861
" />
<path d="M66.8314 53.9070
L66.1057 53.9070
" />
<path d="M66.4686 53.9070
L66.6273 52.6370
" />
<path d="M66.6273 52.6370
L66.4837 52.8185
" />
<path d="M66.4837 52.8185
L66.3476 52.9394
" />
<path d="M66.3476 52.9394
L66.2191 52.9999
" />
<path d="M68.0258 53.0604
L67.9200 53.9070
" />
<path d="M67.7839 52.5766
L67.3681 53.4837
" />
<path d="M67.3681 53.4837
L68.1543 53.4837
" />
<path d="M68.4642 53.9070
L69.2353 53.0604
" />
<path d="M68.5701 53.0604
L69.1295 53.9070
" />
<path d="M69.6511 52.6370
L70.4373 52.6370
" />
<path d="M70.4373 52.6370
L69.9535 53.1208
" />
<path d="M69.9535 53.1208
L70.1349 53.1208
" />
<path d="M70.1349 53.1208
L70.2483 53.1813
" />
<path d="M70.2483 53.1813
L70.3012 53.2418
" />
<path d="M70.3012 53.2418
L70.3465 53.3627
" />
<path d="M70.3465 53.3627
L70.3087 53.6651
" />
<path d="M70.3087 53.6651
L70.2332 53.7861
" />
<path d="M70.2332 53.7861
L70.1651 53.8466
" />
<path d="M70.1651 53.8466
L70.0366 53.9070
" />
<path d="M70.0366 53.9070
L69.6737 53.9070
" />
<path d="M69.6737 53.9070
L69.5604 53.8466
" />
<path d="M69.5604 53.8466
L69.5074 53.7861
" />
<path d="M70.8379 53.7861
L70.8908 53.8466
" />
<path d="M70.8908 53.8466
L70.8228 53.9070
" />
<path d="M70.8228 53.9070
L70.7699 53.8466
" />
<path d="M70.7699 53.8466
L70.8379 53.7861
" />
<path d="M70.8379 53.7861
L70.8228 53.9070
" />
<path d="M71.5107 52.7580
L71.5788 52.6975
" />
<path d="M71.5788 52.6975
L71.7073 52.6370
" />
<path d="M71.7073 52.6370
L72.0097 52.6370
" />
<path d="M72.0097 52.6370
L72.1230 52.6975
" />
<path d="M72.1230 52.6975
L72.1760 52.7580
" />
<path d="M72.1760 52.7580
L72.2213 52.8789
" />
<path d="M72.2213 52.8789
L72.2062 52.9999
" />
<path d="M72.2062 52.9999
L72.1230 53.1813
" />
<path d="M72.1230 53.1813
L71.3066 53.9070
" />
<path d="M71.3066 53.9070
L72.0928 53.9070
" />
<path d="M72.6371 53.9070
L72.7429 53.0604
" />
<path d="M72.7278 53.1813
L72.7958 53.1208
" />
<path d="M72.7958 53.1208
L72.9243 53.0604
" />
<path d="M72.9243 53.0604
L73.1058 53.0604
" />
<path d="M73.1058 53.0604
L73.2192 53.1208
" />
<path d="M73.2192 53.1208
L73.2645 53.2418
" />
<path d="M73.2645 53.2418
L73.1814 53.9070
" />
<path d="M73.2645 53.2418
L73.3401 53.1208
" />
<path d="M73.3401 53.1208
L73.4686 53.0604
" />
<path d="M73.4686 53.0604
L73.6500 53.0604
" />
<path d="M73.6500 53.0604
L73.7634 53.1208
" />
<path d="M73.7634 53.1208
L73.8088 53.2418
" />
<path d="M73.8088 53.2418
L73.7256 53.9070
" />
<path d="M74.3304 53.9070
L74.4362 53.0604
" />
<path d="M74.4211 53.1813
L74.4891 53.1208
" />
<path d="M74.4891 53.1208
L74.6176 53.0604
" />
<path d="M74.6176 53.0604
L74.7991 53.0604
" />
<path d="M74.7991 53.0604
L74.9125 53.1208
" />
<path d="M74.9125 53.1208
L74.9578 53.2418
" />
<path d="M74.9578 53.2418
L74.8747 53.9070
" />
<path d="M74.9578 53.2418
L75.0334 53.1208
" />
<path d="M75.0334 53.1208
L75.1619 53.0604
" />
<path d="M75.1619 53.0604
L75.3433 53.0604
" />
<path d="M75.3433 53.0604
L75.4567 53.1208
" />
<path d="M75.4567 53.1208
L75.5021 53.2418
" />
<path d="M75.5021 53.2418
L75.4189 53.9070
" />
</g><text x="44.6557" y="50.1528"
textLength="74.4262" font-size="1.6933" lengthAdjust="spacingAndGlyphs"
text-anchor="middle" opacity="0">http://www.intersil.com/content/dam/Intersil/documents/hip2/hip2100.pdf</text>
<g class="stroked-text"><desc>http://www.intersil.com/content/dam/Intersil/documents/hip2/hip2100.pdf</desc>
<path d="M7.8561 50.0970
L7.8561 48.8270
" />
<path d="M8.4004 50.0970
L8.4004 49.4318
" />
<path d="M8.4004 49.4318
L8.3399 49.3108
" />
<path d="M8.3399 49.3108
L8.2190 49.2504
" />
<path d="M8.2190 49.2504
L8.0376 49.2504
" />
<path d="M8.0376 49.2504
L7.9166 49.3108
" />
<path d="M7.9166 49.3108
L7.8561 49.3713
" />
<path d="M8.8237 49.2504
L9.3075 49.2504
" />
<path d="M9.0051 48.8270
L9.0051 49.9156
" />
<path d="M9.0051 49.9156
L9.0656 50.0366
" />
<path d="M9.0656 50.0366
L9.1866 50.0970
" />
<path d="M9.1866 50.0970
L9.3075 50.0970
" />
<path d="M9.5494 49.2504
L10.0332 49.2504
" />
<path d="M9.7308 48.8270
L9.7308 49.9156
" />
<path d="M9.7308 49.9156
L9.7913 50.0366
" />
<path d="M9.7913 50.0366
L9.9123 50.0970
" />
<path d="M9.9123 50.0970
L10.0332 50.0970
" />
<path d="M10.4565 49.2504
L10.4565 50.5204
" />
<path d="M10.4565 49.3108
L10.5775 49.2504
" />
<path d="M10.5775 49.2504
L10.8194 49.2504
" />
<path d="M10.8194 49.2504
L10.9403 49.3108
" />
<path d="M10.9403 49.3108
L11.0008 49.3713
" />
<path d="M11.0008 49.3713
L11.0613 49.4923
" />
<path d="M11.0613 49.4923
L11.0613 49.8551
" />
<path d="M11.0613 49.8551
L11.0008 49.9761
" />
<path d="M11.0008 49.9761
L10.9403 50.0366
" />
<path d="M10.9403 50.0366
L10.8194 50.0970
" />
<path d="M10.8194 50.0970
L10.5775 50.0970
" />
<path d="M10.5775 50.0970
L10.4565 50.0366
" />
<path d="M11.6055 49.9761
L11.6660 50.0366
" />
<path d="M11.6660 50.0366
L11.6055 50.0970
" />
<path d="M11.6055 50.0970
L11.5451 50.0366
" />
<path d="M11.5451 50.0366
L11.6055 49.9761
" />
<path d="M11.6055 49.9761
L11.6055 50.0970
" />
<path d="M11.6055 49.3108
L11.6660 49.3713
" />
<path d="M11.6660 49.3713
L11.6055 49.4318
" />
<path d="M11.6055 49.4318
L11.5451 49.3713
" />
<path d="M11.5451 49.3713
L11.6055 49.3108
" />
<path d="M11.6055 49.3108
L11.6055 49.4318
" />
<path d="M13.1175 48.7666
L12.0289 50.3994
" />
<path d="M14.4480 48.7666
L13.3594 50.3994
" />
<path d="M14.7504 49.2504
L14.9923 50.0970
" />
<path d="M14.9923 50.0970
L15.2342 49.4923
" />
<path d="M15.2342 49.4923
L15.4761 50.0970
" />
<path d="M15.4761 50.0970
L15.7180 49.2504
" />
<path d="M16.0809 49.2504
L16.3228 50.0970
" />
<path d="M16.3228 50.0970
L16.5647 49.4923
" />
<path d="M16.5647 49.4923
L16.8066 50.0970
" />
<path d="M16.8066 50.0970
L17.0485 49.2504
" />
<path d="M17.4114 49.2504
L17.6533 50.0970
" />
<path d="M17.6533 50.0970
L17.8952 49.4923
" />
<path d="M17.8952 49.4923
L18.1371 50.0970
" />
<path d="M18.1371 50.0970
L18.3790 49.2504
" />
<path d="M18.8628 49.9761
L18.9233 50.0366
" />
<path d="M18.9233 50.0366
L18.8628 50.0970
" />
<path d="M18.8628 50.0970
L18.8024 50.0366
" />
<path d="M18.8024 50.0366
L18.8628 49.9761
" />
<path d="M18.8628 49.9761
L18.8628 50.0970
" />
<path d="M19.4676 50.0970
L19.4676 49.2504
" />
<path d="M19.4676 48.8270
L19.4072 48.8875
" />
<path d="M19.4072 48.8875
L19.4676 48.9480
" />
<path d="M19.4676 48.9480
L19.5281 48.8875
" />
<path d="M19.5281 48.8875
L19.4676 48.8270
" />
<path d="M19.4676 48.8270
L19.4676 48.9480
" />
<path d="M20.0724 49.2504
L20.0724 50.0970
" />
<path d="M20.0724 49.3713
L20.1329 49.3108
" />
<path d="M20.1329 49.3108
L20.2539 49.2504
" />
<path d="M20.2539 49.2504
L20.4353 49.2504
" />
<path d="M20.4353 49.2504
L20.5562 49.3108
" />
<path d="M20.5562 49.3108
L20.6167 49.4318
" />
<path d="M20.6167 49.4318
L20.6167 50.0970
" />
<path d="M21.0400 49.2504
L21.5238 49.2504
" />
<path d="M21.2214 48.8270
L21.2214 49.9156
" />
<path d="M21.2214 49.9156
L21.2819 50.0366
" />
<path d="M21.2819 50.0366
L21.4029 50.0970
" />
<path d="M21.4029 50.0970
L21.5238 50.0970
" />
<path d="M22.4309 50.0366
L22.3100 50.0970
" />
<path d="M22.3100 50.0970
L22.0681 50.0970
" />
<path d="M22.0681 50.0970
L21.9471 50.0366
" />
<path d="M21.9471 50.0366
L21.8867 49.9156
" />
<path d="M21.8867 49.9156
L21.8867 49.4318
" />
<path d="M21.8867 49.4318
L21.9471 49.3108
" />
<path d="M21.9471 49.3108
L22.0681 49.2504
" />
<path d="M22.0681 49.2504
L22.3100 49.2504
" />
<path d="M22.3100 49.2504
L22.4309 49.3108
" />
<path d="M22.4309 49.3108
L22.4914 49.4318
" />
<path d="M22.4914 49.4318
L22.4914 49.5527
" />
<path d="M22.4914 49.5527
L21.8867 49.6737
" />
<path d="M23.0357 50.0970
L23.0357 49.2504
" />
<path d="M23.0357 49.4923
L23.0962 49.3713
" />
<path d="M23.0962 49.3713
L23.1567 49.3108
" />
<path d="M23.1567 49.3108
L23.2776 49.2504
" />
<path d="M23.2776 49.2504
L23.3986 49.2504
" />
<path d="M23.7615 50.0366
L23.8824 50.0970
" />
<path d="M23.8824 50.0970
L24.1243 50.0970
" />
<path d="M24.1243 50.0970
L24.2453 50.0366
" />
<path d="M24.2453 50.0366
L24.3057 49.9156
" />
<path d="M24.3057 49.9156
L24.3057 49.8551
" />
<path d="M24.3057 49.8551
L24.2453 49.7342
" />
<path d="M24.2453 49.7342
L24.1243 49.6737
" />
<path d="M24.1243 49.6737
L23.9429 49.6737
" />
<path d="M23.9429 49.6737
L23.8219 49.6132
" />
<path d="M23.8219 49.6132
L23.7615 49.4923
" />
<path d="M23.7615 49.4923
L23.7615 49.4318
" />
<path d="M23.7615 49.4318
L23.8219 49.3108
" />
<path d="M23.8219 49.3108
L23.9429 49.2504
" />
<path d="M23.9429 49.2504
L24.1243 49.2504
" />
<path d="M24.1243 49.2504
L24.2453 49.3108
" />
<path d="M24.8500 50.0970
L24.8500 49.2504
" />
<path d="M24.8500 48.8270
L24.7896 48.8875
" />
<path d="M24.7896 48.8875
L24.8500 48.9480
" />
<path d="M24.8500 48.9480
L24.9105 48.8875
" />
<path d="M24.9105 48.8875
L24.8500 48.8270
" />
<path d="M24.8500 48.8270
L24.8500 48.9480
" />
<path d="M25.6363 50.0970
L25.5153 50.0366
" />
<path d="M25.5153 50.0366
L25.4548 49.9156
" />
<path d="M25.4548 49.9156
L25.4548 48.8270
" />
<path d="M26.1200 49.9761
L26.1805 50.0366
" />
<path d="M26.1805 50.0366
L26.1200 50.0970
" />
<path d="M26.1200 50.0970
L26.0596 50.0366
" />
<path d="M26.0596 50.0366
L26.1200 49.9761
" />
<path d="M26.1200 49.9761
L26.1200 50.0970
" />
<path d="M27.2691 50.0366
L27.1482 50.0970
" />
<path d="M27.1482 50.0970
L26.9063 50.0970
" />
<path d="M26.9063 50.0970
L26.7853 50.0366
" />
<path d="M26.7853 50.0366
L26.7248 49.9761
" />
<path d="M26.7248 49.9761
L26.6644 49.8551
" />
<path d="M26.6644 49.8551
L26.6644 49.4923
" />
<path d="M26.6644 49.4923
L26.7248 49.3713
" />
<path d="M26.7248 49.3713
L26.7853 49.3108
" />
<path d="M26.7853 49.3108
L26.9063 49.2504
" />
<path d="M26.9063 49.2504
L27.1482 49.2504
" />
<path d="M27.1482 49.2504
L27.2691 49.3108
" />
<path d="M27.9949 50.0970
L27.8739 50.0366
" />
<path d="M27.8739 50.0366
L27.8134 49.9761
" />
<path d="M27.8134 49.9761
L27.7530 49.8551
" />
<path d="M27.7530 49.8551
L27.7530 49.4923
" />
<path d="M27.7530 49.4923
L27.8134 49.3713
" />
<path d="M27.8134 49.3713
L27.8739 49.3108
" />
<path d="M27.8739 49.3108
L27.9949 49.2504
" />
<path d="M27.9949 49.2504
L28.1763 49.2504
" />
<path d="M28.1763 49.2504
L28.2972 49.3108
" />
<path d="M28.2972 49.3108
L28.3577 49.3713
" />
<path d="M28.3577 49.3713
L28.4182 49.4923
" />
<path d="M28.4182 49.4923
L28.4182 49.8551
" />
<path d="M28.4182 49.8551
L28.3577 49.9761
" />
<path d="M28.3577 49.9761
L28.2972 50.0366
" />
<path d="M28.2972 50.0366
L28.1763 50.0970
" />
<path d="M28.1763 50.0970
L27.9949 50.0970
" />
<path d="M28.9624 50.0970
L28.9624 49.2504
" />
<path d="M28.9624 49.3713
L29.0229 49.3108
" />
<path d="M29.0229 49.3108
L29.1439 49.2504
" />
<path d="M29.1439 49.2504
L29.3253 49.2504
" />
<path d="M29.3253 49.2504
L29.4462 49.3108
" />
<path d="M29.4462 49.3108
L29.5067 49.4318
" />
<path d="M29.5067 49.4318
L29.5067 50.0970
" />
<path d="M29.5067 49.4318
L29.5672 49.3108
" />
<path d="M29.5672 49.3108
L29.6881 49.2504
" />
<path d="M29.6881 49.2504
L29.8696 49.2504
" />
<path d="M29.8696 49.2504
L29.9905 49.3108
" />
<path d="M29.9905 49.3108
L30.0510 49.4318
" />
<path d="M30.0510 49.4318
L30.0510 50.0970
" />
<path d="M31.5629 48.7666
L30.4743 50.3994
" />
<path d="M32.5305 50.0366
L32.4096 50.0970
" />
<path d="M32.4096 50.0970
L32.1677 50.0970
" />
<path d="M32.1677 50.0970
L32.0467 50.0366
" />
<path d="M32.0467 50.0366
L31.9862 49.9761
" />
<path d="M31.9862 49.9761
L31.9258 49.8551
" />
<path d="M31.9258 49.8551
L31.9258 49.4923
" />
<path d="M31.9258 49.4923
L31.9862 49.3713
" />
<path d="M31.9862 49.3713
L32.0467 49.3108
" />
<path d="M32.0467 49.3108
L32.1677 49.2504
" />
<path d="M32.1677 49.2504
L32.4096 49.2504
" />
<path d="M32.4096 49.2504
L32.5305 49.3108
" />
<path d="M33.2563 50.0970
L33.1353 50.0366
" />
<path d="M33.1353 50.0366
L33.0748 49.9761
" />
<path d="M33.0748 49.9761
L33.0144 49.8551
" />
<path d="M33.0144 49.8551
L33.0144 49.4923
" />
<path d="M33.0144 49.4923
L33.0748 49.3713
" />
<path d="M33.0748 49.3713
L33.1353 49.3108
" />
<path d="M33.1353 49.3108
L33.2563 49.2504
" />
<path d="M33.2563 49.2504
L33.4377 49.2504
" />
<path d="M33.4377 49.2504
L33.5586 49.3108
" />
<path d="M33.5586 49.3108
L33.6191 49.3713
" />
<path d="M33.6191 49.3713
L33.6796 49.4923
" />
<path d="M33.6796 49.4923
L33.6796 49.8551
" />
<path d="M33.6796 49.8551
L33.6191 49.9761
" />
<path d="M33.6191 49.9761
L33.5586 50.0366
" />
<path d="M33.5586 50.0366
L33.4377 50.0970
" />
<path d="M33.4377 50.0970
L33.2563 50.0970
" />
<path d="M34.2238 49.2504
L34.2238 50.0970
" />
<path d="M34.2238 49.3713
L34.2843 49.3108
" />
<path d="M34.2843 49.3108
L34.4053 49.2504
" />
<path d="M34.4053 49.2504
L34.5867 49.2504
" />
<path d="M34.5867 49.2504
L34.7076 49.3108
" />
<path d="M34.7076 49.3108
L34.7681 49.4318
" />
<path d="M34.7681 49.4318
L34.7681 50.0970
" />
<path d="M35.1914 49.2504
L35.6752 49.2504
" />
<path d="M35.3728 48.8270
L35.3728 49.9156
" />
<path d="M35.3728 49.9156
L35.4333 50.0366
" />
<path d="M35.4333 50.0366
L35.5543 50.0970
" />
<path d="M35.5543 50.0970
L35.6752 50.0970
" />
<path d="M36.5823 50.0366
L36.4614 50.0970
" />
<path d="M36.4614 50.0970
L36.2195 50.0970
" />
<path d="M36.2195 50.0970
L36.0985 50.0366
" />
<path d="M36.0985 50.0366
L36.0381 49.9156
" />
<path d="M36.0381 49.9156
L36.0381 49.4318
" />
<path d="M36.0381 49.4318
L36.0985 49.3108
" />
<path d="M36.0985 49.3108
L36.2195 49.2504
" />
<path d="M36.2195 49.2504
L36.4614 49.2504
" />
<path d="M36.4614 49.2504
L36.5823 49.3108
" />
<path d="M36.5823 49.3108
L36.6428 49.4318
" />
<path d="M36.6428 49.4318
L36.6428 49.5527
" />
<path d="M36.6428 49.5527
L36.0381 49.6737
" />
<path d="M37.1871 49.2504
L37.1871 50.0970
" />
<path d="M37.1871 49.3713
L37.2476 49.3108
" />
<path d="M37.2476 49.3108
L37.3686 49.2504
" />
<path d="M37.3686 49.2504
L37.5500 49.2504
" />
<path d="M37.5500 49.2504
L37.6709 49.3108
" />
<path d="M37.6709 49.3108
L37.7314 49.4318
" />
<path d="M37.7314 49.4318
L37.7314 50.0970
" />
<path d="M38.1547 49.2504
L38.6385 49.2504
" />
<path d="M38.3361 48.8270
L38.3361 49.9156
" />
<path d="M38.3361 49.9156
L38.3966 50.0366
" />
<path d="M38.3966 50.0366
L38.5176 50.0970
" />
<path d="M38.5176 50.0970
L38.6385 50.0970
" />
<path d="M39.9690 48.7666
L38.8804 50.3994
" />
<path d="M40.9366 50.0970
L40.9366 48.8270
" />
<path d="M40.9366 50.0366
L40.8157 50.0970
" />
<path d="M40.8157 50.0970
L40.5738 50.0970
" />
<path d="M40.5738 50.0970
L40.4528 50.0366
" />
<path d="M40.4528 50.0366
L40.3923 49.9761
" />
<path d="M40.3923 49.9761
L40.3319 49.8551
" />
<path d="M40.3319 49.8551
L40.3319 49.4923
" />
<path d="M40.3319 49.4923
L40.3923 49.3713
" />
<path d="M40.3923 49.3713
L40.4528 49.3108
" />
<path d="M40.4528 49.3108
L40.5738 49.2504
" />
<path d="M40.5738 49.2504
L40.8157 49.2504
" />
<path d="M40.8157 49.2504
L40.9366 49.3108
" />
<path d="M42.0856 50.0970
L42.0856 49.4318
" />
<path d="M42.0856 49.4318
L42.0251 49.3108
" />
<path d="M42.0251 49.3108
L41.9042 49.2504
" />
<path d="M41.9042 49.2504
L41.6623 49.2504
" />
<path d="M41.6623 49.2504
L41.5413 49.3108
" />
<path d="M42.0856 50.0366
L41.9647 50.0970
" />
<path d="M41.9647 50.0970
L41.6623 50.0970
" />
<path d="M41.6623 50.0970
L41.5413 50.0366
" />
<path d="M41.5413 50.0366
L41.4809 49.9156
" />
<path d="M41.4809 49.9156
L41.4809 49.7946
" />
<path d="M41.4809 49.7946
L41.5413 49.6737
" />
<path d="M41.5413 49.6737
L41.6623 49.6132
" />
<path d="M41.6623 49.6132
L41.9647 49.6132
" />
<path d="M41.9647 49.6132
L42.0856 49.5527
" />
<path d="M42.6903 50.0970
L42.6903 49.2504
" />
<path d="M42.6903 49.3713
L42.7508 49.3108
" />
<path d="M42.7508 49.3108
L42.8718 49.2504
" />
<path d="M42.8718 49.2504
L43.0532 49.2504
" />
<path d="M43.0532 49.2504
L43.1741 49.3108
" />
<path d="M43.1741 49.3108
L43.2346 49.4318
" />
<path d="M43.2346 49.4318
L43.2346 50.0970
" />
<path d="M43.2346 49.4318
L43.2951 49.3108
" />
<path d="M43.2951 49.3108
L43.4160 49.2504
" />
<path d="M43.4160 49.2504
L43.5975 49.2504
" />
<path d="M43.5975 49.2504
L43.7184 49.3108
" />
<path d="M43.7184 49.3108
L43.7789 49.4318
" />
<path d="M43.7789 49.4318
L43.7789 50.0970
" />
<path d="M45.2908 48.7666
L44.2022 50.3994
" />
<path d="M45.7141 50.0970
L45.7141 48.8270
" />
<path d="M46.3189 49.2504
L46.3189 50.0970
" />
<path d="M46.3189 49.3713
L46.3794 49.3108
" />
<path d="M46.3794 49.3108
L46.5004 49.2504
" />
<path d="M46.5004 49.2504
L46.6818 49.2504
" />
<path d="M46.6818 49.2504
L46.8027 49.3108
" />
<path d="M46.8027 49.3108
L46.8632 49.4318
" />
<path d="M46.8632 49.4318
L46.8632 50.0970
" />
<path d="M47.2865 49.2504
L47.7703 49.2504
" />
<path d="M47.4679 48.8270
L47.4679 49.9156
" />
<path d="M47.4679 49.9156
L47.5284 50.0366
" />
<path d="M47.5284 50.0366
L47.6494 50.0970
" />
<path d="M47.6494 50.0970
L47.7703 50.0970
" />
<path d="M48.6774 50.0366
L48.5565 50.0970
" />
<path d="M48.5565 50.0970
L48.3146 50.0970
" />
<path d="M48.3146 50.0970
L48.1936 50.0366
" />
<path d="M48.1936 50.0366
L48.1332 49.9156
" />
<path d="M48.1332 49.9156
L48.1332 49.4318
" />
<path d="M48.1332 49.4318
L48.1936 49.3108
" />
<path d="M48.1936 49.3108
L48.3146 49.2504
" />
<path d="M48.3146 49.2504
L48.5565 49.2504
" />
<path d="M48.5565 49.2504
L48.6774 49.3108
" />
<path d="M48.6774 49.3108
L48.7379 49.4318
" />
<path d="M48.7379 49.4318
L48.7379 49.5527
" />
<path d="M48.7379 49.5527
L48.1332 49.6737
" />
<path d="M49.2822 50.0970
L49.2822 49.2504
" />
<path d="M49.2822 49.4923
L49.3427 49.3713
" />
<path d="M49.3427 49.3713
L49.4032 49.3108
" />
<path d="M49.4032 49.3108
L49.5241 49.2504
" />
<path d="M49.5241 49.2504
L49.6451 49.2504
" />
<path d="M50.0080 50.0366
L50.1289 50.0970
" />
<path d="M50.1289 50.0970
L50.3708 50.0970
" />
<path d="M50.3708 50.0970
L50.4918 50.0366
" />
<path d="M50.4918 50.0366
L50.5522 49.9156
" />
<path d="M50.5522 49.9156
L50.5522 49.8551
" />
<path d="M50.5522 49.8551
L50.4918 49.7342
" />
<path d="M50.4918 49.7342
L50.3708 49.6737
" />
<path d="M50.3708 49.6737
L50.1894 49.6737
" />
<path d="M50.1894 49.6737
L50.0684 49.6132
" />
<path d="M50.0684 49.6132
L50.0080 49.4923
" />
<path d="M50.0080 49.4923
L50.0080 49.4318
" />
<path d="M50.0080 49.4318
L50.0684 49.3108
" />
<path d="M50.0684 49.3108
L50.1894 49.2504
" />
<path d="M50.1894 49.2504
L50.3708 49.2504
" />
<path d="M50.3708 49.2504
L50.4918 49.3108
" />
<path d="M51.0965 50.0970
L51.0965 49.2504
" />
<path d="M51.0965 48.8270
L51.0361 48.8875
" />
<path d="M51.0361 48.8875
L51.0965 48.9480
" />
<path d="M51.0965 48.9480
L51.1570 48.8875
" />
<path d="M51.1570 48.8875
L51.0965 48.8270
" />
<path d="M51.0965 48.8270
L51.0965 48.9480
" />
<path d="M51.8828 50.0970
L51.7618 50.0366
" />
<path d="M51.7618 50.0366
L51.7013 49.9156
" />
<path d="M51.7013 49.9156
L51.7013 48.8270
" />
<path d="M53.2737 48.7666
L52.1851 50.3994
" />
<path d="M54.2413 50.0970
L54.2413 48.8270
" />
<path d="M54.2413 50.0366
L54.1204 50.0970
" />
<path d="M54.1204 50.0970
L53.8785 50.0970
" />
<path d="M53.8785 50.0970
L53.7575 50.0366
" />
<path d="M53.7575 50.0366
L53.6970 49.9761
" />
<path d="M53.6970 49.9761
L53.6366 49.8551
" />
<path d="M53.6366 49.8551
L53.6366 49.4923
" />
<path d="M53.6366 49.4923
L53.6970 49.3713
" />
<path d="M53.6970 49.3713
L53.7575 49.3108
" />
<path d="M53.7575 49.3108
L53.8785 49.2504
" />
<path d="M53.8785 49.2504
L54.1204 49.2504
" />
<path d="M54.1204 49.2504
L54.2413 49.3108
" />
<path d="M55.0275 50.0970
L54.9065 50.0366
" />
<path d="M54.9065 50.0366
L54.8460 49.9761
" />
<path d="M54.8460 49.9761
L54.7856 49.8551
" />
<path d="M54.7856 49.8551
L54.7856 49.4923
" />
<path d="M54.7856 49.4923
L54.8460 49.3713
" />
<path d="M54.8460 49.3713
L54.9065 49.3108
" />
<path d="M54.9065 49.3108
L55.0275 49.2504
" />
<path d="M55.0275 49.2504
L55.2089 49.2504
" />
<path d="M55.2089 49.2504
L55.3298 49.3108
" />
<path d="M55.3298 49.3108
L55.3903 49.3713
" />
<path d="M55.3903 49.3713
L55.4508 49.4923
" />
<path d="M55.4508 49.4923
L55.4508 49.8551
" />
<path d="M55.4508 49.8551
L55.3903 49.9761
" />
<path d="M55.3903 49.9761
L55.3298 50.0366
" />
<path d="M55.3298 50.0366
L55.2089 50.0970
" />
<path d="M55.2089 50.0970
L55.0275 50.0970
" />
<path d="M56.5393 50.0366
L56.4184 50.0970
" />
<path d="M56.4184 50.0970
L56.1765 50.0970
" />
<path d="M56.1765 50.0970
L56.0555 50.0366
" />
<path d="M56.0555 50.0366
L55.9950 49.9761
" />
<path d="M55.9950 49.9761
L55.9346 49.8551
" />
<path d="M55.9346 49.8551
L55.9346 49.4923
" />
<path d="M55.9346 49.4923
L55.9950 49.3713
" />
<path d="M55.9950 49.3713
L56.0555 49.3108
" />
<path d="M56.0555 49.3108
L56.1765 49.2504
" />
<path d="M56.1765 49.2504
L56.4184 49.2504
" />
<path d="M56.4184 49.2504
L56.5393 49.3108
" />
<path d="M57.6279 49.2504
L57.6279 50.0970
" />
<path d="M57.0836 49.2504
L57.0836 49.9156
" />
<path d="M57.0836 49.9156
L57.1441 50.0366
" />
<path d="M57.1441 50.0366
L57.2651 50.0970
" />
<path d="M57.2651 50.0970
L57.4465 50.0970
" />
<path d="M57.4465 50.0970
L57.5674 50.0366
" />
<path d="M57.5674 50.0366
L57.6279 49.9761
" />
<path d="M58.2326 50.0970
L58.2326 49.2504
" />
<path d="M58.2326 49.3713
L58.2931 49.3108
" />
<path d="M58.2931 49.3108
L58.4141 49.2504
" />
<path d="M58.4141 49.2504
L58.5955 49.2504
" />
<path d="M58.5955 49.2504
L58.7164 49.3108
" />
<path d="M58.7164 49.3108
L58.7769 49.4318
" />
<path d="M58.7769 49.4318
L58.7769 50.0970
" />
<path d="M58.7769 49.4318
L58.8374 49.3108
" />
<path d="M58.8374 49.3108
L58.9583 49.2504
" />
<path d="M58.9583 49.2504
L59.1398 49.2504
" />
<path d="M59.1398 49.2504
L59.2607 49.3108
" />
<path d="M59.2607 49.3108
L59.3212 49.4318
" />
<path d="M59.3212 49.4318
L59.3212 50.0970
" />
<path d="M60.4097 50.0366
L60.2888 50.0970
" />
<path d="M60.2888 50.0970
L60.0469 50.0970
" />
<path d="M60.0469 50.0970
L59.9259 50.0366
" />
<path d="M59.9259 50.0366
L59.8655 49.9156
" />
<path d="M59.8655 49.9156
L59.8655 49.4318
" />
<path d="M59.8655 49.4318
L59.9259 49.3108
" />
<path d="M59.9259 49.3108
L60.0469 49.2504
" />
<path d="M60.0469 49.2504
L60.2888 49.2504
" />
<path d="M60.2888 49.2504
L60.4097 49.3108
" />
<path d="M60.4097 49.3108
L60.4702 49.4318
" />
<path d="M60.4702 49.4318
L60.4702 49.5527
" />
<path d="M60.4702 49.5527
L59.8655 49.6737
" />
<path d="M61.0145 49.2504
L61.0145 50.0970
" />
<path d="M61.0145 49.3713
L61.0750 49.3108
" />
<path d="M61.0750 49.3108
L61.1960 49.2504
" />
<path d="M61.1960 49.2504
L61.3774 49.2504
" />
<path d="M61.3774 49.2504
L61.4983 49.3108
" />
<path d="M61.4983 49.3108
L61.5588 49.4318
" />
<path d="M61.5588 49.4318
L61.5588 50.0970
" />
<path d="M61.9821 49.2504
L62.4659 49.2504
" />
<path d="M62.1635 48.8270
L62.1635 49.9156
" />
<path d="M62.1635 49.9156
L62.2240 50.0366
" />
<path d="M62.2240 50.0366
L62.3450 50.0970
" />
<path d="M62.3450 50.0970
L62.4659 50.0970
" />
<path d="M62.8288 50.0366
L62.9497 50.0970
" />
<path d="M62.9497 50.0970
L63.1916 50.0970
" />
<path d="M63.1916 50.0970
L63.3126 50.0366
" />
<path d="M63.3126 50.0366
L63.3730 49.9156
" />
<path d="M63.3730 49.9156
L63.3730 49.8551
" />
<path d="M63.3730 49.8551
L63.3126 49.7342
" />
<path d="M63.3126 49.7342
L63.1916 49.6737
" />
<path d="M63.1916 49.6737
L63.0102 49.6737
" />
<path d="M63.0102 49.6737
L62.8892 49.6132
" />
<path d="M62.8892 49.6132
L62.8288 49.4923
" />
<path d="M62.8288 49.4923
L62.8288 49.4318
" />
<path d="M62.8288 49.4318
L62.8892 49.3108
" />
<path d="M62.8892 49.3108
L63.0102 49.2504
" />
<path d="M63.0102 49.2504
L63.1916 49.2504
" />
<path d="M63.1916 49.2504
L63.3126 49.3108
" />
<path d="M64.8245 48.7666
L63.7359 50.3994
" />
<path d="M65.2478 50.0970
L65.2478 48.8270
" />
<path d="M65.7921 50.0970
L65.7921 49.4318
" />
<path d="M65.7921 49.4318
L65.7316 49.3108
" />
<path d="M65.7316 49.3108
L65.6107 49.2504
" />
<path d="M65.6107 49.2504
L65.4293 49.2504
" />
<path d="M65.4293 49.2504
L65.3083 49.3108
" />
<path d="M65.3083 49.3108
L65.2478 49.3713
" />
<path d="M66.3968 50.0970
L66.3968 49.2504
" />
<path d="M66.3968 48.8270
L66.3364 48.8875
" />
<path d="M66.3364 48.8875
L66.3968 48.9480
" />
<path d="M66.3968 48.9480
L66.4573 48.8875
" />
<path d="M66.4573 48.8875
L66.3968 48.8270
" />
<path d="M66.3968 48.8270
L66.3968 48.9480
" />
<path d="M67.0016 49.2504
L67.0016 50.5204
" />
<path d="M67.0016 49.3108
L67.1226 49.2504
" />
<path d="M67.1226 49.2504
L67.3645 49.2504
" />
<path d="M67.3645 49.2504
L67.4854 49.3108
" />
<path d="M67.4854 49.3108
L67.5459 49.3713
" />
<path d="M67.5459 49.3713
L67.6064 49.4923
" />
<path d="M67.6064 49.4923
L67.6064 49.8551
" />
<path d="M67.6064 49.8551
L67.5459 49.9761
" />
<path d="M67.5459 49.9761
L67.4854 50.0366
" />
<path d="M67.4854 50.0366
L67.3645 50.0970
" />
<path d="M67.3645 50.0970
L67.1226 50.0970
" />
<path d="M67.1226 50.0970
L67.0016 50.0366
" />
<path d="M68.0902 48.9480
L68.1506 48.8875
" />
<path d="M68.1506 48.8875
L68.2716 48.8270
" />
<path d="M68.2716 48.8270
L68.5740 48.8270
" />
<path d="M68.5740 48.8270
L68.6949 48.8875
" />
<path d="M68.6949 48.8875
L68.7554 48.9480
" />
<path d="M68.7554 48.9480
L68.8159 49.0689
" />
<path d="M68.8159 49.0689
L68.8159 49.1899
" />
<path d="M68.8159 49.1899
L68.7554 49.3713
" />
<path d="M68.7554 49.3713
L68.0297 50.0970
" />
<path d="M68.0297 50.0970
L68.8159 50.0970
" />
<path d="M70.2673 48.7666
L69.1787 50.3994
" />
<path d="M70.6906 50.0970
L70.6906 48.8270
" />
<path d="M71.2349 50.0970
L71.2349 49.4318
" />
<path d="M71.2349 49.4318
L71.1744 49.3108
" />
<path d="M71.1744 49.3108
L71.0535 49.2504
" />
<path d="M71.0535 49.2504
L70.8721 49.2504
" />
<path d="M70.8721 49.2504
L70.7511 49.3108
" />
<path d="M70.7511 49.3108
L70.6906 49.3713
" />
<path d="M71.8396 50.0970
L71.8396 49.2504
" />
<path d="M71.8396 48.8270
L71.7792 48.8875
" />
<path d="M71.7792 48.8875
L71.8396 48.9480
" />
<path d="M71.8396 48.9480
L71.9001 48.8875
" />
<path d="M71.9001 48.8875
L71.8396 48.8270
" />
<path d="M71.8396 48.8270
L71.8396 48.9480
" />
<path d="M72.4444 49.2504
L72.4444 50.5204
" />
<path d="M72.4444 49.3108
L72.5654 49.2504
" />
<path d="M72.5654 49.2504
L72.8073 49.2504
" />
<path d="M72.8073 49.2504
L72.9282 49.3108
" />
<path d="M72.9282 49.3108
L72.9887 49.3713
" />
<path d="M72.9887 49.3713
L73.0492 49.4923
" />
<path d="M73.0492 49.4923
L73.0492 49.8551
" />
<path d="M73.0492 49.8551
L72.9887 49.9761
" />
<path d="M72.9887 49.9761
L72.9282 50.0366
" />
<path d="M72.9282 50.0366
L72.8073 50.0970
" />
<path d="M72.8073 50.0970
L72.5654 50.0970
" />
<path d="M72.5654 50.0970
L72.4444 50.0366
" />
<path d="M73.5330 48.9480
L73.5934 48.8875
" />
<path d="M73.5934 48.8875
L73.7144 48.8270
" />
<path d="M73.7144 48.8270
L74.0168 48.8270
" />
<path d="M74.0168 48.8270
L74.1377 48.8875
" />
<path d="M74.1377 48.8875
L74.1982 48.9480
" />
<path d="M74.1982 48.9480
L74.2587 49.0689
" />
<path d="M74.2587 49.0689
L74.2587 49.1899
" />
<path d="M74.2587 49.1899
L74.1982 49.3713
" />
<path d="M74.1982 49.3713
L73.4725 50.0970
" />
<path d="M73.4725 50.0970
L74.2587 50.0970
" />
<path d="M75.4682 50.0970
L74.7425 50.0970
" />
<path d="M75.1053 50.0970
L75.1053 48.8270
" />
<path d="M75.1053 48.8270
L74.9844 49.0085
" />
<path d="M74.9844 49.0085
L74.8634 49.1294
" />
<path d="M74.8634 49.1294
L74.7425 49.1899
" />
<path d="M76.2543 48.8270
L76.3753 48.8270
" />
<path d="M76.3753 48.8270
L76.4962 48.8875
" />
<path d="M76.4962 48.8875
L76.5567 48.9480
" />
<path d="M76.5567 48.9480
L76.6172 49.0689
" />
<path d="M76.6172 49.0689
L76.6777 49.3108
" />
<path d="M76.6777 49.3108
L76.6777 49.6132
" />
<path d="M76.6777 49.6132
L76.6172 49.8551
" />
<path d="M76.6172 49.8551
L76.5567 49.9761
" />
<path d="M76.5567 49.9761
L76.4962 50.0366
" />
<path d="M76.4962 50.0366
L76.3753 50.0970
" />
<path d="M76.3753 50.0970
L76.2543 50.0970
" />
<path d="M76.2543 50.0970
L76.1334 50.0366
" />
<path d="M76.1334 50.0366
L76.0729 49.9761
" />
<path d="M76.0729 49.9761
L76.0124 49.8551
" />
<path d="M76.0124 49.8551
L75.9520 49.6132
" />
<path d="M75.9520 49.6132
L75.9520 49.3108
" />
<path d="M75.9520 49.3108
L76.0124 49.0689
" />
<path d="M76.0124 49.0689
L76.0729 48.9480
" />
<path d="M76.0729 48.9480
L76.1334 48.8875
" />
<path d="M76.1334 48.8875
L76.2543 48.8270
" />
<path d="M77.4638 48.8270
L77.5848 48.8270
" />
<path d="M77.5848 48.8270
L77.7057 48.8875
" />
<path d="M77.7057 48.8875
L77.7662 48.9480
" />
<path d="M77.7662 48.9480
L77.8267 49.0689
" />
<path d="M77.8267 49.0689
L77.8872 49.3108
" />
<path d="M77.8872 49.3108
L77.8872 49.6132
" />
<path d="M77.8872 49.6132
L77.8267 49.8551
" />
<path d="M77.8267 49.8551
L77.7662 49.9761
" />
<path d="M77.7662 49.9761
L77.7057 50.0366
" />
<path d="M77.7057 50.0366
L77.5848 50.0970
" />
<path d="M77.5848 50.0970
L77.4638 50.0970
" />
<path d="M77.4638 50.0970
L77.3429 50.0366
" />
<path d="M77.3429 50.0366
L77.2824 49.9761
" />
<path d="M77.2824 49.9761
L77.2219 49.8551
" />
<path d="M77.2219 49.8551
L77.1615 49.6132
" />
<path d="M77.1615 49.6132
L77.1615 49.3108
" />
<path d="M77.1615 49.3108
L77.2219 49.0689
" />
<path d="M77.2219 49.0689
L77.2824 48.9480
" />
<path d="M77.2824 48.9480
L77.3429 48.8875
" />
<path d="M77.3429 48.8875
L77.4638 48.8270
" />
<path d="M78.4314 49.9761
L78.4919 50.0366
" />
<path d="M78.4919 50.0366
L78.4314 50.0970
" />
<path d="M78.4314 50.0970
L78.3710 50.0366
" />
<path d="M78.3710 50.0366
L78.4314 49.9761
" />
<path d="M78.4314 49.9761
L78.4314 50.0970
" />
<path d="M79.0362 49.2504
L79.0362 50.5204
" />
<path d="M79.0362 49.3108
L79.1572 49.2504
" />
<path d="M79.1572 49.2504
L79.3991 49.2504
" />
<path d="M79.3991 49.2504
L79.5200 49.3108
" />
<path d="M79.5200 49.3108
L79.5805 49.3713
" />
<path d="M79.5805 49.3713
L79.6410 49.4923
" />
<path d="M79.6410 49.4923
L79.6410 49.8551
" />
<path d="M79.6410 49.8551
L79.5805 49.9761
" />
<path d="M79.5805 49.9761
L79.5200 50.0366
" />
<path d="M79.5200 50.0366
L79.3991 50.0970
" />
<path d="M79.3991 50.0970
L79.1572 50.0970
" />
<path d="M79.1572 50.0970
L79.0362 50.0366
" />
<path d="M80.7295 50.0970
L80.7295 48.8270
" />
<path d="M80.7295 50.0366
L80.6086 50.0970
" />
<path d="M80.6086 50.0970
L80.3667 50.0970
" />
<path d="M80.3667 50.0970
L80.2457 50.0366
" />
<path d="M80.2457 50.0366
L80.1852 49.9761
" />
<path d="M80.1852 49.9761
L80.1248 49.8551
" />
<path d="M80.1248 49.8551
L80.1248 49.4923
" />
<path d="M80.1248 49.4923
L80.1852 49.3713
" />
<path d="M80.1852 49.3713
L80.2457 49.3108
" />
<path d="M80.2457 49.3108
L80.3667 49.2504
" />
<path d="M80.3667 49.2504
L80.6086 49.2504
" />
<path d="M80.6086 49.2504
L80.7295 49.3108
" />
<path d="M81.1528 49.2504
L81.6366 49.2504
" />
<path d="M81.3342 50.0970
L81.3342 49.0085
" />
<path d="M81.3342 49.0085
L81.3947 48.8875
" />
<path d="M81.3947 48.8875
L81.5157 48.8270
" />
<path d="M81.5157 48.8270
L81.6366 48.8270
" />
</g></g> 
</svg>
