<?xml version="1.0" standalone="no"?>
 <!DOCTYPE svg PUBLIC "-//W3C//DTD SVG 1.1//EN" 
 "http://www.w3.org/Graphics/SVG/1.1/DTD/svg11.dtd"> 
<svg
  xmlns:svg="http://www.w3.org/2000/svg"
  xmlns="http://www.w3.org/2000/svg"
  xmlns:xlink="http://www.w3.org/1999/xlink"
  version="1.1"
  width="108.6104mm" height="22.6822mm" viewBox="0.0000 0.0000 108.6104 22.6822">
<title>SVG Image created as working.svg date 2023/08/05 01:51:31 </title>
  <desc>Image generated by Eeschema-SVG </desc>
<g style="fill:#000000; fill-opacity:1.0000;stroke:#000000; stroke-opacity:1.0000;
stroke-linecap:round; stroke-linejoin:round;"
 transform="translate(0 0) scale(1 1)">
</g>
<g style="fill:#840000; fill-opacity:0.0; 
stroke:#840000; stroke-width:0.0000; stroke-opacity:1; 
stroke-linecap:round; stroke-linejoin:round;">
</g>
<g style="fill:#FFFFC2; fill-opacity:0.0; 
stroke:#FFFFC2; stroke-width:0.0000; stroke-opacity:1; 
stroke-linecap:round; stroke-linejoin:round;">
</g>
<g style="fill:#FFFFC2; fill-opacity:1.0000; 
stroke:#FFFFC2; stroke-width:0.0000; stroke-opacity:1; 
stroke-linecap:round; stroke-linejoin:round;">
<rect x="11.591300" y="4.429200" width="10.160000" height="10.160000" rx="0.000000" />
</g>
<g style="fill:#840084; fill-opacity:1.0000; 
stroke:#840084; stroke-width:0.0000; stroke-opacity:1; 
stroke-linecap:round; stroke-linejoin:round;">
</g>
<g style="fill:#840000; fill-opacity:1.0000; 
stroke:#840000; stroke-width:0.0000; stroke-opacity:1; 
stroke-linecap:round; stroke-linejoin:round;">
</g>
<g style="fill:#840000; fill-opacity:0.0; 
stroke:#840000; stroke-width:0.1524; stroke-opacity:1; 
stroke-linecap:round; stroke-linejoin:round;">
<path style="fill:#840000; fill-opacity:0.0; 
stroke:#840000; stroke-width:0.1524; stroke-opacity:1; 
stroke-linecap:round; stroke-linejoin:round;fill:none"
d="M 17.9413,13.0652
18.4493,13.0652
" /> 
<path style="fill:#840000; fill-opacity:0.0; 
stroke:#840000; stroke-width:0.1524; stroke-opacity:1; 
stroke-linecap:round; stroke-linejoin:round;fill:none"
d="M 17.9413,12.0492
18.4493,12.0492
" /> 
<path style="fill:#840000; fill-opacity:0.0; 
stroke:#840000; stroke-width:0.1524; stroke-opacity:1; 
stroke-linecap:round; stroke-linejoin:round;fill:none"
d="M 21.3703,13.0652
19.3383,13.0652
" /> 
<path style="fill:#840000; fill-opacity:0.0; 
stroke:#840000; stroke-width:0.1524; stroke-opacity:1; 
stroke-linecap:round; stroke-linejoin:round;fill:none"
d="M 18.9573,12.0492
17.9413,13.0652
17.9413,12.5572
" /> 
<path style="fill:#840000; fill-opacity:0.0; 
stroke:#840000; stroke-width:0.1524; stroke-opacity:1; 
stroke-linecap:round; stroke-linejoin:round;fill:none"
d="M 18.9573,11.0332
17.9413,12.0492
17.9413,11.5412
" /> 
<path style="fill:#840000; fill-opacity:0.0; 
stroke:#840000; stroke-width:0.1524; stroke-opacity:1; 
stroke-linecap:round; stroke-linejoin:round;fill:none"
d="M 20.3543,10.5252
20.3543,13.0652
20.3543,13.5732
" /> 
<path style="fill:#840000; fill-opacity:0.0; 
stroke:#840000; stroke-width:0.1524; stroke-opacity:1; 
stroke-linecap:round; stroke-linejoin:round;fill:none"
d="M 21.3703,11.0332
19.3383,11.0332
20.3543,13.0652
Z" /> 
</g>
<g style="fill:#840000; fill-opacity:0.0; 
stroke:#840000; stroke-width:0.2540; stroke-opacity:1; 
stroke-linecap:round; stroke-linejoin:round;">
<rect x="11.591300" y="4.429200" width="10.160000" height="10.160000" rx="0.000000" />
</g>
<g style="fill:#840000; fill-opacity:0.0; 
stroke:#840000; stroke-width:0.0953; stroke-opacity:1; 
stroke-linecap:round; stroke-linejoin:round;">
<text x="18.9573" y="14.0813"
textLength="2.4196" font-size="1.0160" lengthAdjust="spacingAndGlyphs"
text-anchor="middle" opacity="0">RGB</text>
<g class="stroked-text"><desc>RGB</desc>
<path d="M18.4311 14.0478
L18.1771 13.6850
" />
<path d="M17.9957 14.0478
L17.9957 13.2858
" />
<path d="M17.9957 13.2858
L18.2860 13.2858
" />
<path d="M18.2860 13.2858
L18.3585 13.3221
" />
<path d="M18.3585 13.3221
L18.3948 13.3584
" />
<path d="M18.3948 13.3584
L18.4311 13.4310
" />
<path d="M18.4311 13.4310
L18.4311 13.5398
" />
<path d="M18.4311 13.5398
L18.3948 13.6124
" />
<path d="M18.3948 13.6124
L18.3585 13.6487
" />
<path d="M18.3585 13.6487
L18.2860 13.6850
" />
<path d="M18.2860 13.6850
L17.9957 13.6850
" />
<path d="M19.1568 13.3221
L19.0843 13.2858
" />
<path d="M19.0843 13.2858
L18.9754 13.2858
" />
<path d="M18.9754 13.2858
L18.8665 13.3221
" />
<path d="M18.8665 13.3221
L18.7940 13.3947
" />
<path d="M18.7940 13.3947
L18.7577 13.4673
" />
<path d="M18.7577 13.4673
L18.7214 13.6124
" />
<path d="M18.7214 13.6124
L18.7214 13.7213
" />
<path d="M18.7214 13.7213
L18.7577 13.8664
" />
<path d="M18.7577 13.8664
L18.7940 13.9390
" />
<path d="M18.7940 13.9390
L18.8665 14.0116
" />
<path d="M18.8665 14.0116
L18.9754 14.0478
" />
<path d="M18.9754 14.0478
L19.0480 14.0478
" />
<path d="M19.0480 14.0478
L19.1568 14.0116
" />
<path d="M19.1568 14.0116
L19.1931 13.9753
" />
<path d="M19.1931 13.9753
L19.1931 13.7213
" />
<path d="M19.1931 13.7213
L19.0480 13.7213
" />
<path d="M19.7737 13.6487
L19.8825 13.6850
" />
<path d="M19.8825 13.6850
L19.9188 13.7213
" />
<path d="M19.9188 13.7213
L19.9551 13.7938
" />
<path d="M19.9551 13.7938
L19.9551 13.9027
" />
<path d="M19.9551 13.9027
L19.9188 13.9753
" />
<path d="M19.9188 13.9753
L19.8825 14.0116
" />
<path d="M19.8825 14.0116
L19.8100 14.0478
" />
<path d="M19.8100 14.0478
L19.5197 14.0478
" />
<path d="M19.5197 14.0478
L19.5197 13.2858
" />
<path d="M19.5197 13.2858
L19.7737 13.2858
" />
<path d="M19.7737 13.2858
L19.8463 13.3221
" />
<path d="M19.8463 13.3221
L19.8825 13.3584
" />
<path d="M19.8825 13.3584
L19.9188 13.4310
" />
<path d="M19.9188 13.4310
L19.9188 13.5036
" />
<path d="M19.9188 13.5036
L19.8825 13.5761
" />
<path d="M19.8825 13.5761
L19.8463 13.6124
" />
<path d="M19.8463 13.6124
L19.7737 13.6487
" />
<path d="M19.7737 13.6487
L19.5197 13.6487
" />
</g></g>
<g style="fill:#840000; fill-opacity:0.0; 
stroke:#840000; stroke-width:0.1524; stroke-opacity:1; 
stroke-linecap:round; stroke-linejoin:round;">
<path d="M16.6713 14.5892
L16.6713 17.1292
" />
</g>
<g style="fill:#006464; fill-opacity:0.0; 
stroke:#006464; stroke-width:0.1524; stroke-opacity:1; 
stroke-linecap:round; stroke-linejoin:round;">
<g transform="rotate(-90.000000 16.6713 14.3352)">
<text x="16.6713" y="14.9702"
textLength="3.7108" font-size="1.6933" lengthAdjust="spacingAndGlyphs"
text-anchor="start" opacity="0">VSS</text>
</g>
<g class="stroked-text"><desc>VSS</desc>
<path d="M15.9808 14.1140
L17.2508 13.6907
" />
<path d="M17.2508 13.6907
L15.9808 13.2673
" />
<path d="M17.1904 12.9044
L17.2508 12.7230
" />
<path d="M17.2508 12.7230
L17.2508 12.4206
" />
<path d="M17.2508 12.4206
L17.1904 12.2997
" />
<path d="M17.1904 12.2997
L17.1299 12.2392
" />
<path d="M17.1299 12.2392
L17.0089 12.1787
" />
<path d="M17.0089 12.1787
L16.8880 12.1787
" />
<path d="M16.8880 12.1787
L16.7670 12.2392
" />
<path d="M16.7670 12.2392
L16.7065 12.2997
" />
<path d="M16.7065 12.2997
L16.6461 12.4206
" />
<path d="M16.6461 12.4206
L16.5856 12.6625
" />
<path d="M16.5856 12.6625
L16.5251 12.7835
" />
<path d="M16.5251 12.7835
L16.4646 12.8440
" />
<path d="M16.4646 12.8440
L16.3437 12.9044
" />
<path d="M16.3437 12.9044
L16.2227 12.9044
" />
<path d="M16.2227 12.9044
L16.1018 12.8440
" />
<path d="M16.1018 12.8440
L16.0413 12.7835
" />
<path d="M16.0413 12.7835
L15.9808 12.6625
" />
<path d="M15.9808 12.6625
L15.9808 12.3602
" />
<path d="M15.9808 12.3602
L16.0413 12.1787
" />
<path d="M17.1904 11.6949
L17.2508 11.5135
" />
<path d="M17.2508 11.5135
L17.2508 11.2111
" />
<path d="M17.2508 11.2111
L17.1904 11.0902
" />
<path d="M17.1904 11.0902
L17.1299 11.0297
" />
<path d="M17.1299 11.0297
L17.0089 10.9692
" />
<path d="M17.0089 10.9692
L16.8880 10.9692
" />
<path d="M16.8880 10.9692
L16.7670 11.0297
" />
<path d="M16.7670 11.0297
L16.7065 11.0902
" />
<path d="M16.7065 11.0902
L16.6461 11.2111
" />
<path d="M16.6461 11.2111
L16.5856 11.4530
" />
<path d="M16.5856 11.4530
L16.5251 11.5740
" />
<path d="M16.5251 11.5740
L16.4646 11.6345
" />
<path d="M16.4646 11.6345
L16.3437 11.6949
" />
<path d="M16.3437 11.6949
L16.2227 11.6949
" />
<path d="M16.2227 11.6949
L16.1018 11.6345
" />
<path d="M16.1018 11.6345
L16.0413 11.5740
" />
<path d="M16.0413 11.5740
L15.9808 11.4530
" />
<path d="M15.9808 11.4530
L15.9808 11.1507
" />
<path d="M15.9808 11.1507
L16.0413 10.9692
" />
</g></g>
<g style="fill:#A90000; fill-opacity:0.0; 
stroke:#A90000; stroke-width:0.1524; stroke-opacity:1; 
stroke-linecap:round; stroke-linejoin:round;">
<g transform="rotate(-90.000000 16.4173 15.8592)">
<text x="16.4173" y="15.8592"
textLength="1.4127" font-size="1.6933" lengthAdjust="spacingAndGlyphs"
text-anchor="middle" opacity="0">1</text>
</g>
<g class="stroked-text"><desc>1</desc>
<path d="M16.2538 15.4962
L16.2538 16.2219
" />
<path d="M16.2538 15.8591
L14.9838 15.8591
" />
<path d="M14.9838 15.8591
L15.1653 15.9800
" />
<path d="M15.1653 15.9800
L15.2862 16.1010
" />
<path d="M15.2862 16.1010
L15.3467 16.2219
" />
</g></g>
<g style="fill:#840000; fill-opacity:0.0; 
stroke:#840000; stroke-width:0.1524; stroke-opacity:1; 
stroke-linecap:round; stroke-linejoin:round;">
<path d="M11.5913 9.5092
L9.0513 9.5092
" />
</g>
<g style="fill:#006464; fill-opacity:0.0; 
stroke:#006464; stroke-width:0.1524; stroke-opacity:1; 
stroke-linecap:round; stroke-linejoin:round;">
<text x="11.8453" y="10.1442"
textLength="3.4085" font-size="1.6933" lengthAdjust="spacingAndGlyphs"
text-anchor="start" opacity="0">DIN</text>
<g class="stroked-text"><desc>DIN</desc>
<path d="M12.2478 10.0887
L12.2478 8.8187
" />
<path d="M12.2478 8.8187
L12.5502 8.8187
" />
<path d="M12.5502 8.8187
L12.7316 8.8792
" />
<path d="M12.7316 8.8792
L12.8526 9.0002
" />
<path d="M12.8526 9.0002
L12.9131 9.1211
" />
<path d="M12.9131 9.1211
L12.9735 9.3630
" />
<path d="M12.9735 9.3630
L12.9735 9.5444
" />
<path d="M12.9735 9.5444
L12.9131 9.7863
" />
<path d="M12.9131 9.7863
L12.8526 9.9073
" />
<path d="M12.8526 9.9073
L12.7316 10.0283
" />
<path d="M12.7316 10.0283
L12.5502 10.0887
" />
<path d="M12.5502 10.0887
L12.2478 10.0887
" />
<path d="M13.5178 10.0887
L13.5178 8.8187
" />
<path d="M14.1226 10.0887
L14.1226 8.8187
" />
<path d="M14.1226 8.8187
L14.8483 10.0887
" />
<path d="M14.8483 10.0887
L14.8483 8.8187
" />
</g></g>
<g style="fill:#A90000; fill-opacity:0.0; 
stroke:#A90000; stroke-width:0.1524; stroke-opacity:1; 
stroke-linecap:round; stroke-linejoin:round;">
<text x="10.3213" y="9.2552"
textLength="1.4127" font-size="1.6933" lengthAdjust="spacingAndGlyphs"
text-anchor="middle" opacity="0">2</text>
<g class="stroked-text"><desc>2</desc>
<path d="M9.9585 7.9427
L10.0189 7.8822
" />
<path d="M10.0189 7.8822
L10.1399 7.8217
" />
<path d="M10.1399 7.8217
L10.4423 7.8217
" />
<path d="M10.4423 7.8217
L10.5632 7.8822
" />
<path d="M10.5632 7.8822
L10.6237 7.9427
" />
<path d="M10.6237 7.9427
L10.6842 8.0636
" />
<path d="M10.6842 8.0636
L10.6842 8.1846
" />
<path d="M10.6842 8.1846
L10.6237 8.3660
" />
<path d="M10.6237 8.3660
L9.8980 9.0917
" />
<path d="M9.8980 9.0917
L10.6842 9.0917
" />
</g></g>
<g style="fill:#840000; fill-opacity:0.0; 
stroke:#840000; stroke-width:0.1524; stroke-opacity:1; 
stroke-linecap:round; stroke-linejoin:round;">
<path d="M16.6713 4.4292
L16.6713 1.8892
" />
</g>
<g style="fill:#006464; fill-opacity:0.0; 
stroke:#006464; stroke-width:0.1524; stroke-opacity:1; 
stroke-linecap:round; stroke-linejoin:round;">
<g transform="rotate(-90.000000 16.6713 4.6832)">
<text x="16.6713" y="5.3182"
textLength="3.8318" font-size="1.6933" lengthAdjust="spacingAndGlyphs"
text-anchor="end" opacity="0">VDD</text>
</g>
<g class="stroked-text"><desc>VDD</desc>
<path d="M15.9808 8.2910
L17.2508 7.8677
" />
<path d="M17.2508 7.8677
L15.9808 7.4443
" />
<path d="M17.2508 7.0210
L15.9808 7.0210
" />
<path d="M15.9808 7.0210
L15.9808 6.7186
" />
<path d="M15.9808 6.7186
L16.0413 6.5372
" />
<path d="M16.0413 6.5372
L16.1623 6.4162
" />
<path d="M16.1623 6.4162
L16.2832 6.3557
" />
<path d="M16.2832 6.3557
L16.5251 6.2953
" />
<path d="M16.5251 6.2953
L16.7065 6.2953
" />
<path d="M16.7065 6.2953
L16.9484 6.3557
" />
<path d="M16.9484 6.3557
L17.0694 6.4162
" />
<path d="M17.0694 6.4162
L17.1904 6.5372
" />
<path d="M17.1904 6.5372
L17.2508 6.7186
" />
<path d="M17.2508 6.7186
L17.2508 7.0210
" />
<path d="M17.2508 5.7510
L15.9808 5.7510
" />
<path d="M15.9808 5.7510
L15.9808 5.4486
" />
<path d="M15.9808 5.4486
L16.0413 5.2672
" />
<path d="M16.0413 5.2672
L16.1623 5.1462
" />
<path d="M16.1623 5.1462
L16.2832 5.0857
" />
<path d="M16.2832 5.0857
L16.5251 5.0253
" />
<path d="M16.5251 5.0253
L16.7065 5.0253
" />
<path d="M16.7065 5.0253
L16.9484 5.0857
" />
<path d="M16.9484 5.0857
L17.0694 5.1462
" />
<path d="M17.0694 5.1462
L17.1904 5.2672
" />
<path d="M17.1904 5.2672
L17.2508 5.4486
" />
<path d="M17.2508 5.4486
L17.2508 5.7510
" />
</g></g>
<g style="fill:#A90000; fill-opacity:0.0; 
stroke:#A90000; stroke-width:0.1524; stroke-opacity:1; 
stroke-linecap:round; stroke-linejoin:round;">
<g transform="rotate(-90.000000 16.4173 3.1592)">
<text x="16.4173" y="3.1592"
textLength="1.4127" font-size="1.6933" lengthAdjust="spacingAndGlyphs"
text-anchor="middle" opacity="0">3</text>
</g>
<g class="stroked-text"><desc>3</desc>
<path d="M14.9838 3.5824
L14.9838 2.7962
" />
<path d="M14.9838 2.7962
L15.4676 3.2196
" />
<path d="M15.4676 3.2196
L15.4676 3.0381
" />
<path d="M15.4676 3.0381
L15.5281 2.9172
" />
<path d="M15.5281 2.9172
L15.5886 2.8567
" />
<path d="M15.5886 2.8567
L15.7095 2.7962
" />
<path d="M15.7095 2.7962
L16.0119 2.7962
" />
<path d="M16.0119 2.7962
L16.1329 2.8567
" />
<path d="M16.1329 2.8567
L16.1934 2.9172
" />
<path d="M16.1934 2.9172
L16.2538 3.0381
" />
<path d="M16.2538 3.0381
L16.2538 3.4010
" />
<path d="M16.2538 3.4010
L16.1934 3.5219
" />
<path d="M16.1934 3.5219
L16.1329 3.5824
" />
</g></g>
<g style="fill:#840000; fill-opacity:0.0; 
stroke:#840000; stroke-width:0.1524; stroke-opacity:1; 
stroke-linecap:round; stroke-linejoin:round;">
<path d="M21.7513 9.5092
L24.2913 9.5092
" />
</g>
<g style="fill:#006464; fill-opacity:0.0; 
stroke:#006464; stroke-width:0.1524; stroke-opacity:1; 
stroke-linecap:round; stroke-linejoin:round;">
<text x="21.4973" y="10.1442"
textLength="5.1018" font-size="1.6933" lengthAdjust="spacingAndGlyphs"
text-anchor="end" opacity="0">DOUT</text>
<g class="stroked-text"><desc>DOUT</desc>
<path d="M16.8008 10.0887
L16.8008 8.8187
" />
<path d="M16.8008 8.8187
L17.1032 8.8187
" />
<path d="M17.1032 8.8187
L17.2846 8.8792
" />
<path d="M17.2846 8.8792
L17.4056 9.0002
" />
<path d="M17.4056 9.0002
L17.4661 9.1211
" />
<path d="M17.4661 9.1211
L17.5265 9.3630
" />
<path d="M17.5265 9.3630
L17.5265 9.5444
" />
<path d="M17.5265 9.5444
L17.4661 9.7863
" />
<path d="M17.4661 9.7863
L17.4056 9.9073
" />
<path d="M17.4056 9.9073
L17.2846 10.0283
" />
<path d="M17.2846 10.0283
L17.1032 10.0887
" />
<path d="M17.1032 10.0887
L16.8008 10.0887
" />
<path d="M18.3127 8.8187
L18.5546 8.8187
" />
<path d="M18.5546 8.8187
L18.6756 8.8792
" />
<path d="M18.6756 8.8792
L18.7965 9.0002
" />
<path d="M18.7965 9.0002
L18.8570 9.2421
" />
<path d="M18.8570 9.2421
L18.8570 9.6654
" />
<path d="M18.8570 9.6654
L18.7965 9.9073
" />
<path d="M18.7965 9.9073
L18.6756 10.0283
" />
<path d="M18.6756 10.0283
L18.5546 10.0887
" />
<path d="M18.5546 10.0887
L18.3127 10.0887
" />
<path d="M18.3127 10.0887
L18.1918 10.0283
" />
<path d="M18.1918 10.0283
L18.0708 9.9073
" />
<path d="M18.0708 9.9073
L18.0104 9.6654
" />
<path d="M18.0104 9.6654
L18.0104 9.2421
" />
<path d="M18.0104 9.2421
L18.0708 9.0002
" />
<path d="M18.0708 9.0002
L18.1918 8.8792
" />
<path d="M18.1918 8.8792
L18.3127 8.8187
" />
<path d="M19.4013 8.8187
L19.4013 9.8468
" />
<path d="M19.4013 9.8468
L19.4618 9.9678
" />
<path d="M19.4618 9.9678
L19.5223 10.0283
" />
<path d="M19.5223 10.0283
L19.6432 10.0887
" />
<path d="M19.6432 10.0887
L19.8851 10.0887
" />
<path d="M19.8851 10.0887
L20.0061 10.0283
" />
<path d="M20.0061 10.0283
L20.0666 9.9678
" />
<path d="M20.0666 9.9678
L20.1270 9.8468
" />
<path d="M20.1270 9.8468
L20.1270 8.8187
" />
<path d="M20.5504 8.8187
L21.2761 8.8187
" />
<path d="M20.9133 10.0887
L20.9133 8.8187
" />
</g></g>
<g style="fill:#A90000; fill-opacity:0.0; 
stroke:#A90000; stroke-width:0.1524; stroke-opacity:1; 
stroke-linecap:round; stroke-linejoin:round;">
<text x="23.0213" y="9.2552"
textLength="1.4127" font-size="1.6933" lengthAdjust="spacingAndGlyphs"
text-anchor="middle" opacity="0">4</text>
<g class="stroked-text"><desc>4</desc>
<path d="M23.2632 8.2451
L23.2632 9.0917
" />
<path d="M22.9608 7.7613
L22.6585 8.6684
" />
<path d="M22.6585 8.6684
L23.4446 8.6684
" />
</g></g>
<g style="fill:#840084; fill-opacity:0.0; 
stroke:#840084; stroke-width:0.1524; stroke-opacity:1; 
stroke-linecap:round; stroke-linejoin:round;">
</g>
<g style="fill:#006464; fill-opacity:0.0; 
stroke:#006464; stroke-width:0.1524; stroke-opacity:1; 
stroke-linecap:round; stroke-linejoin:round;">
</g>
<g style="fill:#006464; fill-opacity:0.0; 
stroke:#006464; stroke-width:0.1588; stroke-opacity:1; 
stroke-linecap:round; stroke-linejoin:round;">
<text x="20.4608" y="3.7044"
textLength="2.5810" font-size="1.6933" lengthAdjust="spacingAndGlyphs"
text-anchor="middle" opacity="0">D?</text>
<g class="stroked-text"><desc>D?</desc>
<path d="M19.5838 3.6486
L19.5838 2.3786
" />
<path d="M19.5838 2.3786
L19.8862 2.3786
" />
<path d="M19.8862 2.3786
L20.0676 2.4391
" />
<path d="M20.0676 2.4391
L20.1886 2.5601
" />
<path d="M20.1886 2.5601
L20.2491 2.6810
" />
<path d="M20.2491 2.6810
L20.3095 2.9229
" />
<path d="M20.3095 2.9229
L20.3095 3.1043
" />
<path d="M20.3095 3.1043
L20.2491 3.3462
" />
<path d="M20.2491 3.3462
L20.1886 3.4672
" />
<path d="M20.1886 3.4672
L20.0676 3.5882
" />
<path d="M20.0676 3.5882
L19.8862 3.6486
" />
<path d="M19.8862 3.6486
L19.5838 3.6486
" />
<path d="M21.0353 3.5277
L21.0957 3.5882
" />
<path d="M21.0957 3.5882
L21.0353 3.6486
" />
<path d="M21.0353 3.6486
L20.9748 3.5882
" />
<path d="M20.9748 3.5882
L21.0353 3.5277
" />
<path d="M21.0353 3.5277
L21.0353 3.6486
" />
<path d="M20.7934 2.4391
L20.9143 2.3786
" />
<path d="M20.9143 2.3786
L21.2167 2.3786
" />
<path d="M21.2167 2.3786
L21.3376 2.4391
" />
<path d="M21.3376 2.4391
L21.3981 2.5601
" />
<path d="M21.3981 2.5601
L21.3981 2.6810
" />
<path d="M21.3981 2.6810
L21.3376 2.8020
" />
<path d="M21.3376 2.8020
L21.2772 2.8624
" />
<path d="M21.2772 2.8624
L21.1562 2.9229
" />
<path d="M21.1562 2.9229
L21.0957 2.9834
" />
<path d="M21.0957 2.9834
L21.0353 3.1043
" />
<path d="M21.0353 3.1043
L21.0353 3.1648
" />
</g><text x="21.7112" y="16.5840"
textLength="7.5399" font-size="1.6933" lengthAdjust="spacingAndGlyphs"
text-anchor="middle" opacity="0">SK6812</text>
<g class="stroked-text"><desc>SK6812</desc>
<path d="M18.2944 16.4678
L18.4758 16.5282
" />
<path d="M18.4758 16.5282
L18.7782 16.5282
" />
<path d="M18.7782 16.5282
L18.8991 16.4678
" />
<path d="M18.8991 16.4678
L18.9596 16.4073
" />
<path d="M18.9596 16.4073
L19.0201 16.2863
" />
<path d="M19.0201 16.2863
L19.0201 16.1654
" />
<path d="M19.0201 16.1654
L18.9596 16.0444
" />
<path d="M18.9596 16.0444
L18.8991 15.9839
" />
<path d="M18.8991 15.9839
L18.7782 15.9235
" />
<path d="M18.7782 15.9235
L18.5363 15.8630
" />
<path d="M18.5363 15.8630
L18.4153 15.8025
" />
<path d="M18.4153 15.8025
L18.3548 15.7420
" />
<path d="M18.3548 15.7420
L18.2944 15.6211
" />
<path d="M18.2944 15.6211
L18.2944 15.5001
" />
<path d="M18.2944 15.5001
L18.3548 15.3792
" />
<path d="M18.3548 15.3792
L18.4153 15.3187
" />
<path d="M18.4153 15.3187
L18.5363 15.2582
" />
<path d="M18.5363 15.2582
L18.8386 15.2582
" />
<path d="M18.8386 15.2582
L19.0201 15.3187
" />
<path d="M19.5643 16.5282
L19.5643 15.2582
" />
<path d="M20.2900 16.5282
L19.7458 15.8025
" />
<path d="M20.2900 15.2582
L19.5643 15.9839
" />
<path d="M21.3786 15.2582
L21.1367 15.2582
" />
<path d="M21.1367 15.2582
L21.0158 15.3187
" />
<path d="M21.0158 15.3187
L20.9553 15.3792
" />
<path d="M20.9553 15.3792
L20.8343 15.5606
" />
<path d="M20.8343 15.5606
L20.7739 15.8025
" />
<path d="M20.7739 15.8025
L20.7739 16.2863
" />
<path d="M20.7739 16.2863
L20.8343 16.4073
" />
<path d="M20.8343 16.4073
L20.8948 16.4678
" />
<path d="M20.8948 16.4678
L21.0158 16.5282
" />
<path d="M21.0158 16.5282
L21.2577 16.5282
" />
<path d="M21.2577 16.5282
L21.3786 16.4678
" />
<path d="M21.3786 16.4678
L21.4391 16.4073
" />
<path d="M21.4391 16.4073
L21.4996 16.2863
" />
<path d="M21.4996 16.2863
L21.4996 15.9839
" />
<path d="M21.4996 15.9839
L21.4391 15.8630
" />
<path d="M21.4391 15.8630
L21.3786 15.8025
" />
<path d="M21.3786 15.8025
L21.2577 15.7420
" />
<path d="M21.2577 15.7420
L21.0158 15.7420
" />
<path d="M21.0158 15.7420
L20.8948 15.8025
" />
<path d="M20.8948 15.8025
L20.8343 15.8630
" />
<path d="M20.8343 15.8630
L20.7739 15.9839
" />
<path d="M22.2253 15.8025
L22.1043 15.7420
" />
<path d="M22.1043 15.7420
L22.0438 15.6816
" />
<path d="M22.0438 15.6816
L21.9834 15.5606
" />
<path d="M21.9834 15.5606
L21.9834 15.5001
" />
<path d="M21.9834 15.5001
L22.0438 15.3792
" />
<path d="M22.0438 15.3792
L22.1043 15.3187
" />
<path d="M22.1043 15.3187
L22.2253 15.2582
" />
<path d="M22.2253 15.2582
L22.4672 15.2582
" />
<path d="M22.4672 15.2582
L22.5881 15.3187
" />
<path d="M22.5881 15.3187
L22.6486 15.3792
" />
<path d="M22.6486 15.3792
L22.7091 15.5001
" />
<path d="M22.7091 15.5001
L22.7091 15.5606
" />
<path d="M22.7091 15.5606
L22.6486 15.6816
" />
<path d="M22.6486 15.6816
L22.5881 15.7420
" />
<path d="M22.5881 15.7420
L22.4672 15.8025
" />
<path d="M22.4672 15.8025
L22.2253 15.8025
" />
<path d="M22.2253 15.8025
L22.1043 15.8630
" />
<path d="M22.1043 15.8630
L22.0438 15.9235
" />
<path d="M22.0438 15.9235
L21.9834 16.0444
" />
<path d="M21.9834 16.0444
L21.9834 16.2863
" />
<path d="M21.9834 16.2863
L22.0438 16.4073
" />
<path d="M22.0438 16.4073
L22.1043 16.4678
" />
<path d="M22.1043 16.4678
L22.2253 16.5282
" />
<path d="M22.2253 16.5282
L22.4672 16.5282
" />
<path d="M22.4672 16.5282
L22.5881 16.4678
" />
<path d="M22.5881 16.4678
L22.6486 16.4073
" />
<path d="M22.6486 16.4073
L22.7091 16.2863
" />
<path d="M22.7091 16.2863
L22.7091 16.0444
" />
<path d="M22.7091 16.0444
L22.6486 15.9235
" />
<path d="M22.6486 15.9235
L22.5881 15.8630
" />
<path d="M22.5881 15.8630
L22.4672 15.8025
" />
<path d="M23.9186 16.5282
L23.1929 16.5282
" />
<path d="M23.5557 16.5282
L23.5557 15.2582
" />
<path d="M23.5557 15.2582
L23.4348 15.4397
" />
<path d="M23.4348 15.4397
L23.3138 15.5606
" />
<path d="M23.3138 15.5606
L23.1929 15.6211
" />
<path d="M24.4024 15.3792
L24.4628 15.3187
" />
<path d="M24.4628 15.3187
L24.5838 15.2582
" />
<path d="M24.5838 15.2582
L24.8862 15.2582
" />
<path d="M24.8862 15.2582
L25.0071 15.3187
" />
<path d="M25.0071 15.3187
L25.0676 15.3792
" />
<path d="M25.0676 15.3792
L25.1281 15.5001
" />
<path d="M25.1281 15.5001
L25.1281 15.6211
" />
<path d="M25.1281 15.6211
L25.0676 15.8025
" />
<path d="M25.0676 15.8025
L24.3419 16.5282
" />
<path d="M24.3419 16.5282
L25.1281 16.5282
" />
</g></g>
<g style="fill:#840084; fill-opacity:0.0; 
stroke:#840084; stroke-width:0.1588; stroke-opacity:1; 
stroke-linecap:round; stroke-linejoin:round;">
<text x="41.9403" y="18.4890"
textLength="47.9981" font-size="1.6933" lengthAdjust="spacingAndGlyphs"
text-anchor="middle" opacity="0">LED_SMD:LED_SK6812_PLCC4_5.0x5.0mm_P3.2mm</text>
<g class="stroked-text"><desc>LED_SMD:LED_SK6812_PLCC4_5.0x5.0mm_P3.2mm</desc>
<path d="M18.9596 18.4332
L18.3548 18.4332
" />
<path d="M18.3548 18.4332
L18.3548 17.1632
" />
<path d="M19.3829 17.7680
L19.8063 17.7680
" />
<path d="M19.9877 18.4332
L19.3829 18.4332
" />
<path d="M19.3829 18.4332
L19.3829 17.1632
" />
<path d="M19.3829 17.1632
L19.9877 17.1632
" />
<path d="M20.5319 18.4332
L20.5319 17.1632
" />
<path d="M20.5319 17.1632
L20.8343 17.1632
" />
<path d="M20.8343 17.1632
L21.0157 17.2237
" />
<path d="M21.0157 17.2237
L21.1367 17.3447
" />
<path d="M21.1367 17.3447
L21.1972 17.4656
" />
<path d="M21.1972 17.4656
L21.2576 17.7075
" />
<path d="M21.2576 17.7075
L21.2576 17.8889
" />
<path d="M21.2576 17.8889
L21.1972 18.1308
" />
<path d="M21.1972 18.1308
L21.1367 18.2518
" />
<path d="M21.1367 18.2518
L21.0157 18.3728
" />
<path d="M21.0157 18.3728
L20.8343 18.4332
" />
<path d="M20.8343 18.4332
L20.5319 18.4332
" />
<path d="M21.4996 18.5542
L22.4672 18.5542
" />
<path d="M22.7091 18.3728
L22.8905 18.4332
" />
<path d="M22.8905 18.4332
L23.1929 18.4332
" />
<path d="M23.1929 18.4332
L23.3138 18.3728
" />
<path d="M23.3138 18.3728
L23.3743 18.3123
" />
<path d="M23.3743 18.3123
L23.4348 18.1913
" />
<path d="M23.4348 18.1913
L23.4348 18.0704
" />
<path d="M23.4348 18.0704
L23.3743 17.9494
" />
<path d="M23.3743 17.9494
L23.3138 17.8889
" />
<path d="M23.3138 17.8889
L23.1929 17.8285
" />
<path d="M23.1929 17.8285
L22.9510 17.7680
" />
<path d="M22.9510 17.7680
L22.8300 17.7075
" />
<path d="M22.8300 17.7075
L22.7695 17.6470
" />
<path d="M22.7695 17.6470
L22.7091 17.5261
" />
<path d="M22.7091 17.5261
L22.7091 17.4051
" />
<path d="M22.7091 17.4051
L22.7695 17.2842
" />
<path d="M22.7695 17.2842
L22.8300 17.2237
" />
<path d="M22.8300 17.2237
L22.9510 17.1632
" />
<path d="M22.9510 17.1632
L23.2533 17.1632
" />
<path d="M23.2533 17.1632
L23.4348 17.2237
" />
<path d="M23.9790 18.4332
L23.9790 17.1632
" />
<path d="M23.9790 17.1632
L24.4024 18.0704
" />
<path d="M24.4024 18.0704
L24.8257 17.1632
" />
<path d="M24.8257 17.1632
L24.8257 18.4332
" />
<path d="M25.4304 18.4332
L25.4304 17.1632
" />
<path d="M25.4304 17.1632
L25.7328 17.1632
" />
<path d="M25.7328 17.1632
L25.9142 17.2237
" />
<path d="M25.9142 17.2237
L26.0352 17.3447
" />
<path d="M26.0352 17.3447
L26.0957 17.4656
" />
<path d="M26.0957 17.4656
L26.1561 17.7075
" />
<path d="M26.1561 17.7075
L26.1561 17.8889
" />
<path d="M26.1561 17.8889
L26.0957 18.1308
" />
<path d="M26.0957 18.1308
L26.0352 18.2518
" />
<path d="M26.0352 18.2518
L25.9142 18.3728
" />
<path d="M25.9142 18.3728
L25.7328 18.4332
" />
<path d="M25.7328 18.4332
L25.4304 18.4332
" />
<path d="M26.7004 18.3123
L26.7609 18.3728
" />
<path d="M26.7609 18.3728
L26.7004 18.4332
" />
<path d="M26.7004 18.4332
L26.6400 18.3728
" />
<path d="M26.6400 18.3728
L26.7004 18.3123
" />
<path d="M26.7004 18.3123
L26.7004 18.4332
" />
<path d="M26.7004 17.6470
L26.7609 17.7075
" />
<path d="M26.7609 17.7075
L26.7004 17.7680
" />
<path d="M26.7004 17.7680
L26.6400 17.7075
" />
<path d="M26.6400 17.7075
L26.7004 17.6470
" />
<path d="M26.7004 17.6470
L26.7004 17.7680
" />
<path d="M27.9100 18.4332
L27.3052 18.4332
" />
<path d="M27.3052 18.4332
L27.3052 17.1632
" />
<path d="M28.3333 17.7680
L28.7567 17.7680
" />
<path d="M28.9381 18.4332
L28.3333 18.4332
" />
<path d="M28.3333 18.4332
L28.3333 17.1632
" />
<path d="M28.3333 17.1632
L28.9381 17.1632
" />
<path d="M29.4823 18.4332
L29.4823 17.1632
" />
<path d="M29.4823 17.1632
L29.7847 17.1632
" />
<path d="M29.7847 17.1632
L29.9661 17.2237
" />
<path d="M29.9661 17.2237
L30.0871 17.3447
" />
<path d="M30.0871 17.3447
L30.1476 17.4656
" />
<path d="M30.1476 17.4656
L30.2080 17.7075
" />
<path d="M30.2080 17.7075
L30.2080 17.8889
" />
<path d="M30.2080 17.8889
L30.1476 18.1308
" />
<path d="M30.1476 18.1308
L30.0871 18.2518
" />
<path d="M30.0871 18.2518
L29.9661 18.3728
" />
<path d="M29.9661 18.3728
L29.7847 18.4332
" />
<path d="M29.7847 18.4332
L29.4823 18.4332
" />
<path d="M30.4500 18.5542
L31.4176 18.5542
" />
<path d="M31.6595 18.3728
L31.8409 18.4332
" />
<path d="M31.8409 18.4332
L32.1433 18.4332
" />
<path d="M32.1433 18.4332
L32.2642 18.3728
" />
<path d="M32.2642 18.3728
L32.3247 18.3123
" />
<path d="M32.3247 18.3123
L32.3852 18.1913
" />
<path d="M32.3852 18.1913
L32.3852 18.0704
" />
<path d="M32.3852 18.0704
L32.3247 17.9494
" />
<path d="M32.3247 17.9494
L32.2642 17.8889
" />
<path d="M32.2642 17.8889
L32.1433 17.8285
" />
<path d="M32.1433 17.8285
L31.9014 17.7680
" />
<path d="M31.9014 17.7680
L31.7804 17.7075
" />
<path d="M31.7804 17.7075
L31.7199 17.6470
" />
<path d="M31.7199 17.6470
L31.6595 17.5261
" />
<path d="M31.6595 17.5261
L31.6595 17.4051
" />
<path d="M31.6595 17.4051
L31.7199 17.2842
" />
<path d="M31.7199 17.2842
L31.7804 17.2237
" />
<path d="M31.7804 17.2237
L31.9014 17.1632
" />
<path d="M31.9014 17.1632
L32.2037 17.1632
" />
<path d="M32.2037 17.1632
L32.3852 17.2237
" />
<path d="M32.9294 18.4332
L32.9294 17.1632
" />
<path d="M33.6551 18.4332
L33.1109 17.7075
" />
<path d="M33.6551 17.1632
L32.9294 17.8889
" />
<path d="M34.7437 17.1632
L34.5018 17.1632
" />
<path d="M34.5018 17.1632
L34.3809 17.2237
" />
<path d="M34.3809 17.2237
L34.3204 17.2842
" />
<path d="M34.3204 17.2842
L34.1994 17.4656
" />
<path d="M34.1994 17.4656
L34.1390 17.7075
" />
<path d="M34.1390 17.7075
L34.1390 18.1913
" />
<path d="M34.1390 18.1913
L34.1994 18.3123
" />
<path d="M34.1994 18.3123
L34.2599 18.3728
" />
<path d="M34.2599 18.3728
L34.3809 18.4332
" />
<path d="M34.3809 18.4332
L34.6228 18.4332
" />
<path d="M34.6228 18.4332
L34.7437 18.3728
" />
<path d="M34.7437 18.3728
L34.8042 18.3123
" />
<path d="M34.8042 18.3123
L34.8647 18.1913
" />
<path d="M34.8647 18.1913
L34.8647 17.8889
" />
<path d="M34.8647 17.8889
L34.8042 17.7680
" />
<path d="M34.8042 17.7680
L34.7437 17.7075
" />
<path d="M34.7437 17.7075
L34.6228 17.6470
" />
<path d="M34.6228 17.6470
L34.3809 17.6470
" />
<path d="M34.3809 17.6470
L34.2599 17.7075
" />
<path d="M34.2599 17.7075
L34.1994 17.7680
" />
<path d="M34.1994 17.7680
L34.1390 17.8889
" />
<path d="M35.5904 17.7075
L35.4694 17.6470
" />
<path d="M35.4694 17.6470
L35.4089 17.5866
" />
<path d="M35.4089 17.5866
L35.3485 17.4656
" />
<path d="M35.3485 17.4656
L35.3485 17.4051
" />
<path d="M35.3485 17.4051
L35.4089 17.2842
" />
<path d="M35.4089 17.2842
L35.4694 17.2237
" />
<path d="M35.4694 17.2237
L35.5904 17.1632
" />
<path d="M35.5904 17.1632
L35.8323 17.1632
" />
<path d="M35.8323 17.1632
L35.9532 17.2237
" />
<path d="M35.9532 17.2237
L36.0137 17.2842
" />
<path d="M36.0137 17.2842
L36.0742 17.4051
" />
<path d="M36.0742 17.4051
L36.0742 17.4656
" />
<path d="M36.0742 17.4656
L36.0137 17.5866
" />
<path d="M36.0137 17.5866
L35.9532 17.6470
" />
<path d="M35.9532 17.6470
L35.8323 17.7075
" />
<path d="M35.8323 17.7075
L35.5904 17.7075
" />
<path d="M35.5904 17.7075
L35.4694 17.7680
" />
<path d="M35.4694 17.7680
L35.4089 17.8285
" />
<path d="M35.4089 17.8285
L35.3485 17.9494
" />
<path d="M35.3485 17.9494
L35.3485 18.1913
" />
<path d="M35.3485 18.1913
L35.4089 18.3123
" />
<path d="M35.4089 18.3123
L35.4694 18.3728
" />
<path d="M35.4694 18.3728
L35.5904 18.4332
" />
<path d="M35.5904 18.4332
L35.8323 18.4332
" />
<path d="M35.8323 18.4332
L35.9532 18.3728
" />
<path d="M35.9532 18.3728
L36.0137 18.3123
" />
<path d="M36.0137 18.3123
L36.0742 18.1913
" />
<path d="M36.0742 18.1913
L36.0742 17.9494
" />
<path d="M36.0742 17.9494
L36.0137 17.8285
" />
<path d="M36.0137 17.8285
L35.9532 17.7680
" />
<path d="M35.9532 17.7680
L35.8323 17.7075
" />
<path d="M37.2837 18.4332
L36.5580 18.4332
" />
<path d="M36.9208 18.4332
L36.9208 17.1632
" />
<path d="M36.9208 17.1632
L36.7999 17.3447
" />
<path d="M36.7999 17.3447
L36.6789 17.4656
" />
<path d="M36.6789 17.4656
L36.5580 17.5261
" />
<path d="M37.7675 17.2842
L37.8279 17.2237
" />
<path d="M37.8279 17.2237
L37.9489 17.1632
" />
<path d="M37.9489 17.1632
L38.2513 17.1632
" />
<path d="M38.2513 17.1632
L38.3722 17.2237
" />
<path d="M38.3722 17.2237
L38.4327 17.2842
" />
<path d="M38.4327 17.2842
L38.4932 17.4051
" />
<path d="M38.4932 17.4051
L38.4932 17.5261
" />
<path d="M38.4932 17.5261
L38.4327 17.7075
" />
<path d="M38.4327 17.7075
L37.7070 18.4332
" />
<path d="M37.7070 18.4332
L38.4932 18.4332
" />
<path d="M38.7351 18.5542
L39.7027 18.5542
" />
<path d="M40.0050 18.4332
L40.0050 17.1632
" />
<path d="M40.0050 17.1632
L40.4888 17.1632
" />
<path d="M40.4888 17.1632
L40.6098 17.2237
" />
<path d="M40.6098 17.2237
L40.6703 17.2842
" />
<path d="M40.6703 17.2842
L40.7307 17.4051
" />
<path d="M40.7307 17.4051
L40.7307 17.5866
" />
<path d="M40.7307 17.5866
L40.6703 17.7075
" />
<path d="M40.6703 17.7075
L40.6098 17.7680
" />
<path d="M40.6098 17.7680
L40.4888 17.8285
" />
<path d="M40.4888 17.8285
L40.0050 17.8285
" />
<path d="M41.8798 18.4332
L41.2750 18.4332
" />
<path d="M41.2750 18.4332
L41.2750 17.1632
" />
<path d="M43.0288 18.3123
L42.9684 18.3728
" />
<path d="M42.9684 18.3728
L42.7869 18.4332
" />
<path d="M42.7869 18.4332
L42.6660 18.4332
" />
<path d="M42.6660 18.4332
L42.4846 18.3728
" />
<path d="M42.4846 18.3728
L42.3636 18.2518
" />
<path d="M42.3636 18.2518
L42.3031 18.1308
" />
<path d="M42.3031 18.1308
L42.2427 17.8889
" />
<path d="M42.2427 17.8889
L42.2427 17.7075
" />
<path d="M42.2427 17.7075
L42.3031 17.4656
" />
<path d="M42.3031 17.4656
L42.3636 17.3447
" />
<path d="M42.3636 17.3447
L42.4846 17.2237
" />
<path d="M42.4846 17.2237
L42.6660 17.1632
" />
<path d="M42.6660 17.1632
L42.7869 17.1632
" />
<path d="M42.7869 17.1632
L42.9684 17.2237
" />
<path d="M42.9684 17.2237
L43.0288 17.2842
" />
<path d="M44.2988 18.3123
L44.2384 18.3728
" />
<path d="M44.2384 18.3728
L44.0569 18.4332
" />
<path d="M44.0569 18.4332
L43.9360 18.4332
" />
<path d="M43.9360 18.4332
L43.7546 18.3728
" />
<path d="M43.7546 18.3728
L43.6336 18.2518
" />
<path d="M43.6336 18.2518
L43.5731 18.1308
" />
<path d="M43.5731 18.1308
L43.5127 17.8889
" />
<path d="M43.5127 17.8889
L43.5127 17.7075
" />
<path d="M43.5127 17.7075
L43.5731 17.4656
" />
<path d="M43.5731 17.4656
L43.6336 17.3447
" />
<path d="M43.6336 17.3447
L43.7546 17.2237
" />
<path d="M43.7546 17.2237
L43.9360 17.1632
" />
<path d="M43.9360 17.1632
L44.0569 17.1632
" />
<path d="M44.0569 17.1632
L44.2384 17.2237
" />
<path d="M44.2384 17.2237
L44.2988 17.2842
" />
<path d="M45.3874 17.5866
L45.3874 18.4332
" />
<path d="M45.0850 17.1028
L44.7827 18.0099
" />
<path d="M44.7827 18.0099
L45.5688 18.0099
" />
<path d="M45.7503 18.5542
L46.7179 18.5542
" />
<path d="M47.6250 17.1632
L47.0202 17.1632
" />
<path d="M47.0202 17.1632
L46.9598 17.7680
" />
<path d="M46.9598 17.7680
L47.0202 17.7075
" />
<path d="M47.0202 17.7075
L47.1412 17.6470
" />
<path d="M47.1412 17.6470
L47.4436 17.6470
" />
<path d="M47.4436 17.6470
L47.5645 17.7075
" />
<path d="M47.5645 17.7075
L47.6250 17.7680
" />
<path d="M47.6250 17.7680
L47.6855 17.8889
" />
<path d="M47.6855 17.8889
L47.6855 18.1913
" />
<path d="M47.6855 18.1913
L47.6250 18.3123
" />
<path d="M47.6250 18.3123
L47.5645 18.3728
" />
<path d="M47.5645 18.3728
L47.4436 18.4332
" />
<path d="M47.4436 18.4332
L47.1412 18.4332
" />
<path d="M47.1412 18.4332
L47.0202 18.3728
" />
<path d="M47.0202 18.3728
L46.9598 18.3123
" />
<path d="M48.2297 18.3123
L48.2902 18.3728
" />
<path d="M48.2902 18.3728
L48.2297 18.4332
" />
<path d="M48.2297 18.4332
L48.1693 18.3728
" />
<path d="M48.1693 18.3728
L48.2297 18.3123
" />
<path d="M48.2297 18.3123
L48.2297 18.4332
" />
<path d="M49.0764 17.1632
L49.1974 17.1632
" />
<path d="M49.1974 17.1632
L49.3183 17.2237
" />
<path d="M49.3183 17.2237
L49.3788 17.2842
" />
<path d="M49.3788 17.2842
L49.4393 17.4051
" />
<path d="M49.4393 17.4051
L49.4998 17.6470
" />
<path d="M49.4998 17.6470
L49.4998 17.9494
" />
<path d="M49.4998 17.9494
L49.4393 18.1913
" />
<path d="M49.4393 18.1913
L49.3788 18.3123
" />
<path d="M49.3788 18.3123
L49.3183 18.3728
" />
<path d="M49.3183 18.3728
L49.1974 18.4332
" />
<path d="M49.1974 18.4332
L49.0764 18.4332
" />
<path d="M49.0764 18.4332
L48.9555 18.3728
" />
<path d="M48.9555 18.3728
L48.8950 18.3123
" />
<path d="M48.8950 18.3123
L48.8345 18.1913
" />
<path d="M48.8345 18.1913
L48.7741 17.9494
" />
<path d="M48.7741 17.9494
L48.7741 17.6470
" />
<path d="M48.7741 17.6470
L48.8345 17.4051
" />
<path d="M48.8345 17.4051
L48.8950 17.2842
" />
<path d="M48.8950 17.2842
L48.9555 17.2237
" />
<path d="M48.9555 17.2237
L49.0764 17.1632
" />
<path d="M49.9231 18.4332
L50.5883 17.5866
" />
<path d="M49.9231 17.5866
L50.5883 18.4332
" />
<path d="M51.6769 17.1632
L51.0721 17.1632
" />
<path d="M51.0721 17.1632
L51.0117 17.7680
" />
<path d="M51.0117 17.7680
L51.0721 17.7075
" />
<path d="M51.0721 17.7075
L51.1931 17.6470
" />
<path d="M51.1931 17.6470
L51.4955 17.6470
" />
<path d="M51.4955 17.6470
L51.6164 17.7075
" />
<path d="M51.6164 17.7075
L51.6769 17.7680
" />
<path d="M51.6769 17.7680
L51.7374 17.8889
" />
<path d="M51.7374 17.8889
L51.7374 18.1913
" />
<path d="M51.7374 18.1913
L51.6769 18.3123
" />
<path d="M51.6769 18.3123
L51.6164 18.3728
" />
<path d="M51.6164 18.3728
L51.4955 18.4332
" />
<path d="M51.4955 18.4332
L51.1931 18.4332
" />
<path d="M51.1931 18.4332
L51.0721 18.3728
" />
<path d="M51.0721 18.3728
L51.0117 18.3123
" />
<path d="M52.2816 18.3123
L52.3421 18.3728
" />
<path d="M52.3421 18.3728
L52.2816 18.4332
" />
<path d="M52.2816 18.4332
L52.2212 18.3728
" />
<path d="M52.2212 18.3728
L52.2816 18.3123
" />
<path d="M52.2816 18.3123
L52.2816 18.4332
" />
<path d="M53.1283 17.1632
L53.2493 17.1632
" />
<path d="M53.2493 17.1632
L53.3702 17.2237
" />
<path d="M53.3702 17.2237
L53.4307 17.2842
" />
<path d="M53.4307 17.2842
L53.4912 17.4051
" />
<path d="M53.4912 17.4051
L53.5517 17.6470
" />
<path d="M53.5517 17.6470
L53.5517 17.9494
" />
<path d="M53.5517 17.9494
L53.4912 18.1913
" />
<path d="M53.4912 18.1913
L53.4307 18.3123
" />
<path d="M53.4307 18.3123
L53.3702 18.3728
" />
<path d="M53.3702 18.3728
L53.2493 18.4332
" />
<path d="M53.2493 18.4332
L53.1283 18.4332
" />
<path d="M53.1283 18.4332
L53.0074 18.3728
" />
<path d="M53.0074 18.3728
L52.9469 18.3123
" />
<path d="M52.9469 18.3123
L52.8864 18.1913
" />
<path d="M52.8864 18.1913
L52.8260 17.9494
" />
<path d="M52.8260 17.9494
L52.8260 17.6470
" />
<path d="M52.8260 17.6470
L52.8864 17.4051
" />
<path d="M52.8864 17.4051
L52.9469 17.2842
" />
<path d="M52.9469 17.2842
L53.0074 17.2237
" />
<path d="M53.0074 17.2237
L53.1283 17.1632
" />
<path d="M54.0959 18.4332
L54.0959 17.5866
" />
<path d="M54.0959 17.7075
L54.1564 17.6470
" />
<path d="M54.1564 17.6470
L54.2774 17.5866
" />
<path d="M54.2774 17.5866
L54.4588 17.5866
" />
<path d="M54.4588 17.5866
L54.5797 17.6470
" />
<path d="M54.5797 17.6470
L54.6402 17.7680
" />
<path d="M54.6402 17.7680
L54.6402 18.4332
" />
<path d="M54.6402 17.7680
L54.7007 17.6470
" />
<path d="M54.7007 17.6470
L54.8216 17.5866
" />
<path d="M54.8216 17.5866
L55.0031 17.5866
" />
<path d="M55.0031 17.5866
L55.1240 17.6470
" />
<path d="M55.1240 17.6470
L55.1845 17.7680
" />
<path d="M55.1845 17.7680
L55.1845 18.4332
" />
<path d="M55.7892 18.4332
L55.7892 17.5866
" />
<path d="M55.7892 17.7075
L55.8497 17.6470
" />
<path d="M55.8497 17.6470
L55.9707 17.5866
" />
<path d="M55.9707 17.5866
L56.1521 17.5866
" />
<path d="M56.1521 17.5866
L56.2730 17.6470
" />
<path d="M56.2730 17.6470
L56.3335 17.7680
" />
<path d="M56.3335 17.7680
L56.3335 18.4332
" />
<path d="M56.3335 17.7680
L56.3940 17.6470
" />
<path d="M56.3940 17.6470
L56.5149 17.5866
" />
<path d="M56.5149 17.5866
L56.6964 17.5866
" />
<path d="M56.6964 17.5866
L56.8173 17.6470
" />
<path d="M56.8173 17.6470
L56.8778 17.7680
" />
<path d="M56.8778 17.7680
L56.8778 18.4332
" />
<path d="M57.1802 18.5542
L58.1478 18.5542
" />
<path d="M58.4501 18.4332
L58.4501 17.1632
" />
<path d="M58.4501 17.1632
L58.9339 17.1632
" />
<path d="M58.9339 17.1632
L59.0549 17.2237
" />
<path d="M59.0549 17.2237
L59.1154 17.2842
" />
<path d="M59.1154 17.2842
L59.1758 17.4051
" />
<path d="M59.1758 17.4051
L59.1758 17.5866
" />
<path d="M59.1758 17.5866
L59.1154 17.7075
" />
<path d="M59.1154 17.7075
L59.0549 17.7680
" />
<path d="M59.0549 17.7680
L58.9339 17.8285
" />
<path d="M58.9339 17.8285
L58.4501 17.8285
" />
<path d="M59.5992 17.1632
L60.3854 17.1632
" />
<path d="M60.3854 17.1632
L59.9620 17.6470
" />
<path d="M59.9620 17.6470
L60.1435 17.6470
" />
<path d="M60.1435 17.6470
L60.2644 17.7075
" />
<path d="M60.2644 17.7075
L60.3249 17.7680
" />
<path d="M60.3249 17.7680
L60.3854 17.8889
" />
<path d="M60.3854 17.8889
L60.3854 18.1913
" />
<path d="M60.3854 18.1913
L60.3249 18.3123
" />
<path d="M60.3249 18.3123
L60.2644 18.3728
" />
<path d="M60.2644 18.3728
L60.1435 18.4332
" />
<path d="M60.1435 18.4332
L59.7806 18.4332
" />
<path d="M59.7806 18.4332
L59.6597 18.3728
" />
<path d="M59.6597 18.3728
L59.5992 18.3123
" />
<path d="M60.9296 18.3123
L60.9901 18.3728
" />
<path d="M60.9901 18.3728
L60.9296 18.4332
" />
<path d="M60.9296 18.4332
L60.8692 18.3728
" />
<path d="M60.8692 18.3728
L60.9296 18.3123
" />
<path d="M60.9296 18.3123
L60.9296 18.4332
" />
<path d="M61.4740 17.2842
L61.5344 17.2237
" />
<path d="M61.5344 17.2237
L61.6554 17.1632
" />
<path d="M61.6554 17.1632
L61.9578 17.1632
" />
<path d="M61.9578 17.1632
L62.0787 17.2237
" />
<path d="M62.0787 17.2237
L62.1392 17.2842
" />
<path d="M62.1392 17.2842
L62.1997 17.4051
" />
<path d="M62.1997 17.4051
L62.1997 17.5261
" />
<path d="M62.1997 17.5261
L62.1392 17.7075
" />
<path d="M62.1392 17.7075
L61.4135 18.4332
" />
<path d="M61.4135 18.4332
L62.1997 18.4332
" />
<path d="M62.7439 18.4332
L62.7439 17.5866
" />
<path d="M62.7439 17.7075
L62.8044 17.6470
" />
<path d="M62.8044 17.6470
L62.9254 17.5866
" />
<path d="M62.9254 17.5866
L63.1068 17.5866
" />
<path d="M63.1068 17.5866
L63.2277 17.6470
" />
<path d="M63.2277 17.6470
L63.2882 17.7680
" />
<path d="M63.2882 17.7680
L63.2882 18.4332
" />
<path d="M63.2882 17.7680
L63.3487 17.6470
" />
<path d="M63.3487 17.6470
L63.4696 17.5866
" />
<path d="M63.4696 17.5866
L63.6511 17.5866
" />
<path d="M63.6511 17.5866
L63.7720 17.6470
" />
<path d="M63.7720 17.6470
L63.8325 17.7680
" />
<path d="M63.8325 17.7680
L63.8325 18.4332
" />
<path d="M64.4372 18.4332
L64.4372 17.5866
" />
<path d="M64.4372 17.7075
L64.4977 17.6470
" />
<path d="M64.4977 17.6470
L64.6187 17.5866
" />
<path d="M64.6187 17.5866
L64.8001 17.5866
" />
<path d="M64.8001 17.5866
L64.9210 17.6470
" />
<path d="M64.9210 17.6470
L64.9815 17.7680
" />
<path d="M64.9815 17.7680
L64.9815 18.4332
" />
<path d="M64.9815 17.7680
L65.0420 17.6470
" />
<path d="M65.0420 17.6470
L65.1629 17.5866
" />
<path d="M65.1629 17.5866
L65.3444 17.5866
" />
<path d="M65.3444 17.5866
L65.4653 17.6470
" />
<path d="M65.4653 17.6470
L65.5258 17.7680
" />
<path d="M65.5258 17.7680
L65.5258 18.4332
" />
</g><text x="59.3875" y="20.3940"
textLength="80.3525" font-size="1.6933" lengthAdjust="spacingAndGlyphs"
text-anchor="middle" opacity="0">https://cdn-shop.adafruit.com/product-files/1138/SK6812+LED+datasheet+.pdf</text>
<g class="stroked-text"><desc>https://cdn-shop.adafruit.com/product-files/1138/SK6812+LED+datasheet+.pdf</desc>
<path d="M19.6248 20.3382
L19.6248 19.0682
" />
<path d="M20.1691 20.3382
L20.1691 19.6730
" />
<path d="M20.1691 19.6730
L20.1086 19.5520
" />
<path d="M20.1086 19.5520
L19.9877 19.4916
" />
<path d="M19.9877 19.4916
L19.8063 19.4916
" />
<path d="M19.8063 19.4916
L19.6853 19.5520
" />
<path d="M19.6853 19.5520
L19.6248 19.6125
" />
<path d="M20.5924 19.4916
L21.0762 19.4916
" />
<path d="M20.7738 19.0682
L20.7738 20.1568
" />
<path d="M20.7738 20.1568
L20.8343 20.2778
" />
<path d="M20.8343 20.2778
L20.9553 20.3382
" />
<path d="M20.9553 20.3382
L21.0762 20.3382
" />
<path d="M21.3181 19.4916
L21.8019 19.4916
" />
<path d="M21.4995 19.0682
L21.4995 20.1568
" />
<path d="M21.4995 20.1568
L21.5600 20.2778
" />
<path d="M21.5600 20.2778
L21.6810 20.3382
" />
<path d="M21.6810 20.3382
L21.8019 20.3382
" />
<path d="M22.2252 19.4916
L22.2252 20.7616
" />
<path d="M22.2252 19.5520
L22.3462 19.4916
" />
<path d="M22.3462 19.4916
L22.5881 19.4916
" />
<path d="M22.5881 19.4916
L22.7090 19.5520
" />
<path d="M22.7090 19.5520
L22.7695 19.6125
" />
<path d="M22.7695 19.6125
L22.8300 19.7335
" />
<path d="M22.8300 19.7335
L22.8300 20.0963
" />
<path d="M22.8300 20.0963
L22.7695 20.2173
" />
<path d="M22.7695 20.2173
L22.7090 20.2778
" />
<path d="M22.7090 20.2778
L22.5881 20.3382
" />
<path d="M22.5881 20.3382
L22.3462 20.3382
" />
<path d="M22.3462 20.3382
L22.2252 20.2778
" />
<path d="M23.3138 20.2778
L23.4347 20.3382
" />
<path d="M23.4347 20.3382
L23.6766 20.3382
" />
<path d="M23.6766 20.3382
L23.7976 20.2778
" />
<path d="M23.7976 20.2778
L23.8580 20.1568
" />
<path d="M23.8580 20.1568
L23.8580 20.0963
" />
<path d="M23.8580 20.0963
L23.7976 19.9754
" />
<path d="M23.7976 19.9754
L23.6766 19.9149
" />
<path d="M23.6766 19.9149
L23.4952 19.9149
" />
<path d="M23.4952 19.9149
L23.3742 19.8544
" />
<path d="M23.3742 19.8544
L23.3138 19.7335
" />
<path d="M23.3138 19.7335
L23.3138 19.6730
" />
<path d="M23.3138 19.6730
L23.3742 19.5520
" />
<path d="M23.3742 19.5520
L23.4952 19.4916
" />
<path d="M23.4952 19.4916
L23.6766 19.4916
" />
<path d="M23.6766 19.4916
L23.7976 19.5520
" />
<path d="M24.4023 20.2173
L24.4628 20.2778
" />
<path d="M24.4628 20.2778
L24.4023 20.3382
" />
<path d="M24.4023 20.3382
L24.3419 20.2778
" />
<path d="M24.3419 20.2778
L24.4023 20.2173
" />
<path d="M24.4023 20.2173
L24.4023 20.3382
" />
<path d="M24.4023 19.5520
L24.4628 19.6125
" />
<path d="M24.4628 19.6125
L24.4023 19.6730
" />
<path d="M24.4023 19.6730
L24.3419 19.6125
" />
<path d="M24.3419 19.6125
L24.4023 19.5520
" />
<path d="M24.4023 19.5520
L24.4023 19.6730
" />
<path d="M25.9143 19.0078
L24.8257 20.6406
" />
<path d="M27.2448 19.0078
L26.1562 20.6406
" />
<path d="M28.2124 20.2778
L28.0915 20.3382
" />
<path d="M28.0915 20.3382
L27.8496 20.3382
" />
<path d="M27.8496 20.3382
L27.7286 20.2778
" />
<path d="M27.7286 20.2778
L27.6681 20.2173
" />
<path d="M27.6681 20.2173
L27.6077 20.0963
" />
<path d="M27.6077 20.0963
L27.6077 19.7335
" />
<path d="M27.6077 19.7335
L27.6681 19.6125
" />
<path d="M27.6681 19.6125
L27.7286 19.5520
" />
<path d="M27.7286 19.5520
L27.8496 19.4916
" />
<path d="M27.8496 19.4916
L28.0915 19.4916
" />
<path d="M28.0915 19.4916
L28.2124 19.5520
" />
<path d="M29.3010 20.3382
L29.3010 19.0682
" />
<path d="M29.3010 20.2778
L29.1801 20.3382
" />
<path d="M29.1801 20.3382
L28.9382 20.3382
" />
<path d="M28.9382 20.3382
L28.8172 20.2778
" />
<path d="M28.8172 20.2778
L28.7567 20.2173
" />
<path d="M28.7567 20.2173
L28.6963 20.0963
" />
<path d="M28.6963 20.0963
L28.6963 19.7335
" />
<path d="M28.6963 19.7335
L28.7567 19.6125
" />
<path d="M28.7567 19.6125
L28.8172 19.5520
" />
<path d="M28.8172 19.5520
L28.9382 19.4916
" />
<path d="M28.9382 19.4916
L29.1801 19.4916
" />
<path d="M29.1801 19.4916
L29.3010 19.5520
" />
<path d="M29.9057 19.4916
L29.9057 20.3382
" />
<path d="M29.9057 19.6125
L29.9662 19.5520
" />
<path d="M29.9662 19.5520
L30.0872 19.4916
" />
<path d="M30.0872 19.4916
L30.2686 19.4916
" />
<path d="M30.2686 19.4916
L30.3895 19.5520
" />
<path d="M30.3895 19.5520
L30.4500 19.6730
" />
<path d="M30.4500 19.6730
L30.4500 20.3382
" />
<path d="M31.0547 19.8544
L32.0224 19.8544
" />
<path d="M32.5667 20.2778
L32.6876 20.3382
" />
<path d="M32.6876 20.3382
L32.9295 20.3382
" />
<path d="M32.9295 20.3382
L33.0505 20.2778
" />
<path d="M33.0505 20.2778
L33.1109 20.1568
" />
<path d="M33.1109 20.1568
L33.1109 20.0963
" />
<path d="M33.1109 20.0963
L33.0505 19.9754
" />
<path d="M33.0505 19.9754
L32.9295 19.9149
" />
<path d="M32.9295 19.9149
L32.7481 19.9149
" />
<path d="M32.7481 19.9149
L32.6271 19.8544
" />
<path d="M32.6271 19.8544
L32.5667 19.7335
" />
<path d="M32.5667 19.7335
L32.5667 19.6730
" />
<path d="M32.5667 19.6730
L32.6271 19.5520
" />
<path d="M32.6271 19.5520
L32.7481 19.4916
" />
<path d="M32.7481 19.4916
L32.9295 19.4916
" />
<path d="M32.9295 19.4916
L33.0505 19.5520
" />
<path d="M33.6552 20.3382
L33.6552 19.0682
" />
<path d="M34.1995 20.3382
L34.1995 19.6730
" />
<path d="M34.1995 19.6730
L34.1390 19.5520
" />
<path d="M34.1390 19.5520
L34.0181 19.4916
" />
<path d="M34.0181 19.4916
L33.8367 19.4916
" />
<path d="M33.8367 19.4916
L33.7157 19.5520
" />
<path d="M33.7157 19.5520
L33.6552 19.6125
" />
<path d="M34.9857 20.3382
L34.8647 20.2778
" />
<path d="M34.8647 20.2778
L34.8042 20.2173
" />
<path d="M34.8042 20.2173
L34.7438 20.0963
" />
<path d="M34.7438 20.0963
L34.7438 19.7335
" />
<path d="M34.7438 19.7335
L34.8042 19.6125
" />
<path d="M34.8042 19.6125
L34.8647 19.5520
" />
<path d="M34.8647 19.5520
L34.9857 19.4916
" />
<path d="M34.9857 19.4916
L35.1671 19.4916
" />
<path d="M35.1671 19.4916
L35.2880 19.5520
" />
<path d="M35.2880 19.5520
L35.3485 19.6125
" />
<path d="M35.3485 19.6125
L35.4090 19.7335
" />
<path d="M35.4090 19.7335
L35.4090 20.0963
" />
<path d="M35.4090 20.0963
L35.3485 20.2173
" />
<path d="M35.3485 20.2173
L35.2880 20.2778
" />
<path d="M35.2880 20.2778
L35.1671 20.3382
" />
<path d="M35.1671 20.3382
L34.9857 20.3382
" />
<path d="M35.9532 19.4916
L35.9532 20.7616
" />
<path d="M35.9532 19.5520
L36.0742 19.4916
" />
<path d="M36.0742 19.4916
L36.3161 19.4916
" />
<path d="M36.3161 19.4916
L36.4370 19.5520
" />
<path d="M36.4370 19.5520
L36.4975 19.6125
" />
<path d="M36.4975 19.6125
L36.5580 19.7335
" />
<path d="M36.5580 19.7335
L36.5580 20.0963
" />
<path d="M36.5580 20.0963
L36.4975 20.2173
" />
<path d="M36.4975 20.2173
L36.4370 20.2778
" />
<path d="M36.4370 20.2778
L36.3161 20.3382
" />
<path d="M36.3161 20.3382
L36.0742 20.3382
" />
<path d="M36.0742 20.3382
L35.9532 20.2778
" />
<path d="M37.1022 20.2173
L37.1627 20.2778
" />
<path d="M37.1627 20.2778
L37.1022 20.3382
" />
<path d="M37.1022 20.3382
L37.0418 20.2778
" />
<path d="M37.0418 20.2778
L37.1022 20.2173
" />
<path d="M37.1022 20.2173
L37.1022 20.3382
" />
<path d="M38.2513 20.3382
L38.2513 19.6730
" />
<path d="M38.2513 19.6730
L38.1908 19.5520
" />
<path d="M38.1908 19.5520
L38.0699 19.4916
" />
<path d="M38.0699 19.4916
L37.8280 19.4916
" />
<path d="M37.8280 19.4916
L37.7070 19.5520
" />
<path d="M38.2513 20.2778
L38.1304 20.3382
" />
<path d="M38.1304 20.3382
L37.8280 20.3382
" />
<path d="M37.8280 20.3382
L37.7070 20.2778
" />
<path d="M37.7070 20.2778
L37.6466 20.1568
" />
<path d="M37.6466 20.1568
L37.6466 20.0358
" />
<path d="M37.6466 20.0358
L37.7070 19.9149
" />
<path d="M37.7070 19.9149
L37.8280 19.8544
" />
<path d="M37.8280 19.8544
L38.1304 19.8544
" />
<path d="M38.1304 19.8544
L38.2513 19.7939
" />
<path d="M39.4003 20.3382
L39.4003 19.0682
" />
<path d="M39.4003 20.2778
L39.2794 20.3382
" />
<path d="M39.2794 20.3382
L39.0375 20.3382
" />
<path d="M39.0375 20.3382
L38.9165 20.2778
" />
<path d="M38.9165 20.2778
L38.8560 20.2173
" />
<path d="M38.8560 20.2173
L38.7956 20.0963
" />
<path d="M38.7956 20.0963
L38.7956 19.7335
" />
<path d="M38.7956 19.7335
L38.8560 19.6125
" />
<path d="M38.8560 19.6125
L38.9165 19.5520
" />
<path d="M38.9165 19.5520
L39.0375 19.4916
" />
<path d="M39.0375 19.4916
L39.2794 19.4916
" />
<path d="M39.2794 19.4916
L39.4003 19.5520
" />
<path d="M40.5493 20.3382
L40.5493 19.6730
" />
<path d="M40.5493 19.6730
L40.4888 19.5520
" />
<path d="M40.4888 19.5520
L40.3679 19.4916
" />
<path d="M40.3679 19.4916
L40.1260 19.4916
" />
<path d="M40.1260 19.4916
L40.0050 19.5520
" />
<path d="M40.5493 20.2778
L40.4284 20.3382
" />
<path d="M40.4284 20.3382
L40.1260 20.3382
" />
<path d="M40.1260 20.3382
L40.0050 20.2778
" />
<path d="M40.0050 20.2778
L39.9446 20.1568
" />
<path d="M39.9446 20.1568
L39.9446 20.0358
" />
<path d="M39.9446 20.0358
L40.0050 19.9149
" />
<path d="M40.0050 19.9149
L40.1260 19.8544
" />
<path d="M40.1260 19.8544
L40.4284 19.8544
" />
<path d="M40.4284 19.8544
L40.5493 19.7939
" />
<path d="M40.9726 19.4916
L41.4564 19.4916
" />
<path d="M41.1540 20.3382
L41.1540 19.2497
" />
<path d="M41.1540 19.2497
L41.2145 19.1287
" />
<path d="M41.2145 19.1287
L41.3355 19.0682
" />
<path d="M41.3355 19.0682
L41.4564 19.0682
" />
<path d="M41.8797 20.3382
L41.8797 19.4916
" />
<path d="M41.8797 19.7335
L41.9402 19.6125
" />
<path d="M41.9402 19.6125
L42.0007 19.5520
" />
<path d="M42.0007 19.5520
L42.1216 19.4916
" />
<path d="M42.1216 19.4916
L42.2426 19.4916
" />
<path d="M43.2102 19.4916
L43.2102 20.3382
" />
<path d="M42.6659 19.4916
L42.6659 20.1568
" />
<path d="M42.6659 20.1568
L42.7264 20.2778
" />
<path d="M42.7264 20.2778
L42.8474 20.3382
" />
<path d="M42.8474 20.3382
L43.0288 20.3382
" />
<path d="M43.0288 20.3382
L43.1497 20.2778
" />
<path d="M43.1497 20.2778
L43.2102 20.2173
" />
<path d="M43.8149 20.3382
L43.8149 19.4916
" />
<path d="M43.8149 19.0682
L43.7545 19.1287
" />
<path d="M43.7545 19.1287
L43.8149 19.1892
" />
<path d="M43.8149 19.1892
L43.8754 19.1287
" />
<path d="M43.8754 19.1287
L43.8149 19.0682
" />
<path d="M43.8149 19.0682
L43.8149 19.1892
" />
<path d="M44.2383 19.4916
L44.7221 19.4916
" />
<path d="M44.4197 19.0682
L44.4197 20.1568
" />
<path d="M44.4197 20.1568
L44.4802 20.2778
" />
<path d="M44.4802 20.2778
L44.6012 20.3382
" />
<path d="M44.6012 20.3382
L44.7221 20.3382
" />
<path d="M45.1454 20.2173
L45.2059 20.2778
" />
<path d="M45.2059 20.2778
L45.1454 20.3382
" />
<path d="M45.1454 20.3382
L45.0850 20.2778
" />
<path d="M45.0850 20.2778
L45.1454 20.2173
" />
<path d="M45.1454 20.2173
L45.1454 20.3382
" />
<path d="M46.2945 20.2778
L46.1736 20.3382
" />
<path d="M46.1736 20.3382
L45.9317 20.3382
" />
<path d="M45.9317 20.3382
L45.8107 20.2778
" />
<path d="M45.8107 20.2778
L45.7502 20.2173
" />
<path d="M45.7502 20.2173
L45.6898 20.0963
" />
<path d="M45.6898 20.0963
L45.6898 19.7335
" />
<path d="M45.6898 19.7335
L45.7502 19.6125
" />
<path d="M45.7502 19.6125
L45.8107 19.5520
" />
<path d="M45.8107 19.5520
L45.9317 19.4916
" />
<path d="M45.9317 19.4916
L46.1736 19.4916
" />
<path d="M46.1736 19.4916
L46.2945 19.5520
" />
<path d="M47.0203 20.3382
L46.8993 20.2778
" />
<path d="M46.8993 20.2778
L46.8388 20.2173
" />
<path d="M46.8388 20.2173
L46.7784 20.0963
" />
<path d="M46.7784 20.0963
L46.7784 19.7335
" />
<path d="M46.7784 19.7335
L46.8388 19.6125
" />
<path d="M46.8388 19.6125
L46.8993 19.5520
" />
<path d="M46.8993 19.5520
L47.0203 19.4916
" />
<path d="M47.0203 19.4916
L47.2017 19.4916
" />
<path d="M47.2017 19.4916
L47.3226 19.5520
" />
<path d="M47.3226 19.5520
L47.3831 19.6125
" />
<path d="M47.3831 19.6125
L47.4436 19.7335
" />
<path d="M47.4436 19.7335
L47.4436 20.0963
" />
<path d="M47.4436 20.0963
L47.3831 20.2173
" />
<path d="M47.3831 20.2173
L47.3226 20.2778
" />
<path d="M47.3226 20.2778
L47.2017 20.3382
" />
<path d="M47.2017 20.3382
L47.0203 20.3382
" />
<path d="M47.9878 20.3382
L47.9878 19.4916
" />
<path d="M47.9878 19.6125
L48.0483 19.5520
" />
<path d="M48.0483 19.5520
L48.1693 19.4916
" />
<path d="M48.1693 19.4916
L48.3507 19.4916
" />
<path d="M48.3507 19.4916
L48.4716 19.5520
" />
<path d="M48.4716 19.5520
L48.5321 19.6730
" />
<path d="M48.5321 19.6730
L48.5321 20.3382
" />
<path d="M48.5321 19.6730
L48.5926 19.5520
" />
<path d="M48.5926 19.5520
L48.7135 19.4916
" />
<path d="M48.7135 19.4916
L48.8950 19.4916
" />
<path d="M48.8950 19.4916
L49.0159 19.5520
" />
<path d="M49.0159 19.5520
L49.0764 19.6730
" />
<path d="M49.0764 19.6730
L49.0764 20.3382
" />
<path d="M50.5883 19.0078
L49.4997 20.6406
" />
<path d="M51.0116 19.4916
L51.0116 20.7616
" />
<path d="M51.0116 19.5520
L51.1326 19.4916
" />
<path d="M51.1326 19.4916
L51.3745 19.4916
" />
<path d="M51.3745 19.4916
L51.4954 19.5520
" />
<path d="M51.4954 19.5520
L51.5559 19.6125
" />
<path d="M51.5559 19.6125
L51.6164 19.7335
" />
<path d="M51.6164 19.7335
L51.6164 20.0963
" />
<path d="M51.6164 20.0963
L51.5559 20.2173
" />
<path d="M51.5559 20.2173
L51.4954 20.2778
" />
<path d="M51.4954 20.2778
L51.3745 20.3382
" />
<path d="M51.3745 20.3382
L51.1326 20.3382
" />
<path d="M51.1326 20.3382
L51.0116 20.2778
" />
<path d="M52.1606 20.3382
L52.1606 19.4916
" />
<path d="M52.1606 19.7335
L52.2211 19.6125
" />
<path d="M52.2211 19.6125
L52.2816 19.5520
" />
<path d="M52.2816 19.5520
L52.4025 19.4916
" />
<path d="M52.4025 19.4916
L52.5235 19.4916
" />
<path d="M53.1283 20.3382
L53.0073 20.2778
" />
<path d="M53.0073 20.2778
L52.9468 20.2173
" />
<path d="M52.9468 20.2173
L52.8864 20.0963
" />
<path d="M52.8864 20.0963
L52.8864 19.7335
" />
<path d="M52.8864 19.7335
L52.9468 19.6125
" />
<path d="M52.9468 19.6125
L53.0073 19.5520
" />
<path d="M53.0073 19.5520
L53.1283 19.4916
" />
<path d="M53.1283 19.4916
L53.3097 19.4916
" />
<path d="M53.3097 19.4916
L53.4306 19.5520
" />
<path d="M53.4306 19.5520
L53.4911 19.6125
" />
<path d="M53.4911 19.6125
L53.5516 19.7335
" />
<path d="M53.5516 19.7335
L53.5516 20.0963
" />
<path d="M53.5516 20.0963
L53.4911 20.2173
" />
<path d="M53.4911 20.2173
L53.4306 20.2778
" />
<path d="M53.4306 20.2778
L53.3097 20.3382
" />
<path d="M53.3097 20.3382
L53.1283 20.3382
" />
<path d="M54.6401 20.3382
L54.6401 19.0682
" />
<path d="M54.6401 20.2778
L54.5192 20.3382
" />
<path d="M54.5192 20.3382
L54.2773 20.3382
" />
<path d="M54.2773 20.3382
L54.1563 20.2778
" />
<path d="M54.1563 20.2778
L54.0958 20.2173
" />
<path d="M54.0958 20.2173
L54.0354 20.0963
" />
<path d="M54.0354 20.0963
L54.0354 19.7335
" />
<path d="M54.0354 19.7335
L54.0958 19.6125
" />
<path d="M54.0958 19.6125
L54.1563 19.5520
" />
<path d="M54.1563 19.5520
L54.2773 19.4916
" />
<path d="M54.2773 19.4916
L54.5192 19.4916
" />
<path d="M54.5192 19.4916
L54.6401 19.5520
" />
<path d="M55.7891 19.4916
L55.7891 20.3382
" />
<path d="M55.2448 19.4916
L55.2448 20.1568
" />
<path d="M55.2448 20.1568
L55.3053 20.2778
" />
<path d="M55.3053 20.2778
L55.4263 20.3382
" />
<path d="M55.4263 20.3382
L55.6077 20.3382
" />
<path d="M55.6077 20.3382
L55.7286 20.2778
" />
<path d="M55.7286 20.2778
L55.7891 20.2173
" />
<path d="M56.9381 20.2778
L56.8172 20.3382
" />
<path d="M56.8172 20.3382
L56.5753 20.3382
" />
<path d="M56.5753 20.3382
L56.4543 20.2778
" />
<path d="M56.4543 20.2778
L56.3938 20.2173
" />
<path d="M56.3938 20.2173
L56.3334 20.0963
" />
<path d="M56.3334 20.0963
L56.3334 19.7335
" />
<path d="M56.3334 19.7335
L56.3938 19.6125
" />
<path d="M56.3938 19.6125
L56.4543 19.5520
" />
<path d="M56.4543 19.5520
L56.5753 19.4916
" />
<path d="M56.5753 19.4916
L56.8172 19.4916
" />
<path d="M56.8172 19.4916
L56.9381 19.5520
" />
<path d="M57.3010 19.4916
L57.7848 19.4916
" />
<path d="M57.4824 19.0682
L57.4824 20.1568
" />
<path d="M57.4824 20.1568
L57.5429 20.2778
" />
<path d="M57.5429 20.2778
L57.6639 20.3382
" />
<path d="M57.6639 20.3382
L57.7848 20.3382
" />
<path d="M58.2081 19.8544
L59.1758 19.8544
" />
<path d="M59.5991 19.4916
L60.0829 19.4916
" />
<path d="M59.7805 20.3382
L59.7805 19.2497
" />
<path d="M59.7805 19.2497
L59.8410 19.1287
" />
<path d="M59.8410 19.1287
L59.9620 19.0682
" />
<path d="M59.9620 19.0682
L60.0829 19.0682
" />
<path d="M60.5062 20.3382
L60.5062 19.4916
" />
<path d="M60.5062 19.0682
L60.4458 19.1287
" />
<path d="M60.4458 19.1287
L60.5062 19.1892
" />
<path d="M60.5062 19.1892
L60.5667 19.1287
" />
<path d="M60.5667 19.1287
L60.5062 19.0682
" />
<path d="M60.5062 19.0682
L60.5062 19.1892
" />
<path d="M61.2925 20.3382
L61.1715 20.2778
" />
<path d="M61.1715 20.2778
L61.1110 20.1568
" />
<path d="M61.1110 20.1568
L61.1110 19.0682
" />
<path d="M62.2600 20.2778
L62.1391 20.3382
" />
<path d="M62.1391 20.3382
L61.8972 20.3382
" />
<path d="M61.8972 20.3382
L61.7762 20.2778
" />
<path d="M61.7762 20.2778
L61.7158 20.1568
" />
<path d="M61.7158 20.1568
L61.7158 19.6730
" />
<path d="M61.7158 19.6730
L61.7762 19.5520
" />
<path d="M61.7762 19.5520
L61.8972 19.4916
" />
<path d="M61.8972 19.4916
L62.1391 19.4916
" />
<path d="M62.1391 19.4916
L62.2600 19.5520
" />
<path d="M62.2600 19.5520
L62.3205 19.6730
" />
<path d="M62.3205 19.6730
L62.3205 19.7939
" />
<path d="M62.3205 19.7939
L61.7158 19.9149
" />
<path d="M62.8044 20.2778
L62.9253 20.3382
" />
<path d="M62.9253 20.3382
L63.1672 20.3382
" />
<path d="M63.1672 20.3382
L63.2882 20.2778
" />
<path d="M63.2882 20.2778
L63.3486 20.1568
" />
<path d="M63.3486 20.1568
L63.3486 20.0963
" />
<path d="M63.3486 20.0963
L63.2882 19.9754
" />
<path d="M63.2882 19.9754
L63.1672 19.9149
" />
<path d="M63.1672 19.9149
L62.9858 19.9149
" />
<path d="M62.9858 19.9149
L62.8648 19.8544
" />
<path d="M62.8648 19.8544
L62.8044 19.7335
" />
<path d="M62.8044 19.7335
L62.8044 19.6730
" />
<path d="M62.8044 19.6730
L62.8648 19.5520
" />
<path d="M62.8648 19.5520
L62.9858 19.4916
" />
<path d="M62.9858 19.4916
L63.1672 19.4916
" />
<path d="M63.1672 19.4916
L63.2882 19.5520
" />
<path d="M64.8001 19.0078
L63.7115 20.6406
" />
<path d="M65.8887 20.3382
L65.1630 20.3382
" />
<path d="M65.5258 20.3382
L65.5258 19.0682
" />
<path d="M65.5258 19.0682
L65.4049 19.2497
" />
<path d="M65.4049 19.2497
L65.2839 19.3706
" />
<path d="M65.2839 19.3706
L65.1630 19.4311
" />
<path d="M67.0982 20.3382
L66.3725 20.3382
" />
<path d="M66.7353 20.3382
L66.7353 19.0682
" />
<path d="M66.7353 19.0682
L66.6144 19.2497
" />
<path d="M66.6144 19.2497
L66.4934 19.3706
" />
<path d="M66.4934 19.3706
L66.3725 19.4311
" />
<path d="M67.5215 19.0682
L68.3077 19.0682
" />
<path d="M68.3077 19.0682
L67.8843 19.5520
" />
<path d="M67.8843 19.5520
L68.0658 19.5520
" />
<path d="M68.0658 19.5520
L68.1867 19.6125
" />
<path d="M68.1867 19.6125
L68.2472 19.6730
" />
<path d="M68.2472 19.6730
L68.3077 19.7939
" />
<path d="M68.3077 19.7939
L68.3077 20.0963
" />
<path d="M68.3077 20.0963
L68.2472 20.2173
" />
<path d="M68.2472 20.2173
L68.1867 20.2778
" />
<path d="M68.1867 20.2778
L68.0658 20.3382
" />
<path d="M68.0658 20.3382
L67.7029 20.3382
" />
<path d="M67.7029 20.3382
L67.5820 20.2778
" />
<path d="M67.5820 20.2778
L67.5215 20.2173
" />
<path d="M69.0334 19.6125
L68.9124 19.5520
" />
<path d="M68.9124 19.5520
L68.8519 19.4916
" />
<path d="M68.8519 19.4916
L68.7915 19.3706
" />
<path d="M68.7915 19.3706
L68.7915 19.3101
" />
<path d="M68.7915 19.3101
L68.8519 19.1892
" />
<path d="M68.8519 19.1892
L68.9124 19.1287
" />
<path d="M68.9124 19.1287
L69.0334 19.0682
" />
<path d="M69.0334 19.0682
L69.2753 19.0682
" />
<path d="M69.2753 19.0682
L69.3962 19.1287
" />
<path d="M69.3962 19.1287
L69.4567 19.1892
" />
<path d="M69.4567 19.1892
L69.5172 19.3101
" />
<path d="M69.5172 19.3101
L69.5172 19.3706
" />
<path d="M69.5172 19.3706
L69.4567 19.4916
" />
<path d="M69.4567 19.4916
L69.3962 19.5520
" />
<path d="M69.3962 19.5520
L69.2753 19.6125
" />
<path d="M69.2753 19.6125
L69.0334 19.6125
" />
<path d="M69.0334 19.6125
L68.9124 19.6730
" />
<path d="M68.9124 19.6730
L68.8519 19.7335
" />
<path d="M68.8519 19.7335
L68.7915 19.8544
" />
<path d="M68.7915 19.8544
L68.7915 20.0963
" />
<path d="M68.7915 20.0963
L68.8519 20.2173
" />
<path d="M68.8519 20.2173
L68.9124 20.2778
" />
<path d="M68.9124 20.2778
L69.0334 20.3382
" />
<path d="M69.0334 20.3382
L69.2753 20.3382
" />
<path d="M69.2753 20.3382
L69.3962 20.2778
" />
<path d="M69.3962 20.2778
L69.4567 20.2173
" />
<path d="M69.4567 20.2173
L69.5172 20.0963
" />
<path d="M69.5172 20.0963
L69.5172 19.8544
" />
<path d="M69.5172 19.8544
L69.4567 19.7335
" />
<path d="M69.4567 19.7335
L69.3962 19.6730
" />
<path d="M69.3962 19.6730
L69.2753 19.6125
" />
<path d="M70.9686 19.0078
L69.8800 20.6406
" />
<path d="M71.3315 20.2778
L71.5129 20.3382
" />
<path d="M71.5129 20.3382
L71.8153 20.3382
" />
<path d="M71.8153 20.3382
L71.9362 20.2778
" />
<path d="M71.9362 20.2778
L71.9967 20.2173
" />
<path d="M71.9967 20.2173
L72.0572 20.0963
" />
<path d="M72.0572 20.0963
L72.0572 19.9754
" />
<path d="M72.0572 19.9754
L71.9967 19.8544
" />
<path d="M71.9967 19.8544
L71.9362 19.7939
" />
<path d="M71.9362 19.7939
L71.8153 19.7335
" />
<path d="M71.8153 19.7335
L71.5734 19.6730
" />
<path d="M71.5734 19.6730
L71.4524 19.6125
" />
<path d="M71.4524 19.6125
L71.3919 19.5520
" />
<path d="M71.3919 19.5520
L71.3315 19.4311
" />
<path d="M71.3315 19.4311
L71.3315 19.3101
" />
<path d="M71.3315 19.3101
L71.3919 19.1892
" />
<path d="M71.3919 19.1892
L71.4524 19.1287
" />
<path d="M71.4524 19.1287
L71.5734 19.0682
" />
<path d="M71.5734 19.0682
L71.8757 19.0682
" />
<path d="M71.8757 19.0682
L72.0572 19.1287
" />
<path d="M72.6014 20.3382
L72.6014 19.0682
" />
<path d="M73.3271 20.3382
L72.7829 19.6125
" />
<path d="M73.3271 19.0682
L72.6014 19.7939
" />
<path d="M74.4157 19.0682
L74.1738 19.0682
" />
<path d="M74.1738 19.0682
L74.0529 19.1287
" />
<path d="M74.0529 19.1287
L73.9924 19.1892
" />
<path d="M73.9924 19.1892
L73.8714 19.3706
" />
<path d="M73.8714 19.3706
L73.8110 19.6125
" />
<path d="M73.8110 19.6125
L73.8110 20.0963
" />
<path d="M73.8110 20.0963
L73.8714 20.2173
" />
<path d="M73.8714 20.2173
L73.9319 20.2778
" />
<path d="M73.9319 20.2778
L74.0529 20.3382
" />
<path d="M74.0529 20.3382
L74.2948 20.3382
" />
<path d="M74.2948 20.3382
L74.4157 20.2778
" />
<path d="M74.4157 20.2778
L74.4762 20.2173
" />
<path d="M74.4762 20.2173
L74.5367 20.0963
" />
<path d="M74.5367 20.0963
L74.5367 19.7939
" />
<path d="M74.5367 19.7939
L74.4762 19.6730
" />
<path d="M74.4762 19.6730
L74.4157 19.6125
" />
<path d="M74.4157 19.6125
L74.2948 19.5520
" />
<path d="M74.2948 19.5520
L74.0529 19.5520
" />
<path d="M74.0529 19.5520
L73.9319 19.6125
" />
<path d="M73.9319 19.6125
L73.8714 19.6730
" />
<path d="M73.8714 19.6730
L73.8110 19.7939
" />
<path d="M75.2624 19.6125
L75.1414 19.5520
" />
<path d="M75.1414 19.5520
L75.0809 19.4916
" />
<path d="M75.0809 19.4916
L75.0205 19.3706
" />
<path d="M75.0205 19.3706
L75.0205 19.3101
" />
<path d="M75.0205 19.3101
L75.0809 19.1892
" />
<path d="M75.0809 19.1892
L75.1414 19.1287
" />
<path d="M75.1414 19.1287
L75.2624 19.0682
" />
<path d="M75.2624 19.0682
L75.5043 19.0682
" />
<path d="M75.5043 19.0682
L75.6252 19.1287
" />
<path d="M75.6252 19.1287
L75.6857 19.1892
" />
<path d="M75.6857 19.1892
L75.7462 19.3101
" />
<path d="M75.7462 19.3101
L75.7462 19.3706
" />
<path d="M75.7462 19.3706
L75.6857 19.4916
" />
<path d="M75.6857 19.4916
L75.6252 19.5520
" />
<path d="M75.6252 19.5520
L75.5043 19.6125
" />
<path d="M75.5043 19.6125
L75.2624 19.6125
" />
<path d="M75.2624 19.6125
L75.1414 19.6730
" />
<path d="M75.1414 19.6730
L75.0809 19.7335
" />
<path d="M75.0809 19.7335
L75.0205 19.8544
" />
<path d="M75.0205 19.8544
L75.0205 20.0963
" />
<path d="M75.0205 20.0963
L75.0809 20.2173
" />
<path d="M75.0809 20.2173
L75.1414 20.2778
" />
<path d="M75.1414 20.2778
L75.2624 20.3382
" />
<path d="M75.2624 20.3382
L75.5043 20.3382
" />
<path d="M75.5043 20.3382
L75.6252 20.2778
" />
<path d="M75.6252 20.2778
L75.6857 20.2173
" />
<path d="M75.6857 20.2173
L75.7462 20.0963
" />
<path d="M75.7462 20.0963
L75.7462 19.8544
" />
<path d="M75.7462 19.8544
L75.6857 19.7335
" />
<path d="M75.6857 19.7335
L75.6252 19.6730
" />
<path d="M75.6252 19.6730
L75.5043 19.6125
" />
<path d="M76.9557 20.3382
L76.2300 20.3382
" />
<path d="M76.5928 20.3382
L76.5928 19.0682
" />
<path d="M76.5928 19.0682
L76.4719 19.2497
" />
<path d="M76.4719 19.2497
L76.3509 19.3706
" />
<path d="M76.3509 19.3706
L76.2300 19.4311
" />
<path d="M77.4395 19.1892
L77.4999 19.1287
" />
<path d="M77.4999 19.1287
L77.6209 19.0682
" />
<path d="M77.6209 19.0682
L77.9233 19.0682
" />
<path d="M77.9233 19.0682
L78.0442 19.1287
" />
<path d="M78.0442 19.1287
L78.1047 19.1892
" />
<path d="M78.1047 19.1892
L78.1652 19.3101
" />
<path d="M78.1652 19.3101
L78.1652 19.4311
" />
<path d="M78.1652 19.4311
L78.1047 19.6125
" />
<path d="M78.1047 19.6125
L77.3790 20.3382
" />
<path d="M77.3790 20.3382
L78.1652 20.3382
" />
<path d="M78.7094 19.8544
L79.6771 19.8544
" />
<path d="M79.1932 20.3382
L79.1932 19.3706
" />
<path d="M80.8866 20.3382
L80.2818 20.3382
" />
<path d="M80.2818 20.3382
L80.2818 19.0682
" />
<path d="M81.3099 19.6730
L81.7333 19.6730
" />
<path d="M81.9147 20.3382
L81.3099 20.3382
" />
<path d="M81.3099 20.3382
L81.3099 19.0682
" />
<path d="M81.3099 19.0682
L81.9147 19.0682
" />
<path d="M82.4589 20.3382
L82.4589 19.0682
" />
<path d="M82.4589 19.0682
L82.7613 19.0682
" />
<path d="M82.7613 19.0682
L82.9427 19.1287
" />
<path d="M82.9427 19.1287
L83.0637 19.2497
" />
<path d="M83.0637 19.2497
L83.1242 19.3706
" />
<path d="M83.1242 19.3706
L83.1846 19.6125
" />
<path d="M83.1846 19.6125
L83.1846 19.7939
" />
<path d="M83.1846 19.7939
L83.1242 20.0358
" />
<path d="M83.1242 20.0358
L83.0637 20.1568
" />
<path d="M83.0637 20.1568
L82.9427 20.2778
" />
<path d="M82.9427 20.2778
L82.7613 20.3382
" />
<path d="M82.7613 20.3382
L82.4589 20.3382
" />
<path d="M83.7289 19.8544
L84.6966 19.8544
" />
<path d="M84.2127 20.3382
L84.2127 19.3706
" />
<path d="M85.8456 20.3382
L85.8456 19.0682
" />
<path d="M85.8456 20.2778
L85.7247 20.3382
" />
<path d="M85.7247 20.3382
L85.4828 20.3382
" />
<path d="M85.4828 20.3382
L85.3618 20.2778
" />
<path d="M85.3618 20.2778
L85.3013 20.2173
" />
<path d="M85.3013 20.2173
L85.2409 20.0963
" />
<path d="M85.2409 20.0963
L85.2409 19.7335
" />
<path d="M85.2409 19.7335
L85.3013 19.6125
" />
<path d="M85.3013 19.6125
L85.3618 19.5520
" />
<path d="M85.3618 19.5520
L85.4828 19.4916
" />
<path d="M85.4828 19.4916
L85.7247 19.4916
" />
<path d="M85.7247 19.4916
L85.8456 19.5520
" />
<path d="M86.9946 20.3382
L86.9946 19.6730
" />
<path d="M86.9946 19.6730
L86.9341 19.5520
" />
<path d="M86.9341 19.5520
L86.8132 19.4916
" />
<path d="M86.8132 19.4916
L86.5713 19.4916
" />
<path d="M86.5713 19.4916
L86.4503 19.5520
" />
<path d="M86.9946 20.2778
L86.8737 20.3382
" />
<path d="M86.8737 20.3382
L86.5713 20.3382
" />
<path d="M86.5713 20.3382
L86.4503 20.2778
" />
<path d="M86.4503 20.2778
L86.3899 20.1568
" />
<path d="M86.3899 20.1568
L86.3899 20.0358
" />
<path d="M86.3899 20.0358
L86.4503 19.9149
" />
<path d="M86.4503 19.9149
L86.5713 19.8544
" />
<path d="M86.5713 19.8544
L86.8737 19.8544
" />
<path d="M86.8737 19.8544
L86.9946 19.7939
" />
<path d="M87.4179 19.4916
L87.9017 19.4916
" />
<path d="M87.5993 19.0682
L87.5993 20.1568
" />
<path d="M87.5993 20.1568
L87.6598 20.2778
" />
<path d="M87.6598 20.2778
L87.7808 20.3382
" />
<path d="M87.7808 20.3382
L87.9017 20.3382
" />
<path d="M88.8693 20.3382
L88.8693 19.6730
" />
<path d="M88.8693 19.6730
L88.8088 19.5520
" />
<path d="M88.8088 19.5520
L88.6879 19.4916
" />
<path d="M88.6879 19.4916
L88.4460 19.4916
" />
<path d="M88.4460 19.4916
L88.3250 19.5520
" />
<path d="M88.8693 20.2778
L88.7484 20.3382
" />
<path d="M88.7484 20.3382
L88.4460 20.3382
" />
<path d="M88.4460 20.3382
L88.3250 20.2778
" />
<path d="M88.3250 20.2778
L88.2646 20.1568
" />
<path d="M88.2646 20.1568
L88.2646 20.0358
" />
<path d="M88.2646 20.0358
L88.3250 19.9149
" />
<path d="M88.3250 19.9149
L88.4460 19.8544
" />
<path d="M88.4460 19.8544
L88.7484 19.8544
" />
<path d="M88.7484 19.8544
L88.8693 19.7939
" />
<path d="M89.4136 20.2778
L89.5345 20.3382
" />
<path d="M89.5345 20.3382
L89.7764 20.3382
" />
<path d="M89.7764 20.3382
L89.8974 20.2778
" />
<path d="M89.8974 20.2778
L89.9578 20.1568
" />
<path d="M89.9578 20.1568
L89.9578 20.0963
" />
<path d="M89.9578 20.0963
L89.8974 19.9754
" />
<path d="M89.8974 19.9754
L89.7764 19.9149
" />
<path d="M89.7764 19.9149
L89.5950 19.9149
" />
<path d="M89.5950 19.9149
L89.4740 19.8544
" />
<path d="M89.4740 19.8544
L89.4136 19.7335
" />
<path d="M89.4136 19.7335
L89.4136 19.6730
" />
<path d="M89.4136 19.6730
L89.4740 19.5520
" />
<path d="M89.4740 19.5520
L89.5950 19.4916
" />
<path d="M89.5950 19.4916
L89.7764 19.4916
" />
<path d="M89.7764 19.4916
L89.8974 19.5520
" />
<path d="M90.5021 20.3382
L90.5021 19.0682
" />
<path d="M91.0464 20.3382
L91.0464 19.6730
" />
<path d="M91.0464 19.6730
L90.9859 19.5520
" />
<path d="M90.9859 19.5520
L90.8650 19.4916
" />
<path d="M90.8650 19.4916
L90.6836 19.4916
" />
<path d="M90.6836 19.4916
L90.5626 19.5520
" />
<path d="M90.5626 19.5520
L90.5021 19.6125
" />
<path d="M92.1349 20.2778
L92.0140 20.3382
" />
<path d="M92.0140 20.3382
L91.7721 20.3382
" />
<path d="M91.7721 20.3382
L91.6511 20.2778
" />
<path d="M91.6511 20.2778
L91.5907 20.1568
" />
<path d="M91.5907 20.1568
L91.5907 19.6730
" />
<path d="M91.5907 19.6730
L91.6511 19.5520
" />
<path d="M91.6511 19.5520
L91.7721 19.4916
" />
<path d="M91.7721 19.4916
L92.0140 19.4916
" />
<path d="M92.0140 19.4916
L92.1349 19.5520
" />
<path d="M92.1349 19.5520
L92.1954 19.6730
" />
<path d="M92.1954 19.6730
L92.1954 19.7939
" />
<path d="M92.1954 19.7939
L91.5907 19.9149
" />
<path d="M93.2235 20.2778
L93.1026 20.3382
" />
<path d="M93.1026 20.3382
L92.8607 20.3382
" />
<path d="M92.8607 20.3382
L92.7397 20.2778
" />
<path d="M92.7397 20.2778
L92.6793 20.1568
" />
<path d="M92.6793 20.1568
L92.6793 19.6730
" />
<path d="M92.6793 19.6730
L92.7397 19.5520
" />
<path d="M92.7397 19.5520
L92.8607 19.4916
" />
<path d="M92.8607 19.4916
L93.1026 19.4916
" />
<path d="M93.1026 19.4916
L93.2235 19.5520
" />
<path d="M93.2235 19.5520
L93.2840 19.6730
" />
<path d="M93.2840 19.6730
L93.2840 19.7939
" />
<path d="M93.2840 19.7939
L92.6793 19.9149
" />
<path d="M93.6469 19.4916
L94.1307 19.4916
" />
<path d="M93.8283 19.0682
L93.8283 20.1568
" />
<path d="M93.8283 20.1568
L93.8888 20.2778
" />
<path d="M93.8888 20.2778
L94.0098 20.3382
" />
<path d="M94.0098 20.3382
L94.1307 20.3382
" />
<path d="M94.5540 19.8544
L95.5217 19.8544
" />
<path d="M95.0378 20.3382
L95.0378 19.3706
" />
<path d="M96.1264 20.2173
L96.1869 20.2778
" />
<path d="M96.1869 20.2778
L96.1264 20.3382
" />
<path d="M96.1264 20.3382
L96.0660 20.2778
" />
<path d="M96.0660 20.2778
L96.1264 20.2173
" />
<path d="M96.1264 20.2173
L96.1264 20.3382
" />
<path d="M96.7312 19.4916
L96.7312 20.7616
" />
<path d="M96.7312 19.5520
L96.8522 19.4916
" />
<path d="M96.8522 19.4916
L97.0941 19.4916
" />
<path d="M97.0941 19.4916
L97.2150 19.5520
" />
<path d="M97.2150 19.5520
L97.2755 19.6125
" />
<path d="M97.2755 19.6125
L97.3360 19.7335
" />
<path d="M97.3360 19.7335
L97.3360 20.0963
" />
<path d="M97.3360 20.0963
L97.2755 20.2173
" />
<path d="M97.2755 20.2173
L97.2150 20.2778
" />
<path d="M97.2150 20.2778
L97.0941 20.3382
" />
<path d="M97.0941 20.3382
L96.8522 20.3382
" />
<path d="M96.8522 20.3382
L96.7312 20.2778
" />
<path d="M98.4245 20.3382
L98.4245 19.0682
" />
<path d="M98.4245 20.2778
L98.3036 20.3382
" />
<path d="M98.3036 20.3382
L98.0617 20.3382
" />
<path d="M98.0617 20.3382
L97.9407 20.2778
" />
<path d="M97.9407 20.2778
L97.8802 20.2173
" />
<path d="M97.8802 20.2173
L97.8198 20.0963
" />
<path d="M97.8198 20.0963
L97.8198 19.7335
" />
<path d="M97.8198 19.7335
L97.8802 19.6125
" />
<path d="M97.8802 19.6125
L97.9407 19.5520
" />
<path d="M97.9407 19.5520
L98.0617 19.4916
" />
<path d="M98.0617 19.4916
L98.3036 19.4916
" />
<path d="M98.3036 19.4916
L98.4245 19.5520
" />
<path d="M98.8478 19.4916
L99.3316 19.4916
" />
<path d="M99.0292 20.3382
L99.0292 19.2497
" />
<path d="M99.0292 19.2497
L99.0897 19.1287
" />
<path d="M99.0897 19.1287
L99.2107 19.0682
" />
<path d="M99.2107 19.0682
L99.3316 19.0682
" />
</g></g> 
</svg>
