<?xml version="1.0" standalone="no"?>
 <!DOCTYPE svg PUBLIC "-//W3C//DTD SVG 1.1//EN" 
 "http://www.w3.org/Graphics/SVG/1.1/DTD/svg11.dtd"> 
<svg
  xmlns:svg="http://www.w3.org/2000/svg"
  xmlns="http://www.w3.org/2000/svg"
  xmlns:xlink="http://www.w3.org/1999/xlink"
  version="1.1"
  width="106.1466mm" height="32.4612mm" viewBox="0.0000 0.0000 106.1466 32.4612">
<title>SVG Image created as working.svg date 2023/08/03 21:45:51 </title>
  <desc>Image generated by Eeschema-SVG </desc>
<g style="fill:#000000; fill-opacity:1.0000;stroke:#000000; stroke-opacity:1.0000;
stroke-linecap:round; stroke-linejoin:round;"
 transform="translate(0 0) scale(1 1)">
</g>
<g style="fill:#840000; fill-opacity:0.0; 
stroke:#840000; stroke-width:0.0000; stroke-opacity:1; 
stroke-linecap:round; stroke-linejoin:round;">
</g>
<g style="fill:#FFFFC2; fill-opacity:0.0; 
stroke:#FFFFC2; stroke-width:0.0000; stroke-opacity:1; 
stroke-linecap:round; stroke-linejoin:round;">
</g>
<g style="fill:#FFFFC2; fill-opacity:1.0000; 
stroke:#FFFFC2; stroke-width:0.0000; stroke-opacity:1; 
stroke-linecap:round; stroke-linejoin:round;">
<rect x="47.993700" y="6.902200" width="10.160000" height="20.320000" rx="0.000000" />
</g>
<g style="fill:#840084; fill-opacity:1.0000; 
stroke:#840084; stroke-width:0.0000; stroke-opacity:1; 
stroke-linecap:round; stroke-linejoin:round;">
</g>
<g style="fill:#840000; fill-opacity:1.0000; 
stroke:#840000; stroke-width:0.0000; stroke-opacity:1; 
stroke-linecap:round; stroke-linejoin:round;">
</g>
<g style="fill:#840000; fill-opacity:0.0; 
stroke:#840000; stroke-width:0.2540; stroke-opacity:1; 
stroke-linecap:round; stroke-linejoin:round;">
<rect x="47.993700" y="6.902200" width="10.160000" height="20.320000" rx="0.000000" />
</g>
<g style="fill:#840000; fill-opacity:0.0; 
stroke:#840000; stroke-width:0.1524; stroke-opacity:1; 
stroke-linecap:round; stroke-linejoin:round;">
<path d="M53.0737 6.9022
L53.0737 4.3622
" />
</g>
<g style="fill:#006464; fill-opacity:0.0; 
stroke:#006464; stroke-width:0.1524; stroke-opacity:1; 
stroke-linecap:round; stroke-linejoin:round;">
<g transform="rotate(-90.000000 53.0737 7.4102)">
<text x="53.0737" y="8.0452"
textLength="3.8318" font-size="1.6933" lengthAdjust="spacingAndGlyphs"
text-anchor="end" opacity="0">VCC</text>
</g>
<g class="stroked-text"><desc>VCC</desc>
<path d="M52.3832 11.0180
L53.6532 10.5947
" />
<path d="M53.6532 10.5947
L52.3832 10.1713
" />
<path d="M53.5323 9.0223
L53.5928 9.0827
" />
<path d="M53.5928 9.0827
L53.6532 9.2642
" />
<path d="M53.6532 9.2642
L53.6532 9.3851
" />
<path d="M53.6532 9.3851
L53.5928 9.5665
" />
<path d="M53.5928 9.5665
L53.4718 9.6875
" />
<path d="M53.4718 9.6875
L53.3508 9.7480
" />
<path d="M53.3508 9.7480
L53.1089 9.8084
" />
<path d="M53.1089 9.8084
L52.9275 9.8084
" />
<path d="M52.9275 9.8084
L52.6856 9.7480
" />
<path d="M52.6856 9.7480
L52.5647 9.6875
" />
<path d="M52.5647 9.6875
L52.4437 9.5665
" />
<path d="M52.4437 9.5665
L52.3832 9.3851
" />
<path d="M52.3832 9.3851
L52.3832 9.2642
" />
<path d="M52.3832 9.2642
L52.4437 9.0827
" />
<path d="M52.4437 9.0827
L52.5042 9.0223
" />
<path d="M53.5323 7.7523
L53.5928 7.8127
" />
<path d="M53.5928 7.8127
L53.6532 7.9942
" />
<path d="M53.6532 7.9942
L53.6532 8.1151
" />
<path d="M53.6532 8.1151
L53.5928 8.2965
" />
<path d="M53.5928 8.2965
L53.4718 8.4175
" />
<path d="M53.4718 8.4175
L53.3508 8.4780
" />
<path d="M53.3508 8.4780
L53.1089 8.5384
" />
<path d="M53.1089 8.5384
L52.9275 8.5384
" />
<path d="M52.9275 8.5384
L52.6856 8.4780
" />
<path d="M52.6856 8.4780
L52.5647 8.4175
" />
<path d="M52.5647 8.4175
L52.4437 8.2965
" />
<path d="M52.4437 8.2965
L52.3832 8.1151
" />
<path d="M52.3832 8.1151
L52.3832 7.9942
" />
<path d="M52.3832 7.9942
L52.4437 7.8127
" />
<path d="M52.4437 7.8127
L52.5042 7.7523
" />
</g></g>
<g style="fill:#A90000; fill-opacity:0.0; 
stroke:#A90000; stroke-width:0.1524; stroke-opacity:1; 
stroke-linecap:round; stroke-linejoin:round;">
<g transform="rotate(-90.000000 52.8197 5.6322)">
<text x="52.8197" y="5.6322"
textLength="1.4127" font-size="1.6933" lengthAdjust="spacingAndGlyphs"
text-anchor="middle" opacity="0">1</text>
</g>
<g class="stroked-text"><desc>1</desc>
<path d="M52.6562 5.2692
L52.6562 5.9949
" />
<path d="M52.6562 5.6321
L51.3862 5.6321
" />
<path d="M51.3862 5.6321
L51.5677 5.7530
" />
<path d="M51.5677 5.7530
L51.6886 5.8740
" />
<path d="M51.6886 5.8740
L51.7491 5.9949
" />
</g></g>
<g style="fill:#840000; fill-opacity:0.0; 
stroke:#840000; stroke-width:0.1524; stroke-opacity:1; 
stroke-linecap:round; stroke-linejoin:round;">
<path d="M47.9937 17.0622
L45.4537 17.0622
" />
</g>
<g style="fill:#006464; fill-opacity:0.0; 
stroke:#006464; stroke-width:0.1524; stroke-opacity:1; 
stroke-linecap:round; stroke-linejoin:round;">
<text x="48.5017" y="17.6972"
textLength="2.1385" font-size="1.6933" lengthAdjust="spacingAndGlyphs"
text-anchor="start" opacity="0">IN</text>
<g class="stroked-text"><desc>IN</desc>
<path d="M48.9042 17.6417
L48.9042 16.3717
" />
<path d="M49.5090 17.6417
L49.5090 16.3717
" />
<path d="M49.5090 16.3717
L50.2347 17.6417
" />
<path d="M50.2347 17.6417
L50.2347 16.3717
" />
</g></g>
<g style="fill:#A90000; fill-opacity:0.0; 
stroke:#A90000; stroke-width:0.1524; stroke-opacity:1; 
stroke-linecap:round; stroke-linejoin:round;">
<text x="46.7237" y="16.8082"
textLength="1.4127" font-size="1.6933" lengthAdjust="spacingAndGlyphs"
text-anchor="middle" opacity="0">2</text>
<g class="stroked-text"><desc>2</desc>
<path d="M46.3609 15.4957
L46.4213 15.4352
" />
<path d="M46.4213 15.4352
L46.5423 15.3747
" />
<path d="M46.5423 15.3747
L46.8447 15.3747
" />
<path d="M46.8447 15.3747
L46.9656 15.4352
" />
<path d="M46.9656 15.4352
L47.0261 15.4957
" />
<path d="M47.0261 15.4957
L47.0866 15.6166
" />
<path d="M47.0866 15.6166
L47.0866 15.7376
" />
<path d="M47.0866 15.7376
L47.0261 15.9190
" />
<path d="M47.0261 15.9190
L46.3004 16.6447
" />
<path d="M46.3004 16.6447
L47.0866 16.6447
" />
</g></g>
<g style="fill:#840000; fill-opacity:0.0; 
stroke:#840000; stroke-width:0.1524; stroke-opacity:1; 
stroke-linecap:round; stroke-linejoin:round;">
<path d="M47.9937 19.6022
L45.4537 19.6022
" />
</g>
<g style="fill:#006464; fill-opacity:0.0; 
stroke:#006464; stroke-width:0.1524; stroke-opacity:1; 
stroke-linecap:round; stroke-linejoin:round;">
<text x="48.5017" y="20.2372"
textLength="2.6827" font-size="1.6933" lengthAdjust="spacingAndGlyphs"
text-anchor="start" opacity="0">~{SD}</text>
<g class="stroked-text"><desc>~{SD}</desc>
<path d="M48.8438 20.1213
L49.0252 20.1817
" />
<path d="M49.0252 20.1817
L49.3276 20.1817
" />
<path d="M49.3276 20.1817
L49.4485 20.1213
" />
<path d="M49.4485 20.1213
L49.5090 20.0608
" />
<path d="M49.5090 20.0608
L49.5695 19.9398
" />
<path d="M49.5695 19.9398
L49.5695 19.8189
" />
<path d="M49.5695 19.8189
L49.5090 19.6979
" />
<path d="M49.5090 19.6979
L49.4485 19.6374
" />
<path d="M49.4485 19.6374
L49.3276 19.5770
" />
<path d="M49.3276 19.5770
L49.0857 19.5165
" />
<path d="M49.0857 19.5165
L48.9647 19.4560
" />
<path d="M48.9647 19.4560
L48.9042 19.3955
" />
<path d="M48.9042 19.3955
L48.8438 19.2746
" />
<path d="M48.8438 19.2746
L48.8438 19.1536
" />
<path d="M48.8438 19.1536
L48.9042 19.0327
" />
<path d="M48.9042 19.0327
L48.9647 18.9722
" />
<path d="M48.9647 18.9722
L49.0857 18.9117
" />
<path d="M49.0857 18.9117
L49.3880 18.9117
" />
<path d="M49.3880 18.9117
L49.5695 18.9722
" />
<path d="M50.1137 20.1817
L50.1137 18.9117
" />
<path d="M50.1137 18.9117
L50.4161 18.9117
" />
<path d="M50.4161 18.9117
L50.5975 18.9722
" />
<path d="M50.5975 18.9722
L50.7185 19.0932
" />
<path d="M50.7185 19.0932
L50.7790 19.2141
" />
<path d="M50.7790 19.2141
L50.8394 19.4560
" />
<path d="M50.8394 19.4560
L50.8394 19.6374
" />
<path d="M50.8394 19.6374
L50.7790 19.8793
" />
<path d="M50.7790 19.8793
L50.7185 20.0003
" />
<path d="M50.7185 20.0003
L50.5975 20.1213
" />
<path d="M50.5975 20.1213
L50.4161 20.1817
" />
<path d="M50.4161 20.1817
L50.1137 20.1817
" />
<path d="M48.7289 18.5592
L50.9544 18.5592
" />
</g></g>
<g style="fill:#A90000; fill-opacity:0.0; 
stroke:#A90000; stroke-width:0.1524; stroke-opacity:1; 
stroke-linecap:round; stroke-linejoin:round;">
<text x="46.7237" y="19.3482"
textLength="1.4127" font-size="1.6933" lengthAdjust="spacingAndGlyphs"
text-anchor="middle" opacity="0">3</text>
<g class="stroked-text"><desc>3</desc>
<path d="M46.3004 17.9147
L47.0866 17.9147
" />
<path d="M47.0866 17.9147
L46.6632 18.3985
" />
<path d="M46.6632 18.3985
L46.8447 18.3985
" />
<path d="M46.8447 18.3985
L46.9656 18.4590
" />
<path d="M46.9656 18.4590
L47.0261 18.5195
" />
<path d="M47.0261 18.5195
L47.0866 18.6404
" />
<path d="M47.0866 18.6404
L47.0866 18.9428
" />
<path d="M47.0866 18.9428
L47.0261 19.0638
" />
<path d="M47.0261 19.0638
L46.9656 19.1243
" />
<path d="M46.9656 19.1243
L46.8447 19.1847
" />
<path d="M46.8447 19.1847
L46.4818 19.1847
" />
<path d="M46.4818 19.1847
L46.3609 19.1243
" />
<path d="M46.3609 19.1243
L46.3004 19.0638
" />
</g></g>
<g style="fill:#840000; fill-opacity:0.0; 
stroke:#840000; stroke-width:0.1524; stroke-opacity:1; 
stroke-linecap:round; stroke-linejoin:round;">
<path d="M53.0737 27.2222
L53.0737 29.7622
" />
</g>
<g style="fill:#006464; fill-opacity:0.0; 
stroke:#006464; stroke-width:0.1524; stroke-opacity:1; 
stroke-linecap:round; stroke-linejoin:round;">
<g transform="rotate(-90.000000 53.0737 26.7142)">
<text x="53.0737" y="27.3492"
textLength="4.2551" font-size="1.6933" lengthAdjust="spacingAndGlyphs"
text-anchor="start" opacity="0">COM</text>
</g>
<g class="stroked-text"><desc>COM</desc>
<path d="M53.5323 25.5859
L53.5928 25.6463
" />
<path d="M53.5928 25.6463
L53.6532 25.8278
" />
<path d="M53.6532 25.8278
L53.6532 25.9487
" />
<path d="M53.6532 25.9487
L53.5928 26.1301
" />
<path d="M53.5928 26.1301
L53.4718 26.2511
" />
<path d="M53.4718 26.2511
L53.3508 26.3116
" />
<path d="M53.3508 26.3116
L53.1089 26.3720
" />
<path d="M53.1089 26.3720
L52.9275 26.3720
" />
<path d="M52.9275 26.3720
L52.6856 26.3116
" />
<path d="M52.6856 26.3116
L52.5647 26.2511
" />
<path d="M52.5647 26.2511
L52.4437 26.1301
" />
<path d="M52.4437 26.1301
L52.3832 25.9487
" />
<path d="M52.3832 25.9487
L52.3832 25.8278
" />
<path d="M52.3832 25.8278
L52.4437 25.6463
" />
<path d="M52.4437 25.6463
L52.5042 25.5859
" />
<path d="M52.3832 24.7997
L52.3832 24.5578
" />
<path d="M52.3832 24.5578
L52.4437 24.4368
" />
<path d="M52.4437 24.4368
L52.5647 24.3159
" />
<path d="M52.5647 24.3159
L52.8066 24.2554
" />
<path d="M52.8066 24.2554
L53.2299 24.2554
" />
<path d="M53.2299 24.2554
L53.4718 24.3159
" />
<path d="M53.4718 24.3159
L53.5928 24.4368
" />
<path d="M53.5928 24.4368
L53.6532 24.5578
" />
<path d="M53.6532 24.5578
L53.6532 24.7997
" />
<path d="M53.6532 24.7997
L53.5928 24.9206
" />
<path d="M53.5928 24.9206
L53.4718 25.0416
" />
<path d="M53.4718 25.0416
L53.2299 25.1020
" />
<path d="M53.2299 25.1020
L52.8066 25.1020
" />
<path d="M52.8066 25.1020
L52.5647 25.0416
" />
<path d="M52.5647 25.0416
L52.4437 24.9206
" />
<path d="M52.4437 24.9206
L52.3832 24.7997
" />
<path d="M53.6532 23.7111
L52.3832 23.7111
" />
<path d="M52.3832 23.7111
L53.2904 23.2877
" />
<path d="M53.2904 23.2877
L52.3832 22.8644
" />
<path d="M52.3832 22.8644
L53.6532 22.8644
" />
</g></g>
<g style="fill:#A90000; fill-opacity:0.0; 
stroke:#A90000; stroke-width:0.1524; stroke-opacity:1; 
stroke-linecap:round; stroke-linejoin:round;">
<g transform="rotate(-90.000000 52.8197 28.4922)">
<text x="52.8197" y="28.4922"
textLength="1.4127" font-size="1.6933" lengthAdjust="spacingAndGlyphs"
text-anchor="middle" opacity="0">4</text>
</g>
<g class="stroked-text"><desc>4</desc>
<path d="M51.8096 28.2502
L52.6562 28.2502
" />
<path d="M51.3258 28.5526
L52.2329 28.8549
" />
<path d="M52.2329 28.8549
L52.2329 28.0688
" />
</g></g>
<g style="fill:#840000; fill-opacity:0.0; 
stroke:#840000; stroke-width:0.1524; stroke-opacity:1; 
stroke-linecap:round; stroke-linejoin:round;">
<path d="M58.1537 24.6822
L60.6937 24.6822
" />
</g>
<g style="fill:#006464; fill-opacity:0.0; 
stroke:#006464; stroke-width:0.1524; stroke-opacity:1; 
stroke-linecap:round; stroke-linejoin:round;">
<text x="57.6457" y="25.3172"
textLength="2.5618" font-size="1.6933" lengthAdjust="spacingAndGlyphs"
text-anchor="end" opacity="0">LO</text>
<g class="stroked-text"><desc>LO</desc>
<path d="M56.0940 25.2617
L55.4892 25.2617
" />
<path d="M55.4892 25.2617
L55.4892 23.9917
" />
<path d="M56.7592 23.9917
L57.0011 23.9917
" />
<path d="M57.0011 23.9917
L57.1221 24.0522
" />
<path d="M57.1221 24.0522
L57.2430 24.1732
" />
<path d="M57.2430 24.1732
L57.3035 24.4151
" />
<path d="M57.3035 24.4151
L57.3035 24.8384
" />
<path d="M57.3035 24.8384
L57.2430 25.0803
" />
<path d="M57.2430 25.0803
L57.1221 25.2013
" />
<path d="M57.1221 25.2013
L57.0011 25.2617
" />
<path d="M57.0011 25.2617
L56.7592 25.2617
" />
<path d="M56.7592 25.2617
L56.6383 25.2013
" />
<path d="M56.6383 25.2013
L56.5173 25.0803
" />
<path d="M56.5173 25.0803
L56.4569 24.8384
" />
<path d="M56.4569 24.8384
L56.4569 24.4151
" />
<path d="M56.4569 24.4151
L56.5173 24.1732
" />
<path d="M56.5173 24.1732
L56.6383 24.0522
" />
<path d="M56.6383 24.0522
L56.7592 23.9917
" />
</g></g>
<g style="fill:#A90000; fill-opacity:0.0; 
stroke:#A90000; stroke-width:0.1524; stroke-opacity:1; 
stroke-linecap:round; stroke-linejoin:round;">
<text x="59.4237" y="24.4282"
textLength="1.4127" font-size="1.6933" lengthAdjust="spacingAndGlyphs"
text-anchor="middle" opacity="0">5</text>
<g class="stroked-text"><desc>5</desc>
<path d="M59.7261 22.9947
L59.1213 22.9947
" />
<path d="M59.1213 22.9947
L59.0609 23.5995
" />
<path d="M59.0609 23.5995
L59.1213 23.5390
" />
<path d="M59.1213 23.5390
L59.2423 23.4785
" />
<path d="M59.2423 23.4785
L59.5447 23.4785
" />
<path d="M59.5447 23.4785
L59.6656 23.5390
" />
<path d="M59.6656 23.5390
L59.7261 23.5995
" />
<path d="M59.7261 23.5995
L59.7866 23.7204
" />
<path d="M59.7866 23.7204
L59.7866 24.0228
" />
<path d="M59.7866 24.0228
L59.7261 24.1438
" />
<path d="M59.7261 24.1438
L59.6656 24.2043
" />
<path d="M59.6656 24.2043
L59.5447 24.2647
" />
<path d="M59.5447 24.2647
L59.2423 24.2647
" />
<path d="M59.2423 24.2647
L59.1213 24.2043
" />
<path d="M59.1213 24.2043
L59.0609 24.1438
" />
</g></g>
<g style="fill:#840000; fill-opacity:0.0; 
stroke:#840000; stroke-width:0.1524; stroke-opacity:1; 
stroke-linecap:round; stroke-linejoin:round;">
<path d="M58.1537 22.1422
L60.6937 22.1422
" />
</g>
<g style="fill:#006464; fill-opacity:0.0; 
stroke:#006464; stroke-width:0.1524; stroke-opacity:1; 
stroke-linecap:round; stroke-linejoin:round;">
<text x="57.6457" y="22.7772"
textLength="2.5013" font-size="1.6933" lengthAdjust="spacingAndGlyphs"
text-anchor="end" opacity="0">VS</text>
<g class="stroked-text"><desc>VS</desc>
<path d="M55.3683 21.4517
L55.7916 22.7217
" />
<path d="M55.7916 22.7217
L56.2150 21.4517
" />
<path d="M56.5779 22.6613
L56.7593 22.7217
" />
<path d="M56.7593 22.7217
L57.0617 22.7217
" />
<path d="M57.0617 22.7217
L57.1826 22.6613
" />
<path d="M57.1826 22.6613
L57.2431 22.6008
" />
<path d="M57.2431 22.6008
L57.3036 22.4798
" />
<path d="M57.3036 22.4798
L57.3036 22.3589
" />
<path d="M57.3036 22.3589
L57.2431 22.2379
" />
<path d="M57.2431 22.2379
L57.1826 22.1774
" />
<path d="M57.1826 22.1774
L57.0617 22.1170
" />
<path d="M57.0617 22.1170
L56.8198 22.0565
" />
<path d="M56.8198 22.0565
L56.6988 21.9960
" />
<path d="M56.6988 21.9960
L56.6383 21.9355
" />
<path d="M56.6383 21.9355
L56.5779 21.8146
" />
<path d="M56.5779 21.8146
L56.5779 21.6936
" />
<path d="M56.5779 21.6936
L56.6383 21.5727
" />
<path d="M56.6383 21.5727
L56.6988 21.5122
" />
<path d="M56.6988 21.5122
L56.8198 21.4517
" />
<path d="M56.8198 21.4517
L57.1221 21.4517
" />
<path d="M57.1221 21.4517
L57.3036 21.5122
" />
</g></g>
<g style="fill:#A90000; fill-opacity:0.0; 
stroke:#A90000; stroke-width:0.1524; stroke-opacity:1; 
stroke-linecap:round; stroke-linejoin:round;">
<text x="59.4237" y="21.8882"
textLength="1.4127" font-size="1.6933" lengthAdjust="spacingAndGlyphs"
text-anchor="middle" opacity="0">6</text>
<g class="stroked-text"><desc>6</desc>
<path d="M59.6656 20.4547
L59.4237 20.4547
" />
<path d="M59.4237 20.4547
L59.3028 20.5152
" />
<path d="M59.3028 20.5152
L59.2423 20.5757
" />
<path d="M59.2423 20.5757
L59.1213 20.7571
" />
<path d="M59.1213 20.7571
L59.0609 20.9990
" />
<path d="M59.0609 20.9990
L59.0609 21.4828
" />
<path d="M59.0609 21.4828
L59.1213 21.6038
" />
<path d="M59.1213 21.6038
L59.1818 21.6643
" />
<path d="M59.1818 21.6643
L59.3028 21.7247
" />
<path d="M59.3028 21.7247
L59.5447 21.7247
" />
<path d="M59.5447 21.7247
L59.6656 21.6643
" />
<path d="M59.6656 21.6643
L59.7261 21.6038
" />
<path d="M59.7261 21.6038
L59.7866 21.4828
" />
<path d="M59.7866 21.4828
L59.7866 21.1804
" />
<path d="M59.7866 21.1804
L59.7261 21.0595
" />
<path d="M59.7261 21.0595
L59.6656 20.9990
" />
<path d="M59.6656 20.9990
L59.5447 20.9385
" />
<path d="M59.5447 20.9385
L59.3028 20.9385
" />
<path d="M59.3028 20.9385
L59.1818 20.9990
" />
<path d="M59.1818 20.9990
L59.1213 21.0595
" />
<path d="M59.1213 21.0595
L59.0609 21.1804
" />
</g></g>
<g style="fill:#840000; fill-opacity:0.0; 
stroke:#840000; stroke-width:0.1524; stroke-opacity:1; 
stroke-linecap:round; stroke-linejoin:round;">
<path d="M58.1537 11.9822
L60.6937 11.9822
" />
</g>
<g style="fill:#006464; fill-opacity:0.0; 
stroke:#006464; stroke-width:0.1524; stroke-opacity:1; 
stroke-linecap:round; stroke-linejoin:round;">
<text x="57.6457" y="12.6172"
textLength="2.8642" font-size="1.6933" lengthAdjust="spacingAndGlyphs"
text-anchor="end" opacity="0">HO</text>
<g class="stroked-text"><desc>HO</desc>
<path d="M55.1868 12.5617
L55.1868 11.2917
" />
<path d="M55.1868 11.8965
L55.9125 11.8965
" />
<path d="M55.9125 12.5617
L55.9125 11.2917
" />
<path d="M56.7592 11.2917
L57.0011 11.2917
" />
<path d="M57.0011 11.2917
L57.1221 11.3522
" />
<path d="M57.1221 11.3522
L57.2430 11.4732
" />
<path d="M57.2430 11.4732
L57.3035 11.7151
" />
<path d="M57.3035 11.7151
L57.3035 12.1384
" />
<path d="M57.3035 12.1384
L57.2430 12.3803
" />
<path d="M57.2430 12.3803
L57.1221 12.5013
" />
<path d="M57.1221 12.5013
L57.0011 12.5617
" />
<path d="M57.0011 12.5617
L56.7592 12.5617
" />
<path d="M56.7592 12.5617
L56.6383 12.5013
" />
<path d="M56.6383 12.5013
L56.5173 12.3803
" />
<path d="M56.5173 12.3803
L56.4569 12.1384
" />
<path d="M56.4569 12.1384
L56.4569 11.7151
" />
<path d="M56.4569 11.7151
L56.5173 11.4732
" />
<path d="M56.5173 11.4732
L56.6383 11.3522
" />
<path d="M56.6383 11.3522
L56.7592 11.2917
" />
</g></g>
<g style="fill:#A90000; fill-opacity:0.0; 
stroke:#A90000; stroke-width:0.1524; stroke-opacity:1; 
stroke-linecap:round; stroke-linejoin:round;">
<text x="59.4237" y="11.7282"
textLength="1.4127" font-size="1.6933" lengthAdjust="spacingAndGlyphs"
text-anchor="middle" opacity="0">7</text>
<g class="stroked-text"><desc>7</desc>
<path d="M59.0004 10.2947
L59.8470 10.2947
" />
<path d="M59.8470 10.2947
L59.3028 11.5647
" />
</g></g>
<g style="fill:#840000; fill-opacity:0.0; 
stroke:#840000; stroke-width:0.1524; stroke-opacity:1; 
stroke-linecap:round; stroke-linejoin:round;">
<path d="M58.1537 9.4422
L60.6937 9.4422
" />
</g>
<g style="fill:#006464; fill-opacity:0.0; 
stroke:#006464; stroke-width:0.1524; stroke-opacity:1; 
stroke-linecap:round; stroke-linejoin:round;">
<text x="57.6457" y="10.0772"
textLength="2.5618" font-size="1.6933" lengthAdjust="spacingAndGlyphs"
text-anchor="end" opacity="0">VB</text>
<g class="stroked-text"><desc>VB</desc>
<path d="M55.3078 8.7517
L55.7311 10.0217
" />
<path d="M55.7311 10.0217
L56.1545 8.7517
" />
<path d="M57.0012 9.3565
L57.1826 9.4170
" />
<path d="M57.1826 9.4170
L57.2431 9.4774
" />
<path d="M57.2431 9.4774
L57.3035 9.5984
" />
<path d="M57.3035 9.5984
L57.3035 9.7798
" />
<path d="M57.3035 9.7798
L57.2431 9.9008
" />
<path d="M57.2431 9.9008
L57.1826 9.9613
" />
<path d="M57.1826 9.9613
L57.0616 10.0217
" />
<path d="M57.0616 10.0217
L56.5778 10.0217
" />
<path d="M56.5778 10.0217
L56.5778 8.7517
" />
<path d="M56.5778 8.7517
L57.0012 8.7517
" />
<path d="M57.0012 8.7517
L57.1221 8.8122
" />
<path d="M57.1221 8.8122
L57.1826 8.8727
" />
<path d="M57.1826 8.8727
L57.2431 8.9936
" />
<path d="M57.2431 8.9936
L57.2431 9.1146
" />
<path d="M57.2431 9.1146
L57.1826 9.2355
" />
<path d="M57.1826 9.2355
L57.1221 9.2960
" />
<path d="M57.1221 9.2960
L57.0012 9.3565
" />
<path d="M57.0012 9.3565
L56.5778 9.3565
" />
</g></g>
<g style="fill:#A90000; fill-opacity:0.0; 
stroke:#A90000; stroke-width:0.1524; stroke-opacity:1; 
stroke-linecap:round; stroke-linejoin:round;">
<text x="59.4237" y="9.1882"
textLength="1.4127" font-size="1.6933" lengthAdjust="spacingAndGlyphs"
text-anchor="middle" opacity="0">8</text>
<g class="stroked-text"><desc>8</desc>
<path d="M59.3028 8.2990
L59.1818 8.2385
" />
<path d="M59.1818 8.2385
L59.1213 8.1781
" />
<path d="M59.1213 8.1781
L59.0609 8.0571
" />
<path d="M59.0609 8.0571
L59.0609 7.9966
" />
<path d="M59.0609 7.9966
L59.1213 7.8757
" />
<path d="M59.1213 7.8757
L59.1818 7.8152
" />
<path d="M59.1818 7.8152
L59.3028 7.7547
" />
<path d="M59.3028 7.7547
L59.5447 7.7547
" />
<path d="M59.5447 7.7547
L59.6656 7.8152
" />
<path d="M59.6656 7.8152
L59.7261 7.8757
" />
<path d="M59.7261 7.8757
L59.7866 7.9966
" />
<path d="M59.7866 7.9966
L59.7866 8.0571
" />
<path d="M59.7866 8.0571
L59.7261 8.1781
" />
<path d="M59.7261 8.1781
L59.6656 8.2385
" />
<path d="M59.6656 8.2385
L59.5447 8.2990
" />
<path d="M59.5447 8.2990
L59.3028 8.2990
" />
<path d="M59.3028 8.2990
L59.1818 8.3595
" />
<path d="M59.1818 8.3595
L59.1213 8.4200
" />
<path d="M59.1213 8.4200
L59.0609 8.5409
" />
<path d="M59.0609 8.5409
L59.0609 8.7828
" />
<path d="M59.0609 8.7828
L59.1213 8.9038
" />
<path d="M59.1213 8.9038
L59.1818 8.9643
" />
<path d="M59.1818 8.9643
L59.3028 9.0247
" />
<path d="M59.3028 9.0247
L59.5447 9.0247
" />
<path d="M59.5447 9.0247
L59.6656 8.9643
" />
<path d="M59.6656 8.9643
L59.7261 8.9038
" />
<path d="M59.7261 8.9038
L59.7866 8.7828
" />
<path d="M59.7866 8.7828
L59.7866 8.5409
" />
<path d="M59.7866 8.5409
L59.7261 8.4200
" />
<path d="M59.7261 8.4200
L59.6656 8.3595
" />
<path d="M59.6656 8.3595
L59.5447 8.2990
" />
</g></g>
<g style="fill:#840084; fill-opacity:0.0; 
stroke:#840084; stroke-width:0.1524; stroke-opacity:1; 
stroke-linecap:round; stroke-linejoin:round;">
</g>
<g style="fill:#006464; fill-opacity:0.0; 
stroke:#006464; stroke-width:0.1524; stroke-opacity:1; 
stroke-linecap:round; stroke-linejoin:round;">
</g>
<g style="fill:#006464; fill-opacity:0.0; 
stroke:#006464; stroke-width:0.1588; stroke-opacity:1; 
stroke-linecap:round; stroke-linejoin:round;">
<text x="55.6644" y="4.3622"
textLength="2.6415" font-size="1.6933" lengthAdjust="spacingAndGlyphs"
text-anchor="middle" opacity="0">U?</text>
<g class="stroked-text"><desc>U?</desc>
<path d="M54.7572 3.0364
L54.7572 4.0645
" />
<path d="M54.7572 4.0645
L54.8177 4.1855
" />
<path d="M54.8177 4.1855
L54.8782 4.2460
" />
<path d="M54.8782 4.2460
L54.9991 4.3064
" />
<path d="M54.9991 4.3064
L55.2410 4.3064
" />
<path d="M55.2410 4.3064
L55.3620 4.2460
" />
<path d="M55.3620 4.2460
L55.4225 4.1855
" />
<path d="M55.4225 4.1855
L55.4829 4.0645
" />
<path d="M55.4829 4.0645
L55.4829 3.0364
" />
<path d="M56.2692 4.1855
L56.3296 4.2460
" />
<path d="M56.3296 4.2460
L56.2692 4.3064
" />
<path d="M56.2692 4.3064
L56.2087 4.2460
" />
<path d="M56.2087 4.2460
L56.2692 4.1855
" />
<path d="M56.2692 4.1855
L56.2692 4.3064
" />
<path d="M56.0273 3.0969
L56.1482 3.0364
" />
<path d="M56.1482 3.0364
L56.4506 3.0364
" />
<path d="M56.4506 3.0364
L56.5715 3.0969
" />
<path d="M56.5715 3.0969
L56.6320 3.2179
" />
<path d="M56.6320 3.2179
L56.6320 3.3388
" />
<path d="M56.6320 3.3388
L56.5715 3.4598
" />
<path d="M56.5715 3.4598
L56.5111 3.5202
" />
<path d="M56.5111 3.5202
L56.3901 3.5807
" />
<path d="M56.3901 3.5807
L56.3296 3.6412
" />
<path d="M56.3296 3.6412
L56.2692 3.7621
" />
<path d="M56.2692 3.7621
L56.2692 3.8226
" />
</g><text x="59.0208" y="6.2672"
textLength="9.3542" font-size="1.6933" lengthAdjust="spacingAndGlyphs"
text-anchor="middle" opacity="0">IR25602S</text>
<g class="stroked-text"><desc>IR25602S</desc>
<path d="M54.7572 6.2114
L54.7572 4.9414
" />
<path d="M56.0877 6.2114
L55.6644 5.6067
" />
<path d="M55.3620 6.2114
L55.3620 4.9414
" />
<path d="M55.3620 4.9414
L55.8458 4.9414
" />
<path d="M55.8458 4.9414
L55.9668 5.0019
" />
<path d="M55.9668 5.0019
L56.0273 5.0624
" />
<path d="M56.0273 5.0624
L56.0877 5.1833
" />
<path d="M56.0877 5.1833
L56.0877 5.3648
" />
<path d="M56.0877 5.3648
L56.0273 5.4857
" />
<path d="M56.0273 5.4857
L55.9668 5.5462
" />
<path d="M55.9668 5.5462
L55.8458 5.6067
" />
<path d="M55.8458 5.6067
L55.3620 5.6067
" />
<path d="M56.5716 5.0624
L56.6320 5.0019
" />
<path d="M56.6320 5.0019
L56.7530 4.9414
" />
<path d="M56.7530 4.9414
L57.0554 4.9414
" />
<path d="M57.0554 4.9414
L57.1763 5.0019
" />
<path d="M57.1763 5.0019
L57.2368 5.0624
" />
<path d="M57.2368 5.0624
L57.2973 5.1833
" />
<path d="M57.2973 5.1833
L57.2973 5.3043
" />
<path d="M57.2973 5.3043
L57.2368 5.4857
" />
<path d="M57.2368 5.4857
L56.5111 6.2114
" />
<path d="M56.5111 6.2114
L57.2973 6.2114
" />
<path d="M58.4463 4.9414
L57.8415 4.9414
" />
<path d="M57.8415 4.9414
L57.7811 5.5462
" />
<path d="M57.7811 5.5462
L57.8415 5.4857
" />
<path d="M57.8415 5.4857
L57.9625 5.4252
" />
<path d="M57.9625 5.4252
L58.2649 5.4252
" />
<path d="M58.2649 5.4252
L58.3858 5.4857
" />
<path d="M58.3858 5.4857
L58.4463 5.5462
" />
<path d="M58.4463 5.5462
L58.5068 5.6671
" />
<path d="M58.5068 5.6671
L58.5068 5.9695
" />
<path d="M58.5068 5.9695
L58.4463 6.0905
" />
<path d="M58.4463 6.0905
L58.3858 6.1510
" />
<path d="M58.3858 6.1510
L58.2649 6.2114
" />
<path d="M58.2649 6.2114
L57.9625 6.2114
" />
<path d="M57.9625 6.2114
L57.8415 6.1510
" />
<path d="M57.8415 6.1510
L57.7811 6.0905
" />
<path d="M59.5953 4.9414
L59.3534 4.9414
" />
<path d="M59.3534 4.9414
L59.2325 5.0019
" />
<path d="M59.2325 5.0019
L59.1720 5.0624
" />
<path d="M59.1720 5.0624
L59.0510 5.2438
" />
<path d="M59.0510 5.2438
L58.9906 5.4857
" />
<path d="M58.9906 5.4857
L58.9906 5.9695
" />
<path d="M58.9906 5.9695
L59.0510 6.0905
" />
<path d="M59.0510 6.0905
L59.1115 6.1510
" />
<path d="M59.1115 6.1510
L59.2325 6.2114
" />
<path d="M59.2325 6.2114
L59.4744 6.2114
" />
<path d="M59.4744 6.2114
L59.5953 6.1510
" />
<path d="M59.5953 6.1510
L59.6558 6.0905
" />
<path d="M59.6558 6.0905
L59.7163 5.9695
" />
<path d="M59.7163 5.9695
L59.7163 5.6671
" />
<path d="M59.7163 5.6671
L59.6558 5.5462
" />
<path d="M59.6558 5.5462
L59.5953 5.4857
" />
<path d="M59.5953 5.4857
L59.4744 5.4252
" />
<path d="M59.4744 5.4252
L59.2325 5.4252
" />
<path d="M59.2325 5.4252
L59.1115 5.4857
" />
<path d="M59.1115 5.4857
L59.0510 5.5462
" />
<path d="M59.0510 5.5462
L58.9906 5.6671
" />
<path d="M60.5024 4.9414
L60.6234 4.9414
" />
<path d="M60.6234 4.9414
L60.7443 5.0019
" />
<path d="M60.7443 5.0019
L60.8048 5.0624
" />
<path d="M60.8048 5.0624
L60.8653 5.1833
" />
<path d="M60.8653 5.1833
L60.9258 5.4252
" />
<path d="M60.9258 5.4252
L60.9258 5.7276
" />
<path d="M60.9258 5.7276
L60.8653 5.9695
" />
<path d="M60.8653 5.9695
L60.8048 6.0905
" />
<path d="M60.8048 6.0905
L60.7443 6.1510
" />
<path d="M60.7443 6.1510
L60.6234 6.2114
" />
<path d="M60.6234 6.2114
L60.5024 6.2114
" />
<path d="M60.5024 6.2114
L60.3815 6.1510
" />
<path d="M60.3815 6.1510
L60.3210 6.0905
" />
<path d="M60.3210 6.0905
L60.2605 5.9695
" />
<path d="M60.2605 5.9695
L60.2001 5.7276
" />
<path d="M60.2001 5.7276
L60.2001 5.4252
" />
<path d="M60.2001 5.4252
L60.2605 5.1833
" />
<path d="M60.2605 5.1833
L60.3210 5.0624
" />
<path d="M60.3210 5.0624
L60.3815 5.0019
" />
<path d="M60.3815 5.0019
L60.5024 4.9414
" />
<path d="M61.4096 5.0624
L61.4700 5.0019
" />
<path d="M61.4700 5.0019
L61.5910 4.9414
" />
<path d="M61.5910 4.9414
L61.8934 4.9414
" />
<path d="M61.8934 4.9414
L62.0143 5.0019
" />
<path d="M62.0143 5.0019
L62.0748 5.0624
" />
<path d="M62.0748 5.0624
L62.1353 5.1833
" />
<path d="M62.1353 5.1833
L62.1353 5.3043
" />
<path d="M62.1353 5.3043
L62.0748 5.4857
" />
<path d="M62.0748 5.4857
L61.3491 6.2114
" />
<path d="M61.3491 6.2114
L62.1353 6.2114
" />
<path d="M62.6191 6.1510
L62.8005 6.2114
" />
<path d="M62.8005 6.2114
L63.1029 6.2114
" />
<path d="M63.1029 6.2114
L63.2238 6.1510
" />
<path d="M63.2238 6.1510
L63.2843 6.0905
" />
<path d="M63.2843 6.0905
L63.3448 5.9695
" />
<path d="M63.3448 5.9695
L63.3448 5.8486
" />
<path d="M63.3448 5.8486
L63.2843 5.7276
" />
<path d="M63.2843 5.7276
L63.2238 5.6671
" />
<path d="M63.2238 5.6671
L63.1029 5.6067
" />
<path d="M63.1029 5.6067
L62.8610 5.5462
" />
<path d="M62.8610 5.5462
L62.7400 5.4857
" />
<path d="M62.7400 5.4857
L62.6795 5.4252
" />
<path d="M62.6795 5.4252
L62.6191 5.3043
" />
<path d="M62.6191 5.3043
L62.6191 5.1833
" />
<path d="M62.6191 5.1833
L62.6795 5.0624
" />
<path d="M62.6795 5.0624
L62.7400 5.0019
" />
<path d="M62.7400 5.0019
L62.8610 4.9414
" />
<path d="M62.8610 4.9414
L63.1633 4.9414
" />
<path d="M63.1633 4.9414
L63.3448 5.0019
" />
</g></g>
<g style="fill:#840084; fill-opacity:0.0; 
stroke:#840084; stroke-width:0.1588; stroke-opacity:1; 
stroke-linecap:round; stroke-linejoin:round;">
<text x="53.1531" y="17.6972"
textLength="40.7412" font-size="1.6933" lengthAdjust="spacingAndGlyphs"
text-anchor="middle" opacity="0">Package_SO:SOIC-8_3.9x4.9mm_P1.27mm</text>
<g class="stroked-text"><desc>Package_SO:SOIC-8_3.9x4.9mm_P1.27mm</desc>
<path d="M33.1885 17.6414
L33.3472 16.3714
" />
<path d="M33.3472 16.3714
L33.8310 16.3714
" />
<path d="M33.8310 16.3714
L33.9444 16.4319
" />
<path d="M33.9444 16.4319
L33.9973 16.4924
" />
<path d="M33.9973 16.4924
L34.0427 16.6133
" />
<path d="M34.0427 16.6133
L34.0200 16.7948
" />
<path d="M34.0200 16.7948
L33.9444 16.9157
" />
<path d="M33.9444 16.9157
L33.8764 16.9762
" />
<path d="M33.8764 16.9762
L33.7479 17.0367
" />
<path d="M33.7479 17.0367
L33.2641 17.0367
" />
<path d="M35.0028 17.6414
L35.0859 16.9762
" />
<path d="M35.0859 16.9762
L35.0406 16.8552
" />
<path d="M35.0406 16.8552
L34.9272 16.7948
" />
<path d="M34.9272 16.7948
L34.6853 16.7948
" />
<path d="M34.6853 16.7948
L34.5567 16.8552
" />
<path d="M35.0103 17.5810
L34.8818 17.6414
" />
<path d="M34.8818 17.6414
L34.5794 17.6414
" />
<path d="M34.5794 17.6414
L34.4660 17.5810
" />
<path d="M34.4660 17.5810
L34.4207 17.4600
" />
<path d="M34.4207 17.4600
L34.4358 17.3390
" />
<path d="M34.4358 17.3390
L34.5114 17.2181
" />
<path d="M34.5114 17.2181
L34.6399 17.1576
" />
<path d="M34.6399 17.1576
L34.9423 17.1576
" />
<path d="M34.9423 17.1576
L35.0708 17.0971
" />
<path d="M36.1593 17.5810
L36.0308 17.6414
" />
<path d="M36.0308 17.6414
L35.7889 17.6414
" />
<path d="M35.7889 17.6414
L35.6755 17.5810
" />
<path d="M35.6755 17.5810
L35.6226 17.5205
" />
<path d="M35.6226 17.5205
L35.5772 17.3995
" />
<path d="M35.5772 17.3995
L35.6226 17.0367
" />
<path d="M35.6226 17.0367
L35.6982 16.9157
" />
<path d="M35.6982 16.9157
L35.7662 16.8552
" />
<path d="M35.7662 16.8552
L35.8947 16.7948
" />
<path d="M35.8947 16.7948
L36.1366 16.7948
" />
<path d="M36.1366 16.7948
L36.2500 16.8552
" />
<path d="M36.6961 17.6414
L36.8548 16.3714
" />
<path d="M36.8775 17.1576
L37.1799 17.6414
" />
<path d="M37.2857 16.7948
L36.7414 17.2786
" />
<path d="M38.2685 17.6414
L38.3516 16.9762
" />
<path d="M38.3516 16.9762
L38.3063 16.8552
" />
<path d="M38.3063 16.8552
L38.1929 16.7948
" />
<path d="M38.1929 16.7948
L37.9510 16.7948
" />
<path d="M37.9510 16.7948
L37.8224 16.8552
" />
<path d="M38.2760 17.5810
L38.1475 17.6414
" />
<path d="M38.1475 17.6414
L37.8451 17.6414
" />
<path d="M37.8451 17.6414
L37.7317 17.5810
" />
<path d="M37.7317 17.5810
L37.6864 17.4600
" />
<path d="M37.6864 17.4600
L37.7015 17.3390
" />
<path d="M37.7015 17.3390
L37.7771 17.2181
" />
<path d="M37.7771 17.2181
L37.9056 17.1576
" />
<path d="M37.9056 17.1576
L38.2080 17.1576
" />
<path d="M38.2080 17.1576
L38.3365 17.0971
" />
<path d="M39.5233 16.7948
L39.3948 17.8229
" />
<path d="M39.3948 17.8229
L39.3192 17.9438
" />
<path d="M39.3192 17.9438
L39.2511 18.0043
" />
<path d="M39.2511 18.0043
L39.1226 18.0648
" />
<path d="M39.1226 18.0648
L38.9412 18.0648
" />
<path d="M38.9412 18.0648
L38.8278 18.0043
" />
<path d="M39.4250 17.5810
L39.2965 17.6414
" />
<path d="M39.2965 17.6414
L39.0546 17.6414
" />
<path d="M39.0546 17.6414
L38.9412 17.5810
" />
<path d="M38.9412 17.5810
L38.8883 17.5205
" />
<path d="M38.8883 17.5205
L38.8429 17.3995
" />
<path d="M38.8429 17.3995
L38.8883 17.0367
" />
<path d="M38.8883 17.0367
L38.9639 16.9157
" />
<path d="M38.9639 16.9157
L39.0319 16.8552
" />
<path d="M39.0319 16.8552
L39.1604 16.7948
" />
<path d="M39.1604 16.7948
L39.4023 16.7948
" />
<path d="M39.4023 16.7948
L39.5157 16.8552
" />
<path d="M40.5135 17.5810
L40.3850 17.6414
" />
<path d="M40.3850 17.6414
L40.1431 17.6414
" />
<path d="M40.1431 17.6414
L40.0297 17.5810
" />
<path d="M40.0297 17.5810
L39.9844 17.4600
" />
<path d="M39.9844 17.4600
L40.0449 16.9762
" />
<path d="M40.0449 16.9762
L40.1204 16.8552
" />
<path d="M40.1204 16.8552
L40.2490 16.7948
" />
<path d="M40.2490 16.7948
L40.4909 16.7948
" />
<path d="M40.4909 16.7948
L40.6043 16.8552
" />
<path d="M40.6043 16.8552
L40.6496 16.9762
" />
<path d="M40.6496 16.9762
L40.6345 17.0971
" />
<path d="M40.6345 17.0971
L40.0146 17.2181
" />
<path d="M40.7933 17.7624
L41.7609 17.7624
" />
<path d="M42.0255 17.5810
L42.1993 17.6414
" />
<path d="M42.1993 17.6414
L42.5017 17.6414
" />
<path d="M42.5017 17.6414
L42.6302 17.5810
" />
<path d="M42.6302 17.5810
L42.6983 17.5205
" />
<path d="M42.6983 17.5205
L42.7738 17.3995
" />
<path d="M42.7738 17.3995
L42.7890 17.2786
" />
<path d="M42.7890 17.2786
L42.7436 17.1576
" />
<path d="M42.7436 17.1576
L42.6907 17.0971
" />
<path d="M42.6907 17.0971
L42.5773 17.0367
" />
<path d="M42.5773 17.0367
L42.3430 16.9762
" />
<path d="M42.3430 16.9762
L42.2296 16.9157
" />
<path d="M42.2296 16.9157
L42.1766 16.8552
" />
<path d="M42.1766 16.8552
L42.1313 16.7343
" />
<path d="M42.1313 16.7343
L42.1464 16.6133
" />
<path d="M42.1464 16.6133
L42.2220 16.4924
" />
<path d="M42.2220 16.4924
L42.2900 16.4319
" />
<path d="M42.2900 16.4319
L42.4186 16.3714
" />
<path d="M42.4186 16.3714
L42.7209 16.3714
" />
<path d="M42.7209 16.3714
L42.8948 16.4319
" />
<path d="M43.6885 16.3714
L43.9304 16.3714
" />
<path d="M43.9304 16.3714
L44.0438 16.4319
" />
<path d="M44.0438 16.4319
L44.1497 16.5529
" />
<path d="M44.1497 16.5529
L44.1799 16.7948
" />
<path d="M44.1799 16.7948
L44.1270 17.2181
" />
<path d="M44.1270 17.2181
L44.0363 17.4600
" />
<path d="M44.0363 17.4600
L43.9002 17.5810
" />
<path d="M43.9002 17.5810
L43.7717 17.6414
" />
<path d="M43.7717 17.6414
L43.5298 17.6414
" />
<path d="M43.5298 17.6414
L43.4164 17.5810
" />
<path d="M43.4164 17.5810
L43.3106 17.4600
" />
<path d="M43.3106 17.4600
L43.2803 17.2181
" />
<path d="M43.2803 17.2181
L43.3332 16.7948
" />
<path d="M43.3332 16.7948
L43.4239 16.5529
" />
<path d="M43.4239 16.5529
L43.5600 16.4319
" />
<path d="M43.5600 16.4319
L43.6885 16.3714
" />
<path d="M44.6335 17.5205
L44.6864 17.5810
" />
<path d="M44.6864 17.5810
L44.6184 17.6414
" />
<path d="M44.6184 17.6414
L44.5655 17.5810
" />
<path d="M44.5655 17.5810
L44.6335 17.5205
" />
<path d="M44.6335 17.5205
L44.6184 17.6414
" />
<path d="M44.7166 16.8552
L44.7696 16.9157
" />
<path d="M44.7696 16.9157
L44.7015 16.9762
" />
<path d="M44.7015 16.9762
L44.6486 16.9157
" />
<path d="M44.6486 16.9157
L44.7166 16.8552
" />
<path d="M44.7166 16.8552
L44.7015 16.9762
" />
<path d="M45.1703 17.5810
L45.3441 17.6414
" />
<path d="M45.3441 17.6414
L45.6465 17.6414
" />
<path d="M45.6465 17.6414
L45.7750 17.5810
" />
<path d="M45.7750 17.5810
L45.8431 17.5205
" />
<path d="M45.8431 17.5205
L45.9186 17.3995
" />
<path d="M45.9186 17.3995
L45.9338 17.2786
" />
<path d="M45.9338 17.2786
L45.8884 17.1576
" />
<path d="M45.8884 17.1576
L45.8355 17.0971
" />
<path d="M45.8355 17.0971
L45.7221 17.0367
" />
<path d="M45.7221 17.0367
L45.4878 16.9762
" />
<path d="M45.4878 16.9762
L45.3744 16.9157
" />
<path d="M45.3744 16.9157
L45.3214 16.8552
" />
<path d="M45.3214 16.8552
L45.2761 16.7343
" />
<path d="M45.2761 16.7343
L45.2912 16.6133
" />
<path d="M45.2912 16.6133
L45.3668 16.4924
" />
<path d="M45.3668 16.4924
L45.4348 16.4319
" />
<path d="M45.4348 16.4319
L45.5634 16.3714
" />
<path d="M45.5634 16.3714
L45.8657 16.3714
" />
<path d="M45.8657 16.3714
L46.0396 16.4319
" />
<path d="M46.8333 16.3714
L47.0752 16.3714
" />
<path d="M47.0752 16.3714
L47.1886 16.4319
" />
<path d="M47.1886 16.4319
L47.2945 16.5529
" />
<path d="M47.2945 16.5529
L47.3247 16.7948
" />
<path d="M47.3247 16.7948
L47.2718 17.2181
" />
<path d="M47.2718 17.2181
L47.1811 17.4600
" />
<path d="M47.1811 17.4600
L47.0450 17.5810
" />
<path d="M47.0450 17.5810
L46.9165 17.6414
" />
<path d="M46.9165 17.6414
L46.6746 17.6414
" />
<path d="M46.6746 17.6414
L46.5612 17.5810
" />
<path d="M46.5612 17.5810
L46.4554 17.4600
" />
<path d="M46.4554 17.4600
L46.4251 17.2181
" />
<path d="M46.4251 17.2181
L46.4780 16.7948
" />
<path d="M46.4780 16.7948
L46.5687 16.5529
" />
<path d="M46.5687 16.5529
L46.7048 16.4319
" />
<path d="M46.7048 16.4319
L46.8333 16.3714
" />
<path d="M47.7632 17.6414
L47.9219 16.3714
" />
<path d="M49.1088 17.5205
L49.0408 17.5810
" />
<path d="M49.0408 17.5810
L48.8518 17.6414
" />
<path d="M48.8518 17.6414
L48.7308 17.6414
" />
<path d="M48.7308 17.6414
L48.5570 17.5810
" />
<path d="M48.5570 17.5810
L48.4511 17.4600
" />
<path d="M48.4511 17.4600
L48.4058 17.3390
" />
<path d="M48.4058 17.3390
L48.3755 17.0971
" />
<path d="M48.3755 17.0971
L48.3982 16.9157
" />
<path d="M48.3982 16.9157
L48.4889 16.6738
" />
<path d="M48.4889 16.6738
L48.5645 16.5529
" />
<path d="M48.5645 16.5529
L48.7006 16.4319
" />
<path d="M48.7006 16.4319
L48.8896 16.3714
" />
<path d="M48.8896 16.3714
L49.0105 16.3714
" />
<path d="M49.0105 16.3714
L49.1844 16.4319
" />
<path d="M49.1844 16.4319
L49.2373 16.4924
" />
<path d="M49.6984 17.1576
L50.6661 17.1576
" />
<path d="M51.4825 16.9157
L51.3691 16.8552
" />
<path d="M51.3691 16.8552
L51.3162 16.7948
" />
<path d="M51.3162 16.7948
L51.2708 16.6738
" />
<path d="M51.2708 16.6738
L51.2784 16.6133
" />
<path d="M51.2784 16.6133
L51.3540 16.4924
" />
<path d="M51.3540 16.4924
L51.4220 16.4319
" />
<path d="M51.4220 16.4319
L51.5506 16.3714
" />
<path d="M51.5506 16.3714
L51.7925 16.3714
" />
<path d="M51.7925 16.3714
L51.9058 16.4319
" />
<path d="M51.9058 16.4319
L51.9588 16.4924
" />
<path d="M51.9588 16.4924
L52.0041 16.6133
" />
<path d="M52.0041 16.6133
L51.9966 16.6738
" />
<path d="M51.9966 16.6738
L51.9210 16.7948
" />
<path d="M51.9210 16.7948
L51.8529 16.8552
" />
<path d="M51.8529 16.8552
L51.7244 16.9157
" />
<path d="M51.7244 16.9157
L51.4825 16.9157
" />
<path d="M51.4825 16.9157
L51.3540 16.9762
" />
<path d="M51.3540 16.9762
L51.2860 17.0367
" />
<path d="M51.2860 17.0367
L51.2104 17.1576
" />
<path d="M51.2104 17.1576
L51.1801 17.3995
" />
<path d="M51.1801 17.3995
L51.2255 17.5205
" />
<path d="M51.2255 17.5205
L51.2784 17.5810
" />
<path d="M51.2784 17.5810
L51.3918 17.6414
" />
<path d="M51.3918 17.6414
L51.6337 17.6414
" />
<path d="M51.6337 17.6414
L51.7622 17.5810
" />
<path d="M51.7622 17.5810
L51.8303 17.5205
" />
<path d="M51.8303 17.5205
L51.9058 17.3995
" />
<path d="M51.9058 17.3995
L51.9361 17.1576
" />
<path d="M51.9361 17.1576
L51.8907 17.0367
" />
<path d="M51.8907 17.0367
L51.8378 16.9762
" />
<path d="M51.8378 16.9762
L51.7244 16.9157
" />
<path d="M52.1024 17.7624
L53.0700 17.7624
" />
<path d="M53.4253 16.3714
L54.2115 16.3714
" />
<path d="M54.2115 16.3714
L53.7277 16.8552
" />
<path d="M53.7277 16.8552
L53.9091 16.8552
" />
<path d="M53.9091 16.8552
L54.0225 16.9157
" />
<path d="M54.0225 16.9157
L54.0754 16.9762
" />
<path d="M54.0754 16.9762
L54.1207 17.0971
" />
<path d="M54.1207 17.0971
L54.0829 17.3995
" />
<path d="M54.0829 17.3995
L54.0074 17.5205
" />
<path d="M54.0074 17.5205
L53.9393 17.5810
" />
<path d="M53.9393 17.5810
L53.8108 17.6414
" />
<path d="M53.8108 17.6414
L53.4479 17.6414
" />
<path d="M53.4479 17.6414
L53.3346 17.5810
" />
<path d="M53.3346 17.5810
L53.2816 17.5205
" />
<path d="M54.6121 17.5205
L54.6650 17.5810
" />
<path d="M54.6650 17.5810
L54.5970 17.6414
" />
<path d="M54.5970 17.6414
L54.5441 17.5810
" />
<path d="M54.5441 17.5810
L54.6121 17.5205
" />
<path d="M54.6121 17.5205
L54.5970 17.6414
" />
<path d="M55.2622 17.6414
L55.5042 17.6414
" />
<path d="M55.5042 17.6414
L55.6327 17.5810
" />
<path d="M55.6327 17.5810
L55.7007 17.5205
" />
<path d="M55.7007 17.5205
L55.8443 17.3390
" />
<path d="M55.8443 17.3390
L55.9350 17.0971
" />
<path d="M55.9350 17.0971
L55.9955 16.6133
" />
<path d="M55.9955 16.6133
L55.9502 16.4924
" />
<path d="M55.9502 16.4924
L55.8972 16.4319
" />
<path d="M55.8972 16.4319
L55.7839 16.3714
" />
<path d="M55.7839 16.3714
L55.5420 16.3714
" />
<path d="M55.5420 16.3714
L55.4134 16.4319
" />
<path d="M55.4134 16.4319
L55.3454 16.4924
" />
<path d="M55.3454 16.4924
L55.2698 16.6133
" />
<path d="M55.2698 16.6133
L55.2320 16.9157
" />
<path d="M55.2320 16.9157
L55.2774 17.0367
" />
<path d="M55.2774 17.0367
L55.3303 17.0971
" />
<path d="M55.3303 17.0971
L55.4437 17.1576
" />
<path d="M55.4437 17.1576
L55.6856 17.1576
" />
<path d="M55.6856 17.1576
L55.8141 17.0971
" />
<path d="M55.8141 17.0971
L55.8821 17.0367
" />
<path d="M55.8821 17.0367
L55.9577 16.9157
" />
<path d="M56.2903 17.6414
L57.0614 16.7948
" />
<path d="M56.3962 16.7948
L56.9556 17.6414
" />
<path d="M58.0895 16.7948
L57.9837 17.6414
" />
<path d="M57.8476 16.3110
L57.4318 17.2181
" />
<path d="M57.4318 17.2181
L58.2180 17.2181
" />
<path d="M58.6640 17.5205
L58.7169 17.5810
" />
<path d="M58.7169 17.5810
L58.6489 17.6414
" />
<path d="M58.6489 17.6414
L58.5960 17.5810
" />
<path d="M58.5960 17.5810
L58.6640 17.5205
" />
<path d="M58.6640 17.5205
L58.6489 17.6414
" />
<path d="M59.3141 17.6414
L59.5561 17.6414
" />
<path d="M59.5561 17.6414
L59.6846 17.5810
" />
<path d="M59.6846 17.5810
L59.7526 17.5205
" />
<path d="M59.7526 17.5205
L59.8962 17.3390
" />
<path d="M59.8962 17.3390
L59.9869 17.0971
" />
<path d="M59.9869 17.0971
L60.0474 16.6133
" />
<path d="M60.0474 16.6133
L60.0021 16.4924
" />
<path d="M60.0021 16.4924
L59.9491 16.4319
" />
<path d="M59.9491 16.4319
L59.8358 16.3714
" />
<path d="M59.8358 16.3714
L59.5939 16.3714
" />
<path d="M59.5939 16.3714
L59.4653 16.4319
" />
<path d="M59.4653 16.4319
L59.3973 16.4924
" />
<path d="M59.3973 16.4924
L59.3217 16.6133
" />
<path d="M59.3217 16.6133
L59.2839 16.9157
" />
<path d="M59.2839 16.9157
L59.3293 17.0367
" />
<path d="M59.3293 17.0367
L59.3822 17.0971
" />
<path d="M59.3822 17.0971
L59.4956 17.1576
" />
<path d="M59.4956 17.1576
L59.7375 17.1576
" />
<path d="M59.7375 17.1576
L59.8660 17.0971
" />
<path d="M59.8660 17.0971
L59.9340 17.0367
" />
<path d="M59.9340 17.0367
L60.0096 16.9157
" />
<path d="M60.4632 17.6414
L60.5690 16.7948
" />
<path d="M60.5539 16.9157
L60.6219 16.8552
" />
<path d="M60.6219 16.8552
L60.7504 16.7948
" />
<path d="M60.7504 16.7948
L60.9319 16.7948
" />
<path d="M60.9319 16.7948
L61.0453 16.8552
" />
<path d="M61.0453 16.8552
L61.0906 16.9762
" />
<path d="M61.0906 16.9762
L61.0075 17.6414
" />
<path d="M61.0906 16.9762
L61.1662 16.8552
" />
<path d="M61.1662 16.8552
L61.2947 16.7948
" />
<path d="M61.2947 16.7948
L61.4761 16.7948
" />
<path d="M61.4761 16.7948
L61.5895 16.8552
" />
<path d="M61.5895 16.8552
L61.6349 16.9762
" />
<path d="M61.6349 16.9762
L61.5517 17.6414
" />
<path d="M62.1565 17.6414
L62.2623 16.7948
" />
<path d="M62.2472 16.9157
L62.3152 16.8552
" />
<path d="M62.3152 16.8552
L62.4437 16.7948
" />
<path d="M62.4437 16.7948
L62.6252 16.7948
" />
<path d="M62.6252 16.7948
L62.7386 16.8552
" />
<path d="M62.7386 16.8552
L62.7839 16.9762
" />
<path d="M62.7839 16.9762
L62.7008 17.6414
" />
<path d="M62.7839 16.9762
L62.8595 16.8552
" />
<path d="M62.8595 16.8552
L62.9880 16.7948
" />
<path d="M62.9880 16.7948
L63.1694 16.7948
" />
<path d="M63.1694 16.7948
L63.2828 16.8552
" />
<path d="M63.2828 16.8552
L63.3282 16.9762
" />
<path d="M63.3282 16.9762
L63.2450 17.6414
" />
<path d="M63.5323 17.7624
L64.4999 17.7624
" />
<path d="M64.8174 17.6414
L64.9761 16.3714
" />
<path d="M64.9761 16.3714
L65.4599 16.3714
" />
<path d="M65.4599 16.3714
L65.5733 16.4319
" />
<path d="M65.5733 16.4319
L65.6262 16.4924
" />
<path d="M65.6262 16.4924
L65.6716 16.6133
" />
<path d="M65.6716 16.6133
L65.6489 16.7948
" />
<path d="M65.6489 16.7948
L65.5733 16.9157
" />
<path d="M65.5733 16.9157
L65.5053 16.9762
" />
<path d="M65.5053 16.9762
L65.3768 17.0367
" />
<path d="M65.3768 17.0367
L64.8930 17.0367
" />
<path d="M66.7526 17.6414
L66.0269 17.6414
" />
<path d="M66.3898 17.6414
L66.5485 16.3714
" />
<path d="M66.5485 16.3714
L66.4049 16.5529
" />
<path d="M66.4049 16.5529
L66.2688 16.6738
" />
<path d="M66.2688 16.6738
L66.1403 16.7343
" />
<path d="M67.3120 17.5205
L67.3649 17.5810
" />
<path d="M67.3649 17.5810
L67.2969 17.6414
" />
<path d="M67.2969 17.6414
L67.2440 17.5810
" />
<path d="M67.2440 17.5810
L67.3120 17.5205
" />
<path d="M67.3120 17.5205
L67.2969 17.6414
" />
<path d="M67.9848 16.4924
L68.0529 16.4319
" />
<path d="M68.0529 16.4319
L68.1814 16.3714
" />
<path d="M68.1814 16.3714
L68.4838 16.3714
" />
<path d="M68.4838 16.3714
L68.5971 16.4319
" />
<path d="M68.5971 16.4319
L68.6501 16.4924
" />
<path d="M68.6501 16.4924
L68.6954 16.6133
" />
<path d="M68.6954 16.6133
L68.6803 16.7343
" />
<path d="M68.6803 16.7343
L68.5971 16.9157
" />
<path d="M68.5971 16.9157
L67.7807 17.6414
" />
<path d="M67.7807 17.6414
L68.5669 17.6414
" />
<path d="M69.1490 16.3714
L69.9956 16.3714
" />
<path d="M69.9956 16.3714
L69.2926 17.6414
" />
<path d="M70.3207 17.6414
L70.4265 16.7948
" />
<path d="M70.4114 16.9157
L70.4794 16.8552
" />
<path d="M70.4794 16.8552
L70.6079 16.7948
" />
<path d="M70.6079 16.7948
L70.7894 16.7948
" />
<path d="M70.7894 16.7948
L70.9028 16.8552
" />
<path d="M70.9028 16.8552
L70.9481 16.9762
" />
<path d="M70.9481 16.9762
L70.8650 17.6414
" />
<path d="M70.9481 16.9762
L71.0237 16.8552
" />
<path d="M71.0237 16.8552
L71.1522 16.7948
" />
<path d="M71.1522 16.7948
L71.3336 16.7948
" />
<path d="M71.3336 16.7948
L71.4470 16.8552
" />
<path d="M71.4470 16.8552
L71.4924 16.9762
" />
<path d="M71.4924 16.9762
L71.4092 17.6414
" />
<path d="M72.0140 17.6414
L72.1198 16.7948
" />
<path d="M72.1047 16.9157
L72.1727 16.8552
" />
<path d="M72.1727 16.8552
L72.3012 16.7948
" />
<path d="M72.3012 16.7948
L72.4827 16.7948
" />
<path d="M72.4827 16.7948
L72.5961 16.8552
" />
<path d="M72.5961 16.8552
L72.6414 16.9762
" />
<path d="M72.6414 16.9762
L72.5583 17.6414
" />
<path d="M72.6414 16.9762
L72.7170 16.8552
" />
<path d="M72.7170 16.8552
L72.8455 16.7948
" />
<path d="M72.8455 16.7948
L73.0269 16.7948
" />
<path d="M73.0269 16.7948
L73.1403 16.8552
" />
<path d="M73.1403 16.8552
L73.1857 16.9762
" />
<path d="M73.1857 16.9762
L73.1025 17.6414
" />
</g><text x="53.0737" y="17.6972"
textLength="88.4562" font-size="1.6933" lengthAdjust="spacingAndGlyphs"
text-anchor="middle" opacity="0">https://www.infineon.com/dgdl/ir25602.pdf?fileId=5546d462533600a4015355c9d6c216eb</text>
<g class="stroked-text"><desc>https://www.infineon.com/dgdl/ir25602.pdf?fileId=5546d462533600a4015355c9d6c216eb</desc>
<path d="M9.2591 17.6414
L9.2591 16.3714
" />
<path d="M9.8034 17.6414
L9.8034 16.9762
" />
<path d="M9.8034 16.9762
L9.7429 16.8552
" />
<path d="M9.7429 16.8552
L9.6220 16.7948
" />
<path d="M9.6220 16.7948
L9.4406 16.7948
" />
<path d="M9.4406 16.7948
L9.3196 16.8552
" />
<path d="M9.3196 16.8552
L9.2591 16.9157
" />
<path d="M10.2267 16.7948
L10.7105 16.7948
" />
<path d="M10.4081 16.3714
L10.4081 17.4600
" />
<path d="M10.4081 17.4600
L10.4686 17.5810
" />
<path d="M10.4686 17.5810
L10.5896 17.6414
" />
<path d="M10.5896 17.6414
L10.7105 17.6414
" />
<path d="M10.9524 16.7948
L11.4362 16.7948
" />
<path d="M11.1338 16.3714
L11.1338 17.4600
" />
<path d="M11.1338 17.4600
L11.1943 17.5810
" />
<path d="M11.1943 17.5810
L11.3153 17.6414
" />
<path d="M11.3153 17.6414
L11.4362 17.6414
" />
<path d="M11.8595 16.7948
L11.8595 18.0648
" />
<path d="M11.8595 16.8552
L11.9805 16.7948
" />
<path d="M11.9805 16.7948
L12.2224 16.7948
" />
<path d="M12.2224 16.7948
L12.3433 16.8552
" />
<path d="M12.3433 16.8552
L12.4038 16.9157
" />
<path d="M12.4038 16.9157
L12.4643 17.0367
" />
<path d="M12.4643 17.0367
L12.4643 17.3995
" />
<path d="M12.4643 17.3995
L12.4038 17.5205
" />
<path d="M12.4038 17.5205
L12.3433 17.5810
" />
<path d="M12.3433 17.5810
L12.2224 17.6414
" />
<path d="M12.2224 17.6414
L11.9805 17.6414
" />
<path d="M11.9805 17.6414
L11.8595 17.5810
" />
<path d="M12.9481 17.5810
L13.0690 17.6414
" />
<path d="M13.0690 17.6414
L13.3109 17.6414
" />
<path d="M13.3109 17.6414
L13.4319 17.5810
" />
<path d="M13.4319 17.5810
L13.4923 17.4600
" />
<path d="M13.4923 17.4600
L13.4923 17.3995
" />
<path d="M13.4923 17.3995
L13.4319 17.2786
" />
<path d="M13.4319 17.2786
L13.3109 17.2181
" />
<path d="M13.3109 17.2181
L13.1295 17.2181
" />
<path d="M13.1295 17.2181
L13.0085 17.1576
" />
<path d="M13.0085 17.1576
L12.9481 17.0367
" />
<path d="M12.9481 17.0367
L12.9481 16.9762
" />
<path d="M12.9481 16.9762
L13.0085 16.8552
" />
<path d="M13.0085 16.8552
L13.1295 16.7948
" />
<path d="M13.1295 16.7948
L13.3109 16.7948
" />
<path d="M13.3109 16.7948
L13.4319 16.8552
" />
<path d="M14.0366 17.5205
L14.0971 17.5810
" />
<path d="M14.0971 17.5810
L14.0366 17.6414
" />
<path d="M14.0366 17.6414
L13.9762 17.5810
" />
<path d="M13.9762 17.5810
L14.0366 17.5205
" />
<path d="M14.0366 17.5205
L14.0366 17.6414
" />
<path d="M14.0366 16.8552
L14.0971 16.9157
" />
<path d="M14.0971 16.9157
L14.0366 16.9762
" />
<path d="M14.0366 16.9762
L13.9762 16.9157
" />
<path d="M13.9762 16.9157
L14.0366 16.8552
" />
<path d="M14.0366 16.8552
L14.0366 16.9762
" />
<path d="M15.5486 16.3110
L14.4600 17.9438
" />
<path d="M16.8791 16.3110
L15.7905 17.9438
" />
<path d="M17.1815 16.7948
L17.4234 17.6414
" />
<path d="M17.4234 17.6414
L17.6653 17.0367
" />
<path d="M17.6653 17.0367
L17.9072 17.6414
" />
<path d="M17.9072 17.6414
L18.1491 16.7948
" />
<path d="M18.5120 16.7948
L18.7539 17.6414
" />
<path d="M18.7539 17.6414
L18.9958 17.0367
" />
<path d="M18.9958 17.0367
L19.2377 17.6414
" />
<path d="M19.2377 17.6414
L19.4796 16.7948
" />
<path d="M19.8425 16.7948
L20.0844 17.6414
" />
<path d="M20.0844 17.6414
L20.3263 17.0367
" />
<path d="M20.3263 17.0367
L20.5682 17.6414
" />
<path d="M20.5682 17.6414
L20.8101 16.7948
" />
<path d="M21.2939 17.5205
L21.3544 17.5810
" />
<path d="M21.3544 17.5810
L21.2939 17.6414
" />
<path d="M21.2939 17.6414
L21.2335 17.5810
" />
<path d="M21.2335 17.5810
L21.2939 17.5205
" />
<path d="M21.2939 17.5205
L21.2939 17.6414
" />
<path d="M21.8987 17.6414
L21.8987 16.7948
" />
<path d="M21.8987 16.3714
L21.8383 16.4319
" />
<path d="M21.8383 16.4319
L21.8987 16.4924
" />
<path d="M21.8987 16.4924
L21.9592 16.4319
" />
<path d="M21.9592 16.4319
L21.8987 16.3714
" />
<path d="M21.8987 16.3714
L21.8987 16.4924
" />
<path d="M22.5035 16.7948
L22.5035 17.6414
" />
<path d="M22.5035 16.9157
L22.5640 16.8552
" />
<path d="M22.5640 16.8552
L22.6850 16.7948
" />
<path d="M22.6850 16.7948
L22.8664 16.7948
" />
<path d="M22.8664 16.7948
L22.9873 16.8552
" />
<path d="M22.9873 16.8552
L23.0478 16.9762
" />
<path d="M23.0478 16.9762
L23.0478 17.6414
" />
<path d="M23.4711 16.7948
L23.9549 16.7948
" />
<path d="M23.6525 17.6414
L23.6525 16.5529
" />
<path d="M23.6525 16.5529
L23.7130 16.4319
" />
<path d="M23.7130 16.4319
L23.8340 16.3714
" />
<path d="M23.8340 16.3714
L23.9549 16.3714
" />
<path d="M24.3782 17.6414
L24.3782 16.7948
" />
<path d="M24.3782 16.3714
L24.3178 16.4319
" />
<path d="M24.3178 16.4319
L24.3782 16.4924
" />
<path d="M24.3782 16.4924
L24.4387 16.4319
" />
<path d="M24.4387 16.4319
L24.3782 16.3714
" />
<path d="M24.3782 16.3714
L24.3782 16.4924
" />
<path d="M24.9830 16.7948
L24.9830 17.6414
" />
<path d="M24.9830 16.9157
L25.0435 16.8552
" />
<path d="M25.0435 16.8552
L25.1645 16.7948
" />
<path d="M25.1645 16.7948
L25.3459 16.7948
" />
<path d="M25.3459 16.7948
L25.4668 16.8552
" />
<path d="M25.4668 16.8552
L25.5273 16.9762
" />
<path d="M25.5273 16.9762
L25.5273 17.6414
" />
<path d="M26.6158 17.5810
L26.4949 17.6414
" />
<path d="M26.4949 17.6414
L26.2530 17.6414
" />
<path d="M26.2530 17.6414
L26.1320 17.5810
" />
<path d="M26.1320 17.5810
L26.0716 17.4600
" />
<path d="M26.0716 17.4600
L26.0716 16.9762
" />
<path d="M26.0716 16.9762
L26.1320 16.8552
" />
<path d="M26.1320 16.8552
L26.2530 16.7948
" />
<path d="M26.2530 16.7948
L26.4949 16.7948
" />
<path d="M26.4949 16.7948
L26.6158 16.8552
" />
<path d="M26.6158 16.8552
L26.6763 16.9762
" />
<path d="M26.6763 16.9762
L26.6763 17.0971
" />
<path d="M26.6763 17.0971
L26.0716 17.2181
" />
<path d="M27.4021 17.6414
L27.2811 17.5810
" />
<path d="M27.2811 17.5810
L27.2206 17.5205
" />
<path d="M27.2206 17.5205
L27.1602 17.3995
" />
<path d="M27.1602 17.3995
L27.1602 17.0367
" />
<path d="M27.1602 17.0367
L27.2206 16.9157
" />
<path d="M27.2206 16.9157
L27.2811 16.8552
" />
<path d="M27.2811 16.8552
L27.4021 16.7948
" />
<path d="M27.4021 16.7948
L27.5835 16.7948
" />
<path d="M27.5835 16.7948
L27.7044 16.8552
" />
<path d="M27.7044 16.8552
L27.7649 16.9157
" />
<path d="M27.7649 16.9157
L27.8254 17.0367
" />
<path d="M27.8254 17.0367
L27.8254 17.3995
" />
<path d="M27.8254 17.3995
L27.7649 17.5205
" />
<path d="M27.7649 17.5205
L27.7044 17.5810
" />
<path d="M27.7044 17.5810
L27.5835 17.6414
" />
<path d="M27.5835 17.6414
L27.4021 17.6414
" />
<path d="M28.3696 16.7948
L28.3696 17.6414
" />
<path d="M28.3696 16.9157
L28.4301 16.8552
" />
<path d="M28.4301 16.8552
L28.5511 16.7948
" />
<path d="M28.5511 16.7948
L28.7325 16.7948
" />
<path d="M28.7325 16.7948
L28.8534 16.8552
" />
<path d="M28.8534 16.8552
L28.9139 16.9762
" />
<path d="M28.9139 16.9762
L28.9139 17.6414
" />
<path d="M29.5186 17.5205
L29.5791 17.5810
" />
<path d="M29.5791 17.5810
L29.5186 17.6414
" />
<path d="M29.5186 17.6414
L29.4582 17.5810
" />
<path d="M29.4582 17.5810
L29.5186 17.5205
" />
<path d="M29.5186 17.5205
L29.5186 17.6414
" />
<path d="M30.6677 17.5810
L30.5468 17.6414
" />
<path d="M30.5468 17.6414
L30.3049 17.6414
" />
<path d="M30.3049 17.6414
L30.1839 17.5810
" />
<path d="M30.1839 17.5810
L30.1234 17.5205
" />
<path d="M30.1234 17.5205
L30.0630 17.3995
" />
<path d="M30.0630 17.3995
L30.0630 17.0367
" />
<path d="M30.0630 17.0367
L30.1234 16.9157
" />
<path d="M30.1234 16.9157
L30.1839 16.8552
" />
<path d="M30.1839 16.8552
L30.3049 16.7948
" />
<path d="M30.3049 16.7948
L30.5468 16.7948
" />
<path d="M30.5468 16.7948
L30.6677 16.8552
" />
<path d="M31.3935 17.6414
L31.2725 17.5810
" />
<path d="M31.2725 17.5810
L31.2120 17.5205
" />
<path d="M31.2120 17.5205
L31.1516 17.3995
" />
<path d="M31.1516 17.3995
L31.1516 17.0367
" />
<path d="M31.1516 17.0367
L31.2120 16.9157
" />
<path d="M31.2120 16.9157
L31.2725 16.8552
" />
<path d="M31.2725 16.8552
L31.3935 16.7948
" />
<path d="M31.3935 16.7948
L31.5749 16.7948
" />
<path d="M31.5749 16.7948
L31.6958 16.8552
" />
<path d="M31.6958 16.8552
L31.7563 16.9157
" />
<path d="M31.7563 16.9157
L31.8168 17.0367
" />
<path d="M31.8168 17.0367
L31.8168 17.3995
" />
<path d="M31.8168 17.3995
L31.7563 17.5205
" />
<path d="M31.7563 17.5205
L31.6958 17.5810
" />
<path d="M31.6958 17.5810
L31.5749 17.6414
" />
<path d="M31.5749 17.6414
L31.3935 17.6414
" />
<path d="M32.3610 17.6414
L32.3610 16.7948
" />
<path d="M32.3610 16.9157
L32.4215 16.8552
" />
<path d="M32.4215 16.8552
L32.5425 16.7948
" />
<path d="M32.5425 16.7948
L32.7239 16.7948
" />
<path d="M32.7239 16.7948
L32.8448 16.8552
" />
<path d="M32.8448 16.8552
L32.9053 16.9762
" />
<path d="M32.9053 16.9762
L32.9053 17.6414
" />
<path d="M32.9053 16.9762
L32.9658 16.8552
" />
<path d="M32.9658 16.8552
L33.0867 16.7948
" />
<path d="M33.0867 16.7948
L33.2682 16.7948
" />
<path d="M33.2682 16.7948
L33.3891 16.8552
" />
<path d="M33.3891 16.8552
L33.4496 16.9762
" />
<path d="M33.4496 16.9762
L33.4496 17.6414
" />
<path d="M34.9615 16.3110
L33.8729 17.9438
" />
<path d="M35.9291 17.6414
L35.9291 16.3714
" />
<path d="M35.9291 17.5810
L35.8082 17.6414
" />
<path d="M35.8082 17.6414
L35.5663 17.6414
" />
<path d="M35.5663 17.6414
L35.4453 17.5810
" />
<path d="M35.4453 17.5810
L35.3848 17.5205
" />
<path d="M35.3848 17.5205
L35.3244 17.3995
" />
<path d="M35.3244 17.3995
L35.3244 17.0367
" />
<path d="M35.3244 17.0367
L35.3848 16.9157
" />
<path d="M35.3848 16.9157
L35.4453 16.8552
" />
<path d="M35.4453 16.8552
L35.5663 16.7948
" />
<path d="M35.5663 16.7948
L35.8082 16.7948
" />
<path d="M35.8082 16.7948
L35.9291 16.8552
" />
<path d="M37.0781 16.7948
L37.0781 17.8229
" />
<path d="M37.0781 17.8229
L37.0176 17.9438
" />
<path d="M37.0176 17.9438
L36.9572 18.0043
" />
<path d="M36.9572 18.0043
L36.8362 18.0648
" />
<path d="M36.8362 18.0648
L36.6548 18.0648
" />
<path d="M36.6548 18.0648
L36.5338 18.0043
" />
<path d="M37.0781 17.5810
L36.9572 17.6414
" />
<path d="M36.9572 17.6414
L36.7153 17.6414
" />
<path d="M36.7153 17.6414
L36.5943 17.5810
" />
<path d="M36.5943 17.5810
L36.5338 17.5205
" />
<path d="M36.5338 17.5205
L36.4734 17.3995
" />
<path d="M36.4734 17.3995
L36.4734 17.0367
" />
<path d="M36.4734 17.0367
L36.5338 16.9157
" />
<path d="M36.5338 16.9157
L36.5943 16.8552
" />
<path d="M36.5943 16.8552
L36.7153 16.7948
" />
<path d="M36.7153 16.7948
L36.9572 16.7948
" />
<path d="M36.9572 16.7948
L37.0781 16.8552
" />
<path d="M38.2271 17.6414
L38.2271 16.3714
" />
<path d="M38.2271 17.5810
L38.1062 17.6414
" />
<path d="M38.1062 17.6414
L37.8643 17.6414
" />
<path d="M37.8643 17.6414
L37.7433 17.5810
" />
<path d="M37.7433 17.5810
L37.6828 17.5205
" />
<path d="M37.6828 17.5205
L37.6224 17.3995
" />
<path d="M37.6224 17.3995
L37.6224 17.0367
" />
<path d="M37.6224 17.0367
L37.6828 16.9157
" />
<path d="M37.6828 16.9157
L37.7433 16.8552
" />
<path d="M37.7433 16.8552
L37.8643 16.7948
" />
<path d="M37.8643 16.7948
L38.1062 16.7948
" />
<path d="M38.1062 16.7948
L38.2271 16.8552
" />
<path d="M39.0133 17.6414
L38.8923 17.5810
" />
<path d="M38.8923 17.5810
L38.8318 17.4600
" />
<path d="M38.8318 17.4600
L38.8318 16.3714
" />
<path d="M40.4042 16.3110
L39.3156 17.9438
" />
<path d="M40.8275 17.6414
L40.8275 16.7948
" />
<path d="M40.8275 16.3714
L40.7671 16.4319
" />
<path d="M40.7671 16.4319
L40.8275 16.4924
" />
<path d="M40.8275 16.4924
L40.8880 16.4319
" />
<path d="M40.8880 16.4319
L40.8275 16.3714
" />
<path d="M40.8275 16.3714
L40.8275 16.4924
" />
<path d="M41.4323 17.6414
L41.4323 16.7948
" />
<path d="M41.4323 17.0367
L41.4928 16.9157
" />
<path d="M41.4928 16.9157
L41.5533 16.8552
" />
<path d="M41.5533 16.8552
L41.6742 16.7948
" />
<path d="M41.6742 16.7948
L41.7952 16.7948
" />
<path d="M42.1581 16.4924
L42.2185 16.4319
" />
<path d="M42.2185 16.4319
L42.3395 16.3714
" />
<path d="M42.3395 16.3714
L42.6419 16.3714
" />
<path d="M42.6419 16.3714
L42.7628 16.4319
" />
<path d="M42.7628 16.4319
L42.8233 16.4924
" />
<path d="M42.8233 16.4924
L42.8838 16.6133
" />
<path d="M42.8838 16.6133
L42.8838 16.7343
" />
<path d="M42.8838 16.7343
L42.8233 16.9157
" />
<path d="M42.8233 16.9157
L42.0976 17.6414
" />
<path d="M42.0976 17.6414
L42.8838 17.6414
" />
<path d="M44.0328 16.3714
L43.4280 16.3714
" />
<path d="M43.4280 16.3714
L43.3676 16.9762
" />
<path d="M43.3676 16.9762
L43.4280 16.9157
" />
<path d="M43.4280 16.9157
L43.5490 16.8552
" />
<path d="M43.5490 16.8552
L43.8514 16.8552
" />
<path d="M43.8514 16.8552
L43.9723 16.9157
" />
<path d="M43.9723 16.9157
L44.0328 16.9762
" />
<path d="M44.0328 16.9762
L44.0933 17.0971
" />
<path d="M44.0933 17.0971
L44.0933 17.3995
" />
<path d="M44.0933 17.3995
L44.0328 17.5205
" />
<path d="M44.0328 17.5205
L43.9723 17.5810
" />
<path d="M43.9723 17.5810
L43.8514 17.6414
" />
<path d="M43.8514 17.6414
L43.5490 17.6414
" />
<path d="M43.5490 17.6414
L43.4280 17.5810
" />
<path d="M43.4280 17.5810
L43.3676 17.5205
" />
<path d="M45.1818 16.3714
L44.9399 16.3714
" />
<path d="M44.9399 16.3714
L44.8190 16.4319
" />
<path d="M44.8190 16.4319
L44.7585 16.4924
" />
<path d="M44.7585 16.4924
L44.6375 16.6738
" />
<path d="M44.6375 16.6738
L44.5771 16.9157
" />
<path d="M44.5771 16.9157
L44.5771 17.3995
" />
<path d="M44.5771 17.3995
L44.6375 17.5205
" />
<path d="M44.6375 17.5205
L44.6980 17.5810
" />
<path d="M44.6980 17.5810
L44.8190 17.6414
" />
<path d="M44.8190 17.6414
L45.0609 17.6414
" />
<path d="M45.0609 17.6414
L45.1818 17.5810
" />
<path d="M45.1818 17.5810
L45.2423 17.5205
" />
<path d="M45.2423 17.5205
L45.3028 17.3995
" />
<path d="M45.3028 17.3995
L45.3028 17.0971
" />
<path d="M45.3028 17.0971
L45.2423 16.9762
" />
<path d="M45.2423 16.9762
L45.1818 16.9157
" />
<path d="M45.1818 16.9157
L45.0609 16.8552
" />
<path d="M45.0609 16.8552
L44.8190 16.8552
" />
<path d="M44.8190 16.8552
L44.6980 16.9157
" />
<path d="M44.6980 16.9157
L44.6375 16.9762
" />
<path d="M44.6375 16.9762
L44.5771 17.0971
" />
<path d="M46.0889 16.3714
L46.2099 16.3714
" />
<path d="M46.2099 16.3714
L46.3308 16.4319
" />
<path d="M46.3308 16.4319
L46.3913 16.4924
" />
<path d="M46.3913 16.4924
L46.4518 16.6133
" />
<path d="M46.4518 16.6133
L46.5123 16.8552
" />
<path d="M46.5123 16.8552
L46.5123 17.1576
" />
<path d="M46.5123 17.1576
L46.4518 17.3995
" />
<path d="M46.4518 17.3995
L46.3913 17.5205
" />
<path d="M46.3913 17.5205
L46.3308 17.5810
" />
<path d="M46.3308 17.5810
L46.2099 17.6414
" />
<path d="M46.2099 17.6414
L46.0889 17.6414
" />
<path d="M46.0889 17.6414
L45.9680 17.5810
" />
<path d="M45.9680 17.5810
L45.9075 17.5205
" />
<path d="M45.9075 17.5205
L45.8470 17.3995
" />
<path d="M45.8470 17.3995
L45.7866 17.1576
" />
<path d="M45.7866 17.1576
L45.7866 16.8552
" />
<path d="M45.7866 16.8552
L45.8470 16.6133
" />
<path d="M45.8470 16.6133
L45.9075 16.4924
" />
<path d="M45.9075 16.4924
L45.9680 16.4319
" />
<path d="M45.9680 16.4319
L46.0889 16.3714
" />
<path d="M46.9961 16.4924
L47.0565 16.4319
" />
<path d="M47.0565 16.4319
L47.1775 16.3714
" />
<path d="M47.1775 16.3714
L47.4799 16.3714
" />
<path d="M47.4799 16.3714
L47.6008 16.4319
" />
<path d="M47.6008 16.4319
L47.6613 16.4924
" />
<path d="M47.6613 16.4924
L47.7218 16.6133
" />
<path d="M47.7218 16.6133
L47.7218 16.7343
" />
<path d="M47.7218 16.7343
L47.6613 16.9157
" />
<path d="M47.6613 16.9157
L46.9356 17.6414
" />
<path d="M46.9356 17.6414
L47.7218 17.6414
" />
<path d="M48.2660 17.5205
L48.3265 17.5810
" />
<path d="M48.3265 17.5810
L48.2660 17.6414
" />
<path d="M48.2660 17.6414
L48.2056 17.5810
" />
<path d="M48.2056 17.5810
L48.2660 17.5205
" />
<path d="M48.2660 17.5205
L48.2660 17.6414
" />
<path d="M48.8708 16.7948
L48.8708 18.0648
" />
<path d="M48.8708 16.8552
L48.9918 16.7948
" />
<path d="M48.9918 16.7948
L49.2337 16.7948
" />
<path d="M49.2337 16.7948
L49.3546 16.8552
" />
<path d="M49.3546 16.8552
L49.4151 16.9157
" />
<path d="M49.4151 16.9157
L49.4756 17.0367
" />
<path d="M49.4756 17.0367
L49.4756 17.3995
" />
<path d="M49.4756 17.3995
L49.4151 17.5205
" />
<path d="M49.4151 17.5205
L49.3546 17.5810
" />
<path d="M49.3546 17.5810
L49.2337 17.6414
" />
<path d="M49.2337 17.6414
L48.9918 17.6414
" />
<path d="M48.9918 17.6414
L48.8708 17.5810
" />
<path d="M50.5641 17.6414
L50.5641 16.3714
" />
<path d="M50.5641 17.5810
L50.4432 17.6414
" />
<path d="M50.4432 17.6414
L50.2013 17.6414
" />
<path d="M50.2013 17.6414
L50.0803 17.5810
" />
<path d="M50.0803 17.5810
L50.0198 17.5205
" />
<path d="M50.0198 17.5205
L49.9594 17.3995
" />
<path d="M49.9594 17.3995
L49.9594 17.0367
" />
<path d="M49.9594 17.0367
L50.0198 16.9157
" />
<path d="M50.0198 16.9157
L50.0803 16.8552
" />
<path d="M50.0803 16.8552
L50.2013 16.7948
" />
<path d="M50.2013 16.7948
L50.4432 16.7948
" />
<path d="M50.4432 16.7948
L50.5641 16.8552
" />
<path d="M50.9874 16.7948
L51.4712 16.7948
" />
<path d="M51.1688 17.6414
L51.1688 16.5529
" />
<path d="M51.1688 16.5529
L51.2293 16.4319
" />
<path d="M51.2293 16.4319
L51.3503 16.3714
" />
<path d="M51.3503 16.3714
L51.4712 16.3714
" />
<path d="M52.0760 17.5205
L52.1364 17.5810
" />
<path d="M52.1364 17.5810
L52.0760 17.6414
" />
<path d="M52.0760 17.6414
L52.0155 17.5810
" />
<path d="M52.0155 17.5810
L52.0760 17.5205
" />
<path d="M52.0760 17.5205
L52.0760 17.6414
" />
<path d="M51.8341 16.4319
L51.9550 16.3714
" />
<path d="M51.9550 16.3714
L52.2574 16.3714
" />
<path d="M52.2574 16.3714
L52.3783 16.4319
" />
<path d="M52.3783 16.4319
L52.4388 16.5529
" />
<path d="M52.4388 16.5529
L52.4388 16.6738
" />
<path d="M52.4388 16.6738
L52.3783 16.7948
" />
<path d="M52.3783 16.7948
L52.3179 16.8552
" />
<path d="M52.3179 16.8552
L52.1969 16.9157
" />
<path d="M52.1969 16.9157
L52.1364 16.9762
" />
<path d="M52.1364 16.9762
L52.0760 17.0971
" />
<path d="M52.0760 17.0971
L52.0760 17.1576
" />
<path d="M52.8017 16.7948
L53.2855 16.7948
" />
<path d="M52.9831 17.6414
L52.9831 16.5529
" />
<path d="M52.9831 16.5529
L53.0436 16.4319
" />
<path d="M53.0436 16.4319
L53.1646 16.3714
" />
<path d="M53.1646 16.3714
L53.2855 16.3714
" />
<path d="M53.7088 17.6414
L53.7088 16.7948
" />
<path d="M53.7088 16.3714
L53.6484 16.4319
" />
<path d="M53.6484 16.4319
L53.7088 16.4924
" />
<path d="M53.7088 16.4924
L53.7693 16.4319
" />
<path d="M53.7693 16.4319
L53.7088 16.3714
" />
<path d="M53.7088 16.3714
L53.7088 16.4924
" />
<path d="M54.4951 17.6414
L54.3741 17.5810
" />
<path d="M54.3741 17.5810
L54.3136 17.4600
" />
<path d="M54.3136 17.4600
L54.3136 16.3714
" />
<path d="M55.4626 17.5810
L55.3417 17.6414
" />
<path d="M55.3417 17.6414
L55.0998 17.6414
" />
<path d="M55.0998 17.6414
L54.9788 17.5810
" />
<path d="M54.9788 17.5810
L54.9184 17.4600
" />
<path d="M54.9184 17.4600
L54.9184 16.9762
" />
<path d="M54.9184 16.9762
L54.9788 16.8552
" />
<path d="M54.9788 16.8552
L55.0998 16.7948
" />
<path d="M55.0998 16.7948
L55.3417 16.7948
" />
<path d="M55.3417 16.7948
L55.4626 16.8552
" />
<path d="M55.4626 16.8552
L55.5231 16.9762
" />
<path d="M55.5231 16.9762
L55.5231 17.0971
" />
<path d="M55.5231 17.0971
L54.9184 17.2181
" />
<path d="M56.0674 17.6414
L56.0674 16.3714
" />
<path d="M57.2165 17.6414
L57.2165 16.3714
" />
<path d="M57.2165 17.5810
L57.0956 17.6414
" />
<path d="M57.0956 17.6414
L56.8537 17.6414
" />
<path d="M56.8537 17.6414
L56.7327 17.5810
" />
<path d="M56.7327 17.5810
L56.6722 17.5205
" />
<path d="M56.6722 17.5205
L56.6118 17.3995
" />
<path d="M56.6118 17.3995
L56.6118 17.0367
" />
<path d="M56.6118 17.0367
L56.6722 16.9157
" />
<path d="M56.6722 16.9157
L56.7327 16.8552
" />
<path d="M56.7327 16.8552
L56.8537 16.7948
" />
<path d="M56.8537 16.7948
L57.0956 16.7948
" />
<path d="M57.0956 16.7948
L57.2165 16.8552
" />
<path d="M57.8212 16.9762
L58.7889 16.9762
" />
<path d="M58.7889 17.3390
L57.8212 17.3390
" />
<path d="M59.9984 16.3714
L59.3936 16.3714
" />
<path d="M59.3936 16.3714
L59.3332 16.9762
" />
<path d="M59.3332 16.9762
L59.3936 16.9157
" />
<path d="M59.3936 16.9157
L59.5146 16.8552
" />
<path d="M59.5146 16.8552
L59.8170 16.8552
" />
<path d="M59.8170 16.8552
L59.9379 16.9157
" />
<path d="M59.9379 16.9157
L59.9984 16.9762
" />
<path d="M59.9984 16.9762
L60.0589 17.0971
" />
<path d="M60.0589 17.0971
L60.0589 17.3995
" />
<path d="M60.0589 17.3995
L59.9984 17.5205
" />
<path d="M59.9984 17.5205
L59.9379 17.5810
" />
<path d="M59.9379 17.5810
L59.8170 17.6414
" />
<path d="M59.8170 17.6414
L59.5146 17.6414
" />
<path d="M59.5146 17.6414
L59.3936 17.5810
" />
<path d="M59.3936 17.5810
L59.3332 17.5205
" />
<path d="M61.2079 16.3714
L60.6031 16.3714
" />
<path d="M60.6031 16.3714
L60.5427 16.9762
" />
<path d="M60.5427 16.9762
L60.6031 16.9157
" />
<path d="M60.6031 16.9157
L60.7241 16.8552
" />
<path d="M60.7241 16.8552
L61.0265 16.8552
" />
<path d="M61.0265 16.8552
L61.1474 16.9157
" />
<path d="M61.1474 16.9157
L61.2079 16.9762
" />
<path d="M61.2079 16.9762
L61.2684 17.0971
" />
<path d="M61.2684 17.0971
L61.2684 17.3995
" />
<path d="M61.2684 17.3995
L61.2079 17.5205
" />
<path d="M61.2079 17.5205
L61.1474 17.5810
" />
<path d="M61.1474 17.5810
L61.0265 17.6414
" />
<path d="M61.0265 17.6414
L60.7241 17.6414
" />
<path d="M60.7241 17.6414
L60.6031 17.5810
" />
<path d="M60.6031 17.5810
L60.5427 17.5205
" />
<path d="M62.3569 16.7948
L62.3569 17.6414
" />
<path d="M62.0545 16.3110
L61.7522 17.2181
" />
<path d="M61.7522 17.2181
L62.5383 17.2181
" />
<path d="M63.5664 16.3714
L63.3245 16.3714
" />
<path d="M63.3245 16.3714
L63.2036 16.4319
" />
<path d="M63.2036 16.4319
L63.1431 16.4924
" />
<path d="M63.1431 16.4924
L63.0221 16.6738
" />
<path d="M63.0221 16.6738
L62.9617 16.9157
" />
<path d="M62.9617 16.9157
L62.9617 17.3995
" />
<path d="M62.9617 17.3995
L63.0221 17.5205
" />
<path d="M63.0221 17.5205
L63.0826 17.5810
" />
<path d="M63.0826 17.5810
L63.2036 17.6414
" />
<path d="M63.2036 17.6414
L63.4455 17.6414
" />
<path d="M63.4455 17.6414
L63.5664 17.5810
" />
<path d="M63.5664 17.5810
L63.6269 17.5205
" />
<path d="M63.6269 17.5205
L63.6874 17.3995
" />
<path d="M63.6874 17.3995
L63.6874 17.0971
" />
<path d="M63.6874 17.0971
L63.6269 16.9762
" />
<path d="M63.6269 16.9762
L63.5664 16.9157
" />
<path d="M63.5664 16.9157
L63.4455 16.8552
" />
<path d="M63.4455 16.8552
L63.2036 16.8552
" />
<path d="M63.2036 16.8552
L63.0826 16.9157
" />
<path d="M63.0826 16.9157
L63.0221 16.9762
" />
<path d="M63.0221 16.9762
L62.9617 17.0971
" />
<path d="M64.7759 17.6414
L64.7759 16.3714
" />
<path d="M64.7759 17.5810
L64.6550 17.6414
" />
<path d="M64.6550 17.6414
L64.4131 17.6414
" />
<path d="M64.4131 17.6414
L64.2921 17.5810
" />
<path d="M64.2921 17.5810
L64.2316 17.5205
" />
<path d="M64.2316 17.5205
L64.1712 17.3995
" />
<path d="M64.1712 17.3995
L64.1712 17.0367
" />
<path d="M64.1712 17.0367
L64.2316 16.9157
" />
<path d="M64.2316 16.9157
L64.2921 16.8552
" />
<path d="M64.2921 16.8552
L64.4131 16.7948
" />
<path d="M64.4131 16.7948
L64.6550 16.7948
" />
<path d="M64.6550 16.7948
L64.7759 16.8552
" />
<path d="M65.9249 16.7948
L65.9249 17.6414
" />
<path d="M65.6225 16.3110
L65.3202 17.2181
" />
<path d="M65.3202 17.2181
L66.1063 17.2181
" />
<path d="M67.1344 16.3714
L66.8925 16.3714
" />
<path d="M66.8925 16.3714
L66.7716 16.4319
" />
<path d="M66.7716 16.4319
L66.7111 16.4924
" />
<path d="M66.7111 16.4924
L66.5901 16.6738
" />
<path d="M66.5901 16.6738
L66.5297 16.9157
" />
<path d="M66.5297 16.9157
L66.5297 17.3995
" />
<path d="M66.5297 17.3995
L66.5901 17.5205
" />
<path d="M66.5901 17.5205
L66.6506 17.5810
" />
<path d="M66.6506 17.5810
L66.7716 17.6414
" />
<path d="M66.7716 17.6414
L67.0135 17.6414
" />
<path d="M67.0135 17.6414
L67.1344 17.5810
" />
<path d="M67.1344 17.5810
L67.1949 17.5205
" />
<path d="M67.1949 17.5205
L67.2554 17.3995
" />
<path d="M67.2554 17.3995
L67.2554 17.0971
" />
<path d="M67.2554 17.0971
L67.1949 16.9762
" />
<path d="M67.1949 16.9762
L67.1344 16.9157
" />
<path d="M67.1344 16.9157
L67.0135 16.8552
" />
<path d="M67.0135 16.8552
L66.7716 16.8552
" />
<path d="M66.7716 16.8552
L66.6506 16.9157
" />
<path d="M66.6506 16.9157
L66.5901 16.9762
" />
<path d="M66.5901 16.9762
L66.5297 17.0971
" />
<path d="M67.7392 16.4924
L67.7996 16.4319
" />
<path d="M67.7996 16.4319
L67.9206 16.3714
" />
<path d="M67.9206 16.3714
L68.2230 16.3714
" />
<path d="M68.2230 16.3714
L68.3439 16.4319
" />
<path d="M68.3439 16.4319
L68.4044 16.4924
" />
<path d="M68.4044 16.4924
L68.4649 16.6133
" />
<path d="M68.4649 16.6133
L68.4649 16.7343
" />
<path d="M68.4649 16.7343
L68.4044 16.9157
" />
<path d="M68.4044 16.9157
L67.6787 17.6414
" />
<path d="M67.6787 17.6414
L68.4649 17.6414
" />
<path d="M69.6139 16.3714
L69.0091 16.3714
" />
<path d="M69.0091 16.3714
L68.9487 16.9762
" />
<path d="M68.9487 16.9762
L69.0091 16.9157
" />
<path d="M69.0091 16.9157
L69.1301 16.8552
" />
<path d="M69.1301 16.8552
L69.4325 16.8552
" />
<path d="M69.4325 16.8552
L69.5534 16.9157
" />
<path d="M69.5534 16.9157
L69.6139 16.9762
" />
<path d="M69.6139 16.9762
L69.6744 17.0971
" />
<path d="M69.6744 17.0971
L69.6744 17.3995
" />
<path d="M69.6744 17.3995
L69.6139 17.5205
" />
<path d="M69.6139 17.5205
L69.5534 17.5810
" />
<path d="M69.5534 17.5810
L69.4325 17.6414
" />
<path d="M69.4325 17.6414
L69.1301 17.6414
" />
<path d="M69.1301 17.6414
L69.0091 17.5810
" />
<path d="M69.0091 17.5810
L68.9487 17.5205
" />
<path d="M70.0977 16.3714
L70.8839 16.3714
" />
<path d="M70.8839 16.3714
L70.4605 16.8552
" />
<path d="M70.4605 16.8552
L70.6420 16.8552
" />
<path d="M70.6420 16.8552
L70.7629 16.9157
" />
<path d="M70.7629 16.9157
L70.8234 16.9762
" />
<path d="M70.8234 16.9762
L70.8839 17.0971
" />
<path d="M70.8839 17.0971
L70.8839 17.3995
" />
<path d="M70.8839 17.3995
L70.8234 17.5205
" />
<path d="M70.8234 17.5205
L70.7629 17.5810
" />
<path d="M70.7629 17.5810
L70.6420 17.6414
" />
<path d="M70.6420 17.6414
L70.2791 17.6414
" />
<path d="M70.2791 17.6414
L70.1582 17.5810
" />
<path d="M70.1582 17.5810
L70.0977 17.5205
" />
<path d="M71.3072 16.3714
L72.0934 16.3714
" />
<path d="M72.0934 16.3714
L71.6700 16.8552
" />
<path d="M71.6700 16.8552
L71.8515 16.8552
" />
<path d="M71.8515 16.8552
L71.9724 16.9157
" />
<path d="M71.9724 16.9157
L72.0329 16.9762
" />
<path d="M72.0329 16.9762
L72.0934 17.0971
" />
<path d="M72.0934 17.0971
L72.0934 17.3995
" />
<path d="M72.0934 17.3995
L72.0329 17.5205
" />
<path d="M72.0329 17.5205
L71.9724 17.5810
" />
<path d="M71.9724 17.5810
L71.8515 17.6414
" />
<path d="M71.8515 17.6414
L71.4886 17.6414
" />
<path d="M71.4886 17.6414
L71.3677 17.5810
" />
<path d="M71.3677 17.5810
L71.3072 17.5205
" />
<path d="M73.1819 16.3714
L72.9400 16.3714
" />
<path d="M72.9400 16.3714
L72.8191 16.4319
" />
<path d="M72.8191 16.4319
L72.7586 16.4924
" />
<path d="M72.7586 16.4924
L72.6376 16.6738
" />
<path d="M72.6376 16.6738
L72.5772 16.9157
" />
<path d="M72.5772 16.9157
L72.5772 17.3995
" />
<path d="M72.5772 17.3995
L72.6376 17.5205
" />
<path d="M72.6376 17.5205
L72.6981 17.5810
" />
<path d="M72.6981 17.5810
L72.8191 17.6414
" />
<path d="M72.8191 17.6414
L73.0610 17.6414
" />
<path d="M73.0610 17.6414
L73.1819 17.5810
" />
<path d="M73.1819 17.5810
L73.2424 17.5205
" />
<path d="M73.2424 17.5205
L73.3029 17.3995
" />
<path d="M73.3029 17.3995
L73.3029 17.0971
" />
<path d="M73.3029 17.0971
L73.2424 16.9762
" />
<path d="M73.2424 16.9762
L73.1819 16.9157
" />
<path d="M73.1819 16.9157
L73.0610 16.8552
" />
<path d="M73.0610 16.8552
L72.8191 16.8552
" />
<path d="M72.8191 16.8552
L72.6981 16.9157
" />
<path d="M72.6981 16.9157
L72.6376 16.9762
" />
<path d="M72.6376 16.9762
L72.5772 17.0971
" />
<path d="M74.0890 16.3714
L74.2100 16.3714
" />
<path d="M74.2100 16.3714
L74.3309 16.4319
" />
<path d="M74.3309 16.4319
L74.3914 16.4924
" />
<path d="M74.3914 16.4924
L74.4519 16.6133
" />
<path d="M74.4519 16.6133
L74.5124 16.8552
" />
<path d="M74.5124 16.8552
L74.5124 17.1576
" />
<path d="M74.5124 17.1576
L74.4519 17.3995
" />
<path d="M74.4519 17.3995
L74.3914 17.5205
" />
<path d="M74.3914 17.5205
L74.3309 17.5810
" />
<path d="M74.3309 17.5810
L74.2100 17.6414
" />
<path d="M74.2100 17.6414
L74.0890 17.6414
" />
<path d="M74.0890 17.6414
L73.9681 17.5810
" />
<path d="M73.9681 17.5810
L73.9076 17.5205
" />
<path d="M73.9076 17.5205
L73.8471 17.3995
" />
<path d="M73.8471 17.3995
L73.7867 17.1576
" />
<path d="M73.7867 17.1576
L73.7867 16.8552
" />
<path d="M73.7867 16.8552
L73.8471 16.6133
" />
<path d="M73.8471 16.6133
L73.9076 16.4924
" />
<path d="M73.9076 16.4924
L73.9681 16.4319
" />
<path d="M73.9681 16.4319
L74.0890 16.3714
" />
<path d="M75.2985 16.3714
L75.4195 16.3714
" />
<path d="M75.4195 16.3714
L75.5404 16.4319
" />
<path d="M75.5404 16.4319
L75.6009 16.4924
" />
<path d="M75.6009 16.4924
L75.6614 16.6133
" />
<path d="M75.6614 16.6133
L75.7219 16.8552
" />
<path d="M75.7219 16.8552
L75.7219 17.1576
" />
<path d="M75.7219 17.1576
L75.6614 17.3995
" />
<path d="M75.6614 17.3995
L75.6009 17.5205
" />
<path d="M75.6009 17.5205
L75.5404 17.5810
" />
<path d="M75.5404 17.5810
L75.4195 17.6414
" />
<path d="M75.4195 17.6414
L75.2985 17.6414
" />
<path d="M75.2985 17.6414
L75.1776 17.5810
" />
<path d="M75.1776 17.5810
L75.1171 17.5205
" />
<path d="M75.1171 17.5205
L75.0566 17.3995
" />
<path d="M75.0566 17.3995
L74.9962 17.1576
" />
<path d="M74.9962 17.1576
L74.9962 16.8552
" />
<path d="M74.9962 16.8552
L75.0566 16.6133
" />
<path d="M75.0566 16.6133
L75.1171 16.4924
" />
<path d="M75.1171 16.4924
L75.1776 16.4319
" />
<path d="M75.1776 16.4319
L75.2985 16.3714
" />
<path d="M76.8104 17.6414
L76.8104 16.9762
" />
<path d="M76.8104 16.9762
L76.7499 16.8552
" />
<path d="M76.7499 16.8552
L76.6290 16.7948
" />
<path d="M76.6290 16.7948
L76.3871 16.7948
" />
<path d="M76.3871 16.7948
L76.2661 16.8552
" />
<path d="M76.8104 17.5810
L76.6895 17.6414
" />
<path d="M76.6895 17.6414
L76.3871 17.6414
" />
<path d="M76.3871 17.6414
L76.2661 17.5810
" />
<path d="M76.2661 17.5810
L76.2057 17.4600
" />
<path d="M76.2057 17.4600
L76.2057 17.3390
" />
<path d="M76.2057 17.3390
L76.2661 17.2181
" />
<path d="M76.2661 17.2181
L76.3871 17.1576
" />
<path d="M76.3871 17.1576
L76.6895 17.1576
" />
<path d="M76.6895 17.1576
L76.8104 17.0971
" />
<path d="M77.9594 16.7948
L77.9594 17.6414
" />
<path d="M77.6570 16.3110
L77.3547 17.2181
" />
<path d="M77.3547 17.2181
L78.1408 17.2181
" />
<path d="M78.8665 16.3714
L78.9875 16.3714
" />
<path d="M78.9875 16.3714
L79.1084 16.4319
" />
<path d="M79.1084 16.4319
L79.1689 16.4924
" />
<path d="M79.1689 16.4924
L79.2294 16.6133
" />
<path d="M79.2294 16.6133
L79.2899 16.8552
" />
<path d="M79.2899 16.8552
L79.2899 17.1576
" />
<path d="M79.2899 17.1576
L79.2294 17.3995
" />
<path d="M79.2294 17.3995
L79.1689 17.5205
" />
<path d="M79.1689 17.5205
L79.1084 17.5810
" />
<path d="M79.1084 17.5810
L78.9875 17.6414
" />
<path d="M78.9875 17.6414
L78.8665 17.6414
" />
<path d="M78.8665 17.6414
L78.7456 17.5810
" />
<path d="M78.7456 17.5810
L78.6851 17.5205
" />
<path d="M78.6851 17.5205
L78.6246 17.3995
" />
<path d="M78.6246 17.3995
L78.5642 17.1576
" />
<path d="M78.5642 17.1576
L78.5642 16.8552
" />
<path d="M78.5642 16.8552
L78.6246 16.6133
" />
<path d="M78.6246 16.6133
L78.6851 16.4924
" />
<path d="M78.6851 16.4924
L78.7456 16.4319
" />
<path d="M78.7456 16.4319
L78.8665 16.3714
" />
<path d="M80.4994 17.6414
L79.7737 17.6414
" />
<path d="M80.1365 17.6414
L80.1365 16.3714
" />
<path d="M80.1365 16.3714
L80.0156 16.5529
" />
<path d="M80.0156 16.5529
L79.8946 16.6738
" />
<path d="M79.8946 16.6738
L79.7737 16.7343
" />
<path d="M81.6484 16.3714
L81.0436 16.3714
" />
<path d="M81.0436 16.3714
L80.9832 16.9762
" />
<path d="M80.9832 16.9762
L81.0436 16.9157
" />
<path d="M81.0436 16.9157
L81.1646 16.8552
" />
<path d="M81.1646 16.8552
L81.4670 16.8552
" />
<path d="M81.4670 16.8552
L81.5879 16.9157
" />
<path d="M81.5879 16.9157
L81.6484 16.9762
" />
<path d="M81.6484 16.9762
L81.7089 17.0971
" />
<path d="M81.7089 17.0971
L81.7089 17.3995
" />
<path d="M81.7089 17.3995
L81.6484 17.5205
" />
<path d="M81.6484 17.5205
L81.5879 17.5810
" />
<path d="M81.5879 17.5810
L81.4670 17.6414
" />
<path d="M81.4670 17.6414
L81.1646 17.6414
" />
<path d="M81.1646 17.6414
L81.0436 17.5810
" />
<path d="M81.0436 17.5810
L80.9832 17.5205
" />
<path d="M82.1322 16.3714
L82.9184 16.3714
" />
<path d="M82.9184 16.3714
L82.4950 16.8552
" />
<path d="M82.4950 16.8552
L82.6765 16.8552
" />
<path d="M82.6765 16.8552
L82.7974 16.9157
" />
<path d="M82.7974 16.9157
L82.8579 16.9762
" />
<path d="M82.8579 16.9762
L82.9184 17.0971
" />
<path d="M82.9184 17.0971
L82.9184 17.3995
" />
<path d="M82.9184 17.3995
L82.8579 17.5205
" />
<path d="M82.8579 17.5205
L82.7974 17.5810
" />
<path d="M82.7974 17.5810
L82.6765 17.6414
" />
<path d="M82.6765 17.6414
L82.3136 17.6414
" />
<path d="M82.3136 17.6414
L82.1927 17.5810
" />
<path d="M82.1927 17.5810
L82.1322 17.5205
" />
<path d="M84.0674 16.3714
L83.4626 16.3714
" />
<path d="M83.4626 16.3714
L83.4022 16.9762
" />
<path d="M83.4022 16.9762
L83.4626 16.9157
" />
<path d="M83.4626 16.9157
L83.5836 16.8552
" />
<path d="M83.5836 16.8552
L83.8860 16.8552
" />
<path d="M83.8860 16.8552
L84.0069 16.9157
" />
<path d="M84.0069 16.9157
L84.0674 16.9762
" />
<path d="M84.0674 16.9762
L84.1279 17.0971
" />
<path d="M84.1279 17.0971
L84.1279 17.3995
" />
<path d="M84.1279 17.3995
L84.0674 17.5205
" />
<path d="M84.0674 17.5205
L84.0069 17.5810
" />
<path d="M84.0069 17.5810
L83.8860 17.6414
" />
<path d="M83.8860 17.6414
L83.5836 17.6414
" />
<path d="M83.5836 17.6414
L83.4626 17.5810
" />
<path d="M83.4626 17.5810
L83.4022 17.5205
" />
<path d="M85.2769 16.3714
L84.6721 16.3714
" />
<path d="M84.6721 16.3714
L84.6117 16.9762
" />
<path d="M84.6117 16.9762
L84.6721 16.9157
" />
<path d="M84.6721 16.9157
L84.7931 16.8552
" />
<path d="M84.7931 16.8552
L85.0955 16.8552
" />
<path d="M85.0955 16.8552
L85.2164 16.9157
" />
<path d="M85.2164 16.9157
L85.2769 16.9762
" />
<path d="M85.2769 16.9762
L85.3374 17.0971
" />
<path d="M85.3374 17.0971
L85.3374 17.3995
" />
<path d="M85.3374 17.3995
L85.2769 17.5205
" />
<path d="M85.2769 17.5205
L85.2164 17.5810
" />
<path d="M85.2164 17.5810
L85.0955 17.6414
" />
<path d="M85.0955 17.6414
L84.7931 17.6414
" />
<path d="M84.7931 17.6414
L84.6721 17.5810
" />
<path d="M84.6721 17.5810
L84.6117 17.5205
" />
<path d="M86.4259 17.5810
L86.3050 17.6414
" />
<path d="M86.3050 17.6414
L86.0631 17.6414
" />
<path d="M86.0631 17.6414
L85.9421 17.5810
" />
<path d="M85.9421 17.5810
L85.8816 17.5205
" />
<path d="M85.8816 17.5205
L85.8212 17.3995
" />
<path d="M85.8212 17.3995
L85.8212 17.0367
" />
<path d="M85.8212 17.0367
L85.8816 16.9157
" />
<path d="M85.8816 16.9157
L85.9421 16.8552
" />
<path d="M85.9421 16.8552
L86.0631 16.7948
" />
<path d="M86.0631 16.7948
L86.3050 16.7948
" />
<path d="M86.3050 16.7948
L86.4259 16.8552
" />
<path d="M87.0307 17.6414
L87.2726 17.6414
" />
<path d="M87.2726 17.6414
L87.3936 17.5810
" />
<path d="M87.3936 17.5810
L87.4540 17.5205
" />
<path d="M87.4540 17.5205
L87.5750 17.3390
" />
<path d="M87.5750 17.3390
L87.6355 17.0971
" />
<path d="M87.6355 17.0971
L87.6355 16.6133
" />
<path d="M87.6355 16.6133
L87.5750 16.4924
" />
<path d="M87.5750 16.4924
L87.5145 16.4319
" />
<path d="M87.5145 16.4319
L87.3936 16.3714
" />
<path d="M87.3936 16.3714
L87.1517 16.3714
" />
<path d="M87.1517 16.3714
L87.0307 16.4319
" />
<path d="M87.0307 16.4319
L86.9702 16.4924
" />
<path d="M86.9702 16.4924
L86.9098 16.6133
" />
<path d="M86.9098 16.6133
L86.9098 16.9157
" />
<path d="M86.9098 16.9157
L86.9702 17.0367
" />
<path d="M86.9702 17.0367
L87.0307 17.0971
" />
<path d="M87.0307 17.0971
L87.1517 17.1576
" />
<path d="M87.1517 17.1576
L87.3936 17.1576
" />
<path d="M87.3936 17.1576
L87.5145 17.0971
" />
<path d="M87.5145 17.0971
L87.5750 17.0367
" />
<path d="M87.5750 17.0367
L87.6355 16.9157
" />
<path d="M88.7240 17.6414
L88.7240 16.3714
" />
<path d="M88.7240 17.5810
L88.6031 17.6414
" />
<path d="M88.6031 17.6414
L88.3612 17.6414
" />
<path d="M88.3612 17.6414
L88.2402 17.5810
" />
<path d="M88.2402 17.5810
L88.1797 17.5205
" />
<path d="M88.1797 17.5205
L88.1193 17.3995
" />
<path d="M88.1193 17.3995
L88.1193 17.0367
" />
<path d="M88.1193 17.0367
L88.1797 16.9157
" />
<path d="M88.1797 16.9157
L88.2402 16.8552
" />
<path d="M88.2402 16.8552
L88.3612 16.7948
" />
<path d="M88.3612 16.7948
L88.6031 16.7948
" />
<path d="M88.6031 16.7948
L88.7240 16.8552
" />
<path d="M89.8730 16.3714
L89.6311 16.3714
" />
<path d="M89.6311 16.3714
L89.5102 16.4319
" />
<path d="M89.5102 16.4319
L89.4497 16.4924
" />
<path d="M89.4497 16.4924
L89.3287 16.6738
" />
<path d="M89.3287 16.6738
L89.2683 16.9157
" />
<path d="M89.2683 16.9157
L89.2683 17.3995
" />
<path d="M89.2683 17.3995
L89.3287 17.5205
" />
<path d="M89.3287 17.5205
L89.3892 17.5810
" />
<path d="M89.3892 17.5810
L89.5102 17.6414
" />
<path d="M89.5102 17.6414
L89.7521 17.6414
" />
<path d="M89.7521 17.6414
L89.8730 17.5810
" />
<path d="M89.8730 17.5810
L89.9335 17.5205
" />
<path d="M89.9335 17.5205
L89.9940 17.3995
" />
<path d="M89.9940 17.3995
L89.9940 17.0971
" />
<path d="M89.9940 17.0971
L89.9335 16.9762
" />
<path d="M89.9335 16.9762
L89.8730 16.9157
" />
<path d="M89.8730 16.9157
L89.7521 16.8552
" />
<path d="M89.7521 16.8552
L89.5102 16.8552
" />
<path d="M89.5102 16.8552
L89.3892 16.9157
" />
<path d="M89.3892 16.9157
L89.3287 16.9762
" />
<path d="M89.3287 16.9762
L89.2683 17.0971
" />
<path d="M91.0825 17.5810
L90.9616 17.6414
" />
<path d="M90.9616 17.6414
L90.7197 17.6414
" />
<path d="M90.7197 17.6414
L90.5987 17.5810
" />
<path d="M90.5987 17.5810
L90.5382 17.5205
" />
<path d="M90.5382 17.5205
L90.4778 17.3995
" />
<path d="M90.4778 17.3995
L90.4778 17.0367
" />
<path d="M90.4778 17.0367
L90.5382 16.9157
" />
<path d="M90.5382 16.9157
L90.5987 16.8552
" />
<path d="M90.5987 16.8552
L90.7197 16.7948
" />
<path d="M90.7197 16.7948
L90.9616 16.7948
" />
<path d="M90.9616 16.7948
L91.0825 16.8552
" />
<path d="M91.5664 16.4924
L91.6268 16.4319
" />
<path d="M91.6268 16.4319
L91.7478 16.3714
" />
<path d="M91.7478 16.3714
L92.0502 16.3714
" />
<path d="M92.0502 16.3714
L92.1711 16.4319
" />
<path d="M92.1711 16.4319
L92.2316 16.4924
" />
<path d="M92.2316 16.4924
L92.2921 16.6133
" />
<path d="M92.2921 16.6133
L92.2921 16.7343
" />
<path d="M92.2921 16.7343
L92.2316 16.9157
" />
<path d="M92.2316 16.9157
L91.5059 17.6414
" />
<path d="M91.5059 17.6414
L92.2921 17.6414
" />
<path d="M93.5016 17.6414
L92.7759 17.6414
" />
<path d="M93.1387 17.6414
L93.1387 16.3714
" />
<path d="M93.1387 16.3714
L93.0178 16.5529
" />
<path d="M93.0178 16.5529
L92.8968 16.6738
" />
<path d="M92.8968 16.6738
L92.7759 16.7343
" />
<path d="M94.5901 16.3714
L94.3482 16.3714
" />
<path d="M94.3482 16.3714
L94.2273 16.4319
" />
<path d="M94.2273 16.4319
L94.1668 16.4924
" />
<path d="M94.1668 16.4924
L94.0458 16.6738
" />
<path d="M94.0458 16.6738
L93.9854 16.9157
" />
<path d="M93.9854 16.9157
L93.9854 17.3995
" />
<path d="M93.9854 17.3995
L94.0458 17.5205
" />
<path d="M94.0458 17.5205
L94.1063 17.5810
" />
<path d="M94.1063 17.5810
L94.2273 17.6414
" />
<path d="M94.2273 17.6414
L94.4692 17.6414
" />
<path d="M94.4692 17.6414
L94.5901 17.5810
" />
<path d="M94.5901 17.5810
L94.6506 17.5205
" />
<path d="M94.6506 17.5205
L94.7111 17.3995
" />
<path d="M94.7111 17.3995
L94.7111 17.0971
" />
<path d="M94.7111 17.0971
L94.6506 16.9762
" />
<path d="M94.6506 16.9762
L94.5901 16.9157
" />
<path d="M94.5901 16.9157
L94.4692 16.8552
" />
<path d="M94.4692 16.8552
L94.2273 16.8552
" />
<path d="M94.2273 16.8552
L94.1063 16.9157
" />
<path d="M94.1063 16.9157
L94.0458 16.9762
" />
<path d="M94.0458 16.9762
L93.9854 17.0971
" />
<path d="M95.7391 17.5810
L95.6182 17.6414
" />
<path d="M95.6182 17.6414
L95.3763 17.6414
" />
<path d="M95.3763 17.6414
L95.2553 17.5810
" />
<path d="M95.2553 17.5810
L95.1949 17.4600
" />
<path d="M95.1949 17.4600
L95.1949 16.9762
" />
<path d="M95.1949 16.9762
L95.2553 16.8552
" />
<path d="M95.2553 16.8552
L95.3763 16.7948
" />
<path d="M95.3763 16.7948
L95.6182 16.7948
" />
<path d="M95.6182 16.7948
L95.7391 16.8552
" />
<path d="M95.7391 16.8552
L95.7996 16.9762
" />
<path d="M95.7996 16.9762
L95.7996 17.0971
" />
<path d="M95.7996 17.0971
L95.1949 17.2181
" />
<path d="M96.3439 17.6414
L96.3439 16.3714
" />
<path d="M96.3439 16.8552
L96.4649 16.7948
" />
<path d="M96.4649 16.7948
L96.7068 16.7948
" />
<path d="M96.7068 16.7948
L96.8277 16.8552
" />
<path d="M96.8277 16.8552
L96.8882 16.9157
" />
<path d="M96.8882 16.9157
L96.9487 17.0367
" />
<path d="M96.9487 17.0367
L96.9487 17.3995
" />
<path d="M96.9487 17.3995
L96.8882 17.5205
" />
<path d="M96.8882 17.5205
L96.8277 17.5810
" />
<path d="M96.8277 17.5810
L96.7068 17.6414
" />
<path d="M96.7068 17.6414
L96.4649 17.6414
" />
<path d="M96.4649 17.6414
L96.3439 17.5810
" />
</g></g> 
</svg>
