<?xml version="1.0" standalone="no"?>
 <!DOCTYPE svg PUBLIC "-//W3C//DTD SVG 1.1//EN" 
 "http://www.w3.org/Graphics/SVG/1.1/DTD/svg11.dtd"> 
<svg
  xmlns:svg="http://www.w3.org/2000/svg"
  xmlns="http://www.w3.org/2000/svg"
  xmlns:xlink="http://www.w3.org/1999/xlink"
  version="1.1"
  width="22.7330mm" height="72.1106mm" viewBox="0.0000 0.0000 22.7330 72.1106">
<title>SVG Image created as working.svg date 2023/08/01 15:01:17 </title>
  <desc>Image generated by Eeschema-SVG </desc>
<g style="fill:#000000; fill-opacity:1.0000;stroke:#000000; stroke-opacity:1.0000;
stroke-linecap:round; stroke-linejoin:round;"
 transform="translate(0 0) scale(1 1)">
</g>
<g style="fill:#840000; fill-opacity:0.0; 
stroke:#840000; stroke-width:0.0000; stroke-opacity:1; 
stroke-linecap:round; stroke-linejoin:round;">
</g>
<g style="fill:#840084; fill-opacity:0.0; 
stroke:#840084; stroke-width:0.0000; stroke-opacity:1; 
stroke-linecap:round; stroke-linejoin:round;">
</g>
<g style="fill:#840000; fill-opacity:0.0; 
stroke:#840000; stroke-width:0.0000; stroke-opacity:1; 
stroke-linecap:round; stroke-linejoin:round;">
</g>
<g style="fill:#840000; fill-opacity:0.0; 
stroke:#840000; stroke-width:0.1524; stroke-opacity:1; 
stroke-linecap:round; stroke-linejoin:round;">
<path d="M11.3704 62.2142 A0.5080 0.5080 0.0 0 0 11.3704 63.2302" />
<path d="M11.3704 59.6742 A0.5080 0.5080 0.0 0 0 11.3704 60.6902" />
<path d="M11.3704 57.1342 A0.5080 0.5080 0.0 0 0 11.3704 58.1502" />
<path d="M11.3704 54.5942 A0.5080 0.5080 0.0 0 0 11.3704 55.6102" />
<path d="M11.3704 52.0542 A0.5080 0.5080 0.0 0 0 11.3704 53.0702" />
<path d="M11.3704 49.5142 A0.5080 0.5080 0.0 0 0 11.3704 50.5302" />
<path d="M11.3704 46.9742 A0.5080 0.5080 0.0 0 0 11.3704 47.9902" />
<path d="M11.3704 44.4342 A0.5080 0.5080 0.0 0 0 11.3704 45.4502" />
<path d="M11.3704 41.8942 A0.5080 0.5080 0.0 0 0 11.3704 42.9102" />
<path d="M11.3704 39.3542 A0.5080 0.5080 0.0 0 0 11.3704 40.3702" />
<path d="M11.3704 36.8142 A0.5080 0.5080 0.0 0 0 11.3704 37.8302" />
<path style="fill:#840000; fill-opacity:0.0; 
stroke:#840000; stroke-width:0.1524; stroke-opacity:1; 
stroke-linecap:round; stroke-linejoin:round;fill:none"
d="M 10.1004,62.7222
10.8624,62.7222
" /> 
<path style="fill:#840000; fill-opacity:0.0; 
stroke:#840000; stroke-width:0.1524; stroke-opacity:1; 
stroke-linecap:round; stroke-linejoin:round;fill:none"
d="M 10.1004,60.1822
10.8624,60.1822
" /> 
<path style="fill:#840000; fill-opacity:0.0; 
stroke:#840000; stroke-width:0.1524; stroke-opacity:1; 
stroke-linecap:round; stroke-linejoin:round;fill:none"
d="M 10.1004,57.6422
10.8624,57.6422
" /> 
<path style="fill:#840000; fill-opacity:0.0; 
stroke:#840000; stroke-width:0.1524; stroke-opacity:1; 
stroke-linecap:round; stroke-linejoin:round;fill:none"
d="M 10.1004,55.1022
10.8624,55.1022
" /> 
<path style="fill:#840000; fill-opacity:0.0; 
stroke:#840000; stroke-width:0.1524; stroke-opacity:1; 
stroke-linecap:round; stroke-linejoin:round;fill:none"
d="M 10.1004,52.5622
10.8624,52.5622
" /> 
<path style="fill:#840000; fill-opacity:0.0; 
stroke:#840000; stroke-width:0.1524; stroke-opacity:1; 
stroke-linecap:round; stroke-linejoin:round;fill:none"
d="M 10.1004,50.0222
10.8624,50.0222
" /> 
<path style="fill:#840000; fill-opacity:0.0; 
stroke:#840000; stroke-width:0.1524; stroke-opacity:1; 
stroke-linecap:round; stroke-linejoin:round;fill:none"
d="M 10.1004,47.4822
10.8624,47.4822
" /> 
<path style="fill:#840000; fill-opacity:0.0; 
stroke:#840000; stroke-width:0.1524; stroke-opacity:1; 
stroke-linecap:round; stroke-linejoin:round;fill:none"
d="M 10.1004,44.9422
10.8624,44.9422
" /> 
<path style="fill:#840000; fill-opacity:0.0; 
stroke:#840000; stroke-width:0.1524; stroke-opacity:1; 
stroke-linecap:round; stroke-linejoin:round;fill:none"
d="M 10.1004,42.4022
10.8624,42.4022
" /> 
<path style="fill:#840000; fill-opacity:0.0; 
stroke:#840000; stroke-width:0.1524; stroke-opacity:1; 
stroke-linecap:round; stroke-linejoin:round;fill:none"
d="M 10.1004,39.8622
10.8624,39.8622
" /> 
<path style="fill:#840000; fill-opacity:0.0; 
stroke:#840000; stroke-width:0.1524; stroke-opacity:1; 
stroke-linecap:round; stroke-linejoin:round;fill:none"
d="M 10.1004,37.3222
10.8624,37.3222
" /> 
<path style="fill:#840000; fill-opacity:0.0; 
stroke:#840000; stroke-width:0.1524; stroke-opacity:1; 
stroke-linecap:round; stroke-linejoin:round;fill:none"
d="M 10.1004,34.7822
10.8624,34.7822
" /> 
<path style="fill:#840000; fill-opacity:0.0; 
stroke:#840000; stroke-width:0.1524; stroke-opacity:1; 
stroke-linecap:round; stroke-linejoin:round;fill:none"
d="M 10.1004,32.2422
10.8624,32.2422
" /> 
<path style="fill:#840000; fill-opacity:0.0; 
stroke:#840000; stroke-width:0.1524; stroke-opacity:1; 
stroke-linecap:round; stroke-linejoin:round;fill:none"
d="M 10.1004,29.7022
10.8624,29.7022
" /> 
<path style="fill:#840000; fill-opacity:0.0; 
stroke:#840000; stroke-width:0.1524; stroke-opacity:1; 
stroke-linecap:round; stroke-linejoin:round;fill:none"
d="M 10.1004,27.1622
10.8624,27.1622
" /> 
<path style="fill:#840000; fill-opacity:0.0; 
stroke:#840000; stroke-width:0.1524; stroke-opacity:1; 
stroke-linecap:round; stroke-linejoin:round;fill:none"
d="M 10.1004,24.6222
10.8624,24.6222
" /> 
<path style="fill:#840000; fill-opacity:0.0; 
stroke:#840000; stroke-width:0.1524; stroke-opacity:1; 
stroke-linecap:round; stroke-linejoin:round;fill:none"
d="M 10.1004,22.0822
10.8624,22.0822
" /> 
<path style="fill:#840000; fill-opacity:0.0; 
stroke:#840000; stroke-width:0.1524; stroke-opacity:1; 
stroke-linecap:round; stroke-linejoin:round;fill:none"
d="M 10.1004,19.5422
10.8624,19.5422
" /> 
<path style="fill:#840000; fill-opacity:0.0; 
stroke:#840000; stroke-width:0.1524; stroke-opacity:1; 
stroke-linecap:round; stroke-linejoin:round;fill:none"
d="M 10.1004,17.0022
10.8624,17.0022
" /> 
<path style="fill:#840000; fill-opacity:0.0; 
stroke:#840000; stroke-width:0.1524; stroke-opacity:1; 
stroke-linecap:round; stroke-linejoin:round;fill:none"
d="M 10.1004,14.4622
10.8624,14.4622
" /> 
<path style="fill:#840000; fill-opacity:0.0; 
stroke:#840000; stroke-width:0.1524; stroke-opacity:1; 
stroke-linecap:round; stroke-linejoin:round;fill:none"
d="M 10.1004,11.9222
10.8624,11.9222
" /> 
<path style="fill:#840000; fill-opacity:0.0; 
stroke:#840000; stroke-width:0.1524; stroke-opacity:1; 
stroke-linecap:round; stroke-linejoin:round;fill:none"
d="M 10.1004,9.3822
10.8624,9.3822
" /> 
<path d="M11.3704 34.2742 A0.5080 0.5080 0.0 0 0 11.3704 35.2902" />
<path d="M11.3704 31.7342 A0.5080 0.5080 0.0 0 0 11.3704 32.7502" />
<path d="M11.3704 29.1942 A0.5080 0.5080 0.0 0 0 11.3704 30.2102" />
<path d="M11.3704 26.6542 A0.5080 0.5080 0.0 0 0 11.3704 27.6702" />
<path d="M11.3704 24.1142 A0.5080 0.5080 0.0 0 0 11.3704 25.1302" />
<path d="M11.3704 21.5742 A0.5080 0.5080 0.0 0 0 11.3704 22.5902" />
<path d="M11.3704 19.0342 A0.5080 0.5080 0.0 0 0 11.3704 20.0502" />
<path d="M11.3704 16.4942 A0.5080 0.5080 0.0 0 0 11.3704 17.5102" />
<path d="M11.3704 13.9542 A0.5080 0.5080 0.0 0 0 11.3704 14.9702" />
<path d="M11.3704 11.4142 A0.5080 0.5080 0.0 0 0 11.3704 12.4302" />
<path d="M11.3704 8.8742 A0.5080 0.5080 0.0 0 0 11.3704 9.8902" />
<path d="M10.1004 9.3822
L6.2904 9.3822
" />
</g>
<g style="fill:#A90000; fill-opacity:0.0; 
stroke:#A90000; stroke-width:0.1524; stroke-opacity:1; 
stroke-linecap:round; stroke-linejoin:round;">
<text x="8.1954" y="9.1282"
textLength="1.3365" font-size="1.6933" lengthAdjust="spacingAndGlyphs"
text-anchor="middle" opacity="0">1</text>
<g class="stroked-text"><desc>1</desc>
<path d="M8.5583 8.9727
L7.8326 8.9727
" />
<path d="M8.1954 8.9727
L8.1954 7.7027
" />
<path d="M8.1954 7.7027
L8.0745 7.8842
" />
<path d="M8.0745 7.8842
L7.9535 8.0051
" />
<path d="M7.9535 8.0051
L7.8326 8.0656
" />
</g></g>
<g style="fill:#840000; fill-opacity:0.0; 
stroke:#840000; stroke-width:0.1524; stroke-opacity:1; 
stroke-linecap:round; stroke-linejoin:round;">
<path d="M10.1004 32.2422
L6.2904 32.2422
" />
</g>
<g style="fill:#A90000; fill-opacity:0.0; 
stroke:#A90000; stroke-width:0.1524; stroke-opacity:1; 
stroke-linecap:round; stroke-linejoin:round;">
<text x="8.1954" y="31.9882"
textLength="2.5460" font-size="1.6933" lengthAdjust="spacingAndGlyphs"
text-anchor="middle" opacity="0">10</text>
<g class="stroked-text"><desc>10</desc>
<path d="M7.9535 31.8327
L7.2278 31.8327
" />
<path d="M7.5906 31.8327
L7.5906 30.5627
" />
<path d="M7.5906 30.5627
L7.4697 30.7442
" />
<path d="M7.4697 30.7442
L7.3487 30.8651
" />
<path d="M7.3487 30.8651
L7.2278 30.9256
" />
<path d="M8.7396 30.5627
L8.8606 30.5627
" />
<path d="M8.8606 30.5627
L8.9815 30.6232
" />
<path d="M8.9815 30.6232
L9.0420 30.6837
" />
<path d="M9.0420 30.6837
L9.1025 30.8046
" />
<path d="M9.1025 30.8046
L9.1630 31.0465
" />
<path d="M9.1630 31.0465
L9.1630 31.3489
" />
<path d="M9.1630 31.3489
L9.1025 31.5908
" />
<path d="M9.1025 31.5908
L9.0420 31.7118
" />
<path d="M9.0420 31.7118
L8.9815 31.7723
" />
<path d="M8.9815 31.7723
L8.8606 31.8327
" />
<path d="M8.8606 31.8327
L8.7396 31.8327
" />
<path d="M8.7396 31.8327
L8.6187 31.7723
" />
<path d="M8.6187 31.7723
L8.5582 31.7118
" />
<path d="M8.5582 31.7118
L8.4977 31.5908
" />
<path d="M8.4977 31.5908
L8.4373 31.3489
" />
<path d="M8.4373 31.3489
L8.4373 31.0465
" />
<path d="M8.4373 31.0465
L8.4977 30.8046
" />
<path d="M8.4977 30.8046
L8.5582 30.6837
" />
<path d="M8.5582 30.6837
L8.6187 30.6232
" />
<path d="M8.6187 30.6232
L8.7396 30.5627
" />
</g></g>
<g style="fill:#840000; fill-opacity:0.0; 
stroke:#840000; stroke-width:0.1524; stroke-opacity:1; 
stroke-linecap:round; stroke-linejoin:round;">
<path d="M10.1004 34.7822
L6.2904 34.7822
" />
</g>
<g style="fill:#A90000; fill-opacity:0.0; 
stroke:#A90000; stroke-width:0.1524; stroke-opacity:1; 
stroke-linecap:round; stroke-linejoin:round;">
<text x="8.1954" y="34.5282"
textLength="2.5460" font-size="1.6933" lengthAdjust="spacingAndGlyphs"
text-anchor="middle" opacity="0">11</text>
<g class="stroked-text"><desc>11</desc>
<path d="M7.9535 34.3727
L7.2278 34.3727
" />
<path d="M7.5906 34.3727
L7.5906 33.1027
" />
<path d="M7.5906 33.1027
L7.4697 33.2842
" />
<path d="M7.4697 33.2842
L7.3487 33.4051
" />
<path d="M7.3487 33.4051
L7.2278 33.4656
" />
<path d="M9.1630 34.3727
L8.4373 34.3727
" />
<path d="M8.8001 34.3727
L8.8001 33.1027
" />
<path d="M8.8001 33.1027
L8.6792 33.2842
" />
<path d="M8.6792 33.2842
L8.5582 33.4051
" />
<path d="M8.5582 33.4051
L8.4373 33.4656
" />
</g></g>
<g style="fill:#840000; fill-opacity:0.0; 
stroke:#840000; stroke-width:0.1524; stroke-opacity:1; 
stroke-linecap:round; stroke-linejoin:round;">
<path d="M10.1004 37.3222
L6.2904 37.3222
" />
</g>
<g style="fill:#A90000; fill-opacity:0.0; 
stroke:#A90000; stroke-width:0.1524; stroke-opacity:1; 
stroke-linecap:round; stroke-linejoin:round;">
<text x="8.1954" y="37.0682"
textLength="2.5460" font-size="1.6933" lengthAdjust="spacingAndGlyphs"
text-anchor="middle" opacity="0">12</text>
<g class="stroked-text"><desc>12</desc>
<path d="M7.9535 36.9127
L7.2278 36.9127
" />
<path d="M7.5906 36.9127
L7.5906 35.6427
" />
<path d="M7.5906 35.6427
L7.4697 35.8242
" />
<path d="M7.4697 35.8242
L7.3487 35.9451
" />
<path d="M7.3487 35.9451
L7.2278 36.0056
" />
<path d="M8.4373 35.7637
L8.4977 35.7032
" />
<path d="M8.4977 35.7032
L8.6187 35.6427
" />
<path d="M8.6187 35.6427
L8.9211 35.6427
" />
<path d="M8.9211 35.6427
L9.0420 35.7032
" />
<path d="M9.0420 35.7032
L9.1025 35.7637
" />
<path d="M9.1025 35.7637
L9.1630 35.8846
" />
<path d="M9.1630 35.8846
L9.1630 36.0056
" />
<path d="M9.1630 36.0056
L9.1025 36.1870
" />
<path d="M9.1025 36.1870
L8.3768 36.9127
" />
<path d="M8.3768 36.9127
L9.1630 36.9127
" />
</g></g>
<g style="fill:#840000; fill-opacity:0.0; 
stroke:#840000; stroke-width:0.1524; stroke-opacity:1; 
stroke-linecap:round; stroke-linejoin:round;">
<path d="M10.1004 39.8622
L6.2904 39.8622
" />
</g>
<g style="fill:#A90000; fill-opacity:0.0; 
stroke:#A90000; stroke-width:0.1524; stroke-opacity:1; 
stroke-linecap:round; stroke-linejoin:round;">
<text x="8.1954" y="39.6082"
textLength="2.5460" font-size="1.6933" lengthAdjust="spacingAndGlyphs"
text-anchor="middle" opacity="0">13</text>
<g class="stroked-text"><desc>13</desc>
<path d="M7.9535 39.4527
L7.2278 39.4527
" />
<path d="M7.5906 39.4527
L7.5906 38.1827
" />
<path d="M7.5906 38.1827
L7.4697 38.3642
" />
<path d="M7.4697 38.3642
L7.3487 38.4851
" />
<path d="M7.3487 38.4851
L7.2278 38.5456
" />
<path d="M8.3768 38.1827
L9.1630 38.1827
" />
<path d="M9.1630 38.1827
L8.7396 38.6665
" />
<path d="M8.7396 38.6665
L8.9211 38.6665
" />
<path d="M8.9211 38.6665
L9.0420 38.7270
" />
<path d="M9.0420 38.7270
L9.1025 38.7875
" />
<path d="M9.1025 38.7875
L9.1630 38.9084
" />
<path d="M9.1630 38.9084
L9.1630 39.2108
" />
<path d="M9.1630 39.2108
L9.1025 39.3318
" />
<path d="M9.1025 39.3318
L9.0420 39.3923
" />
<path d="M9.0420 39.3923
L8.9211 39.4527
" />
<path d="M8.9211 39.4527
L8.5582 39.4527
" />
<path d="M8.5582 39.4527
L8.4373 39.3923
" />
<path d="M8.4373 39.3923
L8.3768 39.3318
" />
</g></g>
<g style="fill:#840000; fill-opacity:0.0; 
stroke:#840000; stroke-width:0.1524; stroke-opacity:1; 
stroke-linecap:round; stroke-linejoin:round;">
<path d="M10.1004 42.4022
L6.2904 42.4022
" />
</g>
<g style="fill:#A90000; fill-opacity:0.0; 
stroke:#A90000; stroke-width:0.1524; stroke-opacity:1; 
stroke-linecap:round; stroke-linejoin:round;">
<text x="8.1954" y="42.1482"
textLength="2.5460" font-size="1.6933" lengthAdjust="spacingAndGlyphs"
text-anchor="middle" opacity="0">14</text>
<g class="stroked-text"><desc>14</desc>
<path d="M7.9535 41.9927
L7.2278 41.9927
" />
<path d="M7.5906 41.9927
L7.5906 40.7227
" />
<path d="M7.5906 40.7227
L7.4697 40.9042
" />
<path d="M7.4697 40.9042
L7.3487 41.0251
" />
<path d="M7.3487 41.0251
L7.2278 41.0856
" />
<path d="M9.0420 41.1461
L9.0420 41.9927
" />
<path d="M8.7396 40.6623
L8.4373 41.5694
" />
<path d="M8.4373 41.5694
L9.2234 41.5694
" />
</g></g>
<g style="fill:#840000; fill-opacity:0.0; 
stroke:#840000; stroke-width:0.1524; stroke-opacity:1; 
stroke-linecap:round; stroke-linejoin:round;">
<path d="M10.1004 44.9422
L6.2904 44.9422
" />
</g>
<g style="fill:#A90000; fill-opacity:0.0; 
stroke:#A90000; stroke-width:0.1524; stroke-opacity:1; 
stroke-linecap:round; stroke-linejoin:round;">
<text x="8.1954" y="44.6882"
textLength="2.5460" font-size="1.6933" lengthAdjust="spacingAndGlyphs"
text-anchor="middle" opacity="0">15</text>
<g class="stroked-text"><desc>15</desc>
<path d="M7.9535 44.5327
L7.2278 44.5327
" />
<path d="M7.5906 44.5327
L7.5906 43.2627
" />
<path d="M7.5906 43.2627
L7.4697 43.4442
" />
<path d="M7.4697 43.4442
L7.3487 43.5651
" />
<path d="M7.3487 43.5651
L7.2278 43.6256
" />
<path d="M9.1025 43.2627
L8.4977 43.2627
" />
<path d="M8.4977 43.2627
L8.4373 43.8675
" />
<path d="M8.4373 43.8675
L8.4977 43.8070
" />
<path d="M8.4977 43.8070
L8.6187 43.7465
" />
<path d="M8.6187 43.7465
L8.9211 43.7465
" />
<path d="M8.9211 43.7465
L9.0420 43.8070
" />
<path d="M9.0420 43.8070
L9.1025 43.8675
" />
<path d="M9.1025 43.8675
L9.1630 43.9884
" />
<path d="M9.1630 43.9884
L9.1630 44.2908
" />
<path d="M9.1630 44.2908
L9.1025 44.4118
" />
<path d="M9.1025 44.4118
L9.0420 44.4723
" />
<path d="M9.0420 44.4723
L8.9211 44.5327
" />
<path d="M8.9211 44.5327
L8.6187 44.5327
" />
<path d="M8.6187 44.5327
L8.4977 44.4723
" />
<path d="M8.4977 44.4723
L8.4373 44.4118
" />
</g></g>
<g style="fill:#840000; fill-opacity:0.0; 
stroke:#840000; stroke-width:0.1524; stroke-opacity:1; 
stroke-linecap:round; stroke-linejoin:round;">
<path d="M10.1004 47.4822
L6.2904 47.4822
" />
</g>
<g style="fill:#A90000; fill-opacity:0.0; 
stroke:#A90000; stroke-width:0.1524; stroke-opacity:1; 
stroke-linecap:round; stroke-linejoin:round;">
<text x="8.1954" y="47.2282"
textLength="2.5460" font-size="1.6933" lengthAdjust="spacingAndGlyphs"
text-anchor="middle" opacity="0">16</text>
<g class="stroked-text"><desc>16</desc>
<path d="M7.9535 47.0727
L7.2278 47.0727
" />
<path d="M7.5906 47.0727
L7.5906 45.8027
" />
<path d="M7.5906 45.8027
L7.4697 45.9842
" />
<path d="M7.4697 45.9842
L7.3487 46.1051
" />
<path d="M7.3487 46.1051
L7.2278 46.1656
" />
<path d="M9.0420 45.8027
L8.8001 45.8027
" />
<path d="M8.8001 45.8027
L8.6792 45.8632
" />
<path d="M8.6792 45.8632
L8.6187 45.9237
" />
<path d="M8.6187 45.9237
L8.4977 46.1051
" />
<path d="M8.4977 46.1051
L8.4373 46.3470
" />
<path d="M8.4373 46.3470
L8.4373 46.8308
" />
<path d="M8.4373 46.8308
L8.4977 46.9518
" />
<path d="M8.4977 46.9518
L8.5582 47.0123
" />
<path d="M8.5582 47.0123
L8.6792 47.0727
" />
<path d="M8.6792 47.0727
L8.9211 47.0727
" />
<path d="M8.9211 47.0727
L9.0420 47.0123
" />
<path d="M9.0420 47.0123
L9.1025 46.9518
" />
<path d="M9.1025 46.9518
L9.1630 46.8308
" />
<path d="M9.1630 46.8308
L9.1630 46.5284
" />
<path d="M9.1630 46.5284
L9.1025 46.4075
" />
<path d="M9.1025 46.4075
L9.0420 46.3470
" />
<path d="M9.0420 46.3470
L8.9211 46.2865
" />
<path d="M8.9211 46.2865
L8.6792 46.2865
" />
<path d="M8.6792 46.2865
L8.5582 46.3470
" />
<path d="M8.5582 46.3470
L8.4977 46.4075
" />
<path d="M8.4977 46.4075
L8.4373 46.5284
" />
</g></g>
<g style="fill:#840000; fill-opacity:0.0; 
stroke:#840000; stroke-width:0.1524; stroke-opacity:1; 
stroke-linecap:round; stroke-linejoin:round;">
<path d="M10.1004 50.0222
L6.2904 50.0222
" />
</g>
<g style="fill:#A90000; fill-opacity:0.0; 
stroke:#A90000; stroke-width:0.1524; stroke-opacity:1; 
stroke-linecap:round; stroke-linejoin:round;">
<text x="8.1954" y="49.7682"
textLength="2.5460" font-size="1.6933" lengthAdjust="spacingAndGlyphs"
text-anchor="middle" opacity="0">17</text>
<g class="stroked-text"><desc>17</desc>
<path d="M7.9535 49.6127
L7.2278 49.6127
" />
<path d="M7.5906 49.6127
L7.5906 48.3427
" />
<path d="M7.5906 48.3427
L7.4697 48.5242
" />
<path d="M7.4697 48.5242
L7.3487 48.6451
" />
<path d="M7.3487 48.6451
L7.2278 48.7056
" />
<path d="M8.3768 48.3427
L9.2234 48.3427
" />
<path d="M9.2234 48.3427
L8.6792 49.6127
" />
</g></g>
<g style="fill:#840000; fill-opacity:0.0; 
stroke:#840000; stroke-width:0.1524; stroke-opacity:1; 
stroke-linecap:round; stroke-linejoin:round;">
<path d="M10.1004 52.5622
L6.2904 52.5622
" />
</g>
<g style="fill:#A90000; fill-opacity:0.0; 
stroke:#A90000; stroke-width:0.1524; stroke-opacity:1; 
stroke-linecap:round; stroke-linejoin:round;">
<text x="8.1954" y="52.3082"
textLength="2.5460" font-size="1.6933" lengthAdjust="spacingAndGlyphs"
text-anchor="middle" opacity="0">18</text>
<g class="stroked-text"><desc>18</desc>
<path d="M7.9535 52.1527
L7.2278 52.1527
" />
<path d="M7.5906 52.1527
L7.5906 50.8827
" />
<path d="M7.5906 50.8827
L7.4697 51.0642
" />
<path d="M7.4697 51.0642
L7.3487 51.1851
" />
<path d="M7.3487 51.1851
L7.2278 51.2456
" />
<path d="M8.6792 51.4270
L8.5582 51.3665
" />
<path d="M8.5582 51.3665
L8.4977 51.3061
" />
<path d="M8.4977 51.3061
L8.4373 51.1851
" />
<path d="M8.4373 51.1851
L8.4373 51.1246
" />
<path d="M8.4373 51.1246
L8.4977 51.0037
" />
<path d="M8.4977 51.0037
L8.5582 50.9432
" />
<path d="M8.5582 50.9432
L8.6792 50.8827
" />
<path d="M8.6792 50.8827
L8.9211 50.8827
" />
<path d="M8.9211 50.8827
L9.0420 50.9432
" />
<path d="M9.0420 50.9432
L9.1025 51.0037
" />
<path d="M9.1025 51.0037
L9.1630 51.1246
" />
<path d="M9.1630 51.1246
L9.1630 51.1851
" />
<path d="M9.1630 51.1851
L9.1025 51.3061
" />
<path d="M9.1025 51.3061
L9.0420 51.3665
" />
<path d="M9.0420 51.3665
L8.9211 51.4270
" />
<path d="M8.9211 51.4270
L8.6792 51.4270
" />
<path d="M8.6792 51.4270
L8.5582 51.4875
" />
<path d="M8.5582 51.4875
L8.4977 51.5480
" />
<path d="M8.4977 51.5480
L8.4373 51.6689
" />
<path d="M8.4373 51.6689
L8.4373 51.9108
" />
<path d="M8.4373 51.9108
L8.4977 52.0318
" />
<path d="M8.4977 52.0318
L8.5582 52.0923
" />
<path d="M8.5582 52.0923
L8.6792 52.1527
" />
<path d="M8.6792 52.1527
L8.9211 52.1527
" />
<path d="M8.9211 52.1527
L9.0420 52.0923
" />
<path d="M9.0420 52.0923
L9.1025 52.0318
" />
<path d="M9.1025 52.0318
L9.1630 51.9108
" />
<path d="M9.1630 51.9108
L9.1630 51.6689
" />
<path d="M9.1630 51.6689
L9.1025 51.5480
" />
<path d="M9.1025 51.5480
L9.0420 51.4875
" />
<path d="M9.0420 51.4875
L8.9211 51.4270
" />
</g></g>
<g style="fill:#840000; fill-opacity:0.0; 
stroke:#840000; stroke-width:0.1524; stroke-opacity:1; 
stroke-linecap:round; stroke-linejoin:round;">
<path d="M10.1004 55.1022
L6.2904 55.1022
" />
</g>
<g style="fill:#A90000; fill-opacity:0.0; 
stroke:#A90000; stroke-width:0.1524; stroke-opacity:1; 
stroke-linecap:round; stroke-linejoin:round;">
<text x="8.1954" y="54.8482"
textLength="2.5460" font-size="1.6933" lengthAdjust="spacingAndGlyphs"
text-anchor="middle" opacity="0">19</text>
<g class="stroked-text"><desc>19</desc>
<path d="M7.9535 54.6927
L7.2278 54.6927
" />
<path d="M7.5906 54.6927
L7.5906 53.4227
" />
<path d="M7.5906 53.4227
L7.4697 53.6042
" />
<path d="M7.4697 53.6042
L7.3487 53.7251
" />
<path d="M7.3487 53.7251
L7.2278 53.7856
" />
<path d="M8.5582 54.6927
L8.8001 54.6927
" />
<path d="M8.8001 54.6927
L8.9211 54.6323
" />
<path d="M8.9211 54.6323
L8.9815 54.5718
" />
<path d="M8.9815 54.5718
L9.1025 54.3903
" />
<path d="M9.1025 54.3903
L9.1630 54.1484
" />
<path d="M9.1630 54.1484
L9.1630 53.6646
" />
<path d="M9.1630 53.6646
L9.1025 53.5437
" />
<path d="M9.1025 53.5437
L9.0420 53.4832
" />
<path d="M9.0420 53.4832
L8.9211 53.4227
" />
<path d="M8.9211 53.4227
L8.6792 53.4227
" />
<path d="M8.6792 53.4227
L8.5582 53.4832
" />
<path d="M8.5582 53.4832
L8.4977 53.5437
" />
<path d="M8.4977 53.5437
L8.4373 53.6646
" />
<path d="M8.4373 53.6646
L8.4373 53.9670
" />
<path d="M8.4373 53.9670
L8.4977 54.0880
" />
<path d="M8.4977 54.0880
L8.5582 54.1484
" />
<path d="M8.5582 54.1484
L8.6792 54.2089
" />
<path d="M8.6792 54.2089
L8.9211 54.2089
" />
<path d="M8.9211 54.2089
L9.0420 54.1484
" />
<path d="M9.0420 54.1484
L9.1025 54.0880
" />
<path d="M9.1025 54.0880
L9.1630 53.9670
" />
</g></g>
<g style="fill:#840000; fill-opacity:0.0; 
stroke:#840000; stroke-width:0.1524; stroke-opacity:1; 
stroke-linecap:round; stroke-linejoin:round;">
<path d="M10.1004 11.9222
L6.2904 11.9222
" />
</g>
<g style="fill:#A90000; fill-opacity:0.0; 
stroke:#A90000; stroke-width:0.1524; stroke-opacity:1; 
stroke-linecap:round; stroke-linejoin:round;">
<text x="8.1954" y="11.6682"
textLength="1.3365" font-size="1.6933" lengthAdjust="spacingAndGlyphs"
text-anchor="middle" opacity="0">2</text>
<g class="stroked-text"><desc>2</desc>
<path d="M7.8326 10.3637
L7.8930 10.3032
" />
<path d="M7.8930 10.3032
L8.0140 10.2427
" />
<path d="M8.0140 10.2427
L8.3164 10.2427
" />
<path d="M8.3164 10.2427
L8.4373 10.3032
" />
<path d="M8.4373 10.3032
L8.4978 10.3637
" />
<path d="M8.4978 10.3637
L8.5583 10.4846
" />
<path d="M8.5583 10.4846
L8.5583 10.6056
" />
<path d="M8.5583 10.6056
L8.4978 10.7870
" />
<path d="M8.4978 10.7870
L7.7721 11.5127
" />
<path d="M7.7721 11.5127
L8.5583 11.5127
" />
</g></g>
<g style="fill:#840000; fill-opacity:0.0; 
stroke:#840000; stroke-width:0.1524; stroke-opacity:1; 
stroke-linecap:round; stroke-linejoin:round;">
<path d="M10.1004 57.6422
L6.2904 57.6422
" />
</g>
<g style="fill:#A90000; fill-opacity:0.0; 
stroke:#A90000; stroke-width:0.1524; stroke-opacity:1; 
stroke-linecap:round; stroke-linejoin:round;">
<text x="8.1954" y="57.3882"
textLength="2.5460" font-size="1.6933" lengthAdjust="spacingAndGlyphs"
text-anchor="middle" opacity="0">20</text>
<g class="stroked-text"><desc>20</desc>
<path d="M7.2278 56.0837
L7.2882 56.0232
" />
<path d="M7.2882 56.0232
L7.4092 55.9627
" />
<path d="M7.4092 55.9627
L7.7116 55.9627
" />
<path d="M7.7116 55.9627
L7.8325 56.0232
" />
<path d="M7.8325 56.0232
L7.8930 56.0837
" />
<path d="M7.8930 56.0837
L7.9535 56.2046
" />
<path d="M7.9535 56.2046
L7.9535 56.3256
" />
<path d="M7.9535 56.3256
L7.8930 56.5070
" />
<path d="M7.8930 56.5070
L7.1673 57.2327
" />
<path d="M7.1673 57.2327
L7.9535 57.2327
" />
<path d="M8.7396 55.9627
L8.8606 55.9627
" />
<path d="M8.8606 55.9627
L8.9815 56.0232
" />
<path d="M8.9815 56.0232
L9.0420 56.0837
" />
<path d="M9.0420 56.0837
L9.1025 56.2046
" />
<path d="M9.1025 56.2046
L9.1630 56.4465
" />
<path d="M9.1630 56.4465
L9.1630 56.7489
" />
<path d="M9.1630 56.7489
L9.1025 56.9908
" />
<path d="M9.1025 56.9908
L9.0420 57.1118
" />
<path d="M9.0420 57.1118
L8.9815 57.1723
" />
<path d="M8.9815 57.1723
L8.8606 57.2327
" />
<path d="M8.8606 57.2327
L8.7396 57.2327
" />
<path d="M8.7396 57.2327
L8.6187 57.1723
" />
<path d="M8.6187 57.1723
L8.5582 57.1118
" />
<path d="M8.5582 57.1118
L8.4977 56.9908
" />
<path d="M8.4977 56.9908
L8.4373 56.7489
" />
<path d="M8.4373 56.7489
L8.4373 56.4465
" />
<path d="M8.4373 56.4465
L8.4977 56.2046
" />
<path d="M8.4977 56.2046
L8.5582 56.0837
" />
<path d="M8.5582 56.0837
L8.6187 56.0232
" />
<path d="M8.6187 56.0232
L8.7396 55.9627
" />
</g></g>
<g style="fill:#840000; fill-opacity:0.0; 
stroke:#840000; stroke-width:0.1524; stroke-opacity:1; 
stroke-linecap:round; stroke-linejoin:round;">
<path d="M10.1004 60.1822
L6.2904 60.1822
" />
</g>
<g style="fill:#A90000; fill-opacity:0.0; 
stroke:#A90000; stroke-width:0.1524; stroke-opacity:1; 
stroke-linecap:round; stroke-linejoin:round;">
<text x="8.1954" y="59.9282"
textLength="2.5460" font-size="1.6933" lengthAdjust="spacingAndGlyphs"
text-anchor="middle" opacity="0">21</text>
<g class="stroked-text"><desc>21</desc>
<path d="M7.2278 58.6237
L7.2882 58.5632
" />
<path d="M7.2882 58.5632
L7.4092 58.5027
" />
<path d="M7.4092 58.5027
L7.7116 58.5027
" />
<path d="M7.7116 58.5027
L7.8325 58.5632
" />
<path d="M7.8325 58.5632
L7.8930 58.6237
" />
<path d="M7.8930 58.6237
L7.9535 58.7446
" />
<path d="M7.9535 58.7446
L7.9535 58.8656
" />
<path d="M7.9535 58.8656
L7.8930 59.0470
" />
<path d="M7.8930 59.0470
L7.1673 59.7727
" />
<path d="M7.1673 59.7727
L7.9535 59.7727
" />
<path d="M9.1630 59.7727
L8.4373 59.7727
" />
<path d="M8.8001 59.7727
L8.8001 58.5027
" />
<path d="M8.8001 58.5027
L8.6792 58.6842
" />
<path d="M8.6792 58.6842
L8.5582 58.8051
" />
<path d="M8.5582 58.8051
L8.4373 58.8656
" />
</g></g>
<g style="fill:#840000; fill-opacity:0.0; 
stroke:#840000; stroke-width:0.1524; stroke-opacity:1; 
stroke-linecap:round; stroke-linejoin:round;">
<path d="M10.1004 62.7222
L6.2904 62.7222
" />
</g>
<g style="fill:#A90000; fill-opacity:0.0; 
stroke:#A90000; stroke-width:0.1524; stroke-opacity:1; 
stroke-linecap:round; stroke-linejoin:round;">
<text x="8.1954" y="62.4682"
textLength="2.5460" font-size="1.6933" lengthAdjust="spacingAndGlyphs"
text-anchor="middle" opacity="0">22</text>
<g class="stroked-text"><desc>22</desc>
<path d="M7.2278 61.1637
L7.2882 61.1032
" />
<path d="M7.2882 61.1032
L7.4092 61.0427
" />
<path d="M7.4092 61.0427
L7.7116 61.0427
" />
<path d="M7.7116 61.0427
L7.8325 61.1032
" />
<path d="M7.8325 61.1032
L7.8930 61.1637
" />
<path d="M7.8930 61.1637
L7.9535 61.2846
" />
<path d="M7.9535 61.2846
L7.9535 61.4056
" />
<path d="M7.9535 61.4056
L7.8930 61.5870
" />
<path d="M7.8930 61.5870
L7.1673 62.3127
" />
<path d="M7.1673 62.3127
L7.9535 62.3127
" />
<path d="M8.4373 61.1637
L8.4977 61.1032
" />
<path d="M8.4977 61.1032
L8.6187 61.0427
" />
<path d="M8.6187 61.0427
L8.9211 61.0427
" />
<path d="M8.9211 61.0427
L9.0420 61.1032
" />
<path d="M9.0420 61.1032
L9.1025 61.1637
" />
<path d="M9.1025 61.1637
L9.1630 61.2846
" />
<path d="M9.1630 61.2846
L9.1630 61.4056
" />
<path d="M9.1630 61.4056
L9.1025 61.5870
" />
<path d="M9.1025 61.5870
L8.3768 62.3127
" />
<path d="M8.3768 62.3127
L9.1630 62.3127
" />
</g></g>
<g style="fill:#840000; fill-opacity:0.0; 
stroke:#840000; stroke-width:0.1524; stroke-opacity:1; 
stroke-linecap:round; stroke-linejoin:round;">
<path d="M10.1004 14.4622
L6.2904 14.4622
" />
</g>
<g style="fill:#A90000; fill-opacity:0.0; 
stroke:#A90000; stroke-width:0.1524; stroke-opacity:1; 
stroke-linecap:round; stroke-linejoin:round;">
<text x="8.1954" y="14.2082"
textLength="1.3365" font-size="1.6933" lengthAdjust="spacingAndGlyphs"
text-anchor="middle" opacity="0">3</text>
<g class="stroked-text"><desc>3</desc>
<path d="M7.7721 12.7827
L8.5583 12.7827
" />
<path d="M8.5583 12.7827
L8.1349 13.2665
" />
<path d="M8.1349 13.2665
L8.3164 13.2665
" />
<path d="M8.3164 13.2665
L8.4373 13.3270
" />
<path d="M8.4373 13.3270
L8.4978 13.3875
" />
<path d="M8.4978 13.3875
L8.5583 13.5084
" />
<path d="M8.5583 13.5084
L8.5583 13.8108
" />
<path d="M8.5583 13.8108
L8.4978 13.9318
" />
<path d="M8.4978 13.9318
L8.4373 13.9923
" />
<path d="M8.4373 13.9923
L8.3164 14.0527
" />
<path d="M8.3164 14.0527
L7.9535 14.0527
" />
<path d="M7.9535 14.0527
L7.8326 13.9923
" />
<path d="M7.8326 13.9923
L7.7721 13.9318
" />
</g></g>
<g style="fill:#840000; fill-opacity:0.0; 
stroke:#840000; stroke-width:0.1524; stroke-opacity:1; 
stroke-linecap:round; stroke-linejoin:round;">
<path d="M10.1004 17.0022
L6.2904 17.0022
" />
</g>
<g style="fill:#A90000; fill-opacity:0.0; 
stroke:#A90000; stroke-width:0.1524; stroke-opacity:1; 
stroke-linecap:round; stroke-linejoin:round;">
<text x="8.1954" y="16.7482"
textLength="1.3365" font-size="1.6933" lengthAdjust="spacingAndGlyphs"
text-anchor="middle" opacity="0">4</text>
<g class="stroked-text"><desc>4</desc>
<path d="M8.4373 15.7461
L8.4373 16.5927
" />
<path d="M8.1349 15.2623
L7.8326 16.1694
" />
<path d="M7.8326 16.1694
L8.6187 16.1694
" />
</g></g>
<g style="fill:#840000; fill-opacity:0.0; 
stroke:#840000; stroke-width:0.1524; stroke-opacity:1; 
stroke-linecap:round; stroke-linejoin:round;">
<path d="M10.1004 19.5422
L6.2904 19.5422
" />
</g>
<g style="fill:#A90000; fill-opacity:0.0; 
stroke:#A90000; stroke-width:0.1524; stroke-opacity:1; 
stroke-linecap:round; stroke-linejoin:round;">
<text x="8.1954" y="19.2882"
textLength="1.3365" font-size="1.6933" lengthAdjust="spacingAndGlyphs"
text-anchor="middle" opacity="0">5</text>
<g class="stroked-text"><desc>5</desc>
<path d="M8.4978 17.8627
L7.8930 17.8627
" />
<path d="M7.8930 17.8627
L7.8326 18.4675
" />
<path d="M7.8326 18.4675
L7.8930 18.4070
" />
<path d="M7.8930 18.4070
L8.0140 18.3465
" />
<path d="M8.0140 18.3465
L8.3164 18.3465
" />
<path d="M8.3164 18.3465
L8.4373 18.4070
" />
<path d="M8.4373 18.4070
L8.4978 18.4675
" />
<path d="M8.4978 18.4675
L8.5583 18.5884
" />
<path d="M8.5583 18.5884
L8.5583 18.8908
" />
<path d="M8.5583 18.8908
L8.4978 19.0118
" />
<path d="M8.4978 19.0118
L8.4373 19.0723
" />
<path d="M8.4373 19.0723
L8.3164 19.1327
" />
<path d="M8.3164 19.1327
L8.0140 19.1327
" />
<path d="M8.0140 19.1327
L7.8930 19.0723
" />
<path d="M7.8930 19.0723
L7.8326 19.0118
" />
</g></g>
<g style="fill:#840000; fill-opacity:0.0; 
stroke:#840000; stroke-width:0.1524; stroke-opacity:1; 
stroke-linecap:round; stroke-linejoin:round;">
<path d="M10.1004 22.0822
L6.2904 22.0822
" />
</g>
<g style="fill:#A90000; fill-opacity:0.0; 
stroke:#A90000; stroke-width:0.1524; stroke-opacity:1; 
stroke-linecap:round; stroke-linejoin:round;">
<text x="8.1954" y="21.8282"
textLength="1.3365" font-size="1.6933" lengthAdjust="spacingAndGlyphs"
text-anchor="middle" opacity="0">6</text>
<g class="stroked-text"><desc>6</desc>
<path d="M8.4373 20.4027
L8.1954 20.4027
" />
<path d="M8.1954 20.4027
L8.0745 20.4632
" />
<path d="M8.0745 20.4632
L8.0140 20.5237
" />
<path d="M8.0140 20.5237
L7.8930 20.7051
" />
<path d="M7.8930 20.7051
L7.8326 20.9470
" />
<path d="M7.8326 20.9470
L7.8326 21.4308
" />
<path d="M7.8326 21.4308
L7.8930 21.5518
" />
<path d="M7.8930 21.5518
L7.9535 21.6123
" />
<path d="M7.9535 21.6123
L8.0745 21.6727
" />
<path d="M8.0745 21.6727
L8.3164 21.6727
" />
<path d="M8.3164 21.6727
L8.4373 21.6123
" />
<path d="M8.4373 21.6123
L8.4978 21.5518
" />
<path d="M8.4978 21.5518
L8.5583 21.4308
" />
<path d="M8.5583 21.4308
L8.5583 21.1284
" />
<path d="M8.5583 21.1284
L8.4978 21.0075
" />
<path d="M8.4978 21.0075
L8.4373 20.9470
" />
<path d="M8.4373 20.9470
L8.3164 20.8865
" />
<path d="M8.3164 20.8865
L8.0745 20.8865
" />
<path d="M8.0745 20.8865
L7.9535 20.9470
" />
<path d="M7.9535 20.9470
L7.8930 21.0075
" />
<path d="M7.8930 21.0075
L7.8326 21.1284
" />
</g></g>
<g style="fill:#840000; fill-opacity:0.0; 
stroke:#840000; stroke-width:0.1524; stroke-opacity:1; 
stroke-linecap:round; stroke-linejoin:round;">
<path d="M10.1004 24.6222
L6.2904 24.6222
" />
</g>
<g style="fill:#A90000; fill-opacity:0.0; 
stroke:#A90000; stroke-width:0.1524; stroke-opacity:1; 
stroke-linecap:round; stroke-linejoin:round;">
<text x="8.1954" y="24.3682"
textLength="1.3365" font-size="1.6933" lengthAdjust="spacingAndGlyphs"
text-anchor="middle" opacity="0">7</text>
<g class="stroked-text"><desc>7</desc>
<path d="M7.7721 22.9427
L8.6187 22.9427
" />
<path d="M8.6187 22.9427
L8.0745 24.2127
" />
</g></g>
<g style="fill:#840000; fill-opacity:0.0; 
stroke:#840000; stroke-width:0.1524; stroke-opacity:1; 
stroke-linecap:round; stroke-linejoin:round;">
<path d="M10.1004 27.1622
L6.2904 27.1622
" />
</g>
<g style="fill:#A90000; fill-opacity:0.0; 
stroke:#A90000; stroke-width:0.1524; stroke-opacity:1; 
stroke-linecap:round; stroke-linejoin:round;">
<text x="8.1954" y="26.9082"
textLength="1.3365" font-size="1.6933" lengthAdjust="spacingAndGlyphs"
text-anchor="middle" opacity="0">8</text>
<g class="stroked-text"><desc>8</desc>
<path d="M8.0745 26.0270
L7.9535 25.9665
" />
<path d="M7.9535 25.9665
L7.8930 25.9061
" />
<path d="M7.8930 25.9061
L7.8326 25.7851
" />
<path d="M7.8326 25.7851
L7.8326 25.7246
" />
<path d="M7.8326 25.7246
L7.8930 25.6037
" />
<path d="M7.8930 25.6037
L7.9535 25.5432
" />
<path d="M7.9535 25.5432
L8.0745 25.4827
" />
<path d="M8.0745 25.4827
L8.3164 25.4827
" />
<path d="M8.3164 25.4827
L8.4373 25.5432
" />
<path d="M8.4373 25.5432
L8.4978 25.6037
" />
<path d="M8.4978 25.6037
L8.5583 25.7246
" />
<path d="M8.5583 25.7246
L8.5583 25.7851
" />
<path d="M8.5583 25.7851
L8.4978 25.9061
" />
<path d="M8.4978 25.9061
L8.4373 25.9665
" />
<path d="M8.4373 25.9665
L8.3164 26.0270
" />
<path d="M8.3164 26.0270
L8.0745 26.0270
" />
<path d="M8.0745 26.0270
L7.9535 26.0875
" />
<path d="M7.9535 26.0875
L7.8930 26.1480
" />
<path d="M7.8930 26.1480
L7.8326 26.2689
" />
<path d="M7.8326 26.2689
L7.8326 26.5108
" />
<path d="M7.8326 26.5108
L7.8930 26.6318
" />
<path d="M7.8930 26.6318
L7.9535 26.6923
" />
<path d="M7.9535 26.6923
L8.0745 26.7527
" />
<path d="M8.0745 26.7527
L8.3164 26.7527
" />
<path d="M8.3164 26.7527
L8.4373 26.6923
" />
<path d="M8.4373 26.6923
L8.4978 26.6318
" />
<path d="M8.4978 26.6318
L8.5583 26.5108
" />
<path d="M8.5583 26.5108
L8.5583 26.2689
" />
<path d="M8.5583 26.2689
L8.4978 26.1480
" />
<path d="M8.4978 26.1480
L8.4373 26.0875
" />
<path d="M8.4373 26.0875
L8.3164 26.0270
" />
</g></g>
<g style="fill:#840000; fill-opacity:0.0; 
stroke:#840000; stroke-width:0.1524; stroke-opacity:1; 
stroke-linecap:round; stroke-linejoin:round;">
<path d="M10.1004 29.7022
L6.2904 29.7022
" />
</g>
<g style="fill:#A90000; fill-opacity:0.0; 
stroke:#A90000; stroke-width:0.1524; stroke-opacity:1; 
stroke-linecap:round; stroke-linejoin:round;">
<text x="8.1954" y="29.4482"
textLength="1.3365" font-size="1.6933" lengthAdjust="spacingAndGlyphs"
text-anchor="middle" opacity="0">9</text>
<g class="stroked-text"><desc>9</desc>
<path d="M7.9535 29.2927
L8.1954 29.2927
" />
<path d="M8.1954 29.2927
L8.3164 29.2323
" />
<path d="M8.3164 29.2323
L8.3768 29.1718
" />
<path d="M8.3768 29.1718
L8.4978 28.9903
" />
<path d="M8.4978 28.9903
L8.5583 28.7484
" />
<path d="M8.5583 28.7484
L8.5583 28.2646
" />
<path d="M8.5583 28.2646
L8.4978 28.1437
" />
<path d="M8.4978 28.1437
L8.4373 28.0832
" />
<path d="M8.4373 28.0832
L8.3164 28.0227
" />
<path d="M8.3164 28.0227
L8.0745 28.0227
" />
<path d="M8.0745 28.0227
L7.9535 28.0832
" />
<path d="M7.9535 28.0832
L7.8930 28.1437
" />
<path d="M7.8930 28.1437
L7.8326 28.2646
" />
<path d="M7.8326 28.2646
L7.8326 28.5670
" />
<path d="M7.8326 28.5670
L7.8930 28.6880
" />
<path d="M7.8930 28.6880
L7.9535 28.7484
" />
<path d="M7.9535 28.7484
L8.0745 28.8089
" />
<path d="M8.0745 28.8089
L8.3164 28.8089
" />
<path d="M8.3164 28.8089
L8.4373 28.7484
" />
<path d="M8.4373 28.7484
L8.4978 28.6880
" />
<path d="M8.4978 28.6880
L8.5583 28.5670
" />
</g></g>
<g style="fill:#840084; fill-opacity:0.0; 
stroke:#840084; stroke-width:0.1524; stroke-opacity:1; 
stroke-linecap:round; stroke-linejoin:round;">
</g>
<g style="fill:#006464; fill-opacity:0.0; 
stroke:#006464; stroke-width:0.1524; stroke-opacity:1; 
stroke-linecap:round; stroke-linejoin:round;">
</g>
<g style="fill:#006464; fill-opacity:0.0; 
stroke:#006464; stroke-width:0.1588; stroke-opacity:1; 
stroke-linecap:round; stroke-linejoin:round;">
<text x="11.3704" y="7.4772"
textLength="2.1992" font-size="1.6933" lengthAdjust="spacingAndGlyphs"
text-anchor="middle" opacity="0">J?</text>
<g class="stroked-text"><desc>J?</desc>
<path d="M11.0075 6.1597
L11.0075 7.0669
" />
<path d="M11.0075 7.0669
L10.9470 7.2483
" />
<path d="M10.9470 7.2483
L10.8261 7.3693
" />
<path d="M10.8261 7.3693
L10.6446 7.4297
" />
<path d="M10.6446 7.4297
L10.5237 7.4297
" />
<path d="M11.7937 7.3088
L11.8541 7.3693
" />
<path d="M11.8541 7.3693
L11.7937 7.4297
" />
<path d="M11.7937 7.4297
L11.7332 7.3693
" />
<path d="M11.7332 7.3693
L11.7937 7.3088
" />
<path d="M11.7937 7.3088
L11.7937 7.4297
" />
<path d="M11.5518 6.2202
L11.6727 6.1597
" />
<path d="M11.6727 6.1597
L11.9751 6.1597
" />
<path d="M11.9751 6.1597
L12.0960 6.2202
" />
<path d="M12.0960 6.2202
L12.1565 6.3412
" />
<path d="M12.1565 6.3412
L12.1565 6.4621
" />
<path d="M12.1565 6.4621
L12.0960 6.5831
" />
<path d="M12.0960 6.5831
L12.0356 6.6435
" />
<path d="M12.0356 6.6435
L11.9146 6.7040
" />
<path d="M11.9146 6.7040
L11.8541 6.7645
" />
<path d="M11.8541 6.7645
L11.7937 6.8854
" />
<path d="M11.7937 6.8854
L11.7937 6.9459
" />
</g><text x="11.3704" y="65.8972"
textLength="18.9508" font-size="1.6933" lengthAdjust="spacingAndGlyphs"
text-anchor="middle" opacity="0">Conn_01x22_Socket</text>
<g class="stroked-text"><desc>Conn_01x22_Socket</desc>
<path d="M2.9945 65.7288
L2.9341 65.7893
" />
<path d="M2.9341 65.7893
L2.7526 65.8497
" />
<path d="M2.7526 65.8497
L2.6317 65.8497
" />
<path d="M2.6317 65.8497
L2.4503 65.7893
" />
<path d="M2.4503 65.7893
L2.3293 65.6683
" />
<path d="M2.3293 65.6683
L2.2688 65.5473
" />
<path d="M2.2688 65.5473
L2.2084 65.3054
" />
<path d="M2.2084 65.3054
L2.2084 65.1240
" />
<path d="M2.2084 65.1240
L2.2688 64.8821
" />
<path d="M2.2688 64.8821
L2.3293 64.7612
" />
<path d="M2.3293 64.7612
L2.4503 64.6402
" />
<path d="M2.4503 64.6402
L2.6317 64.5797
" />
<path d="M2.6317 64.5797
L2.7526 64.5797
" />
<path d="M2.7526 64.5797
L2.9341 64.6402
" />
<path d="M2.9341 64.6402
L2.9945 64.7007
" />
<path d="M3.7203 65.8497
L3.5993 65.7893
" />
<path d="M3.5993 65.7893
L3.5388 65.7288
" />
<path d="M3.5388 65.7288
L3.4784 65.6078
" />
<path d="M3.4784 65.6078
L3.4784 65.2450
" />
<path d="M3.4784 65.2450
L3.5388 65.1240
" />
<path d="M3.5388 65.1240
L3.5993 65.0635
" />
<path d="M3.5993 65.0635
L3.7203 65.0031
" />
<path d="M3.7203 65.0031
L3.9017 65.0031
" />
<path d="M3.9017 65.0031
L4.0226 65.0635
" />
<path d="M4.0226 65.0635
L4.0831 65.1240
" />
<path d="M4.0831 65.1240
L4.1436 65.2450
" />
<path d="M4.1436 65.2450
L4.1436 65.6078
" />
<path d="M4.1436 65.6078
L4.0831 65.7288
" />
<path d="M4.0831 65.7288
L4.0226 65.7893
" />
<path d="M4.0226 65.7893
L3.9017 65.8497
" />
<path d="M3.9017 65.8497
L3.7203 65.8497
" />
<path d="M4.6878 65.0031
L4.6878 65.8497
" />
<path d="M4.6878 65.1240
L4.7483 65.0635
" />
<path d="M4.7483 65.0635
L4.8693 65.0031
" />
<path d="M4.8693 65.0031
L5.0507 65.0031
" />
<path d="M5.0507 65.0031
L5.1716 65.0635
" />
<path d="M5.1716 65.0635
L5.2321 65.1845
" />
<path d="M5.2321 65.1845
L5.2321 65.8497
" />
<path d="M5.8368 65.0031
L5.8368 65.8497
" />
<path d="M5.8368 65.1240
L5.8973 65.0635
" />
<path d="M5.8973 65.0635
L6.0183 65.0031
" />
<path d="M6.0183 65.0031
L6.1997 65.0031
" />
<path d="M6.1997 65.0031
L6.3206 65.0635
" />
<path d="M6.3206 65.0635
L6.3811 65.1845
" />
<path d="M6.3811 65.1845
L6.3811 65.8497
" />
<path d="M6.6835 65.9707
L7.6511 65.9707
" />
<path d="M8.1953 64.5797
L8.3163 64.5797
" />
<path d="M8.3163 64.5797
L8.4372 64.6402
" />
<path d="M8.4372 64.6402
L8.4977 64.7007
" />
<path d="M8.4977 64.7007
L8.5582 64.8216
" />
<path d="M8.5582 64.8216
L8.6187 65.0635
" />
<path d="M8.6187 65.0635
L8.6187 65.3659
" />
<path d="M8.6187 65.3659
L8.5582 65.6078
" />
<path d="M8.5582 65.6078
L8.4977 65.7288
" />
<path d="M8.4977 65.7288
L8.4372 65.7893
" />
<path d="M8.4372 65.7893
L8.3163 65.8497
" />
<path d="M8.3163 65.8497
L8.1953 65.8497
" />
<path d="M8.1953 65.8497
L8.0744 65.7893
" />
<path d="M8.0744 65.7893
L8.0139 65.7288
" />
<path d="M8.0139 65.7288
L7.9534 65.6078
" />
<path d="M7.9534 65.6078
L7.8930 65.3659
" />
<path d="M7.8930 65.3659
L7.8930 65.0635
" />
<path d="M7.8930 65.0635
L7.9534 64.8216
" />
<path d="M7.9534 64.8216
L8.0139 64.7007
" />
<path d="M8.0139 64.7007
L8.0744 64.6402
" />
<path d="M8.0744 64.6402
L8.1953 64.5797
" />
<path d="M9.8282 65.8497
L9.1025 65.8497
" />
<path d="M9.4653 65.8497
L9.4653 64.5797
" />
<path d="M9.4653 64.5797
L9.3444 64.7612
" />
<path d="M9.3444 64.7612
L9.2234 64.8821
" />
<path d="M9.2234 64.8821
L9.1025 64.9426
" />
<path d="M10.2515 65.8497
L10.9167 65.0031
" />
<path d="M10.2515 65.0031
L10.9167 65.8497
" />
<path d="M11.3401 64.7007
L11.4005 64.6402
" />
<path d="M11.4005 64.6402
L11.5215 64.5797
" />
<path d="M11.5215 64.5797
L11.8239 64.5797
" />
<path d="M11.8239 64.5797
L11.9448 64.6402
" />
<path d="M11.9448 64.6402
L12.0053 64.7007
" />
<path d="M12.0053 64.7007
L12.0658 64.8216
" />
<path d="M12.0658 64.8216
L12.0658 64.9426
" />
<path d="M12.0658 64.9426
L12.0053 65.1240
" />
<path d="M12.0053 65.1240
L11.2796 65.8497
" />
<path d="M11.2796 65.8497
L12.0658 65.8497
" />
<path d="M12.5496 64.7007
L12.6100 64.6402
" />
<path d="M12.6100 64.6402
L12.7310 64.5797
" />
<path d="M12.7310 64.5797
L13.0334 64.5797
" />
<path d="M13.0334 64.5797
L13.1543 64.6402
" />
<path d="M13.1543 64.6402
L13.2148 64.7007
" />
<path d="M13.2148 64.7007
L13.2753 64.8216
" />
<path d="M13.2753 64.8216
L13.2753 64.9426
" />
<path d="M13.2753 64.9426
L13.2148 65.1240
" />
<path d="M13.2148 65.1240
L12.4891 65.8497
" />
<path d="M12.4891 65.8497
L13.2753 65.8497
" />
<path d="M13.5172 65.9707
L14.4848 65.9707
" />
<path d="M14.7267 65.7893
L14.9081 65.8497
" />
<path d="M14.9081 65.8497
L15.2105 65.8497
" />
<path d="M15.2105 65.8497
L15.3314 65.7893
" />
<path d="M15.3314 65.7893
L15.3919 65.7288
" />
<path d="M15.3919 65.7288
L15.4524 65.6078
" />
<path d="M15.4524 65.6078
L15.4524 65.4869
" />
<path d="M15.4524 65.4869
L15.3919 65.3659
" />
<path d="M15.3919 65.3659
L15.3314 65.3054
" />
<path d="M15.3314 65.3054
L15.2105 65.2450
" />
<path d="M15.2105 65.2450
L14.9686 65.1845
" />
<path d="M14.9686 65.1845
L14.8476 65.1240
" />
<path d="M14.8476 65.1240
L14.7871 65.0635
" />
<path d="M14.7871 65.0635
L14.7267 64.9426
" />
<path d="M14.7267 64.9426
L14.7267 64.8216
" />
<path d="M14.7267 64.8216
L14.7871 64.7007
" />
<path d="M14.7871 64.7007
L14.8476 64.6402
" />
<path d="M14.8476 64.6402
L14.9686 64.5797
" />
<path d="M14.9686 64.5797
L15.2709 64.5797
" />
<path d="M15.2709 64.5797
L15.4524 64.6402
" />
<path d="M16.1781 65.8497
L16.0571 65.7893
" />
<path d="M16.0571 65.7893
L15.9966 65.7288
" />
<path d="M15.9966 65.7288
L15.9362 65.6078
" />
<path d="M15.9362 65.6078
L15.9362 65.2450
" />
<path d="M15.9362 65.2450
L15.9966 65.1240
" />
<path d="M15.9966 65.1240
L16.0571 65.0635
" />
<path d="M16.0571 65.0635
L16.1781 65.0031
" />
<path d="M16.1781 65.0031
L16.3595 65.0031
" />
<path d="M16.3595 65.0031
L16.4804 65.0635
" />
<path d="M16.4804 65.0635
L16.5409 65.1240
" />
<path d="M16.5409 65.1240
L16.6014 65.2450
" />
<path d="M16.6014 65.2450
L16.6014 65.6078
" />
<path d="M16.6014 65.6078
L16.5409 65.7288
" />
<path d="M16.5409 65.7288
L16.4804 65.7893
" />
<path d="M16.4804 65.7893
L16.3595 65.8497
" />
<path d="M16.3595 65.8497
L16.1781 65.8497
" />
<path d="M17.6899 65.7893
L17.5690 65.8497
" />
<path d="M17.5690 65.8497
L17.3271 65.8497
" />
<path d="M17.3271 65.8497
L17.2061 65.7893
" />
<path d="M17.2061 65.7893
L17.1456 65.7288
" />
<path d="M17.1456 65.7288
L17.0852 65.6078
" />
<path d="M17.0852 65.6078
L17.0852 65.2450
" />
<path d="M17.0852 65.2450
L17.1456 65.1240
" />
<path d="M17.1456 65.1240
L17.2061 65.0635
" />
<path d="M17.2061 65.0635
L17.3271 65.0031
" />
<path d="M17.3271 65.0031
L17.5690 65.0031
" />
<path d="M17.5690 65.0031
L17.6899 65.0635
" />
<path d="M18.2342 65.8497
L18.2342 64.5797
" />
<path d="M18.3552 65.3659
L18.7180 65.8497
" />
<path d="M18.7180 65.0031
L18.2342 65.4869
" />
<path d="M19.7461 65.7893
L19.6252 65.8497
" />
<path d="M19.6252 65.8497
L19.3833 65.8497
" />
<path d="M19.3833 65.8497
L19.2623 65.7893
" />
<path d="M19.2623 65.7893
L19.2019 65.6683
" />
<path d="M19.2019 65.6683
L19.2019 65.1845
" />
<path d="M19.2019 65.1845
L19.2623 65.0635
" />
<path d="M19.2623 65.0635
L19.3833 65.0031
" />
<path d="M19.3833 65.0031
L19.6252 65.0031
" />
<path d="M19.6252 65.0031
L19.7461 65.0635
" />
<path d="M19.7461 65.0635
L19.8066 65.1845
" />
<path d="M19.8066 65.1845
L19.8066 65.3054
" />
<path d="M19.8066 65.3054
L19.2019 65.4264
" />
<path d="M20.1695 65.0031
L20.6533 65.0031
" />
<path d="M20.3509 64.5797
L20.3509 65.6683
" />
<path d="M20.3509 65.6683
L20.4114 65.7893
" />
<path d="M20.4114 65.7893
L20.5324 65.8497
" />
<path d="M20.5324 65.8497
L20.6533 65.8497
" />
</g></g>
<g style="fill:#840084; fill-opacity:0.0; 
stroke:#840084; stroke-width:0.1588; stroke-opacity:1; 
stroke-linecap:round; stroke-linejoin:round;">
<text x="11.3704" y="35.4172"
textLength="1.0501" font-size="1.6933" lengthAdjust="spacingAndGlyphs"
text-anchor="middle" opacity="0">~</text>
<g class="stroked-text"><desc>~</desc>
<path d="M11.0378 34.8859
L11.0983 34.8254
" />
<path d="M11.0983 34.8254
L11.2192 34.7650
" />
<path d="M11.2192 34.7650
L11.4611 34.8859
" />
<path d="M11.4611 34.8859
L11.5821 34.8254
" />
<path d="M11.5821 34.8254
L11.6426 34.7650
" />
</g></g> 
</svg>
